<svg id="Layer_1" data-name="Layer 1" xmlns="http://www.w3.org/2000/svg" viewBox="0 0 280 404.1452">
  <defs>
    <style>
      .top-dark {
        fill: #c67471;
      }

      .curtain-L-prim-dark {
        fill: #2f5565;
      }

      .curtain-R-prim-light {
        fill: #59acd0;
      }

      .curtain-R-prim-dark {
        fill: #3e809c;
      }

      .curtain-L-prim-light {
        fill: #438fb0;
      }

      .curtain-L-prim-dark-light {
        fill: #426a7a;
      }

      .curtain-R-prim-dark-light {
        fill: #4d90ad;
      }
    </style>
  </defs>
  <title>Artboard 2</title>
  <g id="Group">
    <path id="anchor_0_161.658_280" class="top-dark" d="M0,75.0556V69.2821L120,0,280,92.3761V98.15l-120,69.282Z"/>
    <path id="windows-L1" class="curtain-L-prim-dark" d="M0,69.2821l160,92.376,5-2.8867V401.2585l-5,2.8867L0,311.7692Z"/>
    <path id="windows-R4" class="curtain-R-prim-light" d="M160,161.6581l60-34.641,60-34.641V334.8632l-120,69.282Z"/>
    <path id="Path" class="curtain-R-prim-dark" d="M160,207.8461l120-69.282v-11.547l-120,69.282Z"/>
    <path id="Path-2" data-name="Path" class="curtain-R-prim-dark" d="M160,323.3161l120-69.282v-11.547l-120,69.282Z"/>
    <path id="Path-3" data-name="Path" class="curtain-R-prim-dark" d="M160,230.94l120-69.282v-11.547l-120,69.282Z"/>
    <path id="Path-4" data-name="Path" class="curtain-R-prim-dark" d="M160,346.41l120-69.282v-11.547l-120,69.282Z"/>
    <path id="Path-5" data-name="Path" class="curtain-R-prim-dark" d="M160,254.0341l120-69.282v-11.547l-120,69.282Z"/>
    <path id="Path-6" data-name="Path" class="curtain-R-prim-dark" d="M160,369.5042l120-69.2821V288.6752l-120,69.282Z"/>
    <path id="Path-7" data-name="Path" class="curtain-R-prim-dark" d="M160,184.7521,280,115.47v-11.547l-120,69.282Z"/>
    <path id="Path-8" data-name="Path" class="curtain-R-prim-dark" d="M160,300.2222,280,230.94v-11.547L160,288.6752Z"/>
    <path id="Path-9" data-name="Path" class="curtain-R-prim-dark" d="M160,277.1282l120-69.282v-11.547l-120,69.282Z"/>
    <path id="Path-10" data-name="Path" class="curtain-R-prim-dark" d="M160,392.5982l120-69.282v-11.547l-120,69.282Z"/>
    <path id="Path-11" data-name="Path" class="curtain-L-prim-light" d="M160,173.2051v-11.547L0,69.2821v11.547Z"/>
    <path id="Path-12" data-name="Path" class="curtain-L-prim-light" d="M160,265.5812v-11.547L0,161.6581v11.547Z"/>
    <path id="Path-13" data-name="Path" class="curtain-L-prim-light" d="M160,219.3931V207.8462L0,115.47v11.547Z"/>
    <path id="Path-14" data-name="Path" class="curtain-L-prim-light" d="M160,311.7692v-11.547L0,207.8462v11.547Z"/>
    <path id="Path-15" data-name="Path" class="curtain-L-prim-light" d="M160,357.9572V346.41L0,254.0342v11.547Z"/>
    <path id="Path-16" data-name="Path" class="curtain-L-prim-light" d="M160,196.2991v-11.547L0,92.3761v11.547Z"/>
    <path id="Path-17" data-name="Path" class="curtain-L-prim-light" d="M160,288.6752v-11.547L0,184.7522v11.547Z"/>
    <path id="Path-18" data-name="Path" class="curtain-L-prim-light" d="M160,242.4872V230.94L0,138.5641v11.547Z"/>
    <path id="Path-19" data-name="Path" class="curtain-L-prim-light" d="M160,334.8632v-11.547L0,230.94v11.547Z"/>
    <path id="Path-20" data-name="Path" class="curtain-L-prim-light" d="M160,381.0513v-11.547L0,277.1282v11.547Z"/>
    <path id="Path-21" data-name="Path" class="curtain-L-prim-light" d="M160,404.1452v-11.547L0,300.2222v11.547Z"/>
    <path id="windows-L2" class="curtain-L-prim-dark-light" d="M100,161.6581l7.5,4.33L105,176.0918l-7.5-4.33Z"/>
    <path id="windows-R1" class="curtain-R-prim-dark-light" d="M107.5,177.5352l-2.5-1.4434,2.5-10.1036Z"/>
    <path id="windows-L2-2" data-name="windows-L2" class="curtain-L-prim-dark-light" d="M100,323.3162l7.5,4.33L105,337.75l-7.5-4.33Z"/>
    <path id="windows-R1-2" data-name="windows-R1" class="curtain-R-prim-dark-light" d="M107.5,339.1933,105,337.75l2.5-10.1036Z"/>
    <path id="windows-L2-3" data-name="windows-L2" class="curtain-L-prim-dark-light" d="M76.25,147.946l7.5,4.33L81.25,162.38l-7.5-4.33Z"/>
    <path id="windows-R1-3" data-name="windows-R1" class="curtain-R-prim-dark-light" d="M83.75,163.8232l-2.5-1.4434,2.5-10.1037Z"/>
    <path id="windows-L2-4" data-name="windows-L2" class="curtain-L-prim-dark-light" d="M52.5,295.892l7.5,4.33-2.5,10.1037-7.5-4.33Z"/>
    <path id="windows-R1-4" data-name="windows-R1" class="curtain-R-prim-dark-light" d="M60,311.7692l-2.5-1.4434L60,300.2221Z"/>
    <path id="windows-L2-5" data-name="windows-L2" class="curtain-L-prim-dark-light" d="M52.5,203.516l7.5,4.33L57.5,217.95,50,213.62Z"/>
    <path id="windows-R1-5" data-name="windows-R1" class="curtain-R-prim-dark-light" d="M60,219.3931,57.5,217.95,60,207.8461Z"/>
    <path id="windows-L2-6" data-name="windows-L2" class="curtain-L-prim-dark-light" d="M76.25,263.4161l7.5,4.33L81.25,277.85l-7.5-4.33Z"/>
    <path id="windows-R1-6" data-name="windows-R1" class="curtain-R-prim-dark-light" d="M83.75,279.2932l-2.5-1.4433,2.5-10.1037Z"/>
    <path id="windows-R4-2" data-name="windows-R4" class="curtain-R-prim-dark-light" d="M247.5,122.687l-7.5,4.33,2.5,10.1037,7.5-4.33Z"/>
    <path id="windows-L4" class="curtain-L-prim-dark-light" d="M240,138.5641l2.5-1.4433L240,127.0171Z"/>
    <path id="windows-R4-3" data-name="windows-R4" class="curtain-R-prim-dark-light" d="M200,196.2991l-7.5,4.33,2.5,10.1036,7.5-4.33Z"/>
    <path id="windows-L4-2" data-name="windows-L4" class="curtain-L-prim-dark" d="M192.5,212.1763l2.5-1.4434-2.5-10.1036Z"/>
    <path id="windows-R4-4" data-name="windows-R4" class="curtain-R-prim-dark-light" d="M223.75,228.7751l-7.5,4.33,2.5,10.1036,7.5-4.33Z"/>
    <path id="windows-L4-3" data-name="windows-L4" class="curtain-L-prim-dark" d="M216.25,244.6522l2.5-1.4434-2.5-10.1036Z"/>
    <path id="windows-R4-5" data-name="windows-R4" class="curtain-R-prim-dark-light" d="M223.75,182.5871l-7.5,4.33,2.5,10.1036,7.5-4.33Z"/>
    <path id="windows-L4-4" data-name="windows-L4" class="curtain-L-prim-dark" d="M216.25,198.4642l2.5-1.4434-2.5-10.1036Z"/>
    <path id="windows-R4-6" data-name="windows-R4" class="curtain-R-prim-dark-light" d="M223.75,274.9631l-7.5,4.33,2.5,10.1037,7.5-4.33Z"/>
    <path id="windows-L4-5" data-name="windows-L4" class="curtain-L-prim-dark" d="M216.25,290.84l2.5-1.4433-2.5-10.1037Z"/>
    <path id="windows-R4-7" data-name="windows-R4" class="curtain-R-prim-dark-light" d="M200,334.8632l-7.5,4.33L195,349.297l7.5-4.33Z"/>
    <path id="windows-L4-6" data-name="windows-L4" class="curtain-L-prim-dark" d="M192.5,350.74l2.5-1.4433-2.5-10.1037Z"/>
    <path id="windows-R4-8" data-name="windows-R4" class="curtain-R-prim-dark-light" d="M223.75,344.2452l-7.5,4.33,2.5,10.1036,7.5-4.33Z"/>
    <path id="windows-L4-7" data-name="windows-L4" class="curtain-L-prim-dark" d="M216.25,360.1223l2.5-1.4434-2.5-10.1036Z"/>
    <path id="windows-R4-9" data-name="windows-R4" class="curtain-R-prim-dark-light" d="M247.5,215.063l-7.5,4.33,2.5,10.1037,7.5-4.33Z"/>
    <path id="windows-L4-8" data-name="windows-L4" class="curtain-L-prim-dark" d="M240,230.94l2.5-1.4433L240,219.3931Z"/>
    <path id="Path-22" data-name="Path" class="curtain-R-prim-dark-light" d="M223.75,136.3991l-7.5,4.33v11.547l7.5-4.33Z"/>
    <path id="Path-23" data-name="Path" class="curtain-R-prim-dark-light" d="M200,150.1111l-7.5,4.33v11.547l7.5-4.33Z"/>
    <path id="Path-24" data-name="Path" class="curtain-R-prim-dark-light" d="M247.5,168.875l-7.5,4.33v11.547l7.5-4.33Z"/>
    <path id="Path-25" data-name="Path" class="curtain-R-prim-dark-light" d="M200,242.4872l-7.5,4.33v11.547l7.5-4.33Z"/>
    <path id="Path-26" data-name="Path" class="curtain-R-prim-dark-light" d="M247.5,261.251l-7.5,4.33v11.547l7.5-4.33Z"/>
    <path id="Path-27" data-name="Path" class="curtain-R-prim-dark-light" d="M200,288.6752l-7.5,4.33v11.547l7.5-4.33Z"/>
    <path id="Path-28" data-name="Path" class="curtain-R-prim-dark-light" d="M247.5,307.4391l-7.5,4.33v11.547l7.5-4.33Z"/>
    <path id="Path-29" data-name="Path" class="curtain-R-prim-dark-light" d="M223.75,321.1512l-7.5,4.33v11.547l7.5-4.33Z"/>
    <path id="Path-30" data-name="Path" class="curtain-R-prim-dark-light" d="M247.5,145.781l-7.5,4.33v11.547l7.5-4.33Z"/>
    <path id="Path-31" data-name="Path" class="curtain-R-prim-dark-light" d="M223.75,159.4931l-7.5,4.33V175.37l7.5-4.33Z"/>
    <path id="Path-32" data-name="Path" class="curtain-R-prim-dark-light" d="M200,173.2051l-7.5,4.33v11.547l7.5-4.33Z"/>
    <path id="Path-33" data-name="Path" class="curtain-R-prim-dark-light" d="M247.5,191.969l-7.5,4.33v11.547l7.5-4.33Z"/>
    <path id="Path-34" data-name="Path" class="curtain-R-prim-dark-light" d="M223.75,205.6811l-7.5,4.33v11.547l7.5-4.33Z"/>
    <path id="Path-35" data-name="Path" class="curtain-R-prim-dark-light" d="M200,219.3931l-7.5,4.33V235.27l7.5-4.33Z"/>
    <path id="Path-36" data-name="Path" class="curtain-R-prim-dark-light" d="M247.5,238.157l-7.5,4.33v11.5471l7.5-4.33Z"/>
    <path id="Path-37" data-name="Path" class="curtain-R-prim-dark-light" d="M223.75,251.8691l-7.5,4.33v11.547l7.5-4.33Z"/>
    <path id="Path-38" data-name="Path" class="curtain-R-prim-dark-light" d="M200,265.5812l-7.5,4.33v11.547l7.5-4.33Z"/>
    <path id="Path-39" data-name="Path" class="curtain-R-prim-dark-light" d="M247.5,284.345l-7.5,4.33v11.5471l7.5-4.33Z"/>
    <path id="Path-40" data-name="Path" class="curtain-R-prim-dark-light" d="M223.75,298.0571l-7.5,4.33v11.547l7.5-4.33Z"/>
    <path id="Path-41" data-name="Path" class="curtain-R-prim-dark-light" d="M200,311.7692l-7.5,4.33v11.547l7.5-4.33Z"/>
    <path id="Path-42" data-name="Path" class="curtain-R-prim-dark-light" d="M247.5,330.5331l-7.5,4.33V346.41l7.5-4.33Z"/>
    <path id="Path-43" data-name="Path" class="curtain-R-prim-dark-light" d="M200,357.9572l-7.5,4.33v11.547l7.5-4.33Z"/>
    <path id="Path-44" data-name="Path" class="curtain-L-prim-dark-light" d="M52.5,111.14l7.5,4.33v11.547l-7.5-4.33Z"/>
    <path id="Path-45" data-name="Path" class="curtain-L-prim-dark-light" d="M76.25,124.852l7.5,4.33v11.547l-7.5-4.33Z"/>
    <path id="Path-46" data-name="Path" class="curtain-L-prim-dark-light" d="M100,138.5641l7.5,4.33v11.547l-7.5-4.33Z"/>
    <path id="Path-47" data-name="Path" class="curtain-L-prim-dark-light" d="M52.5,134.234l7.5,4.33v11.547l-7.5-4.33Z"/>
    <path id="Path-48" data-name="Path" class="curtain-L-prim-dark-light" d="M52.5,157.328l7.5,4.33v11.547l-7.5-4.33Z"/>
    <path id="Path-49" data-name="Path" class="curtain-L-prim-dark-light" d="M76.25,171.04l7.5,4.33v11.547l-7.5-4.33Z"/>
    <path id="Path-50" data-name="Path" class="curtain-L-prim-dark-light" d="M100,184.7521l7.5,4.33v11.547l-7.5-4.33Z"/>
    <path id="Path-51" data-name="Path" class="curtain-L-prim-dark-light" d="M52.5,180.422l7.5,4.33v11.547l-7.5-4.33Z"/>
    <path id="Path-52" data-name="Path" class="curtain-L-prim-dark-light" d="M76.25,194.1341l7.5,4.33v11.547l-7.5-4.33Z"/>
    <path id="Path-53" data-name="Path" class="curtain-L-prim-dark-light" d="M76.25,217.2281l7.5,4.33v11.547l-7.5-4.33Z"/>
    <path id="Path-54" data-name="Path" class="curtain-L-prim-dark-light" d="M100,207.8461l7.5,4.33v11.547l-7.5-4.33Z"/>
    <path id="Path-55" data-name="Path" class="curtain-L-prim-dark-light" d="M100,230.94l7.5,4.33v11.547l-7.5-4.33Z"/>
    <path id="Path-56" data-name="Path" class="curtain-L-prim-dark-light" d="M52.5,226.61l7.5,4.33v11.547l-7.5-4.33Z"/>
    <path id="Path-57" data-name="Path" class="curtain-L-prim-dark-light" d="M52.5,249.704l7.5,4.33v11.5471l-7.5-4.33Z"/>
    <path id="Path-58" data-name="Path" class="curtain-L-prim-dark-light" d="M76.25,240.3221l7.5,4.33v11.547l-7.5-4.33Z"/>
    <path id="Path-59" data-name="Path" class="curtain-L-prim-dark-light" d="M100,254.0342l7.5,4.33v11.547l-7.5-4.33Z"/>
    <path id="Path-60" data-name="Path" class="curtain-L-prim-dark-light" d="M100,277.1282l7.5,4.33v11.547l-7.5-4.33Z"/>
    <path id="Path-61" data-name="Path" class="curtain-L-prim-dark-light" d="M52.5,272.798l7.5,4.33v11.5471l-7.5-4.33Z"/>
    <path id="Path-62" data-name="Path" class="curtain-L-prim-dark-light" d="M76.25,286.51l7.5,4.33v11.547l-7.5-4.33Z"/>
    <path id="Path-63" data-name="Path" class="curtain-L-prim-dark-light" d="M76.25,309.6041l7.5,4.33v11.547l-7.5-4.33Z"/>
    <path id="Path-64" data-name="Path" class="curtain-L-prim-dark-light" d="M100,300.2222l7.5,4.33v11.547l-7.5-4.33Z"/>
    <path id="Path-65" data-name="Path" class="curtain-L-prim-dark-light" d="M52.5,318.9861l7.5,4.33v11.547l-7.5-4.33Z"/>
    <path id="Path-66" data-name="Path" class="curtain-L-prim-dark-light" d="M76.25,332.6981l7.5,4.33v11.547l-7.5-4.33Z"/>
    <path id="Path-67" data-name="Path" class="curtain-L-prim-dark-light" d="M100,346.41l7.5,4.33v11.547l-7.5-4.33Z"/>
  </g>
</svg>
