<svg id="Layer_1" data-name="Layer 1" xmlns="http://www.w3.org/2000/svg" viewBox="0 0 220 906.44"><defs><style>.curtain-R-prim-dark{fill:#20788b;}.curtain-L-prim-dark{fill:#10424d;}.top-prim{fill:#dd8986;}.curtain-R-prim-light{fill:#2b94ab;}.curtain-L-prim-light{fill:#186273;}</style></defs><title>Artboard 2</title><g id="Group"><path id="Path" class="curtain-R-prim-dark" d="M220,46.19V825.61L80,906.44V127Z"/><path id="Path-2" data-name="Path" class="curtain-L-prim-dark" d="M0,80.83V860.25l80,46.19V127Z"/><path id="anchor-01_779.42" class="top-prim" d="M0,80.83,140,0l80,46.19L80,127Z"/><path id="Path-3" data-name="Path" class="curtain-R-prim-light" d="M220,46.19,80,127v17.32L220,63.51Z"/><path id="Path-4" data-name="Path" class="curtain-L-prim-light" d="M0,80.83,80,127v17.32L0,98.15Z"/><path id="Path-5" data-name="Path" class="curtain-R-prim-light" d="M220,115.47,80,196.3v17.32l140-80.83Z"/><path id="Path-6" data-name="Path" class="curtain-L-prim-light" d="M0,150.11,80,196.3v17.32L0,167.43Z"/><path id="Path-7" data-name="Path" class="curtain-R-prim-light" d="M220,184.75,80,265.58V282.9l140-80.83Z"/><path id="Path-8" data-name="Path" class="curtain-L-prim-light" d="M0,219.39l80,46.19V282.9L0,236.71Z"/><path id="Path-9" data-name="Path" class="curtain-R-prim-light" d="M220,254,80,334.86v17.32l140-80.82Z"/><path id="Path-10" data-name="Path" class="curtain-L-prim-light" d="M0,288.68l80,46.18v17.32L0,306Z"/><path id="Path-11" data-name="Path" class="curtain-R-prim-light" d="M220,323.32,80,404.15v17.32l140-80.83Z"/><path id="Path-12" data-name="Path" class="curtain-L-prim-light" d="M0,358l80,46.19v17.32L0,375.28Z"/><path id="Path-13" data-name="Path" class="curtain-R-prim-light" d="M220,392.6,80,473.43v17.32l140-80.83Z"/><path id="Path-14" data-name="Path" class="curtain-L-prim-light" d="M0,427.24l80,46.19v17.32L0,444.56Z"/><path id="Path-15" data-name="Path" class="curtain-R-prim-light" d="M220,461.88,80,542.71V560L220,479.2Z"/><path id="Path-16" data-name="Path" class="curtain-L-prim-light" d="M0,496.52l80,46.19V560L0,513.84Z"/><path id="Path-17" data-name="Path" class="curtain-R-prim-light" d="M220,531.16,80,612v17.32l140-80.83Z"/><path id="Path-18" data-name="Path" class="curtain-L-prim-light" d="M0,565.8,80,612v17.32L0,583.12Z"/><path id="Path-19" data-name="Path" class="curtain-R-prim-light" d="M220,600.44,80,681.27v17.32l140-80.82Z"/><path id="Path-20" data-name="Path" class="curtain-L-prim-light" d="M0,635.09l80,46.18v17.32L0,652.41Z"/><path id="Path-21" data-name="Path" class="curtain-R-prim-light" d="M220,669.73,80,750.56v17.32l140-80.83Z"/><path id="Path-22" data-name="Path" class="curtain-L-prim-light" d="M0,704.37l80,46.19v17.32L0,721.69Z"/><path id="Path-23" data-name="Path" class="curtain-R-prim-light" d="M220,739,80,819.84v17.32l140-80.83Z"/><path id="Path-24" data-name="Path" class="curtain-L-prim-light" d="M0,773.65l80,46.19v17.32L0,791Z"/><path id="Path-25" data-name="Path" class="curtain-R-prim-light" d="M220,808.29,80,889.12v17.32l140-80.83Z"/><path id="Path-26" data-name="Path" class="curtain-L-prim-light" d="M0,842.93l80,46.19v17.32L0,860.25Z"/><path id="Path-27" data-name="Path" class="curtain-R-prim-light" d="M220,80.83,80,161.66V179L220,98.15Z"/><path id="Path-28" data-name="Path" class="curtain-L-prim-light" d="M0,115.47l80,46.19V179L0,132.79Z"/><path id="Path-29" data-name="Path" class="curtain-R-prim-light" d="M220,150.11,80,230.94v17.32l140-80.83Z"/><path id="Path-30" data-name="Path" class="curtain-L-prim-light" d="M0,184.75l80,46.19v17.32L0,202.07Z"/><path id="Path-31" data-name="Path" class="curtain-R-prim-light" d="M220,219.39,80,300.22v17.32l140-80.83Z"/><path id="Path-32" data-name="Path" class="curtain-L-prim-light" d="M0,254l80,46.19v17.32L0,271.36Z"/><path id="Path-33" data-name="Path" class="curtain-R-prim-light" d="M220,288.68,80,369.5v17.33L220,306Z"/><path id="Path-34" data-name="Path" class="curtain-L-prim-light" d="M0,323.32,80,369.5v17.33L0,340.64Z"/><path id="Path-35" data-name="Path" class="curtain-R-prim-light" d="M220,358,80,438.79v17.32l140-80.83Z"/><path id="Path-36" data-name="Path" class="curtain-L-prim-light" d="M0,392.6l80,46.19v17.32L0,409.92Z"/><path id="Path-37" data-name="Path" class="curtain-R-prim-light" d="M220,427.24,80,508.07v17.32l140-80.83Z"/><path id="Path-38" data-name="Path" class="curtain-L-prim-light" d="M0,461.88l80,46.19v17.32L0,479.2Z"/><path id="Path-39" data-name="Path" class="curtain-R-prim-light" d="M220,496.52,80,577.35v17.32l140-80.83Z"/><path id="Path-40" data-name="Path" class="curtain-L-prim-light" d="M0,531.16l80,46.19v17.32L0,548.48Z"/><path id="Path-41" data-name="Path" class="curtain-R-prim-light" d="M220,565.8,80,646.63V664l140-80.83Z"/><path id="Path-42" data-name="Path" class="curtain-L-prim-light" d="M0,600.44l80,46.19V664L0,617.77Z"/><path id="Path-43" data-name="Path" class="curtain-R-prim-light" d="M220,635.09,80,715.91v17.33l140-80.83Z"/><path id="Path-44" data-name="Path" class="curtain-L-prim-light" d="M0,669.73l80,46.18v17.33L0,687.05Z"/><path id="Path-45" data-name="Path" class="curtain-R-prim-light" d="M220,704.37,80,785.2v17.32l140-80.83Z"/><path id="Path-46" data-name="Path" class="curtain-L-prim-light" d="M0,739,80,785.2v17.32L0,756.33Z"/><path id="Path-47" data-name="Path" class="curtain-R-prim-light" d="M220,773.65,80,854.48V871.8L220,791Z"/><path id="Path-48" data-name="Path" class="curtain-L-prim-light" d="M0,808.29l80,46.19V871.8L0,825.61Z"/></g></svg>