<svg xmlns="http://www.w3.org/2000/svg" xmlns:xlink="http://www.w3.org/1999/xlink" viewBox="0 0 200 422.909">
  <defs>
    <style>
      .cls-1 {
        fill: none;
      }

      .top-prim {
        fill: #dd8a87;
      }

      .exterior-L-prim {
        fill: #73302e;
      }

      .top-dark {
        fill: #c67471;
      }

      .exterior-R-prim {
        fill: #d05752;
      }

      .cls-2 {
        clip-path: url(#clip-path);
      }

      .window-R-prim {
        fill: #bd9664;
      }

      .window-R-light {
        fill: #eacb87;
      }

      .cls-3 {
        clip-path: url(#clip-path-2);
      }

      .window-L-prim {
        fill: #4d3b24;
      }

      .window-L-light {
        fill: #795a30;
      }
    </style>
    <clipPath id="clip-path">
      <polygon class="cls-1" points="105 291.562 105 54.848 130 40.414 195 239.6 105 291.562"/>
    </clipPath>
    <clipPath id="clip-path-2">
      <polygon class="cls-1" points="95 291.562 95 54.848 70 40.414 5 239.6 95 291.562"/>
    </clipPath>
  </defs>
  <title>root (12)</title>
  <g id="Layer_2" data-name="Layer 2">
    <g id="Layer_1-2" data-name="Layer 1">
      <g id="root">
        <path class="top-prim" d="M42.5,24.537v5.774l30,17.32,25-14.434L62.5,12.99Z"/>
        <path class="top-prim" d="M65,17.32l25,8.66L75,34.641,50,25.98Z"/>
        <path class="exterior-L-prim" d="M75,40.414V34.641L50,25.98Z"/>
        <path class="top-dark" d="M65,43.301l35,20.207,35-20.207V37.527L100,17.32,65,37.527Z"/>
        <path class="exterior-L-prim" d="M42.5,24.537V163.101l25-124.13Z"/>
        <path class="exterior-R-prim" d="M100,300.222l-10-5.774V51.961l10,5.774,35-20.208,65,204.96Z"/>
        <path class="exterior-L-prim" d="M100,300.222V57.735L65,37.527,0,242.487Z"/>
        <g class="cls-2">
          <path class="window-R-prim" d="M200,357.957v5.773L97.5,422.909v-5.774Z"/>
          <path class="window-R-prim" d="M200,311.769v5.773L97.5,376.721v-5.774Z"/>
          <path class="window-R-prim" d="M200,265.581v5.773L97.5,330.533v-5.774Z"/>
          <path class="window-R-prim" d="M200,219.393v5.773L97.5,284.345v-5.774Z"/>
          <path class="window-R-prim" d="M200,173.205v5.773L97.5,238.157v-5.774Z"/>
          <path class="window-R-prim" d="M200,127.017v5.773L97.5,191.969v-5.774Z"/>
          <path class="window-R-prim" d="M200,80.829v5.773L97.5,145.78v-5.773Z"/>
          <path class="window-R-prim" d="M200,34.641v5.773L97.5,99.592V93.819Z"/>
          <path class="window-R-prim" d="M200,334.863v5.773L97.5,399.815v-5.774Z"/>
          <path class="window-R-prim" d="M200,288.675v5.773L97.5,353.627v-5.774Z"/>
          <path class="window-R-prim" d="M200,242.487v5.773L97.5,307.439v-5.774Z"/>
          <path class="window-R-prim" d="M200,196.299v5.773L97.5,261.251v-5.774Z"/>
          <path class="window-R-prim" d="M200,150.111v5.773L97.5,215.063v-5.774Z"/>
          <path class="window-R-prim" d="M200,103.923v5.773L97.5,168.874v-5.773Z"/>
          <path class="window-R-prim" d="M200,57.735v5.773L97.5,122.686v-5.773Z"/>
          <path class="window-R-prim" d="M200,11.547V17.32L97.5,76.498V70.725Z"/>
          <path class="window-R-prim" d="M200,346.41v5.773L97.5,411.362v-5.774Z"/>
          <path class="window-R-prim" d="M200,300.222v5.773L97.5,365.174V359.4Z"/>
          <path class="window-R-prim" d="M200,254.034v5.773L97.5,318.986v-5.774Z"/>
          <path class="window-R-prim" d="M200,207.846v5.773L97.5,272.798v-5.774Z"/>
          <path class="window-R-prim" d="M200,161.658v5.773L97.5,226.61v-5.774Z"/>
          <path class="window-R-prim" d="M200,115.47v5.773L97.5,180.421v-5.773Z"/>
          <path class="window-R-prim" d="M200,69.282v5.773L97.5,134.233V128.46Z"/>
          <path class="window-R-prim" d="M200,23.094v5.773L97.5,88.045V82.272Z"/>
          <path class="window-R-prim" d="M200,323.316v5.773L97.5,388.268v-5.774Z"/>
          <path class="window-R-prim" d="M200,277.128v5.773L97.5,342.08v-5.774Z"/>
          <path class="window-R-prim" d="M200,230.94v5.773L97.5,295.892v-5.774Z"/>
          <path class="window-R-prim" d="M200,184.752v5.773L97.5,249.704V243.93Z"/>
          <path class="window-R-prim" d="M200,138.564v5.773L97.5,203.516v-5.774Z"/>
          <path class="window-R-prim" d="M200,92.376v5.773L97.5,157.327v-5.773Z"/>
          <path class="window-R-prim" d="M200,46.188v5.773L97.5,111.139v-5.773Z"/>
          <path class="window-R-prim" d="M200,0V5.773L97.5,64.951V59.178Z"/>
          <path class="window-R-light" d="M105,412.805l5-2.887v5.774l-5,2.886Z"/>
          <path class="window-R-light" d="M125,401.258l5-2.887v5.774l-5,2.886Z"/>
          <path class="window-R-light" d="M145,389.711l5-2.887v5.774l-5,2.886Z"/>
          <path class="window-R-light" d="M165,378.164l5-2.887v5.774l-5,2.886Z"/>
          <path class="window-R-light" d="M185,366.617l5-2.887v5.774l-5,2.886Z"/>
          <path class="window-R-light" d="M115,407.031l5-2.886v5.773l-5,2.887Z"/>
          <path class="window-R-light" d="M135,395.484l5-2.886v5.773l-5,2.887Z"/>
          <path class="window-R-light" d="M155,383.937l5-2.886v5.773l-5,2.887Z"/>
          <path class="window-R-light" d="M175,372.39l5-2.886v5.773l-5,2.887Z"/>
          <path class="window-R-light" d="M105,389.711l5-2.887v5.774l-5,2.886Z"/>
          <path class="window-R-light" d="M125,378.164l5-2.887v5.774l-5,2.886Z"/>
          <path class="window-R-light" d="M145,366.617l5-2.887v5.774l-5,2.886Z"/>
          <path class="window-R-light" d="M165,355.07l5-2.887v5.774l-5,2.886Z"/>
          <path class="window-R-light" d="M185,343.523l5-2.887v5.774l-5,2.886Z"/>
          <path class="window-R-light" d="M115,383.937l5-2.886v5.773l-5,2.887Z"/>
          <path class="window-R-light" d="M135,372.39l5-2.886v5.773l-5,2.887Z"/>
          <path class="window-R-light" d="M155,360.843l5-2.886v5.773l-5,2.887Z"/>
          <path class="window-R-light" d="M175,349.296l5-2.886v5.773l-5,2.887Z"/>
          <path class="window-R-light" d="M105,366.617l5-2.887v5.774l-5,2.886Z"/>
          <path class="window-R-light" d="M125,355.07l5-2.887v5.774l-5,2.886Z"/>
          <path class="window-R-light" d="M145,343.523l5-2.887v5.774l-5,2.886Z"/>
          <path class="window-R-light" d="M165,331.976l5-2.887v5.774l-5,2.886Z"/>
          <path class="window-R-light" d="M185,320.429l5-2.887v5.774l-5,2.886Z"/>
          <path class="window-R-light" d="M115,360.843l5-2.886v5.773l-5,2.887Z"/>
          <path class="window-R-light" d="M135,349.296l5-2.886v5.773l-5,2.887Z"/>
          <path class="window-R-light" d="M155,337.749l5-2.886v5.773l-5,2.887Z"/>
          <path class="window-R-light" d="M175,326.202l5-2.886v5.773l-5,2.887Z"/>
          <path class="window-R-light" d="M105,343.523l5-2.887v5.774l-5,2.886Z"/>
          <path class="window-R-light" d="M125,331.976l5-2.887v5.774l-5,2.886Z"/>
          <path class="window-R-light" d="M145,320.429l5-2.887v5.774l-5,2.886Z"/>
          <path class="window-R-light" d="M165,308.882l5-2.887v5.774l-5,2.886Z"/>
          <path class="window-R-light" d="M185,297.335l5-2.887v5.774l-5,2.886Z"/>
          <path class="window-R-light" d="M115,337.749l5-2.886v5.773l-5,2.887Z"/>
          <path class="window-R-light" d="M135,326.202l5-2.886v5.773l-5,2.887Z"/>
          <path class="window-R-light" d="M155,314.655l5-2.886v5.773l-5,2.887Z"/>
          <path class="window-R-light" d="M175,303.108l5-2.886v5.773l-5,2.887Z"/>
          <path class="window-R-light" d="M105,320.429l5-2.887v5.774l-5,2.886Z"/>
          <path class="window-R-light" d="M125,308.882l5-2.887v5.774l-5,2.886Z"/>
          <path class="window-R-light" d="M145,297.335l5-2.887v5.774l-5,2.886Z"/>
          <path class="window-R-light" d="M165,285.788l5-2.887v5.774l-5,2.886Z"/>
          <path class="window-R-light" d="M185,274.241l5-2.887v5.774l-5,2.886Z"/>
          <path class="window-R-light" d="M115,314.655l5-2.886v5.773l-5,2.887Z"/>
          <path class="window-R-light" d="M135,303.108l5-2.886v5.773l-5,2.887Z"/>
          <path class="window-R-light" d="M155,291.561l5-2.886v5.773l-5,2.887Z"/>
          <path class="window-R-light" d="M175,280.014l5-2.886v5.773l-5,2.887Z"/>
          <path class="window-R-light" d="M105,297.335l5-2.887v5.774l-5,2.886Z"/>
          <path class="window-R-light" d="M125,285.788l5-2.887v5.774l-5,2.886Z"/>
          <path class="window-R-light" d="M145,274.241l5-2.887v5.774l-5,2.886Z"/>
          <path class="window-R-light" d="M165,262.694l5-2.887v5.774l-5,2.886Z"/>
          <path class="window-R-light" d="M185,251.147l5-2.887v5.774l-5,2.886Z"/>
          <path class="window-R-light" d="M115,291.561l5-2.886v5.773l-5,2.887Z"/>
          <path class="window-R-light" d="M135,280.014l5-2.886v5.773l-5,2.887Z"/>
          <path class="window-R-light" d="M155,268.467l5-2.886v5.773l-5,2.887Z"/>
          <path class="window-R-light" d="M175,256.92l5-2.886v5.773l-5,2.887Z"/>
          <path class="window-R-light" d="M105,274.241l5-2.887v5.774l-5,2.886Z"/>
          <path class="window-R-light" d="M125,262.694l5-2.887v5.774l-5,2.886Z"/>
          <path class="window-R-light" d="M145,251.147l5-2.887v5.774l-5,2.886Z"/>
          <path class="window-R-light" d="M165,239.6l5-2.887v5.774l-5,2.886Z"/>
          <path class="window-R-light" d="M185,228.053l5-2.887v5.774l-5,2.886Z"/>
          <path class="window-R-light" d="M115,268.467l5-2.886v5.773l-5,2.887Z"/>
          <path class="window-R-light" d="M135,256.92l5-2.886v5.773l-5,2.887Z"/>
          <path class="window-R-light" d="M155,245.373l5-2.886v5.773l-5,2.887Z"/>
          <path class="window-R-light" d="M175,233.826l5-2.886v5.773l-5,2.887Z"/>
          <path class="window-R-light" d="M105,251.147l5-2.887v5.774l-5,2.886Z"/>
          <path class="window-R-light" d="M125,239.6l5-2.887v5.774l-5,2.886Z"/>
          <path class="window-R-light" d="M145,228.053l5-2.887v5.774l-5,2.886Z"/>
          <path class="window-R-light" d="M165,216.506l5-2.887v5.774l-5,2.886Z"/>
          <path class="window-R-light" d="M185,204.959l5-2.887v5.774l-5,2.886Z"/>
          <path class="window-R-light" d="M115,245.373l5-2.886v5.773l-5,2.887Z"/>
          <path class="window-R-light" d="M135,233.826l5-2.886v5.773l-5,2.887Z"/>
          <path class="window-R-light" d="M155,222.279l5-2.886v5.773l-5,2.887Z"/>
          <path class="window-R-light" d="M175,210.732l5-2.886v5.773l-5,2.887Z"/>
          <path class="window-R-light" d="M105,228.053l5-2.887v5.774l-5,2.886Z"/>
          <path class="window-R-light" d="M125,216.506l5-2.887v5.774l-5,2.886Z"/>
          <path class="window-R-light" d="M145,204.959l5-2.887v5.774l-5,2.886Z"/>
          <path class="window-R-light" d="M165,193.412l5-2.887v5.774l-5,2.886Z"/>
          <path class="window-R-light" d="M185,181.865l5-2.887v5.774l-5,2.886Z"/>
          <path class="window-R-light" d="M115,222.279l5-2.886v5.773l-5,2.887Z"/>
          <path class="window-R-light" d="M135,210.732l5-2.886v5.773l-5,2.887Z"/>
          <path class="window-R-light" d="M155,199.185l5-2.886v5.773l-5,2.887Z"/>
          <path class="window-R-light" d="M175,187.638l5-2.886v5.773l-5,2.887Z"/>
          <path class="window-R-light" d="M105,204.959l5-2.887v5.774l-5,2.886Z"/>
          <path class="window-R-light" d="M125,193.412l5-2.887v5.774l-5,2.886Z"/>
          <path class="window-R-light" d="M145,181.865l5-2.887v5.774l-5,2.886Z"/>
          <path class="window-R-light" d="M165,170.318l5-2.887v5.774l-5,2.886Z"/>
          <path class="window-R-light" d="M185,158.771l5-2.887v5.774l-5,2.886Z"/>
          <path class="window-R-light" d="M115,199.185l5-2.886v5.773l-5,2.887Z"/>
          <path class="window-R-light" d="M135,187.638l5-2.886v5.773l-5,2.887Z"/>
          <path class="window-R-light" d="M155,176.091l5-2.886v5.773l-5,2.887Z"/>
          <path class="window-R-light" d="M175,164.544l5-2.886v5.773l-5,2.887Z"/>
          <path class="window-R-light" d="M105,181.865l5-2.887v5.774l-5,2.886Z"/>
          <path class="window-R-light" d="M125,170.318l5-2.887v5.774l-5,2.886Z"/>
          <path class="window-R-light" d="M145,158.771l5-2.887v5.774l-5,2.886Z"/>
          <path class="window-R-light" d="M165,147.224l5-2.887v5.774l-5,2.886Z"/>
          <path class="window-R-light" d="M185,135.677l5-2.887v5.774l-5,2.886Z"/>
          <path class="window-R-light" d="M115,176.091l5-2.886v5.773l-5,2.887Z"/>
          <path class="window-R-light" d="M135,164.544l5-2.886v5.773l-5,2.887Z"/>
          <path class="window-R-light" d="M155,152.997l5-2.886v5.773l-5,2.887Z"/>
          <path class="window-R-light" d="M175,141.45l5-2.886v5.773l-5,2.887Z"/>
          <path class="window-R-light" d="M105,158.771l5-2.887v5.774l-5,2.886Z"/>
          <path class="window-R-light" d="M125,147.224l5-2.887v5.774l-5,2.886Z"/>
          <path class="window-R-light" d="M145,135.677l5-2.887v5.774l-5,2.886Z"/>
          <path class="window-R-light" d="M165,124.13l5-2.887v5.774l-5,2.886Z"/>
          <path class="window-R-light" d="M185,112.583l5-2.887v5.774l-5,2.886Z"/>
          <path class="window-R-light" d="M115,152.997l5-2.886v5.773l-5,2.887Z"/>
          <path class="window-R-light" d="M135,141.45l5-2.886v5.773l-5,2.887Z"/>
          <path class="window-R-light" d="M155,129.903l5-2.886v5.773l-5,2.887Z"/>
          <path class="window-R-light" d="M175,118.356l5-2.886v5.773l-5,2.887Z"/>
          <path class="window-R-light" d="M105,135.677l5-2.887v5.774l-5,2.886Z"/>
          <path class="window-R-light" d="M125,124.13l5-2.887v5.774l-5,2.886Z"/>
          <path class="window-R-light" d="M145,112.583l5-2.887v5.774l-5,2.886Z"/>
          <path class="window-R-light" d="M165,101.036l5-2.887v5.774l-5,2.886Z"/>
          <path class="window-R-light" d="M185,89.489l5-2.887v5.774l-5,2.886Z"/>
          <path class="window-R-light" d="M115,129.903l5-2.886v5.773l-5,2.887Z"/>
          <path class="window-R-light" d="M135,118.356l5-2.886v5.773l-5,2.887Z"/>
          <path class="window-R-light" d="M155,106.809l5-2.886v5.773l-5,2.887Z"/>
          <path class="window-R-light" d="M175,95.262l5-2.886v5.773l-5,2.887Z"/>
          <path class="window-R-light" d="M105,112.583l5-2.887v5.774l-5,2.886Z"/>
          <path class="window-R-light" d="M125,101.036l5-2.887v5.774l-5,2.886Z"/>
          <path class="window-R-light" d="M145,89.489l5-2.887v5.774l-5,2.886Z"/>
          <path class="window-R-light" d="M165,77.942l5-2.887v5.774l-5,2.886Z"/>
          <path class="window-R-light" d="M185,66.395l5-2.887v5.774l-5,2.886Z"/>
          <path class="window-R-light" d="M115,106.809l5-2.886v5.773l-5,2.887Z"/>
          <path class="window-R-light" d="M135,95.262l5-2.886v5.773l-5,2.887Z"/>
          <path class="window-R-light" d="M155,83.715l5-2.886v5.773l-5,2.887Z"/>
          <path class="window-R-light" d="M175,72.168l5-2.886v5.773l-5,2.887Z"/>
          <path class="window-R-light" d="M105,89.489l5-2.887v5.774l-5,2.886Z"/>
          <path class="window-R-light" d="M125,77.942l5-2.887v5.774l-5,2.886Z"/>
          <path class="window-R-light" d="M145,66.395l5-2.887v5.774l-5,2.886Z"/>
          <path class="window-R-light" d="M165,54.848l5-2.887v5.774l-5,2.886Z"/>
          <path class="window-R-light" d="M185,43.301l5-2.887v5.774l-5,2.886Z"/>
          <path class="window-R-light" d="M115,83.715l5-2.886v5.773l-5,2.887Z"/>
          <path class="window-R-light" d="M135,72.168l5-2.886v5.773l-5,2.887Z"/>
          <path class="window-R-light" d="M155,60.621l5-2.886v5.773l-5,2.887Z"/>
          <path class="window-R-light" d="M175,49.074l5-2.886v5.773l-5,2.887Z"/>
          <path class="window-R-light" d="M105,66.395l5-2.887v5.774l-5,2.886Z"/>
          <path class="window-R-light" d="M125,54.848l5-2.887v5.774l-5,2.886Z"/>
          <path class="window-R-light" d="M145,43.301l5-2.887v5.774l-5,2.886Z"/>
          <path class="window-R-light" d="M165,31.754l5-2.887v5.774l-5,2.886Z"/>
          <path class="window-R-light" d="M185,20.207l5-2.887v5.774l-5,2.886Z"/>
          <path class="window-R-light" d="M115,60.621l5-2.886v5.773l-5,2.887Z"/>
          <path class="window-R-light" d="M135,49.074l5-2.886v5.773l-5,2.887Z"/>
          <path class="window-R-light" d="M155,37.527l5-2.886v5.773l-5,2.887Z"/>
          <path class="window-R-light" d="M175,25.98l5-2.886v5.773l-5,2.887Z"/>
          <path class="window-R-light" d="M105,401.258l5-2.887v5.774l-5,2.886Z"/>
          <path class="window-R-light" d="M125,389.711l5-2.887v5.774l-5,2.886Z"/>
          <path class="window-R-light" d="M145,378.164l5-2.887v5.774l-5,2.886Z"/>
          <path class="window-R-light" d="M165,366.617l5-2.887v5.774l-5,2.886Z"/>
          <path class="window-R-light" d="M185,355.07l5-2.887v5.774l-5,2.886Z"/>
          <path class="window-R-light" d="M115,395.484l5-2.886v5.773l-5,2.887Z"/>
          <path class="window-R-light" d="M135,383.937l5-2.886v5.773l-5,2.887Z"/>
          <path class="window-R-light" d="M155,372.39l5-2.886v5.773l-5,2.887Z"/>
          <path class="window-R-light" d="M175,360.843l5-2.886v5.773l-5,2.887Z"/>
          <path class="window-R-light" d="M105,378.164l5-2.887v5.774l-5,2.886Z"/>
          <path class="window-R-light" d="M125,366.617l5-2.887v5.774l-5,2.886Z"/>
          <path class="window-R-light" d="M145,355.07l5-2.887v5.774l-5,2.886Z"/>
          <path class="window-R-light" d="M165,343.523l5-2.887v5.774l-5,2.886Z"/>
          <path class="window-R-light" d="M185,331.976l5-2.887v5.774l-5,2.886Z"/>
          <path class="window-R-light" d="M115,372.39l5-2.886v5.773l-5,2.887Z"/>
          <path class="window-R-light" d="M135,360.843l5-2.886v5.773l-5,2.887Z"/>
          <path class="window-R-light" d="M155,349.296l5-2.886v5.773l-5,2.887Z"/>
          <path class="window-R-light" d="M175,337.749l5-2.886v5.773l-5,2.887Z"/>
          <path class="window-R-light" d="M105,355.07l5-2.887v5.774l-5,2.886Z"/>
          <path class="window-R-light" d="M125,343.523l5-2.887v5.774l-5,2.886Z"/>
          <path class="window-R-light" d="M145,331.976l5-2.887v5.774l-5,2.886Z"/>
          <path class="window-R-light" d="M165,320.429l5-2.887v5.774l-5,2.886Z"/>
          <path class="window-R-light" d="M185,308.882l5-2.887v5.774l-5,2.886Z"/>
          <path class="window-R-light" d="M115,349.296l5-2.886v5.773l-5,2.887Z"/>
          <path class="window-R-light" d="M135,337.749l5-2.886v5.773l-5,2.887Z"/>
          <path class="window-R-light" d="M155,326.202l5-2.886v5.773l-5,2.887Z"/>
          <path class="window-R-light" d="M175,314.655l5-2.886v5.773l-5,2.887Z"/>
          <path class="window-R-light" d="M105,331.976l5-2.887v5.774l-5,2.886Z"/>
          <path class="window-R-light" d="M125,320.429l5-2.887v5.774l-5,2.886Z"/>
          <path class="window-R-light" d="M145,308.882l5-2.887v5.774l-5,2.886Z"/>
          <path class="window-R-light" d="M165,297.335l5-2.887v5.774l-5,2.886Z"/>
          <path class="window-R-light" d="M185,285.788l5-2.887v5.774l-5,2.886Z"/>
          <path class="window-R-light" d="M115,326.202l5-2.886v5.773l-5,2.887Z"/>
          <path class="window-R-light" d="M135,314.655l5-2.886v5.773l-5,2.887Z"/>
          <path class="window-R-light" d="M155,303.108l5-2.886v5.773l-5,2.887Z"/>
          <path class="window-R-light" d="M175,291.561l5-2.886v5.773l-5,2.887Z"/>
          <path class="window-R-light" d="M105,308.882l5-2.887v5.774l-5,2.886Z"/>
          <path class="window-R-light" d="M125,297.335l5-2.887v5.774l-5,2.886Z"/>
          <path class="window-R-light" d="M145,285.788l5-2.887v5.774l-5,2.886Z"/>
          <path class="window-R-light" d="M165,274.241l5-2.887v5.774l-5,2.886Z"/>
          <path class="window-R-light" d="M185,262.694l5-2.887v5.774l-5,2.886Z"/>
          <path class="window-R-light" d="M115,303.108l5-2.886v5.773l-5,2.887Z"/>
          <path class="window-R-light" d="M135,291.561l5-2.886v5.773l-5,2.887Z"/>
          <path class="window-R-light" d="M155,280.014l5-2.886v5.773l-5,2.887Z"/>
          <path class="window-R-light" d="M175,268.467l5-2.886v5.773l-5,2.887Z"/>
          <path class="window-R-light" d="M105,285.788l5-2.887v5.774l-5,2.886Z"/>
          <path class="window-R-light" d="M125,274.241l5-2.887v5.774l-5,2.886Z"/>
          <path class="window-R-light" d="M145,262.694l5-2.887v5.774l-5,2.886Z"/>
          <path class="window-R-light" d="M165,251.147l5-2.887v5.774l-5,2.886Z"/>
          <path class="window-R-light" d="M185,239.6l5-2.887v5.774l-5,2.886Z"/>
          <path class="window-R-light" d="M115,280.014l5-2.886v5.773l-5,2.887Z"/>
          <path class="window-R-light" d="M135,268.467l5-2.886v5.773l-5,2.887Z"/>
          <path class="window-R-light" d="M155,256.92l5-2.886v5.773l-5,2.887Z"/>
          <path class="window-R-light" d="M175,245.373l5-2.886v5.773l-5,2.887Z"/>
          <path class="window-R-light" d="M105,262.694l5-2.887v5.774l-5,2.886Z"/>
          <path class="window-R-light" d="M125,251.147l5-2.887v5.774l-5,2.886Z"/>
          <path class="window-R-light" d="M145,239.6l5-2.887v5.774l-5,2.886Z"/>
          <path class="window-R-light" d="M165,228.053l5-2.887v5.774l-5,2.886Z"/>
          <path class="window-R-light" d="M185,216.506l5-2.887v5.774l-5,2.886Z"/>
          <path class="window-R-light" d="M115,256.92l5-2.886v5.773l-5,2.887Z"/>
          <path class="window-R-light" d="M135,245.373l5-2.886v5.773l-5,2.887Z"/>
          <path class="window-R-light" d="M155,233.826l5-2.886v5.773l-5,2.887Z"/>
          <path class="window-R-light" d="M175,222.279l5-2.886v5.773l-5,2.887Z"/>
          <path class="window-R-light" d="M105,239.6l5-2.887v5.774l-5,2.886Z"/>
          <path class="window-R-light" d="M125,228.053l5-2.887v5.774l-5,2.886Z"/>
          <path class="window-R-light" d="M145,216.506l5-2.887v5.774l-5,2.886Z"/>
          <path class="window-R-light" d="M165,204.959l5-2.887v5.774l-5,2.886Z"/>
          <path class="window-R-light" d="M185,193.412l5-2.887v5.774l-5,2.886Z"/>
          <path class="window-R-light" d="M115,233.826l5-2.886v5.773l-5,2.887Z"/>
          <path class="window-R-light" d="M135,222.279l5-2.886v5.773l-5,2.887Z"/>
          <path class="window-R-light" d="M155,210.732l5-2.886v5.773l-5,2.887Z"/>
          <path class="window-R-light" d="M175,199.185l5-2.886v5.773l-5,2.887Z"/>
          <path class="window-R-light" d="M105,216.506l5-2.887v5.774l-5,2.886Z"/>
          <path class="window-R-light" d="M125,204.959l5-2.887v5.774l-5,2.886Z"/>
          <path class="window-R-light" d="M145,193.412l5-2.887v5.774l-5,2.886Z"/>
          <path class="window-R-light" d="M165,181.865l5-2.887v5.774l-5,2.886Z"/>
          <path class="window-R-light" d="M185,170.318l5-2.887v5.774l-5,2.886Z"/>
          <path class="window-R-light" d="M115,210.732l5-2.886v5.773l-5,2.887Z"/>
          <path class="window-R-light" d="M135,199.185l5-2.886v5.773l-5,2.887Z"/>
          <path class="window-R-light" d="M155,187.638l5-2.886v5.773l-5,2.887Z"/>
          <path class="window-R-light" d="M175,176.091l5-2.886v5.773l-5,2.887Z"/>
          <path class="window-R-light" d="M105,193.412l5-2.887v5.774l-5,2.886Z"/>
          <path class="window-R-light" d="M125,181.865l5-2.887v5.774l-5,2.886Z"/>
          <path class="window-R-light" d="M145,170.318l5-2.887v5.774l-5,2.886Z"/>
          <path class="window-R-light" d="M165,158.771l5-2.887v5.774l-5,2.886Z"/>
          <path class="window-R-light" d="M185,147.224l5-2.887v5.774l-5,2.886Z"/>
          <path class="window-R-light" d="M115,187.638l5-2.886v5.773l-5,2.887Z"/>
          <path class="window-R-light" d="M135,176.091l5-2.886v5.773l-5,2.887Z"/>
          <path class="window-R-light" d="M155,164.544l5-2.886v5.773l-5,2.887Z"/>
          <path class="window-R-light" d="M175,152.997l5-2.886v5.773l-5,2.887Z"/>
          <path class="window-R-light" d="M105,170.318l5-2.887v5.774l-5,2.886Z"/>
          <path class="window-R-light" d="M125,158.771l5-2.887v5.774l-5,2.886Z"/>
          <path class="window-R-light" d="M145,147.224l5-2.887v5.774l-5,2.886Z"/>
          <path class="window-R-light" d="M165,135.677l5-2.887v5.774l-5,2.886Z"/>
          <path class="window-R-light" d="M185,124.13l5-2.887v5.774l-5,2.886Z"/>
          <path class="window-R-light" d="M115,164.544l5-2.886v5.773l-5,2.887Z"/>
          <path class="window-R-light" d="M135,152.997l5-2.886v5.773l-5,2.887Z"/>
          <path class="window-R-light" d="M155,141.45l5-2.886v5.773l-5,2.887Z"/>
          <path class="window-R-light" d="M175,129.903l5-2.886v5.773l-5,2.887Z"/>
          <path class="window-R-light" d="M105,147.224l5-2.887v5.774l-5,2.886Z"/>
          <path class="window-R-light" d="M125,135.677l5-2.887v5.774l-5,2.886Z"/>
          <path class="window-R-light" d="M145,124.13l5-2.887v5.774l-5,2.886Z"/>
          <path class="window-R-light" d="M165,112.583l5-2.887v5.774l-5,2.886Z"/>
          <path class="window-R-light" d="M185,101.036l5-2.887v5.774l-5,2.886Z"/>
          <path class="window-R-light" d="M115,141.45l5-2.886v5.773l-5,2.887Z"/>
          <path class="window-R-light" d="M135,129.903l5-2.886v5.773l-5,2.887Z"/>
          <path class="window-R-light" d="M155,118.356l5-2.886v5.773l-5,2.887Z"/>
          <path class="window-R-light" d="M175,106.809l5-2.886v5.773l-5,2.887Z"/>
          <path class="window-R-light" d="M105,124.13l5-2.887v5.774l-5,2.886Z"/>
          <path class="window-R-light" d="M125,112.583l5-2.887v5.774l-5,2.886Z"/>
          <path class="window-R-light" d="M145,101.036l5-2.887v5.774l-5,2.886Z"/>
          <path class="window-R-light" d="M165,89.489l5-2.887v5.774l-5,2.886Z"/>
          <path class="window-R-light" d="M185,77.942l5-2.887v5.774l-5,2.886Z"/>
          <path class="window-R-light" d="M115,118.356l5-2.886v5.773l-5,2.887Z"/>
          <path class="window-R-light" d="M135,106.809l5-2.886v5.773l-5,2.887Z"/>
          <path class="window-R-light" d="M155,95.262l5-2.886v5.773l-5,2.887Z"/>
          <path class="window-R-light" d="M175,83.715l5-2.886v5.773l-5,2.887Z"/>
          <path class="window-R-light" d="M105,101.036l5-2.887v5.774l-5,2.886Z"/>
          <path class="window-R-light" d="M125,89.489l5-2.887v5.774l-5,2.886Z"/>
          <path class="window-R-light" d="M145,77.942l5-2.887v5.774l-5,2.886Z"/>
          <path class="window-R-light" d="M165,66.395l5-2.887v5.774l-5,2.886Z"/>
          <path class="window-R-light" d="M185,54.848l5-2.887v5.774l-5,2.886Z"/>
          <path class="window-R-light" d="M115,95.262l5-2.886v5.773l-5,2.887Z"/>
          <path class="window-R-light" d="M135,83.715l5-2.886v5.773l-5,2.887Z"/>
          <path class="window-R-light" d="M155,72.168l5-2.886v5.773l-5,2.887Z"/>
          <path class="window-R-light" d="M175,60.621l5-2.886v5.773l-5,2.887Z"/>
          <path class="window-R-light" d="M105,77.942l5-2.887v5.774l-5,2.886Z"/>
          <path class="window-R-light" d="M125,66.395l5-2.887v5.774l-5,2.886Z"/>
          <path class="window-R-light" d="M145,54.848l5-2.887v5.774l-5,2.886Z"/>
          <path class="window-R-light" d="M165,43.301l5-2.887v5.774l-5,2.886Z"/>
          <path class="window-R-light" d="M185,31.754l5-2.887v5.774l-5,2.886Z"/>
          <path class="window-R-light" d="M115,72.168l5-2.886v5.773l-5,2.887Z"/>
          <path class="window-R-light" d="M135,60.621l5-2.886v5.773l-5,2.887Z"/>
          <path class="window-R-light" d="M155,49.074l5-2.886v5.773l-5,2.887Z"/>
          <path class="window-R-light" d="M175,37.527l5-2.886v5.773l-5,2.887Z"/>
          <path class="window-R-light" d="M105,54.848l5-2.887v5.774l-5,2.886Z"/>
          <path class="window-R-light" d="M125,43.301l5-2.887v5.774l-5,2.886Z"/>
          <path class="window-R-light" d="M145,31.754l5-2.887v5.774l-5,2.886Z"/>
          <path class="window-R-light" d="M165,20.207l5-2.887v5.774l-5,2.886Z"/>
          <path class="window-R-light" d="M185,8.66l5-2.887v5.774l-5,2.886Z"/>
          <path class="window-R-light" d="M115,49.074l5-2.886v5.773l-5,2.887Z"/>
          <path class="window-R-light" d="M135,37.527l5-2.886v5.773l-5,2.887Z"/>
          <path class="window-R-light" d="M155,25.98l5-2.886v5.773l-5,2.887Z"/>
          <path class="window-R-light" d="M175,14.433l5-2.886V17.32l-5,2.887Z"/>
        </g>
        <path class="top-prim" d="M107.5,62.065l2.5,7.217,27.5,15.877,20-11.547V67.838l-30-17.32Z"/>
        <path class="exterior-L-prim" d="M137.5,79.385l5-2.886V264.137l-5,2.887-30-204.959Z"/>
        <path class="exterior-R-prim" d="M137.5,267.024l20-11.547V67.838l-20,11.547Z"/>
        <path class="exterior-L-prim" d="M135,75.055,110,51.961v8.66Z"/>
        <path class="top-prim" d="M125,43.301l25,23.094-15,8.66L110,51.961Z"/>
        <g class="cls-3">
          <path class="window-L-prim" d="M0,357.957v5.773l102.5,59.179v-5.774Z"/>
          <path class="window-L-prim" d="M0,311.769v5.773l102.5,59.179v-5.774Z"/>
          <path class="window-L-prim" d="M0,265.581v5.773l102.5,59.179v-5.774Z"/>
          <path class="window-L-prim" d="M0,219.393v5.773l102.5,59.179v-5.774Z"/>
          <path class="window-L-prim" d="M0,173.205v5.773l102.5,59.179v-5.774Z"/>
          <path class="window-L-prim" d="M0,127.017v5.773l102.5,59.179v-5.774Z"/>
          <path class="window-L-prim" d="M0,80.829v5.773L102.5,145.78v-5.773Z"/>
          <path class="window-L-prim" d="M0,34.641v5.773L102.5,99.592V93.819Z"/>
          <path class="window-L-prim" d="M0,334.863v5.773l102.5,59.179v-5.774Z"/>
          <path class="window-L-prim" d="M0,288.675v5.773l102.5,59.179v-5.774Z"/>
          <path class="window-L-prim" d="M0,242.487v5.773l102.5,59.179v-5.774Z"/>
          <path class="window-L-prim" d="M0,196.299v5.773l102.5,59.179v-5.774Z"/>
          <path class="window-L-prim" d="M0,150.111v5.773l102.5,59.179v-5.774Z"/>
          <path class="window-L-prim" d="M0,103.923v5.773l102.5,59.178v-5.773Z"/>
          <path class="window-L-prim" d="M0,57.735v5.773l102.5,59.178v-5.773Z"/>
          <path class="window-L-prim" d="M0,11.547V17.32L102.5,76.498V70.725Z"/>
          <path class="window-L-prim" d="M0,346.41v5.773l102.5,59.179v-5.774Z"/>
          <path class="window-L-prim" d="M0,300.222v5.773l102.5,59.179V359.4Z"/>
          <path class="window-L-prim" d="M0,254.034v5.773l102.5,59.179v-5.774Z"/>
          <path class="window-L-prim" d="M0,207.846v5.773l102.5,59.179v-5.774Z"/>
          <path class="window-L-prim" d="M0,161.658v5.773L102.5,226.61v-5.774Z"/>
          <path class="window-L-prim" d="M0,115.47v5.773l102.5,59.178v-5.773Z"/>
          <path class="window-L-prim" d="M0,69.282v5.773l102.5,59.178V128.46Z"/>
          <path class="window-L-prim" d="M0,23.094v5.773L102.5,88.045V82.272Z"/>
          <path class="window-L-prim" d="M0,323.316v5.773l102.5,59.179v-5.774Z"/>
          <path class="window-L-prim" d="M0,277.128v5.773L102.5,342.08v-5.774Z"/>
          <path class="window-L-prim" d="M0,230.94v5.773l102.5,59.179v-5.774Z"/>
          <path class="window-L-prim" d="M0,184.752v5.773l102.5,59.179V243.93Z"/>
          <path class="window-L-prim" d="M0,138.564v5.773l102.5,59.179v-5.774Z"/>
          <path class="window-L-prim" d="M0,92.376v5.773l102.5,59.178v-5.773Z"/>
          <path class="window-L-prim" d="M0,46.188v5.773l102.5,59.178v-5.773Z"/>
          <path class="window-L-prim" d="M0,0V5.773L102.5,64.951V59.178Z"/>
          <path class="window-L-light" d="M95,412.805l-5-2.887v5.774l5,2.886Z"/>
          <path class="window-L-light" d="M75,401.258l-5-2.887v5.774l5,2.886Z"/>
          <path class="window-L-light" d="M55,389.711l-5-2.887v5.774l5,2.886Z"/>
          <path class="window-L-light" d="M35,378.164l-5-2.887v5.774l5,2.886Z"/>
          <path class="window-L-light" d="M15,366.617l-5-2.887v5.774l5,2.886Z"/>
          <path class="window-L-light" d="M85,407.031l-5-2.886v5.773l5,2.887Z"/>
          <path class="window-L-light" d="M65,395.484l-5-2.886v5.773l5,2.887Z"/>
          <path class="window-L-light" d="M45,383.937l-5-2.886v5.773l5,2.887Z"/>
          <path class="window-L-light" d="M25,372.39l-5-2.886v5.773l5,2.887Z"/>
          <path class="window-L-light" d="M95,366.617l-5-2.887v5.774l5,2.886Z"/>
          <path class="window-L-light" d="M75,355.07l-5-2.887v5.774l5,2.886Z"/>
          <path class="window-L-light" d="M55,343.523l-5-2.887v5.774l5,2.886Z"/>
          <path class="window-L-light" d="M35,331.976l-5-2.887v5.774l5,2.886Z"/>
          <path class="window-L-light" d="M15,320.429l-5-2.887v5.774l5,2.886Z"/>
          <path class="window-L-light" d="M85,360.843l-5-2.886v5.773l5,2.887Z"/>
          <path class="window-L-light" d="M65,349.296l-5-2.886v5.773l5,2.887Z"/>
          <path class="window-L-light" d="M45,337.749l-5-2.886v5.773l5,2.887Z"/>
          <path class="window-L-light" d="M25,326.202l-5-2.886v5.773l5,2.887Z"/>
          <path class="window-L-light" d="M95,320.429l-5-2.887v5.774l5,2.886Z"/>
          <path class="window-L-light" d="M75,308.882l-5-2.887v5.774l5,2.886Z"/>
          <path class="window-L-light" d="M55,297.335l-5-2.887v5.774l5,2.886Z"/>
          <path class="window-L-light" d="M35,285.788l-5-2.887v5.774l5,2.886Z"/>
          <path class="window-L-light" d="M15,274.241l-5-2.887v5.774l5,2.886Z"/>
          <path class="window-L-light" d="M85,314.655l-5-2.886v5.773l5,2.887Z"/>
          <path class="window-L-light" d="M65,303.108l-5-2.886v5.773l5,2.887Z"/>
          <path class="window-L-light" d="M45,291.561l-5-2.886v5.773l5,2.887Z"/>
          <path class="window-L-light" d="M25,280.014l-5-2.886v5.773l5,2.887Z"/>
          <path class="window-L-light" d="M95,274.241l-5-2.887v5.774l5,2.886Z"/>
          <path class="window-L-light" d="M75,262.694l-5-2.887v5.774l5,2.886Z"/>
          <path class="window-L-light" d="M55,251.147l-5-2.887v5.774l5,2.886Z"/>
          <path class="window-L-light" d="M35,239.6l-5-2.887v5.774l5,2.886Z"/>
          <path class="window-L-light" d="M15,228.053l-5-2.887v5.774l5,2.886Z"/>
          <path class="window-L-light" d="M85,268.467l-5-2.886v5.773l5,2.887Z"/>
          <path class="window-L-light" d="M65,256.92l-5-2.886v5.773l5,2.887Z"/>
          <path class="window-L-light" d="M45,245.373l-5-2.886v5.773l5,2.887Z"/>
          <path class="window-L-light" d="M25,233.826l-5-2.886v5.773l5,2.887Z"/>
          <path class="window-L-light" d="M95,228.053l-5-2.887v5.774l5,2.886Z"/>
          <path class="window-L-light" d="M75,216.506l-5-2.887v5.774l5,2.886Z"/>
          <path class="window-L-light" d="M55,204.959l-5-2.887v5.774l5,2.886Z"/>
          <path class="window-L-light" d="M35,193.412l-5-2.887v5.774l5,2.886Z"/>
          <path class="window-L-light" d="M15,181.865l-5-2.887v5.774l5,2.886Z"/>
          <path class="window-L-light" d="M85,222.279l-5-2.886v5.773l5,2.887Z"/>
          <path class="window-L-light" d="M65,210.732l-5-2.886v5.773l5,2.887Z"/>
          <path class="window-L-light" d="M45,199.185l-5-2.886v5.773l5,2.887Z"/>
          <path class="window-L-light" d="M25,187.638l-5-2.886v5.773l5,2.887Z"/>
          <path class="window-L-light" d="M95,181.865l-5-2.887v5.774l5,2.886Z"/>
          <path class="window-L-light" d="M75,170.318l-5-2.887v5.774l5,2.886Z"/>
          <path class="window-L-light" d="M55,158.771l-5-2.887v5.774l5,2.886Z"/>
          <path class="window-L-light" d="M35,147.224l-5-2.887v5.774l5,2.886Z"/>
          <path class="window-L-light" d="M15,135.677l-5-2.887v5.774l5,2.886Z"/>
          <path class="window-L-light" d="M85,176.091l-5-2.886v5.773l5,2.887Z"/>
          <path class="window-L-light" d="M65,164.544l-5-2.886v5.773l5,2.887Z"/>
          <path class="window-L-light" d="M45,152.997l-5-2.886v5.773l5,2.887Z"/>
          <path class="window-L-light" d="M25,141.45l-5-2.886v5.773l5,2.887Z"/>
          <path class="window-L-light" d="M95,135.677l-5-2.887v5.774l5,2.886Z"/>
          <path class="window-L-light" d="M75,124.13l-5-2.887v5.774l5,2.886Z"/>
          <path class="window-L-light" d="M55,112.583l-5-2.887v5.774l5,2.886Z"/>
          <path class="window-L-light" d="M35,101.036l-5-2.887v5.774l5,2.886Z"/>
          <path class="window-L-light" d="M15,89.489l-5-2.887v5.774l5,2.886Z"/>
          <path class="window-L-light" d="M85,129.903l-5-2.886v5.773l5,2.887Z"/>
          <path class="window-L-light" d="M65,118.356l-5-2.886v5.773l5,2.887Z"/>
          <path class="window-L-light" d="M45,106.809l-5-2.886v5.773l5,2.887Z"/>
          <path class="window-L-light" d="M25,95.262l-5-2.886v5.773l5,2.887Z"/>
          <path class="window-L-light" d="M95,89.489l-5-2.887v5.774l5,2.886Z"/>
          <path class="window-L-light" d="M75,77.942l-5-2.887v5.774l5,2.886Z"/>
          <path class="window-L-light" d="M55,66.395l-5-2.887v5.774l5,2.886Z"/>
          <path class="window-L-light" d="M35,54.848l-5-2.887v5.774l5,2.886Z"/>
          <path class="window-L-light" d="M15,43.301l-5-2.887v5.774l5,2.886Z"/>
          <path class="window-L-light" d="M85,83.715l-5-2.886v5.773l5,2.887Z"/>
          <path class="window-L-light" d="M65,72.168l-5-2.886v5.773l5,2.887Z"/>
          <path class="window-L-light" d="M45,60.621l-5-2.886v5.773l5,2.887Z"/>
          <path class="window-L-light" d="M25,49.074l-5-2.886v5.773l5,2.887Z"/>
          <path class="window-L-light" d="M95,401.258l-5-2.887v5.774l5,2.886Z"/>
          <path class="window-L-light" d="M75,389.711l-5-2.887v5.774l5,2.886Z"/>
          <path class="window-L-light" d="M55,378.164l-5-2.887v5.774l5,2.886Z"/>
          <path class="window-L-light" d="M35,366.617l-5-2.887v5.774l5,2.886Z"/>
          <path class="window-L-light" d="M15,355.07l-5-2.887v5.774l5,2.886Z"/>
          <path class="window-L-light" d="M85,395.484l-5-2.886v5.773l5,2.887Z"/>
          <path class="window-L-light" d="M65,383.937l-5-2.886v5.773l5,2.887Z"/>
          <path class="window-L-light" d="M45,372.39l-5-2.886v5.773l5,2.887Z"/>
          <path class="window-L-light" d="M25,360.843l-5-2.886v5.773l5,2.887Z"/>
          <path class="window-L-light" d="M95,355.07l-5-2.887v5.774l5,2.886Z"/>
          <path class="window-L-light" d="M75,343.523l-5-2.887v5.774l5,2.886Z"/>
          <path class="window-L-light" d="M55,331.976l-5-2.887v5.774l5,2.886Z"/>
          <path class="window-L-light" d="M35,320.429l-5-2.887v5.774l5,2.886Z"/>
          <path class="window-L-light" d="M15,308.882l-5-2.887v5.774l5,2.886Z"/>
          <path class="window-L-light" d="M85,349.296l-5-2.886v5.773l5,2.887Z"/>
          <path class="window-L-light" d="M65,337.749l-5-2.886v5.773l5,2.887Z"/>
          <path class="window-L-light" d="M45,326.202l-5-2.886v5.773l5,2.887Z"/>
          <path class="window-L-light" d="M25,314.655l-5-2.886v5.773l5,2.887Z"/>
          <path class="window-L-light" d="M95,308.882l-5-2.887v5.774l5,2.886Z"/>
          <path class="window-L-light" d="M75,297.335l-5-2.887v5.774l5,2.886Z"/>
          <path class="window-L-light" d="M55,285.788l-5-2.887v5.774l5,2.886Z"/>
          <path class="window-L-light" d="M35,274.241l-5-2.887v5.774l5,2.886Z"/>
          <path class="window-L-light" d="M15,262.694l-5-2.887v5.774l5,2.886Z"/>
          <path class="window-L-light" d="M85,303.108l-5-2.886v5.773l5,2.887Z"/>
          <path class="window-L-light" d="M65,291.561l-5-2.886v5.773l5,2.887Z"/>
          <path class="window-L-light" d="M45,280.014l-5-2.886v5.773l5,2.887Z"/>
          <path class="window-L-light" d="M25,268.467l-5-2.886v5.773l5,2.887Z"/>
          <path class="window-L-light" d="M95,262.694l-5-2.887v5.774l5,2.886Z"/>
          <path class="window-L-light" d="M75,251.147l-5-2.887v5.774l5,2.886Z"/>
          <path class="window-L-light" d="M55,239.6l-5-2.887v5.774l5,2.886Z"/>
          <path class="window-L-light" d="M35,228.053l-5-2.887v5.774l5,2.886Z"/>
          <path class="window-L-light" d="M15,216.506l-5-2.887v5.774l5,2.886Z"/>
          <path class="window-L-light" d="M85,256.92l-5-2.886v5.773l5,2.887Z"/>
          <path class="window-L-light" d="M65,245.373l-5-2.886v5.773l5,2.887Z"/>
          <path class="window-L-light" d="M45,233.826l-5-2.886v5.773l5,2.887Z"/>
          <path class="window-L-light" d="M25,222.279l-5-2.886v5.773l5,2.887Z"/>
          <path class="window-L-light" d="M95,216.506l-5-2.887v5.774l5,2.886Z"/>
          <path class="window-L-light" d="M75,204.959l-5-2.887v5.774l5,2.886Z"/>
          <path class="window-L-light" d="M55,193.412l-5-2.887v5.774l5,2.886Z"/>
          <path class="window-L-light" d="M35,181.865l-5-2.887v5.774l5,2.886Z"/>
          <path class="window-L-light" d="M15,170.318l-5-2.887v5.774l5,2.886Z"/>
          <path class="window-L-light" d="M85,210.732l-5-2.886v5.773l5,2.887Z"/>
          <path class="window-L-light" d="M65,199.185l-5-2.886v5.773l5,2.887Z"/>
          <path class="window-L-light" d="M45,187.638l-5-2.886v5.773l5,2.887Z"/>
          <path class="window-L-light" d="M25,176.091l-5-2.886v5.773l5,2.887Z"/>
          <path class="window-L-light" d="M95,170.318l-5-2.887v5.774l5,2.886Z"/>
          <path class="window-L-light" d="M75,158.771l-5-2.887v5.774l5,2.886Z"/>
          <path class="window-L-light" d="M55,147.224l-5-2.887v5.774l5,2.886Z"/>
          <path class="window-L-light" d="M35,135.677l-5-2.887v5.774l5,2.886Z"/>
          <path class="window-L-light" d="M15,124.13l-5-2.887v5.774l5,2.886Z"/>
          <path class="window-L-light" d="M85,164.544l-5-2.886v5.773l5,2.887Z"/>
          <path class="window-L-light" d="M65,152.997l-5-2.886v5.773l5,2.887Z"/>
          <path class="window-L-light" d="M45,141.45l-5-2.886v5.773l5,2.887Z"/>
          <path class="window-L-light" d="M25,129.903l-5-2.886v5.773l5,2.887Z"/>
          <path class="window-L-light" d="M95,124.13l-5-2.887v5.774l5,2.886Z"/>
          <path class="window-L-light" d="M75,112.583l-5-2.887v5.774l5,2.886Z"/>
          <path class="window-L-light" d="M55,101.036l-5-2.887v5.774l5,2.886Z"/>
          <path class="window-L-light" d="M35,89.489l-5-2.887v5.774l5,2.886Z"/>
          <path class="window-L-light" d="M15,77.942l-5-2.887v5.774l5,2.886Z"/>
          <path class="window-L-light" d="M85,118.356l-5-2.886v5.773l5,2.887Z"/>
          <path class="window-L-light" d="M65,106.809l-5-2.886v5.773l5,2.887Z"/>
          <path class="window-L-light" d="M45,95.262l-5-2.886v5.773l5,2.887Z"/>
          <path class="window-L-light" d="M25,83.715l-5-2.886v5.773l5,2.887Z"/>
          <path class="window-L-light" d="M95,77.942l-5-2.887v5.774l5,2.886Z"/>
          <path class="window-L-light" d="M75,66.395l-5-2.887v5.774l5,2.886Z"/>
          <path class="window-L-light" d="M55,54.848l-5-2.887v5.773l5,2.887Z"/>
          <path class="window-L-light" d="M35,43.301l-5-2.887v5.773l5,2.887Z"/>
          <path class="window-L-light" d="M15,31.754l-5-2.887v5.774l5,2.886Z"/>
          <path class="window-L-light" d="M85,72.168l-5-2.886v5.773l5,2.887Z"/>
          <path class="window-L-light" d="M65,60.621l-5-2.886v5.773l5,2.887Z"/>
          <path class="window-L-light" d="M45,49.074l-5-2.887v5.774l5,2.887Z"/>
          <path class="window-L-light" d="M25,37.527,20,34.64v5.774l5,2.887Z"/>
          <path class="window-L-light" d="M95,389.711l-5-2.887v5.774l5,2.886Z"/>
          <path class="window-L-light" d="M75,378.164l-5-2.887v5.774l5,2.886Z"/>
          <path class="window-L-light" d="M55,366.617l-5-2.887v5.774l5,2.886Z"/>
          <path class="window-L-light" d="M35,355.07l-5-2.887v5.774l5,2.886Z"/>
          <path class="window-L-light" d="M15,343.523l-5-2.887v5.774l5,2.886Z"/>
          <path class="window-L-light" d="M85,383.937l-5-2.886v5.773l5,2.887Z"/>
          <path class="window-L-light" d="M65,372.39l-5-2.886v5.773l5,2.887Z"/>
          <path class="window-L-light" d="M45,360.843l-5-2.886v5.773l5,2.887Z"/>
          <path class="window-L-light" d="M25,349.296l-5-2.886v5.773l5,2.887Z"/>
          <path class="window-L-light" d="M95,343.523l-5-2.887v5.774l5,2.886Z"/>
          <path class="window-L-light" d="M75,331.976l-5-2.887v5.774l5,2.886Z"/>
          <path class="window-L-light" d="M55,320.429l-5-2.887v5.774l5,2.886Z"/>
          <path class="window-L-light" d="M35,308.882l-5-2.887v5.774l5,2.886Z"/>
          <path class="window-L-light" d="M15,297.335l-5-2.887v5.774l5,2.886Z"/>
          <path class="window-L-light" d="M85,337.749l-5-2.886v5.773l5,2.887Z"/>
          <path class="window-L-light" d="M65,326.202l-5-2.886v5.773l5,2.887Z"/>
          <path class="window-L-light" d="M45,314.655l-5-2.886v5.773l5,2.887Z"/>
          <path class="window-L-light" d="M25,303.108l-5-2.886v5.773l5,2.887Z"/>
          <path class="window-L-light" d="M95,297.335l-5-2.887v5.774l5,2.886Z"/>
          <path class="window-L-light" d="M75,285.788l-5-2.887v5.774l5,2.886Z"/>
          <path class="window-L-light" d="M55,274.241l-5-2.887v5.774l5,2.886Z"/>
          <path class="window-L-light" d="M35,262.694l-5-2.887v5.774l5,2.886Z"/>
          <path class="window-L-light" d="M15,251.147l-5-2.887v5.774l5,2.886Z"/>
          <path class="window-L-light" d="M85,291.561l-5-2.886v5.773l5,2.887Z"/>
          <path class="window-L-light" d="M65,280.014l-5-2.886v5.773l5,2.887Z"/>
          <path class="window-L-light" d="M45,268.467l-5-2.886v5.773l5,2.887Z"/>
          <path class="window-L-light" d="M25,256.92l-5-2.886v5.773l5,2.887Z"/>
          <path class="window-L-light" d="M95,251.147l-5-2.887v5.774l5,2.886Z"/>
          <path class="window-L-light" d="M75,239.6l-5-2.887v5.774l5,2.886Z"/>
          <path class="window-L-light" d="M55,228.053l-5-2.887v5.774l5,2.886Z"/>
          <path class="window-L-light" d="M35,216.506l-5-2.887v5.774l5,2.886Z"/>
          <path class="window-L-light" d="M15,204.959l-5-2.887v5.774l5,2.886Z"/>
          <path class="window-L-light" d="M85,245.373l-5-2.886v5.773l5,2.887Z"/>
          <path class="window-L-light" d="M65,233.826l-5-2.886v5.773l5,2.887Z"/>
          <path class="window-L-light" d="M45,222.279l-5-2.886v5.773l5,2.887Z"/>
          <path class="window-L-light" d="M25,210.732l-5-2.886v5.773l5,2.887Z"/>
          <path class="window-L-light" d="M95,204.959l-5-2.887v5.774l5,2.886Z"/>
          <path class="window-L-light" d="M75,193.412l-5-2.887v5.774l5,2.886Z"/>
          <path class="window-L-light" d="M55,181.865l-5-2.887v5.774l5,2.886Z"/>
          <path class="window-L-light" d="M35,170.318l-5-2.887v5.774l5,2.886Z"/>
          <path class="window-L-light" d="M15,158.771l-5-2.887v5.774l5,2.886Z"/>
          <path class="window-L-light" d="M85,199.185l-5-2.886v5.773l5,2.887Z"/>
          <path class="window-L-light" d="M65,187.638l-5-2.886v5.773l5,2.887Z"/>
          <path class="window-L-light" d="M45,176.091l-5-2.886v5.773l5,2.887Z"/>
          <path class="window-L-light" d="M25,164.544l-5-2.886v5.773l5,2.887Z"/>
          <path class="window-L-light" d="M95,158.771l-5-2.887v5.774l5,2.886Z"/>
          <path class="window-L-light" d="M75,147.224l-5-2.887v5.774l5,2.886Z"/>
          <path class="window-L-light" d="M55,135.677l-5-2.887v5.774l5,2.886Z"/>
          <path class="window-L-light" d="M35,124.13l-5-2.887v5.774l5,2.886Z"/>
          <path class="window-L-light" d="M15,112.583l-5-2.887v5.774l5,2.886Z"/>
          <path class="window-L-light" d="M85,152.997l-5-2.886v5.773l5,2.887Z"/>
          <path class="window-L-light" d="M65,141.45l-5-2.886v5.773l5,2.887Z"/>
          <path class="window-L-light" d="M45,129.903l-5-2.886v5.773l5,2.887Z"/>
          <path class="window-L-light" d="M25,118.356l-5-2.886v5.773l5,2.887Z"/>
          <path class="window-L-light" d="M95,112.583l-5-2.887v5.774l5,2.886Z"/>
          <path class="window-L-light" d="M75,101.036l-5-2.887v5.774l5,2.886Z"/>
          <path class="window-L-light" d="M55,89.489l-5-2.887v5.774l5,2.886Z"/>
          <path class="window-L-light" d="M35,77.942l-5-2.887v5.774l5,2.886Z"/>
          <path class="window-L-light" d="M15,66.395l-5-2.887v5.774l5,2.886Z"/>
          <path class="window-L-light" d="M85,106.809l-5-2.886v5.773l5,2.887Z"/>
          <path class="window-L-light" d="M65,95.262l-5-2.886v5.773l5,2.887Z"/>
          <path class="window-L-light" d="M45,83.715l-5-2.886v5.773l5,2.887Z"/>
          <path class="window-L-light" d="M25,72.168l-5-2.886v5.773l5,2.887Z"/>
          <path class="window-L-light" d="M95,66.395l-5-2.887v5.774l5,2.886Z"/>
          <path class="window-L-light" d="M75,54.848l-5-2.887v5.774l5,2.886Z"/>
          <path class="window-L-light" d="M55,43.301l-5-2.887v5.773l5,2.887Z"/>
          <path class="window-L-light" d="M35,31.754l-5-2.887V34.64l5,2.887Z"/>
          <path class="window-L-light" d="M15,20.207,10,17.32v5.773l5,2.887Z"/>
          <path class="window-L-light" d="M85,60.621l-5-2.886v5.773l5,2.887Z"/>
          <path class="window-L-light" d="M65,49.074l-5-2.886v5.773l5,2.887Z"/>
          <path class="window-L-light" d="M45,37.527,40,34.64v5.774l5,2.887Z"/>
          <path class="window-L-light" d="M25,25.98l-5-2.887v5.774l5,2.887Z"/>
          <path class="window-L-light" d="M95,378.164l-5-2.887v5.774l5,2.886Z"/>
          <path class="window-L-light" d="M75,366.617l-5-2.887v5.774l5,2.886Z"/>
          <path class="window-L-light" d="M55,355.07l-5-2.887v5.774l5,2.886Z"/>
          <path class="window-L-light" d="M35,343.523l-5-2.887v5.774l5,2.886Z"/>
          <path class="window-L-light" d="M15,331.976l-5-2.887v5.774l5,2.886Z"/>
          <path class="window-L-light" d="M85,372.39l-5-2.886v5.773l5,2.887Z"/>
          <path class="window-L-light" d="M65,360.843l-5-2.886v5.773l5,2.887Z"/>
          <path class="window-L-light" d="M45,349.296l-5-2.886v5.773l5,2.887Z"/>
          <path class="window-L-light" d="M25,337.749l-5-2.886v5.773l5,2.887Z"/>
          <path class="window-L-light" d="M95,331.976l-5-2.887v5.774l5,2.886Z"/>
          <path class="window-L-light" d="M75,320.429l-5-2.887v5.774l5,2.886Z"/>
          <path class="window-L-light" d="M55,308.882l-5-2.887v5.774l5,2.886Z"/>
          <path class="window-L-light" d="M35,297.335l-5-2.887v5.774l5,2.886Z"/>
          <path class="window-L-light" d="M15,285.788l-5-2.887v5.774l5,2.886Z"/>
          <path class="window-L-light" d="M85,326.202l-5-2.886v5.773l5,2.887Z"/>
          <path class="window-L-light" d="M65,314.655l-5-2.886v5.773l5,2.887Z"/>
          <path class="window-L-light" d="M45,303.108l-5-2.886v5.773l5,2.887Z"/>
          <path class="window-L-light" d="M25,291.561l-5-2.886v5.773l5,2.887Z"/>
          <path class="window-L-light" d="M95,285.788l-5-2.887v5.774l5,2.886Z"/>
          <path class="window-L-light" d="M75,274.241l-5-2.887v5.774l5,2.886Z"/>
          <path class="window-L-light" d="M55,262.694l-5-2.887v5.774l5,2.886Z"/>
          <path class="window-L-light" d="M35,251.147l-5-2.887v5.774l5,2.886Z"/>
          <path class="window-L-light" d="M15,239.6l-5-2.887v5.774l5,2.886Z"/>
          <path class="window-L-light" d="M85,280.014l-5-2.886v5.773l5,2.887Z"/>
          <path class="window-L-light" d="M65,268.467l-5-2.886v5.773l5,2.887Z"/>
          <path class="window-L-light" d="M45,256.92l-5-2.886v5.773l5,2.887Z"/>
          <path class="window-L-light" d="M25,245.373l-5-2.886v5.773l5,2.887Z"/>
          <path class="window-L-light" d="M95,239.6l-5-2.887v5.774l5,2.886Z"/>
          <path class="window-L-light" d="M75,228.053l-5-2.887v5.774l5,2.886Z"/>
          <path class="window-L-light" d="M55,216.506l-5-2.887v5.774l5,2.886Z"/>
          <path class="window-L-light" d="M35,204.959l-5-2.887v5.774l5,2.886Z"/>
          <path class="window-L-light" d="M15,193.412l-5-2.887v5.774l5,2.886Z"/>
          <path class="window-L-light" d="M85,233.826l-5-2.886v5.773l5,2.887Z"/>
          <path class="window-L-light" d="M65,222.279l-5-2.886v5.773l5,2.887Z"/>
          <path class="window-L-light" d="M45,210.732l-5-2.886v5.773l5,2.887Z"/>
          <path class="window-L-light" d="M25,199.185l-5-2.886v5.773l5,2.887Z"/>
          <path class="window-L-light" d="M95,193.412l-5-2.887v5.774l5,2.886Z"/>
          <path class="window-L-light" d="M75,181.865l-5-2.887v5.774l5,2.886Z"/>
          <path class="window-L-light" d="M55,170.318l-5-2.887v5.774l5,2.886Z"/>
          <path class="window-L-light" d="M35,158.771l-5-2.887v5.774l5,2.886Z"/>
          <path class="window-L-light" d="M15,147.224l-5-2.887v5.774l5,2.886Z"/>
          <path class="window-L-light" d="M85,187.638l-5-2.886v5.773l5,2.887Z"/>
          <path class="window-L-light" d="M65,176.091l-5-2.886v5.773l5,2.887Z"/>
          <path class="window-L-light" d="M45,164.544l-5-2.886v5.773l5,2.887Z"/>
          <path class="window-L-light" d="M25,152.997l-5-2.886v5.773l5,2.887Z"/>
          <path class="window-L-light" d="M95,147.224l-5-2.887v5.774l5,2.886Z"/>
          <path class="window-L-light" d="M75,135.677l-5-2.887v5.774l5,2.886Z"/>
          <path class="window-L-light" d="M55,124.13l-5-2.887v5.774l5,2.886Z"/>
          <path class="window-L-light" d="M35,112.583l-5-2.887v5.774l5,2.886Z"/>
          <path class="window-L-light" d="M15,101.036l-5-2.887v5.774l5,2.886Z"/>
          <path class="window-L-light" d="M85,141.45l-5-2.886v5.773l5,2.887Z"/>
          <path class="window-L-light" d="M65,129.903l-5-2.886v5.773l5,2.887Z"/>
          <path class="window-L-light" d="M45,118.356l-5-2.886v5.773l5,2.887Z"/>
          <path class="window-L-light" d="M25,106.809l-5-2.886v5.773l5,2.887Z"/>
          <path class="window-L-light" d="M95,101.036l-5-2.887v5.774l5,2.886Z"/>
          <path class="window-L-light" d="M75,89.489l-5-2.887v5.774l5,2.886Z"/>
          <path class="window-L-light" d="M55,77.942l-5-2.887v5.774l5,2.886Z"/>
          <path class="window-L-light" d="M35,66.395l-5-2.887v5.774l5,2.886Z"/>
          <path class="window-L-light" d="M15,54.848l-5-2.887v5.774l5,2.886Z"/>
          <path class="window-L-light" d="M85,95.262l-5-2.886v5.773l5,2.887Z"/>
          <path class="window-L-light" d="M65,83.715l-5-2.886v5.773l5,2.887Z"/>
          <path class="window-L-light" d="M45,72.168l-5-2.886v5.773l5,2.887Z"/>
          <path class="window-L-light" d="M25,60.621l-5-2.886v5.773l5,2.887Z"/>
          <path class="window-L-light" d="M95,54.848l-5-2.887v5.774l5,2.886Z"/>
          <path class="window-L-light" d="M75,43.301l-5-2.887v5.774l5,2.886Z"/>
          <path class="window-L-light" d="M55,31.754l-5-2.887v5.774l5,2.886Z"/>
          <path class="window-L-light" d="M35,20.207,30,17.32v5.774l5,2.886Z"/>
          <path class="window-L-light" d="M15,8.66,10,5.773v5.774l5,2.886Z"/>
          <path class="window-L-light" d="M85,49.074l-5-2.886v5.773l5,2.887Z"/>
          <path class="window-L-light" d="M65,37.527l-5-2.886v5.773l5,2.887Z"/>
          <path class="window-L-light" d="M45,25.98l-5-2.886v5.773l5,2.887Z"/>
          <path class="window-L-light" d="M25,14.433l-5-2.886V17.32l5,2.887Z"/>
        </g>
      </g>
    </g>
  </g>
</svg>
