<svg id="Layer_1" data-name="Layer 1" xmlns="http://www.w3.org/2000/svg" viewBox="0 0 200 356.514">
  <defs>
    <style>
      .top-prim {
        fill: #dd8a87;
      }

      .exterior-L-prim {
        fill: #73302e;
      }

      .top-dark {
        fill: #c67471;
      }

      .curtain-R-prim-dark {
        fill: #3e809c;
      }

      .curtain-L-prim-dark {
        fill: #2f5565;
      }

      .curtain-R-prim-light {
        fill: #59acd0;
      }

      .exterior-R-prim {
        fill: #d05752;
      }

      .curtain-L-prim-light {
        fill: #438fb0;
      }
    </style>
  </defs>
  <title>Artboard 66</title>
  <g id="root">
    <path class="top-prim" d="M42.5,11.547v5.774l30,17.32,20-17.32L62.5,0Z"/>
    <path class="exterior-L-prim" d="M42.5,11.547V150.111l25-124.13Z"/>
    <path class="exterior-L-prim" d="M75,27.424V21.651L50,12.99Z"/>
    <path class="top-prim" d="M65,4.33l25,8.66L75,21.651,50,12.99Z"/>
    <path id="anchor_65_44.744_70" data-name="anchor_65_44.744 _70" class="top-dark" d="M65,30.311l35,20.207,35-20.207V24.537L100,4.33,65,24.537Z"/>
    <polygon class="curtain-R-prim-dark" points="100 356.514 92.5 352.184 95 41.858 100 44.745 135 24.537 200 298.779 100 356.514"/>
    <polygon class="curtain-L-prim-dark" points="100 356.514 100 44.745 65 24.537 0 298.779 100 356.514"/>
    <polygon class="curtain-R-prim-light" points="100 316.099 100 321.873 192.778 268.307 191.574 263.229 100 316.099"/>
    <polygon class="curtain-R-prim-light" points="100 223.723 100 229.497 173.519 187.051 172.315 181.972 100 223.723"/>
    <polygon class="curtain-R-prim-light" points="100 131.347 100 137.121 154.259 105.794 153.056 100.715 100 131.347"/>
    <polygon class="curtain-R-prim-light" points="100 293.005 100 298.779 187.963 247.993 186.759 242.915 100 293.005"/>
    <polygon class="curtain-R-prim-light" points="100 200.629 100 206.403 168.704 166.736 167.5 161.658 100 200.629"/>
    <polygon class="curtain-R-prim-light" points="100 108.253 100 114.027 149.445 85.48 148.241 80.401 100 108.253"/>
    <polygon class="curtain-R-prim-light" points="100 269.911 100 275.685 183.148 227.679 181.944 222.601 100 269.911"/>
    <polygon class="curtain-R-prim-light" points="100 177.535 100 183.309 163.889 146.422 162.685 141.344 100 177.535"/>
    <polygon class="curtain-R-prim-light" points="100 85.159 100 90.933 144.63 65.166 143.426 60.087 100 85.159"/>
    <polygon class="curtain-R-prim-light" points="100 339.193 100 344.967 197.593 288.621 196.389 283.543 100 339.193"/>
    <polygon class="curtain-R-prim-light" points="100 246.817 100 252.591 178.333 207.365 177.13 202.286 100 246.817"/>
    <polygon class="curtain-R-prim-light" points="100 154.441 100 160.215 159.074 126.108 157.87 121.03 100 154.441"/>
    <polygon class="curtain-R-prim-light" points="100 62.065 100 67.839 139.815 44.852 138.611 39.773 100 62.065"/>
    <polygon class="curtain-R-prim-light" points="100 304.552 100 310.326 190.37 258.15 189.167 253.072 100 304.552"/>
    <polygon class="curtain-R-prim-light" points="100 212.176 100 217.95 171.111 176.894 169.907 171.815 100 212.176"/>
    <polygon class="curtain-R-prim-light" points="100 119.8 100 125.574 151.852 95.637 150.648 90.558 100 119.8"/>
    <polygon class="curtain-R-prim-light" points="100 281.458 100 287.232 185.555 237.836 184.352 232.758 100 281.458"/>
    <polygon class="curtain-R-prim-light" points="100 189.082 100 194.856 166.296 156.579 165.093 151.501 100 189.082"/>
    <polygon class="curtain-R-prim-light" points="100 96.706 100 102.48 147.037 75.323 145.833 70.244 100 96.706"/>
    <polygon class="curtain-R-prim-light" points="100 350.74 100 356.514 200 298.778 198.796 293.7 100 350.74"/>
    <polygon class="curtain-R-prim-light" points="100 258.364 100 264.138 180.741 217.522 179.537 212.443 100 258.364"/>
    <polygon class="curtain-R-prim-light" points="100 165.988 100 171.762 161.481 136.265 160.278 131.187 100 165.988"/>
    <polygon class="curtain-R-prim-light" points="100 73.612 100 79.386 142.222 55.009 141.019 49.93 100 73.612"/>
    <polygon class="curtain-R-prim-light" points="100 327.646 100 333.42 195.185 278.464 193.981 273.386 100 327.646"/>
    <polygon class="curtain-R-prim-light" points="100 235.27 100 241.044 175.926 197.208 174.722 192.129 100 235.27"/>
    <polygon class="curtain-R-prim-light" points="100 142.894 100 148.668 156.667 115.951 155.463 110.873 100 142.894"/>
    <polygon class="curtain-R-prim-light" points="100 50.518 100 56.292 137.407 34.694 136.204 29.616 100 50.518"/>
    <path class="top-prim" d="M107.5,49.075l2.5,7.217,27.5,15.877,20-11.547V54.848l-30-17.32Z"/>
    <path class="exterior-L-prim" d="M137.5,66.395l5-2.886V251.147l-5,2.887-30-204.959Z"/>
    <path class="exterior-R-prim" d="M137.5,254.034l20-11.547V54.848l-20,11.547Z"/>
    <path class="exterior-L-prim" d="M135,62.065,110,38.971v8.66Z"/>
    <path class="top-prim" d="M125,30.311l25,23.094-15,8.66L110,38.971Z"/>
    <path class="curtain-L-prim-dark" d="M100,356.514V44.745L65,24.537,0,298.779Z"/>
    <polygon class="curtain-L-prim-light" points="7.222 268.307 100 321.873 100 316.099 8.426 263.229 7.222 268.307"/>
    <polygon class="curtain-L-prim-light" points="26.481 187.051 100 229.497 100 223.723 27.685 181.972 26.481 187.051"/>
    <polygon class="curtain-L-prim-light" points="45.741 105.794 100 137.121 100 131.347 46.944 100.715 45.741 105.794"/>
    <polygon class="curtain-L-prim-light" points="12.037 247.993 100 298.779 100 293.005 13.241 242.915 12.037 247.993"/>
    <polygon class="curtain-L-prim-light" points="31.296 166.736 100 206.403 100 200.629 32.5 161.658 31.296 166.736"/>
    <polygon class="curtain-L-prim-light" points="50.555 85.48 100 114.027 100 108.253 51.759 80.401 50.555 85.48"/>
    <polygon class="curtain-L-prim-light" points="16.852 227.679 100 275.685 100 269.911 18.056 222.601 16.852 227.679"/>
    <polygon class="curtain-L-prim-light" points="36.111 146.422 100 183.309 100 177.535 37.315 141.344 36.111 146.422"/>
    <polygon class="curtain-L-prim-light" points="55.37 65.166 100 90.933 100 85.159 56.574 60.087 55.37 65.166"/>
    <polygon class="curtain-L-prim-light" points="2.407 288.621 100 344.967 100 339.193 3.611 283.543 2.407 288.621"/>
    <polygon class="curtain-L-prim-light" points="21.667 207.365 100 252.591 100 246.817 22.87 202.286 21.667 207.365"/>
    <polygon class="curtain-L-prim-light" points="40.926 126.108 100 160.215 100 154.441 42.13 121.03 40.926 126.108"/>
    <polygon class="curtain-L-prim-light" points="60.185 44.852 100 67.839 100 62.065 61.389 39.773 60.185 44.852"/>
    <polygon class="curtain-L-prim-light" points="9.63 258.15 100 310.326 100 304.552 10.833 253.072 9.63 258.15"/>
    <polygon class="curtain-L-prim-light" points="28.889 176.894 100 217.95 100 212.176 30.093 171.815 28.889 176.894"/>
    <polygon class="curtain-L-prim-light" points="48.148 95.637 100 125.574 100 119.8 49.352 90.558 48.148 95.637"/>
    <polygon class="curtain-L-prim-light" points="14.445 237.836 100 287.232 100 281.458 15.648 232.758 14.445 237.836"/>
    <polygon class="curtain-L-prim-light" points="33.704 156.579 100 194.856 100 189.082 34.907 151.501 33.704 156.579"/>
    <polygon class="curtain-L-prim-light" points="52.963 75.323 100 102.48 100 96.706 54.167 70.244 52.963 75.323"/>
    <polygon class="curtain-L-prim-light" points="0 298.778 100 356.514 100 350.74 1.204 293.7 0 298.778"/>
    <polygon class="curtain-L-prim-light" points="19.259 217.522 100 264.138 100 258.364 20.463 212.443 19.259 217.522"/>
    <polygon class="curtain-L-prim-light" points="38.519 136.265 100 171.762 100 165.988 39.722 131.187 38.519 136.265"/>
    <polygon class="curtain-L-prim-light" points="57.778 55.009 100 79.386 100 73.612 58.981 49.93 57.778 55.009"/>
    <polygon class="curtain-L-prim-light" points="4.815 278.464 100 333.42 100 327.646 6.019 273.386 4.815 278.464"/>
    <polygon class="curtain-L-prim-light" points="24.074 197.208 100 241.044 100 235.27 25.278 192.129 24.074 197.208"/>
    <polygon class="curtain-L-prim-light" points="43.333 115.951 100 148.668 100 142.894 44.537 110.873 43.333 115.951"/>
    <polygon class="curtain-L-prim-light" points="62.593 34.694 100 56.292 100 50.518 63.796 29.616 62.593 34.694"/>
  </g>
</svg>
