<svg id="Layer_1" data-name="Layer 1" xmlns="http://www.w3.org/2000/svg" xmlns:xlink="http://www.w3.org/1999/xlink" viewBox="0 0 500 293.1857">
  <defs>
    <style>
      .top-light {
        fill: #ffc8c6;
      }

      .cls-1 {
        fill: #f4f4f4;
      }

      .exterior-L-prim {
        fill: #73302e;
      }

      .cls-2 {
        fill: #dbf8ff;
      }

      .cls-3 {
        opacity: 0.8;
      }

      .cls-4 {
        fill: #f6fdff;
      }

      .cls-5 {
        fill: #3e3d3d;
      }

      .cls-6 {
        fill: #1e1d1c;
      }

      .cls-7 {
        fill: url(#linear-gradient);
      }

      .cls-8 {
        fill: url(#linear-gradient-2);
      }

      .cls-9 {
        fill: url(#linear-gradient-3);
      }

      .cls-10 {
        fill: url(#linear-gradient-4);
      }

      .cls-11 {
        fill: #a2a2a2;
      }

      .cls-12 {
        fill: #e8e8e8;
      }

      .cls-13 {
        fill: #b9b9b9;
      }

      .cls-14 {
        fill: #8b8b8b;
      }

      .exterior-R-prim {
        fill: #d05752;
      }

      .cls-15 {
        fill: #a69a8e;
      }

      .cls-16 {
        fill: #dbc8b9;
      }

      .cls-17 {
        fill: url(#linear-gradient-5);
      }

      .cls-18 {
        fill: url(#linear-gradient-6);
      }

      .cls-19 {
        fill: url(#linear-gradient-7);
      }

      .cls-20 {
        fill: url(#linear-gradient-8);
      }

      .cls-21 {
        fill: #96eaff;
      }

      .cls-22 {
        fill: #6cd4ee;
      }

      .cls-23 {
        fill: #46b5d0;
      }

      .cls-24, .cls-31 {
        fill: none;
      }

      .cls-24 {
        stroke: #bfbfbf;
        stroke-width: 0.5px;
      }

      .cls-24, .cls-30 {
        stroke-linecap: round;
        stroke-linejoin: round;
      }

      .cls-25 {
        fill: #f2ebe5;
      }

      .cls-26 {
        fill: #149963;
      }

      .cls-27 {
        fill: #00574a;
      }

      .cls-28 {
        fill: url(#linear-gradient-9);
      }

      .cls-29 {
        fill: url(#linear-gradient-10);
      }

      .cls-30 {
        fill: #93d7e8;
      }

      .cls-30, .cls-31 {
        stroke: #46b5d0;
        stroke-width: 0.25px;
      }

      .cls-31 {
        stroke-linecap: square;
        stroke-miterlimit: 3;
      }
    </style>
    <linearGradient id="linear-gradient" x1="1197.2648" y1="3700.6792" x2="1198.7882" y2="3701.0288" gradientTransform="matrix(1.9443, 0, 0, -5.0514, -2066.2045, 18743.1112)" gradientUnits="userSpaceOnUse">
      <stop offset="0" stop-color="#332716"/>
      <stop offset="1" stop-color="#603d16"/>
    </linearGradient>
    <linearGradient id="linear-gradient-2" x1="2483.8311" y1="3237.4992" x2="2485.2764" y2="3238.0792" gradientTransform="matrix(11.6658, 0, 0, -15.7156, -28721.0294, 50917.6118)" gradientUnits="userSpaceOnUse">
      <stop offset="0" stop-color="#00564a"/>
      <stop offset="1" stop-color="#169d65"/>
    </linearGradient>
    <linearGradient id="linear-gradient-3" x1="1199.7961" y1="3700.1167" x2="1201.3195" y2="3700.4663" gradientTransform="matrix(1.9443, 0, 0, -5.0514, -2057.4551, 18748.1626)" xlink:href="#linear-gradient"/>
    <linearGradient id="linear-gradient-4" x1="2484.253" y1="3237.3184" x2="2485.6983" y2="3237.8983" gradientTransform="matrix(11.6658, 0, 0, -15.7156, -28712.28, 50922.6632)" xlink:href="#linear-gradient-2"/>
    <linearGradient id="linear-gradient-5" x1="1159.6303" y1="3693.0573" x2="1161.1538" y2="3693.4068" gradientTransform="matrix(1.9443, 0, 0, -5.0514, -2196.2895, 18811.5583)" xlink:href="#linear-gradient"/>
    <linearGradient id="linear-gradient-6" x1="2477.5587" y1="3235.0493" x2="2479.004" y2="3235.6293" gradientTransform="matrix(11.6658, 0, 0, -15.7156, -28851.1143, 50986.0589)" xlink:href="#linear-gradient-2"/>
    <linearGradient id="linear-gradient-7" x1="1162.1616" y1="3692.4948" x2="1163.685" y2="3692.8443" gradientTransform="matrix(1.9443, 0, 0, -5.0514, -2187.54, 18816.6097)" xlink:href="#linear-gradient"/>
    <linearGradient id="linear-gradient-8" x1="2477.9806" y1="3234.8685" x2="2479.4259" y2="3235.4485" gradientTransform="matrix(11.6658, 0, 0, -15.7156, -28842.365, 50991.1103)" xlink:href="#linear-gradient-2"/>
    <linearGradient id="linear-gradient-9" x1="2500.4979" y1="3494.4665" x2="2502.0604" y2="3494.4665" gradientTransform="matrix(12.5, 0, 0, -7.2169, -31017.9422, 25297.0218)" gradientUnits="userSpaceOnUse">
      <stop offset="0" stop-color="#00574a"/>
      <stop offset="0.9826" stop-color="#149963"/>
    </linearGradient>
    <linearGradient id="linear-gradient-10" x1="1515.0844" y1="4201.3283" x2="1520.6499" y2="4198.5052" gradientTransform="matrix(2.5, 0, 0, -2.8867, -3682.0142, 12281.3519)" xlink:href="#linear-gradient-9"/>
  </defs>
  <title>Artboard 19</title>
  <g id="Group">
    <path id="top-T2" class="top-light" d="M0,148.8481,250,293.1857,500,148.8481,250,4.5105Z"/>
    <path id="Path" class="cls-1" d="M250,284.1644,484.375,148.8481,257.8124,18.0422,23.4375,153.3586Z"/>
    <path id="Path-2" data-name="Path" class="exterior-L-prim" d="M468.75,148.8479,253.9062,24.808V15.7869L476.5623,144.3375Z"/>
    <path id="Path-3" data-name="Path" class="cls-2" d="M476.5623,144.3375l7.8125-4.5107L253.9062,6.7658v9.0211Z"/>
    <g class="cls-3">
      <path id="Path-4" data-name="Path" class="cls-4" d="M492.1873,139.8268,253.9062,2.2552V6.7658l230.4686,133.061Z"/>
    </g>
    <path id="Path-5" data-name="Path" class="cls-2" d="M246.0937,20.2973l7.8125-4.51V6.7658l-15.625,9.0211Z"/>
    <g class="cls-3">
      <path id="Path-6" data-name="Path" class="cls-4" d="M253.9062,2.2552,234.3749,13.5316l3.9063,2.2553,15.625-9.0211Z"/>
    </g>
    <path id="Path-7" data-name="Path" class="cls-5" d="M265.6249,22.5527v9.0211l-7.8125-4.51Z"/>
    <g id="Group-2" data-name="Group">
      <path id="Path-8" data-name="Path" class="cls-6" d="M258.5957,51.6731l18.2278,10.5238,4.557-2.631L263.1527,49.0422Z"/>
      <g id="Group-3" data-name="Group">
        <g id="Group-4" data-name="Group">
          <path id="Compound_Shape" data-name="Compound Shape" class="cls-7" d="M264.6716,51.9267h0c0,.4841-.6806.8771-1.5189.8771s-1.519-.393-1.519-.8771h0V44.911h3.0379v7.0157Z"/>
          <ellipse id="Ellipse" class="cls-8" cx="263.1527" cy="33.8797" rx="9.1139" ry="12.2778"/>
        </g>
        <g id="Group-5" data-name="Group">
          <path id="Compound_Shape-2" data-name="Compound Shape" class="cls-9" d="M278.3425,59.82h0c0,.4839-.6806.8769-1.519.8769s-1.5189-.393-1.5189-.8769h0V52.8038h3.0379V59.82Z"/>
          <ellipse id="Ellipse-2" data-name="Ellipse" class="cls-10" cx="276.8235" cy="41.7726" rx="9.1139" ry="12.2778"/>
        </g>
      </g>
    </g>
    <path id="Path-9" data-name="Path" class="cls-11" d="M39.0625,135.3164l70.3125,40.595V139.827L39.0625,99.232Z"/>
    <path id="Path-10" data-name="Path" class="cls-12" d="M210.9374,0,281.25,40.5948,109.375,139.827,39.0625,99.232Z"/>
    <path id="Path-11" data-name="Path" class="cls-13" d="M109.375,175.9114,281.25,76.6792V40.5948L109.375,139.827Z"/>
    <path id="Path-12" data-name="Path" class="cls-1" d="M261.7187,87.9556,117.1875,171.4008V144.3375L261.7187,60.8924Z"/>
    <path id="Path-13" data-name="Path" class="cls-14" d="M238.2812,74.424l23.4375-13.5316V87.9556Z"/>
    <path id="Path-14" data-name="Path" class="exterior-R-prim" d="M46.875,139.8268v-9.0211l-31.25,18.0422,7.8125,4.5107Z"/>
    <g id="Group-6" data-name="Group">
      <g id="Group-7" data-name="Group">
        <path id="Path-15" data-name="Path" class="cls-15" d="M134.8143,208.66l-3.9062-2.2553,3.9062-2.2554,3.9063,2.2554Z"/>
        <path id="Path-16" data-name="Path" class="cls-16" d="M142.627,199.6393l-7.8125,4.51,3.9062,2.2554,7.8125-4.5106Z"/>
      </g>
      <g id="Group-8" data-name="Group">
        <path id="Path-17" data-name="Path" class="cls-15" d="M181.494,235.6135l-3.9063-2.2553,3.9063-2.2553,3.9062,2.2553Z"/>
        <path id="Path-18" data-name="Path" class="cls-16" d="M189.3067,226.5925l-7.8125,4.51,3.9062,2.2553,7.8125-4.5106Z"/>
      </g>
      <g id="Group-9" data-name="Group">
        <path id="Path-19" data-name="Path" class="cls-15" d="M212.8416,253.68l-3.9062-2.2553,3.9062-2.2553,3.9063,2.2553Z"/>
        <path id="Path-20" data-name="Path" class="cls-16" d="M220.6543,244.6589l-7.8125,4.51,3.9063,2.2553,7.8125-4.5106Z"/>
      </g>
      <g id="Group-10" data-name="Group">
        <path id="Path-21" data-name="Path" class="cls-15" d="M158.2518,222.192l-3.9063-2.2553,3.9063-2.2552,3.9062,2.2552Z"/>
        <path id="Path-22" data-name="Path" class="cls-16" d="M166.0645,213.1708l-7.8125,4.5107,3.9062,2.2552,7.8125-4.5105Z"/>
      </g>
      <g id="Group-11" data-name="Group">
        <path id="Path-23" data-name="Path" class="cls-15" d="M189.5994,240.2584l-3.9062-2.2553,3.9062-2.2552,3.9063,2.2552Z"/>
        <path id="Path-24" data-name="Path" class="cls-16" d="M197.4121,231.2372,189.6,235.7479l3.9063,2.2552,7.8125-4.51Z"/>
      </g>
      <g id="Group-12" data-name="Group">
        <path id="Path-25" data-name="Path" class="cls-15" d="M142.6268,213.1708l-3.9062-2.2552,3.9062-2.2552,3.9063,2.2552Z"/>
        <path id="Path-26" data-name="Path" class="cls-16" d="M150.44,204.15,142.627,208.66l3.9062,2.2552,7.8125-4.5105Z"/>
      </g>
      <g id="Group-13" data-name="Group">
        <path id="Path-27" data-name="Path" class="cls-15" d="M166.0643,226.7026l-3.9063-2.2553,3.9063-2.2553,3.9062,2.2553Z"/>
        <path id="Path-28" data-name="Path" class="cls-16" d="M173.877,217.6815l-7.8125,4.5105,3.9062,2.2553,7.8125-4.5106Z"/>
      </g>
      <g id="Group-14" data-name="Group">
        <path id="Path-29" data-name="Path" class="cls-15" d="M197.4119,244.769l-3.9062-2.2553,3.9062-2.2553,3.9063,2.2553Z"/>
        <path id="Path-30" data-name="Path" class="cls-16" d="M205.2246,235.7479l-7.8125,4.5105,3.9063,2.2553,7.8125-4.5106Z"/>
      </g>
      <g id="Group-15" data-name="Group">
        <path id="Path-31" data-name="Path" class="cls-15" d="M127.002,199.6393l3.9062,2.2552L127.002,204.15l-3.9062-2.2552Z"/>
        <path id="Path-32" data-name="Path" class="cls-16" d="M138.7207,197.384l-7.8125,4.5105-3.9062-2.2552,7.8125-4.5106Z"/>
      </g>
      <g id="Group-16" data-name="Group">
        <path id="Path-33" data-name="Path" class="cls-15" d="M173.6817,226.5925l3.9062,2.2551-3.9062,2.2553-3.9063-2.2553Z"/>
        <path id="Path-34" data-name="Path" class="cls-16" d="M185.4,224.3371l-7.8125,4.5105-3.9062-2.2551,7.8125-4.5107Z"/>
      </g>
      <g id="Group-17" data-name="Group">
        <path id="Path-35" data-name="Path" class="cls-15" d="M205.0293,244.6589l3.9063,2.2551-3.9063,2.2553-3.9062-2.2553Z"/>
        <path id="Path-36" data-name="Path" class="cls-16" d="M216.7481,242.4035l-7.8125,4.51-3.9063-2.2551,7.8125-4.5107Z"/>
      </g>
      <g id="Group-18" data-name="Group">
        <path id="Path-37" data-name="Path" class="cls-15" d="M150.44,213.1708l3.9062,2.2554-3.9062,2.2553-3.9063-2.2553Z"/>
        <path id="Path-38" data-name="Path" class="cls-16" d="M162.1582,210.9156l-7.8125,4.5106-3.9062-2.2554,7.8125-4.5106Z"/>
      </g>
    </g>
    <g id="Group-19" data-name="Group">
      <g id="Group-20" data-name="Group">
        <path id="Path-39" data-name="Path" class="cls-15" d="M326.123,89.1217l-3.9062-2.2554,3.9062-6.7657,3.9063,2.2552Z"/>
        <path id="Path-40" data-name="Path" class="cls-16" d="M318.3105,93.6322l7.8125-4.51-3.9062-2.2554-7.8125,4.5105Z"/>
      </g>
      <g id="Group-21" data-name="Group">
        <path id="Path-41" data-name="Path" class="cls-15" d="M349.5605,102.6533l-3.9062-2.2552,3.9062-6.7659,3.9063,2.2553Z"/>
        <path id="Path-42" data-name="Path" class="cls-16" d="M341.748,107.1639l7.8125-4.5106-3.9062-2.2552-7.8125,4.5105Z"/>
      </g>
      <g id="Group-22" data-name="Group">
        <path id="Path-43" data-name="Path" class="cls-15" d="M372.998,116.185l-3.9062-2.2553,3.9062-6.7658,3.9062,2.2553Z"/>
        <path id="Path-44" data-name="Path" class="cls-16" d="M365.1855,120.6954l7.8125-4.51-3.9062-2.2553-7.8125,4.5106Z"/>
      </g>
      <g id="Group-23" data-name="Group">
        <path id="Path-45" data-name="Path" class="cls-15" d="M333.9355,93.6322l-3.9062-2.2554,3.9062-6.7657,3.9063,2.2552Z"/>
        <path id="Path-46" data-name="Path" class="cls-16" d="M326.123,98.1428l7.8125-4.5106-3.9062-2.2554-7.8125,4.5107Z"/>
      </g>
      <g id="Group-24" data-name="Group">
        <path id="Path-47" data-name="Path" class="cls-15" d="M357.373,107.1639l-3.9062-2.2553,3.9062-6.7658,3.9063,2.2553Z"/>
        <path id="Path-48" data-name="Path" class="cls-16" d="M349.5605,111.6744l7.8125-4.5105-3.9062-2.2553-7.8125,4.5106Z"/>
      </g>
      <g id="Group-25" data-name="Group">
        <path id="Path-49" data-name="Path" class="cls-15" d="M380.8105,120.6954l-3.9063-2.2551,3.9063-6.7659,3.9062,2.2553Z"/>
        <path id="Path-50" data-name="Path" class="cls-16" d="M372.998,125.206l7.8125-4.5106-3.9063-2.2551-7.8124,4.5105Z"/>
      </g>
      <g id="Group-26" data-name="Group">
        <path id="Path-51" data-name="Path" class="cls-15" d="M388.623,125.206l-3.9063-2.2552,3.9063-6.7658,3.9062,2.2553Z"/>
        <path id="Path-52" data-name="Path" class="cls-16" d="M380.8105,129.7165l7.8125-4.51-3.9063-2.2552-7.8125,4.5106Z"/>
      </g>
      <g id="Group-27" data-name="Group">
        <path id="Path-53" data-name="Path" class="cls-15" d="M396.4355,129.7165l-3.9063-2.2551,3.9063-6.766,3.9062,2.2554Z"/>
        <path id="Path-54" data-name="Path" class="cls-16" d="M388.623,134.2271l7.8125-4.5106-3.9063-2.2551-7.8125,4.5105Z"/>
      </g>
      <g id="Group-28" data-name="Group">
        <path id="Path-55" data-name="Path" class="cls-15" d="M404.248,134.2271l-3.9063-2.2552,3.9063-6.7659,3.9062,2.2554Z"/>
        <path id="Path-56" data-name="Path" class="cls-16" d="M396.4355,138.7376l7.8125-4.51-3.9063-2.2552-7.8125,4.5106Z"/>
      </g>
      <g id="Group-29" data-name="Group">
        <path id="Path-57" data-name="Path" class="cls-15" d="M341.748,98.1428l-3.9062-2.2553,3.9062-6.7658,3.9063,2.2553Z"/>
        <path id="Path-58" data-name="Path" class="cls-16" d="M333.9355,102.6533l7.8125-4.5105-3.9062-2.2553-7.8125,4.5106Z"/>
      </g>
      <g id="Group-30" data-name="Group">
        <path id="Path-59" data-name="Path" class="cls-15" d="M365.1855,111.6744l-3.9062-2.2552,3.9062-6.7659,3.9063,2.2553Z"/>
        <path id="Path-60" data-name="Path" class="cls-16" d="M357.373,116.185l7.8125-4.5106-3.9062-2.2552-7.8125,4.51Z"/>
      </g>
    </g>
    <g id="Group-31" data-name="Group">
      <g id="Group-32" data-name="Group">
        <path id="Path-61" data-name="Path" class="cls-16" d="M236.2793,242.48l7.8125,4.51,3.9062-2.2552-7.8124-4.5106Z"/>
        <path id="Path-62" data-name="Path" class="cls-15" d="M247.998,249.246l3.9063-2.2553-3.9063-2.2552-3.9062,2.2552Z"/>
      </g>
      <g id="Group-33" data-name="Group">
        <path id="Path-63" data-name="Path" class="cls-16" d="M259.7168,228.9485l7.8125,4.5107,3.9062-2.2554-7.8125-4.51Z"/>
        <path id="Path-64" data-name="Path" class="cls-15" d="M271.4355,235.7144l3.9063-2.2552-3.9063-2.2554-3.9062,2.2554Z"/>
      </g>
      <g id="Group-34" data-name="Group">
        <g id="Group-35" data-name="Group">
          <path id="Path-65" data-name="Path" class="cls-16" d="M244.0918,237.97l7.8125,4.5107,3.9062-2.2554-7.8125-4.51Z"/>
          <path id="Path-66" data-name="Path" class="cls-15" d="M255.8105,244.7355l3.9063-2.2552-3.9063-2.2554-3.9062,2.2554Z"/>
        </g>
      </g>
      <g id="Group-36" data-name="Group">
        <g id="Group-37" data-name="Group">
          <path id="Path-67" data-name="Path" class="cls-16" d="M267.5293,224.4381l7.8125,4.51,3.9062-2.2551-7.8125-4.5106Z"/>
          <path id="Path-68" data-name="Path" class="cls-15" d="M279.248,231.2038l3.9063-2.2553-3.9063-2.2551-3.9062,2.2551Z"/>
        </g>
      </g>
      <g id="Group-38" data-name="Group">
        <g id="Group-39" data-name="Group">
          <path id="Path-69" data-name="Path" class="cls-16" d="M251.9043,233.4592l7.8125,4.51,3.9062-2.2552-7.8125-4.5106Z"/>
          <path id="Path-70" data-name="Path" class="cls-15" d="M263.623,240.2249l3.9063-2.2553-3.9063-2.2552-3.9062,2.2552Z"/>
        </g>
      </g>
      <g id="Group-40" data-name="Group">
        <g id="Group-41" data-name="Group">
          <path id="Path-71" data-name="Path" class="cls-16" d="M275.3418,219.9274l7.8125,4.5107,3.9062-2.2553-7.8125-4.51Z"/>
          <path id="Path-72" data-name="Path" class="cls-15" d="M287.0605,226.6934l3.9063-2.2553-3.9063-2.2553-3.9062,2.2553Z"/>
        </g>
      </g>
    </g>
    <g id="Group-42" data-name="Group">
      <g id="Group-43" data-name="Group">
        <path id="Path-73" data-name="Path" class="cls-16" d="M253.9062,252.5906l7.8125,4.5106,3.9062-2.2553-7.8125-4.5105Z"/>
        <path id="Path-74" data-name="Path" class="cls-15" d="M265.6249,259.3565l3.9062-2.2553-3.9062-2.2553-3.9062,2.2553Z"/>
      </g>
      <g id="Group-44" data-name="Group">
        <path id="Path-75" data-name="Path" class="cls-16" d="M277.3436,239.059l7.8125,4.5105,3.9063-2.2552-7.8125-4.5107Z"/>
        <path id="Path-76" data-name="Path" class="cls-15" d="M289.0624,245.8248l3.9062-2.2553-3.9062-2.2552-3.9063,2.2552Z"/>
      </g>
      <g id="Group-45" data-name="Group">
        <g id="Group-46" data-name="Group">
          <path id="Path-77" data-name="Path" class="cls-16" d="M261.7187,248.08l7.8124,4.5105,3.9063-2.2552-7.8125-4.5106Z"/>
          <path id="Path-78" data-name="Path" class="cls-15" d="M273.4374,254.8459l3.9062-2.2553-3.9062-2.2552-3.9063,2.2552Z"/>
        </g>
      </g>
      <g id="Group-47" data-name="Group">
        <g id="Group-48" data-name="Group">
          <path id="Path-79" data-name="Path" class="cls-16" d="M285.1561,234.5484l7.8125,4.5106,3.9063-2.2554-7.8125-4.51Z"/>
          <path id="Path-80" data-name="Path" class="cls-15" d="M296.8749,241.3143l3.9062-2.2553-3.9062-2.2554-3.9063,2.2554Z"/>
        </g>
      </g>
      <g id="Group-49" data-name="Group">
        <g id="Group-50" data-name="Group">
          <path id="Path-81" data-name="Path" class="cls-16" d="M269.5311,243.57l7.8125,4.5106,3.9063-2.2553-7.8125-4.5105Z"/>
          <path id="Path-82" data-name="Path" class="cls-15" d="M281.25,250.3354l3.9062-2.2553-3.9062-2.2553-3.9063,2.2553Z"/>
        </g>
      </g>
      <g id="Group-51" data-name="Group">
        <g id="Group-52" data-name="Group">
          <path id="Path-83" data-name="Path" class="cls-16" d="M292.9686,230.0379l7.8125,4.51,3.9063-2.2552-7.8125-4.5107Z"/>
          <path id="Path-84" data-name="Path" class="cls-15" d="M304.6874,236.8036l3.9062-2.2552-3.9062-2.2552-3.9063,2.2552Z"/>
        </g>
      </g>
    </g>
    <g id="Group-53" data-name="Group">
      <g id="Group-54" data-name="Group">
        <path id="Path-85" data-name="Path" class="cls-16" d="M166.0156,125.1676l-7.8125-4.51-3.9063,2.2552,7.8125,4.5106Z"/>
      </g>
      <g id="Group-55" data-name="Group">
        <path id="Path-86" data-name="Path" class="cls-16" d="M142.5781,138.6994l-7.8125-4.5107-3.9063,2.2553,7.8125,4.5105Z"/>
      </g>
      <g id="Group-56" data-name="Group">
        <g id="Group-57" data-name="Group">
          <path id="Path-87" data-name="Path" class="cls-16" d="M158.2031,129.6783l-7.8125-4.5107-3.9063,2.2554,7.8125,4.51Z"/>
        </g>
      </g>
      <g id="Group-58" data-name="Group">
        <g id="Group-59" data-name="Group">
          <path id="Path-88" data-name="Path" class="cls-16" d="M134.7656,143.21l-7.8125-4.51-3.9063,2.2551,7.8125,4.5106Z"/>
        </g>
      </g>
      <g id="Group-60" data-name="Group">
        <g id="Group-61" data-name="Group">
          <path id="Path-89" data-name="Path" class="cls-16" d="M150.3906,134.1887l-7.8125-4.51-3.9063,2.2551,7.8125,4.5106Z"/>
        </g>
      </g>
      <g id="Group-62" data-name="Group">
        <g id="Group-63" data-name="Group">
          <path id="Path-90" data-name="Path" class="cls-16" d="M126.9531,147.7205l-7.8125-4.5107-1.9531,1.1277v2.2553l5.8593,3.3828Z"/>
        </g>
      </g>
    </g>
    <g id="Group-64" data-name="Group">
      <g id="Group-65" data-name="Group">
        <path id="Path-91" data-name="Path" class="cls-16" d="M212.8905,98.1043l-7.8125-4.51-3.9062,2.2552,7.8125,4.5107Z"/>
      </g>
      <g id="Group-66" data-name="Group">
        <g id="Group-67" data-name="Group">
          <path id="Path-92" data-name="Path" class="cls-16" d="M228.5155,89.0833l-7.8125-4.51-3.9062,2.2551,7.8125,4.5107Z"/>
        </g>
      </g>
      <g id="Group-68" data-name="Group">
        <g id="Group-69" data-name="Group">
          <path id="Path-93" data-name="Path" class="cls-16" d="M205.078,102.6149l-7.8125-4.5106-3.9062,2.2554,7.8125,4.51Z"/>
        </g>
      </g>
      <g id="Group-70" data-name="Group">
        <g id="Group-71" data-name="Group">
          <path id="Path-94" data-name="Path" class="cls-16" d="M220.703,93.5938l-7.8125-4.5105-3.9062,2.2553,7.8125,4.51Z"/>
        </g>
      </g>
      <g id="Group-72" data-name="Group">
        <g id="Group-73" data-name="Group">
          <path id="Path-95" data-name="Path" class="cls-16" d="M197.2655,107.1254l-7.8124-4.51-3.9063,2.2552,7.8125,4.5107Z"/>
        </g>
      </g>
    </g>
    <g id="Group-74" data-name="Group">
      <g id="Group-75" data-name="Group">
        <path id="Path-96" data-name="Path" class="cls-16" d="M330.0293,188.3537l7.8125,4.5105,3.9062-2.2552-7.8125-4.5106Z"/>
        <path id="Path-97" data-name="Path" class="cls-15" d="M341.748,195.12l3.9063-2.2553-3.9063-2.2552-3.9062,2.2552Z"/>
      </g>
      <g id="Group-76" data-name="Group">
        <path id="Path-98" data-name="Path" class="cls-16" d="M306.5918,201.8852l7.8125,4.5106,3.9062-2.2552L310.498,199.63Z"/>
        <path id="Path-99" data-name="Path" class="cls-15" d="M318.3105,208.6512l3.9063-2.2554-3.9063-2.2552-3.9062,2.2552Z"/>
      </g>
      <g id="Group-77" data-name="Group">
        <g id="Group-78" data-name="Group">
          <path id="Path-100" data-name="Path" class="cls-16" d="M290.9668,210.9063l7.8125,4.5106,3.9062-2.2552-7.8125-4.5105Z"/>
          <path id="Path-101" data-name="Path" class="cls-15" d="M302.6855,217.6723l3.9063-2.2554-3.9063-2.2552-3.9062,2.2552Z"/>
        </g>
      </g>
      <g id="Group-79" data-name="Group">
        <g id="Group-80" data-name="Group">
          <path id="Path-102" data-name="Path" class="cls-16" d="M314.4043,197.3747l7.8125,4.5105,3.9062-2.2551-7.8125-4.5106Z"/>
          <path id="Path-103" data-name="Path" class="cls-15" d="M326.123,204.1406l3.9063-2.2554L326.123,199.63l-3.9062,2.2551Z"/>
        </g>
      </g>
      <g id="Group-81" data-name="Group">
        <g id="Group-82" data-name="Group">
          <path id="Path-104" data-name="Path" class="cls-16" d="M298.7793,206.3958l7.8125,4.51,3.9062-2.2551-7.8125-4.5106Z"/>
          <path id="Path-105" data-name="Path" class="cls-15" d="M310.498,213.1617l3.9063-2.2554-3.9063-2.2551-3.9062,2.2551Z"/>
        </g>
      </g>
      <g id="Group-83" data-name="Group">
        <g id="Group-84" data-name="Group">
          <path id="Path-106" data-name="Path" class="cls-16" d="M322.2168,192.8642l7.8125,4.51,3.9062-2.2552-7.8125-4.51Z"/>
          <path id="Path-107" data-name="Path" class="cls-15" d="M333.9355,199.63l3.9063-2.2554-3.9063-2.2552-3.9062,2.2552Z"/>
        </g>
      </g>
    </g>
    <g id="Group-85" data-name="Group">
      <g id="Group-86" data-name="Group">
        <path id="Path-108" data-name="Path" class="cls-16" d="M347.6561,198.464l7.8125,4.5106,3.9063-2.2553-7.8125-4.5106Z"/>
        <path id="Path-109" data-name="Path" class="cls-15" d="M359.3749,205.23l3.9062-2.2552-3.9062-2.2553-3.9063,2.2553Z"/>
      </g>
      <g id="Group-87" data-name="Group">
        <path id="Path-110" data-name="Path" class="cls-16" d="M324.2186,211.9957l7.8125,4.5105,3.9063-2.2553-7.8125-4.5105Z"/>
        <path id="Path-111" data-name="Path" class="cls-15" d="M335.9374,218.7615l3.9062-2.2553-3.9062-2.2553-3.9063,2.2553Z"/>
      </g>
      <g id="Group-88" data-name="Group">
        <g id="Group-89" data-name="Group">
          <path id="Path-112" data-name="Path" class="cls-16" d="M308.5936,221.0168l7.8125,4.5105,3.9063-2.2553-7.8125-4.51Z"/>
          <path id="Path-113" data-name="Path" class="cls-15" d="M320.3124,227.7825l3.9062-2.2552-3.9062-2.2553-3.9063,2.2553Z"/>
        </g>
      </g>
      <g id="Group-90" data-name="Group">
        <g id="Group-91" data-name="Group">
          <path id="Path-114" data-name="Path" class="cls-16" d="M332.0311,207.4851l7.8125,4.5106L343.75,209.74l-7.8125-4.5106Z"/>
          <path id="Path-115" data-name="Path" class="cls-15" d="M343.75,214.2509l3.9062-2.2552L343.75,209.74l-3.9063,2.2553Z"/>
        </g>
      </g>
      <g id="Group-92" data-name="Group">
        <g id="Group-93" data-name="Group">
          <path id="Path-116" data-name="Path" class="cls-16" d="M316.4061,216.5062l7.8125,4.5106,3.9063-2.2553-7.8125-4.5106Z"/>
          <path id="Path-117" data-name="Path" class="cls-15" d="M328.1249,223.272l3.9062-2.2552-3.9062-2.2553-3.9063,2.2553Z"/>
        </g>
      </g>
      <g id="Group-94" data-name="Group">
        <g id="Group-95" data-name="Group">
          <path id="Path-118" data-name="Path" class="cls-16" d="M339.8436,202.9744l7.8125,4.5107,3.9063-2.2553-7.8125-4.5105Z"/>
          <path id="Path-119" data-name="Path" class="cls-15" d="M351.5624,209.74l3.9062-2.2553-3.9062-2.2553-3.9063,2.2553Z"/>
        </g>
      </g>
    </g>
    <g id="Group-96" data-name="Group">
      <g id="Group-97" data-name="Group">
        <path id="Path-120" data-name="Path" class="cls-16" d="M376.9042,161.29l7.8125,4.5105,3.9063-2.2552-7.8125-4.5106Z"/>
        <path id="Path-121" data-name="Path" class="cls-15" d="M388.623,168.0562l3.9062-2.2553-3.9062-2.2552-3.9063,2.2552Z"/>
      </g>
      <g id="Group-98" data-name="Group">
        <path id="Path-122" data-name="Path" class="cls-16" d="M353.4668,174.822l7.8125,4.5106,3.9062-2.2553-7.8125-4.5105Z"/>
        <path id="Path-123" data-name="Path" class="cls-15" d="M365.1855,181.5879l3.9063-2.2553-3.9063-2.2553-3.9062,2.2553Z"/>
      </g>
      <g id="Group-99" data-name="Group">
        <g id="Group-100" data-name="Group">
          <path id="Path-124" data-name="Path" class="cls-16" d="M384.7167,156.78l7.8125,4.5106,3.9063-2.2553-7.8125-4.5105Z"/>
          <path id="Path-125" data-name="Path" class="cls-15" d="M396.4355,163.5457l3.9062-2.2553-3.9062-2.2553-3.9063,2.2553Z"/>
        </g>
      </g>
      <g id="Group-101" data-name="Group">
        <g id="Group-102" data-name="Group">
          <path id="Path-126" data-name="Path" class="cls-16" d="M361.2793,170.3115l7.8125,4.5105,3.9062-2.2552-7.8125-4.5106Z"/>
          <path id="Path-127" data-name="Path" class="cls-15" d="M372.998,177.0773l3.9062-2.2553-3.9062-2.2552-3.9062,2.2552Z"/>
        </g>
      </g>
      <g id="Group-103" data-name="Group">
        <g id="Group-104" data-name="Group">
          <path id="Path-128" data-name="Path" class="cls-16" d="M345.6543,179.3326l7.8125,4.51,3.9062-2.2552-7.8125-4.5106Z"/>
          <path id="Path-129" data-name="Path" class="cls-15" d="M357.373,186.0984l3.9063-2.2553-3.9063-2.2552-3.9062,2.2552Z"/>
        </g>
      </g>
      <g id="Group-105" data-name="Group">
        <g id="Group-106" data-name="Group">
          <path id="Path-130" data-name="Path" class="cls-16" d="M369.0918,165.8009l7.8124,4.5106,3.9063-2.2553-7.8125-4.51Z"/>
          <path id="Path-131" data-name="Path" class="cls-15" d="M380.8105,172.5668l3.9062-2.2553-3.9062-2.2553-3.9063,2.2553Z"/>
        </g>
      </g>
    </g>
    <g id="Group-107" data-name="Group">
      <g id="Group-108" data-name="Group">
        <path id="Path-132" data-name="Path" class="cls-16" d="M394.5311,171.4008l7.8125,4.51,3.9062-2.2552-7.8125-4.5106Z"/>
        <path id="Path-133" data-name="Path" class="cls-15" d="M406.25,178.1665l3.9063-2.2553L406.25,173.656l-3.9062,2.2552Z"/>
      </g>
      <g id="Group-109" data-name="Group">
        <path id="Path-134" data-name="Path" class="cls-16" d="M371.0936,184.9323l7.8125,4.5106,3.9063-2.2553L375,182.6771Z"/>
        <path id="Path-135" data-name="Path" class="cls-15" d="M382.8124,191.6982l3.9062-2.2553-3.9062-2.2553-3.9063,2.2553Z"/>
      </g>
      <g id="Group-110" data-name="Group">
        <g id="Group-111" data-name="Group">
          <path id="Path-136" data-name="Path" class="cls-16" d="M402.3436,166.89l7.8125,4.5107,3.9062-2.2554-7.8125-4.5105Z"/>
          <path id="Path-137" data-name="Path" class="cls-15" d="M414.0623,173.656l3.9063-2.2552-3.9063-2.2554-3.9062,2.2554Z"/>
        </g>
      </g>
      <g id="Group-112" data-name="Group">
        <g id="Group-113" data-name="Group">
          <path id="Path-138" data-name="Path" class="cls-16" d="M378.9061,180.4219l7.8125,4.51,3.9063-2.2552-7.8125-4.5106Z"/>
          <path id="Path-139" data-name="Path" class="cls-15" d="M390.6249,187.1876l3.9062-2.2553-3.9062-2.2552-3.9063,2.2552Z"/>
        </g>
      </g>
      <g id="Group-114" data-name="Group">
        <g id="Group-115" data-name="Group">
          <path id="Path-140" data-name="Path" class="cls-16" d="M363.2811,189.4429l7.8125,4.51L375,191.6982l-7.8125-4.5106Z"/>
          <path id="Path-141" data-name="Path" class="cls-15" d="M375,196.2087l3.9062-2.2554L375,191.6982l-3.9063,2.2551Z"/>
        </g>
      </g>
      <g id="Group-116" data-name="Group">
        <g id="Group-117" data-name="Group">
          <path id="Path-142" data-name="Path" class="cls-16" d="M386.7186,175.9112l7.8125,4.5107,3.9062-2.2554-7.8124-4.5105Z"/>
          <path id="Path-143" data-name="Path" class="cls-15" d="M398.4373,182.6771l3.9063-2.2552-3.9063-2.2554-3.9062,2.2554Z"/>
        </g>
      </g>
    </g>
    <g class="cls-3">
      <path id="Path-144" data-name="Path" class="cls-2" d="M250,288.6751l242.1874-139.827V139.827L250,279.654Z"/>
    </g>
    <g class="cls-3">
      <path id="Path-145" data-name="Path" class="cls-4" d="M484.3748,139.827h7.8125L250,279.654v-4.5107Z"/>
    </g>
    <g class="cls-3">
      <path id="Path-146" data-name="Path" class="cls-2" d="M7.8125,148.8479v-9.0211L250,279.654v9.0211Z"/>
    </g>
    <path id="Path-147" data-name="Path" class="cls-15" d="M191.4062,133.0611l-27.3438-15.7869,15.625-9.0211L207.0312,124.04Z"/>
    <g class="cls-3">
      <path id="Path-148" data-name="Path" class="cls-4" d="M250,275.1433,15.625,139.8268H7.8125L250,279.654Z"/>
    </g>
    <g class="cls-3">
      <path id="Path-149" data-name="Path" class="cls-2" d="M46.875,130.8059v-9.0211l-31.25,18.042,7.8125,4.5107"/>
    </g>
    <g class="cls-3">
      <path id="Path-150" data-name="Path" class="cls-4" d="M7.8125,139.8268,42.9687,119.53l3.9063,2.2553-31.25,18.042Z"/>
    </g>
    <g id="Group-118" data-name="Group">
      <path id="Path-151" data-name="Path" class="cls-6" d="M55.3381,158.6216l18.2278,10.5238,4.557-2.6309L59.8951,155.9907Z"/>
      <g id="Group-119" data-name="Group">
        <g id="Group-120" data-name="Group">
          <path id="Compound_Shape-3" data-name="Compound Shape" class="cls-17" d="M61.414,158.8753h0c0,.484-.6806.877-1.5189.877s-1.519-.393-1.519-.877h0V151.86H61.414v7.0158Z"/>
          <ellipse id="Ellipse-3" data-name="Ellipse" class="cls-18" cx="59.8951" cy="140.8284" rx="9.1139" ry="12.2778"/>
        </g>
        <g id="Group-121" data-name="Group">
          <path id="Compound_Shape-4" data-name="Compound Shape" class="cls-19" d="M75.085,166.7682h0c0,.4839-.6806.8769-1.5191.8769s-1.5189-.393-1.5189-.8769h0v-7.0159h3.038v7.0159Z"/>
          <ellipse id="Ellipse-4" data-name="Ellipse" class="cls-20" cx="73.5659" cy="148.7212" rx="9.1139" ry="12.2778"/>
        </g>
      </g>
    </g>
    <g id="Group-122" data-name="Group">
      <path id="Path-152" data-name="Path" class="cls-21" d="M154.2479,156.78l23.4375,13.5317-39.0625,22.5527,87.8906,50.7437,171.8751-99.232L310.498,93.6322,271.4355,116.185,247.998,102.6533Z"/>
      <path id="Path-153" data-name="Path" class="cls-22" d="M310.498,93.6322v9.0211L271.4355,125.206v-9.021Z"/>
      <path id="Path-154" data-name="Path" class="cls-23" d="M247.998,102.6533v9.0211l23.4375,13.5316v-9.021Z"/>
      <path id="Path-155" data-name="Path" class="cls-22" d="M162.06,161.29l85.9376-49.616v-9.0211l-93.75,54.1265Z"/>
      <path id="Path-156" data-name="Path" class="cls-22" d="M177.6854,170.3115v9.0211l-31.25,18.0421-7.8125-4.51Z"/>
      <path id="Path-157" data-name="Path" class="cls-23" d="M310.498,102.6533V93.6322l87.8906,50.7437-7.8125,4.51Z"/>
      <path id="Path-158" data-name="Path" class="cls-21" d="M193.31,134.2271l3.9062,2.2554,15.625-9.0211-3.9062-2.2554Z"/>
      <path id="Path-159" data-name="Path" class="cls-21" d="M197.2166,140.993l3.9063,2.2552,15.625-9.0211-3.9063-2.2552Z"/>
      <path id="Path-160" data-name="Path" class="cls-22" d="M197.2166,140.993v-4.5105l15.625-9.0211v4.5105Z"/>
      <path id="Path-161" data-name="Path" class="cls-22" d="M201.1229,143.2482v4.5105l15.625-9.0211v-4.51Z"/>
      <path id="Path-162" data-name="Path" class="cls-23" d="M193.31,143.2482l7.8125,4.5105v-4.5105l-3.9063-2.2552v-4.5105l-3.9062-2.2554Z"/>
      <g id="Group-123" data-name="Group">
        <path id="Path-163" data-name="Path" class="cls-16" d="M226.5137,245.8632v-2.2553l171.8749-99.232h3.9063Z"/>
        <path id="Path-164" data-name="Path" class="cls-16" d="M138.6229,192.8642h-3.9062l91.7968,52.999v-2.2553Z"/>
        <path id="Path-165" data-name="Path" class="cls-16" d="M310.498,93.6322V91.3768l91.7969,52.9991h-3.9063Z"/>
        <path id="Path-166" data-name="Path" class="cls-16" d="M134.7167,192.8642l39.0624-22.5527h3.9063l-39.0625,22.5527Z"/>
        <path id="Path-167" data-name="Path" class="cls-16" d="M154.2479,156.78h-3.9063l23.4375,13.5317h3.9063Z"/>
        <path id="Path-168" data-name="Path" class="cls-16" d="M271.4355,116.185V113.93L310.498,91.3768v2.2554Z"/>
        <path id="Path-169" data-name="Path" class="cls-16" d="M150.3416,156.78l97.6564-56.3817v2.2552l-93.75,54.1265Z"/>
        <path id="Path-170" data-name="Path" class="cls-16" d="M271.4355,113.93,247.998,100.3981v2.2552l23.4375,13.5317Z"/>
      </g>
      <path id="Path-171" data-name="Path" class="cls-24" d="M210.8885,144.3759v-4.5107l-13.6719-16.9144v4.5106"/>
    </g>
    <g id="Group-124" data-name="Group">
      <path id="Path-172" data-name="Path" class="cls-16" d="M261.7187,87.9556V85.7l-1.9532,1.1276v2.2554Z"/>
      <path id="Path-173" data-name="Path" class="cls-15" d="M259.7655,86.8279h0v2.2554l-1.9531-1.1277Z"/>
      <path id="Path-174" data-name="Path" class="cls-25" d="M253.9062,87.9556l7.8125-4.5107L242.1874,72.1687l-7.8125,4.51Z"/>
      <path id="Path-175" data-name="Path" class="cls-16" d="M261.7187,85.7V83.4449l-7.8125,4.5107v2.2553Z"/>
      <path id="Path-176" data-name="Path" class="cls-15" d="M234.3749,76.6792l-1.9531,1.1276,21.4844,12.4041V87.9556Z"/>
      <path id="Path-177" data-name="Path" class="cls-16" d="M255.8593,91.3386V89.0833l-1.9531,1.1276V92.466Z"/>
      <path id="Path-178" data-name="Path" class="cls-16" d="M248.0468,86.8279,246.0937,85.7v2.2553Z"/>
      <path id="Path-179" data-name="Path" class="cls-16" d="M240.2343,82.3367l-1.9531-1.1275v2.2552Z"/>
      <path id="Path-180" data-name="Path" class="cls-15" d="M248.0468,89.0833,250,90.2109V87.9556l-1.9531-1.1277Z"/>
      <path id="Path-181" data-name="Path" class="cls-15" d="M240.2343,84.5728,242.1874,85.7V83.4451l-1.9531-1.1276Z"/>
      <path id="Path-182" data-name="Path" class="cls-15" d="M232.4218,80.0815l1.9531,1.1277V78.9539l-1.9531-1.1276Z"/>
      <path id="Path-183" data-name="Path" class="cls-16" d="M251.953,89.0833,250,90.2109V87.9556Z"/>
      <path id="Path-184" data-name="Path" class="cls-16" d="M244.1405,84.5728,242.1874,85.7V83.4451Z"/>
      <path id="Path-185" data-name="Path" class="cls-16" d="M236.328,80.0815l-1.9531,1.1277V78.9539Z"/>
      <path id="Path-186" data-name="Path" class="cls-15" d="M253.9062,92.466l-1.9532-1.1274V89.0833l1.9532,1.1276Z"/>
      <path id="Path-187" data-name="Path" class="cls-15" d="M246.0937,87.9556l-1.9532-1.1277V84.5728L246.0937,85.7Z"/>
      <path id="Path-188" data-name="Path" class="cls-15" d="M238.2812,83.4644l-1.9532-1.1277V80.0815l1.9532,1.1277Z"/>
      <path id="Path-189" data-name="Path" class="cls-26" d="M253.9062,85.7V83.4449l3.9062-2.2551v2.2551Z"/>
      <path id="Path-190" data-name="Path" class="cls-27" d="M236.328,75.5516l1.9532-1.1277,15.625,9.021V85.7Z"/>
      <path id="Path-191" data-name="Path" class="cls-28" d="M257.8124,81.19l-15.625-9.0211-3.9062,2.2552,15.625,9.021Z"/>
    </g>
    <g id="Group-125" data-name="Group">
      <path id="Path-192" data-name="Path" class="cls-16" d="M125,166.89v-2.2554l-1.9532,1.1277v2.2553Z"/>
      <path id="Path-193" data-name="Path" class="cls-15" d="M123.0468,165.7626h0v2.2553l-1.9531-1.1276Z"/>
      <path id="Path-194" data-name="Path" class="cls-25" d="M117.1875,166.89,125,162.38l-7.8125-4.5105V166.89Z"/>
      <path id="Path-195" data-name="Path" class="cls-16" d="M125,164.6349V162.38l-7.8125,4.5106v2.2553Z"/>
      <path id="Path-196" data-name="Path" class="cls-16" d="M119.1406,170.273v-2.2551l-1.9531,1.1277v2.2552Z"/>
      <path id="Path-197" data-name="Path" class="cls-26" d="M117.1875,164.6349V162.38l3.9062-2.2552V162.38Z"/>
      <path id="Path-198" data-name="Path" class="cls-29" d="M121.0937,160.1245l-3.9062-2.2553V162.38h0Z"/>
    </g>
    <g id="Group-126" data-name="Group">
      <path id="Path-199" data-name="Path" class="cls-13" d="M50.7812,96.9767l62.5,36.0844,3.9063-2.2552-62.5-36.0845Z"/>
      <path id="Path-200" data-name="Path" class="cls-11" d="M54.6875,99.232V94.7214l-3.9063,2.2553Z"/>
    </g>
    <g id="Group-127" data-name="Group">
      <path id="Path-201" data-name="Path" class="cls-13" d="M113.2812,60.8924l62.5,36.0843,3.9062-2.2553-62.5-36.0844Z"/>
      <path id="Path-202" data-name="Path" class="cls-11" d="M117.1875,63.1476V58.637l-3.9063,2.2554Z"/>
    </g>
    <g id="Group-128" data-name="Group">
      <path id="Path-203" data-name="Path" class="cls-13" d="M82.0312,78.9345l62.5,36.0844,3.9062-2.2552-62.5-36.0845Z"/>
      <path id="Path-204" data-name="Path" class="cls-11" d="M85.9375,81.19V76.6792l-3.9063,2.2553Z"/>
    </g>
    <g id="Group-129" data-name="Group">
      <path id="Path-205" data-name="Path" class="cls-13" d="M144.5312,42.85l62.5,36.0843,3.9062-2.2553-62.5-36.0844Z"/>
      <path id="Path-206" data-name="Path" class="cls-11" d="M148.4374,45.1053v-4.51L144.5312,42.85Z"/>
    </g>
    <g id="Group-130" data-name="Group">
      <path id="Path-207" data-name="Path" class="cls-13" d="M66.4062,87.9556l62.5,36.0844,3.9062-2.2552L70.3125,85.7Z"/>
      <path id="Path-208" data-name="Path" class="cls-11" d="M70.3125,90.2109V85.7l-3.9063,2.2553Z"/>
    </g>
    <g id="Group-131" data-name="Group">
      <path id="Path-209" data-name="Path" class="cls-13" d="M128.9062,51.8713l62.5,36.0843,3.9062-2.2551-62.5-36.0846Z"/>
      <path id="Path-210" data-name="Path" class="cls-11" d="M132.8124,54.1265V49.6159l-3.9062,2.2554Z"/>
    </g>
    <g id="Group-132" data-name="Group">
      <path id="Path-211" data-name="Path" class="cls-13" d="M97.6562,69.9135l62.5,36.0843,3.9062-2.2551-62.5-36.0846Z"/>
      <path id="Path-212" data-name="Path" class="cls-11" d="M101.5625,72.1687V67.6581l-3.9063,2.2554Z"/>
    </g>
    <g id="Group-133" data-name="Group">
      <path id="Path-213" data-name="Path" class="cls-13" d="M160.1562,33.8291l62.5,36.0844,3.9062-2.2554-62.5-36.0843Z"/>
      <path id="Path-214" data-name="Path" class="cls-11" d="M164.0624,36.0843v-4.51l-3.9062,2.2553Z"/>
    </g>
    <g id="Group-134" data-name="Group">
      <path id="Path-215" data-name="Path" class="cls-13" d="M167.9687,29.3184l62.5,36.0846,3.9062-2.2554-62.5-36.0843Z"/>
      <path id="Path-216" data-name="Path" class="cls-11" d="M171.8749,31.5738v-4.51l-3.9062,2.2551Z"/>
    </g>
    <g id="Group-135" data-name="Group">
      <path id="Path-217" data-name="Path" class="cls-13" d="M183.5937,20.2973l62.5,36.0846L250,54.1265,187.5,18.0422Z"/>
      <path id="Path-218" data-name="Path" class="cls-11" d="M187.5,22.5527v-4.51l-3.9062,2.2551Z"/>
    </g>
    <g id="Group-136" data-name="Group">
      <path id="Path-219" data-name="Path" class="cls-13" d="M175.7812,24.808l62.5,36.0844,3.9062-2.2552-62.5-36.0845Z"/>
      <path id="Path-220" data-name="Path" class="cls-11" d="M179.6874,27.0632v-4.51l-3.9062,2.2553Z"/>
    </g>
    <g id="Group-137" data-name="Group">
      <path id="Path-221" data-name="Path" class="cls-13" d="M58.5937,92.4662l62.5,36.0844L125,126.2953,62.5,90.2109Z"/>
      <path id="Path-222" data-name="Path" class="cls-11" d="M62.5,94.7214V90.2109l-3.9063,2.2553Z"/>
    </g>
    <g id="Group-138" data-name="Group">
      <path id="Path-223" data-name="Path" class="cls-13" d="M121.0937,56.3819l62.5,36.0843L187.5,90.2109,125,54.1265Z"/>
      <path id="Path-224" data-name="Path" class="cls-11" d="M125,58.637v-4.51l-3.9063,2.2552Z"/>
    </g>
    <g id="Group-139" data-name="Group">
      <path id="Path-225" data-name="Path" class="cls-13" d="M89.8437,74.424l62.5,36.0844,3.9062-2.2553L93.75,72.1687Z"/>
      <path id="Path-226" data-name="Path" class="cls-11" d="M93.75,76.6792v-4.51L89.8437,74.424Z"/>
    </g>
    <g id="Group-140" data-name="Group">
      <path id="Path-227" data-name="Path" class="cls-13" d="M152.3437,38.34l62.5,36.0844,3.9062-2.2552-62.5-36.0844Z"/>
      <path id="Path-228" data-name="Path" class="cls-11" d="M156.25,40.5948v-4.51L152.3437,38.34Z"/>
    </g>
    <g id="Group-141" data-name="Group">
      <path id="Path-229" data-name="Path" class="cls-13" d="M74.2187,83.4451l62.5,36.0844,3.9062-2.2553L78.125,81.19Z"/>
      <path id="Path-230" data-name="Path" class="cls-11" d="M78.125,85.7V81.19l-3.9063,2.2553Z"/>
    </g>
    <g id="Group-142" data-name="Group">
      <path id="Path-231" data-name="Path" class="cls-13" d="M136.7187,47.3606l62.5,36.0845,3.9062-2.2553-62.5-36.0845Z"/>
      <path id="Path-232" data-name="Path" class="cls-11" d="M140.6249,49.6159V45.1053l-3.9062,2.2553Z"/>
    </g>
    <g id="Group-143" data-name="Group">
      <path id="Path-233" data-name="Path" class="cls-13" d="M105.4687,65.403l62.5,36.0843,3.9062-2.2553-62.5-36.0844Z"/>
      <path id="Path-234" data-name="Path" class="cls-11" d="M109.375,67.6581V63.1476l-3.9063,2.2554Z"/>
    </g>
    <path id="Path-235" data-name="Path" class="cls-30" d="M263.6718,84.5728V59.7646l13.6718-7.8933V76.6792Z"/>
    <line id="Path-236" data-name="Path" class="cls-31" x1="263.6718" y1="66.5305" x2="277.3436" y2="58.637"/>
    <line id="Path-237" data-name="Path" class="cls-31" x1="269.5311" y1="81.1898" x2="269.5311" y2="63.1476"/>
    <path id="Path-238" data-name="Path" class="cls-14" d="M279.2968,50.7436V77.8068l-1.9532-1.1276V51.8713Z"/>
    <path id="Path-239" data-name="Path" class="cls-1" d="M263.6718,86.8279V84.5728l13.6718-7.8936,1.9532,1.1276Z"/>
    <path id="Path-240" data-name="Path" class="exterior-R-prim" d="M253.9062,24.808V15.7869l-7.8125,4.51Z"/>
  </g>
</svg>
