<svg id="Layer_1" data-name="Layer 1" xmlns="http://www.w3.org/2000/svg" viewBox="0 0 500 288.6749">
  <defs>
    <style>
      .cls-1 {
        isolation: isolate;
        font-size: 31.2501px;
        font-family: OpenSans-Bold, Open Sans;
        font-weight: 700;
      }

      .cls-2 {
        fill: #e8e7e7;
      }

      .cls-3 {
        fill: #d1d1d1;
      }

      .cls-4 {
        fill: #8a8a8a;
      }

      .cls-5 {
        fill: #a1a0a0;
      }

      .cls-6 {
        fill: #78a785;
      }

      .cls-7 {
        fill: #b9b8b9;
      }

      .cls-8 {
        fill: #fff;
      }

      .cls-9 {
        fill: #eeca6c;
      }

      .cls-10 {
        fill: #5c8769;
      }
    </style>
  </defs>
  <title>Artboard 12</title>
  <g id="Group">
    <text class="cls-1" transform="translate(239.3899 156.278) rotate(0.1203)">8</text>
    <path id="Path" class="cls-2" d="M0,144.3375,250,0,500,144.3375,250,288.6749Z"/>
    <path id="Path-2" data-name="Path" class="cls-3" d="M250,9.0211,484.4905,144.3375,250.1155,279.6538,15.625,144.3375Z"/>
    <path id="Path-3" data-name="Path" class="cls-4" d="M250,9.0211V27.0633L468.8655,153.3586l15.51-9.0211Z"/>
    <path id="Path-4" data-name="Path" class="cls-5" d="M15.6826,144.3375,250.0577,9.0211V27.0633L31.3076,153.3586Z"/>
    <path id="Path-5" data-name="Path" class="cls-6" d="M289.0625,31.5737l-140.625,81.19,140.625,81.19,140.625-81.19Z"/>
    <path id="Path-6" data-name="Path" class="cls-4" d="M148.4375,112.7636v9.0211l140.625,81.19v-9.0211Z"/>
    <path id="Path-7" data-name="Path" class="cls-7" d="M429.6875,112.7636v9.0211l-140.625,81.19v-9.0211Z"/>
    <path id="Path-8" data-name="Path" class="cls-7" d="M421.875,126.2953l-3.9062,2.2553v18.0422l3.9062-2.2553Z"/>
    <g id="Group-2" data-name="Group">
      <path id="Path-9" data-name="Path" class="cls-4" d="M156.25,126.2953l3.9062,2.2553v18.0422l-3.9062-2.2553Z"/>
      <path id="Path-10" data-name="Path" class="cls-7" d="M164.0625,144.3375l-3.9063,2.2553V128.5506l3.9063,2.2552Z"/>
    </g>
    <g id="Group-3" data-name="Group">
      <path id="Path-11" data-name="Path" class="cls-4" d="M242.1875,175.9114l3.9063,2.2552v19.17l-3.9063-2.2554Z"/>
      <path id="Path-12" data-name="Path" class="cls-7" d="M250,193.9536l-3.9062,2.2552V178.1666L250,180.4218Z"/>
    </g>
    <g id="Group-4" data-name="Group">
      <path id="Path-13" data-name="Path" class="cls-7" d="M335.9375,175.9114l-3.9063,2.2552v18.0422l3.9063-2.2552Z"/>
      <path id="Path-14" data-name="Path" class="cls-4" d="M328.125,193.9536l3.9062,2.2552V178.1666l-3.9062,2.2552Z"/>
    </g>
    <g id="Group-5" data-name="Group">
      <path id="Path-15" data-name="Path" class="cls-4" d="M199.2188,151.1032l3.9062,2.2554v18.0421l-3.9062-2.2552Z"/>
      <path id="Path-16" data-name="Path" class="cls-7" d="M207.0312,169.1455l-3.9062,2.2552V153.3586l3.9062,2.2553Z"/>
    </g>
    <g id="Group-6" data-name="Group">
      <path id="Path-17" data-name="Path" class="cls-7" d="M378.9062,151.1032,375,153.3586v18.0421l3.9062-2.2552Z"/>
      <path id="Path-18" data-name="Path" class="cls-4" d="M371.0938,169.1455,375,171.4007V153.3586l-3.9062,2.2553Z"/>
    </g>
    <path id="Path-19" data-name="Path" class="cls-4" d="M414.0625,144.3375l3.9063,2.2553V128.5506l-3.9063,2.2553Z"/>
    <g id="Group-7" data-name="Group">
      <path id="Path-20" data-name="Path" class="cls-4" d="M285.1562,200.7194l3.9063,2.2553v18.0422l-3.9063-2.2554Z"/>
      <path id="Path-21" data-name="Path" class="cls-7" d="M292.9688,218.7615l-3.9063,2.2554V202.9747l3.9063-2.2553Z"/>
    </g>
    <path id="Path-22" data-name="Path" class="cls-8" d="M164.0625,112.7636l125-72.1687,125,72.1687-125,72.1689Z"/>
    <path id="Path-23" data-name="Path" class="cls-6" d="M289.0625,49.616l-109.375,63.1476,109.375,63.1478,109.375-63.1478Z"/>
    <path id="Path-24" data-name="Path" class="cls-7" d="M271.4844,224.4l1.9531-1.1276V200.7194l-1.9531,1.1276Z"/>
    <path id="Path-25" data-name="Path" class="cls-7" d="M253.9062,214.2509l1.9532-1.1275V190.5706l-1.9532,1.1277Z"/>
    <path id="Path-26" data-name="Path" class="cls-4" d="M269.5312,223.2721l1.9532,1.1276V201.847l-1.9532,1.1277Z"/>
    <path id="Path-27" data-name="Path" class="cls-4" d="M251.9531,213.1234l1.9531,1.1275V191.6983l-1.9531,1.1276Z"/>
    <path id="Path-28" data-name="Path" class="cls-9" d="M253.9062,92.4663h0c-19.4032,11.2023-19.4032,29.3923,0,40.5947h0c19.4033,11.2026,50.9093,11.2026,70.3126,0h0c19.4032-11.2024,19.4032-29.3924,0-40.5947h0C304.8155,81.2637,273.31,81.2637,253.9062,92.4663Z"/>
    <path id="Path-29" data-name="Path" class="cls-6" d="M261.7188,96.9767h0c-15.0915,8.7131-15.0915,22.8608,0,31.5739h0c15.0914,8.713,39.596,8.713,54.6874,0h0c15.0915-8.7131,15.0915-22.8608,0-31.5739h0C301.3148,88.2637,276.81,88.2637,261.7188,96.9767Z"/>
    <path id="Path-30" data-name="Path" class="cls-2" d="M251.9531,228.91l1.9531,1.1277,23.4376-38.34-1.9532-1.1277Z"/>
    <path id="Path-31" data-name="Path" class="cls-2" d="M234.375,218.7615l1.9531,1.1277,23.4375-38.34-1.9531-1.1277Z"/>
    <path id="Path-32" data-name="Path" class="cls-7" d="M277.3438,196.2088v-4.5105L255.8594,226.655v4.5106Z"/>
    <path id="Path-33" data-name="Path" class="cls-7" d="M259.7656,186.06V181.55l-21.4844,34.9567v4.5107Z"/>
    <g id="Group-8" data-name="Group">
      <g id="Group-9" data-name="Group">
        <path id="Path-34" data-name="Path" class="cls-8" d="M263.6719,110.5084l5.8593-3.3829L298.8281,124.04l-5.8593,3.383Z"/>
        <path id="Path-35" data-name="Path" class="cls-8" d="M279.2969,101.4874l5.8593-3.383,29.2969,16.9144-5.8593,3.383Z"/>
        <path id="Path-36" data-name="Path" class="cls-8" d="M275.3906,117.2742,296.875,104.87l5.8594,3.383L281.25,120.6572Z"/>
      </g>
    </g>
    <path id="Path-37" data-name="Path" class="cls-6" d="M281.25,193.9536l-3.9062,2.2552L250,180.4218l3.9062-2.2552Z"/>
    <path id="Path-38" data-name="Path" class="cls-6" d="M273.4375,207.4851l-3.9063,2.2553-27.3437-15.7868,3.9063-2.2553Z"/>
    <path id="Path-39" data-name="Path" class="cls-6" d="M265.6248,221.0169l-3.9062,2.2552-27.3438-15.787,3.9063-2.2552Z"/>
    <path id="Path-40" data-name="Path" class="cls-6" d="M277.3438,200.7194l-3.9063,2.2553-27.3437-15.787L250,184.9325Z"/>
    <path id="Path-41" data-name="Path" class="cls-6" d="M269.5312,214.2509l-3.9062,2.2553-27.3438-15.7868,3.9063-2.2554Z"/>
    <path id="Path-42" data-name="Path" class="cls-6" d="M261.7186,227.7826l-3.9063,2.2554-27.3437-15.7871,3.9062-2.2551Z"/>
    <path id="Path-43" data-name="Path" class="cls-7" d="M183.5938,223.272l46.875,27.0634,31.25-18.0422-27.3438-15.787-11.7188,6.7658L203.125,211.9958Z"/>
    <path id="Path-44" data-name="Path" class="cls-7" d="M257.8125,232.2931l3.9063-2.2551v-2.2554l-3.9063,2.2554Z"/>
    <path id="Path-45" data-name="Path" class="cls-7" d="M265.625,218.7615l3.9062-2.2553v-2.2553l-3.9062,2.2553Z"/>
    <path id="Path-46" data-name="Path" class="cls-7" d="M273.4375,205.23l3.9063-2.2552v-2.2553l-3.9063,2.2553Z"/>
    <path id="Path-47" data-name="Path" class="cls-7" d="M261.7188,225.5273l3.9062-2.2553v-2.2551l-3.9062,2.2551Z"/>
    <path id="Path-48" data-name="Path" class="cls-7" d="M269.5312,211.9958l3.9063-2.2554v-2.2553l-3.9063,2.2553Z"/>
    <path id="Path-49" data-name="Path" class="cls-7" d="M277.3438,198.464l3.9062-2.2552v-2.2552l-3.9062,2.2552Z"/>
    <path id="Path-50" data-name="Path" class="cls-4" d="M250,180.4218l27.3438,15.787v2.2552L250,182.6772Z"/>
    <path id="Path-51" data-name="Path" class="cls-4" d="M246.0938,187.1877l27.3437,15.787V205.23l-27.3437-15.787Z"/>
    <path id="Path-52" data-name="Path" class="cls-4" d="M242.1875,193.9536,269.5312,209.74v2.2554l-27.3437-15.787Z"/>
    <path id="Path-53" data-name="Path" class="cls-4" d="M238.2812,200.7194l27.3438,15.7868v2.2553l-27.3438-15.7868Z"/>
    <path id="Path-54" data-name="Path" class="cls-4" d="M234.375,207.4851l27.3438,15.7869v2.2553L234.375,209.74Z"/>
    <path id="Path-55" data-name="Path" class="cls-4" d="M230.4688,214.251l27.3437,15.787v2.2552l-27.3437-15.787Z"/>
    <path id="Path-56" data-name="Path" class="cls-10" d="M378.9062,110.5084l3.9063,2.2552-15.625,9.0211-3.9063-2.2552Z"/>
    <path id="Path-57" data-name="Path" class="cls-10" d="M210.9375,103.7425l3.9063,2.2553-15.625,9.021-3.9063-2.2552Z"/>
    <path id="Path-58" data-name="Path" class="cls-2" d="M156.25,130.8058l66.4062,38.34-46.875,27.0633-66.4062-38.34Z"/>
    <path id="Path-59" data-name="Path" class="cls-4" d="M175.7812,227.7826l-66.4062-38.34V157.8691l66.4062,38.34Z"/>
    <path id="Path-60" data-name="Path" class="cls-5" d="M175.7812,196.2088v31.5738l46.875-27.0632V169.1455Z"/>
    <path id="Path-61" data-name="Path" class="cls-7" d="M125,157.8691l50.7812,29.3186,31.25-18.0422L156.25,139.8269Z"/>
    <path id="Path-62" data-name="Path" class="cls-5" d="M156.25,139.827v4.5105l-27.3438,15.7868L125,157.8691Z"/>
    <path id="Path-63" data-name="Path" class="cls-4" d="M207.0312,169.1455l-3.9062,2.2552L156.25,144.3375V139.827Z"/>
    <path id="Path-64" data-name="Path" class="cls-4" d="M199.2188,214.2509l-3.9063-2.2551V191.6983l3.9063-2.2554Z"/>
    <path id="Path-65" data-name="Path" class="cls-7" d="M187.5,216.5062l7.8125-4.51,7.8125,4.51-11.7188,6.7658L187.5,221.0169Z"/>
    <path id="Path-66" data-name="Path" d="M195.3125,211.9958l-7.8125,4.51V196.2088l7.8125-4.5105Z"/>
  </g>
</svg>
