<svg id="Layer_1" data-name="Layer 1" xmlns="http://www.w3.org/2000/svg" viewBox="0 0 500 297.6963">
  <defs>
    <style>
      .cls-1 {
        fill: #e8e8e8;
      }

      .cls-2 {
        fill: #b9b9b9;
      }

      .cls-3 {
        fill: #2e2e2e;
      }

      .cls-4 {
        fill: #5d5d5d;
      }

      .cls-5 {
        fill: #d1d1d1;
      }

      .cls-6 {
        fill: #a2a2a2;
      }

      .cls-7 {
        fill: #acacac;
      }

      .cls-8 {
        fill: #959595;
      }

      .cls-9 {
        fill: #c6c6c6;
      }

      .cls-10 {
        fill: #b0dcff;
      }

      .cls-11, .cls-25 {
        fill: none;
      }

      .cls-12 {
        fill: #fff;
      }

      .cls-13 {
        fill: #78cbff;
      }

      .cls-14 {
        fill: #e3efff;
      }

      .cls-15 {
        fill: #3258a8;
      }

      .cls-16 {
        fill: #4d92ff;
      }

      .cls-17 {
        fill: #fff587;
      }

      .cls-18 {
        fill: #fffbcd;
      }

      .cls-19 {
        fill: #c6be68;
      }

      .cls-20 {
        fill: #b0d1ff;
      }

      .cls-21 {
        fill: #edf3ff;
      }

      .cls-22 {
        fill: #6c6c6c;
      }

      .cls-23 {
        fill: #8e8e8e;
      }

      .cls-24 {
        fill: #d0d0d0;
      }

      .cls-25 {
        stroke: #fff;
        stroke-linecap: round;
        stroke-linejoin: round;
        stroke-width: 0;
      }

      .cls-26 {
        opacity: 0.07;
      }

      .cls-27 {
        fill: #346288;
      }
    </style>
  </defs>
  <title>Artboard 13</title>
  <g id="root">
    <path id="Path" class="cls-1" d="M0,153.3587,250,297.6963,500,153.3587,250,9.0211Z"/>
    <path id="Path-2" data-name="Path" class="cls-2" d="M250,18.0422,484.375,153.3587,250,288.6751,15.625,153.3587Z"/>
    <path id="Path-3" data-name="Path" class="cls-3" d="M250,18.0422v9.0211l226.5625,130.806,7.8125-4.5106Z"/>
    <path id="Path-4" data-name="Path" class="cls-4" d="M15.625,153.3587,250,18.0422v9.0211L23.4375,157.8691Z"/>
    <g id="Group">
      <path id="Path-5" data-name="Path" class="cls-1" d="M97.6562,9.0211,113.2812,0l3.9063,2.2551-15.625,9.0211Z"/>
      <path id="Path-6" data-name="Path" class="cls-5" d="M117.1875,2.2552V24.8081l-3.9063,2.2552V9.0212l-7.8124,4.5105-3.9063-2.2554Z"/>
      <path id="Path-7" data-name="Path" class="cls-6" d="M109.375,24.8081V11.2763l3.9062-2.2551V27.0633Z"/>
    </g>
    <path id="Path-8" data-name="Path" class="cls-1" d="M140.625,33.8292l15.625-9.0211,3.9062,2.2552-15.625,9.0211Z"/>
    <path id="Path-9" data-name="Path" class="cls-5" d="M160.1562,27.0633V49.6161L156.25,51.8714V33.8292l-7.8125,4.51-3.9063-2.2552Z"/>
    <path id="Path-10" data-name="Path" class="cls-6" d="M152.3438,49.6161V36.0844l3.9062-2.2552V51.8714Z"/>
    <g id="Group-2" data-name="Group">
      <path id="Path-11" data-name="Path" class="cls-1" d="M183.5938,58.6371l15.625-9.021,3.9062,2.2553L187.5,60.8925Z"/>
      <path id="Path-12" data-name="Path" class="cls-5" d="M203.125,51.8714V74.4241l-3.9062,2.2552V58.6371l-7.8126,4.5107L187.5,60.8925Z"/>
      <path id="Path-13" data-name="Path" class="cls-6" d="M195.3125,74.4241V60.8925l3.9063-2.2554V76.6793Z"/>
    </g>
    <path id="Path-14" data-name="Path" class="cls-1" d="M109.375,2.2552l132.8125,76.68,3.9063-2.2554L113.2812,0Z"/>
    <path id="Path-15" data-name="Path" class="cls-6" d="M113.2812,9.0211v-4.51l39.0626,22.5527-3.9063,2.2552Z"/>
    <path id="Path-16" data-name="Path" class="cls-6" d="M156.25,33.8292V29.3185l39.0625,22.5529-3.9063,2.2552Z"/>
    <path id="Path-17" data-name="Path" class="cls-6" d="M199.2188,58.6371v-4.51l39.0624,22.5527-3.9062,2.2554Z"/>
    <path id="Path-18" data-name="Path" class="cls-7" d="M101.5625,198.4642l19.5313-11.2764-7.8126-4.5105L93.75,193.9537Z"/>
    <path id="Path-19" data-name="Path" class="cls-7" d="M144.5312,223.2721l19.5313-11.2762-7.8125-4.5106-19.5312,11.2764Z"/>
    <path id="Path-20" data-name="Path" class="cls-7" d="M187.5,248.08l19.5312-11.2764-7.8124-4.5107L179.6875,243.57Z"/>
    <path id="Path-21" data-name="Path" class="cls-7" d="M230.4688,272.8883,250,261.6118l-7.8125-4.5105-19.5313,11.2765Z"/>
    <g id="Group-3" data-name="Group">
      <path id="Path-22" data-name="Path" class="cls-8" d="M226.5625,268.3778l3.9063,2.2551V243.57l-3.9063-2.2554Z"/>
      <path id="Path-23" data-name="Path" class="cls-9" d="M234.375,268.3778l-3.9062,2.2551V239.0592l3.9062-2.2553Z"/>
    </g>
    <g id="Group-4" data-name="Group">
      <path id="Path-24" data-name="Path" class="cls-8" d="M97.6562,193.9537l3.9063,2.2552V182.6773l-3.9063-2.2553Z"/>
      <path id="Path-25" data-name="Path" class="cls-9" d="M105.4688,193.9537l-3.9063,2.2552V182.6773l3.9063-2.2553Z"/>
    </g>
    <g id="Group-5" data-name="Group">
      <path id="Path-26" data-name="Path" class="cls-8" d="M183.5938,243.57,187.5,245.825V232.2932l-3.9062-2.2551Z"/>
      <path id="Path-27" data-name="Path" class="cls-9" d="M191.4062,243.57,187.5,245.825V232.2932l3.9062-2.2551Z"/>
    </g>
    <g id="Group-6" data-name="Group">
      <path id="Path-28" data-name="Path" class="cls-8" d="M140.625,218.7617l3.9062,2.2553V207.4853L140.625,205.23Z"/>
      <path id="Path-29" data-name="Path" class="cls-9" d="M148.4375,218.7617l-3.9063,2.2553V207.4853l3.9063-2.2554Z"/>
    </g>
    <path id="Path-30" data-name="Path" class="cls-10" d="M97.6562,9.0211V162.38l132.8126,76.6793V85.7Z"/>
    <g>
      <path class="cls-11" d="M147.7726,88.2936a.8907.8907,0,0,0-.6569.5287A.9045.9045,0,0,1,147.7726,88.2936Z"/>
      <path class="cls-11" d="M146.9383,88.6674c-.0221-.0187-.0538-.0449-.0717-.0629a.5013.5013,0,0,0-.28-.0934c-.0061,0-.0088.0052-.0149.0055a.5021.5021,0,0,1,.264.0879A.4076.4076,0,0,1,146.9383,88.6674Z"/>
      <path class="cls-11" d="M169.7113,127.229v-.9648c0-2.023-2.4582-5.0731-5.5084-6.847l0,.0512c3.0354,1.7767,5.5088,4.8109,5.4466,6.8269v.1245a1.4505,1.4505,0,0,1-.8713,1.3383c-.9647.4358-2.6767.1246-4.6375-.9959a14.2445,14.2445,0,0,1-2.6832-1.9963,14.2253,14.2253,0,0,0,2.7141,2.0274c1.93,1.12,3.6419,1.4316,4.6375.9959a1.4666,1.4666,0,0,0,.8717-1.3383v.84l3.299,4.1083-8.8391.747,5.7884,38.4647-5.7575-38.4647,8.8394-.747.0225.2472-.0225-.3093Z"/>
      <polygon class="cls-11" points="178.613 143.849 178.614 143.845 178.613 143.849 178.613 143.849"/>
      <path class="cls-11" d="M150.975,91.5612l-.5291-.3113a3.8827,3.8827,0,0,0-1.4938-2.5832.9478.9478,0,0,0-.2182-.1556c.0626.0624.1247.0934.1869.1556a3.88,3.88,0,0,1,1.4939,2.5832l.5291.3113a2.2219,2.2219,0,0,1,.9025,1.65c0,.4357-.2216.6814-.5489.6831.3448.0147.58-.2334.58-.6831A2.1285,2.1285,0,0,0,150.975,91.5612Z"/>
      <path class="cls-11" d="M173.2594,134.8231a2.7765,2.7765,0,0,1,.716.3112,1.3679,1.3679,0,0,1,.3113.1869,7.0856,7.0856,0,0,1,2.7076,4.6374l.0313.0311v-.0311c.0313,0,.0313.0311.0622.0311a3.79,3.79,0,0,1,1.4938,1.8674,3.1872,3.1872,0,0,1,.256,1.1691,3.166,3.166,0,0,0-.2247-1.2314,3.658,3.658,0,0,0-1.4938-1.8673c-.0313,0-.0313-.0311-.0622-.0311v.0311l-.0313-.0311a7.0144,7.0144,0,0,0-2.7077-4.6375c-.1247-.0622-.2182-.1557-.3425-.2179a4.05,4.05,0,0,0-.6573-.2894l.0038.04a1.934,1.934,0,0,0-1.34.0516A1.9585,1.9585,0,0,1,173.2594,134.8231Z"/>
      <polygon class="cls-11" points="164.263 96.974 164.234 96.977 164.232 96.974 164.202 96.977 158.312 89.65 164.202 96.993 164.264 97.07 164.265 96.977 164.263 96.974"/>
      <path class="cls-11" d="M158.6624,121.9379l.8564.4894-.016-.0224-.0149-.0265-.8255-.4715v-.9649h-.0007l-.03.9648c0,1.7735,1.89,4.36,4.4117,6.1452C160.5377,126.2528,158.6624,123.7043,158.6624,121.9379Z"/>
      <path class="cls-11" d="M146.2132,88.8223c.0011-.0064.0064-.0092.0076-.0155-.0546-.0332-.1087-.0817-.1633-.109a.8873.8873,0,0,0-.3849-.0917.918.918,0,0,1,.3536.0917A.6547.6547,0,0,1,146.2132,88.8223Z"/>
      <path class="cls-11" d="M162.0861,74.9413a1.7066,1.7066,0,0,1,.84.9648v.0622c0,.28-.3735.3112-.84.0621a1.8948,1.8948,0,0,1-.22-.1486,2.482,2.482,0,0,0,.2514.18c.4665.28.8392.2486.84-.0615l0-.0941v-.0313a1.6352,1.6352,0,0,0-.8095-.9648c-.33-.1883-.6218-.2153-.7591-.11A.8114.8114,0,0,1,162.0861,74.9413Z"/>
      <polygon class="cls-11" points="201.484 172.669 201.489 172.701 201.545 173.009 201.55 173.004 201.49 172.676 201.484 172.669"/>
      <polygon class="cls-11" points="135.506 100.93 137.716 100.743 135.505 100.927 135.506 100.93"/>
      <polygon class="cls-11" points="190.72 110.609 189.6 110.702 187.459 121.248 187.514 121.315 189.631 110.733 190.745 110.641 190.72 110.609"/>
      <path class="cls-11" d="M170.4273,135.1967a1.6721,1.6721,0,0,1,.6535.5913c.01-.0236.0267-.0362.0366-.059a2.2992,2.2992,0,0,0-.6279-.5634,1.26,1.26,0,0,0-.5291-.1556.6771.6771,0,0,0-.2621.0753.5711.5711,0,0,1,.2-.0443A1.1445,1.1445,0,0,1,170.4273,135.1967Z"/>
      <polygon class="cls-11" points="196.198 132.084 195.111 130.743 196.196 132.106 196.198 132.084"/>
      <path class="cls-11" d="M169.2757,135.9436V135.85l.0011-.0078a3.51,3.51,0,0,0-.9968-.9259,1.4476,1.4476,0,0,0-1.0273-.2178c-.0217.0054-.0347.0243-.0557.0313a1.4166,1.4166,0,0,1,1.02.2176A3.1744,3.1744,0,0,1,169.2757,135.9436Z"/>
      <polygon class="cls-11" points="186.238 119.79 185.118 119.884 185.086 133.018 181.998 148.401 182.048 148.462 185.149 133.018 185.18 119.915 186.266 119.825 186.238 119.79"/>
      <polygon class="cls-11" points="179.578 148.393 174.284 148.857 174.287 148.891 176.43 178.271 176.432 178.271 174.287 148.86 179.609 148.393 179.609 145.583 179.578 145.545 179.578 148.393"/>
      <polygon class="cls-11" points="137.778 80.232 137.749 80.235 138.868 81.602 137.778 80.232"/>
      <path class="cls-11" d="M183.1787,179.3728c-.1495-.0087-.2983-.0158-.4486-.026.0244.0018.05.0062.0736.0078.3018.0206.6024.0389.9007.05.0114,0,.0229,0,.0343,0C183.5533,179.3975,183.3652,179.3836,183.1787,179.3728Z"/>
      <path class="cls-11" d="M157.262,168.6235c-1.918-1.3919-3.7738-2.9384-5.6-4.5461v0l-.01-.009-.024-.0218q-.5637-.5015-1.1215-1.0149c.3765.3446.74.7105,1.1215,1.0473,1.8364,1.6185,3.7037,3.1435,5.6335,4.5751.2335.1726.4773.3269.713.4964-.2369-.171-.4742-.3393-.7095-.5137l6.8748-36.4908-.0046-.0059Z"/>
      <path class="cls-11" d="M170.3964,103.5439c-.0023-.0146,0-.0268-.0023-.0414a1.01,1.01,0,0,0-.86-.083A1.0319,1.0319,0,0,1,170.3964,103.5439Z"/>
      <polygon class="cls-11" points="164.296 85.274 165.915 87.328 165.915 90.254 165.945 90.272 165.945 87.36 165.976 74.907 165.945 87.266 164.296 85.212 162.927 85.336 162.926 85.399 164.296 85.274"/>
      <path class="cls-11" d="M176.8078,107.2476c.0309,0,.0309.0311.0622.0311a2.5733,2.5733,0,0,1,.3677.268,2.4765,2.4765,0,0,0-.399-.2991c-.0309,0-.0309-.0312-.0622-.0312a1.1,1.1,0,0,0-.8827-.1567c.0027.011.0088.0212.0114.0323A1.1107,1.1107,0,0,1,176.8078,107.2476Z"/>
      <path class="cls-11" d="M167.4805,75.3536a1.9753,1.9753,0,0,0-.6634-.63,1.3848,1.3848,0,0,0-.3353-.1384,1.6477,1.6477,0,0,1,.304.1384A2.1188,2.1188,0,0,1,167.4805,75.3536Z"/>
      <path class="cls-11" d="M166.7858,75.8126c.4669.28.84.249.84-.062C167.6258,76.03,167.2527,76.0616,166.7858,75.8126Z"/>
      <path class="cls-11" d="M175.1152,105.9282c-.0374-.0293-.074-.0628-.1125-.0879v.0067C175.0412,105.8679,175.0774,105.9025,175.1152,105.9282Z"/>
      <polygon class="cls-11" points="167.595 89.421 173.073 96.23 173.042 96.233 173.042 96.235 173.104 96.23 167.595 89.383 167.595 89.414 167.595 89.421"/>
      <path class="cls-11" d="M170.5872,102.1017c.3769-.6892,1.1917-.861,2.1122-.3319a1.3727,1.3727,0,0,1,.3421.2489,4.7157,4.7157,0,0,1,.74.7285,4.804,4.804,0,0,0-.7714-.76l0-.062a2.0728,2.0728,0,0,0-.28-.1869C171.7648,101.1735,170.9442,101.3589,170.5872,102.1017Z"/>
      <path class="cls-12" d="M187.191,179.3524c.288-.0241.5707-.0606.8553-.0922h-.0008C187.7609,179.2924,187.479,179.3292,187.191,179.3524Z"/>
      <path class="cls-12" d="M188.641,179.196c-.1209.0169-.2453.0248-.3674.04h-.0007C188.3949,179.2209,188.52,179.2126,188.641,179.196Z"/>
      <path class="cls-12" d="M183.7044,179.405l.0572.0016-.0229-.0013C183.7273,179.4048,183.7158,179.4055,183.7044,179.405Z"/>
      <path class="cls-12" d="M186.8969,179.377c-.1293.0093-.2644.0037-.3944.0112-.0317.0018-.0626.0062-.0943.0079C186.57,179.3878,186.7355,179.3881,186.8969,179.377Z"/>
      <path class="cls-12" d="M183.25,179.3923c.1526.0094.3025.008.454.0127-.2983-.0115-.5989-.03-.9007-.05C182.9529,179.3681,183.1032,179.3839,183.25,179.3923Z"/>
      <path class="cls-12" d="M176.432,178.2715l-.0023-.0007.0012.0158c-.1167-.03-.2323-.0563-.35-.0878.1171.0309.2365.0745.3532.1042.2369.0592.4685.1062.7035.161-.2339-.0559-.4693-.1159-.7046-.1769Z"/>
      <path class="cls-12" d="M169.9787,176.0571c.272.1145.5474.2457.8183.355l-.0012-.01C170.5242,176.2945,170.2515,176.1747,169.9787,176.0571Z"/>
      <path class="cls-12" d="M167.543,174.9425c-.0892-.0437-.1785-.0869-.2678-.1312-.1609-.08-.3208-.1545-.4821-.2364-.2819-.1432-.5639-.2863-.8469-.4357-.0881-.0466-.1774-.0986-.2659-.1459q-.8886-.4719-1.7891-.9813c-.9281-.5285-1.8474-1.1079-2.7645-1.6982-.0976-.0627-.1934-.13-.2907-.1932-.2449-.1592-.486-.323-.73-.4857-.1228-.0822-.2461-.1619-.3685-.2451q-.8126-.5523-1.619-1.1347c-.048-.0346-.0957-.07-.1434-.1041-.2357-.1695-.48-.3238-.713-.4964-1.93-1.4316-3.7971-2.9566-5.6335-4.5751-.3811-.3368-.745-.7027-1.1215-1.0473l-.0653-.0588c-.2918-.268-.5813-.54-.87-.813-.0187-.0177-.037-.0362-.0557-.054-1.6388-1.5473-3.2489-3.143-4.7962-4.843q-1.2737-1.3895-2.5165-2.8483a85.6628,85.6628,0,0,0,20.2148,17.7527l2.9163,1.6834c1.1776.638,2.3365,1.1882,3.4882,1.7039-.2415-.1113-.4833-.2264-.7248-.341C167.9131,175.1266,167.7277,175.0327,167.543,174.9425Z"/>
      <path class="cls-12" d="M182.6714,179.3434c.0438.0034.0881.0072.1323.0112-.024-.0016-.0492-.006-.0736-.0078Z"/>
      <path class="cls-12" d="M190.5643,178.8632c.3788-.0813.7489-.1817,1.12-.2806q-.654.1769-1.3252.3175C190.4266,178.886,190.4968,178.8778,190.5643,178.8632Z"/>
      <path class="cls-12" d="M135.32,145.374c.0584.0862.1213.1677.18.2535-.2087-.3042-.4132-.612-.6192-.9185C135.0292,144.9289,135.17,145.1554,135.32,145.374Z"/>
      <path class="cls-12" d="M117.2146,94.7184c.0027.0723.0084.1459.011.2184-.0072-.186-.0045-.3691-.01-.5547Z"/>
      <path class="cls-12" d="M139.7392,151.3809q1.1856,1.5337,2.4323,2.9974c-.9922-1.1721-1.9509-2.3854-2.9-3.6094C139.43,150.9728,139.5813,151.1769,139.7392,151.3809Z"/>
      <path class="cls-12" d="M137.5294,148.4865c.2376.32.49.6408.7335.9611-.941-1.2537-1.8711-2.52-2.7629-3.82C136.1618,146.595,136.8439,147.543,137.5294,148.4865Z"/>
      <path class="cls-12" d="M127.6012,132.2711c.19.3767.4055.7435.6,1.1183-.4292-.8331-.8534-1.6681-1.2608-2.51C127.1645,131.3425,127.37,131.811,127.6012,132.2711Z"/>
      <path class="cls-12" d="M201.6693,172.8805c-.0408.04-.0786.0842-.12.1237v0l-.0045.0049v0c-.0218.0209-.0416.0443-.0634.0651-.214.204-.4383.3922-.6584.5867.2388-.211.4967-.3958.7279-.6178.0312-.0311.0934-.0934.1243-.1245.2049-.2.3838-.4375.5825-.6466-.1949.2046-.3879.412-.5886.6082Z"/>
      <path class="cls-12" d="M191.959,178.5137c.3315-.0927.6424-.2285.9674-.3351l-.1053.0342C192.5308,178.3074,192.2546,178.43,191.959,178.5137Z"/>
      <polygon class="cls-13" points="164.263 96.974 164.265 96.977 173.042 96.235 173.042 96.233 164.263 96.974"/>
      <path class="cls-13" d="M158.3118,89.65l5.8907,7.3268.0294-.0025-8.8063-10.953,5.82-.498v.0027l.0309-10.4018a.5975.5975,0,0,1-.0309-.1207v-.0311a.2445.2445,0,0,1,.1435-.1724c.1373-.1052.43-.0782.7591.11a1.6352,1.6352,0,0,1,.8095.9648v.0313l0,.0941,0-.0008-.0309,9.3371,1.3691-.1245,1.6494,2.0543.0309-12.36a.5991.5991,0,0,1-.0309-.1209v-.0311c.047-.2106.2522-.2625.5364-.17a1.3848,1.3848,0,0,1,.3353.1384,1.9753,1.9753,0,0,1,.6634.63c.0221.0334.0492.0665.0663.0994a.6894.6894,0,0,1,.0794.2351v.0625l-.0313,13.6321,5.5092,6.8471v5.7578c-.0313-.0232-.0622-.0392-.0931-.062l0,.062a4.804,4.804,0,0,1,.7714.76,5.1664,5.1664,0,0,1,1.2207,2.9752v.1179c.0385.0251.0751.0586.1125.0879a2.0256,2.0256,0,0,1,.7786,1.1315,1.1,1.1,0,0,1,.8827.1567c.0313,0,.0313.0312.0622.0312a2.4765,2.4765,0,0,1,.399.2991,3.2917,3.2917,0,0,1,.9083,1.2881,1.8785,1.8785,0,0,1,0,1.743.9317.9317,0,0,1-1.276.0934c-.0313,0-.0313-.0311-.0622-.0311l-3.735-2.1607-.03,8.2623,6.5971,8.2153v.031h0l-.0622,20.4794v.0771l.0313.0388v-.1159l2.3888,2.9331,3.0887-15.3827.0313-13.1342,1.12-.0932.0275.034.0351-.003,1.1585,1.4266,2.14-10.5458,1.12-.0934.0252.0317.0061-.0005L191.84,112.01l2.77,17.3359.1495.9576.0061.0072.3449.4328,1.0868,1.3414-.0019.0211.0328.041-.4047,4.7931,5.66,35.7294.0061.0073-.0011-.0066.1579.1842c5.7564-5.6335,9.1793-14.7206,9.21-26.6706.0546-12.9742-3.9165-27.1989-10.5667-40.3481-7.4078-14.6437-18.1339-27.9324-30.3165-36.6934-1.11-.7985-2.2286-1.573-3.3616-2.2936q-1.197-.7614-2.41-1.462c-7.2739-4.2015-14.1685-6.2736-20.3236-6.4205C128.3283,58.597,117.5194,70.54,117.223,91.4749L117.22,92.85c.0058.6531.013,1.3067.0386,1.9654.0087.2353.0263.4727.0377.7087.0328.6655.071,1.3323.1233,2.0028.0209.2692.0476.54.0717.8093.0583.6508.1232,1.303.2,1.9577.0305.2637.0633.528.0969.7924q.13,1.0249.2887,2.0549c.0351.2282.0695.456.1065.6844q.1893,1.1611.4139,2.3273c.0263.138.0507.2757.0778.4138a93.377,93.377,0,0,0,3.088,11.5636l.0179.0527a108.4077,108.4077,0,0,0,5.8521,14.003l.1248-40.8421,8.87-11.0178.0153.0193.0156-.0193,1.09-.0935.0019.0024.029-.0024,1.0895,1.37,8.7768,21.2262-.0935,30.7477,6.7227-.5888,1.0273-11.7958.0931-35.17.0312.0389v-.0078Zm-7.0144,4.244a.8881.8881,0,0,1-.3845-.0917L148.89,92.62c-.0621-.0313-.1556-.0624-.2178-.0934-.0622-.0622-.1556-.0935-.2178-.1557l-2.4586-1.4316a2.2218,2.2218,0,0,1-.9025-1.65c0-.45.235-.6978.58-.6831a.8873.8873,0,0,1,.3849.0917c.0546.0273.1087.0758.1633.109a.3351.3351,0,0,1,.3345-.2957c.0054,0,.0111.0053.0164.0055s.0088-.0055.0149-.0055a.5013.5013,0,0,1,.28.0934c.0179.018.05.0442.0717.0629a1.5358,1.5358,0,0,1,.1774.1549.8907.8907,0,0,1,.6569-.5287,1.3952,1.3952,0,0,1,.9613.2175.9478.9478,0,0,1,.2182.1556,3.8827,3.8827,0,0,1,1.4938,2.5832l.5291.3113a2.1285,2.1285,0,0,1,.9026,1.65C151.8776,93.6605,151.6422,93.9086,151.2974,93.8939Z"/>
      <polygon class="cls-14" points="151.662 164.077 151.653 164.069 151.662 164.078 151.662 164.077"/>
      <path class="cls-14" d="M183.1787,179.3728l-5.8731-7.3257,4.731-23.53.0111-.0554-.05-.0616-2.3888-2.9331v2.9256l-5.3222.4669,2.1453,29.4115.0012.0156c.2353.061.4707.121.7046.1769.1686.04.3387.0877.5073.1273.02.0047.04.0106.0595.015.05.0112.1.0247.1492.0357.0866.019.1713.0311.2575.0492.9426.1975,1.8688.3442,2.7851.4622.04.0052.0812.0151.1209.02.2525.0325.5066.0677.7568.0941.04.004.08.0109.12.0148.23.0223.46.0385.689.0559.03.0023.0587.0029.0885.0051l.0587.0034C182.88,179.357,183.0292,179.3641,183.1787,179.3728Z"/>
      <path class="cls-14" d="M150.4417,162.9734l.0653.0588q.5578.5138,1.1215,1.0149l2.6741-31.029-6.7513.5913-.0621,23.4361-2.6909.2446q2.2968,2.5118,4.7172,4.8163c.0187.0178.037.0363.0557.054C149.86,162.4331,150.15,162.7054,150.4417,162.9734Z"/>
      <path class="cls-14" d="M201.49,172.6763l.0595.3275v0c.0412-.04.079-.0839.12-.1237v0l-.0225-.0263-.1579-.1842Z"/>
      <path class="cls-15" d="M158.6624,120.2627c-.0091-.0739-.0278-.1526-.0309-.2233v-.1244c.0309-2.0231,2.49-2.2409,5.54-.4669.0107.0063.0206.014.0313.02l0-.0512,0,0,.0618-22.3472-.0618-.0772L158.3118,89.65l-2.8862-3.5976V86.06l-.0934,35.1309,3.33-.28Z"/>
      <polygon class="cls-15" points="158.662 120.911 158.662 120.942 158.662 120.942 158.662 120.911"/>
      <path class="cls-16" d="M179.5776,145.5446v-.0771l.0622-20.4794h0v-.031l-6.6292.5913v-.0364l.0031-.8277.0278-7.9439.0012.0014.03-8.2623-.0313-.018-2.5829-1.494a.0306.0306,0,0,0-.0313-.031,3.1048,3.1048,0,0,1-1.4629-2.49.9332.9332,0,0,1,.5695-1.0269,1.01,1.01,0,0,1,.86.083,3.5076,3.5076,0,0,1-.029-.4876,1.9847,1.9847,0,0,1,.2221-.9132c.357-.7428,1.1776-.9282,2.1434-.363a2.0728,2.0728,0,0,1,.28.1869c.0309.0228.0618.0388.0931.062V96.23l-.0626.0053-8.7768.7416,0,.0931-.0618,22.3472,0,0c3.05,1.7739,5.5084,4.824,5.5084,6.847v.9648l3.2993,4.1084.0225.3093.285,3.1049a4.05,4.05,0,0,1,.6573.2894c.1243.0622.2178.1557.3425.2179a7.0144,7.0144,0,0,1,2.7077,4.6375l.0313.0311v-.0311c.0309,0,.0309.0311.0622.0311a3.658,3.658,0,0,1,1.4938,1.8673,3.166,3.166,0,0,1,.2247,1.2314c0,.0653-.016.12-.0214.1813a2.01,2.01,0,0,1-.0328.2479,1.198,1.198,0,0,1-.169.39l-.0015.0036,0,0c-.0126.0185-.0171.0444-.0309.0619-.3113.4357-.8713.4668-1.4938.1244-.0309,0-.0309-.0311-.0622-.0311l-2.7077-1.5562a1.6026,1.6026,0,0,1-.4047-.1867l-.1194-.06.4906,6.6555,5.2932-.4644Z"/>
      <path class="cls-17" d="M164.2628,96.9742l8.7787-.7417.0313-.0027-5.4779-6.8087V91.25l-.0091-.0054c-.0252.2812-.3808.3079-.8313.0678a1.5148,1.5148,0,0,1-.84-1.0272l.6214.3455-.59-.3455v-.013l-.0309-.0181V87.3284l-1.6185-2.0542-1.3695.1245V85.43l-.0313,6.0379-.0092-.0055c-.0251.2812-.3807.3079-.8312.0678a1.5149,1.5149,0,0,1-.84-1.027l.6192.344-.5883-.344v-4.98l-5.82.498,8.8063,10.953.0019.0025Z"/>
      <polygon class="cls-17" points="173.014 124.684 173.011 125.512 173.011 125.517 173.011 125.548 179.64 124.957 173.043 116.742 173.042 116.74 173.014 124.684"/>
      <polygon class="cls-17" points="190.745 110.641 189.631 110.733 190.751 112.103 191.84 112.01 190.751 110.64 190.745 110.641"/>
      <polygon class="cls-17" points="186.301 119.822 186.266 119.825 185.18 119.915 187.265 122.498 187.514 121.315 187.459 121.248 186.301 119.822"/>
      <path class="cls-16" d="M201.545,173.0091v0l-.0561-.3079-.005-.0318-5.66-35.7294.4047-4.7931-1.12.0935-2.272,26.5484.0622-29.2873-2.2095.1867-.1248,49.1471c.771-.1685,1.52-.3838,2.2568-.6221l.1053-.0342c.3162-.1039.6317-.2093.9415-.3261.032-.0121.0633-.0261.0953-.0383.3315-.1275.6627-.2537.9861-.3959.0992-.0431.1965-.09.2945-.1342.4456-.2018.8843-.4155,1.3138-.6452.0523-.0279.1023-.06.1541-.0882s.1-.0577.15-.0859c.1774-.0991.3548-.1988.5295-.3028.08-.0473.1625-.09.2419-.1385.3975-.2419.7854-.4992,1.168-.7661.1393-.0973.28-.193.417-.2936.1266-.0932.2487-.1934.3734-.2894.1423-.1088.2854-.2167.4254-.3291.2739-.22.5413-.45.8064-.6844.22-.1945.4444-.3827.6584-.5867C201.5034,173.0534,201.5232,173.03,201.545,173.0091Z"/>
      <polygon class="cls-16" points="194.611 129.345 194.019 129.408 194.76 130.303 194.611 129.345"/>
      <polygon class="cls-17" points="195.111 130.743 194.766 130.31 194.76 130.303 194.019 129.408 192.899 129.501 195.108 132.24 196.229 132.147 196.196 132.106 195.111 130.743"/>
      <polygon class="cls-15" points="192.836 158.788 195.108 132.24 192.899 129.501 192.836 158.788"/>
      <path class="cls-15" d="M187.2654,122.4982,185.18,119.915l-.0309,13.1029-3.1013,15.4443-.0111.0554-4.731,23.53,5.8731,7.3257c.1865.0108.3746.0247.56.0325l.0229.0013c.2663.01.5318.0191.7954.0223.2845.0044.5645-.0046.8457-.0093.1854-.0031.3731,0,.5577-.0061.15-.0055.2994-.01.4478-.0174.0317-.0017.0626-.0061.0943-.0079.52-.0292,1.0353-.07,1.543-.128h.0015c.0748-.0086.1507-.0152.2259-.0244h.0007c.77-.0952,1.52-.2326,2.26-.3932l.1244-49.1235-3.7662-4.7619-.0931-.1246Z"/>
      <polygon class="cls-18" points="194.019 129.408 194.611 129.345 191.84 112.01 190.751 112.103 190.689 129.688 192.899 129.501 194.019 129.408"/>
      <polygon class="cls-19" points="189.631 110.733 187.514 121.315 187.265 122.498 186.798 124.832 186.892 124.957 190.689 129.688 190.751 112.103 189.631 110.733"/>
      <path class="cls-17" d="M164.1357,132.1406l.0046.0059,8.8391-.747-3.299-4.1083v.9959a1.89,1.89,0,0,1-.1129.6725c-.5177,1.3676-2.7542,1.3234-5.3963-.1745-.3872-.2251-.7641-.4715-1.128-.733-2.5215-1.7854-4.4117-4.3717-4.4117-6.1452l.03-.9648.0007-.0312-3.33.28,8.8081,10.9245Z"/>
      <path class="cls-16" d="M169.9287,170.6112,164.14,132.1465l-6.8748,36.4908c.2353.1744.4726.3427.7095.5137.0477.0346.0954.0695.1434.1041q.8068.5819,1.619,1.1347c.1224.0832.2457.1629.3685.2451.2441.1627.4852.3265.73.4857.0973.0634.1931.1305.2907.1932.9171.59,1.8364,1.17,2.7645,1.6982q.9008.51,1.7891.9813c.0885.0473.1778.0993.2659.1459.283.1494.565.2925.8469.4357.1613.0819.3212.1566.4821.2364.0893.0443.1786.0875.2678.1312.1847.09.37.1841.5543.2716.2415.1146.4833.23.7248.341.0488.0225.098.0471.1469.0692.2243.1018.4459.1913.6694.2889.1137.0491.2266.0948.34.1439.2728.1176.5455.2374.8171.3453Z"/>
      <path class="cls-20" d="M176.43,178.2708l-2.143-29.38-.0023-.0336-.4906-6.6555-.0675-.0336c-.0622-.0623-.1557-.0934-.2178-.1556l-5.3219-3.0812a3.8271,3.8271,0,0,1-1.65-2.3344c-.2178-.9649.0313-1.7118.6539-1.8673h.0064c.021-.007.034-.0259.0557-.0313a1.4476,1.4476,0,0,1,1.0273.2178,3.51,3.51,0,0,1,.9968.9259.7409.7409,0,0,1,.4215-.7571.6771.6771,0,0,1,.2621-.0753,1.26,1.26,0,0,1,.5291.1556,2.2992,2.2992,0,0,1,.6279.5634,1.5949,1.5949,0,0,1,.864-.8854,1.934,1.934,0,0,1,1.34-.0516l-.0038-.04-.285-3.1049-.0225-.2472-8.8394.747,5.7575,38.4647.8671,5.7912.0012.01,0,.0011.0218.0083c.6943.2826,1.3794.5292,2.0634.7719.1945.0689.3933.1539.5867.2194.1964.067.39.1238.5848.1826.1014.0306.2037.0632.3051.0952.3651.115.7263.2162,1.0884.3213.2109.0612.4242.1306.6336.1869.1175.0315.2331.0575.35.0878Z"/>
      <path class="cls-15" d="M151.6525,164.0689l.01.0085c1.8258,1.6077,3.6816,3.1542,5.6,4.5461l6.8737-36.4829.0046-.0251-8.8081-10.9245-1.0269,11.7958-.0027.0313-2.6741,31.029Z"/>
      <path class="cls-19" d="M158.6624,121.9069l.8255.4715a5.3974,5.3974,0,0,1-.8255-2.1157v1.6442Z"/>
      <path class="cls-19" d="M168.8087,127.7892c-.9956.4357-2.7076.1246-4.6375-.9959a14.2253,14.2253,0,0,1-2.7141-2.0274,11.6924,11.6924,0,0,1-1.9383-2.3386l-.8564-.4894c0,1.7664,1.8753,4.3149,4.3808,6.1142.3639.2615.7408.5079,1.128.733,2.6421,1.4979,4.8786,1.5421,5.3963.1745a1.89,1.89,0,0,0,.1129-.6725v-1.8362A1.4666,1.4666,0,0,1,168.8087,127.7892Z"/>
      <path class="cls-18" d="M159.5028,122.4049l.016.0224a11.6924,11.6924,0,0,0,1.9383,2.3386,14.2445,14.2445,0,0,0,2.6832,1.9963c1.9608,1.12,3.6728,1.4317,4.6375.9959a1.4505,1.4505,0,0,0,.8713-1.3383v-.1245c.0622-2.016-2.4112-5.05-5.4466-6.8269-.0107-.0063-.0206-.014-.0313-.02-3.05-1.774-5.5088-1.5562-5.54.4669v.1244c.0031.0707.0218.1494.0309.2233a5.3974,5.3974,0,0,0,.8255,2.1157Z"/>
      <path class="cls-19" d="M161.2457,90.4718v.0313l.5883.344-.6192-.344a1.5149,1.5149,0,0,0,.84,1.027c.4505.24.8061.2134.8312-.0678l.0092.0055.0313-6.0379v-.0312l0-.0622.0309-9.3371,0,.0008c-.0008.31-.3735.3412-.84.0615a2.482,2.482,0,0,1-.2514-.18,1.5031,1.5031,0,0,1-.5894-.7577l-.0309,10.4018v4.9459Z"/>
      <path class="cls-18" d="M161.866,75.8818a1.8948,1.8948,0,0,0,.22.1486c.4669.2491.84.2181.84-.0621v-.0622a1.7066,1.7066,0,0,0-.84-.9648.8114.8114,0,0,0-.6969-.1414.2445.2445,0,0,0-.1435.1724v.0311a.5975.5975,0,0,0,.0309.1207A1.5031,1.5031,0,0,0,161.866,75.8818Z"/>
      <path class="cls-19" d="M165.9454,90.2721v.013l.59.3455-.6214-.3455a1.5148,1.5148,0,0,0,.84,1.0272c.4505.24.8061.2134.8313-.0678l.0091.0054V89.3827l.0313-13.6321c0,.311-.3735.3421-.84.062a1.6454,1.6454,0,0,1-.8095-.9061l-.0309,12.453Z"/>
      <path class="cls-18" d="M166.7858,75.8126c.4669.249.84.2177.84-.062v-.0625a.6894.6894,0,0,0-.0794-.2351c-.0171-.0329-.0442-.066-.0663-.0994a2.1188,2.1188,0,0,0-.6947-.63,1.6477,1.6477,0,0,0-.304-.1384c-.2842-.0928-.4894-.0409-.5364.17v.0311a.5991.5991,0,0,0,.0309.1209A1.6454,1.6454,0,0,0,166.7858,75.8126Z"/>
      <path class="cls-16" d="M137.7163,100.7428l-2.21.1867-.1243,44.4134c.7057,1.0434,1.4423,2.056,2.1789,3.0687l.1553-43.28Z"/>
      <path class="cls-15" d="M137.7163,100.7428v4.3884l-.1553,43.28,0,.0411q1.0838,1.479,2.21,2.9143l.1244-47.8854Z"/>
      <polygon class="cls-18" points="139.895 103.482 147.645 102.828 138.868 81.602 137.748 81.695 139.895 103.482"/>
      <polygon class="cls-19" points="137.748 81.695 136.658 80.326 136.642 80.345 127.788 91.343 135.479 100.896 137.748 81.695"/>
      <path class="cls-16" d="M139.8949,103.4816l-.1244,47.8854c.2575.3279.5222.6473.7828.9714.4547.5633.9083,1.1272,1.3744,1.6806.2854.34.5757.6744.8648,1.01q.6621.768,1.334,1.5225c.214.2388.43.4736.6458.71l2.7169-.247.0621-23.4361v-.0027l.0935-30.7477Z"/>
      <path class="cls-15" d="M135.5045,100.9272l-.029.0023.0039-.0334-7.6916-9.5527-.1244,40.8966a112.9659,112.9659,0,0,0,7.7187,13.1029l.1243-44.4134Z"/>
      <polygon class="cls-17" points="135.479 100.896 135.476 100.93 135.505 100.927 137.716 100.743 139.895 103.482 137.748 81.695 135.479 100.896"/>
      <polygon class="cls-17" points="138.868 81.602 137.749 80.235 137.748 80.232 136.658 80.326 137.748 81.695 138.868 81.602"/>
      <path class="cls-21" d="M174.3179,142.4484l2.7077,1.5562c.0313,0,.0313.0311.0622.0311.6225.3424,1.1825.3113,1.4938-.1244.0138-.0175.0183-.0434.0309-.0619l.0019-.004a1.198,1.198,0,0,0,.169-.39,2.01,2.01,0,0,0,.0328-.2479c.0054-.0618.0214-.116.0214-.1813a3.1872,3.1872,0,0,0-.256-1.1691,3.79,3.79,0,0,0-1.4938-1.8674c-.0309,0-.0309-.0311-.0622-.0311v.0311l-.0313-.0311a7.0856,7.0856,0,0,0-2.7076-4.6374,1.3679,1.3679,0,0,0-.3113-.1869,2.7765,2.7765,0,0,0-.716-.3112,1.9585,1.9585,0,0,0-1.278.02,1.5949,1.5949,0,0,0-.864.8854c-.01.0228-.0271.0354-.0366.059a1.6721,1.6721,0,0,0-.6535-.5913,1.1445,1.1445,0,0,0-.5291-.1557.5711.5711,0,0,0-.2.0443.7409.7409,0,0,0-.4215.7571l-.0011.0078v.0934a3.1744,3.1744,0,0,0-1.0582-.996,1.4166,1.4166,0,0,0-1.02-.2176h-.0064c-.6226.1555-.8717.9024-.6539,1.8673a3.8271,3.8271,0,0,0,1.65,2.3344l5.3219,3.0812c.0621.0622.1556.0933.2178.1556l.0675.0336.1194.06A1.6026,1.6026,0,0,0,174.3179,142.4484Z"/>
      <path class="cls-21" d="M172.6994,101.77c-.9205-.5291-1.7353-.3573-2.1122.3319a1.9847,1.9847,0,0,0-.2221.9132,3.5076,3.5076,0,0,0,.029.4876c.0019.0146,0,.0268.0023.0414a1.0319,1.0319,0,0,0-.8625-.1244.9332.9332,0,0,0-.5695,1.0269,3.1048,3.1048,0,0,0,1.4629,2.49.0306.0306,0,0,1,.0313.031l2.5829,1.494.0313.018,3.735,2.1607c.0309,0,.0309.0311.0622.0311a.9317.9317,0,0,0,1.276-.0934,1.8785,1.8785,0,0,0,0-1.743,3.2917,3.2917,0,0,0-.9083-1.2881,2.5733,2.5733,0,0,0-.3677-.268c-.0313,0-.0313-.0311-.0622-.0311a1.1107,1.1107,0,0,0-.9026-.1556c-.0026-.0111-.0087-.0213-.0114-.0323a2.0256,2.0256,0,0,0-.7786-1.1315c-.0378-.0257-.074-.06-.1125-.0812v-.1246a5.1664,5.1664,0,0,0-1.2207-2.9752,4.7157,4.7157,0,0,0-.74-.7285A1.3727,1.3727,0,0,0,172.6994,101.77Z"/>
      <path class="cls-21" d="M151.8463,93.2108a2.2219,2.2219,0,0,0-.9025-1.65l-.5291-.3113a3.88,3.88,0,0,0-1.4939-2.5832c-.0622-.0622-.1243-.0932-.1869-.1556a1.3952,1.3952,0,0,0-.9613-.2175.9045.9045,0,0,0-.6569.5287,1.5358,1.5358,0,0,0-.1774-.1549.4076.4076,0,0,0-.1026-.0629.5021.5021,0,0,0-.264-.0879c-.0053,0-.011-.0055-.0164-.0055a.3351.3351,0,0,0-.3345.2957c-.0012.0063-.0065.0091-.0076.0155a.6547.6547,0,0,0-.187-.1245.918.918,0,0,0-.3536-.0917c-.3448-.0147-.58.2333-.58.6831a2.2218,2.2218,0,0,0,.9025,1.65l2.4586,1.4316c.0622.0622.1556.0935.2178.1557.0622.031.1557.0621.2178.0934l2.0234,1.1827a.8881.8881,0,0,0,.3845.0917C151.6247,93.8922,151.8463,93.6465,151.8463,93.2108Z"/>
    </g>
    <path id="Path-31" data-name="Path" class="cls-6" d="M89.8438,166.89l132.8124,76.68v9.0211L89.8438,175.9113Z"/>
    <path id="Path-32" data-name="Path" class="cls-1" d="M89.8438,166.89l132.8124,76.68,7.8126-4.5105L97.6562,162.38Z"/>
    <path id="Path-33" data-name="Path" class="cls-22" d="M97.6562,144.3377,230.4688,221.017v18.0422L97.6562,162.38Z"/>
    <g id="Group-7" data-name="Group">
      <path id="Path-34" data-name="Path" class="cls-1" d="M226.5625,83.4452l15.625-9.021,3.9063,2.2551L230.4688,85.7Z"/>
      <path id="Path-35" data-name="Path" class="cls-5" d="M246.0938,76.6793V261.6118l-3.9063,2.2554V83.4453l-7.8125,4.51L230.4688,85.7Z"/>
      <path id="Path-36" data-name="Path" class="cls-6" d="M238.2812,261.6118V85.7l3.9063-2.2551V263.8672Z"/>
    </g>
    <path id="Path-37" data-name="Path" class="cls-5" d="M222.6562,252.5908l23.4376-13.5316v-9.0211L222.6562,243.57Z"/>
    <path id="Path-38" data-name="Path" class="cls-1" d="M234.375,232.2932l3.9062-2.2551,3.9063,2.2551-7.8125,4.5107Z"/>
    <path id="Path-39" data-name="Path" class="cls-5" d="M234.375,83.4452V236.8039l-3.9062,2.2552V85.7Z"/>
    <g id="Group-8" data-name="Group">
      <path id="Path-40" data-name="Path" class="cls-5" d="M230.4688,119.53l15.625-9.0211v4.5105l-15.625,9.0211Z"/>
      <path id="Path-41" data-name="Path" class="cls-1" d="M238.2812,110.5085l3.9063,2.2552-7.8125,4.5107v-4.5107Z"/>
    </g>
    <path id="Path-42" data-name="Path" class="cls-1" d="M234.375,108.2533v-4.5107l3.9062,2.2553v4.51Z"/>
    <path id="Path-43" data-name="Path" class="cls-1" d="M234.375,142.0823v-4.5105l3.9062,2.2552v4.5107Z"/>
    <path id="Path-44" data-name="Path" class="cls-1" d="M234.375,175.9115v-4.5106l3.9062,2.2553v4.51Z"/>
    <path id="Path-45" data-name="Path" class="cls-1" d="M234.375,209.7406V205.23l3.9062,2.2554v4.5106Z"/>
    <path id="Path-46" data-name="Path" class="cls-1" d="M234.375,227.7828v-4.5107l3.9062,2.2554v4.5106Z"/>
    <path id="Path-47" data-name="Path" class="cls-6" d="M234.375,112.7637l3.9062-2.2553-3.9062-2.2551Z"/>
    <path id="Path-48" data-name="Path" class="cls-6" d="M234.375,146.5929l3.9062-2.2552-3.9062-2.2554Z"/>
    <path id="Path-49" data-name="Path" class="cls-6" d="M234.375,180.422l3.9062-2.2553-3.9062-2.2552Z"/>
    <path id="Path-50" data-name="Path" class="cls-6" d="M234.375,214.251l3.9062-2.2551-3.9062-2.2553Z"/>
    <path id="Path-51" data-name="Path" class="cls-6" d="M234.375,232.2932l3.9062-2.2551-3.9062-2.2553Z"/>
    <g id="Group-9" data-name="Group">
      <path id="Path-52" data-name="Path" class="cls-5" d="M230.4688,187.1878l15.625-9.0211v4.5106l-15.625,9.0212Z"/>
      <path id="Path-53" data-name="Path" class="cls-1" d="M238.2812,178.1667l3.9063,2.2553-7.8125,4.5106V180.422Z"/>
    </g>
    <g id="Group-10" data-name="Group">
      <path id="Path-54" data-name="Path" class="cls-5" d="M230.4688,153.3587l15.625-9.021v4.51l-15.625,9.021Z"/>
      <path id="Path-55" data-name="Path" class="cls-1" d="M238.2812,144.3377l3.9063,2.2552-7.8125,4.5105v-4.5105Z"/>
    </g>
    <g id="Group-11" data-name="Group">
      <path id="Path-56" data-name="Path" class="cls-5" d="M230.4688,221.017l15.625-9.0211v4.5105l-15.625,9.0211Z"/>
      <path id="Path-57" data-name="Path" class="cls-1" d="M238.2812,211.9959l3.9063,2.2551-7.8125,4.5107V214.251Z"/>
    </g>
    <path id="Path-58" data-name="Path" class="cls-6" d="M97.6562,166.89l125,72.169,3.9063-2.2553-125-72.1688Z"/>
    <path id="Path-59" data-name="Path" class="cls-23" d="M234.375,218.7617l-3.9062,2.2553v18.0422l3.9062-2.2553Z"/>
    <path id="Path-60" data-name="Path" class="cls-22" d="M97.6562,9.0211v9.0211L230.4688,94.7215V85.7Z"/>
    <path id="Path-61" data-name="Path" class="cls-23" d="M234.375,83.4452,230.4688,85.7v9.0211l3.9062-2.2552Z"/>
    <path id="Path-62" data-name="Path" class="cls-5" d="M101.5625,164.6351v4.5105L97.6562,166.89Z"/>
    <path id="Path-63" data-name="Path" class="cls-24" d="M234.375,83.4452,230.4688,85.7,97.6562,9.0211l3.9063-2.2552Z"/>
    <g id="Group-12" data-name="Group">
      <g id="Group-13" data-name="Group">
        <path id="Path-64" data-name="Path" class="cls-1" d="M402.3438,9.0211,386.7188,0l-3.9063,2.2551,15.625,9.0211Z"/>
        <path id="Path-65" data-name="Path" class="cls-6" d="M382.8125,2.2552V24.8081l3.9063,2.2552V9.0212l7.8124,4.5105,3.9063-2.2554Z"/>
        <path id="Path-66" data-name="Path" class="cls-5" d="M390.625,24.8081V11.2763l-3.9062-2.2551V27.0633Z"/>
      </g>
      <path id="Path-67" data-name="Path" class="cls-1" d="M359.375,33.8292,343.75,24.8081l-3.9062,2.2552,15.625,9.0211Z"/>
      <path id="Path-68" data-name="Path" class="cls-6" d="M339.8438,27.0633V49.6161l3.9062,2.2553V33.8292l7.8125,4.51,3.9063-2.2552Z"/>
      <path id="Path-69" data-name="Path" class="cls-5" d="M347.6562,49.6161V36.0844L343.75,33.8292V51.8714Z"/>
      <g id="Group-14" data-name="Group">
        <path id="Path-70" data-name="Path" class="cls-1" d="M316.4062,58.6371l-15.625-9.021-3.9062,2.2553L312.5,60.8925Z"/>
        <path id="Path-71" data-name="Path" class="cls-6" d="M296.875,51.8714V74.4241l3.9062,2.2552V58.6371l7.8126,4.5107L312.5,60.8925Z"/>
        <path id="Path-72" data-name="Path" class="cls-5" d="M304.6875,74.4241V60.8925l-3.9063-2.2554V76.6793Z"/>
      </g>
      <path id="Path-73" data-name="Path" class="cls-1" d="M390.625,2.2552l-132.8125,76.68-3.9063-2.2554L386.7188,0Z"/>
      <path id="Path-74" data-name="Path" class="cls-5" d="M386.7188,9.0211v-4.51L347.6562,27.0633l3.9063,2.2552Z"/>
      <path id="Path-75" data-name="Path" class="cls-5" d="M343.75,33.8292V29.3185L304.6875,51.8714l3.9063,2.2552Z"/>
      <path id="Path-76" data-name="Path" class="cls-5" d="M300.7812,58.6371v-4.51L261.7188,76.6793l3.9062,2.2554Z"/>
      <path id="Path-77" data-name="Path" class="cls-7" d="M398.4375,198.4642l-19.5313-11.2764,7.8126-4.5105L406.25,193.9537Z"/>
      <path id="Path-78" data-name="Path" class="cls-7" d="M355.4688,223.2721l-19.5313-11.2762,7.8125-4.5106,19.5312,11.2764Z"/>
      <path id="Path-79" data-name="Path" class="cls-7" d="M312.5,248.08l-19.5312-11.2764,7.8124-4.5107L320.3125,243.57Z"/>
      <path id="Path-80" data-name="Path" class="cls-7" d="M269.5312,272.8883,250,261.6118l7.8125-4.5105,19.5313,11.2765Z"/>
      <g id="Group-15" data-name="Group">
        <path id="Path-81" data-name="Path" class="cls-9" d="M273.4375,268.3778l-3.9063,2.2551V243.57l3.9063-2.2554Z"/>
        <path id="Path-82" data-name="Path" class="cls-6" d="M265.625,268.3778l3.9062,2.2551V239.0592l-3.9062-2.2553Z"/>
      </g>
      <g id="Group-16" data-name="Group">
        <path id="Path-83" data-name="Path" class="cls-9" d="M402.3438,193.9537l-3.9063,2.2552V182.6773l3.9063-2.2553Z"/>
        <path id="Path-84" data-name="Path" class="cls-6" d="M394.5312,193.9537l3.9063,2.2552V182.6773l-3.9063-2.2553Z"/>
      </g>
      <g id="Group-17" data-name="Group">
        <path id="Path-85" data-name="Path" class="cls-9" d="M316.4062,243.57,312.5,245.825V232.2932l3.9062-2.2551Z"/>
        <path id="Path-86" data-name="Path" class="cls-6" d="M308.5938,243.57,312.5,245.825V232.2932l-3.9062-2.2551Z"/>
      </g>
      <g id="Group-18" data-name="Group">
        <path id="Path-87" data-name="Path" class="cls-9" d="M359.375,218.7617l-3.9062,2.2553V207.4853l3.9062-2.2554Z"/>
        <path id="Path-88" data-name="Path" class="cls-6" d="M351.5625,218.7617l3.9063,2.2553V207.4853l-3.9063-2.2554Z"/>
      </g>
      <g id="Group-19" data-name="Group">
        <path id="Path-89" data-name="Path" class="cls-10" d="M402.3438,9.0211V162.38L269.5312,239.0591V85.7Z"/>
      </g>
      <path id="Path-90" data-name="Path" class="cls-5" d="M410.1562,166.89,277.3438,243.57v9.0211l132.8124-76.6795Z"/>
      <path id="Path-91" data-name="Path" class="cls-1" d="M410.1562,166.89,277.3438,243.57l-7.8126-4.5105L402.3438,162.38Z"/>
      <path id="Path-92" data-name="Path" class="cls-23" d="M402.3438,144.3377,269.5312,221.017v18.0422L402.3438,162.38Z"/>
      <g id="Group-20" data-name="Group">
        <path id="Path-93" data-name="Path" class="cls-1" d="M273.4375,83.4452l-15.625-9.021-3.9063,2.2551L269.5312,85.7Z"/>
        <path id="Path-94" data-name="Path" class="cls-6" d="M253.9062,76.6793V261.6118l3.9063,2.2554V83.4453l7.8125,4.51L269.5312,85.7Z"/>
        <path id="Path-95" data-name="Path" class="cls-5" d="M261.7188,261.6118V85.7l-3.9063-2.2551V263.8672Z"/>
      </g>
      <path id="Path-96" data-name="Path" class="cls-6" d="M277.3438,252.5908l-23.4376-13.5316v-9.0211L277.3438,243.57Z"/>
      <path id="Path-97" data-name="Path" class="cls-1" d="M265.625,232.2932l-3.9062-2.2551-3.9063,2.2551,7.8125,4.5107Z"/>
      <path id="Path-98" data-name="Path" class="cls-6" d="M265.625,83.4452V236.8039l3.9062,2.2552V85.7Z"/>
      <g id="Group-21" data-name="Group">
        <path id="Path-99" data-name="Path" class="cls-6" d="M269.5312,119.53l-15.625-9.0211v4.5105l15.625,9.0211Z"/>
        <path id="Path-100" data-name="Path" class="cls-1" d="M261.7188,110.5085l-3.9063,2.2552,7.8125,4.5107v-4.5107Z"/>
      </g>
      <path id="Path-101" data-name="Path" class="cls-1" d="M265.625,108.2533v-4.5107l-3.9062,2.2553v4.51Z"/>
      <path id="Path-102" data-name="Path" class="cls-1" d="M265.625,142.0823v-4.5105l-3.9062,2.2552v4.5107Z"/>
      <path id="Path-103" data-name="Path" class="cls-1" d="M265.625,175.9115v-4.5106l-3.9062,2.2553v4.51Z"/>
      <path id="Path-104" data-name="Path" class="cls-1" d="M265.625,209.7406V205.23l-3.9062,2.2554v4.5106Z"/>
      <path id="Path-105" data-name="Path" class="cls-1" d="M265.625,227.7828v-4.5107l-3.9062,2.2554v4.5106Z"/>
      <path id="Path-106" data-name="Path" class="cls-5" d="M265.625,112.7637l-3.9062-2.2553,3.9062-2.2551Z"/>
      <path id="Path-107" data-name="Path" class="cls-5" d="M265.625,146.5929l-3.9062-2.2552,3.9062-2.2554Z"/>
      <path id="Path-108" data-name="Path" class="cls-5" d="M265.625,180.422l-3.9062-2.2553,3.9062-2.2552Z"/>
      <path id="Path-109" data-name="Path" class="cls-5" d="M265.625,214.251l-3.9062-2.2551,3.9062-2.2553Z"/>
      <path id="Path-110" data-name="Path" class="cls-5" d="M265.625,232.2932l-3.9062-2.2551,3.9062-2.2553Z"/>
      <g id="Group-22" data-name="Group">
        <path id="Path-111" data-name="Path" class="cls-6" d="M269.5312,187.1878l-15.625-9.0211v4.5106l15.625,9.0212Z"/>
        <path id="Path-112" data-name="Path" class="cls-1" d="M261.7188,178.1667l-3.9063,2.2553,7.8125,4.5106V180.422Z"/>
      </g>
      <g id="Group-23" data-name="Group">
        <path id="Path-113" data-name="Path" class="cls-6" d="M269.5312,153.3587l-15.625-9.021v4.51l15.625,9.021Z"/>
        <path id="Path-114" data-name="Path" class="cls-1" d="M261.7188,144.3377l-3.9063,2.2552,7.8125,4.5105v-4.5105Z"/>
      </g>
      <g id="Group-24" data-name="Group">
        <path id="Path-115" data-name="Path" class="cls-6" d="M269.5312,221.017l-15.625-9.0211v4.5105l15.625,9.0211Z"/>
        <path id="Path-116" data-name="Path" class="cls-1" d="M261.7188,211.9959l-3.9063,2.2551,7.8125,4.5107V214.251Z"/>
      </g>
      <path id="Path-117" data-name="Path" class="cls-5" d="M402.3438,166.89l-125,72.169-3.9063-2.2553,125-72.1688Z"/>
      <path id="Path-118" data-name="Path" class="cls-22" d="M265.625,218.7617l3.9062,2.2553v18.0422l-3.9062-2.2553Z"/>
      <path id="Path-119" data-name="Path" class="cls-23" d="M402.3438,9.0211v9.0211L269.5312,94.7215V85.7Z"/>
      <path id="Path-120" data-name="Path" class="cls-22" d="M265.625,83.4452,269.5312,85.7v9.0211l-3.9062-2.2552Z"/>
      <path id="Path-121" data-name="Path" class="cls-6" d="M398.4375,164.6351v4.5105l3.9063-2.2554Z"/>
      <path id="Path-122" data-name="Path" class="cls-24" d="M265.625,83.4452,269.5312,85.7,402.3438,9.0211l-3.9063-2.2552Z"/>
    </g>
    <g>
      <polygon class="cls-11" points="351.453 106.905 351.41 106.959 351.453 106.962 351.453 106.905"/>
      <polygon class="cls-11" points="344.761 85.835 344.742 85.859 344.761 85.86 344.761 85.835"/>
      <polygon class="cls-11" points="359.327 94.269 361.381 81.259 362.502 79.89 363.547 79.979 363.529 79.89 362.408 79.797 361.319 81.166 359.265 94.176 358.051 94.082 356.961 95.452 356.993 108.586 353.974 127.634 351.546 127.419 351.546 127.447 351.546 130.372 346.309 136.873 346.314 136.936 351.577 130.404 351.577 127.478 354.005 127.696 349.43 156.579 349.465 156.581 354.036 127.727 357.055 108.679 357.055 108.648 356.993 95.545 358.113 94.176 359.327 94.269"/>
      <path class="cls-11" d="M345.5391,130.9015l-5.3219,3.0813a1.738,1.738,0,0,1-.5367.2116,1.6816,1.6816,0,0,0,.5676-.2116l5.3223-3.0813c.0457-.0229.1056-.0457.16-.0686l-.0008-.013C345.6692,130.8471,345.5933,130.8743,345.5391,130.9015Z"/>
      <path class="cls-11" d="M322.7253,106.75c.38-.1789.69-.0926.8377.1849-.1316-.3294-.46-.4392-.8686-.2471l-.52.3059c.0049.0256.0187.041.0225.0676Z"/>
      <path class="cls-11" d="M342.1467,95.7629l.0011.0175c0-.0592.0119-.121.0153-.181C342.1593,95.6535,342.1478,95.7094,342.1467,95.7629Z"/>
      <path class="cls-11" d="M338.4117,71.7044a1.1839,1.1839,0,0,1,.5657-.1813A1.1323,1.1323,0,0,0,338.4117,71.7044Z"/>
      <path class="cls-11" d="M342.178,96.2609c-.0019-.01,0-.02-.0019-.0294a3.1487,3.1487,0,0,0-1.43,2.55l.0027.0126A3.2421,3.2421,0,0,1,342.178,96.2609Z"/>
      <polygon class="cls-11" points="357.055 108.742 358.736 98.626 357.055 108.71 357.055 108.742"/>
      <polygon class="cls-11" points="364.805 125.517 364.836 125.478 364.743 96.199 364.805 125.517"/>
      <path class="cls-11" d="M331.44,127.6025a1.4193,1.4193,0,0,1-.8713-1.3383A1.3885,1.3885,0,0,0,331.44,127.6025Z"/>
      <polygon class="cls-11" points="366.61 94.892 367.971 95.007 367.979 94.892 366.554 94.77 366.578 94.889 366.61 94.892"/>
      <polygon class="cls-11" points="344.886 115.083 344.886 106.41 344.854 106.407 344.88 113.669 344.885 115.083 344.886 115.083"/>
      <path class="cls-11" d="M327.1973,96.079l.0023-.0028-.0233-.002.0194-.0241-.082-.007.0935,35.17-.9335,12.9475-6.7226,8.3724v.0311L319.6133,176l-2.7184,3.367c-.172.0106-.3441.0214-.5154.03.1873-.0065.3682.0059.557-.0044a35.5846,35.5846,0,0,0,6.91-1.1515,44.7573,44.7573,0,0,0,5.6331-1.93c1.4084-.5919,2.861-1.2987,4.3232-2.0608-.1888.0978-.3784.1994-.5672.2955-.401.2038-.7992.3959-1.1971.5867q-.9321.4458-1.8562.8447c-.2438.1056-.4883.2147-.7309.3153-.1114.0463-.2243.1-.3357.145-.4818.1973-.9544.3667-1.429.5419q-1.2515.4623-2.4792.8369c-.3173.0966-.6366.2015-.9517.29-.1477.0411-.2919.071-.4387.11a36.0632,36.0632,0,0,1-5.9761,1.095l-.01.0008c-.3052.0278-.6016.0338-.9034.0525L319.6442,176l-.0622-23.436,6.7226-8.3724.9339-12.9475-.0935-35.17Z"/>
      <path class="cls-11" d="M349.0562,124.9259v-.0313c.0313,0,.0313-.0311.0622-.0311a1.0863,1.0863,0,0,1,1.466.1l-.003-.0063c-.3113-.4357-.8717-.4668-1.4939-.1246-.0313,0-.0313.0311-.0625.0311v.0311l-.0111.0113c.0027.0181.0088.0327.0111.0511Z"/>
      <polygon class="cls-11" points="366.953 96.385 364.837 125.477 364.871 125.434 366.983 96.385 367.96 95.157 367.961 95.153 366.953 96.385"/>
      <path class="cls-11" d="M348.0972,123.4067a1.9912,1.9912,0,0,0-1.8421.0252c-.1247.0622-.2178.1245-.3425.1867a1.3469,1.3469,0,0,1,.3734-.1555A2.0724,2.0724,0,0,1,348.0972,123.4067Z"/>
      <path class="cls-11" d="M343.05,127.6017a.7077.7077,0,0,0-.39.0344.9567.9567,0,0,1,.3894-.0336Z"/>
      <path class="cls-11" d="M341.6176,119.8837v-.1243c0-2.0232-2.49-2.241-5.54-.467,3.019-1.7429,5.5088-1.5251,5.5088.467v.1243a5.0339,5.0339,0,0,1-.8713,2.3655l.0263-.015a4.9936,4.9936,0,0,0,.845-2.3192v.84l3.33.28-3.2989-.3113Z"/>
      <path class="cls-11" d="M330.5687,128.1v-.9648l-.0313.996c.0313,2.0231,2.49,2.2408,5.54.4668.3853-.2242.761-.4692,1.1238-.73-.3529.2494-.7175.4842-1.0925.6984C333.0585,130.31,330.5687,130.1235,330.5687,128.1Z"/>
      <path class="cls-11" d="M338.4117,71.7044a1.5541,1.5541,0,0,0-.8091.9648A1.6346,1.6346,0,0,1,338.4117,71.7044Z"/>
      <path class="cls-11" d="M337.603,72.7318v.0459a.1949.1949,0,0,0,.05.0911A.236.236,0,0,1,337.603,72.7318Z"/>
      <path class="cls-11" d="M338.443,88.2311a1.0939,1.0939,0,0,1-.5879.1895,1.08,1.08,0,0,0,.6188-.1584,1.75,1.75,0,0,0,.84-.9959l-.0454.0251A1.4607,1.4607,0,0,1,338.443,88.2311Z"/>
      <path class="cls-11" d="M330.5687,127.1356v-.996c0-1.2615.9567-2.9223,2.4162-4.4241-1.4766,1.51-2.4475,3.1849-2.4475,4.4552v.9649l-3.2989,4.1083,8.87.747-8.8394-.747Z"/>
      <path class="cls-11" d="M334.5524,86.83l.0313,6.038-1.6186.9467v.001l.5936-.33,1.0562-.6178-.0312-6.038.0309-.0388-.0306-9.2706a.7439.7439,0,0,1-.0618.1775Z"/>
      <path class="cls-11" d="M332.9342,78.3651l0,.1732a.3253.3253,0,0,0,.1785.0527A.2223.2223,0,0,1,332.9342,78.3651Z"/>
      <path class="cls-11" d="M316.9052,111.2625a2.129,2.129,0,0,1,.903-1.65l.1865-.0932a1.3052,1.3052,0,0,1,.3422-.6849,1.0107,1.0107,0,0,1,.28-.2489.5031.5031,0,0,1,.28-.0934,3.7662,3.7662,0,0,1,1.5873-2.1786.2826.2826,0,0,1,.2179-.0935.9433.9433,0,0,1,1.33.3449.9446.9446,0,0,0-1.361-.407c-.0626.031-.1557.0934-.2182.1245a4.0142,4.0142,0,0,0-1.587,2.1786.9051.9051,0,0,0-.28.0624,1.9889,1.9889,0,0,0-.28.2489,1.2,1.2,0,0,0-.3426.6846l-.1865.0935a2.2227,2.2227,0,0,0-.9026,1.6494.8462.8462,0,0,0,.0961.4063A.9089.9089,0,0,1,316.9052,111.2625Z"/>
      <polygon class="cls-11" points="308.409 112.041 309.496 110.674 309.467 110.671 308.377 112.041 299.601 133.267 308.408 112.043 308.409 112.041"/>
      <path class="cls-11" d="M333.7742,93.8954c-.45.27-.8053.2445-.8305-.0363l-.01.0052c0,.28.3734.3113.84.0624.4669-.28.8407-.747.8407-.9961l-.01.0056A1.58,1.58,0,0,1,333.7742,93.8954Z"/>
      <polygon class="cls-11" points="344.762 85.973 344.823 85.897 344.8 85.895 344.762 85.942 344.762 85.973"/>
      <path class="cls-11" d="M311.8946,179.2367c-.2178-.0181-.4337-.0514-.6508-.0793.24.0355.4719.08.713.11.1091.0128.2258.0116.3353.023-.1316-.0133-.2666-.018-.3975-.033Z"/>
      <path class="cls-11" d="M347.6868,93.4287a2.502,2.502,0,0,1,.9025-.9026c.0313,0,.0313-.0311.0622-.0311.528-.3106.9937-.28,1.2741.0914-.0118-.0183-.016-.0432-.029-.06a.9318.9318,0,0,0-1.276-.0935c-.0313,0-.0313.0313-.0626.0313a3.1122,3.1122,0,0,0-.9025.9024c-.1209-.3634-.4791-.4557-.8713-.2308v.0753C347.1886,92.993,347.562,93.0552,347.6868,93.4287Z"/>
      <path class="cls-11" d="M301.8036,175.674c.0206.0135.042.0257.0625.0393.4483.2922.9045.5716,1.373.83l.008.004C302.7542,176.277,302.2755,175.9817,301.8036,175.674Z"/>
      <path class="cls-11" d="M331.1886,96.4444l4.7649.4362.03.0028.0622,22.4294c.0107-.0063.0206-.0142.0313-.02l-.0622-22.44-.0618-.0052Z"/>
      <path class="cls-11" d="M344.45,91.81a4.8635,4.8635,0,0,0-1.6109,1.7158,4.7166,4.7166,0,0,1,1.6109-1.6847q.1866-.0936.3735-.1867a1.2718,1.2718,0,0,1,1.77.5666,1.2639,1.2639,0,0,0-1.77-.6381v.04Q344.6369,91.717,344.45,91.81Z"/>
      <path class="cls-11" d="M309.6848,178.8943c-.7119-.1484-1.4214-.329-2.1065-.534-.0347-.0105-.0687-.0229-.1034-.0336-.0713-.0219-.1415-.0463-.2125-.0689-.55-.1734-1.0887-.3685-1.6178-.581q-.2615-.1053-.5192-.2162c-.4818-.2079-.9536-.4346-1.4175-.6753q.0795.0414.1594.0823c.4181.214.8423.4172,1.2753.6053q.2929.1266.5894.2455.777.3118,1.5823.5671c.11.035.2182.0732.3288.1066.6092.182,1.2406.3366,1.8727.4747.1526.0331.3063.0639.46.0941.116.0173.2316.0344.346.0536C310.1089,178.9752,309.8934,178.94,309.6848,178.8943Z"/>
      <path class="cls-12" d="M380.9479,108.2335c-.02.09-.0374.1791-.0572.2687C380.9105,108.4125,380.928,108.3232,380.9479,108.2335Z"/>
      <path class="cls-12" d="M381.6463,104.652c-.037.2156-.0774.4317-.1163.6474C381.5689,105.0835,381.609,104.8676,381.6463,104.652Z"/>
      <path class="cls-12" d="M381.53,105.2994c-.177.976-.3689,1.954-.5821,2.9341Q381.2666,106.7634,381.53,105.2994Z"/>
      <path class="cls-12" d="M382.14,101.4489c-.14,1.0634-.3087,2.1321-.4941,3.2031C381.831,103.581,382.0011,102.5123,382.14,101.4489Z"/>
      <path class="cls-12" d="M373.5817,129.6567a114.5215,114.5215,0,0,1-10.8933,18.4563c-.1346.1839-.28.3569-.4154.54l-.0545.0744c-.6851.94-1.3954,1.8528-2.11,2.7607-.1072.136-.2178.2682-.3254.4035q-.6054.7628-1.22,1.5121-1.0894,1.3188-2.2121,2.595c-.3193.3644-.6226.75-.9457,1.1091a92.5363,92.5363,0,0,1-6.7848,6.7538c-1.8364,1.6494-3.7041,3.1746-5.6335,4.6063a67.3136,67.3136,0,0,1-6.8173,4.5063l1.6987-.98c20.4906-12.695,37.5362-38.5846,43.0222-63.4918a101.4217,101.4217,0,0,1-7.1846,20.8743C373.6752,129.47,373.613,129.5632,373.5817,129.6567Z"/>
      <path class="cls-12" d="M309.7469,178.9254c.074.0129.1522.0241.2289.0355-.1537-.03-.3074-.061-.46-.0941C309.594,178.8838,309.6687,178.9091,309.7469,178.9254Z"/>
      <path class="cls-12" d="M309.5158,178.8668c-.6321-.1381-1.2635-.2927-1.8727-.4747C308.2542,178.5771,308.8814,178.7294,309.5158,178.8668Z"/>
      <path class="cls-12" d="M329.4792,176.3111a44.7573,44.7573,0,0,1-5.6331,1.93,35.5846,35.5846,0,0,1-6.91,1.1515c-.1888.01-.37-.0021-.557.0044-.0331.0016-.0663.0044-.0991.0057-.4338.0163-.8633.0228-1.2894.0219-.2983-.0008-.5974,0-.8923-.01-.02-.0008-.0415,0-.0618-.0007-.4932-.017-.98-.0568-1.4659-.1-.0927-.0083-.1866-.0139-.2789-.0231-.11-.0114-.2262-.01-.3353-.023-.2411-.03-.473-.0749-.713-.11-.06-.0077-.119-.0134-.1781-.0218-.2148-.0318-.4288-.0647-.6409-.1017-.0347-.0062-.0687-.0131-.103-.0194-.1144-.0192-.23-.0363-.346-.0536,7.0179,1.38,15.3675-.1256,24.3656-4.9315l1.7052-.9841c-.2529.1471-.5035.2643-.7561.406q-.7461.4141-1.4881.799C332.34,175.0124,330.8876,175.7192,329.4792,176.3111Z"/>
      <path class="cls-12" d="M301.545,175.5176c.1037.07.2159.1271.3211.1957-.0205-.0136-.0419-.0258-.0625-.0393C301.7189,175.6188,301.6289,175.5739,301.545,175.5176Z"/>
      <polygon class="cls-12" points="303.239 176.543 303.249 176.548 303.247 176.547 303.239 176.543"/>
      <path class="cls-12" d="M303.7079,176.7852c.0534.027.106.0552.1594.0824q-.08-.0409-.1594-.0823Z"/>
      <path class="cls-25" d="M305.732,177.7184q-.297-.1183-.5894-.2455"/>
      <path class="cls-25" d="M305.732,177.7184q.777.3118,1.5823.5671"/>
      <path class="cls-25" d="M305.1426,177.4729c-.433-.1881-.8572-.3913-1.2753-.6053"/>
      <path class="cls-12" d="M382.63,96.2909c.0827-1.3894.1373-2.7715.1331-4.1362v-.0009C382.7667,93.5188,382.7137,94.9011,382.63,96.2909Z"/>
      <path class="cls-25" d="M382.1743,101.2065c-.01.0807-.0233.1617-.0339.2424"/>
      <path class="cls-25" d="M303.2391,176.5433c-.4685-.2584-.9247-.5378-1.373-.83"/>
      <path class="cls-25" d="M382.589,96.9764q-.1454,2.1011-.4147,4.23"/>
      <path class="cls-25" d="M382.63,96.2909c-.0138.2287-.0252.4562-.0412.6855"/>
      <path class="cls-12" d="M307.5371,178.3653c.0343.01.0717.0165.106.0268-.1106-.0334-.2189-.0716-.3288-.1066C307.39,178.3093,307.4612,178.3422,307.5371,178.3653Z"/>
      <polygon class="cls-13" points="344.885 115.083 344.886 115.153 344.886 115.083 344.885 115.083"/>
      <polygon class="cls-13" points="336.015 96.821 327.2 96.076 327.197 96.079 331.189 96.444 335.954 96.847 336.015 96.852 344.762 85.973 344.762 85.942 336.015 96.821"/>
      <polygon class="cls-13" points="367.96 95.157 368.073 95.016 367.961 95.153 367.96 95.157"/>
      <path class="cls-13" d="M308.3775,112.0406l1.0894-1.3694.029.0024.0019-.0024,1.1208.0933,8.87,11.0178.0626,30.6876v.0628l6.7226-8.3724.9335-12.9475-.0935-35.17.082.007,5.7385-7.1271v-.0384l-.03-10.3638a.2078.2078,0,0,1-.063-.156c.0622-.031.0622-.031.0622-.0623l.0008.2183a.2193.2193,0,0,0,.0309.0175l0-.1732v-.0626a1.6341,1.6341,0,0,1,.8091-.9649c.4356-.2489.7782-.2489.8716.0312V77.4a.5934.5934,0,0,1-.0309.121l.0306,9.2706,1.3385-1.673,1.6808.1556-.0309-12.4965c-.01-.0263-.0313-.0441-.0313-.0774.0309,0,.0309,0,.0309-.0311a1.5541,1.5541,0,0,1,.8091-.9648,1.1323,1.1323,0,0,1,.5657-.1813.2789.2789,0,0,1,.306.2124v.0311a.6.6,0,0,1-.0309.121l.0309,13.5111,5.4584.46.0195-.0242V85.86l.0622.0053-.0233.0291.0233.002v5.6865a1.2639,1.2639,0,0,1,1.77.6381,2.1083,2.1083,0,0,1,.1911.8649v.0493c.3922-.2249.75-.1326.8713.2308a3.1122,3.1122,0,0,1,.9025-.9024c.0313,0,.0313-.0313.0626-.0313a.9318.9318,0,0,1,1.276.0935c.013.0171.0172.042.029.06l.0019.0018a.9535.9535,0,0,1,.0923.1951c.01.0263.0267.0455.0344.0732a2.1742,2.1742,0,0,1-.1267,1.4748,3.3677,3.3677,0,0,1-1.276,1.5562c-.0309,0-.0309.0311-.0622.0311l-3.7658,2.1784.0568,15.5719-.0259-7.2617.0312.0026v-.0026l6.5243.5514.0427-.0533v.0569l.01.0009.0213-.0267v.0285l.0309.0025-.0309.0381.0622,20.413,2.4277.2151,3.0189-19.0477-.0313-13.1342,1.0895-1.3693,1.2139.0932,2.0542-13.01,1.0894-1.3694,1.12.0933.018.09.0442.0038,2.8633,14.0992-.0313.031.1313.6568,1.4251.1213-.0084.1157.1019.0087-.3738,5.2289-.0184.25,5.7827,28.7585.18.03c5.7266-12.2627,9.0881-25.2412,9.0572-37.2239-.01-9.2527-2.0683-16.7842-5.6827-22.3126-7.623-11.6251-22.086-14.3832-38.8421-5.6824-.6965.3617-1.3988.7519-2.103,1.1534l-.6142.3549c-25.5119,14.9257-46.1216,50.48-46.3646,79.9456l.0035,1.4034c.0091.6561.02,1.3112.05,1.9494.008.1693.0217.333.0309.501.0385.6929.0854,1.3785.148,2.05.0164.1795.037.3551.0553.5331.0683.6628.1461,1.3169.238,1.958.0214.151.0443.3.0668.45q.1556,1.0188.3486,2.0008c.0191.0972.0374.195.0573.2916a35.7419,35.7419,0,0,0,3.6449,10.1883c.0321.058.0652.1146.098.1721q.4259.7563.8866,1.4674c.0633.0973.1263.1944.19.29.2827.4262.5768.838.8778,1.24.0862.1144.1705.2311.2579.3434.2868.37.5851.7242.8877,1.0725.1071.1227.21.251.3189.3711.2834.3134.5787.6088.8747.9038.5157.5112,1.0429,1.0047,1.596,1.4591l-.1247-40.8965Zm9.3994-2.49.1865-.0935a1.2,1.2,0,0,1,.3426-.6846,1.9889,1.9889,0,0,1,.28-.2489.9051.9051,0,0,1,.28-.0624,4.0142,4.0142,0,0,1,1.587-2.1786c.0625-.0311.1556-.0935.2182-.1245a.9446.9446,0,0,1,1.361.407,1.4589,1.4589,0,0,1,.1416.428l.52-.3059c.4082-.1921.737-.0823.8686.2471a.8469.8469,0,0,1,.0961.4064,2.1283,2.1283,0,0,1-.9025,1.65l-2.023,1.1827a.9507.9507,0,0,1-.2178.1557c-.0625.0311-.1556.0621-.2182.0932l-2.4585,1.4318c-.4082.1922-.7374.0822-.8687-.2474a.8462.8462,0,0,1-.0961-.4063A2.2227,2.2227,0,0,1,317.7769,109.5508Z"/>
      <path class="cls-14" d="M349.4652,156.5815l-.0355-.003,4.575-28.8826-2.4273-.218v2.9256l-5.2632,6.5321.0031.0351,2.3006,26.8273c.0462-.0414.092-.0835.1381-.1251,2.24-2.0124,4.4224-4.1926,6.5182-6.4917l.0717-.0783-5.8853-.4931Z"/>
      <path class="cls-14" d="M319.6442,176l-2.7169,3.3651c.3018-.0187.5982-.0247.9034-.0525l.01-.0008a36.0632,36.0632,0,0,0,5.9761-1.095l2.4879-34.0252-6.7226,8.3724Z"/>
      <path class="cls-14" d="M373.52,129.3765l.0622.28c.0313-.0935.0935-.1867.1244-.28Z"/>
      <path class="cls-15" d="M335.984,96.8834l-.03-.0028-4.7649-.4362-3.9913-.3654-.0523-.0048.0935,35.17,3.2989-4.1083v-.9649c0-1.27.9709-2.9452,2.4475-4.4552a14.6655,14.6655,0,0,1,3.0613-2.4027Z"/>
      <path class="cls-16" d="M351.5461,127.4468v-.0283l-.0622-20.413-6.5983,8.1787v-.0313l0-.07-.005-1.4143-.0568-15.5719h0L342.24,99.5913a.03.03,0,0,1-.0312.031c-.5886.3534-1.1036.2224-1.3344-.2521a740.5809,740.5809,0,0,1-.1286-.5571c0-.006.0027-.0126.0027-.0185l-.0027-.0126a3.1487,3.1487,0,0,1,1.43-2.55,2.476,2.476,0,0,1-.0294-.4375l.0011-.0136-.0011-.0175c.0011-.0535.0126-.1094.0164-.1635a4.761,4.761,0,0,1,.676-2.0733A4.8635,4.8635,0,0,1,344.45,91.81q.1866-.0934.3735-.1869V85.8967l-.0615.0764-8.7467,10.8792.0622,22.44c3.05-1.774,5.54-1.5562,5.54.467v.9648l3.2989.3113.309,3.0886a4.0292,4.0292,0,0,1,.6871-.5055c.1247-.0622.2178-.1245.3425-.1867a1.9912,1.9912,0,0,1,1.8421-.0252,1.8935,1.8935,0,0,1,.9167,1.4992l.0111-.0113v-.0311c.0312,0,.0312-.0311.0625-.0311.6222-.3422,1.1826-.3111,1.4939.1246l.003.0063c.008.01.02.014.0279.0248a1.31,1.31,0,0,1,.1033.2384,1.21,1.21,0,0,1,.0615.1421,2.7652,2.7652,0,0,1-.1648,1.6737,3.7073,3.7073,0,0,1-1.4939,1.8363c-.0309,0-.0309.0311-.0622.0311l-2.7076,1.5562c-.1557.0933-.28.1867-.4048.2489q-.0931.0467-.1869.0935l-.0271.0116.0008.013c.02-.0082.0412-.0164.0576-.0246l.5207,6.0646,5.2372-6.5Z"/>
      <polygon class="cls-16" points="351.484 106.936 351.463 106.963 351.484 106.965 351.484 106.936"/>
      <polygon class="cls-17" points="332.965 93.815 332.934 93.833 332.965 93.816 332.965 93.815"/>
      <path class="cls-17" d="M327.2,96.0762l8.8157.7448,8.7464-10.8788.0385-.0475.0233-.0291-.0622-.0053-.0195-.0016-5.4584-.46V87.235a.5644.5644,0,0,1-.0145.0564l.0454-.0251a1.75,1.75,0,0,1-.84.9959,1.08,1.08,0,0,1-.6188.1584.2856.2856,0,0,1-.1251-.0465c-.0087-.0058-.0236-.0058-.0309-.0126a.2251.2251,0,0,1-.0965-.1928l.0313-.0173V85.2742l-1.6808-.1556-1.3385,1.673-.0309.0388.0312,6.038-1.0562.6178.2155-.12.8407-.4668c0,.0108-.0091.0255-.01.0367l.01-.0056c0,.2491-.3738.7159-.8407.9961-.4666.2489-.84.2178-.84-.0624l.01-.0052c-.0011-.01-.01-.0147-.01-.0258v-4.91L327.1957,96.05l-.0194.0241Z"/>
      <polygon class="cls-17" points="344.886 115.153 344.886 115.184 351.484 107.006 351.515 106.967 351.484 106.965 351.463 106.963 351.453 106.962 351.41 106.959 344.886 106.407 344.886 106.41 344.886 115.083 344.886 115.153"/>
      <polygon class="cls-17" points="361.381 81.259 362.502 81.353 363.591 79.983 363.547 79.979 362.502 79.89 361.381 81.259"/>
      <polygon class="cls-17" points="358.113 94.176 356.993 95.545 359.078 95.701 359.327 94.269 358.113 94.176"/>
      <path class="cls-15" d="M359.7828,151.8916c.1076-.1353.2182-.2675.3254-.4035.7149-.9079,1.4252-1.8207,2.11-2.7607l.0545-.0744c.1408-.1911.2758-.3879.4154-.58v-.005c-.0106.0147-.0206.03-.0312.0452l-.1244-49.1755-3.7971-.3111-1.6808,10.1152v-.0311l1.6808-10.0841-.0935-.0313.4356-2.8944-2.0851-.1556.0622,13.103v.0311l-3.019,19.0478-4.5707,28.8545-.0046.0283,5.8853.4931c.3349-.3682.6745-.73,1.0052-1.1042q1.1244-1.2729,2.2121-2.595Q359.179,152.6538,359.7828,151.8916Z"/>
      <polygon class="cls-16" points="366.578 94.889 366.554 94.77 366.423 94.113 365.863 94.829 366.578 94.889"/>
      <polygon class="cls-17" points="366.578 94.889 365.863 94.829 364.743 96.199 366.953 96.385 367.961 95.153 368.073 95.016 367.971 95.007 366.61 94.892 366.578 94.889"/>
      <polygon class="cls-15" points="364.743 96.199 364.836 125.478 364.836 125.486 364.837 125.477 366.953 96.385 364.743 96.199"/>
      <path class="cls-16" d="M367.6991,100.2448l.3738-5.2289-.1125.1412-.977,1.2284-2.1126,29.0488-.0339.0427-.0008.0091v-.0082l-.0313.0393-.0621-29.3185-2.21,2.7388.1244,49.1755c.0106-.0148.0206-.03.0312-.0452a114.5076,114.5076,0,0,0,10.862-18.4111l-.0622-.28-.0248-.1235-5.7827-28.7585Z"/>
      <polygon class="cls-18" points="365.863 94.829 366.423 94.113 366.454 94.082 363.591 79.983 362.502 81.353 362.533 98.938 364.743 96.199 365.863 94.829"/>
      <polygon class="cls-19" points="361.381 81.259 359.327 94.269 359.078 95.701 358.642 98.595 358.736 98.626 362.533 98.938 362.502 81.353 361.381 81.259"/>
      <path class="cls-17" d="M341.5863,120.7553v1.027l-.0046.0027c-.0221,1.7729-1.8783,4.315-4.38,6.0839-.3628.26-.7385.5053-1.1238.73-3.05,1.774-5.5088,1.5563-5.54-.4668l.0313-.996-3.2993,4.1083,8.8394.747,8.8077-10.9554Z"/>
      <path class="cls-16" d="M330.1819,175.9772q.9246-.3995,1.8562-.8447c.3979-.1908.7961-.3829,1.1971-.5867.1888-.0961.3784-.1977.5672-.2955q.7416-.3838,1.4881-.799c.2621-.1455.5234-.2857.787-.4393.9834-.5638,1.9573-1.1785,2.9274-1.8063.4024-.261.803-.5287,1.2024-.8q1.0419-.7063,2.0679-1.4583c.2259-.1648.4536-.323.6783-.491l-6.8447-36.4658-6.6578,44.3016C329.6936,176.1919,329.9381,176.0828,330.1819,175.9772Z"/>
      <path class="cls-20" d="M346.3142,136.9356l-.0053-.0627-.5207-6.0646c-.0164.0082-.0378.0164-.0576.0246-.0546.0229-.1145.0457-.16.0686l-5.3223,3.0813a1.6816,1.6816,0,0,1-.5676.2116.9267.9267,0,0,1-1.1131-.6473,3.732,3.732,0,0,1,1.65-3.5791,1.3765,1.3765,0,0,1,1.0582-.218v-.0933a2.14,2.14,0,0,1,.071-.3458c.0045-.022.0084-.0435.0133-.0655a2.4281,2.4281,0,0,1,.3006-.7347l.0012-.0017a2.386,2.386,0,0,1,.2052-.3463,2.1666,2.1666,0,0,1,.5291-.4357,1.2619,1.2619,0,0,1,.264-.0909.7077.7077,0,0,1,.39-.0344,7.1147,7.1147,0,0,1,2.1473-3.4539c.0088-.009.0195-.015.0286-.0237l-.309-3.0886-8.8077,10.9554,6.8775,36.4421c.0236-.0176.0477-.034.0713-.0516.88-.6546,1.7453-1.3374,2.6024-2.0377.4269-.3488.848-.7117,1.27-1.0713.3372-.2858.6748-.5705,1.01-.8612.2277-.2.4512-.41.6778-.6132l-2.3006-26.8273Z"/>
      <path class="cls-15" d="M326.3046,144.1914l-2.4879,34.0252c.1468-.0391.291-.069.4387-.11.3151-.0887.6344-.1936.9517-.29q1.2274-.3735,2.4792-.8369c.4746-.1752.9472-.3446,1.429-.5419.1114-.0452.2243-.0987.3357-.145l6.6578-44.3016-8.87-.747Z"/>
      <path class="cls-19" d="M340.7413,122.2342l-.0263.015a13.3659,13.3659,0,0,1-4.6375,4.3574,7.328,7.328,0,0,1-3.7693,1.18,2.3509,2.3509,0,0,1-.8682-.1846,1.3885,1.3885,0,0,1-.8713-1.3383V128.1c0,2.0231,2.49,2.21,5.54.4669.375-.2142.74-.449,1.0925-.6984,2.5021-1.7689,4.3583-4.311,4.38-6.0839l.0046-.0027V119.915A4.9936,4.9936,0,0,1,340.7413,122.2342Z"/>
      <path class="cls-18" d="M331.44,127.6025a2.3509,2.3509,0,0,0,.8682.1846,7.328,7.328,0,0,0,3.7693-1.18,13.3659,13.3659,0,0,0,4.6375-4.3574,5.0339,5.0339,0,0,0,.8713-2.3655v-.1243c0-1.9921-2.49-2.21-5.5088-.467-.0107.0062-.0206.0141-.0313.02a14.6655,14.6655,0,0,0-3.0613,2.4027c-1.4595,1.5018-2.4162,3.1626-2.4162,4.4241v.1246A1.4193,1.4193,0,0,0,331.44,127.6025Z"/>
      <path class="cls-19" d="M332.9342,93.8333c0,.0111.0084.0154.01.0258.0252.2808.3807.3065.8305.0363a1.58,1.58,0,0,0,.83-.9592c.0012-.0112.01-.0259.01-.0367l-.8407.4668-.2155.12-.5936.33Z"/>
      <path class="cls-19" d="M332.9651,93.8151l1.6186-.9467-.0313-6.038-.03-9.1319a1.8589,1.8589,0,0,1-.748.7285.8839.8839,0,0,1-.6611.164.3253.3253,0,0,1-.1785-.0527.2193.2193,0,0,1-.0309-.0175l.03,10.3638v4.9487Z"/>
      <path class="cls-19" d="M332.8407,78.3648a.2078.2078,0,0,0,.063.156l-.0008-.2183C332.9029,78.3338,332.9029,78.3338,332.8407,78.3648Z"/>
      <path class="cls-18" d="M333.1131,78.591a.8839.8839,0,0,0,.6611-.164,1.8589,1.8589,0,0,0,.748-.7285.7439.7439,0,0,0,.0618-.1775.5934.5934,0,0,0,.0309-.121v-.0312c-.0934-.28-.436-.28-.8716-.0312a1.6341,1.6341,0,0,0-.8091.9649v.0626A.2223.2223,0,0,0,333.1131,78.591Z"/>
      <path class="cls-19" d="M337.6026,72.7314v-.0622c0,.0311,0,.0311-.0309.0311,0,.0333.021.0511.0313.0774v-.0459Z"/>
      <path class="cls-19" d="M337.6026,88.1687a.2251.2251,0,0,0,.0965.1928c.0073.0068.0222.0068.0309.0126a.2856.2856,0,0,0,.1251.0465,1.0939,1.0939,0,0,0,.5879-.1895,1.4607,1.4607,0,0,0,.8259-.94.5644.5644,0,0,0,.0145-.0564V85.3987l-.0309-13.5111a1.6459,1.6459,0,0,1-.81.906c-.378.2268-.6836.24-.79.0752a.1949.1949,0,0,1-.05-.0911l.0309,12.4965v2.8772Z"/>
      <path class="cls-18" d="M337.603,72.7318a.236.236,0,0,0,.05.137c.1068.1647.4124.1516.79-.0752a1.6459,1.6459,0,0,0,.81-.906.6.6,0,0,0,.0309-.121v-.0311a.2789.2789,0,0,0-.306-.2124,1.1839,1.1839,0,0,0-.5657.1813,1.6346,1.6346,0,0,0-.8091.9648v.0622Z"/>
      <path class="cls-16" d="M309.56,131.1817l-2.2095,2.7389.1244,44.4061c.0347.0107.0687.0231.1034.0336.6851.205,1.3946.3856,2.1065.534L309.56,135.57Z"/>
      <path class="cls-15" d="M311.77,131.3684l-2.21-.1867V135.57l.1248,43.3242c.2086.0454.4241.0809.637.12.0343.0063.0683.0132.103.0194.2121.037.4261.07.6409.1017.0591.0084.1186.0141.1781.0218.2171.0279.433.0612.6508.0793Z"/>
      <polygon class="cls-18" points="311.77 131.368 319.489 121.782 310.619 110.765 309.498 112.134 311.77 131.368"/>
      <polygon class="cls-19" points="308.409 112.041 308.408 112.043 299.601 133.267 307.351 133.921 309.498 112.134 308.409 112.041"/>
      <path class="cls-16" d="M319.6133,176l-.0622-23.436V152.47l-.0626-30.6876-7.7186,9.5861.1247,47.8683v.0211c.1309.015.2659.02.3975.033.0923.0092.1862.0148.2789.0231.4859.0432.9727.083,1.4659.1.02.0008.0416,0,.0618.0007.2949.01.594.0089.8923.01.4261.0009.8556-.0056,1.2894-.0219.0328-.0013.066-.0041.0991-.0057.1713-.0085.3434-.0193.5154-.03Z"/>
      <path class="cls-15" d="M305.1254,177.4606q.2582.1114.5192.2162c.5291.2125,1.0677.4076,1.6178.581.071.0226.1412.047.2125.0689l-.1244-44.4061-7.75-.6536.1247,40.8965c.0557.0459.116.0833.1717.1285.5074.41,1.0246.8022,1.5583,1.1643.03.02.0595.0411.09.0613.0839.0563.1739.1012.2586.1564.4719.3077.9506.603,1.4435.8733l.0015.0009.01.0061c.14.0763.2827.1455.4238.2189l.0256.012h0C304.1718,177.026,304.6436,177.2527,305.1254,177.4606Z"/>
      <polygon class="cls-17" points="311.77 131.368 309.498 112.134 307.351 133.921 309.56 131.182 311.77 131.368"/>
      <polygon class="cls-17" points="309.498 112.134 310.619 110.765 309.498 110.671 309.496 110.674 308.409 112.041 309.498 112.134"/>
      <path class="cls-21" d="M345.5391,130.9015c.0542-.0272.13-.0544.1907-.0816l.0271-.0116q.0939-.0467.1869-.0935c.1244-.0622.2491-.1556.4048-.2489l2.7076-1.5562c.0313,0,.0313-.0311.0622-.0311a3.7073,3.7073,0,0,0,1.4939-1.8363,2.7652,2.7652,0,0,0,.1648-1.6737,1.21,1.21,0,0,0-.0615-.1421,1.31,1.31,0,0,0-.1033-.2384c-.0077-.0108-.02-.0146-.0279-.0248a1.0863,1.0863,0,0,0-1.466-.1c-.0309,0-.0309.0311-.0622.0311v.0313l-.0312.0311c-.0023-.0184-.0084-.033-.0111-.0511a1.8935,1.8935,0,0,0-.9167-1.4992,2.0724,2.0724,0,0,0-1.8112.0564,1.3469,1.3469,0,0,0-.3734.1555,4.0292,4.0292,0,0,0-.6871.5055c-.0091.0087-.02.0147-.0286.0237a7.1147,7.1147,0,0,0-2.1473,3.4539l0,.0008a.9567.9567,0,0,0-.3894.0336,1.2619,1.2619,0,0,0-.264.0909,2.1666,2.1666,0,0,0-.5291.4357,2.386,2.386,0,0,0-.2052.3463l-.0012.0017a2.4281,2.4281,0,0,0-.3006.7347c-.0049.022-.0088.0435-.0133.0655a2.14,2.14,0,0,0-.071.3458v.0933a1.3765,1.3765,0,0,0-1.0582.218,3.732,3.732,0,0,0-1.65,3.5791.9267.9267,0,0,0,1.1131.6473,1.738,1.738,0,0,0,.5367-.2116Z"/>
      <path class="cls-21" d="M344.8235,91.6547q-.1866.0933-.3735.1867a5.08,5.08,0,0,0-2.2869,3.758c-.0034.06-.0149.1218-.0153.181l-.0011.0136a2.476,2.476,0,0,0,.0294.4375c.0015.01,0,.02.0019.0294a3.2421,3.2421,0,0,0-1.4294,2.5337c0,.0059-.0031.0125-.0027.0185a740.5809,740.5809,0,0,0,.1286.5571c.2308.4745.7458.6055,1.3344.2521a.03.03,0,0,0,.0312-.031l2.5834-1.4942h0l3.7658-2.1784c.0313,0,.0313-.0311.0622-.0311a3.3677,3.3677,0,0,0,1.276-1.5562,2.1742,2.1742,0,0,0,.1267-1.4748c-.0077-.0277-.0248-.0469-.0344-.0732a.9535.9535,0,0,0-.0923-.1951l-.0019-.0018c-.28-.3713-.7461-.402-1.2741-.0914-.0309,0-.0309.0311-.0622.0311a2.502,2.502,0,0,0-.9025.9026c-.1248-.3735-.4982-.4357-.9026-.2179v-.1246a2.1083,2.1083,0,0,0-.1911-.8649A1.2718,1.2718,0,0,0,344.8235,91.6547Z"/>
      <path class="cls-21" d="M320.7024,106.22a.2826.2826,0,0,0-.2179.0935,3.7662,3.7662,0,0,0-1.5873,2.1786.5031.5031,0,0,0-.28.0934,1.0107,1.0107,0,0,0-.28.2489,1.3052,1.3052,0,0,0-.3422.6849l-.1865.0932a2.129,2.129,0,0,0-.903,1.65.9089.9089,0,0,0,.0652.344c.1313.33.4605.44.8687.2474l2.4585-1.4318c.0626-.0311.1557-.0621.2182-.0932a.9507.9507,0,0,0,.2178-.1557l2.023-1.1827a2.1283,2.1283,0,0,0,.9025-1.65.8469.8469,0,0,0-.0961-.4064c-.1476-.2775-.4574-.3638-.8377-.1849l-.5287.3113c-.0038-.0266-.0176-.042-.0225-.0676a1.4589,1.4589,0,0,0-.1416-.428A.9433.9433,0,0,0,320.7024,106.22Z"/>
    </g>
    <g class="cls-26">
      <path id="Path-123" data-name="Path" class="cls-27" d="M97.6562,18.0423V144.3377L230.4688,221.017V94.7215Z"/>
    </g>
  </g>
</svg>
