<svg id="Layer_1" data-name="Layer 1" xmlns="http://www.w3.org/2000/svg" viewBox="0 0 180 106.8099">
  <defs>
    <style>
      .concrete-top {
        fill: #e8e8e8;
      }

      .top-prim {
        fill: #dd8987;
      }

      .curtain-R-prim-light {
        fill: #2b95ac;
      }

      .curtain-L-prim-light {
        fill: #196273;
      }

      .curtain-R-prim-dark {
        fill: #21788c;
      }

      .curtain-L-prim-dark {
        fill: #11424d;
      }

      .concrete-right {
        fill: #d2d2d1;
      }

      .concrete-left {
        fill: #a2a1a1;
      }
    </style>
  </defs>
  <title>Artboard 4</title>
  <g id="Group">
    <path id="anchor-01_31.34" class="concrete-top" d="M90,103.93l90-51.97L90,0,0,51.96Z"/>
    <g id="Group-2" data-name="Group">
      <path id="top-T2" class="top-prim" d="M90,0l65,37.53L90,75.06,25,37.53Z"/>
      <path id="windows-R4" class="curtain-R-prim-light" d="M90,75.06l65-37.53V49.08L90,86.6Z"/>
      <path id="windows-L3" class="curtain-L-prim-light" d="M90,75.06,25,37.53V49.08L90,86.6Z"/>
    </g>
    <g id="windows-R1">
      <path id="Path-2" data-name="Path" class="curtain-R-prim-dark" d="M125,54.85l5-2.89V63.51l-5,2.89Z"/>
      <path id="Path-3" data-name="Path" class="curtain-R-prim-dark" d="M110,63.51l5-2.89V72.17l-5,2.89Z"/>
    </g>
    <path id="Path-4" data-name="Path" class="curtain-L-prim-dark" d="M55,54.85l-5-2.89V63.51l5,2.89Z"/>
    <path id="Path-5" data-name="Path" class="curtain-L-prim-dark" d="M70,63.51l-5-2.89V72.17l5,2.89Z"/>
    <path id="Path-6" data-name="Path" class="concrete-right" d="M90,103.93v2.88l90-51.96V51.96Z"/>
    <path id="Path-7" data-name="Path" class="concrete-left" d="M90,103.93v2.88L0,54.85V51.96Z"/>
  </g>
</svg>
