<svg id="Layer_1" data-name="Layer 1" xmlns="http://www.w3.org/2000/svg" xmlns:xlink="http://www.w3.org/1999/xlink" viewBox="0 0 470 689.933">
  <defs>
    <style>
      .cls-1 {
        fill: #e8e8e8;
      }

      .cls-2 {
        fill: #fff;
      }

      .cls-3 {
        fill: #8b8b8b;
      }

      .cls-4 {
        fill: #797878;
      }

      .cls-5 {
        fill: #b9b9b9;
      }

      .cls-6 {
        fill: #5d5d5d;
      }

      .cls-7 {
        fill: #c9caca;
      }

      .cls-8 {
        fill: #e4e7e8;
      }

      .cls-9 {
        fill: #464646;
      }

      .cls-10 {
        fill: #999a9b;
      }

      .cls-11 {
        fill: #bcbdbd;
      }

      .cls-12 {
        fill: #4d4c4c;
      }

      .cls-13, .cls-18, .cls-19, .cls-20 {
        fill: #abe3fb;
      }

      .cls-13 {
        fill-opacity: 0.3;
      }

      .cls-14 {
        fill: #dbdbdb;
      }

      .cls-15 {
        fill: #ccc;
      }

      .cls-16 {
        fill: #f2f2f2;
      }

      .cls-17 {
        fill: url(#linear-gradient);
      }

      .cls-18 {
        fill-opacity: 0.5;
      }

      .cls-19 {
        fill-opacity: 0.1;
      }

      .cls-20 {
        fill-opacity: 0.2;
      }

      .cls-21 {
        fill: #a2a2a2;
      }

      .cls-22 {
        fill: #d1d1d1;
      }

      .cls-23 {
        fill: #737373;
      }

      .cls-24 {
        fill: #535353;
      }

      .cls-25 {
        fill: #747474;
      }
    </style>
    <linearGradient id="linear-gradient" x1="1089.1875" y1="1205.5946" x2="1089.9276" y2="1205.5723" gradientTransform="matrix(30, 0, 0, -17.321, -32345.3571, 21511.2444)" gradientUnits="userSpaceOnUse">
      <stop offset="0" stop-color="#c9edfd"/>
      <stop offset="0.9826" stop-color="#e1f6fe"/>
    </linearGradient>
  </defs>
  <title>Artboard 6</title>
  <g id="Group">
    <path id="Path" class="cls-1" d="M0,513.841,300,687.046l170-98.149L170,415.692Z"/>
    <path id="Path-2" data-name="Path" class="cls-2" d="M30,482.087,220,591.784l140-80.829v-2.887L170,398.371,30,479.2Z"/>
    <path id="Path-3" data-name="Path" class="cls-3" d="M217.5,587.453v33.198l3.75.722L360,541.265V508.068L220,588.897Z"/>
    <path id="Path-4" data-name="Path" class="cls-4" d="M330,525.388l10-5.773v34.641l-10,5.773Z"/>
    <path id="Path-5" data-name="Path" class="cls-4" d="M350,513.841l10-5.773v34.641l-10,5.773Z"/>
    <path id="Path-6" data-name="Path" class="cls-5" d="M258.75,598.279l7.5-4.33v2.886l-7.5,4.33Z"/>
    <path id="Path-7" data-name="Path" class="cls-6" d="M30,479.2v33.198L220,622.094l6.25-3.608L225,586.01l-5,2.887Z"/>
    <path id="Path-8" data-name="Path" class="cls-7" d="M40,479.2l130-75.055L350,508.068,220,583.123Z"/>
    <path id="Path-9" data-name="Path" class="cls-8" d="M40,479.2l5,2.887,125-72.169v-5.773Z"/>
    <path id="Path-10" data-name="Path" class="cls-5" d="M290,69.282v40.414l-10,5.774V75.055Z"/>
    <path id="Path-11" data-name="Path" class="cls-2" d="M335,109.696v-2.887L150,0,85,37.527v2.887l185,106.81Z"/>
    <path id="Path-12" data-name="Path" class="cls-9" d="M270,144.337l65-37.528v444.56l-65,37.528Z"/>
    <path id="Path-13" data-name="Path" d="M270,144.337,85,37.527v444.56l155,89.489,5-2.886,5,2.886v5.774l20,11.547Z"/>
    <path id="Path-14" data-name="Path" class="cls-2" d="M125,72.168l85-49.074,80,46.188-85,49.074Z"/>
    <path id="Path-15" data-name="Path" class="cls-9" d="M215,112.583v444.56l-10,5.773V118.356Z"/>
    <path id="Path-16" data-name="Path" d="M135,77.942v444.56l70,40.414V118.356Z"/>
    <path id="Path-17" data-name="Path" class="cls-7" d="M95,37.527,150,5.773l50,28.868,10-5.774,70,40.415-10,5.773,55,31.754-55,31.755-55-31.755-10,5.774L135,72.168l10-5.773Z"/>
    <path id="Path-18" data-name="Path" class="cls-10" d="M150,5.773l-2.5,1.443V12.99l2.5-1.443,50,28.867V34.641Z"/>
    <path id="Path-19" data-name="Path" class="cls-10" d="M270,75.055v5.774l50,28.867,5-2.887Z"/>
    <path id="Path-20" data-name="Path" class="cls-10" d="M210,28.867l-2.5,1.443v5.774l2.5-1.443,65,37.527,5-2.886Z"/>
    <path id="Path-21" data-name="Path" class="cls-10" d="M350,508.068l-5,2.887-12.5-7.217v-5.774Z"/>
    <path id="Path-22" data-name="Path" class="cls-8" d="M95,37.527,150,5.773v5.774L100,40.414Z"/>
    <path id="Path-23" data-name="Path" class="cls-3" d="M200,40.414l10-5.773V28.867l-10,5.774Z"/>
    <path id="Path-24" data-name="Path" class="cls-3" d="M145,66.395v5.773l-5,2.887-5-2.887Z"/>
    <path id="Path-25" data-name="Path" class="cls-11" d="M115,43.301l40-23.094,155,89.489L270,132.79Z"/>
    <path id="Path-26" data-name="Path" class="cls-10" d="M155,37.527l140,80.829,15-8.66L155,20.207Z"/>
    <path id="Path-27" data-name="Path" class="cls-8" d="M115,43.301l40-23.094v17.32L130,51.961Z"/>
    <path id="Path-28" data-name="Path" class="cls-8" d="M265,620.651V144.337l5,2.887,5-2.887V620.651l-5,2.887Z"/>
    <path id="Path-29" data-name="Path" class="cls-8" d="M250,611.991V135.677l10,5.773V611.991l-5,2.887Z"/>
    <path id="Path-30" data-name="Path" class="cls-8" d="M280,611.991V141.45h5l5-2.886V611.991l-5,2.887Z"/>
    <path id="Path-31" data-name="Path" class="cls-8" d="M295,603.331V132.79l10-5.773V603.331l-5,2.886Z"/>
    <path id="Path-32" data-name="Path" class="cls-8" d="M310,594.67V124.13l10-5.774V594.67l-5,2.887Z"/>
    <path id="Path-33" data-name="Path" class="cls-8" d="M325,586.01V115.47l10-5.774V586.01l-5,2.887Z"/>
    <path id="Path-34" data-name="Path" class="cls-8" d="M200,562.916V118.356l5,2.887,10-5.773,2.5,1.443v25.981L215,141.45l-5,2.887V562.916l-5,2.887Z"/>
    <path id="Path-35" data-name="Path" class="cls-8" d="M185,557.143V109.696l10,5.774V557.143l-5,2.886Z"/>
    <path id="Path-36" data-name="Path" class="cls-8" d="M170,548.482V101.036l10,5.773V548.482l-5,2.887Z"/>
    <path id="Path-37" data-name="Path" class="cls-8" d="M155,539.822V92.376l10,5.773V539.822l-5,2.887Z"/>
    <path id="Path-38" data-name="Path" class="cls-8" d="M140,531.162V83.715l10,5.774V531.162l-5,2.886Z"/>
    <path id="Path-39" data-name="Path" class="cls-8" d="M125,522.502V75.055l10,5.774V522.502l-5,2.886Z"/>
    <path id="Path-40" data-name="Path" class="cls-8" d="M85,487.861V37.527l10,5.774V487.86l-5,2.887Z"/>
    <path id="Path-41" data-name="Path" class="cls-8" d="M100,496.521V49.074l10,5.774V496.521l-5,2.886Z"/>
    <path id="Path-42" data-name="Path" class="cls-8" d="M115,505.181V57.735l17.5,10.103-7.5,4.33V505.181l-5,2.887Z"/>
    <path id="Path-43" data-name="Path" class="cls-8" d="M235,127.017l10,5.773v435.9l-10,5.773Z"/>
    <path id="Path-44" data-name="Path" class="cls-8" d="M220,565.803V118.356l10,5.774V565.803l-5,2.887Z"/>
    <path id="Path-45" data-name="Path" class="cls-10" d="M270,144.337l-5-2.887V620.651l5,2.887Z"/>
    <path id="Path-46" data-name="Path" class="cls-10" d="M255,141.45l-5-2.886V611.991l5,2.887Z"/>
    <path id="Path-47" data-name="Path" class="cls-10" d="M285,141.45l-5-2.886V611.991l5,2.887Z"/>
    <path id="Path-48" data-name="Path" class="cls-10" d="M300,132.79l-5-2.887V603.331l5,2.886Z"/>
    <path id="Path-49" data-name="Path" class="cls-10" d="M315,124.13l-5-2.887V594.67l5,2.887Z"/>
    <path id="Path-50" data-name="Path" class="cls-10" d="M330,115.47l-5-2.887V586.01l5,2.887Z"/>
    <path id="Path-51" data-name="Path" class="cls-10" d="M205,118.356l-5-2.886V562.916l5,2.887Z"/>
    <path id="Path-52" data-name="Path" class="cls-10" d="M190,109.696l-5-2.887V557.143l5,2.886Z"/>
    <path id="Path-53" data-name="Path" class="cls-10" d="M175,101.036l-5-2.887V548.482l5,2.887Z"/>
    <path id="Path-54" data-name="Path" class="cls-10" d="M160,92.376l-5-2.887V539.822l5,2.887Z"/>
    <path id="Path-55" data-name="Path" class="cls-10" d="M145,83.715l-5-2.886V531.162l5,2.887Z"/>
    <path id="Path-56" data-name="Path" class="cls-10" d="M130,75.055l-5-2.887V522.501l5,2.887Z"/>
    <path id="Path-57" data-name="Path" class="cls-10" d="M90,40.414l-5-2.887V487.86l5,2.887Z"/>
    <path id="Path-58" data-name="Path" class="cls-10" d="M105,49.074l-5-2.886V496.521l5,2.887Z"/>
    <path id="Path-59" data-name="Path" class="cls-10" d="M120,57.735l-5-2.887V505.181l5,2.887Z"/>
    <path id="Path-60" data-name="Path" class="cls-10" d="M240,132.79l-5-2.887v444.56l5-2.887Z"/>
    <path id="Path-61" data-name="Path" class="cls-10" d="M225,118.356l-10-5.773V141.45l5,2.887V565.803l5,2.887Z"/>
    <path id="Path-62" data-name="Path" class="cls-8" d="M270,144.337l65-37.528v5.774l-65,37.528Z"/>
    <path id="Path-63" data-name="Path" class="cls-10" d="M270,144.337l-55-31.754v5.773l55,31.755Z"/>
    <path id="Path-64" data-name="Path" class="cls-10" d="M205,118.356,125,72.168v5.774l80,46.188Z"/>
    <path id="Path-65" data-name="Path" class="cls-10" d="M135,66.395,85,37.527v5.774l45,25.981Z"/>
    <path id="Path-66" data-name="Path" class="cls-5" d="M205,124.13l10-5.774v-5.773l-10,5.773Z"/>
    <path id="Path-67" data-name="Path" class="cls-7" d="M170,86.602l60-34.641,20,11.547L190,98.149Z"/>
    <path id="Path-68" data-name="Path" class="cls-8" d="M240,86.602V69.282L200,92.376l15,8.66Z"/>
    <path id="Path-69" data-name="Path" class="cls-4" d="M220,588.897l10-5.774v34.641l-10,5.774Z"/>
    <path id="Path-70" data-name="Path" class="cls-12" d="M220,588.897l-10-5.774v34.641l10,5.774Z"/>
    <path id="Path-71" data-name="Path" class="cls-12" d="M180,565.803l-10-5.774V594.67l10,5.774Z"/>
    <path id="Path-72" data-name="Path" class="cls-12" d="M140,542.709l-10-5.774v34.641l10,5.774Z"/>
    <path id="Path-73" data-name="Path" class="cls-12" d="M100,519.615l-10-5.774v34.641l10,5.774Z"/>
    <path id="Path-74" data-name="Path" class="cls-12" d="M60,496.521l-10-5.774v34.641l10,5.774Z"/>
    <path id="Path-75" data-name="Path" class="cls-4" d="M240,577.35l10-5.774v34.641l-10,5.774Z"/>
    <path id="Path-76" data-name="Path" class="cls-12" d="M200,577.35l-10-5.774v34.641l10,5.774Z"/>
    <path id="Path-77" data-name="Path" class="cls-12" d="M160,554.256l-10-5.774v34.641l10,5.774Z"/>
    <path id="Path-78" data-name="Path" class="cls-12" d="M120,531.162l-10-5.774v34.641l10,5.774Z"/>
    <path id="Path-79" data-name="Path" class="cls-12" d="M80,508.068l-10-5.774v34.641l10,5.774Z"/>
    <path id="Path-80" data-name="Path" class="cls-12" d="M40,484.974,30,479.2v34.641l10,5.774Z"/>
    <path id="Path-81" data-name="Path" class="cls-13" d="M320,635.085V600.444l-10-5.774v34.641Z"/>
    <g id="Group-2" data-name="Group">
      <path id="Path-82" data-name="Path" class="cls-14" d="M340,646.632v5.773l40-23.094H370Z"/>
      <path id="Path-83" data-name="Path" class="cls-14" d="M340,611.991v-5.774l-40,23.094h10Z"/>
      <path id="Path-84" data-name="Path" class="cls-15" d="M340,646.632v5.773l-40-23.094h10Z"/>
      <path id="Path-85" data-name="Path" class="cls-16" d="M340,611.991v-5.774l40,23.094H370Z"/>
      <path id="Path-86" data-name="Path" class="cls-2" d="M310,629.311l30-17.32,30,17.32-30,17.321Z"/>
      <path id="Path-87" data-name="Path" class="cls-17" d="M347.5,624.981h0c4.139,2.39,4.139,6.271,0,8.66h0a16.5866,16.5866,0,0,1-15,0h0c-4.139-2.389-4.139-6.27,0-8.66h0A16.5866,16.5866,0,0,1,347.5,624.981Z"/>
      <path id="Path-88" data-name="Path" class="cls-10" d="M337.5,617.764l2.5,1.444V604.774l-2.5,1.443Z"/>
      <path id="Path-89" data-name="Path" class="cls-10" d="M352.5,626.425l2.5,1.443v-7.217l-2.5-1.443Z"/>
      <path id="Path-90" data-name="Path" class="cls-8" d="M327.5,626.425l-2.5,1.443v-7.217l2.5-1.443Z"/>
      <path id="Path-91" data-name="Path" class="cls-8" d="M342.5,617.764l-2.5,1.444V604.774l2.5,1.443Z"/>
      <path id="Path-92" data-name="Path" class="cls-8" d="M357.5,626.425l-2.5,1.443v-7.217l2.5,1.443Z"/>
      <path id="Path-93" data-name="Path" class="cls-10" d="M322.5,626.425l2.5,1.443v-7.217l-2.5,1.443Z"/>
      <g id="Group-3" data-name="Group">
        <path id="Path-94" data-name="Path" class="cls-5" d="M343.527,603.576l2.874,1.665-2.569,1.483-2.874-1.665Z"/>
        <path id="Path-95" data-name="Path" class="cls-5" d="M338.806,614.638l2.874,1.666-2.569,1.483-2.874-1.665Z"/>
        <path id="Path-96" data-name="Path" class="cls-5" d="M340.091,604.031h0c2.835-1.637,5.137-.308,5.137,2.967h0a11.3643,11.3643,0,0,1-5.137,8.899h0c-2.836,1.637-5.138.308-5.138-2.966h0A11.3645,11.3645,0,0,1,340.091,604.031Z"/>
        <path id="Path-97" data-name="Path" class="cls-2" d="M342.659,605.515h0c2.836-1.638,5.138-.308,5.138,2.966h0a11.3627,11.3627,0,0,1-5.138,8.899h0c-2.835,1.637-5.137.308-5.137-2.966h0A11.3627,11.3627,0,0,1,342.659,605.515Z"/>
      </g>
      <path id="Path-98" data-name="Path" class="cls-18" d="M340,646.632V611.991L310,594.67v34.641Z"/>
      <path id="Path-99" data-name="Path" class="cls-13" d="M340,646.632V611.991l-10-5.774v34.641Z"/>
      <path id="Path-100" data-name="Path" class="cls-19" d="M340,646.632V611.991l10-5.774v34.641Z"/>
      <path id="Path-101" data-name="Path" class="cls-13" d="M340,646.632V611.991l30-17.321v34.641Z"/>
      <path id="Path-102" data-name="Path" class="cls-19" d="M360,635.085V600.444l10-5.774v34.641Z"/>
      <path id="Path-103" data-name="Path" class="cls-20" d="M310,594.67l30,17.321,30-17.321-30-17.32Z"/>
      <path id="Path-104" data-name="Path" class="cls-19" d="M370,594.67l-30,17.321-10-5.774,30-17.32Z"/>
      <path id="Path-105" data-name="Path" class="cls-19" d="M350,583.123l-30,17.321-10-5.774,30-17.32Z"/>
    </g>
    <path id="Path-106" data-name="Path" class="cls-21" d="M0,513.841v2.887L300,689.933v-2.887Z"/>
    <path id="Path-107" data-name="Path" class="cls-22" d="M300,687.046l170-98.149v2.887L300,689.933Z"/>
    <g id="Group-4" data-name="Group">
      <path id="Path-108" data-name="Path" class="cls-5" d="M150,17.32,122.5,33.197v2.887L175,66.395l27.5-15.877V47.631Z"/>
      <path id="Path-109" data-name="Path" class="cls-23" d="M132.93,30.062h0a11.06,11.06,0,0,1,10,0h0c2.76,1.593,2.76,4.18,0,5.773h0a11.0536,11.0536,0,0,1-10,0h0C130.171,34.242,130.171,31.655,132.93,30.062Z"/>
      <path id="Path-110" data-name="Path" class="cls-23" d="M145.43,37.279h0a11.06,11.06,0,0,1,10,0h0c2.76,1.593,2.76,4.18,0,5.773h0a11.0536,11.0536,0,0,1-10,0h0C142.671,41.459,142.671,38.872,145.43,37.279Z"/>
      <path id="Path-111" data-name="Path" class="cls-23" d="M157.5,44.744h0a11.06,11.06,0,0,1,10,0h0c2.76,1.593,2.76,4.18,0,5.774h0a11.06,11.06,0,0,1-10,0h0C154.74,48.924,154.74,46.337,157.5,44.744Z"/>
      <path id="Path-112" data-name="Path" class="cls-23" d="M170,51.961h0a11.06,11.06,0,0,1,10,0h0c2.76,1.593,2.76,4.18,0,5.774h0a11.06,11.06,0,0,1-10,0h0C167.24,56.141,167.24,53.554,170,51.961Z"/>
      <path id="Path-113" data-name="Path" class="cls-23" d="M145.43,22.845h0a11.06,11.06,0,0,1,10,0h0c2.76,1.593,2.76,4.18,0,5.774h0a11.06,11.06,0,0,1-10,0h0C142.671,27.025,142.671,24.438,145.43,22.845Z"/>
      <path id="Path-114" data-name="Path" class="cls-23" d="M157.93,30.062h0a11.06,11.06,0,0,1,10,0h0c2.76,1.593,2.76,4.18,0,5.773h0a11.0536,11.0536,0,0,1-10,0h0C155.171,34.242,155.171,31.655,157.93,30.062Z"/>
      <path id="Path-115" data-name="Path" class="cls-23" d="M170,37.527h0a11.06,11.06,0,0,1,10,0h0c2.76,1.594,2.76,4.181,0,5.774h0a11.06,11.06,0,0,1-10,0h0C167.24,41.708,167.24,39.121,170,37.527Z"/>
      <path id="Path-116" data-name="Path" class="cls-23" d="M182.5,44.744h0a11.06,11.06,0,0,1,10,0h0c2.76,1.593,2.76,4.18,0,5.774h0a11.06,11.06,0,0,1-10,0h0C179.74,48.924,179.74,46.337,182.5,44.744Z"/>
    </g>
    <path id="Path-117" data-name="Path" class="cls-3" d="M215,92.376V89.489l20-11.547,10,5.773v2.887L225,98.149Z"/>
    <path id="Path-118" data-name="Path" class="cls-6" d="M225,106.809V95.262l-10-5.773v11.547Z"/>
    <path id="Path-119" data-name="Path" class="cls-21" d="M245,83.715V95.262l-20,11.547V95.262Z"/>
    <path id="Path-120" data-name="Path" class="cls-3" d="M230,106.809v-2.886l20-11.547,15,8.66v2.887L245,115.47Z"/>
    <path id="Path-121" data-name="Path" class="cls-6" d="M245,118.356v-5.773l-15-8.66v5.773Z"/>
    <path id="Path-122" data-name="Path" class="cls-21" d="M265,101.036v5.773l-20,11.547v-5.773Z"/>
    <path id="Path-123" data-name="Path" class="cls-24" d="M230,617.764l10-5.773V594.67l-10,5.774Z"/>
    <path id="Path-124" data-name="Path" class="cls-6" d="M100,554.256,70,536.935v-17.32l30,17.32Z"/>
    <path id="Path-125" data-name="Path" class="cls-24" d="M340,554.256l10-5.774v-17.32l-10,5.773Z"/>
    <path id="Path-126" data-name="Path" class="cls-12" d="M240,611.991l-5-2.887V597.557l5-2.887Z"/>
    <path id="Path-127" data-name="Path" class="cls-4" d="M70,536.935l15-8.66-10-5.774-5-2.886Z"/>
    <path id="Path-128" data-name="Path" class="cls-4" d="M112.5,561.473l15-8.661-10-5.773-5-2.887Z"/>
    <path id="Path-129" data-name="Path" class="cls-12" d="M350,548.482l-5-2.886V534.049l5-2.887Z"/>
    <path id="Path-130" data-name="Path" class="cls-1" d="M230,623.538V611.991l5-2.887,10,5.774Z"/>
    <path id="Path-131" data-name="Path" class="cls-1" d="M110,565.803V542.709L85,528.275,65,539.822Z"/>
    <path id="Path-132" data-name="Path" class="cls-1" d="M152.5,590.34V567.246l-25-14.434-20,11.547Z"/>
    <path id="Path-133" data-name="Path" class="cls-1" d="M340,560.029V548.482l5-2.886,10,5.773Z"/>
    <path id="Path-134" data-name="Path" class="cls-5" d="M340,554.256v-2.887l-10,5.774v2.886Z"/>
    <path id="Path-135" data-name="Path" class="cls-9" d="M230,603.331l5-2.887v-2.887l-5,2.887Z"/>
    <path id="Path-136" data-name="Path" class="cls-5" d="M360,542.709v-2.887l-10,5.774v2.886Z"/>
    <path id="Path-137" data-name="Path" class="cls-9" d="M340,539.822l5-2.887v-2.886l-5,2.886Z"/>
    <path id="Path-138" data-name="Path" class="cls-2" d="M285,581.68v-1.443l-5-2.887-5,2.887v7.216Z"/>
    <path id="Path-139" data-name="Path" class="cls-2" d="M255,581.68v-1.443l5-2.887,5,2.887v7.216Z"/>
    <path id="Path-140" data-name="Path" class="cls-2" d="M315,564.359v-1.443l-5-2.887-5,2.887v7.217Z"/>
    <path id="Path-141" data-name="Path" class="cls-2" d="M300,573.02v-1.444l-5-2.886-5,2.886v7.217Z"/>
    <path id="Path-142" data-name="Path" class="cls-2" d="M330,555.699v-1.443l-5-2.887-5,2.887v7.217Z"/>
    <path id="Path-143" data-name="Path" class="cls-2" d="M245,568.69l-5,2.886v1.444l10,5.773v-7.217Z"/>
    <path id="Path-144" data-name="Path" class="cls-25" d="M275,170.318l5-2.887V144.337l-5,2.887Z"/>
    <path id="Path-145" data-name="Path" class="cls-25" d="M290,161.658l5-2.887V135.677l-5,2.887Z"/>
    <path id="Path-146" data-name="Path" class="cls-25" d="M305,152.997l5-2.886V127.017l-5,2.886Z"/>
    <path id="Path-147" data-name="Path" class="cls-25" d="M320,144.337l5-2.887V118.356l-5,2.887Z"/>
    <path id="Path-148" data-name="Path" class="cls-25" d="M265,170.318l-5-2.887V144.337l5,2.887Z"/>
    <path id="Path-149" data-name="Path" class="cls-25" d="M250,161.658l-5-2.887V135.677l5,2.887Z"/>
    <path id="Path-150" data-name="Path" class="cls-25" d="M235,152.997l-5-2.886V127.017l5,2.886Z"/>
    <path id="Path-151" data-name="Path" class="cls-25" d="M200,144.337l-5-2.887V118.356l5,2.887Z"/>
    <path id="Path-152" data-name="Path" class="cls-25" d="M185,135.677l-5-2.887V109.696l5,2.887Z"/>
    <path id="Path-153" data-name="Path" class="cls-25" d="M170,127.017l-5-2.887V101.036l5,2.887Z"/>
    <path id="Path-154" data-name="Path" class="cls-25" d="M155,118.356l-5-2.886V92.376l5,2.886Z"/>
    <path id="Path-155" data-name="Path" class="cls-25" d="M140,109.696l-5-2.887V83.715l5,2.887Z"/>
    <path id="Path-156" data-name="Path" class="cls-25" d="M100,75.055l-5-2.887V49.074l5,2.887Z"/>
    <path id="Path-157" data-name="Path" class="cls-25" d="M115,83.715l-5-2.886V57.735l5,2.886Z"/>
    <path id="Path-158" data-name="Path" class="cls-10" d="M285,170.318l-10-5.774v-17.32l10-5.774Z"/>
    <path id="Path-159" data-name="Path" class="cls-10" d="M300,161.658l-10-5.774v-17.32l10-5.774Z"/>
    <path id="Path-160" data-name="Path" class="cls-10" d="M315,152.997l-10-5.773V129.903l10-5.773Z"/>
    <path id="Path-161" data-name="Path" class="cls-10" d="M330,144.337l-10-5.773V121.243l10-5.773Z"/>
    <path id="Path-162" data-name="Path" class="cls-8" d="M255,170.318l10-5.774v-17.32l-10-5.774Z"/>
    <path id="Path-163" data-name="Path" class="cls-8" d="M240,161.658l10-5.774v-17.32l-10-5.774Z"/>
    <path id="Path-164" data-name="Path" class="cls-8" d="M225,152.997l10-5.773V129.903l-10-5.773Z"/>
    <path id="Path-165" data-name="Path" class="cls-8" d="M190,144.337l10-5.773V121.243l-10-5.773Z"/>
    <path id="Path-166" data-name="Path" class="cls-8" d="M175,135.677l10-5.774v-17.32l-10-5.774Z"/>
    <path id="Path-167" data-name="Path" class="cls-8" d="M160,127.017l10-5.774v-17.32l-10-5.774Z"/>
    <path id="Path-168" data-name="Path" class="cls-8" d="M145,118.356l10-5.773V95.262l-10-5.773Z"/>
    <path id="Path-169" data-name="Path" class="cls-8" d="M130,109.696l10-5.773V86.602l-10-5.773Z"/>
    <path id="Path-170" data-name="Path" class="cls-8" d="M90,75.055l10-5.773V51.961L90,46.188Z"/>
    <path id="Path-171" data-name="Path" class="cls-8" d="M105,83.715l10-5.773V60.621l-10-5.773Z"/>
    <path id="Path-172" data-name="Path" class="cls-10" d="M70,534.049l2.5-1.444v2.887L70,536.935,30,513.841v-2.886Z"/>
    <path id="Path-173" data-name="Path" class="cls-10" d="M220,620.651l2.5-1.443v2.886l-2.5,1.444-67.5-38.971V581.68Z"/>
    <path id="Path-174" data-name="Path" class="cls-10" d="M110,557.143l2.5,1.443,2.5-1.443v2.886l-2.5,1.444-2.5-1.444Z"/>
    <path id="Path-175" data-name="Path" class="cls-5" d="M127.5,552.812l-2.5-1.443-12.5,7.217v2.887Z"/>
    <path id="Path-176" data-name="Path" class="cls-5" d="M230,617.764v-2.886l-10,5.773v2.887Z"/>
    <path id="Path-177" data-name="Path" class="cls-5" d="M250,606.217v-2.886l-10,5.773v2.887Z"/>
    <path id="Path-178" data-name="Path" class="cls-5" d="M85,528.275l-2.5-1.443L70,534.049v2.886Z"/>
    <path id="Path-179" data-name="Path" class="cls-3" d="M175,77.942V63.508L122.5,33.197V47.631Z"/>
    <path id="Path-180" data-name="Path" class="cls-21" d="M202.5,47.631v17.32l-25,14.434L175,77.942V63.508Z"/>
    <path id="Path-181" data-name="Path" class="cls-7" d="M235,57.735V54.848l-10-5.774L185,72.168v2.887l10,5.774Z"/>
    <path id="Path-182" data-name="Path" class="cls-8" d="M195,89.489V77.942l40-23.094V66.395Z"/>
    <path id="Path-183" data-name="Path" class="cls-10" d="M185,83.715V72.168l10,5.774V89.489Z"/>
    <path id="Path-184" data-name="Path" class="cls-8" d="M270,588.897l65-37.528v5.774L270,594.67Z"/>
    <path id="Path-185" data-name="Path" class="cls-10" d="M270,588.897l-25-14.434v5.774l25,14.433Z"/>
  </g>
</svg>
