<?xml version="1.0" standalone="no"?><!-- Generator: Gravit.io --><svg xmlns="http://www.w3.org/2000/svg" xmlns:xlink="http://www.w3.org/1999/xlink" style="isolation:isolate" viewBox="965 220.837 365 772.206" width="365" height="772.206"><g id="Group"><path d=" M 1130 987.2689 L 1330 871.7989 L 1165 776.5361 L 965 892.0062 L 1130 987.2689 Z " id="Path" fill="rgb(232,232,232)"/><path d=" M 1090 935.3074 L 1170 935.3074 L 1170 906.4399 L 1090 906.4399 L 1090 935.3074 Z " id="Path" fill="rgb(45,45,45)"/><path d=" M 1010 889.1194 L 1010 831.3844 L 1090 877.5724 L 1090 935.3075 L 1010 889.1194 Z " id="Path" fill="rgb(0,0,0)"/><path d=" M 1280 871.7989 L 1280 840.0447 L 1170 903.5532 L 1170 935.3074 L 1280 871.7989 Z " id="Path" fill="rgb(116,116,116)"/><path d=" M 1170 886.2327 L 1090 886.2327 L 1000 834.2711 L 1160 741.8951 L 1290 816.9506 L 1170 886.2327 Z " id="Path" fill="rgb(93,93,93)"/><g id="Group"><path d=" M 1290 840.0446 L 1285 842.9314 L 1285 880.4591 L 1290 877.5724 L 1290 840.0446 Z " id="Path" fill="rgb(255,255,255)"/><path d=" M 1280 845.8181 L 1285 842.9314 L 1285 880.4591 L 1280 877.5724 L 1280 845.8181 Z " id="Path" fill="rgb(170,170,170)"/></g><g id="Group"><path d=" M 1175 906.44 L 1170 909.3267 L 1170 946.8545 L 1175 943.9677 L 1175 906.44 Z " id="Path" fill="rgb(255,255,255)"/><path d=" M 1165 906.4399 L 1170 909.3267 L 1170 946.8545 L 1165 943.9677 L 1165 906.4399 Z " id="Path" fill="rgb(170,170,170)"/></g><g id="Group"><path d=" M 1215 883.346 L 1210 886.2327 L 1210 923.7605 L 1215 920.8737 L 1215 883.346 Z " id="Path" fill="rgb(255,255,255)"/><path d=" M 1205 889.1195 L 1210 886.2327 L 1210 923.7605 L 1205 920.8737 L 1205 889.1195 Z " id="Path" fill="rgb(170,170,170)"/></g><g id="Group"><path d=" M 1250 863.1387 L 1245 866.0254 L 1245 903.5532 L 1250 900.6664 L 1250 863.1387 Z " id="Path" fill="rgb(255,255,255)"/><path d=" M 1240 868.9122 L 1245 866.0254 L 1245 903.5532 L 1240 900.6664 L 1240 868.9122 Z " id="Path" fill="rgb(170,170,170)"/></g><path d=" M 1000 554.2563 L 1160 461.8802 L 1290 536.9357 L 1130 629.3118 L 1000 554.2563 Z " id="Path" fill="rgb(232,232,232)"/><path d=" M 1170 609.1046 L 1170 897.7797 L 1290 828.4976 L 1290 539.8225 L 1170 609.1046 Z " id="Path" fill="rgb(255,255,255)"/><path d=" M 1130 629.3118 L 1130 897.7797 L 1000 822.7242 L 1000 554.2563 L 1130 629.3118 Z " id="Path" fill="rgb(170,170,170)"/><path d=" M 1130 629.3118 L 1000 438.7862 L 1130 248.2606 L 1130 629.3118 Z " id="Path" fill="rgb(216,217,219)"/><path d=" M 1160 346.4101 L 1130 346.4101 L 1130 603.331 L 1160 603.331 L 1290 412.8054 L 1160 220.8365 L 1160 346.4101 Z " id="Path" fill="rgb(216,217,219)"/><path d=" M 1170 609.1046 L 1130 609.1046 L 1130 897.7797 L 1170 897.7797 L 1170 609.1046 Z " id="Path" fill="rgb(238,238,238)"/><path d=" M 1290 536.9357 L 1290 412.8055 L 1170 588.8973 L 1170 606.2178 L 1290 536.9357 Z " id="Path" fill="rgb(255,255,255)"/><path d=" M 1000 438.7862 L 1000 554.2563 L 1130 629.3118 L 1000 438.7862 Z " id="Path" fill="rgb(170,170,170)"/><path d=" M 1170 609.1046 L 1130 609.1046 L 1130 588.8973 L 1170 588.8973 L 1170 609.1046 Z " id="Path" fill="rgb(238,238,238)"/><path d=" M 1170 600.4443 L 1170 609.1045 L 1135 609.1045 L 1135 600.4443 L 1170 600.4443 Z " id="Path" fill="rgb(46,46,46)"/><path d=" M 1170 669.7263 L 1170 678.3866 L 1135 678.3866 L 1135 669.7263 L 1170 669.7263 Z " id="Path" fill="rgb(46,46,46)"/><path d=" M 1170 739.0082 L 1170 747.6685 L 1135 747.6685 L 1135 739.0082 L 1170 739.0082 Z " id="Path" fill="rgb(46,46,46)"/><path d=" M 1170 808.2904 L 1170 816.9506 L 1135 816.9506 L 1135 808.2904 L 1170 808.2904 Z " id="Path" fill="rgb(46,46,46)"/><path d=" M 1170 877.5724 L 1170 886.2327 L 1135 886.2327 L 1135 877.5724 L 1170 877.5724 Z " id="Path" fill="rgb(46,46,46)"/><path d=" M 1170 635.0853 L 1170 643.7455 L 1135 643.7455 L 1135 635.0853 L 1170 635.0853 Z " id="Path" fill="rgb(46,46,46)"/><path d=" M 1170 704.3673 L 1170 713.0276 L 1135 713.0276 L 1135 704.3673 L 1170 704.3673 Z " id="Path" fill="rgb(46,46,46)"/><path d=" M 1170 773.6492 L 1170 782.3095 L 1135 782.3095 L 1135 773.6492 L 1170 773.6492 Z " id="Path" fill="rgb(46,46,46)"/><path d=" M 1170 842.9314 L 1170 851.5916 L 1135 851.5916 L 1135 842.9314 L 1170 842.9314 Z " id="Path" fill="rgb(46,46,46)"/><path d=" M 1170 617.7649 L 1170 626.4252 L 1135 626.4252 L 1135 617.7649 L 1170 617.7649 Z " id="Path" fill="rgb(46,46,46)"/><path d=" M 1170 687.0469 L 1170 695.7072 L 1135 695.7072 L 1135 687.0469 L 1170 687.0469 Z " id="Path" fill="rgb(46,46,46)"/><path d=" M 1170 756.3289 L 1170 764.9891 L 1135 764.9891 L 1135 756.3289 L 1170 756.3289 Z " id="Path" fill="rgb(46,46,46)"/><path d=" M 1170 825.611 L 1170 834.2713 L 1135 834.2713 L 1135 825.611 L 1170 825.611 Z " id="Path" fill="rgb(46,46,46)"/><path d=" M 1170 652.4059 L 1170 661.0662 L 1135 661.0662 L 1135 652.4059 L 1170 652.4059 Z " id="Path" fill="rgb(46,46,46)"/><path d=" M 1170 721.6879 L 1170 730.3482 L 1135 730.3482 L 1135 721.6879 L 1170 721.6879 Z " id="Path" fill="rgb(46,46,46)"/><path d=" M 1170 790.9699 L 1170 799.6301 L 1135 799.6301 L 1135 790.9699 L 1170 790.9699 Z " id="Path" fill="rgb(46,46,46)"/><path d=" M 1170 860.252 L 1170 868.9123 L 1135 868.9123 L 1135 860.252 L 1170 860.252 Z " id="Path" fill="rgb(46,46,46)"/><path d=" M 1130 606.2178 L 1020 441.673 L 1130 271.3546 L 1130 606.2178 Z " id="Mask" fill="rgb(113,116,123)"/><clipPath id="_clipPath_GI2EcttL2egygW6alMUD7bHMuI5MfVOe"><path d=" M 1130 606.2178 L 1020 441.673 L 1130 271.3546 L 1130 606.2178 Z " id="Mask" fill="rgb(113,116,123)"/></clipPath><g clip-path="url(#_clipPath_GI2EcttL2egygW6alMUD7bHMuI5MfVOe)"><path d=" M 1017.5001 264.1377 L 1025.0001 268.4679 L 1025.0001 606.2178 L 1017.5001 610.5479 L 1017.5001 264.1377 Z " id="Path" fill="rgb(69,71,74)"/><path d=" M 1032.5001 264.1377 L 1040 268.4679 L 1040 606.2178 L 1032.5001 610.5479 L 1032.5001 264.1377 Z " id="Path" fill="rgb(69,71,74)"/><path d=" M 1092.5 264.1377 L 1100 268.4679 L 1100 606.2178 L 1092.5 610.5479 L 1092.5 264.1377 Z " id="Path" fill="rgb(69,71,74)"/><path d=" M 1062.5001 264.1377 L 1070 268.4679 L 1070 606.2178 L 1062.5001 610.5479 L 1062.5001 264.1377 Z " id="Path" fill="rgb(69,71,74)"/><path d=" M 1122.5 264.1377 L 1130 268.4679 L 1130 606.2178 L 1122.5 610.5479 L 1122.5 264.1377 Z " id="Path" fill="rgb(69,71,74)"/><path d=" M 1047.5001 264.1377 L 1055 268.4679 L 1055 606.2178 L 1047.5001 610.5479 L 1047.5001 264.1377 Z " id="Path" fill="rgb(69,71,74)"/><path d=" M 1107.5 264.1377 L 1115 268.4679 L 1115 606.2178 L 1107.5 610.5479 L 1107.5 264.1377 Z " id="Path" fill="rgb(69,71,74)"/><path d=" M 1077.5 264.1377 L 1085 268.4679 L 1085 606.2178 L 1077.5 610.5479 L 1077.5 264.1377 Z " id="Path" fill="rgb(69,71,74)"/><path d=" M 1025.0001 262.6944 L 1032.5001 267.0245 L 1032.5001 607.6611 L 1025.0001 611.9913 L 1025.0001 262.6944 Z " id="Path" fill="rgb(113,116,123)"/><path d=" M 1085 262.6944 L 1092.5 267.0245 L 1092.5 607.6611 L 1085 611.9913 L 1085 262.6944 Z " id="Path" fill="rgb(113,116,123)"/><path d=" M 1055 262.6944 L 1062.5 267.0245 L 1062.5 607.6611 L 1055 611.9913 L 1055 262.6944 Z " id="Path" fill="rgb(113,116,123)"/><path d=" M 1115 262.6944 L 1122.5 267.0245 L 1122.5 607.6611 L 1115 611.9913 L 1115 262.6944 Z " id="Path" fill="rgb(113,116,123)"/><path d=" M 1040 262.6944 L 1047.5 267.0245 L 1047.5 607.6611 L 1040 611.9913 L 1040 262.6944 Z " id="Path" fill="rgb(113,116,123)"/><path d=" M 1100 262.6944 L 1107.5 267.0245 L 1107.5 607.6611 L 1100 611.9913 L 1100 262.6944 Z " id="Path" fill="rgb(113,116,123)"/><path d=" M 1070 262.6944 L 1077.5 267.0245 L 1077.5 607.6611 L 1070 611.9913 L 1070 262.6944 Z " id="Path" fill="rgb(113,116,123)"/></g><path d=" M 1000 831.3843 L 1015 840.0446 L 1015 903.5532 L 1000 894.8929 L 1000 831.3843 Z " id="Path" fill="rgb(170,170,170)"/><path d=" M 1090 886.2327 L 1130 909.3267 L 1130 969.9485 L 1090 946.8544 L 1090 886.2327 Z " id="Path" fill="rgb(170,170,170)"/><path d=" M 1015 903.5532 L 1020 900.6664 L 1020 845.8181 L 1015 842.9314 L 1015 903.5532 Z " id="Path" fill="rgb(255,255,255)"/><path d=" M 1020 900.6664 L 1035 903.5532 L 1035 892.0062 L 1020 880.4592 L 1020 900.6664 Z " id="Path" fill="rgb(0,0,0)"/><g id="Group"><path d=" M 1027.5 850.1483 L 1032.5 853.035 L 1032.5 913.6568 L 1027.5 910.7701 L 1027.5 850.1483 Z " id="Path" fill="rgb(170,170,170)"/><path d=" M 1037.5 855.9218 L 1032.5 853.035 L 1032.5 913.6568 L 1037.5 910.7701 L 1037.5 855.9218 Z " id="Path" fill="rgb(255,255,255)"/></g><g id="Group"><path d=" M 1047.5 861.6952 L 1052.5 864.582 L 1052.5 925.2039 L 1047.5 922.3171 L 1047.5 861.6952 Z " id="Path" fill="rgb(170,170,170)"/><path d=" M 1057.5 867.4688 L 1052.5 864.582 L 1052.5 925.2039 L 1057.5 922.3171 L 1057.5 867.4688 Z " id="Path" fill="rgb(255,255,255)"/></g><g id="Group"><path d=" M 1067.5 873.2423 L 1072.5 876.129 L 1072.5 936.7508 L 1067.5 933.8641 L 1067.5 873.2423 Z " id="Path" fill="rgb(170,170,170)"/><path d=" M 1077.5 879.0158 L 1072.5 876.129 L 1072.5 936.7508 L 1077.5 933.8641 L 1077.5 879.0158 Z " id="Path" fill="rgb(255,255,255)"/></g><path d=" M 965 892.0062 L 1130 987.269 L 1130 993.0425 L 965 897.7797 L 965 892.0062 Z " id="Path" fill="rgb(162,162,162)"/><path d=" M 1330 871.7989 L 1130 987.269 L 1130 993.0425 L 1330 877.5724 L 1330 871.7989 Z " id="Path" fill="rgb(209,209,209)"/><path d=" M 1170 635.0853 L 1290 565.8033 L 1290 574.4636 L 1170 643.7456 L 1170 635.0853 Z " id="Path" fill="rgb(116,116,116)"/><path d=" M 1125 635.0853 L 1000 562.9166 L 1000 571.5769 L 1125 643.7456 L 1125 635.0853 Z " id="Path" fill="rgb(0,0,0)"/><path d=" M 1170 756.3288 L 1290 687.0468 L 1290 695.7071 L 1170 764.9891 L 1170 756.3288 Z " id="Path" fill="rgb(116,116,116)"/><path d=" M 1125 756.3288 L 1000 684.1601 L 1000 692.8204 L 1125 764.9891 L 1125 756.3288 Z " id="Path" fill="rgb(0,0,0)"/><path d=" M 1170 669.7263 L 1290 600.4443 L 1290 609.1045 L 1170 678.3866 L 1170 669.7263 Z " id="Path" fill="rgb(116,116,116)"/><path d=" M 1125 669.7263 L 1000 597.5576 L 1000 606.2179 L 1125 678.3866 L 1125 669.7263 Z " id="Path" fill="rgb(0,0,0)"/><path d=" M 1170 790.9698 L 1290 721.6877 L 1290 730.348 L 1170 799.6301 L 1170 790.9698 Z " id="Path" fill="rgb(116,116,116)"/><path d=" M 1125 790.9698 L 1000 718.8011 L 1000 727.4614 L 1125 799.6301 L 1125 790.9698 Z " id="Path" fill="rgb(0,0,0)"/><path d=" M 1125 860.2519 L 1000 788.0831 L 1000 796.7434 L 1125 868.9122 L 1125 860.2519 Z " id="Path" fill="rgb(0,0,0)"/><path d=" M 1170 860.2519 L 1290 790.9699 L 1290 799.6301 L 1170 868.9122 L 1170 860.2519 Z " id="Path" fill="rgb(116,116,116)"/><path d=" M 1170 704.3673 L 1290 635.0853 L 1290 643.7455 L 1170 713.0276 L 1170 704.3673 Z " id="Path" fill="rgb(116,116,116)"/><path d=" M 1125 704.3673 L 1000 632.1986 L 1000 640.8589 L 1125 713.0276 L 1125 704.3673 Z " id="Path" fill="rgb(0,0,0)"/><path d=" M 1170 825.6108 L 1290 756.3288 L 1290 764.989 L 1170 834.2711 L 1170 825.6108 Z " id="Path" fill="rgb(116,116,116)"/><path d=" M 1125 825.6108 L 1000 753.4421 L 1000 762.1024 L 1125 834.2711 L 1125 825.6108 Z " id="Path" fill="rgb(0,0,0)"/><path d=" M 1170 652.4058 L 1290 583.1238 L 1290 591.7841 L 1170 661.0661 L 1170 652.4058 Z " id="Path" fill="rgb(116,116,116)"/><path d=" M 1125 652.4058 L 1000 580.2371 L 1000 588.8974 L 1125 661.0661 L 1125 652.4058 Z " id="Path" fill="rgb(0,0,0)"/><path d=" M 1170 773.6493 L 1290 704.3673 L 1290 713.0276 L 1170 782.3096 L 1170 773.6493 Z " id="Path" fill="rgb(116,116,116)"/><path d=" M 1125 773.6493 L 1000 701.4806 L 1000 710.1409 L 1125 782.3096 L 1125 773.6493 Z " id="Path" fill="rgb(0,0,0)"/><path d=" M 1170 687.0468 L 1290 617.7648 L 1290 626.425 L 1170 695.7071 L 1170 687.0468 Z " id="Path" fill="rgb(116,116,116)"/><path d=" M 1125 687.0468 L 1000 614.8781 L 1000 623.5384 L 1125 695.7071 L 1125 687.0468 Z " id="Path" fill="rgb(0,0,0)"/><path d=" M 1170 808.2903 L 1290 739.0082 L 1290 747.6685 L 1170 816.9506 L 1170 808.2903 Z " id="Path" fill="rgb(116,116,116)"/><path d=" M 1125 808.2903 L 1000 736.1216 L 1000 744.7819 L 1125 816.9506 L 1125 808.2903 Z " id="Path" fill="rgb(0,0,0)"/><path d=" M 1125 877.5724 L 1000 805.4036 L 1000 814.0639 L 1125 886.2327 L 1125 877.5724 Z " id="Path" fill="rgb(0,0,0)"/><path d=" M 1170 877.5724 L 1290 808.2904 L 1290 816.9506 L 1170 886.2327 L 1170 877.5724 Z " id="Path" fill="rgb(116,116,116)"/><path d=" M 1170 721.6878 L 1290 652.4058 L 1290 661.066 L 1170 730.3481 L 1170 721.6878 Z " id="Path" fill="rgb(116,116,116)"/><path d=" M 1125 721.6878 L 1000 649.5191 L 1000 658.1794 L 1125 730.3481 L 1125 721.6878 Z " id="Path" fill="rgb(0,0,0)"/><path d=" M 1170 842.9313 L 1290 773.6493 L 1290 782.3095 L 1170 851.5916 L 1170 842.9313 Z " id="Path" fill="rgb(116,116,116)"/><path d=" M 1125 842.9313 L 1000 770.7625 L 1000 779.4228 L 1125 851.5916 L 1125 842.9313 Z " id="Path" fill="rgb(0,0,0)"/><path d=" M 1170 617.7649 L 1290 548.4828 L 1290 557.1431 L 1170 626.4252 L 1170 617.7649 Z " id="Path" fill="rgb(116,116,116)"/><path d=" M 1170 739.0084 L 1290 669.7263 L 1290 678.3866 L 1170 747.6686 L 1170 739.0084 Z " id="Path" fill="rgb(116,116,116)"/><path d=" M 1125 739.0084 L 1000 666.8397 L 1000 675.4999 L 1125 747.6686 L 1125 739.0084 Z " id="Path" fill="rgb(0,0,0)"/><path d=" M 1290 539.8225 L 1290 427.2392 L 1170 600.4443 L 1170 609.1045 L 1290 539.8225 Z " id="Mask" fill="rgb(255,255,255)"/><clipPath id="_clipPath_Z073vWOxcgAT8yVMo2pVOP3VdoGO2YoM"><path d=" M 1290 539.8225 L 1290 427.2392 L 1170 600.4443 L 1170 609.1045 L 1290 539.8225 Z " id="Mask" fill="rgb(255,255,255)"/></clipPath><g clip-path="url(#_clipPath_Z073vWOxcgAT8yVMo2pVOP3VdoGO2YoM)"><g id="Group"><path d=" M 1170 496.5213 L 1290 427.2392 L 1290 435.8995 L 1170 505.1815 L 1170 496.5213 Z " id="Path" fill="rgb(116,116,116)"/><path d=" M 1170 531.1622 L 1290 461.8802 L 1290 470.5404 L 1170 539.8225 L 1170 531.1622 Z " id="Path" fill="rgb(116,116,116)"/><path d=" M 1170 565.8032 L 1290 496.5212 L 1290 505.1815 L 1170 574.4635 L 1170 565.8032 Z " id="Path" fill="rgb(116,116,116)"/><path d=" M 1170 600.4443 L 1290 531.1623 L 1290 539.8226 L 1170 609.1046 L 1170 600.4443 Z " id="Path" fill="rgb(116,116,116)"/><path d=" M 1170 513.8418 L 1290 444.5597 L 1290 453.22 L 1170 522.502 L 1170 513.8418 Z " id="Path" fill="rgb(116,116,116)"/><path d=" M 1170 548.4827 L 1290 479.2007 L 1290 487.861 L 1170 557.143 L 1170 548.4827 Z " id="Path" fill="rgb(116,116,116)"/><path d=" M 1170 583.1237 L 1290 513.8417 L 1290 522.502 L 1170 591.784 L 1170 583.1237 Z " id="Path" fill="rgb(116,116,116)"/></g></g><path d=" M 1170 909.3267 L 1290 840.0446 L 1290 828.4976 L 1170 897.7797 L 1170 909.3267 Z " id="Path" fill="rgb(255,255,255)"/><path d=" M 1000 822.7241 L 1130 897.7797 L 1130 923.7604 L 1000 848.7049 L 1000 822.7241 Z " id="Path" fill="rgb(170,170,170)"/><path d=" M 1170 897.7797 L 1170 909.3267 L 1130 909.3267 L 1130 897.7797 L 1170 897.7797 Z " id="Path" fill="rgb(238,238,238)"/><clipPath id="_clipPath_ojnoVjFejXrrIXjq1WvO5leg7GKJHFTv"><path d=" M 1000 554.2563 L 1000 444.5598 L 1125 626.4252 L 1000 554.2563 Z " id="Mask" fill="rgb(255,255,255)"/></clipPath><g clip-path="url(#_clipPath_ojnoVjFejXrrIXjq1WvO5leg7GKJHFTv)"><g id="Group"><path d=" M 1120 545.596 L 1000 476.314 L 1000 484.9743 L 1120 554.2563 L 1120 545.596 Z " id="Path" fill="rgb(0,0,0)"/><g id="Group"><path d=" M 1125 513.8419 L 1000 441.673 L 1000 450.3332 L 1125 522.5022 L 1125 513.8419 Z " id="Path" fill="rgb(0,0,0)"/><path d=" M 1125 583.1238 L 1000 510.955 L 1000 519.6153 L 1125 591.7841 L 1125 583.1238 Z " id="Path" fill="rgb(0,0,0)"/><path d=" M 1125 617.7648 L 1000 545.596 L 1000 554.2563 L 1125 626.4251 L 1125 617.7648 Z " id="Path" fill="rgb(0,0,0)"/><path d=" M 1125 565.8034 L 1000 493.6345 L 1000 502.2948 L 1125 574.4636 L 1125 565.8034 Z " id="Path" fill="rgb(0,0,0)"/><path d=" M 1125 531.1624 L 1000 458.9935 L 1000 467.6537 L 1125 539.8227 L 1125 531.1624 Z " id="Path" fill="rgb(0,0,0)"/><path d=" M 1125 600.4443 L 1000 528.2755 L 1000 536.9358 L 1125 609.1046 L 1125 600.4443 Z " id="Path" fill="rgb(0,0,0)"/></g></g></g><linearGradient id="_lgradient_0" x1="0.9189060205580011" y1="0.42070855806788365" x2="0.1083333333333325" y2="0.41778365582309" gradientTransform="matrix(40,0,0,288.6751,1130,609.1045)" gradientUnits="userSpaceOnUse"><stop offset="21.304347826086957%" stop-opacity="0" style="stop-color:rgb(0,0,0)"/><stop offset="100%" stop-opacity="1" style="stop-color:rgb(0,0,0)"/></linearGradient><path d=" M 1130 609.1045 L 1170 609.1045 L 1170 897.7797 L 1130 897.7797 L 1130 609.1045 Z " id="Path" fill="url(#_lgradient_0)" fill-opacity="0.5"/><linearGradient id="_lgradient_1" x1="0.9189060205580011" y1="0.42070855806788365" x2="0.1083333333333325" y2="0.41778365582309" gradientTransform="matrix(40,0,0,11.547,1130,897.7797)" gradientUnits="userSpaceOnUse"><stop offset="21.304347826086957%" stop-opacity="0" style="stop-color:rgb(0,0,0)"/><stop offset="100%" stop-opacity="1" style="stop-color:rgb(0,0,0)"/></linearGradient><path d=" M 1130 897.7797 L 1170 897.7797 L 1170 909.3267 L 1130 909.3267 L 1130 897.7797 Z " id="Path" fill="url(#_lgradient_1)" fill-opacity="0.5"/><linearGradient id="_lgradient_2" x1="0.9189060205580011" y1="0.42070855806788365" x2="0.1083333333333325" y2="0.41778365582309" gradientTransform="matrix(40,0,0,20.2073,1130,588.8973)" gradientUnits="userSpaceOnUse"><stop offset="21.304347826086957%" stop-opacity="0" style="stop-color:rgb(0,0,0)"/><stop offset="100%" stop-opacity="1" style="stop-color:rgb(0,0,0)"/></linearGradient><path d=" M 1130 588.8973 L 1170 588.8973 L 1170 609.1045 L 1130 609.1045 L 1130 588.8973 Z " id="Path" fill="url(#_lgradient_2)" fill-opacity="0.5"/><path d=" M 1160 346.4101 L 1130 346.9668 L 1130 574.4635 L 1165 574.4635 L 1270 412.8054 L 1160 242.4871 L 1160 346.4101 Z " id="Mask" fill="rgb(113,116,123)"/><clipPath id="_clipPath_FdWP6dXyz8Tf6ubUSDyDmROQwcjnTnz2"><path d=" M 1160 346.4101 L 1130 346.9668 L 1130 574.4635 L 1165 574.4635 L 1270 412.8054 L 1160 242.4871 L 1160 346.4101 Z " id="Mask" fill="rgb(113,116,123)"/></clipPath><g clip-path="url(#_clipPath_FdWP6dXyz8Tf6ubUSDyDmROQwcjnTnz2)"><path d=" M 1152.5 235.2702 L 1160 239.6004 L 1160 577.3503 L 1152.5 581.6804 L 1152.5 235.2702 Z " id="Path" fill="rgb(69,71,74)"/><path d=" M 1212.5 235.2702 L 1220 239.6004 L 1220 577.3503 L 1212.5 581.6804 L 1212.5 235.2702 Z " id="Path" fill="rgb(69,71,74)"/><path d=" M 1182.5 235.2702 L 1190 239.6004 L 1190 577.3503 L 1182.5 581.6804 L 1182.5 235.2702 Z " id="Path" fill="rgb(69,71,74)"/><path d=" M 1242.5 235.2702 L 1249.9999 239.6004 L 1249.9999 577.3503 L 1242.5 581.6804 L 1242.5 235.2702 Z " id="Path" fill="rgb(69,71,74)"/><path d=" M 1167.5 235.2702 L 1175 239.6004 L 1175 577.3503 L 1167.5 581.6804 L 1167.5 235.2702 Z " id="Path" fill="rgb(69,71,74)"/><path d=" M 1227.5 235.2702 L 1234.9999 239.6004 L 1234.9999 577.3503 L 1227.5 581.6804 L 1227.5 235.2702 Z " id="Path" fill="rgb(69,71,74)"/><path d=" M 1197.5 235.2702 L 1205 239.6004 L 1205 577.3503 L 1197.5 581.6804 L 1197.5 235.2702 Z " id="Path" fill="rgb(69,71,74)"/><path d=" M 1137.5 264.1377 L 1145 268.4679 L 1145 606.2178 L 1137.5 610.5479 L 1137.5 264.1377 Z " id="Path" fill="rgb(69,71,74)"/><path d=" M 1257.5 235.2702 L 1264.9999 239.6004 L 1264.9999 577.3503 L 1257.5 581.6804 L 1257.5 235.2702 Z " id="Path" fill="rgb(69,71,74)"/><path d=" M 1145 233.8269 L 1152.5 238.157 L 1152.5 578.7937 L 1145 583.1238 L 1145 233.8269 Z " id="Path" fill="rgb(113,116,123)"/><path d=" M 1205 233.8269 L 1212.5 238.157 L 1212.5 578.7937 L 1205 583.1238 L 1205 233.8269 Z " id="Path" fill="rgb(113,116,123)"/><path d=" M 1175 233.8269 L 1182.5 238.157 L 1182.5 578.7937 L 1175 583.1238 L 1175 233.8269 Z " id="Path" fill="rgb(113,116,123)"/><path d=" M 1235 233.8269 L 1242.5 238.157 L 1242.5 578.7937 L 1235 583.1238 L 1235 233.8269 Z " id="Path" fill="rgb(113,116,123)"/><path d=" M 1160 233.8269 L 1167.5 238.157 L 1167.5 578.7937 L 1160 583.1238 L 1160 233.8269 Z " id="Path" fill="rgb(113,116,123)"/><path d=" M 1220 233.8269 L 1227.5 238.157 L 1227.5 578.7937 L 1220 583.1238 L 1220 233.8269 Z " id="Path" fill="rgb(113,116,123)"/><path d=" M 1190 233.8269 L 1197.5 238.157 L 1197.5 578.7937 L 1190 583.1238 L 1190 233.8269 Z " id="Path" fill="rgb(113,116,123)"/><path d=" M 1130 262.6943 L 1137.5 267.0245 L 1137.5 607.6611 L 1130 611.9913 L 1130 262.6943 Z " id="Path" fill="rgb(113,116,123)"/><path d=" M 1264.9999 233.8269 L 1272.4999 238.157 L 1272.4999 578.7937 L 1264.9999 583.1238 L 1264.9999 233.8269 Z " id="Path" fill="rgb(113,116,123)"/><path d=" M 1249.9999 233.8269 L 1257.4999 238.157 L 1257.4999 578.7937 L 1249.9999 583.1238 L 1249.9999 233.8269 Z " id="Path" fill="rgb(113,116,123)"/></g><linearGradient id="_lgradient_3" x1="0.9189060205580011" y1="0.42070855806788365" x2="0.1083333333333325" y2="0.41778365582309" gradientTransform="matrix(61,0,0,242.4871,1130,346.4102)" gradientUnits="userSpaceOnUse"><stop offset="21.304347826086957%" stop-opacity="0" style="stop-color:rgb(0,0,0)"/><stop offset="100%" stop-opacity="1" style="stop-color:rgb(0,0,0)"/></linearGradient><path d=" M 1130 346.4102 L 1191 346.4102 L 1191 588.8973 L 1130 588.8973 L 1130 346.4102 Z " id="Path" fill="url(#_lgradient_3)" fill-opacity="0.3"/></g></svg>