<svg id="Layer_1" data-name="Layer 1" xmlns="http://www.w3.org/2000/svg" viewBox="0 0 480 392.5984">
  <defs>
    <style>
      .cls-1 {
        fill: #e8e8e8;
      }

      .cls-2 {
        fill: #b9b9b9;
      }

      .cls-3 {
        fill: #5d5d5d;
      }

      .cls-4 {
        fill: #2e2e2e;
      }

      .cls-5 {
        fill: #d1d1d1;
      }

      .cls-6 {
        fill: #a2a2a2;
      }

      .cls-7 {
        fill: #acacac;
      }

      .cls-8 {
        fill: #c6c6c6;
      }

      .cls-9 {
        fill: #b0dcff;
      }

      .cls-10 {
        fill: #6c6c6c;
      }

      .cls-11 {
        fill: #8e8e8e;
      }

      .cls-12 {
        fill: #d0d0d0;
      }

      .cls-13, .cls-14 {
        fill: none;
      }

      .cls-14 {
        stroke: #fff;
        stroke-linecap: round;
        stroke-linejoin: round;
        stroke-width: 0;
      }

      .cls-15 {
        fill: #fff;
      }

      .cls-16 {
        fill: #78cbff;
      }

      .cls-17 {
        fill: #e3efff;
      }

      .cls-18 {
        fill: #3258a8;
      }

      .cls-19 {
        fill: #4d92ff;
      }

      .cls-20 {
        fill: #fff587;
      }

      .cls-21 {
        fill: #fffbcd;
      }

      .cls-22 {
        fill: #c6be68;
      }

      .cls-23 {
        fill: #b0d1ff;
      }

      .cls-24 {
        fill: #edf3ff;
      }

      .cls-25 {
        opacity: 0.07;
      }

      .cls-26 {
        fill: #346288;
      }
    </style>
  </defs>
  <title>Artboard 14</title>
  <g>
    <g>
      <path id="Path" class="cls-1" d="M480,300.093,320,392.5984,0,207.8462,160,115.341Z"/>
      <path id="Path-2" data-name="Path" class="cls-2" d="M160,126.888,20,207.8462,320,381.0514,460,300.093Z"/>
      <path id="Path-3" data-name="Path" class="cls-3" d="M170,121.1146v11.547L30,213.62l-10-5.7736Z"/>
      <path id="Path-4" data-name="Path" class="cls-4" d="M460,300.093,180,138.435v11.547L450,305.8666Z"/>
      <g id="Group">
        <g id="Group-2" data-name="Group">
          <path id="Path-5" data-name="Path" class="cls-1" d="M115,11.5472,135,0l5,2.8866-20,11.547Z"/>
          <path id="Path-6" data-name="Path" class="cls-5" d="M140,2.8868V31.7544l-5,2.8868V11.5472l-10,5.7734-5-2.8868Z"/>
          <path id="Path-7" data-name="Path" class="cls-6" d="M130,31.7544V14.4338l5-2.8866v23.094Z"/>
        </g>
        <path id="Path-8" data-name="Path" class="cls-1" d="M170,43.3014l20-11.547,5,2.8868-20,11.547Z"/>
        <path id="Path-9" data-name="Path" class="cls-5" d="M195,34.6412V63.5086l-5,2.8868V43.3014l-10,5.7734-5-2.8866Z"/>
        <path id="Path-10" data-name="Path" class="cls-6" d="M185,63.5086v-17.32l5-2.8868v23.094Z"/>
        <g id="Group-3" data-name="Group">
          <path id="Path-11" data-name="Path" class="cls-1" d="M225,75.0556l20-11.547,5,2.8868-20,11.547Z"/>
          <path id="Path-12" data-name="Path" class="cls-5" d="M250,66.3954V95.2628L245,98.15V75.0556l-10,5.7736-5-2.8868Z"/>
          <path id="Path-13" data-name="Path" class="cls-6" d="M240,95.2628v-17.32l5-2.8868V98.15Z"/>
        </g>
        <path id="Path-14" data-name="Path" class="cls-1" d="M130,2.8868l170,98.15,5-2.8868L135,0Z"/>
        <path id="Path-15" data-name="Path" class="cls-6" d="M135,11.547V5.7736l50,28.8676-5,2.8866Z"/>
        <path id="Path-16" data-name="Path" class="cls-6" d="M190,43.3014V37.5278l50,28.8676-5,2.8868Z"/>
        <path id="Path-17" data-name="Path" class="cls-6" d="M245,75.0556V69.2822L295,98.15l-5,2.8868Z"/>
        <path id="Path-18" data-name="Path" class="cls-7" d="M120,254.0342,145,239.6l-10-5.7734-25,14.4338Z"/>
        <path id="Path-19" data-name="Path" class="cls-7" d="M175,285.7884l25-14.4336-10-5.7736L165,280.015Z"/>
        <path id="Path-20" data-name="Path" class="cls-7" d="M230,317.5428l25-14.4338-10-5.7736-25,14.4338Z"/>
        <path id="Path-21" data-name="Path" class="cls-7" d="M285,349.297l25-14.4338L300,329.09l-25,14.4338Z"/>
        <g id="Group-4" data-name="Group">
          <path id="Path-22" data-name="Path" class="cls-6" d="M280,343.5236l5,2.8866v-34.641l-5-2.8866Z"/>
          <path id="Path-23" data-name="Path" class="cls-8" d="M290,343.5236l-5,2.8866V305.9958l5-2.8868Z"/>
        </g>
        <g id="Group-5" data-name="Group">
          <path id="Path-24" data-name="Path" class="cls-6" d="M115,248.2608l5,2.8866v-17.32l-5-2.8868Z"/>
          <path id="Path-25" data-name="Path" class="cls-8" d="M125,248.2608l-5,2.8866v-17.32l5-2.8868Z"/>
        </g>
        <g id="Group-6" data-name="Group">
          <path id="Path-26" data-name="Path" class="cls-6" d="M225,311.7692l5,2.8868V297.3354l-5-2.8866Z"/>
          <path id="Path-27" data-name="Path" class="cls-8" d="M235,311.7692l-5,2.8868V297.3354l5-2.8866Z"/>
        </g>
        <g id="Group-7" data-name="Group">
          <path id="Path-28" data-name="Path" class="cls-6" d="M170,280.015l5,2.8868V265.5812l-5-2.8868Z"/>
          <path id="Path-29" data-name="Path" class="cls-8" d="M180,280.015l-5,2.8868V265.5812l5-2.8868Z"/>
        </g>
        <g id="Group-8" data-name="Group">
          <path id="Path-30" data-name="Path" class="cls-9" d="M115,11.547V207.8462l170,98.15V109.6966Z"/>
        </g>
        <path id="Path-31" data-name="Path" class="cls-6" d="M105,213.62l170,98.15v11.547l-170-98.15Z"/>
        <path id="Path-32" data-name="Path" class="cls-1" d="M105,213.62l170,98.15,10-5.7734-170-98.15Z"/>
        <path id="Path-33" data-name="Path" class="cls-10" d="M115,184.7522l170,98.15v23.094l-170-98.15Z"/>
        <g id="Group-9" data-name="Group">
          <path id="Path-34" data-name="Path" class="cls-1" d="M280,106.81,300,95.263l5,2.8866-20,11.547Z"/>
          <path id="Path-35" data-name="Path" class="cls-5" d="M305,98.15V334.8632l-5,2.8868V106.81l-10,5.7734-5-2.8868Z"/>
          <path id="Path-36" data-name="Path" class="cls-6" d="M295,334.8632V109.6966l5-2.8866V337.75Z"/>
        </g>
        <path id="Path-37" data-name="Path" class="cls-5" d="M275,323.3162l30-17.32v-11.547l-30,17.32Z"/>
        <path id="Path-38" data-name="Path" class="cls-1" d="M290,297.3354l5-2.8866,5,2.8866-10,5.7736Z"/>
        <path id="Path-39" data-name="Path" class="cls-5" d="M290,106.81V303.109l-5,2.8868V109.6966Z"/>
        <g id="Group-10" data-name="Group">
          <path id="Path-40" data-name="Path" class="cls-5" d="M285,152.998l20-11.547v5.7734l-20,11.547Z"/>
          <path id="Path-41" data-name="Path" class="cls-1" d="M295,141.451l5,2.8866-10,5.7736v-5.7736Z"/>
        </g>
        <path id="Path-42" data-name="Path" class="cls-1" d="M290,138.5642v-5.7736l5,2.8868v5.7734Z"/>
        <path id="Path-43" data-name="Path" class="cls-1" d="M290,181.8654V176.092l5,2.8866v5.7736Z"/>
        <path id="Path-44" data-name="Path" class="cls-1" d="M290,225.1668v-5.7736l5,2.8868v5.7734Z"/>
        <path id="Path-45" data-name="Path" class="cls-1" d="M290,268.468v-5.7736l5,2.8868v5.7736Z"/>
        <path id="Path-46" data-name="Path" class="cls-1" d="M290,291.562v-5.7736l5,2.8868v5.7736Z"/>
        <path id="Path-47" data-name="Path" class="cls-6" d="M290,144.3376l5-2.8868-5-2.8866Z"/>
        <path id="Path-48" data-name="Path" class="cls-6" d="M290,187.639l5-2.8868-5-2.8868Z"/>
        <path id="Path-49" data-name="Path" class="cls-6" d="M290,230.94l5-2.8868-5-2.8866Z"/>
        <path id="Path-50" data-name="Path" class="cls-6" d="M290,274.2414l5-2.8866-5-2.8868Z"/>
        <path id="Path-51" data-name="Path" class="cls-6" d="M290,297.3354l5-2.8866-5-2.8868Z"/>
        <g id="Group-11" data-name="Group">
          <path id="Path-52" data-name="Path" class="cls-5" d="M285,239.6l20-11.547v5.7736l-20,11.547Z"/>
          <path id="Path-53" data-name="Path" class="cls-1" d="M295,228.0534l5,2.8868-10,5.7736V230.94Z"/>
        </g>
        <g id="Group-12" data-name="Group">
          <path id="Path-54" data-name="Path" class="cls-5" d="M285,196.2992l20-11.547v5.7734l-20,11.547Z"/>
          <path id="Path-55" data-name="Path" class="cls-1" d="M295,184.7522l5,2.8868-10,5.7734V187.639Z"/>
        </g>
        <g id="Group-13" data-name="Group">
          <path id="Path-56" data-name="Path" class="cls-5" d="M285,282.9018l20-11.547v5.7734l-20,11.547Z"/>
          <path id="Path-57" data-name="Path" class="cls-1" d="M295,271.3548l5,2.8866-10,5.7736v-5.7736Z"/>
        </g>
        <path id="Path-58" data-name="Path" class="cls-6" d="M115,213.62l160,92.3762,5-2.8868L120,210.733Z"/>
        <path id="Path-59" data-name="Path" class="cls-11" d="M290,280.015l-5,2.8868v23.094l5-2.8868Z"/>
        <path id="Path-60" data-name="Path" class="cls-10" d="M115,11.5472v11.547l170,98.1494v-11.547Z"/>
        <path id="Path-61" data-name="Path" class="cls-11" d="M290,106.81l-5,2.8868v11.547l5-2.8866Z"/>
        <path id="Path-62" data-name="Path" class="cls-6" d="M120,210.733v5.7734l-5-2.8868Z"/>
        <path id="Path-63" data-name="Path" class="cls-12" d="M290,106.81l-5,2.8866L115,11.547,120,8.66Z"/>
      </g>
    </g>
    <g>
      <g>
        <path class="cls-13" d="M200.1,169.147l-.0061-.0075-8.7981,46.6982c-2.4549-1.7817-4.8307-3.7612-7.1673-5.8192l0,.0005-.0106-.01-.0326-.03q-.7208-.6409-1.4341-1.2976c.4815.4406.9466.9085,1.434,1.339,2.3505,2.0715,4.7408,4.0237,7.2108,5.8562.3.2216.6132.42.9155.6376-.3039-.22-.6088-.4358-.9113-.66Z"/>
        <path class="cls-13" d="M219.8594,189.9427l-6.7755.5945.0031.0429,2.7444,37.6263c-.1506-.0391-.3-.0725-.4509-.1132.1506.04.305.0962.4553.1344.3058.0764.605.1373.9085.208-.3022-.0723-.6059-.15-.91-.2285L213.087,190.54l6.8122-.5976v-3.5966l-.04-.0493Z"/>
        <path class="cls-13" d="M200.1394,169.147l11.3142-.9558.0292.3186-.0292-.3984-4.223-5.2586v-1.2351c0-2.5892-3.147-6.4935-7.051-8.7641l0,.0654c3.8854,2.2743,7.051,6.1582,6.9717,8.7385v.16a1.8565,1.8565,0,0,1-1.1154,1.7128c-1.2349.5579-3.4262.16-5.936-1.2746a18.2381,18.2381,0,0,1-3.4343-2.5549,18.2282,18.2282,0,0,0,3.4741,2.5947c2.47,1.4341,4.6613,1.8325,5.936,1.2746a1.8765,1.8765,0,0,0,1.1154-1.7128v1.0756l4.223,5.2588L200.1,169.147l7.4154,49.2748Z"/>
        <polygon class="cls-13" points="196.395 109.473 196.395 109.473 196.395 109.509 196.395 109.473"/>
        <polygon class="cls-13" points="228.385 153.331 226.951 153.451 226.911 170.263 222.957 189.952 223.021 190.031 226.99 170.263 227.03 153.491 228.42 153.375 228.385 153.331"/>
        <path class="cls-13" d="M197.47,95.9244a2.1838,2.1838,0,0,1,1.0758,1.2348v.08c0,.3584-.4781.3982-1.0758.08a2.4553,2.4553,0,0,1-.2833-.1914,3.19,3.19,0,0,0,.3234.2312c.5966.3582,1.0739.3182,1.0751-.0785l0-.1208v-.04a2.0917,2.0917,0,0,0-1.0358-1.2348c-.4218-.2411-.7962-.2758-.9718-.1411A1.0383,1.0383,0,0,1,197.47,95.9244Z"/>
        <polygon class="cls-13" points="200.256 124.127 200.219 124.13 200.217 124.127 200.179 124.13 192.63 114.741 200.179 124.15 200.259 124.249 200.259 124.13 200.256 124.127"/>
        <path class="cls-13" d="M193.088,156.08l1.0966.6266c-.0059-.01-.0149-.0193-.0208-.0289-.0071-.0112-.0121-.0223-.019-.0336l-1.0568-.6039v-1.2351l-.0012,0-.0386,1.2349c0,2.27,2.4192,5.58,5.646,7.8654C195.4873,161.6026,193.088,158.3409,193.088,156.08Z"/>
        <polygon class="cls-13" points="163.448 129.189 166.277 128.95 163.446 129.186 163.448 129.189"/>
        <polygon class="cls-13" points="166.357 102.697 166.319 102.7 167.751 104.45 166.357 102.697"/>
        <path class="cls-13" d="M179.1488,113.0153a1.1419,1.1419,0,0,0-.8408.6769A1.1587,1.1587,0,0,1,179.1488,113.0153Z"/>
        <polygon class="cls-13" points="232.727 141.738 234.154 141.62 234.122 141.579 232.687 141.699 229.948 155.197 230.018 155.284 232.727 141.738"/>
        <polygon class="cls-13" points="241.133 169.067 239.739 167.347 241.131 169.094 241.133 169.067"/>
        <path class="cls-13" d="M178.0814,113.494c-.0287-.0241-.0691-.0577-.092-.0806a.6426.6426,0,0,0-.3585-.1194c-.0077,0-.0114.0066-.0188.007a.6415.6415,0,0,1,.3375.1124A.5287.5287,0,0,1,178.0814,113.494Z"/>
        <polygon class="cls-13" points="247.899 221.016 247.906 221.056 247.977 221.451 247.984 221.444 247.907 221.025 247.899 221.016"/>
        <path class="cls-13" d="M208.147,173.0513a2.1436,2.1436,0,0,1,.8366.7571c.0121-.03.0341-.0464.0469-.0756a2.9453,2.9453,0,0,0-.8038-.7213,1.6149,1.6149,0,0,0-.6773-.1992.8667.8667,0,0,0-.3353.0965.7265.7265,0,0,1,.2557-.0567A1.4666,1.4666,0,0,1,208.147,173.0513Z"/>
        <polygon class="cls-13" points="200.299 109.151 202.37 111.78 202.37 115.525 202.41 115.548 202.41 111.82 202.45 95.879 202.41 111.7 200.299 109.071 198.546 109.23 198.546 109.31 200.299 109.151"/>
        <path class="cls-13" d="M211.7722,172.5733a3.5484,3.5484,0,0,1,.9164.3984,1.7371,1.7371,0,0,1,.3984.2391,9.0706,9.0706,0,0,1,3.4659,5.9357l.04.04v-.04c.04,0,.04.04.08.04a4.8487,4.8487,0,0,1,1.9121,2.39,4.08,4.08,0,0,1,.3273,1.4959,4.05,4.05,0,0,0-.2875-1.5755,4.679,4.679,0,0,0-1.9121-2.39c-.04,0-.04-.04-.08-.04v.04l-.04-.04a8.9789,8.9789,0,0,0-3.4659-5.9361c-.1594-.08-.279-.1992-.4382-.2788a5.2009,5.2009,0,0,0-.8413-.3707l.0048.0521a2.4742,2.4742,0,0,0-1.7161.066A2.5052,2.5052,0,0,1,211.7722,172.5733Z"/>
        <polygon class="cls-13" points="218.624 184.126 218.625 184.126 218.624 184.126 218.624 184.126"/>
        <path class="cls-13" d="M208.1072,132.5357c-.0032-.0187-.0005-.0343-.0032-.053a1.29,1.29,0,0,0-1.1064-.1047A1.3174,1.3174,0,0,1,208.1072,132.5357Z"/>
        <polygon class="cls-13" points="219.939 159.984 219.939 159.984 219.939 159.984 219.939 159.984"/>
        <rect class="cls-13" x="211.4536" y="160.6547" width="0.0001" height="0.0067"/>
        <path class="cls-13" d="M216.3138,137.2767c.04,0,.04.04.08.04a3.2808,3.2808,0,0,1,.4715.3435,3.1317,3.1317,0,0,0-.5113-.3833c-.04,0-.04-.04-.08-.04a1.41,1.41,0,0,0-1.13-.2005c.0037.0141.0114.0272.0147.0414A1.4208,1.4208,0,0,1,216.3138,137.2767Z"/>
        <path class="cls-13" d="M204.3748,96.4522a2.5273,2.5273,0,0,0-.8489-.8066,1.7615,1.7615,0,0,0-.4293-.1775,2.1258,2.1258,0,0,1,.3892.1775A2.7037,2.7037,0,0,1,204.3748,96.4522Z"/>
        <polygon class="cls-13" points="204.522 114.459 211.533 123.174 211.493 123.177 211.493 123.18 211.573 123.174 204.522 114.409 204.522 114.449 204.522 114.459"/>
        <path class="cls-13" d="M203.4858,97.04c.5975.3582,1.0755.3184,1.0757-.0794C204.5613,97.3185,204.0833,97.3583,203.4858,97.04Z"/>
        <path class="cls-13" d="M214.15,135.5893c-.0489-.0382-.0963-.0818-.1463-.1144v.0088C214.0535,135.5108,214.1,135.5557,214.15,135.5893Z"/>
        <path class="cls-13" d="M208.3516,130.69c.4824-.8821,1.5258-1.1018,2.7036-.4245a1.7707,1.7707,0,0,1,.4382.3188,6.0206,6.0206,0,0,1,.9469.9316,6.1362,6.1362,0,0,0-.9867-.9714l.0005-.0793a2.6528,2.6528,0,0,0-.3591-.2395C209.8593,129.5016,208.8085,129.7391,208.3516,130.69Z"/>
        <path class="cls-13" d="M206.673,174.0076v-.12l.0013-.01a4.4912,4.4912,0,0,0-1.2761-1.185,1.853,1.853,0,0,0-1.3148-.2788c-.028.0069-.0443.0311-.0711.04a1.8135,1.8135,0,0,1,1.3062.2789A4.06,4.06,0,0,1,206.673,174.0076Z"/>
        <path class="cls-13" d="M224.4688,229.5967c-.2157-.0124-.43-.0213-.6471-.0374.0575.0044.1153.0094.1732.0146.3836.0261.7661.0492,1.1456.064.0236.0007.0469.001.07.0019C224.9653,229.63,224.7162,229.611,224.4688,229.5967Z"/>
        <path class="cls-13" d="M177.1528,113.6922c.0014-.0082.0082-.0118.01-.02-.07-.0424-.1394-.1045-.2091-.1393a1.1383,1.1383,0,0,0-.4925-.1175,1.1753,1.1753,0,0,1,.4527.1175A.8361.8361,0,0,1,177.1528,113.6922Z"/>
        <path class="cls-13" d="M245.0005,223.9521c.1619-.1192.3177-.2472.4774-.37C245.3182,223.7047,245.1625,223.8334,245.0005,223.9521Z"/>
        <path class="cls-13" d="M238.2715,227.6025c.4252-.1637.85-.3255,1.2656-.5081C239.1216,227.2757,238.697,227.44,238.2715,227.6025Z"/>
        <path class="cls-13" d="M233.9226,228.9083,234.0818,166l-4.86-6.0555,4.8205,6.0953-.1591,62.8779c-.9464.2054-1.9062.3817-2.8907.5032.156-.019.3156-.0292.4705-.0508.2575-.036.5112-.08.7659-.1221.48-.0773.9588-.1584,1.4293-.2561q.8616-.1816,1.7022-.4076c.115-.0306.2328-.055.3472-.087.38-.1077.7348-.2649,1.1077-.3866C235.87,228.4162,234.9108,228.6923,233.9226,228.9083Z"/>
        <path class="cls-13" d="M228.7261,229.6163c.1671-.01.3412-.0025.5074-.0146.1211-.0087.241-.02.3616-.03.37-.0308.7327-.0778,1.0983-.1184C230.0459,229.527,229.389,229.5789,228.7261,229.6163Z"/>
        <path class="cls-13" d="M241.79,225.985q.4412-.2418.8725-.4992C242.374,225.6564,242.0844,225.8246,241.79,225.985Z"/>
        <path class="cls-13" d="M183.248,117.1981l-.6772-.3985a4.97,4.97,0,0,0-1.9121-3.3066,1.21,1.21,0,0,0-.2791-.199c.08.08.1595.1194.2391.199A4.9692,4.9692,0,0,1,182.531,116.8l.6773.3985a2.8443,2.8443,0,0,1,1.1551,2.1113c0,.5578-.2838.8723-.7026.8745.4413.0188.7426-.2987.7426-.8745A2.7239,2.7239,0,0,0,183.248,117.1981Z"/>
        <path class="cls-14" d="M252.7485,215.5981q-.8028,1.2518-1.6836,2.4007"/>
        <path class="cls-14" d="M251.0649,217.9988c-.3112.4036-.64.7831-.9658,1.1668"/>
        <path class="cls-15" d="M166.0378,190.0623c.3027.4079.6242.8156.934,1.2234-1.2008-1.6-2.3874-3.2145-3.5255-4.8734C164.2916,187.6473,165.1619,188.858,166.0378,190.0623Z"/>
        <path class="cls-15" d="M168.8665,193.7674q1.5157,1.9614,3.1107,3.8337c-1.2669-1.4968-2.4912-3.0461-3.7025-4.609C168.4744,193.2505,168.6664,193.509,168.8665,193.7674Z"/>
        <path class="cls-15" d="M168.2747,192.9921c-.44-.5688-.8708-1.1377-1.3029-1.7064Q167.6176,192.1461,168.2747,192.9921Z"/>
        <path class="cls-14" d="M250.0991,219.1656c-.3921.4629-.7964.9083-1.209,1.3422"/>
        <path class="cls-14" d="M235.36,228.5844c.115-.0306.2328-.055.3472-.087"/>
        <path class="cls-14" d="M140.0493,121.5187c.0037.0976.011.1961.015.2937"/>
        <path class="cls-14" d="M253.5007,214.3542c-.2465.42-.4928.84-.7522,1.2439"/>
        <path class="cls-15" d="M140.0348,121.237c.0032.0935.011.1881.0145.2817-.0094-.24-.006-.4762-.0133-.7155Z"/>
        <path class="cls-14" d="M259.1552,197.6148c-.0561.3657-.1261.7178-.188,1.0779"/>
        <path class="cls-14" d="M158.9135,179.3752c-.4559-.7539-.9111-1.5082-1.3533-2.27"/>
        <path class="cls-14" d="M258.0363,203.1359c-.3152,1.2285-.6769,2.4085-1.0661,3.5583"/>
        <path class="cls-14" d="M258.2871,202.05c-.0848.361-.16.7319-.2508,1.0864"/>
        <path class="cls-14" d="M258.9672,198.6927q-.2953,1.7226-.68,3.3568"/>
        <path class="cls-14" d="M259.6625,193.26c-.1259,1.4915-.2924,2.9463-.5073,4.3547"/>
        <path class="cls-14" d="M259.7469,192.0889c-.0267.3919-.0517.7849-.0844,1.1712"/>
        <path class="cls-14" d="M255.3588,210.7783c-.2113.4641-.4334.9151-.6581,1.3632"/>
        <path class="cls-14" d="M254.7007,212.1415q-.5715,1.1415-1.2,2.2127"/>
        <path class="cls-14" d="M256.5087,207.9808q-.5368,1.4423-1.15,2.7975"/>
        <path class="cls-14" d="M256.97,206.6942c-.1477.4356-.3033.8624-.4615,1.2866"/>
        <path class="cls-14" d="M159.8683,180.9378c-.3225-.5182-.6388-1.04-.9548-1.5626"/>
        <path class="cls-14" d="M156.7223,175.624c.2788.4939.5532.99.8379,1.4809"/>
        <path class="cls-14" d="M229.2335,229.6017c.1211-.0087.241-.02.3616-.03"/>
        <path class="cls-14" d="M172.0238,197.6555l-.0466-.0544"/>
        <path class="cls-14" d="M162.63,185.2012q-.7443-1.1026-1.4674-2.2224"/>
        <path class="cls-15" d="M259.7469,192.0889c.1084-1.5913.1845-3.2114.19-4.8923v-.001C259.9324,188.8775,259.8546,190.4968,259.7469,192.0889Z"/>
        <path class="cls-15" d="M163.21,186.0787c.0766.1134.16.2207.2368.3336-.2753-.4011-.5448-.8069-.8162-1.2111C162.826,185.4915,163.0115,185.79,163.21,186.0787Z"/>
        <path class="cls-15" d="M233.9225,228.9446c.4861-.1043.9614-.2331,1.4375-.36q-.84.2274-1.7022.4076C233.745,228.9739,233.8357,228.9634,233.9225,228.9446Z"/>
        <path class="cls-15" d="M235.7072,228.4974c.4246-.1188.8228-.2927,1.2392-.4293l-.1315.0427C236.442,228.2325,236.0872,228.39,235.7072,228.4974Z"/>
        <path class="cls-15" d="M241.79,225.985c-.0659.0359-.1291.0766-.1954.112.4663-.25.9231-.512,1.3745-.7868-.1007.0613-.2053.1156-.3066.1756Q242.23,225.7431,241.79,225.985Z"/>
        <path class="cls-15" d="M245.0005,223.9521c-.1723.1262-.3479.2466-.5227.3686q.79-.552,1.5431-1.1589c-.1789.1437-.3612.2815-.543.4205C245.3182,223.7049,245.1624,223.8329,245.0005,223.9521Z"/>
        <path class="cls-15" d="M238.2715,227.6025c-.04.0152-.079.0327-.1192.0478.59-.2223,1.17-.459,1.7409-.7176-.1188.0538-.2365.11-.3561.1617C239.1219,227.277,238.6967,227.4388,238.2715,227.6025Z"/>
        <path class="cls-15" d="M248.1368,221.2863c-.0522.051-.1.1077-.1532.1583v0l-.0061.0063v0c-.0273.0262-.0523.056-.08.0821-.2751.2626-.5637.5046-.847.7548.3071-.271.6377-.5083.9348-.7932.04-.04.1194-.1194.1592-.1594.2619-.2564.491-.56.7454-.8275-.2495.2617-.4964.5273-.7534.7784Z"/>
        <path class="cls-14" d="M233.6578,228.992c-.4705.0977-.9491.1788-1.4293.2561"/>
        <path class="cls-14" d="M161.1627,182.9788q-.6548-1.0151-1.2944-2.041"/>
        <path class="cls-14" d="M140.266,125.1292q-.1337-1.6666-.2017-3.3168"/>
        <path class="cls-14" d="M140.6481,128.9273l-.01-.0826"/>
        <path class="cls-14" d="M231.4626,229.37c.2575-.036.5112-.08.7659-.1221"/>
        <path class="cls-14" d="M140.6381,128.8447q-.2094-1.74-.35-3.4657"/>
        <path class="cls-14" d="M140.2877,125.379c-.0068-.0832-.0151-.1667-.0217-.25"/>
        <path class="cls-15" d="M153.33,169.3065c1.0715,2.1284,2.2151,4.2314,3.3928,6.3175a141.7266,141.7266,0,0,1-10.4017-22.8865A138.3623,138.3623,0,0,0,153.33,169.3065Z"/>
        <path class="cls-15" d="M142.67,140.2007c-.3464-1.4841-.65-2.9644-.9315-4.4425C142.0193,137.2363,142.3252,138.7164,142.67,140.2007Z"/>
        <path class="cls-15" d="M146.3206,152.7375c-.0712-.2042-.1381-.4088-.2082-.6132C146.1826,152.3287,146.2491,152.5331,146.3206,152.7375Z"/>
        <path class="cls-15" d="M141.7389,135.7582c-.0792-.4177-.1729-.837-.2468-1.254C141.5664,134.9214,141.6593,135.34,141.7389,135.7582Z"/>
        <path class="cls-15" d="M144.5231,147.16q-.1668-.5608-.3284-1.1214Q144.3564,146.6,144.5231,147.16Z"/>
        <path class="cls-15" d="M144.1947,146.0388c-.4329-1.5031-.8282-3.006-1.1978-4.5077Q143.5492,143.7841,144.1947,146.0388Z"/>
        <path class="cls-15" d="M141.4921,134.5042c-.3327-1.8669-.62-3.728-.844-5.5769C140.8706,130.7758,141.161,132.6371,141.4921,134.5042Z"/>
        <path class="cls-15" d="M146.1124,152.1243q-.8514-2.4783-1.5893-4.9641Q145.2625,149.6457,146.1124,152.1243Z"/>
        <path class="cls-15" d="M142.9969,141.5311c-.1087-.4435-.2233-.8872-.3265-1.33C142.7739,140.6441,142.8878,141.0873,142.9969,141.5311Z"/>
        <path class="cls-15" d="M225.2109,229.64c-.0235-.0009-.0468-.0012-.07-.0019.7325.0285,1.4552.0323,2.1715.0189-.3579.006-.714.0172-1.0758.0117C225.8965,229.6645,225.5542,229.6531,225.2109,229.64Z"/>
        <path class="cls-15" d="M223.7086,229.5527c-.2944-.0224-.5885-.0431-.8846-.0717-.0506-.005-.1022-.0138-.1529-.019-.3216-.0338-.6479-.0791-.9725-.1209-1.22-.1537-2.456-.353-3.7125-.6161a43.6323,43.6323,0,0,0,6.0088.8489c-.0579-.0052-.1157-.01-.1732-.0146C223.7837,229.5565,223.7466,229.5556,223.7086,229.5527Z"/>
        <path class="cls-15" d="M215.8358,228.2276c-.15-.0382-.3047-.0946-.4553-.1344-.7273-.1953-1.462-.4169-2.2-.6493-.38-.12-.7566-.225-1.1393-.3557q-1.693-.5733-3.42-1.28l-.002-.0137c-.4883-.1941-.9791-.41-1.4695-.6211-.2907-.1269-.579-.2432-.871-.3757-.3685-.1661-.7386-.3464-1.1084-.5217-.2335-.111-.4691-.23-.7034-.3447-.1213-.0594-.2424-.1182-.364-.1785-.2055-.1018-.41-.1972-.6158-.3018-.3556-.18-.7111-.3612-1.0678-.5494-.113-.06-.2275-.1265-.3408-.187q-1.1409-.6059-2.297-1.26c-1.1877-.6764-2.3644-1.4179-3.5386-2.1735-.1236-.08-.2459-.1651-.3694-.2457-.316-.2052-.6265-.4163-.9411-.626-.1559-.1043-.3126-.2058-.4683-.3115q-1.0383-.706-2.0694-1.4506c-.0612-.0439-.1222-.0883-.1833-.1325-.3023-.2177-.6157-.416-.9155-.6376-2.47-1.8325-4.86-3.7847-7.2108-5.8562-.4874-.43-.9525-.8984-1.434-1.339-.03-.0273-.06-.0537-.09-.0812-.3708-.34-.7384-.6861-1.1056-1.0324-.0255-.0242-.0506-.0494-.076-.0735-2.0977-1.9805-4.1584-4.0227-6.1388-6.1985q-1.6282-1.7762-3.2167-3.6412a109.6393,109.6393,0,0,0,25.8732,22.72l3.7273,2.1516a61.2553,61.2553,0,0,0,15.7592,6.0685c-.212-.05-.427-.11-.6392-.16C216.4408,228.3649,216.1416,228.304,215.8358,228.2276Z"/>
        <path class="cls-15" d="M228.6055,229.6263c.2085-.0108.421-.01.628-.0246-.1662.0121-.34.0048-.5074.0146C228.6854,229.6186,228.6461,229.6241,228.6055,229.6263Z"/>
        <path class="cls-15" d="M224.56,229.6216c.1953.0119.3865.01.58.0163-.38-.0148-.762-.0379-1.1456-.064C224.184,229.5911,224.3739,229.611,224.56,229.6216Z"/>
        <path class="cls-15" d="M230.9917,229.421c.1561-.0191.3158-.03.4709-.0508-.1549.0216-.3145.0318-.4705.0508Z"/>
        <path class="cls-15" d="M229.5951,229.5715c.37-.03.7331-.0772,1.0986-.1184h0C230.3278,229.4937,229.965,229.5407,229.5951,229.5715Z"/>
        <polygon class="cls-16" points="200.256 124.127 200.259 124.13 211.493 123.18 211.493 123.177 200.256 124.127"/>
        <path class="cls-16" d="M192.63,114.7405l7.5488,9.3894.0375-.0031-11.2719-14.02,7.45-.6375v.0034h0l.039-13.3154a.77.77,0,0,1-.0391-.1533v-.04a.3119.3119,0,0,1,.1835-.2207c.1756-.1347.55-.1.9718.1411a2.0917,2.0917,0,0,1,1.0358,1.2348v.04l0,.1208,0-.0011-.0394,11.9514,1.7524-.1594L202.41,111.7l.0393-15.8215a.7666.7666,0,0,1-.0393-.1536v-.04c.06-.27.3227-.3362.6863-.2173a1.7615,1.7615,0,0,1,.4293.1775,2.5273,2.5273,0,0,1,.8489.8066c.0284.0429.0633.0851.0854.1275a.8936.8936,0,0,1,.1014.301v.08l-.04,17.4491,7.0513,8.7642v7.37c-.04-.03-.0792-.05-.1189-.0793l-.0005.0793a6.1362,6.1362,0,0,1,.9867.9714,6.6126,6.6126,0,0,1,1.5629,3.8091v.15c.05.0326.0974.0762.1463.1144a2.5917,2.5917,0,0,1,.9945,1.4468,1.41,1.41,0,0,1,1.13.2005c.04,0,.04.04.08.04a3.1317,3.1317,0,0,1,.5113.3833,4.2121,4.2121,0,0,1,1.162,1.6484,2.4032,2.4032,0,0,1,0,2.2307,1.1926,1.1926,0,0,1-1.6335.12c-.04,0-.04-.04-.08-.04l-4.7808-2.7659-.0385,10.5753,8.4447,10.5162v.04h0l-.08,26.2137v.0987l.04.0493v-.148l3.0578,3.7542,3.9539-19.69.04-16.8118,1.4342-.12.0354.0434.0443-.0036,1.4834,1.8259,2.7394-13.4986,1.4342-.1193.0321.04.0077-.0006,1.3944,1.7526,3.5456,22.19.1916,1.2256.0077.0093.4382.55,1.3943,1.72-.0023.0269.0421.0527-.518,6.1353,7.2442,45.7335.008.0093-.0016-.0084.2022.2358c7.3684-7.2109,11.7494-18.8424,11.7892-34.1382.07-16.607-5.0135-34.8146-13.5255-51.6456C236.6338,116.22,222.4227,98.7812,206.3073,87.59q-3.0211-2.0979-6.1264-3.8945l-.0035-.0021c-9.31-5.3772-18.1346-8.0291-26.0124-8.2173-19.9035-.4719-33.7382,14.8125-34.1193,41.6066l-.0047,1.77c.0073.834.0167,1.6687.0493,2.51.0115.3013.0335.6051.0482.9072.042.8518.091,1.7054.158,2.5635.0269.3445.061.6907.0918,1.036.0746.833.1576,1.6677.2551,2.5058.0392.3376.0815.6759.1243,1.0142q.1665,1.3106.3691,2.6274c.0452.2939.0894.5879.1372.8823q.2418,1.4827.5286,2.972c.0342.1781.0651.3559.1.5341a119.574,119.574,0,0,0,3.9534,14.8028l.0209.0618a138.7576,138.7576,0,0,0,7.4924,17.9277l.1592-52.2781,11.354-14.1028.02.0249.02-.0249,1.3943-.12.0025.0032.0374-.0032,1.3942,1.753,11.2343,27.17-.1194,39.3569,8.605-.7536,1.3148-15.0986.1194-45.0173.04.0494v-.01Zm-8.97,5.4434a1.1355,1.1355,0,0,1-.4923-.1174l-2.59-1.5139c-.08-.04-.1993-.08-.2789-.12-.08-.08-.1992-.1194-.279-.1992l-3.1472-1.8325a2.8449,2.8449,0,0,1-1.1552-2.1113c0-.5756.3011-.8932.7425-.8744a1.1383,1.1383,0,0,1,.4925.1175c.07.0348.1394.0969.2091.1393a.4287.4287,0,0,1,.4284-.3783c.0069,0,.014.0067.021.007s.0111-.007.0188-.007a.6426.6426,0,0,1,.3585.1194c.0229.0229.0633.0565.092.0806a1.9988,1.9988,0,0,1,.2266.1982,1.1419,1.1419,0,0,1,.8408-.6769,1.7874,1.7874,0,0,1,1.2308.2787,1.21,1.21,0,0,1,.2791.199,4.97,4.97,0,0,1,1.9121,3.3066l.6772.3985a2.7239,2.7239,0,0,1,1.1554,2.1113C184.4034,119.8852,184.1021,120.2027,183.6608,120.1839Z"/>
        <polygon class="cls-16" points="211.458 159.369 211.454 160.655 211.454 160.655 211.458 159.369"/>
        <path class="cls-17" d="M222.6711,229.462c.0507.0052.1023.014.1529.019.2961.0286.59.0493.8846.0717.038.0029.0751.0038.1131.0066.217.0161.4314.025.6471.0374l-7.5176-9.3767,6.0554-30.1179.0143-.0714-.0639-.0784-3.0578-3.7542v3.7446l-6.8122.5976,2.7474,37.6668c.304.0786.6077.1562.91.2285.2122.0507.4272.11.6392.16.0286.0067.0575.0153.086.0216.06.0137.1214.03.1819.0435.1126.0246.2224.04.3347.0639,1.2565.2631,2.4922.4624,3.7125.6161C222.0232,229.3829,222.35,229.4282,222.6711,229.462Z"/>
        <polygon class="cls-17" points="184.128 210.018 184.117 210.009 184.128 210.019 184.128 210.018"/>
        <path class="cls-17" d="M182.5609,208.6011c.03.0275.06.0539.09.0812q.7134.657,1.4341,1.2976l3.4227-39.7169-8.6416.7566-.0795,29.9983-3.4441.313q2.9394,3.2148,6.0371,6.1643c.0254.0241.05.0493.076.0735C181.8225,207.915,182.19,208.2607,182.5609,208.6011Z"/>
        <path class="cls-17" d="M247.9072,221.0251l.0763.4193v0c.0527-.0506.101-.1073.1532-.1583h0l-.0289-.0337-.2022-.2358Z"/>
        <polygon class="cls-18" points="193.088 154.765 193.087 154.805 193.088 154.805 193.088 154.765"/>
        <path class="cls-18" d="M193.088,153.9374c-.0117-.0951-.0356-.1963-.04-.2872v-.1594c.04-2.59,3.187-2.8684,7.0912-.5977.0137.008.0262.018.04.0259l0-.0654,0,0,.0795-28.6043-.0795-.0993-7.5488-9.4092-3.6856-4.594v.01l-.1192,44.9679,4.2624-.3587Z"/>
        <path class="cls-19" d="M207.2306,161.6177v1.2351l4.223,5.2586.0292.3984.3645,3.9716a5.2009,5.2009,0,0,1,.8413.3707c.1592.08.2788.1992.4382.2788a8.9789,8.9789,0,0,1,3.4659,5.9361l.04.04v-.04c.04,0,.04.04.08.04a4.679,4.679,0,0,1,1.9121,2.39,4.05,4.05,0,0,1,.2875,1.5755,2.3389,2.3389,0,0,1-.0282.2383,2.4815,2.4815,0,0,1-.0409.3115,1.52,1.52,0,0,1-.2182.5034l0,0h0c-.0163.0239-.022.0574-.04.08-.3983.5576-1.1154.5977-1.9121.1592-.04,0-.04-.04-.08-.04l-3.4659-1.9917a2.06,2.06,0,0,1-.5179-.239l-.1532-.0767.6282,8.5191,6.7755-.5945v-3.7446l.08-26.2137h0v-.04l-8.4856.7569v-.04h0v-.0067l.0048-1.2854.035-9.9422.0011.0013.0385-10.5753-.04-.023-3.3065-1.9121a.039.039,0,0,0-.04-.04,3.9738,3.9738,0,0,1-1.8723-3.187,1.1976,1.1976,0,0,1,.7229-1.3132,1.29,1.29,0,0,1,1.1064.1047,4.5048,4.5048,0,0,1-.0367-.6242,2.531,2.531,0,0,1,.2843-1.169c.4569-.95,1.5077-1.1879,2.7434-.4643a2.6528,2.6528,0,0,1,.3591.2395c.04.0291.0793.0495.1189.0793v-7.37l-.08.0068-11.2344.95,0,.1191-.0795,28.6043,0,0C204.0836,155.1242,207.2306,159.0285,207.2306,161.6177Z"/>
        <path class="cls-20" d="M200.2565,124.1268l11.2369-.95.04-.0035-7.0116-8.7149V116.8l-.012-.0069c-.0322.36-.4871.394-1.0636.0868a1.9384,1.9384,0,0,1-1.0755-1.315l.7939.4412-.7541-.4412v-.0165l-.04-.0233V111.78l-2.0717-2.6291-1.7527.1592v.04l-.04,7.7288-.012-.007c-.0325.36-.4873.3938-1.0636.0866a1.9379,1.9379,0,0,1-1.0755-1.3147l.7939.4411-.7541-.4411v-6.3743l-7.45.6375,11.2719,14.02.0025.0031Z"/>
        <polygon class="cls-20" points="211.458 159.369 211.454 160.655 211.454 160.661 211.454 160.701 219.939 159.945 211.495 149.428 211.493 149.427 211.458 159.369"/>
        <polygon class="cls-20" points="234.161 143.491 235.556 143.372 234.161 141.619 234.154 141.62 232.727 141.738 234.161 143.491"/>
        <polygon class="cls-20" points="229.948 155.197 228.465 153.371 228.42 153.375 227.03 153.491 229.7 156.797 230.018 155.284 229.948 155.197"/>
        <path class="cls-19" d="M247.9775,221.451v0l-.0718-.3942-.0064-.0407-7.2442-45.7335.518-6.1353-1.4342.12-2.9081,33.9821.08-37.4878L234.0818,166l-.1592,62.9082c.9882-.216,1.9476-.4921,2.8923-.7975l.1315-.0427c.4052-.1331.8091-.2684,1.2059-.4178.04-.0151.079-.0326.1192-.0478.4255-.1625.85-.3268,1.2656-.5081.12-.0521.2373-.1079.3561-.1617q.8654-.3914,1.7014-.8357c.0663-.0354.1295-.0761.1954-.112.2944-.16.584-.3286.8725-.4992.1013-.06.2059-.1143.3066-.1756.5134-.3122,1.0149-.6445,1.5087-.99.1748-.122.35-.2424.5227-.3686.162-.1187.3177-.2474.4774-.37.1818-.139.3641-.2768.543-.4205.35-.2812.6914-.5751,1.03-.8739.2833-.25.5719-.4922.847-.7548C247.9252,221.507,247.95,221.4772,247.9775,221.451Z"/>
        <polygon class="cls-19" points="239.293 166.787 239.101 165.562 238.344 165.641 239.293 166.787"/>
        <polygon class="cls-20" points="239.739 167.347 239.301 166.797 239.293 166.787 238.344 165.641 236.91 165.761 239.739 169.267 241.173 169.147 241.131 169.094 239.739 167.347"/>
        <polygon class="cls-18" points="236.831 203.249 239.739 169.267 236.91 165.761 236.831 203.249"/>
        <path class="cls-18" d="M233.8828,228.9178l.1591-62.8779-4.8205-6.0953-.1193-.1594.5975-2.9878-2.6692-3.3066-.04,16.772-3.97,19.7679-.0143.0714L216.9512,220.22l7.5176,9.3767c.2474.0143.4965.0336.7421.0431.3433.0133.6856.0247,1.0253.0287.3618.0055.7179-.0057,1.0758-.0117.2372-.0039.4771,0,.713-.0078.1938-.0072.388-.0125.5805-.0227.0406-.0022.08-.0077.1206-.01.6629-.0374,1.32-.0893,1.9673-.1632h0c.099-.0114.1994-.02.298-.0321h0C231.9766,229.3,232.9364,229.1232,233.8828,228.9178Z"/>
        <polygon class="cls-21" points="239.101 165.562 235.556 143.372 234.161 143.491 234.082 166 236.91 165.761 238.344 165.641 239.101 165.562"/>
        <polygon class="cls-22" points="232.727 141.738 230.018 155.284 229.7 156.797 229.102 159.785 229.221 159.945 234.082 166 234.161 143.491 232.727 141.738"/>
        <path class="cls-20" d="M200.0935,169.14l.0061.0075,11.3142-.9558-4.223-5.2588v1.2747a2.4185,2.4185,0,0,1-.1445.8607c-.6628,1.7506-3.5255,1.694-6.9069-.223-.4958-.2885-.9786-.604-1.4452-.9391-3.2268-2.285-5.646-5.5952-5.646-7.8654l.0386-1.2349.0012-.04-4.2624.3587h0L200.1,169.1072Z"/>
        <path class="cls-19" d="M200.1,169.147l-8.8,46.7083c.3025.224.6074.44.9113.66.0611.0442.1221.0886.1833.1325q1.0313.7438,2.0694,1.4506c.1557.1057.3124.2072.4683.3115.3146.21.6251.4208.9411.626.1235.0806.2458.166.3694.2457,1.1742.7556,2.3509,1.4971,3.5386,2.1735q1.1563.6543,2.297,1.26c.1133.06.2278.1273.3408.187.3567.1882.7122.3689,1.0678.5494.2061.1046.41.2.6158.3018.1216.06.2427.1191.364.1785.2343.1145.47.2337.7034.3447.37.1753.74.3556,1.1084.5217.292.1325.58.2488.871.3757.49.2116.9812.427,1.4695.6211l-1.1037-7.3729Z"/>
        <path class="cls-23" d="M213.087,190.58l-.0031-.0429-.6282-8.5191-.0858-.0429c-.08-.08-.1992-.12-.2788-.1993l-6.8124-3.9441a4.897,4.897,0,0,1-2.1115-2.9877c-.2788-1.2349.04-2.1912.8366-2.39h.0085c.0268-.0088.0431-.033.0711-.04a1.853,1.853,0,0,1,1.3148.2788,4.4912,4.4912,0,0,1,1.2761,1.185.9483.9483,0,0,1,.54-.9689.8667.8667,0,0,1,.3353-.0965,1.6149,1.6149,0,0,1,.6773.1992,2.9453,2.9453,0,0,1,.8038.7213A2.0414,2.0414,0,0,1,210.136,172.6a2.4742,2.4742,0,0,1,1.7161-.066l-.0048-.0521-.3645-3.9716-.0292-.3186-11.3142.9558,7.3756,49.2748,1.1037,7.3729.002.0137q1.7264.7036,3.42,1.28c.3827.1307.76.236,1.1393.3557.7381.2324,1.4728.454,2.2.6493.1512.0407.3.0741.4509.1132Z"/>
        <path class="cls-18" d="M184.1173,210.01l.0108.009c2.3366,2.058,4.7124,4.0375,7.1673,5.8192l8.7981-46.6982.0061-.0323-11.2742-13.9831-1.3145,15.0986-.0035.04L184.0847,209.98Z"/>
        <path class="cls-22" d="M206.0754,163.57c-1.2747.5579-3.466.1595-5.936-1.2746a18.2282,18.2282,0,0,1-3.4741-2.5947,14.9614,14.9614,0,0,1-2.4807-2.9936l-1.0966-.6266c0,2.2608,2.3993,5.5225,5.6062,7.8256.4666.3351.9494.6506,1.4452.9391,3.3814,1.917,6.2441,1.9736,6.9069.223a2.4185,2.4185,0,0,0,.1445-.8607v-2.35A1.8765,1.8765,0,0,1,206.0754,163.57Z"/>
        <path class="cls-22" d="M193.088,156.04l1.0568.6039a6.9117,6.9117,0,0,1-1.0568-2.7068V156.04Z"/>
        <path class="cls-21" d="M194.1638,156.6778c.0059.01.0149.0193.0208.0289a14.9614,14.9614,0,0,0,2.4807,2.9936,18.2381,18.2381,0,0,0,3.4343,2.5549c2.51,1.4341,4.7011,1.8325,5.936,1.2746a1.8565,1.8565,0,0,0,1.1154-1.7128v-.16c.0793-2.58-3.0863-6.4642-6.9717-8.7385-.0137-.0079-.0262-.0179-.04-.0259-3.9042-2.2707-7.0514-1.9919-7.0912.5977v.1594c.0042.0909.0281.1921.04.2872a6.9117,6.9117,0,0,0,1.0568,2.7068C194.1517,156.6555,194.1567,156.6666,194.1638,156.6778Z"/>
        <path class="cls-22" d="M196.3947,115.8038v.04l.7541.4411-.7939-.4411a1.9379,1.9379,0,0,0,1.0755,1.3147c.5763.3072,1.0311.273,1.0636-.0866l.012.007.04-7.7288v-.04l0-.08.0394-11.9514,0,.0011c-.0012.3967-.4785.4367-1.0751.0785a3.19,3.19,0,0,1-.3234-.2312,1.9227,1.9227,0,0,1-.7531-.97l-.039,13.3154v6.3311Z"/>
        <path class="cls-21" d="M197.1869,97.1273a2.4553,2.4553,0,0,0,.2833.1914c.5977.3186,1.0758.2788,1.0758-.08v-.08a2.1838,2.1838,0,0,0-1.0758-1.2348,1.0383,1.0383,0,0,0-.892-.1809.3119.3119,0,0,0-.1835.2207v.04a.77.77,0,0,0,.0391.1533A1.9227,1.9227,0,0,0,197.1869,97.1273Z"/>
        <path class="cls-22" d="M202.41,115.548v.0165l.7541.4412-.7939-.4412a1.9384,1.9384,0,0,0,1.0755,1.315c.5765.3072,1.0314.273,1.0636-.0868l.012.0069v-2.39l.04-17.4491v0c0,.3978-.4782.4376-1.0757.0794a2.1048,2.1048,0,0,1-1.0362-1.1611L202.41,111.82Z"/>
        <path class="cls-21" d="M203.4858,97.04c.5975.3184,1.0755.2786,1.0757-.0794v-.08a.8936.8936,0,0,0-.1014-.301c-.0221-.0424-.057-.0846-.0854-.1275a2.7037,2.7037,0,0,0-.889-.8066,2.1258,2.1258,0,0,0-.3892-.1775c-.3636-.1189-.6264-.0524-.6863.2173v.04a.7666.7666,0,0,0,.0393.1536A2.1048,2.1048,0,0,0,203.4858,97.04Z"/>
        <path class="cls-19" d="M166.2769,128.95l-2.8284.239-.1594,56.8493c.9033,1.3355,1.846,2.6317,2.7889,3.928l.1989-55.3992Z"/>
        <path class="cls-18" d="M166.2769,128.95v5.6171l-.1989,55.3992,0,.0524q1.3872,1.8931,2.8285,3.73l.1594-61.2932Z"/>
        <polygon class="cls-21" points="169.066 132.456 178.985 131.619 167.751 104.45 166.317 104.569 169.066 132.456"/>
        <polygon class="cls-22" points="166.317 104.569 164.922 102.816 164.902 102.841 153.568 116.919 163.414 129.146 166.317 104.569"/>
        <path class="cls-19" d="M169.0657,132.4561l-.1594,61.2932c.3326.4236.6746.8363,1.0114,1.2549.5785.7171,1.1559,1.4346,1.7492,2.139.3652.4354.7363.8628,1.106,1.2923q.849.9848,1.7107,1.952c.2732.3049.55.605.8251.9066l3.4776-.3163.0795-29.998v-.0035l.1194-39.3569Z"/>
        <path class="cls-18" d="M163.446,129.1862l-.0373.0031.0051-.0431-9.8453-12.2269-.1594,52.3474a144.5452,144.5452,0,0,0,9.88,16.7719l.1594-56.8493Z"/>
        <polygon class="cls-20" points="163.414 129.146 163.409 129.189 163.446 129.186 166.277 128.95 169.066 132.456 166.317 104.569 163.414 129.146"/>
        <polygon class="cls-20" points="167.751 104.45 166.319 102.7 166.317 102.697 164.922 102.816 166.317 104.569 167.751 104.45"/>
        <path class="cls-24" d="M213.1268,182.3338l3.4659,1.9917c.04,0,.04.04.08.04.7967.4385,1.5138.3984,1.9121-.1592.0177-.0224.0234-.0559.04-.08l0,0a1.52,1.52,0,0,0,.2182-.5034,2.4815,2.4815,0,0,0,.0409-.3115,2.3389,2.3389,0,0,0,.0282-.2383,4.08,4.08,0,0,0-.3273-1.4959,4.8487,4.8487,0,0,0-1.9121-2.39c-.04,0-.04-.04-.08-.04v.04l-.04-.04a9.0706,9.0706,0,0,0-3.4659-5.9357,1.7371,1.7371,0,0,0-.3984-.2391,3.5484,3.5484,0,0,0-.9164-.3984,2.5052,2.5052,0,0,0-1.6362.0262,2.0414,2.0414,0,0,0-1.1055,1.1333c-.0128.0292-.0348.0455-.0469.0756a2.1436,2.1436,0,0,0-.8366-.7571,1.4666,1.4666,0,0,0-.6772-.1992.7265.7265,0,0,0-.2557.0567.9483.9483,0,0,0-.54.9689l-.0013.01v.12a4.06,4.06,0,0,0-1.3545-1.2749,1.8135,1.8135,0,0,0-1.3062-.2789h-.0085c-.7968.1992-1.1154,1.1555-.8366,2.39a4.897,4.897,0,0,0,2.1115,2.9877l6.8124,3.9441c.08.08.1992.12.2788.1993l.0858.0429.1532.0767A2.06,2.06,0,0,0,213.1268,182.3338Z"/>
        <path class="cls-24" d="M211.0552,130.265c-1.1778-.6773-2.2212-.4576-2.7036.4245a2.531,2.531,0,0,0-.2843,1.169,4.5048,4.5048,0,0,0,.0367.6242c.0027.0187,0,.0343.0032.053a1.3174,1.3174,0,0,0-1.11-.1577,1.1976,1.1976,0,0,0-.7229,1.3132,3.9738,3.9738,0,0,0,1.8723,3.187.039.039,0,0,1,.04.04l3.3065,1.9121.04.023,4.7808,2.7659c.04,0,.04.04.08.04a1.1926,1.1926,0,0,0,1.6335-.12,2.4032,2.4032,0,0,0,0-2.2307,4.2121,4.2121,0,0,0-1.162-1.6484,3.2808,3.2808,0,0,0-.4715-.3435c-.04,0-.04-.04-.08-.04a1.4208,1.4208,0,0,0-1.1551-.1992c-.0033-.0142-.011-.0273-.0147-.0414a2.5917,2.5917,0,0,0-.9945-1.4468c-.0493-.0336-.096-.0785-.1463-.1056v-.1592a6.6126,6.6126,0,0,0-1.5629-3.8091,6.0206,6.0206,0,0,0-.9469-.9316A1.7707,1.7707,0,0,0,211.0552,130.265Z"/>
        <path class="cls-24" d="M184.3634,119.3094a2.8443,2.8443,0,0,0-1.1551-2.1113l-.6773-.3985a4.9692,4.9692,0,0,0-1.9123-3.3066c-.08-.08-.1592-.1194-.2391-.199a1.7874,1.7874,0,0,0-1.2308-.2787,1.1587,1.1587,0,0,0-.8408.6769,1.9988,1.9988,0,0,0-.2266-.1982.5287.5287,0,0,0-.1318-.0806.6415.6415,0,0,0-.3375-.1124c-.007,0-.0141-.007-.021-.007a.4287.4287,0,0,0-.4284.3783c-.0017.0081-.0085.0117-.01.02a.8361.8361,0,0,0-.239-.1592,1.1753,1.1753,0,0,0-.4527-.1175c-.4414-.0188-.7425.2988-.7425.8744a2.8449,2.8449,0,0,0,1.1552,2.1113l3.1472,1.8325c.08.08.1992.12.279.1992.08.04.1993.08.2789.12l2.59,1.5139a1.1355,1.1355,0,0,0,.4923.1174C184.08,120.1817,184.3634,119.8672,184.3634,119.3094Z"/>
      </g>
      <g class="cls-25">
        <path id="Path-64" data-name="Path" class="cls-26" d="M115,23.0938v161.658l170,98.15V121.2432Z"/>
      </g>
    </g>
  </g>
</svg>
