<svg id="Layer_1" data-name="Layer 1" xmlns="http://www.w3.org/2000/svg" viewBox="0 0 270 277.13">
  <defs>
    <style>
      .top-light {
        fill: #f9c7c6;
      }

      .top-prim {
        fill: #dd8986;
      }

      .exterior-R-prim {
        fill: #d15752;
      }

      .cls-1 {
        fill: #a1a0a0;
      }

      .top-dark {
        fill: #c67471;
      }

      .exterior-L-prim {
        fill: #74302f;
      }

      .cls-2 {
        fill: #464646;
      }

      .cls-3 {
        fill: #737374;
      }

      .cls-4 {
        fill: #d1d1d1;
      }

      .cls-5 {
        fill: #2e2e2e;
      }

      .exterior-R-dark {
        fill: #a64c49;
      }

      .exterior-L-dark {
        fill: #512220;
      }

      .cls-6 {
        fill: #cbc9c9;
      }

      .cls-7 {
        fill: #8a8a8a;
      }

      .cls-8 {
        fill: #b9b8b9;
      }

      .cls-9 {
        fill: #fff3a9;
      }

      .cls-10 {
        fill: #dcd395;
      }

      .cls-11 {
        fill: #fdfae9;
      }
    </style>
  </defs>
  <title>Artboard 21</title>
  <g id="root">
    <path id="Path" class="top-light" d="M0,196.3l160-92.38,110,63.51L110,259.81Z"/>
    <path id="Path-2" data-name="Path" class="top-prim" d="M10,196.3l100,57.73,150-86.6L160,109.7Z"/>
    <path id="Path-3" data-name="Path" class="exterior-R-prim" d="M10,196.3l150-86.6v11.54L20,202.07Z"/>
    <path id="Path-4" data-name="Path" class="cls-1" d="M265,170.32l-5-2.89V155.88l5-2.88Z"/>
    <path id="Path-5" data-name="Path" class="top-light" d="M0,161.66,160,69.28l110,63.51L110,225.17Z"/>
    <path id="Path-6" data-name="Path" class="top-prim" d="M10,161.66l100,57.73,150-86.6L160,75.06Z"/>
    <path id="Path-7" data-name="Path" class="cls-1" d="M260,132.79l-10,5.77L160,86.6V75.06Z"/>
    <path id="Path-8" data-name="Path" class="exterior-R-prim" d="M10,161.66l150-86.6V86.6L20,167.43Z"/>
    <path id="Path-9" data-name="Path" class="top-light" d="M0,127.02,160,34.64,270,98.15,110,190.53Z"/>
    <path id="Path-10" data-name="Path" class="top-prim" d="M115,274.24l120-69.28L202.5,186.2,115,236.71Z"/>
    <path id="Path-11" data-name="Path" class="top-dark" d="M115,256.92v11.55l5,2.88,47.5-27.42-30-17.32L110,242.49l-75-43.3-10,5.77Z"/>
    <path id="Path-12" data-name="Path" class="exterior-R-prim" d="M110,207.85l160-92.38V98.15L110,190.53Z"/>
    <path id="Path-13" data-name="Path" class="exterior-L-prim" d="M0,127.02l110,63.51v17.32L0,144.34Z"/>
    <path id="Path-14" data-name="Path" class="exterior-L-prim" d="M0,161.66l110,63.51v17.32L0,178.98Z"/>
    <path id="Path-15" data-name="Path" class="exterior-L-prim" d="M0,196.3l110,63.51v17.32L0,213.62Z"/>
    <path id="Path-16" data-name="Path" class="exterior-L-prim" d="M5,216.51V95.26L0,92.38V213.62Z"/>
    <path id="Path-17" data-name="Path" class="exterior-R-prim" d="M10,127.02V115.47l-5-2.89V129.9Z"/>
    <path id="Path-18" data-name="Path" class="cls-1" d="M260,98.15V86.6l5-2.88v17.32Z"/>
    <path id="Path-19" data-name="Path" class="exterior-R-prim" d="M5,164.54l5-2.88V150.11l-5-2.89Z"/>
    <path id="Path-20" data-name="Path" class="exterior-R-prim" d="M5,199.19l5-2.89V184.75l-5-2.88Z"/>
    <path id="Path-21" data-name="Path" class="cls-1" d="M265,135.68l-5-2.89V121.24l5-2.88Z"/>
    <path id="Path-22" data-name="Path" class="top-prim" d="M10,127.02l100,57.73,150-86.6L160,40.41Z"/>
    <path id="Path-23" data-name="Path" class="cls-1" d="M260,98.15l-10,5.77L160,51.96V40.41Z"/>
    <path id="Path-24" data-name="Path" class="exterior-R-prim" d="M10,127.02,160,40.41V51.96L20,132.79Z"/>
    <path id="Path-25" data-name="Path" class="top-light" d="M0,92.38,160,0,270,63.51,110,155.88Z"/>
    <path id="Path-26" data-name="Path" class="exterior-R-prim" d="M110,173.21,270,80.83V63.51L110,155.88Z"/>
    <path id="Path-27" data-name="Path" class="exterior-L-prim" d="M0,92.38l110,63.5v17.33L0,109.7Z"/>
    <path id="Path-28" data-name="Path" class="exterior-L-prim" d="M235,118.36l-5-2.89-15,8.66-10-5.77,30-17.32Z"/>
    <path id="Path-29" data-name="Path" class="exterior-L-prim" d="M235,153l-5-2.89-15,8.66L205,153l30-17.32Z"/>
    <path id="Path-30" data-name="Path" class="exterior-L-prim" d="M235,204.96l-30-17.32,30-17.32Z"/>
    <path id="Path-31" data-name="Path" class="exterior-L-prim" d="M110,277.13V155.88L105,153V274.24Z"/>
    <path id="Path-32" data-name="Path" class="exterior-L-prim" d="M57.5,246.82V125.57l-5-2.88V243.93Z"/>
    <path id="Path-33" data-name="Path" class="exterior-L-prim" d="M172.5,154.44l-5-2.89V140.01l5-2.89Z"/>
    <path id="Path-34" data-name="Path" class="exterior-L-prim" d="M172.5,171.76l-5,2.89V186.2l5,2.88Z"/>
    <path id="Path-35" data-name="Path" class="exterior-R-prim" d="M110,277.13V155.88l5-2.88V274.24Z"/>
    <path id="Path-36" data-name="Path" class="exterior-R-prim" d="M270,63.51,235,83.72V204.96l35-20.21Z"/>
    <path id="Path-37" data-name="Path" class="cls-2" d="M247.5,165.99l10-5.78v11.55l-10,5.78Z"/>
    <path id="Path-38" data-name="Path" class="cls-2" d="M247.5,131.35l10-5.78v11.55l-10,5.77Z"/>
    <path id="Path-39" data-name="Path" class="cls-2" d="M247.5,96.71l10-5.78v11.55l-10,5.77Z"/>
    <path id="Path-40" data-name="Path" class="exterior-L-prim" d="M257.5,171.76l-2.5-1.44v-8.66l2.5-1.45Z"/>
    <path id="Path-41" data-name="Path" class="exterior-L-prim" d="M257.5,137.12l-2.5-1.44v-8.66l2.5-1.45Z"/>
    <path id="Path-42" data-name="Path" class="exterior-L-prim" d="M257.5,102.48l-2.5-1.44V92.38l2.5-1.45Z"/>
    <path id="Path-43" data-name="Path" class="top-light" d="M246.25,108.98l1.25-.73v-2.88l7.5-4.33,2.5,1.44,1.25-.72,1.25.72-12.5,7.22Z"/>
    <path id="Path-44" data-name="Path" class="top-light" d="M246.25,143.62l1.25-.73v-2.88l7.5-4.33,2.5,1.44,1.25-.72,1.25.72-12.5,7.22Z"/>
    <path id="Path-45" data-name="Path" class="top-light" d="M246.25,178.26l1.25-.72v-2.89l7.5-4.33,2.5,1.44,1.25-.72,1.25.72-12.5,7.22Z"/>
    <path id="Path-46" data-name="Path" class="cls-3" d="M225,153l-10,5.77-2.5-1.44v-8.66l12.5-7.22Z"/>
    <path id="Path-47" data-name="Path" class="cls-3" d="M225,118.36l-10,5.77-2.5-1.44v-8.66l12.5-7.22Z"/>
    <path id="Path-48" data-name="Path" class="cls-3" d="M225,199.19l-12.5-7.22v-8.66l12.5-7.22Z"/>
    <path id="Path-49" data-name="Path" class="top-dark" d="M210,158.77l5-2.89,2.5,1.45-5,2.88Z"/>
    <path id="Path-50" data-name="Path" class="top-dark" d="M210,124.13l5-2.89,2.5,1.45-5,2.88Z"/>
    <path id="Path-51" data-name="Path" class="top-dark" d="M205,196.3l10-5.77,10,5.77v2.89l-7.5,4.33Z"/>
    <path id="Path-52" data-name="Path" class="exterior-R-prim" d="M212.5,148.67l2.5-1.45v8.66l-2.5,1.45Z"/>
    <path id="Path-53" data-name="Path" class="exterior-R-prim" d="M212.5,114.03l2.5-1.45v8.66l-2.5,1.45Z"/>
    <path id="Path-54" data-name="Path" class="exterior-R-prim" d="M212.5,183.31l2.5-1.44v8.66l-2.5,1.44Z"/>
    <path id="Path-55" data-name="Path" class="exterior-R-prim" d="M62.5,157.33V145.78l-5-2.89v17.32Z"/>
    <path id="Path-56" data-name="Path" class="exterior-R-prim" d="M57.5,194.86l5-2.89V180.42l-5-2.88Z"/>
    <path id="Path-57" data-name="Path" class="exterior-R-prim" d="M57.5,229.5l5-2.89V215.06l-5-2.88Z"/>
    <path id="Path-58" data-name="Path" class="cls-4" d="M218.75,192.69l2.5,1.44V178.26l-2.5,1.44Z"/>
    <path id="Path-59" data-name="Path" class="cls-5" d="M225,176.09l-3.75,2.17v15.87L225,196.3Z"/>
    <path id="Path-60" data-name="Path" class="cls-1" d="M218.75,192.69l2.5-1.44v-4.33l3.75-2.17V196.3Z"/>
    <path id="Path-61" data-name="Path" class="top-dark" d="M182.5,235.27,230,207.85l-30-17.32-22.5,12.99-25,14.43Z"/>
    <path id="Path-62" data-name="Path" class="exterior-R-dark" d="M115,158.77l5-2.89v5.78l-5,2.88Z"/>
    <path id="Path-63" data-name="Path" class="exterior-L-dark" d="M105,158.77l-5-2.89v5.78l5,2.88Z"/>
    <path id="Path-64" data-name="Path" class="exterior-L-prim" d="M246.25,108.98v2.88l1.25.72V109.7Z"/>
    <path id="Path-65" data-name="Path" class="exterior-L-prim" d="M246.25,178.26v2.88l1.25.73v-2.89Z"/>
    <path id="Path-66" data-name="Path" class="exterior-R-dark" d="M260,102.48v2.89l-12.5,7.21V109.7Z"/>
    <path id="Path-67" data-name="Path" class="exterior-R-dark" d="M260,171.76v2.89l-12.5,7.22v-2.89Z"/>
    <path id="Path-68" data-name="Path" class="top-light" d="M238.37,179.92l3.26-1.88c.48-.28.87-.06.87.5v6.66a1.9234,1.9234,0,0,1-.87,1.5l-3.26,1.88c-.48.28-.87.05-.87-.5v-6.66A1.9234,1.9234,0,0,1,238.37,179.92Z"/>
    <path id="Path-69" data-name="Path" class="cls-6" d="M231.63,179.92l-3.26-1.88c-.48-.28-.87-.06-.87.5v6.66a1.9234,1.9234,0,0,0,.87,1.5l3.26,1.88c.48.28.87.05.87-.5v-6.66A1.9234,1.9234,0,0,0,231.63,179.92Z"/>
    <path id="Path-70" data-name="Path" class="cls-7" d="M165,236.71l-5-2.88V219.39l5,2.89Z"/>
    <path id="Path-71" data-name="Path" class="cls-7" d="M156.25,231.66l-5-2.88V214.34l5,2.89Z"/>
    <path id="Path-72" data-name="Path" class="cls-8" d="M167.5,235.27V220.84l-2.5,1.44v14.43Z"/>
    <path id="Path-73" data-name="Path" class="cls-8" d="M158.75,230.22V215.78l-2.5,1.45v14.43Z"/>
    <path id="Path-74" data-name="Path" class="cls-4" d="M160,219.39l2.5-1.44,5,2.89-2.5,1.44Z"/>
    <path id="Path-75" data-name="Path" class="cls-4" d="M151.25,214.34l2.5-1.44,5,2.88-2.5,1.45Z"/>
    <path id="Path-76" data-name="Path" class="exterior-R-prim" d="M110,242.49l160-92.38V132.79L110,225.17Z"/>
    <path id="Path-77" data-name="Path" class="cls-9" d="M162.5,225.17,125,246.82v-1.45l37.5-21.65Z"/>
    <path id="Path-78" data-name="Path" class="cls-9" d="M195,199.19l-36.25,20.92v-1.44L195,197.74Z"/>
    <path id="Path-79" data-name="Path" class="cls-10" d="M123.75,244.65l1.25.72v1.45l-1.25-.72Z"/>
    <path id="Path-80" data-name="Path" class="cls-11" d="M161.25,223l1.25.72L125,245.37l-1.25-.72Z"/>
    <path id="Path-81" data-name="Path" class="cls-11" d="M193.75,197.02l1.25.72-36.25,20.93v-1.44Z"/>
    <path id="Path-82" data-name="Path" class="exterior-L-prim" d="M172.5,206.4l-5,2.89v28.87l5,2.88Z"/>
    <path id="Path-83" data-name="Path" class="exterior-R-prim" d="M172.5,241.04V119.8l5-2.89V238.16Z"/>
    <path id="Path-84" data-name="Path" class="top-light" d="M173.37,217.45l3.26-1.89c.48-.27.87-.05.87.5v6.66a1.8926,1.8926,0,0,1-.87,1.5l-3.26,1.89c-.48.28-.87.05-.87-.5v-6.66A1.9234,1.9234,0,0,1,173.37,217.45Z"/>
    <path id="anchor_9.93_155.82_260" class="top-prim" d="M9.93,97.87,170.12,5.84,270,63.79,109.8,155.82Z"/>
    <path id="Path-85" data-name="Path" class="exterior-L-prim" d="M246.25,143.62v2.88l1.25.72v-2.88Z"/>
    <path id="Path-86" data-name="Path" class="exterior-R-dark" d="M260,137.12v2.89l-12.5,7.21v-2.88Z"/>
  </g>
</svg>
