<svg id="Layer_1" data-name="Layer 1" xmlns="http://www.w3.org/2000/svg" viewBox="0 0 250 375.34">
  <defs>
    <style>
      .top-prim {
        fill: #dd8987;
      }

      .exterior-L-prim {
        fill: #73302f;
      }

      .exterior-R-prim {
        fill: #d15752;
      }

      .exterior-L-dark {
        fill: #512220;
      }

      .exterior-R-dark {
        fill: #a74d4a;
      }

      .window-L-prim {
        fill: #4d3b25;
      }

      .window-R-prim {
        fill: #bd9563;
      }
    </style>
  </defs>
  <title>Artboard 3</title>
  <g id="root">
    <g id="Group">
      <path id="Base_-_Top" data-name="Base - Top" class="top-prim" d="M90,374.64l-90-52,160-92.37,90,52Z"/>
      <path id="anchor_0_144.34_250" class="top-prim" d="M0,92.37,160,0l90,52L90,144.34Z"/>
      <path id="Path" class="exterior-L-prim" d="M90,144.34l-90-52v231l90,52Z"/>
      <path id="Path-2" class="exterior-R-prim" d="M250,52,90,144.34V375.28L250,282.9Z"/>
      <g id="Group-3">
        <path id="Path-6" class="top-prim" d="M83.75,211.3l-20-11.55L60,201.92l23.75,13.71Z"/>
        <path id="Path-7" class="top-prim" d="M56.25,195.42l-20-11.54L32.5,186l23.75,13.71Z"/>
        <path id="Path-8" class="top-prim" d="M28.75,179.54,8.75,168,5,170.16l23.75,13.72Z"/>
      </g>
      <g id="Group-5">
        <path id="Path-12" class="top-prim" d="M83.75,361.51,63.75,350,60,352.13l23.75,13.71Z"/>
        <path id="Path-13" class="top-prim" d="M56.25,345.63l-20-11.55-3.75,2.17L56.25,350Z"/>
        <path id="Path-14" class="top-prim" d="M28.75,329.75l-20-11.54L5,320.37l23.75,13.71Z"/>
      </g>
      <g id="Group-6">
        <path id="Path-15" class="exterior-L-dark" d="M83.75,277.72l-20-11.54v8.66l20,11.54Z"/>
        <path id="Path-16" class="exterior-L-dark" d="M56.25,261.85l-20-11.55V259l20,11.55Z"/>
        <path id="Path-17" class="exterior-L-dark" d="M28.75,246l-20-11.55v8.66l20,11.55Z"/>
      </g>
      <g id="Group-7">
        <path id="Path-18" class="top-prim" d="M83.75,286.38l-20-11.54L60,277l23.75,13.71Z"/>
        <path id="Path-19" class="top-prim" d="M56.25,270.51,36.25,259l-3.75,2.16,23.75,13.72Z"/>
        <path id="Path-20" class="top-prim" d="M28.75,254.63l-20-11.55L5,245.25,28.75,259Z"/>
      </g>
      <g id="Group-9">
        <path id="Path-24" class="top-prim" d="M83.75,248.8l-20-11.55L60,239.42l23.75,13.71Z"/>
        <path id="Path-25" class="top-prim" d="M56.25,232.92l-20-11.54-3.75,2.16,23.75,13.71Z"/>
        <path id="Path-26" class="top-prim" d="M28.75,217l-20-11.54L5,207.66l23.75,13.72Z"/>
      </g>
      <g id="Group-11">
        <path id="Path-30" class="top-prim" d="M83.75,173.88l-20-11.54L60,164.5l23.75,13.71Z"/>
        <path id="Path-31" class="top-prim" d="M56.25,158l-20-11.55-3.75,2.16,23.75,13.72Z"/>
        <path id="Path-32" class="top-prim" d="M28.75,142.13l-20-11.55L5,132.75l23.75,13.71Z"/>
      </g>
      <g id="Group-13">
        <path id="Path-36" class="top-prim" d="M83.75,323.88l-20-11.54L60,314.5l23.75,13.71Z"/>
        <path id="Path-37" class="top-prim" d="M56.25,308l-20-11.55-3.75,2.16,23.75,13.72Z"/>
        <path id="Path-38" class="top-prim" d="M28.75,292.13l-20-11.55L5,282.75l23.75,13.71Z"/>
      </g>
      <g id="Group-15">
        <path id="Path-42" class="top-prim" d="M83.75,192.58,63.75,181,60,183.2l23.75,13.71Z"/>
        <path id="Path-43" class="top-prim" d="M56.25,176.7l-20-11.55-3.75,2.17L56.25,181Z"/>
        <path id="Path-44" class="top-prim" d="M28.75,160.82l-20-11.54L5,151.44l23.75,13.71Z"/>
      </g>
      <g id="Group-17">
        <path id="Path-48" class="top-prim" d="M83.75,342.79l-20-11.55L60,333.4l23.75,13.72Z"/>
        <path id="Path-49" class="top-prim" d="M56.25,326.91l-20-11.55-3.75,2.17,23.75,13.71Z"/>
        <path id="Path-50" class="top-prim" d="M28.75,311l-20-11.54L5,301.65l23.75,13.71Z"/>
      </g>
      <g id="Group-18">
        <path id="Path-51" class="exterior-L-dark" d="M83.75,259l-20-11.55v8.66l20,11.55Z"/>
        <path id="Path-52" class="exterior-L-dark" d="M56.25,243.12l-20-11.54v8.66l20,11.54Z"/>
        <path id="Path-53" class="exterior-L-dark" d="M28.75,227.25l-20-11.55v8.66l20,11.55Z"/>
      </g>
      <g id="Group-19">
        <path id="Path-54" class="top-prim" d="M83.75,267.66l-20-11.55L60,258.28,83.75,272Z"/>
        <path id="Path-55" class="top-prim" d="M56.25,251.78l-20-11.54L32.5,242.4l23.75,13.71Z"/>
        <path id="Path-56" class="top-prim" d="M28.75,235.91l-20-11.55L5,226.53l23.75,13.71Z"/>
      </g>
      <g id="Group-21">
        <path id="Path-60" class="top-prim" d="M83.75,230.08l-20-11.55L60,220.7l23.75,13.71Z"/>
        <path id="Path-61" class="top-prim" d="M56.25,214.2l-20-11.55-3.75,2.17,23.75,13.71Z"/>
        <path id="Path-62" class="top-prim" d="M28.75,198.32l-20-11.54L5,188.94l23.75,13.71Z"/>
      </g>
      <g id="Group-23">
        <path id="Path-66" class="top-prim" d="M83.75,155.16l-20-11.55L60,145.78l23.75,13.71Z"/>
        <path id="Path-67" class="top-prim" d="M56.25,139.28l-20-11.54L32.5,129.9l23.75,13.71Z"/>
        <path id="Path-68" class="top-prim" d="M28.75,123.41l-20-11.55L5,114l23.75,13.71Z"/>
      </g>
      <g id="Group-24">
        <path id="Path-69" class="exterior-L-dark" d="M83.75,296.5l-20-11.5v8.66l20,11.55Z"/>
        <path id="Path-70" class="exterior-L-dark" d="M56.25,280.62l-20-11.54v8.66l20,11.54Z"/>
        <path id="Path-71" class="exterior-L-dark" d="M28.75,264.75l-20-11.55v8.66l20,11.55Z"/>
      </g>
      <g id="Group-25">
        <path id="Path-72" class="top-prim" d="M83.75,305.16l-20-11.55L60,295.78l23.75,13.71Z"/>
        <path id="Path-73" class="top-prim" d="M56.25,289.28l-20-11.54L32.5,279.9l23.75,13.71Z"/>
        <path id="Path-74" class="top-prim" d="M28.75,273.41l-20-11.55L5,264l23.75,13.71Z"/>
      </g>
      <g id="Group-26">
        <path id="Path-75" class="exterior-R-prim" d="M60,188.93v13l3.75-2.17V191.1Z"/>
        <path id="Path-76" class="exterior-R-prim" d="M32.5,173.05v13l3.75-2.16v-8.67Z"/>
        <path id="Path-77" class="exterior-R-prim" d="M5,157.17v13L8.75,168v-8.66Z"/>
        <path id="Path-78" class="exterior-R-prim" d="M60,339.14v13L63.75,350v-8.7Z"/>
        <path id="Path-79" class="exterior-R-prim" d="M32.5,323.26v13l3.75-2.17v-8.66Z"/>
        <path id="Path-80" class="exterior-R-prim" d="M5,307.38v13l3.75-2.16v-8.66Z"/>
        <path id="Path-81" class="exterior-R-prim" d="M60,264v13l3.75-2.16v-8.66Z"/>
        <path id="Path-82" class="exterior-R-prim" d="M32.5,248.13v13L36.25,259v-8.7Z"/>
        <path id="Path-83" class="exterior-R-prim" d="M5,232.26v13l3.75-2.17v-8.66Z"/>
        <path id="Path-84" class="exterior-R-prim" d="M60,226.43v13l3.75-2.17V228.6Z"/>
        <path id="Path-85" class="exterior-R-prim" d="M32.5,210.55v13l3.75-2.16v-8.67Z"/>
        <path id="Path-86" class="exterior-R-prim" d="M5,194.67v13l3.75-2.16v-8.66Z"/>
        <path id="Path-87" class="exterior-R-prim" d="M60,151.51v13l3.75-2.16v-8.66Z"/>
        <path id="Path-88" class="exterior-R-prim" d="M32.5,135.63v13l3.75-2.16V137.8Z"/>
        <path id="Path-89" class="exterior-R-prim" d="M5,119.76v13l3.75-2.17v-8.66Z"/>
        <path id="Path-90" class="exterior-R-prim" d="M60,301.51v13l3.75-2.16v-8.66Z"/>
        <path id="Path-91" class="exterior-R-prim" d="M32.5,285.63v13l3.75-2.16V287.8Z"/>
        <path id="Path-92" class="exterior-R-prim" d="M5,269.76v13l3.75-2.17v-8.66Z"/>
        <path id="Path-93" class="exterior-R-prim" d="M60,170.21v13L63.75,181v-8.66Z"/>
        <path id="Path-94" class="exterior-R-prim" d="M32.5,154.33v13l3.75-2.17V156.5Z"/>
        <path id="Path-95" class="exterior-R-prim" d="M5,138.45v13l3.75-2.16v-8.66Z"/>
        <path id="Path-96" class="exterior-R-prim" d="M60,320.41v13l3.75-2.16v-8.66Z"/>
        <path id="Path-97" class="exterior-R-prim" d="M32.5,304.54v13l3.75-2.17V306.7Z"/>
        <path id="Path-98" class="exterior-R-prim" d="M5,288.66v13l3.75-2.16v-8.66Z"/>
        <path id="Path-99" class="exterior-R-prim" d="M60,245.29v13l3.75-2.17v-8.66Z"/>
        <path id="Path-100" class="exterior-R-prim" d="M32.5,229.41v13l3.75-2.16v-8.66Z"/>
        <path id="Path-101" class="exterior-R-prim" d="M5,213.54v13l3.75-2.17V215.7Z"/>
        <path id="Path-102" class="exterior-R-prim" d="M60,207.71v13l3.75-2.17v-8.66Z"/>
        <path id="Path-103" class="exterior-R-prim" d="M32.5,191.83v13l3.75-2.17V194Z"/>
        <path id="Path-104" class="exterior-R-prim" d="M5,176v13l3.75-2.16v-8.66Z"/>
        <path id="Path-105" class="exterior-R-prim" d="M60,132.79v13l3.75-2.17V135Z"/>
        <path id="Path-106" class="exterior-R-prim" d="M32.5,116.91v13l3.75-2.16v-8.66Z"/>
        <path id="Path-107" class="exterior-R-prim" d="M5,101v13l3.75-2.17V103.2Z"/>
        <path id="Path-108" class="exterior-R-prim" d="M60,282.79v13l3.75-2.17V285Z"/>
        <path id="Path-109" class="exterior-R-prim" d="M32.5,266.91v13l3.75-2.16v-8.66Z"/>
        <path id="Path-110" class="exterior-R-prim" d="M5,251v13l3.75-2.17V253.2Z"/>
      </g>
      <g id="Group-29">
        <path id="Path-117" class="top-prim" d="M97.5,192,115,181.86l3.75,2.17L97.5,196.3Z"/>
        <path id="Path-118" class="top-prim" d="M122.5,177.53l17.5-10.1,3.75,2.17L122.5,181.86Z"/>
        <path id="Path-119" class="top-prim" d="M147.5,163.1,165,153l3.75,2.16L147.5,167.43Z"/>
        <path id="Path-120" class="top-prim" d="M172.5,148.67,190,138.56l3.75,2.17L172.5,153Z"/>
        <path id="Path-121" class="top-prim" d="M197.5,134.23l17.5-10.1,3.75,2.16L197.5,138.56Z"/>
        <path id="Path-122" class="top-prim" d="M222.5,119.8,240,109.7l3.75,2.16L222.5,124.13Z"/>
      </g>
      <g id="Group-30">
        <g id="Group-31">
          <path id="Path-123" class="exterior-R-dark" d="M97.5,258.36l17.5-10.1v8.66L97.5,267Z"/>
          <path id="Path-124" class="exterior-R-dark" d="M147.5,229.5,165,219.39v8.66l-17.5,10.11Z"/>
          <path id="Path-125" class="exterior-R-dark" d="M197.5,200.63,215,190.52v8.66l-17.5,10.11Z"/>
          <path id="Path-126" class="exterior-R-dark" d="M122.5,243.93l17.5-10.1v8.66l-17.5,10.1Z"/>
          <path id="Path-127" class="exterior-R-dark" d="M172.5,215.06,190,205v8.66l-17.5,10.1Z"/>
          <path id="Path-128" class="exterior-R-dark" d="M222.5,186.19l17.5-10.1v8.66l-17.5,10.1Z"/>
        </g>
      </g>
      <g id="Group-32">
        <path id="Path-129" class="top-prim" d="M97.5,267,115,256.9l3.75,2.16L97.5,271.35Z"/>
        <path id="Path-130" class="top-prim" d="M122.5,252.59l17.5-10.1,3.75,2.16L122.5,256.92Z"/>
        <path id="Path-131" class="top-prim" d="M147.5,238.16,165,228.05l3.75,2.17L147.5,242.49Z"/>
        <path id="Path-132" class="top-prim" d="M172.5,223.72l17.5-10.1,3.75,2.16L172.5,228.05Z"/>
        <path id="Path-133" class="top-prim" d="M197.5,209.29,215,199.18l3.75,2.17L197.5,213.62Z"/>
        <path id="Path-134" class="top-prim" d="M222.5,194.85l17.5-10.1,3.75,2.17L222.5,199.18Z"/>
      </g>
      <g id="Group-35">
        <path id="Path-141" class="top-prim" d="M97.5,342.08,115,332l3.75,2.16L97.5,346.41Z"/>
        <path id="Path-142" class="top-prim" d="M122.5,327.65,140,317.54l3.75,2.17L122.5,332Z"/>
        <path id="Path-143" class="top-prim" d="M147.5,313.21l17.5-10.1,3.75,2.16L147.5,317.54Z"/>
        <path id="Path-144" class="top-prim" d="M172.5,298.78,190,288.67l3.75,2.17L172.5,303.11Z"/>
        <path id="Path-145" class="top-prim" d="M197.5,284.34l17.5-10.1,3.75,2.17L197.5,288.67Z"/>
        <path id="Path-146" class="top-prim" d="M222.5,269.91l17.5-10.1,3.75,2.16L222.5,274.24Z"/>
      </g>
      <g id="Group-38">
        <path id="Path-153" class="top-prim" d="M97.5,154.44l17.5-10.1,3.75,2.16L97.5,158.77Z"/>
        <path id="Path-154" class="top-prim" d="M122.5,140,140,129.9l3.75,2.17L122.5,144.34Z"/>
        <path id="Path-155" class="top-prim" d="M147.5,125.57l17.5-10.1,3.75,2.16L147.5,129.9Z"/>
        <path id="Path-156" class="top-prim" d="M172.5,111.14,190,101l3.75,2.16L172.5,115.47Z"/>
        <path id="Path-157" class="top-prim" d="M197.5,96.71,215,86.6l3.75,2.17L197.5,101Z"/>
        <path id="Path-158" class="top-prim" d="M222.5,82.27,240,72.17l3.75,2.16L222.5,86.6Z"/>
      </g>
      <g id="Group-41">
        <path id="Path-165" class="top-prim" d="M97.5,229.5,115,219.39l3.75,2.17L97.5,233.83Z"/>
        <path id="Path-166" class="top-prim" d="M122.5,215.06,140,205l3.75,2.16L122.5,219.39Z"/>
        <path id="Path-167" class="top-prim" d="M147.5,200.63,165,190.52l3.75,2.17L147.5,205Z"/>
        <path id="Path-168" class="top-prim" d="M172.5,186.19l17.5-10.1,3.75,2.17L172.5,190.52Z"/>
        <path id="Path-169" class="top-prim" d="M197.5,171.76l17.5-10.1,3.75,2.16L197.5,176.09Z"/>
        <path id="Path-170" class="top-prim" d="M222.5,157.33,240,147.22l3.75,2.17L222.5,161.66Z"/>
      </g>
      <g id="Group-42">
        <g id="Group-43">
          <path id="Path-171" class="exterior-R-dark" d="M97.5,295.89l17.5-10.1v8.66l-17.5,10.1Z"/>
          <path id="Path-172" class="exterior-R-dark" d="M147.5,267,165,256.9v8.66l-17.5,10.1Z"/>
          <path id="Path-173" class="exterior-R-dark" d="M197.5,238.16,215,228.05v8.66l-17.5,10.11Z"/>
          <path id="Path-174" class="exterior-R-dark" d="M122.5,281.46,140,271.35V280l-17.5,10.11Z"/>
          <path id="Path-175" class="exterior-R-dark" d="M172.5,252.59l17.5-10.1v8.66l-17.5,10.1Z"/>
          <path id="Path-176" class="exterior-R-dark" d="M222.5,223.72l17.5-10.1v8.66l-17.5,10.1Z"/>
        </g>
      </g>
      <g id="Group-44">
        <path id="Path-177" class="top-prim" d="M97.5,304.55l17.5-10.1,3.75,2.16L97.5,308.88Z"/>
        <path id="Path-178" class="top-prim" d="M122.5,290.12,140,280l3.75,2.17L122.5,294.45Z"/>
        <path id="Path-179" class="top-prim" d="M147.5,275.68l17.5-10.1,3.75,2.17L147.5,280Z"/>
        <path id="Path-180" class="top-prim" d="M172.5,261.25l17.5-10.1,3.75,2.16L172.5,265.58Z"/>
        <path id="Path-181" class="top-prim" d="M197.5,246.82,215,236.71l3.75,2.17L197.5,251.15Z"/>
        <path id="Path-182" class="top-prim" d="M222.5,232.38l17.5-10.1,3.75,2.16L222.5,236.71Z"/>
      </g>
      <g id="Group-47">
        <path id="Path-189" class="top-prim" d="M97.5,210.73l17.5-10.1,3.75,2.16L97.5,215.06Z"/>
        <path id="Path-190" class="top-prim" d="M122.5,196.3,140,186.19l3.75,2.17L122.5,200.63Z"/>
        <path id="Path-191" class="top-prim" d="M147.5,181.86l17.5-10.1,3.75,2.17L147.5,186.19Z"/>
        <path id="Path-192" class="top-prim" d="M172.5,167.43l17.5-10.1,3.75,2.16L172.5,171.76Z"/>
        <path id="Path-193" class="top-prim" d="M197.5,153,215,142.89l3.75,2.17L197.5,157.33Z"/>
        <path id="Path-194" class="top-prim" d="M222.5,138.56l17.5-10.1,3.75,2.16L222.5,142.89Z"/>
      </g>
      <g id="Group-48">
        <g id="Group-49">
          <path id="Path-195" class="exterior-R-dark" d="M97.5,277.13,115,267v8.66L97.5,285.79Z"/>
          <path id="Path-196" class="exterior-R-dark" d="M147.5,248.26l17.5-10.1v8.66l-17.5,10.1Z"/>
          <path id="Path-197" class="exterior-R-dark" d="M197.5,219.39l17.5-10.1V218l-17.5,10.1Z"/>
          <path id="Path-198" class="exterior-R-dark" d="M122.5,262.69l17.5-10.1v8.66l-17.5,10.1Z"/>
          <path id="Path-199" class="exterior-R-dark" d="M172.5,233.83,190,223.72v8.66l-17.5,10.11Z"/>
          <path id="Path-200" class="exterior-R-dark" d="M222.5,205,240,194.85v8.66l-17.5,10.11Z"/>
        </g>
      </g>
      <g id="Group-50">
        <path id="Path-201" class="top-prim" d="M97.5,285.79,115,275.68l3.75,2.17L97.5,290.12Z"/>
        <path id="Path-202" class="top-prim" d="M122.5,271.35l17.5-10.1,3.75,2.17L122.5,275.68Z"/>
        <path id="Path-203" class="top-prim" d="M147.5,256.92l17.5-10.1,3.75,2.16L147.5,261.25Z"/>
        <path id="Path-204" class="top-prim" d="M172.5,242.49,190,232.38l3.75,2.17L172.5,246.82Z"/>
        <path id="Path-205" class="top-prim" d="M197.5,228.05,215,218l3.75,2.16L197.5,232.38Z"/>
        <path id="Path-206" class="top-prim" d="M222.5,213.62,240,203.51l3.75,2.17L222.5,218Z"/>
      </g>
      <g id="Group-53">
        <path id="Path-213" class="top-prim" d="M97.5,360.84l17.5-10.1,3.75,2.16L97.5,365.17Z"/>
        <path id="Path-214" class="top-prim" d="M122.5,346.41l17.5-10.1,3.75,2.16L122.5,350.74Z"/>
        <path id="Path-215" class="top-prim" d="M147.5,332,165,321.87l3.75,2.17L147.5,336.31Z"/>
        <path id="Path-216" class="top-prim" d="M172.5,317.54l17.5-10.1,3.75,2.16L172.5,321.87Z"/>
        <path id="Path-217" class="top-prim" d="M197.5,303.11,215,293l3.75,2.17L197.5,307.44Z"/>
        <path id="Path-218" class="top-prim" d="M222.5,288.67l17.5-10.1,3.75,2.17L222.5,293Z"/>
      </g>
      <g id="Group-56">
        <path id="Path-225" class="top-prim" d="M97.5,173.2,115,163.1l3.75,2.17L97.5,177.53Z"/>
        <path id="Path-226" class="top-prim" d="M122.5,158.77l17.5-10.1,3.75,2.16L122.5,163.1Z"/>
        <path id="Path-227" class="top-prim" d="M147.5,144.34,165,134.23l3.75,2.17L147.5,148.67Z"/>
        <path id="Path-228" class="top-prim" d="M172.5,129.9,190,119.8l3.75,2.16L172.5,134.23Z"/>
        <path id="Path-229" class="top-prim" d="M197.5,115.47l17.5-10.1,3.75,2.16L197.5,119.8Z"/>
        <path id="Path-230" class="top-prim" d="M222.5,101,240,90.93l3.75,2.17L222.5,105.37Z"/>
      </g>
      <g id="Group-59">
        <path id="Path-237" class="top-prim" d="M97.5,248.26l17.5-10.1,3.75,2.16L97.5,252.59Z"/>
        <path id="Path-238" class="top-prim" d="M122.5,233.83,140,223.72l3.75,2.17L122.5,238.16Z"/>
        <path id="Path-239" class="top-prim" d="M147.5,219.39l17.5-10.1,3.75,2.16L147.5,223.72Z"/>
        <path id="Path-240" class="top-prim" d="M172.5,205,190,194.85l3.75,2.17L172.5,209.29Z"/>
        <path id="Path-241" class="top-prim" d="M197.5,190.52l17.5-10.1,3.75,2.17L197.5,194.85Z"/>
        <path id="Path-242" class="top-prim" d="M222.5,176.09,240,166l3.75,2.16L222.5,180.42Z"/>
      </g>
      <g id="Group-62">
        <path id="Path-249" class="top-prim" d="M97.5,323.32,115,313.21l3.75,2.17L97.5,327.65Z"/>
        <path id="Path-250" class="top-prim" d="M122.5,308.88l17.5-10.1,3.75,2.16L122.5,313.21Z"/>
        <path id="Path-251" class="top-prim" d="M147.5,294.45,165,284.34l3.75,2.17L147.5,298.78Z"/>
        <path id="Path-252" class="top-prim" d="M172.5,280,190,269.9l3.75,2.17L172.5,284.34Z"/>
        <path id="Path-253" class="top-prim" d="M197.5,265.58l17.5-10.1,3.75,2.16L197.5,269.91Z"/>
        <path id="Path-254" class="top-prim" d="M222.5,251.15,240,241l3.75,2.17L222.5,255.48Z"/>
      </g>
      <g id="Group-63">
        <path id="Path-255" class="exterior-L-prim" d="M118.75,171v13L115,181.86V173.2Z"/>
        <path id="Path-256" class="exterior-L-prim" d="M143.75,156.61v13L140,167.43v-8.66Z"/>
        <path id="Path-257" class="exterior-L-prim" d="M168.75,142.17v13L165,153v-8.66Z"/>
        <path id="Path-258" class="exterior-L-prim" d="M193.75,127.74v13L190,138.56V129.9Z"/>
        <path id="Path-259" class="exterior-L-prim" d="M218.75,113.3v13L215,124.13v-8.66Z"/>
        <path id="Path-260" class="exterior-L-prim" d="M243.75,98.87v13L240,109.7V101Z"/>
        <path id="Path-261" class="exterior-L-prim" d="M118.75,246.09v13L115,256.92v-8.66Z"/>
        <path id="Path-262" class="exterior-L-prim" d="M143.75,231.66v13L140,242.49v-8.66Z"/>
        <path id="Path-263" class="exterior-L-prim" d="M168.75,217.23v13L165,228.05v-8.66Z"/>
        <path id="Path-264" class="exterior-L-prim" d="M193.75,202.79v13L190,213.62V205Z"/>
        <path id="Path-265" class="exterior-L-prim" d="M218.75,188.36v13L215,199.18v-8.66Z"/>
        <path id="Path-266" class="exterior-L-prim" d="M243.75,173.93v13L240,184.75v-8.66Z"/>
        <path id="Path-267" class="exterior-L-prim" d="M118.75,321.15v13L115,332v-8.66Z"/>
        <path id="Path-268" class="exterior-L-prim" d="M143.75,306.72v13L140,317.54v-8.66Z"/>
        <path id="Path-269" class="exterior-L-prim" d="M168.75,292.28v13L165,303.11v-8.66Z"/>
        <path id="Path-270" class="exterior-L-prim" d="M193.75,277.85v13L190,288.67V280Z"/>
        <path id="Path-271" class="exterior-L-prim" d="M218.75,263.42v13L215,274.24v-8.66Z"/>
        <path id="Path-272" class="exterior-L-prim" d="M243.75,249v13L240,259.81v-8.66Z"/>
        <path id="Path-273" class="exterior-L-prim" d="M118.75,133.51v13L115,144.34v-8.66Z"/>
        <path id="Path-274" class="exterior-L-prim" d="M143.75,119.08v13L140,129.9v-8.66Z"/>
        <path id="Path-275" class="exterior-L-prim" d="M168.75,104.64v13L165,115.47v-8.66Z"/>
        <path id="Path-276" class="exterior-L-prim" d="M193.75,90.21v13L190,101V92.37Z"/>
        <path id="Path-277" class="exterior-L-prim" d="M218.75,75.78v13L215,86.6V77.94Z"/>
        <path id="Path-278" class="exterior-L-prim" d="M243.75,61.34v13L240,72.17V63.51Z"/>
        <path id="Path-279" class="exterior-L-prim" d="M118.75,208.57v13L115,219.39v-8.66Z"/>
        <path id="Path-280" class="exterior-L-prim" d="M143.75,194.13v13L140,205v-8.7Z"/>
        <path id="Path-281" class="exterior-L-prim" d="M168.75,179.7v13L165,190.52v-8.66Z"/>
        <path id="Path-282" class="exterior-L-prim" d="M193.75,165.27v13L190,176.09v-8.66Z"/>
        <path id="Path-283" class="exterior-L-prim" d="M218.75,150.83v13L215,161.66V153Z"/>
        <path id="Path-284" class="exterior-L-prim" d="M243.75,136.4v13L240,147.22v-8.66Z"/>
        <path id="Path-285" class="exterior-L-prim" d="M118.75,283.62v13L115,294.45v-8.66Z"/>
        <path id="Path-286" class="exterior-L-prim" d="M143.75,269.19v13L140,280v-8.66Z"/>
        <path id="Path-287" class="exterior-L-prim" d="M168.75,254.75v13L165,265.58v-8.66Z"/>
        <path id="Path-288" class="exterior-L-prim" d="M193.75,240.32v13L190,251.15v-8.66Z"/>
        <path id="Path-289" class="exterior-L-prim" d="M218.75,225.89v13L215,236.71v-8.66Z"/>
        <path id="Path-290" class="exterior-L-prim" d="M243.75,211.45v13L240,222.28v-8.66Z"/>
        <path id="Path-291" class="exterior-L-prim" d="M118.75,189.8v13L115,200.63V192Z"/>
        <path id="Path-292" class="exterior-L-prim" d="M143.75,175.37v13L140,186.19v-8.66Z"/>
        <path id="Path-293" class="exterior-L-prim" d="M168.75,160.94v13L165,171.76V163.1Z"/>
        <path id="Path-294" class="exterior-L-prim" d="M193.75,146.5v13L190,157.33v-8.66Z"/>
        <path id="Path-295" class="exterior-L-prim" d="M218.75,132.07v13L215,142.89v-8.66Z"/>
        <path id="Path-296" class="exterior-L-prim" d="M243.75,117.63v13L240,128.46V119.8Z"/>
        <path id="Path-297" class="exterior-L-prim" d="M118.75,264.86v13L115,275.68V267Z"/>
        <path id="Path-298" class="exterior-L-prim" d="M143.75,250.42v13L140,261.25v-8.66Z"/>
        <path id="Path-299" class="exterior-L-prim" d="M168.75,236v13L165,246.82v-8.66Z"/>
        <path id="Path-300" class="exterior-L-prim" d="M193.75,221.56v13L190,232.38v-8.66Z"/>
        <path id="Path-301" class="exterior-L-prim" d="M218.75,207.12v13L215,218v-8.66Z"/>
        <path id="Path-302" class="exterior-L-prim" d="M243.75,192.69v13L240,203.51v-8.66Z"/>
        <path id="Path-303" class="exterior-L-prim" d="M118.75,339.91v13L115,350.74v-8.66Z"/>
        <path id="Path-304" class="exterior-L-prim" d="M143.75,325.48v13L140,336.31v-8.66Z"/>
        <path id="Path-305" class="exterior-L-prim" d="M168.75,311.05v13L165,321.87v-8.66Z"/>
        <path id="Path-306" class="exterior-L-prim" d="M193.75,296.61v13L190,307.44v-8.66Z"/>
        <path id="Path-307" class="exterior-L-prim" d="M218.75,282.18v13L215,293v-8.66Z"/>
        <path id="Path-308" class="exterior-L-prim" d="M243.75,267.75v13L240,278.57v-8.66Z"/>
        <path id="Path-309" class="exterior-L-prim" d="M118.75,152.28v13L115,163.1v-8.66Z"/>
        <path id="Path-310" class="exterior-L-prim" d="M143.75,137.84v13L140,148.67V140Z"/>
        <path id="Path-311" class="exterior-L-prim" d="M168.75,123.41v13L165,134.23v-8.66Z"/>
        <path id="Path-312" class="exterior-L-prim" d="M193.75,109v13L190,119.8v-8.66Z"/>
        <path id="Path-313" class="exterior-L-prim" d="M218.75,94.54v13L215,105.37V96.71Z"/>
        <path id="Path-314" class="exterior-L-prim" d="M243.75,80.11v13L240,90.93V82.27Z"/>
        <path id="Path-315" class="exterior-L-prim" d="M118.75,227.33v13L115,238.16V229.5Z"/>
        <path id="Path-316" class="exterior-L-prim" d="M143.75,212.9v13L140,223.72v-8.66Z"/>
        <path id="Path-317" class="exterior-L-prim" d="M168.75,198.46v13L165,209.29v-8.66Z"/>
        <path id="Path-318" class="exterior-L-prim" d="M193.75,184v13L190,194.85v-8.66Z"/>
        <path id="Path-319" class="exterior-L-prim" d="M218.75,169.6v13L215,180.42v-8.66Z"/>
        <path id="Path-320" class="exterior-L-prim" d="M243.75,155.16v13L240,166v-8.66Z"/>
        <path id="Path-321" class="exterior-L-prim" d="M118.75,302.39v13L115,313.21v-8.66Z"/>
        <path id="Path-322" class="exterior-L-prim" d="M143.75,288v13L140,298.78v-8.66Z"/>
        <path id="Path-323" class="exterior-L-prim" d="M168.75,273.52v13L165,284.34v-8.66Z"/>
        <path id="Path-324" class="exterior-L-prim" d="M193.75,259.08v13L190,269.91v-8.66Z"/>
        <path id="Path-325" class="exterior-L-prim" d="M218.75,244.65v13L215,255.48v-8.66Z"/>
        <path id="Path-326" class="exterior-L-prim" d="M243.75,230.22v13L240,241v-8.66Z"/>
      </g>
    </g>
    <g>
      <path id="Path-3" class="window-L-prim" d="M83.75,202.64l-20-11.55v8.66l20,11.55Z"/>
      <path id="Path-4" class="window-L-prim" d="M56.25,186.76l-20-11.55v8.67l20,11.54Z"/>
      <path id="Path-5" class="window-L-prim" d="M28.75,170.88l-20-11.54V168l20,11.55Z"/>
      <path id="Path-9" class="window-L-prim" d="M83.75,352.85l-20-11.55V350l20,11.55Z"/>
      <path id="Path-10" class="window-L-prim" d="M56.25,337l-20-11.55v8.66l20,11.55Z"/>
      <path id="Path-11" class="window-L-prim" d="M28.75,321.09l-20-11.54v8.66l20,11.54Z"/>
      <path id="Path-21" class="window-L-prim" d="M83.75,240.14l-20-11.55v8.66l20,11.55Z"/>
      <path id="Path-22" class="window-L-prim" d="M56.25,224.26l-20-11.55v8.67l20,11.54Z"/>
      <path id="Path-23" class="window-L-prim" d="M28.75,208.38l-20-11.54v8.66l20,11.55Z"/>
      <path id="Path-27" class="window-L-prim" d="M83.75,165.22l-20-11.54v8.66l20,11.54Z"/>
      <path id="Path-28" class="window-L-prim" d="M56.25,149.35l-20-11.55v8.66l20,11.55Z"/>
      <path id="Path-29" class="window-L-prim" d="M28.75,133.47l-20-11.55v8.66l20,11.55Z"/>
      <path id="Path-33" class="window-L-prim" d="M83.75,315.22l-20-11.54v8.66l20,11.54Z"/>
      <path id="Path-34" class="window-L-prim" d="M56.25,299.35l-20-11.55v8.66l20,11.55Z"/>
      <path id="Path-35" class="window-L-prim" d="M28.75,283.47l-20-11.55v8.66l20,11.55Z"/>
      <path id="Path-39" class="window-L-prim" d="M83.75,183.92l-20-11.55V181l20,11.55Z"/>
      <path id="Path-40" class="window-L-prim" d="M56.25,168l-20-11.55v8.66l20,11.55Z"/>
      <path id="Path-41" class="window-L-prim" d="M28.75,152.16l-20-11.54v8.66l20,11.54Z"/>
      <path id="Path-45" class="window-L-prim" d="M83.75,334.13l-20-11.55v8.66l20,11.55Z"/>
      <path id="Path-46" class="window-L-prim" d="M56.25,318.25l-20-11.55v8.66l20,11.55Z"/>
      <path id="Path-47" class="window-L-prim" d="M28.75,302.37l-20-11.54v8.66l20,11.54Z"/>
      <path id="Path-57" class="window-L-prim" d="M83.75,221.42l-20-11.55v8.66l20,11.55Z"/>
      <path id="Path-58" class="window-L-prim" d="M56.25,205.54,36.25,194v8.66l20,11.55Z"/>
      <path id="Path-59" class="window-L-prim" d="M28.75,189.66l-20-11.54v8.66l20,11.54Z"/>
      <path id="Path-63" class="window-L-prim" d="M83.75,146.5l-20-11.5v8.66l20,11.55Z"/>
      <path id="Path-64" class="window-L-prim" d="M56.25,130.62l-20-11.54v8.66l20,11.54Z"/>
      <path id="Path-65" class="window-L-prim" d="M28.75,114.75l-20-11.55v8.66l20,11.55Z"/>
    </g>
    <path id="Path-111" class="window-R-prim" d="M97.5,183.31,115,173.2v8.66L97.5,192Z"/>
    <path id="Path-112" class="window-R-prim" d="M147.5,154.44l17.5-10.1V153l-17.5,10.1Z"/>
    <path id="Path-113" class="window-R-prim" d="M197.5,125.57l17.5-10.1v8.66l-17.5,10.1Z"/>
    <path id="Path-114" class="window-R-prim" d="M122.5,168.87l17.5-10.1v8.66l-17.5,10.1Z"/>
    <path id="Path-115" class="window-R-prim" d="M172.5,140,190,129.9v8.66l-17.5,10.11Z"/>
    <path id="Path-116" class="window-R-prim" d="M222.5,111.14,240,101v8.66l-17.5,10.1Z"/>
    <path id="Path-135" class="window-R-prim" d="M97.5,333.42l17.5-10.1V332L97.5,342.1Z"/>
    <path id="Path-136" class="window-R-prim" d="M147.5,304.55l17.5-10.1v8.66l-17.5,10.1Z"/>
    <path id="Path-137" class="window-R-prim" d="M197.5,275.68l17.5-10.1v8.66l-17.5,10.1Z"/>
    <path id="Path-138" class="window-R-prim" d="M122.5,319,140,308.88v8.66l-17.5,10.11Z"/>
    <path id="Path-139" class="window-R-prim" d="M172.5,290.12,190,280v8.66l-17.5,10.11Z"/>
    <path id="Path-140" class="window-R-prim" d="M222.5,261.25l17.5-10.1v8.66l-17.5,10.1Z"/>
    <path id="Path-147" class="window-R-prim" d="M97.5,145.78l17.5-10.1v8.66l-17.5,10.1Z"/>
    <path id="Path-148" class="window-R-prim" d="M147.5,116.91l17.5-10.1v8.66l-17.5,10.1Z"/>
    <path id="Path-149" class="window-R-prim" d="M197.5,88,215,77.94V86.6L197.5,96.71Z"/>
    <path id="Path-150" class="window-R-prim" d="M122.5,131.35,140,121.24v8.66L122.5,140Z"/>
    <path id="Path-151" class="window-R-prim" d="M172.5,102.48,190,92.37V101l-17.5,10.1Z"/>
    <path id="Path-152" class="window-R-prim" d="M222.5,73.61,240,63.51v8.66l-17.5,10.1Z"/>
    <path id="Path-159" class="window-R-prim" d="M97.5,220.84,115,210.73v8.66L97.5,229.5Z"/>
    <path id="Path-160" class="window-R-prim" d="M147.5,192,165,181.86v8.66l-17.5,10.11Z"/>
    <path id="Path-161" class="window-R-prim" d="M197.5,163.1,215,153v8.66l-17.5,10.1Z"/>
    <path id="Path-162" class="window-R-prim" d="M122.5,206.4,140,196.3V205l-17.5,10.1Z"/>
    <path id="Path-163" class="window-R-prim" d="M172.5,177.53l17.5-10.1v8.66l-17.5,10.1Z"/>
    <path id="Path-164" class="window-R-prim" d="M222.5,148.67,240,138.56v8.66l-17.5,10.11Z"/>
    <path id="Path-183" class="window-R-prim" d="M97.5,202.07,115,192v8.66l-17.5,10.1Z"/>
    <path id="Path-184" class="window-R-prim" d="M147.5,173.2,165,163.1v8.66l-17.5,10.1Z"/>
    <path id="Path-185" class="window-R-prim" d="M197.5,144.34,215,134.23v8.66L197.5,153Z"/>
    <path id="Path-186" class="window-R-prim" d="M122.5,187.64,140,177.53v8.66L122.5,196.3Z"/>
    <path id="Path-187" class="window-R-prim" d="M172.5,158.77l17.5-10.1v8.66l-17.5,10.1Z"/>
    <path id="Path-188" class="window-R-prim" d="M222.5,129.9,240,119.8v8.66l-17.5,10.1Z"/>
    <path id="Path-207" class="window-R-prim" d="M97.5,352.18l17.5-10.1v8.66l-17.5,10.1Z"/>
    <path id="Path-208" class="window-R-prim" d="M147.5,323.32,165,313.21v8.66L147.5,332Z"/>
    <path id="Path-209" class="window-R-prim" d="M197.5,294.45,215,284.34V293l-17.5,10.11Z"/>
    <path id="Path-210" class="window-R-prim" d="M122.5,337.75l17.5-10.1v8.66l-17.5,10.1Z"/>
    <path id="Path-211" class="window-R-prim" d="M172.5,308.88l17.5-10.1v8.66l-17.5,10.1Z"/>
    <path id="Path-212" class="window-R-prim" d="M222.5,280,240,269.9v8.66l-17.5,10.1Z"/>
    <path id="Path-219" class="window-R-prim" d="M97.5,164.54l17.5-10.1v8.66L97.5,173.2Z"/>
    <path id="Path-220" class="window-R-prim" d="M147.5,135.68,165,125.57v8.66l-17.5,10.11Z"/>
    <path id="Path-221" class="window-R-prim" d="M197.5,106.81,215,96.71v8.66l-17.5,10.1Z"/>
    <path id="Path-222" class="window-R-prim" d="M122.5,150.11,140,140v8.66l-17.5,10.1Z"/>
    <path id="Path-223" class="window-R-prim" d="M172.5,121.24l17.5-10.1v8.66l-17.5,10.1Z"/>
    <path id="Path-224" class="window-R-prim" d="M222.5,92.37,240,82.27v8.66L222.5,101Z"/>
    <path id="Path-231" class="window-R-prim" d="M97.5,239.6,115,229.5v8.66l-17.5,10.1Z"/>
    <path id="Path-232" class="window-R-prim" d="M147.5,210.73l17.5-10.1v8.66l-17.5,10.1Z"/>
    <path id="Path-233" class="window-R-prim" d="M197.5,181.86l17.5-10.1v8.66l-17.5,10.1Z"/>
    <path id="Path-234" class="window-R-prim" d="M122.5,225.17,140,215.06v8.66l-17.5,10.11Z"/>
    <path id="Path-235" class="window-R-prim" d="M172.5,196.3,190,186.19v8.66L172.5,205Z"/>
    <path id="Path-236" class="window-R-prim" d="M222.5,167.43l17.5-10.1V166l-17.5,10.1Z"/>
    <path id="Path-243" class="window-R-prim" d="M97.5,314.65l17.5-10.1v8.66L97.5,323.32Z"/>
    <path id="Path-244" class="window-R-prim" d="M147.5,285.79,165,275.68v8.66l-17.5,10.11Z"/>
    <path id="Path-245" class="window-R-prim" d="M197.5,256.92l17.5-10.1v8.66l-17.5,10.1Z"/>
    <path id="Path-246" class="window-R-prim" d="M122.5,300.22l17.5-10.1v8.66l-17.5,10.1Z"/>
    <path id="Path-247" class="window-R-prim" d="M172.5,271.35l17.5-10.1v8.66L172.5,280Z"/>
    <path id="Path-248" class="window-R-prim" d="M222.5,242.49,240,232.38V241l-17.5,10.11Z"/>
  </g>
</svg>
