<svg id="Layer_1" data-name="Layer 1" xmlns="http://www.w3.org/2000/svg" viewBox="0 0 180 190.526">
  <defs>
    <style>
      .cls-1 {
        fill: #e8e8e8;
      }

      .cls-2 {
        fill: #5b5f66;
      }

      .cls-3 {
        fill: #080808;
      }

      .cls-4 {
        fill: #b9b9b9;
      }

      .cls-5 {
        fill: #48494f;
      }

      .cls-6 {
        fill: #202122;
      }

      .cls-7 {
        fill: #f9f9f9;
      }

      .cls-8 {
        fill: #a2a2a2;
      }

      .cls-9 {
        fill: #d1d1d1;
      }

      .cls-10 {
        fill: #464646;
      }

      .cls-11 {
        fill: #fff;
      }
    </style>
  </defs>
  <title>Artboard 10</title>
  <g id="root">
    <path class="cls-1" d="M0,63.509V51.962L90,0l90,51.962V63.509L90,115.47Z"/>
    <path class="cls-2" d="M90,103.923l-5-2.887v86.603l5,2.887,90-51.962V51.962Z"/>
    <path class="cls-3" d="M90,103.923v86.603L0,138.564V51.962Z"/>
    <path class="cls-4" d="M10,51.962,90,5.774l80,46.188L90,98.15Z"/>
    <path class="cls-2" d="M10,51.962,90,5.774V51.962L50,75.056Z"/>
    <path class="cls-3" d="M90,5.774V51.962l40,23.094,40-23.094Z"/>
    <path class="cls-5" d="M90,190.526l10-5.774V98.15l-10,5.773Z"/>
    <path class="cls-5" d="M20,57.735l10,5.774V40.415L20,46.188Z"/>
    <path class="cls-6" d="M90,190.526l-10-5.774V98.15l10,5.773Z"/>
    <path class="cls-5" d="M110,178.979l10-5.774V86.603l-10,5.773Z"/>
    <path class="cls-5" d="M40,69.282l10,5.774V28.868L40,34.641Z"/>
    <path class="cls-6" d="M70,178.979l-10-5.774V86.603l10,5.773Z"/>
    <path class="cls-6" d="M160,57.735l-10,5.774V40.415l10,5.773Z"/>
    <path class="cls-5" d="M130,167.432l10-5.774V75.056l-10,5.773Z"/>
    <path class="cls-5" d="M60,69.282l10-5.773V17.321L60,23.094Z"/>
    <path class="cls-6" d="M50,167.432l-10-5.774V75.056l10,5.773Z"/>
    <path class="cls-6" d="M140,69.282l-10,5.774V28.868l10,5.773Z"/>
    <path class="cls-5" d="M150,155.885l10-5.774V63.509l-10,5.773Z"/>
    <path class="cls-5" d="M80,57.735l10-5.773,5-2.887V8.66L90,5.774,80,11.547Z"/>
    <path class="cls-6" d="M30,155.885l-10-5.774V63.509l10,5.773Z"/>
    <path class="cls-6" d="M120,69.282l-10-5.773V17.321l10,5.773Z"/>
    <path class="cls-5" d="M170,144.338l10-5.774V51.962l-10,5.773Z"/>
    <path class="cls-6" d="M10,144.338,0,138.564V51.962l10,5.773Z"/>
    <path class="cls-6" d="M100,57.735,90,51.962V5.774l10,5.773Z"/>
    <path class="cls-7" d="M52.5,63.509l15,8.66,40-23.094-15-8.66Z"/>
    <path class="cls-8" d="M67.5,72.169v12.99l-15-8.66V63.509Z"/>
    <path class="cls-9" d="M107.5,49.075v17.32L71.25,87.324,67.5,85.062V72.169Z"/>
    <path class="cls-10" d="M70,73.612l10-5.773V79.386L70,85.159Z"/>
    <path class="cls-10" d="M82.5,66.395l10-5.773V72.169l-10,5.773Z"/>
    <path class="cls-10" d="M95,59.179l10-5.774V64.952L95,70.726Z"/>
    <ellipse class="cls-4" cx="67.1428" cy="62.9701" rx="5.3572" ry="3.0929"/>
    <rect class="cls-4" x="61.7859" y="60.2736" width="10.7141" height="2.6965"/>
    <ellipse class="cls-11" cx="67.1428" cy="60.2737" rx="5.3572" ry="3.0929"/>
    <ellipse class="cls-4" cx="80.1428" cy="55.6966" rx="5.3572" ry="3.0929"/>
    <rect class="cls-4" x="74.7859" y="53.0001" width="10.7141" height="2.6965"/>
    <ellipse class="cls-11" cx="80.1428" cy="53.0002" rx="5.3572" ry="3.0929"/>
    <ellipse class="cls-4" cx="93.1428" cy="48.4231" rx="5.3572" ry="3.0929"/>
    <rect class="cls-4" x="87.7859" y="45.7267" width="10.7141" height="2.6965"/>
    <ellipse class="cls-11" cx="93.1428" cy="45.7267" rx="5.3572" ry="3.0929"/>
    <path class="cls-7" d="M72.5,75.056l15,8.66,40-23.094-15-8.66Z"/>
    <path class="cls-8" d="M87.5,83.716v12.99l-15-8.66V75.056Z"/>
    <path class="cls-9" d="M127.5,60.622V76.499L90,98.15l-2.5-1.444V83.716Z"/>
    <path class="cls-10" d="M90,85.159l10-5.773V90.933L90,96.706Z"/>
    <path class="cls-10" d="M102.5,77.942l10-5.773V83.716l-10,5.773Z"/>
    <path class="cls-10" d="M115,70.726l10-5.774V76.499l-10,5.774Z"/>
    <ellipse class="cls-4" cx="87.1431" cy="74.5171" rx="5.3572" ry="3.0929"/>
    <rect class="cls-4" x="81.7859" y="71.8207" width="10.7141" height="2.6965"/>
    <ellipse class="cls-11" cx="87.1431" cy="71.8206" rx="5.3572" ry="3.0929"/>
    <ellipse class="cls-4" cx="100.1431" cy="67.2436" rx="5.3572" ry="3.0929"/>
    <rect class="cls-4" x="94.7859" y="64.5472" width="10.7141" height="2.6965"/>
    <ellipse class="cls-11" cx="100.1431" cy="64.5471" rx="5.3572" ry="3.0929"/>
    <ellipse class="cls-4" cx="113.1431" cy="59.9701" rx="5.3572" ry="3.0929"/>
    <rect class="cls-4" x="107.7859" y="57.2737" width="10.7141" height="2.6965"/>
    <ellipse class="cls-11" cx="113.1431" cy="57.2737" rx="5.3572" ry="3.0929"/>
  </g>
</svg>
