<svg id="Layer_1" data-name="Layer 1" xmlns="http://www.w3.org/2000/svg" viewBox="0 0 220 133.512">
  <defs>
    <style>
      .cls-1 {
        fill: #b9b9b9;
      }

      .cls-2 {
        fill: #8b8b8b;
      }

      .cls-3 {
        fill: #2e2e2e;
      }

      .cls-4 {
        fill: #5d5d5d;
      }

      .cls-5 {
        opacity: 0.5;
      }

      .cls-6 {
        fill: #fff;
      }

      .cls-7 {
        fill: #ee5757;
      }

      .cls-8 {
        fill: #f7f7f7;
      }

      .cls-9 {
        fill: #ececec;
      }
    </style>
  </defs>
  <title>Artboard 10</title>
  <g id="root">
    <path class="cls-1" d="M0,70.0029,110,6.495,220,70.0029,110,133.512Z"/>
    <path class="cls-2" d="M110,12.121,210,70.0029,110,127.738,10,70.0029Z"/>
    <path class="cls-3" d="M110,12.121V23.668l90,52.109,10-5.7741Z"/>
    <path class="cls-4" d="M10,70.0029,110.256,12.121V23.668L20,75.777Z"/>
    <g>
      <path class="cls-3" d="M20,55.57V61.343l90,51.9619V107.531Z"/>
      <path class="cls-4" d="M200,55.57V61.343l-90,51.9619V107.531Z"/>
      <path class="cls-4" d="M195,64.23h-5V75.777l2.5,1.443,2.5-1.443Z"/>
      <g>
        <path class="cls-3" d="M25,64.23h5V75.777L27.5,77.22,25,75.777Z"/>
        <path class="cls-4" d="M30,75.777,27.5,77.22V65.673L30,67.1169Z"/>
      </g>
      <g>
        <path class="cls-3" d="M80,95.984h5v11.547l-2.5,1.444L80,107.531Z"/>
        <path class="cls-4" d="M85,107.531l-2.5,1.444V97.428L85,98.871Z"/>
      </g>
      <g>
        <path class="cls-4" d="M140,95.984h-5v11.547l2.5,1.444,2.5-1.444Z"/>
        <path class="cls-3" d="M135,107.531l2.5,1.444V97.428L135,98.871Z"/>
      </g>
      <g>
        <path class="cls-3" d="M52.5,80.1069h5v11.547L55,93.097l-2.5-1.4431Z"/>
        <path class="cls-4" d="M57.5,91.6539,55,93.097V81.55l2.5,1.4441Z"/>
      </g>
      <g>
        <path class="cls-4" d="M167.5,80.1069h-5v11.547L165,93.097l2.5-1.4431Z"/>
        <path class="cls-3" d="M162.5,91.6539,165,93.097V81.55l-2.5,1.4441Z"/>
      </g>
      <path class="cls-3" d="M190,75.777l2.5,1.443V65.673L190,67.1169Z"/>
      <g>
        <path class="cls-4" d="M112.5,123.408l-2.5,1.4439-2.5-1.4439v-12.99l2.5,1.443,2.5-1.443Z"/>
        <path class="cls-3" d="M107.5,110.418l2.5,1.443v12.9909l-2.5-1.4439Z"/>
      </g>
      <g>
        <g class="cls-5">
          <path class="cls-6" d="M125,2.165l77.5,44.7439-1.25.7221L123.75,2.886Z"/>
        </g>
        <g class="cls-5">
          <path class="cls-6" d="M120,5.052l77.5,44.744-1.25.7219-77.5-44.745Z"/>
        </g>
        <g class="cls-5">
          <path class="cls-6" d="M122.5,3.608,200,48.353l-1.25.722L121.25,4.33Z"/>
        </g>
        <g class="cls-5">
          <path class="cls-6" d="M117.5,6.495,195,51.24l-1.25.7209L116.25,7.217Z"/>
        </g>
        <path class="cls-4" d="M205,46.9089,195,52.683v1.443l10-5.773Z"/>
        <path class="cls-1" d="M203.75,46.188l1.25.7209L195,52.683l-1.25-.7221Z"/>
        <path class="cls-4" d="M195,41.136l-10,5.7729V48.353l10-5.774Z"/>
        <path class="cls-1" d="M193.75,40.4139l1.25.7221-10,5.7729-1.25-.7209Z"/>
        <path class="cls-4" d="M185,35.3619,175,41.136v1.443l10-5.773Z"/>
        <path class="cls-1" d="M183.75,34.641l1.25.7209L175,41.136l-1.25-.7221Z"/>
        <path class="cls-4" d="M175,29.589l-10,5.7729V36.806l10-5.774Z"/>
        <path class="cls-1" d="M173.75,28.8669l1.25.7221-10,5.7729-1.25-.7209Z"/>
        <path class="cls-4" d="M165,23.8149,155,29.589v1.443l10-5.773Z"/>
        <path class="cls-1" d="M163.75,23.094l1.25.7209L155,29.589l-1.25-.7221Z"/>
        <path class="cls-4" d="M155,18.042l-10,5.7729V25.259l10-5.774Z"/>
        <path class="cls-1" d="M153.75,17.32l1.25.7221-10,5.7729-1.25-.7209Z"/>
        <path class="cls-4" d="M145,12.2679,135,18.042v1.443l10-5.773Z"/>
        <path class="cls-1" d="M143.75,11.547l1.25.7209L135,18.042l-1.25-.7221Z"/>
        <path class="cls-4" d="M135,6.495l-10,5.7729V13.712l10-5.774Z"/>
        <path class="cls-1" d="M133.75,5.7729,135,6.495l-10,5.7729-1.25-.7209Z"/>
        <path class="cls-4" d="M125,.7209,115,6.495V7.938l10-5.773Z"/>
        <path class="cls-1" d="M123.75,0,125,.7209,115,6.495l-1.25-.7221Z"/>
      </g>
      <g>
        <g class="cls-5">
          <path class="cls-6" d="M95,2.165,17.5,46.9089l1.25.7221L96.25,2.886Z"/>
        </g>
        <g class="cls-5">
          <path class="cls-6" d="M97.5.7209h25l-1.25.7221H98.75Z"/>
        </g>
        <g class="cls-5">
          <path class="cls-6" d="M100,2.165h20l-1.25.722h-17.5Z"/>
        </g>
        <g class="cls-5">
          <path class="cls-6" d="M102.5,3.608H110l-1.25.722h-5Z"/>
        </g>
        <g class="cls-5">
          <path class="cls-6" d="M117.5,3.608l-1.25.722h-5L110,3.608Z"/>
        </g>
        <g class="cls-5">
          <path class="cls-6" d="M105,5.052h2.5l-1.25.7209Z"/>
        </g>
        <g class="cls-5">
          <path class="cls-6" d="M115,5.052l-1.25.7209L112.5,5.052Z"/>
        </g>
        <g class="cls-5">
          <path class="cls-6" d="M100,5.052,22.5,49.796l1.25.7219,77.5-44.745Z"/>
        </g>
        <g class="cls-5">
          <path class="cls-6" d="M97.5,3.608,20,48.353l1.25.722L98.75,4.33Z"/>
        </g>
        <g class="cls-5">
          <path class="cls-6" d="M16.25,63.5079V49.075l1.25.721V62.787Z"/>
        </g>
        <g class="cls-5">
          <path class="cls-6" d="M20,61.343l-1.25.7219V50.5179L20,51.24Z"/>
        </g>
        <g class="cls-5">
          <path class="cls-6" d="M22.5,54.126l-1.25.722V51.9609l1.25.7221Z"/>
        </g>
        <g class="cls-5">
          <path class="cls-6" d="M22.5,59.9l-1.25.7219V56.291l1.25.7219Z"/>
        </g>
        <g class="cls-5">
          <path class="cls-6" d="M102.5,6.495,25,51.24l1.25.7209L103.75,7.217Z"/>
        </g>
        <path class="cls-3" d="M15,46.9089,25,52.683v1.443L15,48.353Z"/>
        <path class="cls-1" d="M16.25,46.188,15,46.9089,25,52.683l1.25-.7221Z"/>
        <path class="cls-3" d="M25,41.136l10,5.7729V48.353L25,42.579Z"/>
        <path class="cls-1" d="M26.25,40.4139,25,41.136l10,5.7729,1.25-.7209Z"/>
        <path class="cls-3" d="M35,35.3619,45,41.136v1.443L35,36.806Z"/>
        <path class="cls-1" d="M36.25,34.641,35,35.3619,45,41.136l1.25-.7221Z"/>
        <path class="cls-3" d="M45,29.589l10,5.7729V36.806L45,31.032Z"/>
        <path class="cls-1" d="M46.25,28.8669,45,29.589l10,5.7729,1.25-.7209Z"/>
        <path class="cls-3" d="M55,23.8149,65,29.589v1.443L55,25.259Z"/>
        <path class="cls-1" d="M56.25,23.094,55,23.8149,65,29.589l1.25-.7221Z"/>
        <path class="cls-3" d="M65,18.042l10,5.7729V25.259L65,19.485Z"/>
        <path class="cls-1" d="M66.25,17.32,65,18.042l10,5.7729,1.25-.7209Z"/>
        <path class="cls-3" d="M75,12.2679,85,18.042v1.443L75,13.712Z"/>
        <path class="cls-1" d="M76.25,11.547,75,12.2679,85,18.042l1.25-.7221Z"/>
        <path class="cls-3" d="M85,6.495l10,5.7729V13.712L85,7.938Z"/>
        <path class="cls-1" d="M86.25,5.7729,85,6.495l10,5.7729,1.25-.7209Z"/>
        <path class="cls-3" d="M95,.7209,105,6.495V7.938L95,2.165Z"/>
        <path class="cls-1" d="M96.25,0,95,.7209,105,6.495l1.25-.7221Z"/>
      </g>
      <g>
        <g class="cls-5">
          <path class="cls-6" d="M193.75,60.6219l-77.5,44.7441,1.25.722L195,61.343Z"/>
        </g>
        <g class="cls-5">
          <path class="cls-6" d="M198.75,63.5079l-77.5,44.745,1.25.7221L200,64.23Z"/>
        </g>
        <g class="cls-5">
          <path class="cls-6" d="M196.25,62.0649l-77.5,44.745,1.25.7211,77.5-44.744Z"/>
        </g>
        <g class="cls-5">
          <path class="cls-6" d="M201.25,64.952l-77.5,44.744,1.25.722,77.5-44.745Z"/>
        </g>
        <g>
          <g>
            <path class="cls-3" d="M113.75,105.366l10,5.774v1.443l-10-5.7731Z"/>
            <path class="cls-4" d="M125,110.418v1.443l-1.25.722V111.14Z"/>
            <path class="cls-1" d="M115,104.644l-1.25.722,10,5.774,1.25-.722Z"/>
          </g>
          <g>
            <path class="cls-3" d="M123.75,99.593l10,5.773V106.81l-10-5.7739Z"/>
            <path class="cls-4" d="M135,104.644v1.444l-1.25.7219V105.366Z"/>
            <path class="cls-1" d="M125,98.871l-1.25.722,10,5.773,1.25-.722Z"/>
          </g>
          <g>
            <path class="cls-3" d="M133.75,93.819l10,5.774v1.443l-10-5.7731Z"/>
            <path class="cls-4" d="M145,98.871v1.443l-1.25.722V99.593Z"/>
            <path class="cls-1" d="M135,93.098l-1.25.721,10,5.774,1.25-.722Z"/>
          </g>
          <g>
            <path class="cls-3" d="M143.75,88.046l10,5.773v1.4439l-10-5.7739Z"/>
            <path class="cls-4" d="M155,93.097v1.444l-1.25.7219V93.819Z"/>
            <path class="cls-1" d="M145,87.324l-1.25.722,10,5.773,1.25-.722Z"/>
          </g>
          <g>
            <path class="cls-3" d="M153.75,82.272l10,5.774v1.443l-10-5.7731Z"/>
            <path class="cls-4" d="M165,87.324v1.443l-1.25.722V88.046Z"/>
            <path class="cls-1" d="M155,81.55l-1.25.7221,10,5.774,1.25-.722Z"/>
          </g>
          <g>
            <path class="cls-3" d="M163.75,76.499l10,5.773v1.4439l-10-5.7739Z"/>
            <path class="cls-4" d="M175,81.55V82.994l-1.25.7219V82.272Z"/>
            <path class="cls-1" d="M165,75.777l-1.25.722,10,5.773L175,81.55Z"/>
          </g>
          <g>
            <path class="cls-3" d="M173.75,70.725l10,5.774v1.443l-10-5.7731Z"/>
            <path class="cls-4" d="M185,75.777V77.22l-1.25.722V76.499Z"/>
            <path class="cls-1" d="M175,70.0029l-1.25.7221,10,5.774,1.25-.722Z"/>
          </g>
          <g>
            <path class="cls-3" d="M183.75,64.952l10,5.773v1.4439l-10-5.7739Z"/>
            <path class="cls-4" d="M195,70.0029V71.447l-1.25.7219V70.725Z"/>
            <path class="cls-1" d="M185,64.23l-1.25.722,10,5.773,1.25-.7221Z"/>
          </g>
          <g>
            <path class="cls-3" d="M193.75,59.178l10,5.774v1.443l-10-5.774Z"/>
            <path class="cls-4" d="M205,64.23v1.443l-1.25.722V64.952Z"/>
            <path class="cls-1" d="M195,58.4559l-1.25.7221,10,5.774L205,64.23Z"/>
          </g>
        </g>
      </g>
      <g>
        <g class="cls-5">
          <path class="cls-6" d="M26.25,60.6219l80,46.188-1.25.7211L25,61.343Z"/>
        </g>
        <g class="cls-5">
          <path class="cls-6" d="M21.25,63.5079l80,46.1881-1.25.722L20,64.23Z"/>
        </g>
        <g class="cls-5">
          <path class="cls-6" d="M23.75,62.0649l80,46.188-1.25.7221-80-46.188Z"/>
        </g>
        <g class="cls-5">
          <path class="cls-6" d="M18.75,64.952l80,46.188-1.25.721-80-46.188Z"/>
        </g>
        <g>
          <g>
            <path class="cls-4" d="M86.25,93.819l-10,5.774v1.443l10-5.7731Z"/>
            <path class="cls-3" d="M75,98.871v1.443l1.25.722V99.593Z"/>
            <path class="cls-1" d="M85,93.098l1.25.721-10,5.774L75,98.871Z"/>
          </g>
          <g>
            <path class="cls-4" d="M106.25,105.366l-10,5.774v1.443l10-5.7731Z"/>
            <path class="cls-3" d="M95,110.418v1.443l1.25.722V111.14Z"/>
            <path class="cls-1" d="M105,104.645l1.25.721-10,5.774L95,110.418Z"/>
          </g>
          <g>
            <path class="cls-4" d="M76.25,88.046l-10,5.773v1.4439l10-5.7739Z"/>
            <path class="cls-3" d="M65,93.097v1.444l1.25.7219V93.819Z"/>
            <path class="cls-1" d="M75,87.324l1.25.722-10,5.773L65,93.097Z"/>
          </g>
          <g>
            <path class="cls-4" d="M96.25,99.593l-10,5.773v1.443l10-5.773Z"/>
            <path class="cls-3" d="M85,104.644v1.444l1.25.721v-1.443Z"/>
            <path class="cls-1" d="M95,98.871l1.25.722-10,5.773L85,104.644Z"/>
          </g>
          <g>
            <path class="cls-4" d="M66.25,82.272l-10,5.774v1.443l10-5.7731Z"/>
            <path class="cls-3" d="M55,87.324v1.443l1.25.722V88.046Z"/>
            <path class="cls-1" d="M65,81.55l1.25.7221-10,5.774L55,87.324Z"/>
          </g>
          <g>
            <path class="cls-4" d="M56.25,76.499l-10,5.773v1.443l10-5.773Z"/>
            <path class="cls-3" d="M45,81.55V82.994l1.25.721V82.272Z"/>
            <path class="cls-1" d="M55,75.777l1.25.722-10,5.773L45,81.55Z"/>
          </g>
          <g>
            <path class="cls-4" d="M46.25,70.725l-10,5.774v1.443l10-5.7731Z"/>
            <path class="cls-3" d="M35,75.777V77.22l1.25.722V76.499Z"/>
            <path class="cls-1" d="M45,70.0029l1.25.7221-10,5.774L35,75.777Z"/>
          </g>
          <g>
            <path class="cls-4" d="M36.25,64.952l-10,5.773v1.4439l10-5.7739Z"/>
            <path class="cls-3" d="M25,70.0029V71.447l1.25.7219V70.725Z"/>
            <path class="cls-1" d="M35,64.23l1.25.722-10,5.773L25,70.0029Z"/>
          </g>
          <g>
            <path class="cls-4" d="M26.25,59.178l-10,5.774v1.443l10-5.774Z"/>
            <path class="cls-3" d="M15,64.23v1.443l1.25.722V64.952Z"/>
            <path class="cls-1" d="M25,58.4559l1.25.7221-10,5.774L15,64.23Z"/>
          </g>
        </g>
      </g>
      <path class="cls-6" d="M110,3.608,20,55.57l90,51.9611L200,55.57Z"/>
      <path class="cls-7" d="M30,55.57,110,9.382,190,55.57l-80,46.188Z"/>
      <path class="cls-6" d="M110,12.2679,35,55.57,110,98.871,185,55.57Z"/>
      <path class="cls-8" d="M85,41.136h0c13.798-7.966,36.202-7.966,50,0h0c13.798,7.9659,13.798,20.901,0,28.8669h0c-13.798,7.9671-36.202,7.9671-50,0h0C71.202,62.037,71.202,49.1019,85,41.136Z"/>
      <g>
        <path class="cls-7" d="M85,52.683l5-2.887,30,17.3209-5,2.886Z"/>
        <path class="cls-7" d="M100,44.0229l5-2.8869,30,17.32-5,2.8871Z"/>
        <path class="cls-7" d="M100,58.4559l15-8.66,5,2.887-15,8.66Z"/>
      </g>
      <path class="cls-9" d="M167.5,54.126,170,55.57,160,61.343,157.5,59.9Z"/>
      <path class="cls-9" d="M60,49.796l2.5,1.444-10,5.7729L50,55.57Z"/>
      <g>
        <g class="cls-5">
          <path class="cls-6" d="M203.75,63.5079V49.075l-1.25.721V62.787Z"/>
        </g>
        <g class="cls-5">
          <path class="cls-6" d="M200,61.343l1.25.7219V50.5179L200,51.24Z"/>
        </g>
        <g class="cls-5">
          <path class="cls-6" d="M197.5,54.126l1.25.722V51.9609l-1.25.7221Z"/>
        </g>
        <g class="cls-5">
          <path class="cls-6" d="M197.5,59.9l1.25.7219V56.291l-1.25.7219Z"/>
        </g>
      </g>
    </g>
  </g>
</svg>
