<svg id="Layer_1" data-name="Layer 1" xmlns="http://www.w3.org/2000/svg" xmlns:xlink="http://www.w3.org/1999/xlink" viewBox="0 0 510 381.0511">
  <defs>
    <style>
      .cls-1 {
        fill: none;
      }

      .concrete-top {
        fill: #e8e8e8;
      }

      .exterior-R-prim {
        fill: #d05752;
      }

      .exterior-L-prim {
        fill: #73302e;
      }

      .window-R-prim {
        fill: #bd9664;
      }

      .cls-2 {
        clip-path: url(#clip-path);
      }

      .cls-3 {
        clip-path: url(#clip-path-2);
      }

      .cls-4 {
        clip-path: url(#clip-path-3);
      }

      .cls-5 {
        clip-path: url(#clip-path-4);
      }

      .exterior-R-dark {
        fill: #a64c49;
      }

      .top-dark {
        fill: #c67471;
      }

      .exterior-L-dark {
        fill: #512220;
      }

      .concrete-right {
        fill: #d1d1d1;
      }

      .concrete-left {
        fill: #a2a2a2;
      }

      .top-prim {
        fill: #dd8a87;
      }

      .cls-6 {
        fill: #4a4a4a;
      }

      .cls-7 {
        fill: #8e8e8e;
      }

      .cls-8 {
        fill: #b5b5b5;
      }

      .cls-9 {
        fill: #f7f7f7;
      }

      .cls-10 {
        fill: #0260ac;
      }
    </style>
    <clipPath id="clip-path">
      <path class="cls-1" d="M440,236.7166h0c0-9.56,5.6011-20.5544,12.5-24.5375h0c6.8989-3.9831,12.5.5442,12.5,10.1036h0v51.9586l-25,14.4339Z"/>
    </clipPath>
    <clipPath id="clip-path-2">
      <path class="cls-1" d="M405,256.9237h0c0-9.5593,5.6011-20.5543,12.5-24.5373h0c6.8989-3.9832,12.5.5441,12.5,10.1036h0v51.9586l-25,14.4338Z"/>
    </clipPath>
    <clipPath id="clip-path-3">
      <path class="cls-1" d="M370,277.131h0c0-9.5595,5.6011-20.5543,12.5-24.5374h0c6.8989-3.9831,12.5.5442,12.5,10.1037h0v51.9586L370,329.09Z"/>
    </clipPath>
    <clipPath id="clip-path-4">
      <path class="cls-1" d="M333,298.7816h0c0-9.5594,5.6011-20.5543,12.5-24.5373h0c6.8989-3.9832,12.5.5442,12.5,10.1035h0v51.9587L333,350.74Z"/>
    </clipPath>
  </defs>
  <title>Artboard 13</title>
  <g id="root">
    <g>
      <path id="Path" class="concrete-top" d="M350,375.2777l160-92.3761L160,80.829,0,173.2051Z"/>
      <path id="Path-2" data-name="Path" class="exterior-R-prim" d="M320,277.1282l160-92.3761v80.8291l-160,92.376Z"/>
      <path id="Path-3" data-name="Path" class="exterior-L-prim" d="M0,92.376,320,277.1282v80.829L0,173.2051Z"/>
      <path id="Mask" class="window-R-prim" d="M440,236.7166h0c0-9.56,5.6011-20.5544,12.5-24.5375h0c6.8989-3.9831,12.5.5442,12.5,10.1036h0v51.9586l-25,14.4339Z"/>
      <g class="cls-2">
        <g>
          <path id="Path-4" data-name="Path" class="exterior-L-prim" d="M465,274.2415l-8-4.33V220.8364c.2667-5.2668-2.5333-10.0168-8-7.2169l16-8.66Z"/>
          <path id="Path-5" data-name="Path" class="exterior-L-prim" d="M465,274.2415l-8-4.33V220.8364c.2667-5.2668-2.5333-10.0168-8-7.2169l16-8.66Z"/>
        </g>
      </g>
      <path id="Mask-2" data-name="Mask" class="window-R-prim" d="M405,256.9237h0c0-9.5593,5.6011-20.5543,12.5-24.5373h0c6.8989-3.9832,12.5.5441,12.5,10.1036h0v51.9586l-25,14.4338Z"/>
      <g class="cls-3">
        <path id="Path-6" data-name="Path" class="exterior-L-prim" d="M430,294.4486l-8-4.33V241.0437c.2667-5.2667-2.5333-10.0167-8-7.2169l16-8.66Z"/>
      </g>
      <path id="Mask-3" data-name="Mask" class="window-R-prim" d="M370,277.131h0c0-9.5595,5.6011-20.5543,12.5-24.5374h0c6.8989-3.9831,12.5.5442,12.5,10.1037h0v51.9586L370,329.09Z"/>
      <g class="cls-4">
        <path id="Path-7" data-name="Path" class="exterior-L-prim" d="M395,314.6559l-8-4.33V261.251c.2667-5.2669-2.5333-10.0169-8-7.2169l16-8.66Z"/>
      </g>
      <path id="Mask-4" data-name="Mask" class="window-R-prim" d="M333,298.7816h0c0-9.5594,5.6011-20.5543,12.5-24.5373h0c6.8989-3.9832,12.5.5442,12.5,10.1035h0v51.9587L333,350.74Z"/>
      <g class="cls-5">
        <path id="Path-8" data-name="Path" class="exterior-L-prim" d="M358,336.3065l-8-4.33V282.9016c.2667-5.2668-2.5333-10.0168-8-7.2169l16-8.66Z"/>
      </g>
      <path id="Path-9" data-name="Path" class="concrete-top" d="M440,291.5618l27.5-15.8771-10-5.7734L440,280.0148Z"/>
      <path id="Path-10" data-name="Path" class="concrete-top" d="M405,311.769l27.5-15.877-10-5.7735L405,300.2222Z"/>
      <path id="Path-11" data-name="Path" class="concrete-top" d="M370,331.9763l27.5-15.8771-10-5.7735L370,320.4293Z"/>
      <path id="Path-12" data-name="Path" class="concrete-top" d="M333,353.627,360.5,337.75l-10-5.7735L333,342.08Z"/>
      <path id="Path-13" data-name="Path" class="exterior-R-dark" d="M440,254.0342l20-11.5471v11.5471l-20,11.547Z"/>
      <path id="Path-14" data-name="Path" class="exterior-R-dark" d="M405,274.2413l20-11.547v11.547l-20,11.547Z"/>
      <path id="Path-15" data-name="Path" class="exterior-R-dark" d="M370,294.4485l20-11.547v11.547l-20,11.5471Z"/>
      <path id="Path-16" data-name="Path" class="exterior-R-dark" d="M333,316.0992l20-11.547v11.547l-20,11.547Z"/>
      <path id="Path-17" data-name="Path" class="top-dark" d="M440,254.0342v-2.8869l17.5-10.1036,2.5,1.4434Z"/>
      <path id="Path-18" data-name="Path" class="top-dark" d="M405,274.2413v-2.8868l17.5-10.1035,2.5,1.4433Z"/>
      <path id="Path-19" data-name="Path" class="top-dark" d="M370,294.4486v-2.8868l17.5-10.1035,2.5,1.4433Z"/>
      <path id="Path-20" data-name="Path" class="top-dark" d="M333,316.0992v-2.8868l17.5-10.1036,2.5,1.4434Z"/>
      <path id="Path-21" data-name="Path" class="top-dark" d="M395,291.5619l-5-2.8867-15,8.66,15,8.66,40-23.094-15-8.66-10,5.7736v5.7734Z"/>
      <path id="Path-22" data-name="Path" class="exterior-L-dark" d="M375,297.3353l15,8.66v5.7736l-15-8.66Z"/>
      <path id="Path-23" data-name="Path" class="exterior-R-dark" d="M430,282.9016v5.7736l-40,23.094v-5.7736Z"/>
      <path id="Path-24" data-name="Path" class="concrete-right" d="M350,375.2776l160-92.376v5.7734L350,381.0511Z"/>
      <path id="Path-25" data-name="Path" class="concrete-left" d="M350,375.2776,0,173.2051v5.7734L350,381.0511Z"/>
      <path id="anchor_0_277.128_480" class="top-prim" d="M0,92.376,160,0,480,184.7521l-160,92.376Z"/>
    </g>
    <g id="Group">
      <g id="Group-2" data-name="Group">
        <path id="Path-26" data-name="Path" class="concrete-right" d="M242.5,248.1488l-2.5,1.443v49.075l65,37.5279,2.5-1.4439v-49.075Z"/>
        <path id="Path-27" data-name="Path" class="cls-6" d="M305,327.5338l-65-37.527v8.66l65,37.5279Z"/>
        <path id="Path-28" data-name="Path" class="cls-7" d="M305,330.4208l2.5-1.443v5.773l-2.5,1.4439Z"/>
        <path id="Path-29" data-name="Path" class="cls-6" d="M305,287.12v8.66l-65-37.528v-8.66Z"/>
        <path id="Path-30" data-name="Path" class="cls-8" d="M242.5,248.1488l-2.5,1.443,65,37.528,2.5-1.444Z"/>
        <path id="Path-31" data-name="Path" class="cls-9" d="M305,291.45l-65-37.5281v38.971l65,37.5281Z"/>
        <path id="Path-32" data-name="Path" class="cls-7" d="M305,291.45l2.5-1.443v-4.331L305,287.12Z"/>
        <g id="Group-3" data-name="Group">
          <path id="Path-33" data-name="Path" class="cls-10" d="M298.076,294.9657a.2372.2372,0,0,0-.144-.2479l-.108-.06v.9149l.108.0481c.111.05.144.023.144-.104Z"/>
          <path id="Path-34" data-name="Path" class="cls-10" d="M298.069,294.2188v-.5a.2814.2814,0,0,0-.144-.27l-.101-.072v.862c.034.0209.068.041.101.062C298.036,294.3678,298.069,294.3457,298.069,294.2188Z"/>
          <path id="Path-35" data-name="Path" class="cls-10" d="M300.665,295.6388c-.0431.316-.059.363-.102.696.107.054.12.055.227.11-.0431-.3559-.06-.4179-.102-.79Z"/>
          <path id="Compound_Path" data-name="Compound Path" class="cls-10" d="M299.745,292.7318a2.9441,2.9441,0,0,0-1.2629-.423,1.3632,1.3632,0,0,0-.9821.286l.569.439a1.149,1.149,0,0,1,.568,1.069v.388c0,.1859-.045.2849-.215.268v.033a.7985.7985,0,0,1,.238.57V295.8c0,.452-.098.589-.584.405l-.442-.1691a6.3883,6.3883,0,0,0,1.111,1.4391,4.8394,4.8394,0,0,0,1.358.9489,2.3028,2.3028,0,0,0,1.27.224,1.2137,1.2137,0,0,0,.868-.5559,1.9817,1.9817,0,0,0,.253-1.198,4.3837,4.3837,0,0,0-.425-1.546,6.36,6.36,0,0,0-.998-1.5121,5.47,5.47,0,0,0-1.326-1.1039Zm-.026,2.152v1.9519c-.195-.0749-.389-.149-.584-.224V294.47c-.129-.091-.2569-.182-.386-.2721v-.6389l1.356,1.044v.554C299.976,295.0658,299.848,294.9748,299.719,294.8838Zm1.202,2.388c-.015-.1211-.03-.16-.045-.284l-.3989-.179c-.0151.1179-.03.155-.0451.275l-.412-.158.398-2.044.5269.403.3652,2.136Z"/>
        </g>
        <path id="Compound_Path-2" data-name="Compound Path" class="cls-10" d="M249.329,284.5738l-4.996-2.885c-.103-.0591-.171-.03-.171.072v1.0329a.3267.3267,0,0,0,.171.2691l1.725.9969v6.4041a.3287.3287,0,0,0,.171.268l1.215.702c.102.059.17.03.17-.0721v-6.404l1.715.99c.102.0591.17.03.17-.0719v-1.034A.3275.3275,0,0,0,249.329,284.5738Zm4.053,4.8609a2.4809,2.4809,0,0,0-.7489-.6939c-.67-.3871-1.1241-.274-1.42.089l-.045-.64a.3452.3452,0,0,0-.17-.268l-1.102-.636c-.1021-.0589-.17-.03-.17.0721v5.223a.3289.3289,0,0,0,.17.269l1.158.6679c.103.0591.171.031.171-.0719v-2.952c0-.681.454-.941,1.1581-.535a2.71,2.71,0,0,1,.4659.349c.113.099.204.1289.249.03l.341-.6431C253.473,289.6347,253.473,289.5548,253.382,289.4347Zm5.802,3.213-1.044-.6029c-.102-.059-.159-.023-.171.0719l-.0339.5031a4.88,4.88,0,0,0-1.6911-1.794c-1.556-.8991-2.691-.26-2.691,1.3639a5.6346,5.6346,0,0,0,2.691,4.4721,1.6158,1.6158,0,0,0,1.68.175l.045.503a.3484.3484,0,0,0,.171.2689l1.044.6031c.103.059.171.03.171-.072v-5.223A.3282.3282,0,0,0,259.184,292.6477Zm-2.759,2.7561a2.9685,2.9685,0,0,1-1.43-2.393c0-.885.6009-1.197,1.43-.718a3.0094,3.0094,0,0,1,1.42,2.364C257.845,295.4967,257.243,295.8758,256.425,295.4038Zm7.21-.311c-.806-.465-1.396-.363-1.76.017v-.0111l-.045-.753a.3435.3435,0,0,0-.17-.268l-1.113-.643c-.1021-.0589-.17-.03-.17.0721v5.223a.329.329,0,0,0,.17.269l1.158.669c.102.059.17.03.17-.0721v-3.044c0-.2609.387-.867,1.2271-.3819a2.0651,2.0651,0,0,1,1.0439,1.841v2.896a.3287.3287,0,0,0,.171.268l1.158.669c.102.059.17.03.17-.072v-3.1681A4.16,4.16,0,0,0,263.635,295.0928Zm3.804,1.265c.4539.263.818.098.818-.357a1.7055,1.7055,0,0,0-.818-1.3c-.465-.2691-.829-.104-.829.35A1.7116,1.7116,0,0,0,267.439,296.3578Zm-.7491.794v5.2229a.33.33,0,0,0,.17.2691l1.1579.6679c.1031.0591.1711.0311.1711-.0719v-5.223a.3263.3263,0,0,0-.1711-.268l-1.1579-.669C266.7581,297.0208,266.69,297.05,266.69,297.1518Zm3.8951,3.6339c0-.2839.2609-.3259.613-.1229a3.9711,3.9711,0,0,1,1.09,1.0609c.102.138.181.2071.25.1551l.431-.318c.057-.036.079-.1131.011-.232a5.4571,5.4571,0,0,0-1.907-1.942c-.999-.5771-1.931-.49-1.931.578,0,1.873,2.692,3.086,2.692,3.9719,0,.352-.3519.2621-.716.0521a5.72,5.72,0,0,1-1.385-1.31c-.102-.139-.182-.207-.25-.1561l-.443.3691c-.045.042-.068.1079,0,.227a6.2061,6.2061,0,0,0,2.1239,2.1569c1.0221.59,2.1231.6011,2.1231-.477C273.287,302.7547,270.585,301.6938,270.585,300.7857Zm6.301,2.0831-.794-.459v-1.533a.33.33,0,0,0-.171-.269l-1.1581-.6681c-.1019-.0589-.17-.0309-.17.0711v1.5329l-.795-.4589c-.102-.0591-.17-.03-.17.072v.886a.3287.3287,0,0,0,.17.2689l.795.4591v4.167a.3276.3276,0,0,0,.17.268l1.1581.6689c.1019.0591.171.03.171-.0719v-4.167l.794.459c.103.059.171.03.171-.0721v-.8859A.3264.3264,0,0,0,276.886,302.8688Zm1.692,6.6879c.454.2621.818.1081.818-.3569a1.69,1.69,0,0,0-.818-1.29c-.465-.268-.829-.115-.829.339A1.6953,1.6953,0,0,0,278.578,309.5567ZM249.93,283.8078l-1.8051-3.778c1.09.254,1.6689-.3091,1.6689-1.455a5.2038,5.2038,0,0,0-2.8839-4.254l-2.35-1.357c-.1031-.059-.1711-.031-.1711.0719v7.607a.3279.3279,0,0,0,.1711.2691l1.2149.701c.102.0589.17.031.17-.072v-2.5881l.6581.38,1.715,3.6351a.4751.4751,0,0,0,.204.232l1.295.747C249.953,284.0257,250.01,283.9787,249.93,283.8078Zm-3.9852-8.671.9311.538a2.5114,2.5114,0,0,1,1.431,2.0409c0,.9311-.704.8081-1.431.3891l-.9311-.538Zm5.7,3.246c.454.262.817.097.817-.3571a1.7057,1.7057,0,0,0-.817-1.3009c-.466-.269-.829-.104-.829.35A1.71,1.71,0,0,0,251.645,278.3828Zm-.749.793V284.4a.3277.3277,0,0,0,.17.268l1.158.669c.102.059.17.03.17-.072v-5.223a.3292.3292,0,0,0-.17-.2691l-1.158-.669C250.964,279.0448,250.896,279.0738,250.896,279.1758Zm7.993,1.72-1.158-.668c-.102-.0591-.17-.031-.17.072v3.156a4.7691,4.7691,0,0,0-1.613-1.6571c-1.5551-.8989-2.691-.26-2.691,1.3641a5.6367,5.6367,0,0,0,2.691,4.4719,1.6168,1.6168,0,0,0,1.681.175l.045.5031a.3463.3463,0,0,0,.171.269l1.044.6029c.102.0591.1711.03.1711-.0719v-7.948A.33.33,0,0,0,258.889,280.8958Zm-2.759,5.481a2.97,2.97,0,0,1-1.431-2.3931c0-.885.602-1.1969,1.431-.7179a3.0081,3.0081,0,0,1,1.419,2.3639C257.549,286.47,256.948,286.8487,256.13,286.3768Zm9.231,3.6489a5.4021,5.4021,0,0,0-2.6451-4.32c-1.6129-.931-2.8049-.337-2.8049,1.2989a5.83,5.83,0,0,0,2.93,4.6091,2.3753,2.3753,0,0,0,2.0661.342c.091-.039.091-.118.0119-.244l-.5-.776c-.08-.1261-.1479-.165-.25-.156a1.7882,1.7882,0,0,1-1.1809-.2961,3.0884,3.0884,0,0,1-1.589-2.0759l3.565,2.059C265.3051,290.6637,265.361,290.4688,265.361,290.0257Zm-2.6339-3.042a2.7009,2.7009,0,0,1,1.3059,1.969l-2.657-1.534C261.501,286.7068,262.046,286.5907,262.7271,286.9837Z"/>
      </g>
    </g>
  </g>
</svg>
