<svg id="Layer_1" data-name="Layer 1" xmlns="http://www.w3.org/2000/svg" xmlns:xlink="http://www.w3.org/1999/xlink" viewBox="0 0 480 1137.4083">
  <defs>
    <style>
      .cls-1 {
        fill: none;
      }

      .curtain-R-prim-light {
        fill: #59acd0;
      }

      .top-light {
        fill: #ffc8c6;
      }

      .window-R-prim {
        fill: #bd9664;
      }

      .top-prim {
        fill: #dd8a87;
      }

      .exterior-R-light {
        fill: #df5d58;
      }

      .exterior-L-light {
        fill: #8a3a37;
      }

      .curtain-R-prim-dark {
        fill: #3e809c;
      }

      .curtain-L-prim-light {
        fill: #438fb0;
      }

      .exterior-R-prim {
        fill: #d05752;
      }

      .exterior-L-prim {
        fill: #73302e;
      }

      .curtain-L-prim-dark {
        fill: #2f5565;
      }

      .exterior-R-dark {
        fill: #a64c49;
      }

      .exterior-L-dark {
        fill: #512220;
      }

      .cls-2 {
        fill: #a2a2a2;
      }

      .cls-3 {
        fill: #e8e8e8;
      }

      .cls-4 {
        fill: #d1d1d1;
      }

      .cls-5 {
        fill: #acacac;
      }

      .cls-6 {
        fill: #c6c6c6;
      }

      .cls-7 {
        fill: #4a4a4a;
      }

      .cls-8 {
        fill: #b5b5b5;
      }

      .cls-9 {
        fill: #6c6c6c;
      }

      .cls-10 {
        fill: #0177c0;
      }

      .cls-11 {
        clip-path: url(#clip-path);
      }

      .cls-12 {
        fill: #fff;
      }
    </style>
    <clipPath id="clip-path">
      <polygon class="cls-1" points="364.781 275.903 320.094 301.703 320.094 328.496 364.781 302.695 364.781 275.903"/>
    </clipPath>
  </defs>
  <title>Artboard 23</title>
  <g id="root">
    <path id="Path" class="curtain-R-prim-light" d="M320,265.5458l80-46.188V404.11l-80,46.188Z"/>
    <path id="Path-2" data-name="Path" class="top-light" d="M320,265.5246l80-46.1881-80-46.188Z"/>
    <path id="Path-3" data-name="Path" class="window-R-prim" d="M327.5,297.2507,345,287.1471v11.547l-17.5,10.1036Z"/>
    <path id="Path-4" data-name="Path" class="window-R-prim" d="M327.5,372.3062,345,362.2026V373.75l-17.5,10.1037Z"/>
    <path id="Path-5" data-name="Path" class="window-R-prim" d="M351.25,358.5942l17.5-10.1036v11.547l-17.5,10.1036Z"/>
    <path id="Path-6" data-name="Path" class="window-R-prim" d="M375,344.8821l17.5-10.1036v11.547L375,356.4292Z"/>
    <path id="Path-7" data-name="Path" class="window-R-prim" d="M327.5,334.7784,345,324.6749v11.547l-17.5,10.1036Z"/>
    <path id="Path-8" data-name="Path" class="window-R-prim" d="M351.25,321.0664l17.5-10.1036V322.51l-17.5,10.1036Z"/>
    <path id="Path-9" data-name="Path" class="window-R-prim" d="M327.5,316.0146,345,305.911v11.547l-17.5,10.1036Z"/>
    <path id="Path-10" data-name="Path" class="window-R-prim" d="M327.5,391.07,345,380.9665v11.547l-17.5,10.1037Z"/>
    <path id="Path-11" data-name="Path" class="window-R-prim" d="M351.25,377.3581l17.5-10.1036v11.547l-17.5,10.1036Z"/>
    <path id="Path-12" data-name="Path" class="window-R-prim" d="M375,363.646l17.5-10.1036v11.547L375,375.193Z"/>
    <path id="Path-13" data-name="Path" class="window-R-prim" d="M327.5,353.5423,345,343.4388v11.547l-17.5,10.1036Z"/>
    <path id="Path-14" data-name="Path" class="window-R-prim" d="M351.25,339.83l17.5-10.1036v11.547l-17.5,10.1036Z"/>
    <path id="Path-15" data-name="Path" class="window-R-prim" d="M375,326.1182l17.5-10.1036v11.547L375,337.6653Z"/>
    <path id="anchor_80_138.564_240" class="top-light" d="M160,138.5641,320,46.188,240,0,80,92.3761Z"/>
    <path id="Path-16" data-name="Path" class="top-prim" d="M320,253.9988l60-34.641-60-34.641-60,34.641Z"/>
    <path id="Path-17" data-name="Path" class="exterior-R-light" d="M260,219.3578l60-34.641V190.49l-55,31.7542Z"/>
    <path id="Path-18" data-name="Path" class="exterior-L-light" d="M380,219.3578l-5,2.8867L320,190.49v-5.7735Z"/>
    <path id="Path-19" data-name="Path" class="top-light" d="M400,692.8485,480,646.66l-80-46.188Z"/>
    <path id="Path-20" data-name="Path" class="top-light" d="M80,692.8485V600.4724L0,646.66Z"/>
    <path id="Path-21" data-name="Path" class="curtain-R-prim-light" d="M320,57.7631V542.702l-160,57.77V150.1392Z"/>
    <path id="Path-22" data-name="Path" class="top-prim" d="M400,681.3014l60-34.6409-60-34.6411L340,646.66Z"/>
    <path id="Path-23" data-name="Path" class="exterior-R-light" d="M340,646.66l60-34.641v5.7734l-55,31.7544Z"/>
    <path id="Path-24" data-name="Path" class="curtain-R-prim-dark" d="M160,346.3255,320,253.95v17.32L160,363.646Z"/>
    <path id="Path-25" data-name="Path" class="curtain-R-prim-dark" d="M160,450.2626l160-92.376v17.3205l-160,92.376Z"/>
    <path id="Path-26" data-name="Path" class="curtain-R-prim-dark" d="M160,484.953l160-92.376v17.32l-160,92.376Z"/>
    <path id="Path-27" data-name="Path" class="curtain-R-prim-dark" d="M160,519.594l160-92.376v17.32l-160,92.376Z"/>
    <path id="Path-28" data-name="Path" class="curtain-R-prim-dark" d="M160,554.235l160-92.376V479.18l-160,92.376Z"/>
    <path id="Path-29" data-name="Path" class="curtain-R-prim-dark" d="M160,588.9254,320,496.5v17.3205L160,606.2458Z"/>
    <path id="Path-30" data-name="Path" class="exterior-L-light" d="M460,646.6605l-5,2.8867-55-31.7544v-5.7734Z"/>
    <path id="Path-31" data-name="Path" class="top-prim" d="M80,681.3014l60-34.6409L80,612.0194,20,646.66Z"/>
    <path id="Path-32" data-name="Path" class="exterior-R-light" d="M20,646.66l60-34.641v5.7734L25,649.5472Z"/>
    <path id="Path-33" data-name="Path" class="curtain-R-prim-dark" d="M320,265.5739l80-46.2161v17.3206l-80,46.216Z"/>
    <path id="Path-34" data-name="Path" class="exterior-L-light" d="M140,646.6605l-5,2.8867L80,617.7928v-5.7734Z"/>
    <path id="Path-35" data-name="Path" class="curtain-R-prim-dark" d="M320,300.243l80-46.2161v17.3206l-80,46.216Z"/>
    <path id="Path-36" data-name="Path" class="curtain-R-prim-dark" d="M320,334.8559l80-46.216v17.32l-80,46.216Z"/>
    <path id="Path-37" data-name="Path" class="curtain-R-prim-light" d="M240,1137.4081,480,998.8442V646.6605l-80,46.188V311.762L320,357.95V600.4724l-80,46.1881Z"/>
    <path id="Path-38" data-name="Path" class="curtain-L-prim-light" d="M0,998.8442l240,138.5641V646.6605l-80-11.5824V150.1392l-80-46.188V692.8485L0,646.6605Z"/>
    <path id="Path-39" data-name="Path" class="top-light" d="M320,357.95l80-46.1881-80-46.188-80,46.188Z"/>
    <path id="Path-40" data-name="Path" class="curtain-L-prim-light" d="M240,311.762l80,46.188V635.0781L240,588.89Z"/>
    <path id="Path-41" data-name="Path" class="exterior-R-prim" d="M160,138.5922,320,46.2161v69.2821l-160,92.376Z"/>
    <path id="Path-42" data-name="Path" class="exterior-R-prim" d="M240,669.7544l160-92.376V646.66l-160,92.376Z"/>
    <path id="Path-43" data-name="Path" class="exterior-L-prim" d="M80,92.4042l80,46.188v69.282l-80-46.188Z"/>
    <path id="Path-44" data-name="Path" class="exterior-L-prim" d="M80,577.3784l160,92.376v69.282L80,646.66Z"/>
    <path id="Path-45" data-name="Path" class="exterior-R-prim" d="M320,381.044l80-46.188v69.282l-80,46.188Z"/>
    <path id="Path-46" data-name="Path" class="exterior-R-prim" d="M160,381.044l80-46.188v69.282l-80,46.188Z"/>
    <path id="Path-47" data-name="Path" class="exterior-L-prim" d="M240,334.856v69.282l80,46.188V381.044Z"/>
    <path id="Path-48" data-name="Path" class="exterior-L-prim" d="M80,334.856v69.282l80,46.188V381.044Z"/>
    <path id="Path-49" data-name="Path" class="exterior-R-prim" d="M480,773.6774v69.282L240,981.5234V912.2413Z"/>
    <path id="Path-50" data-name="Path" class="exterior-L-prim" d="M240,912.2415,0,773.6775V848.733L240,987.297Z"/>
    <path id="Path-51" data-name="Path" class="curtain-R-prim-dark" d="M160,207.8389l160-92.3761v17.3206l-160,92.376Z"/>
    <path id="Path-52" data-name="Path" class="curtain-R-prim-dark" d="M160,242.4518l160-92.376v17.3205l-160,92.376Z"/>
    <path id="Path-53" data-name="Path" class="curtain-R-prim-dark" d="M160,277.0929l160-92.3761v17.3206l-160,92.376Z"/>
    <path id="Path-54" data-name="Path" class="curtain-R-prim-dark" d="M160,311.7338l160-92.376v17.3205l-160,92.376Z"/>
    <path id="Path-55" data-name="Path" class="curtain-L-prim-dark" d="M160,207.8389,80,161.6508v17.3206l80,46.188Z"/>
    <path id="Path-56" data-name="Path" class="curtain-L-prim-dark" d="M160,242.4519,80,196.2638v17.3206l80,46.188Z"/>
    <path id="Path-57" data-name="Path" class="curtain-L-prim-dark" d="M160,277.0929,80,230.9048v17.3206l80,46.188Z"/>
    <path id="Path-58" data-name="Path" class="curtain-L-prim-dark" d="M160,311.7338l-80-46.188v17.3206l80,46.1879Z"/>
    <path id="Path-59" data-name="Path" class="curtain-L-prim-dark" d="M160,346.3255l-80-46.188V317.458l80,46.188Z"/>
    <path id="Path-60" data-name="Path" class="curtain-L-prim-dark" d="M160,450.2626l-80-46.188v17.3205l80,46.188Z"/>
    <path id="Path-61" data-name="Path" class="curtain-L-prim-dark" d="M160,484.953,80,438.765v17.3205l80,46.188Z"/>
    <path id="Path-62" data-name="Path" class="curtain-L-prim-dark" d="M160,519.594,80,473.406v17.32l80,46.188Z"/>
    <path id="Path-63" data-name="Path" class="curtain-L-prim-dark" d="M160,554.235,80,508.047v17.3206l80,46.1879Z"/>
    <path id="Path-64" data-name="Path" class="curtain-L-prim-dark" d="M160,588.8761,80,542.688v17.3206l80,46.1879Z"/>
    <path id="Path-65" data-name="Path" class="top-prim" d="M320,346.3748l60-34.6409-60-34.6411-60,34.641Z"/>
    <path id="Path-66" data-name="Path" class="exterior-R-light" d="M260,311.7338l60-34.641v5.7735l-55,31.7543Z"/>
    <path id="Path-67" data-name="Path" class="exterior-L-light" d="M380,311.7338l-5,2.8868-55-31.7543v-5.7735Z"/>
    <path id="Path-68" data-name="Path" class="exterior-R-dark" d="M167.5,194.8557,185,184.7521V132.7905l-17.5,10.1037Z"/>
    <path id="Path-69" data-name="Path" class="exterior-R-dark" d="M191.25,181.1717l17.5-10.1036V119.1066L191.25,129.21Z"/>
    <path id="Path-70" data-name="Path" class="exterior-R-dark" d="M215,167.7971l17.5-10.1037V105.7319L215,115.8356Z"/>
    <path id="Path-71" data-name="Path" class="exterior-R-dark" d="M247.5,725.9547,265,715.8511V663.89l-17.5,10.1037Z"/>
    <path id="Path-72" data-name="Path" class="exterior-R-dark" d="M271.25,712.2706l17.5-10.1035V650.2056l-17.5,10.1036Z"/>
    <path id="Path-73" data-name="Path" class="exterior-R-dark" d="M295,698.8961l17.5-10.1037V636.8309L295,646.9344Z"/>
    <path id="Path-74" data-name="Path" class="exterior-R-dark" d="M247.5,968.4418,265,958.3381V906.3766L247.5,916.48Z"/>
    <path id="Path-75" data-name="Path" class="exterior-R-dark" d="M271.25,954.7578l17.5-10.1036V892.6926l-17.5,10.1037Z"/>
    <path id="Path-76" data-name="Path" class="exterior-R-dark" d="M295,941.3831,312.5,931.28V879.318L295,889.4216Z"/>
    <path id="Path-77" data-name="Path" class="exterior-L-dark" d="M152.5,194.8557,135,184.7521V132.7905l17.5,10.1037Z"/>
    <path id="Path-78" data-name="Path" class="exterior-L-dark" d="M128.75,181.1717l-17.5-10.1036V119.1066l17.5,10.1036Z"/>
    <path id="Path-79" data-name="Path" class="exterior-L-dark" d="M105,167.7971,87.5,157.6934V105.7319L105,115.8356Z"/>
    <path id="Path-80" data-name="Path" class="exterior-R-dark" d="M247.5,148.4849,265,138.3813V86.42L247.5,96.5234Z"/>
    <path id="Path-81" data-name="Path" class="exterior-R-dark" d="M271.25,134.8009l17.5-10.1036V72.7358l-17.5,10.1036Z"/>
    <path id="Path-82" data-name="Path" class="exterior-R-dark" d="M295,121.4263l17.5-10.1037V59.3611L295,69.4648Z"/>
    <path id="Path-83" data-name="Path" class="exterior-R-dark" d="M327.5,679.5839,345,669.48V617.5187l-17.5,10.1037Z"/>
    <path id="Path-84" data-name="Path" class="exterior-R-dark" d="M351.25,665.9l17.5-10.1036V603.8348l-17.5,10.1036Z"/>
    <path id="Path-85" data-name="Path" class="exterior-R-dark" d="M375,652.5253l17.5-10.1037V590.46L375,600.5637Z"/>
    <path id="Path-86" data-name="Path" class="exterior-R-dark" d="M327.5,922.071,345,911.9673V860.0057l-17.5,10.1037Z"/>
    <path id="Path-87" data-name="Path" class="exterior-R-dark" d="M351.25,908.387l17.5-10.1036V846.3218l-17.5,10.1037Z"/>
    <path id="Path-88" data-name="Path" class="exterior-R-dark" d="M375,895.0123l17.5-10.1036V832.9471L375,843.0508Z"/>
    <path id="Path-89" data-name="Path" class="exterior-R-dark" d="M407.5,875.7634,425,865.66V813.6982l-17.5,10.1037Z"/>
    <path id="Path-90" data-name="Path" class="exterior-R-dark" d="M431.25,862.08l17.5-10.1037V800.0143l-17.5,10.1037Z"/>
    <path id="Path-91" data-name="Path" class="exterior-R-dark" d="M455,848.7048l17.5-10.1036V786.64L455,796.7433Z"/>
    <path id="Path-92" data-name="Path" class="exterior-R-dark" d="M327.5,437.1529,345,427.0492V375.0877l-17.5,10.1036Z"/>
    <path id="Path-93" data-name="Path" class="exterior-R-dark" d="M351.25,423.4689l17.5-10.1036V361.4037l-17.5,10.1037Z"/>
    <path id="Path-94" data-name="Path" class="exterior-R-dark" d="M375,410.0942l17.5-10.1036V348.0291L375,358.1327Z"/>
    <path id="Path-95" data-name="Path" class="exterior-R-dark" d="M167.5,437.1529,185,427.0492V375.0877l-17.5,10.1036Z"/>
    <path id="Path-96" data-name="Path" class="exterior-R-dark" d="M191.25,423.4689l17.5-10.1036V361.4037l-17.5,10.1037Z"/>
    <path id="Path-97" data-name="Path" class="exterior-R-dark" d="M215,410.0942l17.5-10.1036V348.0291L215,358.1327Z"/>
    <path id="Path-98" data-name="Path" class="exterior-L-dark" d="M152.5,437.1529,135,427.0492V375.0877l17.5,10.1036Z"/>
    <path id="Path-99" data-name="Path" class="exterior-L-dark" d="M128.75,423.4689l-17.5-10.1036V361.4037l17.5,10.1037Z"/>
    <path id="Path-100" data-name="Path" class="exterior-L-dark" d="M105,410.0942,87.5,399.9906V348.0291L105,358.1327Z"/>
    <path id="Path-101" data-name="Path" class="exterior-L-dark" d="M152.5,679.6472,135,669.5435V617.582l17.5,10.1035Z"/>
    <path id="Path-102" data-name="Path" class="exterior-L-dark" d="M128.75,665.9631,111.25,655.86V603.8979l17.5,10.1038Z"/>
    <path id="Path-103" data-name="Path" class="exterior-L-dark" d="M105,652.5885,87.5,642.4849V590.5234L105,600.627Z"/>
    <path id="Path-104" data-name="Path" class="exterior-L-dark" d="M152.5,922.1343,135,912.0306V860.0692l17.5,10.1035Z"/>
    <path id="Path-105" data-name="Path" class="exterior-L-dark" d="M128.75,908.45l-17.5-10.1037V846.3851l17.5,10.1037Z"/>
    <path id="Path-106" data-name="Path" class="exterior-L-dark" d="M105,895.0757,87.5,884.972V833.0106L105,843.1141Z"/>
    <path id="Path-107" data-name="Path" class="exterior-L-dark" d="M233,725.9547l-17.5-10.1036V663.89L233,673.9932Z"/>
    <path id="Path-108" data-name="Path" class="exterior-L-dark" d="M209.25,712.2706l-17.5-10.1035V650.2056l17.5,10.1036Z"/>
    <path id="Path-109" data-name="Path" class="exterior-L-dark" d="M185.5,698.8961,168,688.7924V636.8309l17.5,10.1035Z"/>
    <path id="Path-110" data-name="Path" class="exterior-L-dark" d="M233,968.4419l-17.5-10.1038V906.3767L233,916.48Z"/>
    <path id="Path-111" data-name="Path" class="exterior-L-dark" d="M209.25,954.7579l-17.5-10.1036V892.6926l17.5,10.1038Z"/>
    <path id="Path-112" data-name="Path" class="exterior-L-dark" d="M185.5,941.3832,168,931.28V879.3181l17.5,10.1035Z"/>
    <path id="Path-113" data-name="Path" class="exterior-L-dark" d="M72.5,875.7635,55,865.66V813.6984L72.5,823.802Z"/>
    <path id="Path-114" data-name="Path" class="exterior-L-dark" d="M48.75,862.08,31.25,851.976V800.0144l17.5,10.1036Z"/>
    <path id="Path-115" data-name="Path" class="exterior-L-dark" d="M25,848.7048,7.5,838.6013V786.64L25,796.7434Z"/>
    <path id="Path-116" data-name="Path" class="exterior-L-dark" d="M312.5,437.1529,295,427.0492V375.0877l17.5,10.1036Z"/>
    <path id="Path-117" data-name="Path" class="exterior-L-dark" d="M288.75,423.4689l-17.5-10.1036V361.4037l17.5,10.1037Z"/>
    <path id="Path-118" data-name="Path" class="exterior-L-dark" d="M265,410.0942l-17.5-10.1036V348.0291L265,358.1327Z"/>
    <path id="Path-119" data-name="Path" class="curtain-R-prim-dark" d="M320,450.2379l80-46.1387V421.42l-80,46.1386Z"/>
    <path id="Path-120" data-name="Path" class="curtain-R-prim-dark" d="M320,484.953l80-46.1387v17.3206l-80,46.1386Z"/>
    <path id="Path-121" data-name="Path" class="curtain-R-prim-dark" d="M320,519.594l80-46.1387v17.3206l-80,46.1386Z"/>
    <path id="Path-122" data-name="Path" class="curtain-R-prim-dark" d="M320,554.235l80-46.1387v17.3206l-80,46.1386Z"/>
    <path id="Path-123" data-name="Path" class="curtain-R-prim-dark" d="M320,588.9254l80-46.1881v17.3206l-80,46.1879Z"/>
    <path id="Path-124" data-name="Path" class="curtain-L-prim-dark" d="M320,450.2626l-80-46.188v17.3205l80,46.188Z"/>
    <path id="Path-125" data-name="Path" class="curtain-L-prim-dark" d="M320,484.953l-80-46.188v17.3205l80,46.188Z"/>
    <path id="Path-126" data-name="Path" class="curtain-L-prim-dark" d="M320,519.594l-80-46.188v17.32l80,46.188Z"/>
    <path id="Path-127" data-name="Path" class="curtain-L-prim-dark" d="M320,554.235l-80-46.188v17.32l80,46.188Z"/>
    <path id="Path-128" data-name="Path" class="curtain-L-prim-dark" d="M320,588.876l-80-46.188v17.3205l80,46.188Z"/>
    <path id="Path-129" data-name="Path" class="curtain-R-prim-dark" d="M240,739.0365l160-92.376V663.981L240,756.3569Z"/>
    <path id="Path-130" data-name="Path" class="curtain-R-prim-dark" d="M240,773.7056,400,681.33v17.32l-160,92.376Z"/>
    <path id="Path-131" data-name="Path" class="curtain-R-prim-dark" d="M240,808.29l240-138.564v17.3205L240,825.6108Z"/>
    <path id="Path-132" data-name="Path" class="curtain-R-prim-dark" d="M240,842.9314l240-138.564v17.3205L240,860.2518Z"/>
    <path id="Path-133" data-name="Path" class="curtain-R-prim-dark" d="M240,877.5724l240-138.564v17.32L240,894.8929Z"/>
    <path id="Path-134" data-name="Path" class="curtain-R-prim-dark" d="M240,981.4955,480,842.9314v17.32L240,998.816Z"/>
    <path id="Path-135" data-name="Path" class="curtain-R-prim-dark" d="M240,1050.7775,480,912.2134v17.3205L240,1068.098Z"/>
    <path id="Path-136" data-name="Path" class="curtain-R-prim-dark" d="M240,1085.4185l240-138.564v17.32L240,1102.739Z"/>
    <path id="Path-137" data-name="Path" class="curtain-R-prim-dark" d="M240,1120.0876l240-138.564v17.3205l-240,138.564Z"/>
    <path id="Path-138" data-name="Path" class="curtain-R-prim-dark" d="M240,1016.1646,480,877.6005V894.921L240,1033.4851Z"/>
    <path id="Path-139" data-name="Path" class="curtain-L-prim-dark" d="M240,739.0365,80,646.6323v17.3206l160,92.404Z"/>
    <path id="Path-140" data-name="Path" class="curtain-L-prim-dark" d="M240,773.7056,80,681.3014v17.3205l160,92.4042Z"/>
    <path id="Path-141" data-name="Path" class="curtain-L-prim-dark" d="M240,808.29,0,669.7263v17.3206L240,825.6108Z"/>
    <path id="Path-142" data-name="Path" class="curtain-L-prim-dark" d="M240,842.9315,0,704.3674v17.3205L240,860.252Z"/>
    <path id="Path-143" data-name="Path" class="curtain-L-prim-dark" d="M240,877.5725,0,739.0084v17.32l240,138.564Z"/>
    <path id="Path-144" data-name="Path" class="curtain-L-prim-dark" d="M240,981.4956,0,842.9315v17.32L240,998.816Z"/>
    <path id="Path-145" data-name="Path" class="curtain-L-prim-dark" d="M240,1050.7776,0,912.2135v17.3206l240,138.564Z"/>
    <path id="Path-146" data-name="Path" class="curtain-L-prim-dark" d="M240,1085.4186,0,946.8545v17.32l240,138.5641Z"/>
    <path id="Path-147" data-name="Path" class="curtain-L-prim-dark" d="M240,1120.0876,0,981.5236v17.3206l240,138.564Z"/>
    <path id="Path-148" data-name="Path" class="curtain-L-prim-dark" d="M240,1016.1647,0,877.6006v17.3205l240,138.5641Z"/>
    <path id="Path-149" data-name="Path" class="exterior-R-light" d="M320,357.9219l80-46.188v23.094l-80,46.188Z"/>
    <path id="Path-150" data-name="Path" class="exterior-R-light" d="M400,692.7852l80-46.1882v23.094l-80,46.1882Z"/>
    <path id="Path-151" data-name="Path" class="exterior-L-light" d="M240,334.8279l80,46.188v-23.094l-80-46.188Z"/>
    <path id="Path-152" data-name="Path" class="exterior-L-light" d="M0,669.7263l80,46.1881V692.82L0,646.6323Z"/>
    <path id="Path-153" data-name="Path" class="top-light" d="M240,646.6324l80-46.1882-80-46.1879-80,46.1879Z"/>
    <path id="Path-154" data-name="Path" class="top-prim" d="M240,635.0571l60-34.641-60-34.6409-60,34.6409Z"/>
    <path id="Path-155" data-name="Path" class="exterior-R-light" d="M180,600.4161l60-34.6409v5.7735l-55,31.7542Z"/>
    <path id="Path-156" data-name="Path" class="exterior-L-light" d="M300,600.4161l-5,2.8868-55-31.7542v-5.7735Z"/>
    <path id="Path-157" data-name="Path" class="exterior-R-light" d="M240,646.6323l80-46.188v23.094l-80,46.188Z"/>
    <path id="Path-158" data-name="Path" class="exterior-L-light" d="M160,623.5383l80,46.188V646.6324l-80-46.1881Z"/>
    <g id="Group">
      <path id="Path-159" data-name="Path" class="cls-2" d="M334.7031,282.3527v9.9234l1.7188.9921V285.33l3.4375,1.9849,1.7187-.9928Z"/>
      <path id="Path-160" data-name="Path" class="cls-3" d="M364.7813,272.9258l-6.875-3.97-1.7188.9928,6.875,3.9689Z"/>
      <path id="Path-161" data-name="Path" class="cls-2" d="M356.1875,269.9489v9.9227l1.7188.9927v-7.9385l3.4375,1.9848,1.7187-.9928Z"/>
      <path id="Path-162" data-name="Path" class="cls-4" d="M359.625,279.8716v-5.9538l-1.7187-.992v7.9385Z"/>
      <path id="Path-163" data-name="Path" class="cls-3" d="M343.2969,285.33l-6.875-3.97-1.7188.9927,6.875,3.969Z"/>
      <path id="Path-164" data-name="Path" class="cls-4" d="M338.1406,292.2761v-5.9544l-1.7187-.9921v7.9386Z"/>
      <path id="Path-165" data-name="Path" class="cls-3" d="M361.3438,270.9409l-46.4063,26.7926-1.7187-.9921v-1.9847l44.6875-25.8006Z"/>
      <path id="Path-166" data-name="Path" class="cls-4" d="M357.9063,272.9258v-1.9849l-19.7657,11.4118,1.7188.9921Z"/>
      <path id="Path-167" data-name="Path" class="cls-4" d="M336.4219,285.33v-1.9848l-19.7656,11.4119,1.7187.992Z"/>
      <path id="Path-168" data-name="Path" class="cls-5" d="M320.0938,341.396,311.5,336.4342l3.4375-1.9847,8.5938,4.9616Z"/>
      <path id="Path-169" data-name="Path" class="cls-5" d="M341.5781,328.9921l-8.5937-4.9617,3.4375-1.9848,8.5937,4.9617Z"/>
      <path id="Path-170" data-name="Path" class="cls-5" d="M363.0625,316.5875l-8.5937-4.9617,3.4375-1.9841,8.5937,4.9617Z"/>
      <path id="Path-171" data-name="Path" class="cls-6" d="M321.8125,339.4111l-1.7187.9921v-7.9386l1.7187-.992Z"/>
      <path id="Path-172" data-name="Path" class="cls-2" d="M318.375,339.4111l1.7188.9921v-8.9306l-1.7188-.9921Z"/>
      <path id="Path-173" data-name="Path" class="cls-6" d="M343.2969,327.0073l-1.7188.992v-7.9385l1.7188-.9921Z"/>
      <path id="Path-174" data-name="Path" class="cls-2" d="M339.8594,327.0073l1.7187.992v-8.9306l-1.7187-.9928Z"/>
      <path id="Path-175" data-name="Path" class="cls-6" d="M338.1406,324.03l-1.7187.992v-7.9385l1.7187-.9921Z"/>
      <path id="Path-176" data-name="Path" class="cls-2" d="M334.7031,324.03l1.7188.992v-8.9306l-1.7188-.9927Z"/>
      <path id="Path-177" data-name="Path" class="cls-6" d="M359.625,311.6258l-1.7187.9928V304.68l1.7187-.9927Z"/>
      <path id="Path-178" data-name="Path" class="cls-2" d="M356.1875,311.6258l1.7188.9928v-8.9313l-1.7188-.9921Z"/>
      <path id="Path-179" data-name="Path" class="cls-6" d="M364.7813,314.6034l-1.7188.9921v-7.9386l1.7188-.9921Z"/>
      <path id="Path-180" data-name="Path" class="cls-2" d="M361.3438,314.6034l1.7187.9921v-8.9307l-1.7187-.9927Z"/>
      <path id="Path-181" data-name="Path" class="cls-3" d="M321.8125,297.7335l-6.875-3.9689-1.7187.9921,6.875,3.97Z"/>
      <path id="Path-182" data-name="Path" class="cls-2" d="M313.2188,294.7567v41.6775l1.7187.9921V297.7335l3.4375,1.9848,1.7188-.992Z"/>
      <path id="Path-183" data-name="Path" class="cls-4" d="M316.6563,336.4342V298.7263l-1.7188-.9928v39.6928Z"/>
      <path id="Path-184" data-name="Path" class="cls-2" d="M320.0938,337.4263l-6.875-3.9689v-1.9848l6.875,3.9689Z"/>
      <path id="Path-185" data-name="Path" class="cls-3" d="M318.375,332.4646l-1.7187-.992-1.7188.992,3.4375,1.9849Z"/>
      <path id="Path-186" data-name="Path" class="cls-3" d="M318.375,324.5261V322.542l-1.7187.992v1.9848Z"/>
      <path id="Path-187" data-name="Path" class="cls-3" d="M318.375,330.4805v-1.9848l-1.7187.992v1.9849Z"/>
      <path id="Path-188" data-name="Path" class="cls-4" d="M318.375,326.5109l-1.7187-.9921,1.7187-.9927Z"/>
      <path id="Path-189" data-name="Path" class="cls-4" d="M318.375,332.4646l-1.7187-.992,1.7187-.9921Z"/>
      <path id="Path-190" data-name="Path" class="cls-2" d="M320.0938,329.4877l-6.875-3.9689v1.9842l6.875,3.97Z"/>
      <path id="Path-191" data-name="Path" class="cls-3" d="M316.6563,325.5188l-1.7188.9921,3.4375,1.9848v-1.9848Z"/>
      <path id="Path-192" data-name="Path" class="cls-2" d="M318.375,297.7335l1.7188.9928v33.7383l-1.7188-.992Z"/>
      <path id="Path-193" data-name="Path" class="cls-7" d="M320.9531,327.9993l-.8593.4964-1.7188-.9927v3.97l1.7188.992.8593-.4957Z"/>
      <path id="Path-194" data-name="Path" class="cls-7" d="M320.9531,298.23v2.9769l-.8593.4964-1.7188-.9928v-2.9769l1.7188.9928Z"/>
      <path id="Path-195" data-name="Path" class="cls-4" d="M321.8125,295.7487l-1.7187,2.9776v33.7383l44.6875-25.8v-33.739l-1.7188-.9928Z"/>
      <path id="Path-196" data-name="Path" class="cls-8" d="M318.375,297.7335l1.7188.9928,44.6875-25.8-1.7188-.9928Z"/>
      <path id="Path-197" data-name="Path" class="cls-9" d="M364.7813,300.71l-44.6875,25.8005v5.9537l44.6875-25.8Z"/>
      <path id="Path-198" data-name="Path" class="cls-9" d="M364.7813,272.9258V278.88L320.0938,304.68v-5.9537Z"/>
      <path id="Path-199" data-name="Path" class="cls-2" d="M336.4219,283.3448l3.4375,1.9848-1.7188.9921-1.7187-.9921Z"/>
      <path id="Path-200" data-name="Path" class="cls-2" d="M357.9063,270.9409l3.4375,1.9849-1.7188.992-1.7187-.992Z"/>
      <g id="Group-2" data-name="Group">
        <path id="Mask" class="cls-10" d="M364.7813,275.9027l-44.6875,25.8005v26.7925l44.6875-25.8Z"/>
        <g class="cls-11">
          <g id="Group-3" data-name="Group">
            <path id="Path-201" data-name="Path" class="cls-1" d="M335.59,302.4525l6.38-3.7228.0192-.2083-6.36,3.6719Z"/>
            <path id="Path-202" data-name="Path" class="cls-1" d="M335.4126,303.5394l1.7725-1.0237c.0982-.0563.1965-.1333.2949-.19.079-.0454.1381-.08.2165-.1251l4.0961-2.3843.0391-.2392-6.36,3.6719Z"/>
            <path id="Path-203" data-name="Path" class="cls-1" d="M334.8419,309.0078a.38.38,0,0,0,.1177.07l1.3592-.7845a3.7448,3.7448,0,0,0,.3149-.497c.0591-.1128.1182-.2455.1772-.3782l-2.1271,1.2279v.0591A.515.515,0,0,0,334.8419,309.0078Z"/>
            <path id="Path-204" data-name="Path" class="cls-1" d="M334.6447,308.0192c0,.0784-.02.1884-.02.2675l2.3239-1.3414a3.056,3.056,0,0,0,.1181-.541c.02-.11.02-.2283.0393-.3376l-2.3629,1.364c-.0193.11-.0393.2-.0593.3094C334.6647,307.8308,334.6647,307.9092,334.6447,308.0192Z"/>
            <path id="Path-205" data-name="Path" class="cls-1" d="M336.9093,305.2156c-.1381-.1568-.3939-.1272-.7486.077a2.5406,2.5406,0,0,0-.5906.4792,3.0721,3.0721,0,0,0-.4331.6242,4.2551,4.2551,0,0,0-.2558.561l2.2055-1.2732A.6137.6137,0,0,0,336.9093,305.2156Z"/>
            <path id="Path-206" data-name="Path" class="cls-1" d="M339.8627,302.7227l.5714-.33v-.02l-.5714.35Z"/>
            <path id="Path-207" data-name="Path" class="cls-1" d="M335.2552,304.5556c.0591-.0935.1183-.1863.1967-.2908l-.1575.0907Z"/>
            <path id="Path-208" data-name="Path" class="cls-1" d="M339.3506,302.0531c.04.0364.0984.0612.1382.0976l1.0827-.625.0393-.22-1.2795.739Z"/>
            <path id="Path-209" data-name="Path" class="cls-1" d="M349.4913,299.9005a4.3659,4.3659,0,0,0-.5907.5968,1.9277,1.9277,0,0,0-.2165.3616,1.3651,1.3651,0,0,0-.0982.352v.0784a.2474.2474,0,0,0,.0591.1828.2753.2753,0,0,0,.1574.086,1.1311,1.1311,0,0,0,.6105-.1946,3.0444,3.0444,0,0,0,.67-.5245,3.18,3.18,0,0,0,.4921-.6779,4.6232,4.6232,0,0,0,.3149-.7528,4.3592,4.3592,0,0,0,.1574-.8,8.4785,8.4785,0,0,1-.7878.7109A7.7889,7.7889,0,0,0,349.4913,299.9005Z"/>
            <path id="Path-210" data-name="Path" class="cls-12" d="M334.6838,311.1666a2.2716,2.2716,0,0,0,1.3592-.43,6.988,6.988,0,0,0,1.536-1.1825,8.418,8.418,0,0,0,.9253-1.1447l-4.3319,2.5011A.8807.8807,0,0,0,334.6838,311.1666Z"/>
            <path id="Path-211" data-name="Path" class="cls-12" d="M336.6337,307.7965a3.7777,3.7777,0,0,1-.3149.497l3.17-1.8308c0-.0193.0193-.05.0193-.07.079-.2228.1381-.4339.1972-.6456l-2.9142,1.683A2.4683,2.4683,0,0,1,336.6337,307.7965Z"/>
            <path id="Path-212" data-name="Path" class="cls-12" d="M331.5536,311.6547l-23.0972,13.5121-.0983.2544,25.696-14.8363,4.8242-2.785a6.6494,6.6494,0,0,0,.4132-.8291l-7.6986,4.4446Z"/>
            <path id="Path-213" data-name="Path" class="cls-12" d="M337.0867,306.3926q-.06.2712-.1183.541l2.8745-1.66c.04-.2.0982-.4311.1182-.6194.02-.09.02-.1691.0393-.2592l-2.8746,1.66C337.106,306.1842,337.106,306.2833,337.0867,306.3926Z"/>
            <path id="Path-214" data-name="Path" class="cls-12" d="M331.3564,312.95l-23.1955,13.5692-.0984.2537L333.8568,311.88v-.0983l.1182-.7576-2.56,1.4781Z"/>
            <path id="Path-215" data-name="Path" class="cls-12" d="M343.9391,303.8344a.2313.2313,0,0,1-.1383-.0777.5054.5054,0,0,1-.0392-.1939.6623.6623,0,0,1,.0193-.1883,1.8746,1.8746,0,0,1,.04-.2592l.4524-2.8607,1.3592-.7845.0193-.11-5.2175,3.0127v.02l-.5714.33v-.02l-7.5809,4.3766v.0591L310.13,320.0656l-.0984.2536,22.1719-12.8-.099.6676-22.4668,13.1484-.0984.2537,24.5149-14.1536.8464-.4888a4.9086,4.9086,0,0,1,.2563-.5617,3.6726,3.6726,0,0,1,.4332-.6242,2.3229,2.3229,0,0,1,.5905-.4785c.3741-.2159.6106-.2345.7481-.0777a1.0963,1.0963,0,0,1,.1972.4572l2.9143-1.6823c0-.0791.0193-.1692.0193-.2475a2.6745,2.6745,0,0,0-.0783-.7027l1.4176-.8188-.4723,2.9707c-.04.2585-.0791.5177-.0991.726-.0193.1884-.0391.3967-.0391.5741a1.31,1.31,0,0,0,.1182.5816.3886.3886,0,0,0,.374.1973,1.6967,1.6967,0,0,0,.69-.1808c.354-.1657.728-.3616,1.0828-.5665.2359-.1361.4723-.2729.748-.4517.2757-.1588.5713-.3492.8862-.5507l.3348-2.2213-.453.2613A1.0677,1.0677,0,0,1,343.9391,303.8344Z"/>
            <path id="Compound_Path" data-name="Compound Path" class="cls-12" d="M354.1779,293.5913a.579.579,0,0,0-.5121-.3148,2.3345,2.3345,0,0,0-1.0044.1856,12.6024,12.6024,0,0,0-1.6343.8057,15.14,15.14,0,0,0-1.89,1.2691,9.7532,9.7532,0,0,0-1.3393,1.2651,6.1122,6.1122,0,0,0-.8464,1.2567,4.7145,4.7145,0,0,0-.394,1.2712l2.8153-1.6259a1.3219,1.3219,0,0,1,.1974-.4875,1.9083,1.9083,0,0,1,.2949-.3871,1.9763,1.9763,0,0,1,.3349-.2921,3.2232,3.2232,0,0,1,.3348-.2132,1.5978,1.5978,0,0,1,.2563-.1278,1.6689,1.6689,0,0,1,.2951-.0915.49.49,0,0,1,.2365.0206.1816.1816,0,0,1,.0784.0729.2607.2607,0,0,1,.02.1265v.1183a1.1118,1.1118,0,0,1-.1575.4056,1.89,1.89,0,0,1-.3148.36,11.4312,11.4312,0,0,1-1.0244.8078c-.3931.286-.827.5754-1.2993.9274a11.74,11.74,0,0,0-1.3193,1.0966,7.2488,7.2488,0,0,0-1.1027,1.3454,4.1486,4.1486,0,0,0-.6105,1.6521,3.8175,3.8175,0,0,0-.0393.4558,1.2,1.2,0,0,0,.1775.6854.7419.7419,0,0,0,.4922.2668,1.5708,1.5708,0,0,0,.7287-.086,4.4477,4.4477,0,0,0,.8855-.4131,10.4445,10.4445,0,0,0,1.5358-1.0836,9.2014,9.2014,0,0,0,1.4183-1.606l.0193.7762,2.6387-1.5235.1773-1.1852.5906-3.7868c.0392-.22.0591-.4475.0984-.6476.02-.1884.04-.3967.04-.5741A2.9962,2.9962,0,0,0,354.1779,293.5913Zm-3.2883,5.797a3.5081,3.5081,0,0,1-.3149.7528,3.8023,3.8023,0,0,1-.4921.6786,3.02,3.02,0,0,1-.67.5239.9853.9853,0,0,1-.6105.1952.2084.2084,0,0,1-.1574-.0866.2467.2467,0,0,1-.0591-.1822v-.0591a1.3651,1.3651,0,0,1,.0982-.352,1.42,1.42,0,0,1,.2165-.3616,3.4923,3.4923,0,0,1,.5907-.5968c.2365-.1959.4729-.3912.7487-.6091a7.7251,7.7251,0,0,0,.7871-.7109A3.7853,3.7853,0,0,1,350.89,299.3883Z"/>
            <path id="Path-216" data-name="Path" class="cls-12" d="M334.96,309.078c-.0393-.0172-.0784-.053-.1177-.07a.515.515,0,0,1-.1581-.3025v-.0591l-2.9136,1.6823-.04.2393-22.88,13.3876-.0991.2537,25.6967-14.8355Z"/>
            <path id="Path-217" data-name="Path" class="cls-12" d="M334.6247,308.2867a1.2563,1.2563,0,0,1,.02-.2675,1.5309,1.5309,0,0,1,.0391-.2791c.02-.1093.04-.1994.0593-.3094l-2.7762,1.6026-.0791.4592-22.6442,13.2509-.0983.2537,24.9088-14.3811Z"/>
            <path id="Path-218" data-name="Path" class="cls-12" d="M345.7307,298.9208l.0983-.6469-5.2182,3.0126-.0393.2193-1.0827.625a.4911.4911,0,0,0-.1382-.0977l-.0392-.0164-3.8788,2.24c-.0591.0928-.1183.1863-.1974.2908l.04-.2-2.8359,1.637-.0393.2791-21.9745,12.8446-.0983.2537,2.9536-1.7057,28.2555-16.313Z"/>
            <path id="Path-219" data-name="Path" class="cls-12" d="M345.8881,297.8456l.02-.1692-1.3593.7845.0791-.4785-2.7962,1.6142-.0391.2393-4.0961,2.3842c-.0784.0461-.1375.08-.2165.1252a2.5181,2.5181,0,0,0-.2949.19l-1.7725,1.023.0393-.2592-2.8353,1.6376-.0393.2785-21.7579,12.68-.0984.2537,2.56-1.4781L344.0965,298.88Z"/>
            <path id="Path-220" data-name="Path" class="cls-12" d="M344.687,297.5547l.1183-.6593-2.8161,1.626-.0192.2083-6.38,3.7228.0391-.2592-2.8352,1.637-.0591.29-21.5215,12.5634-.099.2537,2.1664-1.2506,29.24-16.8816Z"/>
            <path id="Path-221" data-name="Path" class="cls-12" d="M344.8644,296.4678l.0784-.4592-2.7962,1.6142-.0191.0509-6.36,3.6919.0784-.5576-2.8352,1.637-.0984.5885-21.3056,12.4382-.0984.2544,1.7725-1.0237,31.21-18.0187Z"/>
          </g>
        </g>
      </g>
    </g>
  </g>
</svg>
