<svg id="Layer_1" data-name="Layer 1" xmlns="http://www.w3.org/2000/svg" xmlns:xlink="http://www.w3.org/1999/xlink" viewBox="0 0 420.1509 984.3821">
  <defs>
    <style>
      .cls-1 {
        fill: none;
      }

      .cls-2 {
        fill: #020202;
      }

      .cls-3 {
        fill: #2e2e2e;
      }

      .cls-4 {
        fill: #5d5d5d;
      }

      .cls-5 {
        fill: url(#linear-gradient);
      }

      .cls-6 {
        fill: #8b8b8b;
      }

      .cls-7 {
        fill: #b9b9b9;
      }

      .cls-8 {
        clip-path: url(#clip-path);
      }

      .cls-9 {
        fill: url(#linear-gradient-2);
      }

      .cls-10 {
        fill: url(#linear-gradient-3);
      }

      .cls-11 {
        clip-path: url(#clip-path-2);
      }

      .cls-12 {
        fill: url(#linear-gradient-4);
      }

      .cls-13 {
        fill: url(#linear-gradient-5);
      }

      .cls-14 {
        fill: url(#linear-gradient-6);
      }

      .cls-15 {
        fill: #a8a8a8;
      }

      .cls-16 {
        fill: url(#linear-gradient-7);
      }

      .cls-17 {
        fill: #e8e8e8;
      }

      .cls-18 {
        fill: url(#linear-gradient-8);
      }

      .cls-19 {
        fill: url(#linear-gradient-9);
      }

      .cls-20 {
        fill: url(#linear-gradient-10);
      }

      .cls-21 {
        clip-path: url(#clip-path-3);
      }

      .cls-22 {
        fill: url(#linear-gradient-11);
      }

      .cls-23 {
        fill: #1d86c8;
      }

      .cls-24 {
        fill: #fff;
      }

      .cls-25 {
        fill: #30b0ff;
      }

      .cls-26 {
        fill: #e3efff;
      }

      .cls-27 {
        fill: #3258a8;
      }

      .cls-28 {
        fill: #4d92ff;
      }

      .cls-29 {
        fill: #fff587;
      }

      .cls-30 {
        fill: #fffbcd;
      }

      .cls-31 {
        fill: #c6be68;
      }

      .cls-32 {
        fill: #b0d1ff;
      }

      .cls-33 {
        fill: #edf3ff;
      }

      .cls-34 {
        fill: #2db9ff;
      }

      .cls-35 {
        fill: #b1e5ff;
      }

      .cls-36 {
        fill: #78cbff;
      }

      .cls-37 {
        fill: url(#linear-gradient-12);
      }

      .cls-38 {
        fill: url(#linear-gradient-13);
      }

      .cls-39 {
        fill: url(#linear-gradient-14);
      }

      .cls-40 {
        fill: url(#linear-gradient-15);
      }

      .cls-41 {
        fill: url(#linear-gradient-16);
      }

      .cls-42 {
        fill: url(#linear-gradient-17);
      }

      .cls-43 {
        fill: url(#linear-gradient-18);
      }

      .cls-44 {
        fill: url(#linear-gradient-19);
      }

      .cls-45 {
        fill: url(#linear-gradient-20);
      }

      .cls-46 {
        fill: url(#linear-gradient-21);
      }

      .cls-47 {
        fill: url(#linear-gradient-22);
      }

      .cls-48 {
        fill: url(#linear-gradient-23);
      }

      .cls-49 {
        fill: url(#linear-gradient-24);
      }

      .cls-50 {
        fill: url(#linear-gradient-25);
      }

      .cls-51 {
        fill: url(#linear-gradient-26);
      }

      .cls-52 {
        fill: url(#linear-gradient-27);
      }

      .cls-53 {
        fill: url(#linear-gradient-28);
      }
    </style>
    <linearGradient id="linear-gradient" x1="-448.1564" y1="-6130.514" x2="-447.1564" y2="-6130.514" gradientTransform="translate(183749.2812 2265982.6537) scale(410 369.504)" gradientUnits="userSpaceOnUse">
      <stop offset="0"/>
      <stop offset="1" stop-color="#171717"/>
    </linearGradient>
    <clipPath id="clip-path">
      <path class="cls-1" d="M10.283,533.828,197.32,420.575c7.0821-4.288,18.6521-4.4091,25.8211-.27L409.7588,528.049c5.7351,3.311,5.7351,8.688,0,12l-184.02,106.244c-8.6028,4.9669-22.573,4.9669-31.1758,0L10.3469,539.9359C7.4788,538.28,7.4509,535.543,10.283,533.828Z"/>
    </clipPath>
    <linearGradient id="linear-gradient-2" x1="-449.8355" y1="-6122.0538" x2="-448.8355" y2="-6122.0538" gradientTransform="translate(132706.6349 1617553.8519) scale(295 264.138)" xlink:href="#linear-gradient"/>
    <linearGradient id="linear-gradient-3" x1="-448.6824" y1="-6077.3301" x2="-449.7091" y2="-6077.284" gradientTransform="translate(137140.1259 640915.7832) scale(305 105.366)" gradientUnits="userSpaceOnUse">
      <stop offset="0.4391" stop-color="#5d5d5d"/>
      <stop offset="0.5043" stop-color="#2e2e2e"/>
    </linearGradient>
    <clipPath id="clip-path-2">
      <path class="cls-1" d="M9.6768,340.91l129.9841-75.046c7.169-4.1389,18.811-4.1389,25.98,0L295.625,340.91c5.2569,3.0361,5.2569,7.9651,0,11L169.105,424.956c-9.0811,5.243-23.8271,5.243-32.9082,0L9.6768,351.91C4.42,348.875,4.42,343.946,9.6768,340.91Z"/>
    </clipPath>
    <linearGradient id="linear-gradient-4" x1="-452.1875" y1="-6043.0817" x2="-453.2142" y2="-6043.0356" gradientTransform="translate(86212.4796 436491.8132) scale(190 72.169)" xlink:href="#linear-gradient-3"/>
    <linearGradient id="linear-gradient-5" x1="-453.6602" y1="-6112.5773" x2="-452.6602" y2="-6112.5773" gradientTransform="translate(81778.9886 1224308.841) scale(180 200.244)" xlink:href="#linear-gradient"/>
    <linearGradient id="linear-gradient-6" x1="-796.0909" y1="-713.2052" x2="-797.1177" y2="-713.1591" gradientTransform="translate(4100.3964 1367.5807) scale(5 1.443)" xlink:href="#linear-gradient-3"/>
    <linearGradient id="linear-gradient-7" x1="-453.1438" y1="-6104.0741" x2="-452.1438" y2="-6104.0741" gradientTransform="translate(86212.4796 1004538.0868) scale(190 164.545)" gradientUnits="userSpaceOnUse">
      <stop offset="0.4391" stop-color="#9bdeff"/>
      <stop offset="0.5435" stop-color="#ddf3ff"/>
    </linearGradient>
    <linearGradient id="linear-gradient-8" x1="-452.1856" y1="-6058.04" x2="-453.2124" y2="-6057.9939" gradientTransform="translate(86212.4796 507251.8925) scale(190 83.716)" gradientUnits="userSpaceOnUse">
      <stop offset="0.3696" stop-color="#b1e5ff"/>
      <stop offset="0.5304" stop-color="#6ecfff"/>
    </linearGradient>
    <linearGradient id="linear-gradient-9" x1="-452.1856" y1="-6058.04" x2="-453.2124" y2="-6057.9939" gradientTransform="translate(86212.4796 507321.1737) scale(190 83.716)" xlink:href="#linear-gradient-8"/>
    <linearGradient id="linear-gradient-10" x1="-452.1856" y1="-6058.04" x2="-453.2124" y2="-6057.9939" gradientTransform="translate(86212.4796 507286.5331) scale(190 83.716)" xlink:href="#linear-gradient-8"/>
    <clipPath id="clip-path-3">
      <path class="cls-1" d="M126.2129,60.008,199.88,17.4771c5.6689-3.273,14.8731-3.273,20.542,0l73.667,42.531c3.3459,1.932,3.3459,5.0689,0,7L220.4219,109.54c-5.6689,3.2731-14.8731,3.2731-20.542,0l-73.667-42.532C122.867,65.0771,122.867,61.94,126.2129,60.008Z"/>
    </clipPath>
    <linearGradient id="linear-gradient-11" x1="-453.6602" y1="-6089.9669" x2="-452.6602" y2="-6089.9669" gradientTransform="translate(81778.9886 773592.8282) scale(180 127.017)" gradientUnits="userSpaceOnUse">
      <stop offset="0.4478" stop-color="#a7a9ac"/>
      <stop offset="0.5348" stop-color="#83878e"/>
    </linearGradient>
    <linearGradient id="linear-gradient-12" x1="-452.1875" y1="-6043.0817" x2="-453.2142" y2="-6043.0356" gradientTransform="translate(86212.4796 436347.3757) scale(190 72.169)" xlink:href="#linear-gradient-3"/>
    <linearGradient id="linear-gradient-13" x1="-452.1875" y1="-6043.0817" x2="-453.2142" y2="-6043.0356" gradientTransform="translate(86212.4796 436460.0554) scale(190 72.169)" xlink:href="#linear-gradient-3"/>
    <linearGradient id="linear-gradient-14" x1="-452.1875" y1="-6043.0817" x2="-453.2142" y2="-6043.0356" gradientTransform="translate(86212.4796 436422.532) scale(190 72.169)" xlink:href="#linear-gradient-3"/>
    <linearGradient id="linear-gradient-15" x1="-452.1875" y1="-6043.0817" x2="-453.2142" y2="-6043.0356" gradientTransform="translate(86212.4796 436385.0007) scale(190 72.169)" xlink:href="#linear-gradient-3"/>
    <linearGradient id="linear-gradient-16" x1="-448.6824" y1="-6077.3301" x2="-449.7091" y2="-6077.284" gradientTransform="translate(137140.1259 640733.9161) scale(305 105.366)" xlink:href="#linear-gradient-3"/>
    <linearGradient id="linear-gradient-17" x1="-448.6824" y1="-6077.3301" x2="-449.7091" y2="-6077.284" gradientTransform="translate(137140.1259 640771.4473) scale(305 105.366)" xlink:href="#linear-gradient-3"/>
    <linearGradient id="linear-gradient-18" x1="-447.0967" y1="-6095.1707" x2="-448.1235" y2="-6095.1246" gradientTransform="translate(188182.6237 845201.5557) scale(420 138.564)" xlink:href="#linear-gradient-3"/>
    <linearGradient id="linear-gradient-19" x1="-448.6824" y1="-6077.33" x2="-449.7091" y2="-6077.284" gradientTransform="translate(137140.1259 640884.0254) scale(305 105.366)" xlink:href="#linear-gradient-3"/>
    <linearGradient id="linear-gradient-20" x1="-448.6824" y1="-6077.3301" x2="-449.7091" y2="-6077.284" gradientTransform="translate(137140.1259 640846.502) scale(305 105.366)" xlink:href="#linear-gradient-3"/>
    <linearGradient id="linear-gradient-21" x1="-448.6824" y1="-6077.3301" x2="-449.7091" y2="-6077.284" gradientTransform="translate(137140.1259 640808.9707) scale(305 105.366)" xlink:href="#linear-gradient-3"/>
    <linearGradient id="linear-gradient-22" x1="-447.0966" y1="-6095.1693" x2="-448.1234" y2="-6095.1231" gradientTransform="translate(188182.7721 845176.3326) scale(420 138.566)" xlink:href="#linear-gradient-3"/>
    <linearGradient id="linear-gradient-23" x1="-447.0967" y1="-6095.1707" x2="-448.1235" y2="-6095.1247" gradientTransform="translate(188182.7721 845276.6182) scale(420 138.564)" xlink:href="#linear-gradient-3"/>
    <linearGradient id="linear-gradient-24" x1="-447.0967" y1="-6095.1707" x2="-448.1235" y2="-6095.1246" gradientTransform="translate(188182.6237 845239.087) scale(420 138.564)" xlink:href="#linear-gradient-3"/>
    <linearGradient id="linear-gradient-25" x1="-447.0967" y1="-6095.1708" x2="-448.1235" y2="-6095.1247" gradientTransform="translate(188182.7721 845314.1495) scale(420 138.564)" xlink:href="#linear-gradient-3"/>
    <linearGradient id="linear-gradient-26" x1="-447.0968" y1="-6095.1708" x2="-448.1235" y2="-6095.1247" gradientTransform="translate(188182.7721 845351.6807) scale(420 138.564)" xlink:href="#linear-gradient-3"/>
    <linearGradient id="linear-gradient-27" x1="-447.0967" y1="-6095.1707" x2="-448.1235" y2="-6095.1246" gradientTransform="translate(188182.7721 845389.1964) scale(420 138.564)" xlink:href="#linear-gradient-3"/>
    <linearGradient id="linear-gradient-28" x1="-447.0967" y1="-6095.1707" x2="-448.1235" y2="-6095.1246" gradientTransform="translate(188182.7721 845426.7276) scale(420 138.564)" xlink:href="#linear-gradient-3"/>
  </defs>
  <title>Artboard 67</title>
  <g>
    <path class="cls-2" d="M30.1509,816.951v31.8861a16.3319,16.3319,0,0,0,7.386,12.7921l156.366,90.2779c8.967,5.178,23.529,5.178,32.496,0l156.366-90.278a16.3317,16.3317,0,0,0,7.386-12.792V816.951l-163.752,94.5419c-8.967,5.1771-23.529,5.1771-32.496,0Z"/>
    <path class="cls-3" d="M292.6509,876.129l5,2.887,2.5-1.4439v72.169l-2.5,1.4439-5-2.887Z"/>
    <path class="cls-4" d="M127.6509,876.129l-5,2.887-2.5-1.4439v72.169l2.5,1.4439,5-2.887Z"/>
    <path class="cls-3" d="M350.1509,842.931l5,2.887,2.5-1.443v72.169l-2.5,1.4431-5-2.8871Z"/>
    <path class="cls-4" d="M70.1509,842.931l-5,2.887-2.5-1.443v72.169l2.5,1.443,5-2.8871Z"/>
    <path class="cls-3" d="M407.6509,809.734l5,2.886,2.5-1.443v72.169l-2.5,1.443-5-2.886Z"/>
    <path class="cls-4" d="M12.6509,809.734l-5,2.886-2.5-1.4429v72.169l2.5,1.443,5-2.886Z"/>
    <path class="cls-3" d="M235.1509,909.3271l5,2.886,2.5-1.443v72.169l-2.5,1.443-5-2.887Z"/>
    <path class="cls-4" d="M185.1509,909.3271l-5,2.886-2.5-1.443v72.169l2.5,1.443,5-2.887Z"/>
    <path class="cls-5" d="M5.1509,805.404V548.4829l195,112.583h20l195-112.583V805.404l-195,112.5831h-20Z"/>
    <path class="cls-6" d="M229.2039,650.0659,412.83,544.049c9.56-5.5191,9.56-14.481,0-20L229.2039,418.032c-10.5159-6.071-27.59-6.071-38.106,0L9.2039,523.049c-10.5159,6.071-10.5159,15.9289,0,22l181.894,105.0169C201.6138,656.1371,218.688,656.1371,229.2039,650.0659Z"/>
    <path class="cls-7" d="M10.283,533.828,197.32,420.575c7.0821-4.288,18.6521-4.4091,25.8211-.27L409.7588,528.049c5.7351,3.311,5.7351,8.688,0,12l-184.02,106.244c-8.6028,4.9669-22.573,4.9669-31.1758,0L10.3469,539.9359C7.4788,538.28,7.4509,535.543,10.283,533.828Z"/>
    <g class="cls-8">
      <path class="cls-3" d="M210.1509,421.466l205,118.3559v-8.66l-205-118.357Z"/>
    </g>
    <path class="cls-9" d="M5.1509,536.9359V358.3419l137.5,79.001h20l137.5-79.3858v178.979L171.7039,611.095c-10.5159,6.0709-27.59,6.0709-38.106,0Z"/>
    <path class="cls-6" d="M.012,563.578,0,562.9159l.064,7.3211c.0478,5.5189,3.9668,12.242,8.7458,15.003L190.9509,690.475c10.513,6.074,27.586,6.077,38.1021.006L411.34,585.2371c4.78-2.76,8.66-9.481,8.66-15v-6.66a15.3226,15.3226,0,0,1-6.9282,12L229.053,681.82c-10.5161,6.071-27.5891,6.0689-38.1021-.006L7.0779,575.579A15.6864,15.6864,0,0,1,.012,563.578Z"/>
    <path class="cls-6" d="M.1629,638.633l-.012-.661.064,7.321c.0481,5.5189,3.967,12.241,8.7461,15.002L191.1018,765.53c10.5132,6.074,27.5862,6.077,38.1021.006l182.287-105.243c4.7788-2.76,8.66-9.4811,8.66-15v-6.661a15.32,15.32,0,0,1-6.928,12L229.2039,756.8759c-10.5159,6.0711-27.5889,6.0681-38.1021-.0059L7.2288,650.6339A15.6818,15.6818,0,0,1,.1629,638.633Z"/>
    <path class="cls-6" d="M.012,601.106,0,600.444l.064,7.3209C.1118,613.284,4.0308,620.006,8.81,622.767L190.9509,728.002c10.513,6.075,27.586,6.0769,38.1021.006L411.34,622.7649c4.78-2.76,8.66-9.4809,8.66-15v-6.66a15.3227,15.3227,0,0,1-6.9282,12L229.053,719.348c-10.5161,6.071-27.5891,6.068-38.1021-.0061L7.0779,613.1071A15.688,15.688,0,0,1,.012,601.106Z"/>
    <path class="cls-6" d="M.1629,676.1609.1509,675.5l.064,7.321c.0481,5.519,3.967,12.241,8.7461,15.002L191.1018,803.058c10.5132,6.074,27.5862,6.077,38.1021.006L411.4909,697.82c4.7788-2.7591,8.66-9.481,8.66-15v-6.66a15.3231,15.3231,0,0,1-6.928,12L229.2039,794.404c-10.5159,6.0709-27.5889,6.068-38.1021-.006L7.2288,688.162A15.6833,15.6833,0,0,1,.1629,676.1609Z"/>
    <path class="cls-6" d="M.1629,713.689l-.012-.661.064,7.32c.0481,5.519,3.967,12.242,8.7461,15.003L191.1018,840.586c10.5132,6.0739,27.5862,6.077,38.1021.0059L411.4909,735.348c4.7788-2.76,8.66-9.481,8.66-15v-6.66a15.3231,15.3231,0,0,1-6.928,12L229.2039,831.931c-10.5159,6.071-27.5889,6.069-38.1021-.006L7.2288,725.69A15.6838,15.6838,0,0,1,.1629,713.689Z"/>
    <path class="cls-6" d="M.1629,751.2171l-.012-.6621.064,7.3209C.263,763.395,4.1819,770.117,8.961,772.878L191.1018,878.1129c10.5132,6.0751,27.5862,6.0771,38.1021.0061l182.287-105.2431c4.7788-2.76,8.66-9.4809,8.66-15v-6.66a15.3231,15.3231,0,0,1-6.928,12L229.2039,869.459c-10.5159,6.071-27.5889,6.069-38.1021-.006L7.2288,763.218A15.6853,15.6853,0,0,1,.1629,751.2171Z"/>
    <path class="cls-6" d="M.1629,788.745l-.012-.662.064,7.321c.0481,5.519,3.967,12.241,8.7461,15.002L191.1018,915.641c10.5132,6.075,27.5862,6.077,38.1021.006l182.287-105.243c4.7788-2.76,8.66-9.481,8.66-15v-6.6611a15.32,15.32,0,0,1-6.928,12L229.2039,906.9871c-10.5159,6.071-27.5889,6.068-38.1021-.006L7.2288,800.745A15.6817,15.6817,0,0,1,.1629,788.745Z"/>
    <path class="cls-6" d="M0,488.521v6.66c0,5.52,3.8809,12.2411,8.66,15l124.7868,72.0461c10.5161,6.071,27.59,6.071,38.1062,0L296.34,510.1809c4.78-2.7589,8.66-9.48,8.66-15v-6.66a15.3214,15.3214,0,0,1-6.9282,12L171.553,573.5671c-10.5161,6.0711-27.59,6.0711-38.1062,0L6.928,500.521A15.3211,15.3211,0,0,1,0,488.521Z"/>
    <path class="cls-6" d="M0,450.9929v6.6611c0,5.519,3.8809,12.24,8.66,15L133.4469,544.7c10.5161,6.071,27.59,6.071,38.1062,0L296.34,472.654c4.78-2.76,8.66-9.481,8.66-15v-6.6611a15.32,15.32,0,0,1-6.9282,12L171.553,536.039c-10.5161,6.071-27.59,6.071-38.1062,0L6.928,462.9929A15.32,15.32,0,0,1,0,450.9929Z"/>
    <path class="cls-6" d="M0,413.466v6.66c0,5.5189,3.8809,12.24,8.66,15l124.7869,72.046c10.5161,6.0709,27.59,6.0709,38.1062,0L296.34,435.126c4.78-2.76,8.66-9.4811,8.66-15v-6.66a15.3227,15.3227,0,0,1-6.9282,12L171.553,498.512c-10.5161,6.0709-27.59,6.0709-38.1062,0L6.928,425.466A15.3223,15.3223,0,0,1,0,413.466Z"/>
    <path class="cls-6" d="M0,375.938v6.66c0,5.5191,3.8809,12.2411,8.66,15l124.7869,72.0461c10.5161,6.071,27.59,6.071,38.1062,0L296.34,397.5979c4.78-2.7589,8.66-9.4809,8.66-15v-6.66a15.3227,15.3227,0,0,1-6.9282,12L171.553,460.9839c-10.5161,6.0711-27.59,6.0711-38.1062,0L6.928,387.938A15.3227,15.3227,0,0,1,0,375.938Z"/>
    <path class="cls-10" d="M.1509,526.049v6.66c0,5.5189,3.8811,12.241,8.66,15l124.787,72.0459c10.5159,6.0711,27.59,6.0711,38.106,0l124.787-72.0459c4.7788-2.759,8.66-9.4811,8.66-15v-6.66a15.323,15.323,0,0,1-6.928,12l-126.519,73.0461c-10.5159,6.0709-27.59,6.0709-38.106,0L7.0789,538.049A15.3231,15.3231,0,0,1,.1509,526.049Z"/>
    <path class="cls-6" d="M171.7039,429.23,297.83,356.41c9.56-5.5189,9.56-14.4809,0-20l-126.126-72.819c-10.5159-6.0711-27.59-6.0711-38.106,0L7.4709,336.41c-9.5591,5.5191-9.5591,14.4811,0,20l126.1269,72.82C144.1138,435.3009,161.188,435.3009,171.7039,429.23Z"/>
    <path class="cls-7" d="M9.6768,340.91l129.9841-75.046c7.169-4.1389,18.811-4.1389,25.98,0L295.625,340.91c5.2569,3.0361,5.2569,7.9651,0,11L169.105,424.956c-9.0811,5.243-23.8271,5.243-32.9082,0L9.6768,351.91C4.42,348.875,4.42,343.946,9.6768,340.91Z"/>
    <g class="cls-11">
      <path class="cls-4" d="M.1509,355.07l152.5-88.046v-8.66L.1509,346.41Z"/>
    </g>
    <path class="cls-12" d="M115.1509,338.41v6.66c0,5.52,3.8811,12.2409,8.66,15l67.2871,38.849c10.5159,6.071,27.59,6.071,38.106,0l67.2871-38.849c4.7788-2.7591,8.66-9.48,8.66-15v-6.66a15.3227,15.3227,0,0,1-6.928,12l-69.019,39.8481c-10.5159,6.071-27.59,6.071-38.106,0L122.0791,350.41A15.3227,15.3227,0,0,1,115.1509,338.41Z"/>
    <path class="cls-13" d="M120.1509,352.8571V204.959l80,46.1881h20l80-46.188V355.07l-70.781,39.428c-10.6069,5.9079-27.74,5.749-38.2361-.356Z"/>
    <path class="cls-14" d="M120.1509,337.75h-5l2.5,1.443Z"/>
    <g>
      <path class="cls-4" d="M420.1509,536.9359l-7.5,12.99V884.789l7.5-4.33Z"/>
      <path class="cls-3" d="M415.1509,583.1239l-7.5-4.33V552.8128l7.5-4.33Z"/>
      <path class="cls-3" d="M415.1509,658.179l-7.5-4.33V627.8679l7.5-4.33Z"/>
      <path class="cls-3" d="M415.1509,620.652l-7.5-4.331v-25.98l7.5-4.33Z"/>
      <path class="cls-3" d="M415.1509,695.7071l-7.5-4.33v-25.981l7.5-4.33Z"/>
      <path class="cls-3" d="M415.1509,733.235l-7.5-4.33V702.924l7.5-4.33Z"/>
      <path class="cls-3" d="M415.1509,770.763l-7.5-4.33V740.452l7.5-4.33Z"/>
      <path class="cls-3" d="M415.1509,808.29l-7.5-4.33v-25.981l7.5-4.33Z"/>
    </g>
    <g>
      <path class="cls-4" d="M362.6509,578.794l-7.5,4.33V917.9871l7.5-4.33Z"/>
      <path class="cls-3" d="M357.6509,616.321l-7.5-4.33v-25.98l7.5-4.331Z"/>
      <path class="cls-3" d="M357.6509,691.3771l-7.5-4.33V661.0659l7.5-4.33Z"/>
      <path class="cls-3" d="M357.6509,653.849l-7.5-4.33V623.538l7.5-4.33Z"/>
      <path class="cls-3" d="M357.6509,728.905l-7.5-4.33V698.594l7.5-4.33Z"/>
      <path class="cls-3" d="M357.6509,766.432l-7.5-4.33v-25.98l7.5-4.331Z"/>
      <path class="cls-3" d="M357.6509,803.96l-7.5-4.33V773.649l7.5-4.33Z"/>
      <path class="cls-3" d="M357.6509,841.4879l-7.5-4.33V811.1771l7.5-4.33Z"/>
    </g>
    <g>
      <path class="cls-4" d="M305.1509,611.991l-7.5,4.33V951.184l7.5-4.33Z"/>
      <path class="cls-3" d="M300.1509,649.519l-7.5-4.33V619.2079l7.5-4.33Z"/>
      <path class="cls-3" d="M300.1509,724.575l-7.5-4.331v-25.98l7.5-4.33Z"/>
      <path class="cls-3" d="M300.1509,687.0471l-7.5-4.33V656.736l7.5-4.33Z"/>
      <path class="cls-3" d="M300.1509,762.102l-7.5-4.33V731.791l7.5-4.33Z"/>
      <path class="cls-3" d="M300.1509,799.63l-7.5-4.33V769.3189l7.5-4.33Z"/>
      <path class="cls-3" d="M300.1509,837.158l-7.5-4.33V806.8471l7.5-4.33Z"/>
      <path class="cls-3" d="M300.1509,874.6859l-7.5-4.331v-25.98l7.5-4.33Z"/>
    </g>
    <g>
      <path class="cls-4" d="M247.6509,645.1759l-7.5,4.33v334.863l7.5-4.33Z"/>
      <path class="cls-3" d="M242.6509,682.7171l-7.5-4.3439V652.4059l7.5-4.33Z"/>
      <path class="cls-3" d="M242.6509,757.772l-7.5-4.343V727.461l7.5-4.33Z"/>
      <path class="cls-3" d="M242.6509,720.244l-7.5-4.343V689.933l7.5-4.33Z"/>
      <path class="cls-3" d="M242.6509,795.3l-7.5-4.3429v-25.968l7.5-4.33Z"/>
      <path class="cls-3" d="M242.6509,832.828l-7.5-4.344V802.5171l7.5-4.33Z"/>
      <path class="cls-3" d="M242.6509,870.3549l-7.5-4.3429V840.045l7.5-4.331Z"/>
      <path class="cls-3" d="M242.6509,907.883l-7.5-4.3431V877.572l7.5-4.33Z"/>
    </g>
    <path class="cls-4" d="M5.1509,583.1239l7.5-4.33V552.8128l-7.5-4.33Z"/>
    <path class="cls-4" d="M5.1509,658.179l7.5-4.33V627.8679l-7.5-4.33Z"/>
    <path class="cls-4" d="M5.1509,620.652l7.5-4.331v-25.98l-7.5-4.33Z"/>
    <path class="cls-4" d="M5.1509,545.596l7.5-4.33V515.2849l-7.5-4.33Z"/>
    <path class="cls-3" d="M300.1509,551.3689l-2.5,1.4441-5-2.8871v-34.641l7.5-4.33Z"/>
    <path class="cls-4" d="M62.6509,578.794l7.5-4.3311v-25.98l-7.5-4.33Z"/>
    <path class="cls-3" d="M242.6509,584.5671l-2.5,1.4441-5-2.8871v-34.641l7.5-4.33Z"/>
    <path class="cls-4" d="M120.1509,611.991l7.5-4.33V581.68l-7.5-4.33Z"/>
    <path class="cls-3" d="M185.1509,617.7649l-2.5,1.443-5-2.8869V581.68l7.5-4.33Z"/>
    <path class="cls-4" d="M5.1509,508.068l7.5-4.33V477.7571l-7.5-4.33Z"/>
    <path class="cls-3" d="M300.1509,508.068l-7.5-4.33V477.7571l7.5-4.33Z"/>
    <path class="cls-4" d="M62.6509,541.266l7.5-4.33V510.955l-7.5-4.33Z"/>
    <path class="cls-3" d="M242.6509,541.266l-7.5-4.33V510.955l7.5-4.33Z"/>
    <path class="cls-4" d="M120.1509,574.4629l7.5-4.33v-25.98l-7.5-4.3311Z"/>
    <path class="cls-3" d="M185.1509,574.464l-7.5-4.331v-25.98l7.5-4.3311Z"/>
    <path class="cls-4" d="M5.1509,470.54l7.5-4.33V440.23l-7.5-4.331Z"/>
    <path class="cls-3" d="M300.1509,470.54l-7.5-4.33V440.23l7.5-4.331Z"/>
    <path class="cls-4" d="M62.6509,503.7379l7.5-4.33V473.4271l-7.5-4.33Z"/>
    <path class="cls-3" d="M242.6509,503.7379l-7.5-4.33V473.4271l7.5-4.33Z"/>
    <path class="cls-4" d="M120.1509,536.9359l7.5-4.33v-25.981l-7.5-4.33Z"/>
    <path class="cls-3" d="M185.1509,536.9359l-7.5-4.33v-25.981l7.5-7.217Z"/>
    <path class="cls-4" d="M5.1509,433.013l7.5-4.3311v-25.98l-7.5-4.33Z"/>
    <path class="cls-3" d="M300.1509,433.013l-7.5-4.3311v-25.98l7.5-4.33Z"/>
    <path class="cls-4" d="M62.6509,466.21l7.5-4.33V435.899l-7.5-4.33Z"/>
    <path class="cls-3" d="M242.6509,466.21l-7.5-4.33V435.899l7.5-4.33Z"/>
    <path class="cls-4" d="M120.1509,499.408l7.5-4.33V469.0971l-7.5-4.33Z"/>
    <path class="cls-3" d="M185.1509,499.408l-7.5-4.33V469.0971l7.5-4.33Z"/>
    <path class="cls-4" d="M5.1509,395.485l7.5-4.33V365.174l-7.5-4.33Z"/>
    <path class="cls-3" d="M300.1509,395.485l-7.5-4.33V365.174l7.5-4.33Z"/>
    <path class="cls-4" d="M62.6509,428.683l7.5-4.331v-25.98l-7.5-4.33Z"/>
    <path class="cls-3" d="M242.6509,428.683l-7.5-4.331v-25.98l7.5-4.33Z"/>
    <path class="cls-4" d="M120.1509,461.88l7.5-4.33v-25.981l-7.5-4.33Z"/>
    <path class="cls-3" d="M185.1509,461.88l-7.5-4.33v-25.981l7.5-4.33Z"/>
    <path class="cls-4" d="M5.1509,695.7071l7.5-4.33v-25.981l-7.5-4.33Z"/>
    <path class="cls-4" d="M5.1509,733.235l7.5-4.33V702.924l-7.5-4.33Z"/>
    <path class="cls-4" d="M5.1509,770.763l7.5-4.33V740.452l-7.5-4.33Z"/>
    <path class="cls-4" d="M5.1509,808.29l7.5-4.33v-25.981l-7.5-4.33Z"/>
    <path class="cls-3" d="M57.6509,391.1549l7.5,4.33V917.9871l-7.5-4.33Z"/>
    <path class="cls-4" d="M62.6509,616.321l7.5-4.33v-25.98l-7.5-4.331Z"/>
    <path class="cls-4" d="M62.6509,691.3771l7.5-4.33V661.0659l-7.5-4.33Z"/>
    <path class="cls-4" d="M62.6509,653.849l7.5-4.33V623.538l-7.5-4.33Z"/>
    <path class="cls-4" d="M62.6509,728.905l7.5-4.33V698.594l-7.5-4.33Z"/>
    <path class="cls-4" d="M62.6509,766.432l7.5-4.33v-25.98l-7.5-4.331Z"/>
    <path class="cls-4" d="M62.6509,803.96l7.5-4.33V773.649l-7.5-4.33Z"/>
    <path class="cls-4" d="M62.6509,841.4879l7.5-4.33V811.1771l-7.5-4.33Z"/>
    <path class="cls-3" d="M115.1509,424.352l7.5,4.331V951.184l-7.5-4.33Z"/>
    <path class="cls-4" d="M190.1509,424.352l-7.5,4.33V619.208l7.5-4.33Z"/>
    <path class="cls-4" d="M120.1509,649.519l7.5-4.33V619.2079l-7.5-4.33Z"/>
    <path class="cls-4" d="M120.1509,724.575l7.5-4.331v-25.98l-7.5-4.33Z"/>
    <path class="cls-4" d="M120.1509,687.0471l7.5-4.33V656.736l-7.5-4.33Z"/>
    <path class="cls-4" d="M120.1509,762.102l7.5-4.33V731.791l-7.5-4.33Z"/>
    <path class="cls-4" d="M120.1509,799.63l7.5-4.33V769.3189l-7.5-4.33Z"/>
    <path class="cls-4" d="M120.1509,837.158l7.5-4.33V806.8471l-7.5-4.33Z"/>
    <path class="cls-4" d="M120.1509,874.6859l7.5-4.331v-25.98l-7.5-4.33Z"/>
    <path class="cls-3" d="M172.6509,645.1759l7.5,4.33v334.863l-7.5-4.33Z"/>
    <path class="cls-4" d="M177.6509,682.7171l7.5-4.3439V652.4059l-7.5-4.33Z"/>
    <path class="cls-4" d="M177.6509,757.772l7.5-4.343V727.461l-7.5-4.33Z"/>
    <path class="cls-4" d="M177.6509,720.244l7.5-4.343V689.933l-7.5-4.33Z"/>
    <path class="cls-4" d="M177.6509,795.3l7.5-4.343V764.989l-7.5-4.33Z"/>
    <path class="cls-4" d="M177.6509,832.828l7.5-4.344V802.5171l-7.5-4.33Z"/>
    <path class="cls-4" d="M177.6509,870.3549l7.5-4.3429V840.045l-7.5-4.331Z"/>
    <path class="cls-4" d="M177.6509,907.883l7.5-4.3431V877.572l-7.5-4.33Z"/>
    <path class="cls-3" d="M95.1509,894.893l-2.5-1.443V864.582l2.5,1.443Z"/>
    <path class="cls-3" d="M150.1509,926.6471l-2.5-1.4431V896.336l2.5,1.444Z"/>
    <path class="cls-3" d="M208.9009,925.925h2.5v30.311h-2.5Z"/>
    <path class="cls-3" d="M40.1509,863.1389l-2.5-1.4439V832.828l2.5,1.443Z"/>
    <g>
      <path class="cls-4" d="M325.1509,894.893l2.5-1.443V864.582l-2.5,1.443Z"/>
      <path class="cls-4" d="M270.1509,926.6471l2.5-1.4431V896.336l-2.5,1.444Z"/>
      <path class="cls-4" d="M380.1509,863.1389l2.5-1.4439V832.828l-2.5,1.443Z"/>
    </g>
    <path class="cls-6" d="M12.6509,541.266l-5,2.887,50,28.8669v-5.7728Z"/>
    <path class="cls-6" d="M70.1509,574.4629l-5,2.8871,50,28.8679V600.444Z"/>
    <path class="cls-6" d="M127.6509,607.6609l-5,2.8871,55,31.754,5-2.8871Z"/>
    <path class="cls-6" d="M115.1509,300.882v6.661c0,5.5189,3.8811,12.24,8.66,15l67.2871,38.848c10.5159,6.0709,27.59,6.0709,38.106,0l67.2871-38.848c4.7788-2.76,8.66-9.4811,8.66-15v-6.661a15.32,15.32,0,0,1-6.928,12l-69.019,39.849c-10.5159,6.071-27.59,6.071-38.106,0l-69.019-39.849A15.32,15.32,0,0,1,115.1509,300.882Z"/>
    <path class="cls-6" d="M115.1509,263.42v6.66c0,5.519,3.8811,12.241,8.66,15l67.2871,38.848c10.5159,6.072,27.59,6.072,38.106,0l67.2871-38.848c4.7788-2.759,8.66-9.481,8.66-15v-6.66a15.3231,15.3231,0,0,1-6.928,12l-69.019,39.848c-10.5159,6.071-27.59,6.071-38.106,0l-69.019-39.848A15.3236,15.3236,0,0,1,115.1509,263.42Z"/>
    <path class="cls-6" d="M115.1509,225.8271v6.66c0,5.519,3.8811,12.2409,8.66,15l67.2871,38.848c10.5159,6.0709,27.59,6.0709,38.106,0l67.2869-38.848c4.7788-2.7591,8.66-9.481,8.66-15v-6.66a15.3231,15.3231,0,0,1-6.928,12l-69.019,39.8481c-10.5159,6.071-27.59,6.071-38.106,0l-69.019-39.8481A15.3231,15.3231,0,0,1,115.1509,225.8271Z"/>
    <path class="cls-7" d="M115.1509,196.299v11.547l75.947,43.848c10.5159,6.0709,27.59,6.0709,38.106,0l75.947-43.848V196.299l-75.947-43.848c-10.5159-6.0711-27.59-6.0711-38.106,0Z"/>
    <path class="cls-3" d="M300.1509,357.9571l-7.5-4.33v-25.981l7.5-4.33Z"/>
    <path class="cls-3" d="M300.1509,320.429l-7.5-4.33V290.1179l7.5-4.33Z"/>
    <path class="cls-3" d="M300.1509,282.902l-7.5-4.331v-25.98l7.5-4.33Z"/>
    <path class="cls-3" d="M300.1509,245.3739l-7.5-4.427V215.063l7.5-4.33Z"/>
    <path class="cls-3" d="M300.1509,207.846l-7.5-4.33V177.5349l7.5-4.33Z"/>
    <path class="cls-4" d="M120.1509,363.731l2.5,1.443,5-2.887V327.646l-7.5-1.443Z"/>
    <path class="cls-4" d="M120.1509,320.429l7.5-4.33V290.1179l-7.5-4.33Z"/>
    <path class="cls-4" d="M120.1509,282.902l7.5-4.331v-25.98l-7.5-4.33Z"/>
    <path class="cls-4" d="M122.6509,243.93l5-2.886V215.063l-5-2.8871Z"/>
    <path class="cls-4" d="M122.6509,206.403l5-2.887V180.422l-5-2.8871Z"/>
    <path class="cls-3" d="M242.6509,391.1549l-7.5-4.33v-25.981l7.5-4.33Z"/>
    <path class="cls-3" d="M242.6509,353.6271l-7.5-4.33V323.3159l7.5-4.33Z"/>
    <path class="cls-3" d="M242.6509,316.099l-7.5-4.33V285.788l7.5-4.33Z"/>
    <path class="cls-15" d="M221.409,238.8739l54.9838-31.745c6.2132-3.5869,6.2132-9.412,0-13l-54.9838-31.744c-6.2132-3.5879-16.303-3.5879-22.5162,0l-54.9838,31.744c-6.2132,3.588-6.2132,9.4131,0,13l54.9838,31.745C205.106,242.461,215.1958,242.461,221.409,238.8739Z"/>
    <path class="cls-3" d="M242.6509,278.571l-7.5-4.33v-25.98l7.5-4.331Z"/>
    <path class="cls-3" d="M240.1509,239.6l-5-2.886V213.62l5-2.8871Z"/>
    <path class="cls-4" d="M177.6509,396.928l2.5,1.444,5-2.887V360.844l-7.5-4.33Z"/>
    <path class="cls-4" d="M177.6509,353.6271l7.5-4.33V323.3159l-7.5-4.33Z"/>
    <path class="cls-4" d="M177.6509,316.099l7.5-4.33V285.788l-7.5-4.33Z"/>
    <path class="cls-4" d="M177.6509,278.571l7.5-4.33v-25.98l-7.5-4.331Z"/>
    <path class="cls-4" d="M180.1509,239.6l5-2.886V213.62l-5-2.8871Z"/>
    <path class="cls-4" d="M305.1509,164.545l-7.5,10.103V552.813l7.5-4.33Z"/>
    <path class="cls-4" d="M247.6509,200.6289l-7.5,4.33V586.01l7.5-4.33Z"/>
    <path class="cls-3" d="M172.6509,200.6289l7.5,4.33v193.413l-7.5-4.33Z"/>
    <path class="cls-3" d="M122.6509,365.174l-7.5-4.33V164.545l7.5,10.103Z"/>
    <g>
      <path class="cls-16" d="M115.1509,63.508h190V163.705c0,5.243-3.686,11.6279-8.2271,14.25l-71.7089,41.401c-8.314,4.8-21.814,4.8-30.128,0l-71.719-41.407c-4.5351-2.618-8.217-8.995-8.217-14.2321Z"/>
      <path class="cls-17" d="M122.4709,53.508,192.83,12.8871c9.56-5.5191,25.082-5.5191,34.642,0l70.359,40.6209c9.5591,5.52,9.5591,14.4809,0,20L227.4719,114.13c-9.56,5.5191-25.082,5.5191-34.642,0L122.4709,73.508C112.9119,67.9889,112.9119,59.028,122.4709,53.508Z"/>
      <path class="cls-18" d="M115.1509,62.9571V78.696a15.1441,15.1441,0,0,0,6.8469,11.86l73.0891,42.1971c8.314,4.801,21.814,4.801,30.128,0L298.304,90.556a15.1441,15.1441,0,0,0,6.8469-11.86V62.9571a12.1172,12.1172,0,0,1-5.478,9.4881l-74.458,42.988c-8.314,4.8-21.814,4.8-30.128,0l-74.458-42.988A12.1172,12.1172,0,0,1,115.1509,62.9571Z"/>
      <path class="cls-19" d="M115.1509,132.2389v15.739a15.1444,15.1444,0,0,0,6.8469,11.86l73.0891,42.197c8.314,4.8011,21.814,4.8011,30.128,0l73.0891-42.197a15.1441,15.1441,0,0,0,6.8469-11.86v-15.739a12.1172,12.1172,0,0,1-5.478,9.4881l-74.458,42.988c-8.314,4.8-21.814,4.8-30.128,0l-74.458-42.9879A12.1173,12.1173,0,0,1,115.1509,132.2389Z"/>
      <path class="cls-20" d="M115.1509,97.5979v15.7392a15.1441,15.1441,0,0,0,6.8469,11.86l73.0891,42.1971c8.314,4.801,21.814,4.801,30.128,0l73.0891-42.1971a15.1441,15.1441,0,0,0,6.8469-11.86V97.5979a12.1172,12.1172,0,0,1-5.478,9.4881l-74.458,42.988c-8.314,4.8-21.814,4.8-30.128,0l-74.458-42.988A12.1171,12.1171,0,0,1,115.1509,97.5979Z"/>
      <path class="cls-7" d="M126.2129,60.008,199.88,17.4771c5.6689-3.273,14.8731-3.273,20.542,0l73.667,42.531c3.3459,1.932,3.3459,5.0689,0,7L220.4219,109.54c-5.6689,3.2731-14.8731,3.2731-20.542,0l-73.667-42.532C122.867,65.0771,122.867,61.94,126.2129,60.008Z"/>
      <g class="cls-21">
        <path class="cls-22" d="M120.1509,127.0171l79.6931-45.621c5.6809-3.252,14.9048-3.253,20.586-.002l79.7209,45.623V51.961L210.1509,0l-90,51.961Z"/>
      </g>
      <g>
        <path class="cls-23" d="M167.3689,120.0409c-4.469-2.5819-8.613-3.3479-12.0071-2.54-5.3029,1.262-8.7758,6.3669-8.802,14.391-.041,13.161,9.22,29.188,20.6722,35.803s20.7668,1.3089,20.8078-11.8521S178.8209,126.6549,167.3689,120.0409Z"/>
        <path class="cls-23" d="M147.5159,121.664l6.8811-3.9731,3.4409,2.9791-6.021,3.477Z"/>
        <path class="cls-23" d="M173.3218,170.334l7.7422-4.47,1.72,2.98-5.1612,2.98Z"/>
        <g>
          <path class="cls-24" d="M182.9219,158.705c-.0139,5.2779-1.5259,9.291-4.0691,11.7789l-.0549.0551a9.9647,9.9647,0,0,1-4.8521,2.57,11.8432,11.8432,0,0,1-3.23.234,16.2942,16.2942,0,0,1-3.01-.4809,17.6841,17.6841,0,0,1-2.488-.838,25.9993,25.9993,0,0,1-3.0508-1.4991,32.4413,32.4413,0,0,1-2.9282-1.9239c-.8518-.632-1.677-1.306-2.4878-2.02a39.2759,39.2759,0,0,1-3.051-3.011c-.7561-.824-1.4981-1.69-2.199-2.5971-.33-.4259-.66-.8529-.9761-1.2789-.33-.453-.66-.907-.9761-1.374a49.9428,49.9428,0,0,1-3.4089-5.787,40.135,40.135,0,0,1-4.604-17.703c-.042,13.126,9.1951,29.1119,20.617,35.709S182.88,171.831,182.9219,158.705Z"/>
          <path class="cls-1" d="M162.304,122.995c11.4219,6.5979,20.6589,22.583,20.6179,35.71s-9.333,18.418-20.7549,11.82-20.645-22.583-20.6182-35.709S150.8819,116.398,162.304,122.995Z"/>
          <path class="cls-25" d="M166.1939,149.564l.0139-3.876,2.914,3.6289Zm-11.4361-16.219c.1241-.261.3992-.316.7151-.1371a.39.39,0,0,1,.096.0691,1.7088,1.7088,0,0,1,.66,1.14l.2341.138a.94.94,0,0,1,.398.728c0,.262-.178.371-.4119.262l-.8931-.523c-.028-.014-.0691-.027-.0969-.041a.4393.4393,0,0,1-.0962-.069l-1.0859-.6321a.9406.9406,0,0,1-.398-.729c0-.261.178-.3709.4119-.261.0271.0141.0552.042.082.0551a.1507.1507,0,0,1,.1521-.1371.2239.2239,0,0,1,.1231.041C154.6758,133.2771,154.7168,133.304,154.7578,133.345Zm-4.1369-3.147-.481-.6051.4949-.0409.4812.6039Zm12.467-3.065c.0139-.11.178-.1241.3711-.0141a.7232.7232,0,0,1,.3569.4261h0v.014l-.0141,6.0339,2.4331,3.0241-3.9031.329-3.89-4.8381,2.57-.22.0139-4.673h0c.0139-.11.179-.124.3711-.014a.7173.7173,0,0,1,.3569.426h0v.014l-.0129,4.1649.605-.0549.728.907.0139-5.525Zm-.7839-4.138c-11.4221-6.597-20.7132-1.305-20.7552,11.8209a40.4885,40.4885,0,0,0,4.605,17.704l.0552-18.0609,3.917-4.8661.481.6051.4948-.0421,3.876,9.375-.041,13.58,2.9831-.262.4529-5.2091.041-15.532,3.89,4.8381-.0271,9.911.0271-9.911,3.9038-.329-.0139,2.542a2.3127,2.3127,0,0,1,.8659,1.636v.055a.9646.9646,0,0,1,.3992.55.4814.4814,0,0,1,.398.0691h0c.0139,0,.0139.013.0278.013a1.4893,1.4893,0,0,1,.5632.688.8324.8324,0,0,1,0,.769c-.123.165-.33.1789-.5632.042-.0139,0-.0139-.0141-.0278-.0141l-1.6631-.962-.0269,7.546,2.927-.2479-.0271,9.058,1.086,1.3469,1.374-6.845.0139-5.8.4951-.041.5359.6589.948-4.6729.4951-.0411.481.605,1.2231,7.6551h0l.0689.427.646.797-.179,2.117,2.502,15.792.082.0969c2.543-2.4879,4.0549-6.5019,4.0691-11.78.0551-13.0988-9.1819-29.0839-20.6038-35.6818Z"/>
          <path class="cls-26" d="M178.7709,170.3739l.0269.151c.0139-.0129.041-.041.0549-.0549Zm-20.8381-17.511-2.982.261-.028,10.35-1.209.11a39.37,39.37,0,0,0,3.051,3.01Zm11.175,5.4981v1.292l-2.35.2059.948,13.0031a14.8774,14.8774,0,0,0,3.01.4809l-2.6108-3.2569,2.0889-10.392Z"/>
          <path class="cls-27" d="M158.428,132.122l-.041,15.532,1.4709-.1241v-.3709h0v-.055c0-.893,1.0989-.99,2.4461-.206l.0278-9.91Z"/>
          <path class="cls-28" d="M166.2349,136.6171l-3.9031.329-.0278,9.911c1.3469.7829,2.4328,2.13,2.4328,3.0229v.0551h0v.3719l1.4571,1.8141.11,1.4979a1.6131,1.6131,0,0,1,.3159.1381c.0549.027.0959.068.1511.0959a3.0945,3.0945,0,0,1,1.1958,2.0481l.0142.0139v-.0139c.0139,0,.0139.0139.0268.0139a1.6118,1.6118,0,0,1,.66.824,1.0321,1.0321,0,0,1,0,.9071.4761.4761,0,0,1-.66.055c-.0129,0-.0129-.013-.0268-.013L166.7848,157c-.0549-.0271-.11-.055-.1789-.082-.0271-.014-.0552-.0281-.0821-.041l.22,2.9819,2.35-.2059v-1.292l.0278-9.058-2.9279.2479.028-7.546-1.1411-.66a.0136.0136,0,0,1-.0139-.0133v-.0007a1.392,1.392,0,0,1-.646-1.099c0-.413.2749-.591.6321-.3991a1.3865,1.3865,0,0,1-.0132-.2339c.0132-.6321.4671-.879,1.03-.55a1.1672,1.1672,0,0,1,.1651.11Z"/>
          <path class="cls-29" d="M161.356,134.5409a.669.669,0,0,1-.3711-.453l.3711.2061.3708.206C161.7268,134.6371,161.5618,134.651,161.356,134.5409Zm2.0749-.0959a.6688.6688,0,0,1-.3711-.454l.3711.2059.3709.2071C163.8018,134.5409,163.638,134.555,163.4309,134.445Zm-1.0849-2.667-.605.0549-.0142,2.6671-.728-.426v-2.186l-2.5708.22,3.89,4.8381,3.904-.329-2.4331-3.0241v.8111l-.729-.4261v-1.292Z"/>
          <path class="cls-29" d="M166.2078,145.675l-.0139,3.889,2.9279-.261-2.914-3.628"/>
          <path class="cls-29" d="M174.0288,142.981l-.4948.041.4948.605.481-.042-.481-.604"/>
          <path class="cls-29" d="M172.063,147.0349l-.4951.042.9209,1.14.11-.5219-.5359-.66"/>
          <path class="cls-27" d="M172.324,149.303l-.769,3.588v-.0281l-1.375,6.845-2.0891,10.3911,2.6111,3.258a11.8308,11.8308,0,0,0,3.231-.234l.0549-21.7171Z"/>
          <path class="cls-28" d="M174.9768,151.31l-.9758.082-.0552,21.7169a10.026,10.026,0,0,0,4.8521-2.57l-.0269-.151-2.5022-15.793-.8249,9.608-.4939.0409Zm.7561-.069-.261.028.33.4119Z"/>
          <path class="cls-29" d="M175.4719,151.269l-.4951.041.9761,1.21.4951-.042-.6462-.8109-.33-.398"/>
          <path class="cls-27" d="M174.9768,151.31h0l-.0268,12.9339,1.0029-11.724-.9761-1.21"/>
          <path class="cls-28" d="M176.448,152.4779l-.4951.042-1.0029,11.724.4939-.0409.8249-9.608Z"/>
          <path class="cls-27" d="M171.5679,147.0771l-.0129,5.786v.0281l.769-3.588-.041-.055.2058-1.0311-.9209-1.14"/>
          <path class="cls-30" d="M174.51,143.585l-.481.042-.0278,7.765.9758-.082h0l.4951-.041.261-.028h0l-1.2231-7.656"/>
          <path class="cls-31" d="M173.534,143.022l-.9351,4.673-.11.5219-.2058,1.0311.041.055,1.677,2.089.0278-7.765-.4948-.605"/>
          <path class="cls-29" d="M159.8579,147.516l-1.4709.1239,3.89,4.838,3.9031-.33-1.4571-1.814v.44c0,.893-1.0991.976-2.446.206s-2.4329-2.13-2.4329-3.024h0Z"/>
          <path class="cls-28" d="M162.2769,152.4779l-3.0381,16.1231a28.7631,28.7631,0,0,0,2.9282,1.9239,24.0863,24.0863,0,0,0,3.0508,1.4991Z"/>
          <path class="cls-32" d="M166.1939,152.148l-3.9031.33,2.927,19.5591a22.0339,22.0339,0,0,0,2.488.839l-.948-13.003-.22-2.9831a.38.38,0,0,1-.096-.068l-2.3511-1.3609h0a1.73,1.73,0,0,1-.728-1.031c-.0969-.4261.0132-.756.2881-.825a.64.64,0,0,1,.4541.0969,1.5526,1.5526,0,0,1,.4668.4391V154.1c0-.22.11-.343.2751-.3571a.55.55,0,0,1,.2339.069,1.0105,1.0105,0,0,1,.2881.2611.7371.7371,0,0,1,.949-.4314l.0139.0054Z"/>
          <path class="cls-27" d="M158.387,147.64l-.4541,5.2091-1.182,13.7181c.8108.7151,1.636,1.4021,2.4878,2.02l3.0381-16.1219Z"/>
          <path class="cls-31" d="M164.7229,150.774l-.384-.22a2.5223,2.5223,0,0,1-2.0481-.44,5.9029,5.9029,0,0,1-2.0479-1.9239l-.385-.22c0,.8929,1.086,2.24,2.4329,3.0239C163.6238,151.75,164.7229,151.6671,164.7229,150.774Z"/>
          <path class="cls-31" d="M159.8579,147.1449h0v.8111h0l.385.22A2.2165,2.2165,0,0,1,159.8579,147.1449Zm4.865,2.818h0a.6466.6466,0,0,1-.384.5911l.384.22Z"/>
          <path class="cls-30" d="M162.2909,146.87c-1.3469-.7831-2.4329-.687-2.4468.2069v.0541a2.2738,2.2738,0,0,0,.3848,1.0449A5.8933,5.8933,0,0,0,162.277,150.1a2.5321,2.5321,0,0,0,2.0481.44.6423.6423,0,0,0,.385-.5909v-.055C164.7368,149.001,163.638,147.654,162.2909,146.87Z"/>
          <path class="cls-31" d="M161.7268,134.5l-.3708-.206-.3711-.2061a.669.669,0,0,0,.3711.453C161.5618,134.651,161.7268,134.6371,161.7268,134.5Z"/>
          <path class="cls-31" d="M161.012,127.229h0l-.0132,4.673v2.1859l.728.426.0141-2.6668.0129-4.1651c0,.1381-.164.1521-.3711.0281s-.3708-.316-.3708-.454Zm.729.412Z"/>
          <path class="cls-30" d="M161.37,127.215c-.1931-.11-.344-.11-.3711.014v.0139a.6666.6666,0,0,0,.3711.4531c.206.11.3711.096.3711-.027v-.028A.7561.7561,0,0,0,161.37,127.215Z"/>
          <path class="cls-31" d="M163.8018,134.404l-.3709-.2071-.3711-.2059a.6688.6688,0,0,0,.3711.454C163.638,134.555,163.8018,134.5409,163.8018,134.404Z"/>
          <path class="cls-31" d="M163.0879,127.133h0l-.0139,5.566v1.292l.7278.426v-.811l.0141-6.0341c0,.1381-.165.1521-.3711.0281a.6681.6681,0,0,1-.3708-.454.013.013,0,0,0,.0139-.0121Zm.728.412Z"/>
          <path class="cls-30" d="M163.4448,127.1189c-.1918-.11-.343-.11-.3708.0141v.013a.6681.6681,0,0,0,.3708.454c.2061.11.3711.096.3711-.0281v-.0269A.7123.7123,0,0,0,163.4448,127.1189Z"/>
          <path class="cls-28" d="M150.607,138.61l-.9761.0819-.055,19.614c.3169.4671.646.9211.9759,1.375l.0552-19.1329Z"/>
          <path class="cls-27" d="M150.607,138.61v1.938l-.0682,19.146c.3162.44.646.866.9761,1.2789l.054-21.1539Z"/>
          <path class="cls-30" d="M151.116,130.1559l-.4951.0421.948,9.621,3.4231-.2881-3.876-9.375"/>
          <path class="cls-31" d="M150.14,129.5929l-3.917,4.8661,3.395,4.2329,1.003-8.4939-.481-.6051"/>
          <path class="cls-28" d="M154.992,139.5309l-3.4231.2881-.054,21.1539c.7.8931,1.4429,1.7591,2.199,2.5971l1.209-.109.028-10.35Z"/>
          <path class="cls-27" d="M146.2229,134.459,146.168,152.52a49.8714,49.8714,0,0,0,3.4079,5.786l.055-19.614Z"/>
          <path class="cls-29" d="M150.6209,130.198l-1.003,8.4939.9891-.0819.9619,1.209-.948-9.621"/>
          <path class="cls-29" d="M150.6209,129.552l-.481.0409.481.6051.4951-.0421-.4951-.6039"/>
          <path class="cls-33" d="M166.62,153.798a1.2487,1.2487,0,0,0-.3159-.1381.7321.7321,0,0,0-.9535.4035l-.0087.0226a.7468.7468,0,0,0-.2888-.261.5058.5058,0,0,0-.2332-.068c-.165,0-.2749.137-.2749.3569v.041a1.4162,1.4162,0,0,0-.468-.44.6284.6284,0,0,0-.4531-.0961c-.2749.0691-.385.3991-.2888.8251a1.6907,1.6907,0,0,0,.729,1.031h0l2.35,1.36c.0281.0279.0691.042.096.069.0281.014.0552.0279.083.041a.72.72,0,0,0,.1782.083l1.1958.687c.0142,0,.0142.014.0281.014.2749.1509.522.137.6589-.055a.9411.9411,0,0,0,0-.907,1.668,1.668,0,0,0-.6589-.8251c-.0139,0-.0139-.0139-.0281-.0139v.0139l-.0139-.0139a3.1286,3.1286,0,0,0-1.1951-2.0481A.6148.6148,0,0,0,166.62,153.798Z"/>
          <path class="cls-33" d="M166.0569,139.063c-.55-.316-1.0171-.0691-1.031.55a1.3993,1.3993,0,0,0,.0139.2341c-.3579-.206-.646-.028-.6328.398a1.3719,1.3719,0,0,0,.646,1.1.0136.0136,0,0,1,.0139.0133v.0006l1.1409.6591,1.6631.963c.0139,0,.0139.0129.0271.0129a.4114.4114,0,0,0,.5639-.0409.8274.8274,0,0,0,0-.77,1.413,1.413,0,0,0-.5639-.687c-.0132,0-.0132-.014-.0271-.014h0a.4892.4892,0,0,0-.399-.068.8834.8834,0,0,0-.3979-.55v-.0549a2.3385,2.3385,0,0,0-.8662-1.636A.62.62,0,0,0,166.0569,139.063Z"/>
          <path class="cls-33" d="M155.4729,133.2079c-.302-.1789-.591-.1239-.7151.1371a.3852.3852,0,0,0-.123-.0961.2288.2288,0,0,0-.1238-.041.1489.1489,0,0,0-.1511.1371.31.31,0,0,0-.083-.0551.2631.2631,0,0,0-.4119.261.983.983,0,0,0,.398.729l1.0859.6321c.0281.028.0691.041.0969.069.0271.014.0681.027.0962.041l.8928.523c.2342.109.4131,0,.4131-.262a.98.98,0,0,0-.3989-.728l-.2341-.138a1.7121,1.7121,0,0,0-.659-1.14C155.5279,133.2489,155.5009,133.235,155.4729,133.2079Z"/>
        </g>
      </g>
      <g>
        <g>
          <path class="cls-34" d="M253.8179,119.763c4.469-2.5821,8.613-3.3481,12.0071-2.54,5.303,1.2621,8.7768,6.3671,8.802,14.391.041,13.161-9.219,29.1881-20.6712,35.8031s-20.7678,1.309-20.8088-11.852S242.366,126.378,253.8179,119.763Z"/>
          <path class="cls-34" d="M273.6709,121.386l-6.8811-3.973-3.4409,2.98,6.022,3.4759Z"/>
          <path class="cls-34" d="M247.866,170.0559l-7.7422-4.469-1.7209,2.979,5.1621,2.98Z"/>
        </g>
        <g>
          <path class="cls-35" d="M279.6638,134.825a39.6483,39.6483,0,0,1-4.01,16.4809c-.0139.042-.042.083-.0549.1241a49.6885,49.6885,0,0,1-8.0481,12.155,40.8511,40.8511,0,0,1-3.0049,2.99c-.813.7309-1.64,1.406-2.4941,2.04a29.846,29.846,0,0,1-3.0459,2.012,25.2212,25.2212,0,0,1-2.9351,1.4609,19.7274,19.7274,0,0,1-2.4939.854,15.71,15.71,0,0,1-3.0591.51,12.949,12.949,0,0,1-2.2048-.0549c-.331-.041-.6621-.097-.979-.152-.331-.0691-.6611-.151-.978-.248a9.762,9.762,0,0,1-3.4322-1.846c-2.935-2.426-4.6989-6.656-4.7128-12.362.042,13.161,9.3569,18.467,20.8088,11.852S279.7049,147.985,279.6638,134.825Z"/>
          <path class="cls-1" d="M258.855,122.9729c11.4519-6.615,20.7668-1.3089,20.8088,11.8521s-9.219,29.187-20.6709,35.802-20.768,1.3089-20.809-11.851S247.4029,129.5879,258.855,122.9729Z"/>
          <path class="cls-36" d="M262.8928,145.022l-.0139-3.886,2.9351.2479Zm-11.521-2.9761a1.7779,1.7779,0,0,1,.7032-.9649c.0268-.0141.0688-.0411.0959-.055a.4309.4309,0,0,1,.6619.372l.2341-.1381a.2639.2639,0,0,1,.4131.2621.9835.9835,0,0,1-.3992.73l-.896.524c-.0278.028-.0688.0409-.0959.069a.2933.2933,0,0,1-.0969.041l-1.0891.6339a.2638.2638,0,0,1-.4129-.2619.9843.9843,0,0,1,.4-.73c.0271-.0141.0549-.028.082-.041a.5319.5319,0,0,1,.1519-.304.9317.9317,0,0,1,.124-.11.3931.3931,0,0,1,.1239-.0271Zm-4.1479,1.6261-.4961-.0421.4822-.6059.4958.041Zm12.4441-17.474a.6859.6859,0,0,1,.3579-.427c.1931-.1111.345-.1111.3721.013h0v.014l.0139,6.05,2.4531.2071-3.9,4.85-3.9141-.33,2.5642-3.184-.0141-4.685h0a.6868.6868,0,0,1,.3581-.427c.1929-.111.345-.111.3718.013h0v.0139l.0142,4.1761.6059-.758.731.069-.0139-5.595Zm-.813-3.2251c-11.4521,6.615-20.7131,22.6421-20.6711,35.8031.0141,5.719,1.7771,9.949,4.7131,12.361l-.0552-18.108,3.886-9.3991.4961.0421.4819-.607,3.928,4.879.041,13.615,2.9771-3.707.4131-5.7331-.0411-15.5718,3.9141.331.0269,9.936-.0269-9.936,3.9-4.851.013,2.55c.4831-.193.8549.068.8681.6331v.056c.18-.1111.345-.0691.4.096a1.3823,1.3823,0,0,1,.4-.4h0c.0142,0,.0142-.0129.0271-.0129a.4116.4116,0,0,1,.565.041.8321.8321,0,0,1,0,.772,1.411,1.411,0,0,1-.565.689c-.0129,0-.0129.013-.0271.013l-1.6679.965.028,7.566,2.9209-3.638.0281,9.081,1.0891.0969,1.336-8.4339-.013-5.8161.4819-.6059.5369.041.91-5.76.4819-.606.4961.0409,1.2539,6.2431h0l.0691.344.6479.055-.165,2.329,2.59,12.885.083.0139a39.5964,39.5964,0,0,0,4.01-16.4819c-.0142-13.1193-9.3291-18.4254-20.781-11.81Z"/>
          <path class="cls-1" d="M258.855,122.9729c11.4519-6.615,20.7668-1.3089,20.8088,11.8521s-9.219,29.187-20.6709,35.802-20.768,1.3089-20.809-11.851S247.4029,129.5879,258.855,122.9729Z"/>
          <path class="cls-26" d="M275.5709,151.3059l.0281.1241c.0129-.0411.041-.0821.0549-.1241Zm-20.905,6.56-2.9768,3.707.0268,10.377-1.2119,1.5019a15.5336,15.5336,0,0,0,3.0591-.51Zm11.19-7.4v1.295l-2.343,2.908,1.02,11.8929a41.327,41.327,0,0,0,3.0039-2.9909l-2.6321-.22,2.0252-12.7891Z"/>
          <path class="cls-1" d="M258.855,122.9729c11.4519-6.615,20.7668-1.3089,20.8088,11.8521s-9.219,29.187-20.6709,35.802-20.768,1.3089-20.809-11.851S247.4029,129.5879,258.855,122.9729Z"/>
          <path class="cls-27" d="M255.0379,136.5609l.041,15.5721,1.4609-1.819v-.3721h0v-.0548c0-.896,1.0882-2.246,2.439-3.032l-.0279-9.936Z"/>
          <path class="cls-1" d="M258.855,122.9729c11.4519-6.615,20.7668-1.3089,20.8088,11.8521s-9.219,29.187-20.6709,35.802-20.768,1.3089-20.809-11.851S247.4029,129.5879,258.855,122.9729Z"/>
          <path class="cls-28" d="M262.865,132.055l-3.9,4.85.028,9.9361c1.35-.7851,2.4529-.689,2.4529.207v.0549h0v.3721l1.46.1379.124,1.3781a2.4413,2.4413,0,0,1,.3171-.234c.056-.028.097-.0551.1519-.083a.7943.7943,0,0,1,1.2131.662l.013-.0141v-.0139c.0139,0,.0139-.014.0281-.014.2758-.151.5239-.137.6618.055a.9523.9523,0,0,1,0,.91,1.64,1.64,0,0,1-.6618.813c-.0142,0-.0142.0141-.0281.0141l-1.198.6889a.7941.7941,0,0,1-.18.11c-.0271.0141-.0549.0281-.082.041l.2339,2.729,2.3429-2.908V150.452l-.0278-9.0819-2.9212,3.6389-.0278-7.5659-1.144.661a.0138.0138,0,0,0-.0142.0134v0c-.3579.2071-.647.042-.647-.358a1.3923,1.3923,0,0,1,.6341-1.13,1.0312,1.0312,0,0,1-.0139-.2069,2.3066,2.3066,0,0,1,1.02-1.75c.0549-.0281.11-.0551.165-.083Z"/>
          <path class="cls-1" d="M258.855,122.9729c11.4519-6.615,20.7668-1.3089,20.8088,11.8521s-9.219,29.187-20.6709,35.802-20.768,1.3089-20.809-11.851S247.4029,129.5879,258.855,122.9729Z"/>
          <path class="cls-29" d="M257.9729,135.61c-.207.11-.372.0969-.372-.0281l.372-.2059.3721-.207C258.345,135.279,258.18,135.486,257.9729,135.61Zm2.0811-2.508c-.2071.11-.3721.096-.3721-.028l.3721-.2061.3718-.207a.7751.7751,0,0,1-.3718.4411Zm-1.116-1.392-.6072.7579.0142,2.6741-.73.427v-2.191l-2.5641,3.1829,3.9141.3311,3.9-4.8511-2.4531-.2069v.813l-.73.427v-1.295Z"/>
          <path class="cls-1" d="M258.855,122.9729c11.4519-6.615,20.7668-1.3089,20.8088,11.8521s-9.219,29.187-20.6709,35.802-20.768,1.3089-20.809-11.851S247.4029,129.5879,258.855,122.9729Z"/>
          <path class="cls-29" d="M262.8928,141.136v3.886l2.9351-3.6381-2.9351-.2479"/>
          <path class="cls-1" d="M258.855,122.9729c11.4519-6.615,20.7668-1.3089,20.8088,11.8521s-9.219,29.187-20.6709,35.802-20.768,1.3089-20.809-11.851S247.4029,129.5879,258.855,122.9729Z"/>
          <path class="cls-29" d="M270.6929,129.3949l-.4971.6061.4971.042.4819-.6071-.4819-.041"/>
          <path class="cls-1" d="M258.855,122.9729c11.4519-6.615,20.7668-1.3089,20.8088,11.8521s-9.219,29.187-20.6709,35.802-20.768,1.3089-20.809-11.851S247.4029,129.5879,258.855,122.9729Z"/>
          <path class="cls-29" d="M268.7488,135.72l-.4958.6069.9238.0691.11-.634-.5381-.042"/>
          <path class="cls-1" d="M258.855,122.9729c11.4519-6.615,20.7668-1.3089,20.8088,11.8521s-9.219,29.187-20.6709,35.802-20.768,1.3089-20.809-11.851S247.4029,129.5879,258.855,122.9729Z"/>
          <path class="cls-27" d="M269.0249,137.6909l-.7441,4.4791v-.028l-1.3369,8.434-2.0259,12.789,2.6328.22a45.65,45.65,0,0,0,3.2241-3.983l-.0549-21.773Z"/>
          <path class="cls-1" d="M258.855,122.9729c11.4519-6.615,20.7668-1.3089,20.8088,11.8521s-9.219,29.187-20.6709,35.802-20.768,1.3089-20.809-11.851S247.4029,129.5879,258.855,122.9729Z"/>
          <path class="cls-28" d="M271.6848,136.616l-.979,1.213.0552,21.773a50.6924,50.6924,0,0,0,4.824-8.172l-.0281-.1241-2.5911-12.885-.771,10.57-.4829.6069Zm.7442-.923-.262.3169.3308.0271Z"/>
          <path class="cls-1" d="M258.855,122.9729c11.4519-6.615,20.7668-1.3089,20.8088,11.8521s-9.219,29.187-20.6709,35.802-20.768,1.3089-20.809-11.851S247.4029,129.5879,258.855,122.9729Z"/>
          <path class="cls-29" d="M272.1809,136.01l-.4961.6061.9781.083.4961-.6071-.647-.0549-.3311-.0271"/>
          <path class="cls-1" d="M258.855,122.9729c11.4519-6.615,20.7668-1.3089,20.8088,11.8521s-9.219,29.187-20.6709,35.802-20.768,1.3089-20.809-11.851S247.4029,129.5879,258.855,122.9729Z"/>
          <path class="cls-27" d="M271.6848,136.616h0l.0411,12.968.937-12.885-.9781-.083"/>
          <path class="cls-1" d="M258.855,122.9729c11.4519-6.615,20.7668-1.3089,20.8088,11.8521s-9.219,29.187-20.6709,35.802-20.768,1.3089-20.809-11.851S247.4029,129.5879,258.855,122.9729Z"/>
          <path class="cls-28" d="M273.159,136.0919l-.4822.6071-.9368,12.885.4819-.607.772-10.569Z"/>
          <path class="cls-1" d="M258.855,122.9729c11.4519-6.615,20.7668-1.3089,20.8088,11.8521s-9.219,29.187-20.6709,35.802-20.768,1.3089-20.809-11.851S247.4029,129.5879,258.855,122.9729Z"/>
          <path class="cls-27" d="M268.253,136.3271l.0278,5.8011v.0279l.7441-4.465-.041-.0139.1929-1.281-.9238-.0691"/>
          <path class="cls-1" d="M258.855,122.9729c11.4519-6.615,20.7668-1.3089,20.8088,11.8521s-9.219,29.187-20.6709,35.802-20.768,1.3089-20.809-11.851S247.4029,129.5879,258.855,122.9729Z"/>
          <path class="cls-30" d="M271.1748,129.4359l-.4819.6071.0129,7.786.979-1.213h0l.4961-.6061.2481-.3169.0139-.014-1.2681-6.2431"/>
          <path class="cls-1" d="M258.855,122.9729c11.4519-6.615,20.7668-1.3089,20.8088,11.8521s-9.219,29.187-20.6709,35.802-20.768,1.3089-20.809-11.851S247.4029,129.5879,258.855,122.9729Z"/>
          <path class="cls-31" d="M270.1958,130.001l-.9089,5.761-.11.634-.1929,1.281.041.0139,1.6809.1381-.0129-7.786-.4971-.042"/>
          <path class="cls-1" d="M258.855,122.9729c11.4519-6.615,20.7668-1.3089,20.8088,11.8521s-9.219,29.187-20.6709,35.802-20.768,1.3089-20.809-11.851S247.4029,129.5879,258.855,122.9729Z"/>
          <path class="cls-29" d="M256.553,150.314l-1.46,1.819,3.9131.331,3.9-4.8511-1.4739-.124v.4411c0,.896-1.0891,2.2459-2.439,3.0319s-2.44.6891-2.4531-.207h0Z"/>
          <path class="cls-1" d="M258.855,122.9729c11.4519-6.615,20.7668-1.3089,20.8088,11.8521s-9.219,29.187-20.6709,35.802-20.768,1.3089-20.809-11.851S247.4029,129.5879,258.855,122.9729Z"/>
          <path class="cls-28" d="M259.0059,152.464l-2.949,19.6239a24.2373,24.2373,0,0,0,2.936-1.4609,29.9228,29.9228,0,0,0,3.045-2.012Z"/>
          <path class="cls-1" d="M258.855,122.9729c11.4519-6.615,20.7668-1.3089,20.8088,11.8521s-9.219,29.187-20.6709,35.802-20.768,1.3089-20.809-11.851S247.4029,129.5879,258.855,122.9729Z"/>
          <path class="cls-32" d="M262.9058,147.6129l-3.9,4.8511,3.0459,16.137c.854-.6341,1.6811-1.323,2.4941-2.0391l-1.019-11.8929-.2349-2.729c-.0271.014-.0691.0279-.0962.042l-2.3569,1.364h0c-.33.193-.634.11-.73-.193a1.3948,1.3948,0,0,1,.2891-1.158,1.6159,1.6159,0,0,1,.4409-.427.6766.6766,0,0,1,.469-.096v-.042a1.1426,1.1426,0,0,1,.2619-.661.75.75,0,0,1,.2342-.193.3777.3777,0,0,1,.2888-.055,3.2587,3.2587,0,0,1,.9512-1.53Z"/>
          <path class="cls-1" d="M258.855,122.9729c11.4519-6.615,20.7668-1.3089,20.8088,11.8521s-9.219,29.187-20.6709,35.802-20.768,1.3089-20.809-11.851S247.4029,129.5879,258.855,122.9729Z"/>
          <path class="cls-27" d="M255.0789,152.133l-.4131,5.733-1.1028,15.0759a19.7432,19.7432,0,0,0,2.4939-.854l2.949-19.6239Z"/>
          <path class="cls-1" d="M258.855,122.9729c11.4519-6.615,20.7668-1.3089,20.8088,11.8521s-9.219,29.187-20.6709,35.802-20.768,1.3089-20.809-11.851S247.4029,129.5879,258.855,122.9729Z"/>
          <path class="cls-31" d="M261.4319,147.93l-.386.221a5.9238,5.9238,0,0,1-2.053,1.929,2.5426,2.5426,0,0,1-2.0539.441l-.386.22c0,.896,1.1028.979,2.4529.207S261.4319,148.826,261.4319,147.93Z"/>
          <path class="cls-1" d="M258.855,122.9729c11.4519-6.615,20.7668-1.3089,20.8088,11.8521s-9.219,29.187-20.6709,35.802-20.768,1.3089-20.809-11.851S247.4029,129.5879,258.855,122.9729Z"/>
          <path class="cls-31" d="M256.553,149.928h0v.813h0l.386-.22A.6164.6164,0,0,1,256.553,149.928Zm4.8789-2.811h0a2.2333,2.2333,0,0,1-.386,1.047l.386-.22Z"/>
          <path class="cls-1" d="M258.855,122.9729c11.4519-6.615,20.7668-1.3089,20.8088,11.8521s-9.219,29.187-20.6709,35.802-20.768,1.3089-20.809-11.851S247.4029,129.5879,258.855,122.9729Z"/>
          <path class="cls-30" d="M258.9929,146.841c-1.351.786-2.44,2.136-2.44,3.032v.055a.63.63,0,0,0,.386.593,2.5293,2.5293,0,0,0,2.0539-.441,5.9247,5.9247,0,0,0,2.053-1.929,2.2414,2.2414,0,0,0,.386-1.0481v-.0549C261.4319,146.1659,260.3289,146.07,258.9929,146.841Z"/>
          <path class="cls-1" d="M258.855,122.9729c11.4519-6.615,20.7668-1.3089,20.8088,11.8521s-9.219,29.187-20.6709,35.802-20.768,1.3089-20.809-11.851S247.4029,129.5879,258.855,122.9729Z"/>
          <path class="cls-31" d="M258.345,135.1549l-.3721.2071-.372.207c0,.1379.165.151.372.027A.6794.6794,0,0,0,258.345,135.1549Z"/>
          <path class="cls-1" d="M258.855,122.9729c11.4519-6.615,20.7668-1.3089,20.8088,11.8521s-9.219,29.187-20.6709,35.802-20.768,1.3089-20.809-11.851S247.4029,129.5879,258.855,122.9729Z"/>
          <path class="cls-31" d="M257.5869,128.6919h0l.014,4.6861v2.191l.73-.427-.0139-2.6741-.0129-4.1759a.6713.6713,0,0,1-.3721.455c-.207.11-.373.097-.373-.027C257.5869,128.706,257.5869,128.706,257.5869,128.6919Zm.73-.4129Z"/>
          <path class="cls-1" d="M258.855,122.9729c11.4519-6.615,20.7668-1.3089,20.8088,11.8521s-9.219,29.187-20.6709,35.802-20.768,1.3089-20.809-11.851S247.4029,129.5879,258.855,122.9729Z"/>
          <path class="cls-30" d="M257.959,128.2649a.7237.7237,0,0,0-.3581.427v.0281c0,.137.165.151.372.027a.6688.6688,0,0,0,.3721-.455v-.013C258.304,128.1549,258.1519,128.1549,257.959,128.2649Z"/>
          <path class="cls-1" d="M258.855,122.9729c11.4519-6.615,20.7668-1.3089,20.8088,11.8521s-9.219,29.187-20.6709,35.802-20.768,1.3089-20.809-11.851S247.4029,129.5879,258.855,122.9729Z"/>
          <path class="cls-31" d="M260.4119,132.6471l-.3721.207-.3718.2069c0,.1371.1648.151.3718.027A.6242.6242,0,0,0,260.4119,132.6471Z"/>
          <path class="cls-1" d="M258.855,122.9729c11.4519-6.615,20.7668-1.3089,20.8088,11.8521s-9.219,29.187-20.6709,35.802-20.768,1.3089-20.809-11.851S247.4029,129.5879,258.855,122.9729Z"/>
          <path class="cls-31" d="M259.668,126.198h0l.0139,5.581v1.295l.73-.427v-.813l-.0139-6.05a.6688.6688,0,0,1-.3721.4549c-.2061.11-.3721.0971-.3721-.027C259.668,126.2119,259.668,126.2119,259.668,126.198Zm.73-.427Z"/>
          <path class="cls-1" d="M258.855,122.9729c11.4519-6.615,20.7668-1.3089,20.8088,11.8521s-9.219,29.187-20.6709,35.802-20.768,1.3089-20.809-11.851S247.4029,129.5879,258.855,122.9729Z"/>
          <path class="cls-30" d="M260.0259,125.771a.7214.7214,0,0,0-.3579.427v.027c0,.1379.1648.152.3718.028a.67.67,0,0,0,.3721-.455v-.014C260.3848,125.66,260.219,125.66,260.0259,125.771Z"/>
          <path class="cls-1" d="M258.855,122.9729c11.4519-6.615,20.7668-1.3089,20.8088,11.8521s-9.219,29.187-20.6709,35.802-20.768,1.3089-20.809-11.851S247.4029,129.5879,258.855,122.9729Z"/>
          <path class="cls-28" d="M247.2509,152.106l-.978,1.212.0549,19.6659c.3169.0961.648.1791.979.2481l-.0559-19.183Z"/>
          <path class="cls-1" d="M258.855,122.9729c11.4519-6.615,20.7668-1.3089,20.8088,11.8521s-9.219,29.187-20.6709,35.802-20.768,1.3089-20.809-11.851S247.4029,129.5879,258.855,122.9729Z"/>
          <path class="cls-27" d="M247.2509,152.106v1.943l.0559,19.183a7.6531,7.6531,0,0,0,.978.151l-.0549-21.208Z"/>
          <path class="cls-1" d="M258.855,122.9729c11.4519-6.615,20.7668-1.3089,20.8088,11.8521s-9.219,29.187-20.6709,35.802-20.768,1.3089-20.809-11.851S247.4029,129.5879,258.855,122.9729Z"/>
          <path class="cls-30" d="M247.72,143.065l-.4961.607,1.0061,8.516,3.418-4.244-3.928-4.879"/>
          <path class="cls-1" d="M258.855,122.9729c11.4519-6.615,20.7668-1.3089,20.8088,11.8521s-9.219,29.187-20.6709,35.802-20.768,1.3089-20.809-11.851S247.4029,129.5879,258.855,122.9729Z"/>
          <path class="cls-31" d="M246.742,143.63l-3.9,9.3991,3.4312.289.9509-9.646-.4819-.0421"/>
          <path class="cls-1" d="M258.855,122.9729c11.4519-6.615,20.7668-1.3089,20.8088,11.8521s-9.219,29.187-20.6709,35.802-20.768,1.3089-20.809-11.851S247.4029,129.5879,258.855,122.9729Z"/>
          <path class="cls-28" d="M251.648,147.944l-3.418,4.244.0549,21.209a12.9943,12.9943,0,0,0,2.2051.0549l1.2129-1.5019-.0281-10.377Z"/>
          <path class="cls-1" d="M258.855,122.9729c11.4519-6.615,20.7668-1.3089,20.8088,11.8521s-9.219,29.187-20.6709,35.802-20.768,1.3089-20.809-11.851S247.4029,129.5879,258.855,122.9729Z"/>
          <path class="cls-27" d="M242.8418,153.029l.0552,18.108a9.8648,9.8648,0,0,0,3.4309,1.8469l-.0549-19.6659Z"/>
          <path class="cls-1" d="M258.855,122.9729c11.4519-6.615,20.7668-1.3089,20.8088,11.8521s-9.219,29.187-20.6709,35.802-20.768,1.3089-20.809-11.851S247.4029,129.5879,258.855,122.9729Z"/>
          <path class="cls-29" d="M247.2239,143.672l-.9509,9.646.978-1.212.979.082-1.0061-8.516"/>
          <path class="cls-1" d="M258.855,122.9729c11.4519-6.615,20.7668-1.3089,20.8088,11.8521s-9.219,29.187-20.6709,35.802-20.768,1.3089-20.809-11.851S247.4029,129.5879,258.855,122.9729Z"/>
          <path class="cls-29" d="M247.2239,143.024l-.4819.6059.4819.0421.4961-.607-.4961-.041"/>
          <path class="cls-1" d="M258.855,122.9729c11.4519-6.615,20.7668-1.3089,20.8088,11.8521s-9.219,29.187-20.6709,35.802-20.768,1.3089-20.809-11.851S247.4029,129.5879,258.855,122.9729Z"/>
          <path class="cls-33" d="M263.3469,148.7571a1.7628,1.7628,0,0,0-.3171.234,3.145,3.145,0,0,0-.95,1.53.47.47,0,0,0-.29.055.946.946,0,0,0-.2339.193,1.0917,1.0917,0,0,0-.2619.661v.042a.6065.6065,0,0,0-.4681.096,1.6523,1.6523,0,0,0-.7309,1.585c.11.303.4.386.7309.193h0l2.356-1.364c.0281-.0141.0691-.028.0969-.042s.0552-.027.0821-.041c.0549-.028.11-.069.1789-.11l1.199-.689c.0142,0,.0142-.014.0281-.014a1.6507,1.6507,0,0,0,.6611-.813,1.039,1.039,0,0,0,0-.91.4782.4782,0,0,0-.6611-.0549c-.0139,0-.0139.0139-.0281.0139v.0141l-.0139.013a.788.788,0,0,0-1.2119-.661A.6.6,0,0,0,263.3469,148.7571Z"/>
          <path class="cls-1" d="M258.855,122.9729c11.4519-6.615,20.7668-1.3089,20.8088,11.8521s-9.219,29.187-20.6709,35.802-20.768,1.3089-20.809-11.851S247.4029,129.5879,258.855,122.9729Z"/>
          <path class="cls-33" d="M262.7,134.6871a2.2459,2.2459,0,0,0-1.02,1.75,1.0411,1.0411,0,0,0,.0139.2071,1.4314,1.4314,0,0,0-.6341,1.13c.0142.399.303.565.647.358a.0139.0139,0,0,0,.0142-.0136v0l1.144-.661,1.668-.9649c.0129,0,.0129-.0141.0268-.0141a1.4887,1.4887,0,0,0,.5652-.6889.8362.8362,0,0,0,0-.772c-.124-.165-.331-.1791-.5652-.041-.0139,0-.0139.014-.0268.014h0a1.1021,1.1021,0,0,0-.4.4c-.0549-.1659-.2209-.193-.4-.0969v-.0551c-.0139-.5649-.386-.827-.8679-.6339C262.81,134.632,262.7549,134.659,262.7,134.6871Z"/>
          <path class="cls-1" d="M258.855,122.9729c11.4519-6.615,20.7668-1.3089,20.8088,11.8521s-9.219,29.187-20.6709,35.802-20.768,1.3089-20.809-11.851S247.4029,129.5879,258.855,122.9729Z"/>
          <path class="cls-33" d="M252.0889,141.095a1.6616,1.6616,0,0,0-.7029.964.2171.2171,0,0,0-.124.042.4239.4239,0,0,0-.124.11.58.58,0,0,0-.1521.3029c-.0281.0141-.055.0281-.083.042a.9411.9411,0,0,0-.399.73.2639.2639,0,0,0,.4131.2621l1.0889-.634c.0271-.0141.0691-.028.0959-.041a.4512.4512,0,0,0,.0972-.069l.896-.5241a.9438.9438,0,0,0,.3989-.73c0-.262-.1789-.373-.4131-.262l-.2348.1379a.4331.4331,0,0,0-.6612-.3729A.1224.1224,0,0,0,252.0889,141.095Z"/>
        </g>
      </g>
    </g>
    <path class="cls-37" d="M115.1509,193.976v6.66c0,5.5189,3.8811,12.24,8.66,15l67.2871,38.8479c10.5159,6.0711,27.59,6.0711,38.106,0l67.2869-38.8479c4.7788-2.76,8.66-9.4811,8.66-15v-6.66a15.3231,15.3231,0,0,1-6.928,12l-69.019,39.848c-10.5159,6.0709-27.59,6.0709-38.106,0l-69.019-39.848A15.3231,15.3231,0,0,1,115.1509,193.976Z"/>
    <path class="cls-38" d="M115.1509,306.6559v6.66c0,5.5191,3.8811,12.241,8.66,15L191.098,367.164c10.5159,6.071,27.59,6.071,38.106,0l67.2869-38.8481c4.7788-2.759,8.66-9.4809,8.66-15v-6.66a15.3231,15.3231,0,0,1-6.928,12l-69.019,39.848c-10.5159,6.0711-27.59,6.0711-38.106,0l-69.019-39.848A15.3231,15.3231,0,0,1,115.1509,306.6559Z"/>
    <path class="cls-39" d="M115.1509,269.128v6.66c0,5.52,3.8811,12.241,8.66,15l67.287,38.8491c10.5159,6.0709,27.59,6.0709,38.106,0l67.2871-38.849c4.7788-2.759,8.66-9.4811,8.66-15v-6.66a15.3231,15.3231,0,0,1-6.928,12l-69.019,39.848c-10.5159,6.071-27.59,6.071-38.106,0l-69.019-39.848A15.323,15.323,0,0,1,115.1509,269.128Z"/>
    <path class="cls-40" d="M115.1509,231.6v6.661c0,5.5189,3.8811,12.24,8.66,15l67.2871,38.8479c10.5159,6.0711,27.59,6.0711,38.106,0l67.2869-38.8479c4.7788-2.76,8.66-9.4811,8.66-15V231.6a15.32,15.32,0,0,1-6.928,12l-69.019,39.849c-10.5159,6.0709-27.59,6.0709-38.106,0L122.0789,243.6A15.32,15.32,0,0,1,115.1509,231.6Z"/>
    <path class="cls-41" d="M.1509,344.184v6.66c0,5.5189,3.8811,12.24,8.66,15L133.5979,437.89c10.5159,6.0711,27.59,6.0711,38.106,0l124.787-72.0459c4.7788-2.76,8.66-9.4811,8.66-15v-6.66a15.3231,15.3231,0,0,1-6.928,12L171.7039,429.23c-10.5159,6.0709-27.59,6.0709-38.106,0L7.0789,356.184A15.3231,15.3231,0,0,1,.1509,344.184Z"/>
    <path class="cls-6" d="M235.1509,386.825l-42.5,24.537,5,2.8869,42.5-24.5379Z"/>
    <path class="cls-6" d="M297.6509,356.5139l-5-2.8869-45,25.9809v5.7731Z"/>
    <path class="cls-3" d="M.1509,352.184l7.5,12.99V884.789l-7.5-4.33Z"/>
    <path class="cls-42" d="M.1509,381.711v6.661c0,5.519,3.8811,12.24,8.66,15L133.598,475.418c10.5159,6.0709,27.59,6.0709,38.106,0l124.7869-72.046c4.7788-2.76,8.66-9.481,8.66-15v-6.661a15.32,15.32,0,0,1-6.928,12l-126.519,73.0461c-10.5159,6.071-27.59,6.071-38.106,0L7.0789,393.711A15.32,15.32,0,0,1,.1509,381.711Z"/>
    <path class="cls-43" d="M.012,569.351,0,568.69l.064,7.321C.1118,581.53,4.0308,588.252,8.81,591.013L190.9509,696.248c10.513,6.074,27.586,6.077,38.1021.006L411.34,591.01c4.78-2.7589,8.66-9.48,8.66-15v-6.66a15.32,15.32,0,0,1-6.9282,12L229.053,687.594c-10.5161,6.0709-27.5891,6.068-38.1021-.0061L7.0779,581.352A15.6846,15.6846,0,0,1,.012,569.351Z"/>
    <path class="cls-44" d="M.1509,494.295v6.66c0,5.519,3.8811,12.24,8.66,15L133.598,588.001c10.5159,6.0709,27.59,6.0709,38.106,0l124.7869-72.046c4.7788-2.76,8.66-9.481,8.66-15v-6.66a15.3231,15.3231,0,0,1-6.928,12l-126.519,73.046c-10.5159,6.071-27.59,6.071-38.106,0L7.0789,506.295A15.3231,15.3231,0,0,1,.1509,494.295Z"/>
    <path class="cls-45" d="M.1509,456.7671v6.66c0,5.519,3.8811,12.241,8.66,15l124.787,72.0458c10.5159,6.0711,27.59,6.0711,38.106,0l124.787-72.0458c4.7788-2.759,8.66-9.481,8.66-15v-6.66a15.3231,15.3231,0,0,1-6.928,12l-126.519,73.046c-10.5159,6.0709-27.59,6.0709-38.106,0L7.0789,468.7671A15.3231,15.3231,0,0,1,.1509,456.7671Z"/>
    <path class="cls-46" d="M.1509,419.2389v6.66c0,5.52,3.8811,12.2409,8.66,15l124.7871,72.046c10.5159,6.071,27.59,6.071,38.106,0L296.4909,440.899c4.7788-2.7591,8.66-9.48,8.66-15v-6.66a15.3231,15.3231,0,0,1-6.928,12l-126.519,73.046c-10.5159,6.0711-27.59,6.0711-38.106,0L7.0789,431.2389A15.3231,15.3231,0,0,1,.1509,419.2389Z"/>
    <path class="cls-47" d="M.1509,531.8219v6.662c0,5.52,3.88,12.2421,8.6589,15.0031L190.9509,658.722c10.513,6.0739,27.5879,6.08,38.105.0119L411.4888,553.48c4.781-2.758,8.6621-9.478,8.6621-14.9971v-6.661a15.3159,15.3159,0,0,1-6.929,11.9981L229.0559,650.074c-10.5171,6.067-27.592,6.062-38.105-.0121L7.0779,543.825A15.33,15.33,0,0,1,.1509,531.8219Z"/>
    <path class="cls-48" d="M.1629,644.4071l-.012-.662.064,7.3209c.0481,5.5191,3.967,12.2421,8.7461,15.0031l182.1408,105.235c10.5132,6.074,27.5862,6.077,38.1021.006l182.287-105.2442c4.7788-2.76,8.66-9.4809,8.66-15v-6.66a15.3228,15.3228,0,0,1-6.928,12L229.2039,762.649c-10.5159,6.071-27.5889,6.069-38.1021-.006L7.2288,656.408A15.6837,15.6837,0,0,1,.1629,644.4071Z"/>
    <path class="cls-49" d="M.012,606.8789,0,606.2179l.064,7.3211C.1118,619.058,4.0308,625.78,8.81,628.5409L190.9509,733.776c10.513,6.0739,27.586,6.077,38.1021.006L411.34,628.538c4.78-2.759,8.66-9.4811,8.66-15v-6.66a15.3227,15.3227,0,0,1-6.9282,12L229.053,725.122c-10.5161,6.071-27.5891,6.068-38.1021-.006L7.0779,618.88A15.6859,15.6859,0,0,1,.012,606.8789Z"/>
    <path class="cls-50" d="M.1629,681.935l-.012-.662.064,7.321c.0481,5.5189,3.967,12.2411,8.7461,15.002L191.1018,808.831c10.5132,6.075,27.5862,6.077,38.1021.0059L411.4909,703.594c4.7788-2.76,8.66-9.4811,8.66-15v-6.66a15.3231,15.3231,0,0,1-6.928,12l-184.019,106.243c-10.5159,6.071-27.5889,6.068-38.1021-.006L7.2288,693.9359A15.6848,15.6848,0,0,1,.1629,681.935Z"/>
    <path class="cls-51" d="M.1629,719.4619l-.012-.6609.064,7.321c.0481,5.519,3.967,12.2409,8.7461,15.002L191.1018,846.359c10.5132,6.075,27.5862,6.0769,38.1021.006l182.287-105.243c4.7788-2.76,8.66-9.481,8.66-15v-6.661a15.32,15.32,0,0,1-6.928,12L229.2039,837.705c-10.5159,6.071-27.5889,6.068-38.1021-.0061L7.2288,731.463A15.682,15.682,0,0,1,.1629,719.4619Z"/>
    <path class="cls-52" d="M.1629,756.99l-.012-.6611.064,7.3211c.0481,5.519,3.967,12.241,8.7461,15.0019L191.1018,883.8871c10.5132,6.074,27.5862,6.077,38.1021.006L411.4909,778.649c4.7788-2.759,8.66-9.481,8.66-15v-6.66a15.323,15.323,0,0,1-6.928,12L229.2039,875.233c-10.5159,6.071-27.5889,6.068-38.1021-.006L7.2288,768.991A15.6837,15.6837,0,0,1,.1629,756.99Z"/>
    <path class="cls-53" d="M.1629,794.518l-.012-.6609.064,7.32c.0481,5.519,3.967,12.242,8.7461,15.003L191.1018,921.4149c10.5132,6.0741,27.5862,6.0771,38.1021.0061l182.287-105.2439c4.7788-2.759,8.66-9.481,8.66-15v-6.66a15.3231,15.3231,0,0,1-6.928,12L229.2039,912.76c-10.5159,6.071-27.5889,6.0689-38.1021-.006L7.2288,806.519A15.6833,15.6833,0,0,1,.1629,794.518Z"/>
  </g>
</svg>
