<svg id="Layer_1" data-name="Layer 1" xmlns="http://www.w3.org/2000/svg" xmlns:xlink="http://www.w3.org/1999/xlink" viewBox="0 0 270 502.294">
  <defs>
    <style>
      .cls-1 {
        fill: #d0c9cb;
      }

      .cls-2 {
        fill: #fde2da;
      }

      .cls-3 {
        fill: #ddb7ac;
      }

      .cls-4 {
        fill: #9b7d74;
      }

      .cls-5 {
        fill: #535353;
      }

      .cls-6 {
        fill: #151515;
      }

      .cls-7 {
        fill: #eccdc4;
      }

      .cls-8 {
        fill: #cea59a;
      }

      .cls-9 {
        fill: #86675e;
      }

      .cls-10 {
        fill: #424242;
      }

      .cls-11 {
        fill: #8b8b8b;
      }

      .cls-12 {
        fill: #fbded6;
      }

      .cls-13 {
        fill: #d1d1d1;
      }

      .cls-14 {
        fill: url(#linear-gradient);
      }

      .cls-15 {
        fill: url(#linear-gradient-2);
      }

      .cls-16 {
        fill: #b9b9b9;
      }

      .cls-17 {
        fill: url(#linear-gradient-3);
      }

      .cls-18 {
        fill: url(#linear-gradient-4);
      }

      .cls-19 {
        fill: url(#linear-gradient-5);
      }

      .cls-20 {
        fill: url(#linear-gradient-6);
      }

      .cls-21 {
        fill: url(#linear-gradient-7);
      }

      .cls-22 {
        fill: url(#linear-gradient-8);
      }

      .cls-23 {
        fill: url(#linear-gradient-9);
      }

      .cls-24 {
        fill: url(#linear-gradient-10);
      }

      .cls-25 {
        fill: #2e2e2e;
      }

      .cls-26 {
        fill: #5d5d5d;
      }

      .cls-27 {
        fill: url(#linear-gradient-11);
      }

      .cls-28 {
        fill: url(#linear-gradient-12);
      }

      .cls-29 {
        fill: url(#linear-gradient-13);
      }

      .cls-30 {
        fill: url(#linear-gradient-14);
      }

      .cls-31 {
        fill: #747474;
      }

      .cls-32 {
        fill: #959293;
      }

      .cls-33 {
        fill: #555454;
      }

      .cls-34 {
        fill: #209369;
      }
    </style>
    <linearGradient id="linear-gradient" x1="-2958.3154" y1="-6266.9102" x2="-2959.2822" y2="-6266.4033" gradientTransform="translate(44509 217109.8135) scale(15 34.641)" gradientUnits="userSpaceOnUse">
      <stop offset="0" stop-color="#775f5f"/>
      <stop offset="0.9826" stop-color="#594040"/>
    </linearGradient>
    <linearGradient id="linear-gradient-2" x1="-2957.5579" y1="-6267.6513" x2="-2959.2835" y2="-6266.2556" gradientTransform="translate(44524 217109.8135) scale(15 34.641)" gradientUnits="userSpaceOnUse">
      <stop offset="0" stop-color="#f9bcac"/>
      <stop offset="0.9739" stop-color="#bc938c"/>
    </linearGradient>
    <linearGradient id="linear-gradient-3" x1="-2958.4422" y1="-6266.8674" x2="-2959.2903" y2="-6266.3608" gradientTransform="translate(44539 217127.1338) scale(15 34.641)" xlink:href="#linear-gradient"/>
    <linearGradient id="linear-gradient-4" x1="-2959.3028" y1="-6266.411" x2="-2958.2682" y2="-6266.9178" gradientTransform="translate(44539 217161.7744) scale(15 34.641)" xlink:href="#linear-gradient"/>
    <linearGradient id="linear-gradient-5" x1="-2958.3817" y1="-6266.8916" x2="-2959.2638" y2="-6266.3921" gradientTransform="translate(44479 217127.1338) scale(15 34.641)" xlink:href="#linear-gradient"/>
    <linearGradient id="linear-gradient-6" x1="-2958.291" y1="-6266.9399" x2="-2959.5632" y2="-6266.2275" gradientTransform="translate(44479 217161.7744) scale(15 34.641)" xlink:href="#linear-gradient"/>
    <linearGradient id="linear-gradient-7" x1="-2958.6526" y1="-6266.7715" x2="-2959.2944" y2="-6266.2207" gradientTransform="translate(44554 217127.1338) scale(15 34.641)" xlink:href="#linear-gradient-2"/>
    <linearGradient id="linear-gradient-8" x1="-2958.5617" y1="-6266.8855" x2="-2959.2663" y2="-6266.157" gradientTransform="translate(44554 217161.7744) scale(15 34.641)" xlink:href="#linear-gradient-2"/>
    <linearGradient id="linear-gradient-9" x1="-2957.7959" y1="-6267.4956" x2="-2959.3275" y2="-6266.1987" gradientTransform="translate(44494 217127.1338) scale(15 34.641)" xlink:href="#linear-gradient-2"/>
    <linearGradient id="linear-gradient-10" x1="-2957.5499" y1="-6267.7072" x2="-2959.3438" y2="-6266.1833" gradientTransform="translate(44494 217161.7744) scale(15 34.641)" xlink:href="#linear-gradient-2"/>
    <linearGradient id="linear-gradient-11" x1="-2959.2667" y1="-6266.6736" x2="-2958.2667" y2="-6266.6736" gradientTransform="translate(44509 217144.4541) scale(15 34.641)" xlink:href="#linear-gradient"/>
    <linearGradient id="linear-gradient-12" x1="-2958.2725" y1="-6266.9319" x2="-2959.2562" y2="-6266.4177" gradientTransform="translate(44509 217179.0947) scale(15 34.641)" xlink:href="#linear-gradient"/>
    <linearGradient id="linear-gradient-13" x1="-2958.7583" y1="-6266.683" x2="-2959.2488" y2="-6266.132" gradientTransform="translate(44524 217144.4541) scale(15 34.641)" xlink:href="#linear-gradient-2"/>
    <linearGradient id="linear-gradient-14" x1="-2958.3159" y1="-6267.1408" x2="-2959.2827" y2="-6266.1386" gradientTransform="translate(44524 217179.0947) scale(15 34.641)" xlink:href="#linear-gradient-2"/>
  </defs>
  <title>Artboard 54</title>
  <g id="Group">
    <path id="Path" class="cls-1" d="M5,409.918l130,75.056,130-75.056L135,334.863Z"/>
    <path id="Path-2" class="cls-1" d="M0,418.579l135,77.942,135-77.942L135,340.636Z"/>
    <path id="Path-4" class="cls-2" d="M25,127.017l110,63.508,110-63.508v-5.774L135,57.735,25,121.243Z"/>
    <path id="Path-5" class="cls-3" d="M135,184.752l110-63.509V357.957L135,421.465Z"/>
    <path id="Path-6" class="cls-4" d="M135,184.752,25,121.243V357.957l110,63.508Z"/>
    <path id="Path-7" class="cls-5" d="M140,216.506l20-11.547v28.867l-20,11.547Z"/>
    <path id="Path-8" class="cls-5" d="M140,256.92l20-11.547v28.868l-20,11.547Z"/>
    <path id="Path-9" class="cls-5" d="M140,297.335l20-11.547v28.867l-20,11.547Z"/>
    <path id="Path-10" class="cls-5" d="M140,337.749l20-11.547V355.07l-20,11.547Z"/>
    <path id="Path-11" class="cls-5" d="M140,378.164l20-11.547v28.868l-20,11.547Z"/>
    <path id="Path-12" class="cls-6" d="M130,216.506l-20-11.547v28.867l20,11.547Z"/>
    <path id="Path-13" class="cls-6" d="M130,256.92l-20-11.547v28.868l20,11.547Z"/>
    <path id="Path-14" class="cls-6" d="M130,297.335l-20-11.547v28.867l20,11.547Z"/>
    <path id="Path-15" class="cls-6" d="M130,337.749l-20-11.547V355.07l20,11.547Z"/>
    <path id="Path-16" class="cls-6" d="M130,378.164l-20-11.547v28.868l20,11.547Z"/>
    <path id="Path-17" class="cls-5" d="M175,196.299l20-11.547v28.867l-20,11.547Z"/>
    <path id="Path-18" class="cls-5" d="M175,236.713l20-11.547v28.868l-20,11.547Z"/>
    <path id="Path-19" class="cls-5" d="M175,277.128l20-11.547v28.867l-20,11.547Z"/>
    <path id="Path-20" class="cls-5" d="M175,317.542l20-11.547v28.868L175,346.41Z"/>
    <path id="Path-21" class="cls-5" d="M175,357.957l20-11.547v28.867l-20,11.547Z"/>
    <path id="Path-22" class="cls-6" d="M95,196.299,75,184.752v28.867l20,11.547Z"/>
    <path id="Path-23" class="cls-6" d="M95,236.713,75,225.166v28.868l20,11.547Z"/>
    <path id="Path-24" class="cls-6" d="M95,277.128,75,265.581v28.867l20,11.547Z"/>
    <path id="Path-25" class="cls-6" d="M95,317.542,75,305.995v28.868L95,346.41Z"/>
    <path id="Path-26" class="cls-6" d="M95,357.957,75,346.41v28.867l20,11.547Z"/>
    <path id="Path-27" class="cls-5" d="M210,176.091l20-11.547v28.868l-20,11.547Z"/>
    <path id="Path-28" class="cls-5" d="M210,216.506l20-11.547v28.867l-20,11.547Z"/>
    <path id="Path-29" class="cls-5" d="M210,256.92l20-11.547v28.868l-20,11.547Z"/>
    <path id="Path-30" class="cls-5" d="M210,297.335l20-11.547v28.867l-20,11.547Z"/>
    <path id="Path-31" class="cls-5" d="M210,337.749l20-11.547V355.07l-20,11.547Z"/>
    <path id="Path-32" class="cls-6" d="M60,176.091,40,164.544v28.868l20,11.547Z"/>
    <path id="Path-33" class="cls-6" d="M60,216.506,40,204.959v28.867l20,11.547Z"/>
    <path id="Path-34" class="cls-6" d="M60,256.92,40,245.373v28.868l20,11.547Z"/>
    <path id="Path-35" class="cls-6" d="M60,297.335,40,285.788v28.867l20,11.547Z"/>
    <path id="Path-36" class="cls-6" d="M60,337.749,40,326.202V355.07l20,11.547Z"/>
    <path id="Path-37" class="cls-7" d="M35,121.243,135,63.508l100,57.735L135,178.978Z"/>
    <path id="Path-38" class="cls-4" d="M135,63.508V75.055l90,51.962,10-5.774Z"/>
    <path id="Path-39" class="cls-3" d="M35,121.243,135,63.508V75.055L45,127.017Z"/>
    <path id="Path-40" class="cls-8" d="M140,187.638v23.094l100-57.735V129.903Z"/>
    <path id="Path-41" class="cls-9" d="M130,187.638v23.094L30,152.997V129.903Z"/>
    <path id="Path-42" class="cls-4" d="M240,152.997l-5-2.886V132.79l5-2.887Z"/>
    <path id="Path-43" class="cls-3" d="M30,152.997l5-2.886V132.79l-5-2.887Z"/>
    <path id="Path-44" class="cls-2" d="M140,210.732l100-57.735-5-2.886-95,54.848Z"/>
    <path id="Path-45" class="cls-2" d="M130,210.732,30,152.997l5-2.886,95,54.848Z"/>
    <path id="Path-46" class="cls-2" d="M140,251.147v-5.774l25-14.433,5,2.886Z"/>
    <path id="Path-47" class="cls-2" d="M140,291.561v-5.773l25-14.434,5,2.887Z"/>
    <path id="Path-48" class="cls-2" d="M140,331.976v-5.774l25-14.433,5,2.886Z"/>
    <path id="Path-49" class="cls-2" d="M140,372.391v-5.774l25-14.434,5,2.887Z"/>
    <path id="Path-50" class="cls-2" d="M140,412.805v-5.773l25-14.434,5,2.887Z"/>
    <path id="Path-51" class="cls-2" d="M130,412.805v-5.773l-25-14.434-5,2.887Z"/>
    <path id="Path-52" class="cls-2" d="M130,372.391v-5.774l-25-14.434-5,2.887Z"/>
    <path id="Path-53" class="cls-2" d="M130,331.976v-5.773l-25-14.434-5,2.887Z"/>
    <path id="Path-54" class="cls-2" d="M130,291.562v-5.774l-25-14.434-5,2.887Z"/>
    <path id="Path-55" class="cls-2" d="M130,251.147v-5.774L105,230.94l-5,2.886Z"/>
    <path id="Path-56" class="cls-2" d="M175,230.94v-5.774l25-14.434,5,2.887Z"/>
    <path id="Path-57" class="cls-2" d="M175,271.354v-5.773l25-14.434,5,2.887Z"/>
    <path id="Path-58" class="cls-2" d="M175,311.769v-5.774l25-14.434,5,2.887Z"/>
    <path id="Path-59" class="cls-2" d="M175,352.183V346.41l25-14.434,5,2.887Z"/>
    <path id="Path-60" class="cls-2" d="M175,392.598v-5.774l25-14.433,5,2.886Z"/>
    <path id="Path-61" class="cls-2" d="M95,392.598v-5.774L70,372.391l-5,2.886Z"/>
    <path id="Path-62" class="cls-2" d="M95,352.183V346.41L70,331.976l-5,2.887Z"/>
    <path id="Path-63" class="cls-2" d="M95,311.769v-5.774L70,291.562l-5,2.886Z"/>
    <path id="Path-64" class="cls-2" d="M95,271.354v-5.773L70,251.147l-5,2.887Z"/>
    <path id="Path-65" class="cls-2" d="M95,230.94v-5.774L70,210.732l-5,2.887Z"/>
    <path id="Path-66" class="cls-2" d="M210,210.732v-5.773l25-14.434,5,2.887Z"/>
    <path id="Path-67" class="cls-2" d="M210,251.147v-5.774l25-14.433,5,2.886Z"/>
    <path id="Path-68" class="cls-2" d="M210,291.561v-5.773l25-14.434,5,2.887Z"/>
    <path id="Path-69" class="cls-2" d="M210,331.976v-5.773l25-14.434,5,2.887Z"/>
    <path id="Path-70" class="cls-2" d="M210,372.391v-5.774l25-14.434,5,2.887Z"/>
    <path id="Path-71" class="cls-2" d="M60,372.391v-5.774L35,352.183l-5,2.887Z"/>
    <path id="Path-72" class="cls-2" d="M60,331.976v-5.773L35,311.769l-5,2.887Z"/>
    <path id="Path-73" class="cls-2" d="M60,291.562v-5.774L35,271.354l-5,2.887Z"/>
    <path id="Path-74" class="cls-2" d="M60,251.147v-5.774L35,230.94l-5,2.886Z"/>
    <path id="Path-75" class="cls-2" d="M60,210.732v-5.773L35,190.525l-5,2.887Z"/>
    <path id="Path-76" class="cls-4" d="M165,202.072l5-2.887v34.641l-5-2.886Z"/>
    <path id="Path-77" class="cls-6" d="M105,404.145v28.867l25,14.434V418.579Z"/>
    <path id="Path-78" class="cls-5" d="M165,404.145v28.867l-25,14.434V418.579Z"/>
    <path id="Path-79" class="cls-6" d="M70,383.938v28.867l25,14.434V398.371Z"/>
    <path id="Path-80" class="cls-5" d="M200,383.938v28.867l-25,14.434V398.371Z"/>
    <path id="Path-81" class="cls-6" d="M50,372.39v28.868l10,5.774V378.164Z"/>
    <path id="Path-82" class="cls-5" d="M220,372.39v28.868l-10,5.774V378.164Z"/>
    <path id="Path-83" class="cls-4" d="M165,242.487l5-2.887v34.641l-5-2.887Z"/>
    <path id="Path-84" class="cls-4" d="M165,282.901l5-2.887v34.641l-5-2.886Z"/>
    <path id="Path-85" class="cls-4" d="M165,323.316l5-2.887V355.07l-5-2.887Z"/>
    <path id="Path-86" class="cls-4" d="M165,363.73l5-2.887v34.642l-5-2.887Z"/>
    <path id="Path-87" class="cls-3" d="M105,363.73l-5-2.887v34.642l5-2.887Z"/>
    <path id="Path-88" class="cls-3" d="M105,323.316l-5-2.887V355.07l5-2.887Z"/>
    <path id="Path-89" class="cls-3" d="M105,282.901l-5-2.887v34.642l5-2.887Z"/>
    <path id="Path-90" class="cls-3" d="M105,242.487l-5-2.887v34.641l5-2.887Z"/>
    <path id="Path-91" class="cls-3" d="M105,202.072l-5-2.887v34.641l5-2.886Z"/>
    <path id="Path-92" class="cls-4" d="M200,181.865l5-2.887v34.641l-5-2.887Z"/>
    <path id="Path-93" class="cls-4" d="M200,222.279l5-2.886v34.641l-5-2.887Z"/>
    <path id="Path-94" class="cls-4" d="M200,262.694l5-2.887v34.641l-5-2.887Z"/>
    <path id="Path-95" class="cls-4" d="M200,303.108l5-2.886v34.641l-5-2.887Z"/>
    <path id="Path-96" class="cls-4" d="M200,343.523l5-2.887v34.641l-5-2.886Z"/>
    <path id="Path-97" class="cls-3" d="M70,343.523l-5-2.887v34.641l5-2.886Z"/>
    <path id="Path-98" class="cls-3" d="M70,303.108l-5-2.886v34.641l5-2.887Z"/>
    <path id="Path-99" class="cls-3" d="M70,262.694l-5-2.887v34.641l5-2.886Z"/>
    <path id="Path-100" class="cls-3" d="M70,222.279l-5-2.886v34.641l5-2.887Z"/>
    <path id="Path-101" class="cls-3" d="M70,181.865l-5-2.887v34.641l5-2.887Z"/>
    <path id="Path-102" class="cls-4" d="M235,161.658l5-2.887v34.641l-5-2.887Z"/>
    <path id="Path-103" class="cls-4" d="M235,202.072l5-2.887v34.641l-5-2.886Z"/>
    <path id="Path-104" class="cls-4" d="M235,242.487l5-2.887v34.641l-5-2.887Z"/>
    <path id="Path-105" class="cls-4" d="M235,282.901l5-2.887v34.642l-5-2.887Z"/>
    <path id="Path-106" class="cls-4" d="M235,323.316l5-2.887V355.07l-5-2.887Z"/>
    <path id="Path-107" class="cls-3" d="M35,323.316l-5-2.887V355.07l5-2.887Z"/>
    <path id="Path-108" class="cls-3" d="M35,282.901l-5-2.887v34.642l5-2.887Z"/>
    <path id="Path-109" class="cls-10" d="M140,418.579l10-5.774v28.868l-10,5.773Z"/>
    <path id="Path-110" d="M130,418.579l-10-5.774v28.868l10,5.773Z"/>
    <path id="Path-111" class="cls-10" d="M160,407.032l10-5.774v28.868l-10,5.773Z"/>
    <path id="Path-112" d="M110,407.032l-10-5.774v28.868l10,5.773Z"/>
    <path id="Path-113" class="cls-10" d="M180,395.485l10-5.774v28.868l-10,5.773Z"/>
    <path id="Path-114" d="M90,395.485l-10-5.774v28.868l10,5.773Z"/>
    <path id="Path-115" class="cls-10" d="M210,378.164l10-5.773v28.867l-10,5.774Z"/>
    <path id="Path-116" class="cls-4" d="M60,375.277l12.5,7.217v49.075L70,433.012l-2.5-1.443L65,433.012l-5-2.886Z"/>
    <path id="Path-117" class="cls-4" d="M25,355.07l12.5,7.217v49.075L35,412.805l-2.5-1.443L30,412.805l-5-2.887Z"/>
    <path id="Path-118" class="cls-4" d="M95,395.485l12.5,7.216v49.075L105,453.22l-2.5-1.444L100,453.22l-5-2.887Z"/>
    <path id="Path-119" class="cls-3" d="M175,395.484l-12.5,7.217v49.075l2.5,1.443,2.5-1.443,2.5,1.444,5-2.887Z"/>
    <path id="Path-120" class="cls-3" d="M210,375.277l-12.5,7.217v49.075l2.5,1.443,2.5-1.443,2.5,1.443,5-2.886Z"/>
    <path id="Path-121" class="cls-3" d="M245,355.07l-12.5,7.217v49.075l2.5,1.443,2.5-1.443,2.5,1.443,5-2.887Z"/>
    <path id="Path-122" d="M60,378.164l-10-5.773v28.867l10,5.774Z"/>
    <path id="Path-123" class="cls-3" d="M35,242.487,30,239.6v34.641l5-2.887Z"/>
    <path id="Path-124" class="cls-3" d="M35,202.072l-5-2.887v34.641l5-2.886Z"/>
    <path id="Path-125" class="cls-3" d="M35,161.658l-5-2.887v34.641l5-2.887Z"/>
    <path id="Path-126" class="cls-4" d="M240,412.805l-5-2.887V363.73l5-2.886Z"/>
    <path id="Path-127" class="cls-4" d="M205,381.051l-5,2.887v46.188l5,2.886Z"/>
    <path id="Path-128" class="cls-4" d="M170,401.258l-5,2.887v46.188l5,2.887Z"/>
    <path id="Path-129" class="cls-3" d="M100,453.22l5-2.887V404.145l-5-2.887Z"/>
    <path id="Path-130" class="cls-3" d="M70,430.126l-5,2.886V381.051l5,2.887Z"/>
    <path id="Path-131" class="cls-3" d="M30,412.805l5-2.887V363.73l-5-2.886Z"/>
    <path id="Path-132" class="cls-3" d="M160,204.959l5-2.887V230.94l-5,2.886Z"/>
    <path id="Path-133" class="cls-3" d="M160,245.373l5-2.886v28.867l-5,2.887Z"/>
    <path id="Path-134" class="cls-3" d="M160,285.788l5-2.887v28.868l-5,2.887Z"/>
    <path id="Path-135" class="cls-3" d="M160,326.203l5-2.887v28.867l-5,2.887Z"/>
    <path id="Path-136" class="cls-3" d="M160,366.617l5-2.887v28.868l-5,2.887Z"/>
    <path id="Path-137" class="cls-4" d="M110,204.959l-5-2.887V230.94l5,2.886Z"/>
    <path id="Path-138" class="cls-4" d="M110,245.373l-5-2.886v28.867l5,2.887Z"/>
    <path id="Path-139" class="cls-4" d="M110,285.788l-5-2.887v28.868l5,2.886Z"/>
    <path id="Path-140" class="cls-4" d="M110,326.202l-5-2.886v28.867l5,2.887Z"/>
    <path id="Path-141" class="cls-4" d="M110,366.617l-5-2.887v28.868l5,2.887Z"/>
    <path id="Path-142" class="cls-3" d="M195,184.752l5-2.887v28.867l-5,2.887Z"/>
    <path id="Path-143" class="cls-3" d="M195,225.166l5-2.886v28.867l-5,2.887Z"/>
    <path id="Path-144" class="cls-3" d="M195,265.581l5-2.887v28.868l-5,2.886Z"/>
    <path id="Path-145" class="cls-3" d="M195,305.995l5-2.886v28.867l-5,2.887Z"/>
    <path id="Path-146" class="cls-3" d="M195,346.41l5-2.887v28.868l-5,2.886Z"/>
    <path id="Path-147" class="cls-4" d="M75,184.752l-5-2.887v28.867l5,2.887Z"/>
    <path id="Path-148" class="cls-4" d="M75,225.166l-5-2.887v28.868l5,2.887Z"/>
    <path id="Path-149" class="cls-4" d="M75,265.581l-5-2.887v28.867l5,2.887Z"/>
    <path id="Path-150" class="cls-4" d="M75,305.995l-5-2.887v28.868l5,2.887Z"/>
    <path id="Path-151" class="cls-4" d="M75,346.41l-5-2.887V372.39l5,2.887Z"/>
    <path id="Path-152" class="cls-3" d="M230,164.544l5-2.886v28.867l-5,2.887Z"/>
    <path id="Path-153" class="cls-3" d="M230,204.959l5-2.887V230.94l-5,2.886Z"/>
    <path id="Path-154" class="cls-3" d="M230,245.373l5-2.886v28.867l-5,2.887Z"/>
    <path id="Path-155" class="cls-3" d="M230,285.788l5-2.887v28.868l-5,2.887Z"/>
    <path id="Path-156" class="cls-3" d="M230,326.203l5-2.887v28.867l-5,2.887Z"/>
    <path id="Path-157" class="cls-4" d="M40,164.544l-5-2.886v28.867l5,2.887Z"/>
    <path id="Path-158" class="cls-4" d="M40,204.959l-5-2.887V230.94l5,2.886Z"/>
    <path id="Path-159" class="cls-4" d="M40,245.373l-5-2.886v28.867l5,2.887Z"/>
    <path id="Path-160" class="cls-4" d="M40,285.788l-5-2.887v28.868l5,2.886Z"/>
    <path id="Path-161" class="cls-4" d="M40,326.202l-5-2.886v28.867l5,2.887Z"/>
    <path id="Path-162" class="cls-3" d="M170,193.412l5-2.887V167.431l-5,2.887Z"/>
    <path id="Path-163" class="cls-4" d="M100,193.412l-5-2.887V167.431l5,2.887Z"/>
    <path id="Path-164" class="cls-3" d="M205,173.205l5-2.887V147.224l-5,2.887Z"/>
    <path id="Path-165" class="cls-4" d="M65,173.205l-5-2.887V147.224l5,2.887Z"/>
    <path id="Path-166" class="cls-4" d="M165,190.525l5,2.887V170.318l-5,2.887Z"/>
    <path id="Path-167" class="cls-3" d="M105,190.525l-5,2.887V170.318l5,2.887Z"/>
    <path id="Path-168" class="cls-4" d="M200,170.318l5,2.887V150.111l-5,2.886Z"/>
    <path id="Path-169" class="cls-3" d="M70,170.318l-5,2.887V150.111l5,2.886Z"/>
    <path id="Path-170" class="cls-4" d="M105,193.412l-2.5-1.443V171.761l2.5,1.444Z"/>
    <path id="Path-171" class="cls-4" d="M70,173.205l-2.5-1.444V151.554l2.5,1.443Z"/>
    <path id="Path-172" class="cls-3" d="M235,152.997l2.5-1.443V131.347L235,132.79Z"/>
    <path id="Path-173" class="cls-3" d="M200,173.205l2.5-1.444V151.554l-2.5,1.443Z"/>
    <path id="Path-174" class="cls-3" d="M165,193.412l2.5-1.443V171.761l-2.5,1.444Z"/>
    <path id="Path-175" class="cls-3" d="M165,453.22l2.5-1.444V402.701l-2.5,1.444Z"/>
    <path id="Path-176" class="cls-4" d="M105,453.22l-2.5-1.444V402.701l2.5,1.444Z"/>
    <path id="Path-177" class="cls-3" d="M200,433.012l2.5-1.443V382.494l-2.5,1.444Z"/>
    <path id="Path-178" class="cls-4" d="M70,433.012l-2.5-1.443V382.494l2.5,1.444Z"/>
    <path id="Path-179" class="cls-3" d="M235,412.805l2.5-1.443V362.287L235,363.73Z"/>
    <path id="Path-180" class="cls-4" d="M35,412.805l-2.5-1.443V362.287L35,363.73Z"/>
    <path id="Path-181" class="cls-4" d="M35,152.997l-2.5-1.443V131.347L35,132.79Z"/>
    <path id="Path-182" class="cls-3" d="M107.5,191.969l-2.5,1.443V173.205l2.5,1.443Z"/>
    <path id="Path-183" class="cls-3" d="M72.5,171.761,70,173.205V152.997l2.5,1.444Z"/>
    <path id="Path-184" class="cls-4" d="M232.5,151.554l2.5,1.443V132.79l-2.5,1.444Z"/>
    <path id="Path-185" class="cls-4" d="M197.5,171.761l2.5,1.444V152.997l-2.5,1.444Z"/>
    <path id="Path-186" class="cls-4" d="M162.5,191.969l2.5,1.443V173.205l-2.5,1.443Z"/>
    <path id="Path-187" class="cls-4" d="M162.5,451.776l2.5,1.444V404.145l-2.5,1.443Z"/>
    <path id="Path-188" class="cls-3" d="M107.5,451.776,105,453.22V404.145l2.5,1.443Z"/>
    <path id="Path-189" class="cls-4" d="M197.5,431.569l2.5,1.443V383.938l-2.5,1.443Z"/>
    <path id="Path-190" class="cls-3" d="M72.5,431.569,70,433.012V383.938l2.5,1.443Z"/>
    <path id="Path-191" class="cls-4" d="M232.5,411.362l2.5,1.443V363.73l-2.5,1.444Z"/>
    <path id="Path-192" class="cls-3" d="M37.5,411.362,35,412.805V363.73l2.5,1.444Z"/>
    <path id="Path-193" class="cls-3" d="M37.5,151.554,35,152.997V132.79l2.5,1.444Z"/>
    <path id="Path-194" class="cls-11" d="M107.5,134.234,135,150.111l27.5-15.877v-2.887L135,115.47l-27.5,15.877Z"/>
    <path id="Path-195" class="cls-12" d="M120,8.66V34.641l15,8.66,15-8.66V8.66L135,0Z"/>
    <path id="Path-196" class="cls-13" d="M120,43.301l15,8.66,15-8.66-15-8.66Z"/>
    <path id="Path-197" class="cls-14" d="M135,43.301l-15-8.66V8.66l15,8.66Z"/>
    <path id="Path-198" class="cls-11" d="M135,77.942l-15-8.66V43.301l15,8.66Z"/>
    <path id="Path-199" class="cls-15" d="M135,17.32l15-8.66V34.641l-15,8.66Z"/>
    <path id="Path-200" class="cls-16" d="M135,51.961l15-8.66V69.282l-15,8.66Z"/>
    <path id="Path-201" class="cls-12" d="M90,25.98V51.961l15,8.66,15-8.66V25.98l-15-8.66Z"/>
    <path id="Path-202" class="cls-12" d="M90,60.621V86.602l15,8.66,15-8.66V60.621l-15-8.66Z"/>
    <path id="Path-203" class="cls-12" d="M150,25.98V51.961l15,8.66,15-8.66V25.98l-15-8.66Z"/>
    <path id="Path-204" class="cls-12" d="M150,60.621V86.602l15,8.66,15-8.66V60.621l-15-8.66Z"/>
    <path id="Path-205" class="cls-17" d="M165,60.621l-15-8.66V25.98l15,8.661Z"/>
    <path id="Path-206" class="cls-18" d="M165,95.262l-15-8.66V60.621l15,8.661Z"/>
    <path id="Path-207" class="cls-19" d="M105,60.621l-15-8.66V25.98l15,8.661Z"/>
    <path id="Path-208" class="cls-20" d="M105,95.262l-15-8.66V60.621l15,8.661Z"/>
    <path id="Path-209" class="cls-21" d="M165,34.641l15-8.661V51.961l-15,8.66Z"/>
    <path id="Path-210" class="cls-22" d="M165,69.282l15-8.661V86.602l-15,8.66Z"/>
    <path id="Path-211" class="cls-23" d="M105,34.641l15-8.661V51.961l-15,8.66Z"/>
    <path id="Path-212" class="cls-24" d="M105,69.282l15-8.661V86.602l-15,8.66Z"/>
    <path id="Path-213" class="cls-25" d="M132.5,27.424V131.347l2.5,1.443V28.867Z"/>
    <path id="Path-214" class="cls-26" d="M137.5,27.424,135,28.867V132.79l2.5-1.443Z"/>
    <path id="Path-215" class="cls-11" d="M132.5,27.424,135,25.98l2.5,1.444L135,28.867Z"/>
    <path id="Path-216" class="cls-12" d="M120,43.301V69.282l15,8.66,15-8.66V43.301l-15-8.66Z"/>
    <path id="Path-217" class="cls-12" d="M120,77.942v25.981l15,8.66,15-8.66V77.942l-15-8.66Z"/>
    <path id="Path-218" class="cls-27" d="M135,77.942l-15-8.66V43.301l15,8.66Z"/>
    <path id="Path-219" class="cls-28" d="M135,112.583l-15-8.66V77.942l15,8.66Z"/>
    <path id="Path-220" class="cls-29" d="M135,51.961l15-8.66V69.282l-15,8.66Z"/>
    <path id="Path-221" class="cls-30" d="M135,86.602l15-8.66v25.981l-15,8.66Z"/>
    <path id="Path-222" class="cls-25" d="M111.25,42.579v2.887L120,50.518V47.631Z"/>
    <path id="Path-223" class="cls-25" d="M111.25,77.22v2.887L120,85.159V82.272Z"/>
    <path id="Path-224" class="cls-26" d="M158.75,42.579v2.887L150,50.518V47.631Z"/>
    <path id="Path-225" class="cls-26" d="M158.75,77.22v2.887L150,85.159V82.272Z"/>
    <path id="Path-226" class="cls-11" d="M113.75,41.136l-2.5,1.443L120,47.631V44.744Z"/>
    <path id="Path-227" class="cls-11" d="M113.75,75.777l-2.5,1.443L120,82.272V79.385Z"/>
    <path id="Path-228" class="cls-11" d="M156.25,41.136l2.5,1.443L150,47.631V44.744Z"/>
    <path id="Path-229" class="cls-11" d="M156.25,75.777l2.5,1.443L150,82.272V79.385Z"/>
    <path id="Path-230" class="cls-25" d="M141.25,25.259,150,30.31v2.887l-8.75-5.052Z"/>
    <path id="Path-231" class="cls-26" d="M128.75,25.259,120,30.31v2.887l8.75-5.052Z"/>
    <path id="Path-232" class="cls-11" d="M143.75,23.815l-2.5,1.444L150,30.31V27.424Z"/>
    <path id="Path-233" class="cls-11" d="M126.25,23.815l2.5,1.444L120,30.31V27.424Z"/>
    <path id="Path-234" class="cls-25" d="M135,147.224v2.887l-27.5-15.877v-2.887Z"/>
    <path id="Path-235" class="cls-26" d="M162.5,131.347v2.887L135,150.111v-2.887Z"/>
    <path id="Path-236" class="cls-25" d="M122.5,125.573,135,132.79V118.356Z"/>
    <path id="Path-237" class="cls-26" d="M135,132.79l-10,5.774,10-17.321Z"/>
    <path id="Path-238" class="cls-26" d="M147.5,125.573,135,132.79V118.356Z"/>
    <path id="Path-239" class="cls-25" d="M135,132.79l10,5.774-10-17.321Z"/>
    <path id="Path-240" class="cls-31" d="M122.5,137.12l10-17.32,2.5,1.443-10,17.321Z"/>
    <path id="Path-241" class="cls-31" d="M147.5,137.12l-10-17.32-2.5,1.443,10,17.321Z"/>
    <path id="Path-242" class="cls-31" d="M133.75,142.172h0a2.7665,2.7665,0,0,1,2.5,0h0a.7617.7617,0,0,1,0,1.443h0a2.76,2.76,0,0,1-2.5,0h0a.7617.7617,0,0,1,0-1.443Z"/>
    <path id="Path-243" class="cls-31" d="M153.75,130.625h0a2.7665,2.7665,0,0,1,2.5,0h0a.7617.7617,0,0,1,0,1.443h0a2.76,2.76,0,0,1-2.5,0h0a.7617.7617,0,0,1,0-1.443Z"/>
    <path id="Path-244" class="cls-31" d="M113.75,130.625h0a2.7665,2.7665,0,0,1,2.5,0h0a.7617.7617,0,0,1,0,1.443h0a2.76,2.76,0,0,1-2.5,0h0a.7617.7617,0,0,1,0-1.443Z"/>
    <path id="Path-245" class="cls-3" d="M140,415.692l-5,2.887-2.5-1.444v54.848l2.5,1.444,5-2.887Z"/>
    <path id="Path-246" class="cls-4" d="M130,415.692l5,2.887v54.848l-5-2.887Z"/>
    <path id="Path-247" class="cls-32" d="M135,484.974v5.773l130-75.055v-5.774Z"/>
    <path id="Path-248" class="cls-32" d="M135,496.521v5.773l135-77.942v-5.773Z"/>
    <path id="Path-249" class="cls-33" d="M5,415.692v-5.774l130,75.056v5.773Z"/>
    <path id="Path-250" class="cls-33" d="M0,424.352v-5.773l135,77.942v5.773Z"/>
    <path id="Path-251" class="cls-1" d="M65,433.012,45,444.559,75,461.88l20-11.547Z"/>
    <path id="Path-252" class="cls-1" d="M205,433.012l20,11.547L195,461.88l-20-11.547Z"/>
    <path id="Path-253" class="cls-32" d="M85,461.88v-5.774L75,461.88v11.547l5-2.887v-5.773Z"/>
    <path id="Path-254" class="cls-33" d="M185,461.88v-5.774l10,5.774v11.547l-5-2.887v-5.773Z"/>
    <path id="Path-255" class="cls-33" d="M45,444.559v11.547l30,17.321V461.88Z"/>
    <path id="Path-256" class="cls-32" d="M225,444.559v11.547l-30,17.321V461.88Z"/>
    <path id="Path-259" class="cls-34" d="M190,456.106l5,2.887,22.5-12.99-5-2.887Z"/>
    <path id="Path-260" class="cls-34" d="M80,456.106l-5,2.887-22.5-12.99,5-2.887Z"/>
    <path id="Path-261" class="cls-33" d="M212.5,440.229v2.887l5,2.887,2.5-1.444Z"/>
    <path id="Path-262" class="cls-32" d="M57.5,440.229v2.887l-5,2.887L50,444.559Z"/>
    <path id="Path-263" class="cls-32" d="M212.5,440.229v2.887L190,456.106l-2.5-1.443Z"/>
    <path id="Path-264" class="cls-33" d="M57.5,440.229v2.887L80,456.106l2.5-1.443Z"/>
  </g>
</svg>
