<svg id="Layer_1" data-name="Layer 1" xmlns="http://www.w3.org/2000/svg" viewBox="0 0 490 476.314">
  <defs>
    <style>
      .concrete-top {
        fill: #e8e8e8;
      }

      .curtain-L-prim-dark {
        fill: #2f5565;
      }

      .exterior-R-prim {
        fill: #d05752;
      }

      .top-light {
        fill: #ffc8c6;
      }

      .top-prim {
        fill: #dd8a87;
      }

      .exterior-L-prim {
        fill: #73302e;
      }

      .cls-1 {
        fill: #171717;
      }

      .exterior-L-light {
        fill: #8a3a37;
      }

      .curtain-R-prim-dark-light {
        fill: #4d90ad;
      }

      .exterior-R-dark {
        fill: #a64c49;
      }

      .cls-2 {
        fill: #b9b9b9;
      }

      .concrete-left {
        fill: #a2a2a2;
      }

      .concrete-right {
        fill: #d1d1d1;
      }
    </style>
  </defs>
  <title>Artboard 2</title>
  <g id="root">
    <path id="Path" class="concrete-top" d="M0,277.128,335,470.541,490,305.996,220,150.111Z"/>
    <path id="Path-2" data-name="Path" class="curtain-L-prim-dark" d="M50,259.808v11.547L300,415.6931v-11.547Z"/>
    <path id="Path-3" data-name="Path" class="exterior-R-prim" d="M45,256.921l-5,2.887v23.094l5-2.887Z"/>
    <path id="Path-4" data-name="Path" class="exterior-R-prim" d="M110,294.449l-5,2.887V320.43l5-2.887Z"/>
    <path id="Path-5" data-name="Path" class="exterior-R-prim" d="M175,331.977l-5,2.886v23.0949l5-2.8869Z"/>
    <path id="Path-6" data-name="Path" class="exterior-R-prim" d="M77.5,275.685l-5,2.887v23.094l5-2.887Z"/>
    <path id="Path-7" data-name="Path" class="exterior-R-prim" d="M142.5,313.213l-5,2.887v23.094l5-2.8869Z"/>
    <path id="Path-8" data-name="Path" class="exterior-R-prim" d="M207.5,350.741l-5,2.886v23.094l5-2.886Z"/>
    <path id="Path-9" data-name="Path" class="exterior-R-prim" d="M240,369.504l-5,2.8871V395.485l5-2.887Z"/>
    <path id="Path-10" data-name="Path" class="exterior-R-prim" d="M272.5,388.268l-5,2.887v23.094l5-2.887Z"/>
    <path id="Path-11" data-name="Path" class="top-light" d="M35,222.28,300,375.278l15-8.66,20,11.547L450,259.808,210,121.244Z"/>
    <path id="Path-12" data-name="Path" class="top-light" d="M315,308.883l20-11.547,75-95.263,20-11.547-70-40.415L200,242.487Z"/>
    <path id="Path-13" data-name="Path" class="top-prim" d="M315,303.1089l15-8.66,75-95.263,15-8.66-65-37.528L205,239.601Z"/>
    <path id="Path-14" data-name="Path" class="top-prim" d="M317.5,362.288,335,372.3911l107.5-111.14-20-11.547L405,259.808Z"/>
    <path id="anchor_50_178.979_310" class="top-light" d="M50,92.376,210,0,360,86.603,200,178.979Z"/>
    <path id="Path-15" data-name="Path" class="exterior-L-prim" d="M200,178.979,50,92.376v63.509l150,86.602Z"/>
    <path id="Path-16" data-name="Path" class="cls-1" d="M165,176.092,85,129.904v28.868l80,46.188Z"/>
    <path id="Path-17" data-name="Path" class="cls-1" d="M190,190.526l-15-8.66v28.867l15,8.66Z"/>
    <path id="Path-18" data-name="Path" class="cls-1" d="M75,124.131,60,115.47v28.868l15,8.66Z"/>
    <path id="Path-19" data-name="Path" class="exterior-L-light" d="M50,155.885,315,308.883v57.735L50,213.62Z"/>
    <path id="Path-20" data-name="Path" class="exterior-R-prim" d="M360,86.603,200,178.979v63.508l160-92.376Z"/>
    <path id="Path-21" data-name="Path" class="exterior-R-prim" d="M315,308.883l20-11.547v57.735l-20,11.547Z"/>
    <path id="Path-22" data-name="Path" class="exterior-R-prim" d="M410,202.073l20-11.547v57.735l-20,11.547Z"/>
    <path id="Path-23" data-name="Path" class="exterior-R-prim" d="M335,297.336l75-95.263v57.735l-75,95.263Z"/>
    <path id="Path-24" data-name="Path" class="exterior-R-prim" d="M315,366.618l-15,8.66v57.735l15-8.66Z"/>
    <path id="Path-25" data-name="Path" class="exterior-L-light" d="M35,222.28,300,375.278v34.641L35,256.921Z"/>
    <path id="Path-26" data-name="Path" class="exterior-L-light" d="M315,366.618l20,11.547V435.9l-20-11.547Z"/>
    <path id="Path-27" data-name="Path" class="exterior-R-prim" d="M335,378.165V435.9L450,317.543V259.808Z"/>
    <path id="Path-28" data-name="Path" class="exterior-R-prim" d="M45,222.28,300,369.504l10-5.773L55,216.507Z"/>
    <path id="Path-29" data-name="Path" class="exterior-R-prim" d="M350,103.923l5-2.886v5.773Z"/>
    <path id="Path-30" data-name="Path" class="curtain-L-prim-dark" d="M60,173.205,305,314.6561v11.547L60,184.752Z"/>
    <path id="Path-31" data-name="Path" class="curtain-R-prim-dark-light" d="M335,308.883l-10,5.7731v11.547l10-5.7731Z"/>
    <path id="Path-32" data-name="Path" class="curtain-R-prim-dark-light" d="M335,331.977,325,337.75v11.547l10-5.7731Z"/>
    <path id="Path-33" data-name="Path" class="curtain-R-prim-dark-light" d="M335,308.883l75-95.263v11.547L335,320.43Z"/>
    <path id="Path-34" data-name="Path" class="curtain-R-prim-dark-light" d="M335,331.977l75-95.263v11.547l-75,95.263Z"/>
    <path id="Path-35" data-name="Path" class="curtain-L-prim-dark" d="M45,239.601l95,54.848v11.547L45,251.148Z"/>
    <path id="Path-36" data-name="Path" class="curtain-L-prim-dark" d="M195,326.2031l95,54.8479v11.5481L195,337.75Z"/>
    <path id="Path-37" data-name="Path" class="curtain-L-prim-dark" d="M60,196.299,305,337.75v11.547L60,207.846Z"/>
    <path id="Path-38" data-name="Path" class="curtain-L-prim-dark" d="M150,317.543V294.449l35,20.2071V337.75Z"/>
    <path id="Path-39" data-name="Path" class="exterior-L-light" d="M35,256.921l5,2.887v23.094l-5-2.887Z"/>
    <path id="Path-40" data-name="Path" class="exterior-L-light" d="M295,407.032l5,2.887v23.094l-5-2.887Z"/>
    <path id="Path-41" data-name="Path" class="exterior-L-light" d="M67.5,275.685l5,2.887v23.094l-5-2.887Z"/>
    <path id="Path-42" data-name="Path" class="exterior-L-light" d="M100,294.449l5,2.887V320.43l-5-2.887Z"/>
    <path id="Path-43" data-name="Path" class="exterior-L-light" d="M132.5,313.213l5,2.887v23.094l-5-2.8869Z"/>
    <path id="Path-44" data-name="Path" class="exterior-L-light" d="M165,331.977l5,2.886v23.0949l-5-2.8869Z"/>
    <path id="Path-45" data-name="Path" class="exterior-L-light" d="M197.5,350.741l5,2.886v23.094l-5-2.886Z"/>
    <path id="Path-46" data-name="Path" class="exterior-L-light" d="M230,369.5051l5,2.886V395.485l-5-2.8859Z"/>
    <path id="Path-47" data-name="Path" class="exterior-L-light" d="M262.5,388.268l5,2.887v23.094l-5-2.887Z"/>
    <path id="Path-48" data-name="Path" class="curtain-R-prim-dark-light" d="M410,225.167l10-5.774V207.846l-10,5.774Z"/>
    <path id="Path-49" data-name="Path" class="curtain-R-prim-dark-light" d="M410,248.261l10-5.774V230.94l-10,5.774Z"/>
    <path id="Path-50" data-name="Path" class="curtain-R-prim-dark-light" d="M362.5,357.9579,340,381.0521V430.126l22.5-23.094Z"/>
    <path id="Path-51" data-name="Path" class="curtain-R-prim-dark-light" d="M417.5,301.666,395,324.76V373.835l22.5-23.094Z"/>
    <path id="Path-52" data-name="Path" class="curtain-R-prim-dark-light" d="M390,329.812l-22.5,23.0941V401.981L390,378.887Z"/>
    <path id="Path-53" data-name="Path" class="curtain-R-prim-dark-light" d="M445,273.52l-22.5,23.094v49.075L445,322.595Z"/>
    <path id="Path-54" data-name="Path" class="exterior-R-dark" d="M335,430.126,450,311.769v5.774L335,435.9Z"/>
    <path id="Path-55" data-name="Path" class="exterior-R-dark" d="M425,251.148v5.773l-15,8.66v-5.773Z"/>
    <path id="Path-56" data-name="Path" class="exterior-R-dark" d="M335,355.071v5.7731l-10,5.7739-5-2.887Z"/>
    <path id="Path-57" data-name="Path" class="exterior-L-prim" d="M425,256.921l13.938,8.04,3.562-3.71L425,251.148Z"/>
    <path id="Path-58" data-name="Path" class="exterior-R-dark" d="M410,259.808v5.773l-75,95.2631V355.071Z"/>
    <path id="Path-59" data-name="Path" class="exterior-R-prim" d="M55,216.507v5.773l-5,2.887-5-2.887Z"/>
    <path id="Path-60" data-name="Path" class="exterior-L-prim" d="M55,216.507v5.773L305,366.618l5-2.887Z"/>
    <path id="Path-61" data-name="Path" class="exterior-L-prim" d="M295,424.353l5,2.8871v5.7729l-5-2.887Z"/>
    <path id="Path-62" data-name="Path" class="exterior-L-prim" d="M262.5,405.5891l5,2.8869v5.773l-5-2.887Z"/>
    <path id="Path-63" data-name="Path" class="exterior-L-prim" d="M230,386.825l5,2.887v5.773l-5-2.8859Z"/>
    <path id="Path-64" data-name="Path" class="exterior-L-prim" d="M197.5,368.061l5,2.8871v5.7729l-5-2.886Z"/>
    <path id="Path-65" data-name="Path" class="exterior-L-prim" d="M165,349.2971l5,2.8869v5.7739l-5-2.8869Z"/>
    <path id="Path-66" data-name="Path" class="exterior-L-prim" d="M132.5,330.533l5,2.887v5.774l-5-2.8869Z"/>
    <path id="Path-67" data-name="Path" class="exterior-L-prim" d="M100,311.77l5,2.8861V320.43l-5-2.887Z"/>
    <path id="Path-68" data-name="Path" class="exterior-L-prim" d="M67.5,293.006l5,2.886v5.774l-5-2.887Z"/>
    <path id="Path-69" data-name="Path" class="exterior-L-prim" d="M35,274.242l5,2.886v5.774l-5-2.887Z"/>
    <path id="Path-70" data-name="Path" class="exterior-R-dark" d="M272.5,405.5891l-5,2.8869v5.773l5-2.887Z"/>
    <path id="Path-71" data-name="Path" class="exterior-R-dark" d="M240,386.825l-5,2.887v5.773l5-2.887Z"/>
    <path id="Path-72" data-name="Path" class="exterior-R-dark" d="M207.5,368.061l-5,2.8871v5.7729l5-2.886Z"/>
    <path id="Path-73" data-name="Path" class="exterior-R-dark" d="M175,349.2971l-5,2.8869v5.773l5-2.886Z"/>
    <path id="Path-74" data-name="Path" class="exterior-R-dark" d="M142.5,330.533l-5,2.887v5.774l5-2.8869Z"/>
    <path id="Path-75" data-name="Path" class="exterior-R-dark" d="M110,311.77l-5,2.8861V320.43l5-2.887Z"/>
    <path id="Path-76" data-name="Path" class="exterior-R-dark" d="M77.5,293.006l-5,2.886v5.774l5-2.887Z"/>
    <path id="Path-77" data-name="Path" class="exterior-R-dark" d="M45,274.242l-5,2.886v5.774l5-2.887Z"/>
    <path id="Path-78" data-name="Path" class="exterior-R-dark" d="M300,427.24l15-8.6611v5.774l-15,8.66Z"/>
    <path id="Path-79" data-name="Path" class="exterior-L-prim" d="M335,430.126l-20-11.547v5.774L335,435.9Z"/>
    <path id="Path-80" data-name="Path" class="exterior-L-prim" d="M377.5,165.989,420,190.526l-5,2.887-37.5-21.651Z"/>
    <path id="Path-81" data-name="Path" class="exterior-R-dark" d="M205,239.601l22.5-12.991v5.774L210,242.487Z"/>
    <path id="Path-82" data-name="Path" class="exterior-L-light" d="M220,167.432l40,23.094v63.508L220,230.94Z"/>
    <path id="Path-83" data-name="Path" class="exterior-R-prim" d="M260,190.526l120-69.282v63.508q-33.5,58.6549-120,69.282Z"/>
    <path id="Path-84" data-name="Path" class="exterior-L-prim" d="M220,230.94v5.774l40,23.094v-5.774Z"/>
    <path id="Path-85" data-name="Path" class="curtain-R-prim-dark-light" d="M275,187.639l95-49.075v63.509l-16.4268,17.434L335,232.827l-30,13.547-30,7.547Z"/>
    <path id="Path-86" data-name="Path" class="exterior-L-prim" d="M260,259.808q94.56-18.7545,120-69.282v-5.774q-33.5,58.6549-120,69.282Z"/>
    <path id="Path-87" data-name="Path" class="cls-2" d="M260,190.526q75.741-1.407,120-63.509-33.5,58.6539-120,69.282Z"/>
    <path id="Path-88" data-name="Path" class="exterior-R-prim" d="M260,199.186q94.56-18.7545,120-69.282v-8.66q-33.5,58.6541-120,69.282Z"/>
    <path id="Path-89" data-name="Path" class="top-light" d="M220,167.432,340,98.15l40,23.094q-33.5,58.6541-120,69.282Z"/>
    <path id="Path-90" data-name="Path" class="top-prim" d="M230,167.432l110-63.509,32.5,18.764q-31,54.0911-112.5,62.065Z"/>
    <path id="Path-91" data-name="Path" class="exterior-L-prim" d="M340,103.923v5.774l29.938,17.295,2.562-4.305Z"/>
    <path id="Path-92" data-name="Path" class="exterior-R-prim" d="M230,167.432l110-63.509v5.774L235,170.319Z"/>
    <path id="Path-93" data-name="Path" class="concrete-left" d="M0,277.128v5.774L335,476.314v-5.773Z"/>
    <path id="Path-94" data-name="Path" class="concrete-right" d="M490,305.996v5.773L335,476.314v-5.773Z"/>
  </g>
</svg>
