<svg id="Layer_1" data-name="Layer 1" xmlns="http://www.w3.org/2000/svg" viewBox="0 0 320 190.5256">
  <defs>
    <style>
      .cls-1 {
        fill: #e8e8e8;
      }

      .cls-2 {
        fill: #b9b9b9;
      }

      .cls-3 {
        fill: #2e2e2e;
      }

      .cls-4 {
        fill: #5d5d5d;
      }

      .cls-5 {
        fill: #d1d1d1;
      }

      .cls-6 {
        fill: #a2a2a2;
      }

      .cls-7 {
        fill: #acacac;
      }

      .cls-8 {
        fill: #959595;
      }

      .cls-9 {
        fill: #c6c6c6;
      }

      .cls-10 {
        fill: #b0dcff;
      }

      .cls-11, .cls-25 {
        fill: none;
      }

      .cls-12 {
        fill: #fff;
      }

      .cls-13 {
        fill: #78cbff;
      }

      .cls-14 {
        fill: #e3efff;
      }

      .cls-15 {
        fill: #3258a8;
      }

      .cls-16 {
        fill: #4d92ff;
      }

      .cls-17 {
        fill: #fff587;
      }

      .cls-18 {
        fill: #fffbcd;
      }

      .cls-19 {
        fill: #c6be68;
      }

      .cls-20 {
        fill: #b0d1ff;
      }

      .cls-21 {
        fill: #edf3ff;
      }

      .cls-22 {
        fill: #6c6c6c;
      }

      .cls-23 {
        fill: #8e8e8e;
      }

      .cls-24 {
        fill: #d0d0d0;
      }

      .cls-25 {
        stroke: #fff;
        stroke-linecap: round;
        stroke-linejoin: round;
        stroke-width: 0;
      }

      .cls-26 {
        opacity: 0.07;
      }

      .cls-27 {
        fill: #346288;
      }
    </style>
  </defs>
  <title>1Artboard 7</title>
  <g id="root">
  <path id="Path" class="cls-1" d="M0,98.15l160,92.376L320,98.15,160,5.7735Z"/>
  <path id="Path-2" data-name="Path" class="cls-2" d="M160,11.547,310,98.15,160,184.7521,10,98.15Z"/>
  <path id="Path-3" data-name="Path" class="cls-3" d="M160,11.547v5.7735l145,83.7159,5-2.8868Z"/>
  <path id="Path-4" data-name="Path" class="cls-4" d="M10,98.15,160,11.547v5.7735L15,101.0363Z"/>
  <g id="Group">
    <path id="Path-5" data-name="Path" class="cls-1" d="M62.5,5.7735,72.5,0,75,1.4434,65,7.2169Z"/>
    <path id="Path-6" data-name="Path" class="cls-5" d="M75,1.4434V15.8772l-2.5,1.4433V5.7736L67.5,8.66,65,7.2169Z"/>
    <path id="Path-7" data-name="Path" class="cls-6" d="M70,15.8772v-8.66l2.5-1.4433V17.3205Z"/>
  </g>
  <path id="Path-8" data-name="Path" class="cls-1" d="M90,21.6507l10-5.7735,2.5,1.4433-10,5.7735Z"/>
  <path id="Path-9" data-name="Path" class="cls-5" d="M102.5,17.3205V31.7543L100,33.1977V21.6507l-5,2.8867L92.5,23.094Z"/>
  <path id="Path-10" data-name="Path" class="cls-6" d="M97.5,31.7543v-8.66l2.5-1.4433v11.547Z"/>
  <g id="Group-2" data-name="Group">
    <path id="Path-11" data-name="Path" class="cls-1" d="M117.5,37.5278l10-5.7735,2.5,1.4434-10,5.7735Z"/>
    <path id="Path-12" data-name="Path" class="cls-5" d="M130,33.1977V47.6314l-2.5,1.4434V37.5278l-5,2.8868L120,38.9712Z"/>
    <path id="Path-13" data-name="Path" class="cls-6" d="M125,47.6314v-8.66l2.5-1.4434v11.547Z"/>
  </g>
  <path id="Path-14" data-name="Path" class="cls-1" d="M70,1.4434l85,49.0748,2.5-1.4434L72.5,0Z"/>
  <path id="Path-15" data-name="Path" class="cls-6" d="M72.5,5.7735V2.8868l25,14.4337L95,18.7639Z"/>
  <path id="Path-16" data-name="Path" class="cls-6" d="M100,21.6507V18.7639l25,14.4338-2.5,1.4434Z"/>
  <path id="Path-17" data-name="Path" class="cls-6" d="M127.5,37.5278V34.6411l25,14.4337L150,50.5182Z"/>
  <path id="Path-18" data-name="Path" class="cls-7" d="M65,127.0171,77.5,119.8l-5-2.8867L60,124.13Z"/>
  <path id="Path-19" data-name="Path" class="cls-7" d="M92.5,142.8942l12.5-7.2168-5-2.8868-12.5,7.2169Z"/>
  <path id="Path-20" data-name="Path" class="cls-7" d="M120,158.7714l12.5-7.2169-5-2.8868L115,155.8846Z"/>
  <path id="Path-21" data-name="Path" class="cls-7" d="M147.5,174.6485l12.5-7.2169-5-2.8867-12.5,7.2169Z"/>
  <g id="Group-3" data-name="Group">
    <path id="Path-22" data-name="Path" class="cls-8" d="M145,171.7618l2.5,1.4433v-17.32l-2.5-1.4434Z"/>
    <path id="Path-23" data-name="Path" class="cls-9" d="M150,171.7618l-2.5,1.4433V152.9979l2.5-1.4434Z"/>
  </g>
  <g id="Group-4" data-name="Group">
    <path id="Path-24" data-name="Path" class="cls-8" d="M62.5,124.13l2.5,1.4433v-8.66L62.5,115.47Z"/>
    <path id="Path-25" data-name="Path" class="cls-9" d="M67.5,124.13,65,125.5737v-8.66l2.5-1.4434Z"/>
  </g>
  <g id="Group-5" data-name="Group">
    <path id="Path-26" data-name="Path" class="cls-8" d="M117.5,155.8846l2.5,1.4434v-8.66l-2.5-1.4433Z"/>
    <path id="Path-27" data-name="Path" class="cls-9" d="M122.5,155.8846,120,157.328v-8.66l2.5-1.4433Z"/>
  </g>
  <g id="Group-6" data-name="Group">
    <path id="Path-28" data-name="Path" class="cls-8" d="M90,140.0075l2.5,1.4434v-8.66L90,131.3472Z"/>
    <path id="Path-29" data-name="Path" class="cls-9" d="M95,140.0075l-2.5,1.4434v-8.66l2.5-1.4434Z"/>
  </g>
  <path id="Path-30" data-name="Path" class="cls-10" d="M62.5,5.7735v98.15l85,49.0747v-98.15Z"/>
  <g>
    <path class="cls-11" d="M94.5745,56.5079a.57.57,0,0,0-.42.3384A.5786.5786,0,0,1,94.5745,56.5079Z"/>
    <path class="cls-11" d="M94.0405,56.7471c-.0141-.0119-.0344-.0287-.0459-.04a.3207.3207,0,0,0-.1792-.06l-.01.0035a.3214.3214,0,0,1,.169.0563A.26.26,0,0,1,94.0405,56.7471Z"/>
    <path class="cls-11" d="M108.6152,81.4266v-.6175c0-1.2948-1.5732-3.2468-3.5254-4.3821l0,.0328c1.9426,1.1371,3.5256,3.079,3.4858,4.3692v.08a.9282.9282,0,0,1-.5576.8565,3.6732,3.6732,0,0,1-2.968-.6374,9.1192,9.1192,0,0,1-1.7173-1.2776,9.1078,9.1078,0,0,0,1.7371,1.2975,3.6532,3.6532,0,0,0,2.968.6374.9388.9388,0,0,0,.5579-.8565v.5378l2.1113,2.6293-5.657.4781,3.7046,24.6174L105.07,84.5738l5.6572-.4781.0144.1582-.0144-.198Z"/>
    <polygon class="cls-11" points="114.312 92.063 114.313 92.061 114.312 92.064 114.312 92.063"/>
    <path class="cls-11" d="M96.624,58.5992,96.2854,58.4a2.4851,2.4851,0,0,0-.9561-1.6533.6066.6066,0,0,0-.14-.1c.04.04.08.06.12.1A2.4832,2.4832,0,0,1,96.2654,58.4l.3386.1992a1.4218,1.4218,0,0,1,.5776,1.0557c0,.2789-.1418.4361-.3513.4372.2207.0094.3714-.1494.3714-.4372A1.3623,1.3623,0,0,0,96.624,58.5992Z"/>
    <path class="cls-11" d="M110.886,86.2868a1.7777,1.7777,0,0,1,.4582.1992.8726.8726,0,0,1,.1993.12,4.5349,4.5349,0,0,1,1.7329,2.9679l.02.02v-.02c.02,0,.02.02.04.02a2.4253,2.4253,0,0,1,.956,1.1952,2.04,2.04,0,0,1,.1639.7481,2.0291,2.0291,0,0,0-.1438-.788,2.3412,2.3412,0,0,0-.9561-1.1951c-.02,0-.02-.02-.04-.02v.02l-.02-.02a4.4894,4.4894,0,0,0-1.7329-2.968c-.08-.04-.14-.1-.2193-.1394a2.5934,2.5934,0,0,0-.4206-.1853l.0024.0259a1.2376,1.2376,0,0,0-.8579.033A1.253,1.253,0,0,1,110.886,86.2868Z"/>
    <polygon class="cls-11" points="105.128 62.063 105.11 62.065 105.108 62.063 105.09 62.065 101.32 57.376 105.09 62.075 105.129 62.125 105.129 62.065 105.128 62.063"/>
    <path class="cls-11" d="M101.5439,78.04l.5481.3132-.01-.0144-.01-.0169-.5284-.3018v-.6175h0l-.0193.6174c0,1.1351,1.21,2.79,2.8235,3.933C102.7441,80.8018,101.5439,79.1708,101.5439,78.04Z"/>
    <path class="cls-11" d="M93.5764,56.8463l.0049-.01c-.0349-.0213-.07-.0523-.1045-.07a.5689.5689,0,0,0-.2463-.0587.59.59,0,0,1,.2263.0587A.42.42,0,0,1,93.5764,56.8463Z"/>
    <path class="cls-11" d="M103.7351,47.9624a1.0921,1.0921,0,0,1,.5378.6175v.04c0,.1793-.239.1992-.5378.04a1.217,1.217,0,0,1-.1409-.0952,1.6009,1.6009,0,0,0,.1609.1152c.2986.179.5371.1591.5376-.0394l0-.06v-.02a1.0466,1.0466,0,0,0-.5181-.6175c-.2109-.12-.3979-.1378-.4858-.0705A.5193.5193,0,0,1,103.7351,47.9624Z"/>
    <polygon class="cls-11" points="128.95 110.508 128.953 110.529 128.989 110.726 128.992 110.722 128.954 110.513 128.95 110.508"/>
    <polygon class="cls-11" points="86.724 64.595 88.138 64.475 86.723 64.593 86.724 64.595"/>
    <polygon class="cls-11" points="122.061 70.79 121.344 70.849 119.974 77.599 120.009 77.642 121.364 70.869 122.077 70.81 122.061 70.79"/>
    <path class="cls-11" d="M109.0735,86.5259a1.07,1.07,0,0,1,.4182.3784c.0061-.0151.0171-.0231.0234-.0377a1.4681,1.4681,0,0,0-.4018-.3606.8071.8071,0,0,0-.3386-.1.4316.4316,0,0,0-.1678.0482.3659.3659,0,0,1,.128-.0283A.733.733,0,0,1,109.0735,86.5259Z"/>
    <polygon class="cls-11" points="125.567 84.534 124.871 83.676 125.565 84.548 125.567 84.534"/>
    <path class="cls-11" d="M108.3364,87.0039v-.06l.0008-.0051a2.2464,2.2464,0,0,0-.638-.5925.9263.9263,0,0,0-.6575-.1394c-.0139.0034-.0222.0155-.0356.02a.9064.9064,0,0,1,.6531.1393A2.0308,2.0308,0,0,1,108.3364,87.0039Z"/>
    <polygon class="cls-11" points="119.192 76.666 118.475 76.726 118.455 85.131 116.479 94.976 116.51 95.016 118.495 85.131 118.515 76.746 119.21 76.688 119.192 76.666"/>
    <polygon class="cls-11" points="114.93 94.972 111.542 95.269 111.543 95.29 112.915 114.093 112.917 114.094 111.543 95.27 114.95 94.972 114.95 93.173 114.93 93.149 114.93 94.972"/>
    <polygon class="cls-11" points="88.178 51.349 88.16 51.35 88.875 52.225 88.178 51.349"/>
    <path class="cls-11" d="M117.2344,114.7986c-.0957-.0056-.1909-.01-.2871-.0166.0156.0011.0317.0039.0471.0049.1931.0132.3855.0249.5764.0323.0073,0,.0146,0,.022,0C117.4741,114.8144,117.3538,114.8055,117.2344,114.7986Z"/>
    <path class="cls-11" d="M100.6477,107.9191c-1.2275-.8909-2.4153-1.8806-3.5837-2.91v0l-.0064-.0057-.0154-.0139q-.3606-.321-.7177-.65c.2409.2206.4738.4547.7177.67,1.1753,1.0358,2.37,2.0118,3.6055,2.9281.1494.11.3054.2091.4563.3177-.1516-.1095-.3035-.2172-.4541-.3288l4.4-23.3541-.0029-.0038Z"/>
    <path class="cls-11" d="M109.0537,66.2681c-.0015-.0094,0-.0172-.0015-.0265a.6465.6465,0,0,0-.55-.0531A.66.66,0,0,1,109.0537,66.2681Z"/>
    <polygon class="cls-11" points="105.149 54.576 106.185 55.89 106.185 57.763 106.205 57.774 106.205 55.91 106.225 47.94 106.205 55.85 105.149 54.536 104.273 54.615 104.273 54.655 105.149 54.576"/>
    <path class="cls-11" d="M113.157,68.6385c.02,0,.02.02.04.02a1.64,1.64,0,0,1,.2353.1715,1.5877,1.5877,0,0,0-.2553-.1914c-.02,0-.02-.02-.04-.02a.7043.7043,0,0,0-.565-.1l.0073.0207A.711.711,0,0,1,113.157,68.6385Z"/>
    <path class="cls-11" d="M107.1875,48.2263a1.264,1.264,0,0,0-.4246-.4034.88.88,0,0,0-.2146-.0886,1.0456,1.0456,0,0,1,.1946.0886A1.3551,1.3551,0,0,1,107.1875,48.2263Z"/>
    <path class="cls-11" d="M106.7429,48.52c.2988.1792.5376.1593.5379-.04C107.2805,48.6594,107.0417,48.6794,106.7429,48.52Z"/>
    <path class="cls-11" d="M112.0737,67.7941c-.0239-.0188-.0473-.04-.072-.0563v.0043C112.0264,67.7554,112.05,67.7776,112.0737,67.7941Z"/>
    <polygon class="cls-11" points="107.261 57.229 110.767 61.587 110.747 61.589 110.747 61.59 110.787 61.587 107.261 57.205 107.261 57.225 107.261 57.229"/>
    <path class="cls-11" d="M109.1758,65.3451c.2412-.4411.7627-.551,1.3518-.2124a.8789.8789,0,0,1,.219.1593,3.0157,3.0157,0,0,1,.4739.4662,3.0769,3.0769,0,0,0-.4937-.4861l0-.04a1.3291,1.3291,0,0,0-.1795-.12C109.9294,64.751,109.4043,64.87,109.1758,65.3451Z"/>
    <path class="cls-12" d="M119.8022,114.7855c.1844-.0154.3653-.0387.5474-.059h0C120.167,114.7471,119.9866,114.7707,119.8022,114.7855Z"/>
    <path class="cls-12" d="M120.73,114.6854c-.0774.0108-.157.0159-.2351.0254h0C120.5728,114.7014,120.6526,114.696,120.73,114.6854Z"/>
    <path class="cls-12" d="M117.5708,114.8192l.0366.0011-.0146-.0009C117.5854,114.8191,117.5781,114.82,117.5708,114.8192Z"/>
    <path class="cls-12" d="M119.614,114.8013c-.0828.006-.1692.0023-.2524.0072-.02.0011-.04.0039-.06.005C119.405,114.8082,119.5107,114.8084,119.614,114.8013Z"/>
    <path class="cls-12" d="M117.28,114.8111c.0976.006.1936.0051.2905.0081-.1909-.0074-.3833-.0191-.5764-.0323C117.09,114.7956,117.186,114.8057,117.28,114.8111Z"/>
    <path class="cls-12" d="M112.9165,114.0938l-.0015-.0005.0008.01c-.0747-.0194-.1487-.036-.2239-.0562.0749.02.1514.0477.2261.0667.1516.0379.3.068.45.1031-.15-.0358-.3-.0742-.451-.1132Z"/>
    <path class="cls-12" d="M108.7864,112.6765c.174.0733.35.1573.5237.2272l-.0008-.0062C109.1355,112.8285,108.9609,112.7518,108.7864,112.6765Z"/>
    <path class="cls-12" d="M107.2275,111.9632c-.0571-.028-.1142-.0556-.1713-.084-.1031-.051-.2054-.0989-.3086-.1513-.1805-.0916-.3609-.1832-.542-.2788-.0564-.03-.1136-.0631-.17-.0934q-.5688-.302-1.145-.628c-.594-.3382-1.1824-.7091-1.7693-1.0869-.0625-.04-.1238-.0831-.186-.1236-.1568-.1019-.3111-.2067-.4673-.3108-.0786-.0527-.1575-.1037-.2359-.1569q-.52-.3535-1.0361-.7263c-.0308-.0221-.0613-.0444-.0918-.0665-.1509-.1086-.3069-.2073-.4563-.3177-1.2351-.9163-2.43-1.8923-3.6055-2.9281-.2439-.2156-.4768-.45-.7177-.67l-.0418-.0376c-.1868-.1715-.3721-.3458-.5571-.52l-.0357-.0346c-1.0488-.99-2.0793-2.0115-3.0695-3.0995q-.8153-.8893-1.6106-1.8229a54.8231,54.8231,0,0,0,12.9375,11.3617l1.8664,1.0774c.7537.4083,1.4954.76,2.2324,1.0905-.1545-.0712-.3093-.1449-.4638-.2183C107.4644,112.0811,107.3457,112.0209,107.2275,111.9632Z"/>
    <path class="cls-12" d="M116.91,114.78l.0847.0071c-.0154-.001-.0315-.0038-.0471-.0049Z"/>
    <path class="cls-12" d="M121.9612,114.4725c.2424-.0521.4792-.1164.7168-.18q-.4186.1133-.8482.2032C121.873,114.4871,121.918,114.4818,121.9612,114.4725Z"/>
    <path class="cls-12" d="M86.6047,93.0394c.0374.0551.0777.1073.1153.1622-.1336-.1947-.2644-.3917-.3963-.5878C86.4187,92.7545,86.5088,92.9,86.6047,93.0394Z"/>
    <path class="cls-12" d="M75.0173,60.62c.0017.0463.0054.0933.0071.14-.0046-.119-.0029-.2362-.0063-.355Z"/>
    <path class="cls-12" d="M89.4331,96.8838q.7588.9815,1.5566,1.9183c-.635-.75-1.2485-1.5266-1.8557-2.31C89.2349,96.6226,89.332,96.7532,89.4331,96.8838Z"/>
    <path class="cls-12" d="M88.0188,95.0314c.1521.205.3137.41.4695.6151-.6023-.8024-1.1975-1.6126-1.7683-2.4449C87.1436,93.8208,87.58,94.4275,88.0188,95.0314Z"/>
    <path class="cls-12" d="M81.6648,84.6535c.1213.2411.26.4758.3843.7157-.2747-.5331-.5462-1.0676-.8069-1.6062C81.3853,84.0592,81.5168,84.3591,81.6648,84.6535Z"/>
    <path class="cls-12" d="M129.0684,110.6435c-.0262.0255-.05.0539-.0767.0792v0l-.0029.0032v0c-.0139.0134-.0266.0284-.0406.0417-.1369.1306-.2805.251-.4213.3755.1528-.1351.3178-.2534.4658-.3954l.08-.08c.1311-.1282.2456-.28.3728-.4138-.1248.1309-.2483.2637-.3767.3892Z"/>
    <path class="cls-12" d="M122.8538,114.2488c.2121-.0593.4111-.1463.6191-.2145l-.0674.0219C123.22,114.1168,123.043,114.1951,122.8538,114.2488Z"/>
    <polygon class="cls-13" points="105.128 62.063 105.129 62.065 110.747 61.59 110.747 61.589 105.128 62.063"/>
    <path class="cls-13" d="M101.32,57.3759l3.77,4.6892.0188-.0016-5.636-7.01,3.7249-.3187v.0017l.02-6.6572a.3845.3845,0,0,1-.02-.0772v-.02a.1566.1566,0,0,1,.0918-.11c.0879-.0673.2749-.05.4858.0705a1.0466,1.0466,0,0,1,.5181.6175v.02l0,.06,0,0-.02,5.9758.8762-.08,1.0557,1.3147.02-7.91a.38.38,0,0,1-.02-.0774v-.02c.03-.1348.1614-.168.3432-.1086a.88.88,0,0,1,.2146.0886,1.264,1.264,0,0,1,.4246.4034c.0142.0214.0315.0426.0425.0636a.4421.4421,0,0,1,.0508.15v.04h0l-.02,8.7246,3.5259,4.3821v3.685c-.02-.0149-.04-.0252-.06-.04l0,.04a3.0769,3.0769,0,0,1,.4937.4861,3.3061,3.3061,0,0,1,.7812,1.9042v.0754c.0247.016.0481.0375.072.0563a1.2954,1.2954,0,0,1,.4983.7241.7043.7043,0,0,1,.565.1c.02,0,.02.02.04.02a1.5877,1.5877,0,0,1,.2553.1914,2.1061,2.1061,0,0,1,.5813.8244,1.2022,1.2022,0,0,1,0,1.1155.5963.5963,0,0,1-.8166.06c-.02,0-.02-.02-.04-.02l-2.39-1.3829-.0193,5.2879,4.2222,5.2578v.02h0l-.04,13.1068v.0494l.02.0248v-.0742l1.5288,1.8772,1.9768-9.8449.02-8.4059.7171-.06.0176.0218.0224-.0019.7415.913,1.37-6.7493.717-.06.0161.02.0039,0,.697.8764,1.773,11.095.0957.6128.0039.0047.2207.2769.6956.8585-.0013.0135.021.0263-.259,3.0676,3.6223,22.8668.0039.0046-.0007-.0042.1011.1179c3.684-3.6054,5.8747-9.4212,5.8945-17.0692.0349-8.3035-2.5066-17.4073-6.7627-25.8227-4.741-9.3721-11.6057-17.8768-19.4026-23.4839-.71-.511-1.4263-1.0067-2.1514-1.4679q-.7661-.4872-1.5422-.9356A27.7114,27.7114,0,0,0,92.0825,37.738c-9.9524-.2359-16.87,7.4073-17.06,20.8059l-.0022.88c.0037.418.0083.8362.0247,1.2578.0056.1507.0168.3026.0241.4536.021.4259.0454.8527.0789,1.2818.0134.1723.0305.3453.0459.518.0373.4165.0788.8338.1277,1.2528.02.1689.0405.338.062.5072q.0836.6559.1848,1.3152c.0225.146.0444.2918.0681.438q.1212.7431.2649,1.49c.0169.0883.0325.1764.05.2648a59.7832,59.7832,0,0,0,1.9763,7.4007l.0115.0337a69.3839,69.3839,0,0,0,3.7454,8.9619l.08-26.1389,5.677-7.0514.01.0123.01-.0123.6972-.06.0013.0015.0185-.0015.6973.8765L94.4927,65.81l-.06,19.6785,4.3025-.3768.6574-7.5493.06-22.5087.02.0249v-.005ZM96.83,60.0921a.5687.5687,0,0,1-.2461-.0587l-1.2949-.7569c-.04-.02-.1-.04-.1394-.06-.04-.04-.1-.06-.1394-.1l-1.5735-.9163a1.4219,1.4219,0,0,1-.5776-1.0557c0-.2879.15-.4466.3711-.4372a.5689.5689,0,0,1,.2463.0587c.0349.0175.07.0485.1045.07a.2145.2145,0,0,1,.2141-.1893l.01.0035.01-.0035a.3207.3207,0,0,1,.1792.06c.0115.0115.0318.0283.0459.04a.997.997,0,0,1,.1136.0992.57.57,0,0,1,.42-.3384.8927.8927,0,0,1,.6152.1392.6066.6066,0,0,1,.14.1A2.4851,2.4851,0,0,1,96.2854,58.4l.3386.1992a1.3623,1.3623,0,0,1,.5777,1.0557C97.2017,59.9427,97.051,60.1015,96.83,60.0921Z"/>
    <polygon class="cls-14" points="97.064 105.01 97.058 105.004 97.064 105.01 97.064 105.01"/>
    <path class="cls-14" d="M117.2344,114.7986l-3.7588-4.6884,3.0278-15.0589.0071-.0355-.032-.0394L114.95,93.0992v1.8724l-3.4062.2988,1.373,18.8234.0007.01c.1507.039.3013.0774.451.1132.1079.0257.2168.0561.3247.0815l.0381.01c.0317.0072.0637.0159.0954.0229.0554.0121.11.02.1648.0315.6033.1264,1.1961.22,1.7825.2958.0254.0033.052.01.0774.0128.1616.0208.3242.0434.4843.06.0254.0025.0513.0069.0767.0094.1475.0143.2942.0247.4409.0358.0191.0015.0376.0019.0567.0033l.0376.0022C117.0435,114.7885,117.1387,114.793,117.2344,114.7986Z"/>
    <path class="cls-14" d="M96.2827,104.303l.0418.0376q.357.3288.7177.65l1.7115-19.8586-4.3208.3784-.04,14.9991-1.7222.1565q1.47,1.6077,3.019,3.0825l.0357.0346C95.9106,103.9572,96.0959,104.1315,96.2827,104.303Z"/>
    <path class="cls-14" d="M128.9536,110.5128l.0381.21v0c.0264-.0253.05-.0537.0767-.0792v0l-.0144-.0168-.1011-.1179Z"/>
    <path class="cls-15" d="M101.5439,76.9681c-.0058-.0473-.0178-.0976-.02-.1429v-.08c.02-1.2948,1.5935-1.4342,3.5454-.2988l.02.013,0-.0328h0l.04-14.3022-.04-.0494-3.77-4.6994-1.8472-2.3024v.005l-.06,22.4838,2.1313-.1793Z"/>
    <polygon class="cls-15" points="101.544 77.383 101.543 77.403 101.544 77.403 101.544 77.383"/>
    <path class="cls-16" d="M114.93,93.1486v-.0494l.04-13.1068h0v-.02l-4.2427.3784v-.0233l.002-.53.0178-5.0841.0007.0009.0193-5.2879-.02-.0115-1.6531-.9561a.02.02,0,0,0-.02-.02,1.9872,1.9872,0,0,1-.9363-1.5936.5973.5973,0,0,1,.3645-.6572.6465.6465,0,0,1,.55.0531,2.2475,2.2475,0,0,1-.0185-.3121,1.27,1.27,0,0,1,.1421-.5844c.2285-.4754.7536-.5941,1.3718-.2323a1.3291,1.3291,0,0,1,.1795.12c.02.0145.04.0248.06.04v-3.685l-.04.0034-5.6172.4746,0,.06-.04,14.3022h0c1.9522,1.1353,3.5254,3.0873,3.5254,4.3821v.6175l2.1116,2.6293.0144.198.1824,1.9871a2.5934,2.5934,0,0,1,.4206.1853c.08.04.1394.1.2193.1394a4.4894,4.4894,0,0,1,1.7329,2.968l.02.02v-.02c.02,0,.02.02.04.02a2.3412,2.3412,0,0,1,.9561,1.1951,2.0291,2.0291,0,0,1,.1438.788c0,.0419-.01.0765-.0137.1161a1.302,1.302,0,0,1-.021.1587.7673.7673,0,0,1-.1082.25l-.0009.0024,0,0c-.008.0118-.011.0284-.02.04-.1992.2789-.5576.2988-.956.08-.02,0-.02-.02-.04-.02l-1.7329-.996a1.0269,1.0269,0,0,1-.2591-.12l-.0764-.0382.314,4.26,3.3877-.2972Z"/>
    <path class="cls-17" d="M105.1282,62.0635l5.6184-.4747.02-.0017L107.2607,57.23V58.4l-.0058-.0035c-.0161.18-.2437.197-.532.0434a.9694.9694,0,0,1-.5376-.6574l.3977.2211-.3779-.2211v-.0083l-.02-.0116V55.89l-1.0359-1.3147-.8765.08v.02l-.02,3.8643-.0058-.0035c-.0161.18-.2437.197-.532.0434a.9694.9694,0,0,1-.5376-.6573l.3962.22-.3764-.22V54.7349l-3.7249.3187,5.636,7.01.0012.0016Z"/>
    <polygon class="cls-17" points="110.729 79.798 110.727 80.328 110.727 80.331 110.727 80.351 114.969 79.972 110.747 74.715 110.747 74.714 110.729 79.798"/>
    <polygon class="cls-17" points="122.077 70.81 121.364 70.869 122.081 71.746 122.778 71.686 122.081 70.81 122.077 70.81"/>
    <polygon class="cls-17" points="119.232 76.686 119.21 76.688 118.515 76.746 119.85 78.399 120.009 77.642 119.974 77.599 119.232 76.686"/>
    <path class="cls-16" d="M128.9888,110.7258v0l-.0359-.1971-.0032-.02-3.6223-22.8668.259-3.0676-.717.06-1.4541,16.991.04-18.7439L122.041,83l-.08,31.4541c.4934-.1078.9726-.2456,1.4443-.3981l.0674-.0219c.2024-.0665.4043-.134.6025-.2087.02-.0077.0406-.0167.0611-.0245.2121-.0816.424-.1624.6311-.2534.0635-.0276.1257-.0573.1885-.0858.2851-.1292.5659-.266.8408-.413.0334-.0178.0654-.0383.0986-.0565s.0637-.0369.096-.0549c.1135-.0635.227-.1273.3388-.1938.051-.03.104-.0578.1548-.0887.2544-.1548.5027-.3194.7476-.49.0891-.0622.1789-.1235.2668-.1879.0811-.06.1592-.1238.239-.1852.0911-.07.1826-.1386.2722-.2106.1753-.1409.3465-.2882.5162-.438.1408-.1245.2844-.2449.4213-.3755C128.9622,110.7542,128.9749,110.7392,128.9888,110.7258Z"/>
    <polygon class="cls-16" points="124.551 82.781 124.172 82.821 124.646 83.394 124.551 82.781"/>
    <polygon class="cls-17" points="124.871 83.676 124.65 83.399 124.646 83.394 124.172 82.821 123.455 82.881 124.869 84.634 125.586 84.574 125.565 84.548 124.871 83.676"/>
    <polygon class="cls-15" points="123.415 101.625 124.869 84.634 123.455 82.881 123.415 101.625"/>
    <path class="cls-15" d="M119.85,78.3989l-1.3348-1.6533-.02,8.3859-1.9849,9.8843-.0071.0355L113.4756,110.11l3.7588,4.6884c.1194.0069.24.0158.3584.0208l.0146.0009c.17.0065.34.0122.5091.0142.1821.0028.3613-.003.5412-.0059.1187-.0021.2388,0,.3569-.004.0958-.0035.1917-.0061.2867-.0111.02-.0011.04-.0039.06-.005.3327-.0188.6626-.0448.9875-.082h.001c.0478-.0055.0964-.01.1445-.0155h0c.4927-.061.9729-.1488,1.4463-.2517l.08-31.439-2.41-3.0476-.06-.08Z"/>
    <polygon class="cls-18" points="124.172 82.821 124.551 82.781 122.778 71.686 122.081 71.746 122.041 83 123.455 82.881 124.172 82.821"/>
    <polygon class="cls-19" points="121.364 70.869 120.009 77.642 119.85 78.399 119.551 79.893 119.611 79.972 122.041 83 122.081 71.746 121.364 70.869"/>
    <path class="cls-17" d="M105.0469,84.57l.0029.0038,5.657-.4781-2.1113-2.6293v.6374a1.208,1.208,0,0,1-.0723.43c-.3313.8753-1.7627.847-3.4536-.1116-.2478-.1441-.489-.3018-.7219-.4691-1.6138-1.1427-2.8235-2.7979-2.8235-3.933l.0193-.6174,0-.02-2.1313.1793,5.6372,6.9916Z"/>
    <path class="cls-16" d="M108.7544,109.1912,105.05,84.5738l-4.4,23.3541c.1506.1116.3025.2193.4541.3288.0305.0221.061.0444.0918.0665q.5163.3725,1.0361.7263c.0784.0532.1573.1042.2359.1569.1562.1041.3105.2089.4673.3108.0622.04.1235.0835.186.1236.5869.3778,1.1753.7487,1.7693,1.0869q.5764.3261,1.145.628c.0566.03.1138.0636.17.0934.1811.0956.3615.1872.542.2788.1032.0524.2055.1.3086.1513.0571.0284.1142.056.1713.084.1182.0577.2369.1179.3548.1738.1545.0734.3093.1471.4638.2183.0313.0144.0628.03.094.0442.1436.0652.2854.1225.4285.185.0728.0313.145.0606.2178.092.1745.0753.3491.152.5229.221Z"/>
    <path class="cls-20" d="M112.915,114.0933,111.5435,95.29l-.0015-.0215-.314-4.26-.0432-.0215c-.04-.04-.1-.06-.1394-.1l-3.406-1.972a2.4489,2.4489,0,0,1-1.0559-1.494c-.1394-.6175.02-1.0955.4185-1.1951h.0041c.0134-.0045.0217-.0166.0356-.02a.9263.9263,0,0,1,.6575.1394,2.2464,2.2464,0,0,1,.638.5925.4741.4741,0,0,1,.27-.4845.4316.4316,0,0,1,.1678-.0482.8071.8071,0,0,1,.3386.1,1.4681,1.4681,0,0,1,.4018.3606,1.0207,1.0207,0,0,1,.553-.5667,1.2376,1.2376,0,0,1,.8579-.033l-.0024-.0259-.1824-1.9871-.0144-.1582-5.6572.4781,3.6848,24.6174.5549,3.7063.0008.0062,0,.0008.0139.0052c.4444.1809.8828.3388,1.3206.494.1245.0442.2517.0986.3755.1405.1257.0429.25.0792.3742.1169.065.02.13.04.1953.0609.2337.0736.4649.1384.6966.2056.135.0392.2715.0836.4055.12.0752.02.1492.0368.2239.0562Z"/>
    <path class="cls-15" d="M97.0576,105.0041l.0064.0054c1.1684,1.029,2.3562,2.0187,3.5837,2.91L105.0469,84.57l.0029-.0161-5.6372-6.9916-.6572,7.5493-.0017.02L97.0422,104.99Z"/>
    <path class="cls-19" d="M101.5439,78.02l.5284.3018a3.4555,3.4555,0,0,1-.5284-1.3541V78.02Z"/>
    <path class="cls-19" d="M108.0376,81.7851a3.6532,3.6532,0,0,1-2.968-.6374,9.1078,9.1078,0,0,1-1.7371-1.2975,7.4906,7.4906,0,0,1-1.24-1.4967l-.5481-.3132c0,1.13,1.2,2.7615,2.8038,3.9131.2329.1673.4741.325.7219.4691,1.6909.9586,3.1223.9869,3.4536.1116a1.208,1.208,0,0,0,.0723-.43V80.9286A.9388.9388,0,0,1,108.0376,81.7851Z"/>
    <path class="cls-18" d="M102.0818,78.3391l.01.0144a7.4906,7.4906,0,0,0,1.24,1.4967,9.1192,9.1192,0,0,0,1.7173,1.2776,3.6732,3.6732,0,0,0,2.968.6374.9282.9282,0,0,0,.5576-.8565v-.08c.04-1.29-1.5432-3.2321-3.4858-4.3692l-.02-.013c-1.9519-1.1354-3.5257-.996-3.5454.2988v.08c.0019.0453.0139.0956.02.1429a3.4555,3.4555,0,0,0,.5284,1.3541Z"/>
    <path class="cls-19" d="M103.1973,57.902v.02l.3764.22-.3962-.22a.9694.9694,0,0,0,.5376.6573c.2883.1536.5159.1365.532-.0434l.0058.0035.02-3.8643v-.02l0-.04.02-5.9758,0,0c-.0005.1985-.239.2184-.5376.0394a1.6009,1.6009,0,0,1-.1609-.1152.9626.9626,0,0,1-.3772-.4849l-.02,6.6572V57.902Z"/>
    <path class="cls-18" d="M103.5942,48.5643a1.217,1.217,0,0,0,.1409.0952c.2988.1594.5378.1395.5378-.04v-.04a1.0921,1.0921,0,0,0-.5378-.6175.5193.5193,0,0,0-.446-.0905.1566.1566,0,0,0-.0918.11v.02a.3845.3845,0,0,0,.02.0772A.9626.9626,0,0,0,103.5942,48.5643Z"/>
    <path class="cls-19" d="M106.2051,57.7742v.0083l.3779.2211-.3977-.2211a.9694.9694,0,0,0,.5376.6574c.2883.1536.5159.1365.532-.0434l.0058.0035V57.205l.02-8.7246c0,.199-.2391.2189-.5379.04a1.0532,1.0532,0,0,1-.518-.58l-.02,7.97Z"/>
    <path class="cls-18" d="M106.7429,48.52c.2988.1593.5376.1393.5379-.04h0v-.04a.4421.4421,0,0,0-.0508-.15c-.011-.021-.0283-.0422-.0425-.0636a1.3551,1.3551,0,0,0-.4446-.4034,1.0456,1.0456,0,0,0-.1946-.0886c-.1818-.0594-.3132-.0262-.3432.1086v.02a.38.38,0,0,0,.02.0774A1.0532,1.0532,0,0,0,106.7429,48.52Z"/>
    <path class="cls-16" d="M88.1384,64.4754l-1.4143.12-.08,28.4246c.4517.6678.9231,1.3158,1.3946,1.9639l.0993-27.6994Z"/>
    <path class="cls-15" d="M88.1384,64.4754V67.284l-.0993,27.6994,0,.0263q.6936.9465,1.4143,1.8652l.08-30.6467Z"/>
    <polygon class="cls-18" points="89.533 66.228 94.493 65.81 88.875 52.225 88.158 52.285 89.533 66.228"/>
    <polygon class="cls-19" points="88.158 52.285 87.461 51.408 87.451 51.421 81.784 58.46 86.707 64.573 88.158 52.285"/>
    <path class="cls-16" d="M89.5327,66.2282l-.08,30.6467c.1648.21.3343.4142.501.6217.291.3605.5813.7214.88,1.0755.1827.2179.3684.4317.5535.6465q.4237.4916.8538.9745c.1369.1527.2751.3031.4133.4542l1.7388-.1581.04-14.9991v-.0017l.06-19.6785Z"/>
    <path class="cls-15" d="M86.7229,64.5934l-.0186.0015.0025-.0214L81.7842,58.46l-.08,26.1738a72.2967,72.2967,0,0,0,4.94,8.3859l.08-28.4246Z"/>
    <polygon class="cls-17" points="86.707 64.573 86.704 64.595 86.723 64.593 88.138 64.475 89.533 66.228 88.158 52.285 86.707 64.573"/>
    <polygon class="cls-17" points="88.875 52.225 88.16 51.35 88.158 51.349 87.461 51.408 88.158 52.285 88.875 52.225"/>
    <path class="cls-21" d="M111.5635,91.167l1.7329.996c.02,0,.02.02.04.02.3984.2191.7568.1992.956-.08.0088-.0112.0118-.0278.02-.04l.0012-.0026a.7673.7673,0,0,0,.1082-.25,1.302,1.302,0,0,0,.021-.1587c.0034-.04.0137-.0742.0137-.1161a2.04,2.04,0,0,0-.1639-.7481,2.4253,2.4253,0,0,0-.956-1.1952c-.02,0-.02-.02-.04-.02v.02l-.02-.02a4.5349,4.5349,0,0,0-1.7329-2.9679.8726.8726,0,0,0-.1993-.12,1.7777,1.7777,0,0,0-.4582-.1992,1.253,1.253,0,0,0-.8179.0131,1.0207,1.0207,0,0,0-.553.5667c-.0063.0146-.0173.0226-.0234.0377a1.07,1.07,0,0,0-.4182-.3784.733.733,0,0,0-.3386-.1.3659.3659,0,0,0-.128.0283.4741.4741,0,0,0-.27.4845l-.0008.0051v.06a2.0308,2.0308,0,0,0-.6772-.6374.9064.9064,0,0,0-.6531-.1393h-.0041c-.3985.1-.5579.5776-.4185,1.1951a2.4489,2.4489,0,0,0,1.0559,1.494l3.406,1.972c.04.04.1.06.1394.1l.0432.0215.0764.0382A1.0269,1.0269,0,0,0,111.5635,91.167Z"/>
    <path class="cls-21" d="M110.5276,65.1327c-.5891-.3386-1.1106-.2287-1.3518.2124a1.27,1.27,0,0,0-.1421.5844,2.2475,2.2475,0,0,0,.0185.3121c.0013.0093,0,.0171.0015.0265a.66.66,0,0,0-.552-.08.5973.5973,0,0,0-.3645.6572,1.9872,1.9872,0,0,0,.9363,1.5936.02.02,0,0,1,.02.02l1.6531.9561.02.0115,2.39,1.3829c.02,0,.02.02.04.02a.5963.5963,0,0,0,.8166-.06,1.2022,1.2022,0,0,0,0-1.1155,2.1061,2.1061,0,0,0-.5813-.8244,1.64,1.64,0,0,0-.2353-.1715c-.02,0-.02-.02-.04-.02a.711.711,0,0,0-.5777-.1l-.0073-.0207a1.2954,1.2954,0,0,0-.4983-.7241c-.0241-.0165-.0473-.0387-.072-.052v-.08a3.3061,3.3061,0,0,0-.7812-1.9042,3.0157,3.0157,0,0,0-.4739-.4662A.8789.8789,0,0,0,110.5276,65.1327Z"/>
    <path class="cls-21" d="M97.1816,59.6549a1.4218,1.4218,0,0,0-.5776-1.0557L96.2654,58.4a2.4832,2.4832,0,0,0-.9561-1.6533c-.04-.04-.08-.06-.12-.1a.8927.8927,0,0,0-.6152-.1392.5786.5786,0,0,0-.42.3384.997.997,0,0,0-.1136-.0992.26.26,0,0,0-.0656-.04.3214.3214,0,0,0-.169-.0563l-.01-.0035a.2145.2145,0,0,0-.2141.1893l-.0049.01a.42.42,0,0,0-.12-.08.59.59,0,0,0-.2263-.0587c-.2207-.0094-.3711.1493-.3711.4372a1.4219,1.4219,0,0,0,.5776,1.0557l1.5735.9163c.04.04.1.06.1394.1.04.02.1.04.1394.06l1.2949.7569a.5687.5687,0,0,0,.2461.0587C97.04,60.091,97.1816,59.9338,97.1816,59.6549Z"/>
  </g>
  <path id="Path-31" data-name="Path" class="cls-6" d="M57.5,106.81l85,49.0748v5.7735l-85-49.0748Z"/>
  <path id="Path-32" data-name="Path" class="cls-1" d="M57.5,106.81l85,49.0748,5-2.8867-85-49.0748Z"/>
  <path id="Path-33" data-name="Path" class="cls-22" d="M62.5,92.3761l85,49.0748v11.547l-85-49.0748Z"/>
  <g id="Group-7" data-name="Group">
    <path id="Path-34" data-name="Path" class="cls-1" d="M145,53.4049l10-5.7734,2.5,1.4433-10,5.7735Z"/>
    <path id="Path-35" data-name="Path" class="cls-5" d="M157.5,49.0748V167.4316L155,168.875V53.405l-5,2.8867-2.5-1.4434Z"/>
    <path id="Path-36" data-name="Path" class="cls-6" d="M152.5,167.4316V54.8483L155,53.405v115.47Z"/>
  </g>
  <path id="Path-37" data-name="Path" class="cls-5" d="M142.5,161.6581l15-8.66v-5.7735l-15,8.66Z"/>
  <path id="Path-38" data-name="Path" class="cls-1" d="M150,148.6677l2.5-1.4433,2.5,1.4433-5,2.8868Z"/>
  <path id="Path-39" data-name="Path" class="cls-5" d="M150,53.4049v98.15l-2.5,1.4433v-98.15Z"/>
  <g id="Group-8" data-name="Group">
    <path id="Path-40" data-name="Path" class="cls-5" d="M147.5,76.499l10-5.7735v2.8867l-10,5.7735Z"/>
    <path id="Path-41" data-name="Path" class="cls-1" d="M152.5,70.7255l2.5,1.4433-5,2.8868V72.1688Z"/>
  </g>
  <path id="Path-42" data-name="Path" class="cls-1" d="M150,69.2821V66.3953l2.5,1.4434v2.8867Z"/>
  <path id="Path-43" data-name="Path" class="cls-1" d="M150,90.9327V88.046l2.5,1.4433v2.8868Z"/>
  <path id="Path-44" data-name="Path" class="cls-1" d="M150,112.5834v-2.8868l2.5,1.4434v2.8867Z"/>
  <path id="Path-45" data-name="Path" class="cls-1" d="M150,134.234v-2.8868l2.5,1.4434v2.8868Z"/>
  <path id="Path-46" data-name="Path" class="cls-1" d="M150,145.781v-2.8868l2.5,1.4434v2.8868Z"/>
  <path id="Path-47" data-name="Path" class="cls-6" d="M150,72.1688l2.5-1.4434L150,69.2821Z"/>
  <path id="Path-48" data-name="Path" class="cls-6" d="M150,93.82l2.5-1.4434L150,90.9327Z"/>
  <path id="Path-49" data-name="Path" class="cls-6" d="M150,115.47l2.5-1.4434-2.5-1.4433Z"/>
  <path id="Path-50" data-name="Path" class="cls-6" d="M150,137.1207l2.5-1.4433L150,134.234Z"/>
  <path id="Path-51" data-name="Path" class="cls-6" d="M150,148.6677l2.5-1.4433L150,145.781Z"/>
  <g id="Group-9" data-name="Group">
    <path id="Path-52" data-name="Path" class="cls-5" d="M147.5,119.8l10-5.7735v2.8868l-10,5.7735Z"/>
    <path id="Path-53" data-name="Path" class="cls-1" d="M152.5,114.0267,155,115.47l-5,2.8868V115.47Z"/>
  </g>
  <g id="Group-10" data-name="Group">
    <path id="Path-54" data-name="Path" class="cls-5" d="M147.5,98.15l10-5.7735v2.8867l-10,5.7735Z"/>
    <path id="Path-55" data-name="Path" class="cls-1" d="M152.5,92.3761,155,93.82l-5,2.8867V93.82Z"/>
  </g>
  <g id="Group-11" data-name="Group">
    <path id="Path-56" data-name="Path" class="cls-5" d="M147.5,141.4509l10-5.7735v2.8867l-10,5.7735Z"/>
    <path id="Path-57" data-name="Path" class="cls-1" d="M152.5,135.6774l2.5,1.4433-5,2.8868v-2.8868Z"/>
  </g>
  <path id="Path-58" data-name="Path" class="cls-6" d="M62.5,106.81l80,46.1881,2.5-1.4434-80-46.188Z"/>
  <path id="Path-59" data-name="Path" class="cls-23" d="M150,140.0075l-2.5,1.4434v11.547l2.5-1.4434Z"/>
  <path id="Path-60" data-name="Path" class="cls-22" d="M62.5,5.7735V11.547l85,49.0748V54.8483Z"/>
  <path id="Path-61" data-name="Path" class="cls-23" d="M150,53.4049l-2.5,1.4434v5.7735l2.5-1.4434Z"/>
  <path id="Path-62" data-name="Path" class="cls-5" d="M65,105.3665v2.8867L62.5,106.81Z"/>
  <path id="Path-63" data-name="Path" class="cls-24" d="M150,53.4049l-2.5,1.4434L62.5,5.7735,65,4.33Z"/>
  <g id="Group-12" data-name="Group">
    <g id="Group-13" data-name="Group">
      <path id="Path-64" data-name="Path" class="cls-1" d="M257.5,5.7735,247.5,0,245,1.4434l10,5.7735Z"/>
      <path id="Path-65" data-name="Path" class="cls-6" d="M245,1.4434V15.8772l2.5,1.4433V5.7736l5,2.8867L255,7.2169Z"/>
      <path id="Path-66" data-name="Path" class="cls-5" d="M250,15.8772v-8.66l-2.5-1.4433V17.3205Z"/>
    </g>
    <path id="Path-67" data-name="Path" class="cls-1" d="M230,21.6507l-10-5.7735-2.5,1.4433,10,5.7735Z"/>
    <path id="Path-68" data-name="Path" class="cls-6" d="M217.5,17.3205V31.7543l2.5,1.4434V21.6507l5,2.8867,2.5-1.4434Z"/>
    <path id="Path-69" data-name="Path" class="cls-5" d="M222.5,31.7543v-8.66L220,21.6507v11.547Z"/>
    <g id="Group-14" data-name="Group">
      <path id="Path-70" data-name="Path" class="cls-1" d="M202.5,37.5278l-10-5.7735L190,33.1977l10,5.7735Z"/>
      <path id="Path-71" data-name="Path" class="cls-6" d="M190,33.1977V47.6314l2.5,1.4434V37.5278l5,2.8868,2.5-1.4434Z"/>
      <path id="Path-72" data-name="Path" class="cls-5" d="M195,47.6314v-8.66l-2.5-1.4434v11.547Z"/>
    </g>
    <path id="Path-73" data-name="Path" class="cls-1" d="M250,1.4434,165,50.5182l-2.5-1.4434L247.5,0Z"/>
    <path id="Path-74" data-name="Path" class="cls-5" d="M247.5,5.7735V2.8868l-25,14.4337,2.5,1.4434Z"/>
    <path id="Path-75" data-name="Path" class="cls-5" d="M220,21.6507V18.7639L195,33.1977l2.5,1.4434Z"/>
    <path id="Path-76" data-name="Path" class="cls-5" d="M192.5,37.5278V34.6411l-25,14.4337,2.5,1.4434Z"/>
    <path id="Path-77" data-name="Path" class="cls-7" d="M255,127.0171,242.5,119.8l5-2.8867L260,124.13Z"/>
    <path id="Path-78" data-name="Path" class="cls-7" d="M227.5,142.8942,215,135.6774l5-2.8868,12.5,7.2169Z"/>
    <path id="Path-79" data-name="Path" class="cls-7" d="M200,158.7714l-12.5-7.2169,5-2.8868,12.5,7.2169Z"/>
    <path id="Path-80" data-name="Path" class="cls-7" d="M172.5,174.6485,160,167.4316l5-2.8867,12.5,7.2169Z"/>
    <g id="Group-15" data-name="Group">
      <path id="Path-81" data-name="Path" class="cls-9" d="M175,171.7618l-2.5,1.4433v-17.32l2.5-1.4434Z"/>
      <path id="Path-82" data-name="Path" class="cls-6" d="M170,171.7618l2.5,1.4433V152.9979l-2.5-1.4434Z"/>
    </g>
    <g id="Group-16" data-name="Group">
      <path id="Path-83" data-name="Path" class="cls-9" d="M257.5,124.13l-2.5,1.4433v-8.66l2.5-1.4434Z"/>
      <path id="Path-84" data-name="Path" class="cls-6" d="M252.5,124.13l2.5,1.4433v-8.66l-2.5-1.4434Z"/>
    </g>
    <g id="Group-17" data-name="Group">
      <path id="Path-85" data-name="Path" class="cls-9" d="M202.5,155.8846,200,157.328v-8.66l2.5-1.4433Z"/>
      <path id="Path-86" data-name="Path" class="cls-6" d="M197.5,155.8846l2.5,1.4434v-8.66l-2.5-1.4433Z"/>
    </g>
    <g id="Group-18" data-name="Group">
      <path id="Path-87" data-name="Path" class="cls-9" d="M230,140.0075l-2.5,1.4434v-8.66l2.5-1.4434Z"/>
      <path id="Path-88" data-name="Path" class="cls-6" d="M225,140.0075l2.5,1.4434v-8.66l-2.5-1.4434Z"/>
    </g>
    <g id="Group-19" data-name="Group">
      <path id="Path-89" data-name="Path" class="cls-10" d="M257.5,5.7735v98.15l-85,49.0747v-98.15Z"/>
    </g>
    <path id="Path-90" data-name="Path" class="cls-5" d="M262.5,106.81l-85,49.0748v5.7735l85-49.0748Z"/>
    <path id="Path-91" data-name="Path" class="cls-1" d="M262.5,106.81l-85,49.0748-5-2.8867,85-49.0748Z"/>
    <path id="Path-92" data-name="Path" class="cls-23" d="M257.5,92.3761l-85,49.0748v11.547l85-49.0748Z"/>
    <g id="Group-20" data-name="Group">
      <path id="Path-93" data-name="Path" class="cls-1" d="M175,53.4049l-10-5.7734-2.5,1.4433,10,5.7735Z"/>
      <path id="Path-94" data-name="Path" class="cls-6" d="M162.5,49.0748V167.4316l2.5,1.4434V53.405l5,2.8867,2.5-1.4434Z"/>
      <path id="Path-95" data-name="Path" class="cls-5" d="M167.5,167.4316V54.8483L165,53.405v115.47Z"/>
    </g>
    <path id="Path-96" data-name="Path" class="cls-6" d="M177.5,161.6581l-15-8.66v-5.7735l15,8.66Z"/>
    <path id="Path-97" data-name="Path" class="cls-1" d="M170,148.6677l-2.5-1.4433-2.5,1.4433,5,2.8868Z"/>
    <path id="Path-98" data-name="Path" class="cls-6" d="M170,53.4049v98.15l2.5,1.4433v-98.15Z"/>
    <g id="Group-21" data-name="Group">
      <path id="Path-99" data-name="Path" class="cls-6" d="M172.5,76.499l-10-5.7735v2.8867l10,5.7735Z"/>
      <path id="Path-100" data-name="Path" class="cls-1" d="M167.5,70.7255,165,72.1688l5,2.8868V72.1688Z"/>
    </g>
    <path id="Path-101" data-name="Path" class="cls-1" d="M170,69.2821V66.3953l-2.5,1.4434v2.8867Z"/>
    <path id="Path-102" data-name="Path" class="cls-1" d="M170,90.9327V88.046l-2.5,1.4433v2.8868Z"/>
    <path id="Path-103" data-name="Path" class="cls-1" d="M170,112.5834v-2.8868l-2.5,1.4434v2.8867Z"/>
    <path id="Path-104" data-name="Path" class="cls-1" d="M170,134.234v-2.8868l-2.5,1.4434v2.8868Z"/>
    <path id="Path-105" data-name="Path" class="cls-1" d="M170,145.781v-2.8868l-2.5,1.4434v2.8868Z"/>
    <path id="Path-106" data-name="Path" class="cls-5" d="M170,72.1688l-2.5-1.4434,2.5-1.4433Z"/>
    <path id="Path-107" data-name="Path" class="cls-5" d="M170,93.82l-2.5-1.4434,2.5-1.4434Z"/>
    <path id="Path-108" data-name="Path" class="cls-5" d="M170,115.47l-2.5-1.4434,2.5-1.4433Z"/>
    <path id="Path-109" data-name="Path" class="cls-5" d="M170,137.1207l-2.5-1.4433,2.5-1.4434Z"/>
    <path id="Path-110" data-name="Path" class="cls-5" d="M170,148.6677l-2.5-1.4433,2.5-1.4434Z"/>
    <g id="Group-22" data-name="Group">
      <path id="Path-111" data-name="Path" class="cls-6" d="M172.5,119.8l-10-5.7735v2.8868l10,5.7735Z"/>
      <path id="Path-112" data-name="Path" class="cls-1" d="M167.5,114.0267,165,115.47l5,2.8868V115.47Z"/>
    </g>
    <g id="Group-23" data-name="Group">
      <path id="Path-113" data-name="Path" class="cls-6" d="M172.5,98.15l-10-5.7735v2.8867l10,5.7735Z"/>
      <path id="Path-114" data-name="Path" class="cls-1" d="M167.5,92.3761,165,93.82l5,2.8867V93.82Z"/>
    </g>
    <g id="Group-24" data-name="Group">
      <path id="Path-115" data-name="Path" class="cls-6" d="M172.5,141.4509l-10-5.7735v2.8867l10,5.7735Z"/>
      <path id="Path-116" data-name="Path" class="cls-1" d="M167.5,135.6774l-2.5,1.4433,5,2.8868v-2.8868Z"/>
    </g>
    <path id="Path-117" data-name="Path" class="cls-5" d="M257.5,106.81l-80,46.1881-2.5-1.4434,80-46.188Z"/>
    <path id="Path-118" data-name="Path" class="cls-22" d="M170,140.0075l2.5,1.4434v11.547l-2.5-1.4434Z"/>
    <path id="Path-119" data-name="Path" class="cls-23" d="M257.5,5.7735V11.547l-85,49.0748V54.8483Z"/>
    <path id="Path-120" data-name="Path" class="cls-22" d="M170,53.4049l2.5,1.4434v5.7735L170,59.1784Z"/>
    <path id="Path-121" data-name="Path" class="cls-6" d="M255,105.3665v2.8867l2.5-1.4434Z"/>
    <path id="Path-122" data-name="Path" class="cls-24" d="M170,53.4049l2.5,1.4434,85-49.0748L255,4.33Z"/>
  </g>
  <g>
    <polygon class="cls-11" points="224.93 68.419 224.902 68.453 224.93 68.456 224.93 68.419"/>
    <polygon class="cls-11" points="220.647 54.934 220.635 54.95 220.647 54.951 220.647 54.934"/>
    <polygon class="cls-11" points="229.969 60.332 231.284 52.006 232.001 51.129 232.67 51.187 232.658 51.129 231.941 51.07 231.244 51.946 229.929 60.272 229.153 60.213 228.455 61.089 228.475 69.495 226.543 81.685 224.99 81.548 224.99 81.566 224.99 83.438 221.638 87.599 221.641 87.639 225.01 83.458 225.01 81.586 226.563 81.725 223.635 100.21 223.658 100.212 226.583 81.745 228.515 69.555 228.515 69.535 228.475 61.149 229.192 60.272 229.969 60.332"/>
    <path class="cls-11" d="M221.145,83.777l-3.406,1.972a1.1123,1.1123,0,0,1-.3435.1354,1.078,1.078,0,0,0,.3633-.1354l3.4062-1.972c.0293-.0147.0677-.0293.1026-.044l0-.0083C221.2283,83.7421,221.18,83.76,221.145,83.777Z"/>
    <path class="cls-11" d="M206.5442,68.32c.2434-.1145.4416-.0593.5361.1183-.0842-.2109-.2947-.2811-.5559-.1582l-.333.1958c.0032.0164.012.0263.0144.0433Z"/>
    <path class="cls-11" d="M218.9739,61.2883l.0007.0111c0-.0378.0076-.0774.01-.1158C218.9819,61.2183,218.9746,61.254,218.9739,61.2883Z"/>
    <path class="cls-11" d="M216.5835,45.8908a.757.757,0,0,1,.3621-.116A.7243.7243,0,0,0,216.5835,45.8908Z"/>
    <path class="cls-11" d="M218.9939,61.607l-.0012-.0189a2.0155,2.0155,0,0,0-.9153,1.6324l.0017.008A2.0747,2.0747,0,0,1,218.9939,61.607Z"/>
    <polygon class="cls-11" points="228.515 69.595 229.591 63.121 228.515 69.575 228.515 69.595"/>
    <polygon class="cls-11" points="233.475 80.331 233.495 80.306 233.435 61.567 233.475 80.331"/>
    <path class="cls-11" d="M212.1216,81.6656a.9082.9082,0,0,1-.5576-.8565A.8885.8885,0,0,0,212.1216,81.6656Z"/>
    <polygon class="cls-11" points="234.63 60.731 235.501 60.805 235.507 60.731 234.595 60.653 234.61 60.729 234.63 60.731"/>
    <polygon class="cls-11" points="220.727 73.653 220.727 68.102 220.707 68.101 220.723 72.748 220.727 73.653 220.727 73.653"/>
    <path class="cls-11" d="M209.4062,61.4905l.0015-.0017-.0149-.0013.0125-.0155-.0525-.0044.06,22.5086-.5974,8.2864-4.3025,5.3583v.02l.04,14.9991-1.74,2.1548c-.11.0068-.22.0138-.33.0192.12-.0041.2356.0038.3565-.0028a22.7708,22.7708,0,0,0,4.4221-.737,28.6371,28.6371,0,0,0,3.6052-1.235c.9014-.3788,1.8311-.8312,2.7668-1.3189-.1208.0626-.2421.1276-.363.1891-.2566.13-.5115.2534-.7661.3755q-.5966.2853-1.188.5406c-.156.0676-.3125.1374-.4678.2018-.0713.03-.1435.0639-.2148.0928-.3084.1263-.6109.2347-.9146.3468q-.8008.2959-1.5866.5356c-.2032.0619-.4075.129-.6092.1858-.0944.0263-.1867.0454-.2807.07a23.0818,23.0818,0,0,1-3.8247.7007l-.0064.0005c-.1953.0178-.385.0217-.5781.0336l1.7388-2.1536-.04-14.9991,4.3025-5.3583.5976-8.2864-.06-22.5086Z"/>
    <path class="cls-11" d="M223.396,79.9526v-.02c.02,0,.02-.02.04-.02a.6952.6952,0,0,1,.9382.0638l-.0019-.004c-.1992-.2789-.5579-.2988-.9561-.08-.02,0-.02.02-.04.02v.02l-.0071.0072c.0017.0116.0056.0209.0071.0327Z"/>
    <polygon class="cls-11" points="234.85 61.687 233.496 80.305 233.517 80.278 234.869 61.687 235.495 60.901 235.495 60.898 234.85 61.687"/>
    <path class="cls-11" d="M222.7822,78.98a1.2741,1.2741,0,0,0-1.1789.0161c-.08.04-.1394.08-.2193.12a.8652.8652,0,0,1,.239-.0995A1.3267,1.3267,0,0,1,222.7822,78.98Z"/>
    <path class="cls-11" d="M219.5518,81.6651a.4535.4535,0,0,0-.25.022.6142.6142,0,0,1,.2493-.0215Z"/>
    <path class="cls-11" d="M218.6353,76.7256v-.08c0-1.2948-1.5936-1.4342-3.5457-.2988,1.9321-1.1155,3.5256-.9761,3.5256.2988v.08a3.2209,3.2209,0,0,1-.5576,1.5139l.0169-.01a3.1962,3.1962,0,0,0,.5407-1.4843v.5378l2.1314.1793-2.1113-.1992Z"/>
    <path class="cls-11" d="M211.564,81.9843v-.6175l-.02.6374c.02,1.2948,1.5938,1.4342,3.5457.2988.2466-.1435.4871-.3.7192-.4669-.2258.16-.4592.31-.6992.447C213.1575,83.3986,211.564,83.2791,211.564,81.9843Z"/>
    <path class="cls-11" d="M216.5835,45.8908a.9945.9945,0,0,0-.5178.6175A1.0461,1.0461,0,0,1,216.5835,45.8908Z"/>
    <path class="cls-11" d="M216.0659,46.5483v.0294a.124.124,0,0,0,.0318.0583A.1506.1506,0,0,1,216.0659,46.5483Z"/>
    <path class="cls-11" d="M216.6035,56.4679a.7.7,0,0,1-.3762.1213.691.691,0,0,0,.396-.1014,1.12,1.12,0,0,0,.5378-.6374l-.029.0161A.9347.9347,0,0,1,216.6035,56.4679Z"/>
    <path class="cls-11" d="M211.564,81.3668v-.6374a4.71,4.71,0,0,1,1.5464-2.8315,4.7366,4.7366,0,0,0-1.5665,2.8514v.6175l-2.1113,2.6293,5.677.4781-5.6572-.4781Z"/>
    <path class="cls-11" d="M214.1135,55.5715l.02,3.8643-1.0358.6059v.0006l.38-.2111.6761-.3954-.02-3.8643.02-.0249-.0195-5.9331a.4806.4806,0,0,1-.04.1136Z"/>
    <path class="cls-11" d="M213.0779,50.1537l0,.1108a.208.208,0,0,0,.1143.0337A.1421.1421,0,0,1,213.0779,50.1537Z"/>
    <path class="cls-11" d="M202.8193,71.208a1.3625,1.3625,0,0,1,.5779-1.0557l.1194-.06a.8352.8352,0,0,1,.219-.4383.646.646,0,0,1,.1794-.1593.3217.3217,0,0,1,.1792-.06,2.4108,2.4108,0,0,1,1.0159-1.3943.1808.1808,0,0,1,.1394-.06.6037.6037,0,0,1,.8513.2207.6046.6046,0,0,0-.8711-.2605c-.04.02-.1.06-.14.08a2.5689,2.5689,0,0,0-1.0156,1.3943.58.58,0,0,0-.1795.04,1.2826,1.2826,0,0,0-.1792.1593.7686.7686,0,0,0-.2192.4382l-.1194.06a1.4226,1.4226,0,0,0-.5776,1.0557.5414.5414,0,0,0,.0615.26A.5818.5818,0,0,1,202.8193,71.208Z"/>
    <polygon class="cls-11" points="197.382 71.706 198.077 70.831 198.059 70.83 197.362 71.706 191.744 85.291 197.381 71.708 197.382 71.706"/>
    <path class="cls-11" d="M213.6155,60.0931c-.2879.1729-.5154.1564-.5315-.0233l-.0061.0034c0,.1793.239.1992.5376.04.2988-.1793.5381-.4781.5381-.6375l-.0066.0036A1.0121,1.0121,0,0,1,213.6155,60.0931Z"/>
    <polygon class="cls-11" points="220.648 55.023 220.687 54.974 220.672 54.973 220.647 55.003 220.648 55.023"/>
    <path class="cls-11" d="M199.6125,114.7115c-.1394-.0116-.2775-.0329-.4165-.0508.1536.0228.302.0514.4563.0707.07.0082.1446.0074.2146.0147-.0842-.0085-.1706-.0115-.2544-.0211Z"/>
    <path class="cls-11" d="M222.52,59.7944a1.6011,1.6011,0,0,1,.5777-.5777c.02,0,.02-.02.04-.02.3379-.1988.6359-.1792.8154.0585-.0076-.0117-.01-.0276-.0186-.0386a.5963.5963,0,0,0-.8166-.06c-.02,0-.02.02-.04.02a1.99,1.99,0,0,0-.5776.5776c-.0774-.2326-.3066-.2917-.5576-.1478v.0482C222.2007,59.5155,222.44,59.5553,222.52,59.7944Z"/>
    <path class="cls-11" d="M193.1543,112.4313l.04.0252c.2869.187.5789.3658.8787.5312l.0051.0026C193.7627,112.8173,193.4563,112.6283,193.1543,112.4313Z"/>
    <path class="cls-11" d="M211.9607,61.7244l3.05.2792.0195.0018.04,14.3548.02-.013-.04-14.3617-.04-.0034Z"/>
    <path class="cls-11" d="M220.448,58.7586a3.1138,3.1138,0,0,0-1.031,1.0981,3.0188,3.0188,0,0,1,1.031-1.0782q.1194-.06.239-.12a.814.814,0,0,1,1.1326.3626.809.809,0,0,0-1.1326-.4084v.0258Z"/>
    <path class="cls-11" d="M198.1982,114.4924c-.4555-.095-.91-.2106-1.3481-.3418-.0222-.0067-.0439-.0147-.0662-.0215-.0456-.014-.09-.03-.136-.0441-.352-.111-.6967-.2358-1.0354-.3719q-.1673-.0674-.3322-.1383c-.3084-.1331-.61-.2782-.9073-.4322l.1021.0527c.2676.1369.5391.267.8162.3873.125.0541.25.1067.3772.1572q.4973.2,1.0127.3629c.07.0224.14.0468.21.0683.39.1164.7939.2154,1.1985.3037.0976.0212.196.0409.2944.06.0742.011.1482.022.2215.0343C198.47,114.5441,198.3318,114.5214,198.1982,114.4924Z"/>
    <path class="cls-12" d="M243.8066,69.2694c-.0127.0574-.0239.1146-.0366.172C243.7827,69.384,243.7939,69.3268,243.8066,69.2694Z"/>
    <path class="cls-12" d="M244.2537,66.9773c-.0237.1379-.05.2762-.0745.4143C244.2041,67.2534,244.23,67.1153,244.2537,66.9773Z"/>
    <path class="cls-12" d="M244.1792,67.3916c-.1133.6246-.2361,1.2506-.3726,1.8778Q244.0106,68.3286,244.1792,67.3916Z"/>
    <path class="cls-12" d="M244.57,64.9273c-.09.68-.1975,1.3645-.3161,2.05C244.3718,66.2919,244.4807,65.6078,244.57,64.9273Z"/>
    <path class="cls-12" d="M239.0923,82.98a73.29,73.29,0,0,1-6.9717,11.812c-.0862.1177-.1789.2285-.2659.3456l-.0349.0476c-.4385.6016-.893,1.1858-1.3506,1.7669-.0686.087-.1394.1716-.2082.2582q-.3874.4883-.78.9677-.6974.8441-1.4158,1.6609c-.2043.2332-.3984.48-.6052.71a59.2333,59.2333,0,0,1-4.3423,4.3224c-1.1753,1.0557-2.3706,2.0318-3.6055,2.9481a43.0768,43.0768,0,0,1-4.363,2.884l1.0871-.6273C229.35,101.9514,240.259,85.382,243.77,69.4414a64.9036,64.9036,0,0,1-4.5981,13.36C239.1521,82.8608,239.1123,82.9205,239.0923,82.98Z"/>
    <path class="cls-12" d="M198.238,114.5123c.0474.0082.0974.0154.1465.0227-.0984-.0194-.1968-.0391-.2944-.06C198.14,114.4857,198.188,114.5018,198.238,114.5123Z"/>
    <path class="cls-12" d="M198.09,114.4747c-.4046-.0883-.8086-.1873-1.1985-.3037C197.2827,114.2894,197.6841,114.3868,198.09,114.4747Z"/>
    <path class="cls-12" d="M210.8667,112.8391a28.6371,28.6371,0,0,1-3.6052,1.235,22.7708,22.7708,0,0,1-4.4221.737c-.1209.0066-.2366-.0013-.3565.0028-.0212.001-.0425.0028-.0635.0037q-.4164.0155-.8252.0139c-.1909,0-.3823,0-.571-.0062-.0129-.0005-.0266,0-.04,0-.3156-.0109-.6272-.0364-.9382-.064-.0593-.0053-.1194-.0089-.1785-.0148-.07-.0073-.1447-.0065-.2146-.0147-.1543-.0193-.3027-.0479-.4563-.0707-.038-.0049-.0761-.0085-.114-.0139-.1374-.02-.2744-.0414-.41-.0651l-.0659-.0124c-.0733-.0123-.1473-.0233-.2215-.0343,4.4915.8833,9.8352-.08,15.594-3.1562l1.0913-.63c-.1618.0941-.3222.1692-.4839.26q-.4775.2649-.9524.5113C212.6978,112.0079,211.7681,112.46,210.8667,112.8391Z"/>
    <path class="cls-12" d="M192.9888,112.3312c.0664.0451.1382.0814.2055.1253l-.04-.0252C193.1,112.3961,193.0425,112.3673,192.9888,112.3312Z"/>
    <polygon class="cls-12" points="194.073 112.988 194.079 112.991 194.078 112.99 194.073 112.988"/>
    <path class="cls-12" d="M194.373,113.1425c.0342.0173.0679.0354.1021.0528l-.1021-.0527Z"/>
    <path class="cls-25" d="M195.6685,113.74c-.1268-.05-.2522-.1031-.3772-.1572"/>
    <path class="cls-25" d="M195.6685,113.74q.4973.2,1.0127.3629"/>
    <path class="cls-25" d="M195.2913,113.5826c-.2771-.12-.5486-.25-.8162-.3873"/>
    <path class="cls-12" d="M244.8833,61.6262c.053-.8893.0879-1.7738.0852-2.6472v-.0005C244.9707,59.8521,244.9368,60.7367,244.8833,61.6262Z"/>
    <path class="cls-25" d="M244.5916,64.7722c-.0066.0516-.0149.1035-.0218.1551"/>
    <path class="cls-25" d="M194.073,112.9877c-.3-.1654-.5918-.3442-.8787-.5312"/>
    <path class="cls-25" d="M244.8569,62.0649q-.093,1.3447-.2653,2.7073"/>
    <path class="cls-25" d="M244.8833,61.6262c-.0088.1463-.0161.292-.0264.4387"/>
    <path class="cls-12" d="M196.8237,114.1538c.022.0067.0459.0106.0679.0172-.0708-.0215-.14-.0459-.21-.0683C196.73,114.118,196.7751,114.139,196.8237,114.1538Z"/>
    <polygon class="cls-13" points="220.727 73.653 220.727 73.698 220.727 73.653 220.727 73.653"/>
    <polygon class="cls-13" points="215.05 61.965 209.408 61.489 209.406 61.491 211.961 61.724 215.01 61.982 215.05 61.985 220.648 55.023 220.647 55.003 215.05 61.965"/>
    <polygon class="cls-13" points="235.495 60.901 235.567 60.81 235.495 60.898 235.495 60.901"/>
    <path class="cls-13" d="M197.3616,71.706l.6972-.8764.0186.0015.0012-.0015.7173.06,5.6768,7.0514.04,19.64v.04l4.3025-5.3583.5974-8.2864-.06-22.5086.0525.0044,3.6726-4.5613v-.0245l-.02-6.6329a.1331.1331,0,0,1-.04-.1c.04-.02.04-.02.04-.04l0,.14a.1516.1516,0,0,0,.02.0112l0-.1108v-.04a1.0459,1.0459,0,0,1,.5178-.6175c.2788-.1593.4981-.1593.5579.02v.02a.3876.3876,0,0,1-.02.0775l.0195,5.9331.8567-1.0707,1.0757.1-.02-7.9978c-.0066-.0168-.02-.0282-.02-.05.02,0,.02,0,.02-.02a.9945.9945,0,0,1,.5178-.6175.7243.7243,0,0,1,.3621-.116.1785.1785,0,0,1,.1958.1359v.02a.3876.3876,0,0,1-.02.0775l.02,8.6471,3.4934.2944.0124-.0155v.0165l.04.0034-.0149.0186.0149.0013v3.6393a.809.809,0,0,1,1.1326.4084,1.35,1.35,0,0,1,.1223.5536v.0315c.251-.1439.48-.0848.5576.1478a1.99,1.99,0,0,1,.5776-.5776c.02,0,.02-.02.04-.02a.5963.5963,0,0,1,.8166.06c.0083.011.011.0269.0186.0386l.0012.0012a.6086.6086,0,0,1,.0591.1248c.0061.0168.0171.0291.022.0469a1.3911,1.3911,0,0,1-.0811.9438,2.155,2.155,0,0,1-.8166.996c-.02,0-.02.02-.04.02l-2.41,1.3942.0364,9.966-.0166-4.6475.02.0017v-.0017l4.1755.3529.0274-.0341v.0364l.0063.0006.0137-.0171v.0182l.02.0017-.02.0243.04,13.0644,1.5537.1376,1.9321-12.19-.02-8.4059.6973-.8764.7768.06,1.3147-8.3262.6973-.8764.717.06.0115.0573.0283.0025,1.8326,9.0234-.02.02.084.42.9121.0776-.0053.074.0652.0056-.2393,3.3465-.0117.16,3.7009,18.4054.1155.0193c3.665-7.8481,5.8164-16.1544,5.7966-23.8233-.0063-5.9217-1.3237-10.7419-3.637-14.28-4.8786-7.44-14.135-9.2052-24.8588-3.6367-.4458.2315-.8953.4812-1.346.7382l-.3931.2271c-16.3276,9.5525-29.5178,32.3072-29.6733,51.1652l.0022.8982c.0059.42.0127.8391.0317,1.2476.0052.1083.014.2131.02.3206.0247.4435.0547.8822.0947,1.3119.01.1148.0237.2272.0354.3411.0437.4242.0936.8428.1524,1.2532.0137.0966.0283.1923.0427.2881q.1.6521.2232,1.2805c.0122.0622.0239.1248.0366.1867a22.879,22.879,0,0,0,2.3327,6.52c.0206.0371.0418.0733.0628.11q.2724.484.5674.9391c.0405.0623.0808.1245.1218.186.1809.2728.3691.5363.5618.7935.0551.0732.1091.1479.165.22.1836.2368.3745.4634.5681.6864.0686.0785.1345.1606.2041.2375.1814.2006.37.39.56.5784.33.3272.6675.643,1.0215.9339l-.08-26.1738Zm6.0156-1.5935.1194-.06a.7686.7686,0,0,1,.2192-.4382,1.2826,1.2826,0,0,1,.1792-.1593.58.58,0,0,1,.1795-.04A2.5689,2.5689,0,0,1,205.09,68.021c.04-.02.1-.06.14-.08a.6046.6046,0,0,1,.8711.2605.9332.9332,0,0,1,.0906.2739l.333-.1958c.2612-.1229.4717-.0527.5559.1582a.5415.5415,0,0,1,.0615.26,1.362,1.362,0,0,1-.5776,1.0557l-1.2947.757a.6088.6088,0,0,1-.1394.1c-.04.02-.1.04-.14.06l-1.5735.9163c-.2612.123-.4719.0526-.5559-.1583a.5414.5414,0,0,1-.0615-.26A1.4226,1.4226,0,0,1,203.3772,70.1125Z"/>
    <path class="cls-14" d="M223.6577,100.2122l-.0227-.0019,2.928-18.4849-1.5535-.1395v1.8724l-3.3684,4.1805.002.0225,1.4724,17.1694c.03-.0265.0588-.0534.0884-.08,1.4336-1.288,2.83-2.6833,4.1716-4.1548l.0459-.05-3.7666-.3155Z"/>
    <path class="cls-14" d="M204.5723,112.64l-1.7388,2.1536c.1931-.0119.3828-.0158.5781-.0336l.0064-.0005a23.0818,23.0818,0,0,0,3.8247-.7007l1.5923-21.7762-4.3025,5.3583Z"/>
    <path class="cls-14" d="M239.0525,82.801l.04.1793c.02-.06.06-.12.08-.1793Z"/>
    <path class="cls-15" d="M215.03,62.0054l-.0195-.0018-3.05-.2792-2.5545-.2339-.0334-.003.06,22.5086,2.1113-2.6293v-.6175a4.7366,4.7366,0,0,1,1.5665-2.8514A9.3811,9.3811,0,0,1,215.07,76.36Z"/>
    <path class="cls-16" d="M224.99,81.566v-.0181l-.04-13.0644-4.2229,5.2344v-.02l0-.0446-.0032-.9052-.0364-9.966h0l-1.6533.9562a.02.02,0,0,1-.02.02c-.3767.2261-.7063.1423-.854-.1614a464.0564,464.0564,0,0,1-.0823-.3565l.0017-.0119-.0017-.008a2.0155,2.0155,0,0,1,.9153-1.6324,1.5869,1.5869,0,0,1-.0188-.28l.0007-.0088-.0007-.0111c.0007-.0343.008-.07.0105-.1047a3.046,3.046,0,0,1,.4326-1.3269,3.1138,3.1138,0,0,1,1.031-1.0981l.239-.12V54.9739l-.0393.0489L215.05,61.9855l.04,14.3617c1.9521-1.1354,3.5457-.996,3.5457.2988v.6175l2.1113.1992.1977,1.9767a2.58,2.58,0,0,1,.44-.3235c.08-.04.1394-.08.2193-.12a1.2741,1.2741,0,0,1,1.1789-.0161,1.2117,1.2117,0,0,1,.5867.96l.0071-.0072v-.02c.02,0,.02-.02.04-.02.3982-.2191.7569-.1992.9561.08l.0019.004c.0052.0065.013.009.0178.0159a.8288.8288,0,0,1,.0662.1526.75.75,0,0,1,.0393.0909,1.769,1.769,0,0,1-.1055,1.0712,2.3725,2.3725,0,0,1-.956,1.1752c-.02,0-.02.02-.04.02l-1.7329.996c-.1.06-.1795.12-.259.1593l-.12.06-.0173.0074,0,.0083c.0127-.0052.0263-.0105.0368-.0157l.3333,3.8813,3.3518-4.16Z"/>
    <polygon class="cls-16" points="224.95 68.439 224.936 68.456 224.95 68.458 224.95 68.439"/>
    <polygon class="cls-17" points="213.098 60.042 213.078 60.053 213.098 60.042 213.098 60.042"/>
    <path class="cls-17" d="M209.4077,61.4888l5.6421.4767,5.5977-6.9625.0246-.03.0149-.0186-.04-.0034-.0124-.001-3.4934-.2944V55.83c0,.011-.0079.0246-.0093.0361l.029-.0161a1.12,1.12,0,0,1-.5378.6374.691.691,0,0,1-.396.1014.1819.1819,0,0,1-.08-.03c-.0056-.0037-.0151-.0037-.02-.008a.1442.1442,0,0,1-.0617-.1234l.02-.0111V54.5755l-1.0757-.1-.8567,1.0707-.02.0249.02,3.8643-.6761.3954.138-.0767.5381-.2988c0,.0069-.0059.0163-.0066.0235l.0066-.0036c0,.1594-.2393.4582-.5381.6375-.2986.1593-.5376.1394-.5376-.04l.0061-.0034c-.0007-.0066-.0061-.0094-.0061-.0165V56.9107l-3.6726,4.5613-.0125.0155Z"/>
    <polygon class="cls-17" points="220.727 73.698 220.727 73.718 224.95 68.484 224.969 68.459 224.95 68.458 224.936 68.456 224.93 68.456 224.902 68.453 220.727 68.101 220.727 68.102 220.727 73.653 220.727 73.698"/>
    <polygon class="cls-17" points="231.284 52.006 232.001 52.066 232.698 51.189 232.67 51.187 232.001 51.129 231.284 52.006"/>
    <polygon class="cls-17" points="229.192 60.272 228.475 61.149 229.81 61.248 229.969 60.332 229.192 60.272"/>
    <path class="cls-15" d="M230.261,97.2106c.0688-.0866.14-.1712.2082-.2582.4576-.5811.9121-1.1653,1.3506-1.7669l.0349-.0476c.09-.1223.1765-.2483.2659-.3713v-.0032l-.02.0289-.08-31.4723-2.43-.1991-1.0757,6.4737v-.02l1.0757-6.4538-.06-.02.2788-1.8524-1.3345-.1.04,8.3859v.02L226.583,81.7453l-2.9253,18.4669-.0029.0181,3.7666.3155c.2143-.2356.4316-.4669.6433-.7066q.72-.8147,1.4158-1.6609Q229.8746,97.6986,230.261,97.2106Z"/>
    <polygon class="cls-16" points="234.61 60.729 234.595 60.653 234.511 60.233 234.152 60.691 234.61 60.729"/>
    <polygon class="cls-17" points="234.61 60.729 234.152 60.691 233.435 61.567 234.85 61.687 235.495 60.898 235.567 60.81 235.501 60.805 234.63 60.731 234.61 60.729"/>
    <polygon class="cls-15" points="233.435 61.567 233.495 80.306 233.495 80.311 233.496 80.305 234.85 61.687 233.435 61.567"/>
    <path class="cls-16" d="M235.3274,64.1567l.2393-3.3465-.0721.09-.6252.7862L233.5173,80.278l-.0217.0273,0,.0058v-.0053l-.02.0252-.04-18.7638L232.021,63.32l.08,31.4723.02-.0289A73.2944,73.2944,0,0,0,239.0723,82.98l-.04-.1793-.0159-.0791-3.7009-18.4054Z"/>
    <polygon class="cls-18" points="234.152 60.691 234.511 60.233 234.531 60.213 232.698 51.189 232.001 52.066 232.021 63.32 233.435 61.567 234.152 60.691"/>
    <polygon class="cls-19" points="231.284 52.006 229.969 60.332 229.81 61.248 229.531 63.101 229.591 63.121 232.021 63.32 232.001 52.066 231.284 52.006"/>
    <path class="cls-17" d="M218.6152,77.2834v.6573l-.0029.0017c-.0142,1.1347-1.2021,2.7616-2.8035,3.8937-.2321.1666-.4726.3234-.7192.4669-1.9519,1.1354-3.5256.996-3.5457-.2988l.02-.6374-2.1116,2.6293,5.6572.4781,5.637-7.0115Z"/>
    <path class="cls-16" d="M211.3164,112.6254q.5918-.2556,1.188-.5406c.2546-.1221.51-.2451.7661-.3755.1209-.0615.2422-.1265.363-.1891q.4748-.2457.9524-.5113c.1678-.0932.335-.1829.5037-.2812.6294-.3609,1.2527-.7543,1.8735-1.156q.3864-.2507.77-.5119.6668-.4519,1.3235-.9333c.1445-.1054.29-.2067.434-.3142L215.11,84.4742l-4.261,28.353C211.0039,112.7628,211.16,112.693,211.3164,112.6254Z"/>
    <path class="cls-20" d="M221.6411,87.6388l-.0034-.04-.3333-3.8813c-.01.0052-.0241.0105-.0368.0157-.0349.0147-.0733.0293-.1026.044l-3.4062,1.972a1.078,1.078,0,0,1-.3633.1354.5931.5931,0,0,1-.7124-.4142A2.3889,2.3889,0,0,1,217.739,83.18a.8811.8811,0,0,1,.6773-.1395v-.06a1.3741,1.3741,0,0,1,.0454-.2213l.0085-.042a1.5543,1.5543,0,0,1,.1924-.47l.0007-.001a1.5294,1.5294,0,0,1,.1314-.2217,1.3882,1.3882,0,0,1,.3386-.2788.8083.8083,0,0,1,.1689-.0582.4535.4535,0,0,1,.25-.022,4.5527,4.5527,0,0,1,1.3742-2.21l.0183-.0152-.1977-1.9767-5.637,7.0115,4.4016,23.3229.0457-.033c.563-.4189,1.1169-.856,1.6655-1.3041.2732-.2232.5427-.4555.813-.6856.2158-.183.4319-.3652.6462-.5513.1458-.1281.2889-.2623.4339-.3924l-1.4724-17.1694Z"/>
    <path class="cls-15" d="M208.835,92.2825l-1.5923,21.7762c.094-.0251.1863-.0442.2807-.07.2017-.0568.406-.1239.6092-.1858q.7854-.239,1.5866-.5356c.3037-.1121.6062-.2205.9146-.3468.0713-.0289.1435-.0632.2148-.0928l4.261-28.353-5.677-.4781Z"/>
    <path class="cls-19" d="M218.0745,78.23l-.0169.01a8.5537,8.5537,0,0,1-2.968,2.7887,4.691,4.691,0,0,1-2.4124.7556,1.5041,1.5041,0,0,1-.5556-.1182.8885.8885,0,0,1-.5576-.8565v1.1752c0,1.2948,1.5935,1.4143,3.5456.2988.24-.1371.4734-.2874.6992-.447,1.6014-1.1321,2.7893-2.759,2.8035-3.8937l.0029-.0017V76.7456A3.1962,3.1962,0,0,1,218.0745,78.23Z"/>
    <path class="cls-18" d="M212.1216,81.6656a1.5041,1.5041,0,0,0,.5556.1182,4.691,4.691,0,0,0,2.4124-.7556,8.5537,8.5537,0,0,0,2.968-2.7887,3.2209,3.2209,0,0,0,.5576-1.5139v-.08c0-1.2749-1.5935-1.4143-3.5256-.2988l-.02.013a9.3811,9.3811,0,0,0-1.9592,1.5377,4.71,4.71,0,0,0-1.5464,2.8315v.08A.9082.9082,0,0,0,212.1216,81.6656Z"/>
    <path class="cls-19" d="M213.0779,60.0533c0,.0071.0054.01.0061.0165.0161.18.2436.1962.5315.0233a1.0121,1.0121,0,0,0,.5315-.6139c.0007-.0072.0066-.0166.0066-.0235l-.5381.2988-.138.0767-.38.2111Z"/>
    <path class="cls-19" d="M213.0977,60.0417l1.0358-.6059-.02-3.8643-.0193-5.8444a1.19,1.19,0,0,1-.4787.4662.5656.5656,0,0,1-.4231.1049.208.208,0,0,1-.1143-.0337.1516.1516,0,0,1-.02-.0112l.02,6.6329v3.1671Z"/>
    <path class="cls-19" d="M213.0181,50.1535a.1331.1331,0,0,0,.04.1l0-.14C213.0579,50.1336,213.0579,50.1336,213.0181,50.1535Z"/>
    <path class="cls-18" d="M213.1924,50.2982a.5656.5656,0,0,0,.4231-.1049,1.19,1.19,0,0,0,.4787-.4662.4806.4806,0,0,0,.04-.1136.3876.3876,0,0,0,.02-.0775v-.02c-.06-.1793-.2791-.1793-.5579-.02a1.0459,1.0459,0,0,0-.5178.6175v.04A.1421.1421,0,0,0,213.1924,50.2982Z"/>
    <path class="cls-19" d="M216.0657,46.5481v-.04c0,.02,0,.02-.02.02,0,.0213.0134.0327.02.05v-.0294Z"/>
    <path class="cls-19" d="M216.0657,56.428a.1442.1442,0,0,0,.0617.1234c.0047.0043.0142.0043.02.008a.1819.1819,0,0,0,.08.03.7.7,0,0,0,.3762-.1213.9347.9347,0,0,0,.5286-.6014c.0014-.0115.0093-.0251.0093-.0361V54.6552l-.02-8.6471a1.0533,1.0533,0,0,1-.5181.58c-.2419.1451-.4375.1536-.5058.0481a.124.124,0,0,1-.0318-.0583l.02,7.9978v1.8414Z"/>
    <path class="cls-18" d="M216.0659,46.5483a.1506.1506,0,0,0,.0318.0877c.0683.1055.2639.097.5058-.0481a1.0533,1.0533,0,0,0,.5181-.58.3876.3876,0,0,0,.02-.0775v-.02a.1785.1785,0,0,0-.1958-.1359.757.757,0,0,0-.3621.116,1.0461,1.0461,0,0,0-.5178.6175v.04Z"/>
    <path class="cls-16" d="M198.1184,83.9563l-1.4141,1.7529.08,28.42c.0223.0068.044.0148.0662.0215.4385.1312.8926.2468,1.3481.3418l-.08-27.7275Z"/>
    <path class="cls-15" d="M199.5327,84.0758l-1.4143-.12v2.8086l.08,27.7275c.1336.029.2715.0517.4078.0769l.0659.0124c.1357.0237.2727.0447.41.0651.0379.0054.076.009.114.0139.139.0179.2771.0392.4165.0508Z"/>
    <polygon class="cls-18" points="199.533 84.076 204.473 77.941 198.796 70.889 198.079 71.766 199.533 84.076"/>
    <polygon class="cls-19" points="197.382 71.706 197.381 71.708 191.744 85.291 196.704 85.709 198.079 71.766 197.382 71.706"/>
    <path class="cls-16" d="M204.5525,112.64l-.04-14.9991v-.06l-.04-19.64-4.94,6.1351.08,30.6357v.0135c.0838.01.17.0126.2544.0211.0591.0059.1192.01.1785.0148.311.0276.6226.0531.9382.064.013.0005.0267,0,.04,0,.1887.0064.38.0058.571.0062q.409.001.8252-.0139c.021-.0009.0423-.0027.0635-.0037.11-.0054.22-.0124.33-.0192Z"/>
    <path class="cls-15" d="M195.28,113.5748q.1651.0713.3322.1383c.3387.1361.6834.2609,1.0354.3719.0455.0144.09.03.136.0441l-.08-28.42-4.96-.4183.08,26.1738c.0357.0293.0742.0532.11.0822.3247.2625.6557.5134.9973.7452l.0574.0391c.0537.0361.1113.0649.1655.1.302.197.6084.386.9238.559l.001,0,.0063.004c.0894.0488.181.0931.2713.14l.0163.0077h0C194.67,113.2966,194.9719,113.4417,195.28,113.5748Z"/>
    <polygon class="cls-17" points="199.533 84.076 198.079 71.766 196.704 85.709 198.118 83.956 199.533 84.076"/>
    <polygon class="cls-17" points="198.079 71.766 198.796 70.889 198.079 70.83 198.077 70.831 197.382 71.706 198.079 71.766"/>
    <path class="cls-21" d="M221.145,83.777c.0347-.0174.0833-.0349.1221-.0523l.0173-.0074.12-.06c.0795-.04.1594-.1.259-.1593l1.7329-.996c.02,0,.02-.02.04-.02a2.3725,2.3725,0,0,0,.956-1.1752,1.769,1.769,0,0,0,.1055-1.0712.75.75,0,0,0-.0393-.0909.8288.8288,0,0,0-.0662-.1526c-.0048-.0069-.0126-.0094-.0178-.0159a.6952.6952,0,0,0-.9382-.0638c-.02,0-.02.02-.04.02v.02l-.02.02c-.0015-.0118-.0054-.0211-.0071-.0327a1.2117,1.2117,0,0,0-.5867-.96,1.3267,1.3267,0,0,0-1.1592.0361.8652.8652,0,0,0-.239.0995,2.58,2.58,0,0,0-.44.3235l-.0183.0152a4.5527,4.5527,0,0,0-1.3742,2.21l0,.0005a.6142.6142,0,0,0-.2493.0215.8083.8083,0,0,0-.1689.0582,1.3882,1.3882,0,0,0-.3386.2788,1.5294,1.5294,0,0,0-.1314.2217l-.0007.001a1.5543,1.5543,0,0,0-.1924.47l-.0085.042a1.3741,1.3741,0,0,0-.0454.2213v.06a.8811.8811,0,0,0-.6773.1395,2.3889,2.3889,0,0,0-1.0559,2.2907.5931.5931,0,0,0,.7124.4142,1.1123,1.1123,0,0,0,.3435-.1354Z"/>
    <path class="cls-21" d="M220.687,58.659q-.1194.06-.239.12a3.2507,3.2507,0,0,0-1.4636,2.4051c-.0022.0384-.01.078-.01.1158l-.0007.0088a1.5869,1.5869,0,0,0,.0188.28l.0012.0189a2.0747,2.0747,0,0,0-.9148,1.6215l-.0017.0119a464.0564,464.0564,0,0,0,.0823.3565c.1477.3037.4773.3875.854.1614a.02.02,0,0,0,.02-.02l1.6533-.9562h0l2.41-1.3942c.02,0,.02-.02.04-.02a2.155,2.155,0,0,0,.8166-.996,1.3911,1.3911,0,0,0,.0811-.9438c-.0049-.0178-.0159-.03-.022-.0469a.6086.6086,0,0,0-.0591-.1248l-.0012-.0012c-.18-.2377-.4775-.2573-.8154-.0585-.02,0-.02.02-.04.02a1.6011,1.6011,0,0,0-.5777.5777c-.08-.2391-.3188-.2789-.5776-.14v-.08a1.35,1.35,0,0,0-.1223-.5536A.814.814,0,0,0,220.687,58.659Z"/>
    <path class="cls-21" d="M205.25,67.9811a.1808.1808,0,0,0-.1394.06,2.4108,2.4108,0,0,0-1.0159,1.3943.3217.3217,0,0,0-.1792.06.646.646,0,0,0-.1794.1593.8352.8352,0,0,0-.219.4383l-.1194.06a1.3625,1.3625,0,0,0-.5779,1.0557.5818.5818,0,0,0,.0418.22c.084.2109.2947.2813.5559.1583l1.5735-.9163c.04-.02.1-.04.14-.06a.6088.6088,0,0,0,.1394-.1l1.2947-.757a1.362,1.362,0,0,0,.5776-1.0557.5415.5415,0,0,0-.0615-.26c-.0945-.1776-.2927-.2328-.5361-.1183l-.3384.1992c-.0024-.017-.0112-.0269-.0144-.0433a.9332.9332,0,0,0-.0906-.2739A.6037.6037,0,0,0,205.25,67.9811Z"/>
  </g>
  <g class="cls-26">
    <path id="Path-123" data-name="Path" class="cls-27" d="M62.5,11.5471v80.829l85,49.0748V60.6218Z"/>
  </g>
  </g>
</svg>
