<svg id="Layer_1" data-name="Layer 1" xmlns="http://www.w3.org/2000/svg" viewBox="0 0 203.75 129.1819">
  <defs>
    <style>
      .crown-top {
        fill: #e5f7e3;
      }

      .slope-top {
        fill: #fff1d8;
      }

      .exterior-L-prim {
        fill: #73302e;
      }

      .exterior-R-prim {
        fill: #d05752;
      }

      .slope-L {
        fill: #c3af8a;
      }

      .slope-R {
        fill: #eed9b3;
      }

      .top-light {
        fill: #ffc8c6;
      }

      .top-prim {
        fill: #dd8a87;
      }
    </style>
  </defs>
  <title>Artboard 16</title>
  <g id="root">
    <g>
      <path class="crown-top" d="M203.75,57.735l-80-46.188L0,82.9939l80,46.188Z"/>
      <path class="slope-top" d="M15,62.787v2.887l65,37.5279,108.75-62.787V37.528L123.75,0Z"/>
      <path class="exterior-L-prim" d="M10,77.2209v5.773l70,40.415,2.5-1.4439v-5.7731l-2.5,1.443Z"/>
      <path class="exterior-R-prim" d="M193.75,51.9619V57.735L80,123.4089v-5.774Z"/>
      <path class="slope-L" d="M80,117.6349l3.75-2.1649V98.15L80,100.3149,15,62.787,5,74.334Z"/>
      <path class="slope-R" d="M80,117.6349v-17.32L188.75,37.528l10,11.547Z"/>
      <path class="top-light" d="M25,62.787,123.75,5.7739l55,31.7541L80,94.5409Z"/>
      <path class="exterior-L-prim" d="M123.75,5.7739l-5,2.886V25.981l5-2.887,40,23.094,15-8.66Z"/>
      <path class="exterior-R-prim" d="M25,62.787,123.75,5.7739v17.32L40,71.4469Z"/>
      <path class="top-light" d="M53.75,63.5089v-2.887L125,19.486l26.25,15.155v2.887L80,78.6639Z"/>
      <path class="exterior-R-prim" d="M151.25,34.641V44.745L80,85.881l-2.5-1.443V74.334L80,75.777Z"/>
      <path class="exterior-L-prim" d="M53.75,70.726,80,85.881V75.777L53.75,60.6219Z"/>
      <path class="top-prim" d="M61.25,60.6219,80,71.4469,143.75,34.641,125,23.8159Z"/>
    </g>
  </g>
</svg>
