<svg id="Layer_1" data-name="Layer 1" xmlns="http://www.w3.org/2000/svg" viewBox="0 0 370 1094.08"><defs><style>.exterior-R-light{fill:#df5d58;}.exterior-L-prim-2{fill:#73302f;}.top-light{fill:#fac7c6;}.top-prim{fill:#dd8987;}.exterior-R-prim{fill:#d15752;}.window-R-prim{fill:#202020;}</style></defs><title>Artboard 13</title><path class="exterior-R-light" d="M135,274.25v819.83L370,958.41V138.57Zm17.5,798.18-10,5.78V281.46l10-5.77Zm15-8.66-10,5.78V272.8l10-5.77Zm15-8.66-10,5.78V264.14l10-5.77Zm15-8.66-10,5.78V255.48l10-5.77Zm15-8.66-10,5.77V246.82l5-2.88h0l5-2.88Zm15-8.66-10,5.77V238.16l5-2.89h0l5-2.88Zm15-8.66-10,5.77V229.5l5-2.88h0l5-2.88Zm15-8.66-10,5.77V220.84l5-2.88h0l5-2.88Zm15-8.66-10,5.77V212.18l5-2.89h0l5-2.88Zm15-8.66-10,5.77V203.52l5-2.89h0l5-2.88Zm15-8.66-10,5.77V194.86l5-2.88h0l5-2.88Zm15-8.66-10,5.77V186.2l5-2.89h0l5-2.88Zm15-8.66-10,5.77V177.54l5-2.89h0l5-2.88Zm15-8.66-10,5.77V168.88l5-2.88h0l5-2.88Zm15-8.66-10,5.77V160.22l5-2.89h0l5-2.88Z"/><path class="exterior-L-prim-2" d="M0,196.3v819.84l135,77.94V274.25Zm20,814.07v5.77l-10-5.77V213.62l10,5.78ZM35,1019v5.77L25,1019V222.28l5,2.89,5,2.89Zm15,8.66v5.77l-10-5.77V230.94l5,2.89h0l5,2.89Zm15,8.66v5.77l-10-5.77V239.6l5,2.89,5,2.89ZM80,1045v5.77L70,1045V248.26l5,2.89h0L80,254Zm15,8.66v5.77l-10-5.77V256.93l5,2.88h0l5,2.89Zm15,8.66v5.77l-10-5.77V265.59l5,2.88h0l5,2.88Zm15,8.66v5.77L115,1071V274.25l5,2.88h0l5,2.89Z"/><polygon class="exterior-L-prim-2" points="10 109.7 20 115.47 20 184.75 25 181.87 25 118.36 35 124.13 35 176.09 39.99 173.21 40 173.21 40 173.21 40 173.21 40 127.02 50 132.79 50 173.21 50 178.98 50 190.53 55 193.42 55 193.41 55 135.68 65 141.46 65 193.42 65 199.19 70 202.07 70 202.07 70 144.34 75 147.23 80 150.12 80 202.08 80 207.85 85 210.74 85 153 90 155.89 90 155.89 95 158.78 95 210.74 95 216.51 100 219.4 100 161.66 105 164.55 110 167.44 110 219.4 110 225.17 120 230.94 120 219.4 120 161.66 0 92.38 0 150.12 0 196.3 10 190.53 10 109.7"/><polygon class="top-light" points="370 138.57 280 86.61 280 98.15 350 138.57 135 262.7 30 202.08 30 202.08 20 196.3 45 181.87 45 181.87 50 178.98 50 173.21 45 170.32 40 173.21 40 173.21 39.99 173.21 35 176.09 35 176.1 25 181.87 25 181.87 20 184.75 20 184.76 10 190.53 10 190.53 0 196.3 135 274.25 370 138.57"/><polygon class="top-prim" points="280 109.7 280 138.57 272.5 142.9 272.5 142.9 272.5 142.9 267.5 140.01 262.5 142.9 262.5 148.67 262.5 148.67 257.5 151.56 257.5 151.56 252.5 148.67 247.5 151.56 247.5 157.33 247.5 157.33 242.5 160.22 242.5 160.22 237.5 157.33 232.5 160.22 232.5 165.99 232.5 165.99 227.5 168.88 227.5 168.88 222.5 165.99 217.5 168.88 217.5 174.65 217.5 174.65 212.5 177.54 212.5 177.54 207.5 174.65 202.5 177.54 202.5 183.31 202.5 183.31 197.5 186.2 197.5 186.2 192.5 183.31 187.5 186.2 187.5 191.97 187.5 191.97 182.5 194.86 182.5 194.86 177.5 191.97 172.5 194.86 172.5 200.63 172.5 200.63 167.5 203.52 167.5 203.52 167.5 203.52 162.5 200.63 157.5 203.52 157.5 209.29 157.5 209.29 152.5 212.18 152.5 212.18 147.5 209.29 142.5 212.18 142.5 217.95 142.5 217.95 137.5 220.84 137.5 220.84 137.5 220.84 132.5 217.95 127.5 220.84 127.5 226.61 127.5 226.61 120 230.94 110 225.17 110 219.4 105 216.51 100 219.4 100 219.4 95 216.51 95 210.74 90 207.85 85 210.74 80 207.85 80 202.08 75 199.19 70 202.07 70 202.07 65 199.19 65 193.42 60 190.53 55 193.41 55 193.42 50 190.53 30 202.08 135 262.7 350 138.57 340 144.34 280 109.7"/><polygon class="exterior-R-light" points="120 161.66 120 219.4 120 230.94 127.5 226.61 127.5 226.61 127.5 220.84 127.5 168.88 132.5 166 132.5 165.99 137.5 163.11 137.5 220.84 142.5 217.95 142.5 217.95 142.5 212.18 142.5 160.22 147.5 157.34 147.5 157.33 152.5 154.45 152.5 212.18 157.5 209.29 157.5 209.29 157.5 203.52 157.5 151.56 162.5 148.68 162.5 148.67 167.5 145.79 167.5 203.52 172.5 200.63 172.5 200.63 172.5 194.86 172.5 142.9 182.5 137.12 182.5 194.86 187.5 191.97 187.5 191.97 187.5 186.2 187.5 134.24 192.5 131.35 197.5 128.46 197.5 186.2 202.5 183.31 202.5 183.31 202.5 177.54 202.5 125.58 212.5 119.8 212.5 177.54 217.5 174.65 217.5 174.65 217.5 168.88 217.5 116.92 222.5 114.03 227.5 111.14 227.5 168.88 232.5 165.99 232.5 165.99 232.5 160.22 232.5 108.26 237.5 105.37 242.5 102.48 242.5 160.22 247.5 157.33 247.5 157.33 247.5 151.56 247.5 99.6 252.5 96.71 252.5 96.71 257.5 93.82 257.5 151.56 262.5 148.67 262.5 148.67 262.5 142.9 262.5 90.94 267.5 88.05 272.5 85.16 272.5 142.9 280 138.57 280 109.7 280 98.15 280 86.61 280 69.29 120 161.66"/><polygon class="exterior-R-prim" points="50 178.98 45 181.87 45 181.87 20 196.3 30 202.08 30 202.08 50 190.53 50 178.98"/><polygon class="exterior-L-prim-2" points="280 109.7 340 144.34 350 138.57 280 98.15 280 109.7"/><polygon id="anchor-01_932.42" class="top-light" points="120 161.66 280 69.29 160 0 0 92.38 120 161.66"/><polygon class="window-R-prim" points="142.5 1072.43 147.5 1069.55 147.5 278.58 152.5 275.69 142.5 281.46 142.5 1072.43"/><polygon class="exterior-L-prim-2" points="147.5 1069.55 152.5 1072.43 152.5 275.69 147.5 278.58 147.5 1069.55"/><polygon class="top-prim" points="142.5 1072.43 142.5 1078.21 152.5 1072.43 147.5 1069.55 142.5 1072.43"/><polygon class="window-R-prim" points="207.5 243.94 202.5 246.82 202.5 1037.79 207.5 1034.9 207.5 243.94"/><polygon class="exterior-L-prim-2" points="207.5 243.94 207.5 1034.9 212.5 1037.79 212.5 241.05 207.5 243.93 207.5 243.94"/><polygon class="top-prim" points="202.5 1037.79 202.5 1043.56 212.5 1037.79 207.5 1034.9 202.5 1037.79"/><polygon class="window-R-prim" points="267.5 209.29 262.5 212.18 262.5 1003.15 267.5 1000.26 267.5 209.29"/><polygon class="exterior-L-prim-2" points="267.5 209.29 267.5 1000.26 272.5 1003.15 272.5 206.41 267.5 209.29 267.5 209.29"/><polygon class="top-prim" points="262.5 1003.15 262.5 1008.92 272.5 1003.15 267.5 1000.26 262.5 1003.15"/><polygon class="window-R-prim" points="327.5 174.66 322.5 177.54 322.5 968.51 327.5 965.62 327.5 174.66"/><polygon class="exterior-L-prim-2" points="327.5 174.66 327.5 965.62 332.5 968.51 332.5 171.77 327.5 174.65 327.5 174.66"/><polygon class="top-prim" points="322.5 968.51 322.5 974.28 332.5 968.51 327.5 965.62 322.5 968.51"/><polygon class="window-R-prim" points="172.5 1055.11 177.5 1052.23 177.5 261.26 182.5 258.37 172.5 264.14 172.5 1055.11"/><polygon class="exterior-L-prim-2" points="177.5 1052.23 182.5 1055.11 182.5 258.37 177.5 261.26 177.5 1052.23"/><polygon class="top-prim" points="172.5 1055.11 172.5 1060.89 182.5 1055.11 177.5 1052.23 172.5 1055.11"/><polygon class="window-R-prim" points="237.5 226.62 232.5 229.5 232.5 1020.47 237.5 1017.58 237.5 226.62"/><polygon class="exterior-L-prim-2" points="237.5 226.62 237.5 1017.58 242.5 1020.47 242.5 223.73 237.5 226.61 237.5 226.62"/><polygon class="top-prim" points="232.5 1020.47 232.5 1026.24 242.5 1020.47 237.5 1017.58 232.5 1020.47"/><polygon class="window-R-prim" points="297.5 191.97 292.5 194.86 292.5 985.83 297.5 982.94 297.5 191.97"/><polygon class="exterior-L-prim-2" points="297.5 191.97 297.5 982.94 302.5 985.83 302.5 189.09 297.5 191.97 297.5 191.97"/><polygon class="top-prim" points="292.5 985.83 292.5 991.6 302.5 985.83 297.5 982.94 292.5 985.83"/><polygon class="window-R-prim" points="357.5 157.34 352.5 160.22 352.5 951.19 357.5 948.3 357.5 157.34"/><polygon class="exterior-L-prim-2" points="357.5 157.34 357.5 948.3 362.5 951.19 362.5 154.45 357.5 157.33 357.5 157.34"/><polygon class="top-prim" points="352.5 951.19 352.5 956.96 362.5 951.19 357.5 948.3 352.5 951.19"/><polygon class="window-R-prim" points="157.5 1063.77 162.5 1060.89 162.5 269.92 167.5 267.03 157.5 272.8 157.5 1063.77"/><polygon class="exterior-L-prim-2" points="162.5 1060.89 167.5 1063.77 167.5 267.03 162.5 269.92 162.5 1060.89"/><polygon class="top-prim" points="157.5 1063.77 157.5 1069.55 167.5 1063.77 162.5 1060.89 157.5 1063.77"/><polygon class="window-R-prim" points="222.5 235.28 217.5 238.16 217.5 1029.13 222.5 1026.24 222.5 235.28"/><polygon class="exterior-L-prim-2" points="222.5 235.28 222.5 1026.24 227.5 1029.13 227.5 232.39 222.5 235.27 222.5 235.28"/><polygon class="top-prim" points="217.5 1029.13 217.5 1034.9 227.5 1029.13 222.5 1026.24 217.5 1029.13"/><polygon class="window-R-prim" points="282.5 200.63 277.5 203.52 277.5 994.49 282.5 991.6 282.5 200.63"/><polygon class="exterior-L-prim-2" points="282.5 200.63 282.5 991.6 287.5 994.49 287.5 197.75 282.5 200.63 282.5 200.63"/><polygon class="top-prim" points="277.5 994.49 277.5 1000.26 287.5 994.49 282.5 991.6 277.5 994.49"/><polygon class="window-R-prim" points="342.5 166 337.5 168.88 337.5 959.85 342.5 956.96 342.5 166"/><polygon class="exterior-L-prim-2" points="342.5 166 342.5 956.96 347.5 959.85 347.5 163.11 342.5 165.99 342.5 166"/><polygon class="top-prim" points="337.5 959.85 337.5 965.62 347.5 959.85 342.5 956.96 337.5 959.85"/><polygon class="window-R-prim" points="187.5 1046.45 192.5 1043.56 192.5 252.6 197.5 249.71 187.5 255.48 187.5 1046.45"/><polygon class="exterior-L-prim-2" points="192.5 1043.56 197.5 1046.45 197.5 249.71 192.5 252.6 192.5 1043.56"/><polygon class="top-prim" points="187.5 1046.45 187.5 1052.23 197.5 1046.45 192.5 1043.56 187.5 1046.45"/><polygon class="window-R-prim" points="252.5 217.96 247.5 220.84 247.5 1011.81 252.5 1008.92 252.5 217.96"/><polygon class="exterior-L-prim-2" points="252.5 217.96 252.5 1008.92 257.5 1011.81 257.5 215.07 252.5 217.95 252.5 217.96"/><polygon class="top-prim" points="247.5 1011.81 247.5 1017.58 257.5 1011.81 252.5 1008.92 247.5 1011.81"/><polygon class="window-R-prim" points="312.5 183.31 307.5 186.2 307.5 977.17 312.5 974.28 312.5 183.31"/><polygon class="exterior-L-prim-2" points="312.5 183.31 312.5 974.28 317.5 977.17 317.5 180.43 312.5 183.31 312.5 183.31"/><polygon class="top-prim" points="307.5 977.17 307.5 982.94 317.5 977.17 312.5 974.28 307.5 977.17"/><polygon points="120 1068.1 125 1070.99 125 280.02 120 277.13 120 1068.1"/><polygon class="exterior-R-light" points="120 277.13 120 277.13 115 274.25 115 1070.99 120 1068.1 120 277.13"/><polygon class="top-prim" points="115 1070.99 125 1076.76 125 1070.99 120 1068.1 115 1070.99"/><polygon points="105 1059.44 110 1062.33 110 271.36 105 268.48 105 1059.44"/><polygon class="exterior-R-light" points="105 268.48 105 268.47 100 265.59 100 1062.33 105 1059.44 105 268.48"/><polygon class="top-prim" points="100 1062.33 110 1068.1 110 1062.33 105 1059.44 100 1062.33"/><polygon points="75 1042.12 80 1045.01 80 254.04 75 251.15 75 1042.12"/><polygon class="exterior-R-light" points="75 251.15 75 251.15 70 248.26 70 1045.01 75 1042.12 75 251.15"/><polygon class="top-prim" points="70 1045.01 80 1050.78 80 1045.01 75 1042.12 70 1045.01"/><polygon points="45 1024.8 50 1027.69 50 236.72 45 233.83 45 1024.8"/><polygon class="exterior-R-light" points="45 233.83 45 233.83 40 230.94 40 1027.69 45 1024.8 45 233.83"/><polygon class="top-prim" points="40 1027.69 50 1033.46 50 1027.69 45 1024.8 40 1027.69"/><polygon points="15 216.51 15 1007.48 20 1010.37 20 219.4 10 213.62 15 216.51"/><polygon class="exterior-R-light" points="15 216.51 10 213.62 10 1010.37 15 1007.48 15 216.51"/><polygon class="top-prim" points="10 1010.37 20 1016.14 20 1010.37 15 1007.48 10 1010.37"/><polygon points="90 1050.78 95 1053.67 95 262.7 90 259.81 90 1050.78"/><polygon class="exterior-R-light" points="90 259.81 90 259.81 85 256.93 85 1053.67 90 1050.78 90 259.81"/><polygon class="top-prim" points="85 1053.67 95 1059.44 95 1053.67 90 1050.78 85 1053.67"/><polygon points="60 1033.46 65 1036.35 65 245.38 60 242.49 60 1033.46"/><polygon class="exterior-R-light" points="60 242.49 55 239.6 55 1036.35 60 1033.46 60 242.49"/><polygon class="top-prim" points="55 1036.35 65 1042.12 65 1036.35 60 1033.46 55 1036.35"/><polygon points="30 1016.14 35 1019.03 35 228.06 30 225.17 30 1016.14"/><polygon class="exterior-R-light" points="30 225.17 25 222.28 25 1019.03 30 1016.14 30 225.17"/><polygon class="top-prim" points="25 1019.03 35 1024.8 35 1019.03 30 1016.14 25 1019.03"/><polygon points="105 216.51 110 219.4 110 167.44 105 164.55 105 216.51"/><polygon class="exterior-R-light" points="105 216.51 105 164.55 100 161.66 100 219.4 100 219.4 105 216.51"/><polygon points="90 207.85 95 210.74 95 158.78 90 155.89 90 207.85"/><polygon class="exterior-R-light" points="90 155.89 90 155.89 85 153 85 210.74 90 207.85 90 155.89"/><polygon points="75 199.19 80 202.08 80 150.12 75 147.23 75 199.19"/><polygon class="exterior-R-light" points="75 147.23 70 144.34 70 202.07 75 199.19 75 147.23"/><polygon points="60 190.53 65 193.42 65 141.46 55 135.68 60 138.57 60 190.53"/><polygon class="exterior-R-light" points="60 138.57 55 135.68 55 193.41 60 190.53 60 138.57"/><polygon points="50 132.79 40 127.02 45 129.91 45 170.32 50 173.21 50 132.79"/><polygon points="40 173.21 40 173.21 45 170.32 40 173.21"/><polygon class="exterior-R-light" points="40 127.02 40 173.21 45 170.32 45 129.91 40 127.02"/><polygon points="35 124.13 25 118.36 30 121.25 30 178.98 25 181.87 35 176.1 35 176.09 35 124.13"/><polygon class="exterior-R-light" points="30 178.98 30 121.25 25 118.36 25 181.87 25 181.87 30 178.98"/><polygon points="20 115.47 10 109.7 15 112.59 15 187.64 10 190.53 20 184.76 20 184.75 20 115.47"/><polygon class="exterior-R-light" points="15 187.64 15 112.59 10 109.7 10 190.53 10 190.53 15 187.64"/><polygon class="window-R-prim" points="132.5 166 127.5 168.88 127.5 220.84 132.5 217.95 132.5 166"/><polygon class="window-R-prim" points="132.5 217.95 137.5 220.84 137.5 220.84 132.5 217.95"/><polygon class="exterior-L-prim-2" points="137.5 220.84 137.5 220.84 137.5 163.11 132.5 165.99 132.5 166 132.5 217.95 137.5 220.84"/><polygon class="window-R-prim" points="162.5 200.63 167.5 203.52 167.5 203.52 162.5 200.63"/><polygon class="window-R-prim" points="162.5 148.68 157.5 151.56 157.5 203.52 162.5 200.63 162.5 148.68"/><polygon class="exterior-L-prim-2" points="167.5 203.52 167.5 203.52 167.5 145.79 162.5 148.67 162.5 148.68 162.5 200.63 167.5 203.52"/><polygon class="window-R-prim" points="192.5 131.35 187.5 134.24 187.5 186.2 192.5 183.31 192.5 131.35"/><polygon class="exterior-L-prim-2" points="197.5 186.2 197.5 186.2 197.5 128.46 192.5 131.35 192.5 183.31 197.5 186.2"/><polygon class="window-R-prim" points="222.5 114.03 217.5 116.92 217.5 168.88 222.5 165.99 222.5 114.03"/><polygon class="exterior-L-prim-2" points="227.5 168.88 227.5 168.88 227.5 111.14 222.5 114.03 222.5 165.99 227.5 168.88"/><polygon class="window-R-prim" points="252.5 96.71 247.5 99.6 247.5 151.56 252.5 148.67 252.5 96.71"/><polygon class="exterior-L-prim-2" points="257.5 151.56 257.5 151.56 257.5 93.82 252.5 96.71 252.5 96.71 252.5 148.67 257.5 151.56"/><polygon class="window-R-prim" points="147.5 157.34 142.5 160.22 142.5 212.18 147.5 209.29 147.5 157.34"/><polygon class="exterior-L-prim-2" points="152.5 212.18 152.5 212.18 152.5 154.45 147.5 157.33 147.5 157.34 147.5 209.29 152.5 212.18"/><polygon class="window-R-prim" points="177.5 140.01 182.5 137.12 172.5 142.9 172.5 194.86 177.5 191.97 177.5 140.01"/><polygon class="exterior-L-prim-2" points="177.5 191.97 182.5 194.86 182.5 194.86 182.5 137.12 177.5 140.01 177.5 191.97"/><polygon class="window-R-prim" points="207.5 122.69 212.5 119.8 202.5 125.58 202.5 177.54 207.5 174.65 207.5 122.69"/><polygon class="exterior-L-prim-2" points="207.5 174.65 212.5 177.54 212.5 177.54 212.5 119.8 207.5 122.69 207.5 174.65"/><polygon class="window-R-prim" points="237.5 105.37 232.5 108.26 232.5 160.22 237.5 157.33 237.5 105.37"/><polygon class="exterior-L-prim-2" points="242.5 160.22 242.5 160.22 242.5 102.48 237.5 105.37 237.5 157.33 242.5 160.22"/><polygon class="window-R-prim" points="267.5 88.05 262.5 90.94 262.5 142.9 267.5 140.01 267.5 88.05"/><polygon class="window-R-prim" points="267.5 140.01 272.5 142.9 272.5 142.9 267.5 140.01"/><polygon class="exterior-L-prim-2" points="267.5 140.01 272.5 142.9 272.5 142.9 272.5 85.16 267.5 88.05 267.5 140.01"/></svg>