<svg id="Layer_1" data-name="Layer 1" xmlns="http://www.w3.org/2000/svg" viewBox="0 0 280.27 998.82">
  <defs>
    <style>
      .top-prim {
        fill: #dd8987;
      }

      .exterior-R-prim {
        fill: #d15752;
      }

      .window-R-prim {
        fill: #bd9563;
      }

      .exterior-L-prim {
        fill: #73302f;
      }

      .window-L-prim {
        fill: #4d3b25;
      }
    </style>
  </defs>
  <title>Artboard 4</title>
  <g id="tall">
    <path id="anchor_0_837.16"  class="top-prim" d="M0,92,160.2,0,280.27,69.63l-160.19,92Z"/>
    <path id="Path" class="exterior-R-prim" d="M120.2,161.66V998.82l160-92.38V69.29Z"/>
    <g id="Group">
      <path id="Path-2" class="window-R-prim" d="M125.2,164.55,159,145.06v20.21l-33.8,19.49Z"/>
      <path id="Path-3" class="window-R-prim" d="M164,142.18l33.75-19.49V142.9L164,162.38Z"/>
      <path id="Path-4" class="window-R-prim" d="M202.7,119.8l33.75-19.48v20.21L202.7,140Z"/>
      <path id="Path-5" class="window-R-prim" d="M241.45,97.43,275.2,78V98.2l-33.75,19.49Z"/>
      <path id="Path-6" class="window-R-prim" d="M125.2,268.51,159,249v20.2l-33.8,19.52Z"/>
      <path id="Path-7" class="window-R-prim" d="M164,246.14l33.75-19.49v20.21L164,266.35Z"/>
      <path id="Path-8" class="window-R-prim" d="M202.7,223.77l33.75-19.49v20.21L202.7,244Z"/>
      <path id="Path-9" class="window-R-prim" d="M241.45,201.4l33.75-19.49v20.21L241.45,221.6Z"/>
      <path id="Path-10" class="window-R-prim" d="M125.2,372.39,159,352.91v20.21L125.2,392.6Z"/>
      <path id="Path-11" class="window-R-prim" d="M164,350l33.75-19.48v20.2L164,370.23Z"/>
      <path id="Path-12" class="window-R-prim" d="M202.7,327.65l33.75-19.49v20.21L202.7,347.86Z"/>
      <path id="Path-13" class="window-R-prim" d="M241.45,305.28l33.75-19.49V306l-33.75,19.49Z"/>
      <path id="Path-14" class="window-R-prim" d="M125.2,476.32,159,456.83V477l-33.8,19.53Z"/>
      <path id="Path-15" class="window-R-prim" d="M164,454l33.75-19.49v20.21L164,474.15Z"/>
      <path id="Path-16" class="window-R-prim" d="M202.7,431.57l33.75-19.48V432.3L202.7,451.78Z"/>
      <path id="Path-17" class="window-R-prim" d="M241.45,409.2l33.75-19.48v20.2l-33.75,19.49Z"/>
      <path id="Path-18" class="window-R-prim" d="M125.2,216.51,159,197v20.21l-33.8,19.51Z"/>
      <path id="Path-19" class="window-R-prim" d="M164,194.14l33.75-19.49v20.21L164,214.35Z"/>
      <path id="Path-20" class="window-R-prim" d="M202.7,171.77l33.75-19.49v20.21L202.7,192Z"/>
      <path id="Path-21" class="window-R-prim" d="M241.45,149.39l33.75-19.48v20.21L241.45,169.6Z"/>
      <path id="Path-22" class="window-R-prim" d="M125.2,320.47,159,301v20.2l-33.8,19.48Z"/>
      <path id="Path-23" class="window-R-prim" d="M164,298.1l33.75-19.48v20.2L164,318.31Z"/>
      <path id="Path-24" class="window-R-prim" d="M202.7,275.73l33.75-19.49v20.21L202.7,295.94Z"/>
      <path id="Path-25" class="window-R-prim" d="M241.45,253.36l33.75-19.49v20.21l-33.75,19.48Z"/>
      <path id="Path-26" class="window-R-prim" d="M125.2,424.36,159,404.87v20.21l-33.8,19.48Z"/>
      <path id="Path-27" class="window-R-prim" d="M164,402l33.7-19.5v20.21L164,422.19Z"/>
      <path id="Path-28" class="window-R-prim" d="M202.7,379.61l33.75-19.48v20.2L202.7,399.82Z"/>
      <path id="Path-29" class="window-R-prim" d="M241.45,357.24l33.75-19.49V358l-33.75,19.49Z"/>
      <path id="Path-30" class="window-R-prim" d="M125.2,528.28,159,508.79V529l-33.8,19.49Z"/>
      <path id="Path-31" class="window-R-prim" d="M164,505.91l33.75-19.49v20.21L164,526.11Z"/>
      <path id="Path-32" class="window-R-prim" d="M202.7,483.53l33.75-19.48v20.21L202.7,503.74Z"/>
      <path id="Path-33" class="window-R-prim" d="M241.45,461.16l33.75-19.48v20.2l-33.75,19.49Z"/>
      <path id="Path-34" class="window-R-prim" d="M125.2,554.26,159,534.77V555l-33.8,19.47Z"/>
      <path id="Path-35" class="window-R-prim" d="M164,531.89l33.7-19.49v20.21L164,552.1Z"/>
      <path id="Path-36" class="window-R-prim" d="M202.7,509.52,236.45,490v20.21L202.7,529.72Z"/>
      <path id="Path-37" class="window-R-prim" d="M241.45,487.14l33.75-19.48v20.21l-33.75,19.48Z"/>
      <path id="Path-38" class="window-R-prim" d="M125.2,190.53,159,171v20.21l-33.8,19.53Z"/>
      <path id="Path-39" class="window-R-prim" d="M164,168.16l33.75-19.49v20.21L164,188.36Z"/>
      <path id="Path-40" class="window-R-prim" d="M202.7,145.79l33.75-19.49v20.21L202.7,166Z"/>
      <path id="Path-41" class="window-R-prim" d="M241.45,123.41l33.75-19.48v20.2l-33.75,19.49Z"/>
      <path id="Path-42" class="window-R-prim" d="M125.2,294.49,159,275v20.21L125.2,314.7Z"/>
      <path id="Path-43" class="window-R-prim" d="M164,272.12l33.75-19.48v20.2L164,292.33Z"/>
      <path id="Path-44" class="window-R-prim" d="M202.7,249.75l33.75-19.49v20.21L202.7,270Z"/>
      <path id="Path-45" class="window-R-prim" d="M241.45,227.38l33.75-19.49V228.1l-33.75,19.48Z"/>
      <path id="Path-46" class="window-R-prim" d="M125.2,398.38,159,378.89V399.1l-33.8,19.48Z"/>
      <path id="Path-47" class="window-R-prim" d="M164,376l33.75-19.48v20.21L164,396.21Z"/>
      <path id="Path-48" class="window-R-prim" d="M202.7,353.63l33.75-19.48v20.2L202.7,373.84Z"/>
      <path id="Path-49" class="window-R-prim" d="M241.45,331.26l33.75-19.49V332l-33.75,19.49Z"/>
      <path id="Path-50" class="window-R-prim" d="M125.2,502.3,159,482.81V503l-33.8,19.51Z"/>
      <path id="Path-51" class="window-R-prim" d="M164,479.93l33.75-19.49v20.21L164,500.13Z"/>
      <path id="Path-52" class="window-R-prim" d="M202.7,457.55l33.75-19.48v20.21L202.7,477.76Z"/>
      <path id="Path-53" class="window-R-prim" d="M241.45,435.18,275.2,415.7v20.2l-33.75,19.49Z"/>
      <path id="Path-54" class="window-R-prim" d="M125.2,242.49,159,223v20.2l-33.8,19.5Z"/>
      <path id="Path-55" class="window-R-prim" d="M164,220.12l33.75-19.49v20.21L164,240.33Z"/>
      <path id="Path-56" class="window-R-prim" d="M202.7,197.75l33.75-19.49v20.21L202.7,218Z"/>
      <path id="Path-57" class="window-R-prim" d="M241.45,175.37l33.75-19.48V176.1l-33.75,19.48Z"/>
      <path id="Path-58" class="window-R-prim" d="M125.2,346.46,159,327v20.21l-33.8,19.45Z"/>
      <path id="Path-59" class="window-R-prim" d="M164,324.08l33.7-19.48v20.2L164,344.29Z"/>
      <path id="Path-60" class="window-R-prim" d="M202.7,301.71l33.75-19.49v20.21L202.7,321.92Z"/>
      <path id="Path-61" class="window-R-prim" d="M241.45,279.34l33.75-19.49v20.21l-33.75,19.49Z"/>
      <path id="Path-62" class="window-R-prim" d="M125.2,450.34,159,430.85v20.21l-33.8,19.48Z"/>
      <path id="Path-63" class="window-R-prim" d="M164,428l33.75-19.48v20.21L164,448.17Z"/>
      <path id="Path-64" class="window-R-prim" d="M202.7,405.59l33.75-19.48v20.2L202.7,425.8Z"/>
      <path id="Path-65" class="window-R-prim" d="M241.45,383.22l33.75-19.49v20.21l-33.75,19.49Z"/>
    </g>
    <g id="Group-2">
      <path id="Path-66" class="window-R-prim" d="M125.2,580.24,159,560.76V581l-33.8,19.45Z"/>
      <path id="Path-67" class="window-R-prim" d="M164,557.87l33.75-19.49v20.21L164,578.08Z"/>
      <path id="Path-68" class="window-R-prim" d="M202.7,535.5,236.45,516v20.21L202.7,555.7Z"/>
      <path id="Path-69" class="window-R-prim" d="M241.45,513.12l33.75-19.48v20.21l-33.75,19.48Z"/>
      <path id="Path-70" class="window-R-prim" d="M125.2,684.2,159,664.72v20.21l-33.8,19.48Z"/>
      <path id="Path-71" class="window-R-prim" d="M164,661.83l33.75-19.48v20.2L164,682Z"/>
      <path id="Path-72" class="window-R-prim" d="M202.7,639.46,236.45,620v20.21L202.7,659.67Z"/>
      <path id="Path-73" class="window-R-prim" d="M241.45,617.09,275.2,597.6v20.21L241.45,637.3Z"/>
      <path id="Path-74" class="window-R-prim" d="M125.2,788.09,159,768.6v20.21l-33.8,19.48Z"/>
      <path id="Path-75" class="window-R-prim" d="M164,765.71l33.75-19.48v20.21L164,785.92Z"/>
      <path id="Path-76" class="window-R-prim" d="M202.7,743.34l33.75-19.48v20.2L202.7,763.55Z"/>
      <path id="Path-77" class="window-R-prim" d="M241.45,721l33.75-19.49v20.21l-33.75,19.49Z"/>
      <path id="Path-78" class="window-R-prim" d="M125.2,892,159,872.52v20.21l-33.8,19.49Z"/>
      <path id="Path-79" class="window-R-prim" d="M164,869.64l33.75-19.49v20.21L164,889.85Z"/>
      <path id="Path-80" class="window-R-prim" d="M202.7,847.27l33.75-19.49V848L202.7,867.47Z"/>
      <path id="Path-81" class="window-R-prim" d="M241.45,824.89l33.75-19.48v20.2L241.45,845.1Z"/>
      <path id="Path-82" class="window-R-prim" d="M125.2,632.2,159,612.72v20.2l-33.8,19.49Z"/>
      <path id="Path-83" class="window-R-prim" d="M164,609.83l33.75-19.49v20.21L164,630Z"/>
      <path id="Path-84" class="window-R-prim" d="M202.7,587.46,236.45,568v20.21L202.7,607.67Z"/>
      <path id="Path-85" class="window-R-prim" d="M241.45,565.09,275.2,545.6v20.21l-33.75,19.48Z"/>
      <path id="Path-86" class="window-R-prim" d="M125.2,736.17,159,716.68v20.21l-33.8,19.48Z"/>
      <path id="Path-87" class="window-R-prim" d="M164,713.79l33.75-19.48v20.21L164,734Z"/>
      <path id="Path-88" class="window-R-prim" d="M202.7,691.42l33.75-19.48v20.2L202.7,711.63Z"/>
      <path id="Path-89" class="window-R-prim" d="M241.45,669.05l33.75-19.49v20.21l-33.75,19.49Z"/>
      <path id="Path-90" class="window-R-prim" d="M125.2,840.05,159,820.56v20.21l-33.8,19.49Z"/>
      <path id="Path-91" class="window-R-prim" d="M164,817.68l33.75-19.49V818.4L164,837.88Z"/>
      <path id="Path-92" class="window-R-prim" d="M202.7,795.3l33.75-19.48V796L202.7,815.51Z"/>
      <path id="Path-93" class="window-R-prim" d="M241.45,772.93l33.75-19.48v20.2l-33.75,19.49Z"/>
      <path id="Path-94" class="window-R-prim" d="M125.2,944,159,924.49v20.2l-33.8,19.49Z"/>
      <path id="Path-95" class="window-R-prim" d="M164,921.6l33.75-19.49v20.21L164,941.81Z"/>
      <path id="Path-96" class="window-R-prim" d="M202.7,899.23l33.75-19.49V900L202.7,919.43Z"/>
      <path id="Path-97" class="window-R-prim" d="M241.45,876.85l33.75-19.48v20.21l-33.75,19.48Z"/>
      <path id="Path-98" class="window-R-prim" d="M125.2,970,159,950.47v20.2l-33.8,19.49Z"/>
      <path id="Path-99" class="window-R-prim" d="M164,947.58l33.75-19.49V948.3L164,967.79Z"/>
      <path id="Path-100" class="window-R-prim" d="M202.7,925.21l33.75-19.49v20.21L202.7,945.42Z"/>
      <path id="Path-101" class="window-R-prim" d="M241.45,902.84l33.75-19.49v20.21L241.45,923Z"/>
      <path id="Path-102" class="window-R-prim" d="M125.2,606.22,159,586.74v20.2l-33.8,19.49Z"/>
      <path id="Path-103" class="window-R-prim" d="M164,583.85l33.75-19.49v20.21L164,604.06Z"/>
      <path id="Path-104" class="window-R-prim" d="M202.7,561.48,236.45,542v20.2L202.7,581.68Z"/>
      <path id="Path-105" class="window-R-prim" d="M241.45,539.1l33.75-19.48v20.21l-33.75,19.48Z"/>
      <path id="Path-106" class="window-R-prim" d="M125.2,710.19,159,690.7v20.21l-33.8,19.48Z"/>
      <path id="Path-107" class="window-R-prim" d="M164,687.81l33.75-19.48v20.21L164,708Z"/>
      <path id="Path-108" class="window-R-prim" d="M202.7,665.44,236.45,646v20.2L202.7,685.65Z"/>
      <path id="Path-109" class="window-R-prim" d="M241.45,643.07l33.75-19.49v20.21l-33.75,19.49Z"/>
      <path id="Path-110" class="window-R-prim" d="M125.2,814.07,159,794.58v20.21l-33.8,19.49Z"/>
      <path id="Path-111" class="window-R-prim" d="M164,791.7l33.75-19.49v20.21L164,811.9Z"/>
      <path id="Path-112" class="window-R-prim" d="M202.7,769.32l33.75-19.48V770L202.7,789.53Z"/>
      <path id="Path-113" class="window-R-prim" d="M241.45,747l33.75-19.48v20.2l-33.75,19.49Z"/>
      <path id="Path-114" class="window-R-prim" d="M125.2,918,159,898.51v20.2L125.2,938.2Z"/>
      <path id="Path-115" class="window-R-prim" d="M164,895.62l33.75-19.49v20.21L164,915.83Z"/>
      <path id="Path-116" class="window-R-prim" d="M202.7,873.25l33.75-19.49V874L202.7,893.45Z"/>
      <path id="Path-117" class="window-R-prim" d="M241.45,850.87l33.75-19.48V851.6l-33.75,19.48Z"/>
      <path id="Path-118" class="window-R-prim" d="M125.2,658.18,159,638.7v20.21l-33.8,19.48Z"/>
      <path id="Path-119" class="window-R-prim" d="M164,635.81l33.75-19.48v20.2L164,656Z"/>
      <path id="Path-120" class="window-R-prim" d="M202.7,613.44,236.45,594v20.21L202.7,633.65Z"/>
      <path id="Path-121" class="window-R-prim" d="M241.45,591.07l33.75-19.49v20.21l-33.75,19.48Z"/>
      <path id="Path-122" class="window-R-prim" d="M125.2,762.15,159,742.66v20.21l-33.8,19.48Z"/>
      <path id="Path-123" class="window-R-prim" d="M164,739.77l33.75-19.48V740.5L164,760Z"/>
      <path id="Path-124" class="window-R-prim" d="M202.7,717.4l33.75-19.48v20.2L202.7,737.61Z"/>
      <path id="Path-125" class="window-R-prim" d="M241.45,695l33.75-19.49v20.21l-33.75,19.49Z"/>
      <path id="Path-126" class="window-R-prim" d="M125.2,866,159,846.54v20.21l-33.8,19.49Z"/>
      <path id="Path-127" class="window-R-prim" d="M164,843.66l33.75-19.49v20.21L164,863.86Z"/>
      <path id="Path-128" class="window-R-prim" d="M202.7,821.28l33.75-19.48V822L202.7,841.49Z"/>
      <path id="Path-129" class="window-R-prim" d="M241.45,798.91l33.75-19.48v20.2l-33.75,19.49Z"/>
    </g>
    <path id="Path-130" class="exterior-L-prim" d="M120.2,161.66V998.82L.2,929.54V92.38Z"/>
    <path id="Path-131" class="top-prim" d="M159,165.27l-5-2.89L125.2,179v5.78Z"/>
    <path id="Path-132" class="top-prim" d="M159,581l-5-2.88-28.8,16.55v5.78Z"/>
    <path id="Path-133" class="top-prim" d="M236.45,120.53l-5-2.89-28.75,16.6V140Z"/>
    <path id="Path-134" class="top-prim" d="M236.45,536.22l-5-2.89-28.75,16.6v5.77Z"/>
    <path id="Path-135" class="top-prim" d="M197.7,142.9l-5-2.89L164,156.61v5.77Z"/>
    <path id="Path-136" class="top-prim" d="M197.7,558.59l-5-2.89L164,572.3v5.78Z"/>
    <path id="Path-137" class="top-prim" d="M275.2,98.15l-5-2.88-28.75,16.6v5.77Z"/>
    <path id="Path-138" class="top-prim" d="M275.2,513.85l-5-2.89-28.75,16.6v5.77Z"/>
    <path id="Path-139" class="exterior-L-prim" d="M270.2,95.27V80.83l5-2.88v20.2Z"/>
    <path id="Path-140" class="exterior-L-prim" d="M270.2,511V496.53l5-2.89v20.21Z"/>
    <path id="Path-141" class="exterior-L-prim" d="M192.7,140V125.58l5-2.89V142.9Z"/>
    <path id="Path-142" class="exterior-L-prim" d="M192.7,555.7V541.27l5-2.89v20.21Z"/>
    <path id="Path-143" class="exterior-L-prim" d="M231.45,117.64V103.21l5-2.89v20.21Z"/>
    <path id="Path-144" class="exterior-L-prim" d="M231.45,533.33V518.9l5-2.89v20.21Z"/>
    <path id="Path-145" class="exterior-L-prim" d="M154,162.38V148l5-2.89v20.21Z"/>
    <path id="Path-146" class="exterior-L-prim" d="M154,578.08V563.64l5-2.88V581Z"/>
    <g id="Group-3">
      <path id="Path-147" class="window-L-prim" d="M115.2,164.55,81.45,145.06v20.21l33.75,19.49Z"/>
      <path id="Path-148" class="window-L-prim" d="M76.45,142.18,42.7,122.69V142.9l33.75,19.48Z"/>
      <path id="Path-149" class="window-L-prim" d="M37.7,119.8,4,100.32v20.21L37.7,140Z"/>
      <path id="Path-150" class="top-prim" d="M81.45,165.27l5-2.89L115.2,179v5.78Z"/>
      <path id="Path-151" class="top-prim" d="M4,120.53l5-2.89,28.75,16.6V140Z"/>
      <path id="Path-152" class="top-prim" d="M42.7,142.9l5-2.89,28.75,16.6v5.77Z"/>
      <path id="Path-153" class="exterior-R-prim" d="M47.7,140V125.58l-5-2.89V142.9Z"/>
      <path id="Path-154" class="exterior-R-prim" d="M9,117.64V103.21l-5-2.89v20.21Z"/>
      <path id="Path-155" class="exterior-R-prim" d="M86.45,162.38V148l-5-2.89v20.21Z"/>
    </g>
    <g id="Group-4">
      <path id="Path-156" class="window-L-prim" d="M115.2,580.24,81.45,560.76V581l33.75,19.49Z"/>
      <path id="Path-157" class="window-L-prim" d="M76.45,557.87,42.7,538.38v20.21l33.75,19.49Z"/>
      <path id="Path-158" class="window-L-prim" d="M37.7,535.5,4,516v20.21L37.7,555.7Z"/>
      <path id="Path-159" class="top-prim" d="M81.45,581l5-2.88,28.75,16.59v5.78Z"/>
      <path id="Path-160" class="top-prim" d="M4,536.22l5-2.89,28.75,16.6v5.77Z"/>
      <path id="Path-161" class="top-prim" d="M42.7,558.59l5-2.89,28.75,16.6v5.78Z"/>
      <path id="Path-162" class="exterior-R-prim" d="M47.7,555.7V541.27l-5-2.89v20.21Z"/>
      <path id="Path-163" class="exterior-R-prim" d="M9,533.33V518.9L4,516v20.21Z"/>
      <path id="Path-164" class="exterior-R-prim" d="M86.45,578.08V563.64l-5-2.88V581Z"/>
    </g>
    <g id="Group-5">
      <path id="Path-165" class="window-L-prim" d="M115.2,268.51,81.45,249v20.2l33.75,19.49Z"/>
      <path id="Path-166" class="window-L-prim" d="M76.45,246.14,42.7,226.65v20.21l33.75,19.49Z"/>
      <path id="Path-167" class="window-L-prim" d="M37.7,223.77,4,204.28v20.21L37.7,244Z"/>
      <path id="Path-168" class="top-prim" d="M81.45,269.23l5-2.88L115.2,283v5.77Z"/>
      <path id="Path-169" class="top-prim" d="M4,224.49l5-2.89,28.7,16.6V244Z"/>
      <path id="Path-170" class="top-prim" d="M42.7,246.86l5-2.88,28.75,16.59v5.78Z"/>
      <path id="Path-171" class="exterior-R-prim" d="M47.7,244V229.54l-5-2.89v20.21Z"/>
      <path id="Path-172" class="exterior-R-prim" d="M9,221.6V207.17l-5-2.89v20.21Z"/>
      <path id="Path-173" class="exterior-R-prim" d="M86.45,266.35V251.91l-5-2.88v20.2Z"/>
    </g>
    <g id="Group-6">
      <path id="Path-174" class="window-L-prim" d="M115.2,684.2,81.45,664.72v20.21l33.75,19.48Z"/>
      <path id="Path-175" class="window-L-prim" d="M76.45,661.83,42.7,642.35v20.2L76.45,682Z"/>
      <path id="Path-176" class="window-L-prim" d="M37.7,639.46,4,620v20.21l33.7,19.46Z"/>
      <path id="Path-177" class="top-prim" d="M81.45,684.93l5-2.89,28.75,16.6v5.77Z"/>
      <path id="Path-178" class="top-prim" d="M4,640.18l5-2.88,28.7,16.59v5.78Z"/>
      <path id="Path-179" class="top-prim" d="M42.7,662.55l5-2.88,28.75,16.6V682Z"/>
      <path id="Path-180" class="exterior-R-prim" d="M47.7,659.67V645.23l-5-2.88v20.2Z"/>
      <path id="Path-181" class="exterior-R-prim" d="M9,637.3V622.86L4,620v20.21Z"/>
      <path id="Path-182" class="exterior-R-prim" d="M86.45,682V667.61l-5-2.89v20.21Z"/>
    </g>
    <g id="Group-7">
      <path id="Path-183" class="window-L-prim" d="M115.2,372.39,81.45,352.91v20.21L115.2,392.6Z"/>
      <path id="Path-184" class="window-L-prim" d="M76.45,350,42.7,330.54v20.2l33.75,19.49Z"/>
      <path id="Path-185" class="window-L-prim" d="M37.7,327.65,4,308.16v20.21l33.7,19.49Z"/>
      <path id="Path-186" class="top-prim" d="M81.45,373.12l5-2.89,28.75,16.6v5.77Z"/>
      <path id="Path-187" class="top-prim" d="M4,328.37l5-2.88,28.7,16.59v5.78Z"/>
      <path id="Path-188" class="top-prim" d="M42.7,350.74l5-2.88,28.75,16.6v5.77Z"/>
      <path id="Path-189" class="exterior-R-prim" d="M47.7,347.86V333.42l-5-2.88v20.2Z"/>
      <path id="Path-190" class="exterior-R-prim" d="M9,325.49V311.05l-5-2.89v20.21Z"/>
      <path id="Path-191" class="exterior-R-prim" d="M86.45,370.23V355.8l-5-2.89v20.21Z"/>
    </g>
    <g id="Group-8">
      <path id="Path-192" class="window-L-prim" d="M115.2,788.09,81.45,768.6v20.21l33.75,19.48Z"/>
      <path id="Path-193" class="window-L-prim" d="M76.45,765.71,42.7,746.23v20.21l33.75,19.48Z"/>
      <path id="Path-194" class="window-L-prim" d="M37.7,743.34,4,723.86v20.2l33.7,19.49Z"/>
      <path id="Path-195" class="top-prim" d="M81.45,788.81l5-2.89,28.75,16.6v5.77Z"/>
      <path id="Path-196" class="top-prim" d="M4,744.06l5-2.88,28.75,16.6v5.77Z"/>
      <path id="Path-197" class="top-prim" d="M42.7,766.44l5-2.89,28.75,16.6v5.77Z"/>
      <path id="Path-198" class="exterior-R-prim" d="M47.7,763.55V749.12l-5-2.89v20.21Z"/>
      <path id="Path-199" class="exterior-R-prim" d="M9,741.18V726.74l-5-2.88v20.2Z"/>
      <path id="Path-200" class="exterior-R-prim" d="M86.45,785.92V771.49l-5-2.89v20.21Z"/>
    </g>
    <g id="Group-9">
      <path id="Path-201" class="window-L-prim" d="M115.2,476.32,81.45,456.83V477l33.75,19.49Z"/>
      <path id="Path-202" class="window-L-prim" d="M76.45,454,42.7,434.46v20.21l33.75,19.48Z"/>
      <path id="Path-203" class="window-L-prim" d="M37.7,431.57,4,412.09V432.3l33.7,19.48Z"/>
      <path id="Path-204" class="top-prim" d="M81.45,477l5-2.89,28.75,16.6v5.78Z"/>
      <path id="Path-205" class="top-prim" d="M4,432.3l5-2.89L37.7,446v5.77Z"/>
      <path id="Path-206" class="top-prim" d="M42.7,454.67l5-2.89,28.75,16.6v5.77Z"/>
      <path id="Path-207" class="exterior-R-prim" d="M47.7,451.78V437.35l-5-2.89v20.21Z"/>
      <path id="Path-208" class="exterior-R-prim" d="M9,429.41V415l-5-2.88V432.3Z"/>
      <path id="Path-209" class="exterior-R-prim" d="M86.45,474.15V459.72l-5-2.89V477Z"/>
    </g>
    <g id="Group-10">
      <path id="Path-210" class="window-L-prim" d="M115.2,892,81.45,872.52v20.21l33.75,19.49Z"/>
      <path id="Path-211" class="window-L-prim" d="M76.45,869.64,42.7,850.15v20.21l33.75,19.49Z"/>
      <path id="Path-212" class="window-L-prim" d="M37.7,847.27,4,827.78V848l33.7,19.47Z"/>
      <path id="Path-213" class="top-prim" d="M81.45,892.73l5-2.88,28.75,16.59v5.78Z"/>
      <path id="Path-214" class="top-prim" d="M4,848l5-2.89L37.7,861.7v5.77Z"/>
      <path id="Path-215" class="top-prim" d="M42.7,870.36l5-2.89,28.75,16.6v5.78Z"/>
      <path id="Path-216" class="exterior-R-prim" d="M47.7,867.47V853l-5-2.89v20.21Z"/>
      <path id="Path-217" class="exterior-R-prim" d="M9,845.1V830.67l-5-2.89V848Z"/>
      <path id="Path-218" class="exterior-R-prim" d="M86.45,889.85V875.41l-5-2.89v20.21Z"/>
    </g>
    <g id="Group-11">
      <path id="Path-219" class="window-L-prim" d="M115.2,216.51,81.45,197v20.21L115.2,236.7Z"/>
      <path id="Path-220" class="window-L-prim" d="M76.45,194.14,42.7,174.65v20.21l33.75,19.49Z"/>
      <path id="Path-221" class="window-L-prim" d="M37.7,171.77,4,152.28v20.21L37.7,192Z"/>
      <path id="Path-222" class="top-prim" d="M81.45,217.23l5-2.88,28.75,16.59v5.78Z"/>
      <path id="Path-223" class="top-prim" d="M4,172.49l5-2.89,28.7,16.6V192Z"/>
      <path id="Path-224" class="top-prim" d="M42.7,194.86l5-2.89,28.75,16.6v5.78Z"/>
      <path id="Path-225" class="exterior-R-prim" d="M47.7,192V177.54l-5-2.89v20.21Z"/>
      <path id="Path-226" class="exterior-R-prim" d="M9,169.6V155.17l-5-2.89v20.21Z"/>
      <path id="Path-227" class="exterior-R-prim" d="M86.45,214.35V199.91l-5-2.89v20.21Z"/>
    </g>
    <g id="Group-12">
      <path id="Path-228" class="window-L-prim" d="M115.2,632.2,81.45,612.72v20.2l33.75,19.49Z"/>
      <path id="Path-229" class="window-L-prim" d="M76.45,609.83,42.7,590.34v20.21L76.45,630Z"/>
      <path id="Path-230" class="window-L-prim" d="M37.7,587.46,4,568v20.21l33.7,19.46Z"/>
      <path id="Path-231" class="top-prim" d="M81.45,632.92l5-2.88,28.75,16.6v5.77Z"/>
      <path id="Path-232" class="top-prim" d="M4,588.18l5-2.89,28.75,16.6v5.78Z"/>
      <path id="Path-233" class="top-prim" d="M42.7,610.55l5-2.88,28.75,16.59V630Z"/>
      <path id="Path-234" class="exterior-R-prim" d="M47.7,607.67V593.23l-5-2.89v20.21Z"/>
      <path id="Path-235" class="exterior-R-prim" d="M9,585.29V570.86L4,568v20.21Z"/>
      <path id="Path-236" class="exterior-R-prim" d="M86.45,630V615.6l-5-2.88v20.2Z"/>
    </g>
    <g id="Group-13">
      <path id="Path-237" class="window-L-prim" d="M115.2,320.47,81.45,301v20.2l33.75,19.48Z"/>
      <path id="Path-238" class="window-L-prim" d="M76.45,298.1,42.7,278.62v20.2l33.75,19.49Z"/>
      <path id="Path-239" class="window-L-prim" d="M37.7,275.73,4,256.24v20.21l33.7,19.49Z"/>
      <path id="Path-240" class="top-prim" d="M81.45,321.2l5-2.89,28.75,16.6v5.77Z"/>
      <path id="Path-241" class="top-prim" d="M4,276.45l5-2.89,28.75,16.6v5.78Z"/>
      <path id="Path-242" class="top-prim" d="M42.7,298.82l5-2.88,28.75,16.6v5.77Z"/>
      <path id="Path-243" class="exterior-R-prim" d="M47.7,295.94V281.5l-5-2.88v20.2Z"/>
      <path id="Path-244" class="exterior-R-prim" d="M9,273.56V259.13l-5-2.89v20.21Z"/>
      <path id="Path-245" class="exterior-R-prim" d="M86.45,318.31V303.88l-5-2.89V321.2Z"/>
    </g>
    <g id="Group-14">
      <path id="Path-246" class="window-L-prim" d="M115.2,736.17,81.45,716.68v20.21l33.75,19.48Z"/>
      <path id="Path-247" class="window-L-prim" d="M76.45,713.79,42.7,694.31v20.21L76.45,734Z"/>
      <path id="Path-248" class="window-L-prim" d="M37.7,691.42,4,671.94v20.2l33.7,19.49Z"/>
      <path id="Path-249" class="top-prim" d="M81.45,736.89l5-2.89,28.75,16.6v5.77Z"/>
      <path id="Path-250" class="top-prim" d="M4,692.14l5-2.88,28.75,16.6v5.77Z"/>
      <path id="Path-251" class="top-prim" d="M42.7,714.52l5-2.89,28.75,16.6V734Z"/>
      <path id="Path-252" class="exterior-R-prim" d="M47.7,711.63V697.2l-5-2.89v20.21Z"/>
      <path id="Path-253" class="exterior-R-prim" d="M9,689.26V674.82l-5-2.88v20.2Z"/>
      <path id="Path-254" class="exterior-R-prim" d="M86.45,734V719.57l-5-2.89v20.21Z"/>
    </g>
    <g id="Group-15">
      <path id="Path-255" class="window-L-prim" d="M115.2,424.36,81.45,404.87v20.21l33.75,19.48Z"/>
      <path id="Path-256" class="window-L-prim" d="M76.45,402,42.7,382.5v20.21l33.75,19.48Z"/>
      <path id="Path-257" class="window-L-prim" d="M37.7,379.61,4,360.13v20.2l33.7,19.49Z"/>
      <path id="Path-258" class="top-prim" d="M81.45,425.08l5-2.89,28.75,16.6v5.77Z"/>
      <path id="Path-259" class="top-prim" d="M4,380.33l5-2.88,28.75,16.6v5.77Z"/>
      <path id="Path-260" class="top-prim" d="M42.7,402.71l5-2.89,28.75,16.6v5.77Z"/>
      <path id="Path-261" class="exterior-R-prim" d="M47.7,399.82V385.39l-5-2.89v20.21Z"/>
      <path id="Path-262" class="exterior-R-prim" d="M9,377.45V363l-5-2.88v20.2Z"/>
      <path id="Path-263" class="exterior-R-prim" d="M86.45,422.19V407.76l-5-2.89v20.21Z"/>
    </g>
    <g id="Group-16">
      <path id="Path-264" class="window-L-prim" d="M115.2,840.05,81.45,820.56v20.21l33.75,19.49Z"/>
      <path id="Path-265" class="window-L-prim" d="M76.45,817.68,42.7,798.19V818.4l33.75,19.48Z"/>
      <path id="Path-266" class="window-L-prim" d="M37.7,795.3,4,775.82V796l33.7,19.51Z"/>
      <path id="Path-267" class="top-prim" d="M81.45,840.77l5-2.89,28.75,16.6v5.78Z"/>
      <path id="Path-268" class="top-prim" d="M4,796l5-2.89,28.75,16.6v5.77Z"/>
      <path id="Path-269" class="top-prim" d="M42.7,818.4l5-2.89,28.75,16.6v5.77Z"/>
      <path id="Path-270" class="exterior-R-prim" d="M47.7,815.51V801.08l-5-2.89V818.4Z"/>
      <path id="Path-271" class="exterior-R-prim" d="M9,793.14V778.71l-5-2.89V796Z"/>
      <path id="Path-272" class="exterior-R-prim" d="M86.45,837.88V823.45l-5-2.89v20.21Z"/>
    </g>
    <g id="Group-17">
      <path id="Path-273" class="window-L-prim" d="M115.2,528.28,81.45,508.79V529l33.75,19.49Z"/>
      <path id="Path-274" class="window-L-prim" d="M76.45,505.91,42.7,486.42v20.21l33.75,19.48Z"/>
      <path id="Path-275" class="window-L-prim" d="M37.7,483.53,4,464.05v20.21l33.7,19.48Z"/>
      <path id="Path-276" class="top-prim" d="M81.45,529l5-2.89,28.75,16.6v5.78Z"/>
      <path id="Path-277" class="top-prim" d="M4,484.26l5-2.89L37.7,498v5.77Z"/>
      <path id="Path-278" class="top-prim" d="M42.7,506.63l5-2.89,28.75,16.6v5.77Z"/>
      <path id="Path-279" class="exterior-R-prim" d="M47.7,503.74V489.31l-5-2.89v20.21Z"/>
      <path id="Path-280" class="exterior-R-prim" d="M9,481.37V466.94l-5-2.89v20.21Z"/>
      <path id="Path-281" class="exterior-R-prim" d="M86.45,526.11V511.68l-5-2.89V529Z"/>
    </g>
    <g id="Group-18">
      <path id="Path-282" class="window-L-prim" d="M115.2,944,81.45,924.49v20.2l33.75,19.49Z"/>
      <path id="Path-283" class="window-L-prim" d="M76.45,921.6,42.7,902.11v20.21l33.75,19.49Z"/>
      <path id="Path-284" class="window-L-prim" d="M37.7,899.23,4,879.74V900l33.7,19.43Z"/>
      <path id="Path-285" class="top-prim" d="M81.45,944.69l5-2.88,28.75,16.6v5.77Z"/>
      <path id="Path-286" class="top-prim" d="M4,900l5-2.89,28.75,16.6v5.77Z"/>
      <path id="Path-287" class="top-prim" d="M42.7,922.32l5-2.89L76.45,936v5.78Z"/>
      <path id="Path-288" class="exterior-R-prim" d="M47.7,919.43V905l-5-2.89v20.21Z"/>
      <path id="Path-289" class="exterior-R-prim" d="M9,897.06V882.63l-5-2.89V900Z"/>
      <path id="Path-290" class="exterior-R-prim" d="M86.45,941.81V927.37l-5-2.88v20.2Z"/>
    </g>
    <g id="Group-19">
      <path id="Path-291" class="window-L-prim" d="M115.2,554.26,81.45,534.77V555l33.75,19.49Z"/>
      <path id="Path-292" class="window-L-prim" d="M76.45,531.89,42.7,512.4v20.21L76.45,552.1Z"/>
      <path id="Path-293" class="window-L-prim" d="M37.7,509.52,4,490v20.21l33.7,19.51Z"/>
      <path id="Path-294" class="top-prim" d="M81.45,555l5-2.88,28.75,16.59v5.78Z"/>
      <path id="Path-295" class="top-prim" d="M4,510.24l5-2.89L37.7,524v5.77Z"/>
      <path id="Path-296" class="top-prim" d="M42.7,532.61l5-2.89,28.75,16.6v5.78Z"/>
      <path id="Path-297" class="exterior-R-prim" d="M47.7,529.72V515.29l-5-2.89v20.21Z"/>
      <path id="Path-298" class="exterior-R-prim" d="M9,507.35V492.92L4,490v20.21Z"/>
      <path id="Path-299" class="exterior-R-prim" d="M86.45,552.1V537.66l-5-2.89V555Z"/>
    </g>
    <g id="Group-20">
      <path id="Path-300" class="window-L-prim" d="M115.2,970,81.45,950.47v20.2l33.75,19.49Z"/>
      <path id="Path-301" class="window-L-prim" d="M76.45,947.58,42.7,928.09V948.3l33.75,19.49Z"/>
      <path id="Path-302" class="window-L-prim" d="M37.7,925.21,4,905.72v20.21l33.7,19.49Z"/>
      <path id="Path-303" class="top-prim" d="M81.45,970.67l5-2.88,28.75,16.6v5.77Z"/>
      <path id="Path-304" class="top-prim" d="M4,925.93,9,923l28.75,16.6v5.78Z"/>
      <path id="Path-305" class="top-prim" d="M42.7,948.3l5-2.88L76.45,962v5.78Z"/>
      <path id="Path-306" class="exterior-R-prim" d="M47.7,945.42V931l-5-2.89V948.3Z"/>
      <path id="Path-307" class="exterior-R-prim" d="M9,923V908.61l-5-2.89v20.21Z"/>
      <path id="Path-308" class="exterior-R-prim" d="M86.45,967.79V953.35l-5-2.88v20.2Z"/>
    </g>
    <g id="Group-21">
      <path id="Path-309" class="window-L-prim" d="M115.2,190.53,81.45,171v20.21L115.2,210.7Z"/>
      <path id="Path-310" class="window-L-prim" d="M76.45,168.16,42.7,148.67v20.21l33.75,19.48Z"/>
      <path id="Path-311" class="window-L-prim" d="M37.7,145.79,4,126.3v20.21L37.7,166Z"/>
      <path id="Path-312" class="top-prim" d="M81.45,191.25l5-2.89L115.2,205v5.78Z"/>
      <path id="Path-313" class="top-prim" d="M4,146.51l5-2.89,28.75,16.6V166Z"/>
      <path id="Path-314" class="top-prim" d="M42.7,168.88l5-2.89,28.75,16.6v5.77Z"/>
      <path id="Path-315" class="exterior-R-prim" d="M47.7,166V151.56l-5-2.89v20.21Z"/>
      <path id="Path-316" class="exterior-R-prim" d="M9,143.62V129.19L4,126.3v20.21Z"/>
      <path id="Path-317" class="exterior-R-prim" d="M86.45,188.36V173.93l-5-2.89v20.21Z"/>
    </g>
    <g id="Group-22">
      <path id="Path-318" class="window-L-prim" d="M115.2,606.22,81.45,586.74v20.2l33.75,19.49Z"/>
      <path id="Path-319" class="window-L-prim" d="M76.45,583.85,42.7,564.36v20.21l33.75,19.49Z"/>
      <path id="Path-320" class="window-L-prim" d="M37.7,561.48,4,542v20.2l33.7,19.48Z"/>
      <path id="Path-321" class="top-prim" d="M81.45,606.94l5-2.88,28.75,16.6v5.77Z"/>
      <path id="Path-322" class="top-prim" d="M4,562.2l5-2.89,28.75,16.6v5.77Z"/>
      <path id="Path-323" class="top-prim" d="M42.7,584.57l5-2.89,28.75,16.6v5.78Z"/>
      <path id="Path-324" class="exterior-R-prim" d="M47.7,581.68V567.25l-5-2.89v20.21Z"/>
      <path id="Path-325" class="exterior-R-prim" d="M9,559.31V544.88L4,542v20.2Z"/>
      <path id="Path-326" class="exterior-R-prim" d="M86.45,604.06V589.62l-5-2.88v20.2Z"/>
    </g>
    <g id="Group-23">
      <path id="Path-327" class="window-L-prim" d="M115.2,294.49,81.45,275v20.21L115.2,314.7Z"/>
      <path id="Path-328" class="window-L-prim" d="M76.45,272.12,42.7,252.64v20.2l33.75,19.49Z"/>
      <path id="Path-329" class="window-L-prim" d="M37.7,249.75,4,230.26v20.21L37.7,270Z"/>
      <path id="Path-330" class="top-prim" d="M81.45,295.22l5-2.89,28.75,16.6v5.77Z"/>
      <path id="Path-331" class="top-prim" d="M4,250.47l5-2.89,28.75,16.6V270Z"/>
      <path id="Path-332" class="top-prim" d="M42.7,272.84l5-2.88,28.75,16.59v5.78Z"/>
      <path id="Path-333" class="exterior-R-prim" d="M47.7,270V255.52l-5-2.88v20.2Z"/>
      <path id="Path-334" class="exterior-R-prim" d="M9,247.58V233.15l-5-2.89v20.21Z"/>
      <path id="Path-335" class="exterior-R-prim" d="M86.45,292.33V277.89l-5-2.88v20.21Z"/>
    </g>
    <g id="Group-24">
      <path id="Path-336" class="window-L-prim" d="M115.2,710.19,81.45,690.7v20.21l33.75,19.48Z"/>
      <path id="Path-337" class="window-L-prim" d="M76.45,687.81,42.7,668.33v20.21L76.45,708Z"/>
      <path id="Path-338" class="window-L-prim" d="M37.7,665.44,4,646v20.2l33.7,19.45Z"/>
      <path id="Path-339" class="top-prim" d="M81.45,710.91l5-2.89,28.75,16.6v5.77Z"/>
      <path id="Path-340" class="top-prim" d="M4,666.16l5-2.88,28.7,16.59v5.78Z"/>
      <path id="Path-341" class="top-prim" d="M42.7,688.54l5-2.89,28.75,16.6V708Z"/>
      <path id="Path-342" class="exterior-R-prim" d="M47.7,685.65V671.21l-5-2.88v20.21Z"/>
      <path id="Path-343" class="exterior-R-prim" d="M9,663.28V648.84L4,646v20.2Z"/>
      <path id="Path-344" class="exterior-R-prim" d="M86.45,708V693.59l-5-2.89v20.21Z"/>
    </g>
    <g id="Group-25">
      <path id="Path-345" class="window-L-prim" d="M115.2,398.38,81.45,378.89V399.1l33.75,19.48Z"/>
      <path id="Path-346" class="window-L-prim" d="M76.45,376,42.7,356.52v20.21l33.75,19.48Z"/>
      <path id="Path-347" class="window-L-prim" d="M37.7,353.63,4,334.15v20.2l33.7,19.49Z"/>
      <path id="Path-348" class="top-prim" d="M81.45,399.1l5-2.89,28.75,16.6v5.77Z"/>
      <path id="Path-349" class="top-prim" d="M4,354.35l5-2.88,28.7,16.59v5.78Z"/>
      <path id="Path-350" class="top-prim" d="M42.7,376.73l5-2.89,28.75,16.6v5.77Z"/>
      <path id="Path-351" class="exterior-R-prim" d="M47.7,373.84V359.4l-5-2.88v20.21Z"/>
      <path id="Path-352" class="exterior-R-prim" d="M9,351.47V337l-5-2.88v20.2Z"/>
      <path id="Path-353" class="exterior-R-prim" d="M86.45,396.21V381.78l-5-2.89V399.1Z"/>
    </g>
    <g id="Group-26">
      <path id="Path-354" class="window-L-prim" d="M115.2,814.07,81.45,794.58v20.21l33.75,19.49Z"/>
      <path id="Path-355" class="window-L-prim" d="M76.45,791.7,42.7,772.21v20.21L76.45,811.9Z"/>
      <path id="Path-356" class="window-L-prim" d="M37.7,769.32,4,749.84V770l33.7,19.53Z"/>
      <path id="Path-357" class="top-prim" d="M81.45,814.79l5-2.89,28.75,16.6v5.78Z"/>
      <path id="Path-358" class="top-prim" d="M4,770l5-2.88,28.75,16.6v5.77Z"/>
      <path id="Path-359" class="top-prim" d="M42.7,792.42l5-2.89,28.75,16.6v5.77Z"/>
      <path id="Path-360" class="exterior-R-prim" d="M47.7,789.53V775.1l-5-2.89v20.21Z"/>
      <path id="Path-361" class="exterior-R-prim" d="M9,767.16V752.72l-5-2.88V770Z"/>
      <path id="Path-362" class="exterior-R-prim" d="M86.45,811.9V797.47l-5-2.89v20.21Z"/>
    </g>
    <g id="Group-27">
      <path id="Path-363" class="window-L-prim" d="M115.2,502.3,81.45,482.81V503l33.75,19.49Z"/>
      <path id="Path-364" class="window-L-prim" d="M76.45,479.93,42.7,460.44v20.21l33.75,19.48Z"/>
      <path id="Path-365" class="window-L-prim" d="M37.7,457.55,4,438.07v20.21l33.7,19.48Z"/>
      <path id="Path-366" class="top-prim" d="M81.45,503l5-2.89,28.75,16.6v5.78Z"/>
      <path id="Path-367" class="top-prim" d="M4,458.28l5-2.89L37.7,472v5.77Z"/>
      <path id="Path-368" class="top-prim" d="M42.7,480.65l5-2.89,28.75,16.6v5.77Z"/>
      <path id="Path-369" class="exterior-R-prim" d="M47.7,477.76V463.33l-5-2.89v20.21Z"/>
      <path id="Path-370" class="exterior-R-prim" d="M9,455.39V441l-5-2.89v20.21Z"/>
      <path id="Path-371" class="exterior-R-prim" d="M86.45,500.13V485.7l-5-2.89V503Z"/>
    </g>
    <g id="Group-28">
      <path id="Path-372" class="window-L-prim" d="M115.2,918,81.45,898.51v20.2L115.2,938.2Z"/>
      <path id="Path-373" class="window-L-prim" d="M76.45,895.62,42.7,876.13v20.21l33.75,19.49Z"/>
      <path id="Path-374" class="window-L-prim" d="M37.7,873.25,4,853.76V874l33.7,19.45Z"/>
      <path id="Path-375" class="top-prim" d="M81.45,918.71l5-2.88,28.75,16.59v5.78Z"/>
      <path id="Path-376" class="top-prim" d="M4,874l5-2.89,28.75,16.6v5.77Z"/>
      <path id="Path-377" class="top-prim" d="M42.7,896.34l5-2.89,28.75,16.6v5.78Z"/>
      <path id="Path-378" class="exterior-R-prim" d="M47.7,893.45V879l-5-2.89v20.21Z"/>
      <path id="Path-379" class="exterior-R-prim" d="M9,871.08V856.65l-5-2.89V874Z"/>
      <path id="Path-380" class="exterior-R-prim" d="M86.45,915.83V901.39l-5-2.88v20.2Z"/>
    </g>
    <g id="Group-29">
      <path id="Path-381" class="window-L-prim" d="M115.2,242.49,81.45,223v20.2l33.75,19.5Z"/>
      <path id="Path-382" class="window-L-prim" d="M76.45,220.12,42.7,200.63v20.21l33.75,19.49Z"/>
      <path id="Path-383" class="window-L-prim" d="M37.7,197.75,4,178.26v20.21L37.7,218Z"/>
      <path id="Path-384" class="top-prim" d="M81.45,243.21l5-2.88,28.75,16.59v5.78Z"/>
      <path id="Path-385" class="top-prim" d="M4,198.47l5-2.89,28.75,16.6V218Z"/>
      <path id="Path-386" class="top-prim" d="M42.7,220.84l5-2.89,28.75,16.6v5.78Z"/>
      <path id="Path-387" class="exterior-R-prim" d="M47.7,218V203.52l-5-2.89v20.21Z"/>
      <path id="Path-388" class="exterior-R-prim" d="M9,195.58V181.15l-5-2.89v20.21Z"/>
      <path id="Path-389" class="exterior-R-prim" d="M86.45,240.33V225.89l-5-2.88v20.2Z"/>
    </g>
    <g id="Group-30">
      <path id="Path-390" class="window-L-prim" d="M115.2,658.18,81.45,638.7v20.21l33.75,19.48Z"/>
      <path id="Path-391" class="window-L-prim" d="M76.45,635.81,42.7,616.33v20.2L76.45,656Z"/>
      <path id="Path-392" class="window-L-prim" d="M37.7,613.44,4,594v20.21l33.7,19.44Z"/>
      <path id="Path-393" class="top-prim" d="M81.45,658.91l5-2.89,28.75,16.6v5.77Z"/>
      <path id="Path-394" class="top-prim" d="M4,614.16l5-2.89,28.75,16.6v5.78Z"/>
      <path id="Path-395" class="top-prim" d="M42.7,636.53l5-2.88,28.75,16.59V656Z"/>
      <path id="Path-396" class="exterior-R-prim" d="M47.7,633.65V619.21l-5-2.88v20.2Z"/>
      <path id="Path-397" class="exterior-R-prim" d="M9,611.27V596.84L4,594v20.21Z"/>
      <path id="Path-398" class="exterior-R-prim" d="M86.45,656V641.58l-5-2.88v20.21Z"/>
    </g>
    <g id="Group-31">
      <path id="Path-399" class="window-L-prim" d="M115.2,346.46,81.45,327v20.21l33.75,19.48Z"/>
      <path id="Path-400" class="window-L-prim" d="M76.45,324.08,42.7,304.6v20.2l33.75,19.49Z"/>
      <path id="Path-401" class="window-L-prim" d="M37.7,301.71,4,282.22v20.21l33.7,19.49Z"/>
      <path id="Path-402" class="top-prim" d="M81.45,347.18l5-2.89,28.75,16.6v5.77Z"/>
      <path id="Path-403" class="top-prim" d="M4,302.43l5-2.88,28.7,16.59v5.78Z"/>
      <path id="Path-404" class="top-prim" d="M42.7,324.8l5-2.88,28.75,16.6v5.77Z"/>
      <path id="Path-405" class="exterior-R-prim" d="M47.7,321.92V307.48l-5-2.88v20.2Z"/>
      <path id="Path-406" class="exterior-R-prim" d="M9,299.55V285.11l-5-2.89v20.21Z"/>
      <path id="Path-407" class="exterior-R-prim" d="M86.45,344.29V329.86l-5-2.89v20.21Z"/>
    </g>
    <g id="Group-32">
      <path id="Path-408" class="window-L-prim" d="M115.2,762.15,81.45,742.66v20.21l33.75,19.48Z"/>
      <path id="Path-409" class="window-L-prim" d="M76.45,739.77,42.7,720.29V740.5L76.45,760Z"/>
      <path id="Path-410" class="window-L-prim" d="M37.7,717.4,4,697.92v20.2l33.7,19.49Z"/>
      <path id="Path-411" class="top-prim" d="M81.45,762.87l5-2.89,28.75,16.6v5.77Z"/>
      <path id="Path-412" class="top-prim" d="M4,718.12l5-2.88,28.75,16.6v5.77Z"/>
      <path id="Path-413" class="top-prim" d="M42.7,740.5l5-2.89,28.75,16.6V760Z"/>
      <path id="Path-414" class="exterior-R-prim" d="M47.7,737.61V723.18l-5-2.89V740.5Z"/>
      <path id="Path-415" class="exterior-R-prim" d="M9,715.24V700.8l-5-2.88v20.2Z"/>
      <path id="Path-416" class="exterior-R-prim" d="M86.45,760V745.55l-5-2.89v20.21Z"/>
    </g>
    <g id="Group-33">
      <path id="Path-417" class="window-L-prim" d="M115.2,450.34,81.45,430.85v20.21l33.75,19.48Z"/>
      <path id="Path-418" class="window-L-prim" d="M76.45,428,42.7,408.48v20.21l33.75,19.48Z"/>
      <path id="Path-419" class="window-L-prim" d="M37.7,405.59,4,386.11v20.2L37.7,425.8Z"/>
      <path id="Path-420" class="top-prim" d="M81.45,451.06l5-2.89,28.75,16.6v5.77Z"/>
      <path id="Path-421" class="top-prim" d="M4,406.31l5-2.88L37.7,420v5.77Z"/>
      <path id="Path-422" class="top-prim" d="M42.7,428.69l5-2.89,28.75,16.6v5.77Z"/>
      <path id="Path-423" class="exterior-R-prim" d="M47.7,425.8V411.37l-5-2.89v20.21Z"/>
      <path id="Path-424" class="exterior-R-prim" d="M9,403.43V389l-5-2.88v20.2Z"/>
      <path id="Path-425" class="exterior-R-prim" d="M86.45,448.17V433.74l-5-2.89v20.21Z"/>
    </g>
    <g id="Group-34">
      <path id="Path-426" class="window-L-prim" d="M115.2,866,81.45,846.54v20.21l33.75,19.49Z"/>
      <path id="Path-427" class="window-L-prim" d="M76.45,843.66,42.7,824.17v20.21l33.75,19.48Z"/>
      <path id="Path-428" class="window-L-prim" d="M37.7,821.28,4,801.8V822l33.7,19.49Z"/>
      <path id="Path-429" class="top-prim" d="M81.45,866.75l5-2.89,28.75,16.6v5.78Z"/>
      <path id="Path-430" class="top-prim" d="M4,822l5-2.89,28.75,16.6v5.77Z"/>
      <path id="Path-431" class="top-prim" d="M42.7,844.38l5-2.89,28.75,16.6v5.77Z"/>
      <path id="Path-432" class="exterior-R-prim" d="M47.7,841.49V827.06l-5-2.89v20.21Z"/>
      <path id="Path-433" class="exterior-R-prim" d="M9,819.12V804.69L4,801.8V822Z"/>
      <path id="Path-434" class="exterior-R-prim" d="M86.45,863.86V849.43l-5-2.89v20.21Z"/>
    </g>
    <path id="Path-435" class="top-prim" d="M159,269.23l-5-2.88L125.2,283v5.77Z"/>
    <path id="Path-436" class="top-prim" d="M159,684.93,154,682l-28.75,16.6v5.77Z"/>
    <path id="Path-437" class="top-prim" d="M236.45,224.49l-5-2.89L202.7,238.2V244Z"/>
    <path id="Path-438" class="top-prim" d="M236.45,640.18l-5-2.88L202.7,653.89v5.78Z"/>
    <path id="Path-439" class="top-prim" d="M197.7,246.86l-5-2.88L164,260.57v5.78Z"/>
    <path id="Path-440" class="top-prim" d="M197.7,662.55l-5-2.88L164,676.27V682Z"/>
    <path id="Path-441" class="top-prim" d="M275.2,202.12l-5-2.89-28.75,16.6v5.77Z"/>
    <path id="Path-442" class="top-prim" d="M275.2,617.81l-5-2.89-28.75,16.6v5.78Z"/>
    <path id="Path-443" class="exterior-L-prim" d="M270.2,199.23V184.8l5-2.89v20.21Z"/>
    <path id="Path-444" class="exterior-L-prim" d="M270.2,614.92V600.49l5-2.89v20.21Z"/>
    <path id="Path-445" class="exterior-L-prim" d="M192.7,244V229.54l5-2.89v20.21Z"/>
    <path id="Path-446" class="exterior-L-prim" d="M192.7,659.67V645.23l5-2.88v20.2Z"/>
    <path id="Path-447" class="exterior-L-prim" d="M231.45,221.6V207.17l5-2.89v20.21Z"/>
    <path id="Path-448" class="exterior-L-prim" d="M231.45,637.3V622.86l5-2.89v20.21Z"/>
    <path id="Path-449" class="exterior-L-prim" d="M154,266.35V251.91l5-2.88v20.2Z"/>
    <path id="Path-450" class="exterior-L-prim" d="M154,682V667.61l5-2.89v20.21Z"/>
    <path id="Path-451" class="top-prim" d="M159,373.12l-5-2.89-28.75,16.6v5.77Z"/>
    <path id="Path-452" class="top-prim" d="M159,788.81l-5-2.89-28.75,16.6v5.77Z"/>
    <path id="Path-453" class="top-prim" d="M236.45,328.37l-5-2.88L202.7,342.08v5.78Z"/>
    <path id="Path-454" class="top-prim" d="M236.45,744.06l-5-2.88-28.75,16.6v5.77Z"/>
    <path id="Path-455" class="top-prim" d="M197.7,350.74l-5-2.88L164,364.46v5.77Z"/>
    <path id="Path-456" class="top-prim" d="M197.7,766.44l-5-2.89L164,780.15v5.77Z"/>
    <path id="Path-457" class="top-prim" d="M275.2,306l-5-2.89-28.75,16.6v5.78Z"/>
    <path id="Path-458" class="top-prim" d="M275.2,721.69l-5-2.88L241.45,735.4v5.78Z"/>
    <path id="Path-459" class="exterior-L-prim" d="M270.2,303.11V288.68l5-2.89V306Z"/>
    <path id="Path-460" class="exterior-L-prim" d="M270.2,718.81V704.37l5-2.89v20.21Z"/>
    <path id="Path-461" class="exterior-L-prim" d="M192.7,347.86V333.42l5-2.88v20.2Z"/>
    <path id="Path-462" class="exterior-L-prim" d="M192.7,763.55V749.12l5-2.89v20.21Z"/>
    <path id="Path-463" class="exterior-L-prim" d="M231.45,325.49V311.05l5-2.89v20.21Z"/>
    <path id="Path-464" class="exterior-L-prim" d="M231.45,741.18V726.74l5-2.88v20.2Z"/>
    <path id="Path-465" class="exterior-L-prim" d="M154,370.23V355.8l5-2.89v20.21Z"/>
    <path id="Path-466" class="exterior-L-prim" d="M154,785.92V771.49l5-2.89v20.21Z"/>
    <path id="Path-467" class="top-prim" d="M159,477l-5-2.89-28.75,16.6v5.78Z"/>
    <path id="Path-468" class="top-prim" d="M159,892.73l-5-2.88-28.8,16.59v5.78Z"/>
    <path id="Path-469" class="top-prim" d="M236.45,432.3l-5-2.89L202.7,446v5.77Z"/>
    <path id="Path-470" class="top-prim" d="M236.45,848l-5-2.89L202.7,861.7v5.77Z"/>
    <path id="Path-471" class="top-prim" d="M197.7,454.67l-5-2.89L164,468.38v5.77Z"/>
    <path id="Path-472" class="top-prim" d="M197.7,870.36l-5-2.89L164,884.07v5.78Z"/>
    <path id="Path-473" class="top-prim" d="M275.2,409.92l-5-2.88-28.75,16.59v5.78Z"/>
    <path id="Path-474" class="top-prim" d="M275.2,825.61l-5-2.88-28.75,16.6v5.77Z"/>
    <path id="Path-475" class="exterior-L-prim" d="M270.2,407V392.6l5-2.88v20.2Z"/>
    <path id="Path-476" class="exterior-L-prim" d="M270.2,822.73V808.29l5-2.88v20.2Z"/>
    <path id="Path-477" class="exterior-L-prim" d="M192.7,451.78V437.35l5-2.89v20.21Z"/>
    <path id="Path-478" class="exterior-L-prim" d="M192.7,867.47V853l5-2.89v20.21Z"/>
    <path id="Path-479" class="exterior-L-prim" d="M231.45,429.41V415l5-2.88V432.3Z"/>
    <path id="Path-480" class="exterior-L-prim" d="M231.45,845.1V830.67l5-2.89V848Z"/>
    <path id="Path-481" class="exterior-L-prim" d="M154,474.15V459.72l5-2.89V477Z"/>
    <path id="Path-482" class="exterior-L-prim" d="M154,889.85V875.41l5-2.89v20.21Z"/>
    <path id="Path-483" class="top-prim" d="M159,217.23l-5-2.88-28.8,16.59v5.78Z"/>
    <path id="Path-484" class="top-prim" d="M159,632.92,154,630l-28.75,16.6v5.77Z"/>
    <path id="Path-485" class="top-prim" d="M236.45,172.49l-5-2.89L202.7,186.2V192Z"/>
    <path id="Path-486" class="top-prim" d="M236.45,588.18l-5-2.89-28.75,16.6v5.78Z"/>
    <path id="Path-487" class="top-prim" d="M197.7,194.86l-5-2.89L164,208.57v5.78Z"/>
    <path id="Path-488" class="top-prim" d="M197.7,610.55l-5-2.88L164,624.26V630Z"/>
    <path id="Path-489" class="top-prim" d="M275.2,150.12l-5-2.89-28.75,16.6v5.77Z"/>
    <path id="Path-490" class="top-prim" d="M275.2,565.81l-5-2.89-28.75,16.6v5.77Z"/>
    <path id="Path-491" class="exterior-L-prim" d="M270.2,147.23V132.79l5-2.88v20.21Z"/>
    <path id="Path-492" class="exterior-L-prim" d="M270.2,562.92V548.49l5-2.89v20.21Z"/>
    <path id="Path-493" class="exterior-L-prim" d="M192.7,192V177.54l5-2.89v20.21Z"/>
    <path id="Path-494" class="exterior-L-prim" d="M192.7,607.67V593.23l5-2.89v20.21Z"/>
    <path id="Path-495" class="exterior-L-prim" d="M231.45,169.6V155.17l5-2.89v20.21Z"/>
    <path id="Path-496" class="exterior-L-prim" d="M231.45,585.29V570.86l5-2.89v20.21Z"/>
    <path id="Path-497" class="exterior-L-prim" d="M154,214.35V199.91l5-2.89v20.21Z"/>
    <path id="Path-498" class="exterior-L-prim" d="M154,630V615.6l5-2.88v20.2Z"/>
    <path id="Path-499" class="top-prim" d="M159,321.2l-5-2.89-28.75,16.6v5.77Z"/>
    <path id="Path-500" class="top-prim" d="M159,736.89,154,734l-28.8,16.6v5.77Z"/>
    <path id="Path-501" class="top-prim" d="M236.45,276.45l-5-2.89-28.75,16.6v5.78Z"/>
    <path id="Path-502" class="top-prim" d="M236.45,692.14l-5-2.88-28.75,16.6v5.77Z"/>
    <path id="Path-503" class="top-prim" d="M197.7,298.82l-5-2.88L164,312.54v5.77Z"/>
    <path id="Path-504" class="top-prim" d="M197.7,714.52l-5-2.89L164,728.23V734Z"/>
    <path id="Path-505" class="top-prim" d="M275.2,254.08l-5-2.89-28.75,16.6v5.77Z"/>
    <path id="Path-506" class="top-prim" d="M275.2,669.77l-5-2.89-28.75,16.6v5.78Z"/>
    <path id="Path-507" class="exterior-L-prim" d="M270.2,251.19V236.76l5-2.89v20.21Z"/>
    <path id="Path-508" class="exterior-L-prim" d="M270.2,666.88V652.45l5-2.89v20.21Z"/>
    <path id="Path-509" class="exterior-L-prim" d="M192.7,295.94V281.5l5-2.88v20.2Z"/>
    <path id="Path-510" class="exterior-L-prim" d="M192.7,711.63V697.2l5-2.89v20.21Z"/>
    <path id="Path-511" class="exterior-L-prim" d="M231.45,273.56V259.13l5-2.89v20.21Z"/>
    <path id="Path-512" class="exterior-L-prim" d="M231.45,689.26V674.82l5-2.88v20.2Z"/>
    <path id="Path-513" class="exterior-L-prim" d="M154,318.31V303.88l5-2.89V321.2Z"/>
    <path id="Path-514" class="exterior-L-prim" d="M154,734V719.57l5-2.89v20.21Z"/>
    <path id="Path-515" class="top-prim" d="M159,425.08l-5-2.89-28.75,16.6v5.77Z"/>
    <path id="Path-516" class="top-prim" d="M159,840.77l-5-2.89-28.75,16.6v5.78Z"/>
    <path id="Path-517" class="top-prim" d="M236.45,380.33l-5-2.88-28.75,16.6v5.77Z"/>
    <path id="Path-518" class="top-prim" d="M236.45,796l-5-2.89-28.75,16.6v5.77Z"/>
    <path id="Path-519" class="top-prim" d="M197.7,402.71l-5-2.89L164,416.42v5.77Z"/>
    <path id="Path-520" class="top-prim" d="M197.7,818.4l-5-2.89L164,832.11v5.77Z"/>
    <path id="Path-521" class="top-prim" d="M275.2,358l-5-2.89-28.75,16.6v5.78Z"/>
    <path id="Path-522" class="top-prim" d="M275.2,773.65l-5-2.88-28.75,16.6v5.77Z"/>
    <path id="Path-523" class="exterior-L-prim" d="M270.2,355.07V340.64l5-2.89V358Z"/>
    <path id="Path-524" class="exterior-L-prim" d="M270.2,770.77V756.33l5-2.88v20.2Z"/>
    <path id="Path-525" class="exterior-L-prim" d="M192.7,399.82V385.39l5-2.89v20.21Z"/>
    <path id="Path-526" class="exterior-L-prim" d="M192.7,815.51V801.08l5-2.89V818.4Z"/>
    <path id="Path-527" class="exterior-L-prim" d="M231.45,377.45V363l5-2.88v20.2Z"/>
    <path id="Path-528" class="exterior-L-prim" d="M231.45,793.14V778.71l5-2.89V796Z"/>
    <path id="Path-529" class="exterior-L-prim" d="M154,422.19V407.76l5-2.89v20.21Z"/>
    <path id="Path-530" class="exterior-L-prim" d="M154,837.88V823.45l5-2.89v20.21Z"/>
    <path id="Path-531" class="top-prim" d="M159,529l-5-2.89-28.75,16.6v5.78Z"/>
    <path id="Path-532" class="top-prim" d="M159,944.69l-5-2.88-28.75,16.6v5.77Z"/>
    <path id="Path-533" class="top-prim" d="M236.45,484.26l-5-2.89L202.7,498v5.77Z"/>
    <path id="Path-534" class="top-prim" d="M236.45,900l-5-2.89-28.75,16.6v5.77Z"/>
    <path id="Path-535" class="top-prim" d="M197.7,506.63l-5-2.89L164,520.34v5.77Z"/>
    <path id="Path-536" class="top-prim" d="M197.7,922.32l-5-2.89L164,936v5.78Z"/>
    <path id="Path-537" class="top-prim" d="M275.2,461.88l-5-2.88-28.75,16.6v5.77Z"/>
    <path id="Path-538" class="top-prim" d="M275.2,877.58l-5-2.89-28.75,16.6v5.77Z"/>
    <path id="Path-539" class="exterior-L-prim" d="M270.2,459V444.56l5-2.88v20.2Z"/>
    <path id="Path-540" class="exterior-L-prim" d="M270.2,874.69V860.26l5-2.89v20.21Z"/>
    <path id="Path-541" class="exterior-L-prim" d="M192.7,503.74V489.31l5-2.89v20.21Z"/>
    <path id="Path-542" class="exterior-L-prim" d="M192.7,919.43V905l5-2.89v20.21Z"/>
    <path id="Path-543" class="exterior-L-prim" d="M231.45,481.37V466.94l5-2.89v20.21Z"/>
    <path id="Path-544" class="exterior-L-prim" d="M231.45,897.06V882.63l5-2.89V900Z"/>
    <path id="Path-545" class="exterior-L-prim" d="M154,526.11V511.68l5-2.89V529Z"/>
    <path id="Path-546" class="exterior-L-prim" d="M154,941.81V927.37l5-2.88v20.2Z"/>
    <path id="Path-547" class="top-prim" d="M159,555l-5-2.88-28.8,16.57v5.78Z"/>
    <path id="Path-548" class="top-prim" d="M159,970.67l-5-2.88-28.75,16.6v5.77Z"/>
    <path id="Path-549" class="top-prim" d="M236.45,510.24l-5-2.89L202.7,524v5.77Z"/>
    <path id="Path-550" class="top-prim" d="M236.45,925.93l-5-2.89-28.75,16.6v5.78Z"/>
    <path id="Path-551" class="top-prim" d="M197.7,532.61l-5-2.89L164,546.32v5.78Z"/>
    <path id="Path-552" class="top-prim" d="M197.7,948.3l-5-2.88L164,962v5.78Z"/>
    <path id="Path-553" class="top-prim" d="M275.2,487.87l-5-2.89-28.75,16.6v5.77Z"/>
    <path id="Path-554" class="top-prim" d="M275.2,903.56l-5-2.89-28.75,16.6V923Z"/>
    <path id="Path-555" class="exterior-L-prim" d="M270.2,485V470.54l5-2.88v20.21Z"/>
    <path id="Path-556" class="exterior-L-prim" d="M270.2,900.67V886.24l5-2.89v20.21Z"/>
    <path id="Path-557" class="exterior-L-prim" d="M192.7,529.72V515.29l5-2.89v20.21Z"/>
    <path id="Path-558" class="exterior-L-prim" d="M192.7,945.42V931l5-2.89V948.3Z"/>
    <path id="Path-559" class="exterior-L-prim" d="M231.45,507.35V492.92l5-2.89v20.21Z"/>
    <path id="Path-560" class="exterior-L-prim" d="M231.45,923V908.61l5-2.89v20.21Z"/>
    <path id="Path-561" class="exterior-L-prim" d="M154,552.1V537.66l5-2.89V555Z"/>
    <path id="Path-562" class="exterior-L-prim" d="M154,967.79V953.35l5-2.88v20.2Z"/>
    <path id="Path-563" class="top-prim" d="M159,191.25l-5-2.89L125.2,205v5.78Z"/>
    <path id="Path-564" class="top-prim" d="M159,606.94l-5-2.88-28.75,16.6v5.77Z"/>
    <path id="Path-565" class="top-prim" d="M236.45,146.51l-5-2.89-28.75,16.6V166Z"/>
    <path id="Path-566" class="top-prim" d="M236.45,562.2l-5-2.89-28.75,16.6v5.77Z"/>
    <path id="Path-567" class="top-prim" d="M197.7,168.88l-5-2.89L164,182.59v5.77Z"/>
    <path id="Path-568" class="top-prim" d="M197.7,584.57l-5-2.89L164,598.28v5.78Z"/>
    <path id="Path-569" class="top-prim" d="M275.2,124.13l-5-2.88-28.75,16.6v5.77Z"/>
    <path id="Path-570" class="top-prim" d="M275.2,539.83l-5-2.89-28.75,16.6v5.77Z"/>
    <path id="Path-571" class="exterior-L-prim" d="M270.2,121.25V106.81l5-2.88v20.2Z"/>
    <path id="Path-572" class="exterior-L-prim" d="M270.2,536.94V522.51l5-2.89v20.21Z"/>
    <path id="Path-573" class="exterior-L-prim" d="M192.7,166V151.56l5-2.89v20.21Z"/>
    <path id="Path-574" class="exterior-L-prim" d="M192.7,581.68V567.25l5-2.89v20.21Z"/>
    <path id="Path-575" class="exterior-L-prim" d="M231.45,143.62V129.19l5-2.89v20.21Z"/>
    <path id="Path-576" class="exterior-L-prim" d="M231.45,559.31V544.88l5-2.89V562.2Z"/>
    <path id="Path-577" class="exterior-L-prim" d="M154,188.36V173.93l5-2.89v20.21Z"/>
    <path id="Path-578" class="exterior-L-prim" d="M154,604.06V589.62l5-2.88v20.2Z"/>
    <path id="Path-579" class="top-prim" d="M159,295.22l-5-2.89-28.75,16.6v5.77Z"/>
    <path id="Path-580" class="top-prim" d="M159,710.91,154,708l-28.75,16.6v5.77Z"/>
    <path id="Path-581" class="top-prim" d="M236.45,250.47l-5-2.89-28.75,16.6V270Z"/>
    <path id="Path-582" class="top-prim" d="M236.45,666.16l-5-2.88L202.7,679.87v5.78Z"/>
    <path id="Path-583" class="top-prim" d="M197.7,272.84l-5-2.88L164,286.55v5.78Z"/>
    <path id="Path-584" class="top-prim" d="M197.7,688.54l-5-2.89L164,702.25V708Z"/>
    <path id="Path-585" class="top-prim" d="M275.2,228.1l-5-2.89-28.75,16.6v5.77Z"/>
    <path id="Path-586" class="top-prim" d="M275.2,643.79l-5-2.89-28.75,16.6v5.78Z"/>
    <path id="Path-587" class="exterior-L-prim" d="M270.2,225.21V210.78l5-2.89V228.1Z"/>
    <path id="Path-588" class="exterior-L-prim" d="M270.2,640.9V626.47l5-2.89v20.21Z"/>
    <path id="Path-589" class="exterior-L-prim" d="M192.7,270V255.52l5-2.88v20.2Z"/>
    <path id="Path-590" class="exterior-L-prim" d="M192.7,685.65V671.21l5-2.88v20.21Z"/>
    <path id="Path-591" class="exterior-L-prim" d="M231.45,247.58V233.15l5-2.89v20.21Z"/>
    <path id="Path-592" class="exterior-L-prim" d="M231.45,663.28V648.84l5-2.88v20.2Z"/>
    <path id="Path-593" class="exterior-L-prim" d="M154,292.33V277.89l5-2.88v20.21Z"/>
    <path id="Path-594" class="exterior-L-prim" d="M154,708V693.59l5-2.89v20.21Z"/>
    <path id="Path-595" class="top-prim" d="M159,399.1l-5-2.89-28.75,16.6v5.77Z"/>
    <path id="Path-596" class="top-prim" d="M159,814.79l-5-2.89-28.8,16.6v5.78Z"/>
    <path id="Path-597" class="top-prim" d="M236.45,354.35l-5-2.88L202.7,368.06v5.78Z"/>
    <path id="Path-598" class="top-prim" d="M236.45,770l-5-2.88-28.75,16.6v5.77Z"/>
    <path id="Path-599" class="top-prim" d="M197.7,376.73l-5-2.89L164,390.44v5.77Z"/>
    <path id="Path-600" class="top-prim" d="M197.7,792.42l-5-2.89L164,806.13v5.77Z"/>
    <path id="Path-601" class="top-prim" d="M275.2,332l-5-2.89-28.75,16.6v5.78Z"/>
    <path id="Path-602" class="top-prim" d="M275.2,747.67l-5-2.88-28.75,16.59v5.78Z"/>
    <path id="Path-603" class="exterior-L-prim" d="M270.2,329.09V314.66l5-2.89V332Z"/>
    <path id="Path-604" class="exterior-L-prim" d="M270.2,744.79V730.35l5-2.88v20.2Z"/>
    <path id="Path-605" class="exterior-L-prim" d="M192.7,373.84V359.4l5-2.88v20.21Z"/>
    <path id="Path-606" class="exterior-L-prim" d="M192.7,789.53V775.1l5-2.89v20.21Z"/>
    <path id="Path-607" class="exterior-L-prim" d="M231.45,351.47V337l5-2.88v20.2Z"/>
    <path id="Path-608" class="exterior-L-prim" d="M231.45,767.16V752.72l5-2.88V770Z"/>
    <path id="Path-609" class="exterior-L-prim" d="M154,396.21V381.78l5-2.89V399.1Z"/>
    <path id="Path-610" class="exterior-L-prim" d="M154,811.9V797.47l5-2.89v20.21Z"/>
    <path id="Path-611" class="top-prim" d="M159,503l-5-2.89-28.75,16.6v5.78Z"/>
    <path id="Path-612" class="top-prim" d="M159,918.71l-5-2.88-28.8,16.59v5.78Z"/>
    <path id="Path-613" class="top-prim" d="M236.45,458.28l-5-2.89L202.7,472v5.77Z"/>
    <path id="Path-614" class="top-prim" d="M236.45,874l-5-2.89-28.75,16.6v5.77Z"/>
    <path id="Path-615" class="top-prim" d="M197.7,480.65l-5-2.89L164,494.36v5.77Z"/>
    <path id="Path-616" class="top-prim" d="M197.7,896.34l-5-2.89L164,910.05v5.78Z"/>
    <path id="Path-617" class="top-prim" d="M275.2,435.9l-5-2.88-28.75,16.6v5.77Z"/>
    <path id="Path-618" class="top-prim" d="M275.2,851.6l-5-2.89-28.75,16.6v5.77Z"/>
    <path id="Path-619" class="exterior-L-prim" d="M270.2,433V418.58l5-2.88v20.2Z"/>
    <path id="Path-620" class="exterior-L-prim" d="M270.2,848.71V834.28l5-2.89V851.6Z"/>
    <path id="Path-621" class="exterior-L-prim" d="M192.7,477.76V463.33l5-2.89v20.21Z"/>
    <path id="Path-622" class="exterior-L-prim" d="M192.7,893.45V879l5-2.89v20.21Z"/>
    <path id="Path-623" class="exterior-L-prim" d="M231.45,455.39V441l5-2.89v20.21Z"/>
    <path id="Path-624" class="exterior-L-prim" d="M231.45,871.08V856.65l5-2.89V874Z"/>
    <path id="Path-625" class="exterior-L-prim" d="M154,500.13V485.7l5-2.89V503Z"/>
    <path id="Path-626" class="exterior-L-prim" d="M154,915.83V901.39l5-2.88v20.2Z"/>
    <path id="Path-627" class="top-prim" d="M159,243.21l-5-2.88-28.8,16.59v5.78Z"/>
    <path id="Path-628" class="top-prim" d="M159,658.91,154,656l-28.75,16.6v5.77Z"/>
    <path id="Path-629" class="top-prim" d="M236.45,198.47l-5-2.89-28.75,16.6V218Z"/>
    <path id="Path-630" class="top-prim" d="M236.45,614.16l-5-2.89-28.75,16.6v5.78Z"/>
    <path id="Path-631" class="top-prim" d="M197.7,220.84l-5-2.89L164,234.55v5.78Z"/>
    <path id="Path-632" class="top-prim" d="M197.7,636.53l-5-2.88L164,650.24V656Z"/>
    <path id="Path-633" class="top-prim" d="M275.2,176.1l-5-2.89-28.75,16.6v5.77Z"/>
    <path id="Path-634" class="top-prim" d="M275.2,591.79l-5-2.89-28.75,16.6v5.77Z"/>
    <path id="Path-635" class="exterior-L-prim" d="M270.2,173.21V158.78l5-2.89V176.1Z"/>
    <path id="Path-636" class="exterior-L-prim" d="M270.2,588.9V574.47l5-2.89v20.21Z"/>
    <path id="Path-637" class="exterior-L-prim" d="M192.7,218V203.52l5-2.89v20.21Z"/>
    <path id="Path-638" class="exterior-L-prim" d="M192.7,633.65V619.21l5-2.88v20.2Z"/>
    <path id="Path-639" class="exterior-L-prim" d="M231.45,195.58V181.15l5-2.89v20.21Z"/>
    <path id="Path-640" class="exterior-L-prim" d="M231.45,611.27V596.84l5-2.89v20.21Z"/>
    <path id="Path-641" class="exterior-L-prim" d="M154,240.33V225.89l5-2.88v20.2Z"/>
    <path id="Path-642" class="exterior-L-prim" d="M154,656V641.58l5-2.88v20.21Z"/>
    <path id="Path-643" class="top-prim" d="M159,347.18l-5-2.89-28.75,16.6v5.77Z"/>
    <path id="Path-644" class="top-prim" d="M159,762.87,154,760l-28.75,16.6v5.77Z"/>
    <path id="Path-645" class="top-prim" d="M236.45,302.43l-5-2.88L202.7,316.14v5.78Z"/>
    <path id="Path-646" class="top-prim" d="M236.45,718.12l-5-2.88-28.75,16.6v5.77Z"/>
    <path id="Path-647" class="top-prim" d="M197.7,324.8l-5-2.88L164,338.52v5.77Z"/>
    <path id="Path-648" class="top-prim" d="M197.7,740.5l-5-2.89L164,754.21V760Z"/>
    <path id="Path-649" class="top-prim" d="M275.2,280.06l-5-2.89-28.75,16.6v5.78Z"/>
    <path id="Path-650" class="top-prim" d="M275.2,695.75l-5-2.88-28.75,16.59v5.78Z"/>
    <path id="Path-651" class="exterior-L-prim" d="M270.2,277.17V262.74l5-2.89v20.21Z"/>
    <path id="Path-652" class="exterior-L-prim" d="M270.2,692.87V678.43l5-2.89v20.21Z"/>
    <path id="Path-653" class="exterior-L-prim" d="M192.7,321.92V307.48l5-2.88v20.2Z"/>
    <path id="Path-654" class="exterior-L-prim" d="M192.7,737.61V723.18l5-2.89V740.5Z"/>
    <path id="Path-655" class="exterior-L-prim" d="M231.45,299.55V285.11l5-2.89v20.21Z"/>
    <path id="Path-656" class="exterior-L-prim" d="M231.45,715.24V700.8l5-2.88v20.2Z"/>
    <path id="Path-657" class="exterior-L-prim" d="M154,344.29V329.86l5-2.89v20.21Z"/>
    <path id="Path-658" class="exterior-L-prim" d="M154,760V745.55l5-2.89v20.21Z"/>
    <path id="Path-659" class="top-prim" d="M159,451.06l-5-2.89-28.75,16.6v5.77Z"/>
    <path id="Path-660" class="top-prim" d="M159,866.75l-5-2.89-28.75,16.6v5.78Z"/>
    <path id="Path-661" class="top-prim" d="M236.45,406.31l-5-2.88L202.7,420v5.77Z"/>
    <path id="Path-662" class="top-prim" d="M236.45,822l-5-2.89-28.75,16.6v5.77Z"/>
    <path id="Path-663" class="top-prim" d="M197.7,428.69l-5-2.89L164,442.4v5.77Z"/>
    <path id="Path-664" class="top-prim" d="M197.7,844.38l-5-2.89L164,858.09v5.77Z"/>
    <path id="Path-665" class="top-prim" d="M275.2,383.94l-5-2.88-28.75,16.59v5.78Z"/>
    <path id="Path-666" class="top-prim" d="M275.2,799.63l-5-2.88-28.75,16.6v5.77Z"/>
    <path id="Path-667" class="exterior-L-prim" d="M270.2,381.06V366.62l5-2.89v20.21Z"/>
    <path id="Path-668" class="exterior-L-prim" d="M270.2,796.75V782.31l5-2.88v20.2Z"/>
    <path id="Path-669" class="exterior-L-prim" d="M192.7,425.8V411.37l5-2.89v20.21Z"/>
    <path id="Path-670" class="exterior-L-prim" d="M192.7,841.49V827.06l5-2.89v20.21Z"/>
    <path id="Path-671" class="exterior-L-prim" d="M231.45,403.43V389l5-2.88v20.2Z"/>
    <path id="Path-672" class="exterior-L-prim" d="M231.45,819.12V804.69l5-2.89V822Z"/>
    <path id="Path-673" class="exterior-L-prim" d="M154,448.17V433.74l5-2.89v20.21Z"/>
    <path id="Path-674" class="exterior-L-prim" d="M154,863.86V849.43l5-2.89v20.21Z"/>
  </g>
</svg>
