<svg id="Layer_1" data-name="Layer 1" xmlns="http://www.w3.org/2000/svg" viewBox="0 0 370 1082.54"><defs><style>.curtain-R-prim-light{fill:#2b95ac;}.curtain-L-prim-light{fill:#196273;}.curtain-R-prim-dark{fill:#21788c;}.curtain-L-prim-dark-2{fill:#11424d;}.exterior-R-light{fill:#df5d58;}.exterior-L-light{fill:#8b3a37;}.exterior-L-prim-3{fill:#73302f;}.exterior-R-prim-3{fill:#d15752;}.exterior-L-dark{fill:#512220;}.top-light{fill:#fac7c6;}.top-prim{fill:#dd8987;}.cls-1{fill:#fff;}</style></defs><title>Artboard 4</title><polygon class="curtain-R-prim-light" points="275 562.92 285 557.15 291.73 553.26 273.15 563.99 275 562.92 275 562.92"/><polygon class="curtain-R-prim-light" points="135 435.9 370 300.23 370 277.13 135 412.81 135 435.9"/><polygon class="curtain-R-prim-light" points="335 528.28 335 528.28 345 522.51 345 545.6 330.01 554.26 325.92 556.62 370 531.17 370 508.07 328.43 532.07 335 528.28"/><polygon class="curtain-R-prim-light" points="135 620.66 370 484.98 370 461.88 135 597.56 135 620.66"/><polygon class="curtain-R-prim-light" points="135 482.09 370 346.41 370 323.32 135 459 135 482.09"/><polygon class="curtain-R-prim-light" points="135 528.28 370 392.6 370 369.51 135 505.19 135 528.28"/><polygon class="curtain-R-prim-light" points="165 649.52 165 626.43 185 614.88 185 614.88 135 643.75 135 666.84 166.37 648.73 165 649.52"/><polygon class="curtain-R-prim-light" points="135 897.78 370 762.11 370 739.01 135 874.69 135 897.78"/><polygon class="curtain-R-prim-light" points="135 943.97 370 808.29 370 785.2 135 920.88 135 943.97"/><polygon class="curtain-R-prim-light" points="245 580.24 245 580.24 235 586.01 235 586.02 245 580.24"/><polygon class="curtain-R-prim-light" points="135 851.6 370 715.92 370 692.82 135 828.5 135 851.6"/><polygon class="curtain-R-prim-light" points="265 568.7 265 568.69 245.46 579.98 255 574.47 265 568.7"/><polygon class="curtain-R-prim-light" points="345 868.91 370 854.48 370 831.39 345 845.82 345 868.91"/><polygon class="curtain-R-prim-light" points="135 805.41 370 669.73 370 646.64 135 782.31 135 805.41"/><polygon class="curtain-R-prim-light" points="185 938.2 185 938.2 175 943.98 175 943.98 185 938.2"/><polygon class="curtain-R-prim-light" points="225 591.79 229.04 589.46 215 597.56 215 597.56 225 591.79"/><polygon class="curtain-R-prim-light" points="135 1036.35 370 900.67 370 877.58 135 1013.25 135 1036.35"/><polygon class="curtain-R-prim-light" points="135 389.72 370 254.04 370 230.94 135 366.62 135 389.72"/><polygon class="curtain-R-prim-light" points="235 609.11 235 609.11 245 603.34 245 603.33 235 609.11"/><polygon class="curtain-R-prim-light" points="210 600.45 213.41 598.48 190.22 611.87 195 609.11 210 600.45"/><polygon class="curtain-R-prim-light" points="255 597.56 255 597.56 252.52 598.99 265 591.79 265 591.79 255 597.56"/><polygon class="curtain-R-prim-light" points="285 580.24 269.99 588.9 267.18 590.53 291.67 576.39 285 580.24 285 580.24"/><polygon class="curtain-R-prim-light" points="305 545.6 305 545.6 315 539.83 325 534.06 325 534.05 295 551.37 295 551.38 305 545.6"/><polygon class="curtain-R-prim-light" points="315 562.92 315 562.92 314.97 562.94 295 574.47 295 574.47 325 557.15 325 557.15 315 562.92"/><polygon class="curtain-R-prim-light" points="135 713.03 370 577.35 370 554.26 135 689.94 135 713.03"/><polygon class="curtain-R-prim-light" points="175 643.75 175 643.75 185 637.97 185 637.97 175 643.75"/><polygon class="curtain-R-prim-light" points="135 759.22 370 623.54 370 600.45 135 736.13 135 759.22"/><polygon class="curtain-R-prim-light" points="194.99 632.21 193.73 632.93 205 626.43 205 626.43 194.99 632.21"/><polygon class="curtain-R-prim-light" points="215 620.65 215 620.65 229.04 612.55 225.06 614.85 215 620.65"/><polygon class="curtain-R-prim-light" points="165 949.75 166.23 949.04 135 967.07 135 990.16 165 972.84 165 949.75"/><polygon class="curtain-R-prim-light" points="135 574.47 370 438.79 370 415.7 135 551.37 135 574.47"/><polygon class="curtain-R-prim-light" points="135 1082.54 370 946.86 370 923.76 135 1059.44 135 1082.54"/><polygon class="curtain-R-prim-light" points="135 297.34 370 161.66 370 138.57 135 274.25 135 297.34"/><polygon class="curtain-R-prim-light" points="135 343.53 370 207.85 370 184.76 135 320.43 135 343.53"/><polygon class="curtain-L-prim-light" points="45 938.2 45 938.2 60.02 946.87 55.16 944.06 45 938.2"/><polygon class="curtain-L-prim-light" points="135 274.25 0 196.3 0 219.4 135 297.34 135 274.25"/><polygon class="curtain-L-prim-light" points="95 943.97 95 967.07 135 990.16 135 967.07 95 943.97"/><polygon class="curtain-L-prim-light" points="65 949.75 74.67 955.33 65 949.75 65 949.75"/><polygon class="curtain-L-prim-light" points="135 782.31 0 704.37 0 727.47 135 805.41 135 782.31"/><polygon class="curtain-L-prim-light" points="45 568.69 45 568.69 45.27 568.85 65 580.24 75 586.01 75 586.01 80.05 588.93 95 597.56 95 597.56 135 620.66 135 597.56 0 519.62 0 542.71 36.84 563.99 45 568.69"/><polygon class="curtain-L-prim-light" points="135 459 0 381.06 0 404.15 135 482.09 135 459"/><polygon class="curtain-L-prim-light" points="135 505.19 0 427.24 0 450.34 135 528.28 135 505.19"/><polygon class="curtain-L-prim-light" points="135 1059.44 0 981.5 0 1004.59 135 1082.54 135 1059.44"/><polygon class="curtain-L-prim-light" points="135 736.13 0 658.18 0 681.28 135 759.22 135 736.13"/><polygon class="curtain-L-prim-light" points="135 551.37 0 473.43 0 496.53 135 574.47 135 551.37"/><polygon class="curtain-L-prim-light" points="135 1013.25 0 935.31 0 958.41 135 1036.35 135 1013.25"/><polygon class="curtain-L-prim-light" points="135 874.69 0 796.75 0 819.84 135 897.78 135 874.69"/><polygon class="curtain-L-prim-light" points="55 897.78 55 897.78 59.94 900.63 75.24 909.47 85 915.1 85 915.1 135 943.97 135 920.88 0 842.94 0 866.03 45 892.01 55 897.78"/><polygon class="curtain-L-prim-light" points="35 932.42 35 909.33 35 909.33 0 889.12 0 912.22 35 932.43 35 932.42"/><polygon class="curtain-L-prim-light" points="95 620.66 95 620.66 95 643.75 135 666.84 135 643.75 95 620.66"/><polygon class="curtain-L-prim-light" points="135 320.43 0 242.49 0 265.59 135 343.53 135 320.43"/><polygon class="curtain-L-prim-light" points="135 366.62 0 288.68 0 311.77 135 389.72 135 366.62"/><polygon class="curtain-L-prim-light" points="135 828.5 0 750.56 0 773.65 135 851.6 135 828.5"/><polygon class="curtain-L-prim-light" points="135 412.81 0 334.87 0 357.96 135 435.9 135 412.81"/><polygon class="curtain-L-prim-light" points="135 689.94 0 612 0 635.09 135 713.03 135 689.94"/><polygon class="curtain-L-prim-light" points="35 586.02 0 565.81 0 588.9 35 609.11 35 586.02"/><polygon class="curtain-R-prim-dark" points="135 366.62 370 230.94 370 207.85 135 343.53 135 366.62"/><polygon class="curtain-L-prim-dark-2" points="135 343.53 0 265.59 0 288.68 135 366.62 135 343.53"/><polygon class="curtain-R-prim-dark" points="135 320.43 370 184.76 370 161.66 135 297.34 135 320.43"/><polygon class="curtain-L-prim-dark-2" points="135 297.34 0 219.4 0 242.49 135 320.43 135 297.34"/><polygon class="curtain-R-prim-dark" points="135 412.81 370 277.13 370 254.04 135 389.72 135 412.81"/><polygon class="curtain-L-prim-dark-2" points="135 389.72 0 311.77 0 334.87 135 412.81 135 389.72"/><polygon class="curtain-R-prim-dark" points="135 459 370 323.32 370 300.23 135 435.9 135 459"/><polygon class="curtain-L-prim-dark-2" points="135 435.9 0 357.96 0 381.06 135 459 135 435.9"/><polygon class="curtain-R-prim-dark" points="135 505.19 370 369.51 370 346.41 135 482.09 135 505.19"/><polygon class="curtain-L-prim-dark-2" points="135 482.09 0 404.15 0 427.24 135 505.19 135 482.09"/><polygon class="curtain-R-prim-dark" points="135 551.37 370 415.7 370 392.6 135 528.28 135 551.37"/><polygon class="curtain-L-prim-dark-2" points="135 528.28 0 450.34 0 473.43 135 551.37 135 528.28"/><polygon class="curtain-R-prim-dark" points="135 597.56 370 461.88 370 438.79 135 574.47 135 597.56"/><polygon class="curtain-L-prim-dark-2" points="135 574.47 0 496.53 0 519.62 135 597.56 135 574.47"/><polygon class="curtain-R-prim-dark" points="135 643.75 185 614.88 185 614.88 190.22 611.87 213.41 598.48 215 597.56 215 597.56 229.04 589.46 235 586.01 235 586.01 245 580.24 245 580.24 245.46 579.98 265 568.69 265 568.69 273.15 563.99 291.73 553.26 295 551.37 295 551.37 325 534.05 325 534.05 328.43 532.07 370 508.07 370 484.98 135 620.66 135 643.75"/><polygon class="curtain-L-prim-dark-2" points="45.27 568.85 45 568.69 45 568.69 45.27 568.85"/><polygon class="curtain-L-prim-dark-2" points="135 643.75 135 620.66 95 597.56 95 620.66 135 643.75"/><polygon class="curtain-L-prim-dark-2" points="35 586.01 35 562.92 36.84 563.99 0 542.71 0 565.81 35 586.02 35 586.01"/><polygon class="curtain-R-prim-dark" points="325 557.15 325 557.15 295 574.47 295 574.47 291.67 576.39 267.18 590.53 265 591.79 265 591.79 252.52 598.99 245 603.34 245 603.34 235 609.11 235 609.11 229.04 612.55 215 620.65 215 620.66 205 626.43 205 626.43 193.73 632.93 185 637.98 185 637.97 175 643.75 175 643.75 166.37 648.73 135 666.84 135 689.94 370 554.26 370 531.17 325.92 556.62 325 557.15"/><polygon class="curtain-L-prim-dark-2" points="135 666.84 95 643.75 95 643.75 85 637.98 85 637.98 79.98 635.08 65 626.43 65 626.43 55 620.66 55 620.66 35 609.11 35 609.11 0 588.9 0 612 135 689.94 135 666.84"/><polygon class="curtain-R-prim-dark" points="135 736.13 370 600.45 370 577.35 135 713.03 135 736.13"/><polygon class="curtain-L-prim-dark-2" points="135 713.03 0 635.09 0 658.18 135 736.13 135 713.03"/><polygon class="curtain-L-prim-dark-2" points="135 897.78 0 819.84 0 842.94 135 920.88 135 897.78"/><polygon class="curtain-R-prim-dark" points="135 782.31 370 646.64 370 623.54 135 759.22 135 782.31"/><polygon class="curtain-L-prim-dark-2" points="135 759.22 0 681.28 0 704.37 135 782.31 135 759.22"/><polygon class="curtain-L-prim-dark-2" points="55 897.79 55 897.78 45 892.01 45 892.01 55 897.79"/><polygon class="curtain-L-prim-dark-2" points="95 920.88 95 943.97 95 943.97 135 967.07 135 943.97 85 915.1 85 915.11 95 920.88"/><polygon class="curtain-L-prim-dark-2" points="35 886.24 45 892.01 0 866.03 0 889.12 35 909.33 35 886.24"/><polygon class="curtain-L-prim-dark-2" points="75 909.33 75 909.33 75.24 909.47 59.94 900.63 64.91 903.51 75 909.33"/><polygon class="curtain-R-prim-dark" points="135 828.5 370 692.82 370 669.73 135 805.41 135 828.5"/><polygon class="curtain-R-prim-dark" points="135 874.69 370 739.01 370 715.92 135 851.6 135 874.69"/><polygon class="curtain-R-prim-dark" points="135 920.88 370 785.2 370 762.11 135 897.78 135 920.88"/><polygon class="curtain-R-prim-dark" points="135 967.07 166.23 949.04 175 943.97 175 943.98 185 938.2 185 938.2 195 932.42 195 932.43 205 926.65 205 926.65 215 920.88 215 920.88 225 915.11 225 915.1 235 909.33 235 909.33 246.9 902.46 255 897.78 255 897.78 265 892.01 265 892.01 267.86 890.36 285 880.46 285 880.46 293.55 875.53 312.3 864.7 315 863.14 315 863.14 345 845.82 345 845.82 370 831.39 370 808.29 135 943.97 135 967.07"/><polygon class="curtain-R-prim-dark" points="345 868.92 285 903.56 225 938.2 209.86 946.94 205 949.75 205 949.75 175 967.07 175 967.07 165 972.84 165 972.84 135 990.16 135 1013.25 370 877.58 370 854.48 345 868.91 345 868.92"/><polygon class="curtain-R-prim-dark" points="135 1059.44 370 923.76 370 900.67 135 1036.35 135 1059.44"/><polygon class="curtain-L-prim-dark-2" points="135 805.41 0 727.47 0 750.56 135 828.5 135 805.41"/><polygon class="curtain-L-prim-dark-2" points="135 990.16 95 967.07 95 967.07 74.67 955.33 65 949.75 65 949.75 60.02 946.87 45 938.2 45 938.2 35 932.43 35 932.43 0 912.22 0 935.31 135 1013.25 135 990.16"/><polygon class="curtain-L-prim-dark-2" points="135 851.6 0 773.65 0 796.75 135 874.69 135 851.6"/><polygon class="curtain-L-prim-dark-2" points="135 1036.35 0 958.41 0 981.5 135 1059.44 135 1036.35"/><polygon class="exterior-R-light" points="225 614.88 225 591.79 215 597.56 215 620.65 225.06 614.85 225 614.88"/><polygon class="exterior-R-light" points="285 557.15 275 562.92 275 586.01 269.99 588.9 285 580.24 285 557.15"/><polygon class="exterior-R-light" points="175 643.75 185 637.97 185 614.88 165 626.43 175 620.66 175 643.75"/><polygon class="exterior-R-light" points="325 557.15 325 534.06 315 539.83 315 562.92 325 557.15"/><polygon class="exterior-R-light" points="245 580.24 235 586.02 235 609.11 245 603.33 245 580.24"/><polygon class="exterior-R-light" points="265 568.7 255 574.47 255 597.56 265 591.79 265 568.7"/><polygon class="exterior-R-light" points="205 603.34 210 600.45 195 609.11 195 632.2 194.99 632.21 205 626.43 205 603.34"/><polygon class="exterior-R-light" points="330.01 554.26 345 545.6 345 522.51 335 528.28 335 551.37 330.01 554.26"/><polygon class="exterior-R-light" points="305 568.69 305 545.6 295 551.38 295 574.47 314.97 562.94 305 568.69"/><polygon class="exterior-R-light" points="195 955.52 185 961.29 185 938.2 175 943.98 175 967.07 205 949.75 205 926.65 195 932.43 195 955.52"/><polygon class="exterior-R-light" points="215 943.97 209.86 946.94 225 938.2 225 915.11 215 920.88 215 943.97"/><polygon class="exterior-R-light" points="235 932.42 225 938.2 285 903.56 285 880.46 267.86 890.36 275 886.24 275 909.33 265 915.1 265 892.01 255 897.78 255 920.88 245 926.65 245 903.56 246.9 902.46 235 909.33 235 932.42"/><path class="exterior-R-light" d="M295,897.78l-10,5.78,60-34.64h0V845.82h0l-30,17.32v23.1L305,892V868.92l7.3-4.22-18.75,10.83,1.45-.84Zm30-17.32V857.37l10-5.77v23.09Z"/><polygon class="exterior-L-light" points="45 591.78 55 597.56 55 574.47 65 580.24 45.27 568.85 45 568.69 45 591.78"/><polygon class="exterior-L-light" points="65 603.34 75 609.11 75 586.01 65 580.24 65 603.34"/><polygon class="exterior-L-light" points="85 591.79 85 614.88 85 614.88 95 620.66 95 620.66 95 597.56 95 597.56 80.05 588.93 85 591.79"/><polygon class="exterior-L-light" points="85 915.11 85 938.2 95 943.97 95 920.88 85 915.11"/><polygon class="exterior-L-light" points="75 909.33 64.91 903.51 65 903.56 65 926.65 75 932.42 75 932.42 75 909.33"/><polygon class="exterior-L-light" points="55 920.88 55 897.79 45 892.01 45 915.1 45 915.1 55 920.88"/><polygon class="exterior-L-prim-3" points="75 632.2 75 609.11 75 609.11 65 603.34 65 603.34 65 626.43 79.98 635.08 75 632.2"/><polygon class="exterior-L-prim-3" points="55 597.56 55 597.56 45 591.78 45 591.79 45 614.88 35 609.11 55 620.66 55 597.56"/><polygon class="exterior-L-prim-3" points="85 614.88 85 637.98 95 643.75 95 643.75 95 620.66 85 614.88"/><polygon class="exterior-L-prim-3" points="55 920.88 45 915.1 45 938.2 55.16 944.06 55 943.97 55 920.88 55 920.88"/><polygon class="exterior-L-prim-3" points="95 943.97 85 938.2 85 938.2 85 961.29 75 955.52 75 932.42 65 926.65 65 949.75 74.67 955.33 95 967.07 95 967.07 95 943.97 95 943.97"/><polygon class="exterior-R-prim-3" points="175 620.66 165 626.43 165 649.52 166.37 648.73 175 643.75 175 643.75 175 643.75 175 620.66"/><polygon class="exterior-R-prim-3" points="165 972.84 165 972.84 175 967.07 175 967.07 175 943.98 175 943.98 175 943.97 166.23 949.04 165 949.75 165 972.84"/><polygon class="exterior-R-prim-3" points="205 603.34 205 626.43 205 626.43 205 626.43 215 620.66 215 620.65 215 620.65 215 597.56 215 597.56 215 597.56 213.41 598.48 210 600.45 205 603.34"/><polygon class="exterior-R-prim-3" points="205 949.75 205 949.75 209.86 946.94 215 943.97 215 920.88 215 920.88 205 926.65 205 926.65 205 949.75"/><polygon class="exterior-R-prim-3" points="245 603.33 245 603.34 245 603.34 252.52 598.99 255 597.56 255 597.56 255 574.47 245.46 579.98 245 580.24 245 580.24 245 580.24 245 603.33"/><polygon class="exterior-R-prim-3" points="245 926.65 255 920.88 255 897.78 255 897.78 246.9 902.46 245 903.56 245 926.65"/><polygon class="exterior-R-prim-3" points="285 580.24 285 580.24 291.67 576.39 295 574.47 295 574.47 295 574.47 295 551.38 295 551.37 295 551.37 291.73 553.26 285 557.15 285 580.24"/><polygon class="exterior-R-prim-3" points="285 903.56 295 897.78 295 874.69 293.55 875.53 285 880.46 285 880.46 285 903.56"/><polygon class="exterior-R-prim-3" points="325 557.15 325 557.15 325 557.15 325.92 556.62 330.01 554.26 335 551.37 335 528.28 335 528.28 328.43 532.07 325 534.05 325 534.05 325 534.06 325 557.15"/><polygon class="exterior-R-prim-3" points="335 851.6 325 857.37 325 880.46 335 874.69 335 851.6"/><polygon class="exterior-R-prim-3" points="185 637.97 185 637.97 185 637.98 193.73 632.93 194.99 632.21 195 632.2 195 609.11 190.22 611.87 185 614.88 185 614.88 185 614.88 185 637.97"/><polygon class="exterior-R-prim-3" points="185 961.29 195 955.52 195 932.43 195 932.42 185 938.2 185 938.2 185 938.2 185 961.29"/><polygon class="exterior-R-prim-3" points="225 614.88 225.06 614.85 229.04 612.55 235 609.11 235 609.11 235 609.11 235 586.02 235 586.01 235 586.01 229.04 589.46 225 591.79 225 614.88"/><polygon class="exterior-R-prim-3" points="225 938.2 235 932.42 235 909.33 235 909.33 225 915.1 225 915.11 225 938.2"/><polygon class="exterior-R-prim-3" points="265 591.79 265 591.79 265 591.79 267.18 590.53 269.99 588.9 275 586.01 275 562.92 275 562.92 273.15 563.99 265 568.69 265 568.69 265 568.7 265 591.79"/><polygon class="exterior-R-prim-3" points="265 915.1 275 909.33 275 886.24 267.86 890.36 265 892.01 265 892.01 265 915.1"/><polygon class="exterior-R-prim-3" points="314.97 562.94 315 562.92 315 562.92 315 539.83 305 545.6 305 545.6 305 568.69 314.97 562.94"/><polygon class="exterior-R-prim-3" points="305 868.92 305 892.01 315 886.24 315 863.14 315 863.14 312.3 864.7 305 868.92"/><polygon class="exterior-L-prim-2" points="45 591.78 45 568.69 45 568.69 45 568.69 36.84 563.99 35 562.92 35 586.01 45 591.79 45 591.78"/><polygon class="exterior-L-prim-2" points="45 915.1 45 892.01 45 892.01 35 886.24 35 909.33 35 909.33 45 915.1"/><polygon class="exterior-L-dark" points="45 614.88 45 591.79 35 586.01 35 586.02 35 609.11 35 609.11 45 614.88"/><polygon class="exterior-L-dark" points="45 915.1 45 915.1 35 909.33 35 932.42 35 932.43 35 932.43 45 938.2 45 938.2 45 938.2 45 915.1"/><polygon class="exterior-L-prim-2" points="75 609.11 75 609.11 85 614.88 85 591.79 80.05 588.93 75 586.01 75 586.01 75 609.11"/><polygon class="exterior-L-prim-2" points="75 909.33 75 932.42 85 938.2 85 938.2 85 915.11 85 915.1 85 915.1 75.24 909.47 75 909.33 75 909.33"/><polygon class="exterior-L-dark" points="85 614.88 85 614.88 75 609.11 75 632.2 79.98 635.08 85 637.98 85 637.98 85 614.88"/><polygon class="exterior-L-dark" points="75 932.42 75 932.42 75 955.52 85 961.29 85 938.2 75 932.42"/><polygon class="exterior-L-prim-2" points="55 574.47 55 597.56 55 597.56 65 603.34 65 603.34 65 580.24 55 574.47"/><polygon class="exterior-L-prim-3" points="55 920.88 55 920.88 65 926.65 65 903.56 64.91 903.51 59.94 900.63 55 897.78 55 897.78 55 897.79 55 920.88"/><polygon class="exterior-L-dark" points="65 603.34 55 597.56 55 620.66 55 620.66 65 626.43 65 626.43 65 603.34"/><polygon class="exterior-L-dark" points="65 926.65 55 920.88 55 943.97 55.16 944.06 60.02 946.87 65 949.75 65 949.75 65 949.75 65 926.65"/><polygon class="curtain-L-prim-light" points="31.37 178.19 30 178.98 0 161.66 0 184.76 10 190.53 31.37 178.19"/><polygon class="top-light" points="370 138.57 280 86.61 280 92.38 280 98.15 350 138.57 135 262.7 30 202.08 30 202.08 20 196.3 49.99 178.98 40 173.21 31.37 178.19 10 190.53 10 190.53 0 196.3 135 274.25 370 138.57"/><polygon class="top-prim" points="280 109.7 280 115.47 280 132.79 280 138.57 120 230.94 50 190.53 30 202.08 135 262.7 350 138.57 340 144.34 280 109.7"/><path class="curtain-L-prim-light" d="M120,207.85V184.76l-15-8.66v10.31c0,1.1-.78,1.55-1.73,1L36.73,149A3.83,3.83,0,0,1,35,146V135.68L0,115.47v23.1Z"/><path class="curtain-R-prim-light" d="M235,118.36v9.55a3.85,3.85,0,0,1-1.73,3l-66.54,38.41c-.95.55-1.73.11-1.73-1v-9.54l-45,26v23.09l160-92.38V92.38Z"/><polygon class="exterior-R-prim-3" points="50 178.99 49.99 178.98 20 196.3 30 202.08 30 202.08 50 190.53 50 178.99"/><path class="curtain-R-prim-dark" d="M120,161.66v23.1l45-26V155a3.85,3.85,0,0,1,1.73-3l66.54-38.41c.95-.55,1.73-.11,1.73,1v3.77l45-26V69.29Z"/><path class="curtain-L-prim-dark-2" d="M35,132.67c0-1.1.78-1.55,1.73-1l66.54,38.42a3.83,3.83,0,0,1,1.73,3v3l15,8.66v-23.1L0,92.38v23.09l35,20.21Z"/><polygon class="curtain-L-prim-dark-2" points="10 190.53 0 184.76 0 196.3 10 190.53 10 190.53"/><polygon class="curtain-R-prim-dark" points="280 132.79 280 115.47 120 207.85 120 219.4 120 225.17 120 230.94 280 138.57 280 132.79"/><polygon class="curtain-L-prim-dark-2" points="31.37 178.19 40 173.21 49.99 178.98 50 178.99 50 190.53 120 230.94 120 225.17 120 219.4 120 207.85 0 138.57 0 150.12 0 161.66 30 178.98 31.37 178.19"/><path class="cls-1" d="M166.73,169.32l66.54-38.41a3.85,3.85,0,0,0,1.73-3V114.59c0-1.11-.78-1.55-1.73-1L166.73,152a3.85,3.85,0,0,0-1.73,3v13.32C165,169.43,165.78,169.87,166.73,169.32Z"/><path class="cls-1" d="M103.27,170.09,36.73,131.67c-.95-.55-1.73-.1-1.73,1V146a3.83,3.83,0,0,0,1.73,3l66.54,38.42c1,.55,1.73.1,1.73-1V173.09A3.83,3.83,0,0,0,103.27,170.09Z"/><polygon id="anchor-01_2040.2" class="top-light" points="120 161.66 280 69.29 160 0 0 92.38 120 161.66"/><polygon class="exterior-L-dark" points="280 109.7 340 144.34 350 138.57 280 98.15 280 109.7"/></svg>