<svg id="Layer_1" data-name="Layer 1" xmlns="http://www.w3.org/2000/svg" viewBox="0 0 430 788.0833">
    <defs>
        <style>
            .top-light {
            fill: #ffc8c6;
            }

            .top-prim {
            fill: #dd8a87;
            }

            .exterior-R-prim {
            fill: #d05752;
            }

            .exterior-L-prim {
            fill: #73302e;
            }

            .curtain-R-prim-light {
            fill: #59acd0;
            }

            .curtain-R-prim-dark {
            fill: #3e809c;
            }

            .curtain-L-prim-light {
            fill: #438fb0;
            }

            .curtain-L-prim-dark {
            fill: #2f5565;
            }

            .curtain-L-prim-dark-light {
            fill: #426a7a;
            }

            .curtain-R-prim-dark-light {
            fill: #4d90ad;
            }
        </style>
    </defs>
    <title>Artboard 11</title>
    <g id="root">
        <path id="Path" class="top-light" d="M0,687.0466,255,539.8224,430,640.8586,175,788.083Z"/>
        <path id="Path-2" data-name="Path" class="top-prim" d="M175,782.3094,420,640.8586,255,545.5958,10,687.0466Z"/>
        <path id="Path-3" data-name="Path" class="exterior-R-prim" d="M10,687.0466,255,545.5958v5.7736L15,689.9335Z"/>
        <path id="Path-4" data-name="Path" class="exterior-L-prim" d="M255,545.5958v5.7736l160,92.376,5-2.8868Z"/>
        <path id="Path-5" data-name="Path" class="curtain-R-prim-light"
              d="M250,640.8586l150-86.6025v69.2821L250,710.1407Z"/>
        <path id="Path-6" data-name="Path" class="curtain-R-prim-dark" d="M245,666.84,400,577.35v17.3205L245,684.16Z"/>
        <path id="Path-7" data-name="Path" class="curtain-R-prim-dark"
              d="M245,701.4805l155-89.4893v17.32L245,718.801Z"/>
        <path id="Path-8" data-name="Path" class="top-light" d="M285,655.2924,175,718.801,0,617.7646l110-63.5084Z"/>
        <path id="Path-9" data-name="Path" class="top-prim" d="M175,713.0275l100-57.735L110,560.03,10,617.7646Z"/>
        <path id="Path-10" data-name="Path" class="top-light" d="M135,256.9208l100-57.7351L150,150.111,50,207.846Z"/>
        <path id="Path-11" data-name="Path" class="top-light" d="M245,383.9378l155-89.4893L305,239.6,155,331.9763Z"/>
        <path id="Path-12" data-name="Path" class="top-prim" d="M60,207.846l75,43.3013,85-49.0748-75-43.3013Z"/>
        <path id="Path-13" data-name="Path" class="exterior-R-prim" d="M60,207.846l5,2.8868,40-23.0941v-5.7735Z"/>
        <path id="Path-14" data-name="Path" class="curtain-L-prim-light"
              d="M100,92.376l100,57.735V271.3546L100,213.62Z"/>
        <path id="Path-15" data-name="Path" class="curtain-R-prim-light"
              d="M360,57.735,200,150.111V271.3546l160-92.3761Z"/>
        <path id="Path-16" data-name="Path" class="curtain-L-prim-light"
              d="M50,207.846l85,49.0748V378.1643L50,329.09Z"/>
        <path id="Path-17" data-name="Path" class="curtain-L-prim-light"
              d="M50,323.316l85,49.0748V637.972L50,588.8972Z"/>
        <path id="Path-18" data-name="Path" class="curtain-R-prim-light"
              d="M200,386.8245l25-14.4337V632.1985l-25,14.4337Z"/>
        <path id="Path-19" data-name="Path" class="curtain-R-prim-dark"
              d="M200,392.5981l30-17.3206v17.3206l-30,17.3205Z"/>
        <path id="Path-20" data-name="Path" class="top-prim" d="M160,329.09l85,49.0748,145-83.7158-85-49.0748Z"/>
        <path id="Path-21" data-name="Path" class="curtain-R-prim-light"
              d="M245,383.9378l155-89.4893V554.2562L245,643.7455Z"/>
        <path id="Path-22" data-name="Path" class="exterior-L-prim" d="M355,280.0148l30,17.32,5-2.8867-35-20.2072Z"/>
        <path id="Path-23" data-name="Path" class="curtain-L-prim-light"
              d="M155,245.3738l45,25.9808v115.47l-45-25.9807Z"/>
        <path id="Path-24" data-name="Path" class="curtain-L-prim-light"
              d="M155,360.8438l45,25.9807V652.4056l-45-25.9807Z"/>
        <path id="Path-25" data-name="Path" class="curtain-R-prim-light" d="M360,178.9785v115.47l-160,92.376v-115.47Z"/>
        <path id="Path-26" data-name="Path" class="curtain-R-prim-dark" d="M200,461.88,230,444.56V461.88l-30,17.32Z"/>
        <path id="Path-27" data-name="Path" class="curtain-R-prim-dark" d="M200,565.8032l30-17.32v17.32l-30,17.3205Z"/>
        <path id="Path-28" data-name="Path" class="curtain-L-prim-light"
              d="M0,687.0468,175,788.0831V718.8009L0,617.7646Z"/>
        <path id="Path-29" data-name="Path" class="curtain-R-prim-light"
              d="M175,718.801l110-63.5086v69.2821L175,788.0831Z"/>
        <path id="Path-30" data-name="Path" class="curtain-R-prim-dark"
              d="M200,635.0852l30-17.3206v17.3206l-30,17.32Z"/>
        <path id="Path-31" data-name="Path" class="curtain-R-prim-dark"
              d="M200,427.2391l30-17.3206v17.3206l-30,17.32Z"/>
        <path id="Path-32" data-name="Path" class="curtain-R-prim-dark"
              d="M200,531.1621l30-17.3205v17.3205l-30,17.3205Z"/>
        <path id="Path-33" data-name="Path" class="curtain-R-prim-light"
              d="M225,366.6173l10,5.7735L360,300.222V288.675Z"/>
        <path id="Path-34" data-name="Path" class="curtain-L-prim-light" d="M100,207.846v11.547l45,25.9808L155,239.6Z"/>
        <path id="Path-35" data-name="Path" class="curtain-R-prim-dark"
              d="M200,150.111,360,57.7349V75.0554L200,167.4315Z"/>
        <path id="Path-36" data-name="Path" class="curtain-L-prim-dark"
              d="M200,150.111,100,92.3759v17.32l100,57.7351Z"/>
        <path id="Path-37" data-name="Path" class="curtain-L-prim-dark"
              d="M135,274.2413,50,225.1665v17.32l85,49.0748Z"/>
        <path id="Path-38" data-name="Path" class="curtain-L-prim-dark" d="M135,378.1643,50,329.09V346.41l85,49.0748Z"/>
        <path id="Path-39" data-name="Path" class="curtain-L-prim-dark"
              d="M135,551.3694,50,502.2946v17.32L135,568.69Z"/>
        <path id="Path-40" data-name="Path" class="curtain-L-prim-dark" d="M200,288.675l-50-28.8675v17.32l50,28.8675Z"/>
        <path id="Path-41" data-name="Path" class="curtain-L-prim-dark" d="M200,392.598l-50-28.8675v17.32l50,28.8675Z"/>
        <path id="Path-42" data-name="Path" class="curtain-R-prim-dark" d="M200,496.5211l30-17.32v17.32l-30,17.32Z"/>
        <path id="Path-43" data-name="Path" class="curtain-R-prim-dark"
              d="M245,389.7113,400,300.222v17.3205L245,407.0318Z"/>
        <path id="Path-44" data-name="Path" class="curtain-R-prim-dark"
              d="M200,600.4442l30-17.3205v17.3205l-30,17.32Z"/>
        <path id="Path-45" data-name="Path" class="curtain-R-prim-dark"
              d="M200,184.752,360,92.3759v17.3206l-160,92.376Z"/>
        <path id="Path-46" data-name="Path" class="curtain-L-prim-dark"
              d="M200,184.752,100,127.017v17.3205l100,57.735Z"/>
        <path id="Path-47" data-name="Path" class="curtain-L-prim-dark"
              d="M135,447.4463,50,398.3715v17.32l85,49.0748Z"/>
        <path id="Path-48" data-name="Path" class="curtain-L-prim-dark" d="M200,461.88l-50-28.8675v17.32l50,28.8674Z"/>
        <path id="Path-49" data-name="Path" class="curtain-R-prim-dark"
              d="M245,458.9934l155-89.4893v17.32L245,476.3138Z"/>
        <path id="Path-50" data-name="Path" class="curtain-R-prim-dark"
              d="M200,254.0341,360,161.658v17.3205l-160,92.376Z"/>
        <path id="Path-51" data-name="Path" class="curtain-L-prim-dark"
              d="M200,254.0341,100,196.299v17.32l100,57.735Z"/>
        <path id="Path-52" data-name="Path" class="curtain-L-prim-dark"
              d="M135,343.5232,50,294.4485v17.32l85,49.0748Z"/>
        <path id="Path-53" data-name="Path" class="curtain-L-prim-dark"
              d="M135,516.7284,50,467.6536v17.3205l85,49.0748Z"/>
        <path id="Path-54" data-name="Path" class="curtain-L-prim-dark"
              d="M135,620.6514,50,571.5767v17.3205l85,49.0748Z"/>
        <path id="Path-55" data-name="Path" class="curtain-L-prim-dark"
              d="M175,736.1215,0,635.0852v17.32L175,753.442Z"/>
        <path id="Path-56" data-name="Path" class="curtain-L-prim-dark"
              d="M175,770.7625,0,669.7262v17.32L175,788.083Z"/>
        <path id="Path-57" data-name="Path" class="curtain-L-prim-dark" d="M200,357.957,150,329.09V346.41l50,28.8675Z"/>
        <path id="Path-58" data-name="Path" class="curtain-L-prim-dark"
              d="M200,565.8031l-50-28.8675v17.3206l50,28.8673Z"/>
        <path id="Path-59" data-name="Path" class="curtain-L-prim-dark"
              d="M200,600.4442l-50-28.8675v17.3205l50,28.8674Z"/>
        <path id="Path-60" data-name="Path" class="curtain-L-prim-dark"
              d="M200,635.0852l-50-28.8675v17.32l50,28.8674Z"/>
        <path id="Path-61" data-name="Path" class="curtain-R-prim-dark" d="M200,323.316,360,230.94v17.32l-160,92.376Z"/>
        <path id="Path-62" data-name="Path" class="curtain-L-prim-dark"
              d="M135,412.8053,50,363.7305v17.32l85,49.0748Z"/>
        <path id="Path-63" data-name="Path" class="curtain-L-prim-dark" d="M200,427.239l-50-28.8675v17.32L200,444.56Z"/>
        <path id="Path-64" data-name="Path" class="curtain-R-prim-dark"
              d="M245,424.3523,400,334.863v17.3206L245,441.6728Z"/>
        <path id="Path-65" data-name="Path" class="curtain-R-prim-dark"
              d="M200,219.393l160-92.376v17.3205l-160,92.376Z"/>
        <path id="Path-66" data-name="Path" class="curtain-L-prim-dark"
              d="M200,219.393,100,161.658v17.3205l100,57.735Z"/>
        <path id="Path-67" data-name="Path" class="curtain-L-prim-dark"
              d="M135,308.8822,50,259.8075v17.32l85,49.0748Z"/>
        <path id="Path-68" data-name="Path" class="curtain-L-prim-dark"
              d="M135,482.0873,50,433.0125V450.333l85,49.0748Z"/>
        <path id="Path-69" data-name="Path" class="curtain-L-prim-dark"
              d="M135,586.01,50,536.9356v17.3206l85,49.0747Z"/>
        <path id="Path-70" data-name="Path" class="curtain-L-prim-dark" d="M200,323.316l-50-28.8675v17.32l50,28.8675Z"/>
        <path id="Path-71" data-name="Path" class="curtain-L-prim-dark"
              d="M200,496.5211l-50-28.8675v17.3205l50,28.8675Z"/>
        <path id="Path-72" data-name="Path" class="curtain-L-prim-dark"
              d="M200,531.1621l-50-28.8675v17.32l50,28.8675Z"/>
        <path id="Path-73" data-name="Path" class="curtain-R-prim-dark"
              d="M245,493.6344l155-89.4893v17.32L245,510.9549Z"/>
        <path id="Path-74" data-name="Path" class="curtain-R-prim-dark"
              d="M245,528.2754l155-89.4893v17.3205L245,545.5959Z"/>
        <path id="Path-75" data-name="Path" class="curtain-R-prim-dark"
              d="M245,562.9164l155-89.4893v17.3206L245,580.2369Z"/>
        <path id="Path-76" data-name="Path" class="curtain-R-prim-dark"
              d="M245,597.5575l155-89.4894v17.3206L245,614.8781Z"/>
        <path id="Path-77" data-name="Path" class="curtain-R-prim-dark"
              d="M245,632.1985l155-89.4893V560.03L245,649.519Z"/>
        <path id="Path-78" data-name="Path" class="curtain-R-prim-dark"
              d="M200,288.6751,360,196.299v17.32L200,305.9956Z"/>
        <path id="Path-79" data-name="Path" class="curtain-R-prim-dark" d="M200,357.957l160-92.376v17.32l-160,92.376Z"/>
        <path id="Path-80" data-name="Path" class="curtain-L-prim-light"
              d="M245,383.9378l-20-11.547V632.1985l20,11.547Z"/>
        <path id="Path-81" data-name="Path" class="curtain-R-prim-light"
              d="M135,256.9208l20-11.547V366.6173l-20,11.547Z"/>
        <path id="Path-82" data-name="Path" class="curtain-R-prim-light"
              d="M135,372.3908l20-11.547V626.425l-20,11.547Z"/>
        <path id="Path-83" data-name="Path" class="curtain-R-prim-dark" d="M135,274.2413l20-11.547v17.32l-20,11.547Z"/>
        <path id="Path-84" data-name="Path" class="curtain-R-prim-dark" d="M135,447.4463l20-11.547V453.22l-20,11.547Z"/>
        <path id="Path-85" data-name="Path" class="curtain-R-prim-dark"
              d="M135,516.7284l20-11.5471v17.3206l-20,11.547Z"/>
        <path id="Path-86" data-name="Path" class="curtain-R-prim-dark"
              d="M135,343.5233l20-11.547v17.3205l-20,11.547Z"/>
        <path id="Path-87" data-name="Path" class="curtain-R-prim-dark"
              d="M135,586.0105l20-11.5471v17.3205l-20,11.547Z"/>
        <path id="Path-88" data-name="Path" class="curtain-R-prim-dark" d="M135,412.8053l20-11.547v17.32l-20,11.547Z"/>
        <path id="Path-89" data-name="Path" class="curtain-R-prim-dark" d="M135,482.0873l20-11.547v17.32l-20,11.547Z"/>
        <path id="Path-90" data-name="Path" class="curtain-R-prim-dark"
              d="M135,551.3694l20-11.547v17.3205L135,568.69Z"/>
        <path id="Path-91" data-name="Path" class="curtain-R-prim-dark"
              d="M135,308.8822l20-11.547v17.3205l-20,11.547Z"/>
        <path id="Path-92" data-name="Path" class="curtain-R-prim-dark" d="M135,378.1643l20-11.547v17.32l-20,11.547Z"/>
        <path id="Path-93" data-name="Path" class="curtain-R-prim-dark"
              d="M135,620.6515l20-11.5471V626.425l-20,11.547Z"/>
        <path id="Path-94" data-name="Path" class="curtain-L-prim-dark"
              d="M245,424.3522l-20-11.547v17.3206l20,11.547Z"/>
        <path id="Path-95" data-name="Path" class="curtain-L-prim-dark" d="M245,493.6343l-20-11.547v17.32l20,11.547Z"/>
        <path id="Path-96" data-name="Path" class="curtain-L-prim-dark"
              d="M245,528.2753l-20-11.547v17.3206l20,11.547Z"/>
        <path id="Path-97" data-name="Path" class="curtain-L-prim-dark"
              d="M245,389.7112l-20-11.547v17.3206l20,11.547Z"/>
        <path id="Path-98" data-name="Path" class="curtain-L-prim-dark" d="M245,632.1985l-20-11.547v17.32l20,11.547Z"/>
        <path id="Path-99" data-name="Path" class="curtain-R-prim-light" d="M225,637.9719v5.7736l-25,14.4337v-5.7734Z"/>
        <path id="Path-100" data-name="Path" class="curtain-L-prim-dark" d="M245,458.9933l-20-11.547v17.32l20,11.547Z"/>
        <path id="Path-101" data-name="Path" class="curtain-L-prim-dark" d="M245,562.9164l-20-11.547v17.32l20,11.547Z"/>
        <path id="Path-102" data-name="Path" class="curtain-L-prim-dark"
              d="M245,597.5574,225,586.01v17.3205l20,11.5472Z"/>
        <path id="Path-103" data-name="Path" class="curtain-R-prim-dark"
              d="M175,736.1215,285,672.613v17.32L175,753.442Z"/>
        <path id="Path-104" data-name="Path" class="curtain-R-prim-dark"
              d="M175,770.7625,285,707.254v17.32L175,788.083Z"/>
        <path id="Path-105" data-name="Path" class="exterior-R-prim" d="M10,617.7646l45-25.9807v5.7736l-40,23.094Z"/>
        <path id="Path-106" data-name="Path" class="curtain-L-prim-light"
              d="M55,591.7839l80,46.188v5.7736l-80-46.188Z"/>
        <path id="Path-107" data-name="Path" class="curtain-R-prim-light" d="M155,626.4249v5.7736l-20,11.547v-5.7736Z"/>
        <path id="Path-108" data-name="Path" class="curtain-L-prim-light"
              d="M200,652.4058v5.7734l-45-25.9807v-5.7736Z"/>
        <path id="Path-109" data-name="Path" class="curtain-L-prim-light"
              d="M225,637.9719l20,11.547v5.7736l-20-11.547Z"/>
        <path id="Path-110" data-name="Path" class="curtain-R-prim-light" d="M255,643.7455v5.7734l-10,5.7736v-5.7736Z"/>
        <path id="Path-111" data-name="Path" class="exterior-L-prim" d="M255,649.5189l15,8.66,5-2.8867-20-11.547Z"/>
        <path id="Path-112" data-name="Path" class="curtain-R-prim-light"
              d="M400,635.0852,285,701.4805V695.707l115-66.3954Z"/>
        <path id="Path-113" data-name="Path" class="curtain-L-prim-dark-light"
              d="M120,103.923l10,5.7735-2.5,15.8771-10-5.7735Z"/>
        <path id="Path-114" data-name="Path" class="curtain-L-prim-dark-light"
              d="M145,118.3567l10,5.7735v17.3205l-10-5.7735Z"/>
        <path id="Path-115" data-name="Path" class="curtain-L-prim-dark-light"
              d="M145,152.9978l10,5.7735v17.3205l-10-5.7735Z"/>
        <path id="Path-116" data-name="Path" class="curtain-R-prim-dark-light"
              d="M285,101.0362,275,106.81v17.32l10-5.7735Z"/>
        <path id="Path-117" data-name="Path" class="curtain-R-prim-dark-light"
              d="M285,135.6773l-10,5.7735v17.3205l10-5.7735Z"/>
        <path id="Path-118" data-name="Path" class="curtain-R-prim-dark-light"
              d="M285,170.3183l-10,5.7735v17.32l10-5.7735Z"/>
        <path id="Path-119" data-name="Path" class="curtain-R-prim-dark-light"
              d="M285,204.9593l-10,5.7735v17.3205l10-5.7735Z"/>
        <path id="Path-120" data-name="Path" class="curtain-R-prim-dark-light"
              d="M285,239.6l-10,5.7735v17.3205l10-5.7735Z"/>
        <path id="Path-121" data-name="Path" class="curtain-R-prim-dark-light"
              d="M285,274.2412l-10,5.7735v17.32l10-5.7735Z"/>
        <path id="Path-122" data-name="Path" class="curtain-R-prim-dark-light"
              d="M285,308.8822l-10,5.7735v17.32l10-5.7735Z"/>
        <path id="Path-123" data-name="Path" class="curtain-R-prim-dark-light"
              d="M330,340.6365,320,346.41v17.32l10-5.7735Z"/>
        <path id="Path-124" data-name="Path" class="curtain-R-prim-dark-light"
              d="M330,375.2775l-10,5.7735v17.3205l10-5.7735Z"/>
        <path id="Path-125" data-name="Path" class="curtain-R-prim-dark-light"
              d="M330,409.9185l-10,5.7735v17.32l10-5.7735Z"/>
        <path id="Path-126" data-name="Path" class="curtain-R-prim-dark-light"
              d="M330,444.56l-10,5.7735v17.32l10-5.7735Z"/>
        <path id="Path-127" data-name="Path" class="curtain-R-prim-dark-light"
              d="M330,479.2006l-10,5.7735v17.32l10-5.7735Z"/>
        <path id="Path-128" data-name="Path" class="curtain-R-prim-dark-light"
              d="M330,513.8416l-10,5.7735v17.3205l10-5.7735Z"/>
        <path id="Path-129" data-name="Path" class="curtain-R-prim-dark-light"
              d="M330,548.4827l-10,5.7735v17.32l10-5.7735Z"/>
        <path id="Path-130" data-name="Path" class="curtain-R-prim-dark-light"
              d="M330,583.1237l-10,5.7735v17.3205l10-5.7735Z"/>
        <path id="Path-131" data-name="Path" class="curtain-R-prim-dark-light"
              d="M330,617.7646l-10,5.7736v17.32l10-5.7734Z"/>
        <path id="Path-132" data-name="Path" class="curtain-R-prim-dark-light"
              d="M330,652.4056l-10,5.7736V675.5l10-5.7734Z"/>
        <path id="Path-133" data-name="Path" class="curtain-R-prim-dark-light"
              d="M260,115.47l-10,5.7735v17.32l10-5.7735Z"/>
        <path id="Path-134" data-name="Path" class="curtain-R-prim-dark-light"
              d="M260,150.111l-10,5.7735V173.205l10-5.7735Z"/>
        <path id="Path-135" data-name="Path" class="curtain-R-prim-dark-light"
              d="M260,184.752l-10,5.7735V207.846l10-5.7735Z"/>
        <path id="Path-136" data-name="Path" class="curtain-R-prim-dark-light"
              d="M260,219.3931l-10,5.7735v17.3205l10-5.7735Z"/>
        <path id="Path-137" data-name="Path" class="curtain-R-prim-dark-light"
              d="M260,254.0341l-10,5.7735v17.3205l10-5.7735Z"/>
        <path id="Path-138" data-name="Path" class="curtain-R-prim-dark-light"
              d="M260,288.675l-10,5.7735v17.32l10-5.7735Z"/>
        <path id="Path-139" data-name="Path" class="curtain-R-prim-dark-light"
              d="M260,323.316,250,329.09V346.41l10-5.7735Z"/>
        <path id="Path-140" data-name="Path" class="curtain-R-prim-dark-light"
              d="M305,355.07l-10,5.7735v17.3205l10-5.7735Z"/>
        <path id="Path-141" data-name="Path" class="curtain-R-prim-dark-light"
              d="M305,389.7113l-10,5.7735v17.32l10-5.7735Z"/>
        <path id="Path-142" data-name="Path" class="curtain-R-prim-dark-light"
              d="M305,424.3523l-10,5.7735v17.32l10-5.7735Z"/>
        <path id="Path-143" data-name="Path" class="curtain-R-prim-dark-light"
              d="M305,458.9933l-10,5.7735v17.3205l10-5.7735Z"/>
        <path id="Path-144" data-name="Path" class="curtain-R-prim-dark-light"
              d="M305,493.6344l-10,5.7734v17.32l10-5.7735Z"/>
        <path id="Path-145" data-name="Path" class="curtain-R-prim-dark-light"
              d="M305,528.2754l-10,5.7735v17.3205l10-5.7735Z"/>
        <path id="Path-146" data-name="Path" class="curtain-R-prim-dark-light"
              d="M305,562.9164,295,568.69V586.01l10-5.7735Z"/>
        <path id="Path-147" data-name="Path" class="curtain-R-prim-dark-light"
              d="M305,597.5574l-10,5.7735v17.3206l10-5.7736Z"/>
        <path id="Path-148" data-name="Path" class="curtain-R-prim-dark-light"
              d="M305,632.1985l-10,5.7735v17.3205l10-5.7735Z"/>
        <path id="Path-149" data-name="Path" class="curtain-R-prim-dark-light"
              d="M305,666.84l-10,5.7735v17.32l10-5.7735Z"/>
        <path id="Path-150" data-name="Path" class="curtain-R-prim-dark-light"
              d="M335,72.1687l-10,5.7735v17.32l10-5.7735Z"/>
        <path id="Path-151" data-name="Path" class="curtain-R-prim-dark-light"
              d="M335,106.81l-10,5.7735v17.32l10-5.7735Z"/>
        <path id="Path-152" data-name="Path" class="curtain-R-prim-dark-light"
              d="M335,141.4508l-10,5.7735v17.32l10-5.7735Z"/>
        <path id="Path-153" data-name="Path" class="curtain-R-prim-dark-light"
              d="M335,176.0918l-10,5.7735v17.3205l10-5.7735Z"/>
        <path id="Path-154" data-name="Path" class="curtain-R-prim-dark-light"
              d="M335,210.7328l-10,5.7735v17.32l10-5.7735Z"/>
        <path id="Path-155" data-name="Path" class="curtain-R-prim-dark-light"
              d="M335,245.3737l-10,5.7735v17.32l10-5.7735Z"/>
        <path id="Path-156" data-name="Path" class="curtain-R-prim-dark-light"
              d="M335,280.0147l-10,5.7735v17.32l10-5.7735Z"/>
        <path id="Path-157" data-name="Path" class="curtain-R-prim-dark-light"
              d="M380,311.769l-10,5.7735v17.32l10-5.7735Z"/>
        <path id="Path-158" data-name="Path" class="curtain-R-prim-dark-light"
              d="M380,346.41l-10,5.7735V369.504l10-5.7735Z"/>
        <path id="Path-159" data-name="Path" class="curtain-R-prim-dark-light"
              d="M380,381.051l-10,5.7735v17.32l10-5.7735Z"/>
        <path id="Path-160" data-name="Path" class="curtain-R-prim-dark-light"
              d="M380,415.6921l-10,5.7735v17.32l10-5.7735Z"/>
        <path id="Path-161" data-name="Path" class="curtain-R-prim-dark-light"
              d="M380,450.3331l-10,5.7735v17.32l10-5.7735Z"/>
        <path id="Path-162" data-name="Path" class="curtain-R-prim-dark-light"
              d="M380,484.9741l-10,5.7735v17.3205l10-5.7735Z"/>
        <path id="Path-163" data-name="Path" class="curtain-R-prim-dark-light"
              d="M380,519.6152l-10,5.7734v17.3206l10-5.7736Z"/>
        <path id="Path-164" data-name="Path" class="curtain-R-prim-dark-light"
              d="M380,554.2562,370,560.03v17.32l10-5.7735Z"/>
        <path id="Path-165" data-name="Path" class="curtain-R-prim-dark-light"
              d="M380,588.8972l-10,5.7735v17.3205l10-5.7735Z"/>
        <path id="Path-166" data-name="Path" class="curtain-R-prim-dark-light"
              d="M380,623.5382l-10,5.7734v17.3206l10-5.7736Z"/>
        <path id="Path-167" data-name="Path" class="curtain-L-prim-dark-light"
              d="M145,187.6388l10,5.7735v17.3205l-10-5.7735Z"/>
        <path id="Path-168" data-name="Path" class="curtain-L-prim-dark-light"
              d="M145,222.28l10,5.7735v17.32L145,239.6Z"/>
        <path id="Path-169" data-name="Path" class="curtain-L-prim-dark-light"
              d="M87.5,246.8172l10,5.7735v17.3205l-10-5.7735Z"/>
        <path id="Path-170" data-name="Path" class="curtain-L-prim-dark-light"
              d="M87.5,316.0991l10,5.7735v17.3205l-10-5.7735Z"/>
        <path id="Path-171" data-name="Path" class="curtain-L-prim-dark-light"
              d="M87.5,420.0222l10,5.7735v17.32l-10-5.7735Z"/>
        <path id="Path-172" data-name="Path" class="curtain-L-prim-dark-light"
              d="M87.5,350.74l10,5.7735v17.32l-10-5.7735Z"/>
        <path id="Path-173" data-name="Path" class="curtain-L-prim-dark-light"
              d="M87.5,454.6632l10,5.7735v17.3205l-10-5.7735Z"/>
        <path id="Path-174" data-name="Path" class="curtain-L-prim-dark-light"
              d="M87.5,489.3043l10,5.7735v17.32l-10-5.7735Z"/>
        <path id="Path-175" data-name="Path" class="curtain-L-prim-dark-light"
              d="M87.5,281.4581l10,5.7735v17.32l-10-5.7735Z"/>
        <path id="Path-176" data-name="Path" class="curtain-L-prim-dark-light"
              d="M87.5,385.3811l10,5.7735v17.32l-10-5.7735Z"/>
        <path id="Path-177" data-name="Path" class="curtain-L-prim-dark-light"
              d="M87.5,523.9453l10,5.7735v17.3205l-10-5.7735Z"/>
        <path id="Path-178" data-name="Path" class="curtain-L-prim-dark-light"
              d="M87.5,558.5863l10,5.7734V581.68l-10-5.7736Z"/>
        <path id="Path-179" data-name="Path" class="curtain-L-prim-dark-light"
              d="M87.5,593.2273l10,5.7734v17.3206l-10-5.7734Z"/>
        <path id="Path-180" data-name="Path" class="curtain-L-prim-dark-light"
              d="M120,138.564l10,5.7735v17.32l-10-5.7735Z"/>
        <path id="Path-181" data-name="Path" class="curtain-L-prim-dark-light"
              d="M120,173.205l10,5.7735V196.299l-10-5.7735Z"/>
        <path id="Path-182" data-name="Path" class="curtain-L-prim-dark-light"
              d="M120,207.846l10,5.7735V230.94l-10-5.7735Z"/>
        <path id="Path-183" data-name="Path" class="curtain-L-prim-dark-light"
              d="M62.5,232.3834l10,5.7735v17.32l-10-5.7735Z"/>
        <path id="Path-184" data-name="Path" class="curtain-L-prim-dark-light"
              d="M62.5,301.6654l10,5.7735v17.3205l-10-5.7735Z"/>
        <path id="Path-185" data-name="Path" class="curtain-L-prim-dark-light"
              d="M62.5,405.5884l10,5.7735v17.32l-10-5.7735Z"/>
        <path id="Path-186" data-name="Path" class="curtain-L-prim-dark-light"
              d="M62.5,336.3064l10,5.7735V359.4l-10-5.7735Z"/>
        <path id="Path-187" data-name="Path" class="curtain-L-prim-dark-light"
              d="M62.5,440.23l10,5.7735v17.3205l-10-5.7735Z"/>
        <path id="Path-188" data-name="Path" class="curtain-L-prim-dark-light"
              d="M62.5,474.8705l10,5.7735v17.32l-10-5.7735Z"/>
        <path id="Path-189" data-name="Path" class="curtain-L-prim-dark-light"
              d="M62.5,267.0243l10,5.7735v17.32l-10-5.7735Z"/>
        <path id="Path-190" data-name="Path" class="curtain-L-prim-dark-light"
              d="M62.5,370.9474l10,5.7735v17.3205l-10-5.7735Z"/>
        <path id="Path-191" data-name="Path" class="curtain-L-prim-dark-light"
              d="M62.5,509.5115l10,5.7735v17.3205l-10-5.7735Z"/>
        <path id="Path-192" data-name="Path" class="curtain-L-prim-dark-light"
              d="M62.5,544.1525l10,5.7735v17.32l-10-5.7735Z"/>
        <path id="Path-193" data-name="Path" class="curtain-L-prim-dark-light"
              d="M62.5,578.7936l10,5.7735v17.3205l-10-5.7735Z"/>
        <path id="Path-194" data-name="Path" class="curtain-L-prim-dark-light"
              d="M0,635.0852l5,2.8868v17.3205l-5-2.8869Z"/>
        <path id="Path-195" data-name="Path" class="curtain-R-prim-dark-light"
              d="M280,675.5l-5,2.8868v17.32l5-2.8867Z"/>
        <path id="Path-196" data-name="Path" class="curtain-L-prim-dark-light"
              d="M0,669.7262l5,2.8868v17.32l-5-2.8869Z"/>
        <path id="Path-197" data-name="Path" class="curtain-R-prim-dark-light"
              d="M280,710.1407l-5,2.8869v17.3205l5-2.8868Z"/>
        <path id="Path-198" data-name="Path" class="curtain-L-prim-dark-light"
              d="M80,681.2733l5,2.8867v17.3206l-5-2.8868Z"/>
        <path id="Path-199" data-name="Path" class="curtain-R-prim-dark-light"
              d="M200,721.6879l-5,2.8867v17.32l5-2.8867Z"/>
        <path id="Path-200" data-name="Path" class="curtain-L-prim-dark-light"
              d="M80,715.9143l5,2.8867v17.3206l-5-2.8869Z"/>
        <path id="Path-201" data-name="Path" class="curtain-R-prim-dark-light"
              d="M200,756.3289l-5,2.8867v17.3205l5-2.8867Z"/>
        <path id="Path-202" data-name="Path" class="curtain-L-prim-dark-light"
              d="M40,658.1792l5,2.8868v17.32L40,675.5Z"/>
        <path id="Path-203" data-name="Path" class="curtain-R-prim-dark-light"
              d="M240,698.5938l-5,2.8868v17.3205l5-2.8868Z"/>
        <path id="Path-204" data-name="Path" class="curtain-L-prim-dark-light"
              d="M40,692.82l5,2.8868v17.3205l-5-2.8868Z"/>
        <path id="Path-205" data-name="Path" class="curtain-R-prim-dark-light"
              d="M240,733.2347l-5,2.8869v17.3205l5-2.8868Z"/>
        <path id="Path-206" data-name="Path" class="curtain-L-prim-dark-light"
              d="M120,704.3673l5,2.8869v17.32l-5-2.8869Z"/>
        <path id="Path-207" data-name="Path" class="curtain-L-prim-dark-light"
              d="M120,739.0083l5,2.8868v17.3205l-5-2.8869Z"/>
        <path id="Path-208" data-name="Path" class="curtain-L-prim-dark-light"
              d="M20,646.6322l5,2.8868V666.84l-5-2.8869Z"/>
        <path id="Path-209" data-name="Path" class="curtain-R-prim-dark-light"
              d="M260,687.0468l-5,2.8868v17.3206l5-2.8869Z"/>
        <path id="Path-210" data-name="Path" class="curtain-L-prim-dark-light"
              d="M20,681.2732l5,2.8868v17.3205l-5-2.8867Z"/>
        <path id="Path-211" data-name="Path" class="curtain-R-prim-dark-light"
              d="M260,721.6877l-5,2.8869v17.32l5-2.8868Z"/>
        <path id="Path-212" data-name="Path" class="curtain-L-prim-dark-light"
              d="M100,692.82l5,2.8867v17.3206l-5-2.8869Z"/>
        <path id="Path-213" data-name="Path" class="curtain-R-prim-dark-light"
              d="M180,733.2349l-5,2.8867v17.3205l5-2.8867Z"/>
        <path id="Path-214" data-name="Path" class="curtain-L-prim-dark-light"
              d="M100,727.4613l5,2.8868v17.32l-5-2.8869Z"/>
        <path id="Path-215" data-name="Path" class="curtain-R-prim-dark-light"
              d="M180,767.8759l-5,2.8867v17.3207l5-2.8869Z"/>
        <path id="Path-216" data-name="Path" class="curtain-L-prim-dark-light"
              d="M60,669.7262l5,2.8868v17.32l-5-2.8869Z"/>
        <path id="Path-217" data-name="Path" class="curtain-R-prim-dark-light"
              d="M220,710.1407l-5,2.8869v17.3205l5-2.8868Z"/>
        <path id="Path-218" data-name="Path" class="curtain-L-prim-dark-light"
              d="M60,704.3672l5,2.8868v17.32l-5-2.8868Z"/>
        <path id="Path-219" data-name="Path" class="curtain-R-prim-dark-light"
              d="M220,744.7817l-5,2.8869v17.3205l5-2.8868Z"/>
        <path id="Path-220" data-name="Path" class="curtain-L-prim-dark-light"
              d="M140,715.9143l5,2.8868v17.32l-5-2.8869Z"/>
        <path id="Path-221" data-name="Path" class="curtain-L-prim-dark-light"
              d="M140,750.5553l5,2.8868v17.3205l-5-2.8869Z"/>
        <path id="Path-222" data-name="Path" class="curtain-L-prim-dark-light"
              d="M160,727.4613l5,2.8867v17.3205l-5-2.8868Z"/>
        <path id="Path-223" data-name="Path" class="curtain-L-prim-dark-light"
              d="M160,762.1022l5,2.8868v17.32l-5-2.8867Z"/>
        <path id="Path-224" data-name="Path" class="curtain-L-prim-dark-light"
              d="M10,640.8586l5,2.8869V661.066l-5-2.8868Z"/>
        <path id="Path-225" data-name="Path" class="curtain-R-prim-dark-light"
              d="M270,681.2733l-5,2.8867v17.3206l5-2.8868Z"/>
        <path id="Path-226" data-name="Path" class="curtain-L-prim-dark-light"
              d="M10,675.5l5,2.8869V695.707L10,692.82Z"/>
        <path id="Path-227" data-name="Path" class="curtain-R-prim-dark-light"
              d="M270,715.9143l-5,2.8868v17.32l5-2.8869Z"/>
        <path id="Path-228" data-name="Path" class="curtain-L-prim-dark-light"
              d="M90,687.0468l5,2.8868v17.3206l-5-2.8869Z"/>
        <path id="Path-229" data-name="Path" class="curtain-R-prim-dark-light"
              d="M190,727.4614l-5,2.8867v17.3206l5-2.8868Z"/>
        <path id="Path-230" data-name="Path" class="curtain-L-prim-dark-light"
              d="M90,721.6877l5,2.8869v17.32l-5-2.8868Z"/>
        <path id="Path-231" data-name="Path" class="curtain-R-prim-dark-light"
              d="M190,762.1024l-5,2.8867V782.31l5-2.8868Z"/>
        <path id="Path-232" data-name="Path" class="curtain-L-prim-dark-light"
              d="M50,663.9526l5,2.8869v17.32l-5-2.8868Z"/>
        <path id="Path-233" data-name="Path" class="curtain-R-prim-dark-light"
              d="M230,704.3673l-5,2.8869v17.32l5-2.8869Z"/>
        <path id="Path-234" data-name="Path" class="curtain-L-prim-dark-light"
              d="M50,698.5938l5,2.8867V718.801l-5-2.8868Z"/>
        <path id="Path-235" data-name="Path" class="curtain-R-prim-dark-light"
              d="M230,739.0083l-5,2.8868v17.3205l5-2.8869Z"/>
        <path id="Path-236" data-name="Path" class="curtain-L-prim-dark-light"
              d="M130,710.1407l5,2.8869v17.3205l-5-2.8868Z"/>
        <path id="Path-237" data-name="Path" class="curtain-L-prim-dark-light"
              d="M130,744.7817l5,2.8869v17.3205l-5-2.8868Z"/>
        <path id="Path-238" data-name="Path" class="curtain-L-prim-dark-light"
              d="M30,652.4056l5,2.8869V672.613l-5-2.8868Z"/>
        <path id="Path-239" data-name="Path" class="curtain-R-prim-dark-light"
              d="M250,692.82l-5,2.8867v17.3206l5-2.8869Z"/>
        <path id="Path-240" data-name="Path" class="curtain-L-prim-dark-light"
              d="M30,687.0466l5,2.8869V707.254l-5-2.8868Z"/>
        <path id="Path-241" data-name="Path" class="curtain-R-prim-dark-light"
              d="M250,727.4613l-5,2.8868v17.32l5-2.8869Z"/>
        <path id="Path-242" data-name="Path" class="curtain-L-prim-dark-light"
              d="M110,698.5938l5,2.8868v17.3205l-5-2.8868Z"/>
        <path id="Path-243" data-name="Path" class="curtain-L-prim-dark-light"
              d="M110,733.2347l5,2.8869v17.3205l-5-2.8868Z"/>
        <path id="Path-244" data-name="Path" class="curtain-L-prim-dark-light"
              d="M70,675.5l5,2.8869V695.707L70,692.82Z"/>
        <path id="Path-245" data-name="Path" class="curtain-R-prim-dark-light"
              d="M210,715.9143l-5,2.8868v17.32l5-2.8869Z"/>
        <path id="Path-246" data-name="Path" class="curtain-L-prim-dark-light"
              d="M70,710.1407l5,2.8868v17.32l-5-2.8868Z"/>
        <path id="Path-247" data-name="Path" class="curtain-R-prim-dark-light"
              d="M210,750.5553l-5,2.8868v17.3205l5-2.8869Z"/>
        <path id="Path-248" data-name="Path" class="curtain-L-prim-dark-light"
              d="M150,721.6877l5,2.8869v17.32l-5-2.8868Z"/>
        <path id="Path-249" data-name="Path" class="curtain-L-prim-dark-light"
              d="M150,756.3287l5,2.8869v17.3205l-5-2.8868Z"/>
        <path id="Path-250" data-name="Path" class="curtain-L-prim-dark-light"
              d="M170,733.2347l5,2.8868V753.442l-5-2.8867Z"/>
        <path id="Path-251" data-name="Path" class="curtain-L-prim-dark-light"
              d="M170,767.8757l5,2.8868v17.32l-5-2.8868Z"/>
        <path id="Path-252" data-name="Path" class="curtain-L-prim-dark-light"
              d="M170,132.7905l10,5.7735v17.3205l-10-5.7735Z"/>
        <path id="Path-253" data-name="Path" class="curtain-L-prim-dark-light"
              d="M170,167.4315l10,5.7735v17.32l-10-5.7735Z"/>
        <path id="Path-254" data-name="Path" class="curtain-R-prim-dark-light"
              d="M235,129.9038l-10,5.7735v17.3205l10-5.7735Z"/>
        <path id="Path-255" data-name="Path" class="curtain-R-prim-dark-light"
              d="M235,164.5448l-10,5.7735v17.3205l10-5.7735Z"/>
        <path id="Path-256" data-name="Path" class="curtain-R-prim-dark-light"
              d="M235,199.1858l-10,5.7735v17.32l10-5.7735Z"/>
        <path id="Path-257" data-name="Path" class="curtain-R-prim-dark-light"
              d="M235,233.8268,225,239.6v17.32l10-5.7735Z"/>
        <path id="Path-258" data-name="Path" class="curtain-R-prim-dark-light"
              d="M235,268.4678l-10,5.7735v17.32l10-5.7735Z"/>
        <path id="Path-259" data-name="Path" class="curtain-R-prim-dark-light"
              d="M235,303.1088l-10,5.7735v17.3205l10-5.7735Z"/>
        <path id="Path-260" data-name="Path" class="curtain-R-prim-dark-light"
              d="M235,337.75l-10,5.7735v17.3205l10-5.7735Z"/>
        <path id="Path-261" data-name="Path" class="curtain-R-prim-dark-light"
              d="M280,369.5041l-10,5.7734V392.598l10-5.7735Z"/>
        <path id="Path-262" data-name="Path" class="curtain-R-prim-dark-light"
              d="M280,404.145l-10,5.7735v17.32l10-5.7735Z"/>
        <path id="Path-263" data-name="Path" class="curtain-R-prim-dark-light"
              d="M280,438.786,270,444.56v17.32l10-5.7735Z"/>
        <path id="Path-264" data-name="Path" class="curtain-R-prim-dark-light"
              d="M280,473.4271l-10,5.7735v17.32l10-5.7735Z"/>
        <path id="Path-265" data-name="Path" class="curtain-R-prim-dark-light"
              d="M280,508.0681l-10,5.7735v17.3205l10-5.7735Z"/>
        <path id="Path-266" data-name="Path" class="curtain-R-prim-dark-light"
              d="M280,542.7092l-10,5.7735v17.32l10-5.7735Z"/>
        <path id="Path-267" data-name="Path" class="curtain-R-prim-dark-light"
              d="M280,577.35l-10,5.7735v17.3205l10-5.7735Z"/>
        <path id="Path-268" data-name="Path" class="curtain-R-prim-dark-light"
              d="M280,611.9912l-10,5.7734v17.3206l10-5.7736Z"/>
        <path id="Path-269" data-name="Path" class="curtain-R-prim-dark-light"
              d="M310,121.2435l-10,5.7735v17.3205l10-5.7735Z"/>
        <path id="Path-270" data-name="Path" class="curtain-R-prim-dark-light"
              d="M310,155.8845l-10,5.7735v17.3205l10-5.7735Z"/>
        <path id="Path-271" data-name="Path" class="curtain-R-prim-dark-light"
              d="M310,190.5255l-10,5.7735v17.32l10-5.7735Z"/>
        <path id="Path-272" data-name="Path" class="curtain-R-prim-dark-light"
              d="M310,225.1666,300,230.94v17.3205l10-5.7735Z"/>
        <path id="Path-273" data-name="Path" class="curtain-R-prim-dark-light"
              d="M310,259.8075l-10,5.7735v17.32l10-5.7735Z"/>
        <path id="Path-274" data-name="Path" class="curtain-R-prim-dark-light"
              d="M310,294.4485l-10,5.7735v17.3205l10-5.7735Z"/>
        <path id="Path-275" data-name="Path" class="curtain-R-prim-dark-light"
              d="M355,326.2028l-10,5.7735v17.3205l10-5.7735Z"/>
        <path id="Path-276" data-name="Path" class="curtain-R-prim-dark-light"
              d="M355,360.8437l-10,5.7735v17.32l10-5.7735Z"/>
        <path id="Path-277" data-name="Path" class="curtain-R-prim-dark-light"
              d="M355,395.4848l-10,5.7735v17.32l10-5.7735Z"/>
        <path id="Path-278" data-name="Path" class="curtain-R-prim-dark-light"
              d="M355,430.1258l-10,5.7735V453.22l10-5.7735Z"/>
        <path id="Path-279" data-name="Path" class="curtain-R-prim-dark-light"
              d="M355,464.7668,345,470.54v17.32l10-5.7735Z"/>
        <path id="Path-280" data-name="Path" class="curtain-R-prim-dark-light"
              d="M355,499.4079l-10,5.7735v17.32l10-5.7735Z"/>
        <path id="Path-281" data-name="Path" class="curtain-R-prim-dark-light"
              d="M355,534.0489l-10,5.7735v17.3205l10-5.7735Z"/>
        <path id="Path-282" data-name="Path" class="curtain-R-prim-dark-light"
              d="M355,568.69l-10,5.7735v17.3205l10-5.7735Z"/>
        <path id="Path-283" data-name="Path" class="curtain-R-prim-dark-light"
              d="M355,603.3309l-10,5.7736v17.32l10-5.7735Z"/>
        <path id="Path-284" data-name="Path" class="curtain-R-prim-dark-light"
              d="M355,637.9719l-10,5.7735v17.3205l10-5.7735Z"/>
        <path id="Path-285" data-name="Path" class="curtain-L-prim-dark-light"
              d="M170,271.3546l10,5.7735v17.32l-10-5.7735Z"/>
        <path id="Path-286" data-name="Path" class="curtain-L-prim-dark-light"
              d="M170,305.9955l10,5.7735v17.32l-10-5.7735Z"/>
        <path id="Path-287" data-name="Path" class="curtain-L-prim-dark-light"
              d="M170,409.9186l10,5.7735v17.3205l-10-5.7735Z"/>
        <path id="Path-288" data-name="Path" class="curtain-L-prim-dark-light"
              d="M170,548.4827l10,5.7735v17.32l-10-5.7735Z"/>
        <path id="Path-289" data-name="Path" class="curtain-L-prim-dark-light"
              d="M170,583.1238l10,5.7735v17.3205l-10-5.7735Z"/>
        <path id="Path-290" data-name="Path" class="curtain-L-prim-dark-light"
              d="M170,202.0725l10,5.7735v17.3205l-10-5.7735Z"/>
        <path id="Path-291" data-name="Path" class="curtain-L-prim-dark-light"
              d="M170,340.6365l10,5.7735v17.32l-10-5.7735Z"/>
        <path id="Path-292" data-name="Path" class="curtain-L-prim-dark-light"
              d="M170,444.56l10,5.7735v17.32L170,461.88Z"/>
        <path id="Path-293" data-name="Path" class="curtain-L-prim-dark-light"
              d="M170,617.7648l10,5.7735v17.32l-10-5.7735Z"/>
        <path id="Path-294" data-name="Path" class="curtain-L-prim-dark-light"
              d="M170,236.7136l10,5.7735v17.32l-10-5.7735Z"/>
        <path id="Path-295" data-name="Path" class="curtain-L-prim-dark-light"
              d="M170,375.2775l10,5.7735v17.3205l-10-5.7735Z"/>
        <path id="Path-296" data-name="Path" class="curtain-L-prim-dark-light"
              d="M170,479.2006l10,5.7735v17.32l-10-5.7735Z"/>
        <path id="Path-297" data-name="Path" class="curtain-L-prim-dark-light"
              d="M170,513.8416l10,5.7735v17.3205l-10-5.7735Z"/>
        <path id="Path-298" data-name="Path" class="curtain-L-prim-dark-light"
              d="M112.5,261.2509l10,5.7735v17.32l-10-5.7735Z"/>
        <path id="Path-299" data-name="Path" class="curtain-L-prim-dark-light"
              d="M112.5,330.5329l10,5.7735v17.32l-10-5.7735Z"/>
        <path id="Path-300" data-name="Path" class="curtain-L-prim-dark-light"
              d="M112.5,434.456l10,5.7735V457.55l-10-5.7735Z"/>
        <path id="Path-301" data-name="Path" class="curtain-L-prim-dark-light"
              d="M112.5,365.1739l10,5.7735v17.32l-10-5.7735Z"/>
        <path id="Path-302" data-name="Path" class="curtain-L-prim-dark-light"
              d="M112.5,469.097l10,5.7735v17.32l-10-5.7735Z"/>
        <path id="Path-303" data-name="Path" class="curtain-L-prim-dark-light"
              d="M112.5,503.738l10,5.7735v17.32l-10-5.7735Z"/>
        <path id="Path-304" data-name="Path" class="curtain-L-prim-dark-light"
              d="M112.5,295.8919l10,5.7735v17.32l-10-5.7735Z"/>
        <path id="Path-305" data-name="Path" class="curtain-L-prim-dark-light"
              d="M112.5,399.8149l10,5.7735v17.3205l-10-5.7735Z"/>
        <path id="Path-306" data-name="Path" class="curtain-L-prim-dark-light"
              d="M112.5,538.379l10,5.7735v17.32l-10-5.7735Z"/>
        <path id="Path-307" data-name="Path" class="curtain-L-prim-dark-light"
              d="M112.5,573.02l10,5.7735v17.3206l-10-5.7736Z"/>
        <path id="Path-308" data-name="Path" class="curtain-L-prim-dark-light"
              d="M112.5,607.6611l10,5.7735v17.32l-10-5.7735Z"/>
        <path id="Path-309" data-name="Path" class="curtain-R-prim-dark" d="M127.5,125.5736l2.5,1.4434v-17.32Z"/>
        <path id="Path-310" data-name="Path" class="curtain-L-prim-dark-light"
              d="M120,173.205l10,5.7735-2.5,15.8772-10-5.7736Z"/>
        <path id="Path-311" data-name="Path" class="curtain-R-prim-dark" d="M127.5,194.8557l2.5,1.4433V178.9785Z"/>
        <path id="Path-312" data-name="Path" class="curtain-L-prim-dark-light"
              d="M145,187.6388l10,5.7735-2.5,15.8771-10-5.7735Z"/>
        <path id="Path-313" data-name="Path" class="curtain-R-prim-dark" d="M152.5,209.2894l2.5,1.4434V193.4123Z"/>
        <path id="Path-314" data-name="Path" class="curtain-L-prim-dark-light"
              d="M112.5,261.251l10,5.7734L120,282.9016l-10-5.7736Z"/>
        <path id="Path-315" data-name="Path" class="curtain-R-prim-dark" d="M120,282.9016l2.5,1.4433v-17.32Z"/>
        <path id="Path-316" data-name="Path" class="curtain-L-prim-dark-light"
              d="M87.5,316.0991l10,5.7735L95,337.75l-10-5.7736Z"/>
        <path id="Path-317" data-name="Path" class="curtain-R-prim-dark" d="M95,337.75l2.5,1.4433V321.8726Z"/>
        <path id="Path-318" data-name="Path" class="curtain-L-prim-dark-light"
              d="M62.5,440.23l10,5.7735L70,461.88l-10-5.7735Z"/>
        <path id="Path-319" data-name="Path" class="curtain-R-prim-dark" d="M70,461.88l2.5,1.4434V446.003Z"/>
        <path id="Path-320" data-name="Path" class="curtain-L-prim-dark-light"
              d="M62.5,474.8705l10,5.7735L70,496.5211l-10-5.7735Z"/>
        <path id="Path-321" data-name="Path" class="curtain-R-prim-dark" d="M70,496.5211l2.5,1.4434v-17.32Z"/>
        <path id="Path-322" data-name="Path" class="curtain-L-prim-dark-light"
              d="M62.5,544.1525l10,5.7735L70,565.8032,60,560.03Z"/>
        <path id="Path-323" data-name="Path" class="curtain-R-prim-dark" d="M70,565.8032l2.5,1.4433v-17.32Z"/>
        <path id="Path-324" data-name="Path" class="curtain-L-prim-dark-light"
              d="M112.5,503.738l10,5.7735L120,525.3886l-10-5.7735Z"/>
        <path id="Path-325" data-name="Path" class="curtain-R-prim-dark" d="M120,525.3886l2.5,1.4434v-17.32Z"/>
        <path id="Path-326" data-name="Path" class="curtain-L-prim-dark-light"
              d="M87.5,558.5863l10,5.7734L95,580.2369l-10-5.7735Z"/>
        <path id="Path-327" data-name="Path" class="curtain-R-prim-dark" d="M95,580.2369l2.5,1.4434V564.36Z"/>
        <path id="Path-328" data-name="Path" class="curtain-L-prim-dark-light"
              d="M112.5,330.5329l10,5.7735L120,352.1835,110,346.41Z"/>
        <path id="Path-329" data-name="Path" class="curtain-R-prim-dark" d="M120,352.1835l2.5,1.4434v-17.32Z"/>
        <path id="Path-330" data-name="Path" class="curtain-L-prim-dark-light"
              d="M87.5,454.6632l10,5.7735L95,476.3139,85,470.54Z"/>
        <path id="Path-331" data-name="Path" class="curtain-R-prim-dark" d="M95,476.3139l2.5,1.4433V460.4367Z"/>
        <path id="Path-332" data-name="Path" class="curtain-L-prim-dark-light"
              d="M170,409.9185l10,5.7735-2.5,15.8772-10-5.7736Z"/>
        <path id="Path-333" data-name="Path" class="curtain-R-prim-dark" d="M177.5,431.5692l2.5,1.4433v-17.32Z"/>
        <path id="Path-334" data-name="Path" class="curtain-L-prim-dark-light"
              d="M170,236.7136l10,5.7735-2.5,15.8771-10-5.7736Z"/>
        <path id="Path-335" data-name="Path" class="curtain-R-prim-dark" d="M177.5,258.3642l2.5,1.4434v-17.32Z"/>
        <path id="Path-336" data-name="Path" class="curtain-R-prim-dark-light"
              d="M310,86.6025,300,92.376l2.5,15.8771,10-5.7736Z"/>
        <path id="Path-337" data-name="Path" class="curtain-L-prim-dark" d="M302.5,108.2531l-2.5,1.4434V92.376Z"/>
        <path id="Path-338" data-name="Path" class="curtain-R-prim-dark-light"
              d="M260,150.111l-10,5.7735,2.5,15.8771,10-5.7735Z"/>
        <path id="Path-339" data-name="Path" class="curtain-L-prim-dark" d="M252.5,171.7616,250,173.205V155.8845Z"/>
        <path id="Path-340" data-name="Path" class="curtain-R-prim-dark-light"
              d="M260,288.675l-10,5.7735,2.5,15.8771,10-5.7735Z"/>
        <path id="Path-341" data-name="Path" class="curtain-L-prim-dark" d="M252.5,310.3256,250,311.769v-17.32Z"/>
        <path id="Path-342" data-name="Path" class="curtain-R-prim-dark-light"
              d="M285,274.2412l-10,5.7735,2.5,15.8772,10-5.7736Z"/>
        <path id="Path-343" data-name="Path" class="curtain-L-prim-dark" d="M277.5,295.8919l-2.5,1.4433v-17.32Z"/>
        <path id="Path-344" data-name="Path" class="curtain-R-prim-dark-light"
              d="M380,381.051l-10,5.7735,2.5,15.8772,10-5.7736Z"/>
        <path id="Path-345" data-name="Path" class="curtain-L-prim-dark" d="M372.5,402.7017,370,404.145v-17.32Z"/>
        <path id="Path-346" data-name="Path" class="curtain-R-prim-dark-light"
              d="M380,450.3331l-10,5.7735,2.5,15.8771,10-5.7735Z"/>
        <path id="Path-347" data-name="Path" class="curtain-L-prim-dark" d="M372.5,471.9837l-2.5,1.4434v-17.32Z"/>
        <path id="Path-348" data-name="Path" class="curtain-R-prim-dark-light"
              d="M280,577.35l-10,5.7735,2.5,15.877,10-5.7734Z"/>
        <path id="Path-349" data-name="Path" class="curtain-L-prim-dark" d="M272.5,599.0007l-2.5,1.4435V583.1237Z"/>
        <path id="Path-350" data-name="Path" class="curtain-R-prim-dark-light"
              d="M305,562.9164,295,568.69l2.5,15.8772,10-5.7735Z"/>
        <path id="Path-351" data-name="Path" class="curtain-L-prim-dark" d="M297.5,584.5671,295,586.01V568.69Z"/>
        <path id="Path-352" data-name="Path" class="curtain-R-prim-dark-light"
              d="M380,624.9816l-10,5.7735,2.5,15.8771,10-5.7736Z"/>
        <path id="Path-353" data-name="Path" class="curtain-L-prim-dark" d="M372.5,646.6322l-2.5,1.4434V630.7551Z"/>
        <path id="anchor_100_150.111_260" class="top-light" d="M100,92.376,260,0,360,57.735,200,150.111Z"/>
    </g>
</svg>
