<svg id="Layer_1" data-name="Layer 1" xmlns="http://www.w3.org/2000/svg" viewBox="0 0 430 718.8014">
  <defs>
    <style>
      .top-light {
        fill: #ffc8c6;
      }

      .top-prim {
        fill: #dd8a87;
      }

      .exterior-R-prim {
        fill: #d05752;
      }

      .exterior-L-prim {
        fill: #73302e;
      }

      .curtain-R-prim-light {
        fill: #59acd0;
      }

      .curtain-R-prim-dark {
        fill: #3e809c;
      }

      .curtain-L-prim-light {
        fill: #438fb0;
      }

      .curtain-L-prim-dark {
        fill: #2f5565;
      }

      .curtain-L-prim-dark-light {
        fill: #426a7a;
      }

      .curtain-R-prim-dark-light {
        fill: #4d90ad;
      }

      .cls-1 {
        fill: #ef5b39;
      }

      .cls-2 {
        fill: #222224;
      }

      .cls-3 {
        fill: #f0efeb;
      }
    </style>
  </defs>
  <title>Artboard 23</title>
  <g id="root">
    <path id="Path" class="top-light" d="M0,617.7649,255,470.5406,430,571.5769,175,718.8012Z"/>
    <path id="Path-2" data-name="Path" class="top-prim" d="M175,713.0277,420,571.5769,255,476.3141,10,617.7649Z"/>
    <path id="Path-3" data-name="Path" class="exterior-R-prim" d="M10,617.7649,255,476.3141v5.7735L15,620.6517Z"/>
    <path id="Path-4" data-name="Path" class="exterior-L-prim" d="M255,476.314v5.7736l160,92.376,5-2.8867Z"/>
    <path id="Path-5" data-name="Path" class="curtain-R-prim-light" d="M250,571.5769l150-86.6026v69.2821L250,640.859Z"/>
    <path id="Path-6" data-name="Path" class="curtain-R-prim-dark" d="M245,597.5577l155-89.4893V525.389L245,614.8783Z"/>
    <path id="Path-7" data-name="Path" class="curtain-R-prim-dark" d="M245,632.1987,400,542.71v17.32L245,649.5193Z"/>
    <path id="Path-8" data-name="Path" class="top-light" d="M285,586.0106,175,649.5193,0,548.4829l110-63.5085Z"/>
    <path id="Path-9" data-name="Path" class="top-prim" d="M175,643.7457l100-57.735L110,490.7479,10,548.4829Z"/>
    <path id="Path-10" data-name="Path" class="top-light" d="M135,256.9209l100-57.7351L150,150.111,50,207.8461Z"/>
    <path id="Path-11" data-name="Path" class="top-light" d="M245,349.297l155-89.4893-95-54.8483L155,297.3355Z"/>
    <path id="Path-12" data-name="Path" class="top-prim" d="M60,207.8461l75,43.3013,85-49.0748-75-43.3013Z"/>
    <path id="Path-13" data-name="Path" class="exterior-R-prim" d="M60,207.8461l5,2.8868,40-23.0941v-5.7735Z"/>
    <path id="Path-14" data-name="Path" class="curtain-L-prim-light" d="M100,92.3761l100,57.735V271.3546L100,213.62Z"/>
    <path id="Path-15" data-name="Path" class="curtain-R-prim-light" d="M360,57.7352l-160,92.376v86.6026l160-92.3761Z"/>
    <path id="Path-16" data-name="Path" class="curtain-L-prim-light" d="M50,207.8462l85,49.0748v86.6025L50,294.4487Z"/>
    <path id="Path-17" data-name="Path" class="curtain-L-prim-light" d="M50,288.6752,135,337.75V568.69L50,519.6154Z"/>
    <path id="Path-18" data-name="Path" class="curtain-R-prim-light" d="M200,352.1837,225,337.75V562.9167l-25,14.4339Z"/>
    <path id="Path-19" data-name="Path" class="curtain-R-prim-dark" d="M200,357.9573l30-17.3206v17.3206l-30,17.3205Z"/>
    <path id="Path-20" data-name="Path" class="top-prim" d="M160,294.4487l85,49.0748,145-83.7158-85-49.0748Z"/>
    <path id="Path-21" data-name="Path" class="curtain-R-prim-light" d="M245,349.297l155-89.4893V484.9744L245,574.4637Z"/>
    <path id="Path-22" data-name="Path" class="exterior-L-prim" d="M355,245.374l30,17.32,5-2.8867-35-20.2072Z"/>
    <path id="Path-23" data-name="Path" class="curtain-L-prim-light" d="M155,210.733l45,25.9808v115.47L155,326.203Z"/>
    <path id="Path-24" data-name="Path" class="curtain-L-prim-light" d="M155,326.203l45,25.9807v230.94l-45-25.9807Z"/>
    <path id="Path-25" data-name="Path" class="curtain-R-prim-light" d="M360,144.3377v115.47l-160,92.376v-115.47Z"/>
    <path id="Path-26" data-name="Path" class="curtain-R-prim-dark" d="M200,427.2393l30-17.3206v17.3206l-30,17.32Z"/>
    <path id="Path-27" data-name="Path" class="curtain-R-prim-dark" d="M200,496.5214l30-17.3205v17.3205l-30,17.32Z"/>
    <path id="Path-28" data-name="Path" class="curtain-L-prim-light" d="M0,617.765,175,718.8014V649.5191L0,548.4829Z"/>
    <path id="Path-29" data-name="Path" class="curtain-R-prim-light" d="M175,649.5193l110-63.5087v69.2821L175,718.8014Z"/>
    <path id="Path-30" data-name="Path" class="curtain-R-prim-dark" d="M200,565.8036l30-17.3206v17.3206l-30,17.32Z"/>
    <path id="Path-31" data-name="Path" class="curtain-R-prim-dark" d="M200,392.5983l30-17.3206v17.3206l-30,17.32Z"/>
    <path id="Path-32" data-name="Path" class="curtain-R-prim-light" d="M225,331.9765l10,5.7735,125-72.1688v-11.547Z"/>
    <path id="Path-33" data-name="Path" class="curtain-L-prim-light" d="M100,207.8463v11.547l45,25.9807,10-5.7735Z"/>
    <path id="Path-34" data-name="Path" class="curtain-R-prim-dark" d="M200,150.111,360,57.735v17.32l-160,92.376Z"/>
    <path id="Path-35" data-name="Path" class="curtain-L-prim-dark" d="M200,150.111,100,92.376v17.32l100,57.735Z"/>
    <path id="Path-36" data-name="Path" class="curtain-L-prim-dark" d="M135,343.5235,50,294.4487v17.3205l85,49.0748Z"/>
    <path id="Path-37" data-name="Path" class="curtain-L-prim-dark" d="M135,482.0876,50,433.0128v17.32l85,49.0748Z"/>
    <path id="Path-38" data-name="Path" class="curtain-L-prim-dark" d="M200,357.9572,150,329.09v17.32l50,28.8675Z"/>
    <path id="Path-39" data-name="Path" class="curtain-R-prim-dark" d="M200,461.88l30-17.32v17.32l-30,17.3205Z"/>
    <path id="Path-40" data-name="Path" class="curtain-R-prim-dark" d="M245,355.0705l155-89.4893v17.32L245,372.391Z"/>
    <path id="Path-41" data-name="Path" class="curtain-R-prim-dark" d="M200,531.1626l30-17.3207v17.3207l-30,17.32Z"/>
    <path id="Path-42" data-name="Path" class="curtain-R-prim-dark" d="M200,184.7521,360,92.376v17.32L200,202.0726Z"/>
    <path id="Path-43" data-name="Path" class="curtain-L-prim-dark" d="M200,184.7521,100,127.017v17.3205l100,57.7351Z"/>
    <path id="Path-44" data-name="Path" class="curtain-L-prim-dark" d="M135,412.8055,50,363.7307v17.32l85,49.0748Z"/>
    <path id="Path-45" data-name="Path" class="curtain-L-prim-dark" d="M200,427.2393l-50-28.8675v17.32L200,444.56Z"/>
    <path id="Path-46" data-name="Path" class="curtain-R-prim-dark" d="M245,424.3526l155-89.4893v17.3205L245,441.673Z"/>
    <path id="Path-47" data-name="Path" class="curtain-R-prim-dark" d="M200,254.0341l160-92.376v17.3205l-160,92.376Z"/>
    <path id="Path-48" data-name="Path" class="curtain-L-prim-dark" d="M200,254.0341,100,196.2992v17.32l100,57.7349Z"/>
    <path id="Path-49" data-name="Path" class="curtain-L-prim-dark" d="M135,308.8824,50,259.8077v17.32l85,49.0748Z"/>
    <path id="Path-50" data-name="Path" class="curtain-L-prim-dark" d="M135,551.37,50,502.2949v17.3205L135,568.69Z"/>
    <path id="Path-51" data-name="Path" class="curtain-L-prim-dark" d="M175,666.84,0,565.8034V583.124L175,684.16Z"/>
    <path id="Path-52" data-name="Path" class="curtain-L-prim-dark" d="M175,701.4807,0,600.4444V617.765L175,718.8014Z"/>
    <path id="Path-53" data-name="Path" class="curtain-L-prim-dark" d="M200,323.3162l-50-28.8675v17.3205l50,28.8675Z"/>
    <path id="Path-54" data-name="Path" class="curtain-L-prim-dark" d="M200,496.5214l-50-28.8675v17.32l50,28.8675Z"/>
    <path id="Path-55" data-name="Path" class="curtain-L-prim-dark" d="M200,531.1624l-50-28.8675v17.3206l50,28.8675Z"/>
    <path id="Path-56" data-name="Path" class="curtain-L-prim-dark" d="M200,565.8034l-50-28.8675v17.3207l50,28.8674Z"/>
    <path id="Path-57" data-name="Path" class="curtain-R-prim-dark" d="M200,288.6752l160-92.3759v17.32l-160,92.376Z"/>
    <path id="Path-58" data-name="Path" class="curtain-L-prim-dark" d="M135,378.1645,50,329.09v17.32l85,49.0748Z"/>
    <path id="Path-59" data-name="Path" class="curtain-L-prim-dark" d="M200,392.5982l-50-28.8675v17.32l50,28.8675Z"/>
    <path id="Path-60" data-name="Path" class="curtain-R-prim-dark" d="M245,389.7115l155-89.4893v17.3206L245,407.032Z"/>
    <path id="Path-61" data-name="Path" class="curtain-R-prim-dark" d="M200,219.3931,360,127.017v17.3206l-160,92.376Z"/>
    <path id="Path-62" data-name="Path" class="curtain-L-prim-dark" d="M200,219.3931l-100-57.735v17.32l100,57.7351Z"/>
    <path id="Path-63" data-name="Path" class="curtain-L-prim-dark" d="M135,274.2414,50,225.1667v17.32l85,49.0748Z"/>
    <path id="Path-64" data-name="Path" class="curtain-L-prim-dark" d="M135,447.4465,50,398.3717v17.3205l85,49.0748Z"/>
    <path id="Path-65" data-name="Path" class="curtain-L-prim-dark" d="M135,516.7287,50,467.6539v17.32l85,49.0748Z"/>
    <path id="Path-66" data-name="Path" class="curtain-L-prim-dark" d="M200,288.6752l-50-28.8675v17.32l50,28.8675Z"/>
    <path id="Path-67" data-name="Path" class="curtain-L-prim-dark" d="M200,461.88l-50-28.8675v17.32l50,28.8675Z"/>
    <path id="Path-68" data-name="Path" class="curtain-R-prim-dark" d="M245,458.9936l155-89.4893v17.32L245,476.3141Z"/>
    <path id="Path-69" data-name="Path" class="curtain-R-prim-dark" d="M245,493.6346l155-89.4892v17.32L245,510.9552Z"/>
    <path id="Path-70" data-name="Path" class="curtain-R-prim-dark" d="M245,528.2757l155-89.4893v17.32L245,545.5962Z"/>
    <path id="Path-71" data-name="Path" class="curtain-R-prim-dark" d="M245,562.9167l155-89.4893V490.748L245,580.2373Z"/>
    <path id="Path-72" data-name="Path" class="curtain-R-prim-dark" d="M200,323.3162,360,230.94v17.3205l-160,92.376Z"/>
    <path id="Path-73" data-name="Path" class="curtain-L-prim-light" d="M245,349.297,225,337.75V562.9167l20,11.547Z"/>
    <path id="Path-74" data-name="Path" class="curtain-R-prim-light" d="M135,262.6945l20-11.547v80.829l-20,11.547Z"/>
    <path id="Path-75" data-name="Path" class="curtain-R-prim-light" d="M135,337.75l20-11.547v230.94L135,568.69Z"/>
    <path id="Path-76" data-name="Path" class="curtain-R-prim-dark" d="M135,412.8055l20-11.547v17.32l-20,11.547Z"/>
    <path id="Path-77" data-name="Path" class="curtain-R-prim-dark" d="M135,308.8825l20-11.547v17.32l-20,11.547Z"/>
    <path id="Path-78" data-name="Path" class="curtain-R-prim-dark" d="M135,516.7287l20-11.547v17.3205l-20,11.547Z"/>
    <path id="Path-79" data-name="Path" class="curtain-R-prim-dark" d="M135,378.1645l20-11.547v17.32l-20,11.547Z"/>
    <path id="Path-80" data-name="Path" class="curtain-R-prim-dark" d="M135,447.4465,155,435.9V453.22l-20,11.547Z"/>
    <path id="Path-81" data-name="Path" class="curtain-R-prim-dark" d="M135,482.0877l20-11.5471v17.3206l-20,11.547Z"/>
    <path id="Path-82" data-name="Path" class="curtain-R-prim-dark" d="M135,274.2414l20-11.547v17.3205l-20,11.547Z"/>
    <path id="Path-83" data-name="Path" class="curtain-R-prim-dark" d="M135,343.5235l20-11.547V349.297l-20,11.547Z"/>
    <path id="Path-84" data-name="Path" class="curtain-R-prim-dark" d="M135,551.37l20-11.547v17.32L135,568.69Z"/>
    <path id="Path-85" data-name="Path" class="curtain-L-prim-dark" d="M245,389.7114l-20-11.547V395.485l20,11.547Z"/>
    <path id="Path-86" data-name="Path" class="curtain-L-prim-dark" d="M245,458.9935l-20-11.547v17.32l20,11.547Z"/>
    <path id="Path-87" data-name="Path" class="curtain-L-prim-dark" d="M245,355.07l-20-11.547V360.844l20,11.547Z"/>
    <path id="Path-88" data-name="Path" class="curtain-L-prim-dark" d="M245,562.9167,225,551.37V568.69l20,11.5471Z"/>
    <path id="Path-89" data-name="Path" class="curtain-R-prim-light" d="M225,568.69v5.7735l-25,14.4337V583.124Z"/>
    <path id="Path-90" data-name="Path" class="curtain-L-prim-dark" d="M245,424.3525l-20-11.547v17.32l20,11.547Z"/>
    <path id="Path-91" data-name="Path" class="curtain-L-prim-dark" d="M245,493.6346l-20-11.547v17.32l20,11.547Z"/>
    <path id="Path-92" data-name="Path" class="curtain-L-prim-dark" d="M245,528.2757l-20-11.547v17.3205l20,11.547Z"/>
    <path id="Path-93" data-name="Path" class="curtain-R-prim-dark" d="M175,666.84l110-63.5084v17.32L175,684.16Z"/>
    <path id="Path-94" data-name="Path" class="curtain-R-prim-dark" d="M175,701.4808l110-63.5085v17.32L175,718.8014Z"/>
    <path id="Path-95" data-name="Path" class="exterior-R-prim" d="M10,548.4829l45-25.9807v5.7735L15,551.37Z"/>
    <path id="Path-96" data-name="Path" class="curtain-L-prim-light" d="M55,522.5022l80,46.188v5.7735l-80-46.188Z"/>
    <path id="Path-97" data-name="Path" class="curtain-R-prim-light" d="M155,557.1432v5.7735l-20,11.547V568.69Z"/>
    <path id="Path-98" data-name="Path" class="curtain-L-prim-light" d="M200,583.124v5.7734l-45-25.9807v-5.7735Z"/>
    <path id="Path-99" data-name="Path" class="curtain-L-prim-light" d="M225,568.69l20,11.547v5.7735l-20-11.547Z"/>
    <path id="Path-100" data-name="Path" class="curtain-R-prim-light" d="M255,574.4637v5.7735l-10,5.7735v-5.7735Z"/>
    <path id="Path-101" data-name="Path" class="exterior-L-prim" d="M255,580.2372l15,8.66,5-2.8867-20-11.547Z"/>
    <path id="Path-102" data-name="Path" class="curtain-R-prim-light" d="M400,565.8034,285,632.1987v-5.7734L400,560.03Z"/>
    <path id="Path-103" data-name="Path" class="curtain-L-prim-dark-light" d="M120,103.9231l10,5.7735-2.5,15.8771-10-5.7736Z"/>
    <path id="Path-104" data-name="Path" class="curtain-L-prim-dark-light" d="M145,118.3568l10,5.7735v17.32l-10-5.7735Z"/>
    <path id="Path-105" data-name="Path" class="curtain-L-prim-dark-light" d="M145,152.9978l10,5.7735v17.3205l-10-5.7735Z"/>
    <path id="Path-106" data-name="Path" class="curtain-R-prim-dark-light" d="M285,101.0363,275,106.81V124.13l10-5.7735Z"/>
    <path id="Path-107" data-name="Path" class="curtain-R-prim-dark-light" d="M285,135.6773l-10,5.7735v17.3205l10-5.7735Z"/>
    <path id="Path-108" data-name="Path" class="curtain-R-prim-dark-light" d="M285,170.3184l-10,5.7735v17.32l10-5.7735Z"/>
    <path id="Path-109" data-name="Path" class="curtain-R-prim-dark-light" d="M285,204.9594l-10,5.7735v17.3205l10-5.7735Z"/>
    <path id="Path-110" data-name="Path" class="curtain-R-prim-dark-light" d="M285,239.6l-10,5.7735v17.32l10-5.7735Z"/>
    <path id="Path-111" data-name="Path" class="curtain-R-prim-dark-light" d="M285,274.2414l-10,5.7735v17.32l10-5.7735Z"/>
    <path id="Path-112" data-name="Path" class="curtain-R-prim-dark-light" d="M330,305.9957l-10,5.7735v17.32l10-5.7735Z"/>
    <path id="Path-113" data-name="Path" class="curtain-R-prim-dark-light" d="M330,340.6367,320,346.41v17.3205l10-5.7735Z"/>
    <path id="Path-114" data-name="Path" class="curtain-R-prim-dark-light" d="M330,375.2777l-10,5.7735v17.32l10-5.7735Z"/>
    <path id="Path-115" data-name="Path" class="curtain-R-prim-dark-light" d="M330,409.9188l-10,5.7735v17.3205l10-5.7735Z"/>
    <path id="Path-116" data-name="Path" class="curtain-R-prim-dark-light" d="M330,444.56l-10,5.7735v17.3205l10-5.7735Z"/>
    <path id="Path-117" data-name="Path" class="curtain-R-prim-dark-light" d="M330,479.2009l-10,5.7735v17.32l10-5.7735Z"/>
    <path id="Path-118" data-name="Path" class="curtain-R-prim-dark-light" d="M330,513.8419l-10,5.7735v17.32l10-5.7735Z"/>
    <path id="Path-119" data-name="Path" class="curtain-R-prim-dark-light" d="M330,548.483l-10,5.7736v17.32l10-5.7734Z"/>
    <path id="Path-120" data-name="Path" class="curtain-R-prim-dark-light" d="M330,583.1239l-10,5.7735v17.3205l10-5.7735Z"/>
    <path id="Path-121" data-name="Path" class="curtain-R-prim-dark-light" d="M260,115.47l-10,5.7735v17.32l10-5.7735Z"/>
    <path id="Path-122" data-name="Path" class="curtain-R-prim-dark-light" d="M260,115.47l-10,5.7735v17.32l10-5.7735Z"/>
    <path id="Path-123" data-name="Path" class="curtain-R-prim-dark-light" d="M260,184.7521l-10,5.7735v17.3205l10-5.7735Z"/>
    <path id="Path-124" data-name="Path" class="curtain-R-prim-dark-light" d="M260,219.3931l-10,5.7735v17.3205l10-5.7735Z"/>
    <path id="Path-125" data-name="Path" class="curtain-R-prim-dark-light" d="M260,254.0342l-10,5.7735v17.32l10-5.7735Z"/>
    <path id="Path-126" data-name="Path" class="curtain-R-prim-dark-light" d="M260,288.6752l-10,5.7735v17.3205l10-5.7735Z"/>
    <path id="Path-127" data-name="Path" class="curtain-R-prim-dark-light" d="M305,320.43l-10,5.7735v17.3205l10-5.7735Z"/>
    <path id="Path-128" data-name="Path" class="curtain-R-prim-dark-light" d="M305,355.0705l-10,5.7735v17.32l10-5.7735Z"/>
    <path id="Path-129" data-name="Path" class="curtain-R-prim-dark-light" d="M305,389.7115l-10,5.7735v17.32l10-5.7735Z"/>
    <path id="Path-130" data-name="Path" class="curtain-R-prim-dark-light" d="M305,424.3525l-10,5.7735v17.3205l10-5.7735Z"/>
    <path id="Path-131" data-name="Path" class="curtain-R-prim-dark-light" d="M305,458.9936l-10,5.7735v17.32l10-5.7735Z"/>
    <path id="Path-132" data-name="Path" class="curtain-R-prim-dark-light" d="M305,493.6347l-10,5.7735v17.32l10-5.7735Z"/>
    <path id="Path-133" data-name="Path" class="curtain-R-prim-dark-light" d="M305,528.2757l-10,5.7735v17.32l10-5.7735Z"/>
    <path id="Path-134" data-name="Path" class="curtain-R-prim-dark-light" d="M305,562.9167,295,568.69v17.3205l10-5.7734Z"/>
    <path id="Path-135" data-name="Path" class="curtain-R-prim-dark-light" d="M305,597.5577l-10,5.7736v17.32l10-5.7734Z"/>
    <path id="Path-136" data-name="Path" class="curtain-R-prim-dark-light" d="M335,72.1688l-10,5.7735v17.32l10-5.7735Z"/>
    <path id="Path-137" data-name="Path" class="curtain-R-prim-dark-light" d="M335,106.81l-10,5.7735v17.32l10-5.7735Z"/>
    <path id="Path-138" data-name="Path" class="curtain-R-prim-dark-light" d="M335,141.4508l-10,5.7735v17.3205l10-5.7735Z"/>
    <path id="Path-139" data-name="Path" class="curtain-R-prim-dark-light" d="M335,176.0919l-10,5.7735v17.3205l10-5.7735Z"/>
    <path id="Path-140" data-name="Path" class="curtain-R-prim-dark-light" d="M335,210.7329l-10,5.7735v17.32l10-5.7735Z"/>
    <path id="Path-141" data-name="Path" class="curtain-R-prim-dark-light" d="M335,245.3739l-10,5.7735v17.32l10-5.7735Z"/>
    <path id="Path-142" data-name="Path" class="curtain-R-prim-dark-light" d="M380,277.1282l-10,5.7735v17.32l10-5.7735Z"/>
    <path id="Path-143" data-name="Path" class="curtain-R-prim-dark-light" d="M380,311.7692l-10,5.7735v17.32l10-5.7735Z"/>
    <path id="Path-144" data-name="Path" class="curtain-R-prim-dark-light" d="M380,346.41l-10,5.7735v17.3205l10-5.7735Z"/>
    <path id="Path-145" data-name="Path" class="curtain-R-prim-dark-light" d="M380,381.0513l-10,5.7735v17.32l10-5.7735Z"/>
    <path id="Path-146" data-name="Path" class="curtain-R-prim-dark-light" d="M380,450.3333l-10,5.7735v17.32l10-5.7735Z"/>
    <path id="Path-147" data-name="Path" class="curtain-R-prim-dark-light" d="M380,450.3334l-10,5.7735v17.32l10-5.7735Z"/>
    <path id="Path-148" data-name="Path" class="curtain-R-prim-dark-light" d="M380,484.9744l-10,5.7735v17.32l10-5.7735Z"/>
    <path id="Path-149" data-name="Path" class="curtain-R-prim-dark-light" d="M380,519.6154l-10,5.7735v17.32l10-5.7735Z"/>
    <path id="Path-150" data-name="Path" class="curtain-R-prim-dark-light" d="M380,554.2564,370,560.03V577.35l10-5.7735Z"/>
    <path id="Path-151" data-name="Path" class="curtain-L-prim-dark-light" d="M145,152.998l10,5.7735V176.092l-10-5.7735Z"/>
    <path id="Path-152" data-name="Path" class="curtain-L-prim-dark-light" d="M145,222.28l10,5.7735v17.32L145,239.6Z"/>
    <path id="Path-153" data-name="Path" class="curtain-L-prim-dark-light" d="M87.5,281.4583l10,5.7735v17.32l-10-5.7735Z"/>
    <path id="Path-154" data-name="Path" class="curtain-L-prim-dark-light" d="M87.5,385.3814l10,5.7735v17.32l-10-5.7735Z"/>
    <path id="Path-155" data-name="Path" class="curtain-L-prim-dark-light" d="M87.5,316.0993l10,5.7735v17.3205l-10-5.7735Z"/>
    <path id="Path-156" data-name="Path" class="curtain-L-prim-dark-light" d="M87.5,420.0224l10,5.7735v17.32l-10-5.7735Z"/>
    <path id="Path-157" data-name="Path" class="curtain-L-prim-dark-light" d="M87.5,246.8173l10,5.7735v17.32l-10-5.7735Z"/>
    <path id="Path-158" data-name="Path" class="curtain-L-prim-dark-light" d="M87.5,350.74l10,5.7735v17.32l-10-5.7735Z"/>
    <path id="Path-159" data-name="Path" class="curtain-L-prim-dark-light" d="M87.5,454.6635l10,5.7735v17.32l-10-5.7735Z"/>
    <path id="Path-160" data-name="Path" class="curtain-L-prim-dark-light" d="M87.5,489.3045l10,5.7735v17.3205l-10-5.7735Z"/>
    <path id="Path-161" data-name="Path" class="curtain-L-prim-dark-light" d="M87.5,523.9456l10,5.7735v17.32l-10-5.7735Z"/>
    <path id="Path-162" data-name="Path" class="curtain-L-prim-dark-light" d="M120,138.5641l10,5.7735v17.32l-10-5.7735Z"/>
    <path id="Path-163" data-name="Path" class="curtain-L-prim-dark-light" d="M120,138.5642l10,5.7735v17.32l-10-5.7735Z"/>
    <path id="Path-164" data-name="Path" class="curtain-L-prim-dark-light" d="M120,207.8461l10,5.7735V230.94l-10-5.7735Z"/>
    <path id="Path-165" data-name="Path" class="curtain-L-prim-dark-light" d="M62.5,267.0246l10,5.7735v17.3205l-10-5.7735Z"/>
    <path id="Path-166" data-name="Path" class="curtain-L-prim-dark-light" d="M62.5,370.9476l10,5.7735v17.3205l-10-5.7735Z"/>
    <path id="Path-167" data-name="Path" class="curtain-L-prim-dark-light" d="M62.5,301.6656l10,5.7735v17.32l-10-5.7735Z"/>
    <path id="Path-168" data-name="Path" class="curtain-L-prim-dark-light" d="M62.5,405.5887l10,5.7735v17.3205l-10-5.7735Z"/>
    <path id="Path-169" data-name="Path" class="curtain-L-prim-dark-light" d="M62.5,232.3835l10,5.7735v17.32l-10-5.7735Z"/>
    <path id="Path-170" data-name="Path" class="curtain-L-prim-dark-light" d="M62.5,336.3066l10,5.7735v17.32l-10-5.7735Z"/>
    <path id="Path-171" data-name="Path" class="curtain-L-prim-dark-light" d="M62.5,440.23l10,5.7735v17.32l-10-5.7735Z"/>
    <path id="Path-172" data-name="Path" class="curtain-L-prim-dark-light" d="M62.5,474.8708l10,5.7735v17.3205l-10-5.7735Z"/>
    <path id="Path-173" data-name="Path" class="curtain-L-prim-dark-light" d="M62.5,509.5118l10,5.7735v17.3205l-10-5.7734Z"/>
    <path id="Path-174" data-name="Path" class="curtain-L-prim-dark-light" d="M0,565.8036,5,568.69v17.3205l-5-2.8868Z"/>
    <path id="Path-175" data-name="Path" class="curtain-R-prim-dark-light" d="M280,606.218l-5,2.8868v17.3205l5-2.8868Z"/>
    <path id="Path-176" data-name="Path" class="curtain-L-prim-dark-light" d="M0,600.4444l5,2.8869v17.32l-5-2.8868Z"/>
    <path id="Path-177" data-name="Path" class="curtain-R-prim-dark-light" d="M280,640.859l-5,2.8868v17.32l5-2.8868Z"/>
    <path id="Path-178" data-name="Path" class="curtain-L-prim-dark-light" d="M80,611.9915l5,2.8868v17.3205l-5-2.8868Z"/>
    <path id="Path-179" data-name="Path" class="curtain-R-prim-dark-light" d="M200,652.4061l-5,2.8868v17.32l5-2.8867Z"/>
    <path id="Path-180" data-name="Path" class="curtain-L-prim-dark-light" d="M80,646.6325l5,2.8868v17.32l-5-2.8868Z"/>
    <path id="Path-181" data-name="Path" class="curtain-R-prim-dark-light" d="M200,687.0471l-5,2.8868v17.3205l5-2.8868Z"/>
    <path id="Path-182" data-name="Path" class="curtain-L-prim-dark-light" d="M40,588.8976l5,2.8867v17.32l-5-2.8867Z"/>
    <path id="Path-183" data-name="Path" class="curtain-R-prim-dark-light" d="M240,629.3121l-5,2.8867v17.3205l5-2.8866Z"/>
    <path id="Path-184" data-name="Path" class="curtain-L-prim-dark-light" d="M40,623.5385l5,2.8868v17.32l-5-2.8867Z"/>
    <path id="Path-185" data-name="Path" class="curtain-R-prim-dark-light" d="M240,663.9531l-5,2.8867V684.16l5-2.8869Z"/>
    <path id="Path-186" data-name="Path" class="curtain-L-prim-dark-light" d="M120,635.0857l5,2.8866v17.3205l-5-2.8867Z"/>
    <path id="Path-187" data-name="Path" class="curtain-L-prim-dark-light" d="M120,669.7265l5,2.8869v17.32l-5-2.8868Z"/>
    <path id="Path-188" data-name="Path" class="curtain-L-prim-dark-light" d="M20,577.3506l5,2.8867v17.32l-5-2.8867Z"/>
    <path id="Path-189" data-name="Path" class="curtain-R-prim-dark-light" d="M260,617.765l-5,2.8868v17.3205l5-2.8868Z"/>
    <path id="Path-190" data-name="Path" class="curtain-L-prim-dark-light" d="M20,611.9914l5,2.8869v17.32l-5-2.8868Z"/>
    <path id="Path-191" data-name="Path" class="curtain-R-prim-dark-light" d="M260,652.406l-5,2.8868v17.3206l5-2.8869Z"/>
    <path id="Path-192" data-name="Path" class="curtain-L-prim-dark-light" d="M100,623.5385l5,2.8868v17.3205l-5-2.8868Z"/>
    <path id="Path-193" data-name="Path" class="curtain-R-prim-dark-light" d="M180,663.9531l-5,2.8868V684.16l5-2.8867Z"/>
    <path id="Path-194" data-name="Path" class="curtain-L-prim-dark-light" d="M100,658.18l5,2.8868v17.3205L100,675.5Z"/>
    <path id="Path-195" data-name="Path" class="curtain-R-prim-dark-light" d="M180,698.5941l-5,2.8868v17.32l5-2.8868Z"/>
    <path id="Path-196" data-name="Path" class="curtain-L-prim-dark-light" d="M60,600.4445l5,2.8868v17.32l-5-2.8867Z"/>
    <path id="Path-197" data-name="Path" class="curtain-R-prim-dark-light" d="M220,640.8591l-5,2.8867v17.32l5-2.8866Z"/>
    <path id="Path-198" data-name="Path" class="curtain-L-prim-dark-light" d="M60,635.0855l5,2.8868v17.32l-5-2.8867Z"/>
    <path id="Path-199" data-name="Path" class="curtain-R-prim-dark-light" d="M220,675.5l-5,2.8867v17.3206l5-2.8869Z"/>
    <path id="Path-200" data-name="Path" class="curtain-L-prim-dark-light" d="M140,646.6327l5,2.8866v17.32l-5-2.8867Z"/>
    <path id="Path-201" data-name="Path" class="curtain-L-prim-dark-light" d="M140,681.2737l5,2.8867v17.32l-5-2.8868Z"/>
    <path id="Path-202" data-name="Path" class="curtain-L-prim-dark-light" d="M160,658.18l5,2.8868v17.3205L160,675.5Z"/>
    <path id="Path-203" data-name="Path" class="curtain-L-prim-dark-light" d="M160,692.8205l5,2.8867v17.3205l-5-2.8867Z"/>
    <path id="Path-204" data-name="Path" class="curtain-L-prim-dark-light" d="M10,571.577l5,2.8867v17.3206l-5-2.8867Z"/>
    <path id="Path-205" data-name="Path" class="curtain-R-prim-dark-light" d="M270,611.9915l-5,2.8868v17.3205l5-2.8868Z"/>
    <path id="Path-206" data-name="Path" class="curtain-L-prim-dark-light" d="M10,606.218l5,2.8867v17.3206l-5-2.8869Z"/>
    <path id="Path-207" data-name="Path" class="curtain-R-prim-dark-light" d="M270,646.6325l-5,2.8868v17.32l5-2.8868Z"/>
    <path id="Path-208" data-name="Path" class="curtain-L-prim-dark-light" d="M90,617.765l5,2.8868v17.3205l-5-2.8868Z"/>
    <path id="Path-209" data-name="Path" class="curtain-R-prim-dark-light" d="M190,658.18l-5,2.8867v17.32l5-2.8868Z"/>
    <path id="Path-210" data-name="Path" class="curtain-L-prim-dark-light" d="M90,652.406l5,2.8868v17.3206l-5-2.8869Z"/>
    <path id="Path-211" data-name="Path" class="curtain-R-prim-dark-light" d="M190,692.8206l-5,2.8868v17.3205l5-2.8868Z"/>
    <path id="Path-212" data-name="Path" class="curtain-L-prim-dark-light" d="M50,594.671l5,2.8867v17.3206l-5-2.8868Z"/>
    <path id="Path-213" data-name="Path" class="curtain-R-prim-dark-light" d="M230,635.0857l-5,2.8866v17.3205l5-2.8867Z"/>
    <path id="Path-214" data-name="Path" class="curtain-L-prim-dark-light" d="M50,629.312l5,2.8867v17.3206l-5-2.8868Z"/>
    <path id="Path-215" data-name="Path" class="curtain-R-prim-dark-light" d="M230,669.7267l-5,2.8867v17.32l5-2.8868Z"/>
    <path id="Path-216" data-name="Path" class="curtain-L-prim-dark-light" d="M130,640.8591l5,2.8867v17.32l-5-2.8866Z"/>
    <path id="Path-217" data-name="Path" class="curtain-L-prim-dark-light" d="M130,675.5l5,2.8867v17.3206l-5-2.8869Z"/>
    <path id="Path-218" data-name="Path" class="curtain-L-prim-dark-light" d="M30,583.124l5,2.8867v17.3206l-5-2.8868Z"/>
    <path id="Path-219" data-name="Path" class="curtain-R-prim-dark-light" d="M250,623.5387l-5,2.8866v17.3205l5-2.8868Z"/>
    <path id="Path-220" data-name="Path" class="curtain-L-prim-dark-light" d="M30,617.765l5,2.8867v17.3206l-5-2.8869Z"/>
    <path id="Path-221" data-name="Path" class="curtain-R-prim-dark-light" d="M250,658.18l-5,2.8868v17.3205l5-2.8868Z"/>
    <path id="Path-222" data-name="Path" class="curtain-L-prim-dark-light" d="M110,629.312l5,2.8868v17.3205l-5-2.8868Z"/>
    <path id="Path-223" data-name="Path" class="curtain-L-prim-dark-light" d="M110,663.953l5,2.8868V684.16l-5-2.8869Z"/>
    <path id="Path-224" data-name="Path" class="curtain-L-prim-dark-light" d="M70,606.218l5,2.8867v17.3206l-5-2.8868Z"/>
    <path id="Path-225" data-name="Path" class="curtain-R-prim-dark-light" d="M210,646.6327l-5,2.8866v17.32l5-2.8867Z"/>
    <path id="Path-226" data-name="Path" class="curtain-L-prim-dark-light" d="M70,640.859l5,2.8867v17.3206L70,658.18Z"/>
    <path id="Path-227" data-name="Path" class="curtain-R-prim-dark-light" d="M210,681.2737l-5,2.8867v17.32l5-2.8868Z"/>
    <path id="Path-228" data-name="Path" class="curtain-L-prim-dark-light" d="M150,652.4061l5,2.8867v17.3206l-5-2.8867Z"/>
    <path id="Path-229" data-name="Path" class="curtain-L-prim-dark-light" d="M150,687.0471l5,2.8867v17.3206l-5-2.8869Z"/>
    <path id="Path-230" data-name="Path" class="curtain-L-prim-dark-light" d="M170,663.953l5,2.8867V684.16l-5-2.8869Z"/>
    <path id="Path-231" data-name="Path" class="curtain-L-prim-dark-light" d="M170,698.594l5,2.8867v17.3207l-5-2.8869Z"/>
    <path id="Path-232" data-name="Path" class="curtain-L-prim-dark-light" d="M170,132.7906l10,5.7735v17.3205l-10-5.7735Z"/>
    <path id="Path-233" data-name="Path" class="curtain-L-prim-dark-light" d="M170,167.4316l10,5.7735v17.3205l-10-5.7735Z"/>
    <path id="Path-234" data-name="Path" class="curtain-R-prim-dark-light" d="M235,129.9038l-10,5.7735v17.3205l10-5.7735Z"/>
    <path id="Path-235" data-name="Path" class="curtain-R-prim-dark-light" d="M235,164.5449l-10,5.7735v17.32l10-5.7735Z"/>
    <path id="Path-236" data-name="Path" class="curtain-R-prim-dark-light" d="M235,199.1859l-10,5.7735V222.28l10-5.7735Z"/>
    <path id="Path-237" data-name="Path" class="curtain-R-prim-dark-light" d="M235,233.8269,225,239.6v17.3205l10-5.7735Z"/>
    <path id="Path-238" data-name="Path" class="curtain-R-prim-dark-light" d="M235,268.468l-10,5.7735V291.562l10-5.7735Z"/>
    <path id="Path-239" data-name="Path" class="curtain-R-prim-dark-light" d="M235,303.1089l-10,5.7735v17.32l10-5.7735Z"/>
    <path id="Path-240" data-name="Path" class="curtain-R-prim-dark-light" d="M280,334.8633l-10,5.7734v17.32l10-5.7735Z"/>
    <path id="Path-241" data-name="Path" class="curtain-R-prim-dark-light" d="M280,369.5042l-10,5.7735v17.3205l10-5.7735Z"/>
    <path id="Path-242" data-name="Path" class="curtain-R-prim-dark-light" d="M280,404.1452l-10,5.7735v17.32l10-5.7735Z"/>
    <path id="Path-243" data-name="Path" class="curtain-R-prim-dark-light" d="M280,438.7863,270,444.56v17.32l10-5.7735Z"/>
    <path id="Path-244" data-name="Path" class="curtain-R-prim-dark-light" d="M280,473.4274l-10,5.7735v17.3205l10-5.7735Z"/>
    <path id="Path-245" data-name="Path" class="curtain-R-prim-dark-light" d="M280,508.0684l-10,5.7735v17.3205l10-5.7735Z"/>
    <path id="Path-246" data-name="Path" class="curtain-R-prim-dark-light" d="M280,542.7094l-10,5.7735v17.3207l10-5.7737Z"/>
    <path id="Path-247" data-name="Path" class="curtain-R-prim-dark-light" d="M310,121.2436l-10,5.7735v17.3205l10-5.7735Z"/>
    <path id="Path-248" data-name="Path" class="curtain-R-prim-dark-light" d="M310,155.8846l-10,5.7735v17.3205l10-5.7735Z"/>
    <path id="Path-249" data-name="Path" class="curtain-R-prim-dark-light" d="M310,190.5256l-10,5.7735v17.32l10-5.7735Z"/>
    <path id="Path-250" data-name="Path" class="curtain-R-prim-dark-light" d="M310,225.1667,300,230.94v17.3205l10-5.7735Z"/>
    <path id="Path-251" data-name="Path" class="curtain-R-prim-dark-light" d="M310,259.8077l-10,5.7735v17.32l10-5.7735Z"/>
    <path id="Path-252" data-name="Path" class="curtain-R-prim-dark-light" d="M355,291.562l-10,5.7735v17.32l10-5.7735Z"/>
    <path id="Path-253" data-name="Path" class="curtain-R-prim-dark-light" d="M355,326.2029l-10,5.7735v17.32l10-5.7735Z"/>
    <path id="Path-254" data-name="Path" class="curtain-R-prim-dark-light" d="M355,360.844l-10,5.7735v17.32l10-5.7735Z"/>
    <path id="Path-255" data-name="Path" class="curtain-R-prim-dark-light" d="M355,395.485l-10,5.7735v17.32l10-5.7735Z"/>
    <path id="Path-256" data-name="Path" class="curtain-R-prim-dark-light" d="M355,430.1261,345,435.9v17.32l10-5.7735Z"/>
    <path id="Path-257" data-name="Path" class="curtain-R-prim-dark-light" d="M355,464.7671l-10,5.7735v17.3206l10-5.7736Z"/>
    <path id="Path-258" data-name="Path" class="curtain-R-prim-dark-light" d="M355,499.4082l-10,5.7735v17.3205l10-5.7735Z"/>
    <path id="Path-259" data-name="Path" class="curtain-R-prim-dark-light" d="M355,534.0492l-10,5.7735v17.32l10-5.7735Z"/>
    <path id="Path-260" data-name="Path" class="curtain-R-prim-dark-light" d="M355,568.69l-10,5.7735v17.3206l10-5.7736Z"/>
    <path id="Path-261" data-name="Path" class="curtain-L-prim-dark-light" d="M170,271.3547l10,5.7735v17.32l-10-5.7735Z"/>
    <path id="Path-262" data-name="Path" class="curtain-L-prim-dark-light" d="M170,375.2778l10,5.7735v17.32l-10-5.7735Z"/>
    <path id="Path-263" data-name="Path" class="curtain-L-prim-dark-light" d="M170,479.2009l10,5.7735v17.32l-10-5.7735Z"/>
    <path id="Path-264" data-name="Path" class="curtain-L-prim-dark-light" d="M170,513.842l10,5.7735V536.936l-10-5.7734Z"/>
    <path id="Path-265" data-name="Path" class="curtain-L-prim-dark-light" d="M170,202.0726l10,5.7735v17.32l-10-5.7735Z"/>
    <path id="Path-266" data-name="Path" class="curtain-L-prim-dark-light" d="M170,305.9957l10,5.7735v17.32l-10-5.7735Z"/>
    <path id="Path-267" data-name="Path" class="curtain-L-prim-dark-light" d="M170,409.9188l10,5.7735v17.3205l-10-5.7735Z"/>
    <path id="Path-268" data-name="Path" class="curtain-L-prim-dark-light" d="M170,548.483l10,5.7736v17.32l-10-5.7734Z"/>
    <path id="Path-269" data-name="Path" class="curtain-L-prim-dark-light" d="M170,202.0728l10,5.7735v17.32l-10-5.7735Z"/>
    <path id="Path-270" data-name="Path" class="curtain-L-prim-dark-light" d="M170,340.6367l10,5.7735v17.3205l-10-5.7735Z"/>
    <path id="Path-271" data-name="Path" class="curtain-L-prim-dark-light" d="M170,444.56l10,5.7735v17.32L170,461.88Z"/>
    <path id="Path-272" data-name="Path" class="curtain-L-prim-dark-light" d="M112.5,295.8921l10,5.7735v17.3205l-10-5.7735Z"/>
    <path id="Path-273" data-name="Path" class="curtain-L-prim-dark-light" d="M112.5,399.8152l10,5.7735v17.32l-10-5.7735Z"/>
    <path id="Path-274" data-name="Path" class="curtain-L-prim-dark-light" d="M112.5,330.5331l10,5.7735v17.32l-10-5.7735Z"/>
    <path id="Path-275" data-name="Path" class="curtain-L-prim-dark-light" d="M112.5,434.4562l10,5.7735V457.55l-10-5.7735Z"/>
    <path id="Path-276" data-name="Path" class="curtain-L-prim-dark-light" d="M112.5,261.2511l10,5.7735v17.32l-10-5.7735Z"/>
    <path id="Path-277" data-name="Path" class="curtain-L-prim-dark-light" d="M112.5,365.1741l10,5.7735v17.32l-10-5.7735Z"/>
    <path id="Path-278" data-name="Path" class="curtain-L-prim-dark-light" d="M112.5,469.0973l10,5.7735v17.3205l-10-5.7735Z"/>
    <path id="Path-279" data-name="Path" class="curtain-L-prim-dark-light" d="M112.5,503.7383l10,5.7735v17.3206l-10-5.7736Z"/>
    <path id="Path-280" data-name="Path" class="curtain-L-prim-dark-light" d="M112.5,538.3794l10,5.7734v17.3206l-10-5.7736Z"/>
    <path id="Path-281" data-name="Path" class="curtain-L-prim-dark-light" d="M120,173.2051l10,5.7735-2.5,15.8771-10-5.7735Z"/>
    <path id="Path-282" data-name="Path" class="curtain-R-prim-dark" d="M127.5,194.8557l2.5,1.4434V178.9786Z"/>
    <path id="Path-283" data-name="Path" class="curtain-L-prim-dark-light" d="M145,187.6389l10,5.7735L152.5,209.29l-10-5.7736Z"/>
    <path id="Path-284" data-name="Path" class="curtain-R-prim-dark" d="M152.5,209.29l2.5,1.4434V193.4124Z"/>
    <path id="Path-285" data-name="Path" class="curtain-L-prim-dark-light" d="M87.5,281.4583l10,5.7735L95,303.109l-10-5.7736Z"/>
    <path id="Path-286" data-name="Path" class="curtain-R-prim-dark" d="M95,303.109l2.5,1.4433v-17.32Z"/>
    <path id="Path-287" data-name="Path" class="curtain-L-prim-dark-light" d="M62.5,405.5887l10,5.7735L70,427.2393l-10-5.7735Z"/>
    <path id="Path-288" data-name="Path" class="curtain-R-prim-dark" d="M70,427.2393l2.5,1.4434V411.3622Z"/>
    <path id="Path-289" data-name="Path" class="curtain-L-prim-dark-light" d="M62.5,474.8708l10,5.7735L70,496.5214l-10-5.7735Z"/>
    <path id="Path-290" data-name="Path" class="curtain-R-prim-dark" d="M70,496.5214l2.5,1.4434V480.6443Z"/>
    <path id="Path-291" data-name="Path" class="curtain-L-prim-dark-light" d="M87.5,489.3045l10,5.7735L95,510.9552l-10-5.7736Z"/>
    <path id="Path-292" data-name="Path" class="curtain-R-prim-dark" d="M95,510.9552l2.5,1.4433V495.078Z"/>
    <path id="Path-293" data-name="Path" class="curtain-L-prim-dark-light" d="M112.5,295.8921l10,5.7735L120,317.5427l-10-5.7735Z"/>
    <path id="Path-294" data-name="Path" class="curtain-R-prim-dark" d="M120,317.5427l2.5,1.4434V301.6656Z"/>
    <path id="Path-295" data-name="Path" class="curtain-L-prim-dark-light" d="M87.5,420.0224l10,5.7735L95,441.6731,85,435.9Z"/>
    <path id="Path-296" data-name="Path" class="curtain-R-prim-dark" d="M95,441.6731l2.5,1.4433v-17.32Z"/>
    <path id="Path-297" data-name="Path" class="curtain-L-prim-dark-light" d="M170,375.2777l10,5.7735-2.5,15.8772-10-5.7736Z"/>
    <path id="Path-298" data-name="Path" class="curtain-R-prim-dark" d="M177.5,396.9284l2.5,1.4433v-17.32Z"/>
    <path id="Path-299" data-name="Path" class="curtain-L-prim-dark-light" d="M170,236.7136l10,5.7735-2.5,15.8772-10-5.7736Z"/>
    <path id="Path-300" data-name="Path" class="curtain-R-prim-dark" d="M177.5,258.3643l2.5,1.4433v-17.32Z"/>
    <path id="Path-301" data-name="Path" class="curtain-R-prim-dark-light" d="M310,86.6025,300,92.376l2.5,15.8772,10-5.7736Z"/>
    <path id="Path-302" data-name="Path" class="curtain-L-prim-dark" d="M302.5,108.2532l-2.5,1.4433V92.376Z"/>
    <path id="Path-303" data-name="Path" class="curtain-R-prim-dark-light" d="M260,150.1111l-10,5.7735,2.5,15.8771,10-5.7735Z"/>
    <path id="Path-304" data-name="Path" class="curtain-L-prim-dark" d="M252.5,171.7617l-2.5,1.4434v-17.32Z"/>
    <path id="Path-305" data-name="Path" class="curtain-R-prim-dark-light" d="M260,254.0342l-10,5.7735,2.5,15.8771,10-5.7735Z"/>
    <path id="Path-306" data-name="Path" class="curtain-L-prim-dark" d="M252.5,275.6848l-2.5,1.4434v-17.32Z"/>
    <path id="Path-307" data-name="Path" class="curtain-R-prim-dark-light" d="M285,239.6l-10,5.7735,2.5,15.8772,10-5.7736Z"/>
    <path id="Path-308" data-name="Path" class="curtain-L-prim-dark" d="M277.5,261.2511l-2.5,1.4433v-17.32Z"/>
    <path id="Path-309" data-name="Path" class="curtain-R-prim-dark-light" d="M380,346.41l-10,5.7735,2.5,15.8772,10-5.7736Z"/>
    <path id="Path-310" data-name="Path" class="curtain-L-prim-dark" d="M372.5,368.0609l-2.5,1.4433V352.1837Z"/>
    <path id="Path-311" data-name="Path" class="curtain-R-prim-dark-light" d="M280,508.0684l-10,5.7735,2.5,15.8772,10-5.7736Z"/>
    <path id="Path-312" data-name="Path" class="curtain-L-prim-dark" d="M272.5,529.7191l-2.5,1.4433V513.8419Z"/>
    <path id="Path-313" data-name="Path" class="curtain-R-prim-dark-light" d="M305,493.6347l-10,5.7735,2.5,15.8771,10-5.7735Z"/>
    <path id="Path-314" data-name="Path" class="curtain-L-prim-dark" d="M297.5,515.2853l-2.5,1.4434v-17.32Z"/>
    <path id="Path-315" data-name="Path" class="curtain-R-prim-dark-light" d="M380,555.7l-10,5.7736,2.5,15.8772,10-5.7737Z"/>
    <path id="Path-316" data-name="Path" class="curtain-L-prim-dark" d="M372.5,577.3506l-2.5,1.4432v-17.32Z"/>
    <path id="anchor_100_150.111_260" class="top-light" d="M100,92.3761,260,0,360,57.7351l-160,92.376Z"/>
    <g>
      <path class="cls-1" d="M349.0209,98.7755l-105.6251,60.983V323.9421l105.6251-60.9814Z"/>
      <path class="cls-2" d="M336.3686,253.9436l-80.3205,46.3726V168.774l80.3205-46.371Z"/>
      <path class="cls-3" d="M258.7651,296.0327l74.8865-43.2364v-126.11l-74.8865,43.2364Z"/>
      <path class="cls-2" d="M329.0626,132.4016,317.985,138.796c-3.3314,1.9239-6.0337,6.1847-6.0337,9.5176V256.3908c0,3.3312,2.7023,4.4736,6.0337,2.55l11.0776-6.3944a2.78,2.78,0,0,0,1.3406-2.1158V229.6986l-1.6413.9474-5.0374,22.8068-2.0686,1.1944V138.8512l2.0686-1.1927,5.0374,16.9877,1.6413-.9474V132.9671C330.4032,132.2278,329.8035,131.9742,329.0626,132.4016Z"/>
      <path class="cls-2" d="M303.3112,147.2687v.8141l2.9316,3.5766-5.0343,68.4793-5.0734-63.6107,3.7245-6.4513v-.8157L279.51,161.01v.8158l3.3232,3.4564V271.4887L276.0648,164.887c-.065-1.0238-.9442-1.3423-2.0068-.73l-12.5694,7.2572v.8141l3.5245,3.31v107.83l-3.5245,7.3792v.8158l.1835-.1057,9.3991-5.4258.1837-.1056v-.8158l-3.5248-3.31V174.2828l6.8462,107.8318c.0651,1.0237.9442,1.3439,2.0068.73l6.9551-4.0153a4.1722,4.1722,0,0,0,2.0118-3.1721V163.7089l.5947-1.2464.71.7378,7.007,77.844v25.5126l-3.6271,7.5951v.8158l16.255-9.3843v-.8158l-3.6791-3.4564v-27.58l6.1328-83.4243,3.9487-7.7562v-.8141Z"/>
    </g>
  </g>
</svg>
