<svg id="Layer_1" data-name="Layer 1" xmlns="http://www.w3.org/2000/svg" viewBox="0 0 320 534.049">
  <defs>
    <style>
      .top-light {
        fill: #ffc8c6;
      }

      .top-prim {
        fill: #dd8a87;
      }

      .exterior-L-prim {
        fill: #73302e;
      }

      .curtain-R-prim-light {
        fill: #59acd0;
      }

      .curtain-L-prim-light {
        fill: #438fb0;
      }

      .exterior-R-prim {
        fill: #d05752;
      }

      .curtain-R-prim-dark {
        fill: #3e809c;
      }

      .curtain-L-prim-dark {
        fill: #2f5565;
      }

      .curtain-R-prim-light-dark {
        fill: #3999c1;
      }

      .curtain-L-prim-light-dark {
        fill: #467e97;
      }

      .cls-1 {
        fill: #c6c6c6;
      }

      .cls-2 {
        fill: #e8e8e8;
      }

      .cls-3 {
        fill: #a2a2a2;
      }

      .cls-4 {
        fill: #acacac;
      }

      .cls-5 {
        fill: #d1d1d1;
      }

      .cls-6 {
        fill: #4a4a4a;
      }

      .cls-7 {
        fill: #8e8e8e;
      }

      .cls-8 {
        fill: #b5b5b5;
      }

      .cls-9 {
        fill: #f7f7f7;
      }

      .cls-10 {
        fill: #3f9cd2;
      }

      .cls-11 {
        fill: #fff;
      }

      .cls-12 {
        fill: #0e0e0f;
      }
    </style>
  </defs>
  <title>1Artboard 26</title>
  <g>
    <g id="Group">
      <path id="Path" class="top-light" d="M0,389.711l160-92.376,160,92.376L160,482.087Z"/>
      <path id="Path-2" data-name="Path" class="top-light" d="M290,222.28v-5.774L130,124.13,0,199.186v5.773l160,92.376Z"/>
      <path id="Path-3" data-name="Path" class="top-prim" d="M287.5,402.702,310,389.711l-22.5-12.99Z"/>
      <path id="Path-4" data-name="Path" class="exterior-L-prim" d="M305,392.598l-20-11.547v-5.773l25,14.433Z"/>
      <path id="anchor_80_121.243_210" class="top-light" d="M290,72.169V60.622L185,0,80,60.622V72.169L185,132.79Z"/>
      <path id="Path-5" data-name="Path" class="top-prim" d="M180,274.241l-20,11.547L10,199.186l70-40.415,150,86.603Z"/>
      <path id="Path-6" data-name="Path" class="curtain-R-prim-light" d="M185,277.128l-5-2.887-5,2.887V115.47l10,5.773L290,60.622V222.28L185,282.902Z"/>
      <path id="Path-7" data-name="Path" class="curtain-L-prim-light" d="M80,60.622l105,60.621V277.128L80,216.506Z"/>
      <path id="Path-8" data-name="Path" class="curtain-L-prim-light" d="M0,441.673l160,92.376,5-2.887c.167-1.822.639-48.561,0-51.961l-5,2.886L0,389.711Z"/>
      <path id="Path-9" data-name="Path" class="curtain-L-prim-light" d="M0,395.485l160,92.376,5-2.887V288.675l-4.255,3.317L0,199.186Z"/>
      <path id="Path-10" data-name="Path" class="curtain-R-prim-light" d="M160,534.049l160-92.376V389.711L160,482.087Z"/>
      <path id="Path-11" data-name="Path" class="curtain-R-prim-light" d="M160,493.634l130-75.055V216.506L164.304,289.077,160,291.562Z"/>
      <path id="Path-12" data-name="Path" class="exterior-R-prim" d="M80,164.545,15,202.072l-5-2.886,70-40.415Z"/>
      <path id="Path-13" data-name="Path" class="curtain-R-prim-dark" d="M185,138.564,290,77.942V60.622L185,121.243Z"/>
      <path id="Path-14" data-name="Path" class="curtain-L-prim-dark" d="M185,138.564,80,77.942V60.622l105,60.621Z"/>
      <path id="Path-15" data-name="Path" class="curtain-R-prim-dark" d="M185,207.846l105-60.622v-17.32L185,190.525Z"/>
      <path id="Path-16" data-name="Path" class="curtain-L-prim-dark" d="M185,207.846,80,147.224v-17.32l105,60.621Z"/>
      <path id="Path-17" data-name="Path" class="curtain-R-prim-dark" d="M185,173.205l105-60.622V95.263L185,155.884Z"/>
      <path id="Path-18" data-name="Path" class="curtain-L-prim-dark" d="M185,173.205,80,112.583V95.263l105,60.621Z"/>
      <path id="Path-19" data-name="Path" class="curtain-R-prim-dark" d="M185,242.487l105-60.622v-17.32L185,225.166Z"/>
      <path id="Path-20" data-name="Path" class="curtain-L-prim-dark" d="M185,242.487,80,181.865v-17.32l105,60.621Z"/>
      <path id="Path-21" data-name="Path" class="curtain-R-prim-dark" d="M185,277.128l105-60.622v-17.32L185,259.807Z"/>
      <path id="Path-22" data-name="Path" class="curtain-L-prim-dark" d="M185,277.128,80,216.506v-17.32l105,60.621Z"/>
      <path id="Path-23" data-name="Path" class="curtain-R-prim-dark" d="M160,326.203l130-75.056v-17.32L160,308.882Z"/>
      <path id="Path-24" data-name="Path" class="curtain-L-prim-dark" d="M160,326.203,0,233.827V216.506l160,92.376Z"/>
      <path id="Path-25" data-name="Path" class="curtain-R-prim-dark" d="M160,395.485l130-75.056v-17.32L160,378.164Z"/>
      <path id="Path-26" data-name="Path" class="curtain-L-prim-dark" d="M160,395.485,0,303.109V285.788l160,92.376Z"/>
      <path id="Path-27" data-name="Path" class="curtain-R-prim-dark" d="M160,464.767l130-75.056v-17.32L160,447.446Z"/>
      <path id="Path-28" data-name="Path" class="curtain-L-prim-dark" d="M160,464.767,0,372.391V355.07l160,92.376Z"/>
      <path id="Path-29" data-name="Path" class="curtain-R-prim-dark" d="M160,360.844l130-75.056v-17.32L160,343.523Z"/>
      <path id="Path-30" data-name="Path" class="curtain-L-prim-dark" d="M160,360.844,0,268.468V251.147l160,92.376Z"/>
      <path id="Path-31" data-name="Path" class="curtain-R-prim-dark" d="M160,430.126,290,355.07V337.75L160,412.805Z"/>
      <path id="Path-32" data-name="Path" class="curtain-L-prim-dark" d="M160,430.126,0,337.75V320.429l160,92.376Z"/>
      <path id="Path-33" data-name="Path" class="curtain-R-prim-dark" d="M160,499.408l160-92.376V389.711L160,482.087Z"/>
      <path id="Path-34" data-name="Path" class="curtain-R-prim-dark" d="M160,534.049l160-92.376V424.352L160,516.728Z"/>
      <path id="Path-35" data-name="Path" class="curtain-L-prim-dark" d="M160,499.408,0,407.032V389.711l160,92.376Z"/>
      <path id="Path-36" data-name="Path" class="curtain-L-prim-dark" d="M160,534.049,0,441.673V424.352l160,92.376Z"/>
      <path id="Path-37" data-name="Path" class="curtain-R-prim-light-dark" d="M185,155.884l7.5-4.33v-17.32l-7.5,4.33Z"/>
      <path id="Path-38" data-name="Path" class="curtain-R-prim-light-dark" d="M245,121.243l7.5-4.33V99.593l-7.5,4.33Z"/>
      <path id="Path-39" data-name="Path" class="curtain-R-prim-light-dark" d="M215,138.564l7.5-4.33V116.913l-7.5,4.33Z"/>
      <path id="Path-40" data-name="Path" class="curtain-R-prim-light-dark" d="M275,103.923l7.5-4.33V82.272l-7.5,4.33Z"/>
      <path id="Path-41" data-name="Path" class="curtain-R-prim-light-dark" d="M200,147.224l7.5-4.33v-17.32l-7.5,4.33Z"/>
      <path id="Path-42" data-name="Path" class="curtain-R-prim-light-dark" d="M260,112.583l7.5-4.33V90.933l-7.5,4.33Z"/>
      <path id="Path-43" data-name="Path" class="curtain-R-prim-light-dark" d="M230,129.904l7.5-4.33V108.253l-7.5,4.33Z"/>
      <path id="Path-44" data-name="Path" class="curtain-R-prim-light-dark" d="M185,225.166l7.5-4.33v-17.32l-7.5,4.33Z"/>
      <path id="Path-45" data-name="Path" class="curtain-R-prim-light-dark" d="M245,190.525l7.5-4.33v-17.32l-7.5,4.33Z"/>
      <path id="Path-46" data-name="Path" class="curtain-R-prim-light-dark" d="M215,207.846l7.5-4.33V186.195l-7.5,4.33Z"/>
      <path id="Path-47" data-name="Path" class="curtain-R-prim-light-dark" d="M275,173.205l7.5-4.33V151.554l-7.5,4.33Z"/>
      <path id="Path-48" data-name="Path" class="curtain-R-prim-light-dark" d="M200,216.506l7.5-4.33v-17.32l-7.5,4.33Z"/>
      <path id="Path-49" data-name="Path" class="curtain-R-prim-light-dark" d="M260,181.865l7.5-4.33v-17.32l-7.5,4.33Z"/>
      <path id="Path-50" data-name="Path" class="curtain-R-prim-light-dark" d="M230,199.186l7.5-4.33V177.535l-7.5,4.33Z"/>
      <path id="Path-51" data-name="Path" class="curtain-R-prim-light-dark" d="M185,190.525l7.5-4.33v-17.32l-7.5,4.33Z"/>
      <path id="Path-52" data-name="Path" class="curtain-R-prim-light-dark" d="M245,155.884l7.5-4.33v-17.32l-7.5,4.33Z"/>
      <path id="Path-53" data-name="Path" class="curtain-R-prim-light-dark" d="M215,173.205l7.5-4.33V151.554l-7.5,4.33Z"/>
      <path id="Path-54" data-name="Path" class="curtain-R-prim-light-dark" d="M275,138.564l7.5-4.33V116.913l-7.5,4.33Z"/>
      <path id="Path-55" data-name="Path" class="curtain-R-prim-light-dark" d="M200,181.865l7.5-4.33v-17.32l-7.5,4.33Z"/>
      <path id="Path-56" data-name="Path" class="curtain-R-prim-light-dark" d="M260,147.224l7.5-4.33v-17.32l-7.5,4.33Z"/>
      <path id="Path-57" data-name="Path" class="curtain-R-prim-light-dark" d="M230,164.545l7.5-4.33V142.894l-7.5,4.33Z"/>
      <path id="Path-58" data-name="Path" class="curtain-R-prim-light-dark" d="M185,259.807l7.5-4.33v-17.32l-7.5,4.33Z"/>
      <path id="Path-59" data-name="Path" class="curtain-R-prim-light-dark" d="M245,225.166l7.5-4.33v-17.32l-7.5,4.33Z"/>
      <path id="Path-60" data-name="Path" class="curtain-R-prim-light-dark" d="M215,242.487l7.5-4.33V220.836l-7.5,4.33Z"/>
      <path id="Path-61" data-name="Path" class="curtain-R-prim-light-dark" d="M275,207.846l7.5-4.33V186.195l-7.5,4.33Z"/>
      <path id="Path-62" data-name="Path" class="curtain-R-prim-light-dark" d="M200,251.147l7.5-4.33v-17.32l-7.5,4.33Z"/>
      <path id="Path-63" data-name="Path" class="curtain-R-prim-light-dark" d="M260,216.506l7.5-4.33v-17.32l-7.5,4.33Z"/>
      <path id="Path-64" data-name="Path" class="curtain-R-prim-light-dark" d="M230,233.827l7.5-4.33V212.176l-7.5,4.33Z"/>
      <path id="Path-65" data-name="Path" class="curtain-L-prim-light-dark" d="M185,155.884l-7.5-4.33v-17.32l7.5,4.33Z"/>
      <path id="Path-66" data-name="Path" class="curtain-L-prim-light-dark" d="M125,121.243l-7.5-4.33V99.593l7.5,4.33Z"/>
      <path id="Path-67" data-name="Path" class="curtain-L-prim-light-dark" d="M155,138.564l-7.5-4.33V116.913l7.5,4.33Z"/>
      <path id="Path-68" data-name="Path" class="curtain-L-prim-light-dark" d="M95,103.923l-7.5-4.33V82.272l7.5,4.33Z"/>
      <path id="Path-69" data-name="Path" class="curtain-L-prim-light-dark" d="M170,147.224l-7.5-4.33v-17.32l7.5,4.33Z"/>
      <path id="Path-70" data-name="Path" class="curtain-L-prim-light-dark" d="M110,112.583l-7.5-4.33V90.933l7.5,4.33Z"/>
      <path id="Path-71" data-name="Path" class="curtain-L-prim-light-dark" d="M140,129.904l-7.5-4.33V108.253l7.5,4.33Z"/>
      <path id="Path-72" data-name="Path" class="curtain-L-prim-light-dark" d="M185,225.166l-7.5-4.33v-17.32l7.5,4.33Z"/>
      <path id="Path-73" data-name="Path" class="curtain-L-prim-light-dark" d="M125,190.525l-7.5-4.33v-17.32l7.5,4.33Z"/>
      <path id="Path-74" data-name="Path" class="curtain-L-prim-light-dark" d="M155,207.846l-7.5-4.33V186.195l7.5,4.33Z"/>
      <path id="Path-75" data-name="Path" class="curtain-L-prim-light-dark" d="M95,173.205l-7.5-4.33V151.554l7.5,4.33Z"/>
      <path id="Path-76" data-name="Path" class="curtain-L-prim-light-dark" d="M170,216.506l-7.5-4.33v-17.32l7.5,4.33Z"/>
      <path id="Path-77" data-name="Path" class="curtain-L-prim-light-dark" d="M110,181.865l-7.5-4.33v-17.32l7.5,4.33Z"/>
      <path id="Path-78" data-name="Path" class="curtain-L-prim-light-dark" d="M140,199.186l-7.5-4.33V177.535l7.5,4.33Z"/>
      <path id="Path-79" data-name="Path" class="curtain-L-prim-light-dark" d="M185,190.525l-7.5-4.33v-17.32l7.5,4.33Z"/>
      <path id="Path-80" data-name="Path" class="curtain-L-prim-light-dark" d="M125,155.884l-7.5-4.33v-17.32l7.5,4.33Z"/>
      <path id="Path-81" data-name="Path" class="curtain-L-prim-light-dark" d="M155,173.205l-7.5-4.33V151.554l7.5,4.33Z"/>
      <path id="Path-82" data-name="Path" class="curtain-L-prim-light-dark" d="M95,138.564l-7.5-4.33V116.913l7.5,4.33Z"/>
      <path id="Path-83" data-name="Path" class="curtain-L-prim-light-dark" d="M170,181.865l-7.5-4.33v-17.32l7.5,4.33Z"/>
      <path id="Path-84" data-name="Path" class="curtain-L-prim-light-dark" d="M110,147.224l-7.5-4.33v-17.32l7.5,4.33Z"/>
      <path id="Path-85" data-name="Path" class="curtain-L-prim-light-dark" d="M140,164.545l-7.5-4.33V142.894l7.5,4.33Z"/>
      <path id="Path-86" data-name="Path" class="curtain-L-prim-light-dark" d="M185,259.807l-7.5-4.33v-17.32l7.5,4.33Z"/>
      <path id="Path-87" data-name="Path" class="curtain-L-prim-light-dark" d="M125,225.166l-7.5-4.33v-17.32l7.5,4.33Z"/>
      <path id="Path-88" data-name="Path" class="curtain-L-prim-light-dark" d="M155,242.487l-7.5-4.33V220.836l7.5,4.33Z"/>
      <path id="Path-89" data-name="Path" class="curtain-L-prim-light-dark" d="M95,207.846l-7.5-4.33V186.195l7.5,4.33Z"/>
      <path id="Path-90" data-name="Path" class="curtain-L-prim-light-dark" d="M170,251.147l-7.5-4.33v-17.32l7.5,4.33Z"/>
      <path id="Path-91" data-name="Path" class="curtain-L-prim-light-dark" d="M110,216.506l-7.5-4.33v-17.32l7.5,4.33Z"/>
      <path id="Path-92" data-name="Path" class="curtain-L-prim-light-dark" d="M140,233.827l-7.5-4.33V212.176l7.5,4.33Z"/>
      <path id="Path-93" data-name="Path" class="curtain-R-prim-light-dark" d="M185,294.448l7.5-4.33v-17.32l-7.5,4.33Z"/>
      <path id="Path-94" data-name="Path" class="curtain-R-prim-light-dark" d="M245,259.807l7.5-4.33v-17.32l-7.5,4.33Z"/>
      <path id="Path-95" data-name="Path" class="curtain-R-prim-light-dark" d="M215,277.128l7.5-4.33V255.477l-7.5,4.33Z"/>
      <path id="Path-96" data-name="Path" class="curtain-R-prim-light-dark" d="M275,242.487l7.5-4.33V220.836l-7.5,4.33Z"/>
      <path id="Path-97" data-name="Path" class="curtain-R-prim-light-dark" d="M200,285.788l7.5-4.33v-17.32l-7.5,4.33Z"/>
      <path id="Path-98" data-name="Path" class="curtain-R-prim-light-dark" d="M170,303.109l7.5-4.33V281.458l-7.5,4.33Z"/>
      <path id="Path-99" data-name="Path" class="curtain-R-prim-light-dark" d="M260,251.147l7.5-4.33v-17.32l-7.5,4.33Z"/>
      <path id="Path-100" data-name="Path" class="curtain-R-prim-light-dark" d="M230,268.468l7.5-4.33V246.817l-7.5,4.33Z"/>
      <path id="Path-101" data-name="Path" class="curtain-L-prim-light-dark" d="M135,294.448l-7.5-4.33v-17.32l7.5,4.33Z"/>
      <path id="Path-102" data-name="Path" class="curtain-L-prim-light-dark" d="M75,259.807l-7.5-4.33v-17.32l7.5,4.33Z"/>
      <path id="Path-103" data-name="Path" class="curtain-L-prim-light-dark" d="M30,233.827l-7.5-4.33V212.176l7.5,4.33Z"/>
      <path id="Path-104" data-name="Path" class="curtain-L-prim-light-dark" d="M105,277.128l-7.5-4.33V255.477l7.5,4.33Z"/>
      <path id="Path-105" data-name="Path" class="curtain-L-prim-light-dark" d="M45,242.487l-7.5-4.33V220.836l7.5,4.33Z"/>
      <path id="Path-106" data-name="Path" class="curtain-L-prim-light-dark" d="M120,285.788l-7.5-4.33v-17.32l7.5,4.33Z"/>
      <path id="Path-107" data-name="Path" class="curtain-L-prim-light-dark" d="M150,303.109l-7.5-4.33V281.458l7.5,4.33Z"/>
      <path id="Path-108" data-name="Path" class="curtain-L-prim-light-dark" d="M60,251.147l-7.5-4.33v-17.32l7.5,4.33Z"/>
      <path id="Path-109" data-name="Path" class="curtain-L-prim-light-dark" d="M15,225.166l-7.5-4.33v-17.32l7.5,4.33Z"/>
      <path id="Path-110" data-name="Path" class="curtain-L-prim-light-dark" d="M90,268.468l-7.5-4.33V246.817l7.5,4.33Z"/>
      <path id="Path-111" data-name="Path" class="curtain-L-prim-light-dark" d="M135,363.731l-7.5-4.331V342.08l7.5,4.33Z"/>
      <path id="Path-112" data-name="Path" class="curtain-L-prim-light-dark" d="M75,329.09l-7.5-4.331v-17.32l7.5,4.33Z"/>
      <path id="Path-113" data-name="Path" class="curtain-L-prim-light-dark" d="M30,303.109l-7.5-4.33V281.458l7.5,4.33Z"/>
      <path id="Path-114" data-name="Path" class="curtain-L-prim-light-dark" d="M105,346.41l-7.5-4.33V324.759l7.5,4.33Z"/>
      <path id="Path-115" data-name="Path" class="curtain-L-prim-light-dark" d="M45,311.769l-7.5-4.33V290.118l7.5,4.33Z"/>
      <path id="Path-116" data-name="Path" class="curtain-L-prim-light-dark" d="M120,355.07l-7.5-4.33V333.42l7.5,4.33Z"/>
      <path id="Path-117" data-name="Path" class="curtain-L-prim-light-dark" d="M150,372.391l-7.5-4.33V350.74l7.5,4.33Z"/>
      <path id="Path-118" data-name="Path" class="curtain-L-prim-light-dark" d="M60,320.429l-7.5-4.33v-17.32l7.5,4.33Z"/>
      <path id="Path-119" data-name="Path" class="curtain-L-prim-light-dark" d="M15,294.448l-7.5-4.33v-17.32l7.5,4.33Z"/>
      <path id="Path-120" data-name="Path" class="curtain-L-prim-light-dark" d="M90,337.75l-7.5-4.33V316.099l7.5,4.33Z"/>
      <path id="Path-121" data-name="Path" class="curtain-L-prim-light-dark" d="M135,433.013l-7.5-4.331v-17.32l7.5,4.33Z"/>
      <path id="Path-122" data-name="Path" class="curtain-L-prim-light-dark" d="M75,398.372l-7.5-4.331v-17.32l7.5,4.33Z"/>
      <path id="Path-123" data-name="Path" class="curtain-L-prim-light-dark" d="M30,372.391l-7.5-4.33V350.74l7.5,4.33Z"/>
      <path id="Path-124" data-name="Path" class="curtain-L-prim-light-dark" d="M105,415.692l-7.5-4.33V394.041l7.5,4.331Z"/>
      <path id="Path-125" data-name="Path" class="curtain-L-prim-light-dark" d="M45,381.051l-7.5-4.33V359.4l7.5,4.331Z"/>
      <path id="Path-126" data-name="Path" class="curtain-L-prim-light-dark" d="M120,424.352l-7.5-4.33v-17.32l7.5,4.33Z"/>
      <path id="Path-127" data-name="Path" class="curtain-L-prim-light-dark" d="M150,441.673l-7.5-4.33V420.022l7.5,4.33Z"/>
      <path id="Path-128" data-name="Path" class="curtain-L-prim-light-dark" d="M60,389.711l-7.5-4.33v-17.32l7.5,4.33Z"/>
      <path id="Path-129" data-name="Path" class="curtain-L-prim-light-dark" d="M15,363.731,7.5,359.4V342.08l7.5,4.33Z"/>
      <path id="Path-130" data-name="Path" class="curtain-L-prim-light-dark" d="M90,407.032l-7.5-4.33V385.381l7.5,4.33Z"/>
      <path id="Path-131" data-name="Path" class="curtain-L-prim-light-dark" d="M135,502.295l-7.5-4.331v-17.32l7.5,4.33Z"/>
      <path id="Path-132" data-name="Path" class="curtain-L-prim-light-dark" d="M75,467.654l-7.5-4.331v-17.32l7.5,4.33Z"/>
      <path id="Path-133" data-name="Path" class="curtain-L-prim-light-dark" d="M30,441.673l-7.5-4.33V420.022l7.5,4.33Z"/>
      <path id="Path-134" data-name="Path" class="curtain-L-prim-light-dark" d="M105,484.974l-7.5-4.33V463.323l7.5,4.331Z"/>
      <path id="Path-135" data-name="Path" class="curtain-L-prim-light-dark" d="M45,450.333l-7.5-4.33V428.682l7.5,4.331Z"/>
      <path id="Path-136" data-name="Path" class="curtain-L-prim-light-dark" d="M120,493.634l-7.5-4.33v-17.32l7.5,4.33Z"/>
      <path id="Path-137" data-name="Path" class="curtain-L-prim-light-dark" d="M150,510.955l-7.5-4.33V489.304l7.5,4.33Z"/>
      <path id="Path-138" data-name="Path" class="curtain-L-prim-light-dark" d="M60,458.993l-7.5-4.33v-17.32l7.5,4.33Z"/>
      <path id="Path-139" data-name="Path" class="curtain-L-prim-light-dark" d="M15,433.013l-7.5-4.331v-17.32l7.5,4.33Z"/>
      <path id="Path-140" data-name="Path" class="curtain-L-prim-light-dark" d="M90,476.314l-7.5-4.33V454.663l7.5,4.33Z"/>
      <path id="Path-141" data-name="Path" class="curtain-L-prim-light-dark" d="M135,329.09l-7.5-4.331v-17.32l7.5,4.33Z"/>
      <path id="Path-142" data-name="Path" class="curtain-L-prim-light-dark" d="M75,294.448l-7.5-4.33v-17.32l7.5,4.33Z"/>
      <path id="Path-143" data-name="Path" class="curtain-L-prim-light-dark" d="M30,268.468l-7.5-4.33V246.817l7.5,4.33Z"/>
      <path id="Path-144" data-name="Path" class="curtain-L-prim-light-dark" d="M105,311.769l-7.5-4.33V290.118l7.5,4.33Z"/>
      <path id="Path-145" data-name="Path" class="curtain-L-prim-light-dark" d="M45,277.128l-7.5-4.33V255.477l7.5,4.33Z"/>
      <path id="Path-146" data-name="Path" class="curtain-L-prim-light-dark" d="M120,320.429l-7.5-4.33v-17.32l7.5,4.33Z"/>
      <path id="Path-147" data-name="Path" class="curtain-L-prim-light-dark" d="M150,337.75l-7.5-4.33V316.099l7.5,4.33Z"/>
      <path id="Path-148" data-name="Path" class="curtain-L-prim-light-dark" d="M60,285.788l-7.5-4.33v-17.32l7.5,4.33Z"/>
      <path id="Path-149" data-name="Path" class="curtain-L-prim-light-dark" d="M15,259.807l-7.5-4.33v-17.32l7.5,4.33Z"/>
      <path id="Path-150" data-name="Path" class="curtain-L-prim-light-dark" d="M90,303.109l-7.5-4.33V281.458l7.5,4.33Z"/>
      <path id="Path-151" data-name="Path" class="curtain-L-prim-light-dark" d="M135,398.372l-7.5-4.331v-17.32l7.5,4.33Z"/>
      <path id="Path-152" data-name="Path" class="curtain-L-prim-light-dark" d="M75,363.731,67.5,359.4V342.08l7.5,4.33Z"/>
      <path id="Path-153" data-name="Path" class="curtain-L-prim-light-dark" d="M30,337.75l-7.5-4.33V316.099l7.5,4.33Z"/>
      <path id="Path-154" data-name="Path" class="curtain-L-prim-light-dark" d="M105,381.051l-7.5-4.33V359.4l7.5,4.33Z"/>
      <path id="Path-155" data-name="Path" class="curtain-L-prim-light-dark" d="M45,346.41l-7.5-4.33V324.759l7.5,4.33Z"/>
      <path id="Path-156" data-name="Path" class="curtain-L-prim-light-dark" d="M120,389.711l-7.5-4.33v-17.32l7.5,4.33Z"/>
      <path id="Path-157" data-name="Path" class="curtain-L-prim-light-dark" d="M150,407.032l-7.5-4.33V385.381l7.5,4.33Z"/>
      <path id="Path-158" data-name="Path" class="curtain-L-prim-light-dark" d="M60,355.07l-7.5-4.33V333.42l7.5,4.33Z"/>
      <path id="Path-159" data-name="Path" class="curtain-L-prim-light-dark" d="M15,329.09l-7.5-4.331v-17.32l7.5,4.33Z"/>
      <path id="Path-160" data-name="Path" class="curtain-L-prim-light-dark" d="M90,372.391l-7.5-4.33V350.74l7.5,4.33Z"/>
      <path id="Path-161" data-name="Path" class="curtain-L-prim-light-dark" d="M135,467.654l-7.5-4.331v-17.32l7.5,4.33Z"/>
      <path id="Path-162" data-name="Path" class="curtain-L-prim-light-dark" d="M75,433.013l-7.5-4.331v-17.32l7.5,4.33Z"/>
      <path id="Path-163" data-name="Path" class="curtain-L-prim-light-dark" d="M30,407.032l-7.5-4.33V385.381l7.5,4.33Z"/>
      <path id="Path-164" data-name="Path" class="curtain-L-prim-light-dark" d="M105,450.333l-7.5-4.33V428.682l7.5,4.331Z"/>
      <path id="Path-165" data-name="Path" class="curtain-L-prim-light-dark" d="M45,415.692l-7.5-4.33V394.041l7.5,4.331Z"/>
      <path id="Path-166" data-name="Path" class="curtain-L-prim-light-dark" d="M120,458.993l-7.5-4.33v-17.32l7.5,4.33Z"/>
      <path id="Path-167" data-name="Path" class="curtain-L-prim-light-dark" d="M150,476.314l-7.5-4.33V454.663l7.5,4.33Z"/>
      <path id="Path-168" data-name="Path" class="curtain-L-prim-light-dark" d="M60,424.352l-7.5-4.33v-17.32l7.5,4.33Z"/>
      <path id="Path-169" data-name="Path" class="curtain-L-prim-light-dark" d="M15,398.372l-7.5-4.331v-17.32l7.5,4.33Z"/>
      <path id="Path-170" data-name="Path" class="curtain-L-prim-light-dark" d="M90,441.673l-7.5-4.33V420.022l7.5,4.33Z"/>
      <path id="Path-171" data-name="Path" class="curtain-R-prim-light-dark" d="M185,363.731l7.5-4.331V342.08l-7.5,4.33Z"/>
      <path id="Path-172" data-name="Path" class="curtain-R-prim-light-dark" d="M245,329.09l7.5-4.331v-17.32l-7.5,4.33Z"/>
      <path id="Path-173" data-name="Path" class="curtain-R-prim-light-dark" d="M215,346.41l7.5-4.33V324.759L215,329.09Z"/>
      <path id="Path-174" data-name="Path" class="curtain-R-prim-light-dark" d="M275,311.769l7.5-4.33V290.118l-7.5,4.33Z"/>
      <path id="Path-175" data-name="Path" class="curtain-R-prim-light-dark" d="M200,355.07l7.5-4.33V333.42l-7.5,4.33Z"/>
      <path id="Path-176" data-name="Path" class="curtain-R-prim-light-dark" d="M170,372.391l7.5-4.33V350.74l-7.5,4.33Z"/>
      <path id="Path-177" data-name="Path" class="curtain-R-prim-light-dark" d="M260,320.429l7.5-4.33v-17.32l-7.5,4.33Z"/>
      <path id="Path-178" data-name="Path" class="curtain-R-prim-light-dark" d="M230,337.75l7.5-4.33V316.099l-7.5,4.33Z"/>
      <path id="Path-179" data-name="Path" class="curtain-R-prim-light-dark" d="M185,433.013l7.5-4.331v-17.32l-7.5,4.33Z"/>
      <path id="Path-180" data-name="Path" class="curtain-R-prim-light-dark" d="M245,398.372l7.5-4.331v-17.32l-7.5,4.33Z"/>
      <path id="Path-181" data-name="Path" class="curtain-R-prim-light-dark" d="M215,415.692l7.5-4.33V394.041l-7.5,4.331Z"/>
      <path id="Path-182" data-name="Path" class="curtain-R-prim-light-dark" d="M275,381.051l7.5-4.33V359.4l-7.5,4.331Z"/>
      <path id="Path-183" data-name="Path" class="curtain-R-prim-light-dark" d="M200,424.352l7.5-4.33v-17.32l-7.5,4.33Z"/>
      <path id="Path-184" data-name="Path" class="curtain-R-prim-light-dark" d="M170,441.673l7.5-4.33V420.022l-7.5,4.33Z"/>
      <path id="Path-185" data-name="Path" class="curtain-R-prim-light-dark" d="M260,389.711l7.5-4.33v-17.32l-7.5,4.33Z"/>
      <path id="Path-186" data-name="Path" class="curtain-R-prim-light-dark" d="M230,407.032l7.5-4.33V385.381l-7.5,4.33Z"/>
      <path id="Path-187" data-name="Path" class="curtain-R-prim-light-dark" d="M185,329.089l7.5-4.33v-17.32l-7.5,4.33Z"/>
      <path id="Path-188" data-name="Path" class="curtain-R-prim-light-dark" d="M245,294.448l7.5-4.33v-17.32l-7.5,4.33Z"/>
      <path id="Path-189" data-name="Path" class="curtain-R-prim-light-dark" d="M215,311.769l7.5-4.33V290.118l-7.5,4.33Z"/>
      <path id="Path-190" data-name="Path" class="curtain-R-prim-light-dark" d="M275,277.128l7.5-4.33V255.477l-7.5,4.33Z"/>
      <path id="Path-191" data-name="Path" class="curtain-R-prim-light-dark" d="M200,320.429l7.5-4.33v-17.32l-7.5,4.33Z"/>
      <path id="Path-192" data-name="Path" class="curtain-R-prim-light-dark" d="M170,337.75l7.5-4.33V316.099l-7.5,4.33Z"/>
      <path id="Path-193" data-name="Path" class="curtain-R-prim-light-dark" d="M260,285.788l7.5-4.33v-17.32l-7.5,4.33Z"/>
      <path id="Path-194" data-name="Path" class="curtain-R-prim-light-dark" d="M230,303.109l7.5-4.33V281.458l-7.5,4.33Z"/>
      <path id="Path-195" data-name="Path" class="curtain-R-prim-light-dark" d="M185,398.372l7.5-4.331v-17.32l-7.5,4.33Z"/>
      <path id="Path-196" data-name="Path" class="curtain-R-prim-light-dark" d="M245,363.731l7.5-4.331V342.08l-7.5,4.33Z"/>
      <path id="Path-197" data-name="Path" class="curtain-R-prim-light-dark" d="M215,381.051l7.5-4.33V359.4l-7.5,4.331Z"/>
      <path id="Path-198" data-name="Path" class="curtain-R-prim-light-dark" d="M275,346.41l7.5-4.33V324.759l-7.5,4.33Z"/>
      <path id="Path-199" data-name="Path" class="curtain-R-prim-light-dark" d="M200,389.711l7.5-4.33v-17.32l-7.5,4.33Z"/>
      <path id="Path-200" data-name="Path" class="curtain-R-prim-light-dark" d="M170,407.032l7.5-4.33V385.381l-7.5,4.33Z"/>
      <path id="Path-201" data-name="Path" class="curtain-R-prim-light-dark" d="M260,355.07l7.5-4.33V333.42l-7.5,4.33Z"/>
      <path id="Path-202" data-name="Path" class="curtain-R-prim-light-dark" d="M230,372.391l7.5-4.33V350.74l-7.5,4.33Z"/>
      <path id="Path-203" data-name="Path" class="curtain-R-prim-light-dark" d="M185,467.654l7.5-4.331v-17.32l-7.5,4.33Z"/>
      <path id="Path-204" data-name="Path" class="curtain-R-prim-light-dark" d="M245,433.013l7.5-4.331v-17.32l-7.5,4.33Z"/>
      <path id="Path-205" data-name="Path" class="curtain-R-prim-light-dark" d="M215,450.333l7.5-4.33V428.682l-7.5,4.331Z"/>
      <path id="Path-206" data-name="Path" class="curtain-R-prim-light-dark" d="M275,415.692l7.5-4.33V394.041l-7.5,4.331Z"/>
      <path id="Path-207" data-name="Path" class="curtain-R-prim-light-dark" d="M200,458.993l7.5-4.33v-17.32l-7.5,4.33Z"/>
      <path id="Path-208" data-name="Path" class="curtain-R-prim-light-dark" d="M170,476.314l7.5-4.33V454.663l-7.5,4.33Z"/>
      <path id="Path-209" data-name="Path" class="curtain-R-prim-light-dark" d="M260,424.352l7.5-4.33v-17.32l-7.5,4.33Z"/>
      <path id="Path-210" data-name="Path" class="curtain-R-prim-light-dark" d="M230,441.673l7.5-4.33V420.022l-7.5,4.33Z"/>
      <path id="Path-211" data-name="Path" class="curtain-R-prim-light-dark" d="M185,502.295l7.5-4.331v-17.32l-7.5,4.33Z"/>
      <path id="Path-212" data-name="Path" class="curtain-R-prim-light-dark" d="M245,467.654l7.5-4.331v-17.32l-7.5,4.33Z"/>
      <path id="Path-213" data-name="Path" class="curtain-R-prim-light-dark" d="M305,433.013l7.5-4.331v-17.32l-7.5,4.33Z"/>
      <path id="Path-214" data-name="Path" class="curtain-R-prim-light-dark" d="M215,484.974l7.5-4.33V463.323l-7.5,4.331Z"/>
      <path id="Path-215" data-name="Path" class="curtain-R-prim-light-dark" d="M275,450.333l7.5-4.33V428.682l-7.5,4.331Z"/>
      <path id="Path-216" data-name="Path" class="curtain-R-prim-light-dark" d="M200,493.634l7.5-4.33v-17.32l-7.5,4.33Z"/>
      <path id="Path-217" data-name="Path" class="curtain-R-prim-light-dark" d="M170,510.955l7.5-4.33V489.304l-7.5,4.33Z"/>
      <path id="Path-218" data-name="Path" class="curtain-R-prim-light-dark" d="M260,458.993l7.5-4.33v-17.32l-7.5,4.33Z"/>
      <path id="Path-219" data-name="Path" class="curtain-R-prim-light-dark" d="M230,476.314l7.5-4.33V454.663l-7.5,4.33Z"/>
      <path id="Path-220" data-name="Path" class="curtain-R-prim-light-dark" d="M290,441.673l7.5-4.33V420.022l-7.5,4.33Z"/>
      <path id="Path-221" data-name="Path" class="curtain-L-prim-dark" d="M80,210.733V222.28l95,54.848,5-2.887v-5.773Z"/>
    </g>
    <g id="Group-2" data-name="Group">
      <g id="Group-3" data-name="Group">
        <path id="Path-222" data-name="Path" class="cls-1" d="M130.5125,132.4949v12.16l-2.1063,1.2166v-9.7289l-4.2128,2.4325-2.1064-1.2167Z"/>
        <path id="Path-223" data-name="Path" class="cls-2" d="M93.651,120.9418l8.4255-4.8648,2.1064,1.2158-8.4255,4.8648Z"/>
        <path id="Path-224" data-name="Path" class="cls-1" d="M104.1829,117.2928v12.1613l-2.1064,1.2167v-9.729l-4.2128,2.4316-2.1063-1.2158Z"/>
        <path id="Path-225" data-name="Path" class="cls-3" d="M99.97,129.4541v-7.2965l2.1064-1.2158v9.729Z"/>
        <path id="Path-226" data-name="Path" class="cls-2" d="M119.9807,136.1431l8.4255-4.8649,2.1063,1.2167-8.4255,4.864Z"/>
        <path id="Path-227" data-name="Path" class="cls-3" d="M126.3,144.6554v-7.2965l2.1064-1.2158v9.7289Z"/>
        <path id="Path-228" data-name="Path" class="cls-2" d="M97.8637,118.5094l56.8722,32.835,2.1063-1.2158v-2.4325L102.0765,116.077Z"/>
        <path id="Path-229" data-name="Path" class="cls-3" d="M102.0765,120.9418v-2.4324L126.3,132.4949l-2.1064,1.2158Z"/>
        <path id="Path-230" data-name="Path" class="cls-3" d="M128.4062,136.1431v-2.4324L152.63,147.6961l-2.1064,1.2158Z"/>
        <path id="Path-231" data-name="Path" class="cls-4" d="M148.4167,204.8539l10.5319-6.0806-4.2127-2.4326-10.5319,6.0808Z"/>
        <path id="Path-232" data-name="Path" class="cls-4" d="M122.087,189.6518l10.5319-6.0808-4.2127-2.4315L117.8743,187.22Z"/>
        <path id="Path-233" data-name="Path" class="cls-4" d="M95.7574,174.4505l10.5318-6.0807-4.2127-2.4324-10.5319,6.0807Z"/>
        <path id="Path-234" data-name="Path" class="cls-3" d="M146.31,202.4215l2.1063,1.2157v-9.7289l-2.1063-1.2158Z"/>
        <path id="Path-235" data-name="Path" class="cls-1" d="M150.5231,202.4215l-2.1064,1.2157V192.6925l2.1064-1.2166Z"/>
        <path id="Path-236" data-name="Path" class="cls-3" d="M119.9807,187.22l2.1063,1.2158v-9.7289l-2.1063-1.2158Z"/>
        <path id="Path-237" data-name="Path" class="cls-1" d="M124.1934,187.22l-2.1064,1.2158V177.4913l2.1064-1.2167Z"/>
        <path id="Path-238" data-name="Path" class="cls-3" d="M126.3,183.571l2.1064,1.2168v-9.729L126.3,173.8421Z"/>
        <path id="Path-239" data-name="Path" class="cls-1" d="M130.5125,183.571l-2.1063,1.2168V173.8421l2.1063-1.2158Z"/>
        <path id="Path-240" data-name="Path" class="cls-3" d="M99.97,168.37l2.1064,1.2166v-9.7289L99.97,158.6409Z"/>
        <path id="Path-241" data-name="Path" class="cls-1" d="M104.1829,168.37l-2.1064,1.2166V158.6409l2.1064-1.2158Z"/>
        <path id="Path-242" data-name="Path" class="cls-3" d="M93.651,172.0181l2.1064,1.2166v-9.7289l-2.1064-1.2167Z"/>
        <path id="Path-243" data-name="Path" class="cls-1" d="M97.8637,172.0181l-2.1063,1.2166V162.2891l2.1063-1.2158Z"/>
        <path id="Path-244" data-name="Path" class="cls-2" d="M146.31,151.3444l8.4255-4.8649,2.1063,1.2166-8.4255,4.8641Z"/>
        <path id="Path-245" data-name="Path" class="cls-1" d="M156.8422,147.6961v51.0772l-2.1063,1.2157V151.3444l-4.2128,2.4325-2.1064-1.2167Z"/>
        <path id="Path-246" data-name="Path" class="cls-3" d="M152.63,198.7733V152.56l2.1064-1.2158V199.989Z"/>
        <path id="Path-247" data-name="Path" class="cls-1" d="M148.4167,199.989l8.4255-4.8641v-2.4324l-8.4255,4.864Z"/>
        <path id="Path-248" data-name="Path" class="cls-2" d="M150.5231,193.9083l2.1064-1.2158,2.1064,1.2158-4.2128,2.4324Z"/>
        <path id="Path-249" data-name="Path" class="cls-2" d="M150.5231,184.1794V181.747l2.1064,1.2166v2.4324Z"/>
        <path id="Path-250" data-name="Path" class="cls-2" d="M150.5231,191.4759v-2.4316L152.63,190.26v2.4324Z"/>
        <path id="Path-251" data-name="Path" class="cls-5" d="M150.5231,186.6118l2.1064-1.2158-2.1064-1.2166Z"/>
        <path id="Path-252" data-name="Path" class="cls-5" d="M150.5231,193.9083l2.1064-1.2158-2.1064-1.2166Z"/>
        <path id="Path-253" data-name="Path" class="cls-1" d="M148.4167,190.26l8.4255-4.8641v2.4316l-8.4255,4.8649Z"/>
        <path id="Path-254" data-name="Path" class="cls-2" d="M152.63,185.396l2.1064,1.2158-4.2128,2.4325v-2.4325Z"/>
        <path id="Path-255" data-name="Path" class="cls-3" d="M150.5231,151.3444l-2.1064,1.2158v41.3481l2.1064-1.2158Z"/>
        <path id="Path-256" data-name="Path" class="cls-1" d="M128.4062,133.7107l-4.2128,2.4324,2.1064,1.2158,2.1064-1.2158Z"/>
        <path id="Path-257" data-name="Path" class="cls-1" d="M102.0765,118.5094l-4.2128,2.4324,2.1064,1.2158,2.1064-1.2158Z"/>
      </g>
      <g id="Group-4" data-name="Group">
        <path id="Path-258" data-name="Path" class="cls-5" d="M95.7574,119.7252l-2.1064,1.2166v41.3473l54.7657,31.6192,2.1064-1.2158V151.3444Z"/>
        <path id="Path-259" data-name="Path" class="cls-6" d="M148.4167,186.6118,93.651,154.9926v7.2965l54.7657,31.6192Z"/>
        <path id="Path-260" data-name="Path" class="cls-7" d="M148.4167,189.0443l2.1064-1.2167v4.8649l-2.1064,1.2158Z"/>
        <path id="Path-261" data-name="Path" class="cls-6" d="M148.4167,152.56v7.2973L93.651,128.2383v-7.2965Z"/>
        <path id="Path-262" data-name="Path" class="cls-8" d="M95.7574,119.7252l-2.1064,1.2166L148.4167,152.56l2.1064-1.2158Z"/>
        <path id="Path-263" data-name="Path" class="cls-9" d="M148.4167,156.2093,93.651,124.59v32.835l54.7657,31.6192Z"/>
        <path id="Path-264" data-name="Path" class="cls-7" d="M148.4167,156.2093l2.1064-1.2167v-3.6482l-2.1064,1.2158Z"/>
        <path id="Compound_Path" data-name="Compound Path" class="cls-10" d="M101.4985,143.1969l-4.21-2.4307c-.086-.05-.144-.0253-.144.0607v.8712a.2769.2769,0,0,0,.144.2258l1.4543.84V148.16a.2755.2755,0,0,0,.1432.2257l1.024.5915c.0855.05.1431.0253.1431-.0607v-5.3956l1.4449.8341c.086.05.1431.0253.1431-.0606v-.8712A.2757.2757,0,0,0,101.4985,143.1969Zm3.415,4.0957a2.1048,2.1048,0,0,0-.6311-.5848c-.5644-.326-.947-.2308-1.1955.075l-.0391-.5383a.29.29,0,0,0-.1432-.2267l-.9277-.5359c-.0868-.05-.144-.0252-.144.0607v4.4007a.2762.2762,0,0,0,.144.2266l.9759.5637c.086.05.1431.0252.1431-.0607v-2.4881c0-.5737.3826-.7928.9759-.4507a2.287,2.287,0,0,1,.3925.294c.095.0834.1719.1087.2106.0253l.2863-.5418C104.99,147.4611,104.99,147.3937,104.9135,147.2926Zm4.8891,2.7079-.88-.5089c-.086-.05-.1341-.0193-.1432.0607l-.0288.4238a4.1168,4.1168,0,0,0-1.4255-1.5115c-1.3111-.7566-2.2672-.2191-2.2672,1.1492a4.7471,4.7471,0,0,0,2.2672,3.7679,1.3577,1.3577,0,0,0,1.4157.1474l.0386.4247a.29.29,0,0,0,.1432.2258l.88.508c.086.05.1432.0262.1432-.0606v-4.4006A.2758.2758,0,0,0,109.8026,150.0005Zm-2.3252,2.3213a2.5033,2.5033,0,0,1-1.205-2.0162c0-.7457.5072-1.0078,1.205-.605a2.5369,2.5369,0,0,1,1.1963,1.9918C108.6737,152.4,108.1665,152.7194,107.4774,152.3218Zm6.0755-.2621c-.68-.3917-1.177-.3058-1.4831.0152v-.01l-.0386-.6345a.29.29,0,0,0-.1432-.2258l-.9376-.5417c-.086-.05-.1436-.0253-.1436.0606v4.4007a.2764.2764,0,0,0,.1436.2266l.9754.5637c.0869.05.144.0252.144-.0607V153.29c0-.2208.3255-.7314,1.0331-.3219a1.7382,1.7382,0,0,1,.88,1.55v2.44a.2767.2767,0,0,0,.1431.2258l.9759.5637c.086.05.1431.0253.1431-.0607v-2.6692A3.5063,3.5063,0,0,0,113.5529,152.06Zm3.204,1.0667c.3835.2207.6895.0817.6895-.3008a1.4345,1.4345,0,0,0-.6895-1.0961c-.3916-.2267-.6973-.0877-.6973.2948A1.4439,1.4439,0,0,0,116.7569,153.1264Zm-.6311.6681v4.4006a.2775.2775,0,0,0,.1436.2267l.9763.5637c.086.05.1431.0253.1431-.0607v-4.4015a.2758.2758,0,0,0-.1431-.2258l-.9763-.5636C116.1834,153.6841,116.1258,153.7086,116.1258,153.7945Zm3.2818,3.0618c0-.2392.22-.2746.5167-.1036a3.36,3.36,0,0,1,.9183.8939c.0859.1163.1534.1745.2106.1307l.3633-.268c.0481-.0295.0674-.0952.01-.1954a4.6052,4.6052,0,0,0-1.6073-1.6363c-.8417-.4861-1.6263-.4128-1.6263.487,0,1.5781,2.2673,2.6,2.2673,3.3466,0,.2966-.2967.2208-.6032.0447a4.8588,4.8588,0,0,1-1.1671-1.1046c-.0856-.1171-.153-.1744-.2106-.1314l-.3732.3109c-.0378.0354-.0572.0909,0,.1912a5.2277,5.2277,0,0,0,1.79,1.8174c.8611.4971,1.7888.5072,1.7888-.4019C121.6843,158.5153,119.4076,157.6214,119.4076,156.8563Zm5.31,1.7551-.67-.3867V156.933a.2767.2767,0,0,0-.1444-.2266l-.9755-.5629c-.0859-.05-.1431-.0261-.1431.0607v1.2917l-.67-.3868c-.086-.05-.1436-.0261-.1436.0607v.7456a.2775.2775,0,0,0,.1436.2267l.67.3867V162.04a.2773.2773,0,0,0,.1431.2267l.9755.5628c.0868.05.1444.0261.1444-.0607v-3.5109l.67.3868c.086.05.1432.0252.1432-.0607v-.7465A.2758.2758,0,0,0,124.7175,158.6114Zm1.4247,5.6349c.3835.2208.6891.0919.6891-.3007a1.4186,1.4186,0,0,0-.6891-1.0861c-.3916-.2266-.6977-.0977-.6977.2856A1.4279,1.4279,0,0,0,126.1422,164.2463Zm-24.1365-21.6947-1.5217-3.1832c.9186.214,1.4061-.26,1.4061-1.2259a4.3856,4.3856,0,0,0-2.43-3.5842l-1.98-1.1433c-.086-.05-.1432-.0253-.1432.0606v6.4093a.2758.2758,0,0,0,.1432.2266l1.0236.5915c.086.05.1436.0253.1436-.0606v-2.1815l.5549.32,1.4445,3.0627a.3975.3975,0,0,0,.1723.1955l1.09.6294C102.0242,142.7352,102.0724,142.6956,102.0057,142.5516Zm-3.3582-7.3058.7841.4533a2.1172,2.1172,0,0,1,1.2058,1.72c0,.7845-.5932.6817-1.2058.3278l-.7841-.4533Zm4.8022,2.7349c.3826.2208.69.0818.69-.3008a1.4384,1.4384,0,0,0-.69-1.0961c-.3916-.2267-.6985-.0877-.6985.2957A1.4438,1.4438,0,0,0,103.45,137.9807Zm-.631.669V143.05a.2767.2767,0,0,0,.1431.2258l.9759.5637c.0859.05.144.0253.144-.0607v-4.4006a.2784.2784,0,0,0-.144-.2267l-.9759-.5628C102.8763,138.5393,102.8187,138.5629,102.8187,138.65Zm6.7346,1.4483-.9758-.5628c-.086-.05-.1432-.0261-.1432.0607v2.6591a4.0227,4.0227,0,0,0-1.3581-1.3961c-1.3111-.7567-2.2672-.2191-2.2672,1.1492a4.7471,4.7471,0,0,0,2.2672,3.7679,1.3587,1.3587,0,0,0,1.4153.1474l.0382.4239a.2932.2932,0,0,0,.144.2266l.88.508c.0868.05.144.0253.144-.0606v-6.6966A.2764.2764,0,0,0,109.5533,140.098Zm-2.3244,4.618a2.501,2.501,0,0,1-1.205-2.0162c0-.7456.5064-1.0077,1.205-.6049a2.5369,2.5369,0,0,1,1.1963,1.9918C108.4252,144.7944,107.918,145.1137,107.2289,144.716Zm7.7783,3.0754a4.5532,4.5532,0,0,0-2.2293-3.6407c-1.3585-.7844-2.3635-.2831-2.3635,1.0945a4.9137,4.9137,0,0,0,2.4688,3.8833,2.0011,2.0011,0,0,0,1.7406.2882c.0765-.0329.0765-.0995.01-.2056l-.4213-.6538c-.0662-.1062-.1238-.1391-.2106-.1315a1.5067,1.5067,0,0,1-.9948-.2494,2.6031,2.6031,0,0,1-1.3391-1.7483l3.004,1.734C114.9591,148.328,115.0072,148.1638,115.0072,147.7914Zm-2.22-2.5639a2.2755,2.2755,0,0,1,1.1,1.6589l-2.2388-1.2924C111.7539,144.9949,112.213,144.8963,112.7869,145.2275Z"/>
        <path class="cls-11" d="M135.3959,151.3874l9.1907,5.3062a2.6286,2.6286,0,0,1,1.1885,2.0584v6.4568c0,.7574-.5327,1.0648-1.1885.6862l-9.1907-5.3062a2.6292,2.6292,0,0,1-1.1886-2.0586v-6.4567C134.2073,151.3161,134.74,151.0086,135.3959,151.3874Z"/>
        <path id="Compound_Path-2" data-name="Compound Path" class="cls-12" d="M138.836,155.1055a1.1007,1.1007,0,0,1,.1358.0919.6446.6446,0,0,1,.1078.1053.46.46,0,0,1,.07.123.3888.3888,0,0,1,.0251.14.1412.1412,0,0,1-.0453.12.1459.1459,0,0,1-.1349.0042v.0034a.5493.5493,0,0,1,.1584.166.3784.3784,0,0,1,.0584.2013.2887.2887,0,0,1-.0177.107.1064.1064,0,0,1-.0633.0607.2031.2031,0,0,1-.1148,0,.6518.6518,0,0,1-.1761-.0766l-.4052-.2335V154.873Zm-.0934.3741a.29.29,0,0,0,.1457.0531.0535.0535,0,0,0,.037-.0261.093.093,0,0,0,.01-.0531.1509.1509,0,0,0-.0087-.0624.2359.2359,0,0,0-.0337-.0673.4462.4462,0,0,0-.1313-.107l-.0868-.05v.273Zm.0251.4752a.2743.2743,0,0,0,.14.0472q.0531-.0025.0531-.0935a.241.241,0,0,0-.0132-.0834.2952.2952,0,0,0-.0391-.07.3211.3211,0,0,0-.0572-.059.6217.6217,0,0,0-.0732-.05l-.1037-.06v.3142Z"/>
        <path id="Path-265" data-name="Path" class="cls-12" d="M140.59,156.3045a.2745.2745,0,0,0-.05-.07.2032.2032,0,0,0-.063-.0472.13.13,0,0,0-.0745-.022.0638.0638,0,0,0-.046.043.3668.3668,0,0,0-.0227.11,1.8,1.8,0,0,0-.007.1845,1.5386,1.5386,0,0,0,.01.1964.5329.5329,0,0,0,.0276.13.2508.2508,0,0,0,.0489.0826.2982.2982,0,0,0,.0675.0522.2362.2362,0,0,0,.0588.0253.055.055,0,0,0,.0482-.011.12.12,0,0,0,.0312-.0623.5378.5378,0,0,0,.0115-.13l.24.1391a.71.71,0,0,1-.0152.1516.1708.1708,0,0,1-.0556.1011.1447.1447,0,0,1-.1151.0227.5753.5753,0,0,1-.1922-.0791.941.941,0,0,1-.216-.1618.65.65,0,0,1-.1221-.1812.6889.6889,0,0,1-.0548-.2022,1.817,1.817,0,0,1-.0127-.2266,1.4778,1.4778,0,0,1,.0127-.2115.2537.2537,0,0,1,.0548-.14.139.139,0,0,1,.1221-.0412.5682.5682,0,0,1,.216.0834.89.89,0,0,1,.202.1542.6045.6045,0,0,1,.1111.1567.4968.4968,0,0,1,.0457.1474,1,1,0,0,1,.0094.1281l-.24-.1391a.4572.4572,0,0,0-.03-.1836Z"/>
        <path id="Compound_Path-3" data-name="Compound Path" class="cls-12" d="M142.2021,157.0485a.7479.7479,0,0,1,.2333.2014.4184.4184,0,0,1,.0835.251.1812.1812,0,0,1-.0482.1441.1532.1532,0,0,1-.15-.0017v.0033a.4888.4888,0,0,1,.132.1273.3455.3455,0,0,1,.0515.1567c.0024.0211.0041.043.0049.0666s.0029.05.0037.0792a1.21,1.21,0,0,0,.01.1323.13.13,0,0,0,.0144.0438.19.19,0,0,0,.0288.0412v.0093l-.26-.1508a.1758.1758,0,0,1-.0235-.064.49.49,0,0,1-.007-.0624l-.0066-.2047a.2441.2441,0,0,0-.0353-.1163.3368.3368,0,0,0-.049-.0582.2671.2671,0,0,0-.0572-.0387l-.1292-.0741v.4415l-.24-.139v-1.044Zm-.1037.3968a.2218.2218,0,0,0,.1333.0413.0643.0643,0,0,0,.0379-.0329.11.11,0,0,0,.009-.0606.2786.2786,0,0,0-.1666-.241l-.114-.0657v.3008Z"/>
        <path id="Path-266" data-name="Path" class="cls-12" d="M144.1036,158.319l-.26-.15v.8712l-.24-.1382V158.03l-.26-.15v-.1728l.7607.439Z"/>
        <path id="Path-267" data-name="Path" class="cls-10" d="M142.625,162.3776a2.4,2.4,0,0,1-.59-.4929,2.7718,2.7718,0,0,1-.4406-.6749,1.8933,1.8933,0,0,1-.1819-.6858.8513.8513,0,0,1,.123-.5258.5413.5413,0,0,1,.3979-.2317,1.0749,1.0749,0,0,1,.5718.12,2.2171,2.2171,0,0,1,.6019.4414,2.8268,2.8268,0,0,1,.48.6522l.5747-.3025a5.4374,5.4374,0,0,0-1.7258-1.6261c-1.3091-.7566-2.3709-.4718-2.3709.6353a4.6636,4.6636,0,0,0,2.3709,3.3727,2.27,2.27,0,0,0,1.7172.3682l-.546-.9832a.604.604,0,0,1-.4307.12,1.2937,1.2937,0,0,1-.5517-.1862Z"/>
        <path id="Path-268" data-name="Path" class="cls-12" d="M137.3751,154.1518l-1.546-.8931v5.9854l1.546.8932Z"/>
        <path id="Path-269" data-name="Path" class="cls-12" d="M138.9734,161.059c1.31.7566,2.3709.4718,2.3709-.6345a4.6623,4.6623,0,0,0-2.3709-3.3735c-1.31-.7558-2.3709-.471-2.3709.6352A4.6572,4.6572,0,0,0,138.9734,161.059Z"/>
        <path id="Path-270" data-name="Path" class="cls-11" d="M138.7846,160.16c.67.3876,1.214.1576,1.214-.5131a2.5191,2.5191,0,0,0-1.214-1.9143c-.6706-.3876-1.2141-.1575-1.2141.5131A2.5169,2.5169,0,0,0,138.7846,160.16Z"/>
        <g id="Group-5" data-name="Group">
          <path id="Path-271" data-name="Path" class="cls-10" d="M93.651,154.6573l54.7657,31.6184v.8181L93.651,155.4746Z"/>
          <path id="Path-272" data-name="Path" class="cls-10" d="M93.651,150.4968l54.7657,31.6192v.8173L93.651,151.3141Z"/>
          <path id="Path-273" data-name="Path" class="cls-10" d="M93.651,151.8836l54.7657,31.6193v.8172L93.651,152.7009Z"/>
          <path id="Path-274" data-name="Path" class="cls-10" d="M93.651,153.2705,148.4167,184.89v.8172L93.651,154.0877Z"/>
        </g>
      </g>
    </g>
  </g>
</svg>
