<svg id="Layer_1" data-name="Layer 1" xmlns="http://www.w3.org/2000/svg" viewBox="0 0 320 464.767">
  <defs>
    <style>
      .top-light {
        fill: #ffc8c6;
      }

      .top-prim {
        fill: #dd8a87;
      }

      .exterior-L-prim {
        fill: #73302e;
      }

      .curtain-R-prim-light {
        fill: #59acd0;
      }

      .curtain-L-prim-light {
        fill: #438fb0;
      }

      .exterior-R-prim {
        fill: #d05752;
      }

      .curtain-R-prim-dark {
        fill: #3e809c;
      }

      .curtain-L-prim-dark {
        fill: #2f5565;
      }

      .curtain-R-prim-light-dark {
        fill: #3999c1;
      }

      .curtain-L-prim-light-dark {
        fill: #467e97;
      }
    </style>
  </defs>
  <title>Artboard 10</title>
  <g id="Group">
    <path id="Path" class="top-light" d="M0,320.43l160-92.376L320,320.43,160,412.806Z"/>
    <path id="Path-2" data-name="Path" class="top-light" d="M290,152.998v-5.774L130,54.848,0,129.9041v5.7729l160,92.3771Z"/>
    <path id="Path-3" data-name="Path" class="top-prim" d="M287.5,333.42,310,320.43,287.5,307.439Z"/>
    <path id="Path-4" data-name="Path" class="exterior-L-prim" d="M305,323.316l-20-11.547v-5.773L310,320.43Z"/>
    <path id="anchor_80_121.243_210" class="top-light" d="M290,66.395V60.622L185,0,80,60.622v5.773l105,60.622Z"/>
    <path id="Path-5" data-name="Path" class="top-prim" d="M180,204.96l-20,11.547L10,129.9041,80,89.489l150,86.603Z"/>
    <path id="Path-6" data-name="Path" class="curtain-R-prim-light" d="M185,207.8461l-5-2.886v-86.603l5,2.8869L290,60.622v92.376L185,213.62Z"/>
    <path id="Path-7" data-name="Path" class="curtain-L-prim-light" d="M80,60.622l105,60.622v86.6021L80,147.225Z"/>
    <path id="Path-8" data-name="Path" class="curtain-L-prim-light" d="M0,372.391l160,92.376,5-2.887V404.145l-5,2.887L0,314.656Z"/>
    <path id="Path-9" data-name="Path" class="curtain-L-prim-light" d="M0,320.43,160,412.806l5-2.8869V219.3931l-5,2.8869L0,129.9041Z"/>
    <path id="Path-10" data-name="Path" class="curtain-R-prim-light" d="M160,464.767l160-92.376V320.43L160,412.806Z"/>
    <path id="Path-11" data-name="Path" class="curtain-R-prim-light" d="M160,418.579l130-75.055V147.225L160,222.28Z"/>
    <path id="Path-12" data-name="Path" class="exterior-R-prim" d="M80,95.263,15,132.791l-5-2.8869L80,89.489Z"/>
    <path id="Path-13" data-name="Path" class="curtain-R-prim-dark" d="M185,138.564,290,77.942V60.622L185,121.244Z"/>
    <path id="Path-14" data-name="Path" class="curtain-L-prim-dark" d="M185,138.564,80,77.942V60.622l105,60.622Z"/>
    <path id="Path-15" data-name="Path" class="curtain-R-prim-dark" d="M185,173.2051,290,112.583V95.263L185,155.885Z"/>
    <path id="Path-16" data-name="Path" class="curtain-L-prim-dark" d="M185,173.2051,80,112.583V95.263l105,60.622Z"/>
    <path id="Path-17" data-name="Path" class="curtain-R-prim-dark" d="M185,207.8461,290,147.224v-17.32L185,190.526Z"/>
    <path id="Path-18" data-name="Path" class="curtain-L-prim-dark" d="M185,207.8461,80,147.224v-17.32L185,190.526Z"/>
    <path id="Path-19" data-name="Path" class="curtain-R-prim-dark" d="M160,256.921l130-75.055V164.545L160,239.6011Z"/>
    <path id="Path-20" data-name="Path" class="curtain-L-prim-dark" d="M160,256.921,0,164.545V147.224l160,92.3771Z"/>
    <path id="Path-21" data-name="Path" class="curtain-R-prim-dark" d="M160,326.203l130-75.0549V233.827L160,308.8831Z"/>
    <path id="Path-22" data-name="Path" class="curtain-L-prim-dark" d="M160,326.203,0,233.827v-17.32l160,92.376Z"/>
    <path id="Path-23" data-name="Path" class="curtain-R-prim-dark" d="M160,395.485,290,320.43V303.109L160,378.165Z"/>
    <path id="Path-24" data-name="Path" class="curtain-L-prim-dark" d="M160,395.485,0,303.109v-17.32L160,378.165Z"/>
    <path id="Path-25" data-name="Path" class="curtain-R-prim-dark" d="M160,291.562l130-75.0549V199.186L160,274.2421Z"/>
    <path id="Path-26" data-name="Path" class="curtain-L-prim-dark" d="M160,291.562,0,199.186v-17.32l160,92.3761Z"/>
    <path id="Path-27" data-name="Path" class="curtain-R-prim-dark" d="M160,360.844l130-75.0549V268.468L160,343.524Z"/>
    <path id="Path-28" data-name="Path" class="curtain-L-prim-dark" d="M160,360.844,0,268.468v-17.32L160,343.524Z"/>
    <path id="Path-29" data-name="Path" class="curtain-R-prim-dark" d="M160,430.126,320,337.75V320.43L160,412.806Z"/>
    <path id="Path-30" data-name="Path" class="curtain-R-prim-dark" d="M160,464.767l160-92.376v-17.32L160,447.447Z"/>
    <path id="Path-31" data-name="Path" class="curtain-L-prim-dark" d="M160,430.126,0,337.75V320.43L160,412.806Z"/>
    <path id="Path-32" data-name="Path" class="curtain-L-prim-dark" d="M160,464.767,0,372.391v-17.32l160,92.376Z"/>
    <path id="Path-33" data-name="Path" class="curtain-R-prim-light-dark" d="M185,155.885l7.5-4.33V134.234l-7.5,4.33Z"/>
    <path id="Path-34" data-name="Path" class="curtain-R-prim-light-dark" d="M245,121.244l7.5-4.33V99.593l-7.5,4.33Z"/>
    <path id="Path-35" data-name="Path" class="curtain-R-prim-light-dark" d="M215,138.564l7.5-4.33v-17.32l-7.5,4.33Z"/>
    <path id="Path-36" data-name="Path" class="curtain-R-prim-light-dark" d="M275,103.923l7.5-4.33V82.273l-7.5,4.33Z"/>
    <path id="Path-37" data-name="Path" class="curtain-R-prim-light-dark" d="M200,147.224l7.5-4.33v-17.32l-7.5,4.33Z"/>
    <path id="Path-38" data-name="Path" class="curtain-R-prim-light-dark" d="M260,112.583l7.5-4.33V90.933l-7.5,4.33Z"/>
    <path id="Path-39" data-name="Path" class="curtain-R-prim-light-dark" d="M230,129.9041l7.5-4.33V108.2531l-7.5,4.33Z"/>
    <path id="Path-40" data-name="Path" class="curtain-R-prim-light-dark" d="M185,190.526l7.5-4.33V168.875l-7.5,4.33Z"/>
    <path id="Path-41" data-name="Path" class="curtain-R-prim-light-dark" d="M245,155.885l7.5-4.33V134.234l-7.5,4.33Z"/>
    <path id="Path-42" data-name="Path" class="curtain-R-prim-light-dark" d="M215,173.2051l7.5-4.33v-17.32l-7.5,4.33Z"/>
    <path id="Path-43" data-name="Path" class="curtain-R-prim-light-dark" d="M275,138.564l7.5-4.33v-17.32l-7.5,4.33Z"/>
    <path id="Path-44" data-name="Path" class="curtain-R-prim-light-dark" d="M200,181.866l7.5-4.331v-17.32l-7.5,4.33Z"/>
    <path id="Path-45" data-name="Path" class="curtain-R-prim-light-dark" d="M260,147.224l7.5-4.33v-17.32l-7.5,4.33Z"/>
    <path id="Path-46" data-name="Path" class="curtain-R-prim-light-dark" d="M230,164.545l7.5-4.33V142.894l-7.5,4.33Z"/>
    <path id="Path-47" data-name="Path" class="curtain-L-prim-light-dark" d="M185,155.885l-7.5-4.33V134.234l7.5,4.33Z"/>
    <path id="Path-48" data-name="Path" class="curtain-L-prim-light-dark" d="M125,121.244l-7.5-4.33V99.593l7.5,4.33Z"/>
    <path id="Path-49" data-name="Path" class="curtain-L-prim-light-dark" d="M155,138.564l-7.5-4.33v-17.32l7.5,4.33Z"/>
    <path id="Path-50" data-name="Path" class="curtain-L-prim-light-dark" d="M95,103.923l-7.5-4.33V82.273l7.5,4.33Z"/>
    <path id="Path-51" data-name="Path" class="curtain-L-prim-light-dark" d="M170,147.224l-7.5-4.33v-17.32l7.5,4.33Z"/>
    <path id="Path-52" data-name="Path" class="curtain-L-prim-light-dark" d="M110,112.583l-7.5-4.33V90.933l7.5,4.33Z"/>
    <path id="Path-53" data-name="Path" class="curtain-L-prim-light-dark" d="M140,129.9041l-7.5-4.33V108.2531l7.5,4.33Z"/>
    <path id="Path-54" data-name="Path" class="curtain-L-prim-light-dark" d="M185,190.526l-7.5-4.33V168.875l7.5,4.33Z"/>
    <path id="Path-55" data-name="Path" class="curtain-L-prim-light-dark" d="M125,155.885l-7.5-4.33V134.234l7.5,4.33Z"/>
    <path id="Path-56" data-name="Path" class="curtain-L-prim-light-dark" d="M155,173.2051l-7.5-4.33v-17.32l7.5,4.33Z"/>
    <path id="Path-57" data-name="Path" class="curtain-L-prim-light-dark" d="M95,138.564l-7.5-4.33v-17.32l7.5,4.33Z"/>
    <path id="Path-58" data-name="Path" class="curtain-L-prim-light-dark" d="M170,181.866l-7.5-4.331v-17.32l7.5,4.33Z"/>
    <path id="Path-59" data-name="Path" class="curtain-L-prim-light-dark" d="M110,147.224l-7.5-4.33v-17.32l7.5,4.33Z"/>
    <path id="Path-60" data-name="Path" class="curtain-L-prim-light-dark" d="M140,164.545l-7.5-4.33V142.894l7.5,4.33Z"/>
    <path id="Path-61" data-name="Path" class="curtain-R-prim-light-dark" d="M185,225.167l7.5-4.33V203.516l-7.5,4.33Z"/>
    <path id="Path-62" data-name="Path" class="curtain-R-prim-light-dark" d="M245,190.526l7.5-4.33V168.875l-7.5,4.33Z"/>
    <path id="Path-63" data-name="Path" class="curtain-R-prim-light-dark" d="M215,207.8461l7.5-4.33v-17.32l-7.5,4.33Z"/>
    <path id="Path-64" data-name="Path" class="curtain-R-prim-light-dark" d="M275,173.2051l7.5-4.33v-17.32l-7.5,4.33Z"/>
    <path id="Path-65" data-name="Path" class="curtain-R-prim-light-dark" d="M200,216.5071l7.5-4.3311v-17.32l-7.5,4.33Z"/>
    <path id="Path-66" data-name="Path" class="curtain-R-prim-light-dark" d="M170,233.827l7.5-4.33V212.176l-7.5,4.3311Z"/>
    <path id="Path-67" data-name="Path" class="curtain-R-prim-light-dark" d="M260,181.866l7.5-4.331v-17.32l-7.5,4.33Z"/>
    <path id="Path-68" data-name="Path" class="curtain-R-prim-light-dark" d="M230,199.186l7.5-4.33V177.535l-7.5,4.33Z"/>
    <path id="Path-69" data-name="Path" class="curtain-L-prim-light-dark" d="M135,225.167l-7.5-4.33V203.516l7.5,4.33Z"/>
    <path id="Path-70" data-name="Path" class="curtain-L-prim-light-dark" d="M75,190.526l-7.5-4.33V168.875l7.5,4.33Z"/>
    <path id="Path-71" data-name="Path" class="curtain-L-prim-light-dark" d="M30,164.545l-7.5-4.33V142.894l7.5,4.33Z"/>
    <path id="Path-72" data-name="Path" class="curtain-L-prim-light-dark" d="M105,207.8461l-7.5-4.33v-17.32l7.5,4.33Z"/>
    <path id="Path-73" data-name="Path" class="curtain-L-prim-light-dark" d="M45,173.2051l-7.5-4.33v-17.32l7.5,4.33Z"/>
    <path id="Path-74" data-name="Path" class="curtain-L-prim-light-dark" d="M120,216.5071l-7.5-4.3311v-17.32l7.5,4.33Z"/>
    <path id="Path-75" data-name="Path" class="curtain-L-prim-light-dark" d="M150,233.827l-7.5-4.33V212.176l7.5,4.33Z"/>
    <path id="Path-76" data-name="Path" class="curtain-L-prim-light-dark" d="M60,181.866l-7.5-4.331v-17.32l7.5,4.33Z"/>
    <path id="Path-77" data-name="Path" class="curtain-L-prim-light-dark" d="M15,155.885l-7.5-4.33V134.234l7.5,4.33Z"/>
    <path id="Path-78" data-name="Path" class="curtain-L-prim-light-dark" d="M90,199.186l-7.5-4.33V177.535l7.5,4.33Z"/>
    <path id="Path-79" data-name="Path" class="curtain-L-prim-light-dark" d="M135,294.449l-7.5-4.33V272.798l7.5,4.33Z"/>
    <path id="Path-80" data-name="Path" class="curtain-L-prim-light-dark" d="M75,259.808l-7.5-4.33V238.157l7.5,4.33Z"/>
    <path id="Path-81" data-name="Path" class="curtain-L-prim-light-dark" d="M30,233.827l-7.5-4.33V212.176l7.5,4.33Z"/>
    <path id="Path-82" data-name="Path" class="curtain-L-prim-light-dark" d="M105,277.1281l-7.5-4.33v-17.32l7.5,4.33Z"/>
    <path id="Path-83" data-name="Path" class="curtain-L-prim-light-dark" d="M45,242.4871l-7.5-4.33v-17.32l7.5,4.33Z"/>
    <path id="Path-84" data-name="Path" class="curtain-L-prim-light-dark" d="M120,285.7891l-7.5-4.3311v-17.32l7.5,4.33Z"/>
    <path id="Path-85" data-name="Path" class="curtain-L-prim-light-dark" d="M150,303.109l-7.5-4.33V281.458l7.5,4.3311Z"/>
    <path id="Path-86" data-name="Path" class="curtain-L-prim-light-dark" d="M60,251.1481l-7.5-4.3311v-17.32l7.5,4.33Z"/>
    <path id="Path-87" data-name="Path" class="curtain-L-prim-light-dark" d="M15,225.167l-7.5-4.33V203.516l7.5,4.33Z"/>
    <path id="Path-88" data-name="Path" class="curtain-L-prim-light-dark" d="M90,268.468l-7.5-4.33V246.817l7.5,4.3311Z"/>
    <path id="Path-89" data-name="Path" class="curtain-L-prim-light-dark" d="M135,363.7311l-7.5-4.33V342.08l7.5,4.33Z"/>
    <path id="Path-90" data-name="Path" class="curtain-L-prim-light-dark" d="M75,329.09l-7.5-4.33V307.439l7.5,4.33Z"/>
    <path id="Path-91" data-name="Path" class="curtain-L-prim-light-dark" d="M30,303.109l-7.5-4.33V281.458l7.5,4.3311Z"/>
    <path id="Path-92" data-name="Path" class="curtain-L-prim-light-dark" d="M105,346.41l-7.5-4.33V324.76l7.5,4.33Z"/>
    <path id="Path-93" data-name="Path" class="curtain-L-prim-light-dark" d="M45,311.769l-7.5-4.33v-17.32l7.5,4.33Z"/>
    <path id="Path-94" data-name="Path" class="curtain-L-prim-light-dark" d="M120,355.071l-7.5-4.331V333.42l7.5,4.33Z"/>
    <path id="Path-95" data-name="Path" class="curtain-L-prim-light-dark" d="M150,372.391l-7.5-4.33V350.74l7.5,4.331Z"/>
    <path id="Path-96" data-name="Path" class="curtain-L-prim-light-dark" d="M60,320.43l-7.5-4.3311v-17.32l7.5,4.33Z"/>
    <path id="Path-97" data-name="Path" class="curtain-L-prim-light-dark" d="M15,294.449l-7.5-4.33V272.798l7.5,4.33Z"/>
    <path id="Path-98" data-name="Path" class="curtain-L-prim-light-dark" d="M90,337.75l-7.5-4.33V316.099L90,320.43Z"/>
    <path id="Path-99" data-name="Path" class="curtain-L-prim-light-dark" d="M135,433.0131l-7.5-4.33V411.3621l7.5,4.33Z"/>
    <path id="Path-100" data-name="Path" class="curtain-L-prim-light-dark" d="M75,398.3721l-7.5-4.33V376.7211l7.5,4.33Z"/>
    <path id="Path-101" data-name="Path" class="curtain-L-prim-light-dark" d="M30,372.391l-7.5-4.33V350.74l7.5,4.331Z"/>
    <path id="Path-102" data-name="Path" class="curtain-L-prim-light-dark" d="M105,415.692l-7.5-4.33v-17.32l7.5,4.33Z"/>
    <path id="Path-103" data-name="Path" class="curtain-L-prim-light-dark" d="M45,381.051l-7.5-4.33v-17.32l7.5,4.33Z"/>
    <path id="Path-104" data-name="Path" class="curtain-L-prim-light-dark" d="M120,424.353l-7.5-4.331v-17.32l7.5,4.33Z"/>
    <path id="Path-105" data-name="Path" class="curtain-L-prim-light-dark" d="M150,441.673l-7.5-4.33V420.022l7.5,4.331Z"/>
    <path id="Path-106" data-name="Path" class="curtain-L-prim-light-dark" d="M60,389.712l-7.5-4.331v-17.32l7.5,4.33Z"/>
    <path id="Path-107" data-name="Path" class="curtain-L-prim-light-dark" d="M15,363.7311l-7.5-4.33V342.08l7.5,4.33Z"/>
    <path id="Path-108" data-name="Path" class="curtain-L-prim-light-dark" d="M90,407.032l-7.5-4.33V385.381l7.5,4.331Z"/>
    <path id="Path-109" data-name="Path" class="curtain-L-prim-light-dark" d="M135,259.808l-7.5-4.33V238.157l7.5,4.33Z"/>
    <path id="Path-110" data-name="Path" class="curtain-L-prim-light-dark" d="M75,225.167l-7.5-4.33V203.516l7.5,4.33Z"/>
    <path id="Path-111" data-name="Path" class="curtain-L-prim-light-dark" d="M30,199.186l-7.5-4.33V177.535l7.5,4.33Z"/>
    <path id="Path-112" data-name="Path" class="curtain-L-prim-light-dark" d="M105,242.4871l-7.5-4.33v-17.32l7.5,4.33Z"/>
    <path id="Path-113" data-name="Path" class="curtain-L-prim-light-dark" d="M45,207.8461l-7.5-4.33v-17.32l7.5,4.33Z"/>
    <path id="Path-114" data-name="Path" class="curtain-L-prim-light-dark" d="M120,251.1481l-7.5-4.3311v-17.32l7.5,4.33Z"/>
    <path id="Path-115" data-name="Path" class="curtain-L-prim-light-dark" d="M150,268.468l-7.5-4.33V246.817l7.5,4.3311Z"/>
    <path id="Path-116" data-name="Path" class="curtain-L-prim-light-dark" d="M60,216.5071l-7.5-4.3311v-17.32l7.5,4.33Z"/>
    <path id="Path-117" data-name="Path" class="curtain-L-prim-light-dark" d="M15,190.526l-7.5-4.33V168.875l7.5,4.33Z"/>
    <path id="Path-118" data-name="Path" class="curtain-L-prim-light-dark" d="M90,233.827l-7.5-4.33V212.176l7.5,4.33Z"/>
    <path id="Path-119" data-name="Path" class="curtain-L-prim-light-dark" d="M135,329.09l-7.5-4.33V307.439l7.5,4.33Z"/>
    <path id="Path-120" data-name="Path" class="curtain-L-prim-light-dark" d="M75,294.449l-7.5-4.33V272.798l7.5,4.33Z"/>
    <path id="Path-121" data-name="Path" class="curtain-L-prim-light-dark" d="M30,268.468l-7.5-4.33V246.817l7.5,4.3311Z"/>
    <path id="Path-122" data-name="Path" class="curtain-L-prim-light-dark" d="M105,311.769l-7.5-4.33v-17.32l7.5,4.33Z"/>
    <path id="Path-123" data-name="Path" class="curtain-L-prim-light-dark" d="M45,277.1281l-7.5-4.33v-17.32l7.5,4.33Z"/>
    <path id="Path-124" data-name="Path" class="curtain-L-prim-light-dark" d="M120,320.43l-7.5-4.3311v-17.32l7.5,4.33Z"/>
    <path id="Path-125" data-name="Path" class="curtain-L-prim-light-dark" d="M150,337.75l-7.5-4.33V316.099L150,320.43Z"/>
    <path id="Path-126" data-name="Path" class="curtain-L-prim-light-dark" d="M60,285.7891l-7.5-4.3311v-17.32l7.5,4.33Z"/>
    <path id="Path-127" data-name="Path" class="curtain-L-prim-light-dark" d="M15,259.808l-7.5-4.33V238.157l7.5,4.33Z"/>
    <path id="Path-128" data-name="Path" class="curtain-L-prim-light-dark" d="M90,303.109l-7.5-4.33V281.458l7.5,4.3311Z"/>
    <path id="Path-129" data-name="Path" class="curtain-L-prim-light-dark" d="M135,398.3721l-7.5-4.33V376.7211l7.5,4.33Z"/>
    <path id="Path-130" data-name="Path" class="curtain-L-prim-light-dark" d="M75,363.7311l-7.5-4.33V342.08l7.5,4.33Z"/>
    <path id="Path-131" data-name="Path" class="curtain-L-prim-light-dark" d="M30,337.75l-7.5-4.33V316.099L30,320.43Z"/>
    <path id="Path-132" data-name="Path" class="curtain-L-prim-light-dark" d="M105,381.051l-7.5-4.33v-17.32l7.5,4.33Z"/>
    <path id="Path-133" data-name="Path" class="curtain-L-prim-light-dark" d="M45,346.41l-7.5-4.33V324.76l7.5,4.33Z"/>
    <path id="Path-134" data-name="Path" class="curtain-L-prim-light-dark" d="M120,389.712l-7.5-4.331v-17.32l7.5,4.33Z"/>
    <path id="Path-135" data-name="Path" class="curtain-L-prim-light-dark" d="M150,407.032l-7.5-4.33V385.381l7.5,4.331Z"/>
    <path id="Path-136" data-name="Path" class="curtain-L-prim-light-dark" d="M60,355.071l-7.5-4.331V333.42l7.5,4.33Z"/>
    <path id="Path-137" data-name="Path" class="curtain-L-prim-light-dark" d="M15,329.09l-7.5-4.33V307.439l7.5,4.33Z"/>
    <path id="Path-138" data-name="Path" class="curtain-L-prim-light-dark" d="M90,372.391l-7.5-4.33V350.74l7.5,4.331Z"/>
    <path id="Path-139" data-name="Path" class="curtain-R-prim-light-dark" d="M185,294.449l7.5-4.33V272.798l-7.5,4.33Z"/>
    <path id="Path-140" data-name="Path" class="curtain-R-prim-light-dark" d="M245,259.808l7.5-4.33V238.157l-7.5,4.33Z"/>
    <path id="Path-141" data-name="Path" class="curtain-R-prim-light-dark" d="M215,277.1281l7.5-4.33v-17.32l-7.5,4.33Z"/>
    <path id="Path-142" data-name="Path" class="curtain-R-prim-light-dark" d="M275,242.4871l7.5-4.33v-17.32l-7.5,4.33Z"/>
    <path id="Path-143" data-name="Path" class="curtain-R-prim-light-dark" d="M200,285.7891l7.5-4.3311v-17.32l-7.5,4.33Z"/>
    <path id="Path-144" data-name="Path" class="curtain-R-prim-light-dark" d="M170,303.109l7.5-4.33V281.458l-7.5,4.3311Z"/>
    <path id="Path-145" data-name="Path" class="curtain-R-prim-light-dark" d="M260,251.1481l7.5-4.3311v-17.32l-7.5,4.33Z"/>
    <path id="Path-146" data-name="Path" class="curtain-R-prim-light-dark" d="M230,268.468l7.5-4.33V246.817l-7.5,4.3311Z"/>
    <path id="Path-147" data-name="Path" class="curtain-R-prim-light-dark" d="M185,363.7311l7.5-4.33V342.08l-7.5,4.33Z"/>
    <path id="Path-148" data-name="Path" class="curtain-R-prim-light-dark" d="M245,329.09l7.5-4.33V307.439l-7.5,4.33Z"/>
    <path id="Path-149" data-name="Path" class="curtain-R-prim-light-dark" d="M215,346.41l7.5-4.33V324.76l-7.5,4.33Z"/>
    <path id="Path-150" data-name="Path" class="curtain-R-prim-light-dark" d="M275,311.769l7.5-4.33v-17.32l-7.5,4.33Z"/>
    <path id="Path-151" data-name="Path" class="curtain-R-prim-light-dark" d="M200,355.071l7.5-4.331V333.42l-7.5,4.33Z"/>
    <path id="Path-152" data-name="Path" class="curtain-R-prim-light-dark" d="M170,372.391l7.5-4.33V350.74l-7.5,4.331Z"/>
    <path id="Path-153" data-name="Path" class="curtain-R-prim-light-dark" d="M260,320.43l7.5-4.3311v-17.32l-7.5,4.33Z"/>
    <path id="Path-154" data-name="Path" class="curtain-R-prim-light-dark" d="M230,337.75l7.5-4.33V316.099L230,320.43Z"/>
    <path id="Path-155" data-name="Path" class="curtain-R-prim-light-dark" d="M185,259.808l7.5-4.33V238.157l-7.5,4.33Z"/>
    <path id="Path-156" data-name="Path" class="curtain-R-prim-light-dark" d="M245,225.167l7.5-4.33V203.516l-7.5,4.33Z"/>
    <path id="Path-157" data-name="Path" class="curtain-R-prim-light-dark" d="M215,242.4871l7.5-4.33v-17.32l-7.5,4.33Z"/>
    <path id="Path-158" data-name="Path" class="curtain-R-prim-light-dark" d="M275,207.8461l7.5-4.33v-17.32l-7.5,4.33Z"/>
    <path id="Path-159" data-name="Path" class="curtain-R-prim-light-dark" d="M200,251.1481l7.5-4.3311v-17.32l-7.5,4.33Z"/>
    <path id="Path-160" data-name="Path" class="curtain-R-prim-light-dark" d="M170,268.468l7.5-4.33V246.817l-7.5,4.3311Z"/>
    <path id="Path-161" data-name="Path" class="curtain-R-prim-light-dark" d="M260,216.5071l7.5-4.3311v-17.32l-7.5,4.33Z"/>
    <path id="Path-162" data-name="Path" class="curtain-R-prim-light-dark" d="M230,233.827l7.5-4.33V212.176l-7.5,4.33Z"/>
    <path id="Path-163" data-name="Path" class="curtain-R-prim-light-dark" d="M185,329.09l7.5-4.33V307.439l-7.5,4.33Z"/>
    <path id="Path-164" data-name="Path" class="curtain-R-prim-light-dark" d="M245,294.449l7.5-4.33V272.798l-7.5,4.33Z"/>
    <path id="Path-165" data-name="Path" class="curtain-R-prim-light-dark" d="M215,311.769l7.5-4.33v-17.32l-7.5,4.33Z"/>
    <path id="Path-166" data-name="Path" class="curtain-R-prim-light-dark" d="M275,277.1281l7.5-4.33v-17.32l-7.5,4.33Z"/>
    <path id="Path-167" data-name="Path" class="curtain-R-prim-light-dark" d="M200,320.43l7.5-4.3311v-17.32l-7.5,4.33Z"/>
    <path id="Path-168" data-name="Path" class="curtain-R-prim-light-dark" d="M170,337.75l7.5-4.33V316.099L170,320.43Z"/>
    <path id="Path-169" data-name="Path" class="curtain-R-prim-light-dark" d="M260,285.7891l7.5-4.3311v-17.32l-7.5,4.33Z"/>
    <path id="Path-170" data-name="Path" class="curtain-R-prim-light-dark" d="M230,303.109l7.5-4.33V281.458l-7.5,4.3311Z"/>
    <path id="Path-171" data-name="Path" class="curtain-R-prim-light-dark" d="M185,398.3721l7.5-4.33V376.7211l-7.5,4.33Z"/>
    <path id="Path-172" data-name="Path" class="curtain-R-prim-light-dark" d="M245,363.7311l7.5-4.33V342.08l-7.5,4.33Z"/>
    <path id="Path-173" data-name="Path" class="curtain-R-prim-light-dark" d="M215,381.051l7.5-4.33v-17.32l-7.5,4.33Z"/>
    <path id="Path-174" data-name="Path" class="curtain-R-prim-light-dark" d="M275,346.41l7.5-4.33V324.76l-7.5,4.33Z"/>
    <path id="Path-175" data-name="Path" class="curtain-R-prim-light-dark" d="M200,389.712l7.5-4.331v-17.32l-7.5,4.33Z"/>
    <path id="Path-176" data-name="Path" class="curtain-R-prim-light-dark" d="M170,407.032l7.5-4.33V385.381l-7.5,4.331Z"/>
    <path id="Path-177" data-name="Path" class="curtain-R-prim-light-dark" d="M260,355.071l7.5-4.331V333.42l-7.5,4.33Z"/>
    <path id="Path-178" data-name="Path" class="curtain-R-prim-light-dark" d="M230,372.391l7.5-4.33V350.74l-7.5,4.331Z"/>
    <path id="Path-179" data-name="Path" class="curtain-R-prim-light-dark" d="M185,433.0131l7.5-4.33V411.3621l-7.5,4.33Z"/>
    <path id="Path-180" data-name="Path" class="curtain-R-prim-light-dark" d="M245,398.3721l7.5-4.33V376.7211l-7.5,4.33Z"/>
    <path id="Path-181" data-name="Path" class="curtain-R-prim-light-dark" d="M305,363.7311l7.5-4.33V342.08l-7.5,4.33Z"/>
    <path id="Path-182" data-name="Path" class="curtain-R-prim-light-dark" d="M215,415.692l7.5-4.33v-17.32l-7.5,4.33Z"/>
    <path id="Path-183" data-name="Path" class="curtain-R-prim-light-dark" d="M275,381.051l7.5-4.33v-17.32l-7.5,4.33Z"/>
    <path id="Path-184" data-name="Path" class="curtain-R-prim-light-dark" d="M200,424.353l7.5-4.331v-17.32l-7.5,4.33Z"/>
    <path id="Path-185" data-name="Path" class="curtain-R-prim-light-dark" d="M170,441.673l7.5-4.33V420.022l-7.5,4.331Z"/>
    <path id="Path-186" data-name="Path" class="curtain-R-prim-light-dark" d="M260,389.712l7.5-4.331v-17.32l-7.5,4.33Z"/>
    <path id="Path-187" data-name="Path" class="curtain-R-prim-light-dark" d="M230,407.032l7.5-4.33V385.381l-7.5,4.331Z"/>
    <path id="Path-188" data-name="Path" class="curtain-R-prim-light-dark" d="M290,372.391l7.5-4.33V350.74l-7.5,4.331Z"/>
    <path id="Path-189" data-name="Path" class="curtain-L-prim-dark" d="M80,141.451v11.547l95,54.8481,5-2.886V199.186Z"/>
  </g>
</svg>
