<svg id="Layer_1" data-name="Layer 1" xmlns="http://www.w3.org/2000/svg" viewBox="0 0 320 568.69">
  <defs>
    <style>
      .top-light {
        fill: #ffc8c6;
      }

      .top-prim {
        fill: #dd8a87;
      }

      .exterior-L-prim {
        fill: #73302e;
      }

      .curtain-R-prim-light {
        fill: #59acd0;
      }

      .curtain-L-prim-light {
        fill: #438fb0;
      }

      .exterior-R-prim {
        fill: #d05752;
      }

      .curtain-R-prim-dark {
        fill: #3e809c;
      }

      .curtain-L-prim-dark {
        fill: #2f5565;
      }

      .curtain-R-prim-light-dark {
        fill: #3999c1;
      }

      .curtain-L-prim-light-dark {
        fill: #467e97;
      }
    </style>
  </defs>
  <title>Artboard 7</title>
  <g id="Group">
    <path id="Path" class="top-light" d="M0,424.352l160-92.376,160,92.376L160,516.728Z"/>
    <path id="Path-2" data-name="Path" class="top-light" d="M290,256.921v-5.774L130,158.771,0,233.827V239.6l160,92.376Z"/>
    <path id="Path-3" data-name="Path" class="top-prim" d="M287.5,437.343,310,424.352l-22.5-12.99Z"/>
    <path id="Path-4" data-name="Path" class="exterior-L-prim" d="M305,427.239l-20-11.547v-5.773l25,14.433Z"/>
    <path id="anchor_80_121.243_210" class="top-light" d="M290,72.169V60.622L185,0,80,60.622V72.169L185,132.79Z"/>
    <path id="Path-5" data-name="Path" class="top-prim" d="M180,308.882l-20,11.547L10,233.827l70-40.415,150,86.603Z"/>
    <path id="Path-6" data-name="Path" class="curtain-R-prim-light" d="M185,311.769l-5-2.887V118.357l5,2.886L290,60.622V256.921L185,317.543Z"/>
    <path id="Path-7" data-name="Path" class="curtain-L-prim-light" d="M80,60.622l105,60.621V311.769L80,251.147Z"/>
    <path id="Path-8" data-name="Path" class="curtain-L-prim-light" d="M0,476.314,160,568.69l5-2.887V513.842l-5,2.886L0,424.352Z"/>
    <path id="Path-9" data-name="Path" class="curtain-L-prim-light" d="M0,430.126l160,92.376,5-2.887V323.316l-5,2.887L0,233.827Z"/>
    <path id="Path-10" data-name="Path" class="curtain-R-prim-light" d="M160,568.69l160-92.376V424.352L160,516.728Z"/>
    <path id="Path-11" data-name="Path" class="curtain-R-prim-light" d="M160,522.502l130-75.056V251.147L160,326.203Z"/>
    <path id="Path-12" data-name="Path" class="exterior-R-prim" d="M80,199.186,15,236.713l-5-2.886,70-40.415Z"/>
    <path id="Path-13" data-name="Path" class="curtain-R-prim-dark" d="M185,173.205l105-60.622V95.263L185,155.884Z"/>
    <path id="Path-14" data-name="Path" class="curtain-R-prim-dark" d="M185,138.564,290,77.942V60.622L185,121.243Z"/>
    <path id="Path-15" data-name="Path" class="curtain-L-prim-dark" d="M185,173.205,80,112.583V95.263l105,60.621Z"/>
    <path id="Path-16" data-name="Path" class="curtain-L-prim-dark" d="M185,138.564,80,77.942V60.622l105,60.621Z"/>
    <path id="Path-17" data-name="Path" class="curtain-R-prim-dark" d="M185,242.487l105-60.622v-17.32L185,225.166Z"/>
    <path id="Path-18" data-name="Path" class="curtain-L-prim-dark" d="M185,242.487,80,181.865v-17.32l105,60.621Z"/>
    <path id="Path-19" data-name="Path" class="curtain-R-prim-dark" d="M185,207.846l105-60.622v-17.32L185,190.525Z"/>
    <path id="Path-20" data-name="Path" class="curtain-L-prim-dark" d="M185,207.846,80,147.224v-17.32l105,60.621Z"/>
    <path id="Path-21" data-name="Path" class="curtain-R-prim-dark" d="M185,277.128l105-60.622v-17.32L185,259.807Z"/>
    <path id="Path-22" data-name="Path" class="curtain-L-prim-dark" d="M185,277.128,80,216.506v-17.32l105,60.621Z"/>
    <path id="Path-23" data-name="Path" class="curtain-R-prim-dark" d="M185,311.769l105-60.622v-17.32L185,294.448Z"/>
    <path id="Path-24" data-name="Path" class="curtain-L-prim-dark" d="M185,311.769,80,251.147v-17.32l105,60.621Z"/>
    <path id="Path-25" data-name="Path" class="curtain-R-prim-dark" d="M160,360.844l130-75.056v-17.32L160,343.523Z"/>
    <path id="Path-26" data-name="Path" class="curtain-L-prim-dark" d="M160,360.844,0,268.468V251.147l160,92.376Z"/>
    <path id="Path-27" data-name="Path" class="curtain-R-prim-dark" d="M160,430.126,290,355.07V337.75L160,412.805Z"/>
    <path id="Path-28" data-name="Path" class="curtain-L-prim-dark" d="M160,430.126,0,337.75V320.429l160,92.376Z"/>
    <path id="Path-29" data-name="Path" class="curtain-R-prim-dark" d="M160,499.408l130-75.056v-17.32L160,482.087Z"/>
    <path id="Path-30" data-name="Path" class="curtain-L-prim-dark" d="M160,499.408,0,407.032V389.711l160,92.376Z"/>
    <path id="Path-31" data-name="Path" class="curtain-R-prim-dark" d="M160,395.485l130-75.056v-17.32L160,378.164Z"/>
    <path id="Path-32" data-name="Path" class="curtain-L-prim-dark" d="M160,395.485,0,303.109V285.788l160,92.376Z"/>
    <path id="Path-33" data-name="Path" class="curtain-R-prim-dark" d="M160,464.767l130-75.056v-17.32L160,447.446Z"/>
    <path id="Path-34" data-name="Path" class="curtain-L-prim-dark" d="M160,464.767,0,372.391V355.07l160,92.376Z"/>
    <path id="Path-35" data-name="Path" class="curtain-R-prim-dark" d="M160,534.049l160-92.376V424.352L160,516.728Z"/>
    <path id="Path-36" data-name="Path" class="curtain-R-prim-dark" d="M160,568.69l160-92.376V458.993L160,551.369Z"/>
    <path id="Path-37" data-name="Path" class="curtain-L-prim-dark" d="M160,534.049,0,441.673V424.352l160,92.376Z"/>
    <path id="Path-38" data-name="Path" class="curtain-L-prim-dark" d="M160,568.69,0,476.314V458.993l160,92.376Z"/>
    <path id="Path-39" data-name="Path" class="curtain-R-prim-light-dark" d="M185,190.525l7.5-4.33v-17.32l-7.5,4.33Z"/>
    <path id="Path-40" data-name="Path" class="curtain-R-prim-light-dark" d="M245,155.884l7.5-4.33v-17.32l-7.5,4.33Z"/>
    <path id="Path-41" data-name="Path" class="curtain-R-prim-light-dark" d="M215,173.205l7.5-4.33V151.554l-7.5,4.33Z"/>
    <path id="Path-42" data-name="Path" class="curtain-R-prim-light-dark" d="M275,138.564l7.5-4.33V116.913l-7.5,4.33Z"/>
    <path id="Path-43" data-name="Path" class="curtain-R-prim-light-dark" d="M200,181.865l7.5-4.33v-17.32l-7.5,4.33Z"/>
    <path id="Path-44" data-name="Path" class="curtain-R-prim-light-dark" d="M260,147.224l7.5-4.33v-17.32l-7.5,4.33Z"/>
    <path id="Path-45" data-name="Path" class="curtain-R-prim-light-dark" d="M230,164.545l7.5-4.33V142.894l-7.5,4.33Z"/>
    <path id="Path-46" data-name="Path" class="curtain-R-prim-light-dark" d="M185,155.884l7.5-4.33v-17.32l-7.5,4.33Z"/>
    <path id="Path-47" data-name="Path" class="curtain-R-prim-light-dark" d="M245,121.243l7.5-4.33V99.593l-7.5,4.33Z"/>
    <path id="Path-48" data-name="Path" class="curtain-R-prim-light-dark" d="M215,138.564l7.5-4.33V116.913l-7.5,4.33Z"/>
    <path id="Path-49" data-name="Path" class="curtain-R-prim-light-dark" d="M275,103.923l7.5-4.33V82.272l-7.5,4.33Z"/>
    <path id="Path-50" data-name="Path" class="curtain-R-prim-light-dark" d="M200,147.224l7.5-4.33v-17.32l-7.5,4.33Z"/>
    <path id="Path-51" data-name="Path" class="curtain-R-prim-light-dark" d="M260,112.583l7.5-4.33V90.933l-7.5,4.33Z"/>
    <path id="Path-52" data-name="Path" class="curtain-R-prim-light-dark" d="M230,129.904l7.5-4.33V108.253l-7.5,4.33Z"/>
    <path id="Path-53" data-name="Path" class="curtain-R-prim-light-dark" d="M185,259.807l7.5-4.33v-17.32l-7.5,4.33Z"/>
    <path id="Path-54" data-name="Path" class="curtain-R-prim-light-dark" d="M245,225.166l7.5-4.33v-17.32l-7.5,4.33Z"/>
    <path id="Path-55" data-name="Path" class="curtain-R-prim-light-dark" d="M215,242.487l7.5-4.33V220.836l-7.5,4.33Z"/>
    <path id="Path-56" data-name="Path" class="curtain-R-prim-light-dark" d="M275,207.846l7.5-4.33V186.195l-7.5,4.33Z"/>
    <path id="Path-57" data-name="Path" class="curtain-R-prim-light-dark" d="M200,251.147l7.5-4.33v-17.32l-7.5,4.33Z"/>
    <path id="Path-58" data-name="Path" class="curtain-R-prim-light-dark" d="M260,216.506l7.5-4.33v-17.32l-7.5,4.33Z"/>
    <path id="Path-59" data-name="Path" class="curtain-R-prim-light-dark" d="M230,233.827l7.5-4.33V212.176l-7.5,4.33Z"/>
    <path id="Path-60" data-name="Path" class="curtain-R-prim-light-dark" d="M185,225.166l7.5-4.33v-17.32l-7.5,4.33Z"/>
    <path id="Path-61" data-name="Path" class="curtain-R-prim-light-dark" d="M245,190.525l7.5-4.33v-17.32l-7.5,4.33Z"/>
    <path id="Path-62" data-name="Path" class="curtain-R-prim-light-dark" d="M215,207.846l7.5-4.33V186.195l-7.5,4.33Z"/>
    <path id="Path-63" data-name="Path" class="curtain-R-prim-light-dark" d="M275,173.205l7.5-4.33V151.554l-7.5,4.33Z"/>
    <path id="Path-64" data-name="Path" class="curtain-R-prim-light-dark" d="M200,216.506l7.5-4.33v-17.32l-7.5,4.33Z"/>
    <path id="Path-65" data-name="Path" class="curtain-R-prim-light-dark" d="M260,181.865l7.5-4.33v-17.32l-7.5,4.33Z"/>
    <path id="Path-66" data-name="Path" class="curtain-R-prim-light-dark" d="M230,199.186l7.5-4.33V177.535l-7.5,4.33Z"/>
    <path id="Path-67" data-name="Path" class="curtain-R-prim-light-dark" d="M185,294.448l7.5-4.33v-17.32l-7.5,4.33Z"/>
    <path id="Path-68" data-name="Path" class="curtain-R-prim-light-dark" d="M245,259.807l7.5-4.33v-17.32l-7.5,4.33Z"/>
    <path id="Path-69" data-name="Path" class="curtain-R-prim-light-dark" d="M215,277.128l7.5-4.33V255.477l-7.5,4.33Z"/>
    <path id="Path-70" data-name="Path" class="curtain-R-prim-light-dark" d="M275,242.487l7.5-4.33V220.836l-7.5,4.33Z"/>
    <path id="Path-71" data-name="Path" class="curtain-R-prim-light-dark" d="M200,285.788l7.5-4.33v-17.32l-7.5,4.33Z"/>
    <path id="Path-72" data-name="Path" class="curtain-R-prim-light-dark" d="M260,251.147l7.5-4.33v-17.32l-7.5,4.33Z"/>
    <path id="Path-73" data-name="Path" class="curtain-R-prim-light-dark" d="M230,268.468l7.5-4.33V246.817l-7.5,4.33Z"/>
    <path id="Path-74" data-name="Path" class="curtain-L-prim-light-dark" d="M185,190.525l-7.5-4.33v-17.32l7.5,4.33Z"/>
    <path id="Path-75" data-name="Path" class="curtain-L-prim-light-dark" d="M185,155.884l-7.5-4.33v-17.32l7.5,4.33Z"/>
    <path id="Path-76" data-name="Path" class="curtain-L-prim-light-dark" d="M125,155.884l-7.5-4.33v-17.32l7.5,4.33Z"/>
    <path id="Path-77" data-name="Path" class="curtain-L-prim-light-dark" d="M125,121.243l-7.5-4.33V99.593l7.5,4.33Z"/>
    <path id="Path-78" data-name="Path" class="curtain-L-prim-light-dark" d="M155,173.205l-7.5-4.33V151.554l7.5,4.33Z"/>
    <path id="Path-79" data-name="Path" class="curtain-L-prim-light-dark" d="M155,138.564l-7.5-4.33V116.913l7.5,4.33Z"/>
    <path id="Path-80" data-name="Path" class="curtain-L-prim-light-dark" d="M95,138.564l-7.5-4.33V116.913l7.5,4.33Z"/>
    <path id="Path-81" data-name="Path" class="curtain-L-prim-light-dark" d="M95,103.923l-7.5-4.33V82.272l7.5,4.33Z"/>
    <path id="Path-82" data-name="Path" class="curtain-L-prim-light-dark" d="M170,181.865l-7.5-4.33v-17.32l7.5,4.33Z"/>
    <path id="Path-83" data-name="Path" class="curtain-L-prim-light-dark" d="M170,147.224l-7.5-4.33v-17.32l7.5,4.33Z"/>
    <path id="Path-84" data-name="Path" class="curtain-L-prim-light-dark" d="M110,147.224l-7.5-4.33v-17.32l7.5,4.33Z"/>
    <path id="Path-85" data-name="Path" class="curtain-L-prim-light-dark" d="M110,112.583l-7.5-4.33V90.933l7.5,4.33Z"/>
    <path id="Path-86" data-name="Path" class="curtain-L-prim-light-dark" d="M140,164.545l-7.5-4.33V142.894l7.5,4.33Z"/>
    <path id="Path-87" data-name="Path" class="curtain-L-prim-light-dark" d="M140,129.904l-7.5-4.33V108.253l7.5,4.33Z"/>
    <path id="Path-88" data-name="Path" class="curtain-L-prim-light-dark" d="M185,259.807l-7.5-4.33v-17.32l7.5,4.33Z"/>
    <path id="Path-89" data-name="Path" class="curtain-L-prim-light-dark" d="M125,225.166l-7.5-4.33v-17.32l7.5,4.33Z"/>
    <path id="Path-90" data-name="Path" class="curtain-L-prim-light-dark" d="M155,242.487l-7.5-4.33V220.836l7.5,4.33Z"/>
    <path id="Path-91" data-name="Path" class="curtain-L-prim-light-dark" d="M95,207.846l-7.5-4.33V186.195l7.5,4.33Z"/>
    <path id="Path-92" data-name="Path" class="curtain-L-prim-light-dark" d="M170,251.147l-7.5-4.33v-17.32l7.5,4.33Z"/>
    <path id="Path-93" data-name="Path" class="curtain-L-prim-light-dark" d="M110,216.506l-7.5-4.33v-17.32l7.5,4.33Z"/>
    <path id="Path-94" data-name="Path" class="curtain-L-prim-light-dark" d="M140,233.827l-7.5-4.33V212.176l7.5,4.33Z"/>
    <path id="Path-95" data-name="Path" class="curtain-L-prim-light-dark" d="M185,225.166l-7.5-4.33v-17.32l7.5,4.33Z"/>
    <path id="Path-96" data-name="Path" class="curtain-L-prim-light-dark" d="M125,190.525l-7.5-4.33v-17.32l7.5,4.33Z"/>
    <path id="Path-97" data-name="Path" class="curtain-L-prim-light-dark" d="M155,207.846l-7.5-4.33V186.195l7.5,4.33Z"/>
    <path id="Path-98" data-name="Path" class="curtain-L-prim-light-dark" d="M95,173.205l-7.5-4.33V151.554l7.5,4.33Z"/>
    <path id="Path-99" data-name="Path" class="curtain-L-prim-light-dark" d="M170,216.506l-7.5-4.33v-17.32l7.5,4.33Z"/>
    <path id="Path-100" data-name="Path" class="curtain-L-prim-light-dark" d="M110,181.865l-7.5-4.33v-17.32l7.5,4.33Z"/>
    <path id="Path-101" data-name="Path" class="curtain-L-prim-light-dark" d="M140,199.186l-7.5-4.33V177.535l7.5,4.33Z"/>
    <path id="Path-102" data-name="Path" class="curtain-L-prim-light-dark" d="M185,294.448l-7.5-4.33v-17.32l7.5,4.33Z"/>
    <path id="Path-103" data-name="Path" class="curtain-L-prim-light-dark" d="M125,259.807l-7.5-4.33v-17.32l7.5,4.33Z"/>
    <path id="Path-104" data-name="Path" class="curtain-L-prim-light-dark" d="M155,277.128l-7.5-4.33V255.477l7.5,4.33Z"/>
    <path id="Path-105" data-name="Path" class="curtain-L-prim-light-dark" d="M95,242.487l-7.5-4.33V220.836l7.5,4.33Z"/>
    <path id="Path-106" data-name="Path" class="curtain-L-prim-light-dark" d="M170,285.788l-7.5-4.33v-17.32l7.5,4.33Z"/>
    <path id="Path-107" data-name="Path" class="curtain-L-prim-light-dark" d="M110,251.147l-7.5-4.33v-17.32l7.5,4.33Z"/>
    <path id="Path-108" data-name="Path" class="curtain-L-prim-light-dark" d="M140,268.468l-7.5-4.33V246.817l7.5,4.33Z"/>
    <path id="Path-109" data-name="Path" class="curtain-R-prim-light-dark" d="M185,329.089l7.5-4.33v-17.32l-7.5,4.33Z"/>
    <path id="Path-110" data-name="Path" class="curtain-R-prim-light-dark" d="M245,294.448l7.5-4.33v-17.32l-7.5,4.33Z"/>
    <path id="Path-111" data-name="Path" class="curtain-R-prim-light-dark" d="M215,311.769l7.5-4.33V290.118l-7.5,4.33Z"/>
    <path id="Path-112" data-name="Path" class="curtain-R-prim-light-dark" d="M275,277.128l7.5-4.33V255.477l-7.5,4.33Z"/>
    <path id="Path-113" data-name="Path" class="curtain-R-prim-light-dark" d="M200,320.429l7.5-4.33v-17.32l-7.5,4.33Z"/>
    <path id="Path-114" data-name="Path" class="curtain-R-prim-light-dark" d="M170,337.75l7.5-4.33V316.099l-7.5,4.33Z"/>
    <path id="Path-115" data-name="Path" class="curtain-R-prim-light-dark" d="M260,285.788l7.5-4.33v-17.32l-7.5,4.33Z"/>
    <path id="Path-116" data-name="Path" class="curtain-R-prim-light-dark" d="M230,303.109l7.5-4.33V281.458l-7.5,4.33Z"/>
    <path id="Path-117" data-name="Path" class="curtain-L-prim-light-dark" d="M135,329.089l-7.5-4.33v-17.32l7.5,4.33Z"/>
    <path id="Path-118" data-name="Path" class="curtain-L-prim-light-dark" d="M75,294.448l-7.5-4.33v-17.32l7.5,4.33Z"/>
    <path id="Path-119" data-name="Path" class="curtain-L-prim-light-dark" d="M30,268.468l-7.5-4.33V246.817l7.5,4.33Z"/>
    <path id="Path-120" data-name="Path" class="curtain-L-prim-light-dark" d="M105,311.769l-7.5-4.33V290.118l7.5,4.33Z"/>
    <path id="Path-121" data-name="Path" class="curtain-L-prim-light-dark" d="M45,277.128l-7.5-4.33V255.477l7.5,4.33Z"/>
    <path id="Path-122" data-name="Path" class="curtain-L-prim-light-dark" d="M120,320.429l-7.5-4.33v-17.32l7.5,4.33Z"/>
    <path id="Path-123" data-name="Path" class="curtain-L-prim-light-dark" d="M150,337.75l-7.5-4.33V316.099l7.5,4.33Z"/>
    <path id="Path-124" data-name="Path" class="curtain-L-prim-light-dark" d="M60,285.788l-7.5-4.33v-17.32l7.5,4.33Z"/>
    <path id="Path-125" data-name="Path" class="curtain-L-prim-light-dark" d="M15,259.807l-7.5-4.33v-17.32l7.5,4.33Z"/>
    <path id="Path-126" data-name="Path" class="curtain-L-prim-light-dark" d="M90,303.109l-7.5-4.33V281.458l7.5,4.33Z"/>
    <path id="Path-127" data-name="Path" class="curtain-L-prim-light-dark" d="M135,398.372l-7.5-4.331v-17.32l7.5,4.33Z"/>
    <path id="Path-128" data-name="Path" class="curtain-L-prim-light-dark" d="M75,363.731,67.5,359.4V342.08l7.5,4.33Z"/>
    <path id="Path-129" data-name="Path" class="curtain-L-prim-light-dark" d="M30,337.75l-7.5-4.33V316.099l7.5,4.33Z"/>
    <path id="Path-130" data-name="Path" class="curtain-L-prim-light-dark" d="M105,381.051l-7.5-4.33V359.4l7.5,4.33Z"/>
    <path id="Path-131" data-name="Path" class="curtain-L-prim-light-dark" d="M45,346.41l-7.5-4.33V324.759l7.5,4.33Z"/>
    <path id="Path-132" data-name="Path" class="curtain-L-prim-light-dark" d="M120,389.711l-7.5-4.33v-17.32l7.5,4.33Z"/>
    <path id="Path-133" data-name="Path" class="curtain-L-prim-light-dark" d="M150,407.032l-7.5-4.33V385.381l7.5,4.33Z"/>
    <path id="Path-134" data-name="Path" class="curtain-L-prim-light-dark" d="M60,355.07l-7.5-4.33V333.42l7.5,4.33Z"/>
    <path id="Path-135" data-name="Path" class="curtain-L-prim-light-dark" d="M15,329.089l-7.5-4.33v-17.32l7.5,4.33Z"/>
    <path id="Path-136" data-name="Path" class="curtain-L-prim-light-dark" d="M90,372.391l-7.5-4.33V350.74l7.5,4.33Z"/>
    <path id="Path-137" data-name="Path" class="curtain-L-prim-light-dark" d="M135,467.654l-7.5-4.331v-17.32l7.5,4.33Z"/>
    <path id="Path-138" data-name="Path" class="curtain-L-prim-light-dark" d="M75,433.013l-7.5-4.331v-17.32l7.5,4.33Z"/>
    <path id="Path-139" data-name="Path" class="curtain-L-prim-light-dark" d="M30,407.032l-7.5-4.33V385.381l7.5,4.33Z"/>
    <path id="Path-140" data-name="Path" class="curtain-L-prim-light-dark" d="M105,450.333l-7.5-4.33V428.682l7.5,4.331Z"/>
    <path id="Path-141" data-name="Path" class="curtain-L-prim-light-dark" d="M45,415.692l-7.5-4.33V394.041l7.5,4.331Z"/>
    <path id="Path-142" data-name="Path" class="curtain-L-prim-light-dark" d="M120,458.993l-7.5-4.33v-17.32l7.5,4.33Z"/>
    <path id="Path-143" data-name="Path" class="curtain-L-prim-light-dark" d="M150,476.314l-7.5-4.33V454.663l7.5,4.33Z"/>
    <path id="Path-144" data-name="Path" class="curtain-L-prim-light-dark" d="M60,424.352l-7.5-4.33v-17.32l7.5,4.33Z"/>
    <path id="Path-145" data-name="Path" class="curtain-L-prim-light-dark" d="M15,398.372l-7.5-4.331v-17.32l7.5,4.33Z"/>
    <path id="Path-146" data-name="Path" class="curtain-L-prim-light-dark" d="M90,441.673l-7.5-4.33V420.022l7.5,4.33Z"/>
    <path id="Path-147" data-name="Path" class="curtain-L-prim-light-dark" d="M135,536.936l-7.5-4.331v-17.32l7.5,4.33Z"/>
    <path id="Path-148" data-name="Path" class="curtain-L-prim-light-dark" d="M75,502.295l-7.5-4.331v-17.32l7.5,4.33Z"/>
    <path id="Path-149" data-name="Path" class="curtain-L-prim-light-dark" d="M30,476.314l-7.5-4.33V454.663l7.5,4.33Z"/>
    <path id="Path-150" data-name="Path" class="curtain-L-prim-light-dark" d="M105,519.615l-7.5-4.33V497.964l7.5,4.331Z"/>
    <path id="Path-151" data-name="Path" class="curtain-L-prim-light-dark" d="M45,484.974l-7.5-4.33V463.323l7.5,4.331Z"/>
    <path id="Path-152" data-name="Path" class="curtain-L-prim-light-dark" d="M120,528.275l-7.5-4.33v-17.32l7.5,4.33Z"/>
    <path id="Path-153" data-name="Path" class="curtain-L-prim-light-dark" d="M150,545.596l-7.5-4.33V523.945l7.5,4.33Z"/>
    <path id="Path-154" data-name="Path" class="curtain-L-prim-light-dark" d="M60,493.634l-7.5-4.33v-17.32l7.5,4.33Z"/>
    <path id="Path-155" data-name="Path" class="curtain-L-prim-light-dark" d="M15,467.654l-7.5-4.331v-17.32l7.5,4.33Z"/>
    <path id="Path-156" data-name="Path" class="curtain-L-prim-light-dark" d="M90,510.955l-7.5-4.33V489.304l7.5,4.33Z"/>
    <path id="Path-157" data-name="Path" class="curtain-L-prim-light-dark" d="M135,363.731l-7.5-4.331V342.08l7.5,4.33Z"/>
    <path id="Path-158" data-name="Path" class="curtain-L-prim-light-dark" d="M75,329.089l-7.5-4.33v-17.32l7.5,4.33Z"/>
    <path id="Path-159" data-name="Path" class="curtain-L-prim-light-dark" d="M30,303.109l-7.5-4.33V281.458l7.5,4.33Z"/>
    <path id="Path-160" data-name="Path" class="curtain-L-prim-light-dark" d="M105,346.41l-7.5-4.33V324.759l7.5,4.33Z"/>
    <path id="Path-161" data-name="Path" class="curtain-L-prim-light-dark" d="M45,311.769l-7.5-4.33V290.118l7.5,4.33Z"/>
    <path id="Path-162" data-name="Path" class="curtain-L-prim-light-dark" d="M120,355.07l-7.5-4.33V333.42l7.5,4.33Z"/>
    <path id="Path-163" data-name="Path" class="curtain-L-prim-light-dark" d="M150,372.391l-7.5-4.33V350.74l7.5,4.33Z"/>
    <path id="Path-164" data-name="Path" class="curtain-L-prim-light-dark" d="M60,320.429l-7.5-4.33v-17.32l7.5,4.33Z"/>
    <path id="Path-165" data-name="Path" class="curtain-L-prim-light-dark" d="M15,294.448l-7.5-4.33v-17.32l7.5,4.33Z"/>
    <path id="Path-166" data-name="Path" class="curtain-L-prim-light-dark" d="M90,337.75l-7.5-4.33V316.099l7.5,4.33Z"/>
    <path id="Path-167" data-name="Path" class="curtain-L-prim-light-dark" d="M135,433.013l-7.5-4.331v-17.32l7.5,4.33Z"/>
    <path id="Path-168" data-name="Path" class="curtain-L-prim-light-dark" d="M75,398.372l-7.5-4.331v-17.32l7.5,4.33Z"/>
    <path id="Path-169" data-name="Path" class="curtain-L-prim-light-dark" d="M30,372.391l-7.5-4.33V350.74l7.5,4.33Z"/>
    <path id="Path-170" data-name="Path" class="curtain-L-prim-light-dark" d="M105,415.692l-7.5-4.33V394.041l7.5,4.33Z"/>
    <path id="Path-171" data-name="Path" class="curtain-L-prim-light-dark" d="M45,381.051l-7.5-4.33V359.4l7.5,4.33Z"/>
    <path id="Path-172" data-name="Path" class="curtain-L-prim-light-dark" d="M120,424.352l-7.5-4.33v-17.32l7.5,4.33Z"/>
    <path id="Path-173" data-name="Path" class="curtain-L-prim-light-dark" d="M150,441.673l-7.5-4.33V420.022l7.5,4.33Z"/>
    <path id="Path-174" data-name="Path" class="curtain-L-prim-light-dark" d="M60,389.711l-7.5-4.33v-17.32l7.5,4.33Z"/>
    <path id="Path-175" data-name="Path" class="curtain-L-prim-light-dark" d="M15,363.731,7.5,359.4V342.08l7.5,4.33Z"/>
    <path id="Path-176" data-name="Path" class="curtain-L-prim-light-dark" d="M90,407.032l-7.5-4.33V385.381l7.5,4.33Z"/>
    <path id="Path-177" data-name="Path" class="curtain-L-prim-light-dark" d="M135,502.295l-7.5-4.331v-17.32l7.5,4.33Z"/>
    <path id="Path-178" data-name="Path" class="curtain-L-prim-light-dark" d="M75,467.654l-7.5-4.331v-17.32l7.5,4.33Z"/>
    <path id="Path-179" data-name="Path" class="curtain-L-prim-light-dark" d="M30,441.673l-7.5-4.33V420.022l7.5,4.33Z"/>
    <path id="Path-180" data-name="Path" class="curtain-L-prim-light-dark" d="M105,484.974l-7.5-4.33V463.323l7.5,4.331Z"/>
    <path id="Path-181" data-name="Path" class="curtain-L-prim-light-dark" d="M45,450.333l-7.5-4.33V428.682l7.5,4.331Z"/>
    <path id="Path-182" data-name="Path" class="curtain-L-prim-light-dark" d="M120,493.634l-7.5-4.33v-17.32l7.5,4.33Z"/>
    <path id="Path-183" data-name="Path" class="curtain-L-prim-light-dark" d="M150,510.955l-7.5-4.33V489.304l7.5,4.33Z"/>
    <path id="Path-184" data-name="Path" class="curtain-L-prim-light-dark" d="M60,458.993l-7.5-4.33v-17.32l7.5,4.33Z"/>
    <path id="Path-185" data-name="Path" class="curtain-L-prim-light-dark" d="M15,433.013l-7.5-4.331v-17.32l7.5,4.33Z"/>
    <path id="Path-186" data-name="Path" class="curtain-L-prim-light-dark" d="M90,476.314l-7.5-4.33V454.663l7.5,4.33Z"/>
    <path id="Path-187" data-name="Path" class="curtain-R-prim-light-dark" d="M185,398.372l7.5-4.331v-17.32l-7.5,4.33Z"/>
    <path id="Path-188" data-name="Path" class="curtain-R-prim-light-dark" d="M245,363.731l7.5-4.331V342.08l-7.5,4.33Z"/>
    <path id="Path-189" data-name="Path" class="curtain-R-prim-light-dark" d="M215,381.051l7.5-4.33V359.4l-7.5,4.331Z"/>
    <path id="Path-190" data-name="Path" class="curtain-R-prim-light-dark" d="M275,346.41l7.5-4.33V324.759l-7.5,4.33Z"/>
    <path id="Path-191" data-name="Path" class="curtain-R-prim-light-dark" d="M200,389.711l7.5-4.33v-17.32l-7.5,4.33Z"/>
    <path id="Path-192" data-name="Path" class="curtain-R-prim-light-dark" d="M170,407.032l7.5-4.33V385.381l-7.5,4.33Z"/>
    <path id="Path-193" data-name="Path" class="curtain-R-prim-light-dark" d="M260,355.07l7.5-4.33V333.42l-7.5,4.33Z"/>
    <path id="Path-194" data-name="Path" class="curtain-R-prim-light-dark" d="M230,372.391l7.5-4.33V350.74l-7.5,4.33Z"/>
    <path id="Path-195" data-name="Path" class="curtain-R-prim-light-dark" d="M185,467.654l7.5-4.331v-17.32l-7.5,4.33Z"/>
    <path id="Path-196" data-name="Path" class="curtain-R-prim-light-dark" d="M245,433.013l7.5-4.331v-17.32l-7.5,4.33Z"/>
    <path id="Path-197" data-name="Path" class="curtain-R-prim-light-dark" d="M215,450.333l7.5-4.33V428.682l-7.5,4.331Z"/>
    <path id="Path-198" data-name="Path" class="curtain-R-prim-light-dark" d="M275,415.692l7.5-4.33V394.041l-7.5,4.331Z"/>
    <path id="Path-199" data-name="Path" class="curtain-R-prim-light-dark" d="M200,458.993l7.5-4.33v-17.32l-7.5,4.33Z"/>
    <path id="Path-200" data-name="Path" class="curtain-R-prim-light-dark" d="M170,476.314l7.5-4.33V454.663l-7.5,4.33Z"/>
    <path id="Path-201" data-name="Path" class="curtain-R-prim-light-dark" d="M260,424.352l7.5-4.33v-17.32l-7.5,4.33Z"/>
    <path id="Path-202" data-name="Path" class="curtain-R-prim-light-dark" d="M230,441.673l7.5-4.33V420.022l-7.5,4.33Z"/>
    <path id="Path-203" data-name="Path" class="curtain-R-prim-light-dark" d="M185,363.73l7.5-4.33V342.08l-7.5,4.33Z"/>
    <path id="Path-204" data-name="Path" class="curtain-R-prim-light-dark" d="M245,329.089l7.5-4.33v-17.32l-7.5,4.33Z"/>
    <path id="Path-205" data-name="Path" class="curtain-R-prim-light-dark" d="M215,346.41l7.5-4.33V324.759l-7.5,4.33Z"/>
    <path id="Path-206" data-name="Path" class="curtain-R-prim-light-dark" d="M275,311.769l7.5-4.33V290.118l-7.5,4.33Z"/>
    <path id="Path-207" data-name="Path" class="curtain-R-prim-light-dark" d="M200,355.07l7.5-4.33V333.42l-7.5,4.33Z"/>
    <path id="Path-208" data-name="Path" class="curtain-R-prim-light-dark" d="M170,372.391l7.5-4.33V350.74l-7.5,4.33Z"/>
    <path id="Path-209" data-name="Path" class="curtain-R-prim-light-dark" d="M260,320.429l7.5-4.33v-17.32l-7.5,4.33Z"/>
    <path id="Path-210" data-name="Path" class="curtain-R-prim-light-dark" d="M230,337.75l7.5-4.33V316.099l-7.5,4.33Z"/>
    <path id="Path-211" data-name="Path" class="curtain-R-prim-light-dark" d="M185,433.013l7.5-4.331v-17.32l-7.5,4.33Z"/>
    <path id="Path-212" data-name="Path" class="curtain-R-prim-light-dark" d="M245,398.372l7.5-4.331v-17.32l-7.5,4.33Z"/>
    <path id="Path-213" data-name="Path" class="curtain-R-prim-light-dark" d="M215,415.692l7.5-4.33V394.041l-7.5,4.331Z"/>
    <path id="Path-214" data-name="Path" class="curtain-R-prim-light-dark" d="M275,381.051l7.5-4.33V359.4l-7.5,4.33Z"/>
    <path id="Path-215" data-name="Path" class="curtain-R-prim-light-dark" d="M200,424.352l7.5-4.33v-17.32l-7.5,4.33Z"/>
    <path id="Path-216" data-name="Path" class="curtain-R-prim-light-dark" d="M170,441.673l7.5-4.33V420.022l-7.5,4.33Z"/>
    <path id="Path-217" data-name="Path" class="curtain-R-prim-light-dark" d="M260,389.711l7.5-4.33v-17.32l-7.5,4.33Z"/>
    <path id="Path-218" data-name="Path" class="curtain-R-prim-light-dark" d="M230,407.032l7.5-4.33V385.381l-7.5,4.33Z"/>
    <path id="Path-219" data-name="Path" class="curtain-R-prim-light-dark" d="M185,502.295l7.5-4.331v-17.32l-7.5,4.33Z"/>
    <path id="Path-220" data-name="Path" class="curtain-R-prim-light-dark" d="M245,467.654l7.5-4.331v-17.32l-7.5,4.33Z"/>
    <path id="Path-221" data-name="Path" class="curtain-R-prim-light-dark" d="M215,484.974l7.5-4.33V463.323l-7.5,4.331Z"/>
    <path id="Path-222" data-name="Path" class="curtain-R-prim-light-dark" d="M275,450.333l7.5-4.33V428.682l-7.5,4.331Z"/>
    <path id="Path-223" data-name="Path" class="curtain-R-prim-light-dark" d="M200,493.634l7.5-4.33v-17.32l-7.5,4.33Z"/>
    <path id="Path-224" data-name="Path" class="curtain-R-prim-light-dark" d="M170,510.955l7.5-4.33V489.304l-7.5,4.33Z"/>
    <path id="Path-225" data-name="Path" class="curtain-R-prim-light-dark" d="M260,458.993l7.5-4.33v-17.32l-7.5,4.33Z"/>
    <path id="Path-226" data-name="Path" class="curtain-R-prim-light-dark" d="M230,476.314l7.5-4.33V454.663l-7.5,4.33Z"/>
    <path id="Path-227" data-name="Path" class="curtain-R-prim-light-dark" d="M185,536.936l7.5-4.331v-17.32l-7.5,4.33Z"/>
    <path id="Path-228" data-name="Path" class="curtain-R-prim-light-dark" d="M245,502.295l7.5-4.331v-17.32l-7.5,4.33Z"/>
    <path id="Path-229" data-name="Path" class="curtain-R-prim-light-dark" d="M305,467.654l7.5-4.331v-17.32l-7.5,4.33Z"/>
    <path id="Path-230" data-name="Path" class="curtain-R-prim-light-dark" d="M215,519.615l7.5-4.33V497.964l-7.5,4.331Z"/>
    <path id="Path-231" data-name="Path" class="curtain-R-prim-light-dark" d="M275,484.974l7.5-4.33V463.323l-7.5,4.331Z"/>
    <path id="Path-232" data-name="Path" class="curtain-R-prim-light-dark" d="M200,528.275l7.5-4.33v-17.32l-7.5,4.33Z"/>
    <path id="Path-233" data-name="Path" class="curtain-R-prim-light-dark" d="M170,545.596l7.5-4.33V523.945l-7.5,4.33Z"/>
    <path id="Path-234" data-name="Path" class="curtain-R-prim-light-dark" d="M260,493.634l7.5-4.33v-17.32l-7.5,4.33Z"/>
    <path id="Path-235" data-name="Path" class="curtain-R-prim-light-dark" d="M230,510.955l7.5-4.33V489.304l-7.5,4.33Z"/>
    <path id="Path-236" data-name="Path" class="curtain-R-prim-light-dark" d="M290,476.314l7.5-4.33V454.663l-7.5,4.33Z"/>
    <path id="Path-237" data-name="Path" class="curtain-L-prim-dark" d="M80,245.374v11.547l95,54.848,5-2.887v-5.773Z"/>
  </g>
</svg>
