<svg id="Layer_1" data-name="Layer 1" xmlns="http://www.w3.org/2000/svg" viewBox="0 0 270 204.96">
  <defs>
    <style>

      .top-dark {
        fill: #c67471;
      }

      .exterior-L-prim {
        fill: #73302f;
      }

      .exterior-R-prim {
        fill: #d15752;
      }

      .top-prim {
        fill: #dd8987;
      }

      .cls-3 {
        fill: #Aababa;
      }

      .cls-4 {
        fill: #d2d2d2;
      }

      .cls-5 {
        fill: #f9f9fa;
      }

      .cls-6 {
        fill: #474747;
      }

      .cls-7 {
        fill: #fff;
      }

      .exterior-L-dark {
        fill: #512220;
      }

      .exterior-R-dark {
        fill: #a74d4a;
      }
    </style>
  </defs>
  <title>Artboard 13</title>
  <g id="Group">
    <path id="Path" class="cls-1" d="M0,141.45l110,63.51,160-92.37L160,49.08Z"/>
    <g id="Group-2" data-name="Group">
      <path id="Path-2" data-name="Path" class="top-dark" d="M0,124.13l110,63.51L270,95.27,160,31.76Z"/>
      <path id="Path-3" data-name="Path" class="exterior-L-prim" d="M270,63.51,242.5,79.39,160,31.76V0Z"/>
      <path id="Path-4" data-name="Path" class="exterior-R-prim" d="M160,31.76V0L0,92.38l27.5,15.88Z"/>
      <path id="Path-5" data-name="Path" class="exterior-R-prim" d="M110,204.96l160-92.37V63.51L110,155.89Z"/>
      <path id="Path-6" data-name="Path" class="exterior-L-prim" d="M0,141.45V92.38l110,63.51v49.07Z"/>
      <path id="Path-7" data-name="Path" class="top-prim" d="M0,92.38H10l100,57.73v5.78Z"/>
      <path id="Path-8" data-name="Path" class="top-prim" d="M160,5.78V0L270,63.51H260Z"/>
      <path id="Path-9" data-name="Path" class="top-prim" d="M10,92.38,160,5.78V0L0,92.38Z"/>
      <path id="Path-10" data-name="Path" class="top-prim" d="M110,150.11v5.78L270,63.51H260Z"/>
    </g>
    <path id="Path-11" data-name="Path" class="top-prim" d="M75,75.06l70-40.42L200,66.4l-70,40.41Z"/>
    <path id="Path-12" data-name="Path" class="exterior-L-prim" d="M75,75.06v28.87l55,31.75V106.81Z"/>
    <path id="Path-13" data-name="Path" class="exterior-R-prim" d="M200,66.4V95.27l-70,40.41V106.81Z"/>
    <path id="Path-14" data-name="Path" class="top-dark" d="M85,75.06l45,25.98L190,66.4,145,40.42Z"/>
    <path id="Path-15" data-name="Path" class="exterior-L-prim" d="M145,40.42v5.77l40,23.09,5-2.88Z"/>
    <path id="Path-16" data-name="Path" class="exterior-R-prim" d="M85,75.06l60-34.64v5.77L90,77.94Z"/>
    <g id="Group-3" data-name="Group">
      <path id="Path-17" data-name="Path" class="cls-5" d="M117.5,116.45l-11.93,6.89L73.74,104.97l11.93-6.89Z"/>
      <path id="Path-18" data-name="Path" class="cls-4" d="M105.57,123.34v13.78l11.93-6.89V116.45Z"/>
      <path id="Path-19" data-name="Path" class="cls-3" d="M73.74,104.97v13.78l31.83,18.37V123.34Z"/>
      <path id="Path-20" data-name="Path" class="cls-6" d="M103.58,124.49l-7.96-4.59v9.18l7.96,4.6Z"/>
      <path id="Path-21" data-name="Path" class="cls-6" d="M93.63,118.75l-7.96-4.59v9.18l7.96,4.6Z"/>
      <path id="Path-22" data-name="Path" class="cls-6" d="M83.69,113.01l-7.96-4.6v9.19l7.96,4.59Z"/>
      <g id="Group-4" data-name="Group">
        <ellipse id="Ellipse" class="cls-3" cx="105.8497" cy="116.0236" rx="4.2623" ry="2.4608"/>
        <rect id="Rectangle" class="cls-3" x="101.587" y="113.878" width="8.525" height="2.145"/>
        <ellipse id="Ellipse-2" data-name="Ellipse" class="cls-7" cx="105.8497" cy="113.8782" rx="4.2623" ry="2.4608"/>
      </g>
      <g id="Group-5" data-name="Group">
        <path id="Ellipse-3" data-name="Ellipse" class="cls-3" d="M95.5065,107.7757c2.354,0,4.2623,1.1018,4.2623,2.4608s-1.9083,2.4609-4.2623,2.4609-4.2623-1.1018-4.2623-2.4609S93.1525,107.7757,95.5065,107.7757Z"/>
        <rect id="Rectangle-2" data-name="Rectangle" class="cls-3" x="91.244" y="108.091" width="8.525" height="2.145"/>
        <path id="Ellipse-4" data-name="Ellipse" class="cls-7" d="M95.5065,105.63c2.354,0,4.2623,1.1018,4.2623,2.4609s-1.9083,2.4608-4.2623,2.4608-4.2623-1.1018-4.2623-2.4608S93.1525,105.63,95.5065,105.63Z"/>
      </g>
      <g id="Group-6" data-name="Group">
        <ellipse id="Ellipse-5" data-name="Ellipse" class="cls-3" cx="85.1633" cy="104.4495" rx="4.2623" ry="2.4608"/>
        <rect id="Rectangle-3" data-name="Rectangle" class="cls-3" x="80.901" y="102.304" width="8.525" height="2.145"/>
        <ellipse id="Ellipse-6" data-name="Ellipse" class="cls-7" cx="85.1633" cy="102.3041" rx="4.2623" ry="2.4608"/>
      </g>
      <path id="Path-23" data-name="Path" class="cls-4" d="M115.51,129.08l-1.99-3.44v2.3Z"/>
    </g>
    <path id="Path-24" data-name="Path" class="exterior-L-dark" d="M95,176.98v-7.55a3.8633,3.8633,0,0,0-1.73-3L11.73,119.36c-.95-.55-1.73-.1-1.73,1v7.55a3.8633,3.8633,0,0,0,1.73,3l81.54,47.07C94.22,178.53,95,178.08,95,176.98Z"/>
    <path id="Path-25" data-name="Path" class="exterior-R-dark" d="M147.5,163.99v-7.55a3.8633,3.8633,0,0,1,1.73-3l81.54-47.07c.95-.55,1.73-.11,1.73,1v7.55a3.8633,3.8633,0,0,1-1.73,3l-81.54,47.07C148.28,165.54,147.5,165.09,147.5,163.99Z"/>
  </g>
</svg>
