<svg id="Layer_1" data-name="Layer 1" xmlns="http://www.w3.org/2000/svg" viewBox="0 0 260 542.7091">
  <defs>
    <style>
      .cls-1 {
        fill: #d1d1d1;
      }

      .cls-2 {
        fill: #e8e8e8;
      }

      .top-dark {
        fill: #c67471;
      }

      .exterior-L-prim {
        fill: #73302e;
      }

      .exterior-R-prim {
        fill: #d05752;
      }

      .window-L-prim {
        fill: #4d3b24;
      }

      .cls-3 {
        fill: #fff;
      }

      .window-R-prim {
        fill: #bd9664;
      }
    </style>
  </defs>
  <title>Artboard 14</title>
  <g id="root">
    <path id="Path" class="cls-1" d="M245,121.2435l7.5,4.33V119.8l-5-2.8868-2.5,1.4434Z"/>
    <path id="Path-2" data-name="Path" class="cls-2" d="M250,121.2435l-5-2.8868,2.5-1.4434,5,2.8868Z"/>
    <path id="Path-3" data-name="Path" class="cls-1" d="M207.5,99.5928l7.5,4.33V98.15l-5-2.8868-2.5,1.4434Z"/>
    <path id="Path-4" data-name="Path" class="cls-2" d="M212.5,99.5928l-5-2.8867,2.5-1.4434,5,2.8868Z"/>
    <path id="Path-5" data-name="Path" class="cls-1" d="M48.75,136.3989l-7.5,4.33v-5.7735l5-2.8867,2.5,1.4433Z"/>
    <path id="Path-6" data-name="Path" class="cls-2" d="M43.75,136.3989l5-2.8868-2.5-1.4434-5,2.8868Z"/>
    <path id="Path-7" data-name="Path" class="cls-1" d="M15,155.8845l-7.5,4.33v-5.7735l5-2.8868,2.5,1.4434Z"/>
    <path id="Path-8" data-name="Path" class="cls-2" d="M10,155.8844l5-2.8867-2.5-1.4434-5,2.8868Z"/>
    <g id="Group-2" data-name="Group">
      <path id="Path-9" data-name="Path" class="cls-1" d="M150,8.66l-7.5,4.33V7.2169l5-2.8867L150,5.7736Z"/>
      <path id="Path-10" data-name="Path" class="cls-2" d="M145,8.66l5-2.8868L147.5,4.33l-5,2.8867Z"/>
      <path id="Path-11" data-name="Path" class="cls-1" d="M170,8.66l7.5,4.33V7.2169l-5-2.8867L170,5.7736Z"/>
      <path id="Path-12" data-name="Path" class="cls-2" d="M175,8.66l-5-2.8867L172.5,4.33l5,2.8868Z"/>
      <path id="Path-13" data-name="Path" class="cls-1" d="M245,51.9616l7.5,4.33V50.5182l-5-2.8868L245,49.0748Z"/>
      <path id="Path-14" data-name="Path" class="cls-2" d="M250,51.9616l-5-2.8868,2.5-1.4434,5,2.8868Z"/>
      <path id="Path-15" data-name="Path" class="cls-1" d="M207.5,30.3109l7.5,4.33V28.8676l-5-2.8868-2.5,1.4434Z"/>
      <path id="Path-16" data-name="Path" class="cls-2" d="M212.5,30.3109l-5-2.8867,2.5-1.4434,5,2.8868Z"/>
      <path id="Path-17" data-name="Path" class="cls-1" d="M116.25,28.1459l-7.5,4.33V26.7025l5-2.8868,2.5,1.4434Z"/>
      <path id="Path-18" data-name="Path" class="cls-2" d="M111.25,28.1459l5-2.8868-2.5-1.4434-5,2.8868Z"/>
      <path id="Path-19" data-name="Path" class="cls-1" d="M82.5,47.6314l-7.5,4.33V46.188l5-2.8867,2.5,1.4434Z"/>
      <path id="Path-20" data-name="Path" class="cls-2" d="M77.5,47.6314l5-2.8867L80,43.3013l-5,2.8868Z"/>
      <path id="Path-21" data-name="Path" class="cls-1" d="M48.75,67.117l-7.5,4.33V65.6736l5-2.8867,2.5,1.4433Z"/>
      <path id="Path-22" data-name="Path" class="cls-2" d="M43.75,67.117l5-2.8868-2.5-1.4434-5,2.8868Z"/>
      <path id="Path-23" data-name="Path" class="cls-1" d="M15,86.6026l-7.5,4.33V85.1592l5-2.8868L15,83.7158Z"/>
      <path id="Path-24" data-name="Path" class="cls-2" d="M10,86.6025l5-2.8867-2.5-1.4434-5,2.8868Z"/>
    </g>
    <path id="Path-25" data-name="Path" class="cls-2" d="M99.8757,542.6445,260,450.3331l-99.802-57.67L0,484.6948Z"/>
    <path id="anchor_0_150.111_260" class="top-dark" d="M100,161.6581l160-92.376V57.735L160,0,0,92.376v11.5471Z"/>
    <path id="Path-26" data-name="Path" class="exterior-L-prim" d="M105,539.8224l-5,2.8867L0,484.9741V92.376l100,57.7351,5-2.8868Z"/>
    <path id="Path-27" data-name="Path" class="exterior-R-prim" d="M260,450.3331l-160,92.376V150.1111L260,57.735Z"/>
    <path id="Path-28" data-name="Path" class="window-L-prim" d="M85,245.3738l-13.75-7.9386V208.5677L85,216.5062Z"/>
    <path id="Path-29" data-name="Path" class="window-L-prim" d="M85,176.0918l-13.75-7.9385V139.2857L85,147.2243Z"/>
    <path id="Path-30" data-name="Path" class="window-L-prim" d="M85,314.6558l-13.75-7.9386V277.85L85,285.7883Z"/>
    <path id="Path-31" data-name="Path" class="window-L-prim" d="M85,418.5788,71.25,410.64V381.7728L85,389.7113Z"/>
    <path id="Path-32" data-name="Path" class="window-L-prim" d="M85,522.5019l-13.75-7.9386V485.6958L85,493.6344Z"/>
    <path id="Path-33" data-name="Path" class="window-L-prim" d="M85,280.0148l-13.75-7.9386V243.2087L85,251.1473Z"/>
    <path id="Path-34" data-name="Path" class="window-L-prim" d="M85,210.7328l-13.75-7.9385V173.9268L85,181.8653Z"/>
    <path id="Path-35" data-name="Path" class="window-L-prim" d="M85,383.9378l-13.75-7.9385V347.1317L85,355.07Z"/>
    <path id="Path-36" data-name="Path" class="window-L-prim" d="M85,487.8609l-13.75-7.9386V451.0548L85,458.9934Z"/>
    <path id="Path-37" data-name="Path" class="window-L-prim" d="M85,349.2968l-13.75-7.9386V312.4907L85,320.4293Z"/>
    <path id="Path-38" data-name="Path" class="window-L-prim" d="M85,453.22l-13.75-7.9386V416.4138L85,424.3523Z"/>
    <path id="Path-39" data-name="Path" class="window-L-prim" d="M47.5,223.7231l-13.75-7.9385V186.917l13.75,7.9386Z"/>
    <path id="Path-40" data-name="Path" class="window-L-prim" d="M47.5,154.4412l-13.75-7.9386V117.6351l13.75,7.9386Z"/>
    <path id="Path-41" data-name="Path" class="window-L-prim" d="M47.5,293.0052l-13.75-7.9386V256.1991l13.75,7.9385Z"/>
    <path id="Path-42" data-name="Path" class="window-L-prim" d="M47.5,396.9282,33.75,388.99V360.1221l13.75,7.9386Z"/>
    <path id="Path-43" data-name="Path" class="window-L-prim" d="M47.5,500.8513l-13.75-7.9386V464.0452l13.75,7.9386Z"/>
    <path id="Path-44" data-name="Path" class="window-L-prim" d="M47.5,258.3641l-13.75-7.9385V221.5581l13.75,7.9385Z"/>
    <path id="Path-45" data-name="Path" class="window-L-prim" d="M47.5,189.0822l-13.75-7.9386V152.2761l13.75,7.9386Z"/>
    <path id="Path-46" data-name="Path" class="window-L-prim" d="M47.5,362.2872l-13.75-7.9386V325.4811L47.5,333.42Z"/>
    <path id="Path-47" data-name="Path" class="window-L-prim" d="M47.5,466.21l-13.75-7.9386V429.4042l13.75,7.9385Z"/>
    <path id="Path-48" data-name="Path" class="window-L-prim" d="M47.5,327.6462l-13.75-7.9386V290.84l13.75,7.9386Z"/>
    <path id="Path-49" data-name="Path" class="window-L-prim" d="M47.5,431.5692l-13.75-7.9385V394.7631l13.75,7.9386Z"/>
    <path id="Path-50" data-name="Path" class="window-L-prim" d="M10,202.0725,0,196.299V167.4315l10,5.7735Z"/>
    <path id="Path-51" data-name="Path" class="window-L-prim" d="M10,132.7906,0,127.0171V98.15l10,5.7735Z"/>
    <path id="Path-52" data-name="Path" class="window-L-prim" d="M10,271.3545,0,265.581V236.7135l10,5.7735Z"/>
    <path id="Path-53" data-name="Path" class="window-L-prim" d="M10,375.2776,0,369.5041V340.6366L10,346.41Z"/>
    <path id="Path-54" data-name="Path" class="window-L-prim" d="M10,479.2006,0,473.4271V444.56l10,5.7735Z"/>
    <path id="Path-55" data-name="Path" class="window-L-prim" d="M10,236.7135,0,230.94V202.0725l10,5.7735Z"/>
    <path id="Path-56" data-name="Path" class="window-L-prim" d="M10,167.4316,0,161.6581V132.7906l10,5.7735Z"/>
    <path id="Path-57" data-name="Path" class="window-L-prim" d="M10,340.6366,0,334.8631V305.9955l10,5.7735Z"/>
    <path id="Path-58" data-name="Path" class="window-L-prim" d="M10,444.56,0,438.7861V409.9186l10,5.7735Z"/>
    <path id="Path-59" data-name="Path" class="window-L-prim" d="M10,305.9955,0,300.222V271.3545l10,5.7735Z"/>
    <path id="Path-60" data-name="Path" class="window-L-prim" d="M10,409.9186,0,404.1451V375.2776l10,5.7735Z"/>
    <path id="Path-61" data-name="Path" class="window-L-prim" d="M100,254.034l-10-5.7735V219.393l10,5.7735Z"/>
    <path id="Path-62" data-name="Path" class="window-L-prim" d="M100,184.7521l-10-5.7735V150.1111l10,5.7735Z"/>
    <path id="Path-63" data-name="Path" class="window-L-prim" d="M100,323.316l-10-5.7735V288.675l10,5.7735Z"/>
    <path id="Path-64" data-name="Path" class="window-L-prim" d="M100,427.2391l-10-5.7735V392.5981l10,5.7735Z"/>
    <path id="Path-65" data-name="Path" class="window-L-prim" d="M100,531.1622l-10-5.7735V496.5211l10,5.7735Z"/>
    <path id="Path-66" data-name="Path" class="window-L-prim" d="M100,288.675l-10-5.7735V254.034l10,5.7735Z"/>
    <path id="Path-67" data-name="Path" class="window-L-prim" d="M100,219.3931,90,213.62V184.7521l10,5.7735Z"/>
    <path id="Path-68" data-name="Path" class="window-L-prim" d="M100,392.5981l-10-5.7735V357.9571l10,5.7735Z"/>
    <path id="Path-69" data-name="Path" class="window-L-prim" d="M100,496.5211l-10-5.7735V461.88l10,5.7735Z"/>
    <path id="Path-70" data-name="Path" class="window-L-prim" d="M100,357.9571l-10-5.7735V323.316l10,5.7735Z"/>
    <path id="Path-71" data-name="Path" class="window-L-prim" d="M100,461.88l-10-5.7735V427.2391l10,5.7735Z"/>
    <path id="Path-72" data-name="Path" class="window-L-prim" d="M66.25,234.5484,52.5,226.61V197.7424l13.75,7.9385Z"/>
    <path id="Path-73" data-name="Path" class="window-L-prim" d="M66.25,165.2665,52.5,157.328V128.46l13.75,7.9386Z"/>
    <path id="Path-74" data-name="Path" class="window-L-prim" d="M66.25,303.8305,52.5,295.8919V267.0244l13.75,7.9386Z"/>
    <path id="Path-75" data-name="Path" class="window-L-prim" d="M66.25,407.7535,52.5,399.815V370.9474l13.75,7.9386Z"/>
    <path id="Path-76" data-name="Path" class="window-L-prim" d="M66.25,511.6766,52.5,503.738V474.8705l13.75,7.9386Z"/>
    <path id="Path-77" data-name="Path" class="window-L-prim" d="M66.25,269.19,52.5,261.2509V232.3834l13.75,7.9385Z"/>
    <path id="Path-78" data-name="Path" class="window-L-prim" d="M66.25,199.9075,52.5,191.969V163.1014L66.25,171.04Z"/>
    <path id="Path-79" data-name="Path" class="window-L-prim" d="M66.25,373.1125,52.5,365.174V336.3064l13.75,7.9386Z"/>
    <path id="Path-80" data-name="Path" class="window-L-prim" d="M66.25,477.0356,52.5,469.097V440.23l13.75,7.9386Z"/>
    <path id="Path-81" data-name="Path" class="window-L-prim" d="M66.25,338.4715,52.5,330.5329V301.6654l13.75,7.9386Z"/>
    <path id="Path-82" data-name="Path" class="window-L-prim" d="M66.25,442.3946,52.5,434.456V405.5885l13.75,7.9385Z"/>
    <path id="Path-83" data-name="Path" class="window-L-prim" d="M28.75,212.8978,15,204.9592V176.0917L28.75,184.03Z"/>
    <path id="Path-84" data-name="Path" class="window-L-prim" d="M28.75,143.6159,15,135.6773V106.81l13.75,7.9386Z"/>
    <path id="Path-85" data-name="Path" class="window-L-prim" d="M28.75,282.18,15,274.2413V245.3738l13.75,7.9385Z"/>
    <path id="Path-86" data-name="Path" class="window-L-prim" d="M28.75,386.1029,15,378.1643V349.2968l13.75,7.9386Z"/>
    <path id="Path-87" data-name="Path" class="window-L-prim" d="M28.75,490.026,15,482.0874V453.22l13.75,7.9385Z"/>
    <path id="Path-88" data-name="Path" class="window-L-prim" d="M28.75,247.5388,15,239.6V210.7327l13.75,7.9386Z"/>
    <path id="Path-89" data-name="Path" class="window-L-prim" d="M28.75,178.2569,15,170.3183V141.4508l13.75,7.9386Z"/>
    <path id="Path-90" data-name="Path" class="window-L-prim" d="M28.75,351.4619,15,343.5233V314.6558l13.75,7.9386Z"/>
    <path id="Path-91" data-name="Path" class="window-L-prim" d="M28.75,455.3849,15,447.4464V418.5789l13.75,7.9385Z"/>
    <path id="Path-92" data-name="Path" class="window-L-prim" d="M28.75,316.8209,15,308.8823V280.0148l13.75,7.9385Z"/>
    <path id="Path-93" data-name="Path" class="window-L-prim" d="M28.75,420.7439,15,412.8054V383.9378l13.75,7.9386Z"/>
    <path id="Path-94" data-name="Path" class="cls-1" d="M87.5,538.379l-5-2.8867V142.8942l2.5-1.4434,5,2.8868V536.9357Z"/>
    <path id="Path-95" data-name="Path" class="cls-1" d="M52.5,515.285,50,516.7284l-5-2.9514V121.2436l2.5-1.3788,5,2.8868Z"/>
    <path id="Path-96" data-name="Path" class="cls-1" d="M12.5,495.0777l-5-2.8867V99.5929L10,98.15l5,2.8867V493.6344Z"/>
    <path id="Path-97" data-name="Path" class="cls-3" d="M12.5,495.0777l2.5-1.4433V101.0363L12.5,102.48Z"/>
    <path id="Path-98" data-name="Path" class="cls-3" d="M50,516.7284l2.5-1.4434V122.6869L50,124.13Z"/>
    <path id="Path-99" data-name="Path" class="cls-3" d="M87.5,538.379l2.5-1.4434V144.3376l-2.5,1.4433Z"/>
    <path id="Path-100" data-name="Path" class="window-R-prim" d="M115,245.3737l12.5-7.2168V209.2894L115,216.5062Z"/>
    <path id="Path-101" data-name="Path" class="window-R-prim" d="M115,176.0918l12.5-7.2168V140.0074L115,147.2243Z"/>
    <path id="Path-102" data-name="Path" class="window-R-prim" d="M115,314.6558l12.5-7.2169V278.5714L115,285.7883Z"/>
    <path id="Path-103" data-name="Path" class="window-R-prim" d="M115,383.9378l12.5-7.2169V347.8534L115,355.07Z"/>
    <path id="Path-104" data-name="Path" class="window-R-prim" d="M115,453.22l12.5-7.2169V417.1355L115,424.3523Z"/>
    <path id="Path-105" data-name="Path" class="window-R-prim" d="M115,522.5019l12.5-7.2169V486.4175L115,493.6343Z"/>
    <path id="Path-106" data-name="Path" class="window-R-prim" d="M115,280.0148l12.5-7.2169V243.93L115,251.1472Z"/>
    <path id="Path-107" data-name="Path" class="window-R-prim" d="M115,210.7328l12.5-7.2168V174.6485L115,181.8653Z"/>
    <path id="Path-108" data-name="Path" class="window-R-prim" d="M115,349.2968l12.5-7.2169V313.2124L115,320.4293Z"/>
    <path id="Path-109" data-name="Path" class="window-R-prim" d="M115,418.5788l12.5-7.2168V382.4944L115,389.7113Z"/>
    <path id="Path-110" data-name="Path" class="window-R-prim" d="M115,487.8609l12.5-7.2169V451.7765L115,458.9933Z"/>
    <path id="Path-111" data-name="Path" class="window-R-prim" d="M215,187.6387l12.5-7.2169V151.5543L215,158.7712Z"/>
    <path id="Path-112" data-name="Path" class="window-R-prim" d="M215,118.3568l12.5-7.2169V82.2724L215,89.4893Z"/>
    <path id="Path-113" data-name="Path" class="window-R-prim" d="M215,256.9207l12.5-7.2168V220.8364L215,228.0532Z"/>
    <path id="Path-114" data-name="Path" class="window-R-prim" d="M215,326.2028l12.5-7.2169V290.1184L215,297.3352Z"/>
    <path id="Path-115" data-name="Path" class="window-R-prim" d="M215,395.4848l12.5-7.2168V359.4L215,366.6173Z"/>
    <path id="Path-116" data-name="Path" class="window-R-prim" d="M215,464.7668l12.5-7.2168V428.6824L215,435.8993Z"/>
    <path id="Path-117" data-name="Path" class="window-R-prim" d="M215,222.28l12.5-7.2168V186.1953L215,193.4122Z"/>
    <path id="Path-118" data-name="Path" class="window-R-prim" d="M215,152.9978l12.5-7.2169V116.9134L215,124.13Z"/>
    <path id="Path-119" data-name="Path" class="window-R-prim" d="M215,291.5617l12.5-7.2168V255.4774L215,262.6942Z"/>
    <path id="Path-120" data-name="Path" class="window-R-prim" d="M215,360.8438l12.5-7.2169V324.7594L215,331.9763Z"/>
    <path id="Path-121" data-name="Path" class="window-R-prim" d="M215,430.1258l12.5-7.2168V394.0414L215,401.2583Z"/>
    <path id="Path-122" data-name="Path" class="window-R-prim" d="M150,225.1665l11.25-6.4952V189.8038L150,196.299Z"/>
    <path id="Path-123" data-name="Path" class="window-R-prim" d="M150,155.8846l11.25-6.4952V120.5219L150,127.017Z"/>
    <path id="Path-124" data-name="Path" class="window-R-prim" d="M150,294.4485l11.25-6.4952V259.0858L150,265.581Z"/>
    <path id="Path-125" data-name="Path" class="window-R-prim" d="M150,363.7306l11.25-6.4952V328.3678L150,334.863Z"/>
    <path id="Path-126" data-name="Path" class="window-R-prim" d="M150,433.0126l11.25-6.4952V397.65L150,404.1451Z"/>
    <path id="Path-127" data-name="Path" class="window-R-prim" d="M150,502.2946l11.25-6.4952V466.9319L150,473.4271Z"/>
    <path id="Path-128" data-name="Path" class="window-R-prim" d="M150,259.8075l11.25-6.4952V224.4448L150,230.94Z"/>
    <path id="Path-129" data-name="Path" class="window-R-prim" d="M150,190.5256l11.25-6.4952V155.1629L150,161.6581Z"/>
    <path id="Path-130" data-name="Path" class="window-R-prim" d="M150,329.09l11.25-6.4951V293.7268L150,300.222Z"/>
    <path id="Path-131" data-name="Path" class="window-R-prim" d="M150,398.3716l11.25-6.4952V363.0089L150,369.504Z"/>
    <path id="Path-132" data-name="Path" class="window-R-prim" d="M150,467.6536l11.25-6.4952V432.2909L150,438.7861Z"/>
    <path id="Path-133" data-name="Path" class="window-R-prim" d="M182.5,206.4026l11.25-6.4952V171.04l-11.25,6.4952Z"/>
    <path id="Path-134" data-name="Path" class="window-R-prim" d="M182.5,137.1207l11.25-6.4952V101.758l-11.25,6.4952Z"/>
    <path id="Path-135" data-name="Path" class="window-R-prim" d="M182.5,275.6846l11.25-6.4951V240.3219l-11.25,6.4952Z"/>
    <path id="Path-136" data-name="Path" class="window-R-prim" d="M182.5,344.9667l11.25-6.4952V309.604l-11.25,6.4951Z"/>
    <path id="Path-137" data-name="Path" class="window-R-prim" d="M182.5,414.2487l11.25-6.4952V378.886l-11.25,6.4952Z"/>
    <path id="Path-138" data-name="Path" class="window-R-prim" d="M182.5,483.5307l11.25-6.4952V448.168l-11.25,6.4952Z"/>
    <path id="Path-139" data-name="Path" class="window-R-prim" d="M182.5,241.0436l11.25-6.4952V205.6809l-11.25,6.4952Z"/>
    <path id="Path-140" data-name="Path" class="window-R-prim" d="M182.5,171.7617l11.25-6.4952V136.399l-11.25,6.4952Z"/>
    <path id="Path-141" data-name="Path" class="window-R-prim" d="M182.5,310.3256l11.25-6.4951V274.9629l-11.25,6.4952Z"/>
    <path id="Path-142" data-name="Path" class="window-R-prim" d="M182.5,379.6077l11.25-6.4952V344.245L182.5,350.74Z"/>
    <path id="Path-143" data-name="Path" class="window-R-prim" d="M182.5,448.89l11.25-6.4952V413.527l-11.25,6.4952Z"/>
    <path id="Path-144" data-name="Path" class="window-R-prim" d="M132.5,235.27l12.5-7.2168V199.1857l-12.5,7.2169Z"/>
    <path id="Path-145" data-name="Path" class="window-R-prim" d="M132.5,165.9882l12.5-7.2169V129.9038l-12.5,7.2169Z"/>
    <path id="Path-146" data-name="Path" class="window-R-prim" d="M132.5,304.5521l12.5-7.2168V268.4678l-12.5,7.2168Z"/>
    <path id="Path-147" data-name="Path" class="window-R-prim" d="M132.5,373.8342l12.5-7.2169V337.75l-12.5,7.2169Z"/>
    <path id="Path-148" data-name="Path" class="window-R-prim" d="M132.5,443.1162l12.5-7.2168V407.0318l-12.5,7.2169Z"/>
    <path id="Path-149" data-name="Path" class="window-R-prim" d="M132.5,512.3982l12.5-7.2168V476.3138l-12.5,7.2169Z"/>
    <path id="Path-150" data-name="Path" class="window-R-prim" d="M132.5,269.9111l12.5-7.2168V233.8267l-12.5,7.2169Z"/>
    <path id="Path-151" data-name="Path" class="window-R-prim" d="M132.5,200.6292l12.5-7.2169V164.5448l-12.5,7.2169Z"/>
    <path id="Path-152" data-name="Path" class="window-R-prim" d="M132.5,339.1932l12.5-7.2169V303.1088l-12.5,7.2169Z"/>
    <path id="Path-153" data-name="Path" class="window-R-prim" d="M132.5,408.4752l12.5-7.2169V372.3908l-12.5,7.2169Z"/>
    <path id="Path-154" data-name="Path" class="window-R-prim" d="M132.5,477.7572,145,470.54V441.6729L132.5,448.89Z"/>
    <path id="Path-155" data-name="Path" class="window-R-prim" d="M232.5,177.5351l12.5-7.2169V141.4507l-12.5,7.2169Z"/>
    <path id="Path-156" data-name="Path" class="window-R-prim" d="M232.5,108.2532l12.5-7.2169V72.1688l-12.5,7.2169Z"/>
    <path id="Path-157" data-name="Path" class="window-R-prim" d="M232.5,246.8171,245,239.6V210.7327L232.5,217.95Z"/>
    <path id="Path-158" data-name="Path" class="window-R-prim" d="M232.5,316.0991l12.5-7.2168V280.0148l-12.5,7.2169Z"/>
    <path id="Path-159" data-name="Path" class="window-R-prim" d="M232.5,385.3812l12.5-7.2169V349.2968l-12.5,7.2169Z"/>
    <path id="Path-160" data-name="Path" class="window-R-prim" d="M232.5,454.6632l12.5-7.2169V418.5788l-12.5,7.2169Z"/>
    <path id="Path-161" data-name="Path" class="window-R-prim" d="M232.5,212.1761l12.5-7.2169V176.0917l-12.5,7.2169Z"/>
    <path id="Path-162" data-name="Path" class="window-R-prim" d="M232.5,142.8942l12.5-7.2169V106.81l-12.5,7.2169Z"/>
    <path id="Path-163" data-name="Path" class="window-R-prim" d="M232.5,281.4581l12.5-7.2168V245.3738l-12.5,7.2168Z"/>
    <path id="Path-164" data-name="Path" class="window-R-prim" d="M232.5,350.74l12.5-7.2169V314.6558l-12.5,7.2169Z"/>
    <path id="Path-165" data-name="Path" class="window-R-prim" d="M232.5,420.0222l12.5-7.2168V383.9378l-12.5,7.2169Z"/>
    <path id="Path-166" data-name="Path" class="window-R-prim" d="M250,167.4315l10-5.7735V132.79l-10,5.7736Z"/>
    <path id="Path-167" data-name="Path" class="window-R-prim" d="M250,98.15l10-5.7735V63.5085L250,69.282Z"/>
    <path id="Path-168" data-name="Path" class="window-R-prim" d="M250,236.7135l10-5.7735V202.0725l-10,5.7735Z"/>
    <path id="Path-169" data-name="Path" class="window-R-prim" d="M250,305.9955l10-5.7735V271.3545l-10,5.7735Z"/>
    <path id="Path-170" data-name="Path" class="window-R-prim" d="M250,375.2776l10-5.7735V340.6366L250,346.41Z"/>
    <path id="Path-171" data-name="Path" class="window-R-prim" d="M250,444.56l10-5.7735V409.9186l-10,5.7735Z"/>
    <path id="Path-172" data-name="Path" class="window-R-prim" d="M250,202.0725l10-5.7735V167.4315l-10,5.7735Z"/>
    <path id="Path-173" data-name="Path" class="window-R-prim" d="M250,132.7906l10-5.7735V98.15l-10,5.7736Z"/>
    <path id="Path-174" data-name="Path" class="window-R-prim" d="M250,271.3545l10-5.7735V236.7135l-10,5.7735Z"/>
    <path id="Path-175" data-name="Path" class="window-R-prim" d="M250,340.6365l10-5.7735V305.9955l-10,5.7735Z"/>
    <path id="Path-176" data-name="Path" class="window-R-prim" d="M250,409.9186l10-5.7735V375.2776l-10,5.7735Z"/>
    <path id="Path-177" data-name="Path" class="window-R-prim" d="M166.25,215.7846l11.25-6.4952V180.4219l-11.25,6.4951Z"/>
    <path id="Path-178" data-name="Path" class="window-R-prim" d="M166.25,146.5026l11.25-6.4952V111.14l-11.25,6.4952Z"/>
    <path id="Path-179" data-name="Path" class="window-R-prim" d="M166.25,285.0666l11.25-6.4952V249.7039l-11.25,6.4952Z"/>
    <path id="Path-180" data-name="Path" class="window-R-prim" d="M166.25,354.3486l11.25-6.4952V318.9859l-11.25,6.4952Z"/>
    <path id="Path-181" data-name="Path" class="window-R-prim" d="M166.25,423.6307l11.25-6.4952V388.268l-11.25,6.4951Z"/>
    <path id="Path-182" data-name="Path" class="window-R-prim" d="M166.25,492.9127l11.25-6.4952V457.55l-11.25,6.4951Z"/>
    <path id="Path-183" data-name="Path" class="window-R-prim" d="M166.25,250.4256,177.5,243.93V215.0629l-11.25,6.4951Z"/>
    <path id="Path-184" data-name="Path" class="window-R-prim" d="M166.25,181.1436l11.25-6.4951V145.7809l-11.25,6.4952Z"/>
    <path id="Path-185" data-name="Path" class="window-R-prim" d="M166.25,319.7076l11.25-6.4952V284.3449L166.25,290.84Z"/>
    <path id="Path-186" data-name="Path" class="window-R-prim" d="M166.25,388.99l11.25-6.4952V353.6269l-11.25,6.4952Z"/>
    <path id="Path-187" data-name="Path" class="window-R-prim" d="M166.25,458.2717l11.25-6.4952V422.909l-11.25,6.4952Z"/>
    <path id="Path-188" data-name="Path" class="window-R-prim" d="M198.75,197.0207,210,190.5255V161.658l-11.25,6.4951Z"/>
    <path id="Path-189" data-name="Path" class="window-R-prim" d="M198.75,127.7387,210,121.2436V92.376l-11.25,6.4952Z"/>
    <path id="Path-190" data-name="Path" class="window-R-prim" d="M198.75,266.3027,210,259.8075V230.94l-11.25,6.4952Z"/>
    <path id="Path-191" data-name="Path" class="window-R-prim" d="M198.75,335.5847,210,329.09V300.222l-11.25,6.4952Z"/>
    <path id="Path-192" data-name="Path" class="window-R-prim" d="M198.75,404.8668,210,398.3716V369.5041l-11.25,6.4951Z"/>
    <path id="Path-193" data-name="Path" class="window-R-prim" d="M198.75,474.1488,210,467.6536V438.7861l-11.25,6.4952Z"/>
    <path id="Path-194" data-name="Path" class="window-R-prim" d="M198.75,231.6617,210,225.1665V196.299l-11.25,6.4952Z"/>
    <path id="Path-195" data-name="Path" class="window-R-prim" d="M198.75,162.38,210,155.8846V127.0171l-11.25,6.4951Z"/>
    <path id="Path-196" data-name="Path" class="window-R-prim" d="M198.75,300.9437,210,294.4485V265.581l-11.25,6.4952Z"/>
    <path id="Path-197" data-name="Path" class="window-R-prim" d="M198.75,370.2257,210,363.7306V334.863l-11.25,6.4952Z"/>
    <path id="Path-198" data-name="Path" class="window-R-prim" d="M198.75,439.5078,210,433.0126V404.1451L198.75,410.64Z"/>
    <path id="Path-199" data-name="Path" class="window-R-prim" d="M100,254.034l10-5.7735V219.393l-10,5.7735Z"/>
    <path id="Path-200" data-name="Path" class="window-R-prim" d="M100,184.7521l10-5.7735V150.111l-10,5.7735Z"/>
    <path id="Path-201" data-name="Path" class="window-R-prim" d="M100,323.316l10-5.7735V288.675l-10,5.7735Z"/>
    <path id="Path-202" data-name="Path" class="window-R-prim" d="M100,392.5981l10-5.7735V357.957l-10,5.7735Z"/>
    <path id="Path-203" data-name="Path" class="window-R-prim" d="M100,461.88l10-5.7735V427.2391l-10,5.7735Z"/>
    <path id="Path-204" data-name="Path" class="window-R-prim" d="M100,531.1621l10-5.7735V496.5211l-10,5.7735Z"/>
    <path id="Path-205" data-name="Path" class="window-R-prim" d="M100,288.675l10-5.7735V254.034l-10,5.7735Z"/>
    <path id="Path-206" data-name="Path" class="window-R-prim" d="M100,219.3931l10-5.7735V184.7521l-10,5.7735Z"/>
    <path id="Path-207" data-name="Path" class="window-R-prim" d="M100,357.957l10-5.7735V323.316L100,329.09Z"/>
    <path id="Path-208" data-name="Path" class="window-R-prim" d="M100,427.2391l10-5.7735V392.598l-10,5.7735Z"/>
    <path id="Path-209" data-name="Path" class="window-R-prim" d="M100,496.5211l10-5.7735V461.88l-10,5.7735Z"/>
    <path id="Path-210" data-name="Path" class="cls-3" d="M250,63.5085l-5,2.8868v392.598l2.5,1.4434,5-2.8867V64.9518Z"/>
    <path id="Path-211" data-name="Path" class="cls-1" d="M247.5,460.4367l-2.5-1.4433V66.3953l2.5,1.4433Z"/>
    <path id="Path-212" data-name="Path" class="cls-2" d="M247.5,67.8387l5-2.8868L250,63.5085l-5,2.8868Z"/>
    <path id="Path-213" data-name="Path" class="cls-3" d="M216.25,82.9941l-5,2.8867V478.4789l2.5,1.4434,5-2.8868V84.4374Z"/>
    <path id="Path-214" data-name="Path" class="cls-1" d="M213.75,479.9223l-2.5-1.4434V85.8808l2.5,1.4434Z"/>
    <path id="Path-215" data-name="Path" class="cls-2" d="M213.75,87.3242l5-2.8867-2.5-1.4434-5,2.8867Z"/>
    <path id="Path-216" data-name="Path" class="cls-3" d="M115,141.4508l-5,2.8867V536.9356l2.5,1.4434,5-2.8868V142.8941Z"/>
    <path id="Path-217" data-name="Path" class="cls-1" d="M112.5,538.379l-2.5-1.4434V144.3376l2.5,1.4433Z"/>
    <path id="Path-218" data-name="Path" class="cls-2" d="M112.5,145.7809l5-2.8867-2.5-1.4434-5,2.8867Z"/>
    <path id="Path-219" data-name="Path" class="cls-3" d="M182.5,102.48l-5,2.8867V497.9645l2.5,1.4433,5-2.8867V103.923Z"/>
    <path id="Path-220" data-name="Path" class="cls-1" d="M180,499.4079l-2.5-1.4434V105.3664L180,106.81Z"/>
    <path id="Path-221" data-name="Path" class="cls-2" d="M180,106.81l5-2.8868-2.5-1.4434-5,2.8868Z"/>
    <path id="Path-222" data-name="Path" class="cls-3" d="M148.75,121.9653l-5,2.8867V517.45l2.5,1.4433,5-2.8867V123.4085Z"/>
    <path id="Path-223" data-name="Path" class="cls-1" d="M146.25,518.8934l-2.5-1.4433V124.852l2.5,1.4433Z"/>
    <path id="Path-224" data-name="Path" class="cls-2" d="M146.25,126.2953l5-2.8867-2.5-1.4434-5,2.8868Z"/>
    <path id="Path-225" data-name="Path" class="cls-2" d="M87.5,145.7809l-5-2.8867,2.5-1.4434,5,2.8868Z"/>
    <path id="Path-226" data-name="Path" class="cls-2" d="M50,124.13l-5-2.8867L47.5,119.8l5,2.8867Z"/>
    <path id="Path-227" data-name="Path" class="cls-2" d="M12.5,102.48l-5-2.8868L10,98.15l5,2.8868Z"/>
  </g>
</svg>
