<svg id="Layer_1" data-name="Layer 1" xmlns="http://www.w3.org/2000/svg" viewBox="0 0 260 611.9912">
  <defs>
    <style>
      .cls-1 {
        fill: #d1d1d1;
      }

      .cls-2 {
        fill: #e8e8e8;
      }

      .top-dark {
        fill: #c67471;
      }

      .exterior-L-prim {
        fill: #73302e;
      }

      .exterior-R-prim {
        fill: #d05752;
      }

      .window-L-prim {
        fill: #4d3b24;
      }

      .cls-3 {
        fill: #fff;
      }

      .window-R-prim {
        fill: #bd9664;
      }
    </style>
  </defs>
  <title>Artboard 15</title>
  <g id="root">
    <path id="Path" class="cls-1" d="M245,190.5256l7.5,4.33v-5.7735l-5-2.8868-2.5,1.4434Z"/>
    <path id="Path-2" data-name="Path" class="cls-2" d="M250,190.5256l-5-2.8868,2.5-1.4434,5,2.8868Z"/>
    <path id="Path-3" data-name="Path" class="cls-1" d="M207.5,168.8749l7.5,4.33v-5.7735l-5-2.8868-2.5,1.4434Z"/>
    <path id="Path-4" data-name="Path" class="cls-2" d="M212.5,168.8749l-5-2.8867,2.5-1.4434,5,2.8868Z"/>
    <path id="Path-5" data-name="Path" class="cls-1" d="M48.75,205.681l-7.5,4.33v-5.7735l5-2.8867,2.5,1.4433Z"/>
    <path id="Path-6" data-name="Path" class="cls-2" d="M43.75,205.681l5-2.8868-2.5-1.4434-5,2.8868Z"/>
    <path id="Path-7" data-name="Path" class="cls-1" d="M15,225.1666l-7.5,4.33v-5.7735l5-2.8868L15,222.28Z"/>
    <path id="Path-8" data-name="Path" class="cls-2" d="M10,225.1665l5-2.8867-2.5-1.4434-5,2.8868Z"/>
    <g id="Group-2" data-name="Group">
      <path id="Path-9" data-name="Path" class="cls-1" d="M150,8.66l-7.5,4.33V7.2169l5-2.8868L150,5.7735Z"/>
      <path id="Path-10" data-name="Path" class="cls-2" d="M145,8.66l5-2.8868L147.5,4.33l-5,2.8868Z"/>
      <path id="Path-11" data-name="Path" class="cls-1" d="M170,8.66l7.5,4.33V7.2169l-5-2.8868L170,5.7735Z"/>
      <path id="Path-12" data-name="Path" class="cls-2" d="M175,8.66l-5-2.8868L172.5,4.33l5,2.8868Z"/>
      <path id="Path-13" data-name="Path" class="cls-1" d="M245,51.9615l7.5,4.33V50.5181l-5-2.8867L245,49.0748Z"/>
      <path id="Path-14" data-name="Path" class="cls-2" d="M250,51.9615l-5-2.8867,2.5-1.4434,5,2.8868Z"/>
      <path id="Path-15" data-name="Path" class="cls-1" d="M207.5,30.3109l7.5,4.33V28.8675l-5-2.8867-2.5,1.4433Z"/>
      <path id="Path-16" data-name="Path" class="cls-2" d="M212.5,30.3109l-5-2.8868,2.5-1.4434,5,2.8868Z"/>
      <path id="Path-17" data-name="Path" class="cls-1" d="M116.25,28.1458l-7.5,4.33V26.7024l5-2.8867,2.5,1.4434Z"/>
      <path id="Path-18" data-name="Path" class="cls-2" d="M111.25,28.1458l5-2.8867-2.5-1.4434-5,2.8868Z"/>
      <path id="Path-19" data-name="Path" class="cls-1" d="M82.5,47.6314l-7.5,4.33V46.188l5-2.8867,2.5,1.4433Z"/>
      <path id="Path-20" data-name="Path" class="cls-2" d="M77.5,47.6314l5-2.8868L80,43.3012,75,46.188Z"/>
      <path id="Path-21" data-name="Path" class="cls-1" d="M48.75,67.117l-7.5,4.33V65.6736l5-2.8868,2.5,1.4434Z"/>
      <path id="Path-22" data-name="Path" class="cls-2" d="M43.75,67.1169l5-2.8867-2.5-1.4434-5,2.8868Z"/>
      <path id="Path-23" data-name="Path" class="cls-1" d="M15,86.6025l-7.5,4.33V85.1591l5-2.8867L15,83.7158Z"/>
      <path id="Path-24" data-name="Path" class="cls-2" d="M10,86.6025l5-2.8867-2.5-1.4434-5,2.8867Z"/>
    </g>
    <path id="Path-25" data-name="Path" class="cls-2" d="M99.8757,611.9266,260,519.6152l-99.802-57.67L0,553.9769Z"/>
    <path id="anchor_0_150.111_260" class="top-dark" d="M100,161.6581,260,69.282V57.735L160,0,0,92.376v11.547Z"/>
    <path id="Path-26" data-name="Path" class="exterior-L-prim" d="M105,609.1045l-5,2.8867L0,554.2562V92.3761l100,57.735,5-2.8867Z"/>
    <path id="Path-27" data-name="Path" class="exterior-R-prim" d="M260,519.6152l-160,92.376v-461.88l160-92.376Z"/>
    <path id="Path-28" data-name="Path" class="window-L-prim" d="M85,314.6559l-13.75-7.9386V277.85L85,285.7883Z"/>
    <path id="Path-29" data-name="Path" class="window-L-prim" d="M85,245.3739l-13.75-7.9385V208.5678L85,216.5064Z"/>
    <path id="Path-30" data-name="Path" class="window-L-prim" d="M85,176.0918l-13.75-7.9386V139.2857L85,147.2243Z"/>
    <path id="Path-31" data-name="Path" class="window-L-prim" d="M85,383.9379l-13.75-7.9386V347.1318L85,355.07Z"/>
    <path id="Path-32" data-name="Path" class="window-L-prim" d="M85,487.8609l-13.75-7.9385V451.0549L85,458.9934Z"/>
    <path id="Path-33" data-name="Path" class="window-L-prim" d="M85,591.784l-13.75-7.9386V554.9779L85,562.9165Z"/>
    <path id="Path-34" data-name="Path" class="window-L-prim" d="M85,349.2969l-13.75-7.9386V312.4908L85,320.4294Z"/>
    <path id="Path-35" data-name="Path" class="window-L-prim" d="M85,280.0149l-13.75-7.9385V243.2089L85,251.1474Z"/>
    <path id="Path-36" data-name="Path" class="window-L-prim" d="M85,210.7328l-13.75-7.9386V173.9267L85,181.8653Z"/>
    <path id="Path-37" data-name="Path" class="window-L-prim" d="M85,453.22l-13.75-7.9385V416.4138L85,424.3524Z"/>
    <path id="Path-38" data-name="Path" class="window-L-prim" d="M85,557.143l-13.75-7.9386V520.3369L85,528.2755Z"/>
    <path id="Path-39" data-name="Path" class="window-L-prim" d="M85,418.5789,71.25,410.64V381.7728L85,389.7114Z"/>
    <path id="Path-40" data-name="Path" class="window-L-prim" d="M85,522.502l-13.75-7.9386V485.6959L85,493.6344Z"/>
    <path id="Path-41" data-name="Path" class="window-L-prim" d="M47.5,293.0052l-13.75-7.9385V256.1991l13.75,7.9386Z"/>
    <path id="Path-42" data-name="Path" class="window-L-prim" d="M47.5,223.7233l-13.75-7.9386V186.9172l13.75,7.9386Z"/>
    <path id="Path-43" data-name="Path" class="window-L-prim" d="M47.5,154.4412l-13.75-7.9386V117.6351l13.75,7.9385Z"/>
    <path id="Path-44" data-name="Path" class="window-L-prim" d="M47.5,362.2873l-13.75-7.9386V325.4812L47.5,333.42Z"/>
    <path id="Path-45" data-name="Path" class="window-L-prim" d="M47.5,466.21l-13.75-7.9385V429.4042l13.75,7.9386Z"/>
    <path id="Path-46" data-name="Path" class="window-L-prim" d="M47.5,570.1334l-13.75-7.9386V533.3273l13.75,7.9386Z"/>
    <path id="Path-47" data-name="Path" class="window-L-prim" d="M47.5,327.6462l-13.75-7.9385V290.84l13.75,7.9385Z"/>
    <path id="Path-48" data-name="Path" class="window-L-prim" d="M47.5,258.3643l-13.75-7.9386V221.5582l13.75,7.9386Z"/>
    <path id="Path-49" data-name="Path" class="window-L-prim" d="M47.5,189.0822l-13.75-7.9386V152.2761l13.75,7.9385Z"/>
    <path id="Path-50" data-name="Path" class="window-L-prim" d="M47.5,431.5693l-13.75-7.9386V394.7632l13.75,7.9386Z"/>
    <path id="Path-51" data-name="Path" class="window-L-prim" d="M47.5,535.4924l-13.75-7.9386V498.6863l13.75,7.9385Z"/>
    <path id="Path-52" data-name="Path" class="window-L-prim" d="M47.5,396.9283,33.75,388.99V360.1222l13.75,7.9386Z"/>
    <path id="Path-53" data-name="Path" class="window-L-prim" d="M47.5,500.8513l-13.75-7.9385V464.0452l13.75,7.9386Z"/>
    <path id="Path-54" data-name="Path" class="window-L-prim" d="M10,271.3546,0,265.5811V236.7136l10,5.7735Z"/>
    <path id="Path-55" data-name="Path" class="window-L-prim" d="M10,202.0727,0,196.2992V167.4316l10,5.7735Z"/>
    <path id="Path-56" data-name="Path" class="window-L-prim" d="M10,132.7905,0,127.017V98.15l10,5.7735Z"/>
    <path id="Path-57" data-name="Path" class="window-L-prim" d="M10,340.6366,0,334.8631V305.9956l10,5.7735Z"/>
    <path id="Path-58" data-name="Path" class="window-L-prim" d="M10,444.56,0,438.7862V409.9187l10,5.7735Z"/>
    <path id="Path-59" data-name="Path" class="window-L-prim" d="M10,548.4827,0,542.7092V513.8417l10,5.7735Z"/>
    <path id="Path-60" data-name="Path" class="window-L-prim" d="M10,305.9956,0,300.2221V271.3546l10,5.7735Z"/>
    <path id="Path-61" data-name="Path" class="window-L-prim" d="M10,236.7137,0,230.94V202.0727l10,5.7735Z"/>
    <path id="Path-62" data-name="Path" class="window-L-prim" d="M10,167.4315,0,161.658V132.7905l10,5.7735Z"/>
    <path id="Path-63" data-name="Path" class="window-L-prim" d="M10,409.9187,0,404.1452V375.2776l10,5.7735Z"/>
    <path id="Path-64" data-name="Path" class="window-L-prim" d="M10,513.8417,0,508.0682V479.2007l10,5.7735Z"/>
    <path id="Path-65" data-name="Path" class="window-L-prim" d="M10,375.2776,0,369.5041V340.6366L10,346.41Z"/>
    <path id="Path-66" data-name="Path" class="window-L-prim" d="M10,479.2007,0,473.4272V444.56l10,5.7735Z"/>
    <path id="Path-67" data-name="Path" class="window-L-prim" d="M100,323.3161l-10-5.7735V288.6751l10,5.7735Z"/>
    <path id="Path-68" data-name="Path" class="window-L-prim" d="M100,254.0342l-10-5.7735V219.3932l10,5.7735Z"/>
    <path id="Path-69" data-name="Path" class="window-L-prim" d="M100,184.752l-10-5.7735V150.111l10,5.7735Z"/>
    <path id="Path-70" data-name="Path" class="window-L-prim" d="M100,392.5981l-10-5.7735V357.9571l10,5.7735Z"/>
    <path id="Path-71" data-name="Path" class="window-L-prim" d="M100,496.5212l-10-5.7735V461.88l10,5.7735Z"/>
    <path id="Path-72" data-name="Path" class="window-L-prim" d="M100,600.4443l-10-5.7735V565.8032l10,5.7735Z"/>
    <path id="Path-73" data-name="Path" class="window-L-prim" d="M100,357.9571l-10-5.7735V323.3161l10,5.7735Z"/>
    <path id="Path-74" data-name="Path" class="window-L-prim" d="M100,288.6752l-10-5.7735V254.0342l10,5.7735Z"/>
    <path id="Path-75" data-name="Path" class="window-L-prim" d="M100,219.3931,90,213.62V184.752l10,5.7735Z"/>
    <path id="Path-76" data-name="Path" class="window-L-prim" d="M100,461.88l-10-5.7735V427.2392l10,5.7735Z"/>
    <path id="Path-77" data-name="Path" class="window-L-prim" d="M100,565.8032,90,560.03V531.1622l10,5.7735Z"/>
    <path id="Path-78" data-name="Path" class="window-L-prim" d="M100,427.2392l-10-5.7735V392.5981l10,5.7735Z"/>
    <path id="Path-79" data-name="Path" class="window-L-prim" d="M100,531.1622l-10-5.7735V496.5212l10,5.7735Z"/>
    <path id="Path-80" data-name="Path" class="window-L-prim" d="M66.25,303.8305,52.5,295.892V267.0245l13.75,7.9385Z"/>
    <path id="Path-81" data-name="Path" class="window-L-prim" d="M66.25,234.5486,52.5,226.61V197.7425l13.75,7.9386Z"/>
    <path id="Path-82" data-name="Path" class="window-L-prim" d="M66.25,165.2665,52.5,157.3279V128.46l13.75,7.9386Z"/>
    <path id="Path-83" data-name="Path" class="window-L-prim" d="M66.25,373.1126,52.5,365.174V336.3065l13.75,7.9386Z"/>
    <path id="Path-84" data-name="Path" class="window-L-prim" d="M66.25,477.0356,52.5,469.0971V440.23l13.75,7.9386Z"/>
    <path id="Path-85" data-name="Path" class="window-L-prim" d="M66.25,580.9587,52.5,573.02V544.1526l13.75,7.9386Z"/>
    <path id="Path-86" data-name="Path" class="window-L-prim" d="M66.25,338.4716,52.5,330.533V301.6655l13.75,7.9385Z"/>
    <path id="Path-87" data-name="Path" class="window-L-prim" d="M66.25,269.19,52.5,261.2511V232.3835l13.75,7.9386Z"/>
    <path id="Path-88" data-name="Path" class="window-L-prim" d="M66.25,199.9075,52.5,191.9689V163.1014L66.25,171.04Z"/>
    <path id="Path-89" data-name="Path" class="window-L-prim" d="M66.25,442.3946,52.5,434.4561V405.5885l13.75,7.9386Z"/>
    <path id="Path-90" data-name="Path" class="window-L-prim" d="M66.25,546.3177,52.5,538.3791V509.5116L66.25,517.45Z"/>
    <path id="Path-91" data-name="Path" class="window-L-prim" d="M66.25,407.7536,52.5,399.815V370.9475l13.75,7.9386Z"/>
    <path id="Path-92" data-name="Path" class="window-L-prim" d="M66.25,511.6767,52.5,503.7381V474.8706l13.75,7.9385Z"/>
    <path id="Path-93" data-name="Path" class="window-L-prim" d="M28.75,282.18,15,274.2413V245.3738l13.75,7.9386Z"/>
    <path id="Path-94" data-name="Path" class="window-L-prim" d="M28.75,212.898,15,204.9594V176.0919l13.75,7.9386Z"/>
    <path id="Path-95" data-name="Path" class="window-L-prim" d="M28.75,143.6158,15,135.6773V106.81l13.75,7.9385Z"/>
    <path id="Path-96" data-name="Path" class="window-L-prim" d="M28.75,351.462,15,343.5234V314.6559l13.75,7.9385Z"/>
    <path id="Path-97" data-name="Path" class="window-L-prim" d="M28.75,455.385,15,447.4464V418.5789l13.75,7.9386Z"/>
    <path id="Path-98" data-name="Path" class="window-L-prim" d="M28.75,559.3081,15,551.37V522.502l13.75,7.9385Z"/>
    <path id="Path-99" data-name="Path" class="window-L-prim" d="M28.75,316.8209,15,308.8824V280.0148l13.75,7.9386Z"/>
    <path id="Path-100" data-name="Path" class="window-L-prim" d="M28.75,247.539,15,239.6V210.7329l13.75,7.9386Z"/>
    <path id="Path-101" data-name="Path" class="window-L-prim" d="M28.75,178.2569,15,170.3183V141.4508l13.75,7.9385Z"/>
    <path id="Path-102" data-name="Path" class="window-L-prim" d="M28.75,420.744,15,412.8054V383.9379l13.75,7.9386Z"/>
    <path id="Path-103" data-name="Path" class="window-L-prim" d="M28.75,524.667,15,516.7285V487.861L28.75,495.8Z"/>
    <path id="Path-104" data-name="Path" class="window-L-prim" d="M28.75,386.103,15,378.1644V349.2969l13.75,7.9385Z"/>
    <path id="Path-105" data-name="Path" class="window-L-prim" d="M28.75,490.026,15,482.0875V453.22l13.75,7.9386Z"/>
    <path id="Path-106" data-name="Path" class="cls-1" d="M87.5,607.6611l-5-2.8867v-461.88l2.5-1.4433,5,2.8867v461.88Z"/>
    <path id="Path-107" data-name="Path" class="cls-1" d="M52.5,584.5671,50,586.0105l-5-2.9514V121.2436l2.5-1.3787,5,2.8867Z"/>
    <path id="Path-108" data-name="Path" class="cls-1" d="M12.5,564.36l-5-2.8867V99.593L10,98.15l5,2.8868v461.88Z"/>
    <path id="Path-109" data-name="Path" class="cls-3" d="M12.5,564.36l2.5-1.4433v-461.88L12.5,102.48Z"/>
    <path id="Path-110" data-name="Path" class="cls-3" d="M50,586.0105l2.5-1.4434V122.687L50,124.13Z"/>
    <path id="Path-111" data-name="Path" class="cls-3" d="M87.5,607.6611l2.5-1.4434v-461.88l-2.5,1.4433Z"/>
    <path id="Path-112" data-name="Path" class="window-R-prim" d="M115,314.6558l12.5-7.2168V278.5715L115,285.7883Z"/>
    <path id="Path-113" data-name="Path" class="window-R-prim" d="M115,245.3739l12.5-7.2168V209.29L115,216.5064Z"/>
    <path id="Path-114" data-name="Path" class="window-R-prim" d="M115,176.0918l12.5-7.2169V140.0074L115,147.2242Z"/>
    <path id="Path-115" data-name="Path" class="window-R-prim" d="M115,383.9379l12.5-7.2169V347.8535L115,355.07Z"/>
    <path id="Path-116" data-name="Path" class="window-R-prim" d="M115,453.22l12.5-7.2169V417.1355L115,424.3524Z"/>
    <path id="Path-117" data-name="Path" class="window-R-prim" d="M115,522.502l12.5-7.2169V486.4176L115,493.6344Z"/>
    <path id="Path-118" data-name="Path" class="window-R-prim" d="M115,591.784l12.5-7.2169V555.7L115,562.9164Z"/>
    <path id="Path-119" data-name="Path" class="window-R-prim" d="M115,349.2969l12.5-7.2169V313.2125L115,320.4293Z"/>
    <path id="Path-120" data-name="Path" class="window-R-prim" d="M115,280.0149l12.5-7.2168V243.9306L115,251.1474Z"/>
    <path id="Path-121" data-name="Path" class="window-R-prim" d="M115,210.7328l12.5-7.2169V174.6484L115,181.8653Z"/>
    <path id="Path-122" data-name="Path" class="window-R-prim" d="M115,418.5789l12.5-7.2169V382.4945L115,389.7114Z"/>
    <path id="Path-123" data-name="Path" class="window-R-prim" d="M115,487.8609l12.5-7.2168V451.7765L115,458.9934Z"/>
    <path id="Path-124" data-name="Path" class="window-R-prim" d="M115,557.143l12.5-7.2169V521.0586L115,528.2754Z"/>
    <path id="Path-125" data-name="Path" class="window-R-prim" d="M215,256.9208l12.5-7.2169V220.8364L215,228.0533Z"/>
    <path id="Path-126" data-name="Path" class="window-R-prim" d="M215,187.6389l12.5-7.2169V151.5545L215,158.7714Z"/>
    <path id="Path-127" data-name="Path" class="window-R-prim" d="M215,118.3567l12.5-7.2168V82.2724L215,89.4892Z"/>
    <path id="Path-128" data-name="Path" class="window-R-prim" d="M215,326.2028l12.5-7.2168V290.1185L215,297.3353Z"/>
    <path id="Path-129" data-name="Path" class="window-R-prim" d="M215,395.4849l12.5-7.2169V359.4005L215,366.6173Z"/>
    <path id="Path-130" data-name="Path" class="window-R-prim" d="M215,464.7669l12.5-7.2168V428.6825L215,435.8994Z"/>
    <path id="Path-131" data-name="Path" class="window-R-prim" d="M215,534.0489l12.5-7.2168V497.9645L215,505.1814Z"/>
    <path id="Path-132" data-name="Path" class="window-R-prim" d="M215,291.5618l12.5-7.2168V255.4774L215,262.6943Z"/>
    <path id="Path-133" data-name="Path" class="window-R-prim" d="M215,222.28l12.5-7.2169V186.1955L215,193.4124Z"/>
    <path id="Path-134" data-name="Path" class="window-R-prim" d="M215,152.9977l12.5-7.2168V116.9134L215,124.13Z"/>
    <path id="Path-135" data-name="Path" class="window-R-prim" d="M215,360.8438l12.5-7.2168V324.76L215,331.9763Z"/>
    <path id="Path-136" data-name="Path" class="window-R-prim" d="M215,430.1259l12.5-7.2169V394.0415L215,401.2584Z"/>
    <path id="Path-137" data-name="Path" class="window-R-prim" d="M215,499.4079l12.5-7.2168V463.3235L215,470.54Z"/>
    <path id="Path-138" data-name="Path" class="window-R-prim" d="M150,294.4486l11.25-6.4952V259.0859L150,265.5811Z"/>
    <path id="Path-139" data-name="Path" class="window-R-prim" d="M150,225.1667l11.25-6.4952V189.804L150,196.2991Z"/>
    <path id="Path-140" data-name="Path" class="window-R-prim" d="M150,155.8845l11.25-6.4952V120.5218L150,127.017Z"/>
    <path id="Path-141" data-name="Path" class="window-R-prim" d="M150,363.7306l11.25-6.4952V328.3679L150,334.8631Z"/>
    <path id="Path-142" data-name="Path" class="window-R-prim" d="M150,433.0127l11.25-6.4952V397.65L150,404.1451Z"/>
    <path id="Path-143" data-name="Path" class="window-R-prim" d="M150,502.2947,161.25,495.8V466.932L150,473.4272Z"/>
    <path id="Path-144" data-name="Path" class="window-R-prim" d="M150,571.5767l11.25-6.4952V536.214L150,542.7092Z"/>
    <path id="Path-145" data-name="Path" class="window-R-prim" d="M150,329.09l11.25-6.4952V293.7269L150,300.2221Z"/>
    <path id="Path-146" data-name="Path" class="window-R-prim" d="M150,259.8077l11.25-6.4952V224.445L150,230.94Z"/>
    <path id="Path-147" data-name="Path" class="window-R-prim" d="M150,190.5255l11.25-6.4951V155.1628L150,161.658Z"/>
    <path id="Path-148" data-name="Path" class="window-R-prim" d="M150,398.3716l11.25-6.4951V363.0089L150,369.5041Z"/>
    <path id="Path-149" data-name="Path" class="window-R-prim" d="M150,467.6537l11.25-6.4952V432.291L150,438.7861Z"/>
    <path id="Path-150" data-name="Path" class="window-R-prim" d="M150,536.9357l11.25-6.4952V501.573L150,508.0682Z"/>
    <path id="Path-151" data-name="Path" class="window-R-prim" d="M182.5,275.6847l11.25-6.4952V240.322l-11.25,6.4952Z"/>
    <path id="Path-152" data-name="Path" class="window-R-prim" d="M182.5,206.4028l11.25-6.4952V171.04l-11.25,6.4952Z"/>
    <path id="Path-153" data-name="Path" class="window-R-prim" d="M182.5,137.1206l11.25-6.4951V101.7579l-11.25,6.4952Z"/>
    <path id="Path-154" data-name="Path" class="window-R-prim" d="M182.5,344.9667l11.25-6.4951V309.604l-11.25,6.4952Z"/>
    <path id="Path-155" data-name="Path" class="window-R-prim" d="M182.5,414.2488l11.25-6.4952V378.8861l-11.25,6.4951Z"/>
    <path id="Path-156" data-name="Path" class="window-R-prim" d="M182.5,483.5308l11.25-6.4952V448.1681l-11.25,6.4952Z"/>
    <path id="Path-157" data-name="Path" class="window-R-prim" d="M182.5,552.8128l11.25-6.4952V517.45l-11.25,6.4952Z"/>
    <path id="Path-158" data-name="Path" class="window-R-prim" d="M182.5,310.3257l11.25-6.4952V274.963l-11.25,6.4952Z"/>
    <path id="Path-159" data-name="Path" class="window-R-prim" d="M182.5,241.0438l11.25-6.4952V205.6811l-11.25,6.4952Z"/>
    <path id="Path-160" data-name="Path" class="window-R-prim" d="M182.5,171.7616l11.25-6.4951V136.3989l-11.25,6.4952Z"/>
    <path id="Path-161" data-name="Path" class="window-R-prim" d="M182.5,379.6077l11.25-6.4951V344.245L182.5,350.74Z"/>
    <path id="Path-162" data-name="Path" class="window-R-prim" d="M182.5,448.89l11.25-6.4952V413.5271l-11.25,6.4952Z"/>
    <path id="Path-163" data-name="Path" class="window-R-prim" d="M182.5,518.1718l11.25-6.4952V482.8091l-11.25,6.4952Z"/>
    <path id="Path-164" data-name="Path" class="window-R-prim" d="M132.5,304.5522l12.5-7.2168V268.4678l-12.5,7.2169Z"/>
    <path id="Path-165" data-name="Path" class="window-R-prim" d="M132.5,235.27l12.5-7.2169V199.1859l-12.5,7.2169Z"/>
    <path id="Path-166" data-name="Path" class="window-R-prim" d="M132.5,165.9881l12.5-7.2168V129.9038l-12.5,7.2168Z"/>
    <path id="Path-167" data-name="Path" class="window-R-prim" d="M132.5,373.8342l12.5-7.2168V337.75l-12.5,7.2168Z"/>
    <path id="Path-168" data-name="Path" class="window-R-prim" d="M132.5,443.1163l12.5-7.2169V407.0319l-12.5,7.2169Z"/>
    <path id="Path-169" data-name="Path" class="window-R-prim" d="M132.5,512.3983l12.5-7.2168V476.3139l-12.5,7.2169Z"/>
    <path id="Path-170" data-name="Path" class="window-R-prim" d="M132.5,581.68l12.5-7.2168V545.5959l-12.5,7.2169Z"/>
    <path id="Path-171" data-name="Path" class="window-R-prim" d="M132.5,339.1932l12.5-7.2168V303.1088l-12.5,7.2169Z"/>
    <path id="Path-172" data-name="Path" class="window-R-prim" d="M132.5,269.9113l12.5-7.2169V233.8269l-12.5,7.2169Z"/>
    <path id="Path-173" data-name="Path" class="window-R-prim" d="M132.5,200.6292l12.5-7.2169V164.5448l-12.5,7.2169Z"/>
    <path id="Path-174" data-name="Path" class="window-R-prim" d="M132.5,408.4753l12.5-7.2169V372.3909l-12.5,7.2169Z"/>
    <path id="Path-175" data-name="Path" class="window-R-prim" d="M132.5,477.7573,145,470.54V441.6729L132.5,448.89Z"/>
    <path id="Path-176" data-name="Path" class="window-R-prim" d="M132.5,547.0393l12.5-7.2168V510.955l-12.5,7.2168Z"/>
    <path id="Path-177" data-name="Path" class="window-R-prim" d="M232.5,246.8172,245,239.6V210.7328L232.5,217.95Z"/>
    <path id="Path-178" data-name="Path" class="window-R-prim" d="M232.5,177.5353l12.5-7.2169V141.4509l-12.5,7.2169Z"/>
    <path id="Path-179" data-name="Path" class="window-R-prim" d="M232.5,108.2531l12.5-7.2168V72.1687l-12.5,7.2169Z"/>
    <path id="Path-180" data-name="Path" class="window-R-prim" d="M232.5,316.0992l12.5-7.2168V280.0148l-12.5,7.2169Z"/>
    <path id="Path-181" data-name="Path" class="window-R-prim" d="M232.5,385.3812l12.5-7.2168V349.2969l-12.5,7.2169Z"/>
    <path id="Path-182" data-name="Path" class="window-R-prim" d="M232.5,454.6633l12.5-7.2169V418.5789l-12.5,7.2169Z"/>
    <path id="Path-183" data-name="Path" class="window-R-prim" d="M232.5,523.9453l12.5-7.2169V487.8609l-12.5,7.2169Z"/>
    <path id="Path-184" data-name="Path" class="window-R-prim" d="M232.5,281.4582l12.5-7.2169V245.3738l-12.5,7.2169Z"/>
    <path id="Path-185" data-name="Path" class="window-R-prim" d="M232.5,212.1763l12.5-7.2169V176.0919l-12.5,7.2169Z"/>
    <path id="Path-186" data-name="Path" class="window-R-prim" d="M232.5,142.8941l12.5-7.2168V106.81l-12.5,7.2168Z"/>
    <path id="Path-187" data-name="Path" class="window-R-prim" d="M232.5,350.74l12.5-7.2168V314.6559l-12.5,7.2168Z"/>
    <path id="Path-188" data-name="Path" class="window-R-prim" d="M232.5,420.0223l12.5-7.2169V383.9379l-12.5,7.2169Z"/>
    <path id="Path-189" data-name="Path" class="window-R-prim" d="M232.5,489.3043l12.5-7.2168V453.22l-12.5,7.2169Z"/>
    <path id="Path-190" data-name="Path" class="window-R-prim" d="M250,236.7136l10-5.7735V202.0725l-10,5.7736Z"/>
    <path id="Path-191" data-name="Path" class="window-R-prim" d="M250,167.4316l10-5.7735V132.7906l-10,5.7735Z"/>
    <path id="Path-192" data-name="Path" class="window-R-prim" d="M250,98.15l10-5.7735V63.5085L250,69.282Z"/>
    <path id="Path-193" data-name="Path" class="window-R-prim" d="M250,305.9956l10-5.7735V271.3546l-10,5.7735Z"/>
    <path id="Path-194" data-name="Path" class="window-R-prim" d="M250,375.2776l10-5.7735V340.6366L250,346.41Z"/>
    <path id="Path-195" data-name="Path" class="window-R-prim" d="M250,444.56l10-5.7735V409.9187l-10,5.7735Z"/>
    <path id="Path-196" data-name="Path" class="window-R-prim" d="M250,513.8417l10-5.7735V479.2007l-10,5.7735Z"/>
    <path id="Path-197" data-name="Path" class="window-R-prim" d="M250,271.3546l10-5.7735V236.7136l-10,5.7735Z"/>
    <path id="Path-198" data-name="Path" class="window-R-prim" d="M250,202.0727l10-5.7735V167.4316l-10,5.7736Z"/>
    <path id="Path-199" data-name="Path" class="window-R-prim" d="M250,132.7905l10-5.7735V98.15l-10,5.7735Z"/>
    <path id="Path-200" data-name="Path" class="window-R-prim" d="M250,340.6366l10-5.7735V305.9956l-10,5.7735Z"/>
    <path id="Path-201" data-name="Path" class="window-R-prim" d="M250,409.9186l10-5.7735V375.2776l-10,5.7735Z"/>
    <path id="Path-202" data-name="Path" class="window-R-prim" d="M250,479.2007l10-5.7735V444.56l-10,5.7735Z"/>
    <path id="Path-203" data-name="Path" class="window-R-prim" d="M166.25,285.0667l11.25-6.4952V249.704l-11.25,6.4951Z"/>
    <path id="Path-204" data-name="Path" class="window-R-prim" d="M166.25,215.7847,177.5,209.29V180.422l-11.25,6.4952Z"/>
    <path id="Path-205" data-name="Path" class="window-R-prim" d="M166.25,354.3487l11.25-6.4952V318.986l-11.25,6.4952Z"/>
    <path id="Path-206" data-name="Path" class="window-R-prim" d="M166.25,423.6307l11.25-6.4952V388.268l-11.25,6.4952Z"/>
    <path id="Path-207" data-name="Path" class="window-R-prim" d="M166.25,492.9128l11.25-6.4952V457.55l-11.25,6.4951Z"/>
    <path id="Path-208" data-name="Path" class="window-R-prim" d="M166.25,562.1948,177.5,555.7V526.8321l-11.25,6.4951Z"/>
    <path id="Path-209" data-name="Path" class="window-R-prim" d="M166.25,319.7077l11.25-6.4952V284.345L166.25,290.84Z"/>
    <path id="Path-210" data-name="Path" class="window-R-prim" d="M166.25,250.4257l11.25-6.4951V215.063l-11.25,6.4952Z"/>
    <path id="Path-211" data-name="Path" class="window-R-prim" d="M166.25,181.1436l11.25-6.4952V145.7809l-11.25,6.4952Z"/>
    <path id="Path-212" data-name="Path" class="window-R-prim" d="M166.25,146.1417l11.25-6.4951V110.779l-11.25,6.4952Z"/>
    <path id="Path-213" data-name="Path" class="window-R-prim" d="M166.25,388.99l11.25-6.4952V353.627l-11.25,6.4952Z"/>
    <path id="Path-214" data-name="Path" class="window-R-prim" d="M166.25,458.2717l11.25-6.4952V422.909l-11.25,6.4952Z"/>
    <path id="Path-215" data-name="Path" class="window-R-prim" d="M166.25,527.5538l11.25-6.4952V492.1911l-11.25,6.4952Z"/>
    <path id="Path-216" data-name="Path" class="window-R-prim" d="M198.75,266.3028,210,259.8076V230.94l-11.25,6.4951Z"/>
    <path id="Path-217" data-name="Path" class="window-R-prim" d="M198.75,197.0208,210,190.5257V161.6581l-11.25,6.4952Z"/>
    <path id="Path-218" data-name="Path" class="window-R-prim" d="M198.75,127.7387,210,121.2435V92.376l-11.25,6.4952Z"/>
    <path id="Path-219" data-name="Path" class="window-R-prim" d="M198.75,335.5848,210,329.09V300.2221l-11.25,6.4952Z"/>
    <path id="Path-220" data-name="Path" class="window-R-prim" d="M198.75,404.8668,210,398.3716V369.5041l-11.25,6.4952Z"/>
    <path id="Path-221" data-name="Path" class="window-R-prim" d="M198.75,474.1489,210,467.6537V438.7862l-11.25,6.4951Z"/>
    <path id="Path-222" data-name="Path" class="window-R-prim" d="M198.75,543.4309,210,536.9357V508.0682l-11.25,6.4952Z"/>
    <path id="Path-223" data-name="Path" class="window-R-prim" d="M198.75,300.9438,210,294.4486V265.5811l-11.25,6.4952Z"/>
    <path id="Path-224" data-name="Path" class="window-R-prim" d="M198.75,231.6619,210,225.1667V196.2992l-11.25,6.4951Z"/>
    <path id="Path-225" data-name="Path" class="window-R-prim" d="M198.75,162.38,210,155.8845V127.017l-11.25,6.4952Z"/>
    <path id="Path-226" data-name="Path" class="window-R-prim" d="M198.75,370.2258,210,363.7306V334.8631l-11.25,6.4952Z"/>
    <path id="Path-227" data-name="Path" class="window-R-prim" d="M198.75,439.5078,210,433.0127V404.1451L198.75,410.64Z"/>
    <path id="Path-228" data-name="Path" class="window-R-prim" d="M198.75,508.79,210,502.2947V473.4272l-11.25,6.4952Z"/>
    <path id="Path-229" data-name="Path" class="window-R-prim" d="M100,323.3161l10-5.7735V288.6751l-10,5.7735Z"/>
    <path id="Path-230" data-name="Path" class="window-R-prim" d="M100,254.0342l10-5.7735V219.3931l-10,5.7735Z"/>
    <path id="Path-231" data-name="Path" class="window-R-prim" d="M100,184.752l10-5.7735V150.111l-10,5.7735Z"/>
    <path id="Path-232" data-name="Path" class="window-R-prim" d="M100,392.5981l10-5.7735V357.9571l-10,5.7735Z"/>
    <path id="Path-233" data-name="Path" class="window-R-prim" d="M100,461.88l10-5.7735V427.2391l-10,5.7735Z"/>
    <path id="Path-234" data-name="Path" class="window-R-prim" d="M100,531.1622l10-5.7735V496.5212l-10,5.7735Z"/>
    <path id="Path-235" data-name="Path" class="window-R-prim" d="M100,600.4442l10-5.7735V565.8032l-10,5.7735Z"/>
    <path id="Path-236" data-name="Path" class="window-R-prim" d="M100,357.9571l10-5.7735V323.3161L100,329.09Z"/>
    <path id="Path-237" data-name="Path" class="window-R-prim" d="M100,288.6752l10-5.7735V254.0342l-10,5.7735Z"/>
    <path id="Path-238" data-name="Path" class="window-R-prim" d="M100,219.393l10-5.7735V184.752l-10,5.7735Z"/>
    <path id="Path-239" data-name="Path" class="window-R-prim" d="M100,427.2391l10-5.7735V392.5981l-10,5.7735Z"/>
    <path id="Path-240" data-name="Path" class="window-R-prim" d="M100,496.5212l10-5.7735V461.88l-10,5.7735Z"/>
    <path id="Path-241" data-name="Path" class="window-R-prim" d="M100,565.8032l10-5.7735V531.1622l-10,5.7735Z"/>
    <path id="Path-242" data-name="Path" class="cls-3" d="M250,63.5086l-5,2.8867v461.88l2.5,1.4434,5-2.8867V64.9519Z"/>
    <path id="Path-243" data-name="Path" class="cls-1" d="M247.5,529.7188l-2.5-1.4433V66.3953l2.5,1.4434Z"/>
    <path id="Path-244" data-name="Path" class="cls-2" d="M247.5,67.8387l5-2.8867L250,63.5086l-5,2.8868Z"/>
    <path id="Path-245" data-name="Path" class="cls-3" d="M216.25,82.9942l-5,2.8868v461.88l2.5,1.4434,5-2.8868V84.4375Z"/>
    <path id="Path-246" data-name="Path" class="cls-1" d="M213.75,549.2044l-2.5-1.4434V85.8809l2.5,1.4434Z"/>
    <path id="Path-247" data-name="Path" class="cls-2" d="M213.75,87.3243l5-2.8868-2.5-1.4434-5,2.8868Z"/>
    <path id="Path-248" data-name="Path" class="cls-3" d="M115,141.4509l-5,2.8868v461.88l2.5,1.4434,5-2.8868v-461.88Z"/>
    <path id="Path-249" data-name="Path" class="cls-1" d="M112.5,607.6611l-2.5-1.4434v-461.88l2.5,1.4434Z"/>
    <path id="Path-250" data-name="Path" class="cls-2" d="M112.5,145.781l5-2.8868-2.5-1.4433-5,2.8867Z"/>
    <path id="Path-251" data-name="Path" class="cls-3" d="M182.5,102.48l-5,2.8867v461.88L180,568.69l5-2.8867v-461.88Z"/>
    <path id="Path-252" data-name="Path" class="cls-1" d="M180,568.69l-2.5-1.4434v-461.88L180,106.81Z"/>
    <path id="Path-253" data-name="Path" class="cls-2" d="M180,106.81l5-2.8868-2.5-1.4434-5,2.8868Z"/>
    <path id="Path-254" data-name="Path" class="cls-3" d="M148.75,121.9654l-5,2.8867v461.88l2.5,1.4433,5-2.8867v-461.88Z"/>
    <path id="Path-255" data-name="Path" class="cls-1" d="M146.25,588.1755l-2.5-1.4433v-461.88l2.5,1.4433Z"/>
    <path id="Path-256" data-name="Path" class="cls-2" d="M146.25,126.2954l5-2.8867-2.5-1.4434-5,2.8867Z"/>
    <path id="Path-257" data-name="Path" class="cls-2" d="M87.5,145.781l-5-2.8867,2.5-1.4434,5,2.8867Z"/>
    <path id="Path-258" data-name="Path" class="cls-2" d="M50,124.13l-5-2.8868L47.5,119.8l5,2.8868Z"/>
    <path id="Path-259" data-name="Path" class="cls-2" d="M12.5,102.48l-5-2.8868L10,98.15l5,2.8868Z"/>
  </g>
</svg>
