<svg id="Layer_1" data-name="Layer 1" xmlns="http://www.w3.org/2000/svg" viewBox="0 0 1062 1062">
  <defs>
    <style>
      .cls-1 {
        fill: #464646;
      }

      .cls-2 {
        fill: #e8e8e8;
      }

      .cls-3 {
        fill: #727375;
      }

      .cls-4 {
        fill: #f7f9fb;
      }

      .cls-5 {
        fill: #d24f4f;
      }

      .cls-6 {
        fill: #9a9b9d;
      }

      .cls-7 {
        fill: #e7e9ea;
      }

      .cls-8 {
        fill: #c4c6c8;
      }

      .cls-9 {
        fill: #dee1e3;
      }

      .cls-10 {
        fill: #aeaeae;
      }

      .cls-11 {
        fill: #5d5d5d;
      }

      .cls-12 {
        fill: #333;
      }

      .cls-13 {
        fill: #4a4a4a;
      }

      .cls-14 {
        fill: #757575;
      }

      .cls-15 {
        fill: #d1d1d1;
      }

      .cls-16 {
        fill: #f4f4f4;
      }

      .cls-17 {
        fill: #e3ac9c;
      }

      .cls-18 {
        fill: #8b8b8b;
      }

      .cls-19 {
        fill: #2e2e2e;
      }

      .cls-20 {
        fill: #171717;
      }

      .cls-21 {
        fill: #91675b;
      }

      .cls-22 {
        fill: #8e6153;
      }

      .cls-23 {
        fill: #bd8473;
      }

      .cls-24 {
        fill: #fb5b5b;
      }

      .cls-25 {
        fill: #fff;
      }

      .cls-26 {
        fill: #a2a2a2;
      }

      .cls-27 {
        fill: #ecc7bc;
      }

      .cls-28 {
        fill: #f9f9f9;
      }

      .cls-29 {
        fill: #b9b9b9;
      }
    </style>
  </defs>
  <title>1Artboard 84</title>
  <g id="Group">
    <path id="Path" class="cls-1" d="M26,835.9058Z"/>
    <path id="Path-2" class="cls-2" d="M26,835.9058Z"/>
    <path id="Path-4" class="cls-1" d="M26,835.9058Z"/>
    <path id="Path-5" class="cls-1" d="M26,835.9058Z"/>
    <path id="Path-7" class="cls-3" d="M26,835.9058Z"/>
    <path id="Path-10" class="cls-4" d="M26,835.9058Z"/>
    <path id="Path-14" class="cls-5" d="M26,835.9058Z"/>
    <path id="Path-40" class="cls-6" d="M26,835.9058Z"/>
    <path id="Path-43" class="cls-2" d="M26,835.9058Z"/>
    <path id="Path-47" class="cls-7" d="M26,835.9058Z"/>
    <path id="Path-48" class="cls-8" d="M26,835.9058Z"/>
    <path id="Path-49" class="cls-9" d="M26,835.9058Z"/>
    <path id="Path-52" class="cls-1" d="M26,835.9058Z"/>
    <path id="Path-53" class="cls-10" d="M26,835.9058Z"/>
    <path id="Path-54" class="cls-6" d="M26,835.9058Z"/>
    <g id="Group-52">
      <g id="Group-54">
        <path id="Path-220" class="cls-9" d="M26,835.9058Z"/>
        <path id="Path-222" class="cls-11" d="M26,835.9058Z"/>
      </g>
    </g>
    <g id="Group-159">
      <g id="Group-164">
        <path id="Path-652" class="cls-12" d="M26,835.9058Z"/>
      </g>
    </g>
    <path id="Path-831" class="cls-3" d="M26,835.9058Z"/>
    <path id="Path-834" class="cls-3" d="M26,835.9058Z"/>
    <g id="Group-224">
      <g id="Group-225">
        <path id="Path-899" class="cls-13" d="M26,835.9058Z"/>
      </g>
    </g>
    <g id="Group-227">
      <g id="Group-228">
        <path id="Path-909" class="cls-13" d="M26,835.9058Z"/>
        <path id="Path-910" class="cls-11" d="M26,835.9058Z"/>
        <path id="Path-913" class="cls-14" d="M26,835.9058Z"/>
      </g>
    </g>
    <path id="Path-990" class="cls-15" d="M26,835.9058Z"/>
    <path id="Path-992" class="cls-4" d="M26,835.9058Z"/>
    <path id="Path-993" class="cls-7" d="M26,835.9058Z"/>
    <path id="Path-1008" class="cls-9" d="M26,835.9058Z"/>
  </g>
  <g id="Group-2" data-name="Group">
    <path id="Path-2-2" data-name="Path" class="cls-16" d="M550.6546,919.2488,760.2188,798.2569,501.3454,648.7962,291.7812,769.7882Z"/>
    <path id="Path-3" data-name="Path" class="cls-17" d="M550.6546,869.4285,710.91,776.9054,501.3454,655.9134,341.09,748.4366Z"/>
    <path id="Path-4-2" data-name="Path" class="cls-2" d="M698.5823,776.9052,501.3454,663.0305,353.4177,748.4366,550.6546,862.3114Z"/>
    <path id="Path-5-2" data-name="Path" class="cls-2" d="M698.5823,748.4366,501.3454,634.5618,353.4177,719.9679,550.6546,833.8428Z"/>
    <path id="Path-6" data-name="Path" class="cls-1" d="M698.5823,748.4366v28.4688l-147.9277,85.406V833.8428Z"/>
    <path id="Path-7-2" data-name="Path" class="cls-1" d="M661.6,769.7882l18.4909-24.91,18.491,3.5586Z"/>
    <path id="Path-8" data-name="Path" class="cls-18" d="M661.6,769.7882l18.4909-24.91L501.3454,641.679l-18.491,24.91Z"/>
    <path id="Path-9" data-name="Path" class="cls-17" d="M698.5823,349.8749,501.3454,236,353.4177,321.4062,550.6546,435.2809Z"/>
    <path id="Path-10-2" data-name="Path" d="M353.4177,321.4062,550.6546,435.2809V833.8428L353.4177,719.9679Z"/>
    <path id="Path-11" data-name="Path" class="cls-19" d="M698.5823,349.8749v56.9373L550.6546,492.2183V435.2809Z"/>
    <path id="Path-12" data-name="Path" class="cls-2" d="M680.0913,744.878l18.491,3.5586L519.8363,645.2377l-18.4909-3.5587Z"/>
    <path id="Path-13" data-name="Path" class="cls-19" d="M680.0913,531.3628V588.3l-129.4367,74.73V606.0931Z"/>
    <path id="Path-14-2" data-name="Path" class="cls-19" d="M673.9277,591.8588v56.9374L550.6546,719.9679V663.0305Z"/>
    <path id="Path-15" data-name="Path" class="cls-19" d="M686.255,470.8668v56.9373l-135.6,78.289V549.1558Z"/>
    <path id="Path-16" data-name="Path" class="cls-19" d="M667.764,652.3547v56.9375l-117.1094,67.613V719.9679Z"/>
    <path id="Path-17" data-name="Path" class="cls-19" d="M661.6,712.8507v56.9374L550.6546,833.8428V776.9054Z"/>
    <path id="Path-18" data-name="Path" class="cls-19" d="M692.4187,410.3707v56.9375L550.6546,549.1558V492.2183Z"/>
    <path id="Path-19" data-name="Path" class="cls-20" d="M353.4177,719.9679v28.4687L550.6546,862.3113V833.8428Z"/>
    <path id="Path-20" data-name="Path" class="cls-1" d="M550.6546,435.2809V463.75l147.9277-85.4061V349.8749Z"/>
    <path id="Path-21" data-name="Path" class="cls-20" d="M550.6546,435.2809V463.75L353.4177,349.8749V321.4062Z"/>
    <path id="Path-22" data-name="Path" class="cls-20" d="M550.6546,549.1558v28.4686L353.4177,463.75V435.2809Z"/>
    <path id="Path-23" data-name="Path" class="cls-20" d="M550.6546,719.9679v28.4687L353.4177,634.5618V606.0931Z"/>
    <path id="Path-24" data-name="Path" class="cls-20" d="M550.6546,492.2183v28.4686L353.4177,406.8122V378.3435Z"/>
    <path id="Path-25" data-name="Path" class="cls-20" d="M550.6546,663.0305v28.4687L353.4177,577.6244V549.1558Z"/>
    <path id="Path-26" data-name="Path" class="cls-20" d="M550.6546,606.0931v28.4687L353.4177,520.6869V492.2183Z"/>
    <path id="Path-27" data-name="Path" class="cls-20" d="M550.6546,776.9054v28.4685L353.4177,691.4992V663.0305Z"/>
    <path id="Path-28" data-name="Path" class="cls-1" d="M550.6546,606.0931v28.4687l129.4367-74.73V531.3628Z"/>
    <path id="Path-29" data-name="Path" class="cls-1" d="M550.6546,492.2183v28.4686L692.4187,438.84V410.3707Z"/>
    <path id="Path-30" data-name="Path" class="cls-1" d="M550.6546,663.0305v28.4687l123.2731-71.1718V591.8588Z"/>
    <path id="Path-31" data-name="Path" class="cls-1" d="M550.6546,549.1558v28.4686l135.6-78.2889V470.8668Z"/>
    <path id="Path-32" data-name="Path" class="cls-1" d="M550.6546,719.9679v28.4687L667.764,680.8235V652.3547Z"/>
    <path id="Path-33" data-name="Path" class="cls-1" d="M550.6546,776.9054v28.4687L661.6,741.3194V712.8507Z"/>
    <path id="Path-34" data-name="Path" class="cls-21" d="M365.745,321.4062l135.6-78.289,184.91,106.7577-135.6,78.2888Z"/>
    <path id="Path-35" data-name="Path" class="cls-20" d="M501.3454,243.1172v14.2343L673.9277,356.992l12.3273-7.1171Z"/>
    <path id="Path-36" data-name="Path" class="cls-1" d="M365.745,321.4062l135.6-78.289v14.2343L378.0723,328.5234Z"/>
    <path id="Path-37" data-name="Path" class="cls-22" d="M341.09,748.4366v21.3516L550.6546,890.78V869.4285Z"/>
    <path id="Path-38" data-name="Path" class="cls-23" d="M710.91,776.9054v21.3515L550.6546,890.78V869.4285Z"/>
    <path id="Path-39" data-name="Path" class="cls-17" d="M544.491,865.87l18.4909,10.6758L593.8,858.7528l-18.491-10.6757Z"/>
    <path id="Path-40-2" data-name="Path" class="cls-22" d="M544.491,887.2215l18.4909,10.6758V876.5458L544.491,865.87Z"/>
    <path id="Path-41" data-name="Path" class="cls-23" d="M593.8,858.7528v21.3515l-30.8183,17.793V876.5458Z"/>
    <path id="Path-42" data-name="Path" class="cls-19" d="M581.4729,880.1043v-7.1172l-12.3273,7.1172v7.1172Z"/>
    <path id="Path-43-2" data-name="Path" class="cls-22" d="M587.6365,883.6629l-6.1636-3.5586v-7.1172l6.1636-3.5586Z"/>
    <path id="Path-44" data-name="Path" class="cls-2" d="M569.1456,901.4558V887.2215l12.3273-7.1172L593.8,887.2215Z"/>
    <path id="Path-45" data-name="Path" class="cls-24" d="M494.9936,423.2376l-7.4154-18.5521c-.505-1.2635-1.5735-1.4023-2.3845-.31l-6.3066,8.4958a2.1468,2.1468,0,0,0,.6657,3.2124l14.2207,8.21C494.9519,424.9746,495.4987,424.5012,494.9936,423.2376Z"/>
    <path id="Path-46" data-name="Path" class="cls-25" d="M541.4091,446.0325v-4.6517a2.3613,2.3613,0,0,0-1.0675-1.8491l-37.9287-21.8981c-.5891-.34-1.0675-.064-1.0675.6164v4.6517a2.3615,2.3615,0,0,0,1.0675,1.8491l37.9287,21.8981C540.9307,446.989,541.4091,446.7129,541.4091,446.0325Z"/>
    <path id="Path-47-2" data-name="Path" class="cls-15" d="M550.6546,919.2488v5.3378L760.2188,803.5947v-5.3378Z"/>
    <path id="Path-48-2" data-name="Path" class="cls-26" d="M550.6546,919.2488v5.3378L291.7812,775.1259v-5.3378Z"/>
    <path id="Path-49-2" data-name="Path" class="cls-27" d="M516.7545,287.6,424.3,340.9783l-21.5728-12.4549,92.4548-53.3789Z"/>
    <g id="Group-3" data-name="Group">
      <path id="Path-50" data-name="Path" class="cls-28" d="M455.118,286.1715l14.0964,8.1386,37.59-21.7028-14.0964-8.1386Z"/>
      <path id="Path-51" data-name="Path" class="cls-29" d="M469.2144,294.31v16.2771l-14.0964-8.1386V286.1715Z"/>
      <path id="Path-52-2" data-name="Path" class="cls-15" d="M506.8048,272.6073v16.2771l-37.59,21.7028V294.31Z"/>
      <path id="Path-53-2" data-name="Path" class="cls-1" d="M471.5638,295.6665l9.3976-5.4257v10.8514l-9.3976,5.4258Z"/>
      <path id="Path-54-2" data-name="Path" class="cls-1" d="M483.3108,288.8844l9.3976-5.4258V294.31l-9.3976,5.4257Z"/>
      <path id="Path-55" data-name="Path" class="cls-1" d="M495.0578,282.1023l9.3976-5.4258v10.8514l-9.3976,5.4257Z"/>
      <g id="Group-4" data-name="Group">
        <ellipse id="Ellipse" class="cls-29" cx="468.8788" cy="285.6655" rx="5.0344" ry="2.9066"/>
        <rect id="Rectangle" class="cls-29" x="463.8445" y="283.1308" width="10.0689" height="2.5345"/>
        <ellipse id="Ellipse-2" data-name="Ellipse" class="cls-25" cx="468.8788" cy="283.1314" rx="5.0344" ry="2.9066"/>
      </g>
      <g id="Group-5" data-name="Group">
        <ellipse id="Ellipse-3" data-name="Ellipse" class="cls-29" cx="481.0957" cy="278.8301" rx="5.0344" ry="2.9066"/>
        <rect id="Rectangle-2" data-name="Rectangle" class="cls-29" x="476.0609" y="276.2966" width="10.0689" height="2.5345"/>
        <ellipse id="Ellipse-4" data-name="Ellipse" class="cls-25" cx="481.0957" cy="276.2961" rx="5.0344" ry="2.9066"/>
      </g>
      <g id="Group-6" data-name="Group">
        <ellipse id="Ellipse-5" data-name="Ellipse" class="cls-29" cx="493.3125" cy="271.9947" rx="5.0344" ry="2.9066"/>
        <rect id="Rectangle-3" data-name="Rectangle" class="cls-29" x="488.2784" y="269.4611" width="10.0689" height="2.5345"/>
        <ellipse id="Ellipse-6" data-name="Ellipse" class="cls-25" cx="493.3125" cy="269.4607" rx="5.0344" ry="2.9066"/>
      </g>
    </g>
    <g id="Group-7" data-name="Group">
      <path id="Path-56" data-name="Path" class="cls-28" d="M411.1357,311.0817l14.0965,8.1385,37.59-21.7028-14.0963-8.1386Z"/>
      <path id="Path-57" data-name="Path" class="cls-29" d="M425.2322,319.22v16.2771l-14.0965-8.1385V311.0817Z"/>
      <path id="Path-58" data-name="Path" class="cls-15" d="M462.8225,297.5174v16.2771l-37.59,21.7029V319.22Z"/>
      <path id="Path-59" data-name="Path" class="cls-1" d="M427.5815,320.5767l9.3976-5.4258v10.8514l-9.3976,5.4257Z"/>
      <path id="Path-60" data-name="Path" class="cls-1" d="M439.3285,313.7945l9.3977-5.4257V319.22l-9.3977,5.4257Z"/>
      <path id="Path-61" data-name="Path" class="cls-1" d="M451.0755,307.0123l9.3976-5.4256V312.438l-9.3976,5.4258Z"/>
      <g id="Group-8" data-name="Group">
        <ellipse id="Ellipse-7" data-name="Ellipse" class="cls-29" cx="424.8965" cy="310.5755" rx="5.0344" ry="2.9066"/>
        <rect id="Rectangle-4" data-name="Rectangle" class="cls-29" x="419.8619" y="308.0419" width="10.0689" height="2.5345"/>
        <ellipse id="Ellipse-8" data-name="Ellipse" class="cls-25" cx="424.8965" cy="308.0415" rx="5.0344" ry="2.9066"/>
      </g>
      <g id="Group-9" data-name="Group">
        <ellipse id="Ellipse-9" data-name="Ellipse" class="cls-29" cx="437.1134" cy="303.7402" rx="5.0344" ry="2.9066"/>
        <rect id="Rectangle-5" data-name="Rectangle" class="cls-29" x="432.0795" y="301.2064" width="10.0689" height="2.5345"/>
        <ellipse id="Ellipse-10" data-name="Ellipse" class="cls-25" cx="437.1134" cy="301.2061" rx="5.0344" ry="2.9066"/>
      </g>
      <g id="Group-10" data-name="Group">
        <ellipse id="Ellipse-11" data-name="Ellipse" class="cls-29" cx="449.3303" cy="296.9049" rx="5.0344" ry="2.9066"/>
        <rect id="Rectangle-6" data-name="Rectangle" class="cls-29" x="444.2958" y="294.3709" width="10.0689" height="2.5345"/>
        <ellipse id="Ellipse-12" data-name="Ellipse" class="cls-25" cx="449.3303" cy="294.3708" rx="5.0344" ry="2.9066"/>
      </g>
    </g>
  </g>
</svg>
