<svg id="Layer_1" data-name="Layer 1" xmlns="http://www.w3.org/2000/svg" xmlns:xlink="http://www.w3.org/1999/xlink" viewBox="0 0 1056 1056">
  <defs>
    <style>
      .cls-1 {
        fill: none;
      }

      .concrete-right {
        fill: #d1d1d1;
      }

      .concrete-left {
        fill: #a2a2a2;
      }

      .concrete-top {
        fill: #e8e8e8;
      }

      .cls-2 {
        fill: #e4e6ea;
      }

      .cls-3 {
        fill: #171717;
      }

      .cls-4 {
        fill: #fff;
      }

      .cls-5 {
        fill: gray;
      }

      .cls-6 {
        fill: #fbfbfb;
      }

      .cls-7 {
        fill: #999b9d;
      }

      .cls-8 {
        fill: #c9cbce;
      }

      .cls-9 {
        fill: #464646;
      }

      .cls-10 {
        fill: #2e2e2e;
      }

      .cls-11 {
        fill: #6a6a6a;
      }

      .cls-12 {
        fill: #8b8b8b;
      }

      .cls-13 {
        fill: #747474;
      }

      .cls-14 {
        fill: #3e3e3e;
      }

      .cls-15 {
        fill: #5d5d5d;
      }

      .cls-16 {
        fill: #717070;
      }

      .cls-17 {
        fill: #e1e3e6;
      }

      .cls-18 {
        fill: #b9b9b9;
      }

      .cls-19 {
        fill: #1c1c1c;
      }

      .cls-20 {
        clip-path: url(#clip-path);
      }

      .cls-21 {
        clip-path: url(#clip-path-2);
      }

      .cls-22 {
        clip-path: url(#clip-path-3);
      }

      .cls-23 {
        clip-path: url(#clip-path-4);
      }

      .cls-24 {
        clip-path: url(#clip-path-5);
      }

      .cls-25 {
        clip-path: url(#clip-path-6);
      }

      .cls-26 {
        clip-path: url(#clip-path-7);
      }

      .cls-27 {
        clip-path: url(#clip-path-8);
      }

      .cls-28 {
        clip-path: url(#clip-path-9);
      }

      .cls-29 {
        clip-path: url(#clip-path-10);
      }

      .cls-30 {
        clip-path: url(#clip-path-11);
      }

      .cls-31 {
        clip-path: url(#clip-path-12);
      }

      .cls-32 {
        clip-path: url(#clip-path-13);
      }

      .cls-33 {
        clip-path: url(#clip-path-14);
      }

      .cls-34 {
        clip-path: url(#clip-path-15);
      }

      .cls-35 {
        clip-path: url(#clip-path-16);
      }

      .cls-36 {
        clip-path: url(#clip-path-17);
      }

      .cls-37 {
        clip-path: url(#clip-path-18);
      }

      .cls-38 {
        clip-path: url(#clip-path-19);
      }

      .cls-39 {
        clip-path: url(#clip-path-20);
      }

      .cls-40 {
        clip-path: url(#clip-path-21);
      }

      .cls-41 {
        clip-path: url(#clip-path-22);
      }

      .cls-42 {
        clip-path: url(#clip-path-23);
      }

      .cls-43 {
        clip-path: url(#clip-path-24);
      }

      .cls-44 {
        clip-path: url(#clip-path-25);
      }

      .cls-45 {
        clip-path: url(#clip-path-26);
      }

      .cls-46 {
        clip-path: url(#clip-path-27);
      }

      .cls-47 {
        clip-path: url(#clip-path-28);
      }

      .cls-48 {
        clip-path: url(#clip-path-29);
      }

      .cls-49 {
        clip-path: url(#clip-path-30);
      }

      .cls-50 {
        clip-path: url(#clip-path-31);
      }

      .cls-51 {
        clip-path: url(#clip-path-32);
      }

      .cls-52 {
        clip-path: url(#clip-path-33);
      }

      .cls-53 {
        clip-path: url(#clip-path-34);
      }

      .cls-54 {
        clip-path: url(#clip-path-35);
      }

      .cls-55 {
        clip-path: url(#clip-path-36);
      }

      .cls-56 {
        clip-path: url(#clip-path-37);
      }

      .cls-57 {
        clip-path: url(#clip-path-38);
      }

      .cls-58 {
        clip-path: url(#clip-path-39);
      }

      .cls-59 {
        clip-path: url(#clip-path-40);
      }

      .cls-60 {
        clip-path: url(#clip-path-41);
      }

      .cls-61 {
        clip-path: url(#clip-path-42);
      }

      .cls-62 {
        clip-path: url(#clip-path-43);
      }

      .cls-63 {
        clip-path: url(#clip-path-44);
      }

      .cls-64 {
        clip-path: url(#clip-path-45);
      }

      .cls-65 {
        clip-path: url(#clip-path-46);
      }

      .cls-66 {
        clip-path: url(#clip-path-47);
      }

      .cls-67 {
        clip-path: url(#clip-path-48);
      }

      .cls-68 {
        clip-path: url(#clip-path-49);
      }

      .cls-69 {
        clip-path: url(#clip-path-50);
      }

      .cls-70 {
        clip-path: url(#clip-path-51);
      }

      .cls-71 {
        clip-path: url(#clip-path-52);
      }
    </style>
    <clipPath id="clip-path">
      <path class="cls-1" d="M265.3784,495.33h0a16.0495,16.0495,0,0,0,14.51,0h0c4.0035-2.3123,4.0035-6.0662,0-8.3773h0a16.0421,16.0421,0,0,0-14.51,0h0C261.375,489.2638,261.375,493.0177,265.3784,495.33Z"/>
    </clipPath>
    <clipPath id="clip-path-2">
      <path class="cls-1" d="M288.6946,508.674h0a16.0421,16.0421,0,0,0,14.51,0h0c4.0046-2.3111,4.0046-6.0649,0-8.3772h0a16.0489,16.0489,0,0,0-14.51,0h0C284.6911,502.6091,284.6911,506.3629,288.6946,508.674Z"/>
    </clipPath>
    <clipPath id="clip-path-3">
      <path class="cls-1" d="M311.91,522.0773h0a16.0418,16.0418,0,0,0,14.5094,0h0c4.0046-2.3111,4.0046-6.065,0-8.3772h0a16.0487,16.0487,0,0,0-14.5094,0h0C307.9063,516.0123,307.9063,519.7662,311.91,522.0773Z"/>
    </clipPath>
    <clipPath id="clip-path-4">
      <path class="cls-1" d="M335.0239,535.4805h0a16.0414,16.0414,0,0,0,14.5095,0h0c4.0035-2.311,4.0035-6.0649,0-8.3771h0a16.0489,16.0489,0,0,0-14.5095,0h0C331.0205,529.4156,331.0205,533.17,335.0239,535.4805Z"/>
    </clipPath>
    <clipPath id="clip-path-5">
      <path class="cls-1" d="M358.34,548.8838h0a16.0414,16.0414,0,0,0,14.51,0h0c4.0046-2.311,4.0046-6.0649,0-8.3772h0a16.0489,16.0489,0,0,0-14.51,0h0C354.3366,542.8189,354.3366,546.5728,358.34,548.8838Z"/>
    </clipPath>
    <clipPath id="clip-path-6">
      <path class="cls-1" d="M335.1249,562.2871h0a16.0421,16.0421,0,0,0,14.51,0h0c4.0046-2.311,4.0046-6.0649,0-8.3772h0a16.0489,16.0489,0,0,0-14.51,0h0C331.1215,556.2222,331.1215,559.9761,335.1249,562.2871Z"/>
    </clipPath>
    <clipPath id="clip-path-7">
      <path class="cls-1" d="M311.7078,548.8838h0a16.0414,16.0414,0,0,0,14.51,0h0c4.0034-2.311,4.0034-6.0649,0-8.3772h0a16.0489,16.0489,0,0,0-14.51,0h0C307.7032,542.8189,307.7032,546.5728,311.7078,548.8838Z"/>
    </clipPath>
    <clipPath id="clip-path-8">
      <path class="cls-1" d="M288.4926,481.9847h0a16.0495,16.0495,0,0,0,14.51,0h0c4.0034-2.3122,4.0034-6.065,0-8.3772h0a16.0414,16.0414,0,0,0-14.51,0h0C284.488,475.92,284.488,479.6725,288.4926,481.9847Z"/>
    </clipPath>
    <clipPath id="clip-path-9">
      <path class="cls-1" d="M311.8088,495.33h0a16.0493,16.0493,0,0,0,14.5094,0h0c4.0035-2.3123,4.0035-6.0662,0-8.3773h0a16.0418,16.0418,0,0,0-14.5094,0h0C307.8053,489.2638,307.8053,493.0177,311.8088,495.33Z"/>
    </clipPath>
    <clipPath id="clip-path-10">
      <path class="cls-1" d="M335.0239,508.7332h0a16.0489,16.0489,0,0,0,14.5095,0h0c4.0035-2.3122,4.0035-6.0661,0-8.3772h0a16.0421,16.0421,0,0,0-14.5095,0h0C331.0205,502.6671,331.0205,506.421,335.0239,508.7332Z"/>
    </clipPath>
    <clipPath id="clip-path-11">
      <path class="cls-1" d="M358.1381,522.1365h0a16.0495,16.0495,0,0,0,14.51,0h0c4.0034-2.3122,4.0034-6.0661,0-8.3772h0a16.0414,16.0414,0,0,0-14.51,0h0C354.1335,516.07,354.1335,519.8243,358.1381,522.1365Z"/>
    </clipPath>
    <clipPath id="clip-path-12">
      <path class="cls-1" d="M381.4543,535.54h0a16.0493,16.0493,0,0,0,14.5094,0h0c4.0035-2.3123,4.0035-6.0662,0-8.3773h0a16.0418,16.0418,0,0,0-14.5094,0h0C377.4508,529.4736,377.4508,533.2275,381.4543,535.54Z"/>
    </clipPath>
    <clipPath id="clip-path-13">
      <path class="cls-1" d="M311.7078,468.5814h0a16.0489,16.0489,0,0,0,14.51,0h0c4.0034-2.3122,4.0034-6.065,0-8.3772h0a16.0421,16.0421,0,0,0-14.51,0h0C307.7032,462.5164,307.7032,466.2692,311.7078,468.5814Z"/>
    </clipPath>
    <clipPath id="clip-path-14">
      <path class="cls-1" d="M335.0239,481.9266h0a16.0489,16.0489,0,0,0,14.5095,0h0c4.0035-2.3122,4.0035-6.0661,0-8.3772h0a16.0421,16.0421,0,0,0-14.5095,0h0C331.0205,475.8605,331.0205,479.6144,335.0239,481.9266Z"/>
    </clipPath>
    <clipPath id="clip-path-15">
      <path class="cls-1" d="M358.2391,495.33h0a16.0495,16.0495,0,0,0,14.51,0h0c4.0034-2.3123,4.0034-6.0662,0-8.3773h0a16.0421,16.0421,0,0,0-14.51,0h0C354.2356,489.2638,354.2356,493.0177,358.2391,495.33Z"/>
    </clipPath>
    <clipPath id="clip-path-16">
      <path class="cls-1" d="M381.3533,508.7332h0a16.0487,16.0487,0,0,0,14.5094,0h0c4.0035-2.3122,4.0035-6.0661,0-8.3772h0a16.0418,16.0418,0,0,0-14.5094,0h0C377.3487,502.6671,377.3487,506.421,381.3533,508.7332Z"/>
    </clipPath>
    <clipPath id="clip-path-17">
      <path class="cls-1" d="M404.6694,522.1365h0a16.0495,16.0495,0,0,0,14.51,0h0c4.0035-2.3122,4.0035-6.0661,0-8.3772h0a16.0414,16.0414,0,0,0-14.51,0h0C400.666,516.07,400.666,519.8243,404.6694,522.1365Z"/>
    </clipPath>
    <clipPath id="clip-path-18">
      <path class="cls-1" d="M358.1381,441.7749h0a16.0495,16.0495,0,0,0,14.51,0h0c4.0034-2.3122,4.0034-6.065,0-8.3773h0a16.0421,16.0421,0,0,0-14.51,0h0C354.1335,435.71,354.1335,439.4627,358.1381,441.7749Z"/>
    </clipPath>
    <clipPath id="clip-path-19">
      <path class="cls-1" d="M381.4543,455.12h0a16.0487,16.0487,0,0,0,14.5094,0h0c4.0035-2.3123,4.0035-6.0661,0-8.3772h0a16.0418,16.0418,0,0,0-14.5094,0h0C377.4508,449.054,377.4508,452.8078,381.4543,455.12Z"/>
    </clipPath>
    <clipPath id="clip-path-20">
      <path class="cls-1" d="M404.6694,468.5233h0a16.0489,16.0489,0,0,0,14.51,0h0c4.0035-2.3121,4.0035-6.066,0-8.3771h0a16.0414,16.0414,0,0,0-14.51,0h0C400.666,462.4573,400.666,466.2112,404.6694,468.5233Z"/>
    </clipPath>
    <clipPath id="clip-path-21">
      <path class="cls-1" d="M427.7836,481.9266h0a16.0489,16.0489,0,0,0,14.51,0h0c4.0034-2.3122,4.0034-6.0661,0-8.3772h0a16.0421,16.0421,0,0,0-14.51,0h0C423.779,475.8605,423.779,479.6144,427.7836,481.9266Z"/>
    </clipPath>
    <clipPath id="clip-path-22">
      <path class="cls-1" d="M451.1,495.33h0a16.0493,16.0493,0,0,0,14.5094,0h0c4.0035-2.3123,4.0035-6.0662,0-8.3773h0a16.0418,16.0418,0,0,0-14.5094,0h0C447.0963,489.2638,447.0963,493.0177,451.1,495.33Z"/>
    </clipPath>
    <clipPath id="clip-path-23">
      <path class="cls-1" d="M334.9229,455.0609h0a16.0421,16.0421,0,0,0,14.5095,0h0c4.0035-2.3111,4.0035-6.065,0-8.3772h0a16.0489,16.0489,0,0,0-14.5095,0h0C330.9183,448.9959,330.9183,452.75,334.9229,455.0609Z"/>
    </clipPath>
    <clipPath id="clip-path-24">
      <path class="cls-1" d="M358.2391,468.4062h0a16.0421,16.0421,0,0,0,14.51,0h0c4.0034-2.3123,4.0034-6.065,0-8.3773h0a16.0495,16.0495,0,0,0-14.51,0h0C354.2356,462.3412,354.2356,466.0939,358.2391,468.4062Z"/>
    </clipPath>
    <clipPath id="clip-path-25">
      <path class="cls-1" d="M381.4543,481.8094h0a16.0412,16.0412,0,0,0,14.5094,0h0c4.0035-2.3122,4.0035-6.065,0-8.3772h0a16.0493,16.0493,0,0,0-14.5094,0h0C377.4508,475.7444,377.4508,479.4972,381.4543,481.8094Z"/>
    </clipPath>
    <clipPath id="clip-path-26">
      <path class="cls-1" d="M404.5684,495.2127h0a16.0421,16.0421,0,0,0,14.51,0h0c4.0035-2.3122,4.0035-6.065,0-8.3772h0a16.0489,16.0489,0,0,0-14.51,0h0C400.5638,489.1477,400.5638,492.9005,404.5684,495.2127Z"/>
    </clipPath>
    <clipPath id="clip-path-27">
      <path class="cls-1" d="M427.8846,508.616h0a16.0421,16.0421,0,0,0,14.51,0h0c4.0034-2.3123,4.0034-6.065,0-8.3773h0a16.0495,16.0495,0,0,0-14.51,0h0C423.8811,502.551,423.8811,506.3037,427.8846,508.616Z"/>
    </clipPath>
    <clipPath id="clip-path-28">
      <path class="cls-1" d="M404.6694,386.4276h0a16.0421,16.0421,0,0,0,14.51,0h0c4.0035-2.3111,4.0035-6.065,0-8.3772h0a16.0489,16.0489,0,0,0-14.51,0h0C400.666,380.3626,400.666,384.1165,404.6694,386.4276Z"/>
    </clipPath>
    <clipPath id="clip-path-29">
      <path class="cls-1" d="M427.9856,399.7728h0a16.0489,16.0489,0,0,0,14.51,0h0c4.0046-2.3122,4.0046-6.065,0-8.3772h0a16.0421,16.0421,0,0,0-14.51,0h0C423.9821,393.7078,423.9821,397.4606,427.9856,399.7728Z"/>
    </clipPath>
    <clipPath id="clip-path-30">
      <path class="cls-1" d="M451.2007,413.1761h0a16.0489,16.0489,0,0,0,14.51,0h0c4.0046-2.3122,4.0046-6.065,0-8.3772h0a16.0421,16.0421,0,0,0-14.51,0h0C447.1973,407.1111,447.1973,410.8639,451.2007,413.1761Z"/>
    </clipPath>
    <clipPath id="clip-path-31">
      <path class="cls-1" d="M474.3149,426.5794h0a16.0495,16.0495,0,0,0,14.51,0h0c4.0034-2.3122,4.0034-6.065,0-8.3772h0a16.0421,16.0421,0,0,0-14.51,0h0C470.3115,420.5144,470.3115,424.2672,474.3149,426.5794Z"/>
    </clipPath>
    <clipPath id="clip-path-32">
      <path class="cls-1" d="M497.631,439.9827h0a16.0495,16.0495,0,0,0,14.51,0h0c4.0047-2.3123,4.0047-6.065,0-8.3773h0a16.0421,16.0421,0,0,0-14.51,0h0C493.6276,433.9177,493.6276,437.67,497.631,439.9827Z"/>
    </clipPath>
    <clipPath id="clip-path-33">
      <path class="cls-1" d="M427.7836,373.0824h0a16.0421,16.0421,0,0,0,14.51,0h0c4.0034-2.3111,4.0034-6.065,0-8.3761h0a16.0421,16.0421,0,0,0-14.51,0h0C423.779,367.0174,423.779,370.7713,427.7836,373.0824Z"/>
    </clipPath>
    <clipPath id="clip-path-34">
      <path class="cls-1" d="M451.1,386.4276h0a16.0418,16.0418,0,0,0,14.5094,0h0c4.0035-2.3111,4.0035-6.065,0-8.3772h0a16.0487,16.0487,0,0,0-14.5094,0h0C447.0963,380.3626,447.0963,384.1165,451.1,386.4276Z"/>
    </clipPath>
    <clipPath id="clip-path-35">
      <path class="cls-1" d="M474.3149,399.8308h0a16.0414,16.0414,0,0,0,14.51,0h0c4.0034-2.311,4.0034-6.0649,0-8.3771h0a16.0489,16.0489,0,0,0-14.51,0h0C470.3115,393.7659,470.3115,397.52,474.3149,399.8308Z"/>
    </clipPath>
    <clipPath id="clip-path-36">
      <path class="cls-1" d="M497.4291,413.2341h0a16.0421,16.0421,0,0,0,14.51,0h0c4.0034-2.3111,4.0034-6.0649,0-8.3772h0a16.0495,16.0495,0,0,0-14.51,0h0C493.4245,407.1692,493.4245,410.923,497.4291,413.2341Z"/>
    </clipPath>
    <clipPath id="clip-path-37">
      <path class="cls-1" d="M520.7453,426.6374h0a16.0412,16.0412,0,0,0,14.5094,0h0c4.0035-2.3111,4.0035-6.065,0-8.3772h0a16.0493,16.0493,0,0,0-14.5094,0h0C516.7418,420.5724,516.7418,424.3263,520.7453,426.6374Z"/>
    </clipPath>
    <clipPath id="clip-path-38">
      <path class="cls-1" d="M450.9988,359.6791h0a16.0421,16.0421,0,0,0,14.51,0h0c4.0034-2.3111,4.0034-6.065,0-8.3761h0a16.0421,16.0421,0,0,0-14.51,0h0C446.9942,353.6141,446.9942,357.368,450.9988,359.6791Z"/>
    </clipPath>
    <clipPath id="clip-path-39">
      <path class="cls-1" d="M474.3149,373.0243h0a16.0421,16.0421,0,0,0,14.51,0h0c4.0034-2.3111,4.0034-6.065,0-8.3772h0a16.0489,16.0489,0,0,0-14.51,0h0C470.3115,366.9593,470.3115,370.7132,474.3149,373.0243Z"/>
    </clipPath>
    <clipPath id="clip-path-40">
      <path class="cls-1" d="M497.53,386.4276h0a16.0421,16.0421,0,0,0,14.5095,0h0c4.0034-2.3111,4.0034-6.065,0-8.3772h0a16.0489,16.0489,0,0,0-14.5095,0h0C493.5267,380.3626,493.5267,384.1165,497.53,386.4276Z"/>
    </clipPath>
    <clipPath id="clip-path-41">
      <path class="cls-1" d="M520.6443,399.8308h0a16.0414,16.0414,0,0,0,14.51,0h0c4.0034-2.311,4.0034-6.0649,0-8.3771h0a16.0489,16.0489,0,0,0-14.51,0h0C516.64,393.7659,516.64,397.52,520.6443,399.8308Z"/>
    </clipPath>
    <clipPath id="clip-path-42">
      <path class="cls-1" d="M543.96,413.2341h0a16.0421,16.0421,0,0,0,14.51,0h0c4.0034-2.3111,4.0034-6.0649,0-8.3772h0a16.0495,16.0495,0,0,0-14.51,0h0C539.957,407.1692,539.957,410.923,543.96,413.2341Z"/>
    </clipPath>
    <clipPath id="clip-path-43">
      <path class="cls-1" d="M497.4291,332.8725h0a16.0421,16.0421,0,0,0,14.51,0h0c4.0034-2.3111,4.0034-6.0649,0-8.376h0a16.0421,16.0421,0,0,0-14.51,0h0C493.4245,326.8076,493.4245,330.5614,497.4291,332.8725Z"/>
    </clipPath>
    <clipPath id="clip-path-44">
      <path class="cls-1" d="M520.7453,346.2178h0a16.0418,16.0418,0,0,0,14.5094,0h0c4.0035-2.3111,4.0035-6.065,0-8.3773h0a16.0493,16.0493,0,0,0-14.5094,0h0C516.7418,340.1528,516.7418,343.9067,520.7453,346.2178Z"/>
    </clipPath>
    <clipPath id="clip-path-45">
      <path class="cls-1" d="M543.96,359.621h0a16.0414,16.0414,0,0,0,14.51,0h0c4.0034-2.311,4.0034-6.0649,0-8.3772h0a16.0495,16.0495,0,0,0-14.51,0h0C539.957,353.5561,539.957,357.31,543.96,359.621Z"/>
    </clipPath>
    <clipPath id="clip-path-46">
      <path class="cls-1" d="M567.0746,373.0243h0a16.0421,16.0421,0,0,0,14.51,0h0c4.0034-2.3111,4.0034-6.065,0-8.3772h0a16.0489,16.0489,0,0,0-14.51,0h0C563.07,366.9593,563.07,370.7132,567.0746,373.0243Z"/>
    </clipPath>
    <clipPath id="clip-path-47">
      <path class="cls-1" d="M590.3908,386.4276h0a16.0418,16.0418,0,0,0,14.5094,0h0c4.0035-2.3111,4.0035-6.065,0-8.3772h0a16.0487,16.0487,0,0,0-14.5094,0h0C586.3873,380.3626,586.3873,384.1165,590.3908,386.4276Z"/>
    </clipPath>
    <clipPath id="clip-path-48">
      <path class="cls-1" d="M474.214,346.16h0a16.0487,16.0487,0,0,0,14.5094,0h0c4.0035-2.3122,4.0035-6.0649,0-8.3772h0a16.0418,16.0418,0,0,0-14.5094,0h0C470.2093,340.0948,470.2093,343.8475,474.214,346.16Z"/>
    </clipPath>
    <clipPath id="clip-path-49">
      <path class="cls-1" d="M497.53,359.5049h0a16.0489,16.0489,0,0,0,14.5095,0h0c4.0034-2.3122,4.0034-6.0661,0-8.3771h0a16.0414,16.0414,0,0,0-14.5095,0h0C493.5267,353.4388,493.5267,357.1927,497.53,359.5049Z"/>
    </clipPath>
    <clipPath id="clip-path-50">
      <path class="cls-1" d="M520.7453,372.9082h0a16.0487,16.0487,0,0,0,14.5094,0h0c4.0035-2.3122,4.0035-6.0661,0-8.3772h0a16.0418,16.0418,0,0,0-14.5094,0h0C516.7418,366.8421,516.7418,370.596,520.7453,372.9082Z"/>
    </clipPath>
    <clipPath id="clip-path-51">
      <path class="cls-1" d="M543.86,386.3115h0a16.0487,16.0487,0,0,0,14.5094,0h0c4.0035-2.3122,4.0035-6.0661,0-8.3772h0a16.0418,16.0418,0,0,0-14.5094,0h0C539.8548,380.2454,539.8548,383.9993,543.86,386.3115Z"/>
    </clipPath>
    <clipPath id="clip-path-52">
      <path class="cls-1" d="M567.1756,399.7148h0a16.0489,16.0489,0,0,0,14.51,0h0c4.0034-2.3122,4.0034-6.0661,0-8.3772h0a16.0421,16.0421,0,0,0-14.51,0h0C563.1722,393.6487,563.1722,397.4026,567.1756,399.7148Z"/>
    </clipPath>
  </defs>
  <title>Artboard 11</title>
  <path id="Path" class="concrete-right" d="M617.9588,739.102l2.9019,1.6749L783.3668,646.954v-3.3511l-2.9019-1.675L620.8607,734.0758,617.9588,732.4Z"/>
  <path id="Path-2" data-name="Path" class="concrete-left" d="M583.136,712.2954v6.701l37.7247,21.78v-6.7011Z"/>
  <path id="Path-3" data-name="Path" class="concrete-right" d="M559.9209,732.4l2.9018,1.6761,23.2152-13.4032V713.97l-23.2152,13.4032-2.9018-1.6749Z"/>
  <path id="Path-4" data-name="Path" class="concrete-left" d="M478.6678,678.7866v6.7023l84.1549,48.5869v-6.7022Z"/>
  <path id="Path-5" data-name="Path" class="concrete-right" d="M350.9844,759.2063l2.9019,1.6761L481.57,687.1638v-6.701L353.8863,754.18l-2.9019-1.675Z"/>
  <path id="Path-6" data-name="Path" class="concrete-left" d="M124.6365,621.8224l-2.9019,1.6761V626.85L353.8863,760.8824V754.18Z"/>
  <path id="Path-7" data-name="Path" class="concrete-right" d="M734.0346,621.8224,934.2654,506.22v-3.351l-2.9019-1.6762L734.0346,615.1214Z"/>
  <path id="Path-8" data-name="Path" class="concrete-top" d="M353.8863,757.5313,481.57,683.8127l81.253,46.912,23.2152-13.4033,34.8228,20.1044,162.5061-93.8229-46.43-26.8066L934.2654,502.8691l-162.5062-93.823-58.0379,33.5076-139.291-80.42L121.7346,623.4985Z"/>
  <path id="Path-9" data-name="Path" class="cls-2" d="M229.1047,481.0886l-2.9019,1.6749V616.7963l104.4683,60.3153V539.7278Z"/>
  <path id="Path-10" data-name="Path" class="cls-3" d="M226.2028,482.7635v3.3512l58.038,33.5087v-3.3511Z"/>
  <path id="Path-11" data-name="Path" class="cls-4" d="M345.1806,712.2954V574.9115l8.7057,5.0261,147.9966-85.4458V467.6853l150.8986-87.1219,2.9019,1.6762V543.0789L353.8863,717.3214Z"/>
  <path id="Path-12" data-name="Path" class="cls-5" d="M353.8863,385.59l150.8985,87.1219V469.36L655.6834,382.24,504.7848,295.1177,353.8863,382.24Z"/>
  <path id="Path-13" data-name="Path" class="cls-5" d="M481.57,549.78v6.7022l81.253,46.9109L876.2275,422.4494v-6.7022l-81.2531-46.9109Z"/>
  <path id="Path-14" data-name="Path" class="cls-4" d="M559.9209,595.0158v93.823l2.9018,1.6761L876.2275,509.57V415.7472L562.8227,596.692Z"/>
  <path id="Path-15" data-name="Path" class="cls-5" d="M504.7848,496.1668,353.8863,409.0461,226.2028,482.7635l58.038,33.5088-23.2152,13.4033,92.8607,53.6131Z"/>
  <path id="Path-16" data-name="Path" class="cls-6" d="M226.2028,563.1832,191.38,583.2887V586.64l69.6455,40.21,37.7246-21.78Z"/>
  <path id="Path-17" data-name="Path" class="cls-2" d="M191.38,583.2887l69.6455,40.21V529.6756l92.8607,53.6131V717.3214L191.38,623.4985Z"/>
  <path id="Path-18" data-name="Path" class="cls-2" d="M481.57,549.78l81.253,46.912v93.8229l-81.253-46.912Z"/>
  <path id="Path-19" data-name="Path" class="cls-2" d="M586.0379,623.4985l2.9019-1.6761,23.2152,13.4033v53.6131l-2.9019,1.6761-23.2152-13.4033Z"/>
  <path id="Path-20" data-name="Path" class="cls-7" d="M191.38,623.4985v-6.7022l162.5062,93.8229v6.7022Z"/>
  <path id="Path-21" data-name="Path" class="concrete-top" d="M488.8244,641.09V569.0474l66.7436,38.5348v72.0425Z"/>
  <path id="Path-22" data-name="Path" class="cls-8" d="M481.57,643.6029v-6.7011L353.8863,710.6192v6.7022Z"/>
  <path id="Path-23" data-name="Path" class="cls-7" d="M562.8227,683.8127v6.7022l-81.253-46.912v-6.7011Z"/>
  <path id="Path-24" data-name="Path" class="cls-8" d="M586.0379,670.4094v6.7022l-23.2152,13.4033v-6.7022Z"/>
  <path id="Path-25" data-name="Path" class="cls-9" d="M609.2531,690.5149,713.7213,630.2V576.5865L609.2531,636.9018Z"/>
  <g id="Group">
    <path id="Path-26" data-name="Path" class="cls-10" d="M496.0791,583.2887l-5.8037-3.3511V571.56l5.8037,3.3511Z"/>
    <path id="Path-27" data-name="Path" class="cls-10" d="M496.0791,593.3408l-5.8037-3.351v-8.3773l5.8037,3.3512Z"/>
    <path id="Path-28" data-name="Path" class="cls-10" d="M496.0791,603.3931l-5.8037-3.35v-8.3772l5.8037,3.35Z"/>
    <path id="Path-29" data-name="Path" class="cls-10" d="M496.0791,613.4464l-5.8037-3.3511v-8.3772l5.8037,3.3511Z"/>
    <path id="Path-30" data-name="Path" class="cls-10" d="M496.0791,623.4985l-5.8037-3.3511V611.77l5.8037,3.3512Z"/>
    <path id="Path-31" data-name="Path" class="cls-10" d="M496.0791,633.5507,490.2754,630.2v-8.3772l5.8037,3.3511Z"/>
    <path id="Path-32" data-name="Path" class="cls-10" d="M496.0791,643.6029l-5.8037-3.35v-8.3772l5.8037,3.35Z"/>
    <path id="Path-33" data-name="Path" class="cls-10" d="M510.5886,591.6659l-5.8038-3.3511v-8.3772l5.8038,3.3511Z"/>
    <path id="Path-34" data-name="Path" class="cls-10" d="M510.5886,601.7181l-5.8038-3.3511V589.99l5.8038,3.351Z"/>
    <path id="Path-35" data-name="Path" class="cls-10" d="M510.5886,611.77l-5.8038-3.351v-8.3761l5.8038,3.35Z"/>
    <path id="Path-36" data-name="Path" class="cls-10" d="M510.5886,621.8224l-5.8038-3.35v-8.3771l5.8038,3.3511Z"/>
    <path id="Path-37" data-name="Path" class="cls-10" d="M510.5886,631.8757l-5.8038-3.3511v-8.3772l5.8038,3.3511Z"/>
    <path id="Path-38" data-name="Path" class="cls-10" d="M510.5886,641.9279l-5.8038-3.3511V630.2l5.8038,3.3511Z"/>
    <path id="Path-39" data-name="Path" class="cls-10" d="M510.5886,651.98l-5.8038-3.351v-8.3761l5.8038,3.35Z"/>
    <path id="Path-40" data-name="Path" class="cls-10" d="M525.0981,600.0431l-5.8038-3.3511v-8.3772l5.8038,3.3511Z"/>
    <path id="Path-41" data-name="Path" class="cls-10" d="M525.0981,610.0953l-5.8038-3.3512V598.367l5.8038,3.3511Z"/>
    <path id="Path-42" data-name="Path" class="cls-10" d="M525.0981,620.1474l-5.8038-3.3511v-8.3771l5.8038,3.351Z"/>
    <path id="Path-43" data-name="Path" class="cls-10" d="M525.0981,630.2l-5.8038-3.35v-8.3773l5.8038,3.35Z"/>
    <path id="Path-44" data-name="Path" class="cls-10" d="M525.0981,640.2529l-5.8038-3.3511v-8.3772l5.8038,3.3511Z"/>
    <path id="Path-45" data-name="Path" class="cls-10" d="M525.0981,650.3051l-5.8038-3.3511v-8.3772l5.8038,3.3511Z"/>
    <path id="Path-46" data-name="Path" class="cls-10" d="M525.0981,660.3573l-5.8038-3.3512V648.629l5.8038,3.351Z"/>
    <path id="Path-47" data-name="Path" class="cls-10" d="M539.6076,608.4192l-5.8038-3.35V596.692l5.8038,3.3511Z"/>
    <path id="Path-48" data-name="Path" class="cls-10" d="M539.6076,618.4724l-5.8038-3.351v-8.3773l5.8038,3.3512Z"/>
    <path id="Path-49" data-name="Path" class="cls-10" d="M539.6076,628.5246l-5.8038-3.3511v-8.3772l5.8038,3.3511Z"/>
    <path id="Path-50" data-name="Path" class="cls-10" d="M539.6076,638.5768l-5.8038-3.3511V626.85l5.8038,3.35Z"/>
    <path id="Path-51" data-name="Path" class="cls-10" d="M539.6076,648.629l-5.8038-3.35v-8.3772l5.8038,3.3511Z"/>
    <path id="Path-52" data-name="Path" class="cls-10" d="M539.6076,658.6822l-5.8038-3.351V646.954l5.8038,3.3511Z"/>
    <path id="Path-53" data-name="Path" class="cls-10" d="M539.6076,668.7345l-5.8038-3.3512v-8.3772l5.8038,3.3512Z"/>
    <path id="Path-54" data-name="Path" class="cls-10" d="M554.1171,616.7963l-5.8038-3.35v-8.3772l5.8038,3.35Z"/>
    <path id="Path-55" data-name="Path" class="cls-10" d="M554.1171,626.85l-5.8038-3.3512v-8.3771l5.8038,3.351Z"/>
    <path id="Path-56" data-name="Path" class="cls-10" d="M554.1171,636.9018l-5.8038-3.3511v-8.3772l5.8038,3.3511Z"/>
    <path id="Path-57" data-name="Path" class="cls-10" d="M554.1171,646.954l-5.8038-3.3511v-8.3772l5.8038,3.3511Z"/>
    <path id="Path-58" data-name="Path" class="cls-10" d="M554.1171,657.0061l-5.8038-3.35V645.279l5.8038,3.35Z"/>
    <path id="Path-59" data-name="Path" class="cls-10" d="M554.1171,667.06l-5.8038-3.3512v-8.3771l5.8038,3.351Z"/>
    <path id="Path-60" data-name="Path" class="cls-10" d="M554.1171,677.1116l-5.8038-3.351v-8.3773l5.8038,3.3512Z"/>
    <path id="Path-61" data-name="Path" class="cls-10" d="M503.3339,587.4767l-5.8038-3.3511V575.75l5.8038,3.35Z"/>
    <path id="Path-62" data-name="Path" class="cls-10" d="M503.3339,597.5289l-5.8038-3.35v-8.3773l5.8038,3.3512Z"/>
    <path id="Path-63" data-name="Path" class="cls-10" d="M503.3339,607.5822l-5.8038-3.3511v-8.3772l5.8038,3.3511Z"/>
    <path id="Path-64" data-name="Path" class="cls-10" d="M503.3339,617.6344l-5.8038-3.3512v-8.3771l5.8038,3.3511Z"/>
    <path id="Path-65" data-name="Path" class="cls-10" d="M503.3339,627.6866l-5.8038-3.35v-8.3772l5.8038,3.35Z"/>
    <path id="Path-66" data-name="Path" class="cls-10" d="M503.3339,637.7387l-5.8038-3.35v-8.3773l5.8038,3.3512Z"/>
    <path id="Path-67" data-name="Path" class="cls-10" d="M503.3339,647.7921l-5.8038-3.3512v-8.3771l5.8038,3.351Z"/>
    <path id="Path-68" data-name="Path" class="cls-10" d="M517.8434,595.8539l-5.8038-3.3511v-8.3772l5.8038,3.3511Z"/>
    <path id="Path-69" data-name="Path" class="cls-10" d="M517.8434,605.9061l-5.8038-3.35V594.179l5.8038,3.35Z"/>
    <path id="Path-70" data-name="Path" class="cls-10" d="M517.8434,615.9594l-5.8038-3.3511v-8.3772l5.8038,3.3511Z"/>
    <path id="Path-71" data-name="Path" class="cls-10" d="M517.8434,626.0115l-5.8038-3.351v-8.3773l5.8038,3.3512Z"/>
    <path id="Path-72" data-name="Path" class="cls-10" d="M517.8434,636.0638l-5.8038-3.3512v-8.3772l5.8038,3.3512Z"/>
    <path id="Path-73" data-name="Path" class="cls-10" d="M517.8434,646.1159l-5.8038-3.35v-8.3772l5.8038,3.3511Z"/>
    <path id="Path-74" data-name="Path" class="cls-10" d="M517.8434,656.1692l-5.8038-3.351v-8.3773l5.8038,3.3512Z"/>
    <path id="Path-75" data-name="Path" class="cls-10" d="M532.3528,604.2311,526.549,600.88v-8.3772l5.8038,3.3511Z"/>
    <path id="Path-76" data-name="Path" class="cls-10" d="M532.3528,614.2832l-5.8038-3.35v-8.3772l5.8038,3.35Z"/>
    <path id="Path-77" data-name="Path" class="cls-10" d="M532.3528,624.3354l-5.8038-3.35v-8.3772l5.8038,3.3511Z"/>
    <path id="Path-78" data-name="Path" class="cls-10" d="M532.3528,634.3888l-5.8038-3.3512v-8.3771l5.8038,3.351Z"/>
    <path id="Path-79" data-name="Path" class="cls-10" d="M532.3528,644.4409l-5.8038-3.351v-8.3773l5.8038,3.3512Z"/>
    <path id="Path-80" data-name="Path" class="cls-10" d="M532.3528,654.4931l-5.8038-3.35V642.766l5.8038,3.35Z"/>
    <path id="Path-81" data-name="Path" class="cls-10" d="M532.3528,664.5464l-5.8038-3.3511v-8.3771l5.8038,3.351Z"/>
    <path id="Path-82" data-name="Path" class="cls-10" d="M546.8623,612.6083l-5.8038-3.3511V600.88l5.8038,3.3511Z"/>
    <path id="Path-83" data-name="Path" class="cls-10" d="M546.8623,622.6605l-5.8038-3.3512v-8.3771l5.8038,3.351Z"/>
    <path id="Path-84" data-name="Path" class="cls-10" d="M546.8623,632.7126l-5.8038-3.35v-8.3772l5.8038,3.3511Z"/>
    <path id="Path-85" data-name="Path" class="cls-10" d="M546.8623,642.766l-5.8038-3.3512v-8.3772l5.8038,3.3512Z"/>
    <path id="Path-86" data-name="Path" class="cls-10" d="M546.8623,652.8182l-5.8038-3.3512V641.09l5.8038,3.351Z"/>
    <path id="Path-87" data-name="Path" class="cls-10" d="M546.8623,662.87l-5.8038-3.3511v-8.3761l5.8038,3.35Z"/>
    <path id="Path-88" data-name="Path" class="cls-10" d="M546.8623,672.9224l-5.8038-3.35v-8.3772l5.8038,3.3511Z"/>
  </g>
  <path id="Path-89" data-name="Path" class="cls-11" d="M332.122,671.2475v3.3511L320.5145,681.3l-24.6662-14.24v-3.3512l11.6076-6.7022Z"/>
  <path id="Path-90" data-name="Path" class="cls-4" d="M332.122,704.7563l-11.6075,6.701V677.95l11.6075-6.7022Z"/>
  <path id="Path-91" data-name="Path" class="cls-2" d="M295.8483,697.216l24.6662,14.2413V677.95l-24.6662-14.2414Z"/>
  <path id="Path-92" data-name="Path" class="cls-7" d="M295.8483,690.5149l24.6662,14.2414v6.701L295.8483,697.216Z"/>
  <path id="Path-93" data-name="Path" d="M300.2012,699.729l17.4114,10.0533V681.3l-17.4114-10.0522Z"/>
  <path id="Path-94" data-name="Path" class="cls-10" d="M301.6521,680.4628l7.2548,4.1879v20.1056l-7.2548-4.1892Z"/>
  <path id="Path-95" data-name="Path" class="cls-10" d="M310.3578,685.4889l7.2548,4.1879v20.1055l-7.2548-4.1892Z"/>
  <path id="Path-96" data-name="Path" class="cls-10" d="M301.6521,678.7866v-5.026l15.96,9.2152v5.0261Z"/>
  <path id="Path-97" data-name="Path" class="cls-3" d="M295.8483,663.7083v1.675l24.6662,14.2414,1.4509-.8381v-1.675l-1.4509.8381Z"/>
  <path id="Path-98" data-name="Path" class="cls-9" d="M332.122,671.2475,320.5145,677.95v1.675l11.6075-6.7023Z"/>
  <path id="Path-99" data-name="Path" class="cls-12" d="M298.75,663.7083l18.8624-2.513,2.9019,15.0783Z"/>
  <path id="Path-100" data-name="Path" class="concrete-left" d="M330.6711,670.4094l-10.1566,5.8642-2.9019-15.0783Z"/>
  <path id="Path-101" data-name="Path" class="cls-13" d="M298.75,663.7083l10.1567-5.8641,8.7057,3.3511Z"/>
  <path id="Path-102" data-name="Path" class="cls-2" d="M661.4872,660.3573l-8.7057-5.0261v-40.21l8.7057-5.0261Z"/>
  <path id="Path-103" data-name="Path" class="cls-8" d="M332.122,698.054l-11.6075,6.7023v6.701l11.6075-6.701Z"/>
  <path id="Path-104" data-name="Path" class="cls-4" d="M652.7815,655.3312l11.6076,6.701-49.3322,28.4827V677.1116Z"/>
  <path id="Path-105" data-name="Path" class="cls-3" d="M261.0256,529.6756l92.8607,53.6131,2.9018-1.6762v3.3512l-2.9018,1.6761-92.8607-53.6131Z"/>
  <path id="Path-106" data-name="Path" class="cls-3" d="M481.57,549.78l81.253,46.912,2.9019-1.6762v3.3512l-2.9019,1.6761L481.57,553.131Z"/>
  <path id="Path-107" data-name="Path" class="cls-3" d="M586.0379,623.4985l17.4114,10.0522v3.3511L586.0379,626.85Z"/>
  <path id="Path-108" data-name="Path" class="cls-4" d="M879.1294,464.3342V497.843L696.31,603.3931V569.8854Z"/>
  <path id="Path-109" data-name="Path" class="cls-9" d="M853.0123,504.544l23.2152-13.4032V464.3342l-23.2152,13.4033Z"/>
  <path id="Path-110" data-name="Path" class="cls-9" d="M826.8953,519.6234,850.11,506.22V479.4136l-23.2151,13.4033Z"/>
  <path id="Path-111" data-name="Path" class="cls-9" d="M800.7782,534.7017l23.2152-13.4033V494.4918l-23.2152,13.4033Z"/>
  <path id="Path-112" data-name="Path" class="cls-9" d="M774.6611,549.78l23.2152-13.4033V509.57l-23.2152,13.4032Z"/>
  <path id="Path-113" data-name="Path" class="cls-9" d="M748.5441,564.8593l23.2151-13.4032V524.65l-23.2151,13.4033Z"/>
  <path id="Path-114" data-name="Path" class="cls-9" d="M722.427,579.9376l23.2152-13.4033V539.7278L722.427,553.131Z"/>
  <path id="Path-115" data-name="Path" class="cls-9" d="M696.31,595.0158l23.2151-13.4033V554.806L696.31,568.2093Z"/>
  <path id="Path-116" data-name="Path" class="cls-14" d="M864.62,497.843l11.6076-6.7022V464.3342L864.62,471.0364Z"/>
  <path id="Path-117" data-name="Path" class="cls-14" d="M838.5028,512.9212,850.11,506.22V479.4136l-11.6076,6.7011Z"/>
  <path id="Path-118" data-name="Path" class="cls-14" d="M812.3858,527.9994l11.6076-6.701V494.4918l-11.6076,6.7011Z"/>
  <path id="Path-119" data-name="Path" class="cls-14" d="M786.2687,543.0789l11.6076-6.7022V509.57l-11.6076,6.7022Z"/>
  <path id="Path-120" data-name="Path" class="cls-14" d="M760.1517,558.1571l11.6075-6.701V524.65l-11.6075,6.7011Z"/>
  <path id="Path-121" data-name="Path" class="cls-14" d="M734.0346,573.2365l11.6076-6.7022V539.7278L734.0346,546.43Z"/>
  <path id="Path-122" data-name="Path" class="cls-14" d="M707.9175,588.3148l11.6076-6.7023V554.806l-11.6076,6.7023Z"/>
  <path id="Path-123" data-name="Path" class="cls-15" d="M504.7848,496.1668v3.3511L353.8863,586.64v-3.3511Z"/>
  <path id="Path-124" data-name="Path" class="cls-15" d="M876.2275,415.7472v3.3511L562.8227,600.0431V596.692Z"/>
  <path id="Path-125" data-name="Path" class="cls-15" d="M882.0313,459.3081v3.3511L696.31,569.8854v-3.3511Z"/>
  <path id="Path-126" data-name="Path" class="cls-16" d="M356.7881,410.7211,232.0066,482.7635l58.0379,33.5088-23.2151,13.4033,87.0569,50.262,147.9966-85.4458Z"/>
  <path id="Path-127" data-name="Path" class="cls-16" d="M504.7848,298.4688,359.69,382.24,504.7848,466.01,649.88,382.24Z"/>
  <path id="Path-128" data-name="Path" class="cls-16" d="M794.9744,372.1862,487.3735,549.78l75.4492,43.5608,307.601-177.5936Z"/>
  <path id="Path-129" data-name="Path" class="cls-2" d="M353.8863,382.24v26.8065l2.9018,1.675v3.3511L498.981,496.1668l2.9019-1.675,2.9019,1.675V469.36Z"/>
  <path id="Path-130" data-name="Path" class="cls-3" d="M504.7848,298.4688V301.82l142.1929,82.0947,2.9019-1.675Z"/>
  <path id="Path-131" data-name="Path" class="cls-3" d="M794.9744,372.1862v3.3511l72.5474,41.886,2.9019-1.6761Z"/>
  <path id="Path-132" data-name="Path" class="cls-15" d="M359.69,382.24l145.0948-83.7708V301.82L362.5919,383.9146Z"/>
  <path id="Path-133" data-name="Path" class="cls-15" d="M487.3735,549.78,794.9744,372.1862v3.3511L490.2754,551.4561Z"/>
  <path id="Path-134" data-name="Path" class="cls-3" d="M353.8863,382.24,504.7848,469.36l2.9019-1.675v3.3511l-2.9019,1.675L353.8863,385.5907Z"/>
  <path id="Path-135" data-name="Path" class="cls-15" d="M232.0066,482.7635l124.7815-72.0424v3.3511L234.9085,484.44Z"/>
  <path id="Path-136" data-name="Path" class="concrete-top" d="M290.0445,516.2723v3.3511l-20.3132,11.7272-2.9019-1.675Z"/>
  <path id="Path-137" data-name="Path" class="cls-15" d="M655.6834,382.24v3.35L504.7848,472.7114V469.36Z"/>
  <path id="Path-138" data-name="Path" class="cls-15" d="M879.1294,497.843v-1.6762L705.0156,596.692v1.675Z"/>
  <path id="Path-139" data-name="Path" class="cls-15" d="M879.1294,489.4658V487.79L705.0156,588.3148v1.675Z"/>
  <path id="Path-140" data-name="Path" class="cls-5" d="M876.2275,455.957l5.8038,3.3511L696.31,566.5343l17.4113,10.0522L609.2531,636.9018l-23.2152-13.4033Z"/>
  <path id="Path-141" data-name="Path" class="cls-17" d="M603.4493,630.2l104.4682-60.3142,5.8038,3.3511v3.35L609.2531,636.9018l-5.8038-3.3511Z"/>
  <path id="Path-142" data-name="Path" class="cls-8" d="M615.0569,636.9018l46.43-26.8065v50.262L713.7213,630.2V573.2365L609.2531,633.5507v56.9642l5.8038-3.3511Z"/>
  <path id="Path-143" data-name="Path" class="cls-7" d="M609.2531,690.5149V633.5507L603.4493,630.2v50.2632l-17.4114-10.0534v6.7022Z"/>
  <g id="Group-2" data-name="Group">
    <path id="Path-144" data-name="Path" class="cls-9" d="M850.11,462.6592l23.2152-13.4033V437.5276L850.11,450.931Z"/>
    <path id="Path-145" data-name="Path" class="cls-14" d="M860.2671,456.7951l11.6075-6.7023V438.3657l-11.6075,6.7011Z"/>
    <path id="Path-146" data-name="Path" class="cls-5" d="M850.11,464.3342v-5.0261L870.4237,447.58l2.9019,1.6761v1.6751Z"/>
    <path id="Path-147" data-name="Path" class="cls-15" d="M850.11,462.6592v1.675l23.2152-13.4032v-1.6751Z"/>
    <path id="Path-148" data-name="Path" class="cls-18" d="M873.3256,449.2559l-2.9019-1.6761v-8.3772l2.9019-1.675Z"/>
  </g>
  <g id="Group-3" data-name="Group">
    <path id="Path-149" data-name="Path" class="cls-9" d="M365.4938,697.216l23.2152-13.4033v-25.13l-23.2152,13.4034Z"/>
    <path id="Path-150" data-name="Path" class="cls-14" d="M375.6505,691.353l11.6076-6.7023V659.5192l-11.6076,6.7022Z"/>
    <path id="Path-151" data-name="Path" class="cls-5" d="M365.4938,698.8921V693.866l20.3133-11.7283,2.9019,1.675v1.6762Z"/>
    <path id="Path-152" data-name="Path" class="cls-15" d="M365.4938,697.216v1.6761l23.2152-13.4032v-1.6762Z"/>
    <path id="Path-153" data-name="Path" class="cls-18" d="M388.709,683.8127l-2.9019-1.675v-21.78l2.9019-1.6751Z"/>
  </g>
  <g id="Group-4" data-name="Group">
    <path id="Path-154" data-name="Path" class="cls-9" d="M394.5128,680.4628,417.728,667.06V641.9279l-23.2152,13.4033Z"/>
    <path id="Path-155" data-name="Path" class="cls-14" d="M404.6694,674.5986l11.6076-6.7022v-25.13l-11.6076,6.701Z"/>
    <path id="Path-156" data-name="Path" class="cls-5" d="M394.5128,682.1377v-5.0261l20.3133-11.7283,2.9019,1.6762v1.675Z"/>
    <path id="Path-157" data-name="Path" class="cls-15" d="M394.5128,680.4628v1.6749l23.2152-13.4032V667.06Z"/>
    <path id="Path-158" data-name="Path" class="cls-18" d="M417.728,667.06l-2.9019-1.6762v-21.78l2.9019-1.675Z"/>
  </g>
  <g id="Group-5" data-name="Group">
    <path id="Path-159" data-name="Path" class="cls-19" d="M220.399,625.1735,197.1839,611.77V600.0431l23.2151,13.4033Z"/>
    <path id="Path-160" data-name="Path" class="cls-10" d="M210.2424,619.3093l-11.6076-6.701V600.88l11.6076,6.7022Z"/>
    <path id="Path-161" data-name="Path" class="cls-5" d="M220.399,626.85v-5.0273l-20.3132-11.7271-2.9019,1.6749v1.6762Z"/>
    <path id="Path-162" data-name="Path" class="cls-3" d="M220.399,625.1735V626.85l-23.2151-13.4033V611.77Z"/>
    <path id="Path-163" data-name="Path" class="cls-4" d="M197.1839,611.77l2.9019-1.6749v-8.3772l-2.9019-1.675Z"/>
  </g>
  <g id="Group-6" data-name="Group">
    <path id="Path-164" data-name="Path" class="cls-19" d="M239.2614,636.0638l-13.0586-7.5392V616.7963l13.0586,7.54Z"/>
    <path id="Path-165" data-name="Path" class="cls-10" d="M239.2614,636.0638l-11.6076-6.7011V617.6344l11.6076,6.7022Z"/>
    <path id="Path-166" data-name="Path" class="cls-5" d="M239.2614,637.74v-5.0273L229.1047,626.85l-2.9019,1.6749V630.2Z"/>
    <path id="Path-167" data-name="Path" class="cls-3" d="M239.2614,636.0638V637.74l-13.0586-7.54v-1.675Z"/>
    <path id="Path-168" data-name="Path" class="cls-4" d="M226.2028,628.5246l2.9019-1.6749v-8.3773l-2.9019-1.6761Z"/>
  </g>
  <g id="Group-7" data-name="Group">
    <path id="Path-169" data-name="Path" class="cls-19" d="M278.437,672.0856l-13.0586-7.5392V652.8182l13.0586,7.5391Z"/>
    <path id="Path-170" data-name="Path" class="cls-10" d="M278.437,672.0856l-11.6076-6.7023V638.5768l11.6076,6.7022Z"/>
    <path id="Path-171" data-name="Path" class="cls-17" d="M275.5351,675.4355l2.9019-1.6749v-5.0261L268.28,662.87l-5.8038,3.3511v1.675Z"/>
    <path id="Path-172" data-name="Path" class="cls-7" d="M275.5351,673.7606v1.6749l-13.0586-7.5391v-1.675Z"/>
    <path id="Path-173" data-name="Path" class="cls-4" d="M265.3784,664.5464,268.28,662.87V639.4148l-2.9019-1.6749Z"/>
  </g>
  <g id="Group-8" data-name="Group">
    <path id="Path-174" data-name="Path" class="cls-9" d="M423.5318,663.7083l23.2151-13.4032V625.1735l-23.2151,13.4033Z"/>
    <path id="Path-175" data-name="Path" class="cls-14" d="M433.6884,657.8442l11.6076-6.7022V626.0115l-11.6076,6.7011Z"/>
    <path id="Path-176" data-name="Path" class="cls-5" d="M423.5318,665.3833v-5.026L443.845,648.629l2.9019,1.6761V651.98Z"/>
    <path id="Path-177" data-name="Path" class="cls-15" d="M423.5318,663.7083v1.675L446.7469,651.98v-1.6749Z"/>
    <path id="Path-178" data-name="Path" class="cls-18" d="M446.7469,650.3051l-2.9019-1.6761V626.8485l2.9019-1.675Z"/>
  </g>
  <g id="Group-9" data-name="Group">
    <path id="Path-179" data-name="Path" class="cls-9" d="M452.5507,646.954l23.2152-13.4033V608.4192l-23.2152,13.4032Z"/>
    <path id="Path-180" data-name="Path" class="cls-14" d="M462.7073,641.09l11.6076-6.7011V609.2572l-11.6076,6.7022Z"/>
    <path id="Path-181" data-name="Path" class="cls-5" d="M452.5507,648.629v-5.0261l20.3133-11.7272,2.9019,1.675v1.675Z"/>
    <path id="Path-182" data-name="Path" class="cls-15" d="M452.5507,646.954v1.675l23.2152-13.4033v-1.675Z"/>
    <path id="Path-183" data-name="Path" class="cls-18" d="M475.7659,633.5507l-2.9019-1.675v-21.78l2.9019-1.6761Z"/>
  </g>
  <g id="Group-10" data-name="Group">
    <path id="Path-184" data-name="Path" class="cls-9" d="M797.8763,492.8157l23.2152-13.4032V467.6853l-23.2152,13.4033Z"/>
    <path id="Path-185" data-name="Path" class="cls-14" d="M808.0329,486.9527l11.6076-6.7022V468.5233l-11.6076,6.7011Z"/>
    <path id="Path-186" data-name="Path" class="cls-5" d="M797.8763,494.4918v-5.026L818.19,477.7375l2.9019,1.6761v1.675Z"/>
    <path id="Path-187" data-name="Path" class="cls-15" d="M797.8763,492.8169v1.6749l23.2152-13.4032v-1.675Z"/>
    <path id="Path-188" data-name="Path" class="cls-18" d="M821.0915,479.4136l-2.9019-1.6761V469.36l2.9019-1.675Z"/>
  </g>
  <g id="Group-11" data-name="Group">
    <path id="Path-189" data-name="Path" class="cls-9" d="M745.6422,522.9733,768.8573,509.57V497.843l-23.2151,13.4032Z"/>
    <path id="Path-190" data-name="Path" class="cls-14" d="M755.7988,517.1093l11.6076-6.7011V498.68l-11.6076,6.7022Z"/>
    <path id="Path-191" data-name="Path" class="cls-5" d="M745.6422,524.65v-5.0261l20.3132-11.7283,2.9019,1.675v1.6761Z"/>
    <path id="Path-192" data-name="Path" class="cls-15" d="M745.6422,522.9733V524.65l23.2151-13.4033V509.57Z"/>
    <path id="Path-193" data-name="Path" class="cls-18" d="M768.8573,509.57l-2.9019-1.675v-8.3772l2.9019-1.6749Z"/>
  </g>
  <g id="Group-12" data-name="Group">
    <path id="Path-194" data-name="Path" class="cls-9" d="M693.4081,553.131l23.2151-13.4032V527.9994l-23.2151,13.4033Z"/>
    <path id="Path-195" data-name="Path" class="cls-14" d="M703.5647,547.2669l11.6076-6.7011V528.8375L703.5647,535.54Z"/>
    <path id="Path-196" data-name="Path" class="cls-5" d="M693.4081,554.806V549.78l20.3132-11.7272,2.9019,1.675v1.6749Z"/>
    <path id="Path-197" data-name="Path" class="cls-15" d="M693.4081,553.131v1.675l23.2151-13.4033v-1.6749Z"/>
    <path id="Path-198" data-name="Path" class="cls-18" d="M716.6232,539.7278l-2.9019-1.675v-8.3772l2.9019-1.6762Z"/>
  </g>
  <g id="Group-13" data-name="Group">
    <path id="Path-199" data-name="Path" class="cls-9" d="M641.1739,583.2887l23.2152-13.4033V558.1571L641.1739,571.56Z"/>
    <path id="Path-200" data-name="Path" class="cls-14" d="M651.3306,577.4246l11.6075-6.7022V558.9952l-11.6075,6.7011Z"/>
    <path id="Path-201" data-name="Path" class="cls-5" d="M641.1739,584.9637v-5.0261l20.3133-11.7283,2.9019,1.6761v1.675Z"/>
    <path id="Path-202" data-name="Path" class="cls-15" d="M641.1739,583.2887v1.675L664.3891,571.56v-1.675Z"/>
    <path id="Path-203" data-name="Path" class="cls-18" d="M664.3891,569.8854l-2.9019-1.6761v-8.3761l2.9019-1.6761Z"/>
  </g>
  <g id="Group-14" data-name="Group">
    <path id="Path-204" data-name="Path" class="cls-9" d="M588.94,613.4464l23.2152-13.4033V588.3148L588.94,601.7181Z"/>
    <path id="Path-205" data-name="Path" class="cls-14" d="M599.0964,607.5822,610.704,600.88V589.1529l-11.6076,6.701Z"/>
    <path id="Path-206" data-name="Path" class="cls-5" d="M588.94,615.1214v-5.0261l20.3133-11.7283,2.9019,1.6761v1.675Z"/>
    <path id="Path-207" data-name="Path" class="cls-15" d="M588.94,613.4464v1.675l23.2152-13.4033v-1.675Z"/>
    <path id="Path-208" data-name="Path" class="cls-18" d="M612.155,600.0431l-2.9019-1.6761V589.99l2.9019-1.675Z"/>
  </g>
  <g id="Group-15" data-name="Group">
    <path id="Path-209" data-name="Path" class="cls-9" d="M823.9934,477.7375l23.2151-13.4033V452.6059l-23.2151,13.4033Z"/>
    <path id="Path-210" data-name="Path" class="cls-14" d="M834.15,471.8733l11.6076-6.701V453.444L834.15,460.1462Z"/>
    <path id="Path-211" data-name="Path" class="cls-5" d="M823.9934,479.4125v-5.0261l20.3132-11.7272,2.9019,1.675v1.675Z"/>
    <path id="Path-212" data-name="Path" class="cls-15" d="M823.9934,477.7375v1.6761L847.2085,466.01v-1.6761Z"/>
    <path id="Path-213" data-name="Path" class="cls-18" d="M847.2085,464.3342l-2.9019-1.675V454.282l2.9019-1.6749Z"/>
  </g>
  <g id="Group-16" data-name="Group">
    <path id="Path-214" data-name="Path" class="cls-9" d="M771.7592,507.8951l23.2152-13.4033V482.7635l-23.2152,13.4033Z"/>
    <path id="Path-215" data-name="Path" class="cls-14" d="M781.9159,502.031l11.6076-6.701V483.6016l-11.6076,6.701Z"/>
    <path id="Path-216" data-name="Path" class="cls-5" d="M771.7592,509.57V504.544l20.3133-11.7271,2.9019,1.6749v1.675Z"/>
    <path id="Path-217" data-name="Path" class="cls-15" d="M771.7592,507.8951v1.675l23.2152-13.4033v-1.675Z"/>
    <path id="Path-218" data-name="Path" class="cls-18" d="M794.9744,494.4918l-2.9019-1.6749V484.44l2.9019-1.6762Z"/>
  </g>
  <g id="Group-17" data-name="Group">
    <path id="Path-219" data-name="Path" class="cls-9" d="M719.5251,538.0528,742.74,524.65V512.9212l-23.2152,13.4033Z"/>
    <path id="Path-220" data-name="Path" class="cls-14" d="M729.6818,532.1886l11.6075-6.7022V513.7593l-11.6075,6.701Z"/>
    <path id="Path-221" data-name="Path" class="cls-5" d="M719.5251,539.7278v-5.0261l20.3133-11.7284L742.74,524.65v1.675Z"/>
    <path id="Path-222" data-name="Path" class="cls-15" d="M719.5251,538.0528v1.675L742.74,526.3245V524.65Z"/>
    <path id="Path-223" data-name="Path" class="cls-18" d="M742.74,524.65l-2.9019-1.6762v-8.3771l2.9019-1.675Z"/>
  </g>
  <g id="Group-18" data-name="Group">
    <path id="Path-224" data-name="Path" class="cls-9" d="M667.291,568.2093l23.2152-13.4033V543.0789L667.291,556.4822Z"/>
    <path id="Path-225" data-name="Path" class="cls-14" d="M677.4476,562.3463l11.6076-6.7022V543.9158l-11.6076,6.7022Z"/>
    <path id="Path-226" data-name="Path" class="cls-5" d="M667.291,569.8854v-5.0261l20.3133-11.7283,2.9019,1.675v1.6762Z"/>
    <path id="Path-227" data-name="Path" class="cls-15" d="M667.291,568.2093v1.6761l23.2152-13.4032V554.806Z"/>
    <path id="Path-228" data-name="Path" class="cls-18" d="M690.5062,554.806l-2.9019-1.675v-8.3771l2.9019-1.675Z"/>
  </g>
  <g id="Group-19" data-name="Group">
    <path id="Path-229" data-name="Path" class="cls-9" d="M615.0569,598.367l23.2151-13.4033V573.2365L615.0569,586.64Z"/>
    <path id="Path-230" data-name="Path" class="cls-14" d="M625.2135,592.5028l11.6076-6.7011V574.0734l-11.6076,6.7023Z"/>
    <path id="Path-231" data-name="Path" class="cls-5" d="M615.0569,600.0431v-5.0273L635.37,583.2887l2.9019,1.675V586.64Z"/>
    <path id="Path-232" data-name="Path" class="cls-15" d="M615.0569,598.367v1.6761L638.272,586.64v-1.6761Z"/>
    <path id="Path-233" data-name="Path" class="cls-18" d="M638.272,584.9637l-2.9019-1.675v-8.3772l2.9019-1.675Z"/>
  </g>
  <path id="Path-234" data-name="Path" class="cls-10" d="M615.0569,636.9018l37.7246-21.78V651.98l-1.4509.8382V617.6344l-36.2737,20.9424Z"/>
  <path id="Path-235" data-name="Path" class="cls-10" d="M615.0569,651.98l37.7246-21.78v1.6761l-37.7246,21.78Z"/>
  <path id="Path-236" data-name="Path" class="cls-10" d="M641.1739,621.8224l1.451-.8369v35.1837l10.1566-5.8641V651.98l-11.6076,6.7022Z"/>
  <path id="Path-237" data-name="Path" class="cls-10" d="M631.0173,627.6866l1.4509-.8369v36.8586l-1.4509.837Z"/>
  <path id="Path-238" data-name="Path" class="cls-10" d="M615.0569,672.0856l5.8038-3.3511V633.5507l1.4509-.8381v36.86l-7.2547,4.1881Z"/>
  <path id="Path-239" data-name="Path" class="cls-17" d="M615.0569,673.7606,652.7815,651.98l14.51,8.3773-46.43,26.8065-5.8038-3.3511Z"/>
  <path id="Path-240" data-name="Path" class="cls-17" d="M615.0569,685.4889v-5.0261l43.5284-25.1316,2.9019,1.6749,5.8038-3.35,18.8623,10.89-59.4888,34.3457-17.4114-10.0533Z"/>
  <path id="Path-241" data-name="Path" class="cls-7" d="M615.0569,685.4889v-1.6762l5.8038,3.3511V688.84Z"/>
  <path id="Path-242" data-name="Path" class="cls-7" d="M609.2531,690.5149v-1.6761l17.4114,10.0533v1.675Z"/>
  <path id="Path-243" data-name="Path" class="cls-8" d="M667.291,660.3573v1.6749l-46.43,26.8077v-1.6761Z"/>
  <path id="Path-244" data-name="Path" class="cls-8" d="M686.1533,664.5464v1.675l-59.4888,34.3457v-1.675Z"/>
  <path id="Mask" class="cls-18" d="M265.3784,495.33h0a16.0495,16.0495,0,0,0,14.51,0h0c4.0035-2.3123,4.0035-6.0662,0-8.3773h0a16.0421,16.0421,0,0,0-14.51,0h0C261.375,489.2638,261.375,493.0177,265.3784,495.33Z"/>
  <g class="cls-20">
    <path id="Path-245" data-name="Path" class="cls-10" d="M265.3784,502.031h0a16.0421,16.0421,0,0,0,14.51,0h0c4.0035-2.3111,4.0035-6.065,0-8.3772h0a16.0489,16.0489,0,0,0-14.51,0h0C261.375,495.966,261.375,499.72,265.3784,502.031Z"/>
  </g>
  <path id="Mask-2" data-name="Mask" class="cls-18" d="M288.6946,508.674h0a16.0421,16.0421,0,0,0,14.51,0h0c4.0046-2.3111,4.0046-6.0649,0-8.3772h0a16.0489,16.0489,0,0,0-14.51,0h0C284.6911,502.6091,284.6911,506.3629,288.6946,508.674Z"/>
  <g class="cls-21">
    <path id="Path-246" data-name="Path" class="cls-10" d="M288.6946,515.3762h0a16.0489,16.0489,0,0,0,14.51,0h0c4.0046-2.3122,4.0046-6.0661,0-8.3772h0a16.0421,16.0421,0,0,0-14.51,0h0C284.6911,509.31,284.6911,513.064,288.6946,515.3762Z"/>
  </g>
  <path id="Mask-3" data-name="Mask" class="cls-18" d="M311.91,522.0773h0a16.0418,16.0418,0,0,0,14.5094,0h0c4.0046-2.3111,4.0046-6.065,0-8.3772h0a16.0487,16.0487,0,0,0-14.5094,0h0C307.9063,516.0123,307.9063,519.7662,311.91,522.0773Z"/>
  <g class="cls-22">
    <path id="Path-247" data-name="Path" class="cls-10" d="M311.91,528.78h0a16.0487,16.0487,0,0,0,14.5094,0h0c4.0046-2.3123,4.0046-6.0662,0-8.3772h0a16.0418,16.0418,0,0,0-14.5094,0h0C307.9063,522.7133,307.9063,526.4672,311.91,528.78Z"/>
  </g>
  <path id="Mask-4" data-name="Mask" class="cls-18" d="M335.0239,535.4805h0a16.0414,16.0414,0,0,0,14.5095,0h0c4.0035-2.311,4.0035-6.0649,0-8.3771h0a16.0489,16.0489,0,0,0-14.5095,0h0C331.0205,529.4156,331.0205,533.17,335.0239,535.4805Z"/>
  <g class="cls-23">
    <path id="Path-248" data-name="Path" class="cls-10" d="M335.0239,542.1827h0a16.0483,16.0483,0,0,0,14.5095,0h0c4.0035-2.3122,4.0035-6.066,0-8.3771h0a16.0414,16.0414,0,0,0-14.5095,0h0C331.0205,536.1167,331.0205,539.8705,335.0239,542.1827Z"/>
  </g>
  <path id="Mask-5" data-name="Mask" class="cls-18" d="M358.34,548.8838h0a16.0414,16.0414,0,0,0,14.51,0h0c4.0046-2.311,4.0046-6.0649,0-8.3772h0a16.0489,16.0489,0,0,0-14.51,0h0C354.3366,542.8189,354.3366,546.5728,358.34,548.8838Z"/>
  <g class="cls-24">
    <path id="Path-249" data-name="Path" class="cls-10" d="M358.34,555.586h0a16.0489,16.0489,0,0,0,14.51,0h0c4.0046-2.3122,4.0046-6.066,0-8.3771h0a16.0414,16.0414,0,0,0-14.51,0h0C354.3366,549.52,354.3366,553.2738,358.34,555.586Z"/>
  </g>
  <path id="Mask-6" data-name="Mask" class="cls-18" d="M335.1249,562.2871h0a16.0421,16.0421,0,0,0,14.51,0h0c4.0046-2.311,4.0046-6.0649,0-8.3772h0a16.0489,16.0489,0,0,0-14.51,0h0C331.1215,556.2222,331.1215,559.9761,335.1249,562.2871Z"/>
  <g class="cls-25">
    <path id="Path-250" data-name="Path" class="cls-10" d="M335.1249,568.9893h0a16.0489,16.0489,0,0,0,14.51,0h0c4.0046-2.3122,4.0046-6.0661,0-8.3772h0a16.0421,16.0421,0,0,0-14.51,0h0C331.1215,562.9232,331.1215,566.6771,335.1249,568.9893Z"/>
  </g>
  <path id="Mask-7" data-name="Mask" class="cls-18" d="M311.7078,548.8838h0a16.0414,16.0414,0,0,0,14.51,0h0c4.0034-2.311,4.0034-6.0649,0-8.3772h0a16.0489,16.0489,0,0,0-14.51,0h0C307.7032,542.8189,307.7032,546.5728,311.7078,548.8838Z"/>
  <g class="cls-26">
    <path id="Path-251" data-name="Path" class="cls-10" d="M311.7078,555.586h0a16.0489,16.0489,0,0,0,14.51,0h0c4.0034-2.3122,4.0034-6.066,0-8.3771h0a16.0414,16.0414,0,0,0-14.51,0h0C307.7032,549.52,307.7032,553.2738,311.7078,555.586Z"/>
  </g>
  <path id="Mask-8" data-name="Mask" class="cls-18" d="M288.4926,481.9847h0a16.0495,16.0495,0,0,0,14.51,0h0c4.0034-2.3122,4.0034-6.065,0-8.3772h0a16.0414,16.0414,0,0,0-14.51,0h0C284.488,475.92,284.488,479.6725,288.4926,481.9847Z"/>
  <g class="cls-27">
    <path id="Path-252" data-name="Path" class="cls-10" d="M288.4926,488.6858h0a16.0427,16.0427,0,0,0,14.51,0h0c4.0034-2.3111,4.0034-6.065,0-8.3773h0a16.0495,16.0495,0,0,0-14.51,0h0C284.488,482.6208,284.488,486.3747,288.4926,488.6858Z"/>
  </g>
  <path id="Mask-9" data-name="Mask" class="cls-18" d="M311.8088,495.33h0a16.0493,16.0493,0,0,0,14.5094,0h0c4.0035-2.3123,4.0035-6.0662,0-8.3773h0a16.0418,16.0418,0,0,0-14.5094,0h0C307.8053,489.2638,307.8053,493.0177,311.8088,495.33Z"/>
  <g class="cls-28">
    <path id="Path-253" data-name="Path" class="cls-10" d="M311.8088,502.031h0a16.0418,16.0418,0,0,0,14.5094,0h0c4.0035-2.3111,4.0035-6.065,0-8.3772h0a16.0487,16.0487,0,0,0-14.5094,0h0C307.8053,495.966,307.8053,499.72,311.8088,502.031Z"/>
  </g>
  <path id="Mask-10" data-name="Mask" class="cls-18" d="M335.0239,508.7332h0a16.0489,16.0489,0,0,0,14.5095,0h0c4.0035-2.3122,4.0035-6.0661,0-8.3772h0a16.0421,16.0421,0,0,0-14.5095,0h0C331.0205,502.6671,331.0205,506.421,335.0239,508.7332Z"/>
  <g class="cls-29">
    <path id="Path-254" data-name="Path" class="cls-10" d="M335.0239,515.4342h0a16.0414,16.0414,0,0,0,14.5095,0h0c4.0035-2.311,4.0035-6.0649,0-8.3771h0a16.0489,16.0489,0,0,0-14.5095,0h0C331.0205,509.3693,331.0205,513.1232,335.0239,515.4342Z"/>
  </g>
  <path id="Mask-11" data-name="Mask" class="cls-18" d="M358.1381,522.1365h0a16.0495,16.0495,0,0,0,14.51,0h0c4.0034-2.3122,4.0034-6.0661,0-8.3772h0a16.0414,16.0414,0,0,0-14.51,0h0C354.1335,516.07,354.1335,519.8243,358.1381,522.1365Z"/>
  <g class="cls-30">
    <path id="Path-255" data-name="Path" class="cls-10" d="M358.1381,528.8375h0a16.0421,16.0421,0,0,0,14.51,0h0c4.0034-2.311,4.0034-6.0649,0-8.3772h0a16.0495,16.0495,0,0,0-14.51,0h0C354.1335,522.7726,354.1335,526.5265,358.1381,528.8375Z"/>
  </g>
  <path id="Mask-12" data-name="Mask" class="cls-18" d="M381.4543,535.54h0a16.0493,16.0493,0,0,0,14.5094,0h0c4.0035-2.3123,4.0035-6.0662,0-8.3773h0a16.0418,16.0418,0,0,0-14.5094,0h0C377.4508,529.4736,377.4508,533.2275,381.4543,535.54Z"/>
  <g class="cls-31">
    <path id="Path-256" data-name="Path" class="cls-10" d="M381.4543,542.2408h0a16.0418,16.0418,0,0,0,14.5094,0h0c4.0035-2.3111,4.0035-6.065,0-8.3772h0a16.0493,16.0493,0,0,0-14.5094,0h0C377.4508,536.1758,377.4508,539.93,381.4543,542.2408Z"/>
  </g>
  <path id="Mask-13" data-name="Mask" class="cls-18" d="M311.7078,468.5814h0a16.0489,16.0489,0,0,0,14.51,0h0c4.0034-2.3122,4.0034-6.065,0-8.3772h0a16.0421,16.0421,0,0,0-14.51,0h0C307.7032,462.5164,307.7032,466.2692,311.7078,468.5814Z"/>
  <g class="cls-32">
    <path id="Path-257" data-name="Path" class="cls-10" d="M311.7078,475.2824h0a16.0414,16.0414,0,0,0,14.51,0h0c4.0034-2.311,4.0034-6.0649,0-8.3759h0a16.0414,16.0414,0,0,0-14.51,0h0C307.7032,469.2175,307.7032,472.9714,311.7078,475.2824Z"/>
  </g>
  <path id="Mask-14" data-name="Mask" class="cls-18" d="M335.0239,481.9266h0a16.0489,16.0489,0,0,0,14.5095,0h0c4.0035-2.3122,4.0035-6.0661,0-8.3772h0a16.0421,16.0421,0,0,0-14.5095,0h0C331.0205,475.8605,331.0205,479.6144,335.0239,481.9266Z"/>
  <g class="cls-33">
    <path id="Path-258" data-name="Path" class="cls-10" d="M335.0239,488.6277h0a16.0421,16.0421,0,0,0,14.5095,0h0c4.0035-2.311,4.0035-6.065,0-8.3772h0a16.0489,16.0489,0,0,0-14.5095,0h0C331.0205,482.5627,331.0205,486.3167,335.0239,488.6277Z"/>
  </g>
  <path id="Mask-15" data-name="Mask" class="cls-18" d="M358.2391,495.33h0a16.0495,16.0495,0,0,0,14.51,0h0c4.0034-2.3123,4.0034-6.0662,0-8.3773h0a16.0421,16.0421,0,0,0-14.51,0h0C354.2356,489.2638,354.2356,493.0177,358.2391,495.33Z"/>
  <g class="cls-34">
    <path id="Path-259" data-name="Path" class="cls-10" d="M358.2391,502.031h0a16.0421,16.0421,0,0,0,14.51,0h0c4.0034-2.3111,4.0034-6.065,0-8.3772h0a16.0489,16.0489,0,0,0-14.51,0h0C354.2356,495.966,354.2356,499.72,358.2391,502.031Z"/>
  </g>
  <path id="Mask-16" data-name="Mask" class="cls-18" d="M381.3533,508.7332h0a16.0487,16.0487,0,0,0,14.5094,0h0c4.0035-2.3122,4.0035-6.0661,0-8.3772h0a16.0418,16.0418,0,0,0-14.5094,0h0C377.3487,502.6671,377.3487,506.421,381.3533,508.7332Z"/>
  <g class="cls-35">
    <path id="Path-260" data-name="Path" class="cls-10" d="M381.3533,515.4342h0a16.0412,16.0412,0,0,0,14.5094,0h0c4.0035-2.311,4.0035-6.0649,0-8.3771h0a16.0487,16.0487,0,0,0-14.5094,0h0C377.3487,509.3693,377.3487,513.1232,381.3533,515.4342Z"/>
  </g>
  <path id="Mask-17" data-name="Mask" class="cls-18" d="M404.6694,522.1365h0a16.0495,16.0495,0,0,0,14.51,0h0c4.0035-2.3122,4.0035-6.0661,0-8.3772h0a16.0414,16.0414,0,0,0-14.51,0h0C400.666,516.07,400.666,519.8243,404.6694,522.1365Z"/>
  <g class="cls-36">
    <path id="Path-261" data-name="Path" class="cls-10" d="M404.6694,528.8375h0a16.0421,16.0421,0,0,0,14.51,0h0c4.0035-2.311,4.0035-6.0649,0-8.3772h0a16.0495,16.0495,0,0,0-14.51,0h0C400.666,522.7726,400.666,526.5265,404.6694,528.8375Z"/>
  </g>
  <path id="Mask-18" data-name="Mask" class="cls-18" d="M358.1381,441.7749h0a16.0495,16.0495,0,0,0,14.51,0h0c4.0034-2.3122,4.0034-6.065,0-8.3773h0a16.0421,16.0421,0,0,0-14.51,0h0C354.1335,435.71,354.1335,439.4627,358.1381,441.7749Z"/>
  <g class="cls-37">
    <path id="Path-262" data-name="Path" class="cls-10" d="M358.1381,448.4759h0a16.0421,16.0421,0,0,0,14.51,0h0c4.0034-2.311,4.0034-6.0649,0-8.3772h0a16.0495,16.0495,0,0,0-14.51,0h0C354.1335,442.411,354.1335,446.1649,358.1381,448.4759Z"/>
  </g>
  <path id="Mask-19" data-name="Mask" class="cls-18" d="M381.4543,455.12h0a16.0487,16.0487,0,0,0,14.5094,0h0c4.0035-2.3123,4.0035-6.0661,0-8.3772h0a16.0418,16.0418,0,0,0-14.5094,0h0C377.4508,449.054,377.4508,452.8078,381.4543,455.12Z"/>
  <g class="cls-38">
    <path id="Path-263" data-name="Path" class="cls-10" d="M381.4543,461.8211h0a16.0412,16.0412,0,0,0,14.5094,0h0c4.0035-2.311,4.0035-6.0649,0-8.3771h0a16.0487,16.0487,0,0,0-14.5094,0h0C377.4508,455.7562,377.4508,459.51,381.4543,461.8211Z"/>
  </g>
  <path id="Mask-20" data-name="Mask" class="cls-18" d="M404.6694,468.5233h0a16.0489,16.0489,0,0,0,14.51,0h0c4.0035-2.3121,4.0035-6.066,0-8.3771h0a16.0414,16.0414,0,0,0-14.51,0h0C400.666,462.4573,400.666,466.2112,404.6694,468.5233Z"/>
  <g class="cls-39">
    <path id="Path-264" data-name="Path" class="cls-10" d="M404.6694,475.2244h0a16.0421,16.0421,0,0,0,14.51,0h0c4.0035-2.311,4.0035-6.0649,0-8.3772h0a16.0489,16.0489,0,0,0-14.51,0h0C400.666,469.16,400.666,472.9134,404.6694,475.2244Z"/>
  </g>
  <path id="Mask-21" data-name="Mask" class="cls-18" d="M427.7836,481.9266h0a16.0489,16.0489,0,0,0,14.51,0h0c4.0034-2.3122,4.0034-6.0661,0-8.3772h0a16.0421,16.0421,0,0,0-14.51,0h0C423.779,475.8605,423.779,479.6144,427.7836,481.9266Z"/>
  <g class="cls-40">
    <path id="Path-265" data-name="Path" class="cls-10" d="M427.7836,488.6277h0a16.0421,16.0421,0,0,0,14.51,0h0c4.0034-2.311,4.0034-6.065,0-8.3772h0a16.0489,16.0489,0,0,0-14.51,0h0C423.779,482.5627,423.779,486.3167,427.7836,488.6277Z"/>
  </g>
  <path id="Mask-22" data-name="Mask" class="cls-18" d="M451.1,495.33h0a16.0493,16.0493,0,0,0,14.5094,0h0c4.0035-2.3123,4.0035-6.0662,0-8.3773h0a16.0418,16.0418,0,0,0-14.5094,0h0C447.0963,489.2638,447.0963,493.0177,451.1,495.33Z"/>
  <g class="cls-41">
    <path id="Path-266" data-name="Path" class="cls-10" d="M451.1,502.031h0a16.0418,16.0418,0,0,0,14.5094,0h0c4.0035-2.3111,4.0035-6.065,0-8.3772h0a16.0487,16.0487,0,0,0-14.5094,0h0C447.0963,495.966,447.0963,499.72,451.1,502.031Z"/>
  </g>
  <path id="Mask-23" data-name="Mask" class="cls-18" d="M334.9229,455.0609h0a16.0421,16.0421,0,0,0,14.5095,0h0c4.0035-2.3111,4.0035-6.065,0-8.3772h0a16.0489,16.0489,0,0,0-14.5095,0h0C330.9183,448.9959,330.9183,452.75,334.9229,455.0609Z"/>
  <g class="cls-42">
    <path id="Path-267" data-name="Path" class="cls-10" d="M334.9229,461.7631h0a16.0489,16.0489,0,0,0,14.5095,0h0c4.0035-2.3122,4.0035-6.0661,0-8.3772h0a16.0421,16.0421,0,0,0-14.5095,0h0C330.9183,455.697,330.9183,459.4509,334.9229,461.7631Z"/>
  </g>
  <path id="Mask-24" data-name="Mask" class="cls-18" d="M358.2391,468.4062h0a16.0421,16.0421,0,0,0,14.51,0h0c4.0034-2.3123,4.0034-6.065,0-8.3773h0a16.0495,16.0495,0,0,0-14.51,0h0C354.2356,462.3412,354.2356,466.0939,358.2391,468.4062Z"/>
  <g class="cls-43">
    <path id="Path-268" data-name="Path" class="cls-10" d="M358.2391,475.1072h0a16.0421,16.0421,0,0,0,14.51,0h0c4.0034-2.3111,4.0034-6.065,0-8.376h0a16.0421,16.0421,0,0,0-14.51,0h0C354.2356,469.0422,354.2356,472.7961,358.2391,475.1072Z"/>
  </g>
  <path id="Mask-25" data-name="Mask" class="cls-18" d="M381.4543,481.8094h0a16.0412,16.0412,0,0,0,14.5094,0h0c4.0035-2.3122,4.0035-6.065,0-8.3772h0a16.0493,16.0493,0,0,0-14.5094,0h0C377.4508,475.7444,377.4508,479.4972,381.4543,481.8094Z"/>
  <g class="cls-44">
    <path id="Path-269" data-name="Path" class="cls-10" d="M381.4543,488.5105h0a16.0418,16.0418,0,0,0,14.5094,0h0c4.0035-2.3111,4.0035-6.065,0-8.376h0a16.0412,16.0412,0,0,0-14.5094,0h0C377.4508,482.4455,377.4508,486.1994,381.4543,488.5105Z"/>
  </g>
  <path id="Mask-26" data-name="Mask" class="cls-18" d="M404.5684,495.2127h0a16.0421,16.0421,0,0,0,14.51,0h0c4.0035-2.3122,4.0035-6.065,0-8.3772h0a16.0489,16.0489,0,0,0-14.51,0h0C400.5638,489.1477,400.5638,492.9005,404.5684,495.2127Z"/>
  <g class="cls-45">
    <path id="Path-270" data-name="Path" class="cls-10" d="M404.5684,501.9138h0a16.0421,16.0421,0,0,0,14.51,0h0c4.0035-2.3111,4.0035-6.065,0-8.3761h0a16.0421,16.0421,0,0,0-14.51,0h0C400.5638,495.8488,400.5638,499.6027,404.5684,501.9138Z"/>
  </g>
  <path id="Mask-27" data-name="Mask" class="cls-18" d="M427.8846,508.616h0a16.0421,16.0421,0,0,0,14.51,0h0c4.0034-2.3123,4.0034-6.065,0-8.3773h0a16.0495,16.0495,0,0,0-14.51,0h0C423.8811,502.551,423.8811,506.3037,427.8846,508.616Z"/>
  <g class="cls-46">
    <path id="Path-271" data-name="Path" class="cls-10" d="M427.8846,515.3182h0a16.0489,16.0489,0,0,0,14.51,0h0c4.0034-2.3123,4.0034-6.0662,0-8.3772h0a16.0421,16.0421,0,0,0-14.51,0h0C423.8811,509.252,423.8811,513.0059,427.8846,515.3182Z"/>
  </g>
  <g id="Group-20" data-name="Group">
    <path id="Mask-28" data-name="Mask" class="cls-18" d="M404.6694,386.4276h0a16.0421,16.0421,0,0,0,14.51,0h0c4.0035-2.3111,4.0035-6.065,0-8.3772h0a16.0489,16.0489,0,0,0-14.51,0h0C400.666,380.3626,400.666,384.1165,404.6694,386.4276Z"/>
    <g class="cls-47">
      <path id="Path-272" data-name="Path" class="cls-10" d="M404.6694,393.13h0a16.0489,16.0489,0,0,0,14.51,0h0c4.0035-2.3122,4.0035-6.0661,0-8.3772h0a16.0421,16.0421,0,0,0-14.51,0h0C400.666,387.0637,400.666,390.8176,404.6694,393.13Z"/>
    </g>
    <path id="Mask-29" data-name="Mask" class="cls-18" d="M427.9856,399.7728h0a16.0489,16.0489,0,0,0,14.51,0h0c4.0046-2.3122,4.0046-6.065,0-8.3772h0a16.0421,16.0421,0,0,0-14.51,0h0C423.9821,393.7078,423.9821,397.4606,427.9856,399.7728Z"/>
    <g class="cls-48">
      <path id="Path-273" data-name="Path" class="cls-10" d="M427.9856,406.4739h0a16.0421,16.0421,0,0,0,14.51,0h0c4.0046-2.3111,4.0046-6.065,0-8.376h0a16.0414,16.0414,0,0,0-14.51,0h0C423.9821,400.4089,423.9821,404.1628,427.9856,406.4739Z"/>
    </g>
    <path id="Mask-30" data-name="Mask" class="cls-18" d="M451.2007,413.1761h0a16.0489,16.0489,0,0,0,14.51,0h0c4.0046-2.3122,4.0046-6.065,0-8.3772h0a16.0421,16.0421,0,0,0-14.51,0h0C447.1973,407.1111,447.1973,410.8639,451.2007,413.1761Z"/>
    <g class="cls-49">
      <path id="Path-274" data-name="Path" class="cls-10" d="M451.2007,419.8772h0a16.0421,16.0421,0,0,0,14.51,0h0c4.0046-2.3111,4.0046-6.065,0-8.3761h0a16.0421,16.0421,0,0,0-14.51,0h0C447.1973,413.8122,447.1973,417.5661,451.2007,419.8772Z"/>
    </g>
    <path id="Mask-31" data-name="Mask" class="cls-18" d="M474.3149,426.5794h0a16.0495,16.0495,0,0,0,14.51,0h0c4.0034-2.3122,4.0034-6.065,0-8.3772h0a16.0421,16.0421,0,0,0-14.51,0h0C470.3115,420.5144,470.3115,424.2672,474.3149,426.5794Z"/>
    <g class="cls-50">
      <path id="Path-275" data-name="Path" class="cls-10" d="M474.3149,433.28h0a16.0421,16.0421,0,0,0,14.51,0h0c4.0034-2.311,4.0034-6.0649,0-8.376h0a16.0421,16.0421,0,0,0-14.51,0h0C470.3115,427.2155,470.3115,430.9694,474.3149,433.28Z"/>
    </g>
    <path id="Mask-32" data-name="Mask" class="cls-18" d="M497.631,439.9827h0a16.0495,16.0495,0,0,0,14.51,0h0c4.0047-2.3123,4.0047-6.065,0-8.3773h0a16.0421,16.0421,0,0,0-14.51,0h0C493.6276,433.9177,493.6276,437.67,497.631,439.9827Z"/>
    <g class="cls-51">
      <path id="Path-276" data-name="Path" class="cls-10" d="M497.631,446.6837h0a16.0421,16.0421,0,0,0,14.51,0h0c4.0047-2.3111,4.0047-6.065,0-8.376h0a16.0421,16.0421,0,0,0-14.51,0h0C493.6276,440.6187,493.6276,444.3726,497.631,446.6837Z"/>
    </g>
    <path id="Mask-33" data-name="Mask" class="cls-18" d="M427.7836,373.0824h0a16.0421,16.0421,0,0,0,14.51,0h0c4.0034-2.3111,4.0034-6.065,0-8.3761h0a16.0421,16.0421,0,0,0-14.51,0h0C423.779,367.0174,423.779,370.7713,427.7836,373.0824Z"/>
    <g class="cls-52">
      <path id="Path-277" data-name="Path" class="cls-10" d="M427.7836,379.7846h0a16.0495,16.0495,0,0,0,14.51,0h0c4.0034-2.3123,4.0034-6.065,0-8.3772h0a16.0489,16.0489,0,0,0-14.51,0h0C423.779,373.72,423.779,377.4723,427.7836,379.7846Z"/>
    </g>
    <path id="Mask-34" data-name="Mask" class="cls-18" d="M451.1,386.4276h0a16.0418,16.0418,0,0,0,14.5094,0h0c4.0035-2.3111,4.0035-6.065,0-8.3772h0a16.0487,16.0487,0,0,0-14.5094,0h0C447.0963,380.3626,447.0963,384.1165,451.1,386.4276Z"/>
    <g class="cls-53">
      <path id="Path-278" data-name="Path" class="cls-10" d="M451.1,393.13h0a16.0487,16.0487,0,0,0,14.5094,0h0c4.0035-2.3122,4.0035-6.0661,0-8.3772h0a16.0418,16.0418,0,0,0-14.5094,0h0C447.0963,387.0637,447.0963,390.8176,451.1,393.13Z"/>
    </g>
    <path id="Mask-35" data-name="Mask" class="cls-18" d="M474.3149,399.8308h0a16.0414,16.0414,0,0,0,14.51,0h0c4.0034-2.311,4.0034-6.0649,0-8.3771h0a16.0489,16.0489,0,0,0-14.51,0h0C470.3115,393.7659,470.3115,397.52,474.3149,399.8308Z"/>
    <g class="cls-54">
      <path id="Path-279" data-name="Path" class="cls-10" d="M474.3149,406.5331h0a16.0495,16.0495,0,0,0,14.51,0h0c4.0034-2.3123,4.0034-6.0662,0-8.3772h0a16.0414,16.0414,0,0,0-14.51,0h0C470.3115,400.4669,470.3115,404.2208,474.3149,406.5331Z"/>
    </g>
    <path id="Mask-36" data-name="Mask" class="cls-18" d="M497.4291,413.2341h0a16.0421,16.0421,0,0,0,14.51,0h0c4.0034-2.3111,4.0034-6.0649,0-8.3772h0a16.0495,16.0495,0,0,0-14.51,0h0C493.4245,407.1692,493.4245,410.923,497.4291,413.2341Z"/>
    <g class="cls-55">
      <path id="Path-280" data-name="Path" class="cls-10" d="M497.4291,419.9364h0a16.0489,16.0489,0,0,0,14.51,0h0c4.0034-2.3123,4.0034-6.0662,0-8.3773h0a16.0421,16.0421,0,0,0-14.51,0h0C493.4245,413.87,493.4245,417.6241,497.4291,419.9364Z"/>
    </g>
    <path id="Mask-37" data-name="Mask" class="cls-18" d="M520.7453,426.6374h0a16.0412,16.0412,0,0,0,14.5094,0h0c4.0035-2.3111,4.0035-6.065,0-8.3772h0a16.0493,16.0493,0,0,0-14.5094,0h0C516.7418,420.5724,516.7418,424.3263,520.7453,426.6374Z"/>
    <g class="cls-56">
      <path id="Path-281" data-name="Path" class="cls-10" d="M520.7453,433.34h0a16.0487,16.0487,0,0,0,14.5094,0h0c4.0035-2.3122,4.0035-6.0661,0-8.3771h0a16.0412,16.0412,0,0,0-14.5094,0h0C516.7418,427.2735,516.7418,431.0274,520.7453,433.34Z"/>
    </g>
    <path id="Mask-38" data-name="Mask" class="cls-18" d="M450.9988,359.6791h0a16.0421,16.0421,0,0,0,14.51,0h0c4.0034-2.3111,4.0034-6.065,0-8.3761h0a16.0421,16.0421,0,0,0-14.51,0h0C446.9942,353.6141,446.9942,357.368,450.9988,359.6791Z"/>
    <g class="cls-57">
      <path id="Path-282" data-name="Path" class="cls-10" d="M450.9988,366.3813h0a16.0489,16.0489,0,0,0,14.51,0h0c4.0034-2.3123,4.0034-6.065,0-8.3772h0a16.0489,16.0489,0,0,0-14.51,0h0C446.9942,360.3163,446.9942,364.069,450.9988,366.3813Z"/>
    </g>
    <path id="Mask-39" data-name="Mask" class="cls-18" d="M474.3149,373.0243h0a16.0421,16.0421,0,0,0,14.51,0h0c4.0034-2.3111,4.0034-6.065,0-8.3772h0a16.0489,16.0489,0,0,0-14.51,0h0C470.3115,366.9593,470.3115,370.7132,474.3149,373.0243Z"/>
    <g class="cls-58">
      <path id="Path-283" data-name="Path" class="cls-10" d="M474.3149,379.7265h0a16.0489,16.0489,0,0,0,14.51,0h0c4.0034-2.3122,4.0034-6.0661,0-8.3772h0a16.0421,16.0421,0,0,0-14.51,0h0C470.3115,373.66,470.3115,377.4143,474.3149,379.7265Z"/>
    </g>
    <path id="Mask-40" data-name="Mask" class="cls-18" d="M497.53,386.4276h0a16.0421,16.0421,0,0,0,14.5095,0h0c4.0034-2.3111,4.0034-6.065,0-8.3772h0a16.0489,16.0489,0,0,0-14.5095,0h0C493.5267,380.3626,493.5267,384.1165,497.53,386.4276Z"/>
    <g class="cls-59">
      <path id="Path-284" data-name="Path" class="cls-10" d="M497.53,393.13h0a16.0489,16.0489,0,0,0,14.5095,0h0c4.0034-2.3122,4.0034-6.0661,0-8.3772h0a16.0421,16.0421,0,0,0-14.5095,0h0C493.5267,387.0637,493.5267,390.8176,497.53,393.13Z"/>
    </g>
    <path id="Mask-41" data-name="Mask" class="cls-18" d="M520.6443,399.8308h0a16.0414,16.0414,0,0,0,14.51,0h0c4.0034-2.311,4.0034-6.0649,0-8.3771h0a16.0489,16.0489,0,0,0-14.51,0h0C516.64,393.7659,516.64,397.52,520.6443,399.8308Z"/>
    <g class="cls-60">
      <path id="Path-285" data-name="Path" class="cls-10" d="M520.6443,406.5331h0a16.0495,16.0495,0,0,0,14.51,0h0c4.0034-2.3123,4.0034-6.0662,0-8.3772h0a16.0414,16.0414,0,0,0-14.51,0h0C516.64,400.4669,516.64,404.2208,520.6443,406.5331Z"/>
    </g>
    <path id="Mask-42" data-name="Mask" class="cls-18" d="M543.96,413.2341h0a16.0421,16.0421,0,0,0,14.51,0h0c4.0034-2.3111,4.0034-6.0649,0-8.3772h0a16.0495,16.0495,0,0,0-14.51,0h0C539.957,407.1692,539.957,410.923,543.96,413.2341Z"/>
    <g class="cls-61">
      <path id="Path-286" data-name="Path" class="cls-10" d="M543.96,419.9364h0a16.0489,16.0489,0,0,0,14.51,0h0c4.0034-2.3123,4.0034-6.0662,0-8.3773h0a16.0421,16.0421,0,0,0-14.51,0h0C539.957,413.87,539.957,417.6241,543.96,419.9364Z"/>
    </g>
    <path id="Mask-43" data-name="Mask" class="cls-18" d="M497.4291,332.8725h0a16.0421,16.0421,0,0,0,14.51,0h0c4.0034-2.3111,4.0034-6.0649,0-8.376h0a16.0421,16.0421,0,0,0-14.51,0h0C493.4245,326.8076,493.4245,330.5614,497.4291,332.8725Z"/>
    <g class="cls-62">
      <path id="Path-287" data-name="Path" class="cls-10" d="M497.4291,339.5747h0a16.0489,16.0489,0,0,0,14.51,0h0c4.0034-2.3122,4.0034-6.0649,0-8.3772h0a16.0495,16.0495,0,0,0-14.51,0h0C493.4245,333.51,493.4245,337.2625,497.4291,339.5747Z"/>
    </g>
    <path id="Mask-44" data-name="Mask" class="cls-18" d="M520.7453,346.2178h0a16.0418,16.0418,0,0,0,14.5094,0h0c4.0035-2.3111,4.0035-6.065,0-8.3773h0a16.0493,16.0493,0,0,0-14.5094,0h0C516.7418,340.1528,516.7418,343.9067,520.7453,346.2178Z"/>
    <g class="cls-63">
      <path id="Path-288" data-name="Path" class="cls-10" d="M520.7453,352.92h0a16.0487,16.0487,0,0,0,14.5094,0h0c4.0035-2.3122,4.0035-6.0661,0-8.3772h0a16.0412,16.0412,0,0,0-14.5094,0h0C516.7418,346.8539,516.7418,350.6078,520.7453,352.92Z"/>
    </g>
    <path id="Mask-45" data-name="Mask" class="cls-18" d="M543.96,359.621h0a16.0414,16.0414,0,0,0,14.51,0h0c4.0034-2.311,4.0034-6.0649,0-8.3772h0a16.0495,16.0495,0,0,0-14.51,0h0C539.957,353.5561,539.957,357.31,543.96,359.621Z"/>
    <g class="cls-64">
      <path id="Path-289" data-name="Path" class="cls-10" d="M543.96,366.3233h0a16.0495,16.0495,0,0,0,14.51,0h0c4.0034-2.3123,4.0034-6.0662,0-8.3772h0a16.0414,16.0414,0,0,0-14.51,0h0C539.957,360.2571,539.957,364.011,543.96,366.3233Z"/>
    </g>
    <path id="Mask-46" data-name="Mask" class="cls-18" d="M567.0746,373.0243h0a16.0421,16.0421,0,0,0,14.51,0h0c4.0034-2.3111,4.0034-6.065,0-8.3772h0a16.0489,16.0489,0,0,0-14.51,0h0C563.07,366.9593,563.07,370.7132,567.0746,373.0243Z"/>
    <g class="cls-65">
      <path id="Path-290" data-name="Path" class="cls-10" d="M567.0746,379.7265h0a16.0489,16.0489,0,0,0,14.51,0h0c4.0034-2.3122,4.0034-6.0661,0-8.3772h0a16.0421,16.0421,0,0,0-14.51,0h0C563.07,373.66,563.07,377.4143,567.0746,379.7265Z"/>
    </g>
    <path id="Mask-47" data-name="Mask" class="cls-18" d="M590.3908,386.4276h0a16.0418,16.0418,0,0,0,14.5094,0h0c4.0035-2.3111,4.0035-6.065,0-8.3772h0a16.0487,16.0487,0,0,0-14.5094,0h0C586.3873,380.3626,586.3873,384.1165,590.3908,386.4276Z"/>
    <g class="cls-66">
      <path id="Path-291" data-name="Path" class="cls-10" d="M590.3908,393.13h0a16.0487,16.0487,0,0,0,14.5094,0h0c4.0035-2.3122,4.0035-6.0661,0-8.3772h0a16.0418,16.0418,0,0,0-14.5094,0h0C586.3873,387.0637,586.3873,390.8176,590.3908,393.13Z"/>
    </g>
    <path id="Mask-48" data-name="Mask" class="cls-18" d="M474.214,346.16h0a16.0487,16.0487,0,0,0,14.5094,0h0c4.0035-2.3122,4.0035-6.0649,0-8.3772h0a16.0418,16.0418,0,0,0-14.5094,0h0C470.2093,340.0948,470.2093,343.8475,474.214,346.16Z"/>
    <g class="cls-67">
      <path id="Path-292" data-name="Path" class="cls-10" d="M474.214,352.8608h0a16.0418,16.0418,0,0,0,14.5094,0h0c4.0035-2.3111,4.0035-6.065,0-8.3772h0a16.0487,16.0487,0,0,0-14.5094,0h0C470.2093,346.7958,470.2093,350.55,474.214,352.8608Z"/>
    </g>
    <path id="Mask-49" data-name="Mask" class="cls-18" d="M497.53,359.5049h0a16.0489,16.0489,0,0,0,14.5095,0h0c4.0034-2.3122,4.0034-6.0661,0-8.3771h0a16.0414,16.0414,0,0,0-14.5095,0h0C493.5267,353.4388,493.5267,357.1927,497.53,359.5049Z"/>
    <g class="cls-68">
      <path id="Path-293" data-name="Path" class="cls-10" d="M497.53,366.206h0a16.0421,16.0421,0,0,0,14.5095,0h0c4.0034-2.3111,4.0034-6.065,0-8.3772h0a16.0489,16.0489,0,0,0-14.5095,0h0C493.5267,360.141,493.5267,363.8949,497.53,366.206Z"/>
    </g>
    <path id="Mask-50" data-name="Mask" class="cls-18" d="M520.7453,372.9082h0a16.0487,16.0487,0,0,0,14.5094,0h0c4.0035-2.3122,4.0035-6.0661,0-8.3772h0a16.0418,16.0418,0,0,0-14.5094,0h0C516.7418,366.8421,516.7418,370.596,520.7453,372.9082Z"/>
    <g class="cls-69">
      <path id="Path-294" data-name="Path" class="cls-10" d="M520.7453,379.6093h0a16.0418,16.0418,0,0,0,14.5094,0h0c4.0035-2.3111,4.0035-6.065,0-8.3772h0a16.0487,16.0487,0,0,0-14.5094,0h0C516.7418,373.5443,516.7418,377.2982,520.7453,379.6093Z"/>
    </g>
    <path id="Mask-51" data-name="Mask" class="cls-18" d="M543.86,386.3115h0a16.0487,16.0487,0,0,0,14.5094,0h0c4.0035-2.3122,4.0035-6.0661,0-8.3772h0a16.0418,16.0418,0,0,0-14.5094,0h0C539.8548,380.2454,539.8548,383.9993,543.86,386.3115Z"/>
    <g class="cls-70">
      <path id="Path-295" data-name="Path" class="cls-10" d="M543.86,393.0126h0a16.0418,16.0418,0,0,0,14.5094,0h0c4.0035-2.3111,4.0035-6.065,0-8.3772h0a16.0487,16.0487,0,0,0-14.5094,0h0C539.8548,386.9476,539.8548,390.7015,543.86,393.0126Z"/>
    </g>
    <path id="Mask-52" data-name="Mask" class="cls-18" d="M567.1756,399.7148h0a16.0489,16.0489,0,0,0,14.51,0h0c4.0034-2.3122,4.0034-6.0661,0-8.3772h0a16.0421,16.0421,0,0,0-14.51,0h0C563.1722,393.6487,563.1722,397.4026,567.1756,399.7148Z"/>
    <g class="cls-71">
      <path id="Path-296" data-name="Path" class="cls-10" d="M567.1756,406.4158h0a16.0414,16.0414,0,0,0,14.51,0h0c4.0034-2.311,4.0034-6.0649,0-8.3771h0a16.0489,16.0489,0,0,0-14.51,0h0C563.1722,400.3509,563.1722,404.1048,567.1756,406.4158Z"/>
    </g>
  </g>
  <path id="Path-297" data-name="Path" class="cls-8" d="M278.437,672.0856l-2.9019,1.675v1.6749l2.9019-1.6749Z"/>
  <path id="Path-298" data-name="Path" class="concrete-top" d="M297.2993,699.729l2.9019-1.675,17.4114,10.0522v3.3511Z"/>
  <path id="Path-299" data-name="Path" class="cls-4" d="M300.2012,671.2475l-1.451-.8381v28.4827l1.451-.8381Z"/>
  <path id="Path-300" data-name="Path" class="cls-8" d="M300.2012,691.353l-1.451.8369v6.7022l1.451-.8381Z"/>
</svg>
