<svg id="Layer_1" data-name="Layer 1" xmlns="http://www.w3.org/2000/svg" viewBox="0 0 1062 1062">
  <defs>
    <style>
      .cls-1 {
        fill: #e8e8e8;
      }

      .cls-2 {
        fill: #fff3d8;
      }

      .cls-3 {
        fill: #dfca9e;
      }

      .cls-4 {
        fill: #eacb87;
      }

      .cls-5 {
        fill: #795a30;
      }

      .cls-6 {
        fill: #a27d4e;
      }

      .cls-7 {
        fill: #4d3b24;
      }

      .cls-8 {
        fill: #f7f7f7;
      }

      .cls-9 {
        fill: #5e4421;
      }

      .cls-10 {
        fill: #caa973;
      }

      .cls-11 {
        fill: #a2a2a2;
      }

      .cls-12 {
        fill: #d1d1d1;
      }
    </style>
  </defs>
  <title>1Artboard 5</title>
  <g id="Group">
    <g id="Group-2" data-name="Group">
      <path id="Path" class="cls-1" d="M538,924.6763l118.6786-68.52L538,787.6381,419.3214,856.1566Z"/>
      <path id="Path-2" data-name="Path" class="cls-2" d="M524.5138,162l-80.9173,46.7184,10.789,6.2285-10.789,6.23,80.9173,46.7173,10.789-6.23,10.7889,6.23,80.9173-46.7173-10.789-6.23,10.789-6.2285L546.0917,162l-10.7889,6.23Z"/>
      <path id="Path-3" data-name="Path" class="cls-3" d="M524.5138,261.6642l10.789-6.2285,10.7889,6.2285L616.22,221.1764l-10.789-6.23,10.789-6.2285L546.0917,168.23l-10.7889,6.2284-10.789-6.2284-70.1283,40.4888,10.789,6.2285-10.789,6.23Z"/>
      <path id="Path-4" data-name="Path" class="cls-4" d="M546.6312,268.8127V874.15l81.9961-47.3405-1.3442-604.56Z"/>
      <path id="Path-5" data-name="Path" class="cls-5" d="M525.0532,267.8937V875.2219L444.136,828.5045V221.1764Z"/>
      <path id="Path-6" data-name="Path" class="cls-4" d="M627.5484,208.7184v12.458l-10.789-6.23Z"/>
      <path id="Path-7" data-name="Path" class="cls-5" d="M535.8422,868.9934V261.6642l10.789,6.23V875.2219Z"/>
      <path id="Path-8" data-name="Path" class="cls-4" d="M525.0532,875.2219V267.8937l10.789-6.23V868.9934Z"/>
      <path id="Path-9" data-name="Path" class="cls-6" d="M550.9468,272.5653l3.2366-1.5568V865.5l-3.2366,1.5579Z"/>
      <path id="Path-10" data-name="Path" class="cls-7" d="M519.6588,272.5653l-3.2367-1.5568V864.3217l3.2367,1.5569Z"/>
      <path id="Path-11" data-name="Path" class="cls-6" d="M560.6568,267.1147l3.2367-1.5568V860.05l-3.2367,1.5568Z"/>
      <path id="Path-12" data-name="Path" class="cls-7" d="M509.9487,267.1147l-3.2367-1.5568V858.8711l3.2367,1.5569Z"/>
      <path id="Path-13" data-name="Path" class="cls-6" d="M570.3669,261.6642l3.2367-1.5569V854.6l-3.2367,1.5568Z"/>
      <path id="Path-14" data-name="Path" class="cls-7" d="M500.2386,261.6642l-3.2367-1.5569V853.4206l3.2367,1.5569Z"/>
      <path id="Path-15" data-name="Path" class="cls-6" d="M578.9981,256.2147l3.2367-1.558V849.1492l-3.2367,1.5569Z"/>
      <path id="Path-16" data-name="Path" class="cls-7" d="M490.5286,256.2147l-3.2367-1.558V847.97l3.2367,1.5579Z"/>
      <path id="Path-17" data-name="Path" class="cls-6" d="M588.7081,250.7641l3.2367-1.558V843.6986l-3.2367,1.5569Z"/>
      <path id="Path-18" data-name="Path" class="cls-7" d="M481.8974,250.7641l-3.2367-1.558V842.5194l3.2367,1.5579Z"/>
      <path id="Path-19" data-name="Path" class="cls-6" d="M598.4182,245.3135l3.2367-1.5579V838.248l-3.2367,1.558Z"/>
      <path id="Path-20" data-name="Path" class="cls-7" d="M472.1873,245.3135l-3.2367-1.5579V837.07l3.2367,1.5569Z"/>
      <path id="Path-21" data-name="Path" class="cls-6" d="M608.1283,239.8629l3.2367-1.5568V832.7975l-3.2367,1.5579Z"/>
      <path id="Path-22" data-name="Path" class="cls-7" d="M462.4772,239.8629l-3.2366-1.5568V831.6193l3.2366,1.5569Z"/>
      <path id="Path-23" data-name="Path" class="cls-6" d="M616.7594,234.4123l3.2367-1.5568V827.348l-3.2367,1.5568Z"/>
      <path id="Path-24" data-name="Path" class="cls-7" d="M452.7672,234.4123l-3.2367-1.5568V826.1687l3.2367,1.5569Z"/>
      <path id="Path-25" data-name="Path" class="cls-5" d="M557.42,865.8786l-3.2367-1.5569V271.0085l3.2367-1.5579Z"/>
      <path id="Path-26" data-name="Path" class="cls-4" d="M513.1854,865.8786l3.2367-1.5569V271.0085l-3.2367-1.5579Z"/>
      <path id="Path-27" data-name="Path" class="cls-5" d="M566.0513,860.428l-3.2367-1.5569V265.5579L566.0513,264Z"/>
      <path id="Path-28" data-name="Path" class="cls-4" d="M503.4753,860.428l3.2367-1.5569V265.5579L503.4753,264Z"/>
      <path id="Path-29" data-name="Path" class="cls-5" d="M575.7614,854.9775l-3.2367-1.5569V260.1073l3.2367-1.5568Z"/>
      <path id="Path-30" data-name="Path" class="cls-4" d="M494.8441,854.9775l3.2367-1.5569V260.1073l-3.2367-1.5568Z"/>
      <path id="Path-31" data-name="Path" class="cls-5" d="M585.4714,849.5279l-3.2366-1.5579V254.6567l3.2366-1.5568Z"/>
      <path id="Path-32" data-name="Path" class="cls-4" d="M485.1341,849.5279l3.2367-1.5579V254.6567L485.1341,253.1Z"/>
      <path id="Path-33" data-name="Path" class="cls-5" d="M595.1815,844.0773l-3.2367-1.5579V249.2061l3.2367-1.5568Z"/>
      <path id="Path-34" data-name="Path" class="cls-4" d="M475.424,844.0773l3.2367-1.5579V249.2061l-3.2367-1.5568Z"/>
      <path id="Path-35" data-name="Path" class="cls-5" d="M603.8127,838.6268,600.576,837.07V243.7556l3.2367-1.5569Z"/>
      <path id="Path-36" data-name="Path" class="cls-4" d="M465.7139,838.6268l3.2367-1.5569V243.7556l-3.2367-1.5569Z"/>
      <path id="Path-37" data-name="Path" class="cls-5" d="M613.5228,833.1762l-3.2367-1.5569V238.3061l3.2367-1.558Z"/>
      <path id="Path-38" data-name="Path" class="cls-4" d="M457.0828,833.1762l3.2366-1.5569V238.3061l-3.2366-1.558Z"/>
      <path id="Path-39" data-name="Path" class="cls-5" d="M623.2328,827.7256l-3.2367-1.5569V232.8555l3.2367-1.558Z"/>
      <path id="Path-40" data-name="Path" class="cls-4" d="M447.3727,827.7256l3.2367-1.5569V232.8555l-3.2367-1.558Z"/>
      <path id="Path-41" data-name="Path" class="cls-8" d="M552.0257,868.9934l5.3944-3.1148-2.6972-1.5569-2.6972,1.5569Z"/>
      <path id="Path-42" data-name="Path" class="cls-8" d="M519.6588,868.9934l-5.3945-3.1148,2.6972-1.5569,2.6973,1.5569Z"/>
      <path id="Path-43" data-name="Path" class="cls-8" d="M560.6568,863.5428l5.3945-3.1148-2.6972-1.5569-2.6973,1.5569Z"/>
      <path id="Path-44" data-name="Path" class="cls-8" d="M509.9487,863.5428l-5.3945-3.1148,2.6972-1.5569,2.6973,1.5569Z"/>
      <path id="Path-45" data-name="Path" class="cls-8" d="M570.3669,858.0922l5.3945-3.1147-2.6973-1.5569-2.6972,1.5569Z"/>
      <path id="Path-46" data-name="Path" class="cls-8" d="M500.2386,858.0922l-5.3945-3.1147,2.6973-1.5569,2.6972,1.5569Z"/>
      <path id="Path-47" data-name="Path" class="cls-8" d="M580.077,852.6416l5.3944-3.1137-2.6972-1.5579-2.6972,1.5579Z"/>
      <path id="Path-48" data-name="Path" class="cls-8" d="M490.5286,852.6416l-5.3945-3.1137,2.6972-1.5579,2.6973,1.5579Z"/>
      <path id="Path-49" data-name="Path" class="cls-8" d="M589.787,847.1921l5.3945-3.1148-2.6972-1.5579-2.6973,1.5579Z"/>
      <path id="Path-50" data-name="Path" class="cls-8" d="M481.8974,847.1921l-5.3945-3.1148,2.6972-1.5579,2.6973,1.5579Z"/>
      <path id="Path-51" data-name="Path" class="cls-8" d="M598.4182,841.7416l5.3945-3.1148-2.6973-1.5569-2.6972,1.5569Z"/>
      <path id="Path-52" data-name="Path" class="cls-8" d="M472.1873,841.7416l-5.3945-3.1148L469.49,837.07l2.6972,1.5569Z"/>
      <path id="Path-53" data-name="Path" class="cls-8" d="M608.1283,836.291l5.3945-3.1148-2.6973-1.5569-2.6972,1.5569Z"/>
      <path id="Path-54" data-name="Path" class="cls-8" d="M462.4772,836.291l-5.3944-3.1148,2.6972-1.5569,2.6972,1.5569Z"/>
      <path id="Path-55" data-name="Path" class="cls-8" d="M617.8383,830.84l5.3945-3.1148-2.6972-1.5569-2.6973,1.5569Z"/>
      <path id="Path-56" data-name="Path" class="cls-8" d="M452.7672,830.84l-5.3945-3.1148,2.6972-1.5569,2.6973,1.5569Z"/>
      <path id="Path-57" data-name="Path" class="cls-5" d="M444.136,208.7184v12.458l10.789-6.23Z"/>
      <path id="Path-58" data-name="Path" class="cls-4" d="M465.7139,214.9469v6.23l-5.3945,3.1137-5.3944-3.1137Z"/>
      <path id="Path-59" data-name="Path" class="cls-5" d="M605.9705,214.9469v6.23l5.3945,3.1137,5.3944-3.1137Z"/>
      <path id="Path-60" data-name="Path" class="cls-4" d="M454.925,208.7184,525.0532,168.23v6.2284l-64.7338,37.3741Z"/>
      <path id="Path-61" data-name="Path" class="cls-5" d="M616.7594,208.7184,546.6312,168.23v6.2284l64.7338,37.3741Z"/>
      <path id="Path-62" data-name="Path" class="cls-4" d="M535.8422,246.0924l43.1559-24.916V202.4888l-43.1559,24.9161Z"/>
      <path id="Path-63" data-name="Path" class="cls-5" d="M525.0532,168.23v6.2284l10.789,6.23v-6.23Z"/>
      <path id="Path-64" data-name="Path" class="cls-4" d="M546.6312,168.23v6.2284l-10.789,6.23v-6.23Z"/>
      <path id="Path-65" data-name="Path" class="cls-5" d="M492.6863,221.1764V202.4888l43.1559,24.9161v18.6875Z"/>
      <path id="Path-66" data-name="Path" class="cls-2" d="M492.1469,202.4888l43.1559-24.916,43.1558,24.916-43.1558,24.9161Z"/>
      <path id="Path-67" data-name="Path" class="cls-9" d="M535.8422,868.9934l10.789,6.2285v28.0308l-10.789-6.2285Z"/>
      <path id="Path-68" data-name="Path" class="cls-10" d="M628.6273,827.8494,546.6312,875.19v27.939l81.9961-47.3406Z"/>
      <path id="Path-69" data-name="Path" class="cls-9" d="M444.136,828.5045l80.9172,46.7174v28.0308L444.136,856.5354Z"/>
      <path id="Path-70" data-name="Path" class="cls-10" d="M535.8422,868.9934l-10.789,6.2285v28.0308l10.789-6.2285Z"/>
      <path id="Path-71" data-name="Path" class="cls-6" d="M550.9468,875.2219l3.2366-1.5569v21.8012l-3.2366,1.558Z"/>
      <path id="Path-72" data-name="Path" class="cls-7" d="M519.6588,875.2219l-3.2367-1.5569v21.8012l3.2367,1.558Z"/>
      <path id="Path-73" data-name="Path" class="cls-6" d="M570.3669,864.3217l3.2367-1.5579v21.8024l-3.2367,1.5568Z"/>
      <path id="Path-74" data-name="Path" class="cls-7" d="M500.2386,864.3217l-3.2367-1.5579v21.8024l3.2367,1.5568Z"/>
      <path id="Path-75" data-name="Path" class="cls-6" d="M588.7081,853.4206l3.2367-1.5569V873.665l-3.2367,1.5569Z"/>
      <path id="Path-76" data-name="Path" class="cls-7" d="M481.8974,853.4206l-3.2367-1.5569V873.665l3.2367,1.5569Z"/>
      <path id="Path-77" data-name="Path" class="cls-6" d="M608.1283,842.5205l3.2367-1.558v21.8013l-3.2367,1.5579Z"/>
      <path id="Path-78" data-name="Path" class="cls-7" d="M462.4772,842.5194l-3.2366-1.5569v21.4237l3.2366,1.5569Z"/>
      <path id="Path-79" data-name="Path" class="cls-6" d="M560.6568,869.7723l3.2367-1.5579v21.8013l-3.2367,1.5579Z"/>
      <path id="Path-80" data-name="Path" class="cls-7" d="M509.9487,869.7723l-3.2367-1.5579v21.8013l3.2367,1.5579Z"/>
      <path id="Path-81" data-name="Path" class="cls-6" d="M578.9981,858.8711l3.2367-1.5579v21.8024l-3.2367,1.5568Z"/>
      <path id="Path-82" data-name="Path" class="cls-7" d="M490.5286,858.8711l-3.2367-1.5568v21.8013l3.2367,1.5568Z"/>
      <path id="Path-83" data-name="Path" class="cls-6" d="M598.4182,847.97l3.2367-1.5569v21.8013l-3.2367,1.5579Z"/>
      <path id="Path-84" data-name="Path" class="cls-7" d="M472.1873,847.97l-3.2367-1.5569v21.8013l3.2367,1.5579Z"/>
      <path id="Path-85" data-name="Path" class="cls-6" d="M616.7594,837.07l3.2367-1.5579v21.8012l-3.2367,1.5579Z"/>
      <path id="Path-86" data-name="Path" class="cls-7" d="M452.7672,837.07l-3.2367-1.5579v21.8012l3.2367,1.5579Z"/>
      <path id="Path-87" data-name="Path" class="cls-9" d="M557.42,897.0242l-3.2367-1.558V873.665l3.2367-1.5568Z"/>
      <path id="Path-88" data-name="Path" class="cls-10" d="M513.1854,897.0242l3.2367-1.558V873.665l-3.2367-1.5568Z"/>
      <path id="Path-89" data-name="Path" class="cls-9" d="M575.7614,886.123l-3.2367-1.5568V862.7638l3.2367-1.5568Z"/>
      <path id="Path-90" data-name="Path" class="cls-10" d="M494.8441,886.123l3.2367-1.5568V862.7638l-3.2367-1.5568Z"/>
      <path id="Path-91" data-name="Path" class="cls-9" d="M595.1815,875.2219l-3.2367-1.5569V851.8637l3.2367-1.5579Z"/>
      <path id="Path-92" data-name="Path" class="cls-10" d="M475.424,875.2219l3.2367-1.5569V851.8637l-3.2367-1.5579Z"/>
      <path id="Path-93" data-name="Path" class="cls-9" d="M613.5228,864.3217l-3.2367-1.5579V840.9625l3.2367-1.5568Z"/>
      <path id="Path-94" data-name="Path" class="cls-10" d="M457.0828,864.3217l3.2366-1.5579V840.9625l-3.2366-1.5568Z"/>
      <path id="Path-95" data-name="Path" class="cls-9" d="M566.0513,891.5736l-3.2367-1.5579V868.2144l3.2367-1.5568Z"/>
      <path id="Path-96" data-name="Path" class="cls-10" d="M503.4753,891.5736l3.2367-1.5579V868.2144l-3.2367-1.5568Z"/>
      <path id="Path-97" data-name="Path" class="cls-9" d="M585.4714,880.6724l-3.2366-1.5568V857.3143l3.2366-1.5579Z"/>
      <path id="Path-98" data-name="Path" class="cls-10" d="M485.1341,880.6724l3.2367-1.5568V857.3143l-3.2367-1.5579Z"/>
      <path id="Path-99" data-name="Path" class="cls-9" d="M603.8127,869.7723l-3.2367-1.5579V846.4131l3.2367-1.5579Z"/>
      <path id="Path-100" data-name="Path" class="cls-10" d="M465.7139,869.7723l3.2367-1.5579V846.4131l-3.2367-1.5579Z"/>
      <path id="Path-101" data-name="Path" class="cls-9" d="M623.2328,858.8711l-3.2367-1.5579V835.512l3.2367-1.5569Z"/>
      <path id="Path-102" data-name="Path" class="cls-10" d="M447.3727,858.8711l3.2367-1.5579V835.512l-3.2367-1.5569Z"/>
      <path id="Path-103" data-name="Path" class="cls-8" d="M552.0257,900.1379l5.3944-3.1137-2.6972-1.558-2.6972,1.558Z"/>
      <path id="Path-104" data-name="Path" class="cls-8" d="M519.6588,900.1379l-5.3945-3.1137,2.6972-1.558,2.6973,1.558Z"/>
      <path id="Path-105" data-name="Path" class="cls-8" d="M570.3669,889.2378l5.3945-3.1148-2.6973-1.5568-2.6972,1.5568Z"/>
      <path id="Path-106" data-name="Path" class="cls-8" d="M500.2386,889.2378l-5.3945-3.1148,2.6973-1.5568,2.6972,1.5568Z"/>
      <path id="Path-107" data-name="Path" class="cls-8" d="M589.787,878.3367l5.3945-3.1148-2.6972-1.5569-2.6973,1.5569Z"/>
      <path id="Path-108" data-name="Path" class="cls-8" d="M481.8974,878.3367l-5.3945-3.1148L479.2,873.665l2.6973,1.5569Z"/>
      <path id="Path-109" data-name="Path" class="cls-8" d="M608.1283,867.4355l5.3945-3.1138-2.6973-1.5579-2.6972,1.5579Z"/>
      <path id="Path-110" data-name="Path" class="cls-8" d="M462.4772,867.4355l-5.3944-3.1138,2.6972-1.5579,2.6972,1.5579Z"/>
      <path id="Path-111" data-name="Path" class="cls-8" d="M560.6568,894.6884l5.3945-3.1148-2.6972-1.5579-2.6973,1.5579Z"/>
      <path id="Path-112" data-name="Path" class="cls-8" d="M509.9487,894.6884l-5.3945-3.1148,2.6972-1.5579,2.6973,1.5579Z"/>
      <path id="Path-113" data-name="Path" class="cls-8" d="M580.077,883.7872l5.3944-3.1148-2.6972-1.5568-2.6972,1.5568Z"/>
      <path id="Path-114" data-name="Path" class="cls-8" d="M490.5286,883.7872l-5.3945-3.1148,2.6972-1.5568,2.6973,1.5568Z"/>
      <path id="Path-115" data-name="Path" class="cls-8" d="M598.4182,872.8861l5.3945-3.1138-2.6973-1.5579-2.6972,1.5579Z"/>
      <path id="Path-116" data-name="Path" class="cls-8" d="M472.1873,872.8861l-5.3945-3.1138,2.6973-1.5579,2.6972,1.5579Z"/>
      <path id="Path-117" data-name="Path" class="cls-8" d="M617.8383,861.9859l5.3945-3.1148-2.6972-1.5568-2.6973,1.5568Z"/>
      <path id="Path-118" data-name="Path" class="cls-8" d="M452.7672,861.9859l-5.3945-3.1148,2.6972-1.5568,2.6973,1.5568Z"/>
      <path id="Path-119" data-name="Path" class="cls-6" d="M538,247.6493l51.2476-29.5877,16.1834,9.3433-51.2476,29.5876Z"/>
      <path id="Path-120" data-name="Path" class="cls-7" d="M554.1834,246.6707h0a8.9477,8.9477,0,0,1,8.0918,0h0c2.2334,1.2893,2.2334,3.3824,0,4.6717h0a8.9483,8.9483,0,0,1-8.0918,0h0C551.95,250.0531,551.95,247.96,554.1834,246.6707Z"/>
      <path id="Path-121" data-name="Path" class="cls-7" d="M569.0183,238.1054h0a8.9475,8.9475,0,0,1,8.0917,0h0c2.2334,1.2893,2.2334,3.3823,0,4.6716h0a8.9475,8.9475,0,0,1-8.0917,0h0C566.785,241.4877,566.785,239.3947,569.0183,238.1054Z"/>
      <path id="Path-122" data-name="Path" class="cls-7" d="M583.8531,229.54h0a8.9543,8.9543,0,0,1,8.0917,0h0c2.2334,1.2893,2.2334,3.3834,0,4.6727h0a8.9543,8.9543,0,0,1-8.0917,0h0C581.62,232.9234,581.62,230.8293,583.8531,229.54Z"/>
      <path id="Path-123" data-name="Path" class="cls-6" d="M532.6055,247.6493l-51.2476-29.5877-16.1834,9.3433,51.2476,29.5876Z"/>
      <path id="Path-124" data-name="Path" class="cls-4" d="M589.787,224.29v-6.2285l-51.2476,29.5877,5.3945,3.1148Z"/>
      <path id="Path-125" data-name="Path" class="cls-5" d="M481.8974,224.29v-6.2285l51.2476,29.5877-5.3945,3.1148Z"/>
      <path id="Path-126" data-name="Path" class="cls-5" d="M589.787,224.29l10.789,6.23,5.3945-3.1147-16.1835-9.3433Z"/>
      <path id="Path-127" data-name="Path" class="cls-4" d="M481.8974,224.29l-10.789,6.23-5.3945-3.1147,16.1835-9.3433Z"/>
      <path id="Path-128" data-name="Path" class="cls-7" d="M516.7479,246.8585h0a8.9475,8.9475,0,0,0-8.0917,0h0c-2.2322,1.2893-2.2322,3.3823,0,4.6716h0a8.9475,8.9475,0,0,0,8.0917,0h0C518.9813,250.2408,518.9813,248.1478,516.7479,246.8585Z"/>
      <path id="Path-129" data-name="Path" class="cls-7" d="M501.9131,238.2942h0a8.9477,8.9477,0,0,0-8.0918,0h0c-2.2322,1.2882-2.2322,3.3823,0,4.6716h0a8.9477,8.9477,0,0,0,8.0918,0h0C504.1465,241.6765,504.1465,239.5824,501.9131,238.2942Z"/>
      <path id="Path-130" data-name="Path" class="cls-7" d="M487.0782,229.7288h0a8.9475,8.9475,0,0,0-8.0917,0h0c-2.2322,1.2893-2.2322,3.3824,0,4.6717h0a8.9481,8.9481,0,0,0,8.0917,0h0C489.3116,233.1112,489.3116,231.0181,487.0782,229.7288Z"/>
      <path id="Path-131" data-name="Path" class="cls-3" d="M497.5414,202.4888l37.7614-21.8012,37.7613,21.8012L535.3028,224.29Z"/>
      <path id="Path-132" data-name="Path" class="cls-11" d="M419.3214,856.1566v3.1148L538,927.79v-3.1137Z"/>
      <path id="Path-133" data-name="Path" class="cls-12" d="M656.6786,856.1566v3.1148L538,927.79v-3.1137Z"/>
    </g>
  </g>
</svg>
