<svg id="Layer_1" data-name="Layer 1" xmlns="http://www.w3.org/2000/svg" viewBox="0 0 1062 1062">
  <defs>
    <style>
      .cls-1 {
        fill: #e8e8e8;
      }

      .cls-2 {
        fill: #a2a2a2;
      }

      .cls-3 {
        fill: #112539;
      }

      .cls-4 {
        fill: #d1d1d1;
      }

      .cls-5 {
        fill: #c4e0fd;
      }

      .cls-6 {
        fill: #2e5680;
      }

      .cls-7 {
        fill: #1d3753;
      }

      .cls-10, .cls-8 {
        fill: #fff;
      }

      .cls-9 {
        fill: #4874a4;
      }

      .cls-10 {
        stroke: #000;
        stroke-linecap: square;
        stroke-miterlimit: 3;
      }

      .cls-11 {
        fill: none;
      }

      .cls-12 {
        fill: #9bbfe6;
      }
    </style>
  </defs>
  <title>1Artboard 87</title>
  <g>
    <path class="cls-1" d="M531,969.1579l145-83.716-145-83.716-145,83.716Z"/>
    <path class="cls-2" d="M386,891.2159v-5.774l145,83.716v5.774Z"/>
    <path class="cls-3" d="M441,865.2349V339.8459l-25-14.434v525.389Z"/>
    <path class="cls-1" d="M596,290.7709l25-14.433,25,14.433-25,14.434Z"/>
    <path class="cls-4" d="M621,305.2049v-17.32l25-14.434v17.32Z"/>
    <path class="cls-2" d="M621,305.2049v-17.32l-25-14.434v17.32Z"/>
    <path class="cls-1" d="M626,296.5449v-5.774l15-8.66v5.774Z"/>
    <path class="cls-1" d="M601,287.8849v-5.774l15,8.66v5.774Z"/>
    <path class="cls-1" d="M621,287.8849v-5.774l15-8.66h10Z"/>
    <path class="cls-1" d="M621,282.1109l-15-8.66H596l25,14.434Z"/>
    <path class="cls-1" d="M621,259.0169v5.774l-15,8.66H596Z"/>
    <path class="cls-1" d="M646,273.4509l-25-14.434v5.774l15,8.66Z"/>
    <path class="cls-2" d="M641,287.8849l-5-2.887,5-2.887Z"/>
    <path class="cls-4" d="M601,287.8849l5-2.887-5-2.887Z"/>
    <path class="cls-2" d="M621,276.3379l5,2.886,10-5.773-15-8.66Z"/>
    <path class="cls-4" d="M616,279.2239l5-2.886v-11.547l-15,8.66Z"/>
    <path class="cls-5" d="M466,238.81l-20-11.5471,20-11.547,20,11.547Z"/>
    <path class="cls-6" d="M596,267.6769V238.81l20-11.547V256.13Z"/>
    <path class="cls-7" d="M466,267.6769V238.81l-20-11.5471V256.13Z"/>
    <path class="cls-8" d="M596,267.6769V238.81l-20-11.547V256.13Z"/>
    <path class="cls-5" d="M596,238.81l20-11.547-20-11.547Z"/>
    <path class="cls-8" d="M601,339.8459v-23.094l-20-11.547v23.094Z"/>
    <path class="cls-6" d="M596,313.8649v-51.961l20-11.547v51.961Z"/>
    <path class="cls-1" d="M416,290.7709l25-14.433,25,14.433-25,14.434Z"/>
    <path class="cls-6" d="M466,313.8649v-51.961l20-11.547v51.961Z"/>
    <path class="cls-9" d="M466,279.2239l20-11.547v-17.32l-20,11.547Z"/>
    <path class="cls-9" d="M466,313.8649l20-11.547v-17.32l-20,11.547Z"/>
    <path class="cls-7" d="M496,342.7329v-57.735l-25-14.434v57.735Z"/>
    <path class="cls-3" d="M491,351.3929l-20-11.547v-17.32l20,11.547Z"/>
    <path class="cls-4" d="M441,305.2049v-17.32l25-14.434v17.32Z"/>
    <path class="cls-2" d="M441,305.2049v-17.32l-25-14.434v17.32Z"/>
    <path class="cls-1" d="M421,287.8849v-5.774l15,8.66v5.774Z"/>
    <path class="cls-1" d="M441,287.8849v-5.774l15-8.66h10Z"/>
    <path class="cls-1" d="M441,282.1109l-15-8.66H416l25,14.434Z"/>
    <path class="cls-1" d="M441,259.0169v5.774l-15,8.66H416Z"/>
    <path class="cls-1" d="M466,273.4509l-25-14.434v5.774l15,8.66Z"/>
    <path class="cls-10" d="M461,287.8849l-5-2.887,5-2.887Z"/>
    <path class="cls-4" d="M421,287.8849l5-2.887-5-2.887Z"/>
    <path class="cls-2" d="M441,276.3379l5,2.886,10-5.773-15-8.66Z"/>
    <path class="cls-4" d="M436,279.2239l5-2.886v-11.547l-15,8.66Z"/>
    <path class="cls-7" d="M596,313.8649v-51.961l-20-11.547v51.961Z"/>
    <path class="cls-7" d="M466,313.8649v-51.961l-20-11.547v51.961Z"/>
    <path class="cls-6" d="M566,342.7329v-57.735l25-14.434v57.735Z"/>
    <path class="cls-5" d="M501,287.8849l-30-17.321,15-8.66,30,17.32Z"/>
    <path class="cls-7" d="M511,339.8459v-51.961l-20-11.547v51.961Z"/>
    <path class="cls-6" d="M576,250.3569v-34.641l20-11.547V238.81Z"/>
    <path class="cls-7" d="M576,250.3569v-34.641l-20-11.547V238.81Z"/>
    <path class="cls-6" d="M551,276.3379v-34.641l25-14.434v34.641Z"/>
    <path class="cls-6" d="M511,345.62V287.885l20-11.547v57.735Z"/>
    <path class="cls-1" d="M571,432.2219l5,2.887,25-14.434-5-2.887Z"/>
    <path class="cls-5" d="M561,287.8849l30-17.321-15-8.66-30,17.32Z"/>
    <path class="cls-8" d="M511,218.6029v-34.641l20-11.547v34.641Z"/>
    <path class="cls-6" d="M551,339.8459v-51.961l20-11.547v51.961Z"/>
    <path class="cls-9" d="M551,339.8459l20-11.547v-17.32l-20,11.547Z"/>
    <path class="cls-9" d="M571,334.0729l20-11.547v-17.321l-20,11.547Z"/>
    <path class="cls-6" d="M551,218.6029v-34.641l10-5.774v34.641Z"/>
    <path class="cls-6" d="M486,250.3569v-34.641l20-11.547V238.81Z"/>
    <path class="cls-7" d="M511,276.3379v-34.641l-25-14.434v34.641Z"/>
    <path class="cls-8" d="M551,218.6029v-34.641l-20-11.547v34.641Z"/>
    <path class="cls-7" d="M511,218.6029v-34.641l-10-5.774v34.641Z"/>
    <path class="cls-7" d="M551,345.62V287.885l-20-11.547v57.735Z"/>
    <path class="cls-7" d="M486,250.3569v-34.641l-20-11.547V238.81Z"/>
    <path class="cls-5" d="M486,215.7159l20-11.547-20-11.547-20,11.547Z"/>
    <path class="cls-7" d="M521,235.9229v-34.641l-20-11.547v34.641Z"/>
    <path class="cls-6" d="M521,235.9229v-34.641l10-5.773V230.15Z"/>
    <path class="cls-5" d="M576,215.7159l20-11.547-20-11.547-20,11.547Z"/>
    <path class="cls-6" d="M531,195.5089v-34.641l20-11.547v34.641Z"/>
    <path class="cls-6" d="M541,235.9229v-34.641l20-11.547v34.641Z"/>
    <path class="cls-7" d="M531,195.5089v-34.641l-20-11.547v34.641Z"/>
    <path class="cls-7" d="M541,235.9229v-34.641l-10-5.773V230.15Z"/>
    <path class="cls-5" d="M551,241.6969l25-14.434-15-8.66-25,14.433Z"/>
    <path class="cls-5" d="M511,241.6969l-25-14.434,15-8.66,25,14.433Z"/>
    <path class="cls-6" d="M531,276.3379v-34.641L551,230.15v34.641Z"/>
    <path class="cls-7" d="M531,276.3379v-34.641L511,230.15v34.641Z"/>
    <path class="cls-6" d="M576,510.1649v-57.736l25-14.433v57.735Z"/>
    <path class="cls-5" d="M491,195.5089l10-5.774v11.547Z"/>
    <path class="cls-5" d="M561,201.2819l10-5.773-10-5.774Z"/>
    <path class="cls-6" d="M551,593.88V380.2609l25-14.434v213.62Z"/>
    <path class="cls-6" d="M601,565.0129v-213.62l20-11.547v213.62Z"/>
    <path class="cls-6" d="M561,772.8589V611.2009l20-11.547v161.658Z"/>
    <path class="cls-1" d="M556,590.9939l5,2.886,20-11.547-5-2.886Z"/>
    <path class="cls-1" d="M561,772.8589l5,2.887,20-11.547-5-2.887Z"/>
    <path class="cls-1" d="M606,746.8779l5,2.8871,20-11.547-5-2.8871Z"/>
    <path class="cls-5" d="M596,261.9039l20-11.547L596,238.81l-20,11.547Z"/>
    <path class="cls-1" d="M601,565.0129l5,2.887,20-11.547-5-2.887Z"/>
    <path class="cls-6" d="M556,377.3739v-34.641l20-11.547v34.641Z"/>
    <path class="cls-7" d="M506,377.3739v-34.641l-20-11.547v34.641Z"/>
    <path class="cls-6" d="M566,896.9889V793.0659l20-11.547v103.923Z"/>
    <path class="cls-6" d="M601,351.3929v-34.641l20-11.547v34.641Z"/>
    <path class="cls-7" d="M461,351.3929v-34.641l-20-11.547v34.641Z"/>
    <path class="cls-1" d="M576,510.1649l5,2.886,25-14.433-5-2.887Z"/>
    <path class="cls-1" d="M581,663.1619l5,2.8871,25-14.4341-5-2.886Z"/>
    <path class="cls-6" d="M621,339.8459v-34.641l25-14.434v34.641Z"/>
    <path class="cls-3" d="M441,339.8459v-34.641l-25-14.434v34.641Z"/>
    <path class="cls-6" d="M621,865.2349V339.8459l25-14.434v525.389Z"/>
    <path class="cls-6" d="M531,391.8079v-34.641l25-14.434v34.641Z"/>
    <path class="cls-3" d="M531,391.8079v-34.641l-25-14.434v34.641Z"/>
    <path class="cls-6" d="M531,917.1959V391.8079l25-14.434v525.389Z"/>
    <path class="cls-6" d="M606,746.8779V567.9l20-11.547V735.331Z"/>
    <path class="cls-1" d="M606,746.8779l5,2.8871,20-11.547-5-2.8871Z"/>
    <path class="cls-7" d="M566,879.6689l-12.5-7.217v-86.603l12.5,7.217Z"/>
    <path class="cls-1" d="M581,663.1619l5,2.8871,25-14.4341-5-2.886Z"/>
    <path class="cls-9" d="M623.5,840.6969l20-11.547V811.83l-20,11.547Z"/>
    <path class="cls-7" d="M438.5,840.6969l-20-11.547V811.83l20,11.547Z"/>
    <path class="cls-9" d="M623.5,806.0569l20-11.547v-17.321l-20,11.547Z"/>
    <path class="cls-7" d="M438.5,806.0569l-20-11.547v-17.321l20,11.547Z"/>
    <path class="cls-9" d="M623.5,771.4149l20-11.547v-17.32l-20,11.547Z"/>
    <path class="cls-7" d="M438.5,771.4149l-20-11.547v-17.32l20,11.547Z"/>
    <path class="cls-6" d="M611,871.0079V767.0849l20-11.547v103.923Z"/>
    <path class="cls-6" d="M596,417.7879v-69.282l-20,11.547v69.282Z"/>
    <path class="cls-6" d="M581,663.1619v-132.79l25-14.4339V648.7289Z"/>
    <path class="cls-6" d="M586,885.4419V683.37l25-14.434V871.008Z"/>
    <path class="cls-7" d="M586,764.1989l-5-2.887v-80.829l5,2.887Z"/>
    <path class="cls-7" d="M561,611.2009l-5-2.887-1,174.937,5,2.887Z"/>
    <path class="cls-7" d="M581,582.3329l-5-2.886v-51.962l5,2.887Z"/>
    <line class="cls-11" x1="601" y1="420.6749" x2="596" y2="417.7879"/>
    <path class="cls-4" d="M601,334.0729l20-11.547v-17.321l-20,11.547Z"/>
    <path class="cls-4" d="M561,611.2009l20-11.547v-17.321L561,593.88Z"/>
    <path class="cls-4" d="M566,793.0659l20-11.547v-17.32l-20,11.547Z"/>
    <path class="cls-4" d="M611,767.0849l20-11.547v-17.32l-20,11.547Z"/>
    <path class="cls-1" d="M566,596.7669l10-5.773v5.773l-10,5.774Z"/>
    <path class="cls-1" d="M571,778.6319l10-5.773v5.773l-10,5.774Z"/>
    <path class="cls-1" d="M616,752.6519l10-5.774v5.774l-10,5.773Z"/>
    <path class="cls-2" d="M576,596.7669l-5-2.887,5-2.886Z"/>
    <path class="cls-2" d="M581,778.6319l-5-2.886,5-2.887Z"/>
    <path class="cls-2" d="M626,752.6519l-5-2.887,5-2.887Z"/>
    <path class="cls-12" d="M551,235.9229l15-8.66-5-2.887L551,230.15Z"/>
    <path class="cls-12" d="M511,235.9229l-15-8.66,5-2.887,10,5.774Z"/>
    <path class="cls-12" d="M491,276.3379l-10-5.774,5-2.887,10,5.774Z"/>
    <path class="cls-12" d="M466,233.0359l-10-5.773,10-5.774Z"/>
    <path class="cls-2" d="M581,530.3719v-17.321l-5-2.886v17.32Z"/>
    <path class="cls-12" d="M596,233.0359l10-5.773-10-5.774Z"/>
    <path class="cls-2" d="M561,611.2009V593.88l-5-2.886v17.32Z"/>
    <path class="cls-2" d="M566,793.0659v-17.32l-11-6.351,1,17.898Z"/>
    <path class="cls-7" d="M601,345.62V334.073l-5-2.887v11.547Z"/>
    <path class="cls-7" d="M461,345.62V334.073l5-2.887v11.547Z"/>
    <path class="cls-12" d="M571,276.3379l10-5.774-5-2.887-10,5.774Z"/>
    <path class="cls-5" d="M551,287.8849l20-11.547-20-11.547-20,11.547Z"/>
    <path class="cls-12" d="M486,209.9419l10-5.773-10-5.774-10,5.774Z"/>
    <path class="cls-4" d="M531,911.4229l25-14.434V940.29l-25,14.434Z"/>
    <path class="cls-4" d="M566,896.9889l20-11.547V922.97l-20,11.547Z"/>
    <path class="cls-5" d="M466,261.9039l20-11.547L466,238.81l-20,11.547Z"/>
    <path class="cls-4" d="M611,871.0079l20-11.547v37.528l-20,11.547Z"/>
    <path class="cls-4" d="M586,885.4419l25-14.434v37.528L586,922.97Z"/>
    <path class="cls-4" d="M631,853.6879l15-8.66v43.301l-15,8.66Z"/>
    <path class="cls-2" d="M566,896.9889l-10-5.773v-20.208l10,5.774Z"/>
    <path class="cls-2" d="M566,934.5169l-10-5.774v-37.527l10,5.7731Z"/>
    <path class="cls-2" d="M596,348.5059v-17.32l5,2.887v17.32Z"/>
    <path class="cls-4" d="M466,348.5059v-17.32l-5,2.887v17.32Z"/>
    <path class="cls-2" d="M596,417.7879v-69.282l5,2.887v69.282Z"/>
    <path class="cls-12" d="M576,209.9419l10-5.773-10-5.774-10,5.774Z"/>
    <path class="cls-2" d="M576,527.4849l5,2.887v51.961l-5-2.886Z"/>
    <path class="cls-2" d="M561,790.1789v83.716l5,2.887v-83.716Z"/>
    <path class="cls-2" d="M556,608.3139l5,2.887v178.978l-5-2.886Z"/>
    <path class="cls-6" d="M571,905.6489l10-5.773v25.981l-10,5.773Z"/>
    <path class="cls-6" d="M616,879.6689l10-5.774v25.981l-10,5.773Z"/>
    <path class="cls-6" d="M631,873.8949l7.5-4.33v20.207l-7.5,4.33Z"/>
    <path class="cls-6" d="M538.5,927.3l10-5.773v20.207l-10,5.773Z"/>
    <path class="cls-6" d="M591,886.8859l15-8.661v33.198l-15,8.66Z"/>
    <path class="cls-2" d="M578.5,924.4129l2.5,1.444v-25.981l-2.5,1.4429Z"/>
    <path class="cls-2" d="M623.5,898.4329l2.5,1.443v-25.981l-2.5,1.444Z"/>
    <path class="cls-2" d="M636,888.3289l2.5,1.443v-20.207l-2.5,1.443Z"/>
    <path class="cls-2" d="M546,940.29l2.5,1.4439V921.527L546,922.97Z"/>
    <path class="cls-2" d="M603.5,909.98l2.5,1.443V878.225l-2.5,1.4439Z"/>
    <path class="cls-1" d="M571,931.63l10-5.773-2.5-1.444-7.5,4.33Z"/>
    <path class="cls-1" d="M616,905.6489l10-5.773-2.5-1.443-7.5,4.33Z"/>
    <path class="cls-1" d="M631,894.1019l7.5-4.33-2.5-1.443-5,2.887Z"/>
    <path class="cls-1" d="M538.5,947.5069l10-5.773L546,940.29l-7.5,4.331Z"/>
    <path class="cls-1" d="M591,917.1959l12.5-7.216,2.5,1.443-15,8.66Z"/>
    <path class="cls-2" d="M586,885.4419l1.25-.722v37.528l-1.25.722Z"/>
    <path class="cls-2" d="M611,871.0079l1.25-.721v37.528l-1.25.721Z"/>
    <path class="cls-2" d="M631,853.6879l1.25-.722v5.774l-1.25.721Z"/>
    <path class="cls-2" d="M631,859.4609l1.25-.721v37.528l-1.25.721Z"/>
    <path class="cls-8" d="M603.5,902.7629v-23.094l1.25-.722v24.537Z"/>
    <path class="cls-8" d="M623.5,898.4329v-23.094l1.25-.722v24.537Z"/>
    <path class="cls-8" d="M578.5,924.4129v-23.094l1.25-.721v24.537Z"/>
    <path class="cls-8" d="M546,940.29V922.97l1.25-.722v18.764Z"/>
    <path class="cls-8" d="M636,888.3289v-17.321l1.25-.721v18.764Z"/>
    <path class="cls-8" d="M604.75,903.4839,591,911.4229V909.98l12.5-7.217Z"/>
    <path class="cls-1" d="M602.25,880.39l1.25-.721v23.094l-1.25-.722Z"/>
    <path class="cls-1" d="M622.25,876.06l1.25-.721v23.094l-1.25-.722Z"/>
    <path class="cls-1" d="M577.25,902.0409l1.25-.722v23.094l-1.25-.721Z"/>
    <path class="cls-1" d="M544.75,923.6919l1.25-.722v17.32l-1.25-.721Z"/>
    <path class="cls-1" d="M634.75,871.73l1.25-.722v17.321l-1.25-.722Z"/>
    <path class="cls-1" d="M598.5,882.5549l1.25-.721v23.094l-1.25-.722Z"/>
    <path class="cls-1" d="M594.75,884.72l1.25-.721v23.094l-1.25-.722Z"/>
    <path class="cls-1" d="M591,886.8859l1.25-.722v23.094l-1.25-.722Z"/>
    <path class="cls-1" d="M591,908.5359l11.25-6.495,1.25.722L591,909.98Z"/>
    <path class="cls-1" d="M591,902.7629l11.25-6.495,1.25.721-12.5,7.217Z"/>
    <path class="cls-1" d="M591,896.9889l11.25-6.495,1.25.722-12.5,7.217Z"/>
    <path class="cls-1" d="M591,891.2159l11.25-6.496,1.25.722-12.5,7.217Z"/>
    <path class="cls-8" d="M601,881.1119v24.537l-1.25.7219V881.8339Z"/>
    <path class="cls-8" d="M596,907.0929v-23.094l1.25-.722v24.538Z"/>
    <path class="cls-8" d="M593.5,885.4419V909.98l-1.25.721V886.164Z"/>
    <path class="cls-8" d="M591,888.3289l13.75-7.939v-1.443L591,886.8859Z"/>
    <path class="cls-8" d="M591,894.1019l13.75-7.938V884.72L591,892.6589Z"/>
    <path class="cls-8" d="M591,905.6489l13.75-7.938V896.267L591,904.2059Z"/>
    <path class="cls-8" d="M591,899.8759l13.75-7.939v-1.443L591,898.4329Z"/>
    <path class="cls-1" d="M622.25,897.7109,616,901.3188v1.444l7.5-4.33Z"/>
    <path class="cls-1" d="M577.25,923.6919,571,927.3v1.443l7.5-4.33Z"/>
    <path class="cls-1" d="M544.75,939.5689l-6.25,3.608v1.4439L546,940.29Z"/>
    <path class="cls-1" d="M634.75,887.6069l-2.5,1.4439v1.443l3.75-2.1649Z"/>
    <path class="cls-1" d="M544.75,933.7949l-6.25,3.609v1.443l7.5-4.33Z"/>
    <path class="cls-1" d="M634.75,881.8339l-2.5,1.443v1.444l3.75-2.166Z"/>
    <path class="cls-1" d="M544.75,928.0219l-6.25,3.608v1.444l7.5-4.331Z"/>
    <path class="cls-12" d="M596,256.13l10-5.773-10-5.774-10,5.774Z"/>
    <path class="cls-1" d="M634.75,876.06l-2.5,1.444v1.443l3.75-2.165Z"/>
    <path class="cls-1" d="M622.25,891.9369l-6.25,3.609v1.443l7.5-4.33Z"/>
    <path class="cls-1" d="M577.25,917.9179l-6.25,3.609v1.443l7.5-4.33Z"/>
    <path class="cls-1" d="M622.25,886.1639l-6.25,3.608v1.4439l7.5-4.33Z"/>
    <path class="cls-1" d="M577.25,912.1449l-6.25,3.608v1.443l7.5-4.33Z"/>
    <path class="cls-1" d="M617.875,878.5859l1.25-.722v23.094l-1.25-.721Z"/>
    <path class="cls-1" d="M572.875,904.9279l1.25-.722V927.3l-1.25-.722Z"/>
    <path class="cls-1" d="M622.25,880.39,616,883.999v1.443l7.5-4.33Z"/>
    <path class="cls-8" d="M541,943.1769v-17.32l1.25-.722v18.764Z"/>
    <path class="cls-1" d="M577.25,906.3709,571,909.98v1.443l7.5-4.33Z"/>
    <path class="cls-8" d="M616,904.2059l8.75-5.052-1.25-.721-7.5,4.33Z"/>
    <path class="cls-8" d="M571,930.1869l8.75-5.052-1.25-.722-7.5,4.33Z"/>
    <path class="cls-8" d="M538.5,946.0639l8.75-5.052L546,940.29l-7.5,4.331Z"/>
    <path class="cls-8" d="M632.25,891.9369l5-2.886-1.25-.722-3.75,2.165Z"/>
    <path class="cls-8" d="M538.5,940.29l8.75-5.051-1.25-.722-7.5,4.33Z"/>
    <path class="cls-8" d="M632.25,886.1639l5-2.887-1.25-.722-3.75,2.166Z"/>
    <path class="cls-8" d="M538.5,934.5169l8.75-5.052-1.25-.722-7.5,4.331Z"/>
    <path class="cls-8" d="M632.25,880.39l5-2.886-1.25-.722-3.75,2.165Z"/>
    <path class="cls-8" d="M538.5,928.7429l8.75-5.051L546,922.97l-7.5,4.33Z"/>
    <path class="cls-8" d="M632.25,874.6169l5-2.887-1.25-.722-3.75,2.166Z"/>
    <path class="cls-8" d="M616,898.4329l8.75-5.052-1.25-.722-7.5,4.33Z"/>
    <path class="cls-1" d="M539.75,926.5779l1.25-.721v17.32l-1.25-.721Z"/>
    <path class="cls-8" d="M571,924.4129l8.75-5.051-1.25-.722-7.5,4.33Z"/>
    <path class="cls-8" d="M616,892.6589l8.75-5.052-1.25-.721-7.5,4.33Z"/>
    <path class="cls-8" d="M571,918.64l8.75-5.052-1.25-.722-7.5,4.33Z"/>
    <path class="cls-8" d="M616,886.8859l8.75-5.052-1.25-.722-7.5,4.33Z"/>
    <path class="cls-8" d="M571,912.8659l8.75-5.052-1.25-.721-7.5,4.33Z"/>
    <path class="cls-8" d="M616,881.1119l8.75-5.052-1.25-.722-7.5,4.331Z"/>
    <path class="cls-8" d="M571,907.0929l8.75-5.052-1.25-.722-7.5,4.33Z"/>
    <path class="cls-8" d="M620.375,877.1429V901.68l-1.25.722V877.864Z"/>
    <path class="cls-8" d="M575.375,903.4839v23.538l-1.25.721v-23.537Z"/>
    <path class="cls-1" d="M491,432.2219l-5,2.887-25-14.434,5-2.887Z"/>
    <path class="cls-3" d="M486,510.1649v-57.736l-25-14.433v57.735Z"/>
    <path class="cls-3" d="M511,593.88V380.2609l-25-14.434v213.62Z"/>
    <path class="cls-3" d="M461,565.0129v-213.62l-20-11.547v213.62Z"/>
    <path class="cls-3" d="M501,772.8589V611.2009l-20-11.547v161.658Z"/>
    <path class="cls-1" d="M506,590.9939l-5,2.886-20-11.547,5-2.886Z"/>
    <path class="cls-1" d="M501,772.8589l-5,2.887-20-11.547,5-2.887Z"/>
    <path class="cls-1" d="M456,746.8779l-5,2.8871-20-11.547,5-2.8871Z"/>
    <path class="cls-1" d="M461,565.0129,456,567.9l-20-11.547,5-2.887Z"/>
    <path class="cls-3" d="M496,896.9889V793.0659l-20-11.547v103.923Z"/>
    <path class="cls-1" d="M481,663.1619l-5,2.8871-25-14.4341,5-2.886Z"/>
    <path class="cls-2" d="M486,452.4289v-17.32l-25-14.434v17.321Z"/>
    <path class="cls-3" d="M531,917.1959V391.8079l-25-14.434v525.389Z"/>
    <path class="cls-3" d="M456,746.8779V567.9l-20-11.547V735.331Z"/>
    <path class="cls-1" d="M456,746.8779l-5,2.8871-20-11.547,5-2.8871Z"/>
    <path class="cls-7" d="M496,879.6689l12.5-7.217v-86.603l-12.5,7.217Z"/>
    <path class="cls-3" d="M451,871.0079V767.0849l-20-11.547v103.923Z"/>
    <path class="cls-3" d="M466,417.7879v-69.282l20,11.547v69.282Z"/>
    <path class="cls-3" d="M481,663.1619v-132.79L456,515.938V648.7289Z"/>
    <path class="cls-3" d="M476,885.4419V683.37l-25-14.434V871.008Z"/>
    <path class="cls-7" d="M476,764.1989l5-2.887v-80.829l-5,2.887Z"/>
    <path class="cls-7" d="M501,611.2009l5-2.887,1,174.937-5,2.887Z"/>
    <path class="cls-7" d="M481,582.3329l5-2.886v-51.962l-5,2.887Z"/>
    <path class="cls-1" d="M481,437.9959l-15-8.661v5.774l15,8.66Z"/>
    <path class="cls-2" d="M501,611.2009l-20-11.547v-17.321l20,11.547Z"/>
    <path class="cls-2" d="M496,793.0659l-20-11.547v-17.32l20,11.547Z"/>
    <path class="cls-2" d="M451,767.0849l-20-11.547v-17.32l20,11.547Z"/>
    <path class="cls-12" d="M551,282.1109l10-5.773-10-5.774-10,5.774Z"/>
    <path class="cls-1" d="M496,596.7669l-10-5.773v5.773l10,5.774Z"/>
    <path class="cls-1" d="M491,778.6319l-10-5.773v5.773l10,5.774Z"/>
    <path class="cls-1" d="M446,752.6519l-10-5.774v5.774l10,5.773Z"/>
    <path class="cls-4" d="M486,596.7669l5-2.887-5-2.886Z"/>
    <path class="cls-4" d="M481,778.6319l5-2.886-5-2.887Z"/>
    <path class="cls-4" d="M436,752.6519l5-2.887-5-2.887Z"/>
    <path class="cls-4" d="M466,435.1089l5-2.887-5-2.887Z"/>
    <path class="cls-4" d="M481,530.3719v-17.321l5-2.886v17.32Z"/>
    <path class="cls-4" d="M501,611.2009V593.88l5-2.886v17.32Z"/>
    <path class="cls-4" d="M496,793.0659v-17.32l12.5-7.217v17.32Z"/>
    <path class="cls-2" d="M531,911.4229l-25-14.434V940.29l25,14.434Z"/>
    <path class="cls-2" d="M496,896.9889l-20-11.547V922.97l20,11.547Z"/>
    <path class="cls-2" d="M451,871.0079l-20-11.547v37.528l20,11.547Z"/>
    <path class="cls-2" d="M476,885.4419l-25-14.434v37.528L476,922.97Z"/>
    <path class="cls-2" d="M431,850.8009l-15-8.66v46.188l15,8.66Z"/>
    <path class="cls-4" d="M496,896.9889l10-5.773v-20.208l-10,5.774Z"/>
    <path class="cls-4" d="M496,934.5169l10-5.774v-37.527l-10,5.7731Z"/>
    <path class="cls-4" d="M466,417.7879v-69.282l-5,2.887v69.282Z"/>
    <path class="cls-4" d="M486,527.4849l-5,2.887v51.961l5-2.886Z"/>
    <path class="cls-4" d="M501,790.1789v86.603l-5,2.887v-86.603Z"/>
    <path class="cls-4" d="M506,608.3139l-5,2.887v178.978l5-2.886Z"/>
    <path class="cls-6" d="M491,905.6489l-10-5.773v25.981l10,5.773Z"/>
    <path class="cls-6" d="M446,879.6689l-10-5.774v25.981l10,5.773Z"/>
    <path class="cls-6" d="M431,873.8949l-7.5-4.33v20.207l7.5,4.33Z"/>
    <path class="cls-6" d="M523.5,927.3l-10-5.773v20.207l10,5.773Z"/>
    <path class="cls-6" d="M471,886.8859l-15-8.661v33.198l15,8.66Z"/>
    <path class="cls-4" d="M483.5,924.4129l-2.5,1.444v-25.981l2.5,1.4429Z"/>
    <path class="cls-4" d="M438.5,898.4329l-2.5,1.443v-25.981l2.5,1.444Z"/>
    <path class="cls-4" d="M426,888.3289l-2.5,1.443v-20.207l2.5,1.443Z"/>
    <path class="cls-4" d="M516,940.29l-2.5,1.4439V921.527l2.5,1.443Z"/>
    <path class="cls-4" d="M458.5,909.98l-2.5,1.443V878.225l2.5,1.4439Z"/>
    <path class="cls-1" d="M491,931.63l-10-5.773,2.5-1.444,7.5,4.33Z"/>
    <path class="cls-1" d="M446,905.6489l-10-5.773,2.5-1.443,7.5,4.33Z"/>
    <path class="cls-1" d="M431,894.1019l-7.5-4.33,2.5-1.443,5,2.887Z"/>
    <path class="cls-1" d="M523.5,947.5069l-10-5.773,2.5-1.444,7.5,4.331Z"/>
    <path class="cls-1" d="M471,917.1959,458.5,909.98l-2.5,1.443,15,8.66Z"/>
    <path class="cls-12" d="M466,256.13l10-5.773-10-5.774-10,5.774Z"/>
    <path class="cls-4" d="M476,853.6879l-1.25-.722V884.72l1.25.722Z"/>
    <path class="cls-4" d="M451,871.0079l-1.25-.721v37.528l1.25.721Z"/>
    <path class="cls-4" d="M431,850.8009l-1.25-.722v8.661l1.25.721Z"/>
    <path class="cls-4" d="M431,859.4609l-1.25-.721v37.528l1.25.721Z"/>
    <path class="cls-8" d="M458.5,902.7629v-23.094l-1.25-.722v24.537Z"/>
    <path class="cls-8" d="M438.5,898.4329v-23.094l-1.25-.722v24.537Z"/>
    <path class="cls-8" d="M483.5,924.4129v-23.094l-1.25-.721v24.537Z"/>
    <path class="cls-8" d="M516,940.29V922.97l-1.25-.722v18.764Z"/>
    <path class="cls-8" d="M426,888.3289v-17.321l-1.25-.721v18.764Z"/>
    <path class="cls-8" d="M457.25,903.4839l13.75,7.939V909.98l-12.5-7.217Z"/>
    <path class="cls-1" d="M459.75,880.39l-1.25-.721v23.094l1.25-.722Z"/>
    <path class="cls-1" d="M439.75,876.06l-1.25-.721v23.094l1.25-.722Z"/>
    <path class="cls-1" d="M484.75,902.0409l-1.25-.722v23.094l1.25-.721Z"/>
    <path class="cls-1" d="M517.25,923.6919,516,922.97v17.32l1.25-.721Z"/>
    <path class="cls-1" d="M427.25,871.73l-1.25-.722v17.321l1.25-.722Z"/>
    <path class="cls-1" d="M463.5,882.5549l-1.25-.721v23.094l1.25-.722Z"/>
    <path class="cls-1" d="M467.25,884.72l-1.25-.721v23.094l1.25-.722Z"/>
    <path class="cls-1" d="M471,886.8859l-1.25-.722v23.094l1.25-.722Z"/>
    <path class="cls-1" d="M471,908.5359l-11.25-6.495-1.25.722L471,909.98Z"/>
    <path class="cls-1" d="M471,902.7629l-11.25-6.495-1.25.721,12.5,7.217Z"/>
    <path class="cls-1" d="M471,896.9889l-11.25-6.495-1.25.722,12.5,7.217Z"/>
    <path class="cls-1" d="M471,891.2159,459.75,884.72l-1.25.722,12.5,7.2169Z"/>
    <path class="cls-8" d="M461,881.1119v24.537l1.25.7219V881.8339Z"/>
    <path class="cls-8" d="M466,907.0929v-23.094l-1.25-.722v24.538Z"/>
    <path class="cls-8" d="M468.5,885.4419V909.98l1.25.721V886.164Z"/>
    <path class="cls-8" d="M471,888.3289,457.25,880.39v-1.443L471,886.8859Z"/>
    <path class="cls-8" d="M471,894.1019l-13.75-7.938V884.72L471,892.6589Z"/>
    <path class="cls-8" d="M471,905.6489l-13.75-7.938V896.267L471,904.2059Z"/>
    <path class="cls-8" d="M471,899.8759l-13.75-7.939v-1.443l13.75,7.939Z"/>
    <path class="cls-1" d="M439.75,897.7109l6.25,3.6079v1.444l-7.5-4.33Z"/>
    <path class="cls-1" d="M484.75,923.6919,491,927.3v1.443l-7.5-4.33Z"/>
    <path class="cls-1" d="M517.25,939.5689l6.25,3.608v1.4439L516,940.29Z"/>
    <path class="cls-1" d="M427.25,887.6069l2.5,1.4439v1.443L426,888.3289Z"/>
    <path class="cls-1" d="M517.25,933.7949l6.25,3.609v1.443l-7.5-4.33Z"/>
    <path class="cls-1" d="M427.25,881.8339l2.5,1.443v1.444l-3.75-2.166Z"/>
    <path class="cls-1" d="M517.25,928.0219l6.25,3.608v1.444l-7.5-4.331Z"/>
    <path class="cls-1" d="M427.25,876.06l2.5,1.444v1.443L426,876.7819Z"/>
    <path class="cls-1" d="M439.75,891.9369l6.25,3.609v1.443l-7.5-4.33Z"/>
    <path class="cls-1" d="M484.75,917.9179l6.25,3.609v1.443l-7.5-4.33Z"/>
    <path class="cls-1" d="M439.75,886.1639l6.25,3.608v1.4439l-7.5-4.33Z"/>
    <path class="cls-1" d="M484.75,912.1449l6.25,3.608v1.443l-7.5-4.33Z"/>
    <path class="cls-1" d="M444.125,878.5859l-1.25-.722v23.094l1.25-.721Z"/>
    <path class="cls-1" d="M489.125,904.9279l-1.25-.722V927.3l1.25-.722Z"/>
    <path class="cls-1" d="M439.75,880.39l6.25,3.609v1.443l-7.5-4.33Z"/>
    <path class="cls-8" d="M521,943.1769v-17.32l-1.25-.722v18.764Z"/>
    <path class="cls-1" d="M484.75,906.3709,491,909.98v1.443l-7.5-4.33Z"/>
    <path class="cls-8" d="M446,904.2059l-8.75-5.052,1.25-.721,7.5,4.33Z"/>
    <path class="cls-8" d="M491,930.1869l-8.75-5.052,1.25-.722,7.5,4.33Z"/>
    <path class="cls-8" d="M523.5,946.0639l-8.75-5.052,1.25-.722,7.5,4.331Z"/>
    <path class="cls-8" d="M429.75,891.9369l-5-2.886,1.25-.722,3.75,2.165Z"/>
    <path class="cls-8" d="M523.5,940.29l-8.75-5.051,1.25-.722,7.5,4.33Z"/>
    <path class="cls-8" d="M429.75,886.1639l-5-2.887,1.25-.722,3.75,2.166Z"/>
    <path class="cls-8" d="M523.5,934.5169l-8.75-5.052,1.25-.722,7.5,4.331Z"/>
    <path class="cls-8" d="M429.75,880.39l-5-2.886,1.25-.722,3.75,2.165Z"/>
    <path class="cls-8" d="M523.5,928.7429l-8.75-5.051,1.25-.722,7.5,4.33Z"/>
    <path class="cls-8" d="M429.75,874.6169l-5-2.887,1.25-.722,3.75,2.166Z"/>
    <path class="cls-8" d="M446,898.4329l-8.75-5.052,1.25-.722,7.5,4.33Z"/>
    <path class="cls-1" d="M522.25,926.5779l-1.25-.721v17.32l1.25-.721Z"/>
    <path class="cls-8" d="M491,924.4129l-8.75-5.051,1.25-.722,7.5,4.33Z"/>
    <path class="cls-8" d="M446,892.6589l-8.75-5.052,1.25-.721,7.5,4.33Z"/>
    <path class="cls-8" d="M491,918.64l-8.75-5.052,1.25-.722,7.5,4.33Z"/>
    <path class="cls-8" d="M446,886.8859l-8.75-5.052,1.25-.722,7.5,4.33Z"/>
    <path class="cls-8" d="M491,912.8659l-8.75-5.052,1.25-.721,7.5,4.33Z"/>
    <path class="cls-8" d="M446,881.1119l-8.75-5.052,1.25-.722,7.5,4.331Z"/>
    <path class="cls-8" d="M491,907.0929l-8.75-5.052,1.25-.722,7.5,4.33Z"/>
    <path class="cls-8" d="M441.625,877.1429V901.68l1.25.722V877.864Z"/>
    <path class="cls-8" d="M486.625,903.4839v23.538l1.25.721v-23.537Z"/>
    <path class="cls-5" d="M521,201.2819l10-5.773-20-11.547-10,5.773Z"/>
    <path class="cls-5" d="M541,201.2819l20-11.547-10-5.773-20,11.547Z"/>
    <path class="cls-12" d="M521,195.5089l-10-5.774,5-2.887,10,5.774Z"/>
    <path class="cls-12" d="M541,195.5089l10-5.774-5-2.887-10,5.774Z"/>
    <path class="cls-5" d="M531,160.8679l20-11.547-20-11.547-20,11.547Z"/>
    <path class="cls-12" d="M531,155.0939l10-5.773-10-5.774-10,5.774Z"/>
    <path class="cls-5" d="M551,183.9619l10-5.774-10-5.773Z"/>
    <path class="cls-5" d="M511,183.9619v-11.547l-10,5.773Z"/>
    <g>
      <ellipse class="cls-1" cx="531" cy="147.8771" rx="7.5" ry="4.3301"/>
      <rect class="cls-1" x="523.5" y="139.9219" width="15" height="7.955"/>
      <ellipse class="cls-8" cx="531" cy="139.922" rx="7.5" ry="4.3301"/>
    </g>
    <g>
      <ellipse class="cls-1" cx="531" cy="137.4126" rx="5.625" ry="3.2476"/>
      <rect class="cls-1" x="525.375" y="135.2479" width="11.25" height="2.165"/>
      <ellipse class="cls-8" cx="531" cy="135.2476" rx="5.625" ry="3.2476"/>
    </g>
    <path class="cls-1" d="M506,342.7329l25-14.434,25,14.434-25,14.434Z"/>
    <path class="cls-1" d="M566,342.7329l5,2.887,25-14.434-5-2.887Z"/>
    <path class="cls-1" d="M496,342.7329l-5,2.887-25-14.434,5-2.887Z"/>
    <path class="cls-1" d="M551,339.8459l5,2.887,20-11.547-5-2.887Z"/>
    <path class="cls-4" d="M576,360.0529v-17.32l20-11.547v17.32Z"/>
    <path class="cls-2" d="M486,360.0529v-17.32l-20-11.547v17.32Z"/>
    <path class="cls-1" d="M581,345.62l10-5.774v5.774l-10,5.773Z"/>
    <path class="cls-1" d="M481,345.62l-10-5.774v5.774l10,5.773Z"/>
    <path class="cls-4" d="M556,360.0529l20-11.547v-17.32l-20,11.547Z"/>
    <path class="cls-1" d="M561,345.62l10-5.774v5.774l-10,5.773Z"/>
    <path class="cls-2" d="M571,345.62l-5-2.887,5-2.887Z"/>
    <path class="cls-2" d="M591,345.62l-5-2.887,5-2.887Z"/>
    <path class="cls-4" d="M471,345.62l5-2.887-5-2.887Z"/>
    <path class="cls-1" d="M511,339.8459l-5,2.887-20-11.547,5-2.887Z"/>
    <path class="cls-2" d="M506,360.0529l-20-11.547v-17.32l20,11.547Z"/>
    <path class="cls-1" d="M501,345.62l-10-5.774v5.774l10,5.773Z"/>
    <path class="cls-4" d="M491,345.62l5-2.887-5-2.887Z"/>
    <g>
      <path class="cls-4" d="M531,357.1669v-17.321l25-14.434v17.321Z"/>
      <path class="cls-2" d="M531,357.1669v-17.321l-25-14.434v17.321Z"/>
      <path class="cls-1" d="M511,339.8459v-5.773l15,8.66v5.773Z"/>
      <path class="cls-1" d="M531,339.8459v-5.773l15-8.661h10Z"/>
      <path class="cls-1" d="M531,334.0729l-15-8.661H506l25,14.434Z"/>
      <path class="cls-1" d="M531,310.9789v5.773l-15,8.66H506Z"/>
      <path class="cls-1" d="M556,325.4119l-25-14.433v5.773l15,8.66Z"/>
      <path class="cls-1" d="M536,348.5059v-5.773l15-8.66v5.773Z"/>
      <path class="cls-2" d="M551,339.8459l-5-2.887,5-2.886Z"/>
      <path class="cls-4" d="M511,339.8459l5-2.887-5-2.886Z"/>
      <path class="cls-2" d="M531,328.2989l5,2.887,10-5.774-15-8.66Z"/>
      <path class="cls-4" d="M526,331.1859l5-2.887v-11.547l-15,8.66Z"/>
    </g>
    <path class="cls-1" d="M596,313.8649l5,2.887,20-11.547-5-2.887Z"/>
    <path class="cls-2" d="M461,334.0729l-20-11.547v-17.321l20,11.547Z"/>
    <path class="cls-1" d="M606,319.6389l10-5.774v5.774l-10,5.773Z"/>
    <path class="cls-1" d="M456,319.6389l-10-5.774v5.774l10,5.773Z"/>
    <path class="cls-2" d="M601,334.0729l-10-5.774v-17.32l10,5.773Z"/>
    <path class="cls-4" d="M461,334.0729l10-5.774v-17.32l-10,5.773Z"/>
    <path class="cls-1" d="M596,319.6389l-5-2.887v5.774l5,2.886Z"/>
    <path class="cls-1" d="M466,319.6389l5-2.887v5.774l-5,2.886Z"/>
    <path class="cls-2" d="M616,319.6389l-5-2.887,5-2.887Z"/>
    <path class="cls-4" d="M446,319.6389l5-2.887-5-2.887Z"/>
    <path class="cls-1" d="M466,313.8649l-5,2.887-20-11.547,5-2.887Z"/>
    <path class="cls-4" d="M531,974.9319l145-83.716v-5.774l-145,83.716Z"/>
    <path class="cls-9" d="M531,178.1879l20-11.547v-17.32l-20,11.547Z"/>
    <path class="cls-9" d="M531,259.0169l20-11.547V230.15l-20,11.547Z"/>
    <path class="cls-9" d="M541,218.6029l20-11.547v-17.321l-20,11.547Z"/>
    <path class="cls-9" d="M521,218.6029l10-5.774v-17.32l-10,5.773Z"/>
    <path class="cls-9" d="M576,233.0359l20-11.547v-17.32l-20,11.547Z"/>
    <path class="cls-9" d="M596,279.2239l20-11.547v-17.32l-20,11.547Z"/>
    <path class="cls-9" d="M596,313.8649l20-11.547v-17.32l-20,11.547Z"/>
    <path class="cls-3" d="M531,195.5089l-20-11.547v-17.321l20,11.547Z"/>
    <path class="cls-3" d="M531,276.3379l-20-11.547V247.47l20,11.547Z"/>
    <path class="cls-9" d="M623.5,355.7229l20-11.547v-17.32l-20,11.547Z"/>
    <path class="cls-7" d="M438.5,355.7229l-20-11.547v-17.32l20,11.547Z"/>
    <path class="cls-3" d="M466,296.5449l-20-11.547v-17.321l20,11.547Z"/>
    <path class="cls-3" d="M541,224.3759l-10-5.773v-5.774l10,5.774Z"/>
    <path class="cls-3" d="M521,230.15l-20-11.547V207.0559l20,11.547Z"/>
    <path class="cls-3" d="M511,276.3379l-25-14.434v-17.321l25,14.434Z"/>
    <path class="cls-3" d="M486,250.3569,466,238.81V221.4889l20,11.547Z"/>
    <path class="cls-3" d="M451,247.47l-5-2.887v5.774Z"/>
    <path class="cls-3" d="M596,296.5449l-5-2.887v-17.32l5,2.886Z"/>
    <path class="cls-5" d="M531,241.6969,551,230.15l-20-11.547L511,230.15Z"/>
    <path class="cls-12" d="M531,235.9229l10-5.773-10-5.774L521,230.15Z"/>
    <path class="cls-9" d="M623.5,528.9279l20-11.547v-17.32l-20,11.547Z"/>
    <path class="cls-7" d="M438.5,528.9279l-20-11.547v-17.32l20,11.547Z"/>
    <path class="cls-5" d="M511,287.8849l20-11.547-20-11.547-20,11.547Z"/>
    <path class="cls-12" d="M511,282.1109l10-5.773-10-5.774-10,5.774Z"/>
    <path class="cls-9" d="M511,305.2049l20-11.547v-17.32l-20,11.547Z"/>
    <path class="cls-9" d="M623.5,632.8509l20-11.547v-17.32l-20,11.547Z"/>
    <path class="cls-7" d="M438.5,632.8509l-20-11.547v-17.32l20,11.547Z"/>
    <path class="cls-9" d="M551,305.2049l20-11.547v-17.32l-20,11.547Z"/>
    <path class="cls-9" d="M623.5,736.7749l20-11.548v-17.32l-20,11.547Z"/>
    <path class="cls-7" d="M438.5,736.7749l-20-11.548v-17.32l20,11.547Z"/>
    <path class="cls-9" d="M571,299.4319l20-11.547v-17.321l-20,11.547Z"/>
    <path class="cls-9" d="M623.5,494.2869l20-11.547V465.42l-20,11.547Z"/>
    <path class="cls-7" d="M438.5,494.2869l-20-11.547V465.42l20,11.547Z"/>
    <path class="cls-9" d="M551,259.0169l25-14.434v-17.32l-25,14.434Z"/>
    <path class="cls-9" d="M611,247.47l5-2.887v-17.32L596,238.81Z"/>
    <path class="cls-3" d="M511,322.5259l-20-11.547v-17.321l20,11.547Z"/>
    <path class="cls-9" d="M623.5,425.0049l20-11.547v-17.32l-20,11.547Z"/>
    <path class="cls-7" d="M438.5,425.0049l-20-11.547v-17.32l20,11.547Z"/>
    <path class="cls-3" d="M491,316.7519l-20-11.547v-17.32l20,11.547Z"/>
    <path class="cls-3" d="M551,322.5259l-20-11.547v-17.321l20,11.547Z"/>
    <path class="cls-9" d="M623.5,598.21l20-11.547v-17.32l-20,11.547Z"/>
    <path class="cls-7" d="M438.5,598.21l-20-11.547v-17.32l20,11.547Z"/>
    <path class="cls-9" d="M533.5,407.6849l20-11.547v-17.321l-20,11.547Z"/>
    <path class="cls-7" d="M528.5,407.6849l-20-11.547v-17.321l20,11.547Z"/>
    <path class="cls-9" d="M623.5,702.1329l20-11.547v-17.32l-20,11.547Z"/>
    <path class="cls-7" d="M438.5,702.1329l-20-11.547v-17.32l20,11.547Z"/>
    <path class="cls-9" d="M553.5,378.8169l20-11.547V349.95l-20,11.547Z"/>
    <path class="cls-7" d="M508.5,378.8169l-20-11.547V349.95l20,11.547Z"/>
    <path class="cls-9" d="M603.5,349.95l20-11.547V321.082l-20,11.547Z"/>
    <path class="cls-7" d="M458.5,349.95l-20-11.547V321.082l20,11.547Z"/>
    <path class="cls-9" d="M573.5,378.8169l20-11.547V349.95l-20,11.547Z"/>
    <path class="cls-7" d="M488.5,378.8169l-20-11.547V349.95l20,11.547Z"/>
    <path class="cls-9" d="M623.5,321.0819l20-11.547v-17.32l-20,11.547Z"/>
    <path class="cls-7" d="M438.5,321.0819l-20-11.547v-17.32l20,11.547Z"/>
    <path class="cls-9" d="M573.5,471.1929l30-17.32v-17.321l-30,17.321Z"/>
    <path class="cls-7" d="M488.5,471.1929l-30-17.32v-17.321l30,17.321Z"/>
    <path class="cls-9" d="M623.5,459.6459l20-11.547v-17.32l-20,11.547Z"/>
    <path class="cls-7" d="M438.5,459.6459l-20-11.547v-17.32l20,11.547Z"/>
    <path class="cls-9" d="M583.5,546.2489l20-11.547v-17.321l-20,11.547Z"/>
    <path class="cls-7" d="M478.5,546.2489l-20-11.547v-17.321l20,11.547Z"/>
    <path class="cls-9" d="M563.5,627.0779l20-11.547V598.21l-20,11.547Z"/>
    <path class="cls-7" d="M498.5,627.0779l-20-11.547V598.21l20,11.547Z"/>
    <path class="cls-9" d="M603.5,603.9839l20-11.547v-17.321l-20,11.547Z"/>
    <path class="cls-7" d="M458.5,603.9839l-20-11.547v-17.321l20,11.547Z"/>
    <path class="cls-9" d="M623.5,390.3639l20-11.547v-17.32l-20,11.547Z"/>
    <path class="cls-7" d="M438.5,390.3639l-20-11.547v-17.32l20,11.547Z"/>
    <path class="cls-9" d="M583.5,615.5309l20-11.547v-17.321l-20,11.547Z"/>
    <path class="cls-7" d="M478.5,615.5309l-20-11.547v-17.321l20,11.547Z"/>
    <path class="cls-9" d="M563.5,696.36l20-11.547V667.492l-20,11.547Z"/>
    <path class="cls-7" d="M498.5,696.36l-20-11.547V667.492l20,11.547Z"/>
    <path class="cls-9" d="M608.5,670.3789l15-8.66v-17.321l-15,8.6611Z"/>
    <path class="cls-7" d="M453.5,670.3789l-15-8.66v-17.321l15,8.6611Z"/>
    <path class="cls-9" d="M563.5,765.6419l20-11.547v-17.321l-20,11.547Z"/>
    <path class="cls-7" d="M498.5,765.6419l-20-11.547v-17.321l20,11.547Z"/>
    <path class="cls-9" d="M608.5,739.6609l15-8.66V713.68l-15,8.661Z"/>
    <path class="cls-7" d="M453.5,739.6609l-15-8.66V713.68l15,8.661Z"/>
    <path class="cls-9" d="M533.5,580.89l20-11.547V552.022l-20,11.547Z"/>
    <path class="cls-7" d="M528.5,580.89l-20-11.547V552.022l20,11.547Z"/>
    <path class="cls-9" d="M553.5,552.0219l20-11.547v-17.32l-20,11.547Z"/>
    <path class="cls-7" d="M508.5,552.0219l-20-11.547v-17.32l20,11.547Z"/>
    <path class="cls-9" d="M603.5,523.1549l20-11.547v-17.321l-20,11.547Z"/>
    <path class="cls-7" d="M458.5,523.1549l-20-11.547v-17.321l20,11.547Z"/>
    <path class="cls-9" d="M553.5,586.6629l20-11.547v-17.32l-20,11.547Z"/>
    <path class="cls-7" d="M508.5,586.6629l-20-11.547v-17.32l20,11.547Z"/>
    <path class="cls-9" d="M603.5,557.7959l20-11.547v-17.321l-20,11.547Z"/>
    <path class="cls-7" d="M458.5,557.7959l-20-11.547v-17.321l20,11.547Z"/>
    <path class="cls-9" d="M533.5,684.8129l20-11.547v-17.321l-20,11.547Z"/>
    <path class="cls-7" d="M528.5,684.8129l-20-11.547v-17.321l20,11.547Z"/>
    <path class="cls-9" d="M588.5,699.2469l20-11.547v-17.321l-20,11.547Z"/>
    <path class="cls-7" d="M473.5,699.2469,453.5,687.7V670.379l20,11.547Z"/>
    <path class="cls-9" d="M568.5,808.9429l20-11.547v-17.32l-20,11.547Z"/>
    <path class="cls-7" d="M493.5,808.9429l-20-11.547v-17.32l20,11.547Z"/>
    <path class="cls-9" d="M608.5,785.8489l20-11.547v-17.32l-20,11.547Z"/>
    <path class="cls-7" d="M453.5,785.8489l-20-11.547v-17.32l20,11.547Z"/>
    <path class="cls-9" d="M533.5,788.7359l20-11.547v-17.321l-20,11.548Z"/>
    <path class="cls-7" d="M528.5,788.7359l-20-11.547v-17.321l20,11.548Z"/>
    <path class="cls-9" d="M588.5,803.17l20-11.547V774.302l-20,11.547Z"/>
    <path class="cls-7" d="M473.5,803.17l-20-11.547V774.302l20,11.547Z"/>
    <path class="cls-9" d="M623.5,563.5689l20-11.547v-17.32l-20,11.547Z"/>
    <path class="cls-7" d="M438.5,563.5689l-20-11.547v-17.32l20,11.547Z"/>
    <path class="cls-9" d="M533.5,546.2489l20-11.547v-17.321l-20,11.547Z"/>
    <path class="cls-7" d="M528.5,546.2489l-20-11.547v-17.321l20,11.547Z"/>
    <path class="cls-9" d="M623.5,667.4919l20-11.547v-17.32l-20,11.547Z"/>
    <path class="cls-7" d="M438.5,667.4919l-20-11.547v-17.32l20,11.547Z"/>
    <path class="cls-9" d="M553.5,517.3809l20-11.547v-17.32l-20,11.547Z"/>
    <path class="cls-7" d="M508.5,517.3809l-20-11.547v-17.32l20,11.547Z"/>
    <path class="cls-9" d="M603.5,488.5139l20-11.547v-17.321l-20,11.547Z"/>
    <path class="cls-7" d="M458.5,488.5139l-20-11.547v-17.321l20,11.547Z"/>
    <path class="cls-9" d="M533.5,892.6589l20-11.547v-17.321l-20,11.547Z"/>
    <path class="cls-7" d="M528.5,892.6589l-20-11.547v-17.321l20,11.547Z"/>
    <path class="cls-9" d="M533.5,476.9669l20-11.547v-17.321l-20,11.547Z"/>
    <path class="cls-7" d="M528.5,476.9669l-20-11.547v-17.321l20,11.547Z"/>
    <path class="cls-9" d="M553.5,448.0989l20-11.547v-17.32l-20,11.547Z"/>
    <path class="cls-7" d="M508.5,448.0989l-20-11.547v-17.32l20,11.547Z"/>
    <path class="cls-9" d="M603.5,419.2319l20-11.547v-17.321l-20,11.547Z"/>
    <path class="cls-7" d="M458.5,419.2319l-20-11.547v-17.321l20,11.547Z"/>
    <path class="cls-9" d="M533.5,650.1719l20-11.547v-17.321l-20,11.547Z"/>
    <path class="cls-7" d="M528.5,650.1719l-20-11.547v-17.321l20,11.547Z"/>
    <path class="cls-9" d="M533.5,754.0949l20-11.547v-17.321l-20,11.547Z"/>
    <path class="cls-7" d="M528.5,754.0949l-20-11.547v-17.321l20,11.547Z"/>
    <path class="cls-9" d="M588.5,768.5289l20-11.547v-17.321l-20,11.547Z"/>
    <path class="cls-7" d="M473.5,768.5289l-20-11.547v-17.321l20,11.547Z"/>
    <path class="cls-9" d="M568.5,878.2249l20-11.547v-17.32l-20,11.547Z"/>
    <path class="cls-7" d="M493.5,878.2249l-20-11.547v-17.32l20,11.547Z"/>
    <path class="cls-9" d="M608.5,855.1309l20-11.547v-17.32l-20,11.547Z"/>
    <path class="cls-7" d="M453.5,855.1309l-20-11.547v-17.32l20,11.547Z"/>
    <path class="cls-9" d="M533.5,858.0179l20-11.547v-17.32l-20,11.547Z"/>
    <path class="cls-7" d="M528.5,858.0179l-20-11.547v-17.32l20,11.547Z"/>
    <path class="cls-9" d="M533.5,373.0439l20-11.547v-17.321l-20,11.547Z"/>
    <path class="cls-7" d="M528.5,373.0439l-20-11.547v-17.321l20,11.547Z"/>
    <path class="cls-9" d="M533.5,511.6079l20-11.547V482.74l-20,11.547Z"/>
    <path class="cls-7" d="M528.5,511.6079l-20-11.547V482.74l20,11.547Z"/>
    <path class="cls-9" d="M553.5,482.74l20-11.547v-17.32l-20,11.547Z"/>
    <path class="cls-7" d="M508.5,482.74l-20-11.547v-17.32l20,11.547Z"/>
    <path class="cls-9" d="M603.5,453.8729l20-11.547v-17.321l-20,11.547Z"/>
    <path class="cls-7" d="M458.5,453.8729l-20-11.547v-17.321l20,11.547Z"/>
    <path class="cls-9" d="M533.5,442.3259l20-11.547v-17.321l-20,11.547Z"/>
    <path class="cls-7" d="M528.5,442.3259l-20-11.547v-17.321l20,11.547Z"/>
    <path class="cls-9" d="M553.5,413.4579l20-11.547v-17.32l-20,11.547Z"/>
    <path class="cls-7" d="M508.5,413.4579l-20-11.547v-17.32l20,11.547Z"/>
    <path class="cls-9" d="M603.5,384.5909l20-11.547v-17.321l-20,11.547Z"/>
    <path class="cls-7" d="M458.5,384.5909l-20-11.547v-17.321l20,11.547Z"/>
    <path class="cls-9" d="M573.5,413.4579l20-11.547v-17.32l-20,11.547Z"/>
    <path class="cls-7" d="M488.5,413.4579l-20-11.547v-17.32l20,11.547Z"/>
    <path class="cls-9" d="M573.5,505.8339l30-17.32v-17.321l-30,17.321Z"/>
    <path class="cls-7" d="M488.5,505.8339l-30-17.32v-17.321l30,17.321Z"/>
    <path class="cls-9" d="M583.5,580.89l20-11.547V552.022l-20,11.547Z"/>
    <path class="cls-7" d="M478.5,580.89l-20-11.547V552.022l20,11.547Z"/>
    <path class="cls-9" d="M563.5,661.7189l20-11.547v-17.32l-20,11.546Z"/>
    <path class="cls-7" d="M498.5,661.7189l-20-11.547v-17.32l20,11.546Z"/>
    <path class="cls-9" d="M603.5,638.6249l20-11.547v-17.321l-20,11.547Z"/>
    <path class="cls-7" d="M458.5,638.6249l-20-11.547v-17.321l20,11.547Z"/>
    <path class="cls-9" d="M583.5,650.1719l20-11.547v-17.321l-20,11.547Z"/>
    <path class="cls-7" d="M478.5,650.1719l-20-11.547v-17.321l20,11.547Z"/>
    <path class="cls-9" d="M563.5,731.0009l20-11.547v-17.32l-20,11.546Z"/>
    <path class="cls-7" d="M498.5,731.0009l-20-11.547v-17.32l20,11.546Z"/>
    <path class="cls-9" d="M608.5,705.02l15-8.66V679.0391l-15,8.661Z"/>
    <path class="cls-7" d="M453.5,705.02l-15-8.66V679.0391l15,8.661Z"/>
    <path class="cls-9" d="M533.5,615.5309l20-11.547v-17.321l-20,11.547Z"/>
    <path class="cls-7" d="M528.5,615.5309l-20-11.547v-17.321l20,11.547Z"/>
    <path class="cls-9" d="M533.5,719.4539l20-11.547v-17.321l-20,11.547Z"/>
    <path class="cls-7" d="M528.5,719.4539l-20-11.547v-17.321l20,11.547Z"/>
    <path class="cls-9" d="M588.5,733.8879l20-11.547V705.02l-20,11.547Z"/>
    <path class="cls-7" d="M473.5,733.8879l-20-11.547V705.02l20,11.547Z"/>
    <path class="cls-9" d="M568.5,843.5839l20-11.547v-17.32l-20,11.547Z"/>
    <path class="cls-7" d="M493.5,843.5839l-20-11.547v-17.32l20,11.547Z"/>
    <path class="cls-9" d="M608.5,820.49l20-11.547v-17.32l-20,11.547Z"/>
    <path class="cls-7" d="M453.5,820.49l-20-11.547v-17.32l20,11.547Z"/>
    <path class="cls-9" d="M533.5,823.3769l20-11.547v-17.321l-20,11.547Z"/>
    <path class="cls-7" d="M528.5,823.3769l-20-11.547v-17.321l20,11.547Z"/>
    <path class="cls-9" d="M588.5,837.8109l20-11.547v-17.321l-20,11.547Z"/>
    <path class="cls-7" d="M473.5,837.8109l-20-11.547v-17.321l20,11.547Z"/>
    <path class="cls-4" d="M551,345.62l5-2.887v34.641l-5,2.887Z"/>
    <path class="cls-4" d="M536,388.9209V354.28l-5,2.887v34.641Z"/>
    <path class="cls-4" d="M551,380.2609l5-2.887v525.389l-5,2.886Z"/>
    <path class="cls-4" d="M536,388.9209l-5,2.887v525.388l5-2.886Z"/>
    <path class="cls-4" d="M576,365.8269l-5,2.887v213.619l5-2.886Z"/>
    <path class="cls-4" d="M571,368.7139l5-2.887v-17.321l-5,2.887Z"/>
    <path class="cls-4" d="M591,351.3929l5-2.887v69.282l-5,2.887Z"/>
    <path class="cls-4" d="M586,527.4849l-5,2.887v132.79l5-2.886Z"/>
    <path class="cls-4" d="M606,515.9379l-5,2.887v132.79l5-2.886Z"/>
    <path class="cls-4" d="M566,608.3139l-5,2.887v161.658l5-2.887Z"/>
    <path class="cls-2" d="M586,683.37V666.049l-5-2.887v17.321Z"/>
    <path class="cls-2" d="M581,680.4829v80.829l5,2.887V683.37h0Z"/>
    <path class="cls-4" d="M641,328.2989l5-2.887v522.502l-5,2.8871Z"/>
    <path class="cls-4" d="M621,339.8459l5-2.887v219.394l-5-2.887Z"/>
    <path class="cls-4" d="M641,328.2989v-34.641l5-2.887v34.641Z"/>
    <path class="cls-4" d="M621,339.8459v-34.641l5-2.887v34.641Z"/>
    <path class="cls-4" d="M606,585.22l20-11.547v-17.32L606,567.9Z"/>
    <path class="cls-1" d="M611,570.7859l10-5.773v5.773l-10,5.774Z"/>
    <path class="cls-2" d="M621,570.7859l-5-2.886,5-2.887Z"/>
    <path class="cls-4" d="M626,573.6729l-5,2.887v161.658l5-2.887Z"/>
    <path class="cls-1" d="M606,562.1259V567.9l20-11.547-5-2.887Z"/>
    <path class="cls-4" d="M576,452.4289v-17.32l25-14.434v17.321Z"/>
    <path class="cls-1" d="M581,437.9959l15-8.661v5.774l-15,8.66Z"/>
    <path class="cls-2" d="M596,435.1089l-5-2.887,5-2.887Z"/>
    <path class="cls-4" d="M601,351.3929l5-2.887v150.112l-5-2.887Z"/>
    <path class="cls-4" d="M581,530.3719v-17.321l25-14.433v17.32Z"/>
    <path class="cls-1" d="M586,515.9379l15-8.66v5.773l-15,8.661Z"/>
    <path class="cls-2" d="M601,513.0509l-5-2.886,5-2.887Z"/>
    <path class="cls-4" d="M606,348.5059v-17.32l-5,2.887v17.32Z"/>
    <path class="cls-4" d="M586,683.37V666.049l25-14.434v17.321Z"/>
    <path class="cls-1" d="M591,668.9359l15-8.66v5.7731l-15,8.66Z"/>
    <path class="cls-2" d="M606,666.0489l-5-2.887,5-2.886Z"/>
    <path class="cls-4" d="M611,850.8009V668.9359l-5,2.887v181.865Z"/>
    <path class="cls-4" d="M591,862.3479V680.4829l-5,2.887v182.587Z"/>
    <path class="cls-4" d="M566,876.7819l20-11.547v20.207l-20,11.547Z"/>
    <path class="cls-4" d="M571,876.7819l-5,2.887v-86.603l5-2.887Z"/>
    <g>
      <path class="cls-4" d="M576,878.2249l2.5-1.443v8.66l-2.5,1.444Z"/>
      <path class="cls-2" d="M573.5,885.4419l2.5,1.444v-8.661l-2.5-1.443Z"/>
      <path class="cls-1" d="M576,878.2249l2.5-1.443-2.5-1.443-2.5,1.443Z"/>
    </g>
    <path class="cls-4" d="M586,853.6879l25-14.434v31.754L586,885.442Z"/>
    <path class="cls-2" d="M586,853.6879l1.25-.722V884.72l-1.25.722Z"/>
    <g>
      <path class="cls-4" d="M598.5,853.6879l2.5-1.443v8.66l-2.5,1.443Z"/>
      <path class="cls-2" d="M596,860.9049l2.5,1.443v-8.66l-2.5-1.443Z"/>
      <path class="cls-1" d="M598.5,853.6879l2.5-1.443-2.5-1.4439-2.5,1.4439Z"/>
    </g>
    <path class="cls-4" d="M611,850.8009l20-11.547v20.207l-20,11.547Z"/>
    <path class="cls-2" d="M611,850.8009l1.25-.722v20.208l-1.25.721Z"/>
    <g>
      <path class="cls-4" d="M621,852.2449l2.5-1.444v8.66l-2.5,1.4439Z"/>
      <path class="cls-2" d="M618.5,859.4609l2.5,1.4439v-8.66l-2.5-1.444Z"/>
      <path class="cls-1" d="M621,852.2449l2.5-1.444-2.5-1.443-2.5,1.443Z"/>
    </g>
    <path class="cls-4" d="M631,842.1409l-5,2.8871V758.4249l5-2.887Z"/>
    <path class="cls-2" d="M526,388.9209V354.28l5,2.887v34.641Z"/>
    <path class="cls-2" d="M421,328.2989v-34.641l-5-2.887v34.641Z"/>
    <path class="cls-2" d="M436,336.9589v-34.641l5,2.887v34.641Z"/>
    <path class="cls-2" d="M456,348.5059v-17.32l5,2.887v17.32Z"/>
    <path class="cls-2" d="M421,328.2989l-5-2.887v525.389l5,2.887Z"/>
    <path class="cls-2" d="M441,339.8459l-5-2.887v219.394l5-2.887Z"/>
    <path class="cls-2" d="M461,351.3929l-5-2.887v150.112l5-2.887Z"/>
    <path class="cls-2" d="M491,368.7139l-5-2.887v213.62l5,2.886Z"/>
    <path class="cls-2" d="M471,351.3929l-5-2.887v69.282l5,2.887Z"/>
    <path class="cls-2" d="M511,345.62l-5-2.887v34.641l5,2.887Z"/>
    <path class="cls-2" d="M511,380.2609l-5-2.887v525.389l5,2.886Z"/>
    <path class="cls-2" d="M491,368.7139l-5-2.887v-17.321l5,2.887Z"/>
    <path class="cls-2" d="M456,585.22l-20-11.547v-17.32L456,567.9Z"/>
    <path class="cls-1" d="M451,570.7859l-10-5.773v5.773l10,5.774Z"/>
    <path class="cls-4" d="M441,570.7859l5-2.886-5-2.887Z"/>
    <path class="cls-2" d="M476,527.4849l5,2.887v132.79l-5-2.886Z"/>
    <path class="cls-2" d="M456,515.9379l5,2.887v132.79l-5-2.886Z"/>
    <path class="cls-2" d="M436,573.6729l5,2.887v161.658l-5-2.887Z"/>
    <path class="cls-1" d="M486,510.1649l-5,2.886-25-14.433,5-2.887Z"/>
    <path class="cls-2" d="M481,530.3719v-17.321l-25-14.433v17.32Z"/>
    <path class="cls-1" d="M476,515.9379l-15-8.66v5.773l15,8.661Z"/>
    <path class="cls-4" d="M461,513.0509l5-2.886-5-2.887Z"/>
    <path class="cls-1" d="M456,562.1259V567.9l-20-11.547,5-2.887Z"/>
    <path class="cls-2" d="M496,608.3139l5,2.887v161.658l-5-2.887Z"/>
    <path class="cls-2" d="M471,865.2349V680.4829l5,2.887v184.752Z"/>
    <path class="cls-2" d="M451,850.8009V668.9359l5,2.887v178.978Z"/>
    <path class="cls-1" d="M481,663.1619l-5,2.8871-25-14.4341,5-2.886Z"/>
    <path class="cls-2" d="M476,683.37V666.049l-25-14.434v17.321Z"/>
    <path class="cls-1" d="M471,668.9359l-15-8.66v5.7731l15,8.66Z"/>
    <path class="cls-4" d="M456,666.0489l5-2.887-5-2.886Z"/>
    <path class="cls-4" d="M476,683.37V666.049l5-2.887v17.321Z"/>
    <path class="cls-4" d="M481,680.4829v80.829l-5,2.887V683.37h0Z"/>
    <path class="cls-2" d="M491,876.7819l5,2.887v-86.603l-5-2.887Z"/>
    <path class="cls-2" d="M431,842.1409l5,2.8871V758.4249l-5-2.887Z"/>
    <path class="cls-2" d="M531,391.8079l-5-2.887V914.31l5,2.886Z"/>
    <path class="cls-2" d="M476,853.6879l-25-14.434v31.754l25,14.4341Z"/>
    <g>
      <path class="cls-2" d="M463.5,853.6879l-2.5-1.443v8.66l2.5,1.443Z"/>
      <path class="cls-4" d="M466,860.9049l-2.5,1.443v-8.66l2.5-1.443Z"/>
      <path class="cls-1" d="M463.5,853.6879l-2.5-1.443,2.5-1.4439,2.5,1.4439Z"/>
    </g>
    <path class="cls-2" d="M451,850.8009l-20-11.547v20.207l20,11.547Z"/>
    <path class="cls-4" d="M451,850.8009l-1.25-.722v20.208l1.25.721Z"/>
    <g>
      <path class="cls-2" d="M441,852.2449l-2.5-1.444v8.66l2.5,1.4439Z"/>
      <path class="cls-4" d="M443.5,859.4609l-2.5,1.4439v-8.66l2.5-1.444Z"/>
      <path class="cls-1" d="M441,852.2449l-2.5-1.444,2.5-1.443,2.5,1.443Z"/>
    </g>
    <path class="cls-2" d="M496,876.7819l-20-11.547v20.207l20,11.547Z"/>
    <g>
      <path class="cls-2" d="M486,878.2249l-2.5-1.443v8.66l2.5,1.444Z"/>
      <path class="cls-4" d="M488.5,885.4419l-2.5,1.444v-8.661l2.5-1.443Z"/>
      <path class="cls-1" d="M486,878.2249l-2.5-1.443,2.5-1.443,2.5,1.443Z"/>
    </g>
    <path class="cls-4" d="M476,853.6879l-1.25-.722v69.282l1.25.722Z"/>
  </g>
</svg>
