<svg id="Layer_1" data-name="Layer 1" xmlns="http://www.w3.org/2000/svg" xmlns:xlink="http://www.w3.org/1999/xlink" viewBox="0 0 1062 1062">
  <defs>
    <style>
      .cls-1, .cls-15, .cls-17 {
        fill: none;
      }

      .cls-2 {
        fill: #e8e8e8;
      }

      .cls-3 {
        fill: #6ec0ff;
      }

      .cls-4 {
        fill: #37719d;
      }

      .cls-5 {
        fill: #d1d4d7;
      }

      .cls-6 {
        fill: #fff;
      }

      .cls-7 {
        fill: #ffd876;
      }

      .cls-8 {
        fill: #f4f5f7;
      }

      .cls-9 {
        fill: #f7f2ef;
      }

      .cls-10 {
        fill: #fffcfa;
      }

      .cls-11 {
        fill: #a2a2a2;
      }

      .cls-12 {
        fill: #d1d1d1;
      }

      .cls-13 {
        fill: url(#linear-gradient);
      }

      .cls-14 {
        fill: #e9ac5c;
      }

      .cls-15 {
        stroke: #ffe1bb;
      }

      .cls-15, .cls-17 {
        stroke-linecap: round;
        stroke-linejoin: round;
        stroke-width: 0.75px;
      }

      .cls-16 {
        fill: #fcef71;
      }

      .cls-17 {
        stroke: #fffbd7;
      }

      .cls-18 {
        fill: #747474;
      }

      .cls-19 {
        fill: #8b8b8b;
      }

      .cls-20 {
        fill: #f2cb67;
      }

      .cls-21 {
        fill: #ffe8ae;
      }

      .cls-22 {
        fill: #eadc5c;
      }

      .cls-23 {
        fill: #d79c50;
      }

      .cls-24 {
        fill: #5d5d5d;
      }

      .cls-25 {
        fill: #2e2e2e;
      }

      .cls-26 {
        clip-path: url(#clip-path);
      }

      .cls-27 {
        fill: #c38e48;
      }

      .cls-28 {
        clip-path: url(#clip-path-2);
      }

      .cls-29 {
        clip-path: url(#clip-path-3);
      }

      .cls-30 {
        clip-path: url(#clip-path-4);
      }

      .cls-31 {
        clip-path: url(#clip-path-5);
      }

      .cls-32 {
        clip-path: url(#clip-path-6);
      }

      .cls-33 {
        clip-path: url(#clip-path-7);
      }

      .cls-34 {
        fill: #ebaadf;
      }
    </style>
    <linearGradient id="linear-gradient" x1="3056.741" y1="2783.4464" x2="3058.2802" y2="2783.4464" gradientTransform="translate(-412261.125 -140213.2003) scale(135 50.518)" gradientUnits="userSpaceOnUse">
      <stop offset="0.4652" stop-color="#e9ac5c"/>
      <stop offset="0.5609" stop-color="#fcef71"/>
    </linearGradient>
    <clipPath id="clip-path">
      <path class="cls-1" d="M484.9415,200.7726h0c-3.2447,1.8733-3.2447,4.9149,0,6.7867h0a13.0009,13.0009,0,0,0,11.7572,0h0c3.2446-1.8718,3.2446-4.9134,0-6.7867h0A13.0015,13.0015,0,0,0,484.9415,200.7726Z"/>
    </clipPath>
    <clipPath id="clip-path-2">
      <path class="cls-1" d="M485.8772,221.59h0a1.9,1.9,0,0,0,0,3.5988h0a6.897,6.897,0,0,0,6.234,0h0a1.9,1.9,0,0,0,0-3.5988h0A6.8976,6.8976,0,0,0,485.8772,221.59Z"/>
    </clipPath>
    <clipPath id="clip-path-3">
      <path class="cls-1" d="M465.6594,208.0134h0a1.9006,1.9006,0,0,0,0,3.6h0a6.8958,6.8958,0,0,0,6.234,0h0a1.9011,1.9011,0,0,0,0-3.6h0A6.8958,6.8958,0,0,0,465.6594,208.0134Z"/>
    </clipPath>
    <clipPath id="clip-path-4">
      <path class="cls-1" d="M520.035,247.0462h0a1.9,1.9,0,0,0,0,3.5988h0a6.8976,6.8976,0,0,0,6.234,0h0a1.9,1.9,0,0,0,0-3.5988h0A6.8871,6.8871,0,0,0,520.035,247.0462Z"/>
    </clipPath>
    <clipPath id="clip-path-5">
      <path class="cls-1" d="M456.9345,242.1005h0c1.8714,3.2448,4.9132,3.2448,6.7862,0h0a12.998,12.998,0,0,0,0-11.757h0c-1.873-3.2447-4.9148-3.2447-6.7862,0h0A12.9974,12.9974,0,0,0,456.9345,242.1005Z"/>
    </clipPath>
    <clipPath id="clip-path-6">
      <path class="cls-1" d="M454.2809,274.5129h0c1.2161,2.1072,3.192,2.1072,4.408,0h0a8.4472,8.4472,0,0,0,0-7.6363h0c-1.216-2.1073-3.1919-2.1073-4.408,0h0A8.4392,8.4392,0,0,0,454.2809,274.5129Z"/>
    </clipPath>
    <clipPath id="clip-path-7">
      <path class="cls-1" d="M528.6952,272.51a72.7813,72.7813,0,0,1-33.61-10.61c-14.7831-9.2064-21.8639-3.95-27.1491,16.3055s-14.8929,46.3427,16.0853,34.7166q12.2391-1.5084,18.21,4.0283c5.9706,5.5368,23.3618,11.5553,18.9176-6.2017q-4.4454-17.7571,8.8523-35.3524C531.1008,273.9393,530.516,272.6473,528.6952,272.51Z"/>
    </clipPath>
  </defs>
  <title>1Artboard 23</title>
  <g id="Group">
    <g id="Group-2">
      <path id="top-T2" class="cls-2" d="M502.0351,773.25,632.8729,848.788l-130.8378,75.54-130.8379-75.54Z"/>
      <path id="windows-R2" class="cls-3" d="M599.009,802.1327v39.99l-92.3561,53.3218v-39.99Z"/>
      <path id="windows-L2" class="cls-4" d="M406.6,802.1327v39.99l92.3561,53.3218v-39.99Z"/>
      <path id="body-L2" class="cls-5" d="M525.1241,848.788l-7.6964-4.4423V888.78l7.6964,4.4439Z"/>
      <path id="body-R2" class="cls-6" d="M478.946,848.788l7.6964-4.4423V888.78l-7.6964,4.4439Z"/>
      <path id="body-L2-2" class="cls-5" d="M548.2131,835.4579l-7.6963-4.4439V875.45l7.6963,4.4438Z"/>
      <path id="body-R2-2" class="cls-6" d="M455.857,835.4579l7.6963-4.4439V875.45l-7.6963,4.4438Z"/>
      <path id="body-L2-3" class="cls-5" d="M571.3022,822.1278l-7.6964-4.4438V862.12l7.6964,4.4423Z"/>
      <path id="body-R2-3" class="cls-6" d="M432.768,822.1278l7.6963-4.4438V862.12l-7.6963,4.4423Z"/>
      <path id="body-L2-4" class="cls-5" d="M594.3912,808.7977l-7.6963-4.4438V848.788l7.6963,4.4438Z"/>
      <path id="body-R2-4" class="cls-6" d="M409.6789,808.7977l7.6964-4.4438V848.788l-7.6964,4.4438Z"/>
      <path id="top-T2-2" class="cls-7" d="M502.0351,551.0749l100.0524,57.7657L502.0351,666.6068,401.9826,608.8411Z"/>
      <path id="body-R2-5" class="cls-6" d="M495.878,855.6953V666.8906l5.9563-.422L602.0875,608.587V804.4927L501.8343,862.3743Z"/>
      <path id="body-L2-5" class="cls-5" d="M502.0351,666.6068,401.9826,608.8411V804.3545L502.0351,862.12Z"/>
      <g id="windows-R2-2">
        <path id="Path" class="cls-3" d="M509.7314,671.0486l15.3927-8.8862v17.7745l-15.3927,8.8862Z"/>
        <path id="Path-2" class="cls-3" d="M532.82,657.7185l15.3927-8.8862v17.7745L532.82,675.4931Z"/>
        <path id="Path-3" class="cls-3" d="M555.91,644.3884l15.3927-8.8877v17.7739L555.91,662.1624Z"/>
        <path id="Path-4" class="cls-3" d="M578.9985,631.0584l15.3927-8.8878v17.774l-15.3927,8.8877Z"/>
        <path id="Path-5" class="cls-3" d="M509.7314,724.37l15.3927-8.8862v17.7739l-15.3927,8.8862Z"/>
        <path id="Path-6" class="cls-3" d="M532.82,711.04l15.3927-8.8862V719.928L532.82,728.8142Z"/>
        <path id="Path-7" class="cls-3" d="M555.91,697.71l15.3927-8.8877v17.7746L555.91,715.4848Z"/>
        <path id="Path-8" class="cls-3" d="M578.9985,684.38l15.3927-8.8878V693.267l-15.3927,8.8877Z"/>
        <path id="Path-9" class="cls-3" d="M509.7314,777.6922l15.3927-8.8862V786.58l-15.3927,8.8862Z"/>
        <path id="Path-10" class="cls-3" d="M532.82,764.3621l15.3927-8.8862V773.25L532.82,782.136Z"/>
        <path id="Path-11" class="cls-3" d="M555.91,751.032l15.3927-8.8877v17.774L555.91,768.806Z"/>
        <path id="Path-12" class="cls-3" d="M578.9985,737.702l15.3927-8.8877v17.7739l-15.3927,8.8877Z"/>
        <path id="Path-13" class="cls-3" d="M509.7314,697.71l15.3927-8.8877v17.7746l-15.3927,8.8877Z"/>
        <path id="Path-14" class="cls-3" d="M532.82,684.38l15.3927-8.8878V693.267L532.82,702.1547Z"/>
        <path id="Path-15" class="cls-3" d="M555.91,671.0486l15.3927-8.8862v17.7745L555.91,688.8231Z"/>
        <path id="Path-16" class="cls-3" d="M578.9985,657.7185l15.3927-8.8862v17.7745l-15.3927,8.8863Z"/>
        <path id="Path-17" class="cls-3" d="M509.7314,751.032l15.3927-8.8877v17.774l-15.3927,8.8877Z"/>
        <path id="Path-18" class="cls-3" d="M532.82,737.702l15.3927-8.8877v17.7739L532.82,755.4759Z"/>
        <path id="Path-19" class="cls-3" d="M555.91,724.37l15.3927-8.8862v17.7739L555.91,742.1443Z"/>
        <path id="Path-20" class="cls-3" d="M578.9985,711.04l15.3927-8.8862V719.928l-15.3927,8.8862Z"/>
        <path id="Path-21" class="cls-3" d="M509.7314,804.3539l15.3927-8.8877V813.24l-15.3927,8.8877Z"/>
        <path id="Path-22" class="cls-3" d="M532.82,791.0238l15.3927-8.8877V799.91L532.82,808.7977Z"/>
        <path id="Path-23" class="cls-3" d="M555.91,777.6922l15.3927-8.8862V786.58L555.91,795.4661Z"/>
        <path id="Path-24" class="cls-3" d="M578.9985,764.3621l15.3927-8.8862V773.25l-15.3927,8.8862Z"/>
        <path id="Path-25" class="cls-3" d="M509.7314,831.014l15.3927-8.8862v17.7739l-15.3927,8.8862Z"/>
        <path id="Path-26" class="cls-3" d="M532.82,817.684l15.3927-8.8863v17.774L532.82,835.4579Z"/>
        <path id="Path-27" class="cls-3" d="M555.91,804.3539l15.3927-8.8877V813.24L555.91,822.1278Z"/>
        <path id="Path-28" class="cls-3" d="M578.9985,791.0238l15.3927-8.8877V799.91l-15.3927,8.8877Z"/>
      </g>
      <g id="windows-L2-2">
        <path id="Path-29" class="cls-4" d="M494.3387,671.0486l-15.3927-8.8862v17.7745l15.3927,8.8862Z"/>
        <path id="Path-30" class="cls-4" d="M471.25,657.7185l-15.3927-8.8862v17.7745l15.3927,8.8863Z"/>
        <path id="Path-31" class="cls-4" d="M448.1606,644.3884l-15.3926-8.8877v17.7739l15.3926,8.8878Z"/>
        <path id="Path-32" class="cls-4" d="M425.0716,631.0584l-15.3927-8.8878v17.774l15.3927,8.8877Z"/>
        <path id="Path-33" class="cls-4" d="M494.3387,724.37l-15.3927-8.8862v17.7739l15.3927,8.8862Z"/>
        <path id="Path-34" class="cls-4" d="M471.25,711.04l-15.3927-8.8862V719.928l15.3927,8.8862Z"/>
        <path id="Path-35" class="cls-4" d="M448.1606,697.71l-15.3926-8.8877v17.7746l15.3926,8.8877Z"/>
        <path id="Path-36" class="cls-4" d="M425.0716,684.38l-15.3927-8.8878V693.267l15.3927,8.8877Z"/>
        <path id="Path-37" class="cls-4" d="M494.3387,777.6922,478.946,768.806V786.58l15.3927,8.8862Z"/>
        <path id="Path-38" class="cls-4" d="M471.25,764.3621l-15.3927-8.8862V773.25L471.25,782.136Z"/>
        <path id="Path-39" class="cls-4" d="M448.1606,751.032l-15.3926-8.8877v17.774l15.3926,8.8877Z"/>
        <path id="Path-40" class="cls-4" d="M425.0716,737.702l-15.3927-8.8877v17.7739l15.3927,8.8877Z"/>
        <path id="Path-41" class="cls-4" d="M494.3387,697.71l-15.3927-8.8877v17.7746l15.3927,8.8877Z"/>
        <path id="Path-42" class="cls-4" d="M471.25,684.38l-15.3927-8.8878V693.267l15.3927,8.8877Z"/>
        <path id="Path-43" class="cls-4" d="M448.1606,671.0486l-15.3926-8.8862v17.7745l15.3926,8.8862Z"/>
        <path id="Path-44" class="cls-4" d="M425.0716,657.7185l-15.3927-8.8862v17.7745l15.3927,8.8863Z"/>
        <path id="Path-45" class="cls-4" d="M494.3387,751.032l-15.3927-8.8877v17.774l15.3927,8.8877Z"/>
        <path id="Path-46" class="cls-4" d="M471.25,737.702l-15.3927-8.8877v17.7739l15.3927,8.8877Z"/>
        <path id="Path-47" class="cls-4" d="M448.1606,724.37l-15.3926-8.8862v17.7739l15.3926,8.8862Z"/>
        <path id="Path-48" class="cls-4" d="M425.0716,711.04l-15.3927-8.8862V719.928l15.3927,8.8862Z"/>
        <path id="Path-49" class="cls-4" d="M494.3387,804.3539l-15.3927-8.8877V813.24l15.3927,8.8877Z"/>
        <path id="Path-50" class="cls-4" d="M471.25,791.0238l-15.3927-8.8877V799.91l15.3927,8.8877Z"/>
        <path id="Path-51" class="cls-4" d="M448.1606,777.6922,432.768,768.806V786.58l15.3926,8.8862Z"/>
        <path id="Path-52" class="cls-4" d="M425.0716,764.3621l-15.3927-8.8862V773.25l15.3927,8.8862Z"/>
        <path id="Path-53" class="cls-4" d="M494.3387,831.014l-15.3927-8.8862v17.7739l15.3927,8.8862Z"/>
        <path id="Path-54" class="cls-4" d="M471.25,817.684l-15.3927-8.8863v17.774l15.3927,8.8862Z"/>
        <path id="Path-55" class="cls-4" d="M448.1606,804.3539l-15.3926-8.8877V813.24l15.3926,8.8877Z"/>
        <path id="Path-56" class="cls-4" d="M425.0716,791.0238l-15.3927-8.8877V799.91l15.3927,8.8877Z"/>
      </g>
      <path id="body-L2-6" class="cls-5" d="M502.0351,879.8935,401.9826,822.1278v8.8862L502.0351,888.78Z"/>
      <g id="body-R2-6">
        <path id="Path-57" class="cls-6" d="M502.0351,879.8935l100.0524-57.7657v8.8862L502.0351,888.78Z"/>
        <path id="Path-58" class="cls-6" d="M495.878,903.257V858.093l5.7319,1.34,8.1215-4.6894V903.257l-8.1215,4.6894Z"/>
        <path id="Path-59" class="cls-6" d="M548.2131,833.9186l7.6964-4.4438V875.45l-7.6964,4.4438Z"/>
        <path id="Path-60" class="cls-6" d="M525.1241,847.2487l7.6963-4.4423V888.78l-7.6963,4.4439Z"/>
        <path id="Path-61" class="cls-6" d="M571.3022,820.5886l7.6963-4.4439V862.12l-7.6963,4.4423Z"/>
        <path id="Path-62" class="cls-6" d="M594.3912,807.2585l7.6963-4.4439V848.788l-7.6963,4.4438Z"/>
      </g>
      <g id="body-L2-7">
        <path id="Path-63" class="cls-5" d="M502.0351,860.58l-7.6964-4.4439V902.11l7.6964,4.4438Z"/>
        <path id="Path-64" class="cls-5" d="M455.857,833.9186l-7.6964-4.4438V875.45l7.6964,4.4438Z"/>
        <path id="Path-65" class="cls-5" d="M478.946,847.2487l-7.6963-4.4423V888.78l7.6963,4.4439Z"/>
        <path id="Path-66" class="cls-5" d="M432.768,820.5886l-7.6964-4.4439V862.12l7.6964,4.4423Z"/>
        <path id="Path-67" class="cls-5" d="M409.6789,807.2585l-7.6963-4.4439V848.788l7.6963,4.4438Z"/>
      </g>
      <g id="top-T1">
        <path id="Path-68" class="cls-8" d="M509.7314,866.5619l7.6963-4.4423,7.6964,4.4423L509.7314,875.45Z"/>
        <path id="Path-69" class="cls-8" d="M555.91,839.9018l7.6963-4.4439,7.6964,4.4439L555.91,848.788Z"/>
        <path id="Path-70" class="cls-8" d="M532.82,853.2318l7.6964-4.4438,7.6963,4.4438L532.82,862.12Z"/>
        <path id="Path-71" class="cls-8" d="M578.9985,826.5717l7.6964-4.4439,7.6963,4.4439-15.3927,8.8862Z"/>
      </g>
      <g id="top-T1-2">
        <path id="Path-72" class="cls-8" d="M494.3387,866.5619l-7.6963-4.4423-7.6964,4.4423,15.3927,8.8877Z"/>
        <path id="Path-73" class="cls-8" d="M448.1606,839.9018l-7.6963-4.4439-7.6963,4.4439,15.3926,8.8862Z"/>
        <path id="Path-74" class="cls-8" d="M471.25,853.2318l-7.6964-4.4438-7.6963,4.4438L471.25,862.12Z"/>
        <path id="Path-75" class="cls-8" d="M425.0716,826.5717l-7.6963-4.4439-7.6964,4.4439,15.3927,8.8862Z"/>
      </g>
      <g id="Group-3">
        <g id="gradient-L2-R2">
          <ellipse id="Ellipse" class="cls-9" cx="502.0351" cy="560.9784" rx="69.2671" ry="39.9914"/>
        </g>
        <path id="body-L2-8" class="cls-5" d="M525.1241,608.8406l-7.6964-4.4439v44.4356l7.6964,4.4423Z"/>
        <path id="body-R2-7" class="cls-6" d="M478.946,608.8406l7.6964-4.4439v44.4356l-7.6964,4.4423Z"/>
        <path id="body-L2-9" class="cls-5" d="M548.2131,595.5105l-7.6963-4.4439v44.4341l7.6963,4.4439Z"/>
        <path id="body-R2-8" class="cls-6" d="M455.857,595.5105l7.6963-4.4439v44.4341l-7.6963,4.4439Z"/>
        <path id="body-L2-10" class="cls-5" d="M571.3022,582.1789l-7.6964-4.4423v44.434l7.6964,4.4439Z"/>
        <path id="body-R2-9" class="cls-6" d="M432.768,582.1789l7.6963-4.4423v44.434l-7.6963,4.4439Z"/>
        <path id="body-L2-11" class="cls-5" d="M594.3912,568.8488l-7.6963-4.4439v44.4357l7.6963,4.4438Z"/>
        <path id="body-R2-10" class="cls-6" d="M409.6789,568.8488l7.6964-4.4439v44.4357l-7.6964,4.4438Z"/>
        <path id="top-T2-3" class="cls-6" d="M502.0351,311.1281l100.0524,57.7641L502.0351,426.6579,401.9826,368.8922Z"/>
        <path id="body-R2-11" class="cls-6" d="M497.4173,616.016l-1.5349-190.8339,6.44,1.6729,99.7652-57.6v194.952l-99.7652,57.6Z"/>
        <path id="body-L2-12" class="cls-5" d="M502.0351,426.6573,401.9826,368.8916V564.4049l100.0525,57.7657Z"/>
        <g id="windows-R2-3">
          <path id="Path-76" class="cls-3" d="M509.7314,431.1012l15.3927-8.8878v17.7739l-15.3927,8.8878Z"/>
          <path id="Path-77" class="cls-3" d="M532.82,417.7711l15.3927-8.8877v17.7739L532.82,435.545Z"/>
          <path id="Path-78" class="cls-3" d="M555.91,404.44l15.3927-8.8862v17.7739L555.91,422.2134Z"/>
          <path id="Path-79" class="cls-3" d="M578.9985,391.1094l15.3927-8.8862v17.774l-15.3927,8.8862Z"/>
          <path id="Path-80" class="cls-3" d="M509.7314,484.423l15.3927-8.8878v17.774l-15.3927,8.8883Z"/>
          <path id="Path-81" class="cls-3" d="M532.82,471.0929l15.3927-8.8877v17.7739L532.82,488.8668Z"/>
          <path id="Path-82" class="cls-3" d="M555.91,457.7613l15.3927-8.8862V466.649L555.91,475.5352Z"/>
          <path id="Path-83" class="cls-3" d="M578.9985,444.4312l15.3927-8.8862v17.774l-15.3927,8.8862Z"/>
          <path id="Path-84" class="cls-3" d="M509.7314,537.7448l15.3927-8.8878v17.774l-15.3927,8.8877Z"/>
          <path id="Path-85" class="cls-3" d="M532.82,524.4147l15.3927-8.8877v17.7739L532.82,542.1887Z"/>
          <path id="Path-86" class="cls-3" d="M555.91,511.0831l15.3927-8.8862v17.7739L555.91,528.857Z"/>
          <path id="Path-87" class="cls-3" d="M578.9985,497.7531l15.3927-8.8862v17.7739l-15.3927,8.8862Z"/>
          <path id="Path-88" class="cls-3" d="M509.7314,457.7613l15.3927-8.8862V466.649l-15.3927,8.8862Z"/>
          <path id="Path-89" class="cls-3" d="M532.82,444.4312l15.3927-8.8862v17.774L532.82,462.2052Z"/>
          <path id="Path-90" class="cls-3" d="M555.91,431.1012l15.3927-8.8878v17.7739L555.91,448.8751Z"/>
          <path id="Path-91" class="cls-3" d="M578.9985,417.7711l15.3927-8.8877v17.7739l-15.3927,8.8877Z"/>
          <path id="Path-92" class="cls-3" d="M509.7314,511.0831l15.3927-8.8862v17.7739l-15.3927,8.8869Z"/>
          <path id="Path-93" class="cls-3" d="M532.82,497.7531l15.3927-8.8862v17.7739L532.82,515.527Z"/>
          <path id="Path-94" class="cls-3" d="M555.91,484.423l15.3927-8.8878v17.774L555.91,502.1969Z"/>
          <path id="Path-95" class="cls-3" d="M578.9985,471.0929l15.3927-8.8877v17.7739l-15.3927,8.8877Z"/>
          <path id="Path-96" class="cls-3" d="M509.7314,564.4049l15.3927-8.8862v17.774l-15.3927,8.8862Z"/>
          <path id="Path-97" class="cls-3" d="M532.82,551.0749l15.3927-8.8862v17.7739L532.82,568.8488Z"/>
          <path id="Path-98" class="cls-3" d="M555.91,537.7448l15.3927-8.8878v17.774L555.91,555.5187Z"/>
          <path id="Path-99" class="cls-3" d="M578.9985,524.4147l15.3927-8.8877v17.7739l-15.3927,8.8878Z"/>
          <path id="Path-100" class="cls-3" d="M509.7314,591.0666l15.3927-8.8877v17.7739l-15.3927,8.8878Z"/>
          <path id="Path-101" class="cls-3" d="M532.82,577.7366l15.3927-8.8878v17.774L532.82,595.5105Z"/>
          <path id="Path-102" class="cls-3" d="M555.91,564.4049l15.3927-8.8862v17.774L555.91,582.1789Z"/>
          <path id="Path-103" class="cls-3" d="M578.9985,551.0749l15.3927-8.8862v17.7739l-15.3927,8.8862Z"/>
        </g>
        <g id="windows-L2-3">
          <path id="Path-104" class="cls-4" d="M494.3387,431.1012l-15.3927-8.8878v17.7739l15.3927,8.8878Z"/>
          <path id="Path-105" class="cls-4" d="M471.25,417.7711l-15.3927-8.8877v17.7739L471.25,435.545Z"/>
          <path id="Path-106" class="cls-4" d="M448.1606,404.44l-15.3926-8.8862v17.7739l15.3926,8.8862Z"/>
          <path id="Path-107" class="cls-4" d="M425.0716,391.1094l-15.3927-8.8862v17.774l15.3927,8.8862Z"/>
          <path id="Path-108" class="cls-4" d="M494.3387,484.423l-15.3927-8.8878v17.774l15.3927,8.8877Z"/>
          <path id="Path-109" class="cls-4" d="M471.25,471.0929l-15.3927-8.8877v17.7739l15.3927,8.8877Z"/>
          <path id="Path-110" class="cls-4" d="M448.1606,457.7613l-15.3926-8.8862V466.649l15.3926,8.8862Z"/>
          <path id="Path-111" class="cls-4" d="M425.0716,444.4312l-15.3927-8.8862v17.774l15.3927,8.8862Z"/>
          <path id="Path-112" class="cls-4" d="M494.3387,537.7448l-15.3927-8.8871v17.7739l15.3927,8.8877Z"/>
          <path id="Path-113" class="cls-4" d="M471.25,524.4147l-15.3927-8.8871v17.7739l15.3927,8.8878Z"/>
          <path id="Path-114" class="cls-4" d="M448.1606,511.0831l-15.3926-8.8856v17.774l15.3926,8.8861Z"/>
          <path id="Path-115" class="cls-4" d="M425.0716,497.7531l-15.3927-8.8856v17.7739l15.3927,8.8862Z"/>
          <path id="Path-116" class="cls-4" d="M494.3387,457.7613l-15.3927-8.8862V466.649l15.3927,8.8862Z"/>
          <path id="Path-117" class="cls-4" d="M471.25,444.4312,455.857,435.545v17.774l15.3927,8.8862Z"/>
          <path id="Path-118" class="cls-4" d="M448.1606,431.1012l-15.3926-8.8878v17.7739l15.3926,8.8878Z"/>
          <path id="Path-119" class="cls-4" d="M425.0716,417.7711l-15.3927-8.8877v17.7739l15.3927,8.8877Z"/>
          <path id="Path-120" class="cls-4" d="M494.3387,511.0831l-15.3927-8.8856v17.774l15.3927,8.8861Z"/>
          <path id="Path-121" class="cls-4" d="M471.25,497.7531l-15.3927-8.8856v17.7739l15.3927,8.8862Z"/>
          <path id="Path-122" class="cls-4" d="M448.1606,484.423l-15.3926-8.8878v17.774l15.3926,8.8877Z"/>
          <path id="Path-123" class="cls-4" d="M425.0716,471.0929l-15.3927-8.8877v17.7739l15.3927,8.8877Z"/>
          <path id="Path-124" class="cls-4" d="M494.3387,564.4049l-15.3927-8.8862v17.774l15.3927,8.8862Z"/>
          <path id="Path-125" class="cls-4" d="M471.25,551.0749l-15.3927-8.8862v17.7739l15.3927,8.8862Z"/>
          <path id="Path-126" class="cls-4" d="M448.1606,537.7448l-15.3926-8.8871v17.7739l15.3926,8.8877Z"/>
          <path id="Path-127" class="cls-4" d="M425.0716,524.4147l-15.3927-8.8871v17.7739l15.3927,8.8878Z"/>
          <path id="Path-128" class="cls-4" d="M494.3387,591.0666l-15.3927-8.8877v17.7739l15.3927,8.8878Z"/>
          <path id="Path-129" class="cls-4" d="M471.25,577.7366l-15.3927-8.8878v17.774l15.3927,8.8877Z"/>
          <path id="Path-130" class="cls-4" d="M448.1606,564.4049l-15.3926-8.8862v17.774l15.3926,8.8862Z"/>
          <path id="Path-131" class="cls-4" d="M425.0716,551.0749l-15.3927-8.8862v17.7739l15.3927,8.8862Z"/>
        </g>
        <path id="body-L2-13" class="cls-5" d="M502.0351,639.9446,401.9826,582.1789v8.8877l100.0525,57.7657Z"/>
        <g id="body-R2-12">
          <path id="Path-132" class="cls-6" d="M502.0351,639.9446l100.0524-57.7657v8.8877L502.0351,648.8323Z"/>
          <path id="Path-133" class="cls-6" d="M495.878,663.1956v-43.07h6.037l7.8164-4.4438v47.5142L501.915,667.64Z"/>
          <path id="Path-134" class="cls-6" d="M548.2131,593.9712l7.6964-4.4438V637.04l-7.6964,4.4438Z"/>
          <path id="Path-135" class="cls-6" d="M525.1241,605.762l7.6963-4.4438v49.0534l-7.6963,4.4423Z"/>
          <path id="Path-136" class="cls-6" d="M571.3022,580.64l7.6963-4.4423V623.71l-7.6963,4.4439Z"/>
          <path id="Path-137" class="cls-6" d="M594.3912,567.31l7.6963-4.4438V610.38l-7.6963,4.4439Z"/>
        </g>
        <g id="body-L2-14">
          <path id="Path-138" class="cls-5" d="M502.0351,620.6314l-7.6964-4.4439v47.5142l7.6964,4.4438Z"/>
          <path id="Path-139" class="cls-5" d="M455.857,593.9712l-7.6964-4.4438V637.04l7.6964,4.4438Z"/>
          <path id="Path-140" class="cls-5" d="M478.946,607.3013l-7.6963-4.4439v47.5142l7.6963,4.4423Z"/>
          <path id="Path-141" class="cls-5" d="M432.768,580.64l-7.6964-4.4423V623.71l7.6964,4.4439Z"/>
          <path id="Path-142" class="cls-5" d="M409.6789,567.31l-7.6963-4.4438v45.9749l7.6963,4.4438Z"/>
        </g>
        <g id="top-T1-3">
          <path id="Path-143" class="cls-8" d="M509.7314,626.6145l7.6963-4.4439,7.6964,4.4439-15.3927,8.8862Z"/>
          <path id="Path-144" class="cls-7" d="M555.91,599.9528l7.6963-4.4423,7.6964,4.4423L555.91,608.8405Z"/>
          <path id="Path-145" class="cls-8" d="M532.82,613.2844l7.6964-4.4438,7.6963,4.4438L532.82,622.1706Z"/>
          <path id="Path-146" class="cls-7" d="M578.9985,586.6227l7.6964-4.4438,7.6963,4.4438L578.9985,595.51Z"/>
        </g>
        <g id="top-T1-4">
          <path id="Path-147" class="cls-8" d="M494.3387,626.6145l-7.6963-4.4439-7.6964,4.4439,15.3927,8.8862Z"/>
          <path id="Path-148" class="cls-8" d="M448.1606,599.9528l-7.6963-4.4423-7.6963,4.4423,15.3926,8.8877Z"/>
          <path id="Path-149" class="cls-8" d="M471.25,613.2844l-7.6964-4.4438-7.6963,4.4438,15.3927,8.8862Z"/>
          <path id="Path-150" class="cls-8" d="M425.0716,586.6227l-7.6963-4.4438-7.6964,4.4438,15.3927,8.8877Z"/>
        </g>
      </g>
      <g id="top-T1-5">
        <path id="Path-151" class="cls-10" d="M555.91,360.0054l7.6963-4.4439,7.6964,4.4439L555.91,368.8916Z"/>
        <path id="Path-152" class="cls-10" d="M578.9985,346.6753l7.6964-4.4438,7.6963,4.4438-15.3927,8.8862Z"/>
      </g>
      <g id="top-T1-6">
        <path id="Path-153" class="cls-10" d="M471.25,373.3355l-7.6964-4.4439-7.6963,4.4439,15.3927,8.8877Z"/>
      </g>
      <path id="top-T1-7" class="cls-7" d="M505.4706,303.779,604.04,360.6873a5.8952,5.8952,0,0,1,2.6658,4.6178V376.922A5.8952,5.8952,0,0,1,604.04,381.54l-98.569,56.9083a5.8958,5.8958,0,0,1-5.3317,0L401.57,381.54a5.8954,5.8954,0,0,1-2.6659-4.6178V365.3051a5.8954,5.8954,0,0,1,2.6659-4.6178l98.5689-56.9083A5.8954,5.8954,0,0,1,505.4706,303.779Z"/>
      <path id="Path-154" class="cls-11" d="M371.1972,848.5594v4.4693L502.7827,929l3.87-2.2338v-4.4693l-3.87,2.2338Z"/>
      <path id="Path-155" class="cls-12" d="M632.8729,848.788v4.4438l-130.8378,75.54v-4.4439Z"/>
      <path id="Path-156" class="cls-13" d="M505.4706,438.4481,604.04,381.54a5.8952,5.8952,0,0,0,2.6658-4.6178V363.766c0-.8467-.6-1.1932-1.3333-.77l-99.9014,57.678a5.896,5.896,0,0,1-5.3318,0L401.57,363.7659c-1.4663-.8465-2.666-.1539-2.666,1.5392V376.922A5.8955,5.8955,0,0,0,401.57,381.54l98.5689,56.9083A5.8954,5.8954,0,0,0,505.4706,438.4481Z"/>
      <path id="Path-157" class="cls-14" d="M449.1868,407.25l-20.5236-11.8489,1.2612.729a6.2887,6.2887,0,0,1,2.8436,4.9257v48.8527h0c0,5.2311,2.7583,11.0729,6.157,13.0333h0c3.3987,1.9621,6.1571.468,6.1571-3.3347h0V407.9618c0-1.6922,1.2-2.3855,2.6659-1.5406Z"/>
      <path id="Path-158" class="cls-14" d="M498.1869,437.81l-15.3927-8.8862,1.1823.6819a5.8955,5.8955,0,0,1,2.6659,4.6178v83.57h0c0,3.6773,1.724,7.6609,3.8481,8.8862h0c2.1242,1.2268,3.8482.2309,3.8482-2.2212h0V438.6673c0-1.6994,1.1943-2.389,2.6659-1.5393Z"/>
      <path id="Path-159" class="cls-14" d="M413.7836,387.7925l-16.4188-18.8981v7.9721s1.8046,3.5533,3.3356,4.5963h0a2.9472,2.9472,0,0,1,1.2822,2.3v47.2817h0c0,3.6788,1.724,7.6609,3.8481,8.8877h0c2.1242,1.2268,3.8482.2309,3.8482-2.2211V388.502c0-1.6923,1.1994-2.3851,2.6653-1.54Z"/>
      <path id="Path-160" class="cls-14" d="M484.3335,430.0329l-15.3927-8.8862,1.1823.6819a5.8952,5.8952,0,0,1,2.6658,4.6178v19.1393h0c0,3.6788,1.724,7.6609,3.8482,8.8862h0c2.1242,1.2268,3.8482.2309,3.8482-2.2212h0V430.89c0-1.6922,1.1994-2.3851,2.6653-1.54Z"/>
      <path id="Path-161" class="cls-14" d="M487.929,621.4272l-6.3171,3.648a1.6253,1.6253,0,0,0,0,3.0786l2.3646,1.3653a5.8955,5.8955,0,0,1,2.6659,4.6178v19.1377h0c0,3.6789,1.724,7.661,3.8482,8.8878h0c2.1241,1.2252,3.8481.2308,3.8481-2.2227h0V622.1706l-1.1146-.68A5.7221,5.7221,0,0,0,487.929,621.4272Z"/>
      <path id="Path-162" class="cls-14" d="M427.3805,396.6769l-15.3927-8.8877,1.1823.6834a5.8954,5.8954,0,0,1,2.6659,4.6178v83.5685h0c0,3.6788,1.724,7.6609,3.8482,8.8877h0c2.1242,1.2253,3.8481.2309,3.8481-2.2227h0V397.5328c0-1.6942,1.2-2.3866,2.6668-1.5388Z"/>
      <path id="Path-163" class="cls-14" d="M470.634,422.6077l-18.4713-10.8064,1.1351.6546a5.66,5.66,0,0,1,2.5592,4.4331v22.7817h0c0,4.7094,2.0688,9.7262,4.6178,11.198h0c2.5492,1.4718,4.6178-.2645,4.6178-3.876h0V422.3412c0-1.6927,1.1858-2.3621,2.6351-1.4874Z"/>
      <path id="Path-164" class="cls-14" d="M471.25,644.3884V630.5855l-11.5229,6.6513c-1.57.9063-2.3842,2.4381-1.8175,3.42h0a12.34,12.34,0,0,1,1.0262,5.06V666.68h0c.77,4.9057,2.9246,10.1315,5.58,11.6646h0c2.6554,1.5331,5.195-4.0375,5.195-4.0375h0V648.5014A3.8944,3.8944,0,0,1,471.25,644.3884Z"/>
      <path id="Path-165" class="cls-14" d="M464.8866,607.3875l6.3631,3.6742v8.8877l-12.1353-7.0067a2.6121,2.6121,0,0,1-1.3333-1.881h0a2.6122,2.6122,0,0,1,1.3333-1.8794l3.1056-1.7948A2.9491,2.9491,0,0,1,464.8866,607.3875Z"/>
      <path id="Path-166" class="cls-15" d="M457.7811,442.5456a9.0083,9.0083,0,0,0,3.8481,6.665"/>
      <path id="Path-167" class="cls-15" d="M461.6292,669.239a9.0089,9.0089,0,0,0,3.8482,6.665"/>
      <path id="Path-168" class="cls-15" d="M488.5665,517.7928a9.0085,9.0085,0,0,0,3.8481,6.665"/>
      <path id="Path-169" class="cls-15" d="M475.0979,446.16a9.0087,9.0087,0,0,0,3.8481,6.6651"/>
      <path id="Path-170" class="cls-15" d="M488.5665,653.85a9.0085,9.0085,0,0,0,3.8481,6.665"/>
      <path id="Path-171" class="cls-15" d="M436.6161,451.1092a9.01,9.01,0,0,0,3.8482,6.6665"/>
      <path id="Path-172" class="cls-15" d="M417.3753,476.6589a9.0085,9.0085,0,0,0,3.8481,6.665"/>
      <g id="Group-4">
        <path id="Path-173" class="cls-14" d="M448.1606,608.8406v-13.33a23.4952,23.4952,0,0,0-3.1875-1.3823,3.673,3.673,0,0,0-2.7707.2386q-4.93,2.88-6.7958,4.0006a6.0379,6.0379,0,0,0-2.6386,4.6639v46.7222h0c0,4.5771,2.4135,9.6887,5.3874,11.4055h0c2.9739,1.7154,5.3874.408,5.3874-2.9193V614.14a10.5055,10.5055,0,0,1,3.4355-4.6178Z"/>
        <path id="Path-174" class="cls-15" d="M436.6161,651.7221a9.0088,9.0088,0,0,0,3.8482,6.665"/>
      </g>
      <path id="Path-175" class="cls-15" d="M462.1945,610.3813a9.7357,9.7357,0,0,0,5.207,2.9031"/>
      <path id="Path-176" class="cls-15" d="M436.6161,607.0416v-1.7875a5.8955,5.8955,0,0,1,2.6659-4.6178l1.1823-.6835"/>
      <g id="Group-5">
        <g id="Group-6">
          <path id="Path-177" class="cls-14" d="M413.6781,615.5933l1.0313.5942a5.8983,5.8983,0,0,1,2.6659,4.6178v83.57h0c0,3.6788,1.7239,7.6609,3.8481,8.8877h0c2.1242,1.2252,3.8482.2293,3.8482-2.2227h0V604.3967l-11.3935,6.5788C411.4708,612.2485,411.4708,614.3188,413.6781,615.5933Z"/>
          <path id="Path-178" class="cls-15" d="M419.2994,703.7888a9.0085,9.0085,0,0,0,3.8481,6.665"/>
        </g>
      </g>
      <path id="Path-179" class="cls-15" d="M403.9067,431.0442a9.01,9.01,0,0,0,3.8481,6.6666"/>
      <path id="Path-180" class="cls-16" d="M502.5481,436.9213l20.5236-11.8495-1.2611.7273a6.2887,6.2887,0,0,0-2.8436,4.9257v48.8527h0c0,5.2327-2.7584,11.0729-6.1571,13.0349h0c-3.3987,1.9621-6.157.37-6.157-3.5546h0v-51.429c0-1.6941-1.2-2.3866-2.6668-1.5387Z"/>
      <path id="Path-181" class="cls-16" d="M546.7765,614.562h0a4.8859,4.8859,0,0,0-1.6419,3.9682V664.33h0c0,4.9042-2.7584,10.3794-6.1571,12.2187h0c-3.3987,1.8395-6.1571.3464-6.1571-3.3325h0V604.3967l12.1466,6.5341C547.3249,612.1992,548.1361,613.8262,546.7765,614.562Z"/>
      <path id="Path-182" class="cls-16" d="M517.4277,639.9446v5.8092a5.8986,5.8986,0,0,0,2.6659,4.6178l4.2887,2.4751a2.1911,2.1911,0,0,1,.448,3.6742l-3.5544,3.4188h0a12.4514,12.4514,0,0,1-5.7722,9.6589h0c-3.1863,1.8394-5.7723.3463-5.7723-3.3326h0V644.3884Z"/>
      <path id="Path-183" class="cls-16" d="M541.1325,417.6434l18.4712-10.6645-1.135.6546a5.66,5.66,0,0,0-2.5592,4.4331v22.64h0c0,4.708-2.0688,9.7247-4.6178,11.1965h0c-2.5492,1.4718-4.6178-.201-4.6178-3.7326h0V417.52c0-1.6945-1.2-2.3869-2.6671-1.5386Z"/>
      <path id="Path-184" class="cls-16" d="M521.2759,428.3536l15.3927-8.8862-1.1823.6819a5.8954,5.8954,0,0,0-2.6659,4.6178v83.57h0c0,3.6788-1.7239,7.6609-3.8481,8.8862h0c-2.1242,1.2268-3.8482.2309-3.8482-2.2212h0V429.211c0-1.6994-1.1943-2.389-2.6659-1.5393Z"/>
      <path id="Path-185" class="cls-16" d="M555.91,605.7866v-15.341l7.8927,4.5694c4.7053,2.7239,7.1473,7.3162,5.4476,10.2487h0a12.2965,12.2965,0,0,0-1.0262,5.0537v78.53h0c0,3.6789-1.724,7.661-3.8481,8.8878h0c-2.1242,1.2252-3.8482.2293-3.8482-2.2228h0V609.721c-.77-1.6994-1.6316-2.58-2.6937-1.9672h0C556.7715,608.3664,555.91,607.4845,555.91,605.7866Z"/>
      <path id="Path-186" class="cls-16" d="M575.15,397.7744l15.3927-8.8862-1.1823.6819a5.8952,5.8952,0,0,0-2.6658,4.6178v45.8949h0a12.109,12.109,0,0,1-5.13,9.6281h0c-1.4161.8174-2.566-.511-2.566-2.9631h0v-48.116c0-1.6994-1.1943-2.389-2.6659-1.5393Z"/>
      <path id="Path-187" class="cls-16" d="M590.2865,388.8882l16.4188-13.3316v2.9046a13.2014,13.2014,0,0,1-2.0518,2.28h0a5.79,5.79,0,0,0-2.566,4.5608V468.87h0c0,3.6789-1.7239,7.6609-3.8481,8.8877h0c-2.1242,1.2253-3.8482.2309-3.8482-2.2227h0V389.6475c0-1.6411-1.1805-2.344-2.6232-1.5621Z"/>
      <path id="Path-188" class="cls-17" d="M584.7708,441.1941a9.0091,9.0091,0,0,1-3.8482,6.6651"/>
      <path id="Path-189" class="cls-17" d="M553.9854,437.3337A9.0135,9.0135,0,0,1,550.1372,444"/>
      <path id="Path-190" class="cls-17" d="M515.5037,481.0427a9.0091,9.0091,0,0,1-3.8482,6.6651"/>
      <path id="Path-191" class="cls-17" d="M540.5168,667.028a9.0089,9.0089,0,0,1-3.8482,6.665"/>
      <path id="Path-192" class="cls-17" d="M535.5142,612.173l3.1064,1.7933a5.8954,5.8954,0,0,1,2.6658,4.6178v5.3894"/>
      <path id="Path-193" class="cls-17" d="M562.0665,598.843l1.1824.6819a5.8953,5.8953,0,0,1,2.6658,4.6178v2.8989"/>
      <path id="Path-194" class="cls-17" d="M517.4277,660.4661a9.0085,9.0085,0,0,1-3.8481,6.665"/>
      <path id="Path-195" class="cls-17" d="M530.8964,508.62a9.0089,9.0089,0,0,1-3.8482,6.665"/>
      <path id="Path-196" class="cls-17" d="M565.53,689.13a9.0094,9.0094,0,0,1-3.8482,6.6666"/>
      <path id="Path-197" class="cls-17" d="M600.1635,469.9831a9.0089,9.0089,0,0,1-3.8482,6.665"/>
      <g id="Group-7">
        <path id="Path-198" class="cls-16" d="M578.9985,622.1706V603.85l10.7315,6.1964c3.1395,1.811,4.4607,4.6991,2.95,6.4428h0a8.7634,8.7634,0,0,0-1.3677,4.8633v80.8018h0c0,3.6789-1.724,7.661-3.8482,8.8863h0c-2.1242,1.2268-3.8482.2308-3.8482-2.2212h0V623.0281c-.77-1.6994-1.9639-2.389-3.4355-1.5393Z"/>
        <path id="Path-199" class="cls-17" d="M588.6189,703.2655a9.0087,9.0087,0,0,1-3.8481,6.665"/>
      </g>
      <path id="Path-200" class="cls-18" d="M486.6424,284.4658v8.8862l15.3927,8.8877V293.352Z"/>
      <path id="Path-201" class="cls-19" d="M517.4277,284.4658v8.8862L502.0351,302.24V293.352Z"/>
      <path id="Path-202" class="cls-20" d="M445.7962,356.9269l50.907-29.39a11.79,11.79,0,0,1,10.6637,0l50.907,29.3908c2.9433,1.6993,2.9433,4.4577,0,6.1571l-50.907,29.3908a11.7909,11.7909,0,0,1-10.6637,0l-50.907-29.3908C442.8529,361.3852,442.8529,358.6262,445.7962,356.9269Z"/>
      <path id="Path-203" class="cls-14" d="M502.0351,324.4581v17.774l43.5122,25.1208a1.6254,1.6254,0,0,1,0,3.0786l-1.1823.6834,13.9089-8.03c2.9433-1.6994,2.9433-4.4578,0-6.1571Z"/>
      <path id="Path-204" class="cls-16" d="M502.0351,324.4581v17.774l-43.5123,25.1208a1.6254,1.6254,0,0,0,0,3.0786l1.1824.6834-13.909-8.03c-2.9433-1.6994-2.9433-4.4578,0-6.1571Z"/>
      <path id="Path-205" class="cls-21" d="M505.8832,375.5566h0c-2.1242-1.2252-2.0563-3.2555.151-4.53l7.3944-4.2684a8.6787,8.6787,0,0,1,7.8473-.0878h0c2.1242,1.2268,2.0563,3.2556-.151,4.53l-7.3943,4.27A8.6789,8.6789,0,0,1,505.8832,375.5566Z"/>
      <path id="Path-206" class="cls-20" d="M509.7314,404.44h0a8.5164,8.5164,0,0,0-7.6963,0h0c-2.1242,1.2268-2.1242,3.217,0,4.4438h0a8.5071,8.5071,0,0,0,7.6963,0h0C511.8556,407.6566,511.8556,405.6663,509.7314,404.44Z"/>
      <path id="Path-207" class="cls-20" d="M519.4269,398.8427l42.18-24.3528a4.3365,4.3365,0,0,1,3.9233-.0431h0c1.0621.6127,1.0282,1.627-.0751,2.2643l-42.18,24.3528a4.3365,4.3365,0,0,1-3.9233.0431h0C518.29,400.4943,518.3236,399.4784,519.4269,398.8427Z"/>
      <path id="Path-208" class="cls-20" d="M430.919,347.7421l38.3315-22.13a4.34,4.34,0,0,1,3.9233-.0446h0c1.0621.6141,1.0282,1.6285-.0751,2.2658l-38.3315,22.13a4.3408,4.3408,0,0,1-3.9233.0447h0C429.7818,349.3943,429.8156,348.3793,430.919,347.7421Z"/>
      <path id="Path-209" class="cls-20" d="M490.4905,402.2183h0c2.1242-1.2268,2.0564-3.2571-.151-4.53l-7.3943-4.27a8.6837,8.6837,0,0,0-7.8473-.0877h0c-2.1242,1.2268-2.0564,3.2571.151,4.5316l7.3943,4.2684A8.679,8.679,0,0,0,490.4905,402.2183Z"/>
      <path id="Path-210" class="cls-21" d="M527.1233,385.5111,546.2139,374.49a4.3365,4.3365,0,0,1,3.9233-.0431h0c1.0621.6127,1.0282,1.627-.0751,2.2643l-19.0906,11.0227a4.3408,4.3408,0,0,1-3.9233.0431h0C525.9861,387.1643,526.02,386.1483,527.1233,385.5111Z"/>
      <path id="Path-211" class="cls-21" d="M492.4146,392.2208h0c1.0621-.6142,1.0283-1.6286-.0751-2.2658l-7.5461-4.3562a4.3365,4.3365,0,0,0-3.9233-.0431h0c-1.0621.6127-1.0282,1.6271.0751,2.2643l7.5461,4.3561A4.3408,4.3408,0,0,0,492.4146,392.2208Z"/>
      <path id="Path-212" class="cls-7" d="M507.8073,383.333h0c1.0621-.6126,1.0282-1.6285-.0751-2.2658L492.49,372.2688a4.3408,4.3408,0,0,0-3.9233-.0447h0c-1.0621.6142-1.0283,1.6286.0751,2.2658l15.2424,8.8A4.3358,4.3358,0,0,0,507.8073,383.333Z"/>
      <path id="Path-213" class="cls-7" d="M500.1861,369.96,511.58,363.381c1.1033-.6372,1.137-1.6516.0751-2.2658h0a4.3408,4.3408,0,0,0-3.9233.0447l-11.3943,6.5773c-1.1033.6372-1.137,1.6531-.0751,2.2658h0A4.3408,4.3408,0,0,0,500.1861,369.96Z"/>
      <path id="Path-214" class="cls-22" d="M484.7183,338.8989h0c1.0621-.6141,1.9241-.0769,1.9241,1.1976v4.27a4.341,4.341,0,0,1-1.9241,3.4188h0c-1.0621.6126-1.9241.0769-2.6937-1.1976v-4.27A10.1219,10.1219,0,0,1,484.7183,338.8989Z"/>
      <path id="Path-215" class="cls-23" d="M545.1346,348.8965l-4.6178-2.2212v11.0212a4.3372,4.3372,0,0,0,1.9241,3.4187h0c1.0621.6142,1.9241.077,2.6937-1.1975Z"/>
      <path id="Path-216" class="cls-23" d="M552.8309,353.32l-4.6178-2.2212v6.5973a4.3376,4.3376,0,0,0,1.9241,3.4187h0c1.0621.6142,1.9241.077,2.6937-1.1975Z"/>
      <path id="Path-217" class="cls-22" d="M463.5533,346.6753l4.6178-2.2227v6.5789a10.1214,10.1214,0,0,1-2.6937,3.4187h0c-1.0621.6142-1.9241.077-1.9241-1.1976Z"/>
      <path id="Path-218" class="cls-21" d="M423.1475,365.5591h0c1.0621-.6126,1.0283-1.6286-.0751-2.2643l-7.5461-4.357a4.3408,4.3408,0,0,0-3.9233-.0431h0c-1.0621.6126-1.0282,1.6285.0751,2.2658l7.5461,4.3561A4.3365,4.3365,0,0,0,423.1475,365.5591Z"/>
      <path id="Path-219" class="cls-20" d="M465.4774,389.9981h0c1.0621-.6127,1.0283-1.627-.0751-2.2643L442.4635,374.49a4.3365,4.3365,0,0,0-3.9233-.0431h0c-1.0621.6127-1.0282,1.627.0751,2.2643l22.9388,13.2439A4.3365,4.3365,0,0,0,465.4774,389.9981Z"/>
      <path id="Path-220" class="cls-20" d="M553.9854,338.8989h0c1.0621-.6141,1.0282-1.6285-.0751-2.2658l-22.9388-13.2438a4.3408,4.3408,0,0,0-3.9233-.0431h0c-1.0621.6126-1.0282,1.6285.0751,2.2658l22.9388,13.2423A4.34,4.34,0,0,0,553.9854,338.8989Z"/>
      <path id="Path-221" class="cls-20" d="M453.9329,374.4468h0c1.0621-.6141,1.0282-1.6285-.0751-2.2658l-18.424-10.6363a1.6254,1.6254,0,0,1,0-3.0786l18.424-10.6363c1.1033-.6373,1.137-1.6532.0751-2.2658h0a4.3408,4.3408,0,0,0-3.9233.0431l-20.9388,12.0894c-2.2073,1.2745-2.2073,3.3433,0,4.6178L450.01,374.4022A4.3405,4.3405,0,0,0,453.9329,374.4468Z"/>
      <path id="Path-222" class="cls-20" d="M567.454,366.67h0a8.6787,8.6787,0,0,0,7.8473-.0877l4.7284-2.7291c3.6788-2.1242,3.6788-5.5722,0-7.6964l-16.2729-9.3957a8.6793,8.6793,0,0,0-7.8473-.0862h0c-2.1242,1.2253-2.0563,3.2556.151,4.53l9.91,5.7215c2.9432,1.6993,3.3619,4.216.9343,5.6168h0C565.0835,363.595,565.33,365.4436,567.454,366.67Z"/>
      <path id="Path-223" class="cls-21" d="M584.7708,365.5591h0a1.1735,1.1735,0,0,0,0,2.2227h0a4.2584,4.2584,0,0,0,3.8481,0h0a1.1735,1.1735,0,0,0,0-2.2227h0A4.2584,4.2584,0,0,0,584.7708,365.5591Z"/>
      <path id="Path-224" class="cls-21" d="M485.8464,356.9561h0a1.1735,1.1735,0,0,0,0,2.2227h0a4.258,4.258,0,0,0,3.8482,0h0a1.1741,1.1741,0,0,0,0-2.2227h0A4.2586,4.2586,0,0,0,485.8464,356.9561Z"/>
      <path id="Path-225" class="cls-21" d="M419.2994,354.4825h0a1.1724,1.1724,0,0,0,0,2.2212h0a4.2584,4.2584,0,0,0,3.8481,0h0a1.1724,1.1724,0,0,0,0-2.2212h0A4.2485,4.2485,0,0,0,419.2994,354.4825Z"/>
      <path id="Path-226" class="cls-16" d="M585.3615,583.0055l-6.363,3.6727v8.8877l12.1353-7.0068a2.6123,2.6123,0,0,0,1.3333-1.8809h0a2.6125,2.6125,0,0,0-1.3333-1.8795l-3.1056-1.7933A2.949,2.949,0,0,0,585.3615,583.0055Z"/>
      <path id="Path-227" class="cls-17" d="M588.0537,585.9978a9.0115,9.0115,0,0,1-6.5659,4.0144"/>
      <path id="Path-228" class="cls-17" d="M585.1556,612.173l1.1823.6819a5.8955,5.8955,0,0,1,2.6659,4.6178v1.883"/>
      <path id="Path-229" class="cls-16" d="M572.8414,858.0359v5.8077a2.9485,2.9485,0,0,0,1.3333,2.3089l5.03,2.9046a2.9491,2.9491,0,0,0,2.6666,0l5.03-2.9046a2.9485,2.9485,0,0,0,1.3333-2.3089V862.48a2.9484,2.9484,0,0,0-1.3333-2.3089l-5.03-2.9046a2.9484,2.9484,0,0,1-1.3333-2.3089v-1.3653c0-.85-.5976-1.1945-1.3333-.77l-5.03,2.9046A2.9484,2.9484,0,0,0,572.8414,858.0359Z"/>
      <path id="Path-230" class="cls-14" d="M439.965,865.4279l.1908.3817a3.5347,3.5347,0,0,0,2.2044,1.6655l2.7495.5295a10.9335,10.9335,0,0,1,2.8447,1.0606l6.3028,3.6388a8.1973,8.1973,0,0,1,2.212,2.0349l.8193,1.1791a3.2912,3.2912,0,0,0,2.4167,1.2653h.77a6.7863,6.7863,0,0,1,2.8726.77l12.726,7.3469a2.9484,2.9484,0,0,1,1.3334,2.3089v3.5865a2.9481,2.9481,0,0,1-1.3334,2.3089l-1.1815.6835a2.9491,2.9491,0,0,1-2.6666,0l-15.2417-8.8-5.3317-3.0785-.4406-.254a21.3863,21.3863,0,0,0-5.552-2.0949h0a21.3916,21.3916,0,0,1-5.552-2.095l-15.2417-8.8a2.6124,2.6124,0,0,1-1.3333-1.8809h0a2.6127,2.6127,0,0,1,1.3333-1.88l3.1057-1.7933a2.8935,2.8935,0,0,0,1.3333-2.2519h0c0-1.6347,1.1943-2.272,2.6659-1.4223l5.9692,3.4464A6.0455,6.0455,0,0,1,439.965,865.4279Z"/>
      <path id="Path-231" class="cls-15" d="M440.7657,873.2639a9.0047,9.0047,0,0,0,7.3949,2.1334"/>
      <path id="Path-232" class="cls-15" d="M469.71,889.891l1.1829.6823c1.4659.8454,2.6653.1526,2.6653-1.54v-1.8451"/>
      <path id="Path-233" class="cls-17" d="M578.9985,866.5619l.5908.3417a2.9491,2.9491,0,0,0,2.6666,0l2.5149-1.4515"/>
    </g>
    <g id="Group-8">
      <g id="Group-9">
        <path id="Path-234" class="cls-24" d="M525.1241,383.436l-3.0779,1.7766-3.0792-1.7766V332.3523l3.0792,1.7766,3.0779-1.7766Z"/>
        <path id="Path-235" class="cls-25" d="M519.0046,387.0646l3.041-1.9132v-51.06l-3.0786-1.7762Z"/>
      </g>
      <path id="Path-236" class="cls-19" d="M473.4879,373.6926l11.7581-6.7882-11.7581-6.7882-11.7572,6.7882Z"/>
      <g id="Group-10">
        <path id="Path-237" class="cls-24" d="M475.8675,368.15l-3.0792,1.7765L469.71,368.15V311.2751l3.0779,1.7765,3.0792-1.7765Z"/>
        <path id="Path-238" class="cls-25" d="M469.71,368.1554l3.0785,1.7769V313.0459l-3.0785-1.777Z"/>
      </g>
      <path id="Path-239" class="cls-25" d="M462.0141,366.7035V368.48l12.3141,7.11v-1.7766Z"/>
      <path id="Path-240" class="cls-24" d="M485.1031,366.7038V368.48L472.7889,375.59V373.813Z"/>
      <path id="Path-241" class="cls-18" d="M474.2237,371.5715h0a.4491.4491,0,0,0,0-.85h0a1.6269,1.6269,0,0,0-1.47,0h0a.4489.4489,0,0,0,0,.85h0A1.6269,1.6269,0,0,0,474.2237,371.5715Z"/>
      <path id="Path-242" class="cls-18" d="M481.5722,367.3277h0a.4479.4479,0,0,0,0-.8481h0a1.6273,1.6273,0,0,0-1.47,0h0a.4473.4473,0,0,0,0,.8481h0A1.618,1.618,0,0,0,481.5722,367.3277Z"/>
      <path id="Path-243" class="cls-18" d="M466.8754,367.3277h0a.4481.4481,0,0,0,0-.8481h0a1.6273,1.6273,0,0,0-1.47,0h0a.4478.4478,0,0,0,0,.8481h0A1.618,1.618,0,0,0,466.8754,367.3277Z"/>
      <path id="Path-244" class="cls-19" d="M504.35,355.8746l11.7587-6.7882L504.35,342.2983l-11.7565,6.7881Z"/>
      <g id="Group-11">
        <path id="Path-245" class="cls-24" d="M508.1925,350.3353l-3.08,1.7768-3.0778-1.7768V293.4526l3.0774,1.7784,3.08-1.7784Z"/>
        <path id="Path-246" class="cls-25" d="M502.0351,350.3447l3.0785,1.7774v-56.9l-3.0785-1.779Z"/>
      </g>
      <path id="Path-247" class="cls-25" d="M492.7994,348.8852v1.7768l12.3142,7.11v-1.7767Z"/>
      <path id="Path-248" class="cls-24" d="M515.8885,348.8861v1.7764l-12.3142,7.1088v-1.7764Z"/>
      <path id="Path-249" class="cls-18" d="M505.0857,353.7529h0a.4489.4489,0,0,0,0-.85h0a1.6269,1.6269,0,0,0-1.47,0h0a.4492.4492,0,0,0,0,.85h0A1.6269,1.6269,0,0,0,505.0857,353.7529Z"/>
      <path id="Path-250" class="cls-18" d="M512.4342,349.5107h0a.449.449,0,0,0,0-.85h0a1.6273,1.6273,0,0,0-1.47,0h0a.4488.4488,0,0,0,0,.85h0A1.6279,1.6279,0,0,0,512.4342,349.5107Z"/>
      <path id="Path-251" class="cls-18" d="M497.7374,349.5107h0a.4489.4489,0,0,0,0-.85h0a1.6271,1.6271,0,0,0-1.47,0h0a.4492.4492,0,0,0,0,.85h0A1.6277,1.6277,0,0,0,497.7374,349.5107Z"/>
      <path id="Path-252" class="cls-16" d="M510.2289,342.89h0c14.6013,12.1756,26.4533,3.7065,26.4533-18.9007h0c0-3.6173-2.7584-9.739-6.1571-13.6641l-5.5994-6.4649Z"/>
      <path id="Path-253" class="cls-14" d="M515.6327,200.3432h0c-1.558.9374-2.8228.117-2.8228-1.83v-6.52a15.1869,15.1869,0,0,0-1.6786-6.4342h0a8.6179,8.6179,0,0,0-11.8327-2.8623l-43.5019,25.115a16.8819,16.8819,0,0,0-7.6361,13.2238v94.6795a34.3727,34.3727,0,0,0,1.4172,9.3365h0c2.4354,7.0265,10.9386,9.715,18.9782,6.0011h0c8.0411-3.7139,20.0951-1.9424,26.9025,3.9534l10.9751,9.5044h0c16.0807,11.14,29.1353,5.9218,29.1353-11.65h0a3.7687,3.7687,0,0,0-1.82-2.8594h0c-2.21-1.2771-4.0068-5.1848-4.0068-8.7232v-.77c0-3.5681,1.3257-5.6692,2.9572-4.6887h0c1.4822.8928,2.06-.9358,1.2874-4.0775l-1.8827-7.664a44.51,44.51,0,0,1,1.6388-23.2861l1.6431-4.0836,1.95-2.3444a16.4274,16.4274,0,0,0,3.2185-10.3007l-1.3344-16.39a59.9319,59.9319,0,0,0-5.3175-18.7806l-13.858-27.1312a3.1307,3.1307,0,0,0-4.2755-1.4924Q515.7,200.3041,515.6327,200.3432Z"/>
      <path id="Path-254" class="cls-16" d="M541.1068,250.5807l-.33-3.9944a72.3327,72.3327,0,0,0-10.1376-29.006q-11.26-16.8117-11.2612-16.8119a4.3932,4.3932,0,0,0-4.2157-2.4028h-4.7042a3.4633,3.4633,0,0,1-3.5264-3.394h0a6.4978,6.4978,0,0,1,2.94-5.09h0a3.3811,3.3811,0,0,0,1.2589-4.607h0a8.62,8.62,0,0,0-11.8354-2.8631l-43.5148,25.1225c-4.202,2.4259-4.2008,6.3935.0028,8.8169l1.1881.6849a6.2969,6.2969,0,0,0,6.1865.1786h0a5.5894,5.5894,0,0,1,5.5624-.1816h0a6.4978,6.4978,0,0,1,2.94,5.0909h0a14.2073,14.2073,0,0,0,2.3428,6.7774l4.7268,6.8221a23.19,23.19,0,0,0,12.7688,8.32l6.6681,1.2838a9.1377,9.1377,0,0,0,5.4318-.9144l.7863-.454a5.6314,5.6314,0,0,1,5.092,0l.7869.454A5.6273,5.6273,0,0,1,512.81,248.82v.91a5.829,5.829,0,0,0,2.5058,4.4747c.97.5941,2.3923,1.293,6.3127,3.5557a27.6646,27.6646,0,0,0,6.1662,2.8538c4.7072,1.2345,10.1533-.5649,12.1525-4.016h0A12.12,12.12,0,0,0,541.1068,250.5807Z"/>
      <path id="Mask" class="cls-14" d="M487.6518,260.484h0a1.9,1.9,0,0,0,0,3.5988h0a6.8879,6.8879,0,0,0,6.2341,0h0a1.9,1.9,0,0,0,0-3.5988h0A6.8972,6.8972,0,0,0,487.6518,260.484Z"/>
      <path id="Mask-2" class="cls-14" d="M467.4323,246.9076h0a1.9007,1.9007,0,0,0,0,3.6h0a6.8958,6.8958,0,0,0,6.234,0h0a1.9011,1.9011,0,0,0,0-3.6h0A6.8958,6.8958,0,0,0,467.4323,246.9076Z"/>
      <g id="Group-12">
        <path id="Mask-3" class="cls-14" d="M484.9415,200.7726h0c-3.2447,1.8733-3.2447,4.9149,0,6.7867h0a13.0009,13.0009,0,0,0,11.7572,0h0c3.2446-1.8718,3.2446-4.9134,0-6.7867h0A13.0015,13.0015,0,0,0,484.9415,200.7726Z"/>
        <g class="cls-26">
          <path id="Path-255" class="cls-27" d="M485.448,207.2684h0c-3.2446,1.8733-3.2446,4.9148,0,6.7881h0a13.0087,13.0087,0,0,0,11.7565,0h0c3.2439-1.8733,3.2439-4.9148,0-6.7881h0A12.9994,12.9994,0,0,0,485.448,207.2684Z"/>
        </g>
        <path id="Mask-4" class="cls-14" d="M485.8772,221.59h0a1.9,1.9,0,0,0,0,3.5988h0a6.897,6.897,0,0,0,6.234,0h0a1.9,1.9,0,0,0,0-3.5988h0A6.8976,6.8976,0,0,0,485.8772,221.59Z"/>
        <g class="cls-28">
          <path id="Path-256" class="cls-27" d="M485.8772,224.1341h0a1.9,1.9,0,0,0,0,3.5988h0a6.8871,6.8871,0,0,0,6.234,0h0a1.9,1.9,0,0,0,0-3.5988h0A6.8976,6.8976,0,0,0,485.8772,224.1341Z"/>
        </g>
        <path id="Mask-5" class="cls-22" d="M506.8085,213.1053h0a1.9,1.9,0,0,0,0,3.5988h0a6.8958,6.8958,0,0,0,6.234,0h0a1.9,1.9,0,0,0,0-3.5988h0A6.8859,6.8859,0,0,0,506.8085,213.1053Z"/>
        <path id="Mask-6" class="cls-22" d="M515.0279,242.3206h0a1.3677,1.3677,0,0,0,0,2.5921h0a4.9658,4.9658,0,0,0,4.4916,0h0a1.3682,1.3682,0,0,0,0-2.5921h0A4.9658,4.9658,0,0,0,515.0279,242.3206Z"/>
        <path id="Mask-7" class="cls-22" d="M491.1572,192.3959h0a1.3679,1.3679,0,0,0,0,2.5922h0a4.9631,4.9631,0,0,0,4.49,0h0a1.3681,1.3681,0,0,0,0-2.5922h0A4.9631,4.9631,0,0,0,491.1572,192.3959Z"/>
        <path id="Mask-8" class="cls-22" d="M498.4732,193.5165h0a.71.71,0,0,0,0,1.3454h0a2.5769,2.5769,0,0,0,2.3292,0h0a.71.71,0,0,0,0-1.3454h0A2.5769,2.5769,0,0,0,498.4732,193.5165Z"/>
        <path id="Mask-9" class="cls-22" d="M523.4571,242.13h0a.71.71,0,0,0,0,1.3453h0a2.5763,2.5763,0,0,0,2.3292,0h0a.71.71,0,0,0,0-1.3453h0A2.5769,2.5769,0,0,0,523.4571,242.13Z"/>
        <path id="Mask-10" class="cls-14" d="M465.6594,208.0134h0a1.9006,1.9006,0,0,0,0,3.6h0a6.8958,6.8958,0,0,0,6.234,0h0a1.9011,1.9011,0,0,0,0-3.6h0A6.8958,6.8958,0,0,0,465.6594,208.0134Z"/>
        <g class="cls-29">
          <path id="Path-257" class="cls-27" d="M465.6594,210.5578h0a1.9006,1.9006,0,0,0,0,3.6h0a6.8958,6.8958,0,0,0,6.234,0h0a1.9011,1.9011,0,0,0,0-3.6h0A6.8958,6.8958,0,0,0,465.6594,210.5578Z"/>
        </g>
        <path id="Mask-11" class="cls-14" d="M520.035,247.0462h0a1.9,1.9,0,0,0,0,3.5988h0a6.8976,6.8976,0,0,0,6.234,0h0a1.9,1.9,0,0,0,0-3.5988h0A6.8871,6.8871,0,0,0,520.035,247.0462Z"/>
        <g class="cls-30">
          <path id="Path-258" class="cls-27" d="M520.035,249.5906h0a1.9,1.9,0,0,0,0,3.5988h0a6.8976,6.8976,0,0,0,6.234,0h0a1.9,1.9,0,0,0,0-3.5988h0A6.8877,6.8877,0,0,0,520.035,249.5906Z"/>
        </g>
      </g>
      <g id="Group-13">
        <path id="Mask-12" class="cls-16" d="M456.9345,242.1005h0c1.8714,3.2448,4.9132,3.2448,6.7862,0h0a12.998,12.998,0,0,0,0-11.757h0c-1.873-3.2447-4.9148-3.2447-6.7862,0h0A12.9974,12.9974,0,0,0,456.9345,242.1005Z"/>
        <g class="cls-31">
          <path id="Path-259" class="cls-27" d="M463.43,241.5956h0c1.8737,3.2432,4.9147,3.2432,6.7869,0h0a13.0055,13.0055,0,0,0,0-11.7585h0c-1.8722-3.2432-4.9132-3.2432-6.7869,0h0A12.3822,12.3822,0,0,0,463.43,241.5956Z"/>
        </g>
        <path id="Mask-13" class="cls-23" d="M522.6319,346.8647h0a1.6454,1.6454,0,0,0,3.1168,0h0a5.9788,5.9788,0,0,0,0-5.4h0a1.6459,1.6459,0,0,0-3.1168,0h0A5.97,5.97,0,0,0,522.6319,346.8647Z"/>
        <path id="Mask-14" class="cls-23" d="M455.1708,258.9786h0a1.1278,1.1278,0,0,0,2.136,0h0a4.0927,4.0927,0,0,0,0-3.702h0a1.1273,1.1273,0,0,0-2.136,0h0A4.0927,4.0927,0,0,0,455.1708,258.9786Z"/>
        <path id="Mask-15" class="cls-23" d="M528.8828,342.97h0a1.1289,1.1289,0,0,0,2.1384,0h0a4.0974,4.0974,0,0,0,0-3.7019h0a1.13,1.13,0,0,0-2.1384,0h0A4.0974,4.0974,0,0,0,528.8828,342.97Z"/>
        <path id="Mask-16" class="cls-16" d="M454.2809,274.5129h0c1.2161,2.1072,3.192,2.1072,4.408,0h0a8.4472,8.4472,0,0,0,0-7.6363h0c-1.216-2.1073-3.1919-2.1073-4.408,0h0A8.4392,8.4392,0,0,0,454.2809,274.5129Z"/>
        <g class="cls-32">
          <path id="Path-260" class="cls-27" d="M458.5,274.1856h0c1.216,2.1073,3.1928,2.1073,4.4089,0h0a8.4485,8.4485,0,0,0,0-7.6363h0c-1.216-2.1072-3.1929-2.1072-4.4089,0h0A8.4392,8.4392,0,0,0,458.5,274.1856Z"/>
        </g>
        <g id="Group-14">
          <path id="Path-261" class="cls-23" d="M465.7916,220.24h0c-13.0643-1.5085-19.4273,9.5127-14.2015,24.5975h0C450.9146,232.4739,457.279,221.4512,465.7916,220.24Z"/>
        </g>
      </g>
      <path id="Mask-17" class="cls-23" d="M528.09,275.1455a6.6026,6.6026,0,0,0,5.5986-2.5644c1.2656-1.5516.6756-2.9708-1.3176-3.1663q-24.182-2.38-39.9736-13.03c-15.79-10.65-23.2228-4.78-28.5487,18.1394s-16.4546,56.9154,15.5283,44.338a24.893,24.893,0,0,1,19.3522,4.8194c7.0529,5.5122,32.92,10.4717,24.0727-8.2489C514.5972,298.076,514.86,285.3262,528.09,275.1455Z"/>
      <path id="Mask-18" d="M528.6952,272.51a72.7813,72.7813,0,0,1-33.61-10.61c-14.7831-9.2064-21.8639-3.95-27.1491,16.3055s-14.8929,46.3427,16.0853,34.7166q12.2391-1.5084,18.21,4.0283c5.9706,5.5368,23.3618,11.5553,18.9176-6.2017q-4.4454-17.7571,8.8523-35.3524C531.1008,273.9393,530.516,272.6473,528.6952,272.51Z"/>
      <g class="cls-33">
        <g>
          <path id="Path-262" class="cls-34" d="M510.3057,326.7941q-1.1748-44.76-49.8309-41.7973l-.6531,39.0928Z"/>
          <path id="Path-263" class="cls-6" d="M522.8306,266.2932l-9.646,14.3229a1.18,1.18,0,0,1-.7667.451q-29.72,2.586-42.7424-18.4543l10.4117-11.9294Z"/>
        </g>
      </g>
    </g>
  </g>
</svg>
