<svg id="Layer_1" data-name="Layer 1" xmlns="http://www.w3.org/2000/svg" viewBox="0 0 740.0181 513.855">
  <defs>
    <style>
      .cls-1 {
        fill: #e8e8e8;
      }

      .cls-2 {
        fill: #d1d1d1;
      }

      .cls-3 {
        fill: #a2a2a2;
      }

      .exterior-R-dark {
        fill: #a64c49;
      }

      .window-R-prim {
        fill: #bd9664;
      }

      .cls-4 {
        fill: #2e2e2e;
      }

      .exterior-R-light {
        fill: #df5d58;
      }

      .top-light {
        fill: #ffc8c6;
      }

      .cls-5 {
        fill: #445c5e;
      }

      .exterior-L-light {
        fill: #8a3a37;
      }

      .cls-6 {
        fill: #385153;
      }

      .exterior-L-dark {
        fill: #512220;
      }

      .cls-7 {
        fill: #c3b8ad;
      }

      .top-prim {
        fill: #dd8a87;
      }

      .window-L-prim {
        fill: #4d3b24;
      }

      .exterior-R-prim {
        fill: #d05752;
      }

      .cls-8 {
        fill: #bda165;
      }

      .cls-9 {
        fill: #464646;
      }

      .slope-L-prim-dark {
        fill: #ae9a76;
      }

      .slope-R-prim-dark {
        fill: #dfcaa3;
      }

      .slope-top-prim {
        fill: #fff1d8;
      }

      .slope-L-prim {
        fill: #c3af8a;
      }

      .slope-R-prim {
        fill: #eed9b3;
      }

      .slope-top-prim-dark {
        fill: #f0e1c6;
      }

      .cls-10 {
        fill: none;
        stroke: #b5a99e;
        stroke-linecap: round;
        stroke-linejoin: round;
        stroke-width: 0.6px;
      }

      .exterior-L-prim {
        fill: #73302e;
      }

      .cls-11 {
        fill: #2f4546;
      }
    </style>
  </defs>
  <title>Artboard 7</title>
  <g id="root">
    <path class="cls-1" d="M0,314.67,405.0181,80.829l335,193.413L335,508.082Z"/>
    <path class="cls-2" d="M335,508.082v5.773l405.0181-233.84v-5.773Z"/>
    <path class="cls-3" d="M335.0181,508.069v5.773L.0181,320.43v-5.774Z"/>
    <path class="exterior-R-dark" d="M696.2681,274.963V171.04l-360,207.846V482.81Z"/>
    <g>
      <path class="window-R-prim" d="M605.0181,246.818v20.207l-25,14.434V261.251Z"/>
      <path class="cls-4" d="M580.0181,280.015l25-14.434v1.444l-25,14.434Z"/>
      <path class="cls-4" d="M605.0181,246.818l-1.25.721v20.208l1.25-.722Z"/>
      <path class="cls-4" d="M580.0181,272.077l25-14.434V256.2l-25,14.433Z"/>
      <path class="cls-4" d="M580.0181,262.695l25-14.434v-1.443l-25,14.433Z"/>
      <path class="cls-4" d="M596.2681,251.869l-1.25.722v20.207l1.25-.721Z"/>
      <path class="cls-4" d="M587.5181,256.921l-1.25.722V277.85l1.25-.722Z"/>
    </g>
    <g>
      <path class="window-R-prim" d="M645.0181,223.724v20.207l-25,14.434V238.157Z"/>
      <path class="cls-4" d="M620.0181,256.921l25-14.434v1.444l-25,14.434Z"/>
      <path class="cls-4" d="M645.0181,223.724l-1.25.721v20.208l1.25-.722Z"/>
      <path class="cls-4" d="M620.0181,248.983l25-14.434v-1.443l-25,14.433Z"/>
      <path class="cls-4" d="M620.0181,239.601l25-14.434v-1.443l-25,14.433Z"/>
      <path class="cls-4" d="M636.2681,228.775l-1.25.722v20.207l1.25-.721Z"/>
      <path class="cls-4" d="M627.5181,233.827l-1.25.722v20.207l1.25-.722Z"/>
    </g>
    <g>
      <path class="window-R-prim" d="M685.0181,200.63v20.207l-25,14.434V215.063Z"/>
      <path class="cls-4" d="M660.0181,233.827l25-14.434v1.444l-25,14.434Z"/>
      <path class="cls-4" d="M685.0181,200.63l-1.25.721v20.208l1.25-.722Z"/>
      <path class="cls-4" d="M660.0181,225.889l25-14.434v-1.443l-25,14.433Z"/>
      <path class="cls-4" d="M660.0181,216.507l25-14.434V200.63l-25,14.433Z"/>
      <path class="cls-4" d="M676.2681,205.681l-1.25.722V226.61l1.25-.721Z"/>
      <path class="cls-4" d="M667.5181,210.733l-1.25.722v20.207l1.25-.722Z"/>
    </g>
    <path class="window-R-prim" d="M605.0181,278.572v49.075l-25,14.433V293.006Z"/>
    <path class="cls-4" d="M580.0181,313.213l25-14.434v1.444l-25,14.433Z"/>
    <path class="cls-4" d="M605.0181,278.572l-1.25.722v21.65l1.25-.721Z"/>
    <path class="cls-4" d="M580.0181,294.449l25-14.434v-1.443l-25,14.434Z"/>
    <path class="cls-4" d="M596.2681,283.624l-1.25.721v21.651l1.25-.722Z"/>
    <path class="cls-4" d="M587.5181,288.675l-1.25.722v21.651l1.25-.722Z"/>
    <path class="cls-4" d="M586.2681,315.378l1.25-.722v15.877l-1.25.722Z"/>
    <path class="cls-4" d="M596.2681,309.604l-1.25.722v15.877l1.25-.721Z"/>
    <path class="cls-4" d="M605.0181,320.43v-1.444l-25,14.434v1.444Z"/>
    <path class="cls-4" d="M605.0181,304.553l-25,14.433v1.444l25-14.434Z"/>
    <path class="window-R-prim" d="M645.0181,255.478v49.075l-25,14.433V269.912Z"/>
    <path class="cls-4" d="M620.0181,290.119l25-14.434v1.444l-25,14.433Z"/>
    <path class="cls-4" d="M645.0181,255.478l-1.25.722v21.65l1.25-.722Z"/>
    <path class="cls-4" d="M620.0181,271.355l25-14.434v-1.443l-25,14.434Z"/>
    <path class="cls-4" d="M636.2681,260.53l-1.25.721v21.651l1.25-.722Z"/>
    <path class="cls-4" d="M627.5181,265.581l-1.25.722v21.651l1.25-.722Z"/>
    <path class="cls-4" d="M626.2681,292.284l1.25-.722v15.877l-1.25.722Z"/>
    <path class="cls-4" d="M636.2681,286.51l-1.25.722v15.877l1.25-.721Z"/>
    <path class="cls-4" d="M645.0181,297.336v-1.444l-25,14.434v1.444Z"/>
    <path class="cls-4" d="M645.0181,281.459l-25,14.433v1.444l25-14.434Z"/>
    <path class="window-R-prim" d="M685.0181,232.384v49.075l-25,14.433V246.818Z"/>
    <path class="cls-4" d="M660.0181,267.025l25-14.434v1.444l-25,14.433Z"/>
    <path class="cls-4" d="M685.0181,232.384l-1.25.722v21.65l1.25-.721Z"/>
    <path class="cls-4" d="M660.0181,248.261l25-14.434v-1.443l-25,14.434Z"/>
    <path class="cls-4" d="M676.2681,237.436l-1.25.721v21.651l1.25-.722Z"/>
    <path class="cls-4" d="M667.5181,242.487l-1.25.722V264.86l1.25-.722Z"/>
    <path class="cls-4" d="M666.2681,269.19l1.25-.722v15.877l-1.25.722Z"/>
    <path class="cls-4" d="M676.2681,263.416l-1.25.722v15.877l1.25-.721Z"/>
    <path class="cls-4" d="M685.0181,274.242v-1.444l-25,14.434v1.444Z"/>
    <path class="cls-4" d="M685.0181,258.365l-25,14.433v1.444l25-14.434Z"/>
    <path class="exterior-R-dark" d="M580.0181,301.666l.857-1.287c6.4259-9.646,17.2439-15.537,24.143-13.147h0V275.685l-25,14.434Z"/>
    <path class="exterior-R-dark" d="M620.0181,278.572l.857-1.287c6.4259-9.646,17.2439-15.537,24.143-13.147h0V252.591l-25,14.434Z"/>
    <path class="exterior-R-dark" d="M660.0181,255.478l.857-1.287c6.4259-9.646,17.2439-15.537,24.143-13.147h0V229.497l-25,14.434Z"/>
    <path class="exterior-R-light" d="M570.0181,342.08l11.25-6.495v5.774l-11.25,6.495Z"/>
    <path class="exterior-R-light" d="M570.0181,281.459l11.25-6.496v-4.33l-11.25,6.495Z"/>
    <path class="exterior-R-light" d="M606.2681,257.643l15-8.66v-4.33l-15,8.66Z"/>
    <path class="exterior-R-light" d="M570.0181,274.242l11.25-6.495v-4.331l-11.25,6.496Z"/>
    <path class="exterior-R-light" d="M606.2681,251.869l15-8.66v-4.33l-15,8.66Z"/>
    <path class="top-light" d="M580.0181,262.695l1.25.721-11.25,6.496v-1.444Z"/>
    <path class="top-light" d="M620.0181,238.157l1.25.722-15,8.66-1.25-.721Z"/>
    <path class="top-light" d="M580.0181,269.912l1.25.721-11.25,6.496v-1.444Z"/>
    <path class="top-light" d="M620.0181,243.931l1.25.722-15,8.66-1.25-.722Z"/>
    <path class="top-light" d="M580.0181,277.129l1.25.721-11.25,6.495v-1.443Z"/>
    <path class="top-light" d="M578.7681,292.284l1.25.722-10,5.773v-1.443Z"/>
    <path class="top-light" d="M620.0181,278.572l1.25.722-15,8.66-1.25-.722Z"/>
    <path class="top-light" d="M620.0181,284.345l1.25.722-15,8.66-1.25-.721Z"/>
    <path class="top-light" d="M620.0181,290.119l1.25.722-15,8.66-1.25-.722Z"/>
    <path class="top-light" d="M620.0181,295.892l1.25.722-15,8.66-1.25-.721Z"/>
    <path class="top-light" d="M620.0181,301.666l1.25.722-15,8.66-1.25-.722Z"/>
    <path class="top-light" d="M620.0181,307.439l1.25.722-15,8.66-1.25-.721Z"/>
    <path class="top-light" d="M578.7681,299.501l1.25.721-10,5.774v-1.443Z"/>
    <path class="top-light" d="M580.0181,305.996l1.25.722-11.25,6.495V311.77Z"/>
    <path class="top-light" d="M580.0181,313.213l1.25.722-11.25,6.495v-1.444Z"/>
    <path class="top-light" d="M580.0181,320.43l1.25.721-11.25,6.496v-1.444Z"/>
    <path class="top-light" d="M570.0181,342.08l11.25-6.495-1.25-.721-10,5.773Z"/>
    <path class="top-light" d="M580.0181,327.647l1.25.721-11.25,6.496V333.42Z"/>
    <path class="top-light" d="M620.0181,249.704l1.25.722-15,8.66-1.25-.721Z"/>
    <path class="top-light" d="M620.0181,255.478l1.25.722-15,8.66-1.25-.722Z"/>
    <path class="top-light" d="M620.0181,267.025l1.25.721-15,8.661-1.25-.722Z"/>
    <path class="top-light" d="M620.0181,272.798l1.25.722-15,8.66-1.25-.721Z"/>
    <path class="exterior-R-light" d="M570.0181,288.675l11.25-6.495v-4.33l-11.25,6.495Z"/>
    <path class="exterior-R-light" d="M570.0181,303.109l10-5.773v-4.33l-10,5.773Z"/>
    <path class="exterior-R-light" d="M606.2681,292.284l15-8.66v-4.33l-15,8.66Z"/>
    <path class="exterior-R-light" d="M606.2681,298.057l15-8.66v-4.33l-15,8.66Z"/>
    <path class="cls-5" d="M645.0181,277.13v4.33l-25,14.434v-4.33Z"/>
    <path class="cls-5" d="M620.0181,311.771l25-14.434v7.217l-25,14.434Z"/>
    <path class="exterior-R-light" d="M606.2681,309.604l15-8.66v-4.33l-15,8.66Z"/>
    <path class="exterior-R-light" d="M606.2681,315.378l15-8.66v-4.33l-15,8.66Z"/>
    <path class="exterior-R-light" d="M570.0181,310.326l10-5.773v-4.331l-10,5.774Z"/>
    <path class="exterior-R-light" d="M570.0181,317.543l11.25-6.495v-4.33l-11.25,6.495Z"/>
    <path class="exterior-R-light" d="M570.0181,324.76l11.25-6.495v-4.33l-11.25,6.495Z"/>
    <path class="exterior-R-light" d="M570.0181,331.977l11.25-6.495v-4.331l-11.25,6.496Z"/>
    <path class="exterior-R-light" d="M570.0181,339.194l11.25-6.496v-4.33l-11.25,6.496Z"/>
    <path class="exterior-R-light" d="M606.2681,263.416l15-8.66v-4.33l-15,8.66Z"/>
    <path class="exterior-R-light" d="M606.2681,269.19l15-8.66V256.2l-15,8.66Z"/>
    <path class="exterior-R-light" d="M606.2681,280.737l15-8.66v-4.331l-15,8.661Z"/>
    <path class="exterior-R-light" d="M606.2681,286.51l15-8.66v-4.33l-15,8.66Z"/>
    <path class="exterior-L-light" d="M606.2681,251.869l-1.25-.721v-4.33l1.25.721Z"/>
    <path class="exterior-L-light" d="M606.2681,257.643l-1.25-.722v-4.33l1.25.722Z"/>
    <path class="exterior-L-light" d="M606.2681,263.416l-1.25-.721v-4.33l1.25.721Z"/>
    <path class="exterior-L-light" d="M606.2681,269.19l-1.25-.722v-4.33l1.25.722Z"/>
    <path class="exterior-L-light" d="M606.2681,280.737l-1.25-.722v-4.33l1.25.722Z"/>
    <path class="exterior-L-light" d="M606.2681,286.51l-1.25-.721v-4.33l1.25.721Z"/>
    <path class="exterior-L-light" d="M581.2681,300.944l-1.25-.722v-8.66l1.25.722Z"/>
    <path class="exterior-L-light" d="M606.2681,292.284l-1.25-.722v-4.33l1.25.722Z"/>
    <path class="exterior-L-light" d="M606.2681,298.057l-1.25-.721v-4.33l1.25.721Z"/>
    <path class="cls-5" d="M605.0181,300.223v4.331l-25,14.433v-4.33Z"/>
    <path class="cls-5" d="M580.0181,334.864l25-14.433v7.217l-25,14.433Z"/>
    <path class="cls-6" d="M586.2681,312.491v1.444l-6.25,3.608V316.1Z"/>
    <path class="cls-6" d="M596.2681,326.925l7.5-4.33v4.33l-7.5,4.33Z"/>
    <path class="exterior-L-light" d="M606.2681,303.831l-1.25-.722v-4.33l1.25.722Z"/>
    <path class="exterior-L-light" d="M606.2681,309.604l-1.25-.721v-4.33l1.25.721Z"/>
    <path class="exterior-L-light" d="M606.2681,315.378l-1.25-.722v-4.33l1.25.722Z"/>
    <path class="exterior-L-light" d="M606.2681,328.368l-1.25-.721V316.1l1.25.721Z"/>
    <path class="exterior-R-light" d="M570.0181,295.892l127.5-73.612v-4.33l-127.5,73.612Z"/>
    <path class="top-light" d="M696.2681,217.228l1.25.722-127.5,73.612v-1.443Z"/>
    <path class="exterior-L-dark" d="M50.0181,317.543V213.62l286.25,165.266V482.81Z"/>
    <path class="top-light" d="M706.2681,171.04l-125,72.169,5,2.887-125,72.169-5-2.887-120,69.282L40.0181,213.62,410.0181,0Z"/>
    <path class="exterior-R-light" d="M456.2681,315.378l-120,69.282v17.32l120-69.282Z"/>
    <path class="cls-7" d="M461.2681,335.585l115-66.395v80.829l-5,2.887-5-2.887-25,14.434v5.773l-10,5.774-5-2.887-15,8.66v5.774l-10,5.773-5-2.886-27.5,15.877v5.773l-7.5,4.33Z"/>
    <path class="exterior-R-dark" d="M456.2681,315.378l-120,69.282v5.773l120-69.282Z"/>
    <path class="exterior-L-dark" d="M461.2681,318.265v5.773l-5-2.887v-5.773Z"/>
    <path class="exterior-L-dark" d="M456.2681,328.368l-1.25.722v2.887l6.25,3.608,2.5-1.443v-4.33l-2.5,1.443Z"/>
    <path class="top-prim" d="M50.0181,213.62l360-207.846,80,46.188-360,207.846Z"/>
    <path class="exterior-R-light" d="M50.0181,213.62l42.5,24.537,317.5-183.308V5.774Z"/>
    <path class="top-light" d="M696.2681,171.04l-5-2.886-345,199.185v5.774Z"/>
    <g>
      <path class="window-R-prim" d="M566.2681,276.407v27.424l-25,14.434V290.841Z"/>
      <path class="cls-4" d="M541.2681,315.378l25-14.434v1.444l-25,14.433Z"/>
      <path class="cls-4" d="M566.2681,276.407l-1.25.722v25.98l1.25-.721Z"/>
      <path class="cls-4" d="M541.2681,305.274l25-14.433v-1.444l-25,14.434Z"/>
      <path class="cls-4" d="M541.2681,292.284l25-14.434v-1.443l-25,14.434Z"/>
      <path class="cls-4" d="M557.5181,281.459l-1.25.721v25.981l1.25-.722Z"/>
      <path class="cls-4" d="M548.7681,286.51l-1.25.722v25.981l1.25-.722Z"/>
    </g>
    <g>
      <path class="window-R-prim" d="M496.2681,316.821v27.424l-25,14.434V331.255Z"/>
      <path class="cls-4" d="M471.2681,355.792l25-14.433v1.443l-25,14.434Z"/>
      <path class="cls-4" d="M496.2681,316.821l-1.25.722v25.981l1.25-.722Z"/>
      <path class="cls-4" d="M471.2681,345.689l25-14.434v-1.443l-25,14.434Z"/>
      <path class="cls-4" d="M471.2681,332.698l25-14.433v-1.444l-25,14.434Z"/>
      <path class="cls-4" d="M487.5181,321.873l-1.25.722v25.981l1.25-.722Z"/>
      <path class="cls-4" d="M478.7681,326.925l-1.25.722v25.98l1.25-.721Z"/>
    </g>
    <g>
      <path class="window-R-prim" d="M526.2681,299.501v27.424l-15,8.66V308.161Z"/>
      <path class="cls-4" d="M511.2681,332.698l15-8.66v1.444l-15,8.66Z"/>
      <path class="cls-4" d="M526.2681,299.501l-1.25.722v25.98l1.25-.721Z"/>
      <path class="cls-4" d="M511.2681,322.595l15-8.66v-1.444l-15,8.66Z"/>
      <path class="cls-4" d="M511.2681,309.604l15-8.66v-1.443l-15,8.66Z"/>
      <path class="cls-4" d="M517.5181,304.553l-1.25.721v25.981l1.25-.722Z"/>
    </g>
    <g>
      <path class="window-R-prim" d="M371.2681,381.773v20.208l-25,14.433V396.207Z"/>
      <path class="cls-4" d="M346.2681,414.971l25-14.434v1.444l-25,14.433Z"/>
      <path class="cls-4" d="M371.2681,381.773l-1.25.722v20.207l1.25-.721Z"/>
      <path class="cls-4" d="M346.2681,407.032l25-14.433v-1.444l-25,14.434Z"/>
      <path class="cls-4" d="M346.2681,397.65l25-14.433v-1.444l-25,14.434Z"/>
      <path class="cls-4" d="M362.5181,386.825l-1.25.722v20.207l1.25-.722Z"/>
      <path class="cls-4" d="M353.7681,391.877l-1.25.722v20.207l1.25-.722Z"/>
    </g>
    <g>
      <path class="window-L-prim" d="M301.2681,381.773v20.208l25,14.433V396.207Z"/>
      <path class="cls-4" d="M326.2681,414.971l-25-14.434v1.444l25,14.433Z"/>
      <path class="cls-4" d="M301.2681,381.773l1.25.722v20.207l-1.25-.721Z"/>
      <path class="cls-4" d="M326.2681,407.032l-25-14.433v-1.444l25,14.434Z"/>
      <path class="cls-4" d="M326.2681,397.65l-25-14.433v-1.444l25,14.434Z"/>
      <path class="cls-4" d="M310.0181,386.825l1.25.722v20.207l-1.25-.722Z"/>
      <path class="cls-4" d="M318.7681,391.877l1.25.722v20.207l-1.25-.722Z"/>
    </g>
    <g>
      <path class="window-R-prim" d="M411.2681,358.679v20.207l-25,14.434V373.113Z"/>
      <path class="cls-4" d="M386.2681,391.877l25-14.434v1.443l-25,14.434Z"/>
      <path class="cls-4" d="M411.2681,358.679l-1.25.722v20.207l1.25-.722Z"/>
      <path class="cls-4" d="M386.2681,383.938l25-14.433v-1.444l-25,14.434Z"/>
      <path class="cls-4" d="M386.2681,374.556l25-14.433v-1.444l-25,14.434Z"/>
      <path class="cls-4" d="M402.5181,363.731l-1.25.722V384.66l1.25-.722Z"/>
      <path class="cls-4" d="M393.7681,368.783l-1.25.722v20.207l1.25-.722Z"/>
    </g>
    <g>
      <path class="window-L-prim" d="M261.2681,358.679v20.208l25,14.433V373.113Z"/>
      <path class="cls-4" d="M286.2681,391.877l-25-14.434v1.444l25,14.433Z"/>
      <path class="cls-4" d="M261.2681,358.679l1.25.722v20.207l-1.25-.721Z"/>
      <path class="cls-4" d="M286.2681,383.938l-25-14.433v-1.444l25,14.434Z"/>
      <path class="cls-4" d="M286.2681,374.556l-25-14.433v-1.444l25,14.434Z"/>
      <path class="cls-4" d="M270.0181,363.731l1.25.722V384.66l-1.25-.722Z"/>
      <path class="cls-4" d="M278.7681,368.783l1.25.722v20.207l-1.25-.722Z"/>
    </g>
    <g>
      <path class="window-R-prim" d="M451.2681,335.585v20.207l-25,14.434V350.019Z"/>
      <path class="cls-4" d="M426.2681,368.783l25-14.434v1.443l-25,14.434Z"/>
      <path class="cls-4" d="M451.2681,335.585l-1.25.722v20.207l1.25-.722Z"/>
      <path class="cls-4" d="M426.2681,360.844l25-14.433v-1.444l-25,14.434Z"/>
      <path class="cls-4" d="M426.2681,351.462l25-14.433v-1.444l-25,14.434Z"/>
      <path class="cls-4" d="M442.5181,340.637l-1.25.722v20.207l1.25-.722Z"/>
      <path class="cls-4" d="M433.7681,345.689l-1.25.722v20.207l1.25-.722Z"/>
    </g>
    <g>
      <path class="window-L-prim" d="M221.2681,335.585v20.208l25,14.433V350.019Z"/>
      <path class="cls-4" d="M246.2681,368.783l-25-14.434v1.444l25,14.433Z"/>
      <path class="cls-4" d="M221.2681,335.585l1.25.722v20.207l-1.25-.721Z"/>
      <path class="cls-4" d="M246.2681,360.844l-25-14.433v-1.444l25,14.434Z"/>
      <path class="cls-4" d="M246.2681,351.462l-25-14.433v-1.444l25,14.434Z"/>
      <path class="cls-4" d="M230.0181,340.637l1.25.722v20.207l-1.25-.722Z"/>
      <path class="cls-4" d="M238.7681,345.689l1.25.722v20.207l-1.25-.722Z"/>
    </g>
    <g>
      <path class="window-L-prim" d="M181.2681,312.491v20.207l25,14.434V326.925Z"/>
      <path class="cls-4" d="M206.2681,345.689l-25-14.434v1.443l25,14.434Z"/>
      <path class="cls-4" d="M181.2681,312.491l1.25.722V333.42l-1.25-.722Z"/>
      <path class="cls-4" d="M206.2681,337.75l-25-14.434v-1.443l25,14.434Z"/>
      <path class="cls-4" d="M206.2681,328.368l-25-14.434v-1.443l25,14.434Z"/>
      <path class="cls-4" d="M190.0181,317.543l1.25.722v20.207l-1.25-.722Z"/>
      <path class="cls-4" d="M198.7681,322.595l1.25.721v20.208l-1.25-.722Z"/>
    </g>
    <g>
      <path class="window-L-prim" d="M141.2681,289.397v20.208l25,14.433V303.831Z"/>
      <path class="cls-4" d="M166.2681,322.595l-25-14.434v1.444l25,14.433Z"/>
      <path class="cls-4" d="M141.2681,289.397l1.25.722v20.207l-1.25-.721Z"/>
      <path class="cls-4" d="M166.2681,314.656l-25-14.433v-1.444l25,14.434Z"/>
      <path class="cls-4" d="M166.2681,305.274l-25-14.433v-1.444l25,14.434Z"/>
      <path class="cls-4" d="M150.0181,294.449l1.25.722v20.207l-1.25-.722Z"/>
      <path class="cls-4" d="M158.7681,299.501l1.25.722V320.43l-1.25-.722Z"/>
    </g>
    <path class="top-prim" d="M101.2681,266.303v20.208l25,14.433V280.737Z"/>
    <path class="top-prim" d="M61.2681,243.209v20.208l25,14.434V257.643Z"/>
    <g>
      <path class="window-R-prim" d="M371.2681,413.528v49.074l-25,14.434V427.961Z"/>
      <path class="cls-4" d="M346.2681,448.169l25-14.434v1.443l-25,14.434Z"/>
      <path class="cls-4" d="M371.2681,413.528l-1.25.721V435.9l1.25-.722Z"/>
      <path class="cls-4" d="M346.2681,429.405l25-14.434v-1.443l-25,14.433Z"/>
      <path class="cls-4" d="M362.5181,418.579l-1.25.722v21.651l1.25-.722Z"/>
      <path class="cls-4" d="M353.7681,423.631l-1.25.722v21.65l1.25-.721Z"/>
      <path class="cls-4" d="M352.5181,450.334l1.25-.722v15.877l-1.25.722Z"/>
      <path class="cls-4" d="M362.5181,444.56l-1.25.722v15.877l1.25-.722Z"/>
      <path class="cls-4" d="M371.2681,455.385v-1.443l-25,14.434v1.443Z"/>
      <path class="cls-4" d="M371.2681,439.508l-25,14.434v1.443l25-14.433Z"/>
    </g>
    <g>
      <path class="window-L-prim" d="M301.2681,413.528v49.074l25,14.434V427.961Z"/>
      <path class="cls-4" d="M326.2681,448.169l-25-14.434v1.443l25,14.434Z"/>
      <path class="cls-4" d="M301.2681,413.528l1.25.721V435.9l-1.25-.722Z"/>
      <path class="cls-4" d="M326.2681,429.405l-25-14.434v-1.443l25,14.433Z"/>
      <path class="cls-4" d="M310.0181,418.579l1.25.722v21.651l-1.25-.722Z"/>
      <path class="cls-4" d="M318.7681,423.631l1.25.722v21.651l-1.25-.722Z"/>
      <path class="cls-4" d="M320.0181,450.334l-1.25-.722v15.877l1.25.722Z"/>
      <path class="cls-4" d="M310.0181,444.56l1.25.722v15.877l-1.25-.722Z"/>
      <path class="cls-4" d="M301.2681,455.385v-1.443l25,14.434v1.443Z"/>
      <path class="cls-4" d="M301.2681,439.508l25,14.434v1.443l-25-14.433Z"/>
    </g>
    <g>
      <path class="window-R-prim" d="M411.2681,390.433v49.075l-25,14.434V404.867Z"/>
      <path class="cls-4" d="M386.2681,425.075l25-14.434v1.443l-25,14.434Z"/>
      <path class="cls-4" d="M411.2681,390.433l-1.25.722v21.651l1.25-.722Z"/>
      <path class="cls-4" d="M386.2681,406.311l25-14.434v-1.444l-25,14.434Z"/>
      <path class="cls-4" d="M402.5181,395.485l-1.25.722v21.651l1.25-.722Z"/>
      <path class="cls-4" d="M393.7681,400.537l-1.25.722v21.65l1.25-.721Z"/>
      <path class="cls-4" d="M392.5181,427.24l1.25-.722v15.877l-1.25.722Z"/>
      <path class="cls-4" d="M402.5181,421.466l-1.25.722v15.877l1.25-.722Z"/>
      <path class="cls-4" d="M411.2681,432.291v-1.443l-25,14.434v1.443Z"/>
      <path class="cls-4" d="M411.2681,416.414l-25,14.434v1.443l25-14.433Z"/>
    </g>
    <g>
      <path class="window-L-prim" d="M261.2681,390.434v49.074l25,14.434V404.867Z"/>
      <path class="cls-4" d="M286.2681,425.075l-25-14.434v1.443l25,14.434Z"/>
      <path class="cls-4" d="M261.2681,390.434l1.25.721v21.651l-1.25-.722Z"/>
      <path class="cls-4" d="M286.2681,406.311l-25-14.434v-1.443l25,14.433Z"/>
      <path class="cls-4" d="M270.0181,395.485l1.25.722v21.651l-1.25-.722Z"/>
      <path class="cls-4" d="M278.7681,400.537l1.25.722V422.91l-1.25-.722Z"/>
      <path class="cls-4" d="M280.0181,427.24l-1.25-.722v15.877l1.25.722Z"/>
      <path class="cls-4" d="M270.0181,421.466l1.25.722v15.877l-1.25-.722Z"/>
      <path class="cls-4" d="M261.2681,432.291v-1.443l25,14.434v1.443Z"/>
      <path class="cls-4" d="M261.2681,416.414l25,14.434v1.443l-25-14.433Z"/>
    </g>
    <g>
      <path class="window-R-prim" d="M451.2681,367.34v49.074l-25,14.434V381.773Z"/>
      <path class="cls-4" d="M426.2681,401.981l25-14.434v1.443l-25,14.434Z"/>
      <path class="cls-4" d="M451.2681,367.34l-1.25.721v21.651l1.25-.722Z"/>
      <path class="cls-4" d="M426.2681,383.217l25-14.434V367.34l-25,14.433Z"/>
      <path class="cls-4" d="M442.5181,372.391l-1.25.722v21.651l1.25-.722Z"/>
      <path class="cls-4" d="M433.7681,377.443l-1.25.722v21.65l1.25-.721Z"/>
      <path class="cls-4" d="M432.5181,404.146l1.25-.722v15.877l-1.25.722Z"/>
      <path class="cls-4" d="M442.5181,398.372l-1.25.722v15.877l1.25-.722Z"/>
      <path class="cls-4" d="M451.2681,409.197v-1.443l-25,14.434v1.443Z"/>
      <path class="cls-4" d="M451.2681,393.32l-25,14.434v1.443l25-14.433Z"/>
    </g>
    <g>
      <path class="window-L-prim" d="M221.2681,367.34v49.074l25,14.434V381.773Z"/>
      <path class="cls-4" d="M246.2681,401.981l-25-14.434v1.443l25,14.434Z"/>
      <path class="cls-4" d="M221.2681,367.34l1.25.721v21.651l-1.25-.722Z"/>
      <path class="cls-4" d="M246.2681,383.217l-25-14.434V367.34l25,14.433Z"/>
      <path class="cls-4" d="M230.0181,372.391l1.25.722v21.651l-1.25-.722Z"/>
      <path class="cls-4" d="M238.7681,377.443l1.25.722v21.651l-1.25-.722Z"/>
      <path class="cls-4" d="M240.0181,404.146l-1.25-.722v15.877l1.25.722Z"/>
      <path class="cls-4" d="M230.0181,398.372l1.25.722v15.877l-1.25-.722Z"/>
      <path class="cls-4" d="M221.2681,409.197v-1.443l25,14.434v1.443Z"/>
      <path class="cls-4" d="M221.2681,393.32l25,14.434v1.443l-25-14.433Z"/>
    </g>
    <g>
      <path class="window-L-prim" d="M181.2681,344.245V393.32l25,14.434V358.679Z"/>
      <path class="cls-4" d="M206.2681,378.886l-25-14.433v1.443l25,14.434Z"/>
      <path class="cls-4" d="M181.2681,344.245l1.25.722v21.651l-1.25-.722Z"/>
      <path class="cls-4" d="M206.2681,360.122l-25-14.433v-1.444l25,14.434Z"/>
      <path class="cls-4" d="M190.0181,349.297l1.25.722v21.65l-1.25-.721Z"/>
      <path class="cls-4" d="M198.7681,354.349l1.25.722v21.65l-1.25-.721Z"/>
      <path class="cls-4" d="M200.0181,381.051l-1.25-.721v15.877l1.25.722Z"/>
      <path class="cls-4" d="M190.0181,375.278l1.25.722v15.877l-1.25-.722Z"/>
      <path class="cls-4" d="M181.2681,386.103V384.66l25,14.434v1.443Z"/>
      <path class="cls-4" d="M181.2681,370.226l25,14.434v1.443l-25-14.434Z"/>
    </g>
    <g>
      <path class="exterior-L-dark" d="M141.2681,321.152v49.074l25,14.434V335.585Z"/>
      <path class="cls-4" d="M166.2681,337.029l-25-14.434v-1.443l25,14.433Z"/>
    </g>
    <g>
      <path class="window-L-prim" d="M101.2681,298.058v41.857l25,14.434V312.491Z"/>
      <path class="cls-4" d="M126.2681,332.699l-25-14.434v1.443l25,14.434Z"/>
      <path class="cls-4" d="M101.2681,298.058l1.25.721V320.43l-1.25-.722Z"/>
      <path class="cls-4" d="M126.2681,313.935l-25-14.434v-1.443l25,14.433Z"/>
      <path class="cls-4" d="M110.0181,303.11l1.25.721v21.651l-1.25-.722Z"/>
      <path class="cls-4" d="M118.7681,308.161l1.25.722v21.651l-1.25-.722Z"/>
      <path class="cls-4" d="M120.0181,334.864l-1.25-.722v15.877l1.25.722Z"/>
      <path class="cls-4" d="M110.0181,329.09l1.25.722v15.877l-1.25-.722Z"/>
      <path class="cls-4" d="M101.2681,339.916v-1.444l25,14.434v1.443Z"/>
      <path class="cls-4" d="M101.2681,324.038l25,14.434v1.444l-25-14.434Z"/>
    </g>
    <g>
      <path class="window-L-prim" d="M61.2681,274.964v41.857l25,14.434V289.398Z"/>
      <path class="cls-4" d="M86.2681,309.605l-25-14.434v1.443l25,14.434Z"/>
      <path class="cls-4" d="M61.2681,274.964l1.25.721v21.651l-1.25-.722Z"/>
      <path class="cls-4" d="M86.2681,290.841l-25-14.434v-1.443l25,14.434Z"/>
      <path class="cls-4" d="M70.0181,280.016l1.25.721v21.651l-1.25-.722Z"/>
      <path class="cls-4" d="M78.7681,285.067l1.25.722V307.44l-1.25-.722Z"/>
      <path class="cls-4" d="M80.0181,311.77l-1.25-.722v15.877l1.25.722Z"/>
      <path class="cls-4" d="M70.0181,305.996l1.25.722v15.877l-1.25-.722Z"/>
      <path class="cls-4" d="M61.2681,316.822v-1.444l25,14.434v1.443Z"/>
      <path class="cls-4" d="M61.2681,300.945l25,14.433v1.444l-25-14.434Z"/>
    </g>
    <path class="exterior-R-dark" d="M346.2681,436.622l.8569-1.287c6.426-9.646,17.2441-15.537,24.1431-13.147h0V410.641l-25,14.434Z"/>
    <path class="exterior-L-dark" d="M326.2681,436.622l-.857-1.287c-6.426-9.646-17.2441-15.537-24.143-13.147h0V410.641l25,14.434Z"/>
    <path class="exterior-R-dark" d="M386.2681,413.528l.8569-1.287c6.426-9.646,17.2441-15.537,24.1431-13.147h0V387.547l-25,14.433Z"/>
    <path class="exterior-L-dark" d="M286.2681,413.528l-.857-1.287c-6.426-9.646-17.2441-15.537-24.143-13.147h0V387.547l25,14.434Z"/>
    <path class="exterior-R-dark" d="M426.2681,390.434l.8569-1.287c6.426-9.646,17.2441-15.537,24.1431-13.147h0V364.453l-25,14.433Z"/>
    <path class="exterior-L-dark" d="M246.2681,390.434l-.857-1.287c-6.426-9.646-17.2441-15.537-24.143-13.147h0V364.453l25,14.434Z"/>
    <path class="exterior-R-light" d="M372.5181,392.599l15-8.66v-4.331l-15,8.661Z"/>
    <path class="exterior-L-light" d="M300.0181,392.599l-15-8.66v-4.331l15,8.661Z"/>
    <path class="exterior-R-light" d="M412.5181,369.504l15-8.66v-4.33l-15,8.66Z"/>
    <path class="exterior-L-light" d="M260.0181,369.504l-15-8.66v-4.33l15,8.66Z"/>
    <path class="exterior-L-light" d="M220.0181,346.411l-15-8.66v-4.33l15,8.66Z"/>
    <path class="exterior-L-light" d="M180.0181,323.317l-15-8.66v-4.331l15,8.661Z"/>
    <path class="exterior-L-light" d="M140.0181,300.223l-15-8.661v-4.33l15,8.661Z"/>
    <path class="exterior-L-light" d="M100.0181,277.128l-15-8.66v-4.33l15,8.66Z"/>
    <path class="exterior-L-light" d="M60.0181,254.034l-11.25-6.495v-4.33l11.25,6.495Z"/>
    <path class="exterior-R-light" d="M372.5181,386.825l15-8.66v-4.33l-15,8.66Z"/>
    <path class="exterior-L-light" d="M300.0181,386.825l-15-8.66v-4.33l15,8.66Z"/>
    <path class="exterior-R-light" d="M412.5181,363.731l15-8.66v-4.33l-15,8.66Z"/>
    <path class="exterior-L-light" d="M260.0181,363.731l-15-8.66V350.74l15,8.661Z"/>
    <path class="exterior-L-light" d="M220.0181,340.637l-15-8.66v-4.33l15,8.66Z"/>
    <path class="exterior-L-light" d="M180.0181,317.543l-15-8.66v-4.331l15,8.661Z"/>
    <path class="exterior-L-light" d="M140.0181,294.449l-15-8.661v-4.33l15,8.66Z"/>
    <path class="exterior-L-light" d="M100.0181,271.354l-15-8.66v-4.33l15,8.66Z"/>
    <path class="exterior-L-light" d="M151.2681,295.171l7.5,4.33v23.094l-7.5-4.33Z"/>
    <path class="exterior-L-light" d="M60.0181,248.26l-11.25-6.494v-4.33l11.25,6.494Z"/>
    <path class="top-light" d="M346.2681,396.207l1.25.721v1.444l-11.25,6.495-11.25-6.495v-1.443l1.25-.722,10,5.773Z"/>
    <path class="top-light" d="M386.2681,373.113l1.25.722-15,8.66-1.25-.722Z"/>
    <path class="top-light" d="M286.2681,373.113l-1.25.722,15,8.66,1.25-.722Z"/>
    <path class="top-light" d="M426.2681,350.019l1.25.721-15,8.661-1.25-.722Z"/>
    <path class="top-light" d="M246.2681,350.019l-1.25.722,15,8.66,1.25-.722Z"/>
    <path class="top-light" d="M206.2681,326.925l-1.25.722,15,8.66,1.25-.722Z"/>
    <path class="top-light" d="M166.2681,303.831l-1.25.721,15,8.661,1.25-.722Z"/>
    <path class="top-light" d="M126.2681,280.737l-1.25.721,15,8.66,1.25-.721Z"/>
    <path class="top-light" d="M86.2681,257.642l-1.25.722,15,8.66,1.25-.721Z"/>
    <path class="top-light" d="M50.0181,236.714l-1.25.722,11.25,6.494,1.25-.722Z"/>
    <path class="top-light" d="M346.2681,401.981l1.25.721v1.444l-11.25,6.495-11.25-6.495v-1.444l1.25-.721,10,5.773Z"/>
    <path class="top-light" d="M386.2681,378.887l1.25.721-15,8.661-1.25-.722Z"/>
    <path class="top-light" d="M286.2681,378.887l-1.25.721,15,8.661,1.25-.722Z"/>
    <path class="top-light" d="M426.2681,355.792l1.25.722-15,8.66-1.25-.721Z"/>
    <path class="top-light" d="M246.2681,355.792l-1.25.722,15,8.66,1.25-.722Z"/>
    <path class="top-light" d="M206.2681,332.699l-1.25.722,15,8.66,1.25-.722Z"/>
    <path class="top-light" d="M166.2681,309.605l-1.25.721,15,8.661,1.25-.722Z"/>
    <path class="top-light" d="M126.2681,286.511l-1.25.721,15,8.661,1.25-.722Z"/>
    <path class="top-light" d="M86.2681,263.416l-1.25.722,15,8.66,1.25-.721Z"/>
    <path class="top-light" d="M50.0181,242.488l-1.25.721,11.25,6.495,1.25-.722Z"/>
    <path class="top-light" d="M346.2681,407.754l1.25.722v1.443l-11.25,6.495-11.25-6.495v-1.443l1.25-.722,10,5.774Z"/>
    <path class="top-light" d="M346.2681,413.527l1.25.722v1.444l-11.25,6.495-11.25-6.495v-1.444l1.25-.721,10,5.773Z"/>
    <path class="top-light" d="M386.2681,401.981l1.25.722-15,8.659-1.25-.721Z"/>
    <path class="top-light" d="M286.2681,401.98l-1.25.722,15,8.661,1.25-.722Z"/>
    <path class="top-light" d="M246.2681,378.886l-1.25.722,15,8.66,1.25-.721Z"/>
    <path class="top-light" d="M206.2681,344.245l-1.25.722,15,8.66,1.25-.722Z"/>
    <path class="top-light" d="M166.2681,321.151l-1.25.722,15,8.66,1.25-.722Z"/>
    <path class="top-light" d="M50.0181,254.034l-1.25.722,11.25,6.494,1.25-.721Z"/>
    <path class="top-light" d="M386.2681,407.754l1.25.722-15,8.66-1.25-.721Z"/>
    <path class="top-light" d="M286.2681,407.754l-1.25.722,15,8.66,1.25-.721Z"/>
    <path class="top-light" d="M246.2681,384.66l-1.25.722,15,8.66,1.25-.721Z"/>
    <path class="top-light" d="M386.2681,413.528l1.25.722-15,8.66-1.25-.722Z"/>
    <path class="top-light" d="M286.2681,413.527l-1.25.722,15,8.66,1.25-.721Z"/>
    <path class="top-light" d="M426.2681,384.66l1.25.722-15,8.66-1.25-.722Z"/>
    <path class="top-light" d="M426.2681,390.433l1.25.722-15,8.66-1.25-.721Z"/>
    <path class="top-light" d="M426.2681,396.207l1.25.722-15,8.66-1.25-.722Z"/>
    <path class="top-light" d="M246.2681,390.434l-1.25.721,15,8.661,1.25-.722Z"/>
    <path class="top-light" d="M206.2681,355.792l-1.25.722,15,8.66,1.25-.722Z"/>
    <path class="top-light" d="M166.2681,332.698l-1.25.722,15,8.66,1.25-.722Z"/>
    <path class="top-light" d="M126.2681,309.604l-1.25.722,15,8.66,1.25-.722Z"/>
    <path class="top-light" d="M86.2681,286.51l-1.25.721,15,8.661,1.25-.722Z"/>
    <path class="top-light" d="M50.0181,265.581l-1.25.722,11.25,6.494,1.25-.721Z"/>
    <path class="top-light" d="M386.2681,419.301l1.25.722-15,8.66-1.25-.722Z"/>
    <path class="top-light" d="M286.2681,419.301l-1.25.722,15,8.66,1.25-.721Z"/>
    <path class="top-light" d="M426.2681,401.981l1.25.721-15,8.661-1.25-.722Z"/>
    <path class="top-light" d="M246.2681,396.207l-1.25.722,15,8.66,1.25-.722Z"/>
    <path class="top-light" d="M206.2681,361.566l-1.25.722,15,8.66,1.25-.722Z"/>
    <path class="top-light" d="M166.2681,338.472l-1.25.721,15,8.661,1.25-.722Z"/>
    <path class="top-light" d="M126.2681,315.377l-1.25.722,15,8.66,1.25-.721Z"/>
    <path class="top-light" d="M86.2681,292.283l-1.25.722,15,8.66,1.25-.722Z"/>
    <path class="top-light" d="M50.0181,271.355l-1.25.722,11.25,6.494,1.25-.722Z"/>
    <path class="top-light" d="M386.2681,425.075l1.25.721-15,8.66-1.25-.721Z"/>
    <path class="top-light" d="M426.2681,407.754l1.25.721-15,8.661-1.25-.722Z"/>
    <path class="top-light" d="M246.2681,407.754l-1.25.722,15,8.66,1.25-.721Z"/>
    <path class="top-light" d="M206.2681,367.34l-1.25.721,15,8.661,1.25-.722Z"/>
    <path class="top-light" d="M166.2681,344.246l-1.25.721,15,8.66,1.25-.721Z"/>
    <path class="top-light" d="M126.2681,321.151l-1.25.722,15,8.66,1.25-.721Z"/>
    <path class="top-light" d="M86.2681,298.057l-1.25.722,15,8.66,1.25-.722Z"/>
    <path class="top-light" d="M50.0181,277.129l-1.25.722,11.25,6.494,1.25-.722Z"/>
    <path class="top-light" d="M386.2681,430.848l1.25.722-15,8.66-1.25-.721Z"/>
    <path class="top-light" d="M386.2681,436.621l1.25.722-15,8.66-1.25-.721Z"/>
    <path class="top-light" d="M286.2681,430.848l-1.25.722,15,8.66,1.25-.722Z"/>
    <path class="top-light" d="M286.2681,436.621l-1.25.722,15,8.66,1.25-.721Z"/>
    <path class="top-light" d="M426.2681,413.527l1.25.722-15,8.66-1.25-.721Z"/>
    <path class="top-light" d="M246.2681,413.528l-1.25.722,15,8.66,1.25-.722Z"/>
    <path class="top-light" d="M206.2681,373.113l-1.25.722,15,8.66,1.25-.722Z"/>
    <path class="top-light" d="M166.2681,350.019l-1.25.721,15,8.661,1.25-.722Z"/>
    <path class="top-light" d="M126.2681,326.924l-1.25.722,15,8.66,1.25-.721Z"/>
    <path class="top-light" d="M86.2681,303.83l-1.25.722,15,8.66,1.25-.722Z"/>
    <path class="top-light" d="M50.0181,282.902l-1.25.722,11.25,6.494,1.25-.722Z"/>
    <path class="top-light" d="M166.2681,355.792l-1.25.722,15,8.66,1.25-.722Z"/>
    <path class="top-light" d="M50.0181,288.676l-1.25.721,11.25,6.495,1.25-.722Z"/>
    <path class="top-light" d="M206.2681,384.66l-1.25.722,15,8.66,1.25-.722Z"/>
    <path class="top-light" d="M166.2681,361.566l-1.25.721,15,8.661,1.25-.722Z"/>
    <path class="top-light" d="M126.2681,338.472l-1.25.721,15,8.66,1.25-.721Z"/>
    <path class="top-light" d="M86.2681,315.377l-1.25.722,15,8.66,1.25-.722Z"/>
    <path class="top-light" d="M50.0181,294.449l-1.25.722,11.25,6.494,1.25-.722Z"/>
    <path class="top-light" d="M206.2681,390.434l-1.25.721,15,8.661,1.25-.722Z"/>
    <path class="top-light" d="M166.2681,367.34l-1.25.721,15,8.66,1.25-.721Z"/>
    <path class="top-light" d="M126.2681,344.245l-1.25.722,15,8.66,1.25-.722Z"/>
    <path class="top-light" d="M86.2681,321.151l-1.25.722,15,8.66,1.25-.722Z"/>
    <path class="top-light" d="M50.0181,300.223l-1.25.722,11.25,6.494,1.25-.722Z"/>
    <path class="top-light" d="M386.2681,442.395l1.25.722-15,8.66-1.25-.721Z"/>
    <path class="top-light" d="M426.2681,419.301l1.25.722-15,8.66-1.25-.722Z"/>
    <path class="top-light" d="M166.2681,373.113l-1.25.722,15,8.66,1.25-.722Z"/>
    <path class="top-light" d="M126.2681,350.019l-1.25.722,15,8.66,1.25-.722Z"/>
    <path class="top-light" d="M86.2681,326.925l-1.25.721,15,8.661,1.25-.722Z"/>
    <path class="top-light" d="M50.0181,305.996l-1.25.722,11.25,6.494,1.25-.721Z"/>
    <path class="top-light" d="M386.2681,384.66l1.25.722-15,8.66-1.25-.722Z"/>
    <path class="top-light" d="M386.2681,390.433l1.25.722-15,8.66-1.25-.721Z"/>
    <path class="top-light" d="M370.0181,402.702l1.25.722-22.5,12.991-1.25-.722Z"/>
    <path class="top-light" d="M286.2681,384.66l-1.25.722,15,8.66,1.25-.722Z"/>
    <path class="top-light" d="M286.2681,390.434l-1.25.721,15,8.661,1.25-.722Z"/>
    <path class="top-light" d="M426.2681,361.566l1.25.722-15,8.66-1.25-.722Z"/>
    <path class="top-light" d="M426.2681,367.339l1.25.722-15,8.66-1.25-.721Z"/>
    <path class="top-light" d="M426.2681,378.886l1.25.722-15,8.66-1.25-.721Z"/>
    <path class="top-light" d="M246.2681,361.566l-1.25.722,15,8.66,1.25-.722Z"/>
    <path class="top-light" d="M246.2681,367.34l-1.25.721,15,8.661,1.25-.722Z"/>
    <path class="top-light" d="M206.2681,338.472l-1.25.722,15,8.66,1.25-.721Z"/>
    <path class="top-light" d="M166.2681,315.378l-1.25.722,15,8.66,1.25-.722Z"/>
    <path class="top-light" d="M50.0181,248.261l-1.25.722,11.25,6.495,1.25-.722Z"/>
    <path class="exterior-R-light" d="M336.2681,419.301l11.25-6.495v-4.33l-11.25,6.495Z"/>
    <path class="exterior-R-light" d="M336.2681,425.074l11.25-6.495v-4.33l-11.25,6.495Z"/>
    <path class="exterior-L-light" d="M336.2681,419.301l-11.25-6.495v-4.33l11.25,6.495Z"/>
    <path class="exterior-L-light" d="M336.2681,425.074l-11.25-6.495v-4.33l11.25,6.495Z"/>
    <path class="exterior-L-light" d="M300.0181,415.693l-15-8.661v-4.33l15,8.661Z"/>
    <path class="exterior-L-light" d="M260.0181,392.598l-15-8.66v-4.33l15,8.66Z"/>
    <path class="exterior-L-light" d="M220.0181,357.957l-15-8.66v-4.33l15,8.66Z"/>
    <path class="exterior-L-light" d="M180.0181,334.863l-15-8.66v-4.33l15,8.66Z"/>
    <path class="exterior-L-light" d="M60.0181,265.581l-11.25-6.495v-4.33l11.25,6.494Z"/>
    <path class="exterior-R-light" d="M372.5181,421.467l15-8.661v-4.33l-15,8.66Z"/>
    <path class="exterior-L-light" d="M300.0181,421.467l-15-8.661v-4.33l15,8.66Z"/>
    <path class="exterior-L-light" d="M260.0181,398.373l-15-8.661v-4.33l15,8.66Z"/>
    <path class="exterior-R-light" d="M372.5181,427.24l15-8.66v-4.33l-15,8.66Z"/>
    <path class="exterior-L-light" d="M300.0181,427.239l-15-8.66v-4.33l15,8.66Z"/>
    <path class="exterior-R-light" d="M412.5181,398.372l15-8.66v-4.33l-15,8.66Z"/>
    <path class="exterior-R-light" d="M412.5181,404.145l15-8.66v-4.33l-15,8.66Z"/>
    <path class="exterior-R-light" d="M412.5181,409.919l15-8.66v-4.33l-15,8.66Z"/>
    <path class="exterior-L-light" d="M260.0181,404.146l-15-8.66v-4.331l15,8.661Z"/>
    <path class="exterior-L-light" d="M220.0181,369.504l-15-8.66v-4.33l15,8.66Z"/>
    <path class="exterior-L-light" d="M180.0181,346.41l-15-8.66v-4.33l15,8.66Z"/>
    <path class="exterior-L-light" d="M140.0181,323.316l-15-8.66v-4.33l15,8.66Z"/>
    <path class="exterior-L-light" d="M100.0181,300.222l-15-8.66v-4.331l15,8.661Z"/>
    <path class="exterior-L-light" d="M60.0181,277.128l-11.25-6.495v-4.33l11.25,6.494Z"/>
    <path class="exterior-R-light" d="M372.5181,433.013l15-8.66v-4.33l-15,8.66Z"/>
    <path class="exterior-L-light" d="M300.0181,433.013l-15-8.66v-4.33l15,8.66Z"/>
    <path class="cls-5" d="M451.2681,388.991v4.33l-25,14.433v-4.33Z"/>
    <path class="cls-5" d="M426.2681,423.632l25-14.434v7.217l-25,14.433Z"/>
    <path class="exterior-L-light" d="M260.0181,409.919l-15-8.66v-4.33l15,8.66Z"/>
    <path class="exterior-L-light" d="M220.0181,375.278l-15-8.66v-4.33l15,8.66Z"/>
    <path class="exterior-L-light" d="M180.0181,352.184l-15-8.66v-4.331l15,8.661Z"/>
    <path class="exterior-L-light" d="M140.0181,329.09l-15-8.661v-4.33l15,8.66Z"/>
    <path class="exterior-L-light" d="M100.0181,305.995l-15-8.66v-4.33l15,8.66Z"/>
    <path class="exterior-L-light" d="M60.0181,282.901l-11.25-6.494v-4.33l11.25,6.494Z"/>
    <path class="cls-5" d="M411.2681,412.084v4.33l-25,14.434v-4.33Z"/>
    <path class="cls-5" d="M386.2681,446.725l25-14.434v7.217l-25,14.434Z"/>
    <path class="exterior-R-light" d="M412.5181,421.466l15-8.66v-4.331l-15,8.661Z"/>
    <path class="exterior-L-light" d="M260.0181,421.467l-15-8.661v-4.33l15,8.66Z"/>
    <path class="exterior-L-light" d="M220.0181,381.052l-15-8.66v-4.331l15,8.661Z"/>
    <path class="exterior-L-light" d="M180.0181,357.958l-15-8.661v-4.33l15,8.66Z"/>
    <path class="exterior-L-light" d="M140.0181,334.863l-15-8.66v-4.33l15,8.66Z"/>
    <path class="exterior-L-light" d="M100.0181,311.769l-15-8.66v-4.33l15,8.66Z"/>
    <path class="exterior-L-light" d="M60.0181,288.675l-11.25-6.494v-4.33l11.25,6.494Z"/>
    <path class="exterior-R-light" d="M372.5181,444.56l15-8.66v-4.33l-15,8.66Z"/>
    <path class="exterior-R-light" d="M372.5181,450.334l15-8.661v-4.33l-15,8.66Z"/>
    <path class="exterior-L-light" d="M300.0181,444.56l-15-8.66v-4.33l15,8.66Z"/>
    <path class="exterior-L-light" d="M300.0181,450.334l-15-8.661v-4.33l15,8.66Z"/>
    <path class="exterior-R-light" d="M412.5181,427.24l15-8.661v-4.33l-15,8.66Z"/>
    <path class="exterior-L-light" d="M260.0181,427.24l-15-8.66v-4.33l15,8.66Z"/>
    <path class="exterior-L-light" d="M220.0181,386.825l-15-8.66v-4.33l15,8.66Z"/>
    <path class="exterior-L-light" d="M180.0181,363.731l-15-8.66V350.74l15,8.661Z"/>
    <path class="exterior-L-light" d="M140.0181,340.637l-15-8.661v-4.33l15,8.66Z"/>
    <path class="exterior-L-light" d="M100.0181,317.542l-15-8.66v-4.33l15,8.66Z"/>
    <path class="exterior-L-light" d="M60.0181,294.448l-11.25-6.494v-4.33l11.25,6.494Z"/>
    <path class="exterior-L-light" d="M180.0181,369.504l-15-8.66v-4.33l15,8.66Z"/>
    <path class="exterior-L-light" d="M60.0181,300.222l-11.25-6.495v-4.33l11.25,6.495Z"/>
    <path class="exterior-L-light" d="M220.0181,398.372l-15-8.66v-4.33l15,8.66Z"/>
    <path class="exterior-L-light" d="M180.0181,375.278l-15-8.66v-4.331l15,8.661Z"/>
    <path class="exterior-L-light" d="M140.0181,352.184l-15-8.661v-4.33l15,8.66Z"/>
    <path class="exterior-L-light" d="M100.0181,329.089l-15-8.66v-4.33l15,8.66Z"/>
    <path class="exterior-L-light" d="M60.0181,305.995l-11.25-6.494v-4.33l11.25,6.494Z"/>
    <path class="exterior-L-light" d="M220.0181,404.146l-15-8.66v-4.331l15,8.661Z"/>
    <path class="exterior-L-light" d="M180.0181,381.052l-15-8.661v-4.33l15,8.66Z"/>
    <path class="exterior-L-light" d="M140.0181,357.957l-15-8.66v-4.33l15,8.66Z"/>
    <path class="exterior-L-light" d="M100.0181,334.863l-15-8.66v-4.33l15,8.66Z"/>
    <path class="exterior-L-light" d="M60.0181,311.769l-11.25-6.494v-4.33l11.25,6.494Z"/>
    <path class="exterior-L-light" d="M180.0181,394.042l-15-8.661V373.835l15,8.66Z"/>
    <path class="exterior-L-light" d="M140.0181,370.947l-15-8.66V350.74l15,8.661Z"/>
    <path class="exterior-L-light" d="M100.0181,347.853l-15-8.66V327.646l15,8.66Z"/>
    <path class="exterior-L-dark" d="M153.7681,299.501l2.5,1.443v17.321l-2.5-1.444Z"/>
    <path class="exterior-L-light" d="M60.0181,324.759l-11.25-6.494V306.718l11.25,6.494Z"/>
    <path class="exterior-R-light" d="M372.5181,398.372l15-8.66v-4.33l-15,8.66Z"/>
    <path class="exterior-R-light" d="M372.5181,404.145l15-8.66v-4.33l-15,8.66Z"/>
    <path class="exterior-R-light" d="M348.7681,419.301l22.5-12.99v-2.887l-22.5,12.991Z"/>
    <path class="exterior-L-light" d="M300.0181,398.372l-15-8.66v-4.33l15,8.66Z"/>
    <path class="exterior-L-light" d="M300.0181,404.146l-15-8.66v-4.331l15,8.661Z"/>
    <path class="exterior-R-light" d="M412.5181,375.278l15-8.66v-4.33l-15,8.66Z"/>
    <path class="exterior-R-light" d="M412.5181,381.051l15-8.66v-4.33l-15,8.66Z"/>
    <path class="exterior-R-light" d="M412.5181,392.599l15-8.661v-4.33l-15,8.66Z"/>
    <path class="exterior-L-light" d="M260.0181,375.278l-15-8.66v-4.33l15,8.66Z"/>
    <path class="exterior-L-light" d="M260.0181,381.052l-15-8.66v-4.331l15,8.661Z"/>
    <path class="exterior-L-light" d="M220.0181,352.184l-15-8.66v-4.33l15,8.66Z"/>
    <path class="exterior-L-light" d="M180.0181,329.09l-15-8.66V316.1l15,8.66Z"/>
    <path class="exterior-L-light" d="M60.0181,259.808l-11.25-6.495v-4.33l11.25,6.494Z"/>
    <path class="exterior-L-light" d="M456.2681,332.698l5,2.887v80.829l-5-2.887Z"/>
    <path class="exterior-R-light" d="M586.2681,246.096v5.773l-15,8.661v-5.774Z"/>
    <path class="exterior-R-light" d="M701.2681,173.927l-120,69.282,5,2.887-5,8.66v5.774l120-69.282Z"/>
    <path class="exterior-R-dark" d="M706.2681,171.04v5.774l-120,69.282-5-2.887Z"/>
    <path class="exterior-L-light" d="M372.5181,386.825l-1.25-.722v-4.33l1.25.722Z"/>
    <path class="exterior-R-light" d="M300.0181,386.825l1.25-.721v-4.33l-1.25.721Z"/>
    <path class="exterior-L-light" d="M412.5181,363.731l-1.25-.722v-4.33l1.25.722Z"/>
    <path class="exterior-R-light" d="M260.0181,363.731l1.25-.722v-4.33l-1.25.722Z"/>
    <path class="exterior-R-light" d="M220.0181,340.637l1.25-.722v-4.33l-1.25.722Z"/>
    <path class="exterior-R-light" d="M180.0181,317.543l1.25-.722v-4.33l-1.25.722Z"/>
    <path class="exterior-R-light" d="M140.0181,294.449l1.25-.722v-4.33l-1.25.721Z"/>
    <path class="exterior-R-light" d="M155.0181,300.222l-1.25-.721v17.32l1.25-.721Z"/>
    <path class="top-light" d="M156.2681,318.265v-1.444l-1.25-.721-1.25.721Z"/>
    <path class="exterior-R-light" d="M100.0181,271.354l1.25-.721v-4.33l-1.25.721Z"/>
    <path class="exterior-R-light" d="M60.0181,248.26l1.25-.721v-4.331l-1.25.722Z"/>
    <path class="exterior-L-light" d="M452.5181,340.637l-1.25-.722v-4.33l1.25.722Z"/>
    <path class="exterior-L-light" d="M372.5181,392.599l-1.25-.722v-4.33l1.25.722Z"/>
    <path class="exterior-R-light" d="M300.0181,392.599l1.25-.722v-4.33l-1.25.722Z"/>
    <path class="exterior-L-light" d="M412.5181,369.504l-1.25-.721v-4.33l1.25.721Z"/>
    <path class="exterior-R-light" d="M260.0181,369.504l1.25-.721v-4.33l-1.25.721Z"/>
    <path class="exterior-R-light" d="M220.0181,346.411l1.25-.722v-4.33l-1.25.722Z"/>
    <path class="exterior-R-light" d="M180.0181,323.317l1.25-.722v-4.33l-1.25.722Z"/>
    <path class="exterior-R-light" d="M140.0181,300.223l1.25-.722v-4.33l-1.25.722Z"/>
    <path class="exterior-R-light" d="M100.0181,277.128l1.25-.721v-4.33l-1.25.721Z"/>
    <path class="exterior-R-light" d="M60.0181,254.034l1.25-.721v-4.331l-1.25.722Z"/>
    <path class="exterior-L-light" d="M452.5181,346.411l-1.25-.722v-4.33l1.25.722Z"/>
    <path class="exterior-L-light" d="M372.5181,398.372l-1.25-.722v-4.33l1.25.722Z"/>
    <path class="exterior-L-light" d="M372.5181,404.145l-1.25-.721v-4.33l1.25.721Z"/>
    <path class="exterior-L-light" d="M348.7681,417.858l-1.25-.722v-1.443l1.25.722Z"/>
    <path class="exterior-R-light" d="M300.0181,398.372l1.25-.722v-4.33l-1.25.722Z"/>
    <path class="exterior-R-light" d="M300.0181,404.146l1.25-.722v-4.33l-1.25.722Z"/>
    <path class="exterior-R-light" d="M300.0181,415.693l1.25-.722v-4.33l-1.25.722Z"/>
    <path class="exterior-R-light" d="M260.0181,392.598l1.25-.721v-4.33l-1.25.721Z"/>
    <path class="exterior-R-light" d="M220.0181,357.957l1.25-.721v-4.331l-1.25.722Z"/>
    <path class="exterior-R-light" d="M180.0181,334.863l1.25-.722v-4.33l-1.25.722Z"/>
    <path class="exterior-R-light" d="M140.0181,311.769l1.25-.722v-4.33l-1.25.722Z"/>
    <path class="exterior-R-light" d="M60.0181,265.581l1.25-.722v-4.33l-1.25.721Z"/>
    <path class="exterior-L-light" d="M372.5181,421.467l-1.25-.722v-4.33l1.25.721Z"/>
    <path class="exterior-L-light" d="M372.5181,415.693l-1.25-.722v-4.33l1.25.721Z"/>
    <path class="exterior-R-light" d="M300.0181,421.467l1.25-.722v-4.33l-1.25.721Z"/>
    <path class="exterior-R-light" d="M260.0181,398.373l1.25-.722v-4.33l-1.25.721Z"/>
    <path class="exterior-L-light" d="M372.5181,427.24l-1.25-.722v-4.33l1.25.722Z"/>
    <path class="exterior-R-light" d="M300.0181,427.239l1.25-.721v-4.33l-1.25.721Z"/>
    <path class="exterior-L-light" d="M412.5181,398.372l-1.25-.721V393.32l1.25.722Z"/>
    <path class="exterior-L-light" d="M412.5181,404.145l-1.25-.721v-4.33l1.25.721Z"/>
    <path class="exterior-L-light" d="M412.5181,409.919l-1.25-.721v-4.331l1.25.722Z"/>
    <path class="exterior-R-light" d="M260.0181,404.146l1.25-.722v-4.33l-1.25.722Z"/>
    <path class="exterior-R-light" d="M220.0181,369.504l1.25-.721v-4.33l-1.25.721Z"/>
    <path class="exterior-R-light" d="M180.0181,346.41l1.25-.722v-4.33l-1.25.722Z"/>
    <path class="exterior-R-light" d="M140.0181,323.316l1.25-.722v-4.33l-1.25.722Z"/>
    <path class="exterior-R-light" d="M100.0181,300.222l1.25-.722v-4.33l-1.25.722Z"/>
    <path class="exterior-R-light" d="M60.0181,277.128l1.25-.722v-4.33l-1.25.721Z"/>
    <path class="exterior-L-light" d="M372.5181,433.013l-1.25-.722v-4.33l1.25.722Z"/>
    <path class="exterior-R-light" d="M300.0181,433.013l1.25-.721v-4.33l-1.25.721Z"/>
    <path class="exterior-L-light" d="M412.5181,415.693l-1.25-.722v-4.33l1.25.722Z"/>
    <path class="exterior-R-light" d="M260.0181,409.919l1.25-.721v-4.331l-1.25.722Z"/>
    <path class="exterior-R-light" d="M260.0181,415.693l1.25-.722v-4.33l-1.25.722Z"/>
    <path class="exterior-R-light" d="M220.0181,375.278l1.25-.722v-4.33l-1.25.722Z"/>
    <path class="exterior-R-light" d="M180.0181,352.184l1.25-.722v-4.33l-1.25.722Z"/>
    <path class="exterior-R-light" d="M140.0181,329.09l1.25-.722v-4.33l-1.25.721Z"/>
    <path class="exterior-R-light" d="M100.0181,305.995l1.25-.721v-4.33l-1.25.721Z"/>
    <path class="exterior-R-light" d="M60.0181,282.901l1.25-.721v-4.331l-1.25.722Z"/>
    <path class="exterior-L-light" d="M372.5181,438.787l-1.25-.722v-4.33l1.25.721Z"/>
    <path class="exterior-R-light" d="M300.0181,438.787l1.25-.722v-4.33l-1.25.722Z"/>
    <path class="exterior-L-light" d="M412.5181,421.466l-1.25-.722v-4.33l1.25.722Z"/>
    <path class="exterior-R-light" d="M260.0181,421.467l1.25-.722v-4.33l-1.25.721Z"/>
    <path class="exterior-R-light" d="M220.0181,381.052l1.25-.722V376l-1.25.722Z"/>
    <path class="exterior-R-light" d="M180.0181,357.958l1.25-.722v-4.33l-1.25.721Z"/>
    <path class="exterior-R-light" d="M140.0181,334.863l1.25-.721v-4.33l-1.25.721Z"/>
    <path class="exterior-R-light" d="M100.0181,311.769l1.25-.721v-4.331l-1.25.722Z"/>
    <path class="exterior-R-light" d="M60.0181,288.675l1.25-.722v-4.33l-1.25.722Z"/>
    <path class="exterior-L-light" d="M372.5181,444.56l-1.25-.721v-4.33l1.25.721Z"/>
    <path class="exterior-L-light" d="M372.5181,450.334l-1.25-.722v-4.33l1.25.721Z"/>
    <path class="exterior-R-light" d="M300.0181,444.56l1.25-.722v-4.33l-1.25.722Z"/>
    <path class="exterior-R-light" d="M300.0181,450.334l1.25-.722v-4.33l-1.25.721Z"/>
    <path class="exterior-L-light" d="M412.5181,427.24l-1.25-.722v-4.33l1.25.721Z"/>
    <path class="exterior-R-light" d="M260.0181,427.24l1.25-.722v-4.33l-1.25.722Z"/>
    <path class="exterior-R-light" d="M220.0181,386.825l1.25-.722v-4.33l-1.25.722Z"/>
    <path class="exterior-R-light" d="M180.0181,363.731l1.25-.722v-4.33l-1.25.722Z"/>
    <path class="exterior-R-light" d="M140.0181,340.637l1.25-.722v-4.33l-1.25.721Z"/>
    <path class="exterior-R-light" d="M100.0181,317.542l1.25-.721v-4.33l-1.25.721Z"/>
    <path class="exterior-R-light" d="M60.0181,294.448l1.25-.721v-4.331l-1.25.722Z"/>
    <path class="exterior-R-light" d="M220.0181,392.598l1.25-.721v-4.33l-1.25.721Z"/>
    <path class="exterior-R-light" d="M180.0181,369.504l1.25-.721v-4.331l-1.25.722Z"/>
    <path class="exterior-R-light" d="M60.0181,300.222l1.25-.722v-4.33l-1.25.721Z"/>
    <path class="exterior-R-light" d="M220.0181,398.372l1.25-.722v-4.33l-1.25.722Z"/>
    <path class="exterior-R-light" d="M180.0181,375.278l1.25-.722v-4.33l-1.25.722Z"/>
    <path class="exterior-R-light" d="M140.0181,352.184l1.25-.722v-4.33l-1.25.721Z"/>
    <path class="exterior-R-light" d="M100.0181,329.089l1.25-.721v-4.33l-1.25.721Z"/>
    <path class="exterior-R-light" d="M60.0181,305.995l1.25-.721v-4.331l-1.25.722Z"/>
    <path class="exterior-R-light" d="M220.0181,404.146l1.25-.722v-4.33l-1.25.722Z"/>
    <path class="exterior-R-light" d="M180.0181,381.052l1.25-.722V376l-1.25.721Z"/>
    <path class="exterior-R-light" d="M140.0181,357.957l1.25-.721v-4.33l-1.25.721Z"/>
    <path class="exterior-R-light" d="M100.0181,334.863l1.25-.721v-4.331l-1.25.722Z"/>
    <path class="exterior-R-light" d="M60.0181,311.769l1.25-.722v-4.33l-1.25.722Z"/>
    <path class="exterior-L-light" d="M372.5181,463.324l-1.25-.721V451.056l1.25.721Z"/>
    <path class="exterior-L-light" d="M412.5181,440.23l-1.25-.722V427.961l1.25.722Z"/>
    <path class="exterior-L-light" d="M452.5181,417.136l-1.25-.722V404.867l1.25.722Z"/>
    <path class="exterior-R-light" d="M220.0181,417.136l1.25-.722V404.867l-1.25.722Z"/>
    <path class="exterior-R-light" d="M180.0181,394.042l1.25-.722V381.773l-1.25.722Z"/>
    <path class="exterior-R-light" d="M140.0181,370.948l1.25-.722V358.679l-1.25.722Z"/>
    <path class="exterior-R-light" d="M100.0181,347.853l1.25-.721V335.585l-1.25.722Z"/>
    <path class="exterior-R-light" d="M60.0181,324.759l1.25-.722V312.491l-1.25.721Z"/>
    <path class="exterior-L-light" d="M412.5181,375.278l-1.25-.722v-4.33l1.25.722Z"/>
    <path class="exterior-L-light" d="M412.5181,381.051l-1.25-.721V376l1.25.721Z"/>
    <path class="exterior-L-light" d="M412.5181,392.599l-1.25-.722v-4.33l1.25.721Z"/>
    <path class="exterior-R-light" d="M260.0181,375.278l1.25-.721v-4.331l-1.25.722Z"/>
    <path class="exterior-R-light" d="M260.0181,381.052l1.25-.722V376l-1.25.722Z"/>
    <path class="exterior-R-light" d="M220.0181,352.184l1.25-.721v-4.33l-1.25.721Z"/>
    <path class="exterior-R-light" d="M180.0181,329.09l1.25-.722v-4.33l-1.25.722Z"/>
    <path class="exterior-R-light" d="M140.0181,305.996l1.25-.722v-4.33l-1.25.722Z"/>
    <path class="exterior-R-light" d="M60.0181,259.808l1.25-.722v-4.33l-1.25.721Z"/>
    <path class="exterior-L-light" d="M452.5181,352.184l-1.25-.722v-4.33l1.25.722Z"/>
    <path class="exterior-R-light" d="M452.5181,346.411l5-2.887v-4.33l-5,2.887Z"/>
    <path class="exterior-R-light" d="M452.5181,340.637l5-2.887v-4.33l-5,2.887Z"/>
    <path class="top-light" d="M456.2681,332.698l1.25.722-5,2.887-1.25-.722Z"/>
    <path class="top-light" d="M456.2681,338.472l1.25.722-5,2.887-1.25-.722Z"/>
    <path class="top-light" d="M456.2681,344.246l1.25.721-5,2.887-1.25-.722Z"/>
    <path class="exterior-R-light" d="M452.5181,352.184l5-2.887v-4.33l-5,2.887Z"/>
    <path class="exterior-R-light" d="M336.2681,430.848l121.25-70.004v-4.33l-121.25,70.004Z"/>
    <path class="exterior-L-light" d="M336.2681,430.848,48.7681,264.86v-4.33l287.5,165.988Z"/>
    <path class="top-light" d="M456.2681,355.792l1.25.722-121.25,70.004v-1.443Z"/>
    <path class="top-light" d="M50.0181,259.808l-1.25.722,287.5,165.988v-1.443Z"/>
    <path class="top-light" d="M456.2681,361.566l1.25.722-5,2.886-1.25-.722Z"/>
    <path class="top-light" d="M456.2681,367.34l1.25.721-5,2.887-1.25-.722Z"/>
    <path class="top-light" d="M456.2681,373.113l1.25.722-5,2.886-1.25-.722Z"/>
    <path class="top-light" d="M456.2681,378.886l1.25.722-5,2.887-1.25-.722Z"/>
    <path class="top-light" d="M456.2681,384.66l1.25.722-5,2.887-1.25-.722Z"/>
    <path class="exterior-R-light" d="M452.5181,369.504l5-2.886v-4.33l-5,2.886Z"/>
    <path class="exterior-R-light" d="M452.5181,375.278l5-2.887v-4.33l-5,2.887Z"/>
    <path class="exterior-R-light" d="M452.5181,381.051l5-2.886v-4.33l-5,2.886Z"/>
    <path class="exterior-R-light" d="M452.5181,386.825l5-2.887v-4.33l-5,2.887Z"/>
    <path class="exterior-R-dark" d="M466.2681,397.65l102.5-59.178v10.104l-102.5,59.178Z"/>
    <path class="exterior-R-light" d="M452.5181,392.599l5-2.887v-4.33l-5,2.887Z"/>
    <path class="exterior-L-light" d="M452.5181,369.504l-1.25-.721v-4.33l1.25.721Z"/>
    <path class="exterior-L-light" d="M452.5181,375.278l-1.25-.722v-4.33l1.25.722Z"/>
    <path class="exterior-L-light" d="M452.5181,381.051l-1.25-.721V376l1.25.721Z"/>
    <path class="exterior-L-light" d="M452.5181,386.825l-1.25-.722v-4.33l1.25.722Z"/>
    <path class="exterior-L-light" d="M452.5181,392.599l-1.25-.722v-4.33l1.25.722Z"/>
    <path class="exterior-R-light" d="M531.2681,290.841l10-5.774v85.159l-10,5.774Z"/>
    <path class="exterior-R-light" d="M461.2681,331.255l10-5.773v85.159l-10,5.773Z"/>
    <path class="exterior-R-light" d="M571.2681,270.633l10-5.773v82.272l-10,5.774Z"/>
    <path class="exterior-R-light" d="M501.2681,308.161l10-5.773v85.159l-10,5.773Z"/>
    <path class="exterior-L-light" d="M571.2681,267.747l-5,2.886v79.386l5,2.887Z"/>
    <path class="exterior-L-light" d="M531.2681,290.841l-5,2.886v79.386l5,2.887Z"/>
    <path class="exterior-L-light" d="M501.2681,308.161l-5,2.887v79.385l5,2.887Z"/>
    <path class="exterior-R-prim" d="M471.2681,338.472l.8569-1.287c6.426-9.646,17.2441-15.537,24.1431-13.147h0V312.491l-25,14.434Z"/>
    <path class="exterior-R-dark" d="M503.7681,351.462l5-2.886V329.812l-5,2.886Z"/>
    <path class="exterior-R-dark" d="M463.7681,374.556l5-2.886V352.906l-5,2.886Z"/>
    <path class="exterior-R-dark" d="M533.7681,334.142l5-2.887V312.491l-5,2.887Z"/>
    <path class="exterior-R-dark" d="M573.7681,311.048l5-2.887V289.397l-5,2.887Z"/>
    <path class="exterior-L-dark" d="M456.2681,403.424l5,2.887,2.5-1.444v10.104l-2.5,1.443-5-2.887Z"/>
    <path class="exterior-L-dark" d="M496.2681,380.33l5,2.887,2.5-1.444v10.104l-2.5,1.443-5-2.886Z"/>
    <path class="exterior-L-dark" d="M526.2681,363.009l5,2.887,2.5-1.443v10.103l-2.5,1.444-5-2.887Z"/>
    <path class="exterior-L-dark" d="M566.2681,339.915l5,2.887,2.5-1.443v10.103l-2.5,1.444-5-2.887Z"/>
    <path class="exterior-R-dark" d="M461.2681,406.311l10-5.774v10.104l-10,5.773Z"/>
    <path class="exterior-R-dark" d="M501.2681,383.217l10-5.774v10.104l-10,5.773Z"/>
    <path class="exterior-R-dark" d="M531.2681,365.896l10-5.773v10.103l-10,5.774Z"/>
    <path class="exterior-R-dark" d="M571.2681,342.802l10-5.773v10.103l-10,5.774Z"/>
    <path class="exterior-R-prim" d="M511.2681,315.378h0c4.139-8.763,10.8609-12.643,15-8.66h0V295.171l-15,8.66Z"/>
    <g>
      <path class="top-light" d="M541.2681,316.821l25-14.433,2.5,1.443-27.5,15.877Z"/>
      <path class="top-light" d="M541.2681,328.368l25-14.433,2.5,1.443-27.5,15.877Z"/>
      <path class="exterior-R-light" d="M568.7681,306.718v-2.887l-27.5,15.877v2.887Z"/>
      <path class="exterior-R-light" d="M568.7681,321.151v-5.773l-27.5,15.877v5.774Z"/>
      <path class="exterior-R-light" d="M566.2681,308.161v5.774l-25,14.433v-5.773Z"/>
    </g>
    <g>
      <path class="top-light" d="M471.2681,357.236l25-14.434,2.5,1.443-27.5,15.878Z"/>
      <path class="top-light" d="M471.2681,368.783l25-14.434,2.5,1.443-27.5,15.878Z"/>
      <path class="exterior-R-light" d="M498.7681,347.132v-2.887l-27.5,15.878v2.886Z"/>
      <path class="exterior-R-light" d="M498.7681,361.566v-5.774l-27.5,15.878v5.773Z"/>
      <path class="exterior-R-light" d="M496.2681,348.576v5.773l-25,14.434v-5.774Z"/>
    </g>
    <g>
      <path class="top-light" d="M511.2681,334.142l15-8.66,2.5,1.443-17.5,10.104Z"/>
      <path class="top-light" d="M511.2681,345.689l15-8.66,2.5,1.443-17.5,10.104Z"/>
      <path class="top-light" d="M503.7681,351.462v-1.443l3.75-2.165v-1.443l1.25.721v1.444Z"/>
      <path class="top-light" d="M463.7681,374.556v-1.443l3.75-2.165v-1.443l1.25.721v1.444Z"/>
      <path class="top-light" d="M533.7681,334.142v-1.444l3.75-2.165V329.09l1.25.722v1.443Z"/>
      <path class="top-light" d="M573.7681,311.048l5-2.887v-1.443l-1.25-.722v1.443l-3.75,2.165Z"/>
      <path class="exterior-R-light" d="M528.7681,329.812v-2.887l-17.5,10.104v2.886Z"/>
      <path class="exterior-R-light" d="M528.7681,344.245v-5.773L518,344.689l-6.732,3.887v5.773Z"/>
      <path class="exterior-R-light" d="M526.2681,331.255v5.774l-15,8.66v-5.774Z"/>
    </g>
    <path class="cls-8" d="M486.2681,368.783v27.424l-15,8.66V377.443Z"/>
    <path class="cls-8" d="M523.7681,352.906h0v17.32l-10,5.774V358.679h0c0-1.593,2.24-4.18,5-5.773h0C521.5281,351.312,523.7681,351.312,523.7681,352.906Z"/>
    <path class="cls-9" d="M485.0181,370.948l-13.75,7.938v8.661l13.75-7.939Z"/>
    <path class="cls-9" d="M522.5181,355.071h0c0-1.593-1.68-1.917-3.75-.722h0c-2.07,1.195-3.75,3.459-3.75,5.052h0v14.434l7.5-4.33Z"/>
    <path class="cls-9" d="M485.0181,381.052v7.216l-5,2.887v-7.217Z"/>
    <path class="window-R-prim" d="M478.7681,384.66v7.217l-5,2.887v-7.217Z"/>
    <path class="window-R-prim" d="M472.5181,388.268v7.217l-1.25.722V388.99Z"/>
    <path class="exterior-R-prim" d="M541.2681,298.057l.857-1.286c6.4259-9.646,17.2439-15.537,24.143-13.147h0V272.077l-25,14.433Z"/>
    <path class="window-R-prim" d="M472.5181,396.929l-1.25.721v4.33l1.25-.721Z"/>
    <path class="window-R-prim" d="M473.7681,396.207v4.33l5-2.887v-4.33Z"/>
    <path class="window-R-prim" d="M480.0181,392.599l5-2.887v4.33l-5,2.887Z"/>
    <path class="exterior-R-light" d="M581.2681,248.983l-120,69.282v17.32l120-69.282Z"/>
    <path class="exterior-R-dark" d="M586.2681,246.096v5.773l-125,72.169v-5.773Z"/>
    <path class="top-light" d="M456.2681,390.434l1.25.721-5,2.887-1.25-.722Z"/>
    <path class="top-light" d="M456.2681,396.207l1.25.721-5,2.887-1.25-.722Z"/>
    <path class="exterior-R-light" d="M452.5181,398.372l5-2.886v-4.331l-5,2.887Z"/>
    <path class="exterior-R-light" d="M452.5181,404.145l5-2.886v-4.331l-5,2.887Z"/>
    <path class="exterior-L-light" d="M452.5181,398.372l-1.25-.721V393.32l1.25.722Z"/>
    <path class="exterior-L-light" d="M452.5181,404.145l-1.25-.721v-4.331l1.25.722Z"/>
    <path class="slope-L-prim-dark" d="M463.7681,383.217v1.443l23.75,13.712,1.25-.722v-2.886l-1.25.721-22.5-12.99Z"/>
    <path class="slope-R-prim-dark" d="M602.5181,330.533v1.444l-115,66.395v-2.887l113.75-65.673Z"/>
    <path class="slope-top-prim" d="M463.7681,383.217l23.75,13.712,115-66.396-23.75-13.712Z"/>
    <path class="slope-L-prim" d="M466.2681,377.443l-1.25.722v4.33l22.5,12.99,1.25-.721V388.99l-1.25.722Z"/>
    <path class="slope-L-prim-dark" d="M463.7681,377.443v1.443l23.75,13.713,1.25-.722V388.99l-1.25.722-22.5-12.991Z"/>
    <path class="slope-R-prim" d="M487.5181,395.485l113.75-65.673v-4.33l-1.25-.722-112.5,64.952Z"/>
    <path class="slope-R-prim-dark" d="M602.5181,324.76v1.443l-115,66.396v-2.887l113.75-65.674Z"/>
    <path class="slope-top-prim" d="M463.7681,377.443l23.75,13.712,115-66.395-23.75-13.712Z"/>
    <path class="slope-top-prim-dark" d="M487.5181,388.268l-18.75-10.825,20-11.547,18.75,10.825Z"/>
    <path class="slope-top-prim-dark" d="M532.5181,362.288l-18.75-10.826,20-11.547,18.75,10.826Z"/>
    <path class="slope-top-prim-dark" d="M510.0181,375.278l-18.75-10.825,20-11.547,18.75,10.825Z"/>
    <path class="slope-top-prim-dark" d="M555.0181,349.297l-18.75-10.825,20-11.547,18.75,10.825Z"/>
    <path class="slope-top-prim-dark" d="M577.5181,336.307l-18.75-10.825,20-11.547,18.75,10.825Z"/>
    <path class="slope-R-prim" d="M468.7681,377.443l20-11.547,2.5,1.443v2.887l-2.5-1.443-17.5,10.103Z"/>
    <path class="slope-R-prim" d="M513.7681,351.462l20-11.547,2.5,1.444v2.886l-2.5-1.443-17.5,10.104Z"/>
    <path class="slope-R-prim" d="M491.2681,364.453l20-11.547,2.5,1.443v2.887l-2.5-1.444-17.5,10.104Z"/>
    <path class="slope-R-prim" d="M536.2681,338.472l20-11.547,2.5,1.443v2.887l-2.5-1.443-17.5,10.103Z"/>
    <path class="slope-R-prim" d="M558.7681,325.482l20-11.547,2.5,1.443v2.887l-2.5-1.444-17.5,10.104Z"/>
    <path class="slope-L-prim" d="M488.7681,365.896v2.887l16.25,9.382,2.5-1.444Z"/>
    <path class="slope-L-prim" d="M511.2681,355.793l16.25,9.381,2.5-1.443-18.75-10.825Z"/>
    <path class="slope-L-prim" d="M533.7681,339.915v2.887l16.25,9.382,2.5-1.443Z"/>
    <path class="slope-L-prim" d="M556.2681,329.812l16.25,9.382,2.5-1.444-18.75-10.825Z"/>
    <path class="slope-L-prim" d="M578.7681,316.821l16.25,9.382,2.5-1.443-18.75-10.825Z"/>
    <g>
      <path class="slope-R-prim-dark" d="M485.0181,381.052l-2.5-1.444,2.5-1.443,2.5,1.443Z"/>
      <path class="cls-7" d="M472.5181,363.731l2.5-1.443v2.886l-2.5,1.444Z"/>
      <line class="cls-10" x1="473.7681" y1="364.453" x2="485.0181" y2="379.608"/>
    </g>
    <g>
      <path class="slope-R-prim-dark" d="M555.0181,340.637l-2.5-1.443,2.5-1.444,2.5,1.444Z"/>
      <path class="cls-7" d="M542.5181,323.317l2.5-1.444v2.887l-2.5,1.443Z"/>
      <line class="cls-10" x1="543.7681" y1="324.038" x2="555.0181" y2="339.194"/>
    </g>
    <g>
      <path class="slope-R-prim-dark" d="M505.0181,369.504l-2.5-1.443,2.5-1.443,2.5,1.443Z"/>
      <path class="cls-7" d="M492.5181,352.184l2.5-1.443v2.886l-2.5,1.444Z"/>
      <line class="cls-10" x1="493.7681" y1="352.906" x2="505.0181" y2="368.061"/>
    </g>
    <g>
      <path class="slope-R-prim-dark" d="M575.0181,329.09l-2.5-1.443,2.5-1.444,2.5,1.444Z"/>
      <path class="cls-7" d="M562.5181,311.769l2.5-1.443v2.887l-2.5,1.443Z"/>
      <line class="cls-10" x1="563.7681" y1="312.491" x2="575.0181" y2="327.647"/>
    </g>
    <path class="exterior-L-light" d="M467.5181,370.948l1.25.722V352.906l-1.25.721Z"/>
    <path class="exterior-L-light" d="M508.7681,348.576l-1.25-.722V330.533l1.25-.721Z"/>
    <path class="exterior-L-light" d="M538.7681,331.255l-1.25-.722v-17.32l1.25-.722Z"/>
    <path class="exterior-L-light" d="M578.7681,308.161l-1.25-.722v-17.32l1.25-.722Z"/>
    <path class="top-light" d="M456.2681,328.368l-1.25.722,6.25,3.608,122.5-70.725-2.5-1.443v1.443l-120,69.282Z"/>
    <path class="exterior-L-dark" d="M480.0181,327.647l1.25.721v-5.773l-2.5,1.443Z"/>
    <path class="exterior-L-dark" d="M516.2681,306.718l1.25.721v-5.773l-2.5,1.443Z"/>
    <path class="exterior-L-dark" d="M550.0181,287.232l1.25.722V282.18l-2.5,1.444Z"/>
    <path class="exterior-R-prim" d="M581.2681,257.643l2.5-4.33-122.5,70.725v2.887Z"/>
    <path class="exterior-L-prim" d="M456.2681,321.151v2.887l5,2.887v-2.887Z"/>
    <path class="exterior-L-dark" d="M462.5181,337.75l1.25.722v12.99l1.25.722,2.5-1.443V331.977l-1.25-.722-3.75,2.165Z"/>
    <path class="exterior-L-dark" d="M502.5181,314.656l1.25.722v12.99l1.25.722,2.5-1.443V308.883l-1.25-.722-3.75,2.165Z"/>
    <path class="exterior-L-dark" d="M532.5181,297.336l1.25.721v12.991l1.25.722,2.5-1.444V291.562l-1.25-.721-3.75,2.165Z"/>
    <path class="exterior-L-dark" d="M572.5181,274.242l1.25.721v12.991l1.25.722,2.5-1.444V268.468l-1.25-.721-3.75,2.165Z"/>
    <path class="exterior-R-dark" d="M463.7681,334.142l6.25-3.609v4.331l-1.25.721v14.434l-1.25,2.165-1.25.722-1.25-.722V337.75l-1.25.722Z"/>
    <path class="exterior-R-dark" d="M503.7681,311.048l6.25-3.609v4.331l-1.25.721v14.434l-1.25,2.165-1.25.722-1.25-.722V314.656l-1.25.722Z"/>
    <path class="exterior-R-dark" d="M533.7681,293.727l6.25-3.608v4.33l-1.25.722v14.433l-1.25,2.166-1.25.721-1.25-.721V297.336l-1.25.721Z"/>
    <path class="exterior-R-dark" d="M573.7681,270.633l6.25-3.608v4.33l-1.25.722V286.51l-1.25,2.166-1.25.721-1.25-.721V274.242l-1.25.722Z"/>
    <path class="exterior-R-dark" d="M461.2681,332.698l122.5-70.725v2.887l-122.5,70.725Z"/>
    <path class="exterior-R-light" d="M481.2681,328.368l2.5-1.443,3.75-7.939-6.25,3.609Z"/>
    <path class="exterior-R-light" d="M517.5181,307.439l2.5-1.443,3.75-7.938-6.25,3.608Z"/>
    <path class="exterior-R-light" d="M551.2681,287.954l2.5-1.444,3.75-7.938-6.25,3.608Z"/>
    <path class="top-light" d="M346.2681,425.075l1.25.721v1.444l-11.25,6.495-11.25-6.495v-1.444l1.25-.721,10,5.773Z"/>
    <path class="top-light" d="M348.7681,425.074l-1.25-.721,22.5-12.991,1.25.722Z"/>
    <path class="top-light" d="M323.7681,425.075l1.25-.722-22.5-12.99-1.25.722Z"/>
    <path class="top-light" d="M283.7681,401.981l1.25-.722-22.5-12.99-1.25.722Z"/>
    <path class="top-light" d="M243.7681,378.886l1.25-.722-22.5-12.99-1.25.722Z"/>
    <path class="top-light" d="M203.7681,355.793l1.25-.722-22.5-12.99-1.25.722Z"/>
    <path class="top-light" d="M163.7681,332.698l1.25-.722-22.5-12.99-1.25.721Z"/>
    <path class="top-light" d="M123.7681,309.605l1.25-.722-22.5-12.99-1.25.721Z"/>
    <path class="top-light" d="M83.7681,286.51l1.25-.722-22.5-12.991-1.25.722Z"/>
    <path class="top-light" d="M388.7681,401.98l-1.25-.721,22.5-12.991,1.25.722Z"/>
    <path class="top-light" d="M428.7681,378.886l-1.25-.721,22.5-12.991,1.25.722Z"/>
    <path class="top-light" d="M582.5181,290.119l-1.25-.722,22.5-12.99,1.25.721Z"/>
    <path class="top-light" d="M622.5181,267.025l-1.25-.722,22.5-12.99,1.25.722Z"/>
    <path class="top-light" d="M662.5181,243.931l-1.25-.722,22.5-12.99,1.25.721Z"/>
    <path class="top-light" d="M346.2681,430.848l1.25.722v1.443l-11.25,6.495-11.25-6.495V431.57l1.25-.722,10,5.774Z"/>
    <path class="top-light" d="M346.2681,436.622l1.25.722v1.443l-11.25,6.495-11.25-6.495v-1.444l1.25-.721,10,5.773Z"/>
    <path class="top-light" d="M346.2681,442.395l1.25.722v1.443l-11.25,6.495-11.25-6.495v-1.443l1.25-.722,10,5.773Z"/>
    <path class="top-light" d="M346.2681,448.168l1.25.722v1.444l-11.25,6.495-11.25-6.495V448.89l1.25-.722,10,5.774Z"/>
    <path class="top-light" d="M346.2681,453.942l1.25.721v1.444l-11.25,6.495-11.25-6.495v-1.443l1.25-.722,10,5.773Z"/>
    <path class="top-light" d="M346.2681,459.715l1.25.722v1.444l-11.25,6.495-11.25-6.495v-1.444l1.25-.721,10,5.773Z"/>
    <path class="top-light" d="M326.2681,465.489l-1.25.722v1.443l11.25,6.495,11.25-6.495v-1.443l-1.25-.722-10,5.773Z"/>
    <path class="top-light" d="M286.2681,442.395l-1.25.722,15,8.66,1.25-.722Z"/>
    <path class="exterior-R-light" d="M336.2681,442.395l11.25-6.495v-4.33l-11.25,6.495Z"/>
    <path class="exterior-R-light" d="M336.2681,448.169l11.25-6.495v-4.33l-11.25,6.495Z"/>
    <path class="exterior-R-light" d="M336.2681,453.942l11.25-6.495v-4.33l-11.25,6.495Z"/>
    <path class="cls-5" d="M371.2681,435.178v4.33l-25,14.434v-4.33Z"/>
    <path class="cls-6" d="M301.2681,435.178v4.33l25,14.434v-4.33Z"/>
    <path class="cls-6" d="M261.2681,412.084v4.33l25,14.434v-4.33Z"/>
    <path class="cls-6" d="M221.2681,388.991v4.33l25,14.433v-4.33Z"/>
    <path class="cls-6" d="M181.2681,365.897v4.33l25,14.433v-4.33Z"/>
    <path class="cls-6" d="M101.2681,319.708v4.331l25,14.433v-4.33Z"/>
    <path class="cls-6" d="M61.2681,296.613v4.33l25,14.434v-4.33Z"/>
    <path class="cls-5" d="M346.2681,469.819l25-14.434v7.217l-25,14.434Z"/>
    <path class="cls-6" d="M326.2681,469.819l-25-14.434v7.217l25,14.434Z"/>
    <path class="cls-6" d="M286.2681,446.725l-25-14.434v7.217l25,14.434Z"/>
    <path class="cls-6" d="M246.2681,423.632l-25-14.434v7.217l25,14.433Z"/>
    <path class="cls-6" d="M206.2681,400.538l-25-14.434v7.217l25,14.433Z"/>
    <path class="cls-6" d="M362.5181,441.673l7.5-4.33v1.444l-7.5,4.33Z"/>
    <path class="cls-11" d="M310.0181,441.673l-7.5-4.33v1.444l7.5,4.33Z"/>
    <path class="cls-11" d="M270.0181,418.579l-7.5-4.33v1.443l7.5,4.331Z"/>
    <path class="cls-11" d="M230.0181,395.486l-7.5-4.33v1.443l7.5,4.33Z"/>
    <path class="cls-11" d="M190.0181,372.392l-7.5-4.33v1.443l7.5,4.33Z"/>
    <path class="cls-11" d="M110.0181,326.204l-7.5-4.331v1.444l7.5,4.33Z"/>
    <path class="cls-11" d="M70.0181,303.108l-7.5-4.33v1.444l7.5,4.33Z"/>
    <path class="cls-6" d="M402.5181,418.58l7.5-4.33v1.443l-7.5,4.33Z"/>
    <path class="cls-6" d="M442.5181,395.485l7.5-4.33v1.443l-7.5,4.331Z"/>
    <path class="cls-6" d="M596.2681,306.718l7.5-4.33v1.443l-7.5,4.33Z"/>
    <path class="cls-6" d="M636.2681,283.623l7.5-4.33v1.443l-7.5,4.33Z"/>
    <path class="cls-6" d="M353.7681,446.725l7.5-4.33v1.443l-7.5,4.331Z"/>
    <path class="cls-11" d="M318.7681,446.725l-7.5-4.33v1.443l7.5,4.331Z"/>
    <path class="cls-11" d="M278.7681,423.631l-7.5-4.33v1.443l7.5,4.33Z"/>
    <path class="cls-11" d="M238.7681,400.538l-7.5-4.331v1.444l7.5,4.33Z"/>
    <path class="cls-11" d="M198.7681,377.444l-7.5-4.331v1.444l7.5,4.33Z"/>
    <path class="cls-11" d="M118.7681,331.255l-7.5-4.33v1.444l7.5,4.33Z"/>
    <path class="cls-11" d="M78.7681,308.16l-7.5-4.33v1.443l7.5,4.331Z"/>
    <path class="cls-6" d="M393.7681,423.631l7.5-4.33v1.444l-7.5,4.33Z"/>
    <path class="cls-6" d="M433.7681,400.537l7.5-4.33v1.443l-7.5,4.33Z"/>
    <path class="cls-6" d="M587.5181,311.77l7.5-4.331v1.444l-7.5,4.33Z"/>
    <path class="cls-6" d="M627.5181,288.675l7.5-4.33v1.443l-7.5,4.33Z"/>
    <path class="cls-6" d="M352.5181,447.447v1.443l-6.25,3.609v-1.444Z"/>
    <path class="cls-11" d="M320.0181,447.447v1.443l6.25,3.609v-1.444Z"/>
    <path class="cls-11" d="M280.0181,424.353v1.443l6.25,3.608v-1.443Z"/>
    <path class="cls-11" d="M240.0181,401.259v1.444l6.25,3.608v-1.443Z"/>
    <path class="cls-11" d="M200.0181,378.165v1.444l6.25,3.608v-1.443Z"/>
    <path class="cls-11" d="M120.0181,331.977v1.443l6.25,3.609v-1.443Z"/>
    <path class="cls-11" d="M80.0181,308.882v1.443l6.25,3.609V312.49Z"/>
    <path class="cls-6" d="M392.5181,424.353v1.444l-6.25,3.608v-1.443Z"/>
    <path class="cls-6" d="M432.5181,401.259v1.443l-6.25,3.608v-1.443Z"/>
    <path class="cls-6" d="M626.2681,289.397v1.443l-6.25,3.608v-1.443Z"/>
    <path class="cls-6" d="M352.5181,467.654v4.33l-6.25,3.609v-4.33Z"/>
    <path class="cls-11" d="M320.0181,467.654v4.33l6.25,3.609v-4.33Z"/>
    <path class="cls-11" d="M280.0181,444.56v4.33l6.25,3.608v-4.33Z"/>
    <path class="cls-11" d="M240.0181,421.466v4.331l6.25,3.608v-4.33Z"/>
    <path class="cls-11" d="M200.0181,398.373v4.33l6.25,3.608v-4.33Z"/>
    <path class="cls-6" d="M392.5181,444.56v4.331l-6.25,3.608v-4.33Z"/>
    <path class="cls-6" d="M432.5181,421.466v4.33l-6.25,3.609v-4.331Z"/>
    <path class="cls-6" d="M626.2681,309.604v4.33l-6.25,3.608v-4.33Z"/>
    <path class="cls-6" d="M353.7681,466.932l7.5-4.33v4.33l-7.5,4.331Z"/>
    <path class="cls-11" d="M318.7681,466.932l-7.5-4.33v4.33l7.5,4.331Z"/>
    <path class="cls-11" d="M278.7681,443.838l-7.5-4.33v4.33l7.5,4.33Z"/>
    <path class="cls-11" d="M238.7681,420.745l-7.5-4.33v4.33l7.5,4.33Z"/>
    <path class="cls-11" d="M198.7681,397.651l-7.5-4.33v4.33l7.5,4.33Z"/>
    <path class="cls-6" d="M393.7681,443.839l7.5-4.33v4.33l-7.5,4.33Z"/>
    <path class="cls-6" d="M433.7681,420.744l7.5-4.33v4.33l-7.5,4.33Z"/>
    <path class="cls-6" d="M627.5181,308.882l7.5-4.33v4.33l-7.5,4.33Z"/>
    <path class="cls-6" d="M362.5181,461.881l7.5-4.331v4.331l-7.5,4.33Z"/>
    <path class="cls-11" d="M310.0181,461.881l-7.5-4.331v4.331l7.5,4.33Z"/>
    <path class="cls-11" d="M270.0181,438.786l-7.5-4.33v4.33l7.5,4.33Z"/>
    <path class="cls-11" d="M230.0181,415.693l-7.5-4.33v4.33l7.5,4.33Z"/>
    <path class="cls-11" d="M190.0181,392.599l-7.5-4.33v4.33l7.5,4.33Z"/>
    <path class="cls-6" d="M402.5181,438.787l7.5-4.33v4.33l-7.5,4.33Z"/>
    <path class="cls-6" d="M442.5181,415.692l7.5-4.33v4.33l-7.5,4.331Z"/>
    <path class="cls-6" d="M636.2681,303.83l7.5-4.33v4.33l-7.5,4.33Z"/>
    <path class="exterior-R-light" d="M336.2681,459.715l11.25-6.495v-4.33l-11.25,6.495Z"/>
    <path class="exterior-R-light" d="M335.0181,460.437v4.33l1.25.722,11.25-6.495v-4.331l-11.25,6.496Z"/>
    <path class="exterior-R-light" d="M335.0181,466.211v4.33l1.25.721,11.25-6.495v-4.33l-11.25,6.495Z"/>
    <path class="exterior-R-light" d="M336.2681,484.253l11.25-6.495V466.21l-11.25,6.496Z"/>
    <path class="exterior-R-light" d="M300.0181,463.324l1.25-.722V451.055l-1.25.722Z"/>
    <path class="exterior-R-light" d="M412.5181,440.23l15-8.66V420.023l-15,8.66Z"/>
    <path class="exterior-L-light" d="M336.2681,436.622l-11.25-6.495v-4.33l11.25,6.495Z"/>
    <path class="exterior-L-light" d="M348.7681,435.178l-1.25-.722V424.353l1.25.721Z"/>
    <path class="exterior-R-light" d="M323.7681,435.179l1.25-.722V424.353l-1.25.722Z"/>
    <path class="exterior-R-light" d="M283.7681,412.085l1.25-.722V401.259l-1.25.722Z"/>
    <path class="exterior-R-light" d="M243.7681,388.99l1.25-.722V378.164l-1.25.722Z"/>
    <path class="exterior-R-light" d="M203.7681,365.897l1.25-.722V355.071l-1.25.722Z"/>
    <path class="exterior-R-light" d="M163.7681,342.801l1.25-.721V331.976l-1.25.722Z"/>
    <path class="exterior-R-light" d="M123.7681,319.708l1.25-.722V308.883l-1.25.722Z"/>
    <path class="exterior-R-light" d="M83.7681,296.613l1.25-.722V285.788l-1.25.722Z"/>
    <path class="exterior-L-light" d="M388.7681,412.084l-1.25-.722V401.259l1.25.721Z"/>
    <path class="exterior-L-light" d="M428.7681,388.99l-1.25-.722V378.165l1.25.721Z"/>
    <path class="exterior-L-light" d="M582.5181,300.222l-1.25-.721V289.397l1.25.722Z"/>
    <path class="exterior-L-light" d="M622.5181,277.128l-1.25-.721V266.303l1.25.722Z"/>
    <path class="exterior-L-light" d="M662.5181,254.034l-1.25-.721V243.209l1.25.722Z"/>
    <path class="exterior-L-light" d="M336.2681,442.395l-11.25-6.495v-4.33l11.25,6.495Z"/>
    <path class="exterior-L-light" d="M336.2681,448.169l-11.25-6.495v-4.33l11.25,6.495Z"/>
    <path class="exterior-L-light" d="M336.2681,453.942l-11.25-6.495v-4.33l11.25,6.495Z"/>
    <path class="exterior-L-light" d="M336.2681,459.715l-11.25-6.495v-4.33l11.25,6.495Z"/>
    <path class="exterior-L-light" d="M336.2681,465.489l-11.25-6.495v-4.33l11.25,6.495Z"/>
    <path class="exterior-L-light" d="M336.2681,471.263l-11.25-6.496v-4.33l11.25,6.495Z"/>
    <path class="exterior-L-light" d="M336.2681,484.253l-11.25-6.495V466.211l11.25,6.495Z"/>
    <path class="exterior-L-light" d="M300.0181,463.324l-15-8.66V443.117l15,8.66Z"/>
    <path class="exterior-R-light" d="M372.5181,415.693l15-8.66v-4.33l-15,8.659Z"/>
    <path class="exterior-R-light" d="M336.2681,436.622l11.25-6.496v-4.33l-11.25,6.496Z"/>
    <path class="exterior-R-light" d="M348.7681,435.178h0c5.519-9.559,15.601-15.38,22.5-12.99h0V412.084l-22.5,12.99Z"/>
    <path class="exterior-L-light" d="M323.7681,435.179h0c-5.5191-9.56-15.6011-15.381-22.5-12.991h0V412.085l22.5,12.99Z"/>
    <path class="exterior-L-light" d="M283.7681,412.085h0c-5.5191-9.56-15.6011-15.381-22.5-12.991h0V388.991l22.5,12.99Z"/>
    <path class="exterior-L-light" d="M243.7681,388.99h0c-5.5191-9.56-15.6011-15.38-22.5-12.991h0V365.896l22.5,12.99Z"/>
    <path class="exterior-L-light" d="M203.7681,365.897h0c-5.5191-9.56-15.6011-15.381-22.5-12.991h0V342.803l22.5,12.99Z"/>
    <path class="exterior-L-light" d="M163.7681,342.801h0c-5.5191-9.559-15.6011-15.38-22.5-12.99h0V319.707l22.5,12.991Z"/>
    <path class="exterior-L-light" d="M123.7681,319.708h0c-5.5191-9.559-15.6011-15.38-22.5-12.99h0V296.614l22.5,12.991Z"/>
    <path class="exterior-L-light" d="M83.7681,296.613h0c-5.5191-9.559-15.6011-15.38-22.5-12.99h0V273.519l22.5,12.991Z"/>
    <path class="exterior-R-light" d="M388.7681,412.084h0c5.519-9.559,15.601-15.38,22.5-12.99h0V388.99l-22.5,12.99Z"/>
    <path class="exterior-R-light" d="M428.7681,388.99h0c5.519-9.56,15.601-15.38,22.5-12.99h0V365.896l-22.5,12.99Z"/>
    <path class="exterior-R-light" d="M582.5181,300.222h0c5.519-9.559,15.6009-15.38,22.5-12.99h0V277.128l-22.5,12.991Z"/>
    <path class="exterior-R-light" d="M622.5181,277.128h0c5.519-9.559,15.6009-15.38,22.5-12.99h0V254.035l-22.5,12.99Z"/>
    <path class="exterior-R-light" d="M662.5181,254.034h0c5.519-9.559,15.6009-15.38,22.5-12.99h0V230.94l-22.5,12.991Z"/>
    <path class="top-light" d="M456.2681,401.981l1.25.721-5,2.887-1.25-.722Z"/>
    <path class="exterior-R-light" d="M452.5181,417.136l5-2.887V402.702l-5,2.886Z"/>
    <path class="cls-5" d="M685.0181,254.034v4.331l-25,14.433v-4.33Z"/>
    <path class="cls-5" d="M660.0181,288.676l25-14.434v7.217l-25,14.433Z"/>
    <path class="exterior-R-light" d="M646.2681,234.549l15-8.66v-4.33l-15,8.66Z"/>
    <path class="exterior-R-light" d="M646.2681,228.776l15-8.661v-4.33l-15,8.66Z"/>
    <path class="top-light" d="M660.0181,215.064l1.25.721-15,8.661-1.25-.722Z"/>
    <path class="top-light" d="M660.0181,220.837l1.25.722-15,8.66-1.25-.722Z"/>
    <path class="top-light" d="M660.0181,255.478l1.25.722-15,8.66-1.25-.722Z"/>
    <path class="top-light" d="M660.0181,261.252l1.25.721-15,8.66-1.25-.721Z"/>
    <path class="top-light" d="M660.0181,267.025l1.25.722-15,8.66-1.25-.722Z"/>
    <path class="top-light" d="M660.0181,272.799l1.25.721-15,8.661-1.25-.722Z"/>
    <path class="top-light" d="M660.0181,278.572l1.25.722-15,8.66-1.25-.722Z"/>
    <path class="top-light" d="M660.0181,284.346l1.25.721-15,8.661-1.25-.722Z"/>
    <path class="top-light" d="M660.0181,226.611l1.25.721-15,8.66-1.25-.721Z"/>
    <path class="top-light" d="M660.0181,232.384l1.25.722-15,8.66-1.25-.722Z"/>
    <path class="top-light" d="M660.0181,243.931l1.25.722-15,8.66-1.25-.722Z"/>
    <path class="top-light" d="M660.0181,249.705l1.25.721-15,8.661-1.25-.722Z"/>
    <path class="exterior-R-light" d="M646.2681,269.19l15-8.66V256.2l-15,8.66Z"/>
    <path class="exterior-R-light" d="M646.2681,274.964l15-8.661v-4.33l-15,8.66Z"/>
    <path class="exterior-R-light" d="M646.2681,286.511l15-8.661v-4.33l-15,8.661Z"/>
    <path class="exterior-R-light" d="M646.2681,292.284l15-8.66v-4.33l-15,8.66Z"/>
    <path class="exterior-R-light" d="M646.2681,240.323l15-8.661v-4.33l-15,8.66Z"/>
    <path class="exterior-R-light" d="M646.2681,246.096l15-8.66v-4.33l-15,8.66Z"/>
    <path class="exterior-R-light" d="M646.2681,257.643l15-8.66v-4.33l-15,8.66Z"/>
    <path class="exterior-R-light" d="M646.2681,263.417l15-8.661v-4.33l-15,8.66Z"/>
    <path class="exterior-L-light" d="M646.2681,228.776l-1.25-.722v-4.33l1.25.722Z"/>
    <path class="exterior-L-light" d="M646.2681,234.549l-1.25-.722v-4.33l1.25.722Z"/>
    <path class="exterior-L-light" d="M646.2681,240.323l-1.25-.722v-4.33l1.25.721Z"/>
    <path class="exterior-L-light" d="M646.2681,246.096l-1.25-.722v-4.33l1.25.722Z"/>
    <path class="exterior-L-light" d="M646.2681,257.643l-1.25-.722v-4.33l1.25.722Z"/>
    <path class="exterior-L-light" d="M646.2681,263.417l-1.25-.722v-4.33l1.25.721Z"/>
    <path class="exterior-L-light" d="M646.2681,269.19l-1.25-.721v-4.331l1.25.722Z"/>
    <path class="exterior-L-light" d="M646.2681,274.964l-1.25-.722v-4.33l1.25.721Z"/>
    <path class="exterior-L-light" d="M646.2681,280.737l-1.25-.722v-4.33l1.25.722Z"/>
    <path class="exterior-L-light" d="M646.2681,286.511l-1.25-.722v-4.33l1.25.722Z"/>
    <path class="exterior-L-light" d="M646.2681,292.284l-1.25-.722v-4.33l1.25.722Z"/>
    <path class="exterior-L-light" d="M646.2681,305.275l-1.25-.722V293.006l1.25.722Z"/>
    <path class="exterior-R-light" d="M686.2681,211.455l11.25-6.495v-4.33l-11.25,6.495Z"/>
    <path class="exterior-R-light" d="M686.2681,205.681l11.25-6.495v-4.33l-11.25,6.495Z"/>
    <path class="top-light" d="M696.2681,194.134l1.25.722-11.25,6.495-1.25-.721Z"/>
    <path class="top-light" d="M696.2681,199.908l1.25.722-11.25,6.495-1.25-.722Z"/>
    <path class="top-light" d="M696.2681,234.549l1.25.722-11.25,6.495-1.25-.722Z"/>
    <path class="top-light" d="M696.2681,240.322l1.25.722-11.25,6.495-1.25-.722Z"/>
    <path class="top-light" d="M696.2681,246.096l1.25.722-11.25,6.495-1.25-.722Z"/>
    <path class="top-light" d="M696.2681,251.87l1.25.721-11.25,6.495-1.25-.721Z"/>
    <path class="top-light" d="M696.2681,257.643l1.25.722-11.25,6.495-1.25-.722Z"/>
    <path class="top-light" d="M696.2681,263.417l1.25.721-11.25,6.495-1.25-.721Z"/>
    <path class="top-light" d="M696.2681,205.681l1.25.722-11.25,6.495-1.25-.721Z"/>
    <path class="top-light" d="M696.2681,211.455l1.25.722-11.25,6.495-1.25-.722Z"/>
    <path class="top-light" d="M696.2681,223.002l1.25.722-11.25,6.495-1.25-.722Z"/>
    <path class="top-light" d="M696.2681,228.776l1.25.721-11.25,6.495-1.25-.721Z"/>
    <path class="exterior-R-light" d="M686.2681,246.096l11.25-6.495v-4.33l-11.25,6.495Z"/>
    <path class="exterior-R-light" d="M686.2681,251.869l11.25-6.495v-4.33l-11.25,6.495Z"/>
    <path class="exterior-R-light" d="M686.2681,257.643l11.25-6.495v-4.33l-11.25,6.495Z"/>
    <path class="exterior-R-light" d="M686.2681,263.416l11.25-6.495v-4.33l-11.25,6.495Z"/>
    <path class="exterior-R-light" d="M686.2681,269.19l11.25-6.495v-4.33l-11.25,6.495Z"/>
    <path class="exterior-R-light" d="M686.2681,282.18l11.25-6.495V264.138l-11.25,6.495Z"/>
    <path class="exterior-R-light" d="M686.2681,217.228l11.25-6.495v-4.33l-11.25,6.495Z"/>
    <path class="exterior-R-light" d="M686.2681,223.002l11.25-6.495v-4.33l-11.25,6.495Z"/>
    <path class="exterior-R-light" d="M686.2681,234.549l11.25-6.495v-4.33l-11.25,6.495Z"/>
    <path class="exterior-R-light" d="M686.2681,240.322l11.25-6.495v-4.33l-11.25,6.495Z"/>
    <path class="exterior-L-light" d="M686.2681,205.681l-1.25-.721v-4.33l1.25.721Z"/>
    <path class="exterior-L-light" d="M686.2681,211.455l-1.25-.722v-4.33l1.25.722Z"/>
    <path class="exterior-L-light" d="M686.2681,217.228l-1.25-.721v-4.331l1.25.722Z"/>
    <path class="exterior-L-light" d="M686.2681,223.002l-1.25-.722v-4.33l1.25.722Z"/>
    <path class="exterior-L-light" d="M686.2681,234.549l-1.25-.722v-4.33l1.25.722Z"/>
    <path class="exterior-L-light" d="M686.2681,240.322l-1.25-.721v-4.33l1.25.721Z"/>
    <path class="exterior-L-light" d="M686.2681,246.096l-1.25-.722v-4.33l1.25.722Z"/>
    <path class="exterior-L-light" d="M686.2681,251.869l-1.25-.721v-4.33l1.25.721Z"/>
    <path class="exterior-L-light" d="M686.2681,257.643l-1.25-.722v-4.33l1.25.722Z"/>
    <path class="exterior-L-light" d="M686.2681,263.416l-1.25-.721v-4.33l1.25.721Z"/>
    <path class="exterior-L-light" d="M686.2681,269.19l-1.25-.722v-4.33l1.25.722Z"/>
    <path class="exterior-L-light" d="M686.2681,282.18l-1.25-.721V269.912l1.25.721Z"/>
    <path class="exterior-L-light" d="M336.2681,413.528l-11.25-6.495v-4.33l11.25,6.495Z"/>
    <path class="exterior-L-light" d="M336.2681,407.754l-11.25-6.495v-4.33l11.25,6.495Z"/>
    <path class="exterior-R-light" d="M336.2681,413.528l11.25-6.495v-4.331l-11.25,6.496Z"/>
    <path class="exterior-R-light" d="M336.2681,407.754l11.25-6.495v-4.331l-11.25,6.496Z"/>
    <path class="top-light" d="M246.2681,419.302l-1.25.721,15,8.66,1.25-.721Z"/>
    <path class="exterior-R-light" d="M260.0181,440.23l1.25-.721V427.962l-1.25.721Z"/>
    <path class="exterior-L-light" d="M260.0181,440.23l-15-8.66V420.023l15,8.66Z"/>
    <g>
      <path class="exterior-R-light" d="M66.2681,266.303l5-2.887-5-2.886V238.879l-5,2.887v21.65Z"/>
      <path class="top-light" d="M66.2681,260.53l-5,2.886,25,14.434v-5.773Z"/>
    </g>
    <path class="top-light" d="M86.2681,274.963l-1.25.721,15,8.661,1.25-.722Z"/>
    <path class="top-light" d="M86.2681,269.19l-1.25.721,15,8.661,1.25-.722Z"/>
    <path class="exterior-L-light" d="M100.0181,288.675l-15-8.66v-4.331l15,8.661Z"/>
    <path class="exterior-L-light" d="M100.0181,282.902l-15-8.66v-4.331l15,8.661Z"/>
    <path class="exterior-R-light" d="M100.0181,288.675l1.25-.722v-4.33l-1.25.722Z"/>
    <path class="exterior-R-light" d="M100.0181,282.902l1.25-.722v-4.33l-1.25.722Z"/>
    <path class="exterior-R-light" d="M106.2681,289.398l5-2.887-5-2.887v-21.65l-5,2.886v21.651Z"/>
    <path class="top-light" d="M106.2681,283.624l-5,2.887,25,14.434v-5.774Z"/>
    <path class="exterior-L-light" d="M45.0181,216.507l291.25,168.153v17.32L45.0181,233.827Z"/>
    <path class="exterior-L-light" d="M410.0181,5.774V54.849l35,20.207,42.5-24.537Z"/>
    <path class="exterior-L-dark" d="M40.0181,213.62v5.773l296.25,171.04V384.66Z"/>
    <path class="top-light" d="M126.2681,298.057l-1.25.722,15,8.66,1.25-.722Z"/>
    <path class="top-light" d="M126.2681,292.284l-1.25.722,15,8.66,1.25-.722Z"/>
    <path class="exterior-L-light" d="M140.0181,311.769l-15-8.66v-4.33l15,8.66Z"/>
    <path class="exterior-L-light" d="M140.0181,305.996l-15-8.66v-4.33l15,8.66Z"/>
    <path class="exterior-R-light" d="M372.5181,438.787l15-8.661v-4.33l-15,8.66Z"/>
    <path class="exterior-R-light" d="M372.5181,463.324l15-8.66V443.117l-15,8.66Z"/>
    <path class="exterior-R-light" d="M412.5181,415.693l15-8.661v-4.33l-15,8.661Z"/>
    <path class="cls-6" d="M676.2681,260.529l7.5-4.33v1.443l-7.5,4.33Z"/>
    <path class="cls-6" d="M667.5181,265.581l7.5-4.33v1.443l-7.5,4.33Z"/>
    <path class="cls-6" d="M666.2681,266.302v1.444l-6.25,3.608v-1.443Z"/>
    <path class="cls-6" d="M666.2681,286.51v4.33l-6.25,3.608v-4.33Z"/>
    <path class="cls-6" d="M667.5181,285.788l7.5-4.33v4.33l-7.5,4.33Z"/>
    <path class="cls-6" d="M676.2681,280.736l7.5-4.33v4.33l-7.5,4.33Z"/>
    <path class="exterior-R-light" d="M646.2681,280.737l15-8.66v-4.33l-15,8.66Z"/>
    <path class="exterior-R-light" d="M646.2681,305.274l15-8.66V285.067l-15,8.661Z"/>
    <path class="exterior-R-light" d="M606.2681,303.831l15-8.66v-4.33l-15,8.66Z"/>
    <path class="exterior-R-light" d="M606.2681,328.368l15-8.66V308.161l-15,8.66Z"/>
    <path class="top-light" d="M86.2681,309.604l-1.25.721,15,8.661,1.25-.722Z"/>
    <path class="exterior-L-light" d="M100.0181,323.316l-15-8.66v-4.331l15,8.661Z"/>
    <path class="exterior-R-light" d="M100.0181,323.316l1.25-.722v-4.33l-1.25.722Z"/>
    <path class="top-light" d="M126.2681,332.698l-1.25.722,15,8.66,1.25-.722Z"/>
    <path class="exterior-L-light" d="M140.0181,346.41l-15-8.66v-4.33l15,8.66Z"/>
    <path class="exterior-R-light" d="M140.0181,346.41l1.25-.722v-4.33l-1.25.722Z"/>
    <path class="top-light" d="M206.2681,378.886l-1.25.722,15,8.66,1.25-.722Z"/>
    <path class="top-light" d="M206.2681,396.207l-1.25.722,15,8.66,1.25-.722Z"/>
    <path class="exterior-L-light" d="M220.0181,392.598l-15-8.66v-4.33l15,8.66Z"/>
    <path class="exterior-L-light" d="M220.0181,417.136l-15-8.66V396.929l15,8.66Z"/>
    <path class="top-light" d="M246.2681,401.981l-1.25.722,15,8.66,1.25-.722Z"/>
    <path class="exterior-L-light" d="M260.0181,415.693l-15-8.66v-4.33l15,8.66Z"/>
    <path class="top-light" d="M286.2681,425.075l-1.25.722,15,8.66,1.25-.722Z"/>
    <path class="exterior-L-light" d="M300.0181,438.787l-15-8.66v-4.33l15,8.66Z"/>
    <path class="exterior-R-light" d="M65.0181,254.034l7.5-4.33-7.5-4.33Z"/>
    <path id="anchor_126.268_378.886_570" class="top-light" d="M126.2681,257.643l360-207.846,210,121.243-360,207.846Z"/>
  </g>
</svg>
