<svg id="Layer_1" data-name="Layer 1" xmlns="http://www.w3.org/2000/svg" xmlns:xlink="http://www.w3.org/1999/xlink" viewBox="0 0 285 191.969">
  <defs>
    <style>
      .cls-1 {
        fill: none;
      }

      .concrete-top {
        fill: #e8e8e8;
      }

      .concrete-left {
        fill: #a2a2a2;
      }

      .concrete-right {
        fill: #d1d1d1;
      }

      .window-R-prim {
        fill: #bd9664;
      }

      .cls-2 {
        clip-path: url(#clip-path);
      }

      .window-R-light {
        fill: #eacb87;
      }

      .window-L-prim {
        fill: #4d3b24;
      }

      .cls-3 {
        clip-path: url(#clip-path-2);
      }

      .window-L-light {
        fill: #795a30;
      }

      .exterior-L-prim {
        fill: #73302e;
      }

      .exterior-R-prim {
        fill: #d05752;
      }

      .top-dark {
        fill: #c67471;
      }

      .top-prim {
        fill: #dd8a87;
      }
    </style>
    <clipPath id="clip-path">
      <polygon class="cls-1" points="237.5 73.612 225 111.14 142.5 158.771 142.5 128.46 237.5 73.612"/>
    </clipPath>
    <clipPath id="clip-path-2">
      <polygon class="cls-1" points="47.5 73.612 60 111.14 142.5 158.771 142.5 128.46 47.5 73.612"/>
    </clipPath>
  </defs>
  <title>Artboard 73</title>
  <g id="root">
    <path class="concrete-top" d="M142.5,189.082,285,106.809,142.5,24.537,0,106.809Z"/>
    <path class="concrete-left" d="M142.5,189.082v2.887L0,109.696v-2.887Z"/>
    <path class="concrete-right" d="M142.5,191.969,285,109.696v-2.887L142.5,189.082Z"/>
    <path class="window-R-prim" d="M237.5,73.612,225,111.14l-82.5,47.631V128.46Z"/>
    <g class="cls-2">
      <path class="window-R-light" d="M147.5,135.677l105-60.622v5.774l-105,60.621Z"/>
      <path class="window-R-light" d="M147.5,124.13l105-60.622v5.774l-105,60.621Z"/>
    </g>
    <path class="window-L-prim" d="M47.5,73.612,60,111.14l82.5,47.631V128.46Z"/>
    <g class="cls-3">
      <path class="window-L-light" d="M137.5,135.677,32.5,75.055v5.774l105,60.621Z"/>
      <path class="window-L-light" d="M137.5,124.13,32.5,63.508v5.774l105,60.621Z"/>
    </g>
    <path class="exterior-L-prim" d="M240,121.243V75.055l-7.5-4.33V119.8l5,2.887Z"/>
    <path class="exterior-R-prim" d="M45,121.243V66.395l7.5,4.33V119.8l-5,2.887Z"/>
    <path class="exterior-L-prim" d="M263.75,107.531V84.437l-7.5,4.33v17.321l5,2.886Z"/>
    <path class="exterior-R-prim" d="M21.25,107.531V84.437l7.5,4.33v17.321l-5,2.886Z"/>
    <path class="exterior-L-prim" d="M192.5,148.667V99.593L185,95.262v51.962l5,2.887Z"/>
    <path class="exterior-R-prim" d="M92.5,148.667V89.489l7.5,4.33v53.405l-5,2.887Z"/>
    <path class="exterior-L-prim" d="M216.25,134.955V87.324l-7.5-2.887v49.075l5,2.887Z"/>
    <path class="exterior-R-prim" d="M68.75,134.955V80.107l7.5,4.33v49.075l-5,2.887Z"/>
    <path class="exterior-L-prim" d="M168.75,162.379V113.305l-7.5-4.331v51.962l5,2.887Z"/>
    <path class="exterior-R-prim" d="M116.25,162.379V103.201l7.5,4.33v53.405l-5,2.887Z"/>
    <path id="anchor_42.5_115.47_200" class="top-dark" d="M42.5,57.735,142.5,0l100,57.735-100,57.735Z"/>
    <path class="exterior-R-prim" d="M142.5,115.47v12.99l100-57.735V57.735Z"/>
    <path class="exterior-R-prim" d="M142.5,155.884v4.33L266.25,88.767v-4.33Z"/>
    <path class="exterior-L-prim" d="M142.5,155.884v4.33L18.75,88.767v-4.33Z"/>
    <path class="exterior-L-prim" d="M142.5,115.47v12.99L42.5,70.725V57.735Z"/>
    <path class="window-R-prim" d="M147.5,116.913v4.33l18.75-10.825v-4.33Z"/>
    <path class="window-L-prim" d="M137.5,116.913v4.33l-18.75-10.825v-4.33Z"/>
    <path class="window-R-prim" d="M195,89.489v4.33l18.75-10.825v-4.33Z"/>
    <path class="window-L-prim" d="M90,89.489v4.33L71.25,82.994v-4.33Z"/>
    <path class="window-R-prim" d="M171.25,103.201v4.33L190,96.706v-4.33Z"/>
    <path class="window-L-prim" d="M113.75,103.201v4.33L95,96.706v-4.33Z"/>
    <path class="window-R-prim" d="M218.75,75.777v4.33L237.5,69.282v-4.33Z"/>
    <path class="window-L-prim" d="M66.25,75.777v4.33L47.5,69.282v-4.33Z"/>
    <path class="exterior-R-prim" d="M261.25,91.654l5-2.887v17.321l-5,2.886Z"/>
    <path class="exterior-L-prim" d="M23.75,91.654l-5-2.887v17.321l5,2.886Z"/>
    <path class="top-prim" d="M146.25,153.719,167.5,141.45l-5-2.886-16.25,9.382Z"/>
    <path class="top-prim" d="M138.75,153.719,117.5,141.45l5-2.886,16.25,9.382Z"/>
    <path class="top-prim" d="M193.75,126.295,215,114.026l-5-2.886-16.25,9.381Z"/>
    <path class="top-prim" d="M91.25,126.295,70,114.026l5-2.886,16.25,9.381Z"/>
    <path class="top-prim" d="M170,140.007l21.25-12.269-5-2.886L170,134.234Z"/>
    <path class="top-prim" d="M115,140.007,93.75,127.738l5-2.886L115,134.234Z"/>
    <path class="top-prim" d="M217.5,112.583l21.25-12.269-5-2.886-16.25,9.381Z"/>
    <path class="top-prim" d="M66.25,111.861l-20-11.547,5-2.887,15,8.661Z"/>
    <path class="top-prim" d="M241.25,98.871,262.5,86.602l-5-2.887-16.25,9.382Z"/>
    <path class="top-prim" d="M42.5,98.149l-20-11.547,5-2.887,15,8.661Z"/>
    <path class="exterior-L-prim" d="M42.5,70.725,18.75,84.437l5,2.887L47.5,73.612Z"/>
    <path class="exterior-L-prim" d="M118.75,101.758l-5-2.887v62.065l5,2.887Z"/>
    <path class="exterior-L-prim" d="M95,88.046l-5-2.887v62.065l5,2.887Z"/>
    <path class="exterior-L-prim" d="M71.25,74.333l-5-2.886v62.065l5,2.887Z"/>
    <path class="exterior-L-prim" d="M47.5,60.621l-5-2.886V119.8l5,2.887Z"/>
    <path class="exterior-L-prim" d="M66.25,84.437,42.5,98.149l5,2.887L71.25,87.324Z"/>
    <path class="exterior-L-prim" d="M90,98.149,66.25,111.861l5,2.887L95,101.036Z"/>
    <path class="exterior-L-prim" d="M113.75,111.861,90,125.573l5,2.887,23.75-13.712Z"/>
    <path class="exterior-L-prim" d="M137.5,125.573l-23.75,13.712,5,2.887L142.5,128.46Z"/>
    <path class="exterior-R-prim" d="M166.25,101.758l5-2.887v62.065l-5,2.887Z"/>
    <path class="exterior-R-prim" d="M190,88.046l5-2.887v62.065l-5,2.887Z"/>
    <path class="exterior-R-prim" d="M213.75,74.333l5-2.886v62.065l-5,2.887Z"/>
    <path class="exterior-R-prim" d="M237.5,60.621l5-2.886V119.8l-5,2.887Z"/>
    <path class="exterior-R-prim" d="M242.5,70.725l23.75,13.712-5,2.887L237.5,73.612Z"/>
    <path class="exterior-R-prim" d="M218.75,84.437,242.5,98.149l-5,2.887L213.75,87.324Z"/>
    <path class="exterior-R-prim" d="M195,98.149l23.75,13.712-5,2.887L190,101.036Z"/>
    <path class="exterior-R-prim" d="M171.25,111.861,195,125.573l-5,2.887-23.75-13.712Z"/>
    <path class="exterior-R-prim" d="M147.5,125.573l23.75,13.712-5,2.887L142.5,128.46Z"/>
    <path class="exterior-R-prim" d="M140,176.091V114.026l2.5,1.444,5-2.887v62.065l-5,2.887Z"/>
    <path class="exterior-L-prim" d="M142.5,115.47l-5-2.887v62.065l5,2.887Z"/>
  </g>
</svg>
