<svg id="Layer_1" data-name="Layer 1" xmlns="http://www.w3.org/2000/svg" viewBox="0 0 895.0181 727.475">
  <defs>
    <style>
      .cls-1 {
        fill: #e8e8e8;
      }

      .cls-2 {
        fill: #d1d1d1;
      }

      .cls-3 {
        fill: #a2a2a2;
      }

      .exterior-R-prim {
        fill: #d05752;
      }

      .exterior-L-prim {
        fill: #73302e;
      }

      .window-R-prim {
        fill: #bd9664;
      }

      .window-L-prim {
        fill: #4d3b24;
      }

      .cls-4 {
        fill: #484848;
      }

      .cls-5 {
        fill: #2e2e2e;
      }

      .exterior-L-light {
        fill: #8a3a37;
      }

      .exterior-R-light {
        fill: #df5d58;
      }

      .top-light {
        fill: #ffc8c6;
      }

      .crown-R-prim{
        fill: #bfd7bd;
      }

      .crown-top-prim{
        fill: #e5f7e3;
      }

      .crown-L-dark {
        fill: #6e806c;
      }

      .crown-L-prim{
        fill: #8fa88c;
      }

      .exterior-R-dark {
        fill: #a64c49;
      }

      .exterior-L-dark {
        fill: #512220;
      }

      .crown-R-dark {
        fill: #a6c6a4;
      }

      .top-prim {
        fill: #dd8a87;
      }
    </style>
  </defs>
  <title>Artboard 17</title>
  <g id="root">
    <path class="cls-1" d="M0,433.026,395.0181,204.96l500,288.675L500,721.7021Z"/>
    <path class="cls-2" d="M500,721.7021v5.7729l395.018-228.067v-5.773Z"/>
    <path class="cls-3" d="M500.0181,721.688v5.7739L.0181,438.787v-5.774Z"/>
    <path class="exterior-R-prim" d="M820.0181,496.522V254.035l-320,184.752V681.274Z"/>
    <path class="exterior-L-prim" d="M70.0181,433.013V190.526l430,248.261V681.274Z"/>
    <path class="window-R-prim" d="M607.5181,512.399v106.81l-80,46.188v-106.81Z"/>
    <path class="window-L-prim" d="M392.519,512.399v106.81l79.9991,46.188v-106.81Z"/>
    <path class="window-L-prim" d="M100.0181,343.524v106.81l80,46.188V389.712Z"/>
    <path class="cls-4" d="M527.5181,653.85l80-46.188v1.443l-80,46.188Z"/>
    <path class="cls-5" d="M472.5181,653.85,392.519,607.662v1.443l79.9991,46.188Z"/>
    <path class="cls-5" d="M180.0181,484.975l-80-46.188v1.443l80,46.188Z"/>
    <path class="cls-4" d="M527.5181,633.642l80-46.188v1.444l-80,46.188Z"/>
    <path class="cls-5" d="M472.5181,633.642,392.519,587.454v1.444l79.9991,46.188Z"/>
    <path class="cls-5" d="M180.0181,464.767l-80-46.188v1.444l80,46.188Z"/>
    <path class="cls-4" d="M527.5181,586.011l80-46.188v1.443l-80,46.188Z"/>
    <path class="cls-5" d="M472.5181,586.011,392.519,539.823v1.443l79.9991,46.188Z"/>
    <path class="cls-5" d="M180.0181,417.136l-80-46.188v1.443l80,46.188Z"/>
    <path class="cls-4" d="M527.5181,604.7751l80-46.1882v1.443l-80,46.1881Z"/>
    <path class="cls-5" d="M472.5181,604.7751,392.519,558.5869v1.443l79.9991,46.1881Z"/>
    <path class="cls-5" d="M180.0181,435.9l-80-46.188v1.443l80,46.188Z"/>
    <path class="cls-4" d="M607.5181,512.399l-1.25.721V619.93l1.25-.721Z"/>
    <path class="cls-5" d="M392.519,512.399l1.2491.721V619.93l-1.2491-.721Z"/>
    <path class="cls-5" d="M100.0181,343.524l1.25.722V451.055l-1.25-.721Z"/>
    <path class="window-L-prim" d="M527.5181,581.6809l1.25-.7219v83.716l-1.25.722Z"/>
    <path class="window-L-prim" d="M472.5181,581.6809l-1.25-.7219v83.716l1.25.722Z"/>
    <path class="window-L-prim" d="M180.0181,412.806l-1.25-.722V495.8l1.25.722Z"/>
    <path class="cls-4" d="M582.5181,518.172l-1.25.722v115.47l1.25-.722Z"/>
    <path class="cls-5" d="M417.5181,518.172l1.25.722v115.47l-1.2491-.722Z"/>
    <path class="cls-5" d="M126.2681,350.019l1.25.722-1.25,114.748-1.25-.722Z"/>
    <path class="cls-4" d="M595.0181,510.955l-1.25.722v115.47l1.25-.7209Z"/>
    <path class="cls-5" d="M405.0181,510.955l1.25.722v115.47l-1.25-.7209Z"/>
    <path class="cls-5" d="M113.7681,342.802l1.25.722-1.25,114.748-1.25-.721Z"/>
    <path class="cls-4" d="M570.0181,525.389l-1.25.722v115.47l1.25-.722Z"/>
    <path class="cls-5" d="M430.0181,525.389l1.25.722v115.47l-1.2491-.722Z"/>
    <path class="cls-5" d="M138.7681,357.236l1.25.722-1.25,114.748-1.25-.722Z"/>
    <path class="cls-4" d="M543.7681,540.545l-1.25.721v115.47l1.25-.721Z"/>
    <path class="cls-5" d="M456.2681,540.545l1.25.721v115.47l-1.25-.721Z"/>
    <path class="cls-5" d="M165.0181,372.391l1.249.722-1.249,114.748-1.25-.721Z"/>
    <path class="cls-4" d="M557.5181,532.606l-1.25.722v115.47l1.25-.722Z"/>
    <path class="cls-5" d="M442.5181,532.606l1.25.722v115.47l-1.2491-.722Z"/>
    <path class="cls-5" d="M151.2681,364.453l1.25.722-1.25,114.748-1.2491-.722Z"/>
    <path class="cls-4" d="M607.5181,617.765l-80,46.188v1.444l80-46.188Z"/>
    <path class="cls-5" d="M392.519,617.765l79.9991,46.188v1.444L392.519,619.209Z"/>
    <path class="cls-5" d="M100.0181,448.891l80,46.188v1.443l-80-46.188Z"/>
    <path class="cls-4" d="M607.5181,568.69l-80,46.188v1.4441l80-46.1882Z"/>
    <path class="cls-5" d="M392.519,568.6909l79.9991,46.1871v1.4441L392.519,570.1339Z"/>
    <path class="cls-5" d="M100.0181,399.816l80,46.188v1.443l-80-46.188Z"/>
    <path class="exterior-R-prim" d="M606.2681,609.8271v8.66l-77.5,44.745v-8.661Z"/>
    <path class="exterior-L-prim" d="M393.7681,609.8271v8.66l77.5,44.745v-8.661Z"/>
    <path class="exterior-L-prim" d="M101.2681,440.952v8.66l77.5,44.745v-8.66Z"/>
    <path class="exterior-R-prim" d="M606.2681,560.752v8.66l-77.5,44.745v-8.661Z"/>
    <path class="exterior-L-prim" d="M393.7681,560.752v8.66l77.5,44.745v-8.66Z"/>
    <path class="exterior-L-prim" d="M101.2681,391.877v8.66l77.5,44.745v-8.66Z"/>
    <path class="exterior-L-light" d="M532.5181,578.794l-2.5-1.443V554.257l2.5,1.443Z"/>
    <path class="exterior-R-light" d="M467.5181,578.794l2.5-1.443V554.257l-2.5,1.443Z"/>
    <path class="exterior-R-light" d="M175.0181,409.919l2.5-1.443V385.382l-2.5,1.443Z"/>
    <path class="exterior-L-light" d="M512.5181,564.36l2.5,1.444v11.547l-2.5-1.444Z"/>
    <path class="exterior-L-light" d="M512.5181,593.2281l2.5,1.443V606.218l-2.5-1.4429Z"/>
    <path class="exterior-R-light" d="M487.5181,593.2281l-2.5,1.443V606.218l2.5-1.4429Z"/>
    <path class="exterior-L-light" d="M512.509,622.095l2.5,1.444v11.547l-2.5-1.444Z"/>
    <path class="exterior-R-light" d="M487.5181,622.095l-2.5,1.444v11.547l2.5-1.444Z"/>
    <path class="exterior-R-light" d="M487.5181,564.36l-2.5,1.444v11.547l2.5-1.444Z"/>
    <path class="exterior-R-light" d="M532.5181,578.794h0c18.972-33.022,52.578-52.424,75-43.301h0V512.399l-75,43.301Z"/>
    <path class="exterior-L-light" d="M467.5181,578.794h0C448.546,545.772,414.94,526.37,392.519,535.493h0V512.399L467.5181,555.7Z"/>
    <path class="exterior-L-light" d="M175.0181,409.919h0c-18.972-33.022-52.5779-52.424-75-43.301h0V343.524l75,43.301Z"/>
    <g>
      <path class="window-R-prim" d="M790.0181,407.032l.009,106.81-80,46.1879-.009-106.81Z"/>
      <path class="cls-4" d="M710.0271,548.4829l80-46.1879v1.444l-80,46.188Z"/>
      <path class="cls-4" d="M710.0271,528.276l80-46.188v1.443l-80,46.188Z"/>
      <path class="cls-4" d="M710.0271,480.645l80-46.189V435.9l-80,46.188Z"/>
      <path class="cls-4" d="M710.0271,499.408l80-46.188v1.444l-80,46.188Z"/>
      <path class="cls-4" d="M790.0171,407.032l-1.249.722.009,106.81,1.25-.722Z"/>
      <path class="cls-4" d="M765.0181,412.806l-1.25.722.009,115.47,1.25-.722Z"/>
      <path class="cls-4" d="M777.5181,405.589l-1.25.722.009,115.47,1.25-.722Z"/>
      <path class="cls-4" d="M752.5181,420.023l-1.25.722.009,115.469,1.25-.721Z"/>
      <path class="cls-4" d="M726.2681,435.178l-1.25.722.009,115.47,1.25-.722Z"/>
      <path class="cls-4" d="M740.0181,427.24l-1.25.721.009,115.47,1.25-.7209Z"/>
      <path class="cls-4" d="M790.0271,512.399l-80,46.1879v1.443l80-46.1879Z"/>
      <path class="cls-4" d="M790.0271,463.324l-80,46.188v1.443l80-46.188Z"/>
      <path class="exterior-R-prim" d="M788.7771,504.46v8.66l-77.5,44.745v-8.66Z"/>
      <path class="exterior-R-prim" d="M788.7771,455.385v8.66l-77.5,44.745v-8.66Z"/>
    </g>
    <g>
      <path class="window-R-prim" d="M680.0181,470.541v106.81l-42.491,24.537-.009-106.81Z"/>
      <path class="cls-4" d="M637.5271,590.341l16.241-9.382v1.444l-16.241,9.381Z"/>
      <path class="cls-4" d="M666.2681,575.1859l13.75-7.9389v-1.443l-13.75,7.938Z"/>
      <path class="cls-4" d="M637.5271,570.1339l42.491-24.5369V547.04l-42.491,24.5372Z"/>
      <path class="cls-4" d="M637.5271,522.502l42.491-24.537v1.443l-42.491,24.538Z"/>
      <path class="cls-4" d="M637.5271,541.266l42.491-24.537v1.443l-42.491,24.538Z"/>
      <path class="window-L-prim" d="M691.2771,455.385l-1.25.722,1.25,114.748,1.249-.7211Z"/>
      <path class="window-L-prim" d="M703.7771,448.169l-1.25.721,1.25,114.7489,1.25-.7219Z"/>
      <path class="cls-4" d="M680.0181,470.541l-1.25.722.009,106.8091,1.249-.7211Z"/>
      <path class="cls-4" d="M653.7681,477.036l-1.25.722.009,115.47,1.25-.7221Z"/>
      <path class="cls-4" d="M667.5181,469.098l-1.25.721.009,115.47,1.249-.721Z"/>
      <path class="cls-4" d="M680.0181,575.907l-42.491,24.538v1.443l42.491-24.537Z"/>
      <path class="cls-4" d="M680.0181,526.833l-42.491,24.537v1.443l42.491-24.537Z"/>
      <path class="top-light" d="M642.5271,492.191l-2.5-1.443,37.4919-21.65,2.4991,1.443Z"/>
      <path class="exterior-R-prim" d="M678.7681,567.969v8.66l-11.25,6.4952v-8.66Z"/>
      <path class="exterior-R-prim" d="M652.5181,583.1241v8.6608l-13.75,7.9382v-8.66Z"/>
      <path class="cls-4" d="M652.5181,568.6909l15-8.661v1.4441l-15,8.66Z"/>
      <path class="exterior-R-prim" d="M678.7681,518.894v8.66l-39.991,23.094v-8.66Z"/>
      <path class="exterior-L-light" d="M642.5271,515.285l-2.5-1.443V490.748l2.5,1.443Z"/>
      <path class="exterior-R-light" d="M642.5271,515.285h0c2.755-9.559,11.152-20.877,18.741-25.258h0c7.589-4.382,15.99-2.765,18.75,3.608h0V470.541l-37.491,21.65Z"/>
    </g>
    <path class="crown-R-prim" d="M500.0181,456.107l330-190.525V254.035l-330,189.848Z"/>
    <path class="crown-R-prim" d="M500.0181,508.069l330-190.526V305.996l-330,189.848Z"/>
    <path class="crown-R-prim" d="M500.0181,554.257l330-190.526v-5.773l-330,189.8479Z"/>
    <path class="crown-top-prim" d="M830.0181,254.035,390.0181,0l-330,190.526,440,254.034Z"/>
    <path class="crown-top-prim" d="M830.0181,305.996l-10-5.773v5.773l-320,184.752-430-248.26v-5.774l-10,5.774,440,254.034Z"/>
    <path class="crown-top-prim" d="M830.0181,357.958l-10-5.774v5.774l-320,184.752-430-248.261v-5.773l-10,5.773,440,254.0339Z"/>
    <path class="crown-L-dark" d="M65.0181,204.96l5,8.66,430,248.261v-5.774Z"/>
    <path class="crown-L-dark" d="M65.0181,256.921l5,8.661,430,248.26v-5.773Z"/>
    <path class="crown-L-prim" d="M60.0181,190.526v11.547l440,254.034V444.56Z"/>
    <path class="crown-L-prim" d="M60.0181,242.488v11.547l440,254.034V496.522Z"/>
    <path class="crown-L-prim" d="M60.0181,294.449v5.774l440,254.034v-5.7741Z"/>
    <path class="exterior-R-dark" d="M500.0181,461.881l320-184.752v28.867l-320,184.752Z"/>
    <path class="exterior-L-dark" d="M500.0181,461.881l-430-248.261v28.868l430,248.26Z"/>
    <path class="crown-R-dark" d="M825.0181,268.468l-5,8.661-320,184.752v-5.774Z"/>
    <path class="crown-R-dark" d="M825.0181,320.43l-5,8.66-320,184.752v-5.773Z"/>
    <g>
      <g>
        <path class="window-R-prim" d="M647.5181,382.495l-22.5,12.99v20.208l22.5-12.991Z"/>
        <path class="top-prim" d="M625.0181,418.579l25-14.433v-2.887l-2.5-1.443v2.886l-22.5,12.991Z"/>
        <path class="exterior-L-prim" d="M650.0181,381.052l-2.5,1.443v20.207l2.5,1.444Z"/>
      </g>
      <path class="cls-4" d="M625.0181,405.589l10-5.774v10.104l1.25-.722V399.094l11.25-6.495v-1.444l-11.25,6.495v-8.66l-1.25.722v8.66l-10,5.774Z"/>
      <g>
        <path class="window-R-prim" d="M687.5181,359.401l-22.5,12.99v20.208l22.5-12.991Z"/>
        <path class="top-prim" d="M665.0181,395.485l25-14.433v-2.887l-2.5-1.443v2.886l-22.5,12.991Z"/>
        <path class="exterior-L-prim" d="M690.0181,357.958l-2.5,1.443v20.207l2.5,1.444Z"/>
      </g>
      <path class="cls-4" d="M665.0181,382.495l10-5.774v10.104l1.25-.722V376l11.25-6.495v-1.444l-11.25,6.495v-8.66l-1.25.722v8.66l-10,5.774Z"/>
      <g>
        <path class="window-R-prim" d="M727.5181,336.307l-22.5,12.99v20.208l22.5-12.991Z"/>
        <path class="top-prim" d="M705.0181,372.391l25-14.433v-2.887l-2.5-1.443v2.886l-22.5,12.991Z"/>
        <path class="exterior-L-prim" d="M730.0181,334.864l-2.5,1.443v20.207l2.5,1.444Z"/>
      </g>
      <path class="cls-4" d="M705.0181,359.401l10-5.774v10.104l1.25-.722V352.906l11.25-6.495v-1.444l-11.25,6.495v-8.66l-1.25.722v8.66l-10,5.774Z"/>
      <g>
        <path class="window-R-prim" d="M602.5181,408.476l-22.5,12.99v20.207l22.5-12.99Z"/>
        <path class="top-prim" d="M580.0181,444.56l25-14.434V427.24l-2.5-1.444v2.887l-22.5,12.99Z"/>
        <path class="exterior-L-prim" d="M605.0181,407.032l-2.5,1.444v20.207l2.5,1.443Z"/>
      </g>
      <path class="cls-4" d="M580.0181,431.57l10-5.774V435.9l1.25-.722V425.075l11.25-6.496v-1.443l-11.25,6.495v-8.66l-1.25.722v8.66l-10,5.773Z"/>
      <g>
        <path class="window-R-prim" d="M537.5181,446.004l-10,5.773v20.207l10-5.773Z"/>
        <path class="top-prim" d="M527.5181,474.871l12.5-7.217v-2.887l-2.5-1.443v2.887l-10,5.773Z"/>
        <path class="exterior-L-prim" d="M540.0181,444.56l-2.5,1.444v20.207l2.5,1.443Z"/>
      </g>
      <path class="window-R-prim" d="M555.0181,435.9l-10,5.773v20.208l10-5.774Z"/>
      <path class="top-prim" d="M545.0181,464.767l12.5-7.216v-2.887l-2.5-1.444v2.887l-10,5.774Z"/>
      <path class="exterior-L-prim" d="M557.5181,434.457l-2.5,1.443v20.207l2.5,1.444Z"/>
      <path class="cls-4" d="M527.5181,461.881l10-5.774v-1.443l-10,5.773Z"/>
      <path class="cls-4" d="M545.0181,451.777l10-5.773V444.56l-10,5.774Z"/>
      <g>
        <path class="window-R-prim" d="M772.5181,310.326l-10,5.774v20.207l10-5.773Z"/>
        <path class="top-prim" d="M762.5181,339.194l12.5-7.217V329.09l-2.5-1.443v2.887l-10,5.773Z"/>
        <path class="exterior-L-prim" d="M775.0181,308.883l-2.5,1.443v20.208l2.5,1.443Z"/>
      </g>
      <path class="window-R-prim" d="M790.0181,300.223l-10,5.773v20.207l10-5.773Z"/>
      <path class="top-prim" d="M780.0181,329.09l12.5-7.217v-2.887l-2.5-1.443v2.887l-10,5.773Z"/>
      <path class="exterior-L-prim" d="M792.5181,298.779l-2.5,1.444V320.43l2.5,1.443Z"/>
      <path class="cls-4" d="M762.5181,326.203l10-5.773v-1.443l-10,5.773Z"/>
      <path class="cls-4" d="M780.0181,316.1l10-5.774v-1.443l-10,5.773Z"/>
    </g>
    <g>
      <g>
        <g>
          <path class="window-L-prim" d="M332.5181,370.948l10,5.774v20.207l-10-5.774Z"/>
          <path class="top-prim" d="M342.5181,399.816l-12.5-7.217v-2.887l2.5-1.443v2.886l10,5.774Z"/>
          <path class="exterior-R-dark" d="M330.0181,369.505l2.5,1.443v20.207l-2.5,1.444Z"/>
          <path class="cls-5" d="M342.5181,386.825l-10-5.773v-1.444l10,5.774Z"/>
        </g>
        <g>
          <path class="window-L-prim" d="M267.5181,333.42l10,5.774v20.207l-10-5.773Z"/>
          <path class="top-prim" d="M277.5181,362.288l-12.5-7.217v-2.887l2.5-1.443v2.886l10,5.774Z"/>
          <path class="exterior-R-dark" d="M265.0181,331.977l2.5,1.443v20.208l-2.5,1.443Z"/>
          <path class="cls-5" d="M277.5181,349.297l-10-5.773v-1.443l10,5.773Z"/>
        </g>
        <g>
          <path class="window-L-prim" d="M300.0181,352.184l10,5.774v20.207l-10-5.774Z"/>
          <path class="top-prim" d="M310.0181,381.052l-12.5-7.217v-2.887l2.5-1.443v2.886l10,5.774Z"/>
          <path class="exterior-R-dark" d="M297.5181,350.741l2.5,1.443v20.207l-2.5,1.444Z"/>
          <path class="cls-5" d="M310.0181,368.061l-10-5.773v-1.444l10,5.774Z"/>
        </g>
        <g>
          <path class="window-L-prim" d="M235.0181,314.656l10,5.774v20.207l-10-5.773Z"/>
          <path class="top-prim" d="M245.0181,343.524l-12.5-7.217V333.42l2.5-1.443v2.887l10,5.773Z"/>
          <path class="exterior-R-dark" d="M232.5181,313.213l2.5,1.443v20.208l-2.5,1.443Z"/>
          <path class="cls-5" d="M245.0181,330.534l-10-5.774v-1.443l10,5.773Z"/>
        </g>
        <g>
          <g>
            <path class="window-L-prim" d="M430.0181,427.24l10,5.773V453.22l-10-5.773Z"/>
            <path class="top-prim" d="M440.0181,456.107l-12.5-7.217v-2.886l2.5-1.444v2.887l10,5.773Z"/>
            <path class="exterior-R-dark" d="M427.5181,425.796l2.5,1.444v20.207l-2.5,1.443Z"/>
          </g>
          <path class="window-L-prim" d="M412.5181,417.136l10,5.774v20.207l-10-5.774Z"/>
          <path class="top-prim" d="M422.5181,446.004l-12.5-7.217V435.9l2.5-1.443v2.886l10,5.774Z"/>
          <path class="exterior-R-dark" d="M410.0181,415.693l2.5,1.443v20.207l-2.5,1.444Z"/>
          <path class="cls-5" d="M440.0181,443.117l-10-5.774V435.9l10,5.773Z"/>
          <path class="cls-5" d="M422.5181,433.013l-10-5.773v-1.444l10,5.774Z"/>
        </g>
        <g>
          <g>
            <path class="window-L-prim" d="M110.0181,242.488l10,5.773v20.207l-10-5.773Z"/>
            <path class="crown-top-prim" d="M120.0181,271.355l-12.5-7.217v-2.887l2.5-1.443v2.887l10,5.773Z"/>
            <path class="exterior-R-dark" d="M107.5181,241.044l2.5,1.444v20.207l-2.5,1.443Z"/>
          </g>
          <path class="window-L-prim" d="M92.5181,232.384l10,5.774v20.207l-10-5.774Z"/>
          <path class="crown-top-prim" d="M102.5181,261.251l-12.5-7.216v-2.887l2.5-1.444v2.887l10,5.774Z"/>
          <path class="exterior-R-dark" d="M90.0181,230.941l2.5,1.443v20.207l-2.5,1.444Z"/>
          <path class="cls-5" d="M120.0181,258.365l-10-5.774v-1.443l10,5.773Z"/>
          <path class="cls-5" d="M102.5181,248.261l-10-5.773v-1.444l10,5.774Z"/>
        </g>
        <g>
          <g>
            <path class="window-L-prim" d="M470.0181,450.334l10,5.773v20.207l-10-5.773Z"/>
            <path class="top-prim" d="M480.0181,479.201l-12.5-7.217v-2.886l2.5-1.444v2.887l10,5.773Z"/>
            <path class="exterior-R-dark" d="M467.5181,448.89l2.5,1.444v20.207l-2.5,1.443Z"/>
          </g>
          <path class="window-L-prim" d="M452.5181,440.23l10,5.774v20.207l-10-5.774Z"/>
          <path class="top-prim" d="M462.5181,469.098l-12.5-7.217v-2.887l2.5-1.443v2.886l10,5.774Z"/>
          <path class="exterior-R-dark" d="M450.0181,438.787l2.5,1.443v20.207l-2.5,1.444Z"/>
          <path class="cls-5" d="M480.0181,466.211l-10-5.774v-1.443l10,5.773Z"/>
          <path class="cls-5" d="M462.5181,456.107l-10-5.773V448.89l10,5.774Z"/>
        </g>
        <g>
          <g>
            <path class="window-L-prim" d="M150.0181,265.582l10,5.773v20.207l-10-5.773Z"/>
            <path class="crown-top-prim" d="M160.0181,294.449l-12.5-7.217v-2.887l2.5-1.443v2.887l10,5.773Z"/>
            <path class="exterior-R-dark" d="M147.5181,264.138l2.5,1.444v20.207l-2.5,1.443Z"/>
          </g>
          <path class="window-L-prim" d="M132.5181,255.478l10,5.774v20.207l-10-5.774Z"/>
          <path class="crown-top-prim" d="M142.5181,284.345l-12.5-7.216v-2.887l2.5-1.443v2.886l10,5.774Z"/>
          <path class="exterior-R-dark" d="M130.0181,254.035l2.5,1.443v20.207l-2.5,1.444Z"/>
          <path class="cls-5" d="M160.0181,281.459l-10-5.774v-1.443l10,5.773Z"/>
          <path class="cls-5" d="M142.5181,271.355l-10-5.773v-1.444l10,5.774Z"/>
        </g>
        <path class="top-prim" d="M383.7681,423.631l-12.5-7.217v-2.886l2.5-1.444v2.887l10,5.773Z"/>
        <path class="cls-5" d="M203.7681,306.718l-10-5.774v-1.443l10,5.773Z"/>
      </g>
      <path class="window-L-prim" d="M193.7681,290.841l10,5.773v20.208l-10-5.774Z"/>
      <path class="top-prim" d="M203.7681,319.708l-12.5-7.217v-2.886l2.5-1.444v2.887l10,5.773Z"/>
      <path class="exterior-R-dark" d="M191.2681,289.397l2.5,1.444v20.207l-2.5,1.443Z"/>
      <path class="cls-5" d="M203.7681,306.718l-10-5.774v-1.443l10,5.774Z"/>
      <g>
        <path class="window-L-prim" d="M373.7681,394.764l10,5.773v20.208l-10-5.774Z"/>
        <path class="top-prim" d="M383.7681,423.631l-12.5-7.216v-2.887l2.5-1.444v2.887l10,5.774Z"/>
        <path class="exterior-R-dark" d="M371.2681,393.321l2.5,1.443v20.207l-2.5,1.444Z"/>
        <path class="cls-5" d="M383.7681,410.641l-10-5.774v-1.443l10,5.774Z"/>
      </g>
    </g>
    <g>
      <path class="window-R-prim" d="M647.5181,434.456l-22.5,12.991v20.207l22.5-12.99Z"/>
      <path class="top-prim" d="M625.0181,470.541l25-14.434V453.22l-2.5-1.443v2.887l-22.5,12.99Z"/>
      <path class="exterior-L-light" d="M650.0181,433.013l-2.5,1.443v20.208l2.5,1.443Z"/>
      <path class="cls-4" d="M625.0181,457.551l10-5.774v10.104l1.25-.722V451.055l11.25-6.495v-1.443l-11.25,6.495v-8.66l-1.25.721v8.661l-10,5.773Z"/>
      <path class="window-R-prim" d="M687.5181,411.362l-22.5,12.991V444.56l22.5-12.99Z"/>
      <path class="top-prim" d="M665.0181,447.447l25-14.434v-2.887l-2.5-1.443v2.887l-22.5,12.99Z"/>
      <path class="exterior-L-light" d="M690.0181,409.919l-2.5,1.443V431.57l2.5,1.443Z"/>
      <path class="cls-4" d="M665.0181,434.457l10-5.774v10.104l1.25-.722V427.961l11.25-6.495v-1.443l-11.25,6.495v-8.66l-1.25.721v8.661l-10,5.773Z"/>
      <path class="window-R-prim" d="M727.5181,388.268l-22.5,12.991v20.207l22.5-12.99Z"/>
      <path class="top-prim" d="M705.0181,424.353l25-14.434v-2.887l-2.5-1.443v2.887l-22.5,12.99Z"/>
      <path class="exterior-L-light" d="M730.0181,386.825l-2.5,1.443v20.208l2.5,1.443Z"/>
      <path class="cls-4" d="M705.0181,411.363l10-5.774v10.104l1.25-.722V404.867l11.25-6.495v-1.443l-11.25,6.495v-8.66l-1.25.721v8.661l-10,5.773Z"/>
      <path class="window-R-prim" d="M602.5181,460.437l-22.5,12.991v20.207l22.5-12.991Z"/>
      <path class="top-prim" d="M580.0181,496.522l25-14.434v-2.887l-2.5-1.443v2.886l-22.5,12.991Z"/>
      <path class="exterior-L-light" d="M605.0181,458.994l-2.5,1.443v20.207l2.5,1.444Z"/>
      <path class="cls-4" d="M580.0181,483.531l10-5.773v10.103l1.25-.721V477.036l11.25-6.495v-1.443l-11.25,6.495v-8.661l-1.25.722v8.66l-10,5.774Z"/>
      <path class="window-R-prim" d="M537.5181,497.965l-10,5.774v20.207l10-5.774Z"/>
      <path class="top-prim" d="M527.5181,526.833l12.5-7.217v-2.887l-2.5-1.443v2.886l-10,5.774Z"/>
      <path class="exterior-L-light" d="M540.0181,496.522l-2.5,1.443v20.207l2.5,1.444Z"/>
      <path class="window-R-prim" d="M555.0181,487.861l-10,5.774v20.207l10-5.773Z"/>
      <path class="top-prim" d="M545.0181,516.729l12.5-7.217v-2.887l-2.5-1.443v2.887l-10,5.773Z"/>
      <path class="exterior-L-light" d="M557.5181,486.418l-2.5,1.443v20.208l2.5,1.443Z"/>
      <path class="cls-4" d="M527.5181,513.842l10-5.773v-1.444l-10,5.774Z"/>
      <path class="cls-4" d="M545.0181,503.739l10-5.774v-1.443l-10,5.773Z"/>
      <path class="window-R-prim" d="M772.5181,362.288l-10,5.773v20.208l10-5.774Z"/>
      <path class="top-prim" d="M762.5181,391.155l12.5-7.217v-2.886l-2.5-1.444v2.887l-10,5.774Z"/>
      <path class="exterior-L-light" d="M775.0181,360.844l-2.5,1.444v20.207l2.5,1.443Z"/>
      <path class="window-R-prim" d="M790.0181,352.184l-10,5.774v20.207l10-5.774Z"/>
      <path class="top-prim" d="M780.0181,381.052l12.5-7.217v-2.887l-2.5-1.443v2.886l-10,5.774Z"/>
      <path class="exterior-L-light" d="M792.5181,350.741l-2.5,1.443v20.207l2.5,1.444Z"/>
      <path class="cls-4" d="M762.5181,378.165l10-5.774v-1.443l-10,5.774Z"/>
      <path class="cls-4" d="M780.0181,368.061l10-5.773v-1.444l-10,5.774Z"/>
      <path class="window-L-prim" d="M332.5181,422.91l10,5.773V448.89l-10-5.773Z"/>
      <path class="top-prim" d="M342.5181,451.777l-12.5-7.217v-2.887l2.5-1.443v2.887l10,5.773Z"/>
      <path class="exterior-R-light" d="M330.0181,421.466l2.5,1.444v20.207l-2.5,1.443Z"/>
      <path class="cls-5" d="M342.5181,438.787l-10-5.774V431.57l10,5.773Z"/>
      <path class="window-L-prim" d="M267.5181,385.382l10,5.773v20.208l-10-5.774Z"/>
      <path class="top-prim" d="M277.5181,414.249l-12.5-7.217v-2.886l2.5-1.444v2.887l10,5.773Z"/>
      <path class="exterior-R-light" d="M265.0181,383.938l2.5,1.444v20.207l-2.5,1.443Z"/>
      <path class="cls-5" d="M277.5181,401.259l-10-5.774v-1.443l10,5.774Z"/>
      <path class="window-L-prim" d="M300.0181,404.146l10,5.773v20.207l-10-5.773Z"/>
      <path class="top-prim" d="M310.0181,433.013l-12.5-7.217V422.91l2.5-1.444v2.887l10,5.773Z"/>
      <path class="exterior-R-light" d="M297.5181,402.702l2.5,1.444v20.207l-2.5,1.443Z"/>
      <path class="cls-5" d="M310.0181,420.023l-10-5.774v-1.443l10,5.773Z"/>
      <path class="window-L-prim" d="M235.0181,366.618l10,5.773v20.208l-10-5.774Z"/>
      <path class="top-prim" d="M245.0181,395.485l-12.5-7.217v-2.886l2.5-1.444v2.887l10,5.774Z"/>
      <path class="exterior-R-light" d="M232.5181,365.175l2.5,1.443v20.207l-2.5,1.443Z"/>
      <path class="cls-5" d="M245.0181,382.495l-10-5.773v-1.444l10,5.774Z"/>
      <path class="window-L-prim" d="M430.0181,479.201l10,5.774v20.207l-10-5.774Z"/>
      <path class="top-prim" d="M440.0181,508.069l-12.5-7.217v-2.887l2.5-1.443v2.886l10,5.774Z"/>
      <path class="exterior-R-light" d="M427.5181,477.758l2.5,1.443v20.207l-2.5,1.444Z"/>
      <path class="window-L-prim" d="M412.5181,469.098l10,5.773v20.207l-10-5.773Z"/>
      <path class="top-prim" d="M422.5181,497.965l-12.5-7.217v-2.887l2.5-1.443v2.887l10,5.773Z"/>
      <path class="exterior-R-light" d="M410.0181,467.654l2.5,1.444v20.207l-2.5,1.443Z"/>
      <path class="cls-5" d="M440.0181,495.078l-10-5.773v-1.444l10,5.774Z"/>
      <path class="cls-5" d="M422.5181,484.975l-10-5.774v-1.443l10,5.773Z"/>
      <path class="window-L-prim" d="M110.0181,294.449l10,5.774V320.43l-10-5.774Z"/>
      <path class="crown-top-prim" d="M120.0181,323.317l-12.5-7.217v-2.887l2.5-1.443v2.886l10,5.774Z"/>
      <path class="exterior-R-light" d="M107.5181,293.006l2.5,1.443v20.207l-2.5,1.444Z"/>
      <path class="window-L-prim" d="M92.5181,284.345l10,5.774v20.207l-10-5.773Z"/>
      <path class="crown-top-prim" d="M102.5181,313.213l-12.5-7.217v-2.887l2.5-1.443v2.887l10,5.773Z"/>
      <path class="exterior-R-light" d="M90.0181,282.902l2.5,1.443v20.208l-2.5,1.443Z"/>
      <path class="cls-5" d="M120.0181,310.326l-10-5.773v-1.444l10,5.774Z"/>
      <path class="cls-5" d="M102.5181,300.223l-10-5.774v-1.443l10,5.773Z"/>
      <path class="window-L-prim" d="M470.0181,502.295l10,5.774v20.207l-10-5.774Z"/>
      <path class="top-prim" d="M480.0181,531.163l-12.5-7.217v-2.887l2.5-1.443v2.886l10,5.774Z"/>
      <path class="exterior-R-light" d="M467.5181,500.852l2.5,1.443v20.207l-2.5,1.444Z"/>
      <path class="window-L-prim" d="M452.5181,492.192l10,5.773v20.207l-10-5.773Z"/>
      <path class="top-prim" d="M462.5181,521.059l-12.5-7.217v-2.887l2.5-1.443v2.887l10,5.773Z"/>
      <path class="exterior-R-light" d="M450.0181,490.748l2.5,1.444v20.207l-2.5,1.443Z"/>
      <path class="cls-5" d="M480.0181,518.172l-10-5.773v-1.444l10,5.774Z"/>
      <path class="cls-5" d="M462.5181,508.069l-10-5.774v-1.443l10,5.773Z"/>
      <path class="window-L-prim" d="M150.0181,317.543l10,5.774v20.207l-10-5.774Z"/>
      <path class="crown-top-prim" d="M160.0181,346.411l-12.5-7.217v-2.887l2.5-1.443v2.886l10,5.774Z"/>
      <path class="exterior-R-light" d="M147.5181,316.1l2.5,1.443V337.75l-2.5,1.444Z"/>
      <path class="window-L-prim" d="M132.5181,307.439l10,5.774V333.42l-10-5.773Z"/>
      <path class="crown-top-prim" d="M142.5181,336.307l-12.5-7.217v-2.887l2.5-1.443v2.887l10,5.773Z"/>
      <path class="exterior-R-light" d="M130.0181,305.996l2.5,1.443v20.208l-2.5,1.443Z"/>
      <path class="cls-5" d="M160.0181,333.42l-10-5.773v-1.444l10,5.774Z"/>
      <path class="cls-5" d="M142.5181,323.317l-10-5.774V316.1l10,5.773Z"/>
      <path class="top-prim" d="M383.7681,475.593l-12.5-7.217v-2.887l2.5-1.443v2.886l10,5.774Z"/>
      <path class="cls-5" d="M203.7681,358.679l-10-5.773v-1.444l10,5.774Z"/>
      <path class="window-L-prim" d="M193.7681,342.802l10,5.774v20.207l-10-5.773Z"/>
      <path class="top-prim" d="M203.7681,371.67l-12.5-7.217v-2.887l2.5-1.443v2.886l10,5.774Z"/>
      <path class="exterior-R-light" d="M191.2681,341.359l2.5,1.443V363.01l-2.5,1.443Z"/>
      <path class="cls-5" d="M203.7681,358.679l-10-5.773v-1.443l10,5.773Z"/>
      <path class="window-L-prim" d="M373.7681,446.725l10,5.774v20.207l-10-5.773Z"/>
      <path class="top-prim" d="M383.7681,475.593l-12.5-7.217v-2.887l2.5-1.443v2.887l10,5.773Z"/>
      <path class="exterior-R-light" d="M371.2681,445.282l2.5,1.443v20.208l-2.5,1.443Z"/>
      <path class="cls-5" d="M383.7681,462.603l-10-5.774v-1.443l10,5.773Z"/>
    </g>
    <path class="top-light" d="M527.5181,541.266l2.5,1.444-30,17.32V557.143Z"/>
    <path class="top-light" d="M472.5181,541.266l-2.5,1.444,30,17.32V557.143Z"/>
    <path class="top-light" d="M527.5181,570.1339l2.5,1.4432-30,17.3209v-2.887Z"/>
    <path class="top-light" d="M472.5181,570.1339l-2.5,1.4432,30,17.3209v-2.887Z"/>
    <path class="top-light" d="M527.5181,599.001l2.5,1.444-30,17.32v-2.887Z"/>
    <path class="top-light" d="M472.5181,599.001l-2.5,1.444,30,17.32v-2.887Z"/>
    <path class="top-light" d="M527.5181,627.869l2.5,1.443L500.009,646.633v-2.887Z"/>
    <path class="top-light" d="M472.5181,627.869l-2.5,1.443,30.009,17.321v-2.887Z"/>
    <path class="top-light" d="M527.5181,642.303l2.5,1.443-30,17.321V658.18Z"/>
    <path class="top-light" d="M472.5181,642.303l-2.5,1.443,30,17.321V658.18Z"/>
    <path class="exterior-R-light" d="M500.0181,571.5771l30-17.32V542.71l-30,17.32Z"/>
    <path class="exterior-L-light" d="M500.0181,571.5771l-30-17.32V542.71l30,17.32Z"/>
    <path class="exterior-R-light" d="M500.0181,600.445l30-17.3209v-11.547l-30,17.3209Z"/>
    <path class="exterior-L-light" d="M500.0181,600.445l-30-17.3209v-11.547l30,17.3209Z"/>
    <path class="exterior-R-light" d="M500.0181,629.312l30-17.32V600.445l-30,17.32Z"/>
    <path class="exterior-L-light" d="M500.0181,629.312l-30-17.32V600.445l30,17.32Z"/>
    <path class="exterior-R-light" d="M500.009,658.18l30.0091-17.321V629.312L500.009,646.633Z"/>
    <path class="exterior-L-light" d="M500.0271,658.18l-30.009-17.321V629.312l30.009,17.321Z"/>
    <path class="exterior-R-light" d="M500.0181,684.161l30-17.321V643.746l-30,17.321Z"/>
    <path class="exterior-L-light" d="M500.0181,684.161l-30-17.321V643.746l30,17.321Z"/>
    <path class="exterior-R-light" d="M512.5181,567.247v11.547l-12.5,7.217V574.464Z"/>
    <path class="exterior-R-light" d="M512.5181,596.115v11.547l-12.5,7.2169v-11.547Z"/>
    <path class="exterior-L-light" d="M487.5181,596.115v11.547l12.5,7.2169v-11.547Z"/>
    <path class="exterior-L-light" d="M487.5181,567.247v11.547l12.5,7.217V574.464Z"/>
    <path class="exterior-R-light" d="M512.509,624.982v11.547l-12.5,7.217V632.199Z"/>
    <path class="exterior-L-light" d="M487.5181,624.982v11.547l12.5,7.217V632.199Z"/>
    <path class="exterior-L-light" d="M195.0181,456.107v11.547l12.5,7.217V463.324Z"/>
    <path class="exterior-R-light" d="M530.0181,557.143V568.69l-14.991,8.661V565.804Z"/>
    <path class="exterior-L-light" d="M470.0181,557.143V568.69l14.9909,8.661V565.804Z"/>
    <path class="exterior-R-light" d="M530.0181,586.011v11.547l-14.991,8.66V594.6711Z"/>
    <path class="exterior-L-light" d="M470.0181,586.011v11.547l14.9909,8.66V594.6711Z"/>
    <path class="exterior-R-light" d="M530.0181,614.8789v11.5472l-15,8.66V623.539Z"/>
    <path class="exterior-L-light" d="M470.0181,614.878v11.547l15,8.661V623.539Z"/>
    <path class="top-light" d="M510.0181,565.804l2.5,1.443-12.5,7.217-12.5-7.217,2.5-1.443,10,5.7731Z"/>
    <path class="top-light" d="M510.0181,594.6711l2.5,1.4439-12.5,7.2169-12.5-7.2169,2.5-1.4439,10,5.7739Z"/>
    <path class="top-light" d="M510.009,623.539l2.5,1.443-12.5,7.217-12.4909-7.217,2.5-1.443,9.9909,5.773Z"/>
    <path class="top-light" d="M527.5181,555.7l2.5,1.443-14.991,8.661-2.509-1.444Z"/>
    <path class="top-light" d="M472.5181,555.7l-2.5,1.443,14.9909,8.661,2.5091-1.444Z"/>
    <path class="top-light" d="M607.5181,512.399l-2.5-1.444-75,43.302,2.5,1.443Z"/>
    <path class="top-light" d="M392.5181,512.399l2.5-1.444,75,43.302-2.5,1.443Z"/>
    <path class="top-light" d="M100.0181,343.524l2.5-1.444,75,43.302-2.5,1.443Z"/>
    <path class="top-light" d="M527.5181,584.568l2.5,1.443-14.991,8.66-2.509-1.443Z"/>
    <path class="top-light" d="M472.5181,584.568l-2.5,1.443,14.9909,8.66,2.5091-1.443Z"/>
    <g>
      <path class="window-L-prim" d="M320.0181,470.541v106.81l42.4909,24.537.0091-106.81Z"/>
      <path class="cls-5" d="M333.7681,573.742l-13.75-7.938v1.443l13.75,7.9389Z"/>
      <path class="cls-5" d="M346.2681,580.959l16.25,9.382v1.4439l-16.25-9.3819Z"/>
      <path class="cls-5" d="M362.509,570.1339,320.0181,545.596V547.04l42.4909,24.5372Z"/>
      <path class="cls-5" d="M362.509,522.502l-42.4909-24.537v1.443l42.4909,24.538Z"/>
      <path class="window-L-prim" d="M362.509,541.266l-42.4909-24.537v1.443l42.4909,24.537Z"/>
      <path class="cls-5" d="M320.0181,470.541l1.25.722-.0091,106.8091-1.25-.7211Z"/>
      <path class="cls-5" d="M346.2681,477.036l1.25.722-.0091,115.47-1.25-.7221Z"/>
      <path class="cls-5" d="M332.5181,469.098l1.25.721-.0091,115.47-1.25-.721Z"/>
      <path class="cls-5" d="M320.0181,575.907l42.4909,24.537v1.444l-42.4909-24.537Z"/>
      <path class="window-L-prim" d="M320.0181,526.833,362.509,551.37v1.443l-42.4909-24.537Z"/>
      <path class="top-light" d="M357.509,492.191l2.5-1.443-37.4919-21.65-2.499,1.443Z"/>
      <path class="exterior-L-prim" d="M347.5181,583.1241v8.66l13.7409,7.9391v-8.66Z"/>
      <path class="exterior-L-prim" d="M321.2681,567.969l11.25,6.495v8.66l-11.25-6.4952Z"/>
      <path class="exterior-L-prim" d="M321.2681,518.894v8.66l39.9909,23.094v-8.66Z"/>
      <path class="exterior-R-light" d="M357.509,515.285l2.5-1.443V490.748l-2.5,1.443Z"/>
      <path class="exterior-L-light" d="M357.509,515.285h0c-2.7548-9.559-11.1518-20.877-18.7409-25.259h0c-7.5891-4.381-15.99-2.764-18.75,3.609h0V470.541l37.4909,21.65Z"/>
      <path class="top-light" d="M320.0181,456.107l2.5-1.443,37.5,21.65-2.5,1.444Z"/>
      <path class="exterior-R-light" d="M357.5181,489.305l2.5-1.444V476.314l-2.5,1.444Z"/>
      <path class="exterior-L-light" d="M357.5181,489.305l-37.5-21.651V456.107l37.5,21.651Z"/>
    </g>
    <g>
      <path class="window-L-prim" d="M265.0181,438.787V545.596l42.4909,24.5379.0081-106.81Z"/>
      <path class="cls-5" d="M278.7681,541.9879l-13.75-7.9389v1.444l13.75,7.9379Z"/>
      <path class="cls-5" d="M291.2681,549.205l15,8.66v1.444l-15-8.661Z"/>
      <path class="window-L-prim" d="M236.2681,517.451v1.443l15,8.66v-1.443Z"/>
      <path class="cls-5" d="M307.509,538.3789,265.0181,513.842v1.444l42.4909,24.537Z"/>
      <path class="cls-5" d="M307.509,490.748l-42.4909-24.537v1.443l42.4909,24.537Z"/>
      <path class="cls-5" d="M307.509,509.512l-42.4909-24.537v1.443l42.4909,24.537Z"/>
      <path class="cls-5" d="M265.0181,438.787l1.249.721-.0081,106.81-1.25-.722Z"/>
      <path class="cls-5" d="M291.2681,445.282l1.25.722-.01,115.4691-1.2491-.7211Z"/>
      <path class="cls-5" d="M277.5181,437.343l1.25.722-.0091,115.47-1.25-.7219Z"/>
      <path class="cls-5" d="M265.0181,544.153,307.509,568.69v1.4439L265.0181,545.596Z"/>
      <path class="cls-5" d="M265.0181,495.078l42.4909,24.537v1.444l-42.4909-24.537Z"/>
      <path class="top-light" d="M302.5081,460.437l2.5009-1.443-37.4919-21.651-2.499,1.444Z"/>
      <path class="exterior-L-prim" d="M266.2671,536.215v8.66l11.251,6.495v-8.66Z"/>
      <path class="exterior-L-prim" d="M292.5181,551.37v8.66l12.5009,7.2171v-8.66Z"/>
      <path class="exterior-L-prim" d="M266.2671,487.14v8.66l39.9919,23.094v-8.661Z"/>
      <path class="exterior-R-light" d="M302.5081,483.531l2.5009-1.443V458.994l-2.5009,1.443Z"/>
      <path class="exterior-L-light" d="M302.5081,483.531h0c-2.7539-9.559-11.1521-20.877-18.74-25.259h0c-7.5891-4.381-15.991-2.764-18.75,3.609h0V438.787l37.49,21.65Z"/>
      <path class="top-light" d="M265.0181,424.353l2.5-1.443,37.5,21.65-2.5,1.444Z"/>
      <path class="exterior-R-light" d="M302.5181,457.551l2.5-1.444V444.56l-2.5,1.444Z"/>
      <path class="exterior-L-light" d="M302.5181,457.551l-37.5-21.651V424.353l37.5,21.651Z"/>
    </g>
    <g>
      <path class="window-L-prim" d="M210.009,407.032v106.81L252.5,538.3789l.009-106.8089Z"/>
      <path class="cls-5" d="M223.7681,510.234l-13.7591-7.939v1.443l13.7591,7.939Z"/>
      <path class="cls-5" d="M236.2681,517.451l15,8.66v1.443l-15-8.66Z"/>
      <path class="cls-5" d="M252.5,506.625l-42.491-24.537v1.443L252.5,508.069Z"/>
      <path class="cls-5" d="M222.5181,496.522l15,8.66v1.443l-15-8.66Z"/>
      <path class="cls-5" d="M277.5181,528.276l15,8.66V538.38l-15-8.661Z"/>
      <path class="cls-5" d="M332.5181,560.03l15,8.661v1.443l-15-8.66Z"/>
      <path class="cls-5" d="M252.5,458.994l-42.491-24.538V435.9L252.5,460.437Z"/>
      <path class="cls-5" d="M252.5,477.758,210.009,453.22v1.444L252.5,479.201Z"/>
      <path class="cls-5" d="M210.009,407.032l1.25.722-.009,106.81-1.249-.722Z"/>
      <path class="cls-5" d="M236.2681,413.528l1.25.721v115.47l-1.25-.721Z"/>
      <path class="cls-5" d="M222.5181,405.589l1.25.722-.0181,115.47-1.249-.722Z"/>
      <path class="cls-5" d="M210.009,512.399,252.5,536.9359v1.443L210.009,513.842Z"/>
      <path class="cls-5" d="M210.009,463.324,252.5,487.861v1.444l-42.491-24.538Z"/>
      <path class="top-light" d="M247.5,428.683l2.5-1.444-37.4919-21.65-2.4991,1.443Z"/>
      <path class="exterior-L-prim" d="M211.259,504.46v8.66l11.2591,6.496v-8.661Z"/>
      <path class="exterior-L-prim" d="M237.5181,519.616l13.75,7.938v8.661l-13.75-7.939Z"/>
      <path class="exterior-L-prim" d="M211.259,455.385v8.661l39.991,23.093v-8.66Z"/>
      <path class="exterior-R-light" d="M247.5,451.777l2.5-1.444V427.239l-2.5,1.444Z"/>
      <path class="exterior-L-light" d="M247.5,451.777h0c-2.7549-9.56-11.1519-20.878-18.741-25.259h0c-7.5888-4.382-15.99-2.765-18.75,3.608h0V407.032L247.5,428.683Z"/>
      <path class="top-light" d="M210.009,392.599l2.5-1.444,37.5,21.651-2.5,1.443Z"/>
      <path class="exterior-R-light" d="M247.509,425.796l2.5-1.443V412.806l-2.5,1.443Z"/>
      <path class="exterior-L-light" d="M247.509,425.796l-37.5-21.65V392.599l37.5,21.65Z"/>
    </g>
    <path class="top-light" d="M527.5181,613.435l2.5,1.4439-15,8.66-2.5091-1.444Z"/>
    <path class="top-light" d="M472.5181,613.435l-2.5,1.443,15,8.661,2.509-1.444Z"/>
    <g>
      <path class="exterior-L-light" d="M622.5181,500.852l2.5,1.443v11.547l-2.5-1.443Z"/>
      <path class="exterior-L-light" d="M622.5181,529.719l2.5,1.444V542.71l-2.5-1.444Z"/>
      <path class="exterior-L-light" d="M622.509,558.5869l2.5,1.443v11.5472l-2.5-1.4432Z"/>
      <path class="exterior-L-light" d="M610.0181,620.652l-2.5-1.443V596.115l2.5,1.443Z"/>
      <path class="exterior-L-light" d="M607.5181,581.6809l2.5,1.4432v11.547l-2.5-1.443Z"/>
      <path class="exterior-L-light" d="M607.5181,567.247l2.5,1.4439v11.547l-2.5-1.4439Z"/>
      <path class="exterior-L-light" d="M607.5181,552.813l2.5,1.444v11.547l-2.5-1.444Z"/>
      <path class="exterior-L-light" d="M607.5181,538.38l2.5,1.443V551.37l-2.5-1.443Z"/>
      <path class="exterior-L-light" d="M607.5181,523.946l2.5,1.443v11.5469l-2.5-1.4429Z"/>
      <path class="exterior-L-light" d="M607.5181,509.512l2.5,1.443v11.547l-2.5-1.443Z"/>
      <path class="exterior-L-light" d="M607.5181,495.078l2.5,1.444v11.547l-2.5-1.444Z"/>
      <path class="exterior-L-light" d="M530.0181,539.823l2.5,1.443v11.547l-2.5-1.443Z"/>
      <path class="exterior-L-light" d="M575.0181,513.842l2.5,1.444v11.547l-2.5-1.444Z"/>
      <path class="top-light" d="M637.5181,477.758l2.5,1.443-30,17.321-2.5-1.444Z"/>
      <path class="top-light" d="M560.0181,522.502l2.5,1.444-30,17.32-2.5-1.443Z"/>
      <path class="top-light" d="M605.0181,496.522l2.5,1.443-30,17.321-2.5-1.444Z"/>
      <path class="top-light" d="M575.0181,516.729l-2.5-1.443-10,5.773,2.5,1.443Z"/>
      <path class="exterior-L-light" d="M565.0181,534.049l-2.5-1.443V521.059l2.5,1.443Z"/>
      <path class="top-light" d="M637.5181,506.625l2.5,1.444-30,17.32-2.5-1.443Z"/>
      <path class="top-light" d="M637.5181,535.493l2.5,1.4429-30,17.3211-2.5-1.444Z"/>
      <path class="top-light" d="M637.5181,564.36l2.5,1.444-30.0091,17.32-2.4909-1.4432Z"/>
      <path class="top-light" d="M637.5181,578.794l2.5,1.443-30,17.321-2.5-1.443Z"/>
      <path class="exterior-R-light" d="M610.0181,508.069l30-17.321V479.201l-30,17.321Z"/>
      <path class="exterior-R-light" d="M532.5181,552.813l30-17.32V523.946l-30,17.32Z"/>
      <path class="exterior-R-light" d="M565.0181,534.049l10-5.773V516.729l-10,5.773Z"/>
      <path class="exterior-R-light" d="M577.5181,526.833l30-17.321V497.965l-30,17.321Z"/>
      <path class="exterior-R-light" d="M610.0181,536.9359l30-17.32V508.069l-30,17.32Z"/>
      <path class="exterior-R-light" d="M610.0181,565.804l30-17.3211v-11.547l-30,17.3211Z"/>
      <path class="exterior-R-light" d="M610.009,594.6711l30.0091-17.32V565.804l-30.0091,17.32Z"/>
      <path class="exterior-R-light" d="M610.0181,620.652l30-17.32V580.237l-30,17.321Z"/>
      <path class="exterior-R-light" d="M622.5181,503.739v11.547l-12.5,7.216V510.955Z"/>
      <path class="exterior-R-light" d="M622.5181,532.606v11.547l-12.5,7.217V539.823Z"/>
      <path class="exterior-R-light" d="M622.509,561.474v11.547l-12.5,7.2169v-11.547Z"/>
      <path class="exterior-R-light" d="M640.0181,493.635v11.547l-14.991,8.66V502.295Z"/>
      <path class="exterior-R-light" d="M640.0181,522.502v11.547l-14.991,8.661V531.163Z"/>
      <path class="exterior-R-light" d="M640.0181,551.37v11.547l-15,8.66V560.03Z"/>
      <path class="top-light" d="M620.0181,502.295l2.5,1.444-12.5,7.216-2.5-1.443Z"/>
      <path class="top-light" d="M620.0181,531.163l2.5,1.443-12.5,7.217-2.5-1.443Z"/>
      <path class="top-light" d="M620.009,560.03l2.5,1.4441-12.5,7.2169-2.4909-1.4439Z"/>
      <path class="top-light" d="M637.5181,492.192l2.5,1.443-14.991,8.66-2.509-1.443Z"/>
      <path class="top-light" d="M637.5181,521.059l2.5,1.443-14.991,8.661-2.509-1.444Z"/>
      <path class="top-light" d="M637.5181,549.927l2.5,1.443-15,8.66-2.5091-1.443Z"/>
    </g>
    <g>
      <path class="exterior-R-light" d="M85.0181,331.977l-2.5,1.443v11.547l2.5-1.443Z"/>
      <path class="exterior-R-light" d="M85.0181,360.844l-2.5,1.444v11.547l2.5-1.444Z"/>
      <path class="exterior-R-light" d="M85.0271,389.712l-2.5,1.443v11.547l2.5-1.443Z"/>
      <path class="exterior-R-light" d="M97.5181,451.777l2.5-1.443V427.24l-2.5,1.443Z"/>
      <path class="exterior-R-light" d="M100.0181,412.806l-2.5,1.443v11.547l2.5-1.443Z"/>
      <path class="exterior-R-light" d="M100.0181,398.372l-2.5,1.444v11.547l2.5-1.444Z"/>
      <path class="exterior-R-light" d="M100.0181,383.938l-2.5,1.444v11.547l2.5-1.444Z"/>
      <path class="exterior-R-light" d="M100.0181,369.505l-2.5,1.443v11.547l2.5-1.443Z"/>
      <path class="exterior-R-light" d="M100.0181,355.071l-2.5,1.443v11.547l2.5-1.443Z"/>
      <path class="exterior-R-light" d="M100.0181,340.637l-2.5,1.443v11.547l2.5-1.443Z"/>
      <path class="exterior-R-light" d="M100.0181,326.203l-2.5,1.444v11.547l2.5-1.444Z"/>
      <path class="exterior-R-light" d="M177.5181,370.948l-2.5,1.443v11.547l2.5-1.443Z"/>
      <path class="exterior-R-light" d="M132.5181,344.967l-2.5,1.444v11.547l2.5-1.444Z"/>
      <path class="top-light" d="M70.0181,308.883l-2.5,1.443,30,17.321,2.5-1.444Z"/>
      <path class="top-light" d="M147.5181,353.628l-2.5,1.443,30,17.32,2.5-1.443Z"/>
      <path class="top-light" d="M102.5181,327.647l-2.5,1.443,30,17.321,2.5-1.444Z"/>
      <path class="top-light" d="M132.5181,347.854l2.5-1.443,10,5.773-2.5,1.443Z"/>
      <path class="exterior-R-light" d="M142.5181,365.174l2.5-1.443V352.184l-2.5,1.443Z"/>
      <path class="top-light" d="M70.0181,337.75l-2.5,1.444,30,17.32,2.5-1.443Z"/>
      <path class="top-light" d="M70.0181,366.618l-2.5,1.443,30,17.321,2.5-1.444Z"/>
      <path class="top-light" d="M70.0181,395.485l-2.5,1.444,30.009,17.32,2.491-1.443Z"/>
      <path class="top-light" d="M70.0181,409.919l-2.5,1.444,30,17.32,2.5-1.443Z"/>
      <path class="exterior-L-light" d="M97.5181,339.194l-30-17.321V310.326l30,17.321Z"/>
      <path class="exterior-L-light" d="M175.0181,383.938l-30-17.32V355.071l30,17.32Z"/>
      <path class="exterior-L-light" d="M142.5181,365.174l-10-5.773V347.854l10,5.773Z"/>
      <path class="exterior-L-light" d="M130.0181,357.958l-30-17.321V329.09l30,17.321Z"/>
      <path class="exterior-L-light" d="M97.5181,368.061l-30-17.32V339.194l30,17.32Z"/>
      <path class="exterior-L-light" d="M97.5181,396.929l-30-17.321V368.061l30,17.321Z"/>
      <path class="exterior-L-light" d="M97.5271,425.796l-30.009-17.32V396.929l30.009,17.32Z"/>
      <path class="exterior-L-light" d="M97.5181,451.777l-30-17.32V411.363l30,17.32Z"/>
      <path class="exterior-L-light" d="M85.0181,334.864v11.547l12.5,7.217V342.081Z"/>
      <path class="exterior-L-light" d="M85.0181,363.731v11.547l12.5,7.217V370.948Z"/>
      <path class="exterior-L-light" d="M85.0271,392.599v11.547l12.5,7.217V399.816Z"/>
      <path class="exterior-L-light" d="M67.5181,324.76v11.547l14.9909,8.66V333.42Z"/>
      <path class="exterior-L-light" d="M67.5181,353.627v11.547l14.9909,8.661V362.288Z"/>
      <path class="exterior-L-light" d="M67.5181,382.495v11.547l15,8.66V391.155Z"/>
      <path class="top-light" d="M87.5181,333.42l-2.5,1.444,12.5,7.217,2.5-1.444Z"/>
      <path class="top-light" d="M87.5181,362.288l-2.5,1.443,12.5,7.217,2.5-1.443Z"/>
      <path class="top-light" d="M87.5271,391.155l-2.5,1.444,12.5,7.217,2.491-1.444Z"/>
      <path class="top-light" d="M70.0181,323.317l-2.5,1.443,14.9909,8.66,2.5091-1.443Z"/>
      <path class="top-light" d="M70.0181,352.184l-2.5,1.443,14.9909,8.661,2.5091-1.444Z"/>
      <path class="top-light" d="M70.0181,381.052l-2.5,1.443,15,8.66,2.509-1.443Z"/>
    </g>
    <g>
      <path class="exterior-R-light" d="M195.0181,395.485l-2.5,1.444v11.547l2.5-1.444Z"/>
      <path class="exterior-R-light" d="M195.0181,424.353l-2.5,1.443v11.547l2.5-1.443Z"/>
      <path class="exterior-R-light" d="M195.0271,453.22l-2.5,1.444v11.547l2.5-1.444Z"/>
      <path class="exterior-R-light" d="M207.5181,515.286l2.5-1.444V490.748l-2.5,1.444Z"/>
      <path class="exterior-R-light" d="M210.0181,476.314l-2.5,1.444v11.547l2.5-1.444Z"/>
      <path class="exterior-R-light" d="M210.0181,461.881l-2.5,1.443v11.547l2.5-1.443Z"/>
      <path class="exterior-R-light" d="M210.0181,447.447l-2.5,1.443v11.547l2.5-1.443Z"/>
      <path class="exterior-R-light" d="M210.0181,433.013l-2.5,1.444v11.547l2.5-1.444Z"/>
      <path class="exterior-R-light" d="M210.0181,418.579l-2.5,1.444V431.57l2.5-1.444Z"/>
      <path class="exterior-R-light" d="M210.0181,404.146l-2.5,1.443v11.547l2.5-1.443Z"/>
      <path class="exterior-R-light" d="M210.0181,389.712l-2.5,1.443v11.547l2.5-1.443Z"/>
      <path class="top-light" d="M180.0181,372.391l-2.5,1.444,30,17.32,2.5-1.443Z"/>
      <path class="top-light" d="M180.0181,401.259l-2.5,1.443,30,17.321,2.5-1.444Z"/>
      <path class="top-light" d="M180.0181,430.126l-2.5,1.444,30,17.32,2.5-1.443Z"/>
      <path class="top-light" d="M180.0181,458.994l-2.5,1.443,30.009,17.321,2.491-1.444Z"/>
      <path class="top-light" d="M180.0181,473.428l-2.5,1.443,30,17.321,2.5-1.444Z"/>
      <path class="exterior-L-light" d="M207.5181,402.702l-30-17.32V373.835l30,17.32Z"/>
      <path class="exterior-L-light" d="M207.5181,431.57l-30-17.321V402.702l30,17.321Z"/>
      <path class="exterior-L-light" d="M207.5181,460.437l-30-17.32V431.57l30,17.32Z"/>
      <path class="exterior-L-light" d="M207.5271,489.305l-30.009-17.321V460.437l30.009,17.321Z"/>
      <path class="exterior-L-light" d="M207.5181,515.286l-30-17.321V474.871l30,17.321Z"/>
      <path class="exterior-L-light" d="M195.0181,398.372v11.547l12.5,7.217V405.589Z"/>
      <path class="exterior-L-light" d="M195.0181,427.24v11.547l12.5,7.217V434.457Z"/>
      <path class="exterior-L-light" d="M195.0271,456.107v11.547l12.5,7.217V463.324Z"/>
      <path class="exterior-L-light" d="M177.5181,388.269v11.547l14.9909,8.66V396.929Z"/>
      <path class="exterior-L-light" d="M177.5181,417.136v11.547l14.9909,8.66V425.796Z"/>
      <path class="exterior-L-light" d="M177.5181,446.004v11.547l15,8.66V454.664Z"/>
      <path class="top-light" d="M197.5181,396.929l-2.5,1.443,12.5,7.217,2.5-1.443Z"/>
      <path class="top-light" d="M197.5181,425.796l-2.5,1.444,12.5,7.217,2.5-1.444Z"/>
      <path class="top-light" d="M197.5271,454.664l-2.5,1.443,12.5,7.217,2.491-1.443Z"/>
      <path class="top-light" d="M180.0181,386.825l-2.5,1.444,14.9909,8.66,2.5091-1.444Z"/>
      <path class="top-light" d="M180.0181,415.693l-2.5,1.443,14.9909,8.66,2.5091-1.443Z"/>
      <path class="top-light" d="M180.0181,444.56l-2.5,1.444,15,8.66,2.509-1.444Z"/>
    </g>
    <g>
      <path class="exterior-R-light" d="M317.5181,578.794l2.5-1.443V554.257l-2.5,1.443Z"/>
      <path class="exterior-R-light" d="M320.0181,539.823l-2.5,1.443v11.547l2.5-1.443Z"/>
      <path class="exterior-R-light" d="M320.0181,525.389l-2.5,1.444V538.38l2.5-1.4441Z"/>
      <path class="exterior-R-light" d="M320.0181,510.956l-2.5,1.443v11.547l2.5-1.444Z"/>
      <path class="exterior-R-light" d="M320.0181,496.522l-2.5,1.443v11.547l2.5-1.443Z"/>
      <path class="exterior-R-light" d="M320.0181,482.088l-2.5,1.443v11.547l2.5-1.443Z"/>
      <path class="exterior-R-light" d="M320.0181,467.654l-2.5,1.444v11.547l2.5-1.444Z"/>
      <path class="exterior-R-light" d="M320.0181,453.22l-2.5,1.444v11.547l2.5-1.444Z"/>
      <path class="top-light" d="M307.5181,446.004l-2.5,1.443,12.5,7.217,2.5-1.444Z"/>
      <path class="top-light" d="M307.5181,474.871l-2.5,1.443,12.5,7.217,2.5-1.443Z"/>
      <path class="top-light" d="M307.5181,503.739l-2.5,1.443,12.5,7.217,2.5-1.444Z"/>
      <path class="top-light" d="M307.5181,532.606l-2.5,1.443,12.509,7.217,2.491-1.443Z"/>
      <path class="top-light" d="M307.5181,547.04l-2.5,1.443,12.5,7.2171,2.5-1.443Z"/>
      <path class="exterior-L-light" d="M317.5181,466.211l-12.5-7.217V447.447l12.5,7.217Z"/>
      <path class="exterior-L-light" d="M317.5181,495.078l-12.5-7.217V476.314l12.5,7.217Z"/>
      <path class="exterior-L-light" d="M317.5181,523.946l-12.5-7.217V505.182l12.5,7.217Z"/>
      <path class="exterior-L-light" d="M317.5271,552.813l-12.509-7.217V534.049l12.509,7.217Z"/>
      <path class="exterior-L-light" d="M317.5181,578.794l-12.5-7.2169V548.4829l12.5,7.2171Z"/>
      <path class="exterior-L-light" d="M305.0181,461.881v11.547l12.5,7.217V469.098Z"/>
      <path class="exterior-L-light" d="M305.0181,490.748v11.547l12.5,7.217V497.965Z"/>
      <path class="exterior-L-light" d="M305.0271,519.616v11.547l12.5,7.217V526.833Z"/>
      <path class="top-light" d="M307.5181,460.437l-2.5,1.444,12.5,7.217,2.5-1.444Z"/>
      <path class="top-light" d="M307.5181,489.305l-2.5,1.443,12.5,7.217,2.5-1.443Z"/>
      <path class="top-light" d="M307.5271,518.172l-2.5,1.444,12.5,7.217,2.491-1.444Z"/>
    </g>
    <g>
      <path class="exterior-R-light" d="M262.509,547.04l2.5-1.4439V522.502l-2.5,1.444Z"/>
      <path class="exterior-R-light" d="M265.009,508.069l-2.5,1.443v11.547l2.5-1.443Z"/>
      <path class="exterior-R-light" d="M265.009,493.635l-2.5,1.443v11.547l2.5-1.443Z"/>
      <path class="exterior-R-light" d="M265.009,479.201l-2.5,1.444v11.547l2.5-1.444Z"/>
      <path class="exterior-R-light" d="M265.009,464.767l-2.5,1.444v11.547l2.5-1.444Z"/>
      <path class="exterior-R-light" d="M265.009,450.334l-2.5,1.443v11.547l2.5-1.443Z"/>
      <path class="exterior-R-light" d="M265.009,435.9l-2.5,1.443V448.89l2.5-1.443Z"/>
      <path class="exterior-R-light" d="M265.009,421.466l-2.5,1.444v11.547l2.5-1.444Z"/>
      <path class="top-light" d="M252.509,414.249l-2.5,1.444,12.5,7.217,2.5-1.444Z"/>
      <path class="top-light" d="M252.509,443.117l-2.5,1.443,12.5,7.217,2.5-1.443Z"/>
      <path class="top-light" d="M252.509,471.984l-2.5,1.444,12.5,7.217,2.5-1.444Z"/>
      <path class="top-light" d="M252.509,500.852l-2.5,1.443,12.5091,7.217,2.4909-1.443Z"/>
      <path class="top-light" d="M252.509,515.286l-2.5,1.443,12.5,7.217,2.5-1.444Z"/>
      <path class="exterior-L-light" d="M262.509,434.457l-12.5-7.217V415.693l12.5,7.217Z"/>
      <path class="exterior-L-light" d="M262.509,463.324l-12.5-7.217V444.56l12.5,7.217Z"/>
      <path class="exterior-L-light" d="M262.509,492.192l-12.5-7.217V473.428l12.5,7.217Z"/>
      <path class="exterior-L-light" d="M262.5181,521.059l-12.5091-7.217V502.295l12.5091,7.217Z"/>
      <path class="exterior-L-light" d="M262.509,547.04l-12.5-7.2169V516.729l12.5,7.217Z"/>
      <path class="exterior-L-light" d="M250.009,430.126v11.547l12.5,7.217V437.343Z"/>
      <path class="exterior-L-light" d="M250.009,458.994v11.547l12.5,7.217V466.211Z"/>
      <path class="exterior-L-light" d="M250.0181,487.861v11.547l12.5,7.217V495.078Z"/>
      <path class="top-light" d="M252.509,428.683l-2.5,1.443,12.5,7.217,2.5-1.443Z"/>
      <path class="top-light" d="M252.509,457.551l-2.5,1.443,12.5,7.217,2.5-1.444Z"/>
      <path class="top-light" d="M252.5181,486.418l-2.5,1.443,12.5,7.217,2.4909-1.443Z"/>
    </g>
    <path class="cls-5" d="M362.5135,541.266l-42.4909-24.537v1.443l42.4909,24.537Z"/>
    <path class="cls-5" d="M320.0226,526.832l42.4909,24.537v1.444l-42.4909-24.537Z"/>
    <g>
      <path class="exterior-L-light" d="M712.5181,434.457l2.5,1.443v11.547l-2.5-1.443Z"/>
      <path class="exterior-L-light" d="M757.5181,408.476l2.5,1.443v11.547l-2.5-1.443Z"/>
      <path class="top-light" d="M742.5181,417.136l2.5,1.443-30,17.321-2.5-1.443Z"/>
      <path class="top-light" d="M787.5181,391.155l2.5,1.444-30,17.32-2.5-1.443Z"/>
      <path class="top-light" d="M757.5181,411.363l-2.5-1.444-10,5.774,2.5,1.443Z"/>
      <path class="exterior-L-light" d="M747.5181,428.683l-2.5-1.443V415.693l2.5,1.443Z"/>
      <path class="exterior-R-light" d="M715.0181,447.447l30-17.321V418.579l-30,17.321Z"/>
      <path class="exterior-R-light" d="M747.5181,428.683l10-5.773V411.363l-10,5.773Z"/>
      <path class="exterior-R-light" d="M760.0181,421.466l30-17.32V392.599l-30,17.32Z"/>
    </g>
    <g>
      <path class="exterior-L-light" d="M805.0271,395.485l2.5,1.444v11.547l-2.5-1.444Z"/>
      <path class="exterior-L-light" d="M805.0271,424.353l2.5,1.443v11.547l-2.5-1.443Z"/>
      <path class="exterior-L-light" d="M805.0181,453.22l2.5,1.444v11.547l-2.5-1.444Z"/>
      <path class="exterior-L-light" d="M792.5271,515.286l-2.5-1.444V490.748l2.5,1.444Z"/>
      <path class="exterior-L-light" d="M790.0271,476.314l2.5,1.444v11.547l-2.5-1.444Z"/>
      <path class="exterior-L-light" d="M790.0271,461.881l2.5,1.443v11.547l-2.5-1.443Z"/>
      <path class="exterior-L-light" d="M790.0271,447.447l2.5,1.443v11.547l-2.5-1.443Z"/>
      <path class="exterior-L-light" d="M790.0271,433.013l2.5,1.444v11.546l-2.5-1.443Z"/>
      <path class="exterior-L-light" d="M790.0271,418.579l2.5,1.444V431.57l-2.5-1.444Z"/>
      <path class="exterior-L-light" d="M790.0271,404.146l2.5,1.443v11.547l-2.5-1.443Z"/>
      <path class="exterior-L-light" d="M790.0271,389.712l2.5,1.443v11.547l-2.5-1.443Z"/>
      <path class="top-light" d="M820.0271,372.391l2.5,1.444-30,17.32-2.5-1.443Z"/>
      <path class="top-light" d="M820.0271,401.259l2.5,1.443-30,17.321-2.5-1.444Z"/>
      <path class="top-light" d="M820.0271,430.126l2.5,1.444-30,17.32-2.5-1.443Z"/>
      <path class="top-light" d="M820.0271,458.994l2.5,1.443-30.009,17.321-2.491-1.444Z"/>
      <path class="top-light" d="M820.0271,473.428l2.5,1.443-30,17.321-2.5-1.444Z"/>
      <path class="exterior-R-light" d="M792.5271,402.702l30-17.32V373.835l-30,17.32Z"/>
      <path class="exterior-R-light" d="M792.5271,431.57l30-17.321V402.702l-30,17.321Z"/>
      <path class="exterior-R-light" d="M792.5271,460.437l30-17.32V431.57l-30,17.32Z"/>
      <path class="exterior-R-light" d="M792.5181,489.305l30.009-17.321V460.437l-30.009,17.321Z"/>
      <path class="exterior-R-light" d="M792.5271,515.286l30-17.321V474.871l-30,17.321Z"/>
      <path class="exterior-R-light" d="M805.0271,398.372v11.547l-12.5,7.217V405.589Z"/>
      <path class="exterior-R-light" d="M805.0271,427.24v11.547l-12.5,7.217V434.457Z"/>
      <path class="exterior-R-light" d="M805.0181,456.107v11.547l-12.5,7.217V463.324Z"/>
      <path class="exterior-R-light" d="M822.5271,388.268v11.547l-14.9911,8.661V396.929Z"/>
      <path class="exterior-R-light" d="M822.5271,417.136v11.547l-14.9911,8.66V425.796Z"/>
      <path class="exterior-R-light" d="M822.5271,446.004v11.547l-15,8.66V454.664Z"/>
      <path class="top-light" d="M802.5271,396.929l2.5,1.443-12.5,7.217-2.5-1.443Z"/>
      <path class="top-light" d="M802.5271,425.796l2.5,1.444-12.5,7.217-2.5-1.444Z"/>
      <path class="top-light" d="M802.5181,454.664l2.5,1.443-12.5,7.217-2.491-1.443Z"/>
      <path class="top-light" d="M820.0271,386.825l2.5,1.443-14.9911,8.661-2.5089-1.444Z"/>
      <path class="top-light" d="M820.0271,415.693l2.5,1.443-14.9911,8.66-2.5089-1.443Z"/>
      <path class="top-light" d="M820.0271,444.56l2.5,1.444-15,8.66-2.509-1.444Z"/>
    </g>
    <g>
      <path class="exterior-L-light" d="M695.0181,458.994l2.5,1.443v11.547l-2.5-1.443Z"/>
      <path class="exterior-L-light" d="M695.0181,487.861l2.5,1.444v11.547l-2.5-1.444Z"/>
      <path class="exterior-L-light" d="M695.009,516.729l2.5,1.443v11.547l-2.5-1.443Z"/>
      <path class="exterior-L-light" d="M682.5181,578.794l-2.5-1.443V554.257l2.5,1.443Z"/>
      <path class="exterior-L-light" d="M680.0181,539.823l2.5,1.443v11.547l-2.5-1.443Z"/>
      <path class="exterior-L-light" d="M680.0181,525.389l2.5,1.444V538.38l-2.5-1.4441Z"/>
      <path class="exterior-L-light" d="M680.0181,510.955l2.5,1.444v11.547l-2.5-1.444Z"/>
      <path class="exterior-L-light" d="M680.0181,496.522l2.5,1.443v11.547l-2.5-1.443Z"/>
      <path class="exterior-L-light" d="M680.0181,482.088l2.5,1.443v11.547l-2.5-1.443Z"/>
      <path class="exterior-L-light" d="M680.0181,467.654l2.5,1.444v11.547l-2.5-1.444Z"/>
      <path class="exterior-L-light" d="M680.0181,453.22l2.5,1.444v11.547l-2.5-1.444Z"/>
      <path class="top-light" d="M710.0181,435.9l2.5,1.443-30,17.321-2.5-1.444Z"/>
      <path class="top-light" d="M710.0181,464.767l2.5,1.444-30,17.32-2.5-1.443Z"/>
      <path class="top-light" d="M710.0181,493.635l2.5,1.443-30,17.321-2.5-1.444Z"/>
      <path class="top-light" d="M710.0181,522.502l2.5,1.444-30.0091,17.32-2.4909-1.443Z"/>
      <path class="top-light" d="M710.0181,536.9359l2.5,1.4441-30,17.32-2.5-1.443Z"/>
      <path class="exterior-R-light" d="M682.5181,466.211l30-17.321V437.343l-30,17.321Z"/>
      <path class="exterior-R-light" d="M682.5181,495.078l30-17.32V466.211l-30,17.32Z"/>
      <path class="exterior-R-light" d="M682.5181,523.946l30-17.321V495.078l-30,17.321Z"/>
      <path class="exterior-R-light" d="M682.509,552.813l30.0091-17.32V523.946l-30.0091,17.32Z"/>
      <path class="exterior-R-light" d="M682.5181,578.794l30-17.32V538.38l-30,17.32Z"/>
      <path class="exterior-R-light" d="M695.0181,461.881v11.547l-12.5,7.217V469.098Z"/>
      <path class="exterior-R-light" d="M695.0181,490.748v11.547l-12.5,7.217V497.965Z"/>
      <path class="exterior-R-light" d="M695.009,519.616v11.547l-12.5,7.217V526.833Z"/>
      <path class="exterior-R-light" d="M712.5181,451.777v11.547l-14.991,8.66V460.437Z"/>
      <path class="exterior-R-light" d="M712.5181,480.645v11.547l-14.991,8.66V489.305Z"/>
      <path class="exterior-R-light" d="M712.5181,509.512v11.547l-15,8.66V518.172Z"/>
      <path class="top-light" d="M692.5181,460.437l2.5,1.444-12.5,7.217-2.5-1.444Z"/>
      <path class="top-light" d="M692.5181,489.305l2.5,1.443-12.5,7.217-2.5-1.443Z"/>
      <path class="top-light" d="M692.509,518.172l2.5,1.444-12.5,7.217-2.4909-1.444Z"/>
      <path class="top-light" d="M710.0181,450.334l2.5,1.443-14.991,8.66-2.509-1.443Z"/>
      <path class="top-light" d="M710.0181,479.201l2.5,1.444-14.991,8.66-2.509-1.444Z"/>
      <path class="top-light" d="M710.0181,508.069l2.5,1.443-15,8.66-2.5091-1.443Z"/>
    </g>
    <path class="exterior-L-light" d="M715.019,473.428l-2.5009-1.444V448.89l2.5009,1.444Z"/>
    <path class="exterior-R-light" d="M715.019,473.428h0c18.9721-33.022,52.578-52.425,74.9991-43.301h0V407.032L715.019,450.334Z"/>
    <path class="top-light" d="M790.0181,407.032l-2.5-1.443-75,43.301,2.5,1.444Z"/>
    <path class="top-light" d="M680.0181,456.107l-2.5-1.443-37.5,21.65,2.5,1.444Z"/>
    <path class="exterior-L-light" d="M642.5181,489.305l-2.5-1.444V476.314l2.5,1.444Z"/>
    <path class="exterior-R-light" d="M642.5181,489.305l37.5-21.651V456.107l-37.5,21.651Z"/>
    <path id="anchor_70.018_438.787_750" class="top-prim" d="M70.0181,190.526l430,248.261,320-184.752-430-248.261Z"/>
    <g>
      <path class="exterior-R-light" d="M377.5181,500.852l-2.5,1.443v11.547l2.5-1.443Z"/>
      <path class="exterior-R-light" d="M377.5181,529.719l-2.5,1.444V542.71l2.5-1.444Z"/>
      <path class="exterior-R-light" d="M377.5271,558.5869l-2.5,1.443v11.5472l2.5-1.4432Z"/>
      <path class="exterior-R-light" d="M390.0181,620.652l2.5-1.443V596.115l-2.5,1.443Z"/>
      <path class="exterior-R-light" d="M392.5181,581.6809l-2.5,1.4432v11.547l2.5-1.443Z"/>
      <path class="exterior-R-light" d="M392.5181,567.247l-2.5,1.443v11.547l2.5-1.443Z"/>
      <path class="exterior-R-light" d="M392.5181,552.813l-2.5,1.444v11.547l2.5-1.444Z"/>
      <path class="exterior-R-light" d="M392.5181,538.38l-2.5,1.443V551.37l2.5-1.443Z"/>
      <path class="exterior-R-light" d="M392.5181,523.946l-2.5,1.443v11.5469l2.5-1.4429Z"/>
      <path class="exterior-R-light" d="M392.5181,509.512l-2.5,1.443v11.547l2.5-1.443Z"/>
      <path class="exterior-R-light" d="M392.5181,495.078l-2.5,1.444v11.547l2.5-1.444Z"/>
      <path class="exterior-R-light" d="M470.0181,539.823l-2.5,1.443v11.547l2.5-1.443Z"/>
      <path class="exterior-R-light" d="M425.0181,513.842l-2.5,1.443v11.547l2.5-1.443Z"/>
      <path class="top-light" d="M362.5181,477.758l-2.5,1.443,30,17.321,2.5-1.444Z"/>
      <path class="top-light" d="M440.0181,522.502l-2.5,1.444,30,17.32,2.5-1.443Z"/>
      <path class="top-light" d="M395.0181,496.522l-2.5,1.443,30,17.32,2.5-1.443Z"/>
      <path class="top-light" d="M425.0181,516.729l2.5-1.443,10,5.773-2.5,1.443Z"/>
      <path class="exterior-R-light" d="M435.0181,534.049l2.5-1.443V521.059l-2.5,1.443Z"/>
      <path class="top-light" d="M362.5181,506.625l-2.5,1.444,30,17.32,2.5-1.443Z"/>
      <path class="top-light" d="M362.5181,535.493l-2.5,1.4429,30,17.3211,2.5-1.444Z"/>
      <path class="top-light" d="M362.5181,564.36l-2.5,1.444,30.009,17.32,2.491-1.4432Z"/>
      <path class="top-light" d="M362.5181,578.794l-2.5,1.443,30,17.321,2.5-1.443Z"/>
      <path class="exterior-L-light" d="M390.0181,508.069l-30-17.321V479.201l30,17.321Z"/>
      <path class="exterior-L-light" d="M467.5181,552.813l-30-17.32V523.946l30,17.32Z"/>
      <path class="exterior-L-light" d="M435.0181,534.049l-10-5.773V516.729l10,5.773Z"/>
      <path class="exterior-L-light" d="M422.5181,526.832l-30-17.32V497.965l30,17.32Z"/>
      <path class="exterior-L-light" d="M390.0181,536.9359l-30-17.32V508.069l30,17.32Z"/>
      <path class="exterior-L-light" d="M390.0181,565.804l-30-17.3211v-11.547l30,17.3211Z"/>
      <path class="exterior-L-light" d="M390.0271,594.6711l-30.009-17.32V565.804l30.009,17.32Z"/>
      <path class="exterior-L-light" d="M390.0181,620.652l-30-17.321V580.237l30,17.321Z"/>
      <path class="exterior-L-light" d="M377.5181,503.739v11.547l12.5,7.216V510.955Z"/>
      <path class="exterior-L-light" d="M377.5181,532.606v11.547l12.5,7.217V539.823Z"/>
      <path class="exterior-L-light" d="M377.5271,561.474v11.547l12.5,7.216V568.69Z"/>
      <path class="exterior-L-light" d="M360.0181,493.635v11.547l14.9909,8.66V502.295Z"/>
      <path class="exterior-L-light" d="M360.0181,522.502v11.547l14.9909,8.661V531.163Z"/>
      <path class="exterior-L-light" d="M360.0181,551.37v11.547l15,8.66V560.03Z"/>
      <path class="top-light" d="M380.0181,502.295l-2.5,1.444,12.5,7.216,2.5-1.443Z"/>
      <path class="top-light" d="M380.0181,531.163l-2.5,1.443,12.5,7.217,2.5-1.443Z"/>
      <path class="top-light" d="M380.0271,560.03l-2.5,1.4441,12.5,7.216,2.491-1.443Z"/>
      <path class="top-light" d="M362.5181,492.192l-2.5,1.443,14.9909,8.66,2.5091-1.443Z"/>
      <path class="top-light" d="M362.5181,521.059l-2.5,1.443,14.9909,8.661,2.5091-1.444Z"/>
      <path class="top-light" d="M362.5181,549.927l-2.5,1.443,15,8.66,2.509-1.443Z"/>
    </g>
  </g>
</svg>
