<svg id="Layer_1" data-name="Layer 1" xmlns="http://www.w3.org/2000/svg" viewBox="0 0 770 684.161">
  <defs>
    <style>
      .exterior-R-prim {
        fill: #d05752;
      }

      .exterior-L-prim {
        fill: #73302e;
      }

      .window-R-prim {
        fill: #bd9664;
      }

      .window-L-prim {
        fill: #4d3b24;
      }

      .cls-1 {
        fill: #484848;
      }

      .cls-2 {
        fill: #2e2e2e;
      }

      .exterior-L-light {
        fill: #8a3a37;
      }

      .exterior-R-light {
        fill: #df5d58;
      }

      .top-light {
        fill: #ffc8c6;
      }

      .crown-R {
        fill: #bfd7bd;
      }

      .crown-top-prim{
        fill: #e5f7e3;
      }

      .crown-L-dark {
        fill: #6e806c;
      }

      .crown-L {
        fill: #8fa88c;
      }

      .exterior-R-dark {
        fill: #a64c49;
      }

      .exterior-L-dark {
        fill: #512220;
      }

      .crown-R-dark {
        fill: #a6c6a4;
      }

      .top-prim {
        fill: #dd8a87;
      }
    </style>
  </defs>
  <title>Artboard 18</title>
  <g>
    <path class="exterior-R-prim" d="M760,496.522V254.035L440,438.787V681.274Z"/>
    <path class="exterior-L-prim" d="M10,433.013V190.526L440,438.787V681.274Z"/>
    <path class="window-R-prim" d="M547.5,512.399v106.81l-80,46.188v-106.81Z"/>
    <path class="window-L-prim" d="M332.501,512.399v106.81L412.5,665.397v-106.81Z"/>
    <path class="window-L-prim" d="M40,343.524v106.81l80,46.188V389.712Z"/>
    <path class="cls-1" d="M467.5,653.85l80-46.188v1.443l-80,46.188Z"/>
    <path class="cls-2" d="M412.5,653.85l-79.999-46.188v1.443L412.5,655.293Z"/>
    <path class="cls-2" d="M120,484.975,40,438.787v1.443l80,46.188Z"/>
    <path class="cls-1" d="M467.5,633.642l80-46.188v1.444l-80,46.188Z"/>
    <path class="cls-2" d="M412.5,633.642l-79.999-46.188v1.444L412.5,635.086Z"/>
    <path class="cls-2" d="M120,464.767,40,418.579v1.444l80,46.188Z"/>
    <path class="cls-1" d="M467.5,586.011l80-46.188v1.443l-80,46.188Z"/>
    <path class="cls-2" d="M412.5,586.011l-79.999-46.188v1.443L412.5,587.454Z"/>
    <path class="cls-2" d="M120,417.136,40,370.948v1.443l80,46.188Z"/>
    <path class="cls-1" d="M467.5,604.7751l80-46.1882v1.443l-80,46.1881Z"/>
    <path class="cls-2" d="M412.5,604.7751l-79.999-46.1882v1.443L412.5,606.218Z"/>
    <path class="cls-2" d="M120,435.9,40,389.712v1.443l80,46.188Z"/>
    <path class="cls-1" d="M547.5,512.399l-1.25.721V619.93l1.25-.721Z"/>
    <path class="cls-2" d="M332.501,512.399l1.249.721V619.93l-1.249-.721Z"/>
    <path class="cls-2" d="M40,343.524l1.25.722V451.055L40,450.334Z"/>
    <path class="window-L-prim" d="M467.5,581.6809l1.25-.7219v83.716l-1.25.722Z"/>
    <path class="window-L-prim" d="M412.5,581.6809l-1.25-.7219v83.716l1.25.722Z"/>
    <path class="window-L-prim" d="M120,412.806l-1.25-.722V495.8l1.25.722Z"/>
    <path class="cls-1" d="M522.5,518.172l-1.25.722v115.47l1.25-.722Z"/>
    <path class="cls-2" d="M357.5,518.172l1.25.722v115.47l-1.249-.722Z"/>
    <path class="cls-2" d="M66.25,350.019l1.25.722L66.25,465.489,65,464.767Z"/>
    <path class="cls-1" d="M535,510.955l-1.25.722v115.47l1.25-.7209Z"/>
    <path class="cls-2" d="M345,510.955l1.25.722v115.47l-1.25-.7209Z"/>
    <path class="cls-2" d="M53.75,342.802l1.25.722L53.75,458.272l-1.25-.721Z"/>
    <path class="cls-1" d="M510,525.389l-1.25.722v115.47l1.25-.722Z"/>
    <path class="cls-2" d="M370,525.389l1.25.722v115.47l-1.249-.722Z"/>
    <path class="cls-2" d="M78.75,357.236l1.25.722L78.75,472.706l-1.25-.722Z"/>
    <path class="cls-1" d="M483.75,540.545l-1.25.721v115.47l1.25-.721Z"/>
    <path class="cls-2" d="M396.25,540.545l1.25.721v115.47l-1.25-.721Z"/>
    <path class="cls-2" d="M105,372.391l1.249.722L105,487.861l-1.25-.721Z"/>
    <path class="cls-1" d="M497.5,532.606l-1.25.722v115.47l1.25-.722Z"/>
    <path class="cls-2" d="M382.5,532.606l1.25.722v115.47l-1.249-.722Z"/>
    <path class="cls-2" d="M91.25,364.453l1.25.722L91.25,479.923l-1.249-.722Z"/>
    <path class="cls-1" d="M547.5,617.765l-80,46.188v1.444l80-46.188Z"/>
    <path class="cls-2" d="M332.501,617.765,412.5,663.953v1.444l-79.999-46.188Z"/>
    <path class="cls-2" d="M40,448.891l80,46.188v1.443L40,450.334Z"/>
    <path class="cls-1" d="M547.5,568.69l-80,46.188v1.4441l80-46.1882Z"/>
    <path class="cls-2" d="M332.501,568.6909,412.5,614.878v1.4441l-79.999-46.1882Z"/>
    <path class="cls-2" d="M40,399.816l80,46.188v1.443L40,401.259Z"/>
    <path class="exterior-R-prim" d="M546.25,609.8271v8.66l-77.5,44.745v-8.661Z"/>
    <path class="exterior-L-prim" d="M333.75,609.8271v8.66l77.5,44.745v-8.661Z"/>
    <path class="exterior-L-prim" d="M41.25,440.952v8.66l77.5,44.745v-8.66Z"/>
    <path class="exterior-R-prim" d="M546.25,560.752v8.66l-77.5,44.745v-8.661Z"/>
    <path class="exterior-L-prim" d="M333.75,560.752v8.66l77.5,44.745v-8.66Z"/>
    <path class="exterior-L-prim" d="M41.25,391.877v8.66l77.5,44.745v-8.66Z"/>
    <path class="exterior-L-light" d="M472.5,578.794l-2.5-1.443V554.257l2.5,1.443Z"/>
    <path class="exterior-R-light" d="M407.5,578.794l2.5-1.443V554.257l-2.5,1.443Z"/>
    <path class="exterior-R-light" d="M115,409.919l2.5-1.443V385.382l-2.5,1.443Z"/>
    <path class="exterior-L-light" d="M452.5,564.36l2.5,1.444v11.547l-2.5-1.444Z"/>
    <path class="exterior-L-light" d="M452.5,593.2281l2.5,1.443V606.218l-2.5-1.4429Z"/>
    <path class="exterior-R-light" d="M427.5,593.2281l-2.5,1.443V606.218l2.5-1.4429Z"/>
    <path class="exterior-L-light" d="M452.491,622.095l2.5,1.444v11.547l-2.5-1.444Z"/>
    <path class="exterior-R-light" d="M427.5,622.095l-2.5,1.444v11.547l2.5-1.444Z"/>
    <path class="exterior-R-light" d="M427.5,564.36l-2.5,1.444v11.547l2.5-1.444Z"/>
    <path class="exterior-R-light" d="M472.5,578.794h0c18.972-33.022,52.578-52.424,75-43.301h0V512.399l-75,43.301Z"/>
    <path class="exterior-L-light" d="M407.5,578.794h0c-18.972-33.022-52.5779-52.424-74.999-43.301h0V512.399L407.5,555.7Z"/>
    <path class="exterior-L-light" d="M115,409.919h0c-18.9719-33.022-52.5779-52.424-75-43.301h0V343.524l75,43.301Z"/>
    <g>
      <path class="window-R-prim" d="M730,407.032l.009,106.81-80,46.1879L650,453.22Z"/>
      <path class="cls-1" d="M650.009,548.4829l80-46.1879v1.444l-80,46.188Z"/>
      <path class="cls-1" d="M650.009,528.276l80-46.188v1.443l-80,46.188Z"/>
      <path class="cls-1" d="M650.009,480.645l80-46.189V435.9l-80,46.188Z"/>
      <path class="cls-1" d="M650.009,499.408l80-46.188v1.444l-80,46.188Z"/>
      <path class="cls-1" d="M729.999,407.032l-1.249.722.009,106.81,1.25-.722Z"/>
      <path class="cls-1" d="M705,412.806l-1.25.722.009,115.47,1.25-.722Z"/>
      <path class="cls-1" d="M717.5,405.589l-1.25.722.009,115.47,1.25-.722Z"/>
      <path class="cls-1" d="M692.5,420.023l-1.25.722.009,115.469,1.25-.721Z"/>
      <path class="cls-1" d="M666.25,435.178,665,435.9l.009,115.47,1.25-.722Z"/>
      <path class="cls-1" d="M680,427.24l-1.25.721.009,115.47,1.25-.7209Z"/>
      <path class="cls-1" d="M730.009,512.399l-80,46.1879v1.443l80-46.1879Z"/>
      <path class="cls-1" d="M730.009,463.324l-80,46.188v1.443l80-46.188Z"/>
      <path class="exterior-R-prim" d="M728.759,504.46v8.66l-77.5,44.745v-8.66Z"/>
      <path class="exterior-R-prim" d="M728.759,455.385v8.66l-77.5,44.745v-8.66Z"/>
    </g>
    <g>
      <path class="window-R-prim" d="M620,470.541v106.81l-42.491,24.537-.009-106.81Z"/>
      <path class="cls-1" d="M577.509,590.341l16.241-9.382v1.444l-16.241,9.381Z"/>
      <path class="cls-1" d="M606.25,575.1859,620,567.247v-1.443l-13.75,7.938Z"/>
      <path class="cls-1" d="M577.509,570.1339,620,545.597V547.04l-42.491,24.5372Z"/>
      <path class="cls-1" d="M577.509,522.502,620,497.965v1.443l-42.491,24.538Z"/>
      <path class="cls-1" d="M577.509,541.266,620,516.729v1.443L577.509,542.71Z"/>
      <path class="window-L-prim" d="M631.259,455.385l-1.25.722,1.25,114.748,1.2491-.7211Z"/>
      <path class="window-L-prim" d="M643.759,448.169l-1.25.721,1.25,114.7489,1.25-.7219Z"/>
      <path class="cls-1" d="M620,470.541l-1.25.722.009,106.8091,1.2491-.7211Z"/>
      <path class="cls-1" d="M593.75,477.036l-1.25.722.009,115.47,1.25-.7221Z"/>
      <path class="cls-1" d="M607.5,469.098l-1.25.721.009,115.47,1.2491-.721Z"/>
      <path class="cls-1" d="M620,575.907l-42.491,24.538v1.443L620,577.351Z"/>
      <path class="cls-1" d="M620,526.833,577.509,551.37v1.443L620,528.276Z"/>
      <path class="top-light" d="M582.509,492.191l-2.5-1.443,37.492-21.65L620,470.541Z"/>
      <path class="exterior-R-prim" d="M618.75,567.969v8.66l-11.25,6.4952v-8.66Z"/>
      <path class="exterior-R-prim" d="M592.5,583.1241v8.6608l-13.75,7.9382v-8.66Z"/>
      <path class="cls-1" d="M592.5,568.6909l15-8.661v1.4441l-15,8.66Z"/>
      <path class="exterior-R-prim" d="M618.75,518.894v8.66l-39.991,23.094v-8.66Z"/>
      <path class="exterior-L-light" d="M582.509,515.285l-2.5-1.443V490.748l2.5,1.443Z"/>
      <path class="exterior-R-light" d="M582.509,515.285h0c2.755-9.559,11.152-20.877,18.741-25.258h0c7.589-4.382,15.99-2.765,18.75,3.608h0V470.541l-37.491,21.65Z"/>
    </g>
    <path class="crown-R" d="M440,456.107,770,265.582V254.035L440,443.883Z"/>
    <path class="crown-R" d="M440,508.069,770,317.543V305.996L440,495.844Z"/>
    <path class="crown-R" d="M440,554.257,770,363.731v-5.773L440,547.8059Z"/>
    <path class="crown-top-prim" d="M770,254.035,330,0,0,190.526,440,444.56Z"/>
    <path class="crown-top-prim" d="M770,305.996l-10-5.773v5.773L440,490.748,10,242.488v-5.774L0,242.488,440,496.522Z"/>
    <path class="crown-top-prim" d="M770,357.958l-10-5.774v5.774L440,542.71,10,294.449v-5.773L0,294.449,440,548.4829Z"/>
    <path class="crown-L-dark" d="M5,204.96l5,8.66L440,461.881v-5.774Z"/>
    <path class="crown-L-dark" d="M5,256.921l5,8.661,430,248.26v-5.773Z"/>
    <path class="crown-L" d="M0,190.526v11.547L440,456.107V444.56Z"/>
    <path class="crown-L" d="M0,242.488v11.547L440,508.069V496.522Z"/>
    <path class="crown-L" d="M0,294.449v5.774L440,554.257v-5.7741Z"/>
    <path class="exterior-R-dark" d="M440,461.881,760,277.129v28.867L440,490.748Z"/>
    <path class="exterior-L-dark" d="M440,461.881,10,213.62v28.868l430,248.26Z"/>
    <path class="crown-R-dark" d="M765,268.468l-5,8.661L440,461.881v-5.774Z"/>
    <path class="crown-R-dark" d="M765,320.43l-5,8.66L440,513.842v-5.773Z"/>
    <g>
      <g>
        <path class="window-R-prim" d="M587.5,382.495,565,395.485v20.208l22.5-12.991Z"/>
        <path class="top-prim" d="M565,418.579l25-14.433v-2.887l-2.5-1.443v2.886L565,415.693Z"/>
        <path class="exterior-L-prim" d="M590,381.052l-2.5,1.443v20.207l2.5,1.444Z"/>
      </g>
      <path class="cls-1" d="M565,405.589l10-5.774v10.104l1.25-.722V399.094l11.25-6.495v-1.444l-11.25,6.495v-8.66l-1.25.722v8.66l-10,5.774Z"/>
      <g>
        <path class="window-R-prim" d="M627.5,359.401,605,372.391v20.208l22.5-12.991Z"/>
        <path class="top-prim" d="M605,395.485l25-14.433v-2.887l-2.5-1.443v2.886L605,392.599Z"/>
        <path class="exterior-L-prim" d="M630,357.958l-2.5,1.443v20.207l2.5,1.444Z"/>
      </g>
      <path class="cls-1" d="M605,382.495l10-5.774v10.104l1.25-.722V376l11.25-6.495v-1.444l-11.25,6.495v-8.66l-1.25.722v8.66l-10,5.774Z"/>
      <g>
        <path class="window-R-prim" d="M667.5,336.307,645,349.297v20.208l22.5-12.991Z"/>
        <path class="top-prim" d="M645,372.391l25-14.433v-2.887l-2.5-1.443v2.886L645,369.505Z"/>
        <path class="exterior-L-prim" d="M670,334.864l-2.5,1.443v20.207l2.5,1.444Z"/>
      </g>
      <path class="cls-1" d="M645,359.401l10-5.774v10.104l1.25-.722V352.906l11.25-6.495v-1.444l-11.25,6.495v-8.66l-1.25.722v8.66l-10,5.774Z"/>
      <g>
        <path class="window-R-prim" d="M542.5,408.476,520,421.466v20.207l22.5-12.99Z"/>
        <path class="top-prim" d="M520,444.56l25-14.434V427.24l-2.5-1.444v2.887L520,441.673Z"/>
        <path class="exterior-L-prim" d="M545,407.032l-2.5,1.444v20.207l2.5,1.443Z"/>
      </g>
      <path class="cls-1" d="M520,431.57l10-5.774V435.9l1.25-.722V425.075l11.25-6.496v-1.443l-11.25,6.495v-8.66l-1.25.722v8.66l-10,5.773Z"/>
      <g>
        <path class="window-R-prim" d="M477.5,446.004l-10,5.773v20.207l10-5.773Z"/>
        <path class="top-prim" d="M467.5,474.871l12.5-7.217v-2.887l-2.5-1.443v2.887l-10,5.773Z"/>
        <path class="exterior-L-prim" d="M480,444.56l-2.5,1.444v20.207l2.5,1.443Z"/>
      </g>
      <path class="window-R-prim" d="M495,435.9l-10,5.773v20.208l10-5.774Z"/>
      <path class="top-prim" d="M485,464.767l12.5-7.216v-2.887L495,453.22v2.887l-10,5.774Z"/>
      <path class="exterior-L-prim" d="M497.5,434.457,495,435.9v20.207l2.5,1.444Z"/>
      <path class="cls-1" d="M467.5,461.881l10-5.774v-1.443l-10,5.773Z"/>
      <path class="cls-1" d="M485,451.777l10-5.773V444.56l-10,5.774Z"/>
      <g>
        <path class="window-R-prim" d="M712.5,310.326l-10,5.774v20.207l10-5.773Z"/>
        <path class="top-prim" d="M702.5,339.194l12.5-7.217V329.09l-2.5-1.443v2.887l-10,5.773Z"/>
        <path class="exterior-L-prim" d="M715,308.883l-2.5,1.443v20.208l2.5,1.443Z"/>
      </g>
      <path class="window-R-prim" d="M730,300.223l-10,5.773v20.207l10-5.773Z"/>
      <path class="top-prim" d="M720,329.09l12.5-7.217v-2.887l-2.5-1.443v2.887l-10,5.773Z"/>
      <path class="exterior-L-prim" d="M732.5,298.779l-2.5,1.444V320.43l2.5,1.443Z"/>
      <path class="cls-1" d="M702.5,326.203l10-5.773v-1.443l-10,5.773Z"/>
      <path class="cls-1" d="M720,316.1l10-5.774v-1.443l-10,5.773Z"/>
    </g>
    <g>
      <g>
        <g>
          <path class="window-L-prim" d="M272.5,370.948l10,5.774v20.207l-10-5.774Z"/>
          <path class="top-prim" d="M282.5,399.816,270,392.599v-2.887l2.5-1.443v2.886l10,5.774Z"/>
          <path class="exterior-R-dark" d="M270,369.505l2.5,1.443v20.207l-2.5,1.444Z"/>
          <path class="cls-2" d="M282.5,386.825l-10-5.773v-1.444l10,5.774Z"/>
        </g>
        <g>
          <path class="window-L-prim" d="M207.5,333.42l10,5.774v20.207l-10-5.773Z"/>
          <path class="top-prim" d="M217.5,362.288,205,355.071v-2.887l2.5-1.443v2.886l10,5.774Z"/>
          <path class="exterior-R-dark" d="M205,331.977l2.5,1.443v20.208l-2.5,1.443Z"/>
          <path class="cls-2" d="M217.5,349.297l-10-5.773v-1.443l10,5.773Z"/>
        </g>
        <g>
          <path class="window-L-prim" d="M240,352.184l10,5.774v20.207l-10-5.774Z"/>
          <path class="top-prim" d="M250,381.052l-12.5-7.217v-2.887l2.5-1.443v2.886l10,5.774Z"/>
          <path class="exterior-R-dark" d="M237.5,350.741l2.5,1.443v20.207l-2.5,1.444Z"/>
          <path class="cls-2" d="M250,368.061l-10-5.773v-1.444l10,5.774Z"/>
        </g>
        <g>
          <path class="window-L-prim" d="M175,314.656l10,5.774v20.207l-10-5.773Z"/>
          <path class="top-prim" d="M185,343.524l-12.5-7.217V333.42l2.5-1.443v2.887l10,5.773Z"/>
          <path class="exterior-R-dark" d="M172.5,313.213l2.5,1.443v20.208l-2.5,1.443Z"/>
          <path class="cls-2" d="M185,330.534l-10-5.774v-1.443l10,5.773Z"/>
        </g>
        <g>
          <g>
            <path class="window-L-prim" d="M370,427.24l10,5.773V453.22l-10-5.773Z"/>
            <path class="top-prim" d="M380,456.107l-12.5-7.217v-2.886l2.5-1.444v2.887l10,5.773Z"/>
            <path class="exterior-R-dark" d="M367.5,425.796l2.5,1.444v20.207l-2.5,1.443Z"/>
          </g>
          <path class="window-L-prim" d="M352.5,417.136l10,5.774v20.207l-10-5.774Z"/>
          <path class="top-prim" d="M362.5,446.004,350,438.787V435.9l2.5-1.443v2.886l10,5.774Z"/>
          <path class="exterior-R-dark" d="M350,415.693l2.5,1.443v20.207l-2.5,1.444Z"/>
          <path class="cls-2" d="M380,443.117l-10-5.774V435.9l10,5.773Z"/>
          <path class="cls-2" d="M362.5,433.013l-10-5.773v-1.444l10,5.774Z"/>
        </g>
        <g>
          <g>
            <path class="window-L-prim" d="M50,242.488l10,5.773v20.207l-10-5.773Z"/>
            <path class="crown-top-prim" d="M60,271.355l-12.5-7.217v-2.887l2.5-1.443v2.887l10,5.773Z"/>
            <path class="exterior-R-dark" d="M47.5,241.044l2.5,1.444v20.207l-2.5,1.443Z"/>
          </g>
          <path class="window-L-prim" d="M32.5,232.384l10,5.774v20.207l-10-5.774Z"/>
          <path class="crown-top-prim" d="M42.5,261.251,30,254.035v-2.887l2.5-1.444v2.887l10,5.774Z"/>
          <path class="exterior-R-dark" d="M30,230.941l2.5,1.443v20.207L30,254.035Z"/>
          <path class="cls-2" d="M60,258.365l-10-5.774v-1.443l10,5.773Z"/>
          <path class="cls-2" d="M42.5,248.261l-10-5.773v-1.444l10,5.774Z"/>
        </g>
        <g>
          <g>
            <path class="window-L-prim" d="M410,450.334l10,5.773v20.207l-10-5.773Z"/>
            <path class="top-prim" d="M420,479.201l-12.5-7.217v-2.886l2.5-1.444v2.887l10,5.773Z"/>
            <path class="exterior-R-dark" d="M407.5,448.89l2.5,1.444v20.207l-2.5,1.443Z"/>
          </g>
          <path class="window-L-prim" d="M392.5,440.23l10,5.774v20.207l-10-5.774Z"/>
          <path class="top-prim" d="M402.5,469.098,390,461.881v-2.887l2.5-1.443v2.886l10,5.774Z"/>
          <path class="exterior-R-dark" d="M390,438.787l2.5,1.443v20.207l-2.5,1.444Z"/>
          <path class="cls-2" d="M420,466.211l-10-5.774v-1.443l10,5.773Z"/>
          <path class="cls-2" d="M402.5,456.107l-10-5.773V448.89l10,5.774Z"/>
        </g>
        <g>
          <g>
            <path class="window-L-prim" d="M90,265.582l10,5.773v20.207l-10-5.773Z"/>
            <path class="crown-top-prim" d="M100,294.449l-12.5-7.217v-2.887l2.5-1.443v2.887l10,5.773Z"/>
            <path class="exterior-R-dark" d="M87.5,264.138l2.5,1.444v20.207l-2.5,1.443Z"/>
          </g>
          <path class="window-L-prim" d="M72.5,255.478l10,5.774v20.207l-10-5.774Z"/>
          <path class="crown-top-prim" d="M82.5,284.345,70,277.129v-2.887l2.5-1.443v2.886l10,5.774Z"/>
          <path class="exterior-R-dark" d="M70,254.035l2.5,1.443v20.207L70,277.129Z"/>
          <path class="cls-2" d="M100,281.459l-10-5.774v-1.443l10,5.773Z"/>
          <path class="cls-2" d="M82.5,271.355l-10-5.773v-1.444l10,5.774Z"/>
        </g>
        <path class="top-prim" d="M323.75,423.631l-12.5-7.217v-2.886l2.5-1.444v2.887l10,5.773Z"/>
        <path class="cls-2" d="M143.75,306.718l-10-5.774v-1.443l10,5.773Z"/>
      </g>
      <path class="window-L-prim" d="M133.75,290.841l10,5.773v20.208l-10-5.774Z"/>
      <path class="top-prim" d="M143.75,319.708l-12.5-7.217v-2.886l2.5-1.444v2.887l10,5.773Z"/>
      <path class="exterior-R-dark" d="M131.25,289.397l2.5,1.444v20.207l-2.5,1.443Z"/>
      <path class="cls-2" d="M143.75,306.718l-10-5.774v-1.443l10,5.774Z"/>
      <g>
        <path class="window-L-prim" d="M313.75,394.764l10,5.773v20.208l-10-5.774Z"/>
        <path class="top-prim" d="M323.75,423.631l-12.5-7.216v-2.887l2.5-1.444v2.887l10,5.774Z"/>
        <path class="exterior-R-dark" d="M311.25,393.321l2.5,1.443v20.207l-2.5,1.444Z"/>
        <path class="cls-2" d="M323.75,410.641l-10-5.774v-1.443l10,5.774Z"/>
      </g>
    </g>
    <g>
      <path class="window-R-prim" d="M587.5,434.456,565,447.447v20.207l22.5-12.99Z"/>
      <path class="top-prim" d="M565,470.541l25-14.434V453.22l-2.5-1.443v2.887L565,467.654Z"/>
      <path class="exterior-L-light" d="M590,433.013l-2.5,1.443v20.208l2.5,1.443Z"/>
      <path class="cls-1" d="M565,457.551l10-5.774v10.104l1.25-.722V451.055l11.25-6.495v-1.443l-11.25,6.495v-8.66l-1.25.721v8.661l-10,5.773Z"/>
      <path class="window-R-prim" d="M627.5,411.362,605,424.353V444.56l22.5-12.99Z"/>
      <path class="top-prim" d="M605,447.447l25-14.434v-2.887l-2.5-1.443v2.887L605,444.56Z"/>
      <path class="exterior-L-light" d="M630,409.919l-2.5,1.443V431.57l2.5,1.443Z"/>
      <path class="cls-1" d="M605,434.457l10-5.774v10.104l1.25-.722V427.961l11.25-6.495v-1.443l-11.25,6.495v-8.66l-1.25.721v8.661l-10,5.773Z"/>
      <path class="window-R-prim" d="M667.5,388.268,645,401.259v20.207l22.5-12.99Z"/>
      <path class="top-prim" d="M645,424.353l25-14.434v-2.887l-2.5-1.443v2.887L645,421.466Z"/>
      <path class="exterior-L-light" d="M670,386.825l-2.5,1.443v20.208l2.5,1.443Z"/>
      <path class="cls-1" d="M645,411.363l10-5.774v10.104l1.25-.722V404.867l11.25-6.495v-1.443l-11.25,6.495v-8.66l-1.25.721v8.661l-10,5.773Z"/>
      <path class="window-R-prim" d="M542.5,460.437,520,473.428v20.207l22.5-12.991Z"/>
      <path class="top-prim" d="M520,496.522l25-14.434v-2.887l-2.5-1.443v2.886L520,493.635Z"/>
      <path class="exterior-L-light" d="M545,458.994l-2.5,1.443v20.207l2.5,1.444Z"/>
      <path class="cls-1" d="M520,483.531l10-5.773v10.103l1.25-.721V477.036l11.25-6.495v-1.443l-11.25,6.495v-8.661l-1.25.722v8.66l-10,5.774Z"/>
      <path class="window-R-prim" d="M477.5,497.965l-10,5.774v20.207l10-5.774Z"/>
      <path class="top-prim" d="M467.5,526.833l12.5-7.217v-2.887l-2.5-1.443v2.886l-10,5.774Z"/>
      <path class="exterior-L-light" d="M480,496.522l-2.5,1.443v20.207l2.5,1.444Z"/>
      <path class="window-R-prim" d="M495,487.861l-10,5.774v20.207l10-5.773Z"/>
      <path class="top-prim" d="M485,516.729l12.5-7.217v-2.887l-2.5-1.443v2.887l-10,5.773Z"/>
      <path class="exterior-L-light" d="M497.5,486.418l-2.5,1.443v20.208l2.5,1.443Z"/>
      <path class="cls-1" d="M467.5,513.842l10-5.773v-1.444l-10,5.774Z"/>
      <path class="cls-1" d="M485,503.739l10-5.774v-1.443l-10,5.773Z"/>
      <path class="window-R-prim" d="M712.5,362.288l-10,5.773v20.208l10-5.774Z"/>
      <path class="top-prim" d="M702.5,391.155l12.5-7.217v-2.886l-2.5-1.444v2.887l-10,5.774Z"/>
      <path class="exterior-L-light" d="M715,360.844l-2.5,1.444v20.207l2.5,1.443Z"/>
      <path class="window-R-prim" d="M730,352.184l-10,5.774v20.207l10-5.774Z"/>
      <path class="top-prim" d="M720,381.052l12.5-7.217v-2.887l-2.5-1.443v2.886l-10,5.774Z"/>
      <path class="exterior-L-light" d="M732.5,350.741l-2.5,1.443v20.207l2.5,1.444Z"/>
      <path class="cls-1" d="M702.5,378.165l10-5.774v-1.443l-10,5.774Z"/>
      <path class="cls-1" d="M720,368.061l10-5.773v-1.444l-10,5.774Z"/>
      <path class="window-L-prim" d="M272.5,422.91l10,5.773V448.89l-10-5.773Z"/>
      <path class="top-prim" d="M282.5,451.777,270,444.56v-2.887l2.5-1.443v2.887l10,5.773Z"/>
      <path class="exterior-R-light" d="M270,421.466l2.5,1.444v20.207L270,444.56Z"/>
      <path class="cls-2" d="M282.5,438.787l-10-5.774V431.57l10,5.773Z"/>
      <path class="window-L-prim" d="M207.5,385.382l10,5.773v20.208l-10-5.774Z"/>
      <path class="top-prim" d="M217.5,414.249,205,407.032v-2.886l2.5-1.444v2.887l10,5.773Z"/>
      <path class="exterior-R-light" d="M205,383.938l2.5,1.444v20.207l-2.5,1.443Z"/>
      <path class="cls-2" d="M217.5,401.259l-10-5.774v-1.443l10,5.774Z"/>
      <path class="window-L-prim" d="M240,404.146l10,5.773v20.207l-10-5.773Z"/>
      <path class="top-prim" d="M250,433.013l-12.5-7.217V422.91l2.5-1.444v2.887l10,5.773Z"/>
      <path class="exterior-R-light" d="M237.5,402.702l2.5,1.444v20.207l-2.5,1.443Z"/>
      <path class="cls-2" d="M250,420.023l-10-5.774v-1.443l10,5.773Z"/>
      <path class="window-L-prim" d="M175,366.618l10,5.773v20.208l-10-5.774Z"/>
      <path class="top-prim" d="M185,395.485l-12.5-7.217v-2.886l2.5-1.444v2.887l10,5.774Z"/>
      <path class="exterior-R-light" d="M172.5,365.175l2.5,1.443v20.207l-2.5,1.443Z"/>
      <path class="cls-2" d="M185,382.495l-10-5.773v-1.444l10,5.774Z"/>
      <path class="window-L-prim" d="M370,479.201l10,5.774v20.207l-10-5.774Z"/>
      <path class="top-prim" d="M380,508.069l-12.5-7.217v-2.887l2.5-1.443v2.886l10,5.774Z"/>
      <path class="exterior-R-light" d="M367.5,477.758l2.5,1.443v20.207l-2.5,1.444Z"/>
      <path class="window-L-prim" d="M352.5,469.098l10,5.773v20.207l-10-5.773Z"/>
      <path class="top-prim" d="M362.5,497.965,350,490.748v-2.887l2.5-1.443v2.887l10,5.773Z"/>
      <path class="exterior-R-light" d="M350,467.654l2.5,1.444v20.207l-2.5,1.443Z"/>
      <path class="cls-2" d="M380,495.078l-10-5.773v-1.444l10,5.774Z"/>
      <path class="cls-2" d="M362.5,484.975l-10-5.774v-1.443l10,5.773Z"/>
      <path class="window-L-prim" d="M50,294.449l10,5.774V320.43l-10-5.774Z"/>
      <path class="crown-top-prim" d="M60,323.317,47.5,316.1v-2.887L50,311.77v2.886l10,5.774Z"/>
      <path class="exterior-R-light" d="M47.5,293.006l2.5,1.443v20.207L47.5,316.1Z"/>
      <path class="window-L-prim" d="M32.5,284.345l10,5.774v20.207l-10-5.773Z"/>
      <path class="crown-top-prim" d="M42.5,313.213,30,305.996v-2.887l2.5-1.443v2.887l10,5.773Z"/>
      <path class="exterior-R-light" d="M30,282.902l2.5,1.443v20.208L30,305.996Z"/>
      <path class="cls-2" d="M60,310.326l-10-5.773v-1.444l10,5.774Z"/>
      <path class="cls-2" d="M42.5,300.223l-10-5.774v-1.443l10,5.773Z"/>
      <path class="window-L-prim" d="M410,502.295l10,5.774v20.207l-10-5.774Z"/>
      <path class="top-prim" d="M420,531.163l-12.5-7.217v-2.887l2.5-1.443v2.886l10,5.774Z"/>
      <path class="exterior-R-light" d="M407.5,500.852l2.5,1.443v20.207l-2.5,1.444Z"/>
      <path class="window-L-prim" d="M392.5,492.192l10,5.773v20.207l-10-5.773Z"/>
      <path class="top-prim" d="M402.5,521.059,390,513.842v-2.887l2.5-1.443v2.887l10,5.773Z"/>
      <path class="exterior-R-light" d="M390,490.748l2.5,1.444v20.207l-2.5,1.443Z"/>
      <path class="cls-2" d="M420,518.172l-10-5.773v-1.444l10,5.774Z"/>
      <path class="cls-2" d="M402.5,508.069l-10-5.774v-1.443l10,5.773Z"/>
      <path class="window-L-prim" d="M90,317.543l10,5.774v20.207L90,337.75Z"/>
      <path class="crown-top-prim" d="M100,346.411l-12.5-7.217v-2.887l2.5-1.443v2.886l10,5.774Z"/>
      <path class="exterior-R-light" d="M87.5,316.1l2.5,1.443V337.75l-2.5,1.444Z"/>
      <path class="window-L-prim" d="M72.5,307.439l10,5.774V333.42l-10-5.773Z"/>
      <path class="crown-top-prim" d="M82.5,336.307,70,329.09v-2.887l2.5-1.443v2.887l10,5.773Z"/>
      <path class="exterior-R-light" d="M70,305.996l2.5,1.443v20.208L70,329.09Z"/>
      <path class="cls-2" d="M100,333.42l-10-5.773v-1.444l10,5.774Z"/>
      <path class="cls-2" d="M82.5,323.317l-10-5.774V316.1l10,5.773Z"/>
      <path class="top-prim" d="M323.75,475.593l-12.5-7.217v-2.887l2.5-1.443v2.886l10,5.774Z"/>
      <path class="cls-2" d="M143.75,358.679l-10-5.773v-1.444l10,5.774Z"/>
      <path class="window-L-prim" d="M133.75,342.802l10,5.774v20.207l-10-5.773Z"/>
      <path class="top-prim" d="M143.75,371.67l-12.5-7.217v-2.887l2.5-1.443v2.886l10,5.774Z"/>
      <path class="exterior-R-light" d="M131.25,341.359l2.5,1.443V363.01l-2.5,1.443Z"/>
      <path class="cls-2" d="M143.75,358.679l-10-5.773v-1.443l10,5.773Z"/>
      <path class="window-L-prim" d="M313.75,446.725l10,5.774v20.207l-10-5.773Z"/>
      <path class="top-prim" d="M323.75,475.593l-12.5-7.217v-2.887l2.5-1.443v2.887l10,5.773Z"/>
      <path class="exterior-R-light" d="M311.25,445.282l2.5,1.443v20.208l-2.5,1.443Z"/>
      <path class="cls-2" d="M323.75,462.603l-10-5.774v-1.443l10,5.773Z"/>
    </g>
    <path class="top-light" d="M467.5,541.266l2.5,1.444-30,17.32V557.143Z"/>
    <path class="top-light" d="M412.5,541.266,410,542.71l30,17.32V557.143Z"/>
    <path class="top-light" d="M467.5,570.1339l2.5,1.4432L440,588.898v-2.887Z"/>
    <path class="top-light" d="M412.5,570.1339l-2.5,1.4432,30,17.3209v-2.887Z"/>
    <path class="top-light" d="M467.5,599.001l2.5,1.444-30,17.32v-2.887Z"/>
    <path class="top-light" d="M412.5,599.001l-2.5,1.444,30,17.32v-2.887Z"/>
    <path class="top-light" d="M467.5,627.869l2.5,1.443-30.009,17.321v-2.887Z"/>
    <path class="top-light" d="M412.5,627.869l-2.5,1.443,30.009,17.321v-2.887Z"/>
    <path class="top-light" d="M467.5,642.303l2.5,1.443-30,17.321V658.18Z"/>
    <path class="top-light" d="M412.5,642.303l-2.5,1.443,30,17.321V658.18Z"/>
    <path class="exterior-R-light" d="M440,571.5771l30-17.32V542.71l-30,17.32Z"/>
    <path class="exterior-L-light" d="M440,571.5771l-30-17.32V542.71l30,17.32Z"/>
    <path class="exterior-R-light" d="M440,600.445l30-17.3209v-11.547L440,588.898Z"/>
    <path class="exterior-L-light" d="M440,600.445l-30-17.3209v-11.547l30,17.3209Z"/>
    <path class="exterior-R-light" d="M440,629.312l30-17.32V600.445l-30,17.32Z"/>
    <path class="exterior-L-light" d="M440,629.312l-30-17.32V600.445l30,17.32Z"/>
    <path class="exterior-R-light" d="M439.991,658.18,470,640.859V629.312l-30.009,17.321Z"/>
    <path class="exterior-L-light" d="M440.009,658.18,410,640.859V629.312l30.009,17.321Z"/>
    <path class="exterior-R-light" d="M440,684.161l30-17.321V643.746l-30,17.321Z"/>
    <path class="exterior-L-light" d="M440,684.161,410,666.84V643.746l30,17.321Z"/>
    <path class="exterior-R-light" d="M452.5,567.247v11.547L440,586.011V574.464Z"/>
    <path class="exterior-R-light" d="M452.5,596.115v11.547L440,614.8789v-11.547Z"/>
    <path class="exterior-L-light" d="M427.5,596.115v11.547l12.5,7.2169v-11.547Z"/>
    <path class="exterior-L-light" d="M427.5,567.247v11.547l12.5,7.217V574.464Z"/>
    <path class="exterior-R-light" d="M452.491,624.982v11.547l-12.5,7.217V632.199Z"/>
    <path class="exterior-L-light" d="M427.5,624.982v11.547l12.5,7.217V632.199Z"/>
    <path class="exterior-L-light" d="M135,456.107v11.547l12.5,7.217V463.324Z"/>
    <path class="exterior-R-light" d="M470,557.143V568.69l-14.991,8.661V565.804Z"/>
    <path class="exterior-L-light" d="M410,557.143V568.69l14.991,8.661V565.804Z"/>
    <path class="exterior-R-light" d="M470,586.011v11.547l-14.991,8.66V594.6711Z"/>
    <path class="exterior-L-light" d="M410,586.011v11.547l14.991,8.66V594.6711Z"/>
    <path class="exterior-R-light" d="M470,614.8789v11.5472l-15,8.66V623.539Z"/>
    <path class="exterior-L-light" d="M410,614.878v11.547l15,8.661V623.539Z"/>
    <path class="top-light" d="M450,565.804l2.5,1.443L440,574.464l-12.5-7.217,2.5-1.443,10,5.7731Z"/>
    <path class="top-light" d="M450,594.6711l2.5,1.4439L440,603.3319l-12.5-7.2169,2.5-1.4439,10,5.7739Z"/>
    <path class="top-light" d="M449.991,623.539l2.5,1.443-12.5,7.217L427.5,624.982l2.5-1.443,9.991,5.773Z"/>
    <path class="top-light" d="M467.5,555.7l2.5,1.443-14.991,8.661L452.5,564.36Z"/>
    <path class="top-light" d="M412.5,555.7l-2.5,1.443,14.991,8.661,2.509-1.444Z"/>
    <path class="top-light" d="M547.5,512.399l-2.5-1.444-75,43.302,2.5,1.443Z"/>
    <path class="top-light" d="M332.5,512.399l2.5-1.444,75,43.302-2.5,1.443Z"/>
    <path class="top-light" d="M40,343.524l2.5-1.444,75,43.302-2.5,1.443Z"/>
    <path class="top-light" d="M467.5,584.568l2.5,1.443-14.991,8.66-2.509-1.443Z"/>
    <path class="top-light" d="M412.5,584.568l-2.5,1.443,14.991,8.66,2.509-1.443Z"/>
    <g>
      <path class="window-L-prim" d="M260,470.541v106.81l42.491,24.537.009-106.81Z"/>
      <path class="cls-2" d="M273.75,573.742,260,565.804v1.443l13.75,7.9389Z"/>
      <path class="cls-2" d="M286.25,580.959l16.25,9.382v1.4439l-16.25-9.3819Z"/>
      <path class="cls-2" d="M302.491,570.1339,260,545.596V547.04l42.491,24.5372Z"/>
      <path class="cls-2" d="M302.491,522.502,260,497.965v1.443l42.491,24.538Z"/>
      <path class="window-L-prim" d="M302.491,541.266,260,516.729v1.443l42.491,24.537Z"/>
      <path class="cls-2" d="M260,470.541l1.25.722-.009,106.8091-1.25-.7211Z"/>
      <path class="cls-2" d="M286.25,477.036l1.25.722-.009,115.47-1.25-.7221Z"/>
      <path class="cls-2" d="M272.5,469.098l1.25.721-.009,115.47-1.25-.721Z"/>
      <path class="cls-2" d="M260,575.907l42.491,24.537v1.444L260,577.351Z"/>
      <path class="window-L-prim" d="M260,526.833l42.491,24.537v1.443L260,528.276Z"/>
      <path class="top-light" d="M297.491,492.191l2.5-1.443-37.492-21.65L260,470.541Z"/>
      <path class="exterior-L-prim" d="M287.5,583.1241v8.66l13.741,7.9391v-8.66Z"/>
      <path class="exterior-L-prim" d="M261.25,567.969l11.25,6.495v8.66l-11.25-6.4952Z"/>
      <path class="exterior-L-prim" d="M261.25,518.894v8.66l39.991,23.094v-8.66Z"/>
      <path class="exterior-R-light" d="M297.491,515.285l2.5-1.443V490.748l-2.5,1.443Z"/>
      <path class="exterior-L-light" d="M297.491,515.285h0c-2.7549-9.559-11.1519-20.877-18.741-25.259h0c-7.5891-4.381-15.99-2.764-18.75,3.609h0V470.541l37.491,21.65Z"/>
      <path class="top-light" d="M260,456.107l2.5-1.443,37.5,21.65-2.5,1.444Z"/>
      <path class="exterior-R-light" d="M297.5,489.305l2.5-1.444V476.314l-2.5,1.444Z"/>
      <path class="exterior-L-light" d="M297.5,489.305,260,467.654V456.107l37.5,21.651Z"/>
    </g>
    <g>
      <path class="window-L-prim" d="M205,438.787V545.596l42.491,24.5379.008-106.81Z"/>
      <path class="cls-2" d="M218.75,541.9879,205,534.049v1.444l13.75,7.9379Z"/>
      <path class="cls-2" d="M231.25,549.205l15,8.66v1.444l-15-8.661Z"/>
      <path class="window-L-prim" d="M176.25,517.451v1.443l15,8.66v-1.443Z"/>
      <path class="cls-2" d="M247.491,538.3789,205,513.842v1.444l42.491,24.537Z"/>
      <path class="cls-2" d="M247.491,490.748,205,466.211v1.443l42.491,24.537Z"/>
      <path class="cls-2" d="M247.491,509.512,205,484.975v1.443l42.491,24.537Z"/>
      <path class="cls-2" d="M205,438.787l1.249.721-.008,106.81-1.25-.722Z"/>
      <path class="cls-2" d="M231.25,445.282l1.25.722-.01,115.4691-1.249-.7211Z"/>
      <path class="cls-2" d="M217.5,437.343l1.25.722-.009,115.47-1.25-.7219Z"/>
      <path class="cls-2" d="M205,544.153l42.491,24.537v1.4439L205,545.596Z"/>
      <path class="cls-2" d="M205,495.078l42.491,24.537v1.444L205,496.522Z"/>
      <path class="top-light" d="M242.49,460.437l2.501-1.443-37.492-21.651L205,438.787Z"/>
      <path class="exterior-L-prim" d="M206.249,536.215v8.66L217.5,551.37v-8.66Z"/>
      <path class="exterior-L-prim" d="M232.5,551.37v8.66l12.501,7.2171v-8.66Z"/>
      <path class="exterior-L-prim" d="M206.249,487.14v8.66l39.992,23.094v-8.661Z"/>
      <path class="exterior-R-light" d="M242.49,483.531l2.501-1.443V458.994l-2.501,1.443Z"/>
      <path class="exterior-L-light" d="M242.49,483.531h0c-2.7539-9.559-11.1521-20.877-18.74-25.259h0c-7.5891-4.381-15.991-2.764-18.75,3.609h0V438.787l37.49,21.65Z"/>
      <path class="top-light" d="M205,424.353l2.5-1.443L245,444.56l-2.5,1.444Z"/>
      <path class="exterior-R-light" d="M242.5,457.551l2.5-1.444V444.56l-2.5,1.444Z"/>
      <path class="exterior-L-light" d="M242.5,457.551,205,435.9V424.353l37.5,21.651Z"/>
    </g>
    <g>
      <path class="window-L-prim" d="M149.991,407.032v106.81l42.4909,24.5369L192.491,431.57Z"/>
      <path class="cls-2" d="M163.75,510.234l-13.759-7.939v1.443l13.759,7.939Z"/>
      <path class="cls-2" d="M176.25,517.451l15,8.66v1.443l-15-8.66Z"/>
      <path class="cls-2" d="M192.4819,506.625,149.991,482.088v1.443l42.4909,24.538Z"/>
      <path class="cls-2" d="M162.5,496.522l15,8.66v1.443l-15-8.66Z"/>
      <path class="cls-2" d="M217.5,528.276l15,8.66V538.38l-15-8.661Z"/>
      <path class="cls-2" d="M272.5,560.03l15,8.661v1.443l-15-8.66Z"/>
      <path class="cls-2" d="M192.4819,458.994,149.991,434.456V435.9l42.4909,24.537Z"/>
      <path class="cls-2" d="M192.4819,477.758,149.991,453.22v1.444l42.4909,24.537Z"/>
      <path class="cls-2" d="M149.991,407.032l1.25.722-.0091,106.81-1.249-.722Z"/>
      <path class="cls-2" d="M176.25,413.528l1.25.721v115.47l-1.25-.721Z"/>
      <path class="cls-2" d="M162.5,405.589l1.25.722-.0181,115.47-1.249-.722Z"/>
      <path class="cls-2" d="M149.991,512.399l42.4909,24.5369v1.443L149.991,513.842Z"/>
      <path class="cls-2" d="M149.991,463.324l42.4909,24.537v1.444L149.991,464.767Z"/>
      <path class="top-light" d="M187.4819,428.683l2.5-1.444L152.49,405.589l-2.499,1.443Z"/>
      <path class="exterior-L-prim" d="M151.241,504.46v8.66l11.259,6.496v-8.661Z"/>
      <path class="exterior-L-prim" d="M177.5,519.616l13.75,7.938v8.661l-13.75-7.939Z"/>
      <path class="exterior-L-prim" d="M151.241,455.385v8.661l39.9909,23.093v-8.66Z"/>
      <path class="exterior-R-light" d="M187.4819,451.777l2.5-1.444V427.239l-2.5,1.444Z"/>
      <path class="exterior-L-light" d="M187.4819,451.777h0c-2.7548-9.56-11.1518-20.878-18.7409-25.259h0c-7.5889-4.382-15.99-2.765-18.75,3.608h0V407.032l37.4909,21.651Z"/>
      <path class="top-light" d="M149.991,392.599l2.5-1.444,37.5,21.651-2.5,1.443Z"/>
      <path class="exterior-R-light" d="M187.491,425.796l2.5-1.443V412.806l-2.5,1.443Z"/>
      <path class="exterior-L-light" d="M187.491,425.796l-37.5-21.65V392.599l37.5,21.65Z"/>
    </g>
    <path class="top-light" d="M467.5,613.435l2.5,1.4439-15,8.66-2.509-1.444Z"/>
    <path class="top-light" d="M412.5,613.435l-2.5,1.443,15,8.661,2.509-1.444Z"/>
    <g>
      <path class="exterior-L-light" d="M562.5,500.852l2.5,1.443v11.547l-2.5-1.443Z"/>
      <path class="exterior-L-light" d="M562.5,529.719l2.5,1.444V542.71l-2.5-1.444Z"/>
      <path class="exterior-L-light" d="M562.491,558.5869l2.5,1.443v11.5472l-2.5-1.4432Z"/>
      <path class="exterior-L-light" d="M550,620.652l-2.5-1.443V596.115l2.5,1.443Z"/>
      <path class="exterior-L-light" d="M547.5,581.6809l2.5,1.4432v11.547l-2.5-1.443Z"/>
      <path class="exterior-L-light" d="M547.5,567.247l2.5,1.4439v11.547l-2.5-1.4439Z"/>
      <path class="exterior-L-light" d="M547.5,552.813l2.5,1.444v11.547l-2.5-1.444Z"/>
      <path class="exterior-L-light" d="M547.5,538.38l2.5,1.443V551.37l-2.5-1.443Z"/>
      <path class="exterior-L-light" d="M547.5,523.946l2.5,1.443v11.5469l-2.5-1.4429Z"/>
      <path class="exterior-L-light" d="M547.5,509.512l2.5,1.443v11.547l-2.5-1.443Z"/>
      <path class="exterior-L-light" d="M547.5,495.078l2.5,1.444v11.547l-2.5-1.444Z"/>
      <path class="exterior-L-light" d="M470,539.823l2.5,1.443v11.547L470,551.37Z"/>
      <path class="exterior-L-light" d="M515,513.842l2.5,1.444v11.547l-2.5-1.444Z"/>
      <path class="top-light" d="M577.5,477.758l2.5,1.443-30,17.321-2.5-1.444Z"/>
      <path class="top-light" d="M500,522.502l2.5,1.444-30,17.32-2.5-1.443Z"/>
      <path class="top-light" d="M545,496.522l2.5,1.443-30,17.321-2.5-1.444Z"/>
      <path class="top-light" d="M515,516.729l-2.5-1.443-10,5.773,2.5,1.443Z"/>
      <path class="exterior-L-light" d="M505,534.049l-2.5-1.443V521.059l2.5,1.443Z"/>
      <path class="top-light" d="M577.5,506.625l2.5,1.444-30,17.32-2.5-1.443Z"/>
      <path class="top-light" d="M577.5,535.493l2.5,1.4429L550,554.257l-2.5-1.444Z"/>
      <path class="top-light" d="M577.5,564.36l2.5,1.444-30.009,17.32-2.491-1.4432Z"/>
      <path class="top-light" d="M577.5,578.794l2.5,1.443-30,17.321-2.5-1.443Z"/>
      <path class="exterior-R-light" d="M550,508.069l30-17.321V479.201l-30,17.321Z"/>
      <path class="exterior-R-light" d="M472.5,552.813l30-17.32V523.946l-30,17.32Z"/>
      <path class="exterior-R-light" d="M505,534.049l10-5.773V516.729l-10,5.773Z"/>
      <path class="exterior-R-light" d="M517.5,526.833l30-17.321V497.965l-30,17.321Z"/>
      <path class="exterior-R-light" d="M550,536.9359l30-17.32V508.069l-30,17.32Z"/>
      <path class="exterior-R-light" d="M550,565.804l30-17.3211v-11.547L550,554.257Z"/>
      <path class="exterior-R-light" d="M549.991,594.6711,580,577.351V565.804l-30.009,17.32Z"/>
      <path class="exterior-R-light" d="M550,620.652l30-17.32V580.237l-30,17.321Z"/>
      <path class="exterior-R-light" d="M562.5,503.739v11.547L550,522.502V510.955Z"/>
      <path class="exterior-R-light" d="M562.5,532.606v11.547L550,551.37V539.823Z"/>
      <path class="exterior-R-light" d="M562.491,561.474v11.547l-12.5,7.2169v-11.547Z"/>
      <path class="exterior-R-light" d="M580,493.635v11.547l-14.991,8.66V502.295Z"/>
      <path class="exterior-R-light" d="M580,522.502v11.547l-14.991,8.661V531.163Z"/>
      <path class="exterior-R-light" d="M580,551.37v11.547l-15,8.66V560.03Z"/>
      <path class="top-light" d="M560,502.295l2.5,1.444L550,510.955l-2.5-1.443Z"/>
      <path class="top-light" d="M560,531.163l2.5,1.443L550,539.823l-2.5-1.443Z"/>
      <path class="top-light" d="M559.991,560.03l2.5,1.4441-12.5,7.2169L547.5,567.247Z"/>
      <path class="top-light" d="M577.5,492.192l2.5,1.443-14.991,8.66-2.509-1.443Z"/>
      <path class="top-light" d="M577.5,521.059l2.5,1.443-14.991,8.661-2.509-1.444Z"/>
      <path class="top-light" d="M577.5,549.927l2.5,1.443-15,8.66-2.509-1.443Z"/>
    </g>
    <g>
      <path class="exterior-R-light" d="M25,331.977l-2.5,1.443v11.547l2.5-1.443Z"/>
      <path class="exterior-R-light" d="M25,360.844l-2.5,1.444v11.547l2.5-1.444Z"/>
      <path class="exterior-R-light" d="M25.009,389.712l-2.5,1.443v11.547l2.5-1.443Z"/>
      <path class="exterior-R-light" d="M37.5,451.777l2.5-1.443V427.24l-2.5,1.443Z"/>
      <path class="exterior-R-light" d="M40,412.806l-2.5,1.443v11.547l2.5-1.443Z"/>
      <path class="exterior-R-light" d="M40,398.372l-2.5,1.444v11.547l2.5-1.444Z"/>
      <path class="exterior-R-light" d="M40,383.938l-2.5,1.444v11.547l2.5-1.444Z"/>
      <path class="exterior-R-light" d="M40,369.505l-2.5,1.443v11.547l2.5-1.443Z"/>
      <path class="exterior-R-light" d="M40,355.071l-2.5,1.443v11.547l2.5-1.443Z"/>
      <path class="exterior-R-light" d="M40,340.637l-2.5,1.443v11.547l2.5-1.443Z"/>
      <path class="exterior-R-light" d="M40,326.203l-2.5,1.444v11.547L40,337.75Z"/>
      <path class="exterior-R-light" d="M117.5,370.948l-2.5,1.443v11.547l2.5-1.443Z"/>
      <path class="exterior-R-light" d="M72.5,344.967,70,346.411v11.547l2.5-1.444Z"/>
      <path class="top-light" d="M10,308.883l-2.5,1.443,30,17.321,2.5-1.444Z"/>
      <path class="top-light" d="M87.5,353.628,85,355.071l30,17.32,2.5-1.443Z"/>
      <path class="top-light" d="M42.5,327.647,40,329.09l30,17.321,2.5-1.444Z"/>
      <path class="top-light" d="M72.5,347.854l2.5-1.443,10,5.773-2.5,1.443Z"/>
      <path class="exterior-R-light" d="M82.5,365.174l2.5-1.443V352.184l-2.5,1.443Z"/>
      <path class="top-light" d="M10,337.75l-2.5,1.444,30,17.32,2.5-1.443Z"/>
      <path class="top-light" d="M10,366.618l-2.5,1.443,30,17.321,2.5-1.444Z"/>
      <path class="top-light" d="M10,395.485l-2.5,1.444,30.009,17.32L40,412.806Z"/>
      <path class="top-light" d="M10,409.919l-2.5,1.444,30,17.32L40,427.24Z"/>
      <path class="exterior-L-light" d="M37.5,339.194l-30-17.321V310.326l30,17.321Z"/>
      <path class="exterior-L-light" d="M115,383.938l-30-17.32V355.071l30,17.32Z"/>
      <path class="exterior-L-light" d="M82.5,365.174l-10-5.773V347.854l10,5.773Z"/>
      <path class="exterior-L-light" d="M70,357.958,40,340.637V329.09l30,17.321Z"/>
      <path class="exterior-L-light" d="M37.5,368.061l-30-17.32V339.194l30,17.32Z"/>
      <path class="exterior-L-light" d="M37.5,396.929l-30-17.321V368.061l30,17.321Z"/>
      <path class="exterior-L-light" d="M37.509,425.796,7.5,408.476V396.929l30.009,17.32Z"/>
      <path class="exterior-L-light" d="M37.5,451.777l-30-17.32V411.363l30,17.32Z"/>
      <path class="exterior-L-light" d="M25,334.864v11.547l12.5,7.217V342.081Z"/>
      <path class="exterior-L-light" d="M25,363.731v11.547l12.5,7.217V370.948Z"/>
      <path class="exterior-L-light" d="M25.009,392.599v11.547l12.5,7.217V399.816Z"/>
      <path class="exterior-L-light" d="M7.5,324.76v11.547l14.991,8.66V333.42Z"/>
      <path class="exterior-L-light" d="M7.5,353.627v11.547l14.991,8.661V362.288Z"/>
      <path class="exterior-L-light" d="M7.5,382.495v11.547l15,8.66V391.155Z"/>
      <path class="top-light" d="M27.5,333.42,25,334.864l12.5,7.217,2.5-1.444Z"/>
      <path class="top-light" d="M27.5,362.288,25,363.731l12.5,7.217,2.5-1.443Z"/>
      <path class="top-light" d="M27.509,391.155l-2.5,1.444,12.5,7.217L40,398.372Z"/>
      <path class="top-light" d="M10,323.317,7.5,324.76l14.991,8.66L25,331.977Z"/>
      <path class="top-light" d="M10,352.184l-2.5,1.443,14.991,8.661L25,360.844Z"/>
      <path class="top-light" d="M10,381.052l-2.5,1.443,15,8.66,2.509-1.443Z"/>
    </g>
    <g>
      <path class="exterior-R-light" d="M135,395.485l-2.5,1.444v11.547l2.5-1.444Z"/>
      <path class="exterior-R-light" d="M135,424.353l-2.5,1.443v11.547L135,435.9Z"/>
      <path class="exterior-R-light" d="M135.009,453.22l-2.5,1.444v11.547l2.5-1.444Z"/>
      <path class="exterior-R-light" d="M147.5,515.286l2.5-1.444V490.748l-2.5,1.444Z"/>
      <path class="exterior-R-light" d="M150,476.314l-2.5,1.444v11.547l2.5-1.444Z"/>
      <path class="exterior-R-light" d="M150,461.881l-2.5,1.443v11.547l2.5-1.443Z"/>
      <path class="exterior-R-light" d="M150,447.447l-2.5,1.443v11.547l2.5-1.443Z"/>
      <path class="exterior-R-light" d="M150,433.013l-2.5,1.444v11.547l2.5-1.444Z"/>
      <path class="exterior-R-light" d="M150,418.579l-2.5,1.444V431.57l2.5-1.444Z"/>
      <path class="exterior-R-light" d="M150,404.146l-2.5,1.443v11.547l2.5-1.443Z"/>
      <path class="exterior-R-light" d="M150,389.712l-2.5,1.443v11.547l2.5-1.443Z"/>
      <path class="top-light" d="M120,372.391l-2.5,1.444,30,17.32,2.5-1.443Z"/>
      <path class="top-light" d="M120,401.259l-2.5,1.443,30,17.321,2.5-1.444Z"/>
      <path class="top-light" d="M120,430.126l-2.5,1.444,30,17.32,2.5-1.443Z"/>
      <path class="top-light" d="M120,458.994l-2.5,1.443,30.009,17.321L150,476.314Z"/>
      <path class="top-light" d="M120,473.428l-2.5,1.443,30,17.321,2.5-1.444Z"/>
      <path class="exterior-L-light" d="M147.5,402.702l-30-17.32V373.835l30,17.32Z"/>
      <path class="exterior-L-light" d="M147.5,431.57l-30-17.321V402.702l30,17.321Z"/>
      <path class="exterior-L-light" d="M147.5,460.437l-30-17.32V431.57l30,17.32Z"/>
      <path class="exterior-L-light" d="M147.509,489.305,117.5,471.984V460.437l30.009,17.321Z"/>
      <path class="exterior-L-light" d="M147.5,515.286l-30-17.321V474.871l30,17.321Z"/>
      <path class="exterior-L-light" d="M135,398.372v11.547l12.5,7.217V405.589Z"/>
      <path class="exterior-L-light" d="M135,427.24v11.547l12.5,7.217V434.457Z"/>
      <path class="exterior-L-light" d="M135.009,456.107v11.547l12.5,7.217V463.324Z"/>
      <path class="exterior-L-light" d="M117.5,388.269v11.547l14.991,8.66V396.929Z"/>
      <path class="exterior-L-light" d="M117.5,417.136v11.547l14.991,8.66V425.796Z"/>
      <path class="exterior-L-light" d="M117.5,446.004v11.547l15,8.66V454.664Z"/>
      <path class="top-light" d="M137.5,396.929l-2.5,1.443,12.5,7.217,2.5-1.443Z"/>
      <path class="top-light" d="M137.5,425.796,135,427.24l12.5,7.217,2.5-1.444Z"/>
      <path class="top-light" d="M137.509,454.664l-2.5,1.443,12.5,7.217L150,461.881Z"/>
      <path class="top-light" d="M120,386.825l-2.5,1.444,14.991,8.66L135,395.485Z"/>
      <path class="top-light" d="M120,415.693l-2.5,1.443,14.991,8.66L135,424.353Z"/>
      <path class="top-light" d="M120,444.56l-2.5,1.444,15,8.66,2.509-1.444Z"/>
    </g>
    <g>
      <path class="exterior-R-light" d="M257.5,578.794l2.5-1.443V554.257l-2.5,1.443Z"/>
      <path class="exterior-R-light" d="M260,539.823l-2.5,1.443v11.547l2.5-1.443Z"/>
      <path class="exterior-R-light" d="M260,525.389l-2.5,1.444V538.38l2.5-1.4441Z"/>
      <path class="exterior-R-light" d="M260,510.956l-2.5,1.443v11.547l2.5-1.444Z"/>
      <path class="exterior-R-light" d="M260,496.522l-2.5,1.443v11.547l2.5-1.443Z"/>
      <path class="exterior-R-light" d="M260,482.088l-2.5,1.443v11.547l2.5-1.443Z"/>
      <path class="exterior-R-light" d="M260,467.654l-2.5,1.444v11.547l2.5-1.444Z"/>
      <path class="exterior-R-light" d="M260,453.22l-2.5,1.444v11.547l2.5-1.444Z"/>
      <path class="top-light" d="M247.5,446.004l-2.5,1.443,12.5,7.217,2.5-1.444Z"/>
      <path class="top-light" d="M247.5,474.871l-2.5,1.443,12.5,7.217,2.5-1.443Z"/>
      <path class="top-light" d="M247.5,503.739l-2.5,1.443,12.5,7.217,2.5-1.444Z"/>
      <path class="top-light" d="M247.5,532.606l-2.5,1.443,12.509,7.217L260,539.823Z"/>
      <path class="top-light" d="M247.5,547.04l-2.5,1.443L257.5,555.7l2.5-1.443Z"/>
      <path class="exterior-L-light" d="M257.5,466.211,245,458.994V447.447l12.5,7.217Z"/>
      <path class="exterior-L-light" d="M257.5,495.078,245,487.861V476.314l12.5,7.217Z"/>
      <path class="exterior-L-light" d="M257.5,523.946,245,516.729V505.182l12.5,7.217Z"/>
      <path class="exterior-L-light" d="M257.509,552.813,245,545.596V534.049l12.509,7.217Z"/>
      <path class="exterior-L-light" d="M257.5,578.794,245,571.5771V548.4829L257.5,555.7Z"/>
      <path class="exterior-L-light" d="M245,461.881v11.547l12.5,7.217V469.098Z"/>
      <path class="exterior-L-light" d="M245,490.748v11.547l12.5,7.217V497.965Z"/>
      <path class="exterior-L-light" d="M245.009,519.616v11.547l12.5,7.217V526.833Z"/>
      <path class="top-light" d="M247.5,460.437l-2.5,1.444,12.5,7.217,2.5-1.444Z"/>
      <path class="top-light" d="M247.5,489.305l-2.5,1.443,12.5,7.217,2.5-1.443Z"/>
      <path class="top-light" d="M247.509,518.172l-2.5,1.444,12.5,7.217L260,525.389Z"/>
    </g>
    <g>
      <path class="exterior-R-light" d="M202.491,547.04l2.5-1.4439V522.502l-2.5,1.444Z"/>
      <path class="exterior-R-light" d="M204.991,508.069l-2.5,1.443v11.547l2.5-1.443Z"/>
      <path class="exterior-R-light" d="M204.991,493.635l-2.5,1.443v11.547l2.5-1.443Z"/>
      <path class="exterior-R-light" d="M204.991,479.201l-2.5,1.444v11.547l2.5-1.444Z"/>
      <path class="exterior-R-light" d="M204.991,464.767l-2.5,1.444v11.547l2.5-1.444Z"/>
      <path class="exterior-R-light" d="M204.991,450.334l-2.5,1.443v11.547l2.5-1.443Z"/>
      <path class="exterior-R-light" d="M204.991,435.9l-2.5,1.443V448.89l2.5-1.443Z"/>
      <path class="exterior-R-light" d="M204.991,421.466l-2.5,1.444v11.547l2.5-1.444Z"/>
      <path class="top-light" d="M192.491,414.249l-2.5,1.444,12.5,7.217,2.5-1.444Z"/>
      <path class="top-light" d="M192.491,443.117l-2.5,1.443,12.5,7.217,2.5-1.443Z"/>
      <path class="top-light" d="M192.491,471.984l-2.5,1.444,12.5,7.217,2.5-1.444Z"/>
      <path class="top-light" d="M192.491,500.852l-2.5,1.443,12.509,7.217,2.491-1.443Z"/>
      <path class="top-light" d="M192.491,515.286l-2.5,1.443,12.5,7.217,2.5-1.444Z"/>
      <path class="exterior-L-light" d="M202.491,434.457l-12.5-7.217V415.693l12.5,7.217Z"/>
      <path class="exterior-L-light" d="M202.491,463.324l-12.5-7.217V444.56l12.5,7.217Z"/>
      <path class="exterior-L-light" d="M202.491,492.192l-12.5-7.217V473.428l12.5,7.217Z"/>
      <path class="exterior-L-light" d="M202.5,521.059l-12.509-7.217V502.295l12.509,7.217Z"/>
      <path class="exterior-L-light" d="M202.491,547.04l-12.5-7.2169V516.729l12.5,7.217Z"/>
      <path class="exterior-L-light" d="M189.991,430.126v11.547l12.5,7.217V437.343Z"/>
      <path class="exterior-L-light" d="M189.991,458.994v11.547l12.5,7.217V466.211Z"/>
      <path class="exterior-L-light" d="M190,487.861v11.547l12.5,7.217V495.078Z"/>
      <path class="top-light" d="M192.491,428.683l-2.5,1.443,12.5,7.217,2.5-1.443Z"/>
      <path class="top-light" d="M192.491,457.551l-2.5,1.443,12.5,7.217,2.5-1.444Z"/>
      <path class="top-light" d="M192.5,486.418l-2.5,1.443,12.5,7.217,2.491-1.443Z"/>
    </g>
    <path class="cls-2" d="M302.4955,541.266l-42.491-24.537v1.443l42.491,24.537Z"/>
    <path class="cls-2" d="M260.0045,526.832l42.491,24.537v1.444l-42.491-24.537Z"/>
    <g>
      <path class="exterior-L-light" d="M652.5,434.457,655,435.9v11.547l-2.5-1.443Z"/>
      <path class="exterior-L-light" d="M697.5,408.476l2.5,1.443v11.547l-2.5-1.443Z"/>
      <path class="top-light" d="M682.5,417.136l2.5,1.443L655,435.9l-2.5-1.443Z"/>
      <path class="top-light" d="M727.5,391.155l2.5,1.444-30,17.32-2.5-1.443Z"/>
      <path class="top-light" d="M697.5,411.363l-2.5-1.444-10,5.774,2.5,1.443Z"/>
      <path class="exterior-L-light" d="M687.5,428.683,685,427.24V415.693l2.5,1.443Z"/>
      <path class="exterior-R-light" d="M655,447.447l30-17.321V418.579L655,435.9Z"/>
      <path class="exterior-R-light" d="M687.5,428.683l10-5.773V411.363l-10,5.773Z"/>
      <path class="exterior-R-light" d="M700,421.466l30-17.32V392.599l-30,17.32Z"/>
    </g>
    <g>
      <path class="exterior-L-light" d="M745.009,395.485l2.5,1.444v11.547l-2.5-1.444Z"/>
      <path class="exterior-L-light" d="M745.009,424.353l2.5,1.443v11.547l-2.5-1.443Z"/>
      <path class="exterior-L-light" d="M745,453.22l2.5,1.444v11.547l-2.5-1.444Z"/>
      <path class="exterior-L-light" d="M732.509,515.286l-2.5-1.444V490.748l2.5,1.444Z"/>
      <path class="exterior-L-light" d="M730.009,476.314l2.5,1.444v11.547l-2.5-1.444Z"/>
      <path class="exterior-L-light" d="M730.009,461.881l2.5,1.443v11.547l-2.5-1.443Z"/>
      <path class="exterior-L-light" d="M730.009,447.447l2.5,1.443v11.547l-2.5-1.443Z"/>
      <path class="exterior-L-light" d="M730.009,433.013l2.5,1.444v11.546l-2.5-1.443Z"/>
      <path class="exterior-L-light" d="M730.009,418.579l2.5,1.444V431.57l-2.5-1.444Z"/>
      <path class="exterior-L-light" d="M730.009,404.146l2.5,1.443v11.547l-2.5-1.443Z"/>
      <path class="exterior-L-light" d="M730.009,389.712l2.5,1.443v11.547l-2.5-1.443Z"/>
      <path class="top-light" d="M760.009,372.391l2.5,1.444-30,17.32-2.5-1.443Z"/>
      <path class="top-light" d="M760.009,401.259l2.5,1.443-30,17.321-2.5-1.444Z"/>
      <path class="top-light" d="M760.009,430.126l2.5,1.444-30,17.32-2.5-1.443Z"/>
      <path class="top-light" d="M760.009,458.994l2.5,1.443L732.5,477.758l-2.491-1.444Z"/>
      <path class="top-light" d="M760.009,473.428l2.5,1.443-30,17.321-2.5-1.444Z"/>
      <path class="exterior-R-light" d="M732.509,402.702l30-17.32V373.835l-30,17.32Z"/>
      <path class="exterior-R-light" d="M732.509,431.57l30-17.321V402.702l-30,17.321Z"/>
      <path class="exterior-R-light" d="M732.509,460.437l30-17.32V431.57l-30,17.32Z"/>
      <path class="exterior-R-light" d="M732.5,489.305l30.009-17.321V460.437L732.5,477.758Z"/>
      <path class="exterior-R-light" d="M732.509,515.286l30-17.321V474.871l-30,17.321Z"/>
      <path class="exterior-R-light" d="M745.009,398.372v11.547l-12.5,7.217V405.589Z"/>
      <path class="exterior-R-light" d="M745.009,427.24v11.547l-12.5,7.217V434.457Z"/>
      <path class="exterior-R-light" d="M745,456.107v11.547l-12.5,7.217V463.324Z"/>
      <path class="exterior-R-light" d="M762.509,388.268v11.547l-14.9911,8.661V396.929Z"/>
      <path class="exterior-R-light" d="M762.509,417.136v11.547l-14.9911,8.66V425.796Z"/>
      <path class="exterior-R-light" d="M762.509,446.004v11.547l-15,8.66V454.664Z"/>
      <path class="top-light" d="M742.509,396.929l2.5,1.443-12.5,7.217-2.5-1.443Z"/>
      <path class="top-light" d="M742.509,425.796l2.5,1.444-12.5,7.217-2.5-1.444Z"/>
      <path class="top-light" d="M742.5,454.664l2.5,1.443-12.5,7.217-2.491-1.443Z"/>
      <path class="top-light" d="M760.009,386.825l2.5,1.443-14.9911,8.661-2.5089-1.444Z"/>
      <path class="top-light" d="M760.009,415.693l2.5,1.443-14.9911,8.66-2.5089-1.443Z"/>
      <path class="top-light" d="M760.009,444.56l2.5,1.444-15,8.66L745,453.22Z"/>
    </g>
    <g>
      <path class="exterior-L-light" d="M635,458.994l2.5,1.443v11.547l-2.5-1.443Z"/>
      <path class="exterior-L-light" d="M635,487.861l2.5,1.444v11.547l-2.5-1.444Z"/>
      <path class="exterior-L-light" d="M634.991,516.729l2.5,1.443v11.547l-2.5-1.443Z"/>
      <path class="exterior-L-light" d="M622.5,578.794l-2.5-1.443V554.257l2.5,1.443Z"/>
      <path class="exterior-L-light" d="M620,539.823l2.5,1.443v11.547L620,551.37Z"/>
      <path class="exterior-L-light" d="M620,525.389l2.5,1.444V538.38l-2.5-1.4441Z"/>
      <path class="exterior-L-light" d="M620,510.955l2.5,1.444v11.547l-2.5-1.444Z"/>
      <path class="exterior-L-light" d="M620,496.522l2.5,1.443v11.547l-2.5-1.443Z"/>
      <path class="exterior-L-light" d="M620,482.088l2.5,1.443v11.547l-2.5-1.443Z"/>
      <path class="exterior-L-light" d="M620,467.654l2.5,1.444v11.547l-2.5-1.444Z"/>
      <path class="exterior-L-light" d="M620,453.22l2.5,1.444v11.547l-2.5-1.444Z"/>
      <path class="top-light" d="M650,435.9l2.5,1.443-30,17.321L620,453.22Z"/>
      <path class="top-light" d="M650,464.767l2.5,1.444-30,17.32-2.5-1.443Z"/>
      <path class="top-light" d="M650,493.635l2.5,1.443-30,17.321-2.5-1.444Z"/>
      <path class="top-light" d="M650,522.502l2.5,1.444-30.009,17.32L620,539.823Z"/>
      <path class="top-light" d="M650,536.9359l2.5,1.4441-30,17.32-2.5-1.443Z"/>
      <path class="exterior-R-light" d="M622.5,466.211l30-17.321V437.343l-30,17.321Z"/>
      <path class="exterior-R-light" d="M622.5,495.078l30-17.32V466.211l-30,17.32Z"/>
      <path class="exterior-R-light" d="M622.5,523.946l30-17.321V495.078l-30,17.321Z"/>
      <path class="exterior-R-light" d="M622.491,552.813l30.009-17.32V523.946l-30.009,17.32Z"/>
      <path class="exterior-R-light" d="M622.5,578.794l30-17.32V538.38l-30,17.32Z"/>
      <path class="exterior-R-light" d="M635,461.881v11.547l-12.5,7.217V469.098Z"/>
      <path class="exterior-R-light" d="M635,490.748v11.547l-12.5,7.217V497.965Z"/>
      <path class="exterior-R-light" d="M634.991,519.616v11.547l-12.5,7.217V526.833Z"/>
      <path class="exterior-R-light" d="M652.5,451.777v11.547l-14.991,8.66V460.437Z"/>
      <path class="exterior-R-light" d="M652.5,480.645v11.547l-14.991,8.66V489.305Z"/>
      <path class="exterior-R-light" d="M652.5,509.512v11.547l-15,8.66V518.172Z"/>
      <path class="top-light" d="M632.5,460.437l2.5,1.444-12.5,7.217-2.5-1.444Z"/>
      <path class="top-light" d="M632.5,489.305l2.5,1.443-12.5,7.217-2.5-1.443Z"/>
      <path class="top-light" d="M632.491,518.172l2.5,1.444-12.5,7.217L620,525.389Z"/>
      <path class="top-light" d="M650,450.334l2.5,1.443-14.991,8.66L635,458.994Z"/>
      <path class="top-light" d="M650,479.201l2.5,1.444-14.991,8.66L635,487.861Z"/>
      <path class="top-light" d="M650,508.069l2.5,1.443-15,8.66-2.509-1.443Z"/>
    </g>
    <path class="exterior-L-light" d="M655.001,473.428l-2.501-1.444V448.89l2.501,1.444Z"/>
    <path class="exterior-R-light" d="M655.001,473.428h0c18.972-33.022,52.578-52.425,74.999-43.301h0V407.032l-74.999,43.302Z"/>
    <path class="top-light" d="M730,407.032l-2.5-1.443-75,43.301,2.5,1.444Z"/>
    <path class="top-light" d="M620,456.107l-2.5-1.443L580,476.314l2.5,1.444Z"/>
    <path class="exterior-L-light" d="M582.5,489.305l-2.5-1.444V476.314l2.5,1.444Z"/>
    <path class="exterior-R-light" d="M582.5,489.305,620,467.654V456.107l-37.5,21.651Z"/>
    <path id="anchor_10_438.787_750" class="top-prim" d="M10,190.526,440,438.787,760,254.035,330,5.774Z"/>
    <g>
      <path class="exterior-R-light" d="M317.5,500.852l-2.5,1.443v11.547l2.5-1.443Z"/>
      <path class="exterior-R-light" d="M317.5,529.719l-2.5,1.444V542.71l2.5-1.444Z"/>
      <path class="exterior-R-light" d="M317.509,558.5869l-2.5,1.443v11.5472l2.5-1.4432Z"/>
      <path class="exterior-R-light" d="M330,620.652l2.5-1.443V596.115l-2.5,1.443Z"/>
      <path class="exterior-R-light" d="M332.5,581.6809l-2.5,1.4432v11.547l2.5-1.443Z"/>
      <path class="exterior-R-light" d="M332.5,567.247,330,568.69v11.547l2.5-1.443Z"/>
      <path class="exterior-R-light" d="M332.5,552.813l-2.5,1.444v11.547l2.5-1.444Z"/>
      <path class="exterior-R-light" d="M332.5,538.38l-2.5,1.443V551.37l2.5-1.443Z"/>
      <path class="exterior-R-light" d="M332.5,523.946l-2.5,1.443v11.5469l2.5-1.4429Z"/>
      <path class="exterior-R-light" d="M332.5,509.512l-2.5,1.443v11.547l2.5-1.443Z"/>
      <path class="exterior-R-light" d="M332.5,495.078l-2.5,1.444v11.547l2.5-1.444Z"/>
      <path class="exterior-R-light" d="M410,539.823l-2.5,1.443v11.547l2.5-1.443Z"/>
      <path class="exterior-R-light" d="M365,513.842l-2.5,1.443v11.547l2.5-1.443Z"/>
      <path class="top-light" d="M302.5,477.758l-2.5,1.443,30,17.321,2.5-1.444Z"/>
      <path class="top-light" d="M380,522.502l-2.5,1.444,30,17.32,2.5-1.443Z"/>
      <path class="top-light" d="M335,496.522l-2.5,1.443,30,17.32,2.5-1.443Z"/>
      <path class="top-light" d="M365,516.729l2.5-1.443,10,5.773-2.5,1.443Z"/>
      <path class="exterior-R-light" d="M375,534.049l2.5-1.443V521.059l-2.5,1.443Z"/>
      <path class="top-light" d="M302.5,506.625l-2.5,1.444,30,17.32,2.5-1.443Z"/>
      <path class="top-light" d="M302.5,535.493l-2.5,1.4429,30,17.3211,2.5-1.444Z"/>
      <path class="top-light" d="M302.5,564.36l-2.5,1.444,30.009,17.32,2.491-1.4432Z"/>
      <path class="top-light" d="M302.5,578.794l-2.5,1.443,30,17.321,2.5-1.443Z"/>
      <path class="exterior-L-light" d="M330,508.069l-30-17.321V479.201l30,17.321Z"/>
      <path class="exterior-L-light" d="M407.5,552.813l-30-17.32V523.946l30,17.32Z"/>
      <path class="exterior-L-light" d="M375,534.049l-10-5.773V516.729l10,5.773Z"/>
      <path class="exterior-L-light" d="M362.5,526.832l-30-17.32V497.965l30,17.32Z"/>
      <path class="exterior-L-light" d="M330,536.9359l-30-17.32V508.069l30,17.32Z"/>
      <path class="exterior-L-light" d="M330,565.804l-30-17.3211v-11.547l30,17.3211Z"/>
      <path class="exterior-L-light" d="M330.009,594.6711,300,577.351V565.804l30.009,17.32Z"/>
      <path class="exterior-L-light" d="M330,620.652l-30-17.321V580.237l30,17.321Z"/>
      <path class="exterior-L-light" d="M317.5,503.739v11.547l12.5,7.216V510.955Z"/>
      <path class="exterior-L-light" d="M317.5,532.606v11.547L330,551.37V539.823Z"/>
      <path class="exterior-L-light" d="M317.509,561.474v11.547l12.5,7.216V568.69Z"/>
      <path class="exterior-L-light" d="M300,493.635v11.547l14.991,8.66V502.295Z"/>
      <path class="exterior-L-light" d="M300,522.502v11.547l14.991,8.661V531.163Z"/>
      <path class="exterior-L-light" d="M300,551.37v11.547l15,8.66V560.03Z"/>
      <path class="top-light" d="M320,502.295l-2.5,1.444,12.5,7.216,2.5-1.443Z"/>
      <path class="top-light" d="M320,531.163l-2.5,1.443,12.5,7.217,2.5-1.443Z"/>
      <path class="top-light" d="M320.009,560.03l-2.5,1.4441,12.5,7.216,2.491-1.443Z"/>
      <path class="top-light" d="M302.5,492.192l-2.5,1.443,14.991,8.66,2.509-1.443Z"/>
      <path class="top-light" d="M302.5,521.059l-2.5,1.443,14.991,8.661,2.509-1.444Z"/>
      <path class="top-light" d="M302.5,549.927,300,551.37l15,8.66,2.509-1.443Z"/>
    </g>
  </g>
</svg>
