<svg id="root" xmlns="http://www.w3.org/2000/svg" viewBox="0 0 280 282.9">
  <defs>
    <style>
      .cls-1 {
        fill: #f9c7c6;
      }

      .top-prim {
        fill: #dd8986;
      }

      .cls-2 {
        fill: #b9b9ba;
      }

      .exterior-R-prim {
        fill: #d15752;
      }

      .cls-3 {
        fill: #a1a0a0;
      }

      .top-dark {
        fill: #c67471;
      }

      .cls-4 {
        fill: #743130;
      }

      .cls-5 {
        fill: #474748;
      }

      .cls-6 {
        fill: #747575;
      }

      .cls-7 {
        fill: #d2d2d2;
      }

      .exterior-L-prim {
        fill: #74302f;
      }

      .exterior-R-dark {
        fill: #a64c49;
      }

      .cls-8 {
        fill: #512220;
      }

      .cls-9 {
        fill: #8a8a8a;
      }

      .cls-10 {
        fill: #fff3aa;
      }

      .cls-11 {
        fill: #dcd395;
      }

      .cls-12 {
        fill: #fdfaeb;
      }
    </style>
  </defs>
  <title>Artboard 76</title>
  <g id="root" data-name="root">
    <path id="Path-4" class="cls-1" d="M0,196.3l160-92.38L280,173.2,120,265.58Z"/>
    <path id="Path-5" class="top-prim" d="M10,196.3l110,63.5,150-86.6L170,115.47Z"/>
    <path id="Path-6" class="cls-2" d="M245,210.73l35-20.21V173.2l-35,20.21Z"/>
    <path id="Path-7" class="exterior-R-prim" d="M10,196.3l150-86.61v11.55L20,202.07Z"/>
    <path id="Path-8" class="cls-3" d="M275,176.09l-5-2.89V161.65l5-2.88Z"/>
    <path id="Path-9" class="cls-1" d="M0,161.65,160,69.28l120,69.28L120,230.94Z"/>
    <path id="Path-10" class="top-prim" d="M10,161.65l110,63.51,150-86.6L160,75.05Z"/>
    <path id="Path-11" class="cls-3" d="M270,138.56l-10,5.77-90-52V80.83Z"/>
    <path id="Path-12" class="exterior-R-prim" d="M10,161.65l150-86.6V86.6L20,167.43Z"/>
    <path id="Path-13" class="cls-1" d="M0,127,160,34.64l120,69.28L120,196.3Z"/>
    <path id="Path-14" class="top-prim" d="M125,280l120-69.28L212.5,192,125,242.48Z"/>
    <path id="Path-15" class="top-dark" d="M125,262.69v11.55l5,2.88,47.5-27.42-30-17.32L120,248.26,35,199.18,25,205Z"/>
    <path id="Path-16" class="exterior-R-prim" d="M120,213.62l160-92.38V103.92L120,196.3Z"/>
    <path id="Path-17" class="cls-4" d="M0,127l120,69.3v17.32L0,144.33Z"/>
    <path id="Path-18" class="cls-4" d="M0,161.65l120,69.29v17.32L0,179Z"/>
    <path id="Path-19" class="cls-4" d="M0,196.3l120,69.28V282.9L0,213.62Z"/>
    <path id="Path-20" class="cls-4" d="M5,216.5V95.26L0,92.37V213.62Z"/>
    <path id="Path-21" class="exterior-R-prim" d="M10,127V115.47l-5-2.89V129.9Z"/>
    <path id="Path-22" class="cls-3" d="M270,103.92V92.37l5-2.88v17.32Z"/>
    <path id="Path-23" class="exterior-R-prim" d="M5,164.54l5-2.89V150.11l-5-2.89Z"/>
    <path id="Path-24" class="exterior-R-prim" d="M5,199.18l5-2.88V184.75l-5-2.89Z"/>
    <path id="Path-25" class="cls-3" d="M275,141.45l-5-2.89V127l5-2.88Z"/>
    <path id="Path-26" class="cls-2" d="M275,193.41V72.17l5-2.89V190.52Z"/>
    <path id="Path-27" class="top-prim" d="M10,127l110,63.51,150-86.6L160,40.41Z"/>
    <path id="Path-28" class="cls-3" d="M270,103.92l-10,5.77-90-52V46.18Z"/>
    <path id="Path-29" class="exterior-R-prim" d="M10,127,160,40.4V52L20,132.79Z"/>
    <path id="anchor_0_161.65_280" class="top-prim" d="M0,92.37,160,0,280,69.28,120,161.65Z"/>
    <path id="Path-30" class="exterior-R-prim" d="M120,179,280,86.6V69.28L120,161.65Z"/>
    <path id="Path-31" class="cls-4" d="M0,92.37l120,69.28V179L0,109.69Z"/>
    <path id="Path-32" class="cls-4" d="M245,124.13l-5-2.89-15,8.66-10-5.77,30-17.32Z"/>
    <path id="Path-33" class="cls-4" d="M245,158.77l-5-2.89-15,8.66-10-5.77,30-17.32Z"/>
    <path id="Path-34" class="cls-4" d="M245,210.73l-30-17.32,30-17.32Z"/>
    <path id="Path-35" class="cls-4" d="M120,282.9V161.65l-5-2.88V280Z"/>
    <path id="Path-36" class="cls-4" d="M62.5,249.7V128.46l-5-2.89V246.81Z"/>
    <path id="Path-37" class="cls-4" d="M182.5,160.21l-5-2.89V145.78l5-2.89Z"/>
    <path id="Path-38" class="cls-4" d="M182.5,177.53l-5,2.89V192l5,2.88Z"/>
    <path id="Path-39" class="exterior-R-prim" d="M120,282.9V161.65l5-2.88V280Z"/>
    <path id="Path-40" class="cls-2" d="M245,210.73V89.49l5-2.89V207.84Z"/>
    <path id="Path-41" class="exterior-R-prim" d="M280,69.28,245,89.49V210.73l35-20.21Z"/>
    <path id="Path-42" class="cls-5" d="M257.5,171.76l10-5.78v11.55l-10,5.78Z"/>
    <path id="Path-43" class="cls-5" d="M257.5,137.12l10-5.78v11.55l-10,5.77Z"/>
    <path id="Path-44" class="cls-5" d="M257.5,102.48l10-5.78v11.55l-10,5.77Z"/>
    <path id="Path-45" class="cls-4" d="M267.5,177.53l-2.5-1.44v-8.66l2.5-1.45Z"/>
    <path id="Path-46" class="cls-4" d="M267.5,142.89l-2.5-1.44v-8.66l2.5-1.45Z"/>
    <path id="Path-47" class="cls-4" d="M267.5,108.25l-2.5-1.44V98.15l2.5-1.45Z"/>
    <path id="Path-48" class="top-light" d="M256.25,114.75l1.25-.73v-2.88l7.5-4.33,2.5,1.44,1.25-.72,1.25.72-12.5,7.22Z"/>
    <path id="Path-49" class="top-light" d="M256.25,149.39l1.25-.73v-2.88l7.5-4.33,2.5,1.44,1.25-.72,1.25.72-12.5,7.22Z"/>
    <path id="Path-50" class="top-light" d="M256.25,184l1.25-.72v-2.89l7.5-4.33,2.5,1.44,1.25-.72,1.25.72-12.5,7.22Z"/>
    <path id="Path-51" class="cls-6" d="M235,158.77l-10,5.77-2.5-1.44v-8.66l12.5-7.22Z"/>
    <path id="Path-52" class="cls-6" d="M235,124.13l-10,5.77-2.5-1.44V119.8l12.5-7.22Z"/>
    <path id="Path-53" class="cls-6" d="M235,205l-12.5-7.22v-8.66L235,181.9Z"/>
    <path id="Path-54" class="top-dark" d="M220,164.54l5-2.89,2.5,1.45-5,2.88Z"/>
    <path id="Path-55" class="top-dark" d="M220,129.9l5-2.89,2.5,1.45-5,2.88Z"/>
    <path id="Path-56" class="top-dark" d="M215,202.07l10-5.77,10,5.77V205l-7.5,4.33Z"/>
    <path id="Path-57" class="exterior-R-prim" d="M222.5,154.44,225,153v8.66l-2.5,1.45Z"/>
    <path id="Path-58" class="exterior-R-prim" d="M222.5,119.8l2.5-1.45V127l-2.5,1.45Z"/>
    <path id="Path-59" class="exterior-R-prim" d="M222.5,189.08l2.5-1.44v8.66l-2.5,1.44Z"/>
    <path id="Path-60" class="exterior-R-prim" d="M67.5,160.21V148.66l-5-2.88V163.1Z"/>
    <path id="Path-61" class="exterior-R-prim" d="M62.5,197.74l5-2.89V183.31l-5-2.89Z"/>
    <path id="Path-62" class="exterior-R-prim" d="M62.5,232.38l5-2.89V218l-5-2.89Z"/>
    <path id="Path-66" class="cls-7" d="M228.75,198.46l2.5,1.44V184l-2.5,1.44Z"/>
    <path id="Path-67" class="exterior-L-prim" d="M235,181.86,231.25,184v15.9l3.75,2.17Z"/>
    <path id="Path-68" class="cls-3" d="M228.75,198.46l2.5-1.44v-4.33l3.75-2.17v11.55Z"/>
    <path id="Path-69" class="top-dark" d="M192.5,241,240,213.62,210,196.3l-22.5,13-25,14.43Z"/>
    <path id="Path-70" class="exterior-R-dark" d="M125,164.54l5-2.89v5.78l-5,2.88Z"/>
    <path id="Path-71" class="cls-8" d="M115,164.54l-5-2.89v5.78l5,2.88Z"/>
    <path id="Path-72" class="cls-4" d="M256.25,114.75v2.88l1.25.72v-2.88Z"/>
    <path id="Path-73" class="cls-4" d="M256.25,149.39v2.88l1.25.72v-2.88Z"/>
    <path id="Path-74" class="cls-4" d="M256.25,184v2.88l1.25.73v-2.89Z"/>
    <path id="Path-75" class="exterior-R-dark" d="M270,108.25v2.89l-12.5,7.21v-2.88Z"/>
    <path id="Path-76" class="exterior-R-dark" d="M270,142.89v2.89L257.5,153v-2.88Z"/>
    <path id="Path-77" class="exterior-R-dark" d="M270,177.53v2.89l-12.5,7.22v-2.89Z"/>
    <path id="Path-78" class="top-light" d="M248.37,185.69l3.26-1.88c.48-.28.87-.06.87.5V191a1.92,1.92,0,0,1-.87,1.5l-3.26,1.88c-.48.28-.87.05-.87-.5v-6.66A1.92,1.92,0,0,1,248.37,185.69Z"/>
    <path id="Path-79" class="cls-1" d="M241.63,185.69l-3.26-1.88c-.48-.28-.87-.06-.87.5V191a1.92,1.92,0,0,0,.87,1.5l3.26,1.88c.48.28.87.05.87-.5v-6.66A1.92,1.92,0,0,0,241.63,185.69Z"/>
    <path id="Path-80" class="cls-9" d="M175,242.48l-5-2.88V225.16l5,2.89Z"/>
    <path id="Path-81" class="cls-9" d="M166.25,237.43l-5-2.88V220.11l5,2.89Z"/>
    <path id="Path-82" class="cls-2" d="M177.5,241V226.61l-2.5,1.44v14.43Z"/>
    <path id="Path-83" class="cls-2" d="M168.75,236V221.55l-2.5,1.45v14.43Z"/>
    <path id="Path-84" class="cls-7" d="M170,225.16l2.5-1.44,5,2.89-2.5,1.44Z"/>
    <path id="Path-85" class="cls-7" d="M161.25,220.11l2.5-1.44,5,2.88-2.5,1.45Z"/>
    <path id="Path-86" class="exterior-R-prim" d="M120,248.26l160-92.38V138.56L120,230.94Z"/>
    <path id="Path-87" class="cls-10" d="M172.5,230.94,135,252.59v-1.45l37.5-21.65Z"/>
    <path id="Path-88" class="cls-10" d="M205,205l-36.25,20.92v-1.44L205,203.51Z"/>
    <path id="Path-89" class="cls-11" d="M133.75,250.42l1.25.72v1.45l-1.25-.72Z"/>
    <path id="Path-90" class="cls-12" d="M171.25,228.77l1.25.72L135,251.14l-1.25-.72Z"/>
    <path id="Path-91" class="cls-12" d="M203.75,202.79l1.25.72-36.25,20.93V223Z"/>
    <path id="Path-92" class="cls-4" d="M182.5,212.17l-5,2.89v28.87l5,2.88Z"/>
    <path id="Path-93" class="exterior-R-prim" d="M182.5,246.81V125.57l5-2.89V243.93Z"/>
    <path id="Path-94" class="cls-1" d="M183.37,223.22l3.26-1.89c.48-.27.87-.05.87.5v6.66a1.89,1.89,0,0,1-.87,1.5l-3.26,1.89c-.48.28-.87.05-.87-.5v-6.66A1.92,1.92,0,0,1,183.37,223.22Z"/>
  </g>
</svg>
