<svg id="Layer_1" data-name="Layer 1" xmlns="http://www.w3.org/2000/svg" viewBox="0 0 280.0001 311.7692">
  <defs>
    <style>
      .curtain-R-prim-light {
        fill: #2b95ac;
      }

      .exterior-R-prim {
        fill: #d15752;
      }

      .exterior-L-prim {
        fill: #73302f;
      }

      .curtain-R-prim-dark {
        fill: #21788c;
      }

      .top-light {
        fill: #fac7c6;
      }

      .top-prim {
        fill: #dd8987;
      }

      .cls-1 {
        fill: #dbc8b9;
      }

      .curtain-L-prim-dark {
        fill: #11424d;
      }

      .cls-2 {
        fill: #d5bead;
      }

      .cls-3 {
        fill: #7b7d83;
      }

      .cls-4 {
        fill: #5c6067;
      }

      .cls-5 {
        fill: #0a0a0a;
      }

      .cls-6 {
        fill: #2e3031;
      }

      .curtain-L-prim-light {
        fill: #196273;
      }
    </style>
  </defs>
  <title>Artboard 50</title>
  <g id="root">
    <path id="windows-L4" class="curtain-R-prim-light" d="M127.5,255.3643V281.345l-30,17.32V272.6847Z"/>
    <path id="body-L1" class="exterior-R-prim" d="M245,233.8269l5,2.8867,5-2.8867v-23.094H245Z"/>
    <path id="body-R2" class="exterior-L-prim" d="M245,233.8269V213.62l5-2.8867v25.9807Z"/>
    <path id="Path" class="curtain-R-prim-dark" d="M105,294.3354V271.2415l7.5-4.33v23.094Z"/>
    <path id="body-L1-2" data-name="body-L1" class="exterior-R-prim" d="M212.5,252.5908l5,2.8867,5-2.8868v-23.094h-10Z"/>
    <path id="body-R2-2" data-name="body-R2" class="exterior-L-prim" d="M212.5,252.5907V232.3835l5-2.8868v25.9808Z"/>
    <path id="body-L1-3" data-name="body-L1" class="exterior-R-prim" d="M180,271.3547l5,2.8866,5-2.8867v-23.094H180Z"/>
    <path id="body-R2-3" data-name="body-R2" class="exterior-L-prim" d="M180,271.3546v-20.32l5-2.8867v26.0938Z"/>
    <path id="body-L1-4" data-name="body-L1" class="exterior-R-prim" d="M147.5,290.1187l5,2.8865,5-2.8867v-29.094l-10,6Z"/>
    <path id="body-R2-4" data-name="body-R2" class="exterior-L-prim" d="M147.5,290.1185v-23.32l5-2.8867v29.0939Z"/>
    <path id="body-L1-5" data-name="body-L1" class="exterior-R-prim" d="M125,308.8824V280.0149l-5,2.8867-5-2.8867v28.8675l5,2.8868Z"/>
    <path id="body-R2-5" data-name="body-R2" class="exterior-L-prim" d="M120,311.7692l-5-2.8868V280.0149l5,2.8867Z"/>
    <path id="top-T1" class="top-light" d="M280,92.376,160,23.094,0,115.47l120,69.282Z"/>
    <path id="top-T2" class="top-prim" d="M120,178.9786,10,115.47,160,28.8676,270,92.376Z"/>
    <path id="Path-2" data-name="Path" class="exterior-R-prim" d="M15,118.3569,10,115.47,150,34.641v5.7736Z"/>
    <path id="Path-3" data-name="Path" class="exterior-L-prim" d="M270,92.376l-5,2.8868L160,34.641V28.8676Z"/>
    <path id="Path-4" data-name="Path" class="cls-1" d="M235,95.2628,120,161.6581l15,8.66,115-66.3953Z"/>
    <path id="body-L1-6" data-name="body-L1" class="exterior-R-prim" d="M250,98.15l5-2.8867v-17.32l-5,2.8867Z"/>
    <path id="body-R2-6" data-name="body-R2" class="exterior-L-prim" d="M245,95.2628v-17.32l5,2.8867V98.15Z"/>
    <path id="body-L1-7" data-name="body-L1" class="exterior-L-prim" d="M30,121.2435l-5-2.8867v-17.32l5,2.8866Z"/>
    <path id="body-R2-7" data-name="body-R2" class="exterior-R-prim" d="M35,118.3568v-17.32l-5,2.8866v17.32Z"/>
    <path id="windows-R1" class="curtain-L-prim-dark" d="M95,297.3354,0,242.4872V213.62l95,54.8483Z"/>
    <path id="Path-5" data-name="Path" class="cls-2" d="M210,127.0172l-5-2.8868-5,2.8868,5,2.8869Z"/>
    <path id="Path-6" data-name="Path" class="cls-2" d="M220,121.2438l-5-2.8869-5,2.8869,5,2.8866Z"/>
    <path id="Path-7" data-name="Path" class="cls-2" d="M170,150.1113l-5-2.8868-5,2.8868,5,2.8867Z"/>
    <path id="Path-8" data-name="Path" class="cls-2" d="M150,161.6582l-5-2.8867-5,2.8867,5,2.8867Z"/>
    <path id="Path-9" data-name="Path" class="cls-2" d="M140,167.4316l-5-2.8868-5,2.8868,5,2.8869Z"/>
    <path id="Path-10" data-name="Path" class="cls-2" d="M240,109.6968l-5-2.8869-5,2.8869,5,2.8866Z"/>
    <path id="Path-11" data-name="Path" class="cls-2" d="M190,138.5642l-5-2.8867-5,2.8867,5,2.8868Z"/>
    <path id="Path-12" data-name="Path" class="cls-2" d="M250,103.9231l-5-2.8867-5,2.8867,5,2.8868Z"/>
    <path id="Path-13" data-name="Path" class="cls-2" d="M200,132.7908l-5-2.8869-5,2.8869,5,2.8867Z"/>
    <path id="Path-14" data-name="Path" class="cls-2" d="M230,115.47l-5-2.8867-5,2.8867,5,2.8868Z"/>
    <path id="Path-15" data-name="Path" class="cls-2" d="M180,144.3378l-5-2.8869-5,2.8869,5,2.8867Z"/>
    <path id="Path-16" data-name="Path" class="cls-2" d="M160,155.8846l-5-2.8868-5,2.8868,5,2.8869Z"/>
    <path id="Path-17" data-name="Path" class="cls-2" d="M200,127.0172l-5-2.8868-5,2.8868,5,2.8867Z"/>
    <path id="Path-18" data-name="Path" class="cls-2" d="M210,121.2438l-5-2.8869-5,2.8869,5,2.8866Z"/>
    <path id="Path-19" data-name="Path" class="cls-2" d="M160,150.1112l-5-2.8867-5,2.8867,5,2.8868Z"/>
    <path id="Path-20" data-name="Path" class="cls-2" d="M140,161.6581l-5-2.8866-5,2.8866,5,2.8868Z"/>
    <path id="Path-21" data-name="Path" class="cls-2" d="M230,109.6967l-5-2.8868-5,2.8868,5,2.8867Z"/>
    <path id="Path-22" data-name="Path" class="cls-2" d="M180,138.5642l-5-2.8868-5,2.8868,5,2.8868Z"/>
    <path id="Path-23" data-name="Path" class="cls-2" d="M240,103.9231l-5-2.8867-5,2.8867,5,2.8868Z"/>
    <path id="Path-24" data-name="Path" class="cls-2" d="M190,132.7908l-5-2.8869-5,2.8869,5,2.8866Z"/>
    <path id="Path-25" data-name="Path" class="cls-2" d="M220,115.47l-5-2.8867-5,2.8867,5,2.8868Z"/>
    <path id="Path-26" data-name="Path" class="cls-2" d="M170,144.3378l-5-2.8869-5,2.8869,5,2.8867Z"/>
    <path id="Path-27" data-name="Path" class="cls-2" d="M150,155.8846l-5-2.8868-5,2.8868,5,2.8868Z"/>
    <path id="Path-28" data-name="Path" class="cls-2" d="M200,121.2438l-5-2.8869-5,2.8869,5,2.8866Z"/>
    <path id="Path-29" data-name="Path" class="cls-2" d="M210,115.47l-5-2.8868-5,2.8868,5,2.8867Z"/>
    <path id="Path-30" data-name="Path" class="cls-2" d="M160,144.3378l-5-2.8869-5,2.8869,5,2.8867Z"/>
    <path id="Path-31" data-name="Path" class="cls-2" d="M140,155.8846l-5-2.8867-5,2.8867,5,2.8869Z"/>
    <path id="Path-32" data-name="Path" class="cls-2" d="M130,161.6581l-5-2.8867-5,2.8867,5,2.8867Z"/>
    <path id="Path-33" data-name="Path" class="cls-2" d="M230,103.9231l-5-2.8867-5,2.8867,5,2.8868Z"/>
    <path id="Path-34" data-name="Path" class="cls-2" d="M180,132.7908l-5-2.8869-5,2.8869,5,2.8866Z"/>
    <path id="Path-35" data-name="Path" class="cls-2" d="M240,98.15l-5-2.8869L230,98.15l5,2.8867Z"/>
    <path id="Path-36" data-name="Path" class="cls-2" d="M190,127.0172l-5-2.8868-5,2.8868,5,2.8867Z"/>
    <path id="Path-37" data-name="Path" class="cls-2" d="M220,109.6967l-5-2.8869-5,2.8869,5,2.8867Z"/>
    <path id="Path-38" data-name="Path" class="cls-2" d="M170,138.5642l-5-2.8868-5,2.8868,5,2.8867Z"/>
    <path id="Path-39" data-name="Path" class="cls-2" d="M150,150.1111l-5-2.8867-5,2.8867,5,2.8867Z"/>
    <path id="windows-L4-2" data-name="windows-L4" class="cls-3" d="M280,92.376,120,184.7521V288.6752l160-92.3761Z"/>
    <path id="windows-L1" class="cls-4" d="M120,207.8461v-11.547l160-92.376V115.47Z"/>
    <path id="windows-L1-2" data-name="windows-L1" class="cls-4" d="M120,254.0342v-11.547l160-92.3761v11.547Z"/>
    <path id="windows-L1-3" data-name="windows-L1" class="cls-4" d="M120,230.94v-11.547l160-92.3761v11.547Z"/>
    <path id="windows-L1-4" data-name="windows-L1" class="cls-4" d="M120,277.1282v-11.547l160-92.3761v11.547Z"/>
    <path id="windows-R1-2" data-name="windows-R1" class="cls-5" d="M120,184.7521V288.6752L0,219.3932V115.47Z"/>
    <path id="windows-R4" class="cls-6" d="M120,196.2991,0,127.0171V115.47l120,69.282Z"/>
    <path id="windows-R4-2" data-name="windows-R4" class="cls-6" d="M120,219.3932,0,150.1111v-11.547l120,69.282Z"/>
    <path id="windows-R4-3" data-name="windows-R4" class="cls-6" d="M120,242.4872,0,173.2051v-11.547L120,230.94Z"/>
    <path id="windows-R4-4" data-name="windows-R4" class="cls-6" d="M120,265.5812,0,196.2991v-11.547l120,69.2821Z"/>
    <path id="windows-R4-5" data-name="windows-R4" class="cls-6" d="M120,288.6752,0,219.3932v-11.547l120,69.282Z"/>
    <path id="body-L1-8" data-name="body-L1" class="exterior-R-prim" d="M217.5,116.9135l5-2.8868V96.48l-5,2.8868Z"/>
    <path id="body-R2-8" data-name="body-R2" class="exterior-L-prim" d="M212.5,114.0267V99.2532l5,3.1133v14.547Z"/>
    <path id="body-L1-9" data-name="body-L1" class="exterior-R-prim" d="M185,135.6774l5-2.8868V115.47l-5,2.8867Z"/>
    <path id="body-R2-9" data-name="body-R2" class="exterior-L-prim" d="M180,132.7906V115.47l5,2.8867v17.3206Z"/>
    <path id="body-L1-10" data-name="body-L1" class="exterior-R-prim" d="M152.5,154.4413l5-2.8867v-17.547l-5,2.8867Z"/>
    <path id="body-R2-10" data-name="body-R2" class="exterior-L-prim" d="M147.5,151.5546V136.781l5,3.1133v14.547Z"/>
    <path id="body-R2-11" data-name="body-R2" class="exterior-L-prim" d="M120,173.2051l-5-2.8866V152.9979l5,2.8867Z"/>
    <path id="body-L1-11" data-name="body-L1" class="exterior-R-prim" d="M125,170.3185V152.9979l-5,2.8867v17.32Z"/>
    <path id="body-R2-12" data-name="body-R2" class="exterior-L-prim" d="M90,155.8846l-5-2.8868v-17.32l5,2.8867Z"/>
    <path id="body-L1-12" data-name="body-L1" class="exterior-R-prim" d="M95,152.9978v-11.547l-5-2.8867v17.3205Z"/>
    <path id="body-R2-13" data-name="body-R2" class="exterior-L-prim" d="M60,138.5641l-5-2.8867V118.3568l5,2.8869Z"/>
    <path id="body-L1-13" data-name="body-L1" class="exterior-R-prim" d="M65,135.6774V118.3568l-5,2.8869v17.32Z"/>
    <path id="anchor_0_161.658_280" class="top-light" d="M0,92.3761,160,0,280,69.2821l-160,92.376Z"/>
    <path id="Path-40" data-name="Path" class="curtain-L-prim-light" d="M22.5,255.4774v-23.094l-7.5-4.33v23.094Z"/>
    <path id="Path-41" data-name="Path" class="curtain-L-prim-light" d="M52.5,272.798V249.704l-7.5-4.33v23.094Z"/>
    <path id="Path-42" data-name="Path" class="curtain-L-prim-light" d="M82.5,290.1184v-23.094l-7.5-4.33v23.094Z"/>
    <path id="Path-43" data-name="Path" class="curtain-L-prim-light" d="M7.5,246.8173v-23.094l-7.5-4.33v23.094Z"/>
    <path id="Path-44" data-name="Path" class="curtain-L-prim-light" d="M37.5,264.1377v-23.094l-7.5-4.33v23.094Z"/>
    <path id="Path-45" data-name="Path" class="curtain-L-prim-light" d="M67.5,281.4583v-23.094l-7.5-4.33v23.094Z"/>
    <path id="Path-46" data-name="Path" class="curtain-L-prim-light" d="M97.5,298.7787v-23.094l-7.5-4.33v23.094Z"/>
  </g>
</svg>
