<svg id="Layer_1" data-name="Layer 1" xmlns="http://www.w3.org/2000/svg" viewBox="0 0 305.0599 287.2317">
  <defs>
    <style>
      .top-light {
        fill: #f9c7c6;
      }

      .exterior-R-prim {
        fill: #d15752;
      }

      .exterior-L-light {
        fill: #8a3a37;
      }

      .window-L-prim {
        fill: #4e3b24;
      }

      .concrete-top {
        fill: #e8e7e7;
      }

      .exterior-L-prim {
        fill: #74302f;
      }

      .top-prim {
        fill: #dd8986;
      }

      .cls-1 {
        fill: #8a8a8a;
      }

      .exterior-R-dark {
        fill: #a64c49;
      }

      .window-R-prim {
        fill: #bc9563;
      }

      .cls-2 {
        fill: #767576;
      }

      .cls-3 {
        fill: #5e5e5e;
      }

      .cls-4 {
        fill: #6a6a6a;
      }

      .cls-5 {
        fill: #a2a2a2;
      }

      .cls-6 {
        fill: #8e8e8e;
      }

      .cls-7 {
        fill: #6c6c6c;
      }

      .cls-8 {
        fill: #d0d0d0;
      }

      .cls-9 {
        fill: none;
      }

      .cls-10 {
        fill: #fff;
      }

      .cls-11 {
        fill: #e27c39;
      }

      .cls-12 {
        fill: #f1b342;
      }

      .cls-13 {
        fill: #4092ca;
      }

      .cls-14 {
        fill: #2e2e2e;
      }

      .cls-15 {
        fill: #d1d1d1;
      }
    </style>
  </defs>
  <title>Artboard 84</title>
  <g id="root">
    <path id="Path" class="top-light" d="M0,125.5736,202.5,8.66,305,67.8386,102.5,184.7521Z"/>
    <path id="Path-2" data-name="Path" class="exterior-R-prim" d="M102.5,184.7521V285.7883l202.56-116.827L305,67.8386Z"/>
    <path id="Path-3" data-name="Path" class="exterior-L-light" d="M0,125.5736l102.5,59.1785V285.7883L0,226.61Z"/>
    <path id="Path-4" data-name="Path" class="window-L-prim" d="M12.5,219.3931l75,43.3012v8.66l-75-43.3012Z"/>
    <path id="Path-5" data-name="Path" class="window-L-prim" d="M95,278.5714v-2.8867l5,2.8867v2.8869Z"/>
    <path id="Path-6" data-name="Path" class="window-L-prim" d="M5,226.61v-2.8867l5,2.8867v2.8866Z"/>
    <path id="Path-7" data-name="Path" class="concrete-top" d="M90,281.4583l5-2.8869,5,2.8869v5.7734Z"/>
    <path id="Path-8" data-name="Path" class="exterior-L-prim" d="M10,226.61l-7.5-4.33v5.7735L0,226.61V212.1761l15,8.66V235.27l-5-2.8868Z"/>
    <path id="Path-9" data-name="Path" class="concrete-top" d="M0,229.4966,5,226.61l5,2.8866V235.27Z"/>
    <path id="Path-10" data-name="Path" class="concrete-top" d="M7.5,239.6,20,232.3835l67.5,38.971v14.4338Z"/>
    <path id="Path-11" data-name="Path" class="exterior-R-prim" d="M15,235.27l7.5-4.33v-5.7735l-7.5-4.33Z"/>
    <path id="Path-12" data-name="Path" class="top-light" d="M15,220.8364l-7.5,4.33L80,267.0245l7.5-4.33Z"/>
    <path id="Path-13" data-name="Path" class="exterior-R-prim" d="M80,267.0244v2.8869l7.5-4.33v-2.8869Z"/>
    <path id="Path-14" data-name="Path" class="exterior-L-prim" d="M7.5,225.1666v2.8867L80,269.9113v-2.8868Z"/>
    <path id="Path-15" data-name="Path" class="exterior-L-prim" d="M12.5,225.1665l2.5-1.4434,7.5,4.33L20,229.4967Z"/>
    <path id="Path-16" data-name="Path" class="exterior-L-prim" d="M22.5,230.94l2.5-1.4436,7.5,4.33L30,235.27Z"/>
    <path id="Path-17" data-name="Path" class="exterior-L-prim" d="M32.5,236.7136,35,235.27l7.5,4.33L40,241.0438Z"/>
    <path id="Path-18" data-name="Path" class="exterior-L-prim" d="M42.5,242.4872l2.5-1.4434,7.5,4.33L50,246.8174Z"/>
    <path id="Path-19" data-name="Path" class="exterior-L-prim" d="M52.5,248.2607l2.5-1.4433,7.5,4.33L60,252.5909Z"/>
    <path id="Path-20" data-name="Path" class="exterior-L-prim" d="M62.5,254.0342l2.5-1.4435,7.5,4.33L70,258.3643Z"/>
    <path id="Path-21" data-name="Path" class="exterior-L-prim" d="M72.5,259.8076l2.5-1.4433,7.5,4.33L80,264.1378Z"/>
    <path id="Path-22" data-name="Path" class="exterior-R-prim" d="M15,223.7231V226.61l-2.5-1.4435Z"/>
    <path id="Path-23" data-name="Path" class="exterior-R-prim" d="M25,229.4966v2.8869L22.5,230.94Z"/>
    <path id="Path-24" data-name="Path" class="exterior-R-prim" d="M35,235.27v2.8867l-2.5-1.4434Z"/>
    <path id="Path-25" data-name="Path" class="exterior-R-prim" d="M45,241.0438v2.8869l-2.5-1.4435Z"/>
    <path id="Path-26" data-name="Path" class="exterior-R-prim" d="M55,246.8174v2.8867l-2.5-1.4434Z"/>
    <path id="Path-27" data-name="Path" class="exterior-R-prim" d="M65,252.5907v2.8868l-2.5-1.4433Z"/>
    <path id="Path-28" data-name="Path" class="exterior-R-prim" d="M75,258.3643v2.8868l-2.5-1.4435Z"/>
    <path id="Path-29" data-name="Path" class="top-prim" d="M5,125.5736l97.5,56.2918L205,122.6869l-95-57.735Z"/>
    <path id="Path-30" data-name="Path" class="exterior-R-prim" d="M110,64.9519V79.3857L17.5,132.7905,5,125.5736Z"/>
    <path id="Path-31" data-name="Path" class="exterior-L-light" d="M32.5,127.0171v14.4337l65,37.5278V164.5448Z"/>
    <path id="Path-32" data-name="Path" class="top-light" d="M60,85.1592,207.5,0,305,56.2916,157.5,141.4509Z"/>
    <path id="Path-33" data-name="Path" class="cls-1" d="M87.5,72.1688l90,54.8483L300,56.2916,207.5,2.8867Z"/>
    <path id="Path-34" data-name="Path" class="exterior-L-light" d="M207.5,2.8867V5.7736l90,51.9614,2.5-1.4434Z"/>
    <path id="Path-35" data-name="Path" class="exterior-R-prim" d="M87.5,72.1688,90,73.6122,207.5,5.7736V2.8867Z"/>
    <path id="Path-36" data-name="Path" class="exterior-R-prim" d="M157.5,164.5449V141.4508L305,56.2916l.06,24.7189Z"/>
    <path id="Path-37" data-name="Path" class="exterior-L-prim" d="M0,125.5736l102.5,59.1785v14.4337L0,140.0074Z"/>
    <path id="Path-38" data-name="Path" class="exterior-L-prim" d="M0,154.4412,102.5,213.62v14.4337L0,168.8749Z"/>
    <path id="Path-39" data-name="Path" class="exterior-L-prim" d="M0,183.3086l102.5,59.1785v14.4338L0,197.7424Z"/>
    <path id="Path-40" data-name="Path" class="exterior-R-dark" d="M102.5,199.1858,305,82.2723V67.8386L102.5,184.7521Z"/>
    <path id="Path-41" data-name="Path" class="exterior-R-dark" d="M102.5,227.82,305,110.9065V96.4728L102.5,213.3862Z"/>
    <path id="Path-42" data-name="Path" class="exterior-R-dark" d="M102.5,256.9209,305,140.0074V125.5736L102.5,242.4872Z"/>
    <path id="Path-43" data-name="Path" class="exterior-R-dark" d="M102.5,285.7883,305,168.8749V154.4412L102.5,271.3545Z"/>
    <path id="Path-44" data-name="Path" class="exterior-L-prim" d="M100,278.5714l-7.5-4.33v5.7736l-5-2.8867V262.6943l15,8.66v14.4338l-2.5-1.4432Z"/>
    <path id="Path-45" data-name="Path" class="exterior-R-prim" d="M92.5,280.0149l2.5-1.4435v-2.8867l-2.5-1.4434Z"/>
    <path id="Path-46" data-name="Path" class="exterior-R-prim" d="M2.5,228.0533,5,226.61v-2.8867L2.5,222.28Z"/>
    <path id="Path-47" data-name="Path" class="concrete-top" d="M172.5,230.94l12.5-7.2169,15,8.66-27.5,15.8771Z"/>
    <path id="Path-48" data-name="Path" class="concrete-top" d="M142.5,248.2605l12.5-7.2168,15,8.66-27.5,15.8771Z"/>
    <path id="Path-49" data-name="Path" class="exterior-L-prim" d="M197.5,230.94,185,223.7233l12.5-7.217Z"/>
    <path id="Path-50" data-name="Path" class="exterior-L-prim" d="M167.5,248.2606V233.8268L155,241.0437Z"/>
    <path id="Path-51" data-name="Path" class="window-R-prim" d="M207.5,213.62v8.66l75-43.3013v-8.66Z"/>
    <path id="Path-52" data-name="Path" class="window-R-prim" d="M207.5,199.1858v8.66l75-43.3013v-8.66Z"/>
    <path id="Path-53" data-name="Path" class="top-light" d="M285,165.9882l-2.5-1.4434-75,43.3013v2.8867Z"/>
    <path id="Path-54" data-name="Path" class="concrete-top" d="M207.5,222.28l75-43.3013,5,2.8869-80,46.1879Z"/>
    <path id="Path-55" data-name="Path" class="exterior-L-prim" d="M282.5,170.3184l2.5-1.4435V180.422l-2.5-1.4435Z"/>
    <path id="Path-56" data-name="Path" class="exterior-L-prim" d="M282.5,164.5448v-8.66l2.5-1.4432v11.5469Z"/>
    <path id="Path-57" data-name="Path" class="exterior-L-light" d="M157.62,152.9977v-11.547L60.12,85.1591v23.0941l85,49.0747,10-5.7736Z"/>
    <path id="Path-58" data-name="Path" class="exterior-R-prim" d="M142.5,138.5641v17.3205L100,180.422l-2.5-1.4434V164.5448Z"/>
    <path id="Path-59" data-name="Path" class="top-light" d="M32.5,127.0171l45-25.9807,65,37.5278-45,25.9806Z"/>
    <path id="Path-60" data-name="Path" class="top-prim" d="M40,128.46,77.5,106.81,135,140.0076l-37.5,21.65Z"/>
    <path id="Path-61" data-name="Path" class="exterior-R-prim" d="M37.5,127.0171l40-23.094V106.81L40,128.46Z"/>
    <path id="Path-62" data-name="Path" class="exterior-L-light" d="M137.5,138.5641l-2.5,1.4433L77.5,106.81v-2.8867Z"/>
    <path id="Path-63" data-name="Path" class="cls-2" d="M177.5,124.13v2.8867l-20,11.547L65,85.1592l2.5-4.33L85.12,70.7253Z"/>
    <path id="Path-64" data-name="Path" class="cls-3" d="M65.12,85.1592l2.5-4.33L160,134.234l-2.5,4.33Z"/>
    <path id="Path-65" data-name="Path" class="cls-4" d="M177.5,124.1305l.12,2.8866-20.12,11.547,2.5-4.33Z"/>
    <path id="Path-66" data-name="Path" class="top-light" d="M62.5,121.2437l15-8.66,10,5.7734-15,8.66Z"/>
    <path id="Path-67" data-name="Path" class="exterior-R-prim" d="M72.5,132.7906l15-8.66v-5.7736l-15,8.66Z"/>
    <path id="Path-68" data-name="Path" class="exterior-L-light" d="M62.5,121.2437v5.7734l10,5.7735v-5.7735Z"/>
    <g id="Group">
      <path id="anchor_100_119.8_187.5" class="top-light" d="M100,73.406,207.1427,11.547,287.5,57.9413,180.357,119.8Z"/>
    </g>
    <g id="Group-2" data-name="Group">
      <g id="Group-3" data-name="Group">
        <g id="Group-4" data-name="Group">
          <path id="Path-69" data-name="Path" class="cls-5" d="M223.75,143.08v33.5727l1.75,1.01L285,144.09V109.7376l-1.75-1.01Z"/>
          <path id="Path-70" data-name="Path" class="cls-6" d="M285,138.0281l-59.5,34.3525v6.062L285,144.09Z"/>
          <path id="Path-71" data-name="Path" class="cls-7" d="M223.75,174.4008l1.75,1.0108v3.031l-1.75-1.0108Z"/>
          <path id="Path-72" data-name="Path" class="cls-6" d="M285,109.7376V115.8l-59.5,34.3525V144.09Z"/>
          <path id="Path-73" data-name="Path" class="cls-8" d="M223.75,143.08l1.75,1.01L285,109.7376l-1.75-1.01Z"/>
        </g>
        <g id="Group-5" data-name="Group">
          <path id="Path-74" data-name="Path" d="M285,112.7686l-59.5,34.3525v27.28L285,140.049Z"/>
          <g id="Group-6" data-name="Group">
            <path id="Path-75" data-name="Path" class="cls-9" d="M238.968,155.5246c.0007.2814.2289.378.51.2156l2.6523-1.5309v-1.0206l-2.6523,1.5316A1.0617,1.0617,0,0,0,238.968,155.5246Z"/>
            <polygon id="Rectangle" class="cls-9" points="237.201 146.215 240.364 144.389 240.364 147.756 237.201 149.582 237.201 146.215"/>
            <path id="Compound_Path" data-name="Compound Path" class="cls-10" d="M242.6605,149.16l-5.0694,2.9267v1.428l4.3358-2.5032c.1127-.0651.2037-.0266.2037.0861v.6636l-2.6061,1.5043a4.1649,4.1649,0,0,0-1.9831,3.0086,1.0811,1.0811,0,0,0,.54,1.106,1.5657,1.5657,0,0,0,1.3965-.2107l4.081-2.3562v-5.2738c-.0007-.4956-.4025-.6657-.8988-.3794Zm-.53,5.05-2.6523,1.5309c-.2821.1631-.51.0665-.51-.2156a1.0568,1.0568,0,0,1,.51-.8043l2.6523-1.5316Z"/>
            <path id="Path-76" data-name="Path" class="cls-10" d="M233.7138,155.2229v5.2738l1.4287-.8246v-4.7439l1.9894-1.1487v-1.428l-2.5193,1.4539A1.8667,1.8667,0,0,0,233.7138,155.2229Z"/>
            <path id="Path-77" data-name="Path" class="cls-10" d="M247.3526,146.4505l-2.282,1.3167a1.9765,1.9765,0,0,0-.9506,1.5v5.1184c0,.0567.0462.0763.1036.0434l1.2215-.7056a.2133.2133,0,0,0,.1036-.1624v-4.4366a.4263.4263,0,0,1,.2044-.3227l.9177-.53c.1127-.0644.2037-.0259.2037.0868v4.4366c0,.0567.0462.0763.1036.0434l1.2215-.7056a.2133.2133,0,0,0,.1036-.1624v-5.1184c-.0007-.5243-.4263-.7042-.9506-.4018Z"/>
            <polygon id="Rectangle-2" data-name="Rectangle" class="cls-10" points="254.238 142.498 255.666 141.673 255.666 147.847 254.238 148.672 254.238 142.498"/>
            <path id="Path-78" data-name="Path" class="cls-10" d="M229.735,150.0219v5.2731l1.4287-.8246v-4.7439l1.9894-1.1487V147.15l-2.5193,1.4546a1.8667,1.8667,0,0,0-.8988,1.4175Z"/>
            <polygon id="Rectangle-3" data-name="Rectangle" class="cls-10" points="233.682 146.869 235.11 146.045 235.11 152.219 233.682 153.043 233.682 146.869"/>
            <path id="Compound_Path-2" data-name="Compound Path" class="cls-10" d="M236.9611,151.1237l3.7079-2.1413a2.3986,2.3986,0,0,0,1.1557-1.8221v-5.8331l-1.428.8246v.7651L236.9611,144.9a2.4006,2.4006,0,0,0-1.1557,1.8228v3.9123C235.8061,151.2728,236.3234,151.4912,236.9611,151.1237Zm.273-4.9525,3.1626-1.8263v3.367l-3.1626,1.8256Z"/>
            <path id="Path-79" data-name="Path" class="cls-10" d="M247.3519,143.696l-3.4867,2.0132v-.97l3.4867-2.0125v-1.4287l-3.4867,2.0132v-.97l3.4867-2.0125V138.901l-3.76,2.1707a2.4024,2.4024,0,0,0-1.1557,1.8221v3.913c.0014.637.518.8554,1.1557.4879l3.76-2.17Z"/>
            <path id="Path-80" data-name="Path" class="cls-10" d="M251.9628,146.1348l-1.2271.7084c-.2527.1449-.4564.0574-.4564-.1953a.95.95,0,0,1,.4564-.7224l2.9869-1.7248V142.772l-2.9869,1.7248a3.9153,3.9153,0,0,0-1.8837,2.975c0,1.0409.8428,1.3993,1.8837.8l1.2271-.7084c.1736-.1015.3346-.1015.4214-.0014a.4749.4749,0,0,1,0,.4851,1.0662,1.0662,0,0,1-.4214.4851l-3.0506,1.7612v1.4287l3.0506-1.7619a3.9678,3.9678,0,0,0,1.91-3.0149c0-1.0549-.8547-1.4175-1.91-.8106Z"/>
            <path id="Path-81" data-name="Path" class="cls-10" d="M231.1637,154.93l-1.4287.8246v6.1411c.0007.4956.4025.6657.8988.3794l2.5193-1.4539v-1.4287l-1.785,1.0311c-.1134.0651-.2044.0259-.2044-.0868v-3.213l1.9894-1.1487V154.546l-1.9894,1.1487Z"/>
            <path id="Path-82" data-name="Path" class="cls-10" d="M257.6888,139.615l-1.428.8246v6.1411c.0007.4956.4025.6657.8988.38l2.5186-1.4546v-1.4287l-1.7864,1.0318c-.112.0644-.203.0266-.203-.0854v-3.2151l1.9894-1.1487v-1.428l-1.9894,1.148Z"/>
            <polygon id="Rectangle-4" data-name="Rectangle" class="cls-10" points="260.053 143.885 261.481 143.061 261.481 144.489 260.053 145.314 260.053 143.885"/>
          </g>
          <path id="Path-83" data-name="Path" class="cls-11" d="M225.5,172.3806,285,138.0281v3.031l-59.5,34.3525Z"/>
          <path id="Path-84" data-name="Path" class="cls-12" d="M225.5,170.36,285,136.0072v3.031l-59.5,34.3525Z"/>
          <path id="Path-85" data-name="Path" class="cls-13" d="M225.5,169.3489,285,134.9971v2.02L225.5,171.37Z"/>
          <path id="Path-86" data-name="Path" class="cls-14" d="M283.25,115.8l-3.5,2.0209v4.0418l3.5-2.0209Z"/>
          <path id="Path-87" data-name="Path" class="cls-14" d="M280.6523,134.6548h0a.6253.6253,0,0,0-.2828.4893h0c0,.18.1267.2534.2828.1631h0a.6242.6242,0,0,0,.2828-.4893h0C280.9351,134.638,280.8084,134.5645,280.6523,134.6548Z"/>
          <path id="Path-88" data-name="Path" class="cls-14" d="M281.5,134.1655h0a.6242.6242,0,0,0-.2828.4893h0c0,.18.1267.2534.2828.1631h0a.6253.6253,0,0,0,.2828-.4893h0C281.7828,134.1487,281.6561,134.0752,281.5,134.1655Z"/>
          <path id="Path-89" data-name="Path" class="cls-14" d="M282.3477,133.6762h0a.6242.6242,0,0,0-.2828.4893h0c0,.18.1267.2527.2828.1631h0a.6253.6253,0,0,0,.2828-.4893h0C282.6305,133.6587,282.5038,133.5859,282.3477,133.6762Z"/>
          <path id="Path-90" data-name="Path" class="cls-14" d="M283.25,120.8515l-3.5,2.0209v1.01l3.5-2.02Z"/>
        </g>
      </g>
      <path id="Path-91" data-name="Path" class="cls-7" d="M223.75,146.111l1.75,1.01V144.09l-1.75-1.01Z"/>
    </g>
    <g id="Group-7" data-name="Group">
      <path id="Path-92" data-name="Path" class="cls-15" d="M42,192.7939l-1.75,1.0108v34.3518l45.5,26.27,1.75-1.01V219.0635Z"/>
      <path id="Path-93" data-name="Path" class="cls-7" d="M85.75,248.3641l-45.5-26.27v6.0627l45.5,26.2689Z"/>
      <path id="Path-94" data-name="Path" class="cls-6" d="M85.75,251.3951l1.75-1.01v3.031l-1.75,1.01Z"/>
      <path id="Path-95" data-name="Path" class="cls-7" d="M85.75,220.0743v6.062l-45.5-26.27v-6.062Z"/>
      <path id="Path-96" data-name="Path" class="cls-8" d="M42,192.7939l-1.75,1.0108,45.5,26.27,1.75-1.0108Z"/>
      <path id="Path-97" data-name="Path" d="M85.75,223.1053l-45.5-26.27v27.28l45.5,26.27Z"/>
      <g id="Group-8" data-name="Group">
        <path id="Path-98" data-name="Path" class="cls-9" d="M53.718,220.7911a1.0617,1.0617,0,0,0,.51.8043l2.6523,1.5316v-1.02l-2.6523-1.5316C53.9469,220.4131,53.7187,220.51,53.718,220.7911Z"/>
        <polygon id="Rectangle-5" data-name="Rectangle" class="cls-9" points="51.949 209.495 55.111 211.321 55.111 214.688 51.949 212.863 51.949 209.495"/>
        <path id="Compound_Path-3" data-name="Compound Path" class="cls-10" d="M57.4105,218.689l-5.0694-2.9274V217.19l4.3358,2.5032a.423.423,0,0,1,.2037.3213v.6636l-2.6061-1.505c-1.0549-.6083-1.9446-.2863-1.9831.7189a3.222,3.222,0,0,0,.54,1.73,4.1819,4.1819,0,0,0,1.3965,1.4014l4.081,2.3555v-5.2731a1.8656,1.8656,0,0,0-.8988-1.4175Zm-.53,4.438-2.6523-1.5316a1.0568,1.0568,0,0,1-.51-.8043c0-.2821.2282-.3787.51-.2156l2.6523,1.5316Z"/>
        <path id="Path-99" data-name="Path" class="cls-10" d="M48.4638,214.4225v5.2731l1.4287.8246v-4.7439l1.9894,1.1487v-1.428l-2.5193-1.4546C48.8663,213.7568,48.4645,213.9262,48.4638,214.4225Z"/>
        <path id="Path-100" data-name="Path" class="cls-10" d="M62.1026,221.3973l-2.282-1.3167c-.5243-.3024-.95-.1225-.9506.4018v5.1184a.2133.2133,0,0,0,.1036.1624l1.2215.7056c.0574.0329.1036.0133.1036-.0434v-4.4366c0-.1127.0917-.1512.2044-.0861l.9177.53a.423.423,0,0,1,.2037.322v4.4366a.2133.2133,0,0,0,.1036.1624l1.2215.7056c.0574.0329.1036.0133.1036-.0434v-5.1184a1.9776,1.9776,0,0,0-.9506-1.5Z"/>
        <polygon id="Rectangle-6" data-name="Rectangle" class="cls-10" points="68.985 225.458 70.414 226.282 70.414 232.456 68.985 231.631 68.985 225.458"/>
        <path id="Path-101" data-name="Path" class="cls-10" d="M44.485,204.6267V209.9l1.4287.8253v-4.7446l1.9894,1.1487v-1.428l-2.5193-1.4546c-.4963-.2856-.8981-.1162-.8988.38Z"/>
        <polygon id="Rectangle-7" data-name="Rectangle" class="cls-10" points="48.429 206.085 49.857 206.909 49.857 213.083 48.429 212.258 48.429 206.085"/>
        <path id="Compound_Path-4" data-name="Compound Path" class="cls-10" d="M51.7111,214.0718l3.7079,2.1413c.6384.3675,1.155.1491,1.1557-.4886v-5.8331l-1.428-.8246v.7651l-3.4356-1.9831c-.6377-.3675-1.155-.1491-1.1557.4879v3.913A2.4005,2.4005,0,0,0,51.7111,214.0718Zm.273-4.6375,3.1626,1.8263v3.3663l-3.1626-1.8256Z"/>
        <path id="Path-102" data-name="Path" class="cls-10" d="M62.1019,218.6428,58.6152,216.63v-.9688l3.4867,2.0125v-1.428l-3.4867-2.0132v-.9688l3.4867,2.0125v-1.428l-3.76-2.1707c-.6377-.3675-1.1543-.1491-1.1557.4886v3.9123a2.4036,2.4036,0,0,0,1.1557,1.8228l3.76,2.17Z"/>
        <path id="Path-103" data-name="Path" class="cls-10" d="M66.7128,226.4058l-1.2271-.7084a.95.95,0,0,1-.4564-.7224c0-.2527.2037-.34.4564-.196l2.9869,1.7248v-1.428l-2.9869-1.7248c-1.0409-.5992-1.8837-.2415-1.8837.8a3.9153,3.9153,0,0,0,1.8837,2.975l1.2271.7084a1.0662,1.0662,0,0,1,.4214.4851.4751.4751,0,0,1,0,.4851c-.0868.1-.2478.0994-.4214-.0014l-3.0506-1.7612v1.428l3.0506,1.7619c1.0549.6069,1.91.2443,1.91-.8106a3.969,3.969,0,0,0-1.91-3.0156Z"/>
        <path id="Path-104" data-name="Path" class="cls-10" d="M45.9137,211.1836l-1.4287-.8246V216.5a1.8667,1.8667,0,0,0,.8988,1.4175l2.5193,1.4546v-1.4287l-1.785-1.03a.422.422,0,0,1-.2044-.322v-3.2137l1.9894,1.1487v-1.4287l-1.9894-1.1487Z"/>
        <path id="Path-105" data-name="Path" class="cls-10" d="M72.4388,226.4982l-1.428-.8246v6.1411a1.8667,1.8667,0,0,0,.8988,1.4175l2.5186,1.4539v-1.428l-1.7864-1.0318a.4193.4193,0,0,1-.203-.3192V228.692l1.9894,1.1487V228.412l-1.9894-1.1487Z"/>
        <polygon id="Rectangle-8" data-name="Rectangle" class="cls-10" points="74.8 233.561 76.228 234.385 76.228 235.814 74.8 234.989 74.8 233.561"/>
      </g>
      <path id="Path-106" data-name="Path" class="cls-11" d="M40.25,222.0945l45.5,26.27v3.031l-45.5-26.27Z"/>
      <path id="Path-107" data-name="Path" class="cls-12" d="M40.25,220.0743l45.5,26.2689v3.031l-45.5-26.2689Z"/>
      <path id="Path-108" data-name="Path" class="cls-13" d="M40.25,219.0635l45.5,26.27v2.0209l-45.5-26.27Z"/>
      <path id="Path-109" data-name="Path" class="cls-14" d="M84,224.1154l-3.5-2.0209v4.0418l3.5,2.0209Z"/>
      <path id="Path-110" data-name="Path" class="cls-14" d="M81.4023,239.97h0c-.1561-.09-.2828-.0168-.2828.1631h0a.6254.6254,0,0,0,.2828.49h0c.1561.09.2828.0168.2828-.1631h0A.6254.6254,0,0,0,81.4023,239.97Z"/>
      <path id="Path-111" data-name="Path" class="cls-14" d="M82.25,240.46h0c-.1561-.09-.2828-.0175-.2828.1631h0a.6253.6253,0,0,0,.2828.4893h0c.1561.09.2828.0168.2828-.1631h0A.6242.6242,0,0,0,82.25,240.46Z"/>
      <path id="Path-112" data-name="Path" class="cls-14" d="M83.0977,240.95h0c-.1561-.09-.2828-.0168-.2828.1631h0a.6253.6253,0,0,0,.2828.4893h0c.1561.09.2828.0168.2828-.1631h0A.6242.6242,0,0,0,83.0977,240.95Z"/>
      <path id="Path-113" data-name="Path" class="cls-14" d="M84,229.1673l-3.5-2.0209v1.0108l3.5,2.02Z"/>
      <path id="Path-114" data-name="Path" class="cls-6" d="M85.75,223.1053l1.75-1.0108v-3.031l-1.75,1.0108Z"/>
    </g>
  </g>
</svg>
