<svg id="Layer_1" data-name="Layer 1" xmlns="http://www.w3.org/2000/svg" viewBox="0 0 340 254.03">
    <defs>
        <style>
            .concrete-top{fill:#e8e8e8;}
            .concrete-right{fill:#d1d1d1;}
            .concrete-left{fill:#a2a2a2;}
            .window-R-prim{fill:#202020;}
            .exterior-L-prim{fill:#2e2e2e;}
            .exterior-R-prim{fill:#5d5d5d;}
            .top-prim{fill:#b9b9b9;}
        </style>
    </defs>
    <title>0Artboard 1</title>
    <g id="Group">
        <path id="Path" class="concrete-top" d="M150,248.26l190-109.7L190,52,0,161.66Z"/>
        <path id="Path-2" data-name="Path" class="concrete-right" d="M150,254v-5.77l190-109.7v5.78Z"/>
        <path id="Path-3" data-name="Path" class="concrete-left" d="M0,167.43v-5.77l150,86.6V254Z"/>
        <path id="Path-4" data-name="Path" class="window-R-prim" d="M150,202.07l135-77.94V83.72L150,161.66Z"/>
        <path id="Path-5" data-name="Path" d="M150,202.07,52.5,145.78V105.37L150,161.66Z"/>
        <path id="Path-6" data-name="Path" class="exterior-L-prim" d="M145,228.05V158.77h10v69.28l-5,2.89Z"/>
        <path id="Path-7" data-name="Path" class="exterior-L-prim" d="M106.25,205.68V136.4h10v69.28l-5,2.89Z"/>
        <path id="Path-8" data-name="Path" class="exterior-L-prim" d="M67.5,183.31V114h10v69.28l-5,2.89Z"/>
        <path id="Path-9" data-name="Path" class="exterior-L-prim" d="M30,161.66V92.38l7.5,1.44,1.25,67.12-5,2.88Z"/>
        <path id="Path-10" data-name="Path" class="exterior-R-prim" d="M150,161.66l5-2.89v69.28l-5,2.89Z"/>
        <path id="Path-11" data-name="Path" class="exterior-R-prim" d="M111.25,139.29l5-2.89v69.28l-5,2.89Z"/>
        <path id="Path-12" data-name="Path" class="exterior-R-prim" d="M72.5,116.91l5-2.88v69.28l-5,2.89Z"/>
        <path id="Path-13" data-name="Path" class="exterior-R-prim" d="M33.75,93.1l5-2.89v70.73l-5,2.88Z"/>
        <path id="Path-14" data-name="Path" class="exterior-L-prim" d="M300,138.56V75.06l10-5.78v69.28l-5,2.89Z"/>
        <path id="Path-15" data-name="Path" class="exterior-L-prim" d="M222.5,183.31V119.8l10-5.77v69.28l-5,2.89Z"/>
        <path id="Path-16" data-name="Path" class="exterior-L-prim" d="M261.25,160.94V97.43l10-5.78v69.29l-5,2.88Z"/>
        <path id="Path-17" data-name="Path" class="exterior-L-prim" d="M183.75,205.68V142.17l10-5.77v69.28l-5,2.89Z"/>
        <path id="Path-18" data-name="Path" class="exterior-R-prim" d="M305,72.17l5-2.89v69.28l-5,2.89Z"/>
        <path id="Path-19" data-name="Path" class="exterior-R-prim" d="M227.5,116.91l5-2.88v69.28l-5,2.89Z"/>
        <path id="Path-20" data-name="Path" class="exterior-R-prim" d="M266.25,94.54l5-2.89v69.29l-5,2.88Z"/>
        <path id="Path-21" data-name="Path" class="exterior-R-prim" d="M188.75,139.29l5-2.89v69.28l-5,2.89Z"/>
        <path id="Path-22" data-name="Path" class="exterior-R-prim" d="M150,161.66,310,69.28v8.66L150,170.32Z"/>
        <path id="Path-23" data-name="Path" class="exterior-L-prim" d="M150,161.66,30,92.38V101l120,69.28Z"/>
        <path id="Path-24" data-name="Path" class="exterior-R-prim" d="M285,124.13l-2.5,1.44V93.82l2.5-1.44Z"/>
        <path id="Path-25" data-name="Path" class="exterior-R-prim" d="M248.75,145.06l-2.5,1.44V114.75l2.5-1.45Z"/>
        <path id="Path-26" data-name="Path" class="exterior-R-prim" d="M210,167.43l-2.5,1.44V137.12l2.5-1.44Z"/>
        <path id="Path-27" data-name="Path" class="exterior-L-prim" d="M90,167.43l2.5,1.44V137.12L90,135.68Z"/>
        <path id="Path-28" data-name="Path" class="exterior-L-prim" d="M52.5,145.78l2.5,1.44V115.47L52.5,114Z"/>
        <path id="Path-29" data-name="Path" class="exterior-R-prim" d="M171.25,189.8l-2.5,1.45V159.49l2.5-1.44Z"/>
        <path id="Path-30" data-name="Path" class="exterior-L-prim" d="M128.75,189.8l2.5,1.45V159.49l-2.5-1.44Z"/>
        <path id="anchor-01_92.37" class="top-prim" d="M30,92.38,190,0,310,69.28,150,161.66Z"/>
    </g>
</svg>
