<?xml version="1.0" standalone="no"?><!-- Generator: Gravit.io -->
<svg xmlns="http://www.w3.org/2000/svg" xmlns:xlink="http://www.w3.org/1999/xlink" style="isolation:isolate"
     viewBox="1710 72.169 130 305.996" width="130" height="305.996">
    <switch>
        <g id="Group">
            <g id="Group">
                <path d=" M 1775 228.053 L 1840 265.581 L 1775 303.109 L 1710 265.581 L 1775 228.053 Z " id="top-T2"
                      fill="rgb(255,255,255)"/>
                <path d=" M 1775 303.109 L 1840 265.581 L 1840 340.637 L 1775 378.164 L 1775 303.109 Z " id="windows-R4"
                      fill="rgb(89,173,208)"/>
                <path d=" M 1775 303.109 L 1710 265.581 L 1710 340.637 L 1775 378.164 L 1775 303.109 Z " id="windows-L3"
                      fill="rgb(69,125,149)"/>
            </g>
            <g id="gradient-L2-R2">
                <g id="Group">
                    <linearGradient id="_lgradient_6" x1="0.018518518518518157" y1="0.70896107030498"
                                    x2="0.9962962962962959" y2="0.6627730487698112"
                                    gradientTransform="matrix(90,0,0,24.321,1730,234.487)"
                                    gradientUnits="userSpaceOnUse">
                        <stop offset="1.3043478260869565%" stop-opacity="1" style="stop-color:rgb(147,138,130)"/>
                        <stop offset="97.82608695652173%" stop-opacity="1" style="stop-color:rgb(219,215,212)"/>
                    </linearGradient>
                    <rect x="1730" y="234.487" width="90" height="24.321" transform="matrix(1,0,0,1,0,0)" id="Rectangle"
                          fill="url(#_lgradient_6)"/>
                    <linearGradient id="_lgradient_7" x1="0" y1="0.5" x2="1.249756335282654" y2="0.5038599019832323"
                                    gradientTransform="matrix(90,0,0,51.962,1730,232.827)"
                                    gradientUnits="userSpaceOnUse">
                        <stop offset="2.608695652173913%" stop-opacity="1" style="stop-color:rgb(147,138,130)"/>
                        <stop offset="66.08695652173913%" stop-opacity="1" style="stop-color:rgb(219,215,212)"/>
                    </linearGradient>
                    <ellipse vector-effect="non-scaling-stroke" cx="1775.0000000000002" cy="258.80763103632495"
                             rx="44.99999999999977" ry="25.980762113533103" id="Ellipse" fill="url(#_lgradient_7)"/>
                </g>
                <ellipse vector-effect="non-scaling-stroke" cx="1775.0000000000002" cy="234.48712296063633"
                         rx="44.99999999999977" ry="25.980762113533103" id="Ellipse" fill="rgb(247,242,239)"/>
            </g>
            <path d=" M 1790 265.581 L 1785 262.694 L 1785 291.562 L 1790 294.449 L 1790 265.581 Z " id="body-L2"
                  fill="rgb(176,165,155)"/>
            <path d=" M 1760 265.581 L 1765 262.694 L 1765 291.562 L 1760 294.449 L 1760 265.581 Z " id="body-R2"
                  fill="rgb(247,242,239)"/>
            <path d=" M 1805 256.921 L 1800 254.034 L 1800 282.902 L 1805 285.788 L 1805 256.921 Z " id="body-L2"
                  fill="rgb(176,165,155)"/>
            <path d=" M 1745 256.921 L 1750 254.034 L 1750 282.902 L 1745 285.788 L 1745 256.921 Z " id="body-R2"
                  fill="rgb(247,242,239)"/>
            <path d=" M 1820 248.261 L 1815 245.374 L 1815 274.241 L 1820 277.128 L 1820 248.261 Z " id="body-L2"
                  fill="rgb(176,165,155)"/>
            <path d=" M 1730 248.261 L 1735 245.374 L 1735 274.241 L 1730 277.128 L 1730 248.261 Z " id="body-R2"
                  fill="rgb(247,242,239)"/>
            <path d=" M 1835 239.6 L 1830 236.714 L 1830 265.581 L 1835 268.468 L 1835 239.6 Z " id="body-L2"
                  fill="rgb(176,165,155)"/>
            <path d=" M 1715 239.6 L 1720 236.714 L 1720 265.581 L 1715 268.468 L 1715 239.6 Z " id="body-R2"
                  fill="rgb(247,242,239)"/>
            <path d=" M 1775 72.169 L 1840 109.697 L 1775 147.224 L 1710 109.697 L 1775 72.169 Z " id="top-T2"
                  fill="rgb(255,255,255)"/>
            <path d=" M 1775 147.224 L 1840 109.697 L 1840 236.714 L 1775 274.241 L 1775 147.224 Z " id="windows-R4"
                  fill="rgb(89,173,208)"/>
            <path d=" M 1775 147.224 L 1710 109.697 L 1710 236.714 L 1775 274.241 L 1775 147.224 Z " id="windows-L3"
                  fill="rgb(69,125,149)"/>
            <g id="windows-R2">
                <path d=" M 1775 147.224 L 1840 109.697 L 1840 121.244 L 1775 158.771 L 1775 147.224 Z " id="Path"
                      fill="rgb(76,143,172)"/>
                <path d=" M 1775 193.412 L 1840 155.885 L 1840 167.432 L 1775 204.959 L 1775 193.412 Z " id="Path"
                      fill="rgb(76,143,172)"/>
                <path d=" M 1775 239.6 L 1840 202.073 L 1840 213.62 L 1775 251.147 L 1775 239.6 Z " id="Path"
                      fill="rgb(76,143,172)"/>
                <path d=" M 1775 170.318 L 1840 132.791 L 1840 144.338 L 1775 181.865 L 1775 170.318 Z " id="Path"
                      fill="rgb(76,143,172)"/>
                <path d=" M 1775 216.506 L 1840 178.979 L 1840 190.526 L 1775 228.053 L 1775 216.506 Z " id="Path"
                      fill="rgb(76,143,172)"/>
                <path d=" M 1775 262.694 L 1840 225.167 L 1840 236.714 L 1775 274.241 L 1775 262.694 Z " id="Path"
                      fill="rgb(76,143,172)"/>
            </g>
            <g id="Group">
                <path d=" M 1775 303.109 L 1840 265.581 L 1840 277.128 L 1775 314.656 L 1775 303.109 Z " id="Path"
                      fill="rgb(76,143,172)"/>
                <path d=" M 1775 349.297 L 1840 311.769 L 1840 323.316 L 1775 360.844 L 1775 349.297 Z " id="Path"
                      fill="rgb(76,143,172)"/>
                <path d=" M 1775 326.203 L 1840 288.675 L 1840 300.222 L 1775 337.75 L 1775 326.203 Z " id="Path"
                      fill="rgb(76,143,172)"/>
                <path d=" M 1775 372.391 L 1840 334.863 L 1840 340.637 L 1775 378.164 L 1775 372.391 Z " id="Path"
                      fill="rgb(76,143,172)"/>
            </g>
            <g id="windows-L2">
                <path d=" M 1775 147.224 L 1710 109.697 L 1710 121.244 L 1775 158.771 L 1775 147.224 Z " id="Path"
                      fill="rgb(34,79,100)"/>
                <path d=" M 1775 193.412 L 1710 155.885 L 1710 167.432 L 1775 204.959 L 1775 193.412 Z " id="Path"
                      fill="rgb(34,79,100)"/>
                <path d=" M 1775 239.6 L 1710 202.073 L 1710 213.62 L 1775 251.147 L 1775 239.6 Z " id="Path"
                      fill="rgb(34,79,100)"/>
                <path d=" M 1775 170.318 L 1710 132.791 L 1710 144.338 L 1775 181.865 L 1775 170.318 Z " id="Path"
                      fill="rgb(34,79,100)"/>
                <path d=" M 1775 216.506 L 1710 178.979 L 1710 190.526 L 1775 228.053 L 1775 216.506 Z " id="Path"
                      fill="rgb(34,79,100)"/>
                <path d=" M 1775 262.694 L 1710 225.167 L 1710 236.714 L 1775 274.241 L 1775 262.694 Z " id="Path"
                      fill="rgb(34,79,100)"/>
            </g>
            <g id="windows-L2">
                <path d=" M 1775 303.109 L 1710 265.581 L 1710 277.128 L 1775 314.656 L 1775 303.109 Z " id="Path"
                      fill="rgb(34,79,100)"/>
                <path d=" M 1775 349.297 L 1710 311.769 L 1710 323.316 L 1775 360.844 L 1775 349.297 Z " id="Path"
                      fill="rgb(34,79,100)"/>
                <path d=" M 1775 326.203 L 1710 288.675 L 1710 300.222 L 1775 337.75 L 1775 326.203 Z " id="Path"
                      fill="rgb(34,79,100)"/>
                <path d=" M 1775 372.391 L 1710 334.863 L 1710 340.637 L 1775 378.164 L 1775 372.391 Z " id="Path"
                      fill="rgb(34,79,100)"/>
            </g>
            <path d=" M 1775 285.788 L 1710 248.261 L 1710 254.034 L 1775 291.562 L 1775 285.788 Z " id="body-L2"
                  fill="rgb(176,165,155)"/>
            <g id="body-R2">
                <path d=" M 1775 285.788 L 1840 248.261 L 1840 254.034 L 1775 291.562 L 1775 285.788 Z " id="Path"
                      fill="rgb(247,242,239)"/>
                <path d=" M 1775 274.241 L 1780 271.355 L 1780 300.222 L 1775 303.109 L 1775 274.241 Z " id="Path"
                      fill="rgb(247,242,239)"/>
                <path d=" M 1805 256.921 L 1810 254.034 L 1810 282.902 L 1805 285.788 L 1805 256.921 Z " id="Path"
                      fill="rgb(247,242,239)"/>
                <path d=" M 1790 265.581 L 1795 262.694 L 1795 291.562 L 1790 294.449 L 1790 265.581 Z " id="Path"
                      fill="rgb(247,242,239)"/>
                <path d=" M 1820 248.261 L 1825 245.374 L 1825 274.241 L 1820 277.128 L 1820 248.261 Z " id="Path"
                      fill="rgb(247,242,239)"/>
                <path d=" M 1835 239.6 L 1840 236.714 L 1840 265.581 L 1835 268.468 L 1835 239.6 Z " id="Path"
                      fill="rgb(247,242,239)"/>
            </g>
            <g id="body-L2">
                <path d=" M 1775 274.241 L 1770 271.355 L 1770 300.222 L 1775 303.109 L 1775 274.241 Z " id="Path"
                      fill="rgb(176,165,155)"/>
                <path d=" M 1745 256.921 L 1740 254.034 L 1740 282.902 L 1745 285.788 L 1745 256.921 Z " id="Path"
                      fill="rgb(176,165,155)"/>
                <path d=" M 1760 265.581 L 1755 262.694 L 1755 291.562 L 1760 294.449 L 1760 265.581 Z " id="Path"
                      fill="rgb(176,165,155)"/>
                <path d=" M 1730 248.261 L 1725 245.374 L 1725 274.241 L 1730 277.128 L 1730 248.261 Z " id="Path"
                      fill="rgb(176,165,155)"/>
                <path d=" M 1715 239.6 L 1710 236.714 L 1710 265.581 L 1715 268.468 L 1715 239.6 Z " id="Path"
                      fill="rgb(176,165,155)"/>
            </g>
            <g id="top-T1">
                <path d=" M 1780 277.128 L 1785 274.241 L 1790 277.128 L 1780 282.902 L 1780 277.128 Z " id="Path"
                      fill="rgb(255,252,250)"/>
                <path d=" M 1810 259.808 L 1815 256.921 L 1820 259.808 L 1810 265.581 L 1810 259.808 Z " id="Path"
                      fill="rgb(255,252,250)"/>
                <path d=" M 1795 268.468 L 1800 265.581 L 1805 268.468 L 1795 274.241 L 1795 268.468 Z " id="Path"
                      fill="rgb(255,252,250)"/>
                <path d=" M 1825 251.147 L 1830 248.261 L 1835 251.147 L 1825 256.921 L 1825 251.147 Z " id="Path"
                      fill="rgb(255,252,250)"/>
            </g>
            <g id="top-T1">
                <path d=" M 1770 277.128 L 1765 274.241 L 1760 277.128 L 1770 282.902 L 1770 277.128 Z " id="Path"
                      fill="rgb(255,252,250)"/>
                <path d=" M 1740 259.808 L 1735 256.921 L 1730 259.808 L 1740 265.581 L 1740 259.808 Z " id="Path"
                      fill="rgb(255,252,250)"/>
                <path d=" M 1755 268.468 L 1750 265.581 L 1745 268.468 L 1755 274.241 L 1755 268.468 Z " id="Path"
                      fill="rgb(255,252,250)"/>
                <path d=" M 1725 251.147 L 1720 248.261 L 1715 251.147 L 1725 256.921 L 1725 251.147 Z " id="Path"
                      fill="rgb(255,252,250)"/>
            </g>
        </g>
    </switch>
</svg>