<svg id="Layer_1" data-name="Layer 1" xmlns="http://www.w3.org/2000/svg" viewBox="0 0 500 424.352">
  <defs>
    <style>
      .exterior-L-light {
        fill: #8a3a37;
      }

      .exterior-R-light {
        fill: #df5d58;
      }

      .crown-top-prim {
        fill: #e5f7e3;
      }

      .crown-L-prim {
        fill: #8fa88c;
      }

      .crown-R-prim {
        fill: #bfd7bd;
      }

      .exterior-L-prim {
        fill: #73302e;
      }

      .exterior-R-prim {
        fill: #d05752;
      }

      .crown-R-prim-dark {
        fill: #a6c6a4;
      }

      .cls-1 {
        fill: #2e2e2e;
      }

      .top-prim {
        fill: #dd8a87;
      }

      .exterior-R-dark {
        fill: #a64c49;
      }

      .exterior-L-dark {
        fill: #512220;
      }

      .crown-L-prim-dark {
        fill: #6e806c;
      }

      .cls-2 {
        fill: #e8e8e8;
      }
    </style>
  </defs>
  <title>Artboard 33</title>
  <g id="root">
  <path class="exterior-L-light" d="M10,297.335V158.7711L230,285.788V424.352Z"/>
  <path class="exterior-R-light" d="M490,274.241V135.677L230,285.788V424.352Z"/>
  <path class="crown-top-prim" d="M500,230.94l-10-5.7729V230.94L230,381.0511,10,254.034v-5.773L0,254.034,230,386.825Z"/>
  <path class="crown-L-prim" d="M10,248.261v5.773L230,381.0511V375.278Z"/>
  <path class="crown-L-prim" d="M0,254.26v8.66L230,395.485v-8.66Z"/>
  <path class="crown-R-prim" d="M490,225.1671v5.817L230,381.0511V375.278Z"/>
  <path class="exterior-L-prim" d="M230,288.675l-15-8.66V366.617l15,8.661Z"/>
  <path class="crown-R-prim" d="M230,395.485,500,239.6v-8.66L230,386.825Z"/>
  <path class="crown-top-prim" d="M245,360.8441,486.25,221.558l5,2.887L245,366.617Z"/>
  <path class="crown-top-prim" d="M230,369.504,15,245.3741l-5,2.787L230,375.278Z"/>
  <path class="exterior-R-prim" d="M470,220.836V230.94L245,360.8441V350.74Z"/>
  <path class="exterior-L-prim" d="M25,241.044v10.103L215,360.8441V350.74Z"/>
  <path class="exterior-R-prim" d="M230,288.675l15-8.66V366.617l-15,8.661Z"/>
  <path class="crown-R-prim-dark" d="M250,352.184l-20,11.547v2.887l20-11.547Z"/>
  <path class="cls-1" d="M260,291.5621l-12.5,7.2169v17.32L260,308.882Z"/>
  <path d="M200,291.5621l12.5,7.2169v17.32L200,308.882Z"/>
  <path class="cls-1" d="M465,173.205l-12.5,7.2171V197.743l12.5-7.2169Z"/>
  <path class="top-prim" d="M247.5,318.986l15-8.66v-5.7739l-2.5-1.443v5.7729l-12.5,7.2171Z"/>
  <path class="top-prim" d="M212.5,318.986l-15-8.66v-5.7739l2.5-1.443v5.7729l12.5,7.2171Z"/>
  <path class="top-prim" d="M452.5,200.629l15-8.66V186.196l-2.5-1.444v5.7741l-12.5,7.2169Z"/>
  <path class="exterior-L-light" d="M262.5,290.1191l-2.5,1.443v17.32l2.5,1.444Z"/>
  <path class="exterior-R-light" d="M197.5,290.1191l2.5,1.443v17.32l-2.5,1.444Z"/>
  <path class="exterior-L-light" d="M467.5,171.762l-2.5,1.443v17.3211l2.5,1.443Z"/>
  <path class="cls-1" d="M260,320.429l-12.5,7.2171V344.967L260,337.75Z"/>
  <path d="M200,320.429l12.5,7.2171V344.967L200,337.75Z"/>
  <path class="cls-1" d="M465,202.0731,452.5,209.29v17.32l12.5-7.217Z"/>
  <path class="top-prim" d="M247.5,347.8541l-2.5,1.443v1.443l18.75-10.8251-1.25-.7219V333.42l-2.5-1.443V337.75l-12.5,7.2169Z"/>
  <path class="top-prim" d="M212.5,347.8541l2.5,1.443v1.443L196.25,339.915l1.25-.7219V333.42l2.5-1.443V337.75l12.5,7.2169Z"/>
  <path class="top-prim" d="M452.5,229.497,450,230.94v1.444l18.75-10.826-1.25-.721v-5.774L465,213.62v5.7729l-12.5,7.217Z"/>
  <path class="exterior-L-light" d="M262.5,318.986l-2.5,1.443V337.75l2.5,1.443Z"/>
  <path class="exterior-R-light" d="M197.5,318.986l2.5,1.443V337.75l-2.5,1.443Z"/>
  <path class="exterior-L-light" d="M467.5,200.629l-2.5,1.4441v17.32l2.5,1.444Z"/>
  <path class="exterior-R-dark" d="M260,295.892l-12.5,7.2171v1.443L260,297.335Z"/>
  <path class="exterior-L-dark" d="M200,295.892l12.5,7.2171v1.443L200,297.335Z"/>
  <path class="exterior-R-dark" d="M465,177.535l-12.5,7.217v1.444l12.5-7.2169Z"/>
  <path class="exterior-R-dark" d="M260,324.76l-12.5,7.2159v1.444l12.5-7.2169Z"/>
  <path class="exterior-L-dark" d="M200,324.76l12.5,7.2159v1.444L200,326.2031Z"/>
  <path class="exterior-R-dark" d="M465,206.403,452.5,213.62v1.4429l12.5-7.217Z"/>
  <path class="cls-1" d="M306.25,264.8591,287.5,275.685v17.32L306.25,282.18Z"/>
  <path class="cls-1" d="M345,242.478l-18.75,10.826v17.32L345,259.799Z"/>
  <path class="cls-1" d="M385,219.393l-18.75,10.8251V247.539L385,236.7141Z"/>
  <path class="cls-1" d="M425,196.299l-18.75,10.8251V224.445L425,213.62Z"/>
  <path class="top-prim" d="M287.5,295.892l21.25-12.269V277.85l-2.5-1.443v5.773L287.5,293.0051Z"/>
  <path class="top-prim" d="M326.25,273.511l21.25-12.269v-5.7729l-2.5-1.444v5.7739l-18.75,10.8251Z"/>
  <path class="top-prim" d="M366.25,250.4261,387.5,238.157v-5.774L385,230.94v5.7741L366.25,247.539Z"/>
  <path class="top-prim" d="M406.25,227.332l21.25-12.269v-5.774l-2.5-1.443V213.62L406.25,224.445Z"/>
  <path class="exterior-L-light" d="M308.75,263.4161l-2.5,1.443V282.18l2.5,1.443Z"/>
  <path class="exterior-L-light" d="M347.5,241.035l-2.5,1.443v17.321l2.5,1.443Z"/>
  <path class="exterior-L-light" d="M387.5,217.95l-2.5,1.443v17.3211l2.5,1.4429Z"/>
  <path class="exterior-L-light" d="M427.5,194.856l-2.5,1.443V213.62l2.5,1.4429Z"/>
  <path class="cls-1" d="M306.25,293.727,287.5,304.5521V321.873l18.75-10.8259Z"/>
  <path class="cls-1" d="M345,271.346l-18.75,10.8251V299.492L345,288.6661Z"/>
  <path class="cls-1" d="M385,248.261l-18.75,10.825v17.32L385,265.581Z"/>
  <path class="cls-1" d="M425,225.1671,406.25,235.992v17.32L425,242.487Z"/>
  <path class="top-prim" d="M287.5,324.76l-2.5,1.443v1.443l25-14.4341-1.25-.721v-5.774l-2.5-1.443v5.7731L287.5,321.873Z"/>
  <path class="top-prim" d="M326.25,302.379l-2.5,1.4431v1.443l25-14.4341-1.25-.721v-5.774l-2.5-1.443v5.7731L326.25,299.492Z"/>
  <path class="top-prim" d="M366.25,279.293l-2.5,1.444v1.443l25-14.434-1.25-.722v-5.773l-2.5-1.443v5.773l-18.75,10.8251Z"/>
  <path class="top-prim" d="M406.25,256.199l-2.5,1.444v1.443l25-14.434-1.25-.722v-5.773l-2.5-1.4429v5.7729l-18.75,10.8251Z"/>
  <path class="exterior-L-light" d="M308.75,292.284l-2.5,1.443v17.32l2.5,1.4439Z"/>
  <path class="exterior-L-light" d="M347.5,269.903l-2.5,1.443v17.32l2.5,1.4439Z"/>
  <path class="exterior-L-light" d="M387.5,246.8171,385,248.261v17.32l2.5,1.443Z"/>
  <path class="exterior-L-light" d="M427.5,223.7231l-2.5,1.444v17.32l2.5,1.443Z"/>
  <path class="exterior-R-dark" d="M306.25,269.181,287.5,280.006v1.444l18.75-10.8259Z"/>
  <path class="exterior-R-dark" d="M345,246.8171l-18.75,10.808v1.4439L345,248.261Z"/>
  <path class="exterior-R-dark" d="M385,223.7231,366.25,234.549v1.443L385,225.1671Z"/>
  <path class="exterior-R-dark" d="M425,200.629l-18.75,10.817v1.452L425,202.0731Z"/>
  <path class="exterior-R-dark" d="M306.25,298.048,287.5,308.8741v1.443l18.75-10.8251Z"/>
  <path class="exterior-R-dark" d="M345,275.685,326.25,286.51v1.443L345,277.128Z"/>
  <path class="exterior-R-dark" d="M385,252.591l-18.75,10.8251V264.86L385,254.0251Z"/>
  <path class="exterior-R-dark" d="M425,229.497l-18.75,10.8251v1.443L425,230.94Z"/>
  <path class="exterior-R-light" d="M245,366.617l-15,8.661v-8.661l15-8.66Z"/>
  <path class="exterior-L-light" d="M230,375.278l-15-8.661v-8.66l15,8.66Z"/>
  <path class="crown-top-prim" d="M250,352.184l-5-2.8869v2.8869l-15,8.66v2.8869Z"/>
  <path class="exterior-R-prim" d="M270,280.0151l15-8.66v72.168l-15,8.661Z"/>
  <path class="exterior-R-prim" d="M475,161.658l15-8.66v72.1691l-15,8.66Z"/>
  <path class="exterior-L-prim" d="M25,184.752l-15-8.66v72.169l15,8.66Z"/>
  <path class="exterior-L-prim" d="M190,280.0151l-15-8.66v72.168l15,8.661Z"/>
  <path class="exterior-L-prim" d="M65,207.846l-15-8.66v72.169l15,8.66Z"/>
  <path class="exterior-R-prim" d="M435,184.752l15-8.66v72.169l-15,8.66Z"/>
  <path class="exterior-R-prim" d="M315,254.034l8.75-5.052v72.1691l-8.75,5.052Z"/>
  <path class="exterior-L-prim" d="M145,254.034l-8.75-5.052v72.1691l8.75,5.052Z"/>
  <path class="exterior-L-prim" d="M105,230.94l-8.75-5.052v72.1691l8.75,5.052Z"/>
  <path class="exterior-R-prim" d="M355,230.94l8.75-5.052v72.1691l-8.75,5.052Z"/>
  <path class="exterior-R-prim" d="M395,207.846l8.75-5.052v72.1691l-8.75,5.052Z"/>
  <path class="exterior-L-prim" d="M270,280.0151l-5,2.8869v66.3951l5,2.8869Z"/>
  <path class="exterior-L-prim" d="M475,161.658l-5,2.887V230.94l5,2.8871Z"/>
  <path class="exterior-R-prim" d="M25,184.752l5,2.887v66.395l-5,2.8871Z"/>
  <path class="exterior-R-prim" d="M190,280.0151l5,2.8869v66.3951l-5,2.8869Z"/>
  <path class="exterior-R-prim" d="M65,207.846l5,2.887v66.395l-5,2.8871Z"/>
  <path class="exterior-L-prim" d="M435,184.752l-5,2.887v66.395l5,2.8871Z"/>
  <path class="exterior-L-prim" d="M315,254.034l-3.75,2.165v67.839L315,326.09Z"/>
  <path class="exterior-R-prim" d="M145,254.034l3.75,2.165v67.839L145,326.09Z"/>
  <path class="exterior-R-prim" d="M105,230.94l3.75,2.165v67.839L105,302.996Z"/>
  <path class="exterior-L-prim" d="M355,230.94l-3.75,2.165v67.839l3.75,2.052Z"/>
  <path class="exterior-L-prim" d="M395,207.846l-3.75,2.165V277.85l3.75,2.052Z"/>
  <path class="crown-L-prim-dark" d="M262.5,336.3071v2.886l7.5,4.33v-2.886Z"/>
  <path class="crown-L-prim-dark" d="M467.5,217.95v2.887l7.5,4.33V222.28Z"/>
  <path class="crown-R-prim-dark" d="M32.5,241.044v2.887l-7.5,4.33v-2.8869Z"/>
  <path class="crown-R-prim-dark" d="M72.5,264.138v2.8871l-7.5,4.33v-2.8869Z"/>
  <path class="crown-L-prim-dark" d="M427.5,241.044v2.887l7.5,4.33v-2.8869Z"/>
  <path class="crown-L-prim-dark" d="M307.5,310.326v2.8871l7.5,4.33v-2.8869Z"/>
  <path class="crown-L-prim-dark" d="M347.5,287.232v2.8871l7.5,4.33v-2.8869Z"/>
  <path class="crown-L-prim-dark" d="M387.5,264.138v2.8871l7.5,4.33v-2.8869Z"/>
  <path class="crown-L-prim-dark" d="M312.5,258.3641l2.5,1.4439v-2.8869Z"/>
  <path class="crown-R-prim-dark" d="M147.5,258.3641,145,259.808v-2.8869Z"/>
  <path class="crown-R-prim-dark" d="M107.5,235.27l-2.5,1.444v-2.887Z"/>
  <path class="crown-L-prim-dark" d="M352.5,235.27l2.5,1.444v-2.887Z"/>
  <path class="crown-L-prim-dark" d="M392.5,212.1761l2.5,1.444V210.733Z"/>
  <path class="crown-R-prim-dark" d="M290,329.09l-20,11.547v2.886l20-11.547Z"/>
  <path class="crown-R-prim-dark" d="M495,210.733,475,222.28v2.8871l20-11.547Z"/>
  <path class="crown-L-prim-dark" d="M5,233.8271l20,11.547v2.8869L5,236.7141Z"/>
  <path class="crown-L-prim-dark" d="M45,256.9211l20,11.547v2.8869L45,259.808Z"/>
  <path class="crown-R-prim-dark" d="M455,233.8271l-20,11.547v2.8869l20-11.5469Z"/>
  <path class="crown-R-prim-dark" d="M330,305.996l-15,8.66v2.8869l15-8.661Z"/>
  <path class="crown-L-prim-dark" d="M130,305.996l15,8.66v2.8869l-15-8.661Z"/>
  <path class="crown-R-prim-dark" d="M370,282.902l-15,8.66v2.8869l15-8.661Z"/>
  <path class="crown-R-prim-dark" d="M410,259.808l-15,8.66v2.8869l15-8.661Z"/>
  <path class="crown-R-prim-dark" d="M327.5,249.704,315,256.9211v2.8869l12.5-7.217Z"/>
  <path class="crown-L-prim-dark" d="M132.5,249.704l12.5,7.2171v2.8869l-12.5-7.217Z"/>
  <path class="crown-L-prim-dark" d="M92.5,226.61l12.5,7.2171v2.887L92.5,229.497Z"/>
  <path class="crown-R-prim-dark" d="M367.5,226.61,355,233.8271v2.887l12.5-7.2171Z"/>
  <path class="crown-R-prim-dark" d="M407.5,203.5161,395,210.733V213.62l12.5-7.2171Z"/>
  <path class="crown-top-prim" d="M290,329.09l-5-2.8869V329.09l-15,8.66-5-2.8871-2.5,1.4441,7.5,4.33Z"/>
  <path class="crown-top-prim" d="M495,210.733l-5-2.887v2.887l-15,8.66-5-2.887-2.5,1.444,7.5,4.33Z"/>
  <path class="crown-top-prim" d="M5,233.8271l5-2.8871v2.8871l15,8.66,5-2.887,2.5,1.444-7.5,4.33Z"/>
  <path class="crown-top-prim" d="M45,256.9211l5-2.8871v2.8871l15,8.66,5-2.887,2.5,1.444-7.5,4.33Z"/>
  <path class="crown-top-prim" d="M455,233.8271l-5-2.8871v2.8871l-15,8.66-5-2.887-2.5,1.444,7.5,4.33Z"/>
  <path class="crown-top-prim" d="M330,305.996l-5-2.8869v2.8869l-10,5.773-5-2.887-2.5,1.444,7.5,4.33Z"/>
  <path class="crown-top-prim" d="M370,282.902l-5-2.8869v2.8869l-10,5.773-5-2.887-2.5,1.444,7.5,4.33Z"/>
  <path class="crown-top-prim" d="M410,259.808l-5-2.8869v2.8869l-10,5.773-5-2.887-2.5,1.444,7.5,4.33Z"/>
  <path class="exterior-R-light" d="M285,343.523l-15,8.661v-8.661l15-8.66Z"/>
  <path class="exterior-R-light" d="M327.5,318.986,315,326.2031v-8.66l12.5-7.217Z"/>
  <path class="exterior-L-light" d="M132.5,318.986l12.5,7.2171v-8.66l-12.5-7.217Z"/>
  <path class="exterior-L-light" d="M92.5,295.892l12.5,7.2171v-8.66l-12.5-7.217Z"/>
  <path class="exterior-L-light" d="M50,271.355l15,8.66v-8.66l-15-8.661Z"/>
  <path class="exterior-L-light" d="M10,248.261l15,8.66v-8.66L10,239.6Z"/>
  <path class="exterior-R-light" d="M367.5,295.892,355,303.1091v-8.66l12.5-7.217Z"/>
  <path class="exterior-R-light" d="M407.5,272.798,395,280.0151v-8.66l12.5-7.217Z"/>
  <path class="exterior-R-light" d="M450,248.261l-15,8.651v-8.66l15-8.652Z"/>
  <path class="exterior-R-light" d="M490,225.1671,475,233.81v-8.661l15-8.643Z"/>
  <path class="exterior-L-light" d="M270,352.184l-5-2.8869v-8.66l5,2.886Z"/>
  <path class="exterior-L-light" d="M315,326.2031l-5-2.8871v-8.66l5,2.8869Z"/>
  <path class="exterior-R-light" d="M145,326.2031l5-2.8871v-8.66l-5,2.8869Z"/>
  <path class="exterior-R-light" d="M105,303.1091l5-2.8871v-8.66l-5,2.8869Z"/>
  <path class="exterior-R-light" d="M65,280.0151l5-2.8871v-8.66l-5,2.8869Z"/>
  <path class="exterior-R-light" d="M25,256.9211l5-2.8871v-8.66l-5,2.8869Z"/>
  <path class="exterior-L-light" d="M355,303.1091l-5-2.8871v-8.66l5,2.8869Z"/>
  <path class="exterior-L-light" d="M395,280.0151l-5-2.8871v-8.66l5,2.8869Z"/>
  <path class="exterior-L-light" d="M435,256.912l-5-2.8869v-8.66l5,2.8869Z"/>
  <path class="exterior-L-light" d="M475,233.81l-5-2.887v-8.66l5,2.886Z"/>
  <path class="crown-L-prim-dark" d="M310,304.5521l5,2.8869v4.33l-5-2.887Z"/>
  <path class="crown-L-prim-dark" d="M350,281.4581l5,2.8869v4.33l-5-2.887Z"/>
  <path class="crown-L-prim-dark" d="M390,258.3641l5,2.8869v4.33l-5-2.887Z"/>
  <path class="crown-top-prim" d="M311.25,303.831l-1.25.7211,5,2.8869,11.25-6.495-2.5-1.443v1.443L315,305.996Z"/>
  <path class="crown-top-prim" d="M351.25,280.737l-1.25.7211,5,2.8869,11.25-6.495-2.5-1.4439V277.85L355,282.902Z"/>
  <path class="crown-top-prim" d="M391.25,257.643l-1.25.7211,5,2.8869,11.25-6.495-2.5-1.4439v1.4439L395,259.808Z"/>
  <path class="crown-R-prim-dark" d="M315,311.769l11.25-6.495v-4.33L315,307.439Z"/>
  <path class="crown-R-prim-dark" d="M355,288.675l11.25-6.495v-4.33L355,284.345Z"/>
  <path class="crown-R-prim-dark" d="M395,265.581l11.25-6.495v-4.33L395,261.251Z"/>
  <path class="crown-L-prim-dark" d="M311.25,263.4161,315,265.581v1.4441l-3.75-2.166Z"/>
  <path class="crown-R-prim-dark" d="M148.75,263.4161,145,265.581v1.4441l3.75-2.1651Z"/>
  <path class="crown-R-prim-dark" d="M108.75,240.3221,105,242.487v1.443l3.75-2.1649Z"/>
  <path class="crown-L-prim-dark" d="M351.25,240.3221,355,242.487v1.443l-3.75-2.1649Z"/>
  <path class="crown-L-prim-dark" d="M391.25,217.228l3.75,2.165v1.443l-3.75-2.1649Z"/>
  <path class="crown-R-prim-dark" d="M323.75,260.529,315,265.581v1.4441l8.75-5.052Z"/>
  <path class="crown-L-prim-dark" d="M136.25,260.529l8.75,5.052v1.4441l-8.75-5.052Z"/>
  <path class="crown-L-prim-dark" d="M96.25,237.435l8.75,5.052v1.443l-8.75-5.051Z"/>
  <path class="crown-R-prim-dark" d="M363.75,237.435,355,242.487v1.443l8.75-5.051Z"/>
  <path class="crown-R-prim-dark" d="M403.75,214.341,395,219.393v1.443l8.75-5.051Z"/>
  <path class="exterior-R-dark" d="M253.75,312.491l-1.25.7221V295.892l1.25-.722Z"/>
  <path class="exterior-L-dark" d="M206.25,312.491l1.25.7221V295.892l-1.25-.722Z"/>
  <path class="exterior-R-dark" d="M458.75,194.134l-1.25.722V177.535l1.25-.721Z"/>
  <path class="exterior-R-dark" d="M253.75,341.358l-1.25.722V324.76l1.25-.7221Z"/>
  <path class="exterior-L-dark" d="M206.25,341.358l1.25.722V324.76l-1.25-.7221Z"/>
  <g>
    <path d="M35,196.299l12.5,7.2171V220.837L35,213.62Z"/>
    <path class="top-prim" d="M47.5,223.7231l-15-8.66V209.29l2.5-1.444V213.62l12.5,7.2169Z"/>
    <path class="exterior-R-light" d="M32.5,194.856l2.5,1.443V213.62l-2.5,1.4429Z"/>
    <path d="M35,225.1671l12.5,7.2169v17.32L35,242.487Z"/>
    <path class="top-prim" d="M47.5,252.591l2.5,1.443v1.444L31.25,244.652l1.25-.721v-5.774l2.5-1.4429v5.7729l12.5,7.217Z"/>
    <path class="exterior-R-light" d="M32.5,223.7231l2.5,1.444v17.32l-2.5,1.444Z"/>
    <path class="exterior-L-dark" d="M35,200.629l12.5,7.217v1.444L35,202.0731Z"/>
    <path class="exterior-L-dark" d="M35,229.497l12.5,7.2171v1.4429L35,230.94Z"/>
    <path class="exterior-L-dark" d="M41.25,217.228l1.25.722V200.629l-1.25-.721Z"/>
    <path class="exterior-L-dark" d="M41.25,246.096l1.25.7211v-17.32l-1.25-.7219Z"/>
  </g>
  <path class="exterior-R-dark" d="M458.75,223.002l-1.25.7211v-17.32l1.25-.722Z"/>
  <path class="exterior-R-dark" d="M293.75,289.397l-1.25.7221V272.707l1.25-.631Z"/>
  <path class="exterior-R-dark" d="M332.5,267.0251l-1.25.7209v-17.32l1.25-.7221Z"/>
  <path class="exterior-R-dark" d="M372.5,243.931l-1.25.721V227.241l1.25-.631Z"/>
  <path class="exterior-R-dark" d="M412.5,220.837l-1.25.721v-17.32l1.25-.7219Z"/>
  <path class="exterior-R-dark" d="M293.75,318.264l-1.25.722V301.575l1.25-.631Z"/>
  <path class="exterior-R-dark" d="M332.5,295.793l-1.25.721V279.293l1.25-.7209Z"/>
  <path class="exterior-R-dark" d="M372.5,272.707l-1.25.8131V256.199l1.25-.721Z"/>
  <path class="exterior-R-dark" d="M412.5,249.704l-1.25.7221V233.105l1.25-.721Z"/>
  <path class="exterior-R-dark" d="M301.25,285.0671l-1.25.7209v-17.32l1.25-.7221Z"/>
  <path class="exterior-R-dark" d="M340,262.694l-1.25.7221v-17.32l1.25-.7219Z"/>
  <path class="exterior-R-dark" d="M380,239.6l-1.25.7221v-17.32l1.25-.722Z"/>
  <path class="exterior-R-dark" d="M420,216.506l-1.25.722v-17.32l1.25-.722Z"/>
  <path class="exterior-R-dark" d="M301.25,313.934l-1.25.7221V297.335l1.25-.7209Z"/>
  <g>
    <path class="cls-1" d="M306.25,354.258,287.5,365.0831V382.404l18.75-10.8259Z"/>
    <path class="top-prim" d="M287.5,385.29l21.25-12.268v-5.774l-2.5-1.443v5.7731L287.5,382.404Z"/>
    <path class="exterior-L-light" d="M308.75,352.815l-2.5,1.443v17.32l2.5,1.4439Z"/>
    <path class="exterior-R-dark" d="M306.25,358.579,287.5,369.405v1.4431l18.75-10.8251Z"/>
    <path class="exterior-R-dark" d="M293.75,378.795l-1.25.722V362.196l1.25-.721Z"/>
    <path class="exterior-R-dark" d="M301.25,374.465l-1.25.7221V357.866l1.25-.7209Z"/>
  </g>
  <g>
    <path class="cls-1" d="M345,331.795,326.25,342.62V365.805L345,354.98Z"/>
    <path class="cls-2" d="M326.25,368.6921,347.5,356.423v-5.774l-2.5-1.443v5.774l-18.75,10.825Z"/>
    <path class="exterior-L-light" d="M347.5,330.351l-2.5,1.444V354.98l2.5,1.443Z"/>
    <path class="exterior-R-dark" d="M345,336.116l-18.75,10.8261v1.443L345,337.56Z"/>
    <path class="exterior-R-dark" d="M332.5,362.196l-1.25.722V339.733l1.25-.721Z"/>
    <path class="exterior-R-dark" d="M340,357.866l-1.25.7221V335.403l1.25-.7209Z"/>
  </g>
  <g>
    <path class="cls-1" d="M385,308.7921,366.25,319.617v17.321L385,326.112Z"/>
    <path class="top-prim" d="M366.25,339.824l21.25-12.269v-5.773l-2.5-1.4429v5.7729l-18.75,10.826Z"/>
    <path class="exterior-L-light" d="M387.5,307.3481l-2.5,1.444v17.32l2.5,1.443Z"/>
    <path class="exterior-R-dark" d="M385,313.113l-18.75,10.825v1.444L385,314.556Z"/>
    <path class="exterior-R-dark" d="M372.5,333.329l-1.25.7221V316.73l1.25-.721Z"/>
    <path class="exterior-R-dark" d="M380,328.9991l-1.25.7219V312.4l1.25-.7221Z"/>
  </g>
  <g>
    <path class="cls-1" d="M425,285.6981,406.25,296.523v17.3211L425,303.018Z"/>
    <path class="top-prim" d="M406.25,316.73l21.25-12.269v-5.773l-2.5-1.4429v5.7729l-18.75,10.8261Z"/>
    <path class="exterior-L-light" d="M427.5,284.254l-2.5,1.4441v17.32l2.5,1.443Z"/>
    <path class="exterior-R-dark" d="M425,290.019l-18.75,10.8251v1.4439L425,291.462Z"/>
    <path class="exterior-R-dark" d="M412.5,310.235l-1.25.722V293.636l1.25-.722Z"/>
    <path class="exterior-R-dark" d="M420,305.905l-1.25.722V289.306l1.25-.722Z"/>
  </g>
  <g>
    <path class="cls-1" d="M465,262.6041,446.25,273.429v23.094L465,285.6981Z"/>
    <path class="cls-2" d="M446.25,299.41l21.25-12.2689V281.367l-2.5-1.443v5.7741L446.25,296.523Z"/>
    <path class="exterior-L-light" d="M467.5,261.16l-2.5,1.4441v23.094l2.5,1.443Z"/>
    <path class="exterior-R-dark" d="M465,266.925,446.25,277.75v1.4439L465,268.3691Z"/>
    <path class="exterior-R-dark" d="M452.5,292.914l-1.25.722V270.5421l1.25-.7211Z"/>
    <path class="exterior-R-dark" d="M460,288.584l-1.25.722V266.212L460,265.49Z"/>
  </g>
  <g>
    <path class="cls-1" d="M262.5,379.517l-18.75,10.825v17.321l18.75-10.8249Z"/>
    <path class="top-prim" d="M243.75,410.55,265,398.2811V392.507l-2.5-1.443v5.7741L243.75,407.663Z"/>
    <path class="exterior-L-light" d="M265,378.074l-2.5,1.443v17.3211l2.5,1.443Z"/>
    <path class="exterior-R-dark" d="M262.5,383.8391,243.75,394.664v1.443l18.75-10.825Z"/>
    <path class="exterior-R-dark" d="M250,404.054l-1.25.7221v-17.32l1.25-.7219Z"/>
    <path class="exterior-R-dark" d="M257.5,399.7241l-1.25.7219V383.1251l1.25-.7211Z"/>
  </g>
  <g>
    <path d="M153.75,264.8591,172.5,275.685v17.32L153.75,282.18Z"/>
    <path class="top-prim" d="M172.5,295.892l-21.25-12.269V277.85l2.5-1.443v5.773l18.75,10.8251Z"/>
    <path class="exterior-R-light" d="M151.25,263.4161l2.5,1.443V282.18l-2.5,1.443Z"/>
    <path d="M153.75,293.727l18.75,10.8251V321.873l-18.75-10.8259Z"/>
    <path class="top-prim" d="M172.5,324.76l2.5,1.443v1.443L150,313.212l1.25-.721v-5.774l2.5-1.443v5.7731L172.5,321.873Z"/>
    <path class="exterior-R-light" d="M151.25,292.284l2.5,1.443v17.32l-2.5,1.4439Z"/>
    <path class="exterior-L-dark" d="M153.75,269.181l18.75,10.825v1.444l-18.75-10.8259Z"/>
    <path class="exterior-L-dark" d="M153.75,298.048l18.75,10.8261v1.443L153.75,299.492Z"/>
    <path class="exterior-L-dark" d="M166.25,289.306l1.25.722V272.707l-1.25-.721Z"/>
    <path class="exterior-L-dark" d="M166.25,318.174l1.25.7211v-17.32l-1.25-.722Z"/>
    <path class="exterior-L-dark" d="M158.75,284.976l1.25.7221V268.377l-1.25-.722Z"/>
    <path class="exterior-L-dark" d="M158.75,313.8431l1.25.7219v-17.32l-1.25-.7221Z"/>
  </g>
  <g>
    <path d="M115,242.478l18.75,10.826v17.32L115,259.799Z"/>
    <path class="top-prim" d="M133.75,273.511,112.5,261.242v-5.7729l2.5-1.444v5.7739l18.75,10.8251Z"/>
    <path class="exterior-R-light" d="M112.5,241.035l2.5,1.443v17.321l-2.5,1.443Z"/>
    <path d="M115,271.346l18.75,10.8251V299.492L115,288.6661Z"/>
    <path class="top-prim" d="M133.75,302.379l2.5,1.4431v1.443l-25-14.4341,1.25-.721v-5.774l2.5-1.443v5.7731l18.75,10.8259Z"/>
    <path class="exterior-R-light" d="M112.5,269.903l2.5,1.443v17.32l-2.5,1.4439Z"/>
    <path class="exterior-L-dark" d="M115,246.8l18.75,10.8251v1.4439L115,248.243Z"/>
    <path class="exterior-L-dark" d="M115,275.6671l18.75,10.8259v1.443L115,277.111Z"/>
    <path class="exterior-L-dark" d="M127.5,266.925l1.25.722V250.326l-1.25-.721Z"/>
    <path class="exterior-L-dark" d="M127.5,295.793l1.25.721v-17.32l-1.25-.722Z"/>
    <path class="exterior-L-dark" d="M120,262.595l1.25.7221V245.996l-1.25-.722Z"/>
    <path class="exterior-L-dark" d="M120,291.462l1.25.722v-17.32L120,274.142Z"/>
  </g>
  <g>
    <path d="M75,219.393l18.75,10.8251V247.539L75,236.7141Z"/>
    <path class="top-prim" d="M93.75,250.4261,72.5,238.157v-5.774L75,230.94v5.7741L93.75,247.539Z"/>
    <path class="exterior-R-light" d="M72.5,217.95l2.5,1.443v17.3211l-2.5,1.4429Z"/>
    <path d="M75,248.261l18.75,10.825v17.321L75,265.581Z"/>
    <path class="top-prim" d="M93.75,279.293l2.5,1.444v1.443l-25-14.434,1.25-.722v-5.773l2.5-1.443v5.773l18.75,10.826Z"/>
    <path class="exterior-R-light" d="M72.5,246.8171,75,248.261v17.32l-2.5,1.443Z"/>
    <path class="exterior-L-dark" d="M75,223.715,93.75,234.54v1.443L75,225.158Z"/>
    <path class="exterior-L-dark" d="M75,252.582l18.75,10.825v1.444L75,254.0251Z"/>
    <path class="exterior-L-dark" d="M87.5,243.84l1.25.721v-17.32l-1.25-.722Z"/>
    <path class="exterior-L-dark" d="M87.5,272.707l1.25.722V256.108l-1.25-.721Z"/>
    <path class="exterior-L-dark" d="M80,239.51l1.25.7209v-17.32L80,222.189Z"/>
    <path class="exterior-L-dark" d="M80,268.377l1.25.7221V251.778L80,251.0571Z"/>
  </g>
  <path class="exterior-R-dark" d="M340,291.462l-1.25.722V274.9631l1.25-.7221Z"/>
  <path class="exterior-R-dark" d="M380,268.4681l-1.25.7219V251.8691l1.25-.7221Z"/>
  <path class="exterior-R-dark" d="M420,245.3741l-1.25.7219V228.684l1.25-.631Z"/>
  <path class="crown-R-prim-dark" d="M197.5,336.3071v2.886l-7.5,4.33v-2.886Z"/>
  <path class="crown-L-prim-dark" d="M170,329.09l20,11.547v2.886l-20-11.547Z"/>
  <path class="crown-top-prim" d="M170,329.09l5-2.8869V329.09l15,8.66,5-2.8871,2.5,1.4441-7.5,4.33Z"/>
  <path class="crown-R-prim-dark" d="M152.5,310.326v2.8871l-7.5,4.33v-2.8869Z"/>
  <path class="crown-top-prim" d="M130,305.996l5-2.8869v2.8869l10,5.773,5-2.886,2.5,1.443-7.5,4.33Z"/>
  <path class="crown-R-prim-dark" d="M112.5,287.232v2.8871l-7.5,4.33v-2.8869Z"/>
  <path class="crown-L-prim-dark" d="M90,282.902l15,8.66v2.8869l-15-8.661Z"/>
  <path class="crown-top-prim" d="M90,282.902l5-2.8869v2.8869l10,5.773,5-2.887,2.5,1.444-7.5,4.33Z"/>
  <path class="crown-R-prim-dark" d="M110,281.4581l-5,2.8869v4.33l5-2.887Z"/>
  <path class="crown-top-prim" d="M108.75,280.737l1.25.7211-5,2.8869L93.75,277.85l2.5-1.4439V277.85l8.75,5.052Z"/>
  <path class="crown-L-prim-dark" d="M105,288.675,93.75,282.18v-4.33L105,284.345Z"/>
  <path class="crown-R-prim-dark" d="M150,304.5521l-5,2.8869v4.33l5-2.887Z"/>
  <path class="crown-top-prim" d="M148.75,303.831l1.25.7211-5,2.8869-11.25-6.495,2.5-1.443v1.443l8.75,5.052Z"/>
  <path class="crown-L-prim-dark" d="M145,311.769l-11.25-6.495v-4.33L145,307.439Z"/>
  <g>
    <path d="M196.25,378.886,215,389.711v23.095L196.25,401.98Z"/>
    <path class="cls-2" d="M215,415.6921,193.75,403.424V397.65l2.5-1.4431v5.773L215,412.806Z"/>
    <path class="exterior-R-light" d="M193.75,377.4431l2.5,1.4429V401.98l-2.5,1.444Z"/>
    <path class="exterior-L-dark" d="M196.25,383.216,215,394.0421v1.4339L196.25,384.66Z"/>
    <path class="exterior-L-dark" d="M208.75,409.1971l1.25.7219V386.825l-1.25-.722Z"/>
    <path class="exterior-L-dark" d="M201.25,404.867l1.25.7221v-23.094l-1.25-.7221Z"/>
  </g>
  <g>
    <path d="M153.75,354.3491,172.5,365.174v17.3211L153.75,371.669Z"/>
    <path class="top-prim" d="M172.5,385.381l-21.25-12.268v-5.7739l2.5-1.443v5.7729l18.75,10.8261Z"/>
    <path class="exterior-R-light" d="M151.25,352.905l2.5,1.4441v17.32l-2.5,1.444Z"/>
    <path class="exterior-L-dark" d="M153.75,358.679l18.75,10.825v1.435l-18.75-10.817Z"/>
    <path class="exterior-L-dark" d="M166.25,378.886l1.25.722V362.287l-1.25-.721Z"/>
    <path class="exterior-L-dark" d="M158.75,374.556l1.25.722V357.957l-1.25-.721Z"/>
  </g>
  <g>
    <path d="M115,331.976l18.75,10.8261v23.094L115,355.07Z"/>
    <path class="cls-2" d="M133.75,368.783,112.5,356.514V350.74l2.5-1.443V355.07l18.75,10.8261Z"/>
    <path class="exterior-R-light" d="M112.5,330.533l2.5,1.443V355.07l-2.5,1.444Z"/>
    <path class="exterior-L-dark" d="M115,336.3071l18.75,10.8249v1.4351L115,337.75Z"/>
    <path class="exterior-L-dark" d="M127.5,362.287l1.25.722V339.915l-1.25-.7219Z"/>
    <path class="exterior-L-dark" d="M120,357.957l1.25.722V335.585l-1.25-.722Z"/>
  </g>
  <g>
    <path d="M75,308.883l18.75,10.8251v17.32L75,326.2031Z"/>
    <path class="top-prim" d="M93.75,339.915,72.5,327.6461V321.873L75,320.43v5.7731L93.75,337.028Z"/>
    <path class="exterior-R-light" d="M72.5,307.439l2.5,1.443v17.3211l-2.5,1.443Z"/>
    <path class="exterior-L-dark" d="M75,313.2131,93.75,324.038v1.4351L75,314.6561Z"/>
    <path class="exterior-L-dark" d="M87.5,333.42l1.25.722V316.821l-1.25-.7219Z"/>
    <path class="exterior-L-dark" d="M80,329.09l1.25.7221V312.491L80,311.769Z"/>
  </g>
  <g>
    <path d="M31.25,283.623,50,294.449v23.094L31.25,306.717Z"/>
    <path class="cls-2" d="M50,320.429,28.75,308.1611v-11.547l2.5-1.4441v11.547L50,317.543Z"/>
    <path class="exterior-R-light" d="M28.75,282.18l2.5,1.443v23.094l-2.5,1.4441Z"/>
    <path class="exterior-L-dark" d="M31.25,287.954,50,298.779v1.4351L31.25,289.397Z"/>
    <path class="exterior-L-dark" d="M43.75,313.934l1.25.7221v-23.094l-1.25-.7221Z"/>
    <path class="exterior-L-dark" d="M36.25,309.6041l1.25.7219V287.232l-1.25-.7219Z"/>
  </g>
  <path class="exterior-L-light" d="M175,343.523l15,8.661v-8.661l-15-8.66Z"/>
  <path class="crown-L-prim-dark" d="M210,352.1251l20,11.547v2.8869l-20-11.547Z"/>
  <path class="crown-top-prim" d="M210,352.184l5-2.8869v2.8869l15,8.66v2.8869Z"/>
  <path class="exterior-R-light" d="M190,352.1841l5-2.887v-8.66l-5,2.886Z"/>
  <path class="crown-R-prim" d="M230,300.222,500,144.338V132.791L230,287.998Z"/>
  <path class="crown-top-prim" d="M500,132.791,270,0,0,155.885l230,132.79Z"/>
  <path class="crown-L-prim" d="M0,155.885v11.547l230,132.79V288.675Z"/>
  <path class="crown-R-prim-dark" d="M495,147.224l-5,8.661L230,305.996v-5.774Z"/>
  <path class="crown-L-prim-dark" d="M5,170.3181l5,8.661,96.982,55.9919L230,305.996v-5.774Z"/>
  <path id="anchor_10_282.902_480" class="crown-top-prim" d="M490,132.791,230,282.902,10,155.885,270,5.774Z"/>
  </g>
</svg>
