<svg id="Layer_1" data-name="Layer 1" xmlns="http://www.w3.org/2000/svg" viewBox="0 0 280.0001 311.7692">
  <defs>
    <style>
      .curtain-L-prim-light {
        fill: #196273;
      }

      .exterior-L-prim {
        fill: #73302f;
      }

      .exterior-R-prim {
        fill: #d15752;
      }

      .curtain-L-prim-dark {
        fill: #11424d;
      }

      .top-light {
        fill: #fac7c6;
      }

      .top-prim {
        fill: #dd8987;
      }

      .cls-1 {
        fill: #dbc8b9;
      }

      .curtain-R-prim-dark {
        fill: #21788c;
      }

      .cls-2 {
        fill: #d5bead;
      }

      .cls-3 {
        fill: #2e3031;
      }

      .cls-4 {
        fill: #0a0a0a;
      }

      .cls-5 {
        fill: #5c6067;
      }

      .cls-6 {
        fill: #7b7d83;
      }

      .curtain-R-prim-light {
        fill: #2b95ac;
      }

      .cls-7 {
        fill: #d2d2d2;
      }

      .cls-8 {
        fill: #a2a2a1;
      }

      .cls-9 {
        fill: #4b4b4b;
      }

      .cls-10 {
        fill: #6c6d6d;
      }

      .cls-11 {
        fill: #f7f8f8;
      }

      .cls-12 {
        fill: #0e78be;
      }

      .cls-13 {
        fill: #d31e47;
      }

      .cls-14 {
        fill: #fff;
      }
    </style>
  </defs>
  <title>Artboard 61</title>
  <g id="root">
    <g>
      <path id="windows-L4" class="curtain-L-prim-light" d="M182.5,272.6847v25.9808l-30-17.32V255.3643Z"/>
      <path id="body-L1" class="exterior-L-prim" d="M35,210.7329H25v23.094l5,2.8867,5-2.8867Z"/>
      <path id="body-R2" class="exterior-R-prim" d="M30,236.7136V210.7329l5,2.8867v20.2073Z"/>
      <path id="Path" class="curtain-L-prim-dark" d="M167.5,290.0054v-23.094l7.5,4.33v23.0939Z"/>
      <path id="body-L1-2" data-name="body-L1" class="exterior-L-prim" d="M67.5,229.4967h-10v23.094l5,2.8868,5-2.8867Z"/>
      <path id="body-R2-2" data-name="body-R2" class="exterior-R-prim" d="M62.5,255.4775V229.4967l5,2.8868v20.2072Z"/>
      <path id="body-L1-3" data-name="body-L1" class="exterior-L-prim" d="M100,248.2606H90v23.094l5,2.8867,5-2.8866Z"/>
      <path id="body-R2-3" data-name="body-R2" class="exterior-R-prim" d="M95,274.2413V248.1475l5,2.8867v20.32Z"/>
      <path id="body-L1-4" data-name="body-L1" class="exterior-L-prim" d="M132.5,267.0245l-10-6v29.094l5,2.8867,5-2.8865Z"/>
      <path id="body-R2-4" data-name="body-R2" class="exterior-R-prim" d="M127.5,293.0052V263.9113l5,2.8867v23.32Z"/>
      <path id="body-L1-5" data-name="body-L1" class="exterior-L-prim" d="M160,311.7692l5-2.8868V280.0149l-5,2.8867-5-2.8867v28.8675Z"/>
      <path id="body-R2-5" data-name="body-R2" class="exterior-R-prim" d="M160,282.9016l5-2.8867v28.8675l-5,2.8868Z"/>
      <path id="top-T1" class="top-light" d="M160,184.7521,280,115.47,120,23.094,0,92.376Z"/>
      <path id="top-T2" class="top-prim" d="M10,92.376,120,28.8676,270,115.47,160,178.9786Z"/>
      <path id="Path-2" data-name="Path" class="exterior-L-prim" d="M130,40.4146V34.641L270,115.47l-5,2.8868Z"/>
      <path id="Path-3" data-name="Path" class="exterior-R-prim" d="M120,28.8676V34.641L15,95.2628,10,92.376Z"/>
      <path id="Path-4" data-name="Path" class="cls-1" d="M30,103.9231l115,66.3953,15-8.66L45,95.2628Z"/>
      <path id="body-L1-6" data-name="body-L1" class="exterior-L-prim" d="M30,80.8291l-5-2.8867v17.32L30,98.15Z"/>
      <path id="body-R2-6" data-name="body-R2" class="exterior-R-prim" d="M30,98.15v-17.32l5-2.8867v17.32Z"/>
      <path id="body-L1-7" data-name="body-L1" class="exterior-R-prim" d="M250,103.923l5-2.8866v17.32l-5,2.8867Z"/>
      <path id="body-R2-7" data-name="body-R2" class="exterior-L-prim" d="M250,121.2435v-17.32l-5-2.8866v17.32Z"/>
      <path id="windows-R1" class="curtain-R-prim-dark" d="M185,268.4679,280,213.62v28.8676l-95,54.8482Z"/>
      <path id="Path-5" data-name="Path" class="cls-2" d="M75,129.9041l5-2.8869L75,124.13l-5,2.8868Z"/>
      <path id="Path-6" data-name="Path" class="cls-2" d="M65,124.13l5-2.8866-5-2.8869-5,2.8869Z"/>
      <path id="Path-7" data-name="Path" class="cls-2" d="M115,152.998l5-2.8867-5-2.8868-5,2.8868Z"/>
      <path id="Path-8" data-name="Path" class="cls-2" d="M135,164.5449l5-2.8867-5-2.8867-5,2.8867Z"/>
      <path id="Path-9" data-name="Path" class="cls-2" d="M145,170.3185l5-2.8869-5-2.8868-5,2.8868Z"/>
      <path id="Path-10" data-name="Path" class="cls-2" d="M45,112.5834l5-2.8866L45,106.81l-5,2.8869Z"/>
      <path id="Path-11" data-name="Path" class="cls-2" d="M95,141.451l5-2.8868-5-2.8867-5,2.8867Z"/>
      <path id="Path-12" data-name="Path" class="cls-2" d="M35,106.81l5-2.8868-5-2.8867-5,2.8867Z"/>
      <path id="Path-13" data-name="Path" class="cls-2" d="M85,135.6775l5-2.8867-5-2.8869-5,2.8869Z"/>
      <path id="Path-14" data-name="Path" class="cls-2" d="M55,118.3569l5-2.8868-5-2.8867L50,115.47Z"/>
      <path id="Path-15" data-name="Path" class="cls-2" d="M105,147.2245l5-2.8867-5-2.8869-5,2.8869Z"/>
      <path id="Path-16" data-name="Path" class="cls-2" d="M125,158.7715l5-2.8869-5-2.8868-5,2.8868Z"/>
      <path id="Path-17" data-name="Path" class="cls-2" d="M85,129.9039l5-2.8867L85,124.13l-5,2.8868Z"/>
      <path id="Path-18" data-name="Path" class="cls-2" d="M75,124.13l5-2.8866-5-2.8869-5,2.8869Z"/>
      <path id="Path-19" data-name="Path" class="cls-2" d="M125,152.998l5-2.8868-5-2.8867-5,2.8867Z"/>
      <path id="Path-20" data-name="Path" class="cls-2" d="M145,164.5449l5-2.8868-5-2.8866-5,2.8866Z"/>
      <path id="Path-21" data-name="Path" class="cls-2" d="M55,112.5834l5-2.8867L55,106.81l-5,2.8868Z"/>
      <path id="Path-22" data-name="Path" class="cls-2" d="M105,141.451l5-2.8868-5-2.8868-5,2.8868Z"/>
      <path id="Path-23" data-name="Path" class="cls-2" d="M45,106.81l5-2.8868-5-2.8867-5,2.8867Z"/>
      <path id="Path-24" data-name="Path" class="cls-2" d="M95,135.6774l5-2.8866-5-2.8869-5,2.8869Z"/>
      <path id="Path-25" data-name="Path" class="cls-2" d="M65,118.3569l5-2.8868-5-2.8867L60,115.47Z"/>
      <path id="Path-26" data-name="Path" class="cls-2" d="M115,147.2245l5-2.8867-5-2.8869-5,2.8869Z"/>
      <path id="Path-27" data-name="Path" class="cls-2" d="M135,158.7714l5-2.8868-5-2.8868-5,2.8868Z"/>
      <path id="Path-28" data-name="Path" class="cls-2" d="M85,124.13l5-2.8866-5-2.8869-5,2.8869Z"/>
      <path id="Path-29" data-name="Path" class="cls-2" d="M75,118.3569l5-2.8867-5-2.8868L70,115.47Z"/>
      <path id="Path-30" data-name="Path" class="cls-2" d="M125,147.2245l5-2.8867-5-2.8869-5,2.8869Z"/>
      <path id="Path-31" data-name="Path" class="cls-2" d="M145,158.7715l5-2.8869-5-2.8867-5,2.8867Z"/>
      <path id="Path-32" data-name="Path" class="cls-2" d="M155,164.5448l5-2.8867-5-2.8867-5,2.8867Z"/>
      <path id="Path-33" data-name="Path" class="cls-2" d="M55,106.81l5-2.8868-5-2.8867-5,2.8867Z"/>
      <path id="Path-34" data-name="Path" class="cls-2" d="M105,135.6774l5-2.8866-5-2.8869-5,2.8869Z"/>
      <path id="Path-35" data-name="Path" class="cls-2" d="M45,101.0364,50,98.15l-5-2.8869L40,98.15Z"/>
      <path id="Path-36" data-name="Path" class="cls-2" d="M95,129.9039l5-2.8867L95,124.13l-5,2.8868Z"/>
      <path id="Path-37" data-name="Path" class="cls-2" d="M65,112.5834l5-2.8867L65,106.81l-5,2.8869Z"/>
      <path id="Path-38" data-name="Path" class="cls-2" d="M115,141.4509l5-2.8867-5-2.8868-5,2.8868Z"/>
      <path id="Path-39" data-name="Path" class="cls-2" d="M135,152.9978l5-2.8867-5-2.8867-5,2.8867Z"/>
      <path id="windows-L4-2" data-name="windows-L4" class="cls-3" d="M0,196.2991l160,92.3761V184.7521L0,92.376Z"/>
      <path id="windows-L1" class="cls-4" d="M0,115.47V103.9231l160,92.376v11.547Z"/>
      <path id="windows-L1-2" data-name="windows-L1" class="cls-4" d="M0,161.6581v-11.547l160,92.3761v11.547Z"/>
      <path id="windows-L1-3" data-name="windows-L1" class="cls-4" d="M0,138.5641v-11.547l160,92.3761V230.94Z"/>
      <path id="windows-L1-4" data-name="windows-L1" class="cls-4" d="M0,184.7521v-11.547l160,92.3761v11.547Z"/>
      <path id="windows-R1-2" data-name="windows-R1" class="cls-5" d="M280,115.47V219.3932l-120,69.282V184.7521Z"/>
      <path id="windows-R4" class="cls-6" d="M160,184.7521,280,115.47v11.547l-120,69.282Z"/>
      <path id="windows-R4-2" data-name="windows-R4" class="cls-6" d="M160,207.8461l120-69.282v11.547L160,219.3932Z"/>
      <path id="windows-R4-3" data-name="windows-R4" class="cls-6" d="M160,230.94l120-69.2821v11.547L160,242.4872Z"/>
      <path id="windows-R4-4" data-name="windows-R4" class="cls-6" d="M160,254.0342l120-69.2821v11.547L160,265.5812Z"/>
      <path id="windows-R4-5" data-name="windows-R4" class="cls-6" d="M160,277.1282l120-69.282v11.547l-120,69.282Z"/>
      <path id="body-L1-8" data-name="body-L1" class="exterior-L-prim" d="M62.5,99.3665l-5-2.8868v17.547l5,2.8868Z"/>
      <path id="body-R2-8" data-name="body-R2" class="exterior-R-prim" d="M62.5,116.9135v-14.547l5-3.1133v14.7735Z"/>
      <path id="body-L1-9" data-name="body-L1" class="exterior-L-prim" d="M95,118.3568,90,115.47v17.3205l5,2.8868Z"/>
      <path id="body-R2-9" data-name="body-R2" class="exterior-R-prim" d="M95,135.6774V118.3568l5-2.8867v17.3205Z"/>
      <path id="body-L1-10" data-name="body-L1" class="exterior-L-prim" d="M127.5,136.8943l-5-2.8867v17.547l5,2.8867Z"/>
      <path id="body-R2-10" data-name="body-R2" class="exterior-R-prim" d="M127.5,154.4413v-14.547l5-3.1133v14.7736Z"/>
      <path id="body-R2-11" data-name="body-R2" class="exterior-R-prim" d="M160,155.8846l5-2.8867v17.3206l-5,2.8866Z"/>
      <path id="body-L1-11" data-name="body-L1" class="exterior-L-prim" d="M160,173.2051v-17.32l-5-2.8867v17.3206Z"/>
      <path id="body-R2-12" data-name="body-R2" class="exterior-R-prim" d="M190,138.5641l5-2.8867v17.32l-5,2.8868Z"/>
      <path id="body-L1-12" data-name="body-L1" class="exterior-L-prim" d="M190,155.8846V138.5641l-5,2.8867v11.547Z"/>
      <path id="body-R2-13" data-name="body-R2" class="exterior-R-prim" d="M220,121.2437l5-2.8869v17.3206l-5,2.8867Z"/>
      <path id="body-L1-13" data-name="body-L1" class="exterior-L-prim" d="M220,138.5641v-17.32l-5-2.8869v17.3206Z"/>
      <path id="anchor_0_161.658_280" class="top-light" d="M160,161.6581,0,69.2821,120,0,280,92.3761Z"/>
      <path id="Path-40" data-name="Path" class="curtain-R-prim-light" d="M265,251.1475v-23.094l-7.5,4.33v23.094Z"/>
      <path id="Path-41" data-name="Path" class="curtain-R-prim-light" d="M235,268.4678v-23.094l-7.5,4.33v23.094Z"/>
      <path id="Path-42" data-name="Path" class="curtain-R-prim-light" d="M205,285.7883v-23.094l-7.5,4.33v23.094Z"/>
      <path id="Path-43" data-name="Path" class="curtain-R-prim-light" d="M280,242.4872v-23.094l-7.5,4.33v23.094Z"/>
      <path id="Path-44" data-name="Path" class="curtain-R-prim-light" d="M250,259.8076v-23.094l-7.5,4.33v23.094Z"/>
      <path id="Path-45" data-name="Path" class="curtain-R-prim-light" d="M220,277.1282v-23.094l-7.5,4.33v23.094Z"/>
      <path id="Path-46" data-name="Path" class="curtain-R-prim-light" d="M190,294.4486v-23.094l-7.5,4.33v23.094Z"/>
    </g>
    <g id="Group">
      <g id="Group-2" data-name="Group">
        <path id="Path-47" data-name="Path" class="cls-7" d="M230.2876,149.8436v33.4111l1.702.9824,44.2531-25.55v-33.41l-1.702-.9831Z"/>
        <path id="Path-48" data-name="Path" class="cls-8" d="M230.2876,149.8436l1.702.9824v33.4111l-1.702-.9824Z"/>
        <path id="Path-49" data-name="Path" class="cls-9" d="M232.8407,179.8152l-.8511.4915-1.702-.9831v3.9311l1.702.9824.8511-.4916Z"/>
        <path id="Path-50" data-name="Path" class="cls-9" d="M232.8407,150.3351v2.948l-.8511.4908-1.702-.9824v-2.9479l1.702.9824Z"/>
        <path id="Path-51" data-name="Path" class="cls-10" d="M276.2427,152.7915l-44.2531,25.55v5.8959l44.2531-25.55Z"/>
        <path id="Path-52" data-name="Path" class="cls-10" d="M276.2427,125.277v5.8958l-44.2531,25.55V150.826Z"/>
      </g>
      <g id="Group-3" data-name="Group">
        <path id="Path-53" data-name="Path" class="cls-11" d="M276.2427,128.2249,231.99,153.7739v26.5328l44.2531-25.55Z"/>
        <path id="Path-54" data-name="Path" class="cls-12" d="M272.4949,152.5961a.47.47,0,0,0-.0736.0742.1947.1947,0,0,0-.0251.0429.1361.1361,0,0,0-.0123.0429v.0109a.0357.0357,0,0,0,.0068.0231.0253.0253,0,0,0,.0183.01.1348.1348,0,0,0,.0756-.0252.3472.3472,0,0,0,.0831-.0654.4.4,0,0,0,.06-.0823.4192.4192,0,0,0,.0382-.0933.5387.5387,0,0,0,.0189-.0988.8948.8948,0,0,1-.098.0872C272.5534,152.5471,272.5227,152.5723,272.4949,152.5961Z"/>
        <path id="Path-55" data-name="Path" class="cls-12" d="M270.8507,153.2606a.2675.2675,0,0,0-.0714.0592.4255.4255,0,0,0-.0539.0763.492.492,0,0,0-.0374.0851.45.45,0,0,0-.0191.08.29.29,0,0,0-.0055.034l-.0013.0334a.2077.2077,0,0,0,.0061.0524.07.07,0,0,0,.0191.0368.0473.0473,0,0,0,.0361.0129.1337.1337,0,0,0,.0565-.02.2956.2956,0,0,0,.0742-.0613.48.48,0,0,0,.0545-.08.619.619,0,0,0,.0354-.0879c.0081-.0285.0149-.0571.02-.0844a.4245.4245,0,0,0,.0053-.0633.126.126,0,0,0-.0251-.0844C270.9269,153.2306,270.8956,153.2347,270.8507,153.2606Z"/>
        <path id="Compound_Path" data-name="Compound Path" class="cls-12" d="M271.7378,150.86a3.9446,3.9446,0,0,0-1.0737.945,4.2286,4.2286,0,0,0-.7114,1.2779,2.26,2.26,0,0,0-.11,1.1792.9167.9167,0,0,0,.5283.6835,1.3384,1.3384,0,0,0,.9893-.0422,3.2982,3.2982,0,0,0,1.1158-.7544,4.4556,4.4556,0,0,0,.8673-1.2118,2.9909,2.9909,0,0,0,.3254-1.2609,1.3662,1.3662,0,0,0-.1471-.6542.846.846,0,0,0-.4187-.3847,1.1308,1.1308,0,0,0-.6269-.0572,2.2136,2.2136,0,0,0-.7387.28Zm-.42,2.3216a1.22,1.22,0,0,1-.0539.2145,1.0723,1.0723,0,0,1-.096.2056.9987.9987,0,0,1-.1417.1831.8676.8676,0,0,1-.19.1471.2847.2847,0,0,1-.1669.0537.1.1,0,0,1-.08-.0619l-.0035.002-.02.1369-.316.1818.2111-1.3358.3505-.2022-.0741.4623a.9939.9939,0,0,1,.13-.1627.7158.7158,0,0,1,.1451-.11.344.344,0,0,1,.1313-.05.1487.1487,0,0,1,.0994.015.1446.1446,0,0,1,.0627.0755.3519.3519,0,0,1,.0217.1328.6833.6833,0,0,1-.01.1123Zm.5806.1117c-.0394.0252-.0755.0476-.1089.068s-.064.0382-.0919.0545a1.3024,1.3024,0,0,1-.1335.07.216.216,0,0,1-.0857.0224.05.05,0,0,1-.0456-.0252.1588.1588,0,0,1-.0136-.0728.63.63,0,0,1,.004-.0708c.0028-.0273.0075-.0572.0129-.0906l.064-.4064-.1245.0722.0333-.222.13-.0749.0491-.3036.3457-.2-.0489.3029.1687-.0973-.0339.222-.1689.0973-.0551.354-.0055.0307-.0014.0238a.0315.0315,0,0,0,.0042.0231.0214.0214,0,0,0,.0156.0109.1713.1713,0,0,0,.0763-.03l.0557-.032Zm1.1861-1.3188c-.0035.0252-.0068.0518-.0116.08l-.0728.4684-.0225.1464-.3254.1885-.0022-.0967a1.1364,1.1364,0,0,1-.1749.2,1.2531,1.2531,0,0,1-.1886.1342.5776.5776,0,0,1-.1095.05.1984.1984,0,0,1-.0906.0115.0932.0932,0,0,1-.0607-.0333.1327.1327,0,0,1-.0224-.0851.3377.3377,0,0,1,.0054-.0572.5183.5183,0,0,1,.0757-.2043.8648.8648,0,0,1,.1354-.1667,1.3961,1.3961,0,0,1,.1634-.1348c.0572-.0409.1109-.0783.16-.1137a1.3732,1.3732,0,0,0,.1254-.0981.1691.1691,0,0,0,.038-.0436.1406.1406,0,0,0,.02-.05l.0006-.0061.0007-.0068a.0309.0309,0,0,0-.0027-.0163l-.0094-.01a.05.05,0,0,0-.0286-.002.1866.1866,0,0,0-.0354.0123.1921.1921,0,0,0-.0315.0156.4252.4252,0,0,0-.0407.0259.2527.2527,0,0,0-.0409.0361.2925.2925,0,0,0-.036.0469.1979.1979,0,0,0-.0233.0607l-.3479.2008a.5766.5766,0,0,1,.0484-.1573.71.71,0,0,1,.1035-.1559,1.2034,1.2034,0,0,1,.1648-.1545,1.876,1.876,0,0,1,.2328-.1552,1.39,1.39,0,0,1,.2028-.1008.2972.2972,0,0,1,.124-.0239.0753.0753,0,0,1,.0627.0388.1862.1862,0,0,1,.0176.0872.652.652,0,0,1-.004.07Zm.0829.6087a.07.07,0,0,1-.0407.0109.0319.0319,0,0,1-.0273-.017.0626.0626,0,0,1-.0041-.0409.1444.1444,0,0,1,.02-.05.1689.1689,0,0,1,.038-.0415.1016.1016,0,0,1,.0429-.0212.04.04,0,0,1,.0334.0082.0454.0454,0,0,1,.0123.0341.1234.1234,0,0,1-.0217.0647.1558.1558,0,0,1-.0526.0524Z"/>
        <path id="Path-56" data-name="Path" class="cls-12" d="M273.1674,152.47a.1182.1182,0,0,0-.0217.019.092.092,0,0,0-.0143.0266.0428.0428,0,0,0-.002.0238.0168.0168,0,0,0,.01.0136.0267.0267,0,0,0,.0205-.0007.075.075,0,0,0,.0232-.0149.1074.1074,0,0,0,.017-.0252.0537.0537,0,0,0,.0068-.0252.0219.0219,0,0,0-.0116-.0218.0343.0343,0,0,0-.028.0048Z"/>
        <path id="Compound_Path-2" data-name="Compound Path" class="cls-13" d="M271.7378,150.4883a4.7268,4.7268,0,0,0-1.28,1.1274,5.04,5.04,0,0,0-.8482,1.523,2.6821,2.6821,0,0,0-.1308,1.4059,1.0956,1.0956,0,0,0,.63.8156,1.5956,1.5956,0,0,0,1.1792-.05,3.94,3.94,0,0,0,1.33-.8993,5.336,5.336,0,0,0,1.0335-1.4454,3.5545,3.5545,0,0,0,.3879-1.5032,1.238,1.238,0,0,0-.6753-1.2377,1.8878,1.8878,0,0,0-1.6271.2641Zm0,4.3634a2.0016,2.0016,0,0,1-1.1452.3138.9208.9208,0,0,1-.7584-.4868,1.73,1.73,0,0,1-.1177-1.1226,3.9255,3.9255,0,0,1,.5643-1.38,4.6424,4.6424,0,0,1,1.0546-1.1731,2.74,2.74,0,0,1,1.1908-.57,1.0669,1.0669,0,0,1,.9245.2253,1.2465,1.2465,0,0,1,.3472.9443,3.5414,3.5414,0,0,1-.6039,1.8049,4.4316,4.4316,0,0,1-1.4562,1.4447Z"/>
        <path id="Compound_Path-3" data-name="Compound Path" class="cls-14" d="M271.2435,152.861a.153.153,0,0,0-.0994-.0157.3581.3581,0,0,0-.1313.05.7158.7158,0,0,0-.1451.11.9939.9939,0,0,0-.13.1627l.0741-.463-.3505.2029-.2111,1.3358.316-.1818.02-.1369.0035-.002a.101.101,0,0,0,.08.0619.2847.2847,0,0,0,.1669-.0537.8515.8515,0,0,0,.19-.1471.969.969,0,0,0,.1417-.1831,1.0723,1.0723,0,0,0,.096-.2056,1.2121,1.2121,0,0,0,.0539-.2152.6686.6686,0,0,0,.01-.1116.3519.3519,0,0,0-.0217-.1328A.1446.1446,0,0,0,271.2435,152.861Zm-.28.5364c-.0049.0273-.0117.0559-.02.0844a.619.619,0,0,1-.0354.0879.4526.4526,0,0,1-.0545.08.2956.2956,0,0,1-.0742.0613.1337.1337,0,0,1-.0565.02.0473.0473,0,0,1-.0361-.0129.07.07,0,0,1-.0191-.0368.2077.2077,0,0,1-.0061-.0524l.0013-.0334a.29.29,0,0,1,.0055-.034.45.45,0,0,1,.0191-.08.492.492,0,0,1,.0374-.0851.4255.4255,0,0,1,.0539-.0763.2675.2675,0,0,1,.0714-.0592c.0449-.0259.0762-.03.0933-.0109a.126.126,0,0,1,.0251.0844.4245.4245,0,0,1-.0053.0633Z"/>
        <path id="Path-57" data-name="Path" class="cls-14" d="M271.8086,153.0815a.0214.0214,0,0,1-.0156-.0109.0315.0315,0,0,1-.0042-.0231l.0014-.0238.0055-.0307.0551-.354.1689-.0973.0339-.222-.1687.0973.0489-.3029-.3457.2-.0491.3036-.13.0749-.0333.2213.1245-.0715-.064.4058c-.0054.034-.01.0639-.0129.0912a.63.63,0,0,0-.004.0708.1588.1588,0,0,0,.0136.0728.05.05,0,0,0,.0456.0252.216.216,0,0,0,.0857-.0224,1.4583,1.4583,0,0,0,.1335-.07c.0279-.0163.0585-.0347.0919-.0545s.07-.0428.1089-.068l.0422-.2737-.0557.032a.1713.1713,0,0,1-.0763.03Z"/>
        <path id="Compound_Path-4" data-name="Compound Path" class="cls-14" d="M273.0082,151.7784a.2972.2972,0,0,0-.124.0239,1.39,1.39,0,0,0-.2028.1008,1.876,1.876,0,0,0-.2328.1552,1.2034,1.2034,0,0,0-.1648.1545.71.71,0,0,0-.1035.1559.5766.5766,0,0,0-.0484.1573l.3479-.2008a.1979.1979,0,0,1,.0233-.0607.2925.2925,0,0,1,.036-.0469.2527.2527,0,0,1,.0409-.0361.4252.4252,0,0,1,.0407-.0259.1921.1921,0,0,1,.0315-.0156.1866.1866,0,0,1,.0354-.0123.05.05,0,0,1,.0286.002l.0094.01a.0309.0309,0,0,1,.0027.0163l-.0007.0068-.0006.0061a.1406.1406,0,0,1-.02.05.1691.1691,0,0,1-.038.0436,1.3732,1.3732,0,0,1-.1254.0981c-.049.0354-.1027.0728-.16.1137a1.3961,1.3961,0,0,0-.1634.1348.8648.8648,0,0,0-.1354.1667.5294.5294,0,0,0-.0763.2043.41.41,0,0,0-.0048.0572.1327.1327,0,0,0,.0224.0851.0932.0932,0,0,0,.0607.0333.1984.1984,0,0,0,.0906-.0115.5776.5776,0,0,0,.1095-.05,1.2531,1.2531,0,0,0,.1886-.1342,1.1364,1.1364,0,0,0,.1749-.2l.0022.0967.3254-.1885.0225-.1464.0728-.4684c.0048-.0279.0081-.0545.0116-.08a.652.652,0,0,0,.004-.07.1862.1862,0,0,0-.0176-.0872.0753.0753,0,0,0-.0627-.0388Zm-.3424.7551a.4192.4192,0,0,1-.0382.0933.4.4,0,0,1-.06.0823.3472.3472,0,0,1-.0831.0654.1348.1348,0,0,1-.0756.0252.0253.0253,0,0,1-.0183-.01.0357.0357,0,0,1-.0068-.0231v-.0109a.1361.1361,0,0,1,.0123-.0429.1947.1947,0,0,1,.0251-.0429.47.47,0,0,1,.0736-.0742c.0278-.0238.0585-.049.0918-.0742a.9538.9538,0,0,0,.098-.0872.5387.5387,0,0,1-.0189.0988Z"/>
        <path id="Compound_Path-5" data-name="Compound Path" class="cls-14" d="M273.1674,152.4347a.1647.1647,0,0,0-.0407.0361.1692.1692,0,0,0-.0273.049.0856.0856,0,0,0-.0041.0457.035.035,0,0,0,.02.0259.05.05,0,0,0,.038-.0014.1279.1279,0,0,0,.0429-.0293.16.16,0,0,0,.0334-.0463.1121.1121,0,0,0,.0123-.0483.0383.0383,0,0,0-.0217-.04.0613.0613,0,0,0-.0526.0081Zm0,.1138a.0465.0465,0,0,1-.0217.0061.018.018,0,0,1-.0143-.01.0329.0329,0,0,1-.002-.0219.0693.0693,0,0,1,.01-.0258.0955.0955,0,0,1,.0205-.0225.0452.0452,0,0,1,.0232-.0109.0185.0185,0,0,1,.017.0041.022.022,0,0,1,.0068.0177.0667.0667,0,0,1-.0116.0347.0842.0842,0,0,1-.028.028Z"/>
        <path id="Compound_Path-6" data-name="Compound Path" class="cls-12" d="M254.4539,153.0584l-.772.4459a.2287.2287,0,0,0-.1185.1518l-1.0226,4.1244-1.1342-2.8791c-.0137-.0273-.0273-.04-.0484-.0416a.1491.1491,0,0,0-.0627.0218l-.7094.41a.2532.2532,0,0,0-.0558.0463.2.2,0,0,0-.0559.1014l-1.1341,4.1891-1.0084-2.9514c-.0211-.0511-.0625-.0476-.1183-.0156l-.7728.4459c-.0763.0443-.111.113-.0831.1668l1.4747,3.8167c.0143.0476.07.0435.1253.0109l.7373-.4255a.2588.2588,0,0,0,.1184-.1519l1.1274-4.0113,1.1268,2.71c.0143.0477.0627.0477.1185.0157l.7373-.4263a.2941.2941,0,0,0,.132-.1592l1.4822-5.5242C254.5587,153.0468,254.5307,153.0141,254.4539,153.0584Zm1.009.2315a1.0453,1.0453,0,0,0,.5011-.7973c0-.2784-.2227-.3792-.5011-.2185a1.0489,1.0489,0,0,0-.508.8013C254.9549,153.3532,255.1776,153.4546,255.4629,153.29Zm-.459,1.0164v3.2005c0,.0627.0416.08.1043.0443l.7094-.41a.2017.2017,0,0,0,.1049-.1647v-3.2c0-.0627-.0423-.08-.1049-.0443l-.7094.41A.2008.2008,0,0,0,255.0039,154.3063Zm1.6211-2.6055v4.87c0,.0627.0416.08.1041.0443l.7094-.41a.2016.2016,0,0,0,.1049-.1647v-4.87c0-.0627-.0422-.08-.1049-.0443l-.7094.41A.2012.2012,0,0,0,256.625,151.7008Zm1.621-.9361v4.87c0,.0626.0415.08.1042.0442l.71-.41a.2013.2013,0,0,0,.1042-.1641v-4.8706c0-.0626-.0422-.08-.1042-.0442l-.71.41A.2007.2007,0,0,0,258.246,150.7647Zm2.0248-.2505a1.0459,1.0459,0,0,0,.5-.7972c0-.2785-.2225-.3793-.5-.2186a1.049,1.049,0,0,0-.5079.8013C259.7629,150.5775,259.9856,150.6789,260.2708,150.5142Zm-.46,1.0164v3.2006c0,.0626.0422.08.1042.0442l.71-.41a.2007.2007,0,0,0,.1042-.1647V151c0-.0627-.0415-.08-.1042-.0436l-.71.4092A.2024.2024,0,0,0,259.8112,151.5306Zm2.3864-.529a.69.69,0,0,1,.3758-.5092.9755.9755,0,0,1,.6678-.1212.1254.1254,0,0,0,.1531-.081l.2643-.5011c.0354-.0613.0489-.1253.0075-.15a1.2222,1.2222,0,0,0-1.169.16,2.2754,2.2754,0,0,0-1.1826,1.72c0,1.1478,1.6482-.013,1.6482.53,0,.2158-.2151.41-.4377.5385a1.4722,1.4722,0,0,1-.849.1771.1255.1255,0,0,0-.1533.081l-.2709.5392c-.0279.0579-.0422.115,0,.14a1.3549,1.3549,0,0,0,1.3011-.1811,2.5241,2.5241,0,0,0,1.301-1.7947C263.8539,150.2963,262.1976,151.5585,262.1976,151.0016Zm2.574,1.06a1.0327,1.0327,0,0,0,.5011-.7966c0-.2784-.2225-.3724-.5011-.2117a1.037,1.037,0,0,0-.5078.7938C264.2638,152.1325,264.487,152.2264,264.7716,152.0617Zm-25.87,9.976-.7442.43a.2017.2017,0,0,0-.1049.1647v3.27l-1.8715-2.2242c-.028-.0327-.07-.0293-.1254.0027l-.8556.4943a.2008.2008,0,0,0-.1043.1647v4.6616c0,.0626.0416.08.1043.0435l.7448-.4295a.2012.2012,0,0,0,.104-.1648v-3.27l1.8716,2.2243c.0279.0326.07.0292.1253-.0028l.8559-.4936a.2019.2019,0,0,0,.104-.1647v-4.6616C239.0054,162.0193,238.9639,162.0016,238.9014,162.0377Zm2.4631,3.5389a3.6525,3.6525,0,0,0,1.7667-2.8084c0-1.0022-.7864-1.3344-1.7667-.768a3.65,3.65,0,0,0-1.7674,2.8084C239.5971,165.8108,240.3835,166.143,241.3645,165.5766Zm0-.849c-.4943.2852-.8838.12-.8838-.4289a1.8206,1.8206,0,0,1,.8838-1.45c.4869-.2812.8829-.12.8829.4289A1.8329,1.8329,0,0,1,241.3645,164.7276Zm4.07-5.0006-.4876.2812v-.94c0-.0626-.0415-.08-.1042-.0435l-.7094.4091a.2012.2012,0,0,0-.104.1648v.94l-.4875.2812a.201.201,0,0,0-.1043.1648v.5426c0,.0626.0416.08.1043.0435l.4875-.2811v2.5537c0,.0626.0415.08.104.0442l.7094-.41a.2008.2008,0,0,0,.1042-.1648V160.76l.4876-.2812a.2008.2008,0,0,0,.104-.1648v-.5426C245.5385,159.7086,245.4971,159.6909,245.4345,159.727Zm.1348-7.7245a1.1042,1.1042,0,0,1,.6194-.8511,1.1746,1.1746,0,0,1,.9322-.1491c.0557.01.1047-.0252.1462-.1048l.3827-.687c.049-.0837.049-.1259,0-.1464a1.6375,1.6375,0,0,0-1.489.2125,2.936,2.936,0,0,0-1.5169,2.2392c0,1.5938,2.31-.0048,2.31.8585a1.3568,1.3568,0,0,1-.7373.996,1.2686,1.2686,0,0,1-1.0853.1532c-.0558-.0164-.1117.0232-.1532.096l-.4172.6931c-.0422.0728-.0422.1212-.0075.15a1.6714,1.6714,0,0,0,1.642-.1892,3.253,3.253,0,0,0,1.6906-2.4162C247.8861,151.1657,245.5693,152.8582,245.5693,152.0025Zm6.0741-1.74c0-.9252-.6331-1.3459-1.6209-.7754a3.5331,3.5331,0,0,0-1.7185,2.78c0,1.0015.7305,1.3664,1.7948.7517a3.8127,3.8127,0,0,0,1.2662-1.2527c.0559-.0879.0559-.1369.0068-.1573l-.3057-.1225c-.049-.02-.0905.0034-.1532.0817a2.422,2.422,0,0,1-.7237.6542c-.5357.3091-.8836.2526-.9742-.1477l2.1847-1.2609C251.6087,150.6939,251.6434,150.5346,251.6434,150.2629Zm-1.6141,0c.4106-.2369.7373-.1613.8.2826l-1.6279.94A1.7281,1.7281,0,0,1,250.0293,150.2629Zm5.4479-3.8479-.6406.37a.2107.2107,0,0,0-.1042.164l-.02.3323a1.0158,1.0158,0,0,0-1.0368.098,3.4525,3.4525,0,0,0-1.6491,2.74c0,.9953.6958,1.3862,1.6491.8361a2.8745,2.8745,0,0,0,1.0293-1.0812l.028.2757c.0068.0586.0415.08.1042.0443l.6406-.37a.2011.2011,0,0,0,.1042-.1647v-3.2C255.5814,146.3966,255.54,146.3789,255.4772,146.415Zm-1.6913,3.64c-.5078.2934-.8761.096-.8761-.4534a1.8077,1.8077,0,0,1,.8761-1.4529c.5012-.2887.87-.07.87.4446A1.8669,1.8669,0,0,1,253.7859,150.0553Zm4.6617-5.2722a.6422.6422,0,0,0-.4589.1048,2.1417,2.1417,0,0,0-.87,1.0593l-.0279-.36c-.0068-.0586-.0414-.08-.104-.0436l-.6747.3894a.2011.2011,0,0,0-.1042.1648v3.2c0,.0626.0415.08.1042.0442l.7094-.41a.201.201,0,0,0,.1047-.1641v-1.809a1.4124,1.4124,0,0,1,.7094-1.1471,1.0477,1.0477,0,0,1,.2854-.1165.2132.2132,0,0,0,.1531-.1579l.2084-.6352C258.5034,144.8416,258.5034,144.7926,258.4476,144.7831Zm1.19.1831a.6885.6885,0,0,1,.3758-.5092.9672.9672,0,0,1,.6679-.1213.1256.1256,0,0,0,.1524-.0817l.2649-.5c.0346-.062.0482-.1253.0068-.1505a1.2259,1.2259,0,0,0-1.169.16,2.278,2.278,0,0,0-1.1826,1.72c0,1.1479,1.6489-.0129,1.6489.53,0,.2151-.2158.4091-.4383.5378a1.4678,1.4678,0,0,1-.8491.1771.1267.1267,0,0,0-.1532.0817l-.2709.5392c-.028.0578-.0416.1143,0,.1388a1.3519,1.3519,0,0,0,1.3011-.18,2.5223,2.5223,0,0,0,1.301-1.7946C261.2934,144.26,259.6377,145.5224,259.6377,144.9662Zm2.5742.0511a1.0371,1.0371,0,0,0-.508.7945c0,.2852.2226.3792.508.2144a2.0561,2.0561,0,0,1-.14.6645c-.02.0538,0,.0769.0491.0483l.0906-.0517a.2139.2139,0,0,0,.0761-.079,2.9892,2.9892,0,0,0,.4317-1.314C262.72,144.9465,262.49,144.8566,262.2119,145.0173Zm-27.1164,11.808v4.6616c0,.0626.0416.08.1043.0442l.7448-.43a.2009.2009,0,0,0,.104-.1641v-4.6615c0-.0627-.0415-.08-.104-.0443l-.7448.43A.2009.2009,0,0,0,235.0955,156.8253Zm3.5068-.6678-.4873.2811v-.94c0-.0619-.0415-.08-.1042-.0436l-.7094.41a.2006.2006,0,0,0-.1049.1641v.9395l-.4867.2812a.2011.2011,0,0,0-.1042.1647v.5426c0,.0627.0416.08.1042.0443l.4867-.2812v2.5531c0,.0626.0422.08.1049.0442l.7094-.41a.2008.2008,0,0,0,.1042-.1648V157.19l.4873-.2812a.2011.2011,0,0,0,.1043-.1648v-.5426C238.7066,156.1391,238.665,156.1214,238.6023,156.1575Zm1.2174-2.1637-.612.3534a.1914.1914,0,0,0-.1049.1647l.077,1.312c.0068.0585.0415.08.1042.0442l.4587-.2648a.2119.2119,0,0,0,.1049-.1648l.0763-1.4011C239.9307,153.9707,239.8824,153.9571,239.82,153.9938Zm1.2453,1.6946a.6889.6889,0,0,1,.3758-.5086.9686.9686,0,0,1,.6679-.1212.1262.1262,0,0,0,.153-.0817l.2643-.5c.0348-.0619.0491-.1259.0068-.15a1.2244,1.2244,0,0,0-1.1683.16,2.2764,2.2764,0,0,0-1.1833,1.72c0,1.1479,1.649-.0129,1.649.53,0,.2158-.2159.41-.4384.5385a1.4653,1.4653,0,0,1-.8484.177.1258.1258,0,0,0-.1531.0817l-.2717.5392c-.028.0579-.0416.1144,0,.1389a1.3538,1.3538,0,0,0,1.3011-.18,2.5236,2.5236,0,0,0,1.301-1.7947C242.7207,154.9831,241.065,156.2453,241.065,155.6884Z"/>
      </g>
    </g>
  </g>
</svg>
