<?xml version="1.0" encoding="utf-8"?>

<svg version="1.1" id="0_61"
	 xmlns="http://www.w3.org/2000/svg" xmlns:xlink="http://www.w3.org/1999/xlink" x="0px" y="0px" viewBox="0 0 310 204.96"
	 style="enable-background:new 0 0 310 204.96;" xml:space="preserve">
<style type="text/css">
	.st0{fill:#DD8A87;}
</style>
<switch>

	<g>
		<g id="Group_2_">
			<path id="Cement-Top" class="concrete_x002D_T1" d="M120,199.18L0,129.9L190,20.2l120,69.29L120,199.18z"/>
			<path id="Cement-Right" class="concrete_x002D_L1" d="M120,199.18v5.78L0,135.67v-5.77L120,199.18z"/>
			<path id="Cement-Left" class="concrete_x002D_R1" d="M310,89.49v5.77l-190,109.7v-5.78L310,89.49z"/>
			<path id="Base-Window-Right" class="window_x002D_L1" d="M48.75,126.29V103.2L120,144.33v23.1L48.75,126.29z"/>
			<path id="Base-Window-Left" class="window_x002D_R1" d="M120,167.43l141.25-81.55v-23.1L120,144.33V167.43z"/>
			<path id="Path" class="exterior_x002D_L4" d="M35,89.49l-5,2.88v38.97l5,2.89V89.49z"/>
			<path id="Path_1_" class="exterior_x002D_R4" d="M273.75,48.35l6.25,3.61v38.97l-6.25,3.61V48.35z"/>
			<path id="Path_2_" class="exterior_x002D_R4" d="M248.75,67.11l3.75-2.07v41.77l-3.75,2.16V67.11z"/>
			<path id="Path_3_" class="exterior_x002D_R4" d="M223.75,81.46l3.75-2.08v41.77l-3.75,2.17V81.46z"/>
			<path id="Path_4_" class="exterior_x002D_R4" d="M198.75,95.98l3.75-2.08v41.77l-3.75,2.17V95.98z"/>
			<path id="Path_5_" class="exterior_x002D_R4" d="M173.75,110.41l3.75-2.07v41.77l-3.75,2.16V110.41z"/>
			<path id="Path_6_" class="exterior_x002D_R4" d="M148.75,124.76l3.75-2.08v41.77l-3.75,2.17V124.76z"/>
			<path id="Path_7_" class="exterior_x002D_L4" d="M120,141.45l-6.25-3.61v41.86l6.25,3.6V141.45z"/>
			<path id="Path_8_" class="exterior_x002D_L4" d="M90,124.13l-3.75-2.17v41.86l3.75,2.16V124.13z"/>
			<path id="Path_9_" class="exterior_x002D_L4" d="M62.5,108.22l-3.75-2.17v41.86l3.75,2.16V108.22z"/>
			<path id="Path_10_" class="exterior_x002D_R4" d="M35,134.23l5-2.89V95.26l-5-2.89V134.23z"/>
			<path id="Path_11_" class="exterior_x002D_L4" d="M273.75,94.54l-5-2.89V55.57l5-2.89V94.54z"/>
			<path id="Path_12_" class="exterior_x002D_L4" d="M248.75,108.97l-3.75-2.16V69.28l3.75-2.17V108.97z"/>
			<path id="Path_13_" class="exterior_x002D_L4" d="M223.75,123.32l-3.75-2.17V83.62l3.75-2.16V123.32z"/>
			<path id="Path_14_" class="exterior_x002D_L4" d="M198.75,137.84l-3.75-2.17V98.15l3.75-2.17V137.84z"/>
			<path id="Path_15_" class="exterior_x002D_L4" d="M173.75,152.27l-3.75-2.16v-37.53l3.75-2.17V152.27z"/>
			<path id="Path_16_" class="exterior_x002D_L4" d="M148.75,166.62l-3.75-2.17v-37.52l3.75-2.17V166.62z"/>
			<path id="Path_17_" class="exterior_x002D_R4" d="M120,183.3l7.5-4.33v-41.85l-7.5,4.33V183.3z"/>
			<path id="Path_18_" class="exterior_x002D_R4" d="M90,165.98l3.75-2.16v-37.53L90,124.13V165.98z"/>
			<path id="Path_19_" class="exterior_x002D_R4" d="M62.5,150.07l3.75-2.16v-37.53l-3.75-2.16V150.07z"/>
			<path id="Path_20_" class="exterior_x002D_R4" d="M211.25,114.74l1.25-0.72V90.93l-1.25,0.72V114.74z"/>
			<path id="Path_21_" class="exterior_x002D_R4" d="M161.25,143.51l1.25-0.72v-23.1l-1.25,0.73V143.51z"/>
			<path id="Path_22_" class="exterior_x002D_R4" d="M186.25,129.28l1.25-0.72v-23.1l-1.25,0.73V129.28z"/>
			<path id="Path_23_" class="exterior_x002D_R4" d="M136.25,158.05l1.25-0.73v-23.09l-1.25,0.72V158.05z"/>
			<path id="Path_24_" class="exterior_x002D_L4" d="M103.75,158.05l-1.25-0.73v-23.09l1.25,0.72V158.05z"/>
			<path id="Path_25_" class="exterior_x002D_L4" d="M76.25,142.17L75,141.45v-23.1l1.25,0.72V142.17z"/>
			<path id="Path_26_" class="exterior_x002D_L4" d="M50,127.01l-1.25-0.72V103.2l1.25,0.72V127.01z"/>
			<path id="Path_27_" class="exterior_x002D_R4" d="M236.25,100.31l1.25-0.72v-23.1l-1.25,0.73V100.31z"/>
			<path id="Path_28_" class="exterior_x002D_R4" d="M260,86.6l1.25-0.72v-23.1L260,63.5V86.6z"/>
			<g id="Group">
				<path id="Path_29_" class="st0" d="M113.75,130.56l-20-11.54L90,121.18l23.75,13.71V130.56z"/>
				<path id="Path_30_" class="st0" d="M86.25,114.69l-20-11.55l-3.75,2.17l23.75,13.71V114.69z"/>
				<path id="Path_31_" class="st0" d="M58.75,98.81l-20-11.55L35,89.43l23.75,13.71V98.81z"/>
			</g>
			<g id="Group_1_">
				<path id="Path_32_" class="st0" d="M127.5,129.9l17.5-10.1l3.75,2.16l-21.25,12.27V129.9z"/>
				<path id="Path_33_" class="st0" d="M152.5,115.47l17.5-10.11l3.75,2.17L152.5,119.8V115.47z"/>
				<path id="Path_34_" class="st0" d="M177.5,101.03l17.5-10.1l3.75,2.16l-21.25,12.27V101.03z"/>
				<path id="Path_35_" class="st0" d="M202.5,86.6L220,76.49l3.75,2.17L202.5,90.93V86.6z"/>
				<path id="Path_36_" class="st0" d="M227.5,72.16l17.5-10.1l3.75,2.17L227.5,76.49V72.16z"/>
				<path id="Path_37_" class="st0" d="M252.5,57.73l17.5-10.1l3.75,2.16L252.5,62.06V57.73z"/>
			</g>
			<path id="cna-base-4-01_x5F_60.63" class="top_x002D_T1" d="M120,144.33L30,92.37L190,0l90,51.96L120,144.33z"/>
		</g>
	</g>
</switch>

</svg>
