<svg id="Layer_1" data-name="Layer 1" xmlns="http://www.w3.org/2000/svg" xmlns:xlink="http://www.w3.org/1999/xlink"
     viewBox="0 0 405 258.36">
    <defs>
        <style>
            <!--.cls-1{fill:#e8e8e8;}-->
            <!--.cls-2{fill:#f4f4f4;}-->
            <!--.window-R-prim{fill:#202020;}-->
            <!--.exterior-R-prim{fill:#5d5d5d;}-->
            <!--.exterior-L-prim{fill:#2e2e2e;}-->
            <!--.top-prim{fill:#b9b9b9;}-->
            .cls-3{fill:#3486d2;}
            .cls-4{fill:#6f6f6f;}
            .cls-5{fill:#159b64;}
            .cls-6{fill:#f45151;}
            .cls-7{fill:#dbc8b9;stroke-width:0.5px;}
            .cls-7, .cls-8{stroke:#a69a8e;stroke-linecap:square;stroke-miterlimit:3;}
            .cls-8{fill:none;stroke-width:0.25px;}.cls-9{fill:#d1d1d1;}
            .cls-10{fill:#a2a2a2;}.cls-11{fill:#1e1d1c;}
            .cls-12{fill:url(#linear-gradient);}
            .cls-13{fill:url(#linear-gradient-2);}
            .cls-14{fill:url(#linear-gradient-3);}
            .cls-15{fill:url(#linear-gradient-4);}
            .cls-16{fill:url(#linear-gradient-5);}
            .cls-17{fill:url(#linear-gradient-6);}
            .cls-18{fill:url(#linear-gradient-7);}
            .cls-19{fill:url(#linear-gradient-8);}
            .cls-20{fill:url(#linear-gradient-9);}
            .cls-21{fill:url(#linear-gradient-10);}
            .cls-22{fill:url(#linear-gradient-11);}
            .cls-23{fill:url(#linear-gradient-12);}
            .cls-24{fill:url(#linear-gradient-13);}
            .cls-25{fill:url(#linear-gradient-14);}
            .cls-26{fill:url(#linear-gradient-15);}
            .cls-27{fill:url(#linear-gradient-16);}
        </style>
        <linearGradient id="linear-gradient" x1="-304.66" y1="654.7" x2="-303.68" y2="654.92"
                        gradientTransform="matrix(3.33, 0, 0, -8.66, 1262.84, 5821.72)" gradientUnits="userSpaceOnUse">
            <stop offset="0" stop-color="#332716"/>
            <stop offset="1" stop-color="#603d16"/>
        </linearGradient>
        <linearGradient id="linear-gradient-2" x1="-298.23" y1="637.44" x2="-297.31" y2="637.81"
                        gradientTransform="matrix(20, 0, 0, -26.94, 6205.5, 17312.54)" gradientUnits="userSpaceOnUse">
            <stop offset="0" stop-color="#00564a"/>
            <stop offset="1" stop-color="#169d65"/>
        </linearGradient>
        <linearGradient id="linear-gradient-3" x1="-304.66" y1="654.7" x2="-303.68" y2="654.92"
                        gradientTransform="matrix(3.33, 0, 0, -8.66, 1277.84, 5830.38)" xlink:href="#linear-gradient"/>
        <linearGradient id="linear-gradient-4" x1="-298.23" y1="637.44" x2="-297.31" y2="637.81"
                        gradientTransform="matrix(20, 0, 0, -26.94, 6220.5, 17321.2)" xlink:href="#linear-gradient-2"/>
        <linearGradient id="linear-gradient-5" x1="-304.66" y1="654.7" x2="-303.68" y2="654.92"
                        gradientTransform="matrix(3.33, 0, 0, -8.66, 1200.34, 5857.8)" xlink:href="#linear-gradient"/>
        <linearGradient id="linear-gradient-6" x1="-298.23" y1="637.44" x2="-297.31" y2="637.81"
                        gradientTransform="matrix(20, 0, 0, -26.94, 6143, 17348.63)" xlink:href="#linear-gradient-2"/>
        <linearGradient id="linear-gradient-7" x1="-304.66" y1="654.7" x2="-303.68" y2="654.92"
                        gradientTransform="matrix(3.33, 0, 0, -8.66, 1215.34, 5866.46)" xlink:href="#linear-gradient"/>
        <linearGradient id="linear-gradient-8" x1="-298.23" y1="637.44" x2="-297.31" y2="637.81"
                        gradientTransform="matrix(20, 0, 0, -26.94, 6158, 17357.29)" xlink:href="#linear-gradient-2"/>
        <linearGradient id="linear-gradient-9" x1="-304.66" y1="654.7" x2="-303.68" y2="654.92"
                        gradientTransform="matrix(3.33, 0, 0, -8.66, 1240.25, 5843.09)" xlink:href="#linear-gradient"/>
        <linearGradient id="linear-gradient-10" x1="-298.23" y1="637.44" x2="-297.31" y2="637.81"
                        gradientTransform="matrix(20, 0, 0, -26.94, 6182.91, 17333.92)"
                        xlink:href="#linear-gradient-2"/>
        <linearGradient id="linear-gradient-11" x1="-304.66" y1="654.7" x2="-303.68" y2="654.92"
                        gradientTransform="matrix(3.33, 0, 0, -8.66, 1302.84, 5807.13)" xlink:href="#linear-gradient"/>
        <linearGradient id="linear-gradient-12" x1="-298.23" y1="637.44" x2="-297.31" y2="637.81"
                        gradientTransform="matrix(20, 0, 0, -26.94, 6245.5, 17297.95)" xlink:href="#linear-gradient-2"/>
        <linearGradient id="linear-gradient-13" x1="-304.66" y1="654.7" x2="-303.68" y2="654.92"
                        gradientTransform="matrix(3.33, 0, 0, -8.66, 1325.34, 5785.63)" xlink:href="#linear-gradient"/>
        <linearGradient id="linear-gradient-14" x1="-298.23" y1="637.44" x2="-297.31" y2="637.81"
                        gradientTransform="matrix(20, 0, 0, -26.94, 6268, 17276.46)" xlink:href="#linear-gradient-2"/>
        <linearGradient id="linear-gradient-15" x1="-304.66" y1="654.7" x2="-303.68" y2="654.92"
                        gradientTransform="matrix(3.33, 0, 0, -8.66, 1340.34, 5794.29)" xlink:href="#linear-gradient"/>
        <linearGradient id="linear-gradient-16" x1="-298.23" y1="637.44" x2="-297.31" y2="637.81"
                        gradientTransform="matrix(20, 0, 0, -26.94, 6283, 17285.12)" xlink:href="#linear-gradient-2"/>
    </defs>
    <title>1Artboard 1</title>
    <g id="base-4a">
        <path id="Path" class="cls-1" d="M0,140,205,21.65,405,137.12,200,255.47Z"/>
        <path id="Path-2" data-name="Path" class="cls-2" d="M30,131.34,210,27.42l170,98.15L200,229.49Z"/>
        <path id="base-window-right" class="window-R-prim" d="M147.5,167.43l140-80.83V63.51l-140,80.82Z"/>
        <path id="base-window-left" d="M77.5,127V103.92l70,40.41v23.1Z"/>
        <path id="Path-3" data-name="Path" class="exterior-R-prim" d="M147.5,144.33l2.5-1.44V166l-2.5,1.44Z"/>
        <path id="Path-4" data-name="Path" class="exterior-R-prim" d="M269.72,73.77l2.5-1.44V95.42l-2.5,1.44Z"/>
        <path id="Path-5" data-name="Path" class="exterior-R-prim" d="M239.17,91.41l2.5-1.44v23.09l-2.5,1.45Z"/>
        <path id="Path-6" data-name="Path" class="exterior-R-prim" d="M208.61,109.05l2.5-1.44V130.7l-2.5,1.45Z"/>
        <path id="Path-7" data-name="Path" class="exterior-R-prim" d="M178.06,126.69l2.5-1.44v23.09l-2.5,1.45Z"/>
        <g id="base-right">
            <path id="Path-8" data-name="Path" class="exterior-R-prim" d="M223.89,100.23l2.5-1.44v23.09l-2.5,1.45Z"/>
            <path id="Path-9" data-name="Path" class="exterior-R-prim" d="M193.33,117.87l2.5-1.44v23.09l-2.5,1.45Z"/>
            <path id="Path-10" data-name="Path" class="exterior-R-prim" d="M162.78,135.51l2.5-1.44v23.09l-2.5,1.45Z"/>
            <path id="Path-11" data-name="Path" class="exterior-R-prim" d="M285,65l2.5-1.44V86.6L285,88Z"/>
            <path id="Path-12" data-name="Path" class="exterior-R-prim" d="M254.44,82.59l2.5-1.44v23.09l-2.5,1.44Z"/>
        </g>
        <path id="Path-13" data-name="Path" class="exterior-L-prim" d="M93.5,113.16,91,111.71v23.1l2.5,1.44Z"/>
        <path id="Path-14" data-name="Path" class="exterior-L-prim" d="M147.5,144.33l-2.5-1.44V166l2.5,1.44Z"/>
        <g id="base-left">
            <path id="Path-15" data-name="Path" class="exterior-L-prim" d="M134,136.54l-2.5-1.44v23.09l2.5,1.44Z"/>
            <path id="Path-16" data-name="Path" class="exterior-L-prim" d="M107,121l-2.5-1.44V142.6l2.5,1.45Z"/>
            <path id="Path-17" data-name="Path" class="exterior-L-prim" d="M80,105.36l-2.5-1.44V127l2.5,1.45Z"/>
        </g>
        <path id="Path-18" data-name="Path" class="exterior-L-prim" d="M120.5,128.75,118,127.3v23.1l2.5,1.44Z"/>
        <path id="Path-19" data-name="Path" class="cls-3" d="M245,89.49v5.77l17.5-10.1V79.38Z"/>
        <path id="Path-20" data-name="Path" class="cls-4" d="M242.5,88l2.5,1.45,17.5-10.11L260,77.94Z"/>
        <path id="Path-21" data-name="Path" class="exterior-R-prim" d="M245,95.26l-2.5-1.44V88l2.5,1.45Z"/>
        <path id="Path-22" data-name="Path" class="cls-5" d="M180,127v5.78l17.5-10.11v-5.77Z"/>
        <path id="Path-23" data-name="Path" class="cls-4" d="M177.5,125.57,180,127l17.5-10.1-2.5-1.44Z"/>
        <path id="Path-24" data-name="Path" class="exterior-R-prim" d="M180,132.79l-2.5-1.45v-5.77L180,127Z"/>
        <path id="Path-25" data-name="Path" class="cls-6" d="M120,129.9v5.77l-17.5-10.1V119.8Z"/>
        <path id="Path-26" data-name="Path" class="cls-4" d="M122.5,128.46,120,129.9l-17.5-10.1,2.5-1.45Z"/>
        <path id="Path-27" data-name="Path" class="exterior-R-prim" d="M120,135.67l2.5-1.44v-5.77L120,129.9Z"/>
        <g id="base-right-2" data-name="base-right">
            <path id="Path-28" data-name="Path" class="exterior-R-prim" d="M152.5,141.45v40.41l-5,2.89V144.33Z"/>
            <path id="Path-29" data-name="Path" class="exterior-R-prim" d="M307.5,52V92.37l-5,2.89V54.85Z"/>
            <path id="Path-30" data-name="Path" class="exterior-R-prim" d="M62.5,135.67l5-2.88V98.15l-5-2.89Z"/>
            <path id="Path-31" data-name="Path" class="exterior-R-prim" d="M178.5,166.85l5-2.89V123.55l-5,2.89Z"/>
            <path id="Path-32" data-name="Path" class="exterior-R-prim" d="M124.17,130.86V165.5l-5,2.89V128Z"/>
            <path id="Path-33" data-name="Path" class="exterior-R-prim" d="M209.5,149l5-2.88V105.65l-5,2.89Z"/>
            <path id="Path-34" data-name="Path" class="exterior-R-prim" d="M95.83,114.51v34.64l-5,2.88V111.62Z"/>
            <path id="Path-35" data-name="Path" class="exterior-R-prim" d="M240.5,131.06l5-2.89V87.75l-5,2.89Z"/>
            <path id="Path-36" data-name="Path" class="exterior-R-prim" d="M271.5,113.16l5-2.89V69.86l-5,2.88Z"/>
        </g>
        <g id="base-left-2" data-name="base-left">
            <path id="Path-37" data-name="Path" class="exterior-L-prim" d="M147.5,184.75l-5-2.89V141.45l5,2.88Z"/>
            <path id="Path-38" data-name="Path" class="exterior-L-prim" d="M302.5,95.26l-5-2.89V57.73l5-2.88Z"/>
            <path id="Path-39" data-name="Path" class="exterior-L-prim" d="M57.5,92.37v40.42l5,2.88V95.26Z"/>
            <path id="Path-40" data-name="Path" class="exterior-L-prim" d="M173.5,129.32V164l5,2.89V126.44Z"/>
            <path id="Path-41" data-name="Path" class="exterior-L-prim" d="M119.17,168.39l-5-2.89V125.09l5,2.89Z"/>
            <path id="Path-42" data-name="Path" class="exterior-L-prim" d="M204.5,111.43v34.64l5,2.88V108.54Z"/>
            <path id="Path-43" data-name="Path" class="exterior-L-prim" d="M90.83,152l-5-2.88V108.73l5,2.89Z"/>
            <path id="Path-44" data-name="Path" class="exterior-L-prim" d="M235.5,93.53v34.64l5,2.89V90.64Z"/>
            <path id="Path-45" data-name="Path" class="exterior-L-prim" d="M266.5,75.63v34.64l5,2.89V72.74Z"/>
        </g>
        <path id="Path-46" data-name="Path" class="cls-7" d="M160,192l155-89.49,40,23.09L200,215.06Z"/>
        <path id="Path-47" data-name="Path" class="cls-8" d="M162.5,190.52l20,11.55-2.5,1.44L160,192Z"/>
        <path id="Path-48" data-name="Path" class="cls-8" d="M182.5,202.07l20,11.55-2.5,1.44-20-11.55Z"/>
        <path id="Path-49" data-name="Path" class="cls-8" d="M175,194.85l20,11.55-2.5,1.44-20-11.54Z"/>
        <path id="Path-50" data-name="Path" class="cls-8" d="M202.5,213.62l2.5-1.45-10-5.77-2.5,1.44Z"/>
        <path id="Path-51" data-name="Path" class="cls-8" d="M162.5,190.52l2.5-1.44,10,5.77-2.5,1.45Z"/>
        <path id="Path-52" data-name="Path" class="cls-8" d="M167.5,187.64l20,11.54-2.5,1.45-20-11.55Z"/>
        <path id="Path-53" data-name="Path" class="cls-8" d="M187.5,199.18l20,11.55-2.5,1.44-20-11.54Z"/>
        <path id="Path-54" data-name="Path" class="cls-8" d="M180,192l20,11.54L197.5,205l-20-11.55Z"/>
        <path id="Path-55" data-name="Path" class="cls-8" d="M207.5,210.73l2.5-1.44-10-5.78L197.5,205Z"/>
        <path id="Path-56" data-name="Path" class="cls-8" d="M167.5,187.64l2.5-1.45L180,192l-2.5,1.44Z"/>
        <path id="Path-57" data-name="Path" class="cls-8" d="M182.5,179l20,11.54L200,192l-20-11.55Z"/>
        <path id="Path-58" data-name="Path" class="cls-8" d="M202.5,190.52l20,11.55-2.5,1.44L200,192Z"/>
        <path id="Path-59" data-name="Path" class="cls-8" d="M195,183.31l20,11.54-2.5,1.45-20-11.55Z"/>
        <path id="Path-60" data-name="Path" class="cls-8" d="M222.5,202.07l2.5-1.44-10-5.78-2.5,1.45Z"/>
        <path id="Path-61" data-name="Path" class="cls-8" d="M182.5,179l2.5-1.45,10,5.78-2.5,1.44Z"/>
        <path id="Path-62" data-name="Path" class="cls-8" d="M187.5,176.09l20,11.55-2.5,1.44-20-11.55Z"/>
        <path id="Path-63" data-name="Path" class="cls-8" d="M207.5,187.64l20,11.54-2.5,1.45-20-11.55Z"/>
        <path id="Path-64" data-name="Path" class="cls-8" d="M200,180.42,220,192l-2.5,1.44-20-11.55Z"/>
        <path id="Path-65" data-name="Path" class="cls-8" d="M227.5,199.18l2.5-1.44L220,192l-2.5,1.44Z"/>
        <path id="Path-66" data-name="Path" class="cls-8" d="M187.5,176.09l2.5-1.44,10,5.77-2.5,1.44Z"/>
        <path id="Path-67" data-name="Path" class="cls-8" d="M172.5,184.75l20,11.55-2.5,1.44-20-11.55Z"/>
        <path id="Path-68" data-name="Path" class="cls-8" d="M192.5,196.3l20,11.54-2.5,1.45-20-11.55Z"/>
        <path id="Path-69" data-name="Path" class="cls-8" d="M185,189.08l20,11.55-2.5,1.44-20-11.55Z"/>
        <path id="Path-70" data-name="Path" class="cls-8" d="M212.5,207.84l2.5-1.44-10-5.77-2.5,1.44Z"/>
        <path id="Path-71" data-name="Path" class="cls-8" d="M172.5,184.75l2.5-1.44,10,5.77-2.5,1.44Z"/>
        <path id="Path-72" data-name="Path" class="cls-8" d="M177.5,181.86l20,11.55-2.5,1.44-20-11.54Z"/>
        <path id="Path-73" data-name="Path" class="cls-8" d="M197.5,193.41l20,11.55L215,206.4l-20-11.55Z"/>
        <path id="Path-74" data-name="Path" class="cls-8" d="M190,186.19l20,11.55-2.5,1.44-20-11.54Z"/>
        <path id="Path-75" data-name="Path" class="cls-8" d="M217.5,205l2.5-1.45-10-5.77-2.5,1.44Z"/>
        <path id="Path-76" data-name="Path" class="cls-8" d="M177.5,181.86l2.5-1.44,10,5.77-2.5,1.45Z"/>
        <path id="Path-77" data-name="Path" class="cls-8" d="M192.5,173.2l20,11.55-2.5,1.44-20-11.54Z"/>
        <path id="Path-78" data-name="Path" class="cls-8" d="M212.5,184.75l20,11.55-2.5,1.44-20-11.55Z"/>
        <path id="Path-79" data-name="Path" class="cls-8" d="M205,177.53l20,11.55-2.5,1.44L202.5,179Z"/>
        <path id="Path-80" data-name="Path" class="cls-8" d="M232.5,196.3l2.5-1.45-10-5.77-2.5,1.44Z"/>
        <path id="Path-81" data-name="Path" class="cls-8" d="M192.5,173.2l2.5-1.44,10,5.77L202.5,179Z"/>
        <path id="Path-82" data-name="Path" class="cls-8" d="M197.5,170.32l20,11.54-2.5,1.45-20-11.55Z"/>
        <path id="Path-83" data-name="Path" class="cls-8" d="M217.5,181.86l20,11.55-2.5,1.44-20-11.54Z"/>
        <path id="Path-84" data-name="Path" class="cls-8" d="M210,174.65l20,11.54-2.5,1.45-20-11.55Z"/>
        <path id="Path-85" data-name="Path" class="cls-8" d="M237.5,193.41,240,192l-10-5.78-2.5,1.45Z"/>
        <path id="Path-86" data-name="Path" class="cls-8" d="M197.5,170.32l2.5-1.45,10,5.78-2.5,1.44Z"/>
        <path id="Path-87" data-name="Path" class="cls-8" d="M242.5,144.35l20,11.54-2.5,1.45-20-11.55Z"/>
        <path id="Path-88" data-name="Path" class="cls-8" d="M262.5,155.89l20,11.55-2.5,1.44-20-11.54Z"/>
        <path id="Path-89" data-name="Path" class="cls-8" d="M255,148.68l20,11.54-2.5,1.45-20-11.55Z"/>
        <path id="Path-90" data-name="Path" class="cls-8" d="M282.5,167.44,285,166l-10-5.78-2.5,1.45Z"/>
        <path id="Path-91" data-name="Path" class="cls-8" d="M242.5,144.35l2.5-1.45,10,5.78-2.5,1.44Z"/>
        <path id="Path-92" data-name="Path" class="cls-8" d="M247.5,141.46l20,11.55-2.5,1.44L245,142.9Z"/>
        <path id="Path-93" data-name="Path" class="cls-8" d="M267.5,153l20,11.54L285,166l-20-11.55Z"/>
        <path id="Path-94" data-name="Path" class="cls-8" d="M260,145.79l20,11.55-2.5,1.44-20-11.55Z"/>
        <path id="Path-95" data-name="Path" class="cls-8" d="M287.5,164.55l2.5-1.44-10-5.77-2.5,1.44Z"/>
        <path id="Path-96" data-name="Path" class="cls-8" d="M247.5,141.46,250,140l10,5.77-2.5,1.44Z"/>
        <path id="Path-97" data-name="Path" class="cls-8" d="M262.5,132.8l20,11.55-2.5,1.44-20-11.55Z"/>
        <path id="Path-98" data-name="Path" class="cls-8" d="M282.5,144.35l20,11.54-2.5,1.45-20-11.55Z"/>
        <path id="Path-99" data-name="Path" class="cls-8" d="M275,137.13l20,11.55-2.5,1.44-20-11.55Z"/>
        <path id="Path-100" data-name="Path" class="cls-8" d="M302.5,155.89l2.5-1.44-10-5.77-2.5,1.44Z"/>
        <path id="Path-101" data-name="Path" class="cls-8" d="M262.5,132.8l2.5-1.44,10,5.77-2.5,1.44Z"/>
        <path id="Path-102" data-name="Path" class="cls-8" d="M267.5,129.91l20,11.55L285,142.9l-20-11.54Z"/>
        <path id="Path-103" data-name="Path" class="cls-8" d="M287.5,141.46l20,11.55-2.5,1.44L285,142.9Z"/>
        <path id="Path-104" data-name="Path" class="cls-8" d="M280,134.24l20,11.55-2.5,1.44-20-11.54Z"/>
        <path id="Path-105" data-name="Path" class="cls-8" d="M307.5,153l2.5-1.45-10-5.77-2.5,1.44Z"/>
        <path id="Path-106" data-name="Path" class="cls-8" d="M267.5,129.91l2.5-1.44,10,5.77-2.5,1.45Z"/>
        <path id="Path-107" data-name="Path" class="cls-8" d="M252.5,138.57l20,11.55-2.5,1.44L250,140Z"/>
        <path id="Path-108" data-name="Path" class="cls-8" d="M272.5,150.12l20,11.55-2.5,1.44-20-11.55Z"/>
        <path id="Path-109" data-name="Path" class="cls-8" d="M265,142.9l20,11.55-2.5,1.44-20-11.54Z"/>
        <path id="Path-110" data-name="Path" class="cls-8" d="M292.5,161.67l2.5-1.45-10-5.77-2.5,1.44Z"/>
        <path id="Path-111" data-name="Path" class="cls-8" d="M252.5,138.57l2.5-1.44,10,5.77-2.5,1.45Z"/>
        <path id="Path-112" data-name="Path" class="cls-8" d="M257.5,135.69l20,11.54-2.5,1.45-20-11.55Z"/>
        <path id="Path-113" data-name="Path" class="cls-8" d="M277.5,147.23l20,11.55-2.5,1.44-20-11.54Z"/>
        <path id="Path-114" data-name="Path" class="cls-8" d="M270,140l20,11.54L287.5,153l-20-11.55Z"/>
        <path id="Path-115" data-name="Path" class="cls-8" d="M297.5,158.78l2.5-1.44-10-5.78L287.5,153Z"/>
        <path id="Path-116" data-name="Path" class="cls-8" d="M257.5,135.69l2.5-1.45L270,140l-2.5,1.44Z"/>
        <path id="Path-117" data-name="Path" class="cls-8" d="M272.5,127l20,11.54L290,140l-20-11.55Z"/>
        <path id="Path-118" data-name="Path" class="cls-8" d="M292.5,138.57l20,11.55-2.5,1.44L290,140Z"/>
        <path id="Path-119" data-name="Path" class="cls-8" d="M285,131.36l20,11.54-2.5,1.45-20-11.55Z"/>
        <path id="Path-120" data-name="Path" class="cls-8" d="M312.5,150.12l2.5-1.44-10-5.78-2.5,1.45Z"/>
        <path id="Path-121" data-name="Path" class="cls-8" d="M272.5,127l2.5-1.45,10,5.78-2.5,1.44Z"/>
        <path id="Path-122" data-name="Path" class="cls-8" d="M277.5,124.14l20,11.55-2.5,1.44-20-11.55Z"/>
        <path id="Path-123" data-name="Path" class="cls-8" d="M297.5,135.69l20,11.54-2.5,1.45-20-11.55Z"/>
        <path id="Path-124" data-name="Path" class="cls-8" d="M290,128.47,310,140l-2.5,1.44-20-11.55Z"/>
        <path id="Path-125" data-name="Path" class="cls-8" d="M317.5,147.23l2.5-1.44L310,140l-2.5,1.44Z"/>
        <path id="Path-126" data-name="Path" class="cls-8" d="M277.5,124.14l2.5-1.44,10,5.77-2.5,1.44Z"/>
        <path id="Path-127" data-name="Path" class="cls-8" d="M202.5,167.43l20,11.55-2.5,1.44-20-11.55Z"/>
        <path id="Path-128" data-name="Path" class="cls-8" d="M222.5,179l20,11.54L240,192l-20-11.55Z"/>
        <path id="Path-129" data-name="Path" class="cls-8" d="M215,171.76l20,11.55-2.5,1.44-20-11.55Z"/>
        <path id="Path-130" data-name="Path" class="cls-8" d="M242.5,190.52l2.5-1.44-10-5.77-2.5,1.44Z"/>
        <path id="Path-131" data-name="Path" class="cls-8" d="M202.5,167.43,205,166l10,5.77-2.5,1.44Z"/>
        <path id="Path-132" data-name="Path" class="cls-8" d="M207.5,164.54l20,11.55-2.5,1.44L205,166Z"/>
        <path id="Path-133" data-name="Path" class="cls-8" d="M227.5,176.09l20,11.55-2.5,1.44-20-11.55Z"/>
        <path id="Path-134" data-name="Path" class="cls-8" d="M220,168.87l20,11.55-2.5,1.44-20-11.54Z"/>
        <path id="Path-135" data-name="Path" class="cls-8" d="M247.5,187.64l2.5-1.45-10-5.77-2.5,1.44Z"/>
        <path id="Path-136" data-name="Path" class="cls-8" d="M207.5,164.54l2.5-1.44,10,5.77-2.5,1.45Z"/>
        <path id="Path-137" data-name="Path" class="cls-8" d="M222.5,155.88l20,11.55-2.5,1.44-20-11.54Z"/>
        <path id="Path-138" data-name="Path" class="cls-8" d="M242.5,167.43l20,11.55-2.5,1.44-20-11.55Z"/>
        <path id="Path-139" data-name="Path" class="cls-8" d="M235,160.21l20,11.55-2.5,1.44-20-11.54Z"/>
        <path id="Path-140" data-name="Path" class="cls-8" d="M262.5,179l2.5-1.45-10-5.77-2.5,1.44Z"/>
        <path id="Path-141" data-name="Path" class="cls-8" d="M222.5,155.88l2.5-1.44,10,5.77-2.5,1.45Z"/>
        <path id="Path-142" data-name="Path" class="cls-8" d="M227.5,153l20,11.54L245,166l-20-11.55Z"/>
        <path id="Path-143" data-name="Path" class="cls-8" d="M247.5,164.54l20,11.55-2.5,1.44L245,166Z"/>
        <path id="Path-144" data-name="Path" class="cls-8" d="M240,157.33l20,11.54-2.5,1.45-20-11.55Z"/>
        <path id="Path-145" data-name="Path" class="cls-8" d="M267.5,176.09l2.5-1.44-10-5.78-2.5,1.45Z"/>
        <path id="Path-146" data-name="Path" class="cls-8" d="M227.5,153l2.5-1.45,10,5.78-2.5,1.44Z"/>
        <path id="Path-147" data-name="Path" class="cls-8" d="M212.5,161.66l20,11.54-2.5,1.45L210,163.1Z"/>
        <path id="Path-148" data-name="Path" class="cls-8" d="M232.5,173.2l20,11.55-2.5,1.44-20-11.54Z"/>
        <path id="Path-149" data-name="Path" class="cls-8" d="M225,166l20,11.54L242.5,179l-20-11.55Z"/>
        <path id="Path-150" data-name="Path" class="cls-8" d="M252.5,184.75l2.5-1.44-10-5.78L242.5,179Z"/>
        <path id="Path-151" data-name="Path" class="cls-8" d="M212.5,161.66l2.5-1.45L225,166l-2.5,1.44Z"/>
        <path id="Path-152" data-name="Path" class="cls-8" d="M217.5,158.77l20,11.55-2.5,1.44-20-11.55Z"/>
        <path id="Path-153" data-name="Path" class="cls-8" d="M237.5,170.32l20,11.54-2.5,1.45-20-11.55Z"/>
        <path id="Path-154" data-name="Path" class="cls-8" d="M230,163.1l20,11.55-2.5,1.44-20-11.55Z"/>
        <path id="Path-155" data-name="Path" class="cls-8" d="M257.5,181.86l2.5-1.44-10-5.77-2.5,1.44Z"/>
        <path id="Path-156" data-name="Path" class="cls-8" d="M217.5,158.77l2.5-1.44,10,5.77-2.5,1.44Z"/>
        <path id="Path-157" data-name="Path" class="cls-8" d="M232.5,150.11l20,11.55L250,163.1l-20-11.55Z"/>
        <path id="Path-158" data-name="Path" class="cls-8" d="M252.5,161.66l20,11.54-2.5,1.45L250,163.1Z"/>
        <path id="Path-159" data-name="Path" class="cls-8" d="M245,154.44,265,166l-2.5,1.44-20-11.55Z"/>
        <path id="Path-160" data-name="Path" class="cls-8" d="M272.5,173.2l2.5-1.44L265,166l-2.5,1.44Z"/>
        <path id="Path-161" data-name="Path" class="cls-8" d="M232.5,150.11l2.5-1.45,10,5.78-2.5,1.44Z"/>
        <path id="Path-162" data-name="Path" class="cls-8" d="M237.5,147.22l20,11.55-2.5,1.44-20-11.55Z"/>
        <path id="Path-163" data-name="Path" class="cls-8" d="M257.5,158.77l20,11.55-2.5,1.44-20-11.55Z"/>
        <path id="Path-164" data-name="Path" class="cls-8" d="M250,151.55l20,11.55-2.5,1.44L247.5,153Z"/>
        <path id="Path-165" data-name="Path" class="cls-8" d="M277.5,170.32l2.5-1.45-10-5.77-2.5,1.44Z"/>
        <path id="Path-166" data-name="Path" class="cls-8" d="M237.5,147.22l2.5-1.44,10,5.77L247.5,153Z"/>
        <path id="Path-167" data-name="Path" class="cls-8" d="M282.5,121.25l20,11.55-2.5,1.44L280,122.7Z"/>
        <path id="Path-168" data-name="Path" class="cls-8" d="M302.5,132.8l20,11.55-2.5,1.44-20-11.55Z"/>
        <path id="Path-169" data-name="Path" class="cls-8" d="M295,125.58l20,11.55-2.5,1.44L292.5,127Z"/>
        <path id="Path-170" data-name="Path" class="cls-8" d="M322.5,144.35l2.5-1.45-10-5.77-2.5,1.44Z"/>
        <path id="Path-171" data-name="Path" class="cls-8" d="M282.5,121.25l2.5-1.44,10,5.77L292.5,127Z"/>
        <path id="Path-172" data-name="Path" class="cls-8" d="M287.5,118.37l20,11.54-2.5,1.45-20-11.55Z"/>
        <path id="Path-173" data-name="Path" class="cls-8" d="M307.5,129.91l20,11.55L325,142.9l-20-11.54Z"/>
        <path id="Path-174" data-name="Path" class="cls-8" d="M300,122.7l20,11.54-2.5,1.45-20-11.55Z"/>
        <path id="Path-175" data-name="Path" class="cls-8" d="M327.5,141.46,330,140l-10-5.78-2.5,1.45Z"/>
        <path id="Path-176" data-name="Path" class="cls-8" d="M287.5,118.37l2.5-1.45,10,5.78-2.5,1.44Z"/>
        <path id="Path-177" data-name="Path" class="cls-8" d="M302.5,109.71l20,11.54L320,122.7l-20-11.55Z"/>
        <path id="Path-178" data-name="Path" class="cls-8" d="M322.5,121.25l20,11.55-2.5,1.44L320,122.7Z"/>
        <path id="Path-179" data-name="Path" class="cls-8" d="M315,114l20,11.54L332.5,127l-20-11.55Z"/>
        <path id="Path-180" data-name="Path" class="cls-8" d="M342.5,132.8l2.5-1.44-10-5.78L332.5,127Z"/>
        <path id="Path-181" data-name="Path" class="cls-8" d="M302.5,109.71l2.5-1.45L315,114l-2.5,1.44Z"/>
        <path id="Path-182" data-name="Path" class="cls-8" d="M307.5,106.82l20,11.55-2.5,1.44-20-11.55Z"/>
        <path id="Path-183" data-name="Path" class="cls-8" d="M327.5,118.37l20,11.54-2.5,1.45-20-11.55Z"/>
        <path id="Path-184" data-name="Path" class="cls-8" d="M320,111.15l20,11.55-2.5,1.44-20-11.55Z"/>
        <path id="Path-185" data-name="Path" class="cls-8" d="M347.5,129.91l2.5-1.44-10-5.77-2.5,1.44Z"/>
        <path id="Path-186" data-name="Path" class="cls-8" d="M307.5,106.82l2.5-1.44,10,5.77-2.5,1.44Z"/>
        <path id="Path-187" data-name="Path" class="cls-8" d="M292.5,115.48l20,11.55-2.5,1.44-20-11.55Z"/>
        <path id="Path-188" data-name="Path" class="cls-8" d="M312.5,127l20,11.54L330,140l-20-11.55Z"/>
        <path id="Path-189" data-name="Path" class="cls-8" d="M305,119.81l20,11.55-2.5,1.44-20-11.55Z"/>
        <path id="Path-190" data-name="Path" class="cls-8" d="M332.5,138.57l2.5-1.44-10-5.77-2.5,1.44Z"/>
        <path id="Path-191" data-name="Path" class="cls-8" d="M292.5,115.48,295,114l10,5.77-2.5,1.44Z"/>
        <path id="Path-192" data-name="Path" class="cls-8" d="M297.5,112.59l20,11.55-2.5,1.44L295,114Z"/>
        <path id="Path-193" data-name="Path" class="cls-8" d="M317.5,124.14l20,11.55-2.5,1.44-20-11.55Z"/>
        <path id="Path-194" data-name="Path" class="cls-8" d="M310,116.92l20,11.55-2.5,1.44-20-11.54Z"/>
        <path id="Path-195" data-name="Path" class="cls-8" d="M337.5,135.69l2.5-1.45-10-5.77-2.5,1.44Z"/>
        <path id="Path-196" data-name="Path" class="cls-8" d="M297.5,112.59l2.5-1.44,10,5.77-2.5,1.45Z"/>
        <path id="Path-197" data-name="Path" class="cls-8" d="M312.5,103.93l20,11.55-2.5,1.44-20-11.54Z"/>
        <path id="Path-198" data-name="Path" class="cls-8" d="M332.5,115.48l20,11.55-2.5,1.44-20-11.55Z"/>
        <path id="Path-199" data-name="Path" class="cls-8" d="M325,108.26l20,11.55-2.5,1.44-20-11.54Z"/>
        <path id="Path-200" data-name="Path" class="cls-8" d="M352.5,127l2.5-1.45-10-5.77-2.5,1.44Z"/>
        <path id="Path-201" data-name="Path" class="cls-8" d="M312.5,103.93l2.5-1.44,10,5.77-2.5,1.45Z"/>
        <path id="Path-202" data-name="Path" class="cls-9" d="M200,229.49v2.89L380,128.46v-2.89Z"/>
        <path id="Path-203" data-name="Path" class="cls-9" d="M200,235.27v2.88L382.5,132.79v-2.91Z"/>
        <path id="Path-204" data-name="Path" class="cls-9" d="M200,241v2.89L385,137.12v-2.89Z"/>
        <path id="Path-205" data-name="Path" class="cls-2" d="M200,232.38v2.89L382.5,129.9l-2.5-1.44Z"/>
        <path id="Path-206" data-name="Path" class="cls-2" d="M200,238.15V241L385,134.23l-2.5-1.44Z"/>
        <path id="Path-207" data-name="Path" class="cls-10" d="M200,232.39v-2.88L30,131.36v2.88Z"/>
        <path id="Path-208" data-name="Path" class="cls-9" d="M200,235.28v-2.89L30,134.24l-2.5,1.45Z"/>
        <path id="Path-209" data-name="Path" class="cls-10" d="M200,238.17,27.5,138.57v-2.88L200,235.28Z"/>
        <path id="Path-210" data-name="Path" class="cls-9" d="M200,241.05,25,140l2.5-1.45L200,238.17Z"/>
        <path id="Path-211" data-name="Path" class="cls-10" d="M200,243.94,25,142.9V140l175,101Z"/>
        <path id="Path-212" data-name="Path" class="cls-9" d="M165,194.85l5-2.88v-2.89L165,192Z"/>
        <path id="Path-213" data-name="Path" class="cls-9" d="M195,212.17l5-2.88V206.4l-5,2.89Z"/>
        <path id="Path-214" data-name="Path" class="cls-10" d="M195,209.29,165,192v2.88l30,17.32Z"/>
        <path id="Path-215" data-name="Path" class="cls-2" d="M200,206.4l-30-17.32L165,192l30,17.32Z"/>
        <path id="Path-216" data-name="Path" class="cls-10" d="M230,197.74l-5-2.89V192l5,2.88Z"/>
        <path id="Path-217" data-name="Path" class="cls-9" d="M230,194.85l30-17.32v2.89l-30,17.32Z"/>
        <path id="Path-218" data-name="Path" class="cls-2" d="M225,192l30-17.32,5,2.88-30,17.32Z"/>
        <path id="Path-219" data-name="Path" class="cls-10" d="M295,160.21l-5-2.88v-2.89l5,2.89Z"/>
        <path id="Path-220" data-name="Path" class="cls-9" d="M295,157.33,325,140v2.89l-30,17.32Z"/>
        <path id="Path-221" data-name="Path" class="cls-2" d="M290,154.44l30-17.32,5,2.88-30,17.33Z"/>
        <path id="Path-222" data-name="Path" class="cls-9" d="M345,125.57l5-2.89V119.8l-5,2.88Z"/>
        <path id="Path-223" data-name="Path" class="cls-10" d="M345,122.68l-30-17.32v2.89l30,17.32Z"/>
        <path id="Path-224" data-name="Path" class="cls-2" d="M350,119.8l-30-17.32-5,2.88,30,17.32Z"/>
        <path id="Path-225" data-name="Path" class="cls-11" d="M182.5,190.52l20,11.55,5-2.89-20-11.54Z"/>
        <path id="Path-226" data-name="Path" class="cls-11" d="M245,154.44,265,166l5-2.89-20-11.55Z"/>
        <path id="Path-227" data-name="Path" class="cls-11" d="M307.5,118.35l20,11.55,5-2.89-20-11.54Z"/>
        <path id="Compound_Shape" data-name="Compound Shape" class="cls-12"
              d="M251.67,154.72h0c0,.53-.75,1-1.67,1s-1.67-.43-1.67-1h0V147h3.34v7.7Z"/>
        <ellipse id="Ellipse" class="cls-13" cx="250" cy="134.92" rx="10" ry="13.47"/>
        <path id="Compound_Shape-2" data-name="Compound Shape" class="cls-14"
              d="M266.67,163.38h0c0,.53-.75,1-1.67,1s-1.67-.43-1.67-1h0v-7.7h3.34v7.7Z"/>
        <ellipse id="Ellipse-2" data-name="Ellipse" class="cls-15" cx="265" cy="143.58" rx="10" ry="13.47"/>
        <path id="Compound_Shape-3" data-name="Compound Shape" class="cls-16"
              d="M189.17,190.8h0c0,.53-.75,1-1.67,1s-1.67-.43-1.67-1h0v-7.7h3.34v7.7Z"/>
        <ellipse id="Ellipse-3" data-name="Ellipse" class="cls-17" cx="187.5" cy="171" rx="10" ry="13.47"/>
        <path id="Compound_Shape-4" data-name="Compound Shape" class="cls-18"
              d="M204.17,199.46h0c0,.53-.75,1-1.67,1s-1.67-.43-1.67-1h0v-7.7h3.34v7.7Z"/>
        <ellipse id="Ellipse-4" data-name="Ellipse" class="cls-19" cx="202.5" cy="179.66" rx="10" ry="13.47"/>
        <path id="Path-228" data-name="Path" class="cls-11" d="M219.91,174.65l10,5.77,5-2.89-10-5.77Z"/>
        <g id="Group">
            <path id="Compound_Shape-5" data-name="Compound Shape" class="cls-20"
                  d="M229.07,176.09h0c0,.53-.74,1-1.66,1s-1.67-.43-1.67-1h0v-7.7h3.33v7.7Z"/>
            <ellipse id="Ellipse-5" data-name="Ellipse" class="cls-21" cx="227.41" cy="156.29" rx="10" ry="13.47"/>
        </g>
        <path id="Path-229" data-name="Path" class="cls-11" d="M282.5,138.57l10,5.77,5-2.89-10-5.77Z"/>
        <path id="Compound_Shape-6" data-name="Compound Shape" class="cls-22"
              d="M291.67,140.12h0c0,.53-.75,1-1.67,1s-1.67-.44-1.67-1h0v-7.69h3.34v7.69Z"/>
        <ellipse id="Ellipse-6" data-name="Ellipse" class="cls-23" cx="290" cy="120.33" rx="10" ry="13.47"/>
        <path id="Compound_Shape-7" data-name="Compound Shape" class="cls-24"
              d="M314.17,118.63h0c0,.53-.75,1-1.67,1s-1.67-.43-1.67-1h0v-7.7h3.34v7.7Z"/>
        <ellipse id="Ellipse-7" data-name="Ellipse" class="cls-25" cx="312.5" cy="98.83" rx="10" ry="13.47"/>
        <path id="Compound_Shape-8" data-name="Compound Shape" class="cls-26"
              d="M329.17,127.29h0c0,.53-.75,1-1.67,1s-1.67-.43-1.67-1h0v-7.7h3.34v7.7Z"/>
        <ellipse id="Ellipse-8" data-name="Ellipse" class="cls-27" cx="327.5" cy="107.49" rx="10" ry="13.47"/>
        <path id="Path-230" data-name="Path" class="cls-10" d="M0,140v2.89L200,258.36v-2.89Z"/>
        <path id="Path-231" data-name="Path" class="cls-9" d="M200,258.36,405,140v-2.88L200,255.47Z"/>
        <path id="anchor-01_144.03" class="top-prim" d="M57.5,92.37,217.5,0l90,52-160,92.37Z"/>
    </g>
</svg>