<?xml version="1.0" encoding="utf-8"?>
<svg version="1.1" id="Layer_1"
	 xmlns="http://www.w3.org/2000/svg" xmlns:xlink="http://www.w3.org/1999/xlink" x="0px" y="0px" viewBox="0 0 130 82.56"
	 style="enable-background:new 0 0 130 82.56;" xml:space="preserve">
<style type="text/css">
	<!--.exterior_x002D_L_x002D_prim{fill:#2E2E2E;}-->
	<!--.exterior_x002D_L_x002D_dark{fill:#191919;}-->
	<!--.exterior_x002D_R_x002D_prim{fill:#5D5D5D;}-->
	<!--.top_x002D_light{fill:#E8E8E8;}-->
	<!--.top_x002D_prim{fill:#B9B9B9;}-->
	.st0{fill:#7CB7B5;}
	.st1{fill:#547371;}
	.st2{fill:#6E9593;}
	.st3{fill:#89CECC;}
	.st4{fill:#BCF7F5;}
</style>
<switch>
	<g>
		<g id="_x32_00-vesey-roof">
			<path id="body-L2" class="exterior_x002D_L_x002D_prim" d="M65,82.56L0,45.03v-7.51l65,37.53V82.56z"/>
			<path id="top-T2" class="top_x002D_light" d="M65,75.05l65-37.53L65,0L0,37.53L65,75.05z"/>
			<path id="top-T1" class="top_x002D_prim" d="M4.33,37.53L65,2.5l60.67,35.03L65,72.55L4.33,37.53z"/>
			<path id="body-R2" class="exterior_x002D_R_x002D_prim" d="M65,75.05v7.51l65-37.53v-7.51L65,75.05z"/>
			<path id="Path" class="st0" d="M65,70.05l52-30.02V30.02L65,60.04V70.05z"/>
			<path id="Path_1_" class="st1" d="M65,70.05L13,40.03V30.02l52,30.02V70.05z"/>
			<path id="Path_2_" class="st2" d="M65,60.04V12.51L13,30.02L65,60.04z"/>
			<path id="Path_3_" class="st3" d="M117,30.02L65,60.04V12.51L117,30.02z"/>
			<path id="Path_4_" class="st4" d="M65,12.51V0l52,30.02L65,12.51z"/>
			<path id="Path_5_" class="st1" d="M13,30.02L65,0v12.51L13,30.02z"/>
			<path id="body-R2_1_" class="exterior_x002D_R_x002D_prim" d="M13,35.03l-6.5,3.75l-2.17-1.25l8.67-5V35.03z"/>
			<path id="body-L2_1_" class="exterior_x002D_L_x002D_prim" d="M123.5,38.78l-6.5-3.75v-2.5l8.67,5L123.5,38.78z"/>
		</g>
	</g>
</switch>
</svg>
