<svg id="Layer_1" data-name="Layer 1" xmlns="http://www.w3.org/2000/svg" viewBox="0 0 255.2057 680.5489">
  <defs>
    <style>
      .curtain-L-prim-dark {
        fill: #2f5565;
      }

      .curtain-R-prim-dark {
        fill: #3e809c;
      }

      .curtain-L-prim-light {
        fill: #438fb0;
      }

      .curtain-R-prim-light {
        fill: #59acd0;
      }

      .exterior-L-prim {
        fill: #73302e;
      }

      .exterior-R-prim {
        fill: #d05752;
      }

      .top-light {
        fill: #ffc8c6;
      }

      .top-prim {
        fill: #dd8a87;
      }

      .cls-1 {
        fill: #e8e8e8;
      }

      .cls-2 {
        fill: #b9b9b9;
      }

      .exterior-R-dark {
        fill: #a64c49;
      }

      .exterior-L-dark {
        fill: #512220;
      }

      .cls-3 {
        fill: #c1c1c1;
      }

      .cls-4 {
        fill: #ebebeb;
      }
    </style>
  </defs>
  <title>Artboard 8</title>
  <g id="root">
    <path id="Body_-_Left" data-name="Body - Left" class="curtain-L-prim-dark" d="M8.8657,578.7389l176.34,101.81,10-5.773V582.4l-10,5.773-185-106.81v82.3761C.2057,569.2579,4.0856,575.98,8.8657,578.7389Z"/>
    <path id="Body_-_Right" data-name="Body - Right" class="curtain-R-prim-dark" d="M185.2057,570.8528l70-40.4149v99.6959c0,5.52-3.8811,12.2411-8.6611,15l-61.3389,35.4151Z"/>
    <path id="body-mechanicalfloor-left" class="curtain-L-prim-light" d="M.2057,539.0978l185,106.81v23.0941l-176.34-101.81c-4.78-2.7591-8.66-9.481-8.66-15Z"/>
    <path id="body-mechanicalfloor-left-2" data-name="body-mechanicalfloor-left" class="curtain-L-prim-dark" d="M.2057,527.5508l185,106.81v23.0941l-176.34-101.81c-4.78-2.759-8.66-9.4809-8.66-15Z"/>
    <path id="body-mechanicalfloor-left-3" data-name="body-mechanicalfloor-left" class="curtain-L-prim-light" d="M.2057,516.0038l185,106.81v23.094l-176.34-101.81c-4.78-2.7589-8.66-9.4809-8.66-15Z"/>
    <path id="body-mechanicalfloor-left-4" data-name="body-mechanicalfloor-left" class="curtain-L-prim-dark" d="M.2057,504.4568l185,106.81v23.094l-176.34-101.81c-4.78-2.7589-8.66-9.4809-8.66-15Z"/>
    <path id="body-mechanicalfloor-right" class="curtain-R-prim-light" d="M255.2057,605.4938l-70,40.414v23.0941l61.3389-35.4151c4.78-2.7589,8.6611-9.48,8.6611-15Z"/>
    <path id="body-mechanicalfloor-left-5" data-name="body-mechanicalfloor-left" class="curtain-L-prim-light" d="M.2057,492.91l185,106.81v23.094l-176.34-101.81c-4.78-2.7589-8.66-9.4809-8.66-15Z"/>
    <path id="body-mechanicalfloor-right-2" data-name="body-mechanicalfloor-right" class="curtain-R-prim-dark" d="M255.2057,593.9468l-70,40.414v23.0941l61.3389-35.414c4.78-2.76,8.6611-9.481,8.6611-15Z"/>
    <path id="body-mechanicalfloor-left-6" data-name="body-mechanicalfloor-left" class="exterior-L-prim" d="M185.2057,611.2668l5-2.8869v-46.188l-5,2.8869-185-106.81v36.188c0,5.5191,3.88,12.2411,8.66,15Z"/>
    <path id="body-mechanicalfloor-right-3" data-name="body-mechanicalfloor-right" class="curtain-R-prim-light" d="M255.2057,582.4l-70,40.414v23.094l61.3389-35.414c4.78-2.76,8.6611-9.4809,8.6611-15Z"/>
    <path id="body-mechanicalfloor-right-4" data-name="body-mechanicalfloor-right" class="curtain-R-prim-dark" d="M255.2057,570.8528l-70,40.414v23.094l61.3389-35.414c4.78-2.76,8.6611-9.4809,8.6611-15Z"/>
    <path id="body-mechanicalfloor-right-5" data-name="body-mechanicalfloor-right" class="curtain-R-prim-light" d="M255.2057,559.3058l-70,40.414v23.094l61.3389-35.415c4.78-2.7589,8.6611-9.48,8.6611-14.999Z"/>
    <path id="body-mechanicalfloor-right-6" data-name="body-mechanicalfloor-right" class="exterior-R-prim" d="M255.2057,518.8909l-70,40.414v51.9619l61.3389-35.4149c4.78-2.759,8.6611-9.48,8.6611-15Z"/>
    <path id="body-top" class="top-light" d="M185.2057,576.6258l45.2439-26.122c32.98-19.0409,32.9681-49.938-.0268-68.953l-125.551-72.357-95.148,55.109c-5.2532,3.0431-5.25,7.9781.0078,11.013Z"/>
    <path id="body-top-inner" class="top-prim" d="M185.2057,570.8528l43.0379-24.849c28.6782-16.557,28.6682-43.4239-.0239-59.958L99.8718,412.0809,5.2057,466.9289Z"/>
    <path id="Body_-_Left-2" data-name="Body - Left" class="curtain-L-prim-dark" d="M.2057,459.8158v-105.47l145,83.716,10-5.7741v115.47l-10,5.7739-136.34-78.716C4.0856,472.0569.2057,465.3348.2057,459.8158Z"/>
    <path id="body-mechanicalfloor-right-7" data-name="body-mechanicalfloor-right" class="exterior-R-prim" d="M155.1786,553.5318l-5-2.887v-5.7729l69.972-40.4151.0261,5.547a11.4163,11.4163,0,0,1-5.168,8.9991Z"/>
    <path id="Body_-_Right-2" data-name="Body - Right" class="cls-1" d="M145.2057,553.5318V449.6089l75-43.3011v93.9231c0,5.519-3.8811,12.24-8.6611,15Z"/>
    <path id="body-mechanicalfloor-right-8" data-name="body-mechanicalfloor-right" class="curtain-R-prim-dark" d="M145.2057,553.5318V472.7029l75-43.3011v72.8291a15.324,15.324,0,0,1-6.9289,12Z"/>
    <path id="body-mechanicalfloor-right-9" data-name="body-mechanicalfloor-right" class="curtain-R-prim-light" d="M145.2057,541.9848V518.8909l75-43.3011v15.094a15.3237,15.3237,0,0,1-6.9289,12Z"/>
    <path id="body-mechanicalfloor-right-10" data-name="body-mechanicalfloor-right" class="curtain-R-prim-dark" d="M145.2057,530.4379v-23.094l75-43.3011v15.094a15.3237,15.3237,0,0,1-6.9289,12Z"/>
    <path id="body-mechanicalfloor-left-7" data-name="body-mechanicalfloor-left" class="curtain-L-prim-light" d="M.2057,435.1749l145,83.716v23.0939l-136.34-78.716c-4.78-2.7589-8.66-9.481-8.66-15Z"/>
    <path id="body-mechanicalfloor-left-8" data-name="body-mechanicalfloor-left" class="curtain-L-prim-dark" d="M.2057,423.6279l145,83.716v23.094L8.8657,451.7218c-4.78-2.7589-8.66-9.481-8.66-15Z"/>
    <path id="body-mechanicalfloor-left-9" data-name="body-mechanicalfloor-left" class="curtain-L-prim-light" d="M.2057,412.0809l145,83.716v23.094l-136.34-78.716c-4.78-2.759-8.66-9.4811-8.66-15Z"/>
    <path id="body-mechanicalfloor-left-10" data-name="body-mechanicalfloor-left" class="curtain-L-prim-dark" d="M.2057,400.5339l145,83.716v23.094l-136.34-78.716c-4.78-2.7591-8.66-9.4811-8.66-15Z"/>
    <path id="body-mechanicalfloor-left-11" data-name="body-mechanicalfloor-left" class="curtain-L-prim-light" d="M.2057,388.9869l145,83.716v23.094l-136.34-78.716c-4.78-2.7591-8.66-9.4811-8.66-15Z"/>
    <path id="body-mechanicalfloor-left-12" data-name="body-mechanicalfloor-left" class="exterior-L-prim" d="M.2057,354.3459l145,83.716,5-2.887v46.1879l-5,2.8871-136.34-78.716c-4.78-2.7591-8.66-9.4811-8.66-15Z"/>
    <path id="body-mechanicalfloor-right-11" data-name="body-mechanicalfloor-right" class="curtain-R-prim-light" d="M145.2057,518.8909v-23.094l75-43.3011V467.59a15.3239,15.3239,0,0,1-6.9289,12Z"/>
    <path id="body-mechanicalfloor-right-12" data-name="body-mechanicalfloor-right" class="curtain-R-prim-dark" d="M145.2057,507.3439V484.25l75-43.3011v15.094a15.3239,15.3239,0,0,1-6.9289,12Z"/>
    <path id="body-top-2" data-name="body-top" class="top-light" d="M145.2057,449.6089l-131.225-75.763c-18.6409-10.7621-18.6409-28.2381,0-39l46.225-26.6881,160,98.15Z"/>
    <path id="body-top-inner-2" data-name="body-top-inner" class="top-prim" d="M139.8718,440.9488l-123.7-71.578c-14.331-8.292-14.3252-21.7459.0139-30.0249l49.02-28.3011,149.6661,86.602Z"/>
    <path id="body-mechanicalfloor-right-13" data-name="body-mechanicalfloor-right" class="curtain-R-prim-light" d="M145.2057,495.7969v-23.094l75-43.3011v15.094a15.3239,15.3239,0,0,1-6.9289,12Z"/>
    <path id="body-mechanicalfloor-right-14" data-name="body-mechanicalfloor-right" class="curtain-R-prim-dark" d="M145.2057,414.9679V391.8738l75-43.3009v15.094a15.3243,15.3243,0,0,1-6.9289,12Z"/>
    <path id="body-mechanicalfloor-right-15" data-name="body-mechanicalfloor-right" class="exterior-R-prim" d="M220.2057,394.7608l-75,43.3011V484.25l66.3389-38.3011c4.78-2.76,8.6611-9.4809,8.6611-15Z"/>
    <path id="body-mechanicalfloor-right-16" data-name="body-mechanicalfloor-right" class="curtain-R-prim-light" d="M145.2057,449.6089l-10-5.7741v-115.47l10,5.7739,75-43.3009v107.47a15.324,15.324,0,0,1-6.9289,12Z"/>
    <path id="body-mechanicalfloor-right-17" data-name="body-mechanicalfloor-right" class="curtain-R-prim-dark" d="M145.2057,391.8738V368.78l75-43.3009v15.094a15.3242,15.3242,0,0,1-6.9289,12Z"/>
    <path id="body-mechanicalfloor-right-18" data-name="body-mechanicalfloor-right" class="curtain-R-prim-dark" d="M145.2057,438.0619v-23.094l75-43.301v15.0939a15.324,15.324,0,0,1-6.9289,12Z"/>
    <path id="body-mechanicalfloor-right-19" data-name="body-mechanicalfloor-right" class="curtain-R-prim-light" d="M145.2057,426.5149V403.4208l75-43.3009v15.094a15.3243,15.3243,0,0,1-6.9289,12Z"/>
    <path id="body-mechanicalfloor-right-20" data-name="body-mechanicalfloor-right" class="curtain-R-prim-dark" d="M145.2057,414.9679V391.8738l75-43.3009v15.094a15.3243,15.3243,0,0,1-6.9289,12Z"/>
    <path id="body-mechanicalfloor-right-21" data-name="body-mechanicalfloor-right" class="curtain-R-prim-light" d="M145.2057,403.4208v-23.094l75-43.3009V352.12a15.3243,15.3243,0,0,1-6.9289,12Z"/>
    <path id="body-mechanicalfloor-right-22" data-name="body-mechanicalfloor-right" class="curtain-R-prim-dark" d="M145.2057,391.8738V368.78l75-43.3009v15.094a15.3242,15.3242,0,0,1-6.9289,12Z"/>
    <path id="body-mechanicalfloor-right-23" data-name="body-mechanicalfloor-right" class="curtain-R-prim-light" d="M145.2057,380.3268v-23.094l75-43.3009v15.094a15.3242,15.3242,0,0,1-6.9289,12Z"/>
    <path id="body-mechanicalfloor-right-24" data-name="body-mechanicalfloor-right" class="curtain-R-prim-dark" d="M144.8718,368.78v-23.094l75-43.3009v15.094a15.3232,15.3232,0,0,1-6.928,12Z"/>
    <path id="body-mechanicalfloor-left-13" data-name="body-mechanicalfloor-left" class="curtain-L-prim-dark" d="M145.2057,414.9679V397.6468l-105-60.6209v9.32a15.3235,15.3235,0,0,0,6.928,12Z"/>
    <path id="body-mechanicalfloor-right-25" data-name="body-mechanicalfloor-right" class="curtain-R-prim-light" d="M144.8718,357.2328v-23.094l75-43.3009v15.094a15.3232,15.3232,0,0,1-6.928,12Z"/>
    <path id="Body_Left" data-name="Body Left" class="cls-2" d="M145.2057,311.0448V449.6089l-96.34-55.622c-4.78-2.7591-8.66-9.4811-8.66-15V250.4228Z"/>
    <path id="body-mechanicalfloor-left-14" data-name="body-mechanicalfloor-left" class="curtain-L-prim-light" d="M145.2057,449.6089v-115.47l-105-60.622v107.47a15.3235,15.3235,0,0,0,6.928,12Z"/>
    <path id="body-mechanicalfloor-left-15" data-name="body-mechanicalfloor-left" class="curtain-L-prim-dark" d="M145.2057,438.0619V417.8548l-105-60.622V369.44a15.3235,15.3235,0,0,0,6.928,12Z"/>
    <path id="body-mechanicalfloor-left-16" data-name="body-mechanicalfloor-left" class="curtain-L-prim-light" d="M145.2057,426.5149V406.3078l-105-60.622v12.2071a15.3235,15.3235,0,0,0,6.928,12Z"/>
    <path id="body-mechanicalfloor-left-17" data-name="body-mechanicalfloor-left" class="curtain-L-prim-dark" d="M145.2057,414.9679V394.7608l-105-60.622v12.2071a15.3235,15.3235,0,0,0,6.928,12Z"/>
    <path id="body-mechanicalfloor-left-18" data-name="body-mechanicalfloor-left" class="curtain-L-prim-light" d="M145.2057,403.4208V383.2139l-105-60.6221v12.2071a15.3233,15.3233,0,0,0,6.928,12Z"/>
    <path id="body-mechanicalfloor-left-19" data-name="body-mechanicalfloor-left" class="curtain-L-prim-dark" d="M145.2057,391.8738V371.6669l-105-60.6221v12.2071a15.3233,15.3233,0,0,0,6.928,12Z"/>
    <path id="body-mechanicalfloor-left-20" data-name="body-mechanicalfloor-left" class="curtain-L-prim-light" d="M145.2057,380.3268V360.12l-105-60.6221v12.2071a15.3233,15.3233,0,0,0,6.928,12Z"/>
    <path id="body-mechanicalfloor-left-21" data-name="body-mechanicalfloor-left" class="curtain-L-prim-dark" d="M145.2057,368.78V348.5729l-105-60.622v12.2069a15.323,15.323,0,0,0,6.928,12Z"/>
    <path id="body-mechanicalfloor-left-22" data-name="body-mechanicalfloor-left" class="curtain-L-prim-light" d="M145.2057,357.2328V337.0259l-105-60.622v12.2069a15.323,15.323,0,0,0,6.928,12Z"/>
    <path id="Path" class="exterior-R-dark" d="M150.2057,452.4958l5-2.8869v23.094l-5,2.8869Z"/>
    <path id="Path-2" data-name="Path" class="exterior-R-dark" d="M190.1506,579.5129l5-2.8871V599.72l-5,2.8871Z"/>
    <path id="Path-3" data-name="Path" class="exterior-L-dark" d="M140.1848,452.4958l-5-2.8869v23.094l5,2.8869Z"/>
    <path id="Path-4" data-name="Path" class="exterior-L-dark" d="M180.4286,579.5129l-5-2.8871V599.72l5,2.8871Z"/>
    <path id="Path-5" data-name="Path" class="exterior-L-dark" d="M100.2057,533.3249l-5-2.887v23.0939l5,2.8871Z"/>
    <path id="Path-6" data-name="Path" class="exterior-L-dark" d="M120.1848,440.9488l-5-2.8869v23.094l5,2.8869Z"/>
    <path id="Path-7" data-name="Path" class="exterior-L-dark" d="M160.4286,567.9659l-5-2.8871v23.094l5,2.8871Z"/>
    <path id="Path-8" data-name="Path" class="exterior-L-dark" d="M80.2057,521.7779l-5-2.887v23.0939l5,2.8871Z"/>
    <path id="Path-9" data-name="Path" class="exterior-L-dark" d="M100.24,429.4018l-5-2.8869v23.094l5,2.8869Z"/>
    <path id="Path-10" data-name="Path" class="exterior-L-dark" d="M140.4826,556.4189l-5-2.8871v23.094l5,2.8871Z"/>
    <path id="Path-11" data-name="Path" class="exterior-L-dark" d="M60.26,510.2309l-5-2.887v23.094l5,2.887Z"/>
    <path id="Path-12" data-name="Path" class="exterior-L-dark" d="M70.1848,412.0809l-5-2.8871v23.094l5,2.8871Z"/>
    <path id="Path-13" data-name="Path" class="exterior-L-dark" d="M110.4286,539.0978l-5-2.8869v23.0949l5,2.8861Z"/>
    <path id="Path-14" data-name="Path" class="exterior-L-dark" d="M30.2057,492.91l-5-2.8869v23.0949l5,2.886Z"/>
    <path id="Path-15" data-name="Path" class="exterior-L-dark" d="M40.26,394.7608l-5-2.887v23.0941l5,2.8869Z"/>
    <path id="Path-16" data-name="Path" class="exterior-R-dark" d="M170.2057,440.9488l5-2.8869v23.094l-5,2.8869Z"/>
    <path id="Path-17" data-name="Path" class="exterior-R-dark" d="M210.1506,567.9659l5-2.8871v23.094l-5,2.8871Z"/>
    <path id="Path-18" data-name="Path" class="exterior-R-dark" d="M190.2057,429.4018l5-2.8869v23.094l-5,2.8869Z"/>
    <path id="Path-19" data-name="Path" class="exterior-R-dark" d="M230.1506,556.4189l5-2.8871v23.094l-5,2.8871Z"/>
    <path id="Path-20" data-name="Path" class="exterior-R-dark" d="M160.26,446.7218l5-2.887v23.0941l-5,2.8869Z"/>
    <path id="Path-21" data-name="Path" class="exterior-R-dark" d="M200.2057,573.7389l5-2.887v23.0949l-5,2.8861Z"/>
    <path id="Path-22" data-name="Path" class="exterior-L-dark" d="M130.13,446.7218l-5-2.887v23.0941l5,2.8869Z"/>
    <path id="Path-23" data-name="Path" class="exterior-L-dark" d="M170.3737,573.7389l-5-2.887v23.0949l5,2.8861Z"/>
    <path id="Path-24" data-name="Path" class="exterior-L-dark" d="M90.1506,527.5508l-5-2.8869v23.0949l5,2.886Z"/>
    <path id="Path-25" data-name="Path" class="exterior-L-dark" d="M110.13,435.1749l-5-2.8871v23.094l5,2.887Z"/>
    <path id="Path-26" data-name="Path" class="exterior-L-dark" d="M150.3737,562.1919l-5-2.887V582.4l5,2.8861Z"/>
    <path id="Path-27" data-name="Path" class="exterior-L-dark" d="M70.1506,516.0038l-5-2.8869v23.0949l5,2.886Z"/>
    <path id="Path-28" data-name="Path" class="exterior-L-dark" d="M80.0746,417.8548l-5-2.8869v23.094l5,2.8869Z"/>
    <path id="Path-29" data-name="Path" class="exterior-L-dark" d="M120.3188,544.8719l-5-2.8871v23.094l5,2.8871Z"/>
    <path id="Path-30" data-name="Path" class="exterior-L-dark" d="M40.0956,498.6838l-5-2.8869v23.094l5,2.887Z"/>
    <path id="Path-31" data-name="Path" class="exterior-L-dark" d="M10.0956,481.3628l-5-2.8869V501.57l5,2.8869Z"/>
    <path id="Path-32" data-name="Path" class="exterior-L-dark" d="M50.13,400.5339l-5-2.8871v23.094l5,2.8871Z"/>
    <path id="Path-33" data-name="Path" class="exterior-L-dark" d="M20.2057,383.2139l-5-2.8871v23.094l5,2.887Z"/>
    <path id="Path-34" data-name="Path" class="exterior-L-dark" d="M10.2057,377.44l-5-2.8871v23.094l5,2.8871Z"/>
    <path id="Path-35" data-name="Path" class="exterior-L-dark" d="M90.1848,423.6279l-5-2.8871v23.094l5,2.887Z"/>
    <path id="Path-36" data-name="Path" class="exterior-L-dark" d="M130.4286,550.6448l-5-2.8869v23.0949l5,2.8861Z"/>
    <path id="Path-37" data-name="Path" class="exterior-L-dark" d="M50.2057,504.4568l-5-2.8869v23.0949l5,2.886Z"/>
    <path id="Path-38" data-name="Path" class="exterior-L-dark" d="M20.2057,487.1368l-5-2.8869v23.094l5,2.887Z"/>
    <path id="body-mechanicalfloor-right-26" data-name="body-mechanicalfloor-right" class="exterior-R-prim" d="M145.2057,357.2328l-5-2.8869V308.1578l80-46.188v41.9621c0,5.519-3.8811,12.24-8.6611,15Z"/>
    <path id="body-mechanicalfloor-left-23" data-name="body-mechanicalfloor-left" class="exterior-L-prim" d="M145.2057,357.2328v-46.188l-105-60.622v36.188c0,5.5191,3.88,12.2411,8.66,15Z"/>
    <path id="body-mechanicalfloor-left-24" data-name="body-mechanicalfloor-left" class="curtain-L-prim-dark" d="M145.24,322.8329l9.9451-5.773.0209-102.302-10,5.7739-59.98-34.699.0129,96.3591a11.4912,11.4912,0,0,0,5.197,9Z"/>
    <path id="body-top-3" data-name="body-top" class="top-light" d="M145.2057,322.8329l-91.225-52.6681c-18.6409-10.763-18.6409-28.2379,0-39l46.225-26.6879,45,25.98Z"/>
    <path id="body-mechanicalfloor-right-27" data-name="body-mechanicalfloor-right" class="curtain-R-prim-dark" d="M150.1848,319.9468l-4.9451,2.8861-.0549-105.5251,74.9658-43.3009.052,99.5249a11.4828,11.4828,0,0,1-5.1939,8.9991Z"/>
    <path id="body-top-inner-3" data-name="body-top-inner" class="top-prim" d="M145.2057,317.06l-88.788-51.5691c-14.3169-8.3159-14.294-21.78.052-30.046l51.236-29.525,37.5,24.5371Z"/>
    <path id="body-mechanicalfloor-left-25" data-name="body-mechanicalfloor-left" class="curtain-L-prim-dark" d="M145.2057,322.8329v-17.32l-60-34.641v11.32a11.49,11.49,0,0,0,5.1961,9Z"/>
    <path id="body-mechanicalfloor-left-26" data-name="body-mechanicalfloor-left" class="curtain-L-prim-light" d="M145.24,311.2859v-17.32l-60-34.641v11.32a11.49,11.49,0,0,0,5.196,9Z"/>
    <path id="body-mechanicalfloor-left-27" data-name="body-mechanicalfloor-left" class="curtain-L-prim-dark" d="M145.24,299.7389v-17.32l-60-34.6411v11.32a11.49,11.49,0,0,0,5.196,9Z"/>
    <path id="body-mechanicalfloor-right-28" data-name="body-mechanicalfloor-right" class="curtain-R-prim-light" d="M145.24,311.2859v-23.094l74.966-43.301v17.0939a11.4929,11.4929,0,0,1-5.196,9.001Z"/>
    <path id="body-mechanicalfloor-right-29" data-name="body-mechanicalfloor-right" class="curtain-R-prim-dark" d="M145.24,299.7389V276.6448l74.966-43.3009v17.094a11.493,11.493,0,0,1-5.196,9.0009Z"/>
    <path id="body-mechanicalfloor-left-28" data-name="body-mechanicalfloor-left" class="curtain-L-prim-light" d="M145.24,288.1919v-17.32l-60-34.641v11.32a11.49,11.49,0,0,0,5.196,9Z"/>
    <path id="body-mechanicalfloor-left-29" data-name="body-mechanicalfloor-left" class="curtain-L-prim-dark" d="M145.24,276.6448v-17.32l-60-34.641v11.32a11.49,11.49,0,0,0,5.196,9Z"/>
    <path id="body-mechanicalfloor-right-30" data-name="body-mechanicalfloor-right" class="curtain-R-prim-light" d="M145.24,288.1919V265.0978l75.134-43.3009-.125,17.094a11.6031,11.6031,0,0,1-5.239,9.001Z"/>
    <path id="Path-39" data-name="Path" class="exterior-R-prim" d="M55.2057,242.0039l35-20.207v-5.7731l-35,20.2071q-9.554,6.2109-10,14.4339-.375,6.9111,10,14.433Q38.8307,252.3259,55.2057,242.0039Z"/>
    <path id="body-mechanicalfloor-right-31" data-name="body-mechanicalfloor-right" class="curtain-R-prim-dark" d="M145.24,276.6448V253.5509l74.966-43.301v17.094a11.4934,11.4934,0,0,1-5.196,9.001Z"/>
    <path id="body-mechanicalfloor-left-30" data-name="body-mechanicalfloor-left" class="curtain-L-prim-light" d="M145.24,265.0978v-17.32l-60-34.6409v11.32a11.49,11.49,0,0,0,5.196,9Z"/>
    <path id="body-mechanicalfloor-left-31" data-name="body-mechanicalfloor-left" class="curtain-L-prim-dark" d="M145.24,253.5509v-17.32l-60-34.641v11.32a11.49,11.49,0,0,0,5.196,9Z"/>
    <path id="body-mechanicalfloor-right-32" data-name="body-mechanicalfloor-right" class="curtain-R-prim-light" d="M145.24,265.0978V242.0039l74.966-43.301v17.094a11.493,11.493,0,0,1-5.196,9.0009Z"/>
    <path id="body-mechanicalfloor-right-33" data-name="body-mechanicalfloor-right" class="curtain-R-prim-dark" d="M145.24,253.5509v-23.094l74.966-43.3011V204.25a11.493,11.493,0,0,1-5.196,9.0009Z"/>
    <path id="body-mechanicalfloor-left-32" data-name="body-mechanicalfloor-left" class="curtain-L-prim-light" d="M145.2057,242.0039v-24.32l-60-34.641v18.32a11.489,11.489,0,0,0,5.1961,9Z"/>
    <path id="body-mechanicalfloor-right-34" data-name="body-mechanicalfloor-right" class="curtain-R-prim-light" d="M145.24,242.0039V218.91l74.9109-43.301.041,17.0941a11.46,11.46,0,0,1-5.1819,9.0009Z"/>
    <path id="Path-40" data-name="Path" class="exterior-R-dark" d="M150.2057,325.4789l5-2.8871v23.094l-5,2.8871Z"/>
    <path id="Path-41" data-name="Path" class="exterior-L-dark" d="M140.26,325.4789l-5-2.8871v23.094l5,2.8871Z"/>
    <path id="body-mechanicalfloor-left-33" data-name="body-mechanicalfloor-left" class="exterior-L-prim" d="M145.3576,230.4569l4.9451-2.8861V181.3829l-64.231-37.086c-.478-.276-.8679-.052-.87.5l-.1619,40.961c-.0219,5.5189,3.845,12.233,8.6289,14.9839Z"/>
    <path id="body-mechanicalfloor-right-35" data-name="body-mechanicalfloor-right" class="exterior-R-prim" d="M145.3576,230.4569V184.2688l74.9661-43.301v36.188c0,5.5191-3.88,12.241-8.659,15.0021Z"/>
    <path id="body-top-4" data-name="body-top" class="top-light" d="M145.3576,195.8158l55.0342-31.785c23.4189-13.525,22.9389-34.611-1.07-47.0579l-30.7451-15.9381c-11.27-5.8419-29.3518-5.4449-40.354.8871l-21.7278,12.504c-28.2241,16.242-28.2422,42.647-.0422,58.9289Z"/>
    <path id="body-top-inner-4" data-name="body-top-inner" class="exterior-R-prim" d="M145.3576,190.0429,190.1,164.1019c23.396-13.5651,22.8418-34.5751-1.2351-46.8891l-20.564-10.517c-11.302-5.78-29.4011-5.3179-40.394,1.0311l-20.1179,11.62c-23.418,13.526-23.4161,35.486.0039,49.008Z"/>
    <path id="body-top-inner-5" data-name="body-top-inner" class="top-prim" d="M145.3576,190.0429l61.0781-35.159c11.958-6.884,11.668-17.5241-.6479-23.7451l-37.156-18.771c-11.3311-5.724-29.4632-5.232-40.4671,1.0971l-17.8869,10.289c-23.4431,13.4839-23.1531,34.8589.646,47.7039Z"/>
    <path id="body-mechanicalfloor-left-34" data-name="body-mechanicalfloor-left" class="exterior-L-prim" d="M140.3237,117.8739v30.6409a7.7038,7.7038,0,0,0,3.456,6.0141l31.231,18.1929,5.313-2.8859,5,2.8859,5-2.8859V140.9678l-5,2.887Z"/>
    <path id="body-mechanicalfloor-right-36" data-name="body-mechanicalfloor-right" class="exterior-R-prim" d="M185.3237,175.6088l26.34-15.207c4.779-2.76,8.66-9.4809,8.66-15v-33.301l-35,20.207Z"/>
    <path id="body-top-5" data-name="body-top" class="top-light" d="M147.6437,107.8739l25.555-14.754c6.6921-3.8641,17.778-4.28,24.7409-.93l5.031,2.42c23.375,11.2471,24.1141,30.9071,1.65,43.8771l-19.2971,11.141-37.68-21.754C138.0847,122.3548,138.0847,113.3928,147.6437,107.8739Z"/>
    <path id="body-top-inner-6" data-name="body-top-inner" class="exterior-R-prim" d="M148.9836,112.8739l27.68-15.9811c4.779-2.7589,12.728-3.121,17.738-.8069l6.4238,2.9669c19.04,8.7951,19.752,24.448,1.5891,34.9341l-17.091,9.8679-36.34-20.9809C144.2038,120.1138,144.2038,115.6339,148.9836,112.8739Z"/>
    <path id="body-top-inner-7" data-name="body-top-inner" class="top-prim" d="M148.7878,118.7608l27.876-16.0939c4.779-2.76,12.7468-3.1651,17.7819-.904l5.774,2.593c16.615,7.4609,17.2981,20.911,1.5251,30.018l-16.4211,9.4809-36.5359-21.094C146.8757,121.6568,146.8757,119.8649,148.7878,118.7608Z"/>
    <ellipse id="Ellipse" class="cls-3" cx="184.7324" cy="119.6113" rx="3.6694" ry="2.1185"/>
    <rect id="Rectangle" class="cls-3" x="181.0632" y="77.2416" width="7.3386" height="42.3697"/>
    <ellipse id="Ellipse-2" data-name="Ellipse" class="cls-4" cx="184.7324" cy="77.2416" rx="3.6694" ry="2.1185"/>
    <ellipse id="Ellipse-3" data-name="Ellipse" class="cls-3" cx="184.7324" cy="76.9993" rx="1.8347" ry="1.0592"/>
    <rect id="Rectangle-2" data-name="Rectangle" class="cls-3" x="182.8976" y="1.0592" width="3.6692" height="75.9401"/>
    <ellipse id="Ellipse-4" data-name="Ellipse" class="cls-4" cx="184.7324" cy="1.0592" rx="1.8347" ry="1.0592"/>
    <path id="Path-42" data-name="Path" class="exterior-R-dark" d="M150.3027,198.7029l5-2.8871V218.91l-5,2.8871Z"/>
    <path id="Path-43" data-name="Path" class="exterior-L-dark" d="M140.3027,198.7029l-5-2.8871V218.91l5,2.8871Z"/>
    <path id="Path-44" data-name="Path" class="exterior-R-dark" d="M170.3576,187.1558l5-2.887v23.094l-5,2.8871Z"/>
    <path id="Path-45" data-name="Path" class="exterior-L-dark" d="M120.2817,187.1558l-5-2.887v23.094l5,2.8871Z"/>
    <path id="Path-46" data-name="Path" class="exterior-R-dark" d="M190.3027,175.6088l5-2.887v23.094l-5,2.8871Z"/>
    <path id="Path-47" data-name="Path" class="exterior-L-dark" d="M100.3027,175.6088l-5-2.887v23.094l5,2.8871Z"/>
    <path id="Path-48" data-name="Path" class="exterior-R-dark" d="M160.3027,192.93l5-2.887v23.094l-5,2.8869Z"/>
    <path id="Path-49" data-name="Path" class="exterior-L-dark" d="M130.3027,192.93l-5-2.887v23.094l5,2.8869Z"/>
    <path id="Path-50" data-name="Path" class="exterior-R-dark" d="M180.3576,181.3829l5-2.887V201.59l-5,2.887Z"/>
    <path id="Path-51" data-name="Path" class="exterior-L-dark" d="M110.3027,181.3829l-5-2.887V201.59l5,2.887Z"/>
    <path id="Path-52" data-name="Path" class="exterior-R-dark" d="M200.3027,169.8359l5-2.8871v23.0941l-5,2.887Z"/>
    <path id="Path-53" data-name="Path" class="exterior-R-dark" d="M210.3027,164.0618l5-2.8869v23.0939l-5,2.887Z"/>
    <path id="Path-54" data-name="Path" class="exterior-R-dark" d="M170.2057,313.9319l5-2.8871v23.094l-5,2.8871Z"/>
    <path id="Path-55" data-name="Path" class="exterior-L-dark" d="M120.26,313.9319l-5-2.8871v23.094l5,2.8871Z"/>
    <path id="Path-56" data-name="Path" class="exterior-R-dark" d="M190.1506,302.3849l5-2.8871v23.094l-5,2.8871Z"/>
    <path id="Path-57" data-name="Path" class="exterior-L-dark" d="M100.3146,302.3849l-5-2.8871v23.094l5,2.8871Z"/>
    <path id="Path-58" data-name="Path" class="exterior-L-dark" d="M70.26,285.0638l-5-2.8869v23.094l5,2.8869Z"/>
    <path id="Path-59" data-name="Path" class="exterior-R-dark" d="M210.2057,290.8379c.0931-.0031,5.0311-2.94,5-2.887v18.0939a9.58,9.58,0,0,1-4.33,7.5l-.67.3871Z"/>
    <path id="Path-60" data-name="Path" class="exterior-R-dark" d="M160.26,319.7049l5-2.887v23.0939l-5,2.8871Z"/>
    <path id="Path-61" data-name="Path" class="exterior-L-dark" d="M130.2057,319.7049l-5-2.887v23.0939l5,2.8871Z"/>
    <path id="Path-62" data-name="Path" class="exterior-R-dark" d="M180.26,308.1578l5-2.8869v23.094l-5,2.887Z"/>
    <path id="Path-63" data-name="Path" class="exterior-L-dark" d="M110.2057,308.1578l-5-2.8869v23.094l5,2.887Z"/>
    <path id="Path-64" data-name="Path" class="exterior-L-dark" d="M80.1506,290.8379l-5-2.887v23.0939l5,2.8871Z"/>
    <path id="Path-65" data-name="Path" class="exterior-L-dark" d="M50.2057,273.5168l-5-2.8869v23.094l5,2.8869Z"/>
    <path id="Path-66" data-name="Path" class="exterior-R-dark" d="M200.2057,296.6108l5-2.8869v23.094l-5,2.887Z"/>
    <path id="Path-67" data-name="Path" class="exterior-L-dark" d="M90.26,296.6108l-5-2.8869v23.094l5,2.887Z"/>
    <path id="Path-68" data-name="Path" class="exterior-L-dark" d="M60.2057,279.2909l-5-2.887v23.0939l5,2.8871Z"/>
    <path id="Path-69" data-name="Path" class="exterior-L-dark" d="M60.13,406.3078l-5-2.887v23.0941l5,2.8869Z"/>
    <path id="Path-70" data-name="Path" class="exterior-L-dark" d="M30.2057,388.9869l-5-2.8871v23.094l5,2.8871Z"/>
    <path id="Path-71" data-name="Path" class="exterior-R-dark" d="M180.26,435.1749l5-2.8871v23.094l-5,2.887Z"/>
    <path id="Path-72" data-name="Path" class="exterior-R-dark" d="M220.2057,562.1919l5-2.887v23.0939l-5,2.8871Z"/>
    <path id="Path-73" data-name="Path" class="exterior-R-dark" d="M200.26,423.6279l5-2.8871v23.094l-5,2.887Z"/>
    <path id="Path-74" data-name="Path" class="exterior-R-dark" d="M240.2057,550.6448l5-2.8869v23.094l-5,2.887Z"/>
    <path id="Path-75" data-name="Path" class="exterior-R-dark" d="M210.2057,417.8548l5-2.8869v19.094a7.6632,7.6632,0,0,1-3.4641,6l-1.5359.8869Z"/>
    <path id="Path-76" data-name="Path" class="exterior-R-dark" d="M230.2057,492.91c.0621-.028-9.1789-5.385-10-5.773v-5.774q10.0622,5.769,9.949,5.94c26.6131,16.704,25.4881,41.204.051,57.5691Q265.5177,516.0068,230.2057,492.91Z"/>
    <path id="Path-77" data-name="Path" class="exterior-R-prim" d="M15.2057,345.6858l25-14.4339v-5.773l-25,14.4329q-9.5539,6.211-10,14.4341-.375,6.911,10,14.4339Q-1.1694,356.0069,15.2057,345.6858Z"/>
  </g>
</svg>
