<svg id="Layer_1" data-name="Layer 1" xmlns="http://www.w3.org/2000/svg" viewBox="0 0 255.2057 762.8208">
  <defs>
    <style>
      .curtain-L-prim-dark {
        fill: #2f5565;
      }

      .curtain-R-prim-dark {
        fill: #3e809c;
      }

      .curtain-L-prim-light {
        fill: #438fb0;
      }

      .curtain-R-prim-light {
        fill: #59acd0;
      }

      .exterior-L-prim {
        fill: #73302e;
      }

      .exterior-R-prim {
        fill: #d05752;
      }

      .top-light {
        fill: #ffc8c6;
      }

      .top-prim {
        fill: #dd8a87;
      }

      .cls-1 {
        fill: #e8e8e8;
      }

      .cls-2 {
        fill: #b9b9b9;
      }

      .exterior-R-dark {
        fill: #a64c49;
      }

      .exterior-L-dark {
        fill: #512220;
      }

      .cls-3 {
        fill: #c1c1c1;
      }

      .cls-4 {
        fill: #ebebeb;
      }
    </style>
  </defs>
  <title>Artboard 5</title>
  <g id="root">
    <path id="Body_-_Left" data-name="Body - Left" class="curtain-L-prim-dark" d="M8.8657,661.0119l176.34,101.8089,10-5.773V664.6719l-10,5.773-185-106.8091v82.3761C.2057,651.5309,4.0856,658.2519,8.8657,661.0119Z"/>
    <path id="Body_-_Right" data-name="Body - Right" class="curtain-R-prim-dark" d="M185.2057,653.1249l70-40.415v99.6969c0,5.519-3.8811,12.24-8.66,15l-61.34,35.414Z"/>
    <path id="body-mechanicalfloor-left" class="curtain-L-prim-light" d="M.2057,621.3708l185,106.8091v23.0939L8.8657,649.4648c-4.78-2.76-8.66-9.4809-8.66-15Z"/>
    <path id="body-mechanicalfloor-left-2" data-name="body-mechanicalfloor-left" class="curtain-L-prim-dark" d="M.2057,609.8238l185,106.8091v23.094L8.8657,637.9178c-4.78-2.76-8.66-9.4809-8.66-15Z"/>
    <path id="body-mechanicalfloor-left-3" data-name="body-mechanicalfloor-left" class="curtain-L-prim-light" d="M.2057,598.2768l185,106.8091V728.18L8.8657,626.3708c-4.78-2.76-8.66-9.4809-8.66-15Z"/>
    <path id="body-mechanicalfloor-left-4" data-name="body-mechanicalfloor-left" class="curtain-L-prim-dark" d="M.2057,586.73l185,106.8091v23.094L8.8657,614.8238c-4.78-2.76-8.66-9.4809-8.66-15Z"/>
    <path id="body-mechanicalfloor-right" class="curtain-R-prim-light" d="M255.2057,687.7659l-70,40.414v23.0939l61.34-35.414c4.7788-2.76,8.66-9.481,8.66-15Z"/>
    <path id="body-mechanicalfloor-left-5" data-name="body-mechanicalfloor-left" class="curtain-L-prim-light" d="M.2057,575.1828l185,106.8091v23.094L8.8657,603.2768c-4.78-2.76-8.66-9.4809-8.66-15Z"/>
    <path id="body-mechanicalfloor-right-2" data-name="body-mechanicalfloor-right" class="curtain-R-prim-dark" d="M255.2057,676.2189l-70,40.414v23.094l61.34-35.414c4.7788-2.76,8.66-9.4811,8.66-15Z"/>
    <path id="body-mechanicalfloor-left-6" data-name="body-mechanicalfloor-left" class="exterior-L-prim" d="M185.2057,693.5389l5-2.886V644.4648l-5,2.8861-185-106.809V576.73c0,5.5191,3.88,12.24,8.66,15Z"/>
    <path id="body-mechanicalfloor-right-3" data-name="body-mechanicalfloor-right" class="curtain-R-prim-light" d="M255.2057,664.6719l-70,40.414V728.18l61.34-35.414c4.7788-2.76,8.66-9.4811,8.66-15Z"/>
    <path id="body-mechanicalfloor-right-4" data-name="body-mechanicalfloor-right" class="curtain-R-prim-dark" d="M255.2057,653.1249l-70,40.414v23.094l61.34-35.414c4.7788-2.76,8.66-9.4811,8.66-15Z"/>
    <path id="body-mechanicalfloor-right-5" data-name="body-mechanicalfloor-right" class="curtain-R-prim-light" d="M255.2057,641.5779l-70,40.414v23.094l61.34-35.414c4.7788-2.76,8.66-9.4811,8.66-15Z"/>
    <path id="body-mechanicalfloor-right-6" data-name="body-mechanicalfloor-right" class="exterior-R-prim" d="M255.2057,601.1629l-70,40.415v51.961l61.34-35.414c4.7788-2.76,8.66-9.4811,8.66-15Z"/>
    <path id="body-top" class="top-light" d="M185.2057,658.8979,230.45,632.7768c32.98-19.0409,32.9681-49.9379-.0268-68.9539l-125.55-72.3561L9.7248,546.5749c-5.2542,3.0429-5.25,7.9779.0068,11.014Z"/>
    <path id="body-top-inner" class="top-prim" d="M185.2057,653.1249l43.0381-24.8481c28.679-16.5579,28.668-43.424-.0241-59.9589l-128.347-73.964L5.2057,549.2018Z"/>
    <path id="Body_-_Left-2" data-name="Body - Left" class="curtain-L-prim-dark" d="M.2057,542.0889v-105.47l145,83.7149,10-5.773v115.47l-10,5.773-136.34-78.715C4.0856,554.3288.2057,547.6078.2057,542.0889Z"/>
    <path id="body-mechanicalfloor-right-7" data-name="body-mechanicalfloor-right" class="exterior-R-prim" d="M155.18,635.8039l-5-2.8861v-5.774l69.9709-40.414.0259,5.547a11.4191,11.4191,0,0,1-5.168,8.9991Z"/>
    <path id="Body_-_Right-2" data-name="Body - Right" class="cls-1" d="M145.2057,635.8039V531.8808l75-43.3009v93.923c0,5.5189-3.8811,12.241-8.66,15Z"/>
    <path id="body-mechanicalfloor-right-8" data-name="body-mechanicalfloor-right" class="curtain-R-prim-dark" d="M145.2057,635.8039V554.9748l75-43.3009v72.829a15.3235,15.3235,0,0,1-6.9279,12Z"/>
    <path id="body-mechanicalfloor-right-9" data-name="body-mechanicalfloor-right" class="curtain-R-prim-light" d="M145.2057,624.2569v-23.094l75-43.301v15.094a15.3235,15.3235,0,0,1-6.9279,12Z"/>
    <path id="body-mechanicalfloor-right-10" data-name="body-mechanicalfloor-right" class="curtain-R-prim-dark" d="M145.2057,612.71V589.6158l75-43.3009v15.094a15.3234,15.3234,0,0,1-6.9279,12Z"/>
    <path id="body-mechanicalfloor-left-7" data-name="body-mechanicalfloor-left" class="curtain-L-prim-light" d="M.2057,517.4479l145,83.715v23.094l-136.34-78.715c-4.78-2.76-8.66-9.4811-8.66-15Z"/>
    <path id="body-mechanicalfloor-left-8" data-name="body-mechanicalfloor-left" class="curtain-L-prim-dark" d="M.2057,505.9009l145,83.7149V612.71l-136.34-78.715c-4.78-2.76-8.66-9.4811-8.66-15Z"/>
    <path id="body-mechanicalfloor-left-9" data-name="body-mechanicalfloor-left" class="curtain-L-prim-light" d="M.2057,494.3539l145,83.7149v23.0941l-136.34-78.715c-4.78-2.76-8.66-9.4811-8.66-15Z"/>
    <path id="body-mechanicalfloor-left-10" data-name="body-mechanicalfloor-left" class="curtain-L-prim-dark" d="M.2057,482.8069l145,83.7149v23.094L8.8657,510.9009c-4.78-2.76-8.66-9.4811-8.66-15Z"/>
    <path id="body-mechanicalfloor-left-11" data-name="body-mechanicalfloor-left" class="curtain-L-prim-light" d="M.2057,471.26l145,83.7149v23.094L8.8657,499.3539c-4.78-2.76-8.66-9.4811-8.66-15Z"/>
    <path id="body-mechanicalfloor-left-12" data-name="body-mechanicalfloor-left" class="exterior-L-prim" d="M.2057,436.6189l145,83.7149,5-2.8859v46.1879l-5,2.886L8.8657,487.8069c-4.78-2.76-8.66-9.481-8.66-15Z"/>
    <path id="body-mechanicalfloor-right-11" data-name="body-mechanicalfloor-right" class="curtain-R-prim-light" d="M145.2057,601.1629V578.0688l75-43.3009v15.094a15.3234,15.3234,0,0,1-6.9279,12Z"/>
    <path id="body-mechanicalfloor-right-12" data-name="body-mechanicalfloor-right" class="curtain-R-prim-dark" d="M145.2057,589.6158v-23.094l75-43.3009v15.094a15.3234,15.3234,0,0,1-6.9279,12Z"/>
    <path id="body-top-2" data-name="body-top" class="top-light" d="M145.2057,531.8808,13.9807,456.1189c-18.6409-10.763-18.6409-28.2381,0-39l46.225-26.6881,160,98.1491Z"/>
    <path id="body-top-inner-2" data-name="body-top-inner" class="top-prim" d="M139.8727,523.2209,16.1718,451.6438c-14.331-8.2929-14.324-21.747.0149-30.0249l49.019-28.302L214.8727,479.92Z"/>
    <path id="body-mechanicalfloor-right-13" data-name="body-mechanicalfloor-right" class="curtain-R-prim-light" d="M145.2057,578.0688v-23.094l75-43.3009v15.094a15.3234,15.3234,0,0,1-6.9279,12Z"/>
    <path id="body-mechanicalfloor-right-14" data-name="body-mechanicalfloor-right" class="curtain-R-prim-dark" d="M145.2057,497.24v-23.094l75-43.3011v15.094a15.3229,15.3229,0,0,1-6.9279,12Z"/>
    <path id="body-mechanicalfloor-right-15" data-name="body-mechanicalfloor-right" class="exterior-R-prim" d="M220.2057,477.0329l-75,43.3009v46.188l66.34-38.3009c4.7788-2.76,8.66-9.481,8.66-15Z"/>
    <path id="Body_-_Right-3" data-name="Body - Right" class="curtain-R-prim-dark" d="M145.2057,531.8808V375.9969l75-43.302V478.58c0,5.519-3.8811,12.24-8.66,15Z"/>
    <path id="body-mechanicalfloor-right-16" data-name="body-mechanicalfloor-right" class="curtain-R-prim-light" d="M145.2057,531.8808l-10-5.773v-115.47l10,5.773,75-43.3011V480.58a15.3232,15.3232,0,0,1-6.9279,12Z"/>
    <path id="body-mechanicalfloor-right-17" data-name="body-mechanicalfloor-right" class="curtain-R-prim-dark" d="M145.2057,474.1459v-23.094l75-43.3011v15.094a15.3229,15.3229,0,0,1-6.9279,12Z"/>
    <path id="body-mechanicalfloor-right-18" data-name="body-mechanicalfloor-right" class="curtain-R-prim-dark" d="M145.2057,520.3338V497.24l75-43.3011v15.0941a15.3232,15.3232,0,0,1-6.9279,12Z"/>
    <path id="body-mechanicalfloor-right-19" data-name="body-mechanicalfloor-right" class="curtain-R-prim-light" d="M145.2057,508.7868V485.6929l75-43.3011v15.0941a15.3232,15.3232,0,0,1-6.9279,12Z"/>
    <path id="body-mechanicalfloor-right-20" data-name="body-mechanicalfloor-right" class="curtain-R-prim-dark" d="M145.2057,497.24v-23.094l75-43.3011v15.094a15.3229,15.3229,0,0,1-6.9279,12Z"/>
    <path id="body-mechanicalfloor-right-21" data-name="body-mechanicalfloor-right" class="curtain-R-prim-light" d="M145.2057,485.6929v-23.094l75-43.3011v15.094a15.3229,15.3229,0,0,1-6.9279,12Z"/>
    <path id="body-mechanicalfloor-right-22" data-name="body-mechanicalfloor-right" class="curtain-R-prim-dark" d="M145.2057,474.1459v-23.094l75-43.3011v15.094a15.3229,15.3229,0,0,1-6.9279,12Z"/>
    <path id="body-mechanicalfloor-right-23" data-name="body-mechanicalfloor-right" class="curtain-R-prim-light" d="M145.2057,462.5989v-23.094l75-43.3011v15.094a15.3231,15.3231,0,0,1-6.9279,12Z"/>
    <path id="body-mechanicalfloor-right-24" data-name="body-mechanicalfloor-right" class="curtain-R-prim-dark" d="M144.8727,451.0519v-23.094l75-43.3011v15.094a15.3239,15.3239,0,0,1-6.9289,12Z"/>
    <path id="body-mechanicalfloor-left-13" data-name="body-mechanicalfloor-left" class="curtain-L-prim-dark" d="M145.2057,497.24V479.92l-105-60.622v9.32a15.32,15.32,0,0,0,6.928,12Z"/>
    <path id="body-mechanicalfloor-right-25" data-name="body-mechanicalfloor-right" class="curtain-R-prim-light" d="M144.8727,439.5049v-23.094l75-43.3011v15.094a15.3239,15.3239,0,0,1-6.9289,12Z"/>
    <path id="Body_Left" data-name="Body Left" class="cls-2" d="M145.2057,393.3169V531.8808L48.8657,476.26c-4.78-2.76-8.66-9.481-8.66-15V332.6949Z"/>
    <path id="body-mechanicalfloor-left-14" data-name="body-mechanicalfloor-left" class="curtain-L-prim-light" d="M145.2057,531.8808v-115.47l-105-60.622V463.26a15.3233,15.3233,0,0,0,6.928,12Z"/>
    <path id="body-mechanicalfloor-right-26" data-name="body-mechanicalfloor-right" class="exterior-R-prim" d="M145.2057,427.9579l-5-2.886V378.8838l80-46.1889v41.9619c0,5.519-3.8811,12.24-8.66,15Z"/>
    <path id="body-mechanicalfloor-left-15" data-name="body-mechanicalfloor-left" class="curtain-L-prim-dark" d="M145.2057,520.3338V500.1269l-105-60.622v12.208a15.3233,15.3233,0,0,0,6.928,12Z"/>
    <path id="body-mechanicalfloor-left-16" data-name="body-mechanicalfloor-left" class="curtain-L-prim-light" d="M145.2057,508.7868V488.58l-105-60.622v12.2069a15.32,15.32,0,0,0,6.928,12Z"/>
    <path id="body-mechanicalfloor-left-17" data-name="body-mechanicalfloor-left" class="curtain-L-prim-dark" d="M145.2057,497.24v-20.207l-105-60.622v12.208a15.3233,15.3233,0,0,0,6.928,12Z"/>
    <path id="body-mechanicalfloor-left-18" data-name="body-mechanicalfloor-left" class="curtain-L-prim-light" d="M145.2057,485.6929v-20.207l-105-60.622v12.2069a15.32,15.32,0,0,0,6.928,12Z"/>
    <path id="body-mechanicalfloor-left-19" data-name="body-mechanicalfloor-left" class="curtain-L-prim-dark" d="M145.2057,474.1459V453.9388l-105-60.6219v12.208a15.3233,15.3233,0,0,0,6.928,12Z"/>
    <path id="body-mechanicalfloor-left-20" data-name="body-mechanicalfloor-left" class="curtain-L-prim-light" d="M145.2057,462.5989V442.3918l-105-60.6219v12.2079a15.323,15.323,0,0,0,6.928,12Z"/>
    <path id="body-mechanicalfloor-left-21" data-name="body-mechanicalfloor-left" class="curtain-L-prim-dark" d="M145.2057,451.0519V430.8448l-105-60.6219V382.43a15.32,15.32,0,0,0,6.928,12Z"/>
    <path id="body-mechanicalfloor-left-22" data-name="body-mechanicalfloor-left" class="curtain-L-prim-light" d="M145.2057,439.5049V419.2978l-105-60.622v12.2071a15.32,15.32,0,0,0,6.928,12Z"/>
    <path id="Body_-_Right-4" data-name="Body - Right" class="curtain-R-prim-light" d="M145.4067,174.1658l74.966-43.302-.1589,209.3941c-.0051,5.5189-3.8879,12.241-8.667,15.0009l-66.3071,38.3Z"/>
    <path id="body-mechanicalfloor-left-23" data-name="body-mechanicalfloor-left" class="exterior-L-prim" d="M145.2057,427.9579V381.77l-105-60.6221v36.1881c0,5.52,3.88,12.2409,8.66,15Z"/>
    <path id="Body_-_Left-3" data-name="Body - Left" class="curtain-L-prim-dark" d="M85.2377,348.9178l-.032-170.4219,60,34.641.034,180.422L93.9,363.9178C89.1208,361.1579,85.2387,354.4369,85.2377,348.9178Z"/>
    <path id="body-mechanicalfloor-left-24" data-name="body-mechanicalfloor-left" class="curtain-L-prim-dark" d="M145.24,393.5589l9.9451-5.7741V197.26l-10,5.773L85.24,168.3919V352.9178a11.4927,11.4927,0,0,0,5.196,9Z"/>
    <path id="body-top-3" data-name="body-top" class="top-light" d="M145.2057,393.5589,53.9807,340.89c-18.6409-10.762-18.6409-28.238,0-39l46.225-26.6879,45,25.9809Z"/>
    <path id="body-mechanicalfloor-right-27" data-name="body-mechanicalfloor-right" class="curtain-R-prim-dark" d="M150.1848,390.6719l-4.9451,2.887-.0549-190.526,74.966-43.301.053,184.525a11.4845,11.4845,0,0,1-5.1951,9Z"/>
    <path id="body-top-inner-3" data-name="body-top-inner" class="top-prim" d="M145.2057,387.7848,56.4186,336.2159C42.1008,327.9,42.1237,314.4368,56.47,306.17l51.236-29.5249,37.5,24.5379Z"/>
    <path id="body-mechanicalfloor-left-25" data-name="body-mechanicalfloor-left" class="curtain-L-prim-dark" d="M145.24,393.5589V376.2378l-60-34.641v11.321a11.4927,11.4927,0,0,0,5.196,9Z"/>
    <path id="body-mechanicalfloor-left-26" data-name="body-mechanicalfloor-left" class="curtain-L-prim-light" d="M145.24,382.0119V364.6908l-60-34.6409v11.3209a11.4928,11.4928,0,0,0,5.196,9Z"/>
    <path id="body-mechanicalfloor-left-27" data-name="body-mechanicalfloor-left" class="curtain-L-prim-dark" d="M145.24,370.4648v-17.321l-60-34.6409v11.321a11.4928,11.4928,0,0,0,5.196,9Z"/>
    <path id="body-mechanicalfloor-right-28" data-name="body-mechanicalfloor-right" class="curtain-R-prim-light" d="M145.24,382.0119V358.9178l74.966-43.3019V332.71a11.4956,11.4956,0,0,1-5.196,9.0019Z"/>
    <path id="body-mechanicalfloor-right-29" data-name="body-mechanicalfloor-right" class="curtain-R-prim-dark" d="M145.24,370.4648v-23.094l74.966-43.3019v17.094a11.4924,11.4924,0,0,1-5.196,9.001Z"/>
    <path id="body-mechanicalfloor-left-28" data-name="body-mechanicalfloor-left" class="curtain-L-prim-light" d="M145.24,358.9178v-17.321l-60-34.6409v11.321a11.4931,11.4931,0,0,0,5.196,9Z"/>
    <path id="body-mechanicalfloor-left-29" data-name="body-mechanicalfloor-left" class="curtain-L-prim-dark" d="M145.24,347.3708V330.05l-60-34.641V306.73a11.4928,11.4928,0,0,0,5.196,9Z"/>
    <path id="body-mechanicalfloor-right-30" data-name="body-mechanicalfloor-right" class="curtain-R-prim-light" d="M145.24,358.9178v-23.094l75.134-43.3019-.124,17.095a11.6031,11.6031,0,0,1-5.24,9Z"/>
    <path id="Path" class="exterior-R-prim" d="M55.2057,312.73l35-20.2079v-5.773l-35,20.207q-9.554,6.2109-10,14.4339-.375,6.9111,10,14.434Q38.8307,323.0508,55.2057,312.73Z"/>
    <path id="body-mechanicalfloor-right-31" data-name="body-mechanicalfloor-right" class="curtain-R-prim-dark" d="M145.24,347.3708V324.2769l74.966-43.302v17.094a11.4926,11.4926,0,0,1-5.196,9.001Z"/>
    <path id="body-mechanicalfloor-left-30" data-name="body-mechanicalfloor-left" class="curtain-L-prim-light" d="M145.24,335.8238V318.5029l-60-34.641v11.3209a11.4927,11.4927,0,0,0,5.196,9Z"/>
    <path id="body-mechanicalfloor-left-31" data-name="body-mechanicalfloor-left" class="curtain-L-prim-dark" d="M145.24,324.2769v-17.321l-60-34.641v11.3209a11.4928,11.4928,0,0,0,5.196,9Z"/>
    <path id="body-mechanicalfloor-right-32" data-name="body-mechanicalfloor-right" class="curtain-R-prim-light" d="M145.24,335.8238V312.73l74.966-43.3019v17.094a11.4922,11.4922,0,0,1-5.196,9.0009Z"/>
    <path id="body-mechanicalfloor-right-33" data-name="body-mechanicalfloor-right" class="curtain-R-prim-dark" d="M145.24,324.2769V301.1828l74.966-43.302v17.0941a11.4922,11.4922,0,0,1-5.196,9.0009Z"/>
    <path id="body-mechanicalfloor-left-32" data-name="body-mechanicalfloor-left" class="curtain-L-prim-light" d="M145.24,312.73V295.4089l-60-34.641v11.321a11.4931,11.4931,0,0,0,5.196,9Z"/>
    <path id="body-mechanicalfloor-left-33" data-name="body-mechanicalfloor-left" class="curtain-L-prim-dark" d="M145.24,301.1828V283.8619l-60-34.641v11.321a11.4931,11.4931,0,0,0,5.196,9Z"/>
    <path id="body-mechanicalfloor-right-34" data-name="body-mechanicalfloor-right" class="curtain-R-prim-light" d="M145.24,312.73v-23.094l74.9111-43.302.041,17.0941a11.4569,11.4569,0,0,1-5.1821,9.0009Z"/>
    <path id="body-mechanicalfloor-left-34" data-name="body-mechanicalfloor-left" class="curtain-L-prim-light" d="M145.24,289.6358V272.3149l-60-34.6411v11.3211a11.493,11.493,0,0,0,5.196,9Z"/>
    <path id="body-mechanicalfloor-left-35" data-name="body-mechanicalfloor-left" class="curtain-L-prim-dark" d="M145.24,278.0889v-17.321l-60-34.6411v11.3211a11.493,11.493,0,0,0,5.196,9Z"/>
    <path id="body-mechanicalfloor-left-36" data-name="body-mechanicalfloor-left" class="curtain-L-prim-light" d="M145.24,266.5419v-17.321l-60-34.6411v11.3211a11.493,11.493,0,0,0,5.196,9Z"/>
    <path id="body-mechanicalfloor-right-35" data-name="body-mechanicalfloor-right" class="curtain-R-prim-dark" d="M145.24,301.1828V278.0889l74.966-43.3021v17.094a11.4926,11.4926,0,0,1-5.196,9.0011Z"/>
    <path id="body-mechanicalfloor-left-37" data-name="body-mechanicalfloor-left" class="curtain-L-prim-dark" d="M145.24,254.9949V237.6738l-60-34.6409v11.321a11.493,11.493,0,0,0,5.196,9Z"/>
    <path id="body-mechanicalfloor-right-36" data-name="body-mechanicalfloor-right" class="curtain-R-prim-light" d="M145.24,289.6358V266.5419l74.966-43.302v17.0939a11.4926,11.4926,0,0,1-5.196,9.0011Z"/>
    <path id="body-mechanicalfloor-right-37" data-name="body-mechanicalfloor-right" class="curtain-R-prim-dark" d="M145.24,278.0889v-23.094l74.966-43.302v17.0939a11.4924,11.4924,0,0,1-5.196,9.0011Z"/>
    <path id="body-mechanicalfloor-right-38" data-name="body-mechanicalfloor-right" class="curtain-R-prim-light" d="M145.24,266.5419v-23.094l74.966-43.302V217.24a11.4924,11.4924,0,0,1-5.196,9.001Z"/>
    <path id="body-mechanicalfloor-left-38" data-name="body-mechanicalfloor-left" class="curtain-L-prim-light" d="M145.24,243.4479V197.26l-60-34.641v40.188a11.4931,11.4931,0,0,0,5.196,9Z"/>
    <path id="body-mechanicalfloor-right-39" data-name="body-mechanicalfloor-right" class="curtain-R-prim-dark" d="M145.1848,254.9949l.0549-46.188,74.966-43.302v40.188a11.4891,11.4891,0,0,1-5.197,9Z"/>
    <path id="body-mechanicalfloor-right-40" data-name="body-mechanicalfloor-right" class="curtain-R-prim-light" d="M145.24,243.4479V197.26l74.966-43.302v40.188a11.4924,11.4924,0,0,1-5.196,9.001Z"/>
    <path id="Path-2" data-name="Path" class="exterior-R-dark" d="M150.2057,534.7679l5-2.8871v23.094l-5,2.8871Z"/>
    <path id="Path-3" data-name="Path" class="exterior-R-dark" d="M190.1508,661.7848l5-2.8869v23.094l-5,2.8869Z"/>
    <path id="Path-4" data-name="Path" class="exterior-R-dark" d="M150.2057,396.2038l5-2.8869v23.094l-5,2.8869Z"/>
    <path id="Path-5" data-name="Path" class="exterior-L-dark" d="M140.2607,396.2038l-5-2.8869v23.094l5,2.8869Z"/>
    <path id="Path-6" data-name="Path" class="exterior-L-dark" d="M140.1848,534.7679l-5-2.8871v23.094l5,2.8871Z"/>
    <path id="Path-7" data-name="Path" class="exterior-L-dark" d="M180.4286,661.7848l-5-2.8869v23.094l5,2.8869Z"/>
    <path id="Path-8" data-name="Path" class="exterior-L-dark" d="M100.2057,615.5968l-5-2.8869v23.094l5,2.8869Z"/>
    <path id="body-mechanicalfloor-left-39" data-name="body-mechanicalfloor-left" class="exterior-L-prim" d="M145.1938,230.4569l4.9451-2.8861V181.3829L85.1938,143.8548v41.9611c0,5.519,3.88,12.241,8.66,15Z"/>
    <path id="body-mechanicalfloor-right-41" data-name="body-mechanicalfloor-right" class="exterior-R-prim" d="M145.1938,230.4569V184.2688l74.9661-43.301v36.1881c0,5.519-3.88,12.241-8.6592,15.002Z"/>
    <path id="body-top-4" data-name="body-top" class="top-light" d="M145.1938,195.8159l55.0339-31.785c23.419-13.5251,22.939-34.6111-1.07-47.058l-30.7449-15.938c-11.27-5.842-29.3521-5.445-40.354.887l-21.7281,12.504c-28.2241,16.242-28.2419,42.647-.0419,58.9289Z"/>
    <path id="body-top-inner-4" data-name="body-top-inner" class="exterior-R-prim" d="M145.1938,190.0429l44.7419-25.941c23.396-13.5651,22.8421-34.575-1.2348-46.8891l-20.5642-10.517c-11.302-5.78-29.4019-5.3179-40.3938,1.0311l-20.1182,11.62c-23.419,13.526-23.417,35.4861.0041,49.008Z"/>
    <path id="body-top-inner-5" data-name="body-top-inner" class="top-prim" d="M145.1938,190.0429l61.0779-35.159c11.958-6.884,11.6679-17.5241-.648-23.745l-37.157-18.7711c-11.33-5.724-29.4619-5.232-40.466,1.0971l-17.887,10.289c-23.4429,13.484-23.1531,34.859.645,47.704Z"/>
    <path id="body-mechanicalfloor-left-40" data-name="body-mechanicalfloor-left" class="exterior-L-prim" d="M140.16,117.8739v30.6409a7.7008,7.7008,0,0,0,3.4558,6.0141l31.2312,18.1929,5.313-2.8859,5,2.8859,5-2.8859V140.9678l-5,2.887Z"/>
    <path id="body-mechanicalfloor-right-42" data-name="body-mechanicalfloor-right" class="exterior-R-prim" d="M185.16,175.6089l26.34-15.207c4.779-2.76,8.66-9.481,8.66-15V112.1l-35,20.2079Z"/>
    <path id="body-top-5" data-name="body-top" class="top-light" d="M147.48,107.8739,173.0349,93.12c6.6918-3.8641,17.7778-4.28,24.7409-.93l5.031,2.42c23.375,11.2471,24.114,30.9071,1.65,43.8771L185.16,149.6279l-37.68-21.754C137.9208,122.3548,137.9208,113.3929,147.48,107.8739Z"/>
    <path id="body-top-inner-6" data-name="body-top-inner" class="exterior-R-prim" d="M148.82,112.8739l27.68-15.981c4.779-2.759,12.728-3.121,17.738-.807l6.4241,2.967c19.04,8.795,19.752,24.448,1.5889,34.934L185.16,143.8548l-36.34-20.9809C144.04,120.1138,144.04,115.6339,148.82,112.8739Z"/>
    <path id="body-top-inner-7" data-name="body-top-inner" class="top-prim" d="M148.6237,118.7608,176.5,102.6669c4.779-2.76,12.7471-3.1651,17.782-.904l5.7741,2.593c16.615,7.4609,17.2979,20.911,1.5249,30.018L185.16,143.8548l-36.5362-21.094C146.7119,121.6568,146.7119,119.8649,148.6237,118.7608Z"/>
    <ellipse id="Ellipse" class="cls-3" cx="184.5683" cy="119.6113" rx="3.6694" ry="2.1185"/>
    <rect id="Rectangle" class="cls-3" x="180.8991" y="77.2416" width="7.3386" height="42.3697"/>
    <ellipse id="Ellipse-2" data-name="Ellipse" class="cls-4" cx="184.5683" cy="77.2416" rx="3.6694" ry="2.1185"/>
    <ellipse id="Ellipse-3" data-name="Ellipse" class="cls-3" cx="184.5683" cy="76.9993" rx="1.8347" ry="1.0592"/>
    <rect id="Rectangle-2" data-name="Rectangle" class="cls-3" x="182.7338" y="1.0592" width="3.6692" height="75.9401"/>
    <ellipse id="Ellipse-4" data-name="Ellipse" class="cls-4" cx="184.5683" cy="1.0592" rx="1.8347" ry="1.0592"/>
    <path id="Path-9" data-name="Path" class="exterior-R-dark" d="M150.1389,198.7029l5-2.887V218.91l-5,2.887Z"/>
    <path id="Path-10" data-name="Path" class="exterior-L-dark" d="M140.1389,198.7029l-5-2.887V218.91l5,2.887Z"/>
    <path id="Path-11" data-name="Path" class="exterior-R-dark" d="M170.1938,187.1559l5-2.8871v23.0941l-5,2.887Z"/>
    <path id="Path-12" data-name="Path" class="exterior-L-dark" d="M120.1179,187.1559l-5-2.8871v23.0941l5,2.887Z"/>
    <path id="Path-13" data-name="Path" class="exterior-R-dark" d="M190.1389,175.6089l5-2.8871v23.0941l-5,2.887Z"/>
    <path id="Path-14" data-name="Path" class="exterior-L-dark" d="M100.1389,175.6089l-5-2.8871v23.0941l5,2.887Z"/>
    <path id="Path-15" data-name="Path" class="exterior-R-dark" d="M160.1389,192.93l5-2.887v23.094l-5,2.8869Z"/>
    <path id="Path-16" data-name="Path" class="exterior-L-dark" d="M130.1389,192.93l-5-2.887v23.094l5,2.8869Z"/>
    <path id="Path-17" data-name="Path" class="exterior-R-dark" d="M180.1938,181.3829l5-2.887V201.59l-5,2.887Z"/>
    <path id="Path-18" data-name="Path" class="exterior-L-dark" d="M110.1389,181.3829l-5-2.887V201.59l5,2.887Z"/>
    <path id="Path-19" data-name="Path" class="exterior-R-dark" d="M200.1389,169.8359l5-2.887v23.094l-5,2.887Z"/>
    <path id="Path-20" data-name="Path" class="exterior-R-dark" d="M210.1389,164.0618l5-2.8869v23.0939l-5,2.8871Z"/>
    <path id="Path-21" data-name="Path" class="exterior-R-dark" d="M170.2057,384.6568l5-2.8869v23.094l-5,2.8869Z"/>
    <path id="Path-22" data-name="Path" class="exterior-L-dark" d="M120.2607,384.6568l-5-2.8869v23.094l5,2.8869Z"/>
    <path id="Path-23" data-name="Path" class="exterior-L-dark" d="M120.1848,523.2209l-5-2.8871v23.094l5,2.8871Z"/>
    <path id="Path-24" data-name="Path" class="exterior-L-dark" d="M160.4286,650.2378l-5-2.8869v23.094l5,2.8869Z"/>
    <path id="Path-25" data-name="Path" class="exterior-L-dark" d="M80.2057,604.05l-5-2.887v23.094l5,2.8869Z"/>
    <path id="Path-26" data-name="Path" class="exterior-R-dark" d="M190.1508,373.11l5-2.8869v23.094l-5,2.8869Z"/>
    <path id="Path-27" data-name="Path" class="exterior-L-dark" d="M100.3159,373.11l-5-2.8869v23.094l5,2.8869Z"/>
    <path id="Path-28" data-name="Path" class="exterior-L-dark" d="M100.24,511.6739l-5-2.8871v23.094l5,2.8871Z"/>
    <path id="Path-29" data-name="Path" class="exterior-L-dark" d="M140.4838,638.6908l-5-2.8869v23.094l5,2.8869Z"/>
    <path id="Path-30" data-name="Path" class="exterior-L-dark" d="M60.2607,592.5029l-5-2.8871V612.71l5,2.8869Z"/>
    <path id="Path-31" data-name="Path" class="exterior-L-dark" d="M70.2607,355.79l-5-2.8869v23.094l5,2.8869Z"/>
    <path id="Path-32" data-name="Path" class="exterior-L-dark" d="M70.1848,494.3539l-5-2.8871v23.094l5,2.8871Z"/>
    <path id="Path-33" data-name="Path" class="exterior-L-dark" d="M110.4286,621.3708l-5-2.8869v23.094l5,2.8869Z"/>
    <path id="Path-34" data-name="Path" class="exterior-L-dark" d="M30.2057,575.1828l-5-2.8869V595.39l5,2.8869Z"/>
    <path id="Path-35" data-name="Path" class="exterior-L-dark" d="M40.2607,477.0329l-5-2.887V497.24l5,2.887Z"/>
    <path id="Path-36" data-name="Path" class="exterior-R-dark" d="M210.2057,361.5629c.094-.0021,5.0311-2.94,5-2.8871V376.77a9.5758,9.5758,0,0,1-4.33,7.5l-.67.3869Z"/>
    <path id="Path-37" data-name="Path" class="exterior-R-dark" d="M170.2057,523.2209l5-2.8871v23.094l-5,2.8871Z"/>
    <path id="Path-38" data-name="Path" class="exterior-R-dark" d="M210.1508,650.2378l5-2.8869v23.094l-5,2.8869Z"/>
    <path id="Path-39" data-name="Path" class="exterior-R-dark" d="M190.2057,511.6739l5-2.8871v23.094l-5,2.8871Z"/>
    <path id="Path-40" data-name="Path" class="exterior-R-dark" d="M230.1508,638.6908l5-2.8869v23.094l-5,2.8869Z"/>
    <path id="Path-41" data-name="Path" class="exterior-R-dark" d="M160.2607,528.9949l5-2.8871v23.094l-5,2.8871Z"/>
    <path id="Path-42" data-name="Path" class="exterior-R-dark" d="M200.2057,656.0119l5-2.887v23.094l-5,2.887Z"/>
    <path id="Path-43" data-name="Path" class="exterior-R-dark" d="M160.2607,390.4308l5-2.8869v23.094l-5,2.887Z"/>
    <path id="Path-44" data-name="Path" class="exterior-L-dark" d="M130.2057,390.4308l-5-2.8869v23.094l5,2.887Z"/>
    <path id="Path-45" data-name="Path" class="exterior-L-dark" d="M130.13,528.9949l-5-2.8871v23.094l5,2.8871Z"/>
    <path id="Path-46" data-name="Path" class="exterior-L-dark" d="M170.3737,656.0119l-5-2.887v23.094l5,2.887Z"/>
    <path id="Path-47" data-name="Path" class="exterior-L-dark" d="M90.1508,609.8238l-5-2.8869v23.094l5,2.8869Z"/>
    <path id="Path-48" data-name="Path" class="exterior-R-dark" d="M180.2607,378.8838l5-2.8869v23.094l-5,2.8869Z"/>
    <path id="Path-49" data-name="Path" class="exterior-L-dark" d="M110.2057,378.8838l-5-2.8869v23.094l5,2.8869Z"/>
    <path id="Path-50" data-name="Path" class="exterior-L-dark" d="M110.13,517.4479l-5-2.8871v23.094l5,2.8871Z"/>
    <path id="Path-51" data-name="Path" class="exterior-L-dark" d="M150.3737,644.4648l-5-2.8869v23.094l5,2.887Z"/>
    <path id="Path-52" data-name="Path" class="exterior-L-dark" d="M70.1508,598.2768l-5-2.8869v23.094l5,2.8869Z"/>
    <path id="Path-53" data-name="Path" class="exterior-L-dark" d="M80.1508,361.5629l-5-2.8871V381.77l5,2.8869Z"/>
    <path id="Path-54" data-name="Path" class="exterior-L-dark" d="M80.0759,500.1269l-5-2.887v23.0939l5,2.8871Z"/>
    <path id="Path-55" data-name="Path" class="exterior-L-dark" d="M120.3188,627.1438l-5-2.8869v23.094l5,2.8869Z"/>
    <path id="Path-56" data-name="Path" class="exterior-L-dark" d="M40.0956,580.9559l-5-2.8871v23.0941l5,2.887Z"/>
    <path id="Path-57" data-name="Path" class="exterior-L-dark" d="M10.0956,563.6358l-5-2.8869v23.094l5,2.8869Z"/>
    <path id="Path-58" data-name="Path" class="exterior-L-dark" d="M50.2057,344.2428l-5-2.8869V364.45l5,2.886Z"/>
    <path id="Path-59" data-name="Path" class="exterior-L-dark" d="M50.1308,482.8069l-5-2.8871v23.094l5,2.8871Z"/>
    <path id="Path-60" data-name="Path" class="exterior-L-dark" d="M20.2057,465.4859l-5-2.887v23.094l5,2.887Z"/>
    <path id="Path-61" data-name="Path" class="exterior-L-dark" d="M10.2057,459.7129l-5-2.887V479.92l5,2.8871Z"/>
    <path id="Path-62" data-name="Path" class="exterior-R-dark" d="M200.2057,367.3368l5-2.8869v23.094l-5,2.8869Z"/>
    <path id="Path-63" data-name="Path" class="exterior-L-dark" d="M90.2607,367.3368l-5-2.8869v23.094l5,2.8869Z"/>
    <path id="Path-64" data-name="Path" class="exterior-L-dark" d="M90.1848,505.9009l-5-2.8871v23.094l5,2.8871Z"/>
    <path id="Path-65" data-name="Path" class="exterior-L-dark" d="M130.4286,632.9178l-5-2.8869v23.094l5,2.887Z"/>
    <path id="Path-66" data-name="Path" class="exterior-L-dark" d="M50.2057,586.73l-5-2.8869v23.094l5,2.8869Z"/>
    <path id="Path-67" data-name="Path" class="exterior-L-dark" d="M20.2057,569.4089l-5-2.8871v23.094l5,2.8871Z"/>
    <path id="Path-68" data-name="Path" class="exterior-L-dark" d="M60.2057,350.0159l-5-2.8871v23.0941l5,2.8869Z"/>
    <path id="Path-69" data-name="Path" class="exterior-L-dark" d="M60.1308,488.58l-5-2.887v23.0939l5,2.8871Z"/>
    <path id="Path-70" data-name="Path" class="exterior-L-dark" d="M30.2057,471.26l-5-2.8871v23.094l5,2.8871Z"/>
    <path id="Path-71" data-name="Path" class="exterior-R-dark" d="M180.2607,517.4479l5-2.8871v23.094l-5,2.8871Z"/>
    <path id="Path-72" data-name="Path" class="exterior-R-dark" d="M220.2057,644.4648l5-2.8869v23.094l-5,2.887Z"/>
    <path id="Path-73" data-name="Path" class="exterior-R-dark" d="M200.2607,505.9009l5-2.8871v23.094l-5,2.8871Z"/>
    <path id="Path-74" data-name="Path" class="exterior-R-dark" d="M240.2057,632.9178l5-2.8869v23.094l-5,2.887Z"/>
    <path id="Path-75" data-name="Path" class="exterior-R-dark" d="M210.2057,500.1269l5-2.887v19.0939a7.6587,7.6587,0,0,1-3.4641,6l-1.5359.8871Z"/>
    <path id="Path-76" data-name="Path" class="exterior-L-prim" d="M230.2057,575.1828c.0621-.0289-9.1779-5.385-10-5.7739v-5.7731q10.0622,5.7681,9.949,5.9391c26.6131,16.704,25.4881,41.204.051,57.5689Q265.5177,598.2788,230.2057,575.1828Z"/>
    <path id="Path-77" data-name="Path" class="exterior-R-prim" d="M15.2057,427.9579l25-14.433v-5.7741l-25,14.4341q-9.5539,6.2109-10,14.434-.375,6.91,10,14.433Q-1.1694,438.2788,15.2057,427.9579Z"/>
  </g>
</svg>
