<svg id="Layer_1" data-name="Layer 1" xmlns="http://www.w3.org/2000/svg" viewBox="0 0 280 161.6581">
  <defs>
    <style>
      .cls-1 {
        fill: #e9e8e8;
      }

      .cls-2 {
        fill: #d2d2d2;
      }

      .cls-3 {
        fill: #bababa;
      }

      .cls-4 {
        fill: #8b8b8b;
      }

      .cls-5 {
        fill: #79a886;
      }

      .cls-6 {
        fill: #fff;
      }

      .cls-7 {
        fill: #efcb6d;
      }

      .cls-8 {
        fill: #5d896a;
      }

      .cls-9 {
        fill: #a2a2a1;
      }

      .cls-10 {
        fill: #010101;
      }
    </style>
  </defs>
  <title>Artboard 21</title>
  <g>
    <path id="Path" class="cls-1" d="M120,0,0,69.2821l160,92.376,120-69.282Z"/>
    <path id="Path-2" data-name="Path" class="cls-2" d="M269.9261,92.3761l-110,63.5085-150-86.6025,110-63.5086Z"/>
    <path id="Path-3" data-name="Path" class="cls-3" d="M10,69.2821l9.9261,5.7735,100-57.7351V5.7735Z"/>
    <path id="Path-4" data-name="Path" class="cls-4" d="M259.9261,98.15l-140-80.8291V5.7735l150,86.6026Z"/>
    <path id="Path-5" data-name="Path" class="cls-5" d="M29.9261,57.735l90,51.9616,90-51.9616-90-51.9615Z"/>
    <path id="Path-6" data-name="Path" class="cls-3" d="M119.9262,109.6966V115.47l90-51.9615V57.7351Z"/>
    <path id="Path-7" data-name="Path" class="cls-4" d="M119.9262,109.6966V115.47l-90-51.9615V57.7351Z"/>
    <path id="Path-8" data-name="Path" class="cls-4" d="M34.9261,77.9423l2.5,1.4434V67.8387l-2.5-1.4434Z"/>
    <g id="Group">
      <path id="Path-9" data-name="Path" class="cls-3" d="M204.9262,77.9423l-2.5,1.4434V67.8387l2.5-1.4434Z"/>
      <path id="Path-10" data-name="Path" class="cls-4" d="M199.9262,69.2821l2.5-1.4434v11.547l-2.5-1.4434Z"/>
    </g>
    <g id="Group-2" data-name="Group">
      <path id="Path-11" data-name="Path" class="cls-3" d="M149.9262,110.4183l-2.5,1.4433V99.5929l2.5-1.4433Z"/>
      <path id="Path-12" data-name="Path" class="cls-4" d="M144.9262,101.0363l2.5-1.4434V111.14l-2.5-1.4434Z"/>
    </g>
    <g id="Group-3" data-name="Group">
      <path id="Path-13" data-name="Path" class="cls-4" d="M89.9261,109.6966l2.5,1.4434V99.5929l-2.5-1.4433Z"/>
      <path id="Path-14" data-name="Path" class="cls-3" d="M94.9261,101.0363l-2.5-1.4434V111.14l2.5-1.4434Z"/>
    </g>
    <g id="Group-4" data-name="Group">
      <path id="Path-15" data-name="Path" class="cls-3" d="M177.4262,93.82l-2.5,1.4433V83.7158l2.5-1.4434Z"/>
      <path id="Path-16" data-name="Path" class="cls-4" d="M172.4262,85.1592l2.5-1.4434v11.547l-2.5-1.4433Z"/>
    </g>
    <g id="Group-5" data-name="Group">
      <path id="Path-17" data-name="Path" class="cls-4" d="M62.4261,93.82l2.5,1.4433V83.7158l-2.5-1.4434Z"/>
      <path id="Path-18" data-name="Path" class="cls-3" d="M67.4261,85.1592l-2.5-1.4434v11.547l2.5-1.4433Z"/>
    </g>
    <path id="Path-19" data-name="Path" class="cls-3" d="M39.9261,69.2821l-2.5-1.4434v11.547l2.5-1.4434Z"/>
    <g id="Group-6" data-name="Group">
      <path id="Path-20" data-name="Path" class="cls-3" d="M122.4262,125.5737l-2.5,1.4434V115.47l2.5-1.4434Z"/>
      <path id="Path-21" data-name="Path" class="cls-4" d="M117.4262,114.0267l2.5,1.4434v11.547l-2.5-1.4434Z"/>
    </g>
    <path id="Path-22" data-name="Path" class="cls-6" d="M119.9262,103.9231l-80-46.188,80-46.1881,80,46.1881Z"/>
    <path id="Path-23" data-name="Path" class="cls-5" d="M49.9261,57.7351l70,40.4145,70-40.4145-70-40.4146Z"/>
    <path id="Path-24" data-name="Path" class="cls-4" d="M131.1762,114.7484l-1.25-.7217v14.4338l1.25.7216Z"/>
    <path id="Path-25" data-name="Path" class="cls-4" d="M142.4262,108.2532l-1.25-.7217v14.4338l1.25.7217Z"/>
    <path id="Path-26" data-name="Path" class="cls-3" d="M132.4262,115.47l-1.25-.7217v14.4337l1.25-.7216Z"/>
    <path id="Path-27" data-name="Path" class="cls-3" d="M143.6762,108.9749l-1.25-.7217V122.687l1.25-.7217Z"/>
    <path id="Path-28" data-name="Path" class="cls-7" d="M97.4262,44.7447h0c-12.4181,7.17-12.4181,18.8112,0,25.9807h0c12.4181,7.17,32.5819,7.17,45,0h0c12.4181-7.1695,12.4181-18.8111,0-25.9807h0C130.0081,37.5751,109.8443,37.5751,97.4262,44.7447Z"/>
    <path id="Path-29" data-name="Path" class="cls-5" d="M102.4262,47.6314h0c-9.6585,5.5764-9.6585,14.6309,0,20.2073h0c9.6585,5.5763,25.3415,5.5763,35,0h0c9.6585-5.5764,9.6585-14.6309,0-20.2073h0C127.7677,42.0551,112.0847,42.0551,102.4262,47.6314Z"/>
    <path id="Path-30" data-name="Path" class="cls-1" d="M128.6762,107.5315l-1.25.7217,15,24.5374,1.25-.7217Z"/>
    <path id="Path-31" data-name="Path" class="cls-1" d="M139.9262,101.0363l-1.25.7217,15,24.5374,1.25-.7217Z"/>
    <path id="Path-32" data-name="Path" class="cls-4" d="M141.1762,133.5123v-2.8868l-13.75-22.3723V111.14Z"/>
    <path id="Path-33" data-name="Path" class="cls-4" d="M152.4262,127.0171V124.13l-13.75-22.3723v2.8868Z"/>
    <g id="Group-7" data-name="Group">
      <g id="Group-8" data-name="Group">
        <path id="Path-34" data-name="Path" class="cls-6" d="M117.4262,67.117l-3.75-2.1651,18.75-10.8253,3.75,2.1651Z"/>
        <path id="Path-35" data-name="Path" class="cls-6" d="M107.4262,61.3435l-3.75-2.1651,18.75-10.8253,3.75,2.1651Z"/>
        <path id="Path-36" data-name="Path" class="cls-6" d="M124.9262,62.7869l-13.75-7.9386,3.75-2.1651,13.75,7.9386Z"/>
      </g>
    </g>
    <path id="Path-37" data-name="Path" class="cls-5" d="M142.4262,99.593l2.5,1.4433-17.5,10.1036-2.5-1.4433Z"/>
    <path id="Path-38" data-name="Path" class="cls-5" d="M147.4262,108.2532l2.5,1.4434-17.5,10.1036-2.5-1.4434Z"/>
    <path id="Path-39" data-name="Path" class="cls-5" d="M152.4263,116.9135l2.5,1.4433-17.5,10.1037-2.5-1.4434Z"/>
    <path id="Path-40" data-name="Path" class="cls-5" d="M144.9262,103.9231l2.5,1.4434-17.5,10.1036-2.5-1.4434Z"/>
    <path id="Path-41" data-name="Path" class="cls-5" d="M149.9262,112.5833l2.5,1.4434-17.5,10.1036-2.5-1.4433Z"/>
    <path id="Path-42" data-name="Path" class="cls-5" d="M154.9263,121.2436l2.5,1.4434-17.5,10.1036-2.5-1.4434Z"/>
    <path id="Path-43" data-name="Path" class="cls-3" d="M174.9262,121.2436l-12.5,7.2169-7.5-4.33-17.5,10.1037,20,11.547,30-17.3205Z"/>
    <path id="Path-44" data-name="Path" class="cls-4" d="M139.9262,132.7906l-2.5-1.4434v1.4434l2.5,1.4434Z"/>
    <path id="Path-45" data-name="Path" class="cls-4" d="M134.9262,124.13l-2.5-1.4433V124.13l2.5,1.4434Z"/>
    <path id="Path-46" data-name="Path" class="cls-4" d="M129.9262,115.47l-2.5-1.4434V115.47l2.5,1.4434Z"/>
    <path id="Path-47" data-name="Path" class="cls-4" d="M137.4262,128.46l-2.5-1.4433V128.46l2.5,1.4434Z"/>
    <path id="Path-48" data-name="Path" class="cls-4" d="M132.4262,119.8l-2.5-1.4434V119.8l2.5,1.4434Z"/>
    <path id="Path-49" data-name="Path" class="cls-4" d="M127.4262,111.14l-2.5-1.4433V111.14l2.5,1.4434Z"/>
    <path id="Path-50" data-name="Path" class="cls-3" d="M144.9262,102.48l-17.5,10.1036V111.14l17.5-10.1036Z"/>
    <path id="Path-51" data-name="Path" class="cls-3" d="M147.4262,106.81l-17.5,10.1037V115.47l17.5-10.1036Z"/>
    <path id="Path-52" data-name="Path" class="cls-3" d="M149.9262,111.14l-17.5,10.1036V119.8l17.5-10.1036Z"/>
    <path id="Path-53" data-name="Path" class="cls-3" d="M152.4262,115.47l-17.5,10.1036V124.13l17.5-10.1036Z"/>
    <path id="Path-54" data-name="Path" class="cls-3" d="M154.9262,119.8l-17.5,10.1036V128.46l17.5-10.1036Z"/>
    <path id="Path-55" data-name="Path" class="cls-3" d="M157.4262,124.13l-17.5,10.1037v-1.4434l17.5-10.1036Z"/>
    <path id="Path-56" data-name="Path" class="cls-8" d="M72.4261,62.0652l-2.5,1.4434-10-5.7735,2.5-1.4434Z"/>
    <path id="Path-57" data-name="Path" class="cls-8" d="M179.9262,57.7351l-2.5,1.4433-10-5.7735,2.5-1.4434Z"/>
    <path id="Path-58" data-name="Path" class="cls-1" d="M234.9262,86.6026l-42.5,24.5374-30-17.32,42.5-24.5374Z"/>
    <path id="Path-59" data-name="Path" class="cls-3" d="M192.4262,111.14l42.5-24.5374V106.81l-42.5,24.5374Z"/>
    <path id="Path-60" data-name="Path" class="cls-4" d="M162.4262,93.8194v20.2073l30,17.32V111.14Z"/>
    <path id="Path-61" data-name="Path" class="cls-3" d="M204.9262,75.0556l-32.5,18.7639,20,11.547,32.5-18.7639Z"/>
    <path id="Path-62" data-name="Path" class="cls-4" d="M224.9262,86.6026l-2.5,1.4433-17.5-10.1036V75.0556Z"/>
    <path id="Path-63" data-name="Path" class="cls-9" d="M204.9262,75.0556v2.8867l-30,17.32-2.5-1.4433Z"/>
    <path id="Path-64" data-name="Path" class="cls-3" d="M177.4262,106.81l2.5,1.4434v12.99l-2.5,1.4434Z"/>
    <path id="Path-65" data-name="Path" class="cls-3" d="M184.9262,127.0171l-2.5,1.4433-7.5-4.33,5-2.8867,5,2.8867Z"/>
    <path id="Path-66" data-name="Path" class="cls-10" d="M179.9262,108.2532l5,2.8868v12.99l-5-2.8867Z"/>
  </g>
</svg>
