<svg id="Layer_1" data-name="Layer 1" xmlns="http://www.w3.org/2000/svg" viewBox="0 0 130 75.06">
  <defs>
    <style>
      .top-light {
        fill: #fac7c6;
      }

      .top-prim {
        fill: #dd8987;
      }

      .exterior-L-prim {
        fill: #73302f;
      }

      .exterior-R-prim {
        fill: #d15752;
      }

      .cls-3 {
        fill: #f8fafb;
      }

      .cls-4 {
        fill: #a2a2a1;
      }

      .cls-5 {
        fill: #d3d3d3;
      }

      .cls-6 {
        fill: #484848;
      }

      .cls-7 {
        fill: #bbb;
      }

      .cls-8 {
        fill: #e9e8e7;
      }
    </style>
  </defs>
  <title>Artboard 9</title>
  <g id="root">
    <path id="top-T2" class="top-light" d="M65,0l65,37.53L65,75.06,0,37.53Z"/>
    <path id="top-T2-2" class="top-prim" d="M65,5.77l55,31.76L65,69.28,10,37.53Z"/>
    <path id="Path" class="exterior-L-prim" d="M65,5.77V26l37.5,21.65L120,37.53Z"/>
    <path id="Path-2" class="exterior-R-prim" d="M65,5.77V26L27.5,47.63,10,37.53Z"/>
    <path id="Path-3" class="top-light" d="M52.5,27.42l15-8.66L102.5,39l-15,8.66Z"/>
    <path id="Path-4" class="exterior-L-prim" d="M52.5,27.42V41.86l30.32,17.5,4.68-3.07V47.63Z"/>
    <path id="Path-5" class="exterior-R-prim" d="M102.5,39v8.66l-15,8.66V47.63Z"/>
    <path id="Path-6" class="top-prim" d="M57.5,27.42l10-5.77L97.5,39l-10,5.77Z"/>
    <g id="Group-2">
      <path id="Path-7" class="cls-3" d="M80,52,70,57.74,41.25,41.14l10-5.78Z"/>
      <path id="Path-8" class="cls-4" d="M70,57.74V66.4l10-5.78V51.89Z"/>
      <path id="Path-9" class="cls-5" d="M41.25,41.14v13l25,14.43L70,66.4V57.74Z"/>
      <path id="Path-10" class="cls-6" d="M67.48,59.12l-6.23-3.55v7.22L67.5,66.4Z"/>
      <path id="Path-11" class="cls-6" d="M58.75,54.13,52.5,50.52v7.22l6.25,3.6Z"/>
      <path id="Path-12" class="cls-6" d="M50,49.07l-6.25-3.6v7.21L50,56.29Z"/>
      <g id="Group-3">
        <ellipse id="Ellipse" class="cls-7" cx="69.52" cy="51.5" rx="3.83" ry="2.21"/>
        <rect id="Rectangle" class="cls-7" x="65.69" y="49.57" width="7.67" height="1.93"/>
        <ellipse id="Ellipse-2" class="cls-8" cx="69.52" cy="49.57" rx="3.83" ry="2.21"/>
      </g>
      <g id="Group-4">
        <ellipse id="Ellipse-3" class="cls-7" cx="60.22" cy="46.3" rx="3.83" ry="2.21"/>
        <rect id="Rectangle-2" class="cls-7" x="56.38" y="44.37" width="7.67" height="1.93"/>
        <ellipse id="Ellipse-4" class="cls-8" cx="60.22" cy="44.37" rx="3.83" ry="2.21"/>
      </g>
      <g id="Group-5">
        <ellipse id="Ellipse-5" class="cls-7" cx="50.91" cy="41.09" rx="3.83" ry="2.21"/>
        <rect id="Rectangle-3" class="cls-7" x="47.08" y="39.16" width="7.67" height="1.93"/>
        <ellipse id="Ellipse-6" class="cls-8" cx="50.91" cy="39.16" rx="3.83" ry="2.21"/>
      </g>
    </g>
  </g>
</svg>
