<svg id="Layer_1" data-name="Layer 1" xmlns="http://www.w3.org/2000/svg" xmlns:xlink="http://www.w3.org/1999/xlink" viewBox="0 0 130 92.1466">
  <defs>
    <style>
      .cls-1 {
        fill: none;
      }

      .top-light {
        fill: #fac7c6;
      }

      .top-prim {
        fill: #dd8987;
      }

      .cls-2 {
        fill: #73302f;
      }

      .cls-3 {
        fill: #d15752;
      }

      .cls-4 {
        fill: #8b8b8b;
      }

      .cls-5 {
        fill: #2e2e2e;
      }

      .cls-6 {
        fill: #5e5e5e;
      }

      .cls-7 {
        fill: #757575;
      }

      .cls-8 {
        fill: #e7a840;
      }

      .cls-9 {
        fill: #f8d14d;
      }

      .cls-10 {
        fill: #1a1725;
      }

      .cls-11 {
        clip-path: url(#clip-path);
      }

      .cls-12 {
        fill: #ec7b85;
      }

      .cls-13 {
        fill: #fff;
      }

      .cls-14 {
        fill: #dd3728;
      }

      .cls-15 {
        clip-path: url(#clip-path-2);
      }

      .cls-16 {
        fill: #c92f27;
      }

      .cls-17 {
        fill: #f15b51;
      }

      .cls-18 {
        clip-path: url(#clip-path-3);
      }
    </style>
    <clipPath id="clip-path">
      <path class="cls-1" d="M54.3032,26.1786l1.6447.2374a73.1987,73.1987,0,0,0,17.4387,0l1.6447-.2374h0A10.423,10.423,0,0,1,64.6673,36.65h0A10.423,10.423,0,0,1,54.3032,26.1786Z"/>
    </clipPath>
    <clipPath id="clip-path-2">
      <path class="cls-1" d="M72.15,23.9188c-.7166-1.54-4.1851-5.8972-5.3541-8.2763-1.7016-3.4616-.53-8.3881,3.2636-8.96a4.8368,4.8368,0,0,1,3.7375.9359A5.5552,5.5552,0,0,1,75.6315,10.4a5.5478,5.5478,0,0,1,2.9427-1.5629,4.8367,4.8367,0,0,1,3.73.9685c3.0558,2.3184,1.7249,7.2046-1.4268,9.4282-2.166,1.5287-7.2971,3.6927-8.6643,4.7006l-.028-.0223-.0352.0063Z"/>
    </clipPath>
    <clipPath id="clip-path-3">
      <path class="cls-1" d="M58.1007,23.9188c.717-1.54,4.1848-5.8972,5.3546-8.2763,1.7016-3.4616.5295-8.3881-3.2639-8.96a4.8371,4.8371,0,0,0-3.7377.9359A5.5511,5.5511,0,0,0,54.6192,10.4,5.5474,5.5474,0,0,0,51.676,8.8375a4.8358,4.8358,0,0,0-3.7291.9685c-3.0559,2.3184-1.7257,7.2046,1.426,9.4282,2.1662,1.5287,7.2979,3.6927,8.6645,4.7006l.0278-.0223.0355.0063Z"/>
    </clipPath>
  </defs>
  <title>Artboard 12</title>
  <g id="root">
    <g id="Group">
      <path id="top-T2" class="top-light" d="M65,17.0866l65,37.53-65,37.53L0,54.6166Z"/>
      <path id="top-T2-2" class="top-prim" d="M65,22.8566l55,31.76-55,31.75-55-31.75Z"/>
      <path id="Path" class="cls-2" d="M65,22.8566v20.23l37.5,21.65,17.5-10.12Z"/>
      <path id="Path-2" class="cls-3" d="M65,22.8566v20.23l-37.5,21.63L10,54.6166Z"/>
    </g>
    <g id="Group-2" data-name="Group">
      <path id="Path-2-2" data-name="Path" class="cls-4" d="M50.4167,65.0729,64.6673,73.3l14.2506-8.2275v-1.496L64.6673,55.3494,50.4167,63.5769Z"/>
      <path id="Path-3" data-name="Path" class="cls-5" d="M63.3718,9.7236V63.5769l1.2955.7477V10.4714Z"/>
      <path id="Path-4" data-name="Path" class="cls-6" d="M65.9628,9.7236l-1.2955.7478V64.3246l1.2955-.7477Z"/>
      <path id="Path-5" data-name="Path" class="cls-4" d="M63.3718,9.7236l1.2955-.7483,1.2955.7483-1.2955.7478Z"/>
      <path id="Path-6" data-name="Path" class="cls-5" d="M64.6673,71.8044V73.3L50.4167,65.0729v-1.496Z"/>
      <path id="Path-7" data-name="Path" class="cls-6" d="M78.9179,63.5769v1.496L64.6673,73.3v-1.496Z"/>
      <path id="Path-8" data-name="Path" class="cls-5" d="M58.19,60.5848l6.4776,3.74v-7.48Z"/>
      <path id="Path-9" data-name="Path" class="cls-6" d="M64.6673,64.3246l-5.1821,2.9921,5.1821-8.9758Z"/>
      <path id="Path-10" data-name="Path" class="cls-6" d="M71.1448,60.5848l-6.4775,3.74v-7.48Z"/>
      <path id="Path-11" data-name="Path" class="cls-5" d="M64.6673,64.3246l5.182,2.9921-5.182-8.9758Z"/>
      <path id="Path-12" data-name="Path" class="cls-7" d="M58.19,66.5685l5.1821-8.9753,1.2955.7477-5.1821,8.9758Z"/>
      <path id="Path-13" data-name="Path" class="cls-7" d="M71.1448,66.5685l-5.182-8.9753-1.2955.7477,5.182,8.9758Z"/>
      <path id="Path-14" data-name="Path" class="cls-7" d="M64.0195,69.1864h0a1.4339,1.4339,0,0,1,1.2955,0h0a.3951.3951,0,0,1,0,.7483h0a1.4339,1.4339,0,0,1-1.2955,0h0A.3951.3951,0,0,1,64.0195,69.1864Z"/>
      <path id="Path-15" data-name="Path" class="cls-7" d="M74.3836,63.2027h0a1.4339,1.4339,0,0,1,1.2955,0h0a.3951.3951,0,0,1,0,.7483h0a1.4333,1.4333,0,0,1-1.2955,0h0A.3951.3951,0,0,1,74.3836,63.2027Z"/>
      <path id="Path-16" data-name="Path" class="cls-7" d="M53.6554,63.2027h0a1.4339,1.4339,0,0,1,1.2955,0h0a.3951.3951,0,0,1,0,.7483h0a1.4333,1.4333,0,0,1-1.2955,0h0A.3951.3951,0,0,1,53.6554,63.2027Z"/>
      <circle id="Mask" class="cls-8" cx="65" cy="21.6909" r="21.6909"/>
      <path class="cls-9" d="M65,0A21.5851,21.5851,0,0,0,52.4,4.0407a21.6855,21.6855,0,0,0,30.383,30.0646A21.686,21.686,0,0,0,65,0Z"/>
      <g id="Mask-2" data-name="Mask">
        <path class="cls-10" d="M54.3032,26.1786l1.6447.2374a73.1987,73.1987,0,0,0,17.4387,0l1.6447-.2374h0A10.423,10.423,0,0,1,64.6673,36.65h0A10.423,10.423,0,0,1,54.3032,26.1786Z"/>
        <path class="cls-10" d="M64.667,37.427A11.2078,11.2078,0,0,1,53.5256,26.1789a.7769.7769,0,0,1,.8882-.7692l1.6447.2373a72.36,72.36,0,0,0,17.2171,0L74.92,25.41a.7769.7769,0,0,1,.8881.7692A11.2077,11.2077,0,0,1,64.667,37.427ZM55.1217,27.0822a9.5777,9.5777,0,0,0,19.0906,0l-.7151.1032a74.1538,74.1538,0,0,1-17.66,0Z"/>
      </g>
      <g class="cls-11">
        <g>
          <path id="Path-17" data-name="Path" class="cls-12" d="M58.19,35.9022l.7831-.8141a7.8443,7.8443,0,0,1,11.3889,0l.7831.8141-6.4775.7478Z"/>
          <path id="Path-18" data-name="Path" class="cls-13" d="M54.3032,25.5179l.9562,2.7605a1.7278,1.7278,0,0,0,1.3722,1.0649l4.4206.3643a52.9283,52.9283,0,0,0,7.23,0l4.4207-.3643a1.7278,1.7278,0,0,0,1.3721-1.0649l.9562-2.7605Z"/>
        </g>
      </g>
      <g id="Mask-3" data-name="Mask">
        <path class="cls-10" d="M64.667,37.427A11.2078,11.2078,0,0,1,53.5256,26.1789a.7769.7769,0,0,1,.8882-.7692l1.6447.2373a72.36,72.36,0,0,0,17.2171,0L74.92,25.41a.7769.7769,0,0,1,.8881.7692A11.2077,11.2077,0,0,1,64.667,37.427ZM55.1217,27.0822a9.5777,9.5777,0,0,0,19.0906,0l-.7151.1032a74.1538,74.1538,0,0,1-17.66,0Z"/>
      </g>
      <path id="Mask-4" data-name="Mask" class="cls-14" d="M72.15,23.9188c-.7166-1.54-4.1851-5.8972-5.3541-8.2763-1.7016-3.4616-.53-8.3881,3.2636-8.96a4.8368,4.8368,0,0,1,3.7375.9359A5.5552,5.5552,0,0,1,75.6315,10.4a5.5478,5.5478,0,0,1,2.9427-1.5629,4.8367,4.8367,0,0,1,3.73.9685c3.0558,2.3184,1.7249,7.2046-1.4268,9.4282-2.166,1.5287-7.2971,3.6927-8.6643,4.7006l-.028-.0223-.0352.0063Z"/>
      <g class="cls-15">
        <g>
          <path id="Path-19" data-name="Path" class="cls-16" d="M65.583,17.9511v-7.48q4.1784,10.376,11.66,11.22l-5.1821,2.9916Z"/>
          <path id="Path-20" data-name="Path" class="cls-17" d="M69.47,6.7315q5.0852.1892,5.182,7.48Q78.0363,5.166,69.47,6.7315Z"/>
        </g>
      </g>
      <path id="Mask-5" data-name="Mask" class="cls-14" d="M58.1007,23.9188c.717-1.54,4.1848-5.8972,5.3546-8.2763,1.7016-3.4616.5295-8.3881-3.2639-8.96a4.8371,4.8371,0,0,0-3.7377.9359A5.5511,5.5511,0,0,0,54.6192,10.4,5.5474,5.5474,0,0,0,51.676,8.8375a4.8358,4.8358,0,0,0-3.7291.9685c-3.0559,2.3184-1.7257,7.2046,1.426,9.4282,2.1662,1.5287,7.2979,3.6927,8.6645,4.7006l.0278-.0223.0355.0063Z"/>
      <g class="cls-18">
        <g>
          <path id="Path-21" data-name="Path" class="cls-16" d="M48.6713,8.9753q-1.0684,10.047,10.364,14.9595Q49.0279,22.2,46.08,16.4551T48.6713,8.9753Z"/>
          <path id="Path-22" data-name="Path" class="cls-17" d="M64.2174,7.48c-1.1419-1.2934-4.7648-1.6728-7.7731,0q6.8342-.6886,6.4776,9.7236Q66.1817,9.7034,64.2174,7.48Z"/>
        </g>
      </g>
    </g>
  </g>
</svg>
