<svg id="Layer_1" data-name="Layer 1" xmlns="http://www.w3.org/2000/svg" xmlns:xlink="http://www.w3.org/1999/xlink" viewBox="0 0 180 150.1111">
  <defs>
    <style>
      .cls-1 {
        fill: none;
      }

      .cls-2, .cls-8 {
        fill: #f6fdff;
      }

      .cls-3 {
        fill: #96eaff;
      }

      .cls-4, .cls-9 {
        fill: #e2f9ff;
      }

      .cls-5 {
        fill: #e0f8ff;
      }

      .cls-6 {
        fill: #6cd4ee;
      }

      .cls-7 {
        fill: #46b5d0;
      }

      .cls-10, .cls-8, .cls-9 {
        fill-opacity: 0.8;
      }

      .cls-10 {
        fill: #dbf8ff;
      }

      .cls-11 {
        opacity: 0.6;
      }

      .cls-12 {
        fill: #fff;
        fill-opacity: 0.9;
      }

      .cls-13 {
        opacity: 0.8;
      }

      .cls-14 {
        opacity: 0.52;
      }

      .cls-15 {
        fill: #e1f9ff;
      }

      .cls-16 {
        fill: #d74c4c;
      }

      .cls-17 {
        clip-path: url(#clip-path);
      }

      .cls-18 {
        fill: #ff6b6b;
      }

      .cls-19 {
        clip-path: url(#clip-path-2);
      }

      .cls-20 {
        fill: #ffc7c7;
      }

      .cls-21 {
        fill: #f5bf42;
      }

      .cls-22 {
        clip-path: url(#clip-path-3);
      }

      .cls-23 {
        fill: #fade4b;
      }

      .cls-24 {
        clip-path: url(#clip-path-4);
      }

      .cls-25 {
        fill: #fdf482;
      }
    </style>
    <clipPath id="clip-path">
      <path class="cls-1" d="M89.067,23.3061h0a4.311,4.311,0,0,0,0,7.13h0a7.7,7.7,0,0,0,9.116,0h0a4.311,4.311,0,0,0,0-7.13h0A7.8536,7.8536,0,0,0,89.067,23.3061Z"/>
    </clipPath>
    <clipPath id="clip-path-2">
      <path class="cls-1" d="M91.828,24.5541h0a1.31,1.31,0,0,0,0,2.399h0a3.862,3.862,0,0,0,3.786,0h0a1.31,1.31,0,0,0,0-2.399h0A3.862,3.862,0,0,0,91.828,24.5541Z"/>
    </clipPath>
    <clipPath id="clip-path-3">
      <path class="cls-1" d="M74.317,30.5561h0a4.311,4.311,0,0,0,0,7.13h0a7.7,7.7,0,0,0,9.116,0h0a4.311,4.311,0,0,0,0-7.13h0A7.8536,7.8536,0,0,0,74.317,30.5561Z"/>
    </clipPath>
    <clipPath id="clip-path-4">
      <path class="cls-1" d="M77.078,31.8041h0a1.31,1.31,0,0,0,0,2.399h0a3.862,3.862,0,0,0,3.786,0h0a1.31,1.31,0,0,0,0-2.399h0A3.862,3.862,0,0,0,77.078,31.8041Z"/>
    </clipPath>
  </defs>
  <title>Artboard 1</title>
  <g id="root">
    <path id="Path" class="cls-2" d="M0,63.5081V51.9611L90,0l90,51.961v11.547L90,115.47Z"/>
    <path id="Path-2" data-name="Path" class="cls-3" d="M10,51.9611,90,5.7731l80,46.188L90,98.1491Z"/>
    <path id="Path-3" data-name="Path" class="cls-4" d="M10,51.9611,90,5.7731v46.188L50,75.0551Z"/>
    <path id="Path-4" data-name="Path" class="cls-5" d="M90,5.7731v46.188l40,23.094,40-23.094Z"/>
    <path id="Path-5" data-name="Path" class="cls-6" d="M90,51.9611V11.5471L15,54.8481v40.415Z"/>
    <path id="Path-6" data-name="Path" class="cls-6" d="M165,95.2631V54.8481L90,98.1491v40.415Z"/>
    <path id="Path-7" data-name="Path" class="cls-7" d="M165,54.8481v40.415L90,51.9611V11.5471Z"/>
    <path id="Path-8" data-name="Path" class="cls-7" d="M90,98.1491v40.415L15,95.2631V54.8481Z"/>
    <path id="Path-9" data-name="Path" class="cls-8" d="M5,49.0751l-5,2.886,90,51.962v-5.774Z"/>
    <path id="Path-10" data-name="Path" class="cls-8" d="M175,49.0751l5,2.886-90,51.962v-5.774Z"/>
    <path id="Path-11" data-name="Path" class="cls-9" d="M90,103.9231v46.188l90-51.962V51.9611Z"/>
    <path id="Path-12" data-name="Path" class="cls-10" d="M90,103.9231v46.188L0,98.1491V51.9611Z"/>
    <g class="cls-11">
      <path id="Path-13" data-name="Path" class="cls-12" d="M49.616,50.9841l29.518-17.042a1.6978,1.6978,0,0,1,1.491-.139h0c.345.199.2371.585-.241.861L50.866,51.7061a1.6978,1.6978,0,0,1-1.491.139h0C49.03,51.6461,49.1379,51.26,49.616,50.9841Z"/>
    </g>
    <path id="Path-14" data-name="Path" class="cls-12" d="M66.2889,46.41,95.807,29.3671a1.6978,1.6978,0,0,1,1.491-.139h0c.3449.199.237.585-.241.861L67.5389,47.1311a1.6943,1.6943,0,0,1-1.4909.139h0C65.703,47.0711,65.811,46.6861,66.2889,46.41Z"/>
    <path id="Path-15" data-name="Path" class="cls-12" d="M70.866,60.1221l29.518-17.043a1.7011,1.7011,0,0,1,1.491-.139h0c.345.199.2371.585-.241.861L72.116,60.8431a1.6983,1.6983,0,0,1-1.491.14h0C70.28,60.7831,70.3879,60.3981,70.866,60.1221Z"/>
    <g class="cls-11">
      <path id="Path-16" data-name="Path" class="cls-12" d="M109.616,76.7321l29.518-17.043a1.7011,1.7011,0,0,1,1.491-.139h0c.345.2.2371.585-.241.861l-29.518,17.042a1.6983,1.6983,0,0,1-1.491.14h0C109.03,77.3931,109.1379,77.0081,109.616,76.7321Z"/>
    </g>
    <g class="cls-13">
      <path id="Path-17" data-name="Path" class="cls-12" d="M52.116,45.2111l5.768-3.331a1.6978,1.6978,0,0,1,1.491-.139h0c.345.199.2371.585-.241.861l-5.768,3.33a1.6945,1.6945,0,0,1-1.491.139h0C51.53,45.8721,51.6379,45.4861,52.116,45.2111Z"/>
    </g>
    <g class="cls-13">
      <path id="Path-18" data-name="Path" class="cls-12" d="M87.741,30.8931l5.768-3.33A1.6978,1.6978,0,0,1,95,27.4241h0c.345.199.2371.585-.241.861l-5.768,3.33a1.6978,1.6978,0,0,1-1.491.139h0C87.155,31.5551,87.2629,31.1691,87.741,30.8931Z"/>
    </g>
    <path id="Path-19" data-name="Path" class="cls-12" d="M76.491,76.36l5.768-3.33a1.6983,1.6983,0,0,1,1.491-.14h0c.345.2.2371.585-.241.861l-5.768,3.33a1.6945,1.6945,0,0,1-1.491.139h0C75.905,77.0211,76.0129,76.6361,76.491,76.36Z"/>
    <path id="Path-20" data-name="Path" class="cls-12" d="M113.991,39.1931l5.768-3.33a1.6983,1.6983,0,0,1,1.491-.14h0c.345.2.2371.585-.241.861l-5.768,3.33a1.6983,1.6983,0,0,1-1.491.14h0C113.405,39.8541,113.5129,39.4691,113.991,39.1931Z"/>
    <g class="cls-11">
      <path id="Path-21" data-name="Path" class="cls-12" d="M70.241,55.4311l5.768-3.33a1.6983,1.6983,0,0,1,1.491-.14h0c.345.2.2371.585-.241.861l-5.768,3.33a1.6983,1.6983,0,0,1-1.491.14h0C69.655,56.0921,69.7629,55.7071,70.241,55.4311Z"/>
    </g>
    <g class="cls-14">
      <path id="Path-22" data-name="Path" class="cls-15" d="M90,98.1491l17.5-10.103-2.786-1.609a7.6063,7.6063,0,0,0-6.917.02l-2.802,1.639c-3.334,1.951-8.553,2.085-11.647.299h0c-3.093-1.786-2.888-4.804.4571-6.736l8.84-5.104c1.434-.827,1.478-2.146.098-2.943h0a5.6382,5.6382,0,0,0-5.098.057l-10.67,6.16a3.83,3.83,0,0,1-3.464,0l-1.536-.887a1.0559,1.0559,0,0,1,0-2l5.67-3.273c1.434-.828,1.478-2.147.098-2.944h0a5.6413,5.6413,0,0,0-5.098.057l-10.67,6.16a3.83,3.83,0,0,1-3.464,0l-1.536-.887a1.0559,1.0559,0,0,1,0-2l15.67-9.047c1.434-.827,1.478-2.146.098-2.943h0a5.6792,5.6792,0,0,0-5.106.043l-15.9,9.07a3.8565,3.8565,0,0,1-3.4692-.009l-4.0358-2.33a1.0468,1.0468,0,0,1,.0069-1.988L55.135,60.66c1.439-.818,1.488-2.128.108-2.925h0a5.6382,5.6382,0,0,0-5.098.057l-8.17,4.716a3.3961,3.3961,0,0,1-2.982.279h0c-.69-.399-.474-1.17.482-1.722l20.67-11.934c1.434-.828,1.478-2.146.098-2.943h0a5.6382,5.6382,0,0,0-5.098.057l-20.67,11.933a3.9308,3.9308,0,0,1-3.48.038h0a7.86,7.86,0,0,0-6.959.076l-1.536.886Z"/>
    </g>
    <path id="Path-23" data-name="Path" class="cls-12" d="M46.491,64.6961l5.768-3.33a1.6978,1.6978,0,0,1,1.491-.139h0c.345.199.2371.585-.241.861l-5.768,3.33a1.6978,1.6978,0,0,1-1.491.139h0C45.905,65.3581,46.0129,64.9721,46.491,64.6961Z"/>
    <path id="Path-24" data-name="Path" class="cls-12" d="M87.741,66.9781l5.768-3.33a1.6983,1.6983,0,0,1,1.491-.14h0c.345.2.2371.585-.241.861l-5.768,3.33a1.6983,1.6983,0,0,1-1.491.14h0C87.155,67.6391,87.2629,67.2541,87.741,66.9781Z"/>
    <g class="cls-13">
      <path id="Path-25" data-name="Path" class="cls-12" d="M111.491,63.3691l5.768-3.33a1.6978,1.6978,0,0,1,1.491-.139h0c.345.199.2371.585-.241.861l-5.768,3.33a1.6978,1.6978,0,0,1-1.491.139h0C110.905,64.0311,111.0129,63.6451,111.491,63.3691Z"/>
    </g>
    <g class="cls-14">
      <path id="Path-26" data-name="Path" class="cls-3" d="M94.959,14.4341l-1.536.886c-1.912,1.104-1.912,2.897,0,4l5.473,3.161c3.3459,1.931,3.3459,5.068,0,7l-8.839,5.103c-1.434.828-1.478,2.147-.098,2.944h0a5.6413,5.6413,0,0,0,5.098-.057l10.67-6.16a3.83,3.83,0,0,1,3.4639,0l1.5361.887a1.0559,1.0559,0,0,1,0,2l-5.67,3.273c-1.434.828-1.478,2.147-.098,2.943h0a5.6382,5.6382,0,0,0,5.098-.056l10.67-6.16a3.83,3.83,0,0,1,3.4639,0l1.5361.886a1.0559,1.0559,0,0,1,0,2l-15.67,9.047c-1.434.828-1.478,2.147-.098,2.944h0a5.6413,5.6413,0,0,0,5.098-.057l13.17-7.604a3.836,3.836,0,0,1,3.4639,0l4.0361,2.331a1.0559,1.0559,0,0,1,0,2l-8.17,4.716c-1.434.828-1.478,2.147-.098,2.944h0a5.6413,5.6413,0,0,0,5.098-.057l8.17-4.717a3.3953,3.3953,0,0,1,2.9819-.278h0c.69.398.474,1.17-.4819,1.722l-20.67,11.933c-1.434.828-1.478,2.147-.098,2.944h0a5.6413,5.6413,0,0,0,5.098-.057l20.67-11.934a3.7613,3.7613,0,0,1,3.3979-.037h0a7.5211,7.5211,0,0,0,6.798-.076l1.536-.887Z"/>
    </g>
    <g class="cls-13">
      <path id="Path-27" data-name="Path" class="cls-12" d="M58.366,50.2621l.768-.443a1.6978,1.6978,0,0,1,1.491-.139h0c.345.199.2371.585-.241.861l-.768.443a1.6978,1.6978,0,0,1-1.491.139h0C57.78,50.9241,57.8879,50.5381,58.366,50.2621Z"/>
    </g>
    <path id="Path-28" data-name="Path" class="cls-12" d="M81.491,78.4081l.768-.443a1.6945,1.6945,0,0,1,1.491-.139h0c.345.199.2371.585-.241.86l-.768.444a1.6978,1.6978,0,0,1-1.491.139h0C80.905,79.07,81.0129,78.6841,81.491,78.4081Z"/>
    <path id="Path-29" data-name="Path" class="cls-12" d="M62.741,36.9111l.768-.443A1.6945,1.6945,0,0,1,65,36.3291h0c.345.199.2371.584-.241.86l-.768.444a1.6978,1.6978,0,0,1-1.491.139h0C62.155,37.5731,62.2629,37.1871,62.741,36.9111Z"/>
    <path id="Path-30" data-name="Path" class="cls-12" d="M32.741,48.9351l.768-.443A1.6978,1.6978,0,0,1,35,48.3531h0c.345.199.2371.585-.241.861l-.768.443a1.6978,1.6978,0,0,1-1.491.139h0C32.155,49.5971,32.2629,49.2111,32.741,48.9351Z"/>
    <g class="cls-11">
      <path id="Path-31" data-name="Path" class="cls-12" d="M86.491,23.56l.768-.443a1.6983,1.6983,0,0,1,1.491-.14h0c.345.2.2371.585-.241.861l-.768.444a1.6978,1.6978,0,0,1-1.491.139h0C85.905,24.2221,86.0129,23.8361,86.491,23.56Z"/>
    </g>
    <path id="Path-32" data-name="Path" class="cls-12" d="M97.5389,54.3481l29.5181-17.042a1.6978,1.6978,0,0,1,1.491-.139h0c.3449.199.237.585-.241.861L98.7889,55.07a1.6976,1.6976,0,0,1-1.4909.139h0C96.953,55.01,97.061,54.6241,97.5389,54.3481Z"/>
    <g class="cls-13">
      <path id="Path-33" data-name="Path" class="cls-12" d="M75.866,85.8691l29.518-17.042a1.6978,1.6978,0,0,1,1.491-.139h0c.345.199.2371.585-.241.861L77.116,86.5911a1.6978,1.6978,0,0,1-1.491.139h0C75.28,86.5311,75.3879,86.1451,75.866,85.8691Z"/>
    </g>
    <path id="Path-34" data-name="Path" class="cls-12" d="M87.741,84.2981l5.768-3.33A1.6978,1.6978,0,0,1,95,80.8291h0c.345.199.2371.585-.241.861l-5.768,3.33a1.6978,1.6978,0,0,1-1.491.139h0C87.155,84.96,87.2629,84.5741,87.741,84.2981Z"/>
    <g class="cls-11">
      <path id="Path-35" data-name="Path" class="cls-12" d="M67.5389,77.0811l5.7681-3.33a1.6978,1.6978,0,0,1,1.491-.139h0c.3449.199.237.585-.241.861l-5.7681,3.33a1.6976,1.6976,0,0,1-1.4909.139h0C66.953,77.7431,67.061,77.3571,67.5389,77.0811Z"/>
    </g>
    <g id="Group-2" data-name="Group">
      <path id="Mask" class="cls-16" d="M89.067,23.3061h0a4.311,4.311,0,0,0,0,7.13h0a7.7,7.7,0,0,0,9.116,0h0a4.311,4.311,0,0,0,0-7.13h0A7.8536,7.8536,0,0,0,89.067,23.3061Z"/>
      <g class="cls-17">
        <path id="Path-36" data-name="Path" class="cls-18" d="M89.484,22.7991h0c-2.475,1.483-2.517,4.165-.093,5.985h0a7.9208,7.9208,0,0,0,8.75.218h0c2.406-1.699,2.448-4.38.093-5.984h0A8.846,8.846,0,0,0,89.484,22.7991Z"/>
      </g>
      <path id="Mask-2" data-name="Mask" class="cls-16" d="M91.828,24.5541h0a1.31,1.31,0,0,0,0,2.399h0a3.862,3.862,0,0,0,3.786,0h0a1.31,1.31,0,0,0,0-2.399h0A3.862,3.862,0,0,0,91.828,24.5541Z"/>
      <g class="cls-19">
        <path id="Path-37" data-name="Path" class="cls-7" d="M92.066,26.58h0a1.1446,1.1446,0,0,0,0,2.097h0a3.3759,3.3759,0,0,0,3.31,0h0a1.1446,1.1446,0,0,0,0-2.097h0A3.3759,3.3759,0,0,0,92.066,26.58Z"/>
      </g>
      <path id="Path-38" data-name="Path" class="cls-20" d="M92.5439,23.1611q3.969-.681,5.4,2.057A7.6625,7.6625,0,0,0,92.5439,23.1611Z"/>
      <path id="Path-39" data-name="Path" class="cls-20" d="M93.881,28.5631q-2.9342.46-3.96-1.574A5.6519,5.6519,0,0,0,93.881,28.5631Z"/>
    </g>
    <g id="Group-3" data-name="Group">
      <path id="Mask-3" data-name="Mask" class="cls-21" d="M74.317,30.5561h0a4.311,4.311,0,0,0,0,7.13h0a7.7,7.7,0,0,0,9.116,0h0a4.311,4.311,0,0,0,0-7.13h0A7.8536,7.8536,0,0,0,74.317,30.5561Z"/>
      <g class="cls-22">
        <path id="Path-40" data-name="Path" class="cls-23" d="M74.734,30.0491h0c-2.475,1.483-2.517,4.165-.093,5.985h0a7.9208,7.9208,0,0,0,8.75.218h0c2.406-1.699,2.448-4.38.093-5.984h0A8.846,8.846,0,0,0,74.734,30.0491Z"/>
      </g>
      <path id="Mask-4" data-name="Mask" class="cls-21" d="M77.078,31.8041h0a1.31,1.31,0,0,0,0,2.399h0a3.862,3.862,0,0,0,3.786,0h0a1.31,1.31,0,0,0,0-2.399h0A3.862,3.862,0,0,0,77.078,31.8041Z"/>
      <g class="cls-24">
        <path id="Path-41" data-name="Path" class="cls-6" d="M77.368,33.9721h0a1.1941,1.1941,0,0,0,0,2.188h0a3.5223,3.5223,0,0,0,3.456,0h0a1.1946,1.1946,0,0,0,0-2.188h0A3.5223,3.5223,0,0,0,77.368,33.9721Z"/>
      </g>
      <path id="Path-42" data-name="Path" class="cls-25" d="M77.7939,30.4111q3.969-.681,5.4,2.057A7.6625,7.6625,0,0,0,77.7939,30.4111Z"/>
      <path id="Path-43" data-name="Path" class="cls-25" d="M79.131,35.8131q-2.9342.46-3.96-1.574A5.6519,5.6519,0,0,0,79.131,35.8131Z"/>
    </g>
  </g>
</svg>
