<svg id="Layer_1" data-name="Layer 1" xmlns="http://www.w3.org/2000/svg" viewBox="0 0 130.11 93.82">
  <defs>
    <style>
      .top-light {
        fill: #fac7c6;
      }

      .cls-1 {
        fill: #d15752;
      }

      .cls-2 {
        fill: #73302f;
      }

      .cls-3 {
        fill: #fff;
      }

      .cls-4 {
        fill: #bbb;
      }

      .top-dark {
        fill: #c67471;
      }

      .cls-5 {
        fill: #f8fafb;
      }

      .cls-6 {
        fill: #d3d3d3;
      }

      .cls-7 {
        fill: #484848;
      }

      .cls-8 {
        fill: #dd8987;
      }
    </style>
  </defs>
  <title>Artboard 7</title>
  <g id="Group">
    <path id="Path" class="top-light" d="M16.25,65.54,81.33,28.15l48.78,28.28L65,93.82Z"/>
    <path id="Path-2" class="top-light" d="M0,37.53,65.08,75.06,130,37.53,64.92,0Z"/>
    <path id="Path-3" class="cls-1" d="M130,56.3V37.53L65,75.06V93.82Z"/>
    <path id="Path-4" class="cls-2" d="M0,56.55v-19L65,75.06V93.82Z"/>
    <path id="Path-5" class="cls-3" d="M77.92,74.64,117.08,52c.4-.24.73-.05.73.42v3a1.64,1.64,0,0,1-.73,1.27L77.92,79.33a.4529.4529,0,0,1-.73-.42v-3A1.62,1.62,0,0,1,77.92,74.64Z"/>
    <path id="Path-6" class="cls-4" d="M73.13,9.39,122,37.53,65.08,70.37,16.25,42.22Z"/>
    <path id="Path-7" class="cls-2" d="M65,4.69V7l54.92,31.7,2-1.17Z"/>
    <path id="Path-8" class="cls-1" d="M8.13,37.53,65,4.69V7L10.16,38.7Z"/>
    <path id="Path-9" class="top-dark" d="M20.31,32.84,56.88,11.73l12.18,7L32.5,39.88Z"/>
    <path id="Path-10" class="cls-1" d="M56.88,18.77V9.39L20.31,30.49v2.4l6.1,3.47Z"/>
    <path id="Path-11" class="cls-2" d="M56.88,18.77,63,22.29l6.09-3.52-12.18-7Z"/>
    <g id="Group-2">
      <path id="Path-12" class="cls-5" d="M43.11,23.53l5.2,3,13.85-8-5.2-3Z"/>
      <path id="Path-13" class="cls-4" d="M48.31,26.53v5.59l-5.2-3V23.53Z"/>
      <path id="Path-14" class="cls-6" d="M62.16,18.54v5.59l-13.85,8v-5.6Z"/>
      <path id="Path-15" class="cls-7" d="M49.17,27l3.46-2v4l-3.46,2Z"/>
      <path id="Path-16" class="cls-7" d="M53.5,24.53l3.46-2v4l-3.46,2Z"/>
      <path id="Path-17" class="cls-7" d="M57.83,22l3.46-2v4l-3.46,2Z"/>
      <g id="Group-3">
        <ellipse id="Ellipse" class="cls-4" cx="48.18" cy="23.35" rx="1.85" ry="1.07"/>
        <rect id="Rectangle" class="cls-4" x="46.33" y="22.41" width="3.71" height="0.93"/>
        <ellipse id="Ellipse-2" class="cls-3" cx="48.18" cy="22.41" rx="1.85" ry="1.07"/>
      </g>
      <g id="Group-4">
        <ellipse id="Ellipse-3" class="cls-4" cx="52.68" cy="20.83" rx="1.85" ry="1.07"/>
        <rect id="Rectangle-2" class="cls-4" x="50.83" y="19.9" width="3.71" height="0.93"/>
        <ellipse id="Ellipse-4" class="cls-3" cx="52.68" cy="19.89" rx="1.85" ry="1.07"/>
      </g>
      <g id="Group-5">
        <ellipse id="Ellipse-5" class="cls-4" cx="57.18" cy="18.31" rx="1.85" ry="1.07"/>
        <rect id="Rectangle-3" class="cls-4" x="55.33" y="17.38" width="3.71" height="0.93"/>
        <ellipse id="Ellipse-6" class="cls-3" cx="57.18" cy="17.38" rx="1.85" ry="1.07"/>
      </g>
    </g>
    <g id="Group-6">
      <path id="Path-18" class="cls-5" d="M27.67,32.38l5.2,3,13.85-8-5.2-3Z"/>
      <path id="Path-19" class="cls-4" d="M32.87,35.38V41l-5.2-3V32.38Z"/>
      <path id="Path-20" class="cls-6" d="M46.72,27.38V33L32.87,41V35.38Z"/>
      <path id="Path-21" class="cls-7" d="M33.73,35.88l3.47-2v4l-3.47,2Z"/>
      <path id="Path-22" class="cls-7" d="M38.06,33.38l3.46-2v4l-3.46,2Z"/>
      <path id="Path-23" class="cls-7" d="M42.39,30.88l3.46-2v4l-3.46,2Z"/>
      <g id="Group-7">
        <ellipse id="Ellipse-7" class="cls-4" cx="32.74" cy="32.19" rx="1.85" ry="1.07"/>
        <rect id="Rectangle-4" class="cls-4" x="30.89" y="31.26" width="3.71" height="0.93"/>
        <ellipse id="Ellipse-8" class="cls-3" cx="32.74" cy="31.26" rx="1.85" ry="1.07"/>
      </g>
      <g id="Group-8">
        <ellipse id="Ellipse-9" class="cls-4" cx="37.25" cy="29.68" rx="1.85" ry="1.07"/>
        <rect id="Rectangle-5" class="cls-4" x="35.39" y="28.74" width="3.71" height="0.93"/>
        <ellipse id="Ellipse-10" class="cls-3" cx="37.25" cy="28.74" rx="1.85" ry="1.07"/>
      </g>
      <g id="Group-9">
        <ellipse id="Ellipse-11" class="cls-4" cx="41.75" cy="27.16" rx="1.85" ry="1.07"/>
        <rect id="Rectangle-6" class="cls-4" x="39.89" y="26.22" width="3.71" height="0.93"/>
        <ellipse id="Ellipse-12" class="cls-3" cx="41.75" cy="26.22" rx="1.85" ry="1.07"/>
      </g>
    </g>
    <path id="Path-24" class="cls-8" d="M10.16,38.7l10.15-5.86,12.19,7L69.06,18.77l-12.18-7L65,7l54.92,31.7L65.08,70.37Z"/>
  </g>
</svg>
