<svg id="Layer_1" data-name="Layer 1" xmlns="http://www.w3.org/2000/svg" xmlns:xlink="http://www.w3.org/1999/xlink" viewBox="0 0 240 196.299">
  <defs>
    <style>
      .cls-1 {
        fill: #fff;
      }

      .slope-top {
        fill: #fff1d8;
      }

      .slope-R {
        fill: #eed9b3;
      }

      .slope-L {
        fill: #c3af8a;
      }

      .exterior-L-light {
        fill: #8a3a37;
      }

      .exterior-R-light {
        fill: #df5d58;
      }

      .window-L-prim {
        fill: #4d3b24;
      }

      .cls-2 {
        mask: url(#mask);
      }

      .cls-3, .cls-4 {
        fill: #6ca8a0;
      }

      .cls-3 {
        stroke: #528079;
      }

      .cls-3, .cls-8 {
        stroke-linecap: square;
        stroke-miterlimit: 3;
        stroke-width: 6px;
      }

      .cls-5 {
        fill: #528079;
      }

      .window-R-prim {
        fill: #bd9664;
      }

      .cls-6 {
        fill: #2e2e2e;
      }

      .cls-7 {
        mask: url(#mask-2);
      }

      .cls-8, .cls-9 {
        fill: #7bb5ad;
      }

      .cls-8 {
        stroke: #639790;
      }

      .cls-10 {
        fill: #639790;
      }

      .cls-11 {
        fill: #f9f1eb;
      }

      .cls-12 {
        fill: #30599b;
      }

      .cls-13 {
        fill: #497bca;
      }

      .cls-14 {
        fill: #f0e8e2;
      }

      .cls-15 {
        fill: #96eaff;
      }

      .cls-16 {
        fill: #6cd4ee;
      }

      .cls-17 {
        fill: #7ee4fd;
      }

      .cls-18 {
        fill: #46b5d0;
      }

      .cls-19 {
        fill: #ccbfb2;
      }

      .cls-20 {
        fill: #d5c6b5;
      }

      .cls-21 {
        fill: #0f895d;
      }

      .slope-top-dark {
        fill: #f0e1c6;
      }
    </style>
    <mask id="mask" x="39.5" y="109.5836" width="41" height="51.1888" maskUnits="userSpaceOnUse">
      <g id="_mask_MzS5qr0H9bDYpxwLWR5IgyZSW4ORv137" data-name=" mask MzS5qr0H9bDYpxwLWR5IgyZSW4ORv137">
        <path class="cls-1" d="M60,155.385h0c-9.659-5.576-17.5-19.158-17.5-30.311h0c0-11.152,7.841-15.68,17.5-10.103h0c9.659,5.576,17.5,19.158,17.5,30.311h0C77.5,156.434,69.659,160.962,60,155.385Z"/>
      </g>
    </mask>
    <mask id="mask-2" x="159.5" y="109.5836" width="41" height="51.1888" maskUnits="userSpaceOnUse">
      <g id="_mask_hVP3sQGbKg9apEc7sCPuwq0puEorweCS" data-name=" mask hVP3sQGbKg9apEc7sCPuwq0puEorweCS">
        <path class="cls-1" d="M180,155.385h0c9.659-5.576,17.5-19.158,17.5-30.311h0c0-11.152-7.841-15.68-17.5-10.103h0c-9.659,5.576-17.5,19.158-17.5,30.311h0C162.5,156.434,170.341,160.962,180,155.385Z"/>
      </g>
    </mask>
  </defs>
  <title>Artboard 10</title>
  <g id="root">
    <g>
      <path class="slope-top" d="M0,69.282V80.829l120,69.282L240,80.829V69.282L120,0Z"/>
      <path class="slope-R" d="M110,132.791v11.547l10,5.773L240,80.829V69.282L120,138.564Z"/>
      <path class="slope-L" d="M120,150.111,0,80.829V69.282l120,69.282Z"/>
      <path class="exterior-L-light" d="M0,75.056l120,69.282,10-5.774v51.962l-10,5.773L0,127.017Z"/>
      <path class="exterior-R-light" d="M240,75.056,120,144.338v51.961l120-69.282Z"/>
      <g>
        <path class="window-L-prim" d="M93.75,160.937v14.434L110,184.752V170.319Z"/>
        <path d="M110,183.309l-16.25-9.382v1.444L110,184.752Z"/>
        <path d="M110,171.762,93.75,162.38v-1.443L110,170.319Z"/>
        <path d="M93.75,160.937l1.25.721v14.434l-1.25-.721Z"/>
        <path d="M102.5,165.989l1.25.721v14.434l-1.25-.722Z"/>
      </g>
      <g>
        <path class="window-L-prim" d="M15,115.47v14.434l16.25,9.382V124.852Z"/>
        <path d="M31.25,137.843,15,128.461v1.443l16.25,9.382Z"/>
        <path d="M31.25,126.296,15,116.914V115.47l16.25,9.382Z"/>
        <path d="M15,115.47l1.25.722v14.434L15,129.904Z"/>
        <path d="M23.75,120.522l1.25.722v14.434l-1.25-.722Z"/>
      </g>
      <g>
        <g class="cls-2">
          <path class="cls-3" d="M60,155.385h0c-9.659-5.576-17.5-19.158-17.5-30.311h0c0-11.152,7.841-15.68,17.5-10.103h0c9.659,5.576,17.5,19.158,17.5,30.311h0C77.5,156.434,69.659,160.962,60,155.385Z"/>
        </g>
        <path class="cls-4" d="M60,155.385h0c-9.659-5.576-17.5-19.158-17.5-30.311h0c0-11.152,7.841-15.68,17.5-10.103h0c9.659,5.576,17.5,19.158,17.5,30.311h0C77.5,156.434,69.659,160.962,60,155.385Z"/>
        <path class="cls-5" d="M60,140.952h0a11.0589,11.0589,0,0,1-5-8.661h0c0-3.186,2.24-4.48,5-2.886h0a11.0555,11.0555,0,0,1,5,8.66h0C65,141.251,62.76,142.545,60,140.952Z"/>
      </g>
      <g>
        <path class="window-R-prim" d="M146.25,160.937v14.434L130,184.752V170.319Z"/>
        <path class="cls-6" d="M130,183.309l16.25-9.382v1.444L130,184.752Z"/>
        <path class="cls-6" d="M130,171.762l16.25-9.382v-1.443L130,170.319Z"/>
        <path class="cls-6" d="M146.25,160.937l-1.25.721v14.434l1.25-.721Z"/>
        <path class="cls-6" d="M137.5,165.989l-1.25.721v14.434l1.25-.722Z"/>
      </g>
      <g>
        <path class="window-R-prim" d="M225,115.47v14.434l-16.25,9.382V124.852Z"/>
        <path class="cls-6" d="M208.75,137.843,225,128.461v1.443l-16.25,9.382Z"/>
        <path class="cls-6" d="M208.75,126.296,225,116.914V115.47l-16.25,9.382Z"/>
        <path class="cls-6" d="M225,115.47l-1.25.722v14.434l1.25-.722Z"/>
        <path class="cls-6" d="M216.25,120.522l-1.25.722v14.434l1.25-.722Z"/>
      </g>
      <g class="cls-7">
        <path class="cls-8" d="M180,155.385h0c9.659-5.576,17.5-19.158,17.5-30.311h0c0-11.152-7.841-15.68-17.5-10.103h0c-9.659,5.576-17.5,19.158-17.5,30.311h0C162.5,156.434,170.341,160.962,180,155.385Z"/>
      </g>
      <path class="cls-9" d="M180,155.385h0c9.659-5.576,17.5-19.158,17.5-30.311h0c0-11.152-7.841-15.68-17.5-10.103h0c-9.659,5.576-17.5,19.158-17.5,30.311h0C162.5,156.434,170.341,160.962,180,155.385Z"/>
      <path class="cls-10" d="M180,140.952h0a11.0589,11.0589,0,0,0,5-8.661h0c0-3.186-2.24-4.48-5-2.886h0a11.0555,11.0555,0,0,0-5,8.66h0C175,141.251,177.24,142.545,180,140.952Z"/>
      <path d="M180,136.1782a.5.5,0,0,1-.4912-.5947l2.5-12.9912a.5.5,0,0,1,.9824.1894l-2.2934,11.916,6.5522-3.7827a.5.5,0,0,1,.5.8662l-7.5,4.33A.4989.4989,0,0,1,180,136.1782Z"/>
      <path d="M67.5,140.5078a.4974.4974,0,0,1-.2495-.0669l-7.5-4.33a.5.5,0,0,1-.2354-.5532l2.5-10.104a.5.5,0,1,1,.9708.24l-2.41,9.7388,7.1743,4.1416a.5.5,0,0,1-.2505.9331Z"/>
      <path class="cls-11" d="M120,127.017,220,69.282,120,11.547,20,69.282Z"/>
      <path class="exterior-L-light" d="M120,17.321l-5,2.887v5.773l5-2.887,90,51.962,5-2.887Z"/>
      <path class="exterior-R-light" d="M25,72.169l95-54.848v5.773L30,75.056Z"/>
      <path class="slope-L" d="M115,14.434l5-2.887L220,69.282l-5,2.887L120,17.321l-5,2.887Z"/>
      <path class="slope-R" d="M25,72.169l-5-2.887L120,11.547v5.774Z"/>
      <path class="cls-12" d="M90,95.263l5-2.887-7.5-4.33-5,2.887Z"/>
      <path class="cls-12" d="M105,86.603l5-2.887-7.5-4.33-5,2.887Z"/>
      <path class="cls-12" d="M120,77.943l5-2.887-7.5-4.33-5,2.887Z"/>
      <path class="cls-12" d="M135,69.282l5-2.886-7.5-4.33-5,2.886Z"/>
      <path class="cls-12" d="M150,60.622l5-2.887-7.5-4.33-5,2.887Z"/>
      <path class="cls-12" d="M97.5,90.933l5-2.887L95,83.716l-5,2.887Z"/>
      <path class="cls-12" d="M112.5,82.273l5-2.887-7.5-4.33-5,2.887Z"/>
      <path class="cls-12" d="M127.5,73.613l5-2.887-7.5-4.33-5,2.886Z"/>
      <path class="cls-12" d="M142.5,64.952l5-2.886L140,57.735l-5,2.887Z"/>
      <path class="cls-13" d="M85,83.716l2.5,4.33-5,2.887L80,86.603Z"/>
      <path class="cls-13" d="M100,75.056l2.5,4.33-5,2.887L95,77.943Z"/>
      <path class="cls-13" d="M115,66.396l2.5,4.33-5,2.887L110,69.282Z"/>
      <path class="cls-13" d="M130,57.735l2.5,4.331-5,2.886-2.5-4.33Z"/>
      <path class="cls-13" d="M145,49.075l2.5,4.33-5,2.887-2.5-4.33Z"/>
      <path class="cls-13" d="M92.5,79.386l2.5,4.33-5,2.887-2.5-4.33Z"/>
      <path class="cls-13" d="M107.5,70.726l2.5,4.33-5,2.887-2.5-4.33Z"/>
      <path class="cls-13" d="M122.5,62.066l2.5,4.33-5,2.886-2.5-4.33Z"/>
      <path class="cls-13" d="M137.5,53.405l2.5,4.33-5,2.887-2.5-4.33Z"/>
      <path class="exterior-L-light" d="M40,46.188l10,5.774V63.509L75,77.943V49.075L40,28.868Z"/>
      <path class="exterior-R-light" d="M75,77.943V49.075l35-20.207V57.735Z"/>
      <path class="slope-L" d="M40,28.868,75,49.075v5.774L40,34.641Z"/>
      <path class="exterior-L-light" d="M105,60.622l-5-2.887V46.188l5-2.886Z"/>
      <path class="cls-11" d="M80,80.829V69.282l20-11.547,10,5.774Z"/>
      <path class="window-R-prim" d="M100,46.188,80,57.735V69.282l20-11.547Z"/>
      <path class="cls-14" d="M120,115.47l70-40.414L160,57.735,90,98.15Z"/>
      <path class="cls-15" d="M100,98.15l60-34.641,20,11.547-60,34.641Z"/>
      <path class="cls-16" d="M160,63.509v5.773L130,86.603l-20,17.32L100,98.15Z"/>
      <path class="cls-17" d="M145,95.263l-15-8.66-20,17.32,10,5.774Z"/>
      <path class="cls-18" d="M160,63.509v5.773l15,8.661,5-2.887Z"/>
      <path class="cls-15" d="M160,66.396l-5,2.886v2.887l15,8.66,7.5-4.33Z"/>
      <path class="cls-18" d="M155,69.282l17.5,10.104L170,80.829l-15-8.66Z"/>
      <path class="cls-11" d="M45,63.509l5,2.887,5-2.887-5-2.887Z"/>
      <path class="cls-11" d="M115,23.094l5,2.887,5-2.887-5-2.886Z"/>
      <path class="cls-19" d="M50,69.282l-5-2.886V63.509l5,2.887Z"/>
      <path class="cls-19" d="M120,28.868l-5-2.887V23.094l5,2.887Z"/>
      <path class="cls-20" d="M55,63.509v2.887l-5,2.886V66.396Z"/>
      <path class="cls-20" d="M125,23.094v2.887l-5,2.887V25.981Z"/>
      <path class="cls-21" d="M50,62.066l-2.5,1.443L50,64.952l2.5-1.443Z"/>
      <path class="cls-21" d="M120,21.651l-2.5,1.443,2.5,1.444,2.5-1.444Z"/>
      <path class="cls-19" d="M67.5,79.386l-15-8.66V67.839l15,8.66Z"/>
      <path class="cls-19" d="M205,77.943,122.5,30.311V27.424l85,49.075Z"/>
      <path class="cls-19" d="M35,77.943l12.5-7.217V67.839l-15,8.66Z"/>
      <path class="cls-19" d="M105,37.528l12.5-7.217V27.424l-15,8.661Z"/>
      <path class="cls-11" d="M72.5,73.613l-5,2.886-15-8.66,5-2.887Z"/>
      <path class="cls-11" d="M212.5,73.613l-5,2.886-85-49.074,5-2.887Z"/>
      <path class="cls-11" d="M27.5,73.613l5,2.886,15-8.66-5-2.887Z"/>
      <path class="cls-11" d="M97.5,33.198l5,2.887,15-8.66-5-2.887Z"/>
      <path class="cls-19" d="M67.5,79.386l5-2.887V73.613l-5,2.886Z"/>
      <path class="cls-21" d="M57.5,66.396,55,67.839l12.5,7.217L70,73.613Z"/>
      <path class="cls-21" d="M127.5,25.981,125,27.425l82.5,47.631,2.5-1.443Z"/>
      <path class="cls-21" d="M42.5,66.396,45,67.839,32.5,75.056,30,73.613Z"/>
      <path class="cls-21" d="M112.5,25.981l2.5,1.444-12.5,7.216L100,33.198Z"/>
      <path class="slope-top" d="M40,28.868,75,8.661l35,20.207L75,49.075Z"/>
      <path class="slope-R" d="M110,28.868,75,49.075v5.774l35-20.208Z"/>
      <path class="slope-top-dark" d="M50,28.868,75,43.302l25-14.434L75,14.434Z"/>
      <path class="slope-L" d="M75,14.434v5.774L95,31.755l5-2.887Z"/>
      <path class="slope-R" d="M50,28.868,75,14.434v5.774L55,31.755Z"/>
    </g>
  </g>
</svg>
