<svg id="Layer_1" data-name="Layer 1" xmlns="http://www.w3.org/2000/svg" viewBox="0 0 280 161.658">
  <defs>
    <style>
      .top-light {
        fill: #fac7c6;
      }

      .cls-1 {
        fill: #f0e5de;
      }

      .exterior-L-prim {
        fill: #73302f;
      }

      .exterior-R-prim {
        fill: #d15752;
      }

      .cls-2 {
        fill: #5eb77f;
      }

      .cls-3 {
        fill: #68c18a;
      }

      .cls-4 {
        fill: #f0d8ca;
      }

      .cls-5 {
        fill: #c19e8a;
      }

      .cls-6 {
        fill: #8e6f5f;
      }

      .cls-7 {
        fill: #85a8d8;
      }

      .cls-8 {
        fill: #91b0dc;
      }

      .cls-9 {
        fill: #3a53a4;
      }

      .cls-10 {
        fill: #5973b7;
      }

      .cls-11 {
        fill: #7295cd;
      }

      .cls-12 {
        fill: #2f479e;
      }

      .cls-13 {
        fill: #eacab8;
      }

      .cls-14 {
        fill: #e6d7cf;
      }

      .cls-15 {
        fill: #939393;
      }

      .cls-16 {
        fill: #2e2e2e;
      }

      .cls-17 {
        fill: #5e5e5e;
      }

      .cls-18 {
        fill: #3a51a3;
      }

      .cls-19 {
        fill: #8fc2e9;
      }

      .cls-20 {
        fill: #4b62ad;
      }

      .cls-21 {
        fill: #474747;
      }

      .cls-22 {
        fill: #757575;
      }

      .cls-23 {
        fill: #816252;
      }

      .cls-24 {
        fill: #e8bda5;
      }

      .cls-25 {
        fill: #f2d7c9;
      }

      .cls-26 {
        fill: #9f806f;
      }

      .cls-27 {
        fill: #010101;
      }

      .cls-28 {
        fill: #181818;
      }

      .cls-29 {
        fill: #111;
      }
    </style>
  </defs>
  <title>Artboard 13</title>
  <g id="root">
    <g id="Group">
      <path id="Path" class="top-light" d="M0,92.376l120,69.282L280,69.282,160,0Z"/>
      <path id="Path-2" data-name="Path" class="cls-1" d="M160,8.661,265,69.282,120,152.998,15,92.376Z"/>
      <path id="Path-3" data-name="Path" class="exterior-L-prim" d="M160,8.661v8.66l97.5,56.292,7.5-4.331Z"/>
      <path id="Path-4" data-name="Path" class="exterior-R-prim" d="M15,92.376,160,8.661v8.66L22.5,96.707Z"/>
      <path id="Path-5" data-name="Path" class="cls-2" d="M160,23.094l92.5,53.405L120,152.998,27.5,99.593Z"/>
      <path id="Path-6" data-name="Path" class="cls-3" d="M160,23.094l7.5,4.331L35,103.923l-7.5-4.33Z"/>
      <path id="Path-7" data-name="Path" class="cls-3" d="M190,40.415l7.5,4.33L65,121.244l-7.5-4.33Z"/>
      <path id="Path-8" data-name="Path" class="cls-3" d="M220,57.735l7.5,4.331L95,138.564l-7.5-4.33Z"/>
      <path id="Path-9" data-name="Path" class="cls-3" d="M175,31.755l7.5,4.33L50,112.584l-7.5-4.33Z"/>
      <path id="Path-10" data-name="Path" class="cls-3" d="M205,49.075l7.5,4.33L80,129.904l-7.5-4.33Z"/>
      <path id="Path-11" data-name="Path" class="cls-3" d="M235,66.396l7.5,4.33L110,147.225l-7.5-4.33Z"/>
      <path id="Path-12" data-name="Path" class="cls-3" d="M250,75.056l2.5,1.443L120,152.998l-2.5-1.443Z"/>
      <g id="Group-2" data-name="Group">
        <path id="Path-13" data-name="Path" class="cls-4" d="M123.75,100.315,130,96.707l31.25,18.042L155,118.357Z"/>
        <path id="Path-14" data-name="Path" class="cls-5" d="M155,118.357l6.25-3.608v1.443L155,119.801Z"/>
        <path id="Path-15" data-name="Path" class="cls-6" d="M123.75,100.315v1.443L155,119.801v-1.444Z"/>
        <path id="Path-16" data-name="Path" class="cls-7" d="M158.75,113.305,155,115.47,127.5,99.593l3.75-2.165Z"/>
        <path id="Path-17" data-name="Path" class="cls-8" d="M125,96.707l1.25-.722L155,112.584l-1.25.721Z"/>
        <path id="Path-18" data-name="Path" class="cls-9" d="M125,96.707l28.75,16.598v4.331L125,101.037Z"/>
        <path id="Path-19" data-name="Path" class="cls-10" d="M153.75,117.636v-4.331l1.25-.721v2.886l3.75-2.165v1.444Z"/>
      </g>
      <g id="Group-3" data-name="Group">
        <path id="Path-20" data-name="Path" class="cls-4" d="M113.75,106.089,120,102.48l31.25,18.042L145,124.131Z"/>
        <path id="Path-21" data-name="Path" class="cls-5" d="M145,124.131l6.25-3.609v1.444L145,125.574Z"/>
        <path id="Path-22" data-name="Path" class="cls-6" d="M113.75,106.089v1.443L145,125.574v-1.443Z"/>
        <path id="Path-23" data-name="Path" class="cls-7" d="M148.75,119.079,145,121.244l-27.5-15.877,3.75-2.165Z"/>
        <path id="Path-24" data-name="Path" class="cls-8" d="M115,102.48l1.25-.722L145,118.357l-1.25.722Z"/>
        <path id="Path-25" data-name="Path" class="cls-9" d="M115,102.48l28.75,16.599v4.33L115,106.81Z"/>
        <path id="Path-26" data-name="Path" class="cls-10" d="M143.75,123.409v-4.33l1.25-.722v2.887l3.75-2.165v1.443Z"/>
      </g>
      <g id="Group-4" data-name="Group">
        <path id="Path-27" data-name="Path" class="cls-4" d="M103.75,111.862l6.25-3.608,31.25,18.042L135,129.904Z"/>
        <path id="Path-28" data-name="Path" class="cls-5" d="M135,129.904l6.25-3.608v1.443L135,131.348Z"/>
        <path id="Path-29" data-name="Path" class="cls-6" d="M103.75,111.862v1.443L135,131.348v-1.444Z"/>
        <path id="Path-30" data-name="Path" class="cls-7" d="M138.75,124.852,135,127.017,107.5,111.14l3.75-2.165Z"/>
        <path id="Path-31" data-name="Path" class="cls-8" d="M105,108.254l1.25-.722L135,124.131l-1.25.721Z"/>
        <path id="Path-32" data-name="Path" class="cls-9" d="M105,108.254l28.75,16.598v4.331L105,112.584Z"/>
        <path id="Path-33" data-name="Path" class="cls-10" d="M133.75,129.183v-4.331l1.25-.721v2.886l3.75-2.165v1.444Z"/>
      </g>
      <g id="Group-5" data-name="Group">
        <path id="Path-34" data-name="Path" class="cls-4" d="M93.75,117.636l6.25-3.609,31.25,18.042L125,135.678Z"/>
        <path id="Path-35" data-name="Path" class="cls-5" d="M125,135.678l6.25-3.609v1.444L125,137.121Z"/>
        <path id="Path-36" data-name="Path" class="cls-6" d="M93.75,117.636v1.443L125,137.121v-1.443Z"/>
        <path id="Path-37" data-name="Path" class="cls-7" d="M128.75,130.626,125,132.791,97.5,116.914l3.75-2.165Z"/>
        <path id="Path-38" data-name="Path" class="cls-8" d="M95,114.027l1.25-.722L125,129.904l-1.25.722Z"/>
        <path id="Path-39" data-name="Path" class="cls-9" d="M95,114.027l28.75,16.599v4.33L95,118.357Z"/>
        <path id="Path-40" data-name="Path" class="cls-10" d="M123.75,134.956v-4.33l1.25-.722v2.887l3.75-2.165v1.443Z"/>
      </g>
      <g id="Group-6" data-name="Group">
        <path id="Path-41" data-name="Path" class="cls-4" d="M58.75,97.428,65,93.82l31.25,18.042L90,115.47Z"/>
        <path id="Path-42" data-name="Path" class="cls-5" d="M90,115.47l6.25-3.608v1.443L90,116.914Z"/>
        <path id="Path-43" data-name="Path" class="cls-6" d="M58.75,97.428v1.444L90,116.914V115.47Z"/>
        <path id="Path-44" data-name="Path" class="cls-7" d="M93.75,110.419,90,112.584,62.5,96.707l3.75-2.165Z"/>
        <path id="Path-45" data-name="Path" class="cls-8" d="M60,93.82l1.25-.722L90,109.697l-1.25.722Z"/>
        <path id="Path-46" data-name="Path" class="cls-9" d="M60,93.82l28.75,16.599v4.33L60,98.15Z"/>
        <path id="Path-47" data-name="Path" class="cls-10" d="M88.75,114.749v-4.33l1.25-.722v2.887l3.75-2.165v1.443Z"/>
      </g>
      <g id="Group-7" data-name="Group">
        <path id="Path-48" data-name="Path" class="cls-11" d="M136.25,101.758l-1.25.722-10-5.773,1.25-.722Z"/>
        <path id="Path-49" data-name="Path" class="cls-11" d="M155,112.584l-1.25.721-10-5.773,1.25-.722Z"/>
        <path id="Path-50" data-name="Path" class="cls-12" d="M135,102.48v4.33l-10-5.773v-4.33Z"/>
        <path id="Path-51" data-name="Path" class="cls-12" d="M153.75,113.305v4.331l-10-5.774v-4.33Z"/>
      </g>
      <g id="Group-8" data-name="Group">
        <path id="Path-52" data-name="Path" class="cls-11" d="M126.25,107.532l-1.25.722-10-5.774,1.25-.722Z"/>
        <path id="Path-53" data-name="Path" class="cls-11" d="M145,118.357l-1.25.722-10-5.774,1.25-.721Z"/>
        <path id="Path-54" data-name="Path" class="cls-12" d="M125,108.254v4.33l-10-5.774v-4.33Z"/>
        <path id="Path-55" data-name="Path" class="cls-12" d="M143.75,119.079v4.33l-10-5.773v-4.331Z"/>
      </g>
      <g id="Group-9" data-name="Group">
        <path id="Path-56" data-name="Path" class="cls-11" d="M116.25,113.305l-1.25.722-10-5.773,1.25-.722Z"/>
        <path id="Path-57" data-name="Path" class="cls-11" d="M135,124.131l-1.25.721-10-5.773,1.25-.722Z"/>
        <path id="Path-58" data-name="Path" class="cls-12" d="M115,114.027v4.33l-10-5.773v-4.33Z"/>
        <path id="Path-59" data-name="Path" class="cls-12" d="M133.75,124.852v4.331l-10-5.774v-4.33Z"/>
      </g>
      <g id="Group-10" data-name="Group">
        <path id="Path-60" data-name="Path" class="cls-11" d="M106.25,119.079l-1.25.722-10-5.774,1.25-.722Z"/>
        <path id="Path-61" data-name="Path" class="cls-11" d="M125,129.904l-1.25.722-10-5.774,1.25-.721Z"/>
        <path id="Path-62" data-name="Path" class="cls-12" d="M105,119.801v4.33l-10-5.774v-4.33Z"/>
        <path id="Path-63" data-name="Path" class="cls-12" d="M123.75,130.626v4.33l-10-5.773v-4.331Z"/>
      </g>
      <g id="Group-11" data-name="Group">
        <path id="Path-64" data-name="Path" class="cls-11" d="M71.25,98.872,70,99.593,60,93.82l1.25-.722Z"/>
        <path id="Path-65" data-name="Path" class="cls-11" d="M90,109.697l-1.25.722-10-5.774,1.25-.722Z"/>
        <path id="Path-66" data-name="Path" class="cls-12" d="M70,99.593v4.33L60,98.15V93.82Z"/>
        <path id="Path-67" data-name="Path" class="cls-12" d="M88.75,110.419v4.33l-10-5.774v-4.33Z"/>
      </g>
      <g id="Group-12" data-name="Group">
        <path id="Path-68" data-name="Path" class="cls-4" d="M88.75,80.108,95,76.499l31.25,18.043L120,98.15Z"/>
        <path id="Path-69" data-name="Path" class="cls-5" d="M120,98.15l6.25-3.608v1.443L120,99.593Z"/>
        <path id="Path-70" data-name="Path" class="cls-6" d="M88.75,80.108v1.443L120,99.593V98.15Z"/>
        <path id="Path-71" data-name="Path" class="cls-7" d="M123.75,93.098,120,95.263,92.5,79.386l3.75-2.165Z"/>
        <path id="Path-72" data-name="Path" class="cls-7" d="M90,76.499l1.25-.721L120,92.376l-1.25.722Z"/>
        <path id="Path-73" data-name="Path" class="cls-9" d="M90,76.499l28.75,16.599v4.33L90,80.829Z"/>
        <path id="Path-74" data-name="Path" class="cls-10" d="M118.75,97.428v-4.33l1.25-.722v2.887l3.75-2.165v1.444Z"/>
      </g>
      <path id="Path-75" data-name="Path" class="exterior-L-prim" d="M0,72.169V92.376l50,28.868V101.037Z"/>
      <g id="Group-13" data-name="Group">
        <path id="Path-76" data-name="Path" class="cls-6" d="M67.5,92.376,120,122.687v2.887L67.5,95.263Z"/>
        <path id="Path-77" data-name="Path" class="cls-5" d="M120,122.687l27.5-15.877v2.887L120,125.574Z"/>
        <path id="Path-78" data-name="Path" class="cls-13" d="M45,79.386,72.5,63.509l75,43.301L120,122.687Z"/>
        <path id="Path-79" data-name="Path" class="cls-6" d="M67.5,69.282,65,70.726l70,40.414,2.5-1.443Z"/>
        <path id="Path-80" data-name="Path" class="cls-6" d="M62.5,72.169,60,73.613l70,40.414,2.5-1.443Z"/>
        <path id="Path-81" data-name="Path" class="cls-6" d="M57.5,75.056,55,76.499l70,40.415,2.5-1.444Z"/>
        <path id="Path-82" data-name="Path" class="cls-6" d="M52.5,77.943,50,79.386l70,40.415,2.5-1.444Z"/>
        <path id="Path-83" data-name="Path" class="cls-6" d="M72.5,66.396,70,67.839l70,40.415,2.5-1.444Z"/>
        <path id="Path-84" data-name="Path" class="cls-5" d="M67.5,69.282v2.887L65,70.726Z"/>
        <path id="Path-85" data-name="Path" class="cls-5" d="M62.5,72.169v2.887L60,73.613Z"/>
        <path id="Path-86" data-name="Path" class="cls-5" d="M57.5,75.056v2.887L55,76.499Z"/>
        <path id="Path-87" data-name="Path" class="cls-5" d="M52.5,77.943v2.886L50,79.386Z"/>
        <path id="Path-88" data-name="Path" class="cls-5" d="M72.5,66.396v2.886L70,67.839Z"/>
      </g>
      <path id="Path-89" data-name="Path" class="cls-5" d="M120,125.574v20.207l1.25-.721V124.852Z"/>
      <path id="Path-90" data-name="Path" class="cls-5" d="M143.75,111.862v20.207l1.25-.721V111.14Z"/>
      <path id="Path-91" data-name="Path" class="cls-6" d="M118.75,145.06V124.852l1.25.722v20.207Z"/>
      <path id="Path-92" data-name="Path" class="cls-6" d="M142.5,131.348V112.584l1.25-.722v20.207Z"/>
      <path id="Path-93" data-name="Path" class="cls-14" d="M147.5,27.425,145,25.981l15-8.66,2.5,1.443Z"/>
      <path id="Path-94" data-name="Path" class="cls-14" d="M185,34.641l2.5-1.443-15-8.66L170,25.981Z"/>
      <path id="Path-95" data-name="Path" class="cls-14" d="M207.5,47.632l2.5-1.444-15-8.66-2.5,1.444Z"/>
      <path id="Path-96" data-name="Path" class="cls-14" d="M230,60.622l2.5-1.443-15-8.66L215,51.962Z"/>
      <path id="Path-97" data-name="Path" class="cls-14" d="M252.5,73.613l2.5-1.444-15-8.66-2.5,1.443Z"/>
      <path id="Path-98" data-name="Path" class="cls-14" d="M123.75,41.137l-2.5-1.444,15-8.66,2.5,1.443Z"/>
      <path id="Path-99" data-name="Path" class="cls-14" d="M100,54.849l-2.5-1.444,15-8.66,2.5,1.443Z"/>
      <path id="Path-100" data-name="Path" class="cls-14" d="M78.75,67.117l-2.5-1.443,12.5-7.217,2.5,1.444Z"/>
      <path id="Path-101" data-name="Path" class="cls-14" d="M141.25,33.92l-2.5-1.444,15-8.66,2.5,1.443Z"/>
      <path id="Path-102" data-name="Path" class="cls-14" d="M175,31.755l2.5-1.444-15-8.66L160,23.094Z"/>
      <path id="Path-103" data-name="Path" class="cls-14" d="M197.5,44.745l2.5-1.443-15-8.661-2.5,1.444Z"/>
      <path id="Path-104" data-name="Path" class="cls-14" d="M220,57.735l2.5-1.443-15-8.66L205,49.075Z"/>
      <path id="Path-105" data-name="Path" class="cls-14" d="M242.5,70.726l2.5-1.444-15-8.66-2.5,1.444Z"/>
      <path id="Path-106" data-name="Path" class="cls-14" d="M252.5,76.499l2.5-1.443-2.5-1.443L250,75.056Z"/>
      <path id="Path-107" data-name="Path" class="cls-14" d="M117.5,47.632,115,46.188l15-8.66,2.5,1.444Z"/>
      <path id="Path-108" data-name="Path" class="cls-15" d="M172.5,43.302l5-2.887L225,67.839l-5,2.887Z"/>
      <path id="Path-109" data-name="Path" class="cls-14" d="M93.75,61.344l-2.5-1.443,15-8.661,2.5,1.444Z"/>
      <path id="Path-110" data-name="Path" class="cls-14" d="M81.25,68.561l-2.5-1.444,3.75-2.165L85,66.396Z"/>
      <path id="Path-111" data-name="Path" class="cls-15" d="M175,8.661l2.5-1.444,45,25.981L220,34.641Z"/>
      <path id="Path-112" data-name="Path" class="cls-16" d="M220,69.282V34.641L175,8.661V43.302Z"/>
      <path id="Path-113" data-name="Path" class="cls-17" d="M222.5,33.198V67.839L220,69.282V34.641Z"/>
      <path id="Path-114" data-name="Path" class="cls-16" d="M172.5,43.302v1.443L220,72.169V70.726Z"/>
      <path id="Path-115" data-name="Path" class="cls-17" d="M225,67.839v1.443l-5,2.887V70.726Z"/>
      <path id="Path-116" data-name="Path" class="cls-18" d="M176.25,10.826l42.5,24.537V59.901l-42.5-23.094Z"/>
      <g id="Group-14" data-name="Group">
        <path id="Path-117" data-name="Path" class="cls-19" d="M191.25,37.528l12.5,7.217V43.302l-12.5-7.217Z"/>
        <path id="Path-118" data-name="Path" class="cls-19" d="M191.25,34.641l12.5,7.217-1.25-2.165-10-5.773Z"/>
        <path id="Path-119" data-name="Path" class="cls-19" d="M191.25,38.972l5,2.886v1.444l-5-2.887Z"/>
        <path id="Path-120" data-name="Path" class="cls-19" d="M198.75,43.302l5,2.886v1.444l-5-2.887Z"/>
        <path id="Path-121" data-name="Path" class="cls-19" d="M192.5,32.476V31.033l2.5,1.443V33.92Z"/>
        <path id="Path-122" data-name="Path" class="cls-19" d="M200,36.806V35.363l2.5,1.443V38.25Z"/>
        <path id="Path-123" data-name="Path" class="cls-20" d="M190.38,39.691v.38h-.75v-5.25a12.88,12.88,0,0,1,.36-3.22,8.0458,8.0458,0,0,1,1.03-2.48,4.986,4.986,0,0,1,1.63-1.6,4.0308,4.0308,0,0,1,2.11-.57,5.9021,5.9021,0,0,1,2.94.88,11.2994,11.2994,0,0,1,3.01,2.63,18.5207,18.5207,0,0,1,2.43,3.81,22.32,22.32,0,0,1,1.63,4.49,19.689,19.689,0,0,1,.61,4.71v5.26h-.75v-5.25a19.1979,19.1979,0,0,0-.58-4.53,21.6575,21.6575,0,0,0-1.59-4.36,17.737,17.737,0,0,0-2.33-3.66,10.5722,10.5722,0,0,0-2.83-2.46,5.009,5.009,0,0,0-2.55-.77,3.4615,3.4615,0,0,0-1.72.46,4.2693,4.2693,0,0,0-1.38,1.36,7.2869,7.2869,0,0,0-.93,2.25,12.4439,12.4439,0,0,0-.35,3.04c.01,0,.01,0,.01.01Z"/>
        <path id="Path-124" data-name="Path" class="cls-19" d="M196.25,34.641V33.198l2.5,1.443v1.444Z"/>
        <path id="Path-125" data-name="Path" class="cls-19" d="M196.25,31.755V30.311l2.5,1.444v1.443Z"/>
        <path id="Path-126" data-name="Path" class="cls-19" d="M195,31.033l-2.5-1.443,1.25-.722Z"/>
        <path id="Path-127" data-name="Path" class="cls-19" d="M202.5,35.363,200,33.92l1.25-.722Z"/>
        <path id="Path-128" data-name="Path" class="cls-19" d="M198.75,30.311l-2.5-1.443,1.25-2.165Z"/>
      </g>
      <path id="Path-129" data-name="Path" class="cls-21" d="M118.75,143.616l1.25.722v1.443l-1.25-.721Z"/>
      <path id="Path-130" data-name="Path" class="cls-21" d="M142.5,129.904l1.25.722v1.443l-1.25-.721Z"/>
      <path id="Path-131" data-name="Path" class="cls-22" d="M121.25,143.616v1.444l-1.25.721v-1.443Z"/>
      <path id="Path-132" data-name="Path" class="cls-22" d="M145,129.904v1.444l-1.25.721v-1.443Z"/>
      <path id="Path-133" data-name="Path" class="cls-23" d="M117.5,121.244v2.887l2.5,1.443v-2.887Z"/>
      <path id="Path-134" data-name="Path" class="cls-24" d="M145,105.367l-27.5,15.877,2.5,1.443,27.5-15.877Z"/>
      <path id="Path-135" data-name="Path" class="cls-24" d="M72.5,63.509,48.75,77.221l2.5,1.443L75,64.952Z"/>
      <path id="Path-136" data-name="Path" class="cls-21" d="M116.25,121.966l2.5,1.443v1.443l-2.5-1.443Z"/>
      <path id="Path-137" data-name="Path" class="cls-25" d="M75,64.952l-2.5,1.444L95,79.386l2.5-1.443Z"/>
      <path id="Path-138" data-name="Path" class="cls-25" d="M65,70.726l-2.5,1.443L85,85.16l2.5-1.444Z"/>
      <path id="Path-139" data-name="Path" class="cls-25" d="M55,76.499l-2.5,1.444L75,90.933l2.5-1.443Z"/>
      <path id="Path-140" data-name="Path" class="cls-25" d="M92.5,80.829,90,82.273l23.75,13.712,2.5-1.443Z"/>
      <path id="Path-141" data-name="Path" class="cls-25" d="M82.5,86.603,80,88.046l23.75,13.712,2.5-1.443Z"/>
      <path id="Path-142" data-name="Path" class="cls-25" d="M72.5,92.376,70,93.82l23.75,13.712,2.5-1.443Z"/>
      <path id="Path-143" data-name="Path" class="cls-25" d="M121.25,91.655l-2.5,1.443L142.5,106.81l2.5-1.443Z"/>
      <path id="Path-144" data-name="Path" class="cls-25" d="M111.25,97.428l-2.5,1.444,23.75,13.712,2.5-1.444Z"/>
      <path id="Path-145" data-name="Path" class="cls-25" d="M101.25,103.202l-2.5,1.443,23.75,13.712,2.5-1.443Z"/>
      <path id="Path-146" data-name="Path" class="cls-26" d="M95,79.386v2.887L72.5,69.282V66.396Z"/>
      <path id="Path-147" data-name="Path" class="cls-26" d="M113.75,95.985v2.887L90,85.16V82.273Z"/>
      <path id="Path-148" data-name="Path" class="cls-26" d="M103.75,101.758v2.887L80,90.933V88.046Z"/>
      <path id="Path-149" data-name="Path" class="cls-26" d="M93.75,107.532v2.887L70,96.707V93.82Z"/>
      <path id="Path-150" data-name="Path" class="cls-26" d="M85,85.16v2.886L62.5,75.056V72.169Z"/>
      <path id="Path-151" data-name="Path" class="cls-26" d="M75,90.933V93.82L52.5,80.829V77.943Z"/>
      <path id="Path-152" data-name="Path" class="cls-26" d="M118.75,93.098v2.887L140,108.254l2.5-1.444Z"/>
      <path id="Path-153" data-name="Path" class="cls-26" d="M108.75,98.872v2.886L130,114.027l2.5-1.443Z"/>
      <path id="Path-154" data-name="Path" class="cls-26" d="M98.75,104.645v2.887L120,119.801l2.5-1.444Z"/>
      <path id="Path-155" data-name="Path" class="top-light" d="M70,89.49,20,60.622,0,72.169l50,28.868Z"/>
      <path id="Path-156" data-name="Path" class="exterior-R-prim" d="M57.5,116.914l-7.5,4.33V101.037L70,89.49v28.867l-5,2.887Z"/>
      <path id="Path-157" data-name="Path" class="cls-17" d="M67.5,109.697,65,111.14v10.104l2.5-1.443Z"/>
      <path id="Path-158" data-name="Path" class="cls-2" d="M67.5,122.687v-2.886l-1.25-.722-2.5,1.443,1.25.722Z"/>
      <path id="Path-159" data-name="Path" class="exterior-L-prim" d="M66.25,106.089l1.25-.722v14.434l-1.25-.722Z"/>
      <path id="Path-160" data-name="Path" class="cls-27" d="M58.75,110.419v7.217l5,2.886,2.5-1.443v-12.99Z"/>
      <path id="Path-161" data-name="Path" class="cls-28" d="M58.75,113.305l7.5-4.33v-2.886l-7.5,4.33Z"/>
      <path id="Path-162" data-name="Path" class="cls-29" d="M62.5,119.801V111.14l3.75-2.165v10.104l-2.5,1.443Z"/>
      <g id="Group-15" data-name="Group">
        <path id="Path-163" data-name="Path" class="cls-4" d="M173.75,71.447,180,67.839l31.25,18.042L205,89.49Z"/>
        <path id="Path-164" data-name="Path" class="cls-5" d="M205,89.49l6.25-3.609v1.444L205,90.933Z"/>
        <path id="Path-165" data-name="Path" class="cls-6" d="M173.75,71.448v1.443L205,90.933V89.49Z"/>
        <path id="Path-166" data-name="Path" class="cls-7" d="M208.75,84.438,205,86.603,177.5,70.726l3.75-2.165Z"/>
        <path id="Path-167" data-name="Path" class="cls-8" d="M175,67.839l1.25-.722L205,83.716l-1.25.722Z"/>
        <path id="Path-168" data-name="Path" class="cls-9" d="M175,67.839l28.75,16.599v4.33L175,72.169Z"/>
        <path id="Path-169" data-name="Path" class="cls-10" d="M203.75,88.768v-4.33l1.25-.722v2.887l3.75-2.165v1.443Z"/>
      </g>
      <g id="Group-16" data-name="Group">
        <path id="Path-170" data-name="Path" class="cls-4" d="M163.75,77.221,170,73.613l31.25,18.042L195,95.263Z"/>
        <path id="Path-171" data-name="Path" class="cls-5" d="M195,95.263l6.25-3.608v1.443L195,96.707Z"/>
        <path id="Path-172" data-name="Path" class="cls-6" d="M163.75,77.221v1.443L195,96.707V95.263Z"/>
        <path id="Path-173" data-name="Path" class="cls-7" d="M198.75,90.211,195,92.376,167.5,76.499l3.75-2.165Z"/>
        <path id="Path-174" data-name="Path" class="cls-8" d="M165,73.613l1.25-.722L195,89.49l-1.25.721Z"/>
        <path id="Path-175" data-name="Path" class="cls-9" d="M165,73.613l28.75,16.598v4.331L165,77.943Z"/>
        <path id="Path-176" data-name="Path" class="cls-10" d="M193.75,94.542V90.211L195,89.49v2.886l3.75-2.165v1.444Z"/>
      </g>
      <g id="Group-17" data-name="Group">
        <path id="Path-177" data-name="Path" class="cls-4" d="M153.75,82.995,160,79.386l31.25,18.042L185,101.037Z"/>
        <path id="Path-178" data-name="Path" class="cls-5" d="M185,101.037l6.25-3.609v1.444L185,102.48Z"/>
        <path id="Path-179" data-name="Path" class="cls-6" d="M153.75,82.995v1.443L185,102.48v-1.443Z"/>
        <path id="Path-180" data-name="Path" class="cls-7" d="M188.75,95.985,185,98.15,157.5,82.273l3.75-2.165Z"/>
        <path id="Path-181" data-name="Path" class="cls-8" d="M155,79.386l1.25-.722L185,95.263l-1.25.722Z"/>
        <path id="Path-182" data-name="Path" class="cls-9" d="M155,79.386l28.75,16.599v4.33L155,83.716Z"/>
        <path id="Path-183" data-name="Path" class="cls-10" d="M183.75,100.315v-4.33l1.25-.722V98.15l3.75-2.165v1.443Z"/>
      </g>
      <g id="Group-18" data-name="Group">
        <path id="Path-184" data-name="Path" class="cls-4" d="M143.75,88.768,150,85.16l31.25,18.042L175,106.81Z"/>
        <path id="Path-185" data-name="Path" class="cls-5" d="M175,106.81l6.25-3.608v1.443L175,108.254Z"/>
        <path id="Path-186" data-name="Path" class="cls-6" d="M143.75,88.768v1.443L175,108.254V106.81Z"/>
        <path id="Path-187" data-name="Path" class="cls-7" d="M178.75,101.758,175,103.923,147.5,88.046l3.75-2.165Z"/>
        <path id="Path-188" data-name="Path" class="cls-8" d="M145,85.16l1.25-.722L175,101.037l-1.25.721Z"/>
        <path id="Path-189" data-name="Path" class="cls-9" d="M145,85.16l28.75,16.598v4.331L145,89.49Z"/>
        <path id="Path-190" data-name="Path" class="cls-10" d="M173.75,106.089v-4.331l1.25-.721v2.886l3.75-2.165v1.444Z"/>
      </g>
      <g id="Group-19" data-name="Group">
        <path id="Path-191" data-name="Path" class="cls-4" d="M133.75,94.542,140,90.933l31.25,18.042L165,112.584Z"/>
        <path id="Path-192" data-name="Path" class="cls-5" d="M165,112.584l6.25-3.609v1.444L165,114.027Z"/>
        <path id="Path-193" data-name="Path" class="cls-6" d="M133.75,94.542v1.443L165,114.027v-1.443Z"/>
        <path id="Path-194" data-name="Path" class="cls-7" d="M168.75,107.532,165,109.697,137.5,93.82l3.75-2.165Z"/>
        <path id="Path-195" data-name="Path" class="cls-8" d="M135,90.933l1.25-.722L165,106.81l-1.25.722Z"/>
        <path id="Path-196" data-name="Path" class="cls-9" d="M135,90.933l28.75,16.599v4.33L135,95.263Z"/>
        <path id="Path-197" data-name="Path" class="cls-10" d="M163.75,111.862v-4.33l1.25-.722v2.887l3.75-2.165v1.443Z"/>
      </g>
      <g id="Group-20" data-name="Group">
        <path id="Path-198" data-name="Path" class="cls-4" d="M138.75,51.24,145,47.632l31.25,18.042L170,69.282Z"/>
        <path id="Path-199" data-name="Path" class="cls-5" d="M170,69.282l6.25-3.608v1.443L170,70.726Z"/>
        <path id="Path-200" data-name="Path" class="cls-6" d="M138.75,51.24v1.444L170,70.726V69.282Z"/>
        <path id="Path-201" data-name="Path" class="cls-7" d="M173.75,64.231,170,66.396,142.5,50.519l3.75-2.166Z"/>
        <path id="Path-202" data-name="Path" class="cls-8" d="M140,47.632l1.25-.722L170,63.509l-1.25.722Z"/>
        <path id="Path-203" data-name="Path" class="cls-9" d="M140,47.632l28.75,16.599v4.33L140,51.962Z"/>
        <path id="Path-204" data-name="Path" class="cls-10" d="M168.75,68.561v-4.33l1.25-.722v2.887l3.75-2.165v1.443Z"/>
      </g>
      <g id="Group-21" data-name="Group">
        <path id="Path-205" data-name="Path" class="cls-4" d="M128.75,57.014,135,53.405l31.25,18.043L160,75.056Z"/>
        <path id="Path-206" data-name="Path" class="cls-5" d="M160,75.056l6.25-3.608v1.443L160,76.499Z"/>
        <path id="Path-207" data-name="Path" class="cls-6" d="M128.75,57.014v1.443L160,76.499V75.056Z"/>
        <path id="Path-208" data-name="Path" class="cls-7" d="M163.75,70.004,160,72.169,132.5,56.292l3.75-2.165Z"/>
        <path id="Path-209" data-name="Path" class="cls-8" d="M130,53.405l1.25-.721L160,69.282l-1.25.722Z"/>
        <path id="Path-210" data-name="Path" class="cls-9" d="M130,53.405l28.75,16.599v4.33L130,57.735Z"/>
        <path id="Path-211" data-name="Path" class="cls-10" d="M158.75,74.334v-4.33l1.25-.722v2.887l3.75-2.165v1.444Z"/>
      </g>
      <g id="Group-22" data-name="Group">
        <path id="Path-212" data-name="Path" class="cls-4" d="M118.75,62.787,125,59.179l31.25,18.042L150,80.829Z"/>
        <path id="Path-213" data-name="Path" class="cls-5" d="M150,80.829l6.25-3.608v1.443L150,82.273Z"/>
        <path id="Path-214" data-name="Path" class="cls-6" d="M118.75,62.787v1.444L150,82.273V80.829Z"/>
        <path id="Path-215" data-name="Path" class="cls-7" d="M153.75,75.778,150,77.943,122.5,62.066l3.75-2.165Z"/>
        <path id="Path-216" data-name="Path" class="cls-8" d="M120,59.179l1.25-.722L150,75.056l-1.25.722Z"/>
        <path id="Path-217" data-name="Path" class="cls-9" d="M120,59.179l28.75,16.599v4.33L120,63.509Z"/>
        <path id="Path-218" data-name="Path" class="cls-10" d="M148.75,80.108v-4.33l1.25-.722v2.887l3.75-2.165v1.443Z"/>
      </g>
      <g id="Group-23" data-name="Group">
        <path id="Path-219" data-name="Path" class="cls-4" d="M108.75,68.561,115,64.952l31.25,18.043L140,86.603Z"/>
        <path id="Path-220" data-name="Path" class="cls-5" d="M140,86.603l6.25-3.608v1.443L140,88.046Z"/>
        <path id="Path-221" data-name="Path" class="cls-6" d="M108.75,68.561v1.443L140,88.046V86.603Z"/>
        <path id="Path-222" data-name="Path" class="cls-7" d="M143.75,81.551,140,83.716,112.5,67.839l3.75-2.165Z"/>
        <path id="Path-223" data-name="Path" class="cls-8" d="M110,64.952l1.25-.721L140,80.829l-1.25.722Z"/>
        <path id="Path-224" data-name="Path" class="cls-9" d="M110,64.952l28.75,16.599v4.33L110,69.282Z"/>
        <path id="Path-225" data-name="Path" class="cls-10" d="M138.75,85.881v-4.33l1.25-.722v2.887l3.75-2.165v1.444Z"/>
      </g>
      <g id="Group-24" data-name="Group">
        <path id="Path-226" data-name="Path" class="cls-4" d="M98.75,74.334,105,70.726l31.25,18.042L130,92.376Z"/>
        <path id="Path-227" data-name="Path" class="cls-5" d="M130,92.376l6.25-3.608v1.443L130,93.82Z"/>
        <path id="Path-228" data-name="Path" class="cls-6" d="M98.75,74.334v1.444L130,93.82V92.376Z"/>
        <path id="Path-229" data-name="Path" class="cls-7" d="M133.75,87.325,130,89.49,102.5,73.613l3.75-2.165Z"/>
        <path id="Path-230" data-name="Path" class="cls-8" d="M100,70.726l1.25-.722L130,86.603l-1.25.722Z"/>
        <path id="Path-231" data-name="Path" class="cls-9" d="M100,70.726l28.75,16.599v4.33L100,75.056Z"/>
        <path id="Path-232" data-name="Path" class="cls-10" d="M128.75,91.655v-4.33l1.25-.722V89.49l3.75-2.165v1.443Z"/>
      </g>
      <path id="Path-233" data-name="Path" class="cls-11" d="M151.25,52.684l-1.25.721-10-5.773,1.25-.722Z"/>
      <path id="Path-234" data-name="Path" class="cls-11" d="M170,63.509l-1.25.722-10-5.774,1.25-.722Z"/>
      <path id="Path-235" data-name="Path" class="cls-12" d="M150,53.405v4.33l-10-5.773v-4.33Z"/>
      <path id="Path-236" data-name="Path" class="cls-12" d="M168.75,64.231v4.33l-10-5.774v-4.33Z"/>
      <g id="Group-25" data-name="Group">
        <path id="Path-237" data-name="Path" class="cls-11" d="M141.25,58.457l-1.25.722-10-5.774,1.25-.721Z"/>
        <path id="Path-238" data-name="Path" class="cls-11" d="M160,69.282l-1.25.722-10-5.773,1.25-.722Z"/>
        <path id="Path-239" data-name="Path" class="cls-12" d="M140,59.179v4.33l-10-5.774v-4.33Z"/>
        <path id="Path-240" data-name="Path" class="cls-12" d="M158.75,70.004v4.33l-10-5.773v-4.33Z"/>
      </g>
      <g id="Group-26" data-name="Group">
        <path id="Path-241" data-name="Path" class="cls-11" d="M131.25,64.231l-1.25.721-10-5.773,1.25-.722Z"/>
        <path id="Path-242" data-name="Path" class="cls-11" d="M150,75.056l-1.25.722-10-5.774,1.25-.722Z"/>
        <path id="Path-243" data-name="Path" class="cls-12" d="M130,64.952v4.33l-10-5.773v-4.33Z"/>
        <path id="Path-244" data-name="Path" class="cls-12" d="M148.75,75.778v4.33l-10-5.774v-4.33Z"/>
      </g>
      <g id="Group-27" data-name="Group">
        <path id="Path-245" data-name="Path" class="cls-11" d="M121.25,70.004l-1.25.722-10-5.774,1.25-.721Z"/>
        <path id="Path-246" data-name="Path" class="cls-11" d="M140,80.829l-1.25.722-10-5.773,1.25-.722Z"/>
        <path id="Path-247" data-name="Path" class="cls-12" d="M120,70.726v4.33l-10-5.774v-4.33Z"/>
        <path id="Path-248" data-name="Path" class="cls-12" d="M138.75,81.551v4.33l-10-5.773v-4.33Z"/>
      </g>
      <g id="Group-28" data-name="Group">
        <path id="Path-249" data-name="Path" class="cls-11" d="M111.25,75.778l-1.25.721-10-5.773,1.25-.722Z"/>
        <path id="Path-250" data-name="Path" class="cls-11" d="M130,86.603l-1.25.722-10-5.774,1.25-.722Z"/>
        <path id="Path-251" data-name="Path" class="cls-12" d="M110,76.499v4.33l-10-5.773v-4.33Z"/>
        <path id="Path-252" data-name="Path" class="cls-12" d="M128.75,87.325v4.33l-10-5.774v-4.33Z"/>
      </g>
      <g id="Group-29" data-name="Group">
        <path id="Path-253" data-name="Path" class="cls-11" d="M166.25,84.438,165,85.16l-10-5.774,1.25-.722Z"/>
        <path id="Path-254" data-name="Path" class="cls-11" d="M185,95.263l-1.25.722-10-5.774L175,89.49Z"/>
        <path id="Path-255" data-name="Path" class="cls-12" d="M165,85.16v4.33l-10-5.774v-4.33Z"/>
        <path id="Path-256" data-name="Path" class="cls-12" d="M183.75,95.985v4.33l-10-5.773V90.211Z"/>
      </g>
      <g id="Group-30" data-name="Group">
        <path id="Path-257" data-name="Path" class="cls-11" d="M156.25,90.211l-1.25.722L145,85.16l1.25-.722Z"/>
        <path id="Path-258" data-name="Path" class="cls-11" d="M175,101.037l-1.25.721-10-5.773,1.25-.722Z"/>
        <path id="Path-259" data-name="Path" class="cls-12" d="M155,90.933v4.33L145,89.49V85.16Z"/>
        <path id="Path-260" data-name="Path" class="cls-12" d="M173.75,101.758v4.331l-10-5.774v-4.33Z"/>
      </g>
      <g id="Group-31" data-name="Group">
        <path id="Path-261" data-name="Path" class="cls-11" d="M146.25,95.985l-1.25.722-10-5.774,1.25-.722Z"/>
        <path id="Path-262" data-name="Path" class="cls-11" d="M165,106.81l-1.25.722-10-5.774,1.25-.721Z"/>
        <path id="Path-263" data-name="Path" class="cls-12" d="M145,96.707v4.33l-10-5.774v-4.33Z"/>
        <path id="Path-264" data-name="Path" class="cls-12" d="M163.75,107.532v4.33l-10-5.773v-4.331Z"/>
      </g>
      <g id="Group-32" data-name="Group">
        <path id="Path-265" data-name="Path" class="cls-11" d="M176.25,78.664l-1.25.722-10-5.773,1.25-.722Z"/>
        <path id="Path-266" data-name="Path" class="cls-11" d="M195,89.49l-1.25.721-10-5.773,1.25-.722Z"/>
        <path id="Path-267" data-name="Path" class="cls-12" d="M175,79.386v4.33l-10-5.773v-4.33Z"/>
        <path id="Path-268" data-name="Path" class="cls-12" d="M193.75,90.211v4.331l-10-5.774v-4.33Z"/>
      </g>
      <g id="Group-33" data-name="Group">
        <path id="Path-269" data-name="Path" class="cls-11" d="M186.25,72.891l-1.25.722-10-5.774,1.25-.722Z"/>
        <path id="Path-270" data-name="Path" class="cls-11" d="M205,83.716l-1.25.722-10-5.774,1.25-.721Z"/>
        <path id="Path-271" data-name="Path" class="cls-12" d="M185,73.613v4.33l-10-5.774v-4.33Z"/>
        <path id="Path-272" data-name="Path" class="cls-12" d="M203.75,84.438v4.33l-10-5.773V78.664Z"/>
      </g>
    </g>
  </g>
</svg>
