<svg id="root" xmlns="http://www.w3.org/2000/svg" viewBox="0 0 280.1951 254.0341">
  <defs>
    <style>
      .top-light {
        fill: #fac7c6;
      }

      .exterior-R-prim {
        fill: #d15752;
      }

      .exterior-L-prim {
        fill: #73302f;
      }

      .cls-1 {
        fill: #bababa;
      }

      .cls-2 {
        fill: #a2a2a1;
      }

      .cls-3 {
        fill: #f9f9fa;
      }

      .cls-4 {
        fill: #d2d2d2;
      }

      .cls-5 {
        fill: #474747;
      }

      .cls-6 {
        fill: #fff;
      }

      .top-prim {
        fill: #dd8987;
      }

      .cls-7 {
        fill: #b5b6b6;
      }

      .cls-8 {
        fill: #b2e2f5;
      }

      .cls-9 {
        fill: none;
      }

      .cls-10 {
        fill: #5f9eb5;
      }

      .cls-11 {
        fill: #e9e8e8;
      }

      .top-dark {
        fill: #c67471;
      }

      .cls-12 {
        fill: #c7c6c5;
      }

      .cls-13 {
        fill: #4b4b4b;
      }

      .cls-14 {
        fill: #6c6d6d;
      }

      .cls-15 {
        fill: #ea575a;
      }

      .cls-16 {
        fill: #2e2e2e;
      }

      .cls-17 {
        fill: #cc4447;
      }

      .cls-18 {
        fill: #727272;
      }
    </style>
  </defs>
  <title>1Artboard 14</title>
  <g id="root">
    <path id="Path" class="top-light" d="M.1951,92.3761l120,69.282,160-92.376L160.1951,0Z"/>
    <path id="Path-2" data-name="Path" class="exterior-R-prim" d="M280,161.6581l.1951-92.376-160,92.376L115,158.771v92.3761l5,2.887Z"/>
    <path id="Path-3" data-name="Path" class="exterior-L-prim" d="M0,185.3871l.1951-93.011,120,69.282L120,254.0341Z"/>
    <path id="Path-4" data-name="Path" class="cls-1" d="M160,5.7731l110,63.509L120,155.884,10,92.3761Z"/>
    <path id="Path-5" data-name="Path" class="exterior-L-prim" d="M160,5.7731,155.1331,8.66v5.7731L160,11.547,265,72.1681l5-2.886Z"/>
    <path id="Path-6" data-name="Path" class="exterior-R-prim" d="M10,92.3761,160,5.7731V11.547L15,95.2621Z"/>
    <path id="Path-7" data-name="Path" class="cls-2" d="M50,75.0551,140,23.094l30,17.32L80,92.3761Z"/>
    <path id="Path-8" data-name="Path" class="exterior-R-prim" d="M135,43.301V20.207L45,72.1681V78.07l15,8.532Z"/>
    <path id="Path-9" data-name="Path" class="exterior-L-prim" d="M130,51.9611l15,8.66,20-11.547-35-20.207Z"/>
    <g id="Group">
      <path id="Path-10" data-name="Path" class="cls-3" d="M98.0151,57.212l12.7859,7.381,34.094-19.6839L132.11,37.5271Z"/>
      <path id="Path-11" data-name="Path" class="cls-1" d="M110.801,64.593V78.3571l-12.7859-7.382V57.212Z"/>
      <path id="Path-12" data-name="Path" class="cls-4" d="M144.895,44.9091V58.672L110.801,78.3571V64.593Z"/>
      <path id="Path-13" data-name="Path" class="cls-5" d="M112.9321,65.8241l8.523-4.922V70.745l-8.523,4.921Z"/>
      <path id="Path-14" data-name="Path" class="cls-5" d="M123.5859,59.672l8.5242-4.9209V64.593l-8.5242,4.921Z"/>
      <path id="Path-15" data-name="Path" class="cls-5" d="M134.241,53.521,142.7642,48.6V58.442l-8.5232,4.921Z"/>
      <g id="Group-2" data-name="Group">
        <ellipse id="Ellipse" class="cls-1" cx="110.4963" cy="56.7527" rx="4.5662" ry="2.6364"/>
        <rect id="Rectangle" class="cls-1" x="105.9302" y="54.4541" width="9.1321" height="2.298"/>
        <ellipse id="Ellipse-2" data-name="Ellipse" class="cls-6" cx="110.4963" cy="54.4543" rx="4.5662" ry="2.6364"/>
      </g>
      <g id="Group-3" data-name="Group">
        <ellipse id="Ellipse-3" data-name="Ellipse" class="cls-1" cx="121.5771" cy="50.5531" rx="4.5662" ry="2.6364"/>
        <rect id="Rectangle-2" data-name="Rectangle" class="cls-1" x="117.011" y="48.255" width="9.1321" height="2.298"/>
        <ellipse id="Ellipse-4" data-name="Ellipse" class="cls-6" cx="121.5771" cy="48.2546" rx="4.5662" ry="2.6364"/>
      </g>
      <g id="Group-4" data-name="Group">
        <ellipse id="Ellipse-5" data-name="Ellipse" class="cls-1" cx="132.6577" cy="44.3534" rx="4.5662" ry="2.6364"/>
        <rect id="Rectangle-3" data-name="Rectangle" class="cls-1" x="128.092" y="42.0551" width="9.1321" height="2.298"/>
        <ellipse id="Ellipse-6" data-name="Ellipse" class="cls-6" cx="132.6577" cy="42.0551" rx="4.5662" ry="2.6364"/>
      </g>
    </g>
    <g id="Group-5" data-name="Group">
      <path id="Path-16" data-name="Path" class="cls-3" d="M60.015,78.989l12.786,7.3821L106.895,66.686,94.11,59.3051Z"/>
      <path id="Path-17" data-name="Path" class="cls-1" d="M72.801,86.3711V100.134L60.015,92.7521V78.989Z"/>
      <path id="Path-18" data-name="Path" class="cls-4" d="M106.895,66.686V80.45L72.801,100.134V86.3711Z"/>
      <path id="Path-19" data-name="Path" class="cls-5" d="M74.9321,87.6011l8.523-4.921v9.842l-8.523,4.9209Z"/>
      <path id="Path-20" data-name="Path" class="cls-5" d="M85.5859,81.45l8.5242-4.921v9.842L85.5859,91.292Z"/>
      <path id="Path-21" data-name="Path" class="cls-5" d="M96.241,75.2981l8.5232-4.921V80.219L96.241,85.14Z"/>
      <g id="Group-6" data-name="Group">
        <ellipse id="Ellipse-7" data-name="Ellipse" class="cls-1" cx="72.4963" cy="78.5302" rx="4.5662" ry="2.6364"/>
        <rect id="Rectangle-4" data-name="Rectangle" class="cls-1" x="67.9302" y="76.2321" width="9.1321" height="2.298"/>
        <ellipse id="Ellipse-8" data-name="Ellipse" class="cls-6" cx="72.4963" cy="76.2318" rx="4.5662" ry="2.6364"/>
      </g>
      <g id="Group-7" data-name="Group">
        <ellipse id="Ellipse-9" data-name="Ellipse" class="cls-1" cx="83.5771" cy="72.3306" rx="4.5662" ry="2.6364"/>
        <rect id="Rectangle-5" data-name="Rectangle" class="cls-1" x="79.011" y="70.0321" width="9.1321" height="2.298"/>
        <ellipse id="Ellipse-10" data-name="Ellipse" class="cls-6" cx="83.5771" cy="70.0321" rx="4.5662" ry="2.6364"/>
      </g>
      <g id="Group-8" data-name="Group">
        <ellipse id="Ellipse-11" data-name="Ellipse" class="cls-1" cx="94.6577" cy="66.1309" rx="4.5662" ry="2.6364"/>
        <rect id="Rectangle-6" data-name="Rectangle" class="cls-1" x="90.092" y="63.832" width="9.1321" height="2.298"/>
        <ellipse id="Ellipse-12" data-name="Ellipse" class="cls-6" cx="94.6577" cy="63.8325" rx="4.5662" ry="2.6364"/>
      </g>
    </g>
    <path id="Path-22" data-name="Path" class="top-prim" d="M15,95.2621l30-17.32,30,17.32,85-49.074-30-17.321,30-17.32L265.1331,72.1681,120,155.884Z"/>
    <path id="Path-23" data-name="Path" class="cls-2" d="M125.1951,164.5441,275.1331,77.942l2.5,1.443v80.829L127.5,246.817l-2.3669-1.444Z"/>
    <path id="Path-24" data-name="Path" class="cls-7" d="M125.1951,164.5441l2.5,1.4439,150-86.603-2.5-1.443Z"/>
    <polygon class="cls-8" points="127.695 165.988 127.633 246.817 277.5 160.214 277.695 79.385 127.695 165.988"/>
    <polygon class="cls-9" points="277.695 79.385 127.695 165.988 127.633 246.817 277.5 160.214 277.695 79.385"/>
    <path class="cls-9" d="M223.874,133.5131l29.585-17.08c1.011-.5841,1.51-.166,1.114.9319l-7.531,20.878a6.7121,6.7121,0,0,1-2.5488,3.047l-14.6421,8.454a1.7219,1.7219,0,0,1-2.563-.928l-4.5152-12.2609A2.6025,2.6025,0,0,1,223.874,133.5131Z"/>
    <path id="Compound_Path" data-name="Compound Path" class="cls-6" d="M142.2571,194.441v-3.113l-6.5371,3.7741V214.193l6.5371-3.7739V207.306l-2.822,1.63v-4.9389l2.76-1.593V199.333l-2.76,1.593V196.07Zm4.959,10.002V188.4651l-3.7141,2.1439V209.7l6.8481-3.953V202.634Zm10.915-19.167v-3.1129l-6.5361,3.7739v19.0911l6.5361-3.7741v-3.113l-2.822,1.63v-4.939l2.76-1.593v-3.072l-2.76,1.5941V186.905Zm10.148,3.23-3.7151,2.1449v3.009a1.55,1.55,0,0,1-.7879,1.4511c-.436.251-.789.2269-.789-.541v-11.288a1.5487,1.5487,0,0,1,.789-1.452c.4348-.251.7879-.2271.7879.541v2.9669l3.7151-2.1439v-2.988c0-3.0711-1.806-3.0461-4.503-1.4881s-4.5032,3.6161-4.5032,6.687v11.33c0,3.0719,1.8052,3.0459,4.5032,1.4889s4.503-3.6169,4.503-6.688Zm9.3378-17.593-8.6118,4.9719v3.113l2.449-1.4139V193.562l3.7139-2.1439V175.44l2.4489-1.4141Zm10.479,13.041-1.6389-5.5071a6.15,6.15,0,0,0,1.2451-3.707v-5.5609c0-2.947-.623-3.729-3.673-1.968l-5.271,3.0429v19.0911l3.7141-2.1441v-5.582l.9548-.551,1.3281,4.8151Zm-5.6237-12.7521.6848-.396c.706-.407.9131-.2779.9131.49v5.54a1.4245,1.4245,0,0,1-.6641,1.38l-.9338.56Zm6.4538,12.2731,3.7141-2.145V162.239l-3.7141,2.145Zm13.9651-14.953-3.7141,2.1449v3.009a1.5461,1.5461,0,0,1-.7891,1.4511c-.4348.2519-.7878.2269-.7878-.541v-11.288a1.5477,1.5477,0,0,1,.7878-1.4511c.4361-.2519.7891-.227.7891.54v2.968l3.7141-2.145V160.222c0-3.071-1.8052-3.046-4.5032-1.488s-4.5029,3.6161-4.5029,6.688v11.33c0,3.0709,1.8062,3.0449,4.5029,1.4879s4.5032-3.617,4.5032-6.688Zm3.2381,5.3529a4.1353,4.1353,0,0,0,1.9919-3.1219c0-1.079-.8931-1.4561-1.9919-.8211a4.1336,4.1336,0,0,0-1.9932,3.1221C204.136,174.1331,205.0291,174.51,206.1292,173.875ZM196.085,147.198v-.2069a4.43,4.43,0,0,0,1.37-3.344v-2.51c0-2.947-.6231-3.729-3.6111-2.004l-5.271,3.0429v19.0911l5.312-3.067c3.0921-1.7851,3.7151-3.286,3.7151-6.2321v-2.843C197.6,147.797,197.1851,147.123,196.085,147.198Zm-3.1538-4.4249c.7048-.407.9128-.2781.9128.49v3.009a1.5058,1.5058,0,0,1-.9128,1.5439l-.6431.371v-5.043Zm.9538,11.2769a1.5032,1.5032,0,0,1-.9128,1.544l-.6841.395v-5.3529l.6841-.3961c.7058-.407.9128-.278.9128.49Zm13.9661-23.004-3.7151,2.145V148.36a1.5456,1.5456,0,0,1-.7879,1.4509c-.436.2521-.789.2271-.789-.541V134.1011l-3.7141,2.145v15.19c0,3.0711,1.8051,3.0451,4.5031,1.4881s4.503-3.6171,4.503-6.688Zm9.7529-5.631-8.6121,4.9721V133.5l2.4493-1.4139v15.979l3.7138-2.1451V129.942l2.449-1.4139Zm-74.3718,52.298v-.208a4.4288,4.4288,0,0,0,1.37-3.3429V171.651c0-2.9459-.6231-3.7279-3.6111-2.0029l-5.271,3.0429v19.0911l5.313-3.067c3.091-1.785,3.7141-3.286,3.7141-6.233V179.64C144.7471,178.311,144.332,177.6381,143.2322,177.713Zm-3.1541-4.4249c.7058-.4081.9129-.2781.9129.489v3.0089a1.5033,1.5033,0,0,1-.9129,1.5441l-.643.3719v-5.0429Zm.9549,11.277a1.5059,1.5059,0,0,1-.9129,1.5439l-.685.395V181.15l.685-.395c.7049-.407.9129-.2779.9129.49Zm4.9589,1.287,3.7142-2.1451V164.6161l-3.7142,2.145Zm11.33-6.542,3.5281-2.037-2.656-8.6551,2.469-10.328-3.6941,2.1331-2.158,9.027-.166.0959v-7.781l-3.6929,2.1321V182.988l3.6929-2.1319v-5.167l.81-3.1651Zm10.9981-22.328V153.869l-6.5362,3.7741V176.734L168.32,172.96V169.848l-2.8221,1.6291v-4.939l2.76-1.593V161.874l-2.76,1.593v-4.8559Zm3.237,14.441a4.1308,4.1308,0,0,0,1.992-3.1211c0-1.079-.8921-1.4559-1.992-.8209a4.1332,4.1332,0,0,0-1.9922,3.121C169.5649,171.681,170.458,172.0581,171.5571,171.4231Zm5.23-3.019a4.1336,4.1336,0,0,0,1.992-3.121c0-1.079-.8931-1.4561-1.992-.8211a4.1318,4.1318,0,0,0-1.9932,3.121C174.7939,168.6621,175.687,169.0391,176.7871,168.4041Zm5.229-3.0191a4.1308,4.1308,0,0,0,1.992-3.121c0-1.0789-.8921-1.4559-1.992-.821a4.1286,4.1286,0,0,0-1.9919,3.1211C180.0242,165.6431,180.916,166.02,182.0161,165.385Z"/>
    <path id="Compound_Path-2" data-name="Compound Path" class="cls-10" d="M167.3262,207.724l-1.9822,1.144v1.605a.8274.8274,0,0,1-.42.7741c-.232.134-.4209.1209-.4209-.2891v-6.02a.8256.8256,0,0,1,.4209-.774c.2319-.135.42-.1221.42.2879v1.583l1.9822-1.144v-1.594c0-1.6379-.9632-1.6239-2.4021-.7939a4.0554,4.0554,0,0,0-2.4021,3.567v6.0429c0,1.6381.9631,1.6241,2.4021.7941a4.0559,4.0559,0,0,0,2.4021-3.567Zm3.0649-8.377a4.0546,4.0546,0,0,0-2.4011,3.5671v6.02c0,1.6379.9621,1.625,2.4011.7939a4.055,4.055,0,0,0,2.4019-3.567v-6.02C172.793,198.5031,171.83,198.516,170.3911,199.347Zm.4209,1.948v5.9991a.8249.8249,0,0,1-.4209.7739c-.2322.134-.42.1211-.42-.288v-5.999a.8257.8257,0,0,1,.42-.7739C170.624,200.873,170.812,200.8861,170.812,201.295Zm5.0462-5.1049a4.0561,4.0561,0,0,0-2.4012,3.567v6.021c0,1.6379.9632,1.624,2.4012.7939a4.0551,4.0551,0,0,0,2.4018-3.567v-6.021C178.26,195.3461,177.2971,195.36,175.8582,196.19Zm.4209,1.9489v5.9981a.8238.8238,0,0,1-.4209.7739c-.2322.135-.42.1221-.42-.288v-5.998a.8247.8247,0,0,1,.42-.7739C176.0911,197.7161,176.2791,197.73,176.2791,198.139Zm4.6259,3.7591v-8.522l-1.9809,1.1439v10.182l3.6521-2.109v-1.66Zm2.2242,1.5379c3.6748-2.1209,3.8408-5.061,3.8408-8.47,0-3.3981-.166-6.157-3.8408-4.036v1.66c1.7158-.99,1.8708.647,1.8708,3.5129,0,2.8781-.155,4.683-1.8708,5.673ZM139.27,228.7581v-1.66c-1.7148.991-1.87-.635-1.87-3.5129,0-2.8661.1551-4.682,1.87-5.673v-1.66c-3.6741,2.1219-3.84,5.073-3.84,8.47C135.43,228.1311,135.5959,230.88,139.27,228.7581Zm.4431-11.599,1.0179,9.594,3.4091-1.9681,1.0179-10.77-1.8929,1.093-.719,8.8041-.2211.1279-.72-7.974Zm9.4839-3.8161v-1.66l-3.4861,2.0129v10.1811l3.4861-2.0121v-1.66l-1.5049.869V218.44l1.472-.85V215.952l-1.472.85v-2.59Zm5.645,5.2631-.875-2.937a3.2776,3.2776,0,0,0,.6641-1.9771v-2.9659c0-1.572-.332-1.989-1.958-1.05l-2.812,1.6231v10.182l1.9809-1.1431V217.36l.51-.2931.708,2.568Zm-3-6.801.366-.2111c.376-.2169.4871-.1489.4871.2611v2.955a.7608.7608,0,0,1-.355.7359l-.4981.298Zm6.4642-5.381-.7862,4.172-.1111.0639-.7849-3.265-1.893,1.093,1.76,5.547v3.6191l1.948-1.125V212.91l1.759-7.5789Z"/>
    <g id="Group-9" data-name="Group">
      <g id="Group-10" data-name="Group">
        <path id="Path-25" data-name="Path" class="cls-2" d="M163.9451,44.744V59.1781l2.5,1.443V49.0741l5,2.887,2.5-1.443Z"/>
        <path id="Path-26" data-name="Path" class="cls-11" d="M207.6951,31.0321l-10-5.7731-2.5,1.443,10,5.7731Z"/>
        <path id="Path-27" data-name="Path" class="cls-2" d="M195.1951,26.702V41.1361l2.5,1.443V31.0321l5,2.887,2.5-1.444Z"/>
        <path id="Path-28" data-name="Path" class="cls-4" d="M200.1951,41.1361v-8.661l-2.5-1.443v11.547Z"/>
        <path id="Path-29" data-name="Path" class="cls-11" d="M176.4451,49.0741l-10-5.7731-2.5,1.443,10,5.7741Z"/>
        <path id="Path-30" data-name="Path" class="cls-4" d="M168.9451,59.1781v-8.66l-2.5-1.444v11.547Z"/>
        <path id="Path-31" data-name="Path" class="cls-11" d="M202.6951,28.145l-67.5,38.9711-2.5-1.443V62.786l65-37.527Z"/>
        <path id="Path-32" data-name="Path" class="cls-4" d="M197.6951,31.0321V28.145l-28.75,16.599,2.5,1.4441Z"/>
        <path id="Path-33" data-name="Path" class="cls-4" d="M166.4451,49.0741v-2.886l-28.75,16.5979,2.5,1.4441Z"/>
        <path id="Path-34" data-name="Path" class="top-dark" d="M142.6951,130.625l-12.5-7.2169,5-2.8871,12.5,7.217Z"/>
        <path id="Path-35" data-name="Path" class="top-dark" d="M173.9451,112.583l-12.5-7.2169,5-2.8871,12.5,7.217Z"/>
        <path id="Path-36" data-name="Path" class="top-dark" d="M205.1951,94.541l-12.5-7.2169,5-2.8871,12.5,7.2171Z"/>
        <path id="Path-37" data-name="Path" class="cls-12" d="M145.1951,127.738l-2.5,1.444V117.635l2.5-1.444Z"/>
        <path id="Path-38" data-name="Path" class="cls-2" d="M140.1951,127.738l2.5,1.444V116.191l-2.5-1.443Z"/>
        <path id="Path-39" data-name="Path" class="cls-12" d="M176.4451,109.696l-2.5,1.443V99.592l2.5-1.443Z"/>
        <path id="Path-40" data-name="Path" class="cls-2" d="M171.4451,109.696l2.5,1.443V98.149l-2.5-1.4429Z"/>
        <path id="Path-41" data-name="Path" class="cls-12" d="M168.9451,105.3661l-2.5,1.443V95.2621l2.5-1.443Z"/>
        <path id="Path-42" data-name="Path" class="cls-2" d="M163.9451,105.3661l2.5,1.443v-12.99l-2.5-1.443Z"/>
        <path id="Path-43" data-name="Path" class="cls-12" d="M200.1951,87.3241l-2.5,1.443V77.22l2.5-1.443Z"/>
        <path id="Path-44" data-name="Path" class="cls-2" d="M195.1951,87.3241l2.5,1.443v-12.99l-2.5-1.4441Z"/>
        <path id="Path-45" data-name="Path" class="cls-12" d="M207.6951,91.6541l-2.5,1.4429V81.55l2.5-1.4429Z"/>
        <path id="Path-46" data-name="Path" class="cls-2" d="M202.6951,91.6541l2.5,1.4429v-12.99l-2.5-1.444Z"/>
        <path id="Path-47" data-name="Path" class="cls-11" d="M145.1951,67.1161l-10-5.7731-2.5,1.443,10,5.7741Z"/>
        <path id="Path-48" data-name="Path" class="cls-2" d="M132.6951,62.786v60.6221l2.5,1.444V67.1161l5,2.887,2.5-1.443Z"/>
        <path id="Path-49" data-name="Path" class="cls-4" d="M137.6951,123.4081V68.56l-2.5-1.444v57.736Z"/>
        <path id="Path-50" data-name="Path" class="cls-2" d="M142.6951,124.8521l-10-5.7741v-2.887l10,5.7741Z"/>
        <path id="Path-51" data-name="Path" class="cls-11" d="M140.1951,117.635l-2.5-1.444-2.5,1.444,5,2.886Z"/>
        <path id="Path-52" data-name="Path" class="cls-11" d="M140.1951,106.088v-2.887l-2.5,1.443v2.887Z"/>
        <path id="Path-53" data-name="Path" class="cls-11" d="M140.1951,114.748v-2.8869l-2.5,1.444v2.8859Z"/>
        <path id="Path-54" data-name="Path" class="cls-4" d="M140.1951,108.974l-2.5-1.443,2.5-1.443Z"/>
        <path id="Path-55" data-name="Path" class="cls-4" d="M140.1951,117.635l-2.5-1.444,2.5-1.443Z"/>
        <path id="Path-56" data-name="Path" class="cls-2" d="M142.6951,113.3051l-10-5.7741v2.8871l10,5.7729Z"/>
        <path id="Path-57" data-name="Path" class="cls-11" d="M137.6951,107.531l-2.5,1.443,5,2.8871V108.974Z"/>
        <path id="Path-58" data-name="Path" class="cls-2" d="M140.1951,67.1161l2.5,1.444V117.635l-2.5-1.444Z"/>
        <path id="Path-59" data-name="Path" class="cls-7" d="M140.1951,67.1161l2.5,1.444,65-37.528-2.5-1.4431Z"/>
        <path id="Path-60" data-name="Path" class="cls-2" d="M166.4451,46.187l5,2.8871-2.5,1.444-2.5-1.444Z"/>
        <path id="Path-61" data-name="Path" class="cls-2" d="M197.6951,28.145l5,2.8871-2.5,1.443-2.5-1.443Z"/>
        <path id="Path-62" data-name="Path" class="cls-2" d="M140.1951,67.1161l2.5,1.444V117.635l-2.5-1.444Z"/>
        <path id="Path-63" data-name="Path" class="cls-13" d="M143.9451,111.139l-1.25.7221-2.5-1.443v5.7729l2.5,1.444,1.25-.7219Z"/>
        <path id="Path-64" data-name="Path" class="cls-13" d="M143.9451,67.838v4.33l-1.25.7219-2.5-1.443V67.1161l2.5,1.444Z"/>
        <path id="Path-65" data-name="Path" class="cls-4" d="M145.1951,64.23l-2.5,4.33V117.635l65-37.5279V31.0321l-2.5-1.4431Z"/>
        <path id="Path-66" data-name="Path" class="cls-7" d="M140.1951,67.1161l2.5,1.444,65-37.528-2.5-1.4431Z"/>
        <path id="Path-67" data-name="Path" class="cls-14" d="M207.6951,71.447l-65,37.527v8.661l65-37.5279Z"/>
        <path id="Path-68" data-name="Path" class="cls-14" d="M207.6951,31.0321v8.66l-65,37.5281V68.56Z"/>
        <path id="Path-69" data-name="Path" class="cls-15" d="M207.6951,35.3621l-65,37.5279v38.9711l65-37.5281Z"/>
      </g>
      <g id="Group-11" data-name="Group">
        <path id="Path-70" data-name="Path" class="cls-6" d="M184.697,58.702V71.2631c0,.1329.094.1879.21.1209l2.0051-1.1569a.4647.4647,0,0,0,.21-.3641V57.302c0-.1329-.094-.188-.21-.121l-2.0051,1.157A.4645.4645,0,0,0,184.697,58.702Z"/>
        <path id="Path-71" data-name="Path" class="cls-6" d="M190.7581,73.0481v1.94a.4647.4647,0,0,1-.21.3641L159.4531,93.353c-.1159.067-.21.012-.21-.1209v-1.94a.4645.4645,0,0,1,.21-.3639l31.095-18.0011C190.6641,72.86,190.7581,72.915,190.7581,73.0481Z"/>
        <path id="Compound_Shape" data-name="Compound Shape" class="cls-6" d="M164.7241,75.92a1.4739,1.4739,0,0,1,.5789,1.328v2.787a5.1044,5.1044,0,0,1-2.3089,4l-3.541,2.0451c-.1159.067-.21.0129-.21-.121V73.3981a.4615.4615,0,0,1,.21-.3631l3.541-2.045c1.2749-.736,2.3089-.1379,2.3089,1.333v1.4091A4.967,4.967,0,0,1,164.7241,75.92Z"/>
        <path id="Path-72" data-name="Path" class="cls-15" d="M161.877,73.734l.477-.2749c.29-.1671.5252-.0321.5252.303v1.937a1.16,1.16,0,0,1-.5252.9089l-.477.276c-.116.067-.21.012-.21-.1219V74.098A.4645.4645,0,0,1,161.877,73.734Z"/>
        <path id="Path-73" data-name="Path" class="cls-15" d="M161.877,78.62l.477-.276c.29-.167.5252-.0309.5252.3031v3.031a1.1617,1.1617,0,0,1-.5252.9089l-.477.2751c-.116.067-.21.0129-.21-.121V78.983A.4644.4644,0,0,1,161.877,78.62Z"/>
        <path id="Path-74" data-name="Path" class="cls-6" d="M168.73,67.6781l-2.0039,1.158a.4641.4641,0,0,0-.21.363v10.038c0,1.472,1.0339,2.0689,2.3089,1.333l1.4421-.8321a5.1087,5.1087,0,0,0,2.3091-4V65.7c0-.1341-.094-.188-.21-.121l-2.0039,1.157a.4645.4645,0,0,0-.21.364v9.877a1.3706,1.3706,0,0,1-.606,1.078h0c-.3352.1929-.6062.024-.6062-.3781V67.8C168.94,67.666,168.8459,67.6121,168.73,67.6781Z"/>
        <path id="Path-75" data-name="Path" class="cls-6" d="M173.998,64.6371l2.0052-1.157a.2679.2679,0,0,1,.3479.078l2.1479,3.1c.076.11.177.098.2251-.027l2.25-5.8461a.7931.7931,0,0,1,.2969-.3469l2.0041-1.1571c.116-.067.21-.0129.21.1211V71.864a.4645.4645,0,0,1-.21.3631L181.271,73.385c-.116.066-.21.0121-.21-.1219V66.4c0-.134-.039-.141-.0869-.016l-2.1631,5.62c-.0959.2491-.2981.2731-.45.053l-2.01-2.901c-.0769-.11-.138-.09-.138.0431v6.864a.4669.4669,0,0,1-.21.3629l-2.0052,1.157c-.1159.067-.21.0131-.21-.121V65A.4644.4644,0,0,1,173.998,64.6371Z"/>
        <path id="Path-76" data-name="Path" class="cls-6" d="M185.1169,68.365l3.3321-1.924a5.1081,5.1081,0,0,0,2.3091-4V57.6271c0-1.4721-1.035-2.069-2.3091-1.333l-3.542,2.0439a.4645.4645,0,0,0-.21.364v9.42C184.697,68.39,184.886,68.498,185.1169,68.365Z"/>
        <path id="Path-77" data-name="Path" class="cls-15" d="M187.647,58.8561l.1621-.093c.29-.168.5249-.032.5249.3029v4.736a1.1587,1.1587,0,0,1-.5249.9091l-.1621.094c-.29.1669-.5249.031-.5249-.303V59.765A1.162,1.162,0,0,1,187.647,58.8561Z"/>
      </g>
    </g>
    <g>
      <path class="cls-16" d="M259.37,109.623l-.6986,1.8326,4.6835-.1625a.7741.7741,0,0,0,.634-.441l.3727-.9h0l.406-.984a.2729.2729,0,0,0-.2839-.4079l-5.1332.1781A1.0107,1.0107,0,0,1,259.37,109.623Z"/>
      <path class="cls-17" d="M277.5693,131.496l.0172-7.1622L269.4671,145.88a7.3758,7.3758,0,0,1,3.0561-.9823Z"/>
      <path class="cls-18" d="M272.5232,144.8972a3.7693,3.7693,0,0,1,2.0064.3888l3.01-1.7381.0292-12.0519Z"/>
      <path class="cls-15" d="M264.8182,150.1366a14.8269,14.8269,0,0,1,4.46-4.1576c.0333-.0192.0654-.0333.0986-.0519l-18.3225-14.491-2.289,6.004Z"/>
      <path class="cls-17" d="M264.8182,150.1366,248.7652,137.44l2.289-6.004,7.6173-19.9805.6986-1.8326a1.0107,1.0107,0,0,0-.0192-.8848.9343.9343,0,0,0-.95-.3962l-.4541.04v0l-26.21,68.75,0,.0009.4529-.0411a2.6425,2.6425,0,0,0,2.0491-1.5489l2.3-6.0333,4.4614-11.7026.9106-2.3888,2.0474-5.37,2.3745-6.2287,15.8925,12.5691A13.4911,13.4911,0,0,1,264.8182,150.1366Z"/>
      <path class="cls-15" d="M274.53,145.286a3.819,3.819,0,0,1,1.8353,3.5517l1.1641-.6722.0111-4.6176Z"/>
      <path class="cls-17" d="M276.3721,148.9771a11.8649,11.8649,0,0,1-1.8421,5.8187l2.9872-1.7246.0118-4.9057-1.1641.6722C276.3658,148.8854,276.3721,148.9286,276.3721,148.9771Z"/>
      <path class="cls-1" d="M233.7938,158.0563c-9.7842,5.6489-18.0508,18.59-18.0508,28.26,0,2.5777.583,5.9869,3.3623,7.5913.0157.009.0341.0134.05.0223l3.065-1.7712a5.7972,5.7972,0,0,1-1.4408-.5577c-2.542-1.4678-3.0762-4.5347-3.0762-6.8486,0-8.5806,7.05-19.6314,15.7158-24.6338a19.7681,19.7681,0,0,1,3.6548-1.6663l.8743-2.2935A22.6535,22.6535,0,0,0,233.7938,158.0563Z"/>
      <path class="cls-1" d="M245.7323,156.2946A7.1863,7.1863,0,0,0,242.1,155.41c-.0616,0-.1269.0074-.1892.0086l-.9106,2.3888a6.4322,6.4322,0,0,1,3.0569.7945c2.5429,1.4678,3.0761,4.5347,3.0761,6.8486,0,5.0129-2.4162,10.8619-6.1448,15.8623l2.526-1.46c3.4141-5.2388,5.5788-11.0283,5.5788-15.968C249.0936,161.3077,248.5106,157.899,245.7323,156.2946Z"/>
      <path class="cls-16" d="M215.743,186.316c0-9.6694,8.2666-22.6108,18.0508-28.26a22.6535,22.6535,0,0,1,4.1541-1.8978l2.3322-6.1175a24.15,24.15,0,0,0-9.2363,3.2526c-11.6641,6.7339-20.8008,21.2392-20.8008,33.0224,0,4.4535,1.346,8.0907,3.8125,10.56l5.1-2.9468c-.0156-.0089-.034-.0133-.05-.0223C216.326,192.3029,215.743,188.8937,215.743,186.316Z"/>
      <path class="cls-16" d="M241.9112,155.4184c.0623-.0012.1276-.0086.1892-.0086a7.1863,7.1863,0,0,1,3.6319.8848c2.7783,1.6044,3.3613,5.0131,3.3613,7.59,0,4.94-2.1647,10.7292-5.5788,15.968l8.8522-5.1155a30.6,30.6,0,0,0,2.2266-10.8525c0-5.6909-2.1709-10.0776-6.1113-12.3535a12.0057,12.0057,0,0,0-4.5237-1.4831Z"/>
      <path class="cls-1" d="M232.19,177.092l-.4529.0411,0-.0009-.34.03a.8724.8724,0,0,1-.969-1.281l2.3671-6.2087c-.125.0633-.25.1252-.3771.1987-2.8869,1.666-5.23,5.3629-5.23,8.25s2.3431,3.8769,5.23,2.21,5.23-5.3631,5.23-8.25a2.977,2.977,0,0,0-1.11-2.5713l-2.3,6.0333A2.6425,2.6425,0,0,1,232.19,177.092Z"/>
      <path class="cls-17" d="M252.9894,116.7043l-3.3915,1.9579L242.6492,137.93a6.7138,6.7138,0,0,1-2.5491,3.047l-12.9464,7.474.1344.3649a1.7219,1.7219,0,0,0,2.563.928l13.5177-7.8048Z"/>
      <path class="cls-15" d="M242.6492,137.93l6.9487-19.2679L223.874,133.5131a2.6025,2.6025,0,0,0-1.1011,3.042l4.3808,11.896,12.9464-7.474A6.7138,6.7138,0,0,0,242.6492,137.93Z"/>
      <path class="cls-15" d="M231.3979,177.1621l.34-.03,26.21-68.75-.3378.03a2.6471,2.6471,0,0,0-2.0491,1.549l-2.5706,6.7432-9.6206,25.2349L240.28,150.041l-2.3322,6.1175-.8743,2.2935-4.2776,11.22-2.3671,6.2087A.8724.8724,0,0,0,231.3979,177.1621Z"/>
      <path class="cls-1" d="M276.3721,148.9771c0-.0485-.0063-.0917-.0072-.1394a3.819,3.819,0,0,0-1.8353-3.5517,3.7693,3.7693,0,0,0-2.0064-.3888,7.3758,7.3758,0,0,0-3.0561.9823c-.03.0166-.06.03-.09.0476-.0332.0186-.0653.0327-.0986.0519a14.8269,14.8269,0,0,0-4.46,4.1576,13.4911,13.4911,0,0,0-2.5926,6.2521c-.0265.2639-.0415.5247-.0415.78,0,3.915,3.1789,5.2579,7.094,2.9979a15.3171,15.3171,0,0,0,5.2519-5.3712A11.8649,11.8649,0,0,0,276.3721,148.9771Z"/>
      <path class="cls-16" d="M276.7971,110.3981c0,.6786.3324,1.0939.82,1.16l.009-3.75a4.2017,4.2017,0,0,0-.8293,2.2864Z"/>
    </g>
  </g>
</svg>
