<svg id="root" xmlns="http://www.w3.org/2000/svg" xmlns:xlink="http://www.w3.org/1999/xlink" viewBox="0 0 280 207.85">
  <defs>
    <style>
      .window-R-prim {
        fill: #bc9563;
      }

      .top-light {
        fill: #f9c7c6;
      }

      .exterior-R-prim {
        fill: #d15752;
      }

      .exterior-L-prim {
        fill: #74302f;
      }

      .cls-1 {
        fill: #b9b8b9;
      }

      .top-dark {
        fill: #c67471;
      }

      .cls-2 {
        fill: #f7f8f9;
      }

      .cls-3 {
        fill: #d1d1d1;
      }

      .cls-4 {
        fill: #464646;
      }

      .cls-5 {
        fill: #fff;
      }

      .top-prim {
        fill: #dd8986;
      }

      .cls-6 {
        fill: #a2a2a2;
      }

      .cls-7 {
        fill: #e8e8e8;
      }

      .cls-8 {
        fill: #4a4a4a;
      }

      .cls-9 {
        fill: #b5b5b5;
      }

      .cls-10 {
        fill: #6c6c6c;
      }

      .cls-11 {
        fill: #87d579;
      }

      .cls-12 {
        clip-path: url(#clip-path);
      }

      .cls-13 {
        fill: #212121;
      }

      .exterior-R-dark {
        fill: #a64c49;
      }

      .cls-14 {
        fill: #ee7d97;
      }

      .cls-15 {
        fill: #c15a72;
      }
    </style>
    <clipPath id="clip-path">
      <polygon class="window-R-prim" points="252.885 25.81 125.778 99.195 125.778 146.925 252.885 73.54 252.885 25.81"/>
    </clipPath>
  </defs>
  <title>1Artboard 17</title>
  <g id="root-2" data-name="root">
    <path id="Path" class="top-light" d="M0,92.38l120,69.28L280,69.29,160,0Z"/>
    <path id="Path-2" class="exterior-R-prim" d="M280,115.47V69.29L120,161.66v46.19Z"/>
    <path id="Path-3" class="exterior-L-prim" d="M0,139.2V92.38l120,69.28v46.19Z"/>
    <path id="Path-5" class="cls-1" d="M160,11.55,260,69.29,120,150.11,20,92.38Z"/>
    <path id="Path-6" class="exterior-L-prim" d="M160,11.55v5.77l95,54.85,5-2.88Z"/>
    <path id="Path-7" class="exterior-R-prim" d="M20,92.38,160,11.55v5.77L25,95.27Z"/>
    <path id="Path-8" class="top-dark" d="M50,80.83l90-52,30,17.32-90,52Z"/>
    <path id="Path-9" class="exterior-R-prim" d="M140,46.19V23.1l-90,52V81l15,8.53Z"/>
    <path id="Path-10" class="exterior-L-prim" d="M140,46.19l15,8.66,15-8.66L140,28.87Z"/>
    <g id="Group-2">
      <path id="Path-11" class="cls-2" d="M106.12,57.92l12.79,7.38L153,45.62l-12.79-7.38Z"/>
      <path id="Path-12" class="cls-1" d="M118.91,65.3V79.07l-12.79-7.38V57.92Z"/>
      <path id="Path-13" class="cls-3" d="M153,45.62V59.38L118.91,79.07V65.3Z"/>
      <path id="Path-14" class="cls-4" d="M121,66.54l8.52-4.93v9.85L121,76.38Z"/>
      <path id="Path-15" class="cls-4" d="M131.69,60.38l8.52-4.92V65.3l-8.52,4.93Z"/>
      <path id="Path-16" class="cls-4" d="M142.35,54.23l8.52-4.92v9.84l-8.52,4.92Z"/>
      <g id="Group-3">
        <ellipse id="Ellipse" class="cls-1" cx="118.6" cy="57.46" rx="4.57" ry="2.64"/>
        <rect id="Rectangle" class="cls-1" x="114.04" y="55.16" width="9.13" height="2.3"/>
        <ellipse id="Ellipse-2" class="cls-5" cx="118.6" cy="55.16" rx="4.57" ry="2.64"/>
      </g>
      <g id="Group-4">
        <ellipse id="Ellipse-3" class="cls-1" cx="129.68" cy="51.26" rx="4.57" ry="2.64"/>
        <rect id="Rectangle-2" class="cls-1" x="125.12" y="48.96" width="9.13" height="2.3"/>
        <ellipse id="Ellipse-4" class="cls-5" cx="129.68" cy="48.96" rx="4.57" ry="2.64"/>
      </g>
      <g id="Group-5">
        <ellipse id="Ellipse-5" class="cls-1" cx="140.76" cy="45.06" rx="4.57" ry="2.64"/>
        <rect id="Rectangle-3" class="cls-1" x="136.2" y="42.76" width="9.13" height="2.3"/>
        <ellipse id="Ellipse-6" class="cls-5" cx="140.76" cy="42.76" rx="4.57" ry="2.64"/>
      </g>
    </g>
    <g id="Group-6">
      <path id="Path-17" class="cls-2" d="M68.12,79.7l12.79,7.38L115,67.4,102.21,60Z"/>
      <path id="Path-18" class="cls-1" d="M80.91,87.08v13.77L68.12,93.46V79.7Z"/>
      <path id="Path-19" class="cls-3" d="M115,67.4V81.16L80.91,100.85V87.08Z"/>
      <path id="Path-20" class="cls-4" d="M83,88.31l8.52-4.92v9.84L83,98.15Z"/>
      <path id="Path-21" class="cls-4" d="M93.69,82.16l8.52-4.92v9.84L93.69,92Z"/>
      <path id="Path-22" class="cls-4" d="M104.35,76l8.52-4.92v9.84l-8.52,4.92Z"/>
      <g id="Group-7">
        <ellipse id="Ellipse-7" class="cls-1" cx="80.6" cy="79.24" rx="4.57" ry="2.64"/>
        <rect id="Rectangle-4" class="cls-1" x="76.04" y="76.94" width="9.13" height="2.3"/>
        <ellipse id="Ellipse-8" class="cls-5" cx="80.6" cy="76.94" rx="4.57" ry="2.64"/>
      </g>
      <g id="Group-8">
        <ellipse id="Ellipse-9" class="cls-1" cx="91.68" cy="73.04" rx="4.57" ry="2.64"/>
        <rect id="Rectangle-5" class="cls-1" x="87.12" y="70.74" width="9.13" height="2.3"/>
        <ellipse id="Ellipse-10" class="cls-5" cx="91.68" cy="70.74" rx="4.57" ry="2.64"/>
      </g>
      <g id="Group-9">
        <ellipse id="Ellipse-11" class="cls-1" cx="102.76" cy="66.84" rx="4.57" ry="2.64"/>
        <rect id="Rectangle-6" class="cls-1" x="98.2" y="64.54" width="9.13" height="2.3"/>
        <ellipse id="Ellipse-12" class="cls-5" cx="102.76" cy="64.54" rx="4.57" ry="2.64"/>
      </g>
    </g>
    <path id="Path-23" class="top-prim" d="M25,95.27,50,80.83,80,98.15l90-52L140,28.87l20-11.55,95,54.85L120,150.11Z"/>
    <path class="cls-6" d="M233.9138,12.6664V34.573l3.7942,2.19V19.2382l7.5885,4.3815,3.7943-2.1917Z"/>
    <path class="cls-6" d="M173.2059,47.7161V69.6227L177,71.8126V54.2879l7.5885,4.3815,3.7942-2.1917Z"/>
    <path class="cls-3" d="M180.7944,69.6227V56.4777L177,54.2879V71.8126Z"/>
    <path class="cls-7" d="M245.2965,14.8566,114.395,90.4333l-3.7942-2.1917V83.86L237.708,10.4747Z"/>
    <path class="cls-3" d="M237.708,19.2382V14.8566l-56.9136,32.86,3.7942,2.19Z"/>
    <path class="cls-3" d="M177,54.2879V49.9064L118.1893,83.86l3.7942,2.1917Z"/>
    <path class="cls-7" d="M129.572,90.4333,114.395,81.67l-3.7942,2.19,15.177,8.7635Z"/>
    <path class="cls-6" d="M110.6008,83.86v60.8146l3.7942,2.19V90.4333l7.5885,4.38,3.7943-2.19Z"/>
    <path class="cls-3" d="M118.1893,149.055V92.6235l-3.7943-2.19v56.4315Z"/>
    <path class="cls-6" d="M177,49.9064l7.5885,4.3815-3.7942,2.19L177,54.2879Z"/>
    <path class="cls-7" d="M252.885,19.2382l-15.177-8.7635-3.7942,2.1917,15.177,8.7616Z"/>
    <path class="cls-3" d="M241.5023,34.573V21.428l-3.7943-2.19V36.7628Z"/>
    <path class="cls-6" d="M237.708,14.8566l7.5885,4.3816-3.7942,2.19-3.7943-2.19Z"/>
    <g>
      <path class="cls-3" d="M252.885,19.2382l-3.7942-2.19L121.9835,90.4333l3.7943,2.19v54.7646"/>
      <g>
        <path class="cls-6" d="M122.1565,90.6367l3.6213,1.9868v54.2413l-3.7943,2.1913Z"/>
        <path class="cls-8" d="M129.572,90.4333V97.005l-3.7942,2.19-3.7943-2.19V90.4333l3.7943,2.19Z"/>
        <path class="cls-9" d="M121.9835,90.4333l3.7943,2.19L252.885,19.2382l-3.7942-2.19Z"/>
        <path class="cls-10" d="M252.885,19.2382V34.573L125.7778,107.9583V92.6235Z"/>
        <path class="cls-11" d="M252.885,25.81,125.7778,99.1949"/>
        <g>
          <polygon class="window-R-prim" points="252.885 25.81 125.778 99.195 125.778 146.925 252.885 73.54 252.885 25.81"/>
          <g class="cls-12">
            <g>
              <path class="cls-5" d="M142.2114,129.5218c0-14.7324,11.4784-33.32,25.6157-41.4818s25.6157-2.829,25.6157,11.9033-11.4783,33.3209-25.6157,41.4833S142.2114,144.2538,142.2114,129.5218Z"/>
              <path class="cls-5" d="M237.6959,74.3944c0-14.7323-11.4784-20.0658-25.6158-11.9033s-25.6157,26.7494-25.6157,41.4818S197.9413,124.04,212.08,115.8777,237.6959,89.1264,237.6959,74.3944Z"/>
              <g>
                <path class="cls-13" d="M158.58,120.071c0-8.0591,6.28-18.2276,14.0144-22.6928s14.0129-1.5481,14.0129,6.5124-6.2787,18.2276-14.0129,22.6929S158.58,128.1316,158.58,120.071Z"/>
                <g>
                  <path class="cls-5" d="M175.2806,113.5037l2.6-6.5214L175.191,103.34c-.1988-.27-.4629-.2368-.5874.0756l-2.8244,7.0894,2.3251,3.1506C174.5049,114.1973,175.0317,114.1306,175.2806,113.5037Z"/>
                  <path class="cls-5" d="M170.1537,112.0742l4.676-.2794,5.482-6.0037c.2276-.249.1381-.4343-.1973-.4146l-5.2847.3171-5.0721,5.5521C169.3038,111.7433,169.4814,112.1135,170.1537,112.0742Z"/>
                </g>
              </g>
              <g>
                <path class="cls-13" d="M221.326,83.8448c0-8.0586-6.2788-10.9773-14.013-6.5124S193.3,91.9662,193.3,100.0267s6.2786,10.9774,14.0128,6.5125S221.326,91.9054,221.326,83.8448Z"/>
                <g>
                  <path class="cls-5" d="M204.352,96.1928l-2.3251-3.1521,2.8244-7.0875c.1245-.3128.3886-.3476.5889-.076l2.6878,3.6409L205.53,96.0413C205.2794,96.6664,204.7527,96.7349,204.352,96.1928Z"/>
                  <path class="cls-5" d="M210.1482,88.7774l-5.0707,5.5535-5.2846.3157c-.337.02-.425-.1656-.1973-.4146l5.4819-6.0023,4.676-.2794C210.4259,87.9092,210.6035,88.2812,210.1482,88.7774Z"/>
                </g>
              </g>
            </g>
          </g>
        </g>
      </g>
    </g>
    <path class="cls-7" d="M192.1771,54.2879,177,45.5244l-3.7942,2.1917,15.1769,8.7616Z"/>
    <path class="exterior-R-dark" d="M228.2224,99.1949h0c0,7.2546,4.2511,10.6891,9.4856,7.6674h0c5.236-3.0232,9.4857-11.3661,9.4857-18.6207h0Z"/>
    <path class="exterior-R-dark" d="M137.1605,151.77h0c0,7.2547,4.251,10.6906,9.4856,7.6675h0c5.236-3.0232,9.4857-11.3661,9.4857-18.6208h0Z"/>
    <path class="exterior-L-prim" d="M191.6094,126.5772h0c7.329-4.2311,13.28.1867,13.28,9.8576h0c0,9.6724-5.9509,20.961-13.28,25.1921h0c-7.3289,4.233-13.28-.1849-13.28-9.8573h0C178.33,142.0973,184.2805,130.8087,191.6094,126.5772Z"/>
    <g>
      <path d="M191.6094,126.5771c-7.3289,4.2316-13.28,15.52-13.28,25.1926a18.9852,18.9852,0,0,0,.4592,4.2355,26.5982,26.5982,0,0,1,4.7031-2.9506,22.0688,22.0688,0,0,1,12.4393-2.0766,32.9206,32.9206,0,0,0,4.7829-16.2217c0-4.5236-1.3125-7.8776-3.4477-9.755A10.3963,10.3963,0,0,0,191.6094,126.5771Z"/>
      <path class="cls-14" d="M183.4919,153.0546a7.8285,7.8285,0,0,1,5.152,2.1754c-3.8824-.7912-7.1512-.4791-9.828.8981a10.0916,10.0916,0,0,0,3.0061,5.4356,10.43,10.43,0,0,0,5.6138-1.5787,25.1873,25.1873,0,0,0,8.5154-9.0047l-.02-.0023A22.0688,22.0688,0,0,0,183.4919,153.0546Z"/>
      <path class="cls-15" d="M188.6439,155.23a7.8285,7.8285,0,0,0-5.152-2.1754,26.5982,26.5982,0,0,0-4.7031,2.9506c.0093.0406.0176.0825.0271.1229C181.4927,154.7509,184.7615,154.4388,188.6439,155.23Z"/>
    </g>
  </g>
</svg>
