<svg id="Layer_1" data-name="Layer 1" xmlns="http://www.w3.org/2000/svg" viewBox="0 0 280.272 207.8461">
  <defs>
    <style>
      .cls-1 {
        fill: #e8e8e8;
      }

      .cls-2 {
        fill: none;
      }

      .top-light {
        fill: #ffc8c6;
      }

      .exterior-R-prim {
        fill: #d15752;
      }

      .exterior-L-prim {
        fill: #74302f;
      }

      .cls-3 {
        fill: #fff;
      }

      .cls-4 {
        fill: #b9b9b9;
      }

      .top-dark {
        fill: #c67471;
      }

      .cls-5 {
        fill: #f9f9f9;
      }

      .cls-6 {
        fill: #d1d1d1;
      }

      .cls-7 {
        fill: #464646;
      }

      .top-prim {
        fill: #dd8986;
      }

      .cls-8 {
        fill: #6c6c6c;
      }

      .cls-9 {
        fill: #a2a2a2;
      }

      .cls-10 {
        fill: #acacac;
      }

      .cls-11 {
        fill: #c6c6c6;
      }

      .cls-12 {
        fill: #4a4a4a;
      }

      .cls-13 {
        fill: #b5b5b5;
      }

      .cls-14 {
        fill: #e27c39;
      }

      .cls-15 {
        fill: #f1b342;
      }

      .cls-16 {
        fill: #4092ca;
      }

      .cls-17 {
        fill: #8e8e8e;
      }

      .cls-18 {
        fill: #d0d0d0;
      }
    </style>
  </defs>
  <title>Artboard 12</title>
  <g>
    <g id="Group">
      <path id="Path" class="cls-1" d="M0,138.22,160.1981,46.1881,280.272,115.814,120.074,207.8461Z"/>
      <line id="Path-2" data-name="Path" class="cls-2" x1="120.1981" y1="207.8461" x2="280.1981" y2="115.4701"/>
      <line id="Path-3" data-name="Path" class="cls-2" x1="120.1981" y1="207.8461" x2="0.1981" y2="138.5641"/>
      <path id="Path-4" data-name="Path" class="top-light" d="M.1981,92.3761v11.547l120,69.282,160-92.376V69.2821L160.1981,0Z"/>
      <path id="Path-5" data-name="Path" class="exterior-R-prim" d="M120.1981,207.8461l160-92.376V69.2821l-160,92.376-10-5.7735v46.188Z"/>
      <path id="Path-6" data-name="Path" class="exterior-L-prim" d="M.1981,139.1991V92.3761l120,69.282v46.188Z"/>
      <path id="Path-7" data-name="Path" class="cls-3" d="M151.9972,160.6194l96.4018-55.6576c.993-.5733,1.7991-.1078,1.7991,1.0387v7.3922a3.9789,3.9789,0,0,1-1.7991,3.1161l-96.4018,55.6576c-.9929.5733-1.7991.1079-1.7991-1.0387v-7.3921A3.9792,3.9792,0,0,1,151.9972,160.6194Z"/>
      <path id="Path-8" data-name="Path" class="cls-4" d="M160.1981,11.547l100,57.7351-140,80.829-100-57.735Z"/>
      <path id="Path-9" data-name="Path" class="exterior-L-prim" d="M160.1981,11.547v5.7735l95,54.8483,5-2.8867Z"/>
      <path id="Path-10" data-name="Path" class="exterior-R-prim" d="M20.1981,92.3761l140-80.8291v5.7735l-135,77.9423Z"/>
      <path id="Path-11" data-name="Path" class="top-dark" d="M50.1981,80.8291l90-51.9615,30,17.3205-90,51.9615Z"/>
      <path id="Path-12" data-name="Path" class="exterior-R-prim" d="M140.1981,46.1881V23.0941l-90,51.9615v5.9017l15,8.532Z"/>
      <path id="Path-13" data-name="Path" class="exterior-L-prim" d="M140.1981,46.1881l15,8.66,15-8.66-30-17.32Z"/>
      <g id="Group-2" data-name="Group">
        <path id="Path-14" data-name="Path" class="cls-5" d="M106.3184,57.92l12.7854,7.3816,34.0943-19.6844-12.7854-7.3816Z"/>
        <path id="Path-15" data-name="Path" class="cls-4" d="M119.1038,65.3015V79.0648l-12.7854-7.3817V57.92Z"/>
        <path id="Path-16" data-name="Path" class="cls-6" d="M153.1981,45.6171V59.38L119.1038,79.0648V65.3015Z"/>
        <path id="Path-17" data-name="Path" class="cls-7" d="M121.2346,66.5318l8.5236-4.9211v9.8422l-8.5236,4.9211Z"/>
        <path id="Path-18" data-name="Path" class="cls-7" d="M131.8892,60.38l8.5235-4.9211v9.8422l-8.5235,4.9211Z"/>
        <path id="Path-19" data-name="Path" class="cls-7" d="M142.5436,54.229l8.5237-4.9211V59.15l-8.5237,4.9211Z"/>
        <g id="Group-3" data-name="Group">
          <ellipse id="Ellipse" class="cls-4" cx="118.7993" cy="57.4608" rx="4.5662" ry="2.6363"/>
          <rect id="Rectangle" class="cls-4" x="114.2332" y="55.162" width="9.132" height="2.298"/>
          <ellipse id="Ellipse-2" data-name="Ellipse" class="cls-3" cx="118.7993" cy="55.1625" rx="4.5662" ry="2.6363"/>
        </g>
        <g id="Group-4" data-name="Group">
          <ellipse id="Ellipse-3" data-name="Ellipse" class="cls-4" cx="129.88" cy="51.2612" rx="4.5662" ry="2.6363"/>
          <rect id="Rectangle-2" data-name="Rectangle" class="cls-4" x="125.3141" y="48.963" width="9.132" height="2.298"/>
          <ellipse id="Ellipse-4" data-name="Ellipse" class="cls-3" cx="129.88" cy="48.9628" rx="4.5662" ry="2.6363"/>
        </g>
        <g id="Group-5" data-name="Group">
          <ellipse id="Ellipse-5" data-name="Ellipse" class="cls-4" cx="140.9607" cy="45.0615" rx="4.5662" ry="2.6363"/>
          <rect id="Rectangle-3" data-name="Rectangle" class="cls-4" x="136.3942" y="42.763" width="9.132" height="2.298"/>
          <ellipse id="Ellipse-6" data-name="Ellipse" class="cls-3" cx="140.9607" cy="42.7632" rx="4.5662" ry="2.6363"/>
        </g>
      </g>
      <g id="Group-6" data-name="Group">
        <path id="Path-20" data-name="Path" class="cls-5" d="M68.3184,79.6973,81.1038,87.079l34.0943-19.6844-12.7854-7.3817Z"/>
        <path id="Path-21" data-name="Path" class="cls-4" d="M81.1038,87.0789v13.7633L68.3184,93.4606V79.6973Z"/>
        <path id="Path-22" data-name="Path" class="cls-6" d="M115.1981,67.3946V81.1579L81.1038,100.8423V87.079Z"/>
        <path id="Path-23" data-name="Path" class="cls-7" d="M83.2346,88.3093l8.5236-4.9212V93.23l-8.5236,4.9212Z"/>
        <path id="Path-24" data-name="Path" class="cls-7" d="M93.8892,82.1579l8.5235-4.9212v9.8422L93.8892,92Z"/>
        <path id="Path-25" data-name="Path" class="cls-7" d="M104.5436,76.0065l8.5237-4.9211v9.8422l-8.5237,4.9211Z"/>
        <g id="Group-7" data-name="Group">
          <ellipse id="Ellipse-7" data-name="Ellipse" class="cls-4" cx="80.7993" cy="79.2383" rx="4.5662" ry="2.6363"/>
          <rect id="Rectangle-4" data-name="Rectangle" class="cls-4" x="76.2332" y="76.94" width="9.132" height="2.298"/>
          <ellipse id="Ellipse-8" data-name="Ellipse" class="cls-3" cx="80.7993" cy="76.9399" rx="4.5662" ry="2.6363"/>
        </g>
        <g id="Group-8" data-name="Group">
          <ellipse id="Ellipse-9" data-name="Ellipse" class="cls-4" cx="91.88" cy="73.0386" rx="4.5662" ry="2.6363"/>
          <rect id="Rectangle-5" data-name="Rectangle" class="cls-4" x="87.3141" y="70.74" width="9.132" height="2.298"/>
          <ellipse id="Ellipse-10" data-name="Ellipse" class="cls-3" cx="91.88" cy="70.7403" rx="4.5662" ry="2.6363"/>
        </g>
        <g id="Group-9" data-name="Group">
          <ellipse id="Ellipse-11" data-name="Ellipse" class="cls-4" cx="102.9607" cy="66.839" rx="4.5662" ry="2.6363"/>
          <rect id="Rectangle-6" data-name="Rectangle" class="cls-4" x="98.3942" y="64.541" width="9.132" height="2.298"/>
          <ellipse id="Ellipse-12" data-name="Ellipse" class="cls-3" cx="102.9607" cy="64.5406" rx="4.5662" ry="2.6363"/>
        </g>
      </g>
      <path id="Path-26" data-name="Path" class="top-prim" d="M25.1981,95.2628l25-14.4337,30,17.3205,90-51.9615-30-17.32,20-11.5471,95,54.8483-135,77.9423Z"/>
      <path id="Path-27" data-name="Path" class="cls-1" d="M117.6981,69.2821V66.3953l-2.5,1.4434v2.8867Z"/>
      <path id="Path-28" data-name="Path" class="cls-6" d="M117.6981,72.1688l-2.5-1.4434,2.5-1.4433Z"/>
      <path id="Path-29" data-name="Path" class="cls-8" d="M117.6981,64.9519l2.5,1.4434v5.7735l-2.5-1.4434Z"/>
      <path id="Path-30" data-name="Path" class="cls-8" d="M131.4481,75.7773l2.5,1.4433v-4.33l-2.5-1.4434Z"/>
    </g>
    <g>
      <g id="Group-10" data-name="Group">
        <g id="Group-11" data-name="Group">
          <path id="Path-31" data-name="Path" class="cls-9" d="M155.4066,57.142V69.9786l2.2235,1.2838v-10.27l4.4472,2.5677,2.2236-1.2839Z"/>
          <path id="Path-32" data-name="Path" class="cls-1" d="M194.3163,44.9465l-8.8934-5.1345-2.2236,1.2838,8.8943,5.1345Z"/>
          <path id="Path-33" data-name="Path" class="cls-9" d="M183.1993,41.0958V53.9325l2.2236,1.2838v-10.27l4.4471,2.5677,2.2236-1.2839Z"/>
          <path id="Path-34" data-name="Path" class="cls-6" d="M187.6464,53.9325V46.23l-2.2235-1.2838v10.27Z"/>
          <path id="Path-35" data-name="Path" class="cls-1" d="M166.5236,60.9926,157.63,55.8581l-2.2235,1.2839,8.8943,5.1344Z"/>
          <path id="Path-36" data-name="Path" class="cls-6" d="M159.8537,69.9786V62.2764L157.63,60.9926v10.27Z"/>
          <path id="Path-37" data-name="Path" class="cls-1" d="M189.87,42.3788l-60.0326,34.66-2.2235-1.2838V73.1873l57.809-33.3753Z"/>
          <path id="Path-38" data-name="Path" class="cls-6" d="M185.4229,44.9465V42.3788L159.8537,57.142l2.2236,1.283Z"/>
          <path id="Path-39" data-name="Path" class="cls-6" d="M157.63,60.9926V58.425L132.061,73.1873l2.2236,1.2838Z"/>
          <path id="Path-40" data-name="Path" class="cls-10" d="M136.5082,133.5213l-11.117-6.4183,4.4462-2.5677,11.117,6.4183Z"/>
          <path id="Path-41" data-name="Path" class="cls-10" d="M164.2948,117.4751l-11.1172-6.4182,4.4471-2.5678,11.1172,6.4183Z"/>
          <path id="Path-42" data-name="Path" class="cls-10" d="M192.0812,101.429,180.964,95.0107l4.4474-2.5677,11.117,6.4183Z"/>
          <path id="Path-43" data-name="Path" class="cls-11" d="M138.7309,130.9536l-2.2227,1.2839v-10.27l2.2227-1.2838Z"/>
          <path id="Path-44" data-name="Path" class="cls-9" d="M134.2846,130.9536l2.2236,1.2839V120.6838l-2.2236-1.2829Z"/>
          <path id="Path-45" data-name="Path" class="cls-11" d="M166.5236,114.9074l-2.2227,1.2839v-10.27l2.2227-1.2838Z"/>
          <path id="Path-46" data-name="Path" class="cls-9" d="M162.0773,114.9074l2.2236,1.2839V104.6377l-2.2236-1.283Z"/>
          <path id="Path-47" data-name="Path" class="cls-11" d="M159.8537,111.0569,157.63,112.34V102.0709l2.2236-1.2839Z"/>
          <path id="Path-48" data-name="Path" class="cls-9" d="M155.4066,111.0569,157.63,112.34V100.787l-2.2235-1.2838Z"/>
          <path id="Path-49" data-name="Path" class="cls-11" d="M187.6349,95.0107l-2.2235,1.2838v-10.27l2.2235-1.2838Z"/>
          <path id="Path-50" data-name="Path" class="cls-9" d="M183.1878,95.0107l2.2236,1.2838V84.7409l-2.2236-1.2839Z"/>
          <path id="Path-51" data-name="Path" class="cls-11" d="M194.3048,98.8613l-2.2236,1.2838v-10.27l2.2236-1.2831Z"/>
          <path id="Path-52" data-name="Path" class="cls-9" d="M189.8585,98.8613l2.2227,1.2838V88.5923l-2.2227-1.2838Z"/>
          <path id="Path-53" data-name="Path" class="cls-1" d="M138.7309,77.0387l-8.8935-5.1343-2.2235,1.2829,8.8943,5.1353Z"/>
          <path id="Path-54" data-name="Path" class="cls-9" d="M127.6139,73.1873V127.103l2.2235,1.2829V77.0387l4.4472,2.5677,2.2236-1.2838Z"/>
          <path id="Path-55" data-name="Path" class="cls-6" d="M132.061,127.103v-48.78l-2.2236-1.2839v51.3472Z"/>
          <path id="Path-56" data-name="Path" class="cls-9" d="M136.5082,128.3859l-8.8943-5.1344v-2.5677l8.8943,5.1354Z"/>
          <path id="Path-57" data-name="Path" class="cls-1" d="M134.2846,121.9676l-2.2236-1.2838-2.2236,1.2838,4.4472,2.5677Z"/>
          <path id="Path-58" data-name="Path" class="cls-1" d="M134.2846,111.6987v-2.5676l-2.2236,1.2838v2.5667Z"/>
          <path id="Path-59" data-name="Path" class="cls-1" d="M134.2846,119.4009v-2.5677l-2.2236,1.2838v2.5668Z"/>
          <path id="Path-60" data-name="Path" class="cls-6" d="M134.2846,114.2656l-2.2236-1.284,2.2236-1.2829Z"/>
          <path id="Path-61" data-name="Path" class="cls-6" d="M134.2846,121.9676l-2.2236-1.2838,2.2236-1.2829Z"/>
          <path id="Path-62" data-name="Path" class="cls-9" d="M136.5082,118.117l-8.8943-5.1354v2.5678l8.8943,5.1344Z"/>
          <path id="Path-63" data-name="Path" class="cls-1" d="M132.061,112.9816l-2.2236,1.284,4.4472,2.5676v-2.5676Z"/>
          <path id="Path-64" data-name="Path" class="cls-9" d="M134.2846,77.0387l2.2236,1.2839v43.645l-2.2236-1.2838Z"/>
          <path id="Path-65" data-name="Path" class="cls-9" d="M157.63,58.425l4.4472,2.5676-2.2236,1.2838L157.63,60.9926Z"/>
          <path id="Path-66" data-name="Path" class="cls-9" d="M185.4229,42.3788l4.4471,2.5677L187.6464,46.23l-2.2235-1.2838Z"/>
        </g>
        <g id="Group-12" data-name="Group">
          <g id="Group-13" data-name="Group">
            <path id="Path-67" data-name="Path" class="cls-9" d="M134.2926,77.0272l2.2227,1.283v43.6316l-2.2227-1.2838Z"/>
            <path id="Path-68" data-name="Path" class="cls-12" d="M137.6267,116.1672l-1.1114.6411-2.2227-1.2829v5.1326l2.2227,1.2838,1.1114-.6418Z"/>
            <path id="Path-69" data-name="Path" class="cls-12" d="M137.6267,77.6682v3.8507l-1.1114.6409-2.2227-1.2829v-3.85l2.2227,1.283Z"/>
            <path id="Path-70" data-name="Path" class="cls-6" d="M138.738,74.4605l-2.2227,3.85v43.6316l57.79-33.3654V44.9447l-2.2228-1.2829Z"/>
            <path id="Path-71" data-name="Path" class="cls-8" d="M194.3057,80.8769l-57.79,33.3655v7.6994l57.79-33.3654Z"/>
            <path id="Path-72" data-name="Path" class="cls-8" d="M194.3057,44.9447v7.7L136.5153,86.01V78.31Z"/>
            <path id="Path-73" data-name="Path" class="cls-13" d="M134.2926,77.0272l2.2227,1.283,57.79-33.3655-2.2228-1.2829Z"/>
          </g>
          <g id="Group-14" data-name="Group">
            <path id="Path-74" data-name="Path" d="M194.3057,48.7953,136.5153,82.16v34.6485l57.79-33.3645Z"/>
            <g id="Group-15" data-name="Group">
              <path id="Path-75" data-name="Path" class="cls-2" d="M152.6015,92.0358c0,.3263.265.4383.5913.25L156.269,90.51V89.3268l-3.0762,1.7764A1.2273,1.2273,0,0,0,152.6015,92.0358Z"/>
              <polygon id="Rectangle-7" data-name="Rectangle" class="cls-2" points="150.512 81.189 154.179 79.071 154.179 82.975 150.512 85.093 150.512 81.189"/>
              <path id="Compound_Path" data-name="Compound Path" class="cls-3" d="M156.8832,84.6546l-5.8795,3.3937v1.6564l5.0287-2.9029c.1308-.0756.2366-.03.2366.1V87.67l-3.0228,1.7453a4.8313,4.8313,0,0,0-2.2994,3.4888,1.2536,1.2536,0,0,0,.6269,1.2829,1.814,1.814,0,0,0,1.6191-.2454l4.7325-2.7321V85.0947c-.0008-.5752-.4668-.7716-1.0421-.44ZM156.269,90.51l-3.0762,1.7754c-.3263.1894-.5913.0774-.5913-.25a1.2273,1.2273,0,0,1,.5913-.9326l3.0762-1.7764Z"/>
              <path id="Path-76" data-name="Path" class="cls-3" d="M146.5086,91.6864v6.1151l1.6564-.9566V91.3441l2.3071-1.3319V88.3558l-2.9214,1.6867A2.1636,2.1636,0,0,0,146.5086,91.6864Z"/>
              <path id="Path-77" data-name="Path" class="cls-3" d="M162.3237,81.5135l-2.646,1.5275a2.29,2.29,0,0,0-1.1025,1.7381v5.9356c.0009.0666.0543.0888.12.0506l1.4172-.818a.2485.2485,0,0,0,.1191-.1885V84.6146a.4942.4942,0,0,1,.2373-.3742l1.0642-.6144c.1307-.0756.2366-.0312.2366.0995v5.1452c0,.0658.0534.0889.12.0507l1.4171-.818a.2486.2486,0,0,0,.1192-.1894V81.9794c-.0009-.6081-.4936-.8171-1.1024-.4659Z"/>
              <polygon id="Rectangle-8" data-name="Rectangle" class="cls-3" points="170.268 76.88 171.924 75.924 171.924 83.082 170.268 84.038 170.268 76.88"/>
              <path id="Path-78" data-name="Path" class="cls-3" d="M141.8943,85.6549V91.77l1.6564-.9567V85.3125l2.3071-1.3317V82.3244l-2.9216,1.6865a2.1644,2.1644,0,0,0-1.0419,1.644Z"/>
              <polygon id="Rectangle-9" data-name="Rectangle" class="cls-3" points="146.43 81.948 148.087 80.992 148.087 88.149 146.43 89.106 146.43 81.948"/>
              <path id="Compound_Path-2" data-name="Compound Path" class="cls-3" d="M150.2739,86.9325l4.3005-2.4832a2.7807,2.7807,0,0,0,1.339-2.1134V75.5718l-1.6555.9566v.8874l-3.984,2.3a2.7817,2.7817,0,0,0-1.34,2.1133v4.5371C148.9349,87.1049,149.5342,87.3583,150.2739,86.9325Zm.3165-5.7435,3.6675-2.1169v3.904L150.59,85.093Z"/>
              <path id="Path-79" data-name="Path" class="cls-3" d="M162.3228,78.3191,158.28,80.6538V79.53l4.0428-2.3347V75.5389L158.28,77.8736V76.75l4.0428-2.3347V72.7587l-4.3592,2.5171a2.7827,2.7827,0,0,0-1.34,2.1133v4.537c.0009.74.6.9922,1.34.5663l4.3592-2.517Z"/>
              <path id="Path-80" data-name="Path" class="cls-3" d="M167.6705,81.1473l-1.4235.8214c-.2923.168-.53.0667-.53-.2267a1.1058,1.1058,0,0,1,.53-.8375l3.4639-2.0005V77.2477l-3.4639,2.0005a4.537,4.537,0,0,0-2.1845,3.45c0,1.2073.9772,1.6217,2.1845.9273l1.4235-.8216c.201-.1173.3877-.1173.4882-.0017a.5537.5537,0,0,1,0,.5637,1.2414,1.2414,0,0,1-.4882.5619l-3.5385,2.0431V87.626l3.5385-2.0422a4.6009,4.6009,0,0,0,2.2138-3.4968c0-1.2234-.99-1.6439-2.2138-.94Z"/>
              <path id="Path-81" data-name="Path" class="cls-3" d="M143.5507,91.3459l-1.6564.9567v7.1205c.0009.5754.4667.7718,1.0419.44l2.9216-1.6857V96.5213l-2.07,1.1949c-.1306.0755-.2372.03-.2372-.1V93.89l2.3071-1.3318V90.9013l-2.3071,1.3319Z"/>
              <path id="Path-82" data-name="Path" class="cls-3" d="M174.31,73.5873l-1.6564.9559v7.1214c.0009.5744.4669.7718,1.0421.44l2.9214-1.6866V78.7619l-2.0725,1.1966c-.13.0747-.2346.03-.2346-.1V76.131l2.3071-1.3327V73.1428L174.31,74.4747Z"/>
              <polygon id="Rectangle-10" data-name="Rectangle" class="cls-3" points="177.012 78.488 178.668 77.532 178.668 79.188 177.012 80.144 177.012 78.488"/>
            </g>
            <path id="Path-83" data-name="Path" class="cls-14" d="M136.5153,109.1088l57.79-33.3654V74.4605l-57.79,33.3654Z"/>
            <path id="Path-84" data-name="Path" class="cls-4" d="M136.5153,109.1088l57.79-33.3654v7.7l-57.79,33.3645Z"/>
            <g id="Group-16" data-name="Group">
              <path id="Path-85" data-name="Path" class="cls-14" d="M188.7489,57.1357l3.334-1.9247v1.2838l-3.334,1.9249Z"/>
              <path id="Path-86" data-name="Path" class="cls-15" d="M188.7489,55.8528l3.334-1.9248v1.283l-3.334,1.9247Z"/>
              <path id="Path-87" data-name="Path" class="cls-16" d="M188.7489,54.57l3.334-1.9248V53.928l-3.334,1.9248Z"/>
            </g>
          </g>
        </g>
      </g>
      <g id="Group-17" data-name="Group">
        <g id="Group-18" data-name="Group">
          <g id="Group-19" data-name="Group">
            <path id="Path-88" data-name="Path" class="cls-11" d="M85.6044,57.166V69.999l-2.2227,1.2829V61.0157l-4.4454,2.5669L76.7136,62.3Z"/>
            <path id="Path-89" data-name="Path" class="cls-1" d="M46.7071,44.9749l8.8908-5.1326,2.2227,1.2829L48.93,46.2588Z"/>
            <path id="Path-90" data-name="Path" class="cls-11" d="M57.8206,41.1252v12.833l-2.2227,1.2829V44.9749l-4.4454,2.5669L48.93,46.2588Z"/>
            <path id="Path-91" data-name="Path" class="cls-9" d="M53.3752,53.9582V46.2588l2.2227-1.2839V55.2411Z"/>
            <path id="Path-92" data-name="Path" class="cls-1" d="M74.4909,61.0157l8.8908-5.1326,2.2227,1.2829L76.7136,62.3Z"/>
            <path id="Path-93" data-name="Path" class="cls-9" d="M81.159,69.999V62.3l2.2227-1.2839V71.2819Z"/>
            <path id="Path-94" data-name="Path" class="cls-1" d="M51.1525,42.4081l60.013,34.6494,2.2227-1.2839V73.2068l-57.79-33.3645Z"/>
            <path id="Path-95" data-name="Path" class="cls-9" d="M55.5979,44.9749V42.4081L81.159,57.166,78.9363,58.45Z"/>
            <path id="Path-96" data-name="Path" class="cls-9" d="M83.3817,61.0157V58.45l25.5611,14.757L106.72,74.4906Z"/>
            <path id="Path-97" data-name="Path" class="cls-10" d="M104.4974,133.5213l11.1135-6.4166-4.4454-2.5667-11.1135,6.4165Z"/>
            <path id="Path-98" data-name="Path" class="cls-10" d="M76.7136,117.4805l11.1135-6.4166-4.4454-2.5667-11.1135,6.4165Z"/>
            <path id="Path-99" data-name="Path" class="cls-10" d="M48.93,101.44l11.1135-6.4165-4.4454-2.5667L44.4844,98.8729Z"/>
            <path id="Path-100" data-name="Path" class="cls-9" d="M102.2747,130.9545l2.2227,1.2838V121.9721l-2.2227-1.2838Z"/>
            <path id="Path-101" data-name="Path" class="cls-11" d="M106.72,130.9545l-2.2227,1.2838v-11.55l2.2227-1.283Z"/>
            <path id="Path-102" data-name="Path" class="cls-9" d="M74.4909,114.9137l2.2227,1.2829V105.93l-2.2227-1.2829Z"/>
            <path id="Path-103" data-name="Path" class="cls-11" d="M78.9363,114.9137l-2.2227,1.2829V104.6475l2.2227-1.283Z"/>
            <path id="Path-104" data-name="Path" class="cls-9" d="M81.159,111.0639l2.2227,1.2829V102.0806l-2.2227-1.2829Z"/>
            <path id="Path-105" data-name="Path" class="cls-11" d="M85.6044,111.0639l-2.2227,1.2829V100.7977l2.2227-1.283Z"/>
            <path id="Path-106" data-name="Path" class="cls-9" d="M53.3752,95.0231l2.2227,1.2829V86.04l-2.2227-1.2829Z"/>
            <path id="Path-107" data-name="Path" class="cls-11" d="M57.8206,95.0231,55.5979,96.306V84.7569l2.2227-1.2838Z"/>
            <path id="Path-108" data-name="Path" class="cls-9" d="M46.7071,98.8729l2.2227,1.2829V89.89l-2.2227-1.2829Z"/>
            <path id="Path-109" data-name="Path" class="cls-11" d="M51.1525,98.8729,48.93,100.1558V88.6067l2.2227-1.283Z"/>
            <path id="Path-110" data-name="Path" class="cls-1" d="M102.2747,77.0575l8.8908-5.1336,2.2227,1.2829L104.4974,78.34Z"/>
            <path id="Path-111" data-name="Path" class="cls-11" d="M113.3882,73.2068v53.8979l-2.2227,1.2839V77.0575L106.72,79.6234l-2.2227-1.283Z"/>
            <path id="Path-112" data-name="Path" class="cls-9" d="M108.9428,127.1047V78.34l2.2227-1.2829v51.3311Z"/>
            <path id="Path-113" data-name="Path" class="cls-11" d="M104.4974,128.3886l8.8908-5.1336v-2.5667l-8.8908,5.1335Z"/>
            <path id="Path-114" data-name="Path" class="cls-1" d="M106.72,121.9721l2.2227-1.2838,2.2227,1.2838L106.72,124.538Z"/>
            <path id="Path-115" data-name="Path" class="cls-1" d="M106.72,111.7059v-2.5668l2.2227,1.283v2.5667Z"/>
            <path id="Path-116" data-name="Path" class="cls-1" d="M106.72,119.4053v-2.5668l2.2227,1.2839v2.5659Z"/>
            <path id="Path-117" data-name="Path" class="cls-6" d="M106.72,114.2717l2.2227-1.2829-2.2227-1.2829Z"/>
            <path id="Path-118" data-name="Path" class="cls-6" d="M106.72,121.9721l2.2227-1.2838-2.2227-1.283Z"/>
            <path id="Path-119" data-name="Path" class="cls-11" d="M104.4974,118.1224l8.8908-5.1336v2.5668l-8.8908,5.1327Z"/>
            <path id="Path-120" data-name="Path" class="cls-1" d="M108.9428,112.9888l2.2227,1.2829-4.4454,2.5668v-2.5668Z"/>
            <path id="Path-121" data-name="Path" class="cls-9" d="M106.72,77.0575,104.4974,78.34v43.6317l2.2227-1.2838Z"/>
            <path id="Path-122" data-name="Path" class="cls-11" d="M83.3817,58.45l-4.4454,2.5659L81.159,62.3l2.2227-1.2839Z"/>
            <path id="Path-123" data-name="Path" class="cls-11" d="M55.5979,42.4081l-4.4454,2.5668,2.2227,1.2839,2.2227-1.2839Z"/>
          </g>
        </g>
        <g id="Group-20" data-name="Group">
          <g id="Group-21" data-name="Group">
            <path id="Path-124" data-name="Path" class="cls-6" d="M48.93,43.692l-2.2227,1.2829V88.6067l57.79,33.3654,2.2227-1.2838V77.0575Z"/>
            <path id="Path-125" data-name="Path" class="cls-12" d="M104.4974,114.2717l-57.79-33.3645v7.7l57.79,33.3654Z"/>
            <path id="Path-126" data-name="Path" class="cls-17" d="M104.4974,116.8385l2.2227-1.2829v5.1327l-2.2227,1.2838Z"/>
            <path id="Path-127" data-name="Path" class="cls-12" d="M104.4974,78.34V86.04l-57.79-33.3654V44.9749Z"/>
            <path id="Path-128" data-name="Path" class="cls-18" d="M48.93,43.692l-2.2227,1.2829,57.79,33.3655,2.2227-1.2829Z"/>
            <path id="Path-129" data-name="Path" d="M104.4974,82.19l-57.79-33.3654V83.4731l57.79,33.3654Z"/>
            <g id="Group-22" data-name="Group">
              <path id="Path-130" data-name="Path" class="cls-2" d="M62.7932,77.2753a1.2263,1.2263,0,0,0,.5913.9326l3.0762,1.7764V78.8009l-3.0762-1.7754C63.0583,76.837,62.7932,76.949,62.7932,77.2753Z"/>
              <polygon id="Rectangle-11" data-name="Rectangle" class="cls-2" points="60.706 64.105 64.373 66.223 64.373 70.127 60.706 68.01 60.706 64.105"/>
              <path id="Compound_Path-3" data-name="Compound Path" class="cls-3" d="M67.075,74.8374l-5.8795-3.3936V73.1l5.0286,2.9029a.4891.4891,0,0,1,.2366.3725v.769L63.4379,75.4c-1.2225-.7068-2.2548-.3325-2.2993.8331a3.7289,3.7289,0,0,0,.6269,2.0066,4.8405,4.8405,0,0,0,1.619,1.6244l4.7326,2.7322V76.4813a2.1673,2.1673,0,0,0-1.0421-1.6439Zm-.6143,5.1469-3.0762-1.7764a1.2276,1.2276,0,0,1-.5913-.9326c0-.3263.2651-.4383.5913-.25l3.0762,1.7754Z"/>
              <path id="Path-131" data-name="Path" class="cls-3" d="M56.7,69.89v6.1159l1.6564.9558V71.4607l2.3072,1.3319V71.1362L57.7424,69.45C57.167,69.1179,56.7012,69.3154,56.7,69.89Z"/>
              <path id="Path-132" data-name="Path" class="cls-3" d="M72.5154,77.9786l-2.646-1.5275c-.6082-.35-1.1016-.1422-1.1024.4658v5.9356a.2519.2519,0,0,0,.12.1894l1.4172.818c.0658.0382.1192.015.1192-.0507V78.6649c.0008-.1306.1065-.176.2372-.1l1.0643.6144a.4914.4914,0,0,1,.2366.3734v5.1451a.2472.2472,0,0,0,.12.1885l1.4172.818c.0658.0382.1192.0151.1192-.0507V79.7176a2.29,2.29,0,0,0-1.1025-1.739Z"/>
              <polygon id="Rectangle-12" data-name="Rectangle" class="cls-3" points="80.462 82.611 82.119 83.567 82.119 90.724 80.462 89.768 80.462 82.611"/>
              <path id="Path-133" data-name="Path" class="cls-3" d="M52.0861,58.5308v6.115l1.6563.9567V60.1009L56.05,61.4327V59.7773l-2.9217-1.6866c-.5752-.3317-1.041-.1352-1.0418.44Z"/>
              <polygon id="Rectangle-13" data-name="Rectangle" class="cls-3" points="56.624 60.152 58.281 61.108 58.281 68.266 56.624 67.31 56.624 60.152"/>
              <path id="Compound_Path-4" data-name="Compound Path" class="cls-3" d="M60.4657,69.4834l4.3,2.4831c.7389.4259,1.3391.1725,1.3391-.5663V64.6361L64.45,63.68v.8873l-3.9839-2.3c-.74-.4267-1.3391-.1734-1.34.5655V67.37A2.7812,2.7812,0,0,0,60.4657,69.4834Zm.3165-5.3772L64.45,66.2231v3.9048L60.7822,68.01Z"/>
              <path id="Path-134" data-name="Path" class="cls-3" d="M72.5145,74.7841,68.4718,72.45V71.3264L72.5145,73.66V72.0039L68.4718,69.67V68.5463L72.5145,70.88V69.2238l-4.3592-2.5171c-.74-.4259-1.3391-.1724-1.34.5664V71.81a2.7832,2.7832,0,0,0,1.34,2.1135L72.5145,76.44Z"/>
              <path id="Path-135" data-name="Path" class="cls-3" d="M77.8623,83.7869l-1.4235-.8215a1.107,1.107,0,0,1-.53-.8384c0-.2925.2375-.3939.53-.2268l3.4638,2V82.2444l-3.4638-2c-1.2073-.6944-2.1845-.2793-2.1845.9272a4.54,4.54,0,0,0,2.1845,3.4505l1.4235.8216a1.2407,1.2407,0,0,1,.4881.5619.5538.5538,0,0,1,0,.5637c-.1.1156-.2871.1146-.4881-.0019l-3.5386-2.043V86.18l3.5386,2.043c1.2233.7042,2.2138.2836,2.2138-.94a4.6,4.6,0,0,0-2.2138-3.4968Z"/>
              <path id="Path-136" data-name="Path" class="cls-3" d="M53.7424,66.1351l-1.6563-.9567V72.3a2.1636,2.1636,0,0,0,1.0418,1.643L56.05,75.63V73.9733l-2.07-1.1949a.4924.4924,0,0,1-.2373-.3735V68.6787L56.05,70.0106V68.3542l-2.3072-1.3318Z"/>
              <path id="Path-137" data-name="Path" class="cls-3" d="M84.502,83.8936l-1.6564-.9557v7.1206a2.1639,2.1639,0,0,0,1.0421,1.6439l2.9214,1.6866V91.7327l-2.0725-1.1968a.4864.4864,0,0,1-.2346-.37V86.4372l2.3071,1.3319V86.1127L84.502,84.781Z"/>
              <polygon id="Rectangle-14" data-name="Rectangle" class="cls-3" points="87.206 92.005 88.862 92.961 88.862 94.618 87.206 93.661 87.206 92.005"/>
            </g>
            <path id="Path-138" data-name="Path" class="cls-14" d="M46.7071,75.7736l57.79,33.3655v-1.2829l-57.79-33.3656Z"/>
            <path id="Path-139" data-name="Path" class="cls-4" d="M46.7071,75.7736l57.79,33.3655v7.6994l-57.79-33.3654Z"/>
            <path id="Path-140" data-name="Path" class="cls-17" d="M104.4974,82.19l2.2227-1.2829v-3.85L104.4974,78.34Z"/>
          </g>
          <g id="Group-23" data-name="Group">
            <g id="Group-24" data-name="Group">
              <path id="Path-141" data-name="Path" class="cls-14" d="M98.9406,84.115l3.3341,1.9248v1.2839l-3.3341-1.9249Z"/>
              <path id="Path-142" data-name="Path" class="cls-15" d="M98.9406,82.8321l3.3341,1.9248V86.04L98.9406,84.115Z"/>
              <path id="Path-143" data-name="Path" class="cls-16" d="M98.9406,81.5482l3.3341,1.9249v1.2838l-3.3341-1.9248Z"/>
            </g>
          </g>
        </g>
      </g>
    </g>
  </g>
</svg>
