<svg id="Layer_1" data-name="Layer 1" xmlns="http://www.w3.org/2000/svg" viewBox="0 0 320 508.068">
  <defs>
    <style>
      .cls-1 {
        fill: #f7f7f5;
      }

      .cls-2 {
        fill: #d2d2cd;
      }

      .cls-3, .cls-5, .cls-7 {
        fill: #fff4aa;
      }

      .cls-19, .cls-3 {
        fill-opacity: 0.5;
      }

      .cls-4 {
        fill: #797972;
      }

      .cls-6 {
        fill: #aeaea9;
      }

      .cls-7 {
        fill-opacity: 0.75;
      }

      .cls-8 {
        fill: #999995;
      }

      .cls-9 {
        fill: #b7b7b1;
      }

      .cls-10 {
        opacity: 0.5;
      }

      .cls-11, .cls-19 {
        fill: #84847f;
      }

      .cls-12 {
        opacity: 0.75;
      }

      .cls-13 {
        fill: #bbbbb5;
      }

      .cls-14 {
        fill: #686862;
      }

      .cls-15 {
        fill: #a2a29e;
      }

      .cls-16 {
        fill: #a6a6a0;
      }

      .cls-17 {
        fill: #b3b3ad;
      }

      .cls-18 {
        opacity: 0.25;
      }

      .cls-20 {
        fill: #2e2e2e;
      }
    </style>
  </defs>
  <title>Artboard 7</title>
  <g id="root">
    <g>
      <path class="cls-1" d="M0,415.692l160-92.376,160,92.376L160,508.068Z"/>
      <path class="cls-2" d="M160,326.203,5,415.692l155,89.49,155-89.49Z"/>
      <path class="cls-3" d="M277.5,437.343l-2.5,1.443-27.5-15.877,2.5-1.443Z"/>
      <path class="cls-4" d="M160,326.203V337.75l145,83.716,10-5.774Z"/>
      <path class="cls-3" d="M242.5,457.55l-2.5,1.444-27.5-15.877,2.5-1.444Z"/>
      <path class="cls-5" d="M260,447.447l-2.5,1.443L230,433.013l2.5-1.443Z"/>
      <path class="cls-5" d="M225,467.6541l-2.5,1.4429L195,453.22l2.5-1.443Z"/>
      <path class="cls-5" d="M207.5,477.7581,205,479.201l-10-5.774v-2.886Z"/>
      <path class="cls-6" d="M160,337.75V326.203L5,415.692l10,5.774Z"/>
      <path class="cls-3" d="M72.5,454.664l2.5,1.443,7.5-4.33L80,450.333Z"/>
      <path class="cls-7" d="M90,464.767l2.5,1.4441L100,461.88l-2.5-1.443Z"/>
      <path class="cls-5" d="M115,470.541l2.5,1.443-7.5,4.33-2.5-1.443Z"/>
    </g>
    <g>
      <path class="cls-6" d="M160,300.222,0,392.598v11.547l160,92.376,159.1338-91.876a1.9154,1.9154,0,0,0,.8662-1.5V392.598Z"/>
      <path class="cls-1" d="M0,392.598l160-92.376,160,92.376L160,484.974Z"/>
      <path class="cls-2" d="M160,303.109,5,392.598l155,89.49,155-89.49Z"/>
      <path class="cls-5" d="M277.5,414.249l-2.5,1.443-27.5-15.877,2.5-1.443Z"/>
      <path class="cls-4" d="M160,303.109v11.547l145,83.716,10-5.774Z"/>
      <path class="cls-3" d="M242.5,434.456,240,435.9l-27.5-15.877,2.5-1.444Z"/>
      <path class="cls-5" d="M260,424.353l-2.5,1.443L230,409.919l2.5-1.443Z"/>
      <path class="cls-3" d="M225,444.56l-2.5,1.4431L195,430.126l2.5-1.443Z"/>
      <path class="cls-5" d="M207.5,454.664l-2.5,1.443-10-5.774v-2.886Z"/>
      <path class="cls-6" d="M160,314.656V303.109L5,392.598l10,5.774Z"/>
      <path class="cls-4" d="M0,392.598v10.547a1.9154,1.9154,0,0,0,.8662,1.5L160,496.521V484.974Z"/>
      <path class="cls-8" d="M295,424.353l-5-2.887,5-2.887Z"/>
      <path class="cls-9" d="M25,424.353l5-2.887-5-2.887Z"/>
      <path class="cls-9" d="M300,415.692l-5,2.887v5.774l5-2.887Z"/>
      <path class="cls-8" d="M20,415.692l5,2.887v5.774l-5-2.887Z"/>
      <g class="cls-10">
        <path class="cls-11" d="M125,467.6541,2.5,396.928v5.774L125,473.427Z"/>
      </g>
      <g class="cls-12">
        <path class="cls-13" d="M195,467.6541,320,395.485l-2.5,7.217L195,473.427Z"/>
      </g>
      <path class="cls-14" d="M10,409.919l-5-4.33q-2.3752-1.512-2.5-2.8871a15.1111,15.1111,0,0,1,0-2.887,4.8659,4.8659,0,0,1,.3818-1.806A6.7122,6.7122,0,0,1,5,395.485H5l-5-2.887v10.547a1.9154,1.9154,0,0,0,.8662,1.5Z"/>
      <path class="cls-15" d="M312.5,408.476l2.5-2.8869q2.3753-1.512,2.5-2.8871a15.1111,15.1111,0,0,0,0-2.887,4.8381,4.8381,0,0,0-.3818-1.806,2.7385,2.7385,0,0,0-2.8321-1.424l-1.7861.344,7.5-4.331v10.547a1.9154,1.9154,0,0,1-.8662,1.5Z"/>
      <path class="cls-5" d="M72.5,431.57l2.5,1.443,7.5-4.33L80,427.239Z"/>
      <path class="cls-7" d="M90,441.673l2.5,1.444,7.5-4.331-2.5-1.443Z"/>
      <path class="cls-7" d="M115,447.447l2.5,1.443-7.5,4.33-2.5-1.443Z"/>
    </g>
    <g>
      <path class="cls-6" d="M160,277.1281,0,369.504v11.547l160,92.376,159.1338-91.876a1.9154,1.9154,0,0,0,.8662-1.5V369.504Z"/>
      <path class="cls-1" d="M0,369.504l160-92.3759L320,369.504,160,461.881Z"/>
      <path class="cls-2" d="M160,280.015,5,369.504l155,89.49,155-89.49Z"/>
      <path class="cls-3" d="M277.5,391.155l-2.5,1.443-27.5-15.877,2.5-1.443Z"/>
      <path class="cls-4" d="M160,280.015v11.547l145,83.716,10-5.774Z"/>
      <path class="cls-3" d="M242.5,411.362l-2.5,1.444-27.5-15.877,2.5-1.444Z"/>
      <path class="cls-3" d="M260,401.259l-2.5,1.443L230,386.825l2.5-1.443Z"/>
      <path class="cls-3" d="M225,421.466l-2.5,1.443L195,407.032l2.5-1.4429Z"/>
      <path class="cls-5" d="M207.5,431.57l-2.5,1.443-10-5.774v-2.886Z"/>
      <path class="cls-6" d="M160,291.562V280.015L5,369.504l10,5.774Z"/>
      <path class="cls-4" d="M0,369.504v10.547a1.9139,1.9139,0,0,0,.8662,1.5L160,473.428V461.881Z"/>
      <path class="cls-8" d="M295,401.259l-5-2.887,5-2.887Z"/>
      <path class="cls-9" d="M25,401.259l5-2.887-5-2.887Z"/>
      <path class="cls-9" d="M300,392.598l-5,2.887v5.774l5-2.887Z"/>
      <path class="cls-8" d="M20,392.598l5,2.887v5.774l-5-2.887Z"/>
      <g class="cls-12">
        <path class="cls-11" d="M125,444.56,2.5,373.835v5.773L125,450.334Z"/>
      </g>
      <g class="cls-10">
        <path class="cls-13" d="M195,444.56l125-72.169-2.5,7.217L195,450.334Z"/>
      </g>
      <path class="cls-14" d="M10,386.825l-5-4.33q-2.3752-1.5118-2.5-2.887a15.1111,15.1111,0,0,1,0-2.887,4.8659,4.8659,0,0,1,.3818-1.806A6.7122,6.7122,0,0,1,5,372.391H5l-5-2.887v10.547a1.9139,1.9139,0,0,0,.8662,1.5Z"/>
      <path class="cls-15" d="M312.5,385.382l2.5-2.887q2.3753-1.5118,2.5-2.887a15.1111,15.1111,0,0,0,0-2.887,4.8381,4.8381,0,0,0-.3818-1.806,2.7385,2.7385,0,0,0-2.8321-1.424l-1.7861.344,7.5-4.331v10.547a1.9139,1.9139,0,0,1-.8662,1.5Z"/>
      <path class="cls-5" d="M72.5,408.476l2.5,1.443,7.5-4.33L80,404.145Z"/>
      <path class="cls-7" d="M90,418.579l2.5,1.444,7.5-4.331-2.5-1.443Z"/>
      <path class="cls-7" d="M115,424.353l2.5,1.443-7.5,4.33-2.5-1.443Z"/>
    </g>
    <g>
      <path class="cls-6" d="M160,254.034,0,346.41v11.547l160,92.376,159.1338-91.876a1.9154,1.9154,0,0,0,.8662-1.5V346.41Z"/>
      <path class="cls-1" d="M0,346.41l160-92.376L320,346.41,160,438.786Z"/>
      <path class="cls-2" d="M160,256.921,5,346.41,160,435.9l155-89.49Z"/>
      <path class="cls-5" d="M277.5,368.061l-2.5,1.443-27.5-15.877,2.5-1.443Z"/>
      <path class="cls-4" d="M160,256.921v11.547l145,83.716,10-5.774Z"/>
      <path class="cls-3" d="M242.5,388.268l-2.5,1.444-27.5-15.877,2.5-1.444Z"/>
      <path class="cls-5" d="M260,378.165l-2.5,1.443L230,363.731l2.5-1.443Z"/>
      <path class="cls-3" d="M225,398.372l-2.5,1.443L195,383.938l2.5-1.443Z"/>
      <path class="cls-5" d="M207.5,408.476l-2.5,1.443-10-5.774v-2.886Z"/>
      <path class="cls-6" d="M160,268.468V256.921L5,346.41l10,5.774Z"/>
      <path class="cls-4" d="M0,346.41v10.547a1.9154,1.9154,0,0,0,.8662,1.5L160,450.333V438.786Z"/>
      <path class="cls-8" d="M295,378.165l-5-2.887,5-2.887Z"/>
      <path class="cls-9" d="M25,378.165l5-2.887-5-2.887Z"/>
      <path class="cls-9" d="M300,369.504l-5,2.887v5.774l5-2.887Z"/>
      <path class="cls-8" d="M20,369.504l5,2.887v5.774l-5-2.887Z"/>
      <g class="cls-10">
        <path class="cls-11" d="M125,421.466,2.5,350.74v5.7739L125,427.239Z"/>
      </g>
      <g class="cls-12">
        <path class="cls-13" d="M195,421.466l125-72.169-2.5,7.217L195,427.239Z"/>
      </g>
      <path class="cls-14" d="M10,363.731l-5-4.33q-2.3752-1.512-2.5-2.887a15.1111,15.1111,0,0,1,0-2.887,4.8659,4.8659,0,0,1,.3818-1.806A6.7044,6.7044,0,0,1,5,349.297H5L0,346.41v10.547a1.9154,1.9154,0,0,0,.8662,1.5Z"/>
      <path class="cls-15" d="M312.5,362.288l2.5-2.887q2.3753-1.512,2.5-2.887a15.1111,15.1111,0,0,0,0-2.887,4.8381,4.8381,0,0,0-.3818-1.806,2.7385,2.7385,0,0,0-2.8321-1.424l-1.7861.344,7.5-4.331v10.547a1.9154,1.9154,0,0,1-.8662,1.5Z"/>
      <path class="cls-3" d="M72.5,385.382l2.5,1.443,7.5-4.33L80,381.051Z"/>
      <path class="cls-7" d="M90,395.485l2.5,1.444,7.5-4.331-2.5-1.443Z"/>
      <path class="cls-7" d="M115,401.259l2.5,1.443-7.5,4.33-2.5-1.4429Z"/>
    </g>
    <g>
      <path class="cls-6" d="M160,230.94,0,323.316v11.547l160,92.376,159.1338-91.876a1.9154,1.9154,0,0,0,.8662-1.5V323.316Z"/>
      <path class="cls-1" d="M0,323.316,160,230.94l160,92.376L160,415.692Z"/>
      <path class="cls-2" d="M160,233.827,5,323.316l155,89.49,155-89.49Z"/>
      <path class="cls-3" d="M277.5,344.967,275,346.41l-27.5-15.877,2.5-1.443Z"/>
      <path class="cls-4" d="M160,233.827v11.547L305,329.09l10-5.774Z"/>
      <path class="cls-3" d="M242.5,365.174l-2.5,1.444-27.5-15.877,2.5-1.444Z"/>
      <path class="cls-7" d="M260,355.071l-2.5,1.443L230,340.637l2.5-1.443Z"/>
      <path class="cls-3" d="M225,375.278l-2.5,1.443L195,360.844l2.5-1.443Z"/>
      <path class="cls-5" d="M207.5,385.382l-2.5,1.443-10-5.774v-2.886Z"/>
      <path class="cls-6" d="M160,245.374V233.827L5,323.316l10,5.774Z"/>
      <path class="cls-4" d="M0,323.316v10.547a1.9154,1.9154,0,0,0,.8662,1.5L160,427.239V415.692Z"/>
      <path class="cls-8" d="M295,355.071l-5-2.887,5-2.887Z"/>
      <path class="cls-9" d="M25,355.071l5-2.887-5-2.887Z"/>
      <path class="cls-9" d="M300,346.41l-5,2.887v5.774l5-2.887Z"/>
      <path class="cls-8" d="M20,346.41l5,2.887v5.774l-5-2.887Z"/>
      <g class="cls-12">
        <path class="cls-11" d="M125,398.372,2.5,327.646v5.774L125,404.145Z"/>
      </g>
      <g class="cls-10">
        <path class="cls-13" d="M195,398.372l125-72.169-2.5,7.217L195,404.145Z"/>
      </g>
      <path class="cls-14" d="M10,340.637l-5-4.33q-2.3752-1.5118-2.5-2.887a15.1111,15.1111,0,0,1,0-2.887,4.8649,4.8649,0,0,1,.3818-1.8059A6.7126,6.7126,0,0,1,5,326.203H5l-5-2.887v10.547a1.9154,1.9154,0,0,0,.8662,1.5Z"/>
      <path class="cls-15" d="M312.5,339.194l2.5-2.887q2.3753-1.5118,2.5-2.887a15.1111,15.1111,0,0,0,0-2.887,4.837,4.837,0,0,0-.3818-1.8059,2.7384,2.7384,0,0,0-2.8321-1.4241l-1.7861.344,7.5-4.331v10.547a1.9154,1.9154,0,0,1-.8662,1.5Z"/>
      <path class="cls-3" d="M72.5,362.288l2.5,1.443,7.5-4.33L80,357.957Z"/>
      <path class="cls-5" d="M90,372.391l2.5,1.444,7.5-4.331-2.5-1.443Z"/>
      <path class="cls-5" d="M115,378.165l2.5,1.443-7.5,4.33-2.5-1.443Z"/>
    </g>
    <g>
      <path class="cls-6" d="M160,207.846,0,300.222v11.547l160,92.376,159.1338-91.876a1.9154,1.9154,0,0,0,.8662-1.5V300.222Z"/>
      <path class="cls-1" d="M0,300.222l160-92.376,160,92.376L160,392.598Z"/>
      <path class="cls-2" d="M160,210.733,5,300.222l155,89.49,155-89.49Z"/>
      <path class="cls-3" d="M277.5,321.873l-2.5,1.443-27.5-15.877,2.5-1.443Z"/>
      <path class="cls-4" d="M160,210.733V222.28l145,83.716,10-5.774Z"/>
      <path class="cls-7" d="M242.5,342.08l-2.5,1.444-27.5-15.877,2.5-1.444Z"/>
      <path class="cls-3" d="M260,331.9771l-2.5,1.4429L230,317.543l2.5-1.443Z"/>
      <path class="cls-3" d="M225,352.184l-2.5,1.443L195,337.75l2.5-1.443Z"/>
      <path class="cls-5" d="M207.5,362.288l-2.5,1.443-10-5.774v-2.886Z"/>
      <path class="cls-6" d="M160,222.28V210.733L5,300.222l10,5.774Z"/>
      <path class="cls-4" d="M0,300.222v10.547a1.9154,1.9154,0,0,0,.8662,1.5L160,404.145V392.598Z"/>
      <path class="cls-8" d="M295,331.9771l-5-2.8871,5-2.887Z"/>
      <path class="cls-9" d="M25,331.9771l5-2.8871-5-2.887Z"/>
      <path class="cls-9" d="M300,323.316l-5,2.887v5.7741l5-2.8871Z"/>
      <path class="cls-8" d="M20,323.316l5,2.887v5.7741L20,329.09Z"/>
      <g class="cls-12">
        <path class="cls-11" d="M125,375.278,2.5,304.552v5.774L125,381.051Z"/>
      </g>
      <g class="cls-10">
        <path class="cls-13" d="M195,375.278l125-72.169-2.5,7.217L195,381.051Z"/>
      </g>
      <path class="cls-14" d="M10,317.543l-5-4.33q-2.3752-1.512-2.5-2.887a15.1111,15.1111,0,0,1,0-2.887,4.8659,4.8659,0,0,1,.3818-1.806A6.7044,6.7044,0,0,1,5,303.109H5l-5-2.887v10.547a1.9154,1.9154,0,0,0,.8662,1.5Z"/>
      <path class="cls-15" d="M312.5,316.1l2.5-2.887q2.3753-1.512,2.5-2.887a15.1111,15.1111,0,0,0,0-2.887,4.8381,4.8381,0,0,0-.3818-1.806,2.7385,2.7385,0,0,0-2.8321-1.424l-1.7861.344,7.5-4.331v10.547a1.9154,1.9154,0,0,1-.8662,1.5Z"/>
      <path class="cls-3" d="M72.5,339.194l2.5,1.443,7.5-4.33L80,334.863Z"/>
      <path class="cls-7" d="M90,349.297l2.5,1.444,7.5-4.331-2.5-1.443Z"/>
      <path class="cls-7" d="M115,355.071l2.5,1.443-7.5,4.33-2.5-1.443Z"/>
    </g>
    <g>
      <path class="cls-6" d="M160,184.752,0,277.1281V288.675l160,92.376,159.1338-91.876a1.9152,1.9152,0,0,0,.8662-1.5V277.1281Z"/>
      <path class="cls-1" d="M0,277.1281,160,184.752l160,92.3761L160,369.504Z"/>
      <path class="cls-2" d="M160,187.639,5,277.1281l155,89.49,155-89.49Z"/>
      <path class="cls-7" d="M277.5,298.779l-2.5,1.443-27.5-15.877,2.5-1.443Z"/>
      <path class="cls-4" d="M160,187.639v11.547l145,83.716,10-5.7739Z"/>
      <path class="cls-3" d="M242.5,318.986,240,320.43l-27.5-15.877,2.5-1.444Z"/>
      <path class="cls-7" d="M260,308.883l-2.5,1.443L230,294.449l2.5-1.443Z"/>
      <path class="cls-3" d="M225,329.09l-2.5,1.443L195,314.656l2.5-1.443Z"/>
      <path class="cls-5" d="M207.5,339.194l-2.5,1.443-10-5.774v-2.8859Z"/>
      <path class="cls-6" d="M160,199.186V187.639L5,277.1281l10,5.7739Z"/>
      <path class="cls-4" d="M0,277.1281V287.675a1.9152,1.9152,0,0,0,.8662,1.5L160,381.051V369.504Z"/>
      <path class="cls-8" d="M295,308.883l-5-2.887,5-2.887Z"/>
      <path class="cls-9" d="M25,308.883l5-2.887-5-2.887Z"/>
      <path class="cls-9" d="M300,300.222l-5,2.887v5.774l5-2.887Z"/>
      <path class="cls-8" d="M20,300.222l5,2.887v5.774l-5-2.887Z"/>
      <g class="cls-10">
        <path class="cls-11" d="M125,352.184,2.5,281.458v5.774L125,357.957Z"/>
      </g>
      <g class="cls-10">
        <path class="cls-13" d="M195,352.184l125-72.169-2.5,7.217L195,357.957Z"/>
      </g>
      <path class="cls-14" d="M10,294.449l-5-4.33q-2.3752-1.512-2.5-2.887a15.1111,15.1111,0,0,1,0-2.887,4.8659,4.8659,0,0,1,.3818-1.806A6.7122,6.7122,0,0,1,5,280.015H5l-5-2.8869V287.675a1.9152,1.9152,0,0,0,.8662,1.5Z"/>
      <path class="cls-15" d="M312.5,293.006l2.5-2.887q2.3753-1.512,2.5-2.887a15.1111,15.1111,0,0,0,0-2.887,4.8381,4.8381,0,0,0-.3818-1.806,2.7382,2.7382,0,0,0-2.8321-1.4239l-1.7861.3439,7.5-4.3309V287.675a1.9152,1.9152,0,0,1-.8662,1.5Z"/>
      <path class="cls-7" d="M72.5,316.1l2.5,1.443,7.5-4.33L80,311.769Z"/>
      <path class="cls-7" d="M90,326.203l2.5,1.444,7.5-4.331-2.5-1.443Z"/>
      <path class="cls-5" d="M115,331.9771l2.5,1.4429-7.5,4.33-2.5-1.443Z"/>
    </g>
    <g>
      <path class="cls-6" d="M160,161.658,0,254.034v11.547l160,92.376,159.1338-91.876a1.9154,1.9154,0,0,0,.8662-1.5V254.034Z"/>
      <path class="cls-1" d="M0,254.034l160-92.376,160,92.376L160,346.41Z"/>
      <path class="cls-2" d="M160,164.545,5,254.034l155,89.49,155-89.49Z"/>
      <path class="cls-3" d="M277.5,275.685l-2.5,1.4431L247.5,261.251l2.5-1.443Z"/>
      <path class="cls-4" d="M160,164.545v11.547l145,83.716,10-5.774Z"/>
      <path class="cls-5" d="M242.5,295.892l-2.5,1.444-27.5-15.877,2.5-1.444Z"/>
      <path class="cls-3" d="M260,285.789l-2.5,1.443L230,271.355l2.5-1.443Z"/>
      <path class="cls-5" d="M225,305.996l-2.5,1.443L195,291.562l2.5-1.443Z"/>
      <path class="cls-5" d="M207.5,316.1l-2.5,1.443-10-5.774v-2.886Z"/>
      <path class="cls-6" d="M160,176.092V164.545L5,254.034l10,5.774Z"/>
      <path class="cls-4" d="M0,254.034v10.547a1.9154,1.9154,0,0,0,.8662,1.5L160,357.957V346.41Z"/>
      <path class="cls-8" d="M295,285.789l-5-2.887,5-2.887Z"/>
      <path class="cls-9" d="M25,285.789l5-2.887-5-2.887Z"/>
      <path class="cls-9" d="M300,277.1281l-5,2.8869v5.774l5-2.887Z"/>
      <path class="cls-8" d="M20,277.1281l5,2.8869v5.774l-5-2.887Z"/>
      <g class="cls-10">
        <path class="cls-11" d="M125,329.09,2.5,258.364v5.774L125,334.863Z"/>
      </g>
      <g class="cls-10">
        <path class="cls-13" d="M195,329.09l125-72.169-2.5,7.217L195,334.863Z"/>
      </g>
      <path class="cls-14" d="M10,271.355l-5-4.33q-2.3752-1.512-2.5-2.887a15.1111,15.1111,0,0,1,0-2.887,4.8659,4.8659,0,0,1,.3818-1.806A6.7044,6.7044,0,0,1,5,256.921H5l-5-2.887v10.547a1.9154,1.9154,0,0,0,.8662,1.5Z"/>
      <path class="cls-15" d="M312.5,269.912l2.5-2.887q2.3753-1.512,2.5-2.887a15.1111,15.1111,0,0,0,0-2.887,4.8381,4.8381,0,0,0-.3818-1.806,2.7385,2.7385,0,0,0-2.8321-1.424l-1.7861.3441,7.5-4.3311v10.547a1.9154,1.9154,0,0,1-.8662,1.5Z"/>
      <path class="cls-3" d="M72.5,293.006l2.5,1.443,7.5-4.33L80,288.675Z"/>
      <path class="cls-7" d="M90,303.109l2.5,1.444,7.5-4.331-2.5-1.443Z"/>
      <path class="cls-7" d="M115,308.883l2.5,1.443-7.5,4.33-2.5-1.443Z"/>
    </g>
    <g>
      <path class="cls-6" d="M160,138.564,0,230.94v11.547l160,92.376,159.1338-91.876a1.9154,1.9154,0,0,0,.8662-1.5V230.94Z"/>
      <path class="cls-1" d="M0,230.94l160-92.376L320,230.94,160,323.316Z"/>
      <path class="cls-2" d="M160,141.451,5,230.94l155,89.49,155-89.49Z"/>
      <path class="cls-3" d="M277.5,252.591l-2.5,1.443-27.5-15.877,2.5-1.4429Z"/>
      <path class="cls-4" d="M160,141.451v11.547l145,83.7161,10-5.7741Z"/>
      <path class="cls-3" d="M242.5,272.798l-2.5,1.444-27.5-15.8769,2.5-1.4441Z"/>
      <path class="cls-3" d="M260,262.695l-2.5,1.443L230,248.261l2.5-1.443Z"/>
      <path class="cls-3" d="M225,282.902l-2.5,1.443L195,268.468l2.5-1.443Z"/>
      <path class="cls-5" d="M207.5,293.006l-2.5,1.443-10-5.774v-2.886Z"/>
      <path class="cls-6" d="M160,152.998V141.451L5,230.94l10,5.7741Z"/>
      <path class="cls-4" d="M0,230.94v10.547a1.9154,1.9154,0,0,0,.8662,1.5L160,334.863V323.316Z"/>
      <path class="cls-8" d="M295,262.695l-5-2.887,5-2.887Z"/>
      <path class="cls-9" d="M25,262.695l5-2.887-5-2.887Z"/>
      <path class="cls-9" d="M300,254.034l-5,2.887v5.774l5-2.887Z"/>
      <path class="cls-8" d="M20,254.034l5,2.887v5.774l-5-2.887Z"/>
      <g class="cls-12">
        <path class="cls-11" d="M125,305.996,2.5,235.27v5.774L125,311.769Z"/>
      </g>
      <g class="cls-12">
        <path class="cls-13" d="M195,305.996l125-72.169-2.5,7.217L195,311.769Z"/>
      </g>
      <path class="cls-14" d="M10,248.261l-5-4.33q-2.3752-1.512-2.5-2.887a15.1111,15.1111,0,0,1,0-2.887,4.8659,4.8659,0,0,1,.3818-1.806A6.7044,6.7044,0,0,1,5,233.827H5L0,230.94v10.547a1.9154,1.9154,0,0,0,.8662,1.5Z"/>
      <path class="cls-15" d="M312.5,246.818l2.5-2.887q2.3753-1.512,2.5-2.887a15.1111,15.1111,0,0,0,0-2.887,4.8381,4.8381,0,0,0-.3818-1.806,2.7385,2.7385,0,0,0-2.8321-1.424l-1.7861.344,7.5-4.331v10.547a1.9154,1.9154,0,0,1-.8662,1.5Z"/>
      <path class="cls-3" d="M72.5,269.912l2.5,1.443,7.5-4.33L80,265.581Z"/>
      <path class="cls-7" d="M90,280.015l2.5,1.444,7.5-4.3309-2.5-1.4431Z"/>
      <path class="cls-5" d="M115,285.789l2.5,1.443-7.5,4.33-2.5-1.443Z"/>
    </g>
    <g>
      <path class="cls-6" d="M160,115.47,0,207.846v11.547l160,92.376,159.1338-91.876a1.9154,1.9154,0,0,0,.8662-1.5V207.846Z"/>
      <path class="cls-1" d="M0,207.846,160,115.47l160,92.376L160,300.222Z"/>
      <path class="cls-2" d="M160,118.357,5,207.846l155,89.49,155-89.49Z"/>
      <path class="cls-3" d="M277.5,229.497,275,230.94l-27.5-15.877,2.5-1.443Z"/>
      <path class="cls-4" d="M160,118.357v11.547L305,213.62l10-5.774Z"/>
      <path class="cls-3" d="M242.5,249.704l-2.5,1.444-27.5-15.877,2.5-1.444Z"/>
      <path class="cls-3" d="M260,239.601l-2.5,1.443L230,225.167l2.5-1.443Z"/>
      <path class="cls-3" d="M225,259.808l-2.5,1.443L195,245.374l2.5-1.443Z"/>
      <path class="cls-5" d="M207.5,269.912l-2.5,1.443-10-5.774v-2.886Z"/>
      <path class="cls-6" d="M160,129.904V118.357L5,207.846l10,5.774Z"/>
      <path class="cls-4" d="M0,207.846v10.547a1.9154,1.9154,0,0,0,.8662,1.5L160,311.769V300.222Z"/>
      <path class="cls-8" d="M295,239.601l-5-2.8869,5-2.8871Z"/>
      <path class="cls-9" d="M25,239.601l5-2.8869-5-2.8871Z"/>
      <path class="cls-9" d="M300,230.94l-5,2.887v5.774l5-2.8869Z"/>
      <path class="cls-8" d="M20,230.94l5,2.887v5.774l-5-2.8869Z"/>
      <g class="cls-12">
        <path class="cls-11" d="M125,282.902,2.5,212.176v5.774L125,288.675Z"/>
      </g>
      <g class="cls-12">
        <path class="cls-13" d="M195,282.902l125-72.169-2.5,7.217L195,288.675Z"/>
      </g>
      <path class="cls-14" d="M10,225.167l-5-4.33q-2.3752-1.512-2.5-2.887a15.1111,15.1111,0,0,1,0-2.887,4.8659,4.8659,0,0,1,.3818-1.806A6.7044,6.7044,0,0,1,5,210.733H5l-5-2.887v10.547a1.9154,1.9154,0,0,0,.8662,1.5Z"/>
      <path class="cls-15" d="M312.5,223.724l2.5-2.887q2.3753-1.512,2.5-2.887a15.1111,15.1111,0,0,0,0-2.887,4.8381,4.8381,0,0,0-.3818-1.806,2.7385,2.7385,0,0,0-2.8321-1.424l-1.7861.344,7.5-4.331v10.547a1.9154,1.9154,0,0,1-.8662,1.5Z"/>
      <path class="cls-3" d="M72.5,246.818l2.5,1.443,7.5-4.33L80,242.487Z"/>
      <path class="cls-3" d="M90,256.921l2.5,1.4441,7.5-4.3311-2.5-1.443Z"/>
      <path class="cls-7" d="M115,262.695l2.5,1.443-7.5,4.33-2.5-1.443Z"/>
    </g>
    <g>
      <path class="cls-6" d="M160,92.376,0,184.752v11.547l160,92.376,159.1338-91.876a1.9154,1.9154,0,0,0,.8662-1.5V184.752Z"/>
      <path class="cls-1" d="M0,184.752,160,92.376l160,92.376L160,277.1281Z"/>
      <path class="cls-2" d="M160,95.263,5,184.752l155,89.49,155-89.49Z"/>
      <path class="cls-3" d="M277.5,206.403l-2.5,1.443-27.5-15.877,2.5-1.443Z"/>
      <path class="cls-4" d="M160,95.263V106.81l145,83.716,10-5.774Z"/>
      <path class="cls-5" d="M242.5,226.61l-2.5,1.444-27.5-15.877,2.5-1.444Z"/>
      <path class="cls-5" d="M260,216.507l-2.5,1.443L230,202.073l2.5-1.443Z"/>
      <path class="cls-3" d="M225,236.7141l-2.5,1.4429L195,222.28l2.5-1.443Z"/>
      <path class="cls-5" d="M207.5,246.818l-2.5,1.443-10-5.774v-2.886Z"/>
      <path class="cls-6" d="M160,106.81V95.263L5,184.752l10,5.774Z"/>
      <path class="cls-4" d="M0,184.752v10.547a1.9154,1.9154,0,0,0,.8662,1.5L160,288.675V277.1281Z"/>
      <path class="cls-8" d="M295,216.507l-5-2.887,5-2.887Z"/>
      <path class="cls-9" d="M25,216.507l5-2.887-5-2.887Z"/>
      <path class="cls-9" d="M300,207.846l-5,2.887v5.774l5-2.887Z"/>
      <path class="cls-8" d="M20,207.846l5,2.887v5.774l-5-2.887Z"/>
      <g class="cls-10">
        <path class="cls-11" d="M125,259.808,2.5,189.082v5.774L125,265.581Z"/>
      </g>
      <g class="cls-10">
        <path class="cls-13" d="M195,259.808l125-72.169-2.5,7.217L195,265.581Z"/>
      </g>
      <path class="cls-14" d="M10,202.073l-5-4.33q-2.3752-1.512-2.5-2.887a15.1111,15.1111,0,0,1,0-2.887,4.8659,4.8659,0,0,1,.3818-1.806A6.7044,6.7044,0,0,1,5,187.639H5l-5-2.887v10.547a1.9154,1.9154,0,0,0,.8662,1.5Z"/>
      <path class="cls-15" d="M312.5,200.63l2.5-2.887q2.3753-1.512,2.5-2.887a15.1111,15.1111,0,0,0,0-2.887,4.8381,4.8381,0,0,0-.3818-1.806,2.7385,2.7385,0,0,0-2.8321-1.424l-1.7861.344,7.5-4.331v10.547a1.9154,1.9154,0,0,1-.8662,1.5Z"/>
      <path class="cls-3" d="M72.5,223.724l2.5,1.443,7.5-4.33L80,219.393Z"/>
      <path class="cls-7" d="M90,233.827l2.5,1.444,7.5-4.331-2.5-1.443Z"/>
      <path class="cls-7" d="M115,239.601l2.5,1.443-7.5,4.33-2.5-1.443Z"/>
    </g>
    <g>
      <path class="cls-6" d="M160,69.282,0,161.658v11.547l160,92.376,159.1338-91.876a1.9154,1.9154,0,0,0,.8662-1.5V161.658Z"/>
      <path class="cls-1" d="M0,161.658,160,69.282l160,92.376L160,254.034Z"/>
      <path class="cls-2" d="M160,72.169,5,161.658l155,89.49,155-89.49Z"/>
      <path class="cls-5" d="M277.5,183.309l-2.5,1.443-27.5-15.877,2.5-1.443Z"/>
      <path class="cls-4" d="M160,72.169V83.716l145,83.716,10-5.774Z"/>
      <path class="cls-3" d="M242.5,203.516,240,204.96l-27.5-15.877,2.5-1.444Z"/>
      <path class="cls-3" d="M260,193.413l-2.5,1.443L230,178.979l2.5-1.443Z"/>
      <path class="cls-3" d="M225,213.62l-2.5,1.443L195,199.186l2.5-1.443Z"/>
      <path class="cls-5" d="M207.5,223.724l-2.5,1.443-10-5.774v-2.886Z"/>
      <path class="cls-6" d="M160,83.716V72.169L5,161.658l10,5.774Z"/>
      <path class="cls-4" d="M0,161.658v10.547a1.9154,1.9154,0,0,0,.8662,1.5L160,265.581V254.034Z"/>
      <path class="cls-8" d="M295,193.413l-5-2.887,5-2.887Z"/>
      <path class="cls-9" d="M25,193.413l5-2.887-5-2.887Z"/>
      <path class="cls-9" d="M300,184.752l-5,2.887v5.774l5-2.887Z"/>
      <path class="cls-8" d="M20,184.752l5,2.887v5.774l-5-2.887Z"/>
      <g class="cls-12">
        <path class="cls-11" d="M125,236.7141,2.5,165.988v5.774L125,242.487Z"/>
      </g>
      <g class="cls-12">
        <path class="cls-13" d="M195,236.7141,320,164.545l-2.5,7.217L195,242.487Z"/>
      </g>
      <path class="cls-14" d="M10,178.979l-5-4.33q-2.3752-1.5119-2.5-2.887a15.1111,15.1111,0,0,1,0-2.887,4.8659,4.8659,0,0,1,.3818-1.806A6.7044,6.7044,0,0,1,5,164.545H5l-5-2.887v10.547a1.9154,1.9154,0,0,0,.8662,1.5Z"/>
      <path class="cls-15" d="M312.5,177.536l2.5-2.887q2.3753-1.5119,2.5-2.887a15.1111,15.1111,0,0,0,0-2.887,4.8381,4.8381,0,0,0-.3818-1.806,2.7385,2.7385,0,0,0-2.8321-1.424l-1.7861.344,7.5-4.331v10.547a1.9154,1.9154,0,0,1-.8662,1.5Z"/>
      <path class="cls-7" d="M72.5,200.63l2.5,1.443,7.5-4.33L80,196.299Z"/>
      <path class="cls-7" d="M90,210.733l2.5,1.444,7.5-4.331-2.5-1.443Z"/>
      <path class="cls-7" d="M115,216.507l2.5,1.443-7.5,4.33-2.5-1.443Z"/>
    </g>
    <g>
      <path class="cls-6" d="M160,46.188,0,138.564v11.547l160,92.376,159.1338-91.876a1.9154,1.9154,0,0,0,.8662-1.5V138.564Z"/>
      <path class="cls-1" d="M0,138.564,160,46.188l160,92.376L160,230.94Z"/>
      <path class="cls-2" d="M160,49.075,5,138.564l155,89.49,155-89.49Z"/>
      <path class="cls-5" d="M277.5,160.215l-2.5,1.443-27.5-15.877,2.5-1.443Z"/>
      <path class="cls-4" d="M160,49.075V60.622l145,83.716,10-5.774Z"/>
      <path class="cls-3" d="M242.5,180.422l-2.5,1.444-27.5-15.878,2.5-1.443Z"/>
      <path class="cls-3" d="M260,170.319l-2.5,1.443L230,155.885l2.5-1.443Z"/>
      <path class="cls-3" d="M225,190.526l-2.5,1.443L195,176.092l2.5-1.443Z"/>
      <path class="cls-5" d="M207.5,200.63l-2.5,1.443-10-5.774v-2.886Z"/>
      <path class="cls-6" d="M160,60.622V49.075L5,138.564l10,5.774Z"/>
      <path class="cls-4" d="M0,138.564v10.547a1.9154,1.9154,0,0,0,.8662,1.5L160,242.487V230.94Z"/>
      <path class="cls-8" d="M295,170.319l-5-2.887,5-2.887Z"/>
      <path class="cls-9" d="M25,170.319l5-2.887-5-2.887Z"/>
      <path class="cls-9" d="M300,161.658l-5,2.887v5.774l5-2.887Z"/>
      <path class="cls-8" d="M20,161.658l5,2.887v5.774l-5-2.887Z"/>
      <g class="cls-12">
        <path class="cls-11" d="M125,213.62,2.5,142.894v5.774L125,219.393Z"/>
      </g>
      <g class="cls-10">
        <path class="cls-13" d="M195,213.62l125-72.169-2.5,7.217L195,219.393Z"/>
      </g>
      <path class="cls-14" d="M10,155.885l-5-4.33q-2.3752-1.5119-2.5-2.887a15.1111,15.1111,0,0,1,0-2.887,4.8659,4.8659,0,0,1,.3818-1.806A6.7044,6.7044,0,0,1,5,141.451H5l-5-2.887v10.547a1.9154,1.9154,0,0,0,.8662,1.5Z"/>
      <path class="cls-15" d="M312.5,154.441l2.5-2.886q2.3753-1.5119,2.5-2.887a15.1111,15.1111,0,0,0,0-2.887,4.8381,4.8381,0,0,0-.3818-1.806,2.7385,2.7385,0,0,0-2.8321-1.424l-1.7861.344,7.5-4.331v10.547a1.9154,1.9154,0,0,1-.8662,1.5Z"/>
      <path class="cls-3" d="M72.5,177.536l2.5,1.443,7.5-4.33L80,173.205Z"/>
      <path class="cls-7" d="M90,187.639l2.5,1.444,7.5-4.331-2.5-1.443Z"/>
      <path class="cls-3" d="M115,193.413l2.5,1.443-7.5,4.33-2.5-1.443Z"/>
    </g>
    <g>
      <path class="cls-6" d="M160,23.094,0,115.47v11.547l160,92.376,159.1338-91.876a1.9154,1.9154,0,0,0,.8662-1.5V115.47Z"/>
      <path class="cls-1" d="M0,115.47,160,23.094,320,115.47,160,207.846Z"/>
      <path class="cls-2" d="M160,25.981,5,115.47l155,89.49,155-89.49Z"/>
      <path class="cls-3" d="M277.5,137.121l-2.5,1.443-27.5-15.877,2.5-1.443Z"/>
      <path class="cls-4" d="M160,25.981V37.528l145,83.716,10-5.774Z"/>
      <path class="cls-7" d="M242.5,157.328l-2.5,1.444-27.5-15.878,2.5-1.443Z"/>
      <path class="cls-3" d="M260,147.225l-2.5,1.443L230,132.791l2.5-1.444Z"/>
      <path class="cls-3" d="M225,167.432l-2.5,1.443L195,152.998l2.5-1.443Z"/>
      <path class="cls-5" d="M207.5,177.536l-2.5,1.443-10-5.774v-2.886Z"/>
      <path class="cls-6" d="M160,37.528V25.981L5,115.47l10,5.774Z"/>
      <path class="cls-4" d="M0,115.47v10.547a1.9154,1.9154,0,0,0,.8662,1.5L160,219.393V207.846Z"/>
      <path class="cls-8" d="M295,147.225l-5-2.887,5-2.887Z"/>
      <path class="cls-9" d="M25,147.225l5-2.887-5-2.887Z"/>
      <path class="cls-9" d="M300,138.564l-5,2.887v5.774l5-2.887Z"/>
      <path class="cls-8" d="M20,138.564l5,2.887v5.774l-5-2.887Z"/>
      <g class="cls-12">
        <path class="cls-11" d="M125,190.526,2.5,119.8v5.774L125,196.299Z"/>
      </g>
      <g class="cls-12">
        <path class="cls-13" d="M195,190.526l125-72.169-2.5,7.217L195,196.299Z"/>
      </g>
      <path class="cls-14" d="M10,132.791l-5-4.33q-2.3752-1.5119-2.5-2.887a15.1111,15.1111,0,0,1,0-2.887,4.8659,4.8659,0,0,1,.3818-1.806A6.7044,6.7044,0,0,1,5,118.357H5L0,115.47v10.547a1.9154,1.9154,0,0,0,.8662,1.5Z"/>
      <path class="cls-15" d="M312.5,131.347l2.5-2.886q2.3753-1.5119,2.5-2.887a15.1111,15.1111,0,0,0,0-2.887,4.8381,4.8381,0,0,0-.3818-1.806,2.7385,2.7385,0,0,0-2.8321-1.424L312.5,119.8l7.5-4.33v10.547a1.9154,1.9154,0,0,1-.8662,1.5Z"/>
      <path class="cls-3" d="M72.5,154.442l2.5,1.443,7.5-4.33L80,150.111Z"/>
      <path class="cls-5" d="M90,164.545l2.5,1.444,7.5-4.331-2.5-1.443Z"/>
      <path class="cls-3" d="M115,170.319l2.5,1.443-7.5,4.33-2.5-1.443Z"/>
    </g>
    <g>
      <path class="cls-6" d="M160,0,0,92.376v11.547l160,92.376,159.1338-91.876a1.9154,1.9154,0,0,0,.8662-1.5V92.376Z"/>
      <path id="anchor_0_184.752_320" class="cls-1" d="M0,92.376,160,0,320,92.376,160,184.752Z"/>
      <path class="cls-4" d="M0,92.376v10.547a1.9154,1.9154,0,0,0,.8662,1.5L160,196.299V184.752Z"/>
      <path class="cls-8" d="M295,124.131l-5-2.887,5-2.887Z"/>
      <path class="cls-9" d="M25,124.131l5-2.887-5-2.887Z"/>
      <path class="cls-9" d="M300,115.47l-5,2.887v5.774l5-2.887Z"/>
      <path class="cls-8" d="M20,115.47l5,2.887v5.774l-5-2.887Z"/>
      <g class="cls-12">
        <path class="cls-11" d="M125,167.432,2.5,96.706v5.774L125,173.205Z"/>
      </g>
      <g class="cls-10">
        <path class="cls-13" d="M195,167.432,320,95.263l-2.5,7.217L195,173.205Z"/>
      </g>
      <path class="cls-14" d="M10,109.697l-5-4.33q-2.3752-1.5119-2.5-2.887a15.1111,15.1111,0,0,1,0-2.887,4.8659,4.8659,0,0,1,.3818-1.806A6.7044,6.7044,0,0,1,5,95.263H5L0,92.376v10.547a1.9154,1.9154,0,0,0,.8662,1.5Z"/>
      <path class="cls-15" d="M312.5,108.2531l2.5-2.8861q2.3753-1.5119,2.5-2.887a15.1111,15.1111,0,0,0,0-2.887,4.8381,4.8381,0,0,0-.3818-1.806,2.7385,2.7385,0,0,0-2.8321-1.424l-1.7861.343,7.5-4.33v10.547a1.9154,1.9154,0,0,1-.8662,1.5Z"/>
    </g>
    <g>
      <path class="cls-4" d="M162.5,506.625V183.309l-2.5,1.443-34.1338-19.707c-.478-.276-.8662-.052-.8662.5V487.861l35,20.207Z"/>
      <path class="cls-16" d="M160,436.266V184.752l34.1338-19.707c.478-.276.8662-.052.8662.5V487.861l-35,20.207Z"/>
      <g class="cls-10">
        <path class="cls-17" d="M162.5,428.683l30-17.321v5.774l-30,17.32Z"/>
      </g>
      <g class="cls-10">
        <path class="cls-17" d="M162.5,350.74l30-17.32v5.773l-30,17.321Z"/>
      </g>
      <g class="cls-10">
        <path class="cls-17" d="M162.5,272.798l30-17.32v5.773l-30,17.321Z"/>
      </g>
      <g class="cls-10">
        <path class="cls-17" d="M162.5,194.856l30-17.321v5.774l-30,17.32Z"/>
      </g>
      <g class="cls-18">
        <path class="cls-11" d="M157.1748,428.683l-30-17.321v5.774l30,17.32Z"/>
      </g>
      <g class="cls-18">
        <path class="cls-11" d="M157.1748,350.74l-30-17.32v5.773l30,17.321Z"/>
      </g>
      <g class="cls-18">
        <path class="cls-11" d="M157.1748,272.798l-30-17.32v5.773l30,17.321Z"/>
      </g>
      <g class="cls-18">
        <path class="cls-11" d="M157.1748,194.856l-30-17.321v5.774l30,17.32Z"/>
      </g>
      <path class="cls-11" d="M157.5,454.663l-30-17.32v5.773l30,17.321Z"/>
      <path class="cls-19" d="M157.5,376.721l-30-17.32v5.773l30,17.321Z"/>
      <path class="cls-11" d="M157.5,298.779l-30-17.321v5.774l30,17.32Z"/>
      <path class="cls-11" d="M157.5,220.837l-30-17.321v5.774l30,17.32Z"/>
      <path class="cls-11" d="M157.5,480.644l-30-17.32v5.773l30,17.321Z"/>
      <g class="cls-18">
        <path class="cls-11" d="M157.5,402.702l-30-17.321v5.774l30,17.32Z"/>
      </g>
      <g class="cls-18">
        <path class="cls-11" d="M157.5,324.76l-30-17.321v5.774l30,17.32Z"/>
      </g>
      <g class="cls-18">
        <path class="cls-11" d="M157.5,246.817l-30-17.32v5.773l30,17.321Z"/>
      </g>
      <path class="cls-17" d="M162.5,454.663l30-17.32v5.773l-30,17.321Z"/>
      <g class="cls-12">
        <path class="cls-17" d="M162.5,376.721l30-17.32v5.773l-30,17.321Z"/>
      </g>
      <path class="cls-17" d="M162.5,298.779l30-17.321v5.774l-30,17.32Z"/>
      <path class="cls-17" d="M162.5,220.837l30-17.321v5.774l-30,17.32Z"/>
      <g class="cls-12">
        <path class="cls-17" d="M162.5,480.644l30-17.32v5.773l-30,17.321Z"/>
      </g>
      <path class="cls-17" d="M162.5,402.702l30-17.321v5.774l-30,17.32Z"/>
      <path class="cls-17" d="M162.5,324.76l30-17.321v5.774l-30,17.32Z"/>
      <path class="cls-17" d="M162.5,246.817l30-17.32v5.773l-30,17.321Z"/>
      <g class="cls-12">
        <path class="cls-17" d="M162.5,437.343l30-17.321v5.774l-30,17.32Z"/>
      </g>
      <g class="cls-12">
        <path class="cls-17" d="M162.5,359.401l30-17.321v5.774l-30,17.32Z"/>
      </g>
      <g class="cls-12">
        <path class="cls-17" d="M162.5,281.459l30-17.321v5.774l-30,17.32Z"/>
      </g>
      <g class="cls-12">
        <path class="cls-17" d="M162.5,203.516l30-17.32v5.773l-30,17.321Z"/>
      </g>
      <g class="cls-10">
        <path class="cls-11" d="M157.5,437.343l-30-17.321v5.774l30,17.32Z"/>
      </g>
      <g class="cls-10">
        <path class="cls-11" d="M157.5,359.401l-30-17.321v5.774l30,17.32Z"/>
      </g>
      <g class="cls-10">
        <path class="cls-11" d="M157.5,281.459l-30-17.321v5.774l30,17.32Z"/>
      </g>
      <g class="cls-10">
        <path class="cls-11" d="M157.5,203.516l-30-17.32v5.773l30,17.321Z"/>
      </g>
      <g class="cls-10">
        <path class="cls-11" d="M157.5,463.324l-30-17.3209v5.7739l30,17.32Z"/>
      </g>
      <g class="cls-10">
        <path class="cls-11" d="M157.5,385.381l-30-17.32v5.773l30,17.321Z"/>
      </g>
      <g class="cls-10">
        <path class="cls-11" d="M157.5,307.439l-30-17.32v5.773l30,17.321Z"/>
      </g>
      <g class="cls-10">
        <path class="cls-11" d="M157.5,229.497l-30-17.321v5.774l30,17.32Z"/>
      </g>
      <path class="cls-11" d="M157.5,489.3051l-30-17.3211v5.7741l30,17.32Z"/>
      <g class="cls-10">
        <path class="cls-11" d="M157.5,411.362l-30-17.32v5.773l30,17.321Z"/>
      </g>
      <g class="cls-10">
        <path class="cls-19" d="M157.5,333.42l-30-17.32v5.773l30,17.321Z"/>
      </g>
      <g class="cls-10">
        <path class="cls-11" d="M157.5,255.478l-30-17.321v5.774l30,17.32Z"/>
      </g>
      <path class="cls-11" d="M157.5,497.965l-30-17.321v5.774l30,17.32Z"/>
      <path class="cls-11" d="M157.5,420.023l-30-17.321v5.774l30,17.32Z"/>
      <path class="cls-19" d="M157.5,342.08l-30-17.32v5.773l30,17.321Z"/>
      <path class="cls-11" d="M157.5,264.138l-30-17.321v5.774l30,17.32Z"/>
      <path class="cls-11" d="M157.5,186.196l-30-17.321v5.774l30,17.32Z"/>
      <path class="cls-17" d="M162.5,463.324l30-17.3209v5.7739l-30,17.32Z"/>
      <g class="cls-12">
        <path class="cls-17" d="M162.5,385.381l30-17.32v5.773l-30,17.321Z"/>
      </g>
      <g class="cls-10">
        <path class="cls-17" d="M162.5,307.439l30-17.32v5.773l-30,17.321Z"/>
      </g>
      <path class="cls-17" d="M162.5,229.497l30-17.321v5.774l-30,17.32Z"/>
      <g class="cls-12">
        <path class="cls-17" d="M162.5,489.3051l30-17.3211v5.7741l-30,17.32Z"/>
      </g>
      <g class="cls-12">
        <path class="cls-17" d="M162.5,411.362l30-17.32v5.773l-30,17.321Z"/>
      </g>
      <g class="cls-12">
        <path class="cls-17" d="M162.5,333.42l30-17.32v5.773l-30,17.321Z"/>
      </g>
      <g class="cls-12">
        <path class="cls-17" d="M162.5,255.478l30-17.321v5.774l-30,17.32Z"/>
      </g>
      <path class="cls-17" d="M162.5,446.0031l30-17.32v5.773l-30,17.321Z"/>
      <g class="cls-12">
        <path class="cls-17" d="M162.5,368.061l30-17.3209v5.7739l-30,17.32Z"/>
      </g>
      <path class="cls-17" d="M162.5,290.119l30-17.321v5.774l-30,17.32Z"/>
      <g class="cls-12">
        <path class="cls-17" d="M162.5,212.176l30-17.32v5.773l-30,17.321Z"/>
      </g>
      <g class="cls-12">
        <path class="cls-11" d="M157.5,446.0031l-30-17.32v5.773l30,17.321Z"/>
      </g>
      <g class="cls-12">
        <path class="cls-11" d="M157.5,368.061l-30-17.3209v5.7739l30,17.32Z"/>
      </g>
      <g class="cls-12">
        <path class="cls-11" d="M157.5,290.119l-30-17.321v5.774l30,17.32Z"/>
      </g>
      <g class="cls-12">
        <path class="cls-11" d="M157.5,212.176l-30-17.32v5.773l30,17.321Z"/>
      </g>
      <path class="cls-11" d="M157.5,471.984l-30-17.32v5.773l30,17.32Z"/>
      <g class="cls-10">
        <path class="cls-11" d="M157.5,394.042l-30-17.321v5.774l30,17.32Z"/>
      </g>
      <g class="cls-10">
        <path class="cls-11" d="M157.5,316.1l-30-17.321v5.774l30,17.32Z"/>
      </g>
      <g class="cls-10">
        <path class="cls-11" d="M157.5,238.157l-30-17.32v5.773l30,17.321Z"/>
      </g>
      <g class="cls-12">
        <path class="cls-17" d="M162.5,471.984l30-17.32v5.773l-30,17.32Z"/>
      </g>
      <path class="cls-17" d="M162.5,394.042l30-17.321v5.774l-30,17.32Z"/>
      <g class="cls-10">
        <path class="cls-17" d="M162.5,316.1l30-17.321v5.774l-30,17.32Z"/>
      </g>
      <g class="cls-12">
        <path class="cls-17" d="M162.5,238.157l30-17.32v5.773l-30,17.321Z"/>
      </g>
      <path class="cls-17" d="M162.5,497.965l30-17.321v5.774l-30,17.32Z"/>
      <path class="cls-17" d="M162.5,420.023l30-17.321v5.774l-30,17.32Z"/>
      <path class="cls-17" d="M162.5,342.08l30-17.32v5.773l-30,17.321Z"/>
      <path class="cls-17" d="M162.5,264.138l30-17.321v5.774l-30,17.32Z"/>
      <path class="cls-17" d="M162.5,186.196l30-17.321v5.774l-30,17.32Z"/>
      <g>
        <g>
          <path class="cls-20" d="M175,464.767l2.5-1.443v8.66l-2.5,1.443Z"/>
          <path class="cls-4" d="M180,461.88l-2.5,1.444v8.66l-2.5,1.443,2.5,1.444,2.5-1.444Z"/>
          <path class="cls-1" d="M175,473.427l2.5-1.443,2.5,1.443-5,2.887Z"/>
        </g>
        <g>
          <path class="cls-20" d="M175,441.673l2.5-1.443v8.66l-2.5,1.443Z"/>
          <path class="cls-4" d="M180,438.786l-2.5,1.444v8.66l-2.5,1.443,2.5,1.444,2.5-1.444Z"/>
          <path class="cls-1" d="M175,450.333l2.5-1.443,2.5,1.443-5,2.887Z"/>
        </g>
        <g>
          <path class="cls-20" d="M175,395.485l2.5-1.443v8.66l-2.5,1.443Z"/>
          <path class="cls-4" d="M180,392.598l-2.5,1.444v8.66l-2.5,1.443,2.5,1.4441,2.5-1.4441Z"/>
          <path class="cls-1" d="M175,404.145l2.5-1.443,2.5,1.443-5,2.887Z"/>
        </g>
        <g>
          <path class="cls-20" d="M175,349.297l2.5-1.443v8.66l-2.5,1.443Z"/>
          <path class="cls-4" d="M180,346.41l-2.5,1.444v8.66l-2.5,1.443,2.5,1.444,2.5-1.444Z"/>
          <path class="cls-1" d="M175,357.957l2.5-1.443,2.5,1.443-5,2.887Z"/>
        </g>
        <g>
          <path class="cls-20" d="M175,303.109l2.5-1.443v8.66l-2.5,1.443Z"/>
          <path class="cls-4" d="M180,300.222l-2.5,1.444v8.66l-2.5,1.443,2.5,1.444,2.5-1.444Z"/>
          <path class="cls-1" d="M175,311.769l2.5-1.443,2.5,1.443-5,2.887Z"/>
        </g>
        <g>
          <path class="cls-20" d="M175,256.921l2.5-1.443v8.66l-2.5,1.444Z"/>
          <path class="cls-4" d="M180,254.035l-2.5,1.443v8.66l-2.5,1.444,2.5,1.443,2.5-1.443Z"/>
          <path class="cls-1" d="M175,265.582l2.5-1.444,2.5,1.444-5,2.886Z"/>
        </g>
        <g>
          <path class="cls-20" d="M175,210.733l2.5-1.443v8.66l-2.5,1.443Z"/>
          <path class="cls-4" d="M180,207.846l-2.5,1.444v8.66l-2.5,1.443,2.5,1.444,2.5-1.444Z"/>
          <path class="cls-1" d="M175,219.393l2.5-1.443,2.5,1.443-5,2.887Z"/>
        </g>
        <g>
          <path class="cls-20" d="M175,418.579l2.5-1.443v8.66l-2.5,1.443Z"/>
          <path class="cls-4" d="M180,415.692l-2.5,1.444v8.66l-2.5,1.443,2.5,1.444,2.5-1.444Z"/>
          <path class="cls-1" d="M175,427.239l2.5-1.443,2.5,1.443-5,2.887Z"/>
        </g>
        <g>
          <path class="cls-20" d="M175,372.391l2.5-1.443v8.66l-2.5,1.443Z"/>
          <path class="cls-4" d="M180,369.504l-2.5,1.444v8.66l-2.5,1.443,2.5,1.444,2.5-1.444Z"/>
          <path class="cls-1" d="M175,381.051l2.5-1.443,2.5,1.443-5,2.887Z"/>
        </g>
        <g>
          <path class="cls-20" d="M175,326.203l2.5-1.443v8.66l-2.5,1.443Z"/>
          <path class="cls-4" d="M180,323.316l-2.5,1.444v8.66l-2.5,1.443,2.5,1.444,2.5-1.444Z"/>
          <path class="cls-1" d="M175,334.863l2.5-1.443,2.5,1.443-5,2.887Z"/>
        </g>
        <g>
          <path class="cls-20" d="M175,280.015l2.5-1.443v8.66l-2.5,1.443Z"/>
          <path class="cls-4" d="M180,277.1281l-2.5,1.4439v8.66l-2.5,1.443,2.5,1.444,2.5-1.444Z"/>
          <path class="cls-1" d="M175,288.675l2.5-1.443,2.5,1.443-5,2.887Z"/>
        </g>
        <g>
          <path class="cls-20" d="M175,233.827l2.5-1.443v8.66l-2.5,1.444Z"/>
          <path class="cls-4" d="M180,230.941l-2.5,1.443v8.66l-2.5,1.444,2.5,1.443,2.5-1.443Z"/>
          <path class="cls-1" d="M175,242.488l2.5-1.444,2.5,1.444-5,2.886Z"/>
        </g>
        <g>
          <path class="cls-20" d="M175,187.639l2.5-1.443v8.66l-2.5,1.443Z"/>
          <path class="cls-4" d="M180,184.752l-2.5,1.444v8.66l-2.5,1.443,2.5,1.444,2.5-1.444Z"/>
          <path class="cls-1" d="M175,196.299l2.5-1.443,2.5,1.443-5,2.887Z"/>
        </g>
        <g>
          <path class="cls-20" d="M175,487.861l2.5-1.443v8.66l-2.5,1.443Z"/>
          <path class="cls-4" d="M180,484.974l-2.5,1.444v8.66l-2.5,1.443,2.5,1.444,2.5-1.444Z"/>
          <path class="cls-1" d="M175,496.521l2.5-1.443,2.5,1.443-5,2.8871Z"/>
        </g>
      </g>
    </g>
  </g>
</svg>
