<svg id="Layer_1" data-name="Layer 1" xmlns="http://www.w3.org/2000/svg" viewBox="0 0 320 277.128">
  <defs>
    <style>
      .cls-1 {
        fill: #f7f7f5;
      }

      .cls-2 {
        fill: #d2d2cd;
      }

      .cls-3, .cls-5, .cls-7 {
        fill: #fff4aa;
      }

      .cls-3 {
        fill-opacity: 0.5;
      }

      .cls-4 {
        fill: #797972;
      }

      .cls-6 {
        fill: #aeaea9;
      }

      .cls-7 {
        fill-opacity: 0.75;
      }

      .cls-8 {
        fill: #999995;
      }

      .cls-9 {
        fill: #b7b7b1;
      }

      .cls-10 {
        opacity: 0.5;
      }

      .cls-11 {
        fill: #84847f;
      }

      .cls-12 {
        opacity: 0.75;
      }

      .cls-13 {
        fill: #bbbbb5;
      }

      .cls-14 {
        fill: #686862;
      }

      .cls-15 {
        fill: #a2a29e;
      }

      .cls-16 {
        fill: #a6a6a0;
      }

      .cls-17 {
        fill: #b3b3ad;
      }

      .cls-18 {
        opacity: 0.25;
      }

      .cls-19 {
        fill: #2e2e2e;
      }
    </style>
  </defs>
  <title>Artboard 17</title>
  <g id="root">
    <g>
      <path class="cls-1" d="M0,184.752,160,92.376l160,92.376L160,277.128Z"/>
      <path class="cls-2" d="M160,95.263,5,184.752l155,89.49,155-89.49Z"/>
      <path class="cls-3" d="M277.5,206.403l-2.5,1.443-27.5-15.877,2.5-1.443Z"/>
      <path class="cls-4" d="M160,95.263V106.81l145,83.716,10-5.774Z"/>
      <path class="cls-3" d="M242.5,226.61l-2.5,1.444-27.5-15.877,2.5-1.444Z"/>
      <path class="cls-5" d="M260,216.507l-2.5,1.443L230,202.073l2.5-1.443Z"/>
      <path class="cls-5" d="M225,236.7141l-2.5,1.4429L195,222.28l2.5-1.443Z"/>
      <path class="cls-5" d="M207.5,246.8181,205,248.261l-10-5.774v-2.886Z"/>
      <path class="cls-6" d="M160,106.81V95.263L5,184.752l10,5.774Z"/>
      <path class="cls-3" d="M72.5,223.724l2.5,1.443,7.5-4.33L80,219.393Z"/>
      <path class="cls-7" d="M90,233.827l2.5,1.4441L100,230.94l-2.5-1.443Z"/>
      <path class="cls-5" d="M115,239.601l2.5,1.443-7.5,4.33-2.5-1.443Z"/>
    </g>
    <g>
      <path class="cls-6" d="M160,69.282,0,161.658v11.547l160,92.376,159.1338-91.876a1.9141,1.9141,0,0,0,.8662-1.5V161.658Z"/>
      <path class="cls-1" d="M0,161.658,160,69.282l160,92.376L160,254.034Z"/>
      <path class="cls-2" d="M160,72.169,5,161.658l155,89.49,155-89.49Z"/>
      <path class="cls-5" d="M277.5,183.309l-2.5,1.443-27.5-15.877,2.5-1.443Z"/>
      <path class="cls-4" d="M160,72.169V83.716l145,83.716,10-5.774Z"/>
      <path class="cls-3" d="M242.5,203.516,240,204.96l-27.5-15.877,2.5-1.444Z"/>
      <path class="cls-5" d="M260,193.413l-2.5,1.443L230,178.979l2.5-1.443Z"/>
      <path class="cls-3" d="M225,213.62l-2.5,1.443L195,199.186l2.5-1.443Z"/>
      <path class="cls-5" d="M207.5,223.724l-2.5,1.443-10-5.774v-2.886Z"/>
      <path class="cls-6" d="M160,83.716V72.169L5,161.658l10,5.774Z"/>
      <path class="cls-4" d="M0,161.658v10.547a1.9141,1.9141,0,0,0,.8662,1.5L160,265.581V254.034Z"/>
      <path class="cls-8" d="M295,193.413l-5-2.887,5-2.887Z"/>
      <path class="cls-9" d="M25,193.413l5-2.887-5-2.887Z"/>
      <path class="cls-9" d="M300,184.752l-5,2.887v5.774l5-2.887Z"/>
      <path class="cls-8" d="M20,184.752l5,2.887v5.774l-5-2.887Z"/>
      <g class="cls-10">
        <path class="cls-11" d="M125,236.7141,2.5,165.988v5.774L125,242.487Z"/>
      </g>
      <g class="cls-12">
        <path class="cls-13" d="M195,236.7141,320,164.545l-2.5,7.217L195,242.487Z"/>
      </g>
      <path class="cls-14" d="M10,178.979l-5-4.33q-2.3745-1.5119-2.5-2.887a15.1523,15.1523,0,0,1,0-2.887,4.8559,4.8559,0,0,1,.3818-1.806A6.7044,6.7044,0,0,1,5,164.545H5l-5-2.887v10.547a1.9141,1.9141,0,0,0,.8662,1.5Z"/>
      <path class="cls-15" d="M312.5,177.536l2.5-2.887q2.3745-1.5119,2.5-2.887a15.1523,15.1523,0,0,0,0-2.887,4.8184,4.8184,0,0,0-.3818-1.806,2.7388,2.7388,0,0,0-2.8321-1.424l-1.7861.344,7.5-4.331v10.547a1.9141,1.9141,0,0,1-.8662,1.5Z"/>
      <path class="cls-5" d="M72.5,200.63l2.5,1.443,7.5-4.33L80,196.299Z"/>
      <path class="cls-7" d="M90,210.733l2.5,1.444,7.5-4.331-2.5-1.443Z"/>
      <path class="cls-7" d="M115,216.507l2.5,1.443-7.5,4.33-2.5-1.443Z"/>
    </g>
    <g>
      <path class="cls-6" d="M160,46.188,0,138.564v11.547l160,92.376,159.1338-91.876a1.9141,1.9141,0,0,0,.8662-1.5V138.564Z"/>
      <path class="cls-1" d="M0,138.564,160,46.188l160,92.376L160,230.94Z"/>
      <path class="cls-2" d="M160,49.075,5,138.564l155,89.49,155-89.49Z"/>
      <path class="cls-3" d="M277.5,160.215l-2.5,1.443-27.5-15.877,2.5-1.443Z"/>
      <path class="cls-4" d="M160,49.075V60.622l145,83.716,10-5.774Z"/>
      <path class="cls-3" d="M242.5,180.422l-2.5,1.444-27.5-15.877,2.5-1.444Z"/>
      <path class="cls-3" d="M260,170.319l-2.5,1.443L230,155.885l2.5-1.443Z"/>
      <path class="cls-3" d="M225,190.526l-2.5,1.443L195,176.092l2.5-1.443Z"/>
      <path class="cls-5" d="M207.5,200.63l-2.5,1.443-10-5.774v-2.886Z"/>
      <path class="cls-6" d="M160,60.622V49.075L5,138.564l10,5.774Z"/>
      <path class="cls-4" d="M0,138.564v10.547a1.9141,1.9141,0,0,0,.8662,1.5L160,242.487V230.94Z"/>
      <path class="cls-8" d="M295,170.319l-5-2.887,5-2.887Z"/>
      <path class="cls-9" d="M25,170.319l5-2.887-5-2.887Z"/>
      <path class="cls-9" d="M300,161.658l-5,2.887v5.774l5-2.887Z"/>
      <path class="cls-8" d="M20,161.658l5,2.887v5.774l-5-2.887Z"/>
      <g class="cls-12">
        <path class="cls-11" d="M125,213.62,2.5,142.894v5.774L125,219.394Z"/>
      </g>
      <g class="cls-10">
        <path class="cls-13" d="M195,213.62l125-72.169-2.5,7.217L195,219.393Z"/>
      </g>
      <path class="cls-14" d="M10,155.885l-5-4.33q-2.3745-1.5119-2.5-2.887a15.1523,15.1523,0,0,1,0-2.887,4.8559,4.8559,0,0,1,.3818-1.806A6.7122,6.7122,0,0,1,5,141.451H5l-5-2.887v10.547a1.9141,1.9141,0,0,0,.8662,1.5Z"/>
      <path class="cls-15" d="M312.5,154.442l2.5-2.887q2.3745-1.5119,2.5-2.887a15.1523,15.1523,0,0,0,0-2.887,4.8184,4.8184,0,0,0-.3818-1.806,2.7388,2.7388,0,0,0-2.8321-1.424l-1.7861.344,7.5-4.331v10.547a1.9141,1.9141,0,0,1-.8662,1.5Z"/>
      <path class="cls-5" d="M72.5,177.536l2.5,1.443,7.5-4.33L80,173.205Z"/>
      <path class="cls-7" d="M90,187.639l2.5,1.444,7.5-4.331-2.5-1.443Z"/>
      <path class="cls-7" d="M115,193.413l2.5,1.443-7.5,4.33-2.5-1.443Z"/>
    </g>
    <g>
      <path class="cls-6" d="M160,23.094,0,115.47v11.547l160,92.376,159.1338-91.876a1.9141,1.9141,0,0,0,.8662-1.5V115.47Z"/>
      <path class="cls-1" d="M0,115.47,160,23.094,320,115.47,160,207.846Z"/>
      <path class="cls-2" d="M160,25.981,5,115.47l155,89.49,155-89.49Z"/>
      <path class="cls-5" d="M277.5,137.121l-2.5,1.443-27.5-15.877,2.5-1.443Z"/>
      <path class="cls-4" d="M160,25.981V37.528l145,83.716,10-5.774Z"/>
      <path class="cls-3" d="M242.5,157.328l-2.5,1.444-27.5-15.877,2.5-1.444Z"/>
      <path class="cls-5" d="M260,147.225l-2.5,1.443L230,132.791l2.5-1.443Z"/>
      <path class="cls-3" d="M225,167.432l-2.5,1.443L195,152.998l2.5-1.443Z"/>
      <path class="cls-5" d="M207.5,177.536l-2.5,1.443-10-5.774v-2.886Z"/>
      <path class="cls-6" d="M160,37.528V25.981L5,115.47l10,5.774Z"/>
      <path class="cls-4" d="M0,115.47v10.547a1.9141,1.9141,0,0,0,.8662,1.5L160,219.393V207.846Z"/>
      <path class="cls-8" d="M295,147.225l-5-2.887,5-2.887Z"/>
      <path class="cls-9" d="M25,147.225l5-2.887-5-2.887Z"/>
      <path class="cls-9" d="M300,138.564l-5,2.887v5.774l5-2.887Z"/>
      <path class="cls-8" d="M20,138.564l5,2.887v5.774l-5-2.887Z"/>
      <g class="cls-10">
        <path class="cls-11" d="M125,190.526,2.5,119.8v5.774L125,196.299Z"/>
      </g>
      <g class="cls-12">
        <path class="cls-13" d="M195,190.526l125-72.169-2.5,7.217L195,196.299Z"/>
      </g>
      <path class="cls-14" d="M10,132.791l-5-4.33q-2.3745-1.512-2.5-2.887a15.1523,15.1523,0,0,1,0-2.887,4.8559,4.8559,0,0,1,.3818-1.806A6.7044,6.7044,0,0,1,5,118.357H5L0,115.47v10.547a1.9141,1.9141,0,0,0,.8662,1.5Z"/>
      <path class="cls-15" d="M312.5,131.348l2.5-2.887q2.3745-1.512,2.5-2.887a15.1523,15.1523,0,0,0,0-2.887,4.8184,4.8184,0,0,0-.3818-1.806,2.7388,2.7388,0,0,0-2.8321-1.424l-1.7861.344,7.5-4.331v10.547a1.9141,1.9141,0,0,1-.8662,1.5Z"/>
      <path class="cls-3" d="M72.5,154.442l2.5,1.443,7.5-4.33L80,150.111Z"/>
      <path class="cls-7" d="M90,164.545l2.5,1.444,7.5-4.331-2.5-1.443Z"/>
      <path class="cls-7" d="M115,170.319l2.5,1.443-7.5,4.33-2.5-1.443Z"/>
    </g>
    <g>
      <path class="cls-6" d="M160,0,0,92.376v11.547l160,92.376,159.1338-91.876a1.9141,1.9141,0,0,0,.8662-1.5V92.376Z"/>
      <path id="anchor_0_184.752_320" class="cls-1" d="M0,92.376,160,0,320,92.376,160,184.752Z"/>
      <path class="cls-4" d="M0,92.376v10.547a1.9141,1.9141,0,0,0,.8662,1.5L160,196.299V184.752Z"/>
      <path class="cls-8" d="M295,124.131l-5-2.887,5-2.887Z"/>
      <path class="cls-9" d="M25,124.131l5-2.887-5-2.887Z"/>
      <path class="cls-9" d="M300,115.47l-5,2.887v5.774l5-2.887Z"/>
      <path class="cls-8" d="M20,115.47l5,2.887v5.774l-5-2.887Z"/>
      <g class="cls-12">
        <path class="cls-11" d="M125,167.432,2.5,96.706v5.774L125,173.205Z"/>
      </g>
      <g class="cls-10">
        <path class="cls-13" d="M195,167.432,320,95.263l-2.5,7.217L195,173.205Z"/>
      </g>
      <path class="cls-14" d="M10,109.697l-5-4.33q-2.3745-1.5119-2.5-2.887a15.1523,15.1523,0,0,1,0-2.887,4.8559,4.8559,0,0,1,.3818-1.806A6.7044,6.7044,0,0,1,5,95.263H5L0,92.376v10.547a1.9141,1.9141,0,0,0,.8662,1.5Z"/>
      <path class="cls-15" d="M312.5,108.254l2.5-2.887q2.3745-1.5119,2.5-2.887a15.1523,15.1523,0,0,0,0-2.887,4.8184,4.8184,0,0,0-.3818-1.806,2.7388,2.7388,0,0,0-2.8321-1.424l-1.7861.344,7.5-4.331v10.547a1.9141,1.9141,0,0,1-.8662,1.5Z"/>
    </g>
    <g>
      <path class="cls-4" d="M165,274.242l-2.5-90.933-2.5,1.444-34.1338-19.708c-.4785-.276-.8662-.052-.8662.5v91.376l35,20.207Z"/>
      <path class="cls-16" d="M160,205.326V184.752l34.1338-19.707c.4785-.276.8662-.052.8662.5v91.376l-35,20.207Z"/>
      <g class="cls-10">
        <path class="cls-17" d="M162.5,197.743l30-17.321v5.774l-30,17.32Z"/>
      </g>
      <g class="cls-18">
        <path class="cls-11" d="M157.1748,197.743l-30-17.321v5.774l30,17.32Z"/>
      </g>
      <path class="cls-11" d="M157.5,223.724l-30-17.321v5.774l30,17.32Z"/>
      <path class="cls-11" d="M157.5,249.704l-30-17.32v5.773l30,17.321Z"/>
      <path class="cls-17" d="M162.5,223.724l30-17.321v5.774l-30,17.32Z"/>
      <g class="cls-12">
        <path class="cls-17" d="M162.5,249.704l30-17.32v5.773l-30,17.321Z"/>
      </g>
      <g class="cls-12">
        <path class="cls-17" d="M162.5,206.403l30-17.321v5.774l-30,17.32Z"/>
      </g>
      <g class="cls-10">
        <path class="cls-11" d="M157.5,206.403l-30-17.321v5.774l30,17.32Z"/>
      </g>
      <g class="cls-10">
        <path class="cls-11" d="M157.5,232.384l-30-17.321v5.774l30,17.32Z"/>
      </g>
      <path class="cls-11" d="M157.5,258.3651l-30-17.3211v5.7741l30,17.32Z"/>
      <path class="cls-11" d="M157.5,267.025l-30-17.321v5.774l30,17.32Z"/>
      <path class="cls-11" d="M157.5,189.083l-30-17.321v5.774l30,17.32Z"/>
      <path class="cls-17" d="M162.5,232.384l30-17.321v5.774l-30,17.32Z"/>
      <g class="cls-12">
        <path class="cls-17" d="M162.5,258.3651l30-17.3211v5.7741l-30,17.32Z"/>
      </g>
      <path class="cls-17" d="M162.5,215.063l30-17.32v5.773l-30,17.321Z"/>
      <g class="cls-12">
        <path class="cls-11" d="M157.5,215.063l-30-17.32v5.773l30,17.321Z"/>
      </g>
      <path class="cls-11" d="M157.5,241.044l-30-17.32v5.773l30,17.3211Z"/>
      <g class="cls-12">
        <path class="cls-17" d="M162.5,241.044l30-17.32v5.773l-30,17.3211Z"/>
      </g>
      <path class="cls-17" d="M162.5,267.025l30-17.321v5.774l-30,17.32Z"/>
      <path class="cls-17" d="M162.5,189.083l30-17.321v5.774l-30,17.32Z"/>
      <g>
        <g>
          <path class="cls-19" d="M175,233.827l2.5-1.443v8.66l-2.5,1.443Z"/>
          <path class="cls-4" d="M180,230.94l-2.5,1.444v8.66l-2.5,1.443,2.5,1.444,2.5-1.444Z"/>
          <path class="cls-1" d="M175,242.487l2.5-1.443,2.5,1.443-5,2.887Z"/>
        </g>
        <g>
          <path class="cls-19" d="M175,210.733l2.5-1.443v8.66l-2.5,1.443Z"/>
          <path class="cls-4" d="M180,207.846l-2.5,1.444v8.66l-2.5,1.443,2.5,1.444,2.5-1.444Z"/>
          <path class="cls-1" d="M175,219.393l2.5-1.443,2.5,1.443-5,2.887Z"/>
        </g>
        <g>
          <path class="cls-19" d="M175,187.639l2.5-1.443v8.66l-2.5,1.443Z"/>
          <path class="cls-4" d="M180,184.752l-2.5,1.444v8.66l-2.5,1.443,2.5,1.444,2.5-1.444Z"/>
          <path class="cls-1" d="M175,196.299l2.5-1.443,2.5,1.443-5,2.887Z"/>
        </g>
        <g>
          <path class="cls-19" d="M175,256.921l2.5-1.443v8.66l-2.5,1.443Z"/>
          <path class="cls-4" d="M180,254.034l-2.5,1.444v8.66l-2.5,1.443,2.5,1.444,2.5-1.444Z"/>
          <path class="cls-1" d="M175,265.581l2.5-1.443,2.5,1.443-5,2.8871Z"/>
        </g>
      </g>
    </g>
  </g>
</svg>
