<svg id="Layer_1" data-name="Layer 1" xmlns="http://www.w3.org/2000/svg" viewBox="0 0 320 369.504">
  <defs>
    <style>
      .cls-1 {
        fill: #f7f7f5;
      }

      .cls-2 {
        fill: #d2d2cd;
      }

      .cls-3, .cls-5, .cls-7 {
        fill: #fff4aa;
      }

      .cls-19, .cls-3 {
        fill-opacity: 0.5;
      }

      .cls-4 {
        fill: #797972;
      }

      .cls-6 {
        fill: #aeaea9;
      }

      .cls-7 {
        fill-opacity: 0.75;
      }

      .cls-8 {
        fill: #999995;
      }

      .cls-9 {
        fill: #b7b7b1;
      }

      .cls-10 {
        opacity: 0.5;
      }

      .cls-11, .cls-19 {
        fill: #84847f;
      }

      .cls-12 {
        opacity: 0.75;
      }

      .cls-13 {
        fill: #bbbbb5;
      }

      .cls-14 {
        fill: #686862;
      }

      .cls-15 {
        fill: #a2a29e;
      }

      .cls-16 {
        fill: #a6a6a0;
      }

      .cls-17 {
        fill: #b3b3ad;
      }

      .cls-18 {
        opacity: 0.25;
      }

      .cls-20 {
        fill: #2e2e2e;
      }
    </style>
  </defs>
  <title>Artboard 13</title>
  <g id="root">
    <g>
      <path class="cls-1" d="M0,277.128l160-92.376,160,92.376L160,369.504Z"/>
      <path class="cls-2" d="M160,187.639,5,277.128l155,89.49,155-89.49Z"/>
      <path class="cls-3" d="M277.5,298.779l-2.5,1.443-27.5-15.877,2.5-1.443Z"/>
      <path class="cls-4" d="M160,187.639v11.547l145,83.716,10-5.774Z"/>
      <path class="cls-3" d="M242.5,318.986,240,320.43l-27.5-15.877,2.5-1.444Z"/>
      <path class="cls-5" d="M260,308.883l-2.5,1.443L230,294.449l2.5-1.443Z"/>
      <path class="cls-5" d="M225,329.09l-2.5,1.443L195,314.656l2.5-1.443Z"/>
      <path class="cls-5" d="M207.5,339.194l-2.5,1.443-10-5.774v-2.886Z"/>
      <path class="cls-6" d="M160,199.186V187.639L5,277.128l10,5.774Z"/>
      <path class="cls-3" d="M72.5,316.1l2.5,1.443,7.5-4.33L80,311.769Z"/>
      <path class="cls-7" d="M90,326.2029l2.5,1.4441,7.5-4.331-2.5-1.443Z"/>
      <path class="cls-5" d="M115,331.977l2.5,1.443-7.5,4.33-2.5-1.443Z"/>
    </g>
    <g>
      <path class="cls-6" d="M160,161.658,0,254.034v11.547l160,92.376,159.1338-91.876a1.9154,1.9154,0,0,0,.8662-1.5V254.034Z"/>
      <path class="cls-1" d="M0,254.034l160-92.376,160,92.376L160,346.41Z"/>
      <path class="cls-2" d="M160,164.545,5,254.034l155,89.49,155-89.49Z"/>
      <path class="cls-5" d="M277.5,275.685l-2.5,1.443-27.5-15.877,2.5-1.443Z"/>
      <path class="cls-4" d="M160,164.545v11.547l145,83.716,10-5.774Z"/>
      <path class="cls-3" d="M242.5,295.892l-2.5,1.444-27.5-15.877,2.5-1.444Z"/>
      <path class="cls-5" d="M260,285.789l-2.5,1.443L230,271.355l2.5-1.443Z"/>
      <path class="cls-3" d="M225,305.996l-2.5,1.443L195,291.562l2.5-1.443Z"/>
      <path class="cls-5" d="M207.5,316.1l-2.5,1.443-10-5.774v-2.886Z"/>
      <path class="cls-6" d="M160,176.092V164.545L5,254.034l10,5.774Z"/>
      <path class="cls-4" d="M0,254.034v10.547a1.9154,1.9154,0,0,0,.8662,1.5L160,357.957V346.41Z"/>
      <path class="cls-8" d="M295,285.789l-5-2.887,5-2.887Z"/>
      <path class="cls-9" d="M25,285.789l5-2.887-5-2.887Z"/>
      <path class="cls-9" d="M300,277.128l-5,2.887v5.774l5-2.887Z"/>
      <path class="cls-8" d="M20,277.128l5,2.887v5.774l-5-2.887Z"/>
      <g class="cls-10">
        <path class="cls-11" d="M125,329.09,2.5,258.364v5.774L125,334.863Z"/>
      </g>
      <g class="cls-12">
        <path class="cls-13" d="M195,329.09l125-72.169-2.5,7.217L195,334.863Z"/>
      </g>
      <path class="cls-14" d="M10,271.355l-5-4.33q-2.3752-1.512-2.5-2.887a15.1111,15.1111,0,0,1,0-2.887,4.8559,4.8559,0,0,1,.3818-1.806A6.7044,6.7044,0,0,1,5,256.921H5l-5-2.887v10.547a1.9154,1.9154,0,0,0,.8662,1.5Z"/>
      <path class="cls-15" d="M312.5,269.912l2.5-2.887q2.3753-1.512,2.5-2.887a15.1111,15.1111,0,0,0,0-2.887,4.8381,4.8381,0,0,0-.3818-1.806,2.7385,2.7385,0,0,0-2.8321-1.424l-1.7861.344,7.5-4.331v10.547a1.9154,1.9154,0,0,1-.8662,1.5Z"/>
      <path class="cls-5" d="M72.5,293.006l2.5,1.443,7.5-4.33L80,288.675Z"/>
      <path class="cls-7" d="M90,303.109l2.5,1.444,7.5-4.331-2.5-1.443Z"/>
      <path class="cls-7" d="M115,308.883l2.5,1.443-7.5,4.33-2.5-1.443Z"/>
    </g>
    <g>
      <path class="cls-6" d="M160,138.564,0,230.94v11.547l160,92.376,159.1338-91.876a1.9154,1.9154,0,0,0,.8662-1.5V230.94Z"/>
      <path class="cls-1" d="M0,230.94l160-92.376L320,230.94,160,323.316Z"/>
      <path class="cls-2" d="M160,141.451,5,230.94l155,89.49,155-89.49Z"/>
      <path class="cls-3" d="M277.5,252.591l-2.5,1.443-27.5-15.877,2.5-1.443Z"/>
      <path class="cls-4" d="M160,141.451v11.547l145,83.716,10-5.774Z"/>
      <path class="cls-3" d="M242.5,272.798l-2.5,1.444-27.5-15.877,2.5-1.444Z"/>
      <path class="cls-3" d="M260,262.695l-2.5,1.443L230,248.261l2.5-1.443Z"/>
      <path class="cls-3" d="M225,282.902l-2.5,1.443L195,268.468l2.5-1.443Z"/>
      <path class="cls-5" d="M207.5,293.006l-2.5,1.443-10-5.774v-2.886Z"/>
      <path class="cls-6" d="M160,152.998V141.451L5,230.94l10,5.774Z"/>
      <path class="cls-4" d="M0,230.94v10.547a1.9154,1.9154,0,0,0,.8662,1.5L160,334.863V323.316Z"/>
      <path class="cls-8" d="M295,262.695l-5-2.887,5-2.887Z"/>
      <path class="cls-9" d="M25,262.695l5-2.887-5-2.887Z"/>
      <path class="cls-9" d="M300,254.034l-5,2.887v5.774l5-2.887Z"/>
      <path class="cls-8" d="M20,254.034l5,2.887v5.774l-5-2.887Z"/>
      <g class="cls-12">
        <path class="cls-11" d="M125,305.996,2.5,235.27v5.774L125,311.77Z"/>
      </g>
      <g class="cls-10">
        <path class="cls-13" d="M195,305.996l125-72.169-2.5,7.217L195,311.769Z"/>
      </g>
      <path class="cls-14" d="M10,248.261l-5-4.33q-2.3752-1.512-2.5-2.887a15.1111,15.1111,0,0,1,0-2.887,4.8555,4.8555,0,0,1,.3818-1.806A6.7122,6.7122,0,0,1,5,233.827H5L0,230.94v10.547a1.9154,1.9154,0,0,0,.8662,1.5Z"/>
      <path class="cls-15" d="M312.5,246.818l2.5-2.887q2.3753-1.512,2.5-2.887a15.1111,15.1111,0,0,0,0-2.887,4.8376,4.8376,0,0,0-.3818-1.806,2.7385,2.7385,0,0,0-2.8321-1.424l-1.7861.344,7.5-4.331v10.547a1.9154,1.9154,0,0,1-.8662,1.5Z"/>
      <path class="cls-5" d="M72.5,269.912l2.5,1.443,7.5-4.33L80,265.581Z"/>
      <path class="cls-7" d="M90,280.015l2.5,1.444,7.5-4.331-2.5-1.443Z"/>
      <path class="cls-7" d="M115,285.789l2.5,1.443-7.5,4.33-2.5-1.443Z"/>
    </g>
    <g>
      <path class="cls-6" d="M160,115.47,0,207.846v11.547l160,92.376,159.1338-91.876a1.9154,1.9154,0,0,0,.8662-1.5V207.846Z"/>
      <path class="cls-1" d="M0,207.846,160,115.47l160,92.376L160,300.222Z"/>
      <path class="cls-2" d="M160,118.357,5,207.846l155,89.49,155-89.49Z"/>
      <path class="cls-5" d="M277.5,229.497,275,230.94l-27.5-15.877,2.5-1.443Z"/>
      <path class="cls-4" d="M160,118.357v11.547L305,213.62l10-5.774Z"/>
      <path class="cls-3" d="M242.5,249.704l-2.5,1.444-27.5-15.877,2.5-1.444Z"/>
      <path class="cls-5" d="M260,239.601l-2.5,1.443L230,225.167l2.5-1.443Z"/>
      <path class="cls-3" d="M225,259.808l-2.5,1.443L195,245.374l2.5-1.443Z"/>
      <path class="cls-5" d="M207.5,269.912l-2.5,1.443-10-5.774v-2.886Z"/>
      <path class="cls-6" d="M160,129.904V118.357L5,207.846l10,5.774Z"/>
      <path class="cls-4" d="M0,207.846v10.547a1.9154,1.9154,0,0,0,.8662,1.5L160,311.769V300.222Z"/>
      <path class="cls-8" d="M295,239.601l-5-2.887,5-2.887Z"/>
      <path class="cls-9" d="M25,239.601l5-2.887-5-2.887Z"/>
      <path class="cls-9" d="M300,230.94l-5,2.887v5.774l5-2.887Z"/>
      <path class="cls-8" d="M20,230.94l5,2.887v5.774l-5-2.887Z"/>
      <g class="cls-10">
        <path class="cls-11" d="M125,282.902,2.5,212.176v5.774L125,288.675Z"/>
      </g>
      <g class="cls-12">
        <path class="cls-13" d="M195,282.902l125-72.169-2.5,7.217L195,288.675Z"/>
      </g>
      <path class="cls-14" d="M10,225.167l-5-4.33q-2.3752-1.512-2.5-2.887a15.1111,15.1111,0,0,1,0-2.887,4.8559,4.8559,0,0,1,.3818-1.806A6.7044,6.7044,0,0,1,5,210.733H5l-5-2.887v10.547a1.9154,1.9154,0,0,0,.8662,1.5Z"/>
      <path class="cls-15" d="M312.5,223.724l2.5-2.887q2.3753-1.512,2.5-2.887a15.1111,15.1111,0,0,0,0-2.887,4.8381,4.8381,0,0,0-.3818-1.806,2.7385,2.7385,0,0,0-2.8321-1.424l-1.7861.344,7.5-4.331v10.547a1.9154,1.9154,0,0,1-.8662,1.5Z"/>
      <path class="cls-3" d="M72.5,246.818l2.5,1.443,7.5-4.33L80,242.487Z"/>
      <path class="cls-7" d="M90,256.921l2.5,1.444,7.5-4.331-2.5-1.443Z"/>
      <path class="cls-7" d="M115,262.695l2.5,1.443-7.5,4.33-2.5-1.443Z"/>
    </g>
    <g>
      <path class="cls-6" d="M160,92.376,0,184.752v11.547l160,92.376,159.1338-91.876a1.9154,1.9154,0,0,0,.8662-1.5V184.752Z"/>
      <path class="cls-1" d="M0,184.752,160,92.376l160,92.376L160,277.128Z"/>
      <path class="cls-2" d="M160,95.263,5,184.752l155,89.49,155-89.49Z"/>
      <path class="cls-3" d="M277.5,206.403l-2.5,1.443-27.5-15.877,2.5-1.443Z"/>
      <path class="cls-4" d="M160,95.263V106.81l145,83.716,10-5.774Z"/>
      <path class="cls-3" d="M242.5,226.61l-2.5,1.444-27.5-15.877,2.5-1.444Z"/>
      <path class="cls-7" d="M260,216.507l-2.5,1.443L230,202.073l2.5-1.443Z"/>
      <path class="cls-3" d="M225,236.714l-2.5,1.443L195,222.28l2.5-1.443Z"/>
      <path class="cls-5" d="M207.5,246.818l-2.5,1.443-10-5.774v-2.886Z"/>
      <path class="cls-6" d="M160,106.81V95.263L5,184.752l10,5.774Z"/>
      <path class="cls-4" d="M0,184.752v10.547a1.9154,1.9154,0,0,0,.8662,1.5L160,288.675V277.128Z"/>
      <path class="cls-8" d="M295,216.507l-5-2.887,5-2.887Z"/>
      <path class="cls-9" d="M25,216.507l5-2.887-5-2.887Z"/>
      <path class="cls-9" d="M300,207.846l-5,2.887v5.774l5-2.887Z"/>
      <path class="cls-8" d="M20,207.846l5,2.887v5.774l-5-2.887Z"/>
      <g class="cls-12">
        <path class="cls-11" d="M125,259.808,2.5,189.082v5.774L125,265.581Z"/>
      </g>
      <g class="cls-10">
        <path class="cls-13" d="M195,259.808l125-72.169-2.5,7.217L195,265.581Z"/>
      </g>
      <path class="cls-14" d="M10,202.073l-5-4.33q-2.3752-1.512-2.5-2.887a15.1111,15.1111,0,0,1,0-2.887,4.8555,4.8555,0,0,1,.3818-1.806A6.7044,6.7044,0,0,1,5,187.639H5l-5-2.887v10.547a1.9154,1.9154,0,0,0,.8662,1.5Z"/>
      <path class="cls-15" d="M312.5,200.63l2.5-2.887q2.3753-1.512,2.5-2.887a15.1111,15.1111,0,0,0,0-2.887,4.8376,4.8376,0,0,0-.3818-1.806,2.7385,2.7385,0,0,0-2.8321-1.424l-1.7861.344,7.5-4.331v10.547a1.9154,1.9154,0,0,1-.8662,1.5Z"/>
      <path class="cls-3" d="M72.5,223.724l2.5,1.443,7.5-4.33L80,219.393Z"/>
      <path class="cls-5" d="M90,233.827l2.5,1.444,7.5-4.331-2.5-1.443Z"/>
      <path class="cls-5" d="M115,239.601l2.5,1.443-7.5,4.33-2.5-1.443Z"/>
    </g>
    <g>
      <path class="cls-6" d="M160,69.282,0,161.658v11.547l160,92.376,159.1338-91.876a1.9154,1.9154,0,0,0,.8662-1.5V161.658Z"/>
      <path class="cls-1" d="M0,161.658,160,69.282l160,92.376L160,254.034Z"/>
      <path class="cls-2" d="M160,72.169,5,161.658l155,89.49,155-89.49Z"/>
      <path class="cls-3" d="M277.5,183.309l-2.5,1.443-27.5-15.877,2.5-1.443Z"/>
      <path class="cls-4" d="M160,72.169V83.716l145,83.716,10-5.774Z"/>
      <path class="cls-7" d="M242.5,203.516,240,204.96l-27.5-15.877,2.5-1.444Z"/>
      <path class="cls-3" d="M260,193.413l-2.5,1.443L230,178.979l2.5-1.443Z"/>
      <path class="cls-3" d="M225,213.62l-2.5,1.443L195,199.186l2.5-1.443Z"/>
      <path class="cls-5" d="M207.5,223.724l-2.5,1.443-10-5.774v-2.886Z"/>
      <path class="cls-6" d="M160,83.716V72.169L5,161.658l10,5.774Z"/>
      <path class="cls-4" d="M0,161.658v10.547a1.9154,1.9154,0,0,0,.8662,1.5L160,265.581V254.034Z"/>
      <path class="cls-8" d="M295,193.413l-5-2.887,5-2.887Z"/>
      <path class="cls-9" d="M25,193.413l5-2.887-5-2.887Z"/>
      <path class="cls-9" d="M300,184.752l-5,2.887v5.774l5-2.887Z"/>
      <path class="cls-8" d="M20,184.752l5,2.887v5.774l-5-2.887Z"/>
      <g class="cls-12">
        <path class="cls-11" d="M125,236.714,2.5,165.988v5.774L125,242.487Z"/>
      </g>
      <g class="cls-10">
        <path class="cls-13" d="M195,236.714l125-72.169-2.5,7.217L195,242.487Z"/>
      </g>
      <path class="cls-14" d="M10,178.979l-5-4.33q-2.3752-1.512-2.5-2.887a15.1111,15.1111,0,0,1,0-2.887,4.8555,4.8555,0,0,1,.3818-1.806A6.7044,6.7044,0,0,1,5,164.545H5l-5-2.887v10.547a1.9154,1.9154,0,0,0,.8662,1.5Z"/>
      <path class="cls-15" d="M312.5,177.536l2.5-2.887q2.3753-1.512,2.5-2.887a15.1111,15.1111,0,0,0,0-2.887,4.8376,4.8376,0,0,0-.3818-1.806,2.7385,2.7385,0,0,0-2.8321-1.424l-1.7861.344,7.5-4.331v10.547a1.9154,1.9154,0,0,1-.8662,1.5Z"/>
      <path class="cls-3" d="M72.5,200.63l2.5,1.443,7.5-4.33L80,196.299Z"/>
      <path class="cls-7" d="M90,210.733l2.5,1.444,7.5-4.331-2.5-1.443Z"/>
      <path class="cls-7" d="M115,216.507l2.5,1.443-7.5,4.33-2.5-1.443Z"/>
    </g>
    <g>
      <path class="cls-6" d="M160,46.188,0,138.564v11.547l160,92.376,159.1338-91.876a1.9154,1.9154,0,0,0,.8662-1.5V138.564Z"/>
      <path class="cls-1" d="M0,138.564,160,46.188l160,92.376L160,230.94Z"/>
      <path class="cls-2" d="M160,49.075,5,138.564l155,89.49,155-89.49Z"/>
      <path class="cls-7" d="M277.5,160.215l-2.5,1.443-27.5-15.877,2.5-1.443Z"/>
      <path class="cls-4" d="M160,49.075V60.622l145,83.716,10-5.774Z"/>
      <path class="cls-3" d="M242.5,180.422l-2.5,1.444-27.5-15.877,2.5-1.444Z"/>
      <path class="cls-7" d="M260,170.319l-2.5,1.443L230,155.885l2.5-1.443Z"/>
      <path class="cls-3" d="M225,190.526l-2.5,1.443L195,176.092l2.5-1.443Z"/>
      <path class="cls-5" d="M207.5,200.63l-2.5,1.443-10-5.774v-2.886Z"/>
      <path class="cls-6" d="M160,60.622V49.075L5,138.564l10,5.774Z"/>
      <path class="cls-4" d="M0,138.564v10.547a1.9154,1.9154,0,0,0,.8662,1.5L160,242.487V230.94Z"/>
      <path class="cls-8" d="M295,170.319l-5-2.887,5-2.887Z"/>
      <path class="cls-9" d="M25,170.319l5-2.887-5-2.887Z"/>
      <path class="cls-9" d="M300,161.658l-5,2.887v5.774l5-2.887Z"/>
      <path class="cls-8" d="M20,161.658l5,2.887v5.774l-5-2.887Z"/>
      <g class="cls-10">
        <path class="cls-11" d="M125,213.62,2.5,142.894v5.774L125,219.393Z"/>
      </g>
      <g class="cls-10">
        <path class="cls-13" d="M195,213.62l125-72.169-2.5,7.217L195,219.393Z"/>
      </g>
      <path class="cls-14" d="M10,155.885l-5-4.33q-2.3752-1.512-2.5-2.887a15.1111,15.1111,0,0,1,0-2.887,4.8559,4.8559,0,0,1,.3818-1.806A6.7044,6.7044,0,0,1,5,141.451H5l-5-2.887v10.547a1.9154,1.9154,0,0,0,.8662,1.5Z"/>
      <path class="cls-15" d="M312.5,154.442l2.5-2.887q2.3753-1.512,2.5-2.887a15.1111,15.1111,0,0,0,0-2.887,4.8381,4.8381,0,0,0-.3818-1.806,2.7385,2.7385,0,0,0-2.8321-1.424l-1.7861.344,7.5-4.331v10.547a1.9154,1.9154,0,0,1-.8662,1.5Z"/>
      <path class="cls-7" d="M72.5,177.536l2.5,1.443,7.5-4.33L80,173.205Z"/>
      <path class="cls-7" d="M90,187.639l2.5,1.444,7.5-4.331-2.5-1.443Z"/>
      <path class="cls-5" d="M115,193.413l2.5,1.443-7.5,4.33-2.5-1.443Z"/>
    </g>
    <g>
      <path class="cls-6" d="M160,23.094,0,115.47v11.547l160,92.376,159.1338-91.876a1.9154,1.9154,0,0,0,.8662-1.5V115.47Z"/>
      <path class="cls-1" d="M0,115.47,160,23.094,320,115.47,160,207.846Z"/>
      <path class="cls-2" d="M160,25.981,5,115.47l155,89.49,155-89.49Z"/>
      <path class="cls-3" d="M277.5,137.121l-2.5,1.443-27.5-15.877,2.5-1.443Z"/>
      <path class="cls-4" d="M160,25.981V37.528l145,83.716,10-5.774Z"/>
      <path class="cls-5" d="M242.5,157.328l-2.5,1.444-27.5-15.877,2.5-1.444Z"/>
      <path class="cls-3" d="M260,147.225l-2.5,1.443L230,132.791l2.5-1.443Z"/>
      <path class="cls-5" d="M225,167.432l-2.5,1.443L195,152.998l2.5-1.443Z"/>
      <path class="cls-5" d="M207.5,177.536l-2.5,1.443-10-5.774v-2.886Z"/>
      <path class="cls-6" d="M160,37.528V25.981L5,115.47l10,5.774Z"/>
      <path class="cls-4" d="M0,115.47v10.547a1.9154,1.9154,0,0,0,.8662,1.5L160,219.393V207.846Z"/>
      <path class="cls-8" d="M295,147.225l-5-2.887,5-2.887Z"/>
      <path class="cls-9" d="M25,147.225l5-2.887-5-2.887Z"/>
      <path class="cls-9" d="M300,138.564l-5,2.887v5.774l5-2.887Z"/>
      <path class="cls-8" d="M20,138.564l5,2.887v5.774l-5-2.887Z"/>
      <g class="cls-10">
        <path class="cls-11" d="M125,190.526,2.5,119.8v5.774L125,196.299Z"/>
      </g>
      <g class="cls-10">
        <path class="cls-13" d="M195,190.526l125-72.169-2.5,7.217L195,196.299Z"/>
      </g>
      <path class="cls-14" d="M10,132.791l-5-4.33q-2.3752-1.512-2.5-2.887a15.1111,15.1111,0,0,1,0-2.887,4.8559,4.8559,0,0,1,.3818-1.806A6.7044,6.7044,0,0,1,5,118.357H5L0,115.47v10.547a1.9154,1.9154,0,0,0,.8662,1.5Z"/>
      <path class="cls-15" d="M312.5,131.348l2.5-2.887q2.3753-1.512,2.5-2.887a15.1111,15.1111,0,0,0,0-2.887,4.8381,4.8381,0,0,0-.3818-1.806,2.7385,2.7385,0,0,0-2.8321-1.424l-1.7861.344,7.5-4.331v10.547a1.9154,1.9154,0,0,1-.8662,1.5Z"/>
      <path class="cls-3" d="M72.5,154.442l2.5,1.443,7.5-4.33L80,150.111Z"/>
      <path class="cls-7" d="M90,164.545l2.5,1.444,7.5-4.331-2.5-1.443Z"/>
      <path class="cls-7" d="M115,170.319l2.5,1.443-7.5,4.33-2.5-1.443Z"/>
    </g>
    <g>
      <path class="cls-6" d="M160,0,0,92.376v11.547l160,92.376,159.1338-91.876a1.9154,1.9154,0,0,0,.8662-1.5V92.376Z"/>
      <path id="anchor_0_184.752_320" class="cls-1" d="M0,92.376,160,0,320,92.376,160,184.752Z"/>
      <path class="cls-4" d="M0,92.376v10.547a1.9154,1.9154,0,0,0,.8662,1.5L160,196.299V184.752Z"/>
      <path class="cls-8" d="M295,124.131l-5-2.887,5-2.887Z"/>
      <path class="cls-9" d="M25,124.131l5-2.887-5-2.887Z"/>
      <path class="cls-9" d="M300,115.47l-5,2.887v5.774l5-2.887Z"/>
      <path class="cls-8" d="M20,115.47l5,2.887v5.774l-5-2.887Z"/>
      <g class="cls-12">
        <path class="cls-11" d="M125,167.432,2.5,96.706v5.774L125,173.205Z"/>
      </g>
      <g class="cls-12">
        <path class="cls-13" d="M195,167.432,320,95.263l-2.5,7.217L195,173.205Z"/>
      </g>
      <path class="cls-14" d="M10,109.697l-5-4.33q-2.3752-1.512-2.5-2.887a15.1111,15.1111,0,0,1,0-2.887,4.8559,4.8559,0,0,1,.3818-1.806A6.7044,6.7044,0,0,1,5,95.263H5L0,92.376v10.547a1.9154,1.9154,0,0,0,.8662,1.5Z"/>
      <path class="cls-15" d="M312.5,108.254l2.5-2.887q2.3753-1.512,2.5-2.887a15.1111,15.1111,0,0,0,0-2.887,4.8381,4.8381,0,0,0-.3818-1.806,2.7385,2.7385,0,0,0-2.8321-1.424l-1.7861.344,7.5-4.331v10.547a1.9154,1.9154,0,0,1-.8662,1.5Z"/>
    </g>
    <g>
      <path class="cls-4" d="M165,366.618l-2.5-183.309-2.5,1.443-34.1338-19.707c-.478-.276-.8662-.052-.8662.5V349.2969l35,20.2071Z"/>
      <path class="cls-16" d="M160,297.702V184.752l34.1338-19.707c.478-.276.8662-.052.8662.5V349.2969L160,369.504Z"/>
      <g class="cls-10">
        <path class="cls-17" d="M162.5,290.119l30-17.321v5.774l-30,17.32Z"/>
      </g>
      <g class="cls-10">
        <path class="cls-17" d="M162.5,212.176l30-17.32v5.773l-30,17.321Z"/>
      </g>
      <g class="cls-18">
        <path class="cls-11" d="M157.1748,290.119l-30-17.321v5.774l30,17.32Z"/>
      </g>
      <g class="cls-18">
        <path class="cls-11" d="M157.1748,212.177l-30-17.321v5.774l30,17.32Z"/>
      </g>
      <path class="cls-11" d="M157.5,316.1l-30-17.321v5.774l30,17.32Z"/>
      <path class="cls-19" d="M157.5,238.157l-30-17.32v5.773l30,17.321Z"/>
      <path class="cls-11" d="M157.5,342.08l-30-17.32v5.7731l30,17.3209Z"/>
      <g class="cls-18">
        <path class="cls-11" d="M157.5,264.138l-30-17.321v5.774l30,17.32Z"/>
      </g>
      <g class="cls-18">
        <path class="cls-11" d="M157.5,186.196l-30-17.321v5.774l30,17.32Z"/>
      </g>
      <path class="cls-17" d="M162.5,316.1l30-17.321v5.774l-30,17.32Z"/>
      <g class="cls-12">
        <path class="cls-17" d="M162.5,238.157l30-17.32v5.773l-30,17.321Z"/>
      </g>
      <g class="cls-12">
        <path class="cls-17" d="M162.5,342.08l30-17.32v5.7731l-30,17.3209Z"/>
      </g>
      <path class="cls-17" d="M162.5,264.138l30-17.321v5.774l-30,17.32Z"/>
      <path class="cls-17" d="M162.5,186.196l30-17.321v5.774l-30,17.32Z"/>
      <g class="cls-12">
        <path class="cls-17" d="M162.5,298.779l30-17.321v5.774l-30,17.32Z"/>
      </g>
      <g class="cls-12">
        <path class="cls-17" d="M162.5,220.837l30-17.321v5.774l-30,17.32Z"/>
      </g>
      <g class="cls-10">
        <path class="cls-11" d="M157.5,298.779l-30-17.321v5.774l30,17.32Z"/>
      </g>
      <g class="cls-10">
        <path class="cls-11" d="M157.5,220.837l-30-17.321v5.774l30,17.32Z"/>
      </g>
      <g class="cls-10">
        <path class="cls-11" d="M157.5,324.76l-30-17.3209v5.774l30,17.32Z"/>
      </g>
      <g class="cls-10">
        <path class="cls-11" d="M157.5,246.817l-30-17.32v5.773l30,17.321Z"/>
      </g>
      <path class="cls-11" d="M157.5,350.741l-30-17.321v5.774l30,17.32Z"/>
      <g class="cls-10">
        <path class="cls-11" d="M157.5,272.798l-30-17.32v5.773l30,17.321Z"/>
      </g>
      <g class="cls-10">
        <path class="cls-19" d="M157.5,194.856l-30-17.32v5.773l30,17.321Z"/>
      </g>
      <path class="cls-11" d="M157.5,359.4009l-30-17.3209v5.7739l30,17.32Z"/>
      <path class="cls-11" d="M157.5,281.459l-30-17.321v5.774l30,17.32Z"/>
      <path class="cls-19" d="M157.5,203.516l-30-17.32v5.773l30,17.321Z"/>
      <path class="cls-17" d="M162.5,324.76l30-17.3209v5.774l-30,17.32Z"/>
      <g class="cls-12">
        <path class="cls-17" d="M162.5,246.817l30-17.32v5.773l-30,17.321Z"/>
      </g>
      <g class="cls-12">
        <path class="cls-17" d="M162.5,350.741l30-17.321v5.774l-30,17.32Z"/>
      </g>
      <g class="cls-12">
        <path class="cls-17" d="M162.5,272.798l30-17.32v5.773l-30,17.321Z"/>
      </g>
      <g class="cls-12">
        <path class="cls-17" d="M162.5,194.856l30-17.32v5.773l-30,17.321Z"/>
      </g>
      <path class="cls-17" d="M162.5,307.439l30-17.32v5.773l-30,17.321Z"/>
      <g class="cls-12">
        <path class="cls-17" d="M162.5,229.497l30-17.321v5.774l-30,17.32Z"/>
      </g>
      <g class="cls-12">
        <path class="cls-11" d="M157.5,307.439l-30-17.32v5.773l30,17.321Z"/>
      </g>
      <g class="cls-12">
        <path class="cls-11" d="M157.5,229.497l-30-17.321v5.774l30,17.32Z"/>
      </g>
      <path class="cls-11" d="M157.5,333.42l-30-17.32v5.773l30,17.321Z"/>
      <g class="cls-10">
        <path class="cls-11" d="M157.5,255.478l-30-17.321v5.774l30,17.32Z"/>
      </g>
      <g class="cls-12">
        <path class="cls-17" d="M162.5,333.42l30-17.32v5.773l-30,17.321Z"/>
      </g>
      <path class="cls-17" d="M162.5,255.478l30-17.321v5.774l-30,17.32Z"/>
      <path class="cls-17" d="M162.5,359.4009l30-17.3209v5.7739l-30,17.32Z"/>
      <path class="cls-17" d="M162.5,281.459l30-17.321v5.774l-30,17.32Z"/>
      <path class="cls-17" d="M162.5,203.516l30-17.32v5.773l-30,17.321Z"/>
      <g>
        <g>
          <path class="cls-20" d="M175,326.2029l2.5-1.443v8.66l-2.5,1.443Z"/>
          <path class="cls-4" d="M180,323.316l-2.5,1.4439v8.66l-2.5,1.443,2.5,1.4439,2.5-1.4439Z"/>
          <path class="cls-1" d="M175,334.863l2.5-1.443,2.5,1.443-5,2.8869Z"/>
        </g>
        <g>
          <path class="cls-20" d="M175,303.109l2.5-1.443v8.66l-2.5,1.443Z"/>
          <path class="cls-4" d="M180,300.222l-2.5,1.444v8.66l-2.5,1.443,2.5,1.444,2.5-1.444Z"/>
          <path class="cls-1" d="M175,311.769l2.5-1.443,2.5,1.443-5,2.887Z"/>
        </g>
        <g>
          <path class="cls-20" d="M175,256.921l2.5-1.443v8.66l-2.5,1.443Z"/>
          <path class="cls-4" d="M180,254.034l-2.5,1.444v8.66l-2.5,1.443,2.5,1.444,2.5-1.444Z"/>
          <path class="cls-1" d="M175,265.581l2.5-1.443,2.5,1.443-5,2.887Z"/>
        </g>
        <g>
          <path class="cls-20" d="M175,210.733l2.5-1.443v8.66l-2.5,1.443Z"/>
          <path class="cls-4" d="M180,207.846l-2.5,1.444v8.66l-2.5,1.443,2.5,1.444,2.5-1.444Z"/>
          <path class="cls-1" d="M175,219.393l2.5-1.443,2.5,1.443-5,2.887Z"/>
        </g>
        <g>
          <path class="cls-20" d="M175,280.015l2.5-1.443v8.66l-2.5,1.443Z"/>
          <path class="cls-4" d="M180,277.128l-2.5,1.444v8.66l-2.5,1.443,2.5,1.444,2.5-1.444Z"/>
          <path class="cls-1" d="M175,288.675l2.5-1.443,2.5,1.443-5,2.887Z"/>
        </g>
        <g>
          <path class="cls-20" d="M175,233.827l2.5-1.443v8.66l-2.5,1.443Z"/>
          <path class="cls-4" d="M180,230.94l-2.5,1.444v8.66l-2.5,1.443,2.5,1.444,2.5-1.444Z"/>
          <path class="cls-1" d="M175,242.487l2.5-1.443,2.5,1.443-5,2.887Z"/>
        </g>
        <g>
          <path class="cls-20" d="M175,187.639l2.5-1.443v8.66l-2.5,1.443Z"/>
          <path class="cls-4" d="M180,184.752l-2.5,1.444v8.66l-2.5,1.443,2.5,1.444,2.5-1.444Z"/>
          <path class="cls-1" d="M175,196.299l2.5-1.443,2.5,1.443-5,2.887Z"/>
        </g>
        <g>
          <path class="cls-20" d="M175,349.2969l2.5-1.443v8.66l-2.5,1.443Z"/>
          <path class="cls-4" d="M180,346.41l-2.5,1.4439v8.66l-2.5,1.443,2.5,1.4439,2.5-1.4439Z"/>
          <path class="cls-1" d="M175,357.957l2.5-1.443,2.5,1.443-5,2.8871Z"/>
        </g>
      </g>
    </g>
  </g>
</svg>
