<svg id="Layer_1" data-name="Layer 1" xmlns="http://www.w3.org/2000/svg" xmlns:xlink="http://www.w3.org/1999/xlink" viewBox="0 0 320.0001 187.6389">
  <defs>
    <style>
      .top-light {
        fill: #ffc8c6;
      }

      .cls-1 {
        fill: #f4f4f4;
      }

      .exterior-L-prim {
        fill: #73302e;
      }

      .cls-2 {
        fill: #dbf8ff;
      }

      .cls-3 {
        opacity: 0.8;
      }

      .cls-4 {
        fill: #f6fdff;
      }

      .cls-5 {
        fill: #3e3d3d;
      }

      .cls-6 {
        fill: #1e1d1c;
      }

      .cls-7 {
        fill: url(#linear-gradient);
      }

      .cls-8 {
        fill: url(#linear-gradient-2);
      }

      .cls-9 {
        fill: url(#linear-gradient-3);
      }

      .cls-10 {
        fill: url(#linear-gradient-4);
      }

      .cls-11 {
        fill: #a2a2a2;
      }

      .cls-12 {
        fill: #e8e8e8;
      }

      .cls-13 {
        fill: #b9b9b9;
      }

      .cls-14 {
        fill: #8b8b8b;
      }

      .exterior-R-prim {
        fill: #d05752;
      }

      .cls-15 {
        fill: #a69a8e;
      }

      .cls-16 {
        fill: #dbc8b9;
      }

      .cls-17 {
        fill: url(#linear-gradient-5);
      }

      .cls-18 {
        fill: url(#linear-gradient-6);
      }

      .cls-19 {
        fill: url(#linear-gradient-7);
      }

      .cls-20 {
        fill: url(#linear-gradient-8);
      }

      .cls-21 {
        fill: #96eaff;
      }

      .cls-22 {
        fill: #6cd4ee;
      }

      .cls-23 {
        fill: #46b5d0;
      }

      .cls-24, .cls-31 {
        fill: none;
      }

      .cls-24 {
        stroke: #bfbfbf;
        stroke-width: 0.5px;
      }

      .cls-24, .cls-30 {
        stroke-linecap: round;
        stroke-linejoin: round;
      }

      .cls-25 {
        fill: #f2ebe5;
      }

      .cls-26 {
        fill: #149963;
      }

      .cls-27 {
        fill: #00574a;
      }

      .cls-28 {
        fill: url(#linear-gradient-9);
      }

      .cls-29 {
        fill: url(#linear-gradient-10);
      }

      .cls-30 {
        fill: #93d7e8;
      }

      .cls-30, .cls-31 {
        stroke: #46b5d0;
        stroke-width: 0.25px;
      }

      .cls-31 {
        stroke-linecap: square;
        stroke-miterlimit: 3;
      }
    </style>
    <linearGradient id="linear-gradient" x1="-701.7715" y1="82.2125" x2="-700.7965" y2="82.4362" gradientTransform="matrix(1.9443, 0, 0, -5.0514, 1531.9024, 446.9681)" gradientUnits="userSpaceOnUse">
      <stop offset="0" stop-color="#332716"/>
      <stop offset="1" stop-color="#603d16"/>
    </linearGradient>
    <linearGradient id="linear-gradient-2" x1="-1007.7511" y1="22.5363" x2="-1006.8261" y2="22.9075" gradientTransform="matrix(11.6658, 0, 0, -15.7156, 11919.3252, 378.7281)" gradientUnits="userSpaceOnUse">
      <stop offset="0" stop-color="#00564a"/>
      <stop offset="1" stop-color="#169d65"/>
    </linearGradient>
    <linearGradient id="linear-gradient-3" x1="-701.7715" y1="82.2125" x2="-700.7965" y2="82.4362" gradientTransform="matrix(1.9443, 0, 0, -5.0514, 1540.6518, 452.0195)" xlink:href="#linear-gradient"/>
    <linearGradient id="linear-gradient-4" x1="-1007.7511" y1="22.5363" x2="-1006.8261" y2="22.9075" gradientTransform="matrix(11.6658, 0, 0, -15.7156, 11928.0745, 383.7795)" xlink:href="#linear-gradient-2"/>
    <linearGradient id="linear-gradient-5" x1="-701.7715" y1="82.2125" x2="-700.7965" y2="82.4362" gradientTransform="matrix(1.9443, 0, 0, -5.0514, 1401.8174, 515.4152)" xlink:href="#linear-gradient"/>
    <linearGradient id="linear-gradient-6" x1="-1007.7511" y1="22.5363" x2="-1006.8261" y2="22.9075" gradientTransform="matrix(11.6658, 0, 0, -15.7156, 11789.2403, 447.1751)" xlink:href="#linear-gradient-2"/>
    <linearGradient id="linear-gradient-7" x1="-701.7715" y1="82.2125" x2="-700.7965" y2="82.4362" gradientTransform="matrix(1.9443, 0, 0, -5.0514, 1410.5669, 520.4666)" xlink:href="#linear-gradient"/>
    <linearGradient id="linear-gradient-8" x1="-1007.7511" y1="22.5363" x2="-1006.8261" y2="22.9075" gradientTransform="matrix(11.6658, 0, 0, -15.7156, 11797.9896, 452.2265)" xlink:href="#linear-gradient-2"/>
    <linearGradient id="linear-gradient-9" x1="-1011.88" y1="55.9505" x2="-1010.88" y2="55.9505" gradientTransform="matrix(12.5, 0, 0, -7.2169, 12801, 453.5853)" gradientUnits="userSpaceOnUse">
      <stop offset="0" stop-color="#00574a"/>
      <stop offset="0.9826" stop-color="#149963"/>
    </linearGradient>
    <linearGradient id="linear-gradient-10" x1="-786.3416" y1="149.6252" x2="-782.7797" y2="147.8185" gradientTransform="matrix(2.5, 0, 0, -2.8867, 2033.5, 530.0851)" xlink:href="#linear-gradient-9"/>
  </defs>
  <title>Artboard 12</title>
  <g id="Group">
    <path id="top-T2" class="top-light" d="M0,95.2628l160,92.3761L320,95.2628,160,2.8867Z"/>
    <path id="Path" class="cls-1" d="M160,181.8653,310,95.2628,165,11.547,15,98.15Z"/>
    <path id="Path-2" data-name="Path" class="exterior-L-prim" d="M300,95.2627,162.5,15.8771V10.1036L305,92.376Z"/>
    <path id="Path-3" data-name="Path" class="cls-2" d="M305,92.376l5-2.8868L162.5,4.33v5.7735Z"/>
    <g class="cls-3">
      <path id="Path-4" data-name="Path" class="cls-4" d="M315,89.4892,162.5,1.4433V4.33L310,89.4892Z"/>
    </g>
    <path id="Path-5" data-name="Path" class="cls-2" d="M157.5,12.99l5-2.8867V4.33l-10,5.7735Z"/>
    <g class="cls-3">
      <path id="Path-6" data-name="Path" class="cls-4" d="M162.5,1.4433,150,8.66l2.5,1.4434,10-5.7735Z"/>
    </g>
    <path id="Path-7" data-name="Path" class="cls-5" d="M170,14.4337v5.7735l-5-2.8867Z"/>
    <g id="Group-2" data-name="Group">
      <path id="Path-8" data-name="Path" class="cls-6" d="M165.5013,33.0708l11.6658,6.7352,2.9165-1.6838L168.4178,31.387Z"/>
      <g id="Group-3" data-name="Group">
        <g id="Group-4" data-name="Group">
          <path id="Compound_Shape" data-name="Compound Shape" class="cls-7" d="M169.39,33.2331h0c0,.31-.4356.5613-.9721.5613s-.9722-.2515-.9722-.5613h0v-4.49H169.39v4.49Z"/>
          <ellipse id="Ellipse" class="cls-8" cx="168.4178" cy="21.683" rx="5.8329" ry="7.8578"/>
        </g>
        <g id="Group-5" data-name="Group">
          <path id="Compound_Shape-2" data-name="Compound Shape" class="cls-9" d="M178.1393,38.2846h0c0,.31-.4356.5612-.9722.5612s-.9721-.2515-.9721-.5612h0v-4.49h1.9443v4.49Z"/>
          <ellipse id="Ellipse-2" data-name="Ellipse" class="cls-10" cx="177.1671" cy="26.7345" rx="5.8329" ry="7.8578"/>
        </g>
      </g>
    </g>
    <path id="Path-9" data-name="Path" class="cls-11" d="M25,86.6025l45,25.9808V89.4893L25,63.5085Z"/>
    <path id="Path-10" data-name="Path" class="cls-12" d="M135,0l45,25.9807L70,89.4893,25,63.5085Z"/>
    <path id="Path-11" data-name="Path" class="cls-13" d="M70,112.5833,180,49.0747V25.9807L70,89.4893Z"/>
    <path id="Path-12" data-name="Path" class="cls-1" d="M167.5,56.2916,75,109.6965V92.376l92.5-53.4049Z"/>
    <path id="Path-13" data-name="Path" class="cls-14" d="M152.5,47.6314l15-8.66V56.2916Z"/>
    <path id="Path-14" data-name="Path" class="exterior-R-prim" d="M30,89.4892V83.7157L10,95.2627,15,98.15Z"/>
    <g id="Group-6" data-name="Group">
      <g id="Group-7" data-name="Group">
        <path id="Path-15" data-name="Path" class="cls-15" d="M86.2812,133.5427l-2.5-1.4434,2.5-1.4434,2.5,1.4434Z"/>
        <path id="Path-16" data-name="Path" class="cls-16" d="M91.2813,127.7692l-5,2.8867,2.5,1.4434,5-2.8868Z"/>
      </g>
      <g id="Group-8" data-name="Group">
        <path id="Path-17" data-name="Path" class="cls-15" d="M116.1562,150.7927l-2.5-1.4434,2.5-1.4434,2.5,1.4434Z"/>
        <path id="Path-18" data-name="Path" class="cls-16" d="M121.1563,145.0192l-5,2.8867,2.5,1.4434,5-2.8868Z"/>
      </g>
      <g id="Group-9" data-name="Group">
        <path id="Path-19" data-name="Path" class="cls-15" d="M136.2187,162.3552l-2.5-1.4434,2.5-1.4434,2.5,1.4434Z"/>
        <path id="Path-20" data-name="Path" class="cls-16" d="M141.2188,156.5817l-5,2.8867,2.5,1.4434,5-2.8868Z"/>
      </g>
      <g id="Group-10" data-name="Group">
        <path id="Path-21" data-name="Path" class="cls-15" d="M101.2812,142.2029l-2.5-1.4434,2.5-1.4433,2.5,1.4433Z"/>
        <path id="Path-22" data-name="Path" class="cls-16" d="M106.2813,136.4294l-5,2.8868,2.5,1.4433,5-2.8867Z"/>
      </g>
      <g id="Group-11" data-name="Group">
        <path id="Path-23" data-name="Path" class="cls-15" d="M121.3437,153.7654l-2.5-1.4434,2.5-1.4433,2.5,1.4433Z"/>
        <path id="Path-24" data-name="Path" class="cls-16" d="M126.3438,147.9919l-5,2.8868,2.5,1.4433,5-2.8867Z"/>
      </g>
      <g id="Group-12" data-name="Group">
        <path id="Path-25" data-name="Path" class="cls-15" d="M91.2812,136.4294l-2.5-1.4434,2.5-1.4433,2.5,1.4433Z"/>
        <path id="Path-26" data-name="Path" class="cls-16" d="M96.2813,130.6559l-5,2.8868,2.5,1.4433,5-2.8867Z"/>
      </g>
      <g id="Group-13" data-name="Group">
        <path id="Path-27" data-name="Path" class="cls-15" d="M106.2812,145.09l-2.5-1.4434,2.5-1.4434,2.5,1.4434Z"/>
        <path id="Path-28" data-name="Path" class="cls-16" d="M111.2813,139.3162l-5,2.8867,2.5,1.4434,5-2.8868Z"/>
      </g>
      <g id="Group-14" data-name="Group">
        <path id="Path-29" data-name="Path" class="cls-15" d="M126.3437,156.6522l-2.5-1.4434,2.5-1.4434,2.5,1.4434Z"/>
        <path id="Path-30" data-name="Path" class="cls-16" d="M131.3438,150.8787l-5,2.8867,2.5,1.4434,5-2.8868Z"/>
      </g>
      <g id="Group-15" data-name="Group">
        <path id="Path-31" data-name="Path" class="cls-15" d="M81.2813,127.7692l2.5,1.4433-2.5,1.4434-2.5-1.4434Z"/>
        <path id="Path-32" data-name="Path" class="cls-16" d="M88.7813,126.3258l-5,2.8867-2.5-1.4433,5-2.8868Z"/>
      </g>
      <g id="Group-16" data-name="Group">
        <path id="Path-33" data-name="Path" class="cls-15" d="M111.1563,145.0192l2.5,1.4433-2.5,1.4434-2.5-1.4434Z"/>
        <path id="Path-34" data-name="Path" class="cls-16" d="M118.6563,143.5758l-5,2.8867-2.5-1.4433,5-2.8868Z"/>
      </g>
      <g id="Group-17" data-name="Group">
        <path id="Path-35" data-name="Path" class="cls-15" d="M131.2188,156.5817l2.5,1.4433-2.5,1.4434-2.5-1.4434Z"/>
        <path id="Path-36" data-name="Path" class="cls-16" d="M138.7188,155.1383l-5,2.8867-2.5-1.4433,5-2.8868Z"/>
      </g>
      <g id="Group-18" data-name="Group">
        <path id="Path-37" data-name="Path" class="cls-15" d="M96.2813,136.4294l2.5,1.4434-2.5,1.4434-2.5-1.4434Z"/>
        <path id="Path-38" data-name="Path" class="cls-16" d="M103.7813,134.986l-5,2.8868-2.5-1.4434,5-2.8868Z"/>
      </g>
    </g>
    <g id="Group-19" data-name="Group">
      <g id="Group-20" data-name="Group">
        <path id="Path-39" data-name="Path" class="cls-15" d="M208.7188,57.0379l-2.5-1.4434,2.5-4.33,2.5,1.4433Z"/>
        <path id="Path-40" data-name="Path" class="cls-16" d="M203.7188,59.9246l5-2.8867-2.5-1.4434-5,2.8867Z"/>
      </g>
      <g id="Group-21" data-name="Group">
        <path id="Path-41" data-name="Path" class="cls-15" d="M223.7188,65.6981l-2.5-1.4433,2.5-4.33,2.5,1.4434Z"/>
        <path id="Path-42" data-name="Path" class="cls-16" d="M218.7188,68.5849l5-2.8868-2.5-1.4433-5,2.8867Z"/>
      </g>
      <g id="Group-22" data-name="Group">
        <path id="Path-43" data-name="Path" class="cls-15" d="M238.7188,74.3584l-2.5-1.4434,2.5-4.33,2.5,1.4434Z"/>
        <path id="Path-44" data-name="Path" class="cls-16" d="M233.7188,77.2451l5-2.8867-2.5-1.4434-5,2.8868Z"/>
      </g>
      <g id="Group-23" data-name="Group">
        <path id="Path-45" data-name="Path" class="cls-15" d="M213.7188,59.9246l-2.5-1.4434,2.5-4.33,2.5,1.4434Z"/>
        <path id="Path-46" data-name="Path" class="cls-16" d="M208.7188,62.8114l5-2.8868-2.5-1.4434-5,2.8868Z"/>
      </g>
      <g id="Group-24" data-name="Group">
        <path id="Path-47" data-name="Path" class="cls-15" d="M228.7188,68.5849l-2.5-1.4434,2.5-4.33,2.5,1.4434Z"/>
        <path id="Path-48" data-name="Path" class="cls-16" d="M223.7188,71.4716l5-2.8867-2.5-1.4434-5,2.8868Z"/>
      </g>
      <g id="Group-25" data-name="Group">
        <path id="Path-49" data-name="Path" class="cls-15" d="M243.7188,77.2451l-2.5-1.4433,2.5-4.33,2.5,1.4434Z"/>
        <path id="Path-50" data-name="Path" class="cls-16" d="M238.7188,80.1319l5-2.8868-2.5-1.4433-5,2.8867Z"/>
      </g>
      <g id="Group-26" data-name="Group">
        <path id="Path-51" data-name="Path" class="cls-15" d="M248.7188,80.1319l-2.5-1.4434,2.5-4.33,2.5,1.4434Z"/>
        <path id="Path-52" data-name="Path" class="cls-16" d="M243.7188,83.0186l5-2.8867-2.5-1.4434-5,2.8868Z"/>
      </g>
      <g id="Group-27" data-name="Group">
        <path id="Path-53" data-name="Path" class="cls-15" d="M253.7188,83.0186l-2.5-1.4433,2.5-4.33,2.5,1.4434Z"/>
        <path id="Path-54" data-name="Path" class="cls-16" d="M248.7188,85.9054l5-2.8868-2.5-1.4433-5,2.8867Z"/>
      </g>
      <g id="Group-28" data-name="Group">
        <path id="Path-55" data-name="Path" class="cls-15" d="M258.7188,85.9054l-2.5-1.4434,2.5-4.33,2.5,1.4434Z"/>
        <path id="Path-56" data-name="Path" class="cls-16" d="M253.7188,88.7921l5-2.8867-2.5-1.4434-5,2.8868Z"/>
      </g>
      <g id="Group-29" data-name="Group">
        <path id="Path-57" data-name="Path" class="cls-15" d="M218.7188,62.8114l-2.5-1.4434,2.5-4.33,2.5,1.4434Z"/>
        <path id="Path-58" data-name="Path" class="cls-16" d="M213.7188,65.6981l5-2.8867-2.5-1.4434-5,2.8868Z"/>
      </g>
      <g id="Group-30" data-name="Group">
        <path id="Path-59" data-name="Path" class="cls-15" d="M233.7188,71.4716l-2.5-1.4433,2.5-4.33,2.5,1.4434Z"/>
        <path id="Path-60" data-name="Path" class="cls-16" d="M228.7188,74.3584l5-2.8868-2.5-1.4433-5,2.8867Z"/>
      </g>
    </g>
    <g id="Group-31" data-name="Group">
      <g id="Group-32" data-name="Group">
        <path id="Path-61" data-name="Path" class="cls-16" d="M151.2188,155.1874l5,2.8867,2.5-1.4433-5-2.8868Z"/>
        <path id="Path-62" data-name="Path" class="cls-15" d="M158.7188,159.5175l2.5-1.4434-2.5-1.4433-2.5,1.4433Z"/>
      </g>
      <g id="Group-33" data-name="Group">
        <path id="Path-63" data-name="Path" class="cls-16" d="M166.2188,146.5271l5,2.8868,2.5-1.4434-5-2.8867Z"/>
        <path id="Path-64" data-name="Path" class="cls-15" d="M173.7188,150.8573l2.5-1.4434-2.5-1.4434-2.5,1.4434Z"/>
      </g>
      <g id="Group-34" data-name="Group">
        <g id="Group-35" data-name="Group">
          <path id="Path-65" data-name="Path" class="cls-16" d="M156.2188,152.3006l5,2.8868,2.5-1.4434-5-2.8867Z"/>
          <path id="Path-66" data-name="Path" class="cls-15" d="M163.7188,156.6308l2.5-1.4434-2.5-1.4434-2.5,1.4434Z"/>
        </g>
      </g>
      <g id="Group-36" data-name="Group">
        <g id="Group-37" data-name="Group">
          <path id="Path-67" data-name="Path" class="cls-16" d="M171.2188,143.64l5,2.8867,2.5-1.4433-5-2.8868Z"/>
          <path id="Path-68" data-name="Path" class="cls-15" d="M178.7188,147.9705l2.5-1.4434-2.5-1.4433-2.5,1.4433Z"/>
        </g>
      </g>
      <g id="Group-38" data-name="Group">
        <g id="Group-39" data-name="Group">
          <path id="Path-69" data-name="Path" class="cls-16" d="M161.2188,149.4139l5,2.8867,2.5-1.4433-5-2.8868Z"/>
          <path id="Path-70" data-name="Path" class="cls-15" d="M168.7188,153.744l2.5-1.4434-2.5-1.4433-2.5,1.4433Z"/>
        </g>
      </g>
      <g id="Group-40" data-name="Group">
        <g id="Group-41" data-name="Group">
          <path id="Path-71" data-name="Path" class="cls-16" d="M176.2188,140.7536l5,2.8868,2.5-1.4434-5-2.8867Z"/>
          <path id="Path-72" data-name="Path" class="cls-15" d="M183.7188,145.0838l2.5-1.4434-2.5-1.4434-2.5,1.4434Z"/>
        </g>
      </g>
    </g>
    <g id="Group-42" data-name="Group">
      <g id="Group-43" data-name="Group">
        <path id="Path-73" data-name="Path" class="cls-16" d="M162.5,161.658l5,2.8868,2.5-1.4434-5-2.8867Z"/>
        <path id="Path-74" data-name="Path" class="cls-15" d="M170,165.9882l2.5-1.4434-2.5-1.4434-2.5,1.4434Z"/>
      </g>
      <g id="Group-44" data-name="Group">
        <path id="Path-75" data-name="Path" class="cls-16" d="M177.5,152.9978l5,2.8867,2.5-1.4433-5-2.8868Z"/>
        <path id="Path-76" data-name="Path" class="cls-15" d="M185,157.3279l2.5-1.4434-2.5-1.4433-2.5,1.4433Z"/>
      </g>
      <g id="Group-45" data-name="Group">
        <g id="Group-46" data-name="Group">
          <path id="Path-77" data-name="Path" class="cls-16" d="M167.5,158.7713l5,2.8867,2.5-1.4433-5-2.8868Z"/>
          <path id="Path-78" data-name="Path" class="cls-15" d="M175,163.1014l2.5-1.4434-2.5-1.4433-2.5,1.4433Z"/>
        </g>
      </g>
      <g id="Group-47" data-name="Group">
        <g id="Group-48" data-name="Group">
          <path id="Path-79" data-name="Path" class="cls-16" d="M182.5,150.111l5,2.8868,2.5-1.4434-5-2.8867Z"/>
          <path id="Path-80" data-name="Path" class="cls-15" d="M190,154.4412l2.5-1.4434-2.5-1.4434-2.5,1.4434Z"/>
        </g>
      </g>
      <g id="Group-49" data-name="Group">
        <g id="Group-50" data-name="Group">
          <path id="Path-81" data-name="Path" class="cls-16" d="M172.5,155.8845l5,2.8868,2.5-1.4434-5-2.8867Z"/>
          <path id="Path-82" data-name="Path" class="cls-15" d="M180,160.2147l2.5-1.4434-2.5-1.4434-2.5,1.4434Z"/>
        </g>
      </g>
      <g id="Group-51" data-name="Group">
        <g id="Group-52" data-name="Group">
          <path id="Path-83" data-name="Path" class="cls-16" d="M187.5,147.2243l5,2.8867,2.5-1.4433-5-2.8868Z"/>
          <path id="Path-84" data-name="Path" class="cls-15" d="M195,151.5544l2.5-1.4434-2.5-1.4433-2.5,1.4433Z"/>
        </g>
      </g>
    </g>
    <g id="Group-53" data-name="Group">
      <g id="Group-54" data-name="Group">
        <path id="Path-85" data-name="Path" class="cls-16" d="M106.25,80.1073l-5-2.8867-2.5,1.4433,5,2.8868Z"/>
      </g>
      <g id="Group-55" data-name="Group">
        <path id="Path-86" data-name="Path" class="cls-16" d="M91.25,88.7676l-5-2.8868-2.5,1.4434,5,2.8867Z"/>
      </g>
      <g id="Group-56" data-name="Group">
        <g id="Group-57" data-name="Group">
          <path id="Path-87" data-name="Path" class="cls-16" d="M101.25,82.9941l-5-2.8868-2.5,1.4434,5,2.8867Z"/>
        </g>
      </g>
      <g id="Group-58" data-name="Group">
        <g id="Group-59" data-name="Group">
          <path id="Path-88" data-name="Path" class="cls-16" d="M86.25,91.6543l-5-2.8867-2.5,1.4433,5,2.8868Z"/>
        </g>
      </g>
      <g id="Group-60" data-name="Group">
        <g id="Group-61" data-name="Group">
          <path id="Path-89" data-name="Path" class="cls-16" d="M96.25,85.8808l-5-2.8867-2.5,1.4433,5,2.8868Z"/>
        </g>
      </g>
      <g id="Group-62" data-name="Group">
        <g id="Group-63" data-name="Group">
          <path id="Path-90" data-name="Path" class="cls-16" d="M81.25,94.5411l-5-2.8868L75,92.376v1.4434l3.75,2.165Z"/>
        </g>
      </g>
    </g>
    <g id="Group-64" data-name="Group">
      <g id="Group-65" data-name="Group">
        <path id="Path-91" data-name="Path" class="cls-16" d="M136.25,62.7868l-5-2.8867-2.5,1.4433,5,2.8868Z"/>
      </g>
      <g id="Group-66" data-name="Group">
        <g id="Group-67" data-name="Group">
          <path id="Path-92" data-name="Path" class="cls-16" d="M146.25,57.0133l-5-2.8867-2.5,1.4433,5,2.8868Z"/>
        </g>
      </g>
      <g id="Group-68" data-name="Group">
        <g id="Group-69" data-name="Group">
          <path id="Path-93" data-name="Path" class="cls-16" d="M131.25,65.6736l-5-2.8868-2.5,1.4434,5,2.8867Z"/>
        </g>
      </g>
      <g id="Group-70" data-name="Group">
        <g id="Group-71" data-name="Group">
          <path id="Path-94" data-name="Path" class="cls-16" d="M141.25,59.9l-5-2.8868-2.5,1.4434,5,2.8867Z"/>
        </g>
      </g>
      <g id="Group-72" data-name="Group">
        <g id="Group-73" data-name="Group">
          <path id="Path-95" data-name="Path" class="cls-16" d="M126.25,68.56l-5-2.8867-2.5,1.4433,5,2.8868Z"/>
        </g>
      </g>
    </g>
    <g id="Group-74" data-name="Group">
      <g id="Group-75" data-name="Group">
        <path id="Path-96" data-name="Path" class="cls-16" d="M211.2188,120.5464l5,2.8867,2.5-1.4433-5-2.8868Z"/>
        <path id="Path-97" data-name="Path" class="cls-15" d="M218.7188,124.8765l2.5-1.4434-2.5-1.4433-2.5,1.4433Z"/>
      </g>
      <g id="Group-76" data-name="Group">
        <path id="Path-98" data-name="Path" class="cls-16" d="M196.2188,129.2066l5,2.8868,2.5-1.4434-5-2.8867Z"/>
        <path id="Path-99" data-name="Path" class="cls-15" d="M203.7188,133.5368l2.5-1.4434-2.5-1.4434-2.5,1.4434Z"/>
      </g>
      <g id="Group-77" data-name="Group">
        <g id="Group-78" data-name="Group">
          <path id="Path-100" data-name="Path" class="cls-16" d="M186.2188,134.98l5,2.8868,2.5-1.4434-5-2.8867Z"/>
          <path id="Path-101" data-name="Path" class="cls-15" d="M193.7188,139.31l2.5-1.4434-2.5-1.4434-2.5,1.4434Z"/>
        </g>
      </g>
      <g id="Group-79" data-name="Group">
        <g id="Group-80" data-name="Group">
          <path id="Path-102" data-name="Path" class="cls-16" d="M201.2188,126.32l5,2.8867,2.5-1.4433-5-2.8868Z"/>
          <path id="Path-103" data-name="Path" class="cls-15" d="M208.7188,130.65l2.5-1.4434-2.5-1.4433-2.5,1.4433Z"/>
        </g>
      </g>
      <g id="Group-81" data-name="Group">
        <g id="Group-82" data-name="Group">
          <path id="Path-104" data-name="Path" class="cls-16" d="M191.2188,132.0934l5,2.8867,2.5-1.4433-5-2.8868Z"/>
          <path id="Path-105" data-name="Path" class="cls-15" d="M198.7188,136.4235l2.5-1.4434-2.5-1.4433-2.5,1.4433Z"/>
        </g>
      </g>
      <g id="Group-83" data-name="Group">
        <g id="Group-84" data-name="Group">
          <path id="Path-106" data-name="Path" class="cls-16" d="M206.2188,123.4331l5,2.8868,2.5-1.4434-5-2.8867Z"/>
          <path id="Path-107" data-name="Path" class="cls-15" d="M213.7188,127.7633l2.5-1.4434-2.5-1.4434-2.5,1.4434Z"/>
        </g>
      </g>
    </g>
    <g id="Group-85" data-name="Group">
      <g id="Group-86" data-name="Group">
        <path id="Path-108" data-name="Path" class="cls-16" d="M222.5,127.017l5,2.8868L230,128.46l-5-2.8868Z"/>
        <path id="Path-109" data-name="Path" class="cls-15" d="M230,131.3471l2.5-1.4433L230,128.46l-2.5,1.4434Z"/>
      </g>
      <g id="Group-87" data-name="Group">
        <path id="Path-110" data-name="Path" class="cls-16" d="M207.5,135.6773l5,2.8867,2.5-1.4434-5-2.8867Z"/>
        <path id="Path-111" data-name="Path" class="cls-15" d="M215,140.0074l2.5-1.4434-2.5-1.4434-2.5,1.4434Z"/>
      </g>
      <g id="Group-88" data-name="Group">
        <g id="Group-89" data-name="Group">
          <path id="Path-112" data-name="Path" class="cls-16" d="M197.5,141.4508l5,2.8867,2.5-1.4434-5-2.8867Z"/>
          <path id="Path-113" data-name="Path" class="cls-15" d="M205,145.7809l2.5-1.4434-2.5-1.4434-2.5,1.4434Z"/>
        </g>
      </g>
      <g id="Group-90" data-name="Group">
        <g id="Group-91" data-name="Group">
          <path id="Path-114" data-name="Path" class="cls-16" d="M212.5,132.7905l5,2.8868,2.5-1.4434-5-2.8868Z"/>
          <path id="Path-115" data-name="Path" class="cls-15" d="M220,137.1206l2.5-1.4433-2.5-1.4434-2.5,1.4434Z"/>
        </g>
      </g>
      <g id="Group-92" data-name="Group">
        <g id="Group-93" data-name="Group">
          <path id="Path-116" data-name="Path" class="cls-16" d="M202.5,138.564l5,2.8868,2.5-1.4434-5-2.8868Z"/>
          <path id="Path-117" data-name="Path" class="cls-15" d="M210,142.8941l2.5-1.4433-2.5-1.4434-2.5,1.4434Z"/>
        </g>
      </g>
      <g id="Group-94" data-name="Group">
        <g id="Group-95" data-name="Group">
          <path id="Path-118" data-name="Path" class="cls-16" d="M217.5,129.9037l5,2.8868,2.5-1.4434-5-2.8867Z"/>
          <path id="Path-119" data-name="Path" class="cls-15" d="M225,134.2339l2.5-1.4434-2.5-1.4434-2.5,1.4434Z"/>
        </g>
      </g>
    </g>
    <g id="Group-96" data-name="Group">
      <g id="Group-97" data-name="Group">
        <path id="Path-120" data-name="Path" class="cls-16" d="M241.2188,103.2259l5,2.8867,2.5-1.4433-5-2.8868Z"/>
        <path id="Path-121" data-name="Path" class="cls-15" d="M248.7188,107.556l2.5-1.4434-2.5-1.4433-2.5,1.4433Z"/>
      </g>
      <g id="Group-98" data-name="Group">
        <path id="Path-122" data-name="Path" class="cls-16" d="M226.2188,111.8861l5,2.8868,2.5-1.4434-5-2.8867Z"/>
        <path id="Path-123" data-name="Path" class="cls-15" d="M233.7188,116.2163l2.5-1.4434-2.5-1.4434-2.5,1.4434Z"/>
      </g>
      <g id="Group-99" data-name="Group">
        <g id="Group-100" data-name="Group">
          <path id="Path-124" data-name="Path" class="cls-16" d="M246.2188,100.3391l5,2.8868,2.5-1.4434-5-2.8867Z"/>
          <path id="Path-125" data-name="Path" class="cls-15" d="M253.7188,104.6693l2.5-1.4434-2.5-1.4434-2.5,1.4434Z"/>
        </g>
      </g>
      <g id="Group-101" data-name="Group">
        <g id="Group-102" data-name="Group">
          <path id="Path-126" data-name="Path" class="cls-16" d="M231.2188,108.9994l5,2.8867,2.5-1.4433-5-2.8868Z"/>
          <path id="Path-127" data-name="Path" class="cls-15" d="M238.7188,113.33l2.5-1.4434-2.5-1.4433-2.5,1.4433Z"/>
        </g>
      </g>
      <g id="Group-103" data-name="Group">
        <g id="Group-104" data-name="Group">
          <path id="Path-128" data-name="Path" class="cls-16" d="M221.2188,114.7729l5,2.8867,2.5-1.4433-5-2.8868Z"/>
          <path id="Path-129" data-name="Path" class="cls-15" d="M228.7188,119.103l2.5-1.4434-2.5-1.4433-2.5,1.4433Z"/>
        </g>
      </g>
      <g id="Group-105" data-name="Group">
        <g id="Group-106" data-name="Group">
          <path id="Path-130" data-name="Path" class="cls-16" d="M236.2188,106.1126l5,2.8868,2.5-1.4434-5-2.8867Z"/>
          <path id="Path-131" data-name="Path" class="cls-15" d="M243.7188,110.4428l2.5-1.4434-2.5-1.4434-2.5,1.4434Z"/>
        </g>
      </g>
    </g>
    <g id="Group-107" data-name="Group">
      <g id="Group-108" data-name="Group">
        <path id="Path-132" data-name="Path" class="cls-16" d="M252.5,109.6965l5,2.8867L260,111.14l-5-2.8868Z"/>
        <path id="Path-133" data-name="Path" class="cls-15" d="M260,114.0266l2.5-1.4434L260,111.14l-2.5,1.4433Z"/>
      </g>
      <g id="Group-109" data-name="Group">
        <path id="Path-134" data-name="Path" class="cls-16" d="M237.5,118.3567l5,2.8868L245,119.8l-5-2.8867Z"/>
        <path id="Path-135" data-name="Path" class="cls-15" d="M245,122.6869l2.5-1.4434L245,119.8l-2.5,1.4434Z"/>
      </g>
      <g id="Group-110" data-name="Group">
        <g id="Group-111" data-name="Group">
          <path id="Path-136" data-name="Path" class="cls-16" d="M257.5,106.81l5,2.8868,2.5-1.4434-5-2.8867Z"/>
          <path id="Path-137" data-name="Path" class="cls-15" d="M265,111.14l2.5-1.4434-2.5-1.4434-2.5,1.4434Z"/>
        </g>
      </g>
      <g id="Group-112" data-name="Group">
        <g id="Group-113" data-name="Group">
          <path id="Path-138" data-name="Path" class="cls-16" d="M242.5,115.47l5,2.8867,2.5-1.4433-5-2.8868Z"/>
          <path id="Path-139" data-name="Path" class="cls-15" d="M250,119.8l2.5-1.4434-2.5-1.4433-2.5,1.4433Z"/>
        </g>
      </g>
      <g id="Group-114" data-name="Group">
        <g id="Group-115" data-name="Group">
          <path id="Path-140" data-name="Path" class="cls-16" d="M232.5,121.2435l5,2.8867,2.5-1.4433L235,119.8Z"/>
          <path id="Path-141" data-name="Path" class="cls-15" d="M240,125.5736l2.5-1.4434-2.5-1.4433-2.5,1.4433Z"/>
        </g>
      </g>
      <g id="Group-116" data-name="Group">
        <g id="Group-117" data-name="Group">
          <path id="Path-142" data-name="Path" class="cls-16" d="M247.5,112.5832l5,2.8868,2.5-1.4434-5-2.8867Z"/>
          <path id="Path-143" data-name="Path" class="cls-15" d="M255,116.9134l2.5-1.4434-2.5-1.4434-2.5,1.4434Z"/>
        </g>
      </g>
    </g>
    <g class="cls-3">
      <path id="Path-144" data-name="Path" class="cls-2" d="M160,184.7521,315,95.2628V89.4893L160,178.9786Z"/>
    </g>
    <g class="cls-3">
      <path id="Path-145" data-name="Path" class="cls-4" d="M310,89.4893h5L160,178.9786v-2.8868Z"/>
    </g>
    <g class="cls-3">
      <path id="Path-146" data-name="Path" class="cls-2" d="M5,95.2627V89.4892l155,89.4894v5.7735Z"/>
    </g>
    <path id="Path-147" data-name="Path" class="cls-15" d="M122.5,85.1591,105,75.0555l10-5.7735,17.5,10.1036Z"/>
    <g class="cls-3">
      <path id="Path-148" data-name="Path" class="cls-4" d="M160,176.0918,10,89.4892H5l155,89.4894Z"/>
    </g>
    <g class="cls-3">
      <path id="Path-149" data-name="Path" class="cls-2" d="M30,83.7158V77.9423L10,89.4892l5,2.8868"/>
    </g>
    <g class="cls-3">
      <path id="Path-150" data-name="Path" class="cls-4" d="M5,89.4892l22.5-12.99L30,77.9423,10,89.4892Z"/>
    </g>
    <g id="Group-118" data-name="Group">
      <path id="Path-151" data-name="Path" class="cls-6" d="M35.4164,101.5179l11.6658,6.7352,2.9165-1.6838L38.3329,99.8341Z"/>
      <g id="Group-119" data-name="Group">
        <g id="Group-120" data-name="Group">
          <path id="Compound_Shape-3" data-name="Compound Shape" class="cls-17" d="M39.305,101.68h0c0,.31-.4356.5613-.9721.5613s-.9722-.2515-.9722-.5613h0V97.19H39.305v4.49Z"/>
          <ellipse id="Ellipse-3" data-name="Ellipse" class="cls-18" cx="38.3329" cy="90.1302" rx="5.8329" ry="7.8578"/>
        </g>
        <g id="Group-121" data-name="Group">
          <path id="Compound_Shape-4" data-name="Compound Shape" class="cls-19" d="M48.0544,106.7317h0c0,.31-.4356.5612-.9722.5612s-.9721-.2515-.9721-.5612h0v-4.49h1.9443v4.49Z"/>
          <ellipse id="Ellipse-4" data-name="Ellipse" class="cls-20" cx="47.0822" cy="95.1816" rx="5.8329" ry="7.8578"/>
        </g>
      </g>
    </g>
    <g id="Group-122" data-name="Group">
      <path id="Path-152" data-name="Path" class="cls-21" d="M98.7187,100.3391l15,8.66-25,14.4337,56.25,32.476,110-63.5085-56.25-32.476-25,14.4338-15-8.66Z"/>
      <path id="Path-153" data-name="Path" class="cls-22" d="M198.7188,59.9246v5.7735l-25,14.4338V74.3584Z"/>
      <path id="Path-154" data-name="Path" class="cls-23" d="M158.7188,65.6981v5.7735l15,8.66V74.3584Z"/>
      <path id="Path-155" data-name="Path" class="cls-22" d="M103.7187,103.2259l55-31.7543V65.6981l-60,34.641Z"/>
      <path id="Path-156" data-name="Path" class="cls-22" d="M113.7187,108.9994v5.7735l-20,11.547-5-2.8868Z"/>
      <path id="Path-157" data-name="Path" class="cls-23" d="M198.7188,65.6981V59.9246l56.25,32.476-5,2.8867Z"/>
      <path id="Path-158" data-name="Path" class="cls-21" d="M123.7187,85.9054l2.5,1.4434,10-5.7735-2.5-1.4434Z"/>
      <path id="Path-159" data-name="Path" class="cls-21" d="M126.2187,90.2355l2.5,1.4434,10-5.7735-2.5-1.4434Z"/>
      <path id="Path-160" data-name="Path" class="cls-22" d="M126.2187,90.2355V87.3488l10-5.7735V84.462Z"/>
      <path id="Path-161" data-name="Path" class="cls-22" d="M128.7187,91.6789v2.8867l10-5.7735V85.9054Z"/>
      <path id="Path-162" data-name="Path" class="cls-23" d="M123.7187,91.6789l5,2.8867V91.6789l-2.5-1.4434V87.3488l-2.5-1.4434Z"/>
      <g id="Group-123" data-name="Group">
        <path id="Path-163" data-name="Path" class="cls-16" d="M144.9688,157.3525v-1.4434l110-63.5085h2.5Z"/>
        <path id="Path-164" data-name="Path" class="cls-16" d="M88.7187,123.4331h-2.5l58.75,33.9194v-1.4434Z"/>
        <path id="Path-165" data-name="Path" class="cls-16" d="M198.7188,59.9246V58.4812l58.75,33.9194h-2.5Z"/>
        <path id="Path-166" data-name="Path" class="cls-16" d="M86.2187,123.4331l25-14.4337h2.5l-25,14.4337Z"/>
        <path id="Path-167" data-name="Path" class="cls-16" d="M98.7187,100.3391h-2.5l15,8.66h2.5Z"/>
        <path id="Path-168" data-name="Path" class="cls-16" d="M173.7188,74.3584V72.915l25-14.4338v1.4434Z"/>
        <path id="Path-169" data-name="Path" class="cls-16" d="M96.2187,100.3391l62.5-36.0843v1.4433l-60,34.641Z"/>
        <path id="Path-170" data-name="Path" class="cls-16" d="M173.7188,72.915l-15-8.66v1.4433l15,8.66Z"/>
      </g>
      <path id="Path-171" data-name="Path" class="cls-24" d="M134.9687,92.4006V89.5138l-8.75-10.8253v2.8868"/>
    </g>
    <g id="Group-124" data-name="Group">
      <path id="Path-172" data-name="Path" class="cls-16" d="M167.5,56.2916V54.8482l-1.25.7217v1.4434Z"/>
      <path id="Path-173" data-name="Path" class="cls-15" d="M166.25,55.57h0v1.4434L165,56.2916Z"/>
      <path id="Path-174" data-name="Path" class="cls-25" d="M162.5,56.2916l5-2.8868L155,46.188l-5,2.8867Z"/>
      <path id="Path-175" data-name="Path" class="cls-16" d="M167.5,54.8482V53.4048l-5,2.8868V57.735Z"/>
      <path id="Path-176" data-name="Path" class="cls-15" d="M150,49.0747l-1.25.7217L162.5,57.735V56.2916Z"/>
      <path id="Path-177" data-name="Path" class="cls-16" d="M163.75,58.4567V57.0133l-1.25.7217v1.4433Z"/>
      <path id="Path-178" data-name="Path" class="cls-16" d="M158.75,55.57l-1.25-.7217v1.4434Z"/>
      <path id="Path-179" data-name="Path" class="cls-16" d="M153.75,52.6955l-1.25-.7216v1.4433Z"/>
      <path id="Path-180" data-name="Path" class="cls-15" d="M158.75,57.0133l1.25.7217V56.2916l-1.25-.7217Z"/>
      <path id="Path-181" data-name="Path" class="cls-15" d="M153.75,54.1266l1.25.7216V53.4049l-1.25-.7217Z"/>
      <path id="Path-182" data-name="Path" class="cls-15" d="M148.75,51.2522l1.25.7217V50.5305l-1.25-.7217Z"/>
      <path id="Path-183" data-name="Path" class="cls-16" d="M161.25,57.0133,160,57.735V56.2916Z"/>
      <path id="Path-184" data-name="Path" class="cls-16" d="M156.25,54.1266l-1.25.7216V53.4049Z"/>
      <path id="Path-185" data-name="Path" class="cls-16" d="M151.25,51.2522l-1.25.7217V50.5305Z"/>
      <path id="Path-186" data-name="Path" class="cls-15" d="M162.5,59.1783l-1.25-.7216V57.0133l1.25.7217Z"/>
      <path id="Path-187" data-name="Path" class="cls-15" d="M157.5,56.2916l-1.25-.7217V54.1266l1.25.7216Z"/>
      <path id="Path-188" data-name="Path" class="cls-15" d="M152.5,53.4172l-1.25-.7217V51.2522l1.25.7217Z"/>
      <path id="Path-189" data-name="Path" class="cls-26" d="M162.5,54.8482V53.4048l2.5-1.4433v1.4433Z"/>
      <path id="Path-190" data-name="Path" class="cls-27" d="M151.25,48.353l1.25-.7217,10,5.7735v1.4434Z"/>
      <path id="Path-191" data-name="Path" class="cls-28" d="M165,51.9615,155,46.188l-2.5,1.4433,10,5.7735Z"/>
    </g>
    <g id="Group-125" data-name="Group">
      <path id="Path-192" data-name="Path" class="cls-16" d="M80,106.81v-1.4434l-1.25.7217v1.4434Z"/>
      <path id="Path-193" data-name="Path" class="cls-15" d="M78.75,106.0881h0v1.4434L77.5,106.81Z"/>
      <path id="Path-194" data-name="Path" class="cls-25" d="M75,106.81l5-2.8868-5-2.8867V106.81Z"/>
      <path id="Path-195" data-name="Path" class="cls-16" d="M80,105.3664V103.923L75,106.81v1.4434Z"/>
      <path id="Path-196" data-name="Path" class="cls-16" d="M76.25,108.9748v-1.4433l-1.25.7217v1.4433Z"/>
      <path id="Path-197" data-name="Path" class="cls-26" d="M75,105.3664V103.923l2.5-1.4433v1.4433Z"/>
      <path id="Path-198" data-name="Path" class="cls-29" d="M77.5,102.48,75,101.0363v2.8867h0Z"/>
    </g>
    <g id="Group-126" data-name="Group">
      <path id="Path-199" data-name="Path" class="cls-13" d="M32.5,62.0651l40,23.094L75,83.7158,35,60.6217Z"/>
      <path id="Path-200" data-name="Path" class="cls-11" d="M35,63.5085V60.6217l-2.5,1.4434Z"/>
    </g>
    <g id="Group-127" data-name="Group">
      <path id="Path-201" data-name="Path" class="cls-13" d="M72.5,38.9711l40,23.094,2.5-1.4434L75,37.5277Z"/>
      <path id="Path-202" data-name="Path" class="cls-11" d="M75,40.4145V37.5277l-2.5,1.4434Z"/>
    </g>
    <g id="Group-128" data-name="Group">
      <path id="Path-203" data-name="Path" class="cls-13" d="M52.5,50.5181l40,23.094L95,72.1688,55,49.0747Z"/>
      <path id="Path-204" data-name="Path" class="cls-11" d="M55,51.9615V49.0747l-2.5,1.4434Z"/>
    </g>
    <g id="Group-129" data-name="Group">
      <path id="Path-205" data-name="Path" class="cls-13" d="M92.5,27.4241l40,23.094,2.5-1.4434L95,25.9807Z"/>
      <path id="Path-206" data-name="Path" class="cls-11" d="M95,28.8674V25.9807l-2.5,1.4434Z"/>
    </g>
    <g id="Group-130" data-name="Group">
      <path id="Path-207" data-name="Path" class="cls-13" d="M42.5,56.2916l40,23.094L85,77.9423,45,54.8482Z"/>
      <path id="Path-208" data-name="Path" class="cls-11" d="M45,57.735V54.8482l-2.5,1.4434Z"/>
    </g>
    <g id="Group-131" data-name="Group">
      <path id="Path-209" data-name="Path" class="cls-13" d="M82.5,33.1976l40,23.094,2.5-1.4433L85,31.7542Z"/>
      <path id="Path-210" data-name="Path" class="cls-11" d="M85,34.641V31.7542l-2.5,1.4434Z"/>
    </g>
    <g id="Group-132" data-name="Group">
      <path id="Path-211" data-name="Path" class="cls-13" d="M62.5,44.7446l40,23.094,2.5-1.4433L65,43.3012Z"/>
      <path id="Path-212" data-name="Path" class="cls-11" d="M65,46.188V43.3012l-2.5,1.4434Z"/>
    </g>
    <g id="Group-133" data-name="Group">
      <path id="Path-213" data-name="Path" class="cls-13" d="M102.5,21.6506l40,23.094,2.5-1.4434-40-23.094Z"/>
      <path id="Path-214" data-name="Path" class="cls-11" d="M105,23.0939V20.2072l-2.5,1.4434Z"/>
    </g>
    <g id="Group-134" data-name="Group">
      <path id="Path-215" data-name="Path" class="cls-13" d="M107.5,18.7638l40,23.0941,2.5-1.4434-40-23.094Z"/>
      <path id="Path-216" data-name="Path" class="cls-11" d="M110,20.2072V17.3205l-2.5,1.4433Z"/>
    </g>
    <g id="Group-135" data-name="Group">
      <path id="Path-217" data-name="Path" class="cls-13" d="M117.5,12.99l40,23.0941L160,34.641,120,11.547Z"/>
      <path id="Path-218" data-name="Path" class="cls-11" d="M120,14.4337V11.547L117.5,12.99Z"/>
    </g>
    <g id="Group-136" data-name="Group">
      <path id="Path-219" data-name="Path" class="cls-13" d="M112.5,15.8771l40,23.094,2.5-1.4433L115,14.4337Z"/>
      <path id="Path-220" data-name="Path" class="cls-11" d="M115,17.32V14.4337l-2.5,1.4434Z"/>
    </g>
    <g id="Group-137" data-name="Group">
      <path id="Path-221" data-name="Path" class="cls-13" d="M37.5,59.1784l40,23.094L80,80.829,40,57.735Z"/>
      <path id="Path-222" data-name="Path" class="cls-11" d="M40,60.6217V57.735l-2.5,1.4434Z"/>
    </g>
    <g id="Group-138" data-name="Group">
      <path id="Path-223" data-name="Path" class="cls-13" d="M77.5,36.0844l40,23.094L120,57.735,80,34.641Z"/>
      <path id="Path-224" data-name="Path" class="cls-11" d="M80,37.5277V34.641l-2.5,1.4433Z"/>
    </g>
    <g id="Group-139" data-name="Group">
      <path id="Path-225" data-name="Path" class="cls-13" d="M57.5,47.6314l40,23.094L100,69.282,60,46.188Z"/>
      <path id="Path-226" data-name="Path" class="cls-11" d="M60,49.0747V46.188l-2.5,1.4434Z"/>
    </g>
    <g id="Group-140" data-name="Group">
      <path id="Path-227" data-name="Path" class="cls-13" d="M97.5,24.5373l40,23.094L140,46.188,100,23.0939Z"/>
      <path id="Path-228" data-name="Path" class="cls-11" d="M100,25.9807V23.0939l-2.5,1.4434Z"/>
    </g>
    <g id="Group-141" data-name="Group">
      <path id="Path-229" data-name="Path" class="cls-13" d="M47.5,53.4049l40,23.094L90,75.0555,50,51.9615Z"/>
      <path id="Path-230" data-name="Path" class="cls-11" d="M50,54.8482V51.9615l-2.5,1.4434Z"/>
    </g>
    <g id="Group-142" data-name="Group">
      <path id="Path-231" data-name="Path" class="cls-13" d="M87.5,30.3108l40,23.0941,2.5-1.4434L90,28.8674Z"/>
      <path id="Path-232" data-name="Path" class="cls-11" d="M90,31.7542V28.8674l-2.5,1.4434Z"/>
    </g>
    <g id="Group-143" data-name="Group">
      <path id="Path-233" data-name="Path" class="cls-13" d="M67.5,41.8579l40,23.094,2.5-1.4434L70,40.4145Z"/>
      <path id="Path-234" data-name="Path" class="cls-11" d="M70,43.3012V40.4145l-2.5,1.4434Z"/>
    </g>
    <path id="Path-235" data-name="Path" class="cls-30" d="M168.75,54.1266V38.2494l8.75-5.0518V49.0747Z"/>
    <line id="Path-236" data-name="Path" class="cls-31" x1="168.75" y1="42.5795" x2="177.5" y2="37.5277"/>
    <line id="Path-237" data-name="Path" class="cls-31" x1="172.5" y1="51.9615" x2="172.5" y2="40.4145"/>
    <path id="Path-238" data-name="Path" class="cls-14" d="M178.75,32.4759v17.32l-1.25-.7217V33.1976Z"/>
    <path id="Path-239" data-name="Path" class="cls-1" d="M168.75,55.57V54.1266l8.75-5.0519,1.25.7217Z"/>
    <path id="Path-240" data-name="Path" class="exterior-R-prim" d="M162.5,15.8771V10.1036l-5,2.8867Z"/>
  </g>
</svg>
