<?xml version="1.0" encoding="utf-8"?>
<svg version="1.1" id="0_83"
	 xmlns="http://www.w3.org/2000/svg" xmlns:xlink="http://www.w3.org/1999/xlink" x="0px" y="0px" viewBox="0 0 180 158.77"
	 style="enable-background:new 0 0 180 158.77;" xml:space="preserve">
<style type="text/css">
	.concrete_x002D_T1{fill:#E8E8E8;}
	.concrete_x002D_L1{fill:#A2A2A2;}
	.concrete_x002D_R1{fill:#D1D1D1;}
	.exterior_x002D_L2{fill:#B0A59B;}
	.exterior_x002D_R4{fill:#F7F2EF;}
	.exterior_x002D_T4{fill:#FFFCFA;}
	.window_x002D_L1{fill:#224F64;}
	.window_x002D_L4{fill:#457D95;}
	.window_x002D_R1{fill:#4C8FAC;}
	.window_x002D_R4{fill:#59ADD0;}
</style>
<switch>
	<g>
		<g id="Group">
			<path id="Path" class="concrete_x002D_T1" d="M90,155.89l90-51.96L90,51.96L0,103.92L90,155.89z"/>
			<path id="body-R2" class="exterior_x002D_R4" d="M90,75.06l65-37.53v63.51l-65,37.53V75.06z"/>
			<path id="body-L2" class="exterior_x002D_L2" d="M90,75.06L25,37.53v63.51l65,37.53V75.06z"/>
			<g id="windows-R2">
				<path id="Path_1_" class="window_x002D_R1" d="M95,72.17l10-5.77v11.55l-10,5.77V72.17z"/>
				<path id="Path_2_" class="window_x002D_R1" d="M110,63.51l10-5.77v11.55l-10,5.77V63.51z"/>
				<path id="Path_3_" class="window_x002D_R1" d="M125,54.85l10-5.77v11.55l-10,5.77V54.85z"/>
				<path id="Path_4_" class="window_x002D_R1" d="M140,46.19l10-5.77v11.55l-10,5.77V46.19z"/>
				<path id="Path_5_" class="window_x002D_R1" d="M95,106.81l10-5.77v11.55l-10,5.77V106.81z"/>
				<path id="Path_6_" class="window_x002D_R1" d="M110,98.15l10-5.77v11.55l-10,5.77V98.15z"/>
				<path id="Path_7_" class="window_x002D_R1" d="M125,89.49l10-5.77v11.55l-10,5.77V89.49z"/>
				<path id="Path_8_" class="window_x002D_R1" d="M140,80.83l10-5.77V86.6l-10,5.77V80.83z"/>
				<path id="Path_9_" class="window_x002D_R1" d="M95,89.49l10-5.77v11.55l-10,5.77V89.49z"/>
				<path id="Path_10_" class="window_x002D_R1" d="M110,80.83l10-5.77V86.6l-10,5.77V80.83z"/>
				<path id="Path_11_" class="window_x002D_R1" d="M125,72.17l10-5.77v11.55l-10,5.77V72.17z"/>
				<path id="Path_12_" class="window_x002D_R1" d="M140,63.51l10-5.77v11.55l-10,5.77V63.51z"/>
				<path id="Path_13_" class="window_x002D_R1" d="M95,124.13l10-5.77v11.55l-10,5.77V124.13z"/>
				<path id="Path_14_" class="window_x002D_R1" d="M110,115.47l10-5.77v11.55l-10,5.77V115.47z"/>
				<path id="Path_15_" class="window_x002D_R1" d="M125,106.81l10-5.77v11.55l-10,5.77V106.81z"/>
				<path id="Path_16_" class="window_x002D_R1" d="M140,98.15l10-5.77v11.55l-10,5.77V98.15z"/>
			</g>
			<g id="windows-L2">
				<path id="Path_17_" class="window_x002D_L1" d="M85,72.17L75,66.4v11.55l10,5.77V72.17z"/>
				<path id="Path_18_" class="window_x002D_L1" d="M70,63.51l-10-5.77v11.55l10,5.77V63.51z"/>
				<path id="Path_19_" class="window_x002D_L1" d="M55,54.85l-10-5.77v11.55l10,5.77V54.85z"/>
				<path id="Path_20_" class="window_x002D_L1" d="M40,46.19l-10-5.77v11.55l10,5.77V46.19z"/>
				<path id="Path_21_" class="window_x002D_L1" d="M85,106.81l-10-5.77v11.55l10,5.77V106.81z"/>
				<path id="Path_22_" class="window_x002D_L1" d="M70,98.15l-10-5.77v11.55l10,5.77V98.15z"/>
				<path id="Path_23_" class="window_x002D_L1" d="M55,89.49l-10-5.77v11.55l10,5.77V89.49z"/>
				<path id="Path_24_" class="window_x002D_L1" d="M40,80.83l-10-5.77V86.6l10,5.77V80.83z"/>
				<path id="Path_25_" class="window_x002D_L1" d="M85,89.49l-10-5.77v11.55l10,5.77V89.49z"/>
				<path id="Path_26_" class="window_x002D_L1" d="M70,80.83l-10-5.77V86.6l10,5.77V80.83z"/>
				<path id="Path_27_" class="window_x002D_L1" d="M55,72.17L45,66.4v11.55l10,5.77V72.17z"/>
				<path id="Path_28_" class="window_x002D_L1" d="M40,63.51l-10-5.77v11.55l10,5.77V63.51z"/>
				<path id="Path_29_" class="window_x002D_L1" d="M85,124.13l-10-5.77v11.55l10,5.77V124.13z"/>
				<path id="Path_30_" class="window_x002D_L1" d="M70,115.47l-10-5.77v11.55l10,5.77V115.47z"/>
				<path id="Path_31_" class="window_x002D_L1" d="M55,106.81l-10-5.77v11.55l10,5.77V106.81z"/>
				<path id="Path_32_" class="window_x002D_L1" d="M40,98.15l-10-5.77v11.55l10,5.77V98.15z"/>
			</g>
			<path id="windows-R4" class="window_x002D_R4" d="M125,106.81l5-2.89v11.55l-5,2.89V106.81z"/>
			<path id="windows-R4_1_" class="window_x002D_R4" d="M140,98.15l5-2.89v11.55l-5,2.89V98.15z"/>
			<path id="windows-R4_2_" class="window_x002D_R4" d="M110,115.47l5-2.89v11.55l-5,2.89V115.47z"/>
			<path id="windows-R4_3_" class="window_x002D_R4" d="M95,124.13l5-2.89v11.55l-5,2.89V124.13z"/>
			<path id="windows-L3" class="window_x002D_L4" d="M55,106.81l-5-2.89v11.55l5,2.89V106.81z"/>
			<path id="windows-L3_1_" class="window_x002D_L4" d="M40,98.15l-5-2.89v11.55l5,2.89V98.15z"/>
			<path id="windows-L3_2_" class="window_x002D_L4" d="M70,115.47l-5-2.89v11.55l5,2.89V115.47z"/>
			<path id="windows-L3_3_" class="window_x002D_L4" d="M85,124.13l-5-2.89v11.55l5,2.89V124.13z"/>
			<path id="Path_33_" class="concrete_x002D_R1" d="M90,155.89v2.89l90-51.96v-2.89L90,155.89z"/>
			<path id="Path_34_" class="concrete_x002D_L1" d="M90,155.89v2.89L0,106.81v-2.89L90,155.89z"/>
			<path id="_x34_32-base-11-01_x5F_83.72" class="exterior_x002D_T4" d="M25,37.53L90,0l65,37.53L90,75.06L25,37.53z"/>
		</g>
	</g>
</switch>

</svg>
