<svg id="Layer_1" data-name="Layer 1" xmlns="http://www.w3.org/2000/svg" viewBox="0 0 300 329.0896">
  <defs>
    <style>
      .concrete-top {
        fill: #e8e8e8;
      }

      .concrete-right {
        fill: #d2d2d1;
      }

      .concrete-left {
        fill: #a2a1a1;
      }

      .curtain-L-prim-light {
        fill: #196273;
      }

      .exterior-L-prim {
        fill: #73302f;
      }

      .exterior-R-prim {
        fill: #d15752;
      }

      .curtain-L-prim-dark {
        fill: #11424d;
      }

      .top-light {
        fill: #fac7c6;
      }

      .top-prim {
        fill: #dd8987;
      }

      .cls-1 {
        fill: #dbc8b9;
      }

      .curtain-R-prim-dark {
        fill: #21788c;
      }

      .cls-2 {
        fill: #d5bead;
      }

      .cls-3 {
        fill: #2e3031;
      }

      .cls-4 {
        fill: #0a0a0a;
      }

      .cls-5 {
        fill: #5c6067;
      }

      .cls-6 {
        fill: #7b7d83;
      }

      .curtain-R-prim-light {
        fill: #2b95ac;
      }
    </style>
  </defs>
  <title>Artboard 31</title>
  <path id="Path" class="concrete-top" d="M5,233.8269l140-80.8291,155,89.4894-140,80.829Z"/>
  <path id="Path-2" data-name="Path" class="concrete-right" d="M300,242.4872v5.7734L160,329.09v-5.7734Z"/>
  <path id="Path-3" data-name="Path" class="concrete-left" d="M5,239.6005,160,329.09v-5.7734L5,233.8269Z"/>
  <path id="windows-L4" class="curtain-L-prim-light" d="M182.5,272.6847v25.9808l-30-17.32V255.3643Z"/>
  <path id="body-L1" class="exterior-L-prim" d="M35,210.7329H25v23.094l5,2.8867,5-2.8867Z"/>
  <path id="body-R2" class="exterior-R-prim" d="M30,236.7136V210.7329l5,2.8867v20.2073Z"/>
  <path id="Path-4" data-name="Path" class="curtain-L-prim-dark" d="M167.5,290.0054v-23.094l7.5,4.33v23.0939Z"/>
  <path id="body-L1-2" data-name="body-L1" class="exterior-L-prim" d="M67.5,229.4967h-10v23.094l5,2.8868,5-2.8867Z"/>
  <path id="body-R2-2" data-name="body-R2" class="exterior-R-prim" d="M62.5,255.4775V229.4967l5,2.8868v20.2072Z"/>
  <path id="body-L1-3" data-name="body-L1" class="exterior-L-prim" d="M100,248.2606H90v23.094l5,2.8867,5-2.8866Z"/>
  <path id="body-R2-3" data-name="body-R2" class="exterior-R-prim" d="M95,274.2413V248.1475l5,2.8867v20.32Z"/>
  <path id="body-L1-4" data-name="body-L1" class="exterior-L-prim" d="M132.5,267.0245l-10-6v29.094l5,2.8867,5-2.8865Z"/>
  <path id="body-R2-4" data-name="body-R2" class="exterior-R-prim" d="M127.5,293.0052V263.9113l5,2.8867v23.32Z"/>
  <path id="body-L1-5" data-name="body-L1" class="exterior-L-prim" d="M160,311.7692l5-2.8868V280.0149l-5,2.8867-5-2.8867v28.8675Z"/>
  <path id="body-R2-5" data-name="body-R2" class="exterior-R-prim" d="M160,282.9016l5-2.8867v28.8675l-5,2.8868Z"/>
  <path id="top-T1" class="top-light" d="M160,184.7521,280,115.47,120,23.094,0,92.376Z"/>
  <path id="top-T2" class="top-prim" d="M10,92.376,120,28.8676,270,115.47,160,178.9786Z"/>
  <path id="Path-5" data-name="Path" class="exterior-L-prim" d="M130,40.4146V34.641L270,115.47l-5,2.8868Z"/>
  <path id="Path-6" data-name="Path" class="exterior-R-prim" d="M120,28.8676V34.641L15,95.2628,10,92.376Z"/>
  <path id="Path-7" data-name="Path" class="cls-1" d="M30,103.9231l115,66.3953,15-8.66L45,95.2628Z"/>
  <path id="body-L1-6" data-name="body-L1" class="exterior-L-prim" d="M30,80.8291l-5-2.8867v17.32L30,98.15Z"/>
  <path id="body-R2-6" data-name="body-R2" class="exterior-R-prim" d="M30,98.15v-17.32l5-2.8867v17.32Z"/>
  <path id="body-L1-7" data-name="body-L1" class="exterior-R-prim" d="M250,103.923l5-2.8866v17.32l-5,2.8867Z"/>
  <path id="body-R2-7" data-name="body-R2" class="exterior-L-prim" d="M250,121.2435v-17.32l-5-2.8866v17.32Z"/>
  <path id="windows-R1" class="curtain-R-prim-dark" d="M185,268.4679,280,213.62v28.8676l-95,54.8482Z"/>
  <path id="Path-8" data-name="Path" class="cls-2" d="M75,129.9041l5-2.8869L75,124.13l-5,2.8868Z"/>
  <path id="Path-9" data-name="Path" class="cls-2" d="M65,124.13l5-2.8866-5-2.8869-5,2.8869Z"/>
  <path id="Path-10" data-name="Path" class="cls-2" d="M115,152.998l5-2.8867-5-2.8868-5,2.8868Z"/>
  <path id="Path-11" data-name="Path" class="cls-2" d="M135,164.5449l5-2.8867-5-2.8867-5,2.8867Z"/>
  <path id="Path-12" data-name="Path" class="cls-2" d="M145,170.3185l5-2.8869-5-2.8868-5,2.8868Z"/>
  <path id="Path-13" data-name="Path" class="cls-2" d="M45,112.5834l5-2.8866L45,106.81l-5,2.8869Z"/>
  <path id="Path-14" data-name="Path" class="cls-2" d="M95,141.451l5-2.8868-5-2.8867-5,2.8867Z"/>
  <path id="Path-15" data-name="Path" class="cls-2" d="M35,106.81l5-2.8868-5-2.8867-5,2.8867Z"/>
  <path id="Path-16" data-name="Path" class="cls-2" d="M85,135.6775l5-2.8867-5-2.8869-5,2.8869Z"/>
  <path id="Path-17" data-name="Path" class="cls-2" d="M55,118.3569l5-2.8868-5-2.8867L50,115.47Z"/>
  <path id="Path-18" data-name="Path" class="cls-2" d="M105,147.2245l5-2.8867-5-2.8869-5,2.8869Z"/>
  <path id="Path-19" data-name="Path" class="cls-2" d="M125,158.7715l5-2.8869-5-2.8868-5,2.8868Z"/>
  <path id="Path-20" data-name="Path" class="cls-2" d="M85,129.9039l5-2.8867L85,124.13l-5,2.8868Z"/>
  <path id="Path-21" data-name="Path" class="cls-2" d="M75,124.13l5-2.8866-5-2.8869-5,2.8869Z"/>
  <path id="Path-22" data-name="Path" class="cls-2" d="M125,152.998l5-2.8868-5-2.8867-5,2.8867Z"/>
  <path id="Path-23" data-name="Path" class="cls-2" d="M145,164.5449l5-2.8868-5-2.8866-5,2.8866Z"/>
  <path id="Path-24" data-name="Path" class="cls-2" d="M55,112.5834l5-2.8867L55,106.81l-5,2.8868Z"/>
  <path id="Path-25" data-name="Path" class="cls-2" d="M105,141.451l5-2.8868-5-2.8868-5,2.8868Z"/>
  <path id="Path-26" data-name="Path" class="cls-2" d="M45,106.81l5-2.8868-5-2.8867-5,2.8867Z"/>
  <path id="Path-27" data-name="Path" class="cls-2" d="M95,135.6774l5-2.8866-5-2.8869-5,2.8869Z"/>
  <path id="Path-28" data-name="Path" class="cls-2" d="M65,118.3569l5-2.8868-5-2.8867L60,115.47Z"/>
  <path id="Path-29" data-name="Path" class="cls-2" d="M115,147.2245l5-2.8867-5-2.8869-5,2.8869Z"/>
  <path id="Path-30" data-name="Path" class="cls-2" d="M135,158.7714l5-2.8868-5-2.8868-5,2.8868Z"/>
  <path id="Path-31" data-name="Path" class="cls-2" d="M85,124.13l5-2.8866-5-2.8869-5,2.8869Z"/>
  <path id="Path-32" data-name="Path" class="cls-2" d="M75,118.3569l5-2.8867-5-2.8868L70,115.47Z"/>
  <path id="Path-33" data-name="Path" class="cls-2" d="M125,147.2245l5-2.8867-5-2.8869-5,2.8869Z"/>
  <path id="Path-34" data-name="Path" class="cls-2" d="M145,158.7715l5-2.8869-5-2.8867-5,2.8867Z"/>
  <path id="Path-35" data-name="Path" class="cls-2" d="M155,164.5448l5-2.8867-5-2.8867-5,2.8867Z"/>
  <path id="Path-36" data-name="Path" class="cls-2" d="M55,106.81l5-2.8868-5-2.8867-5,2.8867Z"/>
  <path id="Path-37" data-name="Path" class="cls-2" d="M105,135.6774l5-2.8866-5-2.8869-5,2.8869Z"/>
  <path id="Path-38" data-name="Path" class="cls-2" d="M45,101.0364,50,98.15l-5-2.8869L40,98.15Z"/>
  <path id="Path-39" data-name="Path" class="cls-2" d="M95,129.9039l5-2.8867L95,124.13l-5,2.8868Z"/>
  <path id="Path-40" data-name="Path" class="cls-2" d="M65,112.5834l5-2.8867L65,106.81l-5,2.8869Z"/>
  <path id="Path-41" data-name="Path" class="cls-2" d="M115,141.4509l5-2.8867-5-2.8868-5,2.8868Z"/>
  <path id="Path-42" data-name="Path" class="cls-2" d="M135,152.9978l5-2.8867-5-2.8867-5,2.8867Z"/>
  <path id="windows-L4-2" data-name="windows-L4" class="cls-3" d="M0,196.2991l160,92.3761V184.7521L0,92.376Z"/>
  <path id="windows-L1" class="cls-4" d="M0,115.47V103.9231l160,92.376v11.547Z"/>
  <path id="windows-L1-2" data-name="windows-L1" class="cls-4" d="M0,161.6581v-11.547l160,92.3761v11.547Z"/>
  <path id="windows-L1-3" data-name="windows-L1" class="cls-4" d="M0,138.5641v-11.547l160,92.3761V230.94Z"/>
  <path id="windows-L1-4" data-name="windows-L1" class="cls-4" d="M0,184.7521v-11.547l160,92.3761v11.547Z"/>
  <path id="windows-R1-2" data-name="windows-R1" class="cls-5" d="M280,115.47V219.3932l-120,69.282V184.7521Z"/>
  <path id="windows-R4" class="cls-6" d="M160,184.7521,280,115.47v11.547l-120,69.282Z"/>
  <path id="windows-R4-2" data-name="windows-R4" class="cls-6" d="M160,207.8461l120-69.282v11.547L160,219.3932Z"/>
  <path id="windows-R4-3" data-name="windows-R4" class="cls-6" d="M160,230.94l120-69.2821v11.547L160,242.4872Z"/>
  <path id="windows-R4-4" data-name="windows-R4" class="cls-6" d="M160,254.0342l120-69.2821v11.547L160,265.5812Z"/>
  <path id="windows-R4-5" data-name="windows-R4" class="cls-6" d="M160,277.1282l120-69.282v11.547l-120,69.282Z"/>
  <path id="body-L1-8" data-name="body-L1" class="exterior-L-prim" d="M62.5,99.3665l-5-2.8868v17.547l5,2.8868Z"/>
  <path id="body-R2-8" data-name="body-R2" class="exterior-R-prim" d="M62.5,116.9135v-14.547l5-3.1133v14.7735Z"/>
  <path id="body-L1-9" data-name="body-L1" class="exterior-L-prim" d="M95,118.3568,90,115.47v17.3205l5,2.8868Z"/>
  <path id="body-R2-9" data-name="body-R2" class="exterior-R-prim" d="M95,135.6774V118.3568l5-2.8867v17.3205Z"/>
  <path id="body-L1-10" data-name="body-L1" class="exterior-L-prim" d="M127.5,136.8943l-5-2.8867v17.547l5,2.8867Z"/>
  <path id="body-R2-10" data-name="body-R2" class="exterior-R-prim" d="M127.5,154.4413v-14.547l5-3.1133v14.7736Z"/>
  <path id="body-R2-11" data-name="body-R2" class="exterior-R-prim" d="M160,155.8846l5-2.8867v17.3206l-5,2.8866Z"/>
  <path id="body-L1-11" data-name="body-L1" class="exterior-L-prim" d="M160,173.2051v-17.32l-5-2.8867v17.3206Z"/>
  <path id="body-R2-12" data-name="body-R2" class="exterior-R-prim" d="M190,138.5641l5-2.8867v17.32l-5,2.8868Z"/>
  <path id="body-L1-12" data-name="body-L1" class="exterior-L-prim" d="M190,155.8846V138.5641l-5,2.8867v11.547Z"/>
  <path id="body-R2-13" data-name="body-R2" class="exterior-R-prim" d="M220,121.2437l5-2.8869v17.3206l-5,2.8867Z"/>
  <path id="body-L1-13" data-name="body-L1" class="exterior-L-prim" d="M220,138.5641v-17.32l-5-2.8869v17.3206Z"/>
  <path id="anchor_0_161.658_280" class="top-light" d="M160,161.6581,0,69.2821,120,0,280,92.3761Z"/>
  <path id="Path-43" data-name="Path" class="curtain-R-prim-light" d="M265,251.1475v-23.094l-7.5,4.33v23.094Z"/>
  <path id="Path-44" data-name="Path" class="curtain-R-prim-light" d="M235,268.4678v-23.094l-7.5,4.33v23.094Z"/>
  <path id="Path-45" data-name="Path" class="curtain-R-prim-light" d="M205,285.7883v-23.094l-7.5,4.33v23.094Z"/>
  <path id="Path-46" data-name="Path" class="curtain-R-prim-light" d="M280,242.4872v-23.094l-7.5,4.33v23.094Z"/>
  <path id="Path-47" data-name="Path" class="curtain-R-prim-light" d="M250,259.8076v-23.094l-7.5,4.33v23.094Z"/>
  <path id="Path-48" data-name="Path" class="curtain-R-prim-light" d="M220,277.1282v-23.094l-7.5,4.33v23.094Z"/>
  <path id="Path-49" data-name="Path" class="curtain-R-prim-light" d="M190,294.4486v-23.094l-7.5,4.33v23.094Z"/>
</svg>
