<svg id="Layer_1" data-name="Layer 1" xmlns="http://www.w3.org/2000/svg" viewBox="0 0 130 479.2">
  <defs>
    <style>
      .top-prim {
        fill: #dd8a87;
      }

      .exterior-L-prim {
        fill: #73302e;
      }

      .exterior-R-prim {
        fill: #d05752;
      }

      .cls-1 {
        fill: #e8e8e8;
      }

      .cls-2 {
        fill: #b9b9b9;
      }

      .cls-3 {
        fill: #d1d1d1;
      }

      .cls-4 {
        fill: #aeaeae;
      }

      .cls-5 {
        fill: #d9d9d9;
      }
    </style>
  </defs>
  <title>1Artboard 15</title>
  <g id="root">
    <path class="top-prim" d="M65,398.3711l65,37.5281v2.8869L65,476.314,0,438.7861v-2.8869Z"/>
    <path class="top-prim" d="M130,66.395l-5,2.887L65,34.6411,5,69.282,0,66.395,65,28.8672Z"/>
    <path class="exterior-L-prim" d="M125,69.282v5.7732L65,40.4141v-5.773Z"/>
    <path class="exterior-R-prim" d="M5,69.282,65,34.6411v5.773L5,75.0552Z"/>
    <path class="top-prim" d="M130,124.13l-5,2.887L65,92.376,5,127.0171,0,124.13l65-37.528Z"/>
    <path class="exterior-L-prim" d="M125,127.0171V132.79L65,98.1492V92.376Z"/>
    <path class="exterior-R-prim" d="M5,127.0171,65,92.376v5.7732L5,132.79Z"/>
    <path class="top-prim" d="M130,181.865l-5,2.887L65,150.1111,5,184.752l-5-2.887,65-37.5278Z"/>
    <path class="exterior-L-prim" d="M125,184.752v5.7731L65,155.884v-5.7729Z"/>
    <path class="exterior-R-prim" d="M5,184.752l60-34.6409v5.7729L5,190.5251Z"/>
    <path class="top-prim" d="M130,239.6l-5,2.887L65,207.8462,5,242.4871,0,239.6,65,202.072Z"/>
    <path class="exterior-L-prim" d="M125,242.4871V248.26L65,213.6191v-5.7729Z"/>
    <path class="exterior-R-prim" d="M5,242.4871l60-34.6409v5.7729L5,248.26Z"/>
    <path class="top-prim" d="M130,297.335l-5,2.8872L65,265.5811,5,300.2222,0,297.335l65-37.5279Z"/>
    <path class="exterior-L-prim" d="M125,300.2222v5.7729L65,271.354v-5.7729Z"/>
    <path class="exterior-R-prim" d="M5,300.2222l60-34.6411v5.7729L5,305.9951Z"/>
    <path class="top-prim" d="M130,355.07l-5,2.8869L65,323.3162,5,357.957,0,355.07,65,317.542Z"/>
    <path class="exterior-L-prim" d="M125,357.957v5.773L65,329.0891v-5.7729Z"/>
    <path class="exterior-R-prim" d="M5,357.957l60-34.6408v5.7729L5,363.73Z"/>
    <path class="top-prim" d="M130,412.8052l-5,2.8869L65,381.051,5,415.6921l-5-2.8869,65-37.5281Z"/>
    <path class="exterior-L-prim" d="M125,415.6921v5.773L65,386.824v-5.773Z"/>
    <path class="exterior-R-prim" d="M5,415.6921,65,381.051v5.773L5,421.4651Z"/>
    <path class="top-prim" d="M130,37.5271l-5,2.887L65,5.7729,5,40.4141l-5-2.887L65,0Z"/>
    <path class="exterior-L-prim" d="M125,40.4141V46.188L65,11.5471V5.7729Z"/>
    <path class="exterior-R-prim" d="M5,40.4141,65,5.7729v5.7742L5,46.188Z"/>
    <path class="top-prim" d="M130,95.262l-5,2.8872L65,63.5081,5,98.1492,0,95.262,65,57.7351Z"/>
    <path class="exterior-L-prim" d="M125,98.1492v5.7739L65,69.282V63.5081Z"/>
    <path class="exterior-R-prim" d="M5,98.1492,65,63.5081V69.282L5,103.9231Z"/>
    <path class="top-prim" d="M130,152.9971l-5,2.8869L65,121.2432,5,155.884l-5-2.8869L65,115.47Z"/>
    <path class="exterior-L-prim" d="M125,155.884v5.774L65,127.0171v-5.7739Z"/>
    <path class="exterior-R-prim" d="M5,155.884l60-34.6408v5.7739L5,161.658Z"/>
    <path class="top-prim" d="M130,210.7322l-5,2.8869L65,178.978,5,213.6191l-5-2.8869,65-37.5271Z"/>
    <path class="exterior-L-prim" d="M125,213.6191v5.774L65,184.752v-5.774Z"/>
    <path class="exterior-R-prim" d="M5,213.6191,65,178.978v5.774L5,219.3931Z"/>
    <path class="top-prim" d="M130,268.467l-5,2.887L65,236.7131,5,271.354l-5-2.887L65,230.94Z"/>
    <path class="exterior-L-prim" d="M125,271.354v5.7742L65,242.4871v-5.774Z"/>
    <path class="exterior-R-prim" d="M5,271.354l60-34.6409v5.774L5,277.1282Z"/>
    <path class="top-prim" d="M130,326.2031l-5,2.886L65,294.448,5,329.0891l-5-2.886L65,288.675Z"/>
    <path class="exterior-L-prim" d="M125,329.0891v5.7739L65,300.2222V294.448Z"/>
    <path class="exterior-R-prim" d="M5,329.0891,65,294.448v5.7742L5,334.863Z"/>
    <path class="top-prim" d="M130,383.938l-5,2.886L65,352.1831,5,386.824l-5-2.886L65,346.41Z"/>
    <path class="exterior-L-prim" d="M125,386.824v5.7741L65,357.957v-5.7739Z"/>
    <path class="exterior-R-prim" d="M5,386.824l60-34.6409v5.7739L5,392.5981Z"/>
    <path class="exterior-L-prim" d="M65.75,31.4612,63.8638,32.55l-3.773-2.1779V19.481L65.75,16.2141Z"/>
    <path class="cls-1" d="M45,20.563,67.6362,7.4941l15.0909,8.712L60.0908,29.2751Z"/>
    <path class="cls-2" d="M45,423.5652l15.0908,8.7129V29.2751L45,20.563Z"/>
    <path class="cls-1" d="M82.7271,16.2061V419.208l-22.6363,13.07V29.2751Z"/>
    <path class="cls-3" d="M50.6592,424.6541l-1.8863,1.0891V22.741L50.6592,23.83Z"/>
    <path class="top-prim" d="M56.3179,434.4561v-6.535l-5.6587-3.267L45,427.9211Z"/>
    <path class="cls-4" d="M56.3179,27.0972,50.6592,23.83v400.824l5.6587,3.267Z"/>
    <path class="cls-5" d="M77.0679,19.4741,63.8638,27.0972V427.9211l13.2041-7.624Z"/>
    <path class="top-prim" d="M80.8408,422.4761l-3.7729-2.179-13.2041,7.624v4.357Z"/>
    <path class="cls-2" d="M78.9551,18.385l-1.8872,1.0891v400.823l1.8872,1.09Z"/>
    <path class="exterior-L-prim" d="M80,63.5081l-5-2.887v407.032l5,2.8869Z"/>
    <path class="exterior-R-prim" d="M50,63.5081l5-2.887v407.032L50,470.54Z"/>
    <path class="exterior-L-prim" d="M95,54.8481l-5-2.8869v407.032l5,2.8869Z"/>
    <path class="exterior-R-prim" d="M35,54.8481l5-2.8869v407.032L35,461.88Z"/>
    <path class="exterior-L-prim" d="M110,46.188l-5-2.887V450.333l5,2.887Z"/>
    <path class="exterior-R-prim" d="M20,46.188l5-2.887V450.333l-5,2.887Z"/>
    <path class="exterior-L-prim" d="M125,37.5271l-5-2.886v407.032l5,2.886Z"/>
    <path class="exterior-R-prim" d="M5,37.5271l5-2.886v407.032l-5,2.886Z"/>
    <path class="exterior-L-prim" d="M65,103.9231,0,66.395v5.773l65,37.528Z"/>
    <path class="exterior-L-prim" d="M65,161.658,0,124.13v5.773l65,37.5281Z"/>
    <path class="exterior-L-prim" d="M65,219.3931,0,181.865v5.7732L65,225.166Z"/>
    <path class="exterior-L-prim" d="M65,277.1282,0,239.6v5.7729l65,37.5281Z"/>
    <path class="exterior-L-prim" d="M65,334.863,0,297.335v5.7732L65,340.636Z"/>
    <path class="exterior-L-prim" d="M65,392.5981,0,355.07v5.7739l65,37.5271Z"/>
    <path class="exterior-L-prim" d="M65,450.333,0,412.8052v5.7739L65,456.106Z"/>
    <path class="exterior-L-prim" d="M65,132.79,0,95.262v5.7741L65,138.564Z"/>
    <path class="exterior-L-prim" d="M65,190.5251,0,152.9971v5.7739l65,37.5281Z"/>
    <path class="exterior-L-prim" d="M65,248.26,0,210.7322v5.7739l65,37.5281Z"/>
    <path class="exterior-L-prim" d="M65,305.9951,0,268.467v5.774l65,37.528Z"/>
    <path class="exterior-L-prim" d="M65,363.73,0,326.2031v5.773l65,37.5281Z"/>
    <path class="exterior-L-prim" d="M65,421.4651,0,383.938v5.7732L65,427.239Z"/>
    <path class="exterior-R-prim" d="M65,103.9231,130,66.395v5.773L65,109.696Z"/>
    <path class="exterior-R-prim" d="M65,161.658,130,124.13v5.773L65,167.4312Z"/>
    <path class="exterior-R-prim" d="M65,219.3931l65-37.5281v5.7732L65,225.166Z"/>
    <path class="exterior-R-prim" d="M65,277.1282,130,239.6v5.7729L65,282.9011Z"/>
    <path class="exterior-R-prim" d="M65,334.863l65-37.528v5.7732L65,340.636Z"/>
    <path class="exterior-R-prim" d="M65,392.5981l65-37.528v5.7739L65,398.3711Z"/>
    <path class="exterior-R-prim" d="M65,450.333l65-37.5278v5.7739L65,456.106Z"/>
    <path class="exterior-R-prim" d="M65,132.79l65-37.528v5.7741L65,138.564Z"/>
    <path class="exterior-R-prim" d="M65,190.5251l65-37.528v5.7739L65,196.2991Z"/>
    <path class="exterior-R-prim" d="M65,248.26l65-37.5278v5.7739L65,254.0342Z"/>
    <path class="exterior-R-prim" d="M65,305.9951l65-37.5281v5.774L65,311.769Z"/>
    <path class="exterior-R-prim" d="M65,363.73l65-37.5269v5.773L65,369.5042Z"/>
    <path class="exterior-R-prim" d="M65,421.4651l65-37.5271v5.7732L65,427.239Z"/>
    <path class="exterior-R-prim" d="M62.5,477.7571V70.7251L65,72.168l5-2.886V476.314L65,479.2Z"/>
    <path class="exterior-R-prim" d="M95,54.8481l5-2.8869v407.032L95,461.88Z"/>
    <path class="exterior-R-prim" d="M80,63.5081l5-2.887v407.032L80,470.54Z"/>
    <path class="exterior-R-prim" d="M110,46.188l5-2.887V450.333l-5,2.887Z"/>
    <path class="exterior-R-prim" d="M125,43.301l5-2.8869v401.259l-5,2.886Z"/>
    <path class="exterior-L-prim" d="M65,72.168l-5-2.886V476.314l5,2.886Z"/>
    <path class="exterior-L-prim" d="M35,54.8481l-5-2.8869v407.032l5,2.8869Z"/>
    <path class="exterior-L-prim" d="M50,63.5081l-5-2.887v407.032l5,2.8869Z"/>
    <path class="exterior-L-prim" d="M20,46.188l-5-2.887V450.333l5,2.887Z"/>
    <path class="exterior-L-prim" d="M5,43.301,0,40.4141v401.259l5,2.886Z"/>
    <path class="top-prim" d="M70,95.262l5-2.886,5,2.886-10,5.7741Z"/>
    <path class="top-prim" d="M100,77.9421l5-2.8869,5,2.8869-10,5.773Z"/>
    <path class="top-prim" d="M85,86.6021l5-2.887,5,2.887L85,92.376Z"/>
    <path class="top-prim" d="M115,69.282l5-2.887,5,2.887-10,5.7732Z"/>
    <path class="top-prim" d="M60,95.262l-5-2.886-5,2.886,10,5.7741Z"/>
    <path class="top-prim" d="M30,77.9421l-5-2.8869-5,2.8869,10,5.773Z"/>
    <path class="top-prim" d="M45,86.6021l-5-2.887-5,2.887L45,92.376Z"/>
    <path class="top-prim" d="M15,69.282l-5-2.887L5,69.282l10,5.7732Z"/>
    <path class="top-prim" d="M70,152.9971l5-2.886,5,2.886L70,158.771Z"/>
    <path class="top-prim" d="M100,135.677l5-2.887,5,2.887-10,5.773Z"/>
    <path class="top-prim" d="M85,144.3372l5-2.8872,5,2.8872-10,5.7739Z"/>
    <path class="top-prim" d="M115,127.0171l5-2.887,5,2.887L115,132.79Z"/>
    <path class="top-prim" d="M60,152.9971l-5-2.886-5,2.886,10,5.7739Z"/>
    <path class="top-prim" d="M30,135.677l-5-2.887-5,2.887,10,5.773Z"/>
    <path class="top-prim" d="M45,144.3372,40,141.45l-5,2.8872,10,5.7739Z"/>
    <path class="top-prim" d="M15,127.0171l-5-2.887-5,2.887L15,132.79Z"/>
    <path class="top-prim" d="M70,210.7322l5-2.886,5,2.886-10,5.7739Z"/>
    <path class="top-prim" d="M100,193.4121l5-2.887,5,2.887-10,5.773Z"/>
    <path class="top-prim" d="M85,202.072l5-2.8869,5,2.8869-10,5.7742Z"/>
    <path class="top-prim" d="M115,184.752l5-2.887,5,2.887-10,5.7731Z"/>
    <path class="top-prim" d="M60,210.7322l-5-2.886-5,2.886,10,5.7739Z"/>
    <path class="top-prim" d="M30,193.4121l-5-2.887-5,2.887,10,5.773Z"/>
    <path class="top-prim" d="M45,202.072l-5-2.8869-5,2.8869,10,5.7742Z"/>
    <path class="top-prim" d="M15,184.752l-5-2.887-5,2.887,10,5.7731Z"/>
    <path class="top-prim" d="M70,268.467l5-2.8859,5,2.8859-10,5.774Z"/>
    <path class="top-prim" d="M100,251.147l5-2.887,5,2.887L100,256.92Z"/>
    <path class="top-prim" d="M85,259.8071l5-2.8869,5,2.8869-10,5.774Z"/>
    <path class="top-prim" d="M115,242.4871l5-2.887,5,2.887L115,248.26Z"/>
    <path class="top-prim" d="M60,268.467l-5-2.8859-5,2.8859,10,5.774Z"/>
    <path class="top-prim" d="M30,251.147l-5-2.887-5,2.887L30,256.92Z"/>
    <path class="top-prim" d="M45,259.8071,40,256.92l-5,2.8869,10,5.774Z"/>
    <path class="top-prim" d="M15,242.4871,10,239.6l-5,2.887L15,248.26Z"/>
    <path class="top-prim" d="M70,326.2031l5-2.8869,5,2.8869-10,5.773Z"/>
    <path class="top-prim" d="M100,308.8821l5-2.887,5,2.887-10,5.7729Z"/>
    <path class="top-prim" d="M85,317.542l5-2.886,5,2.886-10,5.7742Z"/>
    <path class="top-prim" d="M115,300.2222l5-2.8872,5,2.8872-10,5.7729Z"/>
    <path class="top-prim" d="M60,326.2031l-5-2.8869-5,2.8869,10,5.773Z"/>
    <path class="top-prim" d="M30,308.8821l-5-2.887-5,2.887,10,5.7729Z"/>
    <path class="top-prim" d="M45,317.542l-5-2.886-5,2.886,10,5.7742Z"/>
    <path class="top-prim" d="M15,300.2222l-5-2.8872-5,2.8872,10,5.7729Z"/>
    <path class="top-prim" d="M70,383.938l5-2.887,5,2.887-10,5.7732Z"/>
    <path class="top-prim" d="M100,366.6172l5-2.8872,5,2.8872-10,5.7739Z"/>
    <path class="top-prim" d="M85,375.2771l5-2.886,5,2.886L85,381.051Z"/>
    <path class="top-prim" d="M115,357.957l5-2.8869,5,2.8869-10,5.773Z"/>
    <path class="top-prim" d="M60,383.938l-5-2.887-5,2.887,10,5.7732Z"/>
    <path class="top-prim" d="M30,366.6172,25,363.73l-5,2.8872L30,372.39Z"/>
    <path class="top-prim" d="M45,375.2771l-5-2.886-5,2.886,10,5.7739Z"/>
    <path class="top-prim" d="M15,357.957,10,355.07,5,357.957l10,5.773Z"/>
    <path class="top-prim" d="M70,441.6731l5-2.887,5,2.887L70,447.446Z"/>
    <path class="top-prim" d="M100,424.3521l5-2.887,5,2.887-10,5.7739Z"/>
    <path class="top-prim" d="M85,433.012l5-2.886,5,2.886-10,5.7741Z"/>
    <path class="top-prim" d="M115,415.6921l5-2.8869,5,2.8869-10,5.773Z"/>
    <path class="top-prim" d="M60,441.6731l-5-2.887-5,2.887,10,5.7729Z"/>
    <path class="top-prim" d="M30,424.3521l-5-2.887-5,2.887,10,5.7739Z"/>
    <path class="top-prim" d="M45,433.012l-5-2.886-5,2.886,10,5.7741Z"/>
    <path class="top-prim" d="M15,415.6921l-5-2.8869-5,2.8869,10,5.773Z"/>
    <path class="top-prim" d="M70,66.395l5-2.8869,5,2.8869L70,72.168Z"/>
    <path class="top-prim" d="M100,49.074l5-2.886,5,2.886-10,5.7741Z"/>
    <path class="top-prim" d="M85,57.7351l5-2.887,5,2.887-10,5.773Z"/>
    <path class="top-prim" d="M115,40.4141l5-2.887,5,2.887L115,46.188Z"/>
    <path class="top-prim" d="M60,66.395l-5-2.8869L50,66.395l10,5.773Z"/>
    <path class="top-prim" d="M30,49.074l-5-2.886-5,2.886,10,5.7741Z"/>
    <path class="top-prim" d="M45,57.7351l-5-2.887-5,2.887,10,5.773Z"/>
    <path class="top-prim" d="M15,40.4141l-5-2.887-5,2.887L15,46.188Z"/>
    <path class="top-prim" d="M70,124.13l5-2.8869,5,2.8869-10,5.773Z"/>
    <path class="top-prim" d="M100,106.8091l5-2.886,5,2.886-10,5.7739Z"/>
    <path class="top-prim" d="M85,115.47l5-2.887,5,2.887-10,5.7732Z"/>
    <path class="top-prim" d="M115,98.1492l5-2.8872,5,2.8872-10,5.7739Z"/>
    <path class="top-prim" d="M60,124.13l-5-2.8869L50,124.13l10,5.773Z"/>
    <path class="top-prim" d="M30,106.8091l-5-2.886-5,2.886,10,5.7739Z"/>
    <path class="top-prim" d="M45,115.47l-5-2.887-5,2.887,10,5.7732Z"/>
    <path class="top-prim" d="M15,98.1492,10,95.262,5,98.1492l10,5.7739Z"/>
    <path id="anchor_0_75.05_130" class="top-prim" d="M65,0l65,37.5271v2.887L65,77.9421,0,40.4141v-2.887Z"/>
    <path class="top-prim" d="M70,181.865l5-2.887,5,2.887-10,5.7732Z"/>
    <path class="top-prim" d="M100,164.5442l5-2.8862,5,2.8862-10,5.7739Z"/>
    <path class="top-prim" d="M85,173.2051l5-2.887,5,2.887L85,178.978Z"/>
    <path class="top-prim" d="M115,155.884l5-2.8869,5,2.8869-10,5.774Z"/>
    <path class="top-prim" d="M60,181.865l-5-2.887-5,2.887,10,5.7732Z"/>
    <path class="top-prim" d="M30,164.5442l-5-2.8862-5,2.8862,10,5.7739Z"/>
    <path class="top-prim" d="M45,173.2051l-5-2.887-5,2.887,10,5.7729Z"/>
    <path class="top-prim" d="M15,155.884l-5-2.8869L5,155.884l10,5.774Z"/>
    <path class="top-prim" d="M70,239.6l5-2.887,5,2.887L70,245.373Z"/>
    <path class="top-prim" d="M100,222.2791l5-2.886,5,2.886-10,5.7739Z"/>
    <path class="top-prim" d="M85,230.94l5-2.8872,5,2.8872-10,5.7729Z"/>
    <path class="top-prim" d="M115,213.6191l5-2.8869,5,2.8869-10,5.774Z"/>
    <path class="top-prim" d="M60,239.6l-5-2.887L50,239.6l10,5.7729Z"/>
    <path class="top-prim" d="M30,222.2791l-5-2.886-5,2.886,10,5.7739Z"/>
    <path class="top-prim" d="M45,230.94l-5-2.8872L35,230.94l10,5.7729Z"/>
    <path class="top-prim" d="M15,213.6191l-5-2.8869-5,2.8869,10,5.774Z"/>
    <path class="top-prim" d="M70,297.335l5-2.887,5,2.887-10,5.7732Z"/>
    <path class="top-prim" d="M100,280.0142l5-2.886,5,2.886-10,5.7739Z"/>
    <path class="top-prim" d="M85,288.675l5-2.8869,5,2.8869-10,5.773Z"/>
    <path class="top-prim" d="M115,271.354l5-2.887,5,2.887-10,5.7742Z"/>
    <path class="top-prim" d="M60,297.335l-5-2.887-5,2.887,10,5.7732Z"/>
    <path class="top-prim" d="M30,280.0142l-5-2.886-5,2.886,10,5.7739Z"/>
    <path class="top-prim" d="M45,288.675l-5-2.8869-5,2.8869,10,5.773Z"/>
    <path class="top-prim" d="M15,271.354l-5-2.887-5,2.887,10,5.7742Z"/>
    <path class="top-prim" d="M70,355.07l5-2.887,5,2.887L70,360.844Z"/>
    <path class="top-prim" d="M100,337.749l5-2.886,5,2.886-10,5.7739Z"/>
    <path class="top-prim" d="M85,346.41l5-2.8873,5,2.8873-10,5.7729Z"/>
    <path class="top-prim" d="M115,329.0891l5-2.886,5,2.886-10,5.7739Z"/>
    <path class="top-prim" d="M60,355.07l-5-2.887-5,2.887,10,5.7739Z"/>
    <path class="top-prim" d="M30,337.749l-5-2.886-5,2.886,10,5.7739Z"/>
    <path class="top-prim" d="M45,346.41l-5-2.8873L35,346.41l10,5.7729Z"/>
    <path class="top-prim" d="M15,329.0891l-5-2.886-5,2.886,10,5.7739Z"/>
    <path class="top-prim" d="M70,412.8052l5-2.8872,5,2.8872-10,5.7739Z"/>
    <path class="top-prim" d="M100,395.4851l5-2.887,5,2.887-10,5.773Z"/>
    <path class="top-prim" d="M85,404.145l5-2.8869,5,2.8869-10,5.773Z"/>
    <path class="top-prim" d="M115,386.824l5-2.886,5,2.886-10,5.7741Z"/>
    <path class="top-prim" d="M60,412.8052l-5-2.8872-5,2.8872,10,5.7739Z"/>
    <path class="top-prim" d="M30,395.4851l-5-2.887-5,2.887,10,5.773Z"/>
    <path class="top-prim" d="M45,404.145l-5-2.8869-5,2.8869,10,5.773Z"/>
    <path class="top-prim" d="M15,386.824l-5-2.886-5,2.886,10,5.7741Z"/>
    <path class="top-prim" d="M70,470.54l5-2.8869,5,2.8869-10,5.774Z"/>
    <path class="top-prim" d="M100,453.22l5-2.887,5,2.887-10,5.7732Z"/>
    <path class="top-prim" d="M85,461.88l5-2.8869,5,2.8869-10,5.773Z"/>
    <path class="top-prim" d="M115,444.5591l5-2.886,5,2.886-10,5.7739Z"/>
    <path class="top-prim" d="M60,470.54l-5-2.8869L50,470.54l10,5.774Z"/>
    <path class="top-prim" d="M30,453.22l-5-2.887-5,2.887,10,5.7732Z"/>
    <path class="top-prim" d="M45,461.88l-5-2.8869L35,461.88l10,5.773Z"/>
    <path class="top-prim" d="M15,444.5591l-5-2.886-5,2.886,10,5.7739Z"/>
    <path class="exterior-L-prim" d="M65,473.427,0,435.8992v5.7739L65,479.2Z"/>
    <path class="exterior-R-prim" d="M65,473.427l65-37.5278v5.7739L65,479.2Z"/>
    <path class="top-prim" d="M70,464.7671l5-2.887,5,2.887L70,470.54Z"/>
    <path class="top-prim" d="M100,447.446l5-2.8869,5,2.8869-10,5.774Z"/>
    <path class="top-prim" d="M85,456.106l5-2.886,5,2.886L85,461.88Z"/>
    <path class="top-prim" d="M115,438.7861l5-2.8869,5,2.8869-10,5.773Z"/>
    <path class="top-prim" d="M60,464.7671l-5-2.887-5,2.887L60,470.54Z"/>
    <path class="top-prim" d="M30,447.446l-5-2.8869-5,2.8869,10,5.774Z"/>
    <path class="top-prim" d="M45,456.106l-5-2.886-5,2.886L45,461.88Z"/>
    <path class="top-prim" d="M15,438.7861l-5-2.8869-5,2.8869,10,5.773Z"/>
    <path class="exterior-L-prim" d="M65,75.0552,0,37.5271V43.301L65,80.8291Z"/>
    <path class="exterior-R-prim" d="M65,75.0552l65-37.5281V43.301L65,80.8291Z"/>
  </g>
</svg>
