<svg id="Layer_1" data-name="Layer 1" xmlns="http://www.w3.org/2000/svg" xmlns:xlink="http://www.w3.org/1999/xlink" viewBox="0 0 130 825.61"><defs><style>.cls-1{fill:none;}.top-prim{fill:#dd8986;}.curtain-R-prim-dark{fill:#1f788c;}.curtain-L-prim-dark{fill:#11424d;}.exterior-L-prim{fill:#74302f;}.exterior-R-prim{fill:#d15752;}.curtain-R-prim-light{fill:#2d95ac;}.curtain-L-prim-light{fill:#186273;}.top-prim-2{fill:#dd8a87;}.cls-2{fill:url(#linear-gradient);}.cls-3{fill:url(#linear-gradient-2);}.exterior-L-dark{fill:#512220;}.cls-4{fill:url(#linear-gradient-3);}.cls-5{fill:url(#linear-gradient-4);}.cls-6{fill:url(#linear-gradient-5);}.cls-7{fill:url(#linear-gradient-6);}.cls-8{fill:url(#linear-gradient-7);}.cls-9{fill:url(#linear-gradient-8);}.cls-10{fill:url(#linear-gradient-9);}.cls-11{fill:url(#linear-gradient-10);}.cls-12{fill:url(#linear-gradient-11);}.cls-13{fill:url(#linear-gradient-12);}.cls-14{fill:url(#linear-gradient-13);}.cls-15{fill:url(#linear-gradient-14);}.cls-16{fill:url(#linear-gradient-15);}.cls-17{fill:url(#linear-gradient-16);}.cls-18{fill:url(#linear-gradient-17);}.cls-19{fill:url(#linear-gradient-18);}.cls-20{fill:url(#linear-gradient-19);}.cls-21{fill:url(#linear-gradient-20);}.cls-22{fill:url(#linear-gradient-21);}.cls-23{fill:url(#linear-gradient-22);}.cls-24{fill:url(#linear-gradient-23);}.cls-25{fill:url(#linear-gradient-24);}</style><linearGradient id="linear-gradient" x1="-2262.74" y1="-3621.75" x2="-2262.52" y2="-3621.74" gradientTransform="matrix(90, 0, 0, -24.32, 203667.7, -87593.18)" gradientUnits="userSpaceOnUse"><stop offset="0.01" stop-color="#918880"/><stop offset="0.98" stop-color="#dad7d3"/></linearGradient><linearGradient id="linear-gradient-2" x1="-2261.85" y1="-3621.76" x2="-2261.66" y2="-3621.75" xlink:href="#linear-gradient"/><linearGradient id="linear-gradient-3" x1="-2262.73" y1="-3621.87" x2="-2262.66" y2="-3621.87" xlink:href="#linear-gradient"/><linearGradient id="linear-gradient-4" x1="-2261.83" y1="-3621.87" x2="-2261.78" y2="-3621.87" xlink:href="#linear-gradient"/><linearGradient id="linear-gradient-5" x1="-2262.73" y1="-3622.07" x2="-2261.75" y2="-3622.03" xlink:href="#linear-gradient"/><linearGradient id="linear-gradient-6" x1="-2262.72" y1="-3622.12" x2="-2261.75" y2="-3622.07" xlink:href="#linear-gradient"/><linearGradient id="linear-gradient-7" x1="-2262.73" y1="-3622.03" x2="-2261.75" y2="-3621.99" xlink:href="#linear-gradient"/><linearGradient id="linear-gradient-8" x1="-2262.72" y1="-3622.09" x2="-2261.75" y2="-3622.04" xlink:href="#linear-gradient"/><linearGradient id="linear-gradient-9" x1="-2261.85" y1="-3621.76" x2="-2261.66" y2="-3621.75" gradientTransform="matrix(90, 0, 0, -24.32, 203667.7, -87749.07)" xlink:href="#linear-gradient"/><linearGradient id="linear-gradient-10" x1="-2262.74" y1="-3621.75" x2="-2262.55" y2="-3621.74" gradientTransform="matrix(90, 0, 0, -24.32, 203667.7, -87749.07)" xlink:href="#linear-gradient"/><linearGradient id="linear-gradient-11" x1="-2262.73" y1="-3621.87" x2="-2262.66" y2="-3621.87" gradientTransform="matrix(90, 0, 0, -24.32, 203667.7, -87749.07)" xlink:href="#linear-gradient"/><linearGradient id="linear-gradient-12" x1="-2261.83" y1="-3621.87" x2="-2261.78" y2="-3621.87" gradientTransform="matrix(90, 0, 0, -24.32, 203667.7, -87749.07)" xlink:href="#linear-gradient"/><linearGradient id="linear-gradient-13" x1="-2262.72" y1="-3622.09" x2="-2261.75" y2="-3622.04" gradientTransform="matrix(90, 0, 0, -24.32, 203667.7, -87749.07)" xlink:href="#linear-gradient"/><linearGradient id="linear-gradient-14" x1="-2262.72" y1="-3622.12" x2="-2261.75" y2="-3622.07" gradientTransform="matrix(90, 0, 0, -24.32, 203667.7, -87749.07)" xlink:href="#linear-gradient"/><linearGradient id="linear-gradient-15" x1="-2262.73" y1="-3622.07" x2="-2261.75" y2="-3622.03" gradientTransform="matrix(90, 0, 0, -24.32, 203667.7, -87749.07)" xlink:href="#linear-gradient"/><linearGradient id="linear-gradient-16" x1="-2262.73" y1="-3622.03" x2="-2261.75" y2="-3621.99" gradientTransform="matrix(90, 0, 0, -24.32, 203667.7, -87749.07)" xlink:href="#linear-gradient"/><linearGradient id="linear-gradient-17" x1="-2261.85" y1="-3621.76" x2="-2261.66" y2="-3621.75" gradientTransform="matrix(90, 0, 0, -24.32, 203667.7, -87904.95)" xlink:href="#linear-gradient"/><linearGradient id="linear-gradient-18" x1="-2262.74" y1="-3621.75" x2="-2262.52" y2="-3621.74" gradientTransform="matrix(90, 0, 0, -24.32, 203667.7, -87904.95)" xlink:href="#linear-gradient"/><linearGradient id="linear-gradient-19" x1="-2262.73" y1="-3621.87" x2="-2262.66" y2="-3621.87" gradientTransform="matrix(90, 0, 0, -24.32, 203667.7, -87904.95)" xlink:href="#linear-gradient"/><linearGradient id="linear-gradient-20" x1="-2261.83" y1="-3621.87" x2="-2261.79" y2="-3621.87" gradientTransform="matrix(90, 0, 0, -24.32, 203667.7, -87904.95)" xlink:href="#linear-gradient"/><linearGradient id="linear-gradient-21" x1="-2262.72" y1="-3622.12" x2="-2261.75" y2="-3622.07" gradientTransform="matrix(90, 0, 0, -24.32, 203667.7, -87904.95)" xlink:href="#linear-gradient"/><linearGradient id="linear-gradient-22" x1="-2262.73" y1="-3622.03" x2="-2261.75" y2="-3621.99" gradientTransform="matrix(90, 0, 0, -24.32, 203667.7, -87904.95)" xlink:href="#linear-gradient"/><linearGradient id="linear-gradient-23" x1="-2262.72" y1="-3622.09" x2="-2261.75" y2="-3622.04" gradientTransform="matrix(90, 0, 0, -24.32, 203667.7, -87904.95)" xlink:href="#linear-gradient"/><linearGradient id="linear-gradient-24" x1="-2262.73" y1="-3622.07" x2="-2261.75" y2="-3622.03" gradientTransform="matrix(90, 0, 0, -24.32, 203667.7, -87904.95)" xlink:href="#linear-gradient"/></defs><title>Artboard 9</title><polygon class="cls-1" points="5 167.43 0 164.54 5 167.43 5 167.43"/><polygon class="cls-1" points="5 479.2 0 476.31 5 479.2 5 479.2"/><polygon class="cls-1" points="125 167.43 130 164.54 125 167.43 125 167.43"/><polygon class="cls-1" points="10 487.86 15 490.75 15 484.97 10 482.08 10 487.86"/><polygon class="cls-1" points="120 187.63 120 187.63 120 187.64 120 187.63"/><polygon class="cls-1" points="12.94 495.33 15 496.52 15 496.52 12.94 495.33"/><polygon class="cls-1" points="10 499.4 10 499.4 10 499.41 10 499.4"/><polygon class="cls-1" points="115 496.52 117.06 495.33 115 496.52 115 496.52"/><polygon class="cls-1" points="16.2 485.66 20 487.86 20 487.86 16.2 485.66"/><polygon class="cls-1" points="10 176.09 15 178.98 15 173.2 10 170.31 10 176.09"/><polygon class="cls-1" points="10 187.63 10 187.63 10 187.64 10 187.63"/><polygon class="cls-1" points="12.94 183.56 15 184.75 15 184.75 12.94 183.56"/><polygon class="cls-1" points="120 343.52 120 343.52 120 343.53 120 343.52"/><polygon class="cls-1" points="120 176.09 120 170.31 115 173.2 115 178.98 120 176.09"/><polygon class="cls-1" points="113.73 173.94 110 176.09 110 176.09 113.73 173.94"/><polygon class="cls-1" points="113.78 329.8 110 331.98 110 331.98 113.78 329.8"/><polygon class="cls-1" points="115 184.75 117.06 183.56 115 184.75 115 184.75"/><polygon class="cls-1" points="16.27 173.94 20 176.09 20 176.09 16.27 173.94"/><polygon class="cls-1" points="125 479.2 130 476.31 125 479.2 125 479.2"/><polygon class="cls-1" points="120 499.4 120 499.4 120 499.41 120 499.4"/><polygon class="cls-1" points="120 487.86 120 482.08 115 484.97 115 490.75 120 487.86"/><polygon class="cls-1" points="10 343.53 10 343.52 10 343.52 10 343.53"/><polygon class="cls-1" points="113.8 485.66 110 487.86 110 487.86 113.8 485.66"/><polygon class="cls-1" points="117.03 339.47 120 337.75 120 337.75 117.03 339.47"/><polygon class="cls-1" points="120 331.98 120 326.2 115 329.09 115 334.86 120 331.98"/><polygon class="cls-1" points="16.23 329.8 20 331.98 20 331.98 16.23 329.8"/><polygon class="cls-1" points="10 337.75 12.97 339.47 10 337.75 10 337.75"/><polygon class="cls-1" points="10 331.98 15 334.86 15 329.09 10 326.2 10 331.98"/><polygon class="top-prim" points="105 669.73 105 669.72 100 672.61 100 678.38 110 672.61 105 669.73"/><polygon class="top-prim" points="90 678.39 90 678.39 85 681.27 85 687.04 95 681.27 90 678.39"/><polygon class="top-prim" points="75 687.05 75 687.05 70 689.94 70 695.7 80 689.93 75 687.05"/><polygon class="top-prim" points="120 661.06 115 663.95 115 669.72 125 663.95 120 661.06"/><polygon class="top-prim" points="40 678.39 40 678.39 35 681.27 45 687.04 45 681.27 40 678.39"/><polygon class="top-prim" points="10 661.06 5 663.95 15 669.72 15 663.95 10 661.06"/><polygon class="top-prim" points="25 669.72 25 669.73 20 672.61 30 678.38 30 672.61 25 669.72"/><polygon class="top-prim" points="55 687.05 55 687.05 50 689.93 60 695.7 60 689.94 55 687.05"/><polygon class="curtain-R-prim-dark" points="115 652.4 116.94 651.28 115 652.4 115 652.4"/><polygon class="curtain-R-prim-dark" points="100 661.06 103.97 658.77 100 661.06 100 661.06"/><polygon class="curtain-R-prim-dark" points="105 663.96 100 666.84 100 672.61 105 669.72 105 663.96"/><polygon class="curtain-R-prim-dark" points="90 672.62 85 675.5 85 681.27 90 678.39 90 672.62"/><polygon class="curtain-R-prim-dark" points="75 681.28 70 684.16 70 689.94 75 687.05 75 681.28"/><polygon class="curtain-R-prim-dark" points="120 661.06 120 655.29 115 658.18 115 663.95 120 661.06 120 661.06"/><polygon class="curtain-L-prim-dark" points="15 652.4 15 652.4 13.06 651.28 15 652.4"/><polygon class="curtain-L-prim-dark" points="45 681.27 45 675.5 40 672.62 40 678.39 45 681.27"/><polygon class="curtain-L-prim-dark" points="60 689.94 60 684.16 55 681.28 55 687.05 60 689.94"/><polygon class="curtain-L-prim-dark" points="10 661.06 15 663.95 15 658.18 10 655.29 10 661.06 10 661.06"/><polygon class="curtain-L-prim-dark" points="30 672.61 30 666.84 25 663.96 25 669.72 30 672.61"/><polygon class="curtain-L-prim-dark" points="30 661.06 30 661.06 26.03 658.77 30 661.06"/><polygon class="exterior-L-prim" points="75 687.05 80 689.93 80 689.93 80 678.39 75 681.28 75 687.05 75 687.05"/><polygon class="exterior-L-prim" points="80 672.61 80 661.07 75 663.96 75 669.73 80 672.61 80 672.61"/><polygon class="exterior-R-prim" points="55 687.05 55 681.28 50 678.39 50 689.93 50 689.93 55 687.05 55 687.05"/><polygon class="exterior-R-prim" points="55 663.96 50 661.07 50 672.61 50 672.61 55 669.73 55 663.96"/><polygon class="exterior-L-prim" points="90 678.39 95 681.27 95 681.27 95 669.73 90 672.62 90 678.39 90 678.39"/><polygon class="exterior-L-prim" points="95 663.95 95 652.41 90 655.29 90 661.06 95 663.95 95 663.95"/><polygon class="exterior-R-prim" points="40 678.39 40 672.62 35 669.73 35 681.27 35 681.27 40 678.39 40 678.39"/><polygon class="exterior-R-prim" points="40 655.29 35 652.41 35 663.95 35 663.95 40 661.06 40 655.29"/><polygon class="exterior-L-prim" points="105 669.73 110 672.61 110 672.61 110 661.07 105 663.96 105 669.72 105 669.73"/><polygon class="exterior-L-prim" points="110 655.29 110 643.75 105 646.63 105 652.4 110 655.29 110 655.29"/><polygon class="exterior-R-prim" points="25 669.72 25 663.96 20 661.07 20 672.61 20 672.61 25 669.73 25 669.72"/><polygon class="exterior-R-prim" points="25 646.63 20 643.75 20 655.29 20 655.29 25 652.4 25 646.63"/><polygon class="exterior-L-prim" points="125 646.63 125 635.09 120 637.97 120 643.74 125 646.63 125 646.63"/><polygon class="exterior-L-prim" points="120 661.06 125 663.95 125 663.95 125 652.41 120 655.29 120 661.06 120 661.06"/><polygon class="exterior-R-prim" points="10 637.97 5 635.09 5 646.63 5 646.63 10 643.74 10 637.97"/><polygon class="exterior-R-prim" points="10 661.06 10 655.29 5 652.41 5 663.95 5 663.95 10 661.06 10 661.06"/><polygon class="top-prim" points="75 531.16 75 525.39 70 528.27 70 539.82 65 542.71 80 534.05 75 531.16"/><path class="top-prim" d="M105,513.84V510.3a30.1,30.1,0,0,1-5,4.43v7.77L97.5,524l12.5-7.22Z"/><path class="top-prim" d="M90,522.5V520c-1.6.62-3.27,1.17-5,1.67v9.48l-3.78,2.18,13.78-8Z"/><polygon class="top-prim" points="120 505.18 120 499.41 120 499.4 115 502.29 115 513.84 113.8 514.53 125 508.07 120 505.18"/><rect class="top-prim" x="15" y="496.52" transform="translate(-382.09 198.06) rotate(-51.34)"/><polygon class="top-prim" points="15 502.29 10 499.4 10 499.41 10 505.18 5 508.07 16.2 514.53 15 513.84 15 502.29"/><polygon class="top-prim" points="60 528.27 55 525.39 55 531.16 50 534.05 65 542.71 60 539.82 60 528.27"/><path class="top-prim" d="M45,521.68c-1.73-.5-3.4-1-5-1.67v2.49l-5,2.89,13.78,8L45,531.16Z"/><rect class="top-prim" x="115" y="496.52"/><path class="top-prim" d="M30,514.73a30.1,30.1,0,0,1-5-4.43v3.54l-5,2.89L32.5,524,30,522.5Z"/><polygon class="curtain-R-prim-light" points="65 588.9 130 551.37 130 539.82 65 577.35 65 588.9"/><polygon class="curtain-R-prim-light" points="65 565.8 130 528.27 130 516.73 65 554.26 65 565.8"/><polygon class="curtain-R-prim-light" points="65 611.99 130 574.46 130 562.92 65 600.44 65 611.99"/><polygon class="curtain-R-prim-light" points="65 635.08 130 597.56 130 586.01 65 623.54 65 635.08"/><polygon class="curtain-R-prim-light" points="65 646.63 65 658.18 130 620.65 130 609.1 65 646.63"/><polygon class="curtain-R-prim-light" points="65 744.78 130 707.25 130 695.71 65 733.23 65 744.78"/><polygon class="curtain-R-prim-light" points="65 767.87 130 730.35 130 718.8 65 756.33 65 767.87"/><polygon class="curtain-R-prim-light" points="65 721.69 130 684.16 130 672.61 65 710.14 65 721.69"/><polygon class="curtain-R-prim-light" points="65 814.06 130 776.53 130 764.99 65 802.52 65 814.06"/><polygon class="curtain-R-prim-light" points="65 790.97 130 753.44 130 741.89 65 779.42 65 790.97"/><polygon class="curtain-L-prim-light" points="65 577.35 0 539.82 0 551.37 65 588.9 65 577.35"/><polygon class="curtain-L-prim-light" points="65 554.26 0 516.73 0 528.27 65 565.8 65 554.26"/><polygon class="curtain-L-prim-light" points="65 600.44 0 562.92 0 574.46 65 611.99 65 600.44"/><polygon class="curtain-L-prim-light" points="65 635.08 65 623.54 0 586.01 0 597.56 65 635.08"/><polygon class="curtain-L-prim-light" points="65 658.18 65 646.63 0 609.1 0 620.65 65 658.18"/><polygon class="curtain-L-prim-light" points="65 802.52 0 764.99 0 776.53 65 814.06 65 802.52"/><polygon class="curtain-L-prim-light" points="65 756.33 0 718.8 0 730.35 65 767.87 65 756.33"/><polygon class="curtain-L-prim-light" points="65 710.14 0 672.61 0 684.16 65 721.69 65 710.14"/><polygon class="curtain-L-prim-light" points="65 779.42 0 741.89 0 753.44 65 790.97 65 779.42"/><polygon class="curtain-L-prim-light" points="65 733.23 0 695.71 0 707.25 65 744.78 65 733.23"/><polygon class="exterior-R-prim" points="125 635.09 125 646.63 125 646.63 125 646.63 116.94 651.28 115 652.4 115 652.4 115 646.63 115 640.86 110 643.75 110 655.29 110 655.29 110 655.29 103.97 658.77 100 661.06 100 661.06 100 655.29 100 649.52 95 652.41 95 663.95 95 663.95 95 663.95 85 669.73 85 663.95 85 658.18 80 661.07 80 672.61 80 672.61 80 672.61 70 678.39 70 672.61 70 666.84 65 669.73 65 681.27 65 687.05 65 698.59 70 695.7 70 689.94 70 684.16 75 681.28 80 678.39 80 689.93 85 687.04 85 681.27 85 675.5 90 672.62 95 669.73 95 681.27 100 678.38 100 672.61 100 666.84 105 663.96 110 661.07 110 672.61 115 669.72 115 663.95 115 658.18 120 655.29 125 652.41 125 663.95 130 661.06 130 649.52 130 643.74 130 632.2 125 635.09"/><polygon class="exterior-L-prim" points="5 652.41 10 655.29 15 658.18 15 663.95 15 669.72 20 672.61 20 661.07 25 663.96 30 666.84 30 672.61 30 678.38 35 681.27 35 669.73 40 672.62 45 675.5 45 681.27 45 687.04 50 689.93 50 678.39 55 681.28 60 684.16 60 689.94 60 695.7 65 698.59 65 687.05 65 681.27 65 669.73 60 666.84 60 672.61 60 678.39 50 672.61 50 672.61 50 672.61 50 661.07 45 658.18 45 663.95 45 669.73 35 663.95 35 663.95 35 663.95 35 652.41 30 649.52 30 655.29 30 661.06 30 661.06 26.03 658.77 20 655.29 20 655.29 20 655.29 20 643.75 15 640.86 15 646.63 15 652.4 15 652.4 13.06 651.28 5 646.63 5 646.63 5 646.63 5 635.09 0 632.2 0 643.74 0 649.52 0 661.06 5 663.95 5 652.41"/><polygon class="top-prim-2" points="70 678.39 80 672.61 80 672.61 75 669.73 70 672.61 70 678.39"/><polygon class="top-prim-2" points="103.97 658.77 110 655.29 110 655.29 105 652.4 100 655.29 100 661.06 103.97 658.77"/><polygon class="top-prim-2" points="85 669.73 95 663.95 95 663.95 90 661.06 85 663.95 85 669.73"/><polygon class="top-prim-2" points="116.94 651.28 125 646.63 125 646.63 120 643.74 115 646.63 115 652.4 116.94 651.28"/><polygon class="top-prim-2" points="50 672.61 50 672.61 60 678.39 60 672.61 55 669.73 50 672.61"/><polygon class="top-prim-2" points="20 655.29 20 655.29 26.03 658.77 30 661.06 30 655.29 25 652.4 20 655.29"/><polygon class="top-prim-2" points="35 663.95 35 663.95 45 669.73 45 663.95 40 661.06 35 663.95"/><polygon class="top-prim-2" points="5 646.63 5 646.63 13.06 651.28 15 652.4 15 646.63 10 643.74 5 646.63"/><polygon class="cls-2" points="20 487.86 20 487.86 20 487.86 20 487.86"/><polygon class="cls-3" points="110 487.86 110 487.86 110 487.86 110 487.86"/><polygon class="top-prim" points="70 522.5 70 522.5 75 519.62 75 519.62 70 522.5"/><polygon class="exterior-L-dark" points="70 522.5 70 522.5 75 519.62 75 519.62 70 522.5"/><polygon class="top-prim" points="81.22 504.47 80 505.18 80 505.18 81.22 504.47"/><polygon class="exterior-L-dark" points="81.22 504.47 80 505.18 80 505.18 81.22 504.47"/><polygon class="top-prim" points="90 505.18 90 499.41 85 502.29 85 508.07 90 505.18"/><polygon class="exterior-L-dark" points="90 505.18 90 499.41 85 502.29 85 508.07 90 505.18"/><path class="top-prim" d="M90,516.73l-5,2.88v2.07c1.73-.5,3.4-1,5-1.67Z"/><path class="exterior-L-dark" d="M90,516.73l-5,2.88v2.07c1.73-.5,3.4-1,5-1.67Z"/><polygon class="top-prim" points="75 513.84 75 508.07 70 510.95 70 516.73 75 513.84"/><polygon class="exterior-L-dark" points="75 513.84 75 508.07 70 510.95 70 516.73 75 513.84"/><polygon class="top-prim" points="100 505.18 104.06 502.84 100 505.18 100 505.18"/><polygon class="exterior-L-dark" points="100 505.18 104.06 502.84 100 505.18 100 505.18"/><path class="top-prim" d="M30,514.73V511l-5-2.89v2.24A30.1,30.1,0,0,0,30,514.73Z"/><path class="exterior-L-dark" d="M30,514.73V511l-5-2.89v2.24A30.1,30.1,0,0,0,30,514.73Z"/><polygon class="top-prim" points="55 519.62 60 522.5 60 522.5 55 519.62 55 519.62"/><polygon class="exterior-L-dark" points="55 519.62 60 522.5 60 522.5 55 519.62 55 519.62"/><polygon class="top-prim" points="100 498.41 100 499.41 101.73 498.41 100 498.41"/><polygon class="exterior-L-dark" points="100 498.41 100 499.41 101.73 498.41 100 498.41"/><path class="top-prim" d="M105,510.3v-2.24L100,511v3.78A30.1,30.1,0,0,0,105,510.3Z"/><path class="exterior-L-dark" d="M105,510.3v-2.24L100,511v3.78A30.1,30.1,0,0,0,105,510.3Z"/><polygon class="top-prim" points="85 513.84 85 513.84 90 510.96 90 510.95 85 513.84"/><polygon class="exterior-L-dark" points="85 513.84 85 513.84 90 510.96 90 510.95 85 513.84"/><polygon class="top-prim" points="55 513.84 60 516.73 60 510.95 55 508.07 55 513.84"/><polygon class="exterior-L-dark" points="55 513.84 60 516.73 60 510.95 55 508.07 55 513.84"/><polygon class="top-prim" points="48.77 504.47 50 505.18 50 505.18 48.77 504.47"/><polygon class="exterior-L-dark" points="48.77 504.47 50 505.18 50 505.18 48.77 504.47"/><polygon class="top-prim" points="30 499.41 30 498.41 28.27 498.41 30 499.41"/><polygon class="exterior-L-dark" points="30 499.41 30 498.41 28.27 498.41 30 499.41"/><path class="top-prim" d="M45,521.68v-2.07l-5-2.88V520C41.6,520.63,43.27,521.18,45,521.68Z"/><path class="exterior-L-dark" d="M45,521.68v-2.07l-5-2.88V520C41.6,520.63,43.27,521.18,45,521.68Z"/><polygon class="top-prim" points="30 505.18 30 505.18 25.94 502.84 30 505.18"/><polygon class="exterior-L-dark" points="30 505.18 30 505.18 25.94 502.84 30 505.18"/><polygon class="top-prim" points="40 510.96 45 513.84 45 513.84 40 510.95 40 510.96"/><polygon class="exterior-L-dark" points="40 510.96 45 513.84 45 513.84 40 510.95 40 510.96"/><polygon class="top-prim" points="40 505.18 45 508.07 45 502.29 40 499.41 40 505.18"/><polygon class="exterior-L-dark" points="40 505.18 45 508.07 45 502.29 40 499.41 40 505.18"/><polygon class="cls-4" points="25 490.75 25 490.75 25 490.75 25 490.75"/><polygon class="exterior-L-dark" points="25 490.75 25 490.75 25 490.75 25 490.75"/><polygon class="cls-5" points="105 490.75 105 490.75 105 490.75 105 490.75"/><polygon class="exterior-L-dark" points="105 490.75 105 490.75 105 490.75 105 490.75"/><polygon class="top-prim" points="101.73 498.41 105 496.52 105 490.75 105 490.75 100 493.63 100 498.41 101.73 498.41"/><polygon class="cls-6" points="101.73 498.41 105 496.52 105 490.75 105 490.75 100 493.63 100 498.41 101.73 498.41"/><polygon class="exterior-L-dark" points="101.73 498.41 105 496.52 105 490.75 105 490.75 100 493.63 100 498.41 101.73 498.41"/><polygon class="top-prim" points="97.5 495.07 95 496.52 95 496.52 97.5 495.07"/><polygon class="cls-7" points="97.5 495.07 95 496.52 95 496.52 97.5 495.07"/><polygon class="exterior-L-dark" points="97.5 495.07 95 496.52 95 496.52 97.5 495.07"/><polygon class="top-prim" points="25 490.75 25 496.52 28.27 498.41 30 498.41 30 493.63 25 490.75 25 490.75"/><polygon class="cls-8" points="25 490.75 25 496.52 28.27 498.41 30 498.41 30 493.63 25 490.75 25 490.75"/><polygon class="exterior-L-dark" points="25 490.75 25 496.52 28.27 498.41 30 498.41 30 493.63 25 490.75 25 490.75"/><polygon class="top-prim" points="32.5 495.07 35 496.52 35 496.52 32.5 495.07"/><polygon class="cls-9" points="32.5 495.07 35 496.52 35 496.52 32.5 495.07"/><polygon class="exterior-L-dark" points="32.5 495.07 35 496.52 35 496.52 32.5 495.07"/><polygon class="exterior-L-prim" points="80 534.05 80 534.05 80 522.5 75 525.39 75 531.16 80 534.05"/><polygon class="exterior-L-prim" points="75 519.62 77.97 517.9 75 519.62 75 519.62"/><polygon class="exterior-L-prim" points="80 516.73 80 516.73 80 505.18 80 505.18 75 508.07 75 513.84 80 516.73"/><polygon class="exterior-R-prim" points="55 525.39 50 522.5 50 534.05 50 534.05 55 531.16 55 525.39"/><polygon class="exterior-R-prim" points="55 508.07 50 505.18 50 505.18 50 516.73 50 516.73 55 513.84 55 508.07"/><polygon class="exterior-R-prim" points="52.03 517.9 55 519.62 55 519.62 52.03 517.9"/><polygon class="exterior-L-prim" points="90 522.5 95 525.39 95 525.39 95 513.84 90 516.73 90 520.01 90 522.5"/><polygon class="exterior-L-prim" points="90 510.96 91.03 510.36 90 510.95 90 510.96"/><polygon class="exterior-L-prim" points="95 508.07 95 508.07 95 496.52 95 496.52 90 499.41 90 505.18 95 508.07"/><polygon class="exterior-R-prim" points="40 520.01 40 516.73 35 513.84 35 525.39 35 525.39 40 522.5 40 520.01"/><polygon class="exterior-R-prim" points="38.97 510.36 40 510.96 40 510.95 38.97 510.36"/><polygon class="exterior-R-prim" points="40 499.41 35 496.52 35 496.52 35 508.07 35 508.07 40 505.18 40 499.41"/><polygon class="exterior-L-prim" points="105 513.84 110 516.73 110 516.73 110 505.18 105 508.06 105 510.31 105 513.84"/><polygon class="exterior-L-prim" points="105 496.52 110 499.41 110 499.41 110 498.41 110 487.86 110 487.86 105 490.75 105 490.75 105 496.52"/><polygon class="exterior-R-prim" points="25 510.31 25 508.06 20 505.18 20 516.73 20 516.73 25 513.84 25 510.31"/><polygon class="exterior-R-prim" points="25 496.52 25 490.75 25 490.75 20 487.86 20 487.86 20 498.41 20 499.41 20 499.41 25 496.52"/><polygon class="exterior-L-prim" points="125 490.75 125 490.75 125 479.2 125 479.2 120 482.08 120 487.86 125 490.75"/><polygon class="exterior-L-prim" points="120 505.18 125 508.07 125 508.07 125 496.52 120 499.4 120 499.41 120 505.18"/><polygon class="exterior-R-prim" points="10 482.08 5 479.2 5 479.2 5 490.75 5 490.75 10 487.86 10 482.08"/><polygon class="exterior-R-prim" points="10 499.41 10 499.4 5 496.52 5 508.07 5 508.07 10 505.18 10 499.41"/><path class="top-prim" d="M40,364.13v2.49l-5,2.88-2.5-1.44L45,375.28V365.8Q42.41,365.05,40,364.13Z"/><path class="top-prim" d="M25,354.42V358l-5,2.88-3.73-2.15L30,366.62v-7.77A30.1,30.1,0,0,1,25,354.42Z"/><path class="top-prim" d="M95,369.5l-5-2.88v-2.49q-2.4.92-5,1.67v9.48l12.5-7.22Z"/><path class="top-prim" d="M110,360.84,105,358v-3.54a30.1,30.1,0,0,1-5,4.43v7.77l13.73-7.93Z"/><polygon class="top-prim" points="80 378.16 75 375.28 75 369.51 70 372.39 70 383.93 81.26 377.43 80 378.16"/><polygon class="top-prim" points="55 369.51 55 375.28 50 378.16 48.74 377.43 60 383.93 60 372.39 55 369.51"/><polygon class="top-prim" points="120 349.3 120 343.53 120 343.52 115 346.41 115 357.96 130 349.3 125 352.18 120 349.3"/><polygon class="top-prim" points="15 346.41 10 343.52 10 343.53 10 349.3 5 352.18 0 349.3 15 357.96 15 346.41"/><polygon class="curtain-R-prim-light" points="65 409.92 130 372.39 130 360.84 65 398.37 65 409.92"/><polygon class="curtain-R-prim-light" points="65 433.01 130 395.48 130 383.94 65 421.46 65 433.01"/><polygon class="curtain-R-prim-light" points="65 456.11 130 418.58 130 407.03 65 444.56 65 456.11"/><polygon class="curtain-R-prim-light" points="65 467.65 65 479.2 130 441.67 130 430.12 65 467.65"/><polygon class="curtain-R-prim-light" points="65 490.75 65 502.29 130 464.77 130 453.22 65 490.75"/><polygon class="curtain-L-prim-light" points="65 398.37 0 360.84 0 372.39 65 409.92 65 398.37"/><polygon class="curtain-L-prim-light" points="65 421.46 0 383.94 0 395.48 65 433.01 65 421.46"/><polygon class="curtain-L-prim-light" points="65 502.29 65 490.75 0 453.22 0 464.77 65 502.29"/><polygon class="curtain-L-prim-light" points="65 479.2 65 467.65 0 430.12 0 441.67 65 479.2"/><polygon class="curtain-L-prim-light" points="65 456.11 65 444.56 0 407.03 0 418.58 65 456.11"/><polygon class="exterior-R-prim" points="125 490.75 125 490.75 125 490.75 117.06 495.33 115 496.52 115 496.52 115 496.52 115 490.75 115 484.97 113.8 485.66 110 487.86 110 498.41 110 499.41 110 499.41 110 499.41 104.06 502.84 100 505.18 100 505.18 100 499.41 100 498.41 100 493.63 97.5 495.07 95 496.52 95 508.07 95 508.07 95 508.07 91.03 510.36 90 510.96 85 513.84 85 513.84 85 508.07 85 502.29 81.22 504.47 80 505.18 80 516.73 80 516.73 80 516.73 77.97 517.9 75 519.62 70 522.5 70 522.5 70 516.73 70 510.95 65 513.84 65 525.39 65 531.16 65 542.71 70 539.82 70 528.27 75 525.39 80 522.5 80 534.05 81.22 533.34 85 531.16 85 521.68 85 519.61 90 516.73 95 513.84 95 525.39 97.5 523.95 100 522.5 100 514.73 100 510.95 105 508.06 110 505.18 110 516.73 113.8 514.53 115 513.84 115 502.29 120 499.4 120 499.4 125 496.52 125 508.07 130 505.18 130 493.63 130 487.86 130 476.31 125 479.2 125 490.75"/><polygon class="exterior-L-prim" points="5 496.52 10 499.4 10 499.4 15 502.29 15 513.84 16.2 514.53 20 516.73 20 505.18 25 508.06 30 510.95 30 514.73 30 522.5 32.5 523.95 35 525.39 35 513.84 40 516.73 45 519.61 45 521.68 45 531.16 48.77 533.34 50 534.05 50 522.5 55 525.39 60 528.27 60 539.82 65 542.71 65 531.16 65 525.39 65 513.84 60 510.95 60 516.73 60 522.5 60 522.5 55 519.62 52.03 517.9 50 516.73 50 516.73 50 516.73 50 505.18 48.77 504.47 45 502.29 45 508.07 45 513.84 45 513.84 40 510.96 38.97 510.36 35 508.07 35 508.07 35 508.07 35 496.52 32.5 495.07 30 493.63 30 498.41 30 499.41 30 505.18 30 505.18 25.94 502.84 20 499.41 20 499.41 20 499.41 20 498.41 20 487.86 16.2 485.66 15 484.97 15 490.75 15 496.52 15 496.52 15 496.52 12.94 495.33 5 490.75 5 490.75 5 490.75 5 479.2 0 476.31 0 487.86 0 493.63 0 505.18 5 508.07 5 496.52"/><polygon class="top-prim-2" points="70 516.73 70 522.5 75 519.62 77.97 517.9 80 516.73 80 516.73 75 513.84 70 516.73"/><polygon class="top-prim-2" points="105 496.52 101.73 498.41 100 499.41 100 505.18 104.06 502.84 110 499.41 110 499.41 105 496.52"/><polygon class="top-prim-2" points="85 508.07 85 513.84 90 510.95 91.03 510.36 95 508.07 95 508.07 90 505.18 85 508.07"/><polygon class="top-prim-2" points="115 490.75 115 496.52 115 496.52 117.06 495.33 125 490.75 125 490.75 120 487.86 115 490.75"/><polygon class="top-prim-2" points="50 516.73 50 516.73 52.03 517.9 55 519.62 60 522.5 60 516.73 55 513.84 50 516.73"/><polygon class="top-prim-2" points="25 496.52 20 499.41 20 499.41 25.94 502.84 30 505.18 30 499.41 28.27 498.41 25 496.52"/><polygon class="top-prim-2" points="35 508.07 35 508.07 38.97 510.36 40 510.95 45 513.84 45 508.07 40 505.18 35 508.07"/><polygon class="top-prim-2" points="5 490.75 5 490.75 12.94 495.33 15 496.52 15 496.52 15 490.75 10 487.86 5 490.75"/><polygon class="cls-10" points="110 331.98 110 331.98 110 331.98 110 331.98"/><polygon class="cls-11" points="20 331.98 20 331.98 20 331.98 20 331.98"/><polygon class="top-prim" points="25 346.41 25.98 346.98 25 346.41 25 346.41"/><polygon class="exterior-L-dark" points="25 346.41 25.98 346.98 25 346.41 25 346.41"/><polygon class="top-prim" points="30 343.52 30 342.52 28.27 342.52 30 343.52"/><polygon class="exterior-L-dark" points="30 343.52 30 342.52 28.27 342.52 30 343.52"/><polygon class="top-prim" points="104.02 346.98 105 346.41 105 346.41 104.02 346.98"/><polygon class="exterior-L-dark" points="104.02 346.98 105 346.41 105 346.41 104.02 346.98"/><path class="top-prim" d="M30,358.85v-3.78l-5-2.88v2.23A30.1,30.1,0,0,0,30,358.85Z"/><path class="exterior-L-dark" d="M30,358.85v-3.78l-5-2.88v2.23A30.1,30.1,0,0,0,30,358.85Z"/><path class="top-prim" d="M105,354.42v-2.23l-5,2.88v3.78A30.1,30.1,0,0,0,105,354.42Z"/><path class="exterior-L-dark" d="M105,354.42v-2.23l-5,2.88v3.78A30.1,30.1,0,0,0,105,354.42Z"/><polygon class="top-prim" points="100 342.52 100 343.52 101.73 342.52 100 342.52"/><polygon class="exterior-L-dark" points="100 342.52 100 343.52 101.73 342.52 100 342.52"/><path class="top-prim" d="M45,365.8v-2.07l-5-2.88v3.28Q42.4,365,45,365.8Z"/><path class="exterior-L-dark" d="M45,365.8v-2.07l-5-2.88v3.28Q42.4,365,45,365.8Z"/><polygon class="top-prim" points="75 357.96 75 352.19 70 355.07 70 360.84 75 357.96"/><polygon class="exterior-L-dark" points="75 357.96 75 352.19 70 355.07 70 360.84 75 357.96"/><polygon class="top-prim" points="90 349.3 90 343.52 85 346.41 85 352.18 90 349.3"/><polygon class="exterior-L-dark" points="90 349.3 90 343.52 85 346.41 85 352.18 90 349.3"/><polygon class="top-prim" points="55 357.96 60 360.84 60 355.07 55 352.19 55 357.96"/><polygon class="exterior-L-dark" points="55 357.96 60 360.84 60 355.07 55 352.19 55 357.96"/><polygon class="top-prim" points="40 349.3 45 352.18 45 346.41 40 343.52 40 349.3"/><polygon class="exterior-L-dark" points="40 349.3 45 352.18 45 346.41 40 343.52 40 349.3"/><polygon class="top-prim" points="48.8 348.61 50 349.3 50 349.3 48.8 348.61"/><polygon class="exterior-L-dark" points="48.8 348.61 50 349.3 50 349.3 48.8 348.61"/><path class="top-prim" d="M90,360.85l-5,2.88v2.07q2.59-.75,5-1.67Z"/><path class="exterior-L-dark" d="M90,360.85l-5,2.88v2.07q2.59-.75,5-1.67Z"/><polygon class="top-prim" points="81.2 348.61 80 349.3 80 349.3 81.2 348.61"/><polygon class="exterior-L-dark" points="81.2 348.61 80 349.3 80 349.3 81.2 348.61"/><polygon class="cls-12" points="25 334.87 25 334.87 25 334.87 25 334.87"/><polygon class="exterior-L-dark" points="25 334.87 25 334.87 25 334.87 25 334.87"/><polygon class="cls-13" points="105 334.87 105 334.87 105 334.87 105 334.87"/><polygon class="exterior-L-dark" points="105 334.87 105 334.87 105 334.87 105 334.87"/><polygon class="top-prim" points="32.5 339.19 35 340.64 35 340.64 32.5 339.19"/><polygon class="cls-14" points="32.5 339.19 35 340.64 35 340.64 32.5 339.19"/><polygon class="exterior-L-dark" points="32.5 339.19 35 340.64 35 340.64 32.5 339.19"/><polygon class="top-prim" points="97.5 339.19 95 340.64 95 340.64 97.5 339.19"/><polygon class="cls-15" points="97.5 339.19 95 340.64 95 340.64 97.5 339.19"/><polygon class="exterior-L-dark" points="97.5 339.19 95 340.64 95 340.64 97.5 339.19"/><polygon class="top-prim" points="101.73 342.52 105 340.64 105 334.87 105 334.87 100 337.75 100 342.52 101.73 342.52"/><polygon class="cls-16" points="101.73 342.52 105 340.64 105 334.87 105 334.87 100 337.75 100 342.52 101.73 342.52"/><polygon class="exterior-L-dark" points="101.73 342.52 105 340.64 105 334.87 105 334.87 100 337.75 100 342.52 101.73 342.52"/><polygon class="top-prim" points="25 334.87 25 340.64 28.27 342.52 30 342.52 30 337.75 25 334.87 25 334.87"/><polygon class="cls-17" points="25 334.87 25 340.64 28.27 342.52 30 342.52 30 337.75 25 334.87 25 334.87"/><polygon class="exterior-L-dark" points="25 334.87 25 340.64 28.27 342.52 30 342.52 30 337.75 25 334.87 25 334.87"/><polygon class="exterior-L-prim" points="80 378.16 80 366.62 75 369.51 75 375.28 80 378.16"/><polygon class="exterior-L-prim" points="80 360.84 80 349.3 80 349.3 75 352.19 75 357.96 80 360.84"/><polygon class="exterior-L-prim" points="80 360.84 80 360.84 78.03 361.98 80 360.84"/><polygon class="exterior-R-prim" points="55 369.51 50 366.62 50 378.16 55 375.28 55 369.51"/><polygon class="exterior-R-prim" points="55 352.19 50 349.3 50 349.3 50 360.84 55 357.96 55 352.19"/><polygon class="exterior-R-prim" points="50 360.84 51.97 361.98 50 360.84 50 360.84"/><polygon class="exterior-L-prim" points="90 366.62 95 369.5 95 357.96 90 360.85 90 364.13 90 366.62"/><polygon class="exterior-L-prim" points="95 352.18 95 352.18 91.02 354.48 95 352.18"/><polygon class="exterior-L-prim" points="95 352.18 95 340.64 95 340.64 90 343.52 90 349.3 95 352.18"/><polygon class="exterior-R-prim" points="40 364.13 40 360.85 35 357.96 35 369.5 40 366.62 40 364.13"/><polygon class="exterior-R-prim" points="35 352.18 38.98 354.48 35 352.18 35 352.18"/><polygon class="exterior-R-prim" points="40 343.52 35 340.64 35 340.64 35 352.18 40 349.3 40 343.52"/><polygon class="exterior-L-prim" points="105 357.96 110 360.84 110 349.3 105 352.19 105 354.42 105 357.96"/><polygon class="exterior-L-prim" points="105 346.41 105 346.41 110 343.52 110 343.52 105 346.41"/><polygon class="exterior-L-prim" points="105 340.64 110 343.52 110 342.52 110 331.98 110 331.98 105 334.87 105 334.87 105 340.64"/><polygon class="exterior-R-prim" points="25 354.42 25 352.19 20 349.3 20 360.84 25 357.96 25 354.42"/><polygon class="exterior-R-prim" points="20 343.52 20 343.52 25 346.41 25 346.41 20 343.52"/><polygon class="exterior-R-prim" points="25 340.64 25 334.87 25 334.87 20 331.98 20 331.98 20 342.52 20 343.52 25 340.64"/><polygon class="exterior-L-prim" points="125 334.86 125 323.32 120 326.2 120 331.98 125 334.86"/><polygon class="exterior-L-prim" points="120 337.75 125 334.87 125 334.86 120 337.75 120 337.75"/><polygon class="exterior-L-prim" points="120 349.3 125 352.18 125 340.64 120 343.52 120 343.53 120 349.3"/><polygon class="exterior-R-prim" points="10 326.2 5 323.32 5 334.86 10 331.98 10 326.2"/><polygon class="exterior-R-prim" points="5 340.64 5 352.18 10 349.3 10 343.53 10 343.52 5 340.64"/><polygon class="exterior-R-prim" points="5 334.86 5 334.87 10 337.75 10 337.75 5 334.86"/><polygon class="top-prim" points="120 193.41 120 187.64 120 187.63 115 190.52 115 202.07 113.8 202.76 125 196.3 120 193.41"/><rect class="top-prim" x="115" y="184.75"/><path class="top-prim" d="M30,203a30.51,30.51,0,0,1-5-4.42v3.53L20,205l12.5,7.22L30,210.73Z"/><polygon class="top-prim" points="60 216.5 55 213.62 55 219.39 50 222.28 65 230.94 60 228.05 60 216.5"/><path class="top-prim" d="M90,210.73v-2.49c-1.6.62-3.27,1.17-5,1.67v9.48l-3.7,2.14L95,213.62Z"/><polygon class="top-prim" points="75 219.39 75 213.62 70 216.5 70 228.05 65 230.94 80 222.28 75 219.39"/><rect class="top-prim" x="15" y="184.75" transform="translate(-138.64 81.05) rotate(-51.34)"/><path class="top-prim" d="M45,209.91c-1.73-.5-3.4-1-5-1.67v2.49l-5,2.89,13.7,7.91L45,219.39Z"/><polygon class="top-prim" points="15 190.52 10 187.63 10 187.64 10 193.41 5 196.3 16.2 202.76 15 202.07 15 190.52"/><path class="top-prim" d="M105,202.07v-3.53a30.51,30.51,0,0,1-5,4.42v7.77l-2.5,1.45L110,205Z"/><polygon class="curtain-R-prim-light" points="65 300.22 130 262.69 130 251.15 65 288.67 65 300.22"/><polygon class="curtain-R-prim-light" points="65 254.03 130 216.51 130 204.96 65 242.49 65 254.03"/><polygon class="curtain-R-prim-light" points="65 277.13 130 239.6 130 228.05 65 265.58 65 277.13"/><polygon class="curtain-R-prim-light" points="65 334.86 65 346.41 130 308.88 130 297.33 65 334.86"/><polygon class="curtain-R-prim-light" points="65 311.77 65 323.31 130 285.79 130 274.24 65 311.77"/><polygon class="curtain-L-prim-light" points="65 265.58 0 228.05 0 239.6 65 277.13 65 265.58"/><polygon class="curtain-L-prim-light" points="65 242.49 0 204.96 0 216.51 65 254.03 65 242.49"/><polygon class="curtain-L-prim-light" points="65 346.41 65 334.86 0 297.33 0 308.88 65 346.41"/><polygon class="curtain-L-prim-light" points="65 300.22 65 288.67 0 251.15 0 262.69 65 300.22"/><polygon class="curtain-L-prim-light" points="65 323.31 65 311.77 0 274.24 0 285.79 65 323.31"/><polygon class="exterior-R-prim" points="125 334.86 125 334.87 120 337.75 117.03 339.47 115 340.64 115 334.86 115 329.09 113.78 329.8 110 331.98 110 342.52 110 343.52 110 343.52 105 346.41 104.02 346.98 100 349.3 100 343.52 100 342.52 100 337.75 97.5 339.19 95 340.64 95 352.18 95 352.18 91.02 354.48 85 357.96 85 352.18 85 346.41 81.2 348.61 80 349.3 80 360.84 80 360.84 78.03 361.98 70 366.62 70 360.84 70 355.07 65 357.96 65 369.5 65 375.28 65 386.82 70 383.93 70 372.39 75 369.51 80 366.62 80 378.16 81.26 377.43 85 375.27 85 365.8 85 363.73 90 360.85 95 357.96 95 369.5 97.5 368.06 100 366.62 100 358.85 100 355.07 105 352.19 110 349.3 110 360.84 113.72 358.69 115 357.96 115 346.41 120 343.52 120 343.52 125 340.64 125 352.18 130 349.3 130 337.75 130 331.98 130 320.43 125 323.32 125 334.86"/><polygon class="exterior-L-prim" points="5 340.64 10 343.52 10 343.52 15 346.41 15 357.96 16.27 358.69 20 360.84 20 349.3 25 352.19 30 355.07 30 358.85 30 366.62 32.5 368.06 35 369.5 35 357.96 40 360.85 45 363.73 45 365.8 45 375.27 48.74 377.43 50 378.16 50 366.62 55 369.51 60 372.39 60 383.93 65 386.82 65 375.28 65 369.5 65 357.96 60 355.07 60 360.84 60 366.62 51.97 361.98 50 360.84 50 360.84 50 349.3 48.8 348.61 45 346.41 45 352.18 45 357.96 38.98 354.48 35 352.18 35 352.18 35 340.64 32.5 339.19 30 337.75 30 342.52 30 343.52 30 349.3 25.98 346.98 25 346.41 20 343.52 20 343.52 20 342.52 20 331.98 16.23 329.8 15 329.09 15 334.86 15 340.64 12.97 339.47 10 337.75 5 334.87 5 334.86 5 323.32 0 320.43 0 331.98 0 337.75 0 349.3 5 352.18 5 340.64"/><polygon class="top-prim-2" points="70 360.84 70 366.62 78.03 361.98 80 360.84 75 357.96 70 360.84"/><polygon class="top-prim-2" points="105 340.64 101.73 342.52 100 343.52 100 349.3 104.02 346.98 105 346.41 110 343.52 105 340.64"/><polygon class="top-prim-2" points="85 352.18 85 357.96 91.02 354.48 95 352.18 90 349.3 85 352.18"/><polygon class="top-prim-2" points="115 334.86 115 340.64 117.03 339.47 120 337.75 125 334.86 120 331.98 115 334.86"/><polygon class="top-prim-2" points="50 360.84 51.97 361.98 60 366.62 60 360.84 55 357.96 50 360.84"/><polygon class="top-prim-2" points="25 340.64 20 343.52 25 346.41 25.98 346.98 30 349.3 30 343.52 28.27 342.52 25 340.64"/><polygon class="top-prim-2" points="35 352.18 38.98 354.48 45 357.96 45 352.18 40 349.3 35 352.18"/><polygon class="top-prim-2" points="5 334.86 10 337.75 12.97 339.47 15 340.64 15 334.86 10 331.98 5 334.86"/><polygon class="cls-18" points="110 176.09 110 176.09 110 176.09 110 176.09"/><polygon class="cls-19" points="20 176.09 20 176.09 20 176.09 20 176.09"/><polygon class="top-prim" points="48.8 192.72 50 193.41 50 193.41 48.8 192.72"/><polygon class="exterior-L-dark" points="48.8 192.72 50 193.41 50 193.41 48.8 192.72"/><path class="top-prim" d="M90,205l-5,2.88v2.07c1.73-.5,3.4-1,5-1.67Z"/><path class="exterior-L-dark" d="M90,205l-5,2.88v2.07c1.73-.5,3.4-1,5-1.67Z"/><polygon class="top-prim" points="40 199.19 45 202.07 45 202.07 40 199.19 40 199.19"/><polygon class="exterior-L-dark" points="40 199.19 45 202.07 45 202.07 40 199.19 40 199.19"/><polygon class="top-prim" points="85 202.07 85 202.07 90 199.19 90 199.19 85 202.07"/><polygon class="exterior-L-dark" points="85 202.07 85 202.07 90 199.19 90 199.19 85 202.07"/><path class="top-prim" d="M45,209.91v-2.07L40,205v3.28C41.6,208.86,43.27,209.41,45,209.91Z"/><path class="exterior-L-dark" d="M45,209.91v-2.07L40,205v3.28C41.6,208.86,43.27,209.41,45,209.91Z"/><polygon class="top-prim" points="55 202.07 60 204.96 60 199.18 55 196.3 55 202.07"/><polygon class="exterior-L-dark" points="55 202.07 60 204.96 60 199.18 55 196.3 55 202.07"/><path class="top-prim" d="M105,198.54v-2.25l-5,2.89V203A30.51,30.51,0,0,0,105,198.54Z"/><path class="exterior-L-dark" d="M105,198.54v-2.25l-5,2.89V203A30.51,30.51,0,0,0,105,198.54Z"/><path class="top-prim" d="M30,203v-3.78l-5-2.89v2.25A30.51,30.51,0,0,0,30,203Z"/><path class="exterior-L-dark" d="M30,203v-3.78l-5-2.89v2.25A30.51,30.51,0,0,0,30,203Z"/><polygon class="top-prim" points="90 193.41 90 187.64 85 190.52 85 196.3 90 193.41"/><polygon class="exterior-L-dark" points="90 193.41 90 187.64 85 190.52 85 196.3 90 193.41"/><polygon class="top-prim" points="30 187.64 30 186.64 28.27 186.64 30 187.64"/><polygon class="exterior-L-dark" points="30 187.64 30 186.64 28.27 186.64 30 187.64"/><polygon class="top-prim" points="100 193.41 104.06 191.07 100 193.41 100 193.41"/><polygon class="exterior-L-dark" points="100 193.41 104.06 191.07 100 193.41 100 193.41"/><polygon class="top-prim" points="75 202.07 75 196.3 70 199.18 70 204.96 75 202.07"/><polygon class="exterior-L-dark" points="75 202.07 75 196.3 70 199.18 70 204.96 75 202.07"/><polygon class="top-prim" points="55 207.85 60 210.73 60 210.73 55 207.84 55 207.85"/><polygon class="exterior-L-dark" points="55 207.85 60 210.73 60 210.73 55 207.84 55 207.85"/><polygon class="top-prim" points="30 193.41 30 193.41 25.94 191.07 30 193.41"/><polygon class="exterior-L-dark" points="30 193.41 30 193.41 25.94 191.07 30 193.41"/><polygon class="top-prim" points="40 193.41 45 196.3 45 190.52 40 187.64 40 193.41"/><polygon class="exterior-L-dark" points="40 193.41 45 196.3 45 190.52 40 187.64 40 193.41"/><polygon class="top-prim" points="81.2 192.72 80 193.41 80 193.41 81.2 192.72"/><polygon class="exterior-L-dark" points="81.2 192.72 80 193.41 80 193.41 81.2 192.72"/><polygon class="top-prim" points="70 210.73 70 210.73 75 207.85 75 207.84 70 210.73"/><polygon class="exterior-L-dark" points="70 210.73 70 210.73 75 207.85 75 207.84 70 210.73"/><polygon class="top-prim" points="100 186.64 100 187.64 101.73 186.64 100 186.64"/><polygon class="exterior-L-dark" points="100 186.64 100 187.64 101.73 186.64 100 186.64"/><polygon class="cls-20" points="25 178.97 25 178.97 25 178.98 25 178.97"/><polygon class="exterior-L-dark" points="25 178.97 25 178.97 25 178.98 25 178.97"/><polygon class="cls-21" points="105 178.97 105 178.97 105 178.98 105 178.97"/><polygon class="exterior-L-dark" points="105 178.97 105 178.97 105 178.98 105 178.97"/><polygon class="top-prim" points="97.45 183.33 95 184.75 95 184.75 97.45 183.33"/><polygon class="cls-22" points="97.45 183.33 95 184.75 95 184.75 97.45 183.33"/><polygon class="exterior-L-dark" points="97.45 183.33 95 184.75 95 184.75 97.45 183.33"/><polygon class="top-prim" points="25 178.98 25 184.75 28.27 186.64 30 186.64 30 181.86 25 178.97 25 178.98"/><polygon class="cls-23" points="25 178.98 25 184.75 28.27 186.64 30 186.64 30 181.86 25 178.97 25 178.98"/><polygon class="exterior-L-dark" points="25 178.98 25 184.75 28.27 186.64 30 186.64 30 181.86 25 178.97 25 178.98"/><polygon class="top-prim" points="32.55 183.33 35 184.75 35 184.75 32.55 183.33"/><polygon class="cls-24" points="32.55 183.33 35 184.75 35 184.75 32.55 183.33"/><polygon class="exterior-L-dark" points="32.55 183.33 35 184.75 35 184.75 32.55 183.33"/><polygon class="top-prim" points="101.73 186.64 105 184.75 105 178.98 105 178.97 100 181.86 100 186.64 101.73 186.64"/><polygon class="cls-25" points="101.73 186.64 105 184.75 105 178.98 105 178.97 100 181.86 100 186.64 101.73 186.64"/><polygon class="exterior-L-dark" points="101.73 186.64 105 184.75 105 178.98 105 178.97 100 181.86 100 186.64 101.73 186.64"/><polygon class="exterior-L-prim" points="80 222.28 80 222.28 80 210.73 75 213.62 75 219.39 80 222.28"/><polygon class="exterior-L-prim" points="80 204.96 80 204.96 80 193.41 80 193.41 75 196.3 75 202.07 80 204.96"/><polygon class="exterior-L-prim" points="75 207.85 77.97 206.13 75 207.84 75 207.85"/><polygon class="exterior-R-prim" points="55 213.62 50 210.73 50 222.28 50 222.28 55 219.39 55 213.62"/><polygon class="exterior-R-prim" points="52.03 206.13 55 207.85 55 207.84 52.03 206.13"/><polygon class="exterior-R-prim" points="55 196.3 50 193.41 50 193.41 50 204.96 50 204.96 55 202.07 55 196.3"/><polygon class="exterior-L-prim" points="90 210.73 95 213.62 95 213.62 95 202.07 90 204.96 90 208.24 90 210.73"/><polygon class="exterior-L-prim" points="95 196.3 95 196.3 95 184.75 95 184.75 90 187.64 90 193.41 95 196.3"/><polygon class="exterior-L-prim" points="90 199.19 91.03 198.59 90 199.19 90 199.19"/><polygon class="exterior-R-prim" points="40 208.24 40 204.96 35 202.07 35 213.62 35 213.62 40 210.73 40 208.24"/><polygon class="exterior-R-prim" points="40 187.64 35 184.75 35 184.75 35 196.3 35 196.3 40 193.41 40 187.64"/><polygon class="exterior-R-prim" points="38.97 198.59 40 199.19 40 199.19 38.97 198.59"/><polygon class="exterior-L-prim" points="105 202.07 110 204.96 110 204.96 110 193.41 105 196.29 105 198.54 105 202.07"/><polygon class="exterior-L-prim" points="105 184.75 110 187.64 110 187.64 110 186.64 110 176.09 110 176.09 105 178.97 105 178.98 105 184.75"/><polygon class="exterior-R-prim" points="25 198.54 25 196.29 20 193.41 20 204.96 20 204.96 25 202.07 25 198.54"/><polygon class="exterior-R-prim" points="25 184.75 25 178.98 25 178.97 20 176.09 20 176.09 20 186.64 20 187.64 20 187.64 25 184.75"/><polygon class="exterior-L-prim" points="125 178.98 125 178.98 125 167.43 125 167.43 120 170.31 120 176.09 125 178.98"/><polygon class="exterior-L-prim" points="120 193.41 125 196.3 125 196.3 125 184.75 120 187.63 120 187.64 120 193.41"/><polygon class="exterior-R-prim" points="10 170.31 5 167.43 5 167.43 5 178.98 5 178.98 10 176.09 10 170.31"/><polygon class="exterior-R-prim" points="10 187.64 10 187.63 5 184.75 5 196.3 5 196.3 10 193.41 10 187.64"/><polygon id="anchor-01_750.56" class="top-prim" points="130 37.53 65 0 0 37.53 65 75.05 130 37.53"/><polygon class="curtain-R-prim-light" points="65 121.24 130 83.71 130 72.17 65 109.7 65 121.24"/><polygon class="curtain-R-prim-light" points="65 144.34 130 106.81 130 95.26 65 132.79 65 144.34"/><polygon class="curtain-R-prim-light" points="65 98.15 130 60.62 130 49.07 65 86.6 65 98.15"/><polygon class="curtain-R-prim-light" points="65 178.98 65 190.52 130 153 130 141.45 65 178.98"/><polygon class="curtain-R-prim-light" points="65 155.88 65 167.43 130 129.9 130 118.36 65 155.88"/><polygon class="curtain-L-prim-light" points="65 109.7 0 72.17 0 83.71 65 121.24 65 109.7"/><polygon class="curtain-L-prim-light" points="65 86.6 0 49.07 0 60.62 65 98.15 65 86.6"/><polygon class="curtain-L-prim-light" points="65 190.52 65 178.98 0 141.45 0 153 65 190.52"/><polygon class="curtain-L-prim-light" points="65 144.34 65 132.79 0 95.26 0 106.81 65 144.34"/><polygon class="curtain-L-prim-light" points="65 167.43 65 155.88 0 118.36 0 129.9 65 167.43"/><polygon class="curtain-R-prim-dark" points="65 86.6 130 49.07 130 37.53 65 75.05 65 86.6"/><polygon class="curtain-R-prim-dark" points="65 132.79 130 95.26 130 83.71 65 121.24 65 132.79"/><polygon class="curtain-R-prim-dark" points="65 167.43 65 178.98 130 141.45 130 129.9 65 167.43"/><polygon class="curtain-R-prim-dark" points="65 109.7 130 72.17 130 60.62 65 98.15 65 109.7"/><polygon class="curtain-R-prim-dark" points="65 144.34 65 155.88 130 118.36 130 106.81 65 144.34"/><polygon class="curtain-R-prim-dark" points="65 190.52 65 202.07 70 199.18 70 199.18 75 196.3 80 193.41 81.2 192.72 85 190.52 85 190.52 90 187.64 95 184.75 97.45 183.33 100 181.86 100 181.86 105 178.97 105 178.97 110 176.09 110 176.09 113.73 173.94 115 173.2 115 173.2 120 170.31 125 167.43 130 164.54 130 153 65 190.52"/><polygon class="curtain-R-prim-dark" points="125 196.3 125 196.3 113.8 202.76 110 204.96 110 204.96 110 204.96 97.5 212.18 95 213.62 95 213.62 95 213.62 81.3 221.53 80 222.28 80 222.28 80 222.28 65 230.94 65 242.49 130 204.96 130 193.41 125 196.3 125 196.3"/><polygon class="curtain-R-prim-dark" points="65 288.67 130 251.15 130 239.6 65 277.13 65 288.67"/><polygon class="curtain-R-prim-dark" points="65 323.31 65 334.86 130 297.33 130 285.79 65 323.31"/><polygon class="curtain-R-prim-dark" points="65 265.58 130 228.05 130 216.51 65 254.03 65 265.58"/><polygon class="curtain-R-prim-dark" points="65 300.22 65 311.77 130 274.24 130 262.69 65 300.22"/><polygon class="curtain-R-prim-dark" points="65 346.41 65 357.96 70 355.07 75 352.19 80 349.3 81.2 348.61 85 346.41 90 343.52 95 340.64 97.5 339.19 100 337.75 105 334.87 105 334.87 110 331.98 110 331.98 113.78 329.8 115 329.09 120 326.2 125 323.32 130 320.43 130 308.88 65 346.41"/><polygon class="curtain-R-prim-dark" points="113.72 358.69 100 366.62 97.5 368.06 85 375.27 81.26 377.43 70 383.93 65 386.82 65 398.37 130 360.84 130 349.3 115 357.96 113.72 358.69"/><polygon class="curtain-R-prim-dark" points="65 444.56 130 407.03 130 395.48 65 433.01 65 444.56"/><polygon class="curtain-R-prim-dark" points="65 479.2 65 490.75 130 453.22 130 441.67 65 479.2"/><polygon class="curtain-R-prim-dark" points="65 421.46 130 383.94 130 372.39 65 409.92 65 421.46"/><polygon class="curtain-R-prim-dark" points="65 456.11 65 467.65 130 430.12 130 418.58 65 456.11"/><polygon class="curtain-R-prim-dark" points="65 502.29 65 513.84 70 510.95 75 508.07 80 505.18 81.22 504.47 85 502.29 90 499.41 95 496.52 97.5 495.07 100 493.63 105 490.75 105 490.75 110 487.86 110 487.86 113.8 485.66 115 484.97 120 482.08 125 479.2 130 476.31 130 464.77 65 502.29"/><polygon class="curtain-R-prim-dark" points="125 508.07 113.8 514.53 110 516.73 110 516.73 97.5 523.95 95 525.39 95 525.39 81.22 533.34 80 534.05 80 534.05 65 542.71 65 554.26 130 516.73 130 505.18 125 508.07 125 508.07"/><polygon class="curtain-R-prim-dark" points="65 600.44 130 562.92 130 551.37 65 588.9 65 600.44"/><polygon class="curtain-R-prim-dark" points="65 635.08 65 646.63 130 609.1 130 597.56 65 635.08"/><polygon class="curtain-R-prim-dark" points="65 577.35 130 539.82 130 528.27 65 565.8 65 577.35"/><polygon class="curtain-R-prim-dark" points="65 623.54 130 586.01 130 574.46 65 611.99 65 623.54"/><polygon class="curtain-R-prim-dark" points="65 658.18 65 669.73 70 666.84 70 672.61 75 669.73 75 663.96 80 661.07 85 658.18 85 663.95 90 661.06 90 655.29 95 652.41 100 649.52 100 655.29 105 652.4 105 646.63 110 643.75 115 640.86 115 646.63 120 643.74 120 637.97 125 635.09 130 632.2 130 620.65 65 658.18"/><polygon class="curtain-R-prim-dark" points="125 663.95 115 669.72 110 672.61 110 672.61 100 678.38 95 681.27 95 681.27 85 687.04 80 689.93 80 689.93 70 695.7 65 698.59 65 710.14 130 672.61 130 661.06 125 663.95 125 663.95"/><polygon class="curtain-R-prim-dark" points="65 756.33 130 718.8 130 707.25 65 744.78 65 756.33"/><polygon class="curtain-R-prim-dark" points="65 802.52 130 764.99 130 753.44 65 790.97 65 802.52"/><polygon class="curtain-R-prim-dark" points="65 733.23 130 695.71 130 684.16 65 721.69 65 733.23"/><polygon class="curtain-R-prim-dark" points="65 779.42 130 741.89 130 730.35 65 767.87 65 779.42"/><polygon class="curtain-R-prim-dark" points="65 825.61 130 788.08 130 776.53 65 814.06 65 825.61"/><polygon class="curtain-L-prim-dark" points="65 75.05 0 37.53 0 49.07 65 86.6 65 75.05"/><polygon class="curtain-L-prim-dark" points="65 121.24 0 83.71 0 95.26 65 132.79 65 121.24"/><polygon class="curtain-L-prim-dark" points="65 178.98 65 167.43 0 129.9 0 141.45 65 178.98"/><polygon class="curtain-L-prim-dark" points="65 98.15 0 60.62 0 72.17 65 109.7 65 98.15"/><polygon class="curtain-L-prim-dark" points="65 155.88 65 144.34 0 106.81 0 118.36 65 155.88"/><polygon class="curtain-L-prim-dark" points="10 170.31 15 173.2 15 173.2 16.27 173.94 20 176.09 20 176.09 25 178.97 25 178.97 30 181.86 30 181.86 32.55 183.33 35 184.75 40 187.64 45 190.52 45 190.52 48.8 192.72 50 193.41 55 196.3 60 199.18 60 199.18 65 202.07 65 190.52 0 153 0 164.54 5 167.43 10 170.31"/><polygon class="curtain-L-prim-dark" points="65 230.94 50 222.28 50 222.28 50 222.28 48.7 221.53 35 213.62 35 213.62 35 213.62 32.5 212.18 20 204.96 20 204.96 20 204.96 16.2 202.76 5 196.3 5 196.3 5 196.3 0 193.41 0 204.96 65 242.49 65 230.94"/><polygon class="curtain-L-prim-dark" points="65 277.13 0 239.6 0 251.15 65 288.67 65 277.13"/><polygon class="curtain-L-prim-dark" points="65 334.86 65 323.31 0 285.79 0 297.33 65 334.86"/><polygon class="curtain-L-prim-dark" points="65 254.03 0 216.51 0 228.05 65 265.58 65 254.03"/><polygon class="curtain-L-prim-dark" points="65 311.77 65 300.22 0 262.69 0 274.24 65 311.77"/><polygon class="curtain-L-prim-dark" points="10 326.2 15 329.09 16.23 329.8 20 331.98 20 331.98 25 334.87 25 334.87 30 337.75 32.5 339.19 35 340.64 40 343.52 45 346.41 48.8 348.61 50 349.3 55 352.19 60 355.07 65 357.96 65 346.41 0 308.88 0 320.43 5 323.32 10 326.2"/><polygon class="curtain-L-prim-dark" points="65 386.82 60 383.93 48.74 377.43 45 375.27 32.5 368.06 30 366.62 16.27 358.69 15 357.96 0 349.3 0 360.84 65 398.37 65 386.82"/><polygon class="curtain-L-prim-dark" points="65 433.01 0 395.48 0 407.03 65 444.56 65 433.01"/><polygon class="curtain-L-prim-dark" points="65 490.75 65 479.2 0 441.67 0 453.22 65 490.75"/><polygon class="curtain-L-prim-dark" points="65 409.92 0 372.39 0 383.94 65 421.46 65 409.92"/><polygon class="curtain-L-prim-dark" points="65 467.65 65 456.11 0 418.58 0 430.12 65 467.65"/><polygon class="curtain-L-prim-dark" points="10 482.08 15 484.97 16.2 485.66 20 487.86 20 487.86 25 490.75 25 490.75 30 493.63 32.5 495.07 35 496.52 40 499.41 45 502.29 48.77 504.47 50 505.18 55 508.07 60 510.95 65 513.84 65 502.29 0 464.77 0 476.31 5 479.2 10 482.08"/><polygon class="curtain-L-prim-dark" points="65 542.71 50 534.05 50 534.05 48.77 533.34 35 525.39 35 525.39 32.5 523.95 20 516.73 20 516.73 16.2 514.53 5 508.07 5 508.07 0 505.18 0 516.73 65 554.26 65 542.71"/><polygon class="curtain-L-prim-dark" points="65 588.9 0 551.37 0 562.92 65 600.44 65 588.9"/><polygon class="curtain-L-prim-dark" points="65 646.63 65 635.08 0 597.56 0 609.1 65 646.63"/><polygon class="curtain-L-prim-dark" points="65 565.8 0 528.27 0 539.82 65 577.35 65 565.8"/><polygon class="curtain-L-prim-dark" points="65 611.99 0 574.46 0 586.01 65 623.54 65 611.99"/><polygon class="curtain-L-prim-dark" points="5 635.09 10 637.97 10 643.74 15 646.63 15 640.86 20 643.75 25 646.63 25 652.4 30 655.29 30 649.52 35 652.41 40 655.29 40 661.06 45 663.95 45 658.18 50 661.07 55 663.96 55 669.73 60 672.61 60 666.84 65 669.73 65 658.18 0 620.65 0 632.2 5 635.09"/><polygon class="curtain-L-prim-dark" points="65 698.59 60 695.7 50 689.93 50 689.93 45 687.04 35 681.27 35 681.27 30 678.38 20 672.61 20 672.61 15 669.72 5 663.95 5 663.95 0 661.06 0 672.61 65 710.14 65 698.59"/><polygon class="curtain-L-prim-dark" points="65 744.78 0 707.25 0 718.8 65 756.33 65 744.78"/><polygon class="curtain-L-prim-dark" points="65 790.97 0 753.44 0 764.99 65 802.52 65 790.97"/><polygon class="curtain-L-prim-dark" points="65 721.69 0 684.16 0 695.71 65 733.23 65 721.69"/><polygon class="curtain-L-prim-dark" points="65 767.87 0 730.35 0 741.89 65 779.42 65 767.87"/><polygon class="curtain-L-prim-dark" points="65 814.06 0 776.53 0 788.08 65 825.61 65 814.06"/><polygon class="exterior-R-prim" points="125 178.98 125 178.98 125 178.98 117.06 183.56 115 184.75 115 184.75 115 184.75 115 178.98 115 173.2 115 173.2 113.73 173.94 110 176.09 110 186.64 110 187.64 110 187.64 110 187.64 104.06 191.07 100 193.41 100 193.41 100 187.64 100 186.64 100 181.86 100 181.86 97.45 183.33 95 184.75 95 196.3 95 196.3 95 196.3 91.03 198.59 90 199.19 85 202.07 85 202.07 85 196.3 85 190.52 85 190.52 81.2 192.72 80 193.41 80 204.96 80 204.96 80 204.96 77.97 206.13 75 207.85 70 210.73 70 210.73 70 204.96 70 199.18 70 199.18 65 202.07 65 213.62 65 219.39 65 230.94 70 228.05 70 216.5 75 213.62 80 210.73 80 222.28 80 222.28 81.3 221.53 85 219.39 85 209.91 85 207.84 90 204.96 95 202.07 95 213.62 95 213.62 97.5 212.18 100 210.73 100 202.96 100 199.18 105 196.29 110 193.41 110 204.96 110 204.96 113.8 202.76 115 202.07 115 190.52 120 187.63 120 187.63 125 184.75 125 196.3 125 196.3 130 193.41 130 181.86 130 176.09 130 164.54 125 167.43 125 178.98"/><polygon class="exterior-L-prim" points="5 196.3 5 184.75 10 187.63 10 187.63 15 190.52 15 202.07 16.2 202.76 20 204.96 20 204.96 20 193.41 25 196.29 30 199.18 30 202.96 30 210.73 32.5 212.18 35 213.62 35 213.62 35 202.07 40 204.96 45 207.84 45 209.91 45 219.39 48.7 221.53 50 222.28 50 222.28 50 210.73 55 213.62 60 216.5 60 228.05 65 230.94 65 219.39 65 213.62 65 202.07 60 199.18 60 199.18 60 204.96 60 210.73 60 210.73 55 207.85 52.03 206.13 50 204.96 50 204.96 50 204.96 50 193.41 48.8 192.72 45 190.52 45 190.52 45 196.3 45 202.07 45 202.07 40 199.19 38.97 198.59 35 196.3 35 196.3 35 196.3 35 184.75 32.55 183.33 30 181.86 30 181.86 30 186.64 30 187.64 30 193.41 30 193.41 25.94 191.07 20 187.64 20 187.64 20 187.64 20 186.64 20 176.09 16.27 173.94 15 173.2 15 173.2 15 178.98 15 184.75 15 184.75 15 184.75 12.94 183.56 5 178.98 5 178.98 5 178.98 5 167.43 0 164.54 0 176.09 0 181.86 0 193.41 5 196.3 5 196.3"/><polygon class="top-prim-2" points="70 204.96 70 210.73 75 207.84 77.97 206.13 80 204.96 80 204.96 75 202.07 70 204.96"/><polygon class="top-prim-2" points="105 184.75 101.73 186.64 100 187.64 100 193.41 104.06 191.07 110 187.64 110 187.64 105 184.75"/><polygon class="top-prim-2" points="85 196.3 85 202.07 90 199.19 91.03 198.59 95 196.3 95 196.3 90 193.41 85 196.3"/><polygon class="top-prim-2" points="115 178.98 115 184.75 115 184.75 117.06 183.56 125 178.98 125 178.98 120 176.09 115 178.98"/><polygon class="top-prim-2" points="50 204.96 50 204.96 52.03 206.13 55 207.84 60 210.73 60 204.96 55 202.07 50 204.96"/><polygon class="top-prim-2" points="25 184.75 20 187.64 20 187.64 25.94 191.07 30 193.41 30 187.64 28.27 186.64 25 184.75"/><polygon class="top-prim-2" points="35 196.3 35 196.3 38.97 198.59 40 199.19 45 202.07 45 196.3 40 193.41 35 196.3"/><polygon class="top-prim-2" points="5 178.98 5 178.98 12.94 183.56 15 184.75 15 184.75 15 178.98 10 176.09 5 178.98"/></svg>