<svg id="Layer_1" data-name="Layer 1" xmlns="http://www.w3.org/2000/svg" xmlns:xlink="http://www.w3.org/1999/xlink" viewBox="0 0 130 825.61"><defs><style>.cls-1{fill:none;}.top-prim{fill:#dd8986;}.window-R-prim{fill:#202020;}.exterior-L-prim{fill:#74302f;}.exterior-R-prim{fill:#d15752;}.top-prim{fill:#dd8a87;}.cls-2{fill:url(#linear-gradient);}.cls-3{fill:url(#linear-gradient-2);}.exterior-L-dark{fill:#512220;}.cls-4{fill:url(#linear-gradient-3);}.cls-5{fill:url(#linear-gradient-4);}.cls-6{fill:url(#linear-gradient-5);}.cls-7{fill:url(#linear-gradient-6);}.cls-8{fill:url(#linear-gradient-7);}.cls-9{fill:url(#linear-gradient-8);}.cls-10{fill:url(#linear-gradient-9);}.cls-11{fill:url(#linear-gradient-10);}.cls-12{fill:url(#linear-gradient-11);}.cls-13{fill:url(#linear-gradient-12);}.cls-14{fill:url(#linear-gradient-13);}.cls-15{fill:url(#linear-gradient-14);}.cls-16{fill:url(#linear-gradient-15);}.cls-17{fill:url(#linear-gradient-16);}.cls-18{fill:url(#linear-gradient-17);}.cls-19{fill:url(#linear-gradient-18);}.cls-20{fill:url(#linear-gradient-19);}.cls-21{fill:url(#linear-gradient-20);}.cls-22{fill:url(#linear-gradient-21);}.cls-23{fill:url(#linear-gradient-22);}.cls-24{fill:url(#linear-gradient-23);}.cls-25{fill:url(#linear-gradient-24);}</style><linearGradient id="linear-gradient" x1="-2294.39" y1="756.86" x2="-2294.2" y2="756.87" gradientTransform="matrix(90, 0, 0, -24.32, 206516.09, 18894.68)" gradientUnits="userSpaceOnUse"><stop offset="0.01" stop-color="#918880"/><stop offset="0.98" stop-color="#dad7d3"/></linearGradient><linearGradient id="linear-gradient-2" x1="-2293.5" y1="756.85" x2="-2293.31" y2="756.86" xlink:href="#linear-gradient"/><linearGradient id="linear-gradient-3" x1="-2293.49" y1="756.74" x2="-2293.42" y2="756.74" xlink:href="#linear-gradient"/><linearGradient id="linear-gradient-4" x1="-2294.38" y1="756.74" x2="-2294.33" y2="756.74" xlink:href="#linear-gradient"/><linearGradient id="linear-gradient-5" x1="-2294.37" y1="756.54" x2="-2293.4" y2="756.59" xlink:href="#linear-gradient"/><linearGradient id="linear-gradient-6" x1="-2294.37" y1="756.49" x2="-2293.39" y2="756.54" xlink:href="#linear-gradient"/><linearGradient id="linear-gradient-7" x1="-2294.23" y1="756.5" x2="-2294.23" y2="756.5" xlink:href="#linear-gradient"/><linearGradient id="linear-gradient-8" x1="-2294.38" y1="756.58" x2="-2293.4" y2="756.63" xlink:href="#linear-gradient"/><linearGradient id="linear-gradient-9" x1="-2293.5" y1="756.85" x2="-2293.31" y2="756.86" gradientTransform="matrix(90, 0, 0, -24.32, 206516.09, 18738.79)" xlink:href="#linear-gradient"/><linearGradient id="linear-gradient-10" x1="-2294.39" y1="756.86" x2="-2294.2" y2="756.87" gradientTransform="matrix(90, 0, 0, -24.32, 206516.09, 18738.79)" xlink:href="#linear-gradient"/><linearGradient id="linear-gradient-11" x1="-2294.38" y1="756.74" x2="-2294.33" y2="756.74" gradientTransform="matrix(90, 0, 0, -24.32, 206516.09, 18738.79)" xlink:href="#linear-gradient"/><linearGradient id="linear-gradient-12" x1="-2293.49" y1="756.74" x2="-2293.42" y2="756.74" gradientTransform="matrix(90, 0, 0, -24.32, 206516.09, 18738.79)" xlink:href="#linear-gradient"/><linearGradient id="linear-gradient-13" x1="-2294.37" y1="756.49" x2="-2293.39" y2="756.54" gradientTransform="matrix(90, 0, 0, -24.32, 206516.09, 18738.79)" xlink:href="#linear-gradient"/><linearGradient id="linear-gradient-14" x1="-2294.37" y1="756.54" x2="-2293.4" y2="756.59" gradientTransform="matrix(90, 0, 0, -24.32, 206516.09, 18738.79)" xlink:href="#linear-gradient"/><linearGradient id="linear-gradient-15" x1="-2294.38" y1="756.58" x2="-2293.4" y2="756.63" gradientTransform="matrix(90, 0, 0, -24.32, 206516.09, 18738.79)" xlink:href="#linear-gradient"/><linearGradient id="linear-gradient-16" x1="-2294.23" y1="756.5" x2="-2294.23" y2="756.5" gradientTransform="matrix(90, 0, 0, -24.32, 206516.09, 18738.79)" xlink:href="#linear-gradient"/><linearGradient id="linear-gradient-17" x1="-2294.39" y1="756.86" x2="-2294.2" y2="756.87" gradientTransform="matrix(90, 0, 0, -24.32, 206516.09, 18582.91)" xlink:href="#linear-gradient"/><linearGradient id="linear-gradient-18" x1="-2293.5" y1="756.85" x2="-2293.31" y2="756.86" gradientTransform="matrix(90, 0, 0, -24.32, 206516.09, 18582.91)" xlink:href="#linear-gradient"/><linearGradient id="linear-gradient-19" x1="-2294.38" y1="756.74" x2="-2294.33" y2="756.74" gradientTransform="matrix(90, 0, 0, -24.32, 206516.09, 18582.91)" xlink:href="#linear-gradient"/><linearGradient id="linear-gradient-20" x1="-2293.49" y1="756.74" x2="-2293.42" y2="756.74" gradientTransform="matrix(90, 0, 0, -24.32, 206516.09, 18582.91)" xlink:href="#linear-gradient"/><linearGradient id="linear-gradient-21" x1="-2294.38" y1="756.58" x2="-2293.4" y2="756.63" gradientTransform="matrix(90, 0, 0, -24.32, 206516.09, 18582.91)" xlink:href="#linear-gradient"/><linearGradient id="linear-gradient-22" x1="-2294.37" y1="756.49" x2="-2293.39" y2="756.54" gradientTransform="matrix(90, 0, 0, -24.32, 206516.09, 18582.91)" xlink:href="#linear-gradient"/><linearGradient id="linear-gradient-23" x1="-2294.37" y1="756.54" x2="-2293.4" y2="756.59" gradientTransform="matrix(90, 0, 0, -24.32, 206516.09, 18582.91)" xlink:href="#linear-gradient"/><linearGradient id="linear-gradient-24" x1="-2294.23" y1="756.5" x2="-2294.23" y2="756.5" gradientTransform="matrix(90, 0, 0, -24.32, 206516.09, 18582.91)" xlink:href="#linear-gradient"/></defs><title>Artboard 3</title><polygon class="cls-1" points="10 187.63 10 187.63 10 187.64 10 187.63"/><polygon class="cls-1" points="120 326.2 115 329.09 115 334.86 120 331.98 120 326.2"/><polygon class="cls-1" points="117.03 339.47 120 337.75 120 337.75 117.03 339.47"/><polygon class="cls-1" points="110 487.86 113.8 485.66 110 487.86 110 487.86"/><polygon class="cls-1" points="120 187.63 120 187.63 120 187.64 120 187.63"/><polygon class="cls-1" points="110 176.09 113.78 173.91 110 176.09 110 176.09"/><polygon class="cls-1" points="5 167.43 0 164.54 5 167.43 5 167.43"/><polygon class="cls-1" points="10 343.52 10 343.52 10 343.53 10 343.52"/><polygon class="cls-1" points="13.06 183.63 15 184.75 15 184.75 13.06 183.63"/><polygon class="cls-1" points="120 499.4 120 499.4 120 499.41 120 499.4"/><polygon class="cls-1" points="15 178.98 15 173.2 10 170.31 10 176.09 15 178.98"/><polygon class="cls-1" points="125 479.2 130 476.31 125 479.2 125 479.2"/><polygon class="cls-1" points="120 482.08 115 484.97 115 490.75 120 487.86 120 482.08"/><polygon class="cls-1" points="110 331.98 110 331.98 113.78 329.8 110 331.98"/><polygon class="cls-1" points="115 496.52 117.06 495.33 115 496.52 115 496.52"/><polygon class="cls-1" points="120 343.52 120 343.52 120 343.53 120 343.52"/><polygon class="cls-1" points="125 167.43 130 164.54 125 167.43 125 167.43"/><polygon class="cls-1" points="115 184.75 116.94 183.63 115 184.75 115 184.75"/><polygon class="cls-1" points="120 170.31 115 173.2 115 178.98 120 176.09 120 170.31"/><polygon class="cls-1" points="5 479.2 0 476.31 5 479.2 5 479.2"/><polygon class="cls-1" points="16.23 329.8 20 331.98 20 331.98 16.23 329.8"/><polygon class="cls-1" points="10 499.4 10 499.4 10 499.41 10 499.4"/><polygon class="cls-1" points="16.23 173.91 20 176.09 20 176.09 16.23 173.91"/><polygon class="cls-1" points="15 490.75 15 484.97 10 482.08 10 487.86 15 490.75"/><polygon class="cls-1" points="12.94 495.33 15 496.52 15 496.52 12.94 495.33"/><polygon class="cls-1" points="10 337.75 12.97 339.47 10 337.75 10 337.75"/><polygon class="cls-1" points="16.2 485.66 20 487.86 20 487.86 16.2 485.66"/><polygon class="cls-1" points="15 334.86 15 329.09 10 326.2 10 331.98 15 334.86"/><polygon class="top-prim" points="60 689.94 55 687.05 55 687.05 50 689.93 60 695.7 60 689.94"/><polygon class="top-prim" points="45 681.27 40 678.39 40 678.39 35 681.27 45 687.04 45 681.27"/><polygon class="top-prim" points="5 663.95 15 669.72 15 663.95 10 661.06 5 663.95"/><polygon class="top-prim" points="115 663.95 115 669.72 125 663.95 120 661.06 115 663.95"/><polygon class="top-prim" points="90 678.39 85 681.27 85 687.04 95 681.27 90 678.39 90 678.39"/><polygon class="top-prim" points="105 669.72 100 672.61 100 678.38 110 672.61 105 669.73 105 669.72"/><polygon class="top-prim" points="75 687.05 75 687.05 70 689.94 70 695.7 80 689.93 75 687.05"/><polygon class="top-prim" points="30 672.61 25 669.72 25 669.73 20 672.61 30 678.38 30 672.61"/><polygon class="window-R-prim" points="120 637.97 115 640.86 115 646.63 120 643.74 120 637.97"/><polygon class="window-R-prim" points="115 652.4 116.94 651.28 115 652.4 115 652.4"/><polygon class="window-R-prim" points="75 663.96 70 666.84 70 672.61 75 669.73 75 663.96"/><polygon class="window-R-prim" points="100 661.06 103.97 658.77 100 661.06 100 661.06"/><polygon class="window-R-prim" points="105 663.96 100 666.84 100 672.61 105 669.72 105 663.96"/><polygon class="window-R-prim" points="105 646.63 100 649.52 100 655.29 105 652.4 105 646.63"/><polygon class="window-R-prim" points="90 655.29 85 658.18 85 663.95 90 661.06 90 655.29"/><polygon class="window-R-prim" points="75 681.28 70 684.16 70 689.94 75 687.05 75 681.28"/><polygon class="window-R-prim" points="120 661.06 120 655.29 115 658.18 115 663.95 120 661.06 120 661.06"/><polygon class="window-R-prim" points="90 678.39 90 672.62 85 675.5 85 681.27 90 678.39"/><polygon points="15 652.4 15 652.4 13.06 651.28 15 652.4"/><polygon points="15 646.63 15 640.86 10 637.97 10 643.74 15 646.63"/><polygon points="45 681.27 45 675.5 40 672.62 40 678.39 45 681.27"/><polygon points="10 661.06 15 663.95 15 658.18 10 655.29 10 661.06 10 661.06"/><polygon points="60 689.94 60 684.16 55 681.28 55 687.05 60 689.94"/><polygon points="55 663.96 55 669.73 60 672.61 60 666.84 55 663.96"/><polygon points="30 672.61 30 666.84 25 663.96 25 669.72 30 672.61"/><polygon points="30 661.06 30 661.06 26.03 658.77 30 661.06"/><polygon points="45 663.95 45 658.18 40 655.29 40 661.06 45 663.95"/><polygon points="30 655.29 30 649.52 25 646.63 25 652.4 30 655.29"/><polygon class="exterior-L-prim" points="75 687.05 80 689.93 80 689.93 80 678.39 75 681.28 75 687.05 75 687.05"/><polygon class="exterior-L-prim" points="80 672.61 80 672.61 80 661.07 75 663.96 75 669.73 80 672.61"/><polygon class="exterior-R-prim" points="55 687.05 55 681.28 50 678.39 50 689.93 50 689.93 55 687.05 55 687.05"/><polygon class="exterior-R-prim" points="55 663.96 50 661.07 50 672.61 50 672.61 55 669.73 55 663.96"/><polygon class="exterior-L-prim" points="90 678.39 95 681.27 95 681.27 95 669.73 90 672.62 90 678.39 90 678.39"/><polygon class="exterior-L-prim" points="95 652.41 90 655.29 90 661.06 95 663.95 95 663.95 95 652.41"/><polygon class="exterior-R-prim" points="40 678.39 40 672.62 35 669.73 35 681.27 35 681.27 40 678.39 40 678.39"/><polygon class="exterior-R-prim" points="40 655.29 35 652.41 35 663.95 35 663.95 40 661.06 40 655.29"/><polygon class="exterior-L-prim" points="110 661.07 105 663.96 105 669.72 105 669.73 110 672.61 110 672.61 110 661.07"/><polygon class="exterior-L-prim" points="110 643.75 105 646.63 105 652.4 110 655.29 110 655.29 110 643.75"/><polygon class="exterior-R-prim" points="25 669.72 25 663.96 20 661.07 20 672.61 20 672.61 25 669.73 25 669.72"/><polygon class="exterior-R-prim" points="25 646.63 20 643.75 20 655.29 20 655.29 25 652.4 25 646.63"/><polygon class="exterior-L-prim" points="125 635.09 120 637.97 120 643.74 125 646.63 125 646.63 125 635.09"/><polygon class="exterior-L-prim" points="125 652.41 120 655.29 120 661.06 120 661.06 125 663.95 125 663.95 125 652.41"/><polygon class="exterior-R-prim" points="10 661.06 10 661.06 10 655.29 5 652.41 5 663.95 5 663.95 10 661.06"/><polygon class="exterior-R-prim" points="10 637.97 5 635.09 5 646.63 5 646.63 10 643.74 10 637.97"/><polygon class="top-prim" points="10 505.18 5 508.07 16.2 514.53 15 513.84 15 502.29 10 499.4 10 499.41 10 505.18"/><polygon class="top-prim" points="60 528.27 55 525.39 55 531.16 50 534.05 65 542.71 60 539.82 60 528.27"/><path class="top-prim" d="M90,522.5V520c-1.6.62-3.27,1.17-5,1.67v9.48l-3.78,2.18,13.78-8Z"/><polygon class="top-prim" points="115 496.52 115 496.52 115 496.52 115 496.52 115 496.52"/><path class="top-prim" d="M25,510.3v3.54l-5,2.89L32.5,524,30,522.5v-7.77A30.1,30.1,0,0,1,25,510.3Z"/><polygon class="top-prim" points="113.8 514.53 125 508.07 120 505.18 120 499.41 120 499.4 115 502.29 115 513.84 113.8 514.53"/><path class="top-prim" d="M110,516.73l-5-2.89V510.3a30.1,30.1,0,0,1-5,4.43v7.77L97.5,524Z"/><polygon class="top-prim" points="15 496.52 15 496.52 15 496.52 15 496.52 15 496.52"/><polygon class="top-prim" points="75 531.16 75 525.39 70 528.27 70 539.82 65 542.71 80 534.05 75 531.16"/><path class="top-prim" d="M40,522.5l-5,2.89,13.78,8L45,531.16v-9.48c-1.73-.5-3.4-1-5-1.67Z"/><path class="exterior-L-prim" d="M65,698.59V542.71l-15-8.66h0V522.5l5,2.89,5,2.88v11.55l5,2.89V230.94l-15-8.66h0V210.73l5,2.89,5,2.88v11.55l5,2.89V75.05L0,37.53v127l5,2.89,5,2.88,5,2.89v11.55h0l-1.94-1.12L5,179H5V167.43l-5-2.89V349.3l5,2.88V340.64l5,2.88h0l5,2.88V358L0,349.3v127l5,2.89,5,2.88L15,485v11.55h0l-2.06-1.19L5,490.75H5V479.2l-5-2.89V788.08l65,37.53Zm-45-26V661.07L25,664l5,2.89v11.54l-10-5.77Zm-15-26V635.09L10,638l5,2.89V652.4h0l-1.94-1.12L5,646.63Zm55,31.76-10-5.78h0V661.07L55,664l5,2.88v11.55ZM35,664V652.41l5,2.89,5,2.88v11.55L35,664Zm25-2.89L5,629.31V617.76l55,31.76Zm-40-5.77V643.75l5,2.88,5,2.89v11.54h0l-4-2.29-6-3.48Zm15,26V669.73l5,2.89,5,2.88V687l-10-5.77Zm15,8.66V678.39l5,2.89,5,2.88V695.7l-10-5.77ZM60,632.2v11.54L5,612V600.44Zm0-52v11.54L5,560V548.48ZM5,542.71V531.16l55,31.76v11.54Zm55,54.85V609.1L5,577.35V565.8Zm0,17.32v11.54L5,594.67V583.12Zm0-69.29v11.55L5,525.39V513.84ZM20,516.73h0V505.18l5,2.88L30,511V522.5m5,2.89h0V513.84l5,2.89,5,2.88v11.55M35,496.52l5,2.89,5,2.88v11.55h0L40,511l-1-.6-4-2.29h0V496.52m25,20.21v5.77h0l-5-2.88-3-1.72-2-1.17h0V505.18l-1.22-.71,1.22.71,5,2.89L60,511ZM50,378.16V366.62l5,2.89,5,2.88v11.54M35,369.5V358l5,2.89,5,2.88v11.55M20,332h0l5,2.88h0l5,2.89V349.3L26,347l-1-.57-5-2.89h0V332m15,8.66,5,2.89,5,2.88V358l-6-3.48-4-2.3h0V340.64m25,20.2v5.78L52,362l-2-1.14h0V349.3l-1.2-.69,1.2.69,5,2.89,5,2.88Zm0-11.54L5,317.54V306l55,31.76Zm0-28.87V332L5,300.22V288.67ZM5,282.9V271.35l55,31.76v11.54Zm55,14.43L5,265.58V254l55,31.76Zm0-28.86V280L5,248.26V236.71ZM5,230.94V219.39l55,31.76v11.54Zm55,2.89v11.54L5,213.62V202.07ZM20,205h0V193.41l5,2.88,5,2.89v11.55m5,2.89h0V202.07L40,205l5,2.88v11.55M35,196.3V184.75l-2.5-1.45,2.5,1.45,5,2.89,5,2.88v11.55h0l-5-2.88-1-.56-4-2.33ZM60,205v5.77h0l-5-2.88-2.94-1.7L50,205h0V193.41l-1.22-.71,1.22.71,5,2.89,5,2.88ZM5,46.19,60,77.94V89.49L5,57.73ZM5,63.51,60,95.26v11.55L5,75.05ZM5,80.83l55,31.75v11.55L5,92.37ZM5,98.15,60,129.9v11.55L5,109.7Zm0,17.32,55,31.75v11.55L5,127Zm0,17.32,55,31.75v11.55L5,144.34Zm0,28.87V150.11l55,31.75v11.55Zm15,14.43h0L25,179h0l5,2.89v11.55h0l-4-2.29-6-3.48h0V176.09M5,184.75l5,2.88h0l5,2.88v11.55l1.2.69L5,196.3H5Zm8,154.72-3-1.72-5-2.88H5V323.32l5,2.88,5,2.89v11.55Zm7,21.37V349.3l5,2.88,5,2.89v11.55M5,358l55,31.75v11.55L5,369.5Zm0,17.32L60,407v11.55L5,386.82ZM5,392.6l55,31.75V435.9L5,404.14Zm0,17.32,55,31.75v11.55L5,421.46Zm0,17.32L60,459v11.55L5,438.78Zm0,17.32,55,31.75v11.55L5,456.11Zm0,28.87V461.88l55,31.75v11.55Zm15,14.43h0l5,2.88h0l5,2.89v11.55h0l-4.06-2.34L20,499.41h0V487.86M5,508.07H5V496.52l5,2.88h0l5,2.88v11.55M5,652.41l5,2.88,5,2.89v11.54L5,664H5ZM60,817,5,785.2V773.65L60,805.4Zm0-17.32L5,767.87V756.33l55,31.75Zm0-17.32L5,750.55V739l55,31.75ZM60,765,5,733.23V721.69l55,31.75Zm0-17.32L5,715.91V704.37l55,31.75Zm0-17.32L5,698.59V687.05L60,718.8ZM60,713,5,681.27V669.73l55,31.75Z"/><polygon class="top-prim" points="80 672.61 80 672.61 75 669.73 70 672.61 70 678.39 80 672.61"/><polygon class="top-prim" points="100 655.29 100 661.06 103.97 658.77 110 655.29 110 655.29 105 652.4 100 655.29"/><polygon class="top-prim" points="85 663.95 85 669.73 95 663.95 95 663.95 90 661.06 85 663.95"/><polygon class="top-prim" points="115 646.63 115 652.4 116.94 651.28 125 646.63 125 646.63 120 643.74 115 646.63"/><polygon class="top-prim" points="50 672.61 50 672.61 60 678.39 60 672.61 55 669.73 50 672.61"/><polygon class="top-prim" points="26.03 658.77 30 661.06 30 655.29 25 652.4 20 655.29 20 655.29 26.03 658.77"/><polygon class="top-prim" points="45 669.73 45 663.95 40 661.06 35 663.95 35 663.95 45 669.73"/><polygon class="top-prim" points="13.06 651.28 15 652.4 15 646.63 10 643.74 5 646.63 5 646.63 13.06 651.28"/><polygon class="cls-2" points="20 487.86 20 487.86 20 487.86 20 487.86"/><polygon class="cls-3" points="110 487.86 110 487.86 110 487.86 110 487.86"/><path class="top-prim" d="M40,520c1.6.62,3.27,1.17,5,1.67v-2.07l-5-2.88Z"/><path class="exterior-L-dark" d="M40,520c1.6.62,3.27,1.17,5,1.67v-2.07l-5-2.88Z"/><polygon class="top-prim" points="45 508.07 45 502.29 40 499.4 40 505.18 45 508.07"/><polygon class="exterior-L-dark" points="45 508.07 45 502.29 40 499.4 40 505.18 45 508.07"/><polygon class="top-prim" points="55 519.62 60 522.5 60 522.5 55 519.62 55 519.62"/><polygon class="exterior-L-dark" points="55 519.62 60 522.5 60 522.5 55 519.62 55 519.62"/><polygon class="top-prim" points="75 508.07 70 510.95 70 516.73 75 513.84 75 508.07"/><polygon class="exterior-L-dark" points="75 508.07 70 510.95 70 516.73 75 513.84 75 508.07"/><polygon class="top-prim" points="55 513.84 60 516.73 60 510.95 55 508.07 55 513.84"/><polygon class="exterior-L-dark" points="55 513.84 60 516.73 60 510.95 55 508.07 55 513.84"/><polygon class="top-prim" points="90 499.4 85 502.29 85 508.07 90 505.18 90 499.4"/><polygon class="exterior-L-dark" points="90 499.4 85 502.29 85 508.07 90 505.18 90 499.4"/><path class="top-prim" d="M30,514.73V511l-5-2.89v2.24A30.1,30.1,0,0,0,30,514.73Z"/><path class="exterior-L-dark" d="M30,514.73V511l-5-2.89v2.24A30.1,30.1,0,0,0,30,514.73Z"/><polygon class="top-prim" points="40 510.95 45 513.84 45 513.84 40 510.95 40 510.95"/><polygon class="exterior-L-dark" points="40 510.95 45 513.84 45 513.84 40 510.95 40 510.95"/><polygon class="top-prim" points="85 513.84 85 513.84 90 510.95 90 510.95 85 513.84"/><polygon class="exterior-L-dark" points="85 513.84 85 513.84 90 510.95 90 510.95 85 513.84"/><polygon class="top-prim" points="70 522.5 70 522.5 75 519.62 75 519.62 70 522.5"/><polygon class="exterior-L-dark" points="70 522.5 70 522.5 75 519.62 75 519.62 70 522.5"/><polygon class="top-prim" points="48.77 504.47 50 505.18 50 505.18 48.77 504.47"/><path class="top-prim" d="M90,516.73l-5,2.88v2.07c1.73-.5,3.4-1,5-1.67Z"/><path class="exterior-L-dark" d="M90,516.73l-5,2.88v2.07c1.73-.5,3.4-1,5-1.67Z"/><path class="top-prim" d="M105,510.3v-2.24L100,511v3.78A30.1,30.1,0,0,0,105,510.3Z"/><path class="exterior-L-dark" d="M105,510.3v-2.24L100,511v3.78A30.1,30.1,0,0,0,105,510.3Z"/><polygon class="top-prim" points="81.22 504.47 80 505.18 80 505.18 81.22 504.47"/><polygon class="exterior-L-dark" points="81.22 504.47 80 505.18 80 505.18 81.22 504.47"/><polygon class="top-prim" points="100 505.18 104.06 502.84 100 505.18 100 505.18"/><polygon class="exterior-L-dark" points="100 505.18 104.06 502.84 100 505.18 100 505.18"/><polygon class="top-prim" points="30 499.41 30 498.41 28.27 498.41 30 499.41"/><polygon class="exterior-L-dark" points="30 499.41 30 498.41 28.27 498.41 30 499.41"/><polygon class="top-prim" points="30 505.18 30 505.18 25.94 502.84 30 505.18"/><polygon class="exterior-L-dark" points="30 505.18 30 505.18 25.94 502.84 30 505.18"/><polygon class="top-prim" points="100 498.41 100 499.41 101.73 498.41 100 498.41"/><polygon class="exterior-L-dark" points="100 498.41 100 499.41 101.73 498.41 100 498.41"/><polygon class="cls-4" points="105 490.75 105 490.75 105 490.75 105 490.75"/><polygon class="exterior-L-dark" points="105 490.75 105 490.75 105 490.75 105 490.75"/><polygon class="cls-5" points="25 490.75 25 490.75 25 490.75 25 490.75"/><polygon class="exterior-L-dark" points="25 490.75 25 490.75 25 490.75 25 490.75"/><polygon class="top-prim" points="105 496.52 105 490.75 105 490.75 100 493.63 100 498.41 101.73 498.41 105 496.52"/><polygon class="cls-6" points="105 496.52 105 490.75 105 490.75 100 493.63 100 498.41 101.73 498.41 105 496.52"/><polygon class="exterior-L-dark" points="105 496.52 105 490.75 105 490.75 100 493.63 100 498.41 101.73 498.41 105 496.52"/><polygon class="top-prim" points="95 496.52 95 496.52 97.5 495.07 95 496.52"/><polygon class="cls-7" points="95 496.52 95 496.52 97.5 495.07 95 496.52"/><polygon class="exterior-L-dark" points="95 496.52 95 496.52 97.5 495.07 95 496.52"/><line class="top-prim" x1="35" y1="496.52" x2="35" y2="496.52"/><line class="cls-8" x1="35" y1="496.52" x2="35" y2="496.52"/><line class="exterior-L-dark" x1="35" y1="496.52" x2="35" y2="496.52"/><polygon class="top-prim" points="25 496.52 28.27 498.41 30 498.41 30 493.63 25 490.75 25 490.75 25 496.52"/><polygon class="cls-9" points="25 496.52 28.27 498.41 30 498.41 30 493.63 25 490.75 25 490.75 25 496.52"/><polygon class="exterior-L-dark" points="25 496.52 28.27 498.41 30 498.41 30 493.63 25 490.75 25 490.75 25 496.52"/><polygon class="exterior-L-prim" points="80 534.05 80 534.05 80 522.5 75 525.39 75 531.16 80 534.05"/><polygon class="exterior-L-prim" points="75 519.62 77.97 517.9 75 519.62 75 519.62"/><polygon class="exterior-L-prim" points="80 516.73 80 516.73 80 505.18 80 505.18 75 508.07 75 513.84 80 516.73"/><polygon class="exterior-R-prim" points="55 525.39 50 522.5 50 534.05 50 534.05 55 531.16 55 525.39"/><polygon class="exterior-R-prim" points="52.03 517.9 55 519.62 55 519.62 52.03 517.9"/><polygon class="exterior-R-prim" points="55 508.07 50 505.18 50 505.18 50 516.73 50 516.73 55 513.84 55 508.07"/><polygon class="exterior-L-prim" points="90 522.5 95 525.39 95 525.39 95 513.84 90 516.73 90 520.01 90 522.5"/><polygon class="exterior-L-prim" points="90 510.95 91.03 510.36 90 510.95 90 510.95"/><polygon class="exterior-L-prim" points="90 499.4 90 505.18 95 508.07 95 508.07 95 496.52 95 496.52 90 499.4"/><polygon class="exterior-R-prim" points="40 520.01 40 516.73 35 513.84 35 525.39 35 525.39 40 522.5 40 520.01"/><polygon class="exterior-R-prim" points="38.97 510.36 40 510.95 40 510.95 38.97 510.36"/><polygon class="exterior-R-prim" points="40 499.4 35 496.52 35 496.52 35 508.07 35 508.07 40 505.18 40 499.4"/><polygon class="exterior-L-prim" points="105 513.84 110 516.73 110 516.73 110 505.18 105 508.06 105 510.31 105 513.84"/><polygon class="exterior-L-prim" points="105 490.75 105 490.75 105 496.52 110 499.41 110 499.41 110 498.41 110 487.86 110 487.86 105 490.75"/><polygon class="exterior-R-prim" points="25 513.84 25 510.31 25 508.06 20 505.18 20 516.73 20 516.73 25 513.84"/><polygon class="exterior-R-prim" points="25 496.52 25 490.75 25 490.75 20 487.86 20 487.86 20 498.41 20 499.41 20 499.41 25 496.52"/><polygon class="exterior-L-prim" points="120 482.08 120 487.86 125 490.75 125 490.75 125 479.2 125 479.2 120 482.08"/><polygon class="exterior-L-prim" points="120 505.18 125 508.07 125 508.07 125 496.52 120 499.4 120 499.41 120 505.18"/><polygon class="exterior-R-prim" points="5 490.75 5 490.75 10 487.86 10 482.08 5 479.2 5 479.2 5 490.75"/><polygon class="exterior-R-prim" points="10 505.18 10 499.41 10 499.4 5 496.52 5 508.07 5 508.07 10 505.18"/><polyline class="top-prim" points="60 383.93 60 372.39 55 369.51 55 375.28 50 378.16"/><path class="top-prim" d="M45,375.28V365.8q-2.59-.75-5-1.67v2.49l-5,2.88"/><path class="top-prim" d="M105,354.42a30.1,30.1,0,0,1-5,4.43v7.77l13.73-7.93L110,360.84,105,358Z"/><path class="top-prim" d="M90,364.13q-2.4.92-5,1.67v9.48l12.5-7.22L95,369.5l-5-2.88Z"/><polygon class="top-prim" points="80 378.16 75 375.28 75 369.51 70 372.39 70 383.93 81.26 377.43 80 378.16"/><polyline class="top-prim" points="15 357.96 15 346.41 10 343.52 10 343.53 10 349.3 5 352.18"/><path class="top-prim" d="M30,366.62v-7.77a30.1,30.1,0,0,1-5-4.43V358l-5,2.88"/><polygon class="top-prim" points="120 349.3 120 343.53 120 343.52 115 346.41 115 357.96 130 349.3 125 352.18 120 349.3"/><polygon class="top-prim" points="80 516.73 75 513.84 70 516.73 70 522.5 75 519.62 77.97 517.9 80 516.73 80 516.73"/><polygon class="top-prim" points="105 496.52 101.73 498.41 100 499.41 100 505.18 104.06 502.84 110 499.41 110 499.41 105 496.52"/><polygon class="top-prim" points="85 508.07 85 513.84 90 510.95 91.03 510.36 95 508.07 95 508.07 90 505.18 85 508.07"/><polygon class="top-prim" points="115 490.75 115 496.52 115 496.52 117.06 495.33 125 490.75 125 490.75 120 487.86 115 490.75"/><polygon class="top-prim" points="50 516.73 50 516.73 52.03 517.9 55 519.62 60 522.5 60 516.73 55 513.84 50 516.73"/><polygon class="top-prim" points="25 496.52 20 499.41 20 499.41 25.94 502.84 30 505.18 30 499.41 28.27 498.41 25 496.52"/><polygon class="top-prim" points="38.97 510.36 40 510.95 45 513.84 45 508.07 40 505.18 35 508.07 35 508.07 38.97 510.36"/><polygon class="top-prim" points="5 490.75 5 490.75 12.94 495.33 15 496.52 15 496.52 15 490.75 10 487.86 5 490.75"/><polygon class="cls-10" points="110 331.98 110 331.98 110 331.98 110 331.98"/><polygon class="cls-11" points="20 331.98 20 331.98 20 331.98 20 331.98"/><polygon class="top-prim" points="75 357.96 75 352.19 70 355.07 70 360.84 75 357.96"/><polygon class="exterior-L-dark" points="75 357.96 75 352.19 70 355.07 70 360.84 75 357.96"/><polygon class="top-prim" points="30 343.52 30 342.52 28.27 342.52 30 343.52"/><polygon class="exterior-L-dark" points="30 343.52 30 342.52 28.27 342.52 30 343.52"/><polygon class="top-prim" points="100 342.52 100 343.52 101.73 342.52 100 342.52"/><polygon class="exterior-L-dark" points="100 342.52 100 343.52 101.73 342.52 100 342.52"/><polygon class="top-prim" points="40 343.52 40 349.3 45 352.18 45 346.41 40 343.52"/><polygon class="exterior-L-dark" points="40 343.52 40 349.3 45 352.18 45 346.41 40 343.52"/><polygon class="top-prim" points="81.2 348.61 80 349.3 80 349.3 81.2 348.61"/><polygon class="exterior-L-dark" points="81.2 348.61 80 349.3 80 349.3 81.2 348.61"/><polygon class="top-prim" points="104.02 346.98 105 346.41 105 346.41 104.02 346.98"/><polygon class="exterior-L-dark" points="104.02 346.98 105 346.41 105 346.41 104.02 346.98"/><path class="top-prim" d="M30,358.85v-3.78l-5-2.89v2.24A30.1,30.1,0,0,0,30,358.85Z"/><path class="exterior-L-dark" d="M30,358.85v-3.78l-5-2.89v2.24A30.1,30.1,0,0,0,30,358.85Z"/><path class="top-prim" d="M105,354.42v-2.24l-5,2.89v3.78A30.1,30.1,0,0,0,105,354.42Z"/><path class="exterior-L-dark" d="M105,354.42v-2.24l-5,2.89v3.78A30.1,30.1,0,0,0,105,354.42Z"/><path class="top-prim" d="M85,365.8q2.59-.75,5-1.67v-3.28l-5,2.88Z"/><path class="exterior-L-dark" d="M85,365.8q2.59-.75,5-1.67v-3.28l-5,2.88Z"/><path class="top-prim" d="M45,365.8v-2.07l-5-2.88v3.28Q42.4,365,45,365.8Z"/><path class="exterior-L-dark" d="M45,365.8v-2.07l-5-2.88v3.28Q42.4,365,45,365.8Z"/><polygon class="top-prim" points="90 343.52 85 346.41 85 352.18 90 349.3 90 343.52"/><polygon class="exterior-L-dark" points="90 343.52 85 346.41 85 352.18 90 349.3 90 343.52"/><polygon class="top-prim" points="25 346.41 25.98 346.98 25 346.41 25 346.41"/><polygon class="exterior-L-dark" points="25 346.41 25.98 346.98 25 346.41 25 346.41"/><polygon class="top-prim" points="55 357.96 60 360.84 60 355.07 55 352.19 55 357.96"/><polygon class="exterior-L-dark" points="55 357.96 60 360.84 60 355.07 55 352.19 55 357.96"/><polygon class="cls-12" points="25 334.87 25 334.87 25 334.87 25 334.87"/><polygon class="exterior-L-dark" points="25 334.87 25 334.87 25 334.87 25 334.87"/><polygon class="cls-13" points="105 334.87 105 334.87 105 334.87 105 334.87"/><polygon class="exterior-L-dark" points="105 334.87 105 334.87 105 334.87 105 334.87"/><polygon class="top-prim" points="97.5 339.19 95 340.64 95 340.64 97.5 339.19"/><polygon class="cls-14" points="97.5 339.19 95 340.64 95 340.64 97.5 339.19"/><polygon class="exterior-L-dark" points="97.5 339.19 95 340.64 95 340.64 97.5 339.19"/><polygon class="top-prim" points="105 340.64 105 334.87 105 334.87 100 337.75 100 342.52 101.73 342.52 105 340.64"/><polygon class="cls-15" points="105 340.64 105 334.87 105 334.87 100 337.75 100 342.52 101.73 342.52 105 340.64"/><polygon class="exterior-L-dark" points="105 340.64 105 334.87 105 334.87 100 337.75 100 342.52 101.73 342.52 105 340.64"/><polygon class="top-prim" points="25 340.64 28.27 342.52 30 342.52 30 337.75 25 334.87 25 334.87 25 340.64"/><polygon class="cls-16" points="25 340.64 28.27 342.52 30 342.52 30 337.75 25 334.87 25 334.87 25 340.64"/><polygon class="exterior-L-dark" points="25 340.64 28.27 342.52 30 342.52 30 337.75 25 334.87 25 334.87 25 340.64"/><line class="top-prim" x1="35" y1="340.64" x2="35" y2="340.64"/><line class="cls-17" x1="35" y1="340.64" x2="35" y2="340.64"/><line class="exterior-L-dark" x1="35" y1="340.64" x2="35" y2="340.64"/><polygon class="exterior-L-prim" points="80 378.16 80 366.62 75 369.51 75 375.28 80 378.16"/><polygon class="exterior-L-prim" points="80 360.84 80 360.84 78.03 361.98 80 360.84"/><polygon class="exterior-L-prim" points="80 360.84 80 349.3 80 349.3 75 352.19 75 357.96 80 360.84"/><polygon class="exterior-R-prim" points="55 369.51 50 366.62 50 378.16 55 375.28 55 369.51"/><polygon class="exterior-R-prim" points="55 352.19 50 349.3 50 349.3 50 360.84 55 357.96 55 352.19"/><polygon class="exterior-R-prim" points="50 360.84 51.97 361.98 50 360.84 50 360.84"/><polygon class="exterior-L-prim" points="90 366.62 95 369.5 95 357.96 90 360.85 90 364.13 90 366.62"/><polygon class="exterior-L-prim" points="95 352.18 91.02 354.48 95 352.18 95 352.18"/><polygon class="exterior-L-prim" points="95 352.18 95 340.64 95 340.64 90 343.52 90 349.3 95 352.18"/><polygon class="exterior-R-prim" points="40 364.13 40 360.85 35 357.96 35 369.5 40 366.62 40 364.13"/><polygon class="exterior-R-prim" points="35 352.18 38.98 354.48 35 352.18 35 352.18"/><polygon class="exterior-R-prim" points="40 343.52 35 340.64 35 340.64 35 352.18 40 349.3 40 343.52"/><polygon class="exterior-L-prim" points="105 352.19 105 354.42 105 357.96 110 360.84 110 349.3 105 352.19"/><polygon class="exterior-L-prim" points="105 334.87 105 334.87 105 340.64 110 343.52 110 342.52 110 331.98 110 331.98 105 334.87"/><polygon class="exterior-L-prim" points="105 346.41 105 346.41 110 343.52 110 343.52 105 346.41"/><polygon class="exterior-R-prim" points="25 354.42 25 352.19 20 349.3 20 360.84 25 357.96 25 354.42"/><polygon class="exterior-R-prim" points="25 340.64 25 334.87 25 334.87 20 331.98 20 331.98 20 342.52 20 343.52 25 340.64"/><polygon class="exterior-R-prim" points="25 346.41 25 346.41 20 343.52 20 343.52 25 346.41"/><polygon class="exterior-L-prim" points="120 337.75 125 334.87 125 334.86 120 337.75 120 337.75"/><polygon class="exterior-L-prim" points="120 331.98 125 334.86 125 323.32 120 326.2 120 331.98"/><polygon class="exterior-L-prim" points="120 349.3 125 352.18 125 340.64 120 343.52 120 343.53 120 349.3"/><polygon class="exterior-R-prim" points="5 334.86 5 334.87 10 337.75 10 337.75 5 334.86"/><polygon class="exterior-R-prim" points="10 326.2 5 323.32 5 334.86 10 331.98 10 326.2"/><polygon class="exterior-R-prim" points="10 343.53 10 343.52 5 340.64 5 352.18 10 349.3 10 343.53"/><polygon class="top-prim" points="15 184.75 15 184.75 15 184.75 15 184.75 15 184.75"/><path class="top-prim" d="M30,210.73V203a30.51,30.51,0,0,1-5-4.42v3.53L20,205"/><path class="top-prim" d="M45,219.39v-9.48c-1.73-.5-3.4-1-5-1.67v2.49l-5,2.89"/><polyline class="top-prim" points="15 202.07 15 190.52 10 187.63 10 187.64 10 193.41 5 196.3"/><path class="top-prim" d="M110,205l-5-2.89v-3.53a30.51,30.51,0,0,1-5,4.42v7.77l-2.5,1.44Z"/><polygon class="top-prim" points="115 184.75 115 184.75 115 184.75 115 184.75 115 184.75"/><polygon class="top-prim" points="113.8 202.76 125 196.3 120 193.41 120 187.64 120 187.63 115 190.52 115 202.07 113.8 202.76"/><path class="top-prim" d="M90,210.73v-2.49c-1.6.62-3.27,1.17-5,1.67v9.48l-3.7,2.14L95,213.62Z"/><polyline class="top-prim" points="60 228.05 60 216.5 55 213.62 55 219.39 50 222.28"/><polygon class="top-prim" points="75 219.39 75 213.62 70 216.5 70 228.05 65 230.94 80 222.28 75 219.39"/><polygon class="top-prim" points="70 360.84 70 366.62 78.03 361.98 80 360.84 75 357.96 70 360.84"/><polygon class="top-prim" points="105 340.64 101.73 342.52 100 343.52 100 349.3 104.02 346.98 105 346.41 110 343.52 105 340.64"/><polygon class="top-prim" points="90 349.3 85 352.18 85 357.96 91.02 354.48 95 352.18 90 349.3"/><polygon class="top-prim" points="115 334.86 115 340.64 117.03 339.47 120 337.75 125 334.86 120 331.98 115 334.86"/><polygon class="top-prim" points="50 360.84 51.97 361.98 60 366.62 60 360.84 55 357.96 50 360.84"/><polygon class="top-prim" points="25 346.41 25.98 346.98 30 349.3 30 343.52 28.27 342.52 25 340.64 20 343.52 25 346.41"/><polygon class="top-prim" points="35 352.18 38.98 354.48 45 357.96 45 352.18 40 349.3 35 352.18"/><polygon class="top-prim" points="15 334.86 10 331.98 5 334.86 10 337.75 12.97 339.47 15 340.64 15 334.86"/><polygon class="cls-18" points="20 176.09 20 176.09 20 176.09 20 176.09"/><polygon class="cls-19" points="110 176.09 110 176.09 110 176.09 110 176.09"/><polygon class="top-prim" points="55 202.07 60 204.96 60 199.18 55 196.3 55 202.07"/><polygon class="exterior-L-dark" points="55 202.07 60 204.96 60 199.18 55 196.3 55 202.07"/><polygon class="top-prim" points="81.22 192.7 80 193.41 80 193.41 81.22 192.7"/><polygon class="exterior-L-dark" points="81.22 192.7 80 193.41 80 193.41 81.22 192.7"/><polygon class="top-prim" points="100 193.41 103.97 191.12 100 193.41 100 193.41"/><polygon class="exterior-L-dark" points="100 193.41 103.97 191.12 100 193.41 100 193.41"/><polygon class="top-prim" points="90 187.63 85 190.52 85 196.3 90 193.41 90 187.63"/><polygon class="exterior-L-dark" points="90 187.63 85 190.52 85 196.3 90 193.41 90 187.63"/><polygon class="top-prim" points="100 186.64 100 187.64 101.73 186.64 100 186.64"/><polygon class="exterior-L-dark" points="100 186.64 100 187.64 101.73 186.64 100 186.64"/><path class="top-prim" d="M105,198.54v-2.25l-5,2.89V203A30.51,30.51,0,0,0,105,198.54Z"/><path class="exterior-L-dark" d="M105,198.54v-2.25l-5,2.89V203A30.51,30.51,0,0,0,105,198.54Z"/><polygon class="top-prim" points="75 196.3 70 199.18 70 204.96 75 202.07 75 196.3"/><polygon class="exterior-L-dark" points="75 196.3 70 199.18 70 204.96 75 202.07 75 196.3"/><path class="top-prim" d="M30,203v-3.78l-5-2.89v2.25A30.51,30.51,0,0,0,30,203Z"/><path class="exterior-L-dark" d="M30,203v-3.78l-5-2.89v2.25A30.51,30.51,0,0,0,30,203Z"/><polygon class="top-prim" points="30 187.64 30 186.64 28.27 186.64 30 187.64"/><polygon class="exterior-L-dark" points="30 187.64 30 186.64 28.27 186.64 30 187.64"/><polygon class="top-prim" points="70 210.73 70 210.73 75 207.85 75 207.84 70 210.73"/><polygon class="exterior-L-dark" points="70 210.73 70 210.73 75 207.85 75 207.84 70 210.73"/><polygon class="top-prim" points="40 199.19 45 202.07 45 202.07 40 199.19 40 199.19"/><polygon class="exterior-L-dark" points="40 199.19 45 202.07 45 202.07 40 199.19 40 199.19"/><path class="top-prim" d="M40,208.24c1.6.62,3.27,1.17,5,1.67v-2.07L40,205Z"/><path class="exterior-L-dark" d="M40,208.24c1.6.62,3.27,1.17,5,1.67v-2.07L40,205Z"/><polygon class="top-prim" points="85 202.07 85 202.07 90 199.19 90 199.19 85 202.07"/><polygon class="exterior-L-dark" points="85 202.07 85 202.07 90 199.19 90 199.19 85 202.07"/><polygon class="top-prim" points="30 193.41 30 193.41 26.03 191.12 30 193.41"/><polygon class="exterior-L-dark" points="30 193.41 30 193.41 26.03 191.12 30 193.41"/><polygon class="top-prim" points="55 207.85 60 210.73 60 210.73 55 207.84 55 207.85"/><polygon class="exterior-L-dark" points="55 207.85 60 210.73 60 210.73 55 207.84 55 207.85"/><polygon class="top-prim" points="45 196.3 45 190.52 40 187.63 40 193.41 45 196.3"/><polygon class="exterior-L-dark" points="45 196.3 45 190.52 40 187.63 40 193.41 45 196.3"/><path class="top-prim" d="M90,205l-5,2.88v2.07c1.73-.5,3.4-1,5-1.67Z"/><path class="exterior-L-dark" d="M90,205l-5,2.88v2.07c1.73-.5,3.4-1,5-1.67Z"/><line class="top-prim" x1="50" y1="193.41" x2="50" y2="193.41"/><polygon class="cls-20" points="25 178.97 25 178.97 25 178.97 25 178.97"/><polygon class="exterior-L-dark" points="25 178.97 25 178.97 25 178.97 25 178.97"/><polygon class="cls-21" points="105 178.97 105 178.97 105 178.97 105 178.97"/><polygon class="exterior-L-dark" points="105 178.97 105 178.97 105 178.97 105 178.97"/><polygon class="top-prim" points="25 184.75 28.27 186.64 30 186.64 30 181.86 25 178.97 25 178.97 25 184.75"/><polygon class="cls-22" points="25 184.75 28.27 186.64 30 186.64 30 181.86 25 178.97 25 178.97 25 184.75"/><polygon class="exterior-L-dark" points="25 184.75 28.27 186.64 30 186.64 30 181.86 25 178.97 25 178.97 25 184.75"/><polygon class="top-prim" points="95 184.75 95 184.75 97.5 183.31 95 184.75"/><polygon class="cls-23" points="95 184.75 95 184.75 97.5 183.31 95 184.75"/><polygon class="exterior-L-dark" points="95 184.75 95 184.75 97.5 183.31 95 184.75"/><polygon class="top-prim" points="105 184.75 105 178.97 105 178.97 100 181.86 100 186.64 101.73 186.64 105 184.75"/><polygon class="cls-24" points="105 184.75 105 178.97 105 178.97 100 181.86 100 186.64 101.73 186.64 105 184.75"/><polygon class="exterior-L-dark" points="105 184.75 105 178.97 105 178.97 100 181.86 100 186.64 101.73 186.64 105 184.75"/><line class="top-prim" x1="35" y1="184.75" x2="35" y2="184.75"/><line class="cls-25" x1="35" y1="184.75" x2="35" y2="184.75"/><polygon class="exterior-L-prim" points="80 222.28 80 222.28 80 210.73 75 213.62 75 219.39 80 222.28"/><polygon class="exterior-L-prim" points="80 204.96 80 204.96 80 193.41 80 193.41 75 196.3 75 202.07 80 204.96"/><polygon class="exterior-L-prim" points="75 207.85 77.94 206.15 75 207.84 75 207.85"/><polygon class="exterior-R-prim" points="55 213.62 50 210.73 50 222.28 50 222.28 55 219.39 55 213.62"/><polygon class="exterior-R-prim" points="55 196.3 50 193.41 50 193.41 50 204.96 50 204.96 55 202.07 55 196.3"/><polygon class="exterior-R-prim" points="52.06 206.15 55 207.85 55 207.84 52.06 206.15"/><polygon class="exterior-L-prim" points="90 210.73 95 213.62 95 213.62 95 202.07 90 204.96 90 208.24 90 210.73"/><polygon class="exterior-L-prim" points="90 199.19 90.97 198.63 90 199.19 90 199.19"/><polygon class="exterior-L-prim" points="90 187.63 90 193.41 95 196.3 95 196.3 95 184.75 95 184.75 90 187.63"/><polygon class="exterior-R-prim" points="40 208.24 40 204.96 35 202.07 35 213.62 35 213.62 40 210.73 40 208.24"/><polygon class="exterior-R-prim" points="39.03 198.63 40 199.19 40 199.19 39.03 198.63"/><polygon class="exterior-R-prim" points="40 187.63 35 184.75 35 184.75 35 196.3 35 196.3 40 193.41 40 187.63"/><polygon class="exterior-L-prim" points="105 202.07 110 204.96 110 204.96 110 193.41 105 196.29 105 198.53 105 202.07"/><polygon class="exterior-L-prim" points="105 178.97 105 178.97 105 184.75 110 187.64 110 187.64 110 186.64 110 176.09 110 176.09 105 178.97"/><polygon class="exterior-R-prim" points="25 184.75 25 178.97 25 178.97 20 176.09 20 176.09 20 186.64 20 187.64 20 187.64 25 184.75"/><polygon class="exterior-R-prim" points="25 202.07 25 198.53 25 196.29 20 193.41 20 204.96 20 204.96 25 202.07"/><polygon class="exterior-L-prim" points="120 170.31 120 176.09 125 178.98 125 178.98 125 167.43 125 167.43 120 170.31"/><polygon class="exterior-L-prim" points="120 193.41 125 196.3 125 196.3 125 184.75 120 187.63 120 187.64 120 193.41"/><polygon class="exterior-R-prim" points="5 178.98 5 178.98 10 176.09 10 170.31 5 167.43 5 167.43 5 178.98"/><polygon class="exterior-R-prim" points="10 193.41 10 187.64 10 187.63 5 184.75 5 196.3 5 196.3 10 193.41"/><polygon id="anchor-01_750.56" class="top-prim" points="130 37.53 65 0 0 37.53 65 75.05 130 37.53"/><path class="exterior-R-prim" d="M65,202.07v28.87l5-2.89V216.5l5-2.88,5-2.89v11.55h0l-15,8.66V542.71l5-2.89V528.27l5-2.88,5-2.89v11.55h0l-15,8.66v282.9l65-37.53V476.31l-5,2.89v11.55h0l-7.94,4.58L115,496.52h0V485l5-2.89,5-2.88,5-2.89v-127L115,358V346.41l5-2.88h0l5-2.88v11.54l5-2.88V164.54l-5,2.89V179h0l-8.06,4.65L115,184.75h0V173.2l5-2.89,5-2.88,5-2.89v-127L65,75.05Zm15-8.66V205h0l-2.06,1.19L75,207.85l-5,2.88h0V199.18l5-2.88,5-2.89m15-8.66V196.3h0l-4,2.33-1,.56-5,2.88h0V190.52l5-2.88,5-2.89m5,26V199.18l5-2.89,5-2.88V205h0M85,219.39V207.84L90,205l5-2.89v11.55h0M70,233.83l55-31.76v11.55L70,245.37Zm0,17.32,55-31.76v11.55L70,262.69Zm0,17.32,55-31.76v11.55L70,280Zm0,17.32L125,254v11.55L70,297.33Zm55-14.44V282.9L70,314.65V303.11Zm0,17.32v11.55L70,332V320.43ZM70,337.75,125,306v11.55L70,349.3ZM110,332v11.54h0l-5,2.89-1,.57-4,2.32V337.75l5-2.89h0l5-2.88h0m-15,8.66v11.54h0l-4,2.3L85,358V346.41l5-2.88,5-2.89M85,375.28V363.73l5-2.88L95,358V369.5M80,349.3v11.54h0L78,362l-8,4.64V355.07l5-2.88,5-2.89M70,383.93V372.39l5-2.88,5-2.89v11.54m0,127v11.55h0l-2,1.17-3,1.72-5,2.88h0V511l5-2.88,5-2.89m15-8.66v11.55h0l-4,2.29-1,.6-5,2.88h0V502.29l5-2.88,5-2.89m5,26V511l5-2.89,5-2.88v11.55h0M85,531.16V519.61l5-2.88,5-2.89v11.55h0m-25,20.2,55-31.75v11.55L70,557.14Zm55,101-8.06,4.65L115,652.4h0V640.86l5-2.89,5-2.88v11.54Zm-15,8.66-6,3.48-4,2.29h0V649.52l5-2.89,5-2.88v11.54Zm0,17.32-10,5.77V666.84l5-2.89,5-2.88v11.54Zm-40,0v-5.77L75,664l5-2.89v11.54h0l-10,5.78ZM95,664l-10,5.78V658.18l5-2.88,5-2.89V664Zm-25-2.89V649.52l55-31.76v11.55Zm20,11.56,5-2.89v11.54h0L85,687V675.5ZM70,562.92l55-31.76v11.55L70,574.46Zm0,17.32,55-31.76V560L70,591.78Zm0,17.32,55-31.76v11.55L70,609.1Zm0,17.32,55-31.76v11.55L70,626.42Zm55-14.44V612L70,643.74V632.2Zm-55,89.5v-5.78l5-2.88,5-2.89v11.54h0L70,695.7Zm55,95.26L70,817V805.4l55-31.75Zm0-17.33L70,799.63V788.08l55-31.75Zm0-17.32L70,782.31V770.76L125,739Zm0-17.32L70,765V753.44l55-31.75Zm0-17.32L70,747.67V736.12l55-31.75Zm0-17.32L70,730.35V718.8l55-31.75Zm0-17.32L70,713V701.48l55-31.75ZM125,664h0l-10,5.77V658.18l5-2.89,5-2.88ZM115,513.84V502.29l5-2.88h0l5-2.88v11.55h0m-15-20.21v11.55h0l-5.94,3.43L100,505.18h0V493.63l5-2.89h0l5-2.88h0m15-14.43L70,505.18V493.63l55-31.75Zm0-17.32L70,487.86V476.31l55-31.75Zm0-17.33L70,470.54V459l55-31.75Zm0-17.32L70,453.22V441.67l55-31.75Zm0-17.32L70,435.9V424.35l55-31.75Zm0-17.32L70,418.58V407l55-31.75Zm0-17.32L70,401.26V389.71L125,358Zm-25-2.88V355.07l5-2.89,5-2.88v11.54m15-26h0l-5,2.88-3,1.72-2,1.17V329.09l5-2.89,5-2.88ZM115,202.07V190.52l5-2.88h0l5-2.88V196.3h0m-15-20.21v11.55h0l-6,3.48-4,2.29h0V181.86l5-2.89h0l5-2.88h0m15-14.43L70,193.41V181.86l55-31.75Zm0-17.32L70,176.09V164.54l55-31.75ZM125,127,70,158.77V147.22l55-31.75ZM70,77.94l55-31.75V57.73L70,89.49Zm0,17.32,55-31.75V75.05L70,106.81Zm0,17.32,55-31.75V92.37L70,124.13Zm55-14.43V109.7L70,141.45V129.9Z"/><polygon class="window-R-prim" points="125 46.19 70 77.94 70 89.49 125 57.73 125 46.19"/><polygon class="window-R-prim" points="125 80.83 70 112.58 70 124.13 125 92.37 125 80.83"/><polygon class="window-R-prim" points="70 147.22 70 158.77 125 127.02 125 115.47 70 147.22"/><polygon class="window-R-prim" points="125 63.51 70 95.26 70 106.81 125 75.05 125 63.51"/><polygon class="window-R-prim" points="70 141.45 125 109.7 125 98.15 70 129.9 70 141.45"/><polygon class="window-R-prim" points="70 164.54 70 176.09 125 144.34 125 132.79 70 164.54"/><polygon class="window-R-prim" points="70 181.86 70 193.41 125 161.66 125 150.11 70 181.86"/><polygon class="window-R-prim" points="125 202.07 70 233.83 70 245.37 125 213.62 125 202.07"/><polygon class="window-R-prim" points="125 236.71 70 268.47 70 280.01 125 248.26 125 236.71"/><polygon class="window-R-prim" points="70 314.65 125 282.9 125 271.35 70 303.11 70 314.65"/><polygon class="window-R-prim" points="125 219.39 70 251.15 70 262.69 125 230.94 125 219.39"/><polygon class="window-R-prim" points="125 265.58 125 254.03 70 285.79 70 297.33 125 265.58"/><polygon class="window-R-prim" points="70 331.98 125 300.22 125 288.67 70 320.43 70 331.98"/><polygon class="window-R-prim" points="125 317.54 125 305.99 70 337.75 70 349.3 125 317.54"/><polygon class="window-R-prim" points="70 401.26 125 369.5 125 357.96 70 389.71 70 401.26"/><polygon class="window-R-prim" points="70 435.9 125 404.14 125 392.6 70 424.35 70 435.9"/><polygon class="window-R-prim" points="70 458.99 70 470.54 125 438.78 125 427.24 70 458.99"/><polygon class="window-R-prim" points="70 418.58 125 386.82 125 375.28 70 407.03 70 418.58"/><polygon class="window-R-prim" points="70 453.22 125 421.46 125 409.92 70 441.67 70 453.22"/><polygon class="window-R-prim" points="70 476.31 70 487.86 125 456.11 125 444.56 70 476.31"/><polygon class="window-R-prim" points="70 493.63 70 505.18 125 473.43 125 461.88 70 493.63"/><polygon class="window-R-prim" points="125 513.84 70 545.59 70 557.14 125 525.39 125 513.84"/><polygon class="window-R-prim" points="125 548.48 70 580.24 70 591.78 125 560.03 125 548.48"/><polygon class="window-R-prim" points="125 583.12 70 614.88 70 626.42 125 594.67 125 583.12"/><polygon class="window-R-prim" points="125 531.16 70 562.92 70 574.46 125 542.71 125 531.16"/><polygon class="window-R-prim" points="125 565.8 70 597.56 70 609.1 125 577.35 125 565.8"/><polygon class="window-R-prim" points="70 643.74 125 611.99 125 600.44 70 632.2 70 643.74"/><polygon class="window-R-prim" points="125 617.76 70 649.52 70 661.06 125 629.31 125 617.76"/><polygon class="window-R-prim" points="70 713.03 125 681.27 125 669.73 70 701.48 70 713.03"/><polygon class="window-R-prim" points="70 747.67 125 715.91 125 704.37 70 736.12 70 747.67"/><polygon class="window-R-prim" points="70 782.31 125 750.55 125 739.01 70 770.76 70 782.31"/><polygon class="window-R-prim" points="70 730.35 125 698.59 125 687.05 70 718.8 70 730.35"/><polygon class="window-R-prim" points="70 764.99 125 733.23 125 721.69 70 753.44 70 764.99"/><polygon class="window-R-prim" points="70 799.63 125 767.87 125 756.33 70 788.08 70 799.63"/><polygon class="window-R-prim" points="70 816.95 125 785.2 125 773.65 70 805.4 70 816.95"/><polygon points="60 77.94 5 46.19 5 57.73 60 89.49 60 77.94"/><polygon points="60 112.58 5 80.83 5 92.37 60 124.13 60 112.58"/><polygon points="60 158.77 60 147.22 5 115.47 5 127.02 60 158.77"/><polygon points="60 95.26 5 63.51 5 75.05 60 106.81 60 95.26"/><polygon points="60 141.45 60 129.9 5 98.15 5 109.7 60 141.45"/><polygon points="60 176.09 60 164.54 5 132.79 5 144.34 60 176.09"/><polygon points="60 193.41 60 181.86 5 150.11 5 161.66 60 193.41"/><polygon points="5 213.62 60 245.37 60 233.83 5 202.07 5 213.62"/><polygon points="5 248.26 60 280.01 60 268.47 5 236.71 5 248.26"/><polygon points="60 303.11 5 271.35 5 282.9 60 314.65 60 303.11"/><polygon points="60 251.15 5 219.39 5 230.94 60 262.69 60 251.15"/><polygon points="5 254.03 5 265.58 60 297.33 60 285.79 5 254.03"/><polygon points="5 288.67 5 300.22 60 331.98 60 320.43 5 288.67"/><polygon points="5 305.99 5 317.54 60 349.3 60 337.75 5 305.99"/><polygon points="60 389.71 5 357.96 5 369.5 60 401.26 60 389.71"/><polygon points="60 424.35 5 392.6 5 404.14 60 435.9 60 424.35"/><polygon points="60 470.54 60 458.99 5 427.24 5 438.78 60 470.54"/><polygon points="60 407.03 5 375.28 5 386.82 60 418.58 60 407.03"/><polygon points="60 453.22 60 441.67 5 409.92 5 421.46 60 453.22"/><polygon points="60 487.86 60 476.31 5 444.56 5 456.11 60 487.86"/><polygon points="60 505.18 60 493.63 5 461.88 5 473.43 60 505.18"/><polygon points="5 525.39 60 557.14 60 545.59 5 513.84 5 525.39"/><polygon points="5 560.03 60 591.78 60 580.24 5 548.48 5 560.03"/><polygon points="5 594.67 60 626.42 60 614.88 5 583.12 5 594.67"/><polygon points="60 562.92 5 531.16 5 542.71 60 574.46 60 562.92"/><polygon points="5 577.35 60 609.1 60 597.56 5 565.8 5 577.35"/><polygon points="5 611.99 60 643.74 60 632.2 5 600.44 5 611.99"/><polygon points="5 617.76 5 629.31 60 661.06 60 649.52 5 617.76"/><polygon points="5 681.27 60 713.03 60 701.48 5 669.73 5 681.27"/><polygon points="5 715.91 60 747.67 60 736.12 5 704.37 5 715.91"/><polygon points="5 750.55 60 782.31 60 770.76 5 739.01 5 750.55"/><polygon points="5 698.59 60 730.35 60 718.8 5 687.05 5 698.59"/><polygon points="5 733.23 60 764.99 60 753.44 5 721.69 5 733.23"/><polygon points="5 767.87 60 799.63 60 788.08 5 756.33 5 767.87"/><polygon points="5 785.2 60 816.95 60 805.4 5 773.65 5 785.2"/><polygon class="top-prim" points="80 204.96 75 202.07 70 204.96 70 210.73 75 207.84 77.94 206.15 80 204.96 80 204.96"/><polygon class="top-prim" points="105 184.75 101.73 186.64 100 187.64 100 193.41 103.97 191.12 110 187.64 110 187.64 105 184.75"/><polygon class="top-prim" points="85 196.3 85 202.07 90 199.19 90.97 198.63 95 196.3 95 196.3 90 193.41 85 196.3"/><polygon class="top-prim" points="115 178.98 115 184.75 115 184.75 116.94 183.63 125 178.98 125 178.98 120 176.09 115 178.98"/><polygon class="top-prim" points="50 204.96 50 204.96 52.06 206.15 55 207.84 60 210.73 60 204.96 55 202.07 50 204.96"/><polygon class="top-prim" points="25 184.75 20 187.64 20 187.64 26.03 191.12 30 193.41 30 187.64 28.27 186.64 25 184.75"/><polygon class="top-prim" points="39.03 198.63 40 199.19 45 202.07 45 196.3 40 193.41 35 196.3 35 196.3 39.03 198.63"/><polygon class="top-prim" points="5 178.98 5 178.98 13.06 183.63 15 184.75 15 184.75 15 178.98 10 176.09 5 178.98"/></svg>