<svg id="Layer_1" data-name="Layer 1" xmlns="http://www.w3.org/2000/svg" xmlns:xlink="http://www.w3.org/1999/xlink" viewBox="0 0 570 435.9">
  <defs>
    <style>
      .cls-1 {
        fill: none;
      }

      .top-light {
        fill: #ffc8c6;
      }

      .top-dark {
        fill: #c67471;
      }

      .exterior-R-prim {
        fill: #d05752;
      }

      .exterior-L-prim {
        fill: #73302e;
      }

      .curtain-R-prim-light {
        fill: #59acd0;
      }

      .curtain-L-prim-light {
        fill: #438fb0;
      }

      .curtain-L-prim-dark {
        fill: #2f5565;
      }

      .curtain-R-prim-dark {
        fill: #3e809c;
      }

      .curtain-R-prim-dark-light {
        fill: #4d90ad;
      }

      .curtain-R-prim-light-dark {
        fill: #3999c1;
      }

      .top-prim {
        fill: #dd8a87;
      }

      .cls-2 {
        fill: #b2b2b2;
      }

      .cls-3 {
        fill: #97d0e6;
      }

      .cls-4 {
        fill: #fff;
      }

      .cls-5 {
        clip-path: url(#clip-path);
      }

      .cls-6 {
        fill: #5f9cb3;
      }

      .cls-7 {
        clip-path: url(#clip-path-2);
      }

      .cls-8 {
        clip-path: url(#clip-path-3);
      }

      .cls-9 {
        clip-path: url(#clip-path-4);
      }

      .cls-10 {
        clip-path: url(#clip-path-5);
      }

      .cls-11 {
        clip-path: url(#clip-path-6);
      }

      .cls-12 {
        fill: #b0e4f7;
      }

      .cls-13 {
        clip-path: url(#clip-path-7);
      }

      .cls-14 {
        fill: #82c0d7;
      }

      .cls-15 {
        clip-path: url(#clip-path-8);
      }

      .cls-16 {
        clip-path: url(#clip-path-9);
      }
    </style>
    <clipPath id="clip-path">
      <polygon class="cls-1" points="122.5 298.78 25 242.488 25 230.941 122.5 287.233 122.5 298.78"/>
    </clipPath>
    <clipPath id="clip-path-2">
      <polygon class="cls-1" points="122.5 264.139 25 207.977 25 196.429 122.5 252.592 122.5 264.139"/>
    </clipPath>
    <clipPath id="clip-path-3">
      <polygon class="cls-1" points="122.5 229.498 25 173.206 25 161.658 122.5 217.95 122.5 229.498"/>
    </clipPath>
    <clipPath id="clip-path-4">
      <polygon class="cls-1" points="265 311.77 167.5 255.479 167.5 243.932 265 300.223 265 311.77"/>
    </clipPath>
    <clipPath id="clip-path-5">
      <polygon class="cls-1" points="265 346.411 167.5 290.249 167.5 278.573 265 334.864 265 346.411"/>
    </clipPath>
    <clipPath id="clip-path-6">
      <polygon class="cls-1" points="265 381.052 167.5 324.76 167.5 313.214 265 369.505 265 381.052"/>
    </clipPath>
    <clipPath id="clip-path-7">
      <polygon class="cls-1" points="275 311.77 335 277.129 335 265.582 275 300.223 275 311.77"/>
    </clipPath>
    <clipPath id="clip-path-8">
      <polygon class="cls-1" points="275 346.411 335 311.77 335 300.223 275 334.864 275 346.411"/>
    </clipPath>
    <clipPath id="clip-path-9">
      <polygon class="cls-1" points="275 381.052 335 346.411 335 334.864 275 369.505 275 381.052"/>
    </clipPath>
  </defs>
  <title>Artboard 15</title>
  <g id="root">
    <path class="top-light" d="M0,280.015,270,435.9,570,262.694v-5.773L300,101.036,0,274.241Z"/>
    <path id="anchor_30_297.336_515" class="top-dark" d="M30,161.658v-2.887L305,0,545,138.564v2.887L270,300.222Z"/>
    <path class="exterior-R-prim" d="M545,242.4871,270,401.259V372.391L545,213.62Z"/>
    <path class="exterior-L-prim" d="M345,369.504l-10,5.774-10-5.774V334.863h20Z"/>
    <path class="exterior-L-prim" d="M412.5,330.533l-10,5.774-10-5.774V295.892h20Z"/>
    <path class="exterior-L-prim" d="M480,291.562l-10,5.7741-10-5.7741V256.921h20Z"/>
    <path class="exterior-L-prim" d="M545,254.0341l-10,5.7739-10-5.7739V219.3929h20Z"/>
    <path class="curtain-R-prim-light" d="M320,372.391v-17.32l-45,25.98v17.3209Z"/>
    <path class="curtain-R-prim-light" d="M387.5,333.42V310.326l-45,25.981v23.094Z"/>
    <path class="curtain-R-prim-light" d="M455,294.449V271.355l-45,25.98v23.094Z"/>
    <path class="curtain-R-prim-light" d="M520,256.921V233.827l-45,25.981v23.094Z"/>
    <path class="exterior-R-prim" d="M260,407.032l10,5.774,10-5.774V372.391H260Z"/>
    <path class="exterior-R-prim" d="M335,375.278l10-5.774V334.863l-10,5.774Z"/>
    <path class="exterior-R-prim" d="M470,297.3361l10-5.7741V256.921l-10,5.7739Z"/>
    <path class="exterior-R-prim" d="M402.5,336.307l10-5.774V295.892l-10,5.774Z"/>
    <path class="exterior-R-prim" d="M535,259.808l10-5.7739V219.3929l-10,5.7741Z"/>
    <path class="exterior-L-prim" d="M30,262.694,270,401.259V372.391L30,233.827Z"/>
    <path class="curtain-L-prim-light" d="M227.5,376.7209v-17.32l37.5,21.65v17.3209Z"/>
    <path class="exterior-R-prim" d="M202.5,373.834l10,5.774,10-5.774V339.193h-20Z"/>
    <path class="curtain-L-prim-light" d="M170,343.524V326.203l37.5,21.651v17.32Z"/>
    <path class="curtain-L-prim-dark" d="M257.5,394.042l7.5,4.33V381.051l-7.5-4.33Z"/>
    <path class="curtain-L-prim-dark" d="M200,360.844l7.5,4.33v-17.32l-7.5-4.33Z"/>
    <path class="exterior-L-prim" d="M270,412.806l-10-5.774V372.391l10,5.774Z"/>
    <path class="curtain-L-prim-light" d="M112.5,310.326V293.005L150,314.656v17.3211Z"/>
    <path class="curtain-L-prim-dark" d="M142.5,327.646l7.5,4.3311V314.656l-7.5-4.33Z"/>
    <path class="curtain-L-prim-light" d="M55,277.1281v-17.32l37.5,21.65v17.3211Z"/>
    <path class="curtain-L-prim-dark" d="M85,294.449l7.5,4.33V281.458l-7.5-4.33Z"/>
    <path class="exterior-R-prim" d="M145,340.637l10,5.903,10-5.773V306.126l-20-.13Z"/>
    <path class="exterior-R-prim" d="M87.5,307.439l10,5.774,10-5.774V272.798h-20Z"/>
    <path class="exterior-R-prim" d="M30,274.241l10,5.774,10-5.774V239.6H30Z"/>
    <path class="curtain-R-prim-light" d="M270,297.3361V366.618L545,207.8459V138.564Z"/>
    <path class="curtain-L-prim-light" d="M270,297.3361V378.165L30,239.6V158.771Z"/>
    <path class="curtain-R-prim-dark" d="M545,138.564v23.094L325,288.675V265.5811Z"/>
    <path class="curtain-R-prim-dark" d="M545,184.752v23.0939L330,331.9771v-23.094Z"/>
    <path class="curtain-R-prim-dark" d="M330,274.2419v23.0942l-60,34.641v-23.094Z"/>
    <path class="curtain-R-prim-dark" d="M330,308.8831v23.094L270,366.618V343.524Z"/>
    <path class="exterior-L-prim" d="M40,280.015l-10-5.774V239.6l10,5.774Z"/>
    <path class="exterior-L-prim" d="M97.5,313.213l-10-5.774V272.798l10,5.774Z"/>
    <path class="curtain-L-prim-dark" d="M180,320.494l-7.5-4.33V252.656l7.5,4.33Z"/>
    <path class="exterior-L-prim" d="M155,346.41l-10-5.773V305.996l10,5.773Z"/>
    <path class="curtain-L-prim-dark" d="M210,337.8149l-7.5-4.33V269.976l7.5,4.33Z"/>
    <path class="exterior-L-prim" d="M212.5,379.608l-10-5.774v-34.64l10,5.773Z"/>
    <path class="curtain-L-prim-dark" d="M240,355.135l-7.5-4.33V287.296l7.5,4.331Z"/>
    <path class="curtain-R-prim-light" d="M300,355.135l7.5-4.33V287.296l-7.5,4.331Z"/>
    <path class="exterior-L-prim" d="M270,331.9771l5,2.8859V346.41l-5-2.886Z"/>
    <path class="curtain-L-prim-dark" d="M270,372.4561l-7.5-4.33V304.6169l7.5,4.33Z"/>
    <path class="curtain-R-prim-light" d="M270,372.4561l7.5-4.33V304.6169l-7.5,4.33Z"/>
    <path class="exterior-L-prim" d="M270,366.618l60-34.6409,5,2.8859V346.41l-60,34.641-5-2.886Z"/>
    <path class="curtain-L-prim-dark" d="M195,329.155l-7.5-4.33V261.316l7.5,4.33Z"/>
    <path class="exterior-L-prim" d="M335,265.5811v11.547L275,311.769l-5-2.8859v-11.547l60-34.6421Z"/>
    <path class="exterior-L-prim" d="M270,331.9771l60-34.641,5,2.8859v11.547L275,346.41l-5-2.886Z"/>
    <path class="curtain-L-prim-dark" d="M225,346.475l-7.5-4.33V278.637l7.5,4.33Z"/>
    <path class="curtain-R-prim-light" d="M315,346.475l7.5-4.33V278.637l-7.5,4.33Z"/>
    <path class="top-light" d="M270,297.3361l-97.5-56.2922-5,2.8871v11.547L265,311.769l5-2.8859Z"/>
    <path class="curtain-L-prim-dark" d="M255,363.796l-7.5-4.33V295.957l7.5,4.33Z"/>
    <path class="curtain-R-prim-light" d="M285,363.796l7.5-4.33V295.957l-7.5,4.33Z"/>
    <path class="top-light" d="M270,331.9771l-97.5-56.292-5,2.8869v11.547L265,346.41l5-2.886Z"/>
    <path class="curtain-L-prim-dark" d="M37.5,238.157l-7.5-4.33V170.318l7.5,4.331Z"/>
    <path class="curtain-L-prim-dark" d="M67.5,255.478l-7.5-4.33V187.639l7.5,4.33Z"/>
    <path class="curtain-L-prim-dark" d="M97.5,272.798l-7.5-4.33V204.959l7.5,4.33Z"/>
    <path class="curtain-L-prim-dark" d="M127.5,290.119l-7.5-4.33V222.28l7.5,4.33Z"/>
    <path class="curtain-L-prim-dark" d="M52.5,246.818,45,242.4871V178.979l7.5,4.33Z"/>
    <path class="curtain-L-prim-dark" d="M82.5,264.1381l-7.5-4.33V196.299l7.5,4.331Z"/>
    <path class="curtain-L-prim-dark" d="M112.5,281.458l-7.5-4.33V213.62l7.5,4.33Z"/>
    <path class="curtain-L-prim-dark" d="M142.5,298.7791l-7.5-4.33V230.94l7.5,4.3311Z"/>
    <path class="curtain-L-prim-dark" d="M150,303.109l-7.5-4.33V235.27l7.5,4.331Z"/>
    <path class="top-light" d="M270,378.165V366.618l-97.5-56.292-5,2.887V324.76L265,381.051Z"/>
    <path class="top-light" d="M127.5,215.063,30,158.771l-5,2.887v11.547l97.5,56.2919,5-2.8869Z"/>
    <path class="top-light" d="M127.5,249.704,30,193.542l-5,2.887v11.4169l97.5,56.2922,5-2.8871Z"/>
    <path class="top-light" d="M127.5,284.345,30,228.053,25,230.94v11.5472l97.5,56.292,5-2.8871Z"/>
    <path class="exterior-R-prim" d="M265,300.222l5-2.8859v11.547l-5,2.8859Z"/>
    <path class="exterior-R-prim" d="M265,334.863l5-2.8859V343.524l-5,2.886Z"/>
    <path class="exterior-R-prim" d="M265,369.504l5-2.886v11.547l-5,2.886Z"/>
    <path class="exterior-R-prim" d="M122.5,217.95l5-2.887V226.61l-5,2.8869Z"/>
    <path class="exterior-R-prim" d="M122.5,252.7209l5-2.8869v11.547l-5,2.8869Z"/>
    <path class="exterior-R-prim" d="M122.5,287.2321l5-2.8871v11.547l-5,2.8871Z"/>
    <path class="top-light" d="M132.5,304.552V223.723l5-2.886,25,14.433v80.829l-5,2.887Z"/>
    <path class="exterior-R-prim" d="M157.5,318.986l5-2.887V235.27l-5,2.887Z"/>
    <path class="curtain-R-prim-dark-light" d="M330,285.7889l5-2.8869V259.808l-5,2.8869Z"/>
    <path class="curtain-R-prim-dark-light" d="M330,331.9771l5-2.8871V305.996l-5,2.8871Z"/>
    <path class="curtain-R-prim-dark-light" d="M405,242.4871l10-5.7731V213.62l-10,5.7729Z"/>
    <path class="curtain-R-prim-dark-light" d="M405,288.675l10-5.773V259.808l-10,5.7731Z"/>
    <path class="curtain-R-prim-dark-light" d="M485,196.299l10-5.773V167.432l-10,5.773Z"/>
    <path class="curtain-R-prim-dark-light" d="M485,242.4871l10-5.7731V213.62l-10,5.7729Z"/>
    <path class="curtain-R-prim-dark-light" d="M365,265.5811l10-5.7731V236.714l-10,5.7731Z"/>
    <path class="curtain-R-prim-dark-light" d="M365,311.769l10-5.773V282.902l-10,5.773Z"/>
    <path class="curtain-R-prim-dark-light" d="M445,219.3929l10-5.7729V190.526l-10,5.773Z"/>
    <path class="curtain-R-prim-dark-light" d="M445,265.5811l10-5.7731V236.714l-10,5.7731Z"/>
    <path class="curtain-R-prim-dark-light" d="M525,173.205l10-5.773V144.338l-10,5.773Z"/>
    <path class="curtain-R-prim-dark-light" d="M525,219.3929l10-5.7729V190.526l-10,5.773Z"/>
    <path class="curtain-R-prim-dark-light" d="M345,277.1281l10-5.7731V248.261l-10,5.7731Z"/>
    <path class="curtain-R-prim-dark-light" d="M345,323.316l10-5.773V294.449l-10,5.773Z"/>
    <path class="curtain-R-prim-dark-light" d="M425,230.94l10-5.7729V202.073l-10,5.7729Z"/>
    <path class="curtain-R-prim-dark-light" d="M425,277.1281l10-5.7731V248.261l-10,5.7731Z"/>
    <path class="curtain-R-prim-dark-light" d="M505,184.752l10-5.773V155.885l-10,5.773Z"/>
    <path class="curtain-R-prim-dark-light" d="M505,230.94l10-5.7729V202.073l-10,5.7729Z"/>
    <path class="curtain-R-prim-dark-light" d="M385,254.0341l10-5.7731V225.167L385,230.94Z"/>
    <path class="curtain-R-prim-dark-light" d="M385,300.222l10-5.773V271.355l-10,5.7731Z"/>
    <path class="curtain-R-prim-dark-light" d="M465,207.8459l10-5.7729V178.979l-10,5.773Z"/>
    <path class="curtain-R-prim-dark-light" d="M465,254.0341l10-5.7731V225.167L465,230.94Z"/>
    <path class="curtain-R-prim-light-dark" d="M335,305.996l10-5.774V277.1281l-10,5.7739Z"/>
    <path class="curtain-R-prim-light-dark" d="M415,259.808l10-5.7739V230.94l-10,5.7741Z"/>
    <path class="curtain-R-prim-light-dark" d="M495,213.62l10-5.7741V184.752l-10,5.774Z"/>
    <path class="curtain-R-prim-light-dark" d="M375,282.902l10-5.7739v-23.094l-10,5.7739Z"/>
    <path class="curtain-R-prim-light-dark" d="M455,236.714l10-5.7741v-23.094L455,213.62Z"/>
    <path class="curtain-R-prim-light-dark" d="M535,190.526l10-5.774V161.658l-10,5.774Z"/>
    <path class="curtain-R-prim-light-dark" d="M355,294.449l10-5.774V265.5811l-10,5.7739Z"/>
    <path class="curtain-R-prim-light-dark" d="M435,248.261l10-5.7739V219.3929l-10,5.7741Z"/>
    <path class="curtain-R-prim-light-dark" d="M515,202.073l10-5.774V173.205l-10,5.774Z"/>
    <path class="curtain-R-prim-light-dark" d="M395,271.355l10-5.7739v-23.094l-10,5.7739Z"/>
    <path class="curtain-R-prim-light-dark" d="M475,225.167l10-5.7741V196.299l-10,5.774Z"/>
    <path class="exterior-R-prim" d="M545,207.8459v11.547L325,346.41V334.863Z"/>
    <path class="top-light" d="M270,297.3361l60-34.6421,5,2.8871L275,300.222Z"/>
    <path class="top-light" d="M270,331.9771l60-34.641,5,2.8859-60,34.641Z"/>
    <path class="top-light" d="M270,366.618l60-34.6409,5,2.8859-60,34.641Z"/>
    <path class="curtain-L-prim-dark" d="M227.5,376.7209l7.5,4.33v-17.32l-7.5-4.33Z"/>
    <path class="curtain-L-prim-dark" d="M170,343.524l7.5,4.33V330.533l-7.5-4.33Z"/>
    <path class="curtain-L-prim-dark" d="M242.5,385.381l7.5,4.331V372.391l-7.5-4.33Z"/>
    <path class="curtain-R-prim-light-dark" d="M320,372.391l-7.5,4.33v-17.32l7.5-4.33Z"/>
    <path class="curtain-R-prim-light-dark" d="M387.5,333.42l-7.5,4.33V314.656l7.5-4.33Z"/>
    <path class="curtain-R-prim-light-dark" d="M455,294.449l-7.5,4.33v-23.094l7.5-4.33Z"/>
    <path class="curtain-R-prim-light-dark" d="M520,256.921l-7.5,4.33V238.157l7.5-4.33Z"/>
    <path class="curtain-R-prim-light-dark" d="M290,389.712l-7.5,4.33V376.7209l7.5-4.33Z"/>
    <path class="curtain-R-prim-light-dark" d="M357.5,350.74l-7.5,4.33V331.9771l7.5-4.3311Z"/>
    <path class="curtain-R-prim-light-dark" d="M425,311.769l-7.5,4.33V293.005l7.5-4.33Z"/>
    <path class="curtain-R-prim-light-dark" d="M490,274.241l-7.5,4.33V255.478l7.5-4.331Z"/>
    <path class="curtain-R-prim-light-dark" d="M305,381.051l-7.5,4.33v-17.32l7.5-4.33Z"/>
    <path class="curtain-R-prim-light-dark" d="M372.5,342.08l-7.5,4.33V323.316l7.5-4.33Z"/>
    <path class="curtain-R-prim-light-dark" d="M440,303.109l-7.5,4.33V284.345l7.5-4.33Z"/>
    <path class="curtain-R-prim-light-dark" d="M505,265.5811l-7.5,4.33V246.817l7.5-4.33Z"/>
    <path class="curtain-L-prim-dark" d="M185,352.184l7.5,4.33V339.193l-7.5-4.33Z"/>
    <path class="curtain-L-prim-dark" d="M112.5,310.326l7.5,4.33v-17.32l-7.5-4.3311Z"/>
    <path class="curtain-L-prim-dark" d="M127.5,318.986l7.5,4.33v-17.32l-7.5-4.33Z"/>
    <path class="curtain-L-prim-dark" d="M55,277.1281l7.5,4.33v-17.32l-7.5-4.33Z"/>
    <path class="curtain-L-prim-dark" d="M70,285.788l7.5,4.33v-17.32l-7.5-4.33Z"/>
    <path class="top-prim" d="M270,430.126V435.9L570,262.694v-5.773Z"/>
    <path class="cls-2" d="M270,430.126V435.9L0,280.015v-5.7731Z"/>
    <g>
      <g>
        <g>
          <path class="cls-3" d="M132.5,223.7236l25,14.4339v80.8291l-25-14.4341Z"/>
          <g>
            <g>
              <path class="cls-4" d="M150.984,260.0205v7.751a.2856.2856,0,0,0,.13.2241l1.237.7139c.071.042.129.008.129-.074v-7.752a.2862.2862,0,0,0-.129-.2238l-1.237-.7141C151.042,259.9045,150.984,259.9375,150.984,260.0205Z"/>
              <path class="cls-4" d="M154.724,273.1926v1.1961c0,.083-.058.1169-.129.0749l-19.19-11.049a.2873.2873,0,0,1-.129-.2239v-1.197c0-.0831.058-.1163.129-.0752l19.19,11.049A.2875.2875,0,0,1,154.724,273.1926Z"/>
              <path class="cls-4" d="M135.405,258.9265l2.186,1.262c.786.4541,1.425.0852,1.425-.823v-1.72a2.864,2.864,0,0,0-1.296-2.2439l-2.444-1.4121v4.7131A.2867.2867,0,0,0,135.405,258.9265Z"/>
              <path class="cls-4" d="M135.276,255.1116l2.185,1.2619c.858.4952,1.555.0931,1.555-.8979v-.8692a3.156,3.156,0,0,0-1.425-2.4689l-2.186-1.261c-.071-.042-.129-.0078-.129.0752v4.16Z"/>
              <path class="cls-3" d="M136.901,253.0356l.295.17a.716.716,0,0,1,.324.561v1.1951c0,.2068-.145.2907-.324.187l-.295-.17a.2853.2853,0,0,1-.129-.2239v-1.644C136.772,253.0276,136.83,252.9946,136.901,253.0356Z"/>
              <path class="cls-3" d="M136.901,256.0505l.295.17a.7146.7146,0,0,1,.324.561v1.87c0,.2061-.145.29-.324.187l-.295-.17a.2873.2873,0,0,1-.129-.2249v-2.3181C136.772,256.0425,136.83,256.01,136.901,256.0505Z"/>
              <path class="cls-4" d="M141.13,254.1816l-1.237-.7141c-.071-.041-.129-.008-.129.075v6.1941a3.153,3.153,0,0,0,1.425,2.468l.89.5139c.786.4541,1.425.0859,1.425-.823v-6.1938a.2844.2844,0,0,0-.13-.2242l-1.236-.715c-.072-.0408-.13-.0069-.13.0751v6.096c0,.2471-.168.352-.374.2329h0a.846.846,0,0,1-.374-.665v-6.096A.2854.2854,0,0,0,141.13,254.1816Z"/>
              <path class="cls-4" d="M144.382,256.0586l1.236.7139a.4935.4935,0,0,1,.184.215l1.388,3.607c.03.0771.092.0849.139.0171l1.326-1.9141a.1667.1667,0,0,1,.215-.0478l1.237.7138a.289.289,0,0,1,.129.2251v7.69c0,.083-.058.1159-.129.0749l-1.237-.7139a.287.287,0,0,1-.13-.225v-4.2352c0-.0827-.038-.0949-.085-.0268l-1.241,1.791c-.094.135-.218.1209-.277-.0339l-1.335-3.4671c-.03-.0781-.054-.073-.054.01v4.2349c0,.082-.058.116-.13.075l-1.236-.7139a.2874.2874,0,0,1-.13-.2251v-7.69C144.252,256.0505,144.31,256.0176,144.382,256.0586Z"/>
              <path class="cls-4" d="M151.243,266.2825l2.056,1.187c.787.4541,1.425.0849,1.425-.823v-2.971a3.15,3.15,0,0,0-1.425-2.468l-2.185-1.2619c-.072-.0411-.13-.0081-.13.0749v5.813A.5742.5742,0,0,0,151.243,266.2825Z"/>
              <path class="cls-3" d="M152.804,262.2166l.1.0581a.7154.7154,0,0,1,.324.5607v2.9231c0,.2071-.145.29-.324.1871l-.1-.0581a.7144.7144,0,0,1-.324-.5608v-2.9231C152.48,262.1975,152.625,262.1135,152.804,262.2166Z"/>
            </g>
            <g>
              <path class="cls-4" d="M150.984,278.4946v7.752a.2854.2854,0,0,0,.13.2239l1.237.7141c.071.041.129.008.129-.075v-7.751a.2872.2872,0,0,0-.129-.2241l-1.237-.7138C151.042,278.3787,150.984,278.4126,150.984,278.4946Z"/>
              <path class="cls-4" d="M154.724,291.6665v1.197c0,.083-.058.116-.129.075L135.405,281.89a.2871.2871,0,0,1-.129-.2241v-1.197c0-.083.058-.116.129-.0749l19.19,11.049A.2868.2868,0,0,1,154.724,291.6665Z"/>
              <path class="cls-4" d="M135.405,277.4016l2.186,1.262c.786.4541,1.425.0849,1.425-.823V276.12a2.8677,2.8677,0,0,0-1.296-2.2441l-2.444-1.4109v4.7129A.2872.2872,0,0,0,135.405,277.4016Z"/>
              <path class="cls-4" d="M135.276,273.5867l2.185,1.2619c.858.4949,1.555.0931,1.555-.8982v-.8689a3.1534,3.1534,0,0,0-1.425-2.469l-2.186-1.2619c-.071-.041-.129-.0071-.129.0749v4.1612Z"/>
              <path class="cls-3" d="M136.901,271.5105l.295.17a.7141.7141,0,0,1,.324.5608v1.195c0,.2071-.145.29-.324.187l-.295-.17a.2872.2872,0,0,1-.129-.2241v-1.6441C136.772,271.5024,136.83,271.47,136.901,271.5105Z"/>
              <path class="cls-3" d="M136.901,274.5256l.295.17a.7146.7146,0,0,1,.324.561v1.87c0,.206-.145.29-.324.187l-.295-.17a.289.289,0,0,1-.129-.2251V274.6C136.772,274.5176,136.83,274.4836,136.901,274.5256Z"/>
              <path class="cls-4" d="M141.13,272.6565l-1.237-.7139c-.071-.042-.129-.008-.129.074v6.1951a3.152,3.152,0,0,0,1.425,2.4677l.89.5142c.786.4539,1.425.085,1.425-.823v-6.1941a.2868.2868,0,0,0-.13-.2248l-1.236-.7142c-.072-.041-.13-.008-.13.075v6.0959c0,.2471-.168.3521-.374.2322h0a.8445.8445,0,0,1-.374-.664v-6.096A.2856.2856,0,0,0,141.13,272.6565Z"/>
              <path class="cls-4" d="M144.382,274.5334l1.236.7142a.49.49,0,0,1,.184.2141l1.388,3.6079c.03.0769.092.084.139.0171l1.326-1.9141a.1655.1655,0,0,1,.215-.0481l1.237.7141a.2871.2871,0,0,1,.129.2249v7.69c0,.0817-.058.1159-.129.0749l-1.237-.7141a.2869.2869,0,0,1-.13-.2249v-4.2351c0-.083-.038-.0949-.085-.0271l-1.241,1.7911c-.094.135-.218.12-.277-.034l-1.335-3.468c-.03-.0769-.054-.072-.054.01v4.2361c0,.082-.058.116-.13.074l-1.236-.7141a.2838.2838,0,0,1-.13-.2239v-7.69C144.252,274.5256,144.31,274.4927,144.382,274.5334Z"/>
              <path class="cls-4" d="M151.243,284.7566l2.056,1.187c.787.4539,1.425.0859,1.425-.822v-2.971a3.1518,3.1518,0,0,0-1.425-2.469l-2.185-1.2609c-.072-.042-.13-.0081-.13.0739v5.814A.5709.5709,0,0,0,151.243,284.7566Z"/>
              <path class="cls-3" d="M152.804,280.6917l.1.0578a.7161.7161,0,0,1,.324.561v2.9231c0,.2059-.145.29-.324.1871l-.1-.0582a.716.716,0,0,1-.324-.561v-2.9228C152.48,280.6726,152.625,280.5886,152.804,280.6917Z"/>
            </g>
            <g>
              <path class="cls-4" d="M150.984,296.97v7.751a.286.286,0,0,0,.13.2251l1.237.7141c.071.0407.129.0078.129-.0752v-7.751a.2853.2853,0,0,0-.129-.2239l-1.237-.7151C151.042,296.8535,150.984,296.8875,150.984,296.97Z"/>
              <path class="cls-4" d="M154.724,310.1416v1.197c0,.0821-.058.116-.129.075l-19.19-11.0491a.2885.2885,0,0,1-.129-.2249v-1.196c0-.083.058-.1169.129-.0749l19.19,11.0488A.2857.2857,0,0,1,154.724,310.1416Z"/>
              <path class="cls-4" d="M135.405,295.8765l2.186,1.261c.786.455,1.425.0861,1.425-.8218v-1.7212a2.8658,2.8658,0,0,0-1.296-2.2439l-2.444-1.4111v4.7121A.2887.2887,0,0,0,135.405,295.8765Z"/>
              <path class="cls-4" d="M135.276,292.0615l2.185,1.262c.858.4951,1.555.093,1.555-.898v-.87a3.1524,3.1524,0,0,0-1.425-2.4681l-2.186-1.2622c-.071-.0407-.129-.0078-.129.0752v4.1609Z"/>
              <path class="cls-3" d="M136.901,289.9856l.295.17a.7146.7146,0,0,1,.324.5611v1.195c0,.2061-.145.29-.324.187l-.295-.17a.2868.2868,0,0,1-.129-.2239V290.06C136.772,289.9775,136.83,289.9436,136.901,289.9856Z"/>
              <path class="cls-3" d="M136.901,293l.295.17a.7176.7176,0,0,1,.324.5608v1.87c0,.207-.145.291-.324.187l-.295-.17a.2857.2857,0,0,1-.129-.2241v-2.3191C136.772,292.9927,136.83,292.9585,136.901,293Z"/>
              <path class="cls-4" d="M141.13,291.1316l-1.237-.7151c-.071-.041-.129-.0068-.129.075v6.194a3.1531,3.1531,0,0,0,1.425,2.469l.89.514c.786.4541,1.425.0852,1.425-.823v-6.1939a.2858.2858,0,0,0-.13-.2251l-1.236-.7139c-.072-.041-.13-.008-.13.075v6.095c0,.248-.168.352-.374.2329h0a.8445.8445,0,0,1-.374-.6651v-6.0949A.2837.2837,0,0,0,141.13,291.1316Z"/>
              <path class="cls-4" d="M144.382,293.0085l1.236.7142a.49.49,0,0,1,.184.2138l1.388,3.6082c.03.0769.092.084.139.0158l1.326-1.913a.1657.1657,0,0,1,.215-.0479l1.237.7139a.2872.2872,0,0,1,.129.2241v7.6909c0,.082-.058.116-.129.074l-1.237-.7139a.2856.2856,0,0,1-.13-.2241V299.13c0-.083-.038-.0949-.085-.0271l-1.241,1.79c-.094.136-.218.1211-.277-.033l-1.335-3.468c-.03-.0771-.054-.073-.054.01v4.2349c0,.083-.058.1172-.13.0752l-1.236-.7141a.2857.2857,0,0,1-.13-.2239v-7.6912C144.252,293.0005,144.31,292.9666,144.382,293.0085Z"/>
              <path class="cls-4" d="M151.243,303.2314l2.056,1.1871c.787.4541,1.425.0861,1.425-.823v-2.97a3.1506,3.1506,0,0,0-1.425-2.469l-2.185-1.262c-.072-.041-.13-.007-.13.075v5.813A.57.57,0,0,0,151.243,303.2314Z"/>
              <path class="cls-3" d="M152.804,299.1665l.1.0581a.7146.7146,0,0,1,.324.561v2.9229c0,.2061-.145.29-.324.187l-.1-.0579a.716.716,0,0,1-.324-.561v-2.9231C152.48,299.1465,152.625,299.0635,152.804,299.1665Z"/>
            </g>
            <g>
              <path class="cls-4" d="M150.984,241.5457v7.7509a.287.287,0,0,0,.13.2249l1.237.7141c.071.041.129.0071.129-.075V242.41a.289.289,0,0,0-.129-.2251l-1.237-.7141C151.042,241.4294,150.984,241.4626,150.984,241.5457Z"/>
              <path class="cls-4" d="M154.724,254.7175v1.1971c0,.082-.058.1159-.129.0749l-19.19-11.05a.285.285,0,0,1-.129-.2239v-1.197c0-.0821.058-.116.129-.075l19.19,11.05A.2851.2851,0,0,1,154.724,254.7175Z"/>
              <path class="cls-4" d="M135.405,240.4517l2.186,1.2619c.786.4539,1.425.086,1.425-.823v-1.72a2.8659,2.8659,0,0,0-1.296-2.2442l-2.444-1.4109v4.7119A.286.286,0,0,0,135.405,240.4517Z"/>
              <path class="cls-4" d="M135.276,236.6375l2.185,1.2612c.858.4958,1.555.0928,1.555-.8972v-.87a3.1529,3.1529,0,0,0-1.425-2.468l-2.186-1.262c-.071-.041-.129-.008-.129.075v4.1609Z"/>
              <path class="cls-3" d="M136.901,234.5605l.295.17a.7175.7175,0,0,1,.324.561v1.196c0,.2061-.145.29-.324.1871l-.295-.17a.289.289,0,0,1-.129-.2251v-1.644C136.772,234.5525,136.83,234.52,136.901,234.5605Z"/>
              <path class="cls-3" d="M136.901,237.5754l.295.17a.7161.7161,0,0,1,.324.561v1.87c0,.207-.145.29-.324.187l-.295-.17a.2872.2872,0,0,1-.129-.2241v-2.3189C136.772,237.5676,136.83,237.5347,136.901,237.5754Z"/>
              <path class="cls-4" d="M141.13,235.7065l-1.237-.7138c-.071-.041-.129-.0081-.129.0749v6.1939a3.1541,3.1541,0,0,0,1.425,2.469l.89.5132c.786.4538,1.425.0859,1.425-.8221v-6.195a.2858.2858,0,0,0-.13-.2242l-1.236-.7138c-.072-.042-.13-.0081-.13.0749v6.095c0,.248-.168.352-.374.2332h0a.845.845,0,0,1-.374-.6651v-6.095A.2874.2874,0,0,0,141.13,235.7065Z"/>
              <path class="cls-4" d="M144.382,237.5835l1.236.7141a.4983.4983,0,0,1,.184.2149l1.388,3.6071c.03.0769.092.085.139.0169l1.326-1.9129a.1657.1657,0,0,1,.215-.049l1.237.715a.2854.2854,0,0,1,.129.2239v7.69c0,.083-.058.1162-.129.0752l-1.237-.7141a.2857.2857,0,0,1-.13-.2239v-4.2361c0-.082-.038-.094-.085-.0261l-1.241,1.79c-.094.136-.218.1211-.277-.033l-1.335-3.468c-.03-.0769-.054-.073-.054.01v4.2351c0,.0831-.058.116-.13.075l-1.236-.7141a.2855.2855,0,0,1-.13-.2249v-7.69C144.252,237.5767,144.31,237.5425,144.382,237.5835Z"/>
              <path class="cls-4" d="M151.243,247.8076l2.056,1.187c.787.4539,1.425.085,1.425-.823V245.2a3.1493,3.1493,0,0,0-1.425-2.4677l-2.185-1.2622c-.072-.0411-.13-.0079-.13.0752v5.8129A.5741.5741,0,0,0,151.243,247.8076Z"/>
              <path class="cls-3" d="M152.804,243.7427l.1.0569a.7175.7175,0,0,1,.324.561v2.9228c0,.2071-.145.2911-.324.1871l-.1-.0579a.7146.7146,0,0,1-.324-.561v-2.9222C152.48,243.7227,152.625,243.6387,152.804,243.7427Z"/>
            </g>
          </g>
        </g>
        <path class="cls-3" d="M122.5,298.78,25,242.4875V230.9407l97.5,56.292Z"/>
        <g class="cls-5">
          <g>
            <path class="cls-6" d="M105.155,282.4255l-1.035-.5969.411-1.334-1.996,1.2691,1.034.5969-.411,1.334Z"/>
            <path class="cls-6" d="M42.655,246.4255l-1.035-.5969.411-1.334-1.996,1.2691,1.034.5969-.411,1.334Z"/>
            <path class="cls-4" d="M109.782,285.6616v-.0671c.346.0342.44-.179.44-.5659v-.8059a1.9026,1.9026,0,0,0-1.16-1.9832l-1.694-.978v6.133l1.707.9861c.993.573,1.193.322,1.193-.625v-.9131A1.6456,1.6456,0,0,0,109.782,285.6616Zm-1.014-2.592a.4838.4838,0,0,1,.294.4961v.9668c0,.247-.067.2881-.294.157l-.206-.1189v-1.62Zm.307,3.977c0,.2469-.067.2888-.293.158l-.22-.127v-1.72l.22.1269a.4835.4835,0,0,1,.293.4959Zm4.487-2.209-1.194-.6889v4.8728c0,.2471-.113.2551-.253.1741a.4977.4977,0,0,1-.253-.4661v-4.874l-1.194-.689v4.88a2.4423,2.4423,0,0,0,1.447,2.149c.867.5,1.447.508,1.447-.4781Zm.4,6.3641,1.1.635v-4.5061l.093.0529.42,4.75,1.273.7352.42-4.2642.094.053v4.5071l1.1.635v-6.1331l-1.807-1.043-.407,4.305-.073-.042-.407-4.7749-1.806-1.043Zm6.593-2.3272-1.693-.977v6.133l1.193.689v-1.2869l.5.2891c.98.5659,1.18.3149,1.18-.6321v-2.22A1.9167,1.9167,0,0,0,120.555,288.8745Zm.013,3.5352c0,.2458-.066.2878-.293.157l-.22-.1272v-2.86l.22.1269a.4825.4825,0,0,1,.293.4961ZM88.582,273.4216v-.0661c.346.0332.44-.18.44-.5659v-.8069A1.9026,1.9026,0,0,0,87.862,270l-1.694-.978v6.134l1.707.9851c.993.573,1.193.322,1.193-.624v-.9141A1.6472,1.6472,0,0,0,88.582,273.4216Zm-1.014-2.591a.4823.4823,0,0,1,.294.4961v.9658c0,.2471-.067.2881-.294.1579l-.206-.12v-1.62Zm.307,3.977c0,.2459-.067.2879-.293.157l-.22-.127v-1.72l.22.1269a.4836.4836,0,0,1,.293.4959Zm4.487-2.21-1.194-.6893v4.8731c0,.2471-.113.2551-.253.1741a.4977.4977,0,0,1-.253-.4661v-4.874l-1.194-.688v4.88a2.4419,2.4419,0,0,0,1.447,2.148c.867.5,1.447.509,1.447-.4781Zm.4,6.364,1.1.635v-4.5061l.093.0539.42,4.7491,1.273.7351.42-4.2642.094.054v4.5061l1.1.635v-6.1331l-1.807-1.043-.407,4.305-.073-.042-.407-4.7749-1.806-1.043Zm6.593-2.3262-1.693-.978v6.133l1.193.689v-1.2859l.5.2878c.98.5662,1.18.3152,1.18-.6318v-2.22A1.9153,1.9153,0,0,0,99.355,276.6355Zm.013,3.5342c0,.2468-.066.2878-.293.157l-.22-.1272v-2.86l.22.127a.4832.4832,0,0,1,.293.496ZM75.332,262.7656l-.28,4.6909-.067-.038-.353-5.0569-1.68-.97-.354,4.6489-.066-.039-.28-5.0149-1.16-.669.486,6.4138,1.854,1.07.326-4.6579.067.039.327,5.0349,1.853,1.07.487-5.853Zm1.526,7.0139,1.194.689v-6.1331l-1.194-.6889Zm4.327-3.635-2.767-1.5969v1l.787.4539v5.133l1.193.689v-5.1328l.787.4538Zm2.073,1.1971v2.634l-.513-.2971v-2.6328l-1.193-.6893V272.49l1.193.689v-2.5l.513.2971v2.5l1.194.688v-6.1331ZM57.875,252.6865,55.108,251.09v1l.787.4539v5.133l1.193.689v-5.1328l.787.4538Zm2.073,1.197v2.6331l-.513-.2961v-2.6329l-1.193-.6889v6.1328l1.193.689v-2.5l.513.2961v2.5l1.194.689v-6.1331Zm3.694,3.1321v-1l-2.1-1.2121v6.133l2.1,1.2132v-1l-.907-.5242V259.04l.887.5119v-.987l-.887-.512v-1.56Zm3.4,7.0969-.527-2.3779c.247-.051.4-.269.4-.729v-1.7861a1.9163,1.9163,0,0,0-1.18-1.9949l-1.693-.978v6.134l1.193.689v-1.794l.307.177.426,2.04Zm-1.807-6.1831.22.1272a.4823.4823,0,0,1,.293.4959v1.78c0,.2132-.053.2761-.213.197l-.3-.167Zm4.173,2.4161v-1l-2.1-1.2129v6.134l2.1,1.2119v-1l-.906-.5229v-1.5869l.886.5119v-.987l-.886-.512v-1.56ZM47.825,249.0046v-.8671a2.4408,2.4408,0,0,0-1.447-2.148c-.866-.501-1.446-.509-1.446.478v3.626a2.4444,2.4444,0,0,0,1.446,2.1492c.867.5,1.447.5078,1.447-.4781v-2.2741l-1.447-.835v.96l.32.185v1.3072c0,.2458-.113.2539-.293.15a.5008.5008,0,0,1-.287-.4851v-3.6141c0-.2458.114-.2539.26-.1689a.4985.4985,0,0,1,.26.47v.86Zm2.5.323v-1l-2.1-1.2121v6.133l2.1,1.2119v-1l-.907-.5229v-1.5869l.887.5119v-.986l-.887-.512v-1.56Zm3.133.8089L50.692,248.54v1l.786.4541v5.1328l1.194.6892v-5.1331l.786.4539Zm-26.626-12.366v-.0669c.346.0339.44-.1789.44-.5661v-.806a1.9023,1.9023,0,0,0-1.16-1.9829l-1.694-.978v6.1331l1.707.9858c.993.573,1.193.322,1.193-.625v-.9128A1.6461,1.6461,0,0,0,26.832,237.7705Zm-1.014-2.592a.484.484,0,0,1,.294.4961v.967c0,.2471-.067.2878-.294.157l-.206-.1192v-1.62Zm.307,3.977c0,.2471-.067.2881-.293.158l-.22-.127v-1.72l.22.1269a.483.483,0,0,1,.293.4961Zm1.593,2.2529,1.194.6893v-6.1331l-1.194-.689Zm3.64,2.1021,1.134.6541-.854-3.7659.794-2.4021-1.187-.6851-.693,2.1-.054-.031v-2.5l-1.186-.685v6.133l1.186.686v-1.66l.26-.717Zm3.534-3.093v-1l-2.1-1.2129v6.134l2.1,1.2119v-1l-.907-.5229v-1.5869l.887.5119v-.987l-.887-.512v-1.56Zm3.22,2.9922v-.8731a2.3818,2.3818,0,0,0-1.407-2.1191c-.853-.4929-1.413-.4829-1.413.4909v.8133c0,1.4929,1.666,2.1958,1.666,3.0158v.74c0,.2461-.106.2581-.253.1731a.4926.4926,0,0,1-.26-.47v-.8672l-1.147-.6619v.874a2.3939,2.3939,0,0,0,1.414,2.1219c.86.497,1.42.487,1.42-.4859v-.8139c0-1.4932-1.674-2.199-1.674-3.0191v-.74c0-.247.107-.259.254-.174a.4912.4912,0,0,1,.253.466v.867Z"/>
          </g>
        </g>
        <path class="cls-3" d="M122.5,264.1387,25,207.9766V196.4294l97.5,56.1622Z"/>
        <g class="cls-7">
          <g>
            <path class="cls-6" d="M119.811,256.6606l-1.034-.5971.41-1.334-1.996,1.269,1.034.597-.41,1.3339Z"/>
            <path class="cls-6" d="M82.905,235.35l-1.035-.5972.411-1.3339-1.996,1.268,1.034.5982-.411,1.334Z"/>
            <path class="cls-4" d="M103.758,247.5935v-.0659c.347.0329.44-.18.44-.5659v-.8072a1.9023,1.9023,0,0,0-1.16-1.9829l-1.693-.978v6.134l1.707.9849c.993.573,1.193.322,1.193-.624v-.9138A1.6446,1.6446,0,0,0,103.758,247.5935Zm-1.013-2.5911a.4818.4818,0,0,1,.293.4961v.9661c0,.2471-.066.2878-.293.158l-.207-.12v-1.62Zm.307,3.9771c0,.2461-.067.2881-.294.157l-.22-.127v-1.72l.22.1269a.4832.4832,0,0,1,.294.4961Zm1.593,2.2532,1.193.6889v-6.134l-1.193-.689Zm3.64,2.1008,1.133.655-.853-3.7658.793-2.4021-1.186-.6851-.694,2.0991-.053-.03v-2.5l-1.187-.686v6.134l1.187.685v-1.66l.26-.7171Zm3.533-3.093v-1l-2.1-1.2119v6.133l2.1,1.2119v-1l-.906-.5229v-1.5869l.886.5119v-.987l-.886-.511v-1.56Zm3.22,2.9922V252.36a2.3829,2.3829,0,0,0-1.406-2.1191c-.854-.492-1.414-.482-1.414.4909v.8133c0,1.4939,1.667,2.1958,1.667,3.0158v.74c0,.2471-.107.2581-.253.1741a.4936.4936,0,0,1-.26-.4709v-.8662l-1.147-.6619v.873a2.3959,2.3959,0,0,0,1.413,2.1231c.86.4958,1.42.4858,1.42-.4871v-.813c0-1.4941-1.673-2.2-1.673-3.02v-.74c0-.2461.107-.258.253-.1741a.4909.4909,0,0,1,.254.4671v.866ZM87.642,238.2886v-.0659c.346.0329.44-.18.44-.5662V236.85a1.9027,1.9027,0,0,0-1.16-1.9831l-1.694-.9778v6.1338l1.707.9851c.993.573,1.193.322,1.193-.6241v-.914A1.647,1.647,0,0,0,87.642,238.2886Zm-1.014-2.5911a.4825.4825,0,0,1,.294.4961v.9661c0,.2468-.067.2878-.294.1579l-.206-.12v-1.62Zm.307,3.9771c0,.2461-.067.288-.293.1569l-.22-.1269v-1.72l.22.127a.4838.4838,0,0,1,.293.4961Zm4.487-2.21-1.194-.689v4.8731c0,.2468-.113.2549-.253.1738a.4976.4976,0,0,1-.253-.4661v-4.8737l-1.194-.688v4.88a2.4417,2.4417,0,0,0,1.447,2.1479c.867.5,1.447.509,1.447-.478Zm.4,6.364,1.1.635v-4.5061l.093.054.42,4.749,1.273.7351.42-4.2642.094.0542v4.5059l1.1.635v-6.133l-1.807-1.043-.407,4.3052-.073-.042-.407-4.7752-1.806-1.0429Zm6.593-2.3262-1.693-.9777v6.1328l1.193.6892v-1.2862l.5.2881c.98.566,1.18.315,1.18-.632v-2.22A1.9155,1.9155,0,0,0,98.415,241.5024Zm.013,3.5342c0,.2468-.066.2879-.293.157l-.22-.1269v-2.86l.22.127a.4832.4832,0,0,1,.293.4961Zm-31.986-18.988v-.0659c.346.0329.44-.18.44-.5662V224.61a1.9027,1.9027,0,0,0-1.16-1.9831l-1.694-.9778v6.1338l1.707.9851c.993.574,1.193.322,1.193-.624V227.23A1.647,1.647,0,0,0,66.442,226.0486Zm-1.014-2.5911a.4832.4832,0,0,1,.294.4961v.9661c0,.2468-.067.2888-.294.1579l-.206-.12v-1.62Zm.307,3.9771c0,.2461-.067.2881-.293.157l-.22-.127v-1.72l.22.127a.4835.4835,0,0,1,.293.4961Zm4.487-2.21-1.194-.689V229.41c0,.2458-.113.2539-.253.1728a.4964.4964,0,0,1-.253-.466v-4.8728l-1.194-.6893v4.88a2.4416,2.4416,0,0,0,1.447,2.1479c.867.501,1.447.5091,1.447-.478Zm.4,6.364,1.1.636v-4.5071l.093.054.42,4.749,1.273.7351.42-4.2641.094.0542v4.5058l1.1.636v-6.134l-1.807-1.043-.407,4.3052-.073-.042-.407-4.7752-1.806-1.0429Zm6.593-2.3261-1.693-.9778v6.1328l1.193.6889v-1.2858l.5.288c.98.566,1.18.315,1.18-.632v-2.22A1.9161,1.9161,0,0,0,77.215,229.2625Zm.013,3.5341c0,.2469-.066.2879-.293.157l-.22-.1269v-2.86l.22.1269a.4832.4832,0,0,1,.293.4961Zm-24.036-17.404-.28,4.6919-.067-.0388-.353-5.0572-1.68-.97-.354,4.6489-.066-.0379-.28-5.0151-1.16-.67.486,6.414,1.854,1.07.326-4.658.067.0391.327,5.0349,1.853,1.07.487-5.8521Zm1.526,7.0149,1.194.6892v-6.1341l-1.194-.6889Zm4.327-3.636-2.767-1.5969v1l.787.4541v5.1328l1.193.6889v-5.1328l.787.4539Zm2.073,1.197v2.634l-.513-.2968v-2.6331l-1.193-.689v6.1329l1.193.6892v-2.5l.513.2968v2.5l1.194.689v-6.134Zm-25.383-14.655-2.767-1.5969v1l.787.4541v5.1328l1.193.6892V205.86l.787.4539Zm2.073,1.197v2.634l-.513-.2968v-2.6331l-1.193-.689v6.1328l1.193.6893v-2.5l.513.2968v2.5l1.194.689V207.2Zm3.694,3.1331v-1l-2.1-1.2129v6.1338l2.1,1.2121v-1l-.907-.5229v-1.5872l.887.512v-.9868l-.887-.5123v-1.56Zm3.4,7.0959-.527-2.377c.247-.051.4-.269.4-.729v-1.7868a1.9165,1.9165,0,0,0-1.18-1.9951l-1.693-.9771v6.1331l1.193.6889v-1.7929l.307.177.426,2.039Zm-1.807-6.1829.22.127a.4821.4821,0,0,1,.293.4958v1.78c0,.2131-.053.2761-.213.197l-.3-.167Zm4.173,2.4161v-1l-2.1-1.2122v6.1331l2.1,1.2119v-1l-.906-.523v-1.5869l.886.512v-.9871l-.886-.511v-1.56ZM25.685,201.6316v-.867a2.442,2.442,0,0,0-1.447-2.1481c-.866-.501-1.446-.5088-1.446.478v3.626a2.443,2.443,0,0,0,1.446,2.1491c.867.5,1.447.5091,1.447-.478v-2.2729l-1.447-.8362v.96l.32.1848v1.3071c0,.2459-.113.2539-.293.15a.4988.4988,0,0,1-.287-.4848v-3.6131c0-.247.114-.2551.26-.17a.4985.4985,0,0,1,.26.47v.86Zm2.5.323v-1l-2.1-1.2119v6.1328l2.1,1.2131v-1l-.907-.5241v-1.587l.887.512v-.9858l-.887-.5122v-1.56Zm3.133.8091-2.766-1.5972v1l.786.4541v5.1331l1.194.6889V203.31l.786.4541Z"/>
          </g>
        </g>
        <path class="cls-3" d="M122.5,229.4976,25,173.2056V161.6584l97.5,56.292Z"/>
        <g class="cls-8">
          <g>
            <path class="cls-6" d="M29.905,170.2515l-1.035-.597.411-1.3339-1.996,1.269,1.034.5969-.411,1.334Z"/>
            <path class="cls-6" d="M92.155,206.0137l-1.035-.5972.411-1.334-1.996,1.2691,1.034.5969-.411,1.334Z"/>
            <path class="cls-4" d="M113.008,218.2585v-.0668c.347.0339.44-.1792.44-.5662V216.82a1.9022,1.9022,0,0,0-1.16-1.9829l-1.693-.9781v6.1329l1.707.986c.993.573,1.193.3221,1.193-.625v-.913A1.6429,1.6429,0,0,0,113.008,218.2585Zm-1.013-2.592a.4832.4832,0,0,1,.293.4961v.967c0,.2469-.066.2879-.293.157l-.207-.1191v-1.62Zm.307,3.9771c0,.247-.067.289-.294.1579l-.22-.1269v-1.72l.22.1269a.4833.4833,0,0,1,.294.4961Zm1.593,2.2539,1.193.6892v-6.1341l-1.193-.6889Zm3.64,2.101,1.133.6551-.853-3.7661.793-2.4019-1.186-.686-.694,2.1-.053-.031v-2.5l-1.187-.6851v6.134l1.187.6848v-1.66l.26-.717Zm3.533-3.093v-1l-2.1-1.2129v6.1341l2.1,1.2119v-1l-.906-.523v-1.5871l.886.5122v-.9871l-.886-.5119v-1.56Zm3.22,2.992v-.8728a2.383,2.383,0,0,0-1.406-2.1192c-.854-.4929-1.414-.4829-1.414.491v.813c0,1.4931,1.667,2.196,1.667,3.0161v.74c0,.2461-.107.258-.253.1731a.4913.4913,0,0,1-.26-.47v-.866l-1.147-.6619v.8731a2.3953,2.3953,0,0,0,1.413,2.1228c.86.4961,1.42.4861,1.42-.4868v-.8143c0-1.4929-1.673-2.1989-1.673-3.0187v-.74c0-.2471.107-.2581.253-.1741a.4907.4907,0,0,1,.254.467v.866ZM96.892,208.9536v-.0671c.346.0342.44-.179.44-.5659v-.806a1.9025,1.9025,0,0,0-1.16-1.9831l-1.694-.978v6.133l1.707.9861c.993.573,1.193.322,1.193-.625v-.9131A1.6454,1.6454,0,0,0,96.892,208.9536Zm-1.014-2.592a.484.484,0,0,1,.294.4961v.9668c0,.247-.067.288-.294.1569l-.206-.1189v-1.62Zm.307,3.977c0,.2468-.067.2888-.293.158l-.22-.127v-1.72l.22.1269a.4835.4835,0,0,1,.293.4959Zm4.487-2.209-1.194-.6889v4.8728c0,.247-.113.2551-.253.174a.4974.4974,0,0,1-.253-.466v-4.874l-1.194-.689v4.88a2.4422,2.4422,0,0,0,1.447,2.1489c.867.5,1.447.5091,1.447-.478Zm.4,6.3641,1.1.635v-4.5061l.093.0529.42,4.75,1.273.7351.42-4.2641.094.053v4.507l1.1.6351v-6.1331l-1.807-1.043-.407,4.305-.073-.042-.407-4.7749-1.806-1.043Zm6.593-2.3272-1.693-.977v6.133l1.193.689v-1.2869l.5.2891c.98.5659,1.18.3149,1.18-.6321v-2.22A1.9167,1.9167,0,0,0,107.665,212.1665Zm.013,3.5352c0,.2458-.066.2878-.293.1569l-.22-.1272v-2.86l.22.1269a.4825.4825,0,0,1,.293.4961ZM75.692,196.7136v-.0661c.346.0332.44-.18.44-.566v-.8068a1.9026,1.9026,0,0,0-1.16-1.9832l-1.694-.978v6.134l1.707.9851c.993.573,1.193.322,1.193-.624v-.9141A1.6472,1.6472,0,0,0,75.692,196.7136Zm-1.014-2.591a.4823.4823,0,0,1,.294.4961v.9658c0,.247-.067.2881-.294.1582l-.206-.12v-1.62Zm.307,3.977c0,.2459-.067.2879-.293.157l-.22-.127v-1.72l.22.1269a.4835.4835,0,0,1,.293.4959Zm4.487-2.21L78.278,195.2v4.8731c0,.2471-.113.2551-.253.1741a.4966.4966,0,0,1-.253-.4661v-4.8731l-1.194-.6889v4.88a2.442,2.442,0,0,0,1.447,2.148c.867.5,1.447.509,1.447-.4781Zm.4,6.3641,1.1.635v-4.5061l.093.0539.42,4.749,1.273.7352.42-4.2642.094.0539v4.5062l1.1.635v-6.1331l-1.807-1.043-.407,4.305-.073-.042-.407-4.7749-1.806-1.043Zm6.593-2.3262-1.693-.978v6.133l1.193.689v-1.2859l.5.2881c.98.5659,1.18.3149,1.18-.6321v-2.22A1.9155,1.9155,0,0,0,86.465,199.9275Zm.013,3.5342c0,.2468-.066.2878-.293.157l-.22-.1272v-2.86l.22.1269a.4832.4832,0,0,1,.293.4961ZM62.442,186.0576l-.28,4.6909-.067-.0381-.353-5.0568-1.68-.97-.354,4.6489-.066-.039-.28-5.014-1.16-.67.486,6.4141,1.854,1.07.326-4.658.067.0391.327,5.0349,1.853,1.07.487-5.853Zm1.526,7.0139,1.194.689v-6.1331l-1.194-.6889Zm4.327-3.635L65.528,187.84v1l.787.4539v5.133l1.193.689v-5.1328l.787.4538Zm2.073,1.197v2.6341l-.513-.2971v-2.6329l-1.193-.6889v6.1328l1.193.689v-2.5l.513.2971v2.5l1.194.6889v-6.134Zm-25.383-14.655-2.767-1.5969v1l.787.4538v5.1331l1.193.689v-5.1328l.787.4538Zm2.073,1.197V179.81l-.513-.2971V176.88l-1.193-.6889v6.1328l1.193.689v-2.5l.513.2971v2.5l1.194.688v-6.1331Zm3.694,3.1331v-1l-2.1-1.2131v6.133l2.1,1.2132v-1l-.907-.5242v-1.586l.887.512v-.9871l-.887-.5119v-1.56Zm3.4,7.0959-.527-2.3779c.247-.05.4-.269.4-.729v-1.7861a1.9163,1.9163,0,0,0-1.18-1.9949l-1.693-.978v6.134l1.193.689v-1.794l.307.177.426,2.04Zm-1.807-6.1828.22.1269a.4823.4823,0,0,1,.293.4959v1.78c0,.2131-.053.2761-.213.197l-.3-.167Zm4.173,2.4158v-1l-2.1-1.2129v6.134l2.1,1.2119v-1l-.906-.5229v-1.587l.886.512v-.9871l-.886-.5119v-1.56ZM34.935,172.2966v-.8672a2.4408,2.4408,0,0,0-1.447-2.1479c-.866-.501-1.446-.509-1.446.478v3.626a2.4445,2.4445,0,0,0,1.446,2.1492c.867.5,1.447.5078,1.447-.4781v-2.2741l-1.447-.835v.96l.32.185V174.4c0,.2458-.113.2539-.293.15a.5009.5009,0,0,1-.287-.4851V170.45c0-.2458.114-.2539.26-.1689a.4985.4985,0,0,1,.26.47v.86Zm2.5.323v-1l-2.1-1.2121v6.133l2.1,1.2119v-1l-.907-.5229v-1.5869l.887.5119v-.986l-.887-.512v-1.56Zm3.133.8089-2.766-1.597v1l.786.4541v5.1329l1.194.6892v-5.1331l.786.4539Z"/>
          </g>
        </g>
        <path class="cls-3" d="M265,311.77l-97.5-56.291V243.9316L265,300.2227Z"/>
        <g class="cls-9">
          <g>
            <path class="cls-6" d="M251.405,297.5806l-1.035-.597.411-1.3339-1.996,1.2688,1.034.5971-.411,1.334Z"/>
            <path class="cls-6" d="M188.905,261.5806l-1.035-.597.411-1.3339-1.996,1.2688,1.034.5971-.411,1.334Z"/>
            <path class="cls-4" d="M272.148,310.1226v-.0669c.347.0329.44-.1792.44-.5662v-.8069a1.9034,1.9034,0,0,0-1.16-1.9831l-1.693-.9768v6.1328l1.707.9851c.993.574,1.193.323,1.193-.624v-.9131A1.6426,1.6426,0,0,0,272.148,310.1226Zm-1.013-2.5921a.4824.4824,0,0,1,.293.4961v.9671c0,.2458-.066.2878-.293.1569l-.207-.12v-1.62Zm.307,3.9771c0,.247-.067.2881-.294.157l-.22-.127v-1.72l.22.127a.4838.4838,0,0,1,.294.4961Zm1.593,2.2529,1.193.689v-6.1328l-1.193-.6893Zm3.64,2.102,1.133.6541-.853-3.7661.793-2.4019-1.186-.685-.694,2.1-.053-.031v-2.5l-1.187-.6851v6.1331l1.187.6848v-1.66l.26-.7161Zm3.533-3.0939v-1l-2.1-1.212V316.69l2.1,1.2131v-1l-.906-.5239v-1.5862l.886.511v-.9859l-.886-.5119v-1.56Zm3.22,2.9929v-.874a2.3806,2.3806,0,0,0-1.406-2.118c-.854-.4929-1.414-.4829-1.414.49v.814c0,1.4932,1.667,2.1951,1.667,3.0151v.74c0,.2468-.107.259-.253.1738a.4924.4924,0,0,1-.26-.47v-.867l-1.147-.6618v.8728A2.393,2.393,0,0,0,282.028,319c.86.4971,1.42.4871,1.42-.487V317.7c0-1.493-1.673-2.2-1.673-3.02v-.74c0-.2459.107-.2579.253-.1729a.4883.4883,0,0,1,.254.4661V315.1Zm-27.396-14.9439v-.0671c.346.0329.44-.179.44-.5659v-.8072a1.9031,1.9031,0,0,0-1.16-1.9829l-1.694-.977v6.133l1.707.9851c.993.574,1.193.323,1.193-.624v-.9131A1.6456,1.6456,0,0,0,256.032,300.8176Zm-1.014-2.592a.483.483,0,0,1,.294.4961v.9668c0,.2461-.067.2881-.294.157l-.206-.1189v-1.62Zm.307,3.977c0,.2469-.067.2879-.293.157l-.22-.1269v-1.72l.22.1271a.4843.4843,0,0,1,.293.4959Zm4.487-2.21-1.194-.6892v4.874c0,.2461-.113.2541-.253.1731a.4955.4955,0,0,1-.253-.4661v-4.873l-1.194-.689v4.88a2.4419,2.4419,0,0,0,1.447,2.148c.867.501,1.447.509,1.447-.478Zm.4,6.365,1.1.635v-4.5071l.093.054.42,4.749,1.273.7351.42-4.2642.094.054v4.5071l1.1.635v-6.1341l-1.807-1.0429-.407,4.3049-.073-.042-.407-4.7749-1.806-1.043Zm6.593-2.3272-1.693-.978v6.134l1.193.689v-1.2869l.5.2888c.98.5652,1.18.3143,1.18-.6328v-2.22A1.9162,1.9162,0,0,0,266.805,304.0305Zm.013,3.534c0,.247-.066.288-.293.1582l-.22-.1272v-2.86l.22.1269a.4818.4818,0,0,1,.293.4961Zm-31.986-18.9869v-.0671c.346.0342.44-.179.44-.5659v-.8071a1.904,1.904,0,0,0-1.16-1.983l-1.694-.977v6.133l1.707.9852c.993.5739,1.193.323,1.193-.6241v-.9131A1.6456,1.6456,0,0,0,234.832,288.5776Zm-1.014-2.592a.4829.4829,0,0,1,.294.4958v.9671c0,.2461-.067.2881-.294.157l-.206-.1189v-1.62Zm.307,3.977c0,.2469-.067.2879-.293.157l-.22-.1269v-1.72l.22.1272a.4842.4842,0,0,1,.293.4958Zm4.487-2.21-1.194-.6889v4.874c0,.2461-.113.2542-.253.1741a.4983.4983,0,0,1-.253-.4671v-4.873l-1.194-.689v4.88a2.4433,2.4433,0,0,0,1.447,2.149c.867.5,1.447.508,1.447-.479Zm.4,6.3653,1.1.6347v-4.5068l.093.054.42,4.749,1.273.7348.42-4.2639.094.054v4.5071l1.1.635v-6.1341l-1.807-1.0429-.407,4.3059-.073-.043-.407-4.7749-1.806-1.043Zm6.593-2.3272-1.693-.978v6.134l1.193.689v-1.2869l.5.2889c.98.5661,1.18.3142,1.18-.6319v-2.22A1.9165,1.9165,0,0,0,245.605,291.7905Zm.013,3.534c0,.247-.066.289-.293.1582l-.22-.1272v-2.86l.22.127a.4824.4824,0,0,1,.293.4961Zm-24.036-17.4038-.28,4.6918-.067-.039-.353-5.0569-1.68-.97-.354,4.649-.066-.0381-.28-5.0149-1.16-.67.486,6.4148,1.854,1.07.326-4.6589.067.039.327,5.035,1.853,1.07.487-5.852Zm1.526,7.0148,1.194.689v-6.133l-1.194-.689Zm4.327-3.635-2.767-1.5979v1l.787.4539v5.134l1.193.689v-5.134l.787.455Zm2.073,1.1971v2.633l-.513-.2961V282.2l-1.193-.6889v6.134l1.193.689v-2.5l.513.2961v2.5l1.194.689v-6.1331Zm-25.383-14.6551-2.767-1.5979v1l.787.4539v5.134l1.193.689v-5.134l.787.455Zm2.073,1.1971v2.633l-.513-.2961v-2.6338l-1.193-.6892v6.134l1.193.689v-2.5l.513.2961v2.5l1.194.689v-6.1331Zm3.694,3.132v-1l-2.1-1.2121v6.133l2.1,1.2119v-1l-.907-.5229v-1.5869l.887.5119v-.987l-.887-.512v-1.56Zm3.4,7.096-.527-2.377c.247-.051.4-.269.4-.729v-1.7871a1.9144,1.9144,0,0,0-1.18-1.9939l-1.693-.978v6.133l1.193.689v-1.793l.307.177.426,2.04Zm-1.807-6.1831.22.1272a.4828.4828,0,0,1,.293.4958v1.78c0,.2142-.053.2762-.213.1971l-.3-.166Zm4.173,2.416v-1l-2.1-1.2119v6.133l2.1,1.2129v-1l-.906-.5239v-1.5859l.886.5109v-.986l-.886-.512v-1.56ZM194.075,264.16v-.8662a2.4422,2.4422,0,0,0-1.447-2.149c-.866-.5-1.446-.509-1.446.4781V265.25a2.4424,2.4424,0,0,0,1.446,2.148c.867.5012,1.447.509,1.447-.4778v-2.2732l-1.447-.835v.96l.32.1841v1.3069c0,.247-.113.2551-.293.1511a.5013.5013,0,0,1-.287-.4861v-3.613c0-.2469.114-.2549.26-.17a.5.5,0,0,1,.26.47v.86Zm2.5.3239v-1l-2.1-1.2131v6.1331l2.1,1.2129v-1l-.907-.524v-1.5859l.887.512v-.9871l-.887-.512v-1.56Zm3.133.8089-2.766-1.5979v1l.786.4541v5.1338l1.194.6892v-5.1341l.786.4549Zm-26.626-12.367V252.86c.346.033.44-.18.44-.5661v-.8069a1.9022,1.9022,0,0,0-1.16-1.9829l-1.694-.9781V254.66l1.707.9848c.993.574,1.193.3221,1.193-.624v-.9141A1.6477,1.6477,0,0,0,173.082,252.9255Zm-1.014-2.591a.4832.4832,0,0,1,.294.4961v.966c0,.2469-.067.2888-.294.158l-.206-.12v-1.62Zm.307,3.977c0,.2461-.067.2881-.293.157l-.22-.1269v-1.72l.22.1269a.4839.4839,0,0,1,.293.4961Zm1.593,2.253,1.194.6892v-6.1331l-1.194-.689Zm3.64,2.101,1.134.6551-.854-3.7662.794-2.4018-1.187-.6851-.693,2.0992-.054-.03v-2.5l-1.186-.685v6.133l1.186.6851v-1.66l.26-.717Zm3.534-3.093v-1l-2.1-1.2119v6.1331l2.1,1.2119v-1l-.907-.523v-1.5871l.887.5122v-.9861l-.887-.512v-1.56Zm3.22,2.9932v-.874a2.384,2.384,0,0,0-1.407-2.1192c-.853-.4919-1.413-.4819-1.413.491v.813c0,1.4941,1.666,2.196,1.666,3.0161v.74c0,.247-.106.258-.253.174a.4947.4947,0,0,1-.26-.47v-.8672l-1.147-.6619v.8731a2.3953,2.3953,0,0,0,1.414,2.1228c.86.4961,1.42.4861,1.42-.4868v-.813c0-1.4942-1.674-2.2-1.674-3.02v-.74c0-.2461.107-.2581.254-.1731a.4892.4892,0,0,1,.253.466v.867Zm-27.397-14.9451v-.0662c.347.0332.44-.18.44-.5659v-.8069a1.9025,1.9025,0,0,0-1.16-1.9831l-1.693-.978v6.134l1.706.9851c.994.574,1.194.322,1.194-.624v-.9141A1.6483,1.6483,0,0,0,156.965,243.6206Zm-1.013-2.5911a.4839.4839,0,0,1,.293.4961v.9659c0,.247-.067.289-.293.1582l-.207-.12v-1.62Zm.306,3.9771c0,.2458-.066.2881-.293.157l-.22-.127v-1.72l.22.1269a.4822.4822,0,0,1,.293.4959Zm4.487-2.21-1.193-.6889v4.8728c0,.247-.114.2551-.254.174a.4964.4964,0,0,1-.253-.466v-4.8728l-1.193-.6892v4.88a2.4423,2.4423,0,0,0,1.446,2.1479c.867.501,1.447.5091,1.447-.478Zm.4,6.364,1.1.6351V245.29l.093.0539.42,4.749,1.274.7351.42-4.2641.093.0542v4.5058l1.1.635v-6.133l-1.807-1.043-.406,4.305-.074-.042-.406-4.7749-1.807-1.043Zm6.593-2.3261-1.693-.9781V251.99l1.193.689v-1.2859l.5.2881c.98.5659,1.18.3149,1.18-.6321v-2.22A1.9161,1.9161,0,0,0,167.738,246.8345Zm.014,3.5342c0,.2468-.067.2878-.294.1569l-.22-.1269v-2.86l.22.1269a.484.484,0,0,1,.294.4961Z"/>
          </g>
        </g>
        <path class="cls-3" d="M265,346.4106l-97.5-56.1621v-11.676l97.5,56.291Z"/>
        <g class="cls-10">
          <g>
            <path class="cls-6" d="M229.78,319.9556l-1.035-.597.411-1.3339-1.996,1.2688,1.034.5971-.411,1.334Z"/>
            <path class="cls-4" d="M250.633,332.2v-.0669c.347.034.44-.1789.44-.5659v-.8061a1.9042,1.9042,0,0,0-1.16-1.9839l-1.693-.9771v6.1331l1.707.9861c.993.573,1.193.3218,1.193-.625v-.9131A1.6434,1.6434,0,0,0,250.633,332.2Zm-1.013-2.5918a.4823.4823,0,0,1,.293.4959v.967c0,.2461-.066.2881-.293.157l-.207-.1189v-1.62Zm.307,3.9768c0,.2471-.067.2881-.294.1573l-.22-.1272v-1.72l.22.127a.4845.4845,0,0,1,.294.497Zm1.593,2.2532,1.193.689v-6.1331l-1.193-.6889Zm3.64,2.1021,1.133.6538-.853-3.7659.793-2.4021-1.186-.685-.694,2.1-.053-.0311v-2.5l-1.187-.685v6.133l1.187.6851v-1.66l.26-.7158Zm3.533-3.093v-1l-2.1-1.2132v6.1341l2.1,1.2119v-1l-.906-.524v-1.5859l.886.512v-.9871l-.886-.512v-1.56Zm3.22,2.9919v-.873a2.38,2.38,0,0,0-1.406-2.1189c-.854-.4932-1.414-.4832-1.414.4909v.813c0,1.4929,1.667,2.1951,1.667,3.0149v.74c0,.2471-.107.259-.253.1741a.4906.4906,0,0,1-.26-.47v-.8669l-1.147-.6622v.8741a2.3932,2.3932,0,0,0,1.413,2.122c.86.4969,1.42.4869,1.42-.486v-.814c0-1.4929-1.673-2.199-1.673-3.0191v-.74c0-.2471.107-.2591.253-.1741a.49.49,0,0,1,.254.466v.867Zm-27.396-14.9441v-.0669c.346.0339.44-.1789.44-.5661v-.806a1.9023,1.9023,0,0,0-1.16-1.9829l-1.694-.978v6.1331l1.707.9858c.993.573,1.193.322,1.193-.625v-.9128A1.6461,1.6461,0,0,0,234.517,322.8955Zm-1.014-2.592a.484.484,0,0,1,.294.4961v.967c0,.2471-.067.2878-.294.157l-.206-.1192v-1.62Zm.307,3.977c0,.2471-.067.2881-.293.158l-.22-.127v-1.72l.22.1269a.483.483,0,0,1,.293.4961Zm4.487-2.209-1.194-.6889v4.873c0,.2468-.113.2549-.253.1738a.4976.4976,0,0,1-.253-.4668V321.09l-1.194-.689v4.88a2.4429,2.4429,0,0,0,1.447,2.1489c.867.5,1.447.5081,1.447-.4777Zm.4,6.364,1.1.6351v-4.5071l.093.0542.42,4.7488,1.273.7351.42-4.264.094.054v4.5071l1.1.6347v-6.1328l-1.807-1.0429-.407,4.3049-.073-.043-.407-4.7741-1.806-1.043Zm6.593-2.3269-1.693-.977v6.133l1.193.689v-1.2871l.5.2891c.98.5659,1.18.3139,1.18-.6321v-2.22A1.9163,1.9163,0,0,0,245.29,326.1086Zm.013,3.535c0,.246-.066.288-.293.1569l-.22-.1269v-2.86l.22.1272a.4819.4819,0,0,1,.293.4958Zm-31.986-18.9881v-.0669c.346.034.44-.1789.44-.5661v-.8059a1.9023,1.9023,0,0,0-1.16-1.983l-1.694-.978v6.1331l1.707.9858c.993.573,1.193.322,1.193-.625v-.9128A1.6463,1.6463,0,0,0,213.317,310.6555Zm-1.014-2.592a.484.484,0,0,1,.294.4961v.967c0,.2471-.067.2879-.294.157l-.206-.1191v-1.62Zm.307,3.977c0,.2471-.067.2891-.293.158l-.22-.127v-1.72l.22.1269a.4838.4838,0,0,1,.293.4961Zm4.487-2.209-1.194-.6889v4.873c0,.2469-.113.2549-.253.1739a.4974.4974,0,0,1-.253-.4659V308.85l-1.194-.689v4.88a2.4431,2.4431,0,0,0,1.447,2.149c.867.5,1.447.508,1.447-.4778Zm.4,6.3641,1.1.635v-4.5071l.093.0539.42,4.7491,1.273.736.42-4.2648.094.0539v4.5068l1.1.6351v-6.1329l-1.807-1.0429-.407,4.3049-.073-.042-.407-4.7751-1.806-1.043Zm6.593-2.3269-1.693-.9771v6.1331l1.193.6889v-1.2871l.5.2891c.98.5659,1.18.3149,1.18-.6321v-2.22A1.9161,1.9161,0,0,0,224.09,313.8687Zm.013,3.5349c0,.2461-.066.2881-.293.1569l-.22-.1269v-2.86l.22.1269a.4825.4825,0,0,1,.293.4961Zm-24.036-17.4051-.28,4.6922-.067-.0381-.353-5.0581-1.68-.97-.354,4.65-.066-.0391-.28-5.0151-1.16-.669.486,6.4141,1.854,1.07.326-4.6582.067.0381.327,5.0362,1.853,1.07.487-5.853Zm1.526,7.0152,1.194.6889V301.57l-1.194-.689Zm4.327-3.635-2.767-1.5972v1l.787.4541v5.1331l1.193.6889v-5.133l.787.4541Zm2.073,1.1967v2.6331l-.513-.2959V304.28l-1.193-.6889v6.133l1.193.689v-2.5l.513.2959v2.5l1.194.689v-6.1329ZM182.61,289.9207l-2.767-1.5972v1l.787.4541v5.133l1.193.689v-5.133l.787.4541Zm2.073,1.197v2.6328l-.513-.2959v-2.6331l-1.193-.6889v6.133l1.193.689v-2.5l.513.2959v2.5l1.194.689v-6.1329Zm3.694,3.1318v-1l-2.1-1.2119v6.1331l2.1,1.2128v-1l-.907-.5239v-1.5871l.887.5122v-.9861l-.887-.512v-1.56Zm3.4,7.0972-.527-2.3782c.247-.051.4-.269.4-.729v-1.7869a1.9162,1.9162,0,0,0-1.18-1.9941l-1.693-.978v6.134l1.193.689V298.51l.307.177.426,2.04Zm-1.807-6.1831.22.1269a.4818.4818,0,0,1,.293.4961v1.78c0,.2128-.053.2749-.213.1958l-.3-.1658Zm4.173,2.416v-1l-2.1-1.2131v6.134l2.1,1.2121v-1l-.906-.5231v-1.587l.886.512v-.9871l-.886-.5119v-1.56ZM172.56,286.2385v-.8669a2.4429,2.4429,0,0,0-1.447-2.1489c-.866-.5-1.446-.5081-1.446.4777v3.6272a2.4441,2.4441,0,0,0,1.446,2.149c.867.5,1.447.508,1.447-.4781v-2.2739l-1.447-.835v.96l.32.1851v1.3059c0,.247-.113.2549-.293.1509a.5014.5014,0,0,1-.287-.4859v-3.613c0-.2471.114-.2539.26-.17a.5.5,0,0,1,.26.47v.86Zm2.5.323v-1l-2.1-1.2129v6.1341l2.1,1.2119v-1l-.907-.523v-1.5871l.887.5122V288.11l-.887-.5119v-1.56Zm3.133.8091-2.766-1.5969v1l.786.4538v5.1331l1.194.689v-5.1331l.786.4541Z"/>
          </g>
        </g>
        <path class="cls-3" d="M265,381.0515l-97.5-56.291V313.2136l97.5,56.291Z"/>
        <g class="cls-11">
          <g>
            <path class="cls-6" d="M226.03,352.5725l-1.035-.5969.411-1.334-1.996,1.269,1.034.597-.411,1.334Z"/>
            <path class="cls-4" d="M246.883,364.8176v-.0671c.347.0342.44-.179.44-.5659v-.8059a1.9046,1.9046,0,0,0-1.16-1.9842l-1.693-.977v6.133l1.707.9851c.993.574,1.193.323,1.193-.624v-.9131A1.6427,1.6427,0,0,0,246.883,364.8176Zm-1.013-2.592a.4822.4822,0,0,1,.293.4961v.9668c0,.2461-.066.2881-.293.157l-.207-.1189v-1.62Zm.307,3.977c0,.2469-.067.2879-.294.157l-.22-.1269v-1.72l.22.1271a.4838.4838,0,0,1,.294.4959Zm1.593,2.253,1.193.6889v-6.133l-1.193-.689Zm3.64,2.102,1.133.6541-.853-3.7661.793-2.4021-1.186-.6849-.694,2.1-.053-.031v-2.5l-1.187-.6848v6.1328l1.187.685v-1.66l.26-.716Zm3.533-3.093v-1l-2.1-1.2131v6.133l2.1,1.2132v-1l-.906-.5242v-1.586l.886.512v-.987l-.886-.512v-1.56Zm3.22,2.9919v-.873a2.38,2.38,0,0,0-1.406-2.1189c-.854-.4929-1.414-.4832-1.414.491v.813c0,1.4929,1.667,2.195,1.667,3.0148v.74c0,.2468-.107.2588-.253.1738a.4906.4906,0,0,1-.26-.47v-.8669l-1.147-.6621v.874a2.393,2.393,0,0,0,1.413,2.1221c.86.4971,1.42.487,1.42-.4861v-.814c0-1.4929-1.673-2.1989-1.673-3.019v-.74c0-.2468.107-.259.253-.1738a.49.49,0,0,1,.254.4658v.8672Zm-27.396-14.944v-.0669c.346.0339.44-.179.44-.566v-.8061a1.9042,1.9042,0,0,0-1.16-1.9839l-1.694-.9771v6.1331l1.707.9858c.993.573,1.193.3221,1.193-.625v-.9128A1.6459,1.6459,0,0,0,230.767,355.5125Zm-1.014-2.5918a.4829.4829,0,0,1,.294.4958v.967c0,.2461-.067.2881-.294.157l-.206-.1189v-1.62Zm.307,3.9768c0,.247-.067.288-.293.1569l-.22-.1269v-1.72l.22.127a.485.485,0,0,1,.293.497Zm4.487-2.209L233.353,354v4.8731c0,.247-.113.2539-.253.174a.498.498,0,0,1-.253-.467v-4.8731l-1.194-.6889v4.88a2.4433,2.4433,0,0,0,1.447,2.1491c.867.5,1.447.5078,1.447-.478Zm.4,6.364,1.1.635v-4.5068l.093.0539.42,4.749,1.273.7349.42-4.2639.094.0539v4.5071l1.1.635v-6.133l-1.807-1.044-.407,4.3059-.073-.0429-.407-4.774-1.806-1.0441Zm6.593-2.3269-1.693-.9771v6.1331l1.193.689v-1.2872l.5.2891c.98.5662,1.18.314,1.18-.6318v-2.22A1.9164,1.9164,0,0,0,241.54,358.7256Zm.013,3.5349c0,.2461-.066.2881-.293.157l-.22-.127v-2.86l.22.1269a.4822.4822,0,0,1,.293.4959Zm-31.986-18.988v-.0669c.346.0339.44-.179.44-.566v-.8061a1.9022,1.9022,0,0,0-1.16-1.9829l-1.694-.978v6.133l1.707.9859c.993.573,1.193.322,1.193-.625v-.9129A1.6459,1.6459,0,0,0,209.567,343.2725Zm-1.014-2.5918a.4836.4836,0,0,1,.294.4958v.9671c0,.247-.067.288-.294.1569l-.206-.1189v-1.62Zm.307,3.9768c0,.247-.067.289-.293.1582l-.22-.1272v-1.72l.22.127a.4838.4838,0,0,1,.293.4961Zm4.487-2.209-1.194-.689v4.8731c0,.247-.113.2549-.253.174a.4974.4974,0,0,1-.253-.466v-4.874l-1.194-.689v4.88a2.4433,2.4433,0,0,0,1.447,2.1491c.867.5,1.447.5079,1.447-.478Zm.4,6.364,1.1.635v-4.5068l.093.0539.42,4.7491,1.273.7358.42-4.2649.094.054v4.507l1.1.635v-6.133l-1.807-1.043-.407,4.305-.073-.042-.407-4.7749-1.806-1.0433Zm6.593-2.3269-1.693-.9771v6.1331l1.193.689v-1.2871l.5.289c.98.5662,1.18.315,1.18-.6321v-2.22A1.9162,1.9162,0,0,0,220.34,346.4856Zm.013,3.5349c0,.2461-.066.2881-.293.157l-.22-.127v-2.86l.22.1269a.4823.4823,0,0,1,.293.4959Zm-24.036-17.405-.28,4.6921-.067-.0381-.353-5.0578-1.68-.97-.354,4.65-.066-.0391-.28-5.0149-1.16-.67.486,6.415,1.854,1.07.326-4.658.067.0379.327,5.0361,1.853,1.07.487-5.8531Zm1.526,7.0151,1.194.689v-6.1331l-1.194-.6889Zm4.327-3.635-2.767-1.5969v1l.787.4538v5.1331l1.193.689v-5.1331l.787.4541Zm2.073,1.197v2.6328l-.513-.2959v-2.633l-1.193-.689v6.1331l1.193.6889v-2.5l.513.2959v2.5l1.194.6892v-6.133Zm-25.383-14.655-2.767-1.5969v1l.787.4538v5.1331l1.193.689v-5.1331l.787.4541Zm2.073,1.197v2.6331l-.513-.2962v-2.633l-1.193-.689v6.1331l1.193.6889v-2.5l.513.2962v2.5l1.194.6889v-6.133Zm3.694,3.1319v-1l-2.1-1.212v6.1331l2.1,1.2129v-1l-.907-.5239V328.89l.887.512v-.9861l-.887-.5119v-1.56Zm3.4,7.0971-.527-2.3782c.247-.0507.4-.2687.4-.729V329.07a1.9162,1.9162,0,0,0-1.18-1.9942l-1.693-.9777v6.1337l1.193.6883v-1.7932l.307.177.426,2.04ZM186.22,327.78l.22.127a.4837.4837,0,0,1,.293.4971v1.78c0,.2129-.053.2749-.213.196l-.3-.166Zm4.173,2.417v-1l-2.1-1.2129v6.1341l2.1,1.2119v-1l-.906-.5239V332.22l.886.5119v-.9868l-.886-.5119v-1.56Zm-21.583-11.342v-.866a2.4431,2.4431,0,0,0-1.447-2.1489c-.866-.5-1.446-.5081-1.446.478v3.627a2.4438,2.4438,0,0,0,1.446,2.1489c.867.5,1.447.5081,1.447-.479v-2.2729l-1.447-.835v.96l.32.185v1.3059c0,.2471-.113.2551-.293.1511a.5014.5014,0,0,1-.287-.486V317.01c0-.247.114-.2539.26-.17a.5.5,0,0,1,.26.47v.86Zm2.5.324v-1l-2.1-1.2129V323.1l2.1,1.2119v-1l-.907-.5229v-1.5869l.887.5119v-.987l-.887-.512v-1.56Zm3.133.809-2.766-1.5969v1l.786.4539v5.133l1.194.689v-5.1331l.786.4541Z"/>
          </g>
        </g>
        <path class="cls-12" d="M275,311.77l60-34.6408V265.5815l-60,34.6412Z"/>
        <g class="cls-13">
          <g>
            <path class="cls-14" d="M307.569,287.38l-.755.4361.299-1.2241-1.457,2.4609.755-.436-.299,1.2241Z"/>
            <path class="cls-4" d="M328.601,275.2585v-.0668a1.4215,1.4215,0,0,0,.44-1.074v-.8062c0-.947-.2-1.198-1.16-.644l-1.693.978v6.1331l1.707-.9851a1.9261,1.9261,0,0,0,1.193-2.003v-.9131C329.088,275.45,328.955,275.2346,328.601,275.2585Zm-1.013-1.4218c.227-.1311.293-.0891.293.1579v.9658a.4824.4824,0,0,1-.293.4961l-.207.12v-1.62Zm.307,3.6228a.4833.4833,0,0,1-.294.4961l-.22.1269v-1.72l.22-.1269c.227-.1311.294-.0891.294.158Zm1.593.414,1.193-.6889v-6.1341l-1.193.689Zm3.64-2.102,1.133-.6538-.853-2.781.793-3.3181-1.186.685-.694,2.9009-.053.03v-2.5l-1.187.6851v6.134l1.187-.685v-1.66l.26-1.017Zm3.533-7.1729v-1l-2.1,1.2119v6.1341l2.1-1.2132v-1l-.906.5242v-1.5871l.886-.512V270.17l-.886.5119v-1.56Zm.4.0288v.8133q0,1.4937.007,1.9228v.8731C337.068,273.21,337.061,267.6545,337.061,268.6274Zm-24.576,15.9361v-.0669a1.4248,1.4248,0,0,0,.44-1.074v-.8061c0-.9468-.2-1.198-1.16-.6438l-1.694.9777v6.1331l1.707-.9849a1.9261,1.9261,0,0,0,1.193-2.0031v-.9129C312.971,284.7556,312.838,284.54,312.485,284.5635Zm-1.014-1.4219c.227-.1311.294-.0891.294.158v.966a.483.483,0,0,1-.294.4959l-.206.12v-1.62Zm.307,3.623a.4835.4835,0,0,1-.293.4959l-.22.127v-1.72l.22-.127c.226-.1308.293-.0888.293.158Zm4.487-7.39-1.194.689v4.873a.4955.4955,0,0,1-.253.4661c-.14.081-.253.073-.253-.1731v-4.874l-1.194.6892v4.88c0,.987.58.979,1.447.478a2.4419,2.4419,0,0,0,1.447-2.148Zm.4,5.9021,1.1-.635v-4.5071l.093-.053.42,4.264,1.273-.7349.42-4.75.094-.053v4.5059l1.1-.635v-6.1328l-1.807,1.0429-.407,4.7749-.073.042-.407-4.3049-1.806,1.043Zm6.593-9.94-1.693.9778v6.133l1.193-.689v-1.2858l.5-.2891a1.9165,1.9165,0,0,0,1.18-1.9951v-2.22C324.438,275.0225,324.238,274.7705,323.258,275.3367Zm.013,3.5188a.4825.4825,0,0,1-.293.4961l-.22.1269v-2.86l.22-.1272c.227-.1309.293-.0889.293.1582Zm-31.986,17.948v-.0669a1.4248,1.4248,0,0,0,.44-1.074v-.8071c0-.9458-.2-1.198-1.16-.6429l-1.694.9769v6.134l1.707-.9859a1.9243,1.9243,0,0,0,1.193-2.0022v-.9128C291.771,296.9956,291.638,296.78,291.285,296.8035Zm-1.014-1.4219c.227-.1311.294-.0891.294.157v.967a.4831.4831,0,0,1-.294.4959l-.206.1191v-1.62Zm.307,3.623a.4835.4835,0,0,1-.293.4959l-.22.1269v-1.72l.22-.127c.226-.1308.293-.0888.293.157Zm4.487-7.39-1.194.689v4.873a.4966.4966,0,0,1-.253.4661c-.14.081-.253.073-.253-.1741v-4.873l-1.194.6892v4.88c0,.987.58.979,1.447.478a2.4419,2.4419,0,0,0,1.447-2.148Zm.4,5.9021,1.1-.635v-4.5071l.093-.0539.42,4.2648,1.273-.7358.42-4.749.094-.054v4.5069l1.1-.635v-6.1329l-1.807,1.043-.407,4.7749-.073.042-.407-4.3049-1.806,1.0429Zm6.593-9.94-1.693.9777v6.1331l1.193-.689v-1.2868l.5-.2881a1.9165,1.9165,0,0,0,1.18-1.9951v-2.22C303.238,287.2615,303.038,287.0105,302.058,287.5767Zm.013,3.5188a.4826.4826,0,0,1-.293.4961l-.22.1269v-2.86l.22-.1272c.227-.1308.293-.0888.293.1573Zm-24.036,10.351-.28,5.0152-.067.0378-.353-4.6489-1.68.97-.354,5.0568-.066.0391-.28-4.6919-1.16.67.486,5.8521,1.854-1.07.326-5.0349.067-.0391.327,4.659,1.853-1.07.487-6.4151Zm1.526,5.252,1.194-.689v-6.133l-1.194.6892Zm4.327-8.6309-2.767,1.597v1l.787-.4542v5.1331l1.193-.689v-5.133l.787-.4539Zm2.073-1.198v2.6341l-.513.2959v-2.6331l-1.193.689v6.133l1.193-.6889v-2.5l.513-.2959v2.5l1.194-.6892v-6.1338Z"/>
          </g>
        </g>
        <path class="cls-12" d="M275,346.4106,335,311.77V300.2227l-60,34.6408Z"/>
        <g class="cls-15">
          <g>
            <path class="cls-14" d="M310.444,319.9375l-.755.4351.299-1.2229-1.457,2.4609.755-.436-.299,1.2229Z"/>
            <path class="cls-4" d="M325.885,308.2847l-2.767,1.5979v1l.787-.4551v5.134l1.193-.6889v-5.1341l.787-.4538Zm2.073-1.1971v2.6329l-.513.2971v-2.6331l-1.194.689v6.133l1.194-.6889v-2.5l.513-.2971v2.5l1.193-.688v-6.1338Zm3.693-1.132v-1l-2.1,1.2119v6.134l2.1-1.2129v-1l-.906.5239v-1.5869l.886-.5119v-.9871l-.886.512v-1.56Zm3.4,3.17-.526-1.7691a1.9792,1.9792,0,0,0,.4-1.1909v-1.7868c0-.9461-.2-1.198-1.18-.6321l-1.694.978v6.1331l1.194-.6892v-1.793l.306-.177.427,1.5471Zm-1.806-4.0969.22-.127c.226-.1311.293-.0891.293.158v1.78a.4577.4577,0,0,1-.213.4429l-.3.18Zm-17.41,11.1789v-.8669c0-.9871-.58-.979-1.447-.4781a2.442,2.442,0,0,0-1.447,2.148v3.627c0,.987.58.979,1.447.478a2.4417,2.4417,0,0,0,1.447-2.148v-2.2739l-1.447.835v.96l.32-.1841v1.3062a.5188.5188,0,0,1-.293.49c-.187.1079-.287.092-.287-.155v-3.6131a.4983.4983,0,0,1,.26-.47c.147-.0849.26-.0769.26.17v.86Zm2.5-2.5639v-1l-2.1,1.2128V319.99l2.1-1.2119v-1l-.907.5229v-1.5869l.887-.5119v-.9861l-.887.5119v-1.56Zm3.133-2.8091-2.767,1.5981v1l.787-.4551v5.1341l1.193-.689v-5.134l.787-.4541Zm-26.627,18.38v-.0671a1.4213,1.4213,0,0,0,.44-1.074v-.8069c0-.946-.2-1.197-1.16-.6431l-1.693.9771v6.134l1.707-.9861a1.924,1.924,0,0,0,1.193-2.0019v-.9131C295.328,329.4065,295.195,329.1907,294.841,329.2146Zm-1.013-1.4221c.227-.1309.293-.0889.293.157v.967a.4824.4824,0,0,1-.293.4961l-.207.1189v-1.62Zm.307,3.623a.4832.4832,0,0,1-.294.4961l-.22.127v-1.72l.22-.1269c.227-.1312.294-.0892.294.1569Zm1.593.4131,1.193-.688v-6.134l-1.193.689Zm3.64-2.1011,1.133-.654-.853-2.781.793-3.3179-1.186.6851-.694,2.9-.053.031v-2.5l-1.187.685V330.91l1.187-.6861v-1.66l.26-1.0159Zm3.533-7.1731v-1l-2.1,1.2122V328.9l2.1-1.2122v-1l-.906.5229v-1.5859l.886-.512v-.987l-.886.512v-1.56Zm3.22-.7258v-.873c0-.9742-.546-.991-1.406-.4952a2.4018,2.4018,0,0,0-1.414,2.1231v.813c0,1.4931,1.667.271,1.667,1.091v.74a.4893.4893,0,0,1-.253.4661c-.154.0889-.26.0769-.26-.17v-.8662l-1.147.6621v.873c0,.9739.553.9868,1.413.491a2.4074,2.4074,0,0,0,1.42-2.127v-.8129c0-1.4932-1.673-.2671-1.673-1.0872v-.74a.49.49,0,0,1,.253-.4661c.147-.0849.254-.073.254.1731v.867ZM278.725,338.52v-.0669a1.425,1.425,0,0,0,.44-1.0739v-.8072c0-.946-.2-1.198-1.16-.643l-1.694.977V343.04l1.707-.9861a1.9242,1.9242,0,0,0,1.193-2.002v-.9128C279.211,338.7117,279.078,338.4956,278.725,338.52Zm-1.014-1.4218c.227-.1311.294-.0892.294.1569v.9671a.4829.4829,0,0,1-.294.4958l-.206.1192v-1.62Zm.307,3.6228a.4839.4839,0,0,1-.293.4961l-.22.1269v-1.72l.22-.1269c.226-.1311.293-.0891.293.157Zm4.487-7.39-1.194.6889v4.8731a.4964.4964,0,0,1-.253.466c-.14.0809-.253.073-.253-.174v-4.8731l-1.194.689v4.88c0,.9871.58.979,1.447.478a2.442,2.442,0,0,0,1.447-2.1482Zm.4,5.9021,1.1-.635v-4.5071l.093-.054.42,4.2649,1.273-.7358.42-4.749.094-.0542v4.507l1.1-.635v-6.133l-1.807,1.0432-.407,4.7749-.073.042-.407-4.305-1.806,1.043Zm6.593-9.94-1.693.978v6.1331l1.193-.689v-1.2871l.5-.2879a1.9166,1.9166,0,0,0,1.18-1.9951v-2.22C290.678,328.9775,290.478,328.7266,289.498,329.2925Zm.013,3.519a.4824.4824,0,0,1-.293.4961l-.22.127v-2.86l.22-.127c.227-.1308.293-.0889.293.157Z"/>
          </g>
        </g>
        <path class="cls-12" d="M275,381.0515l60-34.6409V334.8635l-60,34.6411Z"/>
        <g class="cls-16">
          <g>
            <path class="cls-14" d="M307.569,356.6616l-.755.4361.299-1.2242-1.457,2.461.755-.4358-.299,1.2239Z"/>
            <path class="cls-4" d="M328.601,344.5405v-.0669a1.42,1.42,0,0,0,.44-1.0739v-.8062c0-.947-.2-1.198-1.16-.644l-1.693.978v6.133l1.707-.9851a1.9259,1.9259,0,0,0,1.193-2.0029V345.16C329.088,344.7327,328.955,344.5166,328.601,344.5405Zm-1.013-1.4218c.227-.13.293-.0892.293.1579v.9661a.4814.4814,0,0,1-.293.4958l-.207.12v-1.62Zm.307,3.6228a.4822.4822,0,0,1-.294.496l-.22.127v-1.72l.22-.1269c.227-.13.294-.0891.294.1579Zm1.593.414,1.193-.6889v-6.1331l-1.193.689Zm3.64-2.102,1.133-.6538-.853-2.781.793-3.3182-1.186.6851-.694,2.9009-.053.03v-2.5l-1.187.686v6.1331l1.187-.6851v-1.66l.26-1.0171Zm3.533-7.1729v-1l-2.1,1.2119v6.1341l2.1-1.2129v-1l-.906.5239V340.95l.886-.5119v-.9859l-.886.511v-1.56Zm.4.0291v.813q0,1.4937.007,1.9228v.874C337.068,342.4927,337.061,336.9365,337.061,337.91Zm-24.576,15.9358v-.0669a1.4234,1.4234,0,0,0,.44-1.074v-.8059c0-.947-.2-1.1983-1.16-.6441l-1.694.9781v6.1328l1.707-.9849a1.9263,1.9263,0,0,0,1.193-2.0032v-.9128C312.971,354.0376,312.838,353.8215,312.485,353.8455Zm-1.014-1.4219c.227-.13.294-.0891.294.1579v.9661a.4821.4821,0,0,1-.294.4959l-.206.12v-1.62Zm.307,3.623a.4828.4828,0,0,1-.293.4959l-.22.1272v-1.72l.22-.127c.226-.13.293-.0889.293.158Zm4.487-7.39-1.194.689v4.873a.498.498,0,0,1-.253.467c-.14.08-.253.0721-.253-.174v-4.874l-1.194.6892v4.88c0,.9871.58.979,1.447.479a2.4429,2.4429,0,0,0,1.447-2.1489Zm.4,5.9021,1.1-.635v-4.5061l.093-.054.42,4.2639,1.273-.7348.42-4.749.094-.054v4.5059l1.1-.6351v-6.1328l-1.807,1.043-.407,4.7749-.073.042-.407-4.3049-1.806,1.0429Zm6.593-9.94-1.693.978V351.73l1.193-.689v-1.2859l.5-.289a1.9165,1.9165,0,0,0,1.18-1.9951v-2.22C324.438,344.3044,324.238,344.0535,323.258,344.6187Zm.013,3.5188a.4814.4814,0,0,1-.293.496l-.22.127v-2.86l.22-.1269c.227-.13.293-.0891.293.1579Zm-31.986,17.9479v-.0668a1.425,1.425,0,0,0,.44-1.074v-.8059c0-.947-.2-1.198-1.16-.6441l-1.694.9781v6.1328l1.707-.9849a1.9261,1.9261,0,0,0,1.193-2.0029v-.9131C291.771,366.2776,291.638,366.0615,291.285,366.0854Zm-1.014-1.4218c.227-.1311.294-.0891.294.1579v.9661a.4826.4826,0,0,1-.294.4958l-.206.12v-1.62Zm.307,3.623a.4836.4836,0,0,1-.293.4959l-.22.1272v-1.72l.22-.127c.226-.1309.293-.0889.293.158Zm4.487-7.39-1.194.6889v4.8731a.4955.4955,0,0,1-.253.4661c-.14.081-.253.073-.253-.1731v-4.8741l-1.194.6893v4.88c0,.9871.58.979,1.447.4781a2.4419,2.4419,0,0,0,1.447-2.148Zm.4,5.9021,1.1-.635v-4.5071l.093-.053.42,4.2642,1.273-.7351.42-4.75.094-.053v4.5058l1.1-.635v-6.1328l-1.807,1.043-.407,4.7749-.073.042-.407-4.3049-1.806,1.0429Zm6.593-9.94-1.693.9781V363.97l1.193-.689v-1.2859l.5-.289a1.9166,1.9166,0,0,0,1.18-1.9952v-2.22C303.238,356.5447,303.038,356.2925,302.058,356.8586Zm.013,3.5188a.4822.4822,0,0,1-.293.4961l-.22.127v-2.86l.22-.1269c.227-.1311.293-.0891.293.1579Zm-24.036,10.3511-.28,5.0152-.067.0388-.353-4.65-1.68.97-.354,5.0581-.066.0379-.28-4.6919-1.16.67.486,5.8521,1.854-1.07.326-5.0349.067-.0381.327,4.658,1.853-1.07.487-6.415Zm1.526,5.252,1.194-.689v-6.1331l-1.194.6893Zm4.327-8.6309-2.767,1.5969v1l.787-.4538v5.1328l1.193-.689v-5.133l.787-.4539Zm2.073-1.197v2.633l-.513.2959v-2.633l-1.193.689v6.133l1.193-.689v-2.5l.513-.2959v2.5l1.194-.6889v-6.1331Z"/>
          </g>
        </g>
      </g>
      <path class="cls-6" d="M262.936,373.8845l-1.034-.5969.41-1.334-1.996,1.2691,1.034.5969-.41,1.334Z"/>
    </g>
  </g>
</svg>
