<svg id="Layer_1" data-name="Layer 1" xmlns="http://www.w3.org/2000/svg" viewBox="0 0 270 427.24">
  <defs>
    <style>
      .exterior-L-prim {
        fill: #73302f;
      }

      .exterior-R-prim {
        fill: #d15752;
      }

      .top-prim {
        fill: #dd8987;
      }

      .window-R-prim {
        fill: #bd9563;
      }

      .window-L-prim {
        fill: #4d3b25;
      }
    </style>
  </defs>
  <title>Artboard 6</title>
  <g>
    <path class="exterior-L-prim" d="M110,155.88,0,92.37V363.73l110,63.51Zm-85,205v5.77L10,358V340.63l15,8.66ZM25,332v5.78l-15-8.66V311.77l5,2.88h0l10,5.77Zm0-28.86v5.77l-15-8.66V282.9l5,2.88h0l10,5.77Zm0-28.87V280l-15-8.66V254l15,8.66Zm0-28.87v5.77l-15-8.66V225.16l15,8.66Zm0-28.87v5.78l-15-8.66V196.3l5,2.88h0L25,205Zm0-28.86v5.77l-15-8.66V167.43l5,2.88h0l10,5.77Zm0-28.87v5.77l-15-8.66V138.56l15,8.66Zm0-28.87v5.77L10,127V109.69l15,8.66ZM50,375.27v5.78l-15-8.66V355.07L40,358h0l10,5.77Zm0-28.86v5.77l-15-8.66V326.2l15,8.66Zm0-28.87v5.77l-15-8.66V297.33L50,306Zm0-28.87v5.78l-15-8.67V268.46l15,8.66Zm0-28.87v5.78l-15-8.66V239.6l5,2.88h0l10,5.77Zm0-28.86v5.77l-15-8.66V210.73l15,8.66Zm0-28.87v5.77l-15-8.66V181.86l15,8.66Zm0-28.87V179l-15-8.67V153l15,8.66Zm0-28.87v5.78l-15-8.66V124.13L40,127h0l10,5.77ZM75,389.71v5.77l-15-8.66V369.5l15,8.66Zm0-28.87v5.77L60,358V340.63l15,8.66ZM75,332v5.78l-15-8.66V311.77l5,2.88h0l10,5.77Zm0-28.86v5.77l-15-8.66V282.9l5,2.88h0l10,5.77Zm0-28.87V280l-15-8.66V254l15,8.66Zm0-28.87v5.77l-15-8.66V225.16l15,8.66Zm0-28.87v5.78l-15-8.66V196.3l5,2.88h0L75,205Zm0-28.86v5.77l-15-8.66V167.43l5,2.88h0l10,5.77Zm0-28.87v5.77l-15-8.66V138.56l15,8.66Zm25,245.37v5.78l-15-8.66V383.93l15,8.66Zm0-28.87v5.78l-15-8.66V355.07L90,358h0l10,5.77Zm0-28.86v5.77l-15-8.66V326.2l15,8.66Zm0-28.87v5.77l-15-8.66V297.33L100,306Zm0-28.87v5.78l-15-8.67V268.46l15,8.66Zm0-28.87v5.78l-15-8.66V239.6l5,2.88h0l10,5.77Zm0-28.86v5.77l-15-8.66V210.73l15,8.66Zm0-28.87v5.77l-15-8.66V181.86l15,8.66Zm0-28.87V179l-15-8.67V153l15,8.66Z"/>
    <path class="exterior-R-prim" d="M110,427.24l160-92.38V63.51L110,155.88ZM245,101V89.49l10-5.77h0l5-2.88V98.15l-15,8.66Zm0,28.87V118.35l15-8.66V127l-15,8.66Zm0,28.87V147.22l15-8.66v17.32l-15,8.66Zm0,28.87V176.09l10-5.77h0l5-2.88v17.32l-15,8.66Zm0,28.86V205l10-5.77h0l5-2.88v17.32l-15,8.66Zm0,28.87V233.82l15-8.66v17.32l-15,8.66Zm0,28.87V262.69L260,254v17.32L245,280Zm0,28.87V291.56l10-5.77h0l5-2.88v17.32l-15,8.66ZM245,332V320.43l10-5.77h0l5-2.88V329.1l-15,8.66ZM220,115.5V103.92l15-8.66v17.32l-15,8.66Zm0,28.86V132.79L230,127h0l5-2.88v17.32l-15,8.66Zm0,28.87V161.65L235,153v17.32L220,179Zm0,28.87V190.52l15-8.66v17.32l-15,8.66Zm0,28.87V219.39l15-8.66v17.32l-15,8.66Zm0,28.86V248.26l10-5.77h0l5-2.88v17.32l-15,8.66Zm0,28.87V277.12l15-8.66v17.32l-15,8.67Zm0,28.87V306l15-8.66v17.32l-15,8.66Zm0,28.87V334.86l15-8.66v17.32l-15,8.66ZM195,129.9V118.35l15-8.66V127l-15,8.66Zm0,28.87V147.22l15-8.66v17.32l-15,8.66Zm0,28.87V176.09l10-5.77h0l5-2.88v17.32l-15,8.66Zm0,28.86V205l10-5.77h0l5-2.88v17.32l-15,8.66Zm0,28.87V233.82l15-8.66v17.32l-15,8.66Zm0,28.87V262.69L210,254v17.32L195,280Zm0,28.87V291.56l10-5.77h0l5-2.88v17.32l-15,8.66ZM195,332V320.43l10-5.77h0l5-2.88V329.1l-15,8.66Zm0,28.87V349.29l15-8.66V358l-15,8.66ZM170,144.33V132.79L180,127h0l5-2.88v17.32l-15,8.66Zm0,28.87V161.65L185,153v17.32L170,179Zm0,28.87V190.52l15-8.66v17.32l-15,8.66Zm0,28.87V219.39l15-8.66v17.32l-15,8.66Zm0,28.86V248.26l10-5.77h0l5-2.88v17.32l-15,8.66Zm0,28.87V277.12l15-8.66v17.32l-15,8.67Zm0,28.87V306l15-8.66v17.32l-15,8.66Zm0,28.87V334.86l15-8.66v17.32l-15,8.66Zm0,28.86V363.73L180,358h0l5-2.88v17.32l-15,8.66Zm-25-216.5V147.22l15-8.66v17.32l-15,8.66Zm0,28.87V176.09l10-5.77h0l5-2.88v17.32l-15,8.66Zm0,28.86V205l10-5.77h0l5-2.88v17.32l-15,8.66Zm0,28.87V233.82l15-8.66v17.32l-15,8.66Zm0,28.87V262.69L160,254v17.32L145,280Zm0,28.87V291.56l10-5.77h0l5-2.88v17.32l-15,8.66ZM145,332V320.43l10-5.77h0l5-2.88V329.1l-15,8.66Zm0,28.87V349.29l15-8.66V358l-15,8.66Zm0,28.87V378.16l15-8.66v17.32l-15,8.66ZM120,173.2V161.65L135,153v17.32L120,179Zm0,28.87V190.52l15-8.66v17.32l-15,8.66Zm0,28.87V219.39l15-8.66v17.32l-15,8.66Zm0,28.86V248.26l10-5.77h0l5-2.88v17.32l-15,8.66Zm0,28.87V277.12l15-8.66v17.32l-15,8.67Zm0,28.87V306l15-8.66v17.32l-15,8.66Zm0,28.87V334.86l15-8.66v17.32l-15,8.66Zm0,28.86V363.73L130,358h0l5-2.88v17.32l-15,8.66Zm0,28.87V392.59l15-8.66v17.33l-15,8.66Z"/>
    <polygon id="anchor-01_271.36" data-name="anchor-01 271.36" class="top-prim" points="270 63.51 160 0 0 92.37 110 155.88 270 63.51"/>
    <polygon class="window-R-prim" points="130 155.88 135 152.99 120 161.65 120 173.2 130 167.43 130 155.88"/>
    <polygon class="window-R-prim" points="180 127.02 170 132.79 170 144.33 180 138.56 180 127.02"/>
    <polygon class="window-R-prim" points="230 98.15 235 95.26 220 103.92 220 115.47 230 109.69 230 98.15"/>
    <polygon class="window-R-prim" points="155 141.45 160 138.56 145 147.22 145 158.77 155 152.99 155 141.45"/>
    <polygon class="window-R-prim" points="205 112.58 210 109.69 195 118.35 195 129.9 205 124.13 205 112.58"/>
    <polygon class="window-R-prim" points="255 83.72 245 89.49 245 101.03 255 95.26 255 83.72"/>
    <polygon class="top-prim" points="130 167.43 120 173.2 120 178.98 135 170.31 130 167.43"/>
    <polygon class="top-prim" points="155 152.99 145 158.77 145 164.54 160 155.88 155 152.99"/>
    <polygon class="top-prim" points="180 138.56 170 144.33 170 150.11 185 141.45 180 138.56"/>
    <polygon class="top-prim" points="205 124.13 195 129.9 195 135.67 210 127.01 205 124.13"/>
    <polygon class="top-prim" points="230 109.69 220 115.47 220 121.24 235 112.58 230 109.69"/>
    <polygon class="top-prim" points="255 95.26 245 101.03 245 106.81 260 98.15 255 95.26"/>
    <polygon class="exterior-L-prim" points="130 167.43 135 170.31 135 152.99 130 155.88 130 167.43"/>
    <polygon class="exterior-L-prim" points="155 152.99 160 155.88 160 138.56 155 141.45 155 152.99"/>
    <polygon class="exterior-L-prim" points="185 141.45 185 124.13 180 127.01 180 127.02 180 138.56 185 141.45"/>
    <polygon class="exterior-L-prim" points="205 124.13 210 127.01 210 109.69 205 112.58 205 124.13"/>
    <polygon class="exterior-L-prim" points="230 109.69 235 112.58 235 95.26 230 98.15 230 109.69"/>
    <polygon class="exterior-L-prim" points="260 98.15 260 80.83 255 83.71 255 83.72 255 95.26 260 98.15"/>
    <polygon class="window-L-prim" points="90 155.88 90 167.43 100 173.2 100 161.65 85 152.99 90 155.88"/>
    <polygon class="window-L-prim" points="40 138.56 50 144.33 50 132.79 40 127.02 40 138.56"/>
    <polygon class="window-L-prim" points="65 141.45 65 152.99 75 158.77 75 147.22 60 138.56 65 141.45"/>
    <polygon class="window-L-prim" points="15 112.58 15 124.13 25 129.9 25 118.35 10 109.69 15 112.58"/>
    <polygon class="top-prim" points="85 170.31 100 178.98 100 173.2 90 167.43 85 170.31"/>
    <polygon class="top-prim" points="60 155.88 75 164.54 75 158.77 65 152.99 60 155.88"/>
    <polygon class="top-prim" points="35 141.45 50 150.11 50 144.33 40 138.56 35 141.45"/>
    <polygon class="top-prim" points="10 127.01 25 135.67 25 129.9 15 124.13 10 127.01"/>
    <polygon class="exterior-R-prim" points="90 155.88 85 152.99 85 170.31 90 167.43 90 155.88"/>
    <polygon class="exterior-R-prim" points="65 141.45 60 138.56 60 155.88 65 152.99 65 141.45"/>
    <polygon class="exterior-R-prim" points="40 127.02 40 127.01 35 124.13 35 141.45 40 138.56 40 127.02"/>
    <polygon class="exterior-R-prim" points="15 112.58 10 109.69 10 127.01 15 124.13 15 112.58"/>
    <polygon class="window-L-prim" points="90 213.62 90 225.16 100 230.94 100 219.39 85 210.73 90 213.62"/>
    <polygon class="window-L-prim" points="40 184.75 40 196.3 50 202.07 50 190.52 35 181.86 40 184.75"/>
    <polygon class="window-L-prim" points="65 210.73 75 216.5 75 204.96 65 199.19 65 210.73"/>
    <polygon class="window-L-prim" points="15 181.86 25 187.64 25 176.09 15 170.32 15 181.86"/>
    <polygon class="top-prim" points="85 228.05 100 236.71 100 230.94 90 225.16 85 228.05"/>
    <polygon class="top-prim" points="60 213.62 75 222.28 75 216.5 65 210.73 60 213.62"/>
    <polygon class="top-prim" points="35 199.18 50 207.84 50 202.07 40 196.3 35 199.18"/>
    <polygon class="top-prim" points="10 184.75 25 193.41 25 187.64 15 181.86 10 184.75"/>
    <polygon class="exterior-R-prim" points="90 213.62 85 210.73 85 228.05 90 225.16 90 213.62"/>
    <polygon class="exterior-R-prim" points="65 199.19 65 199.18 60 196.3 60 213.62 65 210.73 65 199.19"/>
    <polygon class="exterior-R-prim" points="40 184.75 35 181.86 35 199.18 40 196.3 40 184.75"/>
    <polygon class="exterior-R-prim" points="15 170.32 15 170.31 10 167.43 10 184.75 15 181.86 15 170.32"/>
    <polygon class="window-L-prim" points="90 271.35 90 282.9 100 288.67 100 277.12 85 268.46 90 271.35"/>
    <polygon class="window-L-prim" points="40 254.03 50 259.8 50 248.26 40 242.49 40 254.03"/>
    <polygon class="window-L-prim" points="65 256.92 65 268.46 75 274.24 75 262.69 60 254.03 65 256.92"/>
    <polygon class="window-L-prim" points="15 228.05 15 239.6 25 245.37 25 233.82 10 225.16 15 228.05"/>
    <polygon class="top-prim" points="85 285.78 100 294.45 100 288.67 90 282.9 85 285.78"/>
    <polygon class="top-prim" points="60 271.35 75 280.01 75 274.24 65 268.46 60 271.35"/>
    <polygon class="top-prim" points="35 256.92 50 265.58 50 259.8 40 254.03 35 256.92"/>
    <polygon class="top-prim" points="10 242.48 25 251.14 25 245.37 15 239.6 10 242.48"/>
    <polygon class="exterior-R-prim" points="90 271.35 85 268.46 85 285.78 90 282.9 90 271.35"/>
    <polygon class="exterior-R-prim" points="65 256.92 60 254.03 60 271.35 65 268.46 65 256.92"/>
    <polygon class="exterior-R-prim" points="40 242.49 40 242.48 35 239.6 35 256.92 40 254.03 40 242.49"/>
    <polygon class="exterior-R-prim" points="15 228.05 10 225.16 10 242.48 15 239.6 15 228.05"/>
    <polygon class="window-L-prim" points="90 329.09 90 340.63 100 346.41 100 334.86 85 326.2 90 329.09"/>
    <polygon class="window-L-prim" points="40 300.22 40 311.77 50 317.54 50 305.99 35 297.33 40 300.22"/>
    <polygon class="window-L-prim" points="65 326.2 75 331.97 75 320.43 65 314.66 65 326.2"/>
    <polygon class="window-L-prim" points="15 297.33 25 303.11 25 291.56 15 285.79 15 297.33"/>
    <polygon class="top-prim" points="85 343.52 100 352.18 100 346.41 90 340.63 85 343.52"/>
    <polygon class="top-prim" points="60 329.09 75 337.75 75 331.97 65 326.2 60 329.09"/>
    <polygon class="top-prim" points="35 314.65 50 323.31 50 317.54 40 311.77 35 314.65"/>
    <polygon class="top-prim" points="10 300.22 25 308.88 25 303.11 15 297.33 10 300.22"/>
    <polygon class="exterior-R-prim" points="90 329.09 85 326.2 85 343.52 90 340.63 90 329.09"/>
    <polygon class="exterior-R-prim" points="65 314.66 65 314.65 60 311.77 60 329.09 65 326.2 65 314.66"/>
    <polygon class="exterior-R-prim" points="40 300.22 35 297.33 35 314.65 40 311.77 40 300.22"/>
    <polygon class="exterior-R-prim" points="15 285.79 15 285.78 10 282.9 10 300.22 15 297.33 15 285.79"/>
    <polygon class="window-L-prim" points="90 386.82 90 398.37 100 404.14 100 392.59 85 383.93 90 386.82"/>
    <polygon class="window-L-prim" points="40 369.5 50 375.27 50 363.73 40 357.96 40 369.5"/>
    <polygon class="window-L-prim" points="65 372.39 65 383.93 75 389.71 75 378.16 60 369.5 65 372.39"/>
    <polygon class="window-L-prim" points="15 343.52 15 355.07 25 360.84 25 349.29 10 340.63 15 343.52"/>
    <polygon class="top-prim" points="85 401.26 100 409.92 100 404.14 90 398.37 85 401.26"/>
    <polygon class="top-prim" points="60 386.82 75 395.48 75 389.71 65 383.93 60 386.82"/>
    <polygon class="top-prim" points="35 372.39 50 381.05 50 375.27 40 369.5 35 372.39"/>
    <polygon class="top-prim" points="10 357.95 25 366.61 25 360.84 15 355.07 10 357.95"/>
    <polygon class="exterior-R-prim" points="90 386.82 85 383.93 85 401.26 90 398.37 90 386.82"/>
    <polygon class="exterior-R-prim" points="65 372.39 60 369.5 60 386.82 65 383.93 65 372.39"/>
    <polygon class="exterior-R-prim" points="40 357.96 40 357.95 35 355.07 35 372.39 40 369.5 40 357.96"/>
    <polygon class="exterior-R-prim" points="15 343.52 10 340.63 10 357.95 15 355.07 15 343.52"/>
    <polygon class="window-L-prim" points="90 184.75 90 196.3 100 202.07 100 190.52 85 181.86 90 184.75"/>
    <polygon class="window-L-prim" points="40 155.88 40 167.43 50 173.2 50 161.65 35 152.99 40 155.88"/>
    <polygon class="window-L-prim" points="65 181.86 75 187.64 75 176.09 65 170.32 65 181.86"/>
    <polygon class="window-L-prim" points="15 141.45 15 152.99 25 158.77 25 147.22 10 138.56 15 141.45"/>
    <polygon class="top-prim" points="85 199.18 100 207.84 100 202.07 90 196.3 85 199.18"/>
    <polygon class="top-prim" points="60 184.75 75 193.41 75 187.64 65 181.86 60 184.75"/>
    <polygon class="top-prim" points="35 170.31 50 178.98 50 173.2 40 167.43 35 170.31"/>
    <polygon class="top-prim" points="10 155.88 25 164.54 25 158.77 15 152.99 10 155.88"/>
    <polygon class="exterior-R-prim" points="90 184.75 85 181.86 85 199.18 90 196.3 90 184.75"/>
    <polygon class="exterior-R-prim" points="65 170.32 65 170.31 60 167.43 60 184.75 65 181.86 65 170.32"/>
    <polygon class="exterior-R-prim" points="40 155.88 35 152.99 35 170.31 40 167.43 40 155.88"/>
    <polygon class="exterior-R-prim" points="15 141.45 10 138.56 10 155.88 15 152.99 15 141.45"/>
    <polygon class="window-L-prim" points="90 254.03 100 259.8 100 248.26 90 242.49 90 254.03"/>
    <polygon class="window-L-prim" points="40 213.62 40 225.16 50 230.94 50 219.39 35 210.73 40 213.62"/>
    <polygon class="window-L-prim" points="65 228.05 65 239.6 75 245.37 75 233.82 60 225.16 65 228.05"/>
    <polygon class="window-L-prim" points="15 210.73 25 216.5 25 204.96 15 199.19 15 210.73"/>
    <polygon class="top-prim" points="85 256.92 100 265.58 100 259.8 90 254.03 85 256.92"/>
    <polygon class="top-prim" points="60 242.48 75 251.14 75 245.37 65 239.6 60 242.48"/>
    <polygon class="top-prim" points="35 228.05 50 236.71 50 230.94 40 225.16 35 228.05"/>
    <polygon class="top-prim" points="10 213.62 25 222.28 25 216.5 15 210.73 10 213.62"/>
    <polygon class="exterior-R-prim" points="90 242.49 90 242.48 85 239.6 85 256.92 90 254.03 90 242.49"/>
    <polygon class="exterior-R-prim" points="65 228.05 60 225.16 60 242.48 65 239.6 65 228.05"/>
    <polygon class="exterior-R-prim" points="40 213.62 35 210.73 35 228.05 40 225.16 40 213.62"/>
    <polygon class="exterior-R-prim" points="15 199.19 15 199.18 10 196.3 10 213.62 15 210.73 15 199.19"/>
    <polygon class="window-L-prim" points="90 300.22 90 311.77 100 317.54 100 305.99 85 297.33 90 300.22"/>
    <polygon class="window-L-prim" points="40 271.35 40 282.9 50 288.67 50 277.12 35 268.46 40 271.35"/>
    <polygon class="window-L-prim" points="65 297.33 75 303.11 75 291.56 65 285.79 65 297.33"/>
    <polygon class="window-L-prim" points="15 256.92 15 268.46 25 274.24 25 262.69 10 254.03 15 256.92"/>
    <polygon class="top-prim" points="85 314.65 100 323.31 100 317.54 90 311.77 85 314.65"/>
    <polygon class="top-prim" points="60 300.22 75 308.88 75 303.11 65 297.33 60 300.22"/>
    <polygon class="top-prim" points="35 285.78 50 294.45 50 288.67 40 282.9 35 285.78"/>
    <polygon class="top-prim" points="10 271.35 25 280.01 25 274.24 15 268.46 10 271.35"/>
    <polygon class="exterior-R-prim" points="90 300.22 85 297.33 85 314.65 90 311.77 90 300.22"/>
    <polygon class="exterior-R-prim" points="65 285.79 65 285.78 60 282.9 60 300.22 65 297.33 65 285.79"/>
    <polygon class="exterior-R-prim" points="40 271.35 35 268.46 35 285.78 40 282.9 40 271.35"/>
    <polygon class="exterior-R-prim" points="15 256.92 10 254.03 10 271.35 15 268.46 15 256.92"/>
    <polygon class="window-L-prim" points="90 369.5 100 375.27 100 363.73 90 357.96 90 369.5"/>
    <polygon class="window-L-prim" points="40 329.09 40 340.63 50 346.41 50 334.86 35 326.2 40 329.09"/>
    <polygon class="window-L-prim" points="65 343.52 65 355.07 75 360.84 75 349.29 60 340.63 65 343.52"/>
    <polygon class="window-L-prim" points="15 326.2 25 331.97 25 320.43 15 314.66 15 326.2"/>
    <polygon class="top-prim" points="85 372.39 100 381.05 100 375.27 90 369.5 85 372.39"/>
    <polygon class="top-prim" points="60 357.95 75 366.61 75 360.84 65 355.07 60 357.95"/>
    <polygon class="top-prim" points="35 343.52 50 352.18 50 346.41 40 340.63 35 343.52"/>
    <polygon class="top-prim" points="10 329.09 25 337.75 25 331.97 15 326.2 10 329.09"/>
    <polygon class="exterior-R-prim" points="90 357.96 90 357.95 85 355.07 85 372.39 90 369.5 90 357.96"/>
    <polygon class="exterior-R-prim" points="65 343.52 60 340.63 60 357.95 65 355.07 65 343.52"/>
    <polygon class="exterior-R-prim" points="40 329.09 35 326.2 35 343.52 40 340.63 40 329.09"/>
    <polygon class="exterior-R-prim" points="15 314.66 15 314.65 10 311.77 10 329.09 15 326.2 15 314.66"/>
    <polygon class="window-R-prim" points="130 184.75 135 181.86 120 190.52 120 202.07 130 196.3 130 184.75"/>
    <polygon class="window-R-prim" points="180 155.88 185 152.99 170 161.65 170 173.2 180 167.43 180 155.88"/>
    <polygon class="window-R-prim" points="230 127.02 220 132.79 220 144.33 230 138.56 230 127.02"/>
    <polygon class="window-R-prim" points="155 170.32 145 176.09 145 187.64 155 181.86 155 170.32"/>
    <polygon class="window-R-prim" points="205 141.45 210 138.56 195 147.22 195 158.77 205 152.99 205 141.45"/>
    <polygon class="window-R-prim" points="255 112.58 260 109.69 245 118.35 245 129.9 255 124.13 255 112.58"/>
    <polygon class="top-prim" points="130 196.3 120 202.07 120 207.84 135 199.18 130 196.3"/>
    <polygon class="top-prim" points="155 181.86 145 187.64 145 193.41 160 184.75 155 181.86"/>
    <polygon class="top-prim" points="180 167.43 170 173.2 170 178.98 185 170.31 180 167.43"/>
    <polygon class="top-prim" points="205 152.99 195 158.77 195 164.54 210 155.88 205 152.99"/>
    <polygon class="top-prim" points="230 138.56 220 144.33 220 150.11 235 141.45 230 138.56"/>
    <polygon class="top-prim" points="255 124.13 245 129.9 245 135.67 260 127.01 255 124.13"/>
    <polygon class="exterior-L-prim" points="130 196.3 135 199.18 135 181.86 130 184.75 130 196.3"/>
    <polygon class="exterior-L-prim" points="160 184.75 160 167.43 155 170.31 155 170.32 155 181.86 160 184.75"/>
    <polygon class="exterior-L-prim" points="180 167.43 185 170.31 185 152.99 180 155.88 180 167.43"/>
    <polygon class="exterior-L-prim" points="205 152.99 210 155.88 210 138.56 205 141.45 205 152.99"/>
    <polygon class="exterior-L-prim" points="235 141.45 235 124.13 230 127.01 230 127.02 230 138.56 235 141.45"/>
    <polygon class="exterior-L-prim" points="255 124.13 260 127.01 260 109.69 255 112.58 255 124.13"/>
    <polygon class="window-R-prim" points="130 213.62 135 210.73 120 219.39 120 230.94 130 225.16 130 213.62"/>
    <polygon class="window-R-prim" points="180 184.75 185 181.86 170 190.52 170 202.07 180 196.3 180 184.75"/>
    <polygon class="window-R-prim" points="230 155.88 235 152.99 220 161.65 220 173.2 230 167.43 230 155.88"/>
    <polygon class="window-R-prim" points="155 199.19 145 204.96 145 216.5 155 210.73 155 199.19"/>
    <polygon class="window-R-prim" points="205 170.32 195 176.09 195 187.64 205 181.86 205 170.32"/>
    <polygon class="window-R-prim" points="255 141.45 260 138.56 245 147.22 245 158.77 255 152.99 255 141.45"/>
    <polygon class="top-prim" points="130 225.16 120 230.94 120 236.71 135 228.05 130 225.16"/>
    <polygon class="top-prim" points="155 210.73 145 216.5 145 222.28 160 213.62 155 210.73"/>
    <polygon class="top-prim" points="180 196.3 170 202.07 170 207.84 185 199.18 180 196.3"/>
    <polygon class="top-prim" points="205 181.86 195 187.64 195 193.41 210 184.75 205 181.86"/>
    <polygon class="top-prim" points="230 167.43 220 173.2 220 178.98 235 170.31 230 167.43"/>
    <polygon class="top-prim" points="255 152.99 245 158.77 245 164.54 260 155.88 255 152.99"/>
    <polygon class="exterior-L-prim" points="130 225.16 135 228.05 135 210.73 130 213.62 130 225.16"/>
    <polygon class="exterior-L-prim" points="160 213.62 160 196.3 155 199.18 155 199.19 155 210.73 160 213.62"/>
    <polygon class="exterior-L-prim" points="180 196.3 185 199.18 185 181.86 180 184.75 180 196.3"/>
    <polygon class="exterior-L-prim" points="210 184.75 210 167.43 205 170.31 205 170.32 205 181.86 210 184.75"/>
    <polygon class="exterior-L-prim" points="230 167.43 235 170.31 235 152.99 230 155.88 230 167.43"/>
    <polygon class="exterior-L-prim" points="255 152.99 260 155.88 260 138.56 255 141.45 255 152.99"/>
    <polygon class="window-R-prim" points="130 242.49 120 248.26 120 259.8 130 254.03 130 242.49"/>
    <polygon class="window-R-prim" points="180 213.62 185 210.73 170 219.39 170 230.94 180 225.16 180 213.62"/>
    <polygon class="window-R-prim" points="230 184.75 235 181.86 220 190.52 220 202.07 230 196.3 230 184.75"/>
    <polygon class="window-R-prim" points="155 228.05 160 225.16 145 233.82 145 245.37 155 239.6 155 228.05"/>
    <polygon class="window-R-prim" points="205 199.19 195 204.96 195 216.5 205 210.73 205 199.19"/>
    <polygon class="window-R-prim" points="255 170.32 245 176.09 245 187.64 255 181.86 255 170.32"/>
    <polygon class="top-prim" points="130 254.03 120 259.8 120 265.58 135 256.92 130 254.03"/>
    <polygon class="top-prim" points="155 239.6 145 245.37 145 251.14 160 242.48 155 239.6"/>
    <polygon class="top-prim" points="180 225.16 170 230.94 170 236.71 185 228.05 180 225.16"/>
    <polygon class="top-prim" points="205 210.73 195 216.5 195 222.28 210 213.62 205 210.73"/>
    <polygon class="top-prim" points="230 196.3 220 202.07 220 207.84 235 199.18 230 196.3"/>
    <polygon class="top-prim" points="255 181.86 245 187.64 245 193.41 260 184.75 255 181.86"/>
    <polygon class="exterior-L-prim" points="135 256.92 135 239.6 130 242.48 130 242.49 130 254.03 135 256.92"/>
    <polygon class="exterior-L-prim" points="155 239.6 160 242.48 160 225.16 155 228.05 155 239.6"/>
    <polygon class="exterior-L-prim" points="180 225.16 185 228.05 185 210.73 180 213.62 180 225.16"/>
    <polygon class="exterior-L-prim" points="210 213.62 210 196.3 205 199.18 205 199.19 205 210.73 210 213.62"/>
    <polygon class="exterior-L-prim" points="230 196.3 235 199.18 235 181.86 230 184.75 230 196.3"/>
    <polygon class="exterior-L-prim" points="260 184.75 260 167.43 255 170.31 255 170.32 255 181.86 260 184.75"/>
    <polygon class="window-R-prim" points="130 271.35 135 268.46 120 277.12 120 288.67 130 282.9 130 271.35"/>
    <polygon class="window-R-prim" points="180 242.49 170 248.26 170 259.8 180 254.03 180 242.49"/>
    <polygon class="window-R-prim" points="230 213.62 235 210.73 220 219.39 220 230.94 230 225.16 230 213.62"/>
    <polygon class="window-R-prim" points="155 256.92 160 254.03 145 262.69 145 274.24 155 268.46 155 256.92"/>
    <polygon class="window-R-prim" points="205 228.05 210 225.16 195 233.82 195 245.37 205 239.6 205 228.05"/>
    <polygon class="window-R-prim" points="255 199.19 245 204.96 245 216.5 255 210.73 255 199.19"/>
    <polygon class="top-prim" points="130 282.9 120 288.67 120 294.45 135 285.78 130 282.9"/>
    <polygon class="top-prim" points="155 268.46 145 274.24 145 280.01 160 271.35 155 268.46"/>
    <polygon class="top-prim" points="180 254.03 170 259.8 170 265.58 185 256.92 180 254.03"/>
    <polygon class="top-prim" points="205 239.6 195 245.37 195 251.14 210 242.48 205 239.6"/>
    <polygon class="top-prim" points="230 225.16 220 230.94 220 236.71 235 228.05 230 225.16"/>
    <polygon class="top-prim" points="255 210.73 245 216.5 245 222.28 260 213.62 255 210.73"/>
    <polygon class="exterior-L-prim" points="130 282.9 135 285.78 135 268.46 130 271.35 130 282.9"/>
    <polygon class="exterior-L-prim" points="155 268.46 160 271.35 160 254.03 155 256.92 155 268.46"/>
    <polygon class="exterior-L-prim" points="185 256.92 185 239.6 180 242.48 180 242.49 180 254.03 185 256.92"/>
    <polygon class="exterior-L-prim" points="205 239.6 210 242.48 210 225.16 205 228.05 205 239.6"/>
    <polygon class="exterior-L-prim" points="230 225.16 235 228.05 235 210.73 230 213.62 230 225.16"/>
    <polygon class="exterior-L-prim" points="260 213.62 260 196.3 255 199.18 255 199.19 255 210.73 260 213.62"/>
    <polygon class="window-R-prim" points="130 300.22 135 297.33 120 305.99 120 317.54 130 311.77 130 300.22"/>
    <polygon class="window-R-prim" points="180 271.35 185 268.46 170 277.12 170 288.67 180 282.9 180 271.35"/>
    <polygon class="window-R-prim" points="230 242.49 220 248.26 220 259.8 230 254.03 230 242.49"/>
    <polygon class="window-R-prim" points="155 285.79 145 291.56 145 303.11 155 297.33 155 285.79"/>
    <polygon class="window-R-prim" points="205 256.92 210 254.03 195 262.69 195 274.24 205 268.46 205 256.92"/>
    <polygon class="window-R-prim" points="255 228.05 260 225.16 245 233.82 245 245.37 255 239.6 255 228.05"/>
    <polygon class="top-prim" points="130 311.77 120 317.54 120 323.31 135 314.65 130 311.77"/>
    <polygon class="top-prim" points="155 297.33 145 303.11 145 308.88 160 300.22 155 297.33"/>
    <polygon class="top-prim" points="180 282.9 170 288.67 170 294.45 185 285.78 180 282.9"/>
    <polygon class="top-prim" points="205 268.46 195 274.24 195 280.01 210 271.35 205 268.46"/>
    <polygon class="top-prim" points="230 254.03 220 259.8 220 265.58 235 256.92 230 254.03"/>
    <polygon class="top-prim" points="255 239.6 245 245.37 245 251.14 260 242.48 255 239.6"/>
    <polygon class="exterior-L-prim" points="130 311.77 135 314.65 135 297.33 130 300.22 130 311.77"/>
    <polygon class="exterior-L-prim" points="160 300.22 160 282.9 155 285.78 155 285.79 155 297.33 160 300.22"/>
    <polygon class="exterior-L-prim" points="180 282.9 185 285.78 185 268.46 180 271.35 180 282.9"/>
    <polygon class="exterior-L-prim" points="205 268.46 210 271.35 210 254.03 205 256.92 205 268.46"/>
    <polygon class="exterior-L-prim" points="235 256.92 235 239.6 230 242.48 230 242.49 230 254.03 235 256.92"/>
    <polygon class="exterior-L-prim" points="255 239.6 260 242.48 260 225.16 255 228.05 255 239.6"/>
    <polygon class="window-R-prim" points="130 329.09 135 326.2 120 334.86 120 346.41 130 340.63 130 329.09"/>
    <polygon class="window-R-prim" points="180 300.22 185 297.33 170 305.99 170 317.54 180 311.77 180 300.22"/>
    <polygon class="window-R-prim" points="230 271.35 235 268.46 220 277.12 220 288.67 230 282.9 230 271.35"/>
    <polygon class="window-R-prim" points="155 314.66 145 320.43 145 331.97 155 326.2 155 314.66"/>
    <polygon class="window-R-prim" points="205 285.79 195 291.56 195 303.11 205 297.33 205 285.79"/>
    <polygon class="window-R-prim" points="255 256.92 260 254.03 245 262.69 245 274.24 255 268.46 255 256.92"/>
    <polygon class="top-prim" points="130 340.63 120 346.41 120 352.18 135 343.52 130 340.63"/>
    <polygon class="top-prim" points="155 326.2 145 331.97 145 337.75 160 329.09 155 326.2"/>
    <polygon class="top-prim" points="180 311.77 170 317.54 170 323.31 185 314.65 180 311.77"/>
    <polygon class="top-prim" points="205 297.33 195 303.11 195 308.88 210 300.22 205 297.33"/>
    <polygon class="top-prim" points="230 282.9 220 288.67 220 294.45 235 285.78 230 282.9"/>
    <polygon class="top-prim" points="255 268.46 245 274.24 245 280.01 260 271.35 255 268.46"/>
    <polygon class="exterior-L-prim" points="130 340.63 135 343.52 135 326.2 130 329.09 130 340.63"/>
    <polygon class="exterior-L-prim" points="160 329.09 160 311.77 155 314.65 155 314.66 155 326.2 160 329.09"/>
    <polygon class="exterior-L-prim" points="180 311.77 185 314.65 185 297.33 180 300.22 180 311.77"/>
    <polygon class="exterior-L-prim" points="210 300.22 210 282.9 205 285.78 205 285.79 205 297.33 210 300.22"/>
    <polygon class="exterior-L-prim" points="230 282.9 235 285.78 235 268.46 230 271.35 230 282.9"/>
    <polygon class="exterior-L-prim" points="255 268.46 260 271.35 260 254.03 255 256.92 255 268.46"/>
    <polygon class="window-R-prim" points="130 357.96 120 363.73 120 375.27 130 369.5 130 357.96"/>
    <polygon class="window-R-prim" points="180 329.09 185 326.2 170 334.86 170 346.41 180 340.63 180 329.09"/>
    <polygon class="window-R-prim" points="230 300.22 235 297.33 220 305.99 220 317.54 230 311.77 230 300.22"/>
    <polygon class="window-R-prim" points="155 343.52 160 340.63 145 349.29 145 360.84 155 355.07 155 343.52"/>
    <polygon class="window-R-prim" points="205 314.66 195 320.43 195 331.97 205 326.2 205 314.66"/>
    <polygon class="window-R-prim" points="255 285.79 245 291.56 245 303.11 255 297.33 255 285.79"/>
    <polygon class="top-prim" points="130 369.5 120 375.27 120 381.05 135 372.39 130 369.5"/>
    <polygon class="top-prim" points="155 355.07 145 360.84 145 366.61 160 357.95 155 355.07"/>
    <polygon class="top-prim" points="180 340.63 170 346.41 170 352.18 185 343.52 180 340.63"/>
    <polygon class="top-prim" points="205 326.2 195 331.97 195 337.75 210 329.09 205 326.2"/>
    <polygon class="top-prim" points="230 311.77 220 317.54 220 323.31 235 314.65 230 311.77"/>
    <polygon class="top-prim" points="255 297.33 245 303.11 245 308.88 260 300.22 255 297.33"/>
    <polygon class="exterior-L-prim" points="135 372.39 135 355.07 130 357.95 130 357.96 130 369.5 135 372.39"/>
    <polygon class="exterior-L-prim" points="155 355.07 160 357.95 160 340.63 155 343.52 155 355.07"/>
    <polygon class="exterior-L-prim" points="180 340.63 185 343.52 185 326.2 180 329.09 180 340.63"/>
    <polygon class="exterior-L-prim" points="210 329.09 210 311.77 205 314.65 205 314.66 205 326.2 210 329.09"/>
    <polygon class="exterior-L-prim" points="230 311.77 235 314.65 235 297.33 230 300.22 230 311.77"/>
    <polygon class="exterior-L-prim" points="260 300.22 260 282.9 255 285.78 255 285.79 255 297.33 260 300.22"/>
    <polygon class="window-R-prim" points="130 386.82 135 383.93 120 392.59 120 404.14 130 398.37 130 386.82"/>
    <polygon class="window-R-prim" points="180 357.96 170 363.73 170 375.27 180 369.5 180 357.96"/>
    <polygon class="window-R-prim" points="230 329.09 235 326.2 220 334.86 220 346.41 230 340.63 230 329.09"/>
    <polygon class="window-R-prim" points="155 372.39 160 369.5 145 378.16 145 389.71 155 383.93 155 372.39"/>
    <polygon class="window-R-prim" points="205 343.52 210 340.63 195 349.29 195 360.84 205 355.07 205 343.52"/>
    <polygon class="window-R-prim" points="255 314.66 245 320.43 245 331.97 255 326.2 255 314.66"/>
    <polygon class="top-prim" points="130 398.37 120 404.14 120 409.92 135 401.26 130 398.37"/>
    <polygon class="top-prim" points="155 383.93 145 389.71 145 395.48 160 386.82 155 383.93"/>
    <polygon class="top-prim" points="180 369.5 170 375.27 170 381.05 185 372.39 180 369.5"/>
    <polygon class="top-prim" points="205 355.07 195 360.84 195 366.61 210 357.95 205 355.07"/>
    <polygon class="top-prim" points="230 340.63 220 346.41 220 352.18 235 343.52 230 340.63"/>
    <polygon class="top-prim" points="255 326.2 245 331.97 245 337.75 260 329.09 255 326.2"/>
    <polygon class="exterior-L-prim" points="130 398.37 135 401.26 135 383.93 130 386.82 130 398.37"/>
    <polygon class="exterior-L-prim" points="155 383.93 160 386.82 160 369.5 155 372.39 155 383.93"/>
    <polygon class="exterior-L-prim" points="185 372.39 185 355.07 180 357.95 180 357.96 180 369.5 185 372.39"/>
    <polygon class="exterior-L-prim" points="205 355.07 210 357.95 210 340.63 205 343.52 205 355.07"/>
    <polygon class="exterior-L-prim" points="230 340.63 235 343.52 235 326.2 230 329.09 230 340.63"/>
    <polygon class="exterior-L-prim" points="260 329.09 260 311.77 255 314.65 255 314.66 255 326.2 260 329.09"/>
  </g>
</svg>
