<?xml version="1.0" encoding="utf-8"?>

<svg version="1.1"  id="0_61"
	 xmlns="http://www.w3.org/2000/svg" xmlns:xlink="http://www.w3.org/1999/xlink" x="0px" y="0px" viewBox="0 0 340 254.03"
	 style="enable-background:new 0 0 340 254.03;" xml:space="preserve">
<style type="text/css">
	<!--.window_x002D_R1{fill:#171717;}-->
	<!--.exterior_x002D_L1{fill:#2E2E2E;}-->
	<!--.exterior_x002D_R4{fill:#5D5D5D;}-->
	<!--.top_x002D_T4{fill:#E8E8E8;}-->
	<!--.top_x002D_T1{fill:#8B8B8B;}-->
	<!--.concrete_x002D_T1{fill:#A2A2A2;}-->
	<!--.concrete_x002D_R1{fill:#E8E8E8;}-->
	<!--.concrete_x002D_L1{fill:#8B8B8B;}-->
</style>
<switch>
	<g>
		<g id="Group">
			<path id="Path" class="concrete_x002D_T1" d="M150,248.26l190-109.7l-150-86.6L0,161.66L150,248.26z"/>
			<path id="Path_1_" class="concrete_x002D_R1" d="M150,254.03v-5.77l190-109.7v5.78L150,254.03z"/>
			<path id="Path_2_" class="concrete_x002D_L1" d="M0,167.43v-5.77l150,86.6v5.77L0,167.43z"/>
			<path id="Path_3_" class="window_x002D_R1" d="M150,202.07l135-77.94V83.72l-135,77.94V202.07z"/>
			<path id="Path_4_" class="window_x002D_L1" d="M150,202.07l-97.5-56.29v-40.41l97.5,56.29V202.07z"/>
			<path id="Path_5_" class="exterior_x002D_L1" d="M145,228.05v-69.28h10v69.28l-5,2.89L145,228.05z"/>
			<path id="Path_6_" class="exterior_x002D_L1" d="M106.25,205.68V136.4h10v69.28l-5,2.89L106.25,205.68z"/>
			<path id="Path_7_" class="exterior_x002D_L1" d="M67.5,183.31v-69.28h10v69.28l-5,2.89L67.5,183.31z"/>
			<path id="Path_8_" class="exterior_x002D_L1" d="M30,161.66V92.38l7.5,1.44l1.25,67.12l-5,2.88L30,161.66z"/>
			<path id="Path_9_" class="exterior_x002D_R4" d="M150,161.66l5-2.89v69.28l-5,2.89V161.66z"/>
			<path id="Path_10_" class="exterior_x002D_R4" d="M111.25,139.29l5-2.89v69.28l-5,2.89V139.29z"/>
			<path id="Path_11_" class="exterior_x002D_R4" d="M72.5,116.91l5-2.88v69.28l-5,2.89V116.91z"/>
			<path id="Path_12_" class="exterior_x002D_R4" d="M33.75,93.1l5-2.89v70.73l-5,2.88V93.1z"/>
			<path id="Path_13_" class="exterior_x002D_L1" d="M300,138.56v-63.5l10-5.78v69.28l-5,2.89L300,138.56z"/>
			<path id="Path_14_" class="exterior_x002D_L1" d="M222.5,183.31V119.8l10-5.77v69.28l-5,2.89L222.5,183.31z"/>
			<path id="Path_15_" class="exterior_x002D_L1" d="M261.25,160.94V97.43l10-5.78v69.29l-5,2.88L261.25,160.94z"/>
			<path id="Path_16_" class="exterior_x002D_L1" d="M183.75,205.68v-63.51l10-5.77v69.28l-5,2.89L183.75,205.68z"/>
			<path id="Path_17_" class="exterior_x002D_R4" d="M305,72.17l5-2.89v69.28l-5,2.89V72.17z"/>
			<path id="Path_18_" class="exterior_x002D_R4" d="M227.5,116.91l5-2.88v69.28l-5,2.89V116.91z"/>
			<path id="Path_19_" class="exterior_x002D_R4" d="M266.25,94.54l5-2.89v69.29l-5,2.88V94.54z"/>
			<path id="Path_20_" class="exterior_x002D_R4" d="M188.75,139.29l5-2.89v69.28l-5,2.89V139.29z"/>
			<path id="Path_21_" class="exterior_x002D_R4" d="M150,161.66l160-92.38v8.66l-160,92.38V161.66z"/>
			<path id="Path_22_" class="exterior_x002D_L1" d="M150,161.66L30,92.38v8.66l120,69.28V161.66z"/>
			<path id="Path_23_" class="exterior_x002D_R4" d="M285,124.13l-2.5,1.44V93.82l2.5-1.44V124.13z"/>
			<path id="Path_24_" class="exterior_x002D_R4" d="M248.75,145.06l-2.5,1.44v-31.75l2.5-1.45V145.06z"/>
			<path id="Path_25_" class="exterior_x002D_R4" d="M210,167.43l-2.5,1.44v-31.75l2.5-1.44V167.43z"/>
			<path id="Path_26_" class="exterior_x002D_L1" d="M90,167.43l2.5,1.44v-31.75l-2.5-1.44V167.43z"/>
			<path id="Path_27_" class="exterior_x002D_L1" d="M52.5,145.78l2.5,1.44v-31.75l-2.5-1.44V145.78z"/>
			<path id="Path_28_" class="exterior_x002D_R4" d="M171.25,189.8l-2.5,1.45v-31.76l2.5-1.44V189.8z"/>
			<path id="Path_29_" class="exterior_x002D_L1" d="M128.75,189.8l2.5,1.45v-31.76l-2.5-1.44V189.8z"/>
			<path id="equitable-standard-base-01_x5F_92.37" class="top_x002D_T4" d="M30,92.38L190,0l120,69.28l-160,92.38L30,92.38z"/>
		</g>

	</g>
</switch>
</svg>
