<svg id="Layer_1" data-name="Layer 1" xmlns="http://www.w3.org/2000/svg" xmlns:xlink="http://www.w3.org/1999/xlink" viewBox="0 0 190 221.3148">
  <defs>
    <style>
      .slope-R-prim {
        fill: #eed9b3;
      }

      .crown-top-prim {
        fill: #e5f7e3;
      }

      .top-light {
        fill: #ffc8c6;
      }

      .exterior-R-light {
        fill: #df5d58;
      }

      .exterior-L-light {
        fill: #8a3a37;
      }

      .crown-L-prim {
        fill: #8fa88c;
      }

      .crown-R-prim {
        fill: #bfd7bd;
      }

      .top-prim {
        fill: #dd8a87;
      }

      .window-L-prim {
        fill: #4d3b24;
      }

      .window-R-prim {
        fill: #bd9664;
      }

      .exterior-R-prim {
        fill: #d05752;
      }

      .cls-1 {
        clip-path: url(#clip-path);
      }

      .slope-L-prim {
        fill: #c3af8a;
      }

      .slope-top-prim {
        fill: #fff1d8;
      }
    </style>
    <clipPath id="clip-path">
      <path class="slope-R-prim" d="M79.801,80.5338h0c-21.842,0-39.575-12.286-39.575-27.418h0v-5.943C40.226,22.71,57.959,2.85,79.801,2.85h0c21.841,0,39.574,19.86,39.574,44.323v5.943h0C119.375,68.2478,101.642,80.5338,79.801,80.5338Z"/>
    </clipPath>
  </defs>
  <title>Artboard 7</title>
  <g id="root">
    <path class="crown-top-prim" d="M0,143.3728v-2.887l110-63.509,80,46.188v2.887L80,189.5608Z"/>
    <path class="top-light" d="M10,140.4858,80,180.9l100-57.7349-70-40.414Z"/>
    <path class="exterior-R-light" d="M10,140.4858l15,8.66,85-49.075v-17.32Z"/>
    <path class="exterior-L-light" d="M110,82.7508l70,40.414-15,8.661-55-31.755Z"/>
    <path class="exterior-L-light" d="M0,175.1268l80,46.188,5-2.8871V189.5608l-5,2.886L0,146.2588Z"/>
    <path class="crown-L-prim" d="M0,140.4858l80,46.188,5-2.887v5.774l-5,2.886L0,146.2588Z"/>
    <path class="exterior-R-light" d="M80,221.3148l110-63.5091V128.9388L80,192.4468Z"/>
    <path class="crown-R-prim" d="M190,123.1648v5.774L80,192.4468v-5.773Z"/>
    <path class="exterior-R-light" d="M20,186.6738l2.5-1.444V159.25l-2.5-1.444Z"/>
    <path class="exterior-R-light" d="M45,201.1077l2.5-1.444V173.6828L45,172.24Z"/>
    <path class="exterior-R-light" d="M70,215.5407l2.5-1.443V188.1168l-2.5-1.443Z"/>
    <path class="exterior-R-light" d="M7.5,179.4567l2.5-1.443V152.0328l-2.5-1.444Z"/>
    <path class="exterior-R-light" d="M32.5,193.8908l2.5-1.444v-25.98l-2.5-1.444Z"/>
    <path class="exterior-R-light" d="M57.5,208.3238l2.5-1.443V180.9l-2.5-1.443Z"/>
    <path class="top-light" d="M22.5,188.1168V185.23l-2.5,1.444Z"/>
    <path class="top-light" d="M47.5,202.5508v-2.8871l-2.5,1.444Z"/>
    <path class="top-light" d="M72.5,216.9847v-2.887l-2.5,1.443Z"/>
    <path class="top-light" d="M10,180.9v-2.886l-2.5,1.443Z"/>
    <path class="top-light" d="M35,195.3337v-2.8869l-2.5,1.444Z"/>
    <path class="top-light" d="M60,209.7678v-2.887l-2.5,1.443Z"/>
    <path class="exterior-L-light" d="M142.5,185.23l-2.5-1.443V157.8057l2.5-1.4429Z"/>
    <path class="exterior-L-light" d="M117.5,199.6637l-2.5-1.443V172.24l2.5-1.443Z"/>
    <path class="exterior-L-light" d="M92.5,214.0977,90,212.6548v-25.981l2.5-1.444Z"/>
    <path class="exterior-L-light" d="M155,178.0137l-2.5-1.444V150.5888l2.5-1.443Z"/>
    <path class="exterior-L-light" d="M167.5,170.7968l-2.5-1.444V143.3717l2.5-1.4429Z"/>
    <path class="exterior-L-light" d="M180,163.58l-2.5-1.4441v-25.98l2.5-1.444Z"/>
    <path class="exterior-L-light" d="M130,192.4468l-2.5-1.443v-25.981l2.5-1.443Z"/>
    <path class="exterior-L-light" d="M105,206.8808l-2.5-1.443V179.4567l2.5-1.443Z"/>
    <path class="top-light" d="M140,186.6738v-2.887l2.5,1.443Z"/>
    <path class="top-light" d="M115,201.1077v-2.887l2.5,1.443Z"/>
    <path class="top-light" d="M90,215.5407v-2.8859l2.5,1.4429Z"/>
    <path class="top-light" d="M152.5,179.4567V176.57l2.5,1.444Z"/>
    <path class="top-light" d="M165,172.24v-2.887l2.5,1.444Z"/>
    <path class="top-light" d="M177.5,165.0228v-2.8871L180,163.58Z"/>
    <path class="top-light" d="M127.5,193.8908v-2.887l2.5,1.443Z"/>
    <path class="top-light" d="M102.5,208.3238v-2.886l2.5,1.443Z"/>
    <path class="exterior-L-light" d="M85,100.0708v77.9429L80,180.9,25,149.1458V71.2038l55,31.754Z"/>
    <path class="exterior-R-light" d="M80,180.9l55-31.7539V71.2038l-55,31.754Z"/>
    <path class="crown-top-prim" d="M25,74.0908v-2.887L80,39.4487l55,31.7551V74.09l-55,31.755Z"/>
    <path class="top-prim" d="M35,71.2038l45,25.98,45-25.98L80,45.2228Z"/>
    <path class="crown-L-prim" d="M25,71.2038l55,31.754,5-2.887v5.774l-5,2.886L25,76.9768Z"/>
    <path class="crown-R-prim" d="M135,71.2038v5.773l-55,31.754v-5.773Z"/>
    <path class="exterior-R-light" d="M45,117.3918l2.5-1.444v-25.98L45,88.5238Z"/>
    <path class="exterior-L-light" d="M115,117.3918l-2.5-1.444v-25.98l2.5-1.444Z"/>
    <path class="exterior-R-light" d="M70,131.8248l2.5-1.443v-25.981l-2.5-1.443Z"/>
    <path class="exterior-L-light" d="M90,131.8248l-2.5-1.443v-25.981l2.5-1.443Z"/>
    <path class="exterior-R-light" d="M32.5,110.1748l2.5-1.444v-25.98l-2.5-1.444Z"/>
    <path class="exterior-L-light" d="M127.5,110.1748l-2.5-1.444v-25.98l2.5-1.444Z"/>
    <path class="exterior-R-light" d="M57.5,124.6088l2.5-1.444V97.1838l-2.5-1.443Z"/>
    <path class="exterior-L-light" d="M102.5,124.6088l-2.5-1.444V97.1838l2.5-1.443Z"/>
    <path class="top-light" d="M47.5,118.8348v-2.887l-2.5,1.444Z"/>
    <path class="top-light" d="M112.5,118.8348v-2.887l2.5,1.444Z"/>
    <path class="top-light" d="M72.5,133.2688v-2.887l-2.5,1.443Z"/>
    <path class="top-light" d="M87.5,133.2688v-2.887l2.5,1.443Z"/>
    <path class="top-light" d="M35,111.6178v-2.887l-2.5,1.444Z"/>
    <path class="top-light" d="M125,111.6178v-2.887l2.5,1.444Z"/>
    <path class="top-light" d="M60,126.0518v-2.887l-2.5,1.444Z"/>
    <path class="top-light" d="M100,126.0518v-2.887l2.5,1.444Z"/>
    <g>
      <path class="exterior-R-light" d="M38.75,145.5378V129.66h0c0-3.983,1.68-6.2461,3.75-5.051h0c2.07,1.195,3.75,5.398,3.75,9.382h0v15.877Z"/>
      <path class="window-L-prim" d="M42.5,124.6088a2.4762,2.4762,0,0,0-.5249-.2241,8.9228,8.9228,0,0,0-.7251,3.832v15.877l5,2.8867v-12.99C46.25,130.0067,44.57,125.8037,42.5,124.6088Z"/>
      <path class="top-prim" d="M46.25,149.8678v-2.887l-5-2.887-2.5,1.444Z"/>
      <path class="exterior-R-light" d="M58.75,157.0848v-15.878h0c0-3.983,1.68-6.246,3.75-5.051h0c2.07,1.1949,3.75,5.398,3.75,9.382h0v15.8769Z"/>
      <path class="window-L-prim" d="M62.5,136.1557a2.4924,2.4924,0,0,0-.5249-.2242,8.9252,8.9252,0,0,0-.7251,3.8323v15.877l5,2.8867v-12.99C66.25,141.5537,64.57,137.3507,62.5,136.1557Z"/>
      <path class="top-prim" d="M66.25,161.4147v-2.887l-5-2.8869-2.5,1.444Z"/>
      <path class="exterior-L-light" d="M121.25,145.5378V129.66h0c0-3.983-1.68-6.2461-3.75-5.051h0c-2.07,1.195-3.75,5.398-3.75,9.382h0v15.877Z"/>
      <path class="window-R-prim" d="M113.75,133.9908v12.99l5-2.8867v-15.877a8.9229,8.9229,0,0,0-.725-3.832,2.4791,2.4791,0,0,0-.525.2241C115.43,125.8037,113.75,130.0067,113.75,133.9908Z"/>
      <path class="top-prim" d="M113.75,149.8678v-2.887l5-2.887,2.5,1.444Z"/>
      <path class="exterior-L-light" d="M101.25,157.0848v-15.878h0c0-3.983-1.68-6.246-3.75-5.051h0c-2.07,1.1949-3.75,5.398-3.75,9.382h0v15.8769Z"/>
      <path class="window-R-prim" d="M93.75,145.5378v12.99l5-2.8867v-15.877a8.9253,8.9253,0,0,0-.725-3.8323,2.4953,2.4953,0,0,0-.525.2242C95.43,137.3507,93.75,141.5537,93.75,145.5378Z"/>
      <path class="top-prim" d="M93.75,161.4147v-2.887l5-2.8869,2.5,1.444Z"/>
    </g>
    <g>
      <path class="exterior-R-prim" d="M79.801,94.2428h0c-21.842,0-39.575-12.286-39.575-27.418h0V47.1728C40.226,22.71,57.959,2.85,79.801,2.85h0c21.841,0,39.574,19.86,39.574,44.323v19.652h0C119.375,81.9568,101.642,94.2428,79.801,94.2428Z"/>
      <path class="exterior-R-light" d="M79.801,91.6038h0c-21.842,0-39.575-12.285-39.575-27.417h0V48.0728c0-24.4631,17.733-44.3241,39.575-44.3241h0c21.841,0,39.574,19.861,39.574,44.3241v16.114h0C119.375,79.3188,101.642,91.6038,79.801,91.6038Z"/>
      <path class="exterior-R-prim" d="M79.801,83.03h0c-21.842,0-39.575-12.286-39.575-27.418h0v-7.935c0-24.463,17.733-44.323,39.575-44.323h0c21.841,0,39.574,19.86,39.574,44.323v7.935h0C119.375,70.7438,101.642,83.03,79.801,83.03Z"/>
      <path class="crown-R-prim" d="M79.801,80.5338h0c-21.842,0-39.575-12.286-39.575-27.418h0v-5.943C40.226,22.71,57.959,2.85,79.801,2.85h0c21.841,0,39.574,19.86,39.574,44.323v5.943h0C119.375,68.2478,101.642,80.5338,79.801,80.5338Z"/>
      <g>
        <path class="slope-R-prim" d="M79.801,80.5338h0c-21.842,0-39.575-12.286-39.575-27.418h0v-5.943C40.226,22.71,57.959,2.85,79.801,2.85h0c21.841,0,39.574,19.86,39.574,44.323v5.943h0C119.375,68.2478,101.642,80.5338,79.801,80.5338Z"/>
        <g class="cls-1">
          <g>
            <path class="slope-L-prim" d="M44.184,94.2428V42.4938c0-21.88,15.959-39.644,35.617-39.644h0c19.657,0,35.617,17.764,35.617,39.644v51.749Z"/>
            <path class="slope-R-prim" d="M52.099,94.2428V42.4938c0-21.88,12.413-39.644,27.702-39.644h0c15.289,0,27.702,17.764,27.702,39.644v51.749Z"/>
            <path class="slope-L-prim" d="M60.014,94.2428V42.4938c0-21.88,8.866-39.644,19.787-39.644h0c10.921,0,19.787,17.764,19.787,39.644v51.749Z"/>
            <path class="slope-R-prim" d="M67.928,94.2428V42.4938c0-21.88,5.32-39.644,11.873-39.644h0c6.552,0,11.872,17.764,11.872,39.644v51.749Z"/>
            <path class="slope-L-prim" d="M75.843,96.5278V42.4938c0-21.88,1.774-39.644,3.958-39.644h0c2.184,0,3.957,17.764,3.957,39.644v54.034Z"/>
          </g>
        </g>
      </g>
      <path class="slope-L-prim" d="M72.875,3.9918h0c-3.822,2.207-3.822,5.79,0,7.997h0a15.3156,15.3156,0,0,0,13.851,0h0c3.823-2.207,3.823-5.79,0-7.997h0A15.3156,15.3156,0,0,0,72.875,3.9918Z"/>
      <path class="slope-R-prim" d="M74.903,4.0137h0c-2.704,1.5611-2.704,4.095,0,5.6561h0a10.8311,10.8311,0,0,0,9.796,0h0c2.703-1.5611,2.703-4.095,0-5.6561h0A10.8317,10.8317,0,0,0,74.903,4.0137Z"/>
      <rect class="slope-R-prim" x="72.875" y="3.7708" width="13.851" height="2.828"/>
      <path class="slope-top-prim" d="M74.903,1.1708h0c-2.704,1.56-2.704,4.095,0,5.655h0a10.8317,10.8317,0,0,0,9.796,0h0c2.703-1.56,2.703-4.095,0-5.655h0A10.83,10.83,0,0,0,74.903,1.1708Z"/>
    </g>
  </g>
</svg>
