<svg id="Layer_1" data-name="Layer 1" xmlns="http://www.w3.org/2000/svg" viewBox="0 0 190 294.448">
  <defs>
    <style>
      .crown-top-prim {
        fill: #e5f7e3;
      }

      .top-prim {
        fill: #dd8a87;
      }

      .exterior-R-light {
        fill: #df5d58;
      }

      .exterior-L-light {
        fill: #8a3a37;
      }

      .crown-L-prim {
        fill: #8fa88c;
      }

      .top-light {
        fill: #ffc8c6;
      }

      .crown-R-prim {
        fill: #bfd7bd;
      }

      .exterior-R-prim {
        fill: #d05752;
      }

      .exterior-L-prim {
        fill: #73302e;
      }

      .slope-top-prim {
        fill: #fff1d8;
      }

      .slope-L-dark {
        fill: #ae9a76;
      }

      .slope-R-prim {
        fill: #eed9b3;
      }

      .slope-L-prim {
        fill: #c3af8a;
      }

      .slope-R-dark {
        fill: #dfcaa3;
      }
    </style>
  </defs>
  <title>Artboard 9</title>
  <g id="root">
    <path class="crown-top-prim" d="M0,216.506v-2.887l110-63.508,80,46.188v2.886L80,262.694Z"/>
    <path class="top-prim" d="M10,213.619l70,40.415,100-57.735-70-40.415Z"/>
    <path class="exterior-R-light" d="M10,213.619l15,8.66,85-49.074V155.884Z"/>
    <path class="exterior-L-light" d="M110,155.884l70,40.415-15,8.66-55-31.754Z"/>
    <path class="exterior-L-light" d="M0,248.26l80,46.188,5-2.887V262.694l-5,2.887L0,219.393Z"/>
    <path class="crown-L-prim" d="M0,213.619l80,46.188,5-2.887v5.774l-5,2.887L0,219.393Z"/>
    <path class="top-light" d="M132.5,217.949v-2.886L80,184.752,27.5,215.063v2.886L80,248.26Z"/>
    <path class="exterior-R-light" d="M80,294.448,190,230.94V202.072L80,265.581Z"/>
    <path class="crown-R-prim" d="M190,196.299v5.773L80,265.581v-5.774Z"/>
    <path class="exterior-R-light" d="M20,259.807l2.5-1.443V232.383L20,230.94Z"/>
    <path class="exterior-R-light" d="M45,274.241l2.5-1.443V246.817L45,245.373Z"/>
    <path class="exterior-R-light" d="M70,288.675l2.5-1.444v-25.98L70,259.807Z"/>
    <path class="exterior-R-light" d="M7.5,252.59l2.5-1.443V225.166l-2.5-1.443Z"/>
    <path class="exterior-R-light" d="M32.5,267.024l2.5-1.443V239.6l-2.5-1.443Z"/>
    <path class="exterior-R-light" d="M57.5,281.458l2.5-1.444v-25.98l-2.5-1.444Z"/>
    <path class="top-light" d="M22.5,261.251v-2.887L20,259.807Z"/>
    <path class="top-light" d="M47.5,275.684v-2.886L45,274.241Z"/>
    <path class="top-light" d="M72.5,290.118v-2.887L70,288.675Z"/>
    <path class="top-light" d="M10,254.034v-2.887L7.5,252.59Z"/>
    <path class="top-light" d="M35,268.467v-2.886l-2.5,1.443Z"/>
    <path class="top-light" d="M60,282.901v-2.887l-2.5,1.444Z"/>
    <path class="exterior-L-light" d="M142.5,258.364,140,256.92V230.94l2.5-1.444Z"/>
    <path class="exterior-L-light" d="M117.5,272.798l-2.5-1.444V245.373l2.5-1.443Z"/>
    <path class="exterior-L-light" d="M92.5,287.231,90,285.788V259.807l2.5-1.443Z"/>
    <path class="exterior-L-light" d="M155,251.147l-2.5-1.443V223.723l2.5-1.444Z"/>
    <path class="exterior-R-prim" d="M100,207.846,80,219.393V178.978l20-11.547Z"/>
    <path class="exterior-L-prim" d="M60,207.846l20,11.547V178.978L60,167.431Z"/>
    <path class="exterior-L-light" d="M167.5,243.93l-2.5-1.443V216.506l2.5-1.443Z"/>
    <path class="exterior-L-light" d="M180,236.713l-2.5-1.443V209.289l2.5-1.443Z"/>
    <path class="exterior-L-light" d="M130,265.581l-2.5-1.444v-25.98l2.5-1.444Z"/>
    <path class="exterior-L-light" d="M105,280.014l-2.5-1.443V252.59l2.5-1.443Z"/>
    <path class="top-light" d="M140,259.807V256.92l2.5,1.444Z"/>
    <path class="top-light" d="M115,274.241v-2.887l2.5,1.444Z"/>
    <path class="top-light" d="M90,288.675v-2.887l2.5,1.443Z"/>
    <path class="top-light" d="M152.5,252.59v-2.886l2.5,1.443Z"/>
    <path class="top-light" d="M165,245.373v-2.886l2.5,1.443Z"/>
    <path class="top-light" d="M177.5,238.156V235.27l2.5,1.443Z"/>
    <path class="top-light" d="M127.5,267.024v-2.887l2.5,1.444Z"/>
    <path class="top-light" d="M102.5,281.458v-2.887l2.5,1.443Z"/>
    <path class="exterior-L-light" d="M32.5,163.101l7.5,4.33v51.962l-7.5-4.331Z"/>
    <path class="exterior-L-light" d="M112.5,163.101l7.5,4.33v51.962l-7.5-4.33Z"/>
    <path class="exterior-L-light" d="M72.5,186.195l7.5,4.33v51.962l-7.5-4.33Z"/>
    <path class="exterior-R-light" d="M47.5,163.101l-7.5,4.33v51.962l7.5-4.331Z"/>
    <path class="exterior-R-light" d="M127.5,163.101l-7.5,4.33v51.962l7.5-4.33Z"/>
    <path class="exterior-R-light" d="M87.5,186.195l-7.5,4.33v51.962l7.5-4.33Z"/>
    <path class="slope-top-prim" d="M92.5,62.065v5.773L80,75.055,67.5,67.838V62.065L80,54.848Z"/>
    <path class="exterior-L-light" d="M85,173.205v14.433l-5,2.887L27.5,160.214V145.78L80,176.091Z"/>
    <path class="exterior-L-light" d="M85,242.487v8.66l-5,2.887L27.5,223.723v-8.66L80,245.373Z"/>
    <path class="exterior-R-light" d="M80,190.525l52.5-30.311V145.78L80,176.091Z"/>
    <path class="exterior-R-light" d="M80,254.034l52.5-30.311v-8.66L80,245.373Z"/>
    <path class="crown-top-prim" d="M25,147.224v-2.887l55-31.754,55,31.754v2.887L80,178.978Z"/>
    <path class="crown-top-prim" d="M35,138.564V132.79l45-25.981,45,25.981v5.774l-45,25.98Z"/>
    <path class="crown-L-prim" d="M35,144.337l45,25.981,3.75-2.165V156.606L80,158.771,35,132.79Z"/>
    <path class="crown-R-prim" d="M125,132.79,80,158.771v11.547l45-25.981Z"/>
    <path class="crown-L-prim" d="M25,144.337l55,31.754,5-2.886v5.773l-5,2.887L25,150.111Z"/>
    <path class="crown-R-prim" d="M135,144.337v5.774L80,181.865v-5.774Z"/>
    <path class="slope-L-dark" d="M80,147.224l2.5-1.444v-5.773L80,141.45,55,127.017v5.773Z"/>
    <path class="slope-R-prim" d="M105,127.017,90,63.508,80,69.282l-2.5-1.444v72.169L80,141.45Z"/>
    <path class="slope-L-prim" d="M55,127.017,80,141.45V69.282L70,63.508Z"/>
    <path class="slope-L-prim" d="M80,66.395l-7.5-4.33V47.631l7.5,4.33Z"/>
    <path class="slope-R-prim" d="M87.5,62.065,80,66.395V51.961l7.5-4.33Z"/>
    <path class="slope-R-dark" d="M105,127.017v5.773L80,147.224V141.45Z"/>
    <path class="slope-L-dark" d="M80,75.055l2.5-1.443V67.838L80,69.282,67.5,62.065v5.773Z"/>
    <path class="slope-R-dark" d="M92.5,62.065v5.773L80,75.055V69.282Z"/>
    <path class="slope-top-prim" d="M90,49.074v5.774L80,60.621,70,54.848V49.074l10-5.773Z"/>
    <path class="slope-top-prim" d="M75,34.641l5,2.886,5-2.886V31.754l-5-2.887-5,2.887Z"/>
    <path class="slope-top-prim" d="M77.5,4.33,80,5.773,82.5,4.33V1.443L80,0,77.5,1.443Z"/>
    <path class="slope-L-dark" d="M80,60.621l2.5-1.443V53.404L80,54.848,70,49.074v5.774Z"/>
    <path class="slope-R-dark" d="M90,49.074v5.774L80,60.621V54.848Z"/>
    <path class="slope-L-prim" d="M81.25,33.919v17.32L80,51.961l-5-2.887V31.754l5,2.887Z"/>
    <path class="slope-L-prim" d="M81.25,2.165V32.476L80,33.197l-2.5-1.443V1.443L80,2.886Z"/>
    <path class="slope-R-prim" d="M85,49.074l-5,2.887V34.641l5-2.887Z"/>
    <path class="slope-R-prim" d="M82.5,31.754,80,33.197V2.886l2.5-1.443Z"/>
    <path class="exterior-L-light" d="M30,161.658v2.886l10,5.774v-2.887Z"/>
    <path class="exterior-L-light" d="M70,184.752v2.886l10,5.774v-2.887Z"/>
    <path class="exterior-R-light" d="M90,184.752v2.886l-10,5.774v-2.887Z"/>
    <path class="exterior-R-light" d="M120,167.431v2.887l10-5.774v-2.886Z"/>
    <path class="exterior-L-light" d="M50,213.619v-5.773l30,17.32v5.774Z"/>
    <path class="exterior-R-light" d="M110,207.846v5.773L80,230.94v-5.774Z"/>
  </g>
</svg>
