<svg id="Layer_1" data-name="Layer 1" xmlns="http://www.w3.org/2000/svg" viewBox="0 0 249.8 190.57">
  <defs>
    <style>
      .top-light {
        fill: #fac7c6;
      }

      .exterior-R-prim {
        fill: #d15752;
      }

      .exterior-L-prim {
        fill: #73302f;
      }

      .cls-1 {
        fill: #fff;
      }

      .cls-2 {
        fill: #bababa;
      }

      .top-dark {
        fill: #c67471;
      }

      .cls-3 {
        fill: #f9f9fa;
      }

      .cls-4 {
        fill: #d2d2d2;
      }

      .cls-5 {
        fill: #474747;
      }

      .top-prim {
        fill: #dd8987;
      }
    </style>
  </defs>
  <title>Artboard 8</title>
  <g id="Group">
    <g id="Group-2">
      <path id="Path" class="top-light" d="M0,92.38l89.8,52L249.8,52,160,0Z"/>
      <path id="Path-2" class="exterior-R-prim" d="M249.8,98.15V52l-160,92.38v46.19Z"/>
      <path id="Path-3" class="exterior-L-prim" d="M0,139.2V92.38l89.8,52v46.19Z"/>
      <path id="Path-4" class="cls-1" d="M121.6,143.3,218,87.64c1-.57,1.8-.11,1.8,1v7.39a4,4,0,0,1-1.8,3.12l-96.4,55.66c-1,.57-1.8.1-1.8-1v-7.39A4,4,0,0,1,121.6,143.3Z"/>
      <path id="Path-5" class="cls-2" d="M160,11.55,229.8,52l-140,80.83L20,92.38Z"/>
      <path id="Path-6" class="exterior-L-prim" d="M160,11.55v5.77l64.8,37.53,5-2.89Z"/>
      <path id="Path-7" class="exterior-R-prim" d="M20,92.38,160,11.55v5.77L25,95.26Z"/>
      <path id="Path-8" class="top-dark" d="M50,80.83l90-52,30,17.32-90,52Z"/>
      <path id="Path-9" class="exterior-R-prim" d="M140,46.19V23.09l-90,52V81l15,8.53Z"/>
      <path id="Path-10" class="exterior-L-prim" d="M140,46.19l15,8.66,15-8.66L140,28.87Z"/>
      <g id="Group-3">
        <path id="Path-11" class="cls-3" d="M106.12,57.92,118.9,65.3,153,45.62l-12.79-7.38Z"/>
        <path id="Path-12" class="cls-2" d="M118.9,65.3V79.06l-12.78-7.38V57.92Z"/>
        <path id="Path-13" class="cls-4" d="M153,45.62V59.38L118.9,79.06V65.3Z"/>
        <path id="Path-14" class="cls-5" d="M121,66.53l8.53-4.92v9.84L121,76.37Z"/>
        <path id="Path-15" class="cls-5" d="M131.69,60.38l8.52-4.92V65.3l-8.52,4.92Z"/>
        <path id="Path-16" class="cls-5" d="M142.34,54.23l8.53-4.92v9.84l-8.53,4.92Z"/>
        <g id="Group-4">
          <ellipse id="Ellipse" class="cls-2" cx="118.6" cy="57.46" rx="4.57" ry="2.64"/>
          <rect id="Rectangle" class="cls-2" x="114.04" y="55.16" width="9.13" height="2.3"/>
          <ellipse id="Ellipse-2" class="cls-1" cx="118.6" cy="55.16" rx="4.57" ry="2.64"/>
        </g>
        <g id="Group-5">
          <ellipse id="Ellipse-3" class="cls-2" cx="129.68" cy="51.26" rx="4.57" ry="2.64"/>
          <rect id="Rectangle-2" class="cls-2" x="125.12" y="48.96" width="9.13" height="2.3"/>
          <ellipse id="Ellipse-4" class="cls-1" cx="129.68" cy="48.96" rx="4.57" ry="2.64"/>
        </g>
        <g id="Group-6">
          <ellipse id="Ellipse-5" class="cls-2" cx="140.76" cy="45.06" rx="4.57" ry="2.64"/>
          <rect id="Rectangle-3" class="cls-2" x="136.2" y="42.76" width="9.13" height="2.3"/>
          <ellipse id="Ellipse-6" class="cls-1" cx="140.76" cy="42.76" rx="4.57" ry="2.64"/>
        </g>
      </g>
      <g id="Group-7">
        <path id="Path-17" class="cls-3" d="M68.12,79.7,80.9,87.08,115,67.39,102.21,60Z"/>
        <path id="Path-18" class="cls-2" d="M80.9,87.08v13.76L68.12,93.46V79.7Z"/>
        <path id="Path-19" class="cls-4" d="M115,67.39V81.16L80.9,100.84V87.08Z"/>
        <path id="Path-20" class="cls-5" d="M83,88.31l8.53-4.92v9.84L83,98.15Z"/>
        <path id="Path-21" class="cls-5" d="M93.69,82.16l8.52-4.92v9.84L93.69,92Z"/>
        <path id="Path-22" class="cls-5" d="M104.34,76l8.53-4.92v9.84l-8.53,4.92Z"/>
        <g id="Group-8">
          <ellipse id="Ellipse-7" class="cls-2" cx="80.6" cy="79.24" rx="4.57" ry="2.64"/>
          <rect id="Rectangle-4" class="cls-2" x="76.04" y="76.94" width="9.13" height="2.3"/>
          <ellipse id="Ellipse-8" class="cls-1" cx="80.6" cy="76.94" rx="4.57" ry="2.64"/>
        </g>
        <g id="Group-9">
          <ellipse id="Ellipse-9" class="cls-2" cx="91.68" cy="73.04" rx="4.57" ry="2.64"/>
          <rect id="Rectangle-5" class="cls-2" x="87.12" y="70.74" width="9.13" height="2.3"/>
          <ellipse id="Ellipse-10" class="cls-1" cx="91.68" cy="70.74" rx="4.57" ry="2.64"/>
        </g>
        <g id="Group-10">
          <ellipse id="Ellipse-11" class="cls-2" cx="102.76" cy="66.84" rx="4.57" ry="2.64"/>
          <rect id="Rectangle-6" class="cls-2" x="98.2" y="64.54" width="9.13" height="2.3"/>
          <ellipse id="Ellipse-12" class="cls-1" cx="102.76" cy="64.54" rx="4.57" ry="2.64"/>
        </g>
      </g>
      <path id="Path-23" class="top-prim" d="M25,95.26,50,80.83,80,98.15l90-52L140,28.87l20-11.55,64.8,37.53-135,77.94Z"/>
    </g>
  </g>
</svg>
