<svg id="Layer_1" data-name="Layer 1" xmlns="http://www.w3.org/2000/svg" xmlns:xlink="http://www.w3.org/1999/xlink" viewBox="0 0 130.11 92.73"><defs><style>.top-prim{fill:#bababa;}.cls-1{fill:#f4f4f4;}.exterior-L-prim{fill:#2e2e2e;}.cls-2{fill:#ddf2fa;}.cls-3{opacity:0.8;}.cls-4{fill:#f6fcfe;}.exterior-R-prim{fill:#5e5e5e;}.cls-5{fill:#1e1d1c;}.cls-6{fill:url(#linear-gradient);}.cls-7{fill:url(#linear-gradient-2);}.cls-8{fill:url(#linear-gradient-3);}.cls-9{fill:url(#linear-gradient-4);}.cls-10{fill:#fff;}.cls-11{fill:#a2a2a1;}.cls-12{fill:#e9e8e8;}.cls-13{fill:#a6998e;}.cls-14{fill:#dbc8b9;}.cls-15{fill:url(#linear-gradient-5);}.cls-16{fill:url(#linear-gradient-6);}.cls-17{fill:url(#linear-gradient-7);}.cls-18{fill:url(#linear-gradient-8);}.cls-19{fill:#a1ddf2;}.cls-20{fill:#72cfe9;}.cls-21{fill:#47b5cf;}.cls-22,.cls-29{fill:none;}.cls-22{stroke:#c0bfbf;stroke-width:0.5px;}.cls-22,.cls-28{stroke-linecap:round;stroke-linejoin:round;}.cls-23{fill:#f2ebe4;}.cls-24{fill:#149964;}.cls-25{fill:#02584b;}.cls-26{fill:url(#linear-gradient-9);}.cls-27{fill:url(#linear-gradient-10);}.cls-28{fill:#94d7e8;}.cls-28,.cls-29{stroke:#47b5cf;stroke-width:0.25px;}.cls-29{stroke-linecap:square;stroke-miterlimit:3;}</style><linearGradient id="linear-gradient" x1="-4044.87" y1="2623.36" x2="-4043.9" y2="2623.58" gradientTransform="matrix(0.79, 0, 0, -2.05, 3263.53, 5390.76)" gradientUnits="userSpaceOnUse"><stop offset="0" stop-color="#332819"/><stop offset="1" stop-color="#603e19"/></linearGradient><linearGradient id="linear-gradient-2" x1="-940.17" y1="2058.89" x2="-939.24" y2="2059.27" gradientTransform="matrix(4.74, 0, 0, -6.39, 4522.72, 13166.32)" gradientUnits="userSpaceOnUse"><stop offset="0" stop-color="#02574b"/><stop offset="1" stop-color="#149d66"/></linearGradient><linearGradient id="linear-gradient-3" x1="-4044.87" y1="2623.36" x2="-4043.9" y2="2623.58" gradientTransform="matrix(0.79, 0, 0, -2.05, 3267.09, 5392.81)" xlink:href="#linear-gradient"/><linearGradient id="linear-gradient-4" x1="-940.17" y1="2058.89" x2="-939.24" y2="2059.27" gradientTransform="matrix(4.74, 0, 0, -6.39, 4526.27, 13168.38)" xlink:href="#linear-gradient-2"/><linearGradient id="linear-gradient-5" x1="-4044.87" y1="2623.36" x2="-4043.9" y2="2623.58" gradientTransform="matrix(0.79, 0, 0, -2.05, 3210.64, 5418.59)" xlink:href="#linear-gradient"/><linearGradient id="linear-gradient-6" x1="-940.17" y1="2058.89" x2="-939.24" y2="2059.26" gradientTransform="matrix(4.74, 0, 0, -6.39, 4469.82, 13194.15)" xlink:href="#linear-gradient-2"/><linearGradient id="linear-gradient-7" x1="-4044.87" y1="2623.36" x2="-4043.9" y2="2623.58" gradientTransform="matrix(0.79, 0, 0, -2.05, 3214.2, 5420.64)" xlink:href="#linear-gradient"/><linearGradient id="linear-gradient-8" x1="-940.17" y1="2058.89" x2="-939.24" y2="2059.27" gradientTransform="matrix(4.74, 0, 0, -6.39, 4473.38, 13196.21)" xlink:href="#linear-gradient-2"/><linearGradient id="linear-gradient-9" x1="-898.65" y1="2373.87" x2="-897.65" y2="2373.87" gradientTransform="matrix(5.08, 0, 0, -2.93, 4627.17, 6975.69)" gradientUnits="userSpaceOnUse"><stop offset="0" stop-color="#02584b"/><stop offset="0.98" stop-color="#149964"/></linearGradient><linearGradient id="linear-gradient-10" x1="-3207.73" y1="3249.91" x2="-3204.17" y2="3248.1" gradientTransform="matrix(1.02, 0, 0, -1.17, 3299.38, 3842.31)" xlink:href="#linear-gradient-9"/></defs><title>1Artboard 5</title><g id="Group"><path id="top-T2" class="top-prim" d="M0,38.73,65.06,76.29l65.05-37.56L65.06,1.17Z"/><path id="Path" class="cls-1" d="M65.06,74l61-35.22L67.09,4.7,6.1,39.91Z"/><path id="Path-2" data-name="Path" class="exterior-L-prim" d="M122,38.73,66.07,6.46V4.11L124,37.56Z"/><path id="Path-3" data-name="Path" class="cls-2" d="M124,37.56l2-1.17-60-34.63V4.11Z"/><g class="cls-3"><path id="Path-4" data-name="Path" class="cls-4" d="M128.08,36.39,66.07.59V1.76l60,34.63Z"/></g><path id="Path-5" data-name="Path" class="cls-2" d="M64,5.28l2-1.17V1.76L62,4.11Z"/><g class="cls-3"><path id="Path-6" data-name="Path" class="cls-4" d="M66.07.59,61,3.52l1,.59,4.06-2.35Z"/></g><path id="Path-7" data-name="Path" class="exterior-R-prim" d="M69.12,5.87V8.22L67.09,7Z"/><path id="body-R2" class="exterior-R-prim" d="M130.11,55.17V38.73L65.06,76.29V92.73Z"/><path id="body-L2" class="exterior-L-prim" d="M0,55.17V38.73L65.06,76.29V92.73Z"/><g id="Group-2" data-name="Group"><path id="Path-8" data-name="Path" class="cls-5" d="M67.29,13.45,72,16.19l1.18-.69-4.74-2.74Z"/><g id="Group-3" data-name="Group"><g id="Group-4" data-name="Group"><path id="Compound_Shape" data-name="Compound Shape" class="cls-6" d="M68.87,13.51h0c0,.13-.17.23-.39.23s-.4-.1-.4-.23h0V11.69h.79v1.82Z"/><ellipse id="Ellipse" class="cls-7" cx="68.48" cy="8.82" rx="2.37" ry="3.19"/></g><g id="Group-5" data-name="Group"><path id="Compound_Shape-2" data-name="Compound Shape" class="cls-8" d="M72.43,15.57h0c0,.12-.18.23-.39.23s-.4-.11-.4-.23h0V13.74h.79v1.83Z"/><ellipse id="Ellipse-2" data-name="Ellipse" class="cls-9" cx="72.04" cy="10.87" rx="2.37" ry="3.19"/></g></g></g><path id="Path-9" data-name="Path" class="cls-10" d="M75.86,76.83l42.48-24.52c.35-.2.63,0,.63.36v2.75a1.42,1.42,0,0,1-.63,1.1L75.86,81c-.35.2-.63,0-.63-.36V77.93A1.39,1.39,0,0,1,75.86,76.83Z"/><path id="Path-10" data-name="Path" class="cls-11" d="M10.16,35.21l18.3,10.57V36.39L10.16,25.82Z"/><path id="Path-11" data-name="Path" class="cls-12" d="M54.89,0l18.3,10.56L28.46,36.39,10.16,25.82Z"/><path id="Path-12" data-name="Path" class="top-prim" d="M28.46,45.78,73.19,20V10.56L28.46,36.39Z"/><path id="Path-13" data-name="Path" class="cls-1" d="M68.1,22.89,30.49,44.6v-7L68.1,15.85Z"/><path id="Path-14" data-name="Path" class="top-prim" d="M62,19.37l6.09-3.52v7Z"/><path id="Path-15" data-name="Path" class="exterior-R-prim" d="M12.2,36.39V34L4.07,38.73l2,1.18Z"/><g id="Group-6" data-name="Group"><g id="Group-7" data-name="Group"><path id="Path-16" data-name="Path" class="cls-13" d="M35.08,54.3l-1-.59,1-.59,1,.59Z"/><path id="Path-17" data-name="Path" class="cls-14" d="M37.11,52l-2,1.17,1,.59,2-1.17Z"/></g><g id="Group-8" data-name="Group"><path id="Path-18" data-name="Path" class="cls-13" d="M47.23,61.31l-1-.58,1-.59,1,.59Z"/><path id="Path-19" data-name="Path" class="cls-14" d="M49.26,59l-2,1.18,1,.59,2-1.18Z"/></g><g id="Group-9" data-name="Group"><path id="Path-20" data-name="Path" class="cls-13" d="M55.39,66l-1-.58,1-.59,1,.59Z"/><path id="Path-21" data-name="Path" class="cls-14" d="M57.42,63.67l-2,1.17,1,.59,2-1.18Z"/></g><g id="Group-10" data-name="Group"><path id="Path-22" data-name="Path" class="cls-13" d="M41.18,57.82l-1-.59,1-.58,1,.58Z"/><path id="Path-23" data-name="Path" class="cls-14" d="M43.21,55.47l-2,1.18,1,.58,2-1.17Z"/></g><g id="Group-11" data-name="Group"><path id="Path-24" data-name="Path" class="cls-13" d="M49.34,62.52l-1-.59,1-.58,1,.58Z"/><path id="Path-25" data-name="Path" class="cls-14" d="M51.37,60.17l-2,1.18,1,.58,2-1.17Z"/></g><g id="Group-12" data-name="Group"><path id="Path-26" data-name="Path" class="cls-13" d="M37.11,55.47l-1-.58,1-.59,1,.59Z"/><path id="Path-27" data-name="Path" class="cls-14" d="M39.15,53.12l-2,1.18,1,.59,2-1.18Z"/></g><g id="Group-13" data-name="Group"><path id="Path-28" data-name="Path" class="cls-13" d="M43.21,59l-1-.58,1-.59,1,.59Z"/><path id="Path-29" data-name="Path" class="cls-14" d="M45.25,56.65l-2,1.17,1,.59,2-1.18Z"/></g><g id="Group-14" data-name="Group"><path id="Path-30" data-name="Path" class="cls-13" d="M51.37,63.69l-1-.58,1-.59,1,.59Z"/><path id="Path-31" data-name="Path" class="cls-14" d="M53.4,61.35l-2,1.17,1,.59,2-1.18Z"/></g><g id="Group-15" data-name="Group"><path id="Path-32" data-name="Path" class="cls-13" d="M33.05,52l1,.59-1,.58-1-.58Z"/><path id="Path-33" data-name="Path" class="cls-14" d="M36.1,51.36l-2,1.18-1-.59,2-1.17Z"/></g><g id="Group-16" data-name="Group"><path id="Path-34" data-name="Path" class="cls-13" d="M45.2,59l1,.59-1,.59-1-.59Z"/><path id="Path-35" data-name="Path" class="cls-14" d="M48.25,58.38l-2,1.17-1-.59,2-1.17Z"/></g><g id="Group-17" data-name="Group"><path id="Path-36" data-name="Path" class="cls-13" d="M53.35,63.67l1,.58-1,.59-1-.59Z"/><path id="Path-37" data-name="Path" class="cls-14" d="M56.4,63.08l-2,1.17-1-.58,2-1.18Z"/></g><g id="Group-18" data-name="Group"><path id="Path-38" data-name="Path" class="cls-13" d="M39.15,55.47l1,.59-1,.59-1-.59Z"/><path id="Path-39" data-name="Path" class="cls-14" d="M42.2,54.89l-2,1.17-1-.59,2-1.17Z"/></g></g><g id="Group-19" data-name="Group"><g id="Group-20" data-name="Group"><path id="Path-40" data-name="Path" class="cls-13" d="M84.86,23.19l-1-.58,1-1.77,1,.59Z"/><path id="Path-41" data-name="Path" class="cls-14" d="M82.83,24.37l2-1.18-1-.58-2,1.17Z"/></g><g id="Group-21" data-name="Group"><path id="Path-42" data-name="Path" class="cls-13" d="M91,26.71l-1-.58,1-1.76L92,25Z"/><path id="Path-43" data-name="Path" class="cls-14" d="M88.93,27.89l2-1.18-1-.58-2,1.17Z"/></g><g id="Group-22" data-name="Group"><path id="Path-44" data-name="Path" class="cls-13" d="M97.06,30.23l-1-.58,1-1.76,1,.58Z"/><path id="Path-45" data-name="Path" class="cls-14" d="M95,31.41l2-1.18-1-.58-2,1.17Z"/></g><g id="Group-23" data-name="Group"><path id="Path-46" data-name="Path" class="cls-13" d="M86.9,24.37l-1-.59,1-1.76,1,.59Z"/><path id="Path-47" data-name="Path" class="cls-14" d="M84.86,25.54l2-1.17-1-.59-2,1.17Z"/></g><g id="Group-24" data-name="Group"><path id="Path-48" data-name="Path" class="cls-13" d="M93,27.89l-1-.59,1-1.76,1,.59Z"/><path id="Path-49" data-name="Path" class="cls-14" d="M91,29.06l2-1.17-1-.59-2,1.17Z"/></g><g id="Group-25" data-name="Group"><path id="Path-50" data-name="Path" class="cls-13" d="M99.09,31.41l-1-.59,1-1.76,1,.59Z"/><path id="Path-51" data-name="Path" class="cls-14" d="M97.06,32.58l2-1.17-1-.59-2,1.18Z"/></g><g id="Group-26" data-name="Group"><path id="Path-52" data-name="Path" class="cls-13" d="M101.13,32.58l-1-.58,1-1.77,1,.59Z"/><path id="Path-53" data-name="Path" class="cls-14" d="M99.09,33.76l2-1.18-1-.58-2,1.17Z"/></g><g id="Group-27" data-name="Group"><path id="Path-54" data-name="Path" class="cls-13" d="M103.16,33.76l-1-.59,1-1.76,1,.59Z"/><path id="Path-55" data-name="Path" class="cls-14" d="M101.13,34.93l2-1.17-1-.59-2,1.17Z"/></g><g id="Group-28" data-name="Group"><path id="Path-56" data-name="Path" class="cls-13" d="M105.19,34.93l-1-.59,1-1.76,1,.59Z"/><path id="Path-57" data-name="Path" class="cls-14" d="M103.16,36.1l2-1.17-1-.59-2,1.18Z"/></g><g id="Group-29" data-name="Group"><path id="Path-58" data-name="Path" class="cls-13" d="M88.93,25.54l-1-.59,1-1.76,1,.59Z"/><path id="Path-59" data-name="Path" class="cls-14" d="M86.9,26.71l2-1.17-1-.59-2,1.18Z"/></g><g id="Group-30" data-name="Group"><path id="Path-60" data-name="Path" class="cls-13" d="M95,29.06l-1-.59,1-1.76,1,.59Z"/><path id="Path-61" data-name="Path" class="cls-14" d="M93,30.23l2-1.17-1-.59-2,1.18Z"/></g></g><g id="Group-31" data-name="Group"><g id="Group-32" data-name="Group"><path id="Path-62" data-name="Path" class="cls-14" d="M61.48,63.1l2,1.17,1-.58-2-1.18Z"/><path id="Path-63" data-name="Path" class="cls-13" d="M64.53,64.86l1-.59-1-.58-1,.58Z"/></g><g id="Group-33" data-name="Group"><path id="Path-64" data-name="Path" class="cls-14" d="M67.58,59.58l2,1.17,1-.59L68.6,59Z"/><path id="Path-65" data-name="Path" class="cls-13" d="M70.63,61.34l1-.59-1-.59-1,.59Z"/></g><g id="Group-34" data-name="Group"><g id="Group-35" data-name="Group"><path id="Path-66" data-name="Path" class="cls-14" d="M63.52,61.93l2,1.17,1-.59-2-1.17Z"/><path id="Path-67" data-name="Path" class="cls-13" d="M66.57,63.69l1-.59-1-.59-1,.59Z"/></g></g><g id="Group-36" data-name="Group"><g id="Group-37" data-name="Group"><path id="Path-68" data-name="Path" class="cls-14" d="M69.62,58.4l2,1.18,1-.59-2-1.17Z"/><path id="Path-69" data-name="Path" class="cls-13" d="M72.67,60.16l1-.58-1-.59-1,.59Z"/></g></g><g id="Group-38" data-name="Group"><g id="Group-39" data-name="Group"><path id="Path-70" data-name="Path" class="cls-14" d="M65.55,60.75l2,1.18,1-.59-2-1.18Z"/><path id="Path-71" data-name="Path" class="cls-13" d="M68.6,62.51l1-.58-1-.59-1,.59Z"/></g></g><g id="Group-40" data-name="Group"><g id="Group-41" data-name="Group"><path id="Path-72" data-name="Path" class="cls-14" d="M71.65,57.23l2,1.17,1-.58-2-1.18Z"/><path id="Path-73" data-name="Path" class="cls-13" d="M74.7,59l1-.59-1-.58-1,.58Z"/></g></g></g><g id="Group-42" data-name="Group"><g id="Group-43" data-name="Group"><path id="Path-74" data-name="Path" class="cls-14" d="M66.07,65.73l2,1.17,1-.58-2-1.18Z"/><path id="Path-75" data-name="Path" class="cls-13" d="M69.12,67.49l1-.59-1-.58-1,.58Z"/></g><g id="Group-44" data-name="Group"><path id="Path-76" data-name="Path" class="cls-14" d="M72.17,62.21l2,1.17,1-.58-2-1.18Z"/><path id="Path-77" data-name="Path" class="cls-13" d="M75.22,64l1-.59-1-.58-1,.58Z"/></g><g id="Group-45" data-name="Group"><g id="Group-46" data-name="Group"><path id="Path-78" data-name="Path" class="cls-14" d="M68.1,64.56l2,1.17,1-.59-2-1.17Z"/><path id="Path-79" data-name="Path" class="cls-13" d="M71.15,66.32l1-.59-1-.59-1,.59Z"/></g></g><g id="Group-47" data-name="Group"><g id="Group-48" data-name="Group"><path id="Path-80" data-name="Path" class="cls-14" d="M74.2,61l2,1.17,1-.59-2-1.17Z"/><path id="Path-81" data-name="Path" class="cls-13" d="M77.25,62.8l1-.59-1-.59-1,.59Z"/></g></g><g id="Group-49" data-name="Group"><g id="Group-50" data-name="Group"><path id="Path-82" data-name="Path" class="cls-14" d="M70.14,63.38l2,1.18,1-.59-2-1.17Z"/><path id="Path-83" data-name="Path" class="cls-13" d="M73.19,65.14l1-.58-1-.59-1,.59Z"/></g></g><g id="Group-51" data-name="Group"><g id="Group-52" data-name="Group"><path id="Path-84" data-name="Path" class="cls-14" d="M76.24,59.86l2,1.18,1-.59-2-1.18Z"/><path id="Path-85" data-name="Path" class="cls-13" d="M79.29,61.62l1-.58-1-.59-1,.59Z"/></g></g></g><g id="Group-53" data-name="Group"><g id="Group-54" data-name="Group"><path id="Path-86" data-name="Path" class="cls-14" d="M43.2,32.57l-2-1.17-1,.59,2,1.17Z"/></g><g id="Group-55" data-name="Group"><path id="Path-87" data-name="Path" class="cls-14" d="M37.1,36.09l-2-1.17-1,.59,2,1.17Z"/></g><g id="Group-56" data-name="Group"><g id="Group-57" data-name="Group"><path id="Path-88" data-name="Path" class="cls-14" d="M41.17,33.75l-2-1.18-1,.59,2,1.17Z"/></g></g><g id="Group-58" data-name="Group"><g id="Group-59" data-name="Group"><path id="Path-89" data-name="Path" class="cls-14" d="M35.07,37.27l-2-1.18-1,.59,2,1.17Z"/></g></g><g id="Group-60" data-name="Group"><g id="Group-61" data-name="Group"><path id="Path-90" data-name="Path" class="cls-14" d="M39.13,34.92l-2-1.17-1,.58,2,1.18Z"/></g></g><g id="Group-62" data-name="Group"><g id="Group-63" data-name="Group"><path id="Path-91" data-name="Path" class="cls-14" d="M33,38.44l-2-1.17-.51.29v.59L32,39Z"/></g></g></g><g id="Group-64" data-name="Group"><g id="Group-65" data-name="Group"><path id="Path-92" data-name="Path" class="cls-14" d="M55.4,25.53l-2-1.17-1,.58,2,1.18Z"/></g><g id="Group-66" data-name="Group"><g id="Group-67" data-name="Group"><path id="Path-93" data-name="Path" class="cls-14" d="M59.46,23.18l-2-1.17-1,.59,2,1.17Z"/></g></g><g id="Group-68" data-name="Group"><g id="Group-69" data-name="Group"><path id="Path-94" data-name="Path" class="cls-14" d="M53.37,26.7l-2-1.17-1,.59,2,1.17Z"/></g></g><g id="Group-70" data-name="Group"><g id="Group-71" data-name="Group"><path id="Path-95" data-name="Path" class="cls-14" d="M57.43,24.36l-2-1.18-1,.59,2,1.17Z"/></g></g><g id="Group-72" data-name="Group"><g id="Group-73" data-name="Group"><path id="Path-96" data-name="Path" class="cls-14" d="M51.33,27.88l-2-1.18-1,.59,2,1.17Z"/></g></g></g><g id="Group-74" data-name="Group"><g id="Group-75" data-name="Group"><path id="Path-97" data-name="Path" class="cls-14" d="M85.88,49l2,1.18,1-.59-2-1.17Z"/><path id="Path-98" data-name="Path" class="cls-13" d="M88.93,50.77l1-.58-1-.59-1,.59Z"/></g><g id="Group-76" data-name="Group"><path id="Path-99" data-name="Path" class="cls-14" d="M79.78,52.54l2,1.17,1-.59L80.8,52Z"/><path id="Path-100" data-name="Path" class="cls-13" d="M82.83,54.3l1-.59-1-.59-1,.59Z"/></g><g id="Group-77" data-name="Group"><g id="Group-78" data-name="Group"><path id="Path-101" data-name="Path" class="cls-14" d="M75.72,54.88l2,1.18,1-.59-2-1.17Z"/><path id="Path-102" data-name="Path" class="cls-13" d="M78.77,56.64l1-.58-1-.59-1,.59Z"/></g></g><g id="Group-79" data-name="Group"><g id="Group-80" data-name="Group"><path id="Path-103" data-name="Path" class="cls-14" d="M81.81,51.36l2,1.18,1-.59-2-1.18Z"/><path id="Path-104" data-name="Path" class="cls-13" d="M84.86,53.12l1-.58-1-.59-1,.59Z"/></g></g><g id="Group-81" data-name="Group"><g id="Group-82" data-name="Group"><path id="Path-105" data-name="Path" class="cls-14" d="M77.75,53.71l2,1.17,1-.58-2-1.18Z"/><path id="Path-106" data-name="Path" class="cls-13" d="M80.8,55.47l1-.59-1-.58-1,.58Z"/></g></g><g id="Group-83" data-name="Group"><g id="Group-84" data-name="Group"><path id="Path-107" data-name="Path" class="cls-14" d="M83.85,50.19l2,1.17,1-.59-2-1.17Z"/><path id="Path-108" data-name="Path" class="cls-13" d="M86.9,52l1-.59-1-.59-1,.59Z"/></g></g></g><g id="Group-85" data-name="Group"><g id="Group-86" data-name="Group"><path id="Path-109" data-name="Path" class="cls-14" d="M90.47,51.65l2,1.17,1-.59-2-1.17Z"/><path id="Path-110" data-name="Path" class="cls-13" d="M93.52,53.41l1-.59-1-.59-1,.59Z"/></g><g id="Group-87" data-name="Group"><path id="Path-111" data-name="Path" class="cls-14" d="M84.37,55.17l2,1.17,1-.59-2-1.17Z"/><path id="Path-112" data-name="Path" class="cls-13" d="M87.42,56.93l1-.59-1-.59-1,.59Z"/></g><g id="Group-88" data-name="Group"><g id="Group-89" data-name="Group"><path id="Path-113" data-name="Path" class="cls-14" d="M80.3,57.51l2,1.18,1-.59-2-1.17Z"/><path id="Path-114" data-name="Path" class="cls-13" d="M83.35,59.27l1-.58-1-.59-1,.59Z"/></g></g><g id="Group-90" data-name="Group"><g id="Group-91" data-name="Group"><path id="Path-115" data-name="Path" class="cls-14" d="M86.4,54l2,1.18,1-.59-2-1.17Z"/><path id="Path-116" data-name="Path" class="cls-13" d="M89.45,55.75l1-.58-1-.59-1,.59Z"/></g></g><g id="Group-92" data-name="Group"><g id="Group-93" data-name="Group"><path id="Path-117" data-name="Path" class="cls-14" d="M82.34,56.34l2,1.17,1-.58-2-1.18Z"/><path id="Path-118" data-name="Path" class="cls-13" d="M85.38,58.1l1-.59-1-.58-1,.58Z"/></g></g><g id="Group-94" data-name="Group"><g id="Group-95" data-name="Group"><path id="Path-119" data-name="Path" class="cls-14" d="M88.43,52.82l2,1.17,1-.58-2-1.18Z"/><path id="Path-120" data-name="Path" class="cls-13" d="M91.48,54.58l1-.59-1-.58-1,.58Z"/></g></g></g><g id="Group-96" data-name="Group"><g id="Group-97" data-name="Group"><path id="Path-121" data-name="Path" class="cls-14" d="M98.08,42l2,1.18,1-.59-2-1.17Z"/><path id="Path-122" data-name="Path" class="cls-13" d="M101.13,43.73l1-.58-1-.59-1,.59Z"/></g><g id="Group-98" data-name="Group"><path id="Path-123" data-name="Path" class="cls-14" d="M92,45.49l2,1.18,1-.59-2-1.17Z"/><path id="Path-124" data-name="Path" class="cls-13" d="M95,47.25l1-.58-1-.59-1,.59Z"/></g><g id="Group-99" data-name="Group"><g id="Group-100" data-name="Group"><path id="Path-125" data-name="Path" class="cls-14" d="M100.11,40.8l2,1.17,1-.58-2-1.18Z"/><path id="Path-126" data-name="Path" class="cls-13" d="M103.16,42.56l1-.59-1-.58-1,.58Z"/></g></g><g id="Group-101" data-name="Group"><g id="Group-102" data-name="Group"><path id="Path-127" data-name="Path" class="cls-14" d="M94,44.32l2,1.17,1-.58-2-1.18Z"/><path id="Path-128" data-name="Path" class="cls-13" d="M97.06,46.08l1-.59-1-.58-1,.58Z"/></g></g><g id="Group-103" data-name="Group"><g id="Group-104" data-name="Group"><path id="Path-129" data-name="Path" class="cls-14" d="M90,46.67l2,1.17,1-.59-2-1.17Z"/><path id="Path-130" data-name="Path" class="cls-13" d="M93,48.43l1-.59-1-.59-1,.59Z"/></g></g><g id="Group-105" data-name="Group"><g id="Group-106" data-name="Group"><path id="Path-131" data-name="Path" class="cls-14" d="M96.05,43.15l2,1.17,1-.59-2-1.17Z"/><path id="Path-132" data-name="Path" class="cls-13" d="M99.09,44.91l1-.59-1-.59-1,.59Z"/></g></g></g><g id="Group-107" data-name="Group"><g id="Group-108" data-name="Group"><path id="Path-133" data-name="Path" class="cls-14" d="M102.67,44.6l2,1.18,1-.59-2-1.17Z"/><path id="Path-134" data-name="Path" class="cls-13" d="M105.71,46.36l1-.58-1-.59-1,.59Z"/></g><g id="Group-109" data-name="Group"><path id="Path-135" data-name="Path" class="cls-14" d="M96.57,48.12l2,1.18,1-.59-2-1.17Z"/><path id="Path-136" data-name="Path" class="cls-13" d="M99.62,49.88l1-.58-1-.59-1,.59Z"/></g><g id="Group-110" data-name="Group"><g id="Group-111" data-name="Group"><path id="Path-137" data-name="Path" class="cls-14" d="M104.7,43.43l2,1.17,1-.58-2-1.18Z"/><path id="Path-138" data-name="Path" class="cls-13" d="M107.75,45.19l1-.59-1-.58-1,.58Z"/></g></g><g id="Group-112" data-name="Group"><g id="Group-113" data-name="Group"><path id="Path-139" data-name="Path" class="cls-14" d="M98.6,47l2,1.17,1-.58-2-1.18Z"/><path id="Path-140" data-name="Path" class="cls-13" d="M101.65,48.71l1-.59-1-.58-1,.58Z"/></g></g><g id="Group-114" data-name="Group"><g id="Group-115" data-name="Group"><path id="Path-141" data-name="Path" class="cls-14" d="M94.53,49.3l2,1.17,1-.59-2-1.17Z"/><path id="Path-142" data-name="Path" class="cls-13" d="M97.58,51.06l1-.59-1-.59-1,.59Z"/></g></g><g id="Group-116" data-name="Group"><g id="Group-117" data-name="Group"><path id="Path-143" data-name="Path" class="cls-14" d="M100.63,45.78l2,1.17,1-.59-2-1.17Z"/><path id="Path-144" data-name="Path" class="cls-13" d="M103.68,47.54l1-.59-1-.59-1,.59Z"/></g></g></g><g class="cls-3"><path id="Path-145" data-name="Path" class="cls-2" d="M65.06,75.12l63-36.39V36.39l-63,36.38Z"/></g><g class="cls-3"><path id="Path-146" data-name="Path" class="cls-4" d="M126,36.39h2l-63,36.38V71.6Z"/></g><g class="cls-3"><path id="Path-147" data-name="Path" class="cls-2" d="M2,38.73V36.39l63,36.38v2.35Z"/></g><path id="Path-148" data-name="Path" class="cls-13" d="M49.81,34.63l-7.12-4.11,4.07-2.35,7.11,4.11Z"/><g class="cls-3"><path id="Path-149" data-name="Path" class="cls-4" d="M65.06,71.6l-61-35.21H2l63,36.38Z"/></g><g class="cls-3"><path id="Path-150" data-name="Path" class="cls-2" d="M12.2,34V31.69l-8.13,4.7,2,1.17"/></g><g class="cls-3"><path id="Path-151" data-name="Path" class="cls-4" d="M2,36.39l9.15-5.29,1,.59-8.13,4.7Z"/></g><g id="Group-118" data-name="Group"><path id="Path-152" data-name="Path" class="cls-5" d="M14.4,41.28,19.14,44l1.19-.69-4.74-2.74Z"/><g id="Group-119" data-name="Group"><g id="Group-120" data-name="Group"><path id="Compound_Shape-3" data-name="Compound Shape" class="cls-15" d="M16,41.34h0c0,.13-.18.23-.39.23s-.4-.1-.4-.23h0V39.52H16v1.82Z"/><ellipse id="Ellipse-3" data-name="Ellipse" class="cls-16" cx="15.59" cy="36.65" rx="2.37" ry="3.19"/></g><g id="Group-121" data-name="Group"><path id="Compound_Shape-4" data-name="Compound Shape" class="cls-17" d="M19.54,43.4h0c0,.12-.18.23-.4.23s-.39-.11-.39-.23h0V41.57h.79V43.4Z"/><ellipse id="Ellipse-4" data-name="Ellipse" class="cls-18" cx="19.14" cy="38.7" rx="2.37" ry="3.19"/></g></g></g><g id="Group-122" data-name="Group"><path id="Path-153" data-name="Path" class="cls-19" d="M40.14,40.8l6.1,3.52L36.07,50.19l22.87,13.2,44.73-25.82L80.8,24.37,70.63,30.23l-6.1-3.52Z"/><path id="Path-154" data-name="Path" class="cls-20" d="M80.8,24.37v2.34L70.63,32.58V30.23Z"/><path id="Path-155" data-name="Path" class="cls-21" d="M64.53,26.71v2.35l6.1,3.52V30.23Z"/><path id="Path-156" data-name="Path" class="cls-20" d="M42.17,42,64.53,29.06V26.71L40.14,40.8Z"/><path id="Path-157" data-name="Path" class="cls-20" d="M46.24,44.32v2.35l-8.13,4.69-2-1.17Z"/><path id="Path-158" data-name="Path" class="cls-21" d="M80.8,26.71V24.37l22.87,13.2-2,1.17Z"/><path id="Path-159" data-name="Path" class="cls-19" d="M50.3,34.93l1,.59,4.07-2.35-1-.59Z"/><path id="Path-160" data-name="Path" class="cls-19" d="M51.32,36.69l1,.59,4.06-2.35-1-.59Z"/><path id="Path-161" data-name="Path" class="cls-20" d="M51.32,36.69V35.52l4.07-2.35v1.17Z"/><path id="Path-162" data-name="Path" class="cls-20" d="M52.34,37.28v1.17L56.4,36.1V34.93Z"/><path id="Path-163" data-name="Path" class="cls-21" d="M50.3,37.28l2,1.17V37.28l-1-.59V35.52l-1-.59Z"/><g id="Group-123" data-name="Group"><path id="Path-164" data-name="Path" class="cls-14" d="M58.94,64v-.59l44.73-25.82h1Z"/><path id="Path-165" data-name="Path" class="cls-14" d="M36.07,50.19h-1L58.94,64v-.59Z"/><path id="Path-166" data-name="Path" class="cls-14" d="M80.8,24.37v-.59l23.89,13.79h-1Z"/><path id="Path-167" data-name="Path" class="cls-14" d="M35.06,50.19l10.16-5.87h1L36.07,50.19Z"/><path id="Path-168" data-name="Path" class="cls-14" d="M40.14,40.8h-1l6.1,3.52h1Z"/><path id="Path-169" data-name="Path" class="cls-14" d="M70.63,30.23v-.58L80.8,23.78v.59Z"/><path id="Path-170" data-name="Path" class="cls-14" d="M39.12,40.8,64.53,26.13v.58L40.14,40.8Z"/><path id="Path-171" data-name="Path" class="cls-14" d="M70.63,29.65l-6.1-3.52v.58l6.1,3.52Z"/></g><path id="Path-172" data-name="Path" class="cls-22" d="M54.88,37.57V36.4L51.32,32v1.17"/></g><g id="Group-124" data-name="Group"><path id="Path-173" data-name="Path" class="cls-14" d="M68.1,22.89V22.3l-.5.3v.58Z"/><path id="Path-174" data-name="Path" class="cls-13" d="M67.6,22.6h0v.58l-.51-.29Z"/><path id="Path-175" data-name="Path" class="cls-23" d="M66.07,22.89l2-1.18L63,18.78,61,20Z"/><path id="Path-176" data-name="Path" class="cls-14" d="M68.1,22.3v-.59l-2,1.18v.59Z"/><path id="Path-177" data-name="Path" class="cls-13" d="M61,20l-.51.3,5.59,3.23v-.59Z"/><path id="Path-178" data-name="Path" class="cls-14" d="M66.58,23.77v-.59l-.51.3v.58Z"/><path id="Path-179" data-name="Path" class="cls-14" d="M64.55,22.6,64,22.3v.59Z"/><path id="Path-180" data-name="Path" class="cls-14" d="M62.51,21.43l-.5-.3v.59Z"/><path id="Path-181" data-name="Path" class="cls-13" d="M64.55,23.18l.51.3v-.59l-.51-.29Z"/><path id="Path-182" data-name="Path" class="cls-13" d="M62.51,22l.51.29v-.59l-.51-.29Z"/><path id="Path-183" data-name="Path" class="cls-13" d="M60.48,20.84l.51.29v-.58l-.51-.3Z"/><path id="Path-184" data-name="Path" class="cls-14" d="M65.56,23.18l-.5.3v-.59Z"/><path id="Path-185" data-name="Path" class="cls-14" d="M63.53,22,63,22.3v-.59Z"/><path id="Path-186" data-name="Path" class="cls-14" d="M61.5,20.84l-.51.29v-.58Z"/><path id="Path-187" data-name="Path" class="cls-13" d="M66.07,24.06l-.51-.29v-.59l.51.3Z"/><path id="Path-188" data-name="Path" class="cls-13" d="M64,22.89l-.51-.29V22l.51.29Z"/><path id="Path-189" data-name="Path" class="cls-13" d="M62,21.72l-.51-.29v-.59l.51.29Z"/><path id="Path-190" data-name="Path" class="cls-24" d="M66.07,22.3v-.59l1-.58v.58Z"/><path id="Path-191" data-name="Path" class="cls-25" d="M61.5,19.66l.51-.29,4.06,2.34v.59Z"/><path id="Path-192" data-name="Path" class="cls-26" d="M67.09,21.13,63,18.78l-1,.59,4.06,2.34Z"/></g><g id="Group-125" data-name="Group"><path id="Path-193" data-name="Path" class="cls-14" d="M32.53,43.43v-.59l-.51.3v.58Z"/><path id="Path-194" data-name="Path" class="cls-13" d="M32,43.14h0v.58l-.51-.29Z"/><path id="Path-195" data-name="Path" class="cls-23" d="M30.49,43.43l2-1.17-2-1.18v2.35Z"/><path id="Path-196" data-name="Path" class="cls-14" d="M32.53,42.84v-.58l-2,1.17V44Z"/><path id="Path-197" data-name="Path" class="cls-14" d="M31,44.31v-.59l-.51.3v.58Z"/><path id="Path-198" data-name="Path" class="cls-24" d="M30.49,42.84v-.58l1-.59v.59Z"/><path id="Path-199" data-name="Path" class="cls-27" d="M31.51,41.67l-1-.59v1.18h0Z"/></g><g id="Group-126" data-name="Group"><path id="Path-200" data-name="Path" class="top-prim" d="M13.21,25.24l16.27,9.39,1-.59L14.23,24.65Z"/><path id="Path-201" data-name="Path" class="cls-11" d="M14.23,25.82V24.65l-1,.59Z"/></g><g id="Group-127" data-name="Group"><path id="Path-202" data-name="Path" class="top-prim" d="M29.48,15.85l16.26,9.39,1-.59L30.49,15.26Z"/><path id="Path-203" data-name="Path" class="cls-11" d="M30.49,16.43V15.26l-1,.59Z"/></g><g id="Group-128" data-name="Group"><path id="Path-204" data-name="Path" class="top-prim" d="M21.35,20.54l16.26,9.39,1-.59L22.36,20Z"/><path id="Path-205" data-name="Path" class="cls-11" d="M22.36,21.13V20l-1,.59Z"/></g><g id="Group-129" data-name="Group"><path id="Path-206" data-name="Path" class="top-prim" d="M37.61,11.15l16.26,9.39,1-.59L38.63,10.56Z"/><path id="Path-207" data-name="Path" class="cls-11" d="M38.63,11.74V10.56l-1,.59Z"/></g><g id="Group-130" data-name="Group"><path id="Path-208" data-name="Path" class="top-prim" d="M17.28,22.89l16.26,9.39,1-.59L18.3,22.3Z"/><path id="Path-209" data-name="Path" class="cls-11" d="M18.3,23.48V22.3l-1,.59Z"/></g><g id="Group-131" data-name="Group"><path id="Path-210" data-name="Path" class="top-prim" d="M33.54,13.5l16.27,9.39,1-.59L34.56,12.91Z"/><path id="Path-211" data-name="Path" class="cls-11" d="M34.56,14.09V12.91l-1,.59Z"/></g><g id="Group-132" data-name="Group"><path id="Path-212" data-name="Path" class="top-prim" d="M25.41,18.19l16.27,9.39,1-.58L26.43,17.61Z"/><path id="Path-213" data-name="Path" class="cls-11" d="M26.43,18.78V17.61l-1,.58Z"/></g><g id="Group-133" data-name="Group"><path id="Path-214" data-name="Path" class="top-prim" d="M41.68,8.8l16.26,9.39,1-.58L42.69,8.22Z"/><path id="Path-215" data-name="Path" class="cls-11" d="M42.69,9.39V8.22l-1,.58Z"/></g><g id="Group-134" data-name="Group"><path id="Path-216" data-name="Path" class="top-prim" d="M43.71,7.63,60,17l1-.59L44.73,7Z"/><path id="Path-217" data-name="Path" class="cls-11" d="M44.73,8.22V7l-1,.59Z"/></g><g id="Group-135" data-name="Group"><path id="Path-218" data-name="Path" class="top-prim" d="M47.77,5.28,64,14.67l1-.58L48.79,4.7Z"/><path id="Path-219" data-name="Path" class="cls-11" d="M48.79,5.87V4.7l-1,.58Z"/></g><g id="Group-136" data-name="Group"><path id="Path-220" data-name="Path" class="top-prim" d="M45.74,6.46,62,15.85l1-.59L46.76,5.87Z"/><path id="Path-221" data-name="Path" class="cls-11" d="M46.76,7V5.87l-1,.59Z"/></g><g id="Group-137" data-name="Group"><path id="Path-222" data-name="Path" class="top-prim" d="M15.25,24.06l16.26,9.39,1-.58L16.26,23.48Z"/><path id="Path-223" data-name="Path" class="cls-11" d="M16.26,24.65V23.48l-1,.58Z"/></g><g id="Group-138" data-name="Group"><path id="Path-224" data-name="Path" class="top-prim" d="M31.51,14.67l16.26,9.39,1-.58L32.53,14.09Z"/><path id="Path-225" data-name="Path" class="cls-11" d="M32.53,15.26V14.09l-1,.58Z"/></g><g id="Group-139" data-name="Group"><path id="Path-226" data-name="Path" class="top-prim" d="M23.38,19.37l16.26,9.39,1-.59L24.4,18.78Z"/><path id="Path-227" data-name="Path" class="cls-11" d="M24.4,20V18.78l-1,.59Z"/></g><g id="Group-140" data-name="Group"><path id="Path-228" data-name="Path" class="top-prim" d="M39.64,10l16.27,9.39,1-.59L40.66,9.39Z"/><path id="Path-229" data-name="Path" class="cls-11" d="M40.66,10.56V9.39l-1,.59Z"/></g><g id="Group-141" data-name="Group"><path id="Path-230" data-name="Path" class="top-prim" d="M19.31,21.71,35.58,31.1l1-.58L20.33,21.13Z"/><path id="Path-231" data-name="Path" class="cls-11" d="M20.33,22.3V21.13l-1,.58Z"/></g><g id="Group-142" data-name="Group"><path id="Path-232" data-name="Path" class="top-prim" d="M35.58,12.32l16.26,9.39,1-.58L36.59,11.74Z"/><path id="Path-233" data-name="Path" class="cls-11" d="M36.59,12.91V11.74l-1,.58Z"/></g><g id="Group-143" data-name="Group"><path id="Path-234" data-name="Path" class="top-prim" d="M27.45,17l16.26,9.39,1-.59L28.46,16.43Z"/><path id="Path-235" data-name="Path" class="cls-11" d="M28.46,17.61V16.43l-1,.59Z"/></g><path id="Path-236" data-name="Path" class="cls-28" d="M68.61,22V15.55l3.56-2.05V20Z"/><line id="Path-237" data-name="Path" class="cls-29" x1="68.61" y1="17.31" x2="72.17" y2="15.26"/><line id="Path-238" data-name="Path" class="cls-29" x1="70.14" y1="21.13" x2="70.14" y2="16.43"/><path id="Path-239" data-name="Path" class="top-prim" d="M72.68,13.21v7l-.51-.3V13.5Z"/><path id="Path-240" data-name="Path" class="cls-1" d="M68.61,22.6V22L72.17,20l.51.3Z"/><path id="Path-241" data-name="Path" class="exterior-R-prim" d="M66.07,6.46V4.11L64,5.28Z"/></g></svg>