<svg id="Layer_1" data-name="Layer 1" xmlns="http://www.w3.org/2000/svg" viewBox="0 0 260 411.0921">
  <defs>
    <style>
      .top-light {
        fill: #fac7c6;
      }

      .top-prim {
        fill: #dd8987;
      }

      .exterior-R-prim {
        fill: #d15752;
      }

      .exterior-L-prim {
        fill: #73302f;
      }

      .cls-1 {
        fill: #c2c1c1;
      }

      .cls-2 {
        fill: #ebebeb;
      }
    </style>
  </defs>
  <title>Artboard 6</title>
  <g id="root">
    <path id="Path" class="top-light" d="M100,411.0921,260,318.716,160,260.981,0,353.357Z"/>
    <path id="Path-2" data-name="Path" class="top-prim" d="M99.9631,399.1171l140-80.8291L170,278.3015,30,359.1305Z"/>
    <path id="Path-3" data-name="Path" class="exterior-R-prim" d="M20,353.357l140-80.829v17.32L35,362.0173Z"/>
    <path id="Path-4" data-name="Path" class="exterior-L-prim" d="M239.9631,318.288l-15,8.66L160,289.8485v-17.32Z"/>
    <ellipse id="Ellipse" class="cls-1" cx="170.9631" cy="210.5063" rx="10" ry="5.7735"/>
    <ellipse id="Ellipse-2" data-name="Ellipse" class="cls-1" cx="170.9631" cy="325.9764" rx="10" ry="5.7735"/>
    <rect id="Rectangle" class="cls-1" x="160.9629" y="210.506" width="20" height="115.47"/>
    <ellipse id="Ellipse-3" data-name="Ellipse" class="cls-2" cx="170.9631" cy="210.5063" rx="10" ry="5.7735"/>
    <ellipse id="Ellipse-4" data-name="Ellipse" class="cls-1" cx="170.9631" cy="209.8461" rx="5" ry="2.8867"/>
    <rect id="Rectangle-2" data-name="Rectangle" class="cls-1" x="165.9629" y="2.887" width="10" height="206.959"/>
    <ellipse id="Ellipse-5" data-name="Ellipse" class="cls-2" cx="170.9631" cy="2.8867" rx="5" ry="2.8867"/>
    <path id="Path-5" data-name="Path" class="exterior-L-prim" d="M130,370.6775v-23.094L90,324.49v23.094Z"/>
    <path id="Path-6" data-name="Path" class="top-light" d="M175,321.6028l-45,25.9807L90,324.49l45-25.9807Z"/>
    <path id="Path-7" data-name="Path" class="exterior-R-prim" d="M130,370.6775l45-25.9807v-23.094l-45,25.9807Z"/>
    <ellipse id="Ellipse-6" data-name="Ellipse" class="cls-1" cx="86.9631" cy="255.8076" rx="10" ry="5.7735"/>
    <ellipse id="Ellipse-7" data-name="Ellipse" class="cls-1" cx="86.9631" cy="371.2776" rx="10" ry="5.7735"/>
    <rect id="Rectangle-3" data-name="Rectangle" class="cls-1" x="76.9629" y="255.808" width="20" height="115.47"/>
    <ellipse id="Ellipse-8" data-name="Ellipse" class="cls-2" cx="86.9631" cy="255.8076" rx="10" ry="5.7735"/>
    <ellipse id="Ellipse-9" data-name="Ellipse" class="cls-1" cx="86.9631" cy="255.1473" rx="5" ry="2.8868"/>
    <rect id="Rectangle-4" data-name="Rectangle" class="cls-1" x="81.9629" y="48.188" width="10" height="206.959"/>
    <ellipse id="Ellipse-10" data-name="Ellipse" class="cls-2" cx="86.9631" cy="48.188" rx="5" ry="2.8867"/>
  </g>
</svg>
