<svg id="Layer_1" data-name="Layer 1" xmlns="http://www.w3.org/2000/svg" viewBox="0 0 170.1 450.33">
  <defs>
    <style>
      .exterior-R-prim {
        fill: #d15752;
      }

      .exterior-L-prim {
        fill: #73302f;
      }

      .top-prim {
        fill: #dd8987;
      }

      .cls-1 {
        fill: #202020;
      }

      .window-R-prim {
        fill: #bd9563;
      }

      .window-L-prim {
        fill: #4d3b25;
      }
    </style>
  </defs>
  <title>Artboard 2</title>
  <path id="exterior-R-prim" class="exterior-R-prim" d="M85.1,98.15,85,450.33l85-49.07.1-352.18Z"/>
  <path id="exterior-L-prim" class="exterior-L-prim" d="M85.1,98.15,85,450.33,0,401.26.1,49.08Z"/>
  <path id="anchor_0_98.15_170" class="top-prim" d="M85,98.15l85-49.07L85,0,0,49.08Z"/>
  <g id="Group">
    <path id="windows-R3" class="cls-1" d="M85.1,103.92l85-49.07v8.66l-13.68,7.9L85.1,112.58Z"/>
    <path id="windows-R3-2" data-name="windows-R3" class="window-R-prim" d="M85.1,103.92l85-49.07v8.66l-13.68,7.9L85.1,112.58Z"/>
  </g>
  <g id="Group-2" data-name="Group">
    <path id="windows-R3-3" data-name="windows-R3" class="cls-1" d="M85.1,132.79l85-49.07v8.66l-13.68,7.9L85.1,141.45Z"/>
    <path id="windows-R3-4" data-name="windows-R3" class="window-R-prim" d="M85.1,132.79l85-49.07v8.66l-13.68,7.9L85.1,141.45Z"/>
  </g>
  <g id="Group-3" data-name="Group">
    <path id="windows-R3-5" data-name="windows-R3" class="cls-1" d="M85.1,161.66l85-49.08v8.66l-13.68,7.91L85.1,170.32Z"/>
    <path id="windows-R3-6" data-name="windows-R3" class="window-R-prim" d="M85.1,161.66l85-49.08v8.66l-13.68,7.91L85.1,170.32Z"/>
  </g>
  <g id="Group-4" data-name="Group">
    <path id="windows-R3-7" data-name="windows-R3" class="cls-1" d="M85.1,190.53l85-49.08v8.66l-13.68,7.9L85.1,199.19Z"/>
    <path id="windows-R3-8" data-name="windows-R3" class="window-R-prim" d="M85.1,190.53l85-49.08v8.66l-13.68,7.9L85.1,199.19Z"/>
  </g>
  <g id="Group-5" data-name="Group">
    <path id="windows-R3-9" data-name="windows-R3" class="cls-1" d="M85.1,219.39l85-49.07v8.66l-13.68,7.9L85.1,228.05Z"/>
    <path id="windows-R3-10" data-name="windows-R3" class="window-R-prim" d="M85.1,219.39l85-49.07v8.66l-13.68,7.9L85.1,228.05Z"/>
  </g>
  <g id="Group-6" data-name="Group">
    <path id="windows-R3-11" data-name="windows-R3" class="cls-1" d="M85.1,248.26l85-49.07v8.66l-13.68,7.9L85.1,256.92Z"/>
    <path id="windows-R3-12" data-name="windows-R3" class="window-R-prim" d="M85.1,248.26l85-49.07v8.66l-13.68,7.9L85.1,256.92Z"/>
  </g>
  <g id="Group-7" data-name="Group">
    <path id="windows-R3-13" data-name="windows-R3" class="cls-1" d="M85.1,277.13l85-49.08v8.66l-13.68,7.91L85.1,285.79Z"/>
    <path id="windows-R3-14" data-name="windows-R3" class="window-R-prim" d="M85.1,277.13l85-49.08v8.66l-13.68,7.91L85.1,285.79Z"/>
  </g>
  <g id="Group-8" data-name="Group">
    <path id="windows-R3-15" data-name="windows-R3" class="cls-1" d="M85.1,306l85-49.08v8.66l-13.68,7.9L85.1,314.66Z"/>
    <path id="windows-R3-16" data-name="windows-R3" class="window-R-prim" d="M85.1,306l85-49.08v8.66l-13.68,7.9L85.1,314.66Z"/>
  </g>
  <g id="Group-9" data-name="Group">
    <path id="windows-R3-17" data-name="windows-R3" class="cls-1" d="M85.1,334.86l85-49.07v8.66l-13.68,7.9L85.1,343.52Z"/>
    <path id="windows-R3-18" data-name="windows-R3" class="window-R-prim" d="M85.1,334.86l85-49.07v8.66l-13.68,7.9L85.1,343.52Z"/>
  </g>
  <g id="Group-10" data-name="Group">
    <path id="windows-R3-19" data-name="windows-R3" class="cls-1" d="M85.1,363.73l85-49.07v8.66l-13.68,7.9L85.1,372.39Z"/>
    <path id="windows-R3-20" data-name="windows-R3" class="window-R-prim" d="M85.1,363.73l85-49.07v8.66l-13.68,7.9L85.1,372.39Z"/>
  </g>
  <g id="Group-11" data-name="Group">
    <path id="windows-R3-21" data-name="windows-R3" class="cls-1" d="M85.1,392.6l85-49.08v8.66l-13.68,7.91L85.1,401.26Z"/>
    <path id="windows-R3-22" data-name="windows-R3" class="window-R-prim" d="M85.1,392.6l85-49.08v8.66l-13.68,7.91L85.1,401.26Z"/>
  </g>
  <g id="Group-12" data-name="Group">
    <path id="windows-R3-23" data-name="windows-R3" class="cls-1" d="M85.1,421.47l85-49.08v8.66l-13.68,7.9L85.1,430.13Z"/>
    <path id="windows-R3-24" data-name="windows-R3" class="window-R-prim" d="M85.1,421.47l85-49.08v8.66l-13.68,7.9L85.1,430.13Z"/>
  </g>
  <g id="Group-13" data-name="Group">
    <path id="windows-R3-25" data-name="windows-R3" class="cls-1" d="M85.1,118.36l85-49.08v8.66l-13.68,7.9L85.1,127.02Z"/>
    <path id="windows-R3-26" data-name="windows-R3" class="window-R-prim" d="M85.1,118.36l85-49.08v8.66l-13.68,7.9L85.1,127.02Z"/>
  </g>
  <g id="Group-14" data-name="Group">
    <path id="windows-R3-27" data-name="windows-R3" class="cls-1" d="M85.1,147.22l85-49.07v8.66l-13.68,7.9L85.1,155.88Z"/>
    <path id="windows-R3-28" data-name="windows-R3" class="window-R-prim" d="M85.1,147.22l85-49.07v8.66l-13.68,7.9L85.1,155.88Z"/>
  </g>
  <g id="Group-15" data-name="Group">
    <path id="windows-R3-29" data-name="windows-R3" class="cls-1" d="M85.1,176.09l85-49.07v8.66l-13.68,7.9L85.1,184.75Z"/>
    <path id="windows-R3-30" data-name="windows-R3" class="window-R-prim" d="M85.1,176.09l85-49.07v8.66l-13.68,7.9L85.1,184.75Z"/>
  </g>
  <g id="Group-16" data-name="Group">
    <path id="windows-R3-31" data-name="windows-R3" class="cls-1" d="M85.1,204.96l85-49.07v8.66l-13.68,7.9L85.1,213.62Z"/>
    <path id="windows-R3-32" data-name="windows-R3" class="window-R-prim" d="M85.1,204.96l85-49.07v8.66l-13.68,7.9L85.1,213.62Z"/>
  </g>
  <g id="Group-17" data-name="Group">
    <path id="windows-R3-33" data-name="windows-R3" class="cls-1" d="M85.1,233.83l85-49.08v8.66l-13.68,7.9L85.1,242.49Z"/>
    <path id="windows-R3-34" data-name="windows-R3" class="window-R-prim" d="M85.1,233.83l85-49.08v8.66l-13.68,7.9L85.1,242.49Z"/>
  </g>
  <g id="Group-18" data-name="Group">
    <path id="windows-R3-35" data-name="windows-R3" class="cls-1" d="M85.1,262.69l85-49.07v8.66l-13.68,7.9L85.1,271.35Z"/>
    <path id="windows-R3-36" data-name="windows-R3" class="window-R-prim" d="M85.1,262.69l85-49.07v8.66l-13.68,7.9L85.1,271.35Z"/>
  </g>
  <g id="Group-19" data-name="Group">
    <path id="windows-R3-37" data-name="windows-R3" class="cls-1" d="M85.1,291.56l85-49.07v8.66l-13.68,7.9L85.1,300.22Z"/>
    <path id="windows-R3-38" data-name="windows-R3" class="window-R-prim" d="M85.1,291.56l85-49.07v8.66l-13.68,7.9L85.1,300.22Z"/>
  </g>
  <g id="Group-20" data-name="Group">
    <path id="windows-R3-39" data-name="windows-R3" class="cls-1" d="M85.1,320.43l85-49.08v8.67l-13.68,7.9L85.1,329.09Z"/>
    <path id="windows-R3-40" data-name="windows-R3" class="window-R-prim" d="M85.1,320.43l85-49.08v8.67l-13.68,7.9L85.1,329.09Z"/>
  </g>
  <g id="Group-21" data-name="Group">
    <path id="windows-R3-41" data-name="windows-R3" class="cls-1" d="M85.1,349.3l85-49.08v8.66l-13.68,7.9L85.1,357.96Z"/>
    <path id="windows-R3-42" data-name="windows-R3" class="window-R-prim" d="M85.1,349.3l85-49.08v8.66l-13.68,7.9L85.1,357.96Z"/>
  </g>
  <g id="Group-22" data-name="Group">
    <path id="windows-R3-43" data-name="windows-R3" class="cls-1" d="M85.1,378.16l85-49.07v8.66l-13.68,7.9L85.1,386.83Z"/>
    <path id="windows-R3-44" data-name="windows-R3" class="window-R-prim" d="M85.1,378.16l85-49.07v8.66l-13.68,7.9L85.1,386.83Z"/>
  </g>
  <g id="Group-23" data-name="Group">
    <path id="windows-R3-45" data-name="windows-R3" class="cls-1" d="M85.1,407.03l85-49.07v8.66l-13.68,7.9L85.1,415.69Z"/>
    <path id="windows-R3-46" data-name="windows-R3" class="window-R-prim" d="M85.1,407.03l85-49.07v8.66l-13.68,7.9L85.1,415.69Z"/>
  </g>
  <g id="Group-24" data-name="Group">
    <path id="windows-R3-47" data-name="windows-R3" class="cls-1" d="M85.1,435.9l85-49.07v8.66l-13.68,7.9L85.1,444.56Z"/>
    <path id="windows-R3-48" data-name="windows-R3" class="window-R-prim" d="M85.1,435.9l85-49.07v8.66l-13.68,7.9L85.1,444.56Z"/>
  </g>
  <path id="windows-L2" class="window-L-prim" d="M85.06,103.92.06,54.85.1,63.51l85,49.07Z"/>
  <path id="windows-L2-2" data-name="windows-L2" class="window-L-prim" d="M85.06,132.79.06,83.72.1,92.38l85,49.07Z"/>
  <path id="windows-L2-3" data-name="windows-L2" class="window-L-prim" d="M85.06,161.66l-85-49.08.04,8.66,85,49.08Z"/>
  <path id="windows-L2-4" data-name="windows-L2" class="window-L-prim" d="M85.06,190.53l-85-49.08.04,8.66,85,49.08Z"/>
  <path id="windows-L2-5" data-name="windows-L2" class="window-L-prim" d="M85.06,219.39l-85-49.07.04,8.66,85,49.07Z"/>
  <path id="windows-L2-6" data-name="windows-L2" class="window-L-prim" d="M85.06,248.26l-85-49.07.04,8.66,85,49.07Z"/>
  <path id="windows-L2-7" data-name="windows-L2" class="window-L-prim" d="M85.06,277.13l-85-49.08.04,8.66,85,49.08Z"/>
  <path id="windows-L2-8" data-name="windows-L2" class="window-L-prim" d="M85.06,306l-85-49.08.04,8.66,85,49.08Z"/>
  <path id="windows-L2-9" data-name="windows-L2" class="window-L-prim" d="M85.06,334.86l-85-49.07.04,8.66,85,49.07Z"/>
  <path id="windows-L2-10" data-name="windows-L2" class="window-L-prim" d="M85.06,363.73l-85-49.07.04,8.66,85,49.07Z"/>
  <path id="windows-L2-11" data-name="windows-L2" class="window-L-prim" d="M85.06,392.6l-85-49.08.04,8.66,85,49.08Z"/>
  <path id="windows-L2-12" data-name="windows-L2" class="window-L-prim" d="M85.06,421.47l-85-49.08.04,8.66,85,49.08Z"/>
  <path id="windows-L2-13" data-name="windows-L2" class="window-L-prim" d="M85.06,118.36.06,69.28.1,77.94l85,49.08Z"/>
  <path id="windows-L2-14" data-name="windows-L2" class="window-L-prim" d="M85.06,147.22.06,98.15l.04,8.66,85,49.07Z"/>
  <path id="windows-L2-15" data-name="windows-L2" class="window-L-prim" d="M85.06,176.09l-85-49.07.04,8.66,85,49.07Z"/>
  <path id="windows-L2-16" data-name="windows-L2" class="window-L-prim" d="M85.06,204.96l-85-49.07.04,8.66,85,49.07Z"/>
  <path id="windows-L2-17" data-name="windows-L2" class="window-L-prim" d="M85.06,233.83l-85-49.08.04,8.66,85,49.08Z"/>
  <path id="windows-L2-18" data-name="windows-L2" class="window-L-prim" d="M85.06,262.69l-85-49.07.04,8.66,85,49.07Z"/>
  <path id="windows-L2-19" data-name="windows-L2" class="window-L-prim" d="M85.06,291.56l-85-49.07.04,8.66,85,49.07Z"/>
  <path id="windows-L2-20" data-name="windows-L2" class="window-L-prim" d="M85.06,320.43l-85-49.08.04,8.67,85,49.07Z"/>
  <path id="windows-L2-21" data-name="windows-L2" class="window-L-prim" d="M85.06,349.3l-85-49.08.04,8.66,85,49.08Z"/>
  <path id="windows-L2-22" data-name="windows-L2" class="window-L-prim" d="M85.06,378.16l-85-49.07.04,8.66,85,49.08Z"/>
  <path id="windows-L2-23" data-name="windows-L2" class="window-L-prim" d="M85.06,407.03l-85-49.07.04,8.66,85,49.07Z"/>
  <path id="windows-L2-24" data-name="windows-L2" class="window-L-prim" d="M85.06,435.9l-85-49.07.04,8.66,85,49.07Z"/>
</svg>
