<svg id="Layer_1" data-name="Layer 1" xmlns="http://www.w3.org/2000/svg" viewBox="0 0 170.1 320.43"><defs><style>.exterior-R-prim{fill:#d15752;}.exterior-L-prim{fill:#73302f;}.window-R-prim{fill:#202020;}.top-prim{fill:#dd8987;}</style></defs><title>Artboard 3</title><g id="Group"><path id="body-R2" class="exterior-R-prim" d="M85,98.15V320.43l85-49.07V49.08Z"/><path id="body-L1" class="exterior-L-prim" d="M85,98.15V320.43L0,271.36V49.08Z"/><g id="Group-2" data-name="Group"><path id="windows-R3" class="window-R-prim" d="M85.1,118.36l85-49.07V78l-13.68,7.9L85.1,127Z"/><path id="windows-L2" d="M85.06,118.36.06,69.29.1,78,85.1,127Z"/></g><g id="Group-3" data-name="Group"><path id="windows-R3-2" data-name="windows-R3" class="window-R-prim" d="M85.1,147.23l85-49.08v8.66l-13.68,7.91L85.1,155.89Z"/><path id="windows-L2-2" data-name="windows-L2" d="M85.06,147.23.06,98.15l0,8.66,85,49.08Z"/></g><g id="Group-4" data-name="Group"><path id="windows-R3-3" data-name="windows-R3" class="window-R-prim" d="M85.1,176.1l85-49.08v8.66l-13.68,7.9L85.1,184.76Z"/><path id="windows-L2-3" data-name="windows-L2" d="M85.06,176.1.06,127l0,8.66,85,49.08Z"/></g><g id="Group-5" data-name="Group"><path id="windows-R3-4" data-name="windows-R3" class="window-R-prim" d="M85.1,205l85-49.07v8.66l-13.68,7.9L85.1,213.62Z"/><path id="windows-L2-4" data-name="windows-L2" d="M85.06,205l-85-49.07,0,8.66,85,49.07Z"/></g><g id="Group-6" data-name="Group"><path id="windows-R3-5" data-name="windows-R3" class="window-R-prim" d="M85.1,233.83l85-49.07v8.66l-13.68,7.9L85.1,242.49Z"/><path id="windows-L2-5" data-name="windows-L2" d="M85.06,233.83l-85-49.07,0,8.66,85,49.07Z"/></g><g id="Group-7" data-name="Group"><path id="windows-R3-6" data-name="windows-R3" class="window-R-prim" d="M85.1,262.7l85-49.08v8.66l-13.68,7.91L85.1,271.36Z"/><path id="windows-L2-6" data-name="windows-L2" d="M85.06,262.7l-85-49.08,0,8.66,85,49.08Z"/></g><g id="Group-8" data-name="Group"><path id="windows-R3-7" data-name="windows-R3" class="window-R-prim" d="M85.1,291.57l85-49.08v8.66l-13.68,7.9L85.1,300.23Z"/><path id="windows-L2-7" data-name="windows-L2" d="M85.06,291.57l-85-49.08,0,8.66,85,49.08Z"/></g><g id="Group-9" data-name="Group"><path id="windows-R3-8" data-name="windows-R3" class="window-R-prim" d="M85.1,103.93l85-49.08v8.66l-13.68,7.9L85.1,112.59Z"/><path id="windows-L2-8" data-name="windows-L2" d="M85.06,103.93.06,54.85l0,8.66,85,49.08Z"/></g><g id="Group-10" data-name="Group"><path id="windows-R3-9" data-name="windows-R3" class="window-R-prim" d="M85.1,132.79l85-49.07v8.66l-13.68,7.9L85.1,141.45Z"/><path id="windows-L2-9" data-name="windows-L2" d="M85.06,132.79.06,83.72l0,8.66,85,49.07Z"/></g><g id="Group-11" data-name="Group"><path id="windows-R3-10" data-name="windows-R3" class="window-R-prim" d="M85.1,161.66l85-49.07v8.66l-13.68,7.9L85.1,170.32Z"/><path id="windows-L2-10" data-name="windows-L2" d="M85.06,161.66l-85-49.07,0,8.66,85,49.07Z"/></g><g id="Group-12" data-name="Group"><path id="windows-R3-11" data-name="windows-R3" class="window-R-prim" d="M85.1,190.53l85-49.08v8.67L156.42,158,85.1,199.19Z"/><path id="windows-L2-11" data-name="windows-L2" d="M85.06,190.53l-85-49.08,0,8.67,85,49.07Z"/></g><g id="Group-13" data-name="Group"><path id="windows-R3-12" data-name="windows-R3" class="window-R-prim" d="M85.1,219.4l85-49.08V179l-13.68,7.9L85.1,228.06Z"/><path id="windows-L2-12" data-name="windows-L2" d="M85.06,219.4l-85-49.08L.1,179l85,49.08Z"/></g><g id="Group-14" data-name="Group"><path id="windows-R3-13" data-name="windows-R3" class="window-R-prim" d="M85.1,248.26l85-49.07v8.66l-13.68,7.9L85.1,256.93Z"/><path id="windows-L2-13" data-name="windows-L2" d="M85.06,248.26l-85-49.07,0,8.66,85,49.08Z"/></g><g id="Group-15" data-name="Group"><path id="windows-R3-14" data-name="windows-R3" class="window-R-prim" d="M85.1,277.13l85-49.07v8.66l-13.68,7.9L85.1,285.79Z"/><path id="windows-L2-14" data-name="windows-L2" d="M85.06,277.13l-85-49.07,0,8.66,85,49.07Z"/></g><g id="Group-16" data-name="Group"><path id="windows-R3-15" data-name="windows-R3" class="window-R-prim" d="M85.1,306l85-49.07v8.66l-13.68,7.9L85.1,314.66Z"/><path id="windows-L2-15" data-name="windows-L2" d="M85.06,306l-85-49.07,0,8.66,85,49.07Z"/></g><path id="anchor-01_222.28" class="top-prim" d="M85.1,98.15l85-49.07L85.1,0,.1,49.08Z"/></g></svg>