<svg id="Layer_1" data-name="Layer 1" xmlns="http://www.w3.org/2000/svg" viewBox="0 0 170.15 617.76">
    <defs>
        <style>
            .curtain-R-prim-dark {
            fill: #21788c;
            }

            .curtain-L-prim-dark {
            fill: #11424d;
            }

            .top-prim {
            fill: #dd8987;
            }

            .curtain-R-prim-light {
            fill: #2b95ac;
            }

            .curtain-L-prim-light {
            fill: #196273;
            }
        </style>
    </defs>
    <title>Artboard 7</title>
    <g id="root">
        <path id="windows-R3" class="curtain-R-prim-dark" d="M85.15,98.14V617.76l85-49.07V49.07Z"/>
        <path id="windows-L2" class="curtain-L-prim-dark" d="M85.15,98.14V617.76l-85-49.07V49.07Z"/>
        <path id="anchor_0_98.15_170" class="top-prim" d="M85,98.14l85-49.07L85,0,0,49.07Z"/>
        <path id="Path" class="curtain-R-prim-light" d="M85.15,271.35l85-49.07v11.54l-85,49.08Z"/>
        <path id="Path-2" data-name="Path" class="curtain-R-prim-light" d="M85.15,248.26l85-49.08v11.55l-85,49.07Z"/>
        <path id="Path-3" data-name="Path" class="curtain-R-prim-light" d="M85.15,225.16l85-49.07v11.54l-85,49.08Z"/>
        <path id="Path-4" data-name="Path" class="curtain-R-prim-light" d="M85.15,202.07l85-49.08v11.55l-85,49.07Z"/>
        <path id="Path-5" data-name="Path" class="curtain-R-prim-light" d="M85.15,178.97l85-49.07v11.55l-85,49.07Z"/>
        <path id="Path-6" data-name="Path" class="curtain-R-prim-light" d="M85.15,155.88l85-49.07v11.54l-85,49.08Z"/>
        <path id="Path-7" data-name="Path" class="curtain-R-prim-light" d="M85.15,132.79l85-49.08V95.26l-85,49.07Z"/>
        <path id="Path-8" data-name="Path" class="curtain-R-prim-light" d="M85.15,109.69l85-49.07V72.16l-85,49.08Z"/>
        <path id="Path-9" data-name="Path" class="curtain-R-prim-light" d="M85.15,409.91l85-49.07v11.55l-85,49.07Z"/>
        <path id="Path-10" data-name="Path" class="curtain-R-prim-light" d="M85.15,548.48l85-49.08v11.55l-85,49.08Z"/>
        <path id="Path-11" data-name="Path" class="curtain-R-prim-light" d="M85.15,340.63l85-49.07V303.1l-85,49.08Z"/>
        <path id="Path-12" data-name="Path" class="curtain-R-prim-light" d="M85.15,479.2l85-49.08v11.55l-85,49.07Z"/>
        <path id="Path-13" data-name="Path" class="curtain-R-prim-light" d="M85.15,294.44l85-49.07v11.55l-85,49.07Z"/>
        <path id="Path-14" data-name="Path" class="curtain-R-prim-light" d="M85.15,433.01l85-49.08v11.55l-85,49.08Z"/>
        <path id="Path-15" data-name="Path" class="curtain-R-prim-light" d="M85.15,571.57l85-49.07v11.54l-85,49.08Z"/>
        <path id="Path-16" data-name="Path" class="curtain-R-prim-light" d="M85.15,363.73l85-49.08V326.2l-85,49.07Z"/>
        <path id="Path-17" data-name="Path" class="curtain-R-prim-light" d="M85.15,502.29l85-49.07v11.54l-85,49.08Z"/>
        <path id="Path-18" data-name="Path" class="curtain-R-prim-light" d="M85.15,317.54l85-49.08v11.55l-85,49.07Z"/>
        <path id="Path-19" data-name="Path" class="curtain-R-prim-light" d="M85.15,456.1l85-49.07v11.54l-85,49.08Z"/>
        <path id="Path-20" data-name="Path" class="curtain-R-prim-light" d="M85.15,594.67l85-49.08v11.55l-85,49.07Z"/>
        <path id="Path-21" data-name="Path" class="curtain-R-prim-light" d="M85.15,386.82l85-49.07v11.54l-85,49.08Z"/>
        <path id="Path-22" data-name="Path" class="curtain-R-prim-light" d="M85.15,525.38l85-49.07v11.55l-85,49.07Z"/>
        <path id="Path-23" data-name="Path" class="curtain-L-prim-light" d="M85.15,271.35l-85-49.07v11.54l85,49.08Z"/>
        <path id="Path-24" data-name="Path" class="curtain-L-prim-light" d="M85.15,248.26l-85-49.08v11.55l85,49.07Z"/>
        <path id="Path-25" data-name="Path" class="curtain-L-prim-light" d="M85.15,225.16l-85-49.07v11.54l85,49.08Z"/>
        <path id="Path-26" data-name="Path" class="curtain-L-prim-light" d="M85.15,202.07l-85-49.08v11.55l85,49.07Z"/>
        <path id="Path-27" data-name="Path" class="curtain-L-prim-light" d="M85.15,178.97.15,129.9v11.55l85,49.07Z"/>
        <path id="Path-28" data-name="Path" class="curtain-L-prim-light" d="M85.15,155.88l-85-49.07v11.54l85,49.08Z"/>
        <path id="Path-29" data-name="Path" class="curtain-L-prim-light" d="M85.15,132.79.15,83.71V95.26l85,49.07Z"/>
        <path id="Path-30" data-name="Path" class="curtain-L-prim-light" d="M85.15,109.69.15,60.62V72.16l85,49.08Z"/>
        <path id="Path-31" data-name="Path" class="curtain-L-prim-light" d="M85.15,409.91l-85-49.07v11.55l85,49.07Z"/>
        <path id="Path-32" data-name="Path" class="curtain-L-prim-light" d="M85.15,548.48.15,499.4v11.55l85,49.08Z"/>
        <path id="Path-33" data-name="Path" class="curtain-L-prim-light" d="M85.15,340.63l-85-49.07V303.1l85,49.08Z"/>
        <path id="Path-34" data-name="Path" class="curtain-L-prim-light" d="M85.15,479.2l-85-49.08v11.55l85,49.07Z"/>
        <path id="Path-35" data-name="Path" class="curtain-L-prim-light" d="M85.15,294.44l-85-49.07v11.55l85,49.07Z"/>
        <path id="Path-36" data-name="Path" class="curtain-L-prim-light" d="M85.15,433.01l-85-49.08v11.55l85,49.08Z"/>
        <path id="Path-37" data-name="Path" class="curtain-L-prim-light" d="M85.15,571.57.15,522.5v11.54l85,49.08Z"/>
        <path id="Path-38" data-name="Path" class="curtain-L-prim-light" d="M85.15,363.73l-85-49.08V326.2l85,49.07Z"/>
        <path id="Path-39" data-name="Path" class="curtain-L-prim-light" d="M85.15,502.29l-85-49.07v11.54l85,49.08Z"/>
        <path id="Path-40" data-name="Path" class="curtain-L-prim-light" d="M85.15,317.54l-85-49.08v11.55l85,49.07Z"/>
        <path id="Path-41" data-name="Path" class="curtain-L-prim-light" d="M85.15,456.1l-85-49.07v11.54l85,49.08Z"/>
        <path id="Path-42" data-name="Path" class="curtain-L-prim-light" d="M85.15,594.67l-85-49.08v11.55l85,49.07Z"/>
        <path id="Path-43" data-name="Path" class="curtain-L-prim-light" d="M85.15,386.82l-85-49.07v11.54l85,49.08Z"/>
        <path id="Path-44" data-name="Path" class="curtain-L-prim-light" d="M85.15,525.38l-85-49.07v11.55l85,49.07Z"/>
    </g>
</svg>
