<svg id="Layer_1" data-name="Layer 1" xmlns="http://www.w3.org/2000/svg" viewBox="0 0 260 222.2798">
  <defs>
    <style>
      .top-light {
        fill: #ffc8c6;
      }

      .exterior-R-prim {
        fill: #d05752;
      }

      .exterior-R-dark {
        fill: #a64c49;
      }

      .exterior-L-prim {
        fill: #73302e;
      }

      .exterior-L-dark {
        fill: #512220;
      }

      .top-prim {
        fill: #dd8a87;
      }

      .cls-1 {
        fill: #e8e8e8;
      }

      .cls-2 {
        fill: #aeaeae;
      }

      .cls-3 {
        fill: #d1d1d1;
      }

      .cls-4 {
        fill: #a4a4a4;
      }

      .cls-5 {
        fill: #5d5d5d;
      }

      .cls-6 {
        fill: #a2a2a2;
      }
    </style>
  </defs>
  <title>Artboard 2</title>
  <g id="Group">
    <path id="Path" class="top-light" d="M125,20.2072,160,0,260,57.735v5.7735l-30,17.32-5-2.8868Z"/>
    <path id="Path-2" data-name="Path" class="exterior-R-prim" d="M260,57.735V92.376L230,75.0555Z"/>
    <path id="Path-3" data-name="Path" class="exterior-R-dark" d="M250,63.5085l5-2.8868v72.1688l-5,2.8868Z"/>
    <path id="Path-4" data-name="Path" class="exterior-R-dark" d="M240,69.282l5-2.8868V138.564l-5,2.8868Z"/>
    <path id="Path-5" data-name="Path" class="exterior-R-dark" d="M230,75.0555l5-2.8868v72.1688l-5,2.8868Z"/>
    <path id="Path-6" data-name="Path" class="top-light" d="M260,98.15V92.376L100,0,0,57.735v5.7735l160,92.376Z"/>
    <path id="Path-7" data-name="Path" class="exterior-R-prim" d="M155,219.3931l5,2.8867,100-57.735V92.376L160,150.111l-5-2.8867Z"/>
    <path id="Path-8" data-name="Path" class="exterior-L-prim" d="M160,222.28,0,129.9038V57.735l160,92.376Z"/>
    <path id="Path-9" data-name="Path" class="exterior-R-dark" d="M160,150.111l5-2.8867v72.1688l-5,2.8867Z"/>
    <path id="Path-10" data-name="Path" class="exterior-R-dark" d="M200,127.017l5-2.8868V196.299l-5,2.8868Z"/>
    <path id="Path-11" data-name="Path" class="exterior-R-dark" d="M180,138.564l5-2.8867v72.1688l-5,2.8867Z"/>
    <path id="Path-12" data-name="Path" class="exterior-R-dark" d="M220,115.47l5-2.8868V184.752l-5,2.8868Z"/>
    <path id="Path-13" data-name="Path" class="exterior-R-dark" d="M250,98.15l5-2.8867v72.1687l-5,2.8868Z"/>
    <path id="Path-14" data-name="Path" class="exterior-R-dark" d="M170,144.3375l5-2.8867V213.62l-5,2.8868Z"/>
    <path id="Path-15" data-name="Path" class="exterior-R-dark" d="M210,121.2435l5-2.8868v72.1688l-5,2.8868Z"/>
    <path id="Path-16" data-name="Path" class="exterior-R-dark" d="M240,103.923l5-2.8867v72.1688l-5,2.8867Z"/>
    <path id="Path-17" data-name="Path" class="exterior-R-dark" d="M190,132.7905l5-2.8867v72.1688l-5,2.8868Z"/>
    <path id="Path-18" data-name="Path" class="exterior-R-dark" d="M230,109.6965l5-2.8868v72.1688l-5,2.8868Z"/>
    <path id="Path-19" data-name="Path" class="exterior-L-dark" d="M160,150.111l-5-2.8867v72.1688l5,2.8867Z"/>
    <path id="Path-20" data-name="Path" class="exterior-L-dark" d="M120,127.017l-5-2.8868V196.299l5,2.8868Z"/>
    <path id="Path-21" data-name="Path" class="exterior-L-dark" d="M140,138.564l-5-2.8867v72.1688l5,2.8867Z"/>
    <path id="Path-22" data-name="Path" class="exterior-L-dark" d="M100,115.47l-5-2.8868V184.752l5,2.8868Z"/>
    <path id="Path-23" data-name="Path" class="exterior-L-dark" d="M70,98.15l-5-2.8867v72.1687l5,2.8868Z"/>
    <path id="Path-24" data-name="Path" class="exterior-L-dark" d="M150,144.3375l-5-2.8867V213.62l5,2.8868Z"/>
    <path id="Path-25" data-name="Path" class="exterior-L-dark" d="M110,121.2435l-5-2.8868v72.1688l5,2.8868Z"/>
    <path id="Path-26" data-name="Path" class="exterior-L-dark" d="M80,103.923l-5-2.8867v72.1688l5,2.8867Z"/>
    <path id="Path-27" data-name="Path" class="exterior-L-dark" d="M130,132.7905l-5-2.8867v72.1688l5,2.8868Z"/>
    <path id="Path-28" data-name="Path" class="exterior-L-dark" d="M90,109.6965,85,106.81v72.1688l5,2.8868Z"/>
    <path id="Path-29" data-name="Path" class="exterior-L-dark" d="M60,92.376l-5-2.8867v72.1688l5,2.8867Z"/>
    <path id="Path-30" data-name="Path" class="exterior-L-dark" d="M20,69.282l-5-2.8868V138.564l5,2.8868Z"/>
    <path id="Path-31" data-name="Path" class="exterior-L-dark" d="M40,80.829l-5-2.8867v72.1688l5,2.8867Z"/>
    <path id="Path-32" data-name="Path" class="exterior-L-dark" d="M50,86.6025l-5-2.8867v72.1688l5,2.8867Z"/>
    <path id="Path-33" data-name="Path" class="exterior-L-dark" d="M10,63.5085,5,60.6217v72.1688l5,2.8868Z"/>
    <path id="Path-34" data-name="Path" class="exterior-L-dark" d="M30,75.0555l-5-2.8867v72.1688l5,2.8867Z"/>
    <path id="Path-35" data-name="Path" class="top-prim" d="M10,57.735,100,5.7735,130,23.094,160,5.7735,250,57.735l-30,17.32L250,92.376l-90,51.9615Z"/>
    <path id="Path-36" data-name="Path" class="exterior-R-prim" d="M100,17.3205V5.7735L10,57.735l10,5.7735Z"/>
    <path id="Path-37" data-name="Path" class="exterior-L-prim" d="M130,34.641l-30-17.32V5.7735L130,23.094Z"/>
    <path id="Path-38" data-name="Path" class="exterior-R-prim" d="M160,17.3205,130,34.641V23.094L160,5.7735Z"/>
    <path id="Path-39" data-name="Path" class="exterior-L-prim" d="M240,63.5085l-80-46.188V5.7735L250,57.735Z"/>
    <path id="Path-40" data-name="Path" class="exterior-L-prim" d="M220,75.0555v11.547L240,98.15l10-5.7735Z"/>
    <path id="Path-41" data-name="Path" class="cls-1" d="M172.5,21.6506l50,28.8675-15,8.66-50-28.8675Z"/>
    <path id="Path-42" data-name="Path" class="cls-2" d="M207.5,67.8386v-8.66l-50-28.8675v8.66Z"/>
    <path id="Path-43" data-name="Path" class="cls-3" d="M222.5,50.5181v8.66l-15,8.66v-8.66Z"/>
    <ellipse id="Ellipse" class="cls-4" cx="207.5" cy="50.5181" rx="7.5" ry="4.3301"/>
    <ellipse id="Ellipse-2" data-name="Ellipse" class="cls-4" cx="190" cy="40.4145" rx="7.5" ry="4.3301"/>
    <ellipse id="Ellipse-3" data-name="Ellipse" class="cls-4" cx="172.5" cy="30.3109" rx="7.5" ry="4.3301"/>
    <path id="Path-44" data-name="Path" class="cls-1" d="M57.5,53.4049l50,28.8675-15,8.66-50-28.8675Z"/>
    <path id="Path-45" data-name="Path" class="cls-2" d="M92.5,99.5929v-8.66l-50-28.8675v8.66Z"/>
    <path id="Path-46" data-name="Path" class="cls-3" d="M107.5,82.2724v8.66l-15,8.66v-8.66Z"/>
    <ellipse id="Ellipse-4" data-name="Ellipse" class="cls-4" cx="92.5" cy="82.2724" rx="7.5" ry="4.3301"/>
    <ellipse id="Ellipse-5" data-name="Ellipse" class="cls-4" cx="75" cy="72.1688" rx="7.5" ry="4.3301"/>
    <ellipse id="Ellipse-6" data-name="Ellipse" class="cls-4" cx="57.5" cy="62.0651" rx="7.5" ry="4.3301"/>
    <path id="Path-47" data-name="Path" class="cls-1" d="M115,86.6025,165,115.47l-15,8.66L100,95.2628Z"/>
    <path id="Path-48" data-name="Path" class="cls-2" d="M150,132.7905v-8.66L100,95.2628v8.66Z"/>
    <path id="Path-49" data-name="Path" class="cls-3" d="M165,115.47v8.66l-15,8.66v-8.66Z"/>
    <ellipse id="Ellipse-7" data-name="Ellipse" class="cls-4" cx="150" cy="115.47" rx="7.5" ry="4.3301"/>
    <ellipse id="Ellipse-8" data-name="Ellipse" class="cls-4" cx="132.5" cy="105.3664" rx="7.5" ry="4.3301"/>
    <ellipse id="Ellipse-9" data-name="Ellipse" class="cls-4" cx="115" cy="95.2628" rx="7.5" ry="4.3301"/>
    <path id="Path-50" data-name="Path" class="cls-5" d="M85,60.6218V43.3012l80,46.1881v17.32Z"/>
    <path id="Path-51" data-name="Path" class="cls-1" d="M110,28.8675,85,43.3012l80,46.1881,25-14.4338Z"/>
    <path id="Path-52" data-name="Path" class="cls-6" d="M165,106.81,190,92.376V75.0555L165,89.4893Z"/>
    <path id="Path-53" data-name="Path" class="cls-1" d="M135,66.3952l15-8.66L100,28.8675l-15,8.66Z"/>
    <path id="Path-54" data-name="Path" class="cls-5" d="M135,75.0555v-8.66L85,37.5277v8.66Z"/>
    <path id="Path-55" data-name="Path" class="cls-6" d="M150,57.735v5.7735l-15,8.66V66.3953Z"/>
  </g>
</svg>
