<svg id="Layer_1" data-name="Layer 1" xmlns="http://www.w3.org/2000/svg" viewBox="0 0 170 147.224">
  <defs>
    <style>
      .cls-1 {
        fill: #e6d7cf;
      }

      .cls-2 {
        fill: #d9c3b7;
      }

      .exterior-R-prim {
        fill: #d15752;
      }

      .exterior-L-prim {
        fill: #73302f;
      }

      .curtain-R-prim-light {
        fill: #2b95ac;
      }

      .curtain-L-prim-light {
        fill: #196273;
      }

      .top-prim {
        fill: #dd8987;
      }

      .cls-3 {
        fill: #f2f5fa;
      }

      .cls-4 {
        fill: #c7c6c5;
      }

      .cls-5 {
        fill: #fff;
      }

      .cls-6 {
        fill: #474747;
      }

      .cls-7 {
        fill: #757575;
      }

      .cls-8 {
        fill: #5e5e5e;
      }

      .cls-9 {
        fill: #010101;
      }

      .cls-10 {
        fill: #ef3b24;
      }

      .cls-11 {
        fill: #941a1d;
      }

      .cls-12 {
        fill: #f7c812;
      }

      .cls-13 {
        fill: #0c9647;
      }

      .cls-14 {
        fill: #2e2e2e;
      }

      .cls-15 {
        fill: #a2a2a1;
      }

      .cls-16 {
        fill: #dd443a;
      }

      .cls-17 {
        fill: #e8eaed;
      }
    </style>
  </defs>
  <title>Artboard 32</title>
  <g id="root">
    <path id="Path" class="cls-1" d="M109.991,132.785l7.509,4.336,15-8.66L120,121.244l-10,5.773Z"/>
    <path id="Path-2" data-name="Path" class="cls-1" d="M60.009,132.785,52.5,137.121l-15-8.66L50,121.244l10,5.773Z"/>
    <path id="Path-3" data-name="Path" class="cls-2" d="M40,128.46l12.5,7.217-1.25.722-12.5-7.217Z"/>
    <path id="Path-4" data-name="Path" class="cls-2" d="M45,128.46l10,5.774-1.25.722-10-5.774Z"/>
    <path id="Path-5" data-name="Path" class="cls-2" d="M50,128.461l7.5,4.33-1.25.721-7.5-4.33Z"/>
    <g id="Group">
      <path id="Path-6" data-name="Path" class="cls-2" d="M130,128.46l-12.5,7.217,1.25.722,12.5-7.217Z"/>
      <path id="Path-7" data-name="Path" class="cls-2" d="M125,128.46l-10,5.774,1.25.722,10-5.774Z"/>
      <path id="Path-8" data-name="Path" class="cls-2" d="M120,128.461l-7.5,4.33,1.25.721,7.5-4.33Z"/>
    </g>
    <path id="body-R2" class="exterior-R-prim" d="M82.5,125.574v20.207l2.5,1.443,65-37.527V89.489L85,127.017Z"/>
    <path id="body-L1" class="exterior-L-prim" d="M85,147.224,20,109.697V88.046l65,37.528Z"/>
    <path id="windows-R3" class="curtain-R-prim-light" d="M150,92.376V106.81L85,144.338l-2.5-1.444V128.46l2.5,1.444Z"/>
    <path id="windows-L2" class="curtain-L-prim-light" d="M20,92.376V106.81l65,37.528V129.904Z"/>
    <path id="Path-9" data-name="Path" class="top-prim" d="M20,89.489l65,37.528,65-37.528L85,51.962Z"/>
    <path id="body-R2-2" data-name="body-R2" class="exterior-R-prim" d="M105,106.81V86.603L85,98.15l-2.5-1.444v20.207l2.5,1.444Z"/>
    <path id="Path-10" data-name="Path" class="top-prim" d="M157.5,111.14l-50-28.868,7.5-4.33,45,25.981v5.774Z"/>
    <path id="Path-11" data-name="Path" class="top-prim" d="M150,115.47,107.5,90.933V85.159l2.5-1.443,42.5,24.537v5.774Z"/>
    <path id="Path-12" data-name="Path" class="exterior-R-prim" d="M157.5,105.366v5.774l2.5-1.443v-5.774Z"/>
    <path id="Path-13" data-name="Path" class="exterior-R-prim" d="M150,109.697v5.773l2.5-1.443v-5.774Z"/>
    <path id="Path-14" data-name="Path" class="exterior-L-prim" d="M157.5,111.14v-5.774L110,77.942v5.774Z"/>
    <path id="Path-15" data-name="Path" class="exterior-L-prim" d="M150,115.47v-5.773L107.5,85.159v5.774Z"/>
    <path id="Path-16" data-name="Path" class="cls-3" d="M125,124.13v-5.773l-12.5,7.217,6.25,3.608,1.25-.722,1.25.722,1.25-.722,1.25.722,1.25-.722,1.25.722,1.25-.722,1.25.722,1.25-.722,1.25.722,1.25-.722Z"/>
    <path id="Path-17" data-name="Path" class="cls-4" d="M118.75,129.182l-7.5,4.33-1.25-.721v-5.774l2.5-1.443Z"/>
    <path id="Path-18" data-name="Path" class="curtain-L-prim-light" d="M125,118.357l-2.5,1.443,2.5,1.444Z"/>
    <path id="Path-19" data-name="Path" class="exterior-L-prim" d="M125,124.13l-5-2.886,2.5-1.444,2.5,1.444Z"/>
    <path id="Path-20" data-name="Path" class="top-prim" d="M110,129.904l-1.25.722,10,5.773,1.25-.722Z"/>
    <path id="Path-21" data-name="Path" class="top-prim" d="M126.25,120.522l-1.25.722,10,5.773,1.25-.722Z"/>
    <path id="Path-22" data-name="Path" class="exterior-L-prim" d="M118.75,139.286l-10-5.774v-2.886l10,5.773Z"/>
    <path id="Path-23" data-name="Path" class="exterior-L-prim" d="M135,129.904l-10-5.774v-2.886l10,5.773Z"/>
    <path id="Path-24" data-name="Path" class="exterior-R-prim" d="M120,135.677v2.887l-1.25.722v-2.887Z"/>
    <path id="Path-25" data-name="Path" class="exterior-R-prim" d="M136.25,126.295v2.887l-1.25.722v-2.887Z"/>
    <path id="Path-26" data-name="Path" class="cls-5" d="M45,124.13v-5.773l12.5,7.217-6.25,3.608L50,128.461l-1.25.721-1.25-.721-1.25.721L45,128.461l-1.25.721-1.25-.721-1.25.721L40,128.461l-1.25.721-1.25-.721Z"/>
    <path id="Path-27" data-name="Path" class="cls-4" d="M51.25,129.182l7.5,4.33,1.25-.721v-5.774l-2.5-1.443Z"/>
    <path id="Path-28" data-name="Path" class="curtain-R-prim-light" d="M45,118.357l2.5,1.443L45,121.244Z"/>
    <path id="Path-29" data-name="Path" class="exterior-R-prim" d="M45,124.13l5-2.886L47.5,119.8,45,121.244Z"/>
    <path id="Path-30" data-name="Path" class="top-prim" d="M60,129.904l1.25.722-10,5.773L50,135.677Z"/>
    <path id="Path-31" data-name="Path" class="top-prim" d="M43.75,120.522l1.25.722-10,5.773-1.25-.722Z"/>
    <path id="Path-32" data-name="Path" class="exterior-R-prim" d="M51.25,139.286l10-5.774v-2.886l-10,5.773Z"/>
    <path id="Path-33" data-name="Path" class="exterior-R-prim" d="M35,129.904l10-5.774v-2.886l-10,5.773Z"/>
    <path id="Path-34" data-name="Path" class="exterior-L-prim" d="M50,135.677v2.887l1.25.722v-2.887Z"/>
    <path id="Path-35" data-name="Path" class="exterior-L-prim" d="M33.75,126.295v2.887l1.25.722v-2.887Z"/>
    <path id="Path-36" data-name="Path" class="top-prim" d="M65,80.829l-7.5-4.33L10,103.923v5.774l2.5,1.443Z"/>
    <path id="Path-37" data-name="Path" class="top-prim" d="M70,86.603l-7.5-4.331-45,25.981v5.774L20,115.47Z"/>
    <path id="Path-38" data-name="Path" class="exterior-L-prim" d="M12.5,105.366v5.774L10,109.697v-5.774Z"/>
    <path id="Path-39" data-name="Path" class="exterior-L-prim" d="M20,109.697v5.773l-2.5-1.443v-5.774Z"/>
    <path id="Path-40" data-name="Path" class="exterior-R-prim" d="M12.5,111.14v-5.774l50-28.867v5.773Z"/>
    <path id="Path-41" data-name="Path" class="exterior-R-prim" d="M20,115.47v-5.773L65,83.716v5.773Z"/>
    <path id="body-L1-2" data-name="body-L1" class="exterior-L-prim" d="M65,86.603V106.81l20,11.547V98.15Z"/>
    <path id="Path-42" data-name="Path" class="top-prim" d="M55,135.677l97.5-56.291-5-2.887L145,75.056,52.5,128.461v5.773Z"/>
    <path id="Path-43" data-name="Path" class="top-prim" d="M62.5,140.007l100-57.735-5-2.886L155,77.942,60,132.791v5.773Z"/>
    <path id="Path-44" data-name="Path" class="exterior-L-prim" d="M55,129.904v5.773l-2.5-1.443v-5.773Z"/>
    <path id="Path-45" data-name="Path" class="exterior-L-prim" d="M62.5,134.234v5.773L60,138.564v-5.773Z"/>
    <path id="Path-46" data-name="Path" class="exterior-R-prim" d="M55,135.677v-5.773l65-37.528V98.15Z"/>
    <path id="Path-47" data-name="Path" class="exterior-R-prim" d="M101.25,119.079l-1.25-.722-37.5,21.65v-5.773l65-37.528v7.217Z"/>
    <path id="Path-48" data-name="Path" class="top-prim" d="M115,135.677,17.5,79.386l5-2.887L25,75.056l92.5,53.405v5.773Z"/>
    <path id="Path-49" data-name="Path" class="top-prim" d="M107.5,140.007,10,83.716l7.5-4.33L110,132.791v5.773Z"/>
    <path id="Path-50" data-name="Path" class="exterior-R-prim" d="M115,129.904v5.773l2.5-1.443v-5.773Z"/>
    <path id="Path-51" data-name="Path" class="exterior-R-prim" d="M107.5,134.234v5.773l2.5-1.443v-5.773Z"/>
    <path id="Path-52" data-name="Path" class="exterior-L-prim" d="M77.5,114.027l5-2.887L50,92.376V98.15Z"/>
    <path id="Path-53" data-name="Path" class="exterior-L-prim" d="M68.75,119.079,75,115.47,42.5,96.706v7.217Z"/>
    <path id="Path-54" data-name="Path" class="exterior-L-prim" d="M32.5,90.933l-6.25,3.608L20,90.933V89.489L10,83.716l5-2.887Z"/>
    <path id="Path-55" data-name="Path" class="exterior-L-prim" d="M40,86.603l-5,2.886L17.5,79.386l5-2.887Z"/>
    <path id="Path-56" data-name="Path" class="exterior-L-prim" d="M107.5,140.008v-5.774L85,121.244v5.773Z"/>
    <path id="Path-57" data-name="Path" class="exterior-L-prim" d="M115,135.677v-5.773L92.5,116.913v5.774Z"/>
    <path id="Path-58" data-name="Path" class="exterior-L-prim" d="M77.5,116.913v5.774l5-2.887Z"/>
    <path id="Path-59" data-name="Path" class="exterior-L-prim" d="M85,112.583v5.774l5-2.887Z"/>
    <path id="Path-60" data-name="Path" class="exterior-L-prim" d="M2.5,76.499l25-14.434,10,5.7741L5,86.603,2.5,85.159Z"/>
    <path id="Path-61" data-name="Path" class="exterior-R-prim" d="M167.5,76.499l-30-17.321V70.725L165,86.603l2.5-1.444Z"/>
    <path id="Path-62" data-name="Path" class="exterior-R-prim" d="M82.5,33.198,5,77.942v8.661L82.5,41.858Z"/>
    <path id="Path-63" data-name="Path" class="exterior-L-prim" d="M87.5,33.198,165,77.942v8.661L87.5,41.858Z"/>
    <path id="Path-64" data-name="Path" class="top-prim" d="M90,138.564l77.5-44.745v-8.66L165,83.716,87.5,128.46v8.661Z"/>
    <path id="body-R2-3" data-name="body-R2" class="exterior-R-prim" d="M90,138.564l77.5-44.745v-8.66L90,129.904Z"/>
    <path id="body-R2-4" data-name="body-R2" class="exterior-L-prim" d="M82.5,137.121,80,138.564,2.5,93.819v-8.66L5,83.716,82.5,128.46Z"/>
    <path id="Path-65" data-name="Path" class="top-prim" d="M2.5,85.159,5,83.716,82.5,128.46,80,129.904Z"/>
    <path id="Path-66" data-name="Path" class="exterior-L-prim" d="M90,138.564l-2.5-1.443V128.46l2.5,1.444Z"/>
    <path id="Path-67" data-name="Path" class="exterior-R-prim" d="M80,138.564l2.5-1.443v-8.66L80,129.904Z"/>
    <path id="Path-68" data-name="Path" class="exterior-R-prim" d="M155,80.829l5,2.887-9.9189,5.727L150,92.376l-5,2.887-7.5-4.33Z"/>
    <path id="Path-69" data-name="Path" class="exterior-R-prim" d="M130,95.263l5-2.887V98.15Z"/>
    <path id="Path-70" data-name="Path" class="exterior-R-prim" d="M122.5,90.933l5-2.887v5.773Z"/>
    <path id="Path-71" data-name="Path" class="exterior-R-prim" d="M130,86.603l17.5-10.104,5,2.887L135,89.489Z"/>
    <path id="Path-72" data-name="Path" class="top-prim" d="M2.5,76.499,5,77.942,82.5,33.198,80,31.754Z"/>
    <path id="Path-73" data-name="Path" class="top-prim" d="M167.5,76.499,165,77.942,87.5,33.198,90,31.754Z"/>
    <path id="Path-74" data-name="Path" class="exterior-L-prim" d="M35,92.376V98.15l5-2.887Z"/>
    <path id="Path-75" data-name="Path" class="exterior-L-prim" d="M42.5,88.046v5.773l5-2.886Z"/>
    <path id="Path-76" data-name="Path" class="cls-6" d="M152.5,77.942l2.5,1.444v1.443l-1.25.722-2.5-1.444,1.25-.721Z"/>
    <path id="Path-77" data-name="Path" class="cls-7" d="M151.25,80.107l1.25-.721,2.5,1.443-1.25.722Z"/>
    <path id="Path-78" data-name="Path" class="cls-8" d="M17.5,77.942,15,79.386v1.443l1.25.722,2.5-1.444-1.25-.721Z"/>
    <path id="Path-79" data-name="Path" class="cls-7" d="M18.75,80.107l-1.25-.721L15,80.829l1.25.722Z"/>
    <path id="Path-80" data-name="Path" class="cls-6" d="M145,73.612l2.5,1.444v1.443l-1.25.722-2.5-1.444,1.25-.721Z"/>
    <path id="Path-81" data-name="Path" class="cls-7" d="M143.75,75.777l1.25-.721,2.5,1.443-1.25.722Z"/>
    <path id="Path-82" data-name="Path" class="cls-8" d="M25,73.612l-2.5,1.444v1.443l1.25.722,2.5-1.444L25,75.056Z"/>
    <path id="Path-83" data-name="Path" class="cls-7" d="M26.25,75.777,25,75.056l-2.5,1.443,1.25.722Z"/>
    <path id="anchor_0_98.15_170" class="top-prim" d="M0,51.962V49.075L85,0l85,49.075v2.887L85,101.036Z"/>
    <path id="body-R2-5" data-name="body-R2" class="exterior-R-prim" d="M80,103.923l5,2.887,85-49.075v-8.66L85,98.15l-5-2.887Z"/>
    <path id="body-L1-3" data-name="body-L1" class="exterior-L-prim" d="M85,106.81,0,57.735v-8.66L85,98.15Z"/>
    <path id="Path-84" data-name="Path" class="cls-9" d="M35.104,105.366l17.5,10.104v5.774l-17.5-10.104Z"/>
    <path id="Path-85" data-name="Path" class="cls-6" d="M37.5,119.806,50,127.023l1.25-.721v-2.887l-12.5-7.217-1.25.722Z"/>
    <path id="Path-86" data-name="Path" class="cls-6" d="M132.5,119.8,120,127.017l-1.25-.722v-2.886l12.5-7.217,1.25.721Z"/>
    <path id="Path-87" data-name="Path" class="cls-9" d="M37.5,116.913,50,124.13v2.887L37.5,119.8Z"/>
    <path id="Path-88" data-name="Path" class="cls-9" d="M132.5,116.913,120,124.13v2.887l12.5-7.217Z"/>
    <path id="Compound_Path" data-name="Compound Path" class="cls-5" d="M36.865,107.805c0-.116.093-.147.2519-.055a1.2434,1.2434,0,0,1,.3811.378c.022.03.042.039.0589.026l.156-.1c.02-.011.02-.028,0-.06a1.8185,1.8185,0,0,0-.6069-.614c-.3269-.189-.6189-.147-.6189.199,0,.65.9428,1.086.9428,1.438,0,.142-.134.156-.301.059a1.4058,1.4058,0,0,1-.4429-.448c-.0229-.033-.0461-.044-.063-.034l-.17.086c-.0169.011-.0169.03-.0029.058a1.995,1.995,0,0,0,.67.697c.346.2.69.185.69-.19C37.81,108.556,36.865,108.155,36.865,107.805Zm2.404,1.442-.29-.167c-.0249-.014-.042-.007-.042.018v.77c0,.099-.1.212-.301.0961a.5323.5323,0,0,1-.2671-.4641v-.73a.083.083,0,0,0-.042-.067l-.29-.167c-.0261-.015-.0432-.007-.0432.018v.7981a1.0465,1.0465,0,0,0,.5281.8919.3454.3454,0,0,0,.415.004l.011.163a.0866.0866,0,0,0,.043.067l.278.16c.0259.015.043.008.043-.018v-1.305A.0828.0828,0,0,0,39.269,109.247Zm1.076.59a.4251.4251,0,0,0-.4031-.051v-.789a.0821.0821,0,0,0-.043-.067l-.2888-.167c-.0261-.015-.0432-.008-.0432.018v1.987a.0824.0824,0,0,0,.0432.067l.261.151c.0249.015.0388.006.042-.018l.0119-.113a1.1609,1.1609,0,0,0,.42.441c.3889.225.6731.065.6731-.341A1.41,1.41,0,0,0,40.345,109.837Zm-.0459,1.093a.763.763,0,0,1-.354-.597c0-.21.15-.299.354-.181a.7342.7342,0,0,1,.3579.592C40.657,110.969,40.5071,111.049,40.2991,110.93Zm3.123.715-.2842-.164c-.0229-.013-.0429-.013-.051.005l-.3149.74-.3321-1.114a.0884.0884,0,0,0-.029-.045.0965.0965,0,0,0-.022-.018l-.2668-.154a.0717.0717,0,0,0-.023-.008.02.02,0,0,0-.0281.012l-.33.733-.32-1.108a.1168.1168,0,0,0-.0508-.064l-.2842-.164c-.0319-.018-.0459-.009-.0339.029l.4851,1.589a.1139.1139,0,0,0,.0508.0631l.2842.1639c.0229.013.0429.013.051-.004l.3318-.677.332,1.06a.1184.1184,0,0,0,.051.064l.281.162c.023.013.043.013.052-.005l.4852-1.028C43.467,111.688,43.4529,111.663,43.4221,111.645Zm1.4788.854-.261-.151c-.0259-.014-.04-.006-.043.018l-.0078.126a1.2276,1.2276,0,0,0-.4231-.449c-.3889-.224-.6731-.064-.6731.341a1.4086,1.4086,0,0,0,.6731,1.118.4033.4033,0,0,0,.42.044l.011.126a.0873.0873,0,0,0,.043.067l.261.151c.0251.015.0422.008.0422-.018v-1.306A.0835.0835,0,0,0,44.9009,112.499Zm-.69.689a.7439.7439,0,0,1-.3579-.598c0-.222.1509-.299.3579-.18a.7538.7538,0,0,1,.355.591C44.5659,113.211,44.415,113.306,44.2109,113.188Zm2.3282.257-.2981-.172c-.023-.014-.043-.014-.0511.004l-.3378.725-.3411-1.117a.1116.1116,0,0,0-.051-.063l-.292-.169c-.032-.018-.0459-.009-.034.029l.5359,1.655-.2009.372c-.0149.023.0019.05.0339.068l.2842.164c.022.013.042.013.0508-.005l.7351-1.423C46.584,113.488,46.57,113.463,46.5391,113.445Zm.1218,1.498c.113.066.2041.027.2041-.089a.4239.4239,0,0,0-.2041-.323c-.117-.0669-.2068-.028-.2068.085A.42.42,0,0,0,46.6609,114.943Z"/>
    <path id="Compound_Path-2" data-name="Compound Path" class="cls-5" d="M41.998,121.03l-.4211-.242v-.305l.3931.227c.0161.009.0261.0041.0261-.011v-.155a.0484.0484,0,0,0-.0261-.04l-.3931-.227v-.269l.4192.241c.0149.009.0259.005.0259-.01v-.155a.051.051,0,0,0-.0259-.041l-.6272-.362c-.0149-.008-.0249-.004-.0249.011v1.141a.05.05,0,0,0,.0249.041l.6291.363c.0149.008.0249.004.0249-.011v-.155A.05.05,0,0,0,41.998,121.03Zm.6761-.256c-.1211-.07-.21-.055-.2642.002v-.002l-.0068-.112a.0534.0534,0,0,0-.0252-.041l-.167-.096c-.0158-.009-.0258-.005-.0258.011v.783a.0474.0474,0,0,0,.0258.04l.1731.101c.0159.009.0259.0041.0259-.011v-.456c0-.04.0581-.131.1841-.058a.3088.3088,0,0,1,.157.276v.435a.05.05,0,0,0,.0249.04l.1741.1c.0151.009.0251.005.0251-.011V121.3A.6231.6231,0,0,0,42.6741,120.774Zm.875.524-.1192-.069v-.23a.05.05,0,0,0-.0249-.04l-.174-.101c-.0159-.008-.0259-.004-.0259.011v.23l-.1192-.069c-.0149-.009-.0249-.004-.0249.011v.133a.05.05,0,0,0,.0249.04l.1192.0689v.625a.0461.0461,0,0,0,.0259.04l.174.101c.0149.009.0249.004.0249-.011v-.625l.1192.069c.0158.009.0259.004.0259-.011v-.133A.0488.0488,0,0,0,43.5491,121.298Zm.6948.421a.3767.3767,0,0,0-.1118-.1039c-.1011-.0581-.1692-.0411-.2132.0139l-.0068-.096a.05.05,0,0,0-.0251-.04l-.1661-.096c-.0148-.009-.0249-.004-.0249.011v.783a.05.05,0,0,0,.0249.041l.1741.1c.0149.009.0259.005.0259-.011v-.443c0-.102.0681-.141.1731-.08a.4.4,0,0,1,.07.052c.0168.0151.031.02.0378.005l.051-.097C44.2581,121.749,44.2581,121.738,44.2439,121.719Zm.8711.482-.157-.09c-.0149-.0089-.0239-.004-.0261.011l-.0049.075a.7305.7305,0,0,0-.2539-.269c-.2332-.135-.4031-.039-.4031.205a.8467.8467,0,0,0,.4031.671.2464.2464,0,0,0,.2529.026l.0059.075a.0553.0553,0,0,0,.0261.041l.157.09c.0149.009.0249.005.0249-.011v-.783A.05.05,0,0,0,45.115,122.201Zm-.4141.4141a.4457.4457,0,0,1-.2148-.3591c0-.133.09-.18.2148-.108a.4544.4544,0,0,1,.2132.355C44.9141,122.629,44.823,122.686,44.7009,122.6151Zm1.0811-.0471c-.1211-.07-.209-.054-.2639.003v-.002l-.0071-.113a.0506.0506,0,0,0-.0249-.04l-.167-.097c-.0151-.008-.0261-.004-.0261.011v.784a.0506.0506,0,0,0,.0261.04l.1738.1c.0152.009.0252.005.0252-.01v-.457c0-.039.0578-.13.1838-.057a.3088.3088,0,0,1,.157.276v.434a.05.05,0,0,0,.0251.041l.1741.1c.0149.009.0259.004.0259-.011v-.475A.6248.6248,0,0,0,45.782,122.568Zm.86,1.164a.4364.4364,0,0,1-.2141-.353c0-.132.0881-.179.2141-.106a.5276.5276,0,0,1,.1738.175c.0142.02.0261.028.0381.023l.103-.04c.011-.005.012-.017.002-.035a.9126.9126,0,0,0-.322-.334c-.24-.139-.4261-.054-.4261.192a.878.878,0,0,0,.4261.683.3316.3316,0,0,0,.3271.041c.01-.006.0088-.021-.0012-.037l-.104-.159c-.012-.018-.0239-.025-.0379-.021A.2005.2005,0,0,1,46.6421,123.732Zm1.2058.448a.8094.8094,0,0,0-.397-.648c-.2419-.14-.42-.051-.42.1951a.8723.8723,0,0,0,.439.6909.3551.3551,0,0,0,.31.051c.0139-.0049.0139-.017.002-.036l-.075-.117c-.0119-.018-.0219-.024-.0381-.023a.2679.2679,0,0,1-.177-.044.4645.4645,0,0,1-.238-.312l.5352.309C47.84,124.276,47.8479,124.246,47.8479,124.18Zm-.395-.456a.4025.4025,0,0,1,.196.295l-.3989-.23C47.269,123.682,47.3511,123.665,47.4529,123.724Z"/>
    <path id="Compound_Path-3" data-name="Compound Path" class="cls-5" d="M124.498,123.048l-.4211.243v-.305l.3931-.227a.0486.0486,0,0,0,.0261-.041v-.155c0-.015-.01-.019-.0261-.01l-.3931.227v-.269l.4192-.242a.051.051,0,0,0,.0259-.041v-.155c0-.015-.011-.019-.0259-.01l-.6272.361a.05.05,0,0,0-.0249.041v1.141c0,.015.01.02.0249.011l.6291-.363a.05.05,0,0,0,.0249-.04v-.1551C124.5229,123.043,124.5129,123.039,124.498,123.048Zm.969-.384-.2729-.24.2588-.526c.0122-.024.0041-.032-.0169-.021l-.197.115a.0659.0659,0,0,0-.031.034l-.1411.302-.1419-.139c-.008-.007-.017-.007-.03.001l-.198.114c-.02.012-.029.031-.0171.041l.2591.227-.273.554c-.0119.024-.0029.032.0171.021l.198-.114a.0772.0772,0,0,0,.031-.035l.1548-.33.155.151c.0081.007.0171.007.03-.001l.198-.114C125.47,122.692,125.479,122.674,125.467,122.664Zm.25-1.107a.2582.2582,0,0,0,.1231-.195c0-.068-.0552-.093-.1231-.054a.2554.2554,0,0,0-.124.196C125.593,121.572,125.647,121.597,125.717,121.557Zm-.112.249v.7831c0,.0149.01.02.0249.0109l.1741-.1a.0508.0508,0,0,0,.0261-.041v-.783c0-.015-.011-.02-.0261-.011l-.1741.1A.05.05,0,0,0,125.605,121.806Zm.834-.508-.1189.069v-.23c0-.015-.01-.019-.0252-.011l-.1738.1011a.05.05,0,0,0-.0261.04v.23l-.1189.069a.0493.0493,0,0,0-.0252.04v.133c0,.015.01.02.0252.011l.1189-.069v.625c0,.015.011.02.0261.011l.1738-.101a.048.048,0,0,0,.0252-.04v-.625l.1189-.069a.0484.0484,0,0,0,.0261-.04v-.133C126.4651,121.294,126.4551,121.289,126.439,121.298Z"/>
    <path id="Path-89" data-name="Path" class="cls-10" d="M36.979,110.205h0a1.3817,1.3817,0,0,1,.625,1.083h0c0,.398-.28.56-.625.36h0a1.3813,1.3813,0,0,1-.625-1.082h0C36.354,110.168,36.634,110.006,36.979,110.205Z"/>
    <path id="Path-90" data-name="Path" class="cls-11" d="M38.541,111.107h0a1.3817,1.3817,0,0,1,.625,1.083h0c0,.398-.28.56-.625.361h0a1.3848,1.3848,0,0,1-.625-1.083h0C37.916,111.07,38.196,110.908,38.541,111.107Z"/>
    <path id="Path-91" data-name="Path" class="cls-12" d="M40.104,112.009h0a1.3848,1.3848,0,0,1,.625,1.083h0c0,.3981-.28.56-.625.361h0a1.3817,1.3817,0,0,1-.625-1.083h0C39.479,111.972,39.759,111.81,40.104,112.009Z"/>
    <path id="Path-92" data-name="Path" class="cls-13" d="M41.666,112.911h0a1.3848,1.3848,0,0,1,.625,1.083h0c0,.398-.28.56-.625.361h0a1.3817,1.3817,0,0,1-.625-1.083h0C41.041,112.874,41.321,112.712,41.666,112.911Z"/>
    <path id="Path-93" data-name="Path" class="cls-13" d="M43.229,113.814h0a1.3814,1.3814,0,0,1,.625,1.082h0c0,.398-.28.56-.625.361h0a1.3817,1.3817,0,0,1-.625-1.083h0C42.604,113.776,42.884,113.614,43.229,113.814Z"/>
    <path id="Path-94" data-name="Path" class="cls-5" d="M50.7959,116.081a.0535.0535,0,0,0-.033-.056l-.0239-.013v.205l.0239.011c.0252.011.033.005.033-.023Z"/>
    <path id="Path-95" data-name="Path" class="cls-5" d="M50.7939,115.913V115.8a.0612.0612,0,0,0-.0319-.06l-.023-.0171v.194c.0081.005.0149.01.023.014C50.7871,115.946,50.7939,115.941,50.7939,115.913Z"/>
    <path id="Path-96" data-name="Path" class="cls-5" d="M51.3779,116.232c-.009.071-.0129.082-.0229.157.0239.012.0271.012.051.025-.009-.08-.0129-.094-.0229-.178Z"/>
    <path id="Compound_Path-4" data-name="Compound Path" class="cls-5" d="M51.1709,115.578a.6568.6568,0,0,0-.2839-.095.3116.3116,0,0,0-.221.064l.1279.099a.2589.2589,0,0,1,.1282.241v.087c0,.042-.01.064-.0481.06v.008a.1822.1822,0,0,1,.053.128v.099c0,.101-.022.132-.1311.091l-.1-.038a1.4323,1.4323,0,0,0,.25.323,1.091,1.091,0,0,0,.306.214.52.52,0,0,0,.2861.05.2725.2725,0,0,0,.1948-.125.4411.4411,0,0,0,.0571-.269.9939.9939,0,0,0-.0959-.348,1.4461,1.4461,0,0,0-.2241-.34,1.2288,1.2288,0,0,0-.2991-.249Zm-.0059.484v.44c-.0429-.017-.0871-.034-.1311-.051v-.482c-.029-.02-.0578-.041-.0869-.061v-.144l.305.235v.125C51.2229,116.103,51.1941,116.083,51.165,116.062Zm.271.538c-.0029-.028-.007-.036-.01-.064l-.09-.04c-.0029.026-.0068.034-.01.061l-.093-.035.09-.46.1179.091.082.48Z"/>
    <path id="Path-97" data-name="Path" class="cls-9" d="M120,114.027l17.5-10.104v5.774L120,119.8Z"/>
    <path id="Compound_Path-5" data-name="Compound Path" class="cls-5" d="M121.761,114.432a.4515.4515,0,0,1,.2529-.347.48.48,0,0,1,.38-.061c.023.004.043-.01.06-.043l.156-.28c.02-.034.02-.051,0-.06a.6686.6686,0,0,0-.6081.087,1.1972,1.1972,0,0,0-.6189.914c0,.65.9428-.002.9428.35a.5533.5533,0,0,1-.301.406.521.521,0,0,1-.4429.063c-.0229-.007-.0449.009-.062.039l-.1709.283c-.0171.029-.0171.049-.0022.061a.6807.6807,0,0,0,.6692-.077,1.3279,1.3279,0,0,0,.69-.986C122.7061,114.091,121.761,114.781,121.761,114.432Zm2.404-1.334-.289.167a.0826.0826,0,0,0-.043.067v.77a.6193.6193,0,0,1-.301.4429c-.1331.077-.2671.075-.2671-.155v-.73c0-.025-.0169-.033-.042-.018l-.29.167a.0833.0833,0,0,0-.042.067v.798c0,.372.2149.463.5278.283a1.1289,1.1289,0,0,0,.4141-.475l.012.15c.0019.023.0171.032.042.018l.278-.161a.0826.0826,0,0,0,.043-.067v-1.306C124.208,113.09,124.1909,113.083,124.165,113.098Zm1.076-.652a1.1926,1.1926,0,0,0-.4031.414v-.789c0-.026-.0169-.033-.043-.018l-.2888.167a.0824.0824,0,0,0-.0432.067v1.987c0,.026.0171.033.0432.018l.261-.15a.0873.0873,0,0,0,.043-.068l.0109-.125a.4035.4035,0,0,0,.42-.044,1.41,1.41,0,0,0,.6731-1.118C125.9141,112.381,125.63,112.221,125.241,112.446Zm-.045,1.144c-.205.118-.3549.023-.3549-.187a.7528.7528,0,0,1,.3549-.591c.2071-.119.357-.041.357.18A.7412.7412,0,0,1,125.196,113.59Zm3.1221-2.89-.2842.164a.1184.1184,0,0,0-.051.064l-.3149,1.104-.3321-.731a.02.02,0,0,0-.0278-.012.07.07,0,0,0-.0232.008l-.2668.154a.1419.1419,0,0,0-.023.019.0915.0915,0,0,0-.0281.044l-.3291,1.113-.321-.737c-.0078-.018-.0278-.018-.0508-.005l-.2842.164c-.031.018-.0449.043-.0339.068l.4851,1.028c.0088.018.0288.018.052.005l.283-.164a.1116.1116,0,0,0,.051-.063l.333-1.061.3318.677c.008.018.0281.018.051.005l.281-.163a.114.114,0,0,0,.051-.063l.4852-1.589C128.364,110.691,128.35,110.682,128.3181,110.7Zm1.479-.854-.2612.151a.09.09,0,0,0-.043.067l-.0078.136a.4128.4128,0,0,0-.4231.04,1.4084,1.4084,0,0,0-.6731,1.1179c0,.406.2842.565.6731.341a1.17,1.17,0,0,0,.42-.442l.011.113c.0032.024.0181.033.043.018l.2612-.151a.08.08,0,0,0,.043-.067v-1.306C129.84,109.8391,129.823,109.832,129.7971,109.846Zm-.69,1.486c-.207.12-.3569.039-.3569-.185a.7372.7372,0,0,1,.3569-.593c.2051-.118.355-.029.355.181A.7614.7614,0,0,1,129.1069,111.332Zm2.3282-2.431-.2981.172a.1114.1114,0,0,0-.0511.063l-.3379,1.115-.34-.723c-.0091-.018-.0291-.018-.052-.004l-.292.168c-.031.018-.045.044-.034.068l.5369,1.036-.2019.605c-.0139.039.0029.046.0339.028l.2842-.164a.1137.1137,0,0,0,.0508-.063l.7351-2.273C131.481,108.892,131.4661,108.883,131.4351,108.901Zm.1218,1.357a.421.421,0,0,0,.2051-.325c0-.114-.0911-.152-.2051-.086a.4225.4225,0,0,0-.2068.324C131.35,110.287,131.4409,110.325,131.5569,110.258Z"/>
    <path id="Path-98" data-name="Path" class="cls-10" d="M121.875,116.7h0c.345-.199.625-.037.625.361h0a1.3832,1.3832,0,0,1-.625,1.083h0c-.345.199-.625.037-.625-.361h0A1.3832,1.3832,0,0,1,121.875,116.7Z"/>
    <path id="Path-99" data-name="Path" class="cls-11" d="M123.438,115.798h0c.344-.199.625-.037.625.361h0a1.3875,1.3875,0,0,1-.625,1.083h0c-.345.199-.625.037-.625-.361h0A1.3817,1.3817,0,0,1,123.438,115.798Z"/>
    <path id="Path-100" data-name="Path" class="cls-12" d="M125,114.896h0c.345-.199.625-.037.625.361h0a1.3818,1.3818,0,0,1-.625,1.0821h0c-.345.2-.625.0379-.625-.36h0A1.3817,1.3817,0,0,1,125,114.896Z"/>
    <path id="Path-101" data-name="Path" class="cls-13" d="M126.563,113.994h0c.344-.199.625-.037.625.361h0a1.3841,1.3841,0,0,1-.625,1.082h0c-.345.2-.625.038-.625-.36h0A1.3817,1.3817,0,0,1,126.563,113.994Z"/>
    <path id="Path-102" data-name="Path" class="cls-13" d="M128.125,113.092h0c.345-.199.625-.038.625.361h0a1.3814,1.3814,0,0,1-.625,1.082h0c-.345.199-.625.038-.625-.361h0A1.3814,1.3814,0,0,1,128.125,113.092Z"/>
    <path id="Path-103" data-name="Path" class="cls-5" d="M135.6919,106.622c0-.029-.0068-.034-.032-.019l-.0249.015v.205a.2019.2019,0,0,0,.0249-.017.0613.0613,0,0,0,.032-.06Z"/>
    <path id="Path-104" data-name="Path" class="cls-5" d="M135.6909,106.455v-.112c0-.029-.0078-.035-.0329-.024l-.023.01v.194l.023-.012A.0536.0536,0,0,0,135.6909,106.455Z"/>
    <path id="Path-105" data-name="Path" class="cls-5" d="M136.2749,106.1c-.01.082-.0139.097-.0229.183.0239-.015.0271-.018.051-.034-.01-.069-.0139-.078-.023-.151Z"/>
    <path id="Compound_Path-6" data-name="Compound Path" class="cls-5" d="M136.0681,105.685a1.2218,1.2218,0,0,0-.2851.233,1.4573,1.4573,0,0,0-.221.32l.1289-.049c.105-.04.1272-.009.1272.093v.087a.1521.1521,0,0,1-.0481.116v.008c.0391-.0029.054.02.054.066v.098a.2626.2626,0,0,1-.1321.243l-.0989.0771a.35.35,0,0,0,.25.0349.7935.7935,0,0,0,.3049-.139,1.3263,1.3263,0,0,0,.2862-.28,1.3473,1.3473,0,0,0,.1948-.35.8256.8256,0,0,0,.0571-.336.367.367,0,0,0-.0949-.237.299.299,0,0,0-.2251-.0809.65.65,0,0,0-.2979.0959Zm-.0061.491v.4391l-.1321.1019v-.482l-.0859.039v-.144l.3049-.117v.124Zm.27.225c-.0029-.023-.007-.028-.01-.052l-.09.063c-.0029.031-.0058.043-.01.074l-.092.071.0891-.563.1189-.046.082.386Z"/>
    <path id="Path-106" data-name="Path" class="cls-14" d="M51.25,123.415l-1.25.721v2.887l1.25-.721Z"/>
    <path id="Path-107" data-name="Path" class="cls-14" d="M118.75,123.409l1.25.721v2.887l-1.25-.722Z"/>
    <g id="Group-2" data-name="Group">
      <g id="Group-3" data-name="Group">
        <path id="Path-108" data-name="Path" class="cls-15" d="M49.313,122.754l-.5559.321v-2.566l.5559.32Z"/>
        <path id="Path-109" data-name="Path" class="cls-7" d="M48.2009,122.754v-2.566l.5562.321v2.566Z"/>
      </g>
      <g id="Group-4" data-name="Group">
        <path id="Path-110" data-name="Path" class="cls-15" d="M40.563,117.723l-.5559.32v-2.5659l.5559.3209Z"/>
        <path id="Path-111" data-name="Path" class="cls-7" d="M39.4509,117.723v-2.566l.5562.32v2.5659Z"/>
      </g>
    </g>
    <g id="Group-5" data-name="Group">
      <g id="Group-6" data-name="Group">
        <path id="Path-112" data-name="Path" class="cls-7" d="M120.687,122.769l.5559.321v-2.566l-.5559.32Z"/>
        <path id="Path-113" data-name="Path" class="cls-15" d="M121.7981,122.769v-2.566l-.5552.321v2.566Z"/>
      </g>
      <g id="Group-7" data-name="Group">
        <path id="Path-114" data-name="Path" class="cls-7" d="M129.437,117.738l.5559.32v-2.566l-.5559.321Z"/>
        <path id="Path-115" data-name="Path" class="cls-15" d="M130.5481,117.738v-2.566l-.5552.32v2.566Z"/>
      </g>
    </g>
    <g id="Group-8" data-name="Group">
      <path id="Path-116" data-name="Path" class="cls-13" d="M37.5,116.913v2.893L40,121.25v-2.893Z"/>
      <g id="Group-9" data-name="Group">
        <path id="Path-117" data-name="Path" class="cls-5" d="M39.0339,119.293l.117-.0529.237.3709-.1169.053-.501.225-.5339-.816-.124-.185.2309-.111.12.186.3.454Z"/>
        <path id="Path-118" data-name="Path" class="cls-5" d="M38.9341,119.562v.167l-.334-.192v-1.262l.334.192v1.095Z"/>
      </g>
    </g>
    <g id="Group-10" data-name="Group">
      <path id="Path-119" data-name="Path" class="cls-16" d="M120,127.017V124.13l2.5-1.443v2.887Z"/>
      <g id="Group-11" data-name="Group">
        <path id="Path-120" data-name="Path" class="cls-5" d="M121.5339,124.641l.117.052.237-.37-.1169-.053-.501-.225-.5339.816-.124.185.2309.11.12-.186.3-.454Z"/>
        <path id="Path-121" data-name="Path" class="cls-5" d="M121.4341,124.371v-.167l-.334.193v1.262l.334-.193v-1.095Z"/>
      </g>
    </g>
    <path id="Path-122" data-name="Path" class="cls-3" d="M40,128.46l-1.25.722-1.25-.722,1.25-.721Z"/>
    <path id="Path-123" data-name="Path" class="cls-3" d="M42.5,128.46l-1.25.722L40,128.46l1.25-.721Z"/>
    <path id="Path-124" data-name="Path" class="cls-3" d="M45,128.46l-1.25.722-1.25-.722,1.25-.721Z"/>
    <path id="Path-125" data-name="Path" class="cls-3" d="M47.5,128.46l-1.25.722L45,128.46l1.25-.721Z"/>
    <path id="Path-126" data-name="Path" class="cls-3" d="M45,125.574l-1.25.721-1.25-.721,1.25-.7219Z"/>
    <path id="Path-127" data-name="Path" class="cls-3" d="M42.5,127.017l-1.25.722L40,127.017l1.25-.722Z"/>
    <path id="Path-128" data-name="Path" class="cls-3" d="M45,127.017l-1.25.722-1.25-.722,1.25-.722Z"/>
    <path id="Path-129" data-name="Path" class="cls-3" d="M47.5,127.017l-1.25.722L45,127.017l1.25-.722Z"/>
    <path id="Path-130" data-name="Path" class="cls-3" d="M50,127.017l-1.25.722-1.25-.722,1.25-.722Z"/>
    <path id="Path-131" data-name="Path" class="cls-3" d="M50,128.461l-1.25.721-1.25-.721,1.25-.722Z"/>
    <path id="Path-132" data-name="Path" class="cls-3" d="M52.5,128.461l-1.25.721L50,128.461l1.25-.722Z"/>
    <path id="Path-133" data-name="Path" class="cls-3" d="M52.5,127.023l-1.25.722L50,127.023l1.25-.721Z"/>
    <path id="Path-134" data-name="Path" class="cls-3" d="M47.5,125.574l-1.25.721L45,125.574l1.25-.7219Z"/>
    <path id="Path-135" data-name="Path" class="cls-3" d="M55,127.017l-1.25.722-1.25-.722,1.25-.722Z"/>
    <path id="Path-136" data-name="Path" class="cls-3" d="M55,124.13l-1.25.7221L52.5,124.13l1.25-.721Z"/>
    <path id="Path-137" data-name="Path" class="cls-3" d="M55,125.574l-1.25.721-1.25-.721,1.25-.7219Z"/>
    <path id="Path-138" data-name="Path" class="cls-3" d="M52.5,125.574l-1.25.721v-1.4429Z"/>
    <path id="Path-139" data-name="Path" class="cls-3" d="M52.5,124.13l-1.25.7221V123.409Z"/>
    <path id="Path-140" data-name="Path" class="cls-3" d="M52.5,122.693l-1.25.722L50,122.693l1.25-.722Z"/>
    <path id="Path-141" data-name="Path" class="cls-3" d="M57.5,125.574l-1.25.721L55,125.574l1.25-.7219Z"/>
    <path id="Path-142" data-name="Path" class="cls-17" d="M130,128.46l1.25.722,1.25-.722-1.25-.721Z"/>
    <path id="Path-143" data-name="Path" class="cls-17" d="M127.5,128.46l1.25.722,1.25-.722-1.25-.721Z"/>
    <path id="Path-144" data-name="Path" class="cls-17" d="M125,128.46l1.25.722,1.25-.722-1.25-.721Z"/>
    <path id="Path-145" data-name="Path" class="cls-17" d="M122.5,128.46l1.25.722,1.25-.722-1.25-.721Z"/>
    <path id="Path-146" data-name="Path" class="cls-17" d="M125,125.574l1.25.721,1.25-.721-1.25-.7219Z"/>
    <path id="Path-147" data-name="Path" class="cls-17" d="M127.5,127.017l1.25.722,1.25-.722-1.25-.722Z"/>
    <path id="Path-148" data-name="Path" class="cls-17" d="M125,127.017l1.25.722,1.25-.722-1.25-.722Z"/>
    <path id="Path-149" data-name="Path" class="cls-17" d="M122.5,127.017l1.25.722,1.25-.722-1.25-.722Z"/>
    <path id="Path-150" data-name="Path" class="cls-17" d="M120,127.017l1.25.722,1.25-.722-1.25-.722Z"/>
    <path id="Path-151" data-name="Path" class="cls-17" d="M120,128.46l1.25.722,1.25-.722-1.25-.721Z"/>
    <path id="Path-152" data-name="Path" class="cls-17" d="M117.5,128.46l1.25.722,1.25-.722-1.25-.721Z"/>
    <path id="Path-153" data-name="Path" class="cls-17" d="M117.5,127.023l1.25.722,1.25-.722-1.25-.722Z"/>
    <path id="Path-154" data-name="Path" class="cls-17" d="M122.5,125.574l1.25.721,1.25-.721-1.25-.7219Z"/>
    <path id="Path-155" data-name="Path" class="cls-17" d="M115,127.017l1.25.722,1.25-.722-1.25-.722Z"/>
    <path id="Path-156" data-name="Path" class="cls-17" d="M115,124.13l1.25.7221,1.25-.7221-1.25-.721Z"/>
    <path id="Path-157" data-name="Path" class="cls-17" d="M115,125.574l1.25.721,1.25-.721-1.25-.7219Z"/>
    <path id="Path-158" data-name="Path" class="cls-17" d="M117.5,125.574l1.25.721v-1.4429Z"/>
    <path id="Path-159" data-name="Path" class="cls-17" d="M117.5,124.13l1.25.7221V123.409Z"/>
    <path id="Path-160" data-name="Path" class="cls-17" d="M117.5,122.693l1.25.722,1.25-.722-1.25-.722Z"/>
    <path id="Path-161" data-name="Path" class="cls-17" d="M112.5,125.574l1.25.721,1.25-.721-1.25-.7219Z"/>
    <path id="Path-162" data-name="Path" class="exterior-L-prim" d="M120,98.15l5-2.887-5-2.887Z"/>
    <path id="Path-163" data-name="Path" class="exterior-L-prim" d="M127.5,93.819l5-2.886-5-2.887Z"/>
    <path id="Path-164" data-name="Path" class="exterior-L-prim" d="M142.5,96.706l-5,2.887L135,98.15V92.376Z"/>
    <path id="Path-165" data-name="Path" class="exterior-L-prim" d="M135,101.036l-5,2.887-2.5-1.443V96.706Z"/>
    <path id="Path-166" data-name="Path" class="exterior-R-prim" d="M27.5,96.706l7.5-4.33V98.15l-2.5,1.443Z"/>
    <path id="Path-167" data-name="Path" class="exterior-R-prim" d="M42.5,96.706v5.774L40,103.923l-5-2.887Z"/>
    <path id="Path-168" data-name="Path" class="exterior-R-prim" d="M50,92.376V98.15l-5-2.887Z"/>
    <path id="Path-169" data-name="Path" class="exterior-R-prim" d="M37.5,90.933l5-2.887v5.773Z"/>
    <path id="Path-170" data-name="Path" class="exterior-R-prim" d="M77.5,125.574l7.5-4.33v5.773l-2.5,1.443Z"/>
    <path id="Path-171" data-name="Path" class="exterior-R-prim" d="M77.5,116.913v5.774L75,124.13l-5-2.886Z"/>
    <path id="Path-172" data-name="Path" class="exterior-R-prim" d="M85,112.583v5.774l-5-2.887Z"/>
    <path id="Path-173" data-name="Path" class="exterior-R-prim" d="M92.5,116.913v5.774l-5-2.887Z"/>
  </g>
</svg>
