<svg id="Layer_1" data-name="Layer 1" xmlns="http://www.w3.org/2000/svg" viewBox="0 0 515 687.0471">
  <defs>
    <style>
      .top-dark {
        fill: #c67471;
      }

      .top-light {
        fill: #ffc8c6;
      }

      .top-prim {
        fill: #dd8a87;
      }

      .curtain-R-prim-light {
        fill: #59acd0;
      }

      .cls-1 {
        fill: #484e51;
      }

      .curtain-L-prim-light {
        fill: #438fb0;
      }

      .cls-2 {
        fill: #2a2d2f;
      }

      .exterior-L-prim {
        fill: #73302e;
      }

      .curtain-L-prim-dark {
        fill: #2f5565;
      }

      .curtain-R-prim-dark {
        fill: #3e809c;
      }

      .cls-3 {
        fill: #89d8ff;
      }

      .cls-4 {
        fill: #448fb5;
      }

      .exterior-R-prim {
        fill: #d05752;
      }

      .curtain-R-prim-dark-light {
        fill: #4d90ad;
      }

      .curtain-R-prim-light-dark {
        fill: #3999c1;
      }

      .cls-5 {
        fill: #fff;
      }

      .cls-6 {
        fill: #686868;
      }

      .cls-7 {
        fill: none;
      }

      .cls-8 {
        fill: #2e2e2e;
      }

      .cls-9 {
        fill: #eb5559;
      }

      .cls-10 {
        fill: #cc4347;
      }

      .cls-11 {
        fill: #717171;
      }

      .cls-12 {
        fill: #b9b9b9;
      }

      .cls-13 {
        fill: #3b3b3b;
      }
    </style>
  </defs>
  <title>Artboard 21</title>
  <g id="root">
    <path id="anchor_140_167.431_290" class="top-dark" d="M140,103.923l130,75.055L430,86.602V75.055L300,0,140,92.376Z"/>
    <path class="top-light" d="M0,548.482,275,389.711,515,528.275,240,687.0471Z"/>
    <path class="top-prim" d="M240,681.273,505,528.275,275,395.485,10,548.482Z"/>
    <path class="curtain-R-prim-light" d="M440,404.145v115.47l30-17.321V386.824Z"/>
    <path class="cls-1" d="M470,375.277v23.094l-40,23.094V398.371Z"/>
    <path class="curtain-L-prim-light" d="M130,421.465v115.47L95,516.728V401.258Z"/>
    <path class="top-light" d="M450,178.978,270,282.901l-80-46.188L370,132.79Z"/>
    <path class="cls-2" d="M130,433.012V409.918L95,389.711v23.094Z"/>
    <path class="exterior-L-prim" d="M110,409.918l5,2.887v51.962l-5-2.887Z"/>
    <path class="exterior-L-prim" d="M95,395.485l5,2.886v57.735l-5-2.886Z"/>
    <path class="top-light" d="M455,412.805v5.774L240,542.709,80,450.333v-5.774l215-124.13Z"/>
    <path class="top-prim" d="M90,444.559,295,326.203l150,86.602L240,531.162Z"/>
    <path class="curtain-L-prim-light" d="M220,230.94V473.427L95,401.258V158.771Z"/>
    <path class="cls-2" d="M95,366.617v34.641L215,470.54V435.899Z"/>
    <path class="curtain-L-prim-light" d="M270,167.431l10-5.773V461.88l-10,5.773L140,392.598V92.376Z"/>
    <path class="top-light" d="M115,147.224l30-17.32,155,89.489-30,17.32Z"/>
    <path class="curtain-R-prim-light" d="M270,167.431v115.47l160-92.376V75.055Z"/>
    <path class="curtain-L-prim-dark" d="M230,213.619v23.094l40,23.094V236.713Z"/>
    <path class="curtain-L-prim-dark" d="M230,305.995v23.094l40,23.094V329.089Z"/>
    <path class="curtain-L-prim-dark" d="M230,398.371v23.094l40,23.094V421.465Z"/>
    <path class="curtain-L-prim-dark" d="M230,259.807v23.094l40,23.094V282.901Z"/>
    <path class="curtain-L-prim-dark" d="M230,352.183v23.094l40,23.094V375.277Z"/>
    <path class="curtain-L-prim-dark" d="M230,444.559V461.88l40,23.094V467.653Z"/>
    <path class="cls-2" d="M100,155.884l-5,2.887v23.094l125,72.169V225.166Z"/>
    <path class="curtain-L-prim-dark" d="M95,297.335v23.094l125,72.169V369.504Z"/>
    <path class="curtain-L-prim-dark" d="M95,343.523v23.094l125,72.169V415.692Z"/>
    <path class="curtain-L-prim-dark" d="M95,204.959v23.094l125,72.169V277.128Z"/>
    <path class="curtain-L-prim-dark" d="M95,297.335v23.094l125,72.169V369.504Z"/>
    <path class="curtain-L-prim-dark" d="M95,297.335v23.094l125,72.169V369.504Z"/>
    <path class="curtain-L-prim-dark" d="M95,251.147v23.094L220,346.41V323.316Z"/>
    <path class="curtain-R-prim-light" d="M270,282.901V479.2l160-92.376V190.525Z"/>
    <path class="curtain-R-prim-light" d="M320,277.128V473.427l150-86.603V190.525Z"/>
    <path class="curtain-R-prim-light" d="M240,536.935V652.4059L455,528.275V412.805Z"/>
    <path class="curtain-R-prim-dark" d="M310,305.995v23.094l-40,23.094V329.089Z"/>
    <path class="curtain-R-prim-dark" d="M310,398.371v23.094l-40,23.094V421.465Z"/>
    <path class="curtain-R-prim-dark" d="M310,259.807v23.094l-40,23.094V282.901Z"/>
    <path class="cls-1" d="M465,187.639l5,2.886v23.094L320,300.222l-5-2.887V274.241Z"/>
    <path class="curtain-R-prim-dark" d="M470,282.901v23.094L320,392.598V369.504Z"/>
    <path class="curtain-R-prim-dark" d="M470,329.089v23.094L320,438.786V415.692Z"/>
    <path class="curtain-R-prim-dark" d="M455,412.805v23.094L300,525.388V502.294Z"/>
    <path class="curtain-R-prim-dark" d="M455,458.993v23.094L300,571.576V548.483Z"/>
    <path class="curtain-R-prim-dark" d="M455,505.181v23.094L300,617.764V594.67Z"/>
    <path class="curtain-R-prim-dark" d="M470,282.901v23.094L320,392.598V369.504Z"/>
    <path class="curtain-R-prim-dark" d="M470,282.901v23.094L320,392.598V369.504Z"/>
    <path class="curtain-R-prim-dark" d="M470,236.713v23.094L320,346.41V323.316Z"/>
    <path class="cls-3" d="M240,536.935l10-5.773v115.47l-10,5.7739L80,560.029V444.559Z"/>
    <path class="curtain-L-prim-light" d="M270,167.431v69.282L140,161.658V92.376Z"/>
    <path class="curtain-R-prim-dark" d="M310,352.183v23.094l-40,23.094V375.277Z"/>
    <path class="curtain-R-prim-dark" d="M310,444.559V461.88l-40,23.094V467.653Z"/>
    <path class="cls-4" d="M320,277.128V473.427L300,461.88V265.581Z"/>
    <path class="top-light" d="M320,277.128l150-86.603-20-11.547L300,265.581Z"/>
    <path class="top-light" d="M95,158.771l20-11.547,125,72.169L220,230.94Z"/>
    <path class="curtain-R-prim-light" d="M220,473.427l20-11.547V219.393L220,230.94Z"/>
    <path class="top-prim" d="M235,216.506l-15,8.66L105,158.771l35-20.207v23.094Z"/>
    <path class="top-prim" d="M305,262.694l15,8.66,140-80.829-30-17.32v17.32Z"/>
    <path class="curtain-L-prim-dark" d="M300,357.957l20,11.547v23.094l-20-11.547Z"/>
    <path class="curtain-L-prim-dark" d="M300,311.769l20,11.547V346.41l-20-11.547Z"/>
    <path class="curtain-L-prim-dark" d="M300,404.145l20,11.547v23.094l-20-11.547Z"/>
    <path class="cls-2" d="M305,430.126l15,8.66V479.2l-15-8.66Z"/>
    <path class="cls-2" d="M300,265.581l20,11.547v23.094l-20-11.547Z"/>
    <path class="cls-2" d="M300,311.769l20-34.641h0l-20,34.641Z"/>
    <path class="exterior-R-prim" d="M130,421.465v5.774L95,447.446l-5-2.887Z"/>
    <path class="cls-2" d="M130,415.692v11.547L220,479.2V467.653Z"/>
    <path class="curtain-L-prim-dark" d="M240,461.88v5.773l30,17.321V479.2Z"/>
    <path class="cls-1" d="M435,401.258v11.547L320,479.2V467.653Z"/>
    <path class="curtain-R-prim-dark" d="M270,484.974l30-17.321V461.88L270,479.2Z"/>
    <path class="exterior-R-prim" d="M220,479.2l20-11.547V461.88l-20,11.547Z"/>
    <path class="exterior-L-prim" d="M435,412.805l5,2.887,5-2.887-10-5.773Z"/>
    <path class="exterior-L-prim" d="M465,505.181v5.774l35,20.207,5-2.887Z"/>
    <path class="exterior-R-prim" d="M10,548.482l70-40.414v5.773L15,551.369Z"/>
    <path class="exterior-R-prim" d="M455,516.728l10-5.773v-5.774l-10,5.774Z"/>
    <path class="exterior-R-prim" d="M140,138.564v5.773l-30,17.321-5-2.887Z"/>
    <path class="curtain-L-prim-dark" d="M140,161.658v5.773l90,51.962,5-2.887Z"/>
    <path class="exterior-L-prim" d="M430,178.978l25,14.434,5-2.887-30-17.32Z"/>
    <path class="cls-1" d="M320,438.786v34.641l150-86.603V352.183Z"/>
    <path class="exterior-L-prim" d="M140,184.752l5,2.887v248.26l-5-2.887Z"/>
    <path class="exterior-L-prim" d="M110,167.431l5,2.887V418.579l-5-2.887Z"/>
    <path class="exterior-L-prim" d="M170,202.072l5,2.887V453.22l-5-2.887Z"/>
    <path class="exterior-L-prim" d="M200,219.393l5,2.887V470.54l-5-2.887Z"/>
    <path class="exterior-L-prim" d="M125,176.091l5,2.887V421.465l-5-2.886Z"/>
    <path class="exterior-L-prim" d="M95,158.771l5,2.887v248.26l-5-2.886Z"/>
    <path class="exterior-L-prim" d="M155,193.412l5,2.887v248.26l-5-2.886Z"/>
    <path class="exterior-L-prim" d="M185,210.732l5,2.887V461.88l-5-2.887Z"/>
    <path class="exterior-L-prim" d="M215,228.053l5,2.887V479.2l-5-2.886Z"/>
    <path class="exterior-R-prim" d="M400,230.94l-5,2.887V435.899l5-2.887Z"/>
    <path class="exterior-R-prim" d="M430,213.619l-5,2.887V418.579l5-2.887Z"/>
    <path class="exterior-R-prim" d="M370,248.26l-5,2.887V453.22l5-2.887Z"/>
    <path class="exterior-R-prim" d="M340,265.581l-5,2.887V470.54l5-2.887Z"/>
    <path class="exterior-R-prim" d="M415,222.28l-5,2.886V427.239l5-2.887Z"/>
    <path class="exterior-R-prim" d="M445,204.959l-5,2.887V404.145l5,2.887Z"/>
    <path class="exterior-R-prim" d="M460,196.299l-5,2.887V510.955l5-2.887Z"/>
    <path class="exterior-R-prim" d="M385,239.6l-5,2.887V444.559l5-2.886Z"/>
    <path class="exterior-R-prim" d="M355,256.921l-5,2.886V461.88l5-2.887Z"/>
    <path class="exterior-R-prim" d="M325,274.241l-5,2.887V479.2l5-2.886Z"/>
    <path class="curtain-R-prim-dark" d="M430,98.149v23.094L270,213.619V190.525Z"/>
    <path class="cls-1" d="M215,228.053v23.094l5,2.887,20-11.547V219.393L220,230.94Z"/>
    <path class="curtain-R-prim-dark" d="M220,300.222l20-11.547V265.581l-20,11.547Z"/>
    <path class="cls-1" d="M220,277.128l20,34.641h0l-20-34.641Z"/>
    <path class="curtain-R-prim-dark" d="M220,392.598l20-11.547V357.957l-20,11.547Z"/>
    <path class="curtain-R-prim-dark" d="M220,438.786l20-11.547V404.145l-20,11.547Z"/>
    <path class="curtain-R-prim-dark" d="M220,346.41l20-11.547V311.769l-20,11.547Z"/>
    <path class="cls-1" d="M225,476.314l15-8.661V427.239l-15,8.66Z"/>
    <path class="curtain-R-prim-dark" d="M430,144.337v23.094L270,259.807V236.713Z"/>
    <path class="curtain-L-prim-dark" d="M140,115.47v23.094l130,75.055V190.525Z"/>
    <path class="exterior-L-prim" d="M215,228.053l5,2.887,5-2.887V476.314l-5,2.886-5-2.886Z"/>
    <path class="exterior-R-prim" d="M225,228.053l-5,2.887V479.2l5-2.886Z"/>
    <path class="exterior-R-prim" d="M240,219.393l-5,2.887V470.54l5-2.887Z"/>
    <path class="exterior-R-prim" d="M325,274.241l-5,2.887-5-2.887V476.314l5,2.886,5-2.886Z"/>
    <path class="exterior-R-prim" d="M295,505.181l5-2.887v115.47l-5,2.8869Z"/>
    <path class="exterior-L-prim" d="M315,274.241l5,2.887V479.2l-5-2.886Z"/>
    <path class="exterior-L-prim" d="M300,265.581l5,2.887V470.54l-5-2.887Z"/>
    <path class="curtain-R-prim-dark-light" d="M300,525.388l10-5.773V496.521l-10,5.773Z"/>
    <path class="curtain-R-prim-dark-light" d="M300,571.576l10-5.773V542.709l-10,5.773Z"/>
    <path class="curtain-R-prim-dark-light" d="M300,617.764l10-5.773V588.897l-10,5.773Z"/>
    <path class="curtain-R-prim-dark-light" d="M380,479.2l10-5.773V450.333l-10,5.773Z"/>
    <path class="curtain-R-prim-dark-light" d="M380,525.388l10-5.773V496.521l-10,5.773Z"/>
    <path class="curtain-R-prim-dark-light" d="M380,571.576l10-5.773V542.709l-10,5.773Z"/>
    <path class="curtain-R-prim-dark-light" d="M340,502.294l10-5.773V473.427L340,479.2Z"/>
    <path class="curtain-R-prim-dark-light" d="M340,548.482l10-5.773V519.615l-10,5.773Z"/>
    <path class="curtain-R-prim-dark-light" d="M340,594.67l10-5.773V565.803l-10,5.773Z"/>
    <path class="curtain-R-prim-dark-light" d="M420,456.106l10-5.773V427.239l-10,5.773Z"/>
    <path class="curtain-R-prim-dark-light" d="M420,502.294l10-5.773V473.427L420,479.2Z"/>
    <path class="curtain-R-prim-dark-light" d="M420,548.482l10-5.773V519.615l-10,5.773Z"/>
    <path class="curtain-R-prim-dark-light" d="M320,513.841l10-5.773V484.974l-10,5.773Z"/>
    <path class="curtain-R-prim-dark-light" d="M320,560.029l10-5.773V531.162l-10,5.773Z"/>
    <path class="curtain-R-prim-dark-light" d="M320,606.217l10-5.773V577.35l-10,5.773Z"/>
    <path class="curtain-R-prim-dark-light" d="M400,467.653l10-5.773V438.786l-10,5.773Z"/>
    <path class="curtain-R-prim-dark-light" d="M400,513.841l10-5.773V484.974l-10,5.773Z"/>
    <path class="curtain-R-prim-dark-light" d="M400,560.029l10-5.773V531.162l-10,5.773Z"/>
    <path class="curtain-R-prim-dark-light" d="M360,490.747l10-5.773V461.88l-10,5.773Z"/>
    <path class="curtain-R-prim-dark-light" d="M360,536.935l10-5.773V508.068l-10,5.773Z"/>
    <path class="curtain-R-prim-dark-light" d="M360,583.123l10-5.773V554.256l-10,5.773Z"/>
    <path class="curtain-R-prim-dark-light" d="M440,444.559l10-5.773V415.692l-10,5.773Z"/>
    <path class="curtain-R-prim-light-dark" d="M310,542.709l10-5.774V513.841l-10,5.774Z"/>
    <path class="curtain-R-prim-light-dark" d="M390,496.521l10-5.774V467.653l-10,5.774Z"/>
    <path class="curtain-R-prim-light-dark" d="M350,519.615l10-5.774V490.747l-10,5.774Z"/>
    <path class="curtain-R-prim-light-dark" d="M430,473.427l10-5.774V444.559l-10,5.774Z"/>
    <path class="curtain-R-prim-light-dark" d="M330,531.162l10-5.774V502.294l-10,5.774Z"/>
    <path class="curtain-R-prim-light-dark" d="M410,484.974l10-5.774V456.106l-10,5.774Z"/>
    <path class="curtain-R-prim-light-dark" d="M370,508.068l10-5.774V479.2l-10,5.774Z"/>
    <path class="curtain-R-prim-light-dark" d="M450,461.88l5-2.887V435.899l-5,2.887Z"/>
    <path class="curtain-R-prim-light-dark" d="M310,588.897l10-5.774V560.029l-10,5.774Z"/>
    <path class="curtain-R-prim-light-dark" d="M390,542.709l10-5.774V513.841l-10,5.774Z"/>
    <path class="curtain-R-prim-light-dark" d="M350,565.803l10-5.774V536.935l-10,5.774Z"/>
    <path class="curtain-R-prim-light-dark" d="M430,519.615l10-5.774V490.747l-10,5.774Z"/>
    <path class="curtain-R-prim-light-dark" d="M330,577.35l10-5.774V548.482l-10,5.774Z"/>
    <path class="curtain-R-prim-light-dark" d="M410,531.162l10-5.774V502.294l-10,5.774Z"/>
    <path class="curtain-R-prim-light-dark" d="M370,554.256l10-5.774V525.388l-10,5.774Z"/>
    <path class="curtain-R-prim-light-dark" d="M450,508.068l5-2.887V482.087l-5,2.887Z"/>
    <path class="curtain-R-prim-dark-light" d="M440,490.747l10-5.773V461.88l-10,5.773Z"/>
    <path class="curtain-R-prim-dark-light" d="M440,536.935l10-5.773V508.068l-10,5.773Z"/>
    <path class="curtain-R-prim-light" d="M300,259.807l130-75.055v11.547L310,265.581Z"/>
    <g id="Group">
      <path id="Mask" d="M240,536.9362l7.5-4.33v115.47l-7.5,4.33L80,560.03V444.56Z"/>
      <path id="Compound_Path" data-name="Compound Path" class="cls-5" d="M99.625,504.9948v-3.75l-7.875-4.5469v23l7.875,4.5469v-3.75l-3.4-1.9629v-5.95l3.3247,1.92v-3.7l-3.3247-1.92v-5.85Zm5.9751,18.95v-19.25l-4.4751-2.584v23l8.25,4.7632v-3.75Zm13.15-7.9082v-3.75l-7.875-4.5469v23l7.875,4.5469v-3.75l-3.4-1.9629v-5.95l3.3247,1.92v-3.7l-3.3247-1.92v-5.85Zm12.2251,18.0083-4.4751-2.584v3.625c0,.9248-.4248.9551-.95.6519a1.8649,1.8649,0,0,1-.95-1.749v-13.6c0-.9248.4248-.9537.95-.6509a1.8636,1.8636,0,0,1,.95,1.748v3.5752l4.4751,2.584v-3.6c0-3.7-2.1753-6.1811-5.4253-8.0571s-5.4248-1.9068-5.4248,1.7929v13.65c0,3.7,2.1748,6.1812,5.4248,8.0572s5.4253,1.9072,5.4253-1.793Zm11.25-8.2051-10.375-5.99v3.75l2.95,1.7026v19.25l4.4751,2.584v-19.25l2.95,1.7031Zm12.625,30.2891-1.9751-8.915c.9248-.191,1.5-1.0088,1.5-2.7339v-6.7c0-3.55-.75-5.3579-4.4248-7.48l-6.35-3.666v23l4.4751,2.584v-6.7251l1.15.664,1.6,7.648Zm-6.7749-23.186.8247.476a1.8119,1.8119,0,0,1,1.1,1.86v6.6753c0,.8-.2,1.0347-.8.7378l-1.125-.624Zm7.7749,23.7641,4.4751,2.583v-23l-4.4751-2.583Zm16.8247,1.4141L168.2,555.5368v3.625c0,.9253-.4253.9551-.95.6514a1.8647,1.8647,0,0,1-.95-1.7481v-13.6c0-.9248.4253-.9551.95-.6518a1.8661,1.8661,0,0,1,.95,1.749v3.5747l4.4746,2.584v-3.6c0-3.7-2.1748-6.1812-5.4248-8.0581s-5.4248-1.9073-5.4248,1.7929v13.65c0,3.7,2.1748,6.1812,5.4248,8.0572s5.4248,1.9077,5.4248-1.792Zm3.9,10.9507c1.3247.7651,2.4.311,2.4-.9888a4.9792,4.9792,0,0,0-2.4-3.7612c-1.3252-.7652-2.4-.31-2.4.99A4.9771,4.9771,0,0,0,176.5752,569.072Zm-12.1-46.1109v-.25c1.3.126,1.65-.6719,1.65-2.122v-3.025c0-3.55-.75-5.3579-4.35-7.437l-6.35-3.666v23l6.4,3.6948c3.7246,2.1509,4.4746,1.209,4.4746-2.3408V527.39A6.1725,6.1725,0,0,0,164.4751,522.9611Zm-3.8-9.7192a1.8124,1.8124,0,0,1,1.1,1.86v3.625c0,.9248-.25,1.0806-1.1.59L159.9,518.87v-6.0747Zm1.15,14.914c0,.9253-.25,1.0811-1.1.59L159.9,528.27v-6.45l.8252.4761a1.8117,1.8117,0,0,1,1.1,1.86ZM178.65,519.87l-4.4751-2.583v18.2754c0,.9248-.4248.9536-.95.6509a1.8646,1.8646,0,0,1-.95-1.7481V516.19l-4.4751-2.584v18.3c0,3.7,2.1753,6.1812,5.4253,8.0572s5.4248,1.9067,5.4248-1.793Zm11.75,6.7842-10.375-5.99v3.75l2.95,1.7027v19.25l4.4751,2.584v-19.25l2.95,1.7031Zm-89.6-40.4561v-.25c1.3.126,1.65-.6718,1.65-2.122V480.801c0-3.55-.75-5.3579-4.35-7.4361l-6.35-3.667v23l6.4,3.6953c3.7251,2.1509,4.4751,1.209,4.4751-2.3413v-3.4248A6.1714,6.1714,0,0,0,100.8,486.1979ZM97,476.48a1.811,1.811,0,0,1,1.1,1.86v3.625c0,.9248-.25,1.08-1.1.59l-.7749-.4478v-6.0752Zm1.15,14.913c0,.9249-.25,1.0806-1.1.59l-.8247-.4761v-6.45l.8247.4761a1.8124,1.8124,0,0,1,1.1,1.86Zm5.9751,8.45,4.4751,2.5839v-23l-4.4751-2.5839Zm13.65,7.8808,4.25,2.4541-3.2-14.123L121.8,487.048l-4.45-2.5688-2.6,7.874-.2-.1162v-9.375l-4.45-2.5688v23l4.45,2.5688v-6.2251l.9751-2.687Zm13.25-11.6v-3.75l-7.875-4.5474v23l7.875,4.5474v-3.75l-3.4-1.9634v-5.95l3.3252,1.92v-3.7l-3.3252-1.92v-5.85Zm3.9,21.9019c1.3252.7651,2.4.31,2.4-.99a4.9768,4.9768,0,0,0-2.4-3.76c-1.3247-.7652-2.4-.3111-2.4.9887A4.98,4.98,0,0,0,134.9248,518.0261Zm6.3,3.6372c1.3247.7646,2.4.3095,2.4-.99a4.9766,4.9766,0,0,0-2.4-3.76c-1.3252-.7652-2.4-.3111-2.4.9887A4.979,4.979,0,0,0,141.2251,521.6633Zm6.3,3.6367c1.3252.7651,2.4.311,2.4-.9888a4.9778,4.9778,0,0,0-2.4-3.7612c-1.3247-.7651-2.4-.31-2.4.99A4.9776,4.9776,0,0,0,147.5249,525.3Z"/>
      <path id="Compound_Path-2" data-name="Compound Path" class="cls-6" d="M120.12,547.0749l-1.79-1.0337v1.45c0,.37-.17.3823-.38.2612a.7481.7481,0,0,1-.38-.7v-5.44c0-.37.17-.3818.38-.26a.7439.7439,0,0,1,.38.6988v1.43l1.79,1.0337v-1.44a3.6632,3.6632,0,0,0-2.17-3.2227c-1.3-.7509-2.17-.7631-2.17.7168v5.46a3.6644,3.6644,0,0,0,2.17,3.2231c1.3.75,2.17.7627,2.17-.7172Zm2.77-4.3706c-1.3-.7515-2.17-.7632-2.17.7168v5.44a3.6642,3.6642,0,0,0,2.17,3.2232c1.3.75,2.17.7627,2.17-.7173v-5.44A3.6633,3.6633,0,0,0,122.89,542.7043Zm.38,2.1987v5.42c0,.37-.17.3824-.38.2613a.7473.7473,0,0,1-.38-.7v-5.42c0-.37.17-.3809.38-.26A.7438.7438,0,0,1,123.27,544.903Zm4.56.6528c-1.3-.7509-2.17-.7626-2.17.7173v5.44a3.664,3.664,0,0,0,2.17,3.2231c1.3.75,2.17.7627,2.17-.7173v-5.44A3.6639,3.6639,0,0,0,127.83,545.5558Zm.38,2.1993v5.42c0,.37-.17.3818-.38.2612a.7452.7452,0,0,1-.38-.6992v-5.42c0-.37.17-.3819.38-.2613A.7454.7454,0,0,1,128.21,547.7551Zm4.18,8.2241v-7.7l-1.79-1.0342v9.2l3.3,1.9053v-1.5Zm2.01,3.71c3.32,1.917,3.47-.5659,3.47-3.6459,0-3.07-.15-5.7374-3.47-7.6543v1.5c1.55.895,1.69,2.5361,1.69,5.1259,0,2.6-.14,4.0694-1.69,3.1743Zm-39.63-22.88v-1.5c-1.55-.8951-1.69-2.5264-1.69-5.1265,0-2.59.14-4.0688,1.69-3.1738v-1.5c-3.32-1.917-3.47.5761-3.47,3.646C91.3,532.235,91.45,534.8923,94.77,536.8093Zm.4-10.0191.92,9.731,3.08,1.7778.92-8.6689-1.71-.9869-.65,7.2046-.2-.1157-.65-7.9551Zm8.57,6.4478v-1.5l-3.15-1.8189v9.2l3.15,1.8194v-1.5l-1.36-.7862v-2.38l1.33.768v-1.48l-1.33-.768v-2.34Zm5.1,10.644-.79-3.5659c.37-.0762.6-.4043.6-1.0942v-2.68a2.8746,2.8746,0,0,0-1.77-2.9922l-2.54-1.4658v9.2l1.79,1.0332v-2.69l.46.2661.64,3.06Zm-2.71-9.2749.33.1909a.7248.7248,0,0,1,.44.7442v2.67c0,.32-.08.4141-.32.2949l-.45-.25Zm5.84,1.8819-.71,2.95-.1-.0581-.71-3.769-1.71-.9878,1.59,6.8477v3.27l1.76,1.0161v-3.27l1.59-5.0117Z"/>
      <path id="Path" class="cls-5" d="M104.0361,555.4289v6.4321a.237.237,0,0,0,.107.1861l1.0268.5927c.0591.0342.107.0074.107-.062v-6.4326a.2368.2368,0,0,0-.107-.186l-1.0268-.5923C104.084,555.3322,104.0361,555.36,104.0361,555.4289Z"/>
      <path id="Path-2" data-name="Path" class="cls-5" d="M107.1392,566.36v.9932c0,.0679-.0484.0957-.107.062l-15.9253-9.1689a.2405.2405,0,0,1-.1069-.187v-.9932c0-.0679.0479-.0962.1069-.062l15.9253,9.17A.2383.2383,0,0,1,107.1392,566.36Z"/>
      <path id="Compound_Shape" data-name="Compound Shape" class="cls-5" d="M93.8062,552.4352a2.1453,2.1453,0,0,1,.2968,1.023v1.4267c0,.754-.5288,1.06-1.1821.6832l-1.814-1.0469A.2387.2387,0,0,1,91,554.3351V547.902c0-.0678.0479-.0962.1069-.062l1.814,1.0469a2.6143,2.6143,0,0,1,1.1821,2.0493v.7207A.964.964,0,0,1,93.8062,552.4352Z"/>
      <path id="Path-3" data-name="Path" d="M92.3491,549.632l.2437.1411a.5937.5937,0,0,1,.269.4659v.9921c0,.1709-.12.2408-.269.1548l-.2437-.1411a.2354.2354,0,0,1-.1079-.1855V549.694C92.2412,549.6262,92.2891,549.5978,92.3491,549.632Z"/>
      <path id="Path-4" data-name="Path" d="M92.3491,552.134l.2437.1411a.5933.5933,0,0,1,.269.4658v1.5523c0,.1709-.12.2407-.269.1547l-.2437-.1411a.2354.2354,0,0,1-.1079-.1855V552.196C92.2412,552.1281,92.2891,552.1,92.3491,552.134Z"/>
      <path id="Path-5" data-name="Path" class="cls-5" d="M95.8579,550.5832l-1.0259-.5923c-.06-.0347-.1079-.0068-.1079.062v5.14a2.6152,2.6152,0,0,0,1.1831,2.0488l.7378.4263c.6529.3769,1.1831.0708,1.1831-.6832v-5.14a.24.24,0,0,0-.1079-.187l-1.0264-.5918c-.059-.0342-.1079-.0068-.1079.062v5.0581c0,.2061-.1391.293-.31.1939h0a.7018.7018,0,0,1-.31-.5523V550.77A.237.237,0,0,0,95.8579,550.5832Z"/>
      <path id="Path-6" data-name="Path" class="cls-5" d="M98.5562,552.1408l1.0268.5933a.41.41,0,0,1,.1519.1777l1.1523,2.9932c.0249.0639.0757.0713.1157.0141l1.1-1.5879a.1373.1373,0,0,1,.1782-.04l1.0259.5928a.2366.2366,0,0,1,.1079.186v6.3818c0,.0694-.0478.0972-.1079.0621l-1.0259-.5918a.2393.2393,0,0,1-.1083-.1871v-3.5141c0-.0689-.0308-.0786-.07-.022l-1.03,1.4854c-.0781.1128-.1811.1006-.23-.0274l-1.1079-2.8779c-.0249-.064-.045-.06-.045.0078v3.5151c0,.0679-.0478.0962-.1069.0621l-1.0268-.5928a.237.237,0,0,1-.107-.1861v-6.3823C98.4492,552.1349,98.4971,552.1071,98.5562,552.1408Z"/>
      <path id="Path-7" data-name="Path" class="cls-5" d="M104.251,560.6252l1.706.9848c.6519.377,1.1822.0708,1.1822-.6821v-2.4658a2.6164,2.6164,0,0,0-1.1822-2.0479l-1.8139-1.0473c-.0591-.0347-.107-.0069-.107.062v4.8242A.4738.4738,0,0,0,104.251,560.6252Z"/>
      <path id="Path-8" data-name="Path" d="M105.5459,557.2521l.083.0479a.5937.5937,0,0,1,.269.4648v2.4263c0,.1709-.121.2407-.269.1548l-.083-.0479a.5955.5955,0,0,1-.269-.4658v-2.4253C105.2769,557.236,105.3979,557.1662,105.5459,557.2521Z"/>
      <g>
        <path class="cls-7" d="M163.9038,579.4948a11.6162,11.6162,0,0,1,2.6846-2.1431c.1875-.1079.3833-.2011.5766-.2988a8.9912,8.9912,0,0,0-.9448.4551A8.5414,8.5414,0,0,0,163.9038,579.4948Z"/>
        <path class="cls-7" d="M201.53,630.051a9.0173,9.0173,0,0,0,1.2593-.5894,8.54,8.54,0,0,0,2.3183-1.9883,11.5947,11.5947,0,0,1-2.6865,2.145C202.1357,629.7834,201.8291,629.91,201.53,630.051Z"/>
        <path class="cls-8" d="M220.1592,558.1169l-.5161.7578,6.4731,7.25a.5.5,0,0,0,.791-.0239l.397-.5034h0l.3522-.4449a.759.759,0,0,0-.0292-.9409l-7.1065-7.959A2.5812,2.5812,0,0,1,220.1592,558.1169Z"/>
        <path class="cls-9" d="M247.5,613.3044v-1.5513l-1.1245,1.6851A2.1964,2.1964,0,0,1,247.5,613.3044Z"/>
        <path class="cls-10" d="M238.1826,625.0412l7.2085-10.82a2.1,2.1,0,0,1,.9844-.7827l1.1245-1.6851v-10.02a1.6967,1.6967,0,0,0-.4209.4336L234.0916,621.632A18.7911,18.7911,0,0,1,238.1826,625.0412Z"/>
        <path class="cls-11" d="M246.3755,613.4382a2.1,2.1,0,0,0-.9844.7827l-7.2085,10.82a22.2327,22.2327,0,0,1,2.6843,3.62l6.6331,3.83V613.3044A2.1964,2.1964,0,0,0,246.3755,613.4382Z"/>
        <path class="cls-9" d="M227.87,620.1447a8.43,8.43,0,0,1,5.9683,1.3281c.0449.0259.0886.0572.1335.084l-24.5236-47.7129-3.064,4.4986Z"/>
        <path class="cls-10" d="M227.87,620.1447l-21.4858-41.8022,3.064-4.4986,10.1953-14.9692.5161-.7578a2.5812,2.5812,0,0,0,.3613-1.8648,2.4771,2.4771,0,0,0-.6074-1.29l-1.24-1.3223,0,0L183.592,605.15l0,0,1.24,1.3218a1.5545,1.5545,0,0,0,2.5279-.1968l2.66-3.9048,5.7976-8.5127,1.18-1.7329,3.1892-4.6826,2.9422-4.32L224.4,624.506C224.6719,622.0988,225.9678,620.5881,227.87,620.1447Z"/>
        <path class="cls-9" d="M240.8669,628.6613a16.0533,16.0533,0,0,1,2.4563,7.5894l4.1768,2.4116v-6.1714Z"/>
        <path class="cls-10" d="M243.333,636.45c0,2.4512-.9387,4.1372-2.4658,4.94l6.6328,3.83v-6.5576l-4.1768-2.4116C243.3247,636.3166,243.333,636.3845,243.333,636.45Z"/>
        <path class="cls-12" d="M183.13,579.8664c-4.1963-2.4229-8.1924-3.6616-11.5938-3.6616a10.9962,10.9962,0,0,0-4.3716.8481c-.1933.0977-.3891.1909-.5766.2988a11.6162,11.6162,0,0,0-2.6846,2.1431c-1.7341,2.1016-2.6484,5.1377-2.6484,8.979,0,7.3736,3.3193,15.9053,8.5488,23.4048l4.4985,2.5972c-6.0908-7.2588-10.17-16.2876-10.17-23.9068,0-4.63,1.5821-8.0942,4.4561-9.7529a9.3992,9.3992,0,0,1,4.7549-1.1689,20.9935,20.9935,0,0,1,10.1621,3.1977,39.9277,39.9277,0,0,1,7.2715,5.49l1.1845-1.74A46.41,46.41,0,0,0,183.13,579.8664Z"/>
        <path class="cls-12" d="M202.4214,629.6183a11.5947,11.5947,0,0,0,2.6865-2.145c1.7337-2.1015,2.6475-5.1367,2.6475-8.977,0-8.3657-4.2686-18.2241-10.7581-26.3716l-1.18,1.7329c5.471,7.0054,9.0594,15.397,9.0594,22.5444,0,4.63-1.5821,8.0933-4.4551,9.7525a9.0438,9.0438,0,0,1-3.9185,1.1387l4.8784,2.8164c.05-.0186.0992-.04.149-.0586C201.8291,629.91,202.1357,629.7834,202.4214,629.6183Z"/>
        <path class="cls-8" d="M163.9038,579.4948a8.5414,8.5414,0,0,1,2.3164-1.9868,8.9912,8.9912,0,0,1,.9448-.4551,10.9962,10.9962,0,0,1,4.3716-.8481c3.4014,0,7.3975,1.2387,11.5938,3.6616a46.41,46.41,0,0,1,8.831,6.729l3.1162-4.5752a50.4509,50.4509,0,0,0-9.1972-6.9165c-8.42-4.8613-16.5869-5.7188-22.41-2.3584-4.9746,2.8721-7.7148,8.458-7.7148,15.7285,0,5.6533,1.6985,11.8941,4.605,17.9522l9.4438,5.4526c-5.23-7.5-8.5488-16.0312-8.5488-23.4048C161.2554,584.6325,162.17,581.5964,163.9038,579.4948Z"/>
        <path class="cls-8" d="M196.9973,592.1247c6.4895,8.1475,10.7581,18.0059,10.7581,26.3716,0,3.84-.9138,6.8755-2.6475,8.977a8.54,8.54,0,0,1-2.3183,1.9883,9.0173,9.0173,0,0,1-1.2593.5894c-.05.019-.0987.04-.149.0586l5.5359,3.1962c4.0972-3.06,6.3382-8.2446,6.3382-14.8095,0-9.9307-5.2354-21.6724-13.0689-31.0542Z"/>
        <path class="cls-12" d="M184.832,606.4719l-1.24-1.3218,0,0-1.0852-1.1567a2.645,2.645,0,0,1-.2456-3.1538l2.7491-4.0367c-.1675-.1089-.3348-.2187-.5054-.3174-3.8628-2.23-7-.9047-7,2.959s3.1372,8.8111,7,11.041,7,.9048,7-2.958A11.2562,11.2562,0,0,0,190.02,602.37l-2.66,3.9048A1.5545,1.5545,0,0,1,184.832,606.4719Z"/>
        <path class="cls-10" d="M212.0376,557.1164l-4.5381-2.62-8.7744,14.1948a2.9342,2.9342,0,0,1-3.939.9917L177.459,559.68l.45,1.7422a7.74,7.74,0,0,0,3.1587,4.1557l18.0935,10.4458Z"/>
        <path class="cls-9" d="M198.7251,568.6911,207.5,554.4963l-34.4316-19.8794c-1.3531-.7808-2.1338-.187-1.7427,1.3262L177.459,559.68l17.3271,10.0029A2.9342,2.9342,0,0,0,198.7251,568.6911Z"/>
        <path class="cls-9" d="M182.5068,603.9929l1.0852,1.1567L218.6726,553.64l-1.0857-1.1572a1.5547,1.5547,0,0,0-2.5278.1968l-3.0215,4.4365-12.8762,18.9072-4.0838,5.9966-3.1162,4.5752-1.1845,1.74-5.7666,8.4673-2.7491,4.0367A2.645,2.645,0,0,0,182.5068,603.9929Z"/>
        <path class="cls-12" d="M243.333,636.45c0-.0654-.0083-.1333-.01-.1992a16.0533,16.0533,0,0,0-2.4563-7.5894,22.2327,22.2327,0,0,0-2.6843-3.62,18.7911,18.7911,0,0,0-4.091-3.4092c-.04-.0244-.08-.0513-.12-.0752-.0449-.0268-.0886-.0581-.1335-.084a8.43,8.43,0,0,0-5.9683-1.3281c-1.9018.4434-3.1977,1.9541-3.47,4.3613a8.6832,8.6832,0,0,0-.0555.98c0,5.24,4.2539,11.9512,9.4937,14.9761,2.79,1.61,5.2915,1.8428,7.0293.9282C242.3943,640.5871,243.333,638.9011,243.333,636.45Z"/>
        <path class="cls-8" d="M245.9668,589.2492l1.5332.9834v-6.2353l-1.3081-.5035a1.5709,1.5709,0,0,0-2.29,1.5723v.4048A5.0044,5.0044,0,0,0,245.9668,589.2492Z"/>
      </g>
      <path id="Path-9" data-name="Path" class="cls-13" d="M239.75,652.4059l55-31.7548V505.1818l-55,31.7544Z"/>
      <g id="Group-2" data-name="Group">
        <g id="Group-3" data-name="Group">
          <path id="Path-10" data-name="Path" class="cls-5" d="M277.62,561.7062v13.4327c0,.143.1011.2011.2251.1293l2.1426-1.2373a.4974.4974,0,0,0,.2251-.3886V560.2092c0-.1431-.1011-.2012-.2251-.13l-2.1426,1.2378A.4979.4979,0,0,0,277.62,561.7062Z"/>
          <path id="Path-11" data-name="Path" class="cls-5" d="M284.1021,577.049v2.0742a.4978.4978,0,0,1-.2251.3887l-33.2549,19.251c-.1241.0722-.2242.0141-.2242-.1289v-2.0747a.4967.4967,0,0,1,.2242-.3892l33.2549-19.251C284.001,576.8478,284.1021,576.905,284.1021,577.049Z"/>
          <path id="Compound_Shape-2" data-name="Compound Shape" class="cls-5" d="M256.2588,580.1188a1.5767,1.5767,0,0,1,.62,1.42v2.982a5.4613,5.4613,0,0,1-2.47,4.2778l-3.7871,2.186c-.1241.0718-.2242.0142-.2242-.1289V577.423a.4959.4959,0,0,1,.2242-.3891l3.7871-2.187c1.3637-.7867,2.47-.148,2.47,1.4262V577.78A5.29,5.29,0,0,1,256.2588,580.1188Z"/>
          <path id="Path-12" data-name="Path" class="cls-13" d="M253.2148,577.7819l.51-.2939c.31-.1787.562-.0337.562.3242v2.0708a1.2432,1.2432,0,0,1-.562.9731l-.51.294c-.124.0718-.2246.0141-.2246-.1289v-2.85A.4982.4982,0,0,1,253.2148,577.7819Z"/>
          <path id="Path-13" data-name="Path" class="cls-13" d="M253.2148,583.007l.51-.2949c.31-.1792.562-.0332.562.3237v3.2412a1.2416,1.2416,0,0,1-.562.9722l-.51.2949c-.124.0718-.2246.0127-.2246-.13v-4.018A.4982.4982,0,0,1,253.2148,583.007Z"/>
          <path id="Path-14" data-name="Path" class="cls-5" d="M260.5439,571.3058l-2.144,1.2374a.4964.4964,0,0,0-.2241.3886v10.7354c0,1.5737,1.1064,2.2129,2.4692,1.4258l1.542-.89a5.4627,5.4627,0,0,0,2.47-4.2778V569.19c0-.143-.101-.2011-.2241-.1289l-2.144,1.2368a.4976.4976,0,0,0-.2251.3892V581.25a1.46,1.46,0,0,1-.648,1.1518h0c-.3569.2071-.6479.0259-.6479-.4028v-10.564C260.7681,571.2922,260.668,571.2341,260.5439,571.3058Z"/>
          <path id="Path-15" data-name="Path" class="cls-5" d="M266.1782,568.0529l2.1426-1.2378a.2874.2874,0,0,1,.373.084l2.2974,3.3159c.0806.1172.189.104.2407-.0288l2.4063-6.2519a.8469.8469,0,0,1,.3179-.3721l2.143-1.2373c.124-.0718.2251-.0137.2251.1294v13.3276a.4987.4987,0,0,1-.2251.3892l-2.143,1.2368c-.1241.0723-.2251.0142-.2251-.13v-7.3389c0-.144-.042-.1508-.0928-.018l-2.313,6.01c-.103.2671-.3193.293-.4824.0582l-2.149-3.1031c-.082-.1177-.1479-.0967-.1479.0459v7.34a.4954.4954,0,0,1-.2251.3886l-2.1426,1.2383c-.124.0708-.2251.0127-.2251-.13V568.4421A.4971.4971,0,0,1,266.1782,568.0529Z"/>
          <path id="Path-16" data-name="Path" class="cls-5" d="M278.0688,572.04l3.563-2.0571a5.463,5.463,0,0,0,2.47-4.2778v-5.1495c0-1.5737-1.107-2.2119-2.47-1.4248l-3.7866,2.1861a.4979.4979,0,0,0-.2251.3891V571.78C277.62,572.0661,277.8208,572.1828,278.0688,572.04Z"/>
          <path id="Path-17" data-name="Path" class="cls-13" d="M280.7739,561.8713l.1743-.1c.3086-.1792.5606-.0342.5606.3237v5.065a1.2433,1.2433,0,0,1-.5606.9721l-.1743.1011c-.31.1777-.561.0327-.561-.3242V562.843A1.24,1.24,0,0,1,280.7739,561.8713Z"/>
        </g>
        <g id="Group-4" data-name="Group">
          <path id="Path-18" data-name="Path" class="cls-5" d="M277.62,530.6061v13.4322c0,.1435.1011.2016.2251.13l2.1426-1.2383a.4938.4938,0,0,0,.2251-.3877V529.1091c0-.1431-.1011-.2012-.2251-.13l-2.1426,1.2378A.4956.4956,0,0,0,277.62,530.6061Z"/>
          <path id="Path-19" data-name="Path" class="cls-5" d="M284.1021,545.9479v2.0743a.4954.4954,0,0,1-.2251.3886l-33.2549,19.251c-.1241.0723-.2242.0142-.2242-.1289v-2.0737a.4975.4975,0,0,1,.2242-.3892l33.2549-19.251C284.001,545.7473,284.1021,545.8049,284.1021,545.9479Z"/>
          <path id="Compound_Shape-3" data-name="Compound Shape" class="cls-5" d="M256.2588,549.0192a1.5746,1.5746,0,0,1,.62,1.42v2.982a5.46,5.46,0,0,1-2.47,4.2768l-3.7871,2.187c-.1241.0713-.2242.0132-.2242-.13V546.322a.4975.4975,0,0,1,.2242-.3892l3.7871-2.1855c1.3637-.7872,2.47-.1485,2.47,1.4257V546.68A5.2967,5.2967,0,0,1,256.2588,549.0192Z"/>
          <path id="Path-20" data-name="Path" class="cls-13" d="M253.2148,546.6818l.51-.2949c.31-.1787.562-.0327.562.3242v2.0718a1.2416,1.2416,0,0,1-.562.9722l-.51.2949c-.124.0713-.2246.0132-.2246-.13V547.071A.4966.4966,0,0,1,253.2148,546.6818Z"/>
          <path id="Path-21" data-name="Path" class="cls-13" d="M253.2148,551.9069l.51-.2949c.31-.1792.562-.0342.562.3242v3.2407a1.2429,1.2429,0,0,1-.562.9722l-.51.2949c-.124.0708-.2246.0132-.2246-.13v-4.019A.4948.4948,0,0,1,253.2148,551.9069Z"/>
          <path id="Path-22" data-name="Path" class="cls-5" d="M260.5439,540.2053l-2.144,1.2378a.4965.4965,0,0,0-.2241.3891v10.7349c0,1.5737,1.1064,2.2119,2.4692,1.4248l1.542-.89a5.4644,5.4644,0,0,0,2.47-4.2783V538.09c0-.143-.101-.2011-.2241-.13l-2.144,1.2378a.4955.4955,0,0,0-.2251.3892V550.15a1.4605,1.4605,0,0,1-.648,1.1518h0c-.3569.2071-.6479.0259-.6479-.4038v-10.563C260.7681,540.1921,260.668,540.134,260.5439,540.2053Z"/>
          <path id="Path-23" data-name="Path" class="cls-5" d="M266.1782,536.9518l2.1426-1.2368a.2877.2877,0,0,1,.373.083l2.2974,3.316c.0806.1181.189.1049.2407-.0289l2.4063-6.2519a.8443.8443,0,0,1,.3179-.3711l2.143-1.2383c.124-.0708.2251-.0127.2251.13v13.3266a.4964.4964,0,0,1-.2251.3892l-2.143,1.2378c-.1241.0713-.2251.0132-.2251-.13v-7.34c0-.1431-.042-.1509-.0928-.0171l-2.313,6.01c-.103.2666-.3193.293-.4824.0567l-2.149-3.1021c-.082-.1176-.1479-.0967-.1479.0464v7.34a.4985.4985,0,0,1-.2251.3891l-2.1426,1.2368c-.124.0718-.2251.0142-.2251-.1289V537.341A.4987.4987,0,0,1,266.1782,536.9518Z"/>
          <path id="Path-24" data-name="Path" class="cls-5" d="M278.0688,540.9391l3.563-2.0571a5.463,5.463,0,0,0,2.47-4.2778v-5.148c0-1.5742-1.107-2.2133-2.47-1.4262l-3.7866,2.187a.4956.4956,0,0,0-.2251.3891V540.68C277.62,540.966,277.8208,541.0822,278.0688,540.9391Z"/>
          <path id="Path-25" data-name="Path" class="cls-13" d="M280.7739,530.7712l.1743-.1011c.3086-.1792.5606-.0332.5606.3237V536.06a1.2438,1.2438,0,0,1-.5606.9717l-.1743.1c-.31.1792-.561.0342-.561-.3242v-5.0649A1.2374,1.2374,0,0,1,280.7739,530.7712Z"/>
        </g>
        <g id="Group-5" data-name="Group">
          <path id="Path-26" data-name="Path" class="cls-5" d="M277.62,592.8058V606.239c0,.143.1011.2011.2251.13l2.1426-1.2378a.4948.4948,0,0,0,.2251-.3891V591.31c0-.144-.1011-.2021-.2251-.13l-2.1426,1.2373A.4977.4977,0,0,0,277.62,592.8058Z"/>
          <path id="Path-27" data-name="Path" class="cls-5" d="M284.1021,608.1491v2.0737a.4964.4964,0,0,1-.2251.3892l-33.2549,19.251c-.1241.0722-.2242.0141-.2242-.1289V627.66a.495.495,0,0,1,.2242-.3887L283.877,608.02C284.001,607.9479,284.1021,608.006,284.1021,608.1491Z"/>
          <path id="Compound_Shape-4" data-name="Compound Shape" class="cls-5" d="M256.2588,611.22a1.574,1.574,0,0,1,.62,1.42v2.9815a5.4613,5.4613,0,0,1-2.47,4.2778l-3.7871,2.187c-.1241.0708-.2242.0127-.2242-.13V608.5231a.4973.4973,0,0,1,.2242-.3891l3.7871-2.1861c1.3637-.7871,2.47-.1479,2.47,1.4263v1.5068A5.293,5.293,0,0,1,256.2588,611.22Z"/>
          <path id="Path-28" data-name="Path" class="cls-13" d="M253.2148,608.883l.51-.2949c.31-.1792.562-.0342.562.3237v2.0723a1.2429,1.2429,0,0,1-.562.9721l-.51.295c-.124.0708-.2246.0127-.2246-.13v-2.8491A.4966.4966,0,0,1,253.2148,608.883Z"/>
          <path id="Path-29" data-name="Path" class="cls-13" d="M253.2148,614.1071l.51-.2939c.31-.1792.562-.0342.562.3237v3.2412a1.2431,1.2431,0,0,1-.562.9722l-.51.2939c-.124.0718-.2246.0137-.2246-.1294v-4.0185A.4974.4974,0,0,1,253.2148,614.1071Z"/>
          <path id="Path-30" data-name="Path" class="cls-5" d="M260.5439,602.4059l-2.144,1.2383a.4944.4944,0,0,0-.2241.3887v10.7344c0,1.5737,1.1064,2.2129,2.4692,1.4258l1.542-.89a5.4642,5.4642,0,0,0,2.47-4.2778V600.2912c0-.144-.101-.2021-.2241-.13l-2.144,1.2383a.4941.4941,0,0,0-.2251.3877v10.5645a1.4628,1.4628,0,0,1-.648,1.1518h0c-.3569.2061-.6479.0259-.6479-.4043v-10.563C260.7681,602.3932,260.668,602.3351,260.5439,602.4059Z"/>
          <path id="Path-31" data-name="Path" class="cls-5" d="M266.1782,599.153l2.1426-1.2368a.2872.2872,0,0,1,.373.083l2.2974,3.3159c.0806.1177.189.105.2407-.0293l2.4063-6.2519a.8458.8458,0,0,1,.3179-.3706l2.143-1.2383c.124-.0708.2251-.0132.2251.13V606.882a.4987.4987,0,0,1-.2251.3892l-2.143,1.2378c-.1241.0713-.2251.0132-.2251-.13v-7.34c0-.143-.042-.1513-.0928-.017l-2.313,6.01c-.103.2671-.3193.293-.4824.0572l-2.149-3.1021c-.082-.1182-.1479-.0972-.1479.0459v7.34a.4944.4944,0,0,1-.2251.3877l-2.1426,1.2383c-.124.0718-.2251.0137-.2251-.13V599.5422A.4987.4987,0,0,1,266.1782,599.153Z"/>
          <path id="Path-32" data-name="Path" class="cls-5" d="M278.0688,603.14l3.563-2.0566a5.4631,5.4631,0,0,0,2.47-4.2783v-5.148c0-1.5737-1.107-2.2129-2.47-1.4258l-3.7866,2.1861a.4977.4977,0,0,0-.2251.3886V602.881C277.62,603.1672,277.8208,603.2829,278.0688,603.14Z"/>
          <path id="Path-33" data-name="Path" class="cls-13" d="M280.7739,592.9709l.1743-.1c.3086-.1792.5606-.0332.5606.3237v5.0659a1.2455,1.2455,0,0,1-.5606.9722l-.1743.1c-.31.1787-.561.0337-.561-.3242v-5.065A1.2424,1.2424,0,0,1,280.7739,592.9709Z"/>
        </g>
      </g>
    </g>
  </g>
</svg>
