<svg id="Layer_1" data-name="Layer 1" xmlns="http://www.w3.org/2000/svg" viewBox="0 0 515 733.235">
  <defs>
    <style>
      .top-dark {
        fill: #c67471;
      }

      .top-light {
        fill: #ffc8c6;
      }

      .top-prim {
        fill: #dd8a87;
      }

      .curtain-R-prim-light {
        fill: #59acd0;
      }

      .cls-1 {
        fill: #484e51;
      }

      .curtain-L-prim-light {
        fill: #438fb0;
      }

      .cls-2 {
        fill: #2a2d2f;
      }

      .exterior-L-prim {
        fill: #73302e;
      }

      .curtain-L-prim-dark {
        fill: #2f5565;
      }

      .curtain-R-prim-dark {
        fill: #3e809c;
      }

      .cls-3 {
        fill: #89d8ff;
      }

      .cls-4 {
        fill: #448fb5;
      }

      .exterior-R-prim {
        fill: #d05752;
      }

      .cls-5 {
        fill: #b1e5ff;
      }

      .cls-6 {
        fill: #d0ecfb;
      }

      .cls-7 {
        fill: #6ecfff;
      }

      .curtain-R-prim-dark-light {
        fill: #4d90ad;
      }

      .curtain-R-prim-light-dark {
        fill: #3999c1;
      }

      .cls-8 {
        fill: #97d0e6;
      }

      .cls-9 {
        fill: #fff;
      }

      .cls-10 {
        fill: #5f9cb3;
      }

      .cls-11 {
        fill: none;
      }

      .cls-12 {
        fill: #2e2e2e;
      }

      .cls-13 {
        fill: #eb5559;
      }

      .cls-14 {
        fill: #cc4347;
      }

      .cls-15 {
        fill: #717171;
      }

      .cls-16 {
        fill: #b9b9b9;
      }

      .cls-17 {
        fill: #171717;
      }

      .cls-18 {
        fill: #b0e4f7;
      }
    </style>
  </defs>
  <title>Artboard 18</title>
  <g id="root">
    <path id="anchor_140_167.431_290" class="top-dark" d="M140,103.923l130,75.055L430,86.602V75.055L300,0,140,92.376Z"/>
    <path class="top-light" d="M0,594.67,275,435.899,515,574.463,240,733.235Z"/>
    <path class="top-prim" d="M240,727.461,505,574.463,275,441.673,10,594.67Z"/>
    <path class="curtain-R-prim-light" d="M440,450.333v115.47l30-17.321V433.012Z"/>
    <path class="cls-1" d="M470,421.465v23.094l-40,23.094V444.559Z"/>
    <path class="curtain-L-prim-light" d="M130,467.653v115.47L95,562.916V447.446Z"/>
    <path class="top-light" d="M450,178.978,270,282.901,180,230.94,360,127.017Z"/>
    <path class="cls-2" d="M130,479.2V456.106L95,435.899v23.094Z"/>
    <path class="exterior-L-prim" d="M110,456.106l5,2.887v51.962l-5-2.887Z"/>
    <path class="exterior-L-prim" d="M95,441.673l5,2.886v57.735l-5-2.886Z"/>
    <path class="top-light" d="M455,458.993,240,583.123,80,490.747l215-124.13Z"/>
    <path class="top-prim" d="M90,490.747,295,372.391l150,86.602L240,577.35Z"/>
    <path class="curtain-L-prim-light" d="M220,230.94V519.615L95,447.446V158.771Z"/>
    <path class="cls-2" d="M95,412.805v34.641l125,72.169V484.974Z"/>
    <path class="curtain-L-prim-light" d="M270,167.431l10-5.773v363.73l-10,5.774-30-17.321V490.747L140,438.786V92.376Z"/>
    <path class="top-light" d="M115,147.224l35-20.207,5,2.886-15,8.661v11.547l-10,5.773Z"/>
    <path class="curtain-R-prim-light" d="M270,167.431v115.47l160-92.376V75.055Z"/>
    <path class="curtain-L-prim-dark" d="M230,213.619v23.094l40,23.094V236.713Z"/>
    <path class="curtain-L-prim-dark" d="M230,305.995v23.094l40,23.094V329.089Z"/>
    <path class="curtain-L-prim-dark" d="M230,352.183v23.094l40,23.094V375.277Z"/>
    <path class="curtain-L-prim-dark" d="M230,444.559v23.094l40,23.094V467.653Z"/>
    <path class="curtain-L-prim-dark" d="M230,259.807v23.094l40,23.094V282.901Z"/>
    <path class="curtain-L-prim-dark" d="M230,398.371v23.094l40,23.094V421.465Z"/>
    <path class="curtain-L-prim-dark" d="M230,490.747v17.321l40,23.094V513.841Z"/>
    <path class="cls-2" d="M100,155.884l-5,2.887v23.094l125,72.169V225.166Z"/>
    <path class="cls-2" d="M95,251.147v46.188l125,72.169V323.316Z"/>
    <path class="curtain-L-prim-dark" d="M95,343.523v23.094l125,72.169V415.692Z"/>
    <path class="curtain-L-prim-dark" d="M95,389.711v23.094l125,72.169V461.88Z"/>
    <path class="curtain-L-prim-dark" d="M95,204.959v23.094l125,72.169V277.128Z"/>
    <path class="curtain-L-prim-dark" d="M95,343.523v23.094l125,72.169V415.692Z"/>
    <path class="curtain-L-prim-dark" d="M95,297.335v23.094l125,72.169V369.504Z"/>
    <path class="curtain-R-prim-light" d="M270,282.901V525.388l160-92.376V190.525Z"/>
    <path class="curtain-R-prim-light" d="M320,277.128V519.615l150-86.603V190.525Z"/>
    <path class="curtain-R-prim-dark" d="M310,305.995v23.094l-40,23.094V329.089Z"/>
    <path class="curtain-R-prim-light" d="M240,583.123V698.5939L455,574.463V458.993Z"/>
    <path class="curtain-R-prim-dark" d="M310,352.183v23.094l-40,23.094V375.277Z"/>
    <path class="curtain-R-prim-dark" d="M310,444.559v23.094l-40,23.094V467.653Z"/>
    <path class="curtain-R-prim-dark" d="M310,259.807v23.094l-40,23.094V282.901Z"/>
    <path class="cls-1" d="M465,187.639l5,2.886v23.094L320,300.222V271.354Z"/>
    <path class="curtain-R-prim-dark" d="M470,329.089v23.094L320,438.786V415.692Z"/>
    <path class="curtain-R-prim-dark" d="M470,375.277v23.094L320,484.974V461.88Z"/>
    <path class="curtain-R-prim-dark" d="M455,458.993v23.094L300,571.576V548.482Z"/>
    <path class="curtain-R-prim-dark" d="M455,505.181v23.094L300,617.764V594.671Z"/>
    <path class="curtain-R-prim-dark" d="M455,551.369v23.094L300,663.952V640.858Z"/>
    <path class="cls-1" d="M470,236.713v46.188L320,369.504V323.316Z"/>
    <path class="curtain-R-prim-dark" d="M470,329.089v23.094L320,438.786V415.692Z"/>
    <path class="curtain-R-prim-dark" d="M470,282.901v23.094L320,392.598V369.504Z"/>
    <path class="cls-3" d="M240,583.123l5-2.886v115.47l-5,2.8869L80,606.217V490.747Z"/>
    <path class="curtain-R-prim-dark" d="M310,398.371v23.094l-40,23.094V421.465Z"/>
    <path class="curtain-R-prim-dark" d="M310,490.747v17.321l-40,23.094V513.841Z"/>
    <path class="cls-4" d="M320,277.128V519.615l-20-11.547V265.581Z"/>
    <path class="top-light" d="M320,277.128l150-86.603-20-11.547L300,265.581Z"/>
    <path class="top-light" d="M95,158.771l20-11.547,125,72.169L220,230.94Z"/>
    <path class="curtain-R-prim-light" d="M220,519.615l20-11.547V219.393L220,230.94Z"/>
    <path class="top-prim" d="M235,216.506l-15,8.66L105,158.771l35-20.207v23.094Z"/>
    <path class="top-prim" d="M305,262.694l15,8.66,140-80.829-30-17.32v17.32Z"/>
    <path class="curtain-L-prim-dark" d="M300,404.145l20,11.547v23.094l-20-11.547Z"/>
    <path class="curtain-L-prim-dark" d="M300,357.957l20,11.547v23.094l-20-11.547Z"/>
    <path class="curtain-L-prim-dark" d="M300,450.333l20,11.547v23.094l-20-11.547Z"/>
    <path class="cls-2" d="M300,473.427l20,11.547v40.414l-20-11.547Z"/>
    <path class="cls-2" d="M300,265.581l20,11.547v23.094l-20-11.547Z"/>
    <path class="cls-2" d="M300,311.769l20,11.547h0l-20-11.547Z"/>
    <path class="exterior-R-prim" d="M130,467.653v5.774L95,493.634l-5-2.887Z"/>
    <path class="cls-2" d="M130,461.88v11.547l90,51.961V513.841Z"/>
    <path class="curtain-L-prim-dark" d="M240,508.068v5.773l30,17.321v-5.774Z"/>
    <path class="cls-1" d="M435,447.446v11.547L320,525.388V513.841Z"/>
    <path class="curtain-R-prim-dark" d="M270,531.162l30-17.321v-5.773l-30,17.32Z"/>
    <path class="exterior-R-prim" d="M220,525.388l20-11.547v-5.773l-20,11.547Z"/>
    <path class="exterior-L-prim" d="M435,458.993l5,2.887,5-2.887-10-5.773Z"/>
    <path class="exterior-L-prim" d="M465,551.369v5.774l35,20.207,5-2.887Z"/>
    <path class="exterior-R-prim" d="M10,594.67l70-40.414v5.773L15,597.557Z"/>
    <path class="exterior-R-prim" d="M455,562.916l10-5.773v-5.774l-10,5.774Z"/>
    <path class="exterior-R-prim" d="M140,138.564v5.773l-30,17.321-5-2.887Z"/>
    <path class="curtain-L-prim-light" d="M140,155.884v11.547l90,51.962,10-5.774Z"/>
    <path class="exterior-L-prim" d="M430,178.978l25,14.434,5-2.887-30-17.32Z"/>
    <path class="cls-1" d="M320,484.974v34.641l150-86.603V398.371Z"/>
    <path class="exterior-L-prim" d="M140,184.752l5,2.887V482.087l-5-2.887Z"/>
    <path class="exterior-L-prim" d="M110,167.431l5,2.887V464.767l-5-2.887Z"/>
    <path class="exterior-L-prim" d="M170,202.072l5,2.887V499.408l-5-2.887Z"/>
    <path class="exterior-L-prim" d="M200,219.393l5,2.887V516.728l-5-2.887Z"/>
    <path class="exterior-L-prim" d="M125,176.091l5,2.887V467.653l-5-2.886Z"/>
    <path class="exterior-L-prim" d="M95,158.771l5,2.887V456.106l-5-2.886Z"/>
    <path class="exterior-L-prim" d="M155,193.412l5,2.887V490.747l-5-2.886Z"/>
    <path class="exterior-L-prim" d="M185,210.733l5,2.886V508.068l-5-2.887Z"/>
    <path class="exterior-L-prim" d="M215,228.053l5,2.887V525.388l-5-2.886Z"/>
    <path class="exterior-R-prim" d="M400,230.94l-5,2.887v248.26l5-2.887Z"/>
    <path class="exterior-R-prim" d="M430,213.619l-5,2.887V464.767l5-2.887Z"/>
    <path class="exterior-R-prim" d="M370,248.26l-5,2.887V499.408l5-2.887Z"/>
    <path class="exterior-R-prim" d="M340,265.581l-5,2.887v248.26l5-2.887Z"/>
    <path class="exterior-R-prim" d="M415,222.28l-5,2.886V473.427l5-2.887Z"/>
    <path class="exterior-R-prim" d="M445,204.959l-5,2.887V450.333l5,2.887Z"/>
    <path class="exterior-R-prim" d="M460,196.299l-5,2.887V557.143l5-2.887Z"/>
    <path class="exterior-R-prim" d="M385,239.6l-5,2.887v248.26l5-2.886Z"/>
    <path class="exterior-R-prim" d="M355,256.921l-5,2.886V508.068l5-2.887Z"/>
    <path class="exterior-R-prim" d="M325,274.241l-5,2.887v248.26l5-2.886Z"/>
    <path class="curtain-R-prim-dark" d="M430,98.149v23.094L270,213.619V190.525Z"/>
    <path class="cls-1" d="M220,254.034l20-11.547V219.393L220,230.94Z"/>
    <path class="curtain-R-prim-dark" d="M220,300.222l20-11.547V265.581l-20,11.547Z"/>
    <path class="cls-1" d="M220,323.316l20-11.547h0l-20,11.547Z"/>
    <path class="curtain-R-prim-dark" d="M220,438.786l20-11.547V404.145l-20,11.547Z"/>
    <path class="curtain-R-prim-dark" d="M220,484.974l20-11.547V450.333L220,461.88Z"/>
    <path class="curtain-R-prim-dark" d="M220,392.598l20-11.547V357.957l-20,11.547Z"/>
    <path class="cls-1" d="M220,525.388l20-11.547V473.427l-20,11.547Z"/>
    <path class="cls-1" d="M220,369.504l20-11.547V311.769l-20,11.547Z"/>
    <path class="cls-2" d="M320,369.504l-20-11.547V311.769l20,11.547Z"/>
    <path class="curtain-R-prim-dark" d="M430,144.337v23.094L270,259.807V236.713Z"/>
    <path class="curtain-L-prim-dark" d="M140,115.47v23.094l130,75.055V190.525Z"/>
    <path class="exterior-L-prim" d="M215,228.053l5,2.887,5-2.887V522.502l-5,2.886-5-2.886Z"/>
    <path class="exterior-R-prim" d="M225,228.053l-5,2.887V525.388l5-2.886Z"/>
    <path class="exterior-R-prim" d="M240,219.393l-5,2.887V516.728l5-2.887Z"/>
    <path class="exterior-R-prim" d="M325,274.241l-5,2.887-5-2.887V522.502l5,2.886,5-2.886Z"/>
    <path class="exterior-R-prim" d="M295,551.369l5-2.887v115.47l-5,2.8869Z"/>
    <path class="exterior-L-prim" d="M315,274.241l5,2.887v248.26l-5-2.886Z"/>
    <path class="exterior-L-prim" d="M300,265.581l5,2.887v248.26l-5-2.887Z"/>
    <path class="cls-5" d="M240,698.593l55-31.7541V551.369l-55,31.754Z"/>
    <path class="cls-6" d="M240,594.67l55-31.754V551.369l-55,31.754Z"/>
    <path class="cls-7" d="M240,606.217,80,513.841V502.294L240,594.67Z"/>
    <path class="cls-6" d="M240,640.8589l55-31.7549V597.557l-55,31.754Z"/>
    <path class="cls-7" d="M240,652.405,80,560.029V548.482l160,92.376Z"/>
    <path class="cls-6" d="M240,617.764l55-31.754V574.463l-55,31.754Z"/>
    <path class="cls-7" d="M240,629.311,80,536.935V525.388l160,92.376Z"/>
    <path class="cls-6" d="M240,663.952l55-31.754V620.651l-55,31.754Z"/>
    <path class="cls-7" d="M240,675.499,80,583.123V571.576l160,92.376Z"/>
    <path class="cls-6" d="M240,687.0469l55-31.755v-11.547L240,675.499Z"/>
    <path class="cls-7" d="M240,698.5939,80,606.217V594.67l160,92.376Z"/>
    <path class="curtain-R-prim-dark-light" d="M300,571.576l10-5.773V542.709l-10,5.773Z"/>
    <path class="curtain-R-prim-dark-light" d="M300,617.764l10-5.773V588.897l-10,5.773Z"/>
    <path class="curtain-R-prim-dark-light" d="M300,663.952l10-5.773V635.085l-10,5.773Z"/>
    <path class="curtain-R-prim-dark-light" d="M380,525.388l10-5.773V496.521l-10,5.773Z"/>
    <path class="curtain-R-prim-dark-light" d="M380,571.576l10-5.773V542.709l-10,5.773Z"/>
    <path class="curtain-R-prim-dark-light" d="M380,617.764l10-5.773V588.897l-10,5.773Z"/>
    <path class="curtain-R-prim-dark-light" d="M340,548.482l10-5.773V519.615l-10,5.773Z"/>
    <path class="curtain-R-prim-dark-light" d="M340,594.67l10-5.773V565.803l-10,5.773Z"/>
    <path class="curtain-R-prim-dark-light" d="M340,640.858l10-5.773V611.991l-10,5.773Z"/>
    <path class="curtain-R-prim-dark-light" d="M420,502.294l10-5.773V473.427L420,479.2Z"/>
    <path class="curtain-R-prim-dark-light" d="M420,548.482l10-5.773V519.615l-10,5.773Z"/>
    <path class="curtain-R-prim-dark-light" d="M420,594.67l10-5.773V565.803l-10,5.773Z"/>
    <path class="curtain-R-prim-dark-light" d="M320,560.029l10-5.773V531.162l-10,5.773Z"/>
    <path class="curtain-R-prim-dark-light" d="M320,606.217l10-5.773V577.35l-10,5.773Z"/>
    <path class="curtain-R-prim-dark-light" d="M320,652.405l10-5.773V623.538l-10,5.773Z"/>
    <path class="curtain-R-prim-dark-light" d="M400,513.841l10-5.773V484.974l-10,5.773Z"/>
    <path class="curtain-R-prim-dark-light" d="M400,560.029l10-5.773V531.162l-10,5.773Z"/>
    <path class="curtain-R-prim-dark-light" d="M400,606.217l10-5.773V577.35l-10,5.773Z"/>
    <path class="curtain-R-prim-dark-light" d="M360,536.935l10-5.773V508.068l-10,5.773Z"/>
    <path class="curtain-R-prim-dark-light" d="M360,583.123l10-5.773V554.256l-10,5.773Z"/>
    <path class="curtain-R-prim-dark-light" d="M360,629.311l10-5.773V600.444l-10,5.773Z"/>
    <path class="curtain-R-prim-dark-light" d="M440,490.747l10-5.773V461.88l-10,5.773Z"/>
    <path class="curtain-R-prim-light-dark" d="M310,588.897l10-5.774V560.029l-10,5.774Z"/>
    <path class="curtain-R-prim-light-dark" d="M390,542.709l10-5.774V513.841l-10,5.774Z"/>
    <path class="curtain-R-prim-light-dark" d="M350,565.803l10-5.774V536.935l-10,5.774Z"/>
    <path class="curtain-R-prim-light-dark" d="M430,519.615l10-5.774V490.747l-10,5.774Z"/>
    <path class="curtain-R-prim-light-dark" d="M330,577.35l10-5.774V548.482l-10,5.774Z"/>
    <path class="curtain-R-prim-light-dark" d="M410,531.162l10-5.774V502.294l-10,5.774Z"/>
    <path class="curtain-R-prim-light-dark" d="M370,554.256l10-5.774V525.388l-10,5.774Z"/>
    <path class="curtain-R-prim-light-dark" d="M450,508.068l5-2.887V482.087l-5,2.887Z"/>
    <path class="curtain-R-prim-light-dark" d="M310,635.085l10-5.774V606.217l-10,5.774Z"/>
    <path class="curtain-R-prim-light-dark" d="M390,588.897l10-5.774V560.029l-10,5.774Z"/>
    <path class="curtain-R-prim-light-dark" d="M350,611.991l10-5.774V583.123l-10,5.774Z"/>
    <path class="curtain-R-prim-light-dark" d="M430,565.803l10-5.774V536.935l-10,5.774Z"/>
    <path class="curtain-R-prim-light-dark" d="M330,623.538l10-5.774V594.67l-10,5.774Z"/>
    <path class="curtain-R-prim-light-dark" d="M410,577.35l10-5.774V548.482l-10,5.774Z"/>
    <path class="curtain-R-prim-light-dark" d="M370,600.444l10-5.774V571.576l-10,5.774Z"/>
    <path class="curtain-R-prim-light-dark" d="M450,554.256l5-2.887V528.275l-5,2.887Z"/>
    <path class="curtain-R-prim-dark-light" d="M440,536.935l10-5.773V508.068l-10,5.773Z"/>
    <path class="curtain-R-prim-dark-light" d="M440,583.123l10-5.773V554.256l-10,5.773Z"/>
    <path class="curtain-R-prim-light" d="M300,259.807l130-75.055v11.547L310,265.581Z"/>
    <g>
      <path id="Mask" class="cls-8" d="M240,583.1242l7.5-4.33v115.47l-7.5,4.33L80,606.218v-115.47Z"/>
      <path id="Compound_Path" data-name="Compound Path" class="cls-9" d="M100.8,583.3859v-.25c1.3.126,1.65-.6718,1.65-2.122V577.989c0-3.55-.75-5.358-4.35-7.4361l-6.35-3.667v23l6.4,3.6953c3.7251,2.1509,4.4751,1.209,4.4751-2.3413v-3.4248A6.1714,6.1714,0,0,0,100.8,583.3859ZM97,573.6682a1.811,1.811,0,0,1,1.1,1.86v3.625c0,.9248-.25,1.08-1.1.59l-.7749-.4478V573.22Zm1.15,14.913c0,.9248-.25,1.0806-1.1.59l-.8247-.4761v-6.45l.8247.4761a1.8124,1.8124,0,0,1,1.1,1.86Zm16.8252-8.2861-4.4751-2.583V595.987c0,.9248-.4248.9541-.95.6509a1.8633,1.8633,0,0,1-.95-1.7481V576.6149l-4.4751-2.584v18.3c0,3.7,2.1748,6.1807,5.4248,8.0567s5.4253,1.9072,5.4253-1.793Zm1.5,23.8657,4.125,2.3824v-16.9l.35.2017,1.5747,17.8091,4.7749,2.7568,1.5752-15.99.35.2021v16.9l4.125,2.3809v-23l-6.7749-3.9111-1.5254,16.144-.2749-.1587L123.25,585.0729l-6.7749-3.9121ZM141.2,595.4362l-6.35-3.666v23l4.4751,2.584V612.529l1.875,1.082c3.6748,2.1221,4.4248,1.18,4.4248-2.37v-8.3247C145.625,599.3659,144.875,597.5578,141.2,595.4362Zm.05,13.2539c0,.9248-.25,1.0811-1.1.59l-.8247-.4761V598.0788l.8247.4761a1.8124,1.8124,0,0,1,1.1,1.86Zm6.4,7.17,3.25,1.877.6753-16.311-4.6-2.6548Zm1.625,7.6392c1.3252.7647,2.4.31,2.4-.99a4.9756,4.9756,0,0,0-2.4-3.76c-1.3247-.7651-2.4-.311-2.4.9888A4.9792,4.9792,0,0,0,149.2749,623.4992ZM100.8,556.3859v-.25c1.3.126,1.65-.6718,1.65-2.122V550.989c0-3.55-.75-5.358-4.35-7.4361l-6.35-3.667v23l6.4,3.6953c3.7251,2.1509,4.4751,1.209,4.4751-2.3413v-3.4248A6.1714,6.1714,0,0,0,100.8,556.3859ZM97,546.6682a1.811,1.811,0,0,1,1.1,1.86v3.625c0,.9248-.25,1.08-1.1.59l-.7749-.4478V546.22Zm1.15,14.913c0,.9248-.25,1.0806-1.1.59l-.8247-.4761v-6.45l.8247.4761a1.8124,1.8124,0,0,1,1.1,1.86Zm16.8252-8.2861-4.4751-2.583V568.987c0,.9248-.4248.9541-.95.6509a1.8633,1.8633,0,0,1-.95-1.7481V549.6149l-4.4751-2.584v18.3c0,3.7,2.1748,6.1807,5.4248,8.0567s5.4253,1.9072,5.4253-1.793Zm1.5,23.8657,4.125,2.3824v-16.9l.35.2017,1.5747,17.8091,4.7749,2.7568,1.5752-15.99.35.2021v16.9l4.125,2.3809v-23l-6.7749-3.9111-1.5254,16.144-.2749-.1587L123.25,558.0729l-6.7749-3.9121ZM141.2,568.4362l-6.35-3.666v23l4.4751,2.584V585.529l1.875,1.082c3.6748,2.1221,4.4248,1.18,4.4248-2.37v-8.3247C145.625,572.3659,144.875,570.5578,141.2,568.4362Zm.05,13.2539c0,.9248-.25,1.0811-1.1.59l-.8247-.4761V571.0788l.8247.4761a1.8124,1.8124,0,0,1,1.1,1.86Zm6.4,7.17,3.25,1.877.6753-16.311-4.6-2.6548Zm1.625,7.6392c1.3252.7647,2.4.31,2.4-.99a4.9756,4.9756,0,0,0-2.4-3.76c-1.3247-.7651-2.4-.311-2.4.9888A4.9792,4.9792,0,0,0,149.2749,596.4992ZM100.8,529.3859v-.25c1.3.126,1.65-.6718,1.65-2.122V523.989c0-3.55-.75-5.358-4.35-7.4361l-6.35-3.667v23l6.4,3.6953c3.7251,2.1509,4.4751,1.209,4.4751-2.3413v-3.4248A6.1714,6.1714,0,0,0,100.8,529.3859ZM97,519.6682a1.811,1.811,0,0,1,1.1,1.86v3.625c0,.9248-.25,1.08-1.1.59l-.7749-.4478V519.22Zm1.15,14.913c0,.9248-.25,1.0806-1.1.59l-.8247-.4761v-6.45l.8247.4761a1.8124,1.8124,0,0,1,1.1,1.86Zm16.8252-8.2861-4.4751-2.583V541.987c0,.9248-.4248.9541-.95.6509a1.8633,1.8633,0,0,1-.95-1.7481V522.6149l-4.4751-2.584v18.3c0,3.7,2.1748,6.1807,5.4248,8.0567s5.4253,1.9072,5.4253-1.793Zm1.5,23.8657,4.125,2.3824v-16.9l.35.2017,1.5747,17.8091,4.7749,2.7568,1.5752-15.99.35.2021v16.9l4.125,2.3809v-23l-6.7749-3.9111-1.5254,16.144-.2749-.1587L123.25,531.0729l-6.7749-3.9121ZM141.2,541.4362l-6.35-3.666v23l4.4751,2.584V558.529l1.875,1.082c3.6748,2.1221,4.4248,1.18,4.4248-2.37v-8.3247C145.625,545.3659,144.875,543.5578,141.2,541.4362Zm.05,13.2539c0,.9248-.25,1.0811-1.1.59l-.8247-.4761V544.0788l.8247.4761a1.8124,1.8124,0,0,1,1.1,1.86Zm6.4,7.17,3.25,1.877.6753-16.311-4.6-2.6548Zm1.625,7.6392c1.3252.7647,2.4.31,2.4-.99a4.9756,4.9756,0,0,0-2.4-3.76c-1.3247-.7651-2.4-.311-2.4.9888A4.9792,4.9792,0,0,0,149.2749,569.4992Z"/>
      <g id="Group">
        <path id="Path" class="cls-10" d="M104.0361,602.6481V609.08a.2339.2339,0,0,0,.1079.1855l1.0259.5933c.06.0341.1079.0058.1079-.062V603.364a.2368.2368,0,0,0-.1079-.1861l-1.0259-.5918C104.084,602.551,104.0361,602.5788,104.0361,602.6481Z"/>
        <path id="Path-2" data-name="Path" class="cls-10" d="M107.14,613.5788v.9932c0,.0678-.0483.0962-.1079.062l-15.9243-9.169A.241.241,0,0,1,91,605.278v-.9931c0-.0679.0488-.0958.1079-.0621l15.9243,9.17A.2349.2349,0,0,1,107.14,613.5788Z"/>
        <path id="Compound_Shape" data-name="Compound Shape" class="cls-10" d="M93.8071,599.654a2.1456,2.1456,0,0,1,.2969,1.0229v1.4273c0,.7539-.53,1.06-1.1831.6826l-1.813-1.0469a.2377.2377,0,0,1-.1079-.186v-6.4331c0-.0679.0488-.0957.1079-.0615l1.813,1.0468a2.6154,2.6154,0,0,1,1.1831,2.0489v.7212A.9627.9627,0,0,1,93.8071,599.654Z"/>
        <path id="Path-3" data-name="Path" class="cls-8" d="M92.3491,596.8513l.2447.1406a.5961.5961,0,0,1,.269.4663v.9917c0,.1709-.1206.2412-.269.1553l-.2447-.1411a.2384.2384,0,0,1-.1069-.1861v-1.3647C92.2422,596.8449,92.29,596.8171,92.3491,596.8513Z"/>
        <path id="Path-4" data-name="Path" class="cls-8" d="M92.3491,599.3532l.2447.1406a.5978.5978,0,0,1,.269.4663v1.5518c0,.1709-.1206.2412-.269.1553l-.2447-.1411a.24.24,0,0,1-.1069-.1861v-1.9248C92.2422,599.3469,92.29,599.319,92.3491,599.3532Z"/>
        <path id="Path-5" data-name="Path" class="cls-10" d="M95.8589,597.8019,94.832,597.21c-.0591-.0351-.1069-.0073-.1069.0621v5.14a2.6152,2.6152,0,0,0,1.1831,2.0493l.7378.4258c.6528.377,1.1831.0713,1.1831-.6831v-5.14a.2384.2384,0,0,0-.1079-.187l-1.0264-.5922c-.06-.0337-.1079-.0069-.1079.062v5.0581c0,.206-.1391.2929-.31.1938h0a.6983.6983,0,0,1-.3111-.5517V597.988A.2384.2384,0,0,0,95.8589,597.8019Z"/>
        <path id="Path-6" data-name="Path" class="cls-10" d="M98.5571,599.36l1.0259.5928a.4075.4075,0,0,1,.1528.1782l1.1524,2.9932c.0239.064.0757.07.1147.0137l1.1-1.5879a.1392.1392,0,0,1,.1792-.04l1.0259.5933a.2379.2379,0,0,1,.1079.186v6.3819c0,.0688-.0488.0971-.1079.062l-1.0259-.5923a.2378.2378,0,0,1-.1084-.187V604.44c0-.0693-.0317-.0791-.0708-.0229l-1.0288,1.4858c-.0781.1128-.1811.1011-.2314-.0268l-1.107-2.878c-.0249-.0639-.0449-.061-.0449.0078v3.5152c0,.0679-.0478.0957-.1079.062l-1.0259-.5933a.2364.2364,0,0,1-.1079-.186v-6.3818C98.4492,599.3542,98.498,599.3259,98.5571,599.36Z"/>
        <path id="Path-7" data-name="Path" class="cls-10" d="M104.251,607.8439l1.706.9849c.6529.3774,1.1831.0713,1.1831-.6826v-2.4654a2.6129,2.6129,0,0,0-1.1831-2.0478l-1.813-1.0469c-.06-.0351-.1079-.0073-.1079.062v4.8238A.4746.4746,0,0,0,104.251,607.8439Z"/>
        <path id="Path-8" data-name="Path" class="cls-8" d="M105.5469,604.4709l.083.0483a.5943.5943,0,0,1,.269.4649V607.41c0,.1713-.1211.2412-.269.1552l-.083-.0478a.5949.5949,0,0,1-.2691-.4663v-2.4248C105.2778,604.4538,105.3979,604.3849,105.5469,604.4709Z"/>
      </g>
      <g>
        <path class="cls-11" d="M201.53,676.2394a8.9666,8.9666,0,0,0,1.261-.59,8.527,8.527,0,0,0,2.3167-1.9868,11.5884,11.5884,0,0,1-2.6848,2.1435C202.1361,675.9714,201.8291,676.0988,201.53,676.2394Z"/>
        <path class="cls-11" d="M163.9053,625.6823a11.5957,11.5957,0,0,1,2.6836-2.1426c.1838-.1059.3759-.1967.5652-.2929a8.9946,8.9946,0,0,0-.9329.45A8.5285,8.5285,0,0,0,163.9053,625.6823Z"/>
        <path class="cls-12" d="M220.1592,604.3049l-.5156.7568,6.4736,7.25a.4987.4987,0,0,0,.79-.0239l.398-.5034,0,0,.3509-.4444a.7569.7569,0,0,0-.0279-.9409l-7.1064-7.959A2.5806,2.5806,0,0,1,220.1592,604.3049Z"/>
        <path class="cls-13" d="M247.5,659.4924v-1.55l-1.1233,1.6841A2.1919,2.1919,0,0,1,247.5,659.4924Z"/>
        <path class="cls-14" d="M238.1831,671.2292l7.209-10.82a2.095,2.095,0,0,1,.9846-.7827l1.1233-1.6841v-10.02a1.6889,1.6889,0,0,0-.42.4326L234.0925,667.82A18.782,18.782,0,0,1,238.1831,671.2292Z"/>
        <path class="cls-15" d="M246.3767,659.6262a2.095,2.095,0,0,0-.9846.7827l-7.209,10.82a22.252,22.252,0,0,1,2.6846,3.62l6.6323,3.8291v-19.186A2.1919,2.1919,0,0,0,246.3767,659.6262Z"/>
        <path class="cls-13" d="M227.8705,666.3327a8.435,8.435,0,0,1,5.9684,1.3281c.0446.0259.0876.0567.1322.083l-24.5229-47.7119-3.0636,4.4981Z"/>
        <path class="cls-14" d="M227.8705,666.3327,206.3846,624.53l3.0636-4.4981,10.1954-14.97.5156-.7568a2.5806,2.5806,0,0,0,.3623-1.8648,2.4786,2.4786,0,0,0-.6074-1.29l-1.24-1.3223,0,0-35.0808,51.51.1545.1645,1.0857,1.1573a1.5544,1.5544,0,0,0,2.5278-.1968l2.66-3.9053,5.7974-8.5122,1.18-1.7329,3.1893-4.6826,2.942-4.32,21.27,41.3833C224.6721,668.2863,225.9683,666.7756,227.8705,666.3327Z"/>
        <path class="cls-13" d="M240.8677,674.8493a16.0545,16.0545,0,0,1,2.4565,7.59L247.5,684.85v-6.1714Z"/>
        <path class="cls-14" d="M243.334,682.6379c0,2.4512-.939,4.1372-2.4661,4.94l6.6321,3.8291V684.85l-4.1758-2.4107C243.3254,682.5046,243.334,682.5724,243.334,682.6379Z"/>
        <path class="cls-16" d="M202.4224,675.8063a11.5884,11.5884,0,0,0,2.6848-2.1435c1.7344-2.1011,2.6487-5.1372,2.6487-8.9785,0-8.3658-4.2685-18.2242-10.7579-26.3716l-1.18,1.7329c5.4713,7.0054,9.06,15.3975,9.06,22.5444,0,4.63-1.5825,8.0933-4.4555,9.7525a9.0479,9.0479,0,0,1-3.9195,1.1386l4.8789,2.8164c.05-.018.0983-.039.1477-.0581C201.8291,676.0988,202.1361,675.9714,202.4224,675.8063Z"/>
        <path class="cls-16" d="M183.1309,626.0544c-4.1963-2.4229-8.1924-3.6616-11.5933-3.6616a10.9891,10.9891,0,0,0-4.3835.854c-.1893.0962-.3814.187-.5652.2929a11.5957,11.5957,0,0,0-2.6836,2.1426c-1.7349,2.1011-2.6494,5.1377-2.6494,8.9795,0,7.374,3.32,15.9058,8.5495,23.4053l4.4984,2.5971c-6.0912-7.2587-10.171-16.288-10.171-23.9072,0-4.63,1.5825-8.0942,4.4561-9.7529a9.4006,9.4006,0,0,1,4.7549-1.169,20.9969,20.9969,0,0,1,10.1621,3.1978,39.9479,39.9479,0,0,1,7.2718,5.49l1.1847-1.7392A46.405,46.405,0,0,0,183.1309,626.0544Z"/>
        <path class="cls-17" d="M163.9053,625.6823a8.5285,8.5285,0,0,1,2.3159-1.9858,8.9946,8.9946,0,0,1,.9329-.45,10.9891,10.9891,0,0,1,4.3835-.854c3.4009,0,7.397,1.2387,11.5933,3.6616a46.405,46.405,0,0,1,8.8315,6.73l3.116-4.5757a50.4459,50.4459,0,0,0-9.1975-6.9165c-8.4185-4.8609-16.587-5.7207-22.41-2.3584-4.9751,2.8721-7.7153,8.458-7.7153,15.7285,0,5.6533,1.6986,11.894,4.6051,17.9526l9.4444,5.4527c-5.23-7.5-8.5495-16.0313-8.5495-23.4053C161.2559,630.82,162.17,627.7834,163.9053,625.6823Z"/>
        <path class="cls-17" d="M196.998,638.3127c6.4894,8.1474,10.7579,18.0058,10.7579,26.3716,0,3.8413-.9143,6.8774-2.6487,8.9785a8.527,8.527,0,0,1-2.3167,1.9868,8.9666,8.9666,0,0,1-1.261.59c-.0494.0191-.0979.04-.1477.0581l5.5359,3.1963c4.0969-3.06,6.3382-8.2441,6.3382-14.8095,0-9.9307-5.2351-21.6724-13.0686-31.0542Z"/>
        <path class="cls-16" d="M184.833,652.66l-1.0857-1.1573,0,0-1.24-1.3223a2.6462,2.6462,0,0,1-.2446-3.1538l2.749-4.0366c-.1674-.1089-.3347-.2187-.5053-.3174-3.8638-2.23-7-.9048-7,2.959s3.1362,8.8111,7,11.041,7,.9048,7-2.958a11.2582,11.2582,0,0,0-1.4854-5.1572l-2.66,3.9053A1.5544,1.5544,0,0,1,184.833,652.66Z"/>
        <path class="cls-14" d="M212.0383,603.3049,207.5,600.6843l-8.7737,14.1948a2.9354,2.9354,0,0,1-3.94.9917L177.459,605.8674l.45,1.7426a7.7418,7.7418,0,0,0,3.16,4.1558l18.0933,10.4463Z"/>
        <path class="cls-13" d="M198.7261,614.8791,207.5,600.6843l-34.431-19.8794c-1.353-.7808-2.1337-.187-1.7426,1.3261l6.1328,23.7364,17.3271,10.0034A2.9354,2.9354,0,0,0,198.7261,614.8791Z"/>
        <path class="cls-13" d="M182.5068,650.1808l1.24,1.3223,0,0-.1545-.1645,35.0808-51.51-1.0857-1.1572a1.5547,1.5547,0,0,0-2.5278.1968l-3.0218,4.437-12.8762,18.9072-4.0837,5.9961-3.116,4.5757-1.1847,1.7392-5.7665,8.4673-2.749,4.0366A2.6462,2.6462,0,0,0,182.5068,650.1808Z"/>
        <path class="cls-16" d="M243.334,682.6379c0-.0655-.0086-.1333-.01-.1988a16.0545,16.0545,0,0,0-2.4565-7.59,22.252,22.252,0,0,0-2.6846-3.62,18.782,18.782,0,0,0-4.0906-3.4092c-.0407-.0244-.0805-.0518-.1214-.0762-.0446-.0263-.0876-.0571-.1322-.083a8.435,8.435,0,0,0-5.9684-1.3281c-1.9022.4429-3.1984,1.9536-3.4711,4.3608a8.6849,8.6849,0,0,0-.0556.9805c0,5.24,4.2553,11.9512,9.4951,14.9761,2.7892,1.61,5.2912,1.8428,7.029.9282C242.395,686.7751,243.334,685.0891,243.334,682.6379Z"/>
        <path class="cls-12" d="M245.9678,635.4372l1.5322.9829v-6.2349l-1.3081-.5034a1.57,1.57,0,0,0-2.2891,1.5723v.4048A5.0015,5.0015,0,0,0,245.9678,635.4372Z"/>
      </g>
      <path id="Path-9" data-name="Path" class="cls-18" d="M240,698.5939l55-31.7548V551.37l-55,31.7544Z"/>
      <g id="Group-2" data-name="Group">
        <g id="Group-3" data-name="Group">
          <path id="Path-10" data-name="Path" class="cls-9" d="M277.8711,607.8942v13.4326c0,.1431.1.2012.2241.1294l2.1436-1.2373a.4965.4965,0,0,0,.2241-.3886V606.3972c0-.1431-.1-.2012-.2241-.13l-2.1436,1.2378A.4967.4967,0,0,0,277.8711,607.8942Z"/>
          <path id="Path-11" data-name="Path" class="cls-9" d="M284.3521,623.237v2.0742a.4966.4966,0,0,1-.2242.3887l-33.2549,19.251c-.124.0722-.2251.0141-.2251-.1289v-2.0747a.4979.4979,0,0,1,.2251-.3892l33.2549-19.251C284.252,623.0358,284.3521,623.093,284.3521,623.237Z"/>
          <path id="Compound_Shape-2" data-name="Compound Shape" class="cls-9" d="M256.51,626.3068a1.5767,1.5767,0,0,1,.62,1.42v2.982a5.464,5.464,0,0,1-2.47,4.2778l-3.7872,2.186c-.124.0718-.2251.0142-.2251-.1289V623.611a.4971.4971,0,0,1,.2251-.3891l3.7872-2.187c1.3627-.7867,2.47-.148,2.47,1.4262v1.5069A5.2909,5.2909,0,0,1,256.51,626.3068Z"/>
          <path id="Path-12" data-name="Path" class="cls-18" d="M253.4658,623.97l.51-.2939c.31-.1787.561-.0337.561.3242v2.0708a1.2424,1.2424,0,0,1-.561.9731l-.51.294c-.124.0718-.2246.0141-.2246-.1289v-2.85A.4982.4982,0,0,1,253.4658,623.97Z"/>
          <path id="Path-13" data-name="Path" class="cls-18" d="M253.4658,629.195l.51-.2949c.31-.1792.561-.0332.561.3237v3.2412a1.2408,1.2408,0,0,1-.561.9722l-.51.2949c-.124.0718-.2246.0127-.2246-.13v-4.018A.4982.4982,0,0,1,253.4658,629.195Z"/>
          <path id="Path-14" data-name="Path" class="cls-9" d="M260.7939,617.4938l-2.143,1.2373a.4978.4978,0,0,0-.2251.3887v10.7354c0,1.5737,1.1074,2.2129,2.47,1.4257l1.542-.89a5.4627,5.4627,0,0,0,2.47-4.2778V615.3781c0-.1431-.1011-.2012-.2251-.1289L262.54,616.486a.4979.4979,0,0,0-.2251.3892v10.563a1.46,1.46,0,0,1-.6479,1.1518h0c-.3579.2071-.648.0259-.648-.4028v-10.564C261.019,617.48,260.918,617.4221,260.7939,617.4938Z"/>
          <path id="Path-15" data-name="Path" class="cls-9" d="M266.4292,614.2409l2.1426-1.2378a.2859.2859,0,0,1,.372.084l2.2984,3.3159c.0806.1172.189.104.24-.0288l2.4073-6.2519a.8441.8441,0,0,1,.3169-.3721l2.144-1.2373c.124-.0718.2241-.0137.2241.1294V621.97a.4976.4976,0,0,1-.2241.3892l-2.144,1.2368c-.1241.0723-.2242.0141-.2242-.13v-7.3389c0-.144-.042-.1508-.0927-.018l-2.313,6.01c-.1031.2671-.3194.293-.4824.0581l-2.15-3.103c-.081-.1177-.1469-.0967-.1469.0459v7.34a.4954.4954,0,0,1-.2251.3887l-2.1426,1.2383c-.124.0708-.2251.0127-.2251-.13V614.63A.4971.4971,0,0,1,266.4292,614.2409Z"/>
          <path id="Path-16" data-name="Path" class="cls-9" d="M278.32,618.2282l3.562-2.0571a5.46,5.46,0,0,0,2.47-4.2779v-5.1494c0-1.5737-1.106-2.2119-2.47-1.4248l-3.7866,2.1861a.4967.4967,0,0,0-.2241.3891V617.968C277.8711,618.2541,278.0718,618.3708,278.32,618.2282Z"/>
          <path id="Path-17" data-name="Path" class="cls-18" d="M281.0249,608.0593l.1729-.1c.31-.1792.562-.0342.562.3237v5.0649a1.241,1.241,0,0,1-.562.9722l-.1729.1011c-.31.1777-.562.0327-.562-.3242v-5.066A1.2412,1.2412,0,0,1,281.0249,608.0593Z"/>
        </g>
        <g id="Group-4" data-name="Group">
          <path id="Path-18" data-name="Path" class="cls-9" d="M277.8711,576.7941v13.4322c0,.1435.1.2016.2241.13l2.1436-1.2382a.4928.4928,0,0,0,.2241-.3877V575.2971c0-.1431-.1-.2012-.2241-.13l-2.1436,1.2378A.4945.4945,0,0,0,277.8711,576.7941Z"/>
          <path id="Path-19" data-name="Path" class="cls-9" d="M284.3521,592.1359V594.21a.4942.4942,0,0,1-.2242.3887L250.873,613.85c-.124.0723-.2251.0142-.2251-.1289v-2.0737a.4987.4987,0,0,1,.2251-.3892l33.2549-19.251C284.252,591.9352,284.3521,591.9929,284.3521,592.1359Z"/>
          <path id="Compound_Shape-3" data-name="Compound Shape" class="cls-9" d="M256.51,595.2072a1.5746,1.5746,0,0,1,.62,1.42v2.982a5.4622,5.4622,0,0,1-2.47,4.2768l-3.7872,2.187c-.124.0713-.2251.0132-.2251-.13V592.51a.4987.4987,0,0,1,.2251-.3891l3.7872-2.1856c1.3627-.7871,2.47-.1484,2.47,1.4258v1.5069A5.2981,5.2981,0,0,1,256.51,595.2072Z"/>
          <path id="Path-20" data-name="Path" class="cls-18" d="M253.4658,592.87l.51-.2949c.31-.1787.561-.0327.561.3242v2.0718a1.2408,1.2408,0,0,1-.561.9722l-.51.2949c-.124.0713-.2246.0132-.2246-.13V593.259A.4966.4966,0,0,1,253.4658,592.87Z"/>
          <path id="Path-21" data-name="Path" class="cls-18" d="M253.4658,598.0949l.51-.2949c.31-.1792.561-.0342.561.3242v3.2407a1.2422,1.2422,0,0,1-.561.9722l-.51.2949c-.124.0708-.2246.0132-.2246-.13v-4.019A.4948.4948,0,0,1,253.4658,598.0949Z"/>
          <path id="Path-22" data-name="Path" class="cls-9" d="M260.7939,586.3932l-2.143,1.2378a.4979.4979,0,0,0-.2251.3892v10.7349c0,1.5737,1.1074,2.2119,2.47,1.4248l1.542-.89a5.4644,5.4644,0,0,0,2.47-4.2783V584.278c0-.1431-.1011-.2012-.2251-.13l-2.1431,1.2378a.4956.4956,0,0,0-.2251.3892v10.563a1.46,1.46,0,0,1-.6479,1.1518h0c-.3579.2071-.648.0259-.648-.4038v-10.563C261.019,586.38,260.918,586.322,260.7939,586.3932Z"/>
          <path id="Path-23" data-name="Path" class="cls-9" d="M266.4292,583.14l2.1426-1.2368a.2862.2862,0,0,1,.372.083l2.2984,3.3159c.0806.1182.189.105.24-.0288l2.4073-6.2519a.8415.8415,0,0,1,.3169-.3711l2.144-1.2383c.124-.0708.2241-.0127.2241.13v13.3266a.4953.4953,0,0,1-.2241.3892l-2.144,1.2378c-.1241.0713-.2242.0132-.2242-.13v-7.34c0-.1431-.042-.1509-.0927-.0171l-2.313,6.01c-.1031.2666-.3194.293-.4824.0567l-2.15-3.1021c-.081-.1177-.1469-.0967-.1469.0464v7.34a.4987.4987,0,0,1-.2251.3892l-2.1426,1.2368c-.124.0718-.2251.0142-.2251-.1289V583.529A.4987.4987,0,0,1,266.4292,583.14Z"/>
          <path id="Path-24" data-name="Path" class="cls-9" d="M278.32,587.1271l3.562-2.0571a5.46,5.46,0,0,0,2.47-4.2778v-5.148c0-1.5742-1.106-2.2134-2.47-1.4262l-3.7866,2.187a.4945.4945,0,0,0-.2241.3891v10.0738C277.8711,587.154,278.0718,587.27,278.32,587.1271Z"/>
          <path id="Path-25" data-name="Path" class="cls-18" d="M281.0249,576.9592l.1729-.1011c.31-.1792.562-.0332.562.3237v5.0664a1.2415,1.2415,0,0,1-.562.9717l-.1729.1c-.31.1792-.562.0342-.562-.3242v-5.065A1.2381,1.2381,0,0,1,281.0249,576.9592Z"/>
        </g>
        <g id="Group-5" data-name="Group">
          <path id="Path-26" data-name="Path" class="cls-9" d="M277.8711,638.9938v13.4331c0,.1431.1.2012.2241.13l2.1436-1.2378a.4938.4938,0,0,0,.2241-.3891V637.4982c0-.144-.1-.2021-.2241-.13l-2.1436,1.2373A.4965.4965,0,0,0,277.8711,638.9938Z"/>
          <path id="Path-27" data-name="Path" class="cls-9" d="M284.3521,654.3371v2.0737a.4952.4952,0,0,1-.2242.3892L250.873,676.051c-.124.0722-.2251.0141-.2251-.1289v-2.0743a.4962.4962,0,0,1,.2251-.3886l33.2549-19.251C284.252,654.1359,284.3521,654.194,284.3521,654.3371Z"/>
          <path id="Compound_Shape-4" data-name="Compound Shape" class="cls-9" d="M256.51,657.4079a1.574,1.574,0,0,1,.62,1.42v2.9815a5.464,5.464,0,0,1-2.47,4.2778l-3.7872,2.187c-.124.0708-.2251.0127-.2251-.13V654.7111a.4985.4985,0,0,1,.2251-.3891l3.7872-2.1861c1.3627-.7871,2.47-.1479,2.47,1.4263v1.5068A5.2944,5.2944,0,0,1,256.51,657.4079Z"/>
          <path id="Path-28" data-name="Path" class="cls-18" d="M253.4658,655.071l.51-.2949c.31-.1792.561-.0342.561.3237v2.0723a1.2421,1.2421,0,0,1-.561.9721l-.51.2949c-.124.0708-.2246.0127-.2246-.13V655.46A.4966.4966,0,0,1,253.4658,655.071Z"/>
          <path id="Path-29" data-name="Path" class="cls-18" d="M253.4658,660.2951l.51-.2939c.31-.1792.561-.0342.561.3237v3.2412a1.2423,1.2423,0,0,1-.561.9722l-.51.2939c-.124.0718-.2246.0137-.2246-.1294v-4.0185A.4974.4974,0,0,1,253.4658,660.2951Z"/>
          <path id="Path-30" data-name="Path" class="cls-9" d="M260.7939,648.5939l-2.143,1.2383a.4954.4954,0,0,0-.2251.3887v10.7344c0,1.5737,1.1074,2.2129,2.47,1.4257l1.542-.89a5.4642,5.4642,0,0,0,2.47-4.2778V646.4792c0-.1441-.1011-.2022-.2251-.13l-2.1431,1.2383a.4944.4944,0,0,0-.2251.3877v10.5644a1.4627,1.4627,0,0,1-.6479,1.1519h0c-.3579.2061-.648.0259-.648-.4043v-10.563C261.019,648.5812,260.918,648.5231,260.7939,648.5939Z"/>
          <path id="Path-31" data-name="Path" class="cls-9" d="M266.4292,645.341l2.1426-1.2368a.2856.2856,0,0,1,.372.083l2.2984,3.3159c.0806.1177.189.105.24-.0293l2.4073-6.2519a.8429.8429,0,0,1,.3169-.3706l2.144-1.2383c.124-.0708.2241-.0132.2241.13V653.07a.4976.4976,0,0,1-.2241.3892l-2.144,1.2378c-.1241.0712-.2242.0131-.2242-.13v-7.34c0-.143-.042-.1513-.0927-.0171l-2.313,6.01c-.1031.2671-.3194.293-.4824.0571l-2.15-3.102c-.081-.1182-.1469-.0972-.1469.0459v7.34a.4944.4944,0,0,1-.2251.3877l-2.1426,1.2383c-.124.0718-.2251.0137-.2251-.13V645.73A.4987.4987,0,0,1,266.4292,645.341Z"/>
          <path id="Path-32" data-name="Path" class="cls-9" d="M278.32,649.3278l3.562-2.0566a5.46,5.46,0,0,0,2.47-4.2783v-5.148c0-1.5737-1.106-2.2129-2.47-1.4258l-3.7866,2.1861a.4965.4965,0,0,0-.2241.3886V649.069C277.8711,649.3552,278.0718,649.4709,278.32,649.3278Z"/>
          <path id="Path-33" data-name="Path" class="cls-18" d="M281.0249,639.1589l.1729-.1c.31-.1792.562-.0332.562.3237v5.0659a1.2434,1.2434,0,0,1-.562.9722l-.1729.1c-.31.1787-.562.0337-.562-.3242v-5.065A1.2432,1.2432,0,0,1,281.0249,639.1589Z"/>
        </g>
      </g>
    </g>
  </g>
</svg>
