<svg id="Layer_1" data-name="Layer 1" xmlns="http://www.w3.org/2000/svg" viewBox="0 0 515 802.5181">
  <defs>
    <style>
      .top-dark {
        fill: #c67471;
      }

      .top-light {
        fill: #ffc8c6;
      }

      .top-prim {
        fill: #dd8a87;
      }

      .curtain-R-prim-light {
        fill: #59acd0;
      }

      .cls-1 {
        fill: #484e51;
      }

      .curtain-L-prim-light {
        fill: #438fb0;
      }

      .cls-2 {
        fill: #2a2d2f;
      }

      .exterior-L-prim {
        fill: #73302e;
      }

      .curtain-L-prim-dark {
        fill: #2f5565;
      }

      .curtain-R-prim-dark {
        fill: #3e809c;
      }

      .cls-3 {
        fill: #89d8ff;
      }

      .cls-4 {
        fill: #448fb5;
      }

      .exterior-R-prim {
        fill: #d05752;
      }

      .cls-5 {
        fill: #b1e5ff;
      }

      .cls-6 {
        fill: #d0ecfb;
      }

      .cls-7 {
        fill: #6ecfff;
      }

      .curtain-R-prim-dark-light {
        fill: #4d90ad;
      }

      .curtain-R-prim-light-dark {
        fill: #3999c1;
      }
    </style>
  </defs>
  <title>Artboard 7</title>
  <g id="root">
    <path id="anchor_140_167.431_290" class="top-dark" d="M140,103.924l130,75.055L430,86.603V75.056L300,0,140,92.377Z"/>
    <path class="top-light" d="M0,663.953,275,505.182,515,643.746,240,802.5181Z"/>
    <path class="top-prim" d="M240,796.744,505,643.746,275,510.956,10,663.953Z"/>
    <path class="curtain-R-prim-light" d="M440,519.616v115.47l30-17.321V502.295Z"/>
    <path class="cls-1" d="M470,490.748v23.094l-40,23.094V513.842Z"/>
    <path class="curtain-L-prim-light" d="M130,536.936v115.47L95,632.199V516.729Z"/>
    <path class="top-light" d="M450,202.073,270,305.996,160,242.488,340,138.565Z"/>
    <path class="cls-2" d="M130,548.483V525.389l-30-17.32v23.094Z"/>
    <path class="exterior-L-prim" d="M110,525.389l5,2.887v51.962l-5-2.887Z"/>
    <path class="exterior-L-prim" d="M95,510.956l5,2.886v57.735l-5-2.886Z"/>
    <path class="top-light" d="M455,528.276,240,652.406,80,560.03,295,435.9Z"/>
    <path class="top-prim" d="M90,560.03,295,441.674l150,86.602L240,646.633Z"/>
    <path class="curtain-L-prim-light" d="M220,254.035V588.898L95,516.729V181.866Z"/>
    <path class="cls-2" d="M100,484.975v34.641l120,69.282V554.257Z"/>
    <path class="curtain-L-prim-light" d="M270,167.432l10-5.773V577.351l-10,5.773L140,508.069V92.377Z"/>
    <path class="top-light" d="M115,170.319l70-40.415,155,89.49-70,40.414Z"/>
    <path class="curtain-R-prim-light" d="M270,167.432V305.996L430,213.62V75.056Z"/>
    <path class="curtain-L-prim-dark" d="M230,236.714v23.094l40,23.094V259.808Z"/>
    <path class="curtain-L-prim-dark" d="M230,375.278v23.094l40,23.094V398.372Z"/>
    <path class="curtain-L-prim-dark" d="M230,421.466V444.56l40,23.094V444.56Z"/>
    <path class="curtain-L-prim-dark" d="M230,513.842v23.094l40,23.094V536.936Z"/>
    <path class="curtain-L-prim-dark" d="M230,282.902v23.094l40,23.094V305.996Z"/>
    <path class="curtain-L-prim-dark" d="M230,329.09v23.094l40,23.094V352.184Z"/>
    <path class="curtain-L-prim-dark" d="M230,467.654v23.094l40,23.094V490.748Z"/>
    <path class="curtain-L-prim-dark" d="M230,560.03v17.321l40,23.094V583.124Z"/>
    <path class="cls-2" d="M100,178.979v28.868l120,69.282V248.261Z"/>
    <path class="cls-2" d="M100,323.317v46.188l120,69.282V392.599Z"/>
    <path class="curtain-L-prim-dark" d="M95,412.806V435.9l125,72.169V484.975Z"/>
    <path class="curtain-L-prim-dark" d="M95,458.994v23.094l125,72.169V531.163Z"/>
    <path class="curtain-L-prim-dark" d="M95,228.054v23.094l125,72.169V300.223Z"/>
    <path class="curtain-L-prim-dark" d="M95,274.242v23.094l125,72.169V346.411Z"/>
    <path class="curtain-L-prim-dark" d="M95,412.806V435.9l125,72.169V484.975Z"/>
    <path class="curtain-L-prim-dark" d="M95,366.618v23.094l125,72.169V438.787Z"/>
    <path class="curtain-R-prim-light" d="M270,305.996V594.671l160-92.376V213.62Z"/>
    <path class="curtain-R-prim-light" d="M320,300.223V588.898l150-86.603V213.62Z"/>
    <path class="curtain-R-prim-dark" d="M310,375.278v23.094l-40,23.094V398.372Z"/>
    <path class="curtain-R-prim-light" d="M240,652.406V767.877L455,643.746V528.276Z"/>
    <path class="curtain-R-prim-dark" d="M310,421.466V444.56l-40,23.094V444.56Z"/>
    <path class="curtain-R-prim-dark" d="M310,513.842v23.094L270,560.03V536.936Z"/>
    <path class="curtain-R-prim-dark" d="M310,282.902v23.094L270,329.09V305.996Z"/>
    <path class="cls-1" d="M465,210.733l5,2.887v23.094L325,320.43V291.563Z"/>
    <path class="curtain-R-prim-dark" d="M470,259.808v23.094L320,369.505V346.411Z"/>
    <path class="curtain-R-prim-dark" d="M470,398.372v23.094L320,508.069V484.975Z"/>
    <path class="curtain-R-prim-dark" d="M470,444.56v23.094L320,554.257V531.163Z"/>
    <path class="curtain-R-prim-dark" d="M455,528.276V551.37L300,640.859V617.765Z"/>
    <path class="curtain-R-prim-dark" d="M455,574.464v23.094L300,687.047V663.954Z"/>
    <path class="curtain-R-prim-dark" d="M455,620.652v23.094L300,733.235V710.141Z"/>
    <path class="cls-1" d="M470,305.996v46.188L325,435.9V389.712Z"/>
    <path class="curtain-R-prim-dark" d="M470,398.372v23.094L320,508.069V484.975Z"/>
    <path class="curtain-R-prim-dark" d="M470,352.184v23.094L320,461.881V438.787Z"/>
    <path class="cls-3" d="M240,652.406l10-5.773v115.47l-10,5.774L80,675.5V560.03Z"/>
    <path class="curtain-R-prim-dark" d="M310,329.09v23.094l-40,23.094V352.184Z"/>
    <path class="curtain-L-prim-light" d="M270,178.979v80.829L140,184.753V103.924Z"/>
    <path class="curtain-R-prim-dark" d="M310,467.654v23.094l-40,23.094V490.748Z"/>
    <path class="curtain-R-prim-dark" d="M310,560.03v17.321l-40,23.094V583.124Z"/>
    <path class="cls-4" d="M320,300.223V588.898l-20-11.547V288.676Z"/>
    <path class="top-light" d="M300,294.449l20,11.547v-5.773L470,213.62l-20-11.547L300,288.676Z"/>
    <path class="top-light" d="M95,181.866l20-11.547,125,72.169-20,11.547Z"/>
    <path class="curtain-R-prim-light" d="M220,588.898l20-11.547V242.488l-20,11.547Z"/>
    <path class="top-prim" d="M235,239.601l-15,8.66L105,181.866l35-20.207v23.094Z"/>
    <path class="top-prim" d="M305,285.789l15,8.66L460,213.62,430,196.3v17.32Z"/>
    <path class="curtain-L-prim-dark" d="M300,334.864l20,11.547v23.094l-20-11.547Z"/>
    <path class="curtain-L-prim-dark" d="M300,473.428l20,11.547v23.094l-20-11.547Z"/>
    <path class="curtain-L-prim-dark" d="M300,427.24l20,11.547v23.094l-20-11.547Z"/>
    <path class="curtain-L-prim-dark" d="M300,519.616l20,11.547v23.094L300,542.71Z"/>
    <path class="cls-2" d="M300,542.71l20,11.547v40.414l-20-11.547Z"/>
    <path class="cls-2" d="M300,288.676l20,11.547v23.094L300,311.77Z"/>
    <path class="cls-2" d="M300,381.052l20,11.547h0l-20-11.547Z"/>
    <path class="exterior-R-prim" d="M130,536.936v5.774L95,562.917l-5-2.887Z"/>
    <path class="cls-2" d="M130,531.163V542.71l90,51.961V583.124Z"/>
    <path class="curtain-L-prim-dark" d="M240,577.351v5.773l30,17.321v-5.774Z"/>
    <path class="cls-1" d="M435,516.729v11.547L320,594.671V583.124Z"/>
    <path class="curtain-R-prim-dark" d="M270,600.445l30-17.321v-5.773l-30,17.32Z"/>
    <path class="exterior-R-prim" d="M220,594.671l20-11.547v-5.773l-20,11.547Z"/>
    <path class="exterior-L-prim" d="M435,528.276l5,2.887,5-2.887-10-5.773Z"/>
    <path class="exterior-L-prim" d="M465,620.652v5.774l35,20.207,5-2.887Z"/>
    <path class="exterior-R-prim" d="M10,663.953l70-40.414v5.773L15,666.84Z"/>
    <path class="exterior-R-prim" d="M455,632.199l10-5.773v-5.774l-10,5.774Z"/>
    <path class="exterior-R-prim" d="M140,161.659v5.773l-30,17.321-5-2.887Z"/>
    <path class="curtain-L-prim-light" d="M140,178.979v11.547l90,51.962,10-5.774Z"/>
    <path class="exterior-L-prim" d="M430,202.073l25,14.434,5-2.887L430,196.3Z"/>
    <path class="cls-1" d="M320,554.257v34.641l150-86.603V467.654Z"/>
    <path class="exterior-L-prim" d="M140,207.847l5,2.886V551.37l-5-2.887Z"/>
    <path class="exterior-L-prim" d="M110,190.526l5,2.887V534.05l-5-2.887Z"/>
    <path class="exterior-L-prim" d="M170,225.167l5,2.887V568.691l-5-2.887Z"/>
    <path class="exterior-L-prim" d="M200,242.488l5,2.886V586.011l-5-2.887Z"/>
    <path class="exterior-L-prim" d="M125,199.186l5,2.887V536.936l-5-2.886Z"/>
    <path class="exterior-L-prim" d="M95,181.866l5,2.887V525.389l-5-2.886Z"/>
    <path class="exterior-L-prim" d="M155,216.507l5,2.887V560.03l-5-2.886Z"/>
    <path class="exterior-L-prim" d="M185,233.827l5,2.887V577.351l-5-2.887Z"/>
    <path class="exterior-L-prim" d="M215,251.148l5,2.887V594.671l-5-2.886Z"/>
    <path class="exterior-R-prim" d="M400,254.035l-5,2.886V551.37l5-2.887Z"/>
    <path class="exterior-R-prim" d="M430,236.714l-5,2.887V534.05l5-2.887Z"/>
    <path class="exterior-R-prim" d="M370,271.355l-5,2.887V568.691l5-2.887Z"/>
    <path class="exterior-R-prim" d="M340,288.676l-5,2.886V586.011l5-2.887Z"/>
    <path class="exterior-R-prim" d="M415,245.374l-5,2.887V542.71l5-2.887Z"/>
    <path class="exterior-R-prim" d="M445,228.054l-5,2.887V519.616l5,2.887Z"/>
    <path class="exterior-R-prim" d="M460,219.394l-5,2.886V626.426l5-2.887Z"/>
    <path class="exterior-R-prim" d="M385,262.695l-5,2.887V560.03l5-2.886Z"/>
    <path class="exterior-R-prim" d="M355,280.015l-5,2.887V577.351l5-2.887Z"/>
    <path class="exterior-R-prim" d="M325,297.336l-5,2.887V594.671l5-2.886Z"/>
    <path class="curtain-L-prim-dark" d="M140,92.377v23.094l130,75.055V167.432Z"/>
    <path class="curtain-R-prim-dark" d="M430,75.056V98.15L270,190.526V167.432Z"/>
    <path class="curtain-R-prim-dark" d="M430,121.244v23.094L270,236.714V213.62Z"/>
    <path class="cls-1" d="M215,251.148v23.094l5,2.887,20-11.547V242.488l-20,11.547Z"/>
    <path class="curtain-R-prim-dark" d="M220,323.317l20-11.547V288.676l-20,11.547Z"/>
    <path class="cls-1" d="M220,392.599l20-11.547h0l-20,11.547Z"/>
    <path class="curtain-R-prim-dark" d="M220,508.069l20-11.547V473.428l-20,11.547Z"/>
    <path class="curtain-R-prim-dark" d="M220,554.257l20-11.547V519.616l-20,11.547Z"/>
    <path class="curtain-R-prim-dark" d="M220,369.505l20-11.547V334.864l-20,11.547Z"/>
    <path class="curtain-R-prim-dark" d="M220,461.881l20-11.547V427.24l-20,11.547Z"/>
    <path class="cls-1" d="M220,594.671l20-11.547V542.71l-20,11.547Z"/>
    <path class="cls-1" d="M220,438.787l20-11.547V381.052l-20,11.547Z"/>
    <path class="cls-2" d="M320,438.787,300,427.24V381.052l20,11.547Z"/>
    <path class="curtain-R-prim-dark" d="M430,167.432v23.094L270,282.902V259.808Z"/>
    <path class="curtain-L-prim-dark" d="M140,138.565v23.094l130,75.055V213.62Z"/>
    <path class="exterior-L-prim" d="M215,251.148l5,2.887,5-2.887V591.785l-5,2.886-5-2.886Z"/>
    <path class="exterior-R-prim" d="M225,251.148l-5,2.887V594.671l5-2.886Z"/>
    <path class="exterior-R-prim" d="M240,242.488l-5,2.886V586.011l5-2.887Z"/>
    <path class="exterior-R-prim" d="M325,297.336l-5,2.887-5-2.887V591.785l5,2.886,5-2.886Z"/>
    <path class="exterior-R-prim" d="M295,620.652l5-2.887v115.47l-5,2.8869Z"/>
    <path class="exterior-L-prim" d="M315,297.336l5,2.887V594.671l-5-2.886Z"/>
    <path class="exterior-L-prim" d="M300,288.676l5,2.886V586.011l-5-2.887Z"/>
    <path class="cls-5" d="M240,767.876l55-31.7541V620.652l-55,31.754Z"/>
    <path class="cls-6" d="M240,663.953l55-31.754V620.652l-55,31.754Z"/>
    <path class="cls-7" d="M240,675.5,80,583.124V571.577l160,92.376Z"/>
    <path class="cls-6" d="M240,710.142l55-31.755V666.84l-55,31.754Z"/>
    <path class="cls-7" d="M240,721.688,80,629.312V617.765l160,92.376Z"/>
    <path class="cls-6" d="M240,687.047l55-31.754V643.746L240,675.5Z"/>
    <path class="cls-7" d="M240,698.594,80,606.218V594.671l160,92.376Z"/>
    <path class="cls-6" d="M240,733.235l55-31.754V689.934l-55,31.754Z"/>
    <path class="cls-7" d="M240,744.782,80,652.406V640.859l160,92.376Z"/>
    <path class="cls-6" d="M240,756.33l55-31.755V713.028l-55,31.754Z"/>
    <path class="cls-7" d="M240,767.877,80,675.5V663.953l160,92.376Z"/>
    <path class="curtain-R-prim-dark-light" d="M300,640.859l10-5.773V611.992l-10,5.773Z"/>
    <path class="curtain-R-prim-dark-light" d="M300,687.047l10-5.773V658.18l-10,5.773Z"/>
    <path class="curtain-R-prim-dark-light" d="M300,733.235l10-5.773V704.368l-10,5.773Z"/>
    <path class="curtain-R-prim-dark-light" d="M380,594.671l10-5.773V565.804l-10,5.773Z"/>
    <path class="curtain-R-prim-dark-light" d="M380,640.859l10-5.773V611.992l-10,5.773Z"/>
    <path class="curtain-R-prim-dark-light" d="M380,687.047l10-5.773V658.18l-10,5.773Z"/>
    <path class="curtain-R-prim-dark-light" d="M340,617.765l10-5.773V588.898l-10,5.773Z"/>
    <path class="curtain-R-prim-dark-light" d="M340,663.953l10-5.773V635.086l-10,5.773Z"/>
    <path class="curtain-R-prim-dark-light" d="M340,710.141l10-5.773V681.274l-10,5.773Z"/>
    <path class="curtain-R-prim-dark-light" d="M420,571.577l10-5.773V542.71l-10,5.773Z"/>
    <path class="curtain-R-prim-dark-light" d="M420,617.765l10-5.773V588.898l-10,5.773Z"/>
    <path class="curtain-R-prim-dark-light" d="M420,663.953l10-5.773V635.086l-10,5.773Z"/>
    <path class="curtain-R-prim-dark-light" d="M320,629.312l10-5.773V600.445l-10,5.773Z"/>
    <path class="curtain-R-prim-dark-light" d="M320,675.5l10-5.773V646.633l-10,5.773Z"/>
    <path class="curtain-R-prim-dark-light" d="M320,721.688l10-5.773V692.821l-10,5.773Z"/>
    <path class="curtain-R-prim-dark-light" d="M400,583.124l10-5.773V554.257l-10,5.773Z"/>
    <path class="curtain-R-prim-dark-light" d="M400,629.312l10-5.773V600.445l-10,5.773Z"/>
    <path class="curtain-R-prim-dark-light" d="M400,675.5l10-5.773V646.633l-10,5.773Z"/>
    <path class="curtain-R-prim-dark-light" d="M360,606.218l10-5.773V577.351l-10,5.773Z"/>
    <path class="curtain-R-prim-dark-light" d="M360,652.406l10-5.773V623.539l-10,5.773Z"/>
    <path class="curtain-R-prim-dark-light" d="M360,698.594l10-5.773V669.727L360,675.5Z"/>
    <path class="curtain-R-prim-dark-light" d="M440,560.03l10-5.773V531.163l-10,5.773Z"/>
    <path class="curtain-R-prim-light-dark" d="M310,658.18l10-5.774V629.312l-10,5.774Z"/>
    <path class="curtain-R-prim-light-dark" d="M390,611.992l10-5.774V583.124l-10,5.774Z"/>
    <path class="curtain-R-prim-light-dark" d="M350,635.086l10-5.774V606.218l-10,5.774Z"/>
    <path class="curtain-R-prim-light-dark" d="M430,588.898l10-5.774V560.03l-10,5.774Z"/>
    <path class="curtain-R-prim-light-dark" d="M330,646.633l10-5.774V617.765l-10,5.774Z"/>
    <path class="curtain-R-prim-light-dark" d="M410,600.445l10-5.774V571.577l-10,5.774Z"/>
    <path class="curtain-R-prim-light-dark" d="M370,623.539l10-5.774V594.671l-10,5.774Z"/>
    <path class="curtain-R-prim-light-dark" d="M450,577.351l5-2.887V551.37l-5,2.887Z"/>
    <path class="curtain-R-prim-light-dark" d="M310,704.368l10-5.774V675.5l-10,5.774Z"/>
    <path class="curtain-R-prim-light-dark" d="M390,658.18l10-5.774V629.312l-10,5.774Z"/>
    <path class="curtain-R-prim-light-dark" d="M350,681.274l10-5.774V652.406l-10,5.774Z"/>
    <path class="curtain-R-prim-light-dark" d="M430,635.086l10-5.774V606.218l-10,5.774Z"/>
    <path class="curtain-R-prim-light-dark" d="M330,692.821l10-5.774V663.953l-10,5.774Z"/>
    <path class="curtain-R-prim-light-dark" d="M410,646.633l10-5.774V617.765l-10,5.774Z"/>
    <path class="curtain-R-prim-light-dark" d="M370,669.727l10-5.774V640.859l-10,5.774Z"/>
    <path class="curtain-R-prim-light-dark" d="M450,623.539l5-2.887V597.558l-5,2.887Z"/>
    <path class="curtain-R-prim-dark-light" d="M440,606.218l10-5.773V577.351l-10,5.773Z"/>
    <path class="curtain-R-prim-dark-light" d="M440,652.406l10-5.773V623.539l-10,5.773Z"/>
    <path class="curtain-R-prim-light" d="M300,282.902l130-75.055v11.547L310,288.676Z"/>
  </g>
</svg>
