<svg id="Layer_1" data-name="Layer 1" xmlns="http://www.w3.org/2000/svg" viewBox="0 0 515 687.047">
  <defs>
    <style>
      .top-light {
        fill: #ffc8c6;
      }

      .top-prim {
        fill: #dd8a87;
      }

      .curtain-R-prim-light {
        fill: #59acd0;
      }

      .cls-1 {
        fill: #484e51;
      }

      .curtain-L-prim-light {
        fill: #438fb0;
      }

      .cls-2 {
        fill: #2a2d2f;
      }

      .curtain-L-prim-dark {
        fill: #2f5565;
      }

      .curtain-R-prim-dark {
        fill: #3e809c;
      }

      .cls-3 {
        fill: #89d8ff;
      }

      .cls-4 {
        fill: #448fb5;
      }

      .exterior-R-prim {
        fill: #d05752;
      }

      .exterior-L-prim {
        fill: #73302e;
      }

      .top-dark {
        fill: #c67471;
      }

      .cls-5 {
        fill: #b1e5ff;
      }

      .cls-6 {
        fill: #d0ecfb;
      }

      .cls-7 {
        fill: #6ecfff;
      }

      .curtain-R-prim-dark-light {
        fill: #4d90ad;
      }

      .curtain-R-prim-light-dark {
        fill: #3999c1;
      }
    </style>
  </defs>
  <title>Artboard 14</title>
  <g id="root">
    <path class="top-light" d="M0,548.4821l275-158.771L515,528.275,240,687.047Z"/>
    <path class="top-prim" d="M240,681.2731,505,528.275,275,395.485,10,548.4821Z"/>
    <path class="curtain-R-prim-light" d="M440,404.145v115.47l30-17.3209V386.824Z"/>
    <path class="cls-1" d="M470,375.277v23.094l-40,23.0941V398.371Z"/>
    <path class="curtain-L-prim-light" d="M130,421.4651v115.47L95,516.728v-115.47Z"/>
    <path class="top-light" d="M450,178.978,270,282.901,140,207.8461,320,103.923Z"/>
    <path class="cls-2" d="M130,433.0121v-23.094l-35-20.207v23.094Z"/>
    <path class="top-light" d="M455,412.8051v11.547L240,542.709,80,450.333v-5.7739l215-124.13Z"/>
    <path class="top-prim" d="M90,444.5591,295,326.203l150,86.6021L240,531.162Z"/>
    <path class="curtain-L-prim-light" d="M220,230.94l10-5.7741V467.6531l-10,5.7739L95,401.2581V158.771Z"/>
    <path class="cls-2" d="M95,366.6171V407.032l25,14.4331,5-2.8861,95,54.848V438.786Z"/>
    <path class="curtain-L-prim-light" d="M270,167.431l10-5.7729V461.88l-10,5.7731L140,392.598V92.376Z"/>
    <path class="top-light" d="M115,147.224,275,54.848l155,89.489L270,236.713Z"/>
    <path class="curtain-R-prim-light" d="M420,69.282,270,155.884V282.901l160-92.376V75.0551Z"/>
    <path class="curtain-L-prim-dark" d="M230,213.619v23.094l40,23.094V236.713Z"/>
    <path class="curtain-L-prim-dark" d="M230,305.995v23.094l40,23.094V329.089Z"/>
    <path class="curtain-L-prim-dark" d="M230,398.371v23.0941l40,23.094v-23.094Z"/>
    <path class="curtain-L-prim-dark" d="M230,259.807v23.094l40,23.094V282.901Z"/>
    <path class="curtain-L-prim-dark" d="M230,352.183v23.094l40,23.094V375.277Z"/>
    <path class="curtain-L-prim-dark" d="M230,444.5591V461.88l40,23.094V467.6531Z"/>
    <path class="cls-2" d="M95,158.771v46.188l125,72.1691V230.94Z"/>
    <path class="curtain-L-prim-dark" d="M95,297.3351v23.094L220,392.598V369.504Z"/>
    <path class="curtain-L-prim-dark" d="M95,343.5231v23.094L220,438.786V415.692Z"/>
    <path class="curtain-L-prim-dark" d="M95,204.959v23.094l125,72.169V277.1281Z"/>
    <path class="curtain-L-prim-dark" d="M95,297.3351v23.094L220,392.598V369.504Z"/>
    <path class="curtain-L-prim-dark" d="M95,251.147v23.0941L220,346.41V323.316Z"/>
    <path class="curtain-R-prim-light" d="M270,259.807V479.2L430,386.824V167.431Z"/>
    <path class="curtain-R-prim-light" d="M320,277.1281l-10-5.7741V467.6531l10,5.7739,150-86.603V190.525Z"/>
    <path class="curtain-R-prim-light" d="M240,536.9351v115.471L455,528.275v-115.47Z"/>
    <path class="curtain-R-prim-dark" d="M310,305.995v23.094l-40,23.094V329.089Z"/>
    <path class="curtain-R-prim-dark" d="M310,398.371v23.0941l-40,23.094v-23.094Z"/>
    <path class="curtain-R-prim-dark" d="M310,259.807v23.094l-40,23.094V282.901Z"/>
    <path class="cls-1" d="M470,190.525v46.188L320,323.316V277.1281Z"/>
    <path class="curtain-R-prim-dark" d="M470,282.901v23.094L320,392.598V369.504Z"/>
    <path class="curtain-R-prim-dark" d="M470,329.089v23.094L320,438.786V415.692Z"/>
    <path class="curtain-R-prim-dark" d="M455,412.8051V435.899L300,525.3881v-23.094Z"/>
    <path class="curtain-R-prim-dark" d="M455,458.993v23.094L300,571.576V548.4821Z"/>
    <path class="curtain-R-prim-dark" d="M455,505.181v23.094L300,617.764V594.67Z"/>
    <path class="curtain-R-prim-dark" d="M470,282.901v23.094L320,392.598V369.504Z"/>
    <path class="curtain-R-prim-dark" d="M470,236.713v23.094L320,346.41V323.316Z"/>
    <path class="cls-3" d="M240,536.9351l10-5.7731v115.47l-10,5.7741L80,560.0291v-115.47Z"/>
    <path class="curtain-L-prim-light" d="M150,86.6021,270,155.884v80.829L140,161.6581V92.376Z"/>
    <path class="curtain-R-prim-dark" d="M310,352.183v23.094l-40,23.094V375.277Z"/>
    <path class="curtain-R-prim-dark" d="M310,444.5591V461.88l-40,23.094V467.6531Z"/>
    <path class="cls-4" d="M320,277.1281V473.427L300,461.88V265.5811Z"/>
    <path class="top-light" d="M320,277.1281,470,190.525l-20-11.547-20,11.547v5.7741l-120,69.282-4.439-2.964L300,265.5811Z"/>
    <path class="top-light" d="M95,158.771l20-11.547,125,72.1691L220,230.94Z"/>
    <path class="curtain-R-prim-light" d="M220,473.427l20-11.547V219.3931L220,230.94Z"/>
    <path class="top-prim" d="M235,216.506l-15,8.66L105,158.771l35-20.2069v23.094Z"/>
    <path class="top-prim" d="M310,265.5811l10,5.7729,140-80.829-30-17.32v23.094Z"/>
    <path class="curtain-L-prim-dark" d="M300,357.957l20,11.547v23.094l-20-11.547Z"/>
    <path class="curtain-L-prim-dark" d="M300,311.769l20,11.547V346.41l-20-11.547Z"/>
    <path class="curtain-L-prim-dark" d="M300,404.145l20,11.547v23.094l-20-11.547Z"/>
    <path class="cls-2" d="M300,427.239l20,11.547V479.2l-20-11.547Z"/>
    <path class="cls-2" d="M300,265.5811l20,11.547V323.316l-20-11.547Z"/>
    <path class="cls-2" d="M300,311.769l20,11.547h0l-20-11.547Z"/>
    <path class="exterior-R-prim" d="M130,421.4651v5.7739L95,447.446l-5-2.8869Z"/>
    <path class="cls-2" d="M130,415.692v11.547L220,479.2v-11.547Z"/>
    <path class="curtain-L-prim-dark" d="M240,461.88v5.7731l30,17.3209V479.2Z"/>
    <path class="cls-1" d="M435,401.2581v11.547L320,479.2v-11.547Z"/>
    <path class="curtain-R-prim-dark" d="M270,484.974l30-17.3209V461.88L270,479.2Z"/>
    <path class="exterior-R-prim" d="M220,479.2l20-11.547V461.88l-20,11.547Z"/>
    <path class="exterior-L-prim" d="M435,412.8051l5,2.8869,5-2.8869-10-5.7731Z"/>
    <path class="exterior-L-prim" d="M465,505.181v5.7741l35,20.2069,5-2.887Z"/>
    <path class="exterior-R-prim" d="M10,548.4821,80,508.068v5.7731L15,551.369Z"/>
    <path class="exterior-R-prim" d="M455,516.728l10-5.7729V505.181l-10,5.7741Z"/>
    <path class="exterior-R-prim" d="M140,138.5641v5.7729l-30,17.3211-5-2.8871Z"/>
    <path class="curtain-L-prim-light" d="M140,155.884v11.547l90,51.9621,10-5.7741Z"/>
    <path class="exterior-L-prim" d="M430,178.978l25,14.434,5-2.887-30-17.32Z"/>
    <path class="cls-1" d="M320,438.786v34.641l120-69.282,5,2.887,25-14.434V352.183Z"/>
    <path class="curtain-R-prim-dark" d="M430,98.149v23.094L270,213.619V190.525Z"/>
    <path class="cls-1" d="M220,277.1281l20-11.547v-46.188L220,230.94Z"/>
    <path class="curtain-R-prim-dark" d="M220,300.222l20-11.547V265.5811l-20,11.547Z"/>
    <path class="cls-1" d="M220,323.316l20-11.547h0l-20,11.547Z"/>
    <path class="curtain-R-prim-dark" d="M220,392.598l20-11.547V357.957l-20,11.547Z"/>
    <path class="curtain-R-prim-dark" d="M220,438.786l20-11.547V404.145l-20,11.547Z"/>
    <path class="curtain-R-prim-dark" d="M220,346.41l20-11.547V311.769l-20,11.547Z"/>
    <path class="cls-1" d="M220,479.2l20-11.547V427.239l-20,11.547Z"/>
    <path class="curtain-R-prim-dark" d="M430,144.337v23.094L270,259.807V236.713Z"/>
    <path class="curtain-L-prim-dark" d="M140,115.47v23.094L270,213.619V190.525Z"/>
    <path class="exterior-R-prim" d="M295,505.181l5-2.8869v115.47l-5,2.887Z"/>
    <path id="anchor_140_167.431_290" class="top-dark" d="M270,167.431,430,75.0551,300,0,140,92.376Z"/>
    <path class="cls-5" d="M240,652.4052l55-31.7542V505.181l-55,31.7541Z"/>
    <path class="cls-6" d="M240,548.4821l55-31.7541V505.181l-55,31.7541Z"/>
    <path class="cls-7" d="M240,560.0291,80,467.6531v-11.547l160,92.376Z"/>
    <path class="cls-6" d="M240,594.67l55-31.754V551.369l-55,31.7539Z"/>
    <path class="cls-7" d="M240,606.2169,80,513.8411v-11.547L240,594.67Z"/>
    <path class="cls-6" d="M240,571.576l55-31.754V528.275l-55,31.7541Z"/>
    <path class="cls-7" d="M240,583.1229,80,490.7471V479.2L240,571.576Z"/>
    <path class="cls-6" d="M240,617.764,295,586.01V574.463l-55,31.7539Z"/>
    <path class="cls-7" d="M240,629.3109,80,536.9351v-11.547L240,617.764Z"/>
    <path class="cls-6" d="M240,640.859l55-31.7549V597.557l-55,31.7539Z"/>
    <path class="cls-7" d="M240,652.4061,80,560.0291v-11.547L240,640.858Z"/>
    <path class="curtain-R-prim-dark-light" d="M300,525.3881l10-5.7731V496.521l-10,5.7731Z"/>
    <path class="curtain-R-prim-dark-light" d="M300,571.576l10-5.773V542.709l-10,5.7731Z"/>
    <path class="curtain-R-prim-dark-light" d="M300,617.764l10-5.7729v-23.094L300,594.67Z"/>
    <path class="curtain-R-prim-dark-light" d="M380,479.2l10-5.7731V450.333l-10,5.7731Z"/>
    <path class="curtain-R-prim-dark-light" d="M380,525.3881l10-5.7731V496.521l-10,5.7731Z"/>
    <path class="curtain-R-prim-dark-light" d="M380,571.576l10-5.773V542.709l-10,5.7731Z"/>
    <path class="curtain-R-prim-dark-light" d="M340,502.2941l10-5.7731V473.427L340,479.2Z"/>
    <path class="curtain-R-prim-dark-light" d="M340,548.4821l10-5.7731V519.615l-10,5.7731Z"/>
    <path class="curtain-R-prim-dark-light" d="M340,594.67l10-5.7729V565.803l-10,5.773Z"/>
    <path class="curtain-R-prim-dark-light" d="M420,456.1061l10-5.7731V427.239l-10,5.7731Z"/>
    <path class="curtain-R-prim-dark-light" d="M420,502.2941l10-5.7731V473.427L420,479.2Z"/>
    <path class="curtain-R-prim-dark-light" d="M420,548.4821l10-5.7731V519.615l-10,5.7731Z"/>
    <path class="curtain-R-prim-dark-light" d="M320,513.8411l10-5.7731V484.974l-10,5.7731Z"/>
    <path class="curtain-R-prim-dark-light" d="M320,560.0291l10-5.7731V531.162l-10,5.7731Z"/>
    <path class="curtain-R-prim-dark-light" d="M320,606.2169l10-5.7729V577.35l-10,5.7729Z"/>
    <path class="curtain-R-prim-dark-light" d="M400,467.6531l10-5.7731V438.786l-10,5.7731Z"/>
    <path class="curtain-R-prim-dark-light" d="M400,513.8411l10-5.7731V484.974l-10,5.7731Z"/>
    <path class="curtain-R-prim-dark-light" d="M400,560.0291l10-5.7731V531.162l-10,5.7731Z"/>
    <path class="curtain-R-prim-dark-light" d="M360,490.7471l10-5.7731V461.88l-10,5.7731Z"/>
    <path class="curtain-R-prim-dark-light" d="M360,536.9351l10-5.7731V508.068l-10,5.7731Z"/>
    <path class="curtain-R-prim-dark-light" d="M360,583.1229l10-5.7729V554.256l-10,5.7731Z"/>
    <path class="curtain-R-prim-dark-light" d="M440,444.5591l10-5.7731V415.692l-10,5.7731Z"/>
    <path class="curtain-R-prim-light-dark" d="M310,542.709l10-5.7739v-23.094l-10,5.7739Z"/>
    <path class="curtain-R-prim-light-dark" d="M390,496.521l10-5.7739v-23.094l-10,5.7739Z"/>
    <path class="curtain-R-prim-light-dark" d="M350,519.615l10-5.7739v-23.094l-10,5.7739Z"/>
    <path class="curtain-R-prim-light-dark" d="M430,473.427l10-5.7739v-23.094l-10,5.7739Z"/>
    <path class="curtain-R-prim-light-dark" d="M330,531.162l10-5.7739v-23.094l-10,5.7739Z"/>
    <path class="curtain-R-prim-light-dark" d="M410,484.974,420,479.2v-23.094L410,461.88Z"/>
    <path class="curtain-R-prim-light-dark" d="M370,508.068l10-5.7739V479.2l-10,5.7739Z"/>
    <path class="curtain-R-prim-light-dark" d="M450,461.88l5-2.887V435.899l-5,2.887Z"/>
    <path class="curtain-R-prim-light-dark" d="M310,588.8971l10-5.7742V560.0291l-10,5.7739Z"/>
    <path class="curtain-R-prim-light-dark" d="M390,542.709l10-5.7739v-23.094l-10,5.7739Z"/>
    <path class="curtain-R-prim-light-dark" d="M350,565.803l10-5.7739v-23.094l-10,5.7739Z"/>
    <path class="curtain-R-prim-light-dark" d="M430,519.615l10-5.7739v-23.094l-10,5.7739Z"/>
    <path class="curtain-R-prim-light-dark" d="M330,577.35l10-5.774V548.4821l-10,5.7739Z"/>
    <path class="curtain-R-prim-light-dark" d="M410,531.162l10-5.7739v-23.094l-10,5.7739Z"/>
    <path class="curtain-R-prim-light-dark" d="M370,554.256l10-5.7739v-23.094l-10,5.7739Z"/>
    <path class="curtain-R-prim-light-dark" d="M450,508.068l5-2.887V482.087l-5,2.887Z"/>
    <path class="curtain-R-prim-dark-light" d="M440,490.7471l10-5.7731V461.88l-10,5.7731Z"/>
    <path class="curtain-R-prim-dark-light" d="M440,536.9351l10-5.7731V508.068l-10,5.7731Z"/>
    <path class="curtain-R-prim-light" d="M300,259.807l130-75.0549v11.547l-120,69.282Z"/>
  </g>
</svg>
