<svg id="Layer_1" data-name="Layer 1" xmlns="http://www.w3.org/2000/svg" viewBox="0 0 515 733.235">
  <defs>
    <style>
      .top-light {
        fill: #ffc8c6;
      }

      .top-prim {
        fill: #dd8a87;
      }

      .curtain-R-prim-light {
        fill: #59acd0;
      }

      .cls-1 {
        fill: #484e51;
      }

      .curtain-L-prim-light {
        fill: #438fb0;
      }

      .cls-2 {
        fill: #2a2d2f;
      }

      .curtain-L-prim-dark {
        fill: #2f5565;
      }

      .curtain-R-prim-dark {
        fill: #3e809c;
      }

      .cls-3 {
        fill: #89d8ff;
      }

      .cls-4 {
        fill: #448fb5;
      }

      .exterior-R-prim {
        fill: #d05752;
      }

      .exterior-L-prim {
        fill: #73302e;
      }

      .top-dark {
        fill: #c67471;
      }

      .cls-5 {
        fill: #b1e5ff;
      }

      .cls-6 {
        fill: #d0ecfb;
      }

      .cls-7 {
        fill: #6ecfff;
      }

      .curtain-R-prim-dark-light {
        fill: #4d90ad;
      }

      .curtain-R-prim-light-dark {
        fill: #3999c1;
      }
    </style>
  </defs>
  <title>Artboard 13</title>
  <g id="root">
    <path class="top-light" d="M0,594.67,275,435.899,515,574.463,240,733.235Z"/>
    <path class="top-prim" d="M240,727.4611,505,574.463,275,441.673,10,594.67Z"/>
    <path class="curtain-R-prim-light" d="M440,450.333v115.47l30-17.3209V433.012Z"/>
    <path class="cls-1" d="M470,421.465v23.094l-40,23.0941V444.559Z"/>
    <path class="curtain-L-prim-light" d="M130,467.6531v115.47L95,562.916V447.446Z"/>
    <path class="top-light" d="M450,178.978,270,282.901,140,207.8461,320,103.923Z"/>
    <path class="cls-2" d="M130,479.2v-23.094L95,435.899v23.094Z"/>
    <path class="top-light" d="M455,458.993v5.774L240,588.897,80,496.521v-5.7739l215-124.13Z"/>
    <path class="top-prim" d="M90,490.7471,295,372.391l150,86.602L240,577.35Z"/>
    <path class="curtain-L-prim-light" d="M220,230.94l10-5.7741V513.8411l-10,5.7739L95,447.446V158.771Z"/>
    <path class="cls-2" d="M95,412.8051V453.22l25,14.4331,5-2.8861,95,54.848V484.974Z"/>
    <path class="curtain-L-prim-light" d="M150,86.6021,270,155.884l10-5.773V508.068l-10,5.7731L140,438.786V92.376Z"/>
    <path class="top-light" d="M115,147.224,275,54.848l155,89.489L270,236.713Z"/>
    <path class="curtain-R-prim-light" d="M420,69.282,270,155.884V294.448l160-92.376V75.0551Z"/>
    <path class="curtain-L-prim-dark" d="M230,213.619v23.094l40,23.094V236.713Z"/>
    <path class="curtain-L-prim-dark" d="M230,305.995v23.094l40,23.094V329.089Z"/>
    <path class="curtain-L-prim-dark" d="M230,352.183v23.094l40,23.094V375.277Z"/>
    <path class="curtain-L-prim-dark" d="M230,444.559v23.0941l40,23.094v-23.094Z"/>
    <path class="curtain-L-prim-dark" d="M230,259.807v23.094l40,23.094V282.901Z"/>
    <path class="curtain-L-prim-dark" d="M230,398.371v23.094l40,23.094V421.465Z"/>
    <path class="curtain-L-prim-dark" d="M230,490.7471V508.068l40,23.094V513.8411Z"/>
    <path class="cls-2" d="M100,155.884l-5,2.887v46.188l125,72.1691V225.166Z"/>
    <path class="curtain-L-prim-dark" d="M95,343.5231v23.094L220,438.786V415.692Z"/>
    <path class="curtain-L-prim-dark" d="M95,389.7111v23.094L220,484.974V461.88Z"/>
    <path class="curtain-L-prim-dark" d="M95,204.959v23.094l125,72.169V277.1281Z"/>
    <path class="curtain-L-prim-dark" d="M95,251.147v23.094L220,346.41V323.316Z"/>
    <path class="curtain-L-prim-dark" d="M95,343.5231v23.094L220,438.786V415.692Z"/>
    <path class="curtain-L-prim-dark" d="M95,297.335v23.0941L220,392.598V369.504Z"/>
    <path class="curtain-R-prim-light" d="M270,282.901V525.3881L430,433.012V190.525Z"/>
    <path class="curtain-R-prim-light" d="M320,277.1281l-10-5.7741V513.8411l10,5.7739,150-86.603V190.525Z"/>
    <path class="curtain-R-prim-dark" d="M310,305.995v23.094l-40,23.094V329.089Z"/>
    <path class="curtain-R-prim-light" d="M240,583.123V698.5941L455,574.463V458.993Z"/>
    <path class="curtain-R-prim-dark" d="M310,352.183v23.094l-40,23.094V375.277Z"/>
    <path class="curtain-R-prim-dark" d="M310,444.559v23.0941l-40,23.094v-23.094Z"/>
    <path class="curtain-R-prim-dark" d="M310,259.807v23.094l-40,23.094V282.901Z"/>
    <path class="cls-1" d="M460,184.7521l10,5.7729v46.188L320,323.316V265.5811Z"/>
    <path class="curtain-R-prim-dark" d="M470,329.089v23.094L320,438.786V415.692Z"/>
    <path class="curtain-R-prim-dark" d="M470,375.277v23.094L320,484.974V461.88Z"/>
    <path class="curtain-R-prim-dark" d="M455,458.993v23.094L300,571.576V548.4821Z"/>
    <path class="curtain-R-prim-dark" d="M455,505.181v23.094L300,617.764V594.67Z"/>
    <path class="curtain-R-prim-dark" d="M455,551.369v23.094L300,663.952V640.858Z"/>
    <path class="curtain-R-prim-dark" d="M470,329.089v23.094L320,438.786V415.692Z"/>
    <path class="curtain-R-prim-dark" d="M470,282.901v23.094L320,392.598V369.504Z"/>
    <path class="curtain-R-prim-dark" d="M470,236.713v23.094L320,346.41V323.316Z"/>
    <path class="cls-3" d="M240,583.123l10-5.773V692.82l-10,5.7742L80,606.217v-115.47Z"/>
    <path class="curtain-L-prim-light" d="M270,167.431v69.282L140,161.6581V92.376Z"/>
    <path class="curtain-R-prim-dark" d="M310,398.371v23.094l-40,23.094V421.465Z"/>
    <path class="curtain-R-prim-dark" d="M310,490.7471V508.068l-40,23.094V513.8411Z"/>
    <path class="cls-4" d="M320,277.1281V519.615l-20-11.547V265.5811Z"/>
    <path class="top-light" d="M320,277.1281,470,190.525l-20-11.547L300,265.5811Z"/>
    <path class="top-light" d="M95,158.771l20-11.547,125,72.1691L220,230.94Z"/>
    <path class="curtain-R-prim-light" d="M220,519.615l20-11.547V219.3931L220,230.94Z"/>
    <path class="top-prim" d="M235,216.506l-15,8.66L105,158.771l35-20.207v23.0941Z"/>
    <path class="top-prim" d="M310,265.5811l10,5.7729,140-80.829-30-17.32v23.094Z"/>
    <path class="curtain-L-prim-dark" d="M300,404.145l20,11.547v23.094l-20-11.547Z"/>
    <path class="curtain-L-prim-dark" d="M300,357.957l20,11.547v23.094l-20-11.547Z"/>
    <path class="curtain-L-prim-dark" d="M300,311.769l20,11.547V346.41l-20-11.547Z"/>
    <path class="curtain-L-prim-dark" d="M300,450.333l20,11.547v23.094l-20-11.547Z"/>
    <path class="cls-2" d="M300,473.427l20,11.547v40.4141l-20-11.547Z"/>
    <path class="cls-2" d="M300,265.5811l20,11.547V323.316l-20-11.547Z"/>
    <path class="cls-2" d="M300,311.769l20,11.547h0l-20-11.547Z"/>
    <path class="exterior-R-prim" d="M130,467.6531v5.7739L95,493.634l-5-2.8869Z"/>
    <path class="cls-2" d="M130,461.88v11.547l90,51.9611v-11.547Z"/>
    <path class="curtain-L-prim-dark" d="M240,508.068v5.7731l30,17.3209v-5.7739Z"/>
    <path class="cls-1" d="M435,447.446v11.547L320,525.3881v-11.547Z"/>
    <path class="curtain-R-prim-dark" d="M270,531.162l30-17.3209V508.068l-30,17.32Z"/>
    <path class="exterior-R-prim" d="M220,525.3881l20-11.547V508.068l-20,11.547Z"/>
    <path class="exterior-L-prim" d="M435,458.993l5,2.887,5-2.887-10-5.773Z"/>
    <path class="exterior-L-prim" d="M465,551.369v5.7741L500,577.35l5-2.887Z"/>
    <path class="exterior-R-prim" d="M10,594.67l70-40.414v5.7731L15,597.557Z"/>
    <path class="exterior-R-prim" d="M455,562.916l10-5.7729V551.369l-10,5.7741Z"/>
    <path class="exterior-R-prim" d="M140,138.564v5.773l-30,17.3211-5-2.8871Z"/>
    <path class="curtain-L-prim-light" d="M140,155.884v11.547l90,51.9621,10-5.7741Z"/>
    <path class="exterior-L-prim" d="M430,178.978l25,14.434,5-2.887-30-17.32Z"/>
    <path class="cls-1" d="M320,484.974v34.641l120-69.282,5,2.887,25-14.434V398.371Z"/>
    <path class="curtain-R-prim-dark" d="M430,98.149v23.094L270,213.619V190.525Z"/>
    <path class="cls-1" d="M220,277.1281l20-11.547v-46.188L220,230.94Z"/>
    <path class="curtain-R-prim-dark" d="M220,300.222l20-11.547V265.5811l-20,11.547Z"/>
    <path class="curtain-R-prim-dark" d="M220,346.41l20-11.547V311.769l-20,11.547Z"/>
    <path class="cls-1" d="M220,323.316l20-11.547h0l-20,11.547Z"/>
    <path class="curtain-R-prim-dark" d="M220,438.786l20-11.547V404.145l-20,11.547Z"/>
    <path class="curtain-R-prim-dark" d="M220,484.974l20-11.547V450.333L220,461.88Z"/>
    <path class="curtain-R-prim-dark" d="M220,392.598l20-11.547V357.957l-20,11.547Z"/>
    <path class="cls-1" d="M220,525.3881l20-11.547V473.427l-20,11.547Z"/>
    <path class="curtain-R-prim-dark" d="M430,144.337v23.094L270,259.807V236.713Z"/>
    <path class="curtain-L-prim-dark" d="M140,115.47v23.094l130,75.055V190.525Z"/>
    <path class="exterior-R-prim" d="M295,551.369l5-2.8869v115.47l-5,2.887Z"/>
    <path id="anchor_140_167.431_290" class="top-dark" d="M270,167.431,430,75.0551,300,0,140,92.376Z"/>
    <path class="cls-5" d="M240,698.5931l55-31.7541V551.369l-55,31.754Z"/>
    <path class="cls-6" d="M240,594.67l55-31.754V551.369l-55,31.754Z"/>
    <path class="cls-7" d="M240,606.217,80,513.8411v-11.547L240,594.67Z"/>
    <path class="cls-6" d="M240,640.858l55-31.754V597.557l-55,31.7539Z"/>
    <path class="cls-7" d="M240,652.4049,80,560.0291v-11.547L240,640.858Z"/>
    <path class="cls-6" d="M240,617.764l55-31.754V574.463l-55,31.754Z"/>
    <path class="cls-7" d="M240,629.3109,80,536.9351v-11.547L240,617.764Z"/>
    <path class="cls-6" d="M240,663.952l55-31.7539V620.651l-55,31.7539Z"/>
    <path class="cls-7" d="M240,675.4989,80,583.123V571.576l160,92.376Z"/>
    <path class="cls-6" d="M240,687.047l55-31.7549V643.745l-55,31.7539Z"/>
    <path class="cls-7" d="M240,698.5941,80,606.217V594.67l160,92.376Z"/>
    <path class="curtain-R-prim-dark-light" d="M300,571.576l10-5.773V542.709l-10,5.7731Z"/>
    <path class="curtain-R-prim-dark-light" d="M300,617.764l10-5.773V588.897l-10,5.773Z"/>
    <path class="curtain-R-prim-dark-light" d="M300,663.952l10-5.7729v-23.094l-10,5.7729Z"/>
    <path class="curtain-R-prim-dark-light" d="M380,525.3881l10-5.7731V496.521l-10,5.7731Z"/>
    <path class="curtain-R-prim-dark-light" d="M380,571.576l10-5.773V542.709l-10,5.7731Z"/>
    <path class="curtain-R-prim-dark-light" d="M380,617.764l10-5.773V588.897l-10,5.773Z"/>
    <path class="curtain-R-prim-dark-light" d="M340,548.4821l10-5.7731V519.615l-10,5.7731Z"/>
    <path class="curtain-R-prim-dark-light" d="M340,594.67l10-5.773V565.803l-10,5.773Z"/>
    <path class="curtain-R-prim-dark-light" d="M340,640.858l10-5.7729V611.991l-10,5.773Z"/>
    <path class="curtain-R-prim-dark-light" d="M420,502.2941l10-5.7731V473.427L420,479.2Z"/>
    <path class="curtain-R-prim-dark-light" d="M420,548.4821l10-5.7731V519.615l-10,5.7731Z"/>
    <path class="curtain-R-prim-dark-light" d="M420,594.67l10-5.773V565.803l-10,5.773Z"/>
    <path class="curtain-R-prim-dark-light" d="M320,560.0291l10-5.7731V531.162l-10,5.7731Z"/>
    <path class="curtain-R-prim-dark-light" d="M320,606.217l10-5.773V577.35l-10,5.773Z"/>
    <path class="curtain-R-prim-dark-light" d="M320,652.4049l10-5.7729V623.538l-10,5.7729Z"/>
    <path class="curtain-R-prim-dark-light" d="M400,513.8411l10-5.7731V484.974l-10,5.7731Z"/>
    <path class="curtain-R-prim-dark-light" d="M400,560.0291l10-5.7731V531.162l-10,5.7731Z"/>
    <path class="curtain-R-prim-dark-light" d="M400,606.217l10-5.773V577.35l-10,5.773Z"/>
    <path class="curtain-R-prim-dark-light" d="M360,536.9351l10-5.7731V508.068l-10,5.7731Z"/>
    <path class="curtain-R-prim-dark-light" d="M360,583.123l10-5.773V554.256l-10,5.7731Z"/>
    <path class="curtain-R-prim-dark-light" d="M360,629.3109l10-5.7729V600.444l-10,5.773Z"/>
    <path class="curtain-R-prim-dark-light" d="M440,490.7471l10-5.7731V461.88l-10,5.7731Z"/>
    <path class="curtain-R-prim-light-dark" d="M310,588.897l10-5.774V560.0291l-10,5.7739Z"/>
    <path class="curtain-R-prim-light-dark" d="M390,542.709l10-5.7739v-23.094l-10,5.7739Z"/>
    <path class="curtain-R-prim-light-dark" d="M350,565.803l10-5.7739v-23.094l-10,5.7739Z"/>
    <path class="curtain-R-prim-light-dark" d="M430,519.615l10-5.7739v-23.094l-10,5.7739Z"/>
    <path class="curtain-R-prim-light-dark" d="M330,577.35l10-5.774V548.4821l-10,5.7739Z"/>
    <path class="curtain-R-prim-light-dark" d="M410,531.162l10-5.7739v-23.094l-10,5.7739Z"/>
    <path class="curtain-R-prim-light-dark" d="M370,554.256l10-5.7739v-23.094l-10,5.7739Z"/>
    <path class="curtain-R-prim-light-dark" d="M450,508.068l5-2.887V482.087l-5,2.887Z"/>
    <path class="curtain-R-prim-light-dark" d="M310,635.0851l10-5.7742V606.217l-10,5.774Z"/>
    <path class="curtain-R-prim-light-dark" d="M390,588.897l10-5.774V560.0291l-10,5.7739Z"/>
    <path class="curtain-R-prim-light-dark" d="M350,611.991l10-5.774V583.123l-10,5.774Z"/>
    <path class="curtain-R-prim-light-dark" d="M430,565.803l10-5.7739v-23.094l-10,5.7739Z"/>
    <path class="curtain-R-prim-light-dark" d="M330,623.538l10-5.774V594.67l-10,5.774Z"/>
    <path class="curtain-R-prim-light-dark" d="M410,577.35l10-5.774V548.4821l-10,5.7739Z"/>
    <path class="curtain-R-prim-light-dark" d="M370,600.444l10-5.774V571.576l-10,5.774Z"/>
    <path class="curtain-R-prim-light-dark" d="M450,554.256l5-2.887V528.275l-5,2.887Z"/>
    <path class="curtain-R-prim-dark-light" d="M440,536.9351l10-5.7731V508.068l-10,5.7731Z"/>
    <path class="curtain-R-prim-dark-light" d="M440,583.123l10-5.773V554.256l-10,5.7731Z"/>
    <path class="curtain-R-prim-light" d="M300,259.807l130-75.0549v11.547l-120,69.282Z"/>
  </g>
</svg>
