<svg id="Layer_1" data-name="Layer 1" xmlns="http://www.w3.org/2000/svg" viewBox="0 0 515 848.705">
  <defs>
    <style>
      .top-light {
        fill: #ffc8c6;
      }

      .top-prim {
        fill: #dd8a87;
      }

      .curtain-R-prim-light {
        fill: #59acd0;
      }

      .cls-1 {
        fill: #484e51;
      }

      .curtain-L-prim-light {
        fill: #438fb0;
      }

      .cls-2 {
        fill: #2a2d2f;
      }

      .curtain-L-prim-dark {
        fill: #2f5565;
      }

      .curtain-R-prim-dark {
        fill: #3e809c;
      }

      .cls-3 {
        fill: #89d8ff;
      }

      .cls-4 {
        fill: #448fb5;
      }

      .exterior-R-prim {
        fill: #d05752;
      }

      .exterior-L-prim {
        fill: #73302e;
      }

      .top-dark {
        fill: #c67471;
      }

      .cls-5 {
        fill: #b1e5ff;
      }

      .cls-6 {
        fill: #d0ecfb;
      }

      .cls-7 {
        fill: #6ecfff;
      }

      .curtain-R-prim-dark-light {
        fill: #4d90ad;
      }

      .curtain-R-prim-light-dark {
        fill: #3999c1;
      }
    </style>
  </defs>
  <title>Artboard 11</title>
  <g id="root">
    <path class="top-light" d="M0,710.14,275,551.369,515,689.933,240,848.705Z"/>
    <path class="top-prim" d="M240,842.931,505,689.933l-230-132.79L10,710.14Z"/>
    <path class="curtain-R-prim-light" d="M440,565.803v115.47l30-17.3209v-115.47Z"/>
    <path class="cls-1" d="M470,536.9349v23.094L430,583.123V560.0289Z"/>
    <path class="curtain-L-prim-light" d="M130,588.897V698.593L95,678.386V568.69Z"/>
    <path class="top-light" d="M450,202.072,270,305.995,140,230.94,320,127.017Z"/>
    <path class="cls-2" d="M130,594.67V571.576L95,551.369v23.094Z"/>
    <path class="top-light" d="M455,574.463V586.01L240,710.14,80,617.764V606.217l215-124.13Z"/>
    <path class="top-prim" d="M90,606.217,295,487.861l150,86.602L240,692.82Z"/>
    <path class="curtain-L-prim-light" d="M220,254.0339l10-5.7739V629.311l-10,5.774L95,562.916V181.865Z"/>
    <path class="cls-2" d="M95,528.275V568.69l25,14.4331,5-2.8861,95,54.8481,10-5.774V594.67l-10,5.774Z"/>
    <path class="curtain-L-prim-light" d="M150,86.6021,270,155.884l10-5.773V623.538l-10,5.773L140,554.256V92.376Z"/>
    <path class="top-light" d="M115,170.318,275,77.942l155,89.489L270,259.807Z"/>
    <path class="curtain-R-prim-light" d="M420,69.282,270,155.884V305.995l160-92.376V75.0549Z"/>
    <path class="curtain-L-prim-dark" d="M230,236.713v23.094l40,23.094V259.807Z"/>
    <path class="curtain-L-prim-dark" d="M230,375.277v23.094l40,23.094V398.371Z"/>
    <path class="curtain-L-prim-dark" d="M230,467.653v23.0939l40,23.094v-23.094Z"/>
    <path class="curtain-L-prim-dark" d="M230,560.0289V583.123l40,23.094V583.123Z"/>
    <path class="curtain-L-prim-dark" d="M230,282.901v23.094l40,23.094V305.995Z"/>
    <path class="curtain-L-prim-dark" d="M230,329.089v23.094l40,23.094V352.183Z"/>
    <path class="curtain-L-prim-dark" d="M230,421.465v23.094l40,23.094V444.559Z"/>
    <path class="curtain-L-prim-dark" d="M230,513.8409v23.094l40,23.094v-23.094Z"/>
    <path class="curtain-L-prim-dark" d="M230,606.217v17.321l40,23.094,5-2.887v-17.32l-5,2.886Z"/>
    <path class="cls-2" d="M95,181.865v46.188l125,72.169,10-5.774V248.26l-10,5.7739Z"/>
    <path class="curtain-L-prim-dark" d="M95,412.8049V435.899l125,72.169V484.974Z"/>
    <path class="curtain-L-prim-dark" d="M95,505.181v23.094l125,72.169V577.35Z"/>
    <path class="curtain-L-prim-dark" d="M95,228.053v23.094l125,72.169V300.222Z"/>
    <path class="curtain-L-prim-dark" d="M95,274.241v23.094l125,72.169V346.41Z"/>
    <path class="curtain-L-prim-dark" d="M95,320.429v23.0939L220,415.692V392.598Z"/>
    <path class="curtain-L-prim-dark" d="M95,366.6169v23.094L220,461.88V438.786Z"/>
    <path class="curtain-L-prim-dark" d="M95,458.993v23.094l125,72.169V531.162Z"/>
    <path class="curtain-R-prim-light" d="M270,305.995V640.858l160-92.3761V213.619Z"/>
    <path class="curtain-R-prim-light" d="M320,300.222l-5-2.887V632.198l5,2.887,150-86.6031V213.619Z"/>
    <path class="curtain-R-prim-dark" d="M310,375.277v23.094l-40,23.094V398.371Z"/>
    <path class="curtain-R-prim-light" d="M240,698.593V814.0641L455,689.933V574.463Z"/>
    <path class="curtain-R-prim-dark" d="M310,467.653v23.0939l-40,23.094v-23.094Z"/>
    <path class="curtain-R-prim-dark" d="M310,560.0289V583.123l-40,23.094V583.123Z"/>
    <path class="curtain-R-prim-dark" d="M310,282.901v23.094l-40,23.094V305.995Z"/>
    <path class="cls-1" d="M470,213.619v46.188L320,346.41l-5-2.8871V297.335l5,2.887Z"/>
    <path class="curtain-R-prim-dark" d="M470,259.807v23.094L320,369.504V346.41Z"/>
    <path class="curtain-R-prim-dark" d="M470,305.995v23.094L320,415.692V392.598Z"/>
    <path class="curtain-R-prim-dark" d="M470,398.371v23.094L320,508.068V484.974Z"/>
    <path class="curtain-R-prim-dark" d="M470,352.183v23.094L320,461.88V438.786Z"/>
    <path class="curtain-R-prim-dark" d="M470,490.7469v23.094L320,600.444V577.35Z"/>
    <path class="curtain-R-prim-dark" d="M455,574.463v23.094L300,687.046V663.952Z"/>
    <path class="curtain-R-prim-dark" d="M455,620.651v23.094L300,733.234V710.14Z"/>
    <path class="curtain-R-prim-dark" d="M455,666.839v23.094L300,779.422V756.328Z"/>
    <path class="curtain-R-prim-dark" d="M470,444.559v23.094L320,554.256V531.162Z"/>
    <path class="cls-3" d="M240,698.593l10-5.7731V808.29l-10,5.7742L80,721.687V606.217Z"/>
    <path class="curtain-R-prim-dark" d="M310,329.089v23.094l-40,23.094V352.183Z"/>
    <path class="curtain-R-prim-dark" d="M310,421.465v23.094l-40,23.094V444.559Z"/>
    <path class="curtain-L-prim-light" d="M270,178.978v80.829L140,184.752V103.923Z"/>
    <path class="curtain-R-prim-dark" d="M310,513.8409v23.094l-40,23.094v-23.094Z"/>
    <path class="curtain-R-prim-dark" d="M310,606.217v17.321l-40,23.094V629.311Z"/>
    <path class="cls-4" d="M320,300.222V635.085l-20-11.547V288.675Z"/>
    <path class="top-light" d="M320,300.222l150-86.603-20-11.547L300,288.675Z"/>
    <path class="top-light" d="M95,181.865l20-11.547,125,72.1689-20,11.547Z"/>
    <path class="curtain-R-prim-light" d="M220,635.085l20-11.547V242.4869l-20,11.547Z"/>
    <path class="top-prim" d="M235,239.6l-15,8.66L105,181.865l35-20.207v23.094Z"/>
    <path class="top-prim" d="M305,285.788l15,8.66,140-80.829-30-17.32v17.32Z"/>
    <path class="curtain-L-prim-dark" d="M300,334.863l20,11.547v23.094l-20-11.547Z"/>
    <path class="curtain-L-prim-dark" d="M300,381.051l20,11.547v23.094l-20-11.547Z"/>
    <path class="curtain-L-prim-dark" d="M300,427.239l20,11.547V461.88l-20-11.547Z"/>
    <path class="curtain-L-prim-dark" d="M300,519.615l20,11.547v23.094l-20-11.547Z"/>
    <path class="curtain-L-prim-dark" d="M300,473.427l20,11.547v23.094l-20-11.547Z"/>
    <path class="curtain-L-prim-dark" d="M300,565.803l20,11.547v23.094l-20-11.547Z"/>
    <path class="cls-2" d="M300,588.897l20,11.547,10-5.774v40.415l-10,5.773-20-11.547Z"/>
    <path class="cls-2" d="M300,288.675l20,11.547V346.41l-20-11.547Z"/>
    <path class="exterior-R-prim" d="M130,583.123v5.774L95,609.104l-5-2.887Z"/>
    <path class="cls-2" d="M130,571.576v17.321l90,51.961v-17.32Z"/>
    <path class="curtain-L-prim-dark" d="M240,623.538v5.773l30,17.321v-5.774Z"/>
    <path class="cls-1" d="M435,568.69v5.7731L320,640.858v-5.773Z"/>
    <path class="curtain-R-prim-dark" d="M270,646.632l30-17.321v-5.773l-30,17.32Z"/>
    <path class="exterior-R-prim" d="M220,640.858l20-11.547v-5.773l-20,11.547Z"/>
    <path class="exterior-L-prim" d="M435,574.463l5,2.887,5-2.887L435,568.69Z"/>
    <path class="exterior-L-prim" d="M465,666.839v5.774L500,692.82l5-2.8869Z"/>
    <path class="exterior-R-prim" d="M10,710.14l70-40.414v5.773L15,713.027Z"/>
    <path class="exterior-R-prim" d="M455,678.386l10-5.773v-5.774l-10,5.774Z"/>
    <path class="exterior-R-prim" d="M140,161.658v5.773l-30,17.321-5-2.887Z"/>
    <path class="curtain-L-prim-light" d="M140,178.978v11.547l90,51.9619,10-5.7739Z"/>
    <path class="exterior-L-prim" d="M430,202.072l25,14.434,5-2.887-30-17.32Z"/>
    <path class="cls-1" d="M320,600.444v34.641l120-69.282,5,2.8869,25-14.4339V513.8409Z"/>
    <path class="curtain-L-prim-dark" d="M140,92.376V115.47l130,75.055V167.431Z"/>
    <path class="curtain-R-prim-dark" d="M430,75.0549V98.149L270,190.525V167.431Z"/>
    <path class="curtain-R-prim-dark" d="M430,121.243v23.094L270,236.713V213.619Z"/>
    <path class="cls-1" d="M220,300.222l20-11.547V242.4869l-20,11.547Z"/>
    <path class="curtain-R-prim-dark" d="M220,323.316l20-11.547V288.675l-20,11.547Z"/>
    <path class="curtain-R-prim-dark" d="M220,554.256l20-11.547V519.615l-20,11.547Z"/>
    <path class="curtain-R-prim-dark" d="M220,461.88l20-11.547V427.239l-20,11.547Z"/>
    <path class="curtain-R-prim-dark" d="M220,600.444l20-11.547V565.803L220,577.35Z"/>
    <path class="curtain-R-prim-dark" d="M220,369.504l20-11.547V334.863L220,346.41Z"/>
    <path class="curtain-R-prim-dark" d="M220,415.692l20-11.547V381.051l-20,11.547Z"/>
    <path class="curtain-R-prim-dark" d="M220,508.068l20-11.547V473.427l-20,11.547Z"/>
    <path class="cls-1" d="M220,640.858l20-11.547V588.897l-20,11.547Z"/>
    <path class="curtain-R-prim-dark" d="M430,167.431v23.094L270,282.901V259.807Z"/>
    <path class="curtain-L-prim-dark" d="M140,138.564v23.094l130,75.055V213.619Z"/>
    <path class="exterior-R-prim" d="M295,666.839l5-2.887v115.47l-5,2.887Z"/>
    <path id="anchor_140_167.431_290" class="top-dark" d="M270,167.431,430,75.0549,300,0,140,92.376Z"/>
    <path class="cls-5" d="M240,814.0631l55-31.7541V666.839l-55,31.754Z"/>
    <path class="cls-6" d="M240,710.14l55-31.754V666.839l-55,31.754Z"/>
    <path class="cls-7" d="M240,721.687,80,629.311V617.764L240,710.14Z"/>
    <path class="cls-6" d="M240,756.328l55-31.754V713.027l-55,31.7539Z"/>
    <path class="cls-7" d="M240,767.8749,80,675.499V663.952l160,92.376Z"/>
    <path class="cls-6" d="M240,733.234l55-31.754V689.933l-55,31.754Z"/>
    <path class="cls-7" d="M240,744.7809,80,652.405V640.858l160,92.376Z"/>
    <path class="cls-6" d="M240,779.422l55-31.7539V736.121l-55,31.7539Z"/>
    <path class="cls-7" d="M240,790.9689,80,698.593V687.046l160,92.376Z"/>
    <path class="cls-6" d="M240,802.517l55-31.7549V759.215l-55,31.7539Z"/>
    <path class="cls-7" d="M240,814.0641,80,721.687V710.14l160,92.376Z"/>
    <path class="curtain-R-prim-dark-light" d="M300,687.046l10-5.7731V658.179l-10,5.773Z"/>
    <path class="curtain-R-prim-dark-light" d="M300,733.234l10-5.7731v-23.094L300,710.14Z"/>
    <path class="curtain-R-prim-dark-light" d="M300,779.422l10-5.773V750.5551l-10,5.7729Z"/>
    <path class="curtain-R-prim-dark-light" d="M380,640.858l10-5.773V611.991l-10,5.773Z"/>
    <path class="curtain-R-prim-dark-light" d="M380,687.046l10-5.7731V658.179l-10,5.773Z"/>
    <path class="curtain-R-prim-dark-light" d="M380,733.234l10-5.7731v-23.094L380,710.14Z"/>
    <path class="curtain-R-prim-dark-light" d="M340,663.952l10-5.773V635.085l-10,5.773Z"/>
    <path class="curtain-R-prim-dark-light" d="M340,710.14l10-5.7731v-23.094l-10,5.7731Z"/>
    <path class="curtain-R-prim-dark-light" d="M340,756.328l10-5.7729V727.4609l-10,5.7731Z"/>
    <path class="curtain-R-prim-dark-light" d="M420,617.764l10-5.773V588.897l-10,5.773Z"/>
    <path class="curtain-R-prim-dark-light" d="M420,663.952l10-5.773V635.085l-10,5.773Z"/>
    <path class="curtain-R-prim-dark-light" d="M420,710.14l10-5.7731v-23.094l-10,5.7731Z"/>
    <path class="curtain-R-prim-dark-light" d="M320,675.499l10-5.773V646.632l-10,5.773Z"/>
    <path class="curtain-R-prim-dark-light" d="M320,721.687l10-5.7731V692.82l-10,5.7731Z"/>
    <path class="curtain-R-prim-dark-light" d="M320,767.8749l10-5.773v-23.094l-10,5.773Z"/>
    <path class="curtain-R-prim-dark-light" d="M400,629.311l10-5.773V600.444l-10,5.773Z"/>
    <path class="curtain-R-prim-dark-light" d="M400,675.499l10-5.773V646.632l-10,5.773Z"/>
    <path class="curtain-R-prim-dark-light" d="M400,721.687l10-5.7731V692.82l-10,5.7731Z"/>
    <path class="curtain-R-prim-dark-light" d="M360,652.405l10-5.773V623.538l-10,5.773Z"/>
    <path class="curtain-R-prim-dark-light" d="M360,698.593l10-5.7731V669.726l-10,5.773Z"/>
    <path class="curtain-R-prim-dark-light" d="M360,744.7809l10-5.773v-23.094l-10,5.7731Z"/>
    <path class="curtain-R-prim-dark-light" d="M440,606.217l10-5.773V577.35l-10,5.773Z"/>
    <path class="curtain-R-prim-light-dark" d="M310,704.3669l10-5.7739V675.499l-10,5.7739Z"/>
    <path class="curtain-R-prim-light-dark" d="M390,658.179l10-5.774V629.311l-10,5.774Z"/>
    <path class="curtain-R-prim-light-dark" d="M350,681.2729l10-5.7739V652.405l-10,5.774Z"/>
    <path class="curtain-R-prim-light-dark" d="M430,635.085l10-5.774V606.217l-10,5.774Z"/>
    <path class="curtain-R-prim-light-dark" d="M330,692.82l10-5.7739V663.952l-10,5.774Z"/>
    <path class="curtain-R-prim-light-dark" d="M410,646.632l10-5.774V617.764l-10,5.774Z"/>
    <path class="curtain-R-prim-light-dark" d="M370,669.726l10-5.774V640.858l-10,5.774Z"/>
    <path class="curtain-R-prim-light-dark" d="M450,623.538l5-2.887V597.557l-5,2.887Z"/>
    <path class="curtain-R-prim-light-dark" d="M310,750.5551l10-5.7742V721.687l-10,5.7739Z"/>
    <path class="curtain-R-prim-light-dark" d="M390,704.3669l10-5.7739V675.499l-10,5.7739Z"/>
    <path class="curtain-R-prim-light-dark" d="M350,727.4609l10-5.7739V698.593l-10,5.7739Z"/>
    <path class="curtain-R-prim-light-dark" d="M430,681.2729l10-5.7739V652.405l-10,5.774Z"/>
    <path class="curtain-R-prim-light-dark" d="M330,739.0079l10-5.7739V710.14l-10,5.7739Z"/>
    <path class="curtain-R-prim-light-dark" d="M410,692.82l10-5.7739V663.952l-10,5.774Z"/>
    <path class="curtain-R-prim-light-dark" d="M370,715.9139l10-5.7739V687.046L370,692.82Z"/>
    <path class="curtain-R-prim-light-dark" d="M450,669.726l5-2.887V643.745l-5,2.887Z"/>
    <path class="curtain-R-prim-dark-light" d="M440,652.405l10-5.773V623.538l-10,5.773Z"/>
    <path class="curtain-R-prim-dark-light" d="M440,698.593l10-5.7731V669.726l-10,5.773Z"/>
    <path class="curtain-R-prim-light" d="M300,282.901l130-75.0551v11.547L310,288.675Z"/>
  </g>
</svg>
