<svg id="Layer_1" data-name="Layer 1" xmlns="http://www.w3.org/2000/svg" viewBox="0 0 170 101.2167">
  <defs>
    <style>
      .cls-1 {
        fill: #e8e8e8;
      }

      .cls-2 {
        fill: #b9b9b9;
      }

      .cls-3 {
        fill: #2e2e2e;
      }

      .cls-4 {
        fill: #5d5d5d;
      }

      .cls-5 {
        fill: #d1d1d1;
      }

      .cls-6 {
        fill: #a2a2a2;
      }

      .cls-7 {
        fill: #acacac;
      }

      .cls-8 {
        fill: #959595;
      }

      .cls-9 {
        fill: #c6c6c6;
      }

      .cls-10 {
        fill: #2f3033;
      }

      .cls-11, .cls-26 {
        fill: none;
      }

      .cls-12 {
        fill: #fff;
      }

      .cls-13 {
        fill: #78cbff;
      }

      .cls-14 {
        fill: #e3efff;
      }

      .cls-15 {
        fill: #3258a8;
      }

      .cls-16 {
        fill: #4d92ff;
      }

      .cls-17 {
        fill: #fff587;
      }

      .cls-18 {
        fill: #fffbcd;
      }

      .cls-19 {
        fill: #c6be68;
      }

      .cls-20 {
        fill: #b0d1ff;
      }

      .cls-21 {
        fill: #edf3ff;
      }

      .cls-22 {
        fill: #6c6c6c;
      }

      .cls-23 {
        fill: #8e8e8e;
      }

      .cls-24 {
        fill: #d0d0d0;
      }

      .cls-25 {
        fill: #44464a;
      }

      .cls-26 {
        stroke: #fff;
        stroke-linecap: round;
        stroke-linejoin: round;
        stroke-width: 0;
      }
    </style>
  </defs>
  <title>Artboard 24</title>
  <g id="root">
    <path id="Path" class="cls-1" d="M0,52.142l85,49.0747L170,52.142,85,3.0672Z"/>
    <path id="Path-2" data-name="Path" class="cls-2" d="M85,6.1343,164.6875,52.142,85,98.15,5.3125,52.142Z"/>
    <path id="Path-3" data-name="Path" class="cls-3" d="M85,6.1343V9.2015l77.0312,44.4741,2.6563-1.5336Z"/>
    <path id="Path-4" data-name="Path" class="cls-4" d="M5.3125,52.142,85,6.1343V9.2015L7.9688,53.6755Z"/>
    <g id="Group">
      <path id="Path-5" data-name="Path" class="cls-1" d="M33.2031,3.0672,38.5156,0l1.3282.7668L34.5312,3.834Z"/>
      <path id="Path-6" data-name="Path" class="cls-5" d="M39.8438.7668v7.668l-1.3282.7667V3.0672L35.8594,4.6008,34.5312,3.834Z"/>
      <path id="Path-7" data-name="Path" class="cls-6" d="M37.1875,8.4348V3.834l1.3281-.7668V9.2015Z"/>
    </g>
    <path id="Path-8" data-name="Path" class="cls-1" d="M47.8125,11.5019,53.125,8.4348l1.3281.7667-5.3125,3.0672Z"/>
    <path id="Path-9" data-name="Path" class="cls-5" d="M54.4531,9.2015V16.87l-1.3281.7668V11.5019l-2.6562,1.5336-1.3282-.7668Z"/>
    <path id="Path-10" data-name="Path" class="cls-6" d="M51.7969,16.87V12.2687l1.3281-.7668v6.1344Z"/>
    <g id="Group-2" data-name="Group">
      <path id="Path-11" data-name="Path" class="cls-1" d="M62.4219,19.9366,67.7344,16.87l1.3281.7668L63.75,20.7034Z"/>
      <path id="Path-12" data-name="Path" class="cls-5" d="M69.0625,17.6363v7.6679l-1.3281.7668V19.9366L65.0781,21.47,63.75,20.7034Z"/>
      <path id="Path-13" data-name="Path" class="cls-6" d="M66.4062,25.3042V20.7034l1.3282-.7668V26.071Z"/>
    </g>
    <path id="Path-14" data-name="Path" class="cls-1" d="M37.1875.7668l45.1563,26.071,1.3281-.7668L38.5156,0Z"/>
    <path id="Path-15" data-name="Path" class="cls-6" d="M38.5156,3.0672V1.5336L51.7969,9.2015l-1.3281.7668Z"/>
    <path id="Path-16" data-name="Path" class="cls-6" d="M53.125,11.5019V9.9683l13.2812,7.668-1.3281.7668Z"/>
    <path id="Path-17" data-name="Path" class="cls-6" d="M67.7344,19.9366V18.4031L81.0156,26.071l-1.3281.7668Z"/>
    <path id="Path-18" data-name="Path" class="cls-7" d="M34.5312,67.4778l6.6407-3.834L38.5156,62.11l-6.6406,3.834Z"/>
    <path id="Path-19" data-name="Path" class="cls-7" d="M49.1406,75.9125l6.6406-3.8339L53.125,70.545l-6.6406,3.834Z"/>
    <path id="Path-20" data-name="Path" class="cls-7" d="M63.75,84.3473l6.6406-3.834L67.7344,78.98l-6.6406,3.834Z"/>
    <path id="Path-21" data-name="Path" class="cls-7" d="M78.3594,92.782,85,88.948l-2.6562-1.5335-6.6407,3.8339Z"/>
    <g id="Group-3" data-name="Group">
      <path id="Path-22" data-name="Path" class="cls-8" d="M77.0312,91.2484l1.3282.7668V82.8137l-1.3282-.7668Z"/>
      <path id="Path-23" data-name="Path" class="cls-9" d="M79.6875,91.2484l-1.3281.7668V81.28l1.3281-.7668Z"/>
    </g>
    <g id="Group-4" data-name="Group">
      <path id="Path-24" data-name="Path" class="cls-8" d="M33.2031,65.9443l1.3281.7667V62.11l-1.3281-.7668Z"/>
      <path id="Path-25" data-name="Path" class="cls-9" d="M35.8594,65.9443l-1.3282.7667V62.11l1.3282-.7668Z"/>
    </g>
    <g id="Group-5" data-name="Group">
      <path id="Path-26" data-name="Path" class="cls-8" d="M62.4219,82.8137l1.3281.7668V78.98l-1.3281-.7668Z"/>
      <path id="Path-27" data-name="Path" class="cls-9" d="M65.0781,82.8137l-1.3281.7668V78.98l1.3281-.7668Z"/>
    </g>
    <g id="Group-6" data-name="Group">
      <path id="Path-28" data-name="Path" class="cls-8" d="M47.8125,74.379l1.3281.7668V70.545l-1.3281-.7668Z"/>
      <path id="Path-29" data-name="Path" class="cls-9" d="M50.4688,74.379l-1.3282.7668V70.545l1.3282-.7668Z"/>
    </g>
    <path id="Path-30" data-name="Path" class="cls-10" d="M33.2031,3.0672V55.2091L78.3594,81.28V29.1381Z"/>
    <g>
      <path class="cls-11" d="M51.3486,32.121a.2427.2427,0,0,0-.1787.1438A.2463.2463,0,0,1,51.3486,32.121Z"/>
      <path class="cls-11" d="M51.1217,32.2227l-.0195-.0171a.1363.1363,0,0,0-.0762-.0254l-.004.0015a.1368.1368,0,0,1,.0718.0239A.1135.1135,0,0,1,51.1217,32.2227Z"/>
      <path class="cls-11" d="M57.3159,42.7115V42.449a2.84,2.84,0,0,0-1.4983-1.8624v.014c.8256.4832,1.4984,1.3085,1.4815,1.8569v.0339a.3947.3947,0,0,1-.237.364,1.5611,1.5611,0,0,1-1.2614-.2709,3.876,3.876,0,0,1-.73-.543,3.8648,3.8648,0,0,0,.7382.5514,1.5522,1.5522,0,0,0,1.2614.2709.3988.3988,0,0,0,.2371-.364v.2286l.8973,1.1174-2.4042.2032,1.5745,10.4624L55.809,44.049l2.4043-.2032.0062.0673-.0062-.0842Z"/>
      <polygon class="cls-11" points="59.737 47.232 59.738 47.231 59.737 47.232 59.737 47.232"/>
      <path class="cls-11" d="M52.22,33.01l-.144-.0846a1.0559,1.0559,0,0,0-.4063-.7027A.2562.2562,0,0,0,51.61,32.18c.017.017.0339.0254.0508.0423a1.0551,1.0551,0,0,1,.4063.7027l.144.0846a.6044.6044,0,0,1,.2455.4487c0,.1185-.06.1853-.1494.1858.0938.004.1579-.0635.1579-.1858A.579.579,0,0,0,52.22,33.01Z"/>
      <path class="cls-11" d="M58.281,44.7771a.7558.7558,0,0,1,.1948.0846.3739.3739,0,0,1,.0846.0508,1.9272,1.9272,0,0,1,.7365,1.2614l.0085.0085v-.0085c.0085,0,.0085.0085.0169.0085a1.0305,1.0305,0,0,1,.4064.5079.8684.8684,0,0,1,.07.318.8623.8623,0,0,0-.0611-.3349.9953.9953,0,0,0-.4064-.508c-.0085,0-.0085-.0084-.0169-.0084v.0084l-.0085-.0084a1.9078,1.9078,0,0,0-.7365-1.2614c-.0339-.0169-.0593-.0423-.0931-.0593a1.1071,1.1071,0,0,0-.1788-.0787l.001.011a.5261.5261,0,0,0-.3646.014A.5328.5328,0,0,1,58.281,44.7771Z"/>
      <polygon class="cls-11" points="55.834 34.482 55.826 34.483 55.826 34.482 55.818 34.483 54.215 32.49 55.818 34.487 55.834 34.508 55.834 34.483 55.834 34.482"/>
      <path class="cls-11" d="M54.3106,41.2723l.233.1331-.0044-.0061-.004-.0072-.2246-.1283v-.2624h0l-.0082.2624a2.596,2.596,0,0,0,1.2,1.6716A2.5942,2.5942,0,0,1,54.3106,41.2723Z"/>
      <path class="cls-11" d="M50.9244,32.2648l.0021-.0042c-.0148-.009-.03-.0222-.0444-.03a.2416.2416,0,0,0-.1047-.025.2512.2512,0,0,1,.0962.025A.1782.1782,0,0,1,50.9244,32.2648Z"/>
      <path class="cls-11" d="M55.2419,28.4892a.4645.4645,0,0,1,.2286.2624v.0169c0,.0763-.1016.0847-.2286.017a.5243.5243,0,0,1-.06-.04.6727.6727,0,0,0,.0684.049c.1269.076.2283.0676.2285-.0168v-.0341a.4447.4447,0,0,0-.22-.2624c-.09-.0512-.1691-.0586-.2065-.03A.2206.2206,0,0,1,55.2419,28.4892Z"/>
      <polygon class="cls-11" points="65.958 55.071 65.959 55.08 65.975 55.164 65.976 55.162 65.96 55.073 65.958 55.071"/>
      <polygon class="cls-11" points="48.012 35.558 48.613 35.507 48.012 35.557 48.012 35.558"/>
      <polygon class="cls-11" points="63.03 38.191 62.726 38.216 62.143 41.085 62.158 41.103 62.734 38.225 63.037 38.199 63.03 38.191"/>
      <path class="cls-11" d="M57.5107,44.8787a.4538.4538,0,0,1,.1777.1608c.0026-.0064.0073-.01.01-.016a.6246.6246,0,0,0-.1708-.1533.3431.3431,0,0,0-.1439-.0423.1837.1837,0,0,0-.0713.02.1539.1539,0,0,1,.0544-.0121A.3121.3121,0,0,1,57.5107,44.8787Z"/>
      <polygon class="cls-11" points="64.52 44.032 64.225 43.667 64.52 44.038 64.52 44.032"/>
      <path class="cls-11" d="M57.1974,45.0818v-.0254l0-.0021a.953.953,0,0,0-.2711-.2518.3937.3937,0,0,0-.2794-.0593c-.0059.0015-.0094.0066-.0152.0085a.3858.3858,0,0,1,.2776.0592A.8623.8623,0,0,1,57.1974,45.0818Z"/>
      <polygon class="cls-11" points="61.811 40.688 61.506 40.714 61.498 44.286 60.658 48.47 60.671 48.487 61.515 44.286 61.523 40.722 61.819 40.697 61.811 40.688"/>
      <polygon class="cls-11" points="60 48.468 58.56 48.594 58.56 48.604 59.143 56.595 59.144 56.595 58.56 48.595 60.008 48.468 60.008 47.704 60 47.693 60 48.468"/>
      <polygon class="cls-11" points="48.63 29.928 48.622 29.929 48.927 30.301 48.63 29.928"/>
      <path class="cls-11" d="M60.9791,56.8946c-.0407-.0024-.0812-.0043-.1221-.0071l.02.0021c.082.0056.1638.0106.2449.0137h.0094C61.081,56.9013,61.03,56.8975,60.9791,56.8946Z"/>
      <path class="cls-11" d="M53.93,53.9708c-.5217-.3786-1.0265-.7993-1.5231-1.2366h0l-.0027-.0024-.0065-.0059q-.1533-.1363-.3051-.2761c.1025.0938.2014.1933.3051.2849.5.44,1.0074.855,1.5323,1.2444.0635.047.13.0889.194.1351-.0645-.0466-.129-.0923-.193-.14l1.87-9.9255-.0012-.0016Z"/>
      <path class="cls-11" d="M57.5023,36.2691l-.0006-.0113a.275.275,0,0,0-.234-.0225A.2806.2806,0,0,1,57.5023,36.2691Z"/>
      <polygon class="cls-11" points="55.843 31.3 56.283 31.859 56.283 32.654 56.292 32.659 56.292 31.867 56.3 28.48 56.292 31.842 55.843 31.283 55.471 31.317 55.47 31.334 55.843 31.3"/>
      <path class="cls-11" d="M59.2462,37.2765c.0084,0,.0084.0085.0169.0085a.7.7,0,0,1,.1.0729.6784.6784,0,0,0-.1085-.0814c-.0084,0-.0084-.0085-.0169-.0085a.3.3,0,0,0-.24-.0426l.0031.0088A.3021.3021,0,0,1,59.2462,37.2765Z"/>
      <path class="cls-11" d="M56.7091,28.6014a.5366.5366,0,0,0-.18-.1715.3794.3794,0,0,0-.0912-.0377.4566.4566,0,0,1,.0827.0377A.5755.5755,0,0,1,56.7091,28.6014Z"/>
      <path class="cls-11" d="M56.52,28.7262c.127.0762.2285.0677.2286-.0169C56.7487,28.7854,56.6472,28.7939,56.52,28.7262Z"/>
      <path class="cls-11" d="M58.7858,36.9177c-.01-.008-.02-.0171-.0306-.024v.0019A.3564.3564,0,0,1,58.7858,36.9177Z"/>
      <polygon class="cls-11" points="56.74 32.428 58.23 34.28 58.222 34.28 58.222 34.281 58.239 34.28 56.74 32.417 56.74 32.426 56.74 32.428"/>
      <path class="cls-11" d="M57.5542,35.8768c.1025-.1874.3241-.2341.5745-.09a.3742.3742,0,0,1,.0931.0677,1.2794,1.2794,0,0,1,.2013.1981,1.3027,1.3027,0,0,0-.21-.2066v-.0169a.57.57,0,0,0-.0762-.0508C57.8745,35.6244,57.6513,35.6748,57.5542,35.8768Z"/>
      <path class="cls-12" d="M62.07,56.889c.0783-.0065.1552-.0165.2326-.0251h0C62.2254,56.8727,62.1487,56.8827,62.07,56.889Z"/>
      <path class="cls-12" d="M62.4648,56.8465c-.0329.0046-.0667.0067-.1.0107h0C62.3979,56.8532,62.4318,56.851,62.4648,56.8465Z"/>
      <path class="cls-12" d="M61.122,56.9033l.0156,0-.0062,0Z"/>
      <path class="cls-12" d="M61.99,56.8957c-.0352.0026-.0719.001-.1073.0031l-.0256.0021C61.9016,56.8986,61.9465,56.8987,61.99,56.8957Z"/>
      <path class="cls-12" d="M60.9986,56.9c.0415.0025.0823.0022.1234.0034-.0811-.0031-.1629-.0081-.2449-.0137C60.9176,56.8933,60.9585,56.8976,60.9986,56.9Z"/>
      <path class="cls-12" d="M59.144,56.595l-.0007,0,0,.0043c-.0318-.0082-.0632-.0153-.0952-.0238.0319.0084.0643.02.0961.0283.0644.0161.1274.0289.1913.0438-.0636-.0152-.1276-.0316-.1916-.0481Z"/>
      <path class="cls-12" d="M57.3887,55.9927c.0739.0311.1489.0668.2225.0966l0-.0027C57.537,56.0573,57.4629,56.0247,57.3887,55.9927Z"/>
      <path class="cls-12" d="M56.7262,55.69l-.0729-.0357c-.0438-.0216-.0872-.042-.1311-.0643-.0767-.0389-.1534-.0778-.23-.1185-.0239-.0126-.0482-.0268-.0723-.04q-.2416-.1284-.4866-.267c-.2525-.1437-.5025-.3013-.752-.4619-.0265-.017-.0526-.0353-.079-.0525-.0667-.0433-.1322-.0879-.1986-.1321-.0335-.0224-.067-.0441-.1-.0667q-.221-.15-.44-.3086l-.039-.0283c-.0642-.0462-.13-.0881-.194-.1351-.5249-.3894-1.0328-.8042-1.5323-1.2444-.1037-.0916-.2026-.1911-.3051-.2849l-.0177-.016c-.0794-.0729-.1581-.1469-.2368-.2211l-.0151-.0147c-.4458-.4209-.8837-.8549-1.3046-1.3173q-.3465-.3779-.6845-.7747a23.303,23.303,0,0,0,5.4984,4.8287l.7933.4579c.32.1735.6355.3232.9488.4635-.0657-.03-.1315-.0616-.1972-.0928C56.8268,55.74,56.7764,55.7141,56.7262,55.69Z"/>
      <path class="cls-12" d="M60.8411,56.8866l.036.003-.02-.0021Z"/>
      <path class="cls-12" d="M62.988,56.756c.103-.0222.2036-.05.3046-.0764q-.1779.0481-.3605.0864C62.9505,56.7622,62.97,56.76,62.988,56.756Z"/>
      <path class="cls-12" d="M47.9615,47.6469c.0158.0235.033.0456.0489.069-.0567-.0828-.1123-.1665-.1684-.25C47.8824,47.5258,47.9207,47.5874,47.9615,47.6469Z"/>
      <path class="cls-12" d="M43.0368,33.8686l.003.0594c-.0019-.0506-.0012-.1-.0027-.1509Z"/>
      <path class="cls-12" d="M49.1635,49.2808q.3225.4172.6616.8153c-.27-.3189-.5306-.6489-.7887-.9818C49.0793,49.17,49.1206,49.2253,49.1635,49.2808Z"/>
      <path class="cls-12" d="M48.5624,48.4935c.0647.0871.1334.1743.2.2614-.256-.341-.509-.6853-.7516-1.039C48.1905,47.979,48.376,48.2369,48.5624,48.4935Z"/>
      <path class="cls-12" d="M45.862,44.0829c.0516.1025.11.2022.1633.3042-.1167-.2266-.2321-.4537-.3429-.6827C45.7432,43.83,45.7991,43.9578,45.862,44.0829Z"/>
      <path class="cls-12" d="M66.0085,55.1287c-.0111.0108-.0214.0229-.0326.0336h0l-.0012.0013v0l-.0172.0176c-.0583.0556-.1193.1067-.1791.16.0649-.0574.1351-.1076.1979-.168l.0339-.0339c.0557-.0544.1043-.119.1584-.1758-.053.0556-.1055.112-.16.1654Z"/>
      <path class="cls-12" d="M63.3673,56.6609c.09-.0252.1747-.0621.2631-.0911l-.0286.0093C63.5228,56.6048,63.4477,56.6381,63.3673,56.6609Z"/>
      <polygon class="cls-13" points="55.834 34.482 55.834 34.483 58.222 34.281 58.222 34.28 55.834 34.482"/>
      <path class="cls-13" d="M54.2153,32.49l1.6022,1.9929.008-.0006L53.43,31.5029l1.5831-.1354v.0007l.0084-2.8293a.1616.1616,0,0,1-.0084-.0328v-.0084a.0662.0662,0,0,1,.039-.0469c.0374-.0287.1168-.0213.2065.03a.4447.4447,0,0,1,.22.2624v.0339l-.0084,2.54.3724-.0339.4486.5588L56.3,28.48a.1642.1642,0,0,1-.0084-.0329v-.0085c.0128-.0573.0686-.0714.1459-.0462a.3794.3794,0,0,1,.0912.0377.5366.5366,0,0,1,.18.1715.303.303,0,0,1,.0181.027.1892.1892,0,0,1,.0216.0639v.017h0l-.0085,3.708L58.2388,34.28v1.5661l-.0254-.0169v.0169a1.3027,1.3027,0,0,1,.21.2066,1.4056,1.4056,0,0,1,.3321.8093v.032c.0105.0069.02.016.0306.024a.551.551,0,0,1,.2118.3077.3.3,0,0,1,.24.0426c.0085,0,.0085.0085.0169.0085a.6784.6784,0,0,1,.1085.0814.8953.8953,0,0,1,.2471.35.5113.5113,0,0,1,0,.4741.2534.2534,0,0,1-.3471.0254c-.0085,0-.0085-.0084-.0169-.0084L58.23,37.6116l-.0082,2.2473,1.7944,2.2346v.0084h0L60,47.6723v.021l.0085.0106v-.0316l.65.7978.84-4.1841.0085-3.5725.3047-.0253.0075.0092.01-.0008.3152.388.5821-2.8684.3048-.0254.0068.0086h.0017l.2962.3725.7535,4.7153.0407.2605.0017.002.0938.1177.2956.3648-.0005.0058.0089.0111-.11,1.3037,1.54,9.7184.0016.002,0-.0018.043.05c1.5657-1.5323,2.4968-4.004,2.5052-7.2544a24.7865,24.7865,0,0,0-2.8742-10.9746,28.0169,28.0169,0,0,0-8.2461-9.9807c-.3019-.2172-.6062-.4278-.9143-.6238q-.3257-.2072-.6555-.3977a11.7775,11.7775,0,0,0-5.528-1.7464c-4.23-.1-7.17,3.1481-7.25,8.8425l-.0009.3739c.0015.1777.0035.3555.01.5346.0024.064.0072.1286.01.1928.0089.181.0193.3624.0335.5447.0057.0733.013.1468.02.22.0159.177.0336.3544.0543.5325q.0125.1075.0264.2155.0354.2789.0785.559c.01.062.0189.124.029.1861q.0515.3159.1125.633c.0072.0376.0138.075.0212.1126a25.4134,25.4134,0,0,0,.84,3.1453l.0049.0143A29.49,29.49,0,0,0,45.87,44.06l.0339-11.109,2.4128-2.9969.0041.0053.0043-.0053.2963-.0254.0005.0007.0079-.0007.2963.3725,2.3873,5.7736-.0254,8.3633,1.8286-.16.2794-3.2085.0253-9.5662.0085.0106v-.0021Zm-1.908,1.1544a.2408.2408,0,0,1-.1045-.0249l-.55-.3217c-.0169-.0085-.0423-.017-.0592-.0254-.017-.017-.0424-.0255-.0593-.0424l-.6687-.3894a.6043.6043,0,0,1-.2455-.4487c0-.1223.0639-.19.1577-.1858a.2416.2416,0,0,1,.1047.025c.0148.0074.03.0206.0444.03a.0911.0911,0,0,1,.091-.08l.0045.0015.004-.0015a.1363.1363,0,0,1,.0762.0254l.0195.0171a.4317.4317,0,0,1,.0482.0421.2427.2427,0,0,1,.1787-.1438.38.38,0,0,1,.2615.0592.2562.2562,0,0,1,.0593.0423,1.0559,1.0559,0,0,1,.4063.7027l.144.0846a.579.579,0,0,1,.2455.4487C52.4652,33.5808,52.4011,33.6483,52.3073,33.6443Z"/>
      <polygon class="cls-14" points="52.407 52.734 52.404 52.732 52.407 52.734 52.407 52.734"/>
      <path class="cls-14" d="M60.9791,56.8946,59.3816,54.902l1.2868-6.4.003-.0151-.0136-.0168-.65-.7978v.7958l-1.4477.127.5836,8,0,.0043c.064.0165.128.0329.1916.0481.0459.0109.0922.0238.138.0346l.0162.0041.0406.01c.0235.0052.0466.0084.07.0134.2564.0537.5083.0936.7576.1257l.0329.0055c.0686.0088.1378.0184.2058.0256l.0326.004c.0627.006.125.0105.1874.0152l.0241.0014.0159.0009C60.8979,56.89,60.9384,56.8922,60.9791,56.8946Z"/>
      <path class="cls-14" d="M52.0746,52.4339l.0177.016q.1518.14.3051.2761l.7274-8.44-1.8364.1608-.0169,6.3746-.7319.0666q.6247.6833,1.2831,1.31l.0151.0147C51.9165,52.287,51.9952,52.361,52.0746,52.4339Z"/>
      <path class="cls-14" d="M65.96,55.0731l.0162.0891h0c.0112-.0107.0215-.0228.0326-.0336h0l-.0061-.0072-.043-.05Z"/>
      <path class="cls-15" d="M54.3106,40.8166c-.0025-.02-.0075-.0415-.0084-.0607v-.0338c.0084-.55.6773-.61,1.5068-.127l.0085.0055v-.014h0l.0168-6.0784-.0168-.021L54.2153,32.49l-.7851-.9785v.0021l-.0254,9.5556.9058-.0762Z"/>
      <polygon class="cls-15" points="54.311 40.993 54.31 41.001 54.311 41.001 54.311 40.993"/>
      <path class="cls-16" d="M60,47.6933v-.021l.0169-5.57h0v-.0084l-1.8032.1608v-.01l.0009-.2251.0076-2.1608,0,0,.0082-2.2473-.0085-.0049L57.5192,37.2a.0083.0083,0,0,0-.0085-.0084.8446.8446,0,0,1-.3979-.6773.2537.2537,0,0,1,.1549-.2793.275.275,0,0,1,.234.0225.9433.9433,0,0,1-.0079-.1326.54.54,0,0,1,.06-.2484c.0971-.202.32-.2524.583-.0987a.57.57,0,0,1,.0762.0508l.0254.0169V34.28l-.017.0014-2.3874.2017v.0254l-.0168,6.0784h0a2.84,2.84,0,0,1,1.4983,1.8624v.2625l.8974,1.1174.0062.0842.0775.8445a1.1071,1.1071,0,0,1,.1788.0787c.0338.017.0592.0424.0931.0593a1.9078,1.9078,0,0,1,.7365,1.2614l.0085.0084V46.157c.0084,0,.0084.0084.0169.0084a.9953.9953,0,0,1,.4064.508.8623.8623,0,0,1,.0611.3349c0,.0178-.0044.0325-.0058.0493a.5427.5427,0,0,1-.009.0674.3257.3257,0,0,1-.0459.1061l0,.001h0c-.0035.005-.0047.0121-.0084.0168-.0847.1186-.237.127-.4064.0339-.0084,0-.0084-.0085-.0169-.0085l-.7365-.4233a.4378.4378,0,0,1-.11-.0507l-.0324-.0163.1334,1.81L60,48.4681Z"/>
      <path class="cls-17" d="M55.8339,34.4822l2.3879-.2018L58.23,34.28l-1.49-1.852v.4975l-.0025-.0015c-.0069.0764-.1036.0837-.2261.0184a.4119.4119,0,0,1-.2285-.2794l.169.094-.1606-.094v-.0035l-.0084-.0049v-.7958l-.44-.5587-.3725.0338v.0085l-.0086,1.6423-.0024-.0015c-.0069.0765-.1036.0838-.2261.0185a.4123.4123,0,0,1-.2285-.2794l.1684.0936-.16-.0936V31.3675l-1.5831.1354,2.3953,2.9793.0005.0006Z"/>
      <polygon class="cls-17" points="58.214 42.019 58.213 42.244 58.213 42.246 58.213 42.254 60.016 42.093 58.222 39.859 58.222 39.859 58.214 42.019"/>
      <polygon class="cls-17" points="63.037 38.199 62.734 38.225 63.039 38.597 63.335 38.572 63.039 38.199 63.037 38.199"/>
      <polygon class="cls-17" points="61.828 40.697 61.819 40.697 61.523 40.722 62.091 41.425 62.158 41.103 62.143 41.085 61.828 40.697"/>
      <path class="cls-16" d="M65.9747,55.1637v0l-.0153-.0837-.0013-.0087-1.54-9.7184.11-1.3037-.3048.0255-.618,7.2211.017-7.9661-.601.0508-.0339,13.368c.21-.0459.4133-.1044.6138-.1692L63.63,56.57c.0861-.0283.1719-.057.2561-.0887l.026-.0105c.09-.0346.18-.069.2682-.1076.027-.0118.0534-.0244.08-.0365.1212-.0549.24-.1131.3573-.1755.0142-.0076.0278-.0163.0419-.024l.0408-.0234c.0483-.027.0965-.0541.144-.0824.0217-.0128.0442-.0245.0658-.0376.1081-.0658.2137-.1358.3177-.2084.0379-.0265.0761-.0525.1134-.08.0345-.0253.0677-.0526.1016-.0787.0387-.03.0776-.0589.1157-.09.0745-.06.1473-.1225.2194-.1862.06-.0529.1208-.104.1791-.16Z"/>
      <polygon class="cls-16" points="64.089 43.287 63.928 43.304 64.129 43.548 64.089 43.287"/>
      <polygon class="cls-17" points="64.225 43.667 64.131 43.55 64.129 43.548 63.928 43.304 63.623 43.329 64.224 44.074 64.529 44.049 64.52 44.038 64.225 43.667"/>
      <polygon class="cls-15" points="63.606 51.296 64.224 44.074 63.623 43.329 63.606 51.296"/>
      <path class="cls-15" d="M62.0906,41.4247l-.5672-.7026L61.515,44.286l-.8436,4.2009-.003.0151-1.2868,6.4,1.5975,1.9926c.0507.0029.1019.0067.1523.0088l.0062,0c.0724.0028.1446.0052.2163.006.0775.0012.1536-.0012.23-.0025.05-.0008.1015,0,.1517-.0017.0407-.0015.0814-.0025.1218-.0047l.0256-.0021c.1414-.008.2816-.019.42-.0349h0l.0615-.0066h0c.2094-.0258.4135-.0632.6147-.1069l.0338-13.3616L61.989,42.0935l-.0254-.0339Z"/>
      <polygon class="cls-18" points="63.928 43.304 64.089 43.287 63.335 38.572 63.039 38.597 63.022 43.38 63.623 43.329 63.928 43.304"/>
      <polygon class="cls-19" points="62.734 38.225 62.158 41.103 62.091 41.425 61.964 42.06 61.989 42.093 63.022 43.38 63.039 38.597 62.734 38.225"/>
      <path class="cls-17" d="M55.7994,44.0474l.0012.0016,2.4042-.2032-.8973-1.1174v.2709a.5147.5147,0,0,1-.0307.1829c-.1408.372-.7491.36-1.4678-.0475-.1053-.0612-.2078-.1282-.3068-.1993a2.596,2.596,0,0,1-1.2-1.6716l.0082-.2624,0-.0085-.9058.0762,2.3958,2.9715Z"/>
      <path class="cls-16" d="M57.3751,54.5114,55.8006,44.049l-1.87,9.9255c.064.0475.1285.0932.193.14l.039.0283q.2194.1582.44.3086c.0333.0226.0668.0443.1.0667.0664.0442.1319.0888.1986.1321.0264.0172.0525.0355.079.0525.25.1606.5.3182.752.4619q.245.1386.4866.267c.0241.0128.0484.027.0723.04.077.0407.1537.08.23.1185.0439.0223.0873.0427.1311.0643l.0729.0357c.05.0246.1006.05.1507.0739.0657.0312.1315.0625.1972.0928l.04.0188c.061.0277.1213.052.1821.0786.0309.0133.0616.0258.0926.0391.0742.032.1483.0646.2222.0939Z"/>
      <path class="cls-20" d="M59.1433,56.5948,58.56,48.6035l-.0006-.0091-.1334-1.81-.0184-.0091c-.0169-.017-.0423-.0254-.0592-.0423l-1.4476-.8381a1.0414,1.0414,0,0,1-.4488-.635c-.0592-.2624.0085-.4656.1779-.5079h.0017c.0058-.0019.0093-.007.0152-.0085a.3937.3937,0,0,1,.2794.0593.953.953,0,0,1,.2711.2518.2016.2016,0,0,1,.1147-.2059.1837.1837,0,0,1,.0713-.02.3431.3431,0,0,1,.1439.0423.6246.6246,0,0,1,.1708.1533.4337.4337,0,0,1,.235-.2409.5261.5261,0,0,1,.3646-.014l-.001-.011-.0775-.8445-.0062-.0673-2.4043.2032,1.5661,10.4624.2358,1.5752,0,.0027v0l.0059.0022c.1889.0769.3752.144.5613.21.0529.0187.107.0418.16.06s.1061.0336.159.05c.0276.0084.0554.0172.083.0259.0993.0313.1976.0588.2961.0874.0573.0167.1153.0355.1723.0509.032.0085.0634.0156.0952.0238Z"/>
      <path class="cls-15" d="M52.4039,52.7319l.0027.0023c.4966.4373,1.0014.858,1.5231,1.2366l1.87-9.9234.0012-.0068-2.3958-2.9715-.2793,3.2085-.0007.0085-.7274,8.44Z"/>
      <path class="cls-19" d="M54.3106,41.2638l.2246.1283a1.4683,1.4683,0,0,1-.2246-.5755v.4472Z"/>
      <path class="cls-19" d="M57.07,42.8638a1.5522,1.5522,0,0,1-1.2614-.2709,3.8648,3.8648,0,0,1-.7382-.5514,3.1792,3.1792,0,0,1-.5272-.6361l-.233-.1331a2.5942,2.5942,0,0,0,1.1916,1.6631c.099.0711.2015.1381.3068.1993.7187.4074,1.327.4195,1.4678.0475a.5147.5147,0,0,0,.0307-.1829V42.5A.3988.3988,0,0,1,57.07,42.8638Z"/>
      <path class="cls-18" d="M54.5392,41.3993l.0044.0061a3.1792,3.1792,0,0,0,.5272.6361,3.876,3.876,0,0,0,.73.543,1.5611,1.5611,0,0,0,1.2614.2709.3947.3947,0,0,0,.237-.364v-.0339c.0169-.5484-.6559-1.3737-1.4815-1.8569l-.0085-.0055c-.8295-.4826-1.4984-.4233-1.5068.127v.0338c.0009.0192.0059.0406.0084.0607a1.4683,1.4683,0,0,0,.2246.5755Z"/>
      <path class="cls-19" d="M55.0133,32.7135v.0085l.16.0936-.1684-.0936a.4123.4123,0,0,0,.2285.2794c.1225.0653.2192.058.2261-.0185l.0024.0015.0086-1.6423v-.0254l.0084-2.54v0c0,.0844-.1016.0928-.2285.0168a.6727.6727,0,0,1-.0684-.049.4089.4089,0,0,1-.16-.2061l-.0084,2.8293v1.3453Z"/>
      <path class="cls-18" d="M55.182,28.745a.5243.5243,0,0,0,.06.04c.127.0677.2286.0593.2286-.017v-.0169a.4645.4645,0,0,0-.2286-.2624.2206.2206,0,0,0-.19-.0384.0662.0662,0,0,0-.039.0469v.0084a.1616.1616,0,0,0,.0084.0328A.4089.4089,0,0,0,55.182,28.745Z"/>
      <path class="cls-19" d="M56.2916,32.6592v.0035l.1606.094-.169-.094a.4119.4119,0,0,0,.2285.2794c.1225.0653.2192.058.2261-.0184l.0025.0015v-.5079l.0085-3.708c0,.0846-.1016.0931-.2286.0169a.4474.4474,0,0,1-.22-.2464l-.0084,3.3872Z"/>
      <path class="cls-18" d="M56.52,28.7262c.127.0677.2285.0592.2286-.0169h0v-.017a.1892.1892,0,0,0-.0216-.0639.303.303,0,0,0-.0181-.027A.5755.5755,0,0,0,56.52,28.43a.4566.4566,0,0,0-.0827-.0377c-.0773-.0252-.1331-.0111-.1459.0462v.0085A.1642.1642,0,0,0,56.3,28.48.4474.4474,0,0,0,56.52,28.7262Z"/>
      <path class="cls-16" d="M48.6133,35.5072l-.6011.0508-.0338,12.08c.1919.2839.3923.5593.5927.8347l.0422-11.7722Z"/>
      <path class="cls-15" d="M48.6133,35.5072v1.1937l-.0422,11.7722v.0112q.2948.4023.601.7927l.0339-13.0248Z"/>
      <polygon class="cls-18" points="49.206 36.252 51.314 36.074 48.927 30.301 48.622 30.326 49.206 36.252"/>
      <polygon class="cls-19" points="48.622 30.326 48.325 29.954 48.321 29.959 45.913 32.951 48.005 35.549 48.622 30.326"/>
      <path class="cls-16" d="M49.2059,36.2522,49.172,49.277c.07.0892.1421.1761.2129.2642.1237.1532.2471.3066.3739.4571.0776.0926.1566.1835.2352.2748q.18.209.3629.4141c.0582.0649.1169.1288.1756.1931l.739-.0672.0169-6.3746v-.0008l.0254-8.3633Z"/>
      <path class="cls-15" d="M48.0117,35.5574l-.0079.0006.001-.0091-2.0921-2.5983-.0338,11.1239a30.7294,30.7294,0,0,0,2.0995,3.5639l.0338-12.08Z"/>
      <polygon class="cls-17" points="48.005 35.549 48.004 35.558 48.012 35.557 48.613 35.507 49.206 36.252 48.622 30.326 48.005 35.549"/>
      <polygon class="cls-17" points="48.927 30.301 48.622 29.929 48.622 29.928 48.325 29.954 48.622 30.326 48.927 30.301"/>
      <path class="cls-21" d="M58.5689,46.8511l.7365.4233c.0085,0,.0085.0085.0169.0085.1694.0931.3217.0847.4064-.0339.0037-.0047.0049-.0118.0084-.0168l.0005-.0011a.3257.3257,0,0,0,.0459-.1061.5427.5427,0,0,0,.009-.0674c.0014-.0168.0058-.0315.0058-.0493a.8684.8684,0,0,0-.07-.318,1.0305,1.0305,0,0,0-.4064-.5079c-.0084,0-.0084-.0085-.0169-.0085v.0085l-.0085-.0085a1.9272,1.9272,0,0,0-.7365-1.2614.3739.3739,0,0,0-.0846-.0508.7558.7558,0,0,0-.1948-.0846.5328.5328,0,0,0-.3476.0055.4337.4337,0,0,0-.235.2409c-.0027.0062-.0074.01-.01.016a.4538.4538,0,0,0-.1777-.1608.3121.3121,0,0,0-.1439-.0424.1539.1539,0,0,0-.0544.0121.2016.2016,0,0,0-.1147.2059l0,.0021v.0254a.8623.8623,0,0,0-.2878-.2709.3858.3858,0,0,0-.2776-.0592H56.63c-.1694.0423-.2371.2455-.1779.5079a1.0414,1.0414,0,0,0,.4488.635l1.4476.8381c.0169.0169.0423.0253.0592.0423l.0184.0091.0324.0163A.4378.4378,0,0,0,58.5689,46.8511Z"/>
      <path class="cls-21" d="M58.1287,35.7866c-.25-.1439-.472-.0972-.5745.09a.54.54,0,0,0-.06.2484.9433.9433,0,0,0,.0079.1326l.0006.0113a.2806.2806,0,0,0-.2346-.0338.2537.2537,0,0,0-.1549.2793.8446.8446,0,0,0,.3979.6773.0083.0083,0,0,1,.0085.0084l.7026.4064.0085.0049,1.0159.5877c.0084,0,.0084.0084.0169.0084a.2534.2534,0,0,0,.3471-.0254.5113.5113,0,0,0,0-.4741.8953.8953,0,0,0-.2471-.35.7.7,0,0,0-.1-.0729c-.0085,0-.0085-.0085-.0169-.0085a.3021.3021,0,0,0-.2455-.0423l-.0031-.0088a.551.551,0,0,0-.2118-.3077.3564.3564,0,0,0-.0306-.0221v-.0339a1.4056,1.4056,0,0,0-.3321-.8093,1.2794,1.2794,0,0,0-.2013-.1981A.3742.3742,0,0,0,58.1287,35.7866Z"/>
      <path class="cls-21" d="M52.4567,33.4585a.6044.6044,0,0,0-.2455-.4487l-.144-.0846a1.0551,1.0551,0,0,0-.4063-.7027c-.0169-.0169-.0338-.0253-.0508-.0423a.38.38,0,0,0-.2615-.0592.2463.2463,0,0,0-.1787.1438.4317.4317,0,0,0-.0482-.0421.1135.1135,0,0,0-.0279-.0171.1368.1368,0,0,0-.0718-.0239l-.0045-.0015a.0911.0911,0,0,0-.091.08l-.0021.0042a.1782.1782,0,0,0-.0508-.0338.2512.2512,0,0,0-.0962-.025c-.0938-.004-.1577.0635-.1577.1858a.6043.6043,0,0,0,.2455.4487l.6687.3894c.0169.0169.0423.0254.0593.0424.0169.0084.0423.0169.0592.0254l.55.3217a.2408.2408,0,0,0,.1045.0249C52.3964,33.6438,52.4567,33.577,52.4567,33.4585Z"/>
    </g>
    <path id="Path-31" data-name="Path" class="cls-6" d="M30.5469,56.7427l45.1562,26.071v3.0672L30.5469,59.81Z"/>
    <path id="Path-32" data-name="Path" class="cls-1" d="M30.5469,56.7427l45.1562,26.071L78.3594,81.28,33.2031,55.2091Z"/>
    <path id="Path-33" data-name="Path" class="cls-22" d="M33.2031,49.0748l45.1563,26.071V81.28L33.2031,55.2091Z"/>
    <g id="Group-7" data-name="Group">
      <path id="Path-34" data-name="Path" class="cls-1" d="M77.0312,28.3714l5.3126-3.0672,1.3281.7668-5.3125,3.0671Z"/>
      <path id="Path-35" data-name="Path" class="cls-5" d="M83.6719,26.071V88.948l-1.3281.7668V28.3714L79.6875,29.905l-1.3281-.7669Z"/>
      <path id="Path-36" data-name="Path" class="cls-6" d="M81.0156,88.948v-59.81l1.3282-.7667V89.7148Z"/>
    </g>
    <path id="Path-37" data-name="Path" class="cls-5" d="M75.7031,85.8809,83.6719,81.28V78.2129l-7.9688,4.6008Z"/>
    <path id="Path-38" data-name="Path" class="cls-1" d="M79.6875,78.98l1.3281-.7668,1.3282.7668-2.6563,1.5336Z"/>
    <path id="Path-39" data-name="Path" class="cls-5" d="M79.6875,28.3714V80.5133l-1.3281.7668V29.1381Z"/>
    <g id="Group-8" data-name="Group">
      <path id="Path-40" data-name="Path" class="cls-5" d="M78.3594,40.64l5.3125-3.0672v1.5336l-5.3125,3.0671Z"/>
      <path id="Path-41" data-name="Path" class="cls-1" d="M81.0156,37.5729l1.3282.7668-2.6563,1.5336V38.34Z"/>
    </g>
    <path id="Path-42" data-name="Path" class="cls-1" d="M79.6875,36.8061V35.2725l1.3281.7668v1.5336Z"/>
    <path id="Path-43" data-name="Path" class="cls-1" d="M79.6875,48.308V46.7744l1.3281.7668v1.5336Z"/>
    <path id="Path-44" data-name="Path" class="cls-1" d="M79.6875,59.81V58.2763l1.3281.7668v1.5336Z"/>
    <path id="Path-45" data-name="Path" class="cls-1" d="M79.6875,71.3118V69.7782l1.3281.7668v1.5336Z"/>
    <path id="Path-46" data-name="Path" class="cls-1" d="M79.6875,77.4462V75.9125l1.3281.7668v1.5336Z"/>
    <path id="Path-47" data-name="Path" class="cls-6" d="M79.6875,38.34l1.3281-.7668-1.3281-.7668Z"/>
    <path id="Path-48" data-name="Path" class="cls-6" d="M79.6875,49.8416l1.3281-.7668-1.3281-.7668Z"/>
    <path id="Path-49" data-name="Path" class="cls-6" d="M79.6875,61.3435l1.3281-.7668L79.6875,59.81Z"/>
    <path id="Path-50" data-name="Path" class="cls-6" d="M79.6875,72.8454l1.3281-.7668-1.3281-.7668Z"/>
    <path id="Path-51" data-name="Path" class="cls-6" d="M79.6875,78.98l1.3281-.7668-1.3281-.7667Z"/>
    <g id="Group-9" data-name="Group">
      <path id="Path-52" data-name="Path" class="cls-5" d="M78.3594,63.6438l5.3125-3.0671V62.11l-5.3125,3.0672Z"/>
      <path id="Path-53" data-name="Path" class="cls-1" d="M81.0156,60.5767l1.3282.7668-2.6563,1.5336V61.3435Z"/>
    </g>
    <g id="Group-10" data-name="Group">
      <path id="Path-54" data-name="Path" class="cls-5" d="M78.3594,52.142l5.3125-3.0672v1.5335l-5.3125,3.0672Z"/>
      <path id="Path-55" data-name="Path" class="cls-1" d="M81.0156,49.0748l1.3282.7668-2.6563,1.5336V49.8416Z"/>
    </g>
    <g id="Group-11" data-name="Group">
      <path id="Path-56" data-name="Path" class="cls-5" d="M78.3594,75.1458l5.3125-3.0672v1.5336l-5.3125,3.0671Z"/>
      <path id="Path-57" data-name="Path" class="cls-1" d="M81.0156,72.0786l1.3282.7668L79.6875,74.379V72.8454Z"/>
    </g>
    <path id="Path-58" data-name="Path" class="cls-6" d="M33.2031,56.7427l42.5,24.5374,1.3281-.7668-42.5-24.5374Z"/>
    <path id="Path-59" data-name="Path" class="cls-23" d="M79.6875,74.379l-1.3281.7668V81.28l1.3281-.7668Z"/>
    <path id="Path-60" data-name="Path" class="cls-22" d="M33.2031,3.0672V6.1343l45.1563,26.071V29.1381Z"/>
    <path id="Path-61" data-name="Path" class="cls-23" d="M79.6875,28.3714l-1.3281.7667v3.0672l1.3281-.7668Z"/>
    <path id="Path-62" data-name="Path" class="cls-5" d="M34.5312,55.9759V57.51l-1.3281-.7668Z"/>
    <path id="Path-63" data-name="Path" class="cls-24" d="M79.6875,28.3714l-1.3281.7667L33.2031,3.0672,34.5312,2.3Z"/>
    <g id="Group-12" data-name="Group">
      <g id="Group-13" data-name="Group">
        <path id="Path-64" data-name="Path" class="cls-1" d="M136.7969,3.0672,131.4844,0l-1.3282.7668,5.3126,3.0672Z"/>
        <path id="Path-65" data-name="Path" class="cls-6" d="M130.1562.7668v7.668l1.3282.7667V3.0672l2.6562,1.5336,1.3282-.7668Z"/>
        <path id="Path-66" data-name="Path" class="cls-5" d="M132.8125,8.4348V3.834l-1.3281-.7668V9.2015Z"/>
      </g>
      <path id="Path-67" data-name="Path" class="cls-1" d="M122.1875,11.5019,116.875,8.4348l-1.3281.7667,5.3125,3.0672Z"/>
      <path id="Path-68" data-name="Path" class="cls-6" d="M115.5469,9.2015V16.87l1.3281.7668V11.5019l2.6562,1.5336,1.3282-.7668Z"/>
      <path id="Path-69" data-name="Path" class="cls-5" d="M118.2031,16.87V12.2687l-1.3281-.7668v6.1344Z"/>
      <g id="Group-14" data-name="Group">
        <path id="Path-70" data-name="Path" class="cls-1" d="M107.5781,19.9366,102.2656,16.87l-1.3281.7668,5.3125,3.0671Z"/>
        <path id="Path-71" data-name="Path" class="cls-6" d="M100.9375,17.6363v7.6679l1.3281.7668V19.9366l2.6563,1.5337,1.3281-.7669Z"/>
        <path id="Path-72" data-name="Path" class="cls-5" d="M103.5938,25.3042V20.7034l-1.3282-.7668V26.071Z"/>
      </g>
      <path id="Path-73" data-name="Path" class="cls-1" d="M132.8125.7668,87.6562,26.8378l-1.3281-.7668L131.4844,0Z"/>
      <path id="Path-74" data-name="Path" class="cls-5" d="M131.4844,3.0672V1.5336L118.2031,9.2015l1.3281.7668Z"/>
      <path id="Path-75" data-name="Path" class="cls-5" d="M116.875,11.5019V9.9683l-13.2812,7.668,1.3281.7668Z"/>
      <path id="Path-76" data-name="Path" class="cls-5" d="M102.2656,19.9366V18.4031L88.9844,26.071l1.3281.7668Z"/>
      <path id="Path-77" data-name="Path" class="cls-7" d="M135.4688,67.4778l-6.6407-3.834,2.6563-1.5335,6.6406,3.834Z"/>
      <path id="Path-78" data-name="Path" class="cls-7" d="M120.8594,75.9125l-6.6406-3.8339,2.6562-1.5336,6.6406,3.834Z"/>
      <path id="Path-79" data-name="Path" class="cls-7" d="M106.25,84.3473l-6.6406-3.834,2.6562-1.5336,6.6406,3.834Z"/>
      <path id="Path-80" data-name="Path" class="cls-7" d="M91.6406,92.782,85,88.948l2.6562-1.5335,6.6407,3.8339Z"/>
      <g id="Group-15" data-name="Group">
        <path id="Path-81" data-name="Path" class="cls-9" d="M92.9688,91.2484l-1.3282.7668V82.8137l1.3282-.7668Z"/>
        <path id="Path-82" data-name="Path" class="cls-6" d="M90.3125,91.2484l1.3281.7668V81.28l-1.3281-.7668Z"/>
      </g>
      <g id="Group-16" data-name="Group">
        <path id="Path-83" data-name="Path" class="cls-9" d="M136.7969,65.9443l-1.3281.7667V62.11l1.3281-.7668Z"/>
        <path id="Path-84" data-name="Path" class="cls-6" d="M134.1406,65.9443l1.3282.7667V62.11l-1.3282-.7668Z"/>
      </g>
      <g id="Group-17" data-name="Group">
        <path id="Path-85" data-name="Path" class="cls-9" d="M107.5781,82.8137l-1.3281.7668V78.98l1.3281-.7668Z"/>
        <path id="Path-86" data-name="Path" class="cls-6" d="M104.9219,82.8137l1.3281.7668V78.98l-1.3281-.7668Z"/>
      </g>
      <g id="Group-18" data-name="Group">
        <path id="Path-87" data-name="Path" class="cls-9" d="M122.1875,74.379l-1.3281.7668V70.545l1.3281-.7668Z"/>
        <path id="Path-88" data-name="Path" class="cls-6" d="M119.5312,74.379l1.3282.7668V70.545l-1.3282-.7668Z"/>
      </g>
      <g id="Group-19" data-name="Group">
        <path id="Path-89" data-name="Path" class="cls-25" d="M136.7969,3.0672V55.2091L91.6406,81.28V29.1381Z"/>
      </g>
      <path id="Path-90" data-name="Path" class="cls-5" d="M139.4531,56.7427,94.2969,82.8137v3.0672L139.4531,59.81Z"/>
      <path id="Path-91" data-name="Path" class="cls-1" d="M139.4531,56.7427,94.2969,82.8137,91.6406,81.28l45.1563-26.071Z"/>
      <path id="Path-92" data-name="Path" class="cls-23" d="M136.7969,49.0748,91.6406,75.1458V81.28l45.1563-26.071Z"/>
      <g id="Group-20" data-name="Group">
        <path id="Path-93" data-name="Path" class="cls-1" d="M92.9688,28.3714l-5.3126-3.0672-1.3281.7668,5.3125,3.0671Z"/>
        <path id="Path-94" data-name="Path" class="cls-6" d="M86.3281,26.071V88.948l1.3281.7668V28.3714l2.6563,1.5336,1.3281-.7669Z"/>
        <path id="Path-95" data-name="Path" class="cls-5" d="M88.9844,88.948v-59.81l-1.3282-.7667V89.7148Z"/>
      </g>
      <path id="Path-96" data-name="Path" class="cls-6" d="M94.2969,85.8809,86.3281,81.28V78.2129l7.9688,4.6008Z"/>
      <path id="Path-97" data-name="Path" class="cls-1" d="M90.3125,78.98l-1.3281-.7668-1.3282.7668,2.6563,1.5336Z"/>
      <path id="Path-98" data-name="Path" class="cls-6" d="M90.3125,28.3714V80.5133l1.3281.7668V29.1381Z"/>
      <g id="Group-21" data-name="Group">
        <path id="Path-99" data-name="Path" class="cls-6" d="M91.6406,40.64l-5.3125-3.0672v1.5336l5.3125,3.0671Z"/>
        <path id="Path-100" data-name="Path" class="cls-1" d="M88.9844,37.5729l-1.3282.7668,2.6563,1.5336V38.34Z"/>
      </g>
      <path id="Path-101" data-name="Path" class="cls-1" d="M90.3125,36.8061V35.2725l-1.3281.7668v1.5336Z"/>
      <path id="Path-102" data-name="Path" class="cls-1" d="M90.3125,48.308V46.7744l-1.3281.7668v1.5336Z"/>
      <path id="Path-103" data-name="Path" class="cls-1" d="M90.3125,59.81V58.2763l-1.3281.7668v1.5336Z"/>
      <path id="Path-104" data-name="Path" class="cls-1" d="M90.3125,71.3118V69.7782l-1.3281.7668v1.5336Z"/>
      <path id="Path-105" data-name="Path" class="cls-1" d="M90.3125,77.4462V75.9125l-1.3281.7668v1.5336Z"/>
      <path id="Path-106" data-name="Path" class="cls-5" d="M90.3125,38.34l-1.3281-.7668,1.3281-.7668Z"/>
      <path id="Path-107" data-name="Path" class="cls-5" d="M90.3125,49.8416l-1.3281-.7668,1.3281-.7668Z"/>
      <path id="Path-108" data-name="Path" class="cls-5" d="M90.3125,61.3435l-1.3281-.7668,1.3281-.7668Z"/>
      <path id="Path-109" data-name="Path" class="cls-5" d="M90.3125,72.8454l-1.3281-.7668,1.3281-.7668Z"/>
      <path id="Path-110" data-name="Path" class="cls-5" d="M90.3125,78.98l-1.3281-.7668,1.3281-.7667Z"/>
      <g id="Group-22" data-name="Group">
        <path id="Path-111" data-name="Path" class="cls-6" d="M91.6406,63.6438l-5.3125-3.0671V62.11l5.3125,3.0672Z"/>
        <path id="Path-112" data-name="Path" class="cls-1" d="M88.9844,60.5767l-1.3282.7668,2.6563,1.5336V61.3435Z"/>
      </g>
      <g id="Group-23" data-name="Group">
        <path id="Path-113" data-name="Path" class="cls-6" d="M91.6406,52.142l-5.3125-3.0672v1.5335l5.3125,3.0672Z"/>
        <path id="Path-114" data-name="Path" class="cls-1" d="M88.9844,49.0748l-1.3282.7668,2.6563,1.5336V49.8416Z"/>
      </g>
      <g id="Group-24" data-name="Group">
        <path id="Path-115" data-name="Path" class="cls-6" d="M91.6406,75.1458l-5.3125-3.0672v1.5336l5.3125,3.0671Z"/>
        <path id="Path-116" data-name="Path" class="cls-1" d="M88.9844,72.0786l-1.3282.7668,2.6563,1.5336V72.8454Z"/>
      </g>
      <path id="Path-117" data-name="Path" class="cls-5" d="M136.7969,56.7427,94.2969,81.28l-1.3281-.7668,42.5-24.5374Z"/>
      <path id="Path-118" data-name="Path" class="cls-22" d="M90.3125,74.379l1.3281.7668V81.28l-1.3281-.7668Z"/>
      <path id="Path-119" data-name="Path" class="cls-23" d="M136.7969,3.0672V6.1343L91.6406,32.2053V29.1381Z"/>
      <path id="Path-120" data-name="Path" class="cls-22" d="M90.3125,28.3714l1.3281.7667v3.0672l-1.3281-.7668Z"/>
      <path id="Path-121" data-name="Path" class="cls-6" d="M135.4688,55.9759V57.51l1.3281-.7668Z"/>
      <path id="Path-122" data-name="Path" class="cls-24" d="M90.3125,28.3714l1.3281.7667L136.7969,3.0672,135.4688,2.3Z"/>
    </g>
    <g>
      <polygon class="cls-11" points="118.438 37.184 118.427 37.199 118.438 37.2 118.438 37.184"/>
      <polygon class="cls-11" points="116.618 31.453 116.613 31.459 116.618 31.46 116.618 31.453"/>
      <polygon class="cls-11" points="120.58 33.747 121.139 30.208 121.444 29.836 121.728 29.86 121.723 29.836 121.418 29.811 121.122 30.183 120.563 33.722 120.233 33.696 119.937 34.069 119.945 37.641 119.124 42.822 118.464 42.764 118.464 42.771 118.464 43.567 117.039 45.335 117.041 45.352 118.472 43.576 118.472 42.78 119.132 42.839 117.888 50.695 117.898 50.696 119.141 42.848 119.962 37.667 119.962 37.658 119.945 34.094 120.25 33.722 120.58 33.747"/>
      <path class="cls-11" d="M116.83,43.7111l-1.4475.8381a.4747.4747,0,0,1-.146.0575.4573.4573,0,0,0,.1544-.0575l1.4476-.8381c.0125-.0062.0288-.0125.0436-.0187l0-.0035C116.8652,43.6963,116.8445,43.7037,116.83,43.7111Z"/>
      <path class="cls-11" d="M110.6245,37.1418c.1034-.0487.1877-.0252.2278.05-.0358-.09-.1252-.12-.2362-.0673l-.1416.0832c.0014.007.0051.0112.0061.0184Z"/>
      <path class="cls-11" d="M115.9071,34.1534l0,.0047c0-.0161.0032-.0329.0041-.0492C115.9105,34.1236,115.9074,34.1388,115.9071,34.1534Z"/>
      <path class="cls-11" d="M114.8912,27.61a.322.322,0,0,1,.1538-.0494A.3078.3078,0,0,0,114.8912,27.61Z"/>
      <path class="cls-11" d="M115.9156,34.2888l-.0005-.008a.8566.8566,0,0,0-.389.6938l.0007.0034A.8821.8821,0,0,1,115.9156,34.2888Z"/>
      <polygon class="cls-11" points="119.962 37.684 120.419 34.932 119.962 37.675 119.962 37.684"/>
      <polygon class="cls-11" points="122.07 42.247 122.079 42.236 122.053 34.272 122.07 42.247"/>
      <path class="cls-11" d="M112.9948,42.8137a.3859.3859,0,0,1-.2369-.364A.3774.3774,0,0,0,112.9948,42.8137Z"/>
      <polygon class="cls-11" points="122.561 33.916 122.931 33.948 122.934 33.916 122.546 33.883 122.552 33.916 122.561 33.916"/>
      <polygon class="cls-11" points="116.652 39.408 116.652 37.049 116.644 37.049 116.651 39.024 116.652 39.409 116.652 39.408"/>
      <path class="cls-11" d="M111.8408,34.2393l.0007-.0007-.0064-.0006.0053-.0065-.0223-.0019.0254,9.5662-.2539,3.5217-1.8285,2.2773v.0084l.0169,6.3746-.7394.9158c-.0468.0029-.0936.0059-.14.0082.051-.0018.1.0016.1515-.0012a9.68,9.68,0,0,0,1.8794-.3132,12.1788,12.1788,0,0,0,1.5322-.5249c.3831-.161.7782-.3533,1.1759-.56-.0513.0265-.1029.0542-.1543.08-.109.0554-.2173.1077-.3256.16q-.2535.1213-.5049.23c-.0663.0287-.1328.0584-.1988.0857-.03.0126-.061.0272-.0913.0395-.131.0536-.26.1-.3886.1474q-.3405.1257-.6744.2276c-.0863.0263-.1732.0548-.2589.0789-.04.0112-.0793.0193-.1193.03a9.8065,9.8065,0,0,1-1.6255.2978l-.0027,0c-.083.0076-.1636.0092-.2457.0143l.739-.9153-.0169-6.3746,1.8285-2.2773.254-3.5217-.0254-9.5662Z"/>
      <path class="cls-11" d="M117.7865,42.0857v-.0085c.0085,0,.0085-.0085.0169-.0085a.2955.2955,0,0,1,.3987.0272l-.0008-.0017c-.0847-.1186-.2371-.127-.4063-.0339-.0085,0-.0085.0084-.017.0084v.0085l-.003.0031.003.0139Z"/>
      <polygon class="cls-11" points="122.654 34.323 122.079 42.236 122.088 42.224 122.663 34.323 122.928 33.989 122.928 33.987 122.654 34.323"/>
      <path class="cls-11" d="M117.5256,41.6725a.5417.5417,0,0,0-.501.0068c-.034.017-.0593.0339-.0932.0508a.368.368,0,0,1,.1016-.0423A.5636.5636,0,0,1,117.5256,41.6725Z"/>
      <path class="cls-11" d="M116.1527,42.8135a.1931.1931,0,0,0-.1061.0094.2625.2625,0,0,1,.106-.0092Z"/>
      <path class="cls-11" d="M115.7632,40.7142V40.68c0-.55-.6773-.6095-1.5069-.127.8211-.4741,1.4983-.4148,1.4983.127v.0338a1.3692,1.3692,0,0,1-.2369.6435l.0071-.0041a1.3581,1.3581,0,0,0,.23-.6309v.2286l.9059.0762-.8973-.0846Z"/>
      <path class="cls-11" d="M112.7579,42.9492v-.2625l-.0085.271c.0085.55.6773.6095,1.5069.1269.1048-.061.207-.1276.3056-.1984-.0959.0679-.1951.1317-.2971.19C113.4351,43.55,112.7579,43.5,112.7579,42.9492Z"/>
      <path class="cls-11" d="M114.8912,27.61a.4226.4226,0,0,0-.22.2624A.4446.4446,0,0,1,114.8912,27.61Z"/>
      <path class="cls-11" d="M114.6712,27.8889v.0125a.0527.0527,0,0,0,.0135.0248A.0639.0639,0,0,1,114.6712,27.8889Z"/>
      <path class="cls-11" d="M114.9,32.1047a.2977.2977,0,0,1-.16.0516.2936.2936,0,0,0,.1683-.0431.4762.4762,0,0,0,.2286-.2709l-.0124.0068A.3973.3973,0,0,1,114.9,32.1047Z"/>
      <path class="cls-11" d="M112.7579,42.6867v-.2709a2.0016,2.0016,0,0,1,.6572-1.2033,2.0127,2.0127,0,0,0-.6657,1.2118v.2624l-.8974,1.1175,2.4128.2032-2.4044-.2032Z"/>
      <path class="cls-11" d="M113.8414,31.7237l.0085,1.6424-.44.2575v0l.1614-.09.2873-.168-.0085-1.6424.0084-.0105-.0083-2.5216a.2034.2034,0,0,1-.0168.0483Z"/>
      <path class="cls-11" d="M113.4013,29.4212v.0471a.0884.0884,0,0,0,.0485.0143A.06.06,0,0,1,113.4013,29.4212Z"/>
      <path class="cls-11" d="M109.0414,38.3693a.579.579,0,0,1,.2456-.4487l.0507-.0254a.3556.3556,0,0,1,.0931-.1863.2751.2751,0,0,1,.0763-.0677.1365.1365,0,0,1,.0761-.0254,1.0248,1.0248,0,0,1,.4318-.5926.0768.0768,0,0,1,.0592-.0254.2566.2566,0,0,1,.3618.0938.257.257,0,0,0-.37-.1107c-.017.0085-.0423.0254-.0593.0339a1.0917,1.0917,0,0,0-.4317.5926.2462.2462,0,0,0-.0762.0169.54.54,0,0,0-.0762.0677.3271.3271,0,0,0-.0932.1863l-.0507.0254a.6046.6046,0,0,0-.2455.4486.2306.2306,0,0,0,.0261.1105A.2484.2484,0,0,1,109.0414,38.3693Z"/>
      <polygon class="cls-11" points="106.73 38.581 107.026 38.209 107.018 38.208 106.722 38.581 104.335 44.354 106.73 38.582 106.73 38.581"/>
      <path class="cls-11" d="M113.63,33.6454c-.1224.0735-.2191.0665-.2259-.01l-.0026.0015c0,.0762.1016.0846.2285.0169.127-.0762.2286-.2032.2286-.2709l-.0028.0015A.43.43,0,0,1,113.63,33.6454Z"/>
      <polygon class="cls-11" points="116.618 31.491 116.635 31.47 116.629 31.469 116.618 31.482 116.618 31.491"/>
      <path class="cls-11" d="M107.6785,56.8582c-.0592-.0049-.118-.0139-.177-.0215.0653.01.1283.0218.1939.03.03.0035.0614.0032.0912.0063-.0358-.0036-.0725-.0049-.1081-.009Z"/>
      <path class="cls-11" d="M117.414,33.5185a.6788.6788,0,0,1,.2455-.2455c.0085,0,.0085-.0085.0169-.0085.1436-.0845.27-.0761.3465.0249-.0032-.005-.0043-.0118-.0078-.0164a.2535.2535,0,0,0-.3471-.0255c-.0085,0-.0085.0085-.017.0085a.8461.8461,0,0,0-.2455.2455c-.0329-.0988-.13-.124-.237-.0628v.0205C117.2785,33.4,117.38,33.4169,117.414,33.5185Z"/>
      <path class="cls-11" d="M104.9338,55.8892l.017.0107c.1219.0795.246.1555.3734.2258l.0022.001C105.1923,56.0532,105.0621,55.9729,104.9338,55.8892Z"/>
      <polygon class="cls-11" points="112.926 34.339 114.223 34.457 114.231 34.458 114.248 40.559 114.256 40.553 114.239 34.45 114.223 34.448 112.926 34.339"/>
      <path class="cls-11" d="M116.5336,33.0783a1.3219,1.3219,0,0,0-.4382.4667,1.2824,1.2824,0,0,1,.4382-.4583l.1016-.0508a.346.346,0,0,1,.4813.1542.3438.3438,0,0,0-.4813-.1736v.0109Z"/>
      <path class="cls-11" d="M107.0774,56.7651c-.1936-.04-.3866-.0895-.5729-.1452l-.0282-.0092-.0577-.0187q-.2245-.0708-.44-.1581-.0711-.0285-.1412-.0588c-.1311-.0565-.2594-.1182-.3856-.1836l.0434.0223c.1137.0583.2291.1135.3469.1647.0531.0229.1064.0453.16.0668q.2113.0847.43.1542c.03.01.0593.02.0894.029.1657.0495.3374.0916.5094.1291.0415.009.0833.0174.1251.0256.0315.0047.063.0094.0941.0146C107.1928,56.7871,107.1342,56.7775,107.0774,56.7651Z"/>
      <path class="cls-12" d="M126.461,37.5454l-.0156.0731Z"/>
      <path class="cls-12" d="M126.651,36.5712c-.01.0586-.0211.1174-.0317.1761C126.63,36.6886,126.6408,36.63,126.651,36.5712Z"/>
      <path class="cls-12" d="M126.6193,36.7473c-.0481.2655-.1.5315-.1583.7981Q126.5477,37.1455,126.6193,36.7473Z"/>
      <path class="cls-12" d="M126.7853,35.7c-.038.2892-.0839.58-.1343.8712C126.7012,36.28,126.7475,35.9892,126.7853,35.7Z"/>
      <path class="cls-12" d="M124.4574,43.3725a31.1549,31.1549,0,0,1-2.963,5.02c-.0366.05-.076.0971-.113.1469l-.0148.02c-.1864.2557-.38.504-.574.7509-.0292.037-.0592.073-.0885.11q-.1647.2075-.3317.4113-.2964.3586-.6017.7058c-.0869.0991-.1694.2042-.2573.3017a25.1626,25.1626,0,0,1-1.8454,1.837c-.5.4487-1.0075.8635-1.5323,1.2529a18.3085,18.3085,0,0,1-1.8543,1.2258l.462-.2667c5.5735-3.453,10.21-10.495,11.702-17.27a27.5828,27.5828,0,0,1-1.9542,5.6778C124.4828,43.3217,124.4659,43.3471,124.4574,43.3725Z"/>
      <path class="cls-12" d="M107.0943,56.7736c.02.0035.0414.0065.0623.01-.0418-.0082-.0836-.0166-.1251-.0256C107.0527,56.7623,107.0731,56.7691,107.0943,56.7736Z"/>
      <path class="cls-12" d="M107.0315,56.7576c-.172-.0375-.3437-.08-.5094-.1291C106.6883,56.6788,106.8589,56.72,107.0315,56.7576Z"/>
      <path class="cls-12" d="M112.4615,56.0625a12.1788,12.1788,0,0,1-1.5322.5249,9.68,9.68,0,0,1-1.8794.3132c-.0514.0028-.1-.0006-.1515.0012l-.027.0015c-.1179.0044-.2348.0062-.3507.006-.0811,0-.1625,0-.2427-.0027-.0055,0-.0113,0-.0168,0-.1341-.0046-.2665-.0154-.3987-.0271-.0252-.0023-.0508-.0038-.0759-.0063-.03-.0031-.0615-.0028-.0912-.0063-.0656-.0082-.1286-.02-.1939-.03l-.0485-.0059c-.0584-.0087-.1166-.0176-.1743-.0277l-.028-.0053c-.0311-.0052-.0626-.01-.0941-.0146a10.0849,10.0849,0,0,0,6.6274-1.3413l.4638-.2677c-.0687.04-.1369.0719-.2056.11q-.203.1127-.4048.2174C113.24,55.7092,112.8446,55.9015,112.4615,56.0625Z"/>
      <path class="cls-12" d="M104.8634,55.8466c.0282.0192.0587.0346.0874.0533l-.017-.0107C104.9107,55.8742,104.8862,55.862,104.8634,55.8466Z"/>
      <polygon class="cls-12" points="105.324 56.126 105.327 56.127 105.326 56.127 105.324 56.126"/>
      <path class="cls-12" d="M105.4517,56.1914l.0434.0224-.0434-.0223Z"/>
      <path class="cls-26" d="M106.0023,56.4453c-.0539-.0215-.1072-.0439-.16-.0668"/>
      <path class="cls-26" d="M106.0023,56.4453q.2113.0847.43.1542"/>
      <path class="cls-26" d="M105.842,56.3785c-.1178-.0512-.2332-.1064-.3469-.1647"/>
      <path class="cls-12" d="M126.9186,34.297c.0225-.3779.0373-.7539.0362-1.1251v0C126.9557,33.543,126.9413,33.919,126.9186,34.297Z"/>
      <path class="cls-26" d="M126.7946,35.634l-.0093.066"/>
      <path class="cls-26" d="M105.3242,56.1257c-.1274-.07-.2515-.1463-.3734-.2258"/>
      <path class="cls-26" d="M126.9074,34.4834q-.04.5715-.1128,1.1506"/>
      <path class="cls-26" d="M126.9186,34.297c-.0038.0622-.0069.1241-.0112.1864"/>
      <path class="cls-12" d="M106.4933,56.6212l.0288.0073c-.03-.0091-.06-.02-.0894-.029C106.4532,56.606,106.4726,56.615,106.4933,56.6212Z"/>
      <polygon class="cls-13" points="116.652 39.409 116.652 39.427 116.652 39.408 116.652 39.409"/>
      <polygon class="cls-13" points="114.239 34.441 111.841 34.239 111.841 34.239 112.926 34.339 114.223 34.448 114.239 34.45 116.618 31.491 116.618 31.482 114.239 34.441"/>
      <polygon class="cls-13" points="122.928 33.989 122.959 33.95 122.928 33.987 122.928 33.989"/>
      <path class="cls-13" d="M106.7218,38.5809l.2964-.3725.0079.0007.0005-.0007.3048.0254,2.4127,2.9969.017,8.347v.0171l1.8285-2.2773.2539-3.5217-.0254-9.5662.0223.0019,1.5609-1.9386v-.01l-.0083-2.819a.0564.0564,0,0,1-.0171-.0424c.0169-.0084.0169-.0084.0169-.017l0,.0594.0084.0048v-.0471h0v-.017a.4446.4446,0,0,1,.22-.2624c.1185-.0677.2117-.0677.2371.0085v.0085a.1625.1625,0,0,1-.0084.0329l.0083,2.5216.3641-.4551.4572.0424-.0084-3.3991c-.0028-.0071-.0085-.012-.0085-.021.0084,0,.0084,0,.0084-.0085a.4226.4226,0,0,1,.22-.2624.3078.3078,0,0,1,.1538-.0494.0761.0761,0,0,1,.0833.0578v.0085a.163.163,0,0,1-.0085.0329l.0085,3.675,1.4846.1251.0053-.0065v.007l.017.0014-.0064.0079.0064.0006v1.5467a.3438.3438,0,0,1,.4813.1736.5734.5734,0,0,1,.052.2352v.0134c.1066-.0612.2041-.036.237.0628a.8461.8461,0,0,1,.2455-.2455c.0085,0,.0085-.0085.017-.0085a.2535.2535,0,0,1,.3471.0255c.0035.0046.0046.0114.0078.0164l.0006.0005a.259.259,0,0,1,.0251.053c.0026.0072.0072.0124.0093.02a.5915.5915,0,0,1-.0344.4012.9168.9168,0,0,1-.3471.4233c-.0084,0-.0084.0084-.0169.0084l-1.0243.5926.0154,4.2355-.007-1.9752.0085.0007v-.0007l1.7746.15.0116-.0145V37.2l.0027,0,.0058-.0072V37.2l.0084.0007-.0084.01.0169,5.5523.66.0585.8212-5.181-.0085-3.5725.2963-.3724.33.0253.5587-3.5386.2964-.3725.3047.0254.0049.0244.012.001.7788,3.835-.0085.0084.0357.1787.3877.033-.0023.0314.0277.0024-.1017,1.4223-.005.0679,1.5729,7.8223.0491.0082a24.33,24.33,0,0,0,2.4636-10.1249,11.0376,11.0376,0,0,0-1.5457-6.0691c-2.0735-3.162-6.0074-3.9122-10.5651-1.5456-.1894.0984-.38.2045-.572.3138l-.167.0965c-6.9393,4.06-12.5451,13.7306-12.6112,21.7452l.0009.3817c.0025.1785.0054.3566.0135.53.0022.046.0059.0905.0084.1362.01.1885.0233.375.04.5576.0044.0488.01.0965.015.1449.0186.18.04.3582.0648.5326.0058.0411.012.0818.0181.1225q.0423.277.0949.5442l.0155.0793a9.7266,9.7266,0,0,0,.9914,2.7713l.0267.0468q.1158.2057.2412.3991c.0172.0265.0343.0529.0517.079.0769.116.1569.228.2388.3373.0234.0311.0464.0628.07.0934.0781.1006.1592.1969.2415.2917.0291.0334.0571.0683.0867.1009.0771.0853.1574.1656.2379.2459.14.139.2837.2732.4342.3968l-.034-11.1238Zm2.5567-.6772.0507-.0254a.3271.3271,0,0,1,.0932-.1863.54.54,0,0,1,.0762-.0677.2462.2462,0,0,1,.0762-.0169,1.0917,1.0917,0,0,1,.4317-.5926c.017-.0085.0423-.0254.0593-.0339a.257.257,0,0,1,.37.1107.3962.3962,0,0,1,.0385.1164l.1416-.0832c.111-.0522.2-.0224.2362.0673a.2294.2294,0,0,1,.0262.11.579.579,0,0,1-.2455.4487l-.55.3217a.2588.2588,0,0,1-.0592.0423c-.017.0085-.0424.0169-.0594.0254l-.6687.3894c-.111.0523-.2006.0224-.2363-.0673a.2306.2306,0,0,1-.0261-.1105A.6046.6046,0,0,1,109.2785,37.9037Z"/>
      <path class="cls-14" d="M117.8977,50.696l-.01-.0008,1.2443-7.856-.66-.0593v.7957l-1.4316,1.7768.0009.0095.6258,7.297.0375-.034c.6093-.5474,1.2029-1.14,1.773-1.7658l.0195-.0213-1.6008-.1341Z"/>
      <path class="cls-14" d="M109.7864,55.9778l-.739.9153c.0821-.0051.1627-.0067.2457-.0143l.0027,0a9.8065,9.8065,0,0,0,1.6255-.2978l.6767-9.2549L109.77,49.6032Z"/>
      <path class="cls-14" d="M124.4405,43.2963l.0169.0762c.0085-.0254.0254-.0508.0338-.0762Z"/>
      <path class="cls-15" d="M114.2308,34.4582l-.0083-.0008-1.296-.1187-1.0857-.0994-.0142-.0013.0254,9.5662.8974-1.1175v-.2624a2.0127,2.0127,0,0,1,.6657-1.2118,3.9919,3.9919,0,0,1,.8326-.6536Z"/>
      <path class="cls-16" d="M118.4637,42.7714v-.0077l-.0169-5.5523-1.7947,2.2246v-.0275l-.0014-.3847-.0154-4.2355h0l-.7027.4064a.0083.0083,0,0,1-.0085.0084c-.16.0962-.3.06-.363-.0685a.3547.3547,0,0,1-.0222-.0963.35.35,0,0,1-.0127-.0553l.0007-.005-.0007-.0034a.8566.8566,0,0,1,.389-.6938.67.67,0,0,1-.008-.119l0-.0037,0-.0047c0-.0146.0034-.03.0044-.0445a1.2951,1.2951,0,0,1,.1839-.5639,1.3219,1.3219,0,0,1,.4382-.4667l.1016-.0509V31.47l-.0168.0207L114.2393,34.45l.017,6.1037c.83-.4825,1.5069-.4233,1.5069.127v.2625l.8973.0846.084.84a1.0981,1.0981,0,0,1,.1869-.1375c.0339-.0169.0592-.0338.0932-.0508a.5417.5417,0,0,1,.501-.0068.5151.5151,0,0,1,.2494.4078l.003-.0031v-.0085c.0085,0,.0085-.0084.017-.0084.1692-.0931.3216-.0847.4063.0339l.0008.0017.0076.0067a.352.352,0,0,1,.0281.0649.3185.3185,0,0,1,.0167.0386.7512.7512,0,0,1-.0448.4553,1.0084,1.0084,0,0,1-.4063.4994c-.0084,0-.0084.0085-.0169.0085l-.7365.4233c-.0423.0254-.0763.0508-.11.0677l-.0508.0254-.0074.0032,0,.0035.0157-.0067.1416,1.65,1.4245-1.7681Z"/>
      <polygon class="cls-16" points="118.447 37.193 118.441 37.2 118.447 37.2 118.447 37.193"/>
      <polygon class="cls-17" points="113.41 33.624 113.401 33.629 113.41 33.624 113.41 33.624"/>
      <path class="cls-17" d="M111.8415,34.2386l2.3978.2026,2.379-2.9591.01-.0129.0064-.0079-.017-.0014-.0053-.0005-1.4846-.1251v.5l-.004.0153.0124-.0068a.4762.4762,0,0,1-.2286.2709.2936.2936,0,0,1-.1683.0431.0775.0775,0,0,1-.0341-.0127l-.0084-.0034a.0613.0613,0,0,1-.0262-.0524l.0085-.0048v-.7825l-.4572-.0424-.3641.4551-.0084.0105.0085,1.6424-.2873.168.0587-.0326.2286-.127-.0028.01.0028-.0015c0,.0677-.1016.1947-.2286.2709-.1269.0677-.2285.0593-.2285-.0169l.0026-.0015-.0026-.007V32.2929L111.84,34.2315l-.0053.0065Z"/>
      <polygon class="cls-17" points="116.652 39.427 116.652 39.436 118.447 37.211 118.455 37.201 118.447 37.2 118.441 37.2 118.438 37.2 118.427 37.199 116.652 37.049 116.652 37.049 116.652 39.408 116.652 39.427"/>
      <polygon class="cls-17" points="121.139 30.208 121.444 30.234 121.74 29.861 121.728 29.86 121.444 29.836 121.139 30.208"/>
      <polygon class="cls-17" points="120.25 33.722 119.945 34.094 120.512 34.136 120.58 33.747 120.25 33.722"/>
      <path class="cls-15" d="M120.7041,49.42c.0293-.0368.0593-.0728.0885-.11.1944-.2469.3876-.4952.574-.7509l.0148-.02c.0383-.052.0751-.1055.113-.1578V48.38l-.0085.0123-.0338-13.3757-1.0328-.0846-.4572,2.7513v-.0085l.4572-2.7428-.0254-.0086.1184-.7872-.5671-.0424.0169,3.5641v.0084l-.8211,5.181-1.2433,7.8484-.0012.0077,1.6008.1341c.0911-.1.1834-.1984.2734-.3q.3058-.3462.6017-.7058Q120.54,49.6277,120.7041,49.42Z"/>
      <polygon class="cls-16" points="122.552 33.916 122.546 33.883 122.51 33.705 122.358 33.899 122.552 33.916"/>
      <polygon class="cls-17" points="122.552 33.916 122.358 33.899 122.053 34.272 122.654 34.323 122.928 33.987 122.959 33.95 122.931 33.948 122.561 33.916 122.552 33.916"/>
      <polygon class="cls-15" points="122.053 34.272 122.079 42.236 122.079 42.238 122.079 42.236 122.654 34.323 122.053 34.272"/>
      <path class="cls-16" d="M122.8573,35.3725l.1017-1.4223-.0306.0384-.2657.3341-.5747,7.9013-.0092.0116,0,.0025v-.0022l-.0085.0106-.0169-7.9746-.6011.745.0338,13.3757.0085-.0123a31.1506,31.1506,0,0,0,2.9545-5.0078l-.0169-.0762-.0068-.0336L122.8523,35.44Z"/>
      <polygon class="cls-18" points="122.358 33.899 122.51 33.705 122.519 33.696 121.74 29.861 121.444 30.234 121.452 35.017 122.053 34.272 122.358 33.899"/>
      <polygon class="cls-19" points="121.139 30.208 120.58 33.747 120.512 34.136 120.394 34.924 120.419 34.932 121.452 35.017 121.444 30.234 121.139 30.208"/>
      <path class="cls-17" d="M115.7546,40.9513v.2794l-.0012.0007a2.5828,2.5828,0,0,1-1.1915,1.6548c-.0986.0708-.2008.1374-.3056.1984-.83.4826-1.4984.4233-1.5069-.1269l.0085-.271-.8975,1.1175,2.4044.2032,2.3957-2.98Z"/>
      <path class="cls-16" d="M112.6526,55.9717q.2515-.1088.5049-.23c.1083-.0519.2166-.1042.3256-.16.0514-.0261.103-.0538.1543-.08q.2018-.1044.4048-.2174c.0713-.04.1424-.0777.2141-.1195.2674-.1533.5323-.3205.7962-.4913q.1643-.1065.3271-.2175.2833-.1921.5624-.3967c.0615-.0448.1234-.0878.1845-.1335l-1.8617-9.9187-1.811,12.05C112.52,56.03,112.5863,56,112.6526,55.9717Z"/>
      <path class="cls-20" d="M117.0406,45.3524l-.0014-.0171-.1416-1.65-.0157.0067c-.0148.0062-.0311.0125-.0436.0187l-1.4476.8381a.4573.4573,0,0,1-.1544.0575.252.252,0,0,1-.3028-.176,1.0147,1.0147,0,0,1,.4488-.9735.3741.3741,0,0,1,.2878-.0593v-.0254a.5855.5855,0,0,1,.0193-.0941l.0036-.0178a.66.66,0,0,1,.0818-.2l0-.0005a.6469.6469,0,0,1,.0558-.0942.592.592,0,0,1,.1439-.1185.3483.3483,0,0,1,.0718-.0247.1931.1931,0,0,1,.1061-.0094,1.9344,1.9344,0,0,1,.584-.9394l.0078-.0065-.084-.84-2.3957,2.98,1.8706,9.9122.0195-.014c.2392-.178.4747-.3638.7078-.5542.1161-.0949.2307-.1936.3455-.2914.0917-.0778.1836-.1552.2747-.2343.0619-.0544.1227-.1115.1844-.1668l-.6258-7.297Z"/>
      <path class="cls-15" d="M111.598,47.3259l-.6767,9.2549c.04-.0107.0792-.0188.1193-.03.0857-.0241.1726-.0526.2589-.0789q.3339-.1015.6744-.2276c.129-.0477.2576-.0938.3886-.1474.03-.0123.061-.0269.0913-.0395l1.811-12.05-2.4128-.2032Z"/>
      <path class="cls-19" d="M115.5248,41.3536l-.0071.0041a3.6365,3.6365,0,0,1-1.2614,1.1852,1.9936,1.9936,0,0,1-1.0253.3211.64.64,0,0,1-.2362-.05.3774.3774,0,0,1-.2369-.364v.4995c0,.55.6772.6011,1.5069.127.102-.0583.2012-.1221.2971-.19a2.5828,2.5828,0,0,0,1.1915-1.6548l.0012-.0007v-.508A1.3581,1.3581,0,0,1,115.5248,41.3536Z"/>
      <path class="cls-18" d="M112.9948,42.8137a.64.64,0,0,0,.2362.05,1.9936,1.9936,0,0,0,1.0253-.3211,3.6365,3.6365,0,0,0,1.2614-1.1852,1.3692,1.3692,0,0,0,.2369-.6435V40.68c0-.5418-.6772-.6011-1.4983-.127l-.0086.0055a3.9919,3.9919,0,0,0-.8326.6536,2.0016,2.0016,0,0,0-.6572,1.2033V42.45A.3859.3859,0,0,0,112.9948,42.8137Z"/>
      <path class="cls-19" d="M113.4013,33.6285l.0026.007c.0068.0764.1035.0834.2259.01a.43.43,0,0,0,.2258-.2609l.0028-.01-.2286.127-.0587.0326-.1614.09Z"/>
      <path class="cls-19" d="M113.41,33.6236l.44-.2575-.0085-1.6424-.0082-2.4838a.5053.5053,0,0,1-.2034.1981.2406.2406,0,0,1-.18.0446.0884.0884,0,0,1-.0485-.0143l-.0084-.0048.0083,2.819v1.346Z"/>
      <path class="cls-19" d="M113.3759,29.4211a.0564.0564,0,0,0,.0171.0424l0-.0594C113.3928,29.4127,113.3928,29.4127,113.3759,29.4211Z"/>
      <path class="cls-18" d="M113.45,29.4826a.2406.2406,0,0,0,.18-.0446.5053.5053,0,0,0,.2034-.1981.2034.2034,0,0,0,.0168-.0483.1625.1625,0,0,0,.0084-.0329V29.15c-.0254-.0762-.1186-.0762-.2371-.0085a.4446.4446,0,0,0-.22.2624v.017h0A.06.06,0,0,0,113.45,29.4826Z"/>
      <path class="cls-19" d="M114.6711,27.8888v-.0169c0,.0085,0,.0085-.0084.0085,0,.009.0057.0139.0085.021v-.0125Z"/>
      <path class="cls-19" d="M114.6711,32.0878a.0613.0613,0,0,0,.0262.0524l.0084.0034a.0775.0775,0,0,0,.0341.0127.2977.2977,0,0,0,.16-.0516.3973.3973,0,0,0,.2246-.2556l.004-.0153v-.5l-.0085-3.675a.4475.4475,0,0,1-.22.2464c-.1029.0617-.186.0653-.215.0205a.0527.0527,0,0,1-.0135-.0248l.0084,3.3991v.7825Z"/>
      <path class="cls-18" d="M114.6712,27.8889a.0639.0639,0,0,0,.0135.0373c.029.0448.1121.0412.215-.0205a.4475.4475,0,0,0,.22-.2464.163.163,0,0,0,.0085-.0329v-.0085a.0761.0761,0,0,0-.0833-.0578.322.322,0,0,0-.1538.0494.4446.4446,0,0,0-.22.2624v.0169Z"/>
      <path class="cls-16" d="M107.0435,43.7873l-.601.745.0338,12.0784.0282.0092c.1863.0557.3793.1049.5729.1452l-.0339-11.7842Z"/>
      <path class="cls-15" d="M107.6446,43.8381l-.6011-.0508v1.1936l.0339,11.7842c.0568.0124.1154.022.1733.0327l.028.0053c.0577.01.1159.019.1743.0277l.0485.0059c.059.0076.1178.0166.177.0215Z"/>
      <polygon class="cls-18" points="107.645 43.838 109.744 41.231 107.331 38.234 107.027 38.606 107.645 43.838"/>
      <polygon class="cls-19" points="106.73 38.581 106.73 38.582 104.335 44.354 106.443 44.532 107.027 38.606 106.73 38.581"/>
      <path class="cls-16" d="M109.778,55.9778l-.0169-6.3746v-.0255l-.017-8.347-2.1,2.6074.0339,13.02v.0058c.0356.0041.0723.0054.1081.009.0251.0025.0507.004.0759.0063.1322.0117.2646.0225.3987.0271.0055,0,.0113,0,.0168,0,.08.0027.1616.0025.2427.0027.1159,0,.2328-.0016.3507-.006l.027-.0015c.0466-.0023.0934-.0053.14-.0082Z"/>
      <path class="cls-15" d="M105.8373,56.3751q.07.03.1412.0588.2159.0868.44.1581l.0577.0187-.0338-12.0784-2.108-.1778.034,11.1238c.0151.0125.0315.0227.0467.035.138.1116.2787.2182.4238.3167l.0244.0166c.0228.0154.0473.0276.07.0426.1283.0837.2585.164.3926.2375l0,0,.0027.0016c.038.0208.0769.04.1153.06l.0069.0032h0C105.5779,56.2569,105.7062,56.3186,105.8373,56.3751Z"/>
      <polygon class="cls-17" points="107.645 43.838 107.027 38.606 106.443 44.532 107.043 43.787 107.645 43.838"/>
      <polygon class="cls-17" points="107.027 38.606 107.331 38.234 107.027 38.208 107.026 38.209 106.73 38.581 107.027 38.606"/>
      <path class="cls-21" d="M116.83,43.7111c.0147-.0074.0354-.0148.0519-.0222l.0074-.0032.0508-.0254c.0338-.0169.0678-.0423.11-.0677l.7365-.4233c.0085,0,.0085-.0085.0169-.0085a1.0084,1.0084,0,0,0,.4063-.4994.7512.7512,0,0,0,.0448-.4553.3185.3185,0,0,0-.0167-.0386.352.352,0,0,0-.0281-.0649l-.0076-.0067a.2955.2955,0,0,0-.3987-.0272c-.0084,0-.0084.0085-.0169.0085v.0085l-.0085.0085-.003-.0139a.5151.5151,0,0,0-.2494-.4078.5636.5636,0,0,0-.4926.0153.368.368,0,0,0-.1016.0423,1.0981,1.0981,0,0,0-.1869.1375l-.0078.0065a1.9344,1.9344,0,0,0-.584.9394v0a.2625.2625,0,0,0-.106.0092.3483.3483,0,0,0-.0718.0247.592.592,0,0,0-.1439.1185.6469.6469,0,0,0-.0558.0942l0,.0005a.66.66,0,0,0-.0818.2l-.0036.0178a.5855.5855,0,0,0-.0193.0941v.0254a.3741.3741,0,0,0-.2878.0593,1.0147,1.0147,0,0,0-.4488.9735.252.252,0,0,0,.3028.176.4747.4747,0,0,0,.146-.0575Z"/>
      <path class="cls-21" d="M116.6352,33.0359l-.1016.0508a1.382,1.382,0,0,0-.6221,1.0222c-.0009.0163-.004.0331-.0041.0492l0,.0037a.67.67,0,0,0,.008.119l.0005.008a.8821.8821,0,0,0-.3888.6892l-.0007.005a.35.35,0,0,0,.0127.0553.3547.3547,0,0,0,.0222.0963c.0628.129.2029.1647.363.0685a.0083.0083,0,0,0,.0085-.0084l.7027-.4064h0l1.0243-.5926c.0085,0,.0085-.0084.0169-.0084a.9168.9168,0,0,0,.3471-.4233.5915.5915,0,0,0,.0344-.4012c-.0021-.0075-.0067-.0127-.0093-.02a.259.259,0,0,0-.0251-.053l-.0006-.0005c-.0762-.101-.2029-.1094-.3465-.0249-.0084,0-.0084.0085-.0169.0085a.6788.6788,0,0,0-.2455.2455c-.034-.1016-.1355-.1185-.2455-.0593v-.0339a.5734.5734,0,0,0-.052-.2352A.346.346,0,0,0,116.6352,33.0359Z"/>
      <path class="cls-21" d="M110.0742,36.9978a.0768.0768,0,0,0-.0592.0254,1.0248,1.0248,0,0,0-.4318.5926.1365.1365,0,0,0-.0761.0254.2751.2751,0,0,0-.0763.0677.3556.3556,0,0,0-.0931.1863l-.0507.0254a.579.579,0,0,0-.2456.4487.2484.2484,0,0,0,.0177.0935c.0357.09.1253.12.2363.0673l.6687-.3894c.017-.0085.0424-.0169.0594-.0254a.2588.2588,0,0,0,.0592-.0423l.55-.3217a.579.579,0,0,0,.2455-.4487.2294.2294,0,0,0-.0262-.11c-.04-.0755-.1244-.099-.2278-.05l-.1439.0846c-.001-.0072-.0047-.0114-.0061-.0184a.3962.3962,0,0,0-.0385-.1164A.2566.2566,0,0,0,110.0742,36.9978Z"/>
    </g>
  </g>
</svg>
