<svg id="Layer_1" data-name="Layer 1" xmlns="http://www.w3.org/2000/svg" viewBox="0 0 220 202.0727">
  <defs>
    <style>
      .exterior-L-prim {
        fill: #73302e;
      }

      .curtain-R-prim-light {
        fill: #59acd0;
      }

      .curtain-L-prim-light {
        fill: #438fb0;
      }

      .curtain-R-prim-dark-light {
        fill: #4d90ad;
      }

      .curtain-L-prim-dark-light {
        fill: #426a7a;
      }

      .curtain-R-prim-dark {
        fill: #3e809c;
      }

      .curtain-R-prim-light-dark {
        fill: #3999c1;
      }

      .curtain-L-prim-light-dark {
        fill: #467e97;
      }

      .curtain-L-prim-dark {
        fill: #2f5565;
      }

      .exterior-L-dark {
        fill: #512220;
      }

      .exterior-R-prim {
        fill: #d05752;
      }

      .cls-1 {
        fill: #e8e8e8;
      }

      .top-prim {
        fill: #dd8a87;
      }

      .cls-2 {
        fill: #a2a2a2;
      }

      .cls-3 {
        fill: #4a4a4a;
      }

      .cls-4 {
        fill: #d1d1d1;
      }

      .cls-5 {
        fill: #d0d0d0;
      }

      .cls-6 {
        fill: #6c6c6c;
      }

      .cls-7 {
        fill: #fff;
      }

      .cls-8 {
        fill: #f8c706;
      }

      .cls-9 {
        fill: #fa3312;
      }

      .cls-10 {
        fill: #01953a;
      }

      .cls-11 {
        fill: #940b03;
      }
    </style>
  </defs>
  <title>Artboard 34</title>
  <g id="root">
    <g id="Group">
      <path id="Path" class="exterior-L-prim" d="M0,132.7906v5.7735l110,63.5086v-5.7736Z"/>
      <path id="Path-2" data-name="Path" class="curtain-R-prim-light" d="M110,196.2991v-69.282L220,63.5086v69.282Z"/>
      <path id="Path-3" data-name="Path" class="curtain-L-prim-light" d="M110,196.2991v-69.282L0,63.5086v69.282Z"/>
      <path id="Path-4" data-name="Path" class="curtain-R-prim-dark-light" d="M110,150.1111,220,86.6026v23.094L110,173.2051Z"/>
      <path id="Path-5" data-name="Path" class="curtain-L-prim-dark-light" d="M110,150.1111,0,86.6026v23.094l110,63.5085Z"/>
      <path id="Path-6" data-name="Path" class="curtain-R-prim-dark" d="M25,112.5833l-5-2.8867v17.32l5,2.8867Z"/>
      <path id="Path-7" data-name="Path" class="curtain-R-prim-dark" d="M15,106.81l-5-2.8867v17.32l5,2.8868Z"/>
      <path id="Path-8" data-name="Path" class="curtain-R-prim-light-dark" d="M110,173.2051l5-2.8867v23.094l-5,2.8868Z"/>
      <path id="Path-9" data-name="Path" class="curtain-R-prim-light-dark" d="M150,150.1111l5-2.8867v23.094l-5,2.8867Z"/>
      <path id="Path-10" data-name="Path" class="curtain-R-prim-light-dark" d="M190,127.0171l5-2.8867v23.094l-5,2.8867Z"/>
      <path id="Path-11" data-name="Path" class="curtain-R-prim-light-dark" d="M130,161.6581l5-2.8867v23.094l-5,2.8867Z"/>
      <path id="Path-12" data-name="Path" class="curtain-R-prim-light-dark" d="M170,138.5641l5-2.8868v23.0941l-5,2.8867Z"/>
      <path id="Path-13" data-name="Path" class="curtain-R-prim-light-dark" d="M210,115.47l5-2.8868v23.0941l-5,2.8867Z"/>
      <path id="Path-14" data-name="Path" class="curtain-R-prim-light-dark" d="M120,167.4316l5-2.8867v23.094l-5,2.8868Z"/>
      <path id="Path-15" data-name="Path" class="curtain-R-prim-light-dark" d="M160,144.3376l5-2.8867v23.094l-5,2.8867Z"/>
      <path id="Path-16" data-name="Path" class="curtain-R-prim-light-dark" d="M200,121.2436l5-2.8867v23.094l-5,2.8867Z"/>
      <path id="Path-17" data-name="Path" class="curtain-R-prim-light-dark" d="M140,155.8846l5-2.8867v23.094l-5,2.8868Z"/>
      <path id="Path-18" data-name="Path" class="curtain-R-prim-light-dark" d="M180,132.7906l5-2.8867v23.094l-5,2.8867Z"/>
      <path id="Path-19" data-name="Path" class="curtain-L-prim-light-dark" d="M110,173.2051l-5-2.8867v23.094l5,2.8868Z"/>
      <path id="Path-20" data-name="Path" class="curtain-L-prim-light-dark" d="M70,150.1111l-5-2.8867v23.094l5,2.8867Z"/>
      <path id="Path-21" data-name="Path" class="curtain-L-prim-light-dark" d="M30,127.0171,25,124.13v23.094l5,2.8867Z"/>
      <path id="Path-22" data-name="Path" class="curtain-L-prim-light-dark" d="M90,161.6581l-5-2.8867v23.094l5,2.8867Z"/>
      <path id="Path-23" data-name="Path" class="curtain-L-prim-light-dark" d="M50,138.5641l-5-2.8868v23.0941l5,2.8867Z"/>
      <path id="Path-24" data-name="Path" class="curtain-L-prim-light-dark" d="M10,115.47l-5-2.8868v23.0941l5,2.8867Z"/>
      <path id="Path-25" data-name="Path" class="curtain-L-prim-light-dark" d="M100,167.4316l-5-2.8867v23.094l5,2.8868Z"/>
      <path id="Path-26" data-name="Path" class="curtain-L-prim-light-dark" d="M60,144.3376l-5-2.8867v23.094l5,2.8867Z"/>
      <path id="Path-27" data-name="Path" class="curtain-L-prim-light-dark" d="M20,121.2436l-5-2.8867v23.094l5,2.8867Z"/>
      <path id="Path-28" data-name="Path" class="curtain-L-prim-light-dark" d="M80,155.8846l-5-2.8867v23.094l5,2.8868Z"/>
      <path id="Path-29" data-name="Path" class="curtain-L-prim-light-dark" d="M40,132.7906l-5-2.8867v23.094l5,2.8867Z"/>
      <path id="Path-30" data-name="Path" class="curtain-R-prim-light-dark" d="M110,127.0171l5-2.8867v23.094l-5,2.8867Z"/>
      <path id="Path-31" data-name="Path" class="curtain-R-prim-light-dark" d="M150,103.923l5-2.8867V124.13l-5,2.8867Z"/>
      <path id="Path-32" data-name="Path" class="curtain-R-prim-light-dark" d="M190,80.8291l5-2.8868v23.0941l-5,2.8867Z"/>
      <path id="Path-33" data-name="Path" class="curtain-R-prim-light-dark" d="M130,115.47l5-2.8868v23.0941l-5,2.8867Z"/>
      <path id="Path-34" data-name="Path" class="curtain-R-prim-light-dark" d="M170,92.376l5-2.8867v23.0941l-5,2.8867Z"/>
      <path id="Path-35" data-name="Path" class="curtain-R-prim-light-dark" d="M210,69.282l5-2.8867V89.4894l-5,2.8867Z"/>
      <path id="Path-36" data-name="Path" class="curtain-R-prim-light-dark" d="M120,121.2436l5-2.8867v23.094l-5,2.8867Z"/>
      <path id="Path-37" data-name="Path" class="curtain-R-prim-light-dark" d="M160,98.15l5-2.8868v23.0941l-5,2.8867Z"/>
      <path id="Path-38" data-name="Path" class="curtain-R-prim-light-dark" d="M200,75.0556l5-2.8868V95.2629L200,98.15Z"/>
      <path id="Path-39" data-name="Path" class="curtain-R-prim-light-dark" d="M140,109.6966l5-2.8867v23.094l-5,2.8867Z"/>
      <path id="Path-40" data-name="Path" class="curtain-R-prim-light-dark" d="M180,86.6026l5-2.8868V106.81l-5,2.8867Z"/>
      <path id="Path-41" data-name="Path" class="curtain-L-prim-light-dark" d="M110,127.0171l-5-2.8867v23.094l5,2.8867Z"/>
      <path id="Path-42" data-name="Path" class="curtain-L-prim-light-dark" d="M70,103.923l-5-2.8867V124.13l5,2.8867Z"/>
      <path id="Path-43" data-name="Path" class="curtain-L-prim-light-dark" d="M30,80.8291l-5-2.8868v23.0941l5,2.8867Z"/>
      <path id="Path-44" data-name="Path" class="curtain-L-prim-light-dark" d="M90,115.47l-5-2.8868v23.0941l5,2.8867Z"/>
      <path id="Path-45" data-name="Path" class="curtain-L-prim-light-dark" d="M50,92.376l-5-2.8867v23.0941l5,2.8867Z"/>
      <path id="Path-46" data-name="Path" class="curtain-L-prim-light-dark" d="M10,69.282,5,66.3953V89.4894l5,2.8867Z"/>
      <path id="Path-47" data-name="Path" class="curtain-L-prim-light-dark" d="M100,121.2436l-5-2.8867v23.094l5,2.8867Z"/>
      <path id="Path-48" data-name="Path" class="curtain-L-prim-light-dark" d="M60,98.15l-5-2.8868v23.0941l5,2.8867Z"/>
      <path id="Path-49" data-name="Path" class="curtain-L-prim-light-dark" d="M20,75.0556l-5-2.8868V95.2629L20,98.15Z"/>
      <path id="Path-50" data-name="Path" class="curtain-L-prim-light-dark" d="M80,109.6966,75,106.81v23.094l5,2.8867Z"/>
      <path id="Path-51" data-name="Path" class="curtain-L-prim-light-dark" d="M40,86.6026l-5-2.8868V106.81l5,2.8867Z"/>
      <path id="Path-52" data-name="Path" class="curtain-R-prim-dark" d="M115,147.2243l5-2.8867v23.0941l-5,2.8867Z"/>
      <path id="Path-53" data-name="Path" class="curtain-R-prim-dark" d="M155,124.13l5-2.8867v23.094l-5,2.8868Z"/>
      <path id="Path-54" data-name="Path" class="curtain-R-prim-dark" d="M195,101.0363l5-2.8867v23.094l-5,2.8868Z"/>
      <path id="Path-55" data-name="Path" class="curtain-R-prim-dark" d="M135,135.6773l5-2.8867v23.0941l-5,2.8867Z"/>
      <path id="Path-56" data-name="Path" class="curtain-R-prim-dark" d="M175,112.5833l5-2.8867v23.094l-5,2.8868Z"/>
      <path id="Path-57" data-name="Path" class="curtain-R-prim-dark" d="M215,89.4893l5-2.8867v23.094l-5,2.8868Z"/>
      <path id="Path-58" data-name="Path" class="curtain-R-prim-dark" d="M125,141.4509l5-2.8868v23.0941l-5,2.8867Z"/>
      <path id="Path-59" data-name="Path" class="curtain-R-prim-dark" d="M165,118.3568l5-2.8867v23.0941l-5,2.8867Z"/>
      <path id="Path-60" data-name="Path" class="curtain-R-prim-dark" d="M205,95.2628l5-2.8867V115.47l-5,2.8867Z"/>
      <path id="Path-61" data-name="Path" class="curtain-R-prim-dark" d="M145,129.9038l5-2.8867v23.0941l-5,2.8867Z"/>
      <path id="Path-62" data-name="Path" class="curtain-R-prim-dark" d="M185,106.81l5-2.8867v23.0941l-5,2.8867Z"/>
      <path id="Path-63" data-name="Path" class="curtain-L-prim-dark" d="M105,147.2243l-5-2.8867v23.0941l5,2.8867Z"/>
      <path id="Path-64" data-name="Path" class="curtain-L-prim-dark" d="M65,124.13l-5-2.8867v23.094l5,2.8868Z"/>
      <path id="Path-65" data-name="Path" class="curtain-L-prim-dark" d="M25,101.0363,20,98.15v23.094l5,2.8868Z"/>
      <path id="Path-66" data-name="Path" class="curtain-L-prim-dark" d="M85,135.6773l-5-2.8867v23.0941l5,2.8867Z"/>
      <path id="Path-67" data-name="Path" class="curtain-L-prim-dark" d="M45,112.5833l-5-2.8867v23.094l5,2.8868Z"/>
      <path id="Path-68" data-name="Path" class="curtain-L-prim-dark" d="M5,89.4893,0,86.6026v23.094l5,2.8868Z"/>
      <path id="Path-69" data-name="Path" class="curtain-L-prim-dark" d="M95,141.4509l-5-2.8868v23.0941l5,2.8867Z"/>
      <path id="Path-70" data-name="Path" class="curtain-L-prim-dark" d="M55,118.3568,50,115.47v23.0941l5,2.8867Z"/>
      <path id="Path-71" data-name="Path" class="curtain-L-prim-dark" d="M15,95.2628l-5-2.8867V115.47l5,2.8867Z"/>
      <path id="Path-72" data-name="Path" class="curtain-L-prim-dark" d="M75,129.9038l-5-2.8867v23.0941l5,2.8867Z"/>
      <path id="Path-73" data-name="Path" class="curtain-L-prim-dark" d="M35,106.81l-5-2.8867v23.0941l5,2.8867Z"/>
      <path id="Path-74" data-name="Path" class="curtain-R-prim-dark" d="M35,118.3568,30,115.47v17.3205l5,2.8868Z"/>
      <path id="Path-75" data-name="Path" class="curtain-L-prim-light" d="M40,121.2436l-30-17.32v34.641l30,17.3205Z"/>
      <path id="Path-76" data-name="Path" class="curtain-L-prim-light" d="M60,170.3184V150.1111l10,5.7735v20.2073Z"/>
      <path id="Path-77" data-name="Path" class="exterior-L-dark" d="M12.5,145.781l-5-2.8867V102.48l5,2.8868Z"/>
      <path id="Path-78" data-name="Path" class="exterior-L-dark" d="M62.5,174.6485,60,173.2052V150.1111l2.5,1.4434Z"/>
      <path id="Path-79" data-name="Path" class="exterior-L-dark" d="M70,178.9786l-2.5-1.4434V154.4413l2.5,1.4434Z"/>
      <path id="Path-80" data-name="Path" class="exterior-L-dark" d="M37.5,160.2148l5,2.8867V122.687l-5-2.8868Z"/>
      <path id="Path-81" data-name="Path" class="exterior-R-prim" d="M12.5,145.781,25,138.5641V118.3568L12.5,111.14Z"/>
      <path id="Path-82" data-name="Path" class="curtain-R-prim-dark" d="M21.25,120.5219l-5,2.8868V113.305l5-2.8867Z"/>
      <path id="Path-83" data-name="Path" class="curtain-R-prim-dark" d="M21.25,136.3991l-5,2.8867V124.8521l5-2.8868Z"/>
      <path id="Path-84" data-name="Path" class="curtain-L-prim-dark" d="M30,125.5737l-5-2.8867v15.8771l5,2.8868Z"/>
      <path id="Path-85" data-name="Path" class="curtain-L-prim-dark-light" d="M35,128.46l-5-2.8867v15.8772l5,2.8867Z"/>
      <path id="Path-86" data-name="Path" class="curtain-L-prim-dark" d="M37.5,129.9038,35,128.4605v15.8771l2.5,1.4434Z"/>
      <path id="Path-87" data-name="Path" class="exterior-L-dark" d="M10,109.6966l30,17.32v-5.7735l-30-17.32Z"/>
      <path id="Path-88" data-name="Path" class="exterior-L-dark" d="M60,152.9979l10,5.7735v-2.8868l-10-5.7735Z"/>
      <path id="Path-89" data-name="Path" class="cls-1" d="M10,147.2243l15-8.66,12.5,7.2169v17.32Z"/>
      <path id="Path-90" data-name="Path" class="exterior-R-prim" d="M62.5,174.6485l2.5-1.4434v-17.32l-2.5-1.4433Z"/>
      <path id="Path-91" data-name="Path" class="cls-1" d="M60,176.0919l5-2.8868,2.5,1.4434v5.7735Z"/>
      <path id="Path-92" data-name="Path" class="exterior-R-prim" d="M110,202.0727l110-63.5086v-5.7735L110,196.2991Z"/>
      <path id="anchor_30_127.017_220" class="top-prim" d="M0,63.5086l110,63.5085L220,63.5086,110,0Z"/>
    </g>
    <g id="Group-2" data-name="Group">
      <g id="Group-3" data-name="Group">
        <path id="Path-93" data-name="Path" class="cls-2" d="M170,122.8365l1.7263.9971v33.8879L170,156.7244Z"/>
        <path id="Path-94" data-name="Path" class="cls-3" d="M172.59,153.2358l-.8632.4986L170,152.7379v3.9865l1.7263.9971.8632-.4986Z"/>
        <path id="Path-95" data-name="Path" class="cls-3" d="M172.59,123.335v2.99l-.8632.4985L170,125.8271v-2.9906l1.7263.9971Z"/>
        <path id="Path-96" data-name="Path" class="cls-4" d="M173.4527,120.8436l-1.7264,2.99v33.8879l44.8847-25.9143V97.9193l-1.7263-.9966Z"/>
        <path id="Path-97" data-name="Path" class="cls-5" d="M170,122.8371l1.7263.9965L216.611,97.9193l-1.7263-.9966Z"/>
      </g>
      <g id="Group-4" data-name="Group">
        <path id="Path-98" data-name="Path" class="cls-6" d="M216.611,125.8271l-44.8847,25.9136v5.9808l44.8847-25.9143Z"/>
        <path id="Path-99" data-name="Path" class="cls-6" d="M216.611,97.9193v5.98l-44.8847,25.9144v-5.98Z"/>
        <path id="Path-100" data-name="Path" d="M216.611,100.9092l-44.8847,25.9143v26.9109l44.8847-25.9137Z"/>
        <g id="Group-5" data-name="Group">
          <path id="Path-101" data-name="Path" class="cls-7" d="M211.83,108.8586c0-.0876-.0228-.1028-.1-.0566l-.0745.0442v.6318c.025-.0172.05-.0344.0745-.0524a.1938.1938,0,0,0,.1-.1865Z"/>
          <path id="Path-102" data-name="Path" class="cls-7" d="M211.825,108.3477v-.3446c0-.0877-.023-.1063-.0995-.0725l-.07.0317v.5952c.0234-.013.0471-.0255.07-.0386A.1629.1629,0,0,0,211.825,108.3477Z"/>
          <path id="Path-103" data-name="Path" class="cls-7" d="M213.6176,107.2587c-.03.252-.0408.2983-.0705.5614.0738-.0477.0829-.0574.1568-.1043-.03-.212-.0415-.241-.0705-.464Z"/>
          <path id="Compound_Path" data-name="Compound Path" class="cls-7" d="M212.9823,105.9846a3.7291,3.7291,0,0,0-.8722.7154,4.3715,4.3715,0,0,0-.6781.9806l.393-.15c.3245-.1229.3921-.0277.3921.2852v.2679a.4712.4712,0,0,1-.1483.357v.0228c.1193-.0069.1642.0621.1642.203v.3025a.803.803,0,0,1-.4033.7457l-.3051.2355a1.0666,1.0666,0,0,0,.7672.1078,2.4437,2.4437,0,0,0,.9377-.4282,4.1,4.1,0,0,0,.877-.8577,4.1417,4.1417,0,0,0,.5993-1.0758,2.5452,2.5452,0,0,0,.1747-1.0289,1.105,1.105,0,0,0-.2934-.7285.909.909,0,0,0-.6892-.2479,1.9929,1.9929,0,0,0-.9156.2941Zm-.018,1.5068v1.3479c-.1347.1036-.2686.2079-.4033.3114v-1.4791c-.089.04-.1775.0794-.2665.1188v-.4413l.9363-.359v.3825C213.1418,107.412,213.0533,107.4514,212.9643,107.4914Zm.83.6905c-.01-.0711-.02-.0863-.031-.1595l-.2754.1941c-.01.0939-.0208.1312-.0312.2265l-.2844.2188.2748-1.729.3639-.1416.2521,1.1835Z"/>
        </g>
        <path id="Compound_Path-2" data-name="Compound Path" class="cls-7" d="M176.1258,135.1121a1.9582,1.9582,0,0,0,.5931-1.3294c0-.6332-.46-.9135-1.386-.379l-1.586.9156a.1931.1931,0,0,0-.1.1581v4.465c0,.06.04.0767.1.0422l1.586-.9157a2.8019,2.8019,0,0,0,1.7194-2.3388C177.0523,135.1238,176.6187,134.9539,176.1258,135.1121Zm-.2666-.72a1.0667,1.0667,0,0,1-.6133.9l-.6863.3963v-1.033l.6863-.3964C175.6126,134.0486,175.8592,134.04,175.8592,134.3925Zm-.5,2.8547-.8.4619v-1.2664l.8-.462c.4869-.281.78-.2437.78.1761A1.31,1.31,0,0,1,175.3592,137.2472Zm3.7593-1.2768a3.4965,3.4965,0,0,0,1.6925-2.69c0-.96-.7527-1.2781-1.6925-.7354a3.4963,3.4963,0,0,0-1.6932,2.69C177.4253,136.1941,178.1787,136.5124,179.1185,135.97Zm0-.8135c-.4737.2734-.8466.1153-.8466-.4108a1.744,1.744,0,0,1,.8466-1.3887c.466-.2693.8458-.1153.8458.4108A1.756,1.756,0,0,1,179.1185,135.1569Zm5.1182-5.4945-.6794.3929a.1916.1916,0,0,0-.1.1574v1.8065a1.4581,1.4581,0,0,1-.7063,1.0406c-.3136.1809-.6272.1754-.6272-.3646v-1.7125c0-.06-.0393-.0774-.0993-.0428l-.68.3929a.1911.1911,0,0,0-.1.1574v1.8728c0,.8727.5063,1.0868,1.24.6642a2.66,2.66,0,0,0,.9729-1.1152l.0262.3508c.0069.0566.04.0773.1.0428l.6533-.377a.1937.1937,0,0,0,.1-.1581v-3.0654C184.3368,129.6451,184.2969,129.6278,184.2367,129.6624Zm2.6122-1.5814a2.6389,2.6389,0,0,0-1.0329,1.2029v-.0069l-.0263-.4108c-.0069-.0567-.04-.0773-.1-.0422l-.6533.3771a.192.192,0,0,0-.1.1574v3.066c0,.06.04.0766.1.0421l.68-.3929a.1914.1914,0,0,0,.1-.1575v-1.7856a1.62,1.62,0,0,1,.72-1.0559c.32-.1844.6132-.1671.6132.3729v1.6994c0,.06.04.0767.0994.0421l.68-.3929a.1919.1919,0,0,0,.1-.1574v-1.86C188.0291,127.9063,187.516,127.6964,186.8489,128.081Zm4.9858-4.4042-.68.3922a.1923.1923,0,0,0-.1.1575v1.8527a.9983.9983,0,0,0-.946.12,3.3078,3.3078,0,0,0-1.5793,2.6246c0,.9529.6664,1.328,1.5793.801a2.7583,2.7583,0,0,0,.9861-1.0358l.0268.2646c.0069.0558.04.0766.1.042l.6133-.3542a.1908.1908,0,0,0,.0993-.1574v-4.6653C191.934,123.6588,191.8948,123.6416,191.8347,123.6768Zm-1.62,5.0872c-.486.28-.8395.0911-.8395-.4351a1.7318,1.7318,0,0,1,.8395-1.3914c.48-.2769.8335-.0677.8335.4254A1.7919,1.7919,0,0,1,190.2146,128.764Zm2.7394-.7824a.99.99,0,0,0,.48-.7631c0-.2665-.2135-.3569-.48-.2029a.9918.9918,0,0,0-.486.7609C192.468,128.0493,192.6805,128.14,192.954,127.9816Zm-16.8282,1.1318a1.9551,1.9551,0,0,0,.5931-1.3286c0-.6333-.46-.9143-1.386-.3791l-1.586.9157a.1917.1917,0,0,0-.1.1573v4.4657c0,.06.04.0767.1.0422l1.586-.9157a2.8018,2.8018,0,0,0,1.7194-2.3388C177.0523,129.1251,176.6187,128.9553,176.1258,129.1134Zm-.2666-.7189a1.0675,1.0675,0,0,1-.6133.9l-.6863.3964v-1.0331l.6863-.3964C175.6126,128.0506,175.8592,128.041,175.8592,128.3945Zm-.5,2.8547-.8.4613v-1.2658l.8-.4619c.4869-.281.78-.2438.78.1761A1.31,1.31,0,0,1,175.3592,131.2492Zm4.3125-4.869a.6161.6161,0,0,0-.44.1009,2.0436,2.0436,0,0,0-.8334,1.0137l-.0263-.3446c-.0069-.0559-.04-.0766-.1-.0422l-.6464.3736a.1923.1923,0,0,0-.1.1575v3.066c0,.06.04.0766.1.0421l.68-.3923a.1941.1941,0,0,0,.1-.1581v-1.7326a1.3564,1.3564,0,0,1,.6794-1.0992,1.0407,1.0407,0,0,1,.2734-.1112.2011.2011,0,0,0,.1463-.1512l.2-.6084C179.7248,126.4362,179.7248,126.3893,179.6717,126.38Zm1.7926,2.2374a3.4968,3.4968,0,0,0,1.6924-2.69c0-.96-.7527-1.2782-1.6924-.7354a3.4962,3.4962,0,0,0-1.6926,2.69C179.7717,128.8413,180.5244,129.16,181.4643,128.6176Zm0-.8135c-.4731.2735-.8467.1154-.8467-.4108a1.7467,1.7467,0,0,1,.8467-1.3887c.4668-.2693.8464-.1154.8464.4116A1.7547,1.7547,0,0,1,181.4643,127.8041Zm3.7522-1.3527a3.4965,3.4965,0,0,0,1.6926-2.69c0-.96-.7527-1.2783-1.6926-.7355a3.4964,3.4964,0,0,0-1.6931,2.69C183.5234,126.6751,184.2768,126.9935,185.2165,126.4514Zm0-.8134c-.4729.2734-.8465.1153-.8465-.411a1.7459,1.7459,0,0,1,.8465-1.3886c.4662-.2693.8467-.1153.8467.4108A1.757,1.757,0,0,1,185.2165,125.638Zm5.4049-2.5143-1.3458-1.0151,1.1525-1.899c.06-.0946.0332-.1394-.0532-.089l-.7665.4426a.3147.3147,0,0,0-.12.1223l-1.1994,1.9859V119.825c0-.0594-.04-.0766-.1-.0421l-.68.3929a.1921.1921,0,0,0-.1.1575v4.6652c0,.06.04.0766.1.0422l.68-.3923a.1931.1931,0,0,0,.1-.1574v-.76l.453-.7416.9667.7223c.0332.0269.0663.0215.12-.01l.7325-.4233C190.6415,123.2321,190.6683,123.1638,190.6214,123.1237Zm.4267-4.891v4.6652c0,.0594.04.0766.1.0421l.6795-.3929a.192.192,0,0,0,.1-.1575v-4.6652c0-.06-.04-.0766-.1-.0421l-.6795.3922A.1931.1931,0,0,0,191.0481,118.2327Zm4.6321-1.1753-.7.4039a.27.27,0,0,0-.12.15l-.7927,2.617-.8-1.698c-.02-.0414-.0671-.0414-.12-.01l-.6864.3964c-.0733.0421-.107.1015-.08.1595l1.26,2.4314-.4731,1.42c-.0332.0926.0069.11.08.0669l.6664-.3846a.2688.2688,0,0,0,.12-.1491l1.7256-5.335C195.7866,117.036,195.7534,117.0152,195.68,117.0574Zm2.439-1.4812a2.6366,2.6366,0,0,0-1.033,1.2028v-.0068l-.0269-.4109c-.0063-.0566-.04-.0773-.1-.0421l-.6533.377a.192.192,0,0,0-.1.1574v3.066c0,.06.04.0767.1.0421l.68-.3929a.192.192,0,0,0,.1-.1574v-1.7857a1.6185,1.6185,0,0,1,.72-1.0559c.32-.1843.6131-.167.6131.3729v1.6994c0,.06.04.0767.1.0421l.68-.3929a.1922.1922,0,0,0,.1-.1574v-1.86C199.2986,115.4014,198.7856,115.1915,198.1192,115.5762Z"/>
        <g id="Group-6" data-name="Group">
          <path id="Path-104" data-name="Path" class="cls-8" d="M173.4527,149.442h0a3.2989,3.2989,0,0,1,1.4908-2.5826h0c.8232-.4751,1.4916-.0891,1.4916.8611h0a3.2976,3.2976,0,0,1-1.4916,2.5826h0C174.1211,150.7782,173.4527,150.3921,173.4527,149.442Z"/>
          <path id="Path-105" data-name="Path" class="cls-9" d="M173.4527,145.1379h0a3.2989,3.2989,0,0,1,1.4908-2.5826h0c.8232-.4751,1.4916-.089,1.4916.8611h0a3.2976,3.2976,0,0,1-1.4916,2.5826h0C174.1211,146.4741,173.4527,146.0881,173.4527,145.1379Z"/>
          <path id="Path-106" data-name="Path" class="cls-10" d="M177.18,147.29h0a3.2992,3.2992,0,0,1,1.4908-2.5826h0c.8233-.4751,1.4917-.09,1.4917.86h0a3.2976,3.2976,0,0,1-1.4917,2.5826h0C177.8486,148.6258,177.18,148.2405,177.18,147.29Z"/>
          <path id="Path-107" data-name="Path" class="cls-9" d="M177.18,142.9855h0a3.2992,3.2992,0,0,1,1.4908-2.5826h0c.8233-.4751,1.4917-.0891,1.4917.8611h0a3.2975,3.2975,0,0,1-1.4917,2.5826h0C177.8486,144.3217,177.18,143.9363,177.18,142.9855Z"/>
          <path id="Path-108" data-name="Path" class="cls-10" d="M180.9076,145.1379h0a3.2975,3.2975,0,0,1,1.4917-2.5826h0c.8223-.4751,1.4908-.089,1.4908.8611h0a3.2992,3.2992,0,0,1-1.4908,2.5826h0C181.576,146.4741,180.9076,146.0881,180.9076,145.1379Z"/>
          <path id="Path-109" data-name="Path" class="cls-11" d="M180.9076,140.8338h0a3.2976,3.2976,0,0,1,1.4917-2.5826h0c.8223-.475,1.4908-.09,1.4908.8611h0a3.2979,3.2979,0,0,1-1.4908,2.5819h0C181.576,142.1693,180.9076,141.784,180.9076,140.8338Z"/>
          <path id="Path-110" data-name="Path" class="cls-8" d="M184.6352,138.6814h0a3.2981,3.2981,0,0,1,1.4915-2.5826h0c.8224-.4751,1.4908-.0891,1.4908.8611h0a3.2988,3.2988,0,0,1-1.4908,2.5826h0C185.3037,140.0176,184.6352,139.6315,184.6352,138.6814Z"/>
        </g>
      </g>
    </g>
  </g>
</svg>
