<svg id="Layer_1" data-name="Layer 1" xmlns="http://www.w3.org/2000/svg" viewBox="0 0 170 193.4124">
  <defs>
    <style>
      .top-light {
        fill: #fac7c6;
      }

      .top-prim {
        fill: #dd8987;
      }

      .exterior-R-prim {
        fill: #d15752;
      }

      .exterior-L-prim {
        fill: #73302f;
      }

      .cls-1 {
        fill: #181818;
      }

      .cls-2 {
        fill: #010101;
      }

      .cls-3 {
        fill: #2e2e2e;
      }
    </style>
  </defs>
  <title>Artboard 22</title>
  <g id="Group">
    <path id="top-T1" class="top-light" d="M0,89.4893,87.5,38.9712l7.5,4.33L7.5,93.8194Z"/>
    <path id="top-T2" class="top-prim" d="M5,89.4893,87.5,41.8579l5,2.8868L10,92.3761Z"/>
    <path id="top-T1-2" data-name="top-T1" class="top-light" d="M85,51.9615,170,2.8868,165,0,80,49.0748Z"/>
    <path id="body-R2" class="exterior-R-prim" d="M85,193.4124l85-49.0748V2.8868L85,51.9615Z"/>
    <path id="body-L1" class="exterior-L-prim" d="M0,144.3376l85,49.0748V51.9615l-5-2.8867L5,92.3761,0,89.4893Z"/>
    <path id="Path" class="cls-1" d="M90,95.2627V150.111L165,106.81V51.9615Z"/>
    <path id="top-T1-3" data-name="top-T1" class="top-prim" d="M90,144.3375l70-40.4145,5,2.8867L90,150.111Z"/>
    <path id="body-L1-2" data-name="body-L1" class="exterior-L-prim" d="M160,54.8482V103.923l5,2.8867V51.9615Z"/>
    <path id="Path-2" data-name="Path" class="cls-2" d="M22.5,125.5737l40,23.094v5.7735l-40-23.094Z"/>
    <path id="top-T1-4" data-name="top-T1" class="top-prim" d="M22.5,128.46l40,23.0941v2.8867l-40-23.094Z"/>
    <path id="Path-3" data-name="Path" class="cls-3" d="M90,95.2627l2.5-1.4434v49.0748L90,144.3375Z"/>
    <path id="Path-4" data-name="Path" class="cls-3" d="M100,89.4892l2.5-1.4434v49.0748L100,138.564Z"/>
    <path id="Path-5" data-name="Path" class="cls-3" d="M110,83.7157l2.5-1.4433v49.0748l-2.5,1.4433Z"/>
    <path id="Path-6" data-name="Path" class="cls-3" d="M120,77.9422l2.5-1.4434v49.0748L120,127.017Z"/>
    <path id="Path-7" data-name="Path" class="cls-3" d="M130,72.1687l2.5-1.4434V119.8l-2.5,1.4434Z"/>
    <path id="Path-8" data-name="Path" class="cls-3" d="M140,66.3952l2.5-1.4434v49.0748L140,115.47Z"/>
    <path id="Path-9" data-name="Path" class="cls-3" d="M150,60.6217l2.5-1.4434v49.0748l-2.5,1.4434Z"/>
    <path id="Path-10" data-name="Path" class="cls-3" d="M95,92.376l2.5-1.4434v49.0748L95,141.4507Z"/>
    <path id="Path-11" data-name="Path" class="cls-3" d="M105,86.6025l2.5-1.4434v49.0748l-2.5,1.4433Z"/>
    <path id="Path-12" data-name="Path" class="cls-3" d="M115,80.829l2.5-1.4434V128.46l-2.5,1.4434Z"/>
    <path id="Path-13" data-name="Path" class="cls-3" d="M125,75.0555l2.5-1.4434v49.0748L125,124.13Z"/>
    <path id="Path-14" data-name="Path" class="cls-3" d="M135,69.282l2.5-1.4434v49.0748l-2.5,1.4433Z"/>
    <path id="Path-15" data-name="Path" class="cls-3" d="M145,63.5084l2.5-1.4433V111.14l-2.5,1.4433Z"/>
    <path id="Path-16" data-name="Path" class="cls-3" d="M155,57.735l2.5-1.4434v49.0748L155,106.81Z"/>
    <path id="Path-17" data-name="Path" class="cls-1" d="M25,129.9038v-2.8867l-2.5-1.4434V128.46Z"/>
    <path id="Path-18" data-name="Path" class="cls-1" d="M35,135.6773v-2.8868l-2.5-1.4433v2.8867Z"/>
    <path id="Path-19" data-name="Path" class="cls-1" d="M45,141.4508V138.564l-2.5-1.4434v2.8868Z"/>
    <path id="Path-20" data-name="Path" class="cls-1" d="M55,147.2243v-2.8868l-2.5-1.4434v2.8868Z"/>
    <path id="Path-21" data-name="Path" class="cls-1" d="M30,132.7906v-2.8868L27.5,128.46v2.8868Z"/>
    <path id="Path-22" data-name="Path" class="cls-1" d="M40,138.5641v-2.8868l-2.5-1.4434v2.8868Z"/>
    <path id="Path-23" data-name="Path" class="cls-1" d="M50,144.3375v-2.8868l-2.5-1.4433v2.8867Z"/>
    <path id="Path-24" data-name="Path" class="cls-1" d="M60,150.111v-2.8868l-2.5-1.4433v2.8867Z"/>
  </g>
</svg>
