<svg id="Layer_1" data-name="Layer 1" xmlns="http://www.w3.org/2000/svg" viewBox="0 0 170.04 122.6128">
  <defs>
    <style>
      .top-light {
        fill: #fac7c6;
      }

      .exterior-R-prim {
        fill: #d15752;
      }

      .exterior-L-prim {
        fill: #73302f;
      }

      .cls-1 {
        fill: #fff;
      }

      .cls-2 {
        fill: #bbb;
      }

      .top-dark {
        fill: #c67471;
      }

      .cls-3 {
        fill: #f8fafb;
      }

      .cls-4 {
        fill: #d3d3d3;
      }

      .cls-5 {
        fill: #484848;
      }

      .top-prim {
        fill: #dd8987;
      }
    </style>
  </defs>
  <title>Artboard 19</title>
  <g id="root">
    <path id="Path" class="top-light" d="M21.237,85.6538,106.29,36.7891,170.04,73.748,84.9481,122.6128Z"/>
    <path id="Path-2" class="top-light" d="M0,49.0477,85.0527,98.0955l84.8435-49.0478L84.8436,0Z"/>
    <path id="Path-3" class="exterior-R-prim" d="M169.8962,73.5781v-24.53L84.9481,98.0955v24.5173Z"/>
    <path id="Path-4" class="exterior-L-prim" d="M0,73.9049V49.0739L84.9481,98.0955v24.5173Z"/>
    <path id="Path-5" class="cls-1" d="M101.8332,97.5466l51.178-29.5881c.5227-.3137.954-.0653.954.5489v3.9207a2.1433,2.1433,0,0,1-.954,1.66l-51.178,29.5881a.5919.5919,0,0,1-.954-.5489V99.2063A2.117,2.117,0,0,1,101.8332,97.5466Z"/>
    <path id="Path-6" class="cls-2" d="M95.5732,12.2717l63.8679,36.776L85.0527,91.9662,21.237,55.1771Z"/>
    <path id="Path-7" class="exterior-L-prim" d="M84.9481,6.1293v3.019l71.7747,41.4285,2.6137-1.5291Z"/>
    <path id="Path-8" class="exterior-R-prim" d="M10.6251,49.0477,84.9481,6.1293v3.019L13.278,50.5768Z"/>
    <path id="Path-9" class="top-dark" d="M26.543,42.9184,74.3361,15.33l15.918,9.1482-47.78,27.6408Z"/>
    <path id="Path-10" class="exterior-R-prim" d="M74.3361,24.53V12.2717L26.543,39.8472v3.1366l7.9721,4.5349Z"/>
    <path id="Path-11" class="exterior-L-prim" d="M74.3361,24.53l7.9982,4.6,7.959-4.6-15.918-9.1483Z"/>
    <g id="Group-2">
      <path id="Path-12" class="cls-3" d="M56.34,30.7512l6.7959,3.9207,18.1-10.4551-6.7958-3.9207Z"/>
      <path id="Path-13" class="cls-2" d="M63.1361,34.6719v7.3055L56.34,38.0568V30.7512Z"/>
      <path id="Path-14" class="cls-4" d="M81.2365,24.23v7.3056l-18.1,10.4551V34.6719Z"/>
      <path id="Path-15" class="cls-5" d="M64.26,35.2861l4.5218-2.6137V37.9L64.26,40.5137Z"/>
      <path id="Path-16" class="cls-5" d="M69.9188,32.0581l4.5219-2.6138v5.2276l-4.5219,2.6138Z"/>
      <path id="Path-17" class="cls-5" d="M75.5777,28.7517,80.1,26.1379v5.2276l-4.5218,2.6137Z"/>
      <g id="Group-3">
        <ellipse id="Ellipse" class="cls-2" cx="62.9662" cy="30.516" rx="2.4178" ry="1.3984"/>
        <rect id="Rectangle" class="cls-2" x="60.5484" y="29.2875" width="4.8486" height="1.2154"/>
        <ellipse id="Ellipse-2" class="cls-1" cx="62.9662" cy="29.2875" rx="2.4178" ry="1.3984"/>
      </g>
      <g id="Group-4">
        <ellipse id="Ellipse-3" class="cls-2" cx="68.8472" cy="27.2226" rx="2.4178" ry="1.3984"/>
        <rect id="Rectangle-2" class="cls-2" x="66.4294" y="26.0072" width="4.8486" height="1.2154"/>
        <ellipse id="Ellipse-4" class="cls-1" cx="68.8472" cy="25.9941" rx="2.4178" ry="1.3984"/>
      </g>
      <g id="Group-5">
        <ellipse id="Ellipse-5" class="cls-2" cx="74.7282" cy="23.9292" rx="2.4178" ry="1.3984"/>
        <rect id="Rectangle-3" class="cls-2" x="72.3105" y="22.7138" width="4.8486" height="1.2154"/>
        <ellipse id="Ellipse-6" class="cls-1" cx="74.7282" cy="22.7138" rx="2.4178" ry="1.3984"/>
      </g>
    </g>
    <g id="Group-6">
      <path id="Path-18" class="cls-3" d="M36.1618,42.3172l6.7958,3.9207L61.0581,35.7828l-6.7959-3.9207Z"/>
      <path id="Path-19" class="cls-2" d="M42.9576,46.2379v7.3448L36.1618,49.662V42.3172Z"/>
      <path id="Path-20" class="cls-4" d="M61.0581,35.7828v7.3447L42.9576,53.5827V46.2379Z"/>
      <path id="Path-21" class="cls-5" d="M44.0815,46.8914l4.535-2.6138v5.2276l-4.535,2.6137Z"/>
      <path id="Path-22" class="cls-5" d="M49.74,43.6241,54.2622,41.01v5.2276L49.74,48.8517Z"/>
      <path id="Path-23" class="cls-5" d="M55.3992,40.3569l4.5219-2.6138v5.2276l-4.5219,2.6138Z"/>
      <g id="Group-7">
        <ellipse id="Ellipse-7" class="cls-2" cx="42.7877" cy="42.0689" rx="2.4178" ry="1.3984"/>
        <rect id="Rectangle-4" class="cls-2" x="40.37" y="40.8535" width="4.8486" height="1.2154"/>
        <ellipse id="Ellipse-8" class="cls-1" cx="42.7877" cy="40.8535" rx="2.4178" ry="1.3984"/>
      </g>
      <g id="Group-8">
        <ellipse id="Ellipse-9" class="cls-2" cx="48.6818" cy="38.7886" rx="2.4178" ry="1.3984"/>
        <rect id="Rectangle-5" class="cls-2" x="46.251" y="37.5601" width="4.8486" height="1.2154"/>
        <ellipse id="Ellipse-10" class="cls-1" cx="48.6818" cy="37.5601" rx="2.4178" ry="1.3984"/>
      </g>
      <g id="Group-9">
        <ellipse id="Ellipse-11" class="cls-2" cx="54.5628" cy="35.4952" rx="2.4178" ry="1.3984"/>
        <rect id="Rectangle-6" class="cls-2" x="52.132" y="34.2668" width="4.8486" height="1.2154"/>
        <ellipse id="Ellipse-12" class="cls-1" cx="54.5628" cy="34.2668" rx="2.4178" ry="1.3984"/>
      </g>
    </g>
    <path id="Path-24" class="top-prim" d="M13.278,50.5768l13.265-7.6584,15.9311,9.1483L90.2541,24.53l-15.918-9.1483,10.612-6.2338,71.7747,41.4285-71.67,41.3894Z"/>
  </g>
</svg>
