<svg id="Layer_1" data-name="Layer 1" xmlns="http://www.w3.org/2000/svg" viewBox="0 0 320 242.48"><defs><style>.top-prim-5{fill:#dd8987;}.top-dark-9{fill:#c67471;}.exterior-L-prim-16{fill:#73302f;}.exterior-R-prim-18{fill:#d15752;}.cls-1{fill:#f9f9fa;}.cls-2{fill:#d2d2d2;}.cls-3{fill:#474747;}.cls-4{fill:#bababa;}.cls-5{fill:#fff;}.exterior-R-dark-2{fill:#a74d4a;}.exterior-L-light-3{fill:#8b3a37;}</style></defs><title>Artboard 13</title><g id="Group"><path id="Path" class="top-prim-5" d="M0,92.37,160,0,320,92.37,160,184.75Z"/><path id="Path-2" data-name="Path" class="top-dark-9" d="M220,92.37l45,26,45-26-45-26Z"/><path id="Path-3" data-name="Path" class="top-dark-9" d="M110,92.37l50,28.87,50-28.87L160,63.51Z"/><path id="Path-4" data-name="Path" class="top-dark-9" d="M165,60.62l50,28.87,45-26L210,34.64Z"/><path id="Path-5" data-name="Path" class="exterior-L-prim-16" d="M265,66.39V83.71L295,101l15-8.66Z"/><path id="Path-6" data-name="Path" class="exterior-L-prim-16" d="M160,63.51V80.83L195,101l15-8.66Z"/><path id="Path-7" data-name="Path" class="exterior-L-prim-16" d="M210,34.64V52l35,20.21,15-8.66Z"/><path id="Path-8" data-name="Path" class="exterior-L-prim-16" d="M160,184.75v57.73L0,150.11V92.37Z"/><path id="Path-9" data-name="Path" class="exterior-R-prim-18" d="M320,92.37v57.74L160,242.48V184.75Z"/><path id="Path-10" data-name="Path" class="exterior-R-prim-17" d="M265,66.39V83.71L235,101l-15-8.66Z"/><path id="Path-11" data-name="Path" class="exterior-R-prim-17" d="M160,63.51V80.83L125,101l-15-8.66Z"/><path id="Path-12" data-name="Path" class="exterior-R-prim-17" d="M210,34.64V52L180,69.28l-15-8.66Z"/><path id="Path-13" data-name="Path" class="exterior-L-prim-16" d="M160,127v52l45-26Z"/><path id="Path-14" data-name="Path" class="exterior-L-prim-16" d="M55,66.39v52l45-26Z"/><path id="Path-15" data-name="Path" class="exterior-L-prim-16" d="M160,5.77v52l45-26Z"/><path id="Path-16" data-name="Path" class="exterior-L-prim-16" d="M215,95.26v52l45-26Z"/><path id="Path-17" data-name="Path" class="exterior-L-prim-16" d="M110,34.64v52l45-26Z"/><path id="Path-18" data-name="Path" class="exterior-R-prim-17" d="M105,95.26v52l-45-26Z"/><path id="Path-19" data-name="Path" class="exterior-R-prim-17" d="M160,127v52l-45-26Z"/><path id="Path-20" data-name="Path" class="exterior-R-prim-17" d="M55,66.39v52l-45-26Z"/><path id="Path-21" data-name="Path" class="exterior-R-prim-17" d="M160,5.77v52l-45-26Z"/><path id="Path-22" data-name="Path" class="exterior-R-prim-17" d="M215,95.26v52l-5,2.89-45-26Z"/><path id="Path-23" data-name="Path" class="exterior-R-prim-18" d="M110,34.64v52l-5,2.89-45-26Z"/><path id="Path-24" data-name="Path" class="exterior-L-prim-16" d="M105,95.26v52l5,2.89,45-26Z"/><g id="Group-2" data-name="Group"><path id="Path-25" data-name="Path" class="cls-1" d="M177.5,70.72l15,8.66,35-20.2-15-8.67Z"/><path id="Path-26" data-name="Path" class="cls-2" d="M227.5,59.18V73.61l-20,11.55L195,77.94Z"/><path id="Path-27" data-name="Path" class="cls-3" d="M195,80.83l5-2.89v5.77Z"/><path id="Path-28" data-name="Path" class="cls-3" d="M202.5,82.27V76.5l10-5.78V82.27l-5,2.89Z"/><path id="Path-29" data-name="Path" class="cls-3" d="M215,69.28l10-5.77V75.05l-10,5.78Z"/><g id="Group-3" data-name="Group"><ellipse id="Ellipse" class="cls-4" cx="187.61" cy="74.09" rx="5.29" ry="3.06"/><rect id="Rectangle" class="cls-4" x="182.32" y="71.43" width="10.59" height="2.66"/><ellipse id="Ellipse-2" data-name="Ellipse" class="cls-5" cx="187.61" cy="71.43" rx="5.29" ry="3.06"/></g><g id="Group-4" data-name="Group"><ellipse id="Ellipse-3" data-name="Ellipse" class="cls-4" cx="200.46" cy="66.9" rx="5.29" ry="3.06"/><rect id="Rectangle-2" data-name="Rectangle" class="cls-4" x="195.17" y="64.24" width="10.59" height="2.66"/><ellipse id="Ellipse-4" data-name="Ellipse" class="cls-5" cx="200.46" cy="64.24" rx="5.29" ry="3.06"/></g><g id="Group-5" data-name="Group"><ellipse id="Ellipse-5" data-name="Ellipse" class="cls-4" cx="213.31" cy="59.72" rx="5.29" ry="3.06"/><rect id="Rectangle-3" data-name="Rectangle" class="cls-4" x="208.02" y="57.05" width="10.59" height="2.66"/><ellipse id="Ellipse-6" data-name="Ellipse" class="cls-5" cx="213.31" cy="57.05" rx="5.29" ry="3.06"/></g></g><path id="Path-30" data-name="Path" class="top-prim-5" d="M170,69.28l5-2.89,42.5,24.54-5,2.89Z"/><path id="Path-31" data-name="Path" class="exterior-R-dark-2" d="M160,184.75l5-2.89V239.6l-5,2.88Z"/><path id="Path-32" data-name="Path" class="exterior-L-light-3" d="M160,184.75l-5-2.89V239.6l5,2.88Z"/><path id="Path-33" data-name="Path" class="exterior-L-light-3" d="M140,173.2l-5-2.88v57.73l5,2.89Z"/><path id="Path-34" data-name="Path" class="exterior-L-light-3" d="M120,161.65l-5-2.88V216.5l5,2.89Z"/><path id="Path-35" data-name="Path" class="exterior-L-light-3" d="M100,150.11l-5-2.89V205l5,2.88Z"/><path id="Path-36" data-name="Path" class="exterior-L-light-3" d="M50,121.24l-5-2.89v57.74L50,179Z"/><path id="Path-37" data-name="Path" class="exterior-L-light-3" d="M80,138.56l-5-2.89v57.74l5,2.89Z"/><path id="Path-38" data-name="Path" class="exterior-L-light-3" d="M30,109.69l-5-2.88v57.73l5,2.89Z"/><path id="Path-39" data-name="Path" class="exterior-R-dark-2" d="M180,173.2l5-2.88v57.73l-5,2.89Z"/><path id="Path-40" data-name="Path" class="exterior-R-dark-2" d="M200,161.65l5-2.88V216.5l-5,2.89Z"/><path id="Path-41" data-name="Path" class="exterior-R-dark-2" d="M220,150.11l5-2.89V205l-5,2.88Z"/><path id="Path-42" data-name="Path" class="exterior-R-dark-2" d="M240,138.56l5-2.89v57.74l-5,2.89Z"/><path id="Path-43" data-name="Path" class="exterior-R-dark-2" d="M260,127l5-2.88v57.73l-5,2.89Z"/><path id="Path-44" data-name="Path" class="exterior-R-dark-2" d="M280,115.47l5-2.89v57.74l-5,2.88Z"/><path id="Path-45" data-name="Path" class="exterior-R-dark-2" d="M300,103.92l5-2.89v57.74l-5,2.88Z"/><path id="Path-46" data-name="Path" class="exterior-R-dark-2" d="M170,179l5-2.89v57.73l-5,2.89Z"/><path id="Path-47" data-name="Path" class="exterior-L-light-3" d="M150,179l-5-2.89v57.73l5,2.89Z"/><path id="Path-48" data-name="Path" class="exterior-L-light-3" d="M130,167.43l-5-2.89v57.74l5,2.88Z"/><path id="Path-49" data-name="Path" class="exterior-L-light-3" d="M110,155.88,105,153v57.74l5,2.89Z"/><path id="Path-50" data-name="Path" class="exterior-L-light-3" d="M60,127l-5-2.88v57.73l5,2.89Z"/><path id="Path-51" data-name="Path" class="exterior-L-light-3" d="M90,144.33l-5-2.88v57.73l5,2.89Z"/><path id="Path-52" data-name="Path" class="exterior-L-light-3" d="M40,115.47l-5-2.89v57.74l5,2.88Z"/><path id="Path-53" data-name="Path" class="exterior-L-light-3" d="M70,132.79l-5-2.89v57.74l5,2.88Z"/><path id="Path-54" data-name="Path" class="exterior-L-light-3" d="M20,103.92,15,101v57.74l5,2.88Z"/><path id="Path-55" data-name="Path" class="exterior-L-light-3" d="M10,98.15,5,95.26V153l5,2.89Z"/><path id="Path-56" data-name="Path" class="exterior-R-dark-2" d="M190,167.43l5-2.89v57.74l-5,2.88Z"/><path id="Path-57" data-name="Path" class="exterior-R-dark-2" d="M210,155.88l5-2.89v57.74l-5,2.89Z"/><path id="Path-58" data-name="Path" class="exterior-R-dark-2" d="M230,144.33l5-2.88v57.73l-5,2.89Z"/><path id="Path-59" data-name="Path" class="exterior-R-dark-2" d="M250,132.79l5-2.89v57.74l-5,2.88Z"/><path id="Path-60" data-name="Path" class="exterior-R-dark-2" d="M270,121.24l5-2.89v57.74L270,179Z"/><path id="Path-61" data-name="Path" class="exterior-R-dark-2" d="M290,109.69l5-2.88v57.73l-5,2.89Z"/><path id="Path-62" data-name="Path" class="exterior-R-dark-2" d="M310,98.15l5-2.89V153l-5,2.89Z"/></g></svg>