<svg id="Layer_1" data-name="Layer 1" xmlns="http://www.w3.org/2000/svg" viewBox="0 0 425 649.519">
  <defs>
    <style>
      .cls-1 {
        fill: #464646;
      }

      .cls-2 {
        fill: #333;
      }

      .cls-3 {
        fill: #2f2f2f;
      }

      .cls-4 {
        fill: #727375;
      }

      .cls-5 {
        fill: #e8e8e8;
      }

      .cls-6 {
        fill: #f9f9f9;
      }

      .cls-7 {
        fill: #f7f9fb;
      }

      .cls-8 {
        fill: #b7b8b9;
      }

      .cls-9 {
        fill: #dee1e3;
      }

      .cls-10 {
        fill: #e65656;
      }

      .cls-11 {
        fill: #d24f4f;
      }

      .cls-12 {
        fill: #babbbd;
      }

      .cls-13 {
        fill: #5d5d5d;
      }

      .cls-14 {
        fill: #9a9b9d;
      }

      .cls-15 {
        fill: #757575;
      }

      .cls-16 {
        fill: #b9b9b9;
      }

      .cls-17 {
        fill: #999;
      }

      .cls-18 {
        fill: #e7e9ea;
      }

      .cls-19 {
        fill: #c4c6c8;
      }

      .cls-20 {
        fill: #a2a2a2;
      }

      .cls-21 {
        fill: #aeaeae;
      }

      .cls-22 {
        fill: #fff;
      }

      .cls-23 {
        fill: #eff2f4;
      }

      .cls-24 {
        fill: #2e2e2e;
      }

      .cls-25 {
        fill: #ff9c9c;
      }

      .cls-26 {
        fill: #973030;
      }

      .cls-27 {
        fill: #4a4a4a;
      }

      .cls-28 {
        fill: #484848;
      }

      .cls-29 {
        fill: #575757;
      }

      .cls-30 {
        fill: #424242;
      }

      .cls-31 {
        fill: #d1d2d2;
      }

      .cls-32 {
        fill: #c9cbcc;
      }

      .cls-33 {
        fill: #d9dcdd;
      }

      .cls-34 {
        fill: #a4a4a4;
      }

      .cls-35 {
        fill: #c2c4c6;
      }
    </style>
  </defs>
  <title>Artboard 51</title>
  <g id="Group">
    <path id="Path" class="cls-1" d="M290,531.162,210,577.35V288.675l80-46.188Z"/>
    <path id="Path-3" class="cls-2" d="M5,609.104H170v37.528H5Z"/>
    <path id="Path-4" class="cls-1" d="M170,646.632,350,542.709V508.068L170,611.991Z"/>
    <path id="Path-5" class="cls-1" d="M310,484.974l-5-2.887v80.829l5,2.887,95-54.848V430.126Z"/>
    <path id="Path-6" class="cls-3" d="M190,464.767l120,69.282V484.974L190,415.692Z"/>
    <path id="Path-7" class="cls-4" d="M230,447.446l80,46.188,5-5.773V222.279l-85-49.074Z"/>
    <path id="Path-8" class="cls-5" d="M100,294.448,0,352.183v5.774H170l65-37.528v-5.774l-85-49.074Z"/>
    <path id="Path-9" class="cls-6" d="M170,340.636l50-28.867,5,2.886L170,346.41H20l85-49.075v5.774Z"/>
    <path id="Path-10" class="cls-7" d="M100,103.923V98.149L260,5.773l70,40.415v5.773L170,144.337Z"/>
    <path id="Path-11" class="cls-8" d="M100,98.149V294.448l5,2.887v5.774l65,37.527,5-2.886V135.677l-5,2.887Z"/>
    <path id="Path-12" class="cls-9" d="M330,46.188V242.487L215,308.882v5.773l-45,25.981V138.564Z"/>
    <path id="Path-13" class="cls-10" d="M170,352.183l-5,2.887V609.104l5,5.774,65-37.528V314.655Z"/>
    <path id="Path-14" class="cls-11" d="M0,352.183V614.878H170V352.183Z"/>
    <path id="Path-15" class="cls-12" d="M410,178.978v-5.773l-80-46.188v75.055l-30,17.321-5-2.887-5,2.887v5.773l20,11.547Z"/>
    <g id="Group-2">
      <path id="Path-16" class="cls-13" d="M302.5,373.834l-7.5-4.33v17.32l7.5,4.33Z"/>
      <path id="Path-17" class="cls-14" d="M297.5,370.947l-2.5-1.443v17.32l2.5,1.444Z"/>
      <path id="Path-18" class="cls-12" d="M302.5,388.268l-5-2.887-2.5,1.443,7.5,4.33Z"/>
    </g>
    <g id="Group-3">
      <path id="Path-19" class="cls-13" d="M302.5,420.022l-7.5-4.33v17.32l7.5,4.33Z"/>
      <path id="Path-20" class="cls-14" d="M297.5,417.135l-2.5-1.443v17.32l2.5,1.444Z"/>
      <path id="Path-21" class="cls-12" d="M302.5,434.456l-5-2.887-2.5,1.443,7.5,4.33Z"/>
    </g>
    <g id="Group-4">
      <path id="Path-22" class="cls-13" d="M302.5,350.74l-7.5-4.33v17.32l7.5,4.33Z"/>
      <path id="Path-23" class="cls-14" d="M297.5,347.853,295,346.41v17.32l2.5,1.444Z"/>
      <path id="Path-24" class="cls-12" d="M302.5,365.174l-5-2.887L295,363.73l7.5,4.33Z"/>
    </g>
    <g id="Group-5">
      <path id="Path-25" class="cls-13" d="M302.5,396.928l-7.5-4.33v17.32l7.5,4.33Z"/>
      <path id="Path-26" class="cls-14" d="M297.5,394.041l-2.5-1.443v17.32l2.5,1.444Z"/>
      <path id="Path-27" class="cls-12" d="M302.5,411.362l-5-2.887-2.5,1.443,7.5,4.33Z"/>
    </g>
    <g id="Group-6">
      <path id="Path-28" class="cls-13" d="M302.5,443.116l-7.5-4.33v17.32l7.5,4.33Z"/>
      <path id="Path-29" class="cls-14" d="M297.5,440.229l-2.5-1.443v17.32l2.5,1.444Z"/>
      <path id="Path-30" class="cls-12" d="M302.5,457.55l-5-2.887-2.5,1.443,7.5,4.33Z"/>
    </g>
    <g id="Group-7">
      <path id="Path-31" class="cls-13" d="M302.5,466.21l-7.5-4.33V479.2l7.5,4.33Z"/>
      <path id="Path-32" class="cls-14" d="M297.5,463.323,295,461.88V479.2l2.5,1.444Z"/>
      <path id="Path-33" class="cls-12" d="M302.5,480.644l-5-2.887L295,479.2l7.5,4.33Z"/>
    </g>
    <g id="Group-8">
      <path id="Path-34" class="cls-13" d="M302.5,492.191l-7.5-4.33v17.32l7.5,4.33Z"/>
      <path id="Path-35" class="cls-1" d="M297.5,489.304l-2.5-1.443v17.32l2.5,1.443Z"/>
      <path id="Path-36" class="cls-15" d="M302.5,506.624l-5-2.886-2.5,1.443,7.5,4.33Z"/>
    </g>
    <g id="Group-9">
      <path id="Path-37" class="cls-13" d="M302.5,515.285l-7.5-4.33v17.32l7.5,4.33Z"/>
      <path id="Path-38" class="cls-1" d="M297.5,512.398l-2.5-1.443v17.32l2.5,1.443Z"/>
      <path id="Path-39" class="cls-12" d="M302.5,529.719l-5-2.887-2.5,1.443,7.5,4.33Z"/>
    </g>
    <path id="Path-40" class="cls-14" d="M355,545.596l-5-2.887V496.521l70-40.415,5,2.887v46.188Z"/>
    <path id="Path-41" class="cls-5" d="M405,464.767V447.446l20,11.547-70,40.415-5-2.887Z"/>
    <path id="Path-42" class="cls-16" d="M355,545.596l-5-2.887V496.521l5,2.887Z"/>
    <path id="Path-43" class="cls-5" d="M367.5,506.624l45-25.98v34.641l-45,25.981Z"/>
    <path id="Path-44" class="cls-4" d="M412.5,512.398,385,496.521l27.5-15.877Z"/>
    <path id="Path-45" class="cls-17" d="M300,219.393l10,5.773,90-51.961L330,132.79v69.282Z"/>
    <path id="Path-46" class="cls-4" d="M330,132.79v5.774l65,37.527,5-2.886Z"/>
    <path id="Path-47" class="cls-18" d="M110,98.149,260,11.547l60,34.641L170,132.79Z"/>
    <path id="Path-48" class="cls-19" d="M260,11.547V17.32l55,31.754,5-2.886Z"/>
    <path id="Path-49" class="cls-9" d="M110,98.149,260,11.547V17.32L115,101.036Z"/>
    <path id="Path-50" class="cls-16" d="M215,308.882l10,5.773-5,2.887-5-2.887Z"/>
    <path id="Path-51" class="cls-20" d="M105,297.335v5.774L30,346.41H20Z"/>
    <path id="Path-52" class="cls-1" d="M290,265.581l-55,31.754-15,8.66,15,8.66V554.256l55-31.754Z"/>
    <path id="Path-53" class="cls-21" d="M235,554.256l55-31.754,20,11.547-11.698,6.7529L235,577.35Z"/>
    <path id="Path-54" class="cls-14" d="M410,173.205,310,230.94V493.634l100-57.735Z"/>
    <g id="Group-10">
      <g id="Group-11">
        <path id="Path-55" class="cls-22" d="M177.5,142.894l25-14.434v17.321l-25,14.433Z"/>
        <path id="Path-56" class="cls-13" d="M177.5,142.894l10-5.774v17.321l-10,5.773Z"/>
        <path id="Path-57" class="cls-13" d="M190,135.677l10-5.774v17.321l-10,5.773Z"/>
        <path id="Path-58" class="cls-8" d="M200,129.903l2.5-1.443v17.321l-2.5,1.443Z"/>
        <path id="Path-59" class="cls-23" d="M177.5,157.328,200,144.337l2.5,1.444-25,14.433Z"/>
      </g>
      <g id="Group-12">
        <path id="Path-60" class="cls-22" d="M237.5,108.253l25-14.434V111.14l-25,14.433Z"/>
        <path id="Path-61" class="cls-13" d="M237.5,108.253l10-5.774V119.8l-10,5.773Z"/>
        <path id="Path-62" class="cls-13" d="M250,101.036l10-5.774v17.321l-10,5.773Z"/>
        <path id="Path-63" class="cls-8" d="M260,95.262l2.5-1.443V111.14l-2.5,1.443Z"/>
        <path id="Path-64" class="cls-23" d="M237.5,122.687,260,109.696l2.5,1.444-25,14.433Z"/>
      </g>
      <g id="Group-13">
        <path id="Path-65" class="cls-22" d="M207.5,125.573l25-14.433v17.32l-25,14.434Z"/>
        <path id="Path-66" class="cls-13" d="M207.5,125.573l10-5.773v17.32l-10,5.774Z"/>
        <path id="Path-67" class="cls-13" d="M220,118.356l10-5.773v17.32l-10,5.774Z"/>
        <path id="Path-68" class="cls-8" d="M230,112.583l2.5-1.443v17.32l-2.5,1.443Z"/>
        <path id="Path-69" class="cls-23" d="M207.5,140.007l22.5-12.99,2.5,1.443-25,14.434Z"/>
      </g>
      <g id="Group-14">
        <path id="Path-70" class="cls-22" d="M267.5,90.932l25-14.433v17.32l-25,14.434Z"/>
        <path id="Path-71" class="cls-13" d="M267.5,90.932l10-5.773v17.32l-10,5.774Z"/>
        <path id="Path-72" class="cls-13" d="M280,83.715l10-5.773v17.32l-10,5.774Z"/>
        <path id="Path-73" class="cls-8" d="M290,77.942l2.5-1.443v17.32L290,95.262Z"/>
        <path id="Path-74" class="cls-23" d="M267.5,105.366,290,92.376l2.5,1.443-25,14.434Z"/>
      </g>
      <g id="Group-15">
        <path id="Path-75" class="cls-22" d="M297.5,73.612l25-14.434V76.499l-25,14.433Z"/>
        <path id="Path-76" class="cls-13" d="M297.5,73.612l10-5.774V85.159l-10,5.773Z"/>
        <path id="Path-77" class="cls-13" d="M310,66.395l10-5.774V77.942l-10,5.773Z"/>
        <path id="Path-78" class="cls-8" d="M320,60.621l2.5-1.443V76.499L320,77.942Z"/>
        <path id="Path-79" class="cls-23" d="M297.5,88.046,320,75.055l2.5,1.444-25,14.433Z"/>
      </g>
    </g>
    <g id="Group-16">
      <g id="Group-17">
        <path id="Path-80" class="cls-9" d="M317.5,235.27l25-14.434v17.321l-25,14.433Z"/>
        <path id="Path-81" class="cls-13" d="M317.5,235.27l10-5.774v17.321l-10,5.773Z"/>
        <path id="Path-82" class="cls-13" d="M330,228.053l10-5.774V239.6l-10,5.773Z"/>
        <path id="Path-83" class="cls-4" d="M340,222.279l2.5-1.443v17.321L340,239.6Z"/>
        <path id="Path-84" class="cls-12" d="M317.5,249.704,340,236.713l2.5,1.444-25,14.433Z"/>
      </g>
      <g id="Group-18">
        <path id="Path-85" class="cls-9" d="M377.5,200.629l25-14.434v17.321l-25,14.433Z"/>
        <path id="Path-86" class="cls-13" d="M377.5,200.629l10-5.774v17.321l-10,5.773Z"/>
        <path id="Path-87" class="cls-13" d="M390,193.412l10-5.774v17.321l-10,5.773Z"/>
        <path id="Path-88" class="cls-4" d="M400,187.638l2.5-1.443v17.321l-2.5,1.443Z"/>
        <path id="Path-89" class="cls-12" d="M377.5,215.063,400,202.072l2.5,1.444-25,14.433Z"/>
      </g>
      <g id="Group-19">
        <path id="Path-90" class="cls-9" d="M347.5,217.949l25-14.433v17.32l-25,14.434Z"/>
        <path id="Path-91" class="cls-13" d="M347.5,217.949l10-5.773v17.32l-10,5.774Z"/>
        <path id="Path-92" class="cls-13" d="M360,210.732l10-5.773v17.32l-10,5.774Z"/>
        <path id="Path-93" class="cls-4" d="M370,204.959l2.5-1.443v17.32l-2.5,1.443Z"/>
        <path id="Path-94" class="cls-12" d="M347.5,232.383l22.5-12.99,2.5,1.443-25,14.434Z"/>
      </g>
    </g>
    <g id="Group-20">
      <g id="Group-21">
        <path id="Path-95" class="cls-9" d="M317.5,281.458l25-14.434v17.321l-25,14.433Z"/>
        <path id="Path-96" class="cls-13" d="M317.5,281.458l10-5.774v17.321l-10,5.773Z"/>
        <path id="Path-97" class="cls-13" d="M330,274.241l10-5.773v17.32l-10,5.774Z"/>
        <path id="Path-98" class="cls-4" d="M340,268.467l2.5-1.443v17.321l-2.5,1.443Z"/>
        <path id="Path-99" class="cls-12" d="M317.5,295.892,340,282.901l2.5,1.444-25,14.433Z"/>
      </g>
      <g id="Group-22">
        <path id="Path-100" class="cls-9" d="M377.5,246.817l25-14.434v17.321l-25,14.433Z"/>
        <path id="Path-101" class="cls-13" d="M377.5,246.817l10-5.774v17.321l-10,5.773Z"/>
        <path id="Path-102" class="cls-13" d="M390,239.6l10-5.773v17.32l-10,5.773Z"/>
        <path id="Path-103" class="cls-4" d="M400,233.826l2.5-1.443v17.321l-2.5,1.443Z"/>
        <path id="Path-104" class="cls-12" d="M377.5,261.251,400,248.26l2.5,1.444-25,14.433Z"/>
      </g>
      <g id="Group-23">
        <path id="Path-105" class="cls-9" d="M347.5,264.137l25-14.433v17.32l-25,14.434Z"/>
        <path id="Path-106" class="cls-13" d="M347.5,264.137l10-5.773v17.32l-10,5.774Z"/>
        <path id="Path-107" class="cls-13" d="M360,256.92l10-5.773v17.32l-10,5.774Z"/>
        <path id="Path-108" class="cls-4" d="M370,251.147l2.5-1.443v17.32l-2.5,1.444Z"/>
        <path id="Path-109" class="cls-12" d="M347.5,278.571l22.5-12.99,2.5,1.443-25,14.434Z"/>
      </g>
    </g>
    <g id="Group-24">
      <g id="Group-25">
        <path id="Path-110" class="cls-9" d="M317.5,327.646l25-14.434v17.321l-25,14.433Z"/>
        <path id="Path-111" class="cls-13" d="M317.5,327.646l10-5.774v17.321l-10,5.773Z"/>
        <path id="Path-112" class="cls-13" d="M330,320.429l10-5.773v17.32l-10,5.774Z"/>
        <path id="Path-113" class="cls-4" d="M340,314.656l2.5-1.444v17.321l-2.5,1.443Z"/>
        <path id="Path-114" class="cls-12" d="M317.5,342.08,340,329.089l2.5,1.444-25,14.433Z"/>
      </g>
      <g id="Group-26">
        <path id="Path-115" class="cls-9" d="M377.5,293.005l25-14.434v17.321l-25,14.433Z"/>
        <path id="Path-116" class="cls-13" d="M377.5,293.005l10-5.774v17.321l-10,5.773Z"/>
        <path id="Path-117" class="cls-13" d="M390,285.788l10-5.773v17.32l-10,5.774Z"/>
        <path id="Path-118" class="cls-4" d="M400,280.015l2.5-1.444v17.321l-2.5,1.443Z"/>
        <path id="Path-119" class="cls-12" d="M377.5,307.439,400,294.448l2.5,1.444-25,14.433Z"/>
      </g>
      <g id="Group-27">
        <path id="Path-120" class="cls-9" d="M347.5,310.325l25-14.433v17.32l-25,14.434Z"/>
        <path id="Path-121" class="cls-13" d="M347.5,310.325l10-5.773v17.32l-10,5.774Z"/>
        <path id="Path-122" class="cls-13" d="M360,303.109l10-5.774v17.321l-10,5.773Z"/>
        <path id="Path-123" class="cls-4" d="M370,297.335l2.5-1.443v17.32l-2.5,1.444Z"/>
        <path id="Path-124" class="cls-12" d="M347.5,324.759l22.5-12.99,2.5,1.443-25,14.434Z"/>
      </g>
    </g>
    <g id="Group-28">
      <g id="Group-29">
        <path id="Path-125" class="cls-9" d="M317.5,373.834l25-14.434v17.321l-25,14.433Z"/>
        <path id="Path-126" class="cls-13" d="M317.5,373.834l10-5.774v17.321l-10,5.7731Z"/>
        <path id="Path-127" class="cls-13" d="M330,366.617l10-5.773v17.32l-10,5.774Z"/>
        <path id="Path-128" class="cls-4" d="M340,360.844l2.5-1.444v17.321l-2.5,1.443Z"/>
        <path id="Path-129" class="cls-12" d="M317.5,388.268,340,375.277l2.5,1.444-25,14.433Z"/>
      </g>
      <g id="Group-30">
        <path id="Path-130" class="cls-9" d="M377.5,339.193l25-14.434V342.08l-25,14.433Z"/>
        <path id="Path-131" class="cls-13" d="M377.5,339.193l10-5.774V350.74l-10,5.773Z"/>
        <path id="Path-132" class="cls-13" d="M390,331.976l10-5.773v17.32l-10,5.774Z"/>
        <path id="Path-133" class="cls-4" d="M400,326.203l2.5-1.444V342.08l-2.5,1.443Z"/>
        <path id="Path-134" class="cls-12" d="M377.5,353.627,400,340.636l2.5,1.444-25,14.433Z"/>
      </g>
      <g id="Group-31">
        <path id="Path-135" class="cls-9" d="M347.5,356.513l25-14.433V359.4l-25,14.434Z"/>
        <path id="Path-136" class="cls-13" d="M347.5,356.513l10-5.773v17.32l-10,5.774Z"/>
        <path id="Path-137" class="cls-13" d="M360,349.297l10-5.774v17.321l-10,5.773Z"/>
        <path id="Path-138" class="cls-4" d="M370,343.523l2.5-1.443V359.4l-2.5,1.444Z"/>
        <path id="Path-139" class="cls-12" d="M347.5,370.947l22.5-12.99,2.5,1.443-25,14.434Z"/>
      </g>
    </g>
    <g id="Group-32">
      <g id="Group-33">
        <path id="Path-140" class="cls-9" d="M317.5,420.022l25-14.434v17.321l-25,14.433Z"/>
        <path id="Path-141" class="cls-13" d="M317.5,420.022l10-5.774v17.321l-10,5.773Z"/>
        <path id="Path-142" class="cls-13" d="M330,412.805l10-5.773v17.32l-10,5.774Z"/>
        <path id="Path-143" class="cls-4" d="M340,407.032l2.5-1.444v17.321l-2.5,1.443Z"/>
        <path id="Path-144" class="cls-12" d="M317.5,434.456,340,421.465l2.5,1.444-25,14.433Z"/>
      </g>
      <g id="Group-34">
        <path id="Path-145" class="cls-9" d="M377.5,385.381l25-14.434v17.321l-25,14.433Z"/>
        <path id="Path-146" class="cls-13" d="M377.5,385.381l10-5.774v17.321l-10,5.773Z"/>
        <path id="Path-147" class="cls-13" d="M390,378.164l10-5.773v17.32l-10,5.774Z"/>
        <path id="Path-148" class="cls-4" d="M400,372.391l2.5-1.444v17.321l-2.5,1.443Z"/>
        <path id="Path-149" class="cls-12" d="M377.5,399.815,400,386.824l2.5,1.444-25,14.433Z"/>
      </g>
      <g id="Group-35">
        <path id="Path-150" class="cls-9" d="M347.5,402.701l25-14.433v17.32l-25,14.434Z"/>
        <path id="Path-151" class="cls-13" d="M347.5,402.701l10-5.773v17.32l-10,5.774Z"/>
        <path id="Path-152" class="cls-13" d="M360,395.485l10-5.774v17.321l-10,5.773Z"/>
        <path id="Path-153" class="cls-4" d="M370,389.711l2.5-1.443v17.32l-2.5,1.444Z"/>
        <path id="Path-154" class="cls-12" d="M347.5,417.135l22.5-12.99,2.5,1.443-25,14.434Z"/>
      </g>
    </g>
    <g id="Group-36">
      <g id="Group-37">
        <path id="Path-155" class="cls-9" d="M317.5,258.364l25-14.434v17.321l-25,14.433Z"/>
        <path id="Path-156" class="cls-13" d="M317.5,258.364l10-5.774v17.321l-10,5.773Z"/>
        <path id="Path-157" class="cls-13" d="M330,251.147l10-5.774v17.321l-10,5.773Z"/>
        <path id="Path-158" class="cls-4" d="M340,245.373l2.5-1.443v17.321l-2.5,1.443Z"/>
        <path id="Path-159" class="cls-12" d="M317.5,272.798,340,259.807l2.5,1.444-25,14.433Z"/>
      </g>
      <g id="Group-38">
        <path id="Path-160" class="cls-9" d="M377.5,223.723l25-14.434V226.61l-25,14.433Z"/>
        <path id="Path-161" class="cls-13" d="M377.5,223.723l10-5.774V235.27l-10,5.773Z"/>
        <path id="Path-162" class="cls-13" d="M390,216.506l10-5.774v17.321l-10,5.773Z"/>
        <path id="Path-163" class="cls-4" d="M400,210.732l2.5-1.443V226.61l-2.5,1.443Z"/>
        <path id="Path-164" class="cls-12" d="M377.5,238.157,400,225.166l2.5,1.444-25,14.433Z"/>
      </g>
      <g id="Group-39">
        <path id="Path-165" class="cls-9" d="M347.5,241.043l25-14.433v17.32l-25,14.434Z"/>
        <path id="Path-166" class="cls-13" d="M347.5,241.043l10-5.773v17.32l-10,5.774Z"/>
        <path id="Path-167" class="cls-13" d="M360,233.826l10-5.773v17.32l-10,5.774Z"/>
        <path id="Path-168" class="cls-4" d="M370,228.053l2.5-1.443v17.32l-2.5,1.444Z"/>
        <path id="Path-169" class="cls-12" d="M347.5,255.477l22.5-12.99,2.5,1.443-25,14.434Z"/>
      </g>
    </g>
    <g id="Group-40">
      <g id="Group-41">
        <path id="Path-170" class="cls-9" d="M317.5,304.552l25-14.434v17.321l-25,14.433Z"/>
        <path id="Path-171" class="cls-13" d="M317.5,304.552l10-5.774v17.321l-10,5.773Z"/>
        <path id="Path-172" class="cls-13" d="M330,297.335l10-5.773v17.32l-10,5.774Z"/>
        <path id="Path-173" class="cls-4" d="M340,291.562l2.5-1.444v17.321l-2.5,1.443Z"/>
        <path id="Path-174" class="cls-12" d="M317.5,318.986,340,305.995l2.5,1.444-25,14.433Z"/>
      </g>
      <g id="Group-42">
        <path id="Path-175" class="cls-9" d="M377.5,269.911l25-14.434v17.321l-25,14.433Z"/>
        <path id="Path-176" class="cls-13" d="M377.5,269.911l10-5.774v17.321l-10,5.773Z"/>
        <path id="Path-177" class="cls-13" d="M390,262.694l10-5.773v17.32l-10,5.774Z"/>
        <path id="Path-178" class="cls-4" d="M400,256.921l2.5-1.444v17.321l-2.5,1.443Z"/>
        <path id="Path-179" class="cls-12" d="M377.5,284.345,400,271.354l2.5,1.444-25,14.433Z"/>
      </g>
      <g id="Group-43">
        <path id="Path-180" class="cls-9" d="M347.5,287.231l25-14.433v17.32l-25,14.434Z"/>
        <path id="Path-181" class="cls-13" d="M347.5,287.231l10-5.773v17.32l-10,5.774Z"/>
        <path id="Path-182" class="cls-13" d="M360,280.015l10-5.774v17.321l-10,5.773Z"/>
        <path id="Path-183" class="cls-4" d="M370,274.241l2.5-1.443v17.32l-2.5,1.444Z"/>
        <path id="Path-184" class="cls-12" d="M347.5,301.665l22.5-12.99,2.5,1.443-25,14.434Z"/>
      </g>
    </g>
    <g id="Group-44">
      <g id="Group-45">
        <path id="Path-185" class="cls-9" d="M317.5,350.74l25-14.434v17.321l-25,14.433Z"/>
        <path id="Path-186" class="cls-13" d="M317.5,350.74l10-5.774v17.321l-10,5.773Z"/>
        <path id="Path-187" class="cls-13" d="M330,343.523l10-5.773v17.32l-10,5.774Z"/>
        <path id="Path-188" class="cls-4" d="M340,337.75l2.5-1.444v17.321L340,355.07Z"/>
        <path id="Path-189" class="cls-12" d="M317.5,365.174,340,352.183l2.5,1.444-25,14.433Z"/>
      </g>
      <g id="Group-46">
        <path id="Path-190" class="cls-9" d="M377.5,316.099l25-14.434v17.321l-25,14.433Z"/>
        <path id="Path-191" class="cls-13" d="M377.5,316.099l10-5.774v17.321l-10,5.773Z"/>
        <path id="Path-192" class="cls-13" d="M390,308.882l10-5.773v17.32l-10,5.774Z"/>
        <path id="Path-193" class="cls-4" d="M400,303.109l2.5-1.444v17.321l-2.5,1.443Z"/>
        <path id="Path-194" class="cls-12" d="M377.5,330.533,400,317.542l2.5,1.444-25,14.433Z"/>
      </g>
      <g id="Group-47">
        <path id="Path-195" class="cls-9" d="M347.5,333.419l25-14.433v17.32l-25,14.434Z"/>
        <path id="Path-196" class="cls-13" d="M347.5,333.419l10-5.773v17.32l-10,5.774Z"/>
        <path id="Path-197" class="cls-13" d="M360,326.203l10-5.774V337.75l-10,5.773Z"/>
        <path id="Path-198" class="cls-4" d="M370,320.429l2.5-1.443v17.32L370,337.75Z"/>
        <path id="Path-199" class="cls-12" d="M347.5,347.853l22.5-12.99,2.5,1.443-25,14.434Z"/>
      </g>
    </g>
    <g id="Group-48">
      <g id="Group-49">
        <path id="Path-200" class="cls-9" d="M317.5,396.928l25-14.434v17.321l-25,14.433Z"/>
        <path id="Path-201" class="cls-13" d="M317.5,396.928l10-5.774v17.321l-10,5.773Z"/>
        <path id="Path-202" class="cls-13" d="M330,389.711l10-5.773v17.32l-10,5.774Z"/>
        <path id="Path-203" class="cls-4" d="M340,383.938l2.5-1.444v17.321l-2.5,1.443Z"/>
        <path id="Path-204" class="cls-12" d="M317.5,411.362,340,398.371l2.5,1.444-25,14.433Z"/>
      </g>
      <g id="Group-50">
        <path id="Path-205" class="cls-9" d="M377.5,362.287l25-14.434v17.321l-25,14.433Z"/>
        <path id="Path-206" class="cls-13" d="M377.5,362.287l10-5.774v17.321l-10,5.773Z"/>
        <path id="Path-207" class="cls-13" d="M390,355.07l10-5.773v17.32l-10,5.774Z"/>
        <path id="Path-208" class="cls-4" d="M400,349.297l2.5-1.444v17.321l-2.5,1.443Z"/>
        <path id="Path-209" class="cls-12" d="M377.5,376.721,400,363.73l2.5,1.444-25,14.433Z"/>
      </g>
      <g id="Group-51">
        <path id="Path-210" class="cls-9" d="M347.5,379.607l25-14.433v17.32l-25,14.434Z"/>
        <path id="Path-211" class="cls-13" d="M347.5,379.607l10-5.773v17.32l-10,5.774Z"/>
        <path id="Path-212" class="cls-13" d="M360,372.391l10-5.774v17.321l-10,5.773Z"/>
        <path id="Path-213" class="cls-4" d="M370,366.617l2.5-1.443v17.32l-2.5,1.444Z"/>
        <path id="Path-214" class="cls-12" d="M347.5,394.041l22.5-12.99,2.5,1.443-25,14.434Z"/>
      </g>
    </g>
    <g id="Group-52">
      <g id="Group-53">
        <path id="Path-215" class="cls-9" d="M317.5,443.116l25-14.434v17.321l-25,14.433Z"/>
        <path id="Path-216" class="cls-13" d="M317.5,443.116l10-5.774v17.321l-10,5.773Z"/>
        <path id="Path-217" class="cls-13" d="M330,435.899l10-5.773v17.32l-10,5.774Z"/>
        <path id="Path-218" class="cls-4" d="M340,430.126l2.5-1.444v17.321l-2.5,1.443Z"/>
        <path id="Path-219" class="cls-12" d="M317.5,457.55,340,444.559l2.5,1.444-25,14.433Z"/>
      </g>
      <g id="Group-54">
        <path id="Path-220" class="cls-9" d="M377.5,408.475l25-14.434v17.321l-25,14.433Z"/>
        <path id="Path-221" class="cls-13" d="M377.5,408.475l10-5.774v17.321l-10,5.773Z"/>
        <path id="Path-222" class="cls-13" d="M390,401.258l10-5.773v17.32l-10,5.774Z"/>
        <path id="Path-223" class="cls-4" d="M400,395.485l2.5-1.444v17.321l-2.5,1.443Z"/>
        <path id="Path-224" class="cls-12" d="M377.5,422.909,400,409.918l2.5,1.444-25,14.433Z"/>
      </g>
      <g id="Group-55">
        <path id="Path-225" class="cls-9" d="M347.5,425.795l25-14.433v17.32l-25,14.434Z"/>
        <path id="Path-226" class="cls-13" d="M347.5,425.795l10-5.773v17.32l-10,5.774Z"/>
        <path id="Path-227" class="cls-13" d="M360,418.579l10-5.774v17.321l-10,5.773Z"/>
        <path id="Path-228" class="cls-4" d="M370,412.805l2.5-1.443v17.32l-2.5,1.444Z"/>
        <path id="Path-229" class="cls-12" d="M347.5,440.229l22.5-12.99,2.5,1.443-25,14.434Z"/>
      </g>
    </g>
    <g id="Group-56">
      <g id="Group-57">
        <path id="Path-230" class="cls-9" d="M317.5,466.21l25-14.434v17.321l-25,14.433Z"/>
        <path id="Path-231" class="cls-13" d="M317.5,466.21l10-5.774v17.321l-10,5.773Z"/>
        <path id="Path-232" class="cls-13" d="M330,458.993l10-5.773v17.32l-10,5.774Z"/>
        <path id="Path-233" class="cls-4" d="M340,453.22l2.5-1.444v17.321L340,470.54Z"/>
        <path id="Path-234" class="cls-12" d="M317.5,480.644,340,467.653l2.5,1.444-25,14.433Z"/>
      </g>
      <g id="Group-58">
        <path id="Path-235" class="cls-9" d="M377.5,431.569l25-14.434v17.321l-25,14.433Z"/>
        <path id="Path-236" class="cls-13" d="M377.5,431.569l10-5.774v17.321l-10,5.773Z"/>
        <path id="Path-237" class="cls-13" d="M390,424.352l10-5.773v17.32l-10,5.774Z"/>
        <path id="Path-238" class="cls-4" d="M400,418.579l2.5-1.444v17.321l-2.5,1.443Z"/>
        <path id="Path-239" class="cls-12" d="M377.5,446.003,400,433.012l2.5,1.444-25,14.433Z"/>
      </g>
      <g id="Group-59">
        <path id="Path-240" class="cls-9" d="M347.5,448.889l25-14.433v17.32l-25,14.434Z"/>
        <path id="Path-241" class="cls-13" d="M347.5,448.889l10-5.773v17.32l-10,5.774Z"/>
        <path id="Path-242" class="cls-13" d="M360,441.673l10-5.774V453.22l-10,5.773Z"/>
        <path id="Path-243" class="cls-4" d="M370,435.899l2.5-1.443v17.32L370,453.22Z"/>
        <path id="Path-244" class="cls-12" d="M347.5,463.323l22.5-12.99,2.5,1.443-25,14.434Z"/>
      </g>
    </g>
    <g id="Group-60">
      <g id="Group-61">
        <path id="Path-245" class="cls-22" d="M177.5,189.082l25-14.434v17.321l-25,14.433Z"/>
        <path id="Path-246" class="cls-13" d="M177.5,189.082l10-5.774v17.321l-10,5.773Z"/>
        <path id="Path-247" class="cls-13" d="M190,181.865l10-5.774v17.321l-10,5.773Z"/>
        <path id="Path-248" class="cls-8" d="M200,176.091l2.5-1.443v17.321l-2.5,1.443Z"/>
        <path id="Path-249" class="cls-23" d="M177.5,203.516,200,190.525l2.5,1.444-25,14.433Z"/>
      </g>
      <g id="Group-62">
        <path id="Path-250" class="cls-22" d="M237.5,154.441l25-14.434v17.321l-25,14.433Z"/>
        <path id="Path-251" class="cls-13" d="M237.5,154.441l10-5.774v17.321l-10,5.773Z"/>
        <path id="Path-252" class="cls-13" d="M250,147.224l10-5.774v17.321l-10,5.773Z"/>
        <path id="Path-253" class="cls-8" d="M260,141.45l2.5-1.443v17.321l-2.5,1.443Z"/>
        <path id="Path-254" class="cls-23" d="M237.5,168.875,260,155.884l2.5,1.444-25,14.433Z"/>
      </g>
      <g id="Group-63">
        <path id="Path-255" class="cls-22" d="M207.5,171.761l25-14.433v17.32l-25,14.434Z"/>
        <path id="Path-256" class="cls-13" d="M207.5,171.761l10-5.773v17.32l-10,5.774Z"/>
        <path id="Path-257" class="cls-13" d="M220,164.544l10-5.773v17.32l-10,5.774Z"/>
        <path id="Path-258" class="cls-8" d="M230,158.771l2.5-1.443v17.32l-2.5,1.443Z"/>
        <path id="Path-259" class="cls-23" d="M207.5,186.195l22.5-12.99,2.5,1.443-25,14.434Z"/>
      </g>
      <g id="Group-64">
        <path id="Path-260" class="cls-22" d="M267.5,137.12l25-14.433v17.32l-25,14.434Z"/>
        <path id="Path-261" class="cls-13" d="M267.5,137.12l10-5.773v17.32l-10,5.774Z"/>
        <path id="Path-262" class="cls-13" d="M280,129.903l10-5.773v17.32l-10,5.774Z"/>
        <path id="Path-263" class="cls-8" d="M290,124.13l2.5-1.443v17.32L290,141.45Z"/>
        <path id="Path-264" class="cls-23" d="M267.5,151.554l22.5-12.99,2.5,1.443-25,14.434Z"/>
      </g>
      <g id="Group-65">
        <path id="Path-265" class="cls-22" d="M297.5,119.8l25-14.434v17.321l-25,14.433Z"/>
        <path id="Path-266" class="cls-13" d="M297.5,119.8l10-5.774v17.321l-10,5.773Z"/>
        <path id="Path-267" class="cls-13" d="M310,112.583l10-5.774V124.13l-10,5.773Z"/>
        <path id="Path-268" class="cls-8" d="M320,106.809l2.5-1.443v17.321L320,124.13Z"/>
        <path id="Path-269" class="cls-23" d="M297.5,134.234,320,121.243l2.5,1.444-25,14.433Z"/>
      </g>
    </g>
    <g id="Group-66">
      <g id="Group-67">
        <path id="Path-270" class="cls-22" d="M177.5,235.27l25-14.434v17.321l-25,14.433Z"/>
        <path id="Path-271" class="cls-13" d="M177.5,235.27l10-5.774v17.321l-10,5.773Z"/>
        <path id="Path-272" class="cls-13" d="M190,228.053l10-5.774V239.6l-10,5.773Z"/>
        <path id="Path-273" class="cls-8" d="M200,222.279l2.5-1.443v17.321L200,239.6Z"/>
        <path id="Path-274" class="cls-23" d="M177.5,249.704,200,236.713l2.5,1.444-25,14.433Z"/>
      </g>
      <g id="Group-68">
        <path id="Path-275" class="cls-22" d="M237.5,200.629l25-14.434v17.321l-25,14.433Z"/>
        <path id="Path-276" class="cls-13" d="M237.5,200.629l10-5.774v17.321l-10,5.773Z"/>
        <path id="Path-277" class="cls-13" d="M250,193.412l10-5.774v17.321l-10,5.773Z"/>
        <path id="Path-278" class="cls-8" d="M260,187.638l2.5-1.443v17.321l-2.5,1.443Z"/>
        <path id="Path-279" class="cls-23" d="M237.5,215.063,260,202.072l2.5,1.444-25,14.433Z"/>
      </g>
      <g id="Group-69">
        <path id="Path-280" class="cls-22" d="M207.5,217.949l25-14.433v17.32l-25,14.434Z"/>
        <path id="Path-281" class="cls-13" d="M207.5,217.949l10-5.773v17.32l-10,5.774Z"/>
        <path id="Path-282" class="cls-13" d="M220,210.732l10-5.773v17.32l-10,5.774Z"/>
        <path id="Path-283" class="cls-8" d="M230,204.959l2.5-1.443v17.32l-2.5,1.443Z"/>
        <path id="Path-284" class="cls-23" d="M207.5,232.383l22.5-12.99,2.5,1.443-25,14.434Z"/>
      </g>
      <g id="Group-70">
        <path id="Path-285" class="cls-22" d="M267.5,183.308l25-14.433v17.32l-25,14.434Z"/>
        <path id="Path-286" class="cls-13" d="M267.5,183.308l10-5.773v17.32l-10,5.774Z"/>
        <path id="Path-287" class="cls-13" d="M280,176.091l10-5.773v17.32l-10,5.774Z"/>
        <path id="Path-288" class="cls-8" d="M290,170.318l2.5-1.443v17.32l-2.5,1.443Z"/>
        <path id="Path-289" class="cls-23" d="M267.5,197.742l22.5-12.99,2.5,1.443-25,14.434Z"/>
      </g>
      <g id="Group-71">
        <path id="Path-290" class="cls-22" d="M297.5,165.988l25-14.434v17.321l-25,14.433Z"/>
        <path id="Path-291" class="cls-13" d="M297.5,165.988l10-5.774v17.321l-10,5.773Z"/>
        <path id="Path-292" class="cls-13" d="M310,158.771l10-5.774v17.321l-10,5.773Z"/>
        <path id="Path-293" class="cls-8" d="M320,152.997l2.5-1.443v17.321l-2.5,1.443Z"/>
        <path id="Path-294" class="cls-23" d="M297.5,180.422,320,167.431l2.5,1.444-25,14.433Z"/>
      </g>
    </g>
    <g id="Group-72">
      <g id="Group-73">
        <path id="Path-295" class="cls-22" d="M177.5,281.458l25-14.434v17.321l-25,14.433Z"/>
        <path id="Path-296" class="cls-13" d="M177.5,281.458l10-5.774v17.321l-10,5.773Z"/>
        <path id="Path-297" class="cls-13" d="M190,274.241l10-5.773v17.32l-10,5.774Z"/>
        <path id="Path-298" class="cls-8" d="M200,268.467l2.5-1.443v17.321l-2.5,1.443Z"/>
        <path id="Path-299" class="cls-23" d="M177.5,295.892,200,282.901l2.5,1.444-25,14.433Z"/>
      </g>
      <g id="Group-74">
        <path id="Path-300" class="cls-22" d="M237.5,246.817l25-14.434v17.321l-25,14.433Z"/>
        <path id="Path-301" class="cls-13" d="M237.5,246.817l10-5.774v17.321l-10,5.773Z"/>
        <path id="Path-302" class="cls-13" d="M250,239.6l10-5.773v17.32l-10,5.773Z"/>
        <path id="Path-303" class="cls-8" d="M260,233.826l2.5-1.443v17.321l-2.5,1.443Z"/>
        <path id="Path-304" class="cls-23" d="M237.5,261.251,260,248.26l2.5,1.444-25,14.433Z"/>
      </g>
      <g id="Group-75">
        <path id="Path-305" class="cls-22" d="M207.5,264.137l25-14.433v17.32l-25,14.434Z"/>
        <path id="Path-306" class="cls-13" d="M207.5,264.137l10-5.773v17.32l-10,5.774Z"/>
        <path id="Path-307" class="cls-13" d="M220,256.92l10-5.773v17.32l-10,5.774Z"/>
        <path id="Path-308" class="cls-8" d="M230,251.147l2.5-1.443v17.32l-2.5,1.444Z"/>
        <path id="Path-309" class="cls-23" d="M207.5,278.571l22.5-12.99,2.5,1.443-25,14.434Z"/>
      </g>
      <g id="Group-76">
        <path id="Path-310" class="cls-22" d="M267.5,229.496,285,219.393v17.32l-17.5,10.104Z"/>
        <path id="Path-311" class="cls-13" d="M267.5,229.496l10-5.773v17.32l-10,5.774Z"/>
        <path id="Path-312" class="cls-13" d="M280,222.279l5-2.886v17.32l-5,2.887Z"/>
        <path id="Path-313" class="cls-8" d="M285,219.393l2.5-1.444V235.27l-2.5-1.444Z"/>
        <path id="Path-314" class="cls-23" d="M267.5,243.93,285,233.826l2.5,1.444-20,11.547Z"/>
      </g>
    </g>
    <g id="Group-77">
      <g id="Group-78">
        <path id="Path-315" class="cls-22" d="M177.5,165.988l25-14.434v17.321l-25,14.433Z"/>
        <path id="Path-316" class="cls-13" d="M177.5,165.988l10-5.774v17.321l-10,5.773Z"/>
        <path id="Path-317" class="cls-13" d="M190,158.771l10-5.774v17.321l-10,5.773Z"/>
        <path id="Path-318" class="cls-8" d="M200,152.997l2.5-1.443v17.321l-2.5,1.443Z"/>
        <path id="Path-319" class="cls-23" d="M177.5,180.422,200,167.431l2.5,1.444-25,14.433Z"/>
      </g>
      <g id="Group-79">
        <path id="Path-320" class="cls-22" d="M237.5,131.347l25-14.434v17.321l-25,14.433Z"/>
        <path id="Path-321" class="cls-13" d="M237.5,131.347l10-5.774v17.321l-10,5.773Z"/>
        <path id="Path-322" class="cls-13" d="M250,124.13l10-5.774v17.321l-10,5.773Z"/>
        <path id="Path-323" class="cls-8" d="M260,118.356l2.5-1.443v17.321l-2.5,1.443Z"/>
        <path id="Path-324" class="cls-23" d="M237.5,145.781,260,132.79l2.5,1.444-25,14.433Z"/>
      </g>
      <g id="Group-80">
        <path id="Path-325" class="cls-22" d="M207.5,148.667l25-14.433v17.32l-25,14.434Z"/>
        <path id="Path-326" class="cls-13" d="M207.5,148.667l10-5.773v17.32l-10,5.774Z"/>
        <path id="Path-327" class="cls-13" d="M220,141.45l10-5.773v17.32l-10,5.774Z"/>
        <path id="Path-328" class="cls-8" d="M230,135.677l2.5-1.443v17.32l-2.5,1.443Z"/>
        <path id="Path-329" class="cls-23" d="M207.5,163.101l22.5-12.99,2.5,1.443-25,14.434Z"/>
      </g>
      <g id="Group-81">
        <path id="Path-330" class="cls-22" d="M267.5,114.026l25-14.433v17.32l-25,14.434Z"/>
        <path id="Path-331" class="cls-13" d="M267.5,114.026l10-5.773v17.32l-10,5.774Z"/>
        <path id="Path-332" class="cls-13" d="M280,106.809l10-5.773v17.32l-10,5.774Z"/>
        <path id="Path-333" class="cls-8" d="M290,101.036l2.5-1.443v17.32l-2.5,1.443Z"/>
        <path id="Path-334" class="cls-23" d="M267.5,128.46,290,115.47l2.5,1.443-25,14.434Z"/>
      </g>
      <g id="Group-82">
        <path id="Path-335" class="cls-22" d="M297.5,96.706l25-14.434V99.593l-25,14.433Z"/>
        <path id="Path-336" class="cls-13" d="M297.5,96.706l10-5.774v17.321l-10,5.773Z"/>
        <path id="Path-337" class="cls-13" d="M310,89.489l10-5.774v17.321l-10,5.773Z"/>
        <path id="Path-338" class="cls-8" d="M320,83.715l2.5-1.443V99.593l-2.5,1.443Z"/>
        <path id="Path-339" class="cls-23" d="M297.5,111.14,320,98.149l2.5,1.444-25,14.433Z"/>
      </g>
    </g>
    <g id="Group-83">
      <g id="Group-84">
        <path id="Path-340" class="cls-22" d="M177.5,212.176l25-14.434v17.321l-25,14.433Z"/>
        <path id="Path-341" class="cls-13" d="M177.5,212.176l10-5.774v17.321l-10,5.773Z"/>
        <path id="Path-342" class="cls-13" d="M190,204.959l10-5.774v17.321l-10,5.773Z"/>
        <path id="Path-343" class="cls-8" d="M200,199.185l2.5-1.443v17.321l-2.5,1.443Z"/>
        <path id="Path-344" class="cls-23" d="M177.5,226.61,200,213.619l2.5,1.444-25,14.433Z"/>
      </g>
      <g id="Group-85">
        <path id="Path-345" class="cls-22" d="M237.5,177.535l25-14.434v17.321l-25,14.433Z"/>
        <path id="Path-346" class="cls-13" d="M237.5,177.535l10-5.774v17.321l-10,5.773Z"/>
        <path id="Path-347" class="cls-13" d="M250,170.318l10-5.774v17.321l-10,5.773Z"/>
        <path id="Path-348" class="cls-8" d="M260,164.544l2.5-1.443v17.321l-2.5,1.443Z"/>
        <path id="Path-349" class="cls-23" d="M237.5,191.969,260,178.978l2.5,1.444-25,14.433Z"/>
      </g>
      <g id="Group-86">
        <path id="Path-350" class="cls-22" d="M207.5,194.855l25-14.433v17.32l-25,14.434Z"/>
        <path id="Path-351" class="cls-13" d="M207.5,194.855l10-5.773v17.32l-10,5.774Z"/>
        <path id="Path-352" class="cls-13" d="M220,187.638l10-5.773v17.32l-10,5.774Z"/>
        <path id="Path-353" class="cls-8" d="M230,181.865l2.5-1.443v17.32l-2.5,1.443Z"/>
        <path id="Path-354" class="cls-23" d="M207.5,209.289l22.5-12.99,2.5,1.443-25,14.434Z"/>
      </g>
      <g id="Group-87">
        <path id="Path-355" class="cls-22" d="M267.5,160.214l25-14.433v17.32l-25,14.434Z"/>
        <path id="Path-356" class="cls-13" d="M267.5,160.214l10-5.773v17.32l-10,5.774Z"/>
        <path id="Path-357" class="cls-13" d="M280,152.997l10-5.773v17.32l-10,5.774Z"/>
        <path id="Path-358" class="cls-8" d="M290,147.224l2.5-1.443v17.32l-2.5,1.443Z"/>
        <path id="Path-359" class="cls-23" d="M267.5,174.648l22.5-12.99,2.5,1.443-25,14.434Z"/>
      </g>
      <g id="Group-88">
        <path id="Path-360" class="cls-22" d="M297.5,142.894l25-14.434v17.321l-25,14.433Z"/>
        <path id="Path-361" class="cls-13" d="M297.5,142.894l10-5.774v17.321l-10,5.773Z"/>
        <path id="Path-362" class="cls-13" d="M310,135.677l10-5.774v17.321l-10,5.773Z"/>
        <path id="Path-363" class="cls-8" d="M320,129.903l2.5-1.443v17.321l-2.5,1.443Z"/>
        <path id="Path-364" class="cls-23" d="M297.5,157.328,320,144.337l2.5,1.444-25,14.433Z"/>
      </g>
    </g>
    <g id="Group-89">
      <g id="Group-90">
        <path id="Path-365" class="cls-22" d="M177.5,258.364l25-14.434v17.321l-25,14.433Z"/>
        <path id="Path-366" class="cls-13" d="M177.5,258.364l10-5.774v17.321l-10,5.773Z"/>
        <path id="Path-367" class="cls-13" d="M190,251.147l10-5.774v17.321l-10,5.773Z"/>
        <path id="Path-368" class="cls-8" d="M200,245.373l2.5-1.443v17.321l-2.5,1.443Z"/>
        <path id="Path-369" class="cls-23" d="M177.5,272.798,200,259.807l2.5,1.444-25,14.433Z"/>
      </g>
      <g id="Group-91">
        <path id="Path-370" class="cls-22" d="M237.5,223.723l25-14.434V226.61l-25,14.433Z"/>
        <path id="Path-371" class="cls-13" d="M237.5,223.723l10-5.774V235.27l-10,5.773Z"/>
        <path id="Path-372" class="cls-13" d="M250,216.506l10-5.774v17.321l-10,5.773Z"/>
        <path id="Path-373" class="cls-8" d="M260,210.732l2.5-1.443V226.61l-2.5,1.443Z"/>
        <path id="Path-374" class="cls-23" d="M237.5,238.157,260,225.166l2.5,1.444-25,14.433Z"/>
      </g>
      <g id="Group-92">
        <path id="Path-375" class="cls-22" d="M207.5,241.043l25-14.433v17.32l-25,14.434Z"/>
        <path id="Path-376" class="cls-13" d="M207.5,241.043l10-5.773v17.32l-10,5.774Z"/>
        <path id="Path-377" class="cls-13" d="M220,233.826l10-5.773v17.32l-10,5.774Z"/>
        <path id="Path-378" class="cls-8" d="M230,228.053l2.5-1.443v17.32l-2.5,1.443Z"/>
        <path id="Path-379" class="cls-23" d="M207.5,255.477l22.5-12.99,2.5,1.443-25,14.434Z"/>
      </g>
      <g id="Group-93">
        <path id="Path-380" class="cls-22" d="M267.5,206.402l25-14.433v17.32l-25,14.434Z"/>
        <path id="Path-381" class="cls-13" d="M267.5,206.402l10-5.773v17.32l-10,5.774Z"/>
        <path id="Path-382" class="cls-13" d="M280,199.185l10-5.773v17.32l-10,5.774Z"/>
        <path id="Path-383" class="cls-8" d="M290,193.412l2.5-1.443v17.32l-2.5,1.443Z"/>
        <path id="Path-384" class="cls-23" d="M267.5,220.836l22.5-12.99,2.5,1.443-25,14.434Z"/>
      </g>
      <g id="Group-94">
        <path id="Path-385" class="cls-22" d="M297.5,189.082l25-14.434v17.321l-25,14.433Z"/>
        <path id="Path-386" class="cls-13" d="M297.5,189.082l10-5.774v17.321l-10,5.773Z"/>
        <path id="Path-387" class="cls-13" d="M310,181.865l10-5.774v17.321l-10,5.773Z"/>
        <path id="Path-388" class="cls-8" d="M320,176.091l2.5-1.443v17.321l-2.5,1.443Z"/>
        <path id="Path-389" class="cls-23" d="M297.5,203.516,320,190.525l2.5,1.444-25,14.433Z"/>
      </g>
    </g>
    <g id="Group-95">
      <g id="Group-96">
        <path id="Path-390" class="cls-22" d="M177.5,304.552l25-14.434v17.321l-25,14.433Z"/>
        <path id="Path-391" class="cls-13" d="M177.5,304.552l10-5.774v17.321l-10,5.773Z"/>
        <path id="Path-392" class="cls-13" d="M190,297.335l10-5.773v17.32l-10,5.774Z"/>
        <path id="Path-393" class="cls-8" d="M200,291.562l2.5-1.444v17.321l-2.5,1.443Z"/>
        <path id="Path-394" class="cls-23" d="M177.5,318.986,200,305.995l2.5,1.444-25,14.433Z"/>
      </g>
      <g id="Group-97">
        <path id="Path-395" class="cls-22" d="M237.5,269.911l25-14.434v17.321l-25,14.433Z"/>
        <path id="Path-396" class="cls-13" d="M237.5,269.911l10-5.774v17.321l-10,5.773Z"/>
        <path id="Path-397" class="cls-13" d="M250,262.694l10-5.773v17.32l-10,5.774Z"/>
        <path id="Path-398" class="cls-8" d="M260,256.921l2.5-1.444v17.321l-2.5,1.443Z"/>
        <path id="Path-399" class="cls-23" d="M237.5,284.345,260,271.354l2.5,1.444-25,14.433Z"/>
      </g>
      <g id="Group-98">
        <path id="Path-400" class="cls-22" d="M207.5,287.231l25-14.433v17.32l-25,14.434Z"/>
        <path id="Path-401" class="cls-13" d="M207.5,287.231l10-5.773v17.32l-10,5.774Z"/>
        <path id="Path-402" class="cls-13" d="M220,280.015l10-5.774v17.321l-10,5.773Z"/>
        <path id="Path-403" class="cls-8" d="M230,274.241l2.5-1.443v17.32l-2.5,1.444Z"/>
        <path id="Path-404" class="cls-23" d="M207.5,301.665l22.5-12.99,2.5,1.443-25,14.434Z"/>
      </g>
      <g id="Group-99">
        <path id="Path-405" class="cls-22" d="M267.5,252.59,285,242.487v17.32l-17.5,10.104Z"/>
        <path id="Path-406" class="cls-13" d="M267.5,252.59l10-5.773v17.32l-10,5.774Z"/>
        <path id="Path-407" class="cls-13" d="M280,245.374l5-2.887v17.32l-5,2.887Z"/>
        <path id="Path-408" class="cls-8" d="M285,242.487l2.5-1.444v17.321L285,256.92Z"/>
        <path id="Path-409" class="cls-23" d="M267.5,267.024,285,256.921l2.5,1.443-20,11.547Z"/>
      </g>
    </g>
    <g id="Group-100">
      <path id="Path-410" class="cls-9" d="M162.5,142.894l-25-14.434v17.321l25,14.433Z"/>
      <path id="Path-411" class="cls-24" d="M162.5,142.894l-10-5.774v17.321l10,5.773Z"/>
      <path id="Path-412" class="cls-24" d="M150,135.677l-10-5.774v17.321l10,5.773Z"/>
      <path id="Path-413" class="cls-9" d="M140,129.903l-2.5-1.443v17.321l2.5,1.443Z"/>
      <path id="Path-414" class="cls-23" d="M162.5,157.328,140,144.337l-2.5,1.444,25,14.433Z"/>
    </g>
    <g id="Group-101">
      <path id="Path-415" class="cls-9" d="M162.5,189.082l-25-14.434v17.321l25,14.433Z"/>
      <path id="Path-416" class="cls-24" d="M162.5,189.082l-10-5.774v17.321l10,5.773Z"/>
      <path id="Path-417" class="cls-24" d="M150,181.865l-10-5.774v17.321l10,5.773Z"/>
      <path id="Path-418" class="cls-9" d="M140,176.091l-2.5-1.443v17.321l2.5,1.443Z"/>
      <path id="Path-419" class="cls-23" d="M162.5,203.516,140,190.525l-2.5,1.444,25,14.433Z"/>
    </g>
    <g id="Group-102">
      <path id="Path-420" class="cls-9" d="M162.5,235.27l-25-14.434v17.321l25,14.433Z"/>
      <path id="Path-421" class="cls-24" d="M162.5,235.27l-10-5.774v17.321l10,5.773Z"/>
      <path id="Path-422" class="cls-24" d="M150,228.053l-10-5.774V239.6l10,5.773Z"/>
      <path id="Path-423" class="cls-9" d="M140,222.279l-2.5-1.443v17.321L140,239.6Z"/>
      <path id="Path-424" class="cls-23" d="M162.5,249.704,140,236.713l-2.5,1.444,25,14.433Z"/>
    </g>
    <g id="Group-103">
      <path id="Path-425" class="cls-9" d="M162.5,281.458l-25-14.434v17.321l25,14.433Z"/>
      <path id="Path-426" class="cls-24" d="M162.5,281.458l-10-5.774v17.321l10,5.773Z"/>
      <path id="Path-427" class="cls-24" d="M150,274.241l-10-5.773v17.32l10,5.774Z"/>
      <path id="Path-428" class="cls-9" d="M140,268.468l-2.5-1.444v17.321l2.5,1.443Z"/>
      <path id="Path-429" class="cls-23" d="M162.5,295.892,140,282.901l-2.5,1.444,25,14.433Z"/>
    </g>
    <g id="Group-104">
      <path id="Path-430" class="cls-9" d="M162.5,165.988l-25-14.434v17.321l25,14.433Z"/>
      <path id="Path-431" class="cls-24" d="M162.5,165.988l-10-5.774v17.321l10,5.773Z"/>
      <path id="Path-432" class="cls-24" d="M150,158.771l-10-5.774v17.321l10,5.773Z"/>
      <path id="Path-433" class="cls-9" d="M140,152.997l-2.5-1.443v17.321l2.5,1.443Z"/>
      <path id="Path-434" class="cls-23" d="M162.5,180.422,140,167.431l-2.5,1.444,25,14.433Z"/>
    </g>
    <g id="Group-105">
      <path id="Path-435" class="cls-9" d="M162.5,212.176l-25-14.434v17.321l25,14.433Z"/>
      <path id="Path-436" class="cls-24" d="M162.5,212.176l-10-5.774v17.321l10,5.773Z"/>
      <path id="Path-437" class="cls-24" d="M150,204.959l-10-5.774v17.321l10,5.773Z"/>
      <path id="Path-438" class="cls-9" d="M140,199.185l-2.5-1.443v17.321l2.5,1.443Z"/>
      <path id="Path-439" class="cls-23" d="M162.5,226.61,140,213.619l-2.5,1.444,25,14.433Z"/>
    </g>
    <g id="Group-106">
      <path id="Path-440" class="cls-9" d="M162.5,258.364l-25-14.434v17.321l25,14.433Z"/>
      <path id="Path-441" class="cls-24" d="M162.5,258.364l-10-5.774v17.321l10,5.773Z"/>
      <path id="Path-442" class="cls-24" d="M150,251.147l-10-5.773v17.32l10,5.773Z"/>
      <path id="Path-443" class="cls-9" d="M140,245.373l-2.5-1.443v17.321l2.5,1.443Z"/>
      <path id="Path-444" class="cls-23" d="M162.5,272.798,140,259.807l-2.5,1.444,25,14.433Z"/>
    </g>
    <g id="Group-107">
      <path id="Path-445" class="cls-9" d="M162.5,304.552l-25-14.434v17.321l25,14.433Z"/>
      <path id="Path-446" class="cls-24" d="M162.5,304.552l-10-5.774v17.321l10,5.773Z"/>
      <path id="Path-447" class="cls-24" d="M150,297.335l-10-5.773v17.32l10,5.774Z"/>
      <path id="Path-448" class="cls-9" d="M140,291.562l-2.5-1.444v17.321l2.5,1.443Z"/>
      <path id="Path-449" class="cls-23" d="M162.5,318.986,140,305.995l-2.5,1.444,25,14.433Z"/>
    </g>
    <g id="Group-108">
      <path id="Path-450" class="cls-9" d="M132.5,125.573l-25-14.433v17.32l25,14.434Z"/>
      <path id="Path-451" class="cls-24" d="M132.5,125.573l-10-5.773v17.32l10,5.774Z"/>
      <path id="Path-452" class="cls-24" d="M120,118.356l-10-5.773v17.32l10,5.774Z"/>
      <path id="Path-453" class="cls-9" d="M110,112.583l-2.5-1.443v17.32l2.5,1.443Z"/>
      <path id="Path-454" class="cls-23" d="M132.5,140.007,110,127.017l-2.5,1.443,25,14.434Z"/>
    </g>
    <g id="Group-109">
      <path id="Path-455" class="cls-9" d="M132.5,171.761l-25-14.433v17.32l25,14.434Z"/>
      <path id="Path-456" class="cls-24" d="M132.5,171.761l-10-5.773v17.32l10,5.774Z"/>
      <path id="Path-457" class="cls-24" d="M120,164.544l-10-5.773v17.32l10,5.774Z"/>
      <path id="Path-458" class="cls-9" d="M110,158.771l-2.5-1.443v17.32l2.5,1.443Z"/>
      <path id="Path-459" class="cls-23" d="M132.5,186.195,110,173.205l-2.5,1.443,25,14.434Z"/>
    </g>
    <g id="Group-110">
      <path id="Path-460" class="cls-9" d="M132.5,217.949l-25-14.433v17.32l25,14.434Z"/>
      <path id="Path-461" class="cls-24" d="M132.5,217.949l-10-5.773v17.32l10,5.774Z"/>
      <path id="Path-462" class="cls-24" d="M120,210.732l-10-5.773v17.32l10,5.774Z"/>
      <path id="Path-463" class="cls-9" d="M110,204.959l-2.5-1.443v17.32l2.5,1.443Z"/>
      <path id="Path-464" class="cls-23" d="M132.5,232.383,110,219.393l-2.5,1.443,25,14.434Z"/>
    </g>
    <g id="Group-111">
      <path id="Path-465" class="cls-9" d="M132.5,264.137l-25-14.433v17.32l25,14.434Z"/>
      <path id="Path-466" class="cls-24" d="M132.5,264.137l-10-5.773v17.32l10,5.774Z"/>
      <path id="Path-467" class="cls-24" d="M120,256.921l-10-5.774v17.321l10,5.773Z"/>
      <path id="Path-468" class="cls-9" d="M110,251.147l-2.5-1.443v17.32l2.5,1.444Z"/>
      <path id="Path-469" class="cls-23" d="M132.5,278.571,110,265.581l-2.5,1.443,25,14.434Z"/>
    </g>
    <g id="Group-112">
      <path id="Path-470" class="cls-9" d="M132.5,148.667l-25-14.433v17.32l25,14.434Z"/>
      <path id="Path-471" class="cls-24" d="M132.5,148.667l-10-5.773v17.32l10,5.774Z"/>
      <path id="Path-472" class="cls-24" d="M120,141.45l-10-5.773v17.32l10,5.774Z"/>
      <path id="Path-473" class="cls-9" d="M110,135.677l-2.5-1.443v17.32l2.5,1.443Z"/>
      <path id="Path-474" class="cls-23" d="M132.5,163.101,110,150.111l-2.5,1.443,25,14.434Z"/>
    </g>
    <g id="Group-113">
      <path id="Path-475" class="cls-9" d="M132.5,194.855l-25-14.433v17.32l25,14.434Z"/>
      <path id="Path-476" class="cls-24" d="M132.5,194.855l-10-5.773v17.32l10,5.774Z"/>
      <path id="Path-477" class="cls-24" d="M120,187.638l-10-5.773v17.32l10,5.774Z"/>
      <path id="Path-478" class="cls-9" d="M110,181.865l-2.5-1.443v17.32l2.5,1.443Z"/>
      <path id="Path-479" class="cls-23" d="M132.5,209.289,110,196.299l-2.5,1.443,25,14.434Z"/>
    </g>
    <g id="Group-114">
      <path id="Path-480" class="cls-9" d="M132.5,241.043l-25-14.433v17.32l25,14.434Z"/>
      <path id="Path-481" class="cls-24" d="M132.5,241.043l-10-5.773v17.32l10,5.774Z"/>
      <path id="Path-482" class="cls-24" d="M120,233.826l-10-5.773v17.32l10,5.774Z"/>
      <path id="Path-483" class="cls-9" d="M110,228.053l-2.5-1.443v17.32l2.5,1.444Z"/>
      <path id="Path-484" class="cls-23" d="M132.5,255.477,110,242.487l-2.5,1.443,25,14.434Z"/>
    </g>
    <g id="Group-115">
      <path id="Path-485" class="cls-9" d="M132.5,287.231l-25-14.433v17.32l25,14.434Z"/>
      <path id="Path-486" class="cls-24" d="M132.5,287.231l-10-5.773v17.32l10,5.774Z"/>
      <path id="Path-487" class="cls-24" d="M120,280.015l-10-5.774v17.321l10,5.773Z"/>
      <path id="Path-488" class="cls-9" d="M110,274.241l-2.5-1.443v17.32l2.5,1.444Z"/>
      <path id="Path-489" class="cls-23" d="M132.5,301.665,110,288.675l-2.5,1.443,25,14.434Z"/>
    </g>
    <g id="Group-116">
      <path id="Path-490" class="cls-24" d="M175,360.844l25-14.434v17.32l-25,14.434Z"/>
      <path id="Path-491" class="cls-13" d="M175,360.844l10-5.774v17.321l-10,5.773Z"/>
      <path id="Path-492" class="cls-13" d="M187.5,353.627l10-5.774v17.321l-10,5.773Z"/>
      <path id="Path-493" class="cls-4" d="M197.5,347.853l2.5-1.443v17.32l-2.5,1.444Z"/>
      <path id="Path-494" class="cls-25" d="M175,375.277l22.5-12.99,2.5,1.443-25,14.434Z"/>
    </g>
    <g id="Group-117">
      <g id="Group-118">
        <path id="Path-495" d="M140,360.844h22.5v17.32H140Z"/>
        <path id="Path-496" class="cls-2" d="M137.5,360.844H150v17.32H137.5Z"/>
        <path id="Path-497" class="cls-2" d="M152.5,360.844H165v17.32H152.5Z"/>
        <path id="Path-498" class="cls-25" d="M137.5,375.277H165v2.887H137.5Z"/>
      </g>
      <g id="Group-119">
        <path id="Path-499" d="M107.5,360.844H130v17.32H107.5Z"/>
        <path id="Path-500" class="cls-2" d="M105,360.844h12.5v17.32H105Z"/>
        <path id="Path-501" class="cls-2" d="M120,360.844h12.5v17.32H120Z"/>
        <path id="Path-502" class="cls-25" d="M105,375.277h27.5v2.887H105Z"/>
      </g>
      <g id="Group-120">
        <path id="Path-503" d="M75,360.844H97.5v17.32H75Z"/>
        <path id="Path-504" class="cls-2" d="M72.5,360.844H85v17.32H72.5Z"/>
        <path id="Path-505" class="cls-2" d="M87.5,360.844H100v17.32H87.5Z"/>
        <path id="Path-506" class="cls-25" d="M72.5,375.277H100v2.887H72.5Z"/>
      </g>
      <g id="Group-121">
        <path id="Path-507" d="M42.5,360.844H65v17.32H42.5Z"/>
        <path id="Path-508" class="cls-2" d="M40,360.844H52.5v17.32H40Z"/>
        <path id="Path-509" class="cls-2" d="M55,360.844H67.5v17.32H55Z"/>
        <path id="Path-510" class="cls-25" d="M40,375.277H67.5v2.887H40Z"/>
      </g>
      <g id="Group-122">
        <path id="Path-511" d="M10,360.844H32.5v17.32H10Z"/>
        <path id="Path-512" class="cls-2" d="M7.5,360.844H20v17.32H7.5Z"/>
        <path id="Path-513" class="cls-2" d="M22.5,360.844H35v17.32H22.5Z"/>
        <path id="Path-514" class="cls-25" d="M7.5,375.277H35v2.887H7.5Z"/>
      </g>
    </g>
    <g id="Group-123">
      <g id="Group-124">
        <path id="Path-515" d="M140,383.938h22.5v17.32H140Z"/>
        <path id="Path-516" class="cls-2" d="M137.5,383.938H150v17.32H137.5Z"/>
        <path id="Path-517" class="cls-2" d="M152.5,383.938H165v17.32H152.5Z"/>
        <path id="Path-518" class="cls-25" d="M137.5,398.371H165v2.887H137.5Z"/>
      </g>
      <g id="Group-125">
        <path id="Path-519" d="M107.5,383.938H130v17.32H107.5Z"/>
        <path id="Path-520" class="cls-2" d="M105,383.938h12.5v17.32H105Z"/>
        <path id="Path-521" class="cls-2" d="M120,383.938h12.5v17.32H120Z"/>
        <path id="Path-522" class="cls-25" d="M105,398.371h27.5v2.887H105Z"/>
      </g>
      <g id="Group-126">
        <path id="Path-523" d="M75,383.938H97.5v17.32H75Z"/>
        <path id="Path-524" class="cls-2" d="M72.5,383.938H85v17.32H72.5Z"/>
        <path id="Path-525" class="cls-2" d="M87.5,383.938H100v17.32H87.5Z"/>
        <path id="Path-526" class="cls-25" d="M72.5,398.371H100v2.887H72.5Z"/>
      </g>
      <g id="Group-127">
        <path id="Path-527" d="M42.5,383.938H65v17.32H42.5Z"/>
        <path id="Path-528" class="cls-2" d="M40,383.938H52.5v17.32H40Z"/>
        <path id="Path-529" class="cls-2" d="M55,383.938H67.5v17.32H55Z"/>
        <path id="Path-530" class="cls-25" d="M40,398.371H67.5v2.887H40Z"/>
      </g>
      <g id="Group-128">
        <path id="Path-531" d="M10,383.938H32.5v17.32H10Z"/>
        <path id="Path-532" class="cls-2" d="M7.5,383.938H20v17.32H7.5Z"/>
        <path id="Path-533" class="cls-2" d="M22.5,383.938H35v17.32H22.5Z"/>
        <path id="Path-534" class="cls-25" d="M7.5,398.371H35v2.887H7.5Z"/>
      </g>
    </g>
    <g id="Group-129">
      <g id="Group-130">
        <path id="Path-535" d="M140,407.032h22.5v17.32H140Z"/>
        <path id="Path-536" class="cls-2" d="M137.5,407.032H150v17.32H137.5Z"/>
        <path id="Path-537" class="cls-2" d="M152.5,407.032H165v17.32H152.5Z"/>
        <path id="Path-538" class="cls-25" d="M137.5,421.465H165v2.887H137.5Z"/>
      </g>
      <g id="Group-131">
        <path id="Path-539" d="M107.5,407.032H130v17.32H107.5Z"/>
        <path id="Path-540" class="cls-2" d="M105,407.032h12.5v17.32H105Z"/>
        <path id="Path-541" class="cls-2" d="M120,407.032h12.5v17.32H120Z"/>
        <path id="Path-542" class="cls-25" d="M105,421.465h27.5v2.887H105Z"/>
      </g>
      <g id="Group-132">
        <path id="Path-543" d="M75,407.032H97.5v17.32H75Z"/>
        <path id="Path-544" class="cls-2" d="M72.5,407.032H85v17.32H72.5Z"/>
        <path id="Path-545" class="cls-2" d="M87.5,407.032H100v17.32H87.5Z"/>
        <path id="Path-546" class="cls-25" d="M72.5,421.465H100v2.887H72.5Z"/>
      </g>
      <g id="Group-133">
        <path id="Path-547" d="M42.5,407.032H65v17.32H42.5Z"/>
        <path id="Path-548" class="cls-2" d="M40,407.032H52.5v17.32H40Z"/>
        <path id="Path-549" class="cls-2" d="M55,407.032H67.5v17.32H55Z"/>
        <path id="Path-550" class="cls-25" d="M40,421.465H67.5v2.887H40Z"/>
      </g>
      <g id="Group-134">
        <path id="Path-551" d="M10,407.032H32.5v17.32H10Z"/>
        <path id="Path-552" class="cls-2" d="M7.5,407.032H20v17.32H7.5Z"/>
        <path id="Path-553" class="cls-2" d="M22.5,407.032H35v17.32H22.5Z"/>
        <path id="Path-554" class="cls-25" d="M7.5,421.465H35v2.887H7.5Z"/>
      </g>
    </g>
    <g id="Group-135">
      <g id="Group-136">
        <path id="Path-555" d="M140,430.126h22.5v17.32H140Z"/>
        <path id="Path-556" class="cls-2" d="M137.5,430.126H150v17.32H137.5Z"/>
        <path id="Path-557" class="cls-2" d="M152.5,430.126H165v17.32H152.5Z"/>
        <path id="Path-558" class="cls-25" d="M137.5,444.559H165v2.887H137.5Z"/>
      </g>
      <g id="Group-137">
        <path id="Path-559" d="M107.5,430.126H130v17.32H107.5Z"/>
        <path id="Path-560" class="cls-2" d="M105,430.126h12.5v17.32H105Z"/>
        <path id="Path-561" class="cls-2" d="M120,430.126h12.5v17.32H120Z"/>
        <path id="Path-562" class="cls-25" d="M105,444.559h27.5v2.887H105Z"/>
      </g>
      <g id="Group-138">
        <path id="Path-563" d="M75,430.126H97.5v17.32H75Z"/>
        <path id="Path-564" class="cls-2" d="M72.5,430.126H85v17.32H72.5Z"/>
        <path id="Path-565" class="cls-2" d="M87.5,430.126H100v17.32H87.5Z"/>
        <path id="Path-566" class="cls-25" d="M72.5,444.559H100v2.887H72.5Z"/>
      </g>
      <g id="Group-139">
        <path id="Path-567" d="M42.5,430.126H65v17.32H42.5Z"/>
        <path id="Path-568" class="cls-2" d="M40,430.126H52.5v17.32H40Z"/>
        <path id="Path-569" class="cls-2" d="M55,430.126H67.5v17.32H55Z"/>
        <path id="Path-570" class="cls-25" d="M40,444.559H67.5v2.887H40Z"/>
      </g>
      <g id="Group-140">
        <path id="Path-571" d="M10,430.126H32.5v17.32H10Z"/>
        <path id="Path-572" class="cls-2" d="M7.5,430.126H20v17.32H7.5Z"/>
        <path id="Path-573" class="cls-2" d="M22.5,430.126H35v17.32H22.5Z"/>
        <path id="Path-574" class="cls-25" d="M7.5,444.559H35v2.887H7.5Z"/>
      </g>
    </g>
    <g id="Group-141">
      <g id="Group-142">
        <path id="Path-575" d="M140,453.22h22.5v17.32H140Z"/>
        <path id="Path-576" class="cls-2" d="M137.5,453.22H150v17.32H137.5Z"/>
        <path id="Path-577" class="cls-2" d="M152.5,453.22H165v17.32H152.5Z"/>
        <path id="Path-578" class="cls-25" d="M137.5,467.653H165v2.887H137.5Z"/>
      </g>
      <g id="Group-143">
        <path id="Path-579" d="M107.5,453.22H130v17.32H107.5Z"/>
        <path id="Path-580" class="cls-2" d="M105,453.22h12.5v17.32H105Z"/>
        <path id="Path-581" class="cls-2" d="M120,453.22h12.5v17.32H120Z"/>
        <path id="Path-582" class="cls-25" d="M105,467.653h27.5v2.887H105Z"/>
      </g>
      <g id="Group-144">
        <path id="Path-583" d="M75,453.22H97.5v17.32H75Z"/>
        <path id="Path-584" class="cls-2" d="M72.5,453.22H85v17.32H72.5Z"/>
        <path id="Path-585" class="cls-2" d="M87.5,453.22H100v17.32H87.5Z"/>
        <path id="Path-586" class="cls-25" d="M72.5,467.653H100v2.887H72.5Z"/>
      </g>
      <g id="Group-145">
        <path id="Path-587" d="M42.5,453.22H65v17.32H42.5Z"/>
        <path id="Path-588" class="cls-2" d="M40,453.22H52.5v17.32H40Z"/>
        <path id="Path-589" class="cls-2" d="M55,453.22H67.5v17.32H55Z"/>
        <path id="Path-590" class="cls-25" d="M40,467.653H67.5v2.887H40Z"/>
      </g>
      <g id="Group-146">
        <path id="Path-591" d="M10,453.22H32.5v17.32H10Z"/>
        <path id="Path-592" class="cls-2" d="M7.5,453.22H20v17.32H7.5Z"/>
        <path id="Path-593" class="cls-2" d="M22.5,453.22H35v17.32H22.5Z"/>
        <path id="Path-594" class="cls-25" d="M7.5,467.653H35v2.887H7.5Z"/>
      </g>
    </g>
    <g id="Group-147">
      <g id="Group-148">
        <path id="Path-595" d="M140,476.314h22.5v17.32H140Z"/>
        <path id="Path-596" class="cls-2" d="M137.5,476.314H150v17.32H137.5Z"/>
        <path id="Path-597" class="cls-2" d="M152.5,476.314H165v17.32H152.5Z"/>
        <path id="Path-598" class="cls-25" d="M137.5,490.747H165v2.887H137.5Z"/>
      </g>
      <g id="Group-149">
        <path id="Path-599" d="M107.5,476.314H130v17.32H107.5Z"/>
        <path id="Path-600" class="cls-2" d="M105,476.314h12.5v17.32H105Z"/>
        <path id="Path-601" class="cls-2" d="M120,476.314h12.5v17.32H120Z"/>
        <path id="Path-602" class="cls-25" d="M105,490.747h27.5v2.887H105Z"/>
      </g>
      <g id="Group-150">
        <path id="Path-603" d="M75,476.314H97.5v17.32H75Z"/>
        <path id="Path-604" class="cls-2" d="M72.5,476.314H85v17.32H72.5Z"/>
        <path id="Path-605" class="cls-2" d="M87.5,476.314H100v17.32H87.5Z"/>
        <path id="Path-606" class="cls-25" d="M72.5,490.747H100v2.887H72.5Z"/>
      </g>
      <g id="Group-151">
        <path id="Path-607" d="M42.5,476.314H65v17.32H42.5Z"/>
        <path id="Path-608" class="cls-2" d="M40,476.314H52.5v17.32H40Z"/>
        <path id="Path-609" class="cls-2" d="M55,476.314H67.5v17.32H55Z"/>
        <path id="Path-610" class="cls-25" d="M40,490.747H67.5v2.887H40Z"/>
      </g>
      <g id="Group-152">
        <path id="Path-611" d="M10,476.314H32.5v17.32H10Z"/>
        <path id="Path-612" class="cls-2" d="M7.5,476.314H20v17.32H7.5Z"/>
        <path id="Path-613" class="cls-2" d="M22.5,476.314H35v17.32H22.5Z"/>
        <path id="Path-614" class="cls-25" d="M7.5,490.747H35v2.887H7.5Z"/>
      </g>
    </g>
    <g id="Group-153">
      <g id="Group-154">
        <path id="Path-615" d="M140,499.408h22.5v17.32H140Z"/>
        <path id="Path-616" class="cls-2" d="M137.5,499.408H150v17.32H137.5Z"/>
        <path id="Path-617" class="cls-2" d="M152.5,499.408H165v17.32H152.5Z"/>
        <path id="Path-618" class="cls-25" d="M137.5,513.841H165v2.887H137.5Z"/>
      </g>
      <g id="Group-155">
        <path id="Path-619" d="M107.5,499.408H130v17.32H107.5Z"/>
        <path id="Path-620" class="cls-2" d="M105,499.408h12.5v17.32H105Z"/>
        <path id="Path-621" class="cls-2" d="M120,499.408h12.5v17.32H120Z"/>
        <path id="Path-622" class="cls-25" d="M105,513.841h27.5v2.887H105Z"/>
      </g>
      <g id="Group-156">
        <path id="Path-623" d="M75,499.408H97.5v17.32H75Z"/>
        <path id="Path-624" class="cls-2" d="M72.5,499.408H85v17.32H72.5Z"/>
        <path id="Path-625" class="cls-2" d="M87.5,499.408H100v17.32H87.5Z"/>
        <path id="Path-626" class="cls-25" d="M72.5,513.841H100v2.887H72.5Z"/>
      </g>
      <g id="Group-157">
        <path id="Path-627" d="M42.5,499.408H65v17.32H42.5Z"/>
        <path id="Path-628" class="cls-2" d="M40,499.408H52.5v17.32H40Z"/>
        <path id="Path-629" class="cls-2" d="M55,499.408H67.5v17.32H55Z"/>
        <path id="Path-630" class="cls-25" d="M40,513.841H67.5v2.887H40Z"/>
      </g>
      <g id="Group-158">
        <path id="Path-631" d="M10,499.408H32.5v17.32H10Z"/>
        <path id="Path-632" class="cls-2" d="M7.5,499.408H20v17.32H7.5Z"/>
        <path id="Path-633" class="cls-2" d="M22.5,499.408H35v17.32H22.5Z"/>
        <path id="Path-634" class="cls-25" d="M7.5,513.841H35v2.887H7.5Z"/>
      </g>
    </g>
    <g id="Group-159">
      <g id="Group-160">
        <path id="Path-635" d="M140,522.502h22.5v17.32H140Z"/>
        <path id="Path-636" class="cls-2" d="M137.5,522.502H150v17.32H137.5Z"/>
        <path id="Path-637" class="cls-2" d="M152.5,522.502H165v17.32H152.5Z"/>
        <path id="Path-638" class="cls-25" d="M137.5,536.935H165v2.887H137.5Z"/>
      </g>
      <g id="Group-161">
        <path id="Path-639" d="M107.5,522.502H130v17.32H107.5Z"/>
        <path id="Path-640" class="cls-2" d="M105,522.502h12.5v17.32H105Z"/>
        <path id="Path-641" class="cls-2" d="M120,522.502h12.5v17.32H120Z"/>
        <path id="Path-642" class="cls-25" d="M105,536.935h27.5v2.887H105Z"/>
      </g>
      <g id="Group-162">
        <path id="Path-643" d="M75,522.502H97.5v17.32H75Z"/>
        <path id="Path-644" class="cls-2" d="M72.5,522.502H85v17.32H72.5Z"/>
        <path id="Path-645" class="cls-2" d="M87.5,522.502H100v17.32H87.5Z"/>
        <path id="Path-646" class="cls-25" d="M72.5,536.935H100v2.887H72.5Z"/>
      </g>
      <g id="Group-163">
        <path id="Path-647" d="M42.5,522.502H65v17.32H42.5Z"/>
        <path id="Path-648" class="cls-2" d="M40,522.502H52.5v17.32H40Z"/>
        <path id="Path-649" class="cls-2" d="M55,522.502H67.5v17.32H55Z"/>
        <path id="Path-650" class="cls-25" d="M40,536.935H67.5v2.887H40Z"/>
      </g>
      <g id="Group-164">
        <path id="Path-651" d="M10,522.502H32.5v17.32H10Z"/>
        <path id="Path-652" class="cls-2" d="M7.5,522.502H20v17.32H7.5Z"/>
        <path id="Path-653" class="cls-2" d="M22.5,522.502H35v17.32H22.5Z"/>
        <path id="Path-654" class="cls-25" d="M7.5,536.935H35v2.887H7.5Z"/>
      </g>
    </g>
    <g id="Group-165">
      <g id="Group-166">
        <path id="Path-655" d="M140,545.596h22.5v17.32H140Z"/>
        <path id="Path-656" class="cls-2" d="M137.5,545.596H150v17.32H137.5Z"/>
        <path id="Path-657" class="cls-2" d="M152.5,545.596H165v17.32H152.5Z"/>
        <path id="Path-658" class="cls-25" d="M137.5,560.029H165v2.887H137.5Z"/>
      </g>
      <g id="Group-167">
        <path id="Path-659" d="M107.5,545.596H130v17.32H107.5Z"/>
        <path id="Path-660" class="cls-2" d="M105,545.596h12.5v17.32H105Z"/>
        <path id="Path-661" class="cls-2" d="M120,545.596h12.5v17.32H120Z"/>
        <path id="Path-662" class="cls-25" d="M105,560.029h27.5v2.887H105Z"/>
      </g>
      <g id="Group-168">
        <path id="Path-663" d="M75,545.596H97.5v17.32H75Z"/>
        <path id="Path-664" class="cls-2" d="M72.5,545.596H85v17.32H72.5Z"/>
        <path id="Path-665" class="cls-2" d="M87.5,545.596H100v17.32H87.5Z"/>
        <path id="Path-666" class="cls-25" d="M72.5,560.029H100v2.887H72.5Z"/>
      </g>
      <g id="Group-169">
        <path id="Path-667" d="M42.5,545.596H65v17.32H42.5Z"/>
        <path id="Path-668" class="cls-2" d="M40,545.596H52.5v17.32H40Z"/>
        <path id="Path-669" class="cls-2" d="M55,545.596H67.5v17.32H55Z"/>
        <path id="Path-670" class="cls-25" d="M40,560.029H67.5v2.887H40Z"/>
      </g>
      <g id="Group-170">
        <path id="Path-671" d="M10,545.596H32.5v17.32H10Z"/>
        <path id="Path-672" class="cls-2" d="M7.5,545.596H20v17.32H7.5Z"/>
        <path id="Path-673" class="cls-2" d="M22.5,545.596H35v17.32H22.5Z"/>
        <path id="Path-674" class="cls-25" d="M7.5,560.029H35v2.887H7.5Z"/>
      </g>
    </g>
    <g id="Group-171">
      <g id="Group-172">
        <path id="Path-675" d="M140,568.69h22.5v17.32H140Z"/>
        <path id="Path-676" class="cls-2" d="M137.5,568.69H150v17.32H137.5Z"/>
        <path id="Path-677" class="cls-2" d="M152.5,568.69H165v17.32H152.5Z"/>
        <path id="Path-678" class="cls-25" d="M137.5,583.123H165v2.887H137.5Z"/>
      </g>
      <g id="Group-173">
        <path id="Path-679" d="M107.5,568.69H130v17.32H107.5Z"/>
        <path id="Path-680" class="cls-2" d="M105,568.69h12.5v17.32H105Z"/>
        <path id="Path-681" class="cls-2" d="M120,568.69h12.5v17.32H120Z"/>
        <path id="Path-682" class="cls-25" d="M105,583.123h27.5v2.887H105Z"/>
      </g>
      <g id="Group-174">
        <path id="Path-683" d="M75,568.69H97.5v17.32H75Z"/>
        <path id="Path-684" class="cls-2" d="M72.5,568.69H85v17.32H72.5Z"/>
        <path id="Path-685" class="cls-2" d="M87.5,568.69H100v17.32H87.5Z"/>
        <path id="Path-686" class="cls-25" d="M72.5,583.123H100v2.887H72.5Z"/>
      </g>
      <g id="Group-175">
        <path id="Path-687" d="M42.5,568.69H65v17.32H42.5Z"/>
        <path id="Path-688" class="cls-2" d="M40,568.69H52.5v17.32H40Z"/>
        <path id="Path-689" class="cls-2" d="M55,568.69H67.5v17.32H55Z"/>
        <path id="Path-690" class="cls-25" d="M40,583.123H67.5v2.887H40Z"/>
      </g>
      <g id="Group-176">
        <path id="Path-691" d="M10,568.69H32.5v17.32H10Z"/>
        <path id="Path-692" class="cls-2" d="M7.5,568.69H20v17.32H7.5Z"/>
        <path id="Path-693" class="cls-2" d="M22.5,568.69H35v17.32H22.5Z"/>
        <path id="Path-694" class="cls-25" d="M7.5,583.123H35v2.887H7.5Z"/>
      </g>
    </g>
    <g id="Group-177">
      <g id="Group-178">
        <path id="Path-695" d="M140,591.784h22.5v17.32H140Z"/>
        <path id="Path-696" class="cls-2" d="M137.5,591.784H150v17.32H137.5Z"/>
        <path id="Path-697" class="cls-2" d="M152.5,591.784H165v17.32H152.5Z"/>
        <path id="Path-698" class="cls-25" d="M137.5,606.217H165v2.887H137.5Z"/>
      </g>
      <g id="Group-179">
        <path id="Path-699" d="M107.5,591.784H130v17.32H107.5Z"/>
        <path id="Path-700" class="cls-2" d="M105,591.784h12.5v17.32H105Z"/>
        <path id="Path-701" class="cls-2" d="M120,591.784h12.5v17.32H120Z"/>
        <path id="Path-702" class="cls-25" d="M105,606.217h27.5v2.887H105Z"/>
      </g>
      <g id="Group-180">
        <path id="Path-703" d="M75,591.784H97.5v17.32H75Z"/>
        <path id="Path-704" class="cls-2" d="M72.5,591.784H85v17.32H72.5Z"/>
        <path id="Path-705" class="cls-2" d="M87.5,591.784H100v17.32H87.5Z"/>
        <path id="Path-706" class="cls-25" d="M72.5,606.217H100v2.887H72.5Z"/>
      </g>
      <g id="Group-181">
        <path id="Path-707" d="M42.5,591.784H65v17.32H42.5Z"/>
        <path id="Path-708" class="cls-2" d="M40,591.784H52.5v17.32H40Z"/>
        <path id="Path-709" class="cls-2" d="M55,591.784H67.5v17.32H55Z"/>
        <path id="Path-710" class="cls-25" d="M40,606.217H67.5v2.887H40Z"/>
      </g>
      <g id="Group-182">
        <path id="Path-711" d="M10,591.784H32.5v17.32H10Z"/>
        <path id="Path-712" class="cls-2" d="M7.5,591.784H20v17.32H7.5Z"/>
        <path id="Path-713" class="cls-2" d="M22.5,591.784H35v17.32H22.5Z"/>
        <path id="Path-714" class="cls-25" d="M7.5,606.217H35v2.887H7.5Z"/>
      </g>
    </g>
    <g id="Group-183">
      <path id="Path-715" class="cls-24" d="M175,383.938l25-14.434v17.32l-25,14.434Z"/>
      <path id="Path-716" class="cls-13" d="M175,383.938l10-5.774v17.321l-10,5.773Z"/>
      <path id="Path-717" class="cls-13" d="M187.5,376.721l10-5.774v17.321l-10,5.773Z"/>
      <path id="Path-718" class="cls-4" d="M197.5,370.947l2.5-1.443v17.32l-2.5,1.444Z"/>
      <path id="Path-719" class="cls-25" d="M175,398.371l22.5-12.99,2.5,1.443-25,14.434Z"/>
    </g>
    <g id="Group-184">
      <path id="Path-720" class="cls-24" d="M175,407.032l25-14.434v17.32l-25,14.434Z"/>
      <path id="Path-721" class="cls-13" d="M175,407.032l10-5.774v17.321l-10,5.7731Z"/>
      <path id="Path-722" class="cls-13" d="M187.5,399.815l10-5.774v17.321l-10,5.773Z"/>
      <path id="Path-723" class="cls-4" d="M197.5,394.041l2.5-1.443v17.32l-2.5,1.444Z"/>
      <path id="Path-724" class="cls-25" d="M175,421.465l22.5-12.99,2.5,1.443-25,14.434Z"/>
    </g>
    <g id="Group-185">
      <path id="Path-725" class="cls-24" d="M175,430.126l25-14.434v17.32l-25,14.434Z"/>
      <path id="Path-726" class="cls-13" d="M175,430.126l10-5.774v17.321l-10,5.773Z"/>
      <path id="Path-727" class="cls-13" d="M187.5,422.909l10-5.774v17.321l-10,5.773Z"/>
      <path id="Path-728" class="cls-4" d="M197.5,417.135l2.5-1.443v17.32l-2.5,1.444Z"/>
      <path id="Path-729" class="cls-25" d="M175,444.559l22.5-12.99,2.5,1.443-25,14.434Z"/>
    </g>
    <g id="Group-186">
      <path id="Path-730" class="cls-24" d="M175,453.22l25-14.434v17.32L175,470.54Z"/>
      <path id="Path-731" class="cls-13" d="M175,453.22l10-5.774v17.321l-10,5.773Z"/>
      <path id="Path-732" class="cls-13" d="M187.5,446.003l10-5.774V457.55l-10,5.773Z"/>
      <path id="Path-733" class="cls-4" d="M197.5,440.229l2.5-1.443v17.32l-2.5,1.444Z"/>
      <path id="Path-734" class="cls-25" d="M175,467.653l22.5-12.99,2.5,1.443L175,470.54Z"/>
    </g>
    <g id="Group-187">
      <path id="Path-735" class="cls-24" d="M175,476.314l25-14.434V479.2l-25,14.434Z"/>
      <path id="Path-736" class="cls-13" d="M175,476.314l10-5.774v17.321l-10,5.773Z"/>
      <path id="Path-737" class="cls-13" d="M187.5,469.097l10-5.774v17.321l-10,5.773Z"/>
      <path id="Path-738" class="cls-4" d="M197.5,463.323l2.5-1.443V479.2l-2.5,1.444Z"/>
      <path id="Path-739" class="cls-14" d="M175,424.352l-5,2.887v75.055l5-2.886Z"/>
      <path id="Path-740" class="cls-25" d="M175,490.747l22.5-12.99L200,479.2l-25,14.434Z"/>
    </g>
    <g id="Group-188">
      <path id="Path-741" class="cls-24" d="M175,499.408l25-14.434v17.32l-25,14.434Z"/>
      <path id="Path-742" class="cls-13" d="M175,499.408l10-5.774v17.321l-10,5.773Z"/>
      <path id="Path-743" class="cls-13" d="M187.5,492.191l10-5.774v17.321l-10,5.773Z"/>
      <path id="Path-744" class="cls-26" d="M197.5,486.417l2.5-1.443v17.32l-2.5,1.444Z"/>
      <path id="Path-745" class="cls-25" d="M175,513.841l22.5-12.99,2.5,1.443-25,14.434Z"/>
    </g>
    <g id="Group-189">
      <path id="Path-746" class="cls-24" d="M175,522.502l25-14.434v17.32l-25,14.434Z"/>
      <path id="Path-747" class="cls-13" d="M175,522.502l10-5.774v17.321l-10,5.773Z"/>
      <path id="Path-748" class="cls-13" d="M187.5,515.285l10-5.774v17.321l-10,5.773Z"/>
      <path id="Path-749" class="cls-26" d="M197.5,509.511l2.5-1.443v17.32l-2.5,1.444Z"/>
      <path id="Path-750" class="cls-25" d="M175,536.935l22.5-12.99,2.5,1.443-25,14.434Z"/>
    </g>
    <g id="Group-190">
      <path id="Path-751" class="cls-24" d="M175,545.596l25-14.434v17.32l-25,14.434Z"/>
      <path id="Path-752" class="cls-13" d="M175,545.596l10-5.774v17.321l-10,5.773Z"/>
      <path id="Path-753" class="cls-13" d="M187.5,538.379l10-5.774v17.321l-10,5.773Z"/>
      <path id="Path-754" class="cls-26" d="M197.5,532.605l2.5-1.443v17.32l-2.5,1.444Z"/>
      <path id="Path-755" class="cls-25" d="M175,560.029l22.5-12.99,2.5,1.443-25,14.434Z"/>
    </g>
    <g id="Group-191">
      <path id="Path-756" class="cls-24" d="M175,568.69l25-14.434v17.32L175,586.01Z"/>
      <path id="Path-757" class="cls-13" d="M175,568.69l10-5.774v17.321l-10,5.773Z"/>
      <path id="Path-758" class="cls-13" d="M187.5,561.473l10-5.774V573.02l-10,5.773Z"/>
      <path id="Path-759" class="cls-4" d="M195,557.143l2.5-1.444V573.02l-2.5,1.443Z"/>
      <path id="Path-760" class="cls-25" d="M175,583.123l20-11.547,2.5,1.444L175,586.01Z"/>
    </g>
    <g id="Group-192">
      <path id="Path-761" class="cls-24" d="M175,591.784l25-14.434v17.32l-25,14.434Z"/>
      <path id="Path-762" class="cls-13" d="M175,591.784l10-5.774v17.321l-10,5.773Z"/>
      <path id="Path-763" class="cls-13" d="M187.5,584.567l10-5.774v17.321l-10,5.773Z"/>
      <path id="Path-764" class="cls-4" d="M195,580.237l2.5-1.444v17.321l-2.5,1.443Z"/>
      <path id="Path-765" class="cls-25" d="M175,606.217l20-11.547,2.5,1.444L175,609.104Z"/>
    </g>
    <g id="Group-193">
      <path id="Path-766" class="cls-24" d="M205,343.523l25-14.434V346.41l-25,14.434Z"/>
      <path id="Path-767" class="cls-13" d="M205,343.523l10-5.773v17.32l-10,5.774Z"/>
      <path id="Path-768" class="cls-13" d="M217.5,336.306l10-5.773v17.32l-10,5.774Z"/>
      <path id="Path-769" class="cls-4" d="M227.5,330.533l2.5-1.444V346.41l-2.5,1.443Z"/>
      <path id="Path-770" class="cls-25" d="M205,357.957l22.5-12.991,2.5,1.444-25,14.434Z"/>
    </g>
    <g id="Group-194">
      <path id="Path-771" class="cls-24" d="M205,366.617l25-14.434v17.321l-25,14.434Z"/>
      <path id="Path-772" class="cls-13" d="M205,366.617l10-5.773v17.32l-10,5.774Z"/>
      <path id="Path-773" class="cls-13" d="M217.5,359.4l10-5.773v17.32l-10,5.774Z"/>
      <path id="Path-774" class="cls-4" d="M227.5,353.627l2.5-1.444v17.321l-2.5,1.443Z"/>
      <path id="Path-775" class="cls-25" d="M205,381.051l22.5-12.991,2.5,1.444-25,14.434Z"/>
    </g>
    <g id="Group-195">
      <path id="Path-776" class="cls-24" d="M205,389.711l25-14.434v17.321l-25,14.434Z"/>
      <path id="Path-777" class="cls-13" d="M205,389.711l10-5.773v17.32l-10,5.774Z"/>
      <path id="Path-778" class="cls-13" d="M217.5,382.494l10-5.773v17.32l-10,5.774Z"/>
      <path id="Path-779" class="cls-4" d="M227.5,376.721l2.5-1.444v17.321l-2.5,1.443Z"/>
      <path id="Path-780" class="cls-25" d="M205,404.145l22.5-12.991,2.5,1.444-25,14.434Z"/>
    </g>
    <g id="Group-196">
      <path id="Path-781" class="cls-24" d="M205,412.805l25-14.434v17.321l-25,14.434Z"/>
      <path id="Path-782" class="cls-13" d="M205,412.805l10-5.773v17.32l-10,5.774Z"/>
      <path id="Path-783" class="cls-13" d="M217.5,405.588l10-5.773v17.32l-10,5.774Z"/>
      <path id="Path-784" class="cls-26" d="M227.5,399.815l2.5-1.444v17.321l-2.5,1.443Z"/>
      <path id="Path-785" class="cls-25" d="M205,427.239l22.5-12.991,2.5,1.444-25,14.434Z"/>
    </g>
    <g id="Group-197">
      <path id="Path-786" class="cls-24" d="M205,435.899l25-14.434v17.321L205,453.22Z"/>
      <path id="Path-787" class="cls-13" d="M205,435.899l10-5.773v17.32l-10,5.774Z"/>
      <path id="Path-788" class="cls-13" d="M217.5,428.682l10-5.773v17.32l-10,5.774Z"/>
      <path id="Path-789" class="cls-26" d="M227.5,422.909l2.5-1.444v17.321l-2.5,1.443Z"/>
      <path id="Path-790" class="cls-25" d="M205,450.333l22.5-12.991,2.5,1.444L205,453.22Z"/>
    </g>
    <g id="Group-198">
      <path id="Path-791" class="cls-24" d="M205,458.993l25-14.434V461.88l-25,14.434Z"/>
      <path id="Path-792" class="cls-13" d="M205,458.993l10-5.773v17.32l-10,5.774Z"/>
      <path id="Path-793" class="cls-13" d="M217.5,451.776l10-5.773v17.32l-10,5.774Z"/>
      <path id="Path-794" class="cls-26" d="M227.5,446.003l2.5-1.444V461.88l-2.5,1.443Z"/>
      <path id="Path-795" class="cls-25" d="M205,473.427l22.5-12.991,2.5,1.444-25,14.434Z"/>
    </g>
    <g id="Group-199">
      <path id="Path-796" class="cls-24" d="M205,482.087l25-14.434v17.321l-25,14.434Z"/>
      <path id="Path-797" class="cls-13" d="M205,482.087l10-5.773v17.32l-10,5.774Z"/>
      <path id="Path-798" class="cls-13" d="M217.5,474.87l10-5.773v17.32l-10,5.774Z"/>
      <path id="Path-799" class="cls-26" d="M227.5,469.097l2.5-1.444v17.321l-2.5,1.443Z"/>
      <path id="Path-800" class="cls-25" d="M205,496.521l22.5-12.991,2.5,1.444-25,14.434Z"/>
    </g>
    <g id="Group-200">
      <path id="Path-801" class="cls-24" d="M205,505.181l25-14.434v17.321l-25,14.434Z"/>
      <path id="Path-802" class="cls-13" d="M205,505.181l10-5.773v17.32l-10,5.774Z"/>
      <path id="Path-803" class="cls-13" d="M217.5,497.964l10-5.773v17.32l-10,5.774Z"/>
      <path id="Path-804" class="cls-26" d="M227.5,492.191l2.5-1.444v17.321l-2.5,1.443Z"/>
      <path id="Path-805" class="cls-25" d="M205,519.615l22.5-12.991,2.5,1.444-25,14.434Z"/>
    </g>
    <g id="Group-201">
      <path id="Path-806" class="cls-24" d="M205,528.275l25-14.434v17.321l-25,14.434Z"/>
      <path id="Path-807" class="cls-13" d="M205,528.275l10-5.773v17.32l-10,5.774Z"/>
      <path id="Path-808" class="cls-13" d="M217.5,521.058l10-5.773v17.32l-10,5.774Z"/>
      <path id="Path-809" class="cls-26" d="M227.5,515.285l2.5-1.444v17.321l-2.5,1.443Z"/>
      <path id="Path-810" class="cls-25" d="M205,542.709l22.5-12.99,2.5,1.443-25,14.434Z"/>
    </g>
    <g id="Group-202">
      <path id="Path-811" class="cls-24" d="M205,551.369l25-14.434v17.321L205,568.69Z"/>
      <path id="Path-812" class="cls-13" d="M205,551.369l10-5.773v17.32l-10,5.774Z"/>
      <path id="Path-813" class="cls-13" d="M217.5,544.152l10-5.773v17.32l-10,5.774Z"/>
      <path id="Path-814" class="cls-4" d="M227.5,538.379l2.5-1.4439V554.256l-2.5,1.443Z"/>
      <path id="Path-815" class="cls-25" d="M205,565.803l22.5-12.99,2.5,1.443L205,568.69Z"/>
    </g>
    <g id="Group-203">
      <path id="Path-816" class="cls-24" d="M205,574.463l25-14.434V577.35l-25,14.434Z"/>
      <path id="Path-817" class="cls-13" d="M205,574.463l10-5.773v17.32l-10,5.774Z"/>
      <path id="Path-818" class="cls-13" d="M217.5,567.246l10-5.773v17.32l-10,5.774Z"/>
      <path id="Path-819" class="cls-4" d="M227.5,561.473l2.5-1.4439V577.35l-2.5,1.443Z"/>
      <path id="Path-820" class="cls-25" d="M205,588.897l22.5-12.99,2.5,1.443-25,14.434Z"/>
    </g>
    <path id="Path-821" class="cls-14" d="M205,482.087l-5,2.887V334.863l5-2.887Z"/>
    <path id="Path-822" class="cls-14" d="M230,317.542l5-2.887v80.83l-5,2.886Z"/>
    <path id="Path-823" class="cls-14" d="M197.5,486.417l7.5-4.33v69.282l-5,2.887V594.67l-2.5,1.444Z"/>
    <path id="Path-824" class="cls-14" d="M232.5,460.436l2.5-1.443v72.169l-2.5,1.443Z"/>
    <path id="Path-825" class="cls-14" d="M230,531.162l5-2.887v46.188l-5,2.887Z"/>
    <path id="Path-826" class="cls-4" d="M197.5,503.738V486.417l-2.5,1.444v14.433Z"/>
    <path id="Path-827" class="cls-4" d="M197.5,526.832V509.511l-2.5,1.444v14.433Z"/>
    <path id="Path-828" class="cls-4" d="M197.5,549.926V532.605l-2.5,1.444v14.4329Z"/>
    <path id="Path-829" class="cls-4" d="M67.5,352.183h5V614.878h-5Z"/>
    <path id="Path-830" class="cls-4" d="M100,352.183h7.5V522.502H100Z"/>
    <path id="Path-831" class="cls-4" d="M132.5,352.183h5v77.943h-5Z"/>
    <path id="Path-832" class="cls-4" d="M165,352.183h5V502.294h-5Z"/>
    <path id="Path-833" class="cls-4" d="M165,539.822h5v75.0561h-5Z"/>
    <path id="Path-834" class="cls-4" d="M132.5,516.728h10v98.15h-10Z"/>
    <path id="Path-835" class="cls-4" d="M100,516.728h5v98.15h-5Z"/>
    <path id="Path-836" class="cls-4" d="M35,352.183h5v77.943H35Z"/>
    <path id="Path-837" class="cls-4" d="M35,516.728h5v98.15H35Z"/>
    <path id="Path-838" class="cls-4" d="M67.5,424.352h10v98.15h-10Z"/>
    <g id="Group-204">
      <g id="Group-205">
        <path id="Path-839" class="cls-27" d="M257.5,512.398l25-14.434v17.321l-25,14.4341Z"/>
        <path id="Path-840" class="cls-13" d="M257.5,512.398l10-5.773v17.32l-10,5.774Z"/>
        <path id="Path-841" class="cls-13" d="M270,505.181l10-5.773v17.32l-10,5.774Z"/>
        <path id="Path-842" class="cls-3" d="M280,499.408l2.5-1.444v17.321l-2.5,1.443Z"/>
        <path id="Path-843" class="cls-15" d="M257.5,526.832,280,513.841l2.5,1.444-25,14.434Z"/>
      </g>
      <g id="Group-206">
        <path id="Path-844" class="cls-27" d="M235,525.388l17.5-10.103v17.32L235,542.709Z"/>
        <path id="Path-845" class="cls-13" d="M235,525.388l2.5-1.443v17.321l-2.5,1.443Z"/>
        <path id="Path-846" class="cls-13" d="M240,522.502l10-5.774v17.321l-10,5.773Z"/>
        <path id="Path-847" class="cls-3" d="M250,516.728l2.5-1.443v17.32l-2.5,1.444Z"/>
        <path id="Path-848" class="cls-15" d="M235,539.822l15-8.66,2.5,1.443L235,542.709Z"/>
      </g>
    </g>
    <g id="Group-207">
      <g id="Group-208">
        <path id="Path-849" class="cls-27" d="M317.5,495.078l25-14.434v17.32l-25,14.434Z"/>
        <path id="Path-850" class="cls-13" d="M317.5,495.078l10-5.774v17.32l-10,5.774Z"/>
        <path id="Path-851" class="cls-13" d="M330,487.861l10-5.774v17.321l-10,5.773Z"/>
        <path id="Path-852" class="cls-3" d="M340,482.087l2.5-1.443v17.32l-2.5,1.444Z"/>
        <path id="Path-853" class="cls-15" d="M317.5,509.511l22.5-12.99,2.5,1.443-25,14.434Z"/>
      </g>
    </g>
    <g id="Group-209">
      <g id="Group-210">
        <path id="Path-854" class="cls-27" d="M317.5,518.172l25-14.434v17.32l-25,14.434Z"/>
        <path id="Path-855" class="cls-13" d="M317.5,518.172l10-5.774v17.321l-10,5.773Z"/>
        <path id="Path-856" class="cls-13" d="M330,510.955l10-5.774v17.321l-10,5.773Z"/>
        <path id="Path-857" class="cls-3" d="M340,505.181l2.5-1.443v17.32l-2.5,1.444Z"/>
        <path id="Path-858" class="cls-15" d="M317.5,532.605l22.5-12.99,2.5,1.443-25,14.434Z"/>
      </g>
    </g>
    <g id="Group-211">
      <g id="Group-212">
        <path id="Path-859" class="cls-27" d="M347.5,477.757l25-14.434v17.321l-25,14.433Z"/>
        <path id="Path-860" class="cls-13" d="M347.5,477.757l10-5.774v17.321l-10,5.773Z"/>
        <path id="Path-861" class="cls-13" d="M360,470.54l10-5.773v17.32l-10,5.774Z"/>
        <path id="Path-862" class="cls-3" d="M370,464.767l2.5-1.444v17.321l-2.5,1.443Z"/>
        <path id="Path-863" class="cls-15" d="M347.5,492.191,370,479.2l2.5,1.444-25,14.433Z"/>
      </g>
    </g>
    <g id="Group-213">
      <g id="Group-214">
        <path id="Path-864" class="cls-27" d="M377.5,460.436l25-14.433v17.32l-25,14.434Z"/>
        <path id="Path-865" class="cls-13" d="M377.5,460.436l10-5.773v17.32l-10,5.774Z"/>
        <path id="Path-866" class="cls-13" d="M390,453.22l10-5.774v17.321l-10,5.773Z"/>
        <path id="Path-867" class="cls-3" d="M400,447.446l2.5-1.443v17.32l-2.5,1.444Z"/>
        <path id="Path-868" class="cls-15" d="M377.5,474.87,400,461.88l2.5,1.443-25,14.434Z"/>
      </g>
    </g>
    <g id="Group-215">
      <g id="Group-216">
        <path id="Path-869" class="cls-27" d="M257.5,489.304l25-14.434v17.321l-25,14.433Z"/>
        <path id="Path-870" class="cls-13" d="M257.5,489.304l10-5.773v17.32l-10,5.773Z"/>
        <path id="Path-871" class="cls-13" d="M270,482.087l10-5.773v17.32l-10,5.774Z"/>
        <path id="Path-872" class="cls-3" d="M280,476.314l2.5-1.444v17.321l-2.5,1.443Z"/>
        <path id="Path-873" class="cls-15" d="M257.5,503.738,280,490.747l2.5,1.444-25,14.433Z"/>
      </g>
      <g id="Group-217">
        <path id="Path-874" class="cls-27" d="M235,502.294l17.5-10.103v17.32L235,519.615Z"/>
        <path id="Path-875" class="cls-13" d="M235,502.294l2.5-1.443v17.32l-2.5,1.444Z"/>
        <path id="Path-876" class="cls-13" d="M240,499.408l10-5.774v17.321l-10,5.773Z"/>
        <path id="Path-877" class="cls-3" d="M250,493.634l2.5-1.443v17.32l-2.5,1.444Z"/>
        <path id="Path-878" class="cls-15" d="M235,516.728l15-8.66,2.5,1.443L235,519.615Z"/>
      </g>
    </g>
    <g id="Group-218">
      <g id="Group-219">
        <path id="Path-879" class="cls-27" d="M257.5,466.21l25-14.434v17.321l-25,14.433Z"/>
        <path id="Path-880" class="cls-13" d="M257.5,466.21l10-5.774v17.321l-10,5.773Z"/>
        <path id="Path-881" class="cls-13" d="M270,458.993l10-5.773v17.32l-10,5.774Z"/>
        <path id="Path-882" class="cls-3" d="M280,453.22l2.5-1.444v17.321L280,470.54Z"/>
        <path id="Path-883" class="cls-15" d="M257.5,480.644,280,467.653l2.5,1.444-25,14.433Z"/>
      </g>
      <g id="Group-220">
        <path id="Path-884" class="cls-27" d="M235,479.2l17.5-10.103v17.32L235,496.521Z"/>
        <path id="Path-885" class="cls-13" d="M235,479.2l2.5-1.443v17.32l-2.5,1.444Z"/>
        <path id="Path-886" class="cls-13" d="M240,476.314l10-5.774v17.321l-10,5.773Z"/>
        <path id="Path-887" class="cls-3" d="M250,470.54l2.5-1.443v17.32l-2.5,1.444Z"/>
        <path id="Path-888" class="cls-15" d="M235,493.634l15-8.66,2.5,1.443L235,496.521Z"/>
      </g>
    </g>
    <g id="Group-221">
      <g id="Group-222">
        <path id="Path-889" class="cls-27" d="M257.5,443.116l25-14.434v17.321l-25,14.433Z"/>
        <path id="Path-890" class="cls-13" d="M257.5,443.116l10-5.774v17.321l-10,5.773Z"/>
        <path id="Path-891" class="cls-13" d="M270,435.899l10-5.773v17.32l-10,5.774Z"/>
        <path id="Path-892" class="cls-3" d="M280,430.126l2.5-1.444v17.321l-2.5,1.443Z"/>
        <path id="Path-893" class="cls-15" d="M257.5,457.55,280,444.559l2.5,1.444-25,14.433Z"/>
      </g>
      <g id="Group-223">
        <path id="Path-894" class="cls-27" d="M235,456.106l17.5-10.103v17.32L235,473.427Z"/>
        <path id="Path-895" class="cls-13" d="M235,456.106l2.5-1.443v17.32l-2.5,1.444Z"/>
        <path id="Path-896" class="cls-13" d="M240,453.22l10-5.774v17.321l-10,5.773Z"/>
        <path id="Path-897" class="cls-3" d="M250,447.446l2.5-1.443v17.32l-2.5,1.444Z"/>
        <path id="Path-898" class="cls-15" d="M235,470.54l15-8.66,2.5,1.443L235,473.427Z"/>
      </g>
    </g>
    <g id="Group-224">
      <g id="Group-225">
        <path id="Path-899" class="cls-27" d="M257.5,420.022l25-14.434v17.321l-25,14.433Z"/>
        <path id="Path-900" class="cls-13" d="M257.5,420.022l10-5.774v17.321l-10,5.773Z"/>
        <path id="Path-901" class="cls-13" d="M270,412.805l10-5.773v17.32l-10,5.774Z"/>
        <path id="Path-902" class="cls-3" d="M280,407.032l2.5-1.444v17.321l-2.5,1.443Z"/>
        <path id="Path-903" class="cls-15" d="M257.5,434.456,280,421.465l2.5,1.444-25,14.433Z"/>
      </g>
      <g id="Group-226">
        <path id="Path-904" class="cls-27" d="M235,433.012l17.5-10.103v17.32L235,450.333Z"/>
        <path id="Path-905" class="cls-13" d="M235,433.012l2.5-1.443v17.32l-2.5,1.444Z"/>
        <path id="Path-906" class="cls-13" d="M240,430.126l10-5.774v17.321l-10,5.773Z"/>
        <path id="Path-907" class="cls-3" d="M250,424.352l2.5-1.443v17.32l-2.5,1.444Z"/>
        <path id="Path-908" class="cls-15" d="M235,447.446l15-8.66,2.5,1.443L235,450.333Z"/>
      </g>
    </g>
    <g id="Group-227">
      <g id="Group-228">
        <path id="Path-909" class="cls-27" d="M257.5,396.928l25-14.434v17.321l-25,14.433Z"/>
        <path id="Path-910" class="cls-13" d="M257.5,396.928l10-5.774v17.321l-10,5.773Z"/>
        <path id="Path-911" class="cls-13" d="M270,389.711l10-5.773v17.32l-10,5.774Z"/>
        <path id="Path-912" class="cls-3" d="M280,383.938l2.5-1.444v17.321l-2.5,1.443Z"/>
        <path id="Path-913" class="cls-15" d="M257.5,411.362,280,398.371l2.5,1.444-25,14.433Z"/>
      </g>
      <g id="Group-229">
        <path id="Path-914" class="cls-27" d="M235,409.918l17.5-10.103v17.32L235,427.239Z"/>
        <path id="Path-915" class="cls-13" d="M235,409.918l2.5-1.443v17.32l-2.5,1.444Z"/>
        <path id="Path-916" class="cls-13" d="M240,407.032l10-5.774v17.321l-10,5.7731Z"/>
        <path id="Path-917" class="cls-3" d="M250,401.258l2.5-1.443v17.32l-2.5,1.444Z"/>
        <path id="Path-918" class="cls-15" d="M235,424.352l15-8.66,2.5,1.443L235,427.239Z"/>
      </g>
    </g>
    <g id="Group-230">
      <g id="Group-231">
        <path id="Path-919" class="cls-27" d="M257.5,373.834l25-14.434v17.321l-25,14.433Z"/>
        <path id="Path-920" class="cls-13" d="M257.5,373.834l10-5.774v17.321l-10,5.7731Z"/>
        <path id="Path-921" class="cls-13" d="M270,366.617l10-5.773v17.32l-10,5.774Z"/>
        <path id="Path-922" class="cls-3" d="M280,360.844l2.5-1.444v17.321l-2.5,1.443Z"/>
        <path id="Path-923" class="cls-15" d="M257.5,388.268,280,375.277l2.5,1.444-25,14.433Z"/>
      </g>
      <g id="Group-232">
        <path id="Path-924" class="cls-27" d="M235,386.824l17.5-10.103v17.32L235,404.145Z"/>
        <path id="Path-925" class="cls-13" d="M235,386.824l2.5-1.443v17.32l-2.5,1.444Z"/>
        <path id="Path-926" class="cls-13" d="M240,383.938l10-5.774v17.321l-10,5.773Z"/>
        <path id="Path-927" class="cls-3" d="M250,378.164l2.5-1.443v17.32l-2.5,1.444Z"/>
        <path id="Path-928" class="cls-15" d="M235,401.258l15-8.66,2.5,1.443L235,404.145Z"/>
      </g>
    </g>
    <g id="Group-233">
      <g id="Group-234">
        <path id="Path-929" class="cls-27" d="M257.5,350.74l25-14.434v17.321l-25,14.433Z"/>
        <path id="Path-930" class="cls-13" d="M257.5,350.74l10-5.774v17.321l-10,5.773Z"/>
        <path id="Path-931" class="cls-13" d="M270,343.523l10-5.773v17.32l-10,5.774Z"/>
        <path id="Path-932" class="cls-3" d="M280,337.75l2.5-1.444v17.321L280,355.07Z"/>
        <path id="Path-933" class="cls-15" d="M257.5,365.174,280,352.183l2.5,1.444-25,14.433Z"/>
      </g>
      <g id="Group-235">
        <path id="Path-934" class="cls-27" d="M235,363.73l17.5-10.103v17.32L235,381.051Z"/>
        <path id="Path-935" class="cls-13" d="M235,363.73l2.5-1.443v17.32l-2.5,1.444Z"/>
        <path id="Path-936" class="cls-13" d="M240,360.844l10-5.774v17.321l-10,5.773Z"/>
        <path id="Path-937" class="cls-3" d="M250,355.07l2.5-1.443v17.32l-2.5,1.444Z"/>
        <path id="Path-938" class="cls-15" d="M235,378.164l15-8.66,2.5,1.443L235,381.051Z"/>
      </g>
    </g>
    <g id="Group-236">
      <g id="Group-237">
        <path id="Path-939" class="cls-27" d="M257.5,327.646l25-14.434v17.321l-25,14.433Z"/>
        <path id="Path-940" class="cls-13" d="M257.5,327.646l10-5.774v17.321l-10,5.773Z"/>
        <path id="Path-941" class="cls-13" d="M270,320.429l10-5.773v17.32l-10,5.774Z"/>
        <path id="Path-942" class="cls-3" d="M280,314.656l2.5-1.444v17.321l-2.5,1.443Z"/>
        <path id="Path-943" class="cls-15" d="M257.5,342.08,280,329.089l2.5,1.444-25,14.433Z"/>
      </g>
      <g id="Group-238">
        <path id="Path-944" class="cls-27" d="M235,340.636l17.5-10.103v17.32L235,357.957Z"/>
        <path id="Path-945" class="cls-13" d="M235,340.636l2.5-1.443v17.32l-2.5,1.444Z"/>
        <path id="Path-946" class="cls-13" d="M240,337.75l10-5.774v17.321l-10,5.773Z"/>
        <path id="Path-947" class="cls-3" d="M250,331.976l2.5-1.443v17.32l-2.5,1.444Z"/>
        <path id="Path-948" class="cls-15" d="M235,355.07l15-8.66,2.5,1.443L235,357.957Z"/>
      </g>
    </g>
    <g id="Group-239">
      <g id="Group-240">
        <path id="Path-949" class="cls-27" d="M257.5,304.552l25-14.434v17.321l-25,14.433Z"/>
        <path id="Path-950" class="cls-13" d="M257.5,304.552l10-5.774v17.321l-10,5.773Z"/>
        <path id="Path-951" class="cls-13" d="M270,297.335l10-5.773v17.32l-10,5.774Z"/>
        <path id="Path-952" class="cls-3" d="M280,291.562l2.5-1.444v17.321l-2.5,1.443Z"/>
        <path id="Path-953" class="cls-15" d="M257.5,318.986,280,305.995l2.5,1.444-25,14.433Z"/>
      </g>
      <g id="Group-241">
        <path id="Path-954" class="cls-27" d="M235,317.542l17.5-10.103v17.32L235,334.863Z"/>
        <path id="Path-955" class="cls-13" d="M235,317.542l2.5-1.443v17.32l-2.5,1.444Z"/>
        <path id="Path-956" class="cls-13" d="M240,314.656l10-5.774v17.321l-10,5.773Z"/>
        <path id="Path-957" class="cls-3" d="M250,308.882l2.5-1.443v17.32l-2.5,1.444Z"/>
        <path id="Path-958" class="cls-15" d="M235,331.976l15-8.66,2.5,1.443L235,334.863Z"/>
      </g>
    </g>
    <g id="Group-242">
      <g id="Group-243">
        <path id="Path-959" class="cls-27" d="M257.5,284.345l25-14.434v14.434l-25,14.433Z"/>
        <path id="Path-960" class="cls-13" d="M257.5,284.345l10-5.774v14.434l-10,5.773Z"/>
        <path id="Path-961" class="cls-13" d="M270,277.128l10-5.774v14.434l-10,5.774Z"/>
        <path id="Path-962" class="cls-3" d="M280,271.354l2.5-1.443v14.434l-2.5,1.443Z"/>
        <path id="Path-963" class="cls-15" d="M257.5,295.892,280,282.901l2.5,1.444-25,14.433Z"/>
      </g>
      <g id="Group-244">
        <path id="Path-964" class="cls-27" d="M235,297.335l17.5-10.104v14.434L235,311.769Z"/>
        <path id="Path-965" class="cls-13" d="M235,297.335l2.5-1.443v14.433l-2.5,1.444Z"/>
        <path id="Path-966" class="cls-13" d="M240,294.448l10-5.773v14.434l-10,5.773Z"/>
        <path id="Path-967" class="cls-3" d="M250,288.675l2.5-1.444v14.434l-2.5,1.444Z"/>
        <path id="Path-968" class="cls-15" d="M235,308.882l15-8.66,2.5,1.443L235,311.769Z"/>
      </g>
    </g>
    <path id="Path-969" class="cls-13" d="M310,542.709v23.094L175,643.745V620.651Z"/>
    <path id="Path-970" class="cls-3" d="M310,565.803l-2.5-1.443V544.152l2.5-1.443Z"/>
    <path id="Path-971" class="cls-28" d="M10,620.651H165v25.981H10Z"/>
    <path id="Path-972" class="cls-29" d="M185,614.878l10-5.774v23.094l-10,5.774Z"/>
    <path id="Path-973" class="cls-30" d="M145,620.651h15v23.094H145Z"/>
    <path id="Path-974" class="cls-30" d="M115,620.651h15v23.094H115Z"/>
    <path id="Path-975" class="cls-30" d="M85,620.651h15v23.094H85Z"/>
    <path id="Path-976" class="cls-30" d="M55,620.651H70v23.094H55Z"/>
    <path id="Path-977" class="cls-30" d="M25,620.651H40v23.094H25Z"/>
    <path id="Path-978" class="cls-29" d="M205,603.331l10-5.774v23.094l-10,5.774Z"/>
    <path id="Path-979" class="cls-29" d="M225,591.784l10-5.774v23.094l-10,5.774Z"/>
    <path id="Path-980" class="cls-29" d="M245,580.237l10-5.774v23.094l-10,5.774Z"/>
    <path id="Path-981" class="cls-29" d="M265,568.69l10-5.774V586.01l-10,5.774Z"/>
    <path id="Path-982" class="cls-29" d="M285,557.143l10-5.774v23.094l-10,5.774Z"/>
    <path id="Path-983" class="cls-5" d="M312.5,567.246l-5-2.886L175,640.858v5.774Z"/>
    <g id="Group-245">
      <path id="Path-984" class="cls-9" d="M317.5,235.27l25-14.434v17.321l-25,14.433Z"/>
      <path id="Path-985" class="cls-13" d="M317.5,235.27l10-5.774v17.321l-10,5.773Z"/>
      <path id="Path-986" class="cls-13" d="M330,228.053l10-5.774V239.6l-10,5.773Z"/>
      <path id="Path-987" class="cls-4" d="M340,222.279l2.5-1.443v17.321L340,239.6Z"/>
      <path id="Path-988" class="cls-12" d="M317.5,249.704,340,236.713l2.5,1.444-25,14.433Z"/>
    </g>
    <path id="Path-989" class="cls-5" d="M10,649.519v-5.774H165v5.774Z"/>
    <path id="Path-992" class="cls-7" d="M140,75.055V69.282L250,5.773l30,17.321v5.773L170,92.376Z"/>
    <path id="Path-993" class="cls-18" d="M270,23.094,250,11.547,230,23.094l20,11.547Z"/>
    <path id="Path-994" class="cls-8" d="M140,103.923l30,17.32,5-2.887V83.715l-5,2.887-30-17.32Z"/>
    <path id="Path-995" class="cls-7" d="M250,23.094V17.32L220,0,170,28.867v5.774l30,17.32Z"/>
    <path id="Path-996" class="cls-18" d="M150,69.282l20-11.547,20,11.547L170,80.829Z"/>
    <path id="Path-997" class="cls-31" d="M180,28.867l20,11.547L240,17.32,220,5.773Z"/>
    <path id="Path-998" class="cls-32" d="M220,5.773v5.774L185,31.754l-5-2.887Z"/>
    <path id="Path-999" class="cls-8" d="M240,17.32l-5,2.887-15-8.66V5.773Z"/>
    <g id="Group-246">
      <path id="Path-1000" class="cls-33" d="M187.5,30.311V24.537l20,11.547-5,2.887Z"/>
      <path id="Path-1001" class="cls-33" d="M205,20.207V14.433L225,25.98l-5,2.887Z"/>
      <path id="Path-1002" class="cls-23" d="M217.5,30.311l-10,5.773-20-11.547,10-5.773Z"/>
      <path id="Path-1003" class="cls-23" d="M235,20.207,225,25.98,205,14.433,215,8.66Z"/>
      <path id="Path-1004" class="cls-34" d="M195,23.094h0c-1.38.796-1.38,2.09,0,2.886h0a5.5268,5.5268,0,0,0,5,0h0c1.38-.796,1.38-2.09,0-2.886h0A5.5268,5.5268,0,0,0,195,23.094Z"/>
      <path id="Path-1005" class="cls-34" d="M212.5,12.99h0c-1.38.797-1.38,2.09,0,2.887h0a5.533,5.533,0,0,0,5,0h0c1.38-.797,1.38-2.09,0-2.887h0A5.5268,5.5268,0,0,0,212.5,12.99Z"/>
      <path id="Path-1006" class="cls-34" d="M205,28.867h0c-1.38.797-1.38,2.09,0,2.887h0a5.5268,5.5268,0,0,0,5,0h0c1.38-.797,1.38-2.09,0-2.887h0A5.533,5.533,0,0,0,205,28.867Z"/>
      <path id="Path-1007" class="cls-34" d="M222.5,18.763h0c-1.38.797-1.38,2.091,0,2.887h0a5.5268,5.5268,0,0,0,5,0h0c1.38-.796,1.38-2.09,0-2.887h0A5.533,5.533,0,0,0,222.5,18.763Z"/>
    </g>
    <path id="Path-1008" class="cls-9" d="M280,57.735,170,121.243V86.602l30-17.32V46.188L250,17.32V40.414l30-17.32Z"/>
    <path id="Path-1009" class="cls-8" d="M170,28.867V51.961l30,17.321V46.188Z"/>
    <path id="Path-1010" class="cls-35" d="M200,92.376l5-2.887v11.547l-5,2.887Z"/>
    <path id="Path-1011" class="cls-35" d="M250,63.508l5-2.887V72.168l-5,2.887Z"/>
    <path id="Path-1012" class="cls-35" d="M225,77.942l10-5.774V83.715l-10,5.774Z"/>
    <path id="Path-1013" class="cls-4" d="M310,236.145V230.94l-20-11.547v115.47l20,11.547Z"/>
    <g id="Group-247">
      <path id="Path-1014" class="cls-13" d="M302.5,235.27l-7.5-4.33v17.32l7.5,4.33Z"/>
      <path id="Path-1015" class="cls-14" d="M297.5,232.383,295,230.94v17.32l2.5,1.444Z"/>
      <path id="Path-1016" class="cls-12" d="M302.5,249.704l-5-2.887L295,248.26l7.5,4.33Z"/>
    </g>
    <g id="Group-248">
      <path id="Path-1017" class="cls-13" d="M302.5,281.458l-7.5-4.33v17.32l7.5,4.33Z"/>
      <path id="Path-1018" class="cls-14" d="M297.5,278.571l-2.5-1.443v17.32l2.5,1.444Z"/>
      <path id="Path-1019" class="cls-12" d="M302.5,295.892l-5-2.887-2.5,1.443,7.5,4.33Z"/>
    </g>
    <g id="Group-249">
      <path id="Path-1020" class="cls-13" d="M302.5,327.646l-7.5-4.33v17.32l7.5,4.33Z"/>
      <path id="Path-1021" class="cls-14" d="M297.5,324.759l-2.5-1.443v17.32l2.5,1.444Z"/>
      <path id="Path-1022" class="cls-12" d="M302.5,342.08l-5-2.887-2.5,1.443,7.5,4.33Z"/>
    </g>
    <g id="Group-250">
      <path id="Path-1023" class="cls-13" d="M302.5,258.364l-7.5-4.33v17.32l7.5,4.33Z"/>
      <path id="Path-1024" class="cls-14" d="M297.5,255.477l-2.5-1.443v17.32l2.5,1.444Z"/>
      <path id="Path-1025" class="cls-12" d="M302.5,272.798l-5-2.887-2.5,1.443,7.5,4.33Z"/>
    </g>
    <g id="Group-251">
      <path id="Path-1026" class="cls-13" d="M302.5,304.552l-7.5-4.33v17.32l7.5,4.33Z"/>
      <path id="Path-1027" class="cls-14" d="M297.5,301.665l-2.5-1.443v17.32l2.5,1.444Z"/>
      <path id="Path-1028" class="cls-12" d="M302.5,318.986l-5-2.887-2.5,1.443,7.5,4.33Z"/>
    </g>
  </g>
</svg>
