<svg id="Layer_1" data-name="Layer 1" xmlns="http://www.w3.org/2000/svg" viewBox="0 0 171.25 687.047">
  <defs>
    <style>
      .cls-1 {
        fill: #fff3d8;
      }

      .cls-2 {
        fill: #dfca9e;
      }

      .cls-3 {
        fill: #eacb87;
      }

      .cls-4 {
        fill: #795a30;
      }

      .cls-5 {
        fill: #a27d4e;
      }

      .cls-6 {
        fill: #4d3b24;
      }

      .cls-7 {
        fill: #f7f7f7;
      }

      .cls-8 {
        fill: #5e4421;
      }

      .cls-9 {
        fill: #caa973;
      }
    </style>
  </defs>
  <title>Artboard 41</title>
  <g id="Group">
    <g id="Group-2" data-name="Group">
      <path id="Path" class="cls-1" d="M75,0,0,43.302l10,5.773L0,54.849,75,98.15l10-5.774L95,98.15l75-43.301-10-5.774,10-5.773L95,0,85,5.774Z"/>
      <path id="Path-2" data-name="Path" class="cls-2" d="M75,92.376l10-5.773,10,5.773,65-37.527-10-5.774,10-5.773L95,5.774,85,11.547,75,5.774,10,43.302l10,5.773L10,54.849Z"/>
      <path id="Path-3" data-name="Path" class="cls-3" d="M95,98.15V661.066l76.25-44.023L170,54.849Z"/>
      <path id="Path-4" data-name="Path" class="cls-4" d="M75,98.15V661.066L0,617.765V54.849Z"/>
      <path id="Path-5" data-name="Path" class="cls-3" d="M170,43.302V54.849l-10-5.774Z"/>
      <path id="Path-6" data-name="Path" class="cls-4" d="M85,655.293V92.376L95,98.15V661.066Z"/>
      <path id="Path-7" data-name="Path" class="cls-3" d="M75,661.066V98.15l10-5.774V655.293Z"/>
      <path id="Path-8" data-name="Path" class="cls-5" d="M100,102.48l2.5-1.443V652.055l-2.5,1.444Z"/>
      <path id="Path-9" data-name="Path" class="cls-6" d="M70,102.48l-2.5-1.443V650.963l2.5,1.443Z"/>
      <path id="Path-10" data-name="Path" class="cls-5" d="M108.75,97.428l2.5-1.443V647.004l-2.5,1.443Z"/>
      <path id="Path-11" data-name="Path" class="cls-6" d="M61.25,97.428l-2.5-1.443V645.911l2.5,1.443Z"/>
      <path id="Path-12" data-name="Path" class="cls-5" d="M117.5,92.376l2.5-1.443V641.952l-2.5,1.443Z"/>
      <path id="Path-13" data-name="Path" class="cls-6" d="M52.5,92.376,50,90.933V640.859l2.5,1.443Z"/>
      <path id="Path-14" data-name="Path" class="cls-5" d="M126.25,87.325l2.5-1.444V636.9l-2.5,1.443Z"/>
      <path id="Path-15" data-name="Path" class="cls-6" d="M43.75,87.325l-2.5-1.444V635.807l2.5,1.444Z"/>
      <path id="Path-16" data-name="Path" class="cls-5" d="M135,82.273l2.5-1.444V631.848l-2.5,1.443Z"/>
      <path id="Path-17" data-name="Path" class="cls-6" d="M35,82.273l-2.5-1.444V630.755l2.5,1.444Z"/>
      <path id="Path-18" data-name="Path" class="cls-5" d="M143.75,77.221l2.5-1.444V626.796l-2.5,1.444Z"/>
      <path id="Path-19" data-name="Path" class="cls-6" d="M26.25,77.221l-2.5-1.444V625.704l2.5,1.443Z"/>
      <path id="Path-20" data-name="Path" class="cls-5" d="M152.5,72.169l2.5-1.443V621.744l-2.5,1.444Z"/>
      <path id="Path-21" data-name="Path" class="cls-6" d="M17.5,72.169,15,70.726V620.652l2.5,1.443Z"/>
      <path id="Path-22" data-name="Path" class="cls-5" d="M161.25,67.117l2.5-1.443V616.693l-2.5,1.443Z"/>
      <path id="Path-23" data-name="Path" class="cls-6" d="M8.75,67.117l-2.5-1.443V615.6l2.5,1.443Z"/>
      <path id="Path-24" data-name="Path" class="cls-4" d="M105,652.406l-2.5-1.443V101.037l2.5-1.444Z"/>
      <path id="Path-25" data-name="Path" class="cls-3" d="M65,652.406l2.5-1.443V101.037L65,99.593Z"/>
      <path id="Path-26" data-name="Path" class="cls-4" d="M113.75,647.354l-2.5-1.443V95.985l2.5-1.444Z"/>
      <path id="Path-27" data-name="Path" class="cls-3" d="M56.25,647.354l2.5-1.443V95.985l-2.5-1.444Z"/>
      <path id="Path-28" data-name="Path" class="cls-4" d="M122.5,642.302l-2.5-1.443V90.933l2.5-1.443Z"/>
      <path id="Path-29" data-name="Path" class="cls-3" d="M47.5,642.302l2.5-1.443V90.933L47.5,89.49Z"/>
      <path id="Path-30" data-name="Path" class="cls-4" d="M131.25,637.251l-2.5-1.444V85.881l2.5-1.443Z"/>
      <path id="Path-31" data-name="Path" class="cls-3" d="M38.75,637.251l2.5-1.444V85.881l-2.5-1.443Z"/>
      <path id="Path-32" data-name="Path" class="cls-4" d="M140,632.199l-2.5-1.444V80.829l2.5-1.443Z"/>
      <path id="Path-33" data-name="Path" class="cls-3" d="M30,632.199l2.5-1.444V80.829L30,79.386Z"/>
      <path id="Path-34" data-name="Path" class="cls-4" d="M148.75,627.147l-2.5-1.443V75.777l2.5-1.443Z"/>
      <path id="Path-35" data-name="Path" class="cls-3" d="M21.25,627.147l2.5-1.443V75.777l-2.5-1.443Z"/>
      <path id="Path-36" data-name="Path" class="cls-4" d="M157.5,622.095l-2.5-1.443V70.726l2.5-1.444Z"/>
      <path id="Path-37" data-name="Path" class="cls-3" d="M12.5,622.095l2.5-1.443V70.726l-2.5-1.444Z"/>
      <path id="Path-38" data-name="Path" class="cls-4" d="M166.25,617.043l-2.5-1.443V65.674l2.5-1.444Z"/>
      <path id="Path-39" data-name="Path" class="cls-3" d="M3.75,617.043l2.5-1.443V65.674L3.75,64.23Z"/>
      <path id="Path-40" data-name="Path" class="cls-7" d="M100,655.293l5-2.887-2.5-1.443-2.5,1.443Z"/>
      <path id="Path-41" data-name="Path" class="cls-7" d="M70,655.293l-5-2.887,2.5-1.443,2.5,1.443Z"/>
      <path id="Path-42" data-name="Path" class="cls-7" d="M108.75,650.241l5-2.887-2.5-1.443-2.5,1.443Z"/>
      <path id="Path-43" data-name="Path" class="cls-7" d="M61.25,650.241l-5-2.887,2.5-1.443,2.5,1.443Z"/>
      <path id="Path-44" data-name="Path" class="cls-7" d="M117.5,645.189l5-2.887-2.5-1.443-2.5,1.443Z"/>
      <path id="Path-45" data-name="Path" class="cls-7" d="M52.5,645.189l-5-2.887,2.5-1.443,2.5,1.443Z"/>
      <path id="Path-46" data-name="Path" class="cls-7" d="M126.25,640.137l5-2.886-2.5-1.444-2.5,1.444Z"/>
      <path id="Path-47" data-name="Path" class="cls-7" d="M43.75,640.137l-5-2.886,2.5-1.444,2.5,1.444Z"/>
      <path id="Path-48" data-name="Path" class="cls-7" d="M135,635.086l5-2.887-2.5-1.444-2.5,1.444Z"/>
      <path id="Path-49" data-name="Path" class="cls-7" d="M35,635.086l-5-2.887,2.5-1.444,2.5,1.444Z"/>
      <path id="Path-50" data-name="Path" class="cls-7" d="M143.75,630.034l5-2.887-2.5-1.443-2.5,1.443Z"/>
      <path id="Path-51" data-name="Path" class="cls-7" d="M26.25,630.034l-5-2.887,2.5-1.443,2.5,1.443Z"/>
      <path id="Path-52" data-name="Path" class="cls-7" d="M152.5,624.982l5-2.887-2.5-1.443-2.5,1.443Z"/>
      <path id="Path-53" data-name="Path" class="cls-7" d="M17.5,624.982l-5-2.887,2.5-1.443,2.5,1.443Z"/>
      <path id="Path-54" data-name="Path" class="cls-7" d="M161.25,619.93l5-2.887-2.5-1.443-2.5,1.443Z"/>
      <path id="Path-55" data-name="Path" class="cls-7" d="M8.75,619.93l-5-2.887,2.5-1.443,2.5,1.443Z"/>
      <path id="Path-56" data-name="Path" class="cls-4" d="M0,43.302V54.849l10-5.774Z"/>
      <path id="Path-57" data-name="Path" class="cls-3" d="M20,49.075v5.774l-5,2.886-5-2.886Z"/>
      <path id="Path-58" data-name="Path" class="cls-4" d="M150,49.075v5.774l5,2.886,5-2.886Z"/>
      <path id="Path-59" data-name="Path" class="cls-3" d="M10,43.302,75,5.774v5.773L15,46.188Z"/>
      <path id="Path-60" data-name="Path" class="cls-4" d="M160,43.302,95,5.774v5.773l60,34.641Z"/>
      <path id="Path-61" data-name="Path" class="cls-3" d="M85,77.943l40-23.094V37.528L85,60.622Z"/>
      <path id="Path-62" data-name="Path" class="cls-4" d="M75,5.774v5.773l10,5.774V11.547Z"/>
      <path id="Path-63" data-name="Path" class="cls-3" d="M95,5.774v5.773L85,17.321V11.547Z"/>
      <path id="Path-64" data-name="Path" class="cls-4" d="M45,54.849V37.528L85,60.622V77.943Z"/>
      <path id="Path-65" data-name="Path" class="cls-1" d="M45,37.528,85,14.434l40,23.094L85,60.622Z"/>
      <path id="Path-66" data-name="Path" class="cls-8" d="M85,655.293l10,5.773v25.981l-10-5.773Z"/>
      <path id="Path-67" data-name="Path" class="cls-9" d="M171.25,617.043,95,661.066v25.981l76.25-44.023Z"/>
      <path id="Path-68" data-name="Path" class="cls-8" d="M0,617.765l75,43.301v25.981L0,643.746Z"/>
      <path id="Path-69" data-name="Path" class="cls-9" d="M85,655.293l-10,5.773v25.981l10-5.773Z"/>
      <path id="Path-70" data-name="Path" class="cls-5" d="M100,661.066l2.5-1.443V679.83l-2.5,1.444Z"/>
      <path id="Path-71" data-name="Path" class="cls-6" d="M70,661.066l-2.5-1.443V679.83l2.5,1.444Z"/>
      <path id="Path-72" data-name="Path" class="cls-5" d="M117.5,650.963l2.5-1.444v20.208l-2.5,1.443Z"/>
      <path id="Path-73" data-name="Path" class="cls-6" d="M52.5,650.963,50,649.519v20.208l2.5,1.443Z"/>
      <path id="Path-74" data-name="Path" class="cls-5" d="M135,640.859l2.5-1.443v20.207l-2.5,1.443Z"/>
      <path id="Path-75" data-name="Path" class="cls-6" d="M35,640.859l-2.5-1.443v20.207l2.5,1.443Z"/>
      <path id="Path-76" data-name="Path" class="cls-5" d="M152.5,630.756l2.5-1.444v20.207l-2.5,1.444Z"/>
      <path id="Path-77" data-name="Path" class="cls-6" d="M17.5,630.755,15,629.312v19.857l2.5,1.443Z"/>
      <path id="Path-78" data-name="Path" class="cls-5" d="M108.75,656.015l2.5-1.444v20.207l-2.5,1.444Z"/>
      <path id="Path-79" data-name="Path" class="cls-6" d="M61.25,656.015l-2.5-1.444v20.207l2.5,1.444Z"/>
      <path id="Path-80" data-name="Path" class="cls-5" d="M126.25,645.911l2.5-1.444v20.208l-2.5,1.443Z"/>
      <path id="Path-81" data-name="Path" class="cls-6" d="M43.75,645.911l-2.5-1.443v20.207l2.5,1.443Z"/>
      <path id="Path-82" data-name="Path" class="cls-5" d="M143.75,635.807l2.5-1.443v20.207l-2.5,1.444Z"/>
      <path id="Path-83" data-name="Path" class="cls-6" d="M26.25,635.807l-2.5-1.443v20.207l2.5,1.444Z"/>
      <path id="Path-84" data-name="Path" class="cls-5" d="M161.25,625.704l2.5-1.444v20.207l-2.5,1.444Z"/>
      <path id="Path-85" data-name="Path" class="cls-6" d="M8.75,625.704l-2.5-1.444v20.207l2.5,1.444Z"/>
      <path id="Path-86" data-name="Path" class="cls-8" d="M105,681.274l-2.5-1.444V659.623l2.5-1.443Z"/>
      <path id="Path-87" data-name="Path" class="cls-9" d="M65,681.274l2.5-1.444V659.623L65,658.18Z"/>
      <path id="Path-88" data-name="Path" class="cls-8" d="M122.5,671.17l-2.5-1.443V649.519l2.5-1.443Z"/>
      <path id="Path-89" data-name="Path" class="cls-9" d="M47.5,671.17l2.5-1.443V649.519l-2.5-1.443Z"/>
      <path id="Path-90" data-name="Path" class="cls-8" d="M140,661.066l-2.5-1.443V639.416l2.5-1.444Z"/>
      <path id="Path-91" data-name="Path" class="cls-9" d="M30,661.066l2.5-1.443V639.416L30,637.972Z"/>
      <path id="Path-92" data-name="Path" class="cls-8" d="M157.5,650.963l-2.5-1.444V629.312l2.5-1.443Z"/>
      <path id="Path-93" data-name="Path" class="cls-9" d="M12.5,650.963l2.5-1.444V629.312l-2.5-1.443Z"/>
      <path id="Path-94" data-name="Path" class="cls-8" d="M113.75,676.222l-2.5-1.444V654.571l2.5-1.443Z"/>
      <path id="Path-95" data-name="Path" class="cls-9" d="M56.25,676.222l2.5-1.444V654.571l-2.5-1.443Z"/>
      <path id="Path-96" data-name="Path" class="cls-8" d="M131.25,666.118l-2.5-1.443V644.468l2.5-1.444Z"/>
      <path id="Path-97" data-name="Path" class="cls-9" d="M38.75,666.118l2.5-1.443V644.468l-2.5-1.444Z"/>
      <path id="Path-98" data-name="Path" class="cls-8" d="M148.75,656.015l-2.5-1.444V634.364l2.5-1.444Z"/>
      <path id="Path-99" data-name="Path" class="cls-9" d="M21.25,656.015l2.5-1.444V634.364l-2.5-1.444Z"/>
      <path id="Path-100" data-name="Path" class="cls-8" d="M166.25,645.911l-2.5-1.444V624.26l2.5-1.443Z"/>
      <path id="Path-101" data-name="Path" class="cls-9" d="M3.75,645.911l2.5-1.444V624.26l-2.5-1.443Z"/>
      <path id="Path-102" data-name="Path" class="cls-7" d="M100,684.16l5-2.886-2.5-1.444-2.5,1.444Z"/>
      <path id="Path-103" data-name="Path" class="cls-7" d="M70,684.16l-5-2.886,2.5-1.444,2.5,1.444Z"/>
      <path id="Path-104" data-name="Path" class="cls-7" d="M117.5,674.057l5-2.887-2.5-1.443-2.5,1.443Z"/>
      <path id="Path-105" data-name="Path" class="cls-7" d="M52.5,674.057l-5-2.887,2.5-1.443,2.5,1.443Z"/>
      <path id="Path-106" data-name="Path" class="cls-7" d="M135,663.953l5-2.887-2.5-1.443-2.5,1.443Z"/>
      <path id="Path-107" data-name="Path" class="cls-7" d="M35,663.953l-5-2.887,2.5-1.443,2.5,1.443Z"/>
      <path id="Path-108" data-name="Path" class="cls-7" d="M152.5,653.849l5-2.886-2.5-1.444-2.5,1.444Z"/>
      <path id="Path-109" data-name="Path" class="cls-7" d="M17.5,653.849l-5-2.886,2.5-1.444,2.5,1.444Z"/>
      <path id="Path-110" data-name="Path" class="cls-7" d="M108.75,679.109l5-2.887-2.5-1.444-2.5,1.444Z"/>
      <path id="Path-111" data-name="Path" class="cls-7" d="M61.25,679.109l-5-2.887,2.5-1.444,2.5,1.444Z"/>
      <path id="Path-112" data-name="Path" class="cls-7" d="M126.25,669.005l5-2.887-2.5-1.443-2.5,1.443Z"/>
      <path id="Path-113" data-name="Path" class="cls-7" d="M43.75,669.005l-5-2.887,2.5-1.443,2.5,1.443Z"/>
      <path id="Path-114" data-name="Path" class="cls-7" d="M143.75,658.901l5-2.886-2.5-1.444-2.5,1.444Z"/>
      <path id="Path-115" data-name="Path" class="cls-7" d="M26.25,658.901l-5-2.886,2.5-1.444,2.5,1.444Z"/>
      <path id="Path-116" data-name="Path" class="cls-7" d="M161.25,648.798l5-2.887-2.5-1.443-2.5,1.443Z"/>
      <path id="Path-117" data-name="Path" class="cls-7" d="M8.75,648.798l-5-2.887,2.5-1.443,2.5,1.443Z"/>
      <path id="Path-118" data-name="Path" class="cls-5" d="M87.5,79.386,135,51.962l15,8.66L102.5,88.046Z"/>
      <path id="Path-119" data-name="Path" class="cls-6" d="M102.5,78.479h0a8.2933,8.2933,0,0,1,7.5,0h0c2.07,1.195,2.07,3.135,0,4.33h0a8.2933,8.2933,0,0,1-7.5,0h0C100.43,81.614,100.43,79.674,102.5,78.479Z"/>
      <path id="Path-120" data-name="Path" class="cls-6" d="M116.25,70.54h0a8.2933,8.2933,0,0,1,7.5,0h0c2.07,1.195,2.07,3.135,0,4.33h0a8.2933,8.2933,0,0,1-7.5,0h0C114.18,73.675,114.18,71.735,116.25,70.54Z"/>
      <path id="Path-121" data-name="Path" class="cls-6" d="M130,62.601h0a8.3,8.3,0,0,1,7.5,0h0c2.07,1.195,2.07,3.136,0,4.331h0a8.3,8.3,0,0,1-7.5,0h0C127.93,65.737,127.93,63.796,130,62.601Z"/>
      <path id="Path-122" data-name="Path" class="cls-5" d="M82.5,79.386,35,51.962l-15,8.66L67.5,88.046Z"/>
      <path id="Path-123" data-name="Path" class="cls-3" d="M135,57.735V51.962L87.5,79.386l5,2.887Z"/>
      <path id="Path-124" data-name="Path" class="cls-4" d="M35,57.735V51.962L82.5,79.386l-5,2.887Z"/>
      <path id="Path-125" data-name="Path" class="cls-4" d="M135,57.735l10,5.774,5-2.887-15-8.66Z"/>
      <path id="Path-126" data-name="Path" class="cls-3" d="M35,57.735,25,63.509l-5-2.887,15-8.66Z"/>
      <path id="Path-127" data-name="Path" class="cls-6" d="M67.802,78.653h0a8.2933,8.2933,0,0,0-7.5,0h0c-2.069,1.195-2.069,3.135,0,4.33h0a8.2933,8.2933,0,0,0,7.5,0h0C69.8721,81.788,69.8721,79.848,67.802,78.653Z"/>
      <path id="Path-128" data-name="Path" class="cls-6" d="M54.052,70.715h0a8.2933,8.2933,0,0,0-7.5,0h0c-2.069,1.194-2.069,3.135,0,4.33h0a8.2933,8.2933,0,0,0,7.5,0h0C56.1221,73.85,56.1221,71.909,54.052,70.715Z"/>
      <path id="Path-129" data-name="Path" class="cls-6" d="M40.302,62.776h0a8.2933,8.2933,0,0,0-7.5,0h0c-2.069,1.195-2.069,3.135,0,4.33h0a8.2933,8.2933,0,0,0,7.5,0h0C42.3721,65.911,42.3721,63.971,40.302,62.776Z"/>
      <path id="Path-130" data-name="Path" class="cls-2" d="M50,37.528,85,17.321l35,20.207L85,57.735Z"/>
    </g>
  </g>
</svg>
