<svg id="Layer_1" data-name="Layer 1" xmlns="http://www.w3.org/2000/svg" viewBox="0 0 520 1125.8326">
  <defs>
    <style>
      .cls-1 {
        fill: #e8e8e8;
      }

      .cls-2 {
        fill: #dfd1c6;
      }

      .cls-3 {
        fill: #bbaea5;
      }

      .cls-4 {
        fill: #58bcee;
      }

      .cls-5 {
        fill: #3c94bf;
      }

      .cls-6 {
        fill: #24759d;
      }

      .cls-7 {
        fill: #439dca;
      }

      .cls-8 {
        fill: #6ecfff;
      }

      .cls-9 {
        fill: #3a8eb9;
      }

      .cls-10 {
        fill: #44ade1;
      }

      .cls-11 {
        fill: #d0ecfb;
      }

      .cls-12 {
        fill: #d1d1d1;
      }

      .cls-13 {
        fill: #63b4dd;
      }

      .cls-14 {
        fill: #484e51;
      }

      .cls-15 {
        fill: #2a2d2f;
      }

      .cls-16 {
        fill: #89d8ff;
      }

      .cls-17 {
        fill: #448fb5;
      }

      .cls-18 {
        fill: #b9b9b9;
      }

      .cls-19 {
        fill: #a2a2a2;
      }

      .cls-20 {
        fill: #b1e5ff;
      }

      .cls-21 {
        fill: #127db3;
      }

      .cls-22 {
        fill: #1aaaf2;
      }

      .cls-23 {
        fill: #8b8b8b;
      }

      .cls-24 {
        fill: none;
      }

      .cls-25 {
        fill: #f9f9f9;
      }

      .cls-26 {
        fill: #464646;
      }

      .cls-27 {
        fill: #fff;
      }
    </style>
  </defs>
  <title>Artboard 19</title>
  <g>
    <g>
      <path class="cls-1" d="M5,874.6852v-2.8867L280,713.0271,520,851.5912v2.8868L245,1013.2493Z"/>
      <path class="cls-2" d="M520,955.5142,245,1114.2856v-28.8675L520,926.6468Z"/>
      <path class="cls-3" d="M320,1082.5312l-10,5.7735-10-5.7735V1047.89h20Z"/>
      <path class="cls-3" d="M387.5,1043.56l-10,5.7735-10-5.7735v-34.641h20Z"/>
      <path class="cls-3" d="M455,1004.589l-10,5.7735-10-5.7733v-34.641h20Z"/>
      <path class="cls-3" d="M520,967.0613l-10,5.7735-10-5.7735V932.42h20Z"/>
      <path class="cls-4" d="M295,1085.4181v-17.3206l-45,25.9807v17.3206Z"/>
      <path class="cls-4" d="M362.5,1046.4469V1023.353l-45,25.9807v23.094Z"/>
      <path class="cls-4" d="M430,1007.4756v-23.094l-45,25.9808v23.0939Z"/>
      <path class="cls-4" d="M495,969.9479v-23.094l-45,25.9807v23.094Z"/>
      <path class="cls-2" d="M235,1120.0591l10,5.7735,10-5.7735v-34.641H235Z"/>
      <path class="cls-2" d="M310,1088.3047l10-5.7735V1047.89l-10,5.7735Z"/>
      <path class="cls-2" d="M445,1010.3625l10-5.7733v-34.641l-10,5.7733Z"/>
      <path class="cls-2" d="M377.5,1049.3337l10-5.7735v-34.641l-10,5.7736Z"/>
      <path class="cls-2" d="M510,972.8348l10-5.7735V932.42l-10,5.7735Z"/>
      <path class="cls-3" d="M5,975.7215l240,138.5641v-28.8675L5,946.854Z"/>
      <path class="cls-5" d="M202.5,1089.7482v-17.3206l37.5,21.6506v17.3206Z"/>
      <path class="cls-2" d="M177.5,1086.8615l10,5.7734,10-5.7734v-34.641h-20Z"/>
      <path class="cls-5" d="M145,1056.5507V1039.23l37.5,21.6507v17.32Z"/>
      <path class="cls-6" d="M232.5,1107.0688l7.5,4.33v-17.32l-7.5-4.33Z"/>
      <path class="cls-6" d="M175,1073.8711l7.5,4.33v-17.32l-7.5-4.33Z"/>
      <path class="cls-3" d="M245,1125.8326l-10-5.7735v-34.641l10,5.7736Z"/>
      <path class="cls-5" d="M87.5,1023.353v-17.3207L125,1027.683v17.3205Z"/>
      <path class="cls-6" d="M117.5,1040.6733l7.5,4.33v-17.32l-7.5-4.33Z"/>
      <path class="cls-5" d="M30,990.1553V972.8348l37.5,21.6506v17.3206Z"/>
      <path class="cls-6" d="M60,1007.4758l7.5,4.33v-17.32l-7.5-4.33Z"/>
      <path class="cls-2" d="M120,1053.6639l10,5.9032,10-5.7735v-34.641l-20-.13Z"/>
      <path class="cls-2" d="M62.5,1020.4662l10,5.7735,10-5.7735V985.8253h-20Z"/>
      <path class="cls-2" d="M5,987.2685l10,5.7734,10-5.7734v-34.641H5Z"/>
      <path class="cls-4" d="M245,1010.3625v69.282L520,920.8732v-69.282Z"/>
      <path class="cls-5" d="M245,1010.3625v80.8292L5,952.6275v-80.829Z"/>
      <path class="cls-7" d="M520,851.5912v23.094L300,1001.7021V978.6082Z"/>
      <path class="cls-7" d="M520,897.7791v23.094l-215,124.13V1021.91Z"/>
      <path class="cls-7" d="M305,987.2685v23.094l-60,34.641V1021.91Z"/>
      <path class="cls-7" d="M305,1021.91v23.094l-60,34.6411v-23.094Z"/>
      <path class="cls-3" d="M15,993.0419,5,987.2685v-34.641l10,5.7734Z"/>
      <path class="cls-3" d="M72.5,1026.24l-10-5.7735v-34.641l10,5.7735Z"/>
      <path class="cls-6" d="M155,1033.5214l-7.5-4.33V965.6827l7.5,4.33Z"/>
      <path class="cls-3" d="M130,1059.4373l-10-5.7735v-34.641l10,5.7735Z"/>
      <path class="cls-6" d="M185,1050.842l-7.5-4.33V983.0032l7.5,4.33Z"/>
      <path class="cls-3" d="M187.5,1092.6349l-10-5.7734v-34.641l10,5.7734Z"/>
      <path class="cls-6" d="M215,1068.1624l-7.5-4.33v-63.5086l7.5,4.33Z"/>
      <path class="cls-4" d="M275,1068.1624l7.5-4.33v-63.5086l-7.5,4.33Z"/>
      <path class="cls-3" d="M245,1045.0035l5,2.8868v11.547l-5-2.8868Z"/>
      <path class="cls-6" d="M245,1085.4832l-7.5-4.33v-63.5086l7.5,4.33Z"/>
      <path class="cls-4" d="M245,1085.4832l7.5-4.33v-63.5086l-7.5,4.33Z"/>
      <path class="cls-3" d="M245,1079.6447l60-34.641,5,2.8867v11.547l-60,34.641-5-2.8867Z"/>
      <path class="cls-6" d="M170,1042.1819l-7.5-4.33V974.3431l7.5,4.33Z"/>
      <path class="cls-3" d="M310,978.6083v11.547l-60,34.641-5-2.8868v-11.547l60-34.6411Z"/>
      <path class="cls-3" d="M245,1045.0035l60-34.641,5,2.8868v11.547l-60,34.641-5-2.8868Z"/>
      <path class="cls-6" d="M200,1059.5024l-7.5-4.33V991.6637l7.5,4.33Z"/>
      <path class="cls-4" d="M290,1059.5024l7.5-4.33V991.6637l-7.5,4.33Z"/>
      <path class="cls-1" d="M245,1010.3626l-97.5-56.2918-5,2.8868v11.5471l97.5,56.2916,5-2.8868Z"/>
      <path class="cls-6" d="M230,1076.8228l-7.5-4.33v-63.5087l7.5,4.33Z"/>
      <path class="cls-4" d="M260,1076.8228l7.5-4.33v-63.5087l-7.5,4.33Z"/>
      <path class="cls-1" d="M245,1045.0035,147.5,988.712l-5,2.8867v11.547l97.5,56.2916,5-2.8868Z"/>
      <path class="cls-6" d="M12.5,951.1841l-7.5-4.33V883.3454l7.5,4.33Z"/>
      <path class="cls-6" d="M42.5,968.5047l-7.5-4.33V900.6659l7.5,4.33Z"/>
      <path class="cls-6" d="M72.5,985.8249l-7.5-4.33V917.9863l7.5,4.33Z"/>
      <path class="cls-6" d="M102.5,1003.1457l-7.5-4.33V935.3071l7.5,4.33Z"/>
      <path class="cls-6" d="M27.5,959.8447l-7.5-4.33V892.0059l7.5,4.33Z"/>
      <path class="cls-6" d="M57.5,977.1652l-7.5-4.33V909.3264l7.5,4.33Z"/>
      <path class="cls-6" d="M87.5,994.4854l-7.5-4.33V926.6468l7.5,4.33Z"/>
      <path class="cls-6" d="M117.5,1011.8062l-7.5-4.33V943.9676l7.5,4.33Z"/>
      <path class="cls-6" d="M125,1016.1363l-7.5-4.33V948.2974l7.5,4.33Z"/>
      <path class="cls-1" d="M245,1091.1917v-11.547l-97.5-56.2917-5,2.8867v11.547l97.5,56.2917Z"/>
      <path class="cls-1" d="M102.5,928.09,5,871.7985l-5,2.8867v11.547L97.5,942.524l5-2.8869Z"/>
      <path class="cls-1" d="M102.5,962.7311,5,906.5692l-5,2.8867v11.4175L97.5,977.165l5-2.8867Z"/>
      <path class="cls-1" d="M102.5,997.3721,5,941.0805l-5,2.8867v11.547l97.5,56.292,5-2.8871Z"/>
      <path class="cls-8" d="M240,1024.7961l-97.5-56.2915v-11.547l97.5,56.2917Z"/>
      <path class="cls-8" d="M240,1059.4373l-97.5-56.162V991.5987L240,1047.89Z"/>
      <path class="cls-8" d="M240,1094.0782l-97.5-56.2916V1026.24l97.5,56.2916Z"/>
      <path class="cls-8" d="M97.5,942.5238,0,886.2322v-11.547L97.5,930.977Z"/>
      <path class="cls-8" d="M97.5,977.165,0,921.003V909.4559L97.5,965.618Z"/>
      <path class="cls-8" d="M97.5,1011.806,0,955.5142v-11.547l97.5,56.2918Z"/>
      <path class="cls-2" d="M240,1013.2493l5-2.8867v11.547l-5,2.8867Z"/>
      <path class="cls-2" d="M240,1047.89l5-2.8868V1056.55l-5,2.8867Z"/>
      <path class="cls-2" d="M240,1082.5312l5-2.8867v11.547l-5,2.8867Z"/>
      <path class="cls-2" d="M97.5,930.977l5-2.8869v11.547l-5,2.8869Z"/>
      <path class="cls-2" d="M97.5,965.7476l5-2.8867v11.547l-5,2.8867Z"/>
      <path class="cls-2" d="M97.5,1000.259l5-2.8868v11.547l-5,2.8868Z"/>
      <path class="cls-1" d="M107.5,1017.5794V936.75l5-2.8867,25,14.4337v80.829l-5,2.8868Z"/>
      <path class="cls-8" d="M107.5,936.75l25,14.4337v80.8291l-25-14.4338Z"/>
      <path class="cls-2" d="M132.5,1032.0132l5-2.8869V948.2974l-5,2.8867Z"/>
      <path class="cls-9" d="M305,998.8155l5-2.8867v-23.094l-5,2.8867Z"/>
      <path class="cls-9" d="M305,1045.0035l5-2.8868v-23.094l-5,2.8869Z"/>
      <path class="cls-9" d="M380,955.5142l10-5.7734V926.6469L380,932.42Z"/>
      <path class="cls-9" d="M380,1001.7021l10-5.7735v-23.094l-10,5.7735Z"/>
      <path class="cls-9" d="M460,909.3262l10-5.7735v-23.094l-10,5.7735Z"/>
      <path class="cls-9" d="M460,955.5141l10-5.7735V926.6467L460,932.42Z"/>
      <path class="cls-9" d="M340,978.6082l10-5.7734v-23.094l-10,5.7734Z"/>
      <path class="cls-9" d="M340,1024.7961l10-5.7735v-23.094l-10,5.7735Z"/>
      <path class="cls-9" d="M420,932.42l10-5.7734V903.5527l-10,5.7735Z"/>
      <path class="cls-9" d="M420,978.6081l10-5.7735v-23.094l-10,5.7735Z"/>
      <path class="cls-9" d="M500,886.2322l10-5.7735v-23.094l-10,5.7735Z"/>
      <path class="cls-9" d="M500,932.42l10-5.7734v-23.094l-10,5.7735Z"/>
      <path class="cls-9" d="M320,990.1552l10-5.7734v-23.094l-10,5.7734Z"/>
      <path class="cls-9" d="M320,1036.3431l10-5.7735v-23.094l-10,5.7735Z"/>
      <path class="cls-9" d="M400,943.9672l10-5.7734V915.1l-10,5.7734Z"/>
      <path class="cls-9" d="M400,990.1551l10-5.7735v-23.094l-10,5.7735Z"/>
      <path class="cls-9" d="M480,897.7791l10-5.7735v-23.094l-10,5.7735Z"/>
      <path class="cls-9" d="M480,943.967l10-5.7735V915.1l-10,5.7735Z"/>
      <path class="cls-9" d="M360,967.0612l10-5.7734v-23.094l-10,5.7734Z"/>
      <path class="cls-9" d="M360,1013.2491l10-5.7735v-23.094l-10,5.7735Z"/>
      <path class="cls-9" d="M440,920.8732,450,915.1V892.0057l-10,5.7735Z"/>
      <path class="cls-9" d="M440,967.0611l10-5.7735v-23.094l-10,5.7735Z"/>
      <path class="cls-10" d="M310,1019.0228l10-5.7736v-23.094l-10,5.7736Z"/>
      <path class="cls-10" d="M390,972.8348l10-5.7736v-23.094l-10,5.7736Z"/>
      <path class="cls-10" d="M470,926.6468l10-5.7736v-23.094l-10,5.7735Z"/>
      <path class="cls-10" d="M350,995.9288l10-5.7736v-23.094l-10,5.7736Z"/>
      <path class="cls-10" d="M430,949.7408l10-5.7736v-23.094l-10,5.7736Z"/>
      <path class="cls-10" d="M510,903.5527l10-5.7735v-23.094l-10,5.7735Z"/>
      <path class="cls-10" d="M330,1007.4758l10-5.7736v-23.094l-10,5.7736Z"/>
      <path class="cls-10" d="M410,961.2876l10-5.7735V932.42l-10,5.7735Z"/>
      <path class="cls-10" d="M490,915.1l10-5.7736v-23.094l-10,5.7735Z"/>
      <path class="cls-10" d="M370,984.3818l10-5.7736v-23.094l-10,5.7736Z"/>
      <path class="cls-10" d="M450,938.1938l10-5.7736v-23.094L450,915.1Z"/>
      <path class="cls-2" d="M520,920.8732V932.42L300,1059.4373V1047.89Z"/>
      <path class="cls-11" d="M250,1024.7961l60-34.6408v-11.547l-60,34.641Z"/>
      <path class="cls-11" d="M250,1059.4373l60-34.641v-11.5472L250,1047.89Z"/>
      <path class="cls-11" d="M250,1094.0782l60-34.6408V1047.89l-60,34.6409Z"/>
      <path class="cls-1" d="M245,1010.3626l60-34.6411,5,2.8868-60,34.641Z"/>
      <path class="cls-1" d="M245,1045.0035l60-34.6408,5,2.8867-60,34.641Z"/>
      <path class="cls-1" d="M245,1079.6447l60-34.641,5,2.8867-60,34.641Z"/>
      <path class="cls-6" d="M202.5,1089.7482l7.5,4.33v-17.32l-7.5-4.33Z"/>
      <path class="cls-6" d="M145,1056.5507l7.5,4.33V1043.56l-7.5-4.33Z"/>
      <path class="cls-6" d="M217.5,1098.4084l7.5,4.33v-17.32l-7.5-4.33Z"/>
      <path class="cls-10" d="M295,1085.4181l-7.5,4.33v-17.32l7.5-4.33Z"/>
      <path class="cls-10" d="M362.5,1046.4468l-7.5,4.33V1027.683l7.5-4.33Z"/>
      <path class="cls-10" d="M430,1007.4756l-7.5,4.33V988.7118l7.5-4.33Z"/>
      <path class="cls-10" d="M495,969.9479l-7.5,4.33V951.1841l7.5-4.33Z"/>
      <path class="cls-10" d="M265,1102.7386l-7.5,4.33V1089.748l7.5-4.33Z"/>
      <path class="cls-10" d="M332.5,1063.7675l-7.5,4.33v-23.0939l7.5-4.33Z"/>
      <path class="cls-10" d="M400,1024.7961l-7.5,4.33v-23.094l7.5-4.33Z"/>
      <path class="cls-10" d="M465,987.2685l-7.5,4.33V968.5047l7.5-4.33Z"/>
      <path class="cls-10" d="M280,1094.0784l-7.5,4.33v-17.32l7.5-4.33Z"/>
      <path class="cls-10" d="M347.5,1055.1071l-7.5,4.33v-23.094l7.5-4.33Z"/>
      <path class="cls-10" d="M415,1016.1359l-7.5,4.33v-23.094l7.5-4.33Z"/>
      <path class="cls-10" d="M480,978.6082l-7.5,4.33v-23.094l7.5-4.33Z"/>
      <path class="cls-6" d="M160,1065.2109l7.5,4.33V1052.22l-7.5-4.33Z"/>
      <path class="cls-6" d="M87.5,1023.353l7.5,4.33v-17.3205l-7.5-4.33Z"/>
      <path class="cls-6" d="M102.5,1032.0131l7.5,4.33v-17.32l-7.5-4.33Z"/>
      <path class="cls-6" d="M30,990.1551l7.5,4.33v-17.32l-7.5-4.33Z"/>
      <path class="cls-6" d="M45,998.8155l7.5,4.33v-17.32l-7.5-4.33Z"/>
    </g>
    <g>
      <path class="cls-1" d="M5,871.7985,280,713.0271,520,851.5912,245,1010.3625Z"/>
      <path class="cls-12" d="M245,1004.589,510,851.5912,280,718.8006,15,871.7985Z"/>
      <path class="cls-13" d="M445,727.4609v115.47L475,825.61V710.14Z"/>
      <path class="cls-14" d="M475,698.5933v23.094l-40,23.0941v-23.094Z"/>
      <path class="cls-5" d="M135,750.5549V860.2515l-35-20.2072V730.3476Z"/>
      <path class="cls-1" d="M455,317.5422,275,421.4652,145,346.41,325,242.487Z"/>
      <path class="cls-15" d="M135,756.3284v-23.094l-35-20.2072v23.094Z"/>
      <path class="cls-3" d="M115,733.2344l5,2.8867v51.9616l-5-2.8868Z"/>
      <path class="cls-3" d="M100,718.8007l5,2.8867v57.735l-5-2.8866Z"/>
      <path class="cls-1" d="M460,736.1212v5.7735l-215,124.13L85,773.6487v-5.7735l215-124.13Z"/>
      <path class="cls-12" d="M95,767.8754,300,649.5186l150,86.6025L245,854.478Z"/>
      <path class="cls-5" d="M225,369.5037V790.9694L100,718.8006V297.3349Z"/>
      <path class="cls-15" d="M100,689.9332v34.6409l125,72.1688v-34.641Z"/>
      <path class="cls-5" d="M275,375.2772l5-2.8867V788.0827l-5,2.8867L145,715.9139V300.2217Z"/>
      <path class="cls-1" d="M120,285.7879l160-92.376,155,89.4893-160,92.376Z"/>
      <path class="cls-11" d="M145,213.6192l130,75.0555,160-92.3761v-5.7735L305,115.47,145,207.8457Z"/>
      <path class="cls-4" d="M275,282.9012l-5-2.8868V418.5785l5,2.8868,160-92.3761V190.5251Z"/>
      <path class="cls-6" d="M235,352.1832v23.094l40,23.094v-23.094Z"/>
      <path class="cls-6" d="M235,444.5593v23.094l40,23.094v-23.094Z"/>
      <path class="cls-6" d="M235,536.9353v23.094l40,23.094v-23.094Z"/>
      <path class="cls-6" d="M235,629.3113v23.094l40,23.094v-23.094Z"/>
      <path class="cls-6" d="M235,721.6874v23.094l40,23.094v-23.094Z"/>
      <path class="cls-6" d="M235,398.3712v23.094l40,23.094v-23.094Z"/>
      <path class="cls-6" d="M235,490.7473v23.0941l40,23.0939V513.8414Z"/>
      <path class="cls-6" d="M235,583.1233v23.094l40,23.094v-23.094Z"/>
      <path class="cls-6" d="M235,675.4993v23.094l40,23.094v-23.094Z"/>
      <path class="cls-6" d="M235,767.8754v17.3205l40,23.094V790.9694Z"/>
      <path class="cls-15" d="M100,297.335v23.0939l125,72.1688v-23.094Z"/>
      <path class="cls-6" d="M100,389.711v23.094l125,72.1688V461.88Z"/>
      <path class="cls-15" d="M100,482.087v46.1881l125,72.1687v-46.188Z"/>
      <path class="cls-6" d="M100,574.4631v23.094l125,72.1687v-23.094Z"/>
      <path class="cls-6" d="M100,666.8391v23.0941l125,72.1687v-23.094Z"/>
      <path class="cls-6" d="M100,343.523v23.094l125,72.1688v-23.094Z"/>
      <path class="cls-6" d="M100,435.899v23.094l125,72.1688v-23.094Z"/>
      <path class="cls-6" d="M100,528.2751v23.094l125,72.1687V600.444Z"/>
      <path class="cls-6" d="M100,620.6511v23.094l125,72.1688V692.82Z"/>
      <path class="cls-4" d="M275,421.4652V802.5164L435,710.14V329.0892Z"/>
      <path class="cls-7" d="M315,444.5593v23.094l-40,23.094v-23.094Z"/>
      <path class="cls-4" d="M325,415.6917V796.7429L475,710.14V329.0892Z"/>
      <path class="cls-7" d="M315,536.9353v23.094l-40,23.094v-23.094Z"/>
      <path class="cls-4" d="M245,860.2515v115.47l215-124.13v-115.47Z"/>
      <path class="cls-7" d="M315,629.3113v23.094l-40,23.094v-23.094Z"/>
      <path class="cls-7" d="M315,721.6874v23.094l-40,23.094v-23.094Z"/>
      <path class="cls-7" d="M315,398.3712v23.094l-40,23.094v-23.094Z"/>
      <path class="cls-14" d="M475,329.0892v23.094L325,438.7858V415.6917Z"/>
      <path class="cls-7" d="M475,421.4652v23.094L325,531.1617v-23.094Z"/>
      <path class="cls-7" d="M475,560.0294v23.094L325,669.7259v-23.094Z"/>
      <path class="cls-7" d="M475,375.2772v23.094L325,484.9737V461.88Z"/>
      <path class="cls-7" d="M475,513.8414v23.094L325,623.5379V600.444Z"/>
      <path class="cls-7" d="M475,652.4053v23.094L325,762.1019V739.0078Z"/>
      <path class="cls-7" d="M460,736.1211v23.094L305,848.7045V825.61Z"/>
      <path class="cls-7" d="M460,782.3092v23.094L305,894.8925v-23.094Z"/>
      <path class="cls-7" d="M460,828.4972v23.094L305,941.08V917.986Z"/>
      <path class="cls-14" d="M475,467.6532v46.1882L325,600.4438V554.2557Z"/>
      <path class="cls-7" d="M475,606.2175v23.0939L325,715.9139V692.82Z"/>
      <path class="cls-16" d="M245,860.2515l10-5.7735v115.47l-10,5.7735L85,883.3455v-115.47Z"/>
      <path class="cls-7" d="M315,490.7473v23.0941l-40,23.0939V513.8414Z"/>
      <path class="cls-1" d="M305,409.9182l20,11.547,150-86.6025v-5.7735l-20-11.547L305,404.1447Z"/>
      <path class="cls-7" d="M315,583.1233v23.094l-40,23.094v-23.094Z"/>
      <path class="cls-5" d="M275,294.4482v80.829L145,300.2217v-80.829Z"/>
      <path class="cls-7" d="M315,675.4993v23.094l-40,23.094v-23.094Z"/>
      <path class="cls-7" d="M315,767.8754v17.3205L275,808.29V790.9694Z"/>
      <path class="cls-17" d="M325,415.6917V796.7429l-20-11.547V404.1447Z"/>
      <path class="cls-1" d="M100,297.335l20-11.5471,125,72.1688-20,11.547Z"/>
      <path class="cls-13" d="M225,796.7429l20-11.547V357.9567l-20,11.547Z"/>
      <path class="cls-12" d="M240,355.07l-15,8.66L110,297.335l35-20.2073v23.094Z"/>
      <path class="cls-12" d="M310,401.258l15,8.66,140-80.829-30-17.32v17.32Z"/>
      <path class="cls-15" d="M305,404.1448l20,11.547v23.094l-20-11.547Z"/>
      <path class="cls-6" d="M305,450.3327l20,11.547v23.0941l-20-11.5471Z"/>
      <path class="cls-6" d="M305,496.5208l20,11.547v23.094l-20-11.5469Z"/>
      <path class="cls-6" d="M305,588.8967l20,11.547v23.0941l-20-11.5471Z"/>
      <path class="cls-6" d="M305,635.0848l20,11.547v23.0941l-20-11.5471Z"/>
      <path class="cls-6" d="M305,681.273l20,11.547v23.094l-20-11.547Z"/>
      <path class="cls-6" d="M305,727.4609l20,11.547v23.094l-20-11.547Z"/>
      <path class="cls-15" d="M305,750.5549l20,11.547v40.4145l-20-11.547Z"/>
      <path class="cls-15" d="M305,542.7088l20,11.547v46.188l-20-11.547Z"/>
      <path class="cls-18" d="M135,744.7814v5.7735l-35,20.2074-5-2.8869Z"/>
      <path class="cls-15" d="M135,739.0079v11.547l90,51.9615v-11.547Z"/>
      <path class="cls-6" d="M245,785.1959v5.7735L275,808.29v-5.7735Z"/>
      <path class="cls-14" d="M440,724.5741v11.547L325,802.5164v-11.547Z"/>
      <path class="cls-7" d="M275,808.29l30-17.32V785.196l-30,17.32Z"/>
      <path class="cls-18" d="M225,802.5164l20-11.547v-5.7735l-20,11.547Z"/>
      <path class="cls-19" d="M440,736.1211l5,2.8868,5-2.8868-10-5.7735Z"/>
      <path class="cls-19" d="M470,828.4972v5.7735l35,20.2073,5-2.8868Z"/>
      <path class="cls-18" d="M15,871.7985l70-40.4146v5.7735L20,874.6852Z"/>
      <path class="cls-18" d="M460,840.0442l10-5.7735v-5.7735l-10,5.7735Z"/>
      <path class="cls-19" d="M145,277.1277v5.7735l-30,17.32-5-2.8867Z"/>
      <path class="cls-5" d="M145,294.4482v11.547l90,51.9615,10-5.7735Z"/>
      <path class="cls-19" d="M435,317.5422l25,14.4337,5-2.8867-30-17.32Z"/>
      <path class="cls-14" d="M325,762.1019v34.641L475,710.14V675.499Z"/>
      <g>
        <path class="cls-3" d="M145,323.3157l5,2.8868V759.2151l-5-2.8867Z"/>
        <path class="cls-3" d="M115,305.9952l5,2.8868V741.8946l-5-2.8867Z"/>
        <path class="cls-3" d="M175,340.6362l5,2.8868V776.5356l-5-2.8867Z"/>
        <path class="cls-3" d="M205,357.9567l5,2.8868V793.8562l-5-2.8868Z"/>
        <path class="cls-3" d="M130,314.6555l5,2.8867V744.7814l-5-2.8867Z"/>
        <path class="cls-3" d="M100,297.335l5,2.8867V733.2344l-5-2.8867Z"/>
        <path class="cls-3" d="M160,331.976l5,2.8867V767.8754l-5-2.8866Z"/>
        <path class="cls-3" d="M190,349.2965l5,2.8867V785.1959l-5-2.8867Z"/>
        <path class="cls-3" d="M220,366.617l5,2.8867V802.5164l-5-2.8867Z"/>
      </g>
      <g>
        <path class="cls-2" d="M405,369.5038l-5,2.8867V759.2151l5-2.8867Z"/>
        <path class="cls-2" d="M435,352.1833l-5,2.8867V741.8946l5-2.8867Z"/>
        <path class="cls-2" d="M375,386.8243l-5,2.8867V776.5356l5-2.8867Z"/>
        <path class="cls-2" d="M345,404.1448l-5,2.8867V793.8561l5-2.8867Z"/>
        <path class="cls-2" d="M420,360.8435l-5,2.8868V750.5549l5-2.8867Z"/>
        <path class="cls-2" d="M450,343.523l-5,2.8868V727.4609l5,2.8868Z"/>
        <path class="cls-2" d="M465,334.8627l-5,2.8868V834.2707l5-2.8867Z"/>
        <path class="cls-2" d="M390,378.164l-5,2.8868V767.8754l5-2.8866Z"/>
        <path class="cls-2" d="M360,395.4845l-5,2.8868V785.1959l5-2.8867Z"/>
        <path class="cls-2" d="M330,412.805l-5,2.8868V802.5164l5-2.8867Z"/>
      </g>
      <path class="cls-6" d="M145,207.8457V230.94l130,75.0555v-23.094Z"/>
      <path class="cls-7" d="M435,190.5252v23.0939L275,305.9952v-23.094Z"/>
      <path class="cls-7" d="M435,236.7132v23.094l-160,92.376v-23.094Z"/>
      <path class="cls-14" d="M225,392.5977l20-11.547v-23.094l-20,11.547Z"/>
      <path class="cls-7" d="M225,438.7858l20-11.547v-23.094l-20,11.547Z"/>
      <path class="cls-14" d="M225,600.4438l20-11.547v-46.188l-20,11.547Z"/>
      <path class="cls-7" d="M225,715.914l20-11.5469V681.273L225,692.82Z"/>
      <path class="cls-7" d="M225,484.9737l20-11.547v-23.094L225,461.88Z"/>
      <path class="cls-7" d="M225,623.5378l20-11.547V588.8967l-20,11.547Z"/>
      <path class="cls-7" d="M225,762.1019l20-11.547v-23.094l-20,11.547Z"/>
      <path class="cls-7" d="M225,531.1617l20-11.547v-23.094l-20,11.547Z"/>
      <path class="cls-7" d="M225,669.7258l20-11.547V635.0847l-20,11.547Z"/>
      <path class="cls-14" d="M225,802.5164l20-11.547V750.5549l-20,11.547Z"/>
      <path class="cls-7" d="M435,282.9012v23.094l-160,92.376v-23.094Z"/>
      <path class="cls-6" d="M145,254.0337v23.094l130,75.0555v-23.094Z"/>
      <path class="cls-3" d="M220,366.617l5,2.8867,5-2.8867V799.63l-5,2.8867-5-2.8867Z"/>
      <path class="cls-2" d="M230,366.617l-5,2.8867V802.5164l5-2.8867Z"/>
      <path class="cls-2" d="M245,357.9568l-5,2.8867V793.8562l5-2.8867Z"/>
      <path class="cls-2" d="M330,412.805l-5,2.8868-5-2.8868V799.63l5,2.8867,5-2.8867Z"/>
      <path class="cls-2" d="M300,828.4972l5-2.8868V941.08l-5,2.8868Z"/>
      <path class="cls-3" d="M320,412.805l5,2.8868V802.5164l-5-2.8867Z"/>
      <path class="cls-3" d="M305,404.1448l5,2.8868V793.8562l-5-2.8867Z"/>
      <path class="cls-20" d="M245,975.7215l55-31.7543v-115.47l-55,31.7542Z"/>
      <path class="cls-11" d="M245,871.7985l55-31.7542v-11.547l-55,31.7542Z"/>
      <path class="cls-8" d="M245,883.3455,85,790.9694v-11.547l160,92.376Z"/>
      <path class="cls-11" d="M245,917.9865l55-31.7543v-11.547L245,906.44Z"/>
      <path class="cls-8" d="M245,929.5335,85,837.1575V825.61l160,92.376Z"/>
      <path class="cls-11" d="M245,894.8925l55-31.7543V851.5911l-55,31.7543Z"/>
      <path class="cls-8" d="M245,906.44,85,814.0634v-11.547l160,92.376Z"/>
      <path class="cls-11" d="M245,941.0805l55-31.7543v-11.547l-55,31.7542Z"/>
      <path class="cls-8" d="M245,952.6275,85,860.2514V848.7045L245,941.08Z"/>
      <path class="cls-11" d="M245,964.1746,300,932.42V920.8732l-55,31.7543Z"/>
      <path class="cls-8" d="M245,975.7216,85,883.3455V871.7984l160,92.3761Z"/>
      <path class="cls-9" d="M305,848.7045l10-5.7735V819.8369L305,825.61Z"/>
      <path class="cls-9" d="M305,894.8925l10-5.7735V866.025l-10,5.7735Z"/>
      <path class="cls-9" d="M305,941.08l10-5.7735v-23.094l-10,5.7735Z"/>
      <path class="cls-9" d="M385,802.5164l10-5.7735v-23.094l-10,5.7735Z"/>
      <path class="cls-9" d="M385,848.7045l10-5.7735V819.8369L385,825.61Z"/>
      <path class="cls-9" d="M385,894.8924l10-5.7735v-23.094l-10,5.7735Z"/>
      <path class="cls-9" d="M345,825.61l10-5.7735v-23.094l-10,5.7735Z"/>
      <path class="cls-9" d="M345,871.7985l10-5.7735V842.931l-10,5.7735Z"/>
      <path class="cls-9" d="M345,917.9864l10-5.7735V889.119l-10,5.7734Z"/>
      <path class="cls-9" d="M425,779.4224l10-5.7735v-23.094l-10,5.7735Z"/>
      <path class="cls-9" d="M425,825.61l10-5.7735v-23.094l-10,5.7735Z"/>
      <path class="cls-9" d="M425,871.7984l10-5.7735V842.931l-10,5.7735Z"/>
      <path class="cls-9" d="M325,837.1574l10-5.7735V808.29l-10,5.7735Z"/>
      <path class="cls-9" d="M325,883.3454l10-5.7735V854.478l-10,5.7734Z"/>
      <path class="cls-9" d="M325,929.5334l10-5.7735v-23.094l-10,5.7735Z"/>
      <path class="cls-9" d="M405,790.9694l10-5.7735v-23.094l-10,5.7735Z"/>
      <path class="cls-9" d="M405,837.1574l10-5.7735V808.29l-10,5.7735Z"/>
      <path class="cls-9" d="M405,883.3454l10-5.7735V854.478l-10,5.7734Z"/>
      <path class="cls-9" d="M365,814.0634l10-5.7735v-23.094l-10,5.7735Z"/>
      <path class="cls-9" d="M365,860.2514l10-5.7734V831.3839l-10,5.7735Z"/>
      <path class="cls-9" d="M365,906.4394l10-5.7735v-23.094l-10,5.7735Z"/>
      <path class="cls-9" d="M445,767.8754l10-5.7735v-23.094l-10,5.7735Z"/>
      <path class="cls-10" d="M315,866.0249l10-5.7735v-23.094l-10,5.7736Z"/>
      <path class="cls-10" d="M395,819.8369l10-5.7735v-23.094l-10,5.7735Z"/>
      <path class="cls-10" d="M355,842.931l10-5.7736v-23.094l-10,5.7735Z"/>
      <path class="cls-10" d="M435,796.7429l10-5.7735v-23.094l-10,5.7735Z"/>
      <path class="cls-10" d="M335,854.478l10-5.7735V825.61l-10,5.7735Z"/>
      <path class="cls-10" d="M415,808.29l10-5.7735v-23.094l-10,5.7735Z"/>
      <path class="cls-10" d="M375,831.3839l10-5.7735v-23.094L375,808.29Z"/>
      <path class="cls-10" d="M455,785.1959l5-2.8867v-23.094l-5,2.8867Z"/>
      <path class="cls-10" d="M315,912.2129l10-5.7735v-23.094l-10,5.7735Z"/>
      <path class="cls-10" d="M395,866.0249l10-5.7735v-23.094l-10,5.7736Z"/>
      <path class="cls-10" d="M355,889.1189l10-5.7735v-23.094l-10,5.7735Z"/>
      <path class="cls-10" d="M435,842.931l10-5.7736v-23.094l-10,5.7735Z"/>
      <path class="cls-10" d="M335,900.6659l10-5.7735v-23.094l-10,5.7735Z"/>
      <path class="cls-10" d="M415,854.478l10-5.7735V825.61l-10,5.7735Z"/>
      <path class="cls-10" d="M375,877.5719l10-5.7735V848.7045l-10,5.7735Z"/>
      <path class="cls-10" d="M455,831.3839l5-2.8867v-23.094l-5,2.8867Z"/>
      <path class="cls-9" d="M445,814.0634l10-5.7735v-23.094l-10,5.7735Z"/>
      <path class="cls-9" d="M445,860.2514l10-5.7734V831.3839l-10,5.7735Z"/>
      <path class="cls-21" d="M155,825.6106l-10-5.7735-5-2.8867-10-5.7735v17.32l10,17.3205,15-2.8867Z"/>
      <path class="cls-21" d="M230,868.9119l-65-37.5277v23.0939l65,37.5279Z"/>
      <path class="cls-22" d="M155,825.6106l5-2.8868v17.3205l-5,2.8868Z"/>
      <path class="cls-16" d="M130,811.1769l25,14.4337,5-2.8868L135,808.29Z"/>
      <path class="cls-16" d="M165,831.3841l65,37.5278,5-2.8868-65-37.5278Z"/>
      <path class="cls-22" d="M235,866.0251l-5,2.8868v23.094l5-2.8868Z"/>
      <path class="cls-4" d="M305,398.3713l130-75.0556v11.5469l-120,69.282Z"/>
      <path class="cls-5" d="M245,381.0507l30,17.32v23.094l-30-17.32Z"/>
    </g>
    <g>
      <path class="cls-1" d="M145,98.1491V92.3756L305,0,435,75.0551v5.7735l-160,92.376Z"/>
      <path class="cls-20" d="M275,167.4311l-7.5-4.33v115.47l7.5,4.33L435,190.525V75.0551Z"/>
      <path class="cls-8" d="M275,167.4311v115.47L145,207.8456V92.3756Z"/>
      <path class="cls-12" d="M155,92.3756,305,5.7731l120,69.282L275,161.6576Z"/>
      <path class="cls-19" d="M305,5.7731v98.15L240,141.45,155,92.3756Z"/>
      <path class="cls-23" d="M305,103.9226V5.7731l120,69.282L340,124.13Z"/>
      <path class="cls-24" d="M315,213.6192l40-23.094V144.3371l-40,23.0941Z"/>
      <path class="cls-11" d="M275,190.5252,435,98.1491V75.0551l-160,92.376Z"/>
      <path class="cls-11" d="M275,236.7132l160-92.3761v-23.094l-160,92.376Z"/>
      <path class="cls-11" d="M275,282.9012l160-92.3761v-23.094l-160,92.376Z"/>
      <path class="cls-16" d="M275,190.5252,145,115.47V92.3756l130,75.0555Z"/>
      <path class="cls-16" d="M275,236.7132,145,161.6576v-23.094l130,75.0556Z"/>
      <path class="cls-16" d="M275,282.9012,145,207.8456v-23.094l130,75.0555Z"/>
      <path class="cls-24" d="M355,236.7132l40-23.0941v-46.188l-40,23.094Z"/>
      <path class="cls-24" d="M355,144.3371l40-23.094V98.1491l-40,23.094Z"/>
      <path class="cls-22" d="M310,181.8649l10-5.7735,5-2.8868,10-5.7735v17.3205l-10,17.3205-15-2.8867Z"/>
      <path class="cls-21" d="M180,147.2239,170,141.45l-5-2.8868L155,132.79v17.32l10,17.32,15-2.8867Z"/>
      <path class="cls-22" d="M345,161.6576,410,124.13v23.094l-65,37.5277Z"/>
      <path class="cls-21" d="M255,190.5252l-65-37.5278v23.094l65,37.5278Z"/>
      <path class="cls-21" d="M310,181.8649l-5-2.8868v17.32l5,2.8868Z"/>
      <path class="cls-22" d="M180,147.2239l5-2.8868v17.3205l-5,2.8868Z"/>
      <path class="cls-16" d="M335,167.4311l-25,14.4338-5-2.8868,25-14.4337Z"/>
      <path class="cls-16" d="M155,132.79l25,14.4337,5-2.8868-25-14.4337Z"/>
      <path class="cls-16" d="M410,124.13l-65,37.5277-5-2.8867,65-37.5278Z"/>
      <path class="cls-16" d="M190,152.9974l65,37.5278,5-2.8868-65-37.5278Z"/>
      <path class="cls-21" d="M340,158.7709l5,2.8867v23.094l-5-2.8867Z"/>
      <path class="cls-22" d="M260,187.6384l-5,2.8868v23.094l5-2.8868Z"/>
      <path class="cls-1" d="M305,40.4141l-120,69.282,90,51.9615,120-69.282Z"/>
      <path class="cls-12" d="M305,51.9611,195,115.47l80,46.188L385,98.1491Z"/>
      <path class="cls-19" d="M305,51.9611v23.094l-90,51.9615L195,115.47Z"/>
      <path class="cls-23" d="M385,98.1491l-80-46.188v23.094l60,34.641Z"/>
      <g>
        <path class="cls-25" d="M230,106.8093l25,14.4337,70-40.4145L300,66.3948Z"/>
        <path class="cls-19" d="M255,121.243v23.094l-25-14.4337v-23.094Z"/>
        <path class="cls-12" d="M325,80.8285V109.696l-65,37.5278-5-2.8868V121.243Z"/>
        <path class="cls-26" d="M260,124.13l10-5.7735v17.32L260,141.45Z"/>
        <path class="cls-26" d="M275,115.47l30-17.32v17.32l-30,17.32Z"/>
        <path class="cls-26" d="M310,95.2623l10-5.7735v17.32l-10,5.7735Z"/>
        <g>
          <ellipse class="cls-18" cx="254.7078" cy="106.3794" rx="9.4967" ry="5.4829"/>
          <rect class="cls-18" x="245.211" y="101.599" width="18.993" height="4.78"/>
          <ellipse class="cls-27" cx="254.7078" cy="101.5993" rx="9.4967" ry="5.4829"/>
        </g>
        <g>
          <ellipse class="cls-18" cx="277.7532" cy="93.4855" rx="9.4967" ry="5.4829"/>
          <rect class="cls-18" x="268.257" y="88.705" width="18.993" height="4.78"/>
          <ellipse class="cls-27" cx="277.7532" cy="88.7054" rx="9.4967" ry="5.4829"/>
        </g>
        <g>
          <ellipse class="cls-18" cx="300.7987" cy="80.5916" rx="9.4967" ry="5.4829"/>
          <rect class="cls-18" x="291.302" y="75.811" width="18.993" height="4.78"/>
          <ellipse class="cls-27" cx="300.7987" cy="75.8115" rx="9.4967" ry="5.4829"/>
        </g>
      </g>
      <g>
        <path class="cls-25" d="M265,127.0165,290,141.45l70-40.4145L335,86.602Z"/>
        <path class="cls-19" d="M290,141.45v11.5471l-10,5.7735-15-8.66V127.0165Z"/>
        <path class="cls-12" d="M360,101.0358v11.5471l-70,40.4145V141.45Z"/>
        <path class="cls-26" d="M295,144.3371l10-5.7736v5.7736l-10,5.7735Z"/>
        <path class="cls-26" d="M310,135.6768l30-17.32V124.13l-30,17.32Z"/>
        <path class="cls-26" d="M345,115.47l10-5.7735V115.47l-10,5.7735Z"/>
        <g>
          <ellipse class="cls-18" cx="289.7078" cy="126.5867" rx="9.4967" ry="5.4829"/>
          <rect class="cls-18" x="280.211" y="121.807" width="18.993" height="4.78"/>
          <ellipse class="cls-27" cx="289.7078" cy="121.8066" rx="9.4967" ry="5.4829"/>
        </g>
        <g>
          <ellipse class="cls-18" cx="312.7533" cy="113.6927" rx="9.4967" ry="5.4829"/>
          <rect class="cls-18" x="303.257" y="108.913" width="18.993" height="4.78"/>
          <ellipse class="cls-27" cx="312.7533" cy="108.9127" rx="9.4967" ry="5.4829"/>
        </g>
        <g>
          <ellipse class="cls-18" cx="335.7987" cy="100.7988" rx="9.4967" ry="5.4829"/>
          <rect class="cls-18" x="326.302" y="96.019" width="18.993" height="4.78"/>
          <ellipse class="cls-27" cx="335.7987" cy="96.0187" rx="9.4967" ry="5.4829"/>
        </g>
      </g>
    </g>
  </g>
</svg>
