<svg id="Layer_1" data-name="Layer 1" xmlns="http://www.w3.org/2000/svg" xmlns:xlink="http://www.w3.org/1999/xlink" viewBox="0 0 270 479.201">
  <defs>
    <style>
      .cls-1 {
        fill: #fff;
      }

      .cls-15, .cls-17, .cls-19, .cls-2 {
        fill: none;
      }

      .cls-3 {
        fill: #c7cacc;
      }

      .cls-4 {
        fill: #9c9e9f;
      }

      .cls-5 {
        fill: #0a6ebf;
      }

      .cls-6 {
        fill: #061d2f;
      }

      .cls-7 {
        fill: #0f4876;
      }

      .cls-8 {
        fill: #1b8be8;
      }

      .cls-9 {
        fill: #0b3355;
      }

      .cls-10 {
        clip-path: url(#clip-path);
      }

      .cls-11 {
        fill: #0e5a99;
      }

      .cls-12 {
        fill: #a8aaac;
      }

      .cls-13 {
        fill: #505253;
      }

      .cls-14 {
        mask: url(#mask);
      }

      .cls-15 {
        stroke: #a8aaac;
      }

      .cls-15, .cls-17, .cls-19 {
        stroke-linecap: square;
        stroke-miterlimit: 3;
        stroke-width: 10px;
      }

      .cls-16 {
        mask: url(#mask-2);
      }

      .cls-17 {
        stroke: #505253;
      }

      .cls-18 {
        mask: url(#mask-3);
      }

      .cls-19 {
        stroke: #77797b;
      }

      .cls-20 {
        fill: #a9acae;
      }

      .cls-21 {
        fill: #b9b9b9;
      }

      .cls-22 {
        fill: #d1d1d1;
      }
    </style>
    <clipPath id="clip-path">
      <polygon class="cls-2" points="115 112.583 150 427.239 175 430.126 195 124.13 115 112.583"/>
    </clipPath>
    <mask id="mask" x="168.125" y="33.3624" width="101.875" height="412.2796" maskUnits="userSpaceOnUse">
      <g id="_mask_QezR3dSvKuqQ2PYbFGLIRMde5PUu60dN" data-name=" mask QezR3dSvKuqQ2PYbFGLIRMde5PUu60dN">
        <path id="Path" class="cls-1" d="M265,43.301V383.938l-91.25,52.683L195,124.13V95.263Z"/>
      </g>
    </mask>
    <mask id="mask-2" x="0" y="15.6809" width="158.618" height="428.0808" maskUnits="userSpaceOnUse">
      <g id="_mask_dhwbpxrwmMfJT9CgkSgSa4l0VDpaywXy" data-name=" mask dhwbpxrwmMfJT9CgkSgSa4l0VDpaywXy">
        <path id="Path-2" data-name="Path" class="cls-1" d="M5,25.981V349.297l147.5,85.159L115,112.583Z"/>
      </g>
    </mask>
    <mask id="mask-3" x="109.5155" y="89.0647" width="90.4845" height="346.5064" maskUnits="userSpaceOnUse">
      <g id="_mask_cjrU0SfjU8tLHe7711NaXBLvJBaVPetj" data-name=" mask cjrU0SfjU8tLHe7711NaXBLvJBaVPetj">
        <path id="Path-3" data-name="Path" class="cls-1" d="M115,112.583l80-17.32V124.13L175,430.126l-23.75-2.165Z"/>
      </g>
    </mask>
  </defs>
  <title>Artboard 23</title>
  <g id="Group">
    <path id="Path-4" data-name="Path" class="cls-3" d="M265.074,377.95,104.876,285.917,5,343.867l160,92.032Z"/>
    <path id="Path-5" data-name="Path" d="M135.7461,359.545h0a4.5907,4.5907,0,0,0-3.2932,1.169h0a4.1727,4.1727,0,0,0-1.219,3.186h0a4.6265,4.6265,0,0,0,1.4822,3.678h0a6.2174,6.2174,0,0,0,4.2219,1.28h0a8.2663,8.2663,0,0,0,3.8459-.779h0l-.0058-2.608h0a7.97,7.97,0,0,1-1.7952.673h0a7.95,7.95,0,0,1-1.9429.263h0q-2.764.006-2.769-2.26h0q-.004-2.158,2.8569-2.164h0a7.1383,7.1383,0,0,1,1.1431.1h0a8.2647,8.2647,0,0,1,1.0161.218h0l1.2-.647-.553-7.275-7.7442.017.0052,2.559,5.0979-.011.27,2.802-.3421-.068h0A6.7409,6.7409,0,0,0,135.7461,359.545Z"/>
    <path id="Path-6" data-name="Path" class="cls-4" d="M265,83.716,135,20.207,95,8.66,5,49.075l110,63.508,80,11.547Z"/>
    <path id="Path-7" data-name="Path" class="cls-5" d="M5,60.622,95,17.32V8.66L5,25.981Z"/>
    <path id="Path-8" data-name="Path" class="cls-6" d="M5,49.075V343.523l145,83.716L115,112.583Z"/>
    <path id="Path-9" data-name="Path" class="cls-7" d="M115,112.583l80-17.32V124.13Z"/>
    <path id="Path-10" data-name="Path" class="cls-6" d="M5,25.981l110,86.602L5,49.075Z"/>
    <path id="Path-11" data-name="Path" class="cls-6" d="M135,20.207v-8.66L265,43.301V83.716Z"/>
    <path id="Path-12" data-name="Path" class="cls-5" d="M195,124.13l70-40.414V378.164l-90,51.962Z"/>
    <path id="Path-13" data-name="Path" class="cls-5" d="M265,83.716V43.301L195,95.263V124.13Z"/>
    <path id="Path-14" data-name="Path" class="cls-3" d="M195,95.263l-7.5-7.217L250,43.301h15Z"/>
    <path id="Path-15" data-name="Path" class="cls-3" d="M115,112.583l80-17.32-7.5-7.217L115,101.036Z"/>
    <path id="Path-16" data-name="Path" class="cls-3" d="M5,25.981H20l95,75.055v11.547Z"/>
    <path id="Path-17" data-name="Path" class="cls-3" d="M5,25.981,95,0V8.66L17.5,33.198Z"/>
    <path id="Path-18" data-name="Path" class="cls-3" d="M95,0l40,2.887v8.66L95,8.66Z"/>
    <path id="Path-19" data-name="Path" class="cls-3" d="M265,43.301,135,2.887v8.66L250,49.075Z"/>
    <path id="Path-20" data-name="Path" class="cls-7" d="M95,17.32l40,2.887v-8.66L95,8.66Z"/>
    <path id="Path-21" data-name="Path" class="cls-8" d="M190,127.017l75-43.301v17.32l-75,43.301Z"/>
    <path id="Path-22" data-name="Path" class="cls-9" d="M135,124.13,5,49.075v17.32l130,75.056Z"/>
    <path id="Path-23" data-name="Path" class="cls-8" d="M185,199.186l80-46.188v17.32l-80,46.188Z"/>
    <path id="Path-24" data-name="Path" class="cls-9" d="M140,196.299,5,118.357v17.32l135,77.942Z"/>
    <path id="Path-25" data-name="Path" class="cls-8" d="M180,271.354l85-49.074V239.6l-85,49.075Z"/>
    <path id="Path-26" data-name="Path" class="cls-9" d="M155,274.241,5,187.639v17.32l150,86.603Z"/>
    <path id="Path-27" data-name="Path" class="cls-8" d="M175,343.523l90-51.961v17.32l-90,51.962Z"/>
    <path id="Path-28" data-name="Path" class="cls-9" d="M160,346.41,5,256.921v17.32l155,89.49Z"/>
    <path id="Path-29" data-name="Path" class="cls-8" d="M190,161.658l75-43.301v17.32l-75,43.301Z"/>
    <path id="Path-30" data-name="Path" class="cls-9" d="M135,158.771,5,83.716v17.32l130,75.056Z"/>
    <path id="Path-31" data-name="Path" class="cls-8" d="M185,233.827l80-46.188v17.32l-80,46.188Z"/>
    <path id="Path-32" data-name="Path" class="cls-9" d="M140,230.94,5,152.998v17.32l135,77.943Z"/>
    <path id="Path-33" data-name="Path" class="cls-8" d="M180,305.996l85-49.075v17.32l-85,49.075Z"/>
    <path id="Path-34" data-name="Path" class="cls-9" d="M155,308.882,5,222.28V239.6l150,86.603Z"/>
    <path id="Path-35" data-name="Path" class="cls-8" d="M175,378.164l90-51.961v17.32l-90,51.962Z"/>
    <path id="Path-36" data-name="Path" class="cls-9" d="M160,381.051,5,291.562v17.32l155,89.49Z"/>
    <path id="Path-37" data-name="Path" class="cls-8" d="M175,412.805l90-51.961v17.32l-90,51.962Z"/>
    <path id="Path-38" data-name="Path" class="cls-9" d="M155,412.805,5,326.203v17.32l145,83.716Z"/>
    <path id="Path-39" data-name="Path" class="cls-7" d="M115,112.583l35,314.656,25,2.887L195,124.13Z"/>
    <g class="cls-10">
      <g id="Group-2" data-name="Group">
        <path id="Path-40" data-name="Path" class="cls-11" d="M195,124.13l-80-11.547v17.321l80,11.547Z"/>
        <path id="Path-41" data-name="Path" class="cls-11" d="M195,193.412l-80-11.547v17.321l80,11.547Z"/>
        <path id="Path-42" data-name="Path" class="cls-11" d="M195,262.694l-80-11.547v17.321l80,11.547Z"/>
        <path id="Path-43" data-name="Path" class="cls-11" d="M195,331.976l-80-11.547V337.75l80,11.547Z"/>
        <path id="Path-44" data-name="Path" class="cls-11" d="M195,401.258l-80-11.547v17.321l80,11.547Z"/>
        <path id="Path-45" data-name="Path" class="cls-11" d="M195,158.771l-80-11.547v17.321l80,11.547Z"/>
        <path id="Path-46" data-name="Path" class="cls-11" d="M195,228.053l-80-11.547v17.321l80,11.547Z"/>
        <path id="Path-47" data-name="Path" class="cls-11" d="M195,297.335l-80-11.547v17.321l80,11.547Z"/>
        <path id="Path-48" data-name="Path" class="cls-11" d="M195,366.617,115,355.07v17.321l80,11.547Z"/>
      </g>
    </g>
    <path id="Path-49" data-name="Path" class="cls-12" d="M165,435.899v5.774l100-57.735v-5.774Z"/>
    <path id="Path-50" data-name="Path" class="cls-5" d="M165,441.673v34.641l100-57.735V383.938Z"/>
    <path id="Path-51" data-name="Path" class="cls-6" d="M165,441.673v37.528L5,386.825V349.297Z"/>
    <path id="Path-52" data-name="Path" class="cls-13" d="M5,343.523v5.774l160,92.376v-5.774Z"/>
    <g class="cls-14">
      <path id="Path-53" data-name="Path" class="cls-15" d="M265,43.301V383.938l-91.25,52.683L195,124.13V95.263Z"/>
    </g>
    <path id="Path-54" data-name="Path" class="cls-2" d="M265,43.301V383.938l-91.25,52.683L195,124.13V95.263Z"/>
    <g class="cls-16">
      <path id="Path-55" data-name="Path" class="cls-17" d="M5,25.981V349.297l147.5,85.159L115,112.583Z"/>
    </g>
    <path id="Path-56" data-name="Path" class="cls-2" d="M5,25.981V349.297l147.5,85.159L115,112.583Z"/>
    <g class="cls-18">
      <path id="Path-57" data-name="Path" class="cls-19" d="M115,112.583l80-17.32V124.13L175,430.126l-23.75-2.165Z"/>
    </g>
    <path id="Path-58" data-name="Path" class="cls-2" d="M115,112.583l80-17.32V124.13L175,430.126l-23.75-2.165Z"/>
    <path id="Path-59" data-name="Path" class="cls-12" d="M175,430.126l5-2.887V470.54l-5,2.887Z"/>
    <path id="Path-60" data-name="Path" class="cls-12" d="M215,407.032l5-2.887v43.301l-5,2.887Z"/>
    <path id="Path-61" data-name="Path" class="cls-12" d="M260,381.051l5-2.887v43.302l-5,2.886Z"/>
    <path id="Path-62" data-name="Path" class="cls-8" d="M165,444.56l5-2.887v34.641l-5,2.887Z"/>
    <path id="Path-63" data-name="Path" class="cls-9" d="M125,421.466l-5-2.887V453.22l5,2.887Z"/>
    <path id="Path-64" data-name="Path" class="cls-9" d="M85,398.372l-5-2.887v34.641l5,2.887Z"/>
    <path id="Path-65" data-name="Path" class="cls-9" d="M45,375.278l-5-2.887v34.641l5,2.887Z"/>
    <path id="Path-66" data-name="Path" class="cls-8" d="M180,433.013l5-2.887v34.641l-5,2.887Z"/>
    <path id="Path-67" data-name="Path" class="cls-13" d="M155,430.126l-5-2.887V470.54l5,2.887Z"/>
    <path id="Path-68" data-name="Path" class="cls-9" d="M165,441.673l-5-2.887v34.641l5,2.887Z"/>
    <path id="Path-69" data-name="Path" class="cls-9" d="M115,415.692l-5-2.887v34.641l5,2.887Z"/>
    <path id="Path-70" data-name="Path" class="cls-9" d="M75,392.598l-5-2.887v34.641l5,2.887Z"/>
    <path id="Path-71" data-name="Path" class="cls-9" d="M35,369.504l-5-2.887v34.641l5,2.887Z"/>
    <path id="Path-72" data-name="Path" class="cls-8" d="M190,427.239l5-2.887v34.641l-5,2.887Z"/>
    <path id="Path-73" data-name="Path" class="cls-9" d="M145,430.126l-5-2.887V461.88l5,2.887Z"/>
    <path id="Path-74" data-name="Path" class="cls-9" d="M105,409.919l-5-2.887v34.641l5,2.887Z"/>
    <path id="Path-75" data-name="Path" class="cls-9" d="M65,386.825l-5-2.887v34.641l5,2.887Z"/>
    <path id="Path-76" data-name="Path" class="cls-9" d="M25,363.731l-5-2.887v34.641l5,2.887Z"/>
    <path id="Path-77" data-name="Path" class="cls-8" d="M200,421.466l5-2.887V453.22l-5,2.887Z"/>
    <path id="Path-78" data-name="Path" class="cls-9" d="M135,424.352l-5-2.886v34.641l5,2.886Z"/>
    <path id="Path-79" data-name="Path" class="cls-9" d="M95,404.145l-5-2.887v34.641l5,2.887Z"/>
    <path id="Path-80" data-name="Path" class="cls-9" d="M55,381.051l-5-2.887v34.641l5,2.887Z"/>
    <path id="Path-81" data-name="Path" class="cls-9" d="M15,357.957l-5-2.887v34.641l5,2.887Z"/>
    <path id="Path-82" data-name="Path" class="cls-8" d="M210,415.692l5-2.887v34.641l-5,2.887Z"/>
    <path id="Path-83" data-name="Path" class="cls-8" d="M225,407.032l5-2.887v34.641l-5,2.887Z"/>
    <path id="Path-84" data-name="Path" class="cls-8" d="M235,401.258l5-2.886v34.641l-5,2.886Z"/>
    <path id="Path-85" data-name="Path" class="cls-8" d="M245,395.485l5-2.887v34.641l-5,2.887Z"/>
    <path id="Path-86" data-name="Path" class="cls-8" d="M255,389.711l5-2.886v34.641l-5,2.886Z"/>
    <path id="Path-87" data-name="Path" class="cls-3" d="M265,381.051l5,2.887L165,444.56v-5.774Z"/>
    <path id="Path-88" data-name="Path" class="cls-13" d="M55,381.051v40.415l2.5,1.443V382.494Z"/>
    <path id="Path-89" data-name="Path" class="cls-13" d="M5,352.184v40.414l2.5,1.443V353.627Z"/>
    <path id="Path-90" data-name="Path" class="cls-12" d="M165,444.56v2.886l105-60.621v-2.887Z"/>
    <path id="Path-91" data-name="Path" class="cls-13" d="M62.5,417.135v2.887L165,479.201v-2.887Z"/>
    <path id="Path-92" data-name="Path" class="cls-12" d="M57.5,422.909l5-2.887V379.608l-5,2.886Z"/>
    <path id="Path-93" data-name="Path" class="cls-12" d="M7.5,394.041l5-2.886V350.74l-5,2.887Z"/>
    <path id="Path-94" data-name="Path" class="cls-3" d="M5,346.41l-5,2.887L165,444.56v-5.774Z"/>
    <path id="Path-95" data-name="Path" class="cls-13" d="M165,444.56v2.886L0,352.184v-2.887Z"/>
    <path id="Path-96" data-name="Path" class="cls-13" d="M140,92.376V75.055L65,31.754V49.075Z"/>
    <path id="Path-97" data-name="Path" class="cls-12" d="M160,63.508V80.829L140,92.376V75.055Z"/>
    <path id="Path-98" data-name="Path" class="cls-12" d="M130,28.867V46.188l-15,8.66V37.528Z"/>
    <path id="Path-99" data-name="Path" class="cls-3" d="M65,31.754,85,20.207l75,43.301L140,75.055Z"/>
    <path id="Path-100" data-name="Path" class="cls-3" d="M90,17.32l10-5.773,30,17.32L105,43.301,75,25.981Z"/>
    <path id="Path-101" data-name="Path" class="cls-20" d="M75,31.754l65,37.528,10-5.774-45-25.98,15-8.661L100,17.32Z"/>
    <path id="Path-102" data-name="Path" class="cls-12" d="M100,17.32v5.774L80,34.641l-5-2.887Z"/>
    <path id="Path-103" data-name="Path" class="cls-1" d="M185,66.395l20-11.547v5.774L185,72.169Z"/>
    <path id="Path-104" data-name="Path" class="cls-21" d="M140,40.414l45,25.981v5.774L140,46.188Z"/>
    <path id="Path-105" data-name="Path" class="cls-22" d="M205,54.848,185,66.395,140,40.414l20-11.547Z"/>
    <path id="Path-106" data-name="Path" class="cls-12" d="M165,476.314v2.887l100-57.735v-2.887Z"/>
  </g>
</svg>
