<svg id="Layer_1" data-name="Layer 1" xmlns="http://www.w3.org/2000/svg" xmlns:xlink="http://www.w3.org/1999/xlink" viewBox="0 0 520.4563 919.5103">
  <defs>
    <style>
      .cls-1 {
        fill: none;
      }

      .cls-2 {
        fill: #e8e8e8;
      }

      .cls-3 {
        fill: #dfd1c6;
      }

      .cls-4 {
        fill: #bbaea5;
      }

      .cls-5 {
        fill: #58bcee;
      }

      .cls-6 {
        fill: #3c94bf;
      }

      .cls-7 {
        fill: #24759d;
      }

      .cls-8 {
        fill: #439dca;
      }

      .cls-9 {
        fill: #6ecfff;
      }

      .cls-10 {
        fill: #3a8eb9;
      }

      .cls-11 {
        fill: #44ade1;
      }

      .cls-12 {
        fill: #d0ecfb;
      }

      .cls-13 {
        fill: #d1d1d1;
      }

      .cls-14 {
        fill: #63b4dd;
      }

      .cls-15 {
        fill: #484e51;
      }

      .cls-16 {
        fill: #2a2d2f;
      }

      .cls-17 {
        fill: #89d8ff;
      }

      .cls-18 {
        fill: #448fb5;
      }

      .cls-19 {
        fill: #b9b9b9;
      }

      .cls-20 {
        fill: #a2a2a2;
      }

      .cls-21 {
        fill: #b1e5ff;
      }

      .cls-22 {
        fill: #8b8b8b;
      }

      .cls-23 {
        fill: #f9f9f9;
      }

      .cls-24 {
        fill: #464646;
      }

      .cls-25 {
        fill: #fff;
      }

      .cls-26 {
        fill: url(#linear-gradient);
      }

      .cls-27 {
        clip-path: url(#clip-path);
      }

      .cls-28 {
        fill: #ee7d97;
      }
    </style>
    <linearGradient id="linear-gradient" x1="-5555.2136" y1="-1337.446" x2="-5553.9925" y2="-1337.5576" gradientTransform="matrix(-35, 0, 0, 66.395, -194207.1665, 89082.0579)" gradientUnits="userSpaceOnUse">
      <stop offset="0" stop-color="#e8e8e8"/>
      <stop offset="0.9826" stop-color="#8b8b8b"/>
    </linearGradient>
    <clipPath id="clip-path">
      <path class="cls-1" d="M207.9563,256.2322h0c-9.658-5.5769-17.5.2441-17.5,12.99h0c0,12.7461,7.842,27.6211,17.5,33.198h0c9.6589,5.5761,17.5-.2449,17.5-12.991h0C225.4563,276.6843,217.6152,261.8081,207.9563,256.2322Z"/>
    </clipPath>
  </defs>
  <title>Artboard 29</title>
  <g id="Group">
    <g id="Group-2">
      <path id="Path" class="cls-2" d="M5,668.3633v-2.887L280,506.7041,520,645.2693v2.886L245,806.9272Z"/>
      <path id="Path-3" class="cls-3" d="M520,749.1921,245,907.9631V879.0952l275-158.771Z"/>
      <path id="Path-4" class="cls-4" d="M320,876.2092l-10,5.773-10-5.773V841.5681h20Z"/>
      <path id="Path-5" class="cls-4" d="M387.5,837.2373l-10,5.7739-10-5.7729V802.5972l20-.0009Z"/>
      <path id="Path-6" class="cls-4" d="M455,798.2661,445,804.04l-10-5.7742V763.6252h20Z"/>
      <path id="Path-7" class="cls-4" d="M520,760.7393l-10,5.7729-10-5.7729V726.0981h20Z"/>
      <path id="Path-8" class="cls-5" d="M295,879.0952v-17.32l-45,25.981v17.32Z"/>
      <path id="Path-9" class="cls-5" d="M362.5,840.1243V817.03l-45,25.9809v23.094Z"/>
      <path id="Path-10" class="cls-5" d="M430,801.1533v-23.094L385,804.04v23.094Z"/>
      <path id="Path-11" class="cls-5" d="M495,763.6252v-23.094l-45,25.981v23.094Z"/>
      <path id="Path-12" class="cls-3" d="M235,913.7363l10,5.774,10-5.774V879.0952H235Z"/>
      <path id="Path-13" class="cls-3" d="M310,881.9822l10-5.773V841.5681l-10,5.7732Z"/>
      <path id="Path-14" class="cls-3" d="M445,804.04l10-5.7742V763.6252l-10,5.774Z"/>
      <path id="Path-15" class="cls-3" d="M377.5,843.0112l10-5.7739V802.5962l-10,5.7739Z"/>
      <path id="Path-16" class="cls-3" d="M510,766.5122l10-5.7729V726.0981l-10,5.7732Z"/>
      <path id="Path-17" class="cls-4" d="M5,769.3992,245,907.9631V879.0952L5,740.5312Z"/>
      <path id="Path-18" class="cls-6" d="M202.5,883.4263V866.1052L240,887.7561v17.32Z"/>
      <path id="Path-19" class="cls-3" d="M177.5,880.5393l10,5.773,10-5.773V845.8982h-20Z"/>
      <path id="Path-20" class="cls-6" d="M145,850.2283V832.9072l37.5,21.6509v17.3211Z"/>
      <path id="Path-21" class="cls-7" d="M232.5,900.7463l7.5,4.33v-17.32l-7.5-4.33Z"/>
      <path id="Path-22" class="cls-7" d="M175,867.5481l7.5,4.3311V854.5581l-7.5-4.33Z"/>
      <path id="Path-23" class="cls-4" d="M245,919.51l-10-5.774V879.0952l10,5.7739Z"/>
      <path id="Path-24" class="cls-6" d="M87.5,817.03V799.71L125,821.36v17.3211Z"/>
      <path id="Path-25" class="cls-7" d="M117.5,834.3513l7.5,4.33V821.36l-7.5-4.33Z"/>
      <path id="Path-26" class="cls-6" d="M30,783.8333V766.5122l37.5,21.6511v17.32Z"/>
      <path id="Path-27" class="cls-7" d="M60,801.1533l7.5,4.33v-17.32l-7.5-4.331Z"/>
      <path id="Path-28" class="cls-3" d="M120,847.3413l10,5.9028,10-5.7729V812.83l-20-.13Z"/>
      <path id="Path-29" class="cls-3" d="M62.5,814.1443l10,5.7729,10-5.7729V779.5032h-20Z"/>
      <path id="Path-30" class="cls-3" d="M5,780.9463l10,5.7729,10-5.7729V746.3052H5Z"/>
      <path id="Path-31" class="cls-5" d="M245,804.04v69.282L520,714.551V645.269Z"/>
      <path id="Path-32" class="cls-6" d="M245,804.04v80.8288L5,746.3052V665.4763Z"/>
      <path id="Path-33" class="cls-8" d="M520,645.2693v23.094L300,795.38V772.286Z"/>
      <path id="Path-34" class="cls-8" d="M520,691.4563V714.55L305,838.6812v-23.094Z"/>
      <path id="Path-35" class="cls-8" d="M305,780.9463V804.04l-60,34.6409v-23.094Z"/>
      <path id="Path-36" class="cls-8" d="M305,815.5872v23.094l-60,34.6411v-23.094Z"/>
      <path id="Path-37" class="cls-4" d="M15,786.7192,5,780.9463V746.3052l10,5.7729Z"/>
      <path id="Path-38" class="cls-4" d="M72.5,819.9172l-10-5.7729V779.5032l10,5.7729Z"/>
      <path id="Path-39" class="cls-7" d="M155,827.1992l-7.5-4.33V759.36l7.5,4.33Z"/>
      <path id="Path-40" class="cls-4" d="M130,853.1152l-10-5.774V812.7l10,5.7739Z"/>
      <path id="Path-41" class="cls-7" d="M185,844.5193l-7.5-4.33v-63.508l7.5,4.33Z"/>
      <path id="Path-42" class="cls-4" d="M187.5,886.3123l-10-5.773V845.8982l10,5.7729Z"/>
      <path id="Path-43" class="cls-7" d="M215,861.84l-7.5-4.331V794.0012l7.5,4.33Z"/>
      <path id="Path-44" class="cls-5" d="M275,861.84l7.5-4.331V794.0012l-7.5,4.33Z"/>
      <path id="Path-45" class="cls-4" d="M245,838.6812l5,2.8869v11.5471l-5-2.8869Z"/>
      <path id="Path-46" class="cls-7" d="M245,879.16l-7.5-4.33V811.322l7.5,4.33Z"/>
      <path id="Path-47" class="cls-5" d="M245,879.16l7.5-4.33V811.322l-7.5,4.33Z"/>
      <path id="Path-48" class="cls-4" d="M245,873.3223l60-34.6411,5,2.8869v11.5471l-60,34.6409-5-2.887Z"/>
      <path id="Path-49" class="cls-7" d="M170,835.8591l-7.5-4.33V768.02l7.5,4.331Z"/>
      <path id="Path-50" class="cls-4" d="M310,772.2861v11.5472l-60,34.6408-5-2.8869V804.04l60-34.6411Z"/>
      <path id="Path-51" class="cls-4" d="M245,838.6812,305,804.04l5,2.8869v11.5469l-60,34.6411-5-2.8869Z"/>
      <path id="Path-52" class="cls-7" d="M200,853.18l-7.5-4.33V785.3413l7.5,4.33Z"/>
      <path id="Path-53" class="cls-5" d="M290,853.18l7.5-4.33V785.3413l-7.5,4.33Z"/>
      <path id="Path-54" class="cls-2" d="M245,804.04l-97.5-56.292-5,2.887v11.5468l97.5,56.292,5-2.8869Z"/>
      <path id="Path-55" class="cls-7" d="M230,870.5l-7.5-4.33V802.6611l7.5,4.33Z"/>
      <path id="Path-56" class="cls-5" d="M260,870.5l7.5-4.33V802.6611l-7.5,4.33Z"/>
      <path id="Path-57" class="cls-2" d="M245,838.6812l-97.5-56.292-5,2.8869v11.5471l97.5,56.292,5-2.8869Z"/>
      <path id="Path-58" class="cls-7" d="M12.5,744.8613l-7.5-4.33v-63.508l7.5,4.33Z"/>
      <path id="Path-59" class="cls-7" d="M42.5,762.1821l-7.5-4.33v-63.509l7.5,4.33Z"/>
      <path id="Path-60" class="cls-7" d="M72.5,779.5022l-7.5-4.33V711.6643l7.5,4.33Z"/>
      <path id="Path-61" class="cls-7" d="M102.5,796.8232l-7.5-4.33V728.9841l7.5,4.3311Z"/>
      <path id="Path-62" class="cls-7" d="M27.5,753.5222l-7.5-4.33v-63.509l7.5,4.33Z"/>
      <path id="Path-63" class="cls-7" d="M57.5,770.8433,50,766.5122v-63.508l7.5,4.33Z"/>
      <path id="Path-64" class="cls-7" d="M87.5,788.1633l-7.5-4.33V720.3242l7.5,4.33Z"/>
      <path id="Path-65" class="cls-7" d="M117.5,805.4841l-7.5-4.3308v-63.508l7.5,4.33Z"/>
      <path id="Path-66" class="cls-7" d="M125,809.8142l-7.5-4.331V741.9751l7.5,4.33Z"/>
      <path id="Path-67" class="cls-2" d="M245,884.8691V873.3223L147.5,817.03l-5,2.8869v11.5469l97.5,56.292Z"/>
      <path id="Path-68" class="cls-2" d="M102.5,721.7673,5,665.4763l-5,2.887V679.91l97.5,56.291,5-2.887Z"/>
      <path id="Path-69" class="cls-2" d="M102.5,756.4082,5,700.2473l-5,2.886v11.418l97.5,56.291,5-2.8859Z"/>
      <path id="Path-70" class="cls-2" d="M102.5,791.0493,5,734.7583l-5,2.887v11.5468l97.5,56.2911,5-2.887Z"/>
      <path id="Path-71" class="cls-9" d="M240,818.4741l-97.5-56.292V750.6353L240,806.9272Z"/>
      <path id="Path-72" class="cls-9" d="M240,853.1152l-97.5-56.1621v-11.677l97.5,56.292Z"/>
      <path id="Path-73" class="cls-9" d="M240,887.7561l-97.5-56.292V819.9172l97.5,56.292Z"/>
      <path id="Path-74" class="cls-9" d="M97.5,736.2012,0,679.9092V668.3623l97.5,56.292Z"/>
      <path id="Path-75" class="cls-9" d="M97.5,770.8423,0,714.68V703.1333l97.5,56.1619Z"/>
      <path id="Path-76" class="cls-9" d="M97.5,805.4832,0,749.1921V737.6453l97.5,56.291Z"/>
      <path id="Path-77" class="cls-3" d="M240,806.9272l5-2.8869v11.5469l-5,2.8869Z"/>
      <path id="Path-78" class="cls-3" d="M240,841.5681l5-2.8869v11.5471l-5,2.8869Z"/>
      <path id="Path-79" class="cls-3" d="M240,876.2092l5-2.8869v11.5468l-5,2.8871Z"/>
      <path id="Path-80" class="cls-3" d="M97.5,724.6543l5-2.887v11.5468l-5,2.8871Z"/>
      <path id="Path-81" class="cls-3" d="M97.5,759.4253l5-2.887v11.5468l-5,2.8871Z"/>
      <path id="Path-82" class="cls-3" d="M97.5,793.9363l5-2.886v11.5469l-5,2.886Z"/>
      <path id="Path-83" class="cls-2" d="M107.5,811.2573V730.4282l5-2.8869,25,14.4338v80.8291l-5,2.887Z"/>
      <path id="Path-84" class="cls-9" d="M107.5,730.4282l25,14.4331v80.83l-25-14.4339Z"/>
      <path id="Path-85" class="cls-3" d="M132.5,825.6912l5-2.887V741.9751l-5,2.8862Z"/>
      <path id="Path-86" class="cls-10" d="M305,792.4932l5-2.887v-23.094l-5,2.887Z"/>
      <path id="Path-87" class="cls-10" d="M305,838.6812l5-2.887V812.7l-5,2.887Z"/>
      <path id="Path-88" class="cls-10" d="M380,749.1921l10-5.7739v-23.094l-10,5.7739Z"/>
      <path id="Path-89" class="cls-10" d="M380,795.3792l10-5.773v-23.094l-10,5.773Z"/>
      <path id="Path-90" class="cls-10" d="M460,703.0032l10-5.773v-23.094l-10,5.773Z"/>
      <path id="Path-91" class="cls-10" d="M460,749.1912l10-5.773v-23.094l-10,5.773Z"/>
      <path id="Path-92" class="cls-10" d="M340,772.2861l10-5.774V743.4182l-10,5.7739Z"/>
      <path id="Path-93" class="cls-10" d="M340,818.4731,350,812.7V789.606l-10,5.773Z"/>
      <path id="Path-94" class="cls-10" d="M420,726.0981l10-5.7739V697.23l-10,5.774Z"/>
      <path id="Path-95" class="cls-10" d="M420,772.2852l10-5.773v-23.094l-10,5.773Z"/>
      <path id="Path-96" class="cls-10" d="M500,679.9092l10-5.773v-23.094l-10,5.773Z"/>
      <path id="Path-97" class="cls-10" d="M500,726.0972l10-5.773V697.23l-10,5.773Z"/>
      <path id="Path-98" class="cls-10" d="M320,783.8333l10-5.774v-23.094l-10,5.774Z"/>
      <path id="Path-99" class="cls-10" d="M320,830.02l10-5.773V801.153l-10,5.773Z"/>
      <path id="Path-100" class="cls-10" d="M400,737.6443l10-5.773V708.7771l-10,5.7742Z"/>
      <path id="Path-101" class="cls-10" d="M400,783.8323l10-5.773v-23.094l-10,5.773Z"/>
      <path id="Path-102" class="cls-10" d="M480,691.4563l10-5.7732v-23.094l-10,5.7732Z"/>
      <path id="Path-103" class="cls-10" d="M480,737.6443l10-5.773V708.7771L480,714.55Z"/>
      <path id="Path-104" class="cls-10" d="M360,760.7393l10-5.774v-23.094l-10,5.774Z"/>
      <path id="Path-105" class="cls-10" d="M360,806.9263l10-5.773v-23.094l-10,5.773Z"/>
      <path id="Path-106" class="cls-10" d="M440,714.5513l10-5.7742v-23.094l-10,5.7742Z"/>
      <path id="Path-107" class="cls-10" d="M440,760.7383l10-5.773v-23.094l-10,5.773Z"/>
      <path id="Path-108" class="cls-11" d="M310,812.7l10-5.773V783.8333l-10,5.7729Z"/>
      <path id="Path-109" class="cls-11" d="M390,766.5122l10-5.7739v-23.094l-10,5.7739Z"/>
      <path id="Path-110" class="cls-11" d="M470,720.3242l10-5.7739v-23.094L470,697.23Z"/>
      <path id="Path-111" class="cls-11" d="M350,789.6062l10-5.7729v-23.094l-10,5.7729Z"/>
      <path id="Path-112" class="cls-11" d="M430,743.4182l10-5.7739v-23.093l-10,5.7729Z"/>
      <path id="Path-113" class="cls-11" d="M510,697.23l10-5.7739v-23.094l-10,5.7739Z"/>
      <path id="Path-114" class="cls-11" d="M330,801.1533l10-5.7741v-23.094l-10,5.7741Z"/>
      <path id="Path-115" class="cls-11" d="M410,754.9653l10-5.7741v-23.094l-10,5.7741Z"/>
      <path id="Path-116" class="cls-11" d="M490,708.7771l10-5.7739v-23.094l-10,5.7739Z"/>
      <path id="Path-117" class="cls-11" d="M370,778.0593l10-5.7741V749.1921l-10,5.7732Z"/>
      <path id="Path-118" class="cls-11" d="M450,731.8713l10-5.7741v-23.093l-10,5.7728Z"/>
      <path id="Path-119" class="cls-3" d="M520,714.5513v11.5468L300,853.1152V841.5681Z"/>
      <path id="Path-120" class="cls-12" d="M250,818.4741l60-34.6408V772.2861l-60,34.6411Z"/>
      <path id="Path-121" class="cls-12" d="M250,853.1152l60-34.6411V806.9272l-60,34.6409Z"/>
      <path id="Path-122" class="cls-12" d="M250,887.7561l60-34.6409V841.5681l-60,34.6411Z"/>
      <path id="Path-123" class="cls-2" d="M245,804.04l60-34.6411,5,2.8869-60,34.6411Z"/>
      <path id="Path-124" class="cls-2" d="M245,838.6812,305,804.04l5,2.8869-60,34.6408Z"/>
      <path id="Path-125" class="cls-2" d="M245,873.3223l60-34.6411,5,2.8869-60,34.6411Z"/>
      <path id="Path-126" class="cls-7" d="M202.5,883.4263l7.5,4.33v-17.321l-7.5-4.33Z"/>
      <path id="Path-127" class="cls-7" d="M145,850.2283l7.5,4.33v-17.32l-7.5-4.3311Z"/>
      <path id="Path-128" class="cls-7" d="M217.5,892.0862l7.5,4.33v-17.321l-7.5-4.33Z"/>
      <path id="Path-129" class="cls-11" d="M295,879.0952l-7.5,4.33v-17.32l7.5-4.33Z"/>
      <path id="Path-130" class="cls-11" d="M362.5,840.1243l-7.5,4.33V821.36l7.5-4.33Z"/>
      <path id="Path-131" class="cls-11" d="M430,801.1533l-7.5,4.33v-23.094l7.5-4.33Z"/>
      <path id="Path-132" class="cls-11" d="M495,763.6252l-7.5,4.33v-23.094l7.5-4.33Z"/>
      <path id="Path-133" class="cls-11" d="M265,896.4163l-7.5,4.33v-17.32l7.5-4.3311Z"/>
      <path id="Path-134" class="cls-11" d="M332.5,857.4453l-7.5,4.33V838.6812l7.5-4.33Z"/>
      <path id="Path-135" class="cls-11" d="M400,818.4731l-7.5,4.3311V799.71l7.5-4.331Z"/>
      <path id="Path-136" class="cls-11" d="M465,780.9463l-7.5,4.33v-23.094l7.5-4.33Z"/>
      <path id="Path-137" class="cls-11" d="M280,887.7561l-7.5,4.33v-17.321l7.5-4.33Z"/>
      <path id="Path-138" class="cls-11" d="M347.5,848.7842l-7.5,4.331v-23.094l7.5-4.331Z"/>
      <path id="Path-139" class="cls-11" d="M415,809.8132l-7.5,4.33v-23.094l7.5-4.33Z"/>
      <path id="Path-140" class="cls-11" d="M480,772.2861l-7.5,4.33v-23.094l7.5-4.33Z"/>
      <path id="Path-141" class="cls-7" d="M160,858.8882l7.5,4.33v-17.32l-7.5-4.33Z"/>
      <path id="Path-142" class="cls-7" d="M87.5,817.03l7.5,4.33V804.04l-7.5-4.33Z"/>
      <path id="Path-143" class="cls-7" d="M102.5,825.69l7.5,4.331V812.7l-7.5-4.33Z"/>
      <path id="Path-144" class="cls-7" d="M30,783.8323l7.5,4.331v-17.321l-7.5-4.33Z"/>
      <path id="Path-145" class="cls-7" d="M45,792.4932l7.5,4.33V779.5023l-7.5-4.33Z"/>
    </g>
    <g id="Group-3">
      <path id="Path-148" class="cls-2" d="M5.4563,663.7231l275-158.771,240,138.564-275,158.771Z"/>
      <path id="Path-149" class="cls-13" d="M245.4563,796.5142l265-152.9981-230-132.791-265,152.998Z"/>
      <path id="Path-150" class="cls-14" d="M445.4563,519.3862v115.47l30-17.321v-115.47Z"/>
      <path id="Path-151" class="cls-15" d="M475.4563,490.5183v23.094l-40,23.094v-23.094Z"/>
      <path id="Path-152" class="cls-6" d="M135.4563,536.7063v115.47l-35-20.2071v-115.47Z"/>
      <path id="Path-153" class="cls-2" d="M455.4563,294.2192l-180,103.9231-130-75.0561,180-103.9229Z"/>
      <path id="Path-154" class="cls-16" d="M135.4563,548.2532v-23.094l-35-20.2071v23.094Z"/>
      <path id="Path-155" class="cls-4" d="M115.4563,525.1592l5,2.8869v51.9612l-5-2.886Z"/>
      <path id="Path-156" class="cls-4" d="M100.4563,510.7251l5,2.8872v57.7349l-5-2.887Z"/>
      <path id="Path-157" class="cls-2" d="M460.4563,528.0461l-215,124.13-160-92.376,215-124.13Z"/>
      <path id="Path-158" class="cls-13" d="M95.4563,559.8l205-118.3572,150,86.603-205,118.3572Z"/>
      <path id="Path-159" class="cls-6" d="M225.4563,346.18V588.668l-125-72.1689V274.0122Z"/>
      <path id="Path-160" class="cls-16" d="M100.4563,481.8582v34.6411l125,72.1689V554.0271Z"/>
      <path id="Path-161" class="cls-6" d="M275.4563,351.9541v230.94l-130-75.0552V276.8982Z"/>
      <path id="Path-162" class="cls-2" d="M120.4563,262.4653l160-92.3762,155,89.489-160,92.376Z"/>
      <path id="Path-163" class="cls-5" d="M275.4563,282.6721v115.47l160-92.3762v-115.47Z"/>
      <path id="Path-164" class="cls-7" d="M235.4563,328.86v23.094l40,23.094V351.954Z"/>
      <path id="Path-165" class="cls-7" d="M235.4563,421.2363V444.33l40,23.094V444.33Z"/>
      <path id="Path-166" class="cls-7" d="M235.4563,513.6123v23.094l40,23.094v-23.094Z"/>
      <path id="Path-167" class="cls-7" d="M235.4563,375.0481v23.0942l40,23.094v-23.094Z"/>
      <path id="Path-168" class="cls-7" d="M235.4563,467.4243v23.094l40,23.094v-23.094Z"/>
      <path id="Path-169" class="cls-7" d="M235.4563,559.8v17.321l40,23.094V582.894Z"/>
      <path id="Path-170" class="cls-16" d="M100.4563,274.0122v23.094l125,72.168V346.18Z"/>
      <path id="Path-171" class="cls-7" d="M100.4563,412.5762V435.67l125,72.1679v-23.094Z"/>
      <path id="Path-172" class="cls-7" d="M100.4563,458.7642v23.094l125,72.1689v-23.094Z"/>
      <path id="Path-173" class="cls-7" d="M100.4563,320.2v23.094l125,72.168V392.368Z"/>
      <path id="Path-174" class="cls-7" d="M100.4563,412.5762V435.67l125,72.1689v-23.094Z"/>
      <path id="Path-175" class="cls-7" d="M100.4563,412.5762V435.67l125,72.1689v-23.094Z"/>
      <path id="Path-176" class="cls-7" d="M100.4563,366.3882v23.094l125,72.1689v-23.094Z"/>
      <path id="Path-177" class="cls-5" d="M275.4563,398.1423V594.4412l160-92.376V305.7661Z"/>
      <path id="Path-178" class="cls-5" d="M325.4563,392.3682v196.3l150-86.603V305.7661Z"/>
      <path id="Path-179" class="cls-5" d="M245.4563,652.1763v115.47l215-124.13v-115.47Z"/>
      <path id="Path-180" class="cls-8" d="M315.4563,421.2363V444.33l-40,23.094V444.33Z"/>
      <path id="Path-181" class="cls-8" d="M315.4563,513.6123v23.094l-40,23.094v-23.094Z"/>
      <path id="Path-182" class="cls-8" d="M315.4563,375.0481v23.0942l-40,23.094v-23.094Z"/>
      <path id="Path-183" class="cls-15" d="M475.4563,305.7661V328.86l-150,86.6021v-23.094Z"/>
      <path id="Path-184" class="cls-8" d="M475.4563,398.1423v23.094l-150,86.6018v-23.094Z"/>
      <path id="Path-185" class="cls-8" d="M475.4563,444.33v23.094l-150,86.6018v-23.094Z"/>
      <path id="Path-186" class="cls-8" d="M460.4563,528.0461V551.14l-155,89.4891v-23.094Z"/>
      <path id="Path-187" class="cls-8" d="M460.4563,574.2341v23.094l-155,89.489v-23.094Z"/>
      <path id="Path-188" class="cls-8" d="M460.4563,620.4221v23.094l-155,89.489v-23.094Z"/>
      <path id="Path-189" class="cls-8" d="M475.4563,398.1423v23.094l-150,86.6028v-23.094Z"/>
      <path id="Path-190" class="cls-8" d="M475.4563,398.1423v23.094l-150,86.6018v-23.093Z"/>
      <path id="Path-191" class="cls-8" d="M475.4563,351.9541v23.094l-150,86.602V438.5562Z"/>
      <path id="Path-192" class="cls-17" d="M245.4563,652.1763v115.47l-160-92.3759V559.8Z"/>
      <path id="Path-193" class="cls-6" d="M275.4563,282.6721v69.282l-130-75.0559v-69.281Z"/>
      <path id="Path-194" class="cls-8" d="M315.4563,467.4243v23.094l-40,23.094v-23.094Z"/>
      <path id="Path-195" class="cls-8" d="M315.4563,559.8v17.321l-40,23.094V582.894Z"/>
      <path id="Path-196" class="cls-18" d="M325.4563,392.3682v196.3l-20-11.5469v-196.3Z"/>
      <path id="Path-197" class="cls-2" d="M325.4563,392.3682l150-86.6021-20-11.5469-150,86.6021Z"/>
      <path id="Path-198" class="cls-2" d="M100.4563,274.0122l20-11.5469,125,72.168-20,11.5469Z"/>
      <path id="Path-199" class="cls-14" d="M225.4563,588.6682l20-11.5469V334.6333l-20,11.5469Z"/>
      <path id="Path-200" class="cls-13" d="M240.4563,331.7473l-15,8.66-115-66.395,35-20.208v23.094Z"/>
      <path id="Path-201" class="cls-13" d="M310.4563,377.9353l15,8.66,140-80.8291-30-17.3208v17.3208Z"/>
      <path id="Path-202" class="cls-7" d="M305.4563,473.1982l20,11.5469v23.094l-20-11.5469Z"/>
      <path id="Path-203" class="cls-7" d="M305.4563,427.0093l20,11.5469v23.0949l-20-11.5478Z"/>
      <path id="Path-204" class="cls-7" d="M305.4563,519.3862l20,11.5469v23.094l-20-11.5469Z"/>
      <path id="Path-205" class="cls-16" d="M305.4563,542.48l20,11.5469V594.441l-20-11.5469Z"/>
      <path id="Path-206" class="cls-16" d="M305.4563,380.8213l20,11.5469v23.094l-20-11.5469Z"/>
      <path id="Path-207" class="cls-16" d="M305.4563,427.0093l20-34.6411v.0009l-20,34.64Z"/>
      <path id="Path-208" class="cls-19" d="M135.4563,536.7063V542.48l-35,20.2071-5-2.8871Z"/>
      <path id="Path-209" class="cls-16" d="M135.4563,530.9331V542.48l90,51.961V582.8943Z"/>
      <path id="Path-210" class="cls-7" d="M245.4563,577.1213v5.773l30,17.321v-5.7741Z"/>
      <path id="Path-211" class="cls-15" d="M440.4563,516.4993v11.5468l-115,66.3951V582.8943Z"/>
      <path id="Path-212" class="cls-8" d="M275.4563,600.2153l30-17.321v-5.773l-30,17.32Z"/>
      <path id="Path-213" class="cls-19" d="M225.4563,594.4412l20-11.5469v-5.773l-20,11.5469Z"/>
      <path id="Path-214" class="cls-20" d="M440.4563,528.0461l5,2.887,5-2.887-10-5.7739Z"/>
      <path id="Path-215" class="cls-20" d="M470.4563,620.4221v5.7732l35,20.208,5-2.8872Z"/>
      <path id="Path-216" class="cls-19" d="M15.4563,663.7231l70-40.4138v5.773l-65,37.5278Z"/>
      <path id="Path-217" class="cls-19" d="M460.4563,631.9692l10-5.7739v-5.7732l-10,5.7732Z"/>
      <path id="Path-218" class="cls-20" d="M145.4563,253.8042v5.7739l-30,17.32-5-2.886Z"/>
      <path id="Path-219" class="cls-7" d="M145.4563,276.8982v5.7739l90,51.9612,5-2.886Z"/>
      <path id="Path-220" class="cls-20" d="M435.4563,294.2192l25,14.4341,5-2.8872-30-17.3208Z"/>
      <path id="Path-221" class="cls-15" d="M325.4563,554.0271v34.6411l150-86.603V467.4243Z"/>
      <g id="Group-4">
        <path id="Path-222" class="cls-4" d="M145.4563,299.9922l5,2.887V551.14l-5-2.8869Z"/>
        <path id="Path-223" class="cls-4" d="M115.4563,282.6721l5,2.8872v248.26l-5-2.8862Z"/>
        <path id="Path-224" class="cls-4" d="M175.4563,317.3132l5,2.887V568.46l-5-2.886Z"/>
        <path id="Path-225" class="cls-4" d="M205.4563,334.6333l5,2.887V585.7812l-5-2.8869Z"/>
        <path id="Path-226" class="cls-4" d="M130.4563,291.3323l5,2.8869V536.7063l-5-2.887Z"/>
        <path id="Path-227" class="cls-4" d="M100.4563,274.0122l5,2.886v248.261l-5-2.887Z"/>
        <path id="Path-228" class="cls-4" d="M160.4563,308.6533l5,2.886V559.8l-5-2.887Z"/>
        <path id="Path-229" class="cls-4" d="M190.4563,325.9731l5,2.887V577.1213l-5-2.8872Z"/>
        <path id="Path-230" class="cls-4" d="M220.4563,343.2942l5,2.886v248.261l-5-2.8871Z"/>
      </g>
      <g id="Group-5">
        <path id="Path-231" class="cls-3" d="M405.4563,346.18l-5,2.8869V551.14l5-2.8869Z"/>
        <path id="Path-232" class="cls-3" d="M435.4563,328.86l-5,2.8872v202.072l5-2.8862Z"/>
        <path id="Path-233" class="cls-3" d="M375.4563,363.5012l-5,2.887V568.46l5-2.886Z"/>
        <path id="Path-234" class="cls-3" d="M345.4563,380.8213l-5,2.887V585.7812l5-2.8869Z"/>
        <path id="Path-235" class="cls-3" d="M420.4563,337.52l-5,2.8869V542.48l5-2.8869Z"/>
        <path id="Path-236" class="cls-3" d="M450.4563,320.2l-5,2.886v196.3l5,2.886Z"/>
        <path id="Path-237" class="cls-3" d="M465.4563,311.5393l-5,2.887v311.769l5-2.886Z"/>
        <path id="Path-238" class="cls-3" d="M390.4563,354.8413l-5,2.886V559.8l5-2.887Z"/>
        <path id="Path-239" class="cls-3" d="M360.4563,372.1611l-5,2.887V577.1213l5-2.8872Z"/>
        <path id="Path-240" class="cls-3" d="M330.4563,389.4822l-5,2.886v202.073l5-2.8871Z"/>
      </g>
      <path id="Path-241" class="cls-8" d="M435.4563,213.39v23.094l-160,92.376V305.766Z"/>
      <path id="Path-242" class="cls-15" d="M225.4563,369.2742l20-11.5469v-23.094l-20,11.5469Z"/>
      <path id="Path-243" class="cls-8" d="M225.4563,415.4631l20-11.5468v-23.094l-20,11.5468Z"/>
      <path id="Path-244" class="cls-15" d="M225.4563,392.3682l20,34.6411h0Z"/>
      <path id="Path-245" class="cls-8" d="M225.4563,507.8391l20-11.5469v-23.094l-20,11.5469Z"/>
      <path id="Path-246" class="cls-8" d="M225.4563,554.0271l20-11.5469v-23.094l-20,11.5469Z"/>
      <path id="Path-247" class="cls-8" d="M225.4563,461.65l20-11.5468v-23.094l-20,11.5469Z"/>
      <path id="Path-248" class="cls-15" d="M225.4563,594.4412l20-11.5469V542.48l-20,11.5469Z"/>
      <path id="Path-249" class="cls-8" d="M435.4563,259.5781v23.094l-160,92.376v-23.094Z"/>
      <path id="Path-250" class="cls-7" d="M145.4563,230.71v23.094l130,75.0559v-23.094Z"/>
      <path id="Path-251" class="cls-4" d="M220.4563,343.2942l5,2.886v248.261l-5-2.8871Z"/>
      <path id="Path-252" class="cls-3" d="M230.4563,343.2942l-5,2.886v248.261l5-2.8871Z"/>
      <path id="Path-253" class="cls-3" d="M245.4563,334.6333l-5,2.887V585.7812l5-2.8869Z"/>
      <path id="Path-254" class="cls-3" d="M330.4563,389.4822l-5,2.886v202.073l5-2.8871Z"/>
      <path id="Path-255" class="cls-3" d="M300.4563,620.4221l5-2.8869v115.47l-5,2.8873Z"/>
      <path id="Path-256" class="cls-4" d="M320.4563,389.4822l5,2.886v202.073l-5-2.8871Z"/>
      <path id="Path-257" class="cls-4" d="M305.4563,380.8213l5,2.887V585.7812l-5-2.8869Z"/>
      <path id="Path-258" class="cls-12" d="M275.4563,282.6721l160-92.376-130-75.0549-160,92.376Z"/>
      <path id="Path-259" class="cls-21" d="M245.4563,767.6462l55-31.7539v-115.47l-55,31.7543Z"/>
      <path id="Path-260" class="cls-12" d="M245.4563,663.7231l55-31.7539V620.4221l-55,31.7542Z"/>
      <path id="Path-261" class="cls-9" d="M245.4563,675.27l-160-92.376V571.3472l160,92.3759Z"/>
      <path id="Path-262" class="cls-12" d="M245.4563,709.9111l55-31.7539V666.61l-55,31.7542Z"/>
      <path id="Path-263" class="cls-9" d="M245.4563,721.4583l-160-92.376V617.5352l160,92.3759Z"/>
      <path id="Path-264" class="cls-12" d="M245.4563,686.8171l55-31.7539V643.5161l-55,31.7542Z"/>
      <path id="Path-265" class="cls-9" d="M245.4563,698.3643l-160-92.376V594.4412l160,92.3759Z"/>
      <path id="Path-266" class="cls-12" d="M245.4563,733.0051l55-31.7539V689.7041l-55,31.7542Z"/>
      <path id="Path-267" class="cls-9" d="M245.4563,744.5522l-160-92.3759V640.6292l160,92.3759Z"/>
      <path id="Path-268" class="cls-12" d="M245.4563,756.0991l55-31.7539V712.7981l-55,31.7541Z"/>
      <path id="Path-269" class="cls-9" d="M245.4563,767.6462l-160-92.3759V663.7231l160,92.376Z"/>
      <path id="Path-270" class="cls-10" d="M305.4563,640.6292l10-5.773v-23.094l-10,5.773Z"/>
      <path id="Path-271" class="cls-10" d="M305.4563,686.8171l10-5.7729V657.95l-10,5.7729Z"/>
      <path id="Path-272" class="cls-10" d="M305.4563,733.0051l10-5.7729v-23.094l-10,5.7729Z"/>
      <path id="Path-273" class="cls-10" d="M385.4563,594.4412l10-5.773v-23.094l-10,5.773Z"/>
      <path id="Path-274" class="cls-10" d="M385.4563,640.6292l10-5.773v-23.094l-10,5.773Z"/>
      <path id="Path-275" class="cls-10" d="M385.4563,686.8171l10-5.7729V657.95l-10,5.7729Z"/>
      <path id="Path-276" class="cls-10" d="M345.4563,617.5352l10-5.773v-23.094l-10,5.773Z"/>
      <path id="Path-277" class="cls-10" d="M345.4563,663.7231l10-5.7729v-23.094l-10,5.773Z"/>
      <path id="Path-278" class="cls-10" d="M345.4563,709.9111l10-5.7729v-23.094l-10,5.7729Z"/>
      <path id="Path-279" class="cls-10" d="M425.4563,571.3472l10-5.773V542.48l-10,5.773Z"/>
      <path id="Path-280" class="cls-10" d="M425.4563,617.5352l10-5.773v-23.094l-10,5.773Z"/>
      <path id="Path-281" class="cls-10" d="M425.4563,663.7231l10-5.7729v-23.094l-10,5.773Z"/>
      <path id="Path-282" class="cls-10" d="M325.4563,629.0823l10-5.773v-23.094l-10,5.773Z"/>
      <path id="Path-283" class="cls-10" d="M325.4563,675.27l10-5.773V646.403l-10,5.773Z"/>
      <path id="Path-284" class="cls-10" d="M325.4563,721.4583l10-5.773v-23.094l-10,5.773Z"/>
      <path id="Path-285" class="cls-10" d="M405.4563,582.8943l10-5.773V554.0271l-10,5.7732Z"/>
      <path id="Path-286" class="cls-10" d="M405.4563,629.0823l10-5.773v-23.094l-10,5.773Z"/>
      <path id="Path-287" class="cls-10" d="M405.4563,675.27l10-5.773V646.403l-10,5.773Z"/>
      <path id="Path-288" class="cls-10" d="M365.4563,605.9883l10-5.773v-23.094l-10,5.773Z"/>
      <path id="Path-289" class="cls-10" d="M365.4563,652.1763l10-5.773v-23.094l-10,5.773Z"/>
      <path id="Path-290" class="cls-10" d="M365.4563,698.3643l10-5.773v-23.094l-10,5.773Z"/>
      <path id="Path-291" class="cls-10" d="M445.4563,559.8l10-5.7732v-23.094l-10,5.7732Z"/>
      <path id="Path-292" class="cls-11" d="M315.4563,657.95l10-5.7739v-23.094l-10,5.7739Z"/>
      <path id="Path-293" class="cls-11" d="M395.4563,611.7622l10-5.7739v-23.094l-10,5.7739Z"/>
      <path id="Path-294" class="cls-11" d="M355.4563,634.8562l10-5.7739v-23.094l-10,5.7739Z"/>
      <path id="Path-295" class="cls-11" d="M435.4563,588.6682l10-5.7739V559.8l-10,5.7739Z"/>
      <path id="Path-296" class="cls-11" d="M335.4563,646.4033l10-5.7741v-23.094l-10,5.7741Z"/>
      <path id="Path-297" class="cls-11" d="M415.4563,600.2153l10-5.7741v-23.094l-10,5.7741Z"/>
      <path id="Path-298" class="cls-11" d="M375.4563,623.3093l10-5.7741v-23.094l-10,5.7741Z"/>
      <path id="Path-299" class="cls-11" d="M455.4563,577.1213l5-2.8872V551.14l-5,2.887Z"/>
      <path id="Path-300" class="cls-11" d="M315.4563,704.1382l10-5.7739V675.27l-10,5.7739Z"/>
      <path id="Path-301" class="cls-11" d="M395.4563,657.95l10-5.7739v-23.094l-10,5.7739Z"/>
      <path id="Path-302" class="cls-11" d="M355.4563,681.0442l10-5.7739v-23.094l-10,5.7739Z"/>
      <path id="Path-303" class="cls-11" d="M435.4563,634.8562l10-5.7739v-23.094l-10,5.7739Z"/>
      <path id="Path-304" class="cls-11" d="M335.4563,692.5913l10-5.7742v-23.094l-10,5.7742Z"/>
      <path id="Path-305" class="cls-11" d="M415.4563,646.4033l10-5.7741v-23.094l-10,5.7741Z"/>
      <path id="Path-306" class="cls-11" d="M375.4563,669.4973l10-5.7742V640.6292l-10,5.7741Z"/>
      <path id="Path-307" class="cls-11" d="M455.4563,623.3093l5-2.8872v-23.094l-5,2.8872Z"/>
      <path id="Path-308" class="cls-10" d="M445.4563,605.9883l10-5.773v-23.094l-10,5.773Z"/>
      <path id="Path-309" class="cls-10" d="M445.4563,652.1763l10-5.773v-23.094l-10,5.773Z"/>
      <path id="Path-310" class="cls-5" d="M305.4563,375.0481l130-75.0559V311.54l-120,69.282Z"/>
    </g>
    <g id="Group-6">
      <path id="Path-311" class="cls-2" d="M145.4563,98.15V92.3762L305.4563,0l130,75.056v5.7729l-160,92.3762Z"/>
      <path id="Path-312" class="cls-21" d="M275.4563,167.4321l-7.5-4.3308v115.47l7.5,4.3308,160-92.376V75.0562Z"/>
      <path id="Path-313" class="cls-9" d="M275.4563,167.4321v115.47l-130-75.0559V92.3762Z"/>
      <path id="Path-314" class="cls-13" d="M155.4563,92.3762l150-86.603,120,69.283-150,86.602Z"/>
      <path id="Path-315" class="cls-20" d="M305.4563,5.7732v98.15l-65,37.5281-85-49.075Z"/>
      <path id="Path-316" class="cls-22" d="M305.4563,103.9231V5.7732l120,69.283-85,49.0739Z"/>
      <path id="Path-317" class="cls-1" d="M315.4563,213.62l40-23.094V144.338l-40,23.094Z"/>
      <path id="Path-318" class="cls-12" d="M275.4563,190.5261l160-92.376V75.0552l-160,92.3769Z"/>
      <path id="Path-319" class="cls-12" d="M275.4563,236.7141l160-92.376v-23.094l-160,92.376Z"/>
      <path id="Path-320" class="cls-12" d="M275.4563,282.9021l160-92.377V167.4312l-160,92.3769Z"/>
      <path id="Path-321" class="cls-17" d="M275.4563,190.5261l-130-75.0559V92.3762l130,75.0559Z"/>
      <path id="Path-322" class="cls-17" d="M275.4563,236.7141l-130-75.0559v-23.094l130,75.0559Z"/>
      <path id="Path-323" class="cls-17" d="M275.4563,282.9021l-130-75.0559v-23.094l130,75.0559Z"/>
      <path id="Path-324" class="cls-1" d="M355.4563,236.7141l40-23.094v-46.188l-40,23.094Z"/>
      <path id="Path-325" class="cls-1" d="M355.4563,144.3381l40-23.094V98.15l-40,23.094Z"/>
      <path id="Path-326" class="cls-2" d="M305.4563,40.4143l-120,69.283,90,51.9609,120-69.282Z"/>
      <path id="Path-327" class="cls-13" d="M305.4563,51.9622l-110,63.508,80,46.188,110-63.5081Z"/>
      <path id="Path-328" class="cls-20" d="M305.4563,51.9622v23.094l-90,51.9611-20-11.5471Z"/>
      <path id="Path-329" class="cls-22" d="M385.4563,98.15l-80-46.1879v23.094l60,34.6411Z"/>
      <g id="Group-7">
        <path id="Path-330" class="cls-23" d="M230.4563,106.81l25,14.4329,70-40.4141-25-14.4338Z"/>
        <path id="Path-331" class="cls-20" d="M255.4563,121.2432v23.094l-25-14.4329V106.81Z"/>
        <path id="Path-332" class="cls-13" d="M325.4563,80.8291v28.8672l-65,37.5278-5-2.8869v-23.094Z"/>
        <path id="Path-333" class="cls-24" d="M260.4563,124.13l10-5.7729v17.32l-10,5.774Z"/>
        <path id="Path-334" class="cls-24" d="M275.4563,115.47l30-17.321V115.47l-30,17.32Z"/>
        <path id="Path-335" class="cls-24" d="M310.4563,95.2632l10-5.7739V106.81l-10,5.773Z"/>
        <g id="Group-8">
          <ellipse id="Ellipse" class="cls-19" cx="255.1643" cy="106.3801" rx="9.4968" ry="5.4829"/>
          <rect id="Rectangle" class="cls-19" x="245.6672" y="101.6001" width="18.9929" height="4.78"/>
          <ellipse id="Ellipse-2" class="cls-25" cx="255.1643" cy="101.5999" rx="9.4968" ry="5.4829"/>
        </g>
        <g id="Group-9">
          <ellipse id="Ellipse-3" class="cls-19" cx="278.21" cy="93.4861" rx="9.4968" ry="5.4829"/>
          <rect id="Rectangle-2" class="cls-19" x="268.7134" y="88.7063" width="18.9929" height="4.78"/>
          <ellipse id="Ellipse-4" class="cls-25" cx="278.21" cy="88.7061" rx="9.4968" ry="5.4829"/>
        </g>
        <g id="Group-10">
          <ellipse id="Ellipse-5" class="cls-19" cx="301.2554" cy="80.5923" rx="9.4968" ry="5.4829"/>
          <rect id="Rectangle-3" class="cls-19" x="291.7583" y="75.8123" width="18.9929" height="4.78"/>
          <ellipse id="Ellipse-6" class="cls-25" cx="301.2554" cy="75.812" rx="9.4968" ry="5.4829"/>
        </g>
      </g>
      <g id="Group-11">
        <path id="Path-336" class="cls-23" d="M265.4563,127.0173l25,14.4339,70-40.4151-25-14.4338Z"/>
        <path id="Path-337" class="cls-20" d="M290.4563,141.4512v11.5471l-10,5.7729-15-8.66v-23.094Z"/>
        <path id="Path-338" class="cls-13" d="M360.4563,101.0361v11.5472l-70,40.415V141.4512Z"/>
        <path id="Path-339" class="cls-24" d="M295.4563,144.3372l10-5.773v5.7739l-10,5.7732Z"/>
        <path id="Path-340" class="cls-24" d="M310.4563,135.6772l30-17.32V124.13l-30,17.3211Z"/>
        <path id="Path-341" class="cls-24" d="M345.4563,115.47l10-5.7739V115.47l-10,5.7739Z"/>
        <g id="Group-12">
          <ellipse id="Ellipse-7" class="cls-19" cx="290.1646" cy="126.5874" rx="9.4968" ry="5.4829"/>
          <rect id="Rectangle-4" class="cls-19" x="280.6672" y="121.8071" width="18.9929" height="4.78"/>
          <ellipse id="Ellipse-8" class="cls-25" cx="290.1646" cy="121.8071" rx="9.4968" ry="5.4829"/>
        </g>
        <g id="Group-13">
          <ellipse id="Ellipse-9" class="cls-19" cx="313.21" cy="113.6934" rx="9.4968" ry="5.4829"/>
          <rect id="Rectangle-5" class="cls-19" x="303.7134" y="108.9133" width="18.9929" height="4.78"/>
          <ellipse id="Ellipse-10" class="cls-25" cx="313.21" cy="108.9133" rx="9.4968" ry="5.4829"/>
        </g>
        <g id="Group-14">
          <ellipse id="Ellipse-11" class="cls-19" cx="336.2554" cy="100.7993" rx="9.4968" ry="5.4829"/>
          <rect id="Rectangle-6" class="cls-19" x="326.7583" y="96.0193" width="18.9929" height="4.78"/>
          <ellipse id="Ellipse-12" class="cls-25" cx="336.2554" cy="96.0193" rx="9.4968" ry="5.4829"/>
        </g>
      </g>
    </g>
    <path id="Mask" class="cls-26" d="M207.9563,256.2322h0c-9.658-5.5769-17.5.2441-17.5,12.99h0c0,12.7461,7.842,27.6211,17.5,33.198h0c9.6589,5.5761,17.5-.2449,17.5-12.991h0C225.4563,276.6843,217.6152,261.8081,207.9563,256.2322Z"/>
    <g class="cls-27">
      <path id="Path-342" d="M213.4583,254.0193h0c-9.659-5.5772-17.5.2439-17.5,12.99h0c0,12.7458,7.841,27.6208,17.5,33.198h0c9.6579,5.5759,17.5-.2451,17.5-12.991h0C230.9583,274.47,223.1162,259.5952,213.4583,254.0193Z"/>
    </g>
    <path id="Path-343" class="cls-20" d="M260.1233,268.4683l-5,2.8869-40-23.094v-31.396c0-19.3171,12.832-26.768,28.636-16.6289h0c9.032,5.793,16.364,19.459,16.364,30.4969Z"/>
    <g id="Group-15">
      <path id="Path-344" class="cls-25" d="M185.1233,170.11h0c11.0381,6.3731,20,24.093,20,39.5471v32.6221l-40-23.094v-32.622C165.1233,171.1091,174.0852,163.7373,185.1233,170.11Z"/>
      <path id="Path-345" class="cls-25" d="M235.1233,199.1863h0c11.0381,6.373,20,24.093,20,39.5469v32.622l-40-23.094v-32.622C215.1233,200.1853,224.0852,192.8132,235.1233,199.1863Z"/>
      <path id="Path-346" class="cls-28" d="M185.1233,190.3171h0c8.279,4.78,15,18.5181,15,30.6612v18.414l-30-17.32V203.6572C170.1233,191.5151,176.8442,185.5383,185.1233,190.3171Z"/>
      <path id="Path-347" class="cls-28" d="M235.1233,219.3933h0c8.279,4.78,15,18.5178,15,30.66v18.4151l-30-17.3211v-18.414C220.1233,220.5913,226.8442,214.6133,235.1233,219.3933Z"/>
      <path id="Path-348" d="M175.1233,224.9583v-5.773h0c0-7.9661,4.4809-11.8472,10-8.66h0c5.519,3.1861,10,12.241,10,20.2071h0v5.7729Z"/>
      <path id="Path-349" d="M225.1233,254.0342v-5.773h0c0-7.967,4.4809-11.8469,10-8.6611h0c5.519,3.187,10,12.2412,10,20.208h0v5.7732Z"/>
      <path id="Path-350" class="cls-25" d="M182.6233,214.8552h0a5.5281,5.5281,0,0,1,2.5,4.33h0c0,1.593-1.12,2.24-2.5,1.4429h0a5.5282,5.5282,0,0,1-2.5-4.33h0C180.1233,214.7053,181.2434,214.0581,182.6233,214.8552Z"/>
      <path id="Path-351" class="cls-25" d="M232.6233,243.7222h0a5.53,5.53,0,0,1,2.5,4.33h0c0,1.594-1.12,2.24-2.5,1.4441h0a5.53,5.53,0,0,1-2.5-4.33h0C230.1233,243.5723,231.2434,242.9263,232.6233,243.7222Z"/>
    </g>
  </g>
</svg>
