<svg id="Layer_1" data-name="Layer 1" xmlns="http://www.w3.org/2000/svg" xmlns:xlink="http://www.w3.org/1999/xlink" viewBox="0 0 135 471.0807">
  <defs>
    <style>
      .cls-1, .cls-13, .cls-15 {
        fill: none;
      }

      .cls-2 {
        fill: #aaa;
      }

      .cls-3 {
        fill: #6c6c6c;
      }

      .cls-4 {
        fill: #2b2b2b;
      }

      .cls-5 {
        fill: #595959;
      }

      .cls-6 {
        fill: #c4e0ff;
      }

      .cls-7 {
        fill: #9d9d9d;
      }

      .cls-8 {
        fill: #f7f2ef;
      }

      .cls-22, .cls-9 {
        fill: #fff;
      }

      .cls-10 {
        fill: #f4f5f7;
      }

      .cls-11 {
        fill: #fffcfa;
      }

      .cls-12 {
        fill: #a3c8f9;
      }

      .cls-13 {
        stroke: #d9eaff;
      }

      .cls-13, .cls-15, .cls-22 {
        stroke-linecap: round;
        stroke-linejoin: round;
        stroke-width: 0.75px;
      }

      .cls-14 {
        fill: #d0e6fd;
      }

      .cls-15, .cls-22 {
        stroke: #fff;
      }

      .cls-16 {
        fill: #747474;
      }

      .cls-17 {
        fill: #8b8b8b;
      }

      .cls-18 {
        fill: #b4d7ff;
      }

      .cls-19 {
        fill: #d5e8fd;
      }

      .cls-20 {
        fill: #d9ecff;
      }

      .cls-21 {
        fill: #83a6d2;
      }

      .cls-23 {
        fill: url(#linear-gradient);
      }

      .cls-24 {
        fill: #5d5d5d;
      }

      .cls-25 {
        fill: #2e2e2e;
      }

      .cls-26 {
        fill: #94c2ff;
      }

      .cls-27 {
        fill: #e9ac5c;
      }

      .cls-28 {
        fill: #80afee;
      }

      .cls-29 {
        clip-path: url(#clip-path);
      }

      .cls-30 {
        clip-path: url(#clip-path-2);
      }

      .cls-31 {
        fill: #b6d9ff;
      }

      .cls-32 {
        clip-path: url(#clip-path-3);
      }

      .cls-33 {
        clip-path: url(#clip-path-4);
      }

      .cls-34 {
        clip-path: url(#clip-path-5);
      }

      .cls-35 {
        fill: #97b9e6;
      }

      .cls-36 {
        clip-path: url(#clip-path-6);
      }

      .cls-37 {
        clip-path: url(#clip-path-7);
      }

      .cls-38 {
        fill: #ec5750;
      }
    </style>
    <linearGradient id="linear-gradient" x1="5607.8972" y1="-3208.4541" x2="5608.8972" y2="-3208.4541" gradientTransform="translate(-757066.1255 162227.3009) scale(135 50.518)" gradientUnits="userSpaceOnUse">
      <stop offset="0.4652" stop-color="#a3c8f9"/>
      <stop offset="0.5652" stop-color="#d0e6fd"/>
    </linearGradient>
    <clipPath id="clip-path">
      <path class="cls-1" d="M56.395,12.5637h0c-2.1079,1.217-2.1079,3.193,0,4.409h0a8.4463,8.4463,0,0,0,7.6382,0h0c2.1079-1.216,2.1079-3.192,0-4.409h0A8.4463,8.4463,0,0,0,56.395,12.5637Z"/>
    </clipPath>
    <clipPath id="clip-path-2">
      <path class="cls-1" d="M57.0029,26.0877h0a1.2346,1.2346,0,0,0,0,2.338h0a4.4809,4.4809,0,0,0,4.05,0h0a1.2342,1.2342,0,0,0,0-2.338h0A4.4809,4.4809,0,0,0,57.0029,26.0877Z"/>
    </clipPath>
    <clipPath id="clip-path-3">
      <path class="cls-1" d="M43.8682,17.2677h0a1.2348,1.2348,0,0,0,0,2.339h0a4.48,4.48,0,0,0,4.05,0h0a1.2351,1.2351,0,0,0,0-2.339h0A4.48,4.48,0,0,0,43.8682,17.2677Z"/>
    </clipPath>
    <clipPath id="clip-path-4">
      <path class="cls-1" d="M79.1938,42.6257h0a1.2343,1.2343,0,0,0,0,2.338h0a4.4809,4.4809,0,0,0,4.05,0h0a1.2346,1.2346,0,0,0,0-2.338h0A4.4747,4.4747,0,0,0,79.1938,42.6257Z"/>
    </clipPath>
    <clipPath id="clip-path-5">
      <path class="cls-1" d="M38.2,39.4127h0c1.2158,2.108,3.1919,2.108,4.4087,0h0a8.444,8.444,0,0,0,0-7.638h0c-1.2168-2.108-3.1929-2.108-4.4087,0h0A8.444,8.444,0,0,0,38.2,39.4127Z"/>
    </clipPath>
    <clipPath id="clip-path-6">
      <path class="cls-1" d="M36.4761,60.47h0c.79,1.369,2.0737,1.369,2.8637,0h0a5.4879,5.4879,0,0,0,0-4.961h0c-.79-1.369-2.0737-1.369-2.8637,0h0A5.4824,5.4824,0,0,0,36.4761,60.47Z"/>
    </clipPath>
    <clipPath id="clip-path-7">
      <path class="cls-1" d="M84.82,59.1687a47.2816,47.2816,0,0,1-21.8349-6.893c-9.604-5.981-14.2041-2.566-17.6377,10.593s-9.6753,30.107,10.45,22.554q7.9512-.98,11.83,2.617c3.8789,3.597,15.1772,7.507,12.29-4.029q-2.888-11.5361,5.751-22.967C86.3828,60.0971,86.0029,59.2577,84.82,59.1687Z"/>
    </clipPath>
  </defs>
  <title>Artboard 31</title>
  <g id="Group">
    <g id="Group-2">
      <path id="windows-R2" class="cls-2" d="M130,403.2427v25.98l-60,34.641v-25.98Z"/>
      <path id="windows-L2" class="cls-3" d="M5,403.2427v25.98l60,34.641v-25.98Z"/>
      <path id="body-L2" class="cls-4" d="M82.5,433.5527l-5-2.8859v28.867l5,2.887Z"/>
      <path id="body-R2" class="cls-5" d="M52.5,433.5527l5-2.8859v28.867l-5,2.887Z"/>
      <path id="body-L2-2" class="cls-4" d="M97.5,424.8927l-5-2.887v28.8681l5,2.887Z"/>
      <path id="body-R2-2" class="cls-5" d="M37.5,424.8927l5-2.887v28.8681l-5,2.887Z"/>
      <path id="body-L2-3" class="cls-4" d="M112.5,416.2327l-5-2.887v28.8681l5,2.8859Z"/>
      <path id="body-R2-3" class="cls-5" d="M22.5,416.2327l5-2.887v28.8681l-5,2.8859Z"/>
      <path id="body-L2-4" class="cls-4" d="M127.5,407.5727l-5-2.887v28.867l5,2.887Z"/>
      <path id="body-R2-4" class="cls-5" d="M7.5,407.5727l5-2.887v28.867l-5,2.887Z"/>
      <path id="top-T2-2" class="cls-6" d="M67.5,240.1407l65,37.528-65,37.5284-65-37.528Z"/>
      <path id="body-R2-5" class="cls-5" d="M65.1089,438.0477,65.5,318.7217l2-3.525,65-37.528v127.017l-65,37.528Z"/>
      <path id="body-L2-5" class="cls-4" d="M67.5,315.1971l-65-37.528v127.017l65,37.528Z"/>
      <g id="windows-R2-2">
        <path id="Path" class="cls-2" d="M72.5,318.0827l10-5.773v11.5474l-10,5.773Z"/>
        <path id="Path-2" class="cls-2" d="M87.5,309.4227l10-5.773v11.5474l-10,5.773Z"/>
        <path id="Path-3" class="cls-2" d="M102.5,300.7627l10-5.774v11.547l-10,5.774Z"/>
        <path id="Path-4" class="cls-2" d="M117.5,292.1027l10-5.774v11.547l-10,5.774Z"/>
        <path id="Path-5" class="cls-2" d="M72.5,352.7237l10-5.773v11.547l-10,5.773Z"/>
        <path id="Path-6" class="cls-2" d="M87.5,344.0637l10-5.773v11.547l-10,5.773Z"/>
        <path id="Path-7" class="cls-2" d="M102.5,335.4037l10-5.774v11.5474l-10,5.774Z"/>
        <path id="Path-8" class="cls-2" d="M117.5,326.7437l10-5.774v11.5474l-10,5.774Z"/>
        <path id="Path-9" class="cls-2" d="M72.5,387.3647l10-5.773v11.547l-10,5.773Z"/>
        <path id="Path-10" class="cls-2" d="M87.5,378.7047l10-5.773v11.547l-10,5.773Z"/>
        <path id="Path-11" class="cls-2" d="M102.5,370.0447l10-5.774v11.547l-10,5.774Z"/>
        <path id="Path-12" class="cls-2" d="M117.5,361.3847l10-5.7739v11.547l-10,5.7739Z"/>
        <path id="Path-13" class="cls-2" d="M72.5,335.4037l10-5.774v11.5474l-10,5.774Z"/>
        <path id="Path-14" class="cls-2" d="M87.5,326.7437l10-5.774v11.5474l-10,5.774Z"/>
        <path id="Path-15" class="cls-2" d="M102.5,318.0827l10-5.773v11.5474l-10,5.773Z"/>
        <path id="Path-16" class="cls-2" d="M117.5,309.4227l10-5.773v11.5474l-10,5.773Z"/>
        <path id="Path-17" class="cls-2" d="M72.5,370.0447l10-5.774v11.547l-10,5.774Z"/>
        <path id="Path-18" class="cls-2" d="M87.5,361.3847l10-5.7739v11.547l-10,5.7739Z"/>
        <path id="Path-19" class="cls-2" d="M102.5,352.7237l10-5.773v11.547l-10,5.773Z"/>
        <path id="Path-20" class="cls-2" d="M117.5,344.0637l10-5.773v11.547l-10,5.773Z"/>
        <path id="Path-21" class="cls-2" d="M72.5,404.6857l10-5.7739v11.547l-10,5.7739Z"/>
        <path id="Path-22" class="cls-2" d="M87.5,396.0257l10-5.7739v11.5469l-10,5.774Z"/>
        <path id="Path-23" class="cls-2" d="M102.5,387.3647l10-5.773v11.547l-10,5.773Z"/>
        <path id="Path-24" class="cls-2" d="M117.5,378.7047l10-5.773v11.547l-10,5.773Z"/>
        <path id="Path-25" class="cls-2" d="M72.5,422.0057l10-5.773V427.78l-10,5.773Z"/>
        <path id="Path-26" class="cls-2" d="M87.5,413.3457l10-5.773V419.12l-10,5.773Z"/>
        <path id="Path-27" class="cls-2" d="M102.5,404.6857l10-5.7739v11.547l-10,5.7739Z"/>
        <path id="Path-28" class="cls-2" d="M117.5,396.0257l10-5.7739v11.5469l-10,5.774Z"/>
      </g>
      <g id="windows-L2-2">
        <path id="Path-29" class="cls-3" d="M62.5,318.0827l-10-5.773v11.5474l10,5.773Z"/>
        <path id="Path-30" class="cls-3" d="M47.5,309.4227l-10-5.773v11.5474l10,5.773Z"/>
        <path id="Path-31" class="cls-3" d="M32.5,300.7627l-10-5.774v11.547l10,5.774Z"/>
        <path id="Path-32" class="cls-3" d="M17.5,292.1027l-10-5.774v11.547l10,5.774Z"/>
        <path id="Path-33" class="cls-3" d="M62.5,352.7237l-10-5.773v11.547l10,5.773Z"/>
        <path id="Path-34" class="cls-3" d="M47.5,344.0637l-10-5.773v11.547l10,5.773Z"/>
        <path id="Path-35" class="cls-3" d="M32.5,335.4037l-10-5.774v11.5474l10,5.774Z"/>
        <path id="Path-36" class="cls-3" d="M17.5,326.7437l-10-5.774v11.5474l10,5.774Z"/>
        <path id="Path-37" class="cls-3" d="M62.5,387.3647l-10-5.773v11.547l10,5.773Z"/>
        <path id="Path-38" class="cls-3" d="M47.5,378.7047l-10-5.773v11.547l10,5.773Z"/>
        <path id="Path-39" class="cls-3" d="M32.5,370.0447l-10-5.774v11.547l10,5.774Z"/>
        <path id="Path-40" class="cls-3" d="M17.5,361.3847l-10-5.7739v11.547l10,5.7739Z"/>
        <path id="Path-41" class="cls-3" d="M62.5,335.4037l-10-5.774v11.5474l10,5.774Z"/>
        <path id="Path-42" class="cls-3" d="M47.5,326.7437l-10-5.774v11.5474l10,5.774Z"/>
        <path id="Path-43" class="cls-3" d="M32.5,318.0827l-10-5.773v11.5474l10,5.773Z"/>
        <path id="Path-44" class="cls-3" d="M17.5,309.4227l-10-5.773v11.5474l10,5.773Z"/>
        <path id="Path-45" class="cls-3" d="M62.5,370.0447l-10-5.774v11.547l10,5.774Z"/>
        <path id="Path-46" class="cls-3" d="M47.5,361.3847l-10-5.7739v11.547l10,5.7739Z"/>
        <path id="Path-47" class="cls-3" d="M32.5,352.7237l-10-5.773v11.547l10,5.773Z"/>
        <path id="Path-48" class="cls-3" d="M17.5,344.0637l-10-5.773v11.547l10,5.773Z"/>
        <path id="Path-49" class="cls-3" d="M62.5,404.6857l-10-5.7739v11.547l10,5.7739Z"/>
        <path id="Path-50" class="cls-3" d="M47.5,396.0257l-10-5.7739v11.5469l10,5.774Z"/>
        <path id="Path-51" class="cls-3" d="M32.5,387.3647l-10-5.773v11.547l10,5.773Z"/>
        <path id="Path-52" class="cls-3" d="M17.5,378.7047l-10-5.773v11.547l10,5.773Z"/>
        <path id="Path-53" class="cls-3" d="M62.5,422.0057l-10-5.773V427.78l10,5.773Z"/>
        <path id="Path-54" class="cls-3" d="M47.5,413.3457l-10-5.773V419.12l10,5.773Z"/>
        <path id="Path-55" class="cls-3" d="M32.5,404.6857l-10-5.7739v11.547l10,5.7739Z"/>
        <path id="Path-56" class="cls-3" d="M17.5,396.0257l-10-5.7739v11.5469l10,5.774Z"/>
      </g>
      <path id="body-L2-6" class="cls-4" d="M67.5,453.7607l-65-37.528v5.773l65,37.528Z"/>
      <g id="body-R2-6">
        <path id="Path-57" class="cls-5" d="M67.5,453.7607l65-37.528v5.773l-65,37.528Z"/>
        <path id="Path-58" class="cls-5" d="M64.5,463.0557v-24.334l3,1.492,5-2.887v30.867l-5,2.887Z"/>
        <path id="Path-59" class="cls-5" d="M97.5,422.8927l5-2.887v30.8681l-5,2.887Z"/>
        <path id="Path-60" class="cls-5" d="M82.5,431.5527l5-2.8859v30.867l-5,2.887Z"/>
        <path id="Path-61" class="cls-5" d="M112.5,414.2327l5-2.887v30.8681l-5,2.8859Z"/>
        <path id="Path-62" class="cls-5" d="M127.5,405.5727l5-2.887v30.867l-5,2.887Z"/>
      </g>
      <g id="body-L2-7">
        <path id="Path-63" class="cls-4" d="M67.5,440.2137l-5-2.887v30.867l5,2.887Z"/>
        <path id="Path-64" class="cls-4" d="M37.5,422.8927l-5-2.887v30.8681l5,2.887Z"/>
        <path id="Path-65" class="cls-4" d="M52.5,431.5527l-5-2.8859v30.867l5,2.887Z"/>
        <path id="Path-66" class="cls-4" d="M22.5,414.2327l-5-2.887v30.8681l5,2.8859Z"/>
        <path id="Path-67" class="cls-4" d="M7.5,405.5727l-5-2.887v30.867l5,2.887Z"/>
      </g>
      <g id="top-T1">
        <path id="Path-68" class="cls-7" d="M72.5,445.1l5-2.8859,5,2.8859-10,5.774Z"/>
        <path id="Path-69" class="cls-7" d="M102.5,427.78l5-2.887,5,2.887-10,5.773Z"/>
        <path id="Path-70" class="cls-7" d="M87.5,436.44l5-2.887,5,2.887-10,5.774Z"/>
        <path id="Path-71" class="cls-7" d="M117.5,419.12l5-2.887,5,2.887-10,5.773Z"/>
      </g>
      <g id="top-T1-2">
        <path id="Path-72" class="cls-7" d="M62.5,445.1l-5-2.8859-5,2.8859,10,5.774Z"/>
        <path id="Path-73" class="cls-7" d="M32.5,427.78l-5-2.887-5,2.887,10,5.773Z"/>
        <path id="Path-74" class="cls-7" d="M47.5,436.44l-5-2.887-5,2.887,10,5.774Z"/>
        <path id="Path-75" class="cls-7" d="M17.5,419.12l-5-2.887-5,2.887,10,5.773Z"/>
      </g>
      <g id="Group-3">
        <g id="gradient-L2-R2">
          <ellipse id="Ellipse" class="cls-8" cx="67.5" cy="246.5746" rx="45" ry="25.9808"/>
        </g>
        <path id="body-L2-8" class="cls-4" d="M82.5,277.6687l-5-2.887V303.65l5,2.8859Z"/>
        <path id="body-R2-7" class="cls-5" d="M52.5,277.6687l5-2.887V303.65l-5,2.8859Z"/>
        <path id="body-L2-9" class="cls-4" d="M97.5,269.0087l-5-2.887v28.867l5,2.887Z"/>
        <path id="body-R2-8" class="cls-5" d="M37.5,269.0087l5-2.887v28.867l-5,2.887Z"/>
        <path id="body-L2-10" class="cls-4" d="M112.5,260.3477l-5-2.886v28.867l5,2.887Z"/>
        <path id="body-R2-9" class="cls-5" d="M22.5,260.3477l5-2.886v28.867l-5,2.887Z"/>
        <path id="body-L2-11" class="cls-4" d="M130.1172,279.7427l-.75-29.375-1.8672,1.32-5-2.887v28.868l5,2.887Z"/>
        <path id="body-R2-10" class="cls-5" d="M5.3042,279.7427v-29.875l2.1958,1.82,5-2.887v28.868l-5,2.887Z"/>
        <path id="top-T2-3" class="cls-9" d="M67.5,84.2571l65,37.527-65,37.528-65-37.528Z"/>
        <path id="body-R2-11" class="cls-5" d="M66.3638,271.0547l.1362-97.333,1-14.41,65-37.528v127.017l-65,37.528Z"/>
        <path id="body-L2-12" class="cls-4" d="M67.5,159.3117l-65-37.528v127.017l65,37.528Z"/>
        <g id="windows-R2-3">
          <path id="Path-76" class="cls-2" d="M72.5,162.1987l10-5.774v11.547l-10,5.774Z"/>
          <path id="Path-77" class="cls-2" d="M87.5,153.5387l10-5.774v11.547l-10,5.774Z"/>
          <path id="Path-78" class="cls-2" d="M102.5,144.8777l10-5.773v11.547l-10,5.773Z"/>
          <path id="Path-79" class="cls-2" d="M117.5,136.2177l10-5.773v11.547l-10,5.773Z"/>
          <path id="Path-80" class="cls-2" d="M72.5,196.84l10-5.774v11.547l-10,5.7744Z"/>
          <path id="Path-81" class="cls-2" d="M87.5,188.18l10-5.774v11.547l-10,5.774Z"/>
          <path id="Path-82" class="cls-2" d="M102.5,179.5187l10-5.773v11.547l-10,5.773Z"/>
          <path id="Path-83" class="cls-2" d="M117.5,170.8587l10-5.773v11.547l-10,5.773Z"/>
          <path id="Path-84" class="cls-2" d="M72.5,231.4807l10-5.774v11.547l-10,5.774Z"/>
          <path id="Path-85" class="cls-2" d="M87.5,222.8207l10-5.774v11.547l-10,5.774Z"/>
          <path id="Path-86" class="cls-2" d="M102.5,214.16l10-5.773v11.547l-10,5.773Z"/>
          <path id="Path-87" class="cls-2" d="M117.5,205.5l10-5.773v11.547l-10,5.773Z"/>
          <path id="Path-88" class="cls-2" d="M72.5,179.5187l10-5.773v11.547l-10,5.773Z"/>
          <path id="Path-89" class="cls-2" d="M87.5,170.8587l10-5.773v11.547l-10,5.773Z"/>
          <path id="Path-90" class="cls-2" d="M102.5,162.1987l10-5.774v11.547l-10,5.774Z"/>
          <path id="Path-91" class="cls-2" d="M117.5,153.5387l10-5.774v11.547l-10,5.774Z"/>
          <path id="Path-92" class="cls-2" d="M72.5,214.16l10-5.773v11.547l-10,5.7734Z"/>
          <path id="Path-93" class="cls-2" d="M87.5,205.5l10-5.773v11.547l-10,5.773Z"/>
          <path id="Path-94" class="cls-2" d="M102.5,196.84l10-5.774v11.547l-10,5.774Z"/>
          <path id="Path-95" class="cls-2" d="M117.5,188.18l10-5.774v11.547l-10,5.774Z"/>
          <path id="Path-96" class="cls-2" d="M72.5,248.8007l10-5.773v11.547l-10,5.773Z"/>
          <path id="Path-97" class="cls-2" d="M87.5,240.1407l10-5.773v11.547l-10,5.773Z"/>
          <path id="Path-98" class="cls-2" d="M102.5,231.4807l10-5.774v11.547l-10,5.774Z"/>
          <path id="Path-99" class="cls-2" d="M117.5,222.8207l10-5.774v11.547l-10,5.774Z"/>
          <path id="Path-100" class="cls-2" d="M72.5,266.1217l10-5.7739v11.547l-10,5.7739Z"/>
          <path id="Path-101" class="cls-2" d="M87.5,257.4617l10-5.774v11.5471l-10,5.7739Z"/>
          <path id="Path-102" class="cls-2" d="M102.5,248.8007l10-5.773v11.547l-10,5.773Z"/>
          <path id="Path-103" class="cls-2" d="M117.5,240.1407l10-5.773v11.547l-10,5.773Z"/>
        </g>
        <g id="windows-L2-3">
          <path id="Path-104" class="cls-3" d="M62.5,162.1987l-10-5.774v11.547l10,5.774Z"/>
          <path id="Path-105" class="cls-3" d="M47.5,153.5387l-10-5.774v11.547l10,5.774Z"/>
          <path id="Path-106" class="cls-3" d="M32.5,144.8777l-10-5.773v11.547l10,5.773Z"/>
          <path id="Path-107" class="cls-3" d="M17.5,136.2177l-10-5.773v11.547l10,5.773Z"/>
          <path id="Path-108" class="cls-3" d="M62.5,196.84l-10-5.774v11.547l10,5.774Z"/>
          <path id="Path-109" class="cls-3" d="M47.5,188.18l-10-5.774v11.547l10,5.774Z"/>
          <path id="Path-110" class="cls-3" d="M32.5,179.5187l-10-5.773v11.547l10,5.773Z"/>
          <path id="Path-111" class="cls-3" d="M17.5,170.8587l-10-5.773v11.547l10,5.773Z"/>
          <path id="Path-112" class="cls-3" d="M62.5,231.4807l-10-5.7736v11.547l10,5.774Z"/>
          <path id="Path-113" class="cls-3" d="M47.5,222.8207l-10-5.7736v11.547l10,5.774Z"/>
          <path id="Path-114" class="cls-3" d="M32.5,214.16l-10-5.7726v11.547l10,5.773Z"/>
          <path id="Path-115" class="cls-3" d="M17.5,205.5l-10-5.7726v11.547l10,5.773Z"/>
          <path id="Path-116" class="cls-3" d="M62.5,179.5187l-10-5.773v11.547l10,5.773Z"/>
          <path id="Path-117" class="cls-3" d="M47.5,170.8587l-10-5.773v11.547l10,5.773Z"/>
          <path id="Path-118" class="cls-3" d="M32.5,162.1987l-10-5.774v11.547l10,5.774Z"/>
          <path id="Path-119" class="cls-3" d="M17.5,153.5387l-10-5.774v11.547l10,5.774Z"/>
          <path id="Path-120" class="cls-3" d="M62.5,214.16l-10-5.7726v11.547l10,5.773Z"/>
          <path id="Path-121" class="cls-3" d="M47.5,205.5l-10-5.7726v11.547l10,5.773Z"/>
          <path id="Path-122" class="cls-3" d="M32.5,196.84l-10-5.774v11.547l10,5.774Z"/>
          <path id="Path-123" class="cls-3" d="M17.5,188.18l-10-5.774v11.547l10,5.774Z"/>
          <path id="Path-124" class="cls-3" d="M62.5,248.8007l-10-5.773v11.547l10,5.773Z"/>
          <path id="Path-125" class="cls-3" d="M47.5,240.1407l-10-5.773v11.547l10,5.773Z"/>
          <path id="Path-126" class="cls-3" d="M32.5,231.4807l-10-5.7736v11.547l10,5.774Z"/>
          <path id="Path-127" class="cls-3" d="M17.5,222.8207l-10-5.7736v11.547l10,5.774Z"/>
          <path id="Path-128" class="cls-3" d="M62.5,266.1217l-10-5.7739v11.547l10,5.7739Z"/>
          <path id="Path-129" class="cls-3" d="M47.5,257.4617l-10-5.774v11.5471l10,5.7739Z"/>
          <path id="Path-130" class="cls-3" d="M32.5,248.8007l-10-5.773v11.547l10,5.773Z"/>
          <path id="Path-131" class="cls-3" d="M17.5,240.1407l-10-5.773v11.547l10,5.773Z"/>
        </g>
        <path id="body-L2-13" class="cls-4" d="M67.5,297.8757l-65-37.5279v5.7739l65,37.5281Z"/>
        <g id="body-R2-12">
          <path id="Path-132" class="cls-5" d="M67.5,297.8757l65-37.5279v5.7739L67.5,303.65Z"/>
          <path id="Path-133" class="cls-5" d="M65.03,315.6887l-.53-31.633,3,1.273,5-4.8869V314.31l-5,2.887Z"/>
          <path id="Path-134" class="cls-5" d="M97.5,267.0087l5-2.887v32.867l-5,2.887Z"/>
          <path id="Path-135" class="cls-5" d="M82.5,275.6687l5-2.887V305.65l-5,2.8859Z"/>
          <path id="Path-136" class="cls-5" d="M112.5,258.3477l5-2.886v32.867l-5,2.887Z"/>
          <path id="Path-137" class="cls-5" d="M127.5,249.6877l5-2.887v32.868l-5,2.887Z"/>
        </g>
        <g id="body-L2-14">
          <path id="Path-138" class="cls-4" d="M67.5,284.3287l-5-2.8869V314.31l5,2.887Z"/>
          <path id="Path-139" class="cls-4" d="M37.5,267.0087l-5-2.887v32.867l5,2.887Z"/>
          <path id="Path-140" class="cls-4" d="M52.5,275.6687l-5-2.887V305.65l5,2.8859Z"/>
          <path id="Path-141" class="cls-4" d="M22.5,258.3477l-5-2.886v32.867l5,2.887Z"/>
          <path id="Path-142" class="cls-4" d="M7.5,249.6877l-5-2.887v32.868l5,2.887Z"/>
        </g>
        <g id="top-T1-3">
          <path id="Path-143" class="cls-7" d="M72.5,289.2157l5-2.887,5,2.887-10,5.773Z"/>
          <path id="Path-144" class="cls-6" d="M102.5,271.8947l5-2.886,5,2.886-10,5.774Z"/>
          <path id="Path-145" class="cls-10" d="M87.5,280.5557l5-2.887,5,2.887-10,5.773Z"/>
          <path id="Path-146" class="cls-6" d="M117.5,263.2347l5-2.887,5,2.887-10,5.774Z"/>
        </g>
        <g id="top-T1-4">
          <path id="Path-147" class="cls-10" d="M62.5,289.2157l-5-2.887-5,2.887,10,5.773Z"/>
          <path id="Path-148" class="cls-10" d="M32.5,271.8947l-5-2.886-5,2.886,10,5.774Z"/>
          <path id="Path-149" class="cls-10" d="M47.5,280.5557l-5-2.887-5,2.887,10,5.773Z"/>
          <path id="Path-150" class="cls-7" d="M17.5,263.2347l-5-2.887-5,2.887,10,5.774Z"/>
        </g>
      </g>
      <g id="top-T1-5">
        <path id="Path-151" class="cls-11" d="M102.5,116.0107l5-2.887,5,2.887-10,5.773Z"/>
        <path id="Path-152" class="cls-11" d="M117.5,107.3507l5-2.887,5,2.887-10,5.773Z"/>
      </g>
      <g id="top-T1-6">
        <path id="Path-153" class="cls-11" d="M47.5,124.6707l-5-2.887-5,2.887,10,5.774Z"/>
      </g>
      <path id="top-T1-7" class="cls-6" d="M69.2319,79.4827l64.0362,36.971a3.83,3.83,0,0,1,1.7319,3v7.547a3.83,3.83,0,0,1-1.7319,3l-64.0362,36.971a3.83,3.83,0,0,1-3.4638,0L1.7319,130.0007a3.83,3.83,0,0,1-1.7319-3v-7.547a3.83,3.83,0,0,1,1.7319-3l64.0362-36.971A3.83,3.83,0,0,1,69.2319,79.4827Z"/>
      <path id="Path-156" class="cls-12" d="M32.5,147.6337,20,140.4171l.7681.444a3.83,3.83,0,0,1,1.7319,3v29.754h0c0,3.186,1.68,6.744,3.75,7.938h0c2.07,1.195,3.75.285,3.75-2.031h0v-31.331c0-1.104.7759-1.552,1.7319-1Z"/>
      <path id="Path-157" class="cls-12" d="M65,166.5571l-4.2681-5.773H55l.7681.443a3.83,3.83,0,0,1,1.7319,3v54.292h0c0,2.389,1.12,4.977,2.5,5.773h0c1.38.797,2.5.15,2.5-1.443h0v-55.735c0-1.104.7759-1.552,1.7319-1Z"/>
      <path id="Path-158" class="cls-12" d="M10,134.7377l-10-11.51v3.737a3.8236,3.8236,0,0,0,1.667,2.986h0a1.9146,1.9146,0,0,1,.833,1.494v30.717h0c0,2.39,1.12,4.977,2.5,5.774H5c1.38.797,2.5.15,2.5-1.443h0v-31.198c0-1.104.7759-1.552,1.7319-1Z"/>
      <path id="Path-159" class="cls-12" d="M56.25,161.5047l-5-5.773h-5l.7681.443a3.83,3.83,0,0,1,1.7319,3v12.434h0c0,2.39,1.12,4.977,2.5,5.773h0c1.38.797,2.5.15,2.5-1.443h0v-13.877c0-1.104.7759-1.552,1.7319-1Z"/>
      <path id="Path-160" class="cls-12" d="M58.3359,285.8457l-4.104,2.37a1.0559,1.0559,0,0,0,0,2l1.5362.887a3.83,3.83,0,0,1,1.7319,3v12.433h0c0,2.39,1.12,4.977,2.5,5.774h0c1.38.796,2.5.15,2.5-1.444h0v-24.537l-.7241-.4419A3.7175,3.7175,0,0,0,58.3359,285.8457Z"/>
      <path id="Path-161" class="cls-12" d="M18.75,139.8347l-10-5.774.7681.444a3.83,3.83,0,0,1,1.7319,3v54.291h0c0,2.39,1.12,4.977,2.5,5.774h0c1.38.796,2.5.15,2.5-1.444h0v-55.735c0-1.103.7759-1.552,1.7319-1Z"/>
      <path id="Path-162" class="cls-12" d="M47.5,156.4247,35,149.1117l.7681.443a3.83,3.83,0,0,1,1.7319,3v15.417h0c0,3.187,1.4,6.582,3.125,7.578h0c1.7251.996,3.125-.179,3.125-2.623h0v-16.765c0-1.104.7671-1.537,1.7119-.967Z"/>
      <path id="Path-163" class="cls-12" d="M47.5,300.7627v-8.66l-7.0181,4.051c-.956.552-1.4521,1.485-1.1069,2.083h0a7.517,7.517,0,0,1,.625,3.082v13.926h0c0,3.187,1.4,6.582,3.125,7.578h0c1.7251.996,3.125-.179,3.125-2.623h0v-16.765A3.2515,3.2515,0,0,1,47.5,300.7627Z"/>
      <path id="Path-164" class="cls-12" d="M43.3662,276.7247l4.1338,2.387v5.774l-7.8838-4.552a1.697,1.697,0,0,1-.8662-1.222h0a1.6975,1.6975,0,0,1,.8662-1.221l2.0176-1.166A1.9158,1.9158,0,0,1,43.3662,276.7247Z"/>
      <path id="Path-165" class="cls-13" d="M38.75,169.6337a5.8528,5.8528,0,0,0,2.5,4.33"/>
      <path id="Path-166" class="cls-13" d="M41.25,316.9071a5.8528,5.8528,0,0,0,2.5,4.33"/>
      <path id="Path-167" class="cls-13" d="M58.75,218.5187a5.8528,5.8528,0,0,0,2.5,4.33"/>
      <path id="Path-168" class="cls-13" d="M50,171.9817a5.8528,5.8528,0,0,0,2.5,4.33"/>
      <path id="Path-169" class="cls-13" d="M58.75,306.91a5.8528,5.8528,0,0,0,2.5,4.33"/>
      <path id="Path-170" class="cls-13" d="M25,175.1971a5.8535,5.8535,0,0,0,2.5,4.331"/>
      <path id="Path-171" class="cls-13" d="M12.5,191.7957a5.8528,5.8528,0,0,0,2.5,4.33"/>
      <g id="Group-4">
        <path id="Path-172" class="cls-12" d="M32.5,277.6687v-8.66a15.2793,15.2793,0,0,0-2.0708-.898,2.3859,2.3859,0,0,0-1.8.155q-3.2028,1.8709-4.415,2.599a3.9229,3.9229,0,0,0-1.7142,3.03v30.049h0c0,3.186,1.68,6.744,3.75,7.939h0c2.07,1.194,3.75.284,3.75-2.032h0v-28.739a3.83,3.83,0,0,1,1.7319-3Z"/>
        <path id="Path-173" class="cls-13" d="M25,305.5271a5.8528,5.8528,0,0,0,2.5,4.33"/>
      </g>
      <path id="Path-174" class="cls-13" d="M41.6172,278.67A6.3255,6.3255,0,0,0,45,280.5557"/>
      <path id="Path-175" class="cls-13" d="M25,276.2247v-.8859a3.83,3.83,0,0,1,1.7319-3l.7681-.444"/>
      <g id="Group-5">
        <g id="Group-6">
          <path id="Path-176" class="cls-12" d="M10.0981,282.0557l.67.386a3.8317,3.8317,0,0,1,1.7319,3v54.292h0c0,2.39,1.12,4.977,2.5,5.774h0c1.38.796,2.5.149,2.5-1.444h0v-69.282l-7.4019,4.274C8.6641,279.8827,8.6641,281.2277,10.0981,282.0557Z"/>
          <path id="Path-177" class="cls-13" d="M13.75,339.3527a5.8528,5.8528,0,0,0,2.5,4.33"/>
        </g>
      </g>
      <path id="Path-178" class="cls-13" d="M3.75,162.1617a5.8535,5.8535,0,0,0,2.5,4.331"/>
      <path id="Path-179" class="cls-14" d="M68.75,166.91l5.9141-6.848,6.5859-.369-.7681.443a3.83,3.83,0,0,0-1.7319,3V192.89h0c0,3.187-1.68,6.744-3.75,7.939h0c-2.07,1.195-3.75.225-3.75-2.165h0v-31.198c0-1.104-.7759-1.552-1.7319-1Z"/>
      <path id="Path-180" class="cls-14" d="M96,281.3857h0a3.2817,3.2817,0,0,0-1,2.578v29.754h0c0,3.186-1.68,6.743-3.75,7.938h0c-2.07,1.195-3.75.225-3.75-2.165h0v-44.709l7.3979,4.245C96.334,279.8507,96.8281,280.9077,96,281.3857Z"/>
      <path id="Path-181" class="cls-14" d="M77.5,297.8757v3.774a3.8315,3.8315,0,0,0,1.7319,3l2.7862,1.608a1.4234,1.4234,0,0,1,.291,2.387L80,310.8657h0a8.0891,8.0891,0,0,1-3.75,6.275h0c-2.07,1.195-3.75.225-3.75-2.165h0v-14.213Z"/>
      <path id="Path-182" class="cls-14" d="M92.5,153.1977l12.5-7.217-.7681.443a3.83,3.83,0,0,0-1.7319,3v15.321h0c0,3.186-1.4,6.581-3.125,7.577h0c-1.7251.996-3.125-.136-3.125-2.526h0v-16.765c0-1.104-.7759-1.552-1.7319-1Z"/>
      <path id="Path-183" class="cls-14" d="M80,160.4137l4.5049-5.432L90,154.6407l-.7681.443a3.83,3.83,0,0,0-1.7319,3v54.292h0c0,2.39-1.12,4.977-2.5,5.773h0c-1.38.797-2.5.15-2.5-1.443h0v-55.735c0-1.104-.7759-1.552-1.7319-1Z"/>
      <path id="Path-184" class="cls-14" d="M102.5,275.6847v-9.563l4.8071,2.783c2.8658,1.659,4.3531,4.456,3.3179,6.242h0a7.49,7.49,0,0,0-.625,3.078v51.421h0c0,2.39-1.12,4.977-2.5,5.774h0c-1.38.796-2.5.149-2.5-1.444h0v-55.735c0-1.104-.56-1.676-1.25-1.278h0C103.06,277.3607,102.5,276.7877,102.5,275.6847Z"/>
      <path id="Path-185" class="cls-14" d="M115,140.5477l10-5.773-.7681.443a3.83,3.83,0,0,0-1.7319,3v29.816h0a7.8665,7.8665,0,0,1-3.333,6.255h0c-.92.531-1.667-.332-1.667-1.925h0v-31.259c0-1.104-.7759-1.552-1.7319-1Z"/>
      <path id="Path-186" class="cls-14" d="M125,134.7747l10-8.661v1.887a1.878,1.878,0,0,1-.833,1.481h0a3.7614,3.7614,0,0,0-1.667,2.963v54.291h0c0,2.39-1.12,4.977-2.5,5.774h0c-1.38.796-2.5.15-2.5-1.444h0v-55.735c0-1.104-.7759-1.552-1.7319-1Z"/>
      <path id="Path-187" class="cls-15" d="M121.25,168.7557a5.8528,5.8528,0,0,1-2.5,4.33"/>
      <path id="Path-188" class="cls-15" d="M101.25,166.2477a5.8555,5.8555,0,0,1-2.5,4.331"/>
      <path id="Path-189" class="cls-15" d="M76.25,194.6437a5.8528,5.8528,0,0,1-2.5,4.33"/>
      <path id="Path-190" class="cls-15" d="M92.5,315.4707a5.8528,5.8528,0,0,1-2.5,4.33"/>
      <path id="Path-191" class="cls-15" d="M88.75,279.8337l2.0181,1.165a3.83,3.83,0,0,1,1.7319,3v3.773"/>
      <path id="Path-192" class="cls-15" d="M106.25,271.1737l.7681.443a3.83,3.83,0,0,1,1.7319,3v2.33"/>
      <path id="Path-193" class="cls-15" d="M77.5,311.2077a5.8528,5.8528,0,0,1-2.5,4.33"/>
      <path id="Path-194" class="cls-15" d="M86.25,212.56a5.8525,5.8525,0,0,1-2.5,4.33"/>
      <path id="Path-195" class="cls-15" d="M108.75,329.83a5.8532,5.8532,0,0,1-2.5,4.331"/>
      <path id="Path-196" class="cls-15" d="M131.25,187.4587a5.8528,5.8528,0,0,1-2.5,4.33"/>
      <g id="Group-7">
        <path id="Path-197" class="cls-14" d="M117.5,286.3287v-11.547l6.5361,3.774c1.9121,1.103,2.7168,2.862,1.7969,3.924h0a5.338,5.338,0,0,0-.833,2.9621v52.849h0c0,2.39-1.12,4.9769-2.5,5.773h0c-1.38.797-2.5.15-2.5-1.443h0v-55.735c0-1.104-.7759-1.552-1.7319-1Z"/>
        <path id="Path-198" class="cls-15" d="M123.75,339.0127a5.8528,5.8528,0,0,1-2.5,4.33"/>
      </g>
      <path id="Path-199" class="cls-16" d="M57.5,66.9357v5.773l10,5.774v-5.774Z"/>
      <path id="Path-200" class="cls-17" d="M77.5,66.9357v5.773l-10,5.774v-5.774Z"/>
      <path id="Path-201" class="cls-18" d="M30.9639,114.0107,64.0361,94.9171a7.66,7.66,0,0,1,6.9278,0l33.0722,19.094c1.9121,1.104,1.9121,2.896,0,4l-33.0722,19.094a7.66,7.66,0,0,1-6.9278,0l-33.0722-19.094C29.0518,116.9071,29.0518,115.1147,30.9639,114.0107Z"/>
      <path id="Path-202" class="cls-12" d="M67.5,92.9171v11.547l28.2681,16.32a1.0559,1.0559,0,0,1,0,2l-.7681.444,9.0361-5.217c1.9121-1.104,1.9121-2.896,0-4Z"/>
      <path id="Path-203" class="cls-19" d="M67.5,92.9171v11.547l-28.2681,16.32a1.0559,1.0559,0,0,0,0,2l.7681.444-9.0361-5.217c-1.9121-1.104-1.9121-2.896,0-4Z"/>
      <path id="Path-204" class="cls-20" d="M70,126.1137h0c-1.38-.796-1.3359-2.115.0981-2.943l4.8038-2.773A5.6386,5.6386,0,0,1,80,120.3407h0c1.38.797,1.3359,2.115-.0981,2.943l-4.8038,2.774A5.6383,5.6383,0,0,1,70,126.1137Z"/>
      <path id="Path-205" class="cls-12" d="M72.5,144.8777h0a5.533,5.533,0,0,0-5,0h0c-1.38.797-1.38,2.09,0,2.887h0a5.5268,5.5268,0,0,0,5,0h0C73.88,146.9677,73.88,145.6747,72.5,144.8777Z"/>
      <path id="Path-206" class="cls-12" d="M78.7988,141.2417l27.4024-15.821a2.8174,2.8174,0,0,1,2.5488-.028h0c.69.398.668,1.057-.0488,1.471l-27.4024,15.821a2.8168,2.8168,0,0,1-2.5488.028h0C78.06,142.3147,78.082,141.6547,78.7988,141.2417Z"/>
      <path id="Path-207" class="cls-12" d="M21.2988,108.0437,46.2012,93.6671a2.82,2.82,0,0,1,2.5488-.029h0c.69.399.668,1.058-.0488,1.472l-24.9024,14.377a2.82,2.82,0,0,1-2.5488.029h0C20.56,109.1171,20.582,108.4577,21.2988,108.0437Z"/>
      <path id="Path-208" class="cls-12" d="M60,143.4347h0c1.38-.797,1.3359-2.116-.0981-2.943l-4.8038-2.774A5.6417,5.6417,0,0,0,50,137.6607h0c-1.38.797-1.3359,2.116.0981,2.944l4.8038,2.773A5.6383,5.6383,0,0,0,60,143.4347Z"/>
      <path id="Path-209" class="cls-20" d="M83.7988,132.5807l12.4024-7.16a2.8174,2.8174,0,0,1,2.5488-.028h0c.69.398.668,1.057-.0488,1.471l-12.4024,7.161a2.82,2.82,0,0,1-2.5488.028h0C83.06,133.6547,83.082,132.9947,83.7988,132.5807Z"/>
      <path id="Path-210" class="cls-20" d="M61.25,136.94h0c.69-.399.668-1.058-.0488-1.472l-4.9024-2.83a2.8174,2.8174,0,0,0-2.5488-.028h0c-.69.398-.668,1.057.0488,1.471l4.9024,2.83A2.82,2.82,0,0,0,61.25,136.94Z"/>
      <path id="Path-211" class="cls-12" d="M71.25,131.1657h0c.69-.398.668-1.058-.0488-1.472l-9.9024-5.716a2.82,2.82,0,0,0-2.5488-.029h0c-.69.399-.668,1.058.0488,1.472l9.9024,5.717A2.8168,2.8168,0,0,0,71.25,131.1657Z"/>
      <path id="Path-212" class="cls-12" d="M66.2988,122.4777l7.4024-4.274c.7168-.414.7387-1.073.0488-1.472h0a2.82,2.82,0,0,0-2.5488.029l-7.4024,4.273c-.7168.414-.7387,1.074-.0488,1.472h0A2.82,2.82,0,0,0,66.2988,122.4777Z"/>
      <path id="Path-213" class="cls-6" d="M56.25,102.2987h0c.69-.399,1.25-.05,1.25.778v2.774a2.82,2.82,0,0,1-1.25,2.221h0c-.69.398-1.25.05-1.25-.778V104.52A2.82,2.82,0,0,1,56.25,102.2987Z"/>
      <path id="Path-214" class="cls-21" d="M95,108.7937l-2.5-1.443v7.16a2.8178,2.8178,0,0,0,1.25,2.221h0c.69.399,1.25.05,1.25-.778Z"/>
      <path id="Path-215" class="cls-21" d="M100,111.6677l-2.5-1.443v4.286a2.818,2.818,0,0,0,1.25,2.221h0c.69.399,1.25.05,1.25-.778Z"/>
      <path id="Path-216" class="cls-6" d="M42.5,107.3507l2.5-1.444v4.274a2.82,2.82,0,0,1-1.25,2.221h0c-.69.399-1.25.05-1.25-.778Z"/>
      <path id="Path-217" class="cls-20" d="M16.25,119.6187h0c.69-.398.668-1.058-.0488-1.471l-4.9024-2.8306a2.82,2.82,0,0,0-2.5488-.028h0c-.69.398-.668,1.058.0488,1.472l4.9024,2.83A2.8168,2.8168,0,0,0,16.25,119.6187Z"/>
      <path id="Path-218" class="cls-12" d="M43.75,135.4957h0c.69-.398.668-1.057-.0488-1.471l-14.9024-8.604a2.8174,2.8174,0,0,0-2.5488-.028h0c-.69.398-.668,1.057.0488,1.471l14.9024,8.604A2.8168,2.8168,0,0,0,43.75,135.4957Z"/>
      <path id="Path-219" class="cls-12" d="M101.25,102.2987h0c.69-.399.668-1.058-.0488-1.472l-14.9024-8.604a2.82,2.82,0,0,0-2.5488-.028h0c-.69.398-.668,1.058.0488,1.472l14.9024,8.603A2.82,2.82,0,0,0,101.25,102.2987Z"/>
      <path id="Path-220" class="cls-12" d="M36.25,125.3927h0c.69-.399.668-1.058-.0488-1.472l-11.9693-6.91a1.0559,1.0559,0,0,1,0-2l11.9693-6.91c.7168-.414.7387-1.074.0488-1.472h0a2.82,2.82,0,0,0-2.5488.028l-13.6031,7.854c-1.434.828-1.434,2.172,0,3l13.6031,7.853A2.82,2.82,0,0,0,36.25,125.3927Z"/>
      <path id="Path-221" class="cls-12" d="M110,120.3407h0a5.6383,5.6383,0,0,0,5.0981-.057l3.0718-1.773c2.39-1.38,2.39-3.62,0-5l-10.5718-6.104a5.6389,5.6389,0,0,0-5.0981-.056h0c-1.38.796-1.3359,2.115.0981,2.943l6.438,3.717c1.9121,1.104,2.1841,2.739.607,3.649h0C108.46,118.3427,108.62,119.5437,110,120.3407Z"/>
      <path id="Path-222" class="cls-20" d="M121.25,119.6187h0a.7624.7624,0,0,0,0,1.444h0a2.7665,2.7665,0,0,0,2.5,0h0a.7624.7624,0,0,0,0-1.444h0A2.7665,2.7665,0,0,0,121.25,119.6187Z"/>
      <path id="Path-223" class="cls-20" d="M56.9829,114.03h0a.7624.7624,0,0,0,0,1.444h0a2.7665,2.7665,0,0,0,2.5,0h0a.7628.7628,0,0,0,0-1.444h0A2.7665,2.7665,0,0,0,56.9829,114.03Z"/>
      <path id="Path-224" class="cls-20" d="M13.75,112.4227h0a.7617.7617,0,0,0,0,1.443h0a2.7665,2.7665,0,0,0,2.5,0h0a.7617.7617,0,0,0,0-1.443h0A2.76,2.76,0,0,0,13.75,112.4227Z"/>
      <path id="Path-225" class="cls-14" d="M121.6338,260.8847l-4.1338,2.386v5.774l7.8838-4.552a1.697,1.697,0,0,0,.8662-1.222h0a1.6975,1.6975,0,0,0-.8662-1.221l-2.0176-1.165A1.9158,1.9158,0,0,0,121.6338,260.8847Z"/>
      <path id="Path-226" class="cls-15" d="M123.3828,262.8287a5.8543,5.8543,0,0,1-4.2656,2.608"/>
      <path id="Path-227" class="cls-15" d="M121.25,279.8337l.7681.443a3.83,3.83,0,0,1,1.7319,3v.887"/>
      <path id="Path-228" class="cls-14" d="M113.75,439.5607v3.7731a1.9158,1.9158,0,0,0,.8662,1.5l3.2676,1.8869a1.9158,1.9158,0,0,0,1.7324,0l3.2676-1.8869a1.9158,1.9158,0,0,0,.8662-1.5v-.886a1.9155,1.9155,0,0,0-.8662-1.5l-3.2676-1.887a1.9158,1.9158,0,0,1-.8662-1.5v-.887c0-.552-.3882-.776-.8662-.5l-3.2676,1.887A1.9155,1.9155,0,0,0,113.75,439.5607Z"/>
      <path id="Path-229" class="cls-12" d="M26.9258,443.9587l.124.248a2.2966,2.2966,0,0,0,1.4321,1.082l1.7862.344a7.1025,7.1025,0,0,1,1.8481.689l4.0947,2.364a5.3236,5.3236,0,0,1,1.437,1.322l.5323.766a2.138,2.138,0,0,0,1.57.822h.5a4.4079,4.4079,0,0,1,1.8662.5l8.2676,4.773a1.9152,1.9152,0,0,1,.8662,1.5v2.33a1.9156,1.9156,0,0,1-.8662,1.5l-.7676.444a1.9158,1.9158,0,0,1-1.7324,0l-9.9019-5.717-3.4638-2-.2862-.165a13.891,13.891,0,0,0-3.6069-1.361h0a13.8982,13.8982,0,0,1-3.6069-1.361l-9.9019-5.717A1.697,1.697,0,0,1,16.25,445.1h0a1.6973,1.6973,0,0,1,.8662-1.221l2.0176-1.165A1.88,1.88,0,0,0,20,441.2507h0c0-1.0621.7759-1.4761,1.7319-.9241l3.878,2.2391A3.9254,3.9254,0,0,1,26.9258,443.9587Z"/>
      <path id="Path-230" class="cls-13" d="M27.6958,449.4537A5.85,5.85,0,0,0,32.5,450.84"/>
      <path id="Path-231" class="cls-13" d="M46.25,460.2557l.7681.443c.956.552,1.7319.104,1.7319-1v-.887"/>
      <path id="Path-232" class="cls-22" d="M117.5,445.1l.3838.222a1.9158,1.9158,0,0,0,1.7324,0l1.6338-.943"/>
      <path id="Path-233" class="cls-23" d="M69.2319,166.9717l64.0362-36.971a3.83,3.83,0,0,0,1.7319-3v-8.547c0-.552-.3882-.776-.8662-.5L69.2319,155.4248a3.83,3.83,0,0,1-3.4638,0L1.7319,118.4538c-.956-.552-1.7319-.104-1.7319,1v7.547a3.83,3.83,0,0,0,1.7319,3l64.0362,36.9711A3.83,3.83,0,0,0,69.2319,166.9717Z"/>
    </g>
    <g id="Group-8">
      <g id="Group-9">
        <g id="Group-10">
          <path id="Path-234" class="cls-24" d="M82.3711,130.5087l-1.9092,1.102-1.91-1.102V98.8217l1.91,1.102,1.9092-1.102Z"/>
          <path id="Path-235" class="cls-25" d="M78.5752,132.79l1.8867-1.187V99.9237l-1.91-1.102Z"/>
        </g>
        <path id="Path-236" class="cls-17" d="M48.9541,124.9027l7.6387-4.41-7.6387-4.41-7.6382,4.41Z"/>
        <g id="Group-11">
          <path id="Path-237" class="cls-24" d="M50.8638,120.4927l-1.91,1.102-1.9092-1.102V85.2137l1.9092,1.102,1.91-1.102Z"/>
          <path id="Path-238" class="cls-25" d="M47.0449,120.4927l1.9092,1.102V86.3157l-1.9092-1.102Z"/>
        </g>
        <path id="Path-239" class="cls-25" d="M41.3159,120.4927v1.102l7.6382,4.41v-1.102Z"/>
        <path id="Path-240" class="cls-24" d="M56.5928,120.4927v1.102l-7.6387,4.41v-1.102Z"/>
        <path id="Path-241" class="cls-16" d="M49.4321,123.5247h0a.2918.2918,0,0,0,0-.552h0a1.057,1.057,0,0,0-.955,0h0a.2916.2916,0,0,0,0,.552h0A1.057,1.057,0,0,0,49.4321,123.5247Z"/>
        <path id="Path-242" class="cls-16" d="M54.2061,120.7677h0a.291.291,0,0,0,0-.551h0a1.0572,1.0572,0,0,0-.9551,0h0a.2906.2906,0,0,0,0,.551h0A1.0511,1.0511,0,0,0,54.2061,120.7677Z"/>
        <path id="Path-243" class="cls-16" d="M44.6582,120.7677h0a.2911.2911,0,0,0,0-.551h0a1.0572,1.0572,0,0,0-.9551,0h0a.2909.2909,0,0,0,0,.551h0A1.0511,1.0511,0,0,0,44.6582,120.7677Z"/>
        <path id="Path-244" class="cls-17" d="M69.0039,113.3271l7.6392-4.41-7.6392-4.41-7.6377,4.41Z"/>
        <g id="Group-12">
          <path id="Path-245" class="cls-24" d="M70.9141,108.9171l-1.91,1.102-1.9089-1.102V73.6377l1.9087,1.103,1.91-1.103Z"/>
          <path id="Path-246" class="cls-25" d="M67.0952,108.9171l1.9087,1.102V74.7407l-1.9087-1.103Z"/>
        </g>
        <path id="Path-247" class="cls-25" d="M61.3662,108.9171v1.102l7.6377,4.41v-1.102Z"/>
        <path id="Path-248" class="cls-24" d="M76.6431,108.9171v1.102l-7.6392,4.41v-1.102Z"/>
        <path id="Path-249" class="cls-16" d="M69.4819,111.9487h0a.2916.2916,0,0,0,0-.552h0a1.057,1.057,0,0,0-.955,0h0a.2918.2918,0,0,0,0,.552h0A1.057,1.057,0,0,0,69.4819,111.9487Z"/>
        <path id="Path-250" class="cls-16" d="M74.2559,109.1927h0a.2917.2917,0,0,0,0-.552h0a1.0572,1.0572,0,0,0-.9551,0h0a.2915.2915,0,0,0,0,.552h0A1.0572,1.0572,0,0,0,74.2559,109.1927Z"/>
        <path id="Path-251" class="cls-16" d="M64.708,109.1927h0a.2916.2916,0,0,0,0-.552h0a1.0572,1.0572,0,0,0-.9551,0h0a.2918.2918,0,0,0,0,.552h0A1.0572,1.0572,0,0,0,64.708,109.1927Z"/>
      </g>
      <path id="Path-252" class="cls-14" d="M72.8232,104.8917h0c9.4859,7.91,17.1856,2.408,17.1856-12.279h0c0-2.35-1.792-6.327-4-8.877l-3.6377-4.2Z"/>
      <path id="Path-253" class="cls-26" d="M76.6431,12.2847h0c-1.0542.609-1.91.076-1.91-1.189V6.8587a9.8689,9.8689,0,0,0-1.0908-4.181h0a5.6,5.6,0,0,0-7.689-1.86l-28.268,16.32a10.97,10.97,0,0,0-4.962,8.593v61.392a22.5248,22.5248,0,0,0,.9288,6.119h0c1.5961,4.605,7.1689,6.367,12.4379,3.933h0c5.27-2.434,13.17-1.273,17.6314,2.591l7.1929,6.229h0c10.539,7.301,19.0947,3.881,19.0947-7.635h0a2.47,2.47,0,0,0-1.1929-1.874h0c-1.4487-.837-2.626-3.398-2.626-5.717v-.418c0-2.318.897-3.683,2.001-3.046h0c1.0029.58,1.3941-.608.8711-2.649l-1.2739-4.979a27.8214,27.8214,0,0,1,1.1089-15.128l1.1118-2.653,1.3193-1.523a10.3829,10.3829,0,0,0,2.1778-6.692l-.9029-10.648a37.7531,37.7531,0,0,0-3.5981-12.201l-9.377-17.626a2.1575,2.1575,0,0,0-2.893-.97Q76.6886,12.2594,76.6431,12.2847Z"/>
      <path id="Path-254" class="cls-14" d="M93.1162,45.1047l-.2143-2.595a46.9927,46.9927,0,0,0-6.586-18.844Q79.0005,12.7439,79,12.7437a2.8541,2.8541,0,0,0-2.7388-1.561H73.2051a2.25,2.25,0,0,1-2.291-2.205h0a4.2217,4.2217,0,0,1,1.91-3.307h0a2.1966,2.1966,0,0,0,.8179-2.993h0a5.6,5.6,0,0,0-7.689-1.86l-28.268,16.32c-2.7383,1.581-2.7383,4.148,0,5.729l.7719.445a4.0909,4.0909,0,0,0,4.0191.116h0A3.6316,3.6316,0,0,1,46.09,23.31h0A4.2216,4.2216,0,0,1,48,26.6171h0a9.2305,9.2305,0,0,0,1.522,4.403l3.0708,4.432a15.0657,15.0657,0,0,0,8.2954,5.405l4.332.834a5.9359,5.9359,0,0,0,3.5288-.594l.5108-.295a3.6586,3.6586,0,0,1,3.3081,0l.5112.295a3.6558,3.6558,0,0,1,1.6538,2.864v.591a3.7867,3.7867,0,0,0,1.6279,2.907c.63.386,1.5542.84,4.1011,2.31a17.9694,17.9694,0,0,0,4.0059,1.854c3.0581.802,6.5962-.367,7.895-2.609h0A7.8736,7.8736,0,0,0,93.1162,45.1047Z"/>
      <path id="Mask" class="cls-27" d="M58.1558,51.3557h0a1.2342,1.2342,0,0,0,0,2.338h0a4.4747,4.4747,0,0,0,4.05,0h0a1.2345,1.2345,0,0,0,0-2.338h0A4.4809,4.4809,0,0,0,58.1558,51.3557Z"/>
      <path id="Mask-2" class="cls-28" d="M45.02,42.5357h0a1.2348,1.2348,0,0,0,0,2.339h0a4.48,4.48,0,0,0,4.05,0h0a1.2351,1.2351,0,0,0,0-2.339h0A4.48,4.48,0,0,0,45.02,42.5357Z"/>
      <g id="Group-13">
        <path id="Mask-3" class="cls-12" d="M56.395,12.5637h0c-2.1079,1.217-2.1079,3.193,0,4.409h0a8.4463,8.4463,0,0,0,7.6382,0h0c2.1079-1.216,2.1079-3.192,0-4.409h0A8.4463,8.4463,0,0,0,56.395,12.5637Z"/>
        <g class="cls-29">
          <path id="Path-255" class="cls-21" d="M56.7241,16.7837h0c-2.1079,1.217-2.1079,3.193,0,4.41h0a8.4514,8.4514,0,0,0,7.6377,0h0c2.1074-1.217,2.1074-3.193,0-4.41h0A8.4452,8.4452,0,0,0,56.7241,16.7837Z"/>
        </g>
        <path id="Mask-4" class="cls-12" d="M57.0029,26.0877h0a1.2346,1.2346,0,0,0,0,2.338h0a4.4809,4.4809,0,0,0,4.05,0h0a1.2342,1.2342,0,0,0,0-2.338h0A4.4809,4.4809,0,0,0,57.0029,26.0877Z"/>
        <g class="cls-30">
          <path id="Path-256" class="cls-21" d="M57.0029,27.7407h0a1.2346,1.2346,0,0,0,0,2.338h0a4.4747,4.4747,0,0,0,4.05,0h0a1.2342,1.2342,0,0,0,0-2.338h0A4.4809,4.4809,0,0,0,57.0029,27.7407Z"/>
        </g>
        <path id="Mask-5" class="cls-31" d="M70.6011,20.5757h0a1.2341,1.2341,0,0,0,0,2.338h0a4.48,4.48,0,0,0,4.05,0h0a1.2344,1.2344,0,0,0,0-2.338h0A4.4741,4.4741,0,0,0,70.6011,20.5757Z"/>
        <path id="Mask-6" class="cls-31" d="M75.9409,39.5557h0a.8886.8886,0,0,0,0,1.684h0a3.2262,3.2262,0,0,0,2.918,0h0a.8889.8889,0,0,0,0-1.684h0A3.2262,3.2262,0,0,0,75.9409,39.5557Z"/>
        <path id="Mask-7" class="cls-31" d="M60.4331,7.1217h0a.8886.8886,0,0,0,0,1.684h0a3.2242,3.2242,0,0,0,2.917,0h0a.8888.8888,0,0,0,0-1.684h0A3.2242,3.2242,0,0,0,60.4331,7.1217Z"/>
        <path id="Mask-8" class="cls-31" d="M65.186,7.85h0a.4614.4614,0,0,0,0,.874h0a1.6739,1.6739,0,0,0,1.5132,0h0a.4613.4613,0,0,0,0-.874h0A1.6739,1.6739,0,0,0,65.186,7.85Z"/>
        <path id="Mask-9" class="cls-31" d="M81.417,39.4317h0a.4613.4613,0,0,0,0,.874h0a1.6739,1.6739,0,0,0,1.5132,0h0a.4614.4614,0,0,0,0-.874h0A1.6739,1.6739,0,0,0,81.417,39.4317Z"/>
        <path id="Mask-10" class="cls-12" d="M43.8682,17.2677h0a1.2348,1.2348,0,0,0,0,2.339h0a4.48,4.48,0,0,0,4.05,0h0a1.2351,1.2351,0,0,0,0-2.339h0A4.48,4.48,0,0,0,43.8682,17.2677Z"/>
        <g class="cls-32">
          <path id="Path-257" class="cls-21" d="M43.8682,18.9207h0a1.2348,1.2348,0,0,0,0,2.339h0a4.48,4.48,0,0,0,4.05,0h0a1.2351,1.2351,0,0,0,0-2.339h0A4.48,4.48,0,0,0,43.8682,18.9207Z"/>
        </g>
        <path id="Mask-11" class="cls-12" d="M79.1938,42.6257h0a1.2343,1.2343,0,0,0,0,2.338h0a4.4809,4.4809,0,0,0,4.05,0h0a1.2346,1.2346,0,0,0,0-2.338h0A4.4747,4.4747,0,0,0,79.1938,42.6257Z"/>
        <g class="cls-33">
          <path id="Path-258" class="cls-21" d="M79.1938,44.2787h0a1.2343,1.2343,0,0,0,0,2.338h0a4.4809,4.4809,0,0,0,4.05,0h0a1.2346,1.2346,0,0,0,0-2.338h0A4.4747,4.4747,0,0,0,79.1938,44.2787Z"/>
        </g>
      </g>
      <g id="Group-14">
        <path id="Mask-12" class="cls-14" d="M38.2,39.4127h0c1.2158,2.108,3.1919,2.108,4.4087,0h0a8.444,8.444,0,0,0,0-7.638h0c-1.2168-2.108-3.1929-2.108-4.4087,0h0A8.444,8.444,0,0,0,38.2,39.4127Z"/>
        <g class="cls-34">
          <path id="Path-259" class="cls-21" d="M42.42,39.0847h0c1.2173,2.107,3.1929,2.107,4.4092,0h0a8.4492,8.4492,0,0,0,0-7.639h0c-1.2163-2.107-3.1919-2.107-4.4092,0h0A8.0444,8.0444,0,0,0,42.42,39.0847Z"/>
        </g>
        <path id="Mask-13" class="cls-35" d="M80.8809,107.4737h0a1.069,1.069,0,0,0,2.0249,0h0a3.8843,3.8843,0,0,0,0-3.508h0a1.0693,1.0693,0,0,0-2.0249,0h0A3.8781,3.8781,0,0,0,80.8809,107.4737Z"/>
        <path id="Mask-14" class="cls-28" d="M37.0542,50.3777h0a.7327.7327,0,0,0,1.3877,0h0a2.6587,2.6587,0,0,0,0-2.405h0a.7324.7324,0,0,0-1.3877,0h0A2.6587,2.6587,0,0,0,37.0542,50.3777Z"/>
        <path id="Mask-15" class="cls-35" d="M84.9419,104.9437h0a.7334.7334,0,0,0,1.3892,0h0a2.6618,2.6618,0,0,0,0-2.405h0a.7338.7338,0,0,0-1.3892,0h0A2.6618,2.6618,0,0,0,84.9419,104.9437Z"/>
        <path id="Mask-16" class="cls-14" d="M36.4761,60.47h0c.79,1.369,2.0737,1.369,2.8637,0h0a5.4879,5.4879,0,0,0,0-4.961h0c-.79-1.369-2.0737-1.369-2.8637,0h0A5.4824,5.4824,0,0,0,36.4761,60.47Z"/>
        <g class="cls-36">
          <path id="Path-260" class="cls-21" d="M39.2168,60.2571h0c.79,1.369,2.0742,1.369,2.8643,0h0a5.4886,5.4886,0,0,0,0-4.961h0c-.79-1.369-2.0743-1.369-2.8643,0h0A5.4824,5.4824,0,0,0,39.2168,60.2571Z"/>
        </g>
        <g id="Group-15">
          <path id="Path-261" class="cls-21" d="M43.9541,25.2107h0c-8.4873-.98-12.6211,6.18-9.2261,15.98h0C34.2891,33.1587,38.4238,25.9977,43.9541,25.2107Z"/>
        </g>
      </g>
      <path id="Mask-17" class="cls-28" d="M84.4268,60.8807a4.2891,4.2891,0,0,0,3.6372-1.666c.8222-1.008.4389-1.93-.856-2.057q-15.71-1.5459-25.9692-8.465c-10.2578-6.919-15.0869-3.1056-18.5469,11.7844S32.002,97.4527,52.78,89.2817a16.1723,16.1723,0,0,1,12.5723,3.131c4.582,3.581,21.3867,6.803,15.6391-5.359C75.6611,75.7777,75.832,67.4947,84.4268,60.8807Z"/>
      <path id="Mask-18" d="M84.82,59.1687a47.2816,47.2816,0,0,1-21.8349-6.893c-9.604-5.981-14.2041-2.566-17.6377,10.593s-9.6753,30.107,10.45,22.554q7.9512-.98,11.83,2.617c3.8789,3.597,15.1772,7.507,12.29-4.029q-2.888-11.5361,5.751-22.967C86.3828,60.0971,86.0029,59.2577,84.82,59.1687Z"/>
      <g class="cls-37">
        <g>
          <path id="Path-262" class="cls-38" d="M72.5142,94.4347q-.7632-29.079-32.3731-27.154l-.4243,25.397Z"/>
          <path id="Path-263" class="cls-9" d="M81.01,55.13l-6.2666,9.305a.7659.7659,0,0,1-.4981.293q-19.3082,1.68-27.768-11.989l6.7641-7.75Z"/>
        </g>
      </g>
    </g>
  </g>
</svg>
