<svg id="Layer_1" data-name="Layer 1" xmlns="http://www.w3.org/2000/svg" xmlns:xlink="http://www.w3.org/1999/xlink" viewBox="0 0 270 669.726">
  <defs>
    <style>
      .cls-1 {
        fill: #d0c9cb;
      }

      .cls-2 {
        fill: #fde2da;
      }

      .cls-3 {
        fill: #ddb7ac;
      }

      .cls-4 {
        fill: #9b7d74;
      }

      .cls-5 {
        fill: #535353;
      }

      .cls-6 {
        fill: #151515;
      }

      .cls-7 {
        fill: #eccdc4;
      }

      .cls-8 {
        fill: #cea59a;
      }

      .cls-9 {
        fill: #86675e;
      }

      .cls-10 {
        fill: #424242;
      }

      .cls-11 {
        fill: #959293;
      }

      .cls-12 {
        fill: #555454;
      }

      .cls-13 {
        fill: #209369;
      }

      .cls-14 {
        fill: #8b8b8b;
      }

      .cls-15 {
        fill: #fbded6;
      }

      .cls-16 {
        fill: #d1d1d1;
      }

      .cls-17 {
        fill: url(#linear-gradient);
      }

      .cls-18 {
        fill: url(#linear-gradient-2);
      }

      .cls-19 {
        fill: #b9b9b9;
      }

      .cls-20 {
        fill: url(#linear-gradient-3);
      }

      .cls-21 {
        fill: url(#linear-gradient-4);
      }

      .cls-22 {
        fill: url(#linear-gradient-5);
      }

      .cls-23 {
        fill: url(#linear-gradient-6);
      }

      .cls-24 {
        fill: url(#linear-gradient-7);
      }

      .cls-25 {
        fill: url(#linear-gradient-8);
      }

      .cls-26 {
        fill: url(#linear-gradient-9);
      }

      .cls-27 {
        fill: url(#linear-gradient-10);
      }

      .cls-28 {
        fill: #2e2e2e;
      }

      .cls-29 {
        fill: #5d5d5d;
      }

      .cls-30 {
        fill: url(#linear-gradient-11);
      }

      .cls-31 {
        fill: url(#linear-gradient-12);
      }

      .cls-32 {
        fill: url(#linear-gradient-13);
      }

      .cls-33 {
        fill: url(#linear-gradient-14);
      }

      .cls-34 {
        fill: #747474;
      }
    </style>
    <linearGradient id="linear-gradient" x1="3410.3514" y1="-4304.976" x2="3409.3846" y2="-4304.4692" gradientTransform="translate(-51021 149146.4521) scale(15 34.641)" gradientUnits="userSpaceOnUse">
      <stop offset="0" stop-color="#775f5f"/>
      <stop offset="0.9826" stop-color="#594040"/>
    </linearGradient>
    <linearGradient id="linear-gradient-2" x1="3411.1089" y1="-4305.7172" x2="3409.3833" y2="-4304.3214" gradientTransform="translate(-51006 149146.4521) scale(15 34.641)" gradientUnits="userSpaceOnUse">
      <stop offset="0" stop-color="#f9bcac"/>
      <stop offset="0.9739" stop-color="#bc938c"/>
    </linearGradient>
    <linearGradient id="linear-gradient-3" x1="3410.2245" y1="-4304.9333" x2="3409.3764" y2="-4304.4264" gradientTransform="translate(-50991 149163.7724) scale(15 34.641)" xlink:href="#linear-gradient"/>
    <linearGradient id="linear-gradient-4" x1="3409.3639" y1="-4304.4767" x2="3410.3985" y2="-4304.9836" gradientTransform="translate(-50991 149198.413) scale(15 34.641)" xlink:href="#linear-gradient"/>
    <linearGradient id="linear-gradient-5" x1="3410.2849" y1="-4304.9572" x2="3409.4029" y2="-4304.458" gradientTransform="translate(-51051 149163.7724) scale(15 34.641)" xlink:href="#linear-gradient"/>
    <linearGradient id="linear-gradient-6" x1="3410.3756" y1="-4305.0057" x2="3409.1035" y2="-4304.2933" gradientTransform="translate(-51051 149198.413) scale(15 34.641)" xlink:href="#linear-gradient"/>
    <linearGradient id="linear-gradient-7" x1="3410.0142" y1="-4304.8373" x2="3409.3723" y2="-4304.2865" gradientTransform="translate(-50976 149163.7724) scale(15 34.641)" xlink:href="#linear-gradient-2"/>
    <linearGradient id="linear-gradient-8" x1="3410.105" y1="-4304.9513" x2="3409.4005" y2="-4304.2228" gradientTransform="translate(-50976 149198.413) scale(15 34.641)" xlink:href="#linear-gradient-2"/>
    <linearGradient id="linear-gradient-9" x1="3410.8709" y1="-4305.5614" x2="3409.3392" y2="-4304.2646" gradientTransform="translate(-51036 149163.7724) scale(15 34.641)" xlink:href="#linear-gradient-2"/>
    <linearGradient id="linear-gradient-10" x1="3411.1169" y1="-4305.773" x2="3409.3228" y2="-4304.2491" gradientTransform="translate(-51036 149198.413) scale(15 34.641)" xlink:href="#linear-gradient-2"/>
    <linearGradient id="linear-gradient-11" x1="3409.4" y1="-4304.7394" x2="3410.4" y2="-4304.7394" gradientTransform="translate(-51021 149181.0927) scale(15 34.641)" xlink:href="#linear-gradient"/>
    <linearGradient id="linear-gradient-12" x1="3410.3943" y1="-4304.9977" x2="3409.4105" y2="-4304.4835" gradientTransform="translate(-51021 149215.7333) scale(15 34.641)" xlink:href="#linear-gradient"/>
    <linearGradient id="linear-gradient-13" x1="3409.9084" y1="-4304.7488" x2="3409.4178" y2="-4304.198" gradientTransform="translate(-51006 149181.0927) scale(15 34.641)" xlink:href="#linear-gradient-2"/>
    <linearGradient id="linear-gradient-14" x1="3410.3509" y1="-4305.2067" x2="3409.384" y2="-4304.2045" gradientTransform="translate(-51006 149215.7333) scale(15 34.641)" xlink:href="#linear-gradient-2"/>
  </defs>
  <title>Artboard 35</title>
  <g id="Group">
    <path id="Path" class="cls-1" d="M5,577.35l130,75.0561L265,577.35,135,502.295Z"/>
    <path id="Path-2" class="cls-1" d="M0,586.011l135,77.9421L270,586.011,135,508.0681Z"/>
    <path id="Path-4" class="cls-2" d="M25,334.863l110,63.509,110-63.509V329.09L135,265.581,25,329.09Z"/>
    <path id="Path-5" class="cls-3" d="M135,392.5981,245,329.09V525.389L135,588.897Z"/>
    <path id="Path-6" class="cls-4" d="M135,392.5981,25,329.09V525.389l110,63.508Z"/>
    <path id="Path-7" class="cls-5" d="M140,424.352l20-11.547v28.868L140,453.22Z"/>
    <path id="Path-8" class="cls-5" d="M140,464.767l20-11.547v28.867l-20,11.547Z"/>
    <path id="Path-9" class="cls-5" d="M140,505.181l20-11.547v28.868l-20,11.547Z"/>
    <path id="Path-10" class="cls-5" d="M140,545.596l20-11.547v28.8681l-20,11.546Z"/>
    <path id="Path-11" class="cls-6" d="M130,424.352l-20-11.547v28.868l20,11.547Z"/>
    <path id="Path-12" class="cls-6" d="M130,464.767,110,453.22v28.867l20,11.547Z"/>
    <path id="Path-13" class="cls-6" d="M130,505.181l-20-11.547v28.868l20,11.547Z"/>
    <path id="Path-14" class="cls-6" d="M130,545.596l-20-11.547v28.8681l20,11.546Z"/>
    <path id="Path-15" class="cls-5" d="M175,404.1451l20-11.547V421.466l-20,11.547Z"/>
    <path id="Path-16" class="cls-5" d="M175,444.56l20-11.547V461.88l-20,11.547Z"/>
    <path id="Path-17" class="cls-5" d="M175,484.9741l20-11.547V502.295l-20,11.547Z"/>
    <path id="Path-18" class="cls-5" d="M175,525.389l20-11.547v28.867l-20,11.547Z"/>
    <path id="Path-19" class="cls-6" d="M95,404.1451l-20-11.547V421.466l20,11.547Z"/>
    <path id="Path-20" class="cls-6" d="M95,444.56,75,433.013V461.88l20,11.547Z"/>
    <path id="Path-21" class="cls-6" d="M95,484.9741l-20-11.547V502.295l20,11.547Z"/>
    <path id="Path-22" class="cls-6" d="M95,525.389,75,513.842v28.867l20,11.547Z"/>
    <path id="Path-23" class="cls-5" d="M210,383.938l20-11.5469V401.258l-20,11.547Z"/>
    <path id="Path-24" class="cls-5" d="M210,424.352l20-11.547v28.868L210,453.22Z"/>
    <path id="Path-25" class="cls-5" d="M210,464.767l20-11.547v28.867l-20,11.547Z"/>
    <path id="Path-26" class="cls-5" d="M210,505.181l20-11.547v28.868l-20,11.547Z"/>
    <path id="Path-27" class="cls-6" d="M60,383.938,40,372.3911V401.258l20,11.547Z"/>
    <path id="Path-28" class="cls-6" d="M60,424.352,40,412.805v28.868L60,453.22Z"/>
    <path id="Path-29" class="cls-6" d="M60,464.767,40,453.22v28.867l20,11.547Z"/>
    <path id="Path-30" class="cls-6" d="M60,505.181,40,493.634v28.868l20,11.547Z"/>
    <path id="Path-31" class="cls-7" d="M35,329.09l100-57.735L235,329.09,135,386.825Z"/>
    <path id="Path-32" class="cls-4" d="M135,271.355v11.547l90,51.961,10-5.773Z"/>
    <path id="Path-33" class="cls-3" d="M35,329.09l100-57.735v11.547L45,334.863Z"/>
    <path id="Path-34" class="cls-8" d="M140,395.485v23.094l100-57.7349V337.75Z"/>
    <path id="Path-35" class="cls-9" d="M130,395.485v23.094L30,360.8441V337.75Z"/>
    <path id="Path-36" class="cls-4" d="M240,360.8441l-5-2.8871v-17.32l5-2.8869Z"/>
    <path id="Path-37" class="cls-3" d="M30,360.8441l5-2.8871v-17.32l-5-2.887Z"/>
    <path id="Path-38" class="cls-2" d="M140,418.579l100-57.7349-5-2.8871-95,54.848Z"/>
    <path id="Path-39" class="cls-2" d="M130,418.579,30,360.8441l5-2.8871,95,54.848Z"/>
    <path id="Path-40" class="cls-2" d="M140,458.993V453.22l25-14.4339,5,2.8869Z"/>
    <path id="Path-41" class="cls-2" d="M140,499.408v-5.774l25-14.433,5,2.886Z"/>
    <path id="Path-42" class="cls-2" d="M140,539.8221V534.049l25-14.4339,5,2.8869Z"/>
    <path id="Path-43" class="cls-2" d="M140,580.237v-5.7729L165,560.03l5,2.8871Z"/>
    <path id="Path-44" class="cls-2" d="M130,580.237v-5.7729L105,560.03l-5,2.8871Z"/>
    <path id="Path-45" class="cls-2" d="M130,539.8231V534.049l-25-14.4339-5,2.8869Z"/>
    <path id="Path-46" class="cls-2" d="M130,499.408v-5.7729L105,479.201l-5,2.8871Z"/>
    <path id="Path-47" class="cls-2" d="M130,458.993V453.22l-25-14.4339-5,2.8869Z"/>
    <path id="Path-48" class="cls-2" d="M175,438.7861V433.013l25-14.434,5,2.887Z"/>
    <path id="Path-49" class="cls-2" d="M175,479.201v-5.7739l25-14.4341,5,2.8871Z"/>
    <path id="Path-50" class="cls-2" d="M175,519.6151V513.842l25-14.434,5,2.887Z"/>
    <path id="Path-51" class="cls-2" d="M175,560.03v-5.774l25-14.4339,5,2.8869Z"/>
    <path id="Path-52" class="cls-2" d="M95,560.03v-5.774L70,539.8221l-5,2.8869Z"/>
    <path id="Path-53" class="cls-2" d="M95,519.6151V513.842L70,499.408l-5,2.887Z"/>
    <path id="Path-54" class="cls-2" d="M95,479.201v-5.7739L70,458.993l-5,2.887Z"/>
    <path id="Path-55" class="cls-2" d="M95,438.7861V433.013L70,418.579l-5,2.887Z"/>
    <path id="Path-56" class="cls-2" d="M210,418.579v-5.774l25-14.433,5,2.886Z"/>
    <path id="Path-57" class="cls-2" d="M210,458.993V453.22l25-14.4339,5,2.8869Z"/>
    <path id="Path-58" class="cls-2" d="M210,499.408v-5.774l25-14.433,5,2.886Z"/>
    <path id="Path-59" class="cls-2" d="M210,539.8221V534.049l25-14.4339,5,2.8869Z"/>
    <path id="Path-60" class="cls-2" d="M60,539.8221V534.049L35,519.6151l-5,2.8869Z"/>
    <path id="Path-61" class="cls-2" d="M60,499.408v-5.774L35,479.201l-5,2.886Z"/>
    <path id="Path-62" class="cls-2" d="M60,458.993V453.22L35,438.7861l-5,2.8869Z"/>
    <path id="Path-63" class="cls-2" d="M60,418.579v-5.774L35,398.372l-5,2.886Z"/>
    <path id="Path-64" class="cls-4" d="M165,409.919l5-2.887v34.641l-5-2.8869Z"/>
    <path id="Path-65" class="cls-6" d="M105,571.5771V600.444l25,14.434V586.011Z"/>
    <path id="Path-66" class="cls-5" d="M165,571.5771V600.444l-25,14.434V586.011Z"/>
    <path id="Path-67" class="cls-6" d="M70,551.37v28.867l25,14.4341V565.803Z"/>
    <path id="Path-68" class="cls-5" d="M200,551.37v28.867l-25,14.4341V565.803Z"/>
    <path id="Path-69" class="cls-6" d="M50,539.8221V568.69l10,5.7741V545.596Z"/>
    <path id="Path-70" class="cls-5" d="M220,539.8221V568.69l-10,5.7741V545.596Z"/>
    <path id="Path-71" class="cls-4" d="M165,450.3331l5-2.8871v34.641l-5-2.886Z"/>
    <path id="Path-72" class="cls-4" d="M165,490.748l5-2.887v34.641l-5-2.8869Z"/>
    <path id="Path-73" class="cls-4" d="M165,531.162l5-2.8869v34.642l-5-2.8871Z"/>
    <path id="Path-74" class="cls-3" d="M105,531.162l-5-2.8869v34.642l5-2.8871Z"/>
    <path id="Path-75" class="cls-3" d="M105,490.748l-5-2.887v34.641l5-2.8869Z"/>
    <path id="Path-76" class="cls-3" d="M105,450.3331l-5-2.8871v34.6421l5-2.8871Z"/>
    <path id="Path-77" class="cls-3" d="M105,409.919l-5-2.887v34.641l5-2.8869Z"/>
    <path id="Path-78" class="cls-4" d="M200,389.711l5-2.886v34.641l-5-2.887Z"/>
    <path id="Path-79" class="cls-4" d="M200,430.126l5-2.8869V461.88l-5-2.8871Z"/>
    <path id="Path-80" class="cls-4" d="M200,470.54l5-2.886v34.641l-5-2.887Z"/>
    <path id="Path-81" class="cls-4" d="M200,510.955l5-2.8869V542.709l-5-2.8869Z"/>
    <path id="Path-82" class="cls-3" d="M70,510.955l-5-2.8869V542.709l5-2.8869Z"/>
    <path id="Path-83" class="cls-3" d="M70,470.54l-5-2.886v34.641l5-2.887Z"/>
    <path id="Path-84" class="cls-3" d="M70,430.126l-5-2.8869V461.88l5-2.8871Z"/>
    <path id="Path-85" class="cls-3" d="M70,389.711l-5-2.886v34.641l5-2.887Z"/>
    <path id="Path-86" class="cls-4" d="M235,369.504l5-2.887v34.641l-5-2.886Z"/>
    <path id="Path-87" class="cls-4" d="M235,409.919l5-2.887v34.641l-5-2.8869Z"/>
    <path id="Path-88" class="cls-4" d="M235,450.3331l5-2.8871v34.641l-5-2.886Z"/>
    <path id="Path-89" class="cls-4" d="M235,490.748l5-2.887v34.641l-5-2.8869Z"/>
    <path id="Path-90" class="cls-3" d="M35,490.748l-5-2.887v34.641l5-2.8869Z"/>
    <path id="Path-91" class="cls-10" d="M140,586.011l10-5.774v28.868l-10,5.773Z"/>
    <path id="Path-92" d="M130,586.011l-10-5.774v28.868l10,5.773Z"/>
    <path id="Path-93" class="cls-10" d="M160,574.4641l10-5.7741v28.868l-10,5.773Z"/>
    <path id="Path-94" d="M110,574.4641,100,568.69v28.868l10,5.773Z"/>
    <path id="Path-95" class="cls-10" d="M180,562.9171l10-5.7741v28.868l-10,5.773Z"/>
    <path id="Path-96" d="M90,562.9171,80,557.143v28.868l10,5.773Z"/>
    <path id="Path-97" class="cls-10" d="M210,545.596l10-5.7729V568.69l-10,5.7741Z"/>
    <path id="Path-98" class="cls-4" d="M60,542.709l12.5,7.2171V599.001L70,600.444l-2.5-1.443L65,600.444l-5-2.886Z"/>
    <path id="Path-99" class="cls-4" d="M25,522.502l12.5,7.2171V578.794L35,580.237l-2.5-1.443L30,580.237l-5-2.887Z"/>
    <path id="Path-100" class="cls-4" d="M95,562.9171l12.5,7.2159v49.0751L105,620.652l-2.5-1.4439L100,620.652l-5-2.8869Z"/>
    <path id="Path-101" class="cls-3" d="M175,562.9161l-12.5,7.2169v49.0751l2.5,1.443,2.5-1.443,2.5,1.4439,5-2.8869Z"/>
    <path id="Path-102" class="cls-3" d="M210,542.709l-12.5,7.2171V599.001l2.5,1.443,2.5-1.443,2.5,1.443,5-2.886Z"/>
    <path id="Path-103" class="cls-3" d="M245,522.502l-12.5,7.2171V578.794l2.5,1.443,2.5-1.443,2.5,1.443,5-2.887Z"/>
    <path id="Path-104" d="M60,545.596l-10-5.7729V568.69l10,5.7741Z"/>
    <path id="Path-105" class="cls-3" d="M35,450.3331l-5-2.8871v34.641l5-2.886Z"/>
    <path id="Path-106" class="cls-3" d="M35,409.919l-5-2.887v34.641l5-2.8869Z"/>
    <path id="Path-107" class="cls-3" d="M35,369.504l-5-2.887v34.641l5-2.886Z"/>
    <path id="Path-108" class="cls-4" d="M240,580.237l-5-2.887V531.162l5-2.8859Z"/>
    <path id="Path-109" class="cls-4" d="M205,548.483l-5,2.8871V597.558l5,2.886Z"/>
    <path id="Path-110" class="cls-4" d="M170,568.69l-5,2.8871v46.188l5,2.8869Z"/>
    <path id="Path-111" class="cls-3" d="M100,620.652l5-2.8869v-46.188l-5-2.8871Z"/>
    <path id="Path-112" class="cls-3" d="M70,597.558l-5,2.886V548.483l5,2.8871Z"/>
    <path id="Path-113" class="cls-3" d="M30,580.237l5-2.887V531.162l-5-2.8859Z"/>
    <path id="Path-114" class="cls-3" d="M160,412.805l5-2.886v28.8671l-5,2.8869Z"/>
    <path id="Path-115" class="cls-3" d="M160,453.22l5-2.8869V479.201l-5,2.8871Z"/>
    <path id="Path-116" class="cls-3" d="M160,493.6351l5-2.8871v28.8671l-5,2.8869Z"/>
    <path id="Path-117" class="cls-3" d="M160,534.049l5-2.887V560.03l-5,2.8871Z"/>
    <path id="Path-118" class="cls-4" d="M110,412.805l-5-2.886v28.8671l5,2.8869Z"/>
    <path id="Path-119" class="cls-4" d="M110,453.22l-5-2.8869V479.201l5,2.886Z"/>
    <path id="Path-120" class="cls-4" d="M110,493.634l-5-2.886v28.8671l5,2.8869Z"/>
    <path id="Path-121" class="cls-4" d="M110,534.049l-5-2.887V560.03l5,2.8861Z"/>
    <path id="Path-122" class="cls-3" d="M195,392.5981l5-2.8871v28.868l-5,2.887Z"/>
    <path id="Path-123" class="cls-3" d="M195,433.013l5-2.887v28.867l-5,2.8871Z"/>
    <path id="Path-124" class="cls-3" d="M195,473.4271l5-2.886V499.408l-5,2.887Z"/>
    <path id="Path-125" class="cls-3" d="M195,513.842l5-2.887v28.8681l-5,2.8859Z"/>
    <path id="Path-126" class="cls-4" d="M75,392.5981l-5-2.8871v28.868l5,2.887Z"/>
    <path id="Path-127" class="cls-4" d="M75,433.013l-5-2.887v28.867l5,2.8871Z"/>
    <path id="Path-128" class="cls-4" d="M75,473.4271,70,470.54v28.868l5,2.887Z"/>
    <path id="Path-129" class="cls-4" d="M75,513.842l-5-2.887v28.8671l5,2.8869Z"/>
    <path id="Path-130" class="cls-3" d="M230,372.3911l5-2.8871v28.868l-5,2.886Z"/>
    <path id="Path-131" class="cls-3" d="M230,412.805l5-2.886v28.8671l-5,2.8869Z"/>
    <path id="Path-132" class="cls-3" d="M230,453.22l5-2.8869V479.201l-5,2.8871Z"/>
    <path id="Path-133" class="cls-3" d="M230,493.6351l5-2.8871v28.8671l-5,2.8869Z"/>
    <path id="Path-134" class="cls-4" d="M40,372.3911l-5-2.8871v28.868l5,2.886Z"/>
    <path id="Path-135" class="cls-4" d="M40,412.805l-5-2.886v28.8671l5,2.8869Z"/>
    <path id="Path-136" class="cls-4" d="M40,453.22l-5-2.8869V479.201l5,2.886Z"/>
    <path id="Path-137" class="cls-4" d="M40,493.634l-5-2.886v28.8671l5,2.8869Z"/>
    <path id="Path-138" class="cls-3" d="M170,401.258l5-2.886V375.278l-5,2.886Z"/>
    <path id="Path-139" class="cls-4" d="M100,401.258l-5-2.886V375.278l5,2.886Z"/>
    <path id="Path-140" class="cls-3" d="M205,381.0511l5-2.8871V355.07l-5,2.887Z"/>
    <path id="Path-141" class="cls-4" d="M65,381.0511l-5-2.8871V355.07l5,2.887Z"/>
    <path id="Path-142" class="cls-4" d="M165,398.372l5,2.886V378.164l-5,2.8871Z"/>
    <path id="Path-143" class="cls-3" d="M105,398.372l-5,2.886V378.164l5,2.8871Z"/>
    <path id="Path-144" class="cls-4" d="M200,378.164l5,2.8871V357.957l-5,2.8871Z"/>
    <path id="Path-145" class="cls-3" d="M70,378.164l-5,2.8871V357.957l5,2.8871Z"/>
    <path id="Path-146" class="cls-4" d="M105,401.258l-2.5-1.443V379.608l2.5,1.4431Z"/>
    <path id="Path-147" class="cls-4" d="M70,381.0511l-2.5-1.4431V359.4011l2.5,1.443Z"/>
    <path id="Path-148" class="cls-3" d="M235,360.8441l2.5-1.443v-20.208L235,340.637Z"/>
    <path id="Path-149" class="cls-3" d="M200,381.0511l2.5-1.4431V359.4011l-2.5,1.443Z"/>
    <path id="Path-150" class="cls-3" d="M165,401.258l2.5-1.443V379.608l-2.5,1.4431Z"/>
    <path id="Path-151" class="cls-3" d="M165,620.652l2.5-1.4439V570.133l-2.5,1.4441Z"/>
    <path id="Path-152" class="cls-4" d="M105,620.652l-2.5-1.4439V570.133l2.5,1.4441Z"/>
    <path id="Path-153" class="cls-3" d="M200,600.444l2.5-1.443V549.9261L200,551.37Z"/>
    <path id="Path-154" class="cls-4" d="M70,600.444l-2.5-1.443V549.9261L70,551.37Z"/>
    <path id="Path-155" class="cls-3" d="M235,580.237l2.5-1.443V529.7191L235,531.162Z"/>
    <path id="Path-156" class="cls-4" d="M35,580.237l-2.5-1.443V529.7191L35,531.162Z"/>
    <path id="Path-157" class="cls-4" d="M35,360.8441l-2.5-1.443v-20.208L35,340.637Z"/>
    <path id="Path-158" class="cls-3" d="M107.5,399.815l-2.5,1.443V381.0511l2.5,1.444Z"/>
    <path id="Path-159" class="cls-3" d="M72.5,379.608,70,381.0511v-20.207l2.5,1.4429Z"/>
    <path id="Path-160" class="cls-4" d="M232.5,359.4011l2.5,1.443V340.637l-2.5,1.443Z"/>
    <path id="Path-161" class="cls-4" d="M197.5,379.608l2.5,1.4431v-20.207l-2.5,1.4429Z"/>
    <path id="Path-162" class="cls-4" d="M162.5,399.815l2.5,1.443V381.0511l-2.5,1.444Z"/>
    <path id="Path-163" class="cls-4" d="M162.5,619.2081l2.5,1.4439V571.5771l-2.5,1.443Z"/>
    <path id="Path-164" class="cls-3" d="M107.5,619.2081,105,620.652V571.5771l2.5,1.443Z"/>
    <path id="Path-165" class="cls-4" d="M197.5,599.001l2.5,1.443V551.37l-2.5,1.4429Z"/>
    <path id="Path-166" class="cls-3" d="M72.5,599.001,70,600.444V551.37l2.5,1.4429Z"/>
    <path id="Path-167" class="cls-4" d="M232.5,578.794l2.5,1.443V531.162l-2.5,1.444Z"/>
    <path id="Path-168" class="cls-3" d="M37.5,578.794,35,580.237V531.162l2.5,1.444Z"/>
    <path id="Path-169" class="cls-3" d="M37.5,359.4011l-2.5,1.443V340.637l2.5,1.443Z"/>
    <g id="Group-2">
      <path id="Path-170" class="cls-2" d="M25,225.1671,135,288.675l75-43.3009V239.6L100,176.092,25,219.393Z"/>
      <path id="Path-171" class="cls-3" d="M135,282.902,210,239.6V355.07l-75,43.302Z"/>
      <path id="Path-172" class="cls-4" d="M135,282.902,25,219.393v115.47l110,63.509Z"/>
      <path id="Path-173" class="cls-5" d="M140,314.6561l20-11.547V331.976l-20,11.547Z"/>
      <path id="Path-174" class="cls-5" d="M140,355.07l20-11.547v28.8681L140,383.938Z"/>
      <path id="Path-175" class="cls-6" d="M130,314.6561l-20-11.547V331.976l20,11.547Z"/>
      <path id="Path-176" class="cls-6" d="M130,355.07l-20-11.547v28.8681l20,11.5469Z"/>
      <path id="Path-177" class="cls-5" d="M175,294.449l20-11.547v28.867l-20,11.547Z"/>
      <path id="Path-178" class="cls-5" d="M175,334.863l20-11.547v28.868l-20,11.547Z"/>
      <path id="Path-179" class="cls-6" d="M95,294.449,75,282.902v28.867l20,11.547Z"/>
      <path id="Path-180" class="cls-6" d="M95,334.863,75,323.316v28.868l20,11.547Z"/>
      <path id="Path-181" class="cls-6" d="M60,274.241,40,262.694v28.8681l20,11.547Z"/>
      <path id="Path-182" class="cls-6" d="M60,314.6561l-20-11.547V331.976l20,11.547Z"/>
      <path id="Path-183" class="cls-7" d="M35,219.393l65-37.5279L200,239.6l-65,37.528Z"/>
      <path id="Path-184" class="cls-4" d="M100,181.8651V193.412l90,51.9621L200,239.6Z"/>
      <path id="Path-185" class="cls-3" d="M35,219.393l65-37.5279V193.412L45,225.1671Z"/>
      <path id="Path-186" class="cls-8" d="M140,285.788v23.094l65-37.527V248.261Z"/>
      <path id="Path-187" class="cls-9" d="M130,285.788v23.094L30,251.147V228.053Z"/>
      <path id="Path-188" class="cls-3" d="M30,251.147l5-2.886V230.94l-5-2.887Z"/>
      <path id="Path-189" class="cls-2" d="M140,308.882l65-37.527-5-2.8869-60,34.641Z"/>
      <path id="Path-190" class="cls-2" d="M130,308.882,30,251.147l5-2.886,95,54.8481Z"/>
      <path id="Path-191" class="cls-2" d="M140,349.2971V343.523l25-14.433,5,2.886Z"/>
      <path id="Path-192" class="cls-2" d="M140,389.711v-5.773l25-14.434,5,2.8871Z"/>
      <path id="Path-193" class="cls-2" d="M130,389.711v-5.773l-25-14.434-5,2.8871Z"/>
      <path id="Path-194" class="cls-2" d="M130,349.2971V343.523L105,329.09l-5,2.886Z"/>
      <path id="Path-195" class="cls-2" d="M175,329.09v-5.774l25-14.434,5,2.887Z"/>
      <path id="Path-196" class="cls-2" d="M175,369.504v-5.773l25-14.4339,5,2.8869Z"/>
      <path id="Path-197" class="cls-2" d="M95,369.504v-5.773L70,349.2971l-5,2.8869Z"/>
      <path id="Path-198" class="cls-2" d="M95,329.09v-5.774L70,308.882l-5,2.887Z"/>
      <path id="Path-199" class="cls-2" d="M60,349.2971V343.523L35,329.09l-5,2.886Z"/>
      <path id="Path-200" class="cls-2" d="M60,308.882v-5.7729L35,288.675l-5,2.8871Z"/>
      <path id="Path-201" class="cls-4" d="M165,300.222l5-2.887v34.641l-5-2.886Z"/>
      <path id="Path-202" class="cls-4" d="M165,340.637l5-2.8869v34.641l-5-2.8871Z"/>
      <path id="Path-203" class="cls-3" d="M105,340.637l-5-2.8869v34.641l5-2.8871Z"/>
      <path id="Path-204" class="cls-3" d="M105,300.222l-5-2.887v34.641l5-2.886Z"/>
      <path id="Path-205" class="cls-4" d="M200,280.0151l5-2.8871v34.641l-5-2.887Z"/>
      <path id="Path-206" class="cls-4" d="M200,320.429l5-2.886v34.641l-5-2.8869Z"/>
      <path id="Path-207" class="cls-3" d="M70,320.429l-5-2.886v34.641l5-2.8869Z"/>
      <path id="Path-208" class="cls-3" d="M70,280.0151l-5-2.8871v34.641l5-2.887Z"/>
      <path id="Path-209" class="cls-3" d="M35,300.222l-5-2.887v34.641l5-2.886Z"/>
      <path id="Path-210" class="cls-3" d="M35,259.808l-5-2.8869v34.641l5-2.8871Z"/>
      <path id="Path-211" class="cls-3" d="M160,303.1091l5-2.8871V329.09l-5,2.886Z"/>
      <path id="Path-212" class="cls-3" d="M160,343.523l5-2.886v28.867l-5,2.8871Z"/>
      <path id="Path-213" class="cls-4" d="M110,303.1091l-5-2.8871V329.09l5,2.886Z"/>
      <path id="Path-214" class="cls-4" d="M110,343.523l-5-2.886v28.867l5,2.8871Z"/>
      <path id="Path-215" class="cls-3" d="M195,282.902l5-2.8869V308.882l-5,2.887Z"/>
      <path id="Path-216" class="cls-3" d="M195,323.316l5-2.887v28.8681l-5,2.8869Z"/>
      <path id="Path-217" class="cls-4" d="M75,282.902l-5-2.8869V308.882l5,2.887Z"/>
      <path id="Path-218" class="cls-4" d="M75,323.316l-5-2.887v28.8681l5,2.8869Z"/>
      <path id="Path-219" class="cls-4" d="M40,262.694l-5-2.886v28.867l5,2.8871Z"/>
      <path id="Path-220" class="cls-4" d="M40,303.1091l-5-2.8871V329.09l5,2.886Z"/>
      <path id="Path-221" class="cls-3" d="M170,291.5621l5-2.8871V265.581l-5,2.8871Z"/>
      <path id="Path-222" class="cls-4" d="M100,291.5621l-5-2.8871V265.581l5,2.8871Z"/>
      <path id="Path-223" class="cls-3" d="M205,271.355l5-2.8869v-23.094l-5,2.8869Z"/>
      <path id="Path-224" class="cls-4" d="M65,271.355l-5-2.8869v-23.094l5,2.8869Z"/>
      <path id="Path-225" class="cls-4" d="M165,288.675l5,2.8871v-23.094l-5,2.8869Z"/>
      <path id="Path-226" class="cls-3" d="M105,288.675l-5,2.8871v-23.094l5,2.8869Z"/>
      <path id="Path-227" class="cls-4" d="M200,268.4681l5,2.8869V248.261l-5,2.886Z"/>
      <path id="Path-228" class="cls-3" d="M70,268.4681l-5,2.8869V248.261l5,2.886Z"/>
      <path id="Path-229" class="cls-4" d="M105,291.5621l-2.5-1.443v-20.208l2.5,1.4439Z"/>
      <path id="Path-230" class="cls-4" d="M70,271.355l-2.5-1.4439V249.704l2.5,1.443Z"/>
      <path id="Path-231" class="cls-3" d="M200,271.355l2.5-1.4439V249.704l-2.5,1.443Z"/>
      <path id="Path-232" class="cls-3" d="M165,291.5621l2.5-1.443v-20.208L165,271.355Z"/>
      <path id="Path-233" class="cls-4" d="M35,251.147l-2.5-1.443V229.497L35,230.94Z"/>
      <path id="Path-234" class="cls-3" d="M107.5,290.1191l-2.5,1.443V271.355l2.5,1.443Z"/>
      <path id="Path-235" class="cls-3" d="M72.5,269.9111,70,271.355V251.147l2.5,1.444Z"/>
      <path id="Path-236" class="cls-4" d="M197.5,269.9111l2.5,1.4439V251.147l-2.5,1.444Z"/>
      <path id="Path-237" class="cls-4" d="M162.5,290.1191l2.5,1.443V271.355l-2.5,1.443Z"/>
      <path id="Path-238" class="cls-3" d="M37.5,249.704,35,251.147V230.94l2.5,1.444Z"/>
    </g>
    <path id="Path-239" class="cls-3" d="M140,583.1241l-5,2.8869-2.5-1.4439V639.415l2.5,1.4441,5-2.8871Z"/>
    <path id="Path-240" class="cls-4" d="M130,583.1241l5,2.8869v54.8481l-5-2.8871Z"/>
    <path id="Path-241" class="cls-11" d="M135,652.4061v5.7729l130-75.0549V577.35Z"/>
    <path id="Path-242" class="cls-11" d="M135,663.9531v5.7729l135-77.942v-5.773Z"/>
    <path id="Path-243" class="cls-12" d="M5,583.1241V577.35l130,75.0561v5.7729Z"/>
    <path id="Path-244" class="cls-12" d="M0,591.784v-5.773l135,77.9421v5.7729Z"/>
    <path id="Path-245" class="cls-1" d="M65,600.444,45,611.991l30,17.3211,20-11.547Z"/>
    <path id="Path-246" class="cls-1" d="M205,600.444l20,11.547-30,17.3211-20-11.547Z"/>
    <path id="Path-247" class="cls-11" d="M85,629.3121V623.538l-10,5.7741v11.547l5-2.8871v-5.773Z"/>
    <path id="Path-248" class="cls-12" d="M185,629.3121V623.538l10,5.7741v11.547l-5-2.8871v-5.773Z"/>
    <path id="Path-249" class="cls-12" d="M45,611.991v11.547l30,17.3211v-11.547Z"/>
    <path id="Path-250" class="cls-11" d="M225,611.991v11.547l-30,17.3211v-11.547Z"/>
    <path id="Path-253" class="cls-13" d="M190,623.538l5,2.887,22.5-12.99-5-2.8871Z"/>
    <path id="Path-254" class="cls-13" d="M80,623.538l-5,2.887-22.5-12.99,5-2.8871Z"/>
    <path id="Path-255" class="cls-12" d="M212.5,607.6611v2.8869l5,2.887,2.5-1.444Z"/>
    <path id="Path-256" class="cls-11" d="M57.5,607.6611v2.8869l-5,2.887L50,611.991Z"/>
    <path id="Path-257" class="cls-11" d="M212.5,607.6611v2.8869L190,623.538l-2.5-1.443Z"/>
    <path id="Path-258" class="cls-12" d="M57.5,607.6611v2.8869L80,623.538l2.5-1.443Z"/>
    <g id="Group-3">
      <path id="Path-259" class="cls-2" d="M60,135.6771l75,43.302,75-43.302V129.904L135,86.603,60,129.904Z"/>
      <path id="Path-260" class="cls-3" d="M135,173.205l75-43.301v115.47l-75,43.301Z"/>
      <path id="Path-261" class="cls-4" d="M135,173.205,60,129.904v115.47l75,43.3009Z"/>
      <path id="Path-262" class="cls-5" d="M140,204.959l20-11.547V222.28l-20,11.5471Z"/>
      <path id="Path-263" class="cls-5" d="M140,245.3741l20-11.547V262.694l-20,11.547Z"/>
      <path id="Path-264" class="cls-6" d="M130,204.959l-20-11.547V222.28l20,11.5471Z"/>
      <path id="Path-265" class="cls-6" d="M130,245.3741l-20-11.547V262.694l20,11.547Z"/>
      <path id="Path-266" class="cls-5" d="M175,184.752l20-11.547v28.8681L175,213.62Z"/>
      <path id="Path-267" class="cls-5" d="M175,225.1671l20-11.547V242.487l-20,11.547Z"/>
      <path id="Path-268" class="cls-6" d="M95,184.752,75,173.205v28.8681L95,213.62Z"/>
      <path id="Path-269" class="cls-6" d="M95,225.1671,75,213.62v28.867l20,11.547Z"/>
      <path id="Path-270" class="cls-7" d="M70,129.904l65-37.528,65,37.528-65,37.5281Z"/>
      <path id="Path-271" class="cls-4" d="M135,92.376v11.547l55,31.7541,10-5.7731Z"/>
      <path id="Path-272" class="cls-3" d="M70,129.904l65-37.528v11.547L80,135.6771Z"/>
      <path id="Path-273" class="cls-8" d="M140,176.092v23.094l65-37.528V138.564Z"/>
      <path id="Path-274" class="cls-9" d="M130,176.092v23.094L65,161.658V138.564Z"/>
      <path id="Path-275" class="cls-2" d="M140,199.186l65-37.528-5-2.8869L140,193.412Z"/>
      <path id="Path-276" class="cls-2" d="M130,199.186,65,161.658l5-2.8869,60,34.6409Z"/>
      <path id="Path-277" class="cls-2" d="M140,239.6v-5.7729l25-14.4341,5,2.887Z"/>
      <path id="Path-278" class="cls-2" d="M140,280.0151V274.241l25-14.433,5,2.886Z"/>
      <path id="Path-279" class="cls-2" d="M130,280.0151V274.241l-25-14.433-5,2.886Z"/>
      <path id="Path-280" class="cls-2" d="M130,239.6v-5.7729L105,219.393l-5,2.887Z"/>
      <path id="Path-281" class="cls-2" d="M175,219.393V213.62l25-14.4341,5,2.8871Z"/>
      <path id="Path-282" class="cls-2" d="M175,259.808v-5.774L200,239.6l5,2.887Z"/>
      <path id="Path-283" class="cls-2" d="M95,259.808v-5.774L70,239.6l-5,2.887Z"/>
      <path id="Path-284" class="cls-2" d="M95,219.393V213.62L70,199.186l-5,2.8871Z"/>
      <path id="Path-285" class="cls-4" d="M165,190.5261l5-2.8871V222.28l-5-2.887Z"/>
      <path id="Path-286" class="cls-4" d="M165,230.94l5-2.887v34.641l-5-2.886Z"/>
      <path id="Path-287" class="cls-3" d="M105,230.94l-5-2.887v34.641l5-2.886Z"/>
      <path id="Path-288" class="cls-3" d="M105,190.5261l-5-2.8871V222.28l5-2.887Z"/>
      <path id="Path-289" class="cls-4" d="M200,170.3181l5-2.886v34.641l-5-2.8871Z"/>
      <path id="Path-290" class="cls-4" d="M200,210.733l5-2.887v34.641l-5-2.887Z"/>
      <path id="Path-291" class="cls-3" d="M70,210.733l-5-2.887v34.641l5-2.887Z"/>
      <path id="Path-292" class="cls-3" d="M70,170.3181l-5-2.886v34.641l5-2.8871Z"/>
      <path id="Path-293" class="cls-3" d="M160,193.412l5-2.8859V219.393l-5,2.887Z"/>
      <path id="Path-294" class="cls-3" d="M160,233.8271l5-2.8871v28.868l-5,2.886Z"/>
      <path id="Path-295" class="cls-4" d="M110,193.412l-5-2.8859V219.393l5,2.887Z"/>
      <path id="Path-296" class="cls-4" d="M110,233.8271l-5-2.8871v28.868l5,2.886Z"/>
      <path id="Path-297" class="cls-3" d="M195,173.205l5-2.8869V199.186l-5,2.8871Z"/>
      <path id="Path-298" class="cls-3" d="M195,213.62l5-2.8871V239.6l-5,2.887Z"/>
      <path id="Path-299" class="cls-4" d="M75,173.205l-5-2.8869V199.186l5,2.8871Z"/>
      <path id="Path-300" class="cls-4" d="M75,213.62l-5-2.8871V239.6l5,2.887Z"/>
      <path id="Path-301" class="cls-3" d="M170,181.8651l5-2.886v-23.094l-5,2.886Z"/>
      <path id="Path-302" class="cls-4" d="M100,181.8651l-5-2.886v-23.094l5,2.886Z"/>
      <path id="Path-303" class="cls-3" d="M205,161.658l5-2.8869v-23.094l-5,2.8869Z"/>
      <path id="Path-304" class="cls-4" d="M65,161.658l-5-2.8869v-23.094l5,2.8869Z"/>
      <path id="Path-305" class="cls-4" d="M165,178.9791l5,2.886v-23.094l-5,2.8869Z"/>
      <path id="Path-306" class="cls-3" d="M105,178.9791l-5,2.886v-23.094l5,2.8869Z"/>
      <path id="Path-307" class="cls-4" d="M200,158.7711l5,2.8869V138.564l-5,2.887Z"/>
      <path id="Path-308" class="cls-3" d="M70,158.7711l-5,2.8869V138.564l5,2.887Z"/>
      <path id="Path-309" class="cls-4" d="M105,181.8651l-2.5-1.443V160.215l2.5,1.443Z"/>
      <path id="Path-310" class="cls-4" d="M70,161.658l-2.5-1.443V140.007l2.5,1.444Z"/>
      <path id="Path-311" class="cls-3" d="M200,161.658l2.5-1.443V140.007l-2.5,1.444Z"/>
      <path id="Path-312" class="cls-3" d="M165,181.8651l2.5-1.443V160.215l-2.5,1.443Z"/>
      <path id="Path-313" class="cls-3" d="M107.5,180.4221l-2.5,1.443V161.658l2.5,1.443Z"/>
      <path id="Path-314" class="cls-3" d="M72.5,160.215,70,161.658V141.451l2.5,1.443Z"/>
      <path id="Path-315" class="cls-4" d="M197.5,160.215l2.5,1.443V141.451l-2.5,1.443Z"/>
      <path id="Path-316" class="cls-4" d="M162.5,180.4221l2.5,1.443V161.658l-2.5,1.443Z"/>
    </g>
    <g id="Group-4">
      <path id="Path-317" class="cls-14" d="M107.5,134.2341,135,150.111l27.5-15.8769V131.347L135,115.47l-27.5,15.877Z"/>
      <path id="Path-318" class="cls-15" d="M120,8.66V34.6411l15,8.66,15-8.66V8.66L135,0Z"/>
      <path id="Path-319" class="cls-16" d="M120,43.3011l15,8.66,15-8.66-15-8.66Z"/>
      <path id="Path-320" class="cls-17" d="M135,43.3011l-15-8.66V8.66l15,8.66Z"/>
      <path id="Path-321" class="cls-14" d="M135,77.9421l-15-8.66V43.3011l15,8.66Z"/>
      <path id="Path-322" class="cls-18" d="M135,17.32l15-8.66V34.6411l-15,8.66Z"/>
      <path id="Path-323" class="cls-19" d="M135,51.961l15-8.66V69.282l-15,8.66Z"/>
      <path id="Path-324" class="cls-15" d="M90,25.981v25.98l15,8.661,15-8.661V25.981L105,17.32Z"/>
      <path id="Path-325" class="cls-15" d="M90,60.622v25.98l15,8.661,15-8.661V60.622l-15-8.661Z"/>
      <path id="Path-326" class="cls-15" d="M150,25.981v25.98l15,8.661,15-8.661V25.981L165,17.32Z"/>
      <path id="Path-327" class="cls-15" d="M150,60.622v25.98l15,8.661,15-8.661V60.622l-15-8.661Z"/>
      <path id="Path-328" class="cls-20" d="M165,60.622l-15-8.661V25.981l15,8.66Z"/>
      <path id="Path-329" class="cls-21" d="M165,95.263l-15-8.661V60.622l15,8.66Z"/>
      <path id="Path-330" class="cls-22" d="M105,60.622,90,51.961V25.981l15,8.66Z"/>
      <path id="Path-331" class="cls-23" d="M105,95.263,90,86.602V60.622l15,8.66Z"/>
      <path id="Path-332" class="cls-24" d="M165,34.6411l15-8.66v25.98l-15,8.661Z"/>
      <path id="Path-333" class="cls-25" d="M165,69.282l15-8.66v25.98l-15,8.661Z"/>
      <path id="Path-334" class="cls-26" d="M105,34.6411l15-8.66v25.98l-15,8.661Z"/>
      <path id="Path-335" class="cls-27" d="M105,69.282l15-8.66v25.98l-15,8.661Z"/>
      <path id="Path-336" class="cls-28" d="M132.5,27.424V131.347l2.5,1.4441V28.867Z"/>
      <path id="Path-337" class="cls-29" d="M137.5,27.424,135,28.867V132.7911l2.5-1.4441Z"/>
      <path id="Path-338" class="cls-14" d="M132.5,27.424l2.5-1.443,2.5,1.443L135,28.867Z"/>
      <path id="Path-339" class="cls-15" d="M120,43.3011V69.282l15,8.66,15-8.66V43.3011l-15-8.66Z"/>
      <path id="Path-340" class="cls-15" d="M120,77.9421V103.923l15,8.66,15-8.66V77.9421l-15-8.66Z"/>
      <path id="Path-341" class="cls-30" d="M135,77.9421l-15-8.66V43.3011l15,8.66Z"/>
      <path id="Path-342" class="cls-31" d="M135,112.5831l-15-8.66V77.9421l15,8.66Z"/>
      <path id="Path-343" class="cls-32" d="M135,51.961l15-8.66V69.282l-15,8.66Z"/>
      <path id="Path-344" class="cls-33" d="M135,86.602l15-8.66v25.981l-15,8.66Z"/>
      <path id="Path-345" class="cls-28" d="M111.25,42.58v2.886L120,50.518V47.631Z"/>
      <path id="Path-346" class="cls-28" d="M111.25,77.221v2.886L120,85.159V82.272Z"/>
      <path id="Path-347" class="cls-29" d="M158.75,42.58v2.886L150,50.518V47.631Z"/>
      <path id="Path-348" class="cls-29" d="M158.75,77.221v2.886L150,85.159V82.272Z"/>
      <path id="Path-349" class="cls-14" d="M113.75,41.136l-2.5,1.444L120,47.631V44.7451Z"/>
      <path id="Path-350" class="cls-14" d="M113.75,75.777l-2.5,1.444L120,82.272V79.386Z"/>
      <path id="Path-351" class="cls-14" d="M156.25,41.136l2.5,1.444L150,47.631V44.7451Z"/>
      <path id="Path-352" class="cls-14" d="M156.25,75.777l2.5,1.444L150,82.272V79.386Z"/>
      <path id="Path-353" class="cls-28" d="M141.25,25.259,150,30.311v2.8871l-8.75-5.052Z"/>
      <path id="Path-354" class="cls-29" d="M128.75,25.259,120,30.311v2.8871l8.75-5.052Z"/>
      <path id="Path-355" class="cls-14" d="M143.75,23.816l-2.5,1.443L150,30.311V27.424Z"/>
      <path id="Path-356" class="cls-14" d="M126.25,23.816l2.5,1.443L120,30.311V27.424Z"/>
      <path id="Path-357" class="cls-28" d="M135,147.2241v2.8869l-27.5-15.8769V131.347Z"/>
      <path id="Path-358" class="cls-29" d="M162.5,131.347v2.8871L135,150.111v-2.8869Z"/>
      <path id="Path-359" class="cls-28" d="M122.5,125.574l12.5,7.2171V118.357Z"/>
      <path id="Path-360" class="cls-29" d="M135,132.7911l-10,5.7729,10-17.32Z"/>
      <path id="Path-361" class="cls-29" d="M147.5,125.574,135,132.7911V118.357Z"/>
      <path id="Path-362" class="cls-28" d="M135,132.7911l10,5.7729-10-17.32Z"/>
      <path id="Path-363" class="cls-34" d="M122.5,137.121l10-17.321,2.5,1.4441-10,17.32Z"/>
      <path id="Path-364" class="cls-34" d="M147.5,137.121l-10-17.321-2.5,1.4441,10,17.32Z"/>
      <path id="Path-365" class="cls-34" d="M133.75,142.1721h0a2.7659,2.7659,0,0,1,2.5,0h0a.7624.7624,0,0,1,0,1.4439h0a2.7665,2.7665,0,0,1-2.5,0h0a.7624.7624,0,0,1,0-1.4439Z"/>
      <path id="Path-366" class="cls-34" d="M153.75,130.6251h0a2.7659,2.7659,0,0,1,2.5,0h0a.7624.7624,0,0,1,0,1.4439h0a2.7665,2.7665,0,0,1-2.5,0h0a.7624.7624,0,0,1,0-1.4439Z"/>
      <path id="Path-367" class="cls-34" d="M113.75,130.6251h0a2.7659,2.7659,0,0,1,2.5,0h0a.7624.7624,0,0,1,0,1.4439h0a2.7665,2.7665,0,0,1-2.5,0h0a.7624.7624,0,0,1,0-1.4439Z"/>
    </g>
  </g>
</svg>
