<svg id="Layer_1" data-name="Layer 1" xmlns="http://www.w3.org/2000/svg" xmlns:xlink="http://www.w3.org/1999/xlink" viewBox="0 0 290 749.112">
  <defs>
    <style>
      .cls-1 {
        fill: none;
      }

      .cls-2 {
        fill: #2d2d2d;
      }

      .cls-3 {
        fill: #747474;
      }

      .cls-4 {
        fill: #5d5d5d;
      }

      .cls-5 {
        fill: #fff;
      }

      .cls-6 {
        fill: #aaa;
      }

      .cls-7 {
        fill: #e8e8e8;
      }

      .cls-8 {
        fill: #d8d9db;
      }

      .cls-9 {
        fill: #eee;
      }

      .cls-10 {
        fill: #2e2e2e;
      }

      .cls-11 {
        fill: #71747b;
      }

      .cls-12 {
        clip-path: url(#clip-path);
      }

      .cls-13 {
        fill: #45474a;
      }

      .cls-14 {
        clip-path: url(#clip-path-2);
      }

      .cls-15 {
        clip-path: url(#clip-path-3);
      }

      .cls-16, .cls-17, .cls-18 {
        fill-opacity: 0.5;
      }

      .cls-16 {
        fill: url(#linear-gradient);
      }

      .cls-17 {
        fill: url(#linear-gradient-2);
      }

      .cls-18 {
        fill: url(#linear-gradient-3);
      }

      .cls-19 {
        clip-path: url(#clip-path-4);
      }

      .cls-20 {
        fill-opacity: 0.3;
        fill: url(#linear-gradient-4);
      }
    </style>
    <clipPath id="clip-path">
      <polygon class="cls-1" points="130 385.381 20 220.837 130 50.518 130 385.381"/>
    </clipPath>
    <clipPath id="clip-path-2">
      <polygon class="cls-1" points="290 318.986 290 206.403 170 379.608 170 388.268 290 318.986"/>
    </clipPath>
    <clipPath id="clip-path-3">
      <polygon class="cls-1" points="0 333.42 0 223.723 125 405.589 0 333.42"/>
    </clipPath>
    <linearGradient id="linear-gradient" x1="4602.2936" y1="1198.9499" x2="4601.483" y2="1198.9528" gradientTransform="matrix(40, 0, 0, -288.6751, -183925, 346640.0232)" gradientUnits="userSpaceOnUse">
      <stop offset="0.213" stop-opacity="0"/>
      <stop offset="1"/>
    </linearGradient>
    <linearGradient id="linear-gradient-2" x1="4602.2936" y1="1233.7713" x2="4601.483" y2="1233.7743" gradientTransform="matrix(40, 0, 0, -11.547, -183925, 14929.0916)" xlink:href="#linear-gradient"/>
    <linearGradient id="linear-gradient-3" x1="4602.2936" y1="1218.226" x2="4601.483" y2="1218.2289" gradientTransform="matrix(40, 0, 0, -20.2073, -183925, 24995.253)" xlink:href="#linear-gradient"/>
    <clipPath id="clip-path-4">
      <polygon class="cls-1" points="160 125.574 130 126.13 130 353.627 165 353.627 270 191.969 160 21.651 160 125.574"/>
    </clipPath>
    <linearGradient id="linear-gradient-4" x1="4651.7383" y1="1199.2262" x2="4650.9277" y2="1199.2291" gradientTransform="matrix(61, 0, 0, -242.4871, -283570, 291044.0788)" xlink:href="#linear-gradient"/>
  </defs>
  <title>Artboard 10</title>
  <g id="Group">
    <path id="Path" class="cls-2" d="M90,714.4709h80V685.6034H90Z"/>
    <path id="Path-2" data-name="Path" d="M10,668.2829v-57.735l80,46.188V714.471Z"/>
    <path id="Path-3" data-name="Path" class="cls-3" d="M280,650.9624V619.2082L170,682.7167v31.7542Z"/>
    <path id="Path-4" data-name="Path" class="cls-4" d="M170,665.3962H90L0,613.4346l160-92.376,130,75.0555Z"/>
    <g id="Group-2" data-name="Group">
      <path id="Path-5" data-name="Path" class="cls-5" d="M290,619.2081l-5,2.8868v37.5277l5-2.8867Z"/>
      <path id="Path-6" data-name="Path" class="cls-6" d="M280,624.9816l5-2.8867v37.5277l-5-2.8867Z"/>
    </g>
    <g id="Group-3" data-name="Group">
      <path id="Path-7" data-name="Path" class="cls-5" d="M175,685.6035l-5,2.8867V726.018l5-2.8868Z"/>
      <path id="Path-8" data-name="Path" class="cls-6" d="M165,685.6034l5,2.8868V726.018l-5-2.8868Z"/>
    </g>
    <g id="Group-4" data-name="Group">
      <path id="Path-9" data-name="Path" class="cls-5" d="M215,662.51l-5,2.8867V702.924l5-2.8868Z"/>
      <path id="Path-10" data-name="Path" class="cls-6" d="M205,668.283l5-2.8868V702.924l-5-2.8868Z"/>
    </g>
    <g id="Group-5" data-name="Group">
      <path id="Path-11" data-name="Path" class="cls-5" d="M250,642.3022l-5,2.8867v37.5278l5-2.8868Z"/>
      <path id="Path-12" data-name="Path" class="cls-6" d="M240,648.0757l5-2.8868v37.5278l-5-2.8868Z"/>
    </g>
    <path id="Path-13" data-name="Path" class="cls-7" d="M0,333.42l160-92.3761,130,75.0555L130,408.4753Z"/>
    <path id="Path-14" data-name="Path" class="cls-5" d="M170,388.2681V676.9432l120-69.2821V318.986Z"/>
    <path id="Path-15" data-name="Path" class="cls-6" d="M130,408.4753V676.9432L0,601.8877V333.42Z"/>
    <path id="Path-16" data-name="Path" class="cls-8" d="M130,408.4753,0,217.95,130,27.4241Z"/>
    <path id="Path-17" data-name="Path" class="cls-8" d="M160,125.5736H130V382.4945h30L290,191.9689,160,0Z"/>
    <path id="Path-18" data-name="Path" class="cls-9" d="M170,388.2681H130V676.9432h40Z"/>
    <path id="Path-19" data-name="Path" class="cls-5" d="M290,316.0992V191.969L170,368.0608v17.3205Z"/>
    <path id="Path-20" data-name="Path" class="cls-6" d="M0,217.95V333.42l130,75.0555Z"/>
    <path id="Path-21" data-name="Path" class="cls-9" d="M170,388.2681H130V368.0608h40Z"/>
    <path id="Path-22" data-name="Path" class="cls-10" d="M170,379.6078v8.66H135v-8.66Z"/>
    <path id="Path-23" data-name="Path" class="cls-10" d="M170,448.89v8.66H135v-8.66Z"/>
    <path id="Path-24" data-name="Path" class="cls-10" d="M170,518.1717v8.66H135v-8.66Z"/>
    <path id="Path-25" data-name="Path" class="cls-10" d="M170,587.4539v8.66H135v-8.66Z"/>
    <path id="Path-26" data-name="Path" class="cls-10" d="M170,656.7359v8.66H135v-8.66Z"/>
    <path id="Path-27" data-name="Path" class="cls-10" d="M170,414.2488v8.66H135v-8.66Z"/>
    <path id="Path-28" data-name="Path" class="cls-10" d="M170,483.5308v8.66H135v-8.66Z"/>
    <path id="Path-29" data-name="Path" class="cls-10" d="M170,552.8127v8.66H135v-8.66Z"/>
    <path id="Path-30" data-name="Path" class="cls-10" d="M170,622.0949v8.66H135v-8.66Z"/>
    <path id="Path-31" data-name="Path" class="cls-10" d="M170,396.9284v8.66H135v-8.66Z"/>
    <path id="Path-32" data-name="Path" class="cls-10" d="M170,466.21v8.66H135v-8.66Z"/>
    <path id="Path-33" data-name="Path" class="cls-10" d="M170,535.4924v8.66H135v-8.66Z"/>
    <path id="Path-34" data-name="Path" class="cls-10" d="M170,604.7745v8.66H135v-8.66Z"/>
    <path id="Path-35" data-name="Path" class="cls-10" d="M170,431.5694v8.66H135v-8.66Z"/>
    <path id="Path-36" data-name="Path" class="cls-10" d="M170,500.8514v8.66H135v-8.66Z"/>
    <path id="Path-37" data-name="Path" class="cls-10" d="M170,570.1334v8.66H135v-8.66Z"/>
    <path id="Path-38" data-name="Path" class="cls-10" d="M170,639.4155v8.66H135v-8.66Z"/>
    <path id="Mask" class="cls-11" d="M130,385.3813,20,220.8365,130,50.5181Z"/>
    <g class="cls-12">
      <g>
        <path id="Path-39" data-name="Path" class="cls-13" d="M17.5,43.3012l7.5,4.33v337.75l-7.5,4.33Z"/>
        <path id="Path-40" data-name="Path" class="cls-13" d="M32.5,43.3012l7.5,4.33v337.75l-7.5,4.33Z"/>
        <path id="Path-41" data-name="Path" class="cls-13" d="M92.5,43.3012l7.5,4.33v337.75l-7.5,4.33Z"/>
        <path id="Path-42" data-name="Path" class="cls-13" d="M62.5,43.3012l7.5,4.33v337.75l-7.5,4.33Z"/>
        <path id="Path-43" data-name="Path" class="cls-13" d="M122.5,43.3012l7.5,4.33v337.75l-7.5,4.33Z"/>
        <path id="Path-44" data-name="Path" class="cls-13" d="M47.5,43.3012l7.5,4.33v337.75l-7.5,4.33Z"/>
        <path id="Path-45" data-name="Path" class="cls-13" d="M107.5,43.3012l7.5,4.33v337.75l-7.5,4.33Z"/>
        <path id="Path-46" data-name="Path" class="cls-13" d="M77.5,43.3012l7.5,4.33v337.75l-7.5,4.33Z"/>
        <path id="Path-47" data-name="Path" class="cls-11" d="M25,41.8579l7.5,4.33V386.8246l-7.5,4.33Z"/>
        <path id="Path-48" data-name="Path" class="cls-11" d="M85,41.8579l7.5,4.33V386.8246l-7.5,4.33Z"/>
        <path id="Path-49" data-name="Path" class="cls-11" d="M55,41.8579l7.5,4.33V386.8246l-7.5,4.33Z"/>
        <path id="Path-50" data-name="Path" class="cls-11" d="M115,41.8579l7.5,4.33V386.8246l-7.5,4.33Z"/>
        <path id="Path-51" data-name="Path" class="cls-11" d="M40,41.8579l7.5,4.33V386.8246l-7.5,4.33Z"/>
        <path id="Path-52" data-name="Path" class="cls-11" d="M100,41.8579l7.5,4.33V386.8246l-7.5,4.33Z"/>
        <path id="Path-53" data-name="Path" class="cls-11" d="M70,41.8579l7.5,4.33V386.8246l-7.5,4.33Z"/>
      </g>
    </g>
    <path id="Path-54" data-name="Path" class="cls-6" d="M0,610.5478l15,8.66v63.5086l-15-8.66Z"/>
    <path id="Path-55" data-name="Path" class="cls-6" d="M90,665.3962l40,23.094V749.112L90,726.0179Z"/>
    <path id="Path-56" data-name="Path" class="cls-5" d="M15,682.7167l5-2.8868V624.9816l-5-2.8867Z"/>
    <path id="Path-57" data-name="Path" d="M20,679.83l15,2.8868V671.17l-15-11.547Z"/>
    <g id="Group-6" data-name="Group">
      <path id="Path-58" data-name="Path" class="cls-6" d="M27.5,629.3118l5,2.8867V692.82l-5-2.8867Z"/>
      <path id="Path-59" data-name="Path" class="cls-5" d="M37.5,635.0853l-5-2.8868V692.82l5-2.8867Z"/>
    </g>
    <g id="Group-7" data-name="Group">
      <path id="Path-60" data-name="Path" class="cls-6" d="M47.5,640.8587l5,2.8868v60.6219l-5-2.8868Z"/>
      <path id="Path-61" data-name="Path" class="cls-5" d="M57.5,646.6323l-5-2.8868v60.6219l5-2.8868Z"/>
    </g>
    <g id="Group-8" data-name="Group">
      <path id="Path-62" data-name="Path" class="cls-6" d="M67.5,652.4058l5,2.8867v60.6218l-5-2.8867Z"/>
      <path id="Path-63" data-name="Path" class="cls-5" d="M77.5,658.1793l-5-2.8868v60.6218l5-2.8867Z"/>
    </g>
    <path id="Path-64" data-name="Path" class="cls-3" d="M170,414.2488l120-69.282v8.66l-120,69.282Z"/>
    <path id="Path-65" data-name="Path" d="M125,414.2488,0,342.08v8.66l125,72.1687Z"/>
    <path id="Path-66" data-name="Path" class="cls-3" d="M170,535.4923,290,466.21v8.66l-120,69.282Z"/>
    <path id="Path-67" data-name="Path" d="M125,535.4923,0,463.3236v8.66l125,72.1687Z"/>
    <path id="Path-68" data-name="Path" class="cls-3" d="M170,448.89l120-69.282v8.66L170,457.55Z"/>
    <path id="Path-69" data-name="Path" d="M125,448.89,0,376.7211v8.66L125,457.55Z"/>
    <path id="Path-70" data-name="Path" class="cls-3" d="M170,570.1333l120-69.2821v8.66L170,578.7936Z"/>
    <path id="Path-71" data-name="Path" d="M125,570.1333,0,497.9646v8.66l125,72.1687Z"/>
    <path id="Path-72" data-name="Path" d="M125,639.4154,0,567.2466v8.66l125,72.1688Z"/>
    <path id="Path-73" data-name="Path" class="cls-3" d="M170,639.4154l120-69.282v8.66L170,648.0757Z"/>
    <path id="Path-74" data-name="Path" class="cls-3" d="M170,483.5308l120-69.282v8.66L170,492.1911Z"/>
    <path id="Path-75" data-name="Path" d="M125,483.5308,0,411.3621v8.66l125,72.1687Z"/>
    <path id="Path-76" data-name="Path" class="cls-3" d="M170,604.7743l120-69.282v8.66L170,613.4346Z"/>
    <path id="Path-77" data-name="Path" d="M125,604.7743,0,532.6056v8.66l125,72.1687Z"/>
    <path id="Path-78" data-name="Path" class="cls-3" d="M170,431.5693l120-69.282v8.66L170,440.23Z"/>
    <path id="Path-79" data-name="Path" d="M125,431.5693,0,359.4006v8.66L125,440.23Z"/>
    <path id="Path-80" data-name="Path" class="cls-3" d="M170,552.8128l120-69.282v8.66l-120,69.282Z"/>
    <path id="Path-81" data-name="Path" d="M125,552.8128,0,480.6441v8.66l125,72.1687Z"/>
    <path id="Path-82" data-name="Path" class="cls-3" d="M170,466.21l120-69.282v8.66L170,474.8706Z"/>
    <path id="Path-83" data-name="Path" d="M125,466.21,0,394.0416v8.66l125,72.1687Z"/>
    <path id="Path-84" data-name="Path" class="cls-3" d="M170,587.4538l120-69.2821v8.66L170,596.1141Z"/>
    <path id="Path-85" data-name="Path" d="M125,587.4538,0,515.2851v8.66l125,72.1687Z"/>
    <path id="Path-86" data-name="Path" d="M125,656.7359,0,584.5671v8.66l125,72.1688Z"/>
    <path id="Path-87" data-name="Path" class="cls-3" d="M170,656.7359l120-69.282v8.66L170,665.3962Z"/>
    <path id="Path-88" data-name="Path" class="cls-3" d="M170,500.8513l120-69.282v8.66L170,509.5116Z"/>
    <path id="Path-89" data-name="Path" d="M125,500.8513,0,428.6826v8.66l125,72.1687Z"/>
    <path id="Path-90" data-name="Path" class="cls-3" d="M170,622.0948l120-69.282v8.66L170,630.7551Z"/>
    <path id="Path-91" data-name="Path" d="M125,622.0948,0,549.926v8.66l125,72.1688Z"/>
    <path id="Path-92" data-name="Path" class="cls-3" d="M170,396.9284l120-69.2821v8.66L170,405.5887Z"/>
    <path id="Path-93" data-name="Path" class="cls-3" d="M170,518.1719,290,448.89v8.66l-120,69.282Z"/>
    <path id="Path-94" data-name="Path" d="M125,518.1719,0,446.0032v8.66l125,72.1687Z"/>
    <path id="Mask-2" data-name="Mask" class="cls-5" d="M290,318.986V206.4027L170,379.6078v8.66Z"/>
    <g class="cls-14">
      <g id="Group-9" data-name="Group">
        <path id="Path-95" data-name="Path" class="cls-3" d="M170,275.6848l120-69.2821v8.66L170,284.345Z"/>
        <path id="Path-96" data-name="Path" class="cls-3" d="M170,310.3257l120-69.282v8.66L170,318.986Z"/>
        <path id="Path-97" data-name="Path" class="cls-3" d="M170,344.9667l120-69.282v8.66L170,353.627Z"/>
        <path id="Path-98" data-name="Path" class="cls-3" d="M170,379.6078l120-69.282v8.66l-120,69.282Z"/>
        <path id="Path-99" data-name="Path" class="cls-3" d="M170,293.0053l120-69.2821v8.66l-120,69.282Z"/>
        <path id="Path-100" data-name="Path" class="cls-3" d="M170,327.6462l120-69.282v8.66l-120,69.282Z"/>
        <path id="Path-101" data-name="Path" class="cls-3" d="M170,362.2872l120-69.282v8.66l-120,69.282Z"/>
      </g>
    </g>
    <path id="Path-102" data-name="Path" class="cls-5" d="M170,688.49l120-69.2821v-11.547L170,676.9432Z"/>
    <path id="Path-103" data-name="Path" class="cls-6" d="M0,601.8876l130,75.0556v25.9807L0,627.8684Z"/>
    <path id="Path-104" data-name="Path" class="cls-9" d="M170,676.9432V688.49H130v-11.547Z"/>
    <g class="cls-15">
      <g id="Group-10" data-name="Group">
        <path id="Path-105" data-name="Path" d="M120,324.76,0,255.4775v8.66L120,333.42Z"/>
        <g id="Group-11" data-name="Group">
          <path id="Path-106" data-name="Path" d="M125,293.0054,0,220.8365v8.66l125,72.169Z"/>
          <path id="Path-107" data-name="Path" d="M125,362.2873,0,290.1185v8.66l125,72.1688Z"/>
          <path id="Path-108" data-name="Path" d="M125,396.9283,0,324.76v8.66l125,72.1688Z"/>
          <path id="Path-109" data-name="Path" d="M125,344.9669,0,272.798v8.66l125,72.1688Z"/>
          <path id="Path-110" data-name="Path" d="M125,310.3259,0,238.157v8.66l125,72.169Z"/>
          <path id="Path-111" data-name="Path" d="M125,379.6078,0,307.439v8.66l125,72.1688Z"/>
        </g>
      </g>
    </g>
    <path id="Path-112" data-name="Path" class="cls-16" d="M130,388.268h40V676.9432H130Z"/>
    <path id="Path-113" data-name="Path" class="cls-17" d="M130,676.9432h40V688.49H130Z"/>
    <path id="Path-114" data-name="Path" class="cls-18" d="M130,368.0608h40V388.268H130Z"/>
    <path id="Mask-3" data-name="Mask" class="cls-11" d="M160,125.5736l-30,.5567V353.627h35L270,191.9689,160,21.6506Z"/>
    <g class="cls-19">
      <g>
        <path id="Path-115" data-name="Path" class="cls-13" d="M152.5,14.4337l7.5,4.33v337.75l-7.5,4.33Z"/>
        <path id="Path-116" data-name="Path" class="cls-13" d="M212.5,14.4337l7.5,4.33v337.75l-7.5,4.33Z"/>
        <path id="Path-117" data-name="Path" class="cls-13" d="M182.5,14.4337l7.5,4.33v337.75l-7.5,4.33Z"/>
        <path id="Path-118" data-name="Path" class="cls-13" d="M242.5,14.4337l7.5,4.33v337.75l-7.5,4.33Z"/>
        <path id="Path-119" data-name="Path" class="cls-13" d="M167.5,14.4337l7.5,4.33v337.75l-7.5,4.33Z"/>
        <path id="Path-120" data-name="Path" class="cls-13" d="M227.5,14.4337l7.5,4.33v337.75l-7.5,4.33Z"/>
        <path id="Path-121" data-name="Path" class="cls-13" d="M197.5,14.4337l7.5,4.33v337.75l-7.5,4.33Z"/>
        <path id="Path-122" data-name="Path" class="cls-13" d="M137.5,43.3012l7.5,4.33v337.75l-7.5,4.33Z"/>
        <path id="Path-123" data-name="Path" class="cls-13" d="M257.5,14.4337l7.5,4.33v337.75l-7.5,4.33Z"/>
        <path id="Path-124" data-name="Path" class="cls-11" d="M145,12.99l7.5,4.33V357.9572l-7.5,4.33Z"/>
        <path id="Path-125" data-name="Path" class="cls-11" d="M205,12.99l7.5,4.33V357.9572l-7.5,4.33Z"/>
        <path id="Path-126" data-name="Path" class="cls-11" d="M175,12.99l7.5,4.33V357.9572l-7.5,4.33Z"/>
        <path id="Path-127" data-name="Path" class="cls-11" d="M235,12.99l7.5,4.33V357.9572l-7.5,4.33Z"/>
        <path id="Path-128" data-name="Path" class="cls-11" d="M160,12.99l7.5,4.33V357.9572l-7.5,4.33Z"/>
        <path id="Path-129" data-name="Path" class="cls-11" d="M220,12.99l7.5,4.33V357.9572l-7.5,4.33Z"/>
        <path id="Path-130" data-name="Path" class="cls-11" d="M190,12.99l7.5,4.33V357.9572l-7.5,4.33Z"/>
        <path id="Path-131" data-name="Path" class="cls-11" d="M130,41.8578l7.5,4.33V386.8246l-7.5,4.33Z"/>
        <path id="Path-132" data-name="Path" class="cls-11" d="M265,12.99l7.5,4.33V357.9572l-7.5,4.33Z"/>
        <path id="Path-133" data-name="Path" class="cls-11" d="M250,12.99l7.5,4.33V357.9572l-7.5,4.33Z"/>
      </g>
    </g>
    <path id="Path-134" data-name="Path" class="cls-20" d="M130,125.5737h61V368.0608H130Z"/>
  </g>
</svg>
