<svg id="Layer_1" data-name="Layer 1" xmlns="http://www.w3.org/2000/svg" xmlns:xlink="http://www.w3.org/1999/xlink" viewBox="0 0 371.6842 929.8986">
  <defs>
    <style>
      .cls-1 {
        fill: none;
      }

      .cls-2 {
        fill: #5d5d5d;
      }

      .cls-3 {
        fill: #8b8b8b;
      }

      .cls-4 {
        fill: #e8e8e8;
      }

      .cls-5 {
        fill: #d1d1d1;
      }

      .cls-6 {
        fill: #fff;
      }

      .cls-7 {
        clip-path: url(#clip-path);
      }

      .cls-8 {
        fill: #fbfbfb;
      }

      .cls-9 {
        fill: #747474;
      }

      .cls-10 {
        clip-path: url(#clip-path-2);
      }
    </style>
    <clipPath id="clip-path">
      <polygon class="cls-1" points="193.351 823.686 193.351 277.452 230.895 255.776 328.509 745.653 193.351 823.686"/>
    </clipPath>
    <clipPath id="clip-path-2">
      <polygon class="cls-1" points="178.333 823.686 178.333 277.452 140.789 255.776 43.175 745.653 178.333 823.686"/>
    </clipPath>
  </defs>
  <title>Artboard 14</title>
  <g id="Group">
    <g id="Group-2" data-name="Group">
      <path id="Path" d="M43.1755,773.8316l18.7719,56.3575L185.8421,901.72V856.2Z"/>
      <path id="Path-2" data-name="Path" class="cls-2" d="M328.5088,773.8316l-18.772,56.3575L185.8421,901.72V856.2Z"/>
      <path id="Path-3" data-name="Path" class="cls-3" d="M328.5088,773.8317,321,769.4964v73.6983l7.5088,4.3352Z"/>
      <path id="Path-4" data-name="Path" class="cls-4" d="M43.1754,773.8316l7.5088-4.3352v73.6982L43.1754,847.53Z"/>
      <path id="Path-5" data-name="Path" class="cls-3" d="M364.1754,800.9266l-7.5087-4.3353v26.0111l7.5087,4.3353Z"/>
      <path id="Path-6" data-name="Path" class="cls-4" d="M7.5088,800.9265l7.5087-4.3352v26.0111l-7.5087,4.3352Z"/>
      <path id="Path-7" data-name="Path" class="cls-3" d="M257.1754,815.0159l-7.5088-4.3352v73.6982l7.5088,4.3353Z"/>
      <path id="Path-8" data-name="Path" class="cls-4" d="M114.5088,815.0159l7.5088-4.3353v73.6983l-7.5088,4.3352Z"/>
      <path id="Path-9" data-name="Path" class="cls-3" d="M292.8421,794.4237l-7.5088-4.3352v73.6983l7.5088,4.3352Z"/>
      <path id="Path-10" data-name="Path" class="cls-4" d="M78.8421,794.4237l7.5088-4.3353v73.6983l-7.5088,4.3352Z"/>
      <path id="Path-11" data-name="Path" class="cls-3" d="M221.5088,835.6081,214,831.2729v73.6982l7.5088,4.3353Z"/>
      <path id="Path-12" data-name="Path" class="cls-4" d="M150.1754,835.6081l7.5088-4.3353v73.6983l-7.5088,4.3352Z"/>
      <path id="Path-13" data-name="Path" class="cls-5" d="M35.6667,749.9881l150.1754-86.7039,150.1754,86.7039L185.8421,836.6919Z"/>
      <path id="Path-14" data-name="Path" class="cls-4" d="M185.8421,836.6918V856.2l150.1754-86.7038V749.9881Z"/>
      <path id="Path-15" data-name="Path" class="cls-4" d="M185.8421,897.3846v6.5027l185.8421-107.296v-6.5027Z"/>
      <path id="Path-16" data-name="Path" class="cls-3" d="M185.8421,897.3845v6.5027L0,796.5913v-6.5027Z"/>
      <path id="Path-17" data-name="Path" class="cls-3" d="M185.8421,836.6918V856.2L35.6667,769.4964V749.9881Z"/>
      <path id="Path-18" data-name="Path" class="cls-2" d="M193.3509,838.86v6.5028l28.1579-16.257v-6.5028Z"/>
      <path id="Path-19" data-name="Path" d="M178.3333,838.86v6.5028l-28.1579-16.257v-6.5028Z"/>
      <path id="Path-20" data-name="Path" class="cls-2" d="M264.6842,797.6752v6.5028l28.1579-16.257v-6.5028Z"/>
      <path id="Path-21" data-name="Path" d="M107,797.6752v6.5028L78.8421,787.921v-6.5028Z"/>
      <path id="Path-22" data-name="Path" class="cls-2" d="M229.0175,818.2674V824.77l28.1579-16.257V802.01Z"/>
      <path id="Path-23" data-name="Path" d="M142.6667,818.2674V824.77l-28.1579-16.257V802.01Z"/>
      <path id="Path-24" data-name="Path" class="cls-2" d="M300.3509,777.0831v6.5027l28.1578-16.257v-6.5027Z"/>
      <path id="Path-25" data-name="Path" d="M71.3333,777.0831v6.5027l-28.1578-16.257v-6.5027Z"/>
      <path id="Path-26" data-name="Path" class="cls-4" d="M221.5088,835.6081l7.5087-4.3352v73.6982l-7.5087,4.3353Z"/>
      <path id="Path-27" data-name="Path" class="cls-3" d="M150.1754,835.6081l-7.5087-4.3353v73.6983l7.5087,4.3352Z"/>
      <path id="Path-28" data-name="Path" class="cls-4" d="M257.1754,815.016l7.5088-4.3353V884.379l-7.5088,4.3352Z"/>
      <path id="Path-29" data-name="Path" class="cls-3" d="M114.5088,815.0159,107,810.6807v73.6982l7.5088,4.3352Z"/>
      <path id="Path-30" data-name="Path" class="cls-4" d="M292.8421,794.4237l7.5088-4.3352v73.6983l-7.5088,4.3352Z"/>
      <path id="Path-31" data-name="Path" class="cls-3" d="M78.8421,794.4237l-7.5088-4.3353v73.6983l7.5088,4.3352Z"/>
      <path id="Path-32" data-name="Path" class="cls-4" d="M328.5087,773.8317l7.5088-4.3353v73.6983l-7.5088,4.3352Z"/>
      <path id="Path-33" data-name="Path" class="cls-3" d="M43.1755,773.8316l-7.5088-4.3352v73.6982l7.5088,4.3352Z"/>
      <path id="Path-34" data-name="Path" class="cls-4" d="M364.1754,800.9266l7.5088-4.3353v26.0111l-7.5088,4.3353Z"/>
      <path id="Path-35" data-name="Path" class="cls-3" d="M7.5088,800.9265,0,796.5913v26.0111l7.5088,4.3352Z"/>
      <path id="Path-36" data-name="Path" class="cls-4" d="M185.8421,856.2l7.5088-4.3353v73.6984l-7.5088,4.3352Z"/>
      <path id="Path-37" data-name="Path" class="cls-4" d="M336.0175,769.4965l35.6667,20.5921-7.5088,4.3351-35.6666-20.5921Z"/>
      <path id="Path-38" data-name="Path" class="cls-3" d="M35.6667,769.4964,0,790.0885l7.5088,4.3352,35.6666-20.5921Z"/>
      <path id="Path-39" data-name="Path" class="cls-4" d="M300.3509,790.0886l35.6666,20.5921-7.5087,4.3352-35.6667-20.5921Z"/>
      <path id="Path-40" data-name="Path" class="cls-3" d="M71.3333,790.0885,35.6667,810.6807l7.5087,4.3351,35.6667-20.5921Z"/>
      <path id="Path-41" data-name="Path" class="cls-4" d="M264.6842,810.6808l35.6667,20.5921-7.5088,4.3351-35.6667-20.5921Z"/>
      <path id="Path-42" data-name="Path" class="cls-3" d="M107,810.6807,71.3333,831.2728l7.5088,4.3351,35.6667-20.5921Z"/>
      <path id="Path-43" data-name="Path" class="cls-4" d="M229.0175,831.273l35.6667,20.5921L257.1754,856.2l-35.6666-20.5921Z"/>
      <path id="Path-44" data-name="Path" class="cls-3" d="M142.6667,831.2729,107,851.865l7.5088,4.3352,35.6666-20.5921Z"/>
      <path id="Path-45" data-name="Path" class="cls-4" d="M193.3509,851.8651l35.6666,20.5921-7.5087,4.3352L185.8421,856.2Z"/>
      <path id="Path-46" data-name="Path" class="cls-3" d="M178.3333,851.8651l-35.6666,20.5921,7.5087,4.3351L185.8421,856.2Z"/>
      <path id="Path-47" data-name="Path" class="cls-6" d="M193.3509,893.0493l28.1579-16.257L214,872.4572l-20.6491,11.9217Z"/>
      <path id="Path-48" data-name="Path" class="cls-6" d="M178.3333,893.0492l-28.1579-16.2569,7.5088-4.3352,20.6491,11.9218Z"/>
      <path id="Path-49" data-name="Path" class="cls-6" d="M264.6842,851.8649l28.1579-16.257-7.5088-4.3351-20.6491,11.9217Z"/>
      <path id="Path-50" data-name="Path" class="cls-6" d="M107,851.8648,78.8421,835.6079l7.5088-4.3352L107,843.1945Z"/>
      <path id="Path-51" data-name="Path" class="cls-6" d="M229.0175,872.4573,257.1754,856.2l-7.5087-4.3351-20.6492,11.9217Z"/>
      <path id="Path-52" data-name="Path" class="cls-6" d="M142.6667,872.4572,114.5088,856.2l7.5087-4.3351,20.6492,11.9217Z"/>
      <path id="Path-53" data-name="Path" class="cls-6" d="M300.3509,831.2729l28.1579-16.257L321,810.6808l-20.6491,11.9217Z"/>
      <path id="Path-54" data-name="Path" class="cls-6" d="M71.3333,831.2728l-28.1579-16.257,7.5088-4.3351,20.6491,11.9217Z"/>
      <path id="Path-55" data-name="Path" class="cls-6" d="M336.0175,810.6807l28.1579-16.257-7.5087-4.3351L336.0175,802.01Z"/>
      <path id="Path-56" data-name="Path" class="cls-6" d="M35.6667,810.6806,7.5088,794.4237l7.5087-4.3352L35.6667,802.01Z"/>
      <path id="Path-57" data-name="Path" class="cls-3" d="M185.8421,856.2l-7.5087-4.3352v73.6982l7.5087,4.3353Z"/>
    </g>
    <g id="Group-3" data-name="Group">
      <path id="Path-58" data-name="Path" class="cls-3" d="M99.4912,231.9327V440.0219l37.5439-186.4132Z"/>
      <path id="Path-59" data-name="Path" class="cls-4" d="M99.4912,231.9327l45.0527,26.0111,30.035-17.3407L129.5263,214.592Z"/>
      <path id="Path-60" data-name="Path" class="cls-3" d="M148.2982,255.7763v-8.67L110.7544,234.1Z"/>
      <path id="Path-61" data-name="Path" class="cls-4" d="M133.2807,221.0948,170.8246,234.1l-22.5264,13.0055L110.7544,234.1Z"/>
      <path id="Path-62" data-name="Path" class="cls-4" d="M185.8421,836.6919V281.7874l52.5614-30.3463,97.614,498.547Z"/>
      <path id="Path-63" data-name="Path" class="cls-3" d="M185.8421,836.6919V281.7874l-52.5614-30.3463-97.614,498.547Z"/>
      <path id="Path-64" data-name="Path" class="cls-5" d="M185.8421,281.7874l52.5614-30.3463-52.5614-30.3464-52.5614,30.3464Z"/>
      <path id="Path-65" data-name="Path" class="cls-4" d="M185.8421,8.67l7.5088-4.3352,45.0526,247.1059-52.5614,30.3463Z"/>
      <path id="Path-66" data-name="Path" class="cls-3" d="M133.2807,251.4411l52.5614,30.3463V8.67l-7.5088-4.3352Z"/>
      <g class="cls-7">
        <g id="Group-4" data-name="Group">
          <path id="Path-67" data-name="Path" class="cls-2" d="M336.0175,732.6473v8.67l-153.93,88.8714v-8.67Z"/>
          <path id="Path-68" data-name="Path" class="cls-2" d="M336.0175,663.2842v8.67l-153.93,88.8714v-8.67Z"/>
          <path id="Path-69" data-name="Path" class="cls-2" d="M336.0175,593.9212v8.67l-153.93,88.8715v-8.67Z"/>
          <path id="Path-70" data-name="Path" class="cls-2" d="M336.0175,524.5581v8.67L182.0877,622.1v-8.6705Z"/>
          <path id="Path-71" data-name="Path" class="cls-2" d="M336.0175,455.1951v8.67l-153.93,88.8715v-8.67Z"/>
          <path id="Path-72" data-name="Path" class="cls-2" d="M336.0175,385.832v8.67l-153.93,88.8714v-8.6705Z"/>
          <path id="Path-73" data-name="Path" class="cls-2" d="M336.0175,316.4689v8.67l-153.93,88.8714v-8.67Z"/>
          <path id="Path-74" data-name="Path" class="cls-2" d="M336.0175,247.1059v8.67l-153.93,88.8714v-8.6705Z"/>
          <path id="Path-75" data-name="Path" class="cls-2" d="M336.0175,697.9658v8.67l-153.93,88.8714v-8.6705Z"/>
          <path id="Path-76" data-name="Path" class="cls-2" d="M336.0175,628.6027v8.67l-153.93,88.8714v-8.67Z"/>
          <path id="Path-77" data-name="Path" class="cls-2" d="M336.0175,559.24v8.67l-153.93,88.8714v-8.67Z"/>
          <path id="Path-78" data-name="Path" class="cls-2" d="M336.0175,489.8766v8.67l-153.93,88.8714v-8.6705Z"/>
          <path id="Path-79" data-name="Path" class="cls-2" d="M336.0175,420.5135v8.67l-153.93,88.8714v-8.67Z"/>
          <path id="Path-80" data-name="Path" class="cls-2" d="M336.0175,351.1505v8.67l-153.93,88.8715v-8.6705Z"/>
          <path id="Path-81" data-name="Path" class="cls-2" d="M336.0175,281.7874v8.67l-153.93,88.8714v-8.6705Z"/>
          <path id="Path-82" data-name="Path" class="cls-2" d="M336.0175,212.4244v8.67l-153.93,88.8715v-8.6705Z"/>
          <path id="Path-83" data-name="Path" class="cls-2" d="M336.0175,715.3065v8.67l-153.93,88.8714v-8.67Z"/>
          <path id="Path-84" data-name="Path" class="cls-2" d="M336.0175,645.9435v8.67l-153.93,88.8715v-8.6705Z"/>
          <path id="Path-85" data-name="Path" class="cls-2" d="M336.0175,576.58v8.67l-153.93,88.8714v-8.6705Z"/>
          <path id="Path-86" data-name="Path" class="cls-2" d="M336.0175,507.2173v8.67l-153.93,88.8714v-8.67Z"/>
          <path id="Path-87" data-name="Path" class="cls-2" d="M336.0175,437.8543v8.67l-153.93,88.8714v-8.6705Z"/>
          <path id="Path-88" data-name="Path" class="cls-2" d="M336.0175,368.4912v8.67l-153.93,88.8714v-8.67Z"/>
          <path id="Path-89" data-name="Path" class="cls-2" d="M336.0175,299.1282v8.67L182.0877,396.67V388Z"/>
          <path id="Path-90" data-name="Path" class="cls-2" d="M336.0175,229.7651v8.67l-153.93,88.8714v-8.67Z"/>
          <path id="Path-91" data-name="Path" class="cls-2" d="M336.0175,680.625v8.67l-153.93,88.8714v-8.67Z"/>
          <path id="Path-92" data-name="Path" class="cls-2" d="M336.0175,611.2619v8.67l-153.93,88.8714v-8.67Z"/>
          <path id="Path-93" data-name="Path" class="cls-2" d="M336.0175,541.8989v8.67l-153.93,88.8714v-8.67Z"/>
          <path id="Path-94" data-name="Path" class="cls-2" d="M336.0175,472.5358v8.67l-153.93,88.8714v-8.67Z"/>
          <path id="Path-95" data-name="Path" class="cls-2" d="M336.0175,403.1728v8.67l-153.93,88.8715v-8.6705Z"/>
          <path id="Path-96" data-name="Path" class="cls-2" d="M336.0175,333.81v8.67l-153.93,88.8714V422.681Z"/>
          <path id="Path-97" data-name="Path" class="cls-2" d="M336.0175,264.4466v8.67l-153.93,88.8714v-8.67Z"/>
          <path id="Path-98" data-name="Path" class="cls-2" d="M336.0175,195.0836v8.67l-153.93,88.8714v-8.6705Z"/>
        </g>
      </g>
      <path id="Path-99" data-name="Path" class="cls-8" d="M197.1053,288.29l45.0526,26.0111,30.0351-17.3407L227.14,270.9494Z"/>
      <path id="Path-100" data-name="Path" class="cls-3" d="M242.1579,314.3013V596.0888L197.1053,288.29Z"/>
      <path id="Path-101" data-name="Path" class="cls-4" d="M242.1579,596.0887,272.193,578.748V296.9606l-30.0351,17.3407Z"/>
      <path id="Path-102" data-name="Path" class="cls-3" d="M238.4035,307.7986,200.86,273.117v13.0056Z"/>
      <path id="Path-103" data-name="Path" class="cls-8" d="M223.386,260.1115,260.93,294.793l-22.5263,13.0056L200.86,273.117Z"/>
      <path id="Path-104" data-name="Path" class="cls-5" d="M193.3509,268.7818l37.5438-21.6759L193.3509,56.3575Z"/>
      <path id="Path-105" data-name="Path" class="cls-9" d="M178.3333,268.7818,140.79,247.1059,178.3333,56.3575Z"/>
      <path id="Path-106" data-name="Path" class="cls-3" d="M230.8947,247.1059l-11.2631-6.5028L193.3509,104.0446V56.3575Z"/>
      <path id="Path-107" data-name="Path" class="cls-4" d="M140.79,247.1059l11.2631-6.5028,26.2807-136.5585V56.3575Z"/>
      <path id="Path-108" data-name="Path" class="cls-8" d="M219.6316,240.6031l-26.2807,15.1732v13.0055l37.5438-21.6759Z"/>
      <path id="Path-109" data-name="Path" class="cls-5" d="M152.0526,240.6031l26.2807,15.1732v13.0055L140.79,247.1059Z"/>
      <g class="cls-10">
        <g id="Group-5" data-name="Group">
          <path id="Path-110" data-name="Path" d="M35.6667,732.6473v8.67l153.93,88.8714v-8.67Z"/>
          <path id="Path-111" data-name="Path" d="M35.6667,663.2842v8.67l153.93,88.8714v-8.67Z"/>
          <path id="Path-112" data-name="Path" d="M35.6667,593.9212v8.67l153.93,88.8715v-8.67Z"/>
          <path id="Path-113" data-name="Path" d="M35.6667,524.5581v8.67L189.5965,622.1v-8.6705Z"/>
          <path id="Path-114" data-name="Path" d="M35.6667,455.1951v8.67l153.93,88.8715v-8.67Z"/>
          <path id="Path-115" data-name="Path" d="M35.6667,385.832v8.67l153.93,88.8714v-8.6705Z"/>
          <path id="Path-116" data-name="Path" d="M35.6667,316.4689v8.67l153.93,88.8714v-8.67Z"/>
          <path id="Path-117" data-name="Path" d="M35.6667,247.1059v8.67l153.93,88.8714v-8.6705Z"/>
          <path id="Path-118" data-name="Path" d="M35.6667,697.9658v8.67l153.93,88.8714v-8.6705Z"/>
          <path id="Path-119" data-name="Path" d="M35.6667,628.6027v8.67l153.93,88.8714v-8.67Z"/>
          <path id="Path-120" data-name="Path" d="M35.6667,559.24v8.67l153.93,88.8714v-8.67Z"/>
          <path id="Path-121" data-name="Path" d="M35.6667,489.8766v8.67l153.93,88.8714v-8.6705Z"/>
          <path id="Path-122" data-name="Path" d="M35.6667,420.5135v8.67l153.93,88.8714v-8.67Z"/>
          <path id="Path-123" data-name="Path" d="M35.6667,351.1505v8.67l153.93,88.8715v-8.6705Z"/>
          <path id="Path-124" data-name="Path" d="M35.6667,281.7874v8.67l153.93,88.8714v-8.6705Z"/>
          <path id="Path-125" data-name="Path" d="M35.6667,212.4244v8.67l153.93,88.8715v-8.6705Z"/>
          <path id="Path-126" data-name="Path" d="M35.6667,715.3065v8.67l153.93,88.8714v-8.67Z"/>
          <path id="Path-127" data-name="Path" d="M35.6667,645.9435v8.67l153.93,88.8715v-8.6705Z"/>
          <path id="Path-128" data-name="Path" d="M35.6667,576.58v8.67l153.93,88.8714v-8.6705Z"/>
          <path id="Path-129" data-name="Path" d="M35.6667,507.2173v8.67l153.93,88.8714v-8.67Z"/>
          <path id="Path-130" data-name="Path" d="M35.6667,437.8543v8.67l153.93,88.8714v-8.6705Z"/>
          <path id="Path-131" data-name="Path" d="M35.6667,368.4912v8.67l153.93,88.8714v-8.67Z"/>
          <path id="Path-132" data-name="Path" d="M35.6667,299.1282v8.67l153.93,88.8714V388Z"/>
          <path id="Path-133" data-name="Path" d="M35.6667,229.7651v8.67l153.93,88.8714v-8.67Z"/>
          <path id="Path-134" data-name="Path" d="M35.6667,680.625v8.67l153.93,88.8714v-8.67Z"/>
          <path id="Path-135" data-name="Path" d="M35.6667,611.2619v8.67l153.93,88.8714v-8.67Z"/>
          <path id="Path-136" data-name="Path" d="M35.6667,541.8989v8.67l153.93,88.8714v-8.67Z"/>
          <path id="Path-137" data-name="Path" d="M35.6667,472.5358v8.67l153.93,88.8714v-8.67Z"/>
          <path id="Path-138" data-name="Path" d="M35.6667,403.1728v8.67l153.93,88.8715v-8.6705Z"/>
          <path id="Path-139" data-name="Path" d="M35.6667,333.81v8.67l153.93,88.8714V422.681Z"/>
          <path id="Path-140" data-name="Path" d="M35.6667,264.4467v8.67l153.93,88.8714v-8.67Z"/>
          <path id="Path-141" data-name="Path" d="M35.6667,195.0836v8.67l153.93,88.8714v-8.6705Z"/>
        </g>
      </g>
    </g>
    <path id="Path-142" data-name="Path" class="cls-6" d="M178.3333,4.3352,185.8421,0l7.5088,4.3352L185.8421,8.67Z"/>
  </g>
</svg>
