<svg id="Layer_1" data-name="Layer 1" xmlns="http://www.w3.org/2000/svg" viewBox="0 0 360 254.03">
  <defs>
    <style>
      .concrete-top {
        fill: #e8e8e8;
      }

      .concrete-right {
        fill: #d2d2d1;
      }

      .concrete-left {
        fill: #a2a1a1;
      }

      .curtain-L-prim-light {
        fill: #196273;
      }

      .curtain-R-prim-light {
        fill: #2b95ac;
      }

      .exterior-R-prim {
        fill: #d15752;
      }

      .exterior-L-prim {
        fill: #73302f;
      }

      .curtain-R-prim-dark {
        fill: #21788c;
      }

      .cls-1 {
        fill: #cfe6ea;
      }

      .curtain-L-prim-dark {
        fill: #11424d;
      }

      .cls-2 {
        fill: #c5dee3;
      }

      .top-prim {
        fill: #dd8987;
      }

      .cls-3 {
        fill: #696258;
      }

      .cls-4 {
        fill: #74bc8a;
      }

      .cls-5 {
        fill: #474747;
      }

      .cls-6 {
        fill: #8b8b8b;
      }
    </style>
  </defs>
  <title>Artboard 11</title>
  <g id="Group">
    <path id="Path" class="concrete-top" d="M155,251.15,360,132.79,205,43.3,0,161.66Z"/>
    <path id="Path-2" data-name="Path" class="concrete-right" d="M360,135.68,155,254.03v-2.88L360,132.79Z"/>
    <path id="Path-3" data-name="Path" class="concrete-left" d="M0,161.66v2.88l155,89.49v-2.88Z"/>
    <path id="Path-4" data-name="Path" class="curtain-L-prim-light" d="M125,155.88,57.5,116.91v49.08L125,204.96Z"/>
    <path id="Path-5" data-name="Path" class="curtain-R-prim-light" d="M292.5,122.69,155,202.07V167.43L292.5,88.04Z"/>
    <g id="Group-2" data-name="Group">
      <path id="Path-6" data-name="Path" class="exterior-R-prim" d="M307.5,137.12l7.5-4.33V75.05l-7.5,4.33Z"/>
      <path id="Path-7" data-name="Path" class="exterior-L-prim" d="M307.5,137.12l-20-11.55V67.84l20,11.54Z"/>
    </g>
    <path id="Path-8" data-name="Path" class="curtain-R-prim-dark" d="M287.5,125.57l-5,2.89V93.82l5-2.89Z"/>
    <path id="Path-9" data-name="Path" class="curtain-R-prim-dark" d="M232.5,157.33l-10,5.77V128.46l10-5.77Z"/>
    <path id="Path-10" data-name="Path" class="cls-1" d="M252.5,145.78l-10,5.77V116.91l10-5.77Z"/>
    <path id="Path-11" data-name="Path" class="curtain-R-prim-dark" d="M192.5,180.42l-10,5.77V151.55l10-5.77Z"/>
    <path id="Path-12" data-name="Path" class="curtain-L-prim-dark" d="M57.5,165.99l10,5.77V122.69l-10-5.78Z"/>
    <path id="Path-13" data-name="Path" class="curtain-L-prim-dark" d="M97.5,189.08l10,5.77V145.78l-10-5.77Z"/>
    <path id="Path-14" data-name="Path" class="curtain-L-prim-dark" d="M117.5,200.63l10,5.77V157.33l-10-5.78Z"/>
    <path id="Path-15" data-name="Path" class="curtain-R-prim-dark" d="M152.5,200.63l2.5,1.44V173.2l-2.5-1.44Z"/>
    <path id="Path-16" data-name="Path" class="curtain-R-prim-dark" d="M272.5,134.23l-10,5.78V105.36l10-5.77Z"/>
    <path id="Path-17" data-name="Path" class="cls-1" d="M212.5,168.87l-10,5.78V140.01l10-5.78Z"/>
    <path id="Path-18" data-name="Path" class="curtain-R-prim-dark" d="M172.5,191.97l-10,5.77V163.1l10-5.77Z"/>
    <path id="Path-19" data-name="Path" class="curtain-L-prim-dark" d="M77.5,177.53l10,5.78V134.23l-10-5.77Z"/>
    <path id="Path-20" data-name="Path" class="cls-2" d="M127.5,186.19l10,5.78V157.33l-10-5.78Z"/>
    <g id="Group-3" data-name="Group">
      <path id="Path-21" data-name="Path" class="exterior-R-prim" d="M257.5,157.33,265,153V103.92l-7.5,4.33Z"/>
      <path id="Path-22" data-name="Path" class="exterior-L-prim" d="M257.5,157.33l-20-11.55V122.69l20-11.55Z"/>
    </g>
    <path id="Path-23" data-name="Path" class="exterior-R-prim" d="M132.5,215.06l20-11.55V165.99l-20-11.55Z"/>
    <path id="Path-24" data-name="Path" class="exterior-L-prim" d="M132.5,215.06l-7.5-4.33V149.39l7.5,4.33Z"/>
    <g id="Group-4" data-name="Group">
      <path id="Path-25" data-name="Path" class="exterior-R-prim" d="M52.5,168.87l5-2.88V111.14l-5-2.89Z"/>
      <path id="Path-26" data-name="Path" class="exterior-L-prim" d="M52.5,168.87,45,164.54V103.92l7.5,4.33Z"/>
    </g>
    <path id="Path-27" data-name="Path" class="exterior-L-prim" d="M45,109.69V92.37l110,63.51V173.2Z"/>
    <path id="Path-28" data-name="Path" class="exterior-R-prim" d="M205,187.64v8.66l60-34.64V153Z"/>
    <path id="Path-29" data-name="Path" class="exterior-R-prim" d="M152.5,217.95v8.66l20-11.55V206.4Z"/>
    <path id="Path-30" data-name="Path" class="top-prim" d="M257.5,157.33l-45,25.98-20-11.55,45-25.98Z"/>
    <path id="Path-31" data-name="Path" class="top-prim" d="M172.5,206.4l-20,11.55-20-11.55,20-11.55Z"/>
    <path id="Path-32" data-name="Path" class="cls-3" d="M238.37,149.17l13.26,7.66c.48.27.48.72,0,1l-38.26,22.09a1.9071,1.9071,0,0,1-1.74,0l-13.26-7.66a.5272.5272,0,0,1,0-1l38.26-22.09A1.9071,1.9071,0,0,1,238.37,149.17Z"/>
    <path id="Path-33" data-name="Path" class="cls-4" d="M246.63,156.83l-8.26-4.78a1.97,1.97,0,0,0-1.74,0l-34.51,19.93c-.48.28-.48.73,0,1l8.26,4.78a1.97,1.97,0,0,0,1.74,0l34.51-19.93C247.11,157.55,247.11,157.1,246.63,156.83Z"/>
    <g id="Group-5" data-name="Group">
      <path id="Path-34" data-name="Path" class="exterior-R-prim" d="M205,187.64l7.5-4.33V134.23l-7.5,4.33Z"/>
      <path id="Path-35" data-name="Path" class="exterior-L-prim" d="M205,196.3l-20-11.55V150.11l20-11.55Z"/>
    </g>
    <path id="Path-36" data-name="Path" class="exterior-R-prim" d="M155,173.2,315,80.83V63.51L155,155.88Z"/>
    <path id="Path-37" data-name="Path" class="exterior-L-prim" d="M45,155.88l107.5,62.07v8.66L45,164.54Z"/>
    <path id="Path-38" data-name="Path" class="cls-3" d="M138.37,205.9l13.26-7.66a1.9071,1.9071,0,0,1,1.74,0l13.26,7.66c.48.28.48.73,0,1l-13.26,7.66a1.9071,1.9071,0,0,1-1.74,0l-13.26-7.66C137.89,206.63,137.89,206.18,138.37,205.9Z"/>
    <path id="Path-39" data-name="Path" class="cls-4" d="M143.37,205.9l8.26-4.77a1.9071,1.9071,0,0,1,1.74,0l8.26,4.77c.48.28.48.73,0,1l-8.26,4.77a1.9071,1.9071,0,0,1-1.74,0l-8.26-4.77C142.89,206.63,142.89,206.18,143.37,205.9Z"/>
    <path id="Path-40" data-name="Path" class="cls-5" d="M202.5,194.85v-2.88l-30,17.32v2.88Z"/>
    <path id="Path-41" data-name="Path" class="cls-5" d="M305,135.68v-2.89l-40,23.09v2.89Z"/>
    <path id="Path-42" data-name="Path" class="cls-6" d="M200,190.52l2.5,1.45-30,17.32V206.4Z"/>
    <path id="Path-43" data-name="Path" class="cls-6" d="M302.5,131.35l2.5,1.44-40,23.09V153Z"/>
    <path id="Path-44" data-name="Path" class="cls-5" d="M200,187.64v2.88L172.5,206.4l-2.5-1.44Z"/>
    <path id="Path-45" data-name="Path" class="cls-5" d="M302.5,128.46v2.89L265,153v-2.89Z"/>
    <path id="Path-46" data-name="Path" class="cls-6" d="M197.5,186.19l2.5,1.45-30,17.32-2.5-1.45Z"/>
    <path id="Path-47" data-name="Path" class="cls-6" d="M300,127.02l2.5,1.44L265,150.11v-2.89Z"/>
    <path id="Path-48" data-name="Path" class="cls-5" d="M197.5,183.31v2.88l-30,17.32-2.5-1.44Z"/>
    <path id="Path-49" data-name="Path" class="cls-5" d="M300,124.13v2.89l-35,20.2v-2.88Z"/>
    <path id="Path-50" data-name="Path" class="cls-6" d="M185,176.09l12.5,7.22L165,202.07l-12.5-7.22Z"/>
    <path id="Path-51" data-name="Path" class="cls-6" d="M287.5,116.91l12.5,7.22-35,20.21V129.9Z"/>
    <path id="Path-52" data-name="Path" class="top-prim" d="M52.5,160.21l5-2.88L125,196.3v5.77Z"/>
    <path id="anchor_45_155.88_270" class="top-prim" d="M45,92.37,205,0,315,63.51,155,155.88Z"/>
  </g>
</svg>
