<svg id="Layer_1" data-name="Layer 1" xmlns="http://www.w3.org/2000/svg" viewBox="0 0 220 421.4657">
  <defs>
    <style>
      .top-light {
        fill: #ffc8c6;
      }

      .curtain-R-prim-dark {
        fill: #3e809c;
      }

      .curtain-L-prim-dark {
        fill: #2f5565;
      }

      .top-prim {
        fill: #dd8a87;
      }

      .exterior-L-light {
        fill: #8a3a37;
      }

      .exterior-L-prim {
        fill: #73302e;
      }

      .top-dark {
        fill: #c67471;
      }

      .exterior-R-prim {
        fill: #d05752;
      }

      .curtain-L-prim-light {
        fill: #438fb0;
      }

      .curtain-R-prim-light {
        fill: #59acd0;
      }
    </style>
  </defs>
  <title>Artboard 8</title>
  <g id="root">
    <path id="Path" class="top-light" d="M50,69.2821,70,80.829,90,69.2821,110,80.829l20-11.5469L150,80.829l20-11.5469L190,80.829l30-17.32L110,0,0,63.5086l30,17.32Z"/>
    <path id="Path-2" data-name="Path" class="curtain-R-prim-dark" d="M190,80.829V305.9957l30-17.32V63.5086Z"/>
    <path id="Path-3" data-name="Path" class="curtain-L-prim-dark" d="M30,80.829V305.9957L0,288.6751V63.5086Z"/>
    <path id="Path-4" data-name="Path" class="curtain-R-prim-dark" d="M110,421.4657v-69.282l110-63.5085v69.282Z"/>
    <path id="Path-5" data-name="Path" class="curtain-L-prim-dark" d="M110,421.4657v-69.282L0,288.6751v69.2821Z"/>
    <path id="Path-6" data-name="Path" class="top-light" d="M130,11.547,150,0l70,40.4145-20,11.547Z"/>
    <path id="Path-7" data-name="Path" class="curtain-R-prim-dark" d="M220,40.4145v23.094l-20-11.547Z"/>
    <path id="Path-8" data-name="Path" class="top-prim" d="M10,63.5085,30,75.0556l20-11.547,20,11.547,20-11.547,20,11.547,20-11.547,20,11.547,20-11.547,20,11.547,20-11.5471-20-11.547,20-11.547L150,5.7735l-20,11.547L110,5.7735Z"/>
    <path id="Path-9" data-name="Path" class="exterior-L-light" d="M122.5,59.1784h15v-8.66h-15l-35-20.2072v8.66Z"/>
    <path id="Path-10" data-name="Path" class="exterior-L-prim" d="M205,43.3013,150,11.547V5.7735l60,34.6411Z"/>
    <path id="Path-11" data-name="Path" class="top-dark" d="M150,28.8675l12.5-7.2169,6.25,3.6085-12.5,7.2168Z"/>
    <path id="Path-12" data-name="Path" class="top-dark" d="M158.75,33.9193l12.5-7.2169,6.25,3.6085L165,37.5277Z"/>
    <path id="Path-13" data-name="Path" class="top-dark" d="M167.5,38.9711,180,31.7543l6.25,3.6084L173.75,42.58Z"/>
    <path id="Path-14" data-name="Path" class="top-light" d="M87.5,30.3109l22.5-12.99,42.5,24.5374-15,8.66h-15Z"/>
    <path id="Path-15" data-name="Path" class="exterior-R-prim" d="M152.5,50.5181v-8.66l-15,8.66v8.66Z"/>
    <path id="Path-16" data-name="Path" class="curtain-R-prim-dark" d="M30,80.829,50,69.2821V294.4487l-20,11.547Z"/>
    <path id="Path-17" data-name="Path" class="curtain-R-prim-dark" d="M110,80.829l20-11.5469V294.4487l-20,11.547Z"/>
    <path id="Path-18" data-name="Path" class="curtain-R-prim-dark" d="M70,80.829,90,69.2821V294.4487l-20,11.547Z"/>
    <path id="Path-19" data-name="Path" class="curtain-R-prim-dark" d="M150,80.829l20-11.5469V294.4487l-20,11.547Z"/>
    <path id="Path-20" data-name="Path" class="curtain-L-prim-dark" d="M50,69.2821,70,80.829V305.9957l-20-11.547Z"/>
    <path id="Path-21" data-name="Path" class="curtain-L-prim-dark" d="M90,69.2821l20,11.547V305.9957l-20-11.547Z"/>
    <path id="Path-22" data-name="Path" class="curtain-L-prim-dark" d="M130,69.2821l20,11.547V305.9957l-20-11.547Z"/>
    <path id="Path-23" data-name="Path" class="curtain-L-prim-dark" d="M170,69.282l20,11.547V305.9957l-20-11.547Z"/>
    <path id="Path-24" data-name="Path" class="top-light" d="M150,305.9957l20-11.547,20,11.547-20,11.547Z"/>
    <path id="Path-25" data-name="Path" class="curtain-L-prim-dark" d="M150,323.3162l20,11.547v-17.32l-20-11.547Z"/>
    <path id="Path-26" data-name="Path" class="curtain-R-prim-dark" d="M190,323.3162l-20,11.547v-17.32l20-11.547Z"/>
    <path id="Path-27" data-name="Path" class="top-prim" d="M157.5,305.9957l12.5-7.2169,12.5,7.2169L170,313.2126Z"/>
    <path id="Path-28" data-name="Path" class="exterior-R-prim" d="M161.25,308.1608,170,303.109v-4.33l-12.5,7.2169Z"/>
    <path id="Path-29" data-name="Path" class="exterior-L-prim" d="M178.75,308.1608l3.75-2.1651L170,298.7788v4.33Z"/>
    <path id="Path-30" data-name="Path" class="top-light" d="M130,334.8632l20-11.547,20,11.547L150,346.41Z"/>
    <path id="Path-31" data-name="Path" class="curtain-L-prim-light" d="M130,352.1837l20,11.547V346.41l-20-11.547Z"/>
    <path id="Path-32" data-name="Path" class="top-prim" d="M137.5,334.8632l12.5-7.2169,12.5,7.2169L150,342.08Z"/>
    <path id="Path-33" data-name="Path" class="exterior-R-prim" d="M141.25,337.0283l8.75-5.0518v-4.33l-12.5,7.2169Z"/>
    <path id="Path-34" data-name="Path" class="exterior-L-prim" d="M158.75,337.0283l3.75-2.1651L150,327.6463v4.33Z"/>
    <path id="Path-35" data-name="Path" class="top-light" d="M90,334.8632l20-11.547,20,11.547L110,346.41Z"/>
    <path id="Path-36" data-name="Path" class="curtain-L-prim-light" d="M90,352.1837l20,11.547V346.41l-20-11.547Z"/>
    <path id="Path-37" data-name="Path" class="curtain-R-prim-light" d="M130,352.1837l-20,11.547V346.41l20-11.547Z"/>
    <path id="Path-38" data-name="Path" class="top-prim" d="M97.5,334.8632l12.5-7.2169,12.5,7.2169L110,342.08Z"/>
    <path id="Path-39" data-name="Path" class="exterior-R-prim" d="M101.25,337.0283l8.75-5.0518v-4.33l-12.5,7.2169Z"/>
    <path id="Path-40" data-name="Path" class="exterior-L-prim" d="M118.75,337.0283l3.75-2.1651L110,327.6463v4.33Z"/>
    <path id="Path-41" data-name="Path" class="top-light" d="M50,334.8632l20-11.547,20,11.547L70,346.41Z"/>
    <path id="Path-42" data-name="Path" class="curtain-L-prim-light" d="M0,323.3162l70,40.4145V346.41L0,305.9957Z"/>
    <path id="Path-43" data-name="Path" class="curtain-R-prim-light" d="M90,352.1837l-20,11.547V346.41l20-11.547Z"/>
    <path id="Path-44" data-name="Path" class="top-prim" d="M57.5,334.8632,70,327.6463l12.5,7.2169L70,342.08Z"/>
    <path id="Path-45" data-name="Path" class="exterior-R-prim" d="M61.25,337.0283,70,331.9765v-4.33l-12.5,7.2169Z"/>
    <path id="Path-46" data-name="Path" class="exterior-L-prim" d="M78.75,337.0283l3.75-2.1651L70,327.6463v4.33Z"/>
    <path id="Path-47" data-name="Path" class="top-light" d="M70,363.7307l20-11.547,20,11.547-20,11.547Z"/>
    <path id="Path-48" data-name="Path" class="curtain-L-prim-dark" d="M70,381.0512l20,11.547V375.2777l-20-11.547Z"/>
    <path id="Path-49" data-name="Path" class="curtain-R-prim-dark" d="M110,381.0512l-20,11.547V375.2777l20-11.547Z"/>
    <path id="Path-50" data-name="Path" class="top-prim" d="M77.5,363.7307,90,356.5138l12.5,7.2169L90,370.9476Z"/>
    <path id="Path-51" data-name="Path" class="exterior-R-prim" d="M81.25,365.8958,90,360.844v-4.33l-12.5,7.2169Z"/>
    <path id="Path-52" data-name="Path" class="exterior-L-prim" d="M98.75,365.8958l3.75-2.1651L90,356.5138v4.33Z"/>
    <path id="Path-53" data-name="Path" class="top-light" d="M110,363.7307l20-11.547,20,11.547-20,11.547Z"/>
    <path id="Path-54" data-name="Path" class="curtain-L-prim-dark" d="M110,381.0512l20,11.547V375.2777l-20-11.547Z"/>
    <path id="Path-55" data-name="Path" class="curtain-R-prim-dark" d="M150,381.0512l-20,11.547V375.2777l20-11.547Z"/>
    <path id="Path-56" data-name="Path" class="top-prim" d="M117.5,363.7307l12.5-7.2169,12.5,7.2169L130,370.9476Z"/>
    <path id="Path-57" data-name="Path" class="exterior-R-prim" d="M121.25,365.8958,130,360.844v-4.33l-12.5,7.2169Z"/>
    <path id="Path-58" data-name="Path" class="exterior-L-prim" d="M138.75,365.8958l3.75-2.1651L130,356.5138v4.33Z"/>
    <path id="Path-59" data-name="Path" class="top-light" d="M90,392.5982l20-11.547,20,11.547-20,11.547Z"/>
    <path id="Path-60" data-name="Path" class="curtain-L-prim-light" d="M0,357.9572l110,63.5085V404.1452L0,340.6367Z"/>
    <path id="Path-61" data-name="Path" class="curtain-R-prim-light" d="M220,357.9572,110,421.4657V404.1452l110-63.5085Z"/>
    <path id="Path-62" data-name="Path" class="top-prim" d="M97.5,392.5982l12.5-7.2169,12.5,7.2169L110,399.8151Z"/>
    <path id="Path-63" data-name="Path" class="exterior-R-prim" d="M101.25,394.7633l8.75-5.0518v-4.33l-12.5,7.2169Z"/>
    <path id="Path-64" data-name="Path" class="exterior-L-prim" d="M118.75,394.7633l3.75-2.1651L110,385.3813v4.33Z"/>
    <path id="Path-65" data-name="Path" class="top-light" d="M110,305.9957l20-11.547,20,11.547-20,11.547Z"/>
    <path id="Path-66" data-name="Path" class="curtain-L-prim-dark" d="M110,323.3162l20,11.547v-17.32l-20-11.547Z"/>
    <path id="Path-67" data-name="Path" class="curtain-R-prim-dark" d="M150,323.3162l-20,11.547v-17.32l20-11.547Z"/>
    <path id="Path-68" data-name="Path" class="top-prim" d="M117.5,305.9957l12.5-7.2169,12.5,7.2169L130,313.2126Z"/>
    <path id="Path-69" data-name="Path" class="exterior-R-prim" d="M121.25,308.1608,130,303.109v-4.33l-12.5,7.2169Z"/>
    <path id="Path-70" data-name="Path" class="exterior-L-prim" d="M138.75,308.1608l3.75-2.1651L130,298.7788v4.33Z"/>
    <path id="Path-71" data-name="Path" class="top-light" d="M70,305.9957l20-11.547,20,11.547-20,11.547Z"/>
    <path id="Path-72" data-name="Path" class="curtain-L-prim-dark" d="M70,323.3162l20,11.547v-17.32l-20-11.547Z"/>
    <path id="Path-73" data-name="Path" class="curtain-R-prim-dark" d="M110,323.3162l-20,11.547v-17.32l20-11.547Z"/>
    <path id="Path-74" data-name="Path" class="top-prim" d="M77.5,305.9957,90,298.7788l12.5,7.2169L90,313.2126Z"/>
    <path id="Path-75" data-name="Path" class="exterior-R-prim" d="M81.25,308.1608,90,303.109v-4.33l-12.5,7.2169Z"/>
    <path id="Path-76" data-name="Path" class="exterior-L-prim" d="M98.75,308.1608l3.75-2.1651L90,298.7788v4.33Z"/>
    <path id="Path-77" data-name="Path" class="top-light" d="M30,305.9957l20-11.547,20,11.547-20,11.547Z"/>
    <path id="Path-78" data-name="Path" class="curtain-L-prim-dark" d="M30,323.3162l20,11.547v-17.32l-20-11.547Z"/>
    <path id="Path-79" data-name="Path" class="curtain-R-prim-dark" d="M70,323.3162l-20,11.547v-17.32l20-11.547Z"/>
    <path id="Path-80" data-name="Path" class="top-prim" d="M37.5,305.9957,50,298.7788l12.5,7.2169L50,313.2126Z"/>
    <path id="Path-81" data-name="Path" class="exterior-R-prim" d="M41.25,308.1608,50,303.109v-4.33l-12.5,7.2169Z"/>
    <path id="Path-82" data-name="Path" class="exterior-L-prim" d="M58.75,308.1608l3.75-2.1651L50,298.7788v4.33Z"/>
    <path id="Path-83" data-name="Path" class="curtain-R-prim-light" d="M190,132.7906,220,115.47V98.15l-30,17.32Z"/>
    <path id="Path-84" data-name="Path" class="curtain-R-prim-light" d="M190,202.0726l30-17.32V167.4316l-30,17.3205Z"/>
    <path id="Path-85" data-name="Path" class="curtain-R-prim-light" d="M190,271.3546l30-17.3205v-17.32l-30,17.32Z"/>
    <path id="Path-86" data-name="Path" class="curtain-R-prim-light" d="M150,363.7307l70-40.4145v-17.32L150,346.41Z"/>
    <path id="Path-87" data-name="Path" class="curtain-R-prim-light" d="M190,98.15l30-17.3205v-17.32l-30,17.32Z"/>
    <path id="Path-88" data-name="Path" class="curtain-R-prim-light" d="M190,167.4316l30-17.3205v-17.32l-30,17.32Z"/>
    <path id="Path-89" data-name="Path" class="curtain-R-prim-light" d="M190,236.7136l30-17.3205V202.0726l-30,17.3205Z"/>
    <path id="Path-90" data-name="Path" class="curtain-R-prim-light" d="M190,305.9957l30-17.32V271.3546l-30,17.3206Z"/>
    <path id="Path-91" data-name="Path" class="curtain-R-prim-light" d="M150,132.7906l20-11.547v-17.32L150,115.47Z"/>
    <path id="Path-92" data-name="Path" class="curtain-R-prim-light" d="M150,202.0726l20-11.547V173.2051l-20,11.547Z"/>
    <path id="Path-93" data-name="Path" class="curtain-R-prim-light" d="M150,271.3546l20-11.547v-17.32l-20,11.547Z"/>
    <path id="Path-94" data-name="Path" class="curtain-R-prim-light" d="M150,98.15l20-11.547v-17.32l-20,11.547Z"/>
    <path id="Path-95" data-name="Path" class="curtain-R-prim-light" d="M150,167.4316l20-11.547V138.5641l-20,11.547Z"/>
    <path id="Path-96" data-name="Path" class="curtain-R-prim-light" d="M150,236.7136l20-11.547v-17.32l-20,11.547Z"/>
    <path id="Path-97" data-name="Path" class="curtain-R-prim-light" d="M150,305.9957l20-11.547v-17.32l-20,11.547Z"/>
    <path id="Path-98" data-name="Path" class="curtain-R-prim-light" d="M70,132.7906l20-11.547v-17.32L70,115.47Z"/>
    <path id="Path-99" data-name="Path" class="curtain-R-prim-light" d="M70,202.0726l20-11.547V173.2051l-20,11.547Z"/>
    <path id="Path-100" data-name="Path" class="curtain-R-prim-light" d="M70,271.3546l20-11.547v-17.32l-20,11.547Z"/>
    <path id="Path-101" data-name="Path" class="curtain-R-prim-light" d="M70,98.15l20-11.547v-17.32L70,80.8291Z"/>
    <path id="Path-102" data-name="Path" class="curtain-R-prim-light" d="M70,167.4316l20-11.547V138.5641l-20,11.547Z"/>
    <path id="Path-103" data-name="Path" class="curtain-R-prim-light" d="M70,236.7136l20-11.547v-17.32l-20,11.547Z"/>
    <path id="Path-104" data-name="Path" class="curtain-R-prim-light" d="M70,305.9957l20-11.547v-17.32l-20,11.547Z"/>
    <path id="Path-105" data-name="Path" class="curtain-R-prim-light" d="M110,132.7906l20-11.547v-17.32L110,115.47Z"/>
    <path id="Path-106" data-name="Path" class="curtain-R-prim-light" d="M110,202.0726l20-11.547V173.2051l-20,11.547Z"/>
    <path id="Path-107" data-name="Path" class="curtain-R-prim-light" d="M110,271.3547l20-11.547V242.4871l-20,11.5471Z"/>
    <path id="Path-108" data-name="Path" class="curtain-R-prim-light" d="M110,98.15l20-11.547v-17.32l-20,11.547Z"/>
    <path id="Path-109" data-name="Path" class="curtain-R-prim-light" d="M110,167.4316l20-11.547V138.5641l-20,11.547Z"/>
    <path id="Path-110" data-name="Path" class="curtain-R-prim-light" d="M110,236.7136l20-11.547v-17.32l-20,11.547Z"/>
    <path id="Path-111" data-name="Path" class="curtain-R-prim-light" d="M110,305.9957l20-11.547v-17.32l-20,11.547Z"/>
    <path id="Path-112" data-name="Path" class="curtain-R-prim-light" d="M30,132.7906l20-11.547v-17.32L30,115.47Z"/>
    <path id="Path-113" data-name="Path" class="curtain-R-prim-light" d="M30,202.0726l20-11.547V173.2051l-20,11.547Z"/>
    <path id="Path-114" data-name="Path" class="curtain-R-prim-light" d="M30,271.3547l20-11.547V242.4871L30,254.0342Z"/>
    <path id="Path-115" data-name="Path" class="curtain-R-prim-light" d="M30,98.15l20-11.547v-17.32L30,80.8291Z"/>
    <path id="Path-116" data-name="Path" class="curtain-R-prim-light" d="M30,167.4316l20-11.547V138.5641l-20,11.547Z"/>
    <path id="Path-117" data-name="Path" class="curtain-R-prim-light" d="M30,236.7136l20-11.547v-17.32l-20,11.547Z"/>
    <path id="Path-118" data-name="Path" class="curtain-R-prim-light" d="M30,305.9957l20-11.547v-17.32l-20,11.547Z"/>
    <path id="Path-119" data-name="Path" class="curtain-R-prim-light" d="M215,60.6218l5-2.8868V40.4145l-20,11.547Z"/>
    <path id="Path-120" data-name="Path" class="curtain-L-prim-light" d="M170,121.2436l20,11.547V115.47l-20-11.547Z"/>
    <path id="Path-121" data-name="Path" class="curtain-L-prim-light" d="M170,190.5256l20,11.547v-17.32l-20-11.547Z"/>
    <path id="Path-122" data-name="Path" class="curtain-L-prim-light" d="M170,259.8076l20,11.547V254.0341l-20-11.547Z"/>
    <path id="Path-123" data-name="Path" class="curtain-L-prim-light" d="M170,86.6026,190,98.15V80.8291l-20-11.547Z"/>
    <path id="Path-124" data-name="Path" class="curtain-L-prim-light" d="M170,155.8846l20,11.547V150.1111l-20-11.547Z"/>
    <path id="Path-125" data-name="Path" class="curtain-L-prim-light" d="M170,225.1666l20,11.547V219.3931l-20-11.547Z"/>
    <path id="Path-126" data-name="Path" class="curtain-L-prim-light" d="M170,294.4487l20,11.547v-17.32l-20-11.547Z"/>
    <path id="Path-127" data-name="Path" class="curtain-L-prim-light" d="M90,121.2436l20,11.547V115.47l-20-11.547Z"/>
    <path id="Path-128" data-name="Path" class="curtain-L-prim-light" d="M90,190.5256l20,11.547v-17.32l-20-11.547Z"/>
    <path id="Path-129" data-name="Path" class="curtain-L-prim-light" d="M90,259.8076l20,11.547V254.0341l-20-11.547Z"/>
    <path id="Path-130" data-name="Path" class="curtain-L-prim-light" d="M90,86.6026,110,98.15V80.8291L90,69.2821Z"/>
    <path id="Path-131" data-name="Path" class="curtain-L-prim-light" d="M90,155.8846l20,11.547V150.1111l-20-11.547Z"/>
    <path id="Path-132" data-name="Path" class="curtain-L-prim-light" d="M90,225.1666l20,11.547V219.3931l-20-11.547Z"/>
    <path id="Path-133" data-name="Path" class="curtain-L-prim-light" d="M90,294.4487l20,11.547v-17.32l-20-11.547Z"/>
    <path id="Path-134" data-name="Path" class="curtain-L-prim-light" d="M130,121.2436l20,11.547V115.47l-20-11.547Z"/>
    <path id="Path-135" data-name="Path" class="curtain-L-prim-light" d="M130,190.5256l20,11.547v-17.32l-20-11.547Z"/>
    <path id="Path-136" data-name="Path" class="curtain-L-prim-light" d="M130,259.8076l20,11.547v-17.32l-20-11.547Z"/>
    <path id="Path-137" data-name="Path" class="curtain-L-prim-light" d="M130,86.6026,150,98.15V80.8291l-20-11.547Z"/>
    <path id="Path-138" data-name="Path" class="curtain-L-prim-light" d="M130,155.8846l20,11.547V150.1111l-20-11.547Z"/>
    <path id="Path-139" data-name="Path" class="curtain-L-prim-light" d="M130,225.1666l20,11.547V219.3931l-20-11.547Z"/>
    <path id="Path-140" data-name="Path" class="curtain-L-prim-light" d="M130,294.4487l20,11.547v-17.32l-20-11.547Z"/>
    <path id="Path-141" data-name="Path" class="curtain-L-prim-light" d="M50,121.2436l20,11.547V115.47l-20-11.547Z"/>
    <path id="Path-142" data-name="Path" class="curtain-L-prim-light" d="M50,190.5256l20,11.547v-17.32l-20-11.547Z"/>
    <path id="Path-143" data-name="Path" class="curtain-L-prim-light" d="M50,259.8076l20,11.547v-17.32l-20-11.547Z"/>
    <path id="Path-144" data-name="Path" class="curtain-L-prim-light" d="M50,86.6026,70,98.15V80.8291L50,69.2821Z"/>
    <path id="Path-145" data-name="Path" class="curtain-L-prim-light" d="M50,155.8846l20,11.547V150.1111l-20-11.547Z"/>
    <path id="Path-146" data-name="Path" class="curtain-L-prim-light" d="M50,225.1666l20,11.547V219.3931l-20-11.547Z"/>
    <path id="Path-147" data-name="Path" class="curtain-L-prim-light" d="M50,294.4487l20,11.547v-17.32l-20-11.547Z"/>
    <path id="Path-148" data-name="Path" class="curtain-L-prim-light" d="M0,115.47l30,17.3205V115.47L0,98.15Z"/>
    <path id="Path-149" data-name="Path" class="curtain-L-prim-light" d="M0,184.7521l30,17.32v-17.32L0,167.4316Z"/>
    <path id="Path-150" data-name="Path" class="curtain-L-prim-light" d="M0,254.0341l30,17.3205V254.0341l-30-17.32Z"/>
    <path id="Path-151" data-name="Path" class="curtain-L-prim-light" d="M0,80.8291,30,98.15V80.8291L0,63.5086Z"/>
    <path id="Path-152" data-name="Path" class="curtain-L-prim-light" d="M0,150.1111l30,17.3205V150.1111l-30-17.32Z"/>
    <path id="Path-153" data-name="Path" class="curtain-L-prim-light" d="M0,219.3931l30,17.3205V219.3931L0,202.0726Z"/>
    <path id="Path-154" data-name="Path" class="curtain-L-prim-light" d="M0,288.6752l30,17.32v-17.32L0,271.3547Z"/>
    <path id="Path-155" data-name="Path" class="exterior-R-prim" d="M130,17.3205V23.094l20-11.547V5.7735Z"/>
    <path id="Path-156" data-name="Path" class="exterior-L-prim" d="M110,5.7735V11.547l20,11.547V17.3205Z"/>
    <path id="Path-157" data-name="Path" class="exterior-R-prim" d="M10,63.5085,110,5.7735V11.547L15,66.3953Z"/>
  </g>
</svg>
