<svg id="Layer_1" data-name="Layer 1" xmlns="http://www.w3.org/2000/svg" viewBox="0 0 220 352.1836">
  <defs>
    <style>
      .top-light {
        fill: #ffc8c6;
      }

      .curtain-R-prim-dark {
        fill: #3e809c;
      }

      .curtain-L-prim-dark {
        fill: #2f5565;
      }

      .top-prim {
        fill: #dd8a87;
      }

      .exterior-L-light {
        fill: #8a3a37;
      }

      .exterior-L-prim {
        fill: #73302e;
      }

      .top-dark {
        fill: #c67471;
      }

      .exterior-R-prim {
        fill: #d05752;
      }

      .curtain-L-prim-light {
        fill: #438fb0;
      }

      .curtain-R-prim-light {
        fill: #59acd0;
      }
    </style>
  </defs>
  <title>Artboard 10</title>
  <g id="root">
    <g id="anchor_0_1_1"></g>
    <path id="Path" class="top-light" d="M50,69.282,70,80.829,90,69.282l20,11.547,20-11.547,20,11.547,20-11.547,20,11.547,30-17.32L110,0,0,63.5085l30,17.32Z"/>
    <path id="Path-2" data-name="Path" class="curtain-R-prim-dark" d="M190,80.829V236.7136l30-17.3205V63.5085Z"/>
    <path id="Path-3" data-name="Path" class="curtain-L-prim-dark" d="M30,80.829V236.7136L0,219.393V63.5085Z"/>
    <path id="Path-4" data-name="Path" class="curtain-R-prim-dark" d="M110,352.1836v-69.282l110-63.5085v69.282Z"/>
    <path id="Path-5" data-name="Path" class="curtain-L-prim-dark" d="M110,352.1836v-69.282L0,219.393v69.2821Z"/>
    <path id="Path-6" data-name="Path" class="top-light" d="M130,11.547,150,0l70,40.4144-20,11.547Z"/>
    <path id="Path-7" data-name="Path" class="curtain-R-prim-dark" d="M220,40.4144V63.5085L200,51.9614Z"/>
    <path id="Path-8" data-name="Path" class="top-prim" d="M10,63.5085l20,11.547,20-11.547,20,11.547,20-11.547,20,11.547,20-11.547,20,11.547,20-11.547,20,11.547,20-11.547-20-11.547,20-11.547L150,5.7735,130,17.32,110,5.7735Z"/>
    <path id="Path-9" data-name="Path" class="exterior-L-light" d="M122.5,59.1783h15v-8.66h-15l-35-20.2073v8.66Z"/>
    <path id="Path-10" data-name="Path" class="exterior-L-prim" d="M205,43.3012,150,11.547V5.7735l60,34.6409Z"/>
    <path id="Path-11" data-name="Path" class="top-dark" d="M150,28.8674l12.5-7.2168,6.25,3.6084-12.5,7.2169Z"/>
    <path id="Path-12" data-name="Path" class="top-dark" d="M158.75,33.9192l12.5-7.2168,6.25,3.6084L165,37.5277Z"/>
    <path id="Path-13" data-name="Path" class="top-dark" d="M167.5,38.9711,180,31.7542l6.25,3.6085L173.75,42.58Z"/>
    <path id="Path-14" data-name="Path" class="top-light" d="M87.5,30.3108l22.5-12.99,42.5,24.5373-15,8.66h-15Z"/>
    <path id="Path-15" data-name="Path" class="exterior-R-prim" d="M152.5,50.5181v-8.66l-15,8.66v8.66Z"/>
    <path id="Path-16" data-name="Path" class="curtain-R-prim-dark" d="M30,80.829,50,69.282V225.1666l-20,11.547Z"/>
    <path id="Path-17" data-name="Path" class="curtain-R-prim-dark" d="M110,80.829l20-11.547V225.1666l-20,11.547Z"/>
    <path id="Path-18" data-name="Path" class="curtain-R-prim-dark" d="M70,80.829,90,69.282V225.1666l-20,11.547Z"/>
    <path id="Path-19" data-name="Path" class="curtain-R-prim-dark" d="M150,80.829l20-11.547V225.1666l-20,11.547Z"/>
    <path id="Path-20" data-name="Path" class="curtain-L-prim-dark" d="M50,69.282,70,80.829V236.7136l-20-11.547Z"/>
    <path id="Path-21" data-name="Path" class="curtain-L-prim-dark" d="M90,69.282l20,11.547V236.7136l-20-11.547Z"/>
    <path id="Path-22" data-name="Path" class="curtain-L-prim-dark" d="M130,69.282l20,11.547V236.7136l-20-11.547Z"/>
    <path id="Path-23" data-name="Path" class="curtain-L-prim-dark" d="M170,69.282l20,11.547V236.7136l-20-11.547Z"/>
    <path id="Path-24" data-name="Path" class="top-light" d="M150,236.7136l20-11.547,20,11.547-20,11.547Z"/>
    <path id="Path-25" data-name="Path" class="curtain-L-prim-dark" d="M150,254.0341l20,11.547v-17.32l-20-11.547Z"/>
    <path id="Path-26" data-name="Path" class="curtain-R-prim-dark" d="M190,254.0341l-20,11.547v-17.32l20-11.547Z"/>
    <path id="Path-27" data-name="Path" class="top-prim" d="M157.5,236.7136l12.5-7.2169,12.5,7.2169L170,243.9305Z"/>
    <path id="Path-28" data-name="Path" class="exterior-R-prim" d="M161.25,238.8787l8.75-5.0518v-4.33l-12.5,7.2169Z"/>
    <path id="Path-29" data-name="Path" class="exterior-L-prim" d="M178.75,238.8787l3.75-2.1651L170,229.4967v4.33Z"/>
    <path id="Path-30" data-name="Path" class="top-light" d="M130,265.5811l20-11.547,20,11.547-20,11.547Z"/>
    <path id="Path-31" data-name="Path" class="curtain-L-prim-light" d="M130,282.9016l20,11.547v-17.32l-20-11.547Z"/>
    <path id="Path-32" data-name="Path" class="top-prim" d="M137.5,265.5811l12.5-7.2169,12.5,7.2169L150,272.798Z"/>
    <path id="Path-33" data-name="Path" class="exterior-R-prim" d="M141.25,267.7462l8.75-5.0518v-4.33l-12.5,7.2169Z"/>
    <path id="Path-34" data-name="Path" class="exterior-L-prim" d="M158.75,267.7462l3.75-2.1651L150,258.3642v4.33Z"/>
    <path id="Path-35" data-name="Path" class="top-light" d="M90,265.5811l20-11.547,20,11.547-20,11.547Z"/>
    <path id="Path-36" data-name="Path" class="curtain-L-prim-light" d="M90,282.9016l20,11.547v-17.32l-20-11.547Z"/>
    <path id="Path-37" data-name="Path" class="curtain-R-prim-light" d="M130,282.9016l-20,11.547v-17.32l20-11.547Z"/>
    <path id="Path-38" data-name="Path" class="top-prim" d="M97.5,265.5811l12.5-7.2169,12.5,7.2169L110,272.798Z"/>
    <path id="Path-39" data-name="Path" class="exterior-R-prim" d="M101.25,267.7462l8.75-5.0518v-4.33l-12.5,7.2169Z"/>
    <path id="Path-40" data-name="Path" class="exterior-L-prim" d="M118.75,267.7462l3.75-2.1651L110,258.3642v4.33Z"/>
    <path id="Path-41" data-name="Path" class="top-light" d="M50,265.5811l20-11.547,20,11.547-20,11.547Z"/>
    <path id="Path-42" data-name="Path" class="curtain-L-prim-light" d="M0,254.0341l70,40.4145v-17.32L0,236.7136Z"/>
    <path id="Path-43" data-name="Path" class="curtain-R-prim-light" d="M90,282.9016l-20,11.547v-17.32l20-11.547Z"/>
    <path id="Path-44" data-name="Path" class="top-prim" d="M57.5,265.5811,70,258.3642l12.5,7.2169L70,272.798Z"/>
    <path id="Path-45" data-name="Path" class="exterior-R-prim" d="M61.25,267.7462,70,262.6944v-4.33l-12.5,7.2169Z"/>
    <path id="Path-46" data-name="Path" class="exterior-L-prim" d="M78.75,267.7462l3.75-2.1651L70,258.3642v4.33Z"/>
    <path id="Path-47" data-name="Path" class="top-light" d="M70,294.4486l20-11.547,20,11.547-20,11.547Z"/>
    <path id="Path-48" data-name="Path" class="curtain-L-prim-dark" d="M70,311.7691l20,11.547v-17.32l-20-11.547Z"/>
    <path id="Path-49" data-name="Path" class="curtain-R-prim-dark" d="M110,311.7691l-20,11.547v-17.32l20-11.547Z"/>
    <path id="Path-50" data-name="Path" class="top-prim" d="M77.5,294.4486,90,287.2317l12.5,7.2169L90,301.6655Z"/>
    <path id="Path-51" data-name="Path" class="exterior-R-prim" d="M81.25,296.6137,90,291.5619v-4.33l-12.5,7.2169Z"/>
    <path id="Path-52" data-name="Path" class="exterior-L-prim" d="M98.75,296.6137l3.75-2.1651L90,287.2317v4.33Z"/>
    <path id="Path-53" data-name="Path" class="top-light" d="M110,294.4486l20-11.547,20,11.547-20,11.547Z"/>
    <path id="Path-54" data-name="Path" class="curtain-L-prim-dark" d="M110,311.7691l20,11.547v-17.32l-20-11.547Z"/>
    <path id="Path-55" data-name="Path" class="curtain-R-prim-dark" d="M150,311.7691l-20,11.547v-17.32l20-11.547Z"/>
    <path id="Path-56" data-name="Path" class="top-prim" d="M117.5,294.4486l12.5-7.2169,12.5,7.2169L130,301.6655Z"/>
    <path id="Path-57" data-name="Path" class="exterior-R-prim" d="M121.25,296.6137l8.75-5.0518v-4.33l-12.5,7.2169Z"/>
    <path id="Path-58" data-name="Path" class="exterior-L-prim" d="M138.75,296.6137l3.75-2.1651L130,287.2317v4.33Z"/>
    <path id="Path-59" data-name="Path" class="top-light" d="M90,323.3161l20-11.547,20,11.547-20,11.547Z"/>
    <path id="Path-60" data-name="Path" class="curtain-L-prim-light" d="M0,288.6751l110,63.5085V334.8631L0,271.3546Z"/>
    <path id="Path-61" data-name="Path" class="curtain-R-prim-light" d="M220,288.6751,110,352.1836V334.8631l110-63.5085Z"/>
    <path id="Path-62" data-name="Path" class="top-prim" d="M97.5,323.3161l12.5-7.2169,12.5,7.2169L110,330.533Z"/>
    <path id="Path-63" data-name="Path" class="exterior-R-prim" d="M101.25,325.4812l8.75-5.0518v-4.33l-12.5,7.2169Z"/>
    <path id="Path-64" data-name="Path" class="exterior-L-prim" d="M118.75,325.4812l3.75-2.1651L110,316.0992v4.33Z"/>
    <path id="Path-65" data-name="Path" class="top-light" d="M110,236.7136l20-11.547,20,11.547-20,11.547Z"/>
    <path id="Path-66" data-name="Path" class="curtain-L-prim-dark" d="M110,254.0341l20,11.547v-17.32l-20-11.547Z"/>
    <path id="Path-67" data-name="Path" class="curtain-R-prim-dark" d="M150,254.0341l-20,11.547v-17.32l20-11.547Z"/>
    <path id="Path-68" data-name="Path" class="top-prim" d="M117.5,236.7136l12.5-7.2169,12.5,7.2169L130,243.9305Z"/>
    <path id="Path-69" data-name="Path" class="exterior-R-prim" d="M121.25,238.8787l8.75-5.0518v-4.33l-12.5,7.2169Z"/>
    <path id="Path-70" data-name="Path" class="exterior-L-prim" d="M138.75,238.8787l3.75-2.1651L130,229.4967v4.33Z"/>
    <path id="Path-71" data-name="Path" class="top-light" d="M70,236.7136l20-11.547,20,11.547-20,11.547Z"/>
    <path id="Path-72" data-name="Path" class="curtain-L-prim-dark" d="M70,254.0341l20,11.547v-17.32l-20-11.547Z"/>
    <path id="Path-73" data-name="Path" class="curtain-R-prim-dark" d="M110,254.0341l-20,11.547v-17.32l20-11.547Z"/>
    <path id="Path-74" data-name="Path" class="top-prim" d="M77.5,236.7136,90,229.4967l12.5,7.2169L90,243.9305Z"/>
    <path id="Path-75" data-name="Path" class="exterior-R-prim" d="M81.25,238.8787,90,233.8269v-4.33l-12.5,7.2169Z"/>
    <path id="Path-76" data-name="Path" class="exterior-L-prim" d="M98.75,238.8787l3.75-2.1651L90,229.4967v4.33Z"/>
    <path id="Path-77" data-name="Path" class="top-light" d="M30,236.7136l20-11.547,20,11.547-20,11.547Z"/>
    <path id="Path-78" data-name="Path" class="curtain-L-prim-dark" d="M30,254.0341l20,11.547v-17.32l-20-11.547Z"/>
    <path id="Path-79" data-name="Path" class="curtain-R-prim-dark" d="M70,254.0341l-20,11.547v-17.32l20-11.547Z"/>
    <path id="Path-80" data-name="Path" class="top-prim" d="M37.5,236.7136,50,229.4967l12.5,7.2169L50,243.9305Z"/>
    <path id="Path-81" data-name="Path" class="exterior-R-prim" d="M41.25,238.8787,50,233.8269v-4.33l-12.5,7.2169Z"/>
    <path id="Path-82" data-name="Path" class="exterior-L-prim" d="M58.75,238.8787l3.75-2.1651L50,229.4967v4.33Z"/>
    <path id="Path-83" data-name="Path" class="curtain-R-prim-light" d="M190,132.7905,220,115.47V98.15l-30,17.32Z"/>
    <path id="Path-84" data-name="Path" class="curtain-R-prim-light" d="M190,202.0725l30-17.32V167.4315L190,184.752Z"/>
    <path id="Path-85" data-name="Path" class="curtain-R-prim-light" d="M150,294.4486l70-40.4145v-17.32l-70,40.4145Z"/>
    <path id="Path-86" data-name="Path" class="curtain-R-prim-light" d="M190,98.15,220,80.829v-17.32l-30,17.32Z"/>
    <path id="Path-87" data-name="Path" class="curtain-R-prim-light" d="M190,167.4315l30-17.3205v-17.32l-30,17.32Z"/>
    <path id="Path-88" data-name="Path" class="curtain-R-prim-light" d="M190,236.7136l30-17.3205V202.0725l-30,17.3206Z"/>
    <path id="Path-89" data-name="Path" class="curtain-R-prim-light" d="M150,132.7905l20-11.547v-17.32L150,115.47Z"/>
    <path id="Path-90" data-name="Path" class="curtain-R-prim-light" d="M150,202.0725l20-11.547v-17.32l-20,11.547Z"/>
    <path id="Path-91" data-name="Path" class="curtain-R-prim-light" d="M150,98.15l20-11.547V69.282L150,80.829Z"/>
    <path id="Path-92" data-name="Path" class="curtain-R-prim-light" d="M150,167.4315l20-11.547V138.564l-20,11.547Z"/>
    <path id="Path-93" data-name="Path" class="curtain-R-prim-light" d="M150,236.7136l20-11.547v-17.32l-20,11.547Z"/>
    <path id="Path-94" data-name="Path" class="curtain-R-prim-light" d="M70,132.7905l20-11.547v-17.32L70,115.47Z"/>
    <path id="Path-95" data-name="Path" class="curtain-R-prim-light" d="M70,202.0725l20-11.547v-17.32L70,184.752Z"/>
    <path id="Path-96" data-name="Path" class="curtain-R-prim-light" d="M70,98.15l20-11.547V69.282L70,80.829Z"/>
    <path id="Path-97" data-name="Path" class="curtain-R-prim-light" d="M70,167.4315l20-11.547V138.564L70,150.111Z"/>
    <path id="Path-98" data-name="Path" class="curtain-R-prim-light" d="M70,236.7136l20-11.547v-17.32l-20,11.547Z"/>
    <path id="Path-99" data-name="Path" class="curtain-R-prim-light" d="M110,132.7905l20-11.547v-17.32L110,115.47Z"/>
    <path id="Path-100" data-name="Path" class="curtain-R-prim-light" d="M110,202.0726l20-11.547V173.205l-20,11.5471Z"/>
    <path id="Path-101" data-name="Path" class="curtain-R-prim-light" d="M110,98.15l20-11.547V69.282L110,80.829Z"/>
    <path id="Path-102" data-name="Path" class="curtain-R-prim-light" d="M110,167.4315l20-11.547V138.564l-20,11.547Z"/>
    <path id="Path-103" data-name="Path" class="curtain-R-prim-light" d="M110,236.7136l20-11.547v-17.32l-20,11.547Z"/>
    <path id="Path-104" data-name="Path" class="curtain-R-prim-light" d="M30,132.7905l20-11.547v-17.32L30,115.47Z"/>
    <path id="Path-105" data-name="Path" class="curtain-R-prim-light" d="M30,202.0726l20-11.547V173.205L30,184.7521Z"/>
    <path id="Path-106" data-name="Path" class="curtain-R-prim-light" d="M30,98.15l20-11.547V69.282L30,80.829Z"/>
    <path id="Path-107" data-name="Path" class="curtain-R-prim-light" d="M30,167.4315l20-11.547V138.564L30,150.111Z"/>
    <path id="Path-108" data-name="Path" class="curtain-R-prim-light" d="M30,236.7136l20-11.547v-17.32l-20,11.547Z"/>
    <path id="Path-109" data-name="Path" class="curtain-R-prim-light" d="M215,60.6217l5-2.8867V40.4145l-20,11.547Z"/>
    <path id="Path-110" data-name="Path" class="curtain-L-prim-light" d="M170,121.2435l20,11.547V115.47l-20-11.547Z"/>
    <path id="Path-111" data-name="Path" class="curtain-L-prim-light" d="M170,190.5255l20,11.547v-17.32l-20-11.547Z"/>
    <path id="Path-112" data-name="Path" class="curtain-L-prim-light" d="M170,86.6025,190,98.15V80.829L170,69.282Z"/>
    <path id="Path-113" data-name="Path" class="curtain-L-prim-light" d="M170,155.8845l20,11.547V150.111l-20-11.547Z"/>
    <path id="Path-114" data-name="Path" class="curtain-L-prim-light" d="M170,225.1666l20,11.547V219.3931l-20-11.547Z"/>
    <path id="Path-115" data-name="Path" class="curtain-L-prim-light" d="M90,121.2435l20,11.547V115.47L90,103.923Z"/>
    <path id="Path-116" data-name="Path" class="curtain-L-prim-light" d="M90,190.5255l20,11.547v-17.32L90,173.205Z"/>
    <path id="Path-117" data-name="Path" class="curtain-L-prim-light" d="M90,86.6025,110,98.15V80.829L90,69.282Z"/>
    <path id="Path-118" data-name="Path" class="curtain-L-prim-light" d="M90,155.8845l20,11.547V150.111L90,138.564Z"/>
    <path id="Path-119" data-name="Path" class="curtain-L-prim-light" d="M90,225.1666l20,11.547V219.3931l-20-11.547Z"/>
    <path id="Path-120" data-name="Path" class="curtain-L-prim-light" d="M130,121.2435l20,11.547V115.47l-20-11.547Z"/>
    <path id="Path-121" data-name="Path" class="curtain-L-prim-light" d="M130,190.5255l20,11.547v-17.32l-20-11.547Z"/>
    <path id="Path-122" data-name="Path" class="curtain-L-prim-light" d="M130,86.6025,150,98.15V80.829L130,69.282Z"/>
    <path id="Path-123" data-name="Path" class="curtain-L-prim-light" d="M130,155.8845l20,11.547V150.111l-20-11.547Z"/>
    <path id="Path-124" data-name="Path" class="curtain-L-prim-light" d="M130,225.1666l20,11.547V219.3931l-20-11.547Z"/>
    <path id="Path-125" data-name="Path" class="curtain-L-prim-light" d="M50,121.2435l20,11.547V115.47L50,103.923Z"/>
    <path id="Path-126" data-name="Path" class="curtain-L-prim-light" d="M50,190.5255l20,11.547v-17.32l-20-11.547Z"/>
    <path id="Path-127" data-name="Path" class="curtain-L-prim-light" d="M50,86.6025,70,98.15V80.829L50,69.282Z"/>
    <path id="Path-128" data-name="Path" class="curtain-L-prim-light" d="M50,155.8845l20,11.547V150.111L50,138.564Z"/>
    <path id="Path-129" data-name="Path" class="curtain-L-prim-light" d="M50,225.1666l20,11.547V219.3931l-20-11.547Z"/>
    <path id="Path-130" data-name="Path" class="curtain-L-prim-light" d="M0,115.47l30,17.3205V115.47L0,98.15Z"/>
    <path id="Path-131" data-name="Path" class="curtain-L-prim-light" d="M0,184.752l30,17.32v-17.32L0,167.4315Z"/>
    <path id="Path-132" data-name="Path" class="curtain-L-prim-light" d="M0,80.829,30,98.15V80.829L0,63.5085Z"/>
    <path id="Path-133" data-name="Path" class="curtain-L-prim-light" d="M0,150.111l30,17.3205V150.111l-30-17.32Z"/>
    <path id="Path-134" data-name="Path" class="curtain-L-prim-light" d="M0,219.3931l30,17.32v-17.32L0,202.0726Z"/>
    <path id="Path-135" data-name="Path" class="exterior-R-prim" d="M130,17.32v5.7735l20-11.547V5.7734Z"/>
    <path id="Path-136" data-name="Path" class="exterior-L-prim" d="M110,5.7734v5.7735l20,11.547V17.32Z"/>
    <path id="Path-137" data-name="Path" class="exterior-R-prim" d="M10,63.5085,110,5.7734v5.7735L15,66.3953Z"/>
  </g>
</svg>
