<svg id="Layer_1" data-name="Layer 1" xmlns="http://www.w3.org/2000/svg" viewBox="0 0 250 202.07">
  <defs>
    <style>
      .cls-1 {
        fill: #dd8987;
      }

      .exterior-R-prim {
        fill: #d15752;
      }

      .exterior-L-prim {
        fill: #73302f;
      }

      .cls-2 {
        fill: #c67471;
      }

      .cls-3 {
        fill: #d2d2d2;
      }

      .cls-4 {
        fill: #f9f9fa;
      }

      .cls-5 {
        fill: #474747;
      }

      .cls-6 {
        fill: #bababa;
      }

      .cls-7 {
        fill: #fff;
      }

      .exterior-L-light {
        fill: #8b3a37;
      }

      .exterior-R-dark {
        fill: #a74d4a;
      }
    </style>
  </defs>
  <title>Artboard 15</title>
  <g id="Group">
    <path id="Path" class="cls-1" d="M250,92.37,90,0,0,51.96l160,92.37Z"/>
    <path id="Path-2" data-name="Path" class="exterior-R-prim" d="M160,144.33v57.74l90-51.96V92.37Z"/>
    <path id="Path-3" data-name="Path" class="exterior-L-prim" d="M0,51.96v57.73l160,92.38V144.33Z"/>
    <path id="Path-4" data-name="Path" class="cls-2" d="M92.5,56.29,55,77.94,10,51.96,47.5,30.31Z"/>
    <path id="Path-5" data-name="Path" class="cls-2" d="M190,63.51,152.5,85.16l-50-28.87L140,34.64Z"/>
    <path id="Path-6" data-name="Path" class="cls-3" d="M135,31.75,97.5,53.4l-45-25.98L90,5.77Z"/>
    <path id="Path-7" data-name="Path" class="exterior-L-prim" d="M160,138.56l-7.5-4.33V90.93l45,25.98Z"/>
    <path id="Path-8" data-name="Path" class="exterior-L-prim" d="M202.5,114.02l-7.5-4.33V66.39l45,25.98Z"/>
    <path id="Path-9" data-name="Path" class="exterior-L-prim" d="M80,63.51,47.5,44.74V30.31l45,25.98Z"/>
    <path id="Path-10" data-name="Path" class="exterior-L-prim" d="M177.5,70.72,140,49.07V34.64l50,28.87Z"/>
    <path id="Path-11" data-name="Path" class="exterior-L-prim" d="M117.5,41.85,90,25.98V5.77l45,25.98Z"/>
    <path id="Path-12" data-name="Path" class="exterior-L-prim" d="M110,109.69l-12.5-7.21V59.18l50,28.86Z"/>
    <path id="Path-13" data-name="Path" class="exterior-R-prim" d="M97.5,59.18v43.3L60,80.83Z"/>
    <path id="Path-14" data-name="Path" class="exterior-R-prim" d="M152.5,90.93v43.3L115,112.58Z"/>
    <path id="Path-15" data-name="Path" class="exterior-R-prim" d="M195,66.39v43.3L157.5,88.04Z"/>
    <path id="Path-16" data-name="Path" class="exterior-R-prim" d="M47.5,30.31V44.74l-25,14.44L10,51.96Z"/>
    <path id="Path-17" data-name="Path" class="exterior-R-prim" d="M90,5.77V37.52L80,43.3,52.5,27.42Z"/>
    <g id="Group-2" data-name="Group">
      <path id="Path-18" data-name="Path" class="cls-4" d="M130,40.41l-15,8.66L80,28.86,95,20.2Z"/>
      <path id="Path-19" data-name="Path" class="cls-3" d="M80,28.86V43.3l20,11.54,12.5-7.21Z"/>
      <path id="Path-20" data-name="Path" class="cls-5" d="M112.5,50.51l-5-2.88V53.4Z"/>
      <path id="Path-21" data-name="Path" class="cls-5" d="M105,51.96V46.18L95,40.41V51.96l5,2.88Z"/>
      <path id="Path-22" data-name="Path" class="cls-5" d="M92.5,38.97l-10-5.78V44.74l10,5.77Z"/>
      <g id="Group-3" data-name="Group">
        <ellipse id="Ellipse" class="cls-6" cx="119.8873" cy="43.7824" rx="5.2947" ry="3.0569"/>
        <rect id="Rectangle" class="cls-6" x="114.593" y="41.117" width="10.589" height="2.665"/>
        <ellipse id="Ellipse-2" data-name="Ellipse" class="cls-7" cx="119.8873" cy="41.1173" rx="5.2947" ry="3.0569"/>
      </g>
      <g id="Group-4" data-name="Group">
        <ellipse id="Ellipse-3" data-name="Ellipse" class="cls-6" cx="107.0386" cy="36.5936" rx="5.2947" ry="3.0569"/>
        <rect id="Rectangle-2" data-name="Rectangle" class="cls-6" x="101.744" y="33.929" width="10.589" height="2.665"/>
        <ellipse id="Ellipse-4" data-name="Ellipse" class="cls-7" cx="107.0386" cy="33.9285" rx="5.2947" ry="3.0569"/>
      </g>
      <g id="Group-5" data-name="Group">
        <ellipse id="Ellipse-5" data-name="Ellipse" class="cls-6" cx="94.19" cy="29.4048" rx="5.2947" ry="3.0569"/>
        <rect id="Rectangle-3" data-name="Rectangle" class="cls-6" x="88.896" y="26.74" width="10.589" height="2.665"/>
        <ellipse id="Ellipse-6" data-name="Ellipse" class="cls-7" cx="94.19" cy="26.7397" rx="5.2947" ry="3.0569"/>
      </g>
    </g>
    <path id="Path-23" data-name="Path" class="cls-1" d="M145,31.75l-5-2.89L90,57.73l5,2.89Z"/>
    <path id="Path-24" data-name="Path" class="exterior-L-light" d="M160,144.33l-5-2.88v57.73l5,2.89Z"/>
    <path id="Path-25" data-name="Path" class="exterior-R-dark" d="M160,144.33l5-2.88v57.73l-5,2.89Z"/>
    <path id="Path-26" data-name="Path" class="exterior-R-dark" d="M180,132.79l5-2.89v57.74l-5,2.88Z"/>
    <path id="Path-27" data-name="Path" class="exterior-R-dark" d="M200,121.24l5-2.89v57.74l-5,2.89Z"/>
    <path id="Path-28" data-name="Path" class="exterior-R-dark" d="M220,109.69l5-2.88v57.73l-5,2.89Z"/>
    <path id="Path-29" data-name="Path" class="exterior-R-dark" d="M240,98.15l5-2.89v57.73l-5,2.89Z"/>
    <path id="Path-30" data-name="Path" class="exterior-L-light" d="M140,132.79l-5-2.89v57.74l5,2.88Z"/>
    <path id="Path-31" data-name="Path" class="exterior-L-light" d="M120,121.24l-5-2.89v57.74l5,2.89Z"/>
    <path id="Path-32" data-name="Path" class="exterior-L-light" d="M100,109.69l-5-2.88v57.73l5,2.89Z"/>
    <path id="Path-33" data-name="Path" class="exterior-L-light" d="M80,98.15l-5-2.89v57.73l5,2.89Z"/>
    <path id="Path-34" data-name="Path" class="exterior-L-light" d="M60,86.6l-5-2.89v57.74l5,2.88Z"/>
    <path id="Path-35" data-name="Path" class="exterior-L-light" d="M40,75.05l-5-2.88V129.9l5,2.89Z"/>
    <path id="Path-36" data-name="Path" class="exterior-L-light" d="M20,63.51l-5-2.89v57.73l5,2.89Z"/>
    <path id="Path-37" data-name="Path" class="exterior-L-light" d="M150,138.56l-5-2.89v57.74l5,2.89Z"/>
    <path id="Path-38" data-name="Path" class="exterior-R-dark" d="M170,138.56l5-2.89v57.74l-5,2.89Z"/>
    <path id="Path-39" data-name="Path" class="exterior-R-dark" d="M190,127.01l5-2.88v57.73l-5,2.89Z"/>
    <path id="Path-40" data-name="Path" class="exterior-R-dark" d="M210,115.47l5-2.89v57.73l-5,2.89Z"/>
    <path id="Path-41" data-name="Path" class="exterior-R-dark" d="M230,103.92l5-2.89v57.74l-5,2.88Z"/>
    <path id="Path-42" data-name="Path" class="exterior-L-light" d="M130,127.01l-5-2.88v57.73l5,2.89Z"/>
    <path id="Path-43" data-name="Path" class="exterior-L-light" d="M110,115.47l-5-2.89v57.73l5,2.89Z"/>
    <path id="Path-44" data-name="Path" class="exterior-L-light" d="M90,103.92l-5-2.89v57.74l5,2.88Z"/>
    <path id="Path-45" data-name="Path" class="exterior-L-light" d="M70,92.37l-5-2.88v57.73l5,2.89Z"/>
    <path id="Path-46" data-name="Path" class="exterior-L-light" d="M50,80.83l-5-2.89v57.73l5,2.89Z"/>
    <path id="Path-47" data-name="Path" class="exterior-L-light" d="M30,69.28l-5-2.89v57.74l5,2.88Z"/>
    <path id="Path-48" data-name="Path" class="exterior-L-light" d="M10,57.73,5,54.84v57.74l5,2.89Z"/>
    <path id="Path-49" data-name="Path" class="exterior-R-prim" d="M140,34.64V49.07L115,63.51l-12.5-7.22Z"/>
  </g>
</svg>
