<svg id="Layer_1" data-name="Layer 1" xmlns="http://www.w3.org/2000/svg" viewBox="0 0 250 157.328">
  <defs>
    <style>
      .cls-1 {
        fill: #e9e8e8;
      }

      .cls-2 {
        fill: #d2d2d2;
      }

      .cls-3 {
        fill: #bababa;
      }

      .cls-4 {
        fill: #8b8b8b;
      }

      .cls-5 {
        fill: #79a886;
      }

      .cls-6 {
        fill: #fff;
      }

      .cls-7 {
        fill: #efcb6d;
      }

      .cls-8 {
        fill: #5d896a;
      }

      .cls-9 {
        fill: #a2a2a1;
      }

      .cls-10 {
        fill: #010101;
      }
    </style>
  </defs>
  <title>Artboard 18</title>
  <g id="root">
    <path id="Path" class="cls-1" d="M160,157.328,0,64.952,90,12.99l160,92.3761Z"/>
    <path id="Path-2" data-name="Path" class="cls-2" d="M240,105.3665l-80.1107,46.188-150-86.6025L90,18.7639Z"/>
    <path id="Path-3" data-name="Path" class="cls-3" d="M9.9631,64.952l9.9262,5.7735,90.0738-51.9616V7.2169Z"/>
    <path id="Path-4" data-name="Path" class="cls-4" d="M230,111.14,90,30.3109V18.7639l150,86.6026Z"/>
    <path id="Path-5" data-name="Path" class="cls-5" d="M7.5,51.9616l90,51.9615,90-51.9615L97.5,0Z"/>
    <path id="Path-6" data-name="Path" class="cls-3" d="M97.5,103.9231v5.7735l90-51.9615V51.9616Z"/>
    <path id="Path-7" data-name="Path" class="cls-4" d="M97.5,103.9231v5.7735L7.5,57.7351V51.9616Z"/>
    <g id="Group">
      <path id="Path-8" data-name="Path" class="cls-3" d="M175,76.499l-2.5,1.4433V66.3953L175,64.952Z"/>
      <path id="Path-9" data-name="Path" class="cls-4" d="M170,67.8387l2.5-1.4434v11.547L170,79.3857Z"/>
    </g>
    <g id="Group-2" data-name="Group">
      <path id="Path-10" data-name="Path" class="cls-3" d="M125,108.2532l-2.5,1.4434V95.2628L125,93.82Z"/>
      <path id="Path-11" data-name="Path" class="cls-4" d="M120,96.7062l2.5-1.4434v14.4338l-2.5-1.4434Z"/>
    </g>
    <g id="Group-3" data-name="Group">
      <path id="Path-12" data-name="Path" class="cls-4" d="M70,99.593l2.5,1.4433V95.2628L70,93.82Z"/>
      <path id="Path-13" data-name="Path" class="cls-3" d="M75,96.7062l-2.5-1.4434v5.7735L75,102.48Z"/>
    </g>
    <g id="Group-4" data-name="Group">
      <path id="Path-14" data-name="Path" class="cls-3" d="M150,90.9327l-2.5,1.4434V80.8291l2.5-1.4434Z"/>
      <path id="Path-15" data-name="Path" class="cls-4" d="M145,82.2725l2.5-1.4434V95.2628L145,93.82Z"/>
    </g>
    <g id="Group-5" data-name="Group">
      <path id="Path-16" data-name="Path" class="cls-4" d="M45,85.1592l2.5,1.4434V80.8291L45,79.3857Z"/>
      <path id="Path-17" data-name="Path" class="cls-3" d="M50,82.2725l-2.5-1.4434v5.7735L50,88.046Z"/>
    </g>
    <g id="Group-6" data-name="Group">
      <path id="Path-18" data-name="Path" class="cls-4" d="M20,70.7255l2.5,1.4433V66.3953L20,64.952Z"/>
      <path id="Path-19" data-name="Path" class="cls-3" d="M25,67.8387l-2.5-1.4434v5.7735L25,73.6122Z"/>
    </g>
    <g id="Group-7" data-name="Group">
      <path id="Path-20" data-name="Path" class="cls-3" d="M100,116.9135,97.5,115.47v-5.7735l2.5-1.4434Z"/>
      <path id="Path-21" data-name="Path" class="cls-4" d="M95,108.2532l2.5,1.4434V115.47L95,114.0267Z"/>
    </g>
    <path id="Path-22" data-name="Path" class="cls-6" d="M97.5,98.15l-80-46.188,80-46.1881,80,46.1881Z"/>
    <path id="Path-23" data-name="Path" class="cls-5" d="M27.5,51.9616l70,40.4145,70-40.4145L97.5,11.547Z"/>
    <path id="Path-24" data-name="Path" class="cls-4" d="M108.75,108.9749l-1.25-.7217v12.99l1.25.7217Z"/>
    <path id="Path-25" data-name="Path" class="cls-4" d="M120,102.48l-1.25-.7217v14.4338l1.25.7217Z"/>
    <path id="Path-26" data-name="Path" class="cls-3" d="M110,109.6966l-1.25-.7217v12.99l1.25.7217Z"/>
    <path id="Path-27" data-name="Path" class="cls-3" d="M121.25,103.2014,120,102.48v14.4338l1.25-.7217Z"/>
    <path id="Path-28" data-name="Path" class="cls-7" d="M75,38.9712h0c-12.4181,7.17-12.4181,18.8112,0,25.9807h0c12.4181,7.17,32.5819,7.17,45,0h0c12.4181-7.1695,12.4181-18.8111,0-25.9807h0C107.5819,31.8016,87.4181,31.8016,75,38.9712Z"/>
    <path id="Path-29" data-name="Path" class="cls-5" d="M80,41.8579h0c-9.6585,5.5764-9.6585,14.6309,0,20.2073h0c9.6585,5.5763,25.3415,5.5763,35,0h0c9.6585-5.5764,9.6585-14.6309,0-20.2073h0C105.3415,36.2816,89.6585,36.2816,80,41.8579Z"/>
    <path id="Path-30" data-name="Path" class="cls-1" d="M106.25,101.758,105,102.48l15,24.5374,1.25-.7217Z"/>
    <path id="Path-31" data-name="Path" class="cls-1" d="M117.5,95.2628l-1.25.7217,15,24.5374,1.25-.7217Z"/>
    <path id="Path-32" data-name="Path" class="cls-4" d="M118.75,127.7388V124.852L105,102.48v2.8868Z"/>
    <path id="Path-33" data-name="Path" class="cls-4" d="M130,121.2436v-2.8867L116.25,95.9845v2.8868Z"/>
    <g id="Group-8" data-name="Group">
      <g id="Group-9" data-name="Group">
        <path id="Path-34" data-name="Path" class="cls-6" d="M95,61.3435l-3.75-2.165L110,48.3531l3.75,2.1651Z"/>
        <path id="Path-35" data-name="Path" class="cls-6" d="M85,55.57l-3.75-2.1651L100,42.58l3.75,2.1651Z"/>
        <path id="Path-36" data-name="Path" class="cls-6" d="M102.5,57.0134,88.75,49.0748,92.5,46.91l13.75,7.9386Z"/>
      </g>
    </g>
    <path id="Path-37" data-name="Path" class="cls-5" d="M120,93.82l2.5,1.4433L105,105.3665l-2.5-1.4434Z"/>
    <path id="Path-38" data-name="Path" class="cls-5" d="M125,102.48l2.5,1.4434L110,114.0267l-2.5-1.4434Z"/>
    <path id="Path-39" data-name="Path" class="cls-5" d="M130,111.14l2.5,1.4434L115,122.687l-2.5-1.4434Z"/>
    <path id="Path-40" data-name="Path" class="cls-5" d="M122.5,98.15,125,99.593l-17.5,10.1036-2.5-1.4434Z"/>
    <path id="Path-41" data-name="Path" class="cls-5" d="M127.5,106.81l2.5,1.4433-17.5,10.1037-2.5-1.4434Z"/>
    <path id="Path-42" data-name="Path" class="cls-5" d="M132.5,115.47l2.5,1.4434-17.5,10.1036-2.5-1.4434Z"/>
    <path id="Path-43" data-name="Path" class="cls-3" d="M160,119.8l-12.5,7.2169-13.75-7.9385-15,8.66L145,142.8942l27.5-15.8771Z"/>
    <path id="Path-44" data-name="Path" class="cls-4" d="M112.5,118.3569l-2.5-1.4434v1.4434l2.5,1.4433Z"/>
    <path id="Path-45" data-name="Path" class="cls-4" d="M107.5,109.6966l-2.5-1.4434v1.4434l2.5,1.4434Z"/>
    <path id="Path-46" data-name="Path" class="cls-4" d="M115,122.687l-2.5-1.4434v1.4434L115,124.13Z"/>
    <path id="Path-47" data-name="Path" class="cls-4" d="M110,114.0267l-2.5-1.4434v1.4434L110,115.47Z"/>
    <path id="Path-48" data-name="Path" class="cls-4" d="M105,105.3665l-2.5-1.4434v1.4434L105,106.81Z"/>
    <path id="Path-49" data-name="Path" class="cls-3" d="M122.5,96.7062,105,106.81v-1.4434l17.5-10.1037Z"/>
    <path id="Path-50" data-name="Path" class="cls-3" d="M125,101.0363,107.5,111.14v-1.4434L125,99.593Z"/>
    <path id="Path-51" data-name="Path" class="cls-3" d="M127.5,105.3665,110,115.47v-1.4434l17.5-10.1036Z"/>
    <path id="Path-52" data-name="Path" class="cls-3" d="M130,109.6966,112.5,119.8v-1.4433L130,108.2532Z"/>
    <path id="Path-53" data-name="Path" class="cls-3" d="M132.5,114.0267,115,124.13V122.687l17.5-10.1037Z"/>
    <path id="Path-54" data-name="Path" class="cls-3" d="M135,118.3569l-16.25,9.3819-1.25-.7217L135,116.9135Z"/>
    <path id="Path-55" data-name="Path" class="cls-8" d="M50,56.2917l-2.5,1.4434-10-5.7735L40,50.5182Z"/>
    <path id="Path-56" data-name="Path" class="cls-8" d="M157.5,51.9616,155,53.4049l-10-5.7735,2.5-1.4433Z"/>
    <path id="Path-57" data-name="Path" class="cls-1" d="M220,85.1592l-42.5,24.5374-30-17.3205L190,67.8387Z"/>
    <path id="Path-58" data-name="Path" class="cls-3" d="M177.5,109.6966,220,85.1592v20.2073l-42.5,24.5374Z"/>
    <path id="Path-59" data-name="Path" class="cls-4" d="M147.5,92.3761v20.2072l30,17.3206V109.6966Z"/>
    <path id="Path-60" data-name="Path" class="cls-3" d="M190,73.6122,157.5,92.3761l20,11.547L210,85.1592Z"/>
    <path id="Path-61" data-name="Path" class="cls-4" d="M210,85.1592l-2.5,1.4434L190,76.499V73.6122Z"/>
    <path id="Path-62" data-name="Path" class="cls-9" d="M190,73.6122V76.499L160,93.82l-2.5-1.4434Z"/>
    <path id="Path-63" data-name="Path" class="cls-3" d="M162.5,105.3665,165,106.81V119.8l-2.5,1.4434Z"/>
    <path id="Path-64" data-name="Path" class="cls-3" d="M170,125.5737l-2.5,1.4434-7.5-4.33,5-2.8868,5,2.8868Z"/>
    <path id="Path-65" data-name="Path" class="cls-10" d="M165,106.81l5,2.8867v12.99L165,119.8Z"/>
  </g>
</svg>
