<svg id="Layer_1" data-name="Layer 1" xmlns="http://www.w3.org/2000/svg" xmlns:xlink="http://www.w3.org/1999/xlink" viewBox="0 0 250 178.9786">
  <defs>
    <style>
      .cls-1 {
        fill: none;
      }

      .top-light {
        fill: #ffc8c6;
      }

      .exterior-R-prim {
        fill: #d05752;
      }

      .exterior-L-prim {
        fill: #73302e;
      }

      .top-prim {
        fill: #dd8a87;
      }

      .cls-2 {
        fill: #9b8c85;
      }

      .exterior-R-light {
        fill: #df5d58;
      }

      .exterior-L-light {
        fill: #8a3a37;
      }

      .cls-3 {
        fill: #f9f9f9;
      }

      .cls-4 {
        fill: #b9b9b9;
      }

      .cls-5 {
        fill: #d1d1d1;
      }

      .cls-6 {
        fill: #464646;
      }

      .cls-7 {
        fill: #fff;
      }

      .cls-8 {
        fill: #a2a2a2;
      }

      .cls-9 {
        fill: #e8e8e8;
      }

      .cls-10 {
        fill: #acacac;
      }

      .cls-11 {
        fill: #c6c6c6;
      }

      .cls-12 {
        fill: #4a4a4a;
      }

      .cls-13 {
        fill: #b5b5b5;
      }

      .cls-14 {
        fill: #6c6c6c;
      }

      .cls-15 {
        fill: #0177c0;
      }

      .cls-16 {
        clip-path: url(#clip-path);
      }

      .cls-17 {
        fill: #8e8e8e;
      }

      .cls-18 {
        clip-path: url(#clip-path-2);
      }
    </style>
    <clipPath id="clip-path">
      <polygon class="cls-1" points="220.984 54.174 171.165 82.937 171.165 112.806 220.984 84.043 220.984 54.174"/>
    </clipPath>
    <clipPath id="clip-path-2">
      <polygon class="cls-1" points="147.835 82.937 98.016 54.174 98.016 84.043 147.835 112.806 147.835 82.937"/>
    </clipPath>
  </defs>
  <title>Artboard 14</title>
  <g id="root">
    <g id="Group">
      <path id="Path" class="top-light" d="M250,98.15V92.3761L90,0,0,51.9616v5.7735l160,92.376Z"/>
      <path id="Path-2" data-name="Path" class="exterior-R-prim" d="M150,173.2051l10,5.7735,90-51.9615V92.3761l-90,51.9615-10-5.7735Z"/>
      <path id="Path-3" data-name="Path" class="exterior-L-prim" d="M0,51.9616v34.641l160,92.376v-34.641Z"/>
      <path id="Path-4" data-name="Path" class="top-prim" d="M90,5.7735,240,92.3761l-80,46.188L10,51.9616Z"/>
      <path id="Path-5" data-name="Path" class="exterior-L-prim" d="M90,5.7735V11.547L235,95.2628l5-2.8867Z"/>
      <path id="Path-6" data-name="Path" class="exterior-R-prim" d="M10,51.9616,90,5.7735V11.547L15,54.8483Z"/>
      <path id="Path-7" data-name="Path" class="cls-2" d="M115,25.9808l30,17.3205L70,86.6026l-30-17.32Z"/>
      <path id="Path-8" data-name="Path" class="exterior-L-prim" d="M115,20.2073V49.0748l10,5.7735,25-14.4338Z"/>
      <path id="Path-9" data-name="Path" class="exterior-R-prim" d="M115,49.0748,60,80.8291,40,69.2821l75-43.3013Z"/>
      <path id="Path-10" data-name="Path" class="exterior-R-light" d="M170,138.5641l10-5.7735v34.641l-10,5.7735Z"/>
      <path id="Path-11" data-name="Path" class="exterior-L-light" d="M160,144.3376l-10-5.7735v34.641l10,5.7735Z"/>
      <path id="Path-12" data-name="Path" class="exterior-R-light" d="M210,115.47l10-5.7735v34.641l-10,5.7735Z"/>
      <path id="Path-13" data-name="Path" class="exterior-L-light" d="M120,121.2436,110,115.47v34.641l10,5.7735Z"/>
      <path id="Path-14" data-name="Path" class="exterior-L-light" d="M60,86.6026,50,80.8291V115.47l10,5.7735Z"/>
      <path id="Path-15" data-name="Path" class="exterior-R-light" d="M190,127.0171l10-5.7735v34.641l-10,5.7735Z"/>
      <path id="Path-16" data-name="Path" class="exterior-L-light" d="M140,132.7906l-10-5.7735v34.641l10,5.7735Z"/>
      <path id="Path-17" data-name="Path" class="exterior-R-light" d="M230,103.9231,240,98.15v34.641l-10,5.7735Z"/>
      <path id="Path-18" data-name="Path" class="exterior-L-light" d="M100,109.6966l-10-5.7735v34.641l10,5.7735Z"/>
      <path id="Path-19" data-name="Path" class="exterior-L-light" d="M40,75.0556,30,69.2821V103.923l10,5.7736Z"/>
      <path id="Path-20" data-name="Path" class="exterior-L-light" d="M80,98.15,70,92.3761v34.641l10,5.7735Z"/>
      <path id="Path-21" data-name="Path" class="exterior-L-light" d="M20,63.5085,10,57.735V92.376L20,98.15Z"/>
      <path id="Path-22" data-name="Path" class="cls-3" d="M58.75,62.7869,77.5,73.6122l50-28.8675L108.75,33.9194Z"/>
      <path id="Path-23" data-name="Path" class="cls-4" d="M77.5,73.6122v8.66l-7.5,4.33L58.75,80.1074v-17.32Z"/>
      <path id="Path-24" data-name="Path" class="cls-5" d="M127.5,44.7447v8.66l-50,28.8675v-8.66Z"/>
      <path id="Path-25" data-name="Path" class="cls-6" d="M81.25,75.7772,92.5,69.2821v4.33L81.25,80.1074Z"/>
      <path id="Path-26" data-name="Path" class="cls-6" d="M112.5,57.7351,123.75,51.24v4.33L112.5,62.0652Z"/>
      <path id="Path-27" data-name="Path" class="cls-6" d="M96.875,66.7435l11.25-6.4952v4.33l-11.25,6.4952Z"/>
      <ellipse id="Ellipse" class="cls-4" cx="77.3864" cy="62.6263" rx="6.8182" ry="3.9365"/>
      <rect id="Rectangle" class="cls-4" x="70.568" y="59.1944" width="13.636" height="3.432"/>
      <ellipse id="Ellipse-2" data-name="Ellipse" class="cls-7" cx="77.3864" cy="59.1944" rx="6.8182" ry="3.9365"/>
      <ellipse id="Ellipse-3" data-name="Ellipse" class="cls-4" cx="93.9318" cy="53.3691" rx="6.8182" ry="3.9365"/>
      <rect id="Rectangle-2" data-name="Rectangle" class="cls-4" x="87.114" y="49.9374" width="13.636" height="3.432"/>
      <ellipse id="Ellipse-4" data-name="Ellipse" class="cls-7" cx="93.9318" cy="49.9372" rx="6.8182" ry="3.9365"/>
      <ellipse id="Ellipse-5" data-name="Ellipse" class="cls-4" cx="110.4773" cy="44.1119" rx="6.8182" ry="3.9365"/>
      <rect id="Rectangle-3" data-name="Rectangle" class="cls-4" x="103.659" y="40.6804" width="13.636" height="3.432"/>
      <ellipse id="Ellipse-6" data-name="Ellipse" class="cls-7" cx="110.4773" cy="40.68" rx="6.8182" ry="3.9365"/>
    </g>
    <g>
      <g id="Group-2" data-name="Group">
        <path id="Path-28" data-name="Path" class="cls-8" d="M187.4518,61.3647V72.4276l1.9161,1.106v-8.85L193.2,66.8962l1.9161-1.1068Z"/>
        <path id="Path-29" data-name="Path" class="cls-9" d="M220.9838,50.8553,213.3193,46.43l-1.9161,1.1067,7.6644,4.4247Z"/>
        <path id="Path-30" data-name="Path" class="cls-8" d="M211.4032,47.5366V58.5987l1.9161,1.1067v-8.85l3.8322,2.2127,1.9161-1.1067Z"/>
        <path id="Path-31" data-name="Path" class="cls-5" d="M215.2354,58.5987V51.9613l-1.9161-1.106v8.85Z"/>
        <path id="Path-32" data-name="Path" class="cls-9" d="M197.0324,64.6835l-7.6645-4.4255-1.9161,1.1067,7.6645,4.4247Z"/>
        <path id="Path-33" data-name="Path" class="cls-5" d="M191.2841,72.4276V65.7894l-1.9162-1.1059v8.85Z"/>
        <path id="Path-34" data-name="Path" class="cls-9" d="M217.1515,48.6425,165.4166,78.5116l-1.9161-1.1059V75.193L213.3193,46.43Z"/>
        <path id="Path-35" data-name="Path" class="cls-5" d="M213.3193,50.8553V48.6425L191.2841,61.3647,193.2,62.4708Z"/>
        <path id="Path-36" data-name="Path" class="cls-5" d="M189.3679,64.6835V62.4708L167.3327,75.193l1.9161,1.1059Z"/>
        <path id="Path-37" data-name="Path" class="cls-10" d="M171.1649,127.1877l-9.58-5.5314,3.8322-2.2127,9.5805,5.5314Z"/>
        <path id="Path-38" data-name="Path" class="cls-10" d="M195.1163,113.36l-9.5806-5.5315,3.8322-2.2127,9.5806,5.5314Z"/>
        <path id="Path-39" data-name="Path" class="cls-10" d="M219.0676,99.5306l-9.58-5.5314,3.8322-2.212L222.9,97.3187Z"/>
        <path id="Path-40" data-name="Path" class="cls-11" d="M173.081,124.975l-1.9161,1.106v-8.85l1.9161-1.106Z"/>
        <path id="Path-41" data-name="Path" class="cls-8" d="M169.2488,124.975l1.9161,1.106v-9.9561l-1.9161-1.106Z"/>
        <path id="Path-42" data-name="Path" class="cls-11" d="M197.0324,111.1468l-1.9161,1.106v-8.85l1.9161-1.106Z"/>
        <path id="Path-43" data-name="Path" class="cls-8" d="M193.2,111.1468l1.9161,1.106v-9.9561L193.2,101.19Z"/>
        <path id="Path-44" data-name="Path" class="cls-11" d="M191.2841,107.8281l-1.9162,1.106v-8.85l1.9162-1.106Z"/>
        <path id="Path-45" data-name="Path" class="cls-8" d="M187.4518,107.8281l1.9161,1.106V98.978l-1.9161-1.1067Z"/>
        <path id="Path-46" data-name="Path" class="cls-11" d="M215.2354,93.9992l-1.9161,1.1067v-8.85l1.9161-1.1067Z"/>
        <path id="Path-47" data-name="Path" class="cls-8" d="M211.4032,93.9992l1.9161,1.1067V85.1491l-1.9161-1.106Z"/>
        <path id="Path-48" data-name="Path" class="cls-11" d="M220.9838,97.3187l-1.9162,1.1059v-8.85l1.9162-1.106Z"/>
        <path id="Path-49" data-name="Path" class="cls-8" d="M217.1515,97.3187l1.9161,1.1059V88.4685l-1.9161-1.1067Z"/>
        <path id="Path-50" data-name="Path" class="cls-9" d="M173.081,78.5116l-7.6644-4.4246-1.9161,1.106,7.6644,4.4254Z"/>
        <path id="Path-51" data-name="Path" class="cls-8" d="M163.5005,75.193v46.4633l1.9161,1.106V78.5116l3.8322,2.2128,1.9161-1.106Z"/>
        <path id="Path-52" data-name="Path" class="cls-5" d="M167.3327,121.6563V79.6184l-1.9161-1.1068v44.2507Z"/>
        <path id="Path-53" data-name="Path" class="cls-8" d="M171.1649,122.7623l-7.6644-4.4247v-2.2127l7.6644,4.4247Z"/>
        <path id="Path-54" data-name="Path" class="cls-9" d="M169.2488,117.2309l-1.9161-1.106-1.9161,1.106,3.8322,2.2127Z"/>
        <path id="Path-55" data-name="Path" class="cls-9" d="M169.2488,108.3807v-2.2119l-1.9161,1.106v2.2127Z"/>
        <path id="Path-56" data-name="Path" class="cls-9" d="M169.2488,115.0189v-2.2127l-1.9161,1.1059v2.2128Z"/>
        <path id="Path-57" data-name="Path" class="cls-5" d="M169.2488,110.5935l-1.9161-1.106,1.9161-1.1068Z"/>
        <path id="Path-58" data-name="Path" class="cls-5" d="M169.2488,117.2309l-1.9161-1.106,1.9161-1.106Z"/>
        <path id="Path-59" data-name="Path" class="cls-8" d="M171.1649,113.9121l-7.6644-4.4246v2.2119l7.6644,4.4255Z"/>
        <path id="Path-60" data-name="Path" class="cls-9" d="M167.3327,109.4875l-1.9161,1.106,3.8322,2.2127v-2.2127Z"/>
        <path id="Path-61" data-name="Path" class="cls-8" d="M169.2488,78.5116l1.9161,1.1068v37.6125l-1.9161-1.106Z"/>
        <path id="Path-62" data-name="Path" class="cls-12" d="M172.123,112.2528l-.9581.5534-1.9161-1.1068v4.4255l1.9161,1.106.9581-.5527Z"/>
        <path id="Path-63" data-name="Path" class="cls-12" d="M172.123,79.065v3.3187l-.9581.5534L169.2488,81.83V78.5116l1.9161,1.1068Z"/>
        <path id="Path-64" data-name="Path" class="cls-5" d="M173.081,76.2989l-1.9161,3.3195v37.6125l49.8189-28.7624V50.8553l-1.9162-1.1067Z"/>
        <path id="Path-65" data-name="Path" class="cls-13" d="M169.2488,78.5116l1.9161,1.1068,49.8189-28.7631-1.9162-1.1067Z"/>
        <path id="Path-66" data-name="Path" class="cls-14" d="M220.9838,81.83l-49.8189,28.7631v6.6374l49.8189-28.7624Z"/>
        <path id="Path-67" data-name="Path" class="cls-14" d="M220.9838,50.8553v6.6374L171.1649,86.2558V79.6184Z"/>
        <path id="Path-68" data-name="Path" class="cls-8" d="M189.3679,62.4708,193.2,64.6835l-1.9161,1.1059-1.9162-1.1059Z"/>
        <path id="Path-69" data-name="Path" class="cls-8" d="M213.3193,48.6425l3.8322,2.2128-1.9161,1.106-1.9161-1.106Z"/>
        <g id="Group-3" data-name="Group">
          <path id="Mask" class="cls-15" d="M220.9838,54.174,171.1649,82.9371v29.8691l49.8189-28.7631Z"/>
          <g class="cls-16">
            <g id="Group-4" data-name="Group">
              <path id="Path-70" data-name="Path" class="cls-1" d="M188.4406,83.7725l7.1126-4.15.0213-.2322-7.09,4.0936Z"/>
              <path id="Path-71" data-name="Path" class="cls-1" d="M188.2428,84.9843l1.976-1.1413c.1094-.0628.2191-.1486.3287-.2115.0882-.0506.154-.0889.2414-.1395l4.5665-2.658.0436-.2668-7.09,4.0936Z"/>
              <path id="Path-72" data-name="Path" class="cls-1" d="M187.6066,91.0806a.4253.4253,0,0,0,.1312.0782l1.5153-.8745a4.196,4.196,0,0,0,.351-.5542c.0659-.1257.1317-.2736.1976-.4215L187.43,90.6774v.066A.5738.5738,0,0,0,187.6066,91.0806Z"/>
              <path id="Path-73" data-name="Path" class="cls-1" d="M187.3867,89.9784c0,.0874-.0223.21-.0223.2982l2.5907-1.4953a3.4186,3.4186,0,0,0,.1318-.6033c.0222-.1226.0222-.2544.0437-.3763l-2.6342,1.5207c-.0215.1226-.0438.223-.0661.3448C187.409,89.7684,187.409,89.8558,187.3867,89.9784Z"/>
              <path id="Path-74" data-name="Path" class="cls-1" d="M189.9113,86.8528c-.154-.1747-.4391-.1417-.8345.0859a2.8378,2.8378,0,0,0-.6585.5342,3.4311,3.4311,0,0,0-.4828.696,4.7377,4.7377,0,0,0-.2851.6254l2.4587-1.42A.6842.6842,0,0,0,189.9113,86.8528Z"/>
              <path id="Path-75" data-name="Path" class="cls-1" d="M193.2039,84.0737l.637-.3678v-.0223l-.637.39Z"/>
              <path id="Path-76" data-name="Path" class="cls-1" d="M188.0673,86.1171c.0658-.1042.1319-.2077.2193-.3242l-.1755.1011Z"/>
              <path id="Path-77" data-name="Path" class="cls-1" d="M192.633,83.3272c.0445.0406.11.0682.154.1089l1.2071-.6968.0438-.2452-1.4264.8239Z"/>
              <path id="Path-78" data-name="Path" class="cls-1" d="M203.938,80.9275a4.87,4.87,0,0,0-.6584.6653,2.146,2.146,0,0,0-.2414.4031,1.5264,1.5264,0,0,0-.1095.3924v.0874a.2764.2764,0,0,0,.0659.2039.3073.3073,0,0,0,.1755.0958,1.2617,1.2617,0,0,0,.6806-.2169,3.3937,3.3937,0,0,0,.7466-.5848,3.5453,3.5453,0,0,0,.5486-.7557,5.1482,5.1482,0,0,0,.351-.8393,4.87,4.87,0,0,0,.1756-.8921,9.4467,9.4467,0,0,1-.8784.7925A8.6989,8.6989,0,0,0,203.938,80.9275Z"/>
              <path id="Path-79" data-name="Path" class="cls-7" d="M187.43,93.4872a2.5324,2.5324,0,0,0,1.5153-.479,7.791,7.791,0,0,0,1.7123-1.3183,9.38,9.38,0,0,0,1.0316-1.2762L186.86,93.2021A.981.981,0,0,0,187.43,93.4872Z"/>
              <path id="Path-80" data-name="Path" class="cls-7" d="M189.6041,89.73a4.2128,4.2128,0,0,1-.351.5542l3.5339-2.0411c0-.0215.0215-.056.0215-.0782.0882-.2483.154-.4836.22-.72L189.78,89.3216A2.7572,2.7572,0,0,1,189.6041,89.73Z"/>
              <path id="Path-81" data-name="Path" class="cls-7" d="M183.9407,94.0314l-25.7494,15.0637-.11.2835,28.6465-16.54,5.3782-3.1049a7.41,7.41,0,0,0,.4607-.9243l-8.5826,4.955Z"/>
              <path id="Path-82" data-name="Path" class="cls-7" d="M190.1091,88.165q-.0668.3024-.1319.6032l3.2046-1.85c.0444-.223.1095-.4806.1318-.6906.0222-.1.0222-.1885.0437-.2889l-3.2046,1.85C190.1306,87.9328,190.1306,88.0432,190.1091,88.165Z"/>
              <path id="Path-83" data-name="Path" class="cls-7" d="M183.7208,95.4753l-25.859,15.1273-.11.2829,28.7563-16.6027v-.11l.1317-.8446-2.8534,1.6478Z"/>
              <path id="Path-84" data-name="Path" class="cls-7" d="M197.7483,85.3131a.2586.2586,0,0,1-.1542-.0866.5656.5656,0,0,1-.0436-.2162.74.74,0,0,1,.0215-.21,2.0741,2.0741,0,0,1,.0444-.2889l.5043-3.1892,1.5153-.8745.0215-.1226-5.8166,3.3585v.0223l-.637.3678v-.0222l-8.4515,4.8792v.0659l-24.6955,14.4115-.11.2827,24.7179-14.27-.11.7442-25.0466,14.6582-.11.2828,27.33-15.7788.9437-.5449a5.4883,5.4883,0,0,1,.2857-.6262,4.0947,4.0947,0,0,1,.483-.6959,2.5916,2.5916,0,0,1,.6583-.5335c.4171-.2406.6807-.2613.834-.0866a1.2228,1.2228,0,0,1,.22.51l3.249-1.8755c0-.0881.0215-.1885.0215-.2759a2.9758,2.9758,0,0,0-.0874-.7833l1.58-.9128-.5265,3.3118c-.0445.2881-.0881.5771-.11.8093-.0215.21-.0436.4423-.0436.64a1.4606,1.4606,0,0,0,.1317.6484.4331.4331,0,0,0,.4169.22,1.8919,1.8919,0,0,0,.7689-.2016c.3946-.1847.8115-.4031,1.2071-.6315.2629-.1518.5266-.3043.8338-.5036.3075-.177.637-.3893.988-.6139l.3733-2.4764-.505.2913A1.1911,1.1911,0,0,1,197.7483,85.3131Z"/>
              <path id="Compound_Path" data-name="Compound Path" class="cls-7" d="M209.1628,73.8938a.6454.6454,0,0,0-.5709-.351,2.603,2.603,0,0,0-1.12.207,14.05,14.05,0,0,0-1.822.8982,16.8776,16.8776,0,0,0-2.1068,1.4148,10.8747,10.8747,0,0,0-1.493,1.41,6.8162,6.8162,0,0,0-.9437,1.4011,5.2579,5.2579,0,0,0-.4391,1.4171l3.1385-1.8126a1.4722,1.4722,0,0,1,.22-.5434,2.1262,2.1262,0,0,1,.3288-.4315,2.2021,2.2021,0,0,1,.3733-.3258,3.5855,3.5855,0,0,1,.3733-.2376,1.7769,1.7769,0,0,1,.2857-.1425,1.8573,1.8573,0,0,1,.329-.1019.5441.5441,0,0,1,.2636.0229.2021.2021,0,0,1,.0874.0813.29.29,0,0,1,.0221.141v.1319a1.2411,1.2411,0,0,1-.1755.4521,2.1082,2.1082,0,0,1-.3511.4009,12.7206,12.7206,0,0,1-1.142.9006c-.4382.3188-.9219.6415-1.4485,1.0339a13.0818,13.0818,0,0,0-1.4707,1.2225,8.0826,8.0826,0,0,0-1.2294,1.5,4.6256,4.6256,0,0,0-.6806,1.8418,4.2592,4.2592,0,0,0-.0438.5081,1.3394,1.3394,0,0,0,.1978.7642.827.827,0,0,0,.5488.2973,1.7494,1.7494,0,0,0,.8123-.0958,4.9564,4.9564,0,0,0,.9873-.4606,11.6491,11.6491,0,0,0,1.7121-1.2079,10.2712,10.2712,0,0,0,1.5812-1.79l.0215.8653,2.9417-1.6984.1976-1.3214.6585-4.2216c.0436-.2452.0659-.4989.11-.722.022-.21.0443-.4422.0443-.64A3.3354,3.3354,0,0,0,209.1628,73.8938Zm-3.6659,6.4627a3.909,3.909,0,0,1-.351.8392,4.2332,4.2332,0,0,1-.5486.7565,3.3659,3.3659,0,0,1-.7466.5841,1.099,1.099,0,0,1-.6806.2176.2322.2322,0,0,1-.1755-.0966.2754.2754,0,0,1-.0659-.203v-.066a1.5264,1.5264,0,0,1,.1095-.3924,1.5819,1.5819,0,0,1,.2414-.4031,3.8953,3.8953,0,0,1,.6584-.6653c.2637-.2185.5274-.4361.8348-.6791a8.6159,8.6159,0,0,0,.8774-.7925A4.2145,4.2145,0,0,1,205.4969,80.3565Z"/>
              <path id="Path-85" data-name="Path" class="cls-7" d="M187.7378,91.1588c-.0438-.0192-.0874-.0591-.1312-.0782a.5738.5738,0,0,1-.1763-.3372v-.066l-3.2482,1.8755-.0443.2667-25.5073,14.925-.11.2828,28.6473-16.5391Z"/>
              <path id="Path-86" data-name="Path" class="cls-7" d="M187.3644,90.2766a1.4,1.4,0,0,1,.0223-.2982,1.7087,1.7087,0,0,1,.0436-.3112c.0223-.1218.0446-.2222.0661-.3448l-3.095,1.7865-.0881.512-25.2444,14.7724-.11.2829,27.769-16.0325Z"/>
              <path id="Path-87" data-name="Path" class="cls-7" d="M199.7456,79.8353l.11-.7212-5.8174,3.3585-.0438.2445-1.2071.6967a.5453.5453,0,0,0-.154-.1088l-.0438-.0184-4.3241,2.4971c-.0659.1035-.132.2077-.22.3242l.0445-.2231L184.928,87.71l-.0438.3111-24.4978,14.32-.11.2828,3.2927-1.9015,31.5-18.1862Z"/>
              <path id="Path-88" data-name="Path" class="cls-7" d="M199.9211,78.6366l.0223-.1886-1.5153.8746.0881-.5335-3.1172,1.8-.0436.2668-4.5665,2.658c-.0874.0513-.1532.0889-.2414.14a2.8111,2.8111,0,0,0-.3287.2123l-1.976,1.14.0438-.2889-3.1609,1.8257-.0437.31-24.2564,14.1364-.11.2828,2.8536-1.6479L197.9238,79.79Z"/>
              <path id="Path-89" data-name="Path" class="cls-7" d="M198.5821,78.3124l.1319-.7351L195.5745,79.39l-.0213.2322-7.1126,4.15.0436-.2889-3.1609,1.8249-.0658.3234-23.9927,14.006-.11.2828,2.4151-1.3941,32.5976-18.82Z"/>
              <path id="Path-90" data-name="Path" class="cls-7" d="M198.78,77.1006l.0874-.5119L195.75,78.3882l-.0213.0568-7.09,4.1158.0873-.6216-3.1608,1.8249-.11.6561L161.7032,98.2867l-.11.2836,1.976-1.1413L198.363,77.3413Z"/>
            </g>
          </g>
        </g>
      </g>
      <g id="Group-5" data-name="Group">
        <g id="Group-6" data-name="Group">
          <path id="Path-91" data-name="Path" class="cls-11" d="M131.5482,61.3647V72.4276l-1.9161,1.106v-8.85L125.8,66.8962l-1.9161-1.1068Z"/>
          <path id="Path-92" data-name="Path" class="cls-9" d="M98.0162,50.8553l7.6645-4.4254,1.9161,1.1067-7.6644,4.4247Z"/>
          <path id="Path-93" data-name="Path" class="cls-11" d="M107.5968,47.5366V58.5987l-1.9161,1.1067v-8.85l-3.8322,2.2127-1.9161-1.1067Z"/>
          <path id="Path-94" data-name="Path" class="cls-8" d="M103.7646,58.5987V51.9613l1.9161-1.106v8.85Z"/>
          <path id="Path-95" data-name="Path" class="cls-9" d="M121.9676,64.6835l7.6645-4.4255,1.9161,1.1067-7.6645,4.4247Z"/>
          <path id="Path-96" data-name="Path" class="cls-8" d="M127.7159,72.4276V65.7894l1.9162-1.1059v8.85Z"/>
          <path id="Path-97" data-name="Path" class="cls-9" d="M101.8485,48.6425l51.7349,29.8691L155.5,77.4057V75.193L105.6807,46.43Z"/>
          <path id="Path-98" data-name="Path" class="cls-8" d="M105.6807,50.8553V48.6425l22.0352,12.7222L125.8,62.4708Z"/>
          <path id="Path-99" data-name="Path" class="cls-8" d="M129.6321,64.6835V62.4708L151.6673,75.193l-1.9161,1.1059Z"/>
          <path id="Path-100" data-name="Path" class="cls-10" d="M147.8351,127.1877l9.5805-5.5314-3.8322-2.2127-9.58,5.5314Z"/>
          <path id="Path-101" data-name="Path" class="cls-10" d="M123.8837,113.36l9.5806-5.5315-3.8322-2.2127-9.5806,5.5314Z"/>
          <path id="Path-102" data-name="Path" class="cls-10" d="M99.9324,99.5306l9.5805-5.5314-3.8322-2.212L96.1,97.3187Z"/>
          <path id="Path-103" data-name="Path" class="cls-8" d="M145.919,124.975l1.9161,1.106v-8.85l-1.9161-1.106Z"/>
          <path id="Path-104" data-name="Path" class="cls-11" d="M149.7512,124.975l-1.9161,1.106v-9.9561l1.9161-1.106Z"/>
          <path id="Path-105" data-name="Path" class="cls-8" d="M121.9676,111.1468l1.9161,1.106v-8.85l-1.9161-1.106Z"/>
          <path id="Path-106" data-name="Path" class="cls-11" d="M125.8,111.1468l-1.9161,1.106v-9.9561L125.8,101.19Z"/>
          <path id="Path-107" data-name="Path" class="cls-8" d="M127.7159,107.8281l1.9162,1.106v-8.85l-1.9162-1.106Z"/>
          <path id="Path-108" data-name="Path" class="cls-11" d="M131.5482,107.8281l-1.9161,1.106V98.978l1.9161-1.1067Z"/>
          <path id="Path-109" data-name="Path" class="cls-8" d="M103.7646,93.9992l1.9161,1.1067v-8.85l-1.9161-1.1067Z"/>
          <path id="Path-110" data-name="Path" class="cls-11" d="M107.5968,93.9992l-1.9161,1.1067V85.1491l1.9161-1.106Z"/>
          <path id="Path-111" data-name="Path" class="cls-8" d="M98.0162,97.3187l1.9162,1.1059v-8.85l-1.9162-1.106Z"/>
          <path id="Path-112" data-name="Path" class="cls-11" d="M101.8485,97.3187l-1.9161,1.1059V88.4685l1.9161-1.1067Z"/>
          <path id="Path-113" data-name="Path" class="cls-9" d="M145.919,78.5116l7.6644-4.4246L155.5,75.193l-7.6644,4.4254Z"/>
          <path id="Path-114" data-name="Path" class="cls-11" d="M155.5,75.193v46.4633l-1.9161,1.106V78.5116l-3.8322,2.2128-1.9161-1.106Z"/>
          <path id="Path-115" data-name="Path" class="cls-8" d="M151.6673,121.6563V79.6184l1.9161-1.1068v44.2507Z"/>
          <path id="Path-116" data-name="Path" class="cls-11" d="M147.8351,122.7623l7.6644-4.4247v-2.2127l-7.6644,4.4247Z"/>
          <path id="Path-117" data-name="Path" class="cls-9" d="M149.7512,117.2309l1.9161-1.106,1.9161,1.106-3.8322,2.2127Z"/>
          <path id="Path-118" data-name="Path" class="cls-9" d="M149.7512,108.3807v-2.2119l1.9161,1.106v2.2127Z"/>
          <path id="Path-119" data-name="Path" class="cls-9" d="M149.7512,115.0189v-2.2127l1.9161,1.1059v2.2128Z"/>
          <path id="Path-120" data-name="Path" class="cls-5" d="M149.7512,110.5935l1.9161-1.106-1.9161-1.1068Z"/>
          <path id="Path-121" data-name="Path" class="cls-5" d="M149.7512,117.2309l1.9161-1.106-1.9161-1.106Z"/>
          <path id="Path-122" data-name="Path" class="cls-11" d="M147.8351,113.9121l7.6644-4.4246v2.2119l-7.6644,4.4255Z"/>
          <path id="Path-123" data-name="Path" class="cls-9" d="M151.6673,109.4875l1.9161,1.106-3.8322,2.2127v-2.2127Z"/>
          <path id="Path-124" data-name="Path" class="cls-8" d="M149.7512,78.5116l-1.9161,1.1068v37.6125l1.9161-1.106Z"/>
          <path id="Path-125" data-name="Path" class="cls-11" d="M129.6321,62.4708,125.8,64.6835l1.9161,1.1059,1.9162-1.1059Z"/>
          <path id="Path-126" data-name="Path" class="cls-11" d="M105.6807,48.6425l-3.8322,2.2128,1.9161,1.106,1.9161-1.106Z"/>
        </g>
        <g id="Group-7" data-name="Group">
          <g id="Group-8" data-name="Group">
            <path id="Path-127" data-name="Path" class="cls-5" d="M99.9324,49.7486l-1.9162,1.1067V88.4685l49.8189,28.7624,1.9161-1.106V78.5116Z"/>
            <path id="Path-128" data-name="Path" class="cls-12" d="M147.8351,110.5935,98.0162,81.83v6.6381l49.8189,28.7624Z"/>
            <path id="Path-129" data-name="Path" class="cls-17" d="M147.8351,112.8062l1.9161-1.1068v4.4255l-1.9161,1.106Z"/>
            <path id="Path-130" data-name="Path" class="cls-12" d="M147.8351,79.6184v6.6374L98.0162,57.4927V50.8553Z"/>
            <path id="Path-131" data-name="Path" class="cls-13" d="M99.9324,49.7486l-1.9162,1.1067,49.8189,28.7631,1.9161-1.1068Z"/>
            <path id="Mask-2" data-name="Mask" class="cls-15" d="M147.8351,82.9371,98.0162,54.174V84.0431l49.8189,28.7631Z"/>
            <g class="cls-18">
              <g id="Group-9" data-name="Group">
                <path id="Path-132" data-name="Path" class="cls-1" d="M115.2919,74.9577l7.1119,4.0621.0221-.2069-7.09-4.0936Z"/>
                <path id="Path-133" data-name="Path" class="cls-1" d="M115.0941,75.941l1.976,1.1405c.1095.0636.2191.105.3288.1686.0881.0506.154.0881.2414.1395l4.5665,2.6136.0436-.2162-7.09-4.0936Z"/>
                <path id="Path-134" data-name="Path" class="cls-1" d="M114.4579,81.303a2.19,2.19,0,0,0,.1312.23l1.5153.8745a.8209.8209,0,0,0,.351-.1487,1.6474,1.6474,0,0,0,.1976-.1931l-2.3713-1.3689v.0659A1.8738,1.8738,0,0,0,114.4579,81.303Z"/>
                <path id="Path-135" data-name="Path" class="cls-1" d="M114.2381,79.9472c0,.0874-.0223.1847-.0223.2721l2.5907,1.4961a1.5181,1.5181,0,0,0,.1317-.4515c.0223-.0965.0223-.2283.0438-.3257l-2.6343-1.5206c-.0215.0973-.0438.1725-.066.269C114.26,79.7617,114.26,79.85,114.2381,79.9472Z"/>
                <path id="Path-136" data-name="Path" class="cls-1" d="M116.7627,79.7364a1.9172,1.9172,0,0,0-.8346-.8768,1.5627,1.5627,0,0,0-.6584-.2268.73.73,0,0,0-.4828.1379,1.0377,1.0377,0,0,0-.2852.2966l2.4588,1.4195A1.77,1.77,0,0,0,116.7627,79.7364Z"/>
                <path id="Path-137" data-name="Path" class="cls-1" d="M120.0552,80.7589l.6363.3679v-.0223l-.6363-.3456Z"/>
                <path id="Path-138" data-name="Path" class="cls-1" d="M114.9186,76.8715a.9339.9339,0,0,1,.2193-.0706l-.1755-.1019Z"/>
                <path id="Path-139" data-name="Path" class="cls-1" d="M119.4843,79.354c.0446.0912.11.1947.154.2859l1.2072.6974.0437-.1939-1.4264-.8239Z"/>
                <path id="Path-140" data-name="Path" class="cls-1" d="M130.7894,90.0075a1.7646,1.7646,0,0,0-.6585-.0942.4156.4156,0,0,0-.2414.1234.5549.5549,0,0,0-.1094.2659v.0882a.6555.6555,0,0,0,.0658.28,1.5741,1.5741,0,0,0,.1756.2989,2.4142,2.4142,0,0,0,.68.5679,1.9765,1.9765,0,0,0,.7457.2775.7944.7944,0,0,0,.55-.1219,1.193,1.193,0,0,0,.351-.4338,2.341,2.341,0,0,0,.1755-.689,4.3027,4.3027,0,0,1-.8783-.2215A5.42,5.42,0,0,0,130.7894,90.0075Z"/>
                <path id="Path-141" data-name="Path" class="cls-7" d="M114.2817,83.5066a4.9754,4.9754,0,0,0,1.5153,1.2692,4.762,4.762,0,0,0,1.7123.66,2.3743,2.3743,0,0,0,1.0316-.0851l-4.8294-2.7883A4.9555,4.9555,0,0,0,114.2817,83.5066Z"/>
                <path id="Path-142" data-name="Path" class="cls-7" d="M116.4554,82.2588a.811.811,0,0,1-.351.1487l3.5339,2.04c0-.0222.0216-.0313.0216-.0536a3.4009,3.4009,0,0,0,.22-.466l-3.2487-1.8755A.63.63,0,0,1,116.4554,82.2588Z"/>
                <path id="Path-143" data-name="Path" class="cls-7" d="M110.7913,80.0208,85.0426,65.3518l-.11.1563L113.58,82.0473l5.3782,3.1048a1.5145,1.5145,0,0,0,.4607-.3924l-8.5827-4.9551Z"/>
                <path id="Path-144" data-name="Path" class="cls-7" d="M116.9605,81.277c-.0446.15-.0882.3-.1319.4507l3.2046,1.85a4.1865,4.1865,0,0,0,.1317-.5381c.0223-.0751.0223-.1633.0438-.2383l-3.2046-1.85C116.982,81.07,116.982,81.18,116.9605,81.277Z"/>
                <path id="Path-145" data-name="Path" class="cls-7" d="M110.5722,81.2111,84.7131,66.4785l-.11.1563L113.36,83.2375v-.11l.1318-.6921-2.8534-1.6478Z"/>
                <path id="Path-146" data-name="Path" class="cls-7" d="M124.6,87.246a1.3079,1.3079,0,0,1-.1541-.2644,1.0484,1.0484,0,0,1-.0436-.2667.5076.5076,0,0,1,.0215-.1847,1.2083,1.2083,0,0,1,.0443-.2384l.5043-2.6059,1.5153.8745.0215-.0973-5.8173-3.3586v.0223l-.6363-.3679v-.0215l-8.4514-4.88v.0659L86.9082,61.8193l-.11.1563,24.7178,14.27-.11.617L86.3594,62.6l-.11.1555,27.33,15.7789.9436.5449a1.1725,1.1725,0,0,1,.2858-.2958.8547.8547,0,0,1,.4829-.138,1.4242,1.4242,0,0,1,.6583.2261,1.8657,1.8657,0,0,1,.834.8768,3.5168,3.5168,0,0,1,.22.7634l3.2489,1.8755c0-.0874.0216-.1625.0216-.2506a4.2733,4.2733,0,0,0-.0874-.8846l1.58.9121-.5266,2.7033c-.0445.2383-.0881.4759-.11.6829a5.1991,5.1991,0,0,0-.0436.5894,2.671,2.671,0,0,0,.1318.8,2.0874,2.0874,0,0,0,.4169.7021,4.0773,4.0773,0,0,0,.7681.6852c.3954.2721.8123.535,1.2079.7626.2629.1525.5265.3043.8338.46.3074.1778.6369.3457.988.5265l.3733-2.0456-.5051-.2912A1.659,1.659,0,0,1,124.6,87.246Z"/>
                <path id="Compound_Path-2" data-name="Compound Path" class="cls-7" d="M136.0142,89.0073a3.1235,3.1235,0,0,0-.5709-1.01,6.5875,6.5875,0,0,0-1.12-1.0853,17.2908,17.2908,0,0,0-1.822-1.2056,13.2591,13.2591,0,0,0-2.1067-1.0194,4.46,4.46,0,0,0-1.4931-.3127,1.4181,1.4181,0,0,0-.9436.3111,1.6846,1.6846,0,0,0-.4392.91l3.1386,1.8119a.37.37,0,0,1,.22-.29.5.5,0,0,1,.3288-.0514,1.0343,1.0343,0,0,1,.3733.105,3.1246,3.1246,0,0,1,.3733.194,2.0756,2.0756,0,0,1,.2857.187,3.6218,3.6218,0,0,1,.329.2774,2.15,2.15,0,0,1,.2636.3281.93.93,0,0,1,.0874.1823.4647.4647,0,0,1,.0221.1664v.1318a.3263.3263,0,0,1-.1755.25.61.61,0,0,1-.351-.0054,7.5092,7.5092,0,0,1-1.142-.4177c-.4383-.1878-.922-.4223-1.4485-.6392a6.95,6.95,0,0,0-1.4708-.476,2.1055,2.1055,0,0,0-1.2294.0805,1.28,1.28,0,0,0-.6805,1.0562,3.1087,3.1087,0,0,0-.0438.4575,2.7906,2.7906,0,0,0,.1978.9926,4.1236,4.1236,0,0,0,.5488.9312,5.06,5.06,0,0,0,.8123.8423,6.6628,6.6628,0,0,0,.9872.68,8.3956,8.3956,0,0,0,1.7122.7688,3.01,3.01,0,0,0,1.5811.0345l.0216.8906,2.9417,1.6984L135.4,94.689l.6584-3.4613c.0436-.1946.0659-.4231.11-.5955a5.062,5.062,0,0,0,.0443-.5894A6.8585,6.8585,0,0,0,136.0142,89.0073Zm-3.6659,2.23a.9129.9129,0,0,1-.351.4338.9288.9288,0,0,1-.55.1219,1.974,1.974,0,0,1-.7457-.2767,2.097,2.097,0,0,1-.68-.5687,1.1455,1.1455,0,0,1-.1756-.2989.6532.6532,0,0,1-.0658-.28v-.0659a.5549.5549,0,0,1,.1094-.2659.317.317,0,0,1,.2414-.1234,1.4146,1.4146,0,0,1,.6585.0942c.2636.0866.5273.1725.8347.2844a3.8948,3.8948,0,0,0,.8774.2215A2.238,2.238,0,0,1,132.3483,91.2369Z"/>
                <path id="Path-147" data-name="Path" class="cls-7" d="M114.5891,81.533c-.0438-.07-.0874-.161-.1312-.23a1.8738,1.8738,0,0,1-.1762-.54v-.0659l-3.2483-1.8755-.0443.2154L85.4818,64.5079l-.11.1556,28.6474,16.54Z"/>
                <path id="Path-148" data-name="Path" class="cls-7" d="M114.2158,80.2193a1.073,1.073,0,0,1,.0223-.2721,1.0038,1.0038,0,0,1,.0436-.2606c.0222-.0965.0445-.1717.066-.269l-3.095-1.7873-.0881.4108L85.92,63.6633l-.11.1564L113.58,79.8522Z"/>
                <path id="Path-149" data-name="Path" class="cls-7" d="M126.597,84.0745l.11-.5948-5.8174-3.3585-.0437.1939-1.2072-.6967a2.7473,2.7473,0,0,0-.154-.2867c-.0215-.0344-.0215-.0344-.0437-.0689l-4.3242-2.4971a.9236.9236,0,0,1-.22.0713l.0446-.1725L111.7793,74.84l-.0438.26L87.2378,61.131l-.11.1564,3.2928,1.9007,31.5,18.187Z"/>
                <path id="Path-150" data-name="Path" class="cls-7" d="M126.7725,83.0789l.0223-.1632-1.5153-.8746.0881-.4322-3.1172-1.8-.0436.2162L117.64,77.411c-.0874-.05-.1533-.0881-.2414-.1395a2.397,2.397,0,0,0-.3288-.1678l-1.976-1.14.0438-.2384L111.9771,73.9l-.0438.26L87.6769,60.2872l-.11.1563,2.8536,1.6471,34.3543,19.8348Z"/>
                <path id="Path-151" data-name="Path" class="cls-7" d="M125.4335,81.208l.1319-.5825-3.1395-1.8126-.0221.2069-7.1119-4.0621.0436-.2384-3.1608-1.8249-.0659.2475L88.1161,59.4433l-.11.1556,2.4152,1.3941,32.5976,18.8209Z"/>
                <path id="Path-152" data-name="Path" class="cls-7" d="M125.6312,80.2247l.0874-.4108-3.1172-1.8-.0213.0315-7.09-4.0714.0874-.52-3.1608-1.8249-.11.53-23.7521-13.56-.11.1563,1.976,1.14L125.2143,79.984Z"/>
              </g>
            </g>
            <path id="Path-153" data-name="Path" class="cls-17" d="M147.8351,82.9371l1.9161-1.1067V78.5116l-1.9161,1.1068Z"/>
          </g>
        </g>
      </g>
    </g>
  </g>
</svg>
