<svg id="Layer_1" data-name="Layer 1" xmlns="http://www.w3.org/2000/svg" viewBox="0 0 250 183.3">
  <defs>
    <style>
      .window-L-prim {
        fill: #4e3b24;
      }

      .exterior-L-prim {
        fill: #74302f;
      }

      .cls-1 {
        fill: #d1d1d1;
      }

      .cls-2 {
        fill: #4a4a4a;
      }

      .cls-3 {
        fill: #8e8e8e;
      }

      .cls-4 {
        fill: #b5b5b5;
      }

      .cls-5 {
        fill: #f7f7f7;
      }

      .cls-6 {
        fill: #0177c0;
      }

      .cls-7 {
        fill: #d31045;
      }

      .cls-8 {
        fill: #fff;
      }

      .window-R-prim {
        fill: #bc9563;
      }

      .exterior-R-prim {
        fill: #d15752;
      }

      .cls-9 {
        fill: #dc8986;
      }

      .top-prim {
        fill: #dd8986;
      }
    </style>
  </defs>
  <title>Artboard 17</title>
  <g id="root">
    <path id="Base-Window-Right" class="window-L-prim" d="M18.75,126.29V103.2L90,144.33v23.1Z"/>
    <path id="Path-26" class="exterior-L-prim" d="M46.25,142.17,45,141.45v-23.1l1.25.72Z"/>
    <g id="Group">
      <path id="Path" class="cls-1" d="M36.88,106.5214l-1.37.7907V134.205L71.13,154.77l1.37-.7913V127.086Z"/>
      <path id="Path-2" data-name="Path" class="cls-2" d="M71.13,150.024,35.51,129.4594v4.7456L71.13,154.77Z"/>
      <path id="Path-3" data-name="Path" class="cls-3" d="M71.13,151.6061l1.37-.7908v3.1636l-1.37.7913Z"/>
      <path id="Path-4" data-name="Path" class="cls-2" d="M71.13,127.8773v4.7457L35.51,112.0578v-4.7457Z"/>
      <path id="Path-5" data-name="Path" class="cls-4" d="M36.88,106.5214l-1.37.7907,35.62,20.5652,1.37-.7913Z"/>
      <path id="Path-6" data-name="Path" class="cls-5" d="M71.13,130.25,35.51,109.6849v21.356l35.62,20.5652Z"/>
      <path id="Path-7" data-name="Path" class="cls-3" d="M71.13,130.25l1.37-.7907V127.086l-1.37.7913Z"/>
      <path id="Path-8" data-name="Path" class="cls-6" d="M35.51,116.804,45.1,122.34l6.85,13.4467,19.18,11.0734v4.7456l-31.3327-18.09-4.287-2.4753Z"/>
      <path id="Path-9" data-name="Path" class="cls-7" d="M35.51,116.0127l10.2749,5.9326,6.85,13.4461L71.13,146.0691v-.7907L53.32,134.9958,46.47,121.55l-10.96-6.3277Z"/>
      <g id="Group-2" data-name="Group">
        <path id="Ellipse" class="cls-5" d="M46.5552,126.74c0-3.734,3.0315-5.0147,6.7649-2.8594s6.765,6.9371,6.765,10.6706-3.0315,5.0147-6.765,2.8589S46.5552,130.4737,46.5552,126.74Z"/>
        <g id="Group_2-1" data-name="Group 2-1">
          <path id="Path-10" data-name="Path" class="cls-6" d="M55.2157,132.3451a.45.45,0,0,0-.1825-.0252.103.103,0,0,0-.0641.0334.131.131,0,0,0-.03.0735v.0263a.19.19,0,0,0,.0164.0773.3191.3191,0,0,0,.0466.0789.6255.6255,0,0,0,.19.155.5223.5223,0,0,0,.2066.0762.2245.2245,0,0,0,.15-.0334.2679.2679,0,0,0,.0958-.1233.7051.7051,0,0,0,.0482-.1918,1.191,1.191,0,0,1-.246-.0663C55.3642,132.3939,55.2869,132.3671,55.2157,132.3451Z"/>
          <path id="Path-11" data-name="Path" class="cls-6" d="M51.1,129.2561a.3759.3759,0,0,0-.1792-.0592.243.243,0,0,0-.1354.0356.2714.2714,0,0,0-.0926.1052.472.472,0,0,0-.0488.1447.5651.5651,0,0,0-.0126.0707.769.769,0,0,0-.0044.08.7858.7858,0,0,0,.0149.148.6076.6076,0,0,0,.0487.1485.5848.5848,0,0,0,.09.137.5662.5662,0,0,0,.142.1134.3839.3839,0,0,0,.1857.0608.209.209,0,0,0,.1348-.0443.3206.3206,0,0,0,.0888-.1179.7247.7247,0,0,0,.051-.1523.8145.8145,0,0,0,.0126-.1447.6985.6985,0,0,0-.0636-.2839A.5306.5306,0,0,0,51.1,129.2561Z"/>
          <path id="Compound_Path" data-name="Compound Path" class="cls-6" d="M53.32,125.8086a4.6951,4.6951,0,0,0-2.6874-.7365,2.1636,2.1636,0,0,0-1.7815,1.1426,4.0562,4.0562,0,0,0-.275,2.6353A9.2386,9.2386,0,0,0,49.9,132.0914a10.9434,10.9434,0,0,0,2.4769,2.7537,6.4187,6.4187,0,0,0,2.7948,1.3382,2.5059,2.5059,0,0,0,2.1706-.5283,2.9224,2.9224,0,0,0,.8154-2.2166,6.6031,6.6031,0,0,0-.3682-2.0638A10.06,10.06,0,0,0,56.74,129.2a11.2366,11.2366,0,0,0-1.5689-1.9547,9.196,9.196,0,0,0-1.8512-1.4369Zm-1.05,4.6a1.2337,1.2337,0,0,1-.1353.3825.5815.5815,0,0,1-.2406.2367.6.6,0,0,1-.3545.0488,1.3356,1.3356,0,0,1-.4773-.1825,1.3825,1.3825,0,0,1-.4182-.349,1.1768,1.1768,0,0,1-.1983-.3831l-.0088-.0049-.05.2833-.79-.4559.5277-2.7362.8785.5075-.1858.9442a.6187.6187,0,0,1,.325-.0318,1.1129,1.1129,0,0,1,.3633.1419,1.5439,1.5439,0,0,1,.3293.2559,1.6379,1.6379,0,0,1,.2494.3256,1.5889,1.5889,0,0,1,.1562.3709,1.4464,1.4464,0,0,1,.0548.3946,1.2616,1.2616,0,0,1-.0253.2515Zm1.4528,1.958c-.0981-.0509-.1891-.0992-.2723-.1447s-.16-.0877-.23-.1282c-.1113-.0636-.223-.1343-.3332-.2121a1.1684,1.1684,0,0,1-.2154-.1918.6116.6116,0,0,1-.1145-.1945.6942.6942,0,0,1-.0334-.222,1.4551,1.4551,0,0,1,.01-.1649c.0072-.06.0176-.1233.0319-.1912l.16-.8319-.3129-.18.085-.4581.3249.1874.1222-.6176.8659.5-.1223.6176.422.2438-.0844.4582-.4219-.2439-.14.725c-.0054.0225-.01.0433-.0126.063a.3582.3582,0,0,0-.0038.0548.164.164,0,0,0,.01.07.2894.2894,0,0,0,.0406.074.6886.6886,0,0,0,.19.1436l.1392.0805Zm2.97.1271c-.0076.0543-.0169.11-.0285.1666l-.183.9618-.0554.303-.8154-.4707-.0043-.2461a.8341.8341,0,0,1-.4379-.0071,2.1165,2.1165,0,0,1-.4724-.2093,2.0017,2.0017,0,0,1-.2745-.1913,1.4258,1.4258,0,0,1-.2264-.2329,1.1542,1.1542,0,0,1-.1523-.26.7064.7064,0,0,1-.057-.2789.6645.6645,0,0,1,.0132-.1272.3621.3621,0,0,1,.19-.2937.576.576,0,0,1,.34-.0235,1.9441,1.9441,0,0,1,.4094.1337q.2154.0961.4006.1792a1.9883,1.9883,0,0,0,.3134.1156.127.127,0,0,0,.0959.0027.0911.0911,0,0,0,.05-.0685l.0022-.0142a.0268.0268,0,0,0,.0021-.0137.13.13,0,0,0-.0065-.0488.2186.2186,0,0,0-.0236-.0515.4433.4433,0,0,0-.0717-.0871.8247.8247,0,0,0-.0894-.0734c-.0263-.0192-.0526-.0362-.0783-.0521-.0346-.02-.0685-.0373-.1025-.0526a.3056.3056,0,0,0-.1025-.0285.1752.1752,0,0,0-.0893.0159.1208.1208,0,0,0-.0587.0838l-.8713-.503a.46.46,0,0,1,.1223-.2538.3623.3623,0,0,1,.2592-.09,1.2328,1.2328,0,0,1,.4115.0877,3.8777,3.8777,0,0,1,.5836.2844,4.4361,4.4361,0,0,1,.5074.3343,1.86,1.86,0,0,1,.3113.3.9148.9148,0,0,1,.1567.2779.8582.8582,0,0,1,.0438.269,1.2913,1.2913,0,0,1-.0109.1633Zm.2094,1.7657a.3886.3886,0,0,1-.1031-.091.4039.4039,0,0,1-.0685-.1227.2188.2188,0,0,1-.01-.1129.0881.0881,0,0,1,.051-.0658.1283.1283,0,0,1,.0948.0038.3157.3157,0,0,1,.1069.0724.4332.4332,0,0,1,.0832.1167.2877.2877,0,0,1,.0313.1211.0991.0991,0,0,1-.0543.0992.1525.1525,0,0,1-.1309-.0208Z"/>
          <path id="Path-12" data-name="Path" class="cls-6" d="M56.9019,133.9749a.097.097,0,0,0-.0548-.0148.042.042,0,0,0-.0362.023.08.08,0,0,0-.006.0537.1817.1817,0,0,0,.0274.0663.2178.2178,0,0,0,.05.0565.1286.1286,0,0,0,.057.0268.0508.0508,0,0,0,.0444-.01.0627.0627,0,0,0,.0164-.0455.1691.1691,0,0,0-.0291-.0866.209.209,0,0,0-.07-.069Z"/>
          <path id="Compound_Path-2" data-name="Compound Path" class="cls-7" d="M53.32,124.8787a5.5973,5.5973,0,0,0-3.2041-.8779,2.58,2.58,0,0,0-2.124,1.3618,4.8408,4.8408,0,0,0-.3283,3.1427,11.0159,11.0159,0,0,0,1.5788,3.8639,13.04,13.04,0,0,0,2.9526,3.2831,7.6537,7.6537,0,0,0,3.3318,1.5958,2.9879,2.9879,0,0,0,2.5882-.63,3.4824,3.4824,0,0,0,.9722-2.6424,9.9086,9.9086,0,0,0-1.6912-5.0525,12.3909,12.3909,0,0,0-4.076-4.0442Zm0,10.9265a10.5344,10.5344,0,0,1-2.8665-2.5246,11.2808,11.2808,0,0,1-1.9005-3.413,6.0183,6.0183,0,0,1-.2937-3.15,2.4509,2.4509,0,0,1,1.4122-1.8264,3.5729,3.5729,0,0,1,2.6419.1128,8.8176,8.8176,0,0,1,2.9811,2.015,11.9256,11.9256,0,0,1,2.3158,3.2376,7.9745,7.9745,0,0,1,.87,3.3685,2.7742,2.7742,0,0,1-1.513,2.7729,4.2275,4.2275,0,0,1-3.647-.5924Z"/>
          <path id="Compound_Path-3" data-name="Compound Path" class="cls-8" d="M52.0839,129.3915a1.6379,1.6379,0,0,0-.2494-.3256,1.5439,1.5439,0,0,0-.3293-.2559,1.1129,1.1129,0,0,0-.3633-.1419.6187.6187,0,0,0-.325.0318l.1858-.9442-.8785-.5075-.5277,2.7362.79.4559.05-.2833.0088.0049a1.1818,1.1818,0,0,0,.1983.3831,1.3825,1.3825,0,0,0,.4182.349,1.3356,1.3356,0,0,0,.4773.1825.6.6,0,0,0,.3545-.0488.5815.5815,0,0,0,.2406-.2367,1.2185,1.2185,0,0,0,.1353-.3825,1.2616,1.2616,0,0,0,.0253-.2515,1.4464,1.4464,0,0,0-.0548-.3946A1.5889,1.5889,0,0,0,52.0839,129.3915Zm-.7009.5348a.7247.7247,0,0,1-.051.1523.3206.3206,0,0,1-.0888.1179.209.209,0,0,1-.1348.0443.3839.3839,0,0,1-.1857-.0608.5662.5662,0,0,1-.142-.1134.5848.5848,0,0,1-.09-.137.6076.6076,0,0,1-.0487-.1485.7858.7858,0,0,1-.0149-.148.7518.7518,0,0,1,.0044-.08.5572.5572,0,0,1,.0126-.0712.472.472,0,0,1,.0488-.1447.2714.2714,0,0,1,.0926-.1052.243.243,0,0,1,.1354-.0356.3759.3759,0,0,1,.1792.0592.5277.5277,0,0,1,.2323.2416.6968.6968,0,0,1,.0636.2839.8145.8145,0,0,1-.0126.1447Z"/>
          <path id="Path-13" data-name="Path" class="cls-8" d="M53.4988,131.5785a.3.3,0,0,1-.0406-.074.164.164,0,0,1-.01-.07.3537.3537,0,0,1,.0038-.0548c.0027-.02.0072-.0405.0126-.063l.14-.725.4219.2439.0844-.4582-.422-.2438.1223-.6176-.8659-.5-.1222.6176-.3249-.1874-.085.4581.3129.18-.16.8319c-.0143.0679-.0247.1315-.0319.1912a1.4551,1.4551,0,0,0-.01.1649.6942.6942,0,0,0,.0334.222.6116.6116,0,0,0,.1145.1945,1.1684,1.1684,0,0,0,.2154.1918c.11.0778.2219.1485.3332.2121q.106.0607.23.1282c.0832.0455.1742.0938.2723.1447l.1057-.5639-.1392-.0805a.6886.6886,0,0,1-.19-.1436Z"/>
          <path id="Compound_Path-4" data-name="Compound Path" class="cls-8" d="M56.5029,131.7834a1.86,1.86,0,0,0-.3113-.3,4.4361,4.4361,0,0,0-.5074-.3343,3.8777,3.8777,0,0,0-.5836-.2844,1.2328,1.2328,0,0,0-.4115-.0877.3642.3642,0,0,0-.2592.09.4627.4627,0,0,0-.1223.2543l.8713.503a.1208.1208,0,0,1,.0587-.0838.1752.1752,0,0,1,.0893-.0159.3056.3056,0,0,1,.1025.0285c.034.0153.0679.0328.1025.0526.0257.0159.052.0329.0783.0521a.8247.8247,0,0,1,.0894.0734.4433.4433,0,0,1,.0717.0871.2186.2186,0,0,1,.0236.0515.13.13,0,0,1,.0065.0488.0268.0268,0,0,1-.0021.0137l-.0022.0142a.0911.0911,0,0,1-.05.0685.127.127,0,0,1-.0959-.0027,1.9883,1.9883,0,0,1-.3134-.1156q-.185-.0831-.4006-.1792a1.9441,1.9441,0,0,0-.4094-.1337.576.576,0,0,0-.34.0235.3621.3621,0,0,0-.19.2937.6645.6645,0,0,0-.0132.1272.7064.7064,0,0,0,.057.2789,1.1542,1.1542,0,0,0,.1523.26,1.4258,1.4258,0,0,0,.2264.2329,2.0017,2.0017,0,0,0,.2745.1913,2.1165,2.1165,0,0,0,.4724.2093.8341.8341,0,0,0,.4379.0071l.0043.2461.8154.4707.0554-.303.183-.9618c.0116-.057.0209-.1123.0285-.1666a1.2913,1.2913,0,0,0,.0109-.1633.8582.8582,0,0,0-.0438-.269.9148.9148,0,0,0-.1567-.2779Zm-.8582.9a.2679.2679,0,0,1-.0958.1233.2224.2224,0,0,1-.15.0329.5224.5224,0,0,1-.2066-.0757.6255.6255,0,0,1-.19-.155.3376.3376,0,0,1-.0471-.0789.1976.1976,0,0,1-.0159-.0773v-.0263a.1293.1293,0,0,1,.03-.0735.1.1,0,0,1,.0641-.0334.4579.4579,0,0,1,.1825.0247c.0712.0225.1485.0493.2312.0811a1.1581,1.1581,0,0,0,.246.0658.7041.7041,0,0,1-.0482.1923Z"/>
          <path id="Compound_Path-5" data-name="Compound Path" class="cls-8" d="M56.9019,133.8883a.1793.1793,0,0,0-.1031-.0285.0834.0834,0,0,0-.0685.0438.159.159,0,0,0-.01.1014.3459.3459,0,0,0,.051.1239.4071.4071,0,0,0,.0948.1057.2468.2468,0,0,0,.1069.0515.096.096,0,0,0,.0832-.02.1127.1127,0,0,0,.0313-.0849.3152.3152,0,0,0-.0543-.1627.3947.3947,0,0,0-.1309-.13Zm0,.2839a.1865.1865,0,0,1-.0548-.0483.2.2,0,0,1-.0362-.0652.1126.1126,0,0,1-.006-.06.0465.0465,0,0,1,.0274-.035.07.07,0,0,1,.05.0022.1648.1648,0,0,1,.057.0389.2265.2265,0,0,1,.0444.0619.16.16,0,0,1,.0164.0641.0528.0528,0,0,1-.0291.0532.0807.0807,0,0,1-.07-.0115Z"/>
        </g>
      </g>
    </g>
    <path id="Base-Window-Left" class="window-R-prim" d="M90,167.43,231.25,85.88V62.78L90,144.33Z"/>
    <path id="Path-14" data-name="Path" class="exterior-L-prim" d="M5,89.49,0,92.37v39l5,2.89Z"/>
    <path id="Path-2-2" data-name="Path-2" class="exterior-R-prim" d="M243.75,48.35,250,52V91l-6.25,3.61Z"/>
    <path id="Path-3-2" data-name="Path-3" class="exterior-R-prim" d="M218.75,67.11,222.5,65v41.77L218.75,109Z"/>
    <path id="Path-4-2" data-name="Path-4" class="exterior-R-prim" d="M193.75,81.46l3.75-2.08v41.77l-3.75,2.17Z"/>
    <path id="Path-5-2" data-name="Path-5" class="exterior-R-prim" d="M168.75,96l3.75-2.08v41.77l-3.75,2.17Z"/>
    <path id="Path-6-2" data-name="Path-6" class="exterior-R-prim" d="M143.75,110.41l3.75-2.07v41.77l-3.75,2.16Z"/>
    <path id="Path-7-2" data-name="Path-7" class="exterior-R-prim" d="M118.75,124.76l3.75-2.08v41.77l-3.75,2.17Z"/>
    <path id="Path-8-2" data-name="Path-8" class="exterior-L-prim" d="M90,141.45l-6.25-3.61V179.7L90,183.3Z"/>
    <path id="Path-9-2" data-name="Path-9" class="exterior-L-prim" d="M60,124.13,56.25,122v41.86L60,166Z"/>
    <path id="Path-10-2" data-name="Path-10" class="exterior-L-prim" d="M32.5,108.22l-3.75-2.17v41.86l3.75,2.16Z"/>
    <path id="Path-11-2" data-name="Path-11" class="exterior-R-prim" d="M5,134.23l5-2.89V95.26L5,92.37Z"/>
    <path id="Path-12-2" data-name="Path-12" class="exterior-L-prim" d="M243.75,94.54l-5-2.89V55.57l5-2.89Z"/>
    <path id="Path-13-2" data-name="Path-13" class="exterior-L-prim" d="M218.75,109,215,106.81V69.28l3.75-2.17Z"/>
    <path id="Path-14-2" data-name="Path-14" class="exterior-L-prim" d="M193.75,123.32,190,121.15V83.62l3.75-2.16Z"/>
    <path id="Path-15" class="exterior-L-prim" d="M168.75,137.84,165,135.67V98.15L168.75,96Z"/>
    <path id="Path-16" class="exterior-L-prim" d="M143.75,152.27,140,150.11V112.58l3.75-2.17Z"/>
    <path id="Path-17" class="exterior-L-prim" d="M118.75,166.62,115,164.45V126.93l3.75-2.17Z"/>
    <path id="Path-18" class="exterior-R-prim" d="M90,183.3l7.5-4.33V137.12L90,141.45Z"/>
    <path id="Path-19" class="exterior-R-prim" d="M60,166l3.75-2.16V126.29L60,124.13Z"/>
    <path id="Path-20" class="exterior-R-prim" d="M32.5,150.07l3.75-2.16V110.38l-3.75-2.16Z"/>
    <path id="Path-21" class="exterior-R-prim" d="M181.25,114.74l1.25-.72V90.93l-1.25.72Z"/>
    <path id="Path-22" class="exterior-R-prim" d="M131.25,143.51l1.25-.72v-23.1l-1.25.73Z"/>
    <path id="Path-23" class="exterior-R-prim" d="M156.25,129.28l1.25-.72v-23.1l-1.25.73Z"/>
    <path id="Path-24" class="exterior-R-prim" d="M106.25,158.05l1.25-.73V134.23l-1.25.72Z"/>
    <path id="Path-25" class="exterior-L-prim" d="M73.75,158.05l-1.25-.73V134.23l1.25.72Z"/>
    <path id="Path-27" class="exterior-L-prim" d="M20,127l-1.25-.72V103.2l1.25.72Z"/>
    <path id="Path-28" class="exterior-R-prim" d="M206.25,100.31l1.25-.72V76.49l-1.25.73Z"/>
    <path id="Path-29" class="exterior-R-prim" d="M230,86.6l1.25-.72V62.78L230,63.5Z"/>
    <g id="Group-2-2" data-name="Group-2">
      <path id="Path-30" class="cls-9" d="M83.75,130.56,63.75,119,60,121.18l23.75,13.71Z"/>
      <path id="Path-31" class="cls-9" d="M56.25,114.69l-20-11.55-3.75,2.17L56.25,119Z"/>
      <path id="Path-32" class="cls-9" d="M28.75,98.81l-20-11.55L5,89.43l23.75,13.71Z"/>
    </g>
    <g id="Group-3">
      <path id="Path-33" class="cls-9" d="M97.5,129.9,115,119.8l3.75,2.16L97.5,134.23Z"/>
      <path id="Path-34" class="cls-9" d="M122.5,115.47,140,105.36l3.75,2.17L122.5,119.8Z"/>
      <path id="Path-35" class="cls-9" d="M147.5,101,165,90.93l3.75,2.16L147.5,105.36Z"/>
      <path id="Path-36" class="cls-9" d="M172.5,86.6,190,76.49l3.75,2.17L172.5,90.93Z"/>
      <path id="Path-37" class="cls-9" d="M197.5,72.16,215,62.06l3.75,2.17L197.5,76.49Z"/>
      <path id="Path-38" class="cls-9" d="M222.5,57.73,240,47.63l3.75,2.16L222.5,62.06Z"/>
    </g>
    <path id="anchor_0_144.33_250" class="top-prim" d="M90,144.33l-90-52L160,0l90,52Z"/>
  </g>
</svg>
