<svg id="Layer_1" data-name="Layer 1" xmlns="http://www.w3.org/2000/svg" viewBox="0 0 320 207.846">
  <defs>
    <style>
      .cls-1 {
        fill: #a2a2a2;
      }

      .cls-2 {
        fill: #8b8b8b;
      }

      .cls-3 {
        fill: #e8e8e8;
      }

      .cls-4 {
        fill: #bdbdba;
      }

      .cls-5 {
        fill: #747474;
      }

      .cls-6 {
        fill: #b5b4b1;
      }

      .cls-7 {
        fill: #f9e7dd;
      }

      .cls-8 {
        fill: #ddc0b0;
      }

      .cls-9 {
        fill: #aa8c7b;
      }

      .cls-10 {
        fill: #7eb992;
      }

      .cls-11 {
        fill: #6daa81;
      }

      .cls-12 {
        fill: #fff;
      }

      .cls-13 {
        opacity: 0.3;
      }

      .cls-14 {
        fill: #b9b9b9;
      }

      .cls-15 {
        fill: #f7f7f7;
      }

      .cls-16 {
        fill: #5d5d5d;
      }

      .cls-17 {
        fill: #464646;
      }

      .cls-18 {
        fill: #2e2e2e;
      }

      .cls-19 {
        fill: #fff9d0;
      }

      .cls-20 {
        fill: #fff29e;
      }

      .cls-21 {
        fill: #9d9d9d;
      }

      .cls-22 {
        fill: #f0dace;
      }

      .cls-23 {
        fill: #d0b1a1;
      }

      .cls-24 {
        fill: #9f806e;
      }

      .cls-25 {
        fill: #aadafd;
      }
    </style>
  </defs>
  <title>Artboard 3</title>
  <g id="root">
    <g>
      <path class="cls-1" d="M159.9629,37.528,157.5,36.085V1.444l2.4629,1.443,2.5-1.443V36.085Z"/>
      <path class="cls-2" d="M159.9629,37.528V2.887l-2.5-1.443V36.085Z"/>
    </g>
    <path class="cls-3" d="M0,115.47l159.9629,92.376L320,115.47,160,23.094Z"/>
    <path class="cls-4" d="M160,28.868,309.9629,115.47l-150,86.603L10,115.47Z"/>
    <path class="cls-5" d="M160,28.868v5.773l144.9629,83.716,5-2.887Z"/>
    <path class="cls-6" d="M145,46.188l-2.5,1.444L140,46.188l2.5-1.443Z"/>
    <path class="cls-6" d="M170,46.188l-2.5,1.444L165,46.188l2.5-1.443Z"/>
    <path class="cls-6" d="M175,43.302l-2.5,1.443L170,43.302l2.5-1.444Z"/>
    <path class="cls-6" d="M150,49.075l-2.5,1.443L145,49.075l2.5-1.443Z"/>
    <path class="cls-6" d="M145,49.075l-2.5,1.443L140,49.075l2.5-1.443Z"/>
    <path class="cls-6" d="M140,51.962l-2.5,1.443L135,51.962l2.5-1.444Z"/>
    <path class="cls-6" d="M160,49.075l-2.5,1.443L155,49.075l2.5-1.443Z"/>
    <path class="cls-6" d="M165,49.075l-2.5,1.443L160,49.075l2.5-1.443Z"/>
    <path class="cls-6" d="M170,49.075l-2.5,1.443L165,49.075l2.5-1.443Z"/>
    <path class="cls-6" d="M175,46.188l-2.5,1.444L170,46.188l2.5-1.443Z"/>
    <path class="cls-6" d="M180,46.188l-2.5,1.444L175,46.188l2.5-1.443Z"/>
    <path class="cls-6" d="M185,49.075l-2.5,1.443L180,49.075l2.5-1.443Z"/>
    <path class="cls-6" d="M190,51.962l-2.5,1.443L185,51.962l2.5-1.444Z"/>
    <path class="cls-6" d="M194.926,54.849l-2.5,1.443-2.5-1.443,2.5-1.444Z"/>
    <path class="cls-6" d="M199.926,57.735l-2.5,1.444-2.5-1.444,2.5-1.443Z"/>
    <path class="cls-6" d="M205,60.622l-2.5,1.443L200,60.622l2.5-1.443Z"/>
    <path class="cls-6" d="M210,63.509l-2.5,1.443L205,63.509l2.5-1.444Z"/>
    <path class="cls-6" d="M215,66.396l-2.5,1.443L210,66.396l2.5-1.444Z"/>
    <path class="cls-6" d="M220,69.282l-2.5,1.444L215,69.282l2.5-1.443Z"/>
    <path class="cls-6" d="M225,72.169l-2.5,1.443L220,72.169l2.5-1.443Z"/>
    <path class="cls-6" d="M229.9629,75.056l-2.5,1.443-2.5-1.443,2.5-1.444Z"/>
    <path class="cls-6" d="M235,77.943l-2.5,1.443L230,77.943l2.5-1.444Z"/>
    <path class="cls-6" d="M239.926,80.829l-2.5,1.444-2.5-1.444,2.5-1.443Z"/>
    <path class="cls-6" d="M244.926,83.716l-2.5,1.443-2.5-1.443,2.5-1.443Z"/>
    <path class="cls-6" d="M250,86.603l-2.5,1.443L245,86.603l2.5-1.444Z"/>
    <path class="cls-6" d="M255,89.49l-2.5,1.443L250,89.49l2.5-1.444Z"/>
    <path class="cls-6" d="M259.926,92.376l-2.5,1.444-2.5-1.444,2.5-1.443Z"/>
    <path class="cls-6" d="M265,95.263l-2.5,1.443L260,95.263l2.5-1.443Z"/>
    <path class="cls-6" d="M269.9629,98.15l-2.5,1.443-2.5-1.443,2.5-1.443Z"/>
    <path class="cls-6" d="M269.926,101.037l-2.5,1.443-2.5-1.443,2.5-1.444Z"/>
    <path class="cls-6" d="M274.9629,101.037l-2.5,1.443-2.5-1.443,2.5-1.444Z"/>
    <path class="cls-6" d="M284.926,106.81l-2.5,1.443-2.5-1.443,2.5-1.443Z"/>
    <path class="cls-6" d="M289.926,109.697l-2.5,1.443-2.5-1.443,2.5-1.444Z"/>
    <path class="cls-6" d="M294.9629,112.583l-2.5,1.444-2.5-1.444,2.5-1.443Z"/>
    <path class="cls-6" d="M299.9629,115.47l-2.5,1.444-2.5-1.444,2.5-1.443Z"/>
    <path class="cls-6" d="M304.9629,118.357l-2.5,1.443-2.5-1.443,2.5-1.443Z"/>
    <path class="cls-6" d="M299.9629,121.244l-2.5,1.443-2.5-1.443,2.5-1.444Z"/>
    <path class="cls-6" d="M294.9629,118.357l-2.5,1.443-2.5-1.443,2.5-1.444Z"/>
    <path class="cls-6" d="M289.9629,115.471l-2.5,1.443-2.5-1.443,2.5-1.444Z"/>
    <path class="cls-6" d="M285,112.584l-2.5,1.444-2.5-1.444,2.5-1.443Z"/>
    <path class="cls-6" d="M279.9629,109.697l-2.5,1.443-2.5-1.443,2.5-1.444Z"/>
    <path class="cls-6" d="M274.9629,103.923l-2.5,1.444-2.5-1.444,2.5-1.443Z"/>
    <path class="cls-6" d="M264.9629,101.037l-2.5,1.443-2.5-1.443,2.5-1.444Z"/>
    <path class="cls-6" d="M264.926,103.923l-2.5,1.444-2.5-1.444,2.5-1.443Z"/>
    <path class="cls-6" d="M269.9629,103.923l-2.5,1.444-2.5-1.444,2.5-1.443Z"/>
    <path class="cls-6" d="M269.9629,106.81l-2.5,1.443-2.5-1.443,2.5-1.443Z"/>
    <path class="cls-6" d="M259.9629,103.923l-2.5,1.444-2.5-1.444,2.5-1.443Z"/>
    <path class="cls-6" d="M235.0549,118.357l-2.5,1.443-2.5-1.443,2.5-1.443Z"/>
    <path class="cls-6" d="M209.9629,132.791l-2.5,1.444-2.5-1.444,2.5-1.443Z"/>
    <path class="cls-6" d="M184.9629,147.225l-2.5,1.443-2.5-1.443,2.5-1.444Z"/>
    <path class="cls-6" d="M159.926,161.659l-2.5,1.443-2.5-1.443,2.5-1.444Z"/>
    <path class="cls-6" d="M255,106.811l-2.5,1.443-2.5-1.443,2.5-1.444Z"/>
    <path class="cls-6" d="M230.092,121.244l-2.5,1.444-2.5-1.444,2.5-1.443Z"/>
    <path class="cls-6" d="M205,135.679l-2.5,1.443-2.5-1.443,2.5-1.444Z"/>
    <path class="cls-6" d="M179.9629,150.112l-2.5,1.443-2.5-1.443,2.5-1.444Z"/>
    <path class="cls-6" d="M154.9629,164.546l-2.5,1.443-2.5-1.443,2.5-1.443Z"/>
    <path class="cls-6" d="M249.9451,109.697l-2.5,1.444-2.5-1.444,2.5-1.443Z"/>
    <path class="cls-6" d="M225.0371,124.131l-2.5,1.444-2.5-1.444,2.5-1.443Z"/>
    <path class="cls-6" d="M199.9451,138.565l-2.5,1.444-2.5-1.444,2.5-1.443Z"/>
    <path class="cls-6" d="M174.9629,152.998l-2.5,1.443-2.5-1.443,2.5-1.443Z"/>
    <path class="cls-6" d="M149.908,167.433l-2.5,1.443-2.5-1.443,2.5-1.443Z"/>
    <path class="cls-6" d="M244.9629,112.583l-2.5,1.444-2.5-1.444,2.5-1.443Z"/>
    <path class="cls-6" d="M220.0549,127.017l-2.5,1.444-2.5-1.444,2.5-1.443Z"/>
    <path class="cls-6" d="M194.9629,141.451l-2.5,1.444-2.5-1.444,2.5-1.443Z"/>
    <path class="cls-6" d="M169.9629,155.886l-2.5,1.443-2.5-1.443,2.5-1.444Z"/>
    <path class="cls-6" d="M144.926,170.319l-2.5,1.443-2.5-1.443,2.5-1.443Z"/>
    <path class="cls-6" d="M239.908,115.47l-2.5,1.444-2.5-1.444,2.5-1.443Z"/>
    <path class="cls-6" d="M215,129.904l-2.5,1.444-2.5-1.444,2.5-1.443Z"/>
    <path class="cls-6" d="M189.9629,144.339l-2.5,1.443-2.5-1.443,2.5-1.444Z"/>
    <path class="cls-6" d="M165,158.772l-2.5,1.443-2.5-1.443,2.5-1.444Z"/>
    <path class="cls-6" d="M139.8711,173.206l-2.5,1.443-2.5-1.443,2.5-1.443Z"/>
    <path class="cls-6" d="M269.9629,109.697l-2.5,1.443-2.5-1.443,2.5-1.443Z"/>
    <path class="cls-6" d="M280,115.471l-2.5,1.443-2.5-1.443,2.5-1.444Z"/>
    <path class="cls-6" d="M275,118.358l-2.5,1.443-2.5-1.443,2.5-1.444Z"/>
    <path class="cls-6" d="M269.9629,121.244l-2.5,1.444-2.5-1.444,2.5-1.443Z"/>
    <path class="cls-6" d="M265,124.131l-2.5,1.443-2.5-1.443,2.5-1.443Z"/>
    <path class="cls-6" d="M240,138.565l-2.5,1.443-2.5-1.443,2.5-1.444Z"/>
    <path class="cls-6" d="M235.074,141.451l-2.5,1.444-2.5-1.444,2.5-1.443Z"/>
    <path class="cls-6" d="M229.9629,144.338l-2.5,1.444-2.5-1.444,2.5-1.443Z"/>
    <path class="cls-6" d="M225,147.225l-2.5,1.443-2.5-1.443,2.5-1.443Z"/>
    <path class="cls-6" d="M220,150.111l-2.5,1.444-2.5-1.444,2.5-1.443Z"/>
    <path class="cls-6" d="M215,152.999l-2.5,1.443-2.5-1.443,2.5-1.444Z"/>
    <path class="cls-6" d="M209.9629,155.885l-2.5,1.443-2.5-1.443,2.5-1.443Z"/>
    <path class="cls-6" d="M205,158.772l-2.5,1.443-2.5-1.443,2.5-1.444Z"/>
    <path class="cls-6" d="M200,161.659l-2.5,1.443-2.5-1.443,2.5-1.444Z"/>
    <path class="cls-6" d="M194.9629,164.545l-2.5,1.444-2.5-1.444,2.5-1.443Z"/>
    <path class="cls-6" d="M190,167.432l-2.5,1.444-2.5-1.444,2.5-1.443Z"/>
    <path class="cls-6" d="M184.9629,170.319l-2.5,1.443-2.5-1.443,2.5-1.444Z"/>
    <path class="cls-6" d="M180,173.206l-2.5,1.443-2.5-1.443,2.5-1.444Z"/>
    <path class="cls-6" d="M175,176.092l-2.5,1.444-2.5-1.444,2.5-1.443Z"/>
    <path class="cls-6" d="M170,178.979l-2.5,1.443-2.5-1.443,2.5-1.443Z"/>
    <path class="cls-6" d="M165,181.866l-2.5,1.443-2.5-1.443,2.5-1.444Z"/>
    <path class="cls-6" d="M260,127.017l-2.5,1.444-2.5-1.444,2.5-1.443Z"/>
    <path class="cls-6" d="M254.9629,129.904l-2.5,1.444-2.5-1.444,2.5-1.443Z"/>
    <path class="cls-6" d="M249.9629,132.791l-2.5,1.443-2.5-1.443,2.5-1.444Z"/>
    <path class="cls-6" d="M245,135.678l-2.5,1.443-2.5-1.443,2.5-1.443Z"/>
    <path class="cls-6" d="M289.9629,121.244l-2.5,1.443-2.5-1.443,2.5-1.444Z"/>
    <path class="cls-6" d="M284.9629,124.131l-2.5,1.443-2.5-1.443,2.5-1.444Z"/>
    <path class="cls-6" d="M279.926,127.017l-2.5,1.444-2.5-1.444,2.5-1.443Z"/>
    <path class="cls-6" d="M274.9629,129.904l-2.5,1.444-2.5-1.444,2.5-1.443Z"/>
    <path class="cls-6" d="M249.9629,144.338l-2.5,1.443-2.5-1.443,2.5-1.443Z"/>
    <path class="cls-6" d="M245.0371,147.224l-2.5,1.444-2.5-1.444,2.5-1.443Z"/>
    <path class="cls-6" d="M239.926,150.112l-2.5,1.443-2.5-1.443,2.5-1.444Z"/>
    <path class="cls-6" d="M234.9629,152.998l-2.5,1.444-2.5-1.444,2.5-1.443Z"/>
    <path class="cls-6" d="M229.9629,155.884l-2.5,1.444-2.5-1.444,2.5-1.443Z"/>
    <path class="cls-6" d="M224.9629,158.772l-2.5,1.443-2.5-1.443,2.5-1.444Z"/>
    <path class="cls-6" d="M219.926,161.658l-2.5,1.444-2.5-1.444,2.5-1.443Z"/>
    <path class="cls-6" d="M214.9629,164.545l-2.5,1.443-2.5-1.443,2.5-1.443Z"/>
    <path class="cls-6" d="M209.9629,167.432l-2.5,1.443-2.5-1.443,2.5-1.443Z"/>
    <path class="cls-6" d="M204.926,170.318l-2.5,1.444-2.5-1.444,2.5-1.443Z"/>
    <path class="cls-6" d="M199.9629,173.205l-2.5,1.444-2.5-1.444,2.5-1.443Z"/>
    <path class="cls-6" d="M194.926,176.092l-2.5,1.443-2.5-1.443,2.5-1.443Z"/>
    <path class="cls-6" d="M189.9629,178.979l-2.5,1.443-2.5-1.443,2.5-1.443Z"/>
    <path class="cls-6" d="M184.9629,181.865l-2.5,1.444-2.5-1.444,2.5-1.443Z"/>
    <path class="cls-6" d="M179.9629,184.752l-2.5,1.444-2.5-1.444,2.5-1.443Z"/>
    <path class="cls-6" d="M174.9629,187.639l-2.5,1.443-2.5-1.443,2.5-1.443Z"/>
    <path class="cls-6" d="M169.9629,190.526l-2.5,1.443-2.5-1.443,2.5-1.444Z"/>
    <path class="cls-6" d="M164.9629,193.413l-2.5,1.443-2.5-1.443,2.5-1.444Z"/>
    <path class="cls-6" d="M269.9629,132.79l-2.5,1.444-2.5-1.444,2.5-1.443Z"/>
    <path class="cls-6" d="M264.926,135.677l-2.5,1.444-2.5-1.444,2.5-1.443Z"/>
    <path class="cls-6" d="M259.926,138.564l-2.5,1.443-2.5-1.443,2.5-1.444Z"/>
    <path class="cls-6" d="M254.9629,141.451l-2.5,1.444-2.5-1.444,2.5-1.443Z"/>
    <path class="cls-6" d="M259.926,106.81l-2.5,1.444-2.5-1.444,2.5-1.443Z"/>
    <path class="cls-6" d="M235.019,121.244l-2.5,1.443-2.5-1.443,2.5-1.443Z"/>
    <path class="cls-6" d="M209.926,135.678l-2.5,1.443-2.5-1.443,2.5-1.443Z"/>
    <path class="cls-6" d="M184.9629,150.111l-2.5,1.444-2.5-1.444,2.5-1.443Z"/>
    <path class="cls-6" d="M159.926,164.545l-2.5,1.443-2.5-1.443,2.5-1.443Z"/>
    <path class="cls-6" d="M254.9629,109.697l-2.5,1.444-2.5-1.444,2.5-1.443Z"/>
    <path class="cls-6" d="M230.0549,124.131l-2.5,1.443-2.5-1.443,2.5-1.443Z"/>
    <path class="cls-6" d="M204.9629,138.565l-2.5,1.444-2.5-1.444,2.5-1.443Z"/>
    <path class="cls-6" d="M179.926,152.999l-2.5,1.443-2.5-1.443,2.5-1.444Z"/>
    <path class="cls-6" d="M154.926,167.433l-2.5,1.443-2.5-1.443,2.5-1.444Z"/>
    <path class="cls-6" d="M249.908,112.584l-2.5,1.444-2.5-1.444,2.5-1.443Z"/>
    <path class="cls-6" d="M225,127.018l-2.5,1.443-2.5-1.443,2.5-1.443Z"/>
    <path class="cls-6" d="M199.908,141.452l-2.5,1.444-2.5-1.444,2.5-1.443Z"/>
    <path class="cls-6" d="M175,155.886l-2.5,1.443-2.5-1.443,2.5-1.444Z"/>
    <path class="cls-6" d="M149.9629,170.318l-2.5,1.444-2.5-1.444,2.5-1.443Z"/>
    <path class="cls-6" d="M244.926,115.47l-2.5,1.444-2.5-1.444,2.5-1.443Z"/>
    <path class="cls-6" d="M220.019,129.904l-2.5,1.443-2.5-1.443,2.5-1.443Z"/>
    <path class="cls-6" d="M194.926,144.338l-2.5,1.444-2.5-1.444,2.5-1.443Z"/>
    <path class="cls-6" d="M169.926,158.772l-2.5,1.443-2.5-1.443,2.5-1.443Z"/>
    <path class="cls-6" d="M144.9629,173.206l-2.5,1.443-2.5-1.443,2.5-1.444Z"/>
    <path class="cls-6" d="M134.9629,178.979l-2.5,1.444-2.5-1.444,2.5-1.443Z"/>
    <path class="cls-6" d="M239.8711,118.357l-2.5,1.444-2.5-1.444,2.5-1.443Z"/>
    <path class="cls-6" d="M214.9629,132.791l-2.5,1.443-2.5-1.443,2.5-1.443Z"/>
    <path class="cls-6" d="M189.9629,147.225l-2.5,1.444-2.5-1.444,2.5-1.443Z"/>
    <path class="cls-6" d="M164.9629,161.659l-2.5,1.443-2.5-1.443,2.5-1.444Z"/>
    <path class="cls-6" d="M139.9629,176.093l-2.5,1.443-2.5-1.443,2.5-1.444Z"/>
    <path class="cls-6" d="M129.8889,181.865l-2.5,1.443-2.5-1.443,2.5-1.443Z"/>
    <path class="cls-6" d="M269.926,112.584l-2.5,1.443-2.5-1.443,2.5-1.444Z"/>
    <path class="cls-6" d="M279.9629,118.357l-2.5,1.444-2.5-1.444,2.5-1.443Z"/>
    <path class="cls-6" d="M289.926,124.131l-2.5,1.443-2.5-1.443,2.5-1.444Z"/>
    <path class="cls-6" d="M264.9629,106.81l-2.5,1.443-2.5-1.443,2.5-1.443Z"/>
    <path class="cls-6" d="M240.0549,121.244l-2.5,1.443-2.5-1.443,2.5-1.444Z"/>
    <path class="cls-6" d="M214.9629,135.678l-2.5,1.443-2.5-1.443,2.5-1.443Z"/>
    <path class="cls-6" d="M189.9629,150.111l-2.5,1.444-2.5-1.444,2.5-1.443Z"/>
    <path class="cls-6" d="M164.926,164.545l-2.5,1.444-2.5-1.444,2.5-1.443Z"/>
    <path class="cls-6" d="M260,109.697l-2.5,1.444-2.5-1.444,2.5-1.443Z"/>
    <path class="cls-6" d="M235.092,124.131l-2.5,1.443-2.5-1.443,2.5-1.443Z"/>
    <path class="cls-6" d="M210,138.565l-2.5,1.444-2.5-1.444,2.5-1.443Z"/>
    <path class="cls-6" d="M184.9629,152.999l-2.5,1.443-2.5-1.443,2.5-1.444Z"/>
    <path class="cls-6" d="M159.9629,167.433l-2.5,1.443-2.5-1.443,2.5-1.444Z"/>
    <path class="cls-6" d="M254.9451,112.584l-2.5,1.443-2.5-1.443,2.5-1.443Z"/>
    <path class="cls-6" d="M230.0371,127.018l-2.5,1.443-2.5-1.443,2.5-1.444Z"/>
    <path class="cls-6" d="M204.9451,141.452l-2.5,1.443-2.5-1.443,2.5-1.443Z"/>
    <path class="cls-6" d="M179.926,155.886l-2.5,1.443-2.5-1.443,2.5-1.444Z"/>
    <path class="cls-6" d="M154.908,170.32l-2.5,1.443-2.5-1.443,2.5-1.444Z"/>
    <path class="cls-6" d="M249.9629,115.47l-2.5,1.443-2.5-1.443,2.5-1.443Z"/>
    <path class="cls-6" d="M225.0549,129.904l-2.5,1.443-2.5-1.443,2.5-1.444Z"/>
    <path class="cls-6" d="M199.9629,144.338l-2.5,1.443-2.5-1.443,2.5-1.443Z"/>
    <path class="cls-6" d="M174.9629,158.771l-2.5,1.444-2.5-1.444,2.5-1.443Z"/>
    <path class="cls-6" d="M149.926,173.206l-2.5,1.443-2.5-1.443,2.5-1.444Z"/>
    <path class="cls-6" d="M244.908,118.357l-2.5,1.444-2.5-1.444,2.5-1.443Z"/>
    <path class="cls-6" d="M220,132.791l-2.5,1.443-2.5-1.443,2.5-1.443Z"/>
    <path class="cls-6" d="M194.908,147.225l-2.5,1.444-2.5-1.444,2.5-1.443Z"/>
    <path class="cls-6" d="M170,161.658l-2.5,1.444-2.5-1.444,2.5-1.443Z"/>
    <path class="cls-6" d="M144.8711,176.093l-2.5,1.443-2.5-1.443,2.5-1.444Z"/>
    <path class="cls-6" d="M274.9629,112.584l-2.5,1.443-2.5-1.443,2.5-1.444Z"/>
    <path class="cls-6" d="M269.9629,115.471l-2.5,1.443-2.5-1.443,2.5-1.444Z"/>
    <path class="cls-6" d="M264.926,118.357l-2.5,1.444-2.5-1.444,2.5-1.443Z"/>
    <path class="cls-6" d="M259.9629,121.244l-2.5,1.443-2.5-1.443,2.5-1.443Z"/>
    <path class="cls-6" d="M234.9629,135.678l-2.5,1.443-2.5-1.443,2.5-1.444Z"/>
    <path class="cls-6" d="M230.0371,138.564l-2.5,1.444-2.5-1.444,2.5-1.443Z"/>
    <path class="cls-6" d="M224.926,141.452l-2.5,1.443-2.5-1.443,2.5-1.444Z"/>
    <path class="cls-6" d="M219.9629,144.338l-2.5,1.443-2.5-1.443,2.5-1.443Z"/>
    <path class="cls-6" d="M214.9629,147.224l-2.5,1.444-2.5-1.444,2.5-1.443Z"/>
    <path class="cls-6" d="M209.9629,150.112l-2.5,1.443-2.5-1.443,2.5-1.444Z"/>
    <path class="cls-6" d="M204.926,152.998l-2.5,1.443-2.5-1.443,2.5-1.443Z"/>
    <path class="cls-6" d="M199.9629,155.885l-2.5,1.443-2.5-1.443,2.5-1.444Z"/>
    <path class="cls-6" d="M194.9629,158.772l-2.5,1.443-2.5-1.443,2.5-1.444Z"/>
    <path class="cls-6" d="M189.926,161.658l-2.5,1.444-2.5-1.444,2.5-1.443Z"/>
    <path class="cls-6" d="M184.9629,164.545l-2.5,1.444-2.5-1.444,2.5-1.443Z"/>
    <path class="cls-6" d="M179.926,167.432l-2.5,1.443-2.5-1.443,2.5-1.444Z"/>
    <path class="cls-6" d="M174.9629,170.319l-2.5,1.443-2.5-1.443,2.5-1.444Z"/>
    <path class="cls-6" d="M169.9629,173.205l-2.5,1.444-2.5-1.444,2.5-1.443Z"/>
    <path class="cls-6" d="M164.9629,176.092l-2.5,1.443-2.5-1.443,2.5-1.443Z"/>
    <path class="cls-6" d="M159.9629,178.979l-2.5,1.443-2.5-1.443,2.5-1.444Z"/>
    <path class="cls-6" d="M254.9629,124.13l-2.5,1.444-2.5-1.444,2.5-1.443Z"/>
    <path class="cls-6" d="M249.926,127.017l-2.5,1.444-2.5-1.444,2.5-1.443Z"/>
    <path class="cls-6" d="M244.926,129.904l-2.5,1.443-2.5-1.443,2.5-1.444Z"/>
    <path class="cls-6" d="M239.9629,132.791l-2.5,1.443-2.5-1.443,2.5-1.443Z"/>
    <path class="cls-6" d="M285,118.357l-2.5,1.444-2.5-1.444,2.5-1.443Z"/>
    <path class="cls-6" d="M280,121.244l-2.5,1.444-2.5-1.444,2.5-1.443Z"/>
    <path class="cls-6" d="M274.9629,124.131l-2.5,1.443-2.5-1.443,2.5-1.443Z"/>
    <path class="cls-6" d="M270,127.018l-2.5,1.443-2.5-1.443,2.5-1.444Z"/>
    <path class="cls-6" d="M245,141.451l-2.5,1.444-2.5-1.444,2.5-1.443Z"/>
    <path class="cls-6" d="M240.074,144.338l-2.5,1.443-2.5-1.443,2.5-1.443Z"/>
    <path class="cls-6" d="M234.9629,147.225l-2.5,1.443-2.5-1.443,2.5-1.443Z"/>
    <path class="cls-6" d="M230,150.112l-2.5,1.443-2.5-1.443,2.5-1.444Z"/>
    <path class="cls-6" d="M225,152.998l-2.5,1.443-2.5-1.443,2.5-1.443Z"/>
    <path class="cls-6" d="M220,155.885l-2.5,1.444-2.5-1.444,2.5-1.443Z"/>
    <path class="cls-6" d="M214.9629,158.772l-2.5,1.443-2.5-1.443,2.5-1.444Z"/>
    <path class="cls-6" d="M210,161.658l-2.5,1.444-2.5-1.444,2.5-1.443Z"/>
    <path class="cls-6" d="M205,164.545l-2.5,1.444-2.5-1.444,2.5-1.443Z"/>
    <path class="cls-6" d="M199.9629,167.432l-2.5,1.443-2.5-1.443,2.5-1.443Z"/>
    <path class="cls-6" d="M195,170.319l-2.5,1.443-2.5-1.443,2.5-1.443Z"/>
    <path class="cls-6" d="M189.9629,173.205l-2.5,1.444-2.5-1.444,2.5-1.443Z"/>
    <path class="cls-6" d="M185,176.092l-2.5,1.444-2.5-1.444,2.5-1.443Z"/>
    <path class="cls-6" d="M180,178.979l-2.5,1.443-2.5-1.443,2.5-1.443Z"/>
    <path class="cls-6" d="M175,181.866l-2.5,1.443-2.5-1.443,2.5-1.444Z"/>
    <path class="cls-6" d="M170,184.752l-2.5,1.444-2.5-1.444,2.5-1.443Z"/>
    <path class="cls-6" d="M165,187.639l-2.5,1.443-2.5-1.443,2.5-1.443Z"/>
    <path class="cls-6" d="M265,129.904l-2.5,1.443-2.5-1.443,2.5-1.443Z"/>
    <path class="cls-6" d="M259.9629,132.791l-2.5,1.443-2.5-1.443,2.5-1.443Z"/>
    <path class="cls-6" d="M254.9629,135.677l-2.5,1.444-2.5-1.444,2.5-1.443Z"/>
    <path class="cls-6" d="M250,138.565l-2.5,1.443-2.5-1.443,2.5-1.444Z"/>
    <path class="cls-6" d="M294.9629,124.13l-2.5,1.444-2.5-1.444,2.5-1.443Z"/>
    <path class="cls-6" d="M289.9629,127.017l-2.5,1.444-2.5-1.444,2.5-1.443Z"/>
    <path class="cls-6" d="M284.926,129.904l-2.5,1.443-2.5-1.443,2.5-1.443Z"/>
    <path class="cls-6" d="M279.9629,132.791l-2.5,1.443-2.5-1.443,2.5-1.444Z"/>
    <path class="cls-6" d="M254.9629,147.225l-2.5,1.443-2.5-1.443,2.5-1.444Z"/>
    <path class="cls-6" d="M250.0371,150.111l-2.5,1.443-2.5-1.443,2.5-1.443Z"/>
    <path class="cls-6" d="M244.926,152.998l-2.5,1.444-2.5-1.444,2.5-1.443Z"/>
    <path class="cls-6" d="M239.9629,155.885l-2.5,1.443-2.5-1.443,2.5-1.444Z"/>
    <path class="cls-6" d="M234.9629,158.771l-2.5,1.444-2.5-1.444,2.5-1.443Z"/>
    <path class="cls-6" d="M229.9629,161.658l-2.5,1.444-2.5-1.444,2.5-1.443Z"/>
    <path class="cls-6" d="M224.926,164.545l-2.5,1.443-2.5-1.443,2.5-1.444Z"/>
    <path class="cls-6" d="M219.9629,167.432l-2.5,1.443-2.5-1.443,2.5-1.444Z"/>
    <path class="cls-6" d="M214.9629,170.319l-2.5,1.443-2.5-1.443,2.5-1.444Z"/>
    <path class="cls-6" d="M209.926,173.205l-2.5,1.443-2.5-1.443,2.5-1.443Z"/>
    <path class="cls-6" d="M204.9629,176.092l-2.5,1.443-2.5-1.443,2.5-1.443Z"/>
    <path class="cls-6" d="M199.926,178.979l-2.5,1.443-2.5-1.443,2.5-1.444Z"/>
    <path class="cls-6" d="M194.9629,181.866l-2.5,1.443-2.5-1.443,2.5-1.444Z"/>
    <path class="cls-6" d="M189.9629,184.752l-2.5,1.443-2.5-1.443,2.5-1.443Z"/>
    <path class="cls-6" d="M184.9629,187.639l-2.5,1.443-2.5-1.443,2.5-1.444Z"/>
    <path class="cls-6" d="M179.9629,190.526l-2.5,1.443-2.5-1.443,2.5-1.444Z"/>
    <path class="cls-6" d="M174.9629,193.412l-2.5,1.444-2.5-1.444,2.5-1.443Z"/>
    <path class="cls-6" d="M169.9629,196.299l-2.5,1.444-2.5-1.444,2.5-1.443Z"/>
    <path class="cls-6" d="M164.9629,199.186l-2.5,1.443-2.5-1.443,2.5-1.443Z"/>
    <path class="cls-6" d="M274.9629,135.677l-2.5,1.443-2.5-1.443,2.5-1.443Z"/>
    <path class="cls-6" d="M269.926,138.564l-2.5,1.443-2.5-1.443,2.5-1.443Z"/>
    <path class="cls-6" d="M264.926,141.45l-2.5,1.444-2.5-1.444,2.5-1.443Z"/>
    <path class="cls-6" d="M259.9629,144.338l-2.5,1.443-2.5-1.443,2.5-1.444Z"/>
    <path class="cls-6" d="M264.9629,109.697l-2.5,1.443-2.5-1.443,2.5-1.444Z"/>
    <path class="cls-6" d="M240.0549,124.13l-2.5,1.444-2.5-1.444,2.5-1.443Z"/>
    <path class="cls-6" d="M214.9629,138.565l-2.5,1.443-2.5-1.443,2.5-1.444Z"/>
    <path class="cls-6" d="M189.9629,152.998l-2.5,1.443-2.5-1.443,2.5-1.443Z"/>
    <path class="cls-6" d="M164.926,167.432l-2.5,1.444-2.5-1.444,2.5-1.443Z"/>
    <path class="cls-6" d="M260,112.584l-2.5,1.443-2.5-1.443,2.5-1.444Z"/>
    <path class="cls-6" d="M235.092,127.018l-2.5,1.443-2.5-1.443,2.5-1.444Z"/>
    <path class="cls-6" d="M210,141.452l-2.5,1.443-2.5-1.443,2.5-1.444Z"/>
    <path class="cls-6" d="M184.9629,155.885l-2.5,1.444-2.5-1.444,2.5-1.443Z"/>
    <path class="cls-6" d="M159.9629,170.319l-2.5,1.444-2.5-1.444,2.5-1.443Z"/>
    <path class="cls-6" d="M254.9451,115.471l-2.5,1.443-2.5-1.443,2.5-1.444Z"/>
    <path class="cls-6" d="M230.0371,129.905l-2.5,1.443-2.5-1.443,2.5-1.444Z"/>
    <path class="cls-6" d="M204.9451,144.339l-2.5,1.443-2.5-1.443,2.5-1.444Z"/>
    <path class="cls-6" d="M179.926,158.772l-2.5,1.443-2.5-1.443,2.5-1.443Z"/>
    <path class="cls-6" d="M155,173.206l-2.5,1.443-2.5-1.443,2.5-1.443Z"/>
    <path class="cls-6" d="M160.074,176.092l-2.5,1.443-2.5-1.443,2.5-1.443Z"/>
    <path class="cls-6" d="M249.9629,118.357l-2.5,1.443-2.5-1.443,2.5-1.444Z"/>
    <path class="cls-6" d="M225.0549,132.79l-2.5,1.444-2.5-1.444,2.5-1.443Z"/>
    <path class="cls-6" d="M199.9629,147.225l-2.5,1.443-2.5-1.443,2.5-1.444Z"/>
    <path class="cls-6" d="M174.9629,161.658l-2.5,1.443-2.5-1.443,2.5-1.443Z"/>
    <path class="cls-6" d="M149.926,176.092l-2.5,1.444-2.5-1.444,2.5-1.443Z"/>
    <path class="cls-6" d="M155,178.978l-2.5,1.444-2.5-1.444,2.5-1.443Z"/>
    <path class="cls-6" d="M159.9629,181.866l-2.5,1.443-2.5-1.443,2.5-1.444Z"/>
    <path class="cls-6" d="M140,181.866l-2.5,1.443-2.5-1.443,2.5-1.444Z"/>
    <path class="cls-6" d="M145,184.752l-2.5,1.443-2.5-1.443,2.5-1.444Z"/>
    <path class="cls-6" d="M149.9629,187.639l-2.5,1.444-2.5-1.444,2.5-1.443Z"/>
    <path class="cls-6" d="M154.9629,190.526l-2.5,1.444-2.5-1.444,2.5-1.443Z"/>
    <path class="cls-6" d="M244.908,121.244l-2.5,1.443-2.5-1.443,2.5-1.444Z"/>
    <path class="cls-6" d="M220,135.678l-2.5,1.443-2.5-1.443,2.5-1.444Z"/>
    <path class="cls-6" d="M194.908,150.112l-2.5,1.443-2.5-1.443,2.5-1.444Z"/>
    <path class="cls-6" d="M170,164.545l-2.5,1.443-2.5-1.443,2.5-1.443Z"/>
    <path class="cls-6" d="M145,178.979l-2.5,1.443-2.5-1.443,2.5-1.444Z"/>
    <path class="cls-6" d="M149.926,181.865l-2.5,1.443-2.5-1.443,2.5-1.443Z"/>
    <path class="cls-6" d="M154.9629,184.752l-2.5,1.444-2.5-1.444,2.5-1.443Z"/>
    <path class="cls-6" d="M159.9629,187.639l-2.5,1.443-2.5-1.443,2.5-1.443Z"/>
    <path class="cls-6" d="M160,193.413l-2.5,1.443-2.5-1.443,2.5-1.444Z"/>
    <path class="cls-6" d="M154.9629,196.299l-2.5,1.444-2.5-1.444,2.5-1.443Z"/>
    <path class="cls-6" d="M159.926,199.186l-2.5,1.443-2.5-1.443,2.5-1.443Z"/>
    <path class="cls-6" d="M134.9629,184.752l-2.5,1.443-2.5-1.443,2.5-1.443Z"/>
    <path class="cls-6" d="M140,187.638l-2.5,1.444-2.5-1.444,2.5-1.443Z"/>
    <path class="cls-6" d="M144.9629,190.525l-2.5,1.444-2.5-1.444,2.5-1.443Z"/>
    <path class="cls-6" d="M149.9629,193.413l-2.5,1.443-2.5-1.443,2.5-1.444Z"/>
    <path class="cls-6" d="M274.9629,115.47l-2.5,1.444-2.5-1.444,2.5-1.443Z"/>
    <path class="cls-6" d="M285,121.244l-2.5,1.443-2.5-1.443,2.5-1.443Z"/>
    <path class="cls-6" d="M264.926,98.15l-2.5,1.443-2.5-1.443,2.5-1.444Z"/>
    <path class="cls-6" d="M180,51.962l-2.5,1.443L175,51.962l2.5-1.444Z"/>
    <path class="cls-6" d="M185,54.849l-2.5,1.443L180,54.849l2.5-1.444Z"/>
    <path class="cls-6" d="M190.074,57.735l-2.5,1.444-2.5-1.444,2.5-1.443Z"/>
    <path class="cls-6" d="M195,60.622l-2.5,1.443L190,60.622l2.5-1.443Z"/>
    <path class="cls-6" d="M200,63.509l-2.5,1.443L195,63.509l2.5-1.444Z"/>
    <path class="cls-6" d="M205,66.396l-2.5,1.443L200,66.396l2.5-1.444Z"/>
    <path class="cls-6" d="M210,69.282l-2.5,1.444L205,69.282l2.5-1.443Z"/>
    <path class="cls-6" d="M215,72.169l-2.5,1.443L210,72.169l2.5-1.443Z"/>
    <path class="cls-6" d="M220,75.056l-2.5,1.443L215,75.056l2.5-1.444Z"/>
    <path class="cls-6" d="M225,77.943l-2.5,1.443L220,77.943l2.5-1.444Z"/>
    <path class="cls-6" d="M230.0371,80.829l-2.5,1.444-2.5-1.444,2.5-1.443Z"/>
    <path class="cls-6" d="M235.074,83.716l-2.5,1.443-2.5-1.443,2.5-1.443Z"/>
    <path class="cls-6" d="M240,86.603l-2.5,1.443L235,86.603l2.5-1.444Z"/>
    <path class="cls-6" d="M245,89.49l-2.5,1.443L240,89.49l2.5-1.444Z"/>
    <path class="cls-6" d="M250,92.376l-2.5,1.444L245,92.376l2.5-1.443Z"/>
    <path class="cls-6" d="M255,95.263l-2.5,1.443L250,95.263l2.5-1.443Z"/>
    <path class="cls-6" d="M260,98.15l-2.5,1.443L255,98.15l2.5-1.444Z"/>
    <path class="cls-6" d="M259.926,101.037l-2.5,1.443-2.5-1.443,2.5-1.444Z"/>
    <path class="cls-6" d="M175,51.962l-2.5,1.443L170,51.962l2.5-1.444Z"/>
    <path class="cls-6" d="M165,51.962l-2.5,1.443L160,51.962l2.5-1.444Z"/>
    <path class="cls-6" d="M170,51.962l-2.5,1.443L165,51.962l2.5-1.444Z"/>
    <path class="cls-6" d="M170,54.849l-2.5,1.443L165,54.849l2.5-1.444Z"/>
    <path class="cls-6" d="M164.926,54.849l-2.5,1.443-2.5-1.443,2.5-1.444Z"/>
    <path class="cls-6" d="M160,57.735l-2.5,1.444L155,57.735l2.5-1.443Z"/>
    <path class="cls-6" d="M155,60.622l-2.5,1.443L150,60.622l2.5-1.443Z"/>
    <path class="cls-6" d="M149.8889,63.509l-2.5,1.443-2.5-1.443,2.5-1.444Z"/>
    <path class="cls-6" d="M144.926,66.396l-2.5,1.443-2.5-1.443,2.5-1.444Z"/>
    <path class="cls-6" d="M139.926,69.282l-2.5,1.444-2.5-1.444,2.5-1.443Z"/>
    <path class="cls-6" d="M134.926,72.169l-2.5,1.443-2.5-1.443,2.5-1.443Z"/>
    <path class="cls-6" d="M129.926,75.056l-2.5,1.443-2.5-1.443,2.5-1.444Z"/>
    <path class="cls-6" d="M124.8889,77.942l-2.5,1.444-2.5-1.444,2.5-1.443Z"/>
    <path class="cls-6" d="M119.926,80.829l-2.5,1.444-2.5-1.444,2.5-1.443Z"/>
    <path class="cls-6" d="M114.9629,83.716l-2.5,1.443-2.5-1.443,2.5-1.443Z"/>
    <path class="cls-6" d="M110,86.603l-2.5,1.443L105,86.603l2.5-1.443Z"/>
    <path class="cls-6" d="M104.9629,89.489l-2.5,1.444-2.5-1.444,2.5-1.443Z"/>
    <path class="cls-6" d="M99.926,92.376l-2.5,1.444-2.5-1.444,2.5-1.443Z"/>
    <path class="cls-6" d="M94.926,95.263l-2.5,1.443-2.5-1.443,2.5-1.443Z"/>
    <path class="cls-6" d="M89.8889,98.15l-2.5,1.443-2.5-1.443,2.5-1.444Z"/>
    <path class="cls-6" d="M85,101.037l-2.5,1.443L80,101.037l2.5-1.444Z"/>
    <path class="cls-6" d="M79.9629,103.923l-2.5,1.444-2.5-1.444,2.5-1.443Z"/>
    <path class="cls-6" d="M75,106.81l-2.5,1.443L70,106.81l2.5-1.443Z"/>
    <path class="cls-6" d="M69.9629,109.697l-2.5,1.443-2.5-1.443,2.5-1.444Z"/>
    <path class="cls-6" d="M64.926,112.584l-2.5,1.443-2.5-1.443,2.5-1.444Z"/>
    <path class="cls-6" d="M59.8889,115.47l-2.5,1.444-2.5-1.444,2.5-1.443Z"/>
    <path class="cls-6" d="M54.926,118.357l-2.5,1.443-2.5-1.443,2.5-1.443Z"/>
    <path class="cls-6" d="M159.926,54.849l-2.5,1.443-2.5-1.443,2.5-1.444Z"/>
    <path class="cls-6" d="M155,57.735l-2.5,1.444L150,57.735l2.5-1.443Z"/>
    <path class="cls-6" d="M150,60.622l-2.5,1.443L145,60.622l2.5-1.443Z"/>
    <path class="cls-6" d="M144.8889,63.509l-2.5,1.443-2.5-1.443,2.5-1.444Z"/>
    <path class="cls-6" d="M139.926,66.396l-2.5,1.443-2.5-1.443,2.5-1.444Z"/>
    <path class="cls-6" d="M134.926,69.282l-2.5,1.444-2.5-1.444,2.5-1.443Z"/>
    <path class="cls-6" d="M129.926,72.169l-2.5,1.443-2.5-1.443,2.5-1.443Z"/>
    <path class="cls-6" d="M124.926,75.056l-2.5,1.443-2.5-1.443,2.5-1.444Z"/>
    <path class="cls-6" d="M119.8889,77.942l-2.5,1.444-2.5-1.444,2.5-1.443Z"/>
    <path class="cls-6" d="M114.926,80.829l-2.5,1.444-2.5-1.444,2.5-1.443Z"/>
    <path class="cls-6" d="M109.9629,83.716l-2.5,1.443-2.5-1.443,2.5-1.443Z"/>
    <path class="cls-6" d="M99.9629,89.489l-2.5,1.444-2.5-1.444,2.5-1.443Z"/>
    <path class="cls-6" d="M94.926,92.376l-2.5,1.444-2.5-1.444,2.5-1.443Z"/>
    <path class="cls-6" d="M89.926,95.263l-2.5,1.443-2.5-1.443,2.5-1.443Z"/>
    <path class="cls-6" d="M84.8889,98.15l-2.5,1.443-2.5-1.443,2.5-1.444Z"/>
    <path class="cls-6" d="M80,101.037l-2.5,1.443L75,101.037l2.5-1.444Z"/>
    <path class="cls-6" d="M74.9629,103.923l-2.5,1.444-2.5-1.444,2.5-1.443Z"/>
    <path class="cls-6" d="M70,106.81l-2.5,1.443L65,106.81l2.5-1.443Z"/>
    <path class="cls-6" d="M64.9629,109.697l-2.5,1.443-2.5-1.443,2.5-1.444Z"/>
    <path class="cls-6" d="M59.926,112.583l-2.5,1.444-2.5-1.444,2.5-1.443Z"/>
    <path class="cls-6" d="M54.8889,115.47l-2.5,1.444-2.5-1.444,2.5-1.443Z"/>
    <path class="cls-6" d="M49.926,118.357l-2.5,1.443-2.5-1.443,2.5-1.443Z"/>
    <path class="cls-6" d="M175,57.735l-2.5,1.444L170,57.735l2.5-1.443Z"/>
    <path class="cls-6" d="M169.926,57.735l-2.5,1.444-2.5-1.444,2.5-1.443Z"/>
    <path class="cls-6" d="M165,60.622l-2.5,1.443L160,60.622l2.5-1.443Z"/>
    <path class="cls-6" d="M160,63.509l-2.5,1.443L155,63.509l2.5-1.444Z"/>
    <path class="cls-6" d="M154.8889,66.395l-2.5,1.444-2.5-1.444,2.5-1.443Z"/>
    <path class="cls-6" d="M149.926,69.282l-2.5,1.444-2.5-1.444,2.5-1.443Z"/>
    <path class="cls-6" d="M144.926,72.169l-2.5,1.443-2.5-1.443,2.5-1.443Z"/>
    <path class="cls-6" d="M139.926,75.056l-2.5,1.443-2.5-1.443,2.5-1.444Z"/>
    <path class="cls-6" d="M134.926,77.943l-2.5,1.443-2.5-1.443,2.5-1.444Z"/>
    <path class="cls-6" d="M129.8889,80.829l-2.5,1.444-2.5-1.444,2.5-1.443Z"/>
    <path class="cls-6" d="M124.926,83.716l-2.5,1.443-2.5-1.443,2.5-1.443Z"/>
    <path class="cls-6" d="M119.9629,86.603l-2.5,1.443-2.5-1.443,2.5-1.444Z"/>
    <path class="cls-6" d="M115,89.49l-2.5,1.443L110,89.49l2.5-1.444Z"/>
    <path class="cls-6" d="M109.9629,92.376l-2.5,1.444-2.5-1.444,2.5-1.443Z"/>
    <path class="cls-6" d="M104.926,95.263l-2.5,1.444-2.5-1.444,2.5-1.443Z"/>
    <path class="cls-6" d="M99.926,98.15l-2.5,1.443-2.5-1.443,2.5-1.444Z"/>
    <path class="cls-6" d="M94.8889,101.037l-2.5,1.443-2.5-1.443,2.5-1.444Z"/>
    <path class="cls-6" d="M90,103.923l-2.5,1.444L85,103.923l2.5-1.443Z"/>
    <path class="cls-6" d="M84.9629,106.81l-2.5,1.443-2.5-1.443,2.5-1.443Z"/>
    <path class="cls-6" d="M80,109.697l-2.5,1.443L75,109.697l2.5-1.444Z"/>
    <path class="cls-6" d="M74.9629,112.584l-2.5,1.443-2.5-1.443,2.5-1.444Z"/>
    <path class="cls-6" d="M69.926,115.47l-2.5,1.444-2.5-1.444,2.5-1.443Z"/>
    <path class="cls-6" d="M64.8889,118.357l-2.5,1.443-2.5-1.443,2.5-1.443Z"/>
    <path class="cls-6" d="M59.926,121.244l-2.5,1.443-2.5-1.443,2.5-1.444Z"/>
    <path class="cls-6" d="M164.926,57.735l-2.5,1.444-2.5-1.444,2.5-1.443Z"/>
    <path class="cls-6" d="M160,60.622l-2.5,1.443L155,60.622l2.5-1.443Z"/>
    <path class="cls-6" d="M155,63.509l-2.5,1.443L150,63.509l2.5-1.444Z"/>
    <path class="cls-6" d="M149.8889,66.395l-2.5,1.444-2.5-1.444,2.5-1.443Z"/>
    <path class="cls-6" d="M144.926,69.282l-2.5,1.444-2.5-1.444,2.5-1.443Z"/>
    <path class="cls-6" d="M139.926,72.169l-2.5,1.443-2.5-1.443,2.5-1.443Z"/>
    <path class="cls-6" d="M134.926,75.056l-2.5,1.443-2.5-1.443,2.5-1.444Z"/>
    <path class="cls-6" d="M129.926,77.943l-2.5,1.443-2.5-1.443,2.5-1.444Z"/>
    <path class="cls-6" d="M124.8889,80.829l-2.5,1.444-2.5-1.444,2.5-1.443Z"/>
    <path class="cls-6" d="M119.926,83.716l-2.5,1.443-2.5-1.443,2.5-1.443Z"/>
    <path class="cls-6" d="M114.9629,86.603l-2.5,1.443-2.5-1.443,2.5-1.444Z"/>
    <path class="cls-6" d="M110,89.49l-2.5,1.443L105,89.49l2.5-1.444Z"/>
    <path class="cls-6" d="M104.9629,92.376l-2.5,1.444-2.5-1.444,2.5-1.443Z"/>
    <path class="cls-6" d="M99.926,95.263l-2.5,1.443-2.5-1.443,2.5-1.443Z"/>
    <path class="cls-6" d="M94.926,98.15l-2.5,1.443-2.5-1.443,2.5-1.444Z"/>
    <path class="cls-6" d="M89.8889,101.037l-2.5,1.443-2.5-1.443,2.5-1.444Z"/>
    <path class="cls-6" d="M85,103.923l-2.5,1.444L80,103.923l2.5-1.443Z"/>
    <path class="cls-6" d="M79.9629,106.81l-2.5,1.443-2.5-1.443,2.5-1.443Z"/>
    <path class="cls-6" d="M75,109.697l-2.5,1.443L70,109.697l2.5-1.444Z"/>
    <path class="cls-6" d="M69.9629,112.584l-2.5,1.443-2.5-1.443,2.5-1.444Z"/>
    <path class="cls-6" d="M64.926,115.47l-2.5,1.444-2.5-1.444,2.5-1.443Z"/>
    <path class="cls-6" d="M59.8889,118.357l-2.5,1.443-2.5-1.443,2.5-1.443Z"/>
    <path class="cls-6" d="M54.926,121.244l-2.5,1.443-2.5-1.443,2.5-1.444Z"/>
    <path class="cls-6" d="M180,57.735l-2.5,1.444L175,57.735l2.5-1.443Z"/>
    <path class="cls-6" d="M180,60.622l-2.5,1.443L175,60.622l2.5-1.443Z"/>
    <path class="cls-6" d="M174.9629,63.509l-2.5,1.443-2.5-1.443,2.5-1.444Z"/>
    <path class="cls-6" d="M170.0371,66.395l-2.5,1.444-2.5-1.444,2.5-1.443Z"/>
    <path class="cls-6" d="M165.0371,69.282l-2.5,1.444-2.5-1.444,2.5-1.443Z"/>
    <path class="cls-6" d="M159.926,72.169l-2.5,1.443-2.5-1.443,2.5-1.443Z"/>
    <path class="cls-6" d="M154.9629,75.056l-2.5,1.443-2.5-1.443,2.5-1.444Z"/>
    <path class="cls-6" d="M149.9629,77.943l-2.5,1.443-2.5-1.443,2.5-1.444Z"/>
    <path class="cls-6" d="M144.9629,80.829l-2.5,1.444-2.5-1.444,2.5-1.443Z"/>
    <path class="cls-6" d="M139.9629,83.716l-2.5,1.443-2.5-1.443,2.5-1.443Z"/>
    <path class="cls-6" d="M134.926,86.603l-2.5,1.443-2.5-1.443,2.5-1.444Z"/>
    <path class="cls-6" d="M129.9629,89.49l-2.5,1.443-2.5-1.443,2.5-1.444Z"/>
    <path class="cls-6" d="M125,92.376l-2.5,1.444L120,92.376l2.5-1.443Z"/>
    <path class="cls-6" d="M120.0371,95.263l-2.5,1.443-2.5-1.443,2.5-1.443Z"/>
    <path class="cls-6" d="M115,98.15l-2.5,1.443L110,98.15l2.5-1.444Z"/>
    <path class="cls-6" d="M109.9629,101.037l-2.5,1.443-2.5-1.443,2.5-1.444Z"/>
    <path class="cls-6" d="M104.9629,103.923l-2.5,1.444-2.5-1.444,2.5-1.443Z"/>
    <path class="cls-6" d="M99.926,106.81l-2.5,1.443-2.5-1.443,2.5-1.443Z"/>
    <path class="cls-6" d="M95.0371,109.697l-2.5,1.443-2.5-1.443,2.5-1.443Z"/>
    <path class="cls-6" d="M90,112.584l-2.5,1.443L85,112.584l2.5-1.444Z"/>
    <path class="cls-6" d="M85.0371,115.47l-2.5,1.444-2.5-1.444,2.5-1.443Z"/>
    <path class="cls-6" d="M80,118.357,77.5,119.8,75,118.357l2.5-1.443Z"/>
    <path class="cls-6" d="M74.9629,121.244l-2.5,1.443-2.5-1.443,2.5-1.444Z"/>
    <path class="cls-6" d="M69.926,124.131l-2.5,1.443-2.5-1.443,2.5-1.444Z"/>
    <path class="cls-6" d="M64.9629,127.017l-2.5,1.444-2.5-1.444,2.5-1.443Z"/>
    <path class="cls-6" d="M174.926,60.622l-2.5,1.443-2.5-1.443,2.5-1.443Z"/>
    <path class="cls-6" d="M170,63.509l-2.5,1.443L165,63.509l2.5-1.444Z"/>
    <path class="cls-6" d="M165,66.396l-2.5,1.443L160,66.396l2.5-1.444Z"/>
    <path class="cls-6" d="M159.8889,69.282l-2.5,1.444-2.5-1.444,2.5-1.443Z"/>
    <path class="cls-6" d="M154.926,72.169l-2.5,1.443-2.5-1.443,2.5-1.443Z"/>
    <path class="cls-6" d="M149.926,75.056l-2.5,1.443-2.5-1.443,2.5-1.444Z"/>
    <path class="cls-6" d="M144.926,77.942l-2.5,1.444-2.5-1.444,2.5-1.443Z"/>
    <path class="cls-6" d="M139.926,80.829l-2.5,1.444-2.5-1.444,2.5-1.443Z"/>
    <path class="cls-6" d="M134.8889,83.716l-2.5,1.443-2.5-1.443,2.5-1.443Z"/>
    <path class="cls-6" d="M129.926,86.603l-2.5,1.443-2.5-1.443,2.5-1.444Z"/>
    <path class="cls-6" d="M124.9629,89.489l-2.5,1.444-2.5-1.444,2.5-1.443Z"/>
    <path class="cls-6" d="M120,92.376l-2.5,1.444L115,92.376l2.5-1.443Z"/>
    <path class="cls-6" d="M114.9629,95.263l-2.5,1.443-2.5-1.443,2.5-1.443Z"/>
    <path class="cls-6" d="M109.926,98.15l-2.5,1.443-2.5-1.443,2.5-1.443Z"/>
    <path class="cls-6" d="M104.926,101.037l-2.5,1.443-2.5-1.443,2.5-1.444Z"/>
    <path class="cls-6" d="M99.8889,103.923l-2.5,1.444-2.5-1.444,2.5-1.443Z"/>
    <path class="cls-6" d="M95,106.81l-2.5,1.444L90,106.81l2.5-1.443Z"/>
    <path class="cls-6" d="M89.9629,109.697l-2.5,1.443-2.5-1.443,2.5-1.444Z"/>
    <path class="cls-6" d="M85,112.584l-2.5,1.443L80,112.584l2.5-1.444Z"/>
    <path class="cls-6" d="M79.9629,115.47l-2.5,1.444-2.5-1.444,2.5-1.443Z"/>
    <path class="cls-6" d="M74.926,118.357l-2.5,1.443-2.5-1.443,2.5-1.443Z"/>
    <path class="cls-6" d="M69.8889,121.244l-2.5,1.443-2.5-1.443,2.5-1.444Z"/>
    <path class="cls-6" d="M64.926,124.131l-2.5,1.443-2.5-1.443,2.5-1.444Z"/>
    <path class="cls-6" d="M169.926,60.622l-2.5,1.443-2.5-1.443,2.5-1.443Z"/>
    <path class="cls-6" d="M165,63.509l-2.5,1.443L160,63.509l2.5-1.444Z"/>
    <path class="cls-6" d="M160,66.396l-2.5,1.443L155,66.396l2.5-1.444Z"/>
    <path class="cls-6" d="M154.8889,69.282l-2.5,1.444-2.5-1.444,2.5-1.443Z"/>
    <path class="cls-6" d="M149.926,72.169l-2.5,1.443-2.5-1.443,2.5-1.443Z"/>
    <path class="cls-6" d="M144.926,75.056l-2.5,1.443-2.5-1.443,2.5-1.444Z"/>
    <path class="cls-6" d="M139.926,77.942l-2.5,1.444-2.5-1.444,2.5-1.443Z"/>
    <path class="cls-6" d="M134.926,80.829l-2.5,1.444-2.5-1.444,2.5-1.443Z"/>
    <path class="cls-6" d="M129.8889,83.716l-2.5,1.443-2.5-1.443,2.5-1.443Z"/>
    <path class="cls-6" d="M124.926,86.603l-2.5,1.443-2.5-1.443,2.5-1.444Z"/>
    <path class="cls-6" d="M119.9629,89.489l-2.5,1.444-2.5-1.444,2.5-1.443Z"/>
    <path class="cls-6" d="M115,92.376l-2.5,1.444L110,92.376l2.5-1.443Z"/>
    <path class="cls-6" d="M109.9629,95.263l-2.5,1.443-2.5-1.443,2.5-1.443Z"/>
    <path class="cls-6" d="M104.926,98.15l-2.5,1.443-2.5-1.443,2.5-1.444Z"/>
    <path class="cls-6" d="M99.926,101.037l-2.5,1.443-2.5-1.443,2.5-1.444Z"/>
    <path class="cls-6" d="M94.8889,103.923l-2.5,1.444-2.5-1.444,2.5-1.443Z"/>
    <path class="cls-6" d="M90,106.81l-2.5,1.443L85,106.81l2.5-1.443Z"/>
    <path class="cls-6" d="M84.9629,109.697l-2.5,1.443-2.5-1.443,2.5-1.444Z"/>
    <path class="cls-6" d="M80,112.584l-2.5,1.443L75,112.584l2.5-1.444Z"/>
    <path class="cls-6" d="M74.9629,115.47l-2.5,1.444-2.5-1.444,2.5-1.443Z"/>
    <path class="cls-6" d="M69.926,118.357l-2.5,1.443-2.5-1.443,2.5-1.443Z"/>
    <path class="cls-6" d="M64.8889,121.244l-2.5,1.443-2.5-1.443,2.5-1.444Z"/>
    <path class="cls-6" d="M59.926,124.131l-2.5,1.443-2.5-1.443,2.5-1.444Z"/>
    <path class="cls-6" d="M185,60.622l-2.5,1.443L180,60.622l2.5-1.443Z"/>
    <path class="cls-6" d="M190,63.509l-2.5,1.443L185,63.509l2.5-1.444Z"/>
    <path class="cls-6" d="M185,63.509l-2.5,1.443L180,63.509l2.5-1.444Z"/>
    <path class="cls-6" d="M190,66.396l-2.5,1.443L185,66.396l2.5-1.444Z"/>
    <path class="cls-6" d="M195,66.396l-2.5,1.443L190,66.396l2.5-1.444Z"/>
    <path class="cls-6" d="M195,69.282l-2.5,1.444L190,69.282l2.5-1.443Z"/>
    <path class="cls-6" d="M200,72.169l-2.5,1.443L195,72.169l2.5-1.443Z"/>
    <path class="cls-6" d="M200,69.282l-2.5,1.444L195,69.282l2.5-1.443Z"/>
    <path class="cls-6" d="M205,72.169l-2.5,1.443L200,72.169l2.5-1.443Z"/>
    <path class="cls-6" d="M205,75.056l-2.5,1.443L200,75.056l2.5-1.444Z"/>
    <path class="cls-6" d="M210,77.943l-2.5,1.443L205,77.943l2.5-1.444Z"/>
    <path class="cls-6" d="M215,80.829l-2.5,1.444L210,80.829l2.5-1.443Z"/>
    <path class="cls-6" d="M220,83.716l-2.5,1.443L215,83.716l2.5-1.443Z"/>
    <path class="cls-6" d="M225,86.603l-2.5,1.443L220,86.603l2.5-1.444Z"/>
    <path class="cls-6" d="M210,75.056l-2.5,1.443L205,75.056l2.5-1.444Z"/>
    <path class="cls-6" d="M215,77.943l-2.5,1.443L210,77.943l2.5-1.444Z"/>
    <path class="cls-6" d="M220,80.829l-2.5,1.444L215,80.829l2.5-1.443Z"/>
    <path class="cls-6" d="M225,83.716l-2.5,1.443L220,83.716l2.5-1.443Z"/>
    <path class="cls-6" d="M230.0371,86.603l-2.5,1.443-2.5-1.443,2.5-1.444Z"/>
    <path class="cls-6" d="M235,89.49l-2.5,1.443L230,89.49l2.5-1.444Z"/>
    <path class="cls-6" d="M240,92.376l-2.5,1.444L235,92.376l2.5-1.443Z"/>
    <path class="cls-6" d="M245,95.263l-2.5,1.443L240,95.263l2.5-1.443Z"/>
    <path class="cls-6" d="M240,98.15l-2.5,1.443L235,98.15l2.5-1.444Z"/>
    <path class="cls-6" d="M235,101.037l-2.5,1.443-2.5-1.443,2.5-1.444Z"/>
    <path class="cls-6" d="M230,103.923l-2.5,1.444-2.5-1.444,2.5-1.443Z"/>
    <path class="cls-6" d="M225,106.81l-2.5,1.443L220,106.81l2.5-1.443Z"/>
    <path class="cls-6" d="M220,109.697l-2.5,1.443-2.5-1.443,2.5-1.444Z"/>
    <path class="cls-6" d="M215,112.584l-2.5,1.443-2.5-1.443,2.5-1.444Z"/>
    <path class="cls-6" d="M210,115.47l-2.5,1.444L205,115.47l2.5-1.443Z"/>
    <path class="cls-6" d="M205,118.357l-2.5,1.443-2.5-1.443,2.5-1.443Z"/>
    <path class="cls-6" d="M195,124.131l-2.5,1.443-2.5-1.443,2.5-1.444Z"/>
    <path class="cls-6" d="M185,129.904l-2.5,1.443-2.5-1.443,2.5-1.443Z"/>
    <path class="cls-6" d="M175,135.678l-2.5,1.443-2.5-1.443,2.5-1.444Z"/>
    <path class="cls-6" d="M165,141.451l-2.5,1.443-2.5-1.443,2.5-1.443Z"/>
    <path class="cls-6" d="M155,147.225l-2.5,1.443-2.5-1.443,2.5-1.444Z"/>
    <path class="cls-6" d="M145,152.998l-2.5,1.443-2.5-1.443,2.5-1.443Z"/>
    <path class="cls-6" d="M135,158.772l-2.5,1.443-2.5-1.443,2.5-1.444Z"/>
    <path class="cls-6" d="M125,164.545l-2.5,1.443-2.5-1.443,2.5-1.443Z"/>
    <path class="cls-6" d="M200,121.244l-2.5,1.443-2.5-1.443,2.5-1.444Z"/>
    <path class="cls-6" d="M190,127.017l-2.5,1.444-2.5-1.444,2.5-1.443Z"/>
    <path class="cls-6" d="M180,132.791l-2.5,1.443-2.5-1.443,2.5-1.444Z"/>
    <path class="cls-6" d="M170,138.564l-2.5,1.444-2.5-1.444,2.5-1.443Z"/>
    <path class="cls-6" d="M160,144.338l-2.5,1.443-2.5-1.443,2.5-1.444Z"/>
    <path class="cls-6" d="M150,150.111l-2.5,1.444-2.5-1.444,2.5-1.443Z"/>
    <path class="cls-6" d="M140,155.885l-2.5,1.443-2.5-1.443,2.5-1.444Z"/>
    <path class="cls-6" d="M130,161.658l-2.5,1.444-2.5-1.444,2.5-1.443Z"/>
    <path class="cls-6" d="M120,167.432l-2.5,1.443-2.5-1.443,2.5-1.444Z"/>
    <path class="cls-6" d="M250,98.15l-2.5,1.443L245,98.15l2.5-1.444Z"/>
    <path class="cls-6" d="M245,101.037l-2.5,1.443-2.5-1.443,2.5-1.444Z"/>
    <path class="cls-6" d="M240,103.923l-2.5,1.444-2.5-1.444,2.5-1.443Z"/>
    <path class="cls-6" d="M235,106.81l-2.5,1.443L230,106.81l2.5-1.443Z"/>
    <path class="cls-6" d="M230,109.697l-2.5,1.443-2.5-1.443,2.5-1.444Z"/>
    <path class="cls-6" d="M225,112.584l-2.5,1.443-2.5-1.443,2.5-1.444Z"/>
    <path class="cls-6" d="M220,115.47l-2.5,1.444L215,115.47l2.5-1.443Z"/>
    <path class="cls-6" d="M215,118.357l-2.5,1.443-2.5-1.443,2.5-1.443Z"/>
    <path class="cls-6" d="M210,121.244l-2.5,1.443-2.5-1.443,2.5-1.444Z"/>
    <path class="cls-6" d="M200,127.017l-2.5,1.444-2.5-1.444,2.5-1.443Z"/>
    <path class="cls-6" d="M190,132.791l-2.5,1.443-2.5-1.443,2.5-1.444Z"/>
    <path class="cls-6" d="M180,138.564l-2.5,1.444-2.5-1.444,2.5-1.443Z"/>
    <path class="cls-6" d="M170,144.338l-2.5,1.443-2.5-1.443,2.5-1.444Z"/>
    <path class="cls-6" d="M160,150.111l-2.5,1.444-2.5-1.444,2.5-1.443Z"/>
    <path class="cls-6" d="M150,155.885l-2.5,1.443-2.5-1.443,2.5-1.444Z"/>
    <path class="cls-6" d="M140,161.658l-2.5,1.444-2.5-1.444,2.5-1.443Z"/>
    <path class="cls-6" d="M130,167.432l-2.5,1.443-2.5-1.443,2.5-1.444Z"/>
    <path class="cls-6" d="M205,124.131l-2.5,1.443-2.5-1.443,2.5-1.444Z"/>
    <path class="cls-6" d="M195,129.904l-2.5,1.443-2.5-1.443,2.5-1.443Z"/>
    <path class="cls-6" d="M185,135.678l-2.5,1.443-2.5-1.443,2.5-1.444Z"/>
    <path class="cls-6" d="M175,141.451l-2.5,1.443-2.5-1.443,2.5-1.443Z"/>
    <path class="cls-6" d="M165,147.225l-2.5,1.443-2.5-1.443,2.5-1.444Z"/>
    <path class="cls-6" d="M155,152.998l-2.5,1.443-2.5-1.443,2.5-1.443Z"/>
    <path class="cls-6" d="M145,158.772l-2.5,1.443-2.5-1.443,2.5-1.444Z"/>
    <path class="cls-6" d="M135,164.545l-2.5,1.443-2.5-1.443,2.5-1.443Z"/>
    <path class="cls-6" d="M125,170.319l-2.5,1.443-2.5-1.443,2.5-1.444Z"/>
    <path class="cls-6" d="M120,173.205l-2.5,1.444-2.5-1.444,2.5-1.443Z"/>
    <path class="cls-6" d="M255,101.037l-2.5,1.443-2.5-1.443,2.5-1.444Z"/>
    <path class="cls-6" d="M250,103.923l-2.5,1.444-2.5-1.444,2.5-1.443Z"/>
    <path class="cls-6" d="M245,106.81l-2.5,1.443L240,106.81l2.5-1.443Z"/>
    <path class="cls-6" d="M240,109.697l-2.5,1.443-2.5-1.443,2.5-1.444Z"/>
    <path class="cls-6" d="M235,112.584l-2.5,1.443-2.5-1.443,2.5-1.444Z"/>
    <path class="cls-6" d="M230,115.47l-2.5,1.444L225,115.47l2.5-1.443Z"/>
    <path class="cls-6" d="M225,118.357l-2.5,1.443-2.5-1.443,2.5-1.443Z"/>
    <path class="cls-6" d="M220,121.244l-2.5,1.443-2.5-1.443,2.5-1.444Z"/>
    <path class="cls-6" d="M215,124.131l-2.5,1.443-2.5-1.443,2.5-1.444Z"/>
    <path class="cls-6" d="M205,129.904l-2.5,1.443-2.5-1.443,2.5-1.443Z"/>
    <path class="cls-6" d="M195,135.678l-2.5,1.443-2.5-1.443,2.5-1.444Z"/>
    <path class="cls-6" d="M185,141.451l-2.5,1.443-2.5-1.443,2.5-1.443Z"/>
    <path class="cls-6" d="M175,147.225l-2.5,1.443-2.5-1.443,2.5-1.444Z"/>
    <path class="cls-6" d="M165,152.998l-2.5,1.443-2.5-1.443,2.5-1.443Z"/>
    <path class="cls-6" d="M155,158.772l-2.5,1.443-2.5-1.443,2.5-1.444Z"/>
    <path class="cls-6" d="M145,164.545l-2.5,1.443-2.5-1.443,2.5-1.443Z"/>
    <path class="cls-6" d="M135,170.319l-2.5,1.443-2.5-1.443,2.5-1.444Z"/>
    <path class="cls-6" d="M210,127.017l-2.5,1.444-2.5-1.444,2.5-1.443Z"/>
    <path class="cls-6" d="M200,132.791l-2.5,1.443-2.5-1.443,2.5-1.444Z"/>
    <path class="cls-6" d="M190,138.564l-2.5,1.444-2.5-1.444,2.5-1.443Z"/>
    <path class="cls-6" d="M180,144.338l-2.5,1.443-2.5-1.443,2.5-1.444Z"/>
    <path class="cls-6" d="M170,150.111l-2.5,1.444-2.5-1.444,2.5-1.443Z"/>
    <path class="cls-6" d="M160,155.885l-2.5,1.443-2.5-1.443,2.5-1.443Z"/>
    <path class="cls-6" d="M150,161.658l-2.5,1.444-2.5-1.444,2.5-1.443Z"/>
    <path class="cls-6" d="M140,167.432l-2.5,1.443-2.5-1.443,2.5-1.444Z"/>
    <path class="cls-6" d="M130,173.205l-2.5,1.444-2.5-1.444,2.5-1.443Z"/>
    <path class="cls-6" d="M125,176.092l-2.5,1.443-2.5-1.443,2.5-1.443Z"/>
    <path class="cls-6" d="M120,176.092l-2.5,1.443-2.5-1.443,2.5-1.443Z"/>
    <path class="cls-6" d="M115,173.205l-2.5,1.444-2.5-1.444,2.5-1.443Z"/>
    <path class="cls-6" d="M110,170.319l-2.5,1.443-2.5-1.443,2.5-1.444Z"/>
    <path class="cls-6" d="M105,167.432l-2.5,1.443-2.5-1.443,2.5-1.444Z"/>
    <path class="cls-6" d="M100,164.545l-2.5,1.443L95,164.545l2.5-1.443Z"/>
    <path class="cls-6" d="M95,161.658l-2.5,1.444L90,161.658l2.5-1.443Z"/>
    <path class="cls-6" d="M90,158.772l-2.5,1.443L85,158.772l2.5-1.444Z"/>
    <path class="cls-6" d="M85,155.885l-2.5,1.443L80,155.885l2.5-1.444Z"/>
    <path class="cls-6" d="M80,152.998l-2.5,1.443L75,152.998l2.5-1.443Z"/>
    <path class="cls-6" d="M75,150.111l-2.5,1.444L70,150.111l2.5-1.443Z"/>
    <path class="cls-6" d="M70,147.225l-2.5,1.443L65,147.225l2.5-1.444Z"/>
    <path class="cls-6" d="M65,144.338l-2.5,1.443L60,144.338l2.5-1.444Z"/>
    <path class="cls-6" d="M60,141.451l-2.5,1.443L55,141.451l2.5-1.443Z"/>
    <path class="cls-6" d="M55,138.564l-2.5,1.444L50,138.564l2.5-1.443Z"/>
    <path class="cls-6" d="M50,135.678l-2.5,1.443L45,135.678l2.5-1.444Z"/>
    <path class="cls-6" d="M45,132.791l-2.5,1.443L40,132.791l2.5-1.444Z"/>
    <path class="cls-6" d="M40,129.904l-2.5,1.443L35,129.904l2.5-1.443Z"/>
    <path class="cls-6" d="M35,127.017l-2.5,1.444L30,127.017l2.5-1.443Z"/>
    <path class="cls-6" d="M30,124.131l-2.5,1.443L25,124.131l2.5-1.444Z"/>
    <path class="cls-6" d="M25,121.244l-2.5,1.443L20,121.244l2.5-1.444Z"/>
    <path class="cls-6" d="M20,118.357,17.5,119.8,15,118.357l2.5-1.443Z"/>
    <path class="cls-6" d="M120,170.319l-2.5,1.443-2.5-1.443,2.5-1.444Z"/>
    <path class="cls-6" d="M120,164.545l-2.5,1.443-2.5-1.443,2.5-1.443Z"/>
    <path class="cls-6" d="M115,161.658l-2.5,1.444-2.5-1.444,2.5-1.443Z"/>
    <path class="cls-6" d="M110,158.772l-2.5,1.443-2.5-1.443,2.5-1.444Z"/>
    <path class="cls-6" d="M105,155.885l-2.5,1.443-2.5-1.443,2.5-1.444Z"/>
    <path class="cls-6" d="M100,152.998l-2.5,1.443L95,152.998l2.5-1.443Z"/>
    <path class="cls-6" d="M95,150.111l-2.5,1.444L90,150.111l2.5-1.443Z"/>
    <path class="cls-6" d="M90,147.225l-2.5,1.443L85,147.225l2.5-1.444Z"/>
    <path class="cls-6" d="M85,144.338l-2.5,1.443L80,144.338l2.5-1.444Z"/>
    <path class="cls-6" d="M80,141.451l-2.5,1.443L75,141.451l2.5-1.443Z"/>
    <path class="cls-6" d="M75,138.564l-2.5,1.444L70,138.564l2.5-1.443Z"/>
    <path class="cls-6" d="M70,135.678l-2.5,1.443L65,135.678l2.5-1.444Z"/>
    <path class="cls-6" d="M65,132.791l-2.5,1.443L60,132.791l2.5-1.444Z"/>
    <path class="cls-6" d="M60,129.904l-2.5,1.443L55,129.904l2.5-1.443Z"/>
    <path class="cls-6" d="M55,127.017l-2.5,1.444L50,127.017l2.5-1.443Z"/>
    <path class="cls-6" d="M50,124.131l-2.5,1.443L45,124.131l2.5-1.444Z"/>
    <path class="cls-6" d="M45,121.244l-2.5,1.443L40,121.244l2.5-1.444Z"/>
    <path class="cls-6" d="M40,118.357,37.5,119.8,35,118.357l2.5-1.443Z"/>
    <path class="cls-6" d="M45,115.47l-2.5,1.444L40,115.47l2.5-1.443Z"/>
    <path class="cls-6" d="M50,112.584l-2.5,1.443L45,112.584l2.5-1.444Z"/>
    <path class="cls-6" d="M60,106.81l-2.5,1.443L55,106.81l2.5-1.443Z"/>
    <path class="cls-6" d="M65,106.81l-2.5,1.443L60,106.81l2.5-1.443Z"/>
    <path class="cls-6" d="M65,103.923l-2.5,1.444L60,103.923l2.5-1.443Z"/>
    <path class="cls-6" d="M70,103.923l-2.5,1.444L65,103.923l2.5-1.443Z"/>
    <path class="cls-6" d="M70,101.036l-2.5,1.444L65,101.036l2.5-1.443Z"/>
    <path class="cls-6" d="M75,101.036l-2.5,1.444L70,101.036l2.5-1.443Z"/>
    <path class="cls-6" d="M75,98.15l-2.5,1.443L70,98.15l2.5-1.444Z"/>
    <path class="cls-6" d="M80,98.15l-2.5,1.443L75,98.15l2.5-1.444Z"/>
    <path class="cls-6" d="M80,95.263l-2.5,1.443L75,95.263l2.5-1.443Z"/>
    <path class="cls-6" d="M85,92.376,82.5,93.82,80,92.376l2.5-1.443Z"/>
    <path class="cls-6" d="M90,89.489l-2.5,1.444L85,89.489l2.5-1.443Z"/>
    <path class="cls-6" d="M90,86.603l-2.5,1.443L85,86.603l2.5-1.444Z"/>
    <path class="cls-6" d="M85,83.716l-2.5,1.443L80,83.716l2.5-1.443Z"/>
    <path class="cls-6" d="M95,89.49l-2.5,1.443L90,89.49l2.5-1.444Z"/>
    <path class="cls-6" d="M90,92.376,87.5,93.82,85,92.376l2.5-1.443Z"/>
    <path class="cls-6" d="M95,86.603l-2.5,1.443L90,86.603l2.5-1.444Z"/>
    <path class="cls-6" d="M60,109.697l-2.5,1.443L55,109.697l2.5-1.444Z"/>
    <path class="cls-6" d="M55,106.81l-2.5,1.443L50,106.81l2.5-1.443Z"/>
    <path class="cls-6" d="M50,103.923l-2.5,1.444L45,103.923l2.5-1.443Z"/>
    <path class="cls-6" d="M35,115.47l-2.5,1.444L30,115.47l2.5-1.443Z"/>
    <path class="cls-6" d="M40,112.583l-2.5,1.444L35,112.583l2.5-1.443Z"/>
    <path class="cls-6" d="M45,109.697l-2.5,1.443L40,109.697l2.5-1.444Z"/>
    <path class="cls-6" d="M55,103.923l-2.5,1.444L50,103.923l2.5-1.443Z"/>
    <path class="cls-6" d="M60,103.923l-2.5,1.444L55,103.923l2.5-1.443Z"/>
    <path class="cls-6" d="M60,101.036l-2.5,1.444L55,101.036l2.5-1.443Z"/>
    <path class="cls-6" d="M65,101.036l-2.5,1.444L60,101.036l2.5-1.443Z"/>
    <path class="cls-6" d="M65,98.15l-2.5,1.443L60,98.15l2.5-1.444Z"/>
    <path class="cls-6" d="M70,98.15l-2.5,1.443L65,98.15l2.5-1.444Z"/>
    <path class="cls-6" d="M70,95.263l-2.5,1.443L65,95.263l2.5-1.443Z"/>
    <path class="cls-6" d="M75,95.263l-2.5,1.443L70,95.263l2.5-1.443Z"/>
    <path class="cls-6" d="M75,92.376,72.5,93.82,70,92.376l2.5-1.443Z"/>
    <path class="cls-6" d="M80,89.49l-2.5,1.443L75,89.49l2.5-1.444Z"/>
    <path class="cls-6" d="M85,86.603l-2.5,1.443L80,86.603l2.5-1.444Z"/>
    <path class="cls-6" d="M90,83.716l-2.5,1.443L85,83.716l2.5-1.443Z"/>
    <path class="cls-6" d="M30,112.584l-2.5,1.443L25,112.584l2.5-1.444Z"/>
    <path class="cls-6" d="M35,109.697l-2.5,1.443L30,109.697l2.5-1.444Z"/>
    <path class="cls-6" d="M40,106.81l-2.5,1.443L35,106.81l2.5-1.443Z"/>
    <path class="cls-6" d="M50,101.037l-2.5,1.443L45,101.037l2.5-1.444Z"/>
    <path class="cls-6" d="M55,101.037l-2.5,1.443L50,101.037l2.5-1.444Z"/>
    <path class="cls-6" d="M55,98.15l-2.5,1.443L50,98.15l2.5-1.444Z"/>
    <path class="cls-6" d="M60,98.15l-2.5,1.443L55,98.15l2.5-1.444Z"/>
    <path class="cls-6" d="M60,95.263l-2.5,1.443L55,95.263l2.5-1.443Z"/>
    <path class="cls-6" d="M65,95.263l-2.5,1.443L60,95.263l2.5-1.443Z"/>
    <path class="cls-6" d="M65,92.376,62.5,93.82,60,92.376l2.5-1.443Z"/>
    <path class="cls-6" d="M70,92.376,67.5,93.82,65,92.376l2.5-1.443Z"/>
    <path class="cls-6" d="M70,89.49l-2.5,1.443L65,89.49l2.5-1.444Z"/>
    <path class="cls-6" d="M75,86.603l-2.5,1.443L70,86.603l2.5-1.444Z"/>
    <path class="cls-6" d="M80,83.716l-2.5,1.443L75,83.716l2.5-1.443Z"/>
    <path class="cls-6" d="M86.25,95.985l-2.5,1.443-2.5-1.443,2.5-1.444Z"/>
    <path class="cls-6" d="M85,80.829l-2.5,1.444L80,80.829l2.5-1.443Z"/>
    <path class="cls-6" d="M115,167.432l-2.5,1.443-2.5-1.443,2.5-1.444Z"/>
    <path class="cls-6" d="M110,164.545l-2.5,1.443-2.5-1.443,2.5-1.443Z"/>
    <path class="cls-6" d="M105,161.658l-2.5,1.444-2.5-1.444,2.5-1.443Z"/>
    <path class="cls-6" d="M100,158.772l-2.5,1.443L95,158.772l2.5-1.444Z"/>
    <path class="cls-6" d="M95,155.885l-2.5,1.443L90,155.885l2.5-1.444Z"/>
    <path class="cls-6" d="M90,152.998l-2.5,1.443L85,152.998l2.5-1.443Z"/>
    <path class="cls-6" d="M85,150.111l-2.5,1.444L80,150.111l2.5-1.443Z"/>
    <path class="cls-6" d="M80,147.225l-2.5,1.443L75,147.225l2.5-1.444Z"/>
    <path class="cls-6" d="M75,144.338l-2.5,1.443L70,144.338l2.5-1.444Z"/>
    <path class="cls-6" d="M70,141.451l-2.5,1.443L65,141.451l2.5-1.443Z"/>
    <path class="cls-6" d="M65,138.564l-2.5,1.444L60,138.564l2.5-1.443Z"/>
    <path class="cls-6" d="M60,135.678l-2.5,1.443L55,135.678l2.5-1.444Z"/>
    <path class="cls-6" d="M55,132.791l-2.5,1.443L50,132.791l2.5-1.444Z"/>
    <path class="cls-6" d="M50,129.904l-2.5,1.443L45,129.904l2.5-1.443Z"/>
    <path class="cls-6" d="M45,127.017l-2.5,1.444L40,127.017l2.5-1.443Z"/>
    <path class="cls-6" d="M40,124.131l-2.5,1.443L35,124.131l2.5-1.444Z"/>
    <path class="cls-6" d="M35,121.244l-2.5,1.443L30,121.244l2.5-1.444Z"/>
    <path class="cls-6" d="M30,118.357,27.5,119.8,25,118.357l2.5-1.443Z"/>
    <path class="cls-6" d="M25,115.47l-2.5,1.444L20,115.47l2.5-1.443Z"/>
    <path class="cls-6" d="M175,49.075l-2.5,1.443L170,49.075l2.5-1.443Z"/>
    <path class="cls-6" d="M180,49.075l-2.5,1.443L175,49.075l2.5-1.443Z"/>
    <path class="cls-6" d="M185,51.962l-2.5,1.443L180,51.962l2.5-1.444Z"/>
    <path class="cls-6" d="M190,54.849l-2.5,1.443L185,54.849l2.5-1.444Z"/>
    <path class="cls-6" d="M194.926,57.735l-2.5,1.444-2.5-1.444,2.5-1.443Z"/>
    <path class="cls-6" d="M199.926,60.622l-2.5,1.443-2.5-1.443,2.5-1.443Z"/>
    <path class="cls-6" d="M205,63.509l-2.5,1.443L200,63.509l2.5-1.444Z"/>
    <path class="cls-6" d="M210,66.396l-2.5,1.443L205,66.396l2.5-1.444Z"/>
    <path class="cls-6" d="M215,69.282l-2.5,1.444L210,69.282l2.5-1.443Z"/>
    <path class="cls-6" d="M220,72.169l-2.5,1.443L215,72.169l2.5-1.443Z"/>
    <path class="cls-6" d="M225,75.056l-2.5,1.443L220,75.056l2.5-1.444Z"/>
    <path class="cls-6" d="M229.9629,77.943l-2.5,1.443-2.5-1.443,2.5-1.444Z"/>
    <path class="cls-6" d="M235,80.829l-2.5,1.444L230,80.829l2.5-1.443Z"/>
    <path class="cls-6" d="M239.926,83.716l-2.5,1.443-2.5-1.443,2.5-1.443Z"/>
    <path class="cls-6" d="M244.926,86.603l-2.5,1.443-2.5-1.443,2.5-1.444Z"/>
    <path class="cls-6" d="M250,89.49l-2.5,1.443L245,89.49l2.5-1.444Z"/>
    <path class="cls-6" d="M255,92.376l-2.5,1.444L250,92.376l2.5-1.443Z"/>
    <path class="cls-6" d="M259.926,95.263l-2.5,1.443-2.5-1.443,2.5-1.443Z"/>
    <path class="cls-6" d="M180,54.849l-2.5,1.443L175,54.849l2.5-1.444Z"/>
    <path class="cls-6" d="M185,57.735l-2.5,1.444L180,57.735l2.5-1.443Z"/>
    <path class="cls-6" d="M190,60.622l-2.5,1.443L185,60.622l2.5-1.443Z"/>
    <path class="cls-6" d="M195,63.509l-2.5,1.443L190,63.509l2.5-1.444Z"/>
    <path class="cls-6" d="M200,66.396l-2.5,1.443L195,66.396l2.5-1.444Z"/>
    <path class="cls-6" d="M205,69.282l-2.5,1.444L200,69.282l2.5-1.443Z"/>
    <path class="cls-6" d="M210,72.169l-2.5,1.443L205,72.169l2.5-1.443Z"/>
    <path class="cls-6" d="M215,75.056l-2.5,1.443L210,75.056l2.5-1.444Z"/>
    <path class="cls-6" d="M220,77.943l-2.5,1.443L215,77.943l2.5-1.444Z"/>
    <path class="cls-6" d="M225,80.829l-2.5,1.444L220,80.829l2.5-1.443Z"/>
    <path class="cls-6" d="M230.0371,83.716l-2.5,1.443-2.5-1.443,2.5-1.443Z"/>
    <path class="cls-6" d="M235.074,86.603l-2.5,1.443-2.5-1.443,2.5-1.444Z"/>
    <path class="cls-6" d="M240,89.49l-2.5,1.443L235,89.49l2.5-1.444Z"/>
    <path class="cls-6" d="M245,92.376l-2.5,1.444L240,92.376l2.5-1.443Z"/>
    <path class="cls-6" d="M250.074,95.263l-2.5,1.443-2.5-1.443,2.5-1.443Z"/>
    <path class="cls-6" d="M255.074,98.15l-2.5,1.443-2.5-1.443,2.5-1.444Z"/>
    <path class="cls-6" d="M175,54.849l-2.5,1.443L170,54.849l2.5-1.444Z"/>
    <path class="cls-6" d="M155,49.075l-2.5,1.443L150,49.075l2.5-1.443Z"/>
    <path class="cls-6" d="M155,51.962l-2.5,1.443L150,51.962l2.5-1.444Z"/>
    <path class="cls-6" d="M160,51.962l-2.5,1.443L155,51.962l2.5-1.444Z"/>
    <path class="cls-6" d="M140,63.509l-2.5,1.443L135,63.509l2.5-1.444Z"/>
    <path class="cls-6" d="M155,54.849l-2.5,1.443L150,54.849l2.5-1.444Z"/>
    <path class="cls-6" d="M135,66.396l-2.5,1.443L130,66.396l2.5-1.444Z"/>
    <path class="cls-6" d="M150,54.849l-2.5,1.443L145,54.849l2.5-1.444Z"/>
    <path class="cls-6" d="M125,72.169l-2.5,1.443L120,72.169l2.5-1.443Z"/>
    <path class="cls-6" d="M125,69.282l-2.5,1.444L120,69.282l2.5-1.443Z"/>
    <path class="cls-6" d="M145,57.735l-2.5,1.444L140,57.735l2.5-1.443Z"/>
    <path class="cls-6" d="M145,60.622l-2.5,1.443L140,60.622l2.5-1.443Z"/>
    <path class="cls-6" d="M150,57.735l-2.5,1.444L145,57.735l2.5-1.443Z"/>
    <path class="cls-6" d="M130,69.282l-2.5,1.444L125,69.282l2.5-1.443Z"/>
    <path class="cls-6" d="M145,51.962l-2.5,1.443L140,51.962l2.5-1.444Z"/>
    <path class="cls-6" d="M140,49.075l-2.5,1.443L135,49.075l2.5-1.443Z"/>
    <path class="cls-6" d="M135,51.962l-2.5,1.443L130,51.962l2.5-1.444Z"/>
    <path class="cls-6" d="M130,54.849l-2.5,1.443L125,54.849l2.5-1.444Z"/>
    <path class="cls-6" d="M125,57.735l-2.5,1.444L120,57.735l2.5-1.443Z"/>
    <path class="cls-6" d="M120,60.622l-2.5,1.443L115,60.622l2.5-1.443Z"/>
    <path class="cls-6" d="M150,51.962l-2.5,1.443L145,51.962l2.5-1.444Z"/>
    <path class="cls-6" d="M145,54.849l-2.5,1.443L140,54.849l2.5-1.444Z"/>
    <path class="cls-2" d="M10,115.47,160,28.868v5.773L15,118.357Z"/>
    <g>
      <path class="cls-7" d="M138.75,54.127,120,64.952l2.5,1.444L141.25,55.57Z"/>
      <path class="cls-7" d="M141.25,57.014,122.5,67.839l2.5,1.443,18.75-10.825Z"/>
      <path class="cls-7" d="M136.25,51.24,117.5,62.065l2.5,1.444,18.75-10.826Z"/>
      <path class="cls-8" d="M125,70.726,143.75,59.9V58.457L125,69.282Z"/>
      <path class="cls-8" d="M120,64.952l18.75-10.825V52.683L120,63.509Z"/>
      <path class="cls-8" d="M122.5,67.839l18.75-10.825V55.57L122.5,66.396Z"/>
      <path class="cls-9" d="M117.5,62.065v4.331l7.5,4.33V69.282l-2.5-1.443V66.396L120,64.952V63.509Z"/>
    </g>
    <g>
      <path class="cls-6" d="M212.426,76.499l-2.5,1.443-2.5-1.443,2.5-1.443Z"/>
      <path class="cls-6" d="M212.426,79.386l-2.5,1.443-2.5-1.443,2.5-1.444Z"/>
      <path class="cls-6" d="M217.426,82.273l-2.5,1.443-2.5-1.443,2.5-1.444Z"/>
      <path class="cls-6" d="M217.426,79.386l-2.5,1.443-2.5-1.443,2.5-1.444Z"/>
      <path class="cls-6" d="M222.426,82.273l-2.5,1.443-2.5-1.443,2.5-1.444Z"/>
      <path class="cls-6" d="M222.426,85.159l-2.5,1.444-2.5-1.444,2.5-1.443Z"/>
      <path class="cls-6" d="M227.426,88.046l-2.5,1.444-2.5-1.444,2.5-1.443Z"/>
      <path class="cls-6" d="M227.426,85.159l-2.5,1.444-2.5-1.444,2.5-1.443Z"/>
      <path class="cls-6" d="M102.426,154.441l-2.5,1.444-2.5-1.444,2.5-1.443Z"/>
      <path class="cls-6" d="M97.426,151.555l-2.5,1.443-2.5-1.443,2.5-1.444Z"/>
      <path class="cls-10" d="M182.4629,59.179l75,43.301-125,72.169-75-43.302Z"/>
      <path class="cls-11" d="M252.3889,105.367l-75-43.302,5-2.886,75,43.301Z"/>
      <path class="cls-11" d="M232.3889,116.914l-75-43.302,5-2.886,75,43.301Z"/>
      <path class="cls-11" d="M212.3889,128.461l-75-43.302,5-2.886,75,43.301Z"/>
      <path class="cls-11" d="M192.3889,140.008l-75-43.302,5-2.886,75,43.301Z"/>
      <path class="cls-11" d="M242.3889,111.14l-75-43.301,5-2.887,75,43.301Z"/>
      <path class="cls-11" d="M222.3889,122.687l-75-43.301,5-2.887,75,43.301Z"/>
      <path class="cls-11" d="M202.3889,134.234l-75-43.301,5-2.887,75,43.301Z"/>
      <path class="cls-11" d="M182.3889,145.781l-75-43.301,5-2.887,75,43.301Z"/>
      <path class="cls-11" d="M162.3889,157.328l-75-43.301,5-2.887,75,43.301Z"/>
      <path class="cls-11" d="M172.3889,151.555l-75-43.302,5-2.886,75,43.301Z"/>
      <path class="cls-11" d="M152.3889,163.102l-75-43.302,5-2.886,75,43.301Z"/>
      <path class="cls-11" d="M132.4629,174.649l-75-43.302,5-2.886,75,43.301Z"/>
      <path class="cls-11" d="M142.3889,168.875l-75-43.301,5-2.887,75,43.301Z"/>
      <path class="cls-12" d="M134.8889,167.932a.5016.5016,0,0,1-.25-.0669l-62.5-36.085a.5.5,0,0,1,0-.8662l110-63.5078a.502.502,0,0,1,.5,0l62.5,36.084a.5.5,0,0,1,0,.8662l-110,63.5088A.5014.5014,0,0,1,134.8889,167.932Zm-61.5-36.585,61.5,35.5078,109-62.9316-61.5-35.5068Z"/>
      <path class="cls-12" d="M215.4133,101.1747c-6.94,0-14.0512-1.5972-19.5244-4.7564-5.3335-3.08-8.3926-7.2939-8.3926-11.561,0-3.94,2.5367-7.5752,7.1426-10.2344a.502.502,0,0,1,.5,0l37.5,21.65a.5.5,0,0,1,0,.8662C227.9646,99.8382,221.76,101.1747,215.4133,101.1747Zm-20.5224-25.54c-4.1265,2.457-6.3946,5.7241-6.3946,9.2227,0,3.9,2.8765,7.7983,7.8926,10.6948,9.9331,5.7339,25.397,6.1909,34.9829,1.144Z"/>
      <path class="cls-12" d="M122.3889,160.7152a.5016.5016,0,0,1-.25-.0669l-37.5-21.6514a.5.5,0,0,1,0-.8662c9.79-5.6509,26.2759-5.3262,36.75.7222,5.3345,3.08,8.3936,7.2934,8.3936,11.561,0,3.94-2.5371,7.5752-7.1436,10.2344A.5014.5014,0,0,1,122.3889,160.7152ZM85.906,138.5736l36.481,21.063c4.1269-2.4571,6.3955-5.7242,6.3955-9.2227,0-3.9-2.877-7.7988-7.8936-10.6948C110.9587,133.9847,95.4949,133.5262,85.906,138.5736Z"/>
      <path class="cls-12" d="M189.8889,136.1776a.4974.4974,0,0,1-.25-.0669l-62.5-36.0845a.5.5,0,1,1,.5-.8662l62.5,36.0845a.5.5,0,0,1-.25.9331Z"/>
      <path class="cls-12" d="M157.3889,125.5677a20.9583,20.9583,0,0,1-10.25-2.4477c-2.83-1.6338-4.3887-3.8379-4.3891-6.2061s1.5585-4.5723,4.3891-6.207h0c5.6528-3.2632,14.8491-3.2617,20.5,0,2.8306,1.6347,4.39,3.8388,4.3892,6.207s-1.5591,4.5723-4.3892,6.2061A20.9583,20.9583,0,0,1,157.3889,125.5677Zm-9.75-13.9946c-2.5078,1.4482-3.8891,3.3452-3.8891,5.3408s1.3813,3.8921,3.8891,5.34c5.376,3.1044,14.124,3.1044,19.5,0,2.5078-1.4478,3.8892-3.3443,3.8892-5.34s-1.3809-3.8926-3.8892-5.3408c-5.375-3.1035-14.123-3.1045-19.5,0Z"/>
      <g>
        <g class="cls-13">
          <path class="cls-2" d="M215.5139,78.32V65.33l10,5.774v12.99Z"/>
        </g>
        <g>
          <path class="cls-3" d="M221.7639,74.712l-1.25.722v12.99l1.25-.722Z"/>
          <path class="cls-14" d="M219.2639,74.712l1.25.722v12.99l-1.25-.722Z"/>
        </g>
        <g>
          <path class="cls-3" d="M226.7639,71.825l-1.25.722v12.99l1.25-.721Z"/>
          <path class="cls-14" d="M224.2639,71.825l1.25.722v12.99l-1.25-.721Z"/>
        </g>
        <g>
          <path class="cls-3" d="M215.5139,65.33l-1.25.722v12.99l1.25-.722Z"/>
          <path class="cls-14" d="M213.0139,65.33l1.25.722v12.99l-1.25-.722Z"/>
        </g>
        <g>
          <path class="cls-3" d="M210.5139,68.217l-1.25.721V81.929l1.25-.722Z"/>
          <path class="cls-14" d="M208.0139,68.217l1.25.721V81.929l-1.25-.722Z"/>
        </g>
        <g class="cls-13">
          <path class="cls-2" d="M210.5139,69.66l3.75-2.165V79.042l-3.75,2.165Z"/>
        </g>
        <path class="cls-3" d="M210.5139,68.217l5-2.887v1.443l-5,2.887Z"/>
        <path class="cls-15" d="M215.5139,65.33l-1.25-.722-6.25,3.609,1.25.721Z"/>
        <path class="cls-14" d="M208.0139,68.217l12.5,7.217v1.443l-12.5-7.217Z"/>
        <path class="cls-15" d="M209.2639,67.495l12.5,7.217-1.25.722-12.5-7.217Z"/>
        <g class="cls-13">
          <path class="cls-2" d="M210.5139,68.217l5-2.887,10,5.774-5,2.886Z"/>
        </g>
        <g class="cls-13">
          <path class="cls-2" d="M221.7639,76.155l3.75-2.165V85.537l-3.75,2.165Z"/>
        </g>
        <path class="cls-3" d="M220.5139,75.434l6.25-3.609v1.444l-6.25,3.608Z"/>
        <path class="cls-15" d="M226.7639,71.825l-1.25-.721-6.25,3.608,1.25.722Z"/>
      </g>
      <g>
        <g class="cls-13">
          <path class="cls-2" d="M89.3379,149.75V136.76l10,5.774v12.99Z"/>
        </g>
        <g>
          <path class="cls-3" d="M101.8379,142.534l-1.25.721v12.991l1.25-.722Z"/>
          <path class="cls-14" d="M99.3379,142.534l1.25.721v12.991l-1.25-.722Z"/>
        </g>
        <g>
          <path class="cls-3" d="M106.8379,139.647l-1.25.721v12.991l1.25-.722Z"/>
          <path class="cls-14" d="M104.3379,139.647l1.25.721v12.991l-1.25-.722Z"/>
        </g>
        <g>
          <path class="cls-3" d="M95.5879,133.152l-1.25.721v12.991l1.25-.722Z"/>
          <path class="cls-14" d="M93.0879,133.152l1.25.721v12.991l-1.25-.722Z"/>
        </g>
        <g>
          <path class="cls-3" d="M90.5879,136.038l-1.25.722v12.99l1.25-.721Z"/>
          <path class="cls-14" d="M88.0879,136.038l1.25.722v12.99l-1.25-.721Z"/>
        </g>
        <g class="cls-13">
          <path class="cls-2" d="M90.5879,137.482l3.75-2.165v11.547l-3.75,2.165Z"/>
        </g>
        <path class="cls-3" d="M90.5879,136.038l5-2.886v1.443l-5,2.887Z"/>
        <path class="cls-15" d="M95.5879,133.152l-1.25-.722-6.25,3.608,1.25.722Z"/>
        <path class="cls-14" d="M94.3379,133.873l11.25,6.495v1.444l-11.25-6.495Z"/>
        <path class="cls-15" d="M94.3379,132.43l12.5,7.217-1.25.721-12.5-7.216Z"/>
        <g class="cls-13">
          <path class="cls-2" d="M89.3379,136.76l5-2.887,10,5.774-5,2.887Z"/>
        </g>
        <g class="cls-13">
          <path class="cls-2" d="M101.8379,143.977l3.75-2.165v11.547l-3.75,2.165Z"/>
        </g>
        <path class="cls-3" d="M100.5879,143.255l6.25-3.608v1.443l-6.25,3.609Z"/>
        <path class="cls-15" d="M106.8379,139.647l-1.25-.722-6.25,3.609,1.25.721Z"/>
      </g>
    </g>
    <path class="cls-16" d="M94.9629,89.49l25-14.434V54.849l-1.25-.722-25,14.434,1.25.721Z"/>
    <path class="cls-17" d="M97.4629,88.046V70.726l6.25-3.609V84.438Z"/>
    <path class="cls-14" d="M98.7129,88.768l6.25-3.609-7.5-4.33v7.217Z"/>
    <path class="cls-18" d="M103.7129,67.117l.0742,17.321-1.25-.722-.0742-15.877Z"/>
    <path class="cls-2" d="M98.7129,81.551l1.25-.722,2.5,1.444v1.443Z"/>
    <path class="cls-2" d="M160,27.424l146.2129,84.438v1.443L160,28.868Z"/>
    <path class="cls-14" d="M92.426,79.386l-3.75,2.165,3.75,2.165Z"/>
    <path class="cls-2" d="M159.926,21.651l146.2869,84.437v1.444L159.926,23.094Z"/>
    <path class="cls-3" d="M161.25,26.703l-1.25.721,146.2129,84.438v-1.444Z"/>
    <path class="cls-3" d="M161.176,20.929l-1.25.722,146.2129,84.437v-1.443Z"/>
    <g>
      <path class="cls-7" d="M83.75,85.881,65,96.706l2.5,1.444L86.25,87.324Z"/>
      <path class="cls-7" d="M86.25,88.768,67.5,99.593l2.5,1.443L88.75,90.211Z"/>
      <path class="cls-7" d="M81.25,82.994,62.5,93.82,65,95.263,83.75,84.438Z"/>
      <path class="cls-8" d="M70,102.48,88.75,91.655V90.211L70,101.036Z"/>
      <path class="cls-8" d="M65,96.706,83.75,85.881V84.438L65,95.263Z"/>
      <path class="cls-8" d="M67.5,99.593,86.25,88.768V87.324L67.5,98.15Z"/>
      <path class="cls-9" d="M62.5,93.82v4.33l7.5,4.33v-1.444l-2.5-1.443V98.15L65,96.706V95.263Z"/>
    </g>
    <g>
      <path class="cls-2" d="M12.5,116.914l2.4629,1.443V86.603L12.5,88.046,10,86.603V115.47Z"/>
      <path class="cls-1" d="M12.5,116.914V88.046L15,86.603v31.754Z"/>
    </g>
    <g>
      <path class="cls-2" d="M308.676,116.192V88.768l-3.7131-2.165v31.754Z"/>
      <path class="cls-1" d="M307.4629,116.914V88.046l2.5-1.443V115.47Z"/>
    </g>
    <path class="cls-2" d="M157.4629,4.33l150,86.603V88.046l-147.5-85.159Z"/>
    <path class="cls-3" d="M160,10.104l-1.25-.722L15,92.376V93.82Z"/>
    <path class="cls-3" d="M160,15.877l-1.25-.721L15,98.15v1.443Z"/>
    <path class="cls-3" d="M160,21.651l-1.25-.722L15,103.923v1.444Z"/>
    <path class="cls-2" d="M160,10.104,306.2129,94.541v1.444L160,11.547Z"/>
    <g>
      <path class="cls-17" d="M159.9629,199.186l1.25-.722V168.153l-1.25-.722-2.5,1.444v28.867Z"/>
      <path class="cls-19" d="M166.2129,166.71v1.443l1.25.722,2.5-1.444v-2.886Z"/>
      <path class="cls-16" d="M159.9629,199.186V170.318l2.5-1.443v28.867Z"/>
      <path class="cls-20" d="M164.9629,165.988v1.443l2.5,1.444v-1.444Z"/>
      <path class="cls-16" d="M168.7129,163.823l-10,5.774,1.25.721v1.444l10-5.774v-1.443Z"/>
      <path class="cls-21" d="M157.4629,168.875l10-5.774,2.5,1.444-10,5.773Z"/>
    </g>
    <path class="cls-2" d="M160,15.877l146.2129,84.438v1.443L160,17.321Z"/>
    <path class="cls-3" d="M161.25,9.382l-1.25.722L306.2129,94.541V93.098Z"/>
    <path class="cls-3" d="M161.25,15.156l-1.25.721,146.2129,84.438V98.872Z"/>
    <g>
      <path class="cls-16" d="M292.426,122.687l-1.2131-.722V93.098l1.25.722,2.5-1.444-.0369,28.868Z"/>
      <path class="cls-17" d="M292.426,122.687l.0369-28.867-2.5-1.444-.0369,28.868Z"/>
      <path class="cls-21" d="M282.4629,98.15V96.706l10-5.773,2.5,1.443V93.82l-10,5.773Z"/>
      <path class="cls-19" d="M284.8889,99.593v1.443l2.5-1.443V98.15Z"/>
      <path class="cls-17" d="M282.4629,96.706v2.887l2.5,1.444V98.15Z"/>
      <path class="cls-20" d="M282.4629,98.15v1.443l2.426,1.443.074-1.443Z"/>
    </g>
    <path class="cls-3" d="M160,27.424l-1.25-.721L14.926,109.697l1.25.721Z"/>
    <path class="cls-3" d="M157.4629,171.762l150-86.603,2.5,1.444-150,86.602Z"/>
    <g>
      <path class="cls-1" d="M234.9819,51.962l-1.25.721v-4.33l1.25.722Z"/>
      <path class="cls-1" d="M233.7319,54.127l1.25.722v2.886l-1.25.722Z"/>
      <path class="cls-1" d="M233.7319,59.9l1.25.722v2.887l-1.25.721Z"/>
      <path class="cls-1" d="M234.9819,66.396l-1.25-.722v4.33l1.25-.722Z"/>
      <path class="cls-2" d="M232.4819,44.745l1.25.722v25.98l-1.25-.721Z"/>
    </g>
    <g>
      <path class="cls-1" d="M271.2129,72.891l-1.25.721v-4.33l1.25.722Z"/>
      <path class="cls-1" d="M269.9629,75.056l1.25.722v2.886l-1.25.722Z"/>
      <path class="cls-1" d="M269.9629,80.829l1.25.722v2.887l-1.25.721Z"/>
      <path class="cls-1" d="M271.2129,87.325l-1.25-.722v4.33l1.25-.722Z"/>
      <path class="cls-2" d="M268.7129,65.674l1.25.722v25.98l-1.25-.721Z"/>
    </g>
    <path class="cls-1" d="M160,11.547,13.7129,95.985V94.541L160,10.104Z"/>
    <path class="cls-3" d="M10,86.603,160,0l2.5,1.444L12.5,88.046Z"/>
    <path class="cls-1" d="M160,17.321,13.7129,101.758v-1.443L160,15.877Z"/>
    <g>
      <path class="cls-1" d="M198.7129,31.033l-1.25.722V27.424l1.25.722Z"/>
      <path class="cls-1" d="M197.4629,33.198l1.25.722v2.886l-1.25.722Z"/>
      <path class="cls-1" d="M197.4629,38.971l1.25.722V42.58l-1.25.722Z"/>
      <path class="cls-1" d="M198.7129,45.467l-1.25-.722v4.33l1.25-.722Z"/>
      <path class="cls-2" d="M196.2129,23.816l1.25.722v25.98l-1.25-.721Z"/>
    </g>
    <path class="cls-1" d="M159.9629,176.092v-2.887l150-86.602v2.886Z"/>
    <path class="cls-1" d="M160,23.094,13.7129,107.532v-1.444L160,21.651Z"/>
    <path class="cls-1" d="M12.5,90.933V88.046L159.9629,2.887V5.774Z"/>
    <path class="cls-1" d="M160,28.868,13.7129,113.305v-1.443L160,27.424Z"/>
    <g>
      <path class="cls-17" d="M28.7129,120.522l1.25-.722V89.49l-1.25-.722-2.5,1.443v28.868Z"/>
      <path class="cls-19" d="M34.9629,88.046V89.49l1.25.721,2.5-1.443V85.881Z"/>
      <path class="cls-16" d="M28.7129,120.522V91.655l2.5-1.444v28.868Z"/>
      <path class="cls-20" d="M33.7129,87.324v1.444l2.5,1.443V88.768Z"/>
      <path class="cls-16" d="M37.4629,85.159l-10,5.774,1.25.722v1.443l10-5.774V85.881Z"/>
      <path class="cls-21" d="M26.2129,90.211l10-5.773,2.5,1.443-10,5.774Z"/>
    </g>
    <path class="cls-2" d="M10,86.603l149.9629,86.602v2.887L10,89.49Z"/>
    <path class="cls-3" d="M162.4629,171.762,12.5,85.159,10,86.603l149.9629,86.602Z"/>
    <path class="cls-3" d="M160,0,309.9629,86.603l-2.5,1.443L157.5,1.444Z"/>
    <path class="cls-3" d="M306.2129,95.985l-1.25-.722-143.75,82.994,1.25.722Z"/>
    <path class="cls-3" d="M306.2129,101.758l-1.25-.722-143.75,82.995,1.25.721Z"/>
    <path class="cls-3" d="M306.2129,107.532l-1.25-.722-143.75,82.994,1.25.722Z"/>
    <path class="cls-3" d="M306.2129,113.305l-1.25-.722-143.75,82.995,1.25.721Z"/>
    <path class="cls-1" d="M306.2129,97.428,161.176,181.144V179.7L306.2129,95.985Z"/>
    <path class="cls-1" d="M306.2129,103.202,161.176,186.917v-1.443l145.0369-83.716Z"/>
    <path class="cls-1" d="M306.2129,108.975,161.176,192.691v-1.444l145.0369-83.715Z"/>
    <path class="cls-1" d="M306.2129,114.749,161.176,198.464v-1.443l145.0369-83.716Z"/>
    <g>
      <path class="cls-2" d="M159.9629,202.073l1.2131-.722V173.927l-3.7131-2.165v28.867Z"/>
      <path class="cls-1" d="M159.9629,202.073V173.205l2.5-1.443v28.867Z"/>
    </g>
    <path class="cls-2" d="M13.75,113.305l144.9629,83.716v1.443L13.75,114.749Z"/>
    <path class="cls-2" d="M13.75,107.532l144.9629,83.716v1.443L13.75,108.975Z"/>
    <path class="cls-3" d="M15,112.584l-1.25.721,143.7129,82.994v-1.443Z"/>
    <path class="cls-3" d="M15,106.81l-1.25.722,143.7129,82.994v-1.444Z"/>
    <path class="cls-2" d="M13.75,95.985l144.9629,83.716v1.443L13.75,97.428Z"/>
    <path class="cls-2" d="M13.75,101.758l144.9629,83.716v1.443L13.75,103.202Z"/>
    <path class="cls-3" d="M15,95.263l-1.25.722,143.7129,82.994v-1.444Z"/>
    <path class="cls-3" d="M15,101.037l-1.25.721,143.7129,82.994v-1.443Z"/>
    <g>
      <path class="cls-2" d="M196.2129,158.05l1.25.721,1.2131-.721v-4.33l-2.4631,1.443Z"/>
      <path class="cls-2" d="M198.676,163.823v-4.33l-2.4631,1.444v2.886l1.25.722Z"/>
      <path class="cls-2" d="M198.676,169.597v-4.33l-2.4631,1.443v2.887l1.25.722Z"/>
      <path class="cls-2" d="M196.2129,172.484l2.4631-1.444v4.33l-1.2131.722-1.25-.722Z"/>
      <path class="cls-2" d="M198.676,176.814v4.33l-1.2131.722-1.25-.722v-2.887Z"/>
      <path class="cls-1" d="M198.7129,150.833l-1.25.722v30.311l1.25-.722Z"/>
    </g>
    <g>
      <path class="cls-1" d="M87.5,137.121l-1.25.722-1.2871-.722v-4.33l1.2871.721,1.25.722Z"/>
      <path class="cls-1" d="M84.9629,142.894v-4.33L87.5,140.008v2.886l-1.25.722Z"/>
      <path class="cls-1" d="M84.9629,148.668v-4.33L87.5,145.781v2.887l-1.25.722Z"/>
      <path class="cls-1" d="M87.5,151.555l-2.5371-1.444v4.33l1.2871.722,1.25-.722Z"/>
      <path class="cls-1" d="M84.9629,155.885v2.887L87.5,160.215v-2.887Z"/>
      <path class="cls-2" d="M85,129.904l1.25.722v28.867L85,158.772Z"/>
    </g>
    <g>
      <path class="cls-2" d="M46.25,74.334l1.25.722,1.2129-.722v-4.33L46.25,71.447Z"/>
      <path class="cls-2" d="M48.7129,80.108V75.777L46.25,77.221v2.887l1.25.721Z"/>
      <path class="cls-2" d="M48.7129,85.881v-4.33L46.25,82.994v2.887l1.25.722Z"/>
      <path class="cls-2" d="M46.25,88.768l2.4629-1.444v4.331L47.5,92.376l-1.25-.721Z"/>
      <path class="cls-2" d="M47.5,93.82v4.33l-1.25-.722V94.541Z"/>
      <path class="cls-1" d="M48.75,67.117l-1.25.722V93.82l1.25-.722Z"/>
    </g>
    <g>
      <path class="cls-2" d="M232.4629,137.121l1.25.722,1.2131-.722v-4.33l-2.4631,1.443Z"/>
      <path class="cls-2" d="M234.926,142.894v-4.33l-2.4631,1.444v2.886l1.25.722Z"/>
      <path class="cls-2" d="M234.926,148.668v-4.33l-2.4631,1.443v2.887l1.25.722Z"/>
      <path class="cls-2" d="M232.4629,151.555l2.4631-1.444v4.33l-1.2131.722-1.25-.722Z"/>
      <path class="cls-2" d="M234.926,155.885v4.33l-1.2131.722-1.25-.722v-2.887Z"/>
      <path class="cls-1" d="M234.9629,129.904l-1.25.722v30.311l1.2131-.722Z"/>
    </g>
    <g>
      <path class="cls-1" d="M51.2681,116.192l-1.25.722-1.2862-.722v-4.33l2.5362,1.443Z"/>
      <path class="cls-1" d="M48.7319,121.965v-4.33l2.5362,1.444v2.886l-1.25.722Z"/>
      <path class="cls-1" d="M48.7319,127.739v-4.33l2.5362,1.443v2.887l-1.25.722Z"/>
      <path class="cls-1" d="M51.2681,130.626l-2.5362-1.444v4.33l1.2862.722,1.25-.722Z"/>
      <path class="cls-1" d="M48.7319,134.956v2.887l2.5362,1.443v-2.887Z"/>
      <path class="cls-2" d="M48.7681,108.975l1.25.722v28.867l-1.25-.721Z"/>
    </g>
    <g>
      <path class="cls-2" d="M82.5,53.405l1.25.722v-4.33l-1.25.721Z"/>
      <path class="cls-2" d="M83.75,55.57l-1.25.722v2.887l1.25.721Z"/>
      <path class="cls-2" d="M83.75,61.344l-1.25.721v2.887l1.25.722Z"/>
      <path class="cls-2" d="M82.5,67.839l1.25-.722v4.33l-1.25-.721Z"/>
      <path class="cls-2" d="M83.75,72.891v4.33l-1.25-.722V73.612Z"/>
      <path class="cls-1" d="M85,46.188l-1.25.722V72.891L85,72.169Z"/>
    </g>
    <g>
      <path class="cls-2" d="M268.7129,116.192l1.25.722,1.2131-.722v-4.33l-2.4631,1.443Z"/>
      <path class="cls-2" d="M271.176,121.965v-4.33l-2.4631,1.444v2.886l1.25.722Z"/>
      <path class="cls-2" d="M271.176,127.739v-4.33l-2.4631,1.443v2.887l1.25.722Z"/>
      <path class="cls-2" d="M268.7129,130.626l2.4631-1.444v4.33l-1.2131.722-1.25-.722Z"/>
      <path class="cls-2" d="M271.176,134.956v4.33l-1.2131.722-1.25-.722v-2.887Z"/>
      <path class="cls-1" d="M271.2129,108.975l-1.25.722v30.311l1.25-.722Z"/>
    </g>
    <g>
      <path class="cls-2" d="M118.75,32.476l1.25.722,1.2129-.722v-4.33L118.75,29.589Z"/>
      <path class="cls-2" d="M121.2129,38.25V33.92L118.75,35.363V38.25l1.25.721Z"/>
      <path class="cls-2" d="M121.2129,44.023v-4.33L118.75,41.136v2.887l1.25.722Z"/>
      <path class="cls-2" d="M118.75,46.91l2.4629-1.443v4.33L120,50.518l-1.25-.721Z"/>
      <path class="cls-1" d="M121.25,25.259l-1.25.722V51.962l1.25-.722Z"/>
    </g>
    <path class="cls-6" d="M160,37.528l-2.5,1.443L155,37.528l2.5-1.443Z"/>
    <path class="cls-6" d="M155,40.415l-2.5,1.443L150,40.415l2.5-1.444Z"/>
    <path class="cls-6" d="M150,43.302l-2.5,1.443L145,43.302l2.5-1.444Z"/>
    <path class="cls-6" d="M160,43.302l-2.5,1.443L155,43.302l2.5-1.444Z"/>
    <path class="cls-6" d="M165,43.302l-2.5,1.443L160,43.302l2.5-1.444Z"/>
    <path class="cls-6" d="M165,46.188l-2.5,1.444L160,46.188l2.5-1.443Z"/>
    <path class="cls-6" d="M170,40.415l-2.5,1.443L165,40.415l2.5-1.444Z"/>
    <path class="cls-6" d="M170,43.302l-2.5,1.443L165,43.302l2.5-1.444Z"/>
    <path class="cls-6" d="M155,46.188l-2.5,1.444L150,46.188l2.5-1.443Z"/>
    <path class="cls-6" d="M160,40.415l-2.5,1.443L155,40.415l2.5-1.444Z"/>
    <path class="cls-6" d="M155,43.302l-2.5,1.443L150,43.302l2.5-1.444Z"/>
    <path class="cls-6" d="M150,46.188l-2.5,1.444L145,46.188l2.5-1.443Z"/>
    <path class="cls-6" d="M160,46.188l-2.5,1.444L155,46.188l2.5-1.443Z"/>
    <path class="cls-6" d="M165,40.415l-2.5,1.443L160,40.415l2.5-1.444Z"/>
    <path class="cls-6" d="M165,37.528l-2.5,1.443L160,37.528l2.5-1.443Z"/>
    <path class="cls-22" d="M68.75,91.655l1.25.721-5,2.887-1.25-.722Z"/>
    <path class="cls-22" d="M123.7871,59.9l1.25.722-5,2.887-.0742-1.444Z"/>
    <path class="cls-22" d="M71.25,94.541l1.25.722-5,2.887-1.25-.722Z"/>
    <path class="cls-22" d="M126.2871,62.787l1.25.722-5,2.886-1.25-.721Z"/>
    <path class="cls-22" d="M73.676,97.428,75,98.15l-5,2.887-1.25-.722Z"/>
    <path class="cls-22" d="M128.7129,65.674l1.3242.722-5,2.886-1.25-.721Z"/>
    <path class="cls-22" d="M72.5,88.046l1.25.722-5,2.887-1.25-.722Z"/>
    <path class="cls-22" d="M127.5371,56.292l1.25.722-5,2.886-1.25-.721Z"/>
    <path class="cls-22" d="M75,90.933l1.25.721-5,2.887L70,93.82Z"/>
    <path class="cls-22" d="M130.0371,59.179l1.25.721-5,2.887-1.25-.722Z"/>
    <path class="cls-22" d="M77.5,93.82l1.25.721-5,2.887-1.25-.722Z"/>
    <path class="cls-22" d="M132.5371,62.065l1.25.722-5,2.887-1.25-.722Z"/>
    <path class="cls-22" d="M78.75,85.881l1.25.722L75,89.49l-1.25-.722Z"/>
    <path class="cls-3" d="M94.9629,69.282l25-14.433-10-5.774L85.0371,63.509l-.0742,1.443,10,5.774Z"/>
    <path class="cls-22" d="M133.7871,54.127l1.25.722-5,2.886-1.25-.721Z"/>
    <path class="cls-22" d="M81.25,88.768l1.25.721-5,2.887-1.25-.721Z"/>
    <path class="cls-22" d="M136.2871,57.014l1.25.721-5,2.887-1.25-.722Z"/>
    <path class="cls-22" d="M83.676,91.655l1.25.721-5,2.887-1.25-.722Z"/>
    <path class="cls-22" d="M138.7129,59.9l1.25.722-5,2.887-1.25-.722Z"/>
    <path class="cls-22" d="M81.25,82.994l1.25.722-3.75,2.165-1.25-.722Z"/>
    <path class="cls-22" d="M136.2871,51.24l1.25.722-3.75,2.165-1.25-.722Z"/>
    <path class="cls-22" d="M83.75,85.881l1.25.722-3.75,2.165L80,88.046Z"/>
    <path class="cls-22" d="M138.7871,54.127l1.25.721-3.75,2.166-1.25-.722Z"/>
    <path class="cls-22" d="M86.176,88.768l1.25.722-3.75,2.165-1.25-.722Z"/>
    <path class="cls-22" d="M141.2129,57.014l1.25.721-3.75,2.165-1.25-.721Z"/>
    <path class="cls-23" d="M70,92.376V93.82l-5,2.886V95.263Z"/>
    <path class="cls-23" d="M125.0371,60.622v1.443l-5,2.887V63.509Z"/>
    <path class="cls-23" d="M80,86.603v1.443l-5,2.887V89.49Z"/>
    <path class="cls-23" d="M135.0371,54.849v1.443l-5,2.887V57.735Z"/>
    <path class="cls-23" d="M72.5,95.263v1.443l-5,2.887V98.15Z"/>
    <path class="cls-23" d="M127.5371,63.509v1.443l-5,2.887V66.395Z"/>
    <path class="cls-23" d="M82.5,89.49v1.443l-5,2.887V92.376Z"/>
    <path class="cls-23" d="M137.5371,57.735v1.444l-5,2.886V60.622Z"/>
    <path class="cls-23" d="M75,98.15v1.443l-5,2.887v-1.443Z"/>
    <path class="cls-23" d="M130.0371,66.396v1.443l-5,2.887V69.282Z"/>
    <path class="cls-23" d="M85,92.376V93.82l-5,2.886V95.263Z"/>
    <path class="cls-23" d="M140.0371,60.622v1.443l-5,2.887V63.509Z"/>
    <path class="cls-24" d="M65,96.706l-2.5-1.443V93.82L65,95.263Z"/>
    <path class="cls-24" d="M70,101.037v1.443l-7.5-4.33V96.706Z"/>
    <path class="cls-24" d="M125,69.282v1.444l-5-2.887V66.396Z"/>
    <path class="cls-14" d="M90.0371,63.509l20-11.547,5,2.886-20,11.547Z"/>
    <path class="cls-18" d="M85.0371,83.716l-.0742-20.207,10,5.773.0742,20.208Z"/>
    <path class="cls-3" d="M88.75,81.551l-1.25.722,5,2.886V83.716Z"/>
    <path class="cls-16" d="M88.75,81.551l-1.25.722V76.499l1.25.722Z"/>
    <path class="cls-25" d="M88.75,81.551v-4.33l3.676,2.165.074,4.33Z"/>
    <g>
      <path class="cls-16" d="M159.9629,44.745l-1.25-.722V16.599l3.75-2.165V43.302Z"/>
      <path class="cls-17" d="M159.9629,44.745l-.0369-28.868-2.5-1.443.0369,28.868Z"/>
      <path class="cls-21" d="M149.926,18.764l10-5.773,2.5,1.443-10,5.774Z"/>
      <path class="cls-19" d="M152.426,21.651v1.443l2.5-1.443V20.208Z"/>
      <path class="cls-16" d="M152.426,20.208v1.443l10-5.774V14.434Z"/>
      <path class="cls-17" d="M149.926,18.764v1.444l2.5,1.443V20.208Z"/>
      <path class="cls-20" d="M149.926,20.208v1.443l2.5,1.443V21.651Z"/>
    </g>
    <g>
      <path class="cls-1" d="M123.7871,158.05l-1.25.721-1.2871-.721v-4.33l1.2871.721,1.25.722Z"/>
      <path class="cls-1" d="M121.25,163.823v-4.33l2.5371,1.444v2.886l-1.25.722Z"/>
      <path class="cls-1" d="M121.25,169.597v-4.33l2.5371,1.443v2.887l-1.25.722Z"/>
      <path class="cls-1" d="M123.7871,172.484,121.25,171.04v4.33l1.2871.722,1.25-.722Z"/>
      <path class="cls-1" d="M121.25,176.814V179.7l2.5371,1.444v-2.887Z"/>
      <path class="cls-2" d="M121.2871,150.833l1.25.722v28.867l-1.25-.722Z"/>
    </g>
    <path class="cls-6" d="M105,86.603l-2.5,1.443L100,86.603l2.5-1.444Z"/>
  </g>
</svg>
