<svg id="Layer_1" data-name="Layer 1" xmlns="http://www.w3.org/2000/svg" xmlns:xlink="http://www.w3.org/1999/xlink" viewBox="0 0 320 207.846">
  <defs>
    <style>
      .cls-1 {
        fill: #a2a2a2;
      }

      .cls-2 {
        fill: #8b8b8b;
      }

      .cls-3 {
        fill: #e8e8e8;
      }

      .cls-4 {
        fill: #bdbdba;
      }

      .cls-5 {
        fill: #747474;
      }

      .cls-6 {
        fill: #b5b4b1;
      }

      .cls-7 {
        fill: #f9e7dd;
      }

      .cls-8 {
        fill: #ddc0b0;
      }

      .cls-9 {
        fill: #aa8c7b;
      }

      .cls-10 {
        fill: #5d5d5d;
      }

      .cls-11 {
        fill: #464646;
      }

      .cls-12 {
        fill: #b9b9b9;
      }

      .cls-13 {
        fill: #2e2e2e;
      }

      .cls-14 {
        fill: #7eb992;
      }

      .cls-15 {
        fill: #fff;
      }

      .cls-16 {
        fill: #609170;
      }

      .cls-17 {
        mask: url(#mask);
      }

      .cls-18 {
        fill: #d1d1d1;
      }

      .cls-19 {
        fill: #f60;
      }

      .cls-20 {
        mask: url(#mask-2);
      }

      .cls-21 {
        fill: #fff9d0;
      }

      .cls-22 {
        fill: #fff29e;
      }

      .cls-23 {
        fill: #9d9d9d;
      }

      .cls-24 {
        fill: #f0dace;
      }

      .cls-25 {
        fill: #d0b1a1;
      }

      .cls-26 {
        fill: #9f806e;
      }

      .cls-27 {
        fill: #aadafd;
      }
    </style>
    <mask id="mask" x="-6139.25" y="-3123.937" width="6356.2871" height="5573.8179" maskUnits="userSpaceOnUse">
      <g id="_mask_X61zWmCjpvknvFj6h3EX11Ml4ej52ceX" data-name=" mask X61zWmCjpvknvFj6h3EX11Ml4ej52ceX">
        <path d="M205.9031,65.429l9.5178,5.495c.478.276.8662.052.8662-.5V68.537h0c0-3.983-2.521-8.672-5.625-10.465h0c-3.1052-1.792-5.625-.013-5.625,3.97h0v1.887A1.9165,1.9165,0,0,0,205.9031,65.429Z"/>
      </g>
    </mask>
    <mask id="mask-2" x="-6139.25" y="-3123.937" width="6254.9629" height="5573.8179" maskUnits="userSpaceOnUse">
      <g id="_mask_aIMKk7nNb6VRn948FBTMApbXRLLR7ST2" data-name=" mask aIMKk7nNb6VRn948FBTMApbXRLLR7ST2">
        <path d="M104.5791,138.041l9.5178,5.495c.4781.276.866.052.866-.5v-1.887h0c0-3.983-2.52-8.672-5.625-10.464h0c-3.104-1.793-5.625-.014-5.625,3.969h0v1.887A1.9154,1.9154,0,0,0,104.5791,138.041Z"/>
      </g>
    </mask>
  </defs>
  <title>Artboard 4</title>
  <g id="root">
    <g>
      <path class="cls-1" d="M159.9629,37.528,157.5,36.085V1.444l2.4629,1.443,2.5-1.443V36.085Z"/>
      <path class="cls-2" d="M159.9629,37.528V2.887l-2.5-1.443V36.085Z"/>
    </g>
    <path class="cls-3" d="M0,115.47l159.9629,92.376L320,115.47,160,23.094Z"/>
    <path class="cls-4" d="M160,28.868,309.9629,115.47l-150,86.603L10,115.47Z"/>
    <path class="cls-5" d="M160,28.868v5.773l144.9629,83.716,5-2.887Z"/>
    <path class="cls-6" d="M145,46.188l-2.5,1.444L140,46.188l2.5-1.443Z"/>
    <path class="cls-6" d="M170,46.188l-2.5,1.444L165,46.188l2.5-1.443Z"/>
    <path class="cls-6" d="M175,43.301l-2.5,1.444L170,43.301l2.5-1.443Z"/>
    <path class="cls-6" d="M150,49.075l-2.5,1.443L145,49.075l2.5-1.443Z"/>
    <path class="cls-6" d="M145,49.075l-2.5,1.443L140,49.075l2.5-1.443Z"/>
    <path class="cls-6" d="M140,51.962l-2.5,1.443L135,51.962l2.5-1.444Z"/>
    <path class="cls-6" d="M160,49.075l-2.5,1.443L155,49.075l2.5-1.443Z"/>
    <path class="cls-6" d="M165,49.075l-2.5,1.443L160,49.075l2.5-1.443Z"/>
    <path class="cls-6" d="M170,49.075l-2.5,1.443L165,49.075l2.5-1.443Z"/>
    <path class="cls-6" d="M175,46.188l-2.5,1.444L170,46.188l2.5-1.443Z"/>
    <path class="cls-6" d="M180,46.188l-2.5,1.444L175,46.188l2.5-1.443Z"/>
    <path class="cls-6" d="M185,49.075l-2.5,1.443L180,49.075l2.5-1.443Z"/>
    <path class="cls-6" d="M190,51.962l-2.5,1.443L185,51.962l2.5-1.444Z"/>
    <path class="cls-6" d="M194.926,54.848l-2.5,1.444-2.5-1.444,2.5-1.443Z"/>
    <path class="cls-6" d="M199.926,57.735l-2.5,1.444-2.5-1.444,2.5-1.443Z"/>
    <path class="cls-6" d="M205,60.622l-2.5,1.443L200,60.622l2.5-1.443Z"/>
    <path class="cls-6" d="M210,63.509l-2.5,1.443L205,63.509l2.5-1.444Z"/>
    <path class="cls-6" d="M215,66.396l-2.5,1.443L210,66.396l2.5-1.444Z"/>
    <path class="cls-6" d="M220,69.282l-2.5,1.444L215,69.282l2.5-1.443Z"/>
    <path class="cls-6" d="M225,72.169l-2.5,1.443L220,72.169l2.5-1.443Z"/>
    <path class="cls-6" d="M229.9629,75.056l-2.5,1.443-2.5-1.443,2.5-1.444Z"/>
    <path class="cls-6" d="M235,77.942l-2.5,1.444L230,77.942l2.5-1.443Z"/>
    <path class="cls-6" d="M239.926,80.829l-2.5,1.444-2.5-1.444,2.5-1.443Z"/>
    <path class="cls-6" d="M244.926,83.716l-2.5,1.443-2.5-1.443,2.5-1.443Z"/>
    <path class="cls-6" d="M250,86.603l-2.5,1.443L245,86.603l2.5-1.444Z"/>
    <path class="cls-6" d="M255,89.489l-2.5,1.444L250,89.489l2.5-1.443Z"/>
    <path class="cls-6" d="M259.926,92.376l-2.5,1.444-2.5-1.444,2.5-1.443Z"/>
    <path class="cls-6" d="M265,95.263l-2.5,1.443L260,95.263l2.5-1.443Z"/>
    <path class="cls-6" d="M269.9629,98.15l-2.5,1.443-2.5-1.443,2.5-1.444Z"/>
    <path class="cls-6" d="M269.926,101.037l-2.5,1.443-2.5-1.443,2.5-1.444Z"/>
    <path class="cls-6" d="M274.9629,101.037l-2.5,1.443-2.5-1.443,2.5-1.444Z"/>
    <path class="cls-6" d="M284.926,106.81l-2.5,1.443-2.5-1.443,2.5-1.443Z"/>
    <path class="cls-6" d="M289.926,109.697l-2.5,1.443-2.5-1.443,2.5-1.444Z"/>
    <path class="cls-6" d="M294.9629,112.583l-2.5,1.444-2.5-1.444,2.5-1.443Z"/>
    <path class="cls-6" d="M299.9629,115.47l-2.5,1.444-2.5-1.444,2.5-1.443Z"/>
    <path class="cls-6" d="M304.9629,118.357l-2.5,1.443-2.5-1.443,2.5-1.443Z"/>
    <path class="cls-6" d="M299.9629,121.244l-2.5,1.443-2.5-1.443,2.5-1.444Z"/>
    <path class="cls-6" d="M294.9629,118.357l-2.5,1.443-2.5-1.443,2.5-1.444Z"/>
    <path class="cls-6" d="M289.9629,115.471l-2.5,1.443-2.5-1.443,2.5-1.444Z"/>
    <path class="cls-6" d="M285,112.584l-2.5,1.444-2.5-1.444,2.5-1.443Z"/>
    <path class="cls-6" d="M279.9629,109.697l-2.5,1.443-2.5-1.443,2.5-1.444Z"/>
    <path class="cls-6" d="M274.9629,103.923l-2.5,1.444-2.5-1.444,2.5-1.443Z"/>
    <path class="cls-6" d="M264.9629,101.037l-2.5,1.443-2.5-1.443,2.5-1.444Z"/>
    <path class="cls-6" d="M264.926,103.923l-2.5,1.444-2.5-1.444,2.5-1.443Z"/>
    <path class="cls-6" d="M269.9629,103.923l-2.5,1.444-2.5-1.444,2.5-1.443Z"/>
    <path class="cls-6" d="M269.9629,106.81l-2.5,1.443-2.5-1.443,2.5-1.443Z"/>
    <path class="cls-6" d="M259.9629,103.923l-2.5,1.444-2.5-1.444,2.5-1.443Z"/>
    <path class="cls-6" d="M235.0549,118.357l-2.5,1.443-2.5-1.443,2.5-1.443Z"/>
    <path class="cls-6" d="M209.9629,132.791l-2.5,1.444-2.5-1.444,2.5-1.443Z"/>
    <path class="cls-6" d="M184.9629,147.225l-2.5,1.443-2.5-1.443,2.5-1.444Z"/>
    <path class="cls-6" d="M159.926,161.659l-2.5,1.443-2.5-1.443,2.5-1.444Z"/>
    <path class="cls-6" d="M255,106.811l-2.5,1.443-2.5-1.443,2.5-1.444Z"/>
    <path class="cls-6" d="M230.092,121.244l-2.5,1.444-2.5-1.444,2.5-1.443Z"/>
    <path class="cls-6" d="M205,135.678l-2.5,1.444-2.5-1.444,2.5-1.443Z"/>
    <path class="cls-6" d="M179.9629,150.112l-2.5,1.443-2.5-1.443,2.5-1.444Z"/>
    <path class="cls-6" d="M154.9629,164.546l-2.5,1.443-2.5-1.443,2.5-1.443Z"/>
    <path class="cls-6" d="M249.9451,109.697l-2.5,1.444-2.5-1.444,2.5-1.443Z"/>
    <path class="cls-6" d="M225.0371,124.131l-2.5,1.444-2.5-1.444,2.5-1.443Z"/>
    <path class="cls-6" d="M199.9451,138.565l-2.5,1.444-2.5-1.444,2.5-1.443Z"/>
    <path class="cls-6" d="M174.9629,152.998l-2.5,1.443-2.5-1.443,2.5-1.444Z"/>
    <path class="cls-6" d="M149.908,167.433l-2.5,1.443-2.5-1.443,2.5-1.443Z"/>
    <path class="cls-6" d="M244.9629,112.583l-2.5,1.444-2.5-1.444,2.5-1.443Z"/>
    <path class="cls-6" d="M220.0549,127.017l-2.5,1.443-2.5-1.443,2.5-1.443Z"/>
    <path class="cls-6" d="M194.9629,141.451l-2.5,1.444-2.5-1.444,2.5-1.443Z"/>
    <path class="cls-6" d="M169.9629,155.886l-2.5,1.443-2.5-1.443,2.5-1.444Z"/>
    <path class="cls-6" d="M144.926,170.319l-2.5,1.443-2.5-1.443,2.5-1.444Z"/>
    <path class="cls-6" d="M239.908,115.47l-2.5,1.444-2.5-1.444,2.5-1.443Z"/>
    <path class="cls-6" d="M215,129.904l-2.5,1.444-2.5-1.444,2.5-1.443Z"/>
    <path class="cls-6" d="M189.9629,144.339l-2.5,1.443-2.5-1.443,2.5-1.444Z"/>
    <path class="cls-6" d="M165,158.772l-2.5,1.443-2.5-1.443,2.5-1.444Z"/>
    <path class="cls-6" d="M139.8711,173.206l-2.5,1.443-2.5-1.443,2.5-1.443Z"/>
    <path class="cls-6" d="M269.9629,109.697l-2.5,1.443-2.5-1.443,2.5-1.443Z"/>
    <path class="cls-6" d="M280,115.471l-2.5,1.443-2.5-1.443,2.5-1.444Z"/>
    <path class="cls-6" d="M275,118.357l-2.5,1.444-2.5-1.444,2.5-1.443Z"/>
    <path class="cls-6" d="M269.9629,121.244l-2.5,1.444-2.5-1.444,2.5-1.443Z"/>
    <path class="cls-6" d="M265,124.131l-2.5,1.443-2.5-1.443,2.5-1.443Z"/>
    <path class="cls-6" d="M240,138.565l-2.5,1.443-2.5-1.443,2.5-1.444Z"/>
    <path class="cls-6" d="M235.074,141.451l-2.5,1.444-2.5-1.444,2.5-1.443Z"/>
    <path class="cls-6" d="M229.9629,144.338l-2.5,1.444-2.5-1.444,2.5-1.443Z"/>
    <path class="cls-6" d="M225,147.225l-2.5,1.443-2.5-1.443,2.5-1.443Z"/>
    <path class="cls-6" d="M220,150.111l-2.5,1.444-2.5-1.444,2.5-1.443Z"/>
    <path class="cls-6" d="M215,152.998l-2.5,1.444-2.5-1.444,2.5-1.443Z"/>
    <path class="cls-6" d="M209.9629,155.885l-2.5,1.443-2.5-1.443,2.5-1.443Z"/>
    <path class="cls-6" d="M205,158.772l-2.5,1.443-2.5-1.443,2.5-1.444Z"/>
    <path class="cls-6" d="M200,161.659l-2.5,1.443-2.5-1.443,2.5-1.444Z"/>
    <path class="cls-6" d="M194.9629,164.545l-2.5,1.444-2.5-1.444,2.5-1.443Z"/>
    <path class="cls-6" d="M190,167.432l-2.5,1.444-2.5-1.444,2.5-1.443Z"/>
    <path class="cls-6" d="M184.9629,170.319l-2.5,1.443-2.5-1.443,2.5-1.444Z"/>
    <path class="cls-6" d="M180,173.206l-2.5,1.443-2.5-1.443,2.5-1.444Z"/>
    <path class="cls-6" d="M175,176.092l-2.5,1.444-2.5-1.444,2.5-1.443Z"/>
    <path class="cls-6" d="M170,178.979l-2.5,1.443-2.5-1.443,2.5-1.443Z"/>
    <path class="cls-6" d="M165,181.866l-2.5,1.443-2.5-1.443,2.5-1.444Z"/>
    <path class="cls-6" d="M260,127.017l-2.5,1.444-2.5-1.444,2.5-1.443Z"/>
    <path class="cls-6" d="M254.9629,129.904l-2.5,1.444-2.5-1.444,2.5-1.443Z"/>
    <path class="cls-6" d="M249.9629,132.791l-2.5,1.443-2.5-1.443,2.5-1.444Z"/>
    <path class="cls-6" d="M245,135.678l-2.5,1.443-2.5-1.443,2.5-1.443Z"/>
    <path class="cls-6" d="M289.9629,121.244l-2.5,1.443-2.5-1.443,2.5-1.444Z"/>
    <path class="cls-6" d="M284.9629,124.131l-2.5,1.443-2.5-1.443,2.5-1.444Z"/>
    <path class="cls-6" d="M279.926,127.017l-2.5,1.444-2.5-1.444,2.5-1.443Z"/>
    <path class="cls-6" d="M274.9629,129.904l-2.5,1.444-2.5-1.444,2.5-1.443Z"/>
    <path class="cls-6" d="M249.9629,144.338l-2.5,1.443-2.5-1.443,2.5-1.443Z"/>
    <path class="cls-6" d="M245.0371,147.224l-2.5,1.444-2.5-1.444,2.5-1.443Z"/>
    <path class="cls-6" d="M239.926,150.112l-2.5,1.443-2.5-1.443,2.5-1.444Z"/>
    <path class="cls-6" d="M234.9629,152.998l-2.5,1.444-2.5-1.444,2.5-1.443Z"/>
    <path class="cls-6" d="M229.9629,155.884l-2.5,1.444-2.5-1.444,2.5-1.443Z"/>
    <path class="cls-6" d="M224.9629,158.772l-2.5,1.443-2.5-1.443,2.5-1.444Z"/>
    <path class="cls-6" d="M219.926,161.658l-2.5,1.444-2.5-1.444,2.5-1.443Z"/>
    <path class="cls-6" d="M214.9629,164.545l-2.5,1.443-2.5-1.443,2.5-1.443Z"/>
    <path class="cls-6" d="M209.9629,167.432l-2.5,1.443-2.5-1.443,2.5-1.443Z"/>
    <path class="cls-6" d="M204.926,170.318l-2.5,1.444-2.5-1.444,2.5-1.443Z"/>
    <path class="cls-6" d="M199.9629,173.205l-2.5,1.444-2.5-1.444,2.5-1.443Z"/>
    <path class="cls-6" d="M194.926,176.092l-2.5,1.443-2.5-1.443,2.5-1.443Z"/>
    <path class="cls-6" d="M189.9629,178.979l-2.5,1.443-2.5-1.443,2.5-1.443Z"/>
    <path class="cls-6" d="M184.9629,181.865l-2.5,1.444-2.5-1.444,2.5-1.443Z"/>
    <path class="cls-6" d="M179.9629,184.752l-2.5,1.444-2.5-1.444,2.5-1.443Z"/>
    <path class="cls-6" d="M174.9629,187.639l-2.5,1.443-2.5-1.443,2.5-1.443Z"/>
    <path class="cls-6" d="M169.9629,190.526l-2.5,1.443-2.5-1.443,2.5-1.444Z"/>
    <path class="cls-6" d="M164.9629,193.413l-2.5,1.443-2.5-1.443,2.5-1.444Z"/>
    <path class="cls-6" d="M269.9629,132.79l-2.5,1.444-2.5-1.444,2.5-1.443Z"/>
    <path class="cls-6" d="M264.926,135.677l-2.5,1.444-2.5-1.444,2.5-1.443Z"/>
    <path class="cls-6" d="M259.926,138.564l-2.5,1.443-2.5-1.443,2.5-1.444Z"/>
    <path class="cls-6" d="M254.9629,141.451l-2.5,1.444-2.5-1.444,2.5-1.443Z"/>
    <path class="cls-6" d="M259.926,106.81l-2.5,1.443-2.5-1.443,2.5-1.443Z"/>
    <path class="cls-6" d="M235.019,121.244l-2.5,1.443-2.5-1.443,2.5-1.444Z"/>
    <path class="cls-6" d="M209.926,135.678l-2.5,1.443-2.5-1.443,2.5-1.443Z"/>
    <path class="cls-6" d="M184.9629,150.111l-2.5,1.444-2.5-1.444,2.5-1.443Z"/>
    <path class="cls-6" d="M159.926,164.545l-2.5,1.443-2.5-1.443,2.5-1.443Z"/>
    <path class="cls-6" d="M254.9629,109.697l-2.5,1.444-2.5-1.444,2.5-1.443Z"/>
    <path class="cls-6" d="M230.0549,124.131l-2.5,1.443-2.5-1.443,2.5-1.443Z"/>
    <path class="cls-6" d="M204.9629,138.565l-2.5,1.444-2.5-1.444,2.5-1.443Z"/>
    <path class="cls-6" d="M179.926,152.998l-2.5,1.444-2.5-1.444,2.5-1.443Z"/>
    <path class="cls-6" d="M154.926,167.433l-2.5,1.443-2.5-1.443,2.5-1.444Z"/>
    <path class="cls-6" d="M249.908,112.584l-2.5,1.444-2.5-1.444,2.5-1.443Z"/>
    <path class="cls-6" d="M225,127.018l-2.5,1.443-2.5-1.443,2.5-1.443Z"/>
    <path class="cls-6" d="M199.908,141.452l-2.5,1.444-2.5-1.444,2.5-1.443Z"/>
    <path class="cls-6" d="M175,155.886l-2.5,1.443-2.5-1.443,2.5-1.444Z"/>
    <path class="cls-6" d="M149.9629,170.318l-2.5,1.444-2.5-1.444,2.5-1.443Z"/>
    <path class="cls-6" d="M244.926,115.47l-2.5,1.444-2.5-1.444,2.5-1.443Z"/>
    <path class="cls-6" d="M220.019,129.904l-2.5,1.443-2.5-1.443,2.5-1.443Z"/>
    <path class="cls-6" d="M194.926,144.338l-2.5,1.444-2.5-1.444,2.5-1.443Z"/>
    <path class="cls-6" d="M169.926,158.772l-2.5,1.443-2.5-1.443,2.5-1.443Z"/>
    <path class="cls-6" d="M144.9629,173.206l-2.5,1.443-2.5-1.443,2.5-1.444Z"/>
    <path class="cls-6" d="M134.9629,178.979l-2.5,1.444-2.5-1.444,2.5-1.443Z"/>
    <path class="cls-6" d="M239.8711,118.357l-2.5,1.444-2.5-1.444,2.5-1.443Z"/>
    <path class="cls-6" d="M214.9629,132.791l-2.5,1.443-2.5-1.443,2.5-1.443Z"/>
    <path class="cls-6" d="M189.9629,147.225l-2.5,1.444-2.5-1.444,2.5-1.443Z"/>
    <path class="cls-6" d="M164.9629,161.659l-2.5,1.443-2.5-1.443,2.5-1.444Z"/>
    <path class="cls-6" d="M139.9629,176.093l-2.5,1.443-2.5-1.443,2.5-1.444Z"/>
    <path class="cls-6" d="M129.8889,181.865l-2.5,1.443-2.5-1.443,2.5-1.443Z"/>
    <path class="cls-6" d="M269.926,112.584l-2.5,1.443-2.5-1.443,2.5-1.444Z"/>
    <path class="cls-6" d="M279.9629,118.357l-2.5,1.444-2.5-1.444,2.5-1.443Z"/>
    <path class="cls-6" d="M289.926,124.131l-2.5,1.443-2.5-1.443,2.5-1.444Z"/>
    <path class="cls-6" d="M264.9629,106.81l-2.5,1.443-2.5-1.443,2.5-1.443Z"/>
    <path class="cls-6" d="M240.0549,121.244l-2.5,1.443-2.5-1.443,2.5-1.444Z"/>
    <path class="cls-6" d="M214.9629,135.678l-2.5,1.443-2.5-1.443,2.5-1.443Z"/>
    <path class="cls-6" d="M189.9629,150.111l-2.5,1.444-2.5-1.444,2.5-1.443Z"/>
    <path class="cls-6" d="M164.926,164.545l-2.5,1.444-2.5-1.444,2.5-1.443Z"/>
    <path class="cls-6" d="M260,109.697l-2.5,1.444-2.5-1.444,2.5-1.443Z"/>
    <path class="cls-6" d="M235.092,124.131l-2.5,1.443-2.5-1.443,2.5-1.443Z"/>
    <path class="cls-6" d="M210,138.565l-2.5,1.444-2.5-1.444,2.5-1.443Z"/>
    <path class="cls-6" d="M184.9629,152.998l-2.5,1.444-2.5-1.444,2.5-1.443Z"/>
    <path class="cls-6" d="M159.9629,167.433l-2.5,1.443-2.5-1.443,2.5-1.444Z"/>
    <path class="cls-6" d="M254.9451,112.584l-2.5,1.443-2.5-1.443,2.5-1.443Z"/>
    <path class="cls-6" d="M230.0371,127.018l-2.5,1.443-2.5-1.443,2.5-1.444Z"/>
    <path class="cls-6" d="M204.9451,141.452l-2.5,1.443-2.5-1.443,2.5-1.443Z"/>
    <path class="cls-6" d="M179.926,155.886l-2.5,1.443-2.5-1.443,2.5-1.444Z"/>
    <path class="cls-6" d="M154.908,170.32l-2.5,1.443-2.5-1.443,2.5-1.444Z"/>
    <path class="cls-6" d="M249.9629,115.47l-2.5,1.443-2.5-1.443,2.5-1.443Z"/>
    <path class="cls-6" d="M225.0549,129.904l-2.5,1.443-2.5-1.443,2.5-1.444Z"/>
    <path class="cls-6" d="M199.9629,144.338l-2.5,1.443-2.5-1.443,2.5-1.443Z"/>
    <path class="cls-6" d="M174.9629,158.771l-2.5,1.444-2.5-1.444,2.5-1.443Z"/>
    <path class="cls-6" d="M149.926,173.205l-2.5,1.444-2.5-1.444,2.5-1.443Z"/>
    <path class="cls-6" d="M244.908,118.357l-2.5,1.443-2.5-1.443,2.5-1.443Z"/>
    <path class="cls-6" d="M220,132.791l-2.5,1.443-2.5-1.443,2.5-1.444Z"/>
    <path class="cls-6" d="M194.908,147.225l-2.5,1.443-2.5-1.443,2.5-1.443Z"/>
    <path class="cls-6" d="M170,161.658l-2.5,1.444-2.5-1.444,2.5-1.443Z"/>
    <path class="cls-6" d="M144.8711,176.093l-2.5,1.443-2.5-1.443,2.5-1.444Z"/>
    <path class="cls-6" d="M274.9629,112.584l-2.5,1.443-2.5-1.443,2.5-1.444Z"/>
    <path class="cls-6" d="M269.9629,115.471l-2.5,1.443-2.5-1.443,2.5-1.444Z"/>
    <path class="cls-6" d="M264.926,118.357l-2.5,1.444-2.5-1.444,2.5-1.443Z"/>
    <path class="cls-6" d="M259.9629,121.244l-2.5,1.443-2.5-1.443,2.5-1.443Z"/>
    <path class="cls-6" d="M234.9629,135.678l-2.5,1.443-2.5-1.443,2.5-1.444Z"/>
    <path class="cls-6" d="M230.0371,138.564l-2.5,1.444-2.5-1.444,2.5-1.443Z"/>
    <path class="cls-6" d="M224.926,141.451l-2.5,1.444-2.5-1.444,2.5-1.443Z"/>
    <path class="cls-6" d="M219.9629,144.338l-2.5,1.443-2.5-1.443,2.5-1.443Z"/>
    <path class="cls-6" d="M214.9629,147.224l-2.5,1.444-2.5-1.444,2.5-1.443Z"/>
    <path class="cls-6" d="M209.9629,150.112l-2.5,1.443-2.5-1.443,2.5-1.444Z"/>
    <path class="cls-6" d="M204.926,152.998l-2.5,1.443-2.5-1.443,2.5-1.443Z"/>
    <path class="cls-6" d="M199.9629,155.885l-2.5,1.443-2.5-1.443,2.5-1.444Z"/>
    <path class="cls-6" d="M194.9629,158.772l-2.5,1.443-2.5-1.443,2.5-1.444Z"/>
    <path class="cls-6" d="M189.926,161.658l-2.5,1.444-2.5-1.444,2.5-1.443Z"/>
    <path class="cls-6" d="M184.9629,164.545l-2.5,1.444-2.5-1.444,2.5-1.443Z"/>
    <path class="cls-6" d="M179.926,167.432l-2.5,1.443-2.5-1.443,2.5-1.444Z"/>
    <path class="cls-6" d="M174.9629,170.319l-2.5,1.443-2.5-1.443,2.5-1.444Z"/>
    <path class="cls-6" d="M169.9629,173.205l-2.5,1.444-2.5-1.444,2.5-1.443Z"/>
    <path class="cls-6" d="M164.9629,176.092l-2.5,1.443-2.5-1.443,2.5-1.443Z"/>
    <path class="cls-6" d="M159.9629,178.979l-2.5,1.443-2.5-1.443,2.5-1.444Z"/>
    <path class="cls-6" d="M254.9629,124.13l-2.5,1.444-2.5-1.444,2.5-1.443Z"/>
    <path class="cls-6" d="M249.926,127.017l-2.5,1.444-2.5-1.444,2.5-1.443Z"/>
    <path class="cls-6" d="M244.926,129.904l-2.5,1.443-2.5-1.443,2.5-1.444Z"/>
    <path class="cls-6" d="M239.9629,132.791l-2.5,1.443-2.5-1.443,2.5-1.443Z"/>
    <path class="cls-6" d="M285,118.357l-2.5,1.444-2.5-1.444,2.5-1.443Z"/>
    <path class="cls-6" d="M280,121.244l-2.5,1.444-2.5-1.444,2.5-1.443Z"/>
    <path class="cls-6" d="M274.9629,124.131l-2.5,1.443-2.5-1.443,2.5-1.443Z"/>
    <path class="cls-6" d="M270,127.018l-2.5,1.443-2.5-1.443,2.5-1.444Z"/>
    <path class="cls-6" d="M245,141.451l-2.5,1.444-2.5-1.444,2.5-1.443Z"/>
    <path class="cls-6" d="M240.074,144.338l-2.5,1.443-2.5-1.443,2.5-1.444Z"/>
    <path class="cls-6" d="M234.9629,147.225l-2.5,1.443-2.5-1.443,2.5-1.443Z"/>
    <path class="cls-6" d="M230,150.112l-2.5,1.443-2.5-1.443,2.5-1.444Z"/>
    <path class="cls-6" d="M225,152.998l-2.5,1.443-2.5-1.443,2.5-1.443Z"/>
    <path class="cls-6" d="M220,155.885l-2.5,1.444-2.5-1.444,2.5-1.443Z"/>
    <path class="cls-6" d="M214.9629,158.772l-2.5,1.443-2.5-1.443,2.5-1.444Z"/>
    <path class="cls-6" d="M210,161.658l-2.5,1.444-2.5-1.444,2.5-1.443Z"/>
    <path class="cls-6" d="M205,164.545l-2.5,1.444-2.5-1.444,2.5-1.443Z"/>
    <path class="cls-6" d="M199.9629,167.432l-2.5,1.443-2.5-1.443,2.5-1.443Z"/>
    <path class="cls-6" d="M195,170.319l-2.5,1.443-2.5-1.443,2.5-1.443Z"/>
    <path class="cls-6" d="M189.9629,173.205l-2.5,1.444-2.5-1.444,2.5-1.443Z"/>
    <path class="cls-6" d="M185,176.092l-2.5,1.444-2.5-1.444,2.5-1.443Z"/>
    <path class="cls-6" d="M180,178.979l-2.5,1.443-2.5-1.443,2.5-1.443Z"/>
    <path class="cls-6" d="M175,181.866l-2.5,1.443-2.5-1.443,2.5-1.444Z"/>
    <path class="cls-6" d="M170,184.752l-2.5,1.444-2.5-1.444,2.5-1.443Z"/>
    <path class="cls-6" d="M165,187.639l-2.5,1.443-2.5-1.443,2.5-1.443Z"/>
    <path class="cls-6" d="M265,129.904l-2.5,1.443-2.5-1.443,2.5-1.443Z"/>
    <path class="cls-6" d="M259.9629,132.791l-2.5,1.443-2.5-1.443,2.5-1.444Z"/>
    <path class="cls-6" d="M254.9629,135.677l-2.5,1.444-2.5-1.444,2.5-1.443Z"/>
    <path class="cls-6" d="M250,138.565l-2.5,1.443-2.5-1.443,2.5-1.444Z"/>
    <path class="cls-6" d="M294.9629,124.13l-2.5,1.444-2.5-1.444,2.5-1.443Z"/>
    <path class="cls-6" d="M289.9629,127.017l-2.5,1.444-2.5-1.444,2.5-1.443Z"/>
    <path class="cls-6" d="M284.926,129.904l-2.5,1.443-2.5-1.443,2.5-1.443Z"/>
    <path class="cls-6" d="M279.9629,132.791l-2.5,1.443-2.5-1.443,2.5-1.444Z"/>
    <path class="cls-6" d="M254.9629,147.225l-2.5,1.443-2.5-1.443,2.5-1.444Z"/>
    <path class="cls-6" d="M250.0371,150.111l-2.5,1.443-2.5-1.443,2.5-1.443Z"/>
    <path class="cls-6" d="M244.926,152.998l-2.5,1.444-2.5-1.444,2.5-1.443Z"/>
    <path class="cls-6" d="M239.9629,155.885l-2.5,1.443-2.5-1.443,2.5-1.444Z"/>
    <path class="cls-6" d="M234.9629,158.771l-2.5,1.443-2.5-1.443,2.5-1.443Z"/>
    <path class="cls-6" d="M229.9629,161.658l-2.5,1.444-2.5-1.444,2.5-1.443Z"/>
    <path class="cls-6" d="M224.926,164.545l-2.5,1.443-2.5-1.443,2.5-1.444Z"/>
    <path class="cls-6" d="M219.9629,167.432l-2.5,1.443-2.5-1.443,2.5-1.444Z"/>
    <path class="cls-6" d="M214.9629,170.319l-2.5,1.443-2.5-1.443,2.5-1.444Z"/>
    <path class="cls-6" d="M209.926,173.205l-2.5,1.443-2.5-1.443,2.5-1.443Z"/>
    <path class="cls-6" d="M204.9629,176.092l-2.5,1.443-2.5-1.443,2.5-1.443Z"/>
    <path class="cls-6" d="M199.926,178.979l-2.5,1.443-2.5-1.443,2.5-1.444Z"/>
    <path class="cls-6" d="M194.9629,181.866l-2.5,1.443-2.5-1.443,2.5-1.444Z"/>
    <path class="cls-6" d="M189.9629,184.752l-2.5,1.443-2.5-1.443,2.5-1.443Z"/>
    <path class="cls-6" d="M184.9629,187.639l-2.5,1.443-2.5-1.443,2.5-1.444Z"/>
    <path class="cls-6" d="M179.9629,190.526l-2.5,1.443-2.5-1.443,2.5-1.444Z"/>
    <path class="cls-6" d="M174.9629,193.412l-2.5,1.444-2.5-1.444,2.5-1.443Z"/>
    <path class="cls-6" d="M169.9629,196.299l-2.5,1.444-2.5-1.444,2.5-1.443Z"/>
    <path class="cls-6" d="M164.9629,199.186l-2.5,1.443-2.5-1.443,2.5-1.443Z"/>
    <path class="cls-6" d="M274.9629,135.677l-2.5,1.443-2.5-1.443,2.5-1.443Z"/>
    <path class="cls-6" d="M269.926,138.564l-2.5,1.443-2.5-1.443,2.5-1.443Z"/>
    <path class="cls-6" d="M264.926,141.45l-2.5,1.444-2.5-1.444,2.5-1.443Z"/>
    <path class="cls-6" d="M259.9629,144.338l-2.5,1.443-2.5-1.443,2.5-1.444Z"/>
    <path class="cls-6" d="M264.9629,109.697l-2.5,1.443-2.5-1.443,2.5-1.444Z"/>
    <path class="cls-6" d="M240.0549,124.13l-2.5,1.444-2.5-1.444,2.5-1.443Z"/>
    <path class="cls-6" d="M214.9629,138.565l-2.5,1.443-2.5-1.443,2.5-1.444Z"/>
    <path class="cls-6" d="M189.9629,152.998l-2.5,1.443-2.5-1.443,2.5-1.444Z"/>
    <path class="cls-6" d="M164.926,167.432l-2.5,1.443-2.5-1.443,2.5-1.443Z"/>
    <path class="cls-6" d="M260,112.584l-2.5,1.443-2.5-1.443,2.5-1.444Z"/>
    <path class="cls-6" d="M235.092,127.018l-2.5,1.443-2.5-1.443,2.5-1.444Z"/>
    <path class="cls-6" d="M210,141.452l-2.5,1.443-2.5-1.443,2.5-1.444Z"/>
    <path class="cls-6" d="M184.9629,155.885l-2.5,1.444-2.5-1.444,2.5-1.443Z"/>
    <path class="cls-6" d="M159.9629,170.319l-2.5,1.444-2.5-1.444,2.5-1.443Z"/>
    <path class="cls-6" d="M254.9451,115.471l-2.5,1.443-2.5-1.443,2.5-1.444Z"/>
    <path class="cls-6" d="M230.0371,129.905l-2.5,1.443-2.5-1.443,2.5-1.444Z"/>
    <path class="cls-6" d="M204.9451,144.339l-2.5,1.443-2.5-1.443,2.5-1.444Z"/>
    <path class="cls-6" d="M179.926,158.772l-2.5,1.443-2.5-1.443,2.5-1.443Z"/>
    <path class="cls-6" d="M155,173.206l-2.5,1.443-2.5-1.443,2.5-1.443Z"/>
    <path class="cls-6" d="M160.074,176.092l-2.5,1.443-2.5-1.443,2.5-1.443Z"/>
    <path class="cls-6" d="M249.9629,118.357l-2.5,1.443-2.5-1.443,2.5-1.444Z"/>
    <path class="cls-6" d="M225.0549,132.79l-2.5,1.444-2.5-1.444,2.5-1.443Z"/>
    <path class="cls-6" d="M199.9629,147.225l-2.5,1.443-2.5-1.443,2.5-1.444Z"/>
    <path class="cls-6" d="M174.9629,161.658l-2.5,1.443-2.5-1.443,2.5-1.443Z"/>
    <path class="cls-6" d="M149.926,176.092l-2.5,1.444-2.5-1.444,2.5-1.443Z"/>
    <path class="cls-6" d="M155,178.978l-2.5,1.444-2.5-1.444,2.5-1.443Z"/>
    <path class="cls-6" d="M159.9629,181.866l-2.5,1.443-2.5-1.443,2.5-1.444Z"/>
    <path class="cls-6" d="M140,181.866l-2.5,1.443-2.5-1.443,2.5-1.444Z"/>
    <path class="cls-6" d="M145,184.752l-2.5,1.443-2.5-1.443,2.5-1.444Z"/>
    <path class="cls-6" d="M149.9629,187.639l-2.5,1.443-2.5-1.443,2.5-1.443Z"/>
    <path class="cls-6" d="M154.9629,190.526l-2.5,1.444-2.5-1.444,2.5-1.443Z"/>
    <path class="cls-6" d="M244.908,121.244l-2.5,1.443-2.5-1.443,2.5-1.444Z"/>
    <path class="cls-6" d="M220,135.678l-2.5,1.443-2.5-1.443,2.5-1.444Z"/>
    <path class="cls-6" d="M194.908,150.112l-2.5,1.443-2.5-1.443,2.5-1.444Z"/>
    <path class="cls-6" d="M170,164.545l-2.5,1.443-2.5-1.443,2.5-1.443Z"/>
    <path class="cls-6" d="M145,178.979l-2.5,1.443-2.5-1.443,2.5-1.444Z"/>
    <path class="cls-6" d="M149.926,181.865l-2.5,1.443-2.5-1.443,2.5-1.443Z"/>
    <path class="cls-6" d="M154.9629,184.752l-2.5,1.444-2.5-1.444,2.5-1.443Z"/>
    <path class="cls-6" d="M159.9629,187.639l-2.5,1.443-2.5-1.443,2.5-1.443Z"/>
    <path class="cls-6" d="M160,193.413l-2.5,1.443-2.5-1.443,2.5-1.444Z"/>
    <path class="cls-6" d="M154.9629,196.299l-2.5,1.444-2.5-1.444,2.5-1.443Z"/>
    <path class="cls-6" d="M159.926,199.186l-2.5,1.443-2.5-1.443,2.5-1.443Z"/>
    <path class="cls-6" d="M134.9629,184.752l-2.5,1.443-2.5-1.443,2.5-1.443Z"/>
    <path class="cls-6" d="M140,187.638l-2.5,1.444-2.5-1.444,2.5-1.443Z"/>
    <path class="cls-6" d="M144.9629,190.525l-2.5,1.444-2.5-1.444,2.5-1.443Z"/>
    <path class="cls-6" d="M149.9629,193.413l-2.5,1.443-2.5-1.443,2.5-1.444Z"/>
    <path class="cls-6" d="M274.9629,115.47l-2.5,1.444-2.5-1.444,2.5-1.443Z"/>
    <path class="cls-6" d="M285,121.244l-2.5,1.443-2.5-1.443,2.5-1.444Z"/>
    <path class="cls-6" d="M264.926,98.15l-2.5,1.443-2.5-1.443,2.5-1.444Z"/>
    <path class="cls-6" d="M180,51.962l-2.5,1.443L175,51.962l2.5-1.444Z"/>
    <path class="cls-6" d="M185,54.848l-2.5,1.444L180,54.848l2.5-1.443Z"/>
    <path class="cls-6" d="M190.074,57.735l-2.5,1.444-2.5-1.444,2.5-1.443Z"/>
    <path class="cls-6" d="M195,60.622l-2.5,1.443L190,60.622l2.5-1.443Z"/>
    <path class="cls-6" d="M200,63.509l-2.5,1.443L195,63.509l2.5-1.444Z"/>
    <path class="cls-6" d="M205,66.395l-2.5,1.444L200,66.395l2.5-1.443Z"/>
    <path class="cls-6" d="M210,69.282l-2.5,1.444L205,69.282l2.5-1.443Z"/>
    <path class="cls-6" d="M215,72.169l-2.5,1.443L210,72.169l2.5-1.443Z"/>
    <path class="cls-6" d="M220,75.056l-2.5,1.443L215,75.056l2.5-1.444Z"/>
    <path class="cls-6" d="M225,77.943l-2.5,1.443L220,77.943l2.5-1.444Z"/>
    <path class="cls-6" d="M230.0371,80.829l-2.5,1.444-2.5-1.444,2.5-1.443Z"/>
    <path class="cls-6" d="M235.074,83.716l-2.5,1.443-2.5-1.443,2.5-1.443Z"/>
    <path class="cls-6" d="M240,86.603l-2.5,1.443L235,86.603l2.5-1.444Z"/>
    <path class="cls-6" d="M245,89.49l-2.5,1.443L240,89.49l2.5-1.444Z"/>
    <path class="cls-6" d="M250,92.376l-2.5,1.444L245,92.376l2.5-1.443Z"/>
    <path class="cls-6" d="M255,95.263l-2.5,1.443L250,95.263l2.5-1.443Z"/>
    <path class="cls-6" d="M260,98.15l-2.5,1.443L255,98.15l2.5-1.444Z"/>
    <path class="cls-6" d="M259.926,101.037l-2.5,1.443-2.5-1.443,2.5-1.444Z"/>
    <path class="cls-6" d="M175,51.962l-2.5,1.443L170,51.962l2.5-1.444Z"/>
    <path class="cls-6" d="M165,51.962l-2.5,1.443L160,51.962l2.5-1.444Z"/>
    <path class="cls-6" d="M170,51.962l-2.5,1.443L165,51.962l2.5-1.444Z"/>
    <path class="cls-6" d="M170,54.849l-2.5,1.443L165,54.849l2.5-1.444Z"/>
    <path class="cls-6" d="M164.926,54.849l-2.5,1.443-2.5-1.443,2.5-1.444Z"/>
    <path class="cls-6" d="M160,57.735l-2.5,1.444L155,57.735l2.5-1.443Z"/>
    <path class="cls-6" d="M155,60.622l-2.5,1.443L150,60.622l2.5-1.443Z"/>
    <path class="cls-6" d="M149.8889,63.509l-2.5,1.443-2.5-1.443,2.5-1.444Z"/>
    <path class="cls-6" d="M144.926,66.396l-2.5,1.443-2.5-1.443,2.5-1.444Z"/>
    <path class="cls-6" d="M139.926,69.282l-2.5,1.444-2.5-1.444,2.5-1.443Z"/>
    <path class="cls-6" d="M134.926,72.169l-2.5,1.443-2.5-1.443,2.5-1.443Z"/>
    <path class="cls-6" d="M129.926,75.056l-2.5,1.443-2.5-1.443,2.5-1.444Z"/>
    <path class="cls-6" d="M124.8889,77.942l-2.5,1.444-2.5-1.444,2.5-1.443Z"/>
    <path class="cls-6" d="M119.926,80.829l-2.5,1.444-2.5-1.444,2.5-1.443Z"/>
    <path class="cls-6" d="M114.9629,83.716l-2.5,1.443-2.5-1.443,2.5-1.443Z"/>
    <path class="cls-6" d="M110,86.603l-2.5,1.443L105,86.603l2.5-1.444Z"/>
    <path class="cls-6" d="M104.9629,89.489l-2.5,1.444-2.5-1.444,2.5-1.443Z"/>
    <path class="cls-6" d="M99.926,92.376l-2.5,1.444-2.5-1.444,2.5-1.443Z"/>
    <path class="cls-6" d="M94.926,95.263l-2.5,1.443-2.5-1.443,2.5-1.443Z"/>
    <path class="cls-6" d="M89.8889,98.15l-2.5,1.443-2.5-1.443,2.5-1.444Z"/>
    <path class="cls-6" d="M85,101.037l-2.5,1.443L80,101.037l2.5-1.444Z"/>
    <path class="cls-6" d="M79.9629,103.923l-2.5,1.444-2.5-1.444,2.5-1.443Z"/>
    <path class="cls-6" d="M75,106.81l-2.5,1.443L70,106.81l2.5-1.443Z"/>
    <path class="cls-6" d="M69.9629,109.697l-2.5,1.443-2.5-1.443,2.5-1.444Z"/>
    <path class="cls-6" d="M64.926,112.583l-2.5,1.444-2.5-1.444,2.5-1.443Z"/>
    <path class="cls-6" d="M59.8889,115.47l-2.5,1.444-2.5-1.444,2.5-1.443Z"/>
    <path class="cls-6" d="M54.926,118.357l-2.5,1.443-2.5-1.443,2.5-1.443Z"/>
    <path class="cls-6" d="M159.926,54.849l-2.5,1.443-2.5-1.443,2.5-1.444Z"/>
    <path class="cls-6" d="M155,57.735l-2.5,1.444L150,57.735l2.5-1.443Z"/>
    <path class="cls-6" d="M150,60.622l-2.5,1.443L145,60.622l2.5-1.443Z"/>
    <path class="cls-6" d="M144.8889,63.509l-2.5,1.443-2.5-1.443,2.5-1.444Z"/>
    <path class="cls-6" d="M139.926,66.396l-2.5,1.443-2.5-1.443,2.5-1.444Z"/>
    <path class="cls-6" d="M134.926,69.282l-2.5,1.444-2.5-1.444,2.5-1.443Z"/>
    <path class="cls-6" d="M129.926,72.169l-2.5,1.443-2.5-1.443,2.5-1.443Z"/>
    <path class="cls-6" d="M124.926,75.056l-2.5,1.443-2.5-1.443,2.5-1.444Z"/>
    <path class="cls-6" d="M119.8889,77.942l-2.5,1.444-2.5-1.444,2.5-1.443Z"/>
    <path class="cls-6" d="M114.926,80.829l-2.5,1.444-2.5-1.444,2.5-1.443Z"/>
    <path class="cls-6" d="M109.9629,83.716l-2.5,1.443-2.5-1.443,2.5-1.444Z"/>
    <path class="cls-6" d="M99.9629,89.489l-2.5,1.444-2.5-1.444,2.5-1.443Z"/>
    <path class="cls-6" d="M94.926,92.376l-2.5,1.444-2.5-1.444,2.5-1.443Z"/>
    <path class="cls-6" d="M89.926,95.263l-2.5,1.443-2.5-1.443,2.5-1.443Z"/>
    <path class="cls-6" d="M84.8889,98.15l-2.5,1.443-2.5-1.443,2.5-1.444Z"/>
    <path class="cls-6" d="M80,101.037l-2.5,1.443L75,101.037l2.5-1.444Z"/>
    <path class="cls-6" d="M74.9629,103.923l-2.5,1.444-2.5-1.444,2.5-1.443Z"/>
    <path class="cls-6" d="M70,106.81l-2.5,1.443L65,106.81l2.5-1.443Z"/>
    <path class="cls-6" d="M64.9629,109.697l-2.5,1.443-2.5-1.443,2.5-1.444Z"/>
    <path class="cls-6" d="M59.926,112.583l-2.5,1.444-2.5-1.444,2.5-1.443Z"/>
    <path class="cls-6" d="M54.8889,115.47l-2.5,1.444-2.5-1.444,2.5-1.443Z"/>
    <path class="cls-6" d="M49.926,118.357l-2.5,1.443-2.5-1.443,2.5-1.443Z"/>
    <path class="cls-6" d="M175,57.735l-2.5,1.444L170,57.735l2.5-1.443Z"/>
    <path class="cls-6" d="M169.926,57.735l-2.5,1.444-2.5-1.444,2.5-1.443Z"/>
    <path class="cls-6" d="M165,60.622l-2.5,1.443L160,60.622l2.5-1.443Z"/>
    <path class="cls-6" d="M160,63.509l-2.5,1.443L155,63.509l2.5-1.444Z"/>
    <path class="cls-6" d="M154.8889,66.395l-2.5,1.444-2.5-1.444,2.5-1.443Z"/>
    <path class="cls-6" d="M149.926,69.282l-2.5,1.444-2.5-1.444,2.5-1.443Z"/>
    <path class="cls-6" d="M144.926,72.169l-2.5,1.443-2.5-1.443,2.5-1.443Z"/>
    <path class="cls-6" d="M139.926,75.056l-2.5,1.443-2.5-1.443,2.5-1.444Z"/>
    <path class="cls-6" d="M134.926,77.943l-2.5,1.443-2.5-1.443,2.5-1.444Z"/>
    <path class="cls-6" d="M129.8889,80.829l-2.5,1.444-2.5-1.444,2.5-1.443Z"/>
    <path class="cls-6" d="M124.926,83.716l-2.5,1.443-2.5-1.443,2.5-1.443Z"/>
    <path class="cls-6" d="M119.9629,86.603l-2.5,1.443-2.5-1.443,2.5-1.444Z"/>
    <path class="cls-6" d="M115,89.49l-2.5,1.443L110,89.49l2.5-1.444Z"/>
    <path class="cls-6" d="M109.9629,92.376l-2.5,1.443-2.5-1.443,2.5-1.443Z"/>
    <path class="cls-6" d="M104.926,95.263l-2.5,1.443-2.5-1.443,2.5-1.443Z"/>
    <path class="cls-6" d="M99.926,98.15l-2.5,1.443-2.5-1.443,2.5-1.444Z"/>
    <path class="cls-6" d="M94.8889,101.037l-2.5,1.443-2.5-1.443,2.5-1.444Z"/>
    <path class="cls-6" d="M90,103.923l-2.5,1.444L85,103.923l2.5-1.443Z"/>
    <path class="cls-6" d="M84.9629,106.81l-2.5,1.443-2.5-1.443,2.5-1.443Z"/>
    <path class="cls-6" d="M80,109.697l-2.5,1.443L75,109.697l2.5-1.444Z"/>
    <path class="cls-6" d="M74.9629,112.584l-2.5,1.443-2.5-1.443,2.5-1.444Z"/>
    <path class="cls-6" d="M69.926,115.47l-2.5,1.444-2.5-1.444,2.5-1.443Z"/>
    <path class="cls-6" d="M64.8889,118.357l-2.5,1.443-2.5-1.443,2.5-1.443Z"/>
    <path class="cls-6" d="M59.926,121.244l-2.5,1.443-2.5-1.443,2.5-1.444Z"/>
    <path class="cls-6" d="M164.926,57.735l-2.5,1.444-2.5-1.444,2.5-1.443Z"/>
    <path class="cls-6" d="M160,60.622l-2.5,1.443L155,60.622l2.5-1.443Z"/>
    <path class="cls-6" d="M155,63.509l-2.5,1.443L150,63.509l2.5-1.444Z"/>
    <path class="cls-6" d="M149.8889,66.395l-2.5,1.444-2.5-1.444,2.5-1.443Z"/>
    <path class="cls-6" d="M144.926,69.282l-2.5,1.444-2.5-1.444,2.5-1.443Z"/>
    <path class="cls-6" d="M139.926,72.169l-2.5,1.443-2.5-1.443,2.5-1.443Z"/>
    <path class="cls-6" d="M134.926,75.056l-2.5,1.443-2.5-1.443,2.5-1.444Z"/>
    <path class="cls-6" d="M129.926,77.943l-2.5,1.443-2.5-1.443,2.5-1.444Z"/>
    <path class="cls-6" d="M124.8889,80.829l-2.5,1.444-2.5-1.444,2.5-1.443Z"/>
    <path class="cls-6" d="M119.926,83.716l-2.5,1.443-2.5-1.443,2.5-1.443Z"/>
    <path class="cls-6" d="M114.9629,86.603l-2.5,1.443-2.5-1.443,2.5-1.444Z"/>
    <path class="cls-6" d="M110,89.49l-2.5,1.443L105,89.49l2.5-1.444Z"/>
    <path class="cls-6" d="M104.9629,92.376l-2.5,1.443-2.5-1.443,2.5-1.443Z"/>
    <path class="cls-6" d="M99.926,95.263l-2.5,1.443-2.5-1.443,2.5-1.443Z"/>
    <path class="cls-6" d="M94.926,98.15l-2.5,1.443-2.5-1.443,2.5-1.444Z"/>
    <path class="cls-6" d="M89.8889,101.037l-2.5,1.443-2.5-1.443,2.5-1.444Z"/>
    <path class="cls-6" d="M85,103.923l-2.5,1.444L80,103.923l2.5-1.443Z"/>
    <path class="cls-6" d="M79.9629,106.81l-2.5,1.443-2.5-1.443,2.5-1.443Z"/>
    <path class="cls-6" d="M75,109.697l-2.5,1.443L70,109.697l2.5-1.444Z"/>
    <path class="cls-6" d="M69.9629,112.584l-2.5,1.443-2.5-1.443,2.5-1.444Z"/>
    <path class="cls-6" d="M64.926,115.47l-2.5,1.444-2.5-1.444,2.5-1.443Z"/>
    <path class="cls-6" d="M59.8889,118.357l-2.5,1.443-2.5-1.443,2.5-1.443Z"/>
    <path class="cls-6" d="M54.926,121.244l-2.5,1.443-2.5-1.443,2.5-1.444Z"/>
    <path class="cls-6" d="M180,57.735l-2.5,1.444L175,57.735l2.5-1.443Z"/>
    <path class="cls-6" d="M180,60.622l-2.5,1.443L175,60.622l2.5-1.443Z"/>
    <path class="cls-6" d="M174.9629,63.509l-2.5,1.443-2.5-1.443,2.5-1.444Z"/>
    <path class="cls-6" d="M170.0371,66.395l-2.5,1.444-2.5-1.444,2.5-1.443Z"/>
    <path class="cls-6" d="M165.0371,69.282l-2.5,1.444-2.5-1.444,2.5-1.443Z"/>
    <path class="cls-6" d="M159.926,72.169l-2.5,1.443-2.5-1.443,2.5-1.443Z"/>
    <path class="cls-6" d="M154.9629,75.056l-2.5,1.443-2.5-1.443,2.5-1.444Z"/>
    <path class="cls-6" d="M149.9629,77.943l-2.5,1.443-2.5-1.443,2.5-1.444Z"/>
    <path class="cls-6" d="M144.9629,80.829l-2.5,1.444-2.5-1.444,2.5-1.443Z"/>
    <path class="cls-6" d="M139.9629,83.716l-2.5,1.443-2.5-1.443,2.5-1.443Z"/>
    <path class="cls-6" d="M134.926,86.603l-2.5,1.443-2.5-1.443,2.5-1.444Z"/>
    <path class="cls-6" d="M129.9629,89.49l-2.5,1.443-2.5-1.443,2.5-1.444Z"/>
    <path class="cls-6" d="M125,92.376l-2.5,1.444L120,92.376l2.5-1.443Z"/>
    <path class="cls-6" d="M120.0371,95.263l-2.5,1.443-2.5-1.443,2.5-1.443Z"/>
    <path class="cls-6" d="M115,98.15l-2.5,1.443L110,98.15l2.5-1.444Z"/>
    <path class="cls-6" d="M109.9629,101.037l-2.5,1.443-2.5-1.443,2.5-1.444Z"/>
    <path class="cls-6" d="M104.9629,103.923l-2.5,1.444-2.5-1.444,2.5-1.443Z"/>
    <path class="cls-6" d="M99.926,106.81l-2.5,1.443-2.5-1.443,2.5-1.443Z"/>
    <path class="cls-6" d="M95.0371,109.697l-2.5,1.443-2.5-1.443,2.5-1.444Z"/>
    <path class="cls-6" d="M90,112.584l-2.5,1.443L85,112.584l2.5-1.444Z"/>
    <path class="cls-6" d="M85.0371,115.47l-2.5,1.444-2.5-1.444,2.5-1.443Z"/>
    <path class="cls-6" d="M80,118.357,77.5,119.8,75,118.357l2.5-1.443Z"/>
    <path class="cls-6" d="M74.9629,121.244l-2.5,1.443-2.5-1.443,2.5-1.444Z"/>
    <path class="cls-6" d="M69.926,124.131l-2.5,1.443-2.5-1.443,2.5-1.444Z"/>
    <path class="cls-6" d="M64.9629,127.017l-2.5,1.444-2.5-1.444,2.5-1.443Z"/>
    <path class="cls-6" d="M174.926,60.622l-2.5,1.443-2.5-1.443,2.5-1.443Z"/>
    <path class="cls-6" d="M170,63.509l-2.5,1.443L165,63.509l2.5-1.444Z"/>
    <path class="cls-6" d="M165,66.396l-2.5,1.443L160,66.396l2.5-1.444Z"/>
    <path class="cls-6" d="M159.8889,69.282l-2.5,1.444-2.5-1.444,2.5-1.443Z"/>
    <path class="cls-6" d="M154.926,72.169l-2.5,1.443-2.5-1.443,2.5-1.443Z"/>
    <path class="cls-6" d="M149.926,75.056l-2.5,1.443-2.5-1.443,2.5-1.444Z"/>
    <path class="cls-6" d="M144.926,77.942l-2.5,1.444-2.5-1.444,2.5-1.443Z"/>
    <path class="cls-6" d="M139.926,80.829l-2.5,1.444-2.5-1.444,2.5-1.443Z"/>
    <path class="cls-6" d="M134.8889,83.716l-2.5,1.443-2.5-1.443,2.5-1.443Z"/>
    <path class="cls-6" d="M129.926,86.603l-2.5,1.443-2.5-1.443,2.5-1.444Z"/>
    <path class="cls-6" d="M124.9629,89.489l-2.5,1.444-2.5-1.444,2.5-1.443Z"/>
    <path class="cls-6" d="M120,92.376l-2.5,1.444L115,92.376l2.5-1.443Z"/>
    <path class="cls-6" d="M114.9629,95.263l-2.5,1.443-2.5-1.443,2.5-1.444Z"/>
    <path class="cls-6" d="M109.926,98.15l-2.5,1.443-2.5-1.443,2.5-1.444Z"/>
    <path class="cls-6" d="M104.926,101.037l-2.5,1.443-2.5-1.443,2.5-1.444Z"/>
    <path class="cls-6" d="M99.8889,103.923l-2.5,1.444-2.5-1.444,2.5-1.443Z"/>
    <path class="cls-6" d="M95,106.81l-2.5,1.443L90,106.81l2.5-1.443Z"/>
    <path class="cls-6" d="M89.9629,109.697l-2.5,1.443-2.5-1.443,2.5-1.444Z"/>
    <path class="cls-6" d="M85,112.584l-2.5,1.443L80,112.584l2.5-1.444Z"/>
    <path class="cls-6" d="M79.9629,115.47l-2.5,1.444-2.5-1.444,2.5-1.443Z"/>
    <path class="cls-6" d="M74.926,118.357l-2.5,1.443-2.5-1.443,2.5-1.443Z"/>
    <path class="cls-6" d="M69.8889,121.244l-2.5,1.443-2.5-1.443,2.5-1.444Z"/>
    <path class="cls-6" d="M64.926,124.131l-2.5,1.443-2.5-1.443,2.5-1.444Z"/>
    <path class="cls-6" d="M169.926,60.622l-2.5,1.443-2.5-1.443,2.5-1.443Z"/>
    <path class="cls-6" d="M165,63.509l-2.5,1.443L160,63.509l2.5-1.444Z"/>
    <path class="cls-6" d="M160,66.395l-2.5,1.444L155,66.395l2.5-1.443Z"/>
    <path class="cls-6" d="M154.8889,69.282l-2.5,1.444-2.5-1.444,2.5-1.443Z"/>
    <path class="cls-6" d="M149.926,72.169l-2.5,1.443-2.5-1.443,2.5-1.443Z"/>
    <path class="cls-6" d="M144.926,75.056l-2.5,1.443-2.5-1.443,2.5-1.444Z"/>
    <path class="cls-6" d="M139.926,77.942l-2.5,1.444-2.5-1.444,2.5-1.443Z"/>
    <path class="cls-6" d="M134.926,80.829l-2.5,1.444-2.5-1.444,2.5-1.443Z"/>
    <path class="cls-6" d="M129.8889,83.716l-2.5,1.443-2.5-1.443,2.5-1.444Z"/>
    <path class="cls-6" d="M124.926,86.603l-2.5,1.443-2.5-1.443,2.5-1.444Z"/>
    <path class="cls-6" d="M119.9629,89.489l-2.5,1.444-2.5-1.444,2.5-1.443Z"/>
    <path class="cls-6" d="M115,92.376l-2.5,1.444L110,92.376l2.5-1.443Z"/>
    <path class="cls-6" d="M109.9629,95.263l-2.5,1.443-2.5-1.443,2.5-1.444Z"/>
    <path class="cls-6" d="M104.926,98.15l-2.5,1.443-2.5-1.443,2.5-1.444Z"/>
    <path class="cls-6" d="M99.926,101.037l-2.5,1.443-2.5-1.443,2.5-1.444Z"/>
    <path class="cls-6" d="M94.8889,103.923l-2.5,1.444-2.5-1.444,2.5-1.443Z"/>
    <path class="cls-6" d="M90,106.81l-2.5,1.443L85,106.81l2.5-1.443Z"/>
    <path class="cls-6" d="M84.9629,109.697l-2.5,1.443-2.5-1.443,2.5-1.444Z"/>
    <path class="cls-6" d="M80,112.584l-2.5,1.443L75,112.584l2.5-1.444Z"/>
    <path class="cls-6" d="M74.9629,115.47l-2.5,1.444-2.5-1.444,2.5-1.443Z"/>
    <path class="cls-6" d="M69.926,118.357l-2.5,1.443-2.5-1.443,2.5-1.443Z"/>
    <path class="cls-6" d="M64.8889,121.244l-2.5,1.443-2.5-1.443,2.5-1.444Z"/>
    <path class="cls-6" d="M59.926,124.131l-2.5,1.443-2.5-1.443,2.5-1.444Z"/>
    <path class="cls-6" d="M185,60.622l-2.5,1.443L180,60.622l2.5-1.443Z"/>
    <path class="cls-6" d="M190,63.509l-2.5,1.443L185,63.509l2.5-1.444Z"/>
    <path class="cls-6" d="M185,63.509l-2.5,1.443L180,63.509l2.5-1.444Z"/>
    <path class="cls-6" d="M190,66.396l-2.5,1.443L185,66.396l2.5-1.444Z"/>
    <path class="cls-6" d="M195,66.395l-2.5,1.444L190,66.395l2.5-1.443Z"/>
    <path class="cls-6" d="M195,69.282l-2.5,1.444L190,69.282l2.5-1.443Z"/>
    <path class="cls-6" d="M200,72.169l-2.5,1.443L195,72.169l2.5-1.443Z"/>
    <path class="cls-6" d="M200,69.282l-2.5,1.444L195,69.282l2.5-1.443Z"/>
    <path class="cls-6" d="M205,72.169l-2.5,1.443L200,72.169l2.5-1.443Z"/>
    <path class="cls-6" d="M205,75.056l-2.5,1.443L200,75.056l2.5-1.444Z"/>
    <path class="cls-6" d="M210,77.943l-2.5,1.443L205,77.943l2.5-1.444Z"/>
    <path class="cls-6" d="M215,80.829l-2.5,1.444L210,80.829l2.5-1.443Z"/>
    <path class="cls-6" d="M220,83.716l-2.5,1.443L215,83.716l2.5-1.443Z"/>
    <path class="cls-6" d="M225,86.603l-2.5,1.443L220,86.603l2.5-1.444Z"/>
    <path class="cls-6" d="M210,75.056l-2.5,1.443L205,75.056l2.5-1.444Z"/>
    <path class="cls-6" d="M215,77.942l-2.5,1.444L210,77.942l2.5-1.443Z"/>
    <path class="cls-6" d="M220,80.829l-2.5,1.444L215,80.829l2.5-1.443Z"/>
    <path class="cls-6" d="M225,83.716l-2.5,1.443L220,83.716l2.5-1.443Z"/>
    <path class="cls-6" d="M230.0371,86.603l-2.5,1.443-2.5-1.443,2.5-1.444Z"/>
    <path class="cls-6" d="M235,89.489l-2.5,1.444L230,89.489l2.5-1.443Z"/>
    <path class="cls-6" d="M240,92.376l-2.5,1.444L235,92.376l2.5-1.443Z"/>
    <path class="cls-6" d="M245,95.263l-2.5,1.443L240,95.263l2.5-1.443Z"/>
    <path class="cls-6" d="M240,98.15l-2.5,1.443L235,98.15l2.5-1.444Z"/>
    <path class="cls-6" d="M235,101.037l-2.5,1.443-2.5-1.443,2.5-1.444Z"/>
    <path class="cls-6" d="M230,103.923l-2.5,1.444-2.5-1.444,2.5-1.443Z"/>
    <path class="cls-6" d="M225,106.81l-2.5,1.443L220,106.81l2.5-1.443Z"/>
    <path class="cls-6" d="M220,109.697l-2.5,1.443-2.5-1.443,2.5-1.444Z"/>
    <path class="cls-6" d="M215,112.584l-2.5,1.443-2.5-1.443,2.5-1.444Z"/>
    <path class="cls-6" d="M210,115.47l-2.5,1.444L205,115.47l2.5-1.443Z"/>
    <path class="cls-6" d="M205,118.357l-2.5,1.443-2.5-1.443,2.5-1.443Z"/>
    <path class="cls-6" d="M195,124.13l-2.5,1.444L190,124.13l2.5-1.443Z"/>
    <path class="cls-6" d="M185,129.904l-2.5,1.443-2.5-1.443,2.5-1.443Z"/>
    <path class="cls-6" d="M175,135.678l-2.5,1.443-2.5-1.443,2.5-1.444Z"/>
    <path class="cls-6" d="M165,141.451l-2.5,1.443-2.5-1.443,2.5-1.443Z"/>
    <path class="cls-6" d="M155,147.225l-2.5,1.443-2.5-1.443,2.5-1.444Z"/>
    <path class="cls-6" d="M145,152.998l-2.5,1.443-2.5-1.443,2.5-1.443Z"/>
    <path class="cls-6" d="M135,158.772l-2.5,1.443-2.5-1.443,2.5-1.444Z"/>
    <path class="cls-6" d="M125,164.545l-2.5,1.443-2.5-1.443,2.5-1.443Z"/>
    <path class="cls-6" d="M200,121.244l-2.5,1.443-2.5-1.443,2.5-1.444Z"/>
    <path class="cls-6" d="M190,127.017l-2.5,1.444-2.5-1.444,2.5-1.443Z"/>
    <path class="cls-6" d="M180,132.791l-2.5,1.443-2.5-1.443,2.5-1.444Z"/>
    <path class="cls-6" d="M170,138.564l-2.5,1.444-2.5-1.444,2.5-1.443Z"/>
    <path class="cls-6" d="M160,144.338l-2.5,1.443-2.5-1.443,2.5-1.444Z"/>
    <path class="cls-6" d="M150,150.111l-2.5,1.444-2.5-1.444,2.5-1.443Z"/>
    <path class="cls-6" d="M140,155.885l-2.5,1.443-2.5-1.443,2.5-1.444Z"/>
    <path class="cls-6" d="M130,161.658l-2.5,1.444-2.5-1.444,2.5-1.443Z"/>
    <path class="cls-6" d="M120,167.432l-2.5,1.443-2.5-1.443,2.5-1.444Z"/>
    <path class="cls-6" d="M250,98.15l-2.5,1.443L245,98.15l2.5-1.444Z"/>
    <path class="cls-6" d="M245,101.037l-2.5,1.443-2.5-1.443,2.5-1.444Z"/>
    <path class="cls-6" d="M240,103.923l-2.5,1.444-2.5-1.444,2.5-1.443Z"/>
    <path class="cls-6" d="M235,106.81l-2.5,1.443L230,106.81l2.5-1.443Z"/>
    <path class="cls-6" d="M230,109.697l-2.5,1.443-2.5-1.443,2.5-1.444Z"/>
    <path class="cls-6" d="M225,112.584l-2.5,1.443-2.5-1.443,2.5-1.444Z"/>
    <path class="cls-6" d="M220,115.47l-2.5,1.444L215,115.47l2.5-1.443Z"/>
    <path class="cls-6" d="M215,118.357l-2.5,1.443-2.5-1.443,2.5-1.443Z"/>
    <path class="cls-6" d="M210,121.244l-2.5,1.443-2.5-1.443,2.5-1.444Z"/>
    <path class="cls-6" d="M200,127.017l-2.5,1.444-2.5-1.444,2.5-1.443Z"/>
    <path class="cls-6" d="M190,132.791l-2.5,1.443-2.5-1.443,2.5-1.444Z"/>
    <path class="cls-6" d="M180,138.564l-2.5,1.444-2.5-1.444,2.5-1.443Z"/>
    <path class="cls-6" d="M170,144.338l-2.5,1.443-2.5-1.443,2.5-1.444Z"/>
    <path class="cls-6" d="M160,150.111l-2.5,1.444-2.5-1.444,2.5-1.443Z"/>
    <path class="cls-6" d="M150,155.885l-2.5,1.443-2.5-1.443,2.5-1.444Z"/>
    <path class="cls-6" d="M140,161.658l-2.5,1.444-2.5-1.444,2.5-1.443Z"/>
    <path class="cls-6" d="M130,167.432l-2.5,1.443-2.5-1.443,2.5-1.444Z"/>
    <path class="cls-6" d="M205,124.131l-2.5,1.443-2.5-1.443,2.5-1.444Z"/>
    <path class="cls-6" d="M195,129.904l-2.5,1.443-2.5-1.443,2.5-1.443Z"/>
    <path class="cls-6" d="M185,135.678l-2.5,1.443-2.5-1.443,2.5-1.444Z"/>
    <path class="cls-6" d="M175,141.451l-2.5,1.443-2.5-1.443,2.5-1.443Z"/>
    <path class="cls-6" d="M165,147.225l-2.5,1.443-2.5-1.443,2.5-1.444Z"/>
    <path class="cls-6" d="M155,152.998l-2.5,1.443-2.5-1.443,2.5-1.443Z"/>
    <path class="cls-6" d="M145,158.772l-2.5,1.443-2.5-1.443,2.5-1.444Z"/>
    <path class="cls-6" d="M135,164.545l-2.5,1.443-2.5-1.443,2.5-1.443Z"/>
    <path class="cls-6" d="M125,170.319l-2.5,1.443-2.5-1.443,2.5-1.444Z"/>
    <path class="cls-6" d="M120,173.205l-2.5,1.444-2.5-1.444,2.5-1.443Z"/>
    <path class="cls-6" d="M255,101.037l-2.5,1.443-2.5-1.443,2.5-1.444Z"/>
    <path class="cls-6" d="M250,103.923l-2.5,1.444-2.5-1.444,2.5-1.443Z"/>
    <path class="cls-6" d="M245,106.81l-2.5,1.443L240,106.81l2.5-1.443Z"/>
    <path class="cls-6" d="M240,109.697l-2.5,1.443-2.5-1.443,2.5-1.444Z"/>
    <path class="cls-6" d="M235,112.584l-2.5,1.443-2.5-1.443,2.5-1.444Z"/>
    <path class="cls-6" d="M230,115.47l-2.5,1.444L225,115.47l2.5-1.443Z"/>
    <path class="cls-6" d="M225,118.357l-2.5,1.443-2.5-1.443,2.5-1.443Z"/>
    <path class="cls-6" d="M220,121.244l-2.5,1.443-2.5-1.443,2.5-1.444Z"/>
    <path class="cls-6" d="M215,124.13l-2.5,1.444L210,124.13l2.5-1.443Z"/>
    <path class="cls-6" d="M205,129.904l-2.5,1.443-2.5-1.443,2.5-1.443Z"/>
    <path class="cls-6" d="M195,135.678l-2.5,1.443-2.5-1.443,2.5-1.444Z"/>
    <path class="cls-6" d="M185,141.451l-2.5,1.443-2.5-1.443,2.5-1.443Z"/>
    <path class="cls-6" d="M175,147.225l-2.5,1.443-2.5-1.443,2.5-1.444Z"/>
    <path class="cls-6" d="M165,152.998l-2.5,1.443-2.5-1.443,2.5-1.443Z"/>
    <path class="cls-6" d="M155,158.772l-2.5,1.443-2.5-1.443,2.5-1.444Z"/>
    <path class="cls-6" d="M145,164.545l-2.5,1.443-2.5-1.443,2.5-1.443Z"/>
    <path class="cls-6" d="M135,170.319l-2.5,1.443-2.5-1.443,2.5-1.444Z"/>
    <path class="cls-6" d="M210,127.017l-2.5,1.444-2.5-1.444,2.5-1.443Z"/>
    <path class="cls-6" d="M200,132.791l-2.5,1.443-2.5-1.443,2.5-1.444Z"/>
    <path class="cls-6" d="M190,138.564l-2.5,1.444-2.5-1.444,2.5-1.443Z"/>
    <path class="cls-6" d="M180,144.338l-2.5,1.443-2.5-1.443,2.5-1.444Z"/>
    <path class="cls-6" d="M170,150.111l-2.5,1.444-2.5-1.444,2.5-1.443Z"/>
    <path class="cls-6" d="M160,155.885l-2.5,1.443-2.5-1.443,2.5-1.444Z"/>
    <path class="cls-6" d="M150,161.658l-2.5,1.444-2.5-1.444,2.5-1.443Z"/>
    <path class="cls-6" d="M140,167.432l-2.5,1.443-2.5-1.443,2.5-1.444Z"/>
    <path class="cls-6" d="M130,173.205l-2.5,1.444-2.5-1.444,2.5-1.443Z"/>
    <path class="cls-6" d="M125,176.092l-2.5,1.443-2.5-1.443,2.5-1.443Z"/>
    <path class="cls-6" d="M120,176.092l-2.5,1.443-2.5-1.443,2.5-1.443Z"/>
    <path class="cls-6" d="M115,173.205l-2.5,1.444-2.5-1.444,2.5-1.443Z"/>
    <path class="cls-6" d="M110,170.319l-2.5,1.443-2.5-1.443,2.5-1.444Z"/>
    <path class="cls-6" d="M105,167.432l-2.5,1.443-2.5-1.443,2.5-1.444Z"/>
    <path class="cls-6" d="M100,164.545l-2.5,1.443L95,164.545l2.5-1.443Z"/>
    <path class="cls-6" d="M95,161.658l-2.5,1.444L90,161.658l2.5-1.443Z"/>
    <path class="cls-6" d="M90,158.772l-2.5,1.443L85,158.772l2.5-1.444Z"/>
    <path class="cls-6" d="M85,155.885l-2.5,1.443L80,155.885l2.5-1.444Z"/>
    <path class="cls-6" d="M80,152.998l-2.5,1.443L75,152.998l2.5-1.443Z"/>
    <path class="cls-6" d="M75,150.111l-2.5,1.444L70,150.111l2.5-1.443Z"/>
    <path class="cls-6" d="M70,147.225l-2.5,1.443L65,147.225l2.5-1.444Z"/>
    <path class="cls-6" d="M65,144.338l-2.5,1.443L60,144.338l2.5-1.444Z"/>
    <path class="cls-6" d="M60,141.451l-2.5,1.443L55,141.451l2.5-1.443Z"/>
    <path class="cls-6" d="M55,138.564l-2.5,1.444L50,138.564l2.5-1.443Z"/>
    <path class="cls-6" d="M50,135.678l-2.5,1.443L45,135.678l2.5-1.444Z"/>
    <path class="cls-6" d="M45,132.791l-2.5,1.443L40,132.791l2.5-1.444Z"/>
    <path class="cls-6" d="M40,129.904l-2.5,1.443L35,129.904l2.5-1.443Z"/>
    <path class="cls-6" d="M35,127.017l-2.5,1.444L30,127.017l2.5-1.443Z"/>
    <path class="cls-6" d="M30,124.13l-2.5,1.444L25,124.13l2.5-1.443Z"/>
    <path class="cls-6" d="M25,121.244l-2.5,1.443L20,121.244l2.5-1.444Z"/>
    <path class="cls-6" d="M20,118.357,17.5,119.8,15,118.357l2.5-1.443Z"/>
    <path class="cls-6" d="M120,170.319l-2.5,1.443-2.5-1.443,2.5-1.444Z"/>
    <path class="cls-6" d="M120,164.545l-2.5,1.443-2.5-1.443,2.5-1.443Z"/>
    <path class="cls-6" d="M115,161.658l-2.5,1.444-2.5-1.444,2.5-1.443Z"/>
    <path class="cls-6" d="M110,158.772l-2.5,1.443-2.5-1.443,2.5-1.444Z"/>
    <path class="cls-6" d="M105,155.885l-2.5,1.443-2.5-1.443,2.5-1.444Z"/>
    <path class="cls-6" d="M100,152.998l-2.5,1.443L95,152.998l2.5-1.443Z"/>
    <path class="cls-6" d="M95,150.111l-2.5,1.444L90,150.111l2.5-1.443Z"/>
    <path class="cls-6" d="M90,147.225l-2.5,1.443L85,147.225l2.5-1.444Z"/>
    <path class="cls-6" d="M85,144.338l-2.5,1.443L80,144.338l2.5-1.444Z"/>
    <path class="cls-6" d="M80,141.451l-2.5,1.443L75,141.451l2.5-1.443Z"/>
    <path class="cls-6" d="M75,138.564l-2.5,1.444L70,138.564l2.5-1.443Z"/>
    <path class="cls-6" d="M70,135.678l-2.5,1.443L65,135.678l2.5-1.444Z"/>
    <path class="cls-6" d="M65,132.791l-2.5,1.443L60,132.791l2.5-1.444Z"/>
    <path class="cls-6" d="M60,129.904l-2.5,1.443L55,129.904l2.5-1.443Z"/>
    <path class="cls-6" d="M55,127.017l-2.5,1.444L50,127.017l2.5-1.443Z"/>
    <path class="cls-6" d="M50,124.131l-2.5,1.443L45,124.131l2.5-1.444Z"/>
    <path class="cls-6" d="M45,121.244l-2.5,1.443L40,121.244l2.5-1.444Z"/>
    <path class="cls-6" d="M40,118.357,37.5,119.8,35,118.357l2.5-1.443Z"/>
    <path class="cls-6" d="M45,115.47l-2.5,1.444L40,115.47l2.5-1.443Z"/>
    <path class="cls-6" d="M50,112.584l-2.5,1.443L45,112.584l2.5-1.444Z"/>
    <path class="cls-6" d="M60,106.81l-2.5,1.443L55,106.81l2.5-1.443Z"/>
    <path class="cls-6" d="M65,106.81l-2.5,1.443L60,106.81l2.5-1.443Z"/>
    <path class="cls-6" d="M65,103.923l-2.5,1.444L60,103.923l2.5-1.443Z"/>
    <path class="cls-6" d="M70,103.923l-2.5,1.444L65,103.923l2.5-1.443Z"/>
    <path class="cls-6" d="M70,101.036l-2.5,1.444L65,101.036l2.5-1.443Z"/>
    <path class="cls-6" d="M75,101.036l-2.5,1.444L70,101.036l2.5-1.443Z"/>
    <path class="cls-6" d="M75,98.15l-2.5,1.443L70,98.15l2.5-1.444Z"/>
    <path class="cls-6" d="M80,98.15l-2.5,1.443L75,98.15l2.5-1.444Z"/>
    <path class="cls-6" d="M80,95.263l-2.5,1.443L75,95.263l2.5-1.443Z"/>
    <path class="cls-6" d="M85,92.376,82.5,93.82,80,92.376l2.5-1.443Z"/>
    <path class="cls-6" d="M90,89.489l-2.5,1.444L85,89.489l2.5-1.443Z"/>
    <path class="cls-6" d="M90,86.603l-2.5,1.443L85,86.603l2.5-1.444Z"/>
    <path class="cls-6" d="M85,83.716l-2.5,1.443L80,83.716l2.5-1.443Z"/>
    <path class="cls-6" d="M95,89.49l-2.5,1.443L90,89.49l2.5-1.444Z"/>
    <path class="cls-6" d="M90,92.376,87.5,93.82,85,92.376l2.5-1.443Z"/>
    <path class="cls-6" d="M95,86.603l-2.5,1.443L90,86.603l2.5-1.444Z"/>
    <path class="cls-6" d="M60,109.697l-2.5,1.443L55,109.697l2.5-1.444Z"/>
    <path class="cls-6" d="M55,106.81l-2.5,1.443L50,106.81l2.5-1.443Z"/>
    <path class="cls-6" d="M50,103.923l-2.5,1.444L45,103.923l2.5-1.443Z"/>
    <path class="cls-6" d="M35,115.47l-2.5,1.444L30,115.47l2.5-1.443Z"/>
    <path class="cls-6" d="M40,112.583l-2.5,1.444L35,112.583l2.5-1.443Z"/>
    <path class="cls-6" d="M45,109.697l-2.5,1.443L40,109.697l2.5-1.444Z"/>
    <path class="cls-6" d="M55,103.923l-2.5,1.444L50,103.923l2.5-1.443Z"/>
    <path class="cls-6" d="M60,103.923l-2.5,1.444L55,103.923l2.5-1.443Z"/>
    <path class="cls-6" d="M60,101.036l-2.5,1.444L55,101.036l2.5-1.443Z"/>
    <path class="cls-6" d="M65,101.036l-2.5,1.444L60,101.036l2.5-1.443Z"/>
    <path class="cls-6" d="M65,98.15l-2.5,1.443L60,98.15l2.5-1.444Z"/>
    <path class="cls-6" d="M70,98.15l-2.5,1.443L65,98.15l2.5-1.444Z"/>
    <path class="cls-6" d="M70,95.263l-2.5,1.443L65,95.263l2.5-1.443Z"/>
    <path class="cls-6" d="M75,95.263l-2.5,1.443L70,95.263l2.5-1.443Z"/>
    <path class="cls-6" d="M75,92.376,72.5,93.82,70,92.376l2.5-1.443Z"/>
    <path class="cls-6" d="M80,89.49l-2.5,1.443L75,89.49l2.5-1.444Z"/>
    <path class="cls-6" d="M85,86.603l-2.5,1.443L80,86.603l2.5-1.444Z"/>
    <path class="cls-6" d="M90,83.716l-2.5,1.443L85,83.716l2.5-1.443Z"/>
    <path class="cls-6" d="M30,112.584l-2.5,1.443L25,112.584l2.5-1.444Z"/>
    <path class="cls-6" d="M35,109.697l-2.5,1.443L30,109.697l2.5-1.444Z"/>
    <path class="cls-6" d="M40,106.81l-2.5,1.443L35,106.81l2.5-1.443Z"/>
    <path class="cls-6" d="M50,101.037l-2.5,1.443L45,101.037l2.5-1.444Z"/>
    <path class="cls-6" d="M55,101.037l-2.5,1.443L50,101.037l2.5-1.444Z"/>
    <path class="cls-6" d="M55,98.15l-2.5,1.443L50,98.15l2.5-1.444Z"/>
    <path class="cls-6" d="M60,98.15l-2.5,1.443L55,98.15l2.5-1.444Z"/>
    <path class="cls-6" d="M60,95.263l-2.5,1.443L55,95.263l2.5-1.443Z"/>
    <path class="cls-6" d="M65,95.263l-2.5,1.443L60,95.263l2.5-1.443Z"/>
    <path class="cls-6" d="M65,92.376,62.5,93.82,60,92.376l2.5-1.443Z"/>
    <path class="cls-6" d="M70,92.376,67.5,93.82,65,92.376l2.5-1.443Z"/>
    <path class="cls-6" d="M70,89.49l-2.5,1.443L65,89.49l2.5-1.444Z"/>
    <path class="cls-6" d="M75,86.603l-2.5,1.443L70,86.603l2.5-1.444Z"/>
    <path class="cls-6" d="M80,83.716l-2.5,1.443L75,83.716l2.5-1.443Z"/>
    <path class="cls-6" d="M86.25,95.985l-2.5,1.443-2.5-1.443,2.5-1.444Z"/>
    <path class="cls-6" d="M85,80.829l-2.5,1.444L80,80.829l2.5-1.443Z"/>
    <path class="cls-6" d="M115,167.432l-2.5,1.443-2.5-1.443,2.5-1.444Z"/>
    <path class="cls-6" d="M110,164.545l-2.5,1.443-2.5-1.443,2.5-1.443Z"/>
    <path class="cls-6" d="M105,161.658l-2.5,1.444-2.5-1.444,2.5-1.443Z"/>
    <path class="cls-6" d="M100,158.772l-2.5,1.443L95,158.772l2.5-1.444Z"/>
    <path class="cls-6" d="M95,155.885l-2.5,1.443L90,155.885l2.5-1.444Z"/>
    <path class="cls-6" d="M90,152.998l-2.5,1.443L85,152.998l2.5-1.443Z"/>
    <path class="cls-6" d="M85,150.111l-2.5,1.444L80,150.111l2.5-1.443Z"/>
    <path class="cls-6" d="M80,147.225l-2.5,1.443L75,147.225l2.5-1.444Z"/>
    <path class="cls-6" d="M75,144.338l-2.5,1.443L70,144.338l2.5-1.444Z"/>
    <path class="cls-6" d="M70,141.451l-2.5,1.443L65,141.451l2.5-1.443Z"/>
    <path class="cls-6" d="M65,138.564l-2.5,1.444L60,138.564l2.5-1.443Z"/>
    <path class="cls-6" d="M60,135.678l-2.5,1.443L55,135.678l2.5-1.444Z"/>
    <path class="cls-6" d="M55,132.791l-2.5,1.443L50,132.791l2.5-1.444Z"/>
    <path class="cls-6" d="M50,129.904l-2.5,1.443L45,129.904l2.5-1.443Z"/>
    <path class="cls-6" d="M45,127.017l-2.5,1.444L40,127.017l2.5-1.443Z"/>
    <path class="cls-6" d="M40,124.131l-2.5,1.443L35,124.131l2.5-1.444Z"/>
    <path class="cls-6" d="M35,121.244l-2.5,1.443L30,121.244l2.5-1.444Z"/>
    <path class="cls-6" d="M30,118.357,27.5,119.8,25,118.357l2.5-1.443Z"/>
    <path class="cls-6" d="M25,115.47l-2.5,1.444L20,115.47l2.5-1.443Z"/>
    <path class="cls-6" d="M175,49.075l-2.5,1.443L170,49.075l2.5-1.443Z"/>
    <path class="cls-6" d="M180,49.075l-2.5,1.443L175,49.075l2.5-1.443Z"/>
    <path class="cls-6" d="M185,51.962l-2.5,1.443L180,51.962l2.5-1.444Z"/>
    <path class="cls-6" d="M190,54.848l-2.5,1.444L185,54.848l2.5-1.443Z"/>
    <path class="cls-6" d="M194.926,57.735l-2.5,1.444-2.5-1.444,2.5-1.443Z"/>
    <path class="cls-6" d="M199.926,60.622l-2.5,1.443-2.5-1.443,2.5-1.443Z"/>
    <path class="cls-6" d="M205,63.509l-2.5,1.443L200,63.509l2.5-1.444Z"/>
    <path class="cls-6" d="M210,66.395l-2.5,1.444L205,66.395l2.5-1.443Z"/>
    <path class="cls-6" d="M215,69.282l-2.5,1.444L210,69.282l2.5-1.443Z"/>
    <path class="cls-6" d="M220,72.169l-2.5,1.443L215,72.169l2.5-1.443Z"/>
    <path class="cls-6" d="M225,75.056l-2.5,1.443L220,75.056l2.5-1.444Z"/>
    <path class="cls-6" d="M229.9629,77.943l-2.5,1.443-2.5-1.443,2.5-1.444Z"/>
    <path class="cls-6" d="M235,80.829l-2.5,1.444L230,80.829l2.5-1.443Z"/>
    <path class="cls-6" d="M239.926,83.716l-2.5,1.443-2.5-1.443,2.5-1.443Z"/>
    <path class="cls-6" d="M244.926,86.603l-2.5,1.443-2.5-1.443,2.5-1.444Z"/>
    <path class="cls-6" d="M250,89.49l-2.5,1.443L245,89.49l2.5-1.444Z"/>
    <path class="cls-6" d="M255,92.376l-2.5,1.444L250,92.376l2.5-1.443Z"/>
    <path class="cls-6" d="M259.926,95.263l-2.5,1.443-2.5-1.443,2.5-1.443Z"/>
    <path class="cls-6" d="M180,54.849l-2.5,1.443L175,54.849l2.5-1.444Z"/>
    <path class="cls-6" d="M185,57.735l-2.5,1.444L180,57.735l2.5-1.443Z"/>
    <path class="cls-6" d="M190,60.622l-2.5,1.443L185,60.622l2.5-1.443Z"/>
    <path class="cls-6" d="M195,63.509l-2.5,1.443L190,63.509l2.5-1.444Z"/>
    <path class="cls-6" d="M200,66.396l-2.5,1.443L195,66.396l2.5-1.444Z"/>
    <path class="cls-6" d="M205,69.282l-2.5,1.444L200,69.282l2.5-1.443Z"/>
    <path class="cls-6" d="M210,72.169l-2.5,1.443L205,72.169l2.5-1.443Z"/>
    <path class="cls-6" d="M215,75.056l-2.5,1.443L210,75.056l2.5-1.444Z"/>
    <path class="cls-6" d="M220,77.942l-2.5,1.444L215,77.942l2.5-1.443Z"/>
    <path class="cls-6" d="M225,80.829l-2.5,1.444L220,80.829l2.5-1.443Z"/>
    <path class="cls-6" d="M230.0371,83.716l-2.5,1.443-2.5-1.443,2.5-1.443Z"/>
    <path class="cls-6" d="M235.074,86.603l-2.5,1.443-2.5-1.443,2.5-1.444Z"/>
    <path class="cls-6" d="M240,89.49l-2.5,1.443L235,89.49l2.5-1.444Z"/>
    <path class="cls-6" d="M245,92.376l-2.5,1.444L240,92.376l2.5-1.443Z"/>
    <path class="cls-6" d="M250.074,95.263l-2.5,1.443-2.5-1.443,2.5-1.443Z"/>
    <path class="cls-6" d="M255.074,98.15l-2.5,1.443-2.5-1.443,2.5-1.444Z"/>
    <path class="cls-6" d="M175,54.849l-2.5,1.443L170,54.849l2.5-1.444Z"/>
    <path class="cls-6" d="M155,49.075l-2.5,1.443L150,49.075l2.5-1.443Z"/>
    <path class="cls-6" d="M155,51.962l-2.5,1.443L150,51.962l2.5-1.444Z"/>
    <path class="cls-6" d="M160,51.962l-2.5,1.443L155,51.962l2.5-1.444Z"/>
    <path class="cls-6" d="M140,63.509l-2.5,1.443L135,63.509l2.5-1.444Z"/>
    <path class="cls-6" d="M155,54.848l-2.5,1.444L150,54.848l2.5-1.443Z"/>
    <path class="cls-6" d="M135,66.396l-2.5,1.443L130,66.396l2.5-1.444Z"/>
    <path class="cls-6" d="M150,54.848l-2.5,1.444L145,54.848l2.5-1.443Z"/>
    <path class="cls-6" d="M125,72.169l-2.5,1.443L120,72.169l2.5-1.443Z"/>
    <path class="cls-6" d="M125,69.282l-2.5,1.444L120,69.282l2.5-1.443Z"/>
    <path class="cls-6" d="M145,57.735l-2.5,1.444L140,57.735l2.5-1.443Z"/>
    <path class="cls-6" d="M145,60.622l-2.5,1.443L140,60.622l2.5-1.443Z"/>
    <path class="cls-6" d="M150,57.735l-2.5,1.444L145,57.735l2.5-1.443Z"/>
    <path class="cls-6" d="M130,69.282l-2.5,1.444L125,69.282l2.5-1.443Z"/>
    <path class="cls-6" d="M145,51.962l-2.5,1.443L140,51.962l2.5-1.444Z"/>
    <path class="cls-6" d="M140,49.075l-2.5,1.443L135,49.075l2.5-1.443Z"/>
    <path class="cls-6" d="M135,51.962l-2.5,1.443L130,51.962l2.5-1.444Z"/>
    <path class="cls-6" d="M130,54.848l-2.5,1.444L125,54.848l2.5-1.443Z"/>
    <path class="cls-6" d="M125,57.735l-2.5,1.444L120,57.735l2.5-1.443Z"/>
    <path class="cls-6" d="M120,60.622l-2.5,1.443L115,60.622l2.5-1.443Z"/>
    <path class="cls-6" d="M150,51.962l-2.5,1.443L145,51.962l2.5-1.444Z"/>
    <path class="cls-6" d="M145,54.848l-2.5,1.444L140,54.848l2.5-1.443Z"/>
    <path class="cls-2" d="M10,115.47,160,28.868v5.773L15,118.357Z"/>
    <g>
      <path class="cls-7" d="M138.75,54.127,120,64.952l2.5,1.444L141.25,55.57Z"/>
      <path class="cls-7" d="M141.25,57.014,122.5,67.839l2.5,1.443,18.75-10.825Z"/>
      <path class="cls-7" d="M136.25,51.24,117.5,62.065l2.5,1.444,18.75-10.826Z"/>
      <path class="cls-8" d="M125,70.726,143.75,59.9V58.457L125,69.282Z"/>
      <path class="cls-8" d="M120,64.952l18.75-10.825V52.683L120,63.509Z"/>
      <path class="cls-8" d="M122.5,67.839l18.75-10.825V55.57L122.5,66.396Z"/>
      <path class="cls-9" d="M117.5,62.065v4.331l7.5,4.33V69.282l-2.5-1.443V66.396L120,64.952V63.509Z"/>
    </g>
    <path class="cls-10" d="M94.9629,89.49l25-14.434V54.848l-1.25-.721-25,14.434,1.25.721Z"/>
    <path class="cls-11" d="M97.4629,88.046V70.726l6.25-3.609V84.438Z"/>
    <path class="cls-12" d="M98.7129,88.768l6.25-3.609-7.5-4.33v7.217Z"/>
    <path class="cls-13" d="M103.7129,67.117l.0742,17.321-1.25-.722-.0742-15.877Z"/>
    <path class="cls-2" d="M98.7129,81.551l1.25-.722,2.5,1.444v1.443Z"/>
    <path class="cls-2" d="M160,27.424l146.2129,84.438v1.443L160,28.868Z"/>
    <path class="cls-12" d="M92.426,79.386l-3.75,2.165,3.75,2.165Z"/>
    <path class="cls-2" d="M159.926,21.651l146.2869,84.437v1.444L159.926,23.094Z"/>
    <path class="cls-3" d="M161.25,26.703l-1.25.721,146.2129,84.438v-1.444Z"/>
    <path class="cls-3" d="M161.176,20.929l-1.25.722,146.2129,84.437v-1.443Z"/>
    <g>
      <path class="cls-7" d="M83.75,85.881,65,96.706l2.5,1.444L86.25,87.324Z"/>
      <path class="cls-7" d="M86.25,88.768,67.5,99.593l2.5,1.443L88.75,90.211Z"/>
      <path class="cls-7" d="M81.25,82.994,62.5,93.82,65,95.263,83.75,84.438Z"/>
      <path class="cls-8" d="M70,102.48,88.75,91.655V90.211L70,101.036Z"/>
      <path class="cls-8" d="M65,96.706,83.75,85.881V84.438L65,95.263Z"/>
      <path class="cls-8" d="M67.5,99.593,86.25,88.768V87.324L67.5,98.15Z"/>
      <path class="cls-9" d="M62.5,93.82v4.33l7.5,4.33v-1.444l-2.5-1.443V98.15L65,96.706V95.263Z"/>
    </g>
    <g>
      <path class="cls-2" d="M12.5,116.914l2.4629,1.443V86.603L12.5,88.046,10,86.603V115.47Z"/>
      <path class="cls-1" d="M12.5,116.914V88.046L15,86.603v31.754Z"/>
    </g>
    <g>
      <path class="cls-2" d="M308.676,116.192V88.768l-3.7131-2.165v31.754Z"/>
      <path class="cls-1" d="M307.4629,116.914V88.046l2.5-1.443V115.47Z"/>
    </g>
    <path class="cls-2" d="M157.4629,4.33l150,86.603V88.046l-147.5-85.159Z"/>
    <path class="cls-3" d="M160,10.104l-1.25-.722L15,92.376V93.82Z"/>
    <path class="cls-3" d="M160,15.877l-1.25-.721L15,98.15v1.443Z"/>
    <path class="cls-3" d="M160,21.651l-1.25-.722L15,103.923v1.444Z"/>
    <path class="cls-2" d="M160,10.104,306.2129,94.541v1.444L160,11.547Z"/>
    <path class="cls-2" d="M160,15.877l146.2129,84.438v1.443L160,17.321Z"/>
    <path class="cls-3" d="M161.25,9.382l-1.25.722L306.2129,94.541V93.098Z"/>
    <path class="cls-3" d="M161.25,15.156l-1.25.721,146.2129,84.438V98.871Z"/>
    <path class="cls-3" d="M160,27.424l-1.25-.721L14.926,109.697l1.25.721Z"/>
    <path class="cls-3" d="M157.4629,171.762l150-86.603,2.5,1.444-150,86.602Z"/>
    <g>
      <path class="cls-1" d="M234.9819,51.962l-1.25.721v-4.33l1.25.722Z"/>
      <path class="cls-1" d="M233.7319,54.127l1.25.722v2.886l-1.25.722Z"/>
      <path class="cls-1" d="M233.7319,59.9l1.25.722v2.887l-1.25.721Z"/>
      <path class="cls-1" d="M234.9819,66.396l-1.25-.722v4.33l1.25-.722Z"/>
      <path class="cls-2" d="M232.4819,44.745l1.25.722v25.98l-1.25-.721Z"/>
    </g>
    <g>
      <path class="cls-1" d="M271.2129,72.891l-1.25.721v-4.33l1.25.722Z"/>
      <path class="cls-1" d="M269.9629,75.056l1.25.721v2.887l-1.25.722Z"/>
      <path class="cls-1" d="M269.9629,80.829l1.25.722v2.887l-1.25.721Z"/>
      <path class="cls-1" d="M271.2129,87.324l-1.25-.721v4.33l1.25-.722Z"/>
      <path class="cls-2" d="M268.7129,65.674l1.25.722v25.98l-1.25-.721Z"/>
    </g>
    <path class="cls-1" d="M160,11.547,13.7129,95.985V94.541L160,10.104Z"/>
    <path class="cls-3" d="M10,86.603,160,0l2.5,1.444L12.5,88.046Z"/>
    <path class="cls-1" d="M160,17.321,13.7129,101.758v-1.443L160,15.877Z"/>
    <g>
      <g>
        <path class="cls-14" d="M180.0371,60.598l75,43.302-115,66.395-75-43.301Z"/>
        <path class="cls-15" d="M140.0371,170.7949a.503.503,0,0,1-.25-.0669l-75-43.3008a.5.5,0,0,1,0-.8662l115-66.396a.502.502,0,0,1,.5,0l75,43.3018a.5.5,0,0,1,0,.8662l-115,66.395A.5027.5027,0,0,1,140.0371,170.7949Zm-74-43.8008,74,42.7236,114-65.8178-74-42.7246Z"/>
      </g>
      <path class="cls-15" d="M198.0879,137.5971a.5.5,0,0,1-.25-.0669l-75-43.3012a.5.5,0,0,1,.5-.8662l75,43.3012a.5.5,0,0,1-.25.9331Z"/>
      <g>
        <path class="cls-16" d="M179.9629,60.598h0c-24.8359,14.34-28.1968,35.682-7.5,47.632h0c20.697,11.949,57.697,10.009,82.5742-4.33h0Z"/>
        <path class="cls-15" d="M206.874,116.5459c-13.11,0-25.4844-2.585-34.6611-7.8828-8.91-5.1446-13.8174-12.3516-13.8174-20.294,0-10.102,7.7695-20.3818,21.3174-28.2041a.502.502,0,0,1,.5,0l75.0742,43.3018a.5.5,0,0,1,0,.8662C241.3135,112.3877,223.501,116.5459,206.874,116.5459Zm-26.91-55.37c-13.0762,7.62-20.5684,17.52-20.5684,27.1934,0,7.57,4.73,14.47,13.3174,19.4277,20.33,11.7373,56.6113,9.9546,81.3183-3.9Z"/>
      </g>
      <g>
        <path class="cls-16" d="M139.9629,170.295h0c24.8362-14.339,28.197-35.682,7.5-47.631h0c-20.6968-11.95-57.6638-10.01-82.5,4.33h0Z"/>
        <path class="cls-15" d="M139.9629,170.7949a.5027.5027,0,0,1-.25-.0669l-75-43.3008a.5.5,0,0,1,0-.8662c24.9492-14.4058,62.1836-16.3491,83-4.33,8.91,5.1441,13.8174,12.3511,13.8174,20.2935,0,10.102-7.77,20.3818-21.3174,28.2036A.503.503,0,0,1,139.9629,170.7949ZM65.9678,126.997l73.9941,42.72c13.0762-7.6192,20.5684-17.5191,20.5684-27.1929,0-7.57-4.73-14.47-13.3174-19.4273C126.8818,111.3584,90.6338,113.14,65.9678,126.997Z"/>
      </g>
      <path class="cls-15" d="M199.9629,104.477l-21-12.124,28.5-16.4541,21,12.124Zm-19-12.124,19,10.97,26.5-15.3-19-10.97Z"/>
      <path class="cls-15" d="M112.4629,154.9951l-21-12.124,28.5-16.4541,21,12.124Zm-19-12.124,19,10.97,26.5-15.3-19-10.97Z"/>
      <path class="cls-15" d="M186.4336,107.8564a18.79,18.79,0,0,1-9.2207-2.08c-2.4219-1.3979-3.7549-3.3916-3.7549-5.6142,0-2.9429,2.2793-5.9468,6.2549-8.2422l.25-.1441,21,12.1241-.75.4331A28.4322,28.4322,0,0,1,186.4336,107.8564Zm-6.4688-14.9248c-3.5039,2.0889-5.5068,4.7134-5.5068,7.23,0,1.8769,1.125,3.5185,3.2549,4.748,5.1767,2.99,14.5156,2.4995,21.2324-1.02Z"/>
      <path class="cls-15" d="M139.9629,139.1181l-21-12.124.75-.4331c7.03-4.0586,17.3486-4.707,23-1.4443,2.4219,1.3984,3.7559,3.3925,3.7559,5.6152,0,2.9429-2.28,5.9473-6.2559,8.2422Zm-18.9815-12.1137,18.98,10.958c3.5039-2.0884,5.5079-4.7134,5.5079-7.2305,0-1.877-1.126-3.519-3.2559-4.749C137.0391,122.9956,127.6973,123.4848,120.9814,127.0044Z"/>
      <g>
        <path class="cls-1" d="M218.7871,80.084l2.5-1.443V65.65l-2.5,1.444Z"/>
        <path class="cls-2" d="M216.2871,65.65l2.5,1.444v12.99l-2.5-1.443Z"/>
        <path class="cls-1" d="M221.2871,65.65l-2.5,1.444-8.75-5.052,2.5-1.444Z"/>
        <g class="cls-17">
          <g>
            <path class="cls-15" d="M205.9031,65.429l9.5178,5.495c.478.276.8662.052.8662-.5V68.537h0c0-3.983-2.521-8.672-5.625-10.465h0c-3.1052-1.792-5.625-.013-5.625,3.97h0v1.887A1.9165,1.9165,0,0,0,205.9031,65.429Z"/>
            <path class="cls-10" d="M215.81,71.7924a1.5313,1.5313,0,0,1-.7647-.22l-9.5166-5.4941a2.6659,2.6659,0,0,1-1.2412-2.1494V62.042c0-2.3164.8164-4.1167,2.2393-4.9385a4.42,4.42,0,0,1,4.5107.3193c3.3086,1.9111,6,6.897,6,11.1143v1.8867a1.3383,1.3383,0,0,1-.63,1.21A1.1867,1.1867,0,0,1,215.81,71.7924ZM206.2783,64.78l9.2559,5.3432.0029-1.5859c0-3.74-2.3555-8.1431-5.25-9.8155a3.0081,3.0081,0,0,0-3.0107-.3188c-.9463.5464-1.4893,1.873-1.4893,3.6392v1.8872a1.1771,1.1771,0,0,0,.4912.8506Z"/>
          </g>
        </g>
        <path class="cls-15" d="M205.9031,65.429l9.5178,5.495c.478.276.8662.052.8662-.5V68.537h0c0-3.983-2.521-8.672-5.625-10.465h0c-3.1052-1.792-5.625-.013-5.625,3.97h0v1.887A1.9165,1.9165,0,0,0,205.9031,65.429Z"/>
        <path class="cls-18" d="M212.5371,69.259v-4.33l-3.75-2.166v4.331Z"/>
        <path class="cls-3" d="M206.2871,67.094v3.33a1.9149,1.9149,0,0,0,.866,1.5l.67.386c1.9121,1.104,3.4641.208,3.4641-2V67.094Z"/>
        <g>
          <path class="cls-3" d="M210.6621,66.733h0a1.1429,1.1429,0,0,1,0,2.165h0a4.15,4.15,0,0,1-3.75,0h0a1.1429,1.1429,0,0,1,0-2.165h0A4.1436,4.1436,0,0,1,210.6621,66.733Z"/>
          <path class="cls-19" d="M208.7871,69.6a4.0717,4.0717,0,0,1-2-.4854,1.3864,1.3864,0,0,1,0-2.5976,4.3582,4.3582,0,0,1,4,0,1.3864,1.3864,0,0,1,0,2.5976A4.0715,4.0715,0,0,1,208.7871,69.6Zm0-3.0679a3.5811,3.5811,0,0,0-1.75.4175.9016.9016,0,0,0,0,1.7324,3.8768,3.8768,0,0,0,3.5,0,.9016.9016,0,0,0,0-1.7324h0A3.5811,3.5811,0,0,0,208.7871,66.5317Z"/>
        </g>
      </g>
      <g>
        <g>
          <path class="cls-3" d="M111.8379,138.012v3.331a1.001,1.001,0,0,1-1,1h-3a1.001,1.001,0,0,1-1-1v-3.331Z"/>
          <g class="cls-20">
            <g>
              <path class="cls-15" d="M104.5791,138.041l9.5178,5.495c.4781.276.866.052.866-.5v-1.887h0c0-3.983-2.52-8.672-5.625-10.464h0c-3.104-1.793-5.625-.014-5.625,3.969h0v1.887A1.9154,1.9154,0,0,0,104.5791,138.041Z"/>
              <path class="cls-10" d="M114.4854,144.4043a1.5355,1.5355,0,0,1-.7637-.2183l-9.5176-5.4956a2.6667,2.6667,0,0,1-1.2412-2.1494v-1.8872c0-2.3169.8164-4.1167,2.24-4.9385a4.4206,4.4206,0,0,1,4.51.32c3.3086,1.9092,6,6.8945,6,11.1133v1.8872a1.3415,1.3415,0,0,1-.6279,1.21A1.195,1.195,0,0,1,114.4854,144.4043Zm-9.5313-7.0127,9.2559,5.3437.0029-1.5864c0-3.7412-2.3555-8.1441-5.25-9.8145a3.0049,3.0049,0,0,0-3.01-.32c-.9472.5464-1.49,1.8731-1.49,3.6392v1.8872a1.178,1.178,0,0,0,.4912.8506Z"/>
            </g>
          </g>
          <path class="cls-15" d="M104.5791,138.041l9.5178,5.495c.4781.276.866.052.866-.5v-1.887h0c0-3.983-2.52-8.672-5.625-10.464h0c-3.104-1.793-5.625-.014-5.625,3.969h0v1.887A1.9154,1.9154,0,0,0,104.5791,138.041Z"/>
          <path class="cls-2" d="M101.2129,153.696l-2.5-1.443V139.647l2.5,1.443Z"/>
          <path class="cls-1" d="M103.7129,139.647l-2.5,1.443v12.606l2.5-1.443Z"/>
          <path class="cls-18" d="M98.7129,139.647l2.5,1.443,8.75-5.052-2.5-1.443Z"/>
        </g>
        <path class="cls-1" d="M109.9629,136.038v1.444l-6.25,3.608v-1.443Z"/>
      </g>
    </g>
    <g>
      <path class="cls-11" d="M129.5879,173.135l1.25-.722V143.546l-2.5-1.444-1.25.722v28.868Z"/>
      <path class="cls-21" d="M137.0879,141.381v1.443l2.5-1.443v-1.444Z"/>
      <path class="cls-22" d="M134.5879,139.937v1.444l2.5,1.443v-1.443Z"/>
      <path class="cls-23" d="M127.0879,142.824l10-5.773,2.5,1.443-10,5.774Z"/>
      <path class="cls-10" d="M129.5879,144.267v28.868l2.5-1.443V144.268l7.5-4.331v-1.443Z"/>
    </g>
    <g>
      <path class="cls-10" d="M255.801,98.801l.0369-28.867,2.5-1.444-.0369,28.868Z"/>
      <path class="cls-11" d="M255.801,98.801l.0369-28.867-2.5-1.444-.0369,28.868Z"/>
      <path class="cls-23" d="M245.8379,72.82l10-5.773,2.5,1.443-10,5.774Z"/>
      <path class="cls-21" d="M248.2639,75.707v1.444l2.5-1.444V74.264Z"/>
      <path class="cls-10" d="M248.2639,74.264v1.443l10-5.773V68.49Z"/>
      <path class="cls-11" d="M245.7639,72.82v1.444l2.5,1.443V74.264Z"/>
      <path class="cls-22" d="M245.7639,74.264v1.443l2.5,1.444V75.707Z"/>
    </g>
    <g>
      <path class="cls-11" d="M67.0879,137.051l1.25-.722V106.018l-1.25-.722-2.5,1.444v28.867Z"/>
      <path class="cls-21" d="M73.3379,104.575v1.443l1.25.722,2.5-1.444V102.41Z"/>
      <path class="cls-10" d="M67.0879,137.051V108.183l2.5-1.443v28.867Z"/>
      <path class="cls-22" d="M72.0879,103.853v1.443l2.5,1.444v-1.444Z"/>
      <path class="cls-10" d="M75.8379,101.688l-10,5.774,1.25.721v1.444l10-5.774V102.41Z"/>
      <path class="cls-23" d="M64.5879,106.74l10-5.774,2.5,1.444-10,5.773Z"/>
    </g>
    <g>
      <path class="cls-10" d="M192.0879,61.995l-1.25-.722V33.849l3.75-2.165V60.552Z"/>
      <path class="cls-11" d="M192.0879,61.995l-.0369-28.867-2.5-1.444.0369,28.868Z"/>
      <path class="cls-23" d="M182.051,36.014l10-5.773,2.5,1.443-10,5.774Z"/>
      <path class="cls-21" d="M184.551,38.901v1.444l2.5-1.444V37.458Z"/>
      <path class="cls-10" d="M184.551,37.458v1.443l10-5.773V31.684Z"/>
      <path class="cls-11" d="M182.051,36.014v1.444l2.5,1.443V37.458Z"/>
      <path class="cls-22" d="M182.051,37.458v1.443l2.5,1.444V38.901Z"/>
    </g>
    <g>
      <path class="cls-1" d="M198.7129,31.033l-1.25.721v-4.33l1.25.722Z"/>
      <path class="cls-1" d="M197.4629,33.198l1.25.722v2.886l-1.25.722Z"/>
      <path class="cls-1" d="M197.4629,38.971l1.25.722V42.58l-1.25.721Z"/>
      <path class="cls-1" d="M198.7129,45.467l-1.25-.722v4.33l1.25-.722Z"/>
      <path class="cls-2" d="M196.2129,23.816l1.25.722v25.98l-1.25-.721Z"/>
    </g>
    <path class="cls-1" d="M159.9629,176.092v-2.887l150-86.602v2.886Z"/>
    <path class="cls-1" d="M160,23.094,13.7129,107.532v-1.444L160,21.651Z"/>
    <path class="cls-1" d="M12.5,90.933V88.046L159.9629,2.887V5.774Z"/>
    <path class="cls-1" d="M160,28.868,13.7129,113.305v-1.443L160,27.424Z"/>
    <path class="cls-2" d="M10,86.603l149.9629,86.602v2.887L10,89.49Z"/>
    <path class="cls-3" d="M162.4629,171.762,12.5,85.159,10,86.603l149.9629,86.602Z"/>
    <path class="cls-3" d="M160,0,309.9629,86.603l-2.5,1.443L157.5,1.444Z"/>
    <path class="cls-3" d="M306.2129,95.985l-1.25-.722-143.75,82.994,1.25.722Z"/>
    <path class="cls-3" d="M306.2129,101.758l-1.25-.722-143.75,82.995,1.25.721Z"/>
    <path class="cls-3" d="M306.2129,107.532l-1.25-.722-143.75,82.994,1.25.722Z"/>
    <path class="cls-3" d="M306.2129,113.305l-1.25-.722-143.75,82.995,1.25.721Z"/>
    <path class="cls-1" d="M306.2129,97.428,161.176,181.144V179.7L306.2129,95.985Z"/>
    <path class="cls-1" d="M306.2129,103.202,161.176,186.917v-1.443l145.0369-83.716Z"/>
    <path class="cls-1" d="M306.2129,108.975,161.176,192.691v-1.444l145.0369-83.715Z"/>
    <path class="cls-1" d="M306.2129,114.749,161.176,198.464v-1.443l145.0369-83.716Z"/>
    <g>
      <path class="cls-2" d="M159.9629,202.073l1.2131-.722V173.927l-3.7131-2.165v28.867Z"/>
      <path class="cls-1" d="M159.9629,202.073V173.205l2.5-1.443v28.867Z"/>
    </g>
    <path class="cls-2" d="M13.75,113.305l144.9629,83.716v1.443L13.75,114.749Z"/>
    <path class="cls-2" d="M13.75,107.532l144.9629,83.716v1.443L13.75,108.975Z"/>
    <path class="cls-3" d="M15,112.584l-1.25.721,143.7129,82.994v-1.443Z"/>
    <path class="cls-3" d="M15,106.81l-1.25.722,143.7129,82.994v-1.444Z"/>
    <path class="cls-2" d="M13.75,95.985l144.9629,83.716v1.443L13.75,97.428Z"/>
    <path class="cls-2" d="M13.75,101.758l144.9629,83.716v1.443L13.75,103.202Z"/>
    <path class="cls-3" d="M15,95.263l-1.25.722,143.7129,82.994v-1.444Z"/>
    <path class="cls-3" d="M15,101.037l-1.25.721,143.7129,82.994v-1.443Z"/>
    <g>
      <path class="cls-2" d="M196.2129,158.05l1.25.721,1.2131-.721v-4.33l-2.4631,1.443Z"/>
      <path class="cls-2" d="M198.676,163.823v-4.33l-2.4631,1.444v2.886l1.25.722Z"/>
      <path class="cls-2" d="M198.676,169.597v-4.33l-2.4631,1.443v2.887l1.25.721Z"/>
      <path class="cls-2" d="M196.2129,172.484l2.4631-1.444v4.33l-1.2131.722-1.25-.722Z"/>
      <path class="cls-2" d="M198.676,176.814v4.33l-1.2131.721-1.25-.721v-2.887Z"/>
      <path class="cls-1" d="M198.7129,150.833l-1.25.722v30.31l1.25-.721Z"/>
    </g>
    <g>
      <path class="cls-1" d="M87.5,137.121l-1.25.722-1.2871-.722v-4.33l1.2871.721,1.25.722Z"/>
      <path class="cls-1" d="M84.9629,142.894v-4.33L87.5,140.008v2.886l-1.25.722Z"/>
      <path class="cls-1" d="M84.9629,148.668v-4.33L87.5,145.781v2.887l-1.25.722Z"/>
      <path class="cls-1" d="M87.5,151.555l-2.5371-1.444v4.33l1.2871.722,1.25-.722Z"/>
      <path class="cls-1" d="M84.9629,155.885v2.886L87.5,160.215v-2.887Z"/>
      <path class="cls-2" d="M85,129.904l1.25.722v28.867L85,158.771Z"/>
    </g>
    <g>
      <path class="cls-2" d="M46.25,74.334l1.25.722,1.2129-.722v-4.33L46.25,71.447Z"/>
      <path class="cls-2" d="M48.7129,80.108V75.777L46.25,77.221v2.887l1.25.721Z"/>
      <path class="cls-2" d="M48.7129,85.881v-4.33L46.25,82.994v2.887l1.25.722Z"/>
      <path class="cls-2" d="M46.25,88.768l2.4629-1.444v4.331L47.5,92.376l-1.25-.721Z"/>
      <path class="cls-2" d="M47.5,93.82v4.33l-1.25-.722V94.541Z"/>
      <path class="cls-1" d="M48.75,67.117l-1.25.722V93.82l1.25-.722Z"/>
    </g>
    <g>
      <path class="cls-2" d="M232.4629,137.121l1.25.722,1.2131-.722v-4.33l-2.4631,1.443Z"/>
      <path class="cls-2" d="M234.926,142.894v-4.33l-2.4631,1.444v2.886l1.25.722Z"/>
      <path class="cls-2" d="M234.926,148.668v-4.33l-2.4631,1.443v2.887l1.25.722Z"/>
      <path class="cls-2" d="M232.4629,151.555l2.4631-1.444v4.33l-1.2131.722-1.25-.722Z"/>
      <path class="cls-2" d="M234.926,155.885v4.33l-1.2131.722-1.25-.722v-2.887Z"/>
      <path class="cls-1" d="M234.9629,129.904l-1.25.722v30.311l1.2131-.722Z"/>
    </g>
    <g>
      <path class="cls-1" d="M51.2681,116.192l-1.25.722-1.2862-.722v-4.33l2.5362,1.443Z"/>
      <path class="cls-1" d="M48.7319,121.965v-4.33l2.5362,1.444v2.886l-1.25.722Z"/>
      <path class="cls-1" d="M48.7319,127.739v-4.33l2.5362,1.443v2.887l-1.25.722Z"/>
      <path class="cls-1" d="M51.2681,130.626l-2.5362-1.444v4.33l1.2862.722,1.25-.722Z"/>
      <path class="cls-1" d="M48.7319,134.956v2.887l2.5362,1.443v-2.887Z"/>
      <path class="cls-2" d="M48.7681,108.975l1.25.722v28.867l-1.25-.721Z"/>
    </g>
    <g>
      <path class="cls-2" d="M82.5,53.405l1.25.722v-4.33l-1.25.721Z"/>
      <path class="cls-2" d="M83.75,55.57l-1.25.722v2.887l1.25.721Z"/>
      <path class="cls-2" d="M83.75,61.344l-1.25.721v2.887l1.25.722Z"/>
      <path class="cls-2" d="M82.5,67.839l1.25-.722v4.33l-1.25-.721Z"/>
      <path class="cls-2" d="M83.75,72.891v4.33l-1.25-.722V73.612Z"/>
      <path class="cls-1" d="M85,46.188l-1.25.722V72.891L85,72.169Z"/>
    </g>
    <g>
      <path class="cls-2" d="M268.7129,116.192l1.25.722,1.2131-.722v-4.33l-2.4631,1.443Z"/>
      <path class="cls-2" d="M271.176,121.965v-4.33l-2.4631,1.444v2.886l1.25.722Z"/>
      <path class="cls-2" d="M271.176,127.739v-4.33l-2.4631,1.443v2.887l1.25.722Z"/>
      <path class="cls-2" d="M268.7129,130.626l2.4631-1.444v4.33l-1.2131.722-1.25-.722Z"/>
      <path class="cls-2" d="M271.176,134.956v4.33l-1.2131.722-1.25-.722v-2.887Z"/>
      <path class="cls-1" d="M271.2129,108.975l-1.25.722v30.311l1.25-.722Z"/>
    </g>
    <g>
      <path class="cls-2" d="M118.75,32.476l1.25.722,1.2129-.722v-4.33L118.75,29.589Z"/>
      <path class="cls-2" d="M121.2129,38.25V33.92L118.75,35.363V38.25l1.25.721Z"/>
      <path class="cls-2" d="M121.2129,44.023v-4.33L118.75,41.136v2.887l1.25.722Z"/>
      <path class="cls-2" d="M118.75,46.91l2.4629-1.443v4.33L120,50.518l-1.25-.721Z"/>
      <path class="cls-1" d="M121.25,25.259l-1.25.722V51.962l1.25-.722Z"/>
    </g>
    <path class="cls-6" d="M160,37.528l-2.5,1.443L155,37.528l2.5-1.443Z"/>
    <path class="cls-6" d="M155,40.415l-2.5,1.443L150,40.415l2.5-1.444Z"/>
    <path class="cls-6" d="M150,43.301l-2.5,1.444L145,43.301l2.5-1.443Z"/>
    <path class="cls-6" d="M160,43.301l-2.5,1.444L155,43.301l2.5-1.443Z"/>
    <path class="cls-6" d="M165,43.301l-2.5,1.444L160,43.301l2.5-1.443Z"/>
    <path class="cls-6" d="M165,46.188l-2.5,1.444L160,46.188l2.5-1.443Z"/>
    <path class="cls-6" d="M170,40.415l-2.5,1.443L165,40.415l2.5-1.444Z"/>
    <path class="cls-6" d="M170,43.301l-2.5,1.444L165,43.301l2.5-1.443Z"/>
    <path class="cls-6" d="M155,46.188l-2.5,1.444L150,46.188l2.5-1.443Z"/>
    <path class="cls-6" d="M160,40.415l-2.5,1.443L155,40.415l2.5-1.444Z"/>
    <path class="cls-6" d="M155,43.301l-2.5,1.444L150,43.301l2.5-1.443Z"/>
    <path class="cls-6" d="M150,46.188l-2.5,1.444L145,46.188l2.5-1.443Z"/>
    <path class="cls-6" d="M160,46.188l-2.5,1.444L155,46.188l2.5-1.443Z"/>
    <path class="cls-6" d="M165,40.415l-2.5,1.443L160,40.415l2.5-1.444Z"/>
    <path class="cls-6" d="M165,37.528l-2.5,1.443L160,37.528l2.5-1.443Z"/>
    <path class="cls-24" d="M68.75,91.655l1.25.721-5,2.887-1.25-.722Z"/>
    <path class="cls-24" d="M123.7871,59.9l1.25.722-5,2.887-.0742-1.444Z"/>
    <path class="cls-24" d="M71.25,94.541l1.25.722-5,2.887-1.25-.722Z"/>
    <path class="cls-24" d="M126.2871,62.787l1.25.722-5,2.886-1.25-.721Z"/>
    <path class="cls-24" d="M73.676,97.428,75,98.15l-5,2.887-1.25-.722Z"/>
    <path class="cls-24" d="M128.7129,65.674l1.3242.722-5,2.886-1.25-.721Z"/>
    <path class="cls-24" d="M72.5,88.046l1.25.722-5,2.887-1.25-.722Z"/>
    <path class="cls-24" d="M127.5371,56.292l1.25.722-5,2.886-1.25-.721Z"/>
    <path class="cls-24" d="M75,90.933l1.25.721-5,2.887L70,93.819Z"/>
    <path class="cls-24" d="M130.0371,59.178l1.25.722-5,2.887-1.25-.722Z"/>
    <path class="cls-24" d="M77.5,93.82l1.25.721-5,2.887-1.25-.722Z"/>
    <path class="cls-24" d="M132.5371,62.065l1.25.722-5,2.887-1.25-.722Z"/>
    <path class="cls-24" d="M78.75,85.881l1.25.722L75,89.49l-1.25-.722Z"/>
    <path class="cls-3" d="M94.9629,69.282l25-14.434-10-5.773L85.0371,63.509l-.0742,1.443,10,5.774Z"/>
    <path class="cls-24" d="M133.7871,54.127l1.25.722-5,2.886-1.25-.721Z"/>
    <path class="cls-24" d="M81.25,88.768l1.25.721-5,2.887-1.25-.722Z"/>
    <path class="cls-24" d="M136.2871,57.013l1.25.722-5,2.887-1.25-.722Z"/>
    <path class="cls-24" d="M83.676,91.655l1.25.721-5,2.887-1.25-.722Z"/>
    <path class="cls-24" d="M138.7129,59.9l1.25.722-5,2.887-1.25-.722Z"/>
    <path class="cls-24" d="M81.25,82.994l1.25.722-3.75,2.165-1.25-.722Z"/>
    <path class="cls-24" d="M136.2871,51.24l1.25.722-3.75,2.165-1.25-.722Z"/>
    <path class="cls-24" d="M83.75,85.881l1.25.722-3.75,2.165L80,88.046Z"/>
    <path class="cls-24" d="M138.7871,54.127l1.25.721-3.75,2.165-1.25-.721Z"/>
    <path class="cls-24" d="M86.176,88.768l1.25.722-3.75,2.165-1.25-.722Z"/>
    <path class="cls-24" d="M141.2129,57.014l1.25.721-3.75,2.165-1.25-.721Z"/>
    <path class="cls-25" d="M70,92.376V93.82l-5,2.886V95.263Z"/>
    <path class="cls-25" d="M125.0371,60.622v1.443l-5,2.887V63.509Z"/>
    <path class="cls-25" d="M80,86.603v1.443l-5,2.887V89.49Z"/>
    <path class="cls-25" d="M135.0371,54.849v1.443l-5,2.887V57.735Z"/>
    <path class="cls-25" d="M72.5,95.263v1.443l-5,2.887V98.15Z"/>
    <path class="cls-25" d="M127.5371,63.509v1.443l-5,2.887V66.395Z"/>
    <path class="cls-25" d="M82.5,89.49v1.443l-5,2.887V92.376Z"/>
    <path class="cls-25" d="M137.5371,57.735v1.444l-5,2.886V60.622Z"/>
    <path class="cls-25" d="M75,98.15v1.443l-5,2.887v-1.443Z"/>
    <path class="cls-25" d="M130.0371,66.396v1.443l-5,2.887V69.282Z"/>
    <path class="cls-25" d="M85,92.376V93.82l-5,2.886V95.263Z"/>
    <path class="cls-25" d="M140.0371,60.622v1.443l-5,2.887V63.509Z"/>
    <path class="cls-26" d="M65,96.706l-2.5-1.443V93.82L65,95.263Z"/>
    <path class="cls-26" d="M70,101.037v1.443l-7.5-4.33V96.706Z"/>
    <path class="cls-26" d="M125,69.282v1.444l-5-2.887V66.396Z"/>
    <path class="cls-12" d="M90.0371,63.509l20-11.547,5,2.886-20,11.547Z"/>
    <path class="cls-13" d="M85.0371,83.716l-.0742-20.207,10,5.773.0742,20.208Z"/>
    <path class="cls-3" d="M88.75,81.551l-1.25.722,5,2.886V83.716Z"/>
    <path class="cls-10" d="M88.75,81.551l-1.25.722V76.499l1.25.722Z"/>
    <path class="cls-27" d="M88.75,81.551v-4.33l3.676,2.165.074,4.33Z"/>
    <g>
      <path class="cls-1" d="M123.7871,158.05l-1.25.721-1.2871-.721v-4.33l1.2871.721,1.25.722Z"/>
      <path class="cls-1" d="M121.25,163.823v-4.33l2.5371,1.444v2.886l-1.25.722Z"/>
      <path class="cls-1" d="M121.25,169.597v-4.33l2.5371,1.443v2.887l-1.25.721Z"/>
      <path class="cls-1" d="M123.7871,172.484,121.25,171.04v4.33l1.2871.722,1.25-.722Z"/>
      <path class="cls-1" d="M121.25,176.814V179.7l2.5371,1.444v-2.887Z"/>
      <path class="cls-2" d="M121.2871,150.833l1.25.722v28.867l-1.25-.722Z"/>
    </g>
    <path class="cls-6" d="M105,86.603l-2.5,1.443L100,86.603l2.5-1.444Z"/>
  </g>
</svg>
