<svg id="Layer_1" data-name="Layer 1" xmlns="http://www.w3.org/2000/svg" viewBox="0 0 260 610.5479">
  <defs>
    <style>
      .top-dark {
        fill: #c67471;
      }

      .exterior-R-dark {
        fill: #a64c49;
      }

      .exterior-L-dark {
        fill: #512220;
      }

      .exterior-R-prim {
        fill: #d05752;
      }

      .exterior-L-prim {
        fill: #73302e;
      }

      .window-L-light {
        fill: #795a30;
      }

      .window-R-prim {
        fill: #bd9664;
      }

      .top-prim {
        fill: #dd8a87;
      }
    </style>
  </defs>
  <title>Artboard 5</title>
  <g id="root">
    <path id="anchor_0_150.111_260" class="top-dark" d="M260,95.2628l-100,57.735L0,60.6218V57.735L100,0,260,92.376Z"/>
    <path id="Path" class="exterior-R-dark" d="M160,150.1111l-2.5-1.4434V604.7744l2.5,5.7735,100-57.735V92.376Z"/>
    <path id="Path-2" data-name="Path" class="exterior-L-dark" d="M0,57.735V518.1719l160,92.376V150.1111Z"/>
    <path id="Path-3" data-name="Path" class="exterior-R-prim" d="M160,160.2147,260,102.48V92.376L160,150.1111Z"/>
    <path id="Path-4" data-name="Path" class="exterior-R-prim" d="M160,194.8557l100-57.735V127.017L160,184.7521Z"/>
    <path id="Path-5" data-name="Path" class="exterior-L-prim" d="M160,160.2147,0,67.8386V57.735l160,92.3761Z"/>
    <path id="Path-6" data-name="Path" class="exterior-L-prim" d="M160,194.8557,0,102.48V92.376l160,92.3761Z"/>
    <path id="Path-7" data-name="Path" class="exterior-L-prim" d="M160,229.4967,0,137.1207V127.0171l160,92.376Z"/>
    <path id="Path-8" data-name="Path" class="exterior-L-prim" d="M160,264.1377,0,171.7617V161.6581l160,92.376Z"/>
    <path id="Path-9" data-name="Path" class="exterior-L-prim" d="M160,298.7787,0,206.4027V196.2991l160,92.376Z"/>
    <path id="Path-10" data-name="Path" class="exterior-L-prim" d="M160,333.42,0,241.0437V230.94l160,92.3761Z"/>
    <path id="Path-11" data-name="Path" class="exterior-L-prim" d="M160,368.0608,0,275.6848V265.5811l160,92.3761Z"/>
    <path id="Path-12" data-name="Path" class="exterior-L-prim" d="M160,402.7018,0,310.3258V300.2221l160,92.3761Z"/>
    <path id="Path-13" data-name="Path" class="exterior-L-prim" d="M160,437.3428,0,344.9668V334.8632l160,92.376Z"/>
    <path id="Path-14" data-name="Path" class="exterior-L-prim" d="M160,471.9838,0,379.6078V369.5042L160,461.88Z"/>
    <path id="Path-15" data-name="Path" class="exterior-L-prim" d="M160,506.6248,0,414.2488V404.1452l160,92.376Z"/>
    <path id="Path-16" data-name="Path" class="exterior-L-prim" d="M160,541.2659,0,448.89V438.7862l160,92.3761Z"/>
    <path id="Path-17" data-name="Path" class="exterior-L-prim" d="M160,575.9069,0,483.5309V473.4272l160,92.3761Z"/>
    <path id="Path-18" data-name="Path" class="exterior-L-prim" d="M160,610.5479,0,518.1719V508.0683l160,92.376Z"/>
    <path id="Path-19" data-name="Path" class="exterior-R-prim" d="M160,264.1377l100-57.735V196.2991l-100,57.735Z"/>
    <path id="Path-20" data-name="Path" class="exterior-R-prim" d="M160,333.42l100-57.7351V265.5811L160,323.3162Z"/>
    <path id="Path-21" data-name="Path" class="exterior-R-prim" d="M160,437.3428l100-57.735V369.5042l-100,57.735Z"/>
    <path id="Path-22" data-name="Path" class="exterior-R-prim" d="M160,541.2659l100-57.7351V473.4272L160,531.1623Z"/>
    <path id="Path-23" data-name="Path" class="exterior-R-prim" d="M160,229.4967l100-57.735V161.6581l-100,57.735Z"/>
    <path id="Path-24" data-name="Path" class="exterior-R-prim" d="M160,298.7787l100-57.735V230.94l-100,57.735Z"/>
    <path id="Path-25" data-name="Path" class="exterior-R-prim" d="M160,402.7018l100-57.735V334.8631L160,392.5982Z"/>
    <path id="Path-26" data-name="Path" class="exterior-R-prim" d="M160,506.6248,260,448.89V438.7862l-100,57.735Z"/>
    <path id="Path-27" data-name="Path" class="exterior-R-prim" d="M160,368.0608l100-57.735V300.2221L160,357.9572Z"/>
    <path id="Path-28" data-name="Path" class="exterior-R-prim" d="M160,471.9838l100-57.735V404.1452L160,461.88Z"/>
    <path id="Path-29" data-name="Path" class="exterior-R-prim" d="M160,575.9069l100-57.735V508.0682L160,565.8033Z"/>
    <path id="Path-30" data-name="Path" class="exterior-R-prim" d="M160,610.5479l100-57.735V542.7092L160,600.4443Z"/>
    <path id="Path-31" data-name="Path" class="window-L-light" d="M156.25,158.05l-7.5-4.33v24.5374l7.5,4.33Z"/>
    <path id="Path-32" data-name="Path" class="window-L-light" d="M111.25,132.0689l-7.5-4.33v24.5374l7.5,4.33Z"/>
    <path id="Path-33" data-name="Path" class="window-L-light" d="M66.25,106.0881l-7.5-4.33v24.5374l7.5,4.33Z"/>
    <path id="Path-34" data-name="Path" class="window-L-light" d="M21.25,80.1074l-7.5-4.33v24.5374l7.5,4.33Z"/>
    <path id="Path-35" data-name="Path" class="window-L-light" d="M133.75,145.0593l-7.5-4.33v24.5374l7.5,4.33Z"/>
    <path id="Path-36" data-name="Path" class="window-L-light" d="M88.75,119.0785l-7.5-4.33v24.5374l7.5,4.33Z"/>
    <path id="Path-37" data-name="Path" class="window-L-light" d="M43.75,93.0977l-7.5-4.33V113.305l7.5,4.33Z"/>
    <path id="Path-38" data-name="Path" class="window-L-light" d="M145,151.5545l-7.5-4.33v24.5374l7.5,4.33Z"/>
    <path id="Path-39" data-name="Path" class="window-L-light" d="M100,125.5737l-7.5-4.33v24.5374l7.5,4.33Z"/>
    <path id="Path-40" data-name="Path" class="window-L-light" d="M55,99.5929l-7.5-4.33V119.8l7.5,4.33Z"/>
    <path id="Path-41" data-name="Path" class="window-L-light" d="M10,73.6122l-7.5-4.33V93.8194L10,98.15Z"/>
    <path id="Path-42" data-name="Path" class="window-L-light" d="M122.5,138.5641l-7.5-4.33v24.5374l7.5,4.33Z"/>
    <path id="Path-43" data-name="Path" class="window-L-light" d="M77.5,112.5833l-7.5-4.33v24.5374l7.5,4.33Z"/>
    <path id="Path-44" data-name="Path" class="window-L-light" d="M32.5,86.6026l-7.5-4.33V106.81l7.5,4.33Z"/>
    <path id="Path-45" data-name="Path" class="window-L-light" d="M156.25,192.6907l-7.5-4.33v24.5374l7.5,4.33Z"/>
    <path id="Path-46" data-name="Path" class="window-L-light" d="M111.25,166.71l-7.5-4.33v24.5374l7.5,4.33Z"/>
    <path id="Path-47" data-name="Path" class="window-L-light" d="M66.25,140.7291l-7.5-4.33v24.5374l7.5,4.33Z"/>
    <path id="Path-48" data-name="Path" class="window-L-light" d="M21.25,114.7484l-7.5-4.33v24.5374l7.5,4.33Z"/>
    <path id="Path-49" data-name="Path" class="window-L-light" d="M133.75,179.7l-7.5-4.33v24.5374l7.5,4.33Z"/>
    <path id="Path-50" data-name="Path" class="window-L-light" d="M88.75,153.72l-7.5-4.33v24.5374l7.5,4.33Z"/>
    <path id="Path-51" data-name="Path" class="window-L-light" d="M43.75,127.7388l-7.5-4.33V147.946l7.5,4.33Z"/>
    <path id="Path-52" data-name="Path" class="window-L-light" d="M145,186.1955l-7.5-4.33v24.5374l7.5,4.33Z"/>
    <path id="Path-53" data-name="Path" class="window-L-light" d="M100,160.2147l-7.5-4.33V180.422l7.5,4.33Z"/>
    <path id="Path-54" data-name="Path" class="window-L-light" d="M55,134.234l-7.5-4.33v24.5374l7.5,4.33Z"/>
    <path id="Path-55" data-name="Path" class="window-L-light" d="M10,108.2532l-7.5-4.33V128.46l7.5,4.33Z"/>
    <path id="Path-56" data-name="Path" class="window-L-light" d="M122.5,173.2051l-7.5-4.33v24.5374l7.5,4.33Z"/>
    <path id="Path-57" data-name="Path" class="window-L-light" d="M77.5,147.2243l-7.5-4.33v24.5374l7.5,4.33Z"/>
    <path id="Path-58" data-name="Path" class="window-L-light" d="M32.5,121.2436l-7.5-4.33v24.5374l7.5,4.33Z"/>
    <path id="Path-59" data-name="Path" class="window-L-light" d="M156.25,227.3317l-7.5-4.33v24.5374l7.5,4.33Z"/>
    <path id="Path-60" data-name="Path" class="window-L-light" d="M111.25,201.3509l-7.5-4.33v24.5374l7.5,4.33Z"/>
    <path id="Path-61" data-name="Path" class="window-L-light" d="M66.25,175.37l-7.5-4.33v24.5374l7.5,4.33Z"/>
    <path id="Path-62" data-name="Path" class="window-L-light" d="M21.25,149.3894l-7.5-4.33v24.5374l7.5,4.33Z"/>
    <path id="Path-63" data-name="Path" class="window-L-light" d="M133.75,214.3413l-7.5-4.33v24.5374l7.5,4.33Z"/>
    <path id="Path-64" data-name="Path" class="window-L-light" d="M88.75,188.3605l-7.5-4.33v24.5374l7.5,4.33Z"/>
    <path id="Path-65" data-name="Path" class="window-L-light" d="M43.75,162.38l-7.5-4.33V182.587l7.5,4.33Z"/>
    <path id="Path-66" data-name="Path" class="window-L-light" d="M145,220.8365l-7.5-4.33v24.5374l7.5,4.33Z"/>
    <path id="Path-67" data-name="Path" class="window-L-light" d="M100,194.8557l-7.5-4.33V215.063l7.5,4.33Z"/>
    <path id="Path-68" data-name="Path" class="window-L-light" d="M55,168.875l-7.5-4.33v24.5374l7.5,4.33Z"/>
    <path id="Path-69" data-name="Path" class="window-L-light" d="M10,142.8942l-7.5-4.33v24.5374l7.5,4.33Z"/>
    <path id="Path-70" data-name="Path" class="window-L-light" d="M122.5,207.8461l-7.5-4.33v24.5374l7.5,4.33Z"/>
    <path id="Path-71" data-name="Path" class="window-L-light" d="M77.5,181.8653l-7.5-4.33v24.5374l7.5,4.33Z"/>
    <path id="Path-72" data-name="Path" class="window-L-light" d="M32.5,155.8846l-7.5-4.33v24.5374l7.5,4.33Z"/>
    <path id="Path-73" data-name="Path" class="window-L-light" d="M156.25,261.9727l-7.5-4.33V282.18l7.5,4.33Z"/>
    <path id="Path-74" data-name="Path" class="window-L-light" d="M111.25,235.9919l-7.5-4.33v24.5374l7.5,4.33Z"/>
    <path id="Path-75" data-name="Path" class="window-L-light" d="M66.25,210.0112l-7.5-4.33v24.5374l7.5,4.33Z"/>
    <path id="Path-76" data-name="Path" class="window-L-light" d="M21.25,184.03l-7.5-4.33v24.5374l7.5,4.33Z"/>
    <path id="Path-77" data-name="Path" class="window-L-light" d="M133.75,248.9823l-7.5-4.33V269.19l7.5,4.33Z"/>
    <path id="Path-78" data-name="Path" class="window-L-light" d="M88.75,223.0016l-7.5-4.33v24.5374l7.5,4.33Z"/>
    <path id="Path-79" data-name="Path" class="window-L-light" d="M43.75,197.0208l-7.5-4.33V217.228l7.5,4.33Z"/>
    <path id="Path-80" data-name="Path" class="window-L-light" d="M145,255.4775l-7.5-4.33v24.5374l7.5,4.33Z"/>
    <path id="Path-81" data-name="Path" class="window-L-light" d="M100,229.4967l-7.5-4.33V249.704l7.5,4.33Z"/>
    <path id="Path-82" data-name="Path" class="window-L-light" d="M55,203.516l-7.5-4.33v24.5374l7.5,4.33Z"/>
    <path id="Path-83" data-name="Path" class="window-L-light" d="M10,177.5352l-7.5-4.33v24.5374l7.5,4.33Z"/>
    <path id="Path-84" data-name="Path" class="window-L-light" d="M122.5,242.4871l-7.5-4.33v24.5374l7.5,4.33Z"/>
    <path id="Path-85" data-name="Path" class="window-L-light" d="M77.5,216.5064l-7.5-4.33v24.5374l7.5,4.33Z"/>
    <path id="Path-86" data-name="Path" class="window-L-light" d="M32.5,190.5256l-7.5-4.33v24.5374l7.5,4.33Z"/>
    <path id="Path-87" data-name="Path" class="window-L-light" d="M156.25,296.6137l-7.5-4.33V316.821l7.5,4.33Z"/>
    <path id="Path-88" data-name="Path" class="window-L-light" d="M111.25,270.6329l-7.5-4.33V290.84l7.5,4.33Z"/>
    <path id="Path-89" data-name="Path" class="window-L-light" d="M66.25,244.6522l-7.5-4.33v24.5374l7.5,4.33Z"/>
    <path id="Path-90" data-name="Path" class="window-L-light" d="M21.25,218.6714l-7.5-4.33v24.5374l7.5,4.33Z"/>
    <path id="Path-91" data-name="Path" class="window-L-light" d="M133.75,283.6233l-7.5-4.33v24.5374l7.5,4.33Z"/>
    <path id="Path-92" data-name="Path" class="window-L-light" d="M88.75,257.6426l-7.5-4.33V277.85l7.5,4.33Z"/>
    <path id="Path-93" data-name="Path" class="window-L-light" d="M43.75,231.6618l-7.5-4.33v24.5374l7.5,4.33Z"/>
    <path id="Path-94" data-name="Path" class="window-L-light" d="M145,290.1185l-7.5-4.33v24.5374l7.5,4.33Z"/>
    <path id="Path-95" data-name="Path" class="window-L-light" d="M100,264.1378l-7.5-4.33V284.345l7.5,4.33Z"/>
    <path id="Path-96" data-name="Path" class="window-L-light" d="M55,238.157l-7.5-4.33v24.5374l7.5,4.33Z"/>
    <path id="Path-97" data-name="Path" class="window-L-light" d="M10,212.1762l-7.5-4.33v24.5374l7.5,4.33Z"/>
    <path id="Path-98" data-name="Path" class="window-L-light" d="M122.5,277.1281l-7.5-4.33v24.5374l7.5,4.33Z"/>
    <path id="Path-99" data-name="Path" class="window-L-light" d="M77.5,251.1474l-7.5-4.33v24.5374l7.5,4.33Z"/>
    <path id="Path-100" data-name="Path" class="window-L-light" d="M32.5,225.1666l-7.5-4.33v24.5374l7.5,4.33Z"/>
    <path id="Path-101" data-name="Path" class="window-L-light" d="M156.25,331.2547l-7.5-4.33V351.462l7.5,4.33Z"/>
    <path id="Path-102" data-name="Path" class="window-L-light" d="M111.25,305.274l-7.5-4.33v24.5374l7.5,4.33Z"/>
    <path id="Path-103" data-name="Path" class="window-L-light" d="M66.25,279.2932l-7.5-4.33v24.5374l7.5,4.33Z"/>
    <path id="Path-104" data-name="Path" class="window-L-light" d="M21.25,253.3124l-7.5-4.33V273.52l7.5,4.33Z"/>
    <path id="Path-105" data-name="Path" class="window-L-light" d="M133.75,318.2643l-7.5-4.33v24.5374l7.5,4.33Z"/>
    <path id="Path-106" data-name="Path" class="window-L-light" d="M88.75,292.2836l-7.5-4.33v24.5374l7.5,4.33Z"/>
    <path id="Path-107" data-name="Path" class="window-L-light" d="M43.75,266.3028l-7.5-4.33V286.51l7.5,4.33Z"/>
    <path id="Path-108" data-name="Path" class="window-L-light" d="M145,324.76l-7.5-4.33v24.5374l7.5,4.33Z"/>
    <path id="Path-109" data-name="Path" class="window-L-light" d="M100,298.7788l-7.5-4.33V318.986l7.5,4.33Z"/>
    <path id="Path-110" data-name="Path" class="window-L-light" d="M55,272.798l-7.5-4.33v24.5374l7.5,4.33Z"/>
    <path id="Path-111" data-name="Path" class="window-L-light" d="M10,246.8172l-7.5-4.33v24.5374l7.5,4.33Z"/>
    <path id="Path-112" data-name="Path" class="window-L-light" d="M122.5,311.7692l-7.5-4.33v24.5374l7.5,4.33Z"/>
    <path id="Path-113" data-name="Path" class="window-L-light" d="M77.5,285.7884l-7.5-4.33v24.5374l7.5,4.33Z"/>
    <path id="Path-114" data-name="Path" class="window-L-light" d="M32.5,259.8076l-7.5-4.33v24.5374l7.5,4.33Z"/>
    <path id="Path-115" data-name="Path" class="window-L-light" d="M156.25,365.8957l-7.5-4.33V386.103l7.5,4.33Z"/>
    <path id="Path-116" data-name="Path" class="window-L-light" d="M111.25,339.915l-7.5-4.33v24.5374l7.5,4.33Z"/>
    <path id="Path-117" data-name="Path" class="window-L-light" d="M66.25,313.9342l-7.5-4.33v24.5374l7.5,4.33Z"/>
    <path id="Path-118" data-name="Path" class="window-L-light" d="M21.25,287.9534l-7.5-4.33v24.5374l7.5,4.33Z"/>
    <path id="Path-119" data-name="Path" class="window-L-light" d="M133.75,352.9054l-7.5-4.33v24.5374l7.5,4.33Z"/>
    <path id="Path-120" data-name="Path" class="window-L-light" d="M88.75,326.9246l-7.5-4.33v24.5374l7.5,4.33Z"/>
    <path id="Path-121" data-name="Path" class="window-L-light" d="M43.75,300.9438l-7.5-4.33v24.5374l7.5,4.33Z"/>
    <path id="Path-122" data-name="Path" class="window-L-light" d="M145,359.4006l-7.5-4.33v24.5374l7.5,4.33Z"/>
    <path id="Path-123" data-name="Path" class="window-L-light" d="M100,333.42l-7.5-4.33V353.627l7.5,4.33Z"/>
    <path id="Path-124" data-name="Path" class="window-L-light" d="M55,307.439l-7.5-4.33v24.5374l7.5,4.33Z"/>
    <path id="Path-125" data-name="Path" class="window-L-light" d="M10,281.4583l-7.5-4.33v24.5374l7.5,4.33Z"/>
    <path id="Path-126" data-name="Path" class="window-L-light" d="M122.5,346.41l-7.5-4.33v24.5374l7.5,4.33Z"/>
    <path id="Path-127" data-name="Path" class="window-L-light" d="M77.5,320.4294l-7.5-4.33v24.5374l7.5,4.33Z"/>
    <path id="Path-128" data-name="Path" class="window-L-light" d="M32.5,294.4487l-7.5-4.33v24.5374l7.5,4.33Z"/>
    <path id="Path-129" data-name="Path" class="window-L-light" d="M156.25,400.5368l-7.5-4.33V420.744l7.5,4.33Z"/>
    <path id="Path-130" data-name="Path" class="window-L-light" d="M111.25,374.556l-7.5-4.33v24.5374l7.5,4.33Z"/>
    <path id="Path-131" data-name="Path" class="window-L-light" d="M66.25,348.5752l-7.5-4.33v24.5374l7.5,4.33Z"/>
    <path id="Path-132" data-name="Path" class="window-L-light" d="M21.25,322.5945l-7.5-4.33v24.5374l7.5,4.33Z"/>
    <path id="Path-133" data-name="Path" class="window-L-light" d="M133.75,387.5464l-7.5-4.33v24.5374l7.5,4.33Z"/>
    <path id="Path-134" data-name="Path" class="window-L-light" d="M88.75,361.5656l-7.5-4.33v24.5374l7.5,4.33Z"/>
    <path id="Path-135" data-name="Path" class="window-L-light" d="M43.75,335.5849l-7.5-4.33v24.5374l7.5,4.33Z"/>
    <path id="Path-136" data-name="Path" class="window-L-light" d="M145,394.0416l-7.5-4.33v24.5374l7.5,4.33Z"/>
    <path id="Path-137" data-name="Path" class="window-L-light" d="M100,368.0608l-7.5-4.33v24.5374l7.5,4.33Z"/>
    <path id="Path-138" data-name="Path" class="window-L-light" d="M55,342.08l-7.5-4.33v24.5374l7.5,4.33Z"/>
    <path id="Path-139" data-name="Path" class="window-L-light" d="M10,316.0993l-7.5-4.33v24.5374l7.5,4.33Z"/>
    <path id="Path-140" data-name="Path" class="window-L-light" d="M122.5,381.0512l-7.5-4.33v24.5374l7.5,4.33Z"/>
    <path id="Path-141" data-name="Path" class="window-L-light" d="M77.5,355.07,70,350.74v24.5374l7.5,4.33Z"/>
    <path id="Path-142" data-name="Path" class="window-L-light" d="M32.5,329.09,25,324.76v24.5374l7.5,4.33Z"/>
    <path id="Path-143" data-name="Path" class="window-L-light" d="M156.25,435.1778l-7.5-4.33V455.385l7.5,4.33Z"/>
    <path id="Path-144" data-name="Path" class="window-L-light" d="M111.25,409.197l-7.5-4.33v24.5374l7.5,4.33Z"/>
    <path id="Path-145" data-name="Path" class="window-L-light" d="M66.25,383.2163l-7.5-4.33v24.5374l7.5,4.33Z"/>
    <path id="Path-146" data-name="Path" class="window-L-light" d="M21.25,357.2355l-7.5-4.33v24.5374l7.5,4.33Z"/>
    <path id="Path-147" data-name="Path" class="window-L-light" d="M133.75,422.1874l-7.5-4.33v24.5374l7.5,4.33Z"/>
    <path id="Path-148" data-name="Path" class="window-L-light" d="M88.75,396.2066l-7.5-4.33v24.5374l7.5,4.33Z"/>
    <path id="Path-149" data-name="Path" class="window-L-light" d="M43.75,370.2259l-7.5-4.33v24.5374l7.5,4.33Z"/>
    <path id="Path-150" data-name="Path" class="window-L-light" d="M145,428.6826l-7.5-4.33V448.89l7.5,4.33Z"/>
    <path id="Path-151" data-name="Path" class="window-L-light" d="M100,402.7018l-7.5-4.33v24.5374l7.5,4.33Z"/>
    <path id="Path-152" data-name="Path" class="window-L-light" d="M55,376.7211l-7.5-4.33v24.5374l7.5,4.33Z"/>
    <path id="Path-153" data-name="Path" class="window-L-light" d="M10,350.74l-7.5-4.33v24.5374l7.5,4.33Z"/>
    <path id="Path-154" data-name="Path" class="window-L-light" d="M122.5,415.6922l-7.5-4.33V435.9l7.5,4.33Z"/>
    <path id="Path-155" data-name="Path" class="window-L-light" d="M77.5,389.7114l-7.5-4.33v24.5374l7.5,4.33Z"/>
    <path id="Path-156" data-name="Path" class="window-L-light" d="M32.5,363.7307l-7.5-4.33v24.5374l7.5,4.33Z"/>
    <path id="Path-157" data-name="Path" class="window-L-light" d="M156.25,469.8188l-7.5-4.33V490.026l7.5,4.33Z"/>
    <path id="Path-158" data-name="Path" class="window-L-light" d="M111.25,443.838l-7.5-4.33v24.5374l7.5,4.33Z"/>
    <path id="Path-159" data-name="Path" class="window-L-light" d="M66.25,417.8573l-7.5-4.33v24.5374l7.5,4.33Z"/>
    <path id="Path-160" data-name="Path" class="window-L-light" d="M21.25,391.8765l-7.5-4.33v24.5374l7.5,4.33Z"/>
    <path id="Path-161" data-name="Path" class="window-L-light" d="M133.75,456.8284l-7.5-4.33v24.5374l7.5,4.33Z"/>
    <path id="Path-162" data-name="Path" class="window-L-light" d="M88.75,430.8476l-7.5-4.33v24.5374l7.5,4.33Z"/>
    <path id="Path-163" data-name="Path" class="window-L-light" d="M43.75,404.8669l-7.5-4.33v24.5374l7.5,4.33Z"/>
    <path id="Path-164" data-name="Path" class="window-L-light" d="M145,463.3236l-7.5-4.33v24.5374l7.5,4.33Z"/>
    <path id="Path-165" data-name="Path" class="window-L-light" d="M100,437.3428l-7.5-4.33V457.55l7.5,4.33Z"/>
    <path id="Path-166" data-name="Path" class="window-L-light" d="M55,411.3621l-7.5-4.33v24.5374l7.5,4.33Z"/>
    <path id="Path-167" data-name="Path" class="window-L-light" d="M10,385.3813l-7.5-4.33v24.5374l7.5,4.33Z"/>
    <path id="Path-168" data-name="Path" class="window-L-light" d="M122.5,450.3332l-7.5-4.33v24.5374l7.5,4.33Z"/>
    <path id="Path-169" data-name="Path" class="window-L-light" d="M77.5,424.3525l-7.5-4.33V444.56l7.5,4.33Z"/>
    <path id="Path-170" data-name="Path" class="window-L-light" d="M32.5,398.3717l-7.5-4.33v24.5374l7.5,4.33Z"/>
    <path id="Path-171" data-name="Path" class="window-L-light" d="M156.25,504.46l-7.5-4.33v24.5374l7.5,4.33Z"/>
    <path id="Path-172" data-name="Path" class="window-L-light" d="M111.25,478.479l-7.5-4.33v24.5374l7.5,4.33Z"/>
    <path id="Path-173" data-name="Path" class="window-L-light" d="M66.25,452.4983l-7.5-4.33v24.5374l7.5,4.33Z"/>
    <path id="Path-174" data-name="Path" class="window-L-light" d="M21.25,426.5175l-7.5-4.33v24.5374l7.5,4.33Z"/>
    <path id="Path-175" data-name="Path" class="window-L-light" d="M133.75,491.4694l-7.5-4.33v24.5374l7.5,4.33Z"/>
    <path id="Path-176" data-name="Path" class="window-L-light" d="M88.75,465.4887l-7.5-4.33v24.5374l7.5,4.33Z"/>
    <path id="Path-177" data-name="Path" class="window-L-light" d="M43.75,439.5079l-7.5-4.33v24.5374l7.5,4.33Z"/>
    <path id="Path-178" data-name="Path" class="window-L-light" d="M145,497.9646l-7.5-4.33v24.5374l7.5,4.33Z"/>
    <path id="Path-179" data-name="Path" class="window-L-light" d="M100,471.9839l-7.5-4.33v24.5374l7.5,4.33Z"/>
    <path id="Path-180" data-name="Path" class="window-L-light" d="M55,446.0031l-7.5-4.33V466.21l7.5,4.33Z"/>
    <path id="Path-181" data-name="Path" class="window-L-light" d="M10,420.0223l-7.5-4.33V440.23l7.5,4.33Z"/>
    <path id="Path-182" data-name="Path" class="window-L-light" d="M122.5,484.9742l-7.5-4.33v24.5374l7.5,4.33Z"/>
    <path id="Path-183" data-name="Path" class="window-L-light" d="M77.5,458.9935l-7.5-4.33v24.5374l7.5,4.33Z"/>
    <path id="Path-184" data-name="Path" class="window-L-light" d="M32.5,433.0127l-7.5-4.33V453.22l7.5,4.33Z"/>
    <path id="Path-185" data-name="Path" class="window-L-light" d="M156.25,539.1008l-7.5-4.33v24.5374l7.5,4.33Z"/>
    <path id="Path-186" data-name="Path" class="window-L-light" d="M111.25,513.12l-7.5-4.33v24.5374l7.5,4.33Z"/>
    <path id="Path-187" data-name="Path" class="window-L-light" d="M66.25,487.1393l-7.5-4.33v24.5374l7.5,4.33Z"/>
    <path id="Path-188" data-name="Path" class="window-L-light" d="M21.25,461.1585l-7.5-4.33v24.5374l7.5,4.33Z"/>
    <path id="Path-189" data-name="Path" class="window-L-light" d="M133.75,526.1105l-7.5-4.33v24.5374l7.5,4.33Z"/>
    <path id="Path-190" data-name="Path" class="window-L-light" d="M88.75,500.13l-7.5-4.33v24.5374l7.5,4.33Z"/>
    <path id="Path-191" data-name="Path" class="window-L-light" d="M43.75,474.1489l-7.5-4.33v24.5374l7.5,4.33Z"/>
    <path id="Path-192" data-name="Path" class="window-L-light" d="M145,532.6056l-7.5-4.33v24.5374l7.5,4.33Z"/>
    <path id="Path-193" data-name="Path" class="window-L-light" d="M100,506.6249l-7.5-4.33v24.5374l7.5,4.33Z"/>
    <path id="Path-194" data-name="Path" class="window-L-light" d="M55,480.6441l-7.5-4.33v24.5374l7.5,4.33Z"/>
    <path id="Path-195" data-name="Path" class="window-L-light" d="M10,454.6634l-7.5-4.33v24.5374l7.5,4.33Z"/>
    <path id="Path-196" data-name="Path" class="window-L-light" d="M122.5,519.6153l-7.5-4.33v24.5374l7.5,4.33Z"/>
    <path id="Path-197" data-name="Path" class="window-L-light" d="M77.5,493.6345l-7.5-4.33v24.5374l7.5,4.33Z"/>
    <path id="Path-198" data-name="Path" class="window-L-light" d="M32.5,467.6537l-7.5-4.33V487.861l7.5,4.33Z"/>
    <path id="Path-199" data-name="Path" class="window-L-light" d="M156.25,573.7419l-7.5-4.33v24.5374l7.5,4.33Z"/>
    <path id="Path-200" data-name="Path" class="window-L-light" d="M111.25,547.7611l-7.5-4.33v24.5374l7.5,4.33Z"/>
    <path id="Path-201" data-name="Path" class="window-L-light" d="M66.25,521.78l-7.5-4.33v24.5374l7.5,4.33Z"/>
    <path id="Path-202" data-name="Path" class="window-L-light" d="M21.25,495.8l-7.5-4.33v24.5374l7.5,4.33Z"/>
    <path id="Path-203" data-name="Path" class="window-L-light" d="M133.75,560.7515l-7.5-4.33v24.5374l7.5,4.33Z"/>
    <path id="Path-204" data-name="Path" class="window-L-light" d="M88.75,534.7707l-7.5-4.33V554.978l7.5,4.33Z"/>
    <path id="Path-205" data-name="Path" class="window-L-light" d="M43.75,508.79l-7.5-4.33v24.5374l7.5,4.33Z"/>
    <path id="Path-206" data-name="Path" class="window-L-light" d="M145,567.2467l-7.5-4.33v24.5374l7.5,4.33Z"/>
    <path id="Path-207" data-name="Path" class="window-L-light" d="M100,541.2659l-7.5-4.33v24.5374l7.5,4.33Z"/>
    <path id="Path-208" data-name="Path" class="window-L-light" d="M55,515.2851l-7.5-4.33v24.5374l7.5,4.33Z"/>
    <path id="Path-209" data-name="Path" class="window-L-light" d="M10,489.3044l-7.5-4.33v24.5374l7.5,4.33Z"/>
    <path id="Path-210" data-name="Path" class="window-L-light" d="M122.5,554.2563l-7.5-4.33v24.5374l7.5,4.33Z"/>
    <path id="Path-211" data-name="Path" class="window-L-light" d="M77.5,528.2755l-7.5-4.33v24.5374l7.5,4.33Z"/>
    <path id="Path-212" data-name="Path" class="window-L-light" d="M32.5,502.2948l-7.5-4.33V522.502l7.5,4.33Z"/>
    <path id="Path-213" data-name="Path" class="window-R-prim" d="M163.75,158.05l10-5.7735v24.5374l-10,5.7735Z"/>
    <path id="Path-214" data-name="Path" class="window-R-prim" d="M191.25,142.1725l10-5.7735v24.5374l-10,5.7735Z"/>
    <path id="Path-215" data-name="Path" class="window-R-prim" d="M218.75,126.2953l10-5.7735v24.5374l-10,5.7735Z"/>
    <path id="Path-216" data-name="Path" class="window-R-prim" d="M246.25,110.4182l10-5.7735v24.5374l-10,5.7735Z"/>
    <path id="Path-217" data-name="Path" class="window-R-prim" d="M177.5,150.1111l10-5.7735V168.875l-10,5.7735Z"/>
    <path id="Path-218" data-name="Path" class="window-R-prim" d="M205,134.2339l10-5.7735v24.5374l-10,5.7735Z"/>
    <path id="Path-219" data-name="Path" class="window-R-prim" d="M232.5,118.3568l10-5.7735v24.5374l-10,5.7735Z"/>
    <path id="Path-220" data-name="Path" class="window-R-prim" d="M163.75,227.3317l10-5.7735v24.5374l-10,5.7734Z"/>
    <path id="Path-221" data-name="Path" class="window-R-prim" d="M191.25,211.4545l10-5.7735v24.5374l-10,5.7735Z"/>
    <path id="Path-222" data-name="Path" class="window-R-prim" d="M218.75,195.5774l10-5.7735v24.5374l-10,5.7735Z"/>
    <path id="Path-223" data-name="Path" class="window-R-prim" d="M246.25,179.7l10-5.7735v24.5374l-10,5.7735Z"/>
    <path id="Path-224" data-name="Path" class="window-R-prim" d="M177.5,219.3931l10-5.7735V238.157l-10,5.7735Z"/>
    <path id="Path-225" data-name="Path" class="window-R-prim" d="M205,203.516l10-5.7735V222.28l-10,5.7735Z"/>
    <path id="Path-226" data-name="Path" class="window-R-prim" d="M232.5,187.6388l10-5.7735v24.5374l-10,5.7735Z"/>
    <path id="Path-227" data-name="Path" class="window-R-prim" d="M163.75,296.6137l10-5.7735v24.5374l-10,5.7735Z"/>
    <path id="Path-228" data-name="Path" class="window-R-prim" d="M191.25,280.7366l10-5.7736V299.5l-10,5.7736Z"/>
    <path id="Path-229" data-name="Path" class="window-R-prim" d="M218.75,264.8594l10-5.7735v24.5374l-10,5.7735Z"/>
    <path id="Path-230" data-name="Path" class="window-R-prim" d="M246.25,248.9823l10-5.7735v24.5374l-10,5.7735Z"/>
    <path id="Path-231" data-name="Path" class="window-R-prim" d="M177.5,288.6751l10-5.7735V307.439l-10,5.7735Z"/>
    <path id="Path-232" data-name="Path" class="window-R-prim" d="M205,272.798l10-5.7735v24.5374l-10,5.7735Z"/>
    <path id="Path-233" data-name="Path" class="window-R-prim" d="M232.5,256.9208l10-5.7735v24.5374l-10,5.7735Z"/>
    <path id="Path-234" data-name="Path" class="window-R-prim" d="M163.75,400.5367l10-5.7735v24.5374l-10,5.7735Z"/>
    <path id="Path-235" data-name="Path" class="window-R-prim" d="M191.25,384.66l10-5.7735v24.5374l-10,5.7735Z"/>
    <path id="Path-236" data-name="Path" class="window-R-prim" d="M218.75,368.7824l10-5.7735v24.5374l-10,5.7735Z"/>
    <path id="Path-237" data-name="Path" class="window-R-prim" d="M246.25,352.9053l10-5.7735v24.5374l-10,5.7735Z"/>
    <path id="Path-238" data-name="Path" class="window-R-prim" d="M177.5,392.5982l10-5.7735v24.5374l-10,5.7735Z"/>
    <path id="Path-239" data-name="Path" class="window-R-prim" d="M205,376.721l10-5.7735v24.5374l-10,5.7735Z"/>
    <path id="Path-240" data-name="Path" class="window-R-prim" d="M232.5,360.8439l10-5.7735v24.5374l-10,5.7735Z"/>
    <path id="Path-241" data-name="Path" class="window-R-prim" d="M163.75,504.46l10-5.7735v24.5374l-10,5.7735Z"/>
    <path id="Path-242" data-name="Path" class="window-R-prim" d="M191.25,488.5827l10-5.7736v24.5374l-10,5.7736Z"/>
    <path id="Path-243" data-name="Path" class="window-R-prim" d="M218.75,472.7055l10-5.7735v24.5374l-10,5.7735Z"/>
    <path id="Path-244" data-name="Path" class="window-R-prim" d="M246.25,456.8284l10-5.7735v24.5374l-10,5.7735Z"/>
    <path id="Path-245" data-name="Path" class="window-R-prim" d="M177.5,496.5212l10-5.7735v24.5374l-10,5.7735Z"/>
    <path id="Path-246" data-name="Path" class="window-R-prim" d="M205,480.6441l10-5.7735V499.408l-10,5.7735Z"/>
    <path id="Path-247" data-name="Path" class="window-R-prim" d="M232.5,464.7669l10-5.7735v24.5374l-10,5.7735Z"/>
    <path id="Path-248" data-name="Path" class="window-R-prim" d="M163.75,192.6906l10-5.7735v24.5374l-10,5.7735Z"/>
    <path id="Path-249" data-name="Path" class="window-R-prim" d="M191.25,176.8135l10-5.7735v24.5374l-10,5.7735Z"/>
    <path id="Path-250" data-name="Path" class="window-R-prim" d="M218.75,160.9363l10-5.7735V179.7l-10,5.7735Z"/>
    <path id="Path-251" data-name="Path" class="window-R-prim" d="M246.25,145.0592l10-5.7735v24.5374l-10,5.7735Z"/>
    <path id="Path-252" data-name="Path" class="window-R-prim" d="M177.5,184.7521l10-5.7735V203.516l-10,5.7735Z"/>
    <path id="Path-253" data-name="Path" class="window-R-prim" d="M205,168.8749l10-5.7735v24.5374l-10,5.7735Z"/>
    <path id="Path-254" data-name="Path" class="window-R-prim" d="M232.5,152.9978l10-5.7735v24.5374l-10,5.7735Z"/>
    <path id="Path-255" data-name="Path" class="window-R-prim" d="M163.75,261.9727l10-5.7735v24.5374l-10,5.7734Z"/>
    <path id="Path-256" data-name="Path" class="window-R-prim" d="M191.25,246.0955l10-5.7735v24.5374l-10,5.7735Z"/>
    <path id="Path-257" data-name="Path" class="window-R-prim" d="M218.75,230.2184l10-5.7735v24.5374l-10,5.7735Z"/>
    <path id="Path-258" data-name="Path" class="window-R-prim" d="M246.25,214.3413l10-5.7735v24.5374l-10,5.7735Z"/>
    <path id="Path-259" data-name="Path" class="window-R-prim" d="M177.5,254.0341l10-5.7735V272.798l-10,5.7735Z"/>
    <path id="Path-260" data-name="Path" class="window-R-prim" d="M205,238.157l10-5.7735v24.5374l-10,5.7735Z"/>
    <path id="Path-261" data-name="Path" class="window-R-prim" d="M232.5,222.28l10-5.7735v24.5374l-10,5.7735Z"/>
    <path id="Path-262" data-name="Path" class="window-R-prim" d="M163.75,365.8957l10-5.7735V384.66l-10,5.7735Z"/>
    <path id="Path-263" data-name="Path" class="window-R-prim" d="M191.25,350.0186l10-5.7735v24.5374l-10,5.7735Z"/>
    <path id="Path-264" data-name="Path" class="window-R-prim" d="M218.75,334.1414l10-5.7735v24.5374l-10,5.7735Z"/>
    <path id="Path-265" data-name="Path" class="window-R-prim" d="M246.25,318.2643l10-5.7735v24.5374l-10,5.7735Z"/>
    <path id="Path-266" data-name="Path" class="window-R-prim" d="M177.5,357.9572l10-5.7735v24.5374l-10,5.7735Z"/>
    <path id="Path-267" data-name="Path" class="window-R-prim" d="M205,342.08l10-5.7735v24.5374l-10,5.7735Z"/>
    <path id="Path-268" data-name="Path" class="window-R-prim" d="M232.5,326.2029l10-5.7735v24.5374l-10,5.7735Z"/>
    <path id="Path-269" data-name="Path" class="window-R-prim" d="M163.75,469.8188l10-5.7735v24.5374l-10,5.7734Z"/>
    <path id="Path-270" data-name="Path" class="window-R-prim" d="M191.25,453.9416l10-5.7735v24.5374l-10,5.7735Z"/>
    <path id="Path-271" data-name="Path" class="window-R-prim" d="M218.75,438.0645l10-5.7735v24.5374l-10,5.7735Z"/>
    <path id="Path-272" data-name="Path" class="window-R-prim" d="M246.25,422.1874l10-5.7735v24.5374l-10,5.7735Z"/>
    <path id="Path-273" data-name="Path" class="window-R-prim" d="M177.5,461.88l10-5.7735v24.5374l-10,5.7735Z"/>
    <path id="Path-274" data-name="Path" class="window-R-prim" d="M205,446.0031l10-5.7735V464.767l-10,5.7735Z"/>
    <path id="Path-275" data-name="Path" class="window-R-prim" d="M232.5,430.1259l10-5.7735V448.89l-10,5.7735Z"/>
    <path id="Path-276" data-name="Path" class="window-R-prim" d="M163.75,331.2547l10-5.7735v24.5374l-10,5.7735Z"/>
    <path id="Path-277" data-name="Path" class="window-R-prim" d="M191.25,315.3776l10-5.7735v24.5374l-10,5.7735Z"/>
    <path id="Path-278" data-name="Path" class="window-R-prim" d="M218.75,299.5l10-5.7735v24.5374l-10,5.7735Z"/>
    <path id="Path-279" data-name="Path" class="window-R-prim" d="M246.25,283.6233l10-5.7735v24.5374l-10,5.7735Z"/>
    <path id="Path-280" data-name="Path" class="window-R-prim" d="M177.5,323.3161l10-5.7735V342.08l-10,5.7735Z"/>
    <path id="Path-281" data-name="Path" class="window-R-prim" d="M205,307.439l10-5.7735v24.5374l-10,5.7735Z"/>
    <path id="Path-282" data-name="Path" class="window-R-prim" d="M232.5,291.5618l10-5.7735v24.5374l-10,5.7735Z"/>
    <path id="Path-283" data-name="Path" class="window-R-prim" d="M163.75,435.1778l10-5.7735v24.5374l-10,5.7734Z"/>
    <path id="Path-284" data-name="Path" class="window-R-prim" d="M191.25,419.3006l10-5.7735v24.5374l-10,5.7735Z"/>
    <path id="Path-285" data-name="Path" class="window-R-prim" d="M218.75,403.4235l10-5.7735v24.5374l-10,5.7735Z"/>
    <path id="Path-286" data-name="Path" class="window-R-prim" d="M246.25,387.5464l10-5.7736V406.31l-10,5.7736Z"/>
    <path id="Path-287" data-name="Path" class="window-R-prim" d="M177.5,427.2392l10-5.7735v24.5374l-10,5.7735Z"/>
    <path id="Path-288" data-name="Path" class="window-R-prim" d="M205,411.3621l10-5.7736v24.5374L205,435.9Z"/>
    <path id="Path-289" data-name="Path" class="window-R-prim" d="M232.5,395.4849l10-5.7735v24.5374l-10,5.7735Z"/>
    <path id="Path-290" data-name="Path" class="window-R-prim" d="M163.75,539.1008l10-5.7735v24.5374l-10,5.7735Z"/>
    <path id="Path-291" data-name="Path" class="window-R-prim" d="M191.25,523.2237l10-5.7735v24.5374l-10,5.7735Z"/>
    <path id="Path-292" data-name="Path" class="window-R-prim" d="M218.75,507.3465l10-5.7735V526.11l-10,5.7735Z"/>
    <path id="Path-293" data-name="Path" class="window-R-prim" d="M246.25,491.4694l10-5.7735v24.5374l-10,5.7735Z"/>
    <path id="Path-294" data-name="Path" class="window-R-prim" d="M177.5,531.1622l10-5.7735v24.5374l-10,5.7735Z"/>
    <path id="Path-295" data-name="Path" class="window-R-prim" d="M205,515.2851l10-5.7735V534.049l-10,5.7735Z"/>
    <path id="Path-296" data-name="Path" class="window-R-prim" d="M232.5,499.4079l10-5.7735v24.5374l-10,5.7735Z"/>
    <path id="Path-297" data-name="Path" class="window-R-prim" d="M163.75,573.7418l10-5.7735v24.5374l-10,5.7735Z"/>
    <path id="Path-298" data-name="Path" class="window-R-prim" d="M191.25,557.8647l10-5.7735v24.5374l-10,5.7735Z"/>
    <path id="Path-299" data-name="Path" class="window-R-prim" d="M218.75,541.9875l10-5.7735v24.5374l-10,5.7735Z"/>
    <path id="Path-300" data-name="Path" class="window-R-prim" d="M246.25,526.11l10-5.7735v24.5374l-10,5.7735Z"/>
    <path id="Path-301" data-name="Path" class="window-R-prim" d="M177.5,565.8033l10-5.7736v24.5374l-10,5.7736Z"/>
    <path id="Path-302" data-name="Path" class="window-R-prim" d="M205,549.9261l10-5.7735V568.69l-10,5.7735Z"/>
    <path id="Path-303" data-name="Path" class="window-R-prim" d="M232.5,534.049l10-5.7736v24.5374l-10,5.7736Z"/>
    <path id="Path-304" data-name="Path" class="exterior-L-dark" d="M256.25,104.6447v24.5374l-3.75-2.1651V106.81Z"/>
    <path id="Path-305" data-name="Path" class="exterior-L-dark" d="M242.5,112.5833v24.5374l-3.75-2.1651V114.7484Z"/>
    <path id="Path-306" data-name="Path" class="exterior-L-dark" d="M228.75,120.5218v24.5374L225,142.8941V122.6869Z"/>
    <path id="Path-307" data-name="Path" class="exterior-L-dark" d="M215,128.46v24.5374l-3.75-2.1651V130.6255Z"/>
    <path id="Path-308" data-name="Path" class="exterior-L-dark" d="M201.25,136.399v24.5374l-3.75-2.1651V138.5641Z"/>
    <path id="Path-309" data-name="Path" class="exterior-L-dark" d="M187.5,144.3376v24.5373l-3.75-2.165V146.5026Z"/>
    <path id="Path-310" data-name="Path" class="exterior-L-dark" d="M173.75,152.2761v24.5374L170,174.6484V154.4412Z"/>
    <path id="Path-311" data-name="Path" class="exterior-L-dark" d="M256.25,173.9268v24.5373l-3.75-2.165V176.0918Z"/>
    <path id="Path-312" data-name="Path" class="exterior-L-dark" d="M242.5,181.8653v24.5374l-3.75-2.1651V184.03Z"/>
    <path id="Path-313" data-name="Path" class="exterior-L-dark" d="M228.75,189.8039v24.5373l-3.75-2.165V191.9689Z"/>
    <path id="Path-314" data-name="Path" class="exterior-L-dark" d="M215,197.7425V222.28l-3.75-2.165V199.9075Z"/>
    <path id="Path-315" data-name="Path" class="exterior-L-dark" d="M201.25,205.681v24.5374l-3.75-2.1651V207.8461Z"/>
    <path id="Path-316" data-name="Path" class="exterior-L-dark" d="M187.5,213.62V238.157l-3.75-2.1651V215.7847Z"/>
    <path id="Path-317" data-name="Path" class="exterior-L-dark" d="M173.75,221.5582v24.5373l-3.75-2.165V223.7232Z"/>
    <path id="Path-318" data-name="Path" class="exterior-L-dark" d="M256.25,243.2088v24.5374l-3.75-2.1651V245.3739Z"/>
    <path id="Path-319" data-name="Path" class="exterior-L-dark" d="M242.5,251.1474v24.5373l-3.75-2.165V253.3124Z"/>
    <path id="Path-320" data-name="Path" class="exterior-L-dark" d="M228.75,259.0859v24.5374L225,281.4582V261.251Z"/>
    <path id="Path-321" data-name="Path" class="exterior-L-dark" d="M215,267.0245v24.5374l-3.75-2.1651V269.19Z"/>
    <path id="Path-322" data-name="Path" class="exterior-L-dark" d="M201.25,274.963V299.5l-3.75-2.165V277.1281Z"/>
    <path id="Path-323" data-name="Path" class="exterior-L-dark" d="M187.5,282.9016V307.439l-3.75-2.1651V285.0667Z"/>
    <path id="Path-324" data-name="Path" class="exterior-L-dark" d="M173.75,290.84v24.5374L170,313.2125V293.0053Z"/>
    <path id="Path-325" data-name="Path" class="exterior-L-dark" d="M256.25,347.1318v24.5374l-3.75-2.1651V349.2969Z"/>
    <path id="Path-326" data-name="Path" class="exterior-L-dark" d="M242.5,355.07v24.5374l-3.75-2.1651V357.2355Z"/>
    <path id="Path-327" data-name="Path" class="exterior-L-dark" d="M228.75,363.0089v24.5374L225,385.3812V365.174Z"/>
    <path id="Path-328" data-name="Path" class="exterior-L-dark" d="M215,370.9475v24.5374l-3.75-2.1651V373.1126Z"/>
    <path id="Path-329" data-name="Path" class="exterior-L-dark" d="M201.25,378.8861v24.5374l-3.75-2.1651V381.0512Z"/>
    <path id="Path-330" data-name="Path" class="exterior-L-dark" d="M187.5,386.8247V411.362l-3.75-2.165V388.99Z"/>
    <path id="Path-331" data-name="Path" class="exterior-L-dark" d="M173.75,394.7632v24.5374l-3.75-2.165V396.9283Z"/>
    <path id="Path-332" data-name="Path" class="exterior-L-dark" d="M256.25,451.0549v24.5374l-3.75-2.1651V453.22Z"/>
    <path id="Path-333" data-name="Path" class="exterior-L-dark" d="M242.5,458.9934v24.5374l-3.75-2.165V461.1585Z"/>
    <path id="Path-334" data-name="Path" class="exterior-L-dark" d="M228.75,466.932v24.5374L225,489.3043V469.0971Z"/>
    <path id="Path-335" data-name="Path" class="exterior-L-dark" d="M215,474.8706V499.408l-3.75-2.1651V477.0356Z"/>
    <path id="Path-336" data-name="Path" class="exterior-L-dark" d="M201.25,482.8091v24.5374l-3.75-2.165V484.9742Z"/>
    <path id="Path-337" data-name="Path" class="exterior-L-dark" d="M187.5,490.7477v24.5374l-3.75-2.1651V492.9128Z"/>
    <path id="Path-338" data-name="Path" class="exterior-L-dark" d="M173.75,498.6863v24.5374L170,521.0586V500.8514Z"/>
    <path id="Path-339" data-name="Path" class="exterior-L-dark" d="M256.25,139.2857v24.5374l-3.75-2.165V141.4508Z"/>
    <path id="Path-340" data-name="Path" class="exterior-L-dark" d="M242.5,147.2243v24.5374l-3.75-2.1651V149.3894Z"/>
    <path id="Path-341" data-name="Path" class="exterior-L-dark" d="M228.75,155.1628V179.7l-3.75-2.165V157.3279Z"/>
    <path id="Path-342" data-name="Path" class="exterior-L-dark" d="M215,163.1014v24.5374l-3.75-2.1651V165.2665Z"/>
    <path id="Path-343" data-name="Path" class="exterior-L-dark" d="M201.25,171.04v24.5374l-3.75-2.1651V173.2051Z"/>
    <path id="Path-344" data-name="Path" class="exterior-L-dark" d="M187.5,178.9786V203.516l-3.75-2.1651V181.1436Z"/>
    <path id="Path-345" data-name="Path" class="exterior-L-dark" d="M173.75,186.9171v24.5374L170,209.29V189.0822Z"/>
    <path id="Path-346" data-name="Path" class="exterior-L-dark" d="M256.25,208.5678v24.5374L252.5,230.94V210.7328Z"/>
    <path id="Path-347" data-name="Path" class="exterior-L-dark" d="M242.5,216.5063v24.5374l-3.75-2.165V218.6714Z"/>
    <path id="Path-348" data-name="Path" class="exterior-L-dark" d="M228.75,224.4449v24.5374L225,246.8172V226.61Z"/>
    <path id="Path-349" data-name="Path" class="exterior-L-dark" d="M215,232.3835v24.5374l-3.75-2.1651V234.5485Z"/>
    <path id="Path-350" data-name="Path" class="exterior-L-dark" d="M201.25,240.322v24.5374l-3.75-2.1651V242.4871Z"/>
    <path id="Path-351" data-name="Path" class="exterior-L-dark" d="M187.5,248.2606V272.798l-3.75-2.1651V250.4257Z"/>
    <path id="Path-352" data-name="Path" class="exterior-L-dark" d="M173.75,256.1992v24.5374L170,278.5715V258.3642Z"/>
    <path id="Path-353" data-name="Path" class="exterior-L-dark" d="M256.25,312.4908v24.5374l-3.75-2.1651V314.6559Z"/>
    <path id="Path-354" data-name="Path" class="exterior-L-dark" d="M242.5,320.4294v24.5374l-3.75-2.1651V322.5945Z"/>
    <path id="Path-355" data-name="Path" class="exterior-L-dark" d="M228.75,328.3679v24.5374L225,350.74V330.533Z"/>
    <path id="Path-356" data-name="Path" class="exterior-L-dark" d="M215,336.3065v24.5374l-3.75-2.1651V338.4716Z"/>
    <path id="Path-357" data-name="Path" class="exterior-L-dark" d="M201.25,344.2451v24.5374l-3.75-2.1651V346.41Z"/>
    <path id="Path-358" data-name="Path" class="exterior-L-dark" d="M187.5,352.1836V376.721l-3.75-2.165V354.3487Z"/>
    <path id="Path-359" data-name="Path" class="exterior-L-dark" d="M173.75,360.1222V384.66L170,382.4945V362.2873Z"/>
    <path id="Path-360" data-name="Path" class="exterior-L-dark" d="M256.25,416.4139v24.5374l-3.75-2.1651V418.5789Z"/>
    <path id="Path-361" data-name="Path" class="exterior-L-dark" d="M242.5,424.3524V448.89l-3.75-2.1651V426.5175Z"/>
    <path id="Path-362" data-name="Path" class="exterior-L-dark" d="M228.75,432.291v24.5374L225,454.6633V434.456Z"/>
    <path id="Path-363" data-name="Path" class="exterior-L-dark" d="M215,440.23v24.5373l-3.75-2.165V442.3946Z"/>
    <path id="Path-364" data-name="Path" class="exterior-L-dark" d="M201.25,448.1681v24.5374L197.5,470.54V450.3332Z"/>
    <path id="Path-365" data-name="Path" class="exterior-L-dark" d="M187.5,456.1067v24.5374l-3.75-2.1651V458.2718Z"/>
    <path id="Path-366" data-name="Path" class="exterior-L-dark" d="M173.75,464.0453v24.5374L170,486.4176V466.21Z"/>
    <path id="Path-367" data-name="Path" class="exterior-L-dark" d="M256.25,277.85v24.5374l-3.75-2.1651V280.0149Z"/>
    <path id="Path-368" data-name="Path" class="exterior-L-dark" d="M242.5,285.7884v24.5374l-3.75-2.1651V287.9534Z"/>
    <path id="Path-369" data-name="Path" class="exterior-L-dark" d="M228.75,293.7269v24.5374L225,316.0992V295.892Z"/>
    <path id="Path-370" data-name="Path" class="exterior-L-dark" d="M215,301.6655v24.5374l-3.75-2.1651V303.8306Z"/>
    <path id="Path-371" data-name="Path" class="exterior-L-dark" d="M201.25,309.6041v24.5373l-3.75-2.165V311.7691Z"/>
    <path id="Path-372" data-name="Path" class="exterior-L-dark" d="M187.5,317.5426V342.08l-3.75-2.1651V319.7077Z"/>
    <path id="Path-373" data-name="Path" class="exterior-L-dark" d="M173.75,325.4812v24.5374L170,347.8535V327.6463Z"/>
    <path id="Path-374" data-name="Path" class="exterior-L-dark" d="M256.25,381.7729V406.31l-3.75-2.165V383.9379Z"/>
    <path id="Path-375" data-name="Path" class="exterior-L-dark" d="M242.5,389.7114v24.5374l-3.75-2.1651V391.8765Z"/>
    <path id="Path-376" data-name="Path" class="exterior-L-dark" d="M228.75,397.65v24.5373l-3.75-2.165V399.815Z"/>
    <path id="Path-377" data-name="Path" class="exterior-L-dark" d="M215,405.5885v24.5374l-3.75-2.165V407.7536Z"/>
    <path id="Path-378" data-name="Path" class="exterior-L-dark" d="M201.25,413.5271v24.5374l-3.75-2.1651V415.6922Z"/>
    <path id="Path-379" data-name="Path" class="exterior-L-dark" d="M187.5,421.4657v24.5374l-3.75-2.1651V423.6307Z"/>
    <path id="Path-380" data-name="Path" class="exterior-L-dark" d="M173.75,429.4043v24.5373l-3.75-2.165V431.5693Z"/>
    <path id="Path-381" data-name="Path" class="exterior-L-dark" d="M256.25,485.6959v24.5374l-3.75-2.1651V487.861Z"/>
    <path id="Path-382" data-name="Path" class="exterior-L-dark" d="M242.5,493.6345v24.5374l-3.75-2.1651V495.8Z"/>
    <path id="Path-383" data-name="Path" class="exterior-L-dark" d="M228.75,501.573V526.11L225,523.9453V503.7381Z"/>
    <path id="Path-384" data-name="Path" class="exterior-L-dark" d="M215,509.5116V534.049l-3.75-2.1651V511.6767Z"/>
    <path id="Path-385" data-name="Path" class="exterior-L-dark" d="M201.25,517.45v24.5374l-3.75-2.1651V519.6152Z"/>
    <path id="Path-386" data-name="Path" class="exterior-L-dark" d="M187.5,525.3887v24.5374l-3.75-2.165V527.5538Z"/>
    <path id="Path-387" data-name="Path" class="exterior-L-dark" d="M173.75,533.3273v24.5374L170,555.7V535.4924Z"/>
    <path id="Path-388" data-name="Path" class="exterior-L-dark" d="M256.25,520.3369v24.5374l-3.75-2.1651V522.502Z"/>
    <path id="Path-389" data-name="Path" class="exterior-L-dark" d="M242.5,528.2755v24.5374l-3.75-2.1651V530.4405Z"/>
    <path id="Path-390" data-name="Path" class="exterior-L-dark" d="M228.75,536.214v24.5374L225,558.5863V538.3791Z"/>
    <path id="Path-391" data-name="Path" class="exterior-L-dark" d="M215,544.1526V568.69l-3.75-2.1651V546.3177Z"/>
    <path id="Path-392" data-name="Path" class="exterior-L-dark" d="M201.25,552.0912v24.5374l-3.75-2.1651V554.2562Z"/>
    <path id="Path-393" data-name="Path" class="exterior-L-dark" d="M187.5,560.03v24.5374l-3.75-2.165V562.1948Z"/>
    <path id="Path-394" data-name="Path" class="exterior-L-dark" d="M173.75,567.9683v24.5374L170,590.3406V570.1334Z"/>
    <path id="Path-395" data-name="Path" class="top-prim" d="M246.25,134.9556l10-5.7735-3.75-2.1651-6.25,3.6085Z"/>
    <path id="Path-396" data-name="Path" class="top-prim" d="M232.5,142.8942l10-5.7735-3.75-2.1651-6.25,3.6085Z"/>
    <path id="Path-397" data-name="Path" class="top-prim" d="M218.75,150.8327l10-5.7735L225,142.8941l-6.25,3.6085Z"/>
    <path id="Path-398" data-name="Path" class="top-prim" d="M205,158.7713l10-5.7735-3.75-2.1651L205,154.4412Z"/>
    <path id="Path-399" data-name="Path" class="top-prim" d="M191.25,166.71l10-5.7735-3.75-2.1651-6.25,3.6085Z"/>
    <path id="Path-400" data-name="Path" class="top-prim" d="M177.5,174.6484l10-5.7735-3.75-2.165-6.25,3.6084Z"/>
    <path id="Path-401" data-name="Path" class="top-prim" d="M163.75,182.587l10-5.7735L170,174.6484l-6.25,3.6085Z"/>
    <path id="Path-402" data-name="Path" class="top-prim" d="M246.25,204.2376l10-5.7735-3.75-2.165-6.25,3.6084Z"/>
    <path id="Path-403" data-name="Path" class="top-prim" d="M232.5,212.1762l10-5.7735-3.75-2.1651-6.25,3.6085Z"/>
    <path id="Path-404" data-name="Path" class="top-prim" d="M218.75,220.1147l10-5.7735-3.75-2.165-6.25,3.6084Z"/>
    <path id="Path-405" data-name="Path" class="top-prim" d="M205,228.0533l10-5.7735-3.75-2.165L205,223.7232Z"/>
    <path id="Path-406" data-name="Path" class="top-prim" d="M191.25,235.9919l10-5.7735-3.75-2.1651-6.25,3.6085Z"/>
    <path id="Path-407" data-name="Path" class="top-prim" d="M177.5,243.9305l10-5.7735-3.75-2.1651L177.5,239.6Z"/>
    <path id="Path-408" data-name="Path" class="top-prim" d="M163.75,251.869l10-5.7735-3.75-2.165-6.25,3.6084Z"/>
    <path id="Path-409" data-name="Path" class="top-prim" d="M246.25,273.52l10-5.7735-3.75-2.1651-6.25,3.6085Z"/>
    <path id="Path-410" data-name="Path" class="top-prim" d="M232.5,281.4582l10-5.7735-3.75-2.165-6.25,3.6084Z"/>
    <path id="Path-411" data-name="Path" class="top-prim" d="M218.75,289.3968l10-5.7735L225,281.4582l-6.25,3.6085Z"/>
    <path id="Path-412" data-name="Path" class="top-prim" d="M205,297.3354l10-5.7735-3.75-2.1651L205,293.0053Z"/>
    <path id="Path-413" data-name="Path" class="top-prim" d="M191.25,305.2739l10-5.7735-3.75-2.165-6.25,3.6084Z"/>
    <path id="Path-414" data-name="Path" class="top-prim" d="M177.5,313.2125l10-5.7735-3.75-2.1651-6.25,3.6085Z"/>
    <path id="Path-415" data-name="Path" class="top-prim" d="M163.75,321.1511l10-5.7735L170,313.2125l-6.25,3.6085Z"/>
    <path id="Path-416" data-name="Path" class="top-prim" d="M246.25,377.4427l10-5.7735-3.75-2.1651-6.25,3.6085Z"/>
    <path id="Path-417" data-name="Path" class="top-prim" d="M232.5,385.3813l10-5.7735-3.75-2.1651-6.25,3.6085Z"/>
    <path id="Path-418" data-name="Path" class="top-prim" d="M218.75,393.32l10-5.7735L225,385.3812l-6.25,3.6085Z"/>
    <path id="Path-419" data-name="Path" class="top-prim" d="M205,401.2584l10-5.7735-3.75-2.1651L205,396.9283Z"/>
    <path id="Path-420" data-name="Path" class="top-prim" d="M191.25,409.197l10-5.7735-3.75-2.1651-6.25,3.6085Z"/>
    <path id="Path-421" data-name="Path" class="top-prim" d="M177.5,417.1355l10-5.7735-3.75-2.165-6.25,3.6084Z"/>
    <path id="Path-422" data-name="Path" class="top-prim" d="M163.75,425.0741l10-5.7735-3.75-2.165-6.25,3.6084Z"/>
    <path id="Path-423" data-name="Path" class="top-prim" d="M246.25,481.3658l10-5.7735-3.75-2.1651-6.25,3.6085Z"/>
    <path id="Path-424" data-name="Path" class="top-prim" d="M232.5,489.3043l10-5.7735-3.75-2.165-6.25,3.6084Z"/>
    <path id="Path-425" data-name="Path" class="top-prim" d="M218.75,497.2429l10-5.7735L225,489.3043l-6.25,3.6085Z"/>
    <path id="Path-426" data-name="Path" class="top-prim" d="M205,505.1815l10-5.7735-3.75-2.1651L205,500.8514Z"/>
    <path id="Path-427" data-name="Path" class="top-prim" d="M191.25,513.12l10-5.7735-3.75-2.165-6.25,3.6084Z"/>
    <path id="Path-428" data-name="Path" class="top-prim" d="M177.5,521.0586l10-5.7735-3.75-2.1651-6.25,3.6085Z"/>
    <path id="Path-429" data-name="Path" class="top-prim" d="M163.75,528.9972l10-5.7735L170,521.0586l-6.25,3.6085Z"/>
    <path id="Path-430" data-name="Path" class="top-prim" d="M246.25,169.5966l10-5.7735-3.75-2.165-6.25,3.6084Z"/>
    <path id="Path-431" data-name="Path" class="top-prim" d="M232.5,177.5352l10-5.7735-3.75-2.1651-6.25,3.6085Z"/>
    <path id="Path-432" data-name="Path" class="top-prim" d="M218.75,185.4737l10-5.7735-3.75-2.165-6.25,3.6084Z"/>
    <path id="Path-433" data-name="Path" class="top-prim" d="M205,193.4123l10-5.7735-3.75-2.1651L205,189.0822Z"/>
    <path id="Path-434" data-name="Path" class="top-prim" d="M191.25,201.3509l10-5.7735-3.75-2.1651-6.25,3.6085Z"/>
    <path id="Path-435" data-name="Path" class="top-prim" d="M177.5,209.2894l10-5.7734-3.75-2.1651-6.25,3.6084Z"/>
    <path id="Path-436" data-name="Path" class="top-prim" d="M163.75,217.228l10-5.7735L170,209.29l-6.25,3.6084Z"/>
    <path id="Path-437" data-name="Path" class="top-prim" d="M246.25,238.8787l10-5.7735L252.5,230.94l-6.25,3.6084Z"/>
    <path id="Path-438" data-name="Path" class="top-prim" d="M232.5,246.8172l10-5.7735-3.75-2.165-6.25,3.6084Z"/>
    <path id="Path-439" data-name="Path" class="top-prim" d="M218.75,254.7558l10-5.7735L225,246.8172l-6.25,3.6084Z"/>
    <path id="Path-440" data-name="Path" class="top-prim" d="M205,262.6943l10-5.7734-3.75-2.1651L205,258.3642Z"/>
    <path id="Path-441" data-name="Path" class="top-prim" d="M191.25,270.6329l10-5.7735-3.75-2.1651-6.25,3.6085Z"/>
    <path id="Path-442" data-name="Path" class="top-prim" d="M177.5,278.5715l10-5.7735-3.75-2.1651-6.25,3.6085Z"/>
    <path id="Path-443" data-name="Path" class="top-prim" d="M163.75,286.51l10-5.7735L170,278.5715l-6.25,3.6085Z"/>
    <path id="Path-444" data-name="Path" class="top-prim" d="M246.25,342.8017l10-5.7735-3.75-2.1651-6.25,3.6085Z"/>
    <path id="Path-445" data-name="Path" class="top-prim" d="M232.5,350.74l10-5.7735-3.75-2.1651L232.5,346.41Z"/>
    <path id="Path-446" data-name="Path" class="top-prim" d="M218.75,358.6788l10-5.7735L225,350.74l-6.25,3.6085Z"/>
    <path id="Path-447" data-name="Path" class="top-prim" d="M205,366.6174l10-5.7735-3.75-2.1651L205,362.2873Z"/>
    <path id="Path-448" data-name="Path" class="top-prim" d="M191.25,374.556l10-5.7735-3.75-2.1651-6.25,3.6085Z"/>
    <path id="Path-449" data-name="Path" class="top-prim" d="M177.5,382.4945l10-5.7735-3.75-2.165-6.25,3.6084Z"/>
    <path id="Path-450" data-name="Path" class="top-prim" d="M163.75,390.4331l10-5.7735L170,382.4945l-6.25,3.6085Z"/>
    <path id="Path-451" data-name="Path" class="top-prim" d="M246.25,446.7247l10-5.7734-3.75-2.1651-6.25,3.6084Z"/>
    <path id="Path-452" data-name="Path" class="top-prim" d="M232.5,454.6633l10-5.7735-3.75-2.1651-6.25,3.6085Z"/>
    <path id="Path-453" data-name="Path" class="top-prim" d="M218.75,462.6018l10-5.7734L225,454.6633l-6.25,3.6084Z"/>
    <path id="Path-454" data-name="Path" class="top-prim" d="M205,470.54l10-5.7735-3.75-2.165L205,466.21Z"/>
    <path id="Path-455" data-name="Path" class="top-prim" d="M191.25,478.479l10-5.7735L197.5,470.54l-6.25,3.6085Z"/>
    <path id="Path-456" data-name="Path" class="top-prim" d="M177.5,486.4176l10-5.7735-3.75-2.1651-6.25,3.6085Z"/>
    <path id="Path-457" data-name="Path" class="top-prim" d="M163.75,494.3562l10-5.7735L170,486.4176l-6.25,3.6085Z"/>
    <path id="Path-458" data-name="Path" class="top-prim" d="M246.25,308.1607l10-5.7735-3.75-2.1651-6.25,3.6085Z"/>
    <path id="Path-459" data-name="Path" class="top-prim" d="M232.5,316.0993l10-5.7735-3.75-2.1651-6.25,3.6084Z"/>
    <path id="Path-460" data-name="Path" class="top-prim" d="M218.75,324.0378l10-5.7735L225,316.0992l-6.25,3.6085Z"/>
    <path id="Path-461" data-name="Path" class="top-prim" d="M205,331.9764l10-5.7735-3.75-2.1651L205,327.6463Z"/>
    <path id="Path-462" data-name="Path" class="top-prim" d="M191.25,339.9149l10-5.7735-3.75-2.165-6.25,3.6084Z"/>
    <path id="Path-463" data-name="Path" class="top-prim" d="M177.5,347.8535l10-5.7735-3.75-2.1651-6.25,3.6085Z"/>
    <path id="Path-464" data-name="Path" class="top-prim" d="M163.75,355.7921l10-5.7735L170,347.8535l-6.25,3.6085Z"/>
    <path id="Path-465" data-name="Path" class="top-prim" d="M246.25,412.0837l10-5.7735-3.75-2.165-6.25,3.6084Z"/>
    <path id="Path-466" data-name="Path" class="top-prim" d="M232.5,420.0223l10-5.7735-3.75-2.1651-6.25,3.6085Z"/>
    <path id="Path-467" data-name="Path" class="top-prim" d="M218.75,427.9608l10-5.7735-3.75-2.165-6.25,3.6084Z"/>
    <path id="Path-468" data-name="Path" class="top-prim" d="M205,435.8994l10-5.7735-3.75-2.165L205,431.5693Z"/>
    <path id="Path-469" data-name="Path" class="top-prim" d="M191.25,443.838l10-5.7735-3.75-2.1651-6.25,3.6085Z"/>
    <path id="Path-470" data-name="Path" class="top-prim" d="M177.5,451.7766l10-5.7735-3.75-2.1651-6.25,3.6085Z"/>
    <path id="Path-471" data-name="Path" class="top-prim" d="M163.75,459.7151l10-5.7735-3.75-2.165-6.25,3.6084Z"/>
    <path id="Path-472" data-name="Path" class="top-prim" d="M246.25,516.0068l10-5.7735-3.75-2.1651-6.25,3.6085Z"/>
    <path id="Path-473" data-name="Path" class="top-prim" d="M232.5,523.9454l10-5.7735-3.75-2.1651-6.25,3.6085Z"/>
    <path id="Path-474" data-name="Path" class="top-prim" d="M218.75,531.8839l10-5.7735L225,523.9453l-6.25,3.6085Z"/>
    <path id="Path-475" data-name="Path" class="top-prim" d="M205,539.8225l10-5.7735-3.75-2.1651L205,535.4924Z"/>
    <path id="Path-476" data-name="Path" class="top-prim" d="M191.25,547.7611l10-5.7735-3.75-2.1651-6.25,3.6085Z"/>
    <path id="Path-477" data-name="Path" class="top-prim" d="M177.5,555.7l10-5.7735-3.75-2.165L177.5,551.37Z"/>
    <path id="Path-478" data-name="Path" class="top-prim" d="M163.75,563.6382l10-5.7735L170,555.7l-6.25,3.6085Z"/>
    <path id="Path-479" data-name="Path" class="top-prim" d="M246.25,550.6478l10-5.7735-3.75-2.1651-6.25,3.6085Z"/>
    <path id="Path-480" data-name="Path" class="top-prim" d="M232.5,558.5864l10-5.7735-3.75-2.1651-6.25,3.6085Z"/>
    <path id="Path-481" data-name="Path" class="top-prim" d="M218.75,566.5249l10-5.7735L225,558.5863l-6.25,3.6085Z"/>
    <path id="Path-482" data-name="Path" class="top-prim" d="M205,574.4635l10-5.7735-3.75-2.1651L205,570.1334Z"/>
    <path id="Path-483" data-name="Path" class="top-prim" d="M191.25,582.4021l10-5.7735-3.75-2.1651-6.25,3.6084Z"/>
    <path id="Path-484" data-name="Path" class="top-prim" d="M177.5,590.3406l10-5.7735-3.75-2.165-6.25,3.6084Z"/>
    <path id="Path-485" data-name="Path" class="top-prim" d="M163.75,598.2792l10-5.7735L170,590.3406l-6.25,3.6085Z"/>
    <path id="Path-486" data-name="Path" class="exterior-R-dark" d="M148.75,153.72v24.5374l3.75-2.1651V155.8846Z"/>
    <path id="Path-487" data-name="Path" class="exterior-R-dark" d="M115,134.2339v24.5374l3.75-2.1651V136.399Z"/>
    <path id="Path-488" data-name="Path" class="exterior-R-dark" d="M81.25,114.7484v24.5373l3.75-2.165V116.9134Z"/>
    <path id="Path-489" data-name="Path" class="exterior-R-dark" d="M47.5,95.2628V119.8l3.75-2.1651V97.4278Z"/>
    <path id="Path-490" data-name="Path" class="exterior-R-dark" d="M13.75,75.7772v24.5374L17.5,98.15V77.9423Z"/>
    <path id="Path-491" data-name="Path" class="exterior-R-dark" d="M137.5,147.2243v24.5374l3.75-2.1651V149.3894Z"/>
    <path id="Path-492" data-name="Path" class="exterior-R-dark" d="M103.75,127.7387v24.5374l3.75-2.1651V129.9038Z"/>
    <path id="Path-493" data-name="Path" class="exterior-R-dark" d="M70,108.2532v24.5373l3.75-2.165V110.4182Z"/>
    <path id="Path-494" data-name="Path" class="exterior-R-dark" d="M36.25,88.7676V113.305L40,111.14V90.9326Z"/>
    <path id="Path-495" data-name="Path" class="exterior-R-dark" d="M2.5,69.282V93.8194l3.75-2.1651V71.4471Z"/>
    <path id="Path-496" data-name="Path" class="exterior-R-dark" d="M126.25,140.7291v24.5374l3.75-2.1651V142.8942Z"/>
    <path id="Path-497" data-name="Path" class="exterior-R-dark" d="M92.5,121.2435v24.5374l3.75-2.1651V123.4086Z"/>
    <path id="Path-498" data-name="Path" class="exterior-R-dark" d="M58.75,101.758v24.5374L62.5,124.13V103.9231Z"/>
    <path id="Path-499" data-name="Path" class="exterior-R-dark" d="M25,82.2724V106.81l3.75-2.1651V84.4375Z"/>
    <path id="Path-500" data-name="Path" class="exterior-R-dark" d="M148.75,188.3605v24.5374l3.75-2.1651V190.5256Z"/>
    <path id="Path-501" data-name="Path" class="exterior-R-dark" d="M115,168.8749v24.5374l3.75-2.1651V171.04Z"/>
    <path id="Path-502" data-name="Path" class="exterior-R-dark" d="M81.25,149.3894v24.5374L85,171.7617V151.5544Z"/>
    <path id="Path-503" data-name="Path" class="exterior-R-dark" d="M47.5,129.9038v24.5374l3.75-2.1651V132.0689Z"/>
    <path id="Path-504" data-name="Path" class="exterior-R-dark" d="M13.75,110.4182v24.5374l3.75-2.1651V112.5833Z"/>
    <path id="Path-505" data-name="Path" class="exterior-R-dark" d="M137.5,181.8653v24.5374l3.75-2.1651V184.03Z"/>
    <path id="Path-506" data-name="Path" class="exterior-R-dark" d="M103.75,162.38v24.5374l3.75-2.1651V164.5448Z"/>
    <path id="Path-507" data-name="Path" class="exterior-R-dark" d="M70,142.8942v24.5374l3.75-2.1651V145.0592Z"/>
    <path id="Path-508" data-name="Path" class="exterior-R-dark" d="M36.25,123.4086V147.946L40,145.7809V125.5737Z"/>
    <path id="Path-509" data-name="Path" class="exterior-R-dark" d="M2.5,103.923V128.46l3.75-2.1651V106.0881Z"/>
    <path id="Path-510" data-name="Path" class="exterior-R-dark" d="M126.25,175.37v24.5374l3.75-2.1651V177.5352Z"/>
    <path id="Path-511" data-name="Path" class="exterior-R-dark" d="M92.5,155.8846v24.5373l3.75-2.165V158.05Z"/>
    <path id="Path-512" data-name="Path" class="exterior-R-dark" d="M58.75,136.399v24.5374l3.75-2.1651V138.5641Z"/>
    <path id="Path-513" data-name="Path" class="exterior-R-dark" d="M25,116.9134v24.5374l3.75-2.1651V119.0785Z"/>
    <path id="Path-514" data-name="Path" class="exterior-R-dark" d="M148.75,223.0015v24.5374l3.75-2.1651V225.1666Z"/>
    <path id="Path-515" data-name="Path" class="exterior-R-dark" d="M115,203.5159v24.5374l3.75-2.165V205.681Z"/>
    <path id="Path-516" data-name="Path" class="exterior-R-dark" d="M81.25,184.03v24.5374L85,206.4027V186.1955Z"/>
    <path id="Path-517" data-name="Path" class="exterior-R-dark" d="M47.5,164.5448v24.5374l3.75-2.1651V166.71Z"/>
    <path id="Path-518" data-name="Path" class="exterior-R-dark" d="M13.75,145.0592v24.5374l3.75-2.1651V147.2243Z"/>
    <path id="Path-519" data-name="Path" class="exterior-R-dark" d="M137.5,216.5063v24.5374l3.75-2.1651V218.6714Z"/>
    <path id="Path-520" data-name="Path" class="exterior-R-dark" d="M103.75,197.0207v24.5374l3.75-2.165V199.1858Z"/>
    <path id="Path-521" data-name="Path" class="exterior-R-dark" d="M70,177.5352v24.5374l3.75-2.1651V179.7Z"/>
    <path id="Path-522" data-name="Path" class="exterior-R-dark" d="M36.25,158.05V182.587L40,180.4219V160.2147Z"/>
    <path id="Path-523" data-name="Path" class="exterior-R-dark" d="M2.5,138.564v24.5374l3.75-2.165V140.7291Z"/>
    <path id="Path-524" data-name="Path" class="exterior-R-dark" d="M126.25,210.0112v24.5373l3.75-2.165V212.1762Z"/>
    <path id="Path-525" data-name="Path" class="exterior-R-dark" d="M92.5,190.5256V215.063l3.75-2.1651V192.6906Z"/>
    <path id="Path-526" data-name="Path" class="exterior-R-dark" d="M58.75,171.04v24.5374l3.75-2.1651V173.2051Z"/>
    <path id="Path-527" data-name="Path" class="exterior-R-dark" d="M25,151.5544v24.5374l3.75-2.1651V153.72Z"/>
    <path id="Path-528" data-name="Path" class="exterior-R-dark" d="M148.75,257.6425V282.18l3.75-2.165V259.8076Z"/>
    <path id="Path-529" data-name="Path" class="exterior-R-dark" d="M115,238.157v24.5373l3.75-2.165V240.322Z"/>
    <path id="Path-530" data-name="Path" class="exterior-R-dark" d="M81.25,218.6714v24.5374L85,241.0437V220.8365Z"/>
    <path id="Path-531" data-name="Path" class="exterior-R-dark" d="M47.5,199.1858v24.5374l3.75-2.1651V201.3509Z"/>
    <path id="Path-532" data-name="Path" class="exterior-R-dark" d="M13.75,179.7v24.5374l3.75-2.165V181.8653Z"/>
    <path id="Path-533" data-name="Path" class="exterior-R-dark" d="M137.5,251.1473v24.5374l3.75-2.165V253.3124Z"/>
    <path id="Path-534" data-name="Path" class="exterior-R-dark" d="M103.75,231.6618v24.5373l3.75-2.165V233.8268Z"/>
    <path id="Path-535" data-name="Path" class="exterior-R-dark" d="M70,212.1762v24.5374l3.75-2.1651V214.3413Z"/>
    <path id="Path-536" data-name="Path" class="exterior-R-dark" d="M36.25,192.6906V217.228L40,215.0629V194.8557Z"/>
    <path id="Path-537" data-name="Path" class="exterior-R-dark" d="M2.5,173.2051v24.5373l3.75-2.165V175.37Z"/>
    <path id="Path-538" data-name="Path" class="exterior-R-dark" d="M126.25,244.6522V269.19l3.75-2.1651V246.8172Z"/>
    <path id="Path-539" data-name="Path" class="exterior-R-dark" d="M92.5,225.1666V249.704l3.75-2.1651V227.3317Z"/>
    <path id="Path-540" data-name="Path" class="exterior-R-dark" d="M58.75,205.681v24.5374l3.75-2.1651V207.8461Z"/>
    <path id="Path-541" data-name="Path" class="exterior-R-dark" d="M25,186.1954v24.5374l3.75-2.165V188.3605Z"/>
    <path id="Path-542" data-name="Path" class="exterior-R-dark" d="M148.75,292.2836v24.5373l3.75-2.165V294.4486Z"/>
    <path id="Path-543" data-name="Path" class="exterior-R-dark" d="M115,272.798v24.5374l3.75-2.1651V274.963Z"/>
    <path id="Path-544" data-name="Path" class="exterior-R-dark" d="M81.25,253.3124V277.85L85,275.6847V255.4775Z"/>
    <path id="Path-545" data-name="Path" class="exterior-R-dark" d="M47.5,233.8268v24.5374l3.75-2.1651V235.9919Z"/>
    <path id="Path-546" data-name="Path" class="exterior-R-dark" d="M13.75,214.3413v24.5373l3.75-2.165V216.5063Z"/>
    <path id="Path-547" data-name="Path" class="exterior-R-dark" d="M137.5,285.7884v24.5373l3.75-2.165V287.9534Z"/>
    <path id="Path-548" data-name="Path" class="exterior-R-dark" d="M103.75,266.3028V290.84l3.75-2.1651V268.4678Z"/>
    <path id="Path-549" data-name="Path" class="exterior-R-dark" d="M70,246.8172v24.5374l3.75-2.1651V248.9823Z"/>
    <path id="Path-550" data-name="Path" class="exterior-R-dark" d="M36.25,227.3316V251.869L40,249.704V229.4967Z"/>
    <path id="Path-551" data-name="Path" class="exterior-R-dark" d="M2.5,207.8461v24.5374l3.75-2.1651V210.0111Z"/>
    <path id="Path-552" data-name="Path" class="exterior-R-dark" d="M126.25,279.2932v24.5374l3.75-2.1651V281.4583Z"/>
    <path id="Path-553" data-name="Path" class="exterior-R-dark" d="M92.5,259.8076V284.345l3.75-2.1651V261.9727Z"/>
    <path id="Path-554" data-name="Path" class="exterior-R-dark" d="M58.75,240.322v24.5374l3.75-2.165V242.4871Z"/>
    <path id="Path-555" data-name="Path" class="exterior-R-dark" d="M25,220.8365v24.5373l3.75-2.165V223.0015Z"/>
    <path id="Path-556" data-name="Path" class="exterior-R-dark" d="M148.75,326.9246V351.462l3.75-2.1651V329.09Z"/>
    <path id="Path-557" data-name="Path" class="exterior-R-dark" d="M115,307.439v24.5374l3.75-2.1651V309.6041Z"/>
    <path id="Path-558" data-name="Path" class="exterior-R-dark" d="M81.25,287.9534v24.5374l3.75-2.165V290.1185Z"/>
    <path id="Path-559" data-name="Path" class="exterior-R-dark" d="M47.5,268.4678v24.5374l3.75-2.165V270.6329Z"/>
    <path id="Path-560" data-name="Path" class="exterior-R-dark" d="M13.75,248.9823V273.52l3.75-2.1651V251.1473Z"/>
    <path id="Path-561" data-name="Path" class="exterior-R-dark" d="M137.5,320.4294v24.5374l3.75-2.1651V322.5944Z"/>
    <path id="Path-562" data-name="Path" class="exterior-R-dark" d="M103.75,300.9438v24.5374l3.75-2.1651V303.1089Z"/>
    <path id="Path-563" data-name="Path" class="exterior-R-dark" d="M70,281.4582v24.5374l3.75-2.165V283.6233Z"/>
    <path id="Path-564" data-name="Path" class="exterior-R-dark" d="M36.25,261.9727V286.51L40,284.345V264.1377Z"/>
    <path id="Path-565" data-name="Path" class="exterior-R-dark" d="M2.5,242.4871v24.5374l3.75-2.1651V244.6522Z"/>
    <path id="Path-566" data-name="Path" class="exterior-R-dark" d="M126.25,313.9342v24.5374l3.75-2.1651V316.0993Z"/>
    <path id="Path-567" data-name="Path" class="exterior-R-dark" d="M92.5,294.4486V318.986l3.75-2.1651V296.6137Z"/>
    <path id="Path-568" data-name="Path" class="exterior-R-dark" d="M58.75,274.9631V299.5l3.75-2.165V277.1281Z"/>
    <path id="Path-569" data-name="Path" class="exterior-R-dark" d="M25,255.4775v24.5374l3.75-2.1651V257.6425Z"/>
    <path id="Path-570" data-name="Path" class="exterior-R-dark" d="M148.75,361.5656V386.103l3.75-2.1651V363.7307Z"/>
    <path id="Path-571" data-name="Path" class="exterior-R-dark" d="M115,342.08v24.5374l3.75-2.1651V344.2451Z"/>
    <path id="Path-572" data-name="Path" class="exterior-R-dark" d="M81.25,322.5945v24.5373l3.75-2.165V324.76Z"/>
    <path id="Path-573" data-name="Path" class="exterior-R-dark" d="M47.5,303.1089v24.5374l3.75-2.1651V305.2739Z"/>
    <path id="Path-574" data-name="Path" class="exterior-R-dark" d="M13.75,283.6233v24.5374l3.75-2.1651V285.7884Z"/>
    <path id="Path-575" data-name="Path" class="exterior-R-dark" d="M137.5,355.07v24.5374l3.75-2.1651V357.2355Z"/>
    <path id="Path-576" data-name="Path" class="exterior-R-dark" d="M103.75,335.5848v24.5374l3.75-2.1651V337.75Z"/>
    <path id="Path-577" data-name="Path" class="exterior-R-dark" d="M70,316.0993v24.5373l3.75-2.165V318.2643Z"/>
    <path id="Path-578" data-name="Path" class="exterior-R-dark" d="M36.25,296.6137v24.5374L40,318.986V298.7787Z"/>
    <path id="Path-579" data-name="Path" class="exterior-R-dark" d="M2.5,277.1281v24.5374L6.25,299.5V279.2932Z"/>
    <path id="Path-580" data-name="Path" class="exterior-R-dark" d="M126.25,348.5752v24.5374l3.75-2.1651V350.74Z"/>
    <path id="Path-581" data-name="Path" class="exterior-R-dark" d="M92.5,329.09V353.627l3.75-2.1651V331.2547Z"/>
    <path id="Path-582" data-name="Path" class="exterior-R-dark" d="M58.75,309.6041v24.5374l3.75-2.1651V311.7692Z"/>
    <path id="Path-583" data-name="Path" class="exterior-R-dark" d="M25,290.1185v24.5374l3.75-2.1651V292.2836Z"/>
    <path id="Path-584" data-name="Path" class="exterior-R-dark" d="M148.75,396.2066V420.744l3.75-2.1651V398.3717Z"/>
    <path id="Path-585" data-name="Path" class="exterior-R-dark" d="M115,376.721v24.5374l3.75-2.1651V378.8861Z"/>
    <path id="Path-586" data-name="Path" class="exterior-R-dark" d="M81.25,357.2355v24.5374L85,379.6078V359.4005Z"/>
    <path id="Path-587" data-name="Path" class="exterior-R-dark" d="M47.5,337.75v24.5374l3.75-2.1651V339.915Z"/>
    <path id="Path-588" data-name="Path" class="exterior-R-dark" d="M13.75,318.2643v24.5374l3.75-2.1651V320.4294Z"/>
    <path id="Path-589" data-name="Path" class="exterior-R-dark" d="M137.5,389.7114v24.5374l3.75-2.1651V391.8765Z"/>
    <path id="Path-590" data-name="Path" class="exterior-R-dark" d="M103.75,370.2258v24.5374l3.75-2.1651V372.3909Z"/>
    <path id="Path-591" data-name="Path" class="exterior-R-dark" d="M70,350.74v24.5374l3.75-2.1651V352.9053Z"/>
    <path id="Path-592" data-name="Path" class="exterior-R-dark" d="M36.25,331.2547v24.5374L40,353.627V333.42Z"/>
    <path id="Path-593" data-name="Path" class="exterior-R-dark" d="M2.5,311.7691v24.5374l3.75-2.1651V313.9342Z"/>
    <path id="Path-594" data-name="Path" class="exterior-R-dark" d="M126.25,383.2162v24.5374l3.75-2.1651V385.3813Z"/>
    <path id="Path-595" data-name="Path" class="exterior-R-dark" d="M92.5,363.7306V388.268l3.75-2.165V365.8957Z"/>
    <path id="Path-596" data-name="Path" class="exterior-R-dark" d="M58.75,344.2451v24.5374l3.75-2.1651V346.41Z"/>
    <path id="Path-597" data-name="Path" class="exterior-R-dark" d="M25,324.76v24.5374l3.75-2.1651V326.9246Z"/>
    <path id="Path-598" data-name="Path" class="exterior-R-dark" d="M148.75,430.8476V455.385l3.75-2.1651V433.0127Z"/>
    <path id="Path-599" data-name="Path" class="exterior-R-dark" d="M115,411.362v24.5374l3.75-2.165V413.5271Z"/>
    <path id="Path-600" data-name="Path" class="exterior-R-dark" d="M81.25,391.8765v24.5374L85,414.2488V394.0416Z"/>
    <path id="Path-601" data-name="Path" class="exterior-R-dark" d="M47.5,372.3909v24.5374l3.75-2.1651V374.556Z"/>
    <path id="Path-602" data-name="Path" class="exterior-R-dark" d="M13.75,352.9053v24.5374l3.75-2.1651V355.07Z"/>
    <path id="Path-603" data-name="Path" class="exterior-R-dark" d="M137.5,424.3524V448.89l3.75-2.1651V426.5175Z"/>
    <path id="Path-604" data-name="Path" class="exterior-R-dark" d="M103.75,404.8668v24.5374l3.75-2.165V407.0319Z"/>
    <path id="Path-605" data-name="Path" class="exterior-R-dark" d="M70,385.3813v24.5374l3.75-2.1651V387.5464Z"/>
    <path id="Path-606" data-name="Path" class="exterior-R-dark" d="M36.25,365.8957v24.5374L40,388.268V368.0608Z"/>
    <path id="Path-607" data-name="Path" class="exterior-R-dark" d="M2.5,346.41v24.5374l3.75-2.1651V348.5752Z"/>
    <path id="Path-608" data-name="Path" class="exterior-R-dark" d="M126.25,417.8572v24.5374L130,440.23V420.0223Z"/>
    <path id="Path-609" data-name="Path" class="exterior-R-dark" d="M92.5,398.3717V422.909l3.75-2.165V400.5367Z"/>
    <path id="Path-610" data-name="Path" class="exterior-R-dark" d="M58.75,378.8861v24.5374l3.75-2.1651V381.0512Z"/>
    <path id="Path-611" data-name="Path" class="exterior-R-dark" d="M25,359.4005v24.5374l3.75-2.1651V361.5656Z"/>
    <path id="Path-612" data-name="Path" class="exterior-R-dark" d="M148.75,465.4886V490.026l3.75-2.165V467.6537Z"/>
    <path id="Path-613" data-name="Path" class="exterior-R-dark" d="M115,446.0031V470.54l3.75-2.165V448.1681Z"/>
    <path id="Path-614" data-name="Path" class="exterior-R-dark" d="M81.25,426.5175v24.5374L85,448.89V428.6826Z"/>
    <path id="Path-615" data-name="Path" class="exterior-R-dark" d="M47.5,407.0319v24.5374l3.75-2.1651V409.197Z"/>
    <path id="Path-616" data-name="Path" class="exterior-R-dark" d="M13.75,387.5463v24.5374l3.75-2.165V389.7114Z"/>
    <path id="Path-617" data-name="Path" class="exterior-R-dark" d="M137.5,458.9934v24.5374l3.75-2.165V461.1585Z"/>
    <path id="Path-618" data-name="Path" class="exterior-R-dark" d="M103.75,439.5079v24.5373l3.75-2.165V441.6729Z"/>
    <path id="Path-619" data-name="Path" class="exterior-R-dark" d="M70,420.0223V444.56l3.75-2.1651V422.1874Z"/>
    <path id="Path-620" data-name="Path" class="exterior-R-dark" d="M36.25,400.5367v24.5374L40,422.909V402.7018Z"/>
    <path id="Path-621" data-name="Path" class="exterior-R-dark" d="M2.5,381.0511v24.5374l3.75-2.165V383.2162Z"/>
    <path id="Path-622" data-name="Path" class="exterior-R-dark" d="M126.25,452.4983v24.5373l3.75-2.165V454.6633Z"/>
    <path id="Path-623" data-name="Path" class="exterior-R-dark" d="M92.5,433.0127V457.55l3.75-2.1651V435.1778Z"/>
    <path id="Path-624" data-name="Path" class="exterior-R-dark" d="M58.75,413.5271v24.5374l3.75-2.1651V415.6922Z"/>
    <path id="Path-625" data-name="Path" class="exterior-R-dark" d="M25,394.0415v24.5374l3.75-2.165V396.2066Z"/>
    <path id="Path-626" data-name="Path" class="exterior-R-dark" d="M148.75,500.13V524.667l3.75-2.165V502.2947Z"/>
    <path id="Path-627" data-name="Path" class="exterior-R-dark" d="M115,480.6441v24.5374l3.75-2.1651V482.8091Z"/>
    <path id="Path-628" data-name="Path" class="exterior-R-dark" d="M81.25,461.1585v24.5374L85,483.5308V463.3236Z"/>
    <path id="Path-629" data-name="Path" class="exterior-R-dark" d="M47.5,441.6729V466.21l3.75-2.1651V443.838Z"/>
    <path id="Path-630" data-name="Path" class="exterior-R-dark" d="M13.75,422.1874v24.5373l3.75-2.165V424.3524Z"/>
    <path id="Path-631" data-name="Path" class="exterior-R-dark" d="M137.5,493.6345v24.5373l3.75-2.165V495.8Z"/>
    <path id="Path-632" data-name="Path" class="exterior-R-dark" d="M103.75,474.1489v24.5374l3.75-2.1651V476.3139Z"/>
    <path id="Path-633" data-name="Path" class="exterior-R-dark" d="M70,454.6633v24.5374l3.75-2.1651V456.8284Z"/>
    <path id="Path-634" data-name="Path" class="exterior-R-dark" d="M36.25,435.1777v24.5374L40,457.55V437.3428Z"/>
    <path id="Path-635" data-name="Path" class="exterior-R-dark" d="M2.5,415.6922V440.23l3.75-2.165V417.8572Z"/>
    <path id="Path-636" data-name="Path" class="exterior-R-dark" d="M126.25,487.1393v24.5374l3.75-2.1651V489.3043Z"/>
    <path id="Path-637" data-name="Path" class="exterior-R-dark" d="M92.5,467.6537v24.5374l3.75-2.1651V469.8188Z"/>
    <path id="Path-638" data-name="Path" class="exterior-R-dark" d="M58.75,448.1681v24.5374l3.75-2.165V450.3332Z"/>
    <path id="Path-639" data-name="Path" class="exterior-R-dark" d="M25,428.6826V453.22l3.75-2.165V430.8476Z"/>
    <path id="Path-640" data-name="Path" class="exterior-R-dark" d="M148.75,534.7707v24.5374l3.75-2.1651V536.9358Z"/>
    <path id="Path-641" data-name="Path" class="exterior-R-dark" d="M115,515.2851v24.5374l3.75-2.1651V517.45Z"/>
    <path id="Path-642" data-name="Path" class="exterior-R-dark" d="M81.25,495.8v24.5373l3.75-2.165V497.9646Z"/>
    <path id="Path-643" data-name="Path" class="exterior-R-dark" d="M47.5,476.314v24.5373l3.75-2.165V478.479Z"/>
    <path id="Path-644" data-name="Path" class="exterior-R-dark" d="M13.75,456.8284v24.5374l3.75-2.1651V458.9935Z"/>
    <path id="Path-645" data-name="Path" class="exterior-R-dark" d="M137.5,528.2755v24.5374l3.75-2.1651V530.4406Z"/>
    <path id="Path-646" data-name="Path" class="exterior-R-dark" d="M103.75,508.79v24.5374l3.75-2.1651V510.955Z"/>
    <path id="Path-647" data-name="Path" class="exterior-R-dark" d="M70,489.3044v24.5373l3.75-2.165V491.4694Z"/>
    <path id="Path-648" data-name="Path" class="exterior-R-dark" d="M36.25,469.8188v24.5374L40,492.1911V471.9838Z"/>
    <path id="Path-649" data-name="Path" class="exterior-R-dark" d="M2.5,450.3332v24.5374l3.75-2.1651V452.4983Z"/>
    <path id="Path-650" data-name="Path" class="exterior-R-dark" d="M126.25,521.78v24.5374l3.75-2.1651V523.9454Z"/>
    <path id="Path-651" data-name="Path" class="exterior-R-dark" d="M92.5,502.2947v24.5374l3.75-2.1651V504.46Z"/>
    <path id="Path-652" data-name="Path" class="exterior-R-dark" d="M58.75,482.8092v24.5374l3.75-2.1651V484.9742Z"/>
    <path id="Path-653" data-name="Path" class="exterior-R-dark" d="M25,463.3236V487.861l3.75-2.1651V465.4887Z"/>
    <path id="Path-654" data-name="Path" class="exterior-R-dark" d="M148.75,569.4117v24.5374l3.75-2.1651V571.5768Z"/>
    <path id="Path-655" data-name="Path" class="exterior-R-dark" d="M115,549.9261v24.5374l3.75-2.1651V552.0912Z"/>
    <path id="Path-656" data-name="Path" class="exterior-R-dark" d="M81.25,530.4406V554.978L85,552.8129V532.6056Z"/>
    <path id="Path-657" data-name="Path" class="exterior-R-dark" d="M47.5,510.955v24.5374l3.75-2.1651V513.12Z"/>
    <path id="Path-658" data-name="Path" class="exterior-R-dark" d="M13.75,491.4694v24.5374l3.75-2.1651V493.6345Z"/>
    <path id="Path-659" data-name="Path" class="exterior-R-dark" d="M137.5,562.9165v24.5374l3.75-2.1651V565.0816Z"/>
    <path id="Path-660" data-name="Path" class="exterior-R-dark" d="M103.75,543.4309v24.5374l3.75-2.1651V545.596Z"/>
    <path id="Path-661" data-name="Path" class="exterior-R-dark" d="M70,523.9454v24.5374l3.75-2.1651V526.11Z"/>
    <path id="Path-662" data-name="Path" class="exterior-R-dark" d="M36.25,504.46v24.5374L40,526.8321V506.6249Z"/>
    <path id="Path-663" data-name="Path" class="exterior-R-dark" d="M2.5,484.9742v24.5374l3.75-2.1651V487.1393Z"/>
    <path id="Path-664" data-name="Path" class="exterior-R-dark" d="M126.25,556.4213v24.5374l3.75-2.1651V558.5864Z"/>
    <path id="Path-665" data-name="Path" class="exterior-R-dark" d="M92.5,536.9357v24.5374l3.75-2.165V539.1008Z"/>
    <path id="Path-666" data-name="Path" class="exterior-R-dark" d="M58.75,517.45v24.5374l3.75-2.1651V519.6153Z"/>
    <path id="Path-667" data-name="Path" class="exterior-R-dark" d="M25,497.9646V522.502l3.75-2.1651V500.13Z"/>
    <path id="Path-668" data-name="Path" class="top-prim" d="M156.25,182.587l-7.5-4.33,3.75-2.1651,3.75,2.1651Z"/>
    <path id="Path-669" data-name="Path" class="top-prim" d="M122.5,163.1014l-7.5-4.33,3.75-2.1651,3.75,2.1651Z"/>
    <path id="Path-670" data-name="Path" class="top-prim" d="M88.75,143.6159l-7.5-4.33L85,137.1207l3.75,2.1651Z"/>
    <path id="Path-671" data-name="Path" class="top-prim" d="M55,124.13l-7.5-4.33,3.75-2.1651L55,119.8Z"/>
    <path id="Path-672" data-name="Path" class="top-prim" d="M21.25,104.6447l-7.5-4.33L17.5,98.15l3.75,2.1651Z"/>
    <path id="Path-673" data-name="Path" class="top-prim" d="M145,176.0918l-7.5-4.33,3.75-2.1651,3.75,2.1651Z"/>
    <path id="Path-674" data-name="Path" class="top-prim" d="M111.25,156.6062l-7.5-4.33,3.75-2.1651,3.75,2.1651Z"/>
    <path id="Path-675" data-name="Path" class="top-prim" d="M77.5,137.1207l-7.5-4.33,3.75-2.1651,3.75,2.1651Z"/>
    <path id="Path-676" data-name="Path" class="top-prim" d="M43.75,117.6351l-7.5-4.33L40,111.14l3.75,2.1651Z"/>
    <path id="Path-677" data-name="Path" class="top-prim" d="M10,98.15l-7.5-4.33,3.75-2.1651L10,93.8194Z"/>
    <path id="Path-678" data-name="Path" class="top-prim" d="M133.75,169.5966l-7.5-4.33,3.75-2.1651,3.75,2.1651Z"/>
    <path id="Path-679" data-name="Path" class="top-prim" d="M100,150.111l-7.5-4.33,3.75-2.165,3.75,2.165Z"/>
    <path id="Path-680" data-name="Path" class="top-prim" d="M66.25,130.6255l-7.5-4.33L62.5,124.13l3.75,2.1651Z"/>
    <path id="Path-681" data-name="Path" class="top-prim" d="M32.5,111.14,25,106.81l3.75-2.1651L32.5,106.81Z"/>
    <path id="Path-682" data-name="Path" class="top-prim" d="M156.25,217.228l-7.5-4.33,3.75-2.1651,3.75,2.1651Z"/>
    <path id="Path-683" data-name="Path" class="top-prim" d="M122.5,197.7424l-7.5-4.33,3.75-2.1651,3.75,2.1651Z"/>
    <path id="Path-684" data-name="Path" class="top-prim" d="M88.75,178.2569l-7.5-4.33L85,171.7617l3.75,2.1651Z"/>
    <path id="Path-685" data-name="Path" class="top-prim" d="M55,158.7713l-7.5-4.33,3.75-2.1651L55,154.4412Z"/>
    <path id="Path-686" data-name="Path" class="top-prim" d="M21.25,139.2857l-7.5-4.33,3.75-2.1651,3.75,2.1651Z"/>
    <path id="Path-687" data-name="Path" class="top-prim" d="M145,210.7328l-7.5-4.33,3.75-2.1651,3.75,2.1651Z"/>
    <path id="Path-688" data-name="Path" class="top-prim" d="M111.25,191.2472l-7.5-4.33,3.75-2.165,3.75,2.165Z"/>
    <path id="Path-689" data-name="Path" class="top-prim" d="M77.5,171.7617l-7.5-4.33,3.75-2.1651,3.75,2.1651Z"/>
    <path id="Path-690" data-name="Path" class="top-prim" d="M43.75,152.2761l-7.5-4.33L40,145.7809l3.75,2.1651Z"/>
    <path id="Path-691" data-name="Path" class="top-prim" d="M10,132.7905l-7.5-4.33,3.75-2.1651L10,128.46Z"/>
    <path id="Path-692" data-name="Path" class="top-prim" d="M133.75,204.2376l-7.5-4.33,3.75-2.165,3.75,2.165Z"/>
    <path id="Path-693" data-name="Path" class="top-prim" d="M100,184.7521l-7.5-4.33,3.75-2.165,3.75,2.165Z"/>
    <path id="Path-694" data-name="Path" class="top-prim" d="M66.25,165.2665l-7.5-4.33,3.75-2.1651,3.75,2.1651Z"/>
    <path id="Path-695" data-name="Path" class="top-prim" d="M32.5,145.7809l-7.5-4.33,3.75-2.1651,3.75,2.1651Z"/>
    <path id="Path-696" data-name="Path" class="top-prim" d="M156.25,251.869l-7.5-4.33,3.75-2.1651,3.75,2.1651Z"/>
    <path id="Path-697" data-name="Path" class="top-prim" d="M122.5,232.3834l-7.5-4.33,3.75-2.165,3.75,2.165Z"/>
    <path id="Path-698" data-name="Path" class="top-prim" d="M88.75,212.8979l-7.5-4.33L85,206.4027l3.75,2.1651Z"/>
    <path id="Path-699" data-name="Path" class="top-prim" d="M55,193.4123l-7.5-4.33,3.75-2.1651L55,189.0822Z"/>
    <path id="Path-700" data-name="Path" class="top-prim" d="M21.25,173.9267l-7.5-4.33,3.75-2.165,3.75,2.165Z"/>
    <path id="Path-701" data-name="Path" class="top-prim" d="M145,245.3738l-7.5-4.33,3.75-2.165,3.75,2.165Z"/>
    <path id="Path-702" data-name="Path" class="top-prim" d="M111.25,225.8882l-7.5-4.33,3.75-2.165,3.75,2.165Z"/>
    <path id="Path-703" data-name="Path" class="top-prim" d="M77.5,206.4027l-7.5-4.33,3.75-2.1651,3.75,2.1651Z"/>
    <path id="Path-704" data-name="Path" class="top-prim" d="M43.75,186.9171l-7.5-4.33L40,180.4219l3.75,2.1651Z"/>
    <path id="Path-705" data-name="Path" class="top-prim" d="M10,167.4315l-7.5-4.33,3.75-2.165,3.75,2.165Z"/>
    <path id="Path-706" data-name="Path" class="top-prim" d="M133.75,238.8787l-7.5-4.33,3.75-2.165,3.75,2.165Z"/>
    <path id="Path-707" data-name="Path" class="top-prim" d="M100,219.3931l-7.5-4.33,3.75-2.1651L100,215.063Z"/>
    <path id="Path-708" data-name="Path" class="top-prim" d="M66.25,199.9075l-7.5-4.33,3.75-2.1651,3.75,2.1651Z"/>
    <path id="Path-709" data-name="Path" class="top-prim" d="M32.5,180.4219l-7.5-4.33,3.75-2.165,3.75,2.165Z"/>
    <path id="Path-710" data-name="Path" class="top-prim" d="M156.25,286.51l-7.5-4.33,3.75-2.165,3.75,2.165Z"/>
    <path id="Path-711" data-name="Path" class="top-prim" d="M122.5,267.0245l-7.5-4.33,3.75-2.165,3.75,2.165Z"/>
    <path id="Path-712" data-name="Path" class="top-prim" d="M88.75,247.5389l-7.5-4.33L85,241.0437l3.75,2.1651Z"/>
    <path id="Path-713" data-name="Path" class="top-prim" d="M55,228.0533l-7.5-4.33,3.75-2.1651L55,223.7232Z"/>
    <path id="Path-714" data-name="Path" class="top-prim" d="M21.25,208.5677l-7.5-4.33,3.75-2.165,3.75,2.165Z"/>
    <path id="Path-715" data-name="Path" class="top-prim" d="M145,280.0148l-7.5-4.33,3.75-2.165,3.75,2.165Z"/>
    <path id="Path-716" data-name="Path" class="top-prim" d="M111.25,260.5293l-7.5-4.33,3.75-2.1651,3.75,2.1651Z"/>
    <path id="Path-717" data-name="Path" class="top-prim" d="M77.5,241.0437l-7.5-4.33,3.75-2.1651,3.75,2.1651Z"/>
    <path id="Path-718" data-name="Path" class="top-prim" d="M43.75,221.5581l-7.5-4.33L40,215.0629l3.75,2.1651Z"/>
    <path id="Path-719" data-name="Path" class="top-prim" d="M10,202.0726l-7.5-4.33,3.75-2.165,3.75,2.165Z"/>
    <path id="Path-720" data-name="Path" class="top-prim" d="M133.75,273.52l-7.5-4.33,3.75-2.1651,3.75,2.1651Z"/>
    <path id="Path-721" data-name="Path" class="top-prim" d="M100,254.0341l-7.5-4.33,3.75-2.1651L100,249.704Z"/>
    <path id="Path-722" data-name="Path" class="top-prim" d="M66.25,234.5485l-7.5-4.33,3.75-2.165,3.75,2.165Z"/>
    <path id="Path-723" data-name="Path" class="top-prim" d="M32.5,215.0629l-7.5-4.33,3.75-2.165,3.75,2.165Z"/>
    <path id="Path-724" data-name="Path" class="top-prim" d="M156.25,321.1511l-7.5-4.33,3.75-2.165,3.75,2.165Z"/>
    <path id="Path-725" data-name="Path" class="top-prim" d="M122.5,301.6655l-7.5-4.33,3.75-2.1651,3.75,2.1651Z"/>
    <path id="Path-726" data-name="Path" class="top-prim" d="M88.75,282.18l-7.5-4.33L85,275.6847l3.75,2.1651Z"/>
    <path id="Path-727" data-name="Path" class="top-prim" d="M55,262.6943l-7.5-4.33,3.75-2.165,3.75,2.165Z"/>
    <path id="Path-728" data-name="Path" class="top-prim" d="M21.25,243.2088l-7.5-4.33,3.75-2.1651,3.75,2.1651Z"/>
    <path id="Path-729" data-name="Path" class="top-prim" d="M145,314.6559l-7.5-4.33,3.75-2.1651,3.75,2.1651Z"/>
    <path id="Path-730" data-name="Path" class="top-prim" d="M111.25,295.17l-7.5-4.33,3.75-2.1651,3.75,2.1651Z"/>
    <path id="Path-731" data-name="Path" class="top-prim" d="M77.5,275.6847l-7.5-4.33,3.75-2.165,3.75,2.165Z"/>
    <path id="Path-732" data-name="Path" class="top-prim" d="M43.75,256.1991l-7.5-4.33L40,249.704l3.75,2.165Z"/>
    <path id="Path-733" data-name="Path" class="top-prim" d="M10,236.7136l-7.5-4.33,3.75-2.1651L10,232.3835Z"/>
    <path id="Path-734" data-name="Path" class="top-prim" d="M133.75,308.1607l-7.5-4.33,3.75-2.1651,3.75,2.1651Z"/>
    <path id="Path-735" data-name="Path" class="top-prim" d="M100,288.6751l-7.5-4.33,3.75-2.1651L100,284.345Z"/>
    <path id="Path-736" data-name="Path" class="top-prim" d="M66.25,269.19l-7.5-4.33,3.75-2.165,3.75,2.165Z"/>
    <path id="Path-737" data-name="Path" class="top-prim" d="M32.5,249.704l-7.5-4.33,3.75-2.1651,3.75,2.1651Z"/>
    <path id="Path-738" data-name="Path" class="top-prim" d="M156.25,355.7921l-7.5-4.33,3.75-2.1651,3.75,2.1651Z"/>
    <path id="Path-739" data-name="Path" class="top-prim" d="M122.5,336.3065l-7.5-4.33,3.75-2.1651,3.75,2.1651Z"/>
    <path id="Path-740" data-name="Path" class="top-prim" d="M88.75,316.8209l-7.5-4.33,3.75-2.165,3.75,2.165Z"/>
    <path id="Path-741" data-name="Path" class="top-prim" d="M55,297.3354l-7.5-4.33,3.75-2.165,3.75,2.165Z"/>
    <path id="Path-742" data-name="Path" class="top-prim" d="M21.25,277.85l-7.5-4.33,3.75-2.1651,3.75,2.1651Z"/>
    <path id="Path-743" data-name="Path" class="top-prim" d="M145,349.2969l-7.5-4.33,3.75-2.1651,3.75,2.1651Z"/>
    <path id="Path-744" data-name="Path" class="top-prim" d="M111.25,329.8113l-7.5-4.33,3.75-2.1651,3.75,2.1651Z"/>
    <path id="Path-745" data-name="Path" class="top-prim" d="M77.5,310.3257l-7.5-4.33,3.75-2.165,3.75,2.165Z"/>
    <path id="Path-746" data-name="Path" class="top-prim" d="M43.75,290.84l-7.5-4.33L40,284.345l3.75,2.165Z"/>
    <path id="Path-747" data-name="Path" class="top-prim" d="M10,271.3546l-7.5-4.33,3.75-2.1651L10,267.0245Z"/>
    <path id="Path-748" data-name="Path" class="top-prim" d="M133.75,342.8017l-7.5-4.33,3.75-2.1651,3.75,2.1651Z"/>
    <path id="Path-749" data-name="Path" class="top-prim" d="M100,323.3161l-7.5-4.33,3.75-2.1651L100,318.986Z"/>
    <path id="Path-750" data-name="Path" class="top-prim" d="M66.25,303.8306l-7.5-4.33,3.75-2.1651,3.75,2.1651Z"/>
    <path id="Path-751" data-name="Path" class="top-prim" d="M32.5,284.345l-7.5-4.33,3.75-2.1651,3.75,2.1651Z"/>
    <path id="Path-752" data-name="Path" class="top-prim" d="M156.25,390.4331l-7.5-4.33,3.75-2.1651,3.75,2.1651Z"/>
    <path id="Path-753" data-name="Path" class="top-prim" d="M122.5,370.9475l-7.5-4.33,3.75-2.1651,3.75,2.1651Z"/>
    <path id="Path-754" data-name="Path" class="top-prim" d="M88.75,351.462l-7.5-4.33,3.75-2.165,3.75,2.165Z"/>
    <path id="Path-755" data-name="Path" class="top-prim" d="M55,331.9764l-7.5-4.33,3.75-2.1651L55,327.6463Z"/>
    <path id="Path-756" data-name="Path" class="top-prim" d="M21.25,312.4908l-7.5-4.33,3.75-2.1651,3.75,2.1651Z"/>
    <path id="Path-757" data-name="Path" class="top-prim" d="M145,383.9379l-7.5-4.33,3.75-2.1651,3.75,2.1651Z"/>
    <path id="Path-758" data-name="Path" class="top-prim" d="M111.25,364.4523l-7.5-4.33,3.75-2.1651,3.75,2.1651Z"/>
    <path id="Path-759" data-name="Path" class="top-prim" d="M77.5,344.9668l-7.5-4.33,3.75-2.1651,3.75,2.1651Z"/>
    <path id="Path-760" data-name="Path" class="top-prim" d="M43.75,325.4812l-7.5-4.33L40,318.986l3.75,2.1651Z"/>
    <path id="Path-761" data-name="Path" class="top-prim" d="M10,305.9956l-7.5-4.33L6.25,299.5,10,301.6655Z"/>
    <path id="Path-762" data-name="Path" class="top-prim" d="M133.75,377.4427l-7.5-4.33,3.75-2.1651,3.75,2.1651Z"/>
    <path id="Path-763" data-name="Path" class="top-prim" d="M100,357.9571l-7.5-4.33,3.75-2.165,3.75,2.165Z"/>
    <path id="Path-764" data-name="Path" class="top-prim" d="M66.25,338.4716l-7.5-4.33,3.75-2.1651,3.75,2.1651Z"/>
    <path id="Path-765" data-name="Path" class="top-prim" d="M32.5,318.986l-7.5-4.33,3.75-2.1651,3.75,2.1651Z"/>
    <path id="Path-766" data-name="Path" class="top-prim" d="M156.25,425.0741l-7.5-4.33,3.75-2.1651,3.75,2.1651Z"/>
    <path id="Path-767" data-name="Path" class="top-prim" d="M122.5,405.5885l-7.5-4.33,3.75-2.1651,3.75,2.1651Z"/>
    <path id="Path-768" data-name="Path" class="top-prim" d="M88.75,386.103l-7.5-4.33L85,379.6078l3.75,2.1651Z"/>
    <path id="Path-769" data-name="Path" class="top-prim" d="M55,366.6174l-7.5-4.33,3.75-2.1651L55,362.2873Z"/>
    <path id="Path-770" data-name="Path" class="top-prim" d="M21.25,347.1318l-7.5-4.33,3.75-2.1651,3.75,2.1651Z"/>
    <path id="Path-771" data-name="Path" class="top-prim" d="M145,418.5789l-7.5-4.33,3.75-2.1651,3.75,2.1651Z"/>
    <path id="Path-772" data-name="Path" class="top-prim" d="M111.25,399.0933l-7.5-4.33,3.75-2.165,3.75,2.165Z"/>
    <path id="Path-773" data-name="Path" class="top-prim" d="M77.5,379.6078l-7.5-4.33,3.75-2.1651,3.75,2.1651Z"/>
    <path id="Path-774" data-name="Path" class="top-prim" d="M43.75,360.1222l-7.5-4.33L40,353.627l3.75,2.1651Z"/>
    <path id="Path-775" data-name="Path" class="top-prim" d="M10,340.6366l-7.5-4.33,3.75-2.1651L10,336.3065Z"/>
    <path id="Path-776" data-name="Path" class="top-prim" d="M133.75,412.0837l-7.5-4.33,3.75-2.165,3.75,2.165Z"/>
    <path id="Path-777" data-name="Path" class="top-prim" d="M100,392.5982l-7.5-4.33,3.75-2.165,3.75,2.165Z"/>
    <path id="Path-778" data-name="Path" class="top-prim" d="M66.25,373.1126l-7.5-4.33,3.75-2.1651,3.75,2.1651Z"/>
    <path id="Path-779" data-name="Path" class="top-prim" d="M32.5,353.627l-7.5-4.33,3.75-2.1651,3.75,2.1651Z"/>
    <path id="Path-780" data-name="Path" class="top-prim" d="M156.25,459.7151l-7.5-4.33,3.75-2.1651,3.75,2.1651Z"/>
    <path id="Path-781" data-name="Path" class="top-prim" d="M122.5,440.23l-7.5-4.33,3.75-2.165,3.75,2.165Z"/>
    <path id="Path-782" data-name="Path" class="top-prim" d="M88.75,420.744l-7.5-4.33L85,414.2488l3.75,2.1651Z"/>
    <path id="Path-783" data-name="Path" class="top-prim" d="M55,401.2584l-7.5-4.33,3.75-2.1651L55,396.9283Z"/>
    <path id="Path-784" data-name="Path" class="top-prim" d="M21.25,381.7728l-7.5-4.33,3.75-2.165,3.75,2.165Z"/>
    <path id="Path-785" data-name="Path" class="top-prim" d="M145,453.22l-7.5-4.33,3.75-2.1651L145,448.89Z"/>
    <path id="Path-786" data-name="Path" class="top-prim" d="M111.25,433.7343l-7.5-4.33,3.75-2.165,3.75,2.165Z"/>
    <path id="Path-787" data-name="Path" class="top-prim" d="M77.5,414.2488l-7.5-4.33,3.75-2.1651,3.75,2.1651Z"/>
    <path id="Path-788" data-name="Path" class="top-prim" d="M43.75,394.7632l-7.5-4.33L40,388.268l3.75,2.1651Z"/>
    <path id="Path-789" data-name="Path" class="top-prim" d="M10,375.2776l-7.5-4.33,3.75-2.165,3.75,2.165Z"/>
    <path id="Path-790" data-name="Path" class="top-prim" d="M133.75,446.7247l-7.5-4.33L130,440.23l3.75,2.165Z"/>
    <path id="Path-791" data-name="Path" class="top-prim" d="M100,427.2392l-7.5-4.33,3.75-2.1651,3.75,2.1651Z"/>
    <path id="Path-792" data-name="Path" class="top-prim" d="M66.25,407.7536l-7.5-4.33,3.75-2.1651,3.75,2.1651Z"/>
    <path id="Path-793" data-name="Path" class="top-prim" d="M32.5,388.268l-7.5-4.33,3.75-2.1651,3.75,2.1651Z"/>
    <path id="Path-794" data-name="Path" class="top-prim" d="M156.25,494.3561l-7.5-4.33,3.75-2.165,3.75,2.165Z"/>
    <path id="Path-795" data-name="Path" class="top-prim" d="M122.5,474.8706l-7.5-4.33,3.75-2.165,3.75,2.165Z"/>
    <path id="Path-796" data-name="Path" class="top-prim" d="M88.75,455.385l-7.5-4.33L85,448.89l3.75,2.1651Z"/>
    <path id="Path-797" data-name="Path" class="top-prim" d="M55,435.8994l-7.5-4.33,3.75-2.1651L55,431.5693Z"/>
    <path id="Path-798" data-name="Path" class="top-prim" d="M21.25,416.4138l-7.5-4.33,3.75-2.165,3.75,2.165Z"/>
    <path id="Path-799" data-name="Path" class="top-prim" d="M145,487.8609l-7.5-4.33,3.75-2.165,3.75,2.165Z"/>
    <path id="Path-800" data-name="Path" class="top-prim" d="M111.25,468.3754l-7.5-4.33,3.75-2.1651,3.75,2.1651Z"/>
    <path id="Path-801" data-name="Path" class="top-prim" d="M77.5,448.89,70,444.56l3.75-2.1651L77.5,444.56Z"/>
    <path id="Path-802" data-name="Path" class="top-prim" d="M43.75,429.4042l-7.5-4.33L40,422.909l3.75,2.1651Z"/>
    <path id="Path-803" data-name="Path" class="top-prim" d="M10,409.9187l-7.5-4.33,3.75-2.165,3.75,2.165Z"/>
    <path id="Path-804" data-name="Path" class="top-prim" d="M133.75,481.3658l-7.5-4.33,3.75-2.1651,3.75,2.1651Z"/>
    <path id="Path-805" data-name="Path" class="top-prim" d="M100,461.88l-7.5-4.33,3.75-2.1651L100,457.55Z"/>
    <path id="Path-806" data-name="Path" class="top-prim" d="M66.25,442.3946l-7.5-4.33L62.5,435.9l3.75,2.165Z"/>
    <path id="Path-807" data-name="Path" class="top-prim" d="M32.5,422.909l-7.5-4.33,3.75-2.165,3.75,2.165Z"/>
    <path id="Path-808" data-name="Path" class="top-prim" d="M156.25,528.9972l-7.5-4.33,3.75-2.165,3.75,2.165Z"/>
    <path id="Path-809" data-name="Path" class="top-prim" d="M122.5,509.5116l-7.5-4.33,3.75-2.1651,3.75,2.1651Z"/>
    <path id="Path-810" data-name="Path" class="top-prim" d="M88.75,490.026l-7.5-4.33L85,483.5308l3.75,2.1651Z"/>
    <path id="Path-811" data-name="Path" class="top-prim" d="M55,470.54l-7.5-4.33,3.75-2.165L55,466.21Z"/>
    <path id="Path-812" data-name="Path" class="top-prim" d="M21.25,451.0549l-7.5-4.33L17.5,444.56l3.75,2.1651Z"/>
    <path id="Path-813" data-name="Path" class="top-prim" d="M145,522.502l-7.5-4.33,3.75-2.1651,3.75,2.1651Z"/>
    <path id="Path-814" data-name="Path" class="top-prim" d="M111.25,503.0164l-7.5-4.33,3.75-2.1651,3.75,2.1651Z"/>
    <path id="Path-815" data-name="Path" class="top-prim" d="M77.5,483.5308l-7.5-4.33,3.75-2.1651,3.75,2.1651Z"/>
    <path id="Path-816" data-name="Path" class="top-prim" d="M43.75,464.0452l-7.5-4.33L40,457.55l3.75,2.165Z"/>
    <path id="Path-817" data-name="Path" class="top-prim" d="M10,444.56l-7.5-4.33,3.75-2.1651L10,440.23Z"/>
    <path id="Path-818" data-name="Path" class="top-prim" d="M133.75,516.0068l-7.5-4.33,3.75-2.1651,3.75,2.1651Z"/>
    <path id="Path-819" data-name="Path" class="top-prim" d="M100,496.5212l-7.5-4.33,3.75-2.1651,3.75,2.1651Z"/>
    <path id="Path-820" data-name="Path" class="top-prim" d="M66.25,477.0356l-7.5-4.33,3.75-2.165,3.75,2.165Z"/>
    <path id="Path-821" data-name="Path" class="top-prim" d="M32.5,457.55,25,453.22l3.75-2.1651L32.5,453.22Z"/>
    <path id="Path-822" data-name="Path" class="top-prim" d="M156.25,563.6382l-7.5-4.33,3.75-2.1651,3.75,2.1651Z"/>
    <path id="Path-823" data-name="Path" class="top-prim" d="M122.5,544.1526l-7.5-4.33,3.75-2.1651,3.75,2.1651Z"/>
    <path id="Path-824" data-name="Path" class="top-prim" d="M88.75,524.6671l-7.5-4.33,3.75-2.165,3.75,2.165Z"/>
    <path id="Path-825" data-name="Path" class="top-prim" d="M55,505.1815l-7.5-4.33,3.75-2.1651L55,500.8514Z"/>
    <path id="Path-826" data-name="Path" class="top-prim" d="M21.25,485.6959l-7.5-4.33,3.75-2.1651,3.75,2.1651Z"/>
    <path id="Path-827" data-name="Path" class="top-prim" d="M145,557.143l-7.5-4.33,3.75-2.1651,3.75,2.1651Z"/>
    <path id="Path-828" data-name="Path" class="top-prim" d="M111.25,537.6574l-7.5-4.33,3.75-2.1651,3.75,2.1651Z"/>
    <path id="Path-829" data-name="Path" class="top-prim" d="M77.5,518.1719l-7.5-4.33,3.75-2.165,3.75,2.165Z"/>
    <path id="Path-830" data-name="Path" class="top-prim" d="M43.75,498.6863l-7.5-4.33L40,492.1911l3.75,2.1651Z"/>
    <path id="Path-831" data-name="Path" class="top-prim" d="M10,479.2007l-7.5-4.33,3.75-2.1651L10,474.8706Z"/>
    <path id="Path-832" data-name="Path" class="top-prim" d="M133.75,550.6478l-7.5-4.33,3.75-2.1651,3.75,2.1651Z"/>
    <path id="Path-833" data-name="Path" class="top-prim" d="M100,531.1622l-7.5-4.33,3.75-2.165,3.75,2.165Z"/>
    <path id="Path-834" data-name="Path" class="top-prim" d="M66.25,511.6767l-7.5-4.33,3.75-2.1651,3.75,2.1651Z"/>
    <path id="Path-835" data-name="Path" class="top-prim" d="M32.5,492.1911l-7.5-4.33,3.75-2.1651,3.75,2.1651Z"/>
    <path id="Path-836" data-name="Path" class="top-prim" d="M156.25,598.2792l-7.5-4.33,3.75-2.1651,3.75,2.1651Z"/>
    <path id="Path-837" data-name="Path" class="top-prim" d="M122.5,578.7936l-7.5-4.33,3.75-2.1651,3.75,2.1651Z"/>
    <path id="Path-838" data-name="Path" class="top-prim" d="M88.75,559.3081l-7.5-4.33L85,552.8129l3.75,2.1651Z"/>
    <path id="Path-839" data-name="Path" class="top-prim" d="M55,539.8225l-7.5-4.33,3.75-2.1651L55,535.4924Z"/>
    <path id="Path-840" data-name="Path" class="top-prim" d="M21.25,520.3369l-7.5-4.33,3.75-2.1651,3.75,2.1651Z"/>
    <path id="Path-841" data-name="Path" class="top-prim" d="M145,591.784l-7.5-4.33,3.75-2.1651,3.75,2.1651Z"/>
    <path id="Path-842" data-name="Path" class="top-prim" d="M111.25,572.2984l-7.5-4.33,3.75-2.165,3.75,2.165Z"/>
    <path id="Path-843" data-name="Path" class="top-prim" d="M77.5,552.8129l-7.5-4.33,3.75-2.1651,3.75,2.1651Z"/>
    <path id="Path-844" data-name="Path" class="top-prim" d="M43.75,533.3273l-7.5-4.33L40,526.8321l3.75,2.1651Z"/>
    <path id="Path-845" data-name="Path" class="top-prim" d="M10,513.8417l-7.5-4.33,3.75-2.1651L10,509.5116Z"/>
    <path id="Path-846" data-name="Path" class="top-prim" d="M133.75,585.2888l-7.5-4.33,3.75-2.165,3.75,2.165Z"/>
    <path id="Path-847" data-name="Path" class="top-prim" d="M100,565.8033l-7.5-4.33,3.75-2.165,3.75,2.165Z"/>
    <path id="Path-848" data-name="Path" class="top-prim" d="M66.25,546.3177l-7.5-4.33,3.75-2.1651,3.75,2.1651Z"/>
    <path id="Path-849" data-name="Path" class="top-prim" d="M32.5,526.8321l-7.5-4.33,3.75-2.1651,3.75,2.1651Z"/>
  </g>
</svg>
