<svg id="Layer_1" data-name="Layer 1" xmlns="http://www.w3.org/2000/svg" viewBox="0 0 260 727.4612">
  <defs>
    <style>
      .curtain-R-prim-light {
        fill: #59acd0;
      }

      .curtain-L-prim-light {
        fill: #438fb0;
      }

      .top-dark {
        fill: #c67471;
      }

      .curtain-L-prim-dark {
        fill: #2f5565;
      }

      .curtain-R-prim-dark {
        fill: #3e809c;
      }
    </style>
  </defs>
  <title>Artboard 7</title>
  <g id="root">
    <path id="Path" class="curtain-R-prim-light" d="M160,150.1109l-5-2.8868v577.35l5,2.8867,100-57.7349V92.3759Z"/>
    <path id="Path-2" data-name="Path" class="curtain-L-prim-light" d="M0,57.7349v577.35l160,92.3761v-577.35Z"/>
    <path id="anchor_0_150.111_260" class="top-dark" d="M260,98.1494l-100,57.735L0,63.5084V57.735L100,0,260,92.376Z"/>
    <path id="Path-3" data-name="Path" class="curtain-L-prim-dark" d="M160,288.675,0,196.2989v23.094L160,311.769Z"/>
    <path id="Path-4" data-name="Path" class="curtain-L-prim-dark" d="M160,242.4868,0,150.1107v23.094l160,92.3761Z"/>
    <path id="Path-5" data-name="Path" class="curtain-L-prim-dark" d="M160,196.2989,0,103.9229v23.094l160,92.376Z"/>
    <path id="Path-6" data-name="Path" class="curtain-L-prim-dark" d="M160,150.1109,0,57.7348v23.094l160,92.3761Z"/>
    <path id="Path-7" data-name="Path" class="curtain-L-prim-dark" d="M160,334.8631,0,242.4871v23.094l160,92.376Z"/>
    <path id="Path-8" data-name="Path" class="curtain-L-prim-dark" d="M160,381.051,0,288.675v23.0939L160,404.145Z"/>
    <path id="Path-9" data-name="Path" class="curtain-L-prim-dark" d="M160,427.2392,0,334.8631v23.094l160,92.3761Z"/>
    <path id="Path-10" data-name="Path" class="curtain-L-prim-dark" d="M160,473.4272,0,381.0511v23.094l160,92.3761Z"/>
    <path id="Path-11" data-name="Path" class="curtain-L-prim-dark" d="M160,519.6156,0,427.24v23.094L160,542.71Z"/>
    <path id="Path-12" data-name="Path" class="curtain-L-prim-dark" d="M160,565.8036,0,473.4275v23.094l160,92.3761Z"/>
    <path id="Path-13" data-name="Path" class="curtain-L-prim-dark" d="M160,611.9916,0,519.6156V542.71l160,92.376Z"/>
    <path id="Path-14" data-name="Path" class="curtain-L-prim-dark" d="M160,658.18,0,565.8036v23.094l160,92.3761Z"/>
    <path id="Path-15" data-name="Path" class="curtain-L-prim-dark" d="M160,704.3672,0,611.9911v23.094l160,92.3761Z"/>
    <path id="Path-16" data-name="Path" class="curtain-R-prim-dark" d="M160,288.675,260,230.94v23.094L160,311.769Z"/>
    <path id="Path-17" data-name="Path" class="curtain-R-prim-dark" d="M160,334.8631l100-57.735v23.094l-100,57.735Z"/>
    <path id="Path-18" data-name="Path" class="curtain-R-prim-dark" d="M160,381.051l100-57.735V346.41L160,404.145Z"/>
    <path id="Path-19" data-name="Path" class="curtain-R-prim-dark" d="M160,242.4868l100-57.735v23.094l-100,57.735Z"/>
    <path id="Path-20" data-name="Path" class="curtain-R-prim-dark" d="M160,196.2989l100-57.735v23.094l-100,57.735Z"/>
    <path id="Path-21" data-name="Path" class="curtain-R-prim-dark" d="M160,150.1109l100-57.735V115.47l-100,57.735Z"/>
    <path id="Path-22" data-name="Path" class="curtain-R-prim-dark" d="M160,427.2392l100-57.735v23.094l-100,57.735Z"/>
    <path id="Path-23" data-name="Path" class="curtain-R-prim-dark" d="M160,473.4272l100-57.7351v23.0941l-100,57.735Z"/>
    <path id="Path-24" data-name="Path" class="curtain-R-prim-dark" d="M160,519.6156l100-57.7351v23.094L160,542.71Z"/>
    <path id="Path-25" data-name="Path" class="curtain-R-prim-dark" d="M160,565.8036l100-57.7351v23.0941l-100,57.735Z"/>
    <path id="Path-26" data-name="Path" class="curtain-R-prim-dark" d="M160,611.9916l100-57.735v23.094l-100,57.735Z"/>
    <path id="Path-27" data-name="Path" class="curtain-R-prim-dark" d="M160,658.18l100-57.7351v23.094L160,681.2737Z"/>
    <path id="Path-28" data-name="Path" class="curtain-R-prim-dark" d="M160,704.3672l100-57.7351v23.0941l-100,57.735Z"/>
  </g>
</svg>
