<svg id="Layer_1" data-name="Layer 1" xmlns="http://www.w3.org/2000/svg" viewBox="0 0 260 610.5479">
  <defs>
    <style>
      .top-dark {
        fill: #c67471;
      }

      .exterior-R-dark {
        fill: #a64c49;
      }

      .exterior-L-dark {
        fill: #512220;
      }

      .exterior-R-prim {
        fill: #d05752;
      }

      .exterior-L-prim {
        fill: #73302e;
      }

      .window-L-light {
        fill: #795a30;
      }

      .window-R-prim {
        fill: #bd9664;
      }

      .top-prim {
        fill: #dd8a87;
      }
    </style>
  </defs>
  <title>Artboard 14</title>
  <g id="root">
    <path id="anchor_0_150.111_260" class="top-dark" d="M260,98.15,160,155.8846,0,63.5085V57.735L100,0,260,92.376Z"/>
    <path id="Path" class="exterior-R-dark" d="M160,150.1111l-2.5,4.33v453.22l2.5,2.8867,100-57.735V92.3761Z"/>
    <path id="Path-2" data-name="Path" class="exterior-L-dark" d="M0,57.735V518.1719l160,92.376V150.1111Z"/>
    <path id="Path-3" data-name="Path" class="exterior-R-prim" d="M160,160.2147,260,102.48V92.376L160,150.1111Z"/>
    <path id="Path-4" data-name="Path" class="exterior-R-prim" d="M160,610.5479l100-57.735V542.7093l-100,57.735Z"/>
    <path id="Path-5" data-name="Path" class="exterior-L-prim" d="M160,160.2147,0,67.8387V57.735l160,92.3761Z"/>
    <path id="Path-6" data-name="Path" class="exterior-L-prim" d="M160,610.5479,0,518.1719V508.0683l160,92.376Z"/>
    <path id="Path-7" data-name="Path" class="window-L-light" d="M156.25,158.05l-7.5-4.33v440.23l7.5,4.33Z"/>
    <path id="Path-8" data-name="Path" class="window-L-light" d="M111.25,132.0689l-7.5-4.33v440.23l7.5,4.33Z"/>
    <path id="Path-9" data-name="Path" class="window-L-light" d="M66.25,106.0882l-7.5-4.33v440.23l7.5,4.33Z"/>
    <path id="Path-10" data-name="Path" class="window-L-light" d="M21.25,80.1074l-7.5-4.33v440.23l7.5,4.33Z"/>
    <path id="Path-11" data-name="Path" class="window-L-light" d="M133.75,145.0593l-7.5-4.33v440.23l7.5,4.33Z"/>
    <path id="Path-12" data-name="Path" class="window-L-light" d="M88.75,119.0785l-7.5-4.33v440.23l7.5,4.33Z"/>
    <path id="Path-13" data-name="Path" class="window-L-light" d="M43.75,93.0978l-7.5-4.33v440.23l7.5,4.33Z"/>
    <path id="Path-14" data-name="Path" class="window-L-light" d="M145,151.5545l-7.5-4.33v440.23l7.5,4.33Z"/>
    <path id="Path-15" data-name="Path" class="window-L-light" d="M100,125.5737l-7.5-4.33v440.23l7.5,4.33Z"/>
    <path id="Path-16" data-name="Path" class="window-L-light" d="M55,99.593l-7.5-4.33v440.23l7.5,4.33Z"/>
    <path id="Path-17" data-name="Path" class="window-L-light" d="M10,73.6122l-7.5-4.33v440.23l7.5,4.33Z"/>
    <path id="Path-18" data-name="Path" class="window-L-light" d="M122.5,138.5641l-7.5-4.33v440.23l7.5,4.33Z"/>
    <path id="Path-19" data-name="Path" class="window-L-light" d="M77.5,112.5833l-7.5-4.33v440.23l7.5,4.33Z"/>
    <path id="Path-20" data-name="Path" class="window-L-light" d="M32.5,86.6026l-7.5-4.33v440.23l7.5,4.33Z"/>
    <path id="Path-21" data-name="Path" class="window-R-prim" d="M163.75,158.05l10-5.7736v440.23l-10,5.7734Z"/>
    <path id="Path-22" data-name="Path" class="window-R-prim" d="M191.25,142.1725l10-5.7735v440.23l-10,5.7735Z"/>
    <path id="Path-23" data-name="Path" class="window-R-prim" d="M218.75,126.2954l10-5.7736v440.23l-10,5.7735Z"/>
    <path id="Path-24" data-name="Path" class="window-R-prim" d="M246.25,110.4183l10-5.7736v440.23l-10,5.7735Z"/>
    <path id="Path-25" data-name="Path" class="window-R-prim" d="M177.5,150.1111l10-5.7735v440.23l-10,5.7735Z"/>
    <path id="Path-26" data-name="Path" class="window-R-prim" d="M205,134.234l10-5.7736V568.69l-10,5.7736Z"/>
    <path id="Path-27" data-name="Path" class="window-R-prim" d="M232.5,118.3568l10-5.7735v440.23l-10,5.7735Z"/>
    <g id="Group-2" data-name="Group">
      <path id="Path-28" data-name="Path" class="exterior-L-dark" d="M256.25,104.6447v440.23l-3.75-2.1651V106.81Z"/>
      <path id="Path-29" data-name="Path" class="exterior-L-dark" d="M242.5,112.5833v440.23l-3.75-2.1651V114.7484Z"/>
      <path id="Path-30" data-name="Path" class="exterior-L-dark" d="M228.75,120.5218v440.23L225,558.5863V122.6869Z"/>
      <path id="Path-31" data-name="Path" class="exterior-L-dark" d="M215,128.46V568.69l-3.75-2.1651V130.6255Z"/>
      <path id="Path-32" data-name="Path" class="exterior-L-dark" d="M201.25,136.399v440.23l-3.75-2.1651V138.5641Z"/>
      <path id="Path-33" data-name="Path" class="exterior-L-dark" d="M187.5,144.3376v440.23l-3.75-2.1651V146.5026Z"/>
      <path id="Path-34" data-name="Path" class="exterior-L-dark" d="M173.75,152.2762v440.23L170,590.3406V154.4412Z"/>
    </g>
    <g id="Group-3" data-name="Group">
      <path id="Path-35" data-name="Path" class="exterior-R-dark" d="M148.75,153.72v440.23l3.75-2.1651V155.8846Z"/>
      <path id="Path-36" data-name="Path" class="exterior-R-dark" d="M115,134.2339v440.23l3.75-2.1651V136.399Z"/>
      <path id="Path-37" data-name="Path" class="exterior-R-dark" d="M81.25,114.7484v440.23L85,552.8129V116.9135Z"/>
      <path id="Path-38" data-name="Path" class="exterior-R-dark" d="M47.5,95.2628v440.23l3.75-2.1651V97.4279Z"/>
      <path id="Path-39" data-name="Path" class="exterior-R-dark" d="M13.75,75.7772v440.23l3.75-2.1651V77.9423Z"/>
      <path id="Path-40" data-name="Path" class="exterior-R-dark" d="M137.5,147.2243v440.23l3.75-2.1651V149.3894Z"/>
      <path id="Path-41" data-name="Path" class="exterior-R-dark" d="M103.75,127.7387v440.23l3.75-2.1651V129.9038Z"/>
      <path id="Path-42" data-name="Path" class="exterior-R-dark" d="M70,108.2532v440.23l3.75-2.1651V110.4183Z"/>
      <path id="Path-43" data-name="Path" class="exterior-R-dark" d="M36.25,88.7676v440.23L40,526.8321V90.9327Z"/>
      <path id="Path-44" data-name="Path" class="exterior-R-dark" d="M2.5,69.282v440.23l3.75-2.1651V71.4471Z"/>
      <path id="Path-45" data-name="Path" class="exterior-R-dark" d="M126.25,140.7291v440.23l3.75-2.1651V142.8942Z"/>
      <path id="Path-46" data-name="Path" class="exterior-R-dark" d="M92.5,121.2436v440.23l3.75-2.1651V123.4086Z"/>
      <path id="Path-47" data-name="Path" class="exterior-R-dark" d="M58.75,101.758v440.23l3.75-2.1651V103.9231Z"/>
      <path id="Path-48" data-name="Path" class="exterior-R-dark" d="M25,82.2724v440.23l3.75-2.1651V84.4375Z"/>
    </g>
    <path id="Path-49" data-name="Path" class="top-prim" d="M246.25,550.6478l10-5.7735-3.75-2.1651-6.25,3.6085Z"/>
    <path id="Path-50" data-name="Path" class="top-prim" d="M232.5,558.5863l10-5.7735-3.75-2.165-6.25,3.6084Z"/>
    <path id="Path-51" data-name="Path" class="top-prim" d="M218.75,566.5249l10-5.7735L225,558.5863l-6.25,3.6085Z"/>
    <path id="Path-52" data-name="Path" class="top-prim" d="M205,574.4635l10-5.7735-3.75-2.1651L205,570.1334Z"/>
    <path id="Path-53" data-name="Path" class="top-prim" d="M191.25,582.402l10-5.7735-3.75-2.165-6.25,3.6084Z"/>
    <path id="Path-54" data-name="Path" class="top-prim" d="M177.5,590.3406l10-5.7735-3.75-2.1651-6.25,3.6085Z"/>
    <path id="Path-55" data-name="Path" class="top-prim" d="M163.75,598.2792l10-5.7735L170,590.3406l-6.25,3.6085Z"/>
    <path id="Path-56" data-name="Path" class="top-prim" d="M156.25,598.2792l-7.5-4.33,3.75-2.1651,3.75,2.1651Z"/>
    <path id="Path-57" data-name="Path" class="top-prim" d="M122.5,578.7936l-7.5-4.33,3.75-2.1651,3.75,2.1651Z"/>
    <path id="Path-58" data-name="Path" class="top-prim" d="M88.75,559.3081l-7.5-4.33,3.75-2.165,3.75,2.165Z"/>
    <path id="Path-59" data-name="Path" class="top-prim" d="M55,539.8225l-7.5-4.33,3.75-2.1651L55,535.4924Z"/>
    <path id="Path-60" data-name="Path" class="top-prim" d="M21.25,520.3369l-7.5-4.33,3.75-2.1651,3.75,2.1651Z"/>
    <path id="Path-61" data-name="Path" class="top-prim" d="M145,591.784l-7.5-4.33,3.75-2.1651,3.75,2.1651Z"/>
    <path id="Path-62" data-name="Path" class="top-prim" d="M111.25,572.2984l-7.5-4.33,3.75-2.1651,3.75,2.1651Z"/>
    <path id="Path-63" data-name="Path" class="top-prim" d="M77.5,552.8129l-7.5-4.33,3.75-2.1651,3.75,2.1651Z"/>
    <path id="Path-64" data-name="Path" class="top-prim" d="M43.75,533.3273l-7.5-4.33L40,526.8321l3.75,2.1651Z"/>
    <path id="Path-65" data-name="Path" class="top-prim" d="M10,513.8417l-7.5-4.33,3.75-2.1651L10,509.5116Z"/>
    <path id="Path-66" data-name="Path" class="top-prim" d="M133.75,585.2888l-7.5-4.33,3.75-2.1651,3.75,2.1651Z"/>
    <path id="Path-67" data-name="Path" class="top-prim" d="M100,565.8032l-7.5-4.33,3.75-2.165,3.75,2.165Z"/>
    <path id="Path-68" data-name="Path" class="top-prim" d="M66.25,546.3177l-7.5-4.33,3.75-2.1651,3.75,2.1651Z"/>
    <path id="Path-69" data-name="Path" class="top-prim" d="M32.5,526.8321l-7.5-4.33,3.75-2.1651,3.75,2.1651Z"/>
  </g>
</svg>
