<svg id="Layer_1" data-name="Layer 1" xmlns="http://www.w3.org/2000/svg" viewBox="0 0 260 727.4612">
  <defs>
    <style>
      .top-dark {
        fill: #c67471;
      }

      .exterior-R-dark {
        fill: #a64c49;
      }

      .exterior-L-dark {
        fill: #512220;
      }

      .exterior-R-prim {
        fill: #d05752;
      }

      .exterior-L-prim {
        fill: #73302e;
      }

      .window-L-light {
        fill: #795a30;
      }

      .window-R-prim {
        fill: #bd9664;
      }

      .top-prim {
        fill: #dd8a87;
      }
    </style>
  </defs>
  <title>Artboard 13</title>
  <g id="root">
    <path id="anchor_0_150.111_260" class="top-dark" d="M260,98.1494l-100,57.735L0,63.5084V57.735L100,0,260,92.376Z"/>
    <path id="Path" class="exterior-R-dark" d="M160,150.1109l-5-2.8868v577.35l5,2.8868,100-57.735V92.3759Z"/>
    <path id="Path-2" data-name="Path" class="exterior-L-dark" d="M0,57.7349v577.35l160,92.376v-577.35Z"/>
    <path id="Path-3" data-name="Path" class="exterior-R-prim" d="M160,160.2145,260,102.48V92.3759l-100,57.735Z"/>
    <path id="Path-4" data-name="Path" class="exterior-R-prim" d="M160,727.4612l100-57.7351V659.6225L160,717.3576Z"/>
    <path id="Path-5" data-name="Path" class="exterior-L-prim" d="M160,160.2145,0,67.8385V57.7349l160,92.376Z"/>
    <path id="Path-6" data-name="Path" class="exterior-L-prim" d="M160,727.4612,0,635.0851V624.9815l160,92.3761Z"/>
    <path id="Path-7" data-name="Path" class="window-L-light" d="M156.25,158.05l-7.5-4.33V710.8624l7.5,4.33Z"/>
    <path id="Path-8" data-name="Path" class="window-L-light" d="M111.25,132.0687l-7.5-4.33v557.143l7.5,4.33Z"/>
    <path id="Path-9" data-name="Path" class="window-L-light" d="M66.25,106.088l-7.5-4.33v557.143l7.5,4.33Z"/>
    <path id="Path-10" data-name="Path" class="window-L-light" d="M21.25,80.1072l-7.5-4.33V632.92l7.5,4.33Z"/>
    <path id="Path-11" data-name="Path" class="window-L-light" d="M133.75,145.0591l-7.5-4.33V697.872l7.5,4.33Z"/>
    <path id="Path-12" data-name="Path" class="window-L-light" d="M88.75,119.0783l-7.5-4.33v557.143l7.5,4.33Z"/>
    <path id="Path-13" data-name="Path" class="window-L-light" d="M43.75,93.0976l-7.5-4.33V645.9105l7.5,4.33Z"/>
    <path id="Path-14" data-name="Path" class="window-L-light" d="M145,151.5543l-7.5-4.33V704.3672l7.5,4.33Z"/>
    <path id="Path-15" data-name="Path" class="window-L-light" d="M100,125.5735l-7.5-4.33v557.143l7.5,4.33Z"/>
    <path id="Path-16" data-name="Path" class="window-L-light" d="M55,99.5928l-7.5-4.33v557.143l7.5,4.33Z"/>
    <path id="Path-17" data-name="Path" class="window-L-light" d="M10,73.612l-7.5-4.33v557.143l7.5,4.33Z"/>
    <path id="Path-18" data-name="Path" class="window-L-light" d="M122.5,138.5639l-7.5-4.33v557.143l7.5,4.33Z"/>
    <path id="Path-19" data-name="Path" class="window-L-light" d="M77.5,112.5832l-7.5-4.33V665.396l7.5,4.33Z"/>
    <path id="Path-20" data-name="Path" class="window-L-light" d="M32.5,86.6024l-7.5-4.33V639.4153l7.5,4.33Z"/>
    <path id="Path-21" data-name="Path" class="window-R-prim" d="M163.75,158.05l10-5.7735V709.419l-10,5.7734Z"/>
    <path id="Path-22" data-name="Path" class="window-R-prim" d="M191.25,142.1723l10-5.7735v557.143l-10,5.7736Z"/>
    <path id="Path-23" data-name="Path" class="window-R-prim" d="M218.75,126.2952l10-5.7735v557.143l-10,5.7735Z"/>
    <path id="Path-24" data-name="Path" class="window-R-prim" d="M246.25,110.4181l10-5.7735v557.143l-10,5.7735Z"/>
    <path id="Path-25" data-name="Path" class="window-R-prim" d="M177.5,150.1109l10-5.7735V701.48l-10,5.7735Z"/>
    <path id="Path-26" data-name="Path" class="window-R-prim" d="M205,134.2338l10-5.7735v557.143l-10,5.7735Z"/>
    <path id="Path-27" data-name="Path" class="window-R-prim" d="M232.5,118.3566l10-5.7735v557.143l-10,5.7735Z"/>
    <path id="Path-28" data-name="Path" class="exterior-L-dark" d="M256.25,104.6446v557.143l-3.75-2.1651V106.81Z"/>
    <path id="Path-29" data-name="Path" class="exterior-L-dark" d="M242.5,112.5831V669.7262l-3.75-2.1651V114.7482Z"/>
    <path id="Path-30" data-name="Path" class="exterior-L-dark" d="M228.75,120.5217v557.143L225,675.5V122.6867Z"/>
    <path id="Path-31" data-name="Path" class="exterior-L-dark" d="M215,128.46v557.143l-3.75-2.1651V130.6253Z"/>
    <path id="Path-32" data-name="Path" class="exterior-L-dark" d="M201.25,136.3988V693.5419l-3.75-2.1651V138.5639Z"/>
    <path id="Path-33" data-name="Path" class="exterior-L-dark" d="M187.5,144.3374V701.48l-3.75-2.1651V146.5025Z"/>
    <path id="Path-34" data-name="Path" class="exterior-L-dark" d="M173.75,152.276V709.419L170,707.2539V154.441Z"/>
    <path id="Path-35" data-name="Path" class="exterior-R-dark" d="M148.75,153.7193V710.8624l3.75-2.1651V155.8844Z"/>
    <path id="Path-36" data-name="Path" class="exterior-R-dark" d="M115,134.2338v557.143l3.75-2.1651V136.3988Z"/>
    <path id="Path-37" data-name="Path" class="exterior-R-dark" d="M81.25,114.7482v557.143L85,669.7261V116.9133Z"/>
    <path id="Path-38" data-name="Path" class="exterior-R-dark" d="M47.5,95.2626V652.4057l3.75-2.1651V97.4277Z"/>
    <path id="Path-39" data-name="Path" class="exterior-R-dark" d="M13.75,75.777V632.92l3.75-2.1651V77.9421Z"/>
    <path id="Path-40" data-name="Path" class="exterior-R-dark" d="M137.5,147.2241V704.3672l3.75-2.1651V149.3892Z"/>
    <path id="Path-41" data-name="Path" class="exterior-R-dark" d="M103.75,127.7386v557.143l3.75-2.1651V129.9036Z"/>
    <path id="Path-42" data-name="Path" class="exterior-R-dark" d="M70,108.253V665.396l3.75-2.1651V110.4181Z"/>
    <path id="Path-43" data-name="Path" class="exterior-R-dark" d="M36.25,88.7674V645.9105L40,643.7454V90.9325Z"/>
    <path id="Path-44" data-name="Path" class="exterior-R-dark" d="M2.5,69.2819v557.143L6.25,624.26V71.4469Z"/>
    <path id="Path-45" data-name="Path" class="exterior-R-dark" d="M126.25,140.729V697.872l3.75-2.1651V142.894Z"/>
    <path id="Path-46" data-name="Path" class="exterior-R-dark" d="M92.5,121.2434v557.143l3.75-2.1651V123.4085Z"/>
    <path id="Path-47" data-name="Path" class="exterior-R-dark" d="M58.75,101.7578V658.9009l3.75-2.1651V103.9229Z"/>
    <path id="Path-48" data-name="Path" class="exterior-R-dark" d="M25,82.2722V639.4153l3.75-2.1651V84.4373Z"/>
    <path id="Path-49" data-name="Path" class="top-prim" d="M246.25,667.561l10-5.7735-3.75-2.165-6.25,3.6084Z"/>
    <path id="Path-50" data-name="Path" class="top-prim" d="M232.5,675.5l10-5.7735-3.75-2.1651L232.5,671.17Z"/>
    <path id="Path-51" data-name="Path" class="top-prim" d="M218.75,683.4381l10-5.7735L225,675.5l-6.25,3.6084Z"/>
    <path id="Path-52" data-name="Path" class="top-prim" d="M205,691.3767l10-5.7735-3.75-2.1651L205,687.0466Z"/>
    <path id="Path-53" data-name="Path" class="top-prim" d="M191.25,699.3153l10-5.7735-3.75-2.1651-6.25,3.6085Z"/>
    <path id="Path-54" data-name="Path" class="top-prim" d="M177.5,707.2538l10-5.7734-3.75-2.1651-6.25,3.6084Z"/>
    <path id="Path-55" data-name="Path" class="top-prim" d="M163.75,715.1924l10-5.7735-3.75-2.165-6.25,3.6084Z"/>
    <path id="Path-56" data-name="Path" class="top-prim" d="M156.25,715.1924l-7.5-4.33,3.75-2.165,3.75,2.165Z"/>
    <path id="Path-57" data-name="Path" class="top-prim" d="M122.5,695.7068l-7.5-4.33,3.75-2.165,3.75,2.165Z"/>
    <path id="Path-58" data-name="Path" class="top-prim" d="M88.75,676.2213l-7.5-4.33L85,669.7261l3.75,2.1651Z"/>
    <path id="Path-59" data-name="Path" class="top-prim" d="M55,656.7357l-7.5-4.33,3.75-2.1651L55,652.4056Z"/>
    <path id="Path-60" data-name="Path" class="top-prim" d="M21.25,637.25l-7.5-4.33,3.75-2.165,3.75,2.165Z"/>
    <path id="Path-61" data-name="Path" class="top-prim" d="M145,708.6972l-7.5-4.33,3.75-2.165,3.75,2.165Z"/>
    <path id="Path-62" data-name="Path" class="top-prim" d="M111.25,689.2117l-7.5-4.33,3.75-2.165,3.75,2.165Z"/>
    <path id="Path-63" data-name="Path" class="top-prim" d="M77.5,669.7261l-7.5-4.33,3.75-2.1651,3.75,2.1651Z"/>
    <path id="Path-64" data-name="Path" class="top-prim" d="M43.75,650.2405l-7.5-4.33L40,643.7453l3.75,2.1651Z"/>
    <path id="Path-65" data-name="Path" class="top-prim" d="M10,630.7549l-7.5-4.33,3.75-2.165,3.75,2.165Z"/>
    <path id="Path-66" data-name="Path" class="top-prim" d="M133.75,702.2021l-7.5-4.33,3.75-2.165,3.75,2.165Z"/>
    <path id="Path-67" data-name="Path" class="top-prim" d="M100,682.7165l-7.5-4.33,3.75-2.1651,3.75,2.1651Z"/>
    <path id="Path-68" data-name="Path" class="top-prim" d="M66.25,663.2309l-7.5-4.33,3.75-2.1651,3.75,2.1651Z"/>
    <path id="Path-69" data-name="Path" class="top-prim" d="M32.5,643.7453l-7.5-4.33,3.75-2.165,3.75,2.165Z"/>
  </g>
</svg>
