<svg id="Layer_1" data-name="Layer 1" xmlns="http://www.w3.org/2000/svg" viewBox="0 0 250 343.665">
  <defs>
    <style>
      .top-dark {
        fill: #c67471;
      }

      .exterior-R-prim {
        fill: #d05752;
      }

      .exterior-L-prim {
        fill: #73302e;
      }

      .window-L-prim {
        fill: #4d3b24;
      }

      .window-L-light {
        fill: #795a30;
      }

      .window-R-light {
        fill: #eacb87;
      }

      .window-R-prim {
        fill: #bd9664;
      }
    </style>
  </defs>
  <title>Artboard 11</title>
  <g id="root">
    <path id="anchor_0_144.394_250" class="top-dark" d="M0,103.979V92.376L160,0l90,51.9609v11.604L90,155.9409Z"/>
    <path id="Path" class="exterior-R-prim" d="M250,51.9609V251.2891L90,343.665l-10-5.7739V138.564l10,5.7729Z"/>
    <path id="Path-2" data-name="Path" class="exterior-L-prim" d="M0,92.4321v199.271L90,343.665V144.394Z"/>
    <path id="Path-3" data-name="Path" class="window-L-prim" d="M60,135.8179l20,11.5468V170.459L60,158.9121Z"/>
    <path id="Path-4" data-name="Path" class="window-L-light" d="M70,141.5918V164.686l-10-5.7739V135.8179Z"/>
    <path id="Path-5" data-name="Path" class="window-L-prim" d="M35,121.3848l20,11.5473v23.0938L35,144.479Z"/>
    <path id="Path-6" data-name="Path" class="window-L-light" d="M45,127.1582V150.252l-10-5.773V121.3848Z"/>
    <path id="Path-7" data-name="Path" class="window-L-prim" d="M10,106.9512,30,118.498v23.0938L10,130.0449Z"/>
    <path id="Path-8" data-name="Path" class="window-L-light" d="M20,112.7241v23.0938l-10-5.773V106.9512Z"/>
    <path id="Path-9" data-name="Path" class="window-L-prim" d="M60,231.0811l20,11.5468v23.0943L60,254.1748Z"/>
    <path id="Path-10" data-name="Path" class="window-L-light" d="M70,236.855v23.0942l-10-5.7744V231.0811Z"/>
    <path id="Path-11" data-name="Path" class="window-L-prim" d="M35,216.647l20,11.5468v23.0943L35,239.7412Z"/>
    <path id="Path-12" data-name="Path" class="window-L-light" d="M45,222.4209v23.0942l-10-5.7739V216.647Z"/>
    <path id="Path-13" data-name="Path" class="window-L-prim" d="M10,202.2139l20,11.5473V236.855L10,225.3081Z"/>
    <path id="Path-14" data-name="Path" class="window-L-light" d="M20,207.9868v23.0943l-10-5.773V202.2139Z"/>
    <path id="Path-15" data-name="Path" class="window-L-prim" d="M60,167.5728,80,179.12v23.0938L60,190.667Z"/>
    <path id="Path-16" data-name="Path" class="window-L-light" d="M70,173.3462V196.44L60,190.667V167.5728Z"/>
    <path id="Path-17" data-name="Path" class="window-L-prim" d="M35,153.1392,55,164.686V187.78L35,176.2329Z"/>
    <path id="Path-18" data-name="Path" class="window-L-light" d="M45,158.9121v23.0938l-10-5.773V153.1392Z"/>
    <path id="Path-19" data-name="Path" class="window-L-prim" d="M10,138.7051,30,150.252v23.0942L10,161.7988Z"/>
    <path id="Path-20" data-name="Path" class="window-L-light" d="M20,144.479v23.0938l-10-5.774V138.7051Z"/>
    <path id="Path-21" data-name="Path" class="window-L-prim" d="M60,262.835l20,11.5478v23.0943L60,285.93Z"/>
    <path id="Path-22" data-name="Path" class="window-L-light" d="M70,268.6089v23.0942L60,285.93V262.8359Z"/>
    <path id="Path-23" data-name="Path" class="window-L-prim" d="M35,248.4019l20,11.5473V283.043L35,271.4961Z"/>
    <path id="Path-24" data-name="Path" class="window-L-light" d="M45,254.1748V277.269l-10-5.7729V248.4019Z"/>
    <path id="Path-25" data-name="Path" class="window-L-prim" d="M10,233.9678l20,11.5473v23.0938L10,257.062Z"/>
    <path id="Path-26" data-name="Path" class="window-L-light" d="M20,239.7422V262.835l-10-5.773V233.9678Z"/>
    <path id="Path-27" data-name="Path" class="window-L-prim" d="M60,199.3271,80,210.874v23.0938L60,222.4209Z"/>
    <path id="Path-28" data-name="Path" class="window-L-light" d="M70,205.1v23.0937l-10-5.7729V199.3271Z"/>
    <path id="Path-29" data-name="Path" class="window-L-prim" d="M35,184.8931,55,196.44v23.0943L35,207.9868Z"/>
    <path id="Path-30" data-name="Path" class="window-L-light" d="M45,190.667v23.0942l-10-5.7744V184.8931Z"/>
    <path id="Path-31" data-name="Path" class="window-L-prim" d="M10,170.459l20,11.5478V205.1L10,193.5532Z"/>
    <path id="Path-32" data-name="Path" class="window-L-light" d="M20,176.2329v23.0942l-10-5.7739V170.459Z"/>
    <path id="Path-33" data-name="Path" class="window-L-prim" d="M60,294.59l20,11.5474V329.231L60,317.6841Z"/>
    <path id="Path-34" data-name="Path" class="window-L-light" d="M70,300.3628V323.457l-10-5.7729V294.59Z"/>
    <path id="Path-35" data-name="Path" class="window-L-prim" d="M35,280.1558l20,11.5473v23.0938L35,303.25Z"/>
    <path id="Path-36" data-name="Path" class="window-L-light" d="M45,285.93v23.0937L35,303.25V280.1558Z"/>
    <path id="Path-37" data-name="Path" class="window-L-prim" d="M10,265.7222,30,277.269v23.0938L10,288.8159Z"/>
    <path id="Path-38" data-name="Path" class="window-L-light" d="M20,271.4961V294.59l-10-5.7739V265.7222Z"/>
    <path id="Path-39" data-name="Path" class="window-R-light" d="M117.5,137.2622l-20,11.5469v23.0937l20-11.5468Z"/>
    <path id="Path-40" data-name="Path" class="window-R-prim" d="M107.5,143.0352v23.0937l10-5.7729V137.2622Z"/>
    <path id="Path-41" data-name="Path" class="window-R-light" d="M142.5,122.8281l-20,11.5469v23.0938l20-11.5469Z"/>
    <path id="Path-42" data-name="Path" class="window-R-prim" d="M132.5,128.6021v23.0937l10-5.7739V122.8281Z"/>
    <path id="Path-43" data-name="Path" class="window-R-light" d="M192.5,93.9609l-20,11.5469v23.0943l20-11.5469Z"/>
    <path id="Path-44" data-name="Path" class="window-R-prim" d="M182.5,99.7339v23.0942l10-5.7729V93.9609Z"/>
    <path id="Path-45" data-name="Path" class="window-R-light" d="M167.5,108.394l-20,11.5469v23.0943l20-11.5474Z"/>
    <path id="Path-46" data-name="Path" class="window-R-prim" d="M157.5,114.168v23.0942l10-5.7744V108.394Z"/>
    <path id="Path-47" data-name="Path" class="window-R-light" d="M217.5,79.5269l-20,11.5473V114.168l20-11.5469Z"/>
    <path id="Path-48" data-name="Path" class="window-R-prim" d="M207.5,85.3V108.394l10-5.7729V79.5269Z"/>
    <path id="Path-49" data-name="Path" class="window-R-light" d="M242.5,65.0928,222.5,76.64V99.7339l20-11.5469Z"/>
    <path id="Path-50" data-name="Path" class="window-R-prim" d="M232.5,70.8672V93.9609l10-5.7739V65.0928Z"/>
    <path id="Path-51" data-name="Path" class="window-R-light" d="M117.5,200.77l-20,11.5469v23.0942l20-11.5473Z"/>
    <path id="Path-52" data-name="Path" class="window-R-prim" d="M107.5,206.5439v23.0943l10-5.7744V200.77Z"/>
    <path id="Path-53" data-name="Path" class="window-R-light" d="M142.5,186.3369l-20,11.5469V220.978l20-11.5468Z"/>
    <path id="Path-54" data-name="Path" class="window-R-prim" d="M132.5,192.11v23.0942l10-5.7729V186.3369Z"/>
    <path id="Path-55" data-name="Path" class="window-R-light" d="M192.5,157.4688l-20,11.5473V192.11l20-11.5469Z"/>
    <path id="Path-56" data-name="Path" class="window-R-prim" d="M182.5,163.2432v23.0937l10-5.7739V157.4688Z"/>
    <path id="Path-57" data-name="Path" class="window-R-light" d="M167.5,171.9028l-20,11.5474v23.0937l20-11.5468Z"/>
    <path id="Path-58" data-name="Path" class="window-R-prim" d="M157.5,177.6758V200.77l10-5.7729V171.9028Z"/>
    <path id="Path-59" data-name="Path" class="window-R-light" d="M217.5,143.0352l-20,11.5468v23.0938l20-11.5469Z"/>
    <path id="Path-60" data-name="Path" class="window-R-prim" d="M207.5,148.8091v23.0937l10-5.7739V143.0352Z"/>
    <path id="Path-61" data-name="Path" class="window-R-light" d="M242.5,128.6021l-20,11.5468v23.0943l20-11.5474Z"/>
    <path id="Path-62" data-name="Path" class="window-R-prim" d="M232.5,134.375v23.0938l10-5.773V128.6021Z"/>
    <path id="Path-63" data-name="Path" class="window-R-light" d="M117.5,264.2788l-20,11.5474V298.92l20-11.5469Z"/>
    <path id="Path-64" data-name="Path" class="window-R-prim" d="M107.5,270.0518V293.146l10-5.773V264.2788Z"/>
    <path id="Path-65" data-name="Path" class="window-R-light" d="M142.5,249.8452l-20,11.5469v23.0937l20-11.5468Z"/>
    <path id="Path-66" data-name="Path" class="window-R-prim" d="M132.5,255.6191v23.0938l10-5.7739V249.8452Z"/>
    <path id="Path-67" data-name="Path" class="window-R-light" d="M192.5,220.978l-20,11.5469v23.0942l20-11.5473Z"/>
    <path id="Path-68" data-name="Path" class="window-R-prim" d="M182.5,226.751v23.0942l10-5.7734V220.978Z"/>
    <path id="Path-69" data-name="Path" class="window-R-light" d="M167.5,235.4111l-20,11.5469v23.0938l20-11.5469Z"/>
    <path id="Path-70" data-name="Path" class="window-R-prim" d="M157.5,241.1851v23.0937l10-5.7739V235.4111Z"/>
    <path id="Path-71" data-name="Path" class="window-R-light" d="M217.5,206.5439l-20,11.5469v23.0943l20-11.5469Z"/>
    <path id="Path-72" data-name="Path" class="window-R-prim" d="M207.5,212.3169v23.0942l10-5.7729V206.5439Z"/>
    <path id="Path-73" data-name="Path" class="window-R-light" d="M242.5,192.11l-20,11.5473V226.751l20-11.5469Z"/>
    <path id="Path-74" data-name="Path" class="window-R-prim" d="M232.5,197.8838V220.978l10-5.7739V192.11Z"/>
    <path id="Path-75" data-name="Path" class="window-R-light" d="M117.5,169.0161l-20,11.5469v23.0942l20-11.5473Z"/>
    <path id="Path-76" data-name="Path" class="window-R-prim" d="M107.5,174.79v23.0938l10-5.7739V169.0161Z"/>
    <path id="Path-77" data-name="Path" class="window-R-light" d="M142.5,154.582l-20,11.5469v23.0942l20-11.5473Z"/>
    <path id="Path-78" data-name="Path" class="window-R-prim" d="M132.5,160.356V183.45l10-5.7744V154.582Z"/>
    <path id="Path-79" data-name="Path" class="window-R-light" d="M192.5,125.7148l-20,11.5474V160.356l20-11.5469Z"/>
    <path id="Path-80" data-name="Path" class="window-R-prim" d="M182.5,131.4878V154.582l10-5.7729V125.7148Z"/>
    <path id="Path-81" data-name="Path" class="window-R-light" d="M167.5,140.1489l-20,11.5469V174.79l20-11.5468Z"/>
    <path id="Path-82" data-name="Path" class="window-R-prim" d="M157.5,145.9219v23.0942l10-5.7729V140.1489Z"/>
    <path id="Path-83" data-name="Path" class="window-R-light" d="M217.5,111.2808l-20,11.5473v23.0938l20-11.5469Z"/>
    <path id="Path-84" data-name="Path" class="window-R-prim" d="M207.5,117.0552v23.0937l10-5.7739V111.2808Z"/>
    <path id="Path-85" data-name="Path" class="window-R-light" d="M242.5,96.8472l-20,11.5468v23.0938l20-11.5469Z"/>
    <path id="Path-86" data-name="Path" class="window-R-prim" d="M232.5,102.6211v23.0937l10-5.7739V96.8472Z"/>
    <path id="Path-87" data-name="Path" class="window-R-light" d="M117.5,232.5249l-20,11.5469V267.166l20-11.5469Z"/>
    <path id="Path-88" data-name="Path" class="window-R-prim" d="M107.5,238.2979v23.0942l10-5.773V232.5249Z"/>
    <path id="Path-89" data-name="Path" class="window-R-light" d="M142.5,218.0908l-20,11.5474v23.0937l20-11.5468Z"/>
    <path id="Path-90" data-name="Path" class="window-R-prim" d="M132.5,223.8638V246.958l10-5.7729V218.0908Z"/>
    <path id="Path-91" data-name="Path" class="window-R-light" d="M192.5,189.2231l-20,11.5469v23.0938l20-11.5469Z"/>
    <path id="Path-92" data-name="Path" class="window-R-prim" d="M182.5,194.9971v23.0937l10-5.7739V189.2231Z"/>
    <path id="Path-93" data-name="Path" class="window-R-light" d="M167.5,203.6572l-20,11.5469v23.0938l20-11.5469Z"/>
    <path id="Path-94" data-name="Path" class="window-R-prim" d="M157.5,209.4312v23.0937l10-5.7739V203.6572Z"/>
    <path id="Path-95" data-name="Path" class="window-R-light" d="M217.5,174.79l-20,11.5469v23.0943l20-11.5474Z"/>
    <path id="Path-96" data-name="Path" class="window-R-prim" d="M207.5,180.563v23.0942l10-5.7734V174.79Z"/>
    <path id="Path-97" data-name="Path" class="window-R-light" d="M242.5,160.356l-20,11.5468v23.0943l20-11.5469Z"/>
    <path id="Path-98" data-name="Path" class="window-R-prim" d="M232.5,166.1289v23.0942l10-5.7729V160.356Z"/>
    <path id="Path-99" data-name="Path" class="window-R-light" d="M117.5,296.0332,97.5,307.58v23.0937l20-11.5468Z"/>
    <path id="Path-100" data-name="Path" class="window-R-prim" d="M107.5,301.8071v23.0938l10-5.7739V296.0332Z"/>
    <path id="Path-101" data-name="Path" class="window-R-light" d="M142.5,281.5991l-20,11.5469V316.24l20-11.5468Z"/>
    <path id="Path-102" data-name="Path" class="window-R-prim" d="M132.5,287.373v23.0938l10-5.7739V281.5991Z"/>
    <path id="Path-103" data-name="Path" class="window-R-light" d="M192.5,252.7319l-20,11.5469V287.373l20-11.5468Z"/>
    <path id="Path-104" data-name="Path" class="window-R-prim" d="M182.5,258.5049v23.0942l10-5.7729V252.7319Z"/>
    <path id="Path-105" data-name="Path" class="window-R-light" d="M167.5,267.166l-20,11.5469v23.0942l20-11.5473Z"/>
    <path id="Path-106" data-name="Path" class="window-R-prim" d="M157.5,272.939v23.0942l10-5.7734V267.166Z"/>
    <path id="Path-107" data-name="Path" class="window-R-light" d="M217.5,238.2979l-20,11.5473V272.939l20-11.5469Z"/>
    <path id="Path-108" data-name="Path" class="window-R-prim" d="M207.5,244.0718V267.166l10-5.7739V238.2979Z"/>
    <path id="Path-109" data-name="Path" class="window-R-light" d="M242.5,223.8638l-20,11.5473v23.0938l20-11.5469Z"/>
    <path id="Path-110" data-name="Path" class="window-R-prim" d="M232.5,229.6382v23.0937l10-5.7739V223.8638Z"/>
  </g>
</svg>
