<svg id="Layer_1" data-name="Layer 1" xmlns="http://www.w3.org/2000/svg" viewBox="0 0 250 386.8394">
  <defs>
    <style>
      .top-dark {
        fill: #c67471;
      }

      .exterior-R-prim {
        fill: #d05752;
      }

      .exterior-L-prim {
        fill: #73302e;
      }

      .window-L-prim {
        fill: #4d3b24;
      }

      .window-L-light {
        fill: #795a30;
      }

      .window-R-light {
        fill: #eacb87;
      }

      .window-R-prim {
        fill: #bd9664;
      }
    </style>
  </defs>
  <title>Artboard 25</title>
  <g id="root">
    <path id="anchor_0_144.394_250" class="top-dark" d="M0,103.979V92.376L160,0l90,51.9614v11.604L90,155.9414Z"/>
    <path id="Path" class="exterior-R-prim" d="M250,52.0181V294.4624L90,386.8394l-10-5.774V138.62l10,5.7739Z"/>
    <path id="Path-2" data-name="Path" class="exterior-L-prim" d="M0,92.4321V334.8774l90,51.961V144.394Z"/>
    <path id="Path-3" data-name="Path" class="window-L-prim" d="M60,135.7334,80,147.28V372.4194L60,360.8721Z"/>
    <path id="Path-4" data-name="Path" class="window-L-light" d="M70,141.5073V366.646l-10-5.7739V135.7334Z"/>
    <path id="Path-5" data-name="Path" class="window-L-prim" d="M35,121.3l20,11.5469V357.9854L35,346.438Z"/>
    <path id="Path-6" data-name="Path" class="window-L-light" d="M45,127.0732V352.2124L35,346.438V121.3Z"/>
    <path id="Path-7" data-name="Path" class="window-L-prim" d="M10,106.8662l20,11.5469V343.5513L10,332.0044Z"/>
    <path id="Path-8" data-name="Path" class="window-L-light" d="M20,112.6392V337.7783l-10-5.7739V106.8662Z"/>
    <path id="Path-9" data-name="Path" class="window-R-light" d="M117.5,137.1772l-20,11.5469V373.8623l20-11.5469Z"/>
    <path id="Path-10" data-name="Path" class="window-R-prim" d="M107.5,142.95V368.0894l10-5.774V137.1772Z"/>
    <path id="Path-11" data-name="Path" class="window-R-light" d="M142.5,122.7432l-20,11.5468V359.4292l20-11.5469Z"/>
    <path id="Path-12" data-name="Path" class="window-R-prim" d="M132.5,128.5171V353.6553l10-5.773V122.7432Z"/>
    <path id="Path-13" data-name="Path" class="window-R-light" d="M192.5,93.876l-20,11.5473V330.561l20-11.5468Z"/>
    <path id="Path-14" data-name="Path" class="window-R-prim" d="M182.5,99.6494V324.7881l10-5.7739V93.876Z"/>
    <path id="Path-15" data-name="Path" class="window-R-light" d="M167.5,108.3091l-20,11.5469V344.9951l20-11.5469Z"/>
    <path id="Path-16" data-name="Path" class="window-R-prim" d="M157.5,114.083V339.2212l10-5.773V108.3091Z"/>
    <path id="Path-17" data-name="Path" class="window-R-light" d="M217.5,79.4424l-20,11.5469V316.1274l20-11.5473Z"/>
    <path id="Path-18" data-name="Path" class="window-R-prim" d="M207.5,85.2153V310.354l10-5.7739V79.4424Z"/>
    <path id="Path-19" data-name="Path" class="window-R-light" d="M242.5,65.0083l-20,11.5469V301.6943l20-11.5473Z"/>
    <path id="Path-20" data-name="Path" class="window-R-prim" d="M232.5,70.7822V295.92l10-5.7734V65.0083Z"/>
  </g>
</svg>
