<svg id="Layer_1" data-name="Layer 1" xmlns="http://www.w3.org/2000/svg" viewBox="0 0 250 479.2153">
  <defs>
    <style>
      .top-dark {
        fill: #c67471;
      }

      .exterior-R-prim {
        fill: #d05752;
      }

      .exterior-L-prim {
        fill: #73302e;
      }

      .window-L-prim {
        fill: #4d3b24;
      }

      .window-L-light {
        fill: #795a30;
      }

      .window-R-light {
        fill: #eacb87;
      }

      .window-R-prim {
        fill: #bd9664;
      }
    </style>
  </defs>
  <title>Artboard 23</title>
  <g id="root">
    <path id="anchor_0_144.394_250" class="top-dark" d="M0,103.979V92.376L160,0l90,51.9609v11.604L90,155.9414Z"/>
    <path id="Path" class="exterior-R-prim" d="M250,52.0181v334.82L90,479.2153l-10-5.7739V138.62l10,5.7739Z"/>
    <path id="Path-2" data-name="Path" class="exterior-L-prim" d="M0,92.4321V427.2534l90,51.961V144.394Z"/>
    <path id="Path-3" data-name="Path" class="window-L-prim" d="M60,135.7334,80,147.28V464.7954L60,453.248Z"/>
    <path id="Path-4" data-name="Path" class="window-L-light" d="M70,141.5073V459.022l-10-5.774V135.7334Z"/>
    <path id="Path-5" data-name="Path" class="window-L-prim" d="M35,121.3l20,11.5469V450.3613L35,438.814Z"/>
    <path id="Path-6" data-name="Path" class="window-L-light" d="M45,127.0732V444.5884L35,438.814V121.3Z"/>
    <path id="Path-7" data-name="Path" class="window-L-prim" d="M10,106.8662l20,11.5469V435.9272L10,424.38Z"/>
    <path id="Path-8" data-name="Path" class="window-L-light" d="M20,112.6392V430.1543L10,424.38V106.8662Z"/>
    <path id="Path-9" data-name="Path" class="window-R-light" d="M117.5,137.1772l-20,11.5469V466.2383l20-11.5469Z"/>
    <path id="Path-10" data-name="Path" class="window-R-prim" d="M107.5,142.95V460.4653l10-5.7739V137.1772Z"/>
    <path id="Path-11" data-name="Path" class="window-R-light" d="M142.5,122.7432l-20,11.5468V451.8052l20-11.5469Z"/>
    <path id="Path-12" data-name="Path" class="window-R-prim" d="M132.5,128.5171V446.0312l10-5.7729V122.7432Z"/>
    <path id="Path-13" data-name="Path" class="window-R-light" d="M192.5,93.876l-20,11.5473V422.937l20-11.5469Z"/>
    <path id="Path-14" data-name="Path" class="window-R-prim" d="M182.5,99.6494V417.1641l10-5.774V93.876Z"/>
    <path id="Path-15" data-name="Path" class="window-R-light" d="M167.5,108.3091l-20,11.5469V437.3711l20-11.5469Z"/>
    <path id="Path-16" data-name="Path" class="window-R-prim" d="M157.5,114.083V431.5972l10-5.773V108.3091Z"/>
    <path id="Path-17" data-name="Path" class="window-R-light" d="M217.5,79.4424l-20,11.5469V408.5034l20-11.5473Z"/>
    <path id="Path-18" data-name="Path" class="window-R-prim" d="M207.5,85.2153V402.73l10-5.7739V79.4424Z"/>
    <path id="Path-19" data-name="Path" class="window-R-light" d="M242.5,65.0083l-20,11.5469V394.07l20-11.5474Z"/>
    <path id="Path-20" data-name="Path" class="window-R-prim" d="M232.5,70.7822V388.2964l10-5.7735V65.0083Z"/>
  </g>
</svg>
