<svg id="Layer_1" data-name="Layer 1" xmlns="http://www.w3.org/2000/svg" viewBox="0 0 250 407.1738">
  <defs>
    <style>
      .top-dark {
        fill: #c67471;
      }

      .exterior-R-prim {
        fill: #d05752;
      }

      .exterior-L-prim {
        fill: #73302e;
      }

      .window-L-prim {
        fill: #4d3b24;
      }

      .window-L-light {
        fill: #795a30;
      }

      .window-R-light {
        fill: #eacb87;
      }

      .window-R-prim {
        fill: #bd9664;
      }
    </style>
  </defs>
  <title>Artboard 10</title>
  <g id="root">
    <path id="anchor_0_144.394_250" class="top-dark" d="M0,103.98V92.376L160,0l90,51.9619v11.603L90,155.9409Z"/>
    <path id="Path" class="exterior-R-prim" d="M250,51.9619v262.836L90,407.1738,80,401.4V138.564l10,5.7739Z"/>
    <path id="Path-2" data-name="Path" class="exterior-L-prim" d="M0,92.4326V355.2119l90,51.9619v-262.78Z"/>
    <path id="Path-3" data-name="Path" class="window-L-prim" d="M60,199.3267l20,11.5468v23.0943L60,222.4209Z"/>
    <path id="Path-4" data-name="Path" class="window-L-light" d="M70,205.1006v23.0942l-10-5.7739V199.3267Z"/>
    <path id="Path-5" data-name="Path" class="window-L-prim" d="M35,184.8936l20,11.5473v23.0938L35,207.9878Z"/>
    <path id="Path-6" data-name="Path" class="window-L-light" d="M45,190.667v23.0937l-10-5.7729V184.8936Z"/>
    <path id="Path-7" data-name="Path" class="window-L-prim" d="M10,170.46l20,11.5468v23.0938L10,193.5537Z"/>
    <path id="Path-8" data-name="Path" class="window-L-light" d="M20,176.2329v23.0938l-10-5.773V170.46Z"/>
    <path id="Path-9" data-name="Path" class="window-L-prim" d="M60,294.59l20,11.5469V329.231L60,317.6836Z"/>
    <path id="Path-10" data-name="Path" class="window-L-light" d="M70,300.3638V323.458l-10-5.7744V294.59Z"/>
    <path id="Path-11" data-name="Path" class="window-L-prim" d="M35,280.1558l20,11.5468v23.0943L35,303.25Z"/>
    <path id="Path-12" data-name="Path" class="window-L-light" d="M45,285.93v23.0942L35,303.25V280.1558Z"/>
    <path id="Path-13" data-name="Path" class="window-L-prim" d="M10,265.7227,30,277.27v23.0938L10,288.8169Z"/>
    <path id="Path-14" data-name="Path" class="window-L-light" d="M20,271.4956V294.59l-10-5.7729V265.7227Z"/>
    <path id="Path-15" data-name="Path" class="window-L-prim" d="M60,135.8188l20,11.5469V170.46L60,158.9126Z"/>
    <path id="Path-16" data-name="Path" class="window-L-light" d="M70,141.5918v23.0937l-10-5.7729V135.8188Z"/>
    <path id="Path-17" data-name="Path" class="window-L-prim" d="M35,121.3848l20,11.5468v23.0943L35,144.479Z"/>
    <path id="Path-18" data-name="Path" class="window-L-light" d="M45,127.1587v23.0942L35,144.479V121.3848Z"/>
    <path id="Path-19" data-name="Path" class="window-L-prim" d="M10,106.9507l20,11.5469v23.0942L10,130.0449Z"/>
    <path id="Path-20" data-name="Path" class="window-L-light" d="M20,112.7246v23.0942l-10-5.7739V106.9507Z"/>
    <path id="Path-21" data-name="Path" class="window-L-prim" d="M60,231.0815l20,11.5474v23.0938L60,254.1758Z"/>
    <path id="Path-22" data-name="Path" class="window-L-light" d="M70,236.855v23.0937l-10-5.7729V231.0815Z"/>
    <path id="Path-23" data-name="Path" class="window-L-prim" d="M35,216.6479l20,11.5469v23.0938L35,239.7417Z"/>
    <path id="Path-24" data-name="Path" class="window-L-light" d="M45,222.4209v23.0937l-10-5.7729V216.6479Z"/>
    <path id="Path-25" data-name="Path" class="window-L-prim" d="M10,202.2139l20,11.5468V236.855L10,225.3076Z"/>
    <path id="Path-26" data-name="Path" class="window-L-light" d="M20,207.9878v23.0937l-10-5.7739V202.2139Z"/>
    <path id="Path-27" data-name="Path" class="window-L-prim" d="M60,326.3438l20,11.5478v23.0942L60,349.439Z"/>
    <path id="Path-28" data-name="Path" class="window-L-light" d="M70,332.1177v23.0942L60,349.439V326.3447Z"/>
    <path id="Path-29" data-name="Path" class="window-L-prim" d="M35,311.9106,55,323.458v23.0938L35,335.0049Z"/>
    <path id="Path-30" data-name="Path" class="window-L-light" d="M45,317.6836v23.0942l-10-5.7729V311.9106Z"/>
    <path id="Path-31" data-name="Path" class="window-L-prim" d="M10,297.4766l20,11.5473v23.0938L10,320.5708Z"/>
    <path id="Path-32" data-name="Path" class="window-L-light" d="M20,303.251v23.0928l-10-5.773V297.4766Z"/>
    <path id="Path-33" data-name="Path" class="window-L-prim" d="M60,167.5728,80,179.12v23.0943L60,190.667Z"/>
    <path id="Path-34" data-name="Path" class="window-L-light" d="M70,173.3467v23.0942L60,190.667V167.5728Z"/>
    <path id="Path-35" data-name="Path" class="window-L-prim" d="M35,153.1387l20,11.5468V187.78L35,176.2329Z"/>
    <path id="Path-36" data-name="Path" class="window-L-light" d="M45,158.9126v23.0942l-10-5.7739V153.1387Z"/>
    <path id="Path-37" data-name="Path" class="window-L-prim" d="M10,138.7056l20,11.5473v23.0938L10,161.8Z"/>
    <path id="Path-38" data-name="Path" class="window-L-light" d="M20,144.479v23.0938L10,161.8V138.7056Z"/>
    <path id="Path-39" data-name="Path" class="window-L-prim" d="M60,262.8359l20,11.5469v23.0938L60,285.93Z"/>
    <path id="Path-40" data-name="Path" class="window-L-light" d="M70,268.6089v23.0937L60,285.93V262.8359Z"/>
    <path id="Path-41" data-name="Path" class="window-L-prim" d="M35,248.4019l20,11.5468V283.043L35,271.4956Z"/>
    <path id="Path-42" data-name="Path" class="window-L-light" d="M45,254.1758V277.27l-10-5.7744V248.4019Z"/>
    <path id="Path-43" data-name="Path" class="window-L-prim" d="M10,233.9678l20,11.5478v23.0933L10,257.062Z"/>
    <path id="Path-44" data-name="Path" class="window-L-light" d="M20,239.7417v23.0942L10,257.062V233.9678Z"/>
    <path id="Path-45" data-name="Path" class="window-L-prim" d="M60,358.0986,80,369.646V392.74L60,381.1929Z"/>
    <path id="Path-46" data-name="Path" class="window-L-light" d="M70,363.8716v23.0942l-10-5.7729V358.0986Z"/>
    <path id="Path-47" data-name="Path" class="window-L-prim" d="M35,343.6646l20,11.5473v23.0938L35,366.7588Z"/>
    <path id="Path-48" data-name="Path" class="window-L-light" d="M45,349.439v23.0937l-10-5.7739V343.6646Z"/>
    <path id="Path-49" data-name="Path" class="window-L-prim" d="M10,329.231l20,11.5468v23.0938L10,352.3247Z"/>
    <path id="Path-50" data-name="Path" class="window-L-light" d="M20,335.0049v23.0937l-10-5.7739V329.231Z"/>
    <path id="Path-51" data-name="Path" class="window-R-light" d="M117.5,137.2617l-20,11.5469v23.0942l20-11.5468Z"/>
    <path id="Path-52" data-name="Path" class="window-R-prim" d="M107.5,143.0356V166.13l10-5.7739V137.2617Z"/>
    <path id="Path-53" data-name="Path" class="window-R-light" d="M142.5,122.8286l-20,11.5474V157.47l20-11.5468Z"/>
    <path id="Path-54" data-name="Path" class="window-R-prim" d="M132.5,128.6016v23.0942l10-5.7729V122.8286Z"/>
    <path id="Path-55" data-name="Path" class="window-R-light" d="M192.5,93.9609l-20,11.5469v23.0938l20-11.5469Z"/>
    <path id="Path-56" data-name="Path" class="window-R-prim" d="M182.5,99.7349v23.0937l10-5.7739V93.9609Z"/>
    <path id="Path-57" data-name="Path" class="window-R-light" d="M167.5,108.395l-20,11.5469v23.0937l20-11.5468Z"/>
    <path id="Path-58" data-name="Path" class="window-R-prim" d="M157.5,114.168v23.0937l10-5.7729V108.395Z"/>
    <path id="Path-59" data-name="Path" class="window-R-light" d="M217.5,79.5269l-20,11.5468V114.168l20-11.5474Z"/>
    <path id="Path-60" data-name="Path" class="window-R-prim" d="M207.5,85.3008V108.395l10-5.7744V79.5269Z"/>
    <path id="Path-61" data-name="Path" class="window-R-light" d="M242.5,65.0938l-20,11.5468V99.7349l20-11.5469Z"/>
    <path id="Path-62" data-name="Path" class="window-R-prim" d="M232.5,70.8667V93.9609l10-5.7729V65.0938Z"/>
    <path id="Path-63" data-name="Path" class="window-R-light" d="M117.5,200.771l-20,11.5469v23.0937l20-11.5469Z"/>
    <path id="Path-64" data-name="Path" class="window-R-prim" d="M107.5,206.5439v23.0938l10-5.773V200.771Z"/>
    <path id="Path-65" data-name="Path" class="window-R-light" d="M142.5,186.3369l-20,11.5469v23.0937l20-11.5468Z"/>
    <path id="Path-66" data-name="Path" class="window-R-prim" d="M132.5,192.1108v23.0938l10-5.7739V186.3369Z"/>
    <path id="Path-67" data-name="Path" class="window-R-light" d="M192.5,157.47l-20,11.5469v23.0942l20-11.5468Z"/>
    <path id="Path-68" data-name="Path" class="window-R-prim" d="M182.5,163.2427v23.0942l10-5.7729V157.47Z"/>
    <path id="Path-69" data-name="Path" class="window-R-light" d="M167.5,171.9028l-20,11.5469v23.0942l20-11.5473Z"/>
    <path id="Path-70" data-name="Path" class="window-R-prim" d="M157.5,177.6768V200.771l10-5.7744V171.9028Z"/>
    <path id="Path-71" data-name="Path" class="window-R-light" d="M217.5,143.0356l-20,11.5474v23.0938l20-11.5469Z"/>
    <path id="Path-72" data-name="Path" class="window-R-prim" d="M207.5,148.8086v23.0942l10-5.7729V143.0356Z"/>
    <path id="Path-73" data-name="Path" class="window-R-light" d="M242.5,128.6016l-20,11.5473v23.0938l20-11.5469Z"/>
    <path id="Path-74" data-name="Path" class="window-R-prim" d="M232.5,134.376V157.47l10-5.7739V128.6016Z"/>
    <path id="Path-75" data-name="Path" class="window-R-light" d="M117.5,264.2788l-20,11.5469V298.92l20-11.5473Z"/>
    <path id="Path-76" data-name="Path" class="window-R-prim" d="M107.5,270.0527V293.147l10-5.7744V264.2788Z"/>
    <path id="Path-77" data-name="Path" class="window-R-light" d="M142.5,249.8457l-20,11.5469v23.0942l20-11.5469Z"/>
    <path id="Path-78" data-name="Path" class="window-R-prim" d="M132.5,255.6187v23.0942l10-5.773V249.8457Z"/>
    <path id="Path-79" data-name="Path" class="window-R-light" d="M192.5,220.9775l-20,11.5474v23.0938l20-11.5469Z"/>
    <path id="Path-80" data-name="Path" class="window-R-prim" d="M182.5,226.752v23.0937l10-5.7739V220.9775Z"/>
    <path id="Path-81" data-name="Path" class="window-R-light" d="M167.5,235.4116l-20,11.5474v23.0937l20-11.5468Z"/>
    <path id="Path-82" data-name="Path" class="window-R-prim" d="M157.5,241.1846v23.0942l10-5.7729V235.4116Z"/>
    <path id="Path-83" data-name="Path" class="window-R-light" d="M217.5,206.5439l-20,11.5469v23.0938l20-11.5469Z"/>
    <path id="Path-84" data-name="Path" class="window-R-prim" d="M207.5,212.3179v23.0937l10-5.7739V206.5439Z"/>
    <path id="Path-85" data-name="Path" class="window-R-light" d="M242.5,192.1108l-20,11.5469V226.752l20-11.5474Z"/>
    <path id="Path-86" data-name="Path" class="window-R-prim" d="M232.5,197.8838v23.0937l10-5.7729V192.1108Z"/>
    <path id="Path-87" data-name="Path" class="window-R-light" d="M117.5,327.7876l-20,11.5474v23.0937l20-11.5469Z"/>
    <path id="Path-88" data-name="Path" class="window-R-prim" d="M107.5,333.5605v23.0943l10-5.773V327.7876Z"/>
    <path id="Path-89" data-name="Path" class="window-R-light" d="M142.5,313.354l-20,11.5469v23.0937l20-11.5468Z"/>
    <path id="Path-90" data-name="Path" class="window-R-prim" d="M132.5,319.1279v23.0938l10-5.7739V313.354Z"/>
    <path id="Path-91" data-name="Path" class="window-R-light" d="M192.5,284.4868l-20,11.5469v23.0942l20-11.5473Z"/>
    <path id="Path-92" data-name="Path" class="window-R-prim" d="M182.5,290.26V313.354l10-5.7734V284.4868Z"/>
    <path id="Path-93" data-name="Path" class="window-R-light" d="M167.5,298.92l-20,11.5469v23.0937l20-11.5468Z"/>
    <path id="Path-94" data-name="Path" class="window-R-prim" d="M157.5,304.6938v23.0938l10-5.7739V298.92Z"/>
    <path id="Path-95" data-name="Path" class="window-R-light" d="M217.5,270.0527,197.5,281.6v23.0942l20-11.5468Z"/>
    <path id="Path-96" data-name="Path" class="window-R-prim" d="M207.5,275.8257V298.92l10-5.7729V270.0527Z"/>
    <path id="Path-97" data-name="Path" class="window-R-light" d="M242.5,255.6187l-20,11.5473V290.26l20-11.5469Z"/>
    <path id="Path-98" data-name="Path" class="window-R-prim" d="M232.5,261.3926v23.0942l10-5.7739V255.6187Z"/>
    <path id="Path-99" data-name="Path" class="window-R-light" d="M117.5,169.0166l-20,11.5474v23.0937l20-11.5469Z"/>
    <path id="Path-100" data-name="Path" class="window-R-prim" d="M107.5,174.79v23.0942l10-5.773V169.0166Z"/>
    <path id="Path-101" data-name="Path" class="window-R-light" d="M142.5,154.583l-20,11.5469v23.0937l20-11.5468Z"/>
    <path id="Path-102" data-name="Path" class="window-R-prim" d="M132.5,160.356V183.45l10-5.7729V154.583Z"/>
    <path id="Path-103" data-name="Path" class="window-R-light" d="M192.5,125.7148l-20,11.5469V160.356l20-11.5474Z"/>
    <path id="Path-104" data-name="Path" class="window-R-prim" d="M182.5,131.4888V154.583l10-5.7744V125.7148Z"/>
    <path id="Path-105" data-name="Path" class="window-R-light" d="M167.5,140.1489l-20,11.5469V174.79l20-11.5469Z"/>
    <path id="Path-106" data-name="Path" class="window-R-prim" d="M157.5,145.9229v23.0937l10-5.7739V140.1489Z"/>
    <path id="Path-107" data-name="Path" class="window-R-light" d="M217.5,111.2817l-20,11.5469v23.0943l20-11.5469Z"/>
    <path id="Path-108" data-name="Path" class="window-R-prim" d="M207.5,117.0547v23.0942l10-5.7729V111.2817Z"/>
    <path id="Path-109" data-name="Path" class="window-R-light" d="M242.5,96.8477l-20,11.5473v23.0938l20-11.5469Z"/>
    <path id="Path-110" data-name="Path" class="window-R-prim" d="M232.5,102.6206v23.0942l10-5.7729V96.8477Z"/>
    <path id="Path-111" data-name="Path" class="window-R-light" d="M117.5,232.5249l-20,11.5469V267.166l20-11.5473Z"/>
    <path id="Path-112" data-name="Path" class="window-R-prim" d="M107.5,238.2988v23.0938l10-5.7739V232.5249Z"/>
    <path id="Path-113" data-name="Path" class="window-R-light" d="M142.5,218.0908l-20,11.5469v23.0942l20-11.5473Z"/>
    <path id="Path-114" data-name="Path" class="window-R-prim" d="M132.5,223.8647V246.959l10-5.7744V218.0908Z"/>
    <path id="Path-115" data-name="Path" class="window-R-light" d="M192.5,189.2236l-20,11.5474v23.0937l20-11.5468Z"/>
    <path id="Path-116" data-name="Path" class="window-R-prim" d="M182.5,194.9966v23.0942l10-5.7729V189.2236Z"/>
    <path id="Path-117" data-name="Path" class="window-R-light" d="M167.5,203.6577l-20,11.5469v23.0942l20-11.5468Z"/>
    <path id="Path-118" data-name="Path" class="window-R-prim" d="M157.5,209.4307v23.0942l10-5.7729V203.6577Z"/>
    <path id="Path-119" data-name="Path" class="window-R-light" d="M217.5,174.79l-20,11.5473v23.0938l20-11.5469Z"/>
    <path id="Path-120" data-name="Path" class="window-R-prim" d="M207.5,180.564v23.0937l10-5.7739V174.79Z"/>
    <path id="Path-121" data-name="Path" class="window-R-light" d="M242.5,160.356l-20,11.5468v23.0938l20-11.5469Z"/>
    <path id="Path-122" data-name="Path" class="window-R-prim" d="M232.5,166.13v23.0937l10-5.7739V160.356Z"/>
    <path id="Path-123" data-name="Path" class="window-R-light" d="M117.5,296.0337l-20,11.5469v23.0942l20-11.5469Z"/>
    <path id="Path-124" data-name="Path" class="window-R-prim" d="M107.5,301.8066v23.0943l10-5.773V296.0337Z"/>
    <path id="Path-125" data-name="Path" class="window-R-light" d="M142.5,281.6l-20,11.5474v23.0937l20-11.5469Z"/>
    <path id="Path-126" data-name="Path" class="window-R-prim" d="M132.5,287.3726v23.0942l10-5.773V281.6Z"/>
    <path id="Path-127" data-name="Path" class="window-R-light" d="M192.5,252.7319l-20,11.5469v23.0938l20-11.5469Z"/>
    <path id="Path-128" data-name="Path" class="window-R-prim" d="M182.5,258.5059V281.6l10-5.7739V252.7319Z"/>
    <path id="Path-129" data-name="Path" class="window-R-light" d="M167.5,267.166l-20,11.5469v23.0937l20-11.5468Z"/>
    <path id="Path-130" data-name="Path" class="window-R-prim" d="M157.5,272.94v23.0938l10-5.7739V267.166Z"/>
    <path id="Path-131" data-name="Path" class="window-R-light" d="M217.5,238.2988l-20,11.5469V272.94l20-11.5473Z"/>
    <path id="Path-132" data-name="Path" class="window-R-prim" d="M207.5,244.0718V267.166l10-5.7734V238.2988Z"/>
    <path id="Path-133" data-name="Path" class="window-R-light" d="M242.5,223.8647l-20,11.5469v23.0943l20-11.5469Z"/>
    <path id="Path-134" data-name="Path" class="window-R-prim" d="M232.5,229.6377v23.0942l10-5.7729V223.8647Z"/>
    <path id="Path-135" data-name="Path" class="window-R-light" d="M117.5,359.542l-20,11.5469v23.0937l20-11.5469Z"/>
    <path id="Path-136" data-name="Path" class="window-R-prim" d="M107.5,365.3159V388.41l10-5.774V359.542Z"/>
    <path id="Path-137" data-name="Path" class="window-R-light" d="M142.5,345.1079l-20,11.5469v23.0937l20-11.5468Z"/>
    <path id="Path-138" data-name="Path" class="window-R-prim" d="M132.5,350.8818v23.0938l10-5.7739V345.1079Z"/>
    <path id="Path-139" data-name="Path" class="window-R-light" d="M192.5,316.2407l-20,11.5469v23.0942l20-11.5468Z"/>
    <path id="Path-140" data-name="Path" class="window-R-prim" d="M182.5,322.0137v23.0942l10-5.7729V316.2407Z"/>
    <path id="Path-141" data-name="Path" class="window-R-light" d="M167.5,330.6748l-20,11.5469v23.0942l20-11.5473Z"/>
    <path id="Path-142" data-name="Path" class="window-R-prim" d="M157.5,336.4478V359.542l10-5.7734V330.6748Z"/>
    <path id="Path-143" data-name="Path" class="window-R-light" d="M217.5,301.8066l-20,11.5474v23.0938l20-11.5469Z"/>
    <path id="Path-144" data-name="Path" class="window-R-prim" d="M207.5,307.5806v23.0942l10-5.7739V301.8066Z"/>
    <path id="Path-145" data-name="Path" class="window-R-light" d="M242.5,287.3726l-20,11.5473v23.0938l20-11.5469Z"/>
    <path id="Path-146" data-name="Path" class="window-R-prim" d="M232.5,293.147v23.0937l10-5.7739V287.3726Z"/>
  </g>
</svg>
