<svg id="Layer_1" data-name="Layer 1" xmlns="http://www.w3.org/2000/svg" viewBox="0 0 250 883.374">
  <defs>
    <style>
      .top-dark {
        fill: #c67471;
      }

      .exterior-R-prim {
        fill: #d05752;
      }

      .exterior-L-prim {
        fill: #73302e;
      }

      .window-L-prim {
        fill: #4d3b24;
      }

      .window-L-light {
        fill: #795a30;
      }

      .window-R-light {
        fill: #eacb87;
      }

      .window-R-prim {
        fill: #bd9664;
      }
    </style>
  </defs>
  <title>Artboard 14</title>
  <g id="root">
    <path id="anchor_0_144.394_250" class="top-dark" d="M0,103.979V92.376L160,0l90,51.9609v11.604L90,155.9409Z"/>
    <path id="Path" class="exterior-R-prim" d="M250,52.0179v738.98L90,883.374,80,877.6V138.62l10,5.7739Z"/>
    <path id="Path-2" data-name="Path" class="exterior-L-prim" d="M0,92.432v738.98l90,51.962v-738.98Z"/>
    <path id="Path-3" data-name="Path" class="window-L-prim" d="M60,135.734l20,11.547V868.954L60,857.407Z"/>
    <path id="Path-4" data-name="Path" class="window-L-light" d="M70,141.507V863.181l-10-5.774V135.734Z"/>
    <path id="Path-5" data-name="Path" class="window-L-prim" d="M35,121.3l20,11.547v721.674l-20-11.547Z"/>
    <path id="Path-6" data-name="Path" class="window-L-light" d="M45,127.073V848.7469L35,842.973V121.3Z"/>
    <path id="Path-7" data-name="Path" class="window-L-prim" d="M10,106.866l20,11.547V840.087L10,828.54Z"/>
    <path id="Path-8" data-name="Path" class="window-L-light" d="M20,112.64V834.313L10,828.54V106.866Z"/>
    <path id="Path-9" data-name="Path" class="window-R-light" d="M117.5,137.177l-20,11.547V870.3979l20-11.5469Z"/>
    <path id="Path-10" data-name="Path" class="window-R-prim" d="M107.5,142.95V864.624l10-5.773V137.177Z"/>
    <path id="Path-11" data-name="Path" class="window-R-light" d="M142.5,122.7429l-20,11.547V855.964l20-11.5471Z"/>
    <path id="Path-12" data-name="Path" class="window-R-prim" d="M132.5,128.517V850.19l10-5.773V122.7429Z"/>
    <path id="Path-13" data-name="Path" class="window-R-light" d="M192.5,93.876l-20,11.547V827.0959l20-11.5469Z"/>
    <path id="Path-14" data-name="Path" class="window-R-prim" d="M182.5,99.6489v721.674l10-5.7739V93.876Z"/>
    <path id="Path-15" data-name="Path" class="window-R-light" d="M167.5,108.309l-20,11.547V841.53l20-11.547Z"/>
    <path id="Path-16" data-name="Path" class="window-R-prim" d="M157.5,114.083V835.757l10-5.774V108.309Z"/>
    <path id="Path-17" data-name="Path" class="window-R-light" d="M217.5,79.442l-20,11.547V812.663l20-11.547Z"/>
    <path id="Path-18" data-name="Path" class="window-R-prim" d="M207.5,85.215V806.889l10-5.773V79.442Z"/>
    <path id="Path-19" data-name="Path" class="window-R-light" d="M242.5,65.0079l-20,11.547v721.674l20-11.547Z"/>
    <path id="Path-20" data-name="Path" class="window-R-prim" d="M232.5,70.782V792.455l10-5.7731V65.0079Z"/>
  </g>
</svg>
