<svg id="Layer_1" data-name="Layer 1" xmlns="http://www.w3.org/2000/svg" viewBox="0 0 250 537.0071">
  <defs>
    <style>
      .top-dark {
        fill: #c67471;
      }

      .curtain-R-prim-dark {
        fill: #3e809c;
      }

      .curtain-L-prim-dark {
        fill: #2f5565;
      }

      .curtain-R-prim-light {
        fill: #59acd0;
      }

      .curtain-L-prim-light {
        fill: #438fb0;
      }
    </style>
  </defs>
  <title>Artboard 37</title>
  <g id="root">
    <path id="anchor_0_144.394_250" class="top-dark" d="M0,103.98V92.376L160,0l90,51.9619v11.603L90,155.9419Z"/>
    <path id="Path" class="curtain-R-prim-dark" d="M250,51.99V444.6169L90,536.9929,80,531.219V138.593l10,5.773Z"/>
    <path id="Path-2" data-name="Path" class="curtain-L-prim-dark" d="M0,92.405V485.031l90,51.9619V144.366Z"/>
    <path id="Path-3" data-name="Path" class="curtain-R-prim-light" d="M250,98.2419,90,190.604v23.094l160-92.3621Z"/>
    <path id="Path-4" data-name="Path" class="curtain-L-prim-light" d="M0,138.6421l90,51.9758v23.094L0,161.7361Z"/>
    <path id="Path-5" data-name="Path" class="curtain-R-prim-light" d="M250,282.9661,90,375.3269v23.094L250,306.06Z"/>
    <path id="Path-6" data-name="Path" class="curtain-L-prim-light" d="M0,323.366l90,51.976v23.094L0,346.46Z"/>
    <path id="Path-7" data-name="Path" class="curtain-R-prim-light" d="M250,190.6179,90,282.98v23.094l160-92.3621Z"/>
    <path id="Path-8" data-name="Path" class="curtain-L-prim-light" d="M0,231.0181l90,51.9758v23.094L0,254.1121Z"/>
    <path id="Path-9" data-name="Path" class="curtain-R-prim-light" d="M250,375.342,90,467.7029v23.095L250,398.436Z"/>
    <path id="Path-10" data-name="Path" class="curtain-L-prim-light" d="M0,415.7419,90,467.718v23.094L0,438.8359Z"/>
    <path id="Path-11" data-name="Path" class="curtain-R-prim-light" d="M250,144.437,90,236.7991v23.094L250,167.531Z"/>
    <path id="Path-12" data-name="Path" class="curtain-L-prim-light" d="M0,184.8369,90,236.813v23.094L0,207.9309Z"/>
    <path id="Path-13" data-name="Path" class="curtain-R-prim-light" d="M250,329.1609,90,421.5229v23.094l160-92.362Z"/>
    <path id="Path-14" data-name="Path" class="curtain-L-prim-light" d="M0,369.561l90,51.9759v23.094L0,392.655Z"/>
    <path id="Path-15" data-name="Path" class="curtain-R-prim-light" d="M250,52.033,90,144.394v23.094L250,75.127Z"/>
    <path id="Path-16" data-name="Path" class="curtain-L-prim-light" d="M0,92.4329l90,51.976v23.094L0,115.5269Z"/>
    <path id="Path-17" data-name="Path" class="curtain-R-prim-light" d="M250,236.813,90,329.175v23.094l160-92.362Z"/>
    <path id="Path-18" data-name="Path" class="curtain-L-prim-light" d="M0,277.2129,90,329.189v23.094L0,300.3069Z"/>
    <path id="Path-19" data-name="Path" class="curtain-R-prim-light" d="M250,421.5369,90,513.8989v23.094l160-92.362Z"/>
    <path id="Path-20" data-name="Path" class="curtain-L-prim-light" d="M0,461.937l90,51.9761v23.094L0,485.031Z"/>
  </g>
</svg>
