<svg id="Layer_1" data-name="Layer 1" xmlns="http://www.w3.org/2000/svg" viewBox="0 0 250 860.2659">
  <defs>
    <style>
      .top-dark {
        fill: #c67471;
      }

      .curtain-R-prim-dark {
        fill: #3e809c;
      }

      .curtain-L-prim-dark {
        fill: #2f5565;
      }

      .curtain-R-prim-light {
        fill: #59acd0;
      }

      .curtain-L-prim-light {
        fill: #438fb0;
      }
    </style>
  </defs>
  <title>Artboard 30</title>
  <g id="root">
    <path id="anchor_0_144.394_250" class="top-dark" d="M0,103.98V92.376L160,0l90,51.9619v11.603L90,155.9409Z"/>
    <path id="Path" class="curtain-R-prim-dark" d="M250,51.9619V767.876L90,860.252l-10-5.7742V138.564l10,5.7739Z"/>
    <path id="Path-2" data-name="Path" class="curtain-L-prim-dark" d="M0,92.376V808.29L90,860.252V144.3379Z"/>
    <path id="Path-3" data-name="Path" class="curtain-R-prim-light" d="M250,51.969,90,144.3308v23.094L250,75.063Z"/>
    <path id="Path-4" data-name="Path" class="curtain-L-prim-light" d="M0,92.3689,90,144.345v23.094L0,115.4629Z"/>
    <path id="Path-5" data-name="Path" class="curtain-R-prim-light" d="M250,236.7209,90,329.083v23.094l160-92.3621Z"/>
    <path id="Path-6" data-name="Path" class="curtain-L-prim-light" d="M0,277.1208l90,51.9761v23.094L0,300.2148Z"/>
    <path id="Path-7" data-name="Path" class="curtain-R-prim-light" d="M250,421.501,90,513.8628v23.094L250,444.595Z"/>
    <path id="Path-8" data-name="Path" class="curtain-L-prim-light" d="M0,461.9009,90,513.877v23.0939L0,484.9949Z"/>
    <path id="Path-9" data-name="Path" class="curtain-R-prim-light" d="M250,606.2249,90,698.5869v23.094l160-92.3621Z"/>
    <path id="Path-10" data-name="Path" class="curtain-L-prim-light" d="M0,646.625l90,51.9758v23.094L0,669.719Z"/>
    <path id="Path-11" data-name="Path" class="curtain-R-prim-light" d="M250,144.345,90,236.7068v23.094L250,167.439Z"/>
    <path id="Path-12" data-name="Path" class="curtain-L-prim-light" d="M0,184.7449l90,51.976v23.094L0,207.8389Z"/>
    <path id="Path-13" data-name="Path" class="curtain-R-prim-light" d="M250,329.0969,90,421.459v23.094l160-92.3621Z"/>
    <path id="Path-14" data-name="Path" class="curtain-L-prim-light" d="M0,369.4968l90,51.9761v23.094L0,392.5908Z"/>
    <path id="Path-15" data-name="Path" class="curtain-R-prim-light" d="M250,513.877,90,606.239v23.094l160-92.3621Z"/>
    <path id="Path-16" data-name="Path" class="curtain-L-prim-light" d="M0,554.2769l90,51.976v23.094L0,577.3718Z"/>
    <path id="Path-17" data-name="Path" class="curtain-R-prim-light" d="M250,698.6008,90,790.9629v23.094l160-92.3621Z"/>
    <path id="Path-18" data-name="Path" class="curtain-L-prim-light" d="M0,739.001l90,51.9758v23.094L0,762.095Z"/>
    <path id="Path-19" data-name="Path" class="curtain-R-prim-light" d="M250,98.1638,90,190.5259V213.62l160-92.3621Z"/>
    <path id="Path-20" data-name="Path" class="curtain-L-prim-light" d="M0,138.564,90,190.54v23.094L0,161.658Z"/>
    <path id="Path-21" data-name="Path" class="curtain-R-prim-light" d="M250,282.9158,90,375.2778v23.094L250,306.01Z"/>
    <path id="Path-22" data-name="Path" class="curtain-L-prim-light" d="M0,323.3159,90,375.292v23.094L0,346.41Z"/>
    <path id="Path-23" data-name="Path" class="curtain-R-prim-light" d="M250,467.6958,90,560.0579v23.094L250,490.79Z"/>
    <path id="Path-24" data-name="Path" class="curtain-L-prim-light" d="M0,508.0969l90,51.9749v23.094L0,531.1909Z"/>
    <path id="Path-25" data-name="Path" class="curtain-R-prim-light" d="M250,652.42,90,744.782v23.094l160-92.3621Z"/>
    <path id="Path-26" data-name="Path" class="curtain-L-prim-light" d="M0,692.82l90,51.9761V767.89L0,715.9138Z"/>
    <path id="Path-27" data-name="Path" class="curtain-R-prim-light" d="M250,190.54,90,282.9019v23.0939l160-92.362Z"/>
    <path id="Path-28" data-name="Path" class="curtain-L-prim-light" d="M0,230.94l90,51.9759V306.01L0,254.0339Z"/>
    <path id="Path-29" data-name="Path" class="curtain-R-prim-light" d="M250,375.292,90,467.6538v23.094L250,398.386Z"/>
    <path id="Path-30" data-name="Path" class="curtain-L-prim-light" d="M0,415.6919,90,467.668v23.094L0,438.7859Z"/>
    <path id="Path-31" data-name="Path" class="curtain-R-prim-light" d="M250,560.0718,90,652.4338v23.094l160-92.362Z"/>
    <path id="Path-32" data-name="Path" class="curtain-L-prim-light" d="M0,600.4729,90,652.448v23.094L0,623.5669Z"/>
    <path id="Path-33" data-name="Path" class="curtain-R-prim-light" d="M250,744.7959,90,837.158v23.094L250,767.89Z"/>
    <path id="Path-34" data-name="Path" class="curtain-L-prim-light" d="M0,785.1958l90,51.9761v23.094L0,808.29Z"/>
  </g>
</svg>
