<svg id="Layer_1" data-name="Layer 1" xmlns="http://www.w3.org/2000/svg" viewBox="0 0 250 952.67">
  <defs>
    <style>
      .top-dark {
        fill: #c67471;
      }

      .curtain-R-prim-dark {
        fill: #3e809c;
      }

      .curtain-L-prim-dark {
        fill: #2f5565;
      }

      .curtain-R-prim-light {
        fill: #59acd0;
      }

      .curtain-L-prim-light {
        fill: #438fb0;
      }
    </style>
  </defs>
  <title>Artboard 28</title>
  <g id="root">
    <path id="anchor_0_144.394_250" class="top-dark" d="M0,103.979V92.376L160,0l90,51.961V63.565L90,155.941Z"/>
    <path id="Path" class="curtain-R-prim-dark" d="M250,52.018V860.28L90,952.656l-10-5.773V138.62l10,5.774Z"/>
    <path id="Path-2" data-name="Path" class="curtain-L-prim-dark" d="M0,92.432V900.695l90,51.961V144.394Z"/>
    <path id="Path-3" data-name="Path" class="curtain-R-prim-light" d="M250,51.99,90,144.351v23.095L250,75.084Z"/>
    <path id="Path-4" data-name="Path" class="curtain-L-prim-light" d="M0,92.39l90,51.976V167.46L0,115.484Z"/>
    <path id="Path-5" data-name="Path" class="curtain-R-prim-light" d="M250,144.373,90,236.735v23.094l160-92.362Z"/>
    <path id="Path-6" data-name="Path" class="curtain-L-prim-light" d="M0,184.773l90,51.976v23.094L0,207.867Z"/>
    <path id="Path-7" data-name="Path" class="curtain-R-prim-light" d="M250,329.125,90,421.487v23.094l160-92.362Z"/>
    <path id="Path-8" data-name="Path" class="curtain-L-prim-light" d="M0,369.525l90,51.976v23.094L0,392.619Z"/>
    <path id="Path-9" data-name="Path" class="curtain-R-prim-light" d="M250,513.905,90,606.267v23.094l160-92.362Z"/>
    <path id="Path-10" data-name="Path" class="curtain-L-prim-light" d="M0,554.305l90,51.976v23.094L0,577.4Z"/>
    <path id="Path-11" data-name="Path" class="curtain-R-prim-light" d="M250,698.629,90,790.9911v23.094L250,721.723Z"/>
    <path id="Path-12" data-name="Path" class="curtain-L-prim-light" d="M0,739.029l90,51.976v23.094L0,762.123Z"/>
    <path id="Path-13" data-name="Path" class="curtain-R-prim-light" d="M250,236.749,90,329.111v23.094l160-92.362Z"/>
    <path id="Path-14" data-name="Path" class="curtain-L-prim-light" d="M0,277.149l90,51.976v23.094L0,300.243Z"/>
    <path id="Path-15" data-name="Path" class="curtain-R-prim-light" d="M250,421.501,90,513.863v23.094l160-92.362Z"/>
    <path id="Path-16" data-name="Path" class="curtain-L-prim-light" d="M0,461.901l90,51.976v23.094L0,484.995Z"/>
    <path id="Path-17" data-name="Path" class="curtain-R-prim-light" d="M250,606.281,90,698.643v23.094l160-92.362Z"/>
    <path id="Path-18" data-name="Path" class="curtain-L-prim-light" d="M0,646.682l90,51.975v23.094L0,669.776Z"/>
    <path id="Path-19" data-name="Path" class="curtain-R-prim-light" d="M250,791.005,90,883.367v23.094l160-92.362Z"/>
    <path id="Path-20" data-name="Path" class="curtain-L-prim-light" d="M0,831.405l90,51.976v23.0939L0,854.499Z"/>
    <path id="Path-21" data-name="Path" class="curtain-R-prim-light" d="M250,98.185,90,190.547v23.094l160-92.362Z"/>
    <path id="Path-22" data-name="Path" class="curtain-L-prim-light" d="M0,138.585l90,51.976v23.094L0,161.679Z"/>
    <path id="Path-23" data-name="Path" class="curtain-R-prim-light" d="M250,190.568,90,282.93v23.094l160-92.362Z"/>
    <path id="Path-24" data-name="Path" class="curtain-L-prim-light" d="M0,230.968l90,51.976v23.094L0,254.062Z"/>
    <path id="Path-25" data-name="Path" class="curtain-R-prim-light" d="M250,375.32,90,467.682v23.094l160-92.362Z"/>
    <path id="Path-26" data-name="Path" class="curtain-L-prim-light" d="M0,415.72l90,51.976V490.79L0,438.814Z"/>
    <path id="Path-27" data-name="Path" class="curtain-R-prim-light" d="M250,560.1,90,652.462v23.094l160-92.362Z"/>
    <path id="Path-28" data-name="Path" class="curtain-L-prim-light" d="M0,600.501l90,51.975V675.57L0,623.595Z"/>
    <path id="Path-29" data-name="Path" class="curtain-R-prim-light" d="M250,744.8239,90,837.186V860.28l160-92.3619Z"/>
    <path id="Path-30" data-name="Path" class="curtain-L-prim-light" d="M0,785.224,90,837.2v23.094L0,808.318Z"/>
    <path id="Path-31" data-name="Path" class="curtain-R-prim-light" d="M250,282.944,90,375.306V398.4l160-92.362Z"/>
    <path id="Path-32" data-name="Path" class="curtain-L-prim-light" d="M0,323.344,90,375.32v23.094L0,346.438Z"/>
    <path id="Path-33" data-name="Path" class="curtain-R-prim-light" d="M250,467.696,90,560.058v23.094L250,490.79Z"/>
    <path id="Path-34" data-name="Path" class="curtain-L-prim-light" d="M0,508.096l90,51.976v23.094L0,531.19Z"/>
    <path id="Path-35" data-name="Path" class="curtain-R-prim-light" d="M250,652.476,90,744.838v23.094L250,675.57Z"/>
    <path id="Path-36" data-name="Path" class="curtain-L-prim-light" d="M0,692.877l90,51.975v23.094L0,715.971Z"/>
    <path id="Path-37" data-name="Path" class="curtain-R-prim-light" d="M250,837.2,90,929.562v23.094l160-92.362Z"/>
    <path id="Path-38" data-name="Path" class="curtain-L-prim-light" d="M0,877.6,90,929.576V952.67L0,900.695Z"/>
  </g>
</svg>
