<svg id="Layer_1" data-name="Layer 1" xmlns="http://www.w3.org/2000/svg" viewBox="0 0 305.0598 287.2318">
  <defs>
    <style>
      .top-light {
        fill: #f9c7c6;
      }

      .exterior-L-light {
        fill: #8a3a37;
      }

      .exterior-R-prim {
        fill: #d15752;
      }

      .window-R-prim {
        fill: #bc9563;
      }

      .concrete-top {
        fill: #e8e7e7;
      }

      .exterior-R-dark {
        fill: #a64c49;
      }

      .top-prim {
        fill: #dd8986;
      }

      .cls-1 {
        fill: #8a8a8a;
      }

      .exterior-L-prim {
        fill: #74302f;
      }

      .window-L-prim {
        fill: #4e3b24;
      }

      .cls-2 {
        fill: #767576;
      }

      .cls-3 {
        fill: #5e5e5e;
      }

      .cls-4 {
        fill: #6a6a6a;
      }
    </style>
  </defs>
  <title>Artboard 87</title>
  <g id="root">
    <path id="Path" class="top-light" d="M305.06,125.5737,102.56,8.66.06,67.8387l202.5,116.9134Z"/>
    <path id="Path-2" data-name="Path" class="exterior-L-light" d="M202.56,184.7521V285.7883L0,168.9614.06,67.8386Z"/>
    <path id="Path-3" data-name="Path" class="exterior-R-prim" d="M305.06,125.5737l-102.5,59.1784V285.7883L305.06,226.61Z"/>
    <path id="Path-4" data-name="Path" class="window-R-prim" d="M292.56,219.3931l-75,43.3013v8.66l75-43.3012Z"/>
    <path id="Path-5" data-name="Path" class="window-R-prim" d="M210.06,278.5715v-2.8868l-5,2.8868v2.8868Z"/>
    <path id="Path-6" data-name="Path" class="window-R-prim" d="M300.06,226.61v-2.8868l-5,2.8868v2.8867Z"/>
    <path id="Path-7" data-name="Path" class="concrete-top" d="M215.06,281.4583l-5-2.8868-5,2.8868v5.7735Z"/>
    <path id="Path-8" data-name="Path" class="exterior-R-dark" d="M295.06,226.61l7.5-4.33v5.7736l2.5-1.4434V212.1762l-15,8.66V235.27l5-2.8868Z"/>
    <path id="Path-9" data-name="Path" class="concrete-top" d="M305.06,229.4967l-5-2.8867-5,2.8867V235.27Z"/>
    <path id="Path-10" data-name="Path" class="concrete-top" d="M297.56,239.6l-12.5-7.2169-67.5,38.9711v14.4337Z"/>
    <path id="Path-11" data-name="Path" class="exterior-L-light" d="M290.06,235.27l-7.5-4.33v-5.7735l7.5-4.33Z"/>
    <path id="Path-12" data-name="Path" class="top-light" d="M290.06,220.8365l7.5,4.33-72.5,41.8579-7.5-4.33Z"/>
    <path id="Path-13" data-name="Path" class="exterior-L-light" d="M225.06,267.0245v2.8867l-7.5-4.33v-2.8867Z"/>
    <path id="Path-14" data-name="Path" class="exterior-R-dark" d="M297.56,225.1666v2.8868l-72.5,41.8579v-2.8868Z"/>
    <path id="Path-15" data-name="Path" class="exterior-R-dark" d="M292.56,225.1666l-2.5-1.4434-7.5,4.33,2.5,1.4434Z"/>
    <path id="Path-16" data-name="Path" class="exterior-R-dark" d="M282.56,230.94l-2.5-1.4434-7.5,4.33,2.5,1.4435Z"/>
    <path id="Path-17" data-name="Path" class="exterior-R-dark" d="M272.56,236.7137l-2.5-1.4434-7.5,4.33,2.5,1.4434Z"/>
    <path id="Path-18" data-name="Path" class="exterior-R-dark" d="M262.56,242.4872l-2.5-1.4434-7.5,4.33,2.5,1.4434Z"/>
    <path id="Path-19" data-name="Path" class="exterior-R-dark" d="M252.56,248.2608l-2.5-1.4434-7.5,4.33,2.5,1.4434Z"/>
    <path id="Path-20" data-name="Path" class="exterior-R-dark" d="M242.56,254.0341l-2.5-1.4434-7.5,4.33,2.5,1.4434Z"/>
    <path id="Path-21" data-name="Path" class="exterior-R-dark" d="M232.56,259.8077l-2.5-1.4434-7.5,4.33,2.5,1.4434Z"/>
    <path id="Path-22" data-name="Path" class="exterior-L-light" d="M290.06,223.7232V226.61l2.5-1.4434Z"/>
    <path id="Path-23" data-name="Path" class="exterior-L-light" d="M280.06,229.4967v2.8868l2.5-1.4434Z"/>
    <path id="Path-24" data-name="Path" class="exterior-L-light" d="M270.06,235.27v2.8868l2.5-1.4434Z"/>
    <path id="Path-25" data-name="Path" class="exterior-L-light" d="M260.06,241.0438v2.8868l2.5-1.4434Z"/>
    <path id="Path-26" data-name="Path" class="exterior-L-light" d="M250.06,246.8174v2.8868l2.5-1.4434Z"/>
    <path id="Path-27" data-name="Path" class="exterior-L-light" d="M240.06,252.5907v2.8868l2.5-1.4434Z"/>
    <path id="Path-28" data-name="Path" class="exterior-L-light" d="M230.06,258.3643v2.8868l2.5-1.4434Z"/>
    <path id="Path-29" data-name="Path" class="top-prim" d="M300.06,125.5737l-97.5,56.2916-102.5-59.1784,95-57.7349Z"/>
    <path id="Path-30" data-name="Path" class="exterior-L-light" d="M195.06,64.952V79.3857l92.5,53.4049,12.5-7.2169Z"/>
    <path id="Path-31" data-name="Path" class="exterior-R-prim" d="M272.56,127.0171v14.4337l-65,37.5278V164.5448Z"/>
    <path id="Path-32" data-name="Path" class="top-light" d="M265.06,96.706,97.56,0,.06,56.2917l167.5,96.706Z"/>
    <path id="Path-33" data-name="Path" class="cls-1" d="M237.56,83.7156l-90,54.8484L5.06,56.2917,97.56,2.8868Z"/>
    <path id="Path-34" data-name="Path" class="exterior-R-prim" d="M97.56,2.8868V5.7735L7.56,57.735l-2.5-1.4433Z"/>
    <path id="Path-35" data-name="Path" class="exterior-L-light" d="M237.56,83.7156l-2.5,1.4435L97.56,5.7735V2.8868Z"/>
    <path id="Path-36" data-name="Path" class="exterior-L-light" d="M167.56,176.0917v-23.094L.06,56.2917,0,81.0105Z"/>
    <path id="Path-37" data-name="Path" class="exterior-R-dark" d="M305.06,125.5737l-102.5,59.1784v14.4337l102.5-59.1783Z"/>
    <path id="Path-38" data-name="Path" class="exterior-R-dark" d="M305.06,154.4411,202.56,213.62v14.4338l102.5-59.1784Z"/>
    <path id="Path-39" data-name="Path" class="exterior-R-dark" d="M305.06,183.3087l-102.5,59.1784v14.4337l102.5-59.1784Z"/>
    <path id="Path-40" data-name="Path" class="exterior-L-prim" d="M202.56,199.1858.06,82.2724V67.8386l202.5,116.9135Z"/>
    <path id="Path-41" data-name="Path" class="exterior-L-prim" d="M202.56,227.82.06,110.9066V96.4728l202.5,116.9134Z"/>
    <path id="Path-42" data-name="Path" class="exterior-L-prim" d="M202.56,256.9209.06,140.0074V125.5737l202.5,116.9134Z"/>
    <path id="Path-43" data-name="Path" class="exterior-L-prim" d="M202.56,285.7883.06,168.8749V154.4411l202.5,116.9135Z"/>
    <path id="Path-44" data-name="Path" class="exterior-R-dark" d="M205.06,278.5715l7.5-4.33v5.7736l5-2.8867V262.6944l-15,8.66v14.4338l2.5-1.4434Z"/>
    <path id="Path-45" data-name="Path" class="exterior-L-light" d="M212.56,280.0149l-2.5-1.4434v-2.8868l2.5-1.4433Z"/>
    <path id="Path-46" data-name="Path" class="exterior-L-light" d="M302.56,228.0534l-2.5-1.4434v-2.8868l2.5-1.4434Z"/>
    <path id="Path-47" data-name="Path" class="concrete-top" d="M132.56,230.94l-12.5-7.2169-15,8.66,27.5,15.8771Z"/>
    <path id="Path-48" data-name="Path" class="concrete-top" d="M162.56,248.2606l-12.5-7.2169-15,8.66,27.5,15.8771Z"/>
    <path id="Path-49" data-name="Path" class="exterior-R-dark" d="M107.56,230.94l12.5-7.2169-12.5-7.2169Z"/>
    <path id="Path-50" data-name="Path" class="exterior-R-dark" d="M137.56,248.2606V233.8268l12.5,7.2169Z"/>
    <path id="Path-51" data-name="Path" class="window-L-prim" d="M97.56,213.62v8.66l-75-43.3012v-8.66Z"/>
    <path id="Path-52" data-name="Path" class="window-L-prim" d="M97.56,199.1858v8.66l-75-43.3013v-8.66Z"/>
    <path id="Path-53" data-name="Path" class="top-light" d="M20.06,165.9882l2.5-1.4434,75,43.3013v2.8868Z"/>
    <path id="Path-54" data-name="Path" class="concrete-top" d="M97.56,222.28l-75-43.3012-5,2.8867,80,46.1881Z"/>
    <path id="Path-55" data-name="Path" class="exterior-R-dark" d="M22.56,170.3183l-2.5-1.4433v11.5469l2.5-1.4433Z"/>
    <path id="Path-56" data-name="Path" class="exterior-R-prim" d="M22.56,164.5448v-8.66l-2.5-1.4433v11.547Z"/>
    <path id="Path-57" data-name="Path" class="exterior-R-prim" d="M167.56,164.545V152.9979l97.5-56.2916V119.8l-85,49.0748-10-5.7736Z"/>
    <path id="Path-58" data-name="Path" class="exterior-L-light" d="M182.56,150.111v17.3205l22.5,12.99,2.5-1.4434V164.5449Z"/>
    <path id="Path-59" data-name="Path" class="top-light" d="M272.56,127.0171l-25-14.4339-65,37.5278,25,14.4339Z"/>
    <path id="Path-60" data-name="Path" class="top-prim" d="M265.06,128.4605l-20-11.5472-57.5,33.1976,20,11.5472Z"/>
    <path id="Path-61" data-name="Path" class="exterior-L-light" d="M267.56,127.0171l-20-11.5472v2.8868l17.5,10.1037Z"/>
    <path id="Path-62" data-name="Path" class="exterior-L-light" d="M187.56,150.1109l2.5,1.4434,57.5-33.1976V115.47Z"/>
    <path id="Path-63" data-name="Path" class="cls-2" d="M147.56,135.6776v2.8867l20,11.547,92.5-53.4049-2.5-4.33L239.94,82.2725Z"/>
    <path id="Path-64" data-name="Path" class="cls-3" d="M259.94,96.7063l-2.5-4.33-92.38,53.405,2.5,4.33Z"/>
    <path id="Path-65" data-name="Path" class="cls-4" d="M147.56,135.6776l-.12,2.8866,20.12,11.5471-2.5-4.33Z"/>
    <path id="Path-66" data-name="Path" class="top-light" d="M250.06,125.5739l-7.5-4.3305-10,5.7735,7.5,4.33Z"/>
    <path id="Path-67" data-name="Path" class="exterior-L-light" d="M240.06,137.1208l-7.5-4.33V127.017l7.5,4.33Z"/>
    <path id="Path-68" data-name="Path" class="exterior-R-prim" d="M250.06,125.5738v5.7735l-10,5.7735v-5.7735Z"/>
    <g id="Group">
      <path id="anchor_17.244_130.264_205.973" class="top-light" d="M223.2168,84.37,96.3435,11.4823,17.2441,57.3771l126.8733,72.8874Z"/>
    </g>
  </g>
</svg>
