<svg id="Layer_1" data-name="Layer 1" xmlns="http://www.w3.org/2000/svg" viewBox="0 0 250 176.0919">
  <defs>
    <style>
      .window-L-prim {
        fill: #4d3b25;
      }

      .window-R-prim {
        fill: #bd9563;
      }

      .exterior-R-prim {
        fill: #d15752;
      }

      .exterior-L-prim {
        fill: #73302f;
      }

      .cls-1 {
        fill: none;
      }

      .top-dark {
        fill: #c67471;
      }

      .cls-2 {
        fill: #231f20;
      }
    </style>
  </defs>
  <title>Artboard 30</title>
  <g id="root">
    <path id="Path" class="window-L-prim" d="M152.5,168.875,30,98.15,27.5,73.6122l125,72.1688Z"/>
    <path id="Path-2" data-name="Path" class="window-R-prim" d="M167.5,168.875,230,132.7906V112.5833l-62.5,36.0845Z"/>
    <path id="Path-3" data-name="Path" class="exterior-R-prim" d="M37.5,44.7447,25,37.5278,0,51.9616,20,98.15l12.5,7.2168,5-2.8868Z"/>
    <path id="Path-4" data-name="Path" class="exterior-L-prim" d="M12.5,59.1784,0,51.9616,20,98.15l12.5,7.2169Z"/>
    <path id="Path-5" data-name="Path" class="exterior-R-prim" d="M68.125,62.426l-12.5-7.2168-25,14.4337,20,46.188,12.5,7.2169,5-2.8868Z"/>
    <path id="Path-6" data-name="Path" class="exterior-L-prim" d="M43.125,76.86l-12.5-7.2169,20,46.1881,12.5,7.2168Z"/>
    <path id="Path-7" data-name="Path" class="exterior-R-prim" d="M98.75,80.1074l-12.5-7.2169-25,14.4338,20,46.188,12.5,7.2168,5-2.8868Z"/>
    <path id="Path-8" data-name="Path" class="exterior-L-prim" d="M73.75,94.5411l-12.5-7.2168,20,46.188,12.5,7.2169Z"/>
    <g id="Group">
      <path id="Path-9" data-name="Path" class="exterior-L-prim" d="M212.5,85.1592,225,77.9423l25,14.4338-20,46.188-12.5,7.2168-5-2.8868Z"/>
      <path id="Path-10" data-name="Path" class="exterior-R-prim" d="M237.5,99.5929,250,92.3761l-20,46.188-12.5,7.2169Z"/>
    </g>
    <path id="Path-11" data-name="Path" class="exterior-R-prim" d="M129.375,97.7887l-12.5-7.2169-25,14.4338,20,46.188,12.5,7.2169,5-2.8868Z"/>
    <path id="Path-12" data-name="Path" class="exterior-L-prim" d="M104.375,112.2225l-12.5-7.2169,20,46.1881,12.5,7.2168Z"/>
    <g id="Group-2" data-name="Group">
      <path id="Path-13" data-name="Path" class="exterior-L-prim" d="M186.25,100.3146l12.5-7.2168,25,14.4337-20,46.188-12.5,7.2169-5-2.8868Z"/>
      <path id="Path-14" data-name="Path" class="exterior-R-prim" d="M211.25,114.7484l12.5-7.2169-20,46.1881-12.5,7.2168Z"/>
    </g>
    <path id="Path-15" data-name="Path" class="exterior-R-prim" d="M160,115.47l-12.5-7.2169-25,14.4338,20,46.188,12.5,7.2168,5-2.8868Z"/>
    <path id="Path-16" data-name="Path" class="exterior-L-prim" d="M135,129.9038l-12.5-7.2168,20,46.188,12.5,7.2169Z"/>
    <g id="Group-3" data-name="Group">
      <path id="Path-17" data-name="Path" class="exterior-L-prim" d="M160,115.47l12.5-7.2169,25,14.4338-20,46.188L165,176.0918l-5-2.8867Z"/>
      <path id="Path-18" data-name="Path" class="exterior-R-prim" d="M185,129.9039l12.5-7.2169-20,46.188L165,176.0919Z"/>
    </g>
    <line id="roof-left" class="cls-1" x1="135" y1="129.9039" y2="51.9616"/>
    <line id="Path-19" data-name="Path" class="cls-1" x1="160" y1="115.4701" x2="135" y2="129.9038"/>
    <line id="Path-20" data-name="Path" class="cls-1" x1="160" y1="115.4701" x2="185" y2="129.9038"/>
    <path id="anchor_0_144.338__250" data-name="anchor_0_144.338 _250" class="top-dark" d="M250,92.3761,90,0,0,51.9615l160,92.3761Z"/>
    <path class="cls-2" d="M118.4668,72.033a2.6117,2.6117,0,0,0,1.4961,2.23,3.6245,3.6245,0,0,0,1.55.3134,2.9066,2.9066,0,0,0,2.48-1.0674,3.835,3.835,0,0,0,.8057-2.3652,3.0947,3.0947,0,0,0-.957-2.4287,3.3261,3.3261,0,0,0-2.2979-.8584,3.463,3.463,0,0,0-1.67.377,3.5775,3.5775,0,0,0-1.1875,1.0468l-1.6328-.0947,1.1416-8.0693h7.7861v1.8213h-6.374l-.6387,4.166a4.634,4.634,0,0,1,.9942-.5967,5.0461,5.0461,0,0,1,1.9365-.3457,4.9562,4.9562,0,0,1,3.4961,1.3291,4.3976,4.3976,0,0,1,1.4346,3.37,5.7851,5.7851,0,0,1-1.3145,3.7481,5.08,5.08,0,0,1-4.1914,1.622,5.3344,5.3344,0,0,1-3.2393-1.0312,4.0887,4.0887,0,0,1-1.5761-3.166Z"/>
  </g>
</svg>
