<svg id="Layer_1" data-name="Layer 1" xmlns="http://www.w3.org/2000/svg" viewBox="0 0 740 461.158">
  <defs>
    <style>
      .cls-1 {
        fill: #f4f4f4;
      }

      .cls-2 {
        fill: #d1d1d1;
      }

      .cls-3 {
        fill: #a2a2a2;
      }

      .exterior-L-light {
        fill: #8a3a37;
      }

      .exterior-R-light {
        fill: #df5d58;
      }

      .exterior-R-prim {
        fill: #d05752;
      }

      .crown-R-prim {
        fill: #bfd7bd;
      }

      .exterior-L-prim {
        fill: #73302e;
      }

      .exterior-R-dark {
        fill: #a64c49;
      }

      .crown-L-prim {
        fill: #8fa88c;
      }

      .top-prim {
        fill: #dd8a87;
      }

      .crown-L-prim-dark {
        fill: #6e806c;
      }

      .window-L-prim {
        fill: #4d3b24;
      }

      .crown-top-prim {
        fill: #e5f7e3;
      }

      .crown-R-prim-dark {
        fill: #a6c6a4;
      }

      .window-R-prim {
        fill: #bd9664;
      }
    </style>
  </defs>
  <title>Artboard 15</title>
  <g id="root">
    <path class="cls-1" d="M480,455.385,740,305.274,260,28.145,0,178.257Z"/>
    <path class="cls-2" d="M480,455.385v5.773L740,311.047v-5.773Z"/>
    <path class="cls-3" d="M0,178.257v5.773L480,461.158v-5.773Z"/>
    <path class="exterior-L-light" d="M386.25,362.287l-2.5,1.443-50-28.867v-2.887l-127.5-73.612-2.5,1.443-50-28.867v-2.887l-100-57.735V121.243L72.5,110.418l435,251.147-18.75,10.826v43.301l-5,2.887Z"/>
    <path class="exterior-R-light" d="M531.25,391.154l2.5,1.444,110-63.509v-2.886l50-28.868V248.26l-210,121.244-5-2.887v49.075l5,2.887Z"/>
    <path class="exterior-R-prim" d="M533.75,392.598l110-63.509V280.015l-110,63.508Z"/>
    <path class="exterior-L-light" d="M153.75,181.876l50,28.868v49.063l-50-28.867Z"/>
    <path class="exterior-L-light" d="M333.75,285.799l50,28.868V363.73l-50-28.867Z"/>
    <path class="exterior-R-light" d="M386.25,362.287l-2.5,1.443V311.769l2.5,1.443Z"/>
    <path class="exterior-R-light" d="M206.25,209.289v49.075l-2.5,1.443V207.846Z"/>
    <path class="exterior-L-light" d="M533.75,340.636l-2.5,1.444v49.074l2.5,1.444Z"/>
    <path class="crown-R-prim" d="M383.75,372.391l2.5-1.444V359.4l-2.5,1.444Z"/>
    <path class="crown-R-prim" d="M206.25,267.024l-2.5,1.444V256.921l2.5-1.444Z"/>
    <path class="exterior-L-prim" d="M345,292.295l-11.25-6.496v49.064L345,341.358Z"/>
    <path class="exterior-R-dark" d="M572.5,321.159l12.5-7.217v49.072l-12.5,7.217Z"/>
    <path class="exterior-R-dark" d="M592.5,309.612l12.5-7.217v49.064l-12.5,7.217Z"/>
    <path class="exterior-R-dark" d="M612.5,298.065l12.5-7.217v49.064l-12.5,7.217Z"/>
    <path class="exterior-R-dark" d="M632.5,286.518l11.25-6.495v49.063l-11.25,6.496Z"/>
    <path class="exterior-L-prim" d="M165,188.372l-11.25-6.496V230.94L165,237.435Z"/>
    <path class="exterior-L-prim" d="M365,303.842l-12.5-7.217v49.063l12.5,7.217Z"/>
    <path class="exterior-R-dark" d="M552.5,332.706l12.5-7.217v49.072l-12.5,7.217Z"/>
    <path class="exterior-L-prim" d="M185,199.919l-12.5-7.217v49.063l12.5,7.217Z"/>
    <path class="exterior-L-prim" d="M383.75,314.656l-11.25-6.484v49.063l11.25,6.484Z"/>
    <path class="exterior-R-dark" d="M533.75,343.523,545,337.039v49.072l-11.25,6.484Z"/>
    <path class="exterior-L-prim" d="M401.25,321.872l-15-8.648v49.063l15,8.649Z"/>
    <path class="exterior-L-prim" d="M68.75,129.892l-15-8.649v49.075l15,8.649Z"/>
    <path class="exterior-L-prim" d="M421.25,333.408l-12.5-7.205v49.063l12.5,7.205Z"/>
    <path class="exterior-L-prim" d="M88.75,141.428l-12.5-7.206v49.075l12.5,7.205Z"/>
    <path class="exterior-L-prim" d="M333.75,282.901l-10-5.759V326.2l10,5.759Z"/>
    <path class="exterior-L-prim" d="M316.25,272.812l-12.5-7.217v49.058l12.5,7.217Z"/>
    <path class="exterior-L-prim" d="M296.25,261.265l-12.5-7.217v49.058l12.5,7.217Z"/>
    <path class="exterior-L-prim" d="M276.25,238.157l-12.5-7.217v60.619l12.5,7.217Z"/>
    <path class="exterior-L-prim" d="M256.25,238.177l-12.5-7.217v49.057l12.5,7.217Z"/>
    <path class="exterior-L-prim" d="M236.25,226.624l-12.5-7.217v49.058l12.5,7.217Z"/>
    <path class="exterior-L-prim" d="M216.25,215.08l-10-5.791v49.058l10,5.79Z"/>
    <path class="exterior-L-prim" d="M441.25,344.955l-12.5-7.205v49.063l12.5,7.205Z"/>
    <path class="exterior-L-prim" d="M108.75,152.975l-12.5-7.206v49.075l12.5,7.206Z"/>
    <path class="exterior-L-prim" d="M461.25,356.513l-12.5-7.216V398.36l12.5,7.217Z"/>
    <path class="exterior-R-prim" d="M501.25,359.4l12.5-7.217v49.075l-12.5,7.217Z"/>
    <path class="exterior-R-prim" d="M661.25,267.027l12.5-7.217v49.072l-12.5,7.217Z"/>
    <path class="exterior-L-prim" d="M128.75,164.533l-12.5-7.217v49.075l12.5,7.217Z"/>
    <path class="exterior-L-prim" d="M488.75,415.692V366.617l-5,2.887-15-8.66v49.063l15,8.66Z"/>
    <path class="exterior-R-prim" d="M483.75,369.504l10-5.774v49.075l-10,5.774Z"/>
    <path class="exterior-R-prim" d="M643.75,277.131l10-5.774v49.072l-10,5.774Z"/>
    <path class="exterior-R-prim" d="M521.25,347.853l10-5.773v49.074l-10,5.774Z"/>
    <path class="exterior-R-prim" d="M681.25,255.48l10-5.774v49.072l-10,5.774Z"/>
    <path class="exterior-L-prim" d="M153.75,178.978l-17.5-10.115v49.075l17.5,10.115Z"/>
    <path class="exterior-L-prim" d="M203.75,210.733l-11.25-6.484v49.063l11.25,6.484Z"/>
    <path class="crown-L-prim" d="M386.25,370.947V359.4l97.5,56.292v11.547Z"/>
    <path class="crown-L-prim" d="M383.75,372.391V360.844l-50-28.868v11.547Z"/>
    <path class="crown-L-prim" d="M206.25,255.477l127.5,73.612v11.547l-127.5-73.612Z"/>
    <path class="crown-L-prim" d="M153.75,239.6V228.053l50,28.868v11.547Z"/>
    <path class="crown-L-prim" d="M53.75,178.978V167.431l100,57.735v11.547Z"/>
    <path class="crown-R-prim" d="M483.75,415.692l47.5-27.424v11.547l-47.5,27.424Z"/>
    <path class="crown-R-prim" d="M533.75,389.711l110-63.508V337.75l-110,63.508Z"/>
    <path class="crown-R-prim" d="M693.75,305.995V294.448l-50,28.868v11.547Z"/>
    <path class="crown-L-prim" d="M531.25,399.815V388.268l2.5,1.443v11.547Z"/>
    <path id="anchor_53.75_369.504_640" class="top-prim" d="M156.25,180.422l-2.5,1.443,50,28.867,2.5-1.443,50,28.868,10-5.774,17.5,10.104v11.547l50,28.867v2.887l50,28.868,2.5-1.444,97.5,56.292,47.5-27.424,2.5,1.443,110-63.508-2.5-1.444,52.5-30.311L263.75,0l-210,121.243Z"/>
    <path class="exterior-R-prim" d="M256.25,295.892l10-5.774V232.383l-10,5.774Z"/>
    <path class="cls-1" d="M266.25,290.118,255,296.613l28.75,16.599v-12.99Z"/>
    <g>
      <path class="crown-L-prim-dark" d="M295,277.849l1.25-.721,6.25,3.608v-2.887l12.5,7.217,1.25.722v2.887l7.5,4.33v34.641l-1.25.722L295,312.49Z"/>
      <path class="window-L-prim" d="M298.75,288.675l3.75,2.165v14.434l-3.75-2.165Z"/>
      <path class="window-L-prim" d="M313.75,297.335v14.434l-7.5-4.33V293.005Z"/>
      <path class="window-L-prim" d="M321.25,316.099l-3.75-2.165V299.5l3.75,2.165Z"/>
      <path class="crown-L-prim" d="M296.25,280.015l6.25,3.608v5.773l-6.25-3.608Z"/>
      <path class="crown-L-prim" d="M315,290.84l6.25,3.608v5.774L315,296.613Z"/>
      <path class="crown-L-prim" d="M303.75,284.345l10,5.773v5.774l-10-5.774Z"/>
      <path class="crown-L-prim" d="M296.25,305.995l6.25,3.609v5.773l-6.25-3.608Z"/>
      <path class="crown-L-prim" d="M315,316.821l6.25,3.608v5.774L315,322.594Z"/>
      <path class="crown-L-prim" d="M303.75,310.325l10,5.774v5.773l-10-5.773Z"/>
      <path class="crown-top-prim" d="M302.5,308.16v-2.886l-3.75-2.165v-1.444l-2.5,1.444v1.443Z"/>
      <path class="crown-top-prim" d="M321.25,318.986v-2.887l-3.75-2.165V312.49l-2.5,1.444v1.443Z"/>
      <path class="crown-top-prim" d="M313.75,314.656v-2.887l-7.5-4.33v-1.444l-2.5,1.444v1.443Z"/>
      <path class="crown-top-prim" d="M296.25,311.769v-1.444l1.25-.721v1.443l5,2.887v1.443Z"/>
      <path class="crown-top-prim" d="M315,322.594v-1.443l1.25-.722v1.443l5,2.887v1.444Z"/>
      <path class="crown-top-prim" d="M303.75,316.099v-1.443l1.25-.722v1.443l8.75,5.052v1.443Z"/>
      <path class="crown-top-prim" d="M297.5,285.066v-1.443l-1.25.722v1.443l6.25,3.608v-1.443Z"/>
      <path class="crown-top-prim" d="M316.25,295.892v-1.444l-1.25.722v1.443l6.25,3.609v-1.444Z"/>
      <path class="crown-top-prim" d="M305,289.396v-1.443l-1.25.722v1.443l10,5.774v-1.444Z"/>
      <path class="crown-R-prim" d="M296.25,305.995l1.25.722v4.33l-1.25.722Z"/>
      <path class="crown-R-prim" d="M315,316.821l1.25.721v4.33l-1.25.722Z"/>
      <path class="crown-R-prim" d="M303.75,310.325l1.25.722v4.33l-1.25.722Z"/>
      <path class="crown-R-prim" d="M297.5,285.066l-1.25.722v-5.773l1.25.721Z"/>
      <path class="crown-R-prim" d="M316.25,295.892l-1.25.721V290.84l1.25.722Z"/>
      <path class="crown-R-prim" d="M305,289.396l-1.25.722v-5.773l1.25.721Z"/>
      <path class="crown-R-prim" d="M296.25,287.231l2.5,1.444v14.434l-2.5,1.443Z"/>
      <path class="crown-R-prim" d="M315,298.057l2.5,1.443v14.434l-2.5,1.443Z"/>
      <path class="crown-R-prim" d="M303.75,291.562l2.5,1.443v14.434l-2.5,1.443Z"/>
      <path class="crown-top-prim" d="M295,277.849l1.25-.721,6.25,3.608v1.444Z"/>
      <path class="crown-R-prim" d="M315,285.066v4.33l1.25-.721v-4.33l-1.25-.722-1.25.722Z"/>
      <path class="crown-top-prim" d="M322.5,293.727l1.25-.722-7.5-4.33-1.25.721Z"/>
      <path class="crown-R-prim" d="M322.5,328.368l1.25-.722V293.005l-1.25.722Z"/>
      <path class="crown-L-prim" d="M313.75,285.788v2.887l-10-5.774v-2.886Z"/>
      <path class="crown-top-prim" d="M305,282.18v-1.444l-1.25.722v1.443l10,5.774v-1.444Z"/>
      <path class="crown-R-prim" d="M305,282.18l-1.25.721v-2.886l1.25.721Z"/>
      <path class="crown-top-prim" d="M302.5,277.849l1.25-.721,12.5,7.217-1.25.721Z"/>
    </g>
    <g>
      <path class="crown-L-prim-dark" d="M215,231.661l1.25-.721,6.25,3.608v-2.887l12.5,7.217,1.25.722v2.887l7.5,4.33v34.641l-1.25.722L215,266.302Z"/>
      <path class="window-L-prim" d="M218.75,242.487l3.75,2.165v14.434l-3.75-2.165Z"/>
      <path class="window-L-prim" d="M233.75,251.147v14.434l-7.5-4.33V246.817Z"/>
      <path class="window-L-prim" d="M241.25,269.911l-3.75-2.165V253.312l3.75,2.165Z"/>
      <path class="crown-L-prim" d="M216.25,233.827l6.25,3.608v5.773l-6.25-3.608Z"/>
      <path class="crown-L-prim" d="M235,244.652l6.25,3.608v5.774L235,250.425Z"/>
      <path class="crown-L-prim" d="M223.75,238.157l10,5.773v5.774l-10-5.774Z"/>
      <path class="crown-L-prim" d="M216.25,259.807l6.25,3.609v5.773l-6.25-3.608Z"/>
      <path class="crown-L-prim" d="M235,270.633l6.25,3.608v5.774L235,276.406Z"/>
      <path class="crown-L-prim" d="M223.75,264.137l10,5.774v5.773l-10-5.773Z"/>
      <path class="crown-top-prim" d="M222.5,261.972v-2.886l-3.75-2.165v-1.444l-2.5,1.444v1.443Z"/>
      <path class="crown-top-prim" d="M241.25,272.798v-2.887l-3.75-2.165v-1.444l-2.5,1.444v1.443Z"/>
      <path class="crown-top-prim" d="M233.75,268.468v-2.887l-7.5-4.33v-1.444l-2.5,1.444v1.443Z"/>
      <path class="crown-top-prim" d="M216.25,265.581v-1.444l1.25-.721v1.443l5,2.887v1.443Z"/>
      <path class="crown-top-prim" d="M235,276.406v-1.443l1.25-.722v1.443l5,2.887v1.444Z"/>
      <path class="crown-top-prim" d="M223.75,269.911v-1.443l1.25-.722v1.443l8.75,5.052v1.443Z"/>
      <path class="crown-top-prim" d="M217.5,238.878v-1.443l-1.25.722V239.6l6.25,3.608v-1.443Z"/>
      <path class="crown-top-prim" d="M236.25,249.704V248.26l-1.25.722v1.443l6.25,3.609V252.59Z"/>
      <path class="crown-top-prim" d="M225,243.208v-1.443l-1.25.722v1.443l10,5.774V248.26Z"/>
      <path class="crown-R-prim" d="M216.25,259.807l1.25.722v4.33l-1.25.722Z"/>
      <path class="crown-R-prim" d="M235,270.633l1.25.721v4.33l-1.25.722Z"/>
      <path class="crown-R-prim" d="M223.75,264.137l1.25.722v4.33l-1.25.722Z"/>
      <path class="crown-R-prim" d="M217.5,238.878l-1.25.722v-5.773l1.25.721Z"/>
      <path class="crown-R-prim" d="M236.25,249.704l-1.25.721v-5.773l1.25.722Z"/>
      <path class="crown-R-prim" d="M225,243.208l-1.25.722v-5.773l1.25.721Z"/>
      <path class="crown-R-prim" d="M216.25,241.043l2.5,1.444v14.434l-2.5,1.443Z"/>
      <path class="crown-R-prim" d="M235,251.869l2.5,1.443v14.434l-2.5,1.443Z"/>
      <path class="crown-R-prim" d="M223.75,245.374l2.5,1.443v14.434l-2.5,1.443Z"/>
      <path class="crown-top-prim" d="M215,231.661l1.25-.721,6.25,3.608v1.444Z"/>
      <path class="crown-R-prim" d="M235,238.878v4.33l1.25-.721v-4.33l-1.25-.722-1.25.722Z"/>
      <path class="crown-top-prim" d="M242.5,247.539l1.25-.722-7.5-4.33-1.25.721Z"/>
      <path class="crown-R-prim" d="M242.5,282.18l1.25-.722V246.817l-1.25.722Z"/>
      <path class="crown-L-prim" d="M233.75,239.6v2.887l-10-5.774v-2.886Z"/>
      <path class="crown-top-prim" d="M225,235.992v-1.444l-1.25.722v1.443l10,5.774v-1.444Z"/>
      <path class="crown-R-prim" d="M225,235.992l-1.25.721v-2.886l1.25.721Z"/>
      <path class="crown-top-prim" d="M222.5,231.661l1.25-.721,12.5,7.217-1.25.721Z"/>
    </g>
    <path class="crown-L-prim-dark" d="M265,256.199l1.25-.722,6.25,3.609v-2.887l11.25,6.495v38.971L280,299.5v-1.443l-5-2.887-1.25.722L265,290.84Z"/>
    <path class="window-L-prim" d="M267.5,266.302l5,2.887v5.774l-5-2.887Z"/>
    <path class="window-L-prim" d="M280,273.519v5.774l-5-2.887v-5.773Z"/>
    <path class="window-L-prim" d="M283.75,275.684v5.774l-1.25-.722v-5.773Z"/>
    <path class="crown-L-prim" d="M266.25,258.364l6.25,3.608v5.774l-6.25-3.609Z"/>
    <path class="crown-L-prim" d="M273.75,262.694l10,5.774v5.773l-10-5.773Z"/>
    <path class="window-L-prim" d="M267.5,274.963l5,2.886v14.434l-5-2.887Z"/>
    <path class="window-L-prim" d="M275,279.293l5,2.887v15.877l-5-2.887Z"/>
    <path class="window-L-prim" d="M282.5,283.623l1.25.722v14.433l-1.25-.721Z"/>
    <path class="crown-top-prim" d="M272.5,276.406v-1.443l-5-2.887v-1.443l-1.25.721v1.444Z"/>
    <path class="crown-top-prim" d="M280,280.736v-1.443l-5-2.887v-1.443l-1.25.721v1.444Z"/>
    <path class="crown-top-prim" d="M283.75,282.901v-1.443l-1.25-.722v-1.443l-1.25.722v1.443Z"/>
    <path class="crown-top-prim" d="M266.25,290.118v-1.443l1.25-.722v1.443l5,2.887v1.444Z"/>
    <path class="crown-top-prim" d="M281.25,298.778v-1.443l1.25-.722v1.444l1.25.721v1.444Z"/>
    <path class="crown-top-prim" d="M267.5,263.416v-1.444l-1.25.722v1.443l6.25,3.609v-1.444Z"/>
    <path class="crown-top-prim" d="M275,267.746v-1.444l-1.25.722v1.444l10,5.773v-1.443Z"/>
    <path class="crown-R-prim" d="M266.25,274.241l1.25.722v14.433l-1.25.722Z"/>
    <path class="crown-R-prim" d="M273.75,278.571l1.25.722V295.17l-1.25.722Z"/>
    <path class="crown-R-prim" d="M281.25,282.901l1.25.722v14.434l-1.25.721Z"/>
    <path class="crown-R-prim" d="M267.5,263.416l-1.25.721v-5.773l1.25.722Z"/>
    <path class="crown-R-prim" d="M275,267.746l-1.25.722v-5.774l1.25.722Z"/>
    <path class="crown-R-prim" d="M266.25,265.581l1.25.721v5.774l-1.25.722Z"/>
    <path class="crown-R-prim" d="M273.75,269.911l1.25.722v5.773l-1.25.722Z"/>
    <path class="crown-R-prim" d="M281.25,274.241l1.25.722v5.773l-1.25.722Z"/>
    <path class="crown-top-prim" d="M265,256.199l1.25-.722,6.25,3.609v1.443Z"/>
    <path class="crown-L-prim" d="M283.75,264.137v2.887l-10-5.773v-2.887Z"/>
    <path class="crown-top-prim" d="M275,260.529v-1.443l-1.25.721v1.444l10,5.773v-1.443Z"/>
    <path class="crown-R-prim" d="M275,260.529l-1.25.722v-2.887l1.25.722Z"/>
    <path class="crown-top-prim" d="M272.5,256.199l1.25-.722,10,5.774v1.443Z"/>
    <g>
      <path class="crown-L-prim-dark" d="M163.75,204.959l1.25-.722,6.25,3.609v-2.887l12.5,7.217,1.25.722v2.886l7.5,4.33v34.641l-1.25.722L163.75,239.6Z"/>
      <path class="window-L-prim" d="M167.5,215.784l3.75,2.165v14.434l-3.75-2.165Z"/>
      <path class="window-L-prim" d="M182.5,224.445v14.433l-7.5-4.33V220.114Z"/>
      <path class="window-L-prim" d="M190,243.208l-3.75-2.165V226.61l3.75,2.165Z"/>
      <path class="crown-L-prim" d="M165,207.124l6.25,3.609v5.773L165,212.898Z"/>
      <path class="crown-L-prim" d="M183.75,217.949l6.25,3.609v5.773l-6.25-3.608Z"/>
      <path class="crown-L-prim" d="M172.5,211.454l10,5.774v5.773l-10-5.773Z"/>
      <path class="crown-L-prim" d="M165,233.105l6.25,3.608v5.774L165,238.878Z"/>
      <path class="crown-L-prim" d="M183.75,243.93l6.25,3.609v5.773l-6.25-3.608Z"/>
      <path class="crown-L-prim" d="M172.5,237.435l10,5.773v5.774l-10-5.774Z"/>
      <path class="crown-top-prim" d="M171.25,235.27v-2.887l-3.75-2.165v-1.443l-2.5,1.443v1.443Z"/>
      <path class="crown-top-prim" d="M190,246.095v-2.887l-3.75-2.165V239.6l-2.5,1.443v1.444Z"/>
      <path class="crown-top-prim" d="M182.5,241.765v-2.887l-7.5-4.33v-1.443l-2.5,1.443v1.444Z"/>
      <path class="crown-top-prim" d="M165,238.878v-1.443l1.25-.722v1.444l5,2.886v1.444Z"/>
      <path class="crown-top-prim" d="M183.75,249.704V248.26l1.25-.721v1.443l5,2.887v1.443Z"/>
      <path class="crown-top-prim" d="M172.5,243.208v-1.443l1.25-.722v1.444l8.75,5.052v1.443Z"/>
      <path class="crown-top-prim" d="M166.25,212.176v-1.444l-1.25.722v1.444l6.25,3.608v-1.443Z"/>
      <path class="crown-top-prim" d="M185,223.001v-1.443l-1.25.722v1.443l6.25,3.608v-1.443Z"/>
      <path class="crown-top-prim" d="M173.75,216.506v-1.443l-1.25.721v1.444l10,5.773v-1.443Z"/>
      <path class="crown-R-prim" d="M165,233.105l1.25.722v4.33l-1.25.721Z"/>
      <path class="crown-R-prim" d="M183.75,243.93l1.25.722v4.33l-1.25.722Z"/>
      <path class="crown-R-prim" d="M172.5,237.435l1.25.722v4.33l-1.25.721Z"/>
      <path class="crown-R-prim" d="M166.25,212.176l-1.25.722v-5.774l1.25.722Z"/>
      <path class="crown-R-prim" d="M185,223.001l-1.25.722v-5.774l1.25.722Z"/>
      <path class="crown-R-prim" d="M173.75,216.506l-1.25.722v-5.774l1.25.722Z"/>
      <path class="crown-R-prim" d="M165,214.341l2.5,1.443v14.434l-2.5,1.443Z"/>
      <path class="crown-R-prim" d="M183.75,225.166l2.5,1.444v14.433l-2.5,1.444Z"/>
      <path class="crown-R-prim" d="M172.5,218.671l2.5,1.443v14.434l-2.5,1.444Z"/>
      <path class="crown-top-prim" d="M163.75,204.959l1.25-.722,6.25,3.609v1.443Z"/>
      <path class="crown-R-prim" d="M183.75,212.176v4.33l1.25-.722v-4.33l-1.25-.722-1.25.722Z"/>
      <path class="crown-top-prim" d="M191.25,220.836l1.25-.722-7.5-4.33-1.25.722Z"/>
      <path class="crown-R-prim" d="M191.25,255.477l1.25-.722V220.114l-1.25.722Z"/>
      <path class="crown-L-prim" d="M182.5,212.898v2.886l-10-5.773v-2.887Z"/>
      <path class="crown-top-prim" d="M173.75,209.289v-1.443l-1.25.721v1.444l10,5.773v-1.443Z"/>
      <path class="crown-R-prim" d="M173.75,209.289l-1.25.722v-2.887l1.25.722Z"/>
      <path class="crown-top-prim" d="M171.25,204.959l1.25-.722,12.5,7.217-1.25.722Z"/>
    </g>
    <g>
      <path class="crown-L-prim-dark" d="M107.5,169.596l1.25-.721,6.25,3.608v-2.887l12.5,7.217,1.25.722v2.887l7.5,4.33v34.641l-1.25.721-27.5-15.877Z"/>
      <path class="window-L-prim" d="M111.25,180.422l3.75,2.165V197.02l-3.75-2.165Z"/>
      <path class="window-L-prim" d="M126.25,189.082v14.434l-7.5-4.331V184.752Z"/>
      <path class="window-L-prim" d="M133.75,207.846,130,205.681V191.247l3.75,2.165Z"/>
      <path class="crown-L-prim" d="M108.75,171.761,115,175.37v5.773l-6.25-3.608Z"/>
      <path class="crown-L-prim" d="M127.5,182.587l6.25,3.608v5.774l-6.25-3.609Z"/>
      <path class="crown-L-prim" d="M116.25,176.091l10,5.774v5.773l-10-5.773Z"/>
      <path class="crown-L-prim" d="M108.75,197.742l6.25,3.609v5.773l-6.25-3.608Z"/>
      <path class="crown-L-prim" d="M127.5,208.567l6.25,3.609v5.773l-6.25-3.608Z"/>
      <path class="crown-L-prim" d="M116.25,202.072l10,5.774v5.773l-10-5.773Z"/>
      <path class="crown-top-prim" d="M115,199.907V197.02l-3.75-2.165v-1.443l-2.5,1.443v1.444Z"/>
      <path class="crown-top-prim" d="M133.75,210.733v-2.887L130,205.681v-1.444l-2.5,1.444v1.443Z"/>
      <path class="crown-top-prim" d="M126.25,206.402v-2.886l-7.5-4.33v-1.444l-2.5,1.443v1.444Z"/>
      <path class="crown-top-prim" d="M108.75,203.516v-1.444l1.25-.721v1.443l5,2.887v1.443Z"/>
      <path class="crown-top-prim" d="M127.5,214.341v-1.443l1.25-.722v1.443l5,2.887v1.443Z"/>
      <path class="crown-top-prim" d="M116.25,207.846v-1.444l1.25-.721v1.443l8.75,5.052v1.443Z"/>
      <path class="crown-top-prim" d="M110,176.813V175.37l-1.25.721v1.444l6.25,3.608V179.7Z"/>
      <path class="crown-top-prim" d="M128.75,187.638v-1.443l-1.25.722v1.443l6.25,3.609v-1.444Z"/>
      <path class="crown-top-prim" d="M117.5,181.143V179.7l-1.25.722v1.443l10,5.773v-1.443Z"/>
      <path class="crown-R-prim" d="M108.75,197.742l1.25.722v4.33l-1.25.722Z"/>
      <path class="crown-R-prim" d="M127.5,208.567l1.25.722v4.33l-1.25.722Z"/>
      <path class="crown-R-prim" d="M116.25,202.072l1.25.722v4.33l-1.25.722Z"/>
      <path class="crown-R-prim" d="M110,176.813l-1.25.722v-5.774l1.25.722Z"/>
      <path class="crown-R-prim" d="M128.75,187.638l-1.25.722v-5.773l1.25.721Z"/>
      <path class="crown-R-prim" d="M117.5,181.143l-1.25.722v-5.774l1.25.722Z"/>
      <path class="crown-R-prim" d="M108.75,178.978l2.5,1.444v14.433l-2.5,1.444Z"/>
      <path class="crown-R-prim" d="M127.5,189.804l2.5,1.443v14.434l-2.5,1.443Z"/>
      <path class="crown-R-prim" d="M116.25,183.308l2.5,1.444v14.434l-2.5,1.443Z"/>
      <path class="crown-top-prim" d="M107.5,169.596l1.25-.721,6.25,3.608v1.443Z"/>
      <path class="crown-R-prim" d="M127.5,176.813v4.33l1.25-.721v-4.331l-1.25-.721-1.25.721Z"/>
      <path class="crown-top-prim" d="M135,185.473l1.25-.721-7.5-4.33-1.25.721Z"/>
      <path class="crown-R-prim" d="M135,220.114l1.25-.721V184.752l-1.25.721Z"/>
      <path class="crown-L-prim" d="M126.25,177.535v2.887l-10-5.774v-2.887Z"/>
      <path class="crown-top-prim" d="M117.5,173.926v-1.443l-1.25.722v1.443l10,5.774v-1.444Z"/>
      <path class="crown-R-prim" d="M117.5,173.926l-1.25.722v-2.887l1.25.722Z"/>
      <path class="crown-top-prim" d="M115,169.596l1.25-.721,12.5,7.216-1.25.722Z"/>
    </g>
    <g>
      <path class="crown-L-prim-dark" d="M67.5,146.502l1.25-.721L75,149.389v-2.887l12.5,7.217,1.25.722v2.887l7.5,4.33v34.641L95,197.02,67.5,181.143Z"/>
      <path class="window-L-prim" d="M71.25,157.328,75,159.493v14.433l-3.75-2.165Z"/>
      <path class="window-L-prim" d="M86.25,165.988v14.434l-7.5-4.331V161.658Z"/>
      <path class="window-L-prim" d="M93.75,184.752,90,182.587V168.153l3.75,2.165Z"/>
      <path class="crown-L-prim" d="M68.75,148.667,75,152.276v5.773l-6.25-3.608Z"/>
      <path class="crown-L-prim" d="M87.5,159.493l6.25,3.608v5.774l-6.25-3.609Z"/>
      <path class="crown-L-prim" d="M76.25,152.997l10,5.774v5.773l-10-5.773Z"/>
      <path class="crown-L-prim" d="M68.75,174.648,75,178.257v5.773l-6.25-3.608Z"/>
      <path class="crown-L-prim" d="M87.5,185.473l6.25,3.609v5.773l-6.25-3.608Z"/>
      <path class="crown-L-prim" d="M76.25,178.978l10,5.774v5.773l-10-5.773Z"/>
      <path class="crown-top-prim" d="M75,176.813v-2.887l-3.75-2.165v-1.443l-2.5,1.443v1.444Z"/>
      <path class="crown-top-prim" d="M93.75,187.639v-2.887L90,182.587v-1.444l-2.5,1.444v1.443Z"/>
      <path class="crown-top-prim" d="M86.25,183.308v-2.886l-7.5-4.33v-1.444l-2.5,1.443v1.444Z"/>
      <path class="crown-top-prim" d="M68.75,180.422v-1.444l1.25-.721V179.7l5,2.887v1.443Z"/>
      <path class="crown-top-prim" d="M87.5,191.247v-1.443l1.25-.722v1.443l5,2.887v1.443Z"/>
      <path class="crown-top-prim" d="M76.25,184.752v-1.444l1.25-.721v1.443l8.75,5.052v1.443Z"/>
      <path class="crown-top-prim" d="M70,153.719v-1.443l-1.25.721v1.444L75,158.049v-1.443Z"/>
      <path class="crown-top-prim" d="M88.75,164.544v-1.443l-1.25.722v1.443l6.25,3.609v-1.444Z"/>
      <path class="crown-top-prim" d="M77.5,158.049v-1.443l-1.25.722v1.443l10,5.773v-1.443Z"/>
      <path class="crown-R-prim" d="M68.75,174.648l1.25.722v4.33l-1.25.722Z"/>
      <path class="crown-R-prim" d="M87.5,185.473l1.25.722v4.33l-1.25.722Z"/>
      <path class="crown-R-prim" d="M76.25,178.978l1.25.722v4.33l-1.25.722Z"/>
      <path class="crown-R-prim" d="M70,153.719l-1.25.722v-5.774l1.25.722Z"/>
      <path class="crown-R-prim" d="M88.75,164.544l-1.25.722v-5.773l1.25.721Z"/>
      <path class="crown-R-prim" d="M77.5,158.049l-1.25.722v-5.774l1.25.722Z"/>
      <path class="crown-R-prim" d="M68.75,155.884l2.5,1.444v14.433l-2.5,1.444Z"/>
      <path class="crown-R-prim" d="M87.5,166.71l2.5,1.443v14.434l-2.5,1.443Z"/>
      <path class="crown-R-prim" d="M76.25,160.214l2.5,1.444v14.434l-2.5,1.443Z"/>
      <path class="crown-top-prim" d="M67.5,146.502l1.25-.721L75,149.389v1.443Z"/>
      <path class="crown-R-prim" d="M87.5,153.719v4.33l1.25-.721v-4.331l-1.25-.721-1.25.721Z"/>
      <path class="crown-top-prim" d="M95,162.379l1.25-.721-7.5-4.33-1.25.721Z"/>
      <path class="crown-R-prim" d="M95,197.02l1.25-.721V161.658l-1.25.721Z"/>
      <path class="crown-L-prim" d="M86.25,154.441v2.887l-10-5.774v-2.887Z"/>
      <path class="crown-top-prim" d="M77.5,150.832v-1.443l-1.25.722v1.443l10,5.774v-1.444Z"/>
      <path class="crown-R-prim" d="M77.5,150.832l-1.25.722v-2.887l1.25.722Z"/>
      <path class="crown-top-prim" d="M75,146.502l1.25-.721,12.5,7.216-1.25.722Z"/>
    </g>
    <g>
      <path class="crown-L-prim-dark" d="M343.75,308.882l1.25-.722,6.25,3.609v-2.887l12.5,7.217,1.25.722v2.886l7.5,4.33v34.642l-1.25.721-27.5-15.877Z"/>
      <path class="window-L-prim" d="M347.5,319.707l3.75,2.165v14.434l-3.75-2.165Z"/>
      <path class="window-L-prim" d="M362.5,328.368v14.433l-7.5-4.33V324.037Z"/>
      <path class="window-L-prim" d="M370,347.131l-3.75-2.165V330.533l3.75,2.165Z"/>
      <path class="crown-L-prim" d="M345,311.047l6.25,3.609v5.773L345,316.821Z"/>
      <path class="crown-L-prim" d="M363.75,321.872l6.25,3.609v5.773l-6.25-3.608Z"/>
      <path class="crown-L-prim" d="M352.5,315.377l10,5.774v5.773l-10-5.773Z"/>
      <path class="crown-L-prim" d="M345,337.028l6.25,3.608v5.774L345,342.801Z"/>
      <path class="crown-L-prim" d="M363.75,347.853l6.25,3.609v5.773l-6.25-3.608Z"/>
      <path class="crown-L-prim" d="M352.5,341.358l10,5.773v5.774l-10-5.774Z"/>
      <path class="crown-top-prim" d="M351.25,339.193v-2.887l-3.75-2.165v-1.443l-2.5,1.443v1.443Z"/>
      <path class="crown-top-prim" d="M370,350.018v-2.886l-3.75-2.166v-1.443l-2.5,1.443v1.444Z"/>
      <path class="crown-top-prim" d="M362.5,345.688v-2.887l-7.5-4.33v-1.443l-2.5,1.443v1.444Z"/>
      <path class="crown-top-prim" d="M345,342.801v-1.443l1.25-.722v1.444l5,2.886v1.444Z"/>
      <path class="crown-top-prim" d="M363.75,353.627v-1.444l1.25-.721v1.443l5,2.887v1.443Z"/>
      <path class="crown-top-prim" d="M352.5,347.132v-1.444l1.25-.722v1.444l8.75,5.052v1.443Z"/>
      <path class="crown-top-prim" d="M346.25,316.099v-1.443l-1.25.721v1.444l6.25,3.608v-1.443Z"/>
      <path class="crown-top-prim" d="M365,326.924v-1.443l-1.25.722v1.443l6.25,3.608v-1.443Z"/>
      <path class="crown-top-prim" d="M353.75,320.429v-1.443l-1.25.721v1.444l10,5.773v-1.443Z"/>
      <path class="crown-R-prim" d="M345,337.028l1.25.722v4.33l-1.25.721Z"/>
      <path class="crown-R-prim" d="M363.75,347.853l1.25.722v4.33l-1.25.722Z"/>
      <path class="crown-R-prim" d="M352.5,341.358l1.25.722v4.33l-1.25.722Z"/>
      <path class="crown-R-prim" d="M346.25,316.099l-1.25.722v-5.774l1.25.722Z"/>
      <path class="crown-R-prim" d="M365,326.924l-1.25.722v-5.774l1.25.722Z"/>
      <path class="crown-R-prim" d="M353.75,320.429l-1.25.722v-5.774l1.25.722Z"/>
      <path class="crown-R-prim" d="M345,318.264l2.5,1.443v14.434l-2.5,1.443Z"/>
      <path class="crown-R-prim" d="M363.75,329.089l2.5,1.444v14.433l-2.5,1.444Z"/>
      <path class="crown-R-prim" d="M352.5,322.594l2.5,1.444v14.433l-2.5,1.444Z"/>
      <path class="crown-top-prim" d="M343.75,308.882l1.25-.722,6.25,3.609v1.443Z"/>
      <path class="crown-R-prim" d="M363.75,316.099v4.33l1.25-.722v-4.33l-1.25-.721-1.25.721Z"/>
      <path class="crown-top-prim" d="M371.25,324.759l1.25-.722-7.5-4.33-1.25.722Z"/>
      <path class="crown-R-prim" d="M371.25,359.4l1.25-.721V324.037l-1.25.722Z"/>
      <path class="crown-L-prim" d="M362.5,316.821v2.886l-10-5.773v-2.887Z"/>
      <path class="crown-top-prim" d="M353.75,313.212v-1.443l-1.25.721v1.444l10,5.773v-1.443Z"/>
      <path class="crown-R-prim" d="M353.75,313.212l-1.25.722v-2.887l1.25.722Z"/>
      <path class="crown-top-prim" d="M351.25,308.882l1.25-.722,12.5,7.217-1.25.722Z"/>
    </g>
    <g>
      <path class="crown-L-prim-dark" d="M400,338.471l1.25-.721,6.25,3.608v-2.887l12.5,7.217,1.25.722v2.887l7.5,4.33v34.641l-1.25.721L400,373.112Z"/>
      <path class="window-L-prim" d="M403.75,349.297l3.75,2.165v14.433l-3.75-2.165Z"/>
      <path class="window-L-prim" d="M418.75,357.957v14.434l-7.5-4.331V353.627Z"/>
      <path class="window-L-prim" d="M426.25,376.721l-3.75-2.165V360.122l3.75,2.165Z"/>
      <path class="crown-L-prim" d="M401.25,340.636l6.25,3.609v5.773l-6.25-3.608Z"/>
      <path class="crown-L-prim" d="M420,351.462l6.25,3.608v5.774L420,357.235Z"/>
      <path class="crown-L-prim" d="M408.75,344.966l10,5.774v5.773l-10-5.773Z"/>
      <path class="crown-L-prim" d="M401.25,366.617l6.25,3.609v5.773l-6.25-3.608Z"/>
      <path class="crown-L-prim" d="M420,377.442l6.25,3.609v5.773L420,383.216Z"/>
      <path class="crown-L-prim" d="M408.75,370.947l10,5.774v5.773l-10-5.773Z"/>
      <path class="crown-top-prim" d="M407.5,368.782v-2.887l-3.75-2.165v-1.443l-2.5,1.443v1.444Z"/>
      <path class="crown-top-prim" d="M426.25,379.607v-2.886l-3.75-2.165v-1.444l-2.5,1.444v1.443Z"/>
      <path class="crown-top-prim" d="M418.75,375.277v-2.886l-7.5-4.331v-1.443l-2.5,1.443v1.444Z"/>
      <path class="crown-top-prim" d="M401.25,372.391v-1.444l1.25-.721v1.443l5,2.887v1.443Z"/>
      <path class="crown-top-prim" d="M420,383.216v-1.443l1.25-.722v1.443l5,2.887v1.443Z"/>
      <path class="crown-top-prim" d="M408.75,376.721v-1.444l1.25-.721v1.443l8.75,5.052v1.443Z"/>
      <path class="crown-top-prim" d="M402.5,345.688v-1.443l-1.25.721v1.444l6.25,3.608v-1.443Z"/>
      <path class="crown-top-prim" d="M421.25,356.513V355.07l-1.25.722v1.443l6.25,3.609V359.4Z"/>
      <path class="crown-top-prim" d="M410,350.018v-1.443l-1.25.722v1.443l10,5.773V355.07Z"/>
      <path class="crown-R-prim" d="M401.25,366.617l1.25.722v4.33l-1.25.722Z"/>
      <path class="crown-R-prim" d="M420,377.442l1.25.722v4.33l-1.25.722Z"/>
      <path class="crown-R-prim" d="M408.75,370.947l1.25.722v4.33l-1.25.722Z"/>
      <path class="crown-R-prim" d="M402.5,345.688l-1.25.722v-5.774l1.25.722Z"/>
      <path class="crown-R-prim" d="M421.25,356.513l-1.25.722v-5.773l1.25.721Z"/>
      <path class="crown-R-prim" d="M410,350.018l-1.25.722v-5.774l1.25.722Z"/>
      <path class="crown-R-prim" d="M401.25,347.853l2.5,1.444V363.73l-2.5,1.444Z"/>
      <path class="crown-R-prim" d="M420,358.679l2.5,1.443v14.434l-2.5,1.443Z"/>
      <path class="crown-R-prim" d="M408.75,352.183l2.5,1.444V368.06l-2.5,1.444Z"/>
      <path class="crown-top-prim" d="M400,338.471l1.25-.721,6.25,3.608v1.443Z"/>
      <path class="crown-R-prim" d="M420,345.688v4.33l1.25-.721v-4.331l-1.25-.721-1.25.721Z"/>
      <path class="crown-top-prim" d="M427.5,354.348l1.25-.721-7.5-4.33-1.25.721Z"/>
      <path class="crown-R-prim" d="M427.5,388.989l1.25-.721V353.627l-1.25.721Z"/>
      <path class="crown-L-prim" d="M418.75,346.41v2.887l-10-5.774v-2.887Z"/>
      <path class="crown-top-prim" d="M410,342.801v-1.443l-1.25.722v1.443l10,5.774v-1.444Z"/>
      <path class="crown-R-prim" d="M410,342.801l-1.25.722v-2.887l1.25.722Z"/>
      <path class="crown-top-prim" d="M407.5,338.471l1.25-.721,12.5,7.216-1.25.722Z"/>
    </g>
    <g>
      <path class="crown-L-prim-dark" d="M438.75,360.844l1.25-.722,6.25,3.608v-2.886l12.5,7.216,1.25.722v2.887l7.5,4.33V410.64l-1.25.722-27.5-15.877Z"/>
      <path class="window-L-prim" d="M442.5,371.669l3.75,2.165v14.434l-3.75-2.165Z"/>
      <path class="window-L-prim" d="M457.5,380.329v14.434l-7.5-4.33V375.999Z"/>
      <path class="window-L-prim" d="M465,399.093l-3.75-2.165V382.494l3.75,2.165Z"/>
      <path class="crown-L-prim" d="M440,363.009l6.25,3.608v5.774L440,368.782Z"/>
      <path class="crown-L-prim" d="M458.75,373.834l6.25,3.608v5.774l-6.25-3.609Z"/>
      <path class="crown-L-prim" d="M447.5,367.339l10,5.773v5.774l-10-5.774Z"/>
      <path class="crown-L-prim" d="M440,388.989l6.25,3.609v5.773L440,394.763Z"/>
      <path class="crown-L-prim" d="M458.75,399.815l6.25,3.608v5.774l-6.25-3.609Z"/>
      <path class="crown-L-prim" d="M447.5,393.32l10,5.773v5.774l-10-5.774Z"/>
      <path class="crown-top-prim" d="M446.25,391.154v-2.886l-3.75-2.165v-1.444l-2.5,1.444v1.443Z"/>
      <path class="crown-top-prim" d="M465,401.98v-2.887l-3.75-2.165v-1.443l-2.5,1.443v1.443Z"/>
      <path class="crown-top-prim" d="M457.5,397.65v-2.887l-7.5-4.33v-1.444l-2.5,1.444v1.443Z"/>
      <path class="crown-top-prim" d="M440,394.763V393.32l1.25-.722v1.443l5,2.887v1.443Z"/>
      <path class="crown-top-prim" d="M458.75,405.588v-1.443l1.25-.722v1.444l5,2.886v1.444Z"/>
      <path class="crown-top-prim" d="M447.5,399.093V397.65l1.25-.722v1.443l8.75,5.052v1.444Z"/>
      <path class="crown-top-prim" d="M441.25,368.06v-1.443l-1.25.722v1.443l6.25,3.609v-1.444Z"/>
      <path class="crown-top-prim" d="M460,378.886v-1.444l-1.25.722v1.443l6.25,3.609v-1.443Z"/>
      <path class="crown-top-prim" d="M448.75,372.391v-1.444l-1.25.722v1.443l10,5.774v-1.444Z"/>
      <path class="crown-R-prim" d="M440,388.989l1.25.722v4.33l-1.25.722Z"/>
      <path class="crown-R-prim" d="M458.75,399.815l1.25.721v4.331l-1.25.721Z"/>
      <path class="crown-R-prim" d="M447.5,393.32l1.25.721v4.33l-1.25.722Z"/>
      <path class="crown-R-prim" d="M441.25,368.06l-1.25.722v-5.773l1.25.721Z"/>
      <path class="crown-R-prim" d="M460,378.886l-1.25.721v-5.773l1.25.722Z"/>
      <path class="crown-R-prim" d="M448.75,372.391l-1.25.721v-5.773l1.25.721Z"/>
      <path class="crown-R-prim" d="M440,370.226l2.5,1.443v14.434l-2.5,1.443Z"/>
      <path class="crown-R-prim" d="M458.75,381.051l2.5,1.443v14.434l-2.5,1.443Z"/>
      <path class="crown-R-prim" d="M447.5,374.556l2.5,1.443v14.434l-2.5,1.443Z"/>
      <path class="crown-top-prim" d="M438.75,360.844l1.25-.722,6.25,3.608v1.444Z"/>
      <path class="crown-R-prim" d="M458.75,368.06v4.331l1.25-.722v-4.33l-1.25-.722-1.25.722Z"/>
      <path class="crown-top-prim" d="M466.25,376.721l1.25-.722-7.5-4.33-1.25.722Z"/>
      <path class="crown-R-prim" d="M466.25,411.362l1.25-.722V375.999l-1.25.722Z"/>
      <path class="crown-L-prim" d="M457.5,368.782v2.887l-10-5.774v-2.886Z"/>
      <path class="crown-top-prim" d="M448.75,365.174V363.73l-1.25.722v1.443l10,5.774v-1.443Z"/>
      <path class="crown-R-prim" d="M448.75,365.174l-1.25.721v-2.886l1.25.721Z"/>
      <path class="crown-top-prim" d="M446.25,360.844l1.25-.722,12.5,7.217-1.25.721Z"/>
    </g>
    <g>
      <path class="crown-R-prim-dark" d="M522.5,364.452l-1.25-.722L515,367.339v-2.887l-12.5,7.217-1.25.722v2.886l-7.5,4.33v34.641l1.25.722,27.5-15.877Z"/>
      <path class="window-R-prim" d="M518.75,375.277,515,377.442v14.434l3.75-2.165Z"/>
      <path class="window-R-prim" d="M503.75,383.938v14.433l7.5-4.33V379.607Z"/>
      <path class="window-R-prim" d="M496.25,402.701l3.75-2.165V386.103l-3.75,2.165Z"/>
      <path class="crown-R-prim" d="M521.25,366.617,515,370.226v5.773l6.25-3.608Z"/>
      <path class="crown-R-prim" d="M502.5,377.442l-6.25,3.609v5.773l6.25-3.608Z"/>
      <path class="crown-R-prim" d="M513.75,370.947l-10,5.774v5.773l10-5.773Z"/>
      <path class="crown-R-prim" d="M521.25,392.598,515,396.206v5.774l6.25-3.609Z"/>
      <path class="crown-R-prim" d="M502.5,403.423l-6.25,3.609v5.773l6.25-3.608Z"/>
      <path class="crown-R-prim" d="M513.75,396.928l-10,5.773v5.774l10-5.774Z"/>
      <path class="crown-top-prim" d="M515,394.763v-2.887l3.75-2.165v-1.443l2.5,1.443v1.443Z"/>
      <path class="crown-top-prim" d="M496.25,405.588v-2.887l3.75-2.165v-1.443l2.5,1.443v1.444Z"/>
      <path class="crown-top-prim" d="M503.75,401.258v-2.887l7.5-4.33v-1.443l2.5,1.443v1.444Z"/>
      <path class="crown-top-prim" d="M521.25,398.371v-1.443l-1.25-.722v1.444l-5,2.886v1.444Z"/>
      <path class="crown-top-prim" d="M502.5,409.197v-1.444l-1.25-.721v1.443l-5,2.887v1.443Z"/>
      <path class="crown-top-prim" d="M513.75,402.701v-1.443l-1.25-.722v1.444l-8.75,5.052v1.443Z"/>
      <path class="crown-top-prim" d="M520,371.669v-1.443l1.25.721v1.444L515,375.999v-1.443Z"/>
      <path class="crown-top-prim" d="M501.25,382.494v-1.443l1.25.722v1.443l-6.25,3.608v-1.443Z"/>
      <path class="crown-top-prim" d="M512.5,375.999v-1.443l1.25.721v1.444l-10,5.773v-1.443Z"/>
      <path class="crown-L-prim-dark" d="M521.25,392.598l-1.25.722v4.33l1.25.721Z"/>
      <path class="crown-L-prim-dark" d="M502.5,403.423l-1.25.722v4.33l1.25.722Z"/>
      <path class="crown-L-prim-dark" d="M513.75,396.928l-1.25.722v4.33l1.25.721Z"/>
      <path class="crown-L-prim-dark" d="M520,371.669l1.25.722v-5.774l-1.25.722Z"/>
      <path class="crown-L-prim-dark" d="M501.25,382.494l1.25.722v-5.774l-1.25.722Z"/>
      <path class="crown-L-prim-dark" d="M512.5,375.999l1.25.722v-5.774l-1.25.722Z"/>
      <path class="crown-L-prim-dark" d="M521.25,373.834l-2.5,1.443v14.434l2.5,1.443Z"/>
      <path class="crown-L-prim-dark" d="M502.5,384.659l-2.5,1.444v14.433l2.5,1.444Z"/>
      <path class="crown-L-prim-dark" d="M513.75,378.164l-2.5,1.443v14.434l2.5,1.444Z"/>
      <path class="crown-top-prim" d="M522.5,364.452l-1.25-.722L515,367.339v1.443Z"/>
      <path class="crown-L-prim-dark" d="M502.5,371.669v4.33l-1.25-.722v-4.33l1.25-.721,1.25.721Z"/>
      <path class="crown-top-prim" d="M495,380.329l-1.25-.722,7.5-4.33,1.25.722Z"/>
      <path class="crown-L-prim-dark" d="M495,414.97l-1.25-.722V379.607l1.25.722Z"/>
      <path class="crown-R-prim" d="M503.75,372.391v2.886l10-5.773v-2.887Z"/>
      <path class="crown-top-prim" d="M512.5,368.782v-1.443l1.25.721v1.444l-10,5.773v-1.443Z"/>
      <path class="crown-L-prim-dark" d="M512.5,368.782l1.25.722v-2.887l-1.25.722Z"/>
      <path class="crown-top-prim" d="M515,364.452l-1.25-.722-12.5,7.217,1.25.722Z"/>
    </g>
    <g>
      <path class="crown-R-prim-dark" d="M573.75,337.75l-1.25-.722-6.25,3.608V337.75l-12.5,7.216-1.25.722v2.887l-7.5,4.33v34.641l1.25.722,27.5-15.877Z"/>
      <path class="window-R-prim" d="M570,348.575l-3.75,2.165v14.434l3.75-2.165Z"/>
      <path class="window-R-prim" d="M555,357.235v14.434l7.5-4.33V352.905Z"/>
      <path class="window-R-prim" d="M547.5,375.999l3.75-2.165V359.4l-3.75,2.165Z"/>
      <path class="crown-R-prim" d="M572.5,339.915l-6.25,3.608v5.774l6.25-3.609Z"/>
      <path class="crown-R-prim" d="M553.75,350.74l-6.25,3.608v5.774l6.25-3.609Z"/>
      <path class="crown-R-prim" d="M565,344.245l-10,5.773v5.774l10-5.774Z"/>
      <path class="crown-R-prim" d="M572.5,365.895l-6.25,3.609v5.773l6.25-3.608Z"/>
      <path class="crown-R-prim" d="M553.75,376.721l-6.25,3.608v5.774l6.25-3.609Z"/>
      <path class="crown-R-prim" d="M565,370.226l-10,5.773v5.774l10-5.774Z"/>
      <path class="crown-top-prim" d="M566.25,368.06v-2.886l3.75-2.165v-1.444l2.5,1.444v1.443Z"/>
      <path class="crown-top-prim" d="M547.5,378.886v-2.887l3.75-2.165v-1.443l2.5,1.443v1.443Z"/>
      <path class="crown-top-prim" d="M555,374.556v-2.887l7.5-4.33v-1.444l2.5,1.444v1.443Z"/>
      <path class="crown-top-prim" d="M572.5,371.669v-1.443l-1.25-.722v1.443l-5,2.887v1.443Z"/>
      <path class="crown-top-prim" d="M553.75,382.494v-1.443l-1.25-.722v1.444l-5,2.886v1.444Z"/>
      <path class="crown-top-prim" d="M565,375.999v-1.443l-1.25-.722v1.443L555,380.329v1.444Z"/>
      <path class="crown-top-prim" d="M571.25,344.966v-1.443l1.25.722v1.443l-6.25,3.609v-1.444Z"/>
      <path class="crown-top-prim" d="M552.5,355.792v-1.444l1.25.722v1.443l-6.25,3.609v-1.443Z"/>
      <path class="crown-top-prim" d="M563.75,349.297v-1.444l1.25.722v1.443l-10,5.774v-1.444Z"/>
      <path class="crown-L-prim-dark" d="M572.5,365.895l-1.25.722v4.33l1.25.722Z"/>
      <path class="crown-L-prim-dark" d="M553.75,376.721l-1.25.721v4.331l1.25.721Z"/>
      <path class="crown-L-prim-dark" d="M565,370.226l-1.25.721v4.33l1.25.722Z"/>
      <path class="crown-L-prim-dark" d="M571.25,344.966l1.25.722v-5.773l-1.25.721Z"/>
      <path class="crown-L-prim-dark" d="M552.5,355.792l1.25.721V350.74l-1.25.722Z"/>
      <path class="crown-L-prim-dark" d="M563.75,349.297l1.25.721v-5.773l-1.25.721Z"/>
      <path class="crown-L-prim-dark" d="M572.5,347.132l-2.5,1.443v14.434l2.5,1.443Z"/>
      <path class="crown-L-prim-dark" d="M553.75,357.957l-2.5,1.443v14.434l2.5,1.443Z"/>
      <path class="crown-L-prim-dark" d="M565,351.462l-2.5,1.443v14.434l2.5,1.443Z"/>
      <path class="crown-top-prim" d="M573.75,337.75l-1.25-.722-6.25,3.608v1.444Z"/>
      <path class="crown-L-prim-dark" d="M553.75,344.966v4.331l-1.25-.722v-4.33l1.25-.722,1.25.722Z"/>
      <path class="crown-top-prim" d="M546.25,353.627l-1.25-.722,7.5-4.33,1.25.722Z"/>
      <path class="crown-L-prim-dark" d="M546.25,388.268l-1.25-.722V352.905l1.25.722Z"/>
      <path class="crown-R-prim" d="M555,345.688v2.887l10-5.774v-2.886Z"/>
      <path class="crown-top-prim" d="M563.75,342.08v-1.444l1.25.722v1.443l-10,5.774v-1.443Z"/>
      <path class="crown-L-prim-dark" d="M563.75,342.08l1.25.721v-2.886l-1.25.721Z"/>
      <path class="crown-top-prim" d="M566.25,337.75l-1.25-.722-12.5,7.217,1.25.721Z"/>
    </g>
    <g>
      <path class="crown-R-prim-dark" d="M633.75,303.109l-1.25-.722-6.25,3.608v-2.886l-12.5,7.216-1.25.722v2.887l-7.5,4.33v34.641l1.25.722,27.5-15.877Z"/>
      <path class="window-R-prim" d="M630,313.934l-3.75,2.165v14.434l3.75-2.165Z"/>
      <path class="window-R-prim" d="M615,322.594v14.434l7.5-4.33V318.264Z"/>
      <path class="window-R-prim" d="M607.5,341.358l3.75-2.165V324.759l-3.75,2.165Z"/>
      <path class="crown-R-prim" d="M632.5,305.274l-6.25,3.608v5.774l6.25-3.609Z"/>
      <path class="crown-R-prim" d="M613.75,316.099l-6.25,3.608v5.774l6.25-3.609Z"/>
      <path class="crown-R-prim" d="M625,309.604l-10,5.773v5.774l10-5.774Z"/>
      <path class="crown-R-prim" d="M632.5,331.254l-6.25,3.609v5.773l6.25-3.608Z"/>
      <path class="crown-R-prim" d="M613.75,342.08l-6.25,3.608v5.774l6.25-3.609Z"/>
      <path class="crown-R-prim" d="M625,335.584l-10,5.774v5.773l10-5.773Z"/>
      <path class="crown-top-prim" d="M626.25,333.419v-2.886l3.75-2.165v-1.444l2.5,1.444v1.443Z"/>
      <path class="crown-top-prim" d="M607.5,344.245v-2.887l3.75-2.165V337.75l2.5,1.443v1.443Z"/>
      <path class="crown-top-prim" d="M615,339.915v-2.887l7.5-4.33v-1.444l2.5,1.444v1.443Z"/>
      <path class="crown-top-prim" d="M632.5,337.028v-1.444l-1.25-.721v1.443l-5,2.887v1.443Z"/>
      <path class="crown-top-prim" d="M613.75,347.853V346.41l-1.25-.722v1.444l-5,2.886v1.444Z"/>
      <path class="crown-top-prim" d="M625,341.358v-1.443l-1.25-.722v1.443L615,345.688v1.443Z"/>
      <path class="crown-top-prim" d="M631.25,310.325v-1.443l1.25.722v1.443l-6.25,3.609v-1.444Z"/>
      <path class="crown-top-prim" d="M612.5,321.151v-1.444l1.25.722v1.443l-6.25,3.609v-1.443Z"/>
      <path class="crown-top-prim" d="M623.75,314.656v-1.444l1.25.722v1.443l-10,5.774v-1.444Z"/>
      <path class="crown-L-prim-dark" d="M632.5,331.254l-1.25.722v4.33l1.25.722Z"/>
      <path class="crown-L-prim-dark" d="M613.75,342.08l-1.25.721v4.331l1.25.721Z"/>
      <path class="crown-L-prim-dark" d="M625,335.585l-1.25.721v4.33l1.25.722Z"/>
      <path class="crown-L-prim-dark" d="M631.25,310.325l1.25.722v-5.773l-1.25.721Z"/>
      <path class="crown-L-prim-dark" d="M612.5,321.151l1.25.721v-5.773l-1.25.722Z"/>
      <path class="crown-L-prim-dark" d="M623.75,314.656l1.25.721v-5.773l-1.25.721Z"/>
      <path class="crown-L-prim-dark" d="M632.5,312.491l-2.5,1.443v14.434l2.5,1.443Z"/>
      <path class="crown-L-prim-dark" d="M613.75,323.316l-2.5,1.443v14.434l2.5,1.443Z"/>
      <path class="crown-L-prim-dark" d="M625,316.821l-2.5,1.443v14.434l2.5,1.443Z"/>
      <path class="crown-top-prim" d="M633.75,303.109l-1.25-.722-6.25,3.608v1.444Z"/>
      <path class="crown-L-prim-dark" d="M613.75,310.325v4.331l-1.25-.722v-4.33l1.25-.722,1.25.722Z"/>
      <path class="crown-top-prim" d="M606.25,318.986l-1.25-.722,7.5-4.33,1.25.722Z"/>
      <path class="crown-L-prim-dark" d="M606.25,353.627l-1.25-.722V318.264l1.25.722Z"/>
      <path class="crown-R-prim" d="M615,311.047v2.887l10-5.774v-2.886Z"/>
      <path class="crown-top-prim" d="M623.75,307.439v-1.444l1.25.722v1.443l-10,5.774v-1.443Z"/>
      <path class="crown-L-prim-dark" d="M623.75,307.439l1.25.721v-2.886l-1.25.721Z"/>
      <path class="crown-top-prim" d="M626.25,303.109l-1.25-.722-12.5,7.217,1.25.721Z"/>
    </g>
    <g>
      <path class="crown-R-prim-dark" d="M682.5,272.076l-1.25-.722L675,274.963v-2.887l-12.5,7.217-1.25.722v2.886l-7.5,4.33v34.641l1.25.722,27.5-15.877Z"/>
      <path class="window-R-prim" d="M678.75,282.901,675,285.066V299.5l3.75-2.165Z"/>
      <path class="window-R-prim" d="M663.75,291.562v14.433l7.5-4.33V287.231Z"/>
      <path class="window-R-prim" d="M656.25,310.325,660,308.16V293.727l-3.75,2.165Z"/>
      <path class="crown-R-prim" d="M681.25,274.241,675,277.849v5.774l6.25-3.608Z"/>
      <path class="crown-R-prim" d="M662.5,285.066l-6.25,3.609v5.773l6.25-3.608Z"/>
      <path class="crown-R-prim" d="M673.75,278.571l-10,5.774v5.773l10-5.773Z"/>
      <path class="crown-R-prim" d="M681.25,300.222,675,303.83v5.774l6.25-3.609Z"/>
      <path class="crown-R-prim" d="M662.5,311.047l-6.25,3.609v5.773l6.25-3.608Z"/>
      <path class="crown-R-prim" d="M673.75,304.552l-10,5.773v5.774l10-5.774Z"/>
      <path class="crown-top-prim" d="M675,302.387V299.5l3.75-2.165v-1.443l2.5,1.443v1.443Z"/>
      <path class="crown-top-prim" d="M656.25,313.212v-2.887L660,308.16v-1.443l2.5,1.443v1.444Z"/>
      <path class="crown-top-prim" d="M663.75,308.882v-2.887l7.5-4.33v-1.443l2.5,1.443v1.444Z"/>
      <path class="crown-top-prim" d="M681.25,305.995v-1.443L680,303.83v1.444l-5,2.886v1.444Z"/>
      <path class="crown-top-prim" d="M662.5,316.821v-1.444l-1.25-.721v1.443l-5,2.887v1.443Z"/>
      <path class="crown-top-prim" d="M673.75,310.325v-1.443l-1.25-.722v1.444l-8.75,5.052v1.443Z"/>
      <path class="crown-top-prim" d="M680,279.293v-1.444l1.25.722v1.444L675,283.623V282.18Z"/>
      <path class="crown-top-prim" d="M661.25,290.118v-1.443l1.25.721v1.444l-6.25,3.608v-1.443Z"/>
      <path class="crown-top-prim" d="M672.5,283.623V282.18l1.25.721v1.444l-10,5.773v-1.443Z"/>
      <path class="crown-L-prim-dark" d="M681.25,300.222l-1.25.721v4.331l1.25.721Z"/>
      <path class="crown-L-prim-dark" d="M662.5,311.047l-1.25.722v4.33l1.25.722Z"/>
      <path class="crown-L-prim-dark" d="M673.75,304.552l-1.25.722v4.33l1.25.721Z"/>
      <path class="crown-L-prim-dark" d="M680,279.293l1.25.722v-5.774l-1.25.722Z"/>
      <path class="crown-L-prim-dark" d="M661.25,290.118l1.25.722v-5.774l-1.25.722Z"/>
      <path class="crown-L-prim-dark" d="M672.5,283.623l1.25.722v-5.774l-1.25.722Z"/>
      <path class="crown-L-prim-dark" d="M681.25,281.458l-2.5,1.443v14.434l2.5,1.443Z"/>
      <path class="crown-L-prim-dark" d="M662.5,292.283l-2.5,1.444V308.16l2.5,1.444Z"/>
      <path class="crown-L-prim-dark" d="M673.75,285.788l-2.5,1.443v14.434l2.5,1.444Z"/>
      <path class="crown-top-prim" d="M682.5,272.076l-1.25-.722L675,274.963v1.443Z"/>
      <path class="crown-L-prim-dark" d="M662.5,279.293v4.33l-1.25-.722v-4.33l1.25-.722,1.25.722Z"/>
      <path class="crown-top-prim" d="M655,287.953l-1.25-.722,7.5-4.33,1.25.722Z"/>
      <path class="crown-L-prim-dark" d="M655,322.594l-1.25-.722V287.231l1.25.722Z"/>
      <path class="crown-R-prim" d="M663.75,280.015v2.886l10-5.773v-2.887Z"/>
      <path class="crown-top-prim" d="M672.5,276.406v-1.443l1.25.721v1.444l-10,5.773v-1.443Z"/>
      <path class="crown-L-prim-dark" d="M672.5,276.406l1.25.722v-2.887l-1.25.722Z"/>
      <path class="crown-top-prim" d="M675,272.076l-1.25-.722-12.5,7.217,1.25.722Z"/>
    </g>
  </g>
</svg>
