<svg id="Layer_1" data-name="Layer 1" xmlns="http://www.w3.org/2000/svg" viewBox="0 0 1062 1062">
  <defs>
    <style>
      .cls-1 {
        fill: #e8e8e8;
      }

      .cls-2 {
        fill: #d1d1d1;
      }

      .cls-3 {
        fill: #a2a2a2;
      }

      .cls-4 {
        fill: #747474;
      }

      .cls-5 {
        fill: #464646;
      }

      .cls-6 {
        fill: #c6c6c6;
      }

      .cls-7 {
        fill: #9d9d9d;
      }

      .cls-8 {
        fill: #e1e1e1;
      }

      .cls-9 {
        fill: #5d5d5d;
      }

      .cls-10 {
        fill: #393939;
      }

      .cls-11 {
        fill: #535353;
      }

      .cls-12 {
        fill: #2a2a2a;
      }

      .cls-13 {
        fill: #6c6c6c;
      }

      .cls-14 {
        fill: #404040;
      }

      .cls-15, .cls-16 {
        fill: none;
        stroke-linecap: round;
        stroke-linejoin: round;
        stroke-width: 0.5px;
      }

      .cls-15 {
        stroke: #b9b9b9;
      }

      .cls-16 {
        stroke: #848484;
      }

      .cls-17 {
        fill: #b9b9b9;
      }

      .cls-18 {
        fill: #868686;
      }

      .cls-19 {
        fill: #aaa;
      }

      .cls-20 {
        fill: #b05a5a;
      }

      .cls-21 {
        fill: #824949;
      }

      .cls-22 {
        fill: #c3b4a8;
      }

      .cls-23 {
        fill: #dbc8b9;
      }

      .cls-24 {
        fill: #7bc13e;
      }

      .cls-25 {
        fill: #538e20;
      }

      .cls-26 {
        fill: #64a52b;
      }

      .cls-27 {
        fill: #fff;
      }

      .cls-28 {
        fill: #71d5e2;
      }

      .cls-29 {
        fill: #26bee0;
      }

      .cls-30 {
        fill: #e0e0e0;
      }

      .cls-31 {
        fill: #f2f2f2;
      }

      .cls-32 {
        fill: #a6eeff;
      }

      .cls-33 {
        fill: #41a530;
      }

      .cls-34 {
        fill: #378e29;
      }

      .cls-35 {
        fill: #ccc;
      }

      .cls-36 {
        fill: #8b8b8b;
      }

      .cls-37 {
        fill: #979797;
      }

      .cls-38 {
        fill: #d0bfb1;
      }

      .cls-39 {
        fill: #888;
      }

      .cls-40 {
        fill: #416aba;
      }

      .cls-41 {
        fill: #9ebfc4;
      }

      .cls-42 {
        fill: #4c306c;
      }

      .cls-43 {
        fill: #9a162d;
      }

      .cls-44 {
        fill: #ff3a20;
      }

      .cls-45 {
        fill: #eb7d00;
      }
    </style>
  </defs>
  <title>1Artboard 52</title>
  <g id="Group">
    <path id="Path" class="cls-1" d="M704.3924,800.7791,912,680.9169,338.6076,349.8686,131,469.7309Z"/>
    <path id="Path-2" class="cls-1" d="M422.6392,546.8714,590.7026,449.84,343.5506,307.1468,175.4873,404.1782Z"/>
    <path id="Path-3" class="cls-2" d="M422.5,546.8182v39.88l167.75-96.8505v-39.88Z"/>
    <path id="Path-4" class="cls-3" d="M175,404.0494V444.06L422.5,586.9542v-40.01Z"/>
    <path id="Path-5" class="cls-4" d="M422.5,586.759l167.75-96.8505v25.6371l-167.75,96.85Z"/>
    <path id="Path-6" class="cls-5" d="M422.5,586.908,175,444.0137v25.7212L422.5,612.6292Z"/>
    <path id="Path-7" class="cls-2" d="M585.6667,493.5826l4.5833-2.6463v26.4619l-4.5833,2.6462Z"/>
    <path id="Path-8" class="cls-6" d="M422.5,546.53l10.0833-5.8216v40.7513L422.5,587.2812Z"/>
    <path id="Path-9" class="cls-7" d="M422.5,546.53l-10.0833-5.8216v40.7513L422.5,587.2812Z"/>
    <path id="Path-10" class="cls-6" d="M461.9167,523.6988,472,517.8772v40.7514L461.9167,564.45Z"/>
    <path id="Path-11" class="cls-7" d="M383.0833,523.699,373,517.8774v40.751l10.0833,5.8216Z"/>
    <path id="Path-12" class="cls-6" d="M501.3333,500.8679l10.0834-5.8216v40.7513l-10.0834,5.8217Z"/>
    <path id="Path-13" class="cls-7" d="M343.6667,500.8679l-10.0834-5.8216v40.7513l10.0834,5.8217Z"/>
    <path id="Path-14" class="cls-6" d="M540.75,478.037l10.0833-5.8217v40.7514L540.75,518.7884Z"/>
    <path id="Path-15" class="cls-4" d="M499.2563,536.8829l19.7725-11.4154,24.7152,14.2692-19.7725,11.4155Z"/>
    <path id="Path-16" class="cls-5" d="M499.5,539.7367l22.2437,12.8424,2.4715-1.4269L499.5,536.8829Z"/>
    <path id="Path-17" class="cls-7" d="M304.25,478.0371l-10.0833-5.8217v40.7513l10.0833,5.8217Z"/>
    <path id="Path-18" class="cls-7" d="M244.6667,443.7906l-10.0834-5.8216V478.72l10.0834,5.8217Z"/>
    <path id="Path-19" class="cls-6" d="M442.6667,535.1143l10.0833-5.8217V570.044l-10.0833,5.8217Z"/>
    <path id="Path-20" class="cls-7" d="M403.25,535.1143l-10.0833-5.8217V570.044l10.0833,5.8217Z"/>
    <path id="Path-21" class="cls-6" d="M482.0833,512.2834l10.0834-5.8217v40.7514l-10.0834,5.8216Z"/>
    <path id="Path-22" class="cls-7" d="M363.8333,512.2834,353.75,506.4618v40.7513l10.0833,5.8216Z"/>
    <path id="Path-23" class="cls-6" d="M521.5,489.4525l10.0833-5.8216v40.7513L521.5,530.2039Z"/>
    <path id="Path-24" class="cls-7" d="M323.5,489.4525l-10.0833-5.8216v40.7512L323.5,530.2038Z"/>
    <path id="Path-25" class="cls-6" d="M560.9167,466.6217,571,460.8v40.7509l-10.0833,5.8217Z"/>
    <path id="Path-26" class="cls-7" d="M284.083,466.6217,274,460.8v40.7509l10.0833,5.8217Z"/>
    <path id="Path-27" class="cls-7" d="M225.4167,432.3752l-10.0834-5.8217v40.7513l10.0834,5.8217Z"/>
    <path id="Path-28" class="cls-6" d="M581.0833,455.2061l10.0834-5.8216v40.7513l-10.0834,5.8216Z"/>
    <path id="Path-29" class="cls-7" d="M264.8334,455.2061,254.75,449.3845v40.7513l10.0833,5.8216Z"/>
    <path id="Path-30" class="cls-7" d="M205.25,420.96l-10.0833-5.8216v40.7514L205.25,461.711Z"/>
    <path id="Path-31" class="cls-3" d="M504.0833,568.2754l-2.75-1.4269v-25.685l2.75-1.427Z"/>
    <path id="Path-32" class="cls-3" d="M585.6667,521.1866l-2.75-1.4269v-25.685l2.75-1.4268Z"/>
    <path id="Path-33" class="cls-1" d="M501.7275,563.9946l-30.8941,17.8367,2.4716,1.4269,30.894-17.8366Z"/>
    <path id="Path-34" class="cls-1" d="M583.288,516.9059l-30.8941,17.8367,2.4716,1.4268,30.894-17.8365Z"/>
    <path id="Path-35" class="cls-1" d="M182.9017,471.2441,212.56,488.3674l-2.4716,1.4269L180.43,472.6709Z"/>
    <path id="Path-36" class="cls-2" d="M474.75,582.4666v2.8226l29.3333-16.9358v-2.8226Z"/>
    <path id="Path-37" class="cls-2" d="M556.3333,535.3778V538.2l29.3334-16.9357v-2.8226Z"/>
    <path id="Path-38" class="cls-3" d="M370.25,582.4348v2.8359l-65.0833-37.576v-2.8358Z"/>
    <path id="Path-39" class="cls-3" d="M290.5,536.06v2.8359L225.4167,501.32v-2.8359Z"/>
    <path id="Path-40" class="cls-3" d="M472,581.1178v2.8538l2.75,1.427v-2.8539Z"/>
    <path id="Path-41" class="cls-3" d="M553.5833,534.029v2.8539l2.75,1.427V535.456Z"/>
    <path id="Path-42" class="cls-2" d="M373,581.1178v2.8538l-2.75,1.427v-2.8539Z"/>
    <path id="Path-43" class="cls-2" d="M293.25,534.7425v2.8543l-2.75,1.427V536.17Z"/>
    <path id="Path-44" class="cls-2" d="M212.5833,488.3672v2.8539l-2.75,1.4269v-2.8539Z"/>
    <path id="Path-45" class="cls-8" d="M343.5506,312.8545,580.8165,449.84,422.6392,541.1637,185.3735,404.1782Z"/>
    <path id="Path-46" class="cls-3" d="M343.6667,312.8545V324.27l227.38,131.2777,9.886-5.7077Z"/>
    <path id="Path-47" class="cls-2" d="M185.49,404.1782l158.1772-91.3237V324.27L195.3756,409.8859Z"/>
    <path id="Path-48" class="cls-9" d="M457.3333,566.8328v5.6452L472,564.01V558.365Z"/>
    <path id="Path-49" class="cls-10" d="M387.6667,566.8328v5.6452L373,564.01v-5.645Z"/>
    <path id="Path-50" class="cls-10" d="M307.9167,520.4578v5.6452L293.25,517.6351V511.99Z"/>
    <path id="Path-51" class="cls-10" d="M227.25,474.0823v5.6452L212.5833,471.26v-5.6452Z"/>
    <path id="Path-52" class="cls-9" d="M538.9167,519.7441v5.6452l14.6666-8.4679v-5.6452Z"/>
    <path id="Path-53" class="cls-11" d="M457.3333,592.4l7.3334-4.234V568.4082l-7.3334,4.2339Z"/>
    <path id="Path-54" class="cls-12" d="M387.6667,592.4l-7.3334-4.234V568.4082l7.3334,4.2339Z"/>
    <path id="Path-55" class="cls-12" d="M307.9167,546.0256l-7.3334-4.234V522.033l7.3334,4.2339Z"/>
    <path id="Path-56" class="cls-12" d="M227.25,499.65l-7.3333-4.234V475.6577l7.3333,4.2339Z"/>
    <path id="Path-57" class="cls-11" d="M538.9167,545.3117l7.3333-4.2339V521.3195l-7.3333,4.2339Z"/>
    <path id="Path-58" class="cls-11" d="M472,564.1274v19.7583l-7.3333,4.234V568.3614Z"/>
    <path id="Path-59" class="cls-12" d="M373,564.1276v19.758l7.3333,4.2339v-19.758Z"/>
    <path id="Path-60" class="cls-12" d="M293.25,517.7522v19.7586l7.3333,4.234V521.9861Z"/>
    <path id="Path-61" class="cls-12" d="M212.5833,471.3769v19.7583l7.3334,4.2339V475.6109Z"/>
    <path id="Path-62" class="cls-11" d="M553.5833,517.0387v19.7582l-7.3333,4.234V521.2726Z"/>
    <path id="Path-63" class="cls-1" d="M457.1012,589.6794,422.5,609.6564v2.854l37.0727-21.4042Z"/>
    <path id="Path-64" class="cls-1" d="M538.8006,542.5906l-32.13,18.55,2.4715,1.4269,32.13-18.55Z"/>
    <path id="Path-65" class="cls-2" d="M422.5,612.4088v2.8225l36.6667-21.17V591.239Z"/>
    <path id="Path-66" class="cls-2" d="M509.5833,562.5563v2.85l32.0834-18.5232v-2.85Z"/>
    <path id="Path-67" class="cls-2" d="M504.0833,540.6713l4.5834-2.6462V564.487l-4.5834,2.6462Z"/>
    <path id="Path-68" class="cls-1" d="M387.8988,589.6794,422.5,609.6564v2.854l-37.0727-21.4042Z"/>
    <path id="Path-69" class="cls-3" d="M422.5,612.4088v2.8225l-36.6667-21.17V591.239Z"/>
    <path id="Path-70" class="cls-13" d="M457.3333,572.6188,428,589.5545v-5.6452l29.3333-16.9357Z"/>
    <path id="Path-71" class="cls-14" d="M388.5833,572.6187l29.3334,16.9358v-5.6452l-29.3334-16.9358Z"/>
    <path id="Path-72" class="cls-14" d="M341.8333,546.1044,373,564.0985V558.34l-31.1667-17.9941Z"/>
    <path id="Path-73" class="cls-14" d="M307.9167,526.2434,337.25,543.1792v-5.6449l-29.3333-16.9358Z"/>
    <path id="Path-74" class="cls-14" d="M263,500.5587l29.3333,16.9357v-5.6451L263,494.9135Z"/>
    <path id="Path-75" class="cls-14" d="M227.25,479.7521l31.1667,17.994V491.988L227.25,473.994Z"/>
    <path id="Path-76" class="cls-14" d="M183.25,454.1833l29.3333,16.9358v-5.6452L183.25,448.5381Z"/>
    <path id="Path-77" class="cls-13" d="M538.9167,525.53l-29.3334,16.9357v-5.6452l29.3334-16.9358Z"/>
    <path id="Path-78" class="cls-13" d="M501.3333,546.934,472,563.87v-5.6454l29.3333-16.9357Z"/>
    <path id="Path-79" class="cls-13" d="M582.9167,499.8453,553.5833,516.781v-5.6452L582.9167,494.2Z"/>
    <path id="Path-80" class="cls-4" d="M458.25,573.7889v15.8773l4.5833-2.6462V571.1427Z"/>
    <path id="Path-81" class="cls-5" d="M386.75,573.7889v15.8773l-4.5833-2.6462V571.1427Z"/>
    <path id="Path-82" class="cls-5" d="M306.0833,527.4136v15.8773L301.5,540.6448V524.7675Z"/>
    <path id="Path-83" class="cls-5" d="M226.3333,481.0383v15.8773l-4.5833-2.6463V478.392Z"/>
    <path id="Path-84" class="cls-4" d="M539.8333,526.7v15.8773l4.5834-2.6462V524.054Z"/>
    <path id="Path-85" class="cls-4" d="M466.5,569.5081v15.8772l4.5833-2.646V566.862Z"/>
    <path id="Path-86" class="cls-5" d="M379.4167,569.5082v15.877l-4.5834-2.6461v-15.877Z"/>
    <path id="Path-87" class="cls-5" d="M298.75,523.1328V539.01l-4.5833-2.6462V520.4866Z"/>
    <path id="Path-88" class="cls-5" d="M219,476.7575v15.8773l-4.5833-2.6464V474.1112Z"/>
    <path id="Path-89" class="cls-4" d="M548.0833,522.4193v15.8773l4.5834-2.6462V519.7731Z"/>
    <line id="Path-90" class="cls-15" x1="464.2083" y1="577.1051" x2="464.2083" y2="585.3551"/>
    <line id="Path-91" class="cls-16" x1="380.7917" y1="577.1051" x2="380.7917" y2="585.3551"/>
    <line id="Path-92" class="cls-16" x1="300.125" y1="530.3551" x2="300.125" y2="538.6051"/>
    <line id="Path-93" class="cls-16" x1="220.375" y1="484.5218" x2="220.375" y2="492.7718"/>
    <line id="Path-94" class="cls-15" x1="545.7917" y1="529.4385" x2="545.7917" y2="538.6051"/>
    <line id="Path-95" class="cls-15" x1="466.0417" y1="576.1885" x2="466.0417" y2="584.4385"/>
    <line id="Path-96" class="cls-16" x1="378.9583" y1="576.1885" x2="378.9583" y2="584.4385"/>
    <line id="Path-97" class="cls-16" x1="299.2083" y1="529.4385" x2="299.2083" y2="538.6051"/>
    <line id="Path-98" class="cls-16" x1="218.5417" y1="483.6051" x2="218.5417" y2="491.8551"/>
    <line id="Path-99" class="cls-15" x1="547.625" y1="529.4385" x2="547.625" y2="537.6885"/>
    <path id="Path-100" class="cls-4" d="M437.1667,552.5552,454.5833,542.5V559.738l-17.4166,10.0555Z"/>
    <path id="Path-101" class="cls-5" d="M410.5833,553.9821l-17.4166-10.0555v17.2382L410.5833,571.22Z"/>
    <path id="Path-102" class="cls-5" d="M305.1667,493.3375,287.75,483.282V500.52l17.4167,10.0555Z"/>
    <path id="Path-103" class="cls-5" d="M202.5,434.12l-17.4167-10.0554v17.2381L202.5,451.3578Z"/>
    <path id="Path-104" class="cls-4" d="M568.25,476.9278l17.4167-10.0554v17.2381L568.25,494.1659Z"/>
    <path id="Path-105" class="cls-4" d="M479.3333,528.3681,494,519.9V536.836l-14.6667,8.4679Z"/>
    <path id="Path-106" class="cls-5" d="M357.4167,523.3739,342.75,514.906v16.9358l14.6667,8.4679Z"/>
    <path id="Path-107" class="cls-5" d="M247.4167,459.8755,232.75,451.4076v16.9358l14.6667,8.4679Z"/>
    <path id="Path-108" class="cls-4" d="M524.25,502.6835l14.6667-8.4679v16.9358L524.25,519.6193Z"/>
    <path id="Path-109" class="cls-5" d="M377.5833,535.9753,373,533.3292v15.877l4.5833,2.6462Z"/>
    <path id="Path-110" class="cls-5" d="M326.25,506.01l-4.5833-2.6462v15.8773l4.5833,2.6461Z"/>
    <path id="Path-111" class="cls-5" d="M267.5833,472.4767,263,469.8305v15.8773l4.5833,2.6462Z"/>
    <path id="Path-112" class="cls-5" d="M219.9167,444.6515l-4.5834-2.6461v15.8772l4.5834,2.6463Z"/>
    <path id="Path-113" class="cls-4" d="M549,488.8865l4.5833-2.6463v15.8773L549,504.7637Z"/>
    <path id="Path-114" class="cls-4" d="M464.6667,537.4021l4.5833-2.6462v15.8773l-4.5833,2.6462Z"/>
    <path id="Path-115" class="cls-3" d="M585.6667,484.0864l-2.75-1.4269V468.39l2.75-1.4269Z"/>
    <path id="Path-116" class="cls-3" d="M538.9167,511.1982l-2.75-1.427V495.5019l2.75-1.427Z"/>
    <path id="Path-117" class="cls-3" d="M553.5833,502.6365l-2.75-1.4269V486.94l2.75-1.4268Z"/>
    <path id="Path-118" class="cls-3" d="M470.1667,551.1521l-2.75-1.4269V535.4559l2.75-1.427Z"/>
    <path id="Path-119" class="cls-2" d="M373,549.7253l2.75-1.427V534.029L373,532.6022Z"/>
    <path id="Path-120" class="cls-2" d="M320.75,519.76l2.75-1.4268V504.0634l-2.75-1.4269Z"/>
    <path id="Path-121" class="cls-2" d="M263,486.2268l2.75-1.427V470.5305l-2.75-1.427Z"/>
    <path id="Path-122" class="cls-2" d="M215.3333,458.4016l2.75-1.4269V442.7054l-2.75-1.427Z"/>
    <path id="Path-123" class="cls-3" d="M454.5833,559.7137l-2.75-1.4268V544.0176l2.75-1.427Z"/>
    <path id="Path-124" class="cls-3" d="M494,536.8828l-2.75-1.4269V521.1865L494,519.76Z"/>
    <path id="Path-125" class="cls-2" d="M393.1667,561.1408l2.75-1.4269V545.4446l-2.75-1.427Z"/>
    <path id="Path-126" class="cls-2" d="M287.75,500.4962l2.75-1.427V484.8l-2.75-1.4269Z"/>
    <path id="Path-127" class="cls-2" d="M185.0833,441.2785l2.75-1.427V425.5822l-2.75-1.4269Z"/>
    <path id="Path-128" class="cls-3" d="M504.0833,531.1752l-2.75-1.427V515.4789l2.75-1.4269Z"/>
    <path id="Path-129" class="cls-2" d="M341.8333,531.8886l2.75-1.4269V516.1926l-2.75-1.4269Z"/>
    <path id="Path-130" class="cls-2" d="M231.8333,468.39l2.75-1.4269V452.6939l-2.75-1.4268Z"/>
    <path id="Path-131" class="cls-1" d="M568.25,491.2211l14.8292-8.5617,2.4715,1.4269L568.25,494.0748Z"/>
    <path id="Path-132" class="cls-1" d="M524.25,516.9059l12.3576-7.1347,2.4715,1.427L524.25,519.76Z"/>
    <path id="Path-133" class="cls-1" d="M549,502.6365l2.4715-1.4269,2.4715,1.4269L549,505.4905Z"/>
    <path id="Path-134" class="cls-1" d="M464.6667,551.1521l2.4715-1.4269,2.4715,1.4269-4.943,2.8539Z"/>
    <path id="Path-135" class="cls-1" d="M378.5,549.7253l-2.4715-1.427-2.4716,1.427,4.9431,2.8539Z"/>
    <path id="Path-136" class="cls-1" d="M326.25,519.76l-2.4715-1.4268L321.307,519.76l4.943,2.8539Z"/>
    <path id="Path-137" class="cls-1" d="M268.5,486.2268,266.0285,484.8l-2.4715,1.4269,4.943,2.8539Z"/>
    <path id="Path-138" class="cls-1" d="M219.9167,458.4016l-2.4716-1.4269-2.4715,1.4269,4.9431,2.8539Z"/>
    <path id="Path-139" class="cls-1" d="M437.1667,566.8485l14.8291-8.5616,2.4715,1.4269-17.3006,9.9886Z"/>
    <path id="Path-140" class="cls-1" d="M410.5833,568.2754l-14.8291-8.5616-2.4715,1.4269,17.3006,9.9886Z"/>
    <path id="Path-141" class="cls-1" d="M305.1667,507.631l-14.8291-8.5617-2.4715,1.427,17.3006,9.9885Z"/>
    <path id="Path-142" class="cls-1" d="M202.5,448.4131l-14.8291-8.5617-2.4715,1.427L202.5,451.267Z"/>
    <path id="Path-143" class="cls-1" d="M479.3333,542.5905l12.3576-7.1346,2.4715,1.4269-14.8291,8.5617Z"/>
    <path id="Path-144" class="cls-1" d="M357.4167,537.5968l-12.3576-7.1346-2.4715,1.4269,14.8291,8.5616Z"/>
    <path id="Path-145" class="cls-1" d="M247.4167,474.0979l-12.3576-7.1346-2.4715,1.4269,14.8291,8.5616Z"/>
    <path id="Path-146" class="cls-17" d="M568.25,477.4191l4.5833-2.6462v14.5538L568.25,491.973Z"/>
    <path id="Path-147" class="cls-17" d="M524.25,503.1038l4.5833-2.6461v14.5539l-4.5833,2.6463Z"/>
    <path id="Path-148" class="cls-17" d="M479.3333,528.7885l4.5834-2.6462v14.5541l-4.5834,2.6462Z"/>
    <path id="Path-149" class="cls-18" d="M348.25,518.8l-4.5833-2.6463v14.5541l4.5833,2.6463Z"/>
    <path id="Path-150" class="cls-18" d="M238.25,455.3016l-4.5833-2.6465v14.554l4.5833,2.6462Z"/>
    <path id="Path-151" class="cls-17" d="M438.0833,553.0464l4.5834-2.6462v14.5541l-4.5834,2.6462Z"/>
    <path id="Path-152" class="cls-18" d="M398.6667,548.0522l-4.5834-2.6462V559.96l4.5834,2.6463Z"/>
    <path id="Path-153" class="cls-18" d="M294.1667,487.4075l-4.5834-2.6462v14.5541l4.5834,2.6462Z"/>
    <path id="Path-154" class="cls-18" d="M191.5,428.19l-4.5833-2.6462v14.5541l4.5833,2.6458Z"/>
    <path id="Path-155" class="cls-19" d="M295.0833,501.9231l-.9166.7134V486.94l.9166.7135Z"/>
    <path id="Path-156" class="cls-19" d="M192.4167,442.7053l-.9167.7135V427.7226l.9167.7134Z"/>
    <path id="Path-157" class="cls-19" d="M349.1667,533.316l-.9167.7134V518.3328l.9167.7134Z"/>
    <path id="Path-158" class="cls-19" d="M239.1667,469.8172l-.9167.7134V454.8343l.9167.7135Z"/>
    <path id="Path-159" class="cls-19" d="M400.5,562.5677l-.9167.7134V547.5849l.9167.7134Z"/>
    <path id="Path-160" class="cls-10" d="M504.0833,516.9058v17.1233l7.4146,4.2808,14.8291-8.5616Z"/>
    <path id="Path-161" class="cls-20" d="M472.07,566.8485l9.8861-14.2693-2.4715,1.4269-9.8859,14.2693Z"/>
    <g id="Group-2">
      <path id="Path-162" class="cls-20" d="M506.6709,535.4559l9.8861-14.2693-2.4715,1.4269-9.8861,14.2694Z"/>
      <path id="Path-163" class="cls-21" d="M501.3333,515.4789l2.75,1.4269v19.9771l-2.75-1.427Z"/>
      <path id="Path-164" class="cls-20" d="M506.8333,535.4559l-2.75,1.427V516.9058l2.75,1.427Z"/>
      <path id="Path-165" class="cls-21" d="M501.7275,535.4559l9.8861-14.2693,2.4715,1.4269-9.8861,14.2694Z"/>
      <path id="Path-166" class="cls-21" d="M511.4167,521.1866l2.75,1.427v19.977l-2.75-1.427Z"/>
      <path id="Path-167" class="cls-20" d="M516.9167,541.1636l-2.75,1.427v-19.977l2.75,1.4269Z"/>
      <path id="Path-168" class="cls-21" d="M511.6139,541.1636,521.5,526.8943l2.4715,1.4269-9.886,14.2694Z"/>
    </g>
    <path id="Path-169" class="cls-1" d="M704.3924,709.5417,872.4557,612.51,625.3041,469.8171,457.2405,566.8485Z"/>
    <path id="Path-170" class="cls-2" d="M704.8333,709.4884v39.88l167.75-96.8506v-39.88Z"/>
    <path id="Path-171" class="cls-3" d="M457.3333,566.72v40.01l247.5,142.8944V709.614Z"/>
    <path id="Path-172" class="cls-4" d="M704.8333,749.4293l167.75-96.8506v25.6371l-167.75,96.85Z"/>
    <path id="Path-173" class="cls-5" d="M704.8333,749.5783l-247.5-142.8944v25.7212l247.5,142.8943Z"/>
    <path id="Path-174" class="cls-2" d="M868,656.2528l4.5833-2.6462v26.4618L868,682.7147Z"/>
    <path id="Path-175" class="cls-6" d="M703.9167,709.2,714,703.3783V744.13l-10.0833,5.8217Z"/>
    <path id="Path-176" class="cls-7" d="M704.8333,709.2,694.75,703.3787V744.13l10.0833,5.8217Z"/>
    <path id="Path-177" class="cls-6" d="M744.25,686.3693l10.0833-5.8216V721.299L744.25,727.1207Z"/>
    <path id="Path-178" class="cls-7" d="M664.5,686.3693l-10.0833-5.8216V721.299L664.5,727.1207Z"/>
    <path id="Path-179" class="cls-6" d="M783.6667,663.5381l10.0833-5.8216v40.7514l-10.0833,5.822Z"/>
    <path id="Path-180" class="cls-7" d="M625.0833,663.5381,615,657.7165v40.7514l10.0833,5.8217Z"/>
    <path id="Path-181" class="cls-6" d="M823.0833,640.7073l10.0834-5.8217V675.637l-10.0834,5.8216Z"/>
    <path id="Path-182" class="cls-7" d="M585.6667,640.7073l-10.0834-5.8219v40.7514l10.0834,5.8216Z"/>
    <path id="Path-183" class="cls-7" d="M527,606.4608l-10.0833-5.8216v40.7514L527,647.2123Z"/>
    <path id="Path-184" class="cls-6" d="M724.0833,697.7845l10.0834-5.8216v40.7514l-10.0834,5.8216Z"/>
    <path id="Path-185" class="cls-7" d="M684.6667,697.7845l-10.0834-5.8216v40.7514l10.0834,5.8216Z"/>
    <path id="Path-186" class="cls-6" d="M763.5,674.9538l10.0833-5.8215v40.7509L763.5,715.7048Z"/>
    <path id="Path-187" class="cls-7" d="M645.25,674.9537l-10.0832-5.8217v40.7514l10.0833,5.8217Z"/>
    <path id="Path-188" class="cls-6" d="M802.9167,652.1226,813,646.301v40.7517l-10.0833,5.8216Z"/>
    <path id="Path-189" class="cls-7" d="M605.8333,652.1226,595.75,646.301v40.7517l10.0833,5.8216Z"/>
    <path id="Path-190" class="cls-6" d="M842.3333,629.2918l10.0834-5.8216v40.7513l-10.0834,5.8217Z"/>
    <path id="Path-191" class="cls-7" d="M566.4167,629.2918,556.3333,623.47v40.7513l10.0834,5.8217Z"/>
    <path id="Path-192" class="cls-7" d="M506.8333,595.0453,496.75,589.2237v40.7514l10.0833,5.8218Z"/>
    <path id="Path-193" class="cls-6" d="M862.5,617.8761l10.0833-5.8215v40.7512L862.5,658.6273Z"/>
    <path id="Path-194" class="cls-7" d="M546.25,617.8759l-10.0833-5.8216V652.806l10.0833,5.8216Z"/>
    <path id="Path-195" class="cls-7" d="M486.6667,583.63l-10.0834-5.8216v40.751l10.0834,5.8216Z"/>
    <path id="Path-196" class="cls-7" d="M467.4167,572.2145l-10.0834-5.8216v40.7514l10.0834,5.8216Z"/>
    <path id="Path-197" class="cls-3" d="M461.9167,610.5909l-4.5834-2.6462v26.4617l4.5834,2.6463Z"/>
    <path id="Path-198" class="cls-3" d="M786.4167,730.9456l-2.75-1.4269V703.8343l2.75-1.4269Z"/>
    <path id="Path-199" class="cls-2" d="M622.3333,730.9456l2.75-1.4269V703.8343l-2.75-1.4269Z"/>
    <path id="Path-200" class="cls-2" d="M543.5,685.2838l2.75-1.4269v-25.685l-2.75-1.4269Z"/>
    <path id="Path-201" class="cls-2" d="M461.9167,638.1951l2.75-1.427v-25.685l-2.75-1.427Z"/>
    <path id="Path-202" class="cls-3" d="M868,683.8569l-2.75-1.4268v-25.685l2.75-1.427Z"/>
    <path id="Path-203" class="cls-1" d="M783.481,726.6649l-30.894,17.8367,2.4715,1.4268,30.8941-17.8365Z"/>
    <path id="Path-204" class="cls-1" d="M865.0412,679.5761l-30.8937,17.8367,2.4715,1.4269,30.8941-17.8366Z"/>
    <path id="Path-205" class="cls-1" d="M625.3038,726.6649l29.6581,17.1233-2.4715,1.4269-29.6582-17.1233Z"/>
    <path id="Path-206" class="cls-1" d="M546.2152,681.0031l28.4225,16.41-2.4715,1.4268L543.7437,682.43Z"/>
    <path id="Path-207" class="cls-1" d="M464.655,633.9143l29.6583,17.1233-2.4715,1.4269-29.6583-17.1234Z"/>
    <path id="Path-208" class="cls-2" d="M756.1667,745.1368v2.8226L785.5,731.0237v-2.8225Z"/>
    <path id="Path-209" class="cls-2" d="M837.75,698.0481v2.8225l29.3333-16.9357v-2.8226Z"/>
    <path id="Path-210" class="cls-3" d="M652.5833,745.1368V747.96L623.25,731.0237v-2.8226Z"/>
    <path id="Path-211" class="cls-3" d="M571.9167,698.7615v2.8227l-29.3334-16.9358V681.826Z"/>
    <path id="Path-212" class="cls-3" d="M491.25,652.3861v2.8226L461.9167,638.273V635.45Z"/>
    <path id="Path-213" class="cls-3" d="M753.4167,743.788v2.8539l2.75,1.427V745.215Z"/>
    <path id="Path-214" class="cls-3" d="M835,696.6993v2.8541l2.75,1.427v-2.8542Z"/>
    <path id="Path-215" class="cls-2" d="M655.3333,743.788v2.8539l-2.75,1.427V745.215Z"/>
    <path id="Path-216" class="cls-2" d="M574.6667,697.4128v2.8538l-2.75,1.427V698.84Z"/>
    <path id="Path-217" class="cls-2" d="M494,651.0375v2.8538l-2.75,1.4269v-2.8539Z"/>
    <path id="Path-218" class="cls-8" d="M625.3038,475.5248,862.57,612.51l-158.1772,91.324L467.1265,566.8485Z"/>
    <path id="Path-219" class="cls-3" d="M625.0833,475.5248V486.94l227.38,131.2774,9.8861-5.7077Z"/>
    <path id="Path-220" class="cls-2" d="M466.9061,566.8485l158.1772-91.3237V486.94l-148.291,85.616Z"/>
    <path id="Path-221" class="cls-9" d="M738.75,729.5031v5.6452l14.6667-8.4679v-5.6452Z"/>
    <path id="Path-222" class="cls-10" d="M670,729.5031v5.6452L655.3333,726.68v-5.6451Z"/>
    <path id="Path-223" class="cls-10" d="M589.3333,683.1278v5.6452l-14.6666-8.4679V674.66Z"/>
    <path id="Path-224" class="cls-10" d="M508.6667,636.7526v5.6452L494,633.93v-5.6452Z"/>
    <path id="Path-225" class="cls-9" d="M820.3333,682.4145V688.06L835,679.5918v-5.6452Z"/>
    <path id="Path-226" class="cls-11" d="M738.75,755.0706l7.3333-4.234V731.0785l-7.3333,4.2339Z"/>
    <path id="Path-227" class="cls-12" d="M670,755.0705l-7.3333-4.2339v-19.758L670,735.3125Z"/>
    <path id="Path-228" class="cls-12" d="M589.3333,708.6954,582,704.4615V684.7032l7.3333,4.234Z"/>
    <path id="Path-229" class="cls-12" d="M508.6667,662.32l-7.3334-4.234V638.3279l7.3334,4.234Z"/>
    <path id="Path-230" class="cls-11" d="M820.3333,707.9822l7.3334-4.2339V683.99l-7.3334,4.234Z"/>
    <path id="Path-231" class="cls-11" d="M753.4167,726.7977v19.7582l-7.3334,4.234V731.0316Z"/>
    <path id="Path-232" class="cls-12" d="M655.3333,726.7977v19.7582l7.3334,4.234V731.0316Z"/>
    <path id="Path-233" class="cls-12" d="M574.6667,680.4225v19.7582L582,704.4146V684.6564Z"/>
    <path id="Path-234" class="cls-12" d="M494,634.0472v19.7582l7.3333,4.2339V638.281Z"/>
    <path id="Path-235" class="cls-11" d="M835,679.709v19.7585l-7.3333,4.2339V683.9429Z"/>
    <path id="Path-236" class="cls-1" d="M738.9937,752.35l-32.13,18.55,2.4716,1.4269,32.13-18.55Z"/>
    <path id="Path-237" class="cls-1" d="M820.5538,705.2609l-32.13,18.55,2.4715,1.4269,32.13-18.55Z"/>
    <path id="Path-238" class="cls-2" d="M709.4167,772.3154v2.85L741.5,756.6418v-2.85Z"/>
    <path id="Path-239" class="cls-2" d="M791,725.2266v2.85l32.0833-18.5234v-2.85Z"/>
    <path id="Path-240" class="cls-2" d="M704.8333,750.43l4.5834-2.6462V774.246l-4.5834,2.6462Z"/>
    <path id="Path-241" class="cls-2" d="M786.4167,703.3415,791,700.6953v26.4619l-4.5833,2.6462Z"/>
    <path id="Path-242" class="cls-1" d="M669.7912,752.35l32.13,18.55-2.4715,1.4269-32.13-18.55Z"/>
    <path id="Path-243" class="cls-1" d="M589.4668,705.9743l32.13,18.55-2.4715,1.4269-32.13-18.55Z"/>
    <path id="Path-244" class="cls-1" d="M509.1424,659.5991l32.13,18.55-2.4715,1.4269-32.13-18.55Z"/>
    <path id="Path-245" class="cls-3" d="M699.3333,772.3153v2.85L667.25,756.6418v-2.85Z"/>
    <path id="Path-246" class="cls-3" d="M618.6667,725.94v2.85l-32.0834-18.5234v-2.85Z"/>
    <path id="Path-247" class="cls-3" d="M538.9167,679.5647v2.85l-32.0834-18.5235v-2.85Z"/>
    <path id="Path-248" class="cls-3" d="M703.9167,750.43l-4.5834-2.6462V774.246l4.5834,2.6462Z"/>
    <path id="Path-249" class="cls-3" d="M543.5,657.68l-4.5833-2.6462v26.4621l4.5833,2.6463Z"/>
    <path id="Path-250" class="cls-3" d="M622.3333,703.3415l-4.5833-2.6462v26.4619l4.5833,2.6462Z"/>
    <path id="Path-251" class="cls-13" d="M738.75,735.289l-29.3334,16.9358V746.58L738.75,729.6438Z"/>
    <path id="Path-252" class="cls-14" d="M670,735.289l29.3333,16.9358V746.58L670,729.6438Z"/>
    <path id="Path-253" class="cls-14" d="M625.0833,709.6042,654.4167,726.54v-5.6449l-29.3334-16.9358Z"/>
    <path id="Path-254" class="cls-14" d="M589.3333,688.8523,617.75,705.2586v-5.7062L589.3333,683.146Z"/>
    <path id="Path-255" class="cls-14" d="M546.25,663.8809l28.4167,16.4063v-5.7065L546.25,658.1744Z"/>
    <path id="Path-256" class="cls-14" d="M509.5833,642.5384l29.3334,16.9358V653.829l-29.3334-16.9357Z"/>
    <path id="Path-257" class="cls-14" d="M464.6667,616.8536,494,633.7893V628.144l-29.3333-16.9357Z"/>
    <path id="Path-258" class="cls-13" d="M820.3333,688.2,791,705.136v-5.6451l29.3333-16.9358Z"/>
    <path id="Path-259" class="cls-13" d="M783.6667,709.6042,754.3333,726.54v-5.6448l29.3334-16.9357Z"/>
    <path id="Path-260" class="cls-13" d="M865.25,662.5155l-29.3333,16.9357v-5.6453L865.25,656.87Z"/>
    <path id="Path-261" class="cls-4" d="M740.5833,736.4591v15.8773l4.5834-2.6462V733.8129Z"/>
    <path id="Path-262" class="cls-5" d="M668.1667,736.4592v15.877l-4.5834-2.6462V733.8131Z"/>
    <path id="Path-263" class="cls-5" d="M588.4167,690.0839v15.8773l-4.5834-2.6462V687.4378Z"/>
    <path id="Path-264" class="cls-5" d="M507.75,643.7085v15.8773l-4.5833-2.6462V641.0623Z"/>
    <path id="Path-265" class="cls-4" d="M822.1667,689.37v15.8773l4.5833-2.6461V686.7243Z"/>
    <path id="Path-266" class="cls-4" d="M747.9167,732.1783v15.8773l4.5833-2.6462V729.5321Z"/>
    <path id="Path-267" class="cls-5" d="M660.8333,732.1783v15.8773l-4.5833-2.6462V729.5321Z"/>
    <path id="Path-268" class="cls-5" d="M581.0833,685.8031V701.68L576.5,699.0343V683.157Z"/>
    <path id="Path-269" class="cls-5" d="M500.4167,639.4278v15.8773l-4.5834-2.6462V636.7816Z"/>
    <path id="Path-270" class="cls-4" d="M829.5,685.09v15.8773l4.5833-2.6462V682.4433Z"/>
    <line id="Path-271" class="cls-15" x1="746.5417" y1="739.3551" x2="746.5417" y2="748.5218"/>
    <line id="Path-272" class="cls-16" x1="662.2083" y1="739.3551" x2="662.2083" y2="748.5218"/>
    <line id="Path-273" class="cls-16" x1="582.4583" y1="693.5218" x2="582.4583" y2="701.7718"/>
    <line id="Path-274" class="cls-16" x1="501.7917" y1="646.7718" x2="501.7917" y2="655.0218"/>
    <line id="Path-275" class="cls-15" x1="828.125" y1="692.6051" x2="828.125" y2="700.8551"/>
    <line id="Path-276" class="cls-15" x1="747.4583" y1="738.4385" x2="747.4583" y2="747.6051"/>
    <line id="Path-277" class="cls-16" x1="661.2917" y1="738.4385" x2="661.2917" y2="747.6051"/>
    <line id="Path-278" class="cls-16" x1="580.625" y1="692.6051" x2="580.625" y2="700.8551"/>
    <line id="Path-279" class="cls-16" x1="500.875" y1="645.8551" x2="500.875" y2="655.0218"/>
    <line id="Path-280" class="cls-15" x1="829.0417" y1="691.6885" x2="829.0417" y2="699.9385"/>
    <path id="Path-281" class="cls-5" d="M692,716.6523l-17.4167-10.0554V723.835L692,733.8906Z"/>
    <path id="Path-282" class="cls-5" d="M587.5,656.0078l-17.4167-10.0555V663.19L587.5,673.2458Z"/>
    <path id="Path-283" class="cls-5" d="M484.8333,596.79l-17.4166-10.0555v17.2381l17.4166,10.0549Z"/>
    <path id="Path-284" class="cls-4" d="M850.5833,639.5979,868,629.5425v17.2381L850.5833,656.836Z"/>
    <path id="Path-285" class="cls-4" d="M770.8333,685.3307,785.5,676.8628v16.9358l-14.6667,8.4679Z"/>
    <path id="Path-286" class="cls-5" d="M638.8333,686.0442l-14.6666-8.4679v16.9358l14.6666,8.4679Z"/>
    <path id="Path-287" class="cls-5" d="M528.8334,622.5453l-14.6667-8.4679v16.9358l14.6666,8.4679Z"/>
    <path id="Path-288" class="cls-4" d="M805.6667,665.3537l14.6666-8.4679v16.9358L805.6667,682.29Z"/>
    <path id="Path-289" class="cls-5" d="M659.9167,698.6455l-4.5834-2.6462v15.8773l4.5834,2.6462Z"/>
    <path id="Path-290" class="cls-5" d="M607.6667,668.68l-4.5834-2.6462v15.8773l4.5834,2.6462Z"/>
    <path id="Path-291" class="cls-5" d="M549.9167,635.147l-4.5834-2.6463V648.378l4.5834,2.6463Z"/>
    <path id="Path-292" class="cls-5" d="M501.3333,607.3218l-4.5833-2.6462v15.8772l4.5833,2.6462Z"/>
    <path id="Path-293" class="cls-4" d="M830.4167,651.5567,835,648.9105v15.8773l-4.5833,2.6463Z"/>
    <path id="Path-294" class="cls-3" d="M868,646.7567l-2.75-1.427V631.06l2.75-1.4269Z"/>
    <path id="Path-295" class="cls-3" d="M820.3333,673.8685l-2.75-1.4269V658.1721l2.75-1.4269Z"/>
    <path id="Path-296" class="cls-3" d="M835.9167,665.3068l-2.75-1.427V649.6105l2.75-1.4269Z"/>
    <path id="Path-297" class="cls-2" d="M654.4167,712.396l2.75-1.4269v-14.27l-2.75-1.4269Z"/>
    <path id="Path-298" class="cls-2" d="M603.0833,682.43l2.75-1.4269V666.7337l-2.75-1.427Z"/>
    <path id="Path-299" class="cls-2" d="M544.4167,648.897l2.75-1.4269V633.2007l-2.75-1.4269Z"/>
    <path id="Path-300" class="cls-2" d="M496.75,621.0719l2.75-1.4269V605.3756l-2.75-1.4269Z"/>
    <path id="Path-301" class="cls-2" d="M674.5833,723.811l2.75-1.4269v-14.269l-2.75-1.4269Z"/>
    <path id="Path-302" class="cls-2" d="M569.1667,663.1664l2.75-1.4269V647.47l-2.75-1.427Z"/>
    <path id="Path-303" class="cls-2" d="M467.4167,603.9487l2.75-1.4269V588.2524l-2.75-1.4269Z"/>
    <path id="Path-304" class="cls-3" d="M786.4167,693.8454l-2.75-1.4269V678.1493l2.75-1.427Z"/>
    <path id="Path-305" class="cls-2" d="M624.1667,694.5589l2.75-1.427V678.8626l-2.75-1.4268Z"/>
    <path id="Path-306" class="cls-2" d="M514.1667,631.06l2.75-1.427V615.3642l-2.75-1.4269Z"/>
    <path id="Path-307" class="cls-1" d="M850.5833,653.8914l14.8292-8.5617,2.4716,1.427-17.3008,9.9884Z"/>
    <path id="Path-308" class="cls-1" d="M805.6666,679.5761l12.3576-7.1346,2.4716,1.4269L805.6667,682.43Z"/>
    <path id="Path-309" class="cls-1" d="M830.4166,665.3068l2.4716-1.427,2.4715,1.427-4.943,2.8539Z"/>
    <path id="Path-310" class="cls-1" d="M659.9167,712.396l-2.4715-1.4269-2.4716,1.4269,4.9431,2.8539Z"/>
    <path id="Path-311" class="cls-1" d="M607.6667,682.43l-2.4715-1.4269-2.4716,1.4269,4.9431,2.854Z"/>
    <path id="Path-312" class="cls-1" d="M549.9167,648.897l-2.4715-1.4269-2.4716,1.4269,4.9431,2.8538Z"/>
    <path id="Path-313" class="cls-1" d="M501.3333,621.0719l-2.4715-1.4269-2.4715,1.4269,4.943,2.8539Z"/>
    <path id="Path-314" class="cls-1" d="M692,730.9456l-14.8291-8.5617-2.4715,1.4269L692,733.7994Z"/>
    <path id="Path-315" class="cls-1" d="M586.5833,670.301l-14.8291-8.5617-2.4716,1.4269,17.3007,9.9887Z"/>
    <path id="Path-316" class="cls-1" d="M484.8333,611.0833l-14.8292-8.5617-2.4715,1.4269,17.3007,9.9887Z"/>
    <path id="Path-317" class="cls-1" d="M770.8333,699.5534l12.3576-7.1346,2.4715,1.4269-14.8291,8.5617Z"/>
    <path id="Path-318" class="cls-1" d="M638.8334,700.2666l-12.3576-7.1347-2.4716,1.427,14.8291,8.5617Z"/>
    <path id="Path-319" class="cls-1" d="M528.8333,636.7682l-12.3576-7.1347-2.4715,1.427,14.8291,8.5617Z"/>
    <path id="Path-320" class="cls-17" d="M850.5833,640.0891l4.5834-2.6462V651.997l-4.5834,2.6462Z"/>
    <path id="Path-321" class="cls-17" d="M805.6667,665.7741l4.5833-2.6462V677.682l-4.5833,2.6462Z"/>
    <path id="Path-322" class="cls-17" d="M771.75,685.7512l4.5833-2.6463V697.659l-4.5833,2.6462Z"/>
    <path id="Path-323" class="cls-18" d="M629.6667,681.47l-4.5834-2.6462v14.5541l4.5834,2.6462Z"/>
    <path id="Path-324" class="cls-18" d="M519.6667,617.9719l-4.5834-2.6462V629.88l4.5834,2.6463Z"/>
    <path id="Path-325" class="cls-18" d="M681,710.7224l-4.5833-2.6462V722.63L681,725.2765Z"/>
    <path id="Path-326" class="cls-18" d="M575.5833,650.0778,571,647.4315v14.5541l4.5833,2.6462Z"/>
    <path id="Path-327" class="cls-18" d="M472.9167,590.86l-4.5834-2.6462v14.5538l4.5834,2.6461Z"/>
    <path id="Path-328" class="cls-19" d="M576.5,664.5932l-.9167.7135V649.61l.9167.7136Z"/>
    <path id="Path-329" class="cls-19" d="M474.75,605.3756l-.9167.7134V590.3928l.9167.7135Z"/>
    <path id="Path-330" class="cls-19" d="M631.5,695.9859l-.9167.7134V681.0031l.9167.7134Z"/>
    <path id="Path-331" class="cls-19" d="M521.5,632.4874l-.9167.7134V617.5046l.9167.7135Z"/>
    <path id="Path-332" class="cls-19" d="M681.9167,725.2379l-.9167.7134V710.2552l.9167.7134Z"/>
    <path id="Path-333" class="cls-7" d="M185.0833,410.1136V392.6488L175,386.8273v17.4649Z"/>
    <path id="Path-334" class="cls-2" d="M205.25,381.0628v17.4647l-20.1667,11.6431V392.7059Z"/>
    <path id="Path-335" class="cls-1" d="M175.4873,387.055,195.26,375.64l9.8858,5.7077-19.7725,11.4154Z"/>
    <path id="Path-336" class="cls-2" d="M190.5833,481.2325l2.75-1.4269v-25.685l-2.75-1.4269Z"/>
    <path id="Path-337" class="cls-3" d="M209.8333,489.7159v2.8227L180.5,475.6029V472.78Z"/>
    <path id="Path-338" class="cls-3" d="M190.5833,449.9652l-14.6666-8.4678v31.0484l14.6666,8.4679Z"/>
    <path id="Path-339" class="cls-7" d="M185.0833,409.26,175,403.4383v69.8588l10.0833,5.8215Z"/>
    <path id="Path-340" class="cls-10" d="M417.9167,584.9062l4.5833,2.6462v21.1695l-4.5833-2.6462Z"/>
    <path id="Path-341" class="cls-9" d="M427.0833,584.9062v21.1695L422.5,608.7219V587.5524Z"/>
    <path id="Path-342" class="cls-10" d="M337.25,559.7005V538.5313l4.5833,2.6463v21.1695Z"/>
    <path id="Path-343" class="cls-10" d="M258.4167,514.0386v-21.17L263,495.5153v21.1695Z"/>
    <path id="Path-344" class="cls-1" d="M307.7136,543.304l65.4952,37.8137-2.4715,1.427L305.2421,544.731Z"/>
    <path id="Path-345" class="cls-1" d="M227.3892,496.9288l65.4953,37.8137-2.4715,1.4269-65.4953-37.8136Z"/>
    <path id="Path-346" class="cls-4" d="M499.2563,514.0519l19.7725-11.4155,24.7152,14.2694-19.7725,11.4155Z"/>
    <path id="Path-347" class="cls-5" d="M499.5,516.9059l22.2437,12.8423,2.4715-1.4269L499.5,514.0519Z"/>
    <path id="Path-348" class="cls-2" d="M704.8333,800.6549v2.8479L912,683.895v-2.8478Z"/>
    <path id="Path-349" class="cls-3" d="M131,469.6025v2.8561L704.8333,803.7615v-2.8562Z"/>
    <path id="Path-350" class="cls-22" d="M219.9747,407.0321l118.6329-68.4928,138.4051,79.9082L358.38,486.94Z"/>
    <path id="Path-351" class="cls-23" d="M229.8608,407.0321,338.6076,344.247l128.5189,74.2L358.38,481.2325Z"/>
    <path id="Path-352" class="cls-24" d="M269.405,384.2011l118.633,68.4928L457.2405,412.74,338.6076,344.247Z"/>
    <path id="Path-353" class="cls-24" d="M650.019,649.6105l59.3165,34.2467,108.7468-62.7851-59.3165-34.2466Z"/>
    <g id="Group-3">
      <path id="Path-354" class="cls-24" d="M358.6261,381.791l-21.2543,12.2359,21.2543,12.2375,21.2547-12.2375Z"/>
      <path id="Path-355" class="cls-25" d="M358.3329,407.9673l21.0838-12.1388v-1.745l-21.0834,12.1388Z"/>
      <path id="Path-356" class="cls-26" d="M358.3333,407.9676l-21.0833-12.14v-1.7436l21.0833,12.1383Z"/>
      <path id="Path-357" class="cls-27" d="M358.6267,383.0912l-16.4747,9.4843,16.4747,9.4852,16.4747-9.4852Z"/>
      <path id="Path-358" class="cls-28" d="M358.6267,386.6239l-11.8755,6.8292,11.8747,6.83,11.8756-6.83Z"/>
      <path id="Path-359" class="cls-29" d="M366.8334,395.55l-8.2067-4.7249-8.2061,4.7241,8.2065,4.7253Z"/>
      <path id="Path-360" class="cls-30" d="M358.3332,403.8213l16.5-9.4924V392.567l-16.5,9.4924Z"/>
      <path id="Path-361" class="cls-30" d="M346.4576,393.4532l11.8757-6.832,0-1.76-13.4,7.714Z"/>
      <path id="Path-362" class="cls-31" d="M358.3337,403.8219l-16.5-9.4948v-1.76l16.5,9.4934Z"/>
      <path id="Path-363" class="cls-31" d="M370.208,393.4529,358.3333,386.62v-1.7579l13.3988,7.7139Z"/>
      <path id="Path-364" class="cls-32" d="M357.6686,393.0263a2.0777,2.0777,0,0,1,1.6524-1.0129,2.7305,2.7305,0,0,0,1.8565-1.032,1.92,1.92,0,0,1-1.7547,1.7147C357.8705,392.7414,357.6686,393.0263,357.6686,393.0263Z"/>
      <path id="Path-365" class="cls-32" d="M361.4113,393.1851a2.0788,2.0788,0,0,1,1.6525-1.0128,2.73,2.73,0,0,0,1.8561-1.0317,1.9193,1.9193,0,0,1-1.7544,1.7142C361.6133,392.901,361.4113,393.1851,361.4113,393.1851Z"/>
      <path id="Path-366" class="cls-32" d="M351.2462,393.0263a2.0789,2.0789,0,0,1,1.6526-1.0129,2.7287,2.7287,0,0,0,1.8563-1.032s-.2023,1.669-1.7546,1.7147S351.2462,393.0263,351.2462,393.0263Z"/>
      <path id="Path-367" class="cls-32" d="M360.185,396.6055a1.4344,1.4344,0,0,1,1.1419-.7,1.8861,1.8861,0,0,0,1.2824-.7133s-.1394,1.1533-1.2121,1.1848S360.185,396.6055,360.185,396.6055Z"/>
      <path id="Path-368" class="cls-32" d="M358.1089,391.1284a1.4359,1.4359,0,0,1,1.1419-.7,1.8867,1.8867,0,0,0,1.2828-.7134s-.14,1.1534-1.2126,1.1852S358.1089,391.1284,358.1089,391.1284Z"/>
      <path id="Path-369" class="cls-32" d="M352.1036,390.8247a1.4361,1.4361,0,0,1,1.1422-.7,1.8887,1.8887,0,0,0,1.2828-.7134s-.14,1.1534-1.2125,1.1848S352.1036,390.8247,352.1036,390.8247Z"/>
    </g>
    <path id="Path-370" class="cls-25" d="M269.4167,384.3163v2.8447l118.25,68.2716V452.588Z"/>
    <path id="Path-371" class="cls-25" d="M649.8333,649.5271v2.8666l59.5834,34.4007v-2.8667Z"/>
    <path id="Path-372" class="cls-26" d="M457.3333,412.88v2.8352l-68.75,39.6928v-2.8352Z"/>
    <path id="Path-373" class="cls-26" d="M818.5,620.97v2.8627l-109.0833,62.98V683.95Z"/>
    <g id="Group-4">
      <path id="Path-374" class="cls-26" d="M292.5423,381.544a7.247,7.247,0,1,1-7.4729-7.0139q.1146-.0036.2294-.0036A7.1332,7.1332,0,0,1,292.5423,381.544Z"/>
      <path id="Path-375" class="cls-25" d="M289.4825,375.8167a6.8174,6.8174,0,0,1,.9908,3.5418,7.1341,7.1341,0,0,1-7.244,7.0182,7.3612,7.3612,0,0,1-4.1823-1.2909,7.2823,7.2823,0,0,0,6.2517,3.4765,7.1332,7.1332,0,0,0,7.2434-7.0183A6.9464,6.9464,0,0,0,289.4825,375.8167Z"/>
      <path id="Path-376" class="cls-26" d="M296.9152,385.4049a5.5815,5.5815,0,1,1-5.9615-5.1737q.1966-.0138.3939-.0139A5.3878,5.3878,0,0,1,296.9152,385.4049Z"/>
      <path id="Path-377" class="cls-25" d="M294.5629,381.1711a4.8968,4.8968,0,0,1,.7621,2.6187,5.3884,5.3884,0,0,1-5.5688,5.1876,5.8259,5.8259,0,0,1-3.2152-.9538,5.6524,5.6524,0,0,0,4.8067,2.57,5.3878,5.3878,0,0,0,5.5675-5.1884A5.0841,5.0841,0,0,0,294.5629,381.1711Z"/>
    </g>
    <g id="Group-5">
      <path id="Path-378" class="cls-26" d="M358.5319,420.6956a7.2471,7.2471,0,1,1-7.473-7.0139q.1148-.0037.23-.0037A7.1332,7.1332,0,0,1,358.5319,420.6956Z"/>
      <path id="Path-379" class="cls-25" d="M355.4719,414.9682a6.8181,6.8181,0,0,1,.9908,3.5419,7.134,7.134,0,0,1-7.2441,7.0181,7.36,7.36,0,0,1-4.1822-1.2908,7.2819,7.2819,0,0,0,6.2516,3.4764,7.1332,7.1332,0,0,0,7.2435-7.0182A6.9465,6.9465,0,0,0,355.4719,414.9682Z"/>
      <path id="Path-380" class="cls-26" d="M362.9047,424.5565a5.5815,5.5815,0,1,1-5.9614-5.1737q.1966-.014.3939-.0139A5.3877,5.3877,0,0,1,362.9047,424.5565Z"/>
      <path id="Path-381" class="cls-25" d="M360.5524,420.3227a4.8965,4.8965,0,0,1,.7621,2.6187,5.3884,5.3884,0,0,1-5.5687,5.1876,5.8262,5.8262,0,0,1-3.215-.9539,5.6522,5.6522,0,0,0,4.8067,2.57,5.3877,5.3877,0,0,0,5.5675-5.1883A5.0839,5.0839,0,0,0,360.5524,420.3227Z"/>
    </g>
    <g id="Group-6">
      <path id="Path-382" class="cls-33" d="M312.0189,398.3959a5.3693,5.3693,0,1,1-5.7344-4.9774q.189-.0133.3785-.0134A5.1837,5.1837,0,0,1,312.0189,398.3959Z"/>
      <path id="Path-383" class="cls-34" d="M309.7559,394.323a4.71,4.71,0,0,1,.7327,2.5186,5.1827,5.1827,0,0,1-5.356,4.99,5.6,5.6,0,0,1-3.0928-.9175,5.4343,5.4343,0,0,0,4.6232,2.4726,5.1838,5.1838,0,0,0,5.3559-4.9912A4.8914,4.8914,0,0,0,309.7559,394.323Z"/>
      <path id="Path-384" class="cls-33" d="M306.9,394.323a3.1468,3.1468,0,1,1-3.3607-2.9172q.11-.0078.2211-.0078A3.0379,3.0379,0,0,1,306.9,394.323Z"/>
      <path id="Path-385" class="cls-34" d="M305.5738,391.9356a2.7554,2.7554,0,0,1,.43,1.4758,3.0376,3.0376,0,0,1-3.139,2.925,3.2815,3.2815,0,0,1-1.813-.5376,3.1849,3.1849,0,0,0,2.7092,1.4489,3.0379,3.0379,0,0,0,3.14-2.925A2.867,2.867,0,0,0,305.5738,391.9356Z"/>
      <path id="Path-386" class="cls-33" d="M309.8405,392.5762a2.0992,2.0992,0,1,1-2.2419-1.946q.0738-.0052.148-.0052A2.0265,2.0265,0,0,1,309.8405,392.5762Z"/>
      <path id="Path-387" class="cls-34" d="M308.9557,390.984a1.8359,1.8359,0,0,1,.2871.9844,2.0277,2.0277,0,0,1-2.0951,1.952,2.1867,2.1867,0,0,1-1.2091-.3591,2.1258,2.1258,0,0,0,1.808.9668,2.0265,2.0265,0,0,0,2.0939-1.9519A1.9108,1.9108,0,0,0,308.9557,390.984Z"/>
      <path id="Path-388" class="cls-33" d="M312.98,399.2611a2.1,2.1,0,1,1-2.2432-1.946q.0743-.0052.1486-.0053A2.0272,2.0272,0,0,1,312.98,399.2611Z"/>
      <path id="Path-389" class="cls-34" d="M312.0953,397.6683a1.8414,1.8414,0,0,1,.2859.9851,2.0258,2.0258,0,0,1-2.0939,1.9512,2.186,2.186,0,0,1-1.21-.3584,2.1257,2.1257,0,0,0,1.8079.9668,2.0271,2.0271,0,0,0,2.0946-1.9519A1.9158,1.9158,0,0,0,312.0953,397.6683Z"/>
    </g>
    <g id="Group-7">
      <path id="Path-390" class="cls-33" d="M309.224,386.4346a5.3693,5.3693,0,1,1-5.7347-4.9771q.1891-.0135.3788-.0134A5.1836,5.1836,0,0,1,309.224,386.4346Z"/>
      <path id="Path-391" class="cls-34" d="M306.9609,382.3617a4.7073,4.7073,0,0,1,.7327,2.5185,5.1827,5.1827,0,0,1-5.3559,4.99,5.5989,5.5989,0,0,1-3.0928-.9176,5.4343,5.4343,0,0,0,4.6232,2.4726,5.1837,5.1837,0,0,0,5.3559-4.9911A4.8911,4.8911,0,0,0,306.9609,382.3617Z"/>
      <path id="Path-392" class="cls-33" d="M304.1054,382.3617a3.1467,3.1467,0,1,1-3.3606-2.9172q.11-.0078.2211-.0078A3.0378,3.0378,0,0,1,304.1054,382.3617Z"/>
      <path id="Path-393" class="cls-34" d="M302.7789,379.9743a2.7554,2.7554,0,0,1,.43,1.4758,3.0377,3.0377,0,0,1-3.139,2.925,3.2814,3.2814,0,0,1-1.8131-.5377,3.1849,3.1849,0,0,0,2.7093,1.449,3.0378,3.0378,0,0,0,3.1395-2.925A2.8664,2.8664,0,0,0,302.7789,379.9743Z"/>
      <path id="Path-394" class="cls-33" d="M307.0458,380.6149a2.0992,2.0992,0,1,1-2.2418-1.9461q.074-.0052.148-.0052A2.0264,2.0264,0,0,1,307.0458,380.6149Z"/>
      <path id="Path-395" class="cls-34" d="M306.1608,379.0226a1.8364,1.8364,0,0,1,.2872.9845,2.0279,2.0279,0,0,1-2.0952,1.952,2.1868,2.1868,0,0,1-1.2091-.3592,2.1256,2.1256,0,0,0,1.808.9668,2.0264,2.0264,0,0,0,2.0941-1.9518A1.9107,1.9107,0,0,0,306.1608,379.0226Z"/>
      <path id="Path-396" class="cls-33" d="M310.1851,387.3a2.1,2.1,0,1,1-2.2428-1.9463q.0743-.0052.1485-.0053A2.027,2.027,0,0,1,310.1851,387.3Z"/>
      <path id="Path-397" class="cls-34" d="M309.3008,385.707a1.84,1.84,0,0,1,.2859.985,2.0257,2.0257,0,0,1-2.0939,1.9513,2.187,2.187,0,0,1-1.21-.3584,2.1258,2.1258,0,0,0,1.808.9668,2.0271,2.0271,0,0,0,2.0945-1.9519A1.9155,1.9155,0,0,0,309.3008,385.707Z"/>
    </g>
    <g id="Group-8">
      <path id="Path-398" class="cls-33" d="M368.1224,424.8718a5.3693,5.3693,0,1,1-5.7348-4.977q.1891-.0134.3789-.0134A5.1837,5.1837,0,0,1,368.1224,424.8718Z"/>
      <path id="Path-399" class="cls-34" d="M365.8592,420.799a4.7081,4.7081,0,0,1,.7326,2.5185,5.1827,5.1827,0,0,1-5.3559,4.99,5.6005,5.6005,0,0,1-3.0928-.9176,5.4346,5.4346,0,0,0,4.6232,2.4726,5.1837,5.1837,0,0,0,5.3559-4.9912A4.8913,4.8913,0,0,0,365.8592,420.799Z"/>
      <path id="Path-400" class="cls-33" d="M363.0038,420.799a3.1468,3.1468,0,1,1-3.3606-2.9173q.11-.0078.2211-.0078A3.0378,3.0378,0,0,1,363.0038,420.799Z"/>
      <path id="Path-401" class="cls-34" d="M361.6772,418.4118a2.7546,2.7546,0,0,1,.43,1.4758,3.0377,3.0377,0,0,1-3.139,2.9251,3.2814,3.2814,0,0,1-1.8131-.5377,3.1854,3.1854,0,0,0,2.7093,1.449,3.0378,3.0378,0,0,0,3.1395-2.925A2.8666,2.8666,0,0,0,361.6772,418.4118Z"/>
      <path id="Path-402" class="cls-33" d="M365.9439,419.0522a2.0992,2.0992,0,1,1-2.2418-1.9461q.074-.0053.1479-.0052A2.0263,2.0263,0,0,1,365.9439,419.0522Z"/>
      <path id="Path-403" class="cls-34" d="M365.0592,417.46a1.8371,1.8371,0,0,1,.2871.9845,2.0277,2.0277,0,0,1-2.0951,1.9519,2.1859,2.1859,0,0,1-1.2091-.3591,2.1255,2.1255,0,0,0,1.8079.9668,2.0264,2.0264,0,0,0,2.0939-1.9518A1.9105,1.9105,0,0,0,365.0592,417.46Z"/>
      <path id="Path-404" class="cls-33" d="M369.0835,425.7371a2.1,2.1,0,1,1-2.243-1.9461q.0741-.0052.1485-.0053A2.0271,2.0271,0,0,1,369.0835,425.7371Z"/>
      <path id="Path-405" class="cls-34" d="M368.1988,424.1443a1.8419,1.8419,0,0,1,.2859.985,2.0259,2.0259,0,0,1-2.094,1.9513,2.1871,2.1871,0,0,1-1.21-.3585,2.1256,2.1256,0,0,0,1.808.9668,2.0271,2.0271,0,0,0,2.0945-1.9519A1.9156,1.9156,0,0,0,368.1988,424.1443Z"/>
    </g>
    <g id="Group-9">
      <path id="Path-406" class="cls-33" d="M384.605,434.78a5.3693,5.3693,0,1,1-5.7347-4.9772q.1891-.0134.3788-.0134A5.1839,5.1839,0,0,1,384.605,434.78Z"/>
      <path id="Path-407" class="cls-34" d="M382.3423,430.7071a4.71,4.71,0,0,1,.7327,2.5187,5.1829,5.1829,0,0,1-5.3559,4.99,5.6011,5.6011,0,0,1-3.0929-.9176,5.4344,5.4344,0,0,0,4.6232,2.4725,5.1837,5.1837,0,0,0,5.3559-4.9911A4.8919,4.8919,0,0,0,382.3423,430.7071Z"/>
      <path id="Path-408" class="cls-33" d="M379.4867,430.7071a3.1467,3.1467,0,1,1-3.3607-2.9171q.11-.0078.2212-.0079A3.0378,3.0378,0,0,1,379.4867,430.7071Z"/>
      <path id="Path-409" class="cls-34" d="M378.16,428.32a2.7542,2.7542,0,0,1,.43,1.4758,3.0376,3.0376,0,0,1-3.1389,2.925,3.2819,3.2819,0,0,1-1.8131-.5376,3.1851,3.1851,0,0,0,2.7092,1.4489,3.0376,3.0376,0,0,0,3.1395-2.925A2.8661,2.8661,0,0,0,378.16,428.32Z"/>
      <path id="Path-410" class="cls-33" d="M382.4269,428.96a2.0992,2.0992,0,1,1-2.2419-1.946q.0741-.0052.1483-.0052A2.0265,2.0265,0,0,1,382.4269,428.96Z"/>
      <path id="Path-411" class="cls-34" d="M381.5421,427.3682a1.8369,1.8369,0,0,1,.2871.9845,2.0276,2.0276,0,0,1-2.0951,1.9518,2.1866,2.1866,0,0,1-1.2091-.359,2.1257,2.1257,0,0,0,1.8083.9668,2.0266,2.0266,0,0,0,2.094-1.952A1.9105,1.9105,0,0,0,381.5421,427.3682Z"/>
      <path id="Path-412" class="cls-33" d="M385.5665,435.6451a2.1,2.1,0,1,1-2.2431-1.946c.0494-.0035.099-.0053.1485-.0053A2.0272,2.0272,0,0,1,385.5665,435.6451Z"/>
      <path id="Path-413" class="cls-34" d="M384.6817,434.0525a1.8434,1.8434,0,0,1,.2859.9851,2.026,2.026,0,0,1-2.0939,1.9513,2.1862,2.1862,0,0,1-1.21-.3586,2.1258,2.1258,0,0,0,1.8079.9669,2.0272,2.0272,0,0,0,2.0946-1.9519A1.9159,1.9159,0,0,0,384.6817,434.0525Z"/>
    </g>
    <g id="Group-10">
      <path id="Path-414" class="cls-33" d="M366.81,430.58a5.3693,5.3693,0,1,1-5.7347-4.977q.189-.0134.3788-.0134A5.1837,5.1837,0,0,1,366.81,430.58Z"/>
      <path id="Path-415" class="cls-34" d="M364.5474,426.5067a4.7086,4.7086,0,0,1,.7326,2.5185,5.1827,5.1827,0,0,1-5.3558,4.99,5.6,5.6,0,0,1-3.0929-.9175,5.4345,5.4345,0,0,0,4.6232,2.4725A5.1837,5.1837,0,0,0,366.81,430.58,4.8916,4.8916,0,0,0,364.5474,426.5067Z"/>
      <path id="Path-416" class="cls-33" d="M361.6918,426.5067a3.1467,3.1467,0,1,1-3.3606-2.9173q.11-.0078.221-.0078A3.0379,3.0379,0,0,1,361.6918,426.5067Z"/>
      <path id="Path-417" class="cls-34" d="M360.3653,424.1193a2.7553,2.7553,0,0,1,.43,1.4759,3.0375,3.0375,0,0,1-3.1389,2.9249,3.2811,3.2811,0,0,1-1.8131-.5377,3.1852,3.1852,0,0,0,2.7092,1.449,3.0378,3.0378,0,0,0,3.14-2.925A2.8668,2.8668,0,0,0,360.3653,424.1193Z"/>
      <path id="Path-418" class="cls-33" d="M364.6319,424.76a2.0992,2.0992,0,1,1-2.2418-1.9461q.0739-.0053.148-.0052A2.0264,2.0264,0,0,1,364.6319,424.76Z"/>
      <path id="Path-419" class="cls-34" d="M363.7472,423.1676a1.8384,1.8384,0,0,1,.2872.9845,2.0277,2.0277,0,0,1-2.0952,1.9519,2.1865,2.1865,0,0,1-1.2092-.3591,2.1259,2.1259,0,0,0,1.8081.9669,2.0265,2.0265,0,0,0,2.0938-1.9519A1.9109,1.9109,0,0,0,363.7472,423.1676Z"/>
      <path id="Path-420" class="cls-33" d="M367.7715,431.4448a2.1,2.1,0,1,1-2.243-1.9461q.0741-.0052.1485-.0052A2.0269,2.0269,0,0,1,367.7715,431.4448Z"/>
      <path id="Path-421" class="cls-34" d="M366.8867,429.8518a1.84,1.84,0,0,1,.2859.985,2.0257,2.0257,0,0,1-2.0939,1.9513,2.1862,2.1862,0,0,1-1.21-.3584,2.1257,2.1257,0,0,0,1.808.9667,2.0269,2.0269,0,0,0,2.0945-1.9518A1.9156,1.9156,0,0,0,366.8867,429.8518Z"/>
    </g>
    <g id="Group-11">
      <path id="Path-422" class="cls-26" d="M308.6072,390.41a7.2471,7.2471,0,1,1-7.473-7.0139q.1147-.0036.2295-.0036A7.1332,7.1332,0,0,1,308.6072,390.41Z"/>
      <path id="Path-423" class="cls-25" d="M305.5472,384.6826a6.8174,6.8174,0,0,1,.9908,3.5418,7.1341,7.1341,0,0,1-7.2441,7.0182,7.3609,7.3609,0,0,1-4.1822-1.2909,7.2822,7.2822,0,0,0,6.2516,3.4765,7.1332,7.1332,0,0,0,7.2435-7.0183A6.9464,6.9464,0,0,0,305.5472,384.6826Z"/>
      <path id="Path-424" class="cls-26" d="M312.98,394.2708a5.5815,5.5815,0,1,1-5.9615-5.1737q.1966-.0138.3939-.0139A5.3879,5.3879,0,0,1,312.98,394.2708Z"/>
      <path id="Path-425" class="cls-25" d="M310.6277,390.037a4.8968,4.8968,0,0,1,.7621,2.6187,5.3883,5.3883,0,0,1-5.5687,5.1876,5.8259,5.8259,0,0,1-3.2151-.9533,5.6517,5.6517,0,0,0,4.8065,2.57,5.3879,5.3879,0,0,0,5.5676-5.1883A5.0842,5.0842,0,0,0,310.6277,390.037Z"/>
    </g>
    <g id="Group-12">
      <path id="Path-426" class="cls-26" d="M374.5968,429.5615a7.2471,7.2471,0,1,1-7.473-7.0139q.1148-.0037.2294-.0037A7.1333,7.1333,0,0,1,374.5968,429.5615Z"/>
      <path id="Path-427" class="cls-25" d="M371.5367,423.8341a6.8182,6.8182,0,0,1,.9909,3.5419,7.1341,7.1341,0,0,1-7.244,7.0182,7.3615,7.3615,0,0,1-4.1824-1.2909,7.2823,7.2823,0,0,0,6.2517,3.4765,7.1334,7.1334,0,0,0,7.2435-7.0183A6.947,6.947,0,0,0,371.5367,423.8341Z"/>
      <path id="Path-428" class="cls-26" d="M378.97,433.4224a5.5815,5.5815,0,1,1-5.9615-5.1737q.1966-.014.3939-.0139A5.3877,5.3877,0,0,1,378.97,433.4224Z"/>
      <path id="Path-429" class="cls-25" d="M376.6173,429.1886a4.8965,4.8965,0,0,1,.7621,2.6187,5.3884,5.3884,0,0,1-5.5687,5.1876,5.8259,5.8259,0,0,1-3.2152-.9538,5.6519,5.6519,0,0,0,4.8065,2.57,5.3879,5.3879,0,0,0,5.5676-5.1883A5.0839,5.0839,0,0,0,376.6173,429.1886Z"/>
    </g>
    <g id="Group-13">
      <path id="Path-430" class="cls-33" d="M450.2981,404.0709a4.69,4.69,0,1,1-5.01-4.3466q.1658-.0119.332-.0118A4.5272,4.5272,0,0,1,450.2981,404.0709Z"/>
      <path id="Path-431" class="cls-34" d="M448.3212,400.514a4.1131,4.1131,0,0,1,.6395,2.2,4.5257,4.5257,0,0,1-4.677,4.3584,4.8935,4.8935,0,0,1-2.7017-.8007A4.7483,4.7483,0,0,0,445.62,408.43a4.5272,4.5272,0,0,0,4.6778-4.3593A4.2737,4.2737,0,0,0,448.3212,400.514Z"/>
      <path id="Path-432" class="cls-33" d="M450.32,408.9361a6.413,6.413,0,1,1-6.8493-5.9447q.2258-.016.4522-.016A6.1912,6.1912,0,0,1,450.32,408.9361Z"/>
      <path id="Path-433" class="cls-34" d="M447.6167,404.0709a5.6189,5.6189,0,0,1,.8758,3.0084,6.19,6.19,0,0,1-6.397,5.9607,6.6874,6.6874,0,0,1-3.6942-1.0955,6.4938,6.4938,0,0,0,5.522,2.9522,6.1912,6.1912,0,0,0,6.3971-5.9606A5.8435,5.8435,0,0,0,447.6167,404.0709Z"/>
      <path id="Path-434" class="cls-33" d="M444.7034,402.7066a3.1289,3.1289,0,1,1-3.3419-2.9q.11-.0078.2205-.0078A3.02,3.02,0,0,1,444.7034,402.7066Z"/>
      <path id="Path-435" class="cls-34" d="M443.385,400.3337a2.7418,2.7418,0,0,1,.426,1.4679,3.0194,3.0194,0,0,1-3.1206,2.908,3.2652,3.2652,0,0,1-1.8022-.5343,3.1691,3.1691,0,0,0,2.6938,1.44,3.02,3.02,0,0,0,3.1214-2.9089A2.851,2.851,0,0,0,443.385,400.3337Z"/>
    </g>
    <g id="Group-14">
      <path id="Path-436" class="cls-33" d="M335.6228,350.5029a4.0076,4.0076,0,1,1-4.2808-3.7143q.1416-.01.2836-.01A3.8683,3.8683,0,0,1,335.6228,350.5029Z"/>
      <path id="Path-437" class="cls-34" d="M333.9336,347.4634a3.5159,3.5159,0,0,1,.5464,1.88,3.8673,3.8673,0,0,1-3.9967,3.7244,4.1827,4.1827,0,0,1-2.3086-.6843,4.0577,4.0577,0,0,0,3.4508,1.8446,3.8683,3.8683,0,0,0,3.9972-3.725A3.652,3.652,0,0,0,333.9336,347.4634Z"/>
      <path id="Path-438" class="cls-33" d="M335.6418,354.66a5.48,5.48,0,1,1-5.8527-5.08q.1927-.0136.3863-.0137A5.29,5.29,0,0,1,335.6418,354.66Z"/>
      <path id="Path-439" class="cls-34" d="M333.3318,350.5029a4.8015,4.8015,0,0,1,.7484,2.5707,5.2892,5.2892,0,0,1-5.4663,5.0935,5.7139,5.7139,0,0,1-3.157-.9362,5.5487,5.5487,0,0,0,4.7186,2.5227,5.29,5.29,0,0,0,5.4663-5.0934A4.9932,4.9932,0,0,0,333.3318,350.5029Z"/>
      <path id="Path-440" class="cls-33" d="M330.8425,349.3371a2.6736,2.6736,0,1,1-2.8557-2.4782q.0939-.0068.1882-.0067A2.581,2.581,0,0,1,330.8425,349.3371Z"/>
      <path id="Path-441" class="cls-34" d="M329.7155,347.3094a2.343,2.343,0,0,1,.364,1.2543,2.58,2.58,0,0,1-2.6665,2.485,2.79,2.79,0,0,1-1.54-.4566,2.7075,2.7075,0,0,0,2.302,1.2306,2.5809,2.5809,0,0,0,2.6675-2.4856A2.4367,2.4367,0,0,0,329.7155,347.3094Z"/>
    </g>
    <g id="Group-15">
      <path id="Path-442" class="cls-26" d="M323.36,399.2238a7.2471,7.2471,0,1,1-7.4731-7.014q.1148-.0036.23-.0036A7.1332,7.1332,0,0,1,323.36,399.2238Z"/>
      <path id="Path-443" class="cls-25" d="M320.3,393.4968a6.8174,6.8174,0,0,1,.9908,3.5418,7.1341,7.1341,0,0,1-7.244,7.0183,7.3612,7.3612,0,0,1-4.1823-1.2909,7.282,7.282,0,0,0,6.2517,3.4764,7.1333,7.1333,0,0,0,7.2435-7.0182A6.947,6.947,0,0,0,320.3,393.4968Z"/>
      <path id="Path-444" class="cls-26" d="M327.7329,403.0851a5.5814,5.5814,0,1,1-5.9606-5.1745q.1962-.0138.393-.0138A5.3877,5.3877,0,0,1,327.7329,403.0851Z"/>
      <path id="Path-445" class="cls-25" d="M325.3805,398.8509a4.8957,4.8957,0,0,1,.7622,2.6187,5.3884,5.3884,0,0,1-5.5687,5.1877,5.8272,5.8272,0,0,1-3.2152-.9534,5.6525,5.6525,0,0,0,4.8065,2.57,5.3878,5.3878,0,0,0,5.5676-5.1884A5.0839,5.0839,0,0,0,325.3805,398.8509Z"/>
    </g>
    <g id="Group-16">
      <path id="Path-446" class="cls-26" d="M390.9973,438.3754a7.2471,7.2471,0,1,1-7.4729-7.014q.1148-.0036.2295-.0036A7.1331,7.1331,0,0,1,390.9973,438.3754Z"/>
      <path id="Path-447" class="cls-25" d="M387.9373,432.6476a6.819,6.819,0,0,1,.9909,3.5418,7.1341,7.1341,0,0,1-7.2441,7.0183,7.3621,7.3621,0,0,1-4.1823-1.2908,7.2818,7.2818,0,0,0,6.2517,3.4763,7.1331,7.1331,0,0,0,7.2434-7.0182A6.9467,6.9467,0,0,0,387.9373,432.6476Z"/>
      <path id="Path-448" class="cls-26" d="M395.37,442.236a5.5814,5.5814,0,1,1-5.9613-5.1738q.1966-.0139.3937-.0139A5.3877,5.3877,0,0,1,395.37,442.236Z"/>
      <path id="Path-449" class="cls-25" d="M393.0178,438.0024a4.8969,4.8969,0,0,1,.7621,2.6188,5.3884,5.3884,0,0,1-5.5687,5.1876,5.8265,5.8265,0,0,1-3.2152-.9533,5.6522,5.6522,0,0,0,4.8066,2.5694,5.3876,5.3876,0,0,0,5.5675-5.1883A5.0838,5.0838,0,0,0,393.0178,438.0024Z"/>
    </g>
    <g id="Group-17">
      <path id="Path-450" class="cls-33" d="M343.633,352.1453a6.4431,6.4431,0,1,1-5.9721-5.9721A6.443,6.443,0,0,1,343.633,352.1453Z"/>
      <path id="Path-451" class="cls-34" d="M340.9174,347.2577a5.65,5.65,0,0,1,.8793,3.0224,6.22,6.22,0,0,1-6.4272,5.9886,6.72,6.72,0,0,1-3.7112-1.1011,6.5212,6.5212,0,0,0,5.5479,2.967,6.22,6.22,0,0,0,6.427-5.9893A5.87,5.87,0,0,0,340.9174,347.2577Z"/>
      <path id="Path-452" class="cls-33" d="M337.4907,347.2577a3.7761,3.7761,0,1,1-4.0328-3.5006q.1325-.0093.2653-.0094A3.6453,3.6453,0,0,1,337.4907,347.2577Z"/>
      <path id="Path-453" class="cls-34" d="M335.8989,344.393a3.3063,3.3063,0,0,1,.5157,1.7712,3.6451,3.6451,0,0,1-3.7667,3.51,3.9383,3.9383,0,0,1-2.1756-.6453,3.8216,3.8216,0,0,0,3.2509,1.7387,3.6452,3.6452,0,0,0,3.7675-3.51A3.44,3.44,0,0,0,335.8989,344.393Z"/>
      <path id="Path-454" class="cls-33" d="M341.0189,345.1616a2.5194,2.5194,0,1,1-2.6909-2.3353q.089-.0063.1782-.0062A2.4318,2.4318,0,0,1,341.0189,345.1616Z"/>
      <path id="Path-455" class="cls-34" d="M339.9572,343.251a2.2041,2.2041,0,0,1,.3446,1.1813,2.4333,2.4333,0,0,1-2.5142,2.3424,2.6246,2.6246,0,0,1-1.451-.4309,2.551,2.551,0,0,0,2.17,1.16,2.4319,2.4319,0,0,0,2.5127-2.3423A2.2926,2.2926,0,0,0,339.9572,343.251Z"/>
      <path id="Path-456" class="cls-33" d="M344.7864,353.1835a2.52,2.52,0,1,1-2.6916-2.3352q.089-.0063.1782-.0063A2.4325,2.4325,0,0,1,344.7864,353.1835Z"/>
      <path id="Path-457" class="cls-34" d="M343.7247,351.2721a2.21,2.21,0,0,1,.343,1.1825,2.4312,2.4312,0,0,1-2.5127,2.3415,2.6236,2.6236,0,0,1-1.4516-.43,2.551,2.551,0,0,0,2.17,1.16,2.4325,2.4325,0,0,0,2.5134-2.3423A2.2989,2.2989,0,0,0,343.7247,351.2721Z"/>
    </g>
    <g id="Group-18">
      <path id="Path-458" class="cls-33" d="M441.258,413.6943a6.4432,6.4432,0,1,1-6.8817-5.9726q.2269-.0161.4547-.016A6.22,6.22,0,0,1,441.258,413.6943Z"/>
      <path id="Path-459" class="cls-34" d="M438.5424,408.8068a5.65,5.65,0,0,1,.8793,3.0222,6.2194,6.2194,0,0,1-6.4272,5.9886,6.72,6.72,0,0,1-3.7114-1.1011,6.5213,6.5213,0,0,0,5.5479,2.9671,6.22,6.22,0,0,0,6.427-5.9893A5.87,5.87,0,0,0,438.5424,408.8068Z"/>
      <path id="Path-460" class="cls-33" d="M435.1157,408.8068a3.7761,3.7761,0,1,1-4.0328-3.5007q.1325-.0093.2653-.0093A3.6452,3.6452,0,0,1,435.1157,408.8068Z"/>
      <path id="Path-461" class="cls-34" d="M433.5239,405.9419a3.3066,3.3066,0,0,1,.5157,1.7713,3.6451,3.6451,0,0,1-3.7667,3.51,3.9379,3.9379,0,0,1-2.1757-.6452,3.8226,3.8226,0,0,0,3.251,1.7387,3.6453,3.6453,0,0,0,3.7675-3.51A3.44,3.44,0,0,0,433.5239,405.9419Z"/>
      <path id="Path-462" class="cls-33" d="M438.6439,406.7105a2.5194,2.5194,0,1,1-2.6909-2.3352q.089-.0063.1782-.0063A2.4318,2.4318,0,0,1,438.6439,406.7105Z"/>
      <path id="Path-463" class="cls-34" d="M437.5822,404.8a2.2045,2.2045,0,0,1,.3446,1.1814,2.4333,2.4333,0,0,1-2.5142,2.3423,2.6237,2.6237,0,0,1-1.451-.4308,2.5509,2.5509,0,0,0,2.1692,1.16,2.4318,2.4318,0,0,0,2.5127-2.3422A2.293,2.293,0,0,0,437.5822,404.8Z"/>
      <path id="Path-464" class="cls-33" d="M442.4114,414.7325a2.52,2.52,0,1,1-2.6916-2.3352q.089-.0064.1782-.0064A2.4326,2.4326,0,0,1,442.4114,414.7325Z"/>
      <path id="Path-465" class="cls-34" d="M441.35,412.821a2.2105,2.2105,0,0,1,.343,1.1825,2.4312,2.4312,0,0,1-2.5127,2.3416,2.6252,2.6252,0,0,1-1.4516-.43,2.5511,2.5511,0,0,0,2.17,1.16,2.4325,2.4325,0,0,0,2.5134-2.3423A2.2991,2.2991,0,0,0,441.35,412.821Z"/>
    </g>
    <g id="Group-19">
      <path id="Path-466" class="cls-33" d="M296.8664,389.9161a5.3693,5.3693,0,1,1-5.7346-4.9771q.189-.0134.3787-.0134A5.1837,5.1837,0,0,1,296.8664,389.9161Z"/>
      <path id="Path-467" class="cls-34" d="M294.6034,385.8432a4.71,4.71,0,0,1,.7327,2.5186,5.1829,5.1829,0,0,1-5.3559,4.99,5.6008,5.6008,0,0,1-3.0929-.9176,5.4346,5.4346,0,0,0,4.6232,2.4726,5.1838,5.1838,0,0,0,5.3559-4.9912A4.8914,4.8914,0,0,0,294.6034,385.8432Z"/>
      <path id="Path-468" class="cls-33" d="M291.7478,385.8432a3.1467,3.1467,0,1,1-3.3607-2.9172q.11-.0078.2212-.0078A3.0378,3.0378,0,0,1,291.7478,385.8432Z"/>
      <path id="Path-469" class="cls-34" d="M290.4213,383.4559a2.7554,2.7554,0,0,1,.43,1.4758,3.0377,3.0377,0,0,1-3.139,2.925,3.2815,3.2815,0,0,1-1.813-.5376,3.1849,3.1849,0,0,0,2.7092,1.449,3.0378,3.0378,0,0,0,3.1395-2.9251A2.8667,2.8667,0,0,0,290.4213,383.4559Z"/>
      <path id="Path-470" class="cls-33" d="M294.688,384.0964a2.0992,2.0992,0,1,1-2.2419-1.946c.0492-.0035.0986-.0052.1479-.0052A2.0266,2.0266,0,0,1,294.688,384.0964Z"/>
      <path id="Path-471" class="cls-34" d="M293.8032,382.5042a1.8363,1.8363,0,0,1,.2871.9845,2.0277,2.0277,0,0,1-2.0951,1.9519,2.1875,2.1875,0,0,1-1.2091-.3591,2.1258,2.1258,0,0,0,1.8079.9668,2.0266,2.0266,0,0,0,2.094-1.9519A1.9108,1.9108,0,0,0,293.8032,382.5042Z"/>
      <path id="Path-472" class="cls-33" d="M297.8276,390.7813a2.1,2.1,0,1,1-2.2431-1.946q.0741-.0053.1485-.0053A2.0272,2.0272,0,0,1,297.8276,390.7813Z"/>
      <path id="Path-473" class="cls-34" d="M296.9428,389.1885a1.8418,1.8418,0,0,1,.2858.985,2.0258,2.0258,0,0,1-2.0938,1.9513,2.1861,2.1861,0,0,1-1.21-.3585,2.1257,2.1257,0,0,0,1.8079.9668,2.0271,2.0271,0,0,0,2.0946-1.9518A1.9158,1.9158,0,0,0,296.9428,389.1885Z"/>
    </g>
    <g id="Group-20">
      <path id="Path-474" class="cls-33" d="M399.4345,440.7811A5.3693,5.3693,0,1,1,393.7,435.804q.189-.0133.3787-.0134A5.1837,5.1837,0,0,1,399.4345,440.7811Z"/>
      <path id="Path-475" class="cls-34" d="M397.1714,436.7085a4.7073,4.7073,0,0,1,.7327,2.5185,5.1827,5.1827,0,0,1-5.3559,4.99,5.6,5.6,0,0,1-3.0928-.9176,5.4341,5.4341,0,0,0,4.6231,2.4725,5.1837,5.1837,0,0,0,5.356-4.991A4.8914,4.8914,0,0,0,397.1714,436.7085Z"/>
      <path id="Path-476" class="cls-33" d="M394.3159,436.7085a3.1467,3.1467,0,1,1-3.3607-2.9172q.11-.0078.2211-.0078A3.0378,3.0378,0,0,1,394.3159,436.7085Z"/>
      <path id="Path-477" class="cls-34" d="M392.9893,434.3208a2.7554,2.7554,0,0,1,.43,1.4759,3.0375,3.0375,0,0,1-3.1389,2.9249,3.2811,3.2811,0,0,1-1.8131-.5377,3.1848,3.1848,0,0,0,2.7092,1.449,3.0379,3.0379,0,0,0,3.14-2.925A2.8665,2.8665,0,0,0,392.9893,434.3208Z"/>
      <path id="Path-478" class="cls-33" d="M397.256,434.9614a2.0992,2.0992,0,1,1-2.2418-1.9461c.0492-.0035.0986-.0052.1479-.0052A2.0265,2.0265,0,0,1,397.256,434.9614Z"/>
      <path id="Path-479" class="cls-34" d="M396.3713,433.3691a1.8374,1.8374,0,0,1,.2871.9845,2.0276,2.0276,0,0,1-2.0952,1.9519,2.1861,2.1861,0,0,1-1.2091-.3591,2.1261,2.1261,0,0,0,1.8081.9669,2.0265,2.0265,0,0,0,2.0938-1.9519A1.9109,1.9109,0,0,0,396.3713,433.3691Z"/>
      <path id="Path-480" class="cls-33" d="M400.3956,441.6463a2.1,2.1,0,1,1-2.2431-1.946q.0741-.0053.1485-.0053A2.0272,2.0272,0,0,1,400.3956,441.6463Z"/>
      <path id="Path-481" class="cls-34" d="M399.5108,440.0535a1.841,1.841,0,0,1,.2859.985,2.0258,2.0258,0,0,1-2.0939,1.9513,2.1868,2.1868,0,0,1-1.21-.3584,2.1257,2.1257,0,0,0,1.8079.9668,2.0272,2.0272,0,0,0,2.0946-1.9519A1.9159,1.9159,0,0,0,399.5108,440.0535Z"/>
    </g>
    <g id="Group-21">
      <path id="Path-482" class="cls-33" d="M350.757,352.12a4.0076,4.0076,0,1,1-4.2808-3.7143q.1416-.01.2836-.01A3.8685,3.8685,0,0,1,350.757,352.12Z"/>
      <path id="Path-483" class="cls-34" d="M349.0678,349.08a3.5156,3.5156,0,0,1,.5464,1.88,3.8673,3.8673,0,0,1-3.9967,3.7243A4.1826,4.1826,0,0,1,343.3089,354a4.0577,4.0577,0,0,0,3.4508,1.8446,3.8683,3.8683,0,0,0,3.9972-3.725A3.6517,3.6517,0,0,0,349.0678,349.08Z"/>
      <path id="Path-484" class="cls-33" d="M350.776,356.2768a5.48,5.48,0,1,1-5.8528-5.08q.1929-.0136.3864-.0136A5.29,5.29,0,0,1,350.776,356.2768Z"/>
      <path id="Path-485" class="cls-34" d="M348.466,352.12a4.8011,4.8011,0,0,1,.7483,2.5707,5.2891,5.2891,0,0,1-5.4662,5.0934,5.7136,5.7136,0,0,1-3.157-.9361A5.5488,5.5488,0,0,0,345.31,361.37a5.29,5.29,0,0,0,5.4664-5.0934A4.9932,4.9932,0,0,0,348.466,352.12Z"/>
      <path id="Path-486" class="cls-33" d="M345.9767,350.9536a2.6737,2.6737,0,1,1-2.8557-2.4782q.0939-.0066.1882-.0067A2.5811,2.5811,0,0,1,345.9767,350.9536Z"/>
      <path id="Path-487" class="cls-34" d="M344.85,348.9261a2.3425,2.3425,0,0,1,.3641,1.2542,2.58,2.58,0,0,1-2.6666,2.4849,2.79,2.79,0,0,1-1.54-.4565,2.7076,2.7076,0,0,0,2.3018,1.2306,2.581,2.581,0,0,0,2.6675-2.4857A2.4361,2.4361,0,0,0,344.85,348.9261Z"/>
    </g>
    <path id="Path-488" d="M195.1667,398.782l4.5833-2.6462v10.5848l-4.5833,2.6462Z"/>
    <path id="Path-489" class="cls-7" d="M197.9167,397.0436l2.75-1.427v11.4155l-2.75-1.427Z"/>
    <path id="Path-490" class="cls-8" d="M195.1667,407.0321l2.4715-1.427,4.943,2.8539-4.943,2.8538-2.4715-1.4268Z"/>
    <path id="Path-491" class="cls-35" d="M368.2658,492.6479l118.6329-68.4926,29.6582,17.1233L397.9242,509.7712Z"/>
    <path id="Path-492" class="cls-36" d="M397.75,481.2325v22.831l2.75-1.427V479.8056Z"/>
    <path id="Path-493" class="cls-36" d="M501.3333,421.3014v22.8309l2.75-1.4269v-22.831Z"/>
    <path id="Path-494" class="cls-36" d="M383.0833,472.6709v22.831l2.75-1.427V471.244Z"/>
    <path id="Path-495" class="cls-4" d="M395,502.6365V479.8056l2.75,1.4269v22.831Z"/>
    <path id="Path-496" class="cls-4" d="M499.5,442.7054v-22.831l2.75,1.3v22.9577Z"/>
    <path id="Path-497" class="cls-4" d="M380.3333,494.0749V471.244l2.75,1.4269v22.831Z"/>
    <path id="Path-498" class="cls-4" d="M511.4167,421.3086v5.7066L397.75,492.6407v-5.7066Z"/>
    <path id="Path-499" class="cls-5" d="M373,472.6569l24.75,14.2894v5.7157L373,478.3726Z"/>
    <path id="Path-500" class="cls-37" d="M373.2088,472.6709l113.69-65.6388,24.7151,14.2693L397.9242,486.94Z"/>
    <path id="Path-501" class="cls-38" d="M259.519,389.9089l4.943,2.8538,4.943-2.8538-4.943-2.8539Z"/>
    <path id="Path-502" class="cls-38" d="M269.405,395.6166l4.9431,2.8538,4.9431-2.8538-4.9429-2.8539Z"/>
    <path id="Path-503" class="cls-38" d="M279.2912,401.3243l4.943,2.8538,4.943-2.8538-4.943-2.8539Z"/>
    <path id="Path-504" class="cls-38" d="M289.1773,407.032l4.943,2.8539,4.943-2.8539-4.943-2.8538Z"/>
    <path id="Path-505" class="cls-38" d="M299.0633,412.74l4.943,2.8539,4.9431-2.8539-4.9431-2.8539Z"/>
    <path id="Path-506" class="cls-38" d="M308.9494,418.4474l4.943,2.8539,4.943-2.8539-4.943-2.8539Z"/>
    <path id="Path-507" class="cls-38" d="M318.7592,424.1551l4.943,2.8539,4.943-2.8539-4.943-2.8539Z"/>
    <path id="Path-508" class="cls-38" d="M328.7215,429.8628l4.943,2.8539,4.9431-2.8539-4.9431-2.8539Z"/>
    <path id="Path-509" class="cls-38" d="M338.6076,435.5708l4.943,2.8538,4.943-2.8538-4.943-2.8539Z"/>
    <path id="Path-510" class="cls-38" d="M348.4936,441.2782l4.9431,2.854,4.943-2.854-4.943-2.8538Z"/>
    <path id="Path-511" class="cls-38" d="M358.38,446.9859l4.943,2.854,4.9431-2.854-4.9431-2.8538Z"/>
    <path id="Path-512" class="cls-38" d="M368.2658,452.6939l4.943,2.854,4.9431-2.854-4.9431-2.8538Z"/>
    <path id="Path-513" class="cls-38" d="M378.1517,458.4014l4.943,2.8539,4.943-2.8539-4.943-2.8539Z"/>
    <path id="Path-514" class="cls-38" d="M249.6329,395.6166l4.943,2.8538,4.943-2.8538-4.9431-2.8539Z"/>
    <path id="Path-515" class="cls-38" d="M259.519,401.3243l4.943,2.8538,4.943-2.8538-4.943-2.8539Z"/>
    <path id="Path-516" class="cls-38" d="M269.405,407.032l4.9431,2.8539,4.9431-2.8539-4.9431-2.8538Z"/>
    <path id="Path-517" class="cls-38" d="M279.2912,412.74l4.943,2.8539,4.943-2.8539-4.943-2.8539Z"/>
    <path id="Path-518" class="cls-38" d="M289.1773,418.4474l4.943,2.8539,4.943-2.8539-4.943-2.8539Z"/>
    <path id="Path-519" class="cls-38" d="M299.0633,424.1551l4.943,2.8539,4.9431-2.8539-4.9431-2.8539Z"/>
    <path id="Path-520" class="cls-38" d="M308.8731,429.8628l4.943,2.8539,4.9431-2.8539-4.9431-2.8539Z"/>
    <path id="Path-521" class="cls-38" d="M318.8355,435.5705l4.943,2.854,4.943-2.854-4.943-2.8538Z"/>
    <path id="Path-522" class="cls-38" d="M328.7215,441.2785l4.943,2.8539,4.9431-2.8539-4.9431-2.8539Z"/>
    <path id="Path-523" class="cls-38" d="M338.6076,446.9859l4.943,2.854,4.943-2.854-4.943-2.8538Z"/>
    <path id="Path-524" class="cls-38" d="M348.4936,452.6937l4.9431,2.8539,4.943-2.8539-4.943-2.8539Z"/>
    <path id="Path-525" class="cls-38" d="M358.38,458.4016l4.943,2.854,4.9431-2.854-4.9431-2.8538Z"/>
    <path id="Path-526" class="cls-38" d="M368.2658,464.1091l4.943,2.8539,4.9431-2.8539-4.9431-2.8539Z"/>
    <path id="Path-527" class="cls-38" d="M259.519,395.6166l4.943,2.8538,4.943-2.8538-4.943-2.8539Z"/>
    <path id="Path-528" class="cls-38" d="M269.405,401.3243l4.9431,2.8538,4.9431-2.8538-4.9429-2.8539Z"/>
    <path id="Path-529" class="cls-38" d="M279.2912,407.032l4.943,2.8539,4.943-2.8539-4.943-2.8538Z"/>
    <path id="Path-530" class="cls-38" d="M289.1773,412.74l4.943,2.8539,4.943-2.8539-4.943-2.8538Z"/>
    <path id="Path-531" class="cls-38" d="M299.0633,418.4474l4.943,2.8539,4.9431-2.8539-4.9431-2.8538Z"/>
    <path id="Path-532" class="cls-38" d="M308.9494,424.1552l4.943,2.8538,4.943-2.8538-4.943-2.854Z"/>
    <path id="Path-533" class="cls-38" d="M318.7592,429.8628l4.943,2.8539,4.943-2.8539-4.943-2.8539Z"/>
    <path id="Path-534" class="cls-38" d="M328.7215,435.5705l4.943,2.854,4.9431-2.854-4.9431-2.8538Z"/>
    <path id="Path-535" class="cls-38" d="M338.6076,441.2785l4.943,2.8539,4.943-2.8539-4.943-2.8539Z"/>
    <path id="Path-536" class="cls-38" d="M348.4936,446.9859l4.9431,2.854,4.943-2.854-4.943-2.8538Z"/>
    <path id="Path-537" class="cls-38" d="M358.38,452.6937l4.943,2.8539,4.9431-2.8539-4.9431-2.8539Z"/>
    <path id="Path-538" class="cls-38" d="M368.2658,458.4016l4.943,2.854,4.9431-2.854-4.9431-2.8538Z"/>
    <path id="Path-539" class="cls-38" d="M378.1517,464.1091l4.943,2.8539,4.943-2.8539-4.943-2.8539Z"/>
    <path id="Path-540" class="cls-38" d="M249.6329,401.3243l4.943,2.8538,4.943-2.8538-4.9431-2.8539Z"/>
    <path id="Path-541" class="cls-38" d="M239.7468,401.3243l4.9431,2.8539,4.943-2.8539L244.69,398.47Z"/>
    <path id="Path-542" class="cls-38" d="M269.405,418.4474l4.9431,2.8538,4.9431-2.8538-4.9431-2.8539Z"/>
    <path id="Path-543" class="cls-38" d="M269.405,424.1549l4.9431,2.8538,4.9431-2.8538-4.9431-2.8539Z"/>
    <path id="Path-544" class="cls-38" d="M298.9871,435.5705l4.943,2.8539,4.943-2.8539-4.943-2.8538Z"/>
    <path id="Path-545" class="cls-38" d="M298.9871,441.278l4.943,2.8539,4.943-2.8539-4.943-2.8538Z"/>
    <path id="Path-546" class="cls-38" d="M328.6453,452.6937l4.943,2.8538,4.943-2.8538-4.943-2.8539Z"/>
    <path id="Path-547" class="cls-38" d="M328.7215,458.4012l4.943,2.8539,4.9431-2.8539-4.9431-2.8539Z"/>
    <path id="Path-548" class="cls-38" d="M328.7215,464.1089l4.943,2.8539,4.9431-2.8539-4.9431-2.8539Z"/>
    <path id="Path-549" class="cls-38" d="M259.519,407.032l4.943,2.8539,4.943-2.8539-4.943-2.8538Z"/>
    <path id="Path-550" class="cls-38" d="M249.6329,407.032l4.943,2.854,4.943-2.854-4.943-2.8538Z"/>
    <path id="Path-551" class="cls-38" d="M279.2912,424.1551l4.943,2.8538,4.943-2.8538-4.943-2.8539Z"/>
    <path id="Path-552" class="cls-38" d="M269.405,429.8625l4.9431,2.8539,4.9431-2.8539-4.9431-2.8538Z"/>
    <path id="Path-553" class="cls-38" d="M259.519,424.1553l4.943,2.8539,4.943-2.8539-4.943-2.8539Z"/>
    <path id="Path-554" class="cls-38" d="M259.519,418.4475l4.943,2.8539,4.943-2.8539-4.943-2.8538Z"/>
    <path id="Path-555" class="cls-38" d="M249.6329,418.4471l4.943,2.8539,4.943-2.8539-4.943-2.8539Z"/>
    <path id="Path-556" class="cls-38" d="M249.6329,412.7394l4.943,2.8538,4.943-2.8538-4.943-2.8539Z"/>
    <path id="Path-557" class="cls-38" d="M239.7468,407.0316l4.9431,2.8539,4.943-2.8539-4.943-2.8539Z"/>
    <path id="Path-558" class="cls-38" d="M279.2912,429.8626l4.943,2.8539,4.943-2.8539-4.943-2.854Z"/>
    <path id="Path-559" class="cls-38" d="M279.2912,435.57l4.943,2.854,4.943-2.854-4.943-2.8538Z"/>
    <path id="Path-560" class="cls-38" d="M308.8731,441.2782l4.943,2.8539,4.9431-2.8539-4.9431-2.8538Z"/>
    <path id="Path-561" class="cls-38" d="M308.8731,446.9857l4.943,2.8539,4.9431-2.8539-4.9431-2.8539Z"/>
    <path id="Path-562" class="cls-38" d="M338.5313,458.4014l4.943,2.8538,4.9432-2.8538-4.9432-2.8539Z"/>
    <path id="Path-563" class="cls-38" d="M338.6076,464.1089l4.943,2.8539,4.943-2.8539-4.943-2.8539Z"/>
    <path id="Path-564" class="cls-38" d="M269.405,412.74l4.9431,2.8539,4.9431-2.8539-4.9429-2.8538Z"/>
    <path id="Path-565" class="cls-38" d="M259.519,412.74l4.943,2.854,4.943-2.854-4.943-2.8538Z"/>
    <path id="Path-566" class="cls-38" d="M289.1773,429.8628l4.943,2.8538,4.943-2.8538-4.943-2.8539Z"/>
    <path id="Path-567" class="cls-38" d="M289.1773,435.57l4.943,2.854,4.943-2.854-4.943-2.8538Z"/>
    <path id="Path-568" class="cls-38" d="M318.7592,446.9859l4.943,2.8539,4.943-2.8539-4.943-2.8538Z"/>
    <path id="Path-569" class="cls-38" d="M318.8355,452.6935l4.943,2.8538,4.943-2.8538-4.943-2.8539Z"/>
    <path id="Path-570" class="cls-38" d="M308.9494,452.6935l4.943,2.8538,4.943-2.8538-4.943-2.8539Z"/>
    <path id="Path-571" class="cls-38" d="M318.8355,458.4011l4.943,2.8539,4.943-2.8539-4.943-2.8539Z"/>
    <path id="Path-572" class="cls-38" d="M348.4175,464.1091l4.943,2.8538,4.943-2.8538-4.943-2.8539Z"/>
    <path id="Path-573" class="cls-38" d="M348.4936,469.8166l4.9431,2.8539,4.943-2.8539-4.943-2.8538Z"/>
    <path id="Path-574" class="cls-38" d="M279.2912,418.4474l4.943,2.8539,4.943-2.8539-4.943-2.8538Z"/>
    <path id="Path-575" class="cls-38" d="M289.1773,424.1552l4.943,2.8538,4.943-2.8538-4.943-2.854Z"/>
    <path id="Path-576" class="cls-38" d="M299.0633,429.8628l4.943,2.8539,4.9431-2.8539-4.9431-2.8539Z"/>
    <path id="Path-577" class="cls-38" d="M308.8731,435.5705l4.943,2.854,4.9431-2.854-4.9431-2.8538Z"/>
    <path id="Path-578" class="cls-38" d="M318.8355,441.2782l4.943,2.854,4.943-2.854-4.943-2.8538Z"/>
    <path id="Path-579" class="cls-38" d="M328.7215,446.9862l4.943,2.8539,4.9431-2.8539-4.9431-2.8538Z"/>
    <path id="Path-580" class="cls-38" d="M338.6076,452.6937l4.943,2.8539,4.943-2.8539-4.943-2.8539Z"/>
    <path id="Path-581" class="cls-38" d="M348.4936,458.4014l4.9431,2.8539,4.943-2.8539-4.943-2.8539Z"/>
    <path id="Path-582" class="cls-38" d="M358.38,464.1094l4.943,2.8539,4.9431-2.8539-4.9431-2.8539Z"/>
    <path id="Path-583" class="cls-38" d="M358.38,469.8172l4.943,2.8538,4.9431-2.8538-4.9431-2.8539Z"/>
    <path id="Path-584" class="cls-38" d="M358.456,475.5247l4.943,2.8539,4.9431-2.8539-4.9431-2.8539Z"/>
    <path id="Path-585" class="cls-38" d="M368.2658,469.8168l4.943,2.854,4.9431-2.854-4.9431-2.8538Z"/>
    <g id="Group-22">
      <path id="Path-586" class="cls-8" d="M229.8608,404.1782l4.943-2.8539,27.1867,15.6963-4.9431,2.8538Z"/>
      <path id="Path-587" class="cls-3" d="M230,406.958l27.5,15.8772v-2.8868L230,404.0713Z"/>
      <path id="Path-588" class="cls-2" d="M262.0833,417.2282v2.6463L257.5,422.5206v-2.6462Z"/>
    </g>
    <g id="Group-23">
      <path id="Path-589" class="cls-8" d="M331.193,462.6824l4.9431-2.8539,27.1866,15.6963-4.943,2.8539Z"/>
      <path id="Path-590" class="cls-3" d="M330.8333,465.4622l27.5,15.8772v-2.8867l-27.5-15.8772Z"/>
      <path id="Path-591" class="cls-2" d="M362.9167,475.7325v2.6462l-4.5834,2.6461v-2.6461Z"/>
    </g>
    <g id="Group-24">
      <path id="Path-592" class="cls-8" d="M281.7627,434.1437l4.943-2.8538,27.1867,15.6962-4.943,2.8539Z"/>
      <path id="Path-593" class="cls-3" d="M281.3333,436.9237l27.5,15.8771V449.914l-27.5-15.8772Z"/>
      <path id="Path-594" class="cls-2" d="M313.4167,447.1938V449.84l-4.5834,2.6462V449.84Z"/>
    </g>
    <path id="Path-595" class="cls-35" d="M506.6709,572.5561l118.6329-68.4927,138.405,79.9083-118.633,68.4926Z"/>
    <path id="Path-596" class="cls-36" d="M645.25,623.9256v22.831L648,645.33V622.4984Z"/>
    <path id="Path-597" class="cls-36" d="M751.5833,562.5676v22.831l2.75-1.427V561.1407Z"/>
    <path id="Path-598" class="cls-36" d="M639.75,501.21V524.04l2.75-1.4269V499.7826Z"/>
    <path id="Path-599" class="cls-36" d="M518.75,551.1522v22.8309l2.75-1.4268v-22.831Z"/>
    <path id="Path-600" class="cls-4" d="M642.5,645.33V622.4984l2.75,1.4269v22.831Z"/>
    <path id="Path-601" class="cls-4" d="M748.8333,583.9716V561.1407l2.75,1.4269v22.831Z"/>
    <path id="Path-602" class="cls-4" d="M637.9167,522.6135V499.7826l2.75,1.3V524.04Z"/>
    <path id="Path-603" class="cls-4" d="M516,572.5563v-22.831l2.75,1.4269v22.8309Z"/>
    <path id="Path-604" class="cls-37" d="M511.6139,552.5791l113.69-65.6389,133.462,77.0544-113.69,65.6389Z"/>
    <path id="Path-605" class="cls-4" d="M758.9167,564.0019v5.7065L645.25,635.3337v-5.7066Z"/>
    <path id="Path-606" class="cls-5" d="M511.4167,552.4639,645.25,629.7328v5.7233L511.4167,558.1875Z"/>
    <g id="Group-25">
      <path id="Path-607" class="cls-4" d="M521.14,552.5791l4.943-2.8537v5.7077Z"/>
      <path id="Path-608" class="cls-5" d="M526.0833,549.7254v5.7077l118.6328,68.4927,4.9431-2.8539Z"/>
    </g>
    <g id="Group-26">
      <path id="Path-609" class="cls-4" d="M541.307,541.1636l4.943-2.8537v5.7077Z"/>
      <path id="Path-610" class="cls-5" d="M546.25,538.31v5.7077L664.8832,612.51l4.9431-2.8539Z"/>
    </g>
    <g id="Group-27">
      <path id="Path-611" class="cls-4" d="M561.4736,529.7484l4.9431-2.8539v5.7077Z"/>
      <path id="Path-612" class="cls-5" d="M566.4167,526.8945v5.7077L685.05,601.095l4.943-2.854Z"/>
    </g>
    <g id="Group-28">
      <path id="Path-613" class="cls-4" d="M580.7236,518.3329l4.9431-2.8538v5.7077Z"/>
      <path id="Path-614" class="cls-5" d="M585.6667,515.4791v5.7077L704.3,589.68l4.943-2.8539Z"/>
    </g>
    <g id="Group-29">
      <path id="Path-615" class="cls-4" d="M600.89,506.9174l4.943-2.8538v5.7078Z"/>
      <path id="Path-616" class="cls-5" d="M605.8333,504.0637v5.7077L724.4662,578.264l4.9431-2.8538Z"/>
    </g>
    <g id="Group-30">
      <path id="Path-617" class="cls-4" d="M531.2236,546.8713l4.9431-2.8538v5.7077Z"/>
      <path id="Path-618" class="cls-5" d="M536.1667,544.0175v5.7077L654.8,618.2176l4.943-2.8538Z"/>
    </g>
    <g id="Group-31">
      <path id="Path-619" class="cls-4" d="M551.39,535.4558l4.943-2.8538V538.31Z"/>
      <path id="Path-620" class="cls-5" d="M556.3333,532.602V538.31l118.633,68.4928,4.9431-2.854Z"/>
    </g>
    <g id="Group-32">
      <path id="Path-621" class="cls-4" d="M570.64,524.04l4.943-2.8539v5.7077Z"/>
      <path id="Path-622" class="cls-5" d="M575.5833,521.1866v5.7077l118.6329,68.4928,4.943-2.8538Z"/>
    </g>
    <g id="Group-33">
      <path id="Path-623" class="cls-4" d="M590.807,512.625l4.943-2.8537v5.7077Z"/>
      <path id="Path-624" class="cls-5" d="M595.75,509.7713v5.7077l118.6329,68.4927,4.943-2.8539Z"/>
    </g>
    <g id="Group-34">
      <path id="Path-625" class="cls-4" d="M610.057,501.21,615,498.3558v5.7077Z"/>
      <path id="Path-626" class="cls-5" d="M615,498.3558v5.7077l118.6329,68.4928,4.943-2.854Z"/>
    </g>
    <g id="Group-35">
      <path id="Path-627" class="cls-4" d="M620.14,495.6135l4.943-2.8539v5.7077Z"/>
      <path id="Path-628" class="cls-5" d="M625.0833,492.76v5.7077l118.6329,68.4928,4.9431-2.8539Z"/>
    </g>
    <path id="Path-629" class="cls-39" d="M388.038,469.8169l14.8291-8.5617,14.8291,8.5617-14.8291,8.5617Z"/>
    <path id="Path-630" class="cls-39" d="M427.5823,446.8682l14.8291-8.5616,14.8291,8.5616L442.4114,455.43Z"/>
    <path id="Path-631" class="cls-39" d="M407.81,458.4009l14.8292-8.5616,14.829,8.5616-14.829,8.5617Z"/>
    <path id="Path-632" class="cls-39" d="M467.1265,424.1546l14.8292-8.5617,14.8292,8.5617-14.8291,8.5617Z"/>
    <path id="Path-633" class="cls-39" d="M447.3544,435.4526l14.8291-8.5616,14.8292,8.5616-14.8292,8.5617Z"/>
    <g id="Group-36">
      <path id="Path-634" class="cls-40" d="M707.5834,712.3959l54.0833-31.2254v31.2254l-54.0834,31.225Z"/>
      <path id="Path-635" class="cls-41" d="M713.0205,709.2563q28.818-2.2077,32.6242,12.5569L707.5833,743.788V712.396Z"/>
      <path id="Path-636" class="cls-42" d="M713.0834,727.9673q5.6294-22.5128,26.9907-21.8163,8.637.2817,16.1945-21.8164l5.3981-3.1166v24.9327q-27.53,11.2321-26.9907,21.8163l-21.5927,12.4666Z"/>
      <path id="Path-637" class="cls-43" d="M719.0845,737.51q13.7292-29.1615,32.6242-31.3925.8157-14.846,10.8746-18.8356V712.396Z"/>
      <path id="Path-638" class="cls-44" d="M707.5834,743.788l54.3733-31.392q-5.5479-2.19-27.1867,9.4176-15.36,8.24-27.1867-3.1392Z"/>
      <path id="Path-639" class="cls-45" d="M724.1646,702.9778q7.6122,14.75-5.4373,28.2533,31.2646-23.24,32.6242-43.95Z"/>
    </g>
    <path id="Path-640" class="cls-4" d="M719.5,715.2254l17.417-10.0554v17.2382L719.5,732.4637Z"/>
    <path id="Path-641" class="cls-4" d="M747,700.0726l4.5833-2.6462v15.8773L747,715.95Z"/>
    <path id="Path-642" class="cls-3" d="M751.5833,713.8225l-2.75-1.4269V698.1262l2.75-1.4269Z"/>
    <path id="Path-643" class="cls-3" d="M736.9167,722.3841l-2.75-1.4269V706.6878l2.75-1.4269Z"/>
    <path id="Path-644" class="cls-1" d="M746.0833,713.8225l2.4715-1.4269,2.4716,1.4269-4.9431,2.8538Z"/>
    <path id="Path-645" class="cls-1" d="M719.5,729.5187l14.8291-8.5616,2.4715,1.4269L719.5,732.3725Z"/>
    <path id="Path-646" class="cls-17" d="M719.5,715.7167l4.5833-2.6462v14.554L719.5,730.2708Z"/>
  </g>
</svg>
