<svg id="Layer_1" data-name="Layer 1" xmlns="http://www.w3.org/2000/svg" viewBox="0 0 734 687.554">
  <defs>
    <style>
      .cls-1 {
        fill: #f2f1f0;
      }

      .cls-2 {
        fill: #e8e8e8;
      }

      .cls-3 {
        fill: #ccc;
      }

      .cls-4 {
        fill: #8c8584;
      }

      .cls-5 {
        fill: #d5d0cf;
      }

      .cls-6 {
        fill: #ccc8c7;
      }

      .cls-7 {
        fill: #464646;
      }

      .cls-8 {
        fill: #626262;
      }

      .cls-9 {
        fill: #827b7a;
      }

      .cls-10 {
        fill: #4a4a4a;
      }

      .cls-11 {
        fill: #bdb8b6;
      }

      .cls-12 {
        fill: #e3e0e0;
      }

      .cls-13 {
        fill: #6c6767;
      }

      .cls-14 {
        fill: #f9f9f9;
      }

      .cls-15 {
        fill: #cecece;
      }

      .cls-16 {
        fill: #7d9295;
      }

      .cls-17 {
        fill: #5a949d;
      }

      .cls-18 {
        fill: #536062;
      }

      .cls-19 {
        fill: #424d4f;
      }

      .cls-20 {
        fill: #9dc4ca;
      }

      .cls-21 {
        fill: #d1d1d1;
      }

      .cls-22 {
        fill: #aeabab;
      }

      .cls-23 {
        fill: #040404;
      }

      .cls-24 {
        fill: #645f5f;
      }

      .cls-25 {
        fill: #91b7bd;
      }

      .cls-26 {
        fill: #708386;
      }

      .cls-27 {
        fill: #777;
      }

      .cls-28 {
        fill: #686868;
      }

      .cls-29 {
        fill: #535353;
      }

      .cls-30 {
        fill: #d9d5d5;
      }

      .cls-31 {
        fill: #9b9b9b;
      }

      .cls-32 {
        fill: #bfbfbf;
      }

      .cls-33 {
        fill: #f0f0f0;
      }

      .cls-34 {
        fill: #c3c3c3;
      }

      .cls-35 {
        fill: #dbdbdb;
      }

      .cls-36 {
        fill: #5e5e5e;
      }

      .cls-37 {
        fill: #a2a2a2;
      }
    </style>
  </defs>
  <title>Artboard 7</title>
  <g id="Group">
    <path id="Path" class="cls-1" d="M554.245,142.7v8.649l82.388,47.566,7.489-4.324v-8.649l-82.387-47.566Z"/>
    <path id="Path-2" data-name="Path" class="cls-1" d="M299.592,30.27v8.648L89.878,159.997l-7.49-4.324v-8.649L292.102,25.946Z"/>
    <path id="Path-3" data-name="Path" class="cls-2" d="M404.449,678.905,734,488.639,329.551,255.13,0,445.397Z"/>
    <path id="Path-4" data-name="Path" class="cls-3" d="M636.633,475.666l-29.96,17.297-74.897-43.242,22.469-12.973Z"/>
    <path id="Path-5" data-name="Path" class="cls-4" d="M142.306,112.43l29.959,17.297v25.946l-29.959-17.297Z"/>
    <path id="Path-6" data-name="Path" class="cls-5" d="M142.306,121.079l-52.428,30.27-7.49-4.325V441.072l7.49,4.325,52.428-30.27Z"/>
    <path id="Path-7" data-name="Path" class="cls-4" d="M89.878,445.397l-7.49-4.325V147.024l7.49,4.325Z"/>
    <path id="Path-8" data-name="Path" class="cls-5" d="M524.286,471.342l-29.959,17.297,52.428,30.27,29.959-17.297Z"/>
    <path id="Path-9" data-name="Path" class="cls-4" d="M554.245,142.7l82.388,47.567,7.489-4.325v285.4l-7.489,4.324L554.245,428.1Z"/>
    <path id="Path-10" data-name="Path" class="cls-5" d="M636.633,475.666l7.489-4.324v-285.4l-7.489,4.325Z"/>
    <path id="Path-11" data-name="Path" class="cls-5" d="M584.204,159.997V315.669l-14.98,8.649v34.594l-14.979,8.648v69.188l-7.49,4.324V181.618Z"/>
    <path id="Path-12" data-name="Path" class="cls-5" d="M352.02,458.369v86.485l7.49,4.324,194.735-112.43V350.263L359.51,462.693Z"/>
    <path id="Path-13" data-name="Path" class="cls-6" d="M531.776,449.721l14.979,8.648L329.551,583.772V566.475Z"/>
    <path id="Path-14" data-name="Path" class="cls-5" d="M367,397.83v86.485l7.49,4.324,194.734-112.43V289.724L374.49,402.154Z"/>
    <path id="Path-15" data-name="Path" class="cls-5" d="M322.061,510.26v69.188l7.49,4.324L531.776,467.018V397.83L329.551,514.584Z"/>
    <path id="Path-16" data-name="Path" class="cls-7" d="M352.02,570.799V544.854l7.49,4.324,142.306-82.16v17.297Z"/>
    <path id="Path-17" data-name="Path" class="cls-1" d="M599.184,194.591v-8.649l-29.96-17.297,22.47-12.972L368.495,26.809,329.551,47.567l-29.972-17.29L142.306,121.079l14.98,8.648L134.816,142.7v8.649L404.449,307.021Z"/>
    <path id="Path-18" data-name="Path" class="cls-8" d="M471.857,484.315v17.297l-37.449,21.621V505.936Z"/>
    <path id="Path-19" data-name="Path" class="cls-6" d="M142.306,155.673V172.97L89.878,203.239V185.942Z"/>
    <path id="Path-20" data-name="Path" class="cls-6" d="M142.306,259.454v17.297l-52.428,30.27V289.724Z"/>
    <path id="Path-21" data-name="Path" class="cls-6" d="M142.306,363.236v17.297l-52.428,30.27V393.506Z"/>
    <path id="Path-22" data-name="Path" class="cls-6" d="M142.306,224.861v17.296l-52.428,30.27V255.13Z"/>
    <path id="Path-23" data-name="Path" class="cls-6" d="M142.306,328.642v17.297l-52.428,30.27V358.912Z"/>
    <path id="Path-24" data-name="Path" class="cls-6" d="M142.306,190.267v17.297L89.878,237.833V220.536Z"/>
    <path id="Path-25" data-name="Path" class="cls-9" d="M584.204,194.591v17.297l52.429,30.269V224.861Z"/>
    <path id="Path-26" data-name="Path" class="cls-9" d="M584.204,263.779v17.297l52.429,30.269V294.048Z"/>
    <path id="Path-27" data-name="Path" class="cls-9" d="M569.224,324.318v17.297l67.409,38.918V363.236Z"/>
    <path id="Path-28" data-name="Path" class="cls-9" d="M569.224,358.912v17.297l67.409,38.918V397.83Z"/>
    <path id="Path-29" data-name="Path" class="cls-9" d="M554.245,384.857v17.297l82.388,47.567V432.424Z"/>
    <path id="Path-30" data-name="Path" class="cls-10" d="M453.133,512.422V495.125l-11.235,6.487v17.297Z"/>
    <path id="Path-31" data-name="Path" class="cls-6" d="M142.306,294.048v17.297l-52.428,30.27V324.318Z"/>
    <path id="Path-32" data-name="Path" class="cls-11" d="M142.306,397.83v17.297l-52.428,30.27V428.1Z"/>
    <path id="Path-33" data-name="Path" class="cls-9" d="M584.204,229.185v17.297l52.429,30.269V259.454Z"/>
    <path id="Path-34" data-name="Path" class="cls-9" d="M584.204,298.373v17.296l52.429,30.27V328.642Z"/>
    <path id="Path-35" data-name="Path" class="cls-4" d="M404.449,298.373l14.98-8.649V428.1l-14.98,8.648L374.49,419.451v69.188l-14.98-8.649v69.188l-29.959-17.297v51.891L134.816,471.342V142.7Z"/>
    <path id="Path-36" data-name="Path" class="cls-5" d="M404.449,436.748l194.735-112.43V185.942L404.449,298.373Z"/>
    <path id="Path-37" data-name="Path" class="cls-12" d="M576.714,155.673,344.531,21.621,307.082,43.243l-14.98-8.649L149.796,116.755l14.98,8.648,14.979,8.649-22.469,12.972,247.163,142.7L584.204,185.942l-29.959-17.297Z"/>
    <path id="Path-38" data-name="Path" class="cls-1" d="M329.551,566.475l7.49-4.324,67.408,38.918,89.878-51.891L426.918,510.26l7.49-4.324,74.898,43.242v8.649L404.449,618.366l-74.898-43.242Z"/>
    <path id="Path-39" data-name="Path" class="cls-1" d="M471.857,492.963v-8.648l7.49-4.325,67.408,38.919,37.449-21.622-59.918-34.594v-8.648l7.49-4.324,67.408,38.918,14.979-8.649,7.49,4.325v8.648l-74.898,43.242Z"/>
    <path id="Path-40" data-name="Path" class="cls-13" d="M404.449,609.717,164.776,471.342v17.297L404.449,627.014l7.49-4.324V605.393Z"/>
    <path id="Path-41" data-name="Path" class="cls-11" d="M404.449,627.014l104.857-60.539V549.178L404.449,609.717Z"/>
    <path id="Path-42" data-name="Path" class="cls-11" d="M546.755,544.854l74.898-43.242V484.315l-74.898,43.242Z"/>
    <path id="Path-43" data-name="Path" class="cls-4" d="M524.286,454.045v77.836l67.408-38.918Z"/>
    <path id="Path-44" data-name="Path" class="cls-9" d="M471.857,484.315v17.297l74.898,43.242V527.557Z"/>
    <path id="Path-45" data-name="Path" class="cls-4" d="M486.837,553.502V518.909l-14.98-8.649-3.745,32.432Z"/>
    <path id="Path-46" data-name="Path" class="cls-6" d="M528.031,547.016l52.428-30.27v-4.324l-52.428,30.27Z"/>
    <path id="Path-47" data-name="Path" class="cls-5" d="M426.918,527.557,352.02,570.799l52.429,30.27,74.898-43.242Z"/>
    <path id="Path-48" data-name="Path" class="cls-4" d="M426.918,510.26v77.836l67.409-38.918Z"/>
    <path id="Path-49" data-name="Path" class="cls-6" d="M486.837,547.016l7.49-4.324V525.395l-7.49,4.324Z"/>
    <path id="Path-50" data-name="Path" class="cls-4" d="M471.857,510.26l56.174,32.432v4.324l-56.174-23.783Z"/>
    <path id="Path-51" data-name="Path" class="cls-9" d="M426.918,510.26v17.297l52.429,30.27,14.98-8.649Z"/>
    <path id="Path-52" data-name="Path" class="cls-9" d="M524.286,454.045v17.297l52.428,30.27,14.98-8.649Z"/>
    <path id="Path-53" data-name="Path" class="cls-9" d="M426.918,544.854v17.297l22.47,12.973,14.979-8.649Z"/>
    <path id="Path-54" data-name="Path" class="cls-9" d="M426.918,579.448v8.648l7.49-4.324Z"/>
    <path id="Path-55" data-name="Path" class="cls-1" d="M471.857,510.26l52.429-30.27,56.173,32.432-52.428,30.27Z"/>
    <path id="Path-56" data-name="Path" class="cls-4" d="M134.816,116.755V99.458l37.449,21.621,7.49-4.324v17.297l-7.49,4.324Z"/>
    <path id="Path-57" data-name="Path" class="cls-14" d="M224.694,99.458l-52.429-30.27-14.979,8.648-22.47,21.622,52.429,30.269,22.469-21.621Z"/>
    <path id="Path-58" data-name="Path" class="cls-6" d="M172.265,138.376l74.898-43.243V69.188l-52.428,30.27-22.47,21.621Z"/>
    <path id="Path-59" data-name="Path" class="cls-1" d="M194.735,99.458,176.01,88.647,157.286,77.836l52.428-30.269,37.449,21.621Z"/>
    <path id="Path-60" data-name="Path" class="cls-1" d="M247.163,77.836l-44.939,25.946v8.648l52.429,30.27,52.429-30.27Z"/>
    <path id="Path-61" data-name="Path" class="cls-1" d="M501.816,69.188,479.347,82.161,367,17.297,389.469,4.325Z"/>
    <path id="Path-62" data-name="Path" class="cls-5" d="M404.449,203.239v34.594l157.286-90.809V112.43Z"/>
    <path id="Path-63" data-name="Path" class="cls-4" d="M404.449,203.239v34.594L247.163,147.024V112.43Z"/>
    <path id="Path-64" data-name="Path" class="cls-1" d="M247.163,121.079V112.43L404.449,21.621,561.735,112.43v8.649L404.449,211.888Z"/>
    <path id="Path-65" data-name="Path" class="cls-6" d="M239.673,64.864l52.429-30.27v8.649L247.163,69.188Z"/>
    <path id="Path-66" data-name="Path" class="cls-5" d="M404.449,108.106l-7.49-4.324v34.594l7.49,4.324,82.388-47.567V60.54Z"/>
    <path id="Path-67" data-name="Path" class="cls-4" d="M404.449,108.106V142.7L299.592,82.161V47.567Z"/>
    <path id="Path-68" data-name="Path" class="cls-1" d="M299.592,56.215V47.567L381.98,0,486.837,60.54v8.648l-82.388,47.567Z"/>
    <path id="Path-69" data-name="Path" class="cls-5" d="M479.347,99.458l14.98-8.649V82.161l7.489-4.324V69.188L483.092,79.999v8.648Z"/>
    <path id="Path-70" data-name="Path" class="cls-9" d="M554.245,168.645v8.649l22.469,12.973,7.49-4.325Z"/>
    <path id="Path-71" data-name="Path" class="cls-9" d="M554.245,142.7v8.648l14.979,8.649,7.49-4.324Z"/>
    <path id="Path-72" data-name="Path" class="cls-15" d="M396.959,281.076l26.214-15.135L381.98,242.157l-26.215,15.135Z"/>
    <path id="Path-73" data-name="Path" class="cls-15" d="M235.929,188.104l26.214-15.134-41.194-23.784-26.214,15.135Z"/>
    <path id="Path-74" data-name="Path" class="cls-6" d="M149.796,142.7l29.959-17.297v8.649l-22.469,12.972Z"/>
    <path id="Path-75" data-name="Path" class="cls-16" d="M396.959,272.427v4.324l18.725-10.81V252.968Z"/>
    <path id="Path-76" data-name="Path" class="cls-16" d="M235.929,179.456v4.324l18.724-10.81V159.997Z"/>
    <path id="Path-77" data-name="Path" class="cls-17" d="M449.388,250.806v4.324l-14.98-8.648v-4.514l14.98.189Z"/>
    <path id="Path-78" data-name="Path" class="cls-18" d="M363.255,252.968v4.324l33.704,19.459v-4.324Z"/>
    <path id="Path-79" data-name="Path" class="cls-18" d="M202.224,159.997v4.324l33.705,19.459v-4.324Z"/>
    <path id="Path-80" data-name="Path" class="cls-19" d="M434.408,242.157v4.325l14.98,8.648V242.157Z"/>
    <path id="Path-81" data-name="Path" class="cls-16" d="M449.388,255.13V242.157L569.224,172.97v12.972Z"/>
    <path id="Path-82" data-name="Path" class="cls-20" d="M415.684,252.968l-18.725,19.459-33.704-19.459,18.725-19.459Z"/>
    <path id="Path-83" data-name="Path" class="cls-20" d="M254.653,159.997l-18.724,19.459-33.705-19.459,18.725-19.459Z"/>
    <path id="Path-84" data-name="Path" class="cls-20" d="M449.388,242.157h-14.98L554.245,172.97h14.979Z"/>
    <path id="Path-85" data-name="Path" class="cls-1" d="M134.816,142.7l29.96-17.297,7.489,4.324-29.959,17.297Z"/>
    <path id="Path-86" data-name="Path" class="cls-4" d="M254.653,134.052v17.296l-52.429-30.269V103.782Z"/>
    <path id="Path-87" data-name="Path" class="cls-12" d="M314.571,47.567l89.878,51.891L471.857,60.54,381.98,8.649Z"/>
    <path id="Path-88" data-name="Path" class="cls-6" d="M524.286,419.451v17.297L359.51,531.881V514.584Z"/>
    <path id="Path-89" data-name="Path" class="cls-12" d="M262.143,112.43l52.428-30.269v8.648L404.449,142.7l89.878-51.891V82.161l52.428,30.269L404.449,194.591Z"/>
    <path id="Path-90" data-name="Path" class="cls-1" d="M307.082,77.836,247.163,112.43l7.49,4.325,59.918-34.594Z"/>
    <path id="Path-91" data-name="Path" class="cls-6" d="M314.571,82.161v8.648l-44.938,25.946-7.49-4.325Z"/>
    <path id="Path-92" data-name="Path" class="cls-9" d="M494.327,82.161v8.648l44.938,25.946,7.49-4.325Z"/>
    <path id="Path-93" data-name="Path" class="cls-7" d="M419.429,549.178v25.946l-29.96,17.297L367,579.448Z"/>
    <path id="Path-94" data-name="Path" class="cls-9" d="M134.816,142.7v17.297L404.449,315.669V298.373Z"/>
    <path id="Path-95" data-name="Path" class="cls-9" d="M247.163,112.43v17.297l157.286,90.809V203.239Z"/>
    <path id="Path-96" data-name="Path" class="cls-9" d="M299.592,47.567V64.864l104.857,60.539V108.106Z"/>
    <path id="Path-97" data-name="Path" class="cls-9" d="M584.204,159.997v17.297l52.429,30.27V190.267Z"/>
    <path id="Path-98" data-name="Path" class="cls-6" d="M599.184,185.942v17.297L404.449,315.669V298.373Z"/>
    <path id="Path-99" data-name="Path" class="cls-6" d="M561.735,112.43v17.297L404.449,220.536V203.239Z"/>
    <path id="Path-100" data-name="Path" class="cls-6" d="M486.837,60.54V77.836l-82.388,47.567V108.106Z"/>
    <path id="Path-101" data-name="Path" class="cls-6" d="M644.122,185.942v17.297l-7.489,4.324V190.267Z"/>
    <path id="Path-102" data-name="Path" class="cls-6" d="M644.122,255.13v17.297l-7.489,4.324V259.454Z"/>
    <path id="Path-103" data-name="Path" class="cls-6" d="M644.122,324.318v17.297l-7.489,4.324V328.642Z"/>
    <path id="Path-104" data-name="Path" class="cls-6" d="M554.245,402.154v17.297L359.51,531.881V514.584Z"/>
    <path id="Path-105" data-name="Path" class="cls-6" d="M329.551,549.178l14.98-8.648-14.98-8.649Z"/>
    <path id="Path-106" data-name="Path" class="cls-6" d="M644.122,393.506v17.297l-7.489,4.324V397.83Z"/>
    <path id="Path-107" data-name="Path" class="cls-6" d="M569.224,341.615v17.297L374.49,471.342V454.045Z"/>
    <path id="Path-108" data-name="Path" class="cls-6" d="M599.184,255.13v17.297L404.449,384.857V367.56Z"/>
    <path id="Path-109" data-name="Path" class="cls-6" d="M599.184,220.536v17.297L404.449,350.263V332.966Z"/>
    <path id="Path-110" data-name="Path" class="cls-6" d="M644.122,220.536v17.297l-7.489,4.324V224.861Z"/>
    <path id="Path-111" data-name="Path" class="cls-6" d="M644.122,289.724v17.297l-7.489,4.324V294.048Z"/>
    <path id="Path-112" data-name="Path" class="cls-6" d="M644.122,358.912v17.297l-7.489,4.324V363.236Z"/>
    <path id="Path-113" data-name="Path" class="cls-6" d="M644.122,428.1v17.297l-7.489,4.324V432.424Z"/>
    <path id="Path-114" data-name="Path" class="cls-11" d="M644.122,462.693v8.649l-7.489,4.324v-8.648Z"/>
    <path id="Path-115" data-name="Path" class="cls-6" d="M599.184,289.724v17.297L404.449,419.451V402.154Z"/>
    <path id="Path-116" data-name="Path" class="cls-9" d="M82.388,147.024v17.297l7.49,4.324V151.349Z"/>
    <path id="Path-117" data-name="Path" class="cls-9" d="M82.388,285.4v17.297l7.49,4.324V289.724Z"/>
    <path id="Path-118" data-name="Path" class="cls-9" d="M134.816,211.888v17.297L404.449,384.857V367.56Z"/>
    <path id="Path-119" data-name="Path" class="cls-9" d="M82.388,216.212v17.297l7.49,4.324V220.536Z"/>
    <path id="Path-120" data-name="Path" class="cls-9" d="M82.388,354.588v17.296l7.49,4.325V358.912Z"/>
    <path id="Path-121" data-name="Path" class="cls-9" d="M134.816,177.294v17.297L404.449,350.263V332.966Z"/>
    <path id="Path-122" data-name="Path" class="cls-9" d="M82.388,181.618v17.297l7.49,4.324V185.942Z"/>
    <path id="Path-123" data-name="Path" class="cls-9" d="M82.388,319.994v17.297l7.49,4.324V324.318Z"/>
    <path id="Path-124" data-name="Path" class="cls-9" d="M134.816,246.482v17.297L404.449,419.451V402.154Z"/>
    <path id="Path-125" data-name="Path" class="cls-9" d="M82.388,250.806v17.297l7.49,4.324V255.13Z"/>
    <path id="Path-126" data-name="Path" class="cls-9" d="M82.388,389.181v17.297l7.49,4.325V393.506Z"/>
    <path id="Path-127" data-name="Path" class="cls-13" d="M82.388,423.775v17.297l7.49,4.325V428.1Z"/>
    <path id="Path-128" data-name="Path" class="cls-9" d="M134.816,315.669v17.297L374.49,471.342V454.045Z"/>
    <path id="Path-129" data-name="Path" class="cls-9" d="M134.816,384.857v17.297L359.51,531.881V514.584Z"/>
    <path id="Path-130" data-name="Path" class="cls-9" d="M134.816,281.076v17.297L374.49,436.748V419.451Z"/>
    <path id="Path-131" data-name="Path" class="cls-9" d="M134.816,350.263V367.56L359.51,497.287V479.99Z"/>
    <path id="Path-132" data-name="Path" class="cls-9" d="M134.816,419.451v17.297l194.735,112.43V531.881Z"/>
    <path id="Path-133" data-name="Path" class="cls-13" d="M134.816,454.045v17.297l194.735,112.43V566.475Z"/>
    <path id="Path-134" data-name="Path" class="cls-13" d="M554.245,436.748l82.388,38.918v-8.648l-82.388-47.567Z"/>
    <path id="Path-135" data-name="Path" class="cls-21" d="M490.582,313.507l37.449-21.621v43.243L490.582,356.75Z"/>
    <path id="Path-136" data-name="Path" class="cls-9" d="M490.582,313.507l-3.745-2.162v43.243l3.745,2.162Z"/>
    <path id="Path-137" data-name="Path" class="cls-1" d="M528.031,291.886l-3.745-2.162-37.449,21.621,3.745,2.162Z"/>
    <path id="Path-138" data-name="Path" class="cls-7" d="M494.327,315.669l29.959-17.296v34.593l-29.959,17.297Z"/>
    <path id="Path-139" data-name="Path" class="cls-12" d="M490.582,356.75l28.086-22.703v-4.324l-28.086,22.702Z"/>
    <path id="Path-140" data-name="Path" class="cls-1" d="M528.031,330.804l-9.363-1.081v4.324l9.363,1.082Z"/>
    <path id="Path-141" data-name="Path" class="cls-22" d="M490.582,356.75l37.449-21.621-9.363-1.082Z"/>
    <g id="Group-2" data-name="Group">
      <path id="Path-142" data-name="Path" class="cls-9" d="M267.76,241.076l-26.214-15.134v34.593L267.76,275.67Z"/>
      <path id="Path-143" data-name="Path" class="cls-5" d="M267.76,241.076l3.745-2.162v34.594l-3.745,2.162Z"/>
      <path id="Path-144" data-name="Path" class="cls-1" d="M241.546,225.942l3.745-2.163,26.214,15.135-3.745,2.162Z"/>
      <path id="Path-145" data-name="Path" class="cls-23" d="M264.015,243.239l-18.724-10.811v25.945l18.724,10.811Z"/>
      <path id="Path-146" data-name="Path" class="cls-1" d="M267.76,275.67l-18.724-15.135v-4.324l18.724,15.135Z"/>
      <path id="Path-147" data-name="Path" class="cls-12" d="M241.546,256.211h7.49v4.324h-7.49Z"/>
      <path id="Path-148" data-name="Path" class="cls-24" d="M267.76,275.67l-26.214-15.135h7.49Z"/>
    </g>
    <g id="Group-3" data-name="Group">
      <path id="Path-149" data-name="Path" class="cls-9" d="M267.76,379.452l-26.214-15.135v34.594l26.214,15.135Z"/>
      <path id="Path-150" data-name="Path" class="cls-5" d="M267.76,379.452l3.745-2.162v34.594l-3.745,2.162Z"/>
      <path id="Path-151" data-name="Path" class="cls-1" d="M241.546,364.317l3.745-2.162,26.214,15.135-3.745,2.162Z"/>
      <path id="Path-152" data-name="Path" class="cls-23" d="M264.015,381.614l-18.724-10.811v25.946l18.724,10.81Z"/>
      <path id="Path-153" data-name="Path" class="cls-1" d="M267.76,414.046l-18.724-15.135v-4.324l18.724,15.135Z"/>
      <path id="Path-154" data-name="Path" class="cls-12" d="M241.546,394.587h7.49v4.324h-7.49Z"/>
      <path id="Path-155" data-name="Path" class="cls-24" d="M267.76,414.046l-26.214-15.135h7.49Z"/>
    </g>
    <g id="Group-4" data-name="Group">
      <path id="Path-156" data-name="Path" class="cls-9" d="M194.735,250.806l-22.47-12.973v25.946l22.47,12.972Z"/>
      <path id="Path-157" data-name="Path" class="cls-5" d="M194.735,250.806l3.745-2.162v25.945l-3.745,2.162Z"/>
      <path id="Path-158" data-name="Path" class="cls-1" d="M172.265,237.833l3.745-2.162,22.47,12.973-3.745,2.162Z"/>
      <path id="Path-159" data-name="Path" class="cls-23" d="M190.99,252.968l-14.98-8.648v17.297l14.98,8.648Z"/>
      <path id="Path-160" data-name="Path" class="cls-1" d="M194.735,276.751l-16.852-14.053v-4.325l16.852,14.054Z"/>
      <path id="Path-161" data-name="Path" class="cls-12" d="M172.265,259.454l5.618-1.081v4.325l-5.618,1.081Z"/>
      <path id="Path-162" data-name="Path" class="cls-24" d="M194.735,276.751l-22.47-12.972,5.618-1.081Z"/>
    </g>
    <g id="Group-5" data-name="Group">
      <path id="Path-163" data-name="Path" class="cls-9" d="M278.995,455.126l-22.469-12.973v25.946l22.469,12.972Z"/>
      <path id="Path-164" data-name="Path" class="cls-5" d="M278.995,455.126l3.745-2.162v25.945l-3.745,2.162Z"/>
      <path id="Path-165" data-name="Path" class="cls-1" d="M256.526,442.153l3.744-2.162,22.47,12.973-3.745,2.162Z"/>
      <path id="Path-166" data-name="Path" class="cls-23" d="M275.25,457.288l-14.98-8.648v17.297l14.98,8.648Z"/>
      <path id="Path-167" data-name="Path" class="cls-1" d="M278.995,481.071l-16.852-14.053v-4.325l16.852,14.054Z"/>
      <path id="Path-168" data-name="Path" class="cls-12" d="M256.526,463.775l5.617-1.082v4.325l-5.617,1.081Z"/>
      <path id="Path-169" data-name="Path" class="cls-24" d="M278.995,481.071l-22.469-12.972,5.617-1.081Z"/>
    </g>
    <g id="Group-6" data-name="Group">
      <path id="Path-170" data-name="Path" class="cls-9" d="M365.128,349.182l-22.47-12.972v25.945l22.47,12.973Z"/>
      <path id="Path-171" data-name="Path" class="cls-5" d="M365.128,349.182l3.744-2.162v25.946l-3.744,2.162Z"/>
      <path id="Path-172" data-name="Path" class="cls-1" d="M342.658,336.21l3.745-2.163,22.469,12.973-3.744,2.162Z"/>
      <path id="Path-173" data-name="Path" class="cls-23" d="M361.383,351.344l-14.98-8.648v17.297l14.98,8.648Z"/>
      <path id="Path-174" data-name="Path" class="cls-1" d="M365.128,375.128l-16.852-14.054V356.75l16.852,14.053Z"/>
      <path id="Path-175" data-name="Path" class="cls-12" d="M342.658,357.831l5.618-1.081v4.324l-5.618,1.081Z"/>
      <path id="Path-176" data-name="Path" class="cls-24" d="M365.128,375.128l-22.47-12.973,5.618-1.081Z"/>
    </g>
    <g id="Group-7" data-name="Group">
      <path id="Path-177" data-name="Path" class="cls-9" d="M194.735,302.697l-22.47-12.973v25.945l22.47,12.973Z"/>
      <path id="Path-178" data-name="Path" class="cls-5" d="M194.735,302.697l3.745-2.162V326.48l-3.745,2.162Z"/>
      <path id="Path-179" data-name="Path" class="cls-1" d="M172.265,289.724l3.745-2.162,22.47,12.973-3.745,2.162Z"/>
      <path id="Path-180" data-name="Path" class="cls-23" d="M190.99,304.859l-14.98-8.649v17.297l14.98,8.649Z"/>
      <path id="Path-181" data-name="Path" class="cls-1" d="M194.735,328.642l-16.852-14.054v-4.324l16.852,14.054Z"/>
      <path id="Path-182" data-name="Path" class="cls-12" d="M172.265,311.345l5.618-1.081v4.324l-5.618,1.081Z"/>
      <path id="Path-183" data-name="Path" class="cls-24" d="M194.735,328.642l-22.47-12.973,5.618-1.081Z"/>
    </g>
    <g id="Group-8" data-name="Group">
      <path id="Path-184" data-name="Path" class="cls-2" d="M172.265,458.369l37.449,21.621v43.243l-37.449-21.621Z"/>
      <path id="Path-185" data-name="Path" class="cls-5" d="M172.265,492.963l29.959-17.297-29.959-17.297Z"/>
      <path id="Path-186" data-name="Path" class="cls-11" d="M172.265,475.666l14.98-8.648,14.979,8.648-29.959,17.297Z"/>
    </g>
    <path id="Path-187" data-name="Path" class="cls-6" d="M142.306,121.079v17.297L89.878,168.645V151.348Z"/>
    <path id="Path-188" data-name="Path" class="cls-25" d="M363.255,252.968l11.235,6.486,18.724-19.459-11.234-6.486Z"/>
    <path id="Path-189" data-name="Path" class="cls-25" d="M202.224,159.997l11.235,6.486,18.725-19.459-11.235-6.486Z"/>
    <path id="Path-190" data-name="Path" class="cls-25" d="M385.724,265.941l11.235,6.486,18.725-19.459-11.235-6.486Z"/>
    <path id="Path-191" data-name="Path" class="cls-25" d="M224.694,172.97l11.235,6.486,18.724-19.459-11.235-6.486Z"/>
    <path id="Path-192" data-name="Path" class="cls-19" d="M385.724,265.941v4.324l11.235,6.486v-4.324Z"/>
    <path id="Path-193" data-name="Path" class="cls-19" d="M224.694,172.97v4.324l11.235,6.486v-4.324Z"/>
    <path id="Path-194" data-name="Path" class="cls-19" d="M363.255,252.968v4.324l11.235,6.487v-4.325Z"/>
    <path id="Path-195" data-name="Path" class="cls-19" d="M202.224,159.997v4.324l11.235,6.487v-4.325Z"/>
    <path id="Path-196" data-name="Path" class="cls-26" d="M456.878,237.833v12.973l-7.49,4.324V242.157Z"/>
    <path id="Path-197" data-name="Path" class="cls-26" d="M486.837,220.536v12.973l-7.49,4.324V224.861Z"/>
    <path id="Path-198" data-name="Path" class="cls-26" d="M516.796,203.239v12.973l-7.49,4.324V207.564Z"/>
    <path id="Path-199" data-name="Path" class="cls-26" d="M546.755,185.942v12.973l-7.49,4.324V190.267Z"/>
    <path id="Path-200" data-name="Path" class="cls-26" d="M471.857,229.185v12.972l-7.49,4.325V233.509Z"/>
    <path id="Path-201" data-name="Path" class="cls-26" d="M501.816,211.888v12.973l-7.489,4.324V216.212Z"/>
    <path id="Path-202" data-name="Path" class="cls-26" d="M531.776,194.591v12.973l-7.49,4.324V198.915Z"/>
    <path id="Path-203" data-name="Path" class="cls-26" d="M561.735,177.294v12.973l-7.49,4.324V181.618Z"/>
    <path id="Path-204" data-name="Path" class="cls-25" d="M434.408,242.157l7.49-4.324h14.98l-7.49,4.324Z"/>
    <path id="Path-205" data-name="Path" class="cls-25" d="M464.367,224.861l7.49-4.325h14.98l-7.49,4.325Z"/>
    <path id="Path-206" data-name="Path" class="cls-25" d="M494.327,207.564l7.489-4.325h14.98l-7.49,4.325Z"/>
    <path id="Path-207" data-name="Path" class="cls-25" d="M524.286,190.267l7.49-4.325h14.979l-7.49,4.325Z"/>
    <path id="Path-208" data-name="Path" class="cls-25" d="M449.388,233.509l7.49-4.324h14.979l-7.49,4.324Z"/>
    <path id="Path-209" data-name="Path" class="cls-25" d="M479.347,216.212l7.49-4.324h14.979l-7.489,4.324Z"/>
    <path id="Path-210" data-name="Path" class="cls-25" d="M509.306,198.915l7.49-4.324h14.98l-7.49,4.324Z"/>
    <path id="Path-211" data-name="Path" class="cls-25" d="M539.265,181.618l7.49-4.324h14.98l-7.49,4.324Z"/>
    <path id="Path-212" data-name="Path" class="cls-9" d="M292.102,34.594v8.649l7.49,4.324,7.49-4.324Z"/>
    <path id="Path-213" data-name="Path" class="cls-27" d="M292.102,155.673l14.98,8.648v17.297l-14.98-8.648Z"/>
    <path id="Path-214" data-name="Path" class="cls-27" d="M381.98,112.43l7.489,4.325v17.297l-7.489-4.325Z"/>
    <path id="Path-215" data-name="Path" class="cls-27" d="M374.49,203.239l14.979,8.649v17.297l-14.979-8.649Z"/>
    <path id="Path-216" data-name="Path" class="cls-27" d="M434.408,203.239l-14.979,8.649v17.297l14.979-8.649Z"/>
    <path id="Path-217" data-name="Path" class="cls-28" d="M292.102,155.673l7.49,4.324v17.297l-7.49-4.324Z"/>
    <path id="Path-218" data-name="Path" class="cls-28" d="M374.49,203.239l7.49,4.325v17.297l-7.49-4.325Z"/>
    <path id="Path-219" data-name="Path" class="cls-28" d="M434.408,203.239l-7.49,4.325v17.297l7.49-4.325Z"/>
    <path id="Path-220" data-name="Path" class="cls-29" d="M464.367,505.936V488.639l-11.234,6.486v17.297Z"/>
    <path id="Path-221" data-name="Path" class="cls-29" d="M408.194,581.61V555.665l-11.235,6.486v25.945Z"/>
    <path id="Path-222" data-name="Path" class="cls-29" d="M385.724,590.258V568.637l-11.234,6.487v8.648Z"/>
    <path id="Path-223" data-name="Path" class="cls-29" d="M509.306,479.99V462.693l-11.235,6.487v17.297Z"/>
    <path id="Path-224" data-name="Path" class="cls-30" d="M209.714,56.215l-14.979,8.649,7.489,4.324,14.98-8.648Z"/>
    <path id="Path-225" data-name="Path" class="cls-29" d="M363.255,564.313V547.016l-3.745,2.162-7.49-4.324v25.945Z"/>
    <path id="Path-226" data-name="Path" class="cls-29" d="M408.194,538.368V521.071l-11.235,6.486v17.297Z"/>
    <path id="Path-227" data-name="Path" class="cls-30" d="M381.98,17.297,367,25.946l7.49,4.324,14.979-8.649Z"/>
    <path id="Path-228" data-name="Path" class="cls-31" d="M404.449,151.348,367,172.97l37.449,21.621,37.449-21.621Z"/>
    <path id="Path-229" data-name="Path" class="cls-29" d="M426.918,527.557V510.26l7.49-4.324h0l-14.979,8.648v17.297Z"/>
    <path id="Path-230" data-name="Path" class="cls-29" d="M479.347,479.99l-7.49,4.325h0l14.98-8.649v8.649Z"/>
    <path id="Path-231" data-name="Path" class="cls-29" d="M385.724,551.34V534.043L374.49,540.53v17.297Z"/>
    <path id="Path-232" data-name="Path" class="cls-32" d="M404.449,151.348v43.243L367,172.97Z"/>
    <path id="Path-233" data-name="Path" class="cls-33" d="M374.49,159.997,404.449,142.7l22.469,12.973L396.959,172.97Z"/>
    <path id="Path-234" data-name="Path" class="cls-34" d="M374.49,159.997v17.297l22.469,12.973V172.97Z"/>
    <path id="Path-235" data-name="Path" class="cls-35" d="M426.918,155.673v25.945l-22.469,12.973-7.49-4.324V172.97Z"/>
    <path id="Path-236" data-name="Path" class="cls-36" d="M381.98,159.997l11.234-6.486,14.98,8.648-11.235,6.486Z"/>
    <path id="Path-237" data-name="Path" class="cls-36" d="M404.449,147.024l-7.49,4.324,14.98,8.649,7.49-4.324Z"/>
    <path id="Path-238" data-name="Path" class="cls-33" d="M408.194,170.808l3.745,2.162,7.49-4.325-3.745-2.162Z"/>
    <path id="Path-239" data-name="Path" class="cls-34" d="M408.194,192.429l3.745-2.162V172.97l-3.745-2.162Z"/>
    <path id="Path-240" data-name="Path" class="cls-35" d="M419.429,168.645v17.297l-7.49,4.325V172.97Z"/>
    <path id="Path-241" data-name="Path" class="cls-1" d="M584.204,159.997,554.245,142.7l7.49-4.324,29.959,17.297Z"/>
    <path id="Path-242" data-name="Path" class="cls-6" d="M419.429,549.178l7.489-4.324v17.297l-7.489,4.324Z"/>
    <path id="Path-243" data-name="Path" class="cls-6" d="M426.918,579.448l-29.959,17.297,7.49,4.324,22.469-12.973Z"/>
    <path id="Path-244" data-name="Path" class="cls-6" d="M374.49,436.748l14.979-8.648-14.979-8.649Z"/>
    <path id="Path-245" data-name="Path" class="cls-6" d="M359.51,497.287l14.98-8.648-14.98-8.649Z"/>
    <path id="Path-246" data-name="Path" class="cls-37" d="M0,445.397v8.648L404.449,687.554v-8.649Z"/>
    <path id="Path-247" data-name="Path" class="cls-21" d="M734,488.639v8.648L404.449,687.554v-8.649Z"/>
    <path id="Path-248" data-name="Path" class="cls-6" d="M337.041,562.151l14.979-8.649v17.297Z"/>
    <path id="Path-249" data-name="Path" class="cls-6" d="M509.306,479.99V462.693l14.98-8.648v17.297Z"/>
  </g>
</svg>
