<svg id="Layer_1" data-name="Layer 1" xmlns="http://www.w3.org/2000/svg" viewBox="0 0 514.684 554.686">
  <defs>
    <style>
      .cls-1 {
        fill: #e8e8e8;
      }

      .cls-2 {
        fill: #d1d1d1;
      }

      .cls-3 {
        fill: #b2b2b2;
      }

      .cls-4 {
        fill: #6a6a6a;
      }

      .cls-5 {
        fill: #e1e1e3;
      }

      .cls-6 {
        fill: #f4f4f4;
      }

      .cls-7 {
        fill: #848484;
      }

      .cls-8 {
        fill: #646363;
      }

      .cls-9 {
        fill: #4a4a4a;
      }

      .cls-10 {
        fill: #b9b9b9;
      }

      .cls-11 {
        fill: #464646;
      }

      .cls-12 {
        fill: #dddbdb;
      }

      .cls-13 {
        fill: #171717;
      }

      .cls-14 {
        fill: #2e2e2e;
      }

      .cls-15 {
        fill: #515151;
      }

      .cls-16 {
        fill: #373737;
      }

      .cls-17 {
        fill: #fff;
      }

      .cls-18 {
        fill: #c4c4c8;
      }

      .cls-19 {
        fill: #f9f1da;
      }

      .cls-20 {
        fill: red;
      }

      .cls-21 {
        fill: #ffd200;
      }

      .cls-22 {
        fill: blue;
      }

      .cls-23 {
        fill: #f0e4be;
      }
    </style>
  </defs>
  <title>1Artboard 3</title>
  <g>
    <g id="Path">
      <path class="cls-1" d="M0,390.262,284.792,554.686,514.684,421.958v-3.962L229.892,253.571,0,386.299Z"/>
    </g>
    <g id="Path-2" data-name="Path">
      <path class="cls-2" d="M284.792,550.724v3.962L514.684,421.958v-3.962Z"/>
    </g>
    <g id="Path-3" data-name="Path">
      <path class="cls-3" d="M284.792,550.724v3.962L0,390.262V386.3Z"/>
    </g>
    <g id="Path-4" data-name="Path">
      <path class="cls-4" d="M449.491,126.786,229.892,0,65.193,95.089,284.792,221.875Z"/>
    </g>
    <g id="Path-5" data-name="Path">
      <path class="cls-5" d="M65.193,95.089,284.792,221.875v253.57L65.193,348.66Z"/>
    </g>
    <g id="Path-6" data-name="Path">
      <path class="cls-6" d="M449.491,126.786,284.792,221.875v253.57l164.699-95.089Z"/>
    </g>
    <g id="Path-7" data-name="Path">
      <path class="cls-7" d="M284.792,475.445l164.699-95.089v39.621L284.792,515.066Z"/>
    </g>
    <g id="Path-8" data-name="Path">
      <path class="cls-8" d="M65.193,348.66v39.621L284.792,515.066V475.445Z"/>
    </g>
    <g id="Path-9" data-name="Path">
      <path class="cls-9" d="M78.918,95.089,284.792,213.951l150.974-87.165L229.892,7.924Z"/>
    </g>
    <g id="Path-10" data-name="Path">
      <path class="cls-5" d="M229.892,7.924V23.773L422.041,134.71l13.725-7.924Z"/>
    </g>
    <g id="Path-11" data-name="Path">
      <path class="cls-6" d="M78.918,95.089,229.892,7.924V23.773L92.643,103.013Z"/>
    </g>
    <g id="Path-12" data-name="Path">
      <path class="cls-6" d="M346.554,122.824v39.62l48.037-27.734V95.089Z"/>
    </g>
    <g id="Path-13" data-name="Path">
      <path class="cls-5" d="M346.554,162.444l-6.863-3.962v-7.924l-6.862-3.962-6.863,3.962-6.862-3.962V114.9l27.45,15.848Z"/>
    </g>
    <g id="Path-14" data-name="Path">
      <path d="M339.691,142.634l-6.862-3.962v7.924l6.862,3.962Z"/>
    </g>
    <g id="Path-15" data-name="Path">
      <path class="cls-5" d="M209.305,43.583v7.924l123.524,71.317V114.9Z"/>
    </g>
    <g id="Path-16" data-name="Path">
      <path class="cls-5" d="M236.754,114.9l-20.587-11.887V63.393l20.587,11.886Z"/>
    </g>
    <g id="Path-17" data-name="Path">
      <path class="cls-5" d="M195.58,83.203v7.924l27.449,15.849V99.051Z"/>
    </g>
    <g id="Path-18" data-name="Path">
      <path class="cls-4" d="M216.167,79.241l-6.862-3.962L195.58,83.203l20.587,11.886Z"/>
    </g>
    <g id="Path-19" data-name="Path">
      <path class="cls-4" d="M229.892,55.469l-13.725,7.924,20.587,11.886,13.725-7.924,75.185,43.408-13.423,8.099,20.588,11.886,13.725-7.924,48.037-27.735L257.342,15.849,209.305,43.583Z"/>
    </g>
    <g id="Path-20" data-name="Path">
      <path class="cls-6" d="M250.479,67.355l-13.725,7.924V114.9l20.588-11.886V79.241l-6.863-3.962Z"/>
    </g>
    <g id="Path-21" data-name="Path">
      <path class="cls-6" d="M332.829,146.596l-6.863,3.962V134.71l6.863,3.962Z"/>
    </g>
    <g id="Path-22" data-name="Path">
      <path class="cls-6" d="M346.554,122.824l-13.725,7.924v7.924l13.725-7.924Z"/>
    </g>
    <g id="Path-23" data-name="Path">
      <path class="cls-10" d="M312.241,126.786l20.588,11.886v-7.924l-20.588-11.886Z"/>
    </g>
    <g id="Path-24" data-name="Path">
      <path class="cls-11" d="M353.416,206.027l27.45-15.849V396.205l-27.45,15.848Z"/>
    </g>
    <g id="Path-25" data-name="Path">
      <path class="cls-12" d="M353.416,206.027v-7.925l27.45-15.848v7.924Z"/>
    </g>
    <g id="Path-26" data-name="Path">
      <path class="cls-12" d="M353.416,419.977v-7.924l27.45-15.848v7.924Z"/>
    </g>
    <g id="Group">
      <g id="Path-27" data-name="Path">
        <path class="cls-11" d="M295.085,477.426l20.588-11.886v23.773l-20.588,11.886Z"/>
      </g>
      <g id="Path-28" data-name="Path">
        <path class="cls-10" d="M295.085,493.275l13.725-7.924,6.863,3.962-20.588,11.886Z"/>
      </g>
      <g id="Path-29" data-name="Path">
        <path class="cls-8" d="M308.81,485.351l6.863,3.962V465.54l-6.863,3.962Z"/>
      </g>
    </g>
    <g id="Group-2" data-name="Group">
      <g id="Path-30" data-name="Path">
        <path class="cls-13" d="M277.929,479.407l-20.587-11.886v23.773l20.587,11.886Z"/>
      </g>
      <g id="Path-31" data-name="Path">
        <path class="cls-10" d="M277.929,495.256l-13.725-7.924-6.862,3.962,20.587,11.886Z"/>
      </g>
      <g id="Path-32" data-name="Path">
        <path class="cls-7" d="M264.204,487.332l-6.862,3.962V467.521l6.862,3.962Z"/>
      </g>
    </g>
    <g id="Group-3" data-name="Group">
      <g id="Path-33" data-name="Path">
        <path class="cls-11" d="M325.966,459.597l20.588-11.886v23.772l-20.588,11.886Z"/>
      </g>
      <g id="Path-34" data-name="Path">
        <path class="cls-10" d="M325.966,475.445l13.725-7.924,6.863,3.962-20.588,11.886Z"/>
      </g>
      <g id="Path-35" data-name="Path">
        <path class="cls-8" d="M339.691,467.521l6.863,3.962V447.711l-6.863,3.962Z"/>
      </g>
    </g>
    <g id="Group-4" data-name="Group">
      <g id="Path-36" data-name="Path">
        <path class="cls-13" d="M247.048,461.578l-20.587-11.886v23.772l20.587,11.887Z"/>
      </g>
      <g id="Path-37" data-name="Path">
        <path class="cls-10" d="M247.048,477.426l-13.725-7.924-6.862,3.962,20.587,11.887Z"/>
      </g>
      <g id="Path-38" data-name="Path">
        <path class="cls-7" d="M233.323,469.502l-6.862,3.962V449.692l6.862,3.962Z"/>
      </g>
    </g>
    <g id="Group-5" data-name="Group">
      <g id="Path-39" data-name="Path">
        <path class="cls-13" d="M185.286,425.92l-20.587-11.886v23.772l20.587,11.886Z"/>
      </g>
      <g id="Path-40" data-name="Path">
        <path class="cls-10" d="M185.286,441.768l-13.725-7.924-6.862,3.962,20.587,11.886Z"/>
      </g>
      <g id="Path-41" data-name="Path">
        <path class="cls-7" d="M171.561,433.844l-6.862,3.962V414.034l6.862,3.962Z"/>
      </g>
    </g>
    <g id="Group-6" data-name="Group">
      <g id="Path-42" data-name="Path">
        <path class="cls-13" d="M123.524,390.262l-20.588-11.887v23.773l20.588,11.886Z"/>
      </g>
      <g id="Path-43" data-name="Path">
        <path class="cls-10" d="M123.524,406.11l-13.725-7.924-6.863,3.962,20.588,11.886Z"/>
      </g>
      <g id="Path-44" data-name="Path">
        <path class="cls-7" d="M109.799,398.186l-6.863,3.962V378.375l6.863,3.962Z"/>
      </g>
    </g>
    <g id="Group-7" data-name="Group">
      <g id="Path-45" data-name="Path">
        <path class="cls-13" d="M216.167,443.749,195.58,431.863v23.772l20.587,11.886Z"/>
      </g>
      <g id="Path-46" data-name="Path">
        <path class="cls-10" d="M216.167,459.597l-13.725-7.924-6.862,3.962,20.587,11.886Z"/>
      </g>
      <g id="Path-47" data-name="Path">
        <path class="cls-7" d="M202.442,451.673l-6.862,3.962V431.863l6.862,3.962Z"/>
      </g>
    </g>
    <g id="Group-8" data-name="Group">
      <g id="Path-48" data-name="Path">
        <path class="cls-13" d="M154.405,408.091l-20.587-11.886v23.772l20.587,11.886Z"/>
      </g>
      <g id="Path-49" data-name="Path">
        <path class="cls-10" d="M154.405,423.939l-13.725-7.924-6.862,3.962,20.587,11.886Z"/>
      </g>
      <g id="Path-50" data-name="Path">
        <path class="cls-7" d="M140.68,416.015l-6.862,3.962V396.205l6.862,3.962Z"/>
      </g>
    </g>
    <g id="Group-9" data-name="Group">
      <g id="Path-51" data-name="Path">
        <path class="cls-13" d="M92.643,372.432,72.055,360.546v23.772l20.588,11.887Z"/>
      </g>
      <g id="Path-52" data-name="Path">
        <path class="cls-10" d="M92.643,388.281l-13.725-7.925-6.863,3.962,20.588,11.887Z"/>
      </g>
      <g id="Path-53" data-name="Path">
        <path class="cls-7" d="M78.918,380.356l-6.863,3.962V360.546l6.863,3.962Z"/>
      </g>
    </g>
    <g id="Group-10" data-name="Group">
      <g id="Path-54" data-name="Path">
        <path class="cls-11" d="M387.728,423.939l20.588-11.886v23.772l-20.588,11.886Z"/>
      </g>
      <g id="Path-55" data-name="Path">
        <path class="cls-10" d="M387.728,439.787l13.725-7.924,6.863,3.962-20.588,11.886Z"/>
      </g>
      <g id="Path-56" data-name="Path">
        <path class="cls-8" d="M401.453,431.863l6.863,3.962V412.053l-6.863,3.962Z"/>
      </g>
    </g>
    <g id="Group-11" data-name="Group">
      <g id="Path-57" data-name="Path">
        <path class="cls-11" d="M356.847,441.768l20.588-11.886v27.734l-20.588,11.886Z"/>
      </g>
      <g id="Path-58" data-name="Path">
        <path class="cls-1" d="M356.847,465.54l13.725-7.924,6.863,3.962-20.588,11.886Z"/>
      </g>
      <g id="Path-59" data-name="Path">
        <path class="cls-8" d="M370.572,457.616l6.863,3.962V429.882l-6.863,3.962Z"/>
      </g>
    </g>
    <g id="Group-12" data-name="Group">
      <g id="Path-60" data-name="Path">
        <path class="cls-11" d="M418.61,406.11l20.587-11.886v23.772L418.61,429.882Z"/>
      </g>
      <g id="Path-61" data-name="Path">
        <path class="cls-10" d="M418.61,421.958l13.724-7.924,6.863,3.962L418.61,429.882Z"/>
      </g>
      <g id="Path-62" data-name="Path">
        <path class="cls-8" d="M432.334,414.034l6.863,3.962V394.224l-6.863,3.962Z"/>
      </g>
    </g>
    <g id="Path-63" data-name="Path">
      <path class="cls-13" d="M229.892,206.027l41.175,23.772v47.544l-13.725-7.924V253.571l-27.45-15.848Z"/>
    </g>
    <g id="Path-64" data-name="Path">
      <path class="cls-13" d="M178.424,176.311l41.174,23.773v47.544l-13.725-7.924V223.856l-27.449-15.848Z"/>
    </g>
    <g id="Path-65" data-name="Path">
      <path class="cls-13" d="M178.424,239.704l41.174,23.772v47.545l-13.725-7.924V287.248L178.424,271.4Z"/>
    </g>
    <g id="Path-66" data-name="Path">
      <path class="cls-13" d="M178.424,303.097l41.174,23.772v47.544l-13.725-7.924V350.641l-27.449-15.848Z"/>
    </g>
    <g id="Path-67" data-name="Path">
      <path class="cls-13" d="M126.955,146.596l41.175,23.772v47.545l-13.725-7.924V194.14l-27.45-15.848Z"/>
    </g>
    <g id="Path-68" data-name="Path">
      <path class="cls-13" d="M126.955,209.989l41.175,23.772v47.544l-13.725-7.924V257.533l-27.45-15.848Z"/>
    </g>
    <g id="Path-69" data-name="Path">
      <path class="cls-13" d="M126.955,273.381l41.175,23.773v47.544l-13.725-7.924V320.926l-27.45-15.848Z"/>
    </g>
    <g id="Path-70" data-name="Path">
      <path class="cls-13" d="M75.487,116.881l41.174,23.772v47.544l-13.725-7.924V164.425L75.487,148.577Z"/>
    </g>
    <g id="Path-71" data-name="Path">
      <path class="cls-13" d="M75.487,180.273l41.174,23.773V251.59l-13.725-7.924V227.818L75.487,211.97Z"/>
    </g>
    <g id="Path-72" data-name="Path">
      <path class="cls-13" d="M75.487,243.666l41.174,23.772v47.545l-13.725-7.924V291.21L75.487,275.362Z"/>
    </g>
    <g id="Path-73" data-name="Path">
      <path class="cls-13" d="M229.892,269.419l41.175,23.772v47.545l-13.725-7.924V316.964l-27.45-15.848Z"/>
    </g>
    <g id="Path-74" data-name="Path">
      <path class="cls-13" d="M229.892,332.812l41.175,23.772v47.545l-13.725-7.924V380.356l-27.45-15.848Z"/>
    </g>
    <g id="Path-75" data-name="Path">
      <path class="cls-13" d="M229.892,396.205l41.175,23.772v31.696l-41.175-23.772Z"/>
    </g>
    <g id="Path-76" data-name="Path">
      <path class="cls-13" d="M178.424,366.489l41.174,23.773v31.696l-41.174-23.772Z"/>
    </g>
    <g id="Path-77" data-name="Path">
      <path class="cls-13" d="M126.955,336.774l41.175,23.772v31.697L126.955,368.47Z"/>
    </g>
    <g id="Path-78" data-name="Path">
      <path class="cls-13" d="M102.936,322.907l13.725,7.924v31.696l-13.725-7.924Z"/>
    </g>
    <g id="Path-79" data-name="Path">
      <path class="cls-14" d="M229.892,206.027v7.924l41.175,23.772v-7.924Z"/>
    </g>
    <g id="Path-80" data-name="Path">
      <path class="cls-15" d="M380.866,190.178v7.925l-27.45,15.848v-7.924Z"/>
    </g>
    <g id="Path-81" data-name="Path">
      <path class="cls-14" d="M229.892,269.419v7.924l41.175,23.773v-7.925Z"/>
    </g>
    <g id="Path-82" data-name="Path">
      <path class="cls-14" d="M229.892,332.812v7.924l41.175,23.772v-7.924Z"/>
    </g>
    <g id="Path-83" data-name="Path">
      <path class="cls-14" d="M229.892,396.205v7.924l41.175,23.772v-7.924Z"/>
    </g>
    <g id="Path-84" data-name="Path">
      <path class="cls-14" d="M178.424,366.489v7.924l41.174,23.773v-7.924Z"/>
    </g>
    <g id="Path-85" data-name="Path">
      <path class="cls-14" d="M126.955,336.774v7.924L168.13,368.47v-7.924Z"/>
    </g>
    <g id="Path-86" data-name="Path">
      <path class="cls-14" d="M102.936,322.907v7.924l13.725,7.924v-7.924Z"/>
    </g>
    <g id="Path-87" data-name="Path">
      <path class="cls-14" d="M229.892,229.799l27.45,15.848v7.924l-27.45-15.848Z"/>
    </g>
    <g id="Path-88" data-name="Path">
      <path class="cls-15" d="M353.416,229.799l27.45-15.848v7.924l-27.45,15.848Z"/>
    </g>
    <g id="Path-89" data-name="Path">
      <path class="cls-15" d="M353.416,253.571l27.45-15.848v7.924l-27.45,15.848Z"/>
    </g>
    <g id="Path-90" data-name="Path">
      <path class="cls-15" d="M353.416,277.343l27.45-15.848v7.924l-27.45,15.848Z"/>
    </g>
    <g id="Path-91" data-name="Path">
      <path class="cls-15" d="M353.416,301.116l27.45-15.849v7.925l-27.45,15.848Z"/>
    </g>
    <g id="Path-92" data-name="Path">
      <path class="cls-15" d="M353.416,324.888l27.45-15.848v7.924l-27.45,15.848Z"/>
    </g>
    <g id="Path-93" data-name="Path">
      <path class="cls-15" d="M353.416,348.66l27.45-15.848v7.924l-27.45,15.848Z"/>
    </g>
    <g id="Path-94" data-name="Path">
      <path class="cls-15" d="M353.416,371.964l27.45-15.848v7.924l-27.45,15.848Z"/>
    </g>
    <g id="Path-95" data-name="Path">
      <path class="cls-15" d="M353.416,396.205l27.45-15.849v7.925l-27.45,15.848Z"/>
    </g>
    <g id="Path-96" data-name="Path">
      <path class="cls-14" d="M229.892,293.191l27.45,15.849v7.924l-27.45-15.848Z"/>
    </g>
    <g id="Path-97" data-name="Path">
      <path class="cls-14" d="M229.892,356.584l27.45,15.848v7.924l-27.45-15.848Z"/>
    </g>
    <g id="Path-98" data-name="Path">
      <path class="cls-14" d="M229.892,419.977l41.175,23.772v7.924l-41.175-23.772Z"/>
    </g>
    <g id="Path-99" data-name="Path">
      <path class="cls-14" d="M178.424,390.262l41.174,23.772v7.924l-41.174-23.772Z"/>
    </g>
    <g id="Path-100" data-name="Path">
      <path class="cls-14" d="M126.955,360.546l41.175,23.772v7.925L126.955,368.47Z"/>
    </g>
    <g id="Path-101" data-name="Path">
      <path class="cls-14" d="M102.936,346.679l13.725,7.924v7.924l-13.725-7.924Z"/>
    </g>
    <g id="Path-102" data-name="Path">
      <path class="cls-14" d="M257.342,261.495l13.725,7.924v7.924l-13.725-7.924Z"/>
    </g>
    <g id="Path-103" data-name="Path">
      <path class="cls-14" d="M257.342,324.888l13.725,7.924v7.924l-13.725-7.924Z"/>
    </g>
    <g id="Path-104" data-name="Path">
      <path class="cls-14" d="M257.342,388.28l13.725,7.925v7.924l-13.725-7.924Z"/>
    </g>
    <g id="Path-105" data-name="Path">
      <path d="M257.342,245.647V229.799l-13.725-7.924v15.848Z"/>
    </g>
    <g id="Path-106" data-name="Path">
      <path class="cls-16" d="M367.141,221.875V206.027l13.725-7.924v15.848Z"/>
    </g>
    <g id="Path-107" data-name="Path">
      <path class="cls-16" d="M367.141,245.647V229.799l13.725-7.924v15.848Z"/>
    </g>
    <g id="Path-108" data-name="Path">
      <path class="cls-16" d="M367.141,269.419V253.571l13.725-7.924v15.848Z"/>
    </g>
    <g id="Path-109" data-name="Path">
      <path class="cls-16" d="M367.141,293.192V277.343l13.725-7.924v15.848Z"/>
    </g>
    <g id="Path-110" data-name="Path">
      <path class="cls-16" d="M367.141,316.964V301.116l13.725-7.925V309.04Z"/>
    </g>
    <g id="Path-111" data-name="Path">
      <path class="cls-16" d="M367.141,340.736V324.888l13.725-7.924v15.848Z"/>
    </g>
    <g id="Path-112" data-name="Path">
      <path class="cls-16" d="M367.141,364.04V348.192l13.725-7.924v15.848Z"/>
    </g>
    <g id="Path-113" data-name="Path">
      <path class="cls-16" d="M367.141,388.281V372.432l13.725-7.924v15.848Z"/>
    </g>
    <g id="Path-114" data-name="Path">
      <path d="M257.342,309.04V293.191l-13.725-7.924v15.849Z"/>
    </g>
    <g id="Path-115" data-name="Path">
      <path d="M257.342,372.432V356.584l-13.725-7.924v15.848Z"/>
    </g>
    <g id="Path-116" data-name="Path">
      <path d="M257.342,435.825V419.977l-13.725-7.924v15.848Z"/>
    </g>
    <g id="Path-117" data-name="Path">
      <path d="M205.873,406.11V390.262l-13.725-7.925v15.849Z"/>
    </g>
    <g id="Path-118" data-name="Path">
      <path d="M154.405,376.394V360.546l-13.725-7.924V368.47Z"/>
    </g>
    <g id="Path-119" data-name="Path">
      <path class="cls-14" d="M178.424,176.311v7.924l41.174,23.773v-7.924Z"/>
    </g>
    <g id="Path-120" data-name="Path">
      <path class="cls-14" d="M178.424,239.704v7.924L219.598,271.4v-7.924Z"/>
    </g>
    <g id="Path-121" data-name="Path">
      <path class="cls-14" d="M178.424,303.097v7.924l41.174,23.772v-7.924Z"/>
    </g>
    <g id="Path-122" data-name="Path">
      <path class="cls-14" d="M126.955,146.596v7.924l41.175,23.772v-7.924Z"/>
    </g>
    <g id="Path-123" data-name="Path">
      <path class="cls-14" d="M126.955,209.989v7.924l41.175,23.772v-7.924Z"/>
    </g>
    <g id="Path-124" data-name="Path">
      <path class="cls-14" d="M126.955,273.381v7.924l41.175,23.773v-7.924Z"/>
    </g>
    <g id="Path-125" data-name="Path">
      <path class="cls-14" d="M75.487,116.881v7.924l41.174,23.772v-7.924Z"/>
    </g>
    <g id="Path-126" data-name="Path">
      <path class="cls-14" d="M75.487,180.273v7.924l41.174,23.773v-7.924Z"/>
    </g>
    <g id="Path-127" data-name="Path">
      <path class="cls-14" d="M75.487,243.666v7.924l41.174,23.772v-7.924Z"/>
    </g>
    <g id="Path-128" data-name="Path">
      <path class="cls-14" d="M178.424,200.084l27.449,15.848v7.924l-27.449-15.848Z"/>
    </g>
    <g id="Path-129" data-name="Path">
      <path class="cls-14" d="M178.424,263.476l27.449,15.848v7.924L178.424,271.4Z"/>
    </g>
    <g id="Path-130" data-name="Path">
      <path class="cls-14" d="M178.424,326.869l27.449,15.848v7.924l-27.449-15.848Z"/>
    </g>
    <g id="Path-131" data-name="Path">
      <path class="cls-14" d="M126.955,170.368l27.45,15.848v7.924l-27.45-15.848Z"/>
    </g>
    <g id="Path-132" data-name="Path">
      <path class="cls-14" d="M126.955,233.761l27.45,15.848v7.924l-27.45-15.848Z"/>
    </g>
    <g id="Path-133" data-name="Path">
      <path class="cls-14" d="M126.955,297.154l27.45,15.848v7.924l-27.45-15.848Z"/>
    </g>
    <g id="Path-134" data-name="Path">
      <path class="cls-14" d="M75.487,140.653l27.449,15.848v7.924L75.487,148.577Z"/>
    </g>
    <g id="Path-135" data-name="Path">
      <path class="cls-14" d="M75.487,204.046l27.449,15.848v7.924L75.487,211.97Z"/>
    </g>
    <g id="Path-136" data-name="Path">
      <path class="cls-14" d="M75.487,267.438l27.449,15.848v7.924L75.487,275.362Z"/>
    </g>
    <g id="Path-137" data-name="Path">
      <path class="cls-14" d="M205.873,231.78l13.725,7.924v7.924l-13.725-7.924Z"/>
    </g>
    <g id="Path-138" data-name="Path">
      <path class="cls-14" d="M205.873,295.173l13.725,7.924v7.924l-13.725-7.924Z"/>
    </g>
    <g id="Path-139" data-name="Path">
      <path class="cls-14" d="M205.873,358.565l13.725,7.924v7.924l-13.725-7.924Z"/>
    </g>
    <g id="Path-140" data-name="Path">
      <path class="cls-14" d="M154.405,202.065l13.725,7.924v7.924l-13.725-7.924Z"/>
    </g>
    <g id="Path-141" data-name="Path">
      <path class="cls-14" d="M154.405,265.457l13.725,7.924v7.924l-13.725-7.924Z"/>
    </g>
    <g id="Path-142" data-name="Path">
      <path class="cls-14" d="M154.405,328.85l13.725,7.924v7.924l-13.725-7.924Z"/>
    </g>
    <g id="Path-143" data-name="Path">
      <path class="cls-14" d="M102.936,172.349l13.725,7.924v7.924l-13.725-7.924Z"/>
    </g>
    <g id="Path-144" data-name="Path">
      <path class="cls-14" d="M102.936,235.742l13.725,7.924v7.924l-13.725-7.924Z"/>
    </g>
    <g id="Path-145" data-name="Path">
      <path class="cls-14" d="M102.936,299.135l13.725,7.924v7.924l-13.725-7.924Z"/>
    </g>
    <g id="Path-146" data-name="Path">
      <path d="M205.873,215.932V200.084l-13.725-7.925v15.849Z"/>
    </g>
    <g id="Path-147" data-name="Path">
      <path d="M205.873,279.324V263.476l-13.725-7.924V271.4Z"/>
    </g>
    <g id="Path-148" data-name="Path">
      <path d="M205.873,342.717V326.869l-13.725-7.924v15.848Z"/>
    </g>
    <g id="Path-149" data-name="Path">
      <path d="M154.405,186.216V170.368l-13.725-7.924v15.848Z"/>
    </g>
    <g id="Path-150" data-name="Path">
      <path d="M154.405,249.609V233.761l-13.725-7.924v15.848Z"/>
    </g>
    <g id="Path-151" data-name="Path">
      <path d="M154.405,313.002V297.154l-13.725-7.925v15.849Z"/>
    </g>
    <g id="Path-152" data-name="Path">
      <path d="M102.936,156.501V140.653l-13.724-7.924v15.848Z"/>
    </g>
    <g id="Path-153" data-name="Path">
      <path d="M102.936,219.894V204.046l-13.724-7.924V211.97Z"/>
    </g>
    <g id="Path-154" data-name="Path">
      <path d="M102.936,283.286V267.438l-13.724-7.924v15.848Z"/>
    </g>
    <g id="Group-13" data-name="Group">
      <g id="Path-155" data-name="Path">
        <path class="cls-6" d="M271.067,277.343l-20.588,11.886v5.943l20.588-11.886Z"/>
      </g>
      <g id="Path-156" data-name="Path">
        <path class="cls-4" d="M257.342,269.419l-20.588,11.886,13.725,7.924,20.588-11.886Z"/>
      </g>
      <g id="Path-157" data-name="Path">
        <path class="cls-5" d="M250.479,295.172l-13.725-7.924v-5.943l13.725,7.924Z"/>
      </g>
      <g id="Path-158" data-name="Path">
        <path d="M250.479,287.7481a.5.5,0,0,1-.5-.5V271.4a.5.5,0,0,1,.25-.4331l18.8716-10.895a.5.5,0,0,1,.75.4331v15.8482a.5.5,0,1,1-1,0v-14.982L250.979,271.6885v15.56A.5.5,0,0,1,250.479,287.7481Z"/>
      </g>
      <g id="Path-159" data-name="Path">
        <path d="M260.7734,281.8052a.5.5,0,0,1-.5-.5V265.4571a.5.5,0,0,1,1,0v15.8481A.5.5,0,0,1,260.7734,281.8052Z"/>
      </g>
      <g id="Path-160" data-name="Path">
        <path d="M250.479,275.8618a.5.5,0,0,1-.5-.5V259.5142a.5.5,0,0,1,1,0v15.8476A.5.5,0,0,1,250.479,275.8618Z"/>
      </g>
      <g id="Path-161" data-name="Path">
        <path d="M250.4785,271.9a.4974.4974,0,0,1-.2495-.0669L239.936,265.89a.5.5,0,1,1,.5-.8662l10.293,5.9428a.5.5,0,0,1-.2505.9331Z"/>
      </g>
      <g id="Path-162" data-name="Path">
        <path d="M250.479,279.8242a.5015.5015,0,0,1-.25-.0668l-10.293-5.9434a.5.5,0,0,1,0-.8662l18.8706-10.895a.5.5,0,0,1,.5.8662L241.186,273.3809l9.293,5.3662,18.6216-10.751a.5.5,0,0,1,.5.8662L250.729,279.7574A.5012.5012,0,0,1,250.479,279.8242Z"/>
      </g>
      <g id="Path-163" data-name="Path">
        <path d="M240.186,281.8052a.5.5,0,0,1-.5-.5V265.4571a.5.5,0,0,1,.25-.4331l18.8706-10.8951a.5.5,0,0,1,.75.4331V270.41a.5.5,0,0,1-1,0V255.4283L240.686,265.7456v15.56A.5.5,0,0,1,240.186,281.8052Z"/>
      </g>
    </g>
    <g id="Group-14" data-name="Group">
      <g id="Path-164" data-name="Path">
        <path class="cls-6" d="M271.067,340.736l-20.588,11.886v5.943l20.588-11.886Z"/>
      </g>
      <g id="Path-165" data-name="Path">
        <path class="cls-4" d="M257.342,332.812l-20.588,11.886,13.725,7.924,20.588-11.886Z"/>
      </g>
      <g id="Path-166" data-name="Path">
        <path class="cls-5" d="M250.479,358.565l-13.725-7.924v-5.943l13.725,7.924Z"/>
      </g>
      <g id="Path-167" data-name="Path">
        <path d="M250.479,351.1411a.5.5,0,0,1-.5-.5V334.793a.5.5,0,0,1,.25-.4331l18.8716-10.896a.5.5,0,0,1,.75.4331v15.8491a.5.5,0,1,1-1,0V324.7632L250.979,335.0816v15.56A.5.5,0,0,1,250.479,351.1411Z"/>
      </g>
      <g id="Path-168" data-name="Path">
        <path d="M260.7734,345.1983a.5.5,0,0,1-.5-.5V328.85a.5.5,0,0,1,1,0v15.8482A.5.5,0,0,1,260.7734,345.1983Z"/>
      </g>
      <g id="Path-169" data-name="Path">
        <path d="M250.479,339.2549a.5.5,0,0,1-.5-.5V322.9073a.5.5,0,0,1,1,0v15.8476A.5.5,0,0,1,250.479,339.2549Z"/>
      </g>
      <g id="Path-170" data-name="Path">
        <path d="M250.4785,335.293a.4974.4974,0,0,1-.2495-.0669l-10.293-5.9429a.5.5,0,0,1,.5-.8662l10.293,5.9429a.5.5,0,0,1-.2505.9331Z"/>
      </g>
      <g id="Path-171" data-name="Path">
        <path d="M250.479,343.2168a.5006.5006,0,0,1-.25-.0669l-10.293-5.9428a.5.5,0,0,1,0-.8662l18.8706-10.896a.5.5,0,0,1,.5.8662L241.186,336.774l9.293,5.3657,18.6216-10.752a.5.5,0,0,1,.5.8662L250.729,343.15A.5.5,0,0,1,250.479,343.2168Z"/>
      </g>
      <g id="Path-172" data-name="Path">
        <path d="M240.186,345.1983a.5.5,0,0,1-.5-.5V328.85a.5.5,0,0,1,.25-.4331l18.8706-10.896a.5.5,0,0,1,.75.4331v15.8477a.5.5,0,1,1-1,0V318.82L240.686,329.1387v15.56A.5.5,0,0,1,240.186,345.1983Z"/>
      </g>
    </g>
    <g id="Group-15" data-name="Group">
      <g id="Path-173" data-name="Path">
        <path class="cls-6" d="M271.067,404.129l-20.588,11.886v5.943l20.588-11.886Z"/>
      </g>
      <g id="Path-174" data-name="Path">
        <path class="cls-4" d="M257.342,396.205l-20.588,11.886,13.725,7.924,20.588-11.886Z"/>
      </g>
      <g id="Path-175" data-name="Path">
        <path class="cls-5" d="M250.479,421.958l-13.725-7.924v-5.943l13.725,7.924Z"/>
      </g>
      <g id="Path-176" data-name="Path">
        <path d="M250.479,414.5342a.5.5,0,0,1-.5-.5V398.1861a.5.5,0,0,1,.25-.4331l18.8716-10.896a.5.5,0,0,1,.75.4331v15.8481a.5.5,0,0,1-1,0V388.1563L250.979,398.4746v15.56A.5.5,0,0,1,250.479,414.5342Z"/>
      </g>
      <g id="Path-177" data-name="Path">
        <path d="M260.7734,408.5909a.5.5,0,0,1-.5-.5V392.2432a.5.5,0,0,1,1,0v15.8477A.5.5,0,0,1,260.7734,408.5909Z"/>
      </g>
      <g id="Path-178" data-name="Path">
        <path d="M250.479,402.648a.5.5,0,0,1-.5-.5V386.3a.5.5,0,0,1,1,0V402.148A.5.5,0,0,1,250.479,402.648Z"/>
      </g>
      <g id="Path-179" data-name="Path">
        <path d="M250.4785,398.6861a.4974.4974,0,0,1-.2495-.0669l-10.293-5.9429a.5.5,0,0,1,.5-.8662l10.293,5.9429a.5.5,0,0,1-.2505.9331Z"/>
      </g>
      <g id="Path-180" data-name="Path">
        <path d="M250.479,406.61a.5016.5016,0,0,1-.25-.0669L239.936,400.6a.5.5,0,0,1,0-.8662l18.8706-10.896a.5.5,0,0,1,.5.8662L241.186,400.167l9.293,5.3657,18.6216-10.7519a.5.5,0,0,1,.5.8662L250.729,406.543A.5014.5014,0,0,1,250.479,406.61Z"/>
      </g>
      <g id="Path-181" data-name="Path">
        <path d="M240.186,408.5909a.5.5,0,0,1-.5-.5V392.2432a.5.5,0,0,1,.25-.4331l18.8706-10.896a.5.5,0,0,1,.75.4331v15.8477a.5.5,0,1,1-1,0V382.2134L240.686,392.5318v15.5591A.5.5,0,0,1,240.186,408.5909Z"/>
      </g>
    </g>
    <g id="Group-16" data-name="Group">
      <g id="Path-182" data-name="Path">
        <path class="cls-6" d="M219.598,247.628l-20.587,11.886v5.943l20.587-11.886Z"/>
      </g>
      <g id="Path-183" data-name="Path">
        <path class="cls-4" d="M205.873,239.704,185.286,251.59l13.725,7.924,20.587-11.886Z"/>
      </g>
      <g id="Path-184" data-name="Path">
        <path class="cls-5" d="M199.011,265.457l-13.725-7.924V251.59l13.725,7.924Z"/>
      </g>
      <g id="Path-185" data-name="Path">
        <path d="M199.0112,258.0332a.5.5,0,0,1-.5-.5V241.6851a.5.5,0,0,1,.25-.4331l18.8716-10.896a.5.5,0,0,1,.75.4331v15.8476a.5.5,0,0,1-1,0V231.6553l-17.8716,10.3184v15.56A.5.5,0,0,1,199.0112,258.0332Z"/>
      </g>
      <g id="Path-186" data-name="Path">
        <path d="M209.3052,252.09a.5.5,0,0,1-.5-.5V235.7422a.5.5,0,0,1,1,0V251.59A.5.5,0,0,1,209.3052,252.09Z"/>
      </g>
      <g id="Path-187" data-name="Path">
        <path d="M199.0112,246.147a.5.5,0,0,1-.5-.5V229.7989a.5.5,0,0,1,1,0V245.647A.5.5,0,0,1,199.0112,246.147Z"/>
      </g>
      <g id="Path-188" data-name="Path">
        <path d="M199.0107,242.1851a.4974.4974,0,0,1-.25-.0669l-10.2944-5.9429a.5.5,0,0,1,.5-.8662l10.2944,5.9429a.5.5,0,0,1-.25.9331Z"/>
      </g>
      <g id="Path-189" data-name="Path">
        <path d="M199.0112,250.1089a.5006.5006,0,0,1-.25-.0669l-10.2944-5.9428a.5.5,0,0,1,0-.8663l18.8721-10.896a.5.5,0,0,1,.5.8663L189.7168,243.666l9.2944,5.3658,18.6216-10.752a.5.5,0,0,1,.5.8662l-18.8716,10.896A.5.5,0,0,1,199.0112,250.1089Z"/>
      </g>
      <g id="Path-190" data-name="Path">
        <path d="M188.7168,252.09a.5.5,0,0,1-.5-.5V235.7422a.5.5,0,0,1,.25-.4331l18.8721-10.896a.5.5,0,0,1,.75.4331v15.8477a.5.5,0,0,1-1,0V225.7124l-17.8721,10.3184V251.59A.5.5,0,0,1,188.7168,252.09Z"/>
      </g>
    </g>
    <g id="Group-17" data-name="Group">
      <g id="Path-191" data-name="Path">
        <path class="cls-6" d="M219.598,311.021l-20.587,11.886v5.943l20.587-11.886Z"/>
      </g>
      <g id="Path-192" data-name="Path">
        <path class="cls-4" d="M205.873,303.097l-20.587,11.886,13.725,7.924,20.587-11.886Z"/>
      </g>
      <g id="Path-193" data-name="Path">
        <path class="cls-5" d="M199.011,328.85l-13.725-7.924v-5.943l13.725,7.924Z"/>
      </g>
      <g id="Path-194" data-name="Path">
        <path d="M199.0112,321.4258a.5.5,0,0,1-.5-.5V305.0782a.5.5,0,0,1,.25-.4331l18.8716-10.896a.5.5,0,0,1,.75.4331V310.03a.5.5,0,0,1-1,0V295.0484l-17.8716,10.3183v15.5591A.5.5,0,0,1,199.0112,321.4258Z"/>
      </g>
      <g id="Path-195" data-name="Path">
        <path d="M209.3052,315.4829a.5.5,0,0,1-.5-.5V299.1348a.5.5,0,0,1,1,0v15.8481A.5.5,0,0,1,209.3052,315.4829Z"/>
      </g>
      <g id="Path-196" data-name="Path">
        <path d="M199.0112,309.54a.5.5,0,0,1-.5-.5V293.1919a.5.5,0,0,1,1,0V309.04A.5.5,0,0,1,199.0112,309.54Z"/>
      </g>
      <g id="Path-197" data-name="Path">
        <path d="M199.0107,305.5782a.4974.4974,0,0,1-.25-.0669l-10.2944-5.9434a.5.5,0,0,1,.5-.8662l10.2944,5.9434a.5.5,0,0,1-.25.9331Z"/>
      </g>
      <g id="Path-198" data-name="Path">
        <path d="M199.0112,313.502a.5016.5016,0,0,1-.25-.0669l-10.2944-5.9429a.5.5,0,0,1,0-.8662l18.8721-10.896a.5.5,0,0,1,.5.8662l-18.1221,10.4629,9.2944,5.3657,18.6216-10.7519a.5.5,0,0,1,.5.8662l-18.8716,10.896A.5011.5011,0,0,1,199.0112,313.502Z"/>
      </g>
      <g id="Path-199" data-name="Path">
        <path d="M188.7168,315.4829a.5.5,0,0,1-.5-.5V299.1348a.5.5,0,0,1,.25-.4331l18.8721-10.896a.5.5,0,0,1,.75.4331v15.8481a.5.5,0,0,1-1,0V289.105l-17.8721,10.3184v15.5595A.5.5,0,0,1,188.7168,315.4829Z"/>
      </g>
    </g>
    <g id="Group-18" data-name="Group">
      <g id="Path-200" data-name="Path">
        <path class="cls-6" d="M219.598,374.413,199.011,386.3v5.943l20.587-11.887Z"/>
      </g>
      <g id="Path-201" data-name="Path">
        <path class="cls-4" d="M205.873,366.489l-20.587,11.886,13.725,7.925,20.587-11.887Z"/>
      </g>
      <g id="Path-202" data-name="Path">
        <path class="cls-5" d="M199.011,392.243l-13.725-7.925v-5.943l13.725,7.925Z"/>
      </g>
      <g id="Path-203" data-name="Path">
        <path d="M199.0112,384.8179a.5.5,0,0,1-.5-.5V368.47a.5.5,0,0,1,.25-.4331l18.8716-10.8946a.5.5,0,0,1,.75.4331v15.8477a.5.5,0,0,1-1,0V358.4414l-17.8716,10.3169v15.56A.5.5,0,0,1,199.0112,384.8179Z"/>
      </g>
      <g id="Path-204" data-name="Path">
        <path d="M209.3052,378.875a.5.5,0,0,1-.5-.5V362.5269a.5.5,0,0,1,1,0V378.375A.5.5,0,0,1,209.3052,378.875Z"/>
      </g>
      <g id="Path-205" data-name="Path">
        <path d="M199.0112,372.9322a.5.5,0,0,1-.5-.5V356.584a.5.5,0,0,1,1,0v15.8482A.5.5,0,0,1,199.0112,372.9322Z"/>
      </g>
      <g id="Path-206" data-name="Path">
        <path d="M199.0107,368.97a.4974.4974,0,0,1-.25-.0669L188.4668,362.96a.5.5,0,1,1,.5-.8662l10.2944,5.9429a.5.5,0,0,1-.25.9331Z"/>
      </g>
      <g id="Path-207" data-name="Path">
        <path d="M199.0112,376.8941a.5016.5016,0,0,1-.25-.0669l-10.2944-5.9429a.5.5,0,0,1,0-.8662l18.8721-10.895a.5.5,0,0,1,.5.8662l-18.1221,10.4619,9.2944,5.3657,18.6216-10.751a.5.5,0,0,1,.5.8663l-18.8716,10.895A.5011.5011,0,0,1,199.0112,376.8941Z"/>
      </g>
      <g id="Path-208" data-name="Path">
        <path d="M188.7168,378.875a.5.5,0,0,1-.5-.5V362.5269a.5.5,0,0,1,.25-.4331l18.8721-10.895a.5.5,0,0,1,.75.4331V367.48a.5.5,0,0,1-1,0V352.4981l-17.8721,10.3174v15.56A.5.5,0,0,1,188.7168,378.875Z"/>
      </g>
    </g>
    <g id="Group-19" data-name="Group">
      <g id="Path-209" data-name="Path">
        <path class="cls-6" d="M168.13,217.913l-20.588,11.886v5.943l20.588-11.886Z"/>
      </g>
      <g id="Path-210" data-name="Path">
        <path class="cls-4" d="M154.405,209.989l-20.587,11.886,13.724,7.924,20.588-11.886Z"/>
      </g>
      <g id="Path-211" data-name="Path">
        <path class="cls-5" d="M147.542,235.742l-13.724-7.924v-5.943l13.724,7.924Z"/>
      </g>
      <g id="Path-212" data-name="Path">
        <path d="M147.542,228.3179a.5.5,0,0,1-.5-.5V211.97a.5.5,0,0,1,.25-.4331l18.8721-10.8956a.5.5,0,0,1,.75.4331v15.8477a.5.5,0,0,1-1,0V201.9405L148.042,212.2583v15.56A.5.5,0,0,1,147.542,228.3179Z"/>
      </g>
      <g id="Path-213" data-name="Path">
        <path d="M157.8359,222.375a.5.5,0,0,1-.5-.5V206.0269a.5.5,0,0,1,1,0V221.875A.5.5,0,0,1,157.8359,222.375Z"/>
      </g>
      <g id="Path-214" data-name="Path">
        <path d="M147.542,216.4322a.5.5,0,0,1-.5-.5V200.084a.5.5,0,0,1,1,0v15.8482A.5.5,0,0,1,147.542,216.4322Z"/>
      </g>
      <g id="Path-215" data-name="Path">
        <path d="M147.5415,212.47a.4972.4972,0,0,1-.25-.0669L136.999,206.46a.5.5,0,1,1,.5-.8662l10.293,5.9429a.5.5,0,0,1-.25.9331Z"/>
      </g>
      <g id="Path-216" data-name="Path">
        <path d="M147.542,220.3941a.5014.5014,0,0,1-.25-.0669l-10.293-5.9429a.5.5,0,0,1,0-.8662l18.8721-10.896a.5.5,0,0,1,.5.8662L138.249,213.9512l9.293,5.3657,18.6221-10.7519a.5.5,0,0,1,.5.8662l-18.8721,10.896A.5016.5016,0,0,1,147.542,220.3941Z"/>
      </g>
      <g id="Path-217" data-name="Path">
        <path d="M137.249,222.375a.5.5,0,0,1-.5-.5V206.0269a.5.5,0,0,1,.25-.4331l18.8721-10.896a.5.5,0,0,1,.75.4331V210.979a.5.5,0,0,1-1,0V195.9971L137.749,206.3155v15.56A.5.5,0,0,1,137.249,222.375Z"/>
      </g>
    </g>
    <g id="Group-20" data-name="Group">
      <g id="Path-218" data-name="Path">
        <path class="cls-6" d="M168.13,281.305l-20.588,11.887v5.943l20.588-11.887Z"/>
      </g>
      <g id="Path-219" data-name="Path">
        <path class="cls-4" d="M154.405,273.381l-20.587,11.886,13.724,7.925,20.588-11.887Z"/>
      </g>
      <g id="Path-220" data-name="Path">
        <path class="cls-5" d="M147.542,299.135l-13.724-7.924v-5.944l13.724,7.925Z"/>
      </g>
      <g id="Path-221" data-name="Path">
        <path d="M147.542,291.711a.5.5,0,0,1-.5-.5V275.3618a.5.5,0,0,1,.25-.4331l18.8721-10.895a.5.5,0,0,1,.75.4331V280.315a.5.5,0,0,1-1,0V265.333L148.042,275.65V291.211A.5.5,0,0,1,147.542,291.711Z"/>
      </g>
      <g id="Path-222" data-name="Path">
        <path d="M157.8359,285.7671a.5.5,0,0,1-.5-.5V269.419a.5.5,0,0,1,1,0v15.8481A.5.5,0,0,1,157.8359,285.7671Z"/>
      </g>
      <g id="Path-223" data-name="Path">
        <path d="M147.542,279.8242a.5.5,0,0,1-.5-.5V263.4761a.5.5,0,0,1,1,0v15.8481A.5.5,0,0,1,147.542,279.8242Z"/>
      </g>
      <g id="Path-224" data-name="Path">
        <path d="M147.5415,275.8618a.497.497,0,0,1-.25-.0668l-10.293-5.9429a.5.5,0,0,1,.5-.8662l10.293,5.9428a.5.5,0,0,1-.25.9331Z"/>
      </g>
      <g id="Path-225" data-name="Path">
        <path d="M147.542,283.7862a.5014.5014,0,0,1-.25-.0669l-10.293-5.9434a.5.5,0,0,1,0-.8662l18.8721-10.895a.5.5,0,1,1,.5.8662L138.249,277.3428l9.293,5.3662,18.6221-10.751a.5.5,0,1,1,.5.8662L147.792,283.7193A.5016.5016,0,0,1,147.542,283.7862Z"/>
      </g>
      <g id="Path-226" data-name="Path">
        <path d="M137.249,285.7671a.5.5,0,0,1-.5-.5V269.419a.5.5,0,0,1,.25-.4331l18.8721-10.895a.5.5,0,0,1,.75.4331v15.8481a.5.5,0,0,1-1,0V259.39L137.749,269.7076v15.56A.5.5,0,0,1,137.249,285.7671Z"/>
      </g>
    </g>
    <g id="Group-21" data-name="Group">
      <g id="Path-227" data-name="Path">
        <path class="cls-6" d="M168.13,344.698l-20.588,11.886v5.943l20.588-11.886Z"/>
      </g>
      <g id="Path-228" data-name="Path">
        <path class="cls-4" d="M154.405,336.774,133.818,348.66l13.724,7.924,20.588-11.886Z"/>
      </g>
      <g id="Path-229" data-name="Path">
        <path class="cls-5" d="M147.542,362.527l-13.724-7.924V348.66l13.724,7.924Z"/>
      </g>
      <g id="Path-230" data-name="Path">
        <path d="M147.542,355.1031a.5.5,0,0,1-.5-.5V338.7549a.5.5,0,0,1,.25-.4331l18.8721-10.896a.5.5,0,0,1,.75.4331V343.708a.5.5,0,0,1-1,0V328.7251L148.042,339.0435v15.56A.5.5,0,0,1,147.542,355.1031Z"/>
      </g>
      <g id="Path-231" data-name="Path">
        <path d="M157.8359,349.16a.5.5,0,0,1-.5-.5V332.812a.5.5,0,0,1,1,0V348.66A.5.5,0,0,1,157.8359,349.16Z"/>
      </g>
      <g id="Path-232" data-name="Path">
        <path d="M147.542,343.2168a.5.5,0,0,1-.5-.5V326.8692a.5.5,0,0,1,1,0v15.8476A.5.5,0,0,1,147.542,343.2168Z"/>
      </g>
      <g id="Path-233" data-name="Path">
        <path d="M147.5415,339.2549a.4972.4972,0,0,1-.25-.0669l-10.293-5.9429a.5.5,0,1,1,.5-.8662l10.293,5.9429a.5.5,0,0,1-.25.9331Z"/>
      </g>
      <g id="Path-234" data-name="Path">
        <path d="M147.542,347.1787a.5.5,0,0,1-.25-.0669l-10.293-5.9428a.5.5,0,0,1,0-.8662l18.8721-10.896a.5.5,0,1,1,.5.8662L138.249,340.7359l9.293,5.3657L166.1641,335.35a.5.5,0,0,1,.5.8662L147.792,347.1118A.5006.5006,0,0,1,147.542,347.1787Z"/>
      </g>
      <g id="Path-235" data-name="Path">
        <path d="M137.249,349.16a.5.5,0,0,1-.5-.5V332.812a.5.5,0,0,1,.25-.4331l18.8721-10.896a.5.5,0,0,1,.75.4331v15.8492a.5.5,0,0,1-1,0V322.7823L137.749,333.1006v15.56A.5.5,0,0,1,137.249,349.16Z"/>
      </g>
    </g>
    <g id="Group-22" data-name="Group">
      <g id="Path-236" data-name="Path">
        <path class="cls-6" d="M116.661,188.197,96.074,200.084v5.943l20.587-11.887Z"/>
      </g>
      <g id="Path-237" data-name="Path">
        <path class="cls-4" d="M102.936,180.273,82.349,192.159l13.725,7.925,20.587-11.887Z"/>
      </g>
      <g id="Path-238" data-name="Path">
        <path class="cls-5" d="M96.074,206.027l-13.725-7.925v-5.943l13.725,7.925Z"/>
      </g>
      <g id="Path-239" data-name="Path">
        <path d="M96.0742,198.6021a.5.5,0,0,1-.5-.5V182.2539a.5.5,0,0,1,.25-.4331l18.8716-10.895a.5.5,0,0,1,.75.4331v15.8482a.5.5,0,0,1-1,0v-14.982L96.5742,182.5425v15.56A.5.5,0,0,1,96.0742,198.6021Z"/>
      </g>
      <g id="Path-240" data-name="Path">
        <path d="M106.3682,192.6592a.5.5,0,0,1-.5-.5V176.3111a.5.5,0,0,1,1,0v15.8481A.5.5,0,0,1,106.3682,192.6592Z"/>
      </g>
      <g id="Path-241" data-name="Path">
        <path d="M96.0742,186.7159a.5.5,0,0,1-.5-.5V170.3682a.5.5,0,0,1,1,0v15.8477A.5.5,0,0,1,96.0742,186.7159Z"/>
      </g>
      <g id="Path-242" data-name="Path">
        <path d="M96.0737,182.7539a.4964.4964,0,0,1-.2495-.0669L85.53,176.7442a.5.5,0,1,1,.5-.8662l10.2944,5.9428a.5.5,0,0,1-.2505.9331Z"/>
      </g>
      <g id="Path-243" data-name="Path">
        <path d="M96.0742,190.6778a.5016.5016,0,0,1-.25-.0669L85.53,184.668a.5.5,0,0,1,0-.8662l18.8721-10.895a.5.5,0,0,1,.5.8662L86.78,184.2349l9.2944,5.3657,18.6216-10.75a.5.5,0,0,1,.5.8662L96.3242,190.6109A.5014.5014,0,0,1,96.0742,190.6778Z"/>
      </g>
      <g id="Path-244" data-name="Path">
        <path d="M85.78,192.6592a.5.5,0,0,1-.5-.5V176.3111a.5.5,0,0,1,.25-.4331l18.8721-10.8951a.5.5,0,0,1,.75.4331v15.8482a.5.5,0,0,1-1,0V166.2823L86.28,176.6v15.56A.5.5,0,0,1,85.78,192.6592Z"/>
      </g>
    </g>
    <g id="Group-23" data-name="Group">
      <g id="Path-245" data-name="Path">
        <path class="cls-6" d="M116.661,251.59,96.074,263.476v5.943l20.587-11.886Z"/>
      </g>
      <g id="Path-246" data-name="Path">
        <path class="cls-4" d="M102.936,243.666,82.349,255.552l13.725,7.924,20.587-11.886Z"/>
      </g>
      <g id="Path-247" data-name="Path">
        <path class="cls-5" d="M96.074,269.419l-13.725-7.924v-5.943l13.725,7.924Z"/>
      </g>
      <g id="Path-248" data-name="Path">
        <path d="M96.0742,261.9951a.5.5,0,0,1-.5-.5V245.647a.5.5,0,0,1,.25-.4331l18.8716-10.896a.5.5,0,0,1,.75.4331V250.6a.5.5,0,0,1-1,0V235.6172L96.5742,245.9356v15.5595A.5.5,0,0,1,96.0742,261.9951Z"/>
      </g>
      <g id="Path-249" data-name="Path">
        <path d="M106.3682,256.0518a.5.5,0,0,1-.5-.5V239.7041a.5.5,0,0,1,1,0v15.8477A.5.5,0,0,1,106.3682,256.0518Z"/>
      </g>
      <g id="Path-250" data-name="Path">
        <path d="M96.0742,250.1089a.5.5,0,0,1-.5-.5V233.7608a.5.5,0,0,1,1,0v15.8481A.5.5,0,0,1,96.0742,250.1089Z"/>
      </g>
      <g id="Path-251" data-name="Path">
        <path d="M96.0737,246.147a.4974.4974,0,0,1-.2495-.0669L85.53,240.1372a.5.5,0,0,1,.5-.8662l10.2944,5.9429a.5.5,0,0,1-.2505.9331Z"/>
      </g>
      <g id="Path-252" data-name="Path">
        <path d="M96.0742,254.0708a.5006.5006,0,0,1-.25-.0669L85.53,248.0611a.5.5,0,0,1,0-.8662l18.8721-10.896a.5.5,0,0,1,.5.8662L86.78,247.628l9.2944,5.3657,18.6216-10.752a.5.5,0,0,1,.5.8662l-18.8716,10.896A.5.5,0,0,1,96.0742,254.0708Z"/>
      </g>
      <g id="Path-253" data-name="Path">
        <path d="M85.78,256.0518a.5.5,0,0,1-.5-.5V239.7041a.5.5,0,0,1,.25-.4331l18.8721-10.896a.5.5,0,0,1,.75.4331v15.8492a.5.5,0,0,1-1,0v-14.983L86.28,239.9927v15.5591A.5.5,0,0,1,85.78,256.0518Z"/>
      </g>
    </g>
    <g id="Group-24" data-name="Group">
      <g id="Path-254" data-name="Path">
        <path class="cls-6" d="M116.661,314.983,96.074,326.869v5.943l20.587-11.886Z"/>
      </g>
      <g id="Path-255" data-name="Path">
        <path class="cls-4" d="M102.936,307.059,82.349,318.945l13.725,7.924,20.587-11.886Z"/>
      </g>
      <g id="Path-256" data-name="Path">
        <path class="cls-5" d="M96.074,332.812l-13.725-7.924v-5.943l13.725,7.924Z"/>
      </g>
      <g id="Path-257" data-name="Path">
        <path d="M96.0742,325.3882a.5.5,0,0,1-.5-.5V309.04a.5.5,0,0,1,.25-.4331l18.8716-10.896a.5.5,0,0,1,.75.4331v15.8481a.5.5,0,0,1-1,0V299.01L96.5742,309.3286v15.56A.5.5,0,0,1,96.0742,325.3882Z"/>
      </g>
      <g id="Path-258" data-name="Path">
        <path d="M106.3682,319.4449a.5.5,0,0,1-.5-.5V303.0972a.5.5,0,0,1,1,0v15.8477A.5.5,0,0,1,106.3682,319.4449Z"/>
      </g>
      <g id="Path-259" data-name="Path">
        <path d="M96.0742,313.502a.5.5,0,0,1-.5-.5V297.1538a.5.5,0,0,1,1,0V313.002A.5.5,0,0,1,96.0742,313.502Z"/>
      </g>
      <g id="Path-260" data-name="Path">
        <path d="M96.0737,309.54a.4974.4974,0,0,1-.2495-.0669L85.53,303.53a.5.5,0,0,1,.5-.8662l10.2944,5.9429a.5.5,0,0,1-.2505.9331Z"/>
      </g>
      <g id="Path-261" data-name="Path">
        <path d="M96.0742,317.4639a.5016.5016,0,0,1-.25-.0669L85.53,311.4541a.5.5,0,0,1,0-.8662l18.8721-10.896a.5.5,0,1,1,.5.8662L86.78,311.021l9.2944,5.3657,18.6216-10.7519a.5.5,0,0,1,.5.8662L96.3242,317.397A.5014.5014,0,0,1,96.0742,317.4639Z"/>
      </g>
      <g id="Path-262" data-name="Path">
        <path d="M85.78,319.4449a.5.5,0,0,1-.5-.5V303.0972a.5.5,0,0,1,.25-.4331l18.8721-10.896a.5.5,0,0,1,.75.4331v15.8477a.5.5,0,0,1-1,0V293.0674L86.28,303.3858v15.5591A.5.5,0,0,1,85.78,319.4449Z"/>
      </g>
    </g>
    <g id="Path-263" data-name="Path">
      <path class="cls-5" d="M353.416,142.634l27.45,15.848-13.725,7.924-13.725-7.924Z"/>
    </g>
    <g id="Path-264" data-name="Path">
      <path class="cls-17" d="M394.591,110.938l34.312,19.81-48.037,27.734-27.45-15.848,41.175-23.772Z"/>
    </g>
    <g id="Path-265" data-name="Path">
      <path class="cls-18" d="M96.074,346.679h0a7.5867,7.5867,0,0,0-3.431-5.943h0c-1.894-1.093-3.431-.206-3.431,1.981h0a7.5867,7.5867,0,0,0,3.431,5.943h0C94.537,349.753,96.074,348.866,96.074,346.679Z"/>
    </g>
    <g id="Path-266" data-name="Path">
      <path class="cls-12" d="M329.398,211.97h0c1.893-1.094,3.431-.206,3.431,1.981h0a7.5925,7.5925,0,0,1-3.431,5.943h0c-1.894,1.093-3.432.205-3.432-1.981h0A7.5877,7.5877,0,0,1,329.398,211.97Z"/>
    </g>
    <g id="Path-267" data-name="Path">
      <path class="cls-12" d="M308.81,223.856h0c1.894-1.094,3.431-.206,3.431,1.981h0a7.59,7.59,0,0,1-3.431,5.943h0c-1.894,1.093-3.431.206-3.431-1.981h0A7.5867,7.5867,0,0,1,308.81,223.856Z"/>
    </g>
    <g id="Path-268" data-name="Path">
      <path class="cls-8" d="M353.416,412.053l3.431,1.981v3.962l-3.431-1.981Z"/>
    </g>
    <g id="Path-269" data-name="Path">
      <path class="cls-10" d="M380.866,396.205l3.431,1.981-27.45,15.848-3.431-1.981Z"/>
    </g>
    <g id="Path-270" data-name="Path">
      <path class="cls-7" d="M384.297,402.148l-27.45,15.848v-3.962l27.45-15.848Z"/>
    </g>
    <g id="Mask">
      <path class="cls-19" d="M298.517,245.647l41.174-23.772V427.901l-41.174,23.772Z"/>
    </g>
    <g>
      <polygon class="cls-20" points="339.691 334.709 339.691 305.036 329.48 310.913 329.467 325.85 334.79 337.53 339.691 334.709"/>
      <path class="cls-21" d="M313.39,375.63c4.5477,2.6257,10.3714,3.1455,16.8354,1.6635-.4242-16.155-11.3377-23.6595-26.2819-19.7634C304.4121,365.9727,307.7207,372.3572,313.39,375.63Z"/>
      <path class="cls-21" d="M312.39,377.3623c-6.1729-3.5636-9.8092-10.3515-10.4113-19.2648-1.1336.3627-2.2892.794-3.4613,1.2846v74.4112c17.6373-12.9838,31.2038-35.8729,31.7064-54.4621a32.3658,32.3658,0,0,1-6.8064.7836A21.8049,21.8049,0,0,1,312.39,377.3623Z"/>
      <path class="cls-22" d="M310.651,246.708c0,9.967,8.092,13.388,18.06,7.633a37.4622,37.4622,0,0,0,10.98-10.0874V221.875l-27.119,15.6573A25.7641,25.7641,0,0,0,310.651,246.708Z"/>
      <path d="M339.691,294.5573v-2.4185a86.36,86.36,0,0,0-18.0772,16.48l.9127,2.0026A85.6989,85.6989,0,0,1,339.691,294.5573Z"/>
      <path d="M301.8789,355.4219c0,.9142.04,1.8015.0994,2.6756.6021,8.9133,4.2384,15.7012,10.4113,19.2648a21.8049,21.8049,0,0,0,11.0274,2.7525,32.3658,32.3658,0,0,0,6.8064-.7836,45.5974,45.5974,0,0,0,9.4676-3.245v-2.2047a44.8293,44.8293,0,0,1-9.466,3.4124c-6.464,1.482-12.2877.9622-16.8354-1.6635-5.6689-3.2732-8.9775-9.6577-9.4465-18.1-.0384-.6908-.0642-1.3907-.0642-2.1086,0-11,4.4257-23.54,11.5861-34.9763l-.9739-2.1369C306.72,330.3641,301.8789,343.7321,301.8789,355.4219Z"/>
      <path d="M323.6562,423.294a45.2335,45.2335,0,0,1,16.0348-5.9066v-2.0181a46.9439,46.9439,0,0,0-17.0348,6.1923,85.2652,85.2652,0,0,0-24.1392,21.7142v3.2826C305.4333,437.094,314.1656,428.7731,323.6562,423.294Z"/>
      <polygon class="cls-21" points="298.517 283.259 314.491 318.309 315.465 320.446 339.691 373.601 339.691 348.283 334.79 337.53 329.467 325.85 322.526 310.621 321.614 308.619 301.679 264.878 298.517 264.464 298.517 283.259"/>
      <polygon class="cls-21" points="299.696 261.156 300.001 261.196 299.871 260.911 299.696 261.156"/>
      <polygon class="cls-20" points="298.517 261.002 298.517 264.464 301.679 264.878 325.768 268.034 324.251 264.373 300.001 261.196 299.696 261.156 298.517 261.002"/>
      <polygon class="cls-22" points="310.953 316.86 298.517 296.167 298.517 302.825 309.036 320.326 310.953 316.86"/>
    </g>
    <path class="cls-23" d="M298.517,245.647V451.673l41.174-23.772V221.875Zm39.176,181.104-37.18,21.46V246.801l37.18-21.46Z"/>
    <g id="Mask-2" data-name="Mask">
      <path class="cls-19" d="M394.591,190.178l41.175-23.772V372.432l-41.175,23.772Z"/>
    </g>
    <g>
      <polygon class="cls-22" points="394.591 342.76 394.591 354.656 435.766 323.215 435.766 311.318 394.591 342.76"/>
      <polygon class="cls-20" points="435.766 330.93 394.591 371.527 394.591 396.204 435.766 372.432 435.766 330.93"/>
      <path class="cls-21" d="M417.8145,238.855a17.9657,17.9657,0,0,0-4.7791-1.8883c-4.0406,6.5619-6.5284,13.7232-6.5284,20.0283,0,11.7072,8.5617,16.483,19.7592,11.8341a48.8052,48.8052,0,0,0,1.059-9.7661C427.3252,249.5728,423.9473,242.396,417.8145,238.855Z"/>
      <path class="cls-21" d="M414.1638,235.2037a19.7545,19.7545,0,0,1,4.6507,1.9194c6.7773,3.9131,10.5107,11.7051,10.5107,21.94a49.2449,49.2449,0,0,1-.8229,8.7268c.5145-.2634,1.0318-.5389,1.5547-.8408a41.83,41.83,0,0,0,5.709-3.9981v-45.698a30.4366,30.4366,0,0,0-5.709,2.5941A49.9455,49.9455,0,0,0,414.1638,235.2037Z"/>
      <path class="cls-20" d="M401.2908,209.6935c4.8678-4.95,8.2742-11.7767,8.2742-17.4315,0-4.33-1.9984-7.04-5.1193-7.7735l-9.8547,5.69v22.6569a21.7206,21.7206,0,0,0,5.25-2.2314C400.33,210.3211,400.8112,210.0089,401.2908,209.6935Z"/>
      <path d="M418.8145,237.1231a19.7545,19.7545,0,0,0-4.6507-1.9194c-5.6387-1.552-12.3844-.8931-19.5728,1.8843v2.1538a35.5189,35.5189,0,0,1,13.1834-2.8775,22.3334,22.3334,0,0,1,5.261.6024,17.9657,17.9657,0,0,1,4.7791,1.8883c6.1328,3.541,9.5107,10.7178,9.5107,20.208a48.8052,48.8052,0,0,1-1.059,9.7661c-3.5889,17.4972-16.03,36.749-31.6752,48.8449v2.5021c16.9839-12.6274,30.5221-33.6129,33.9113-52.3863a49.2449,49.2449,0,0,0,.8229-8.7268C429.3252,248.8282,425.5918,241.0362,418.8145,237.1231Z"/>
      <path d="M417.7617,182.4151c0,9.352-7.2665,21.2265-16.4709,27.2784-.48.3154-.96.6276-1.45.91a21.7206,21.7206,0,0,1-5.25,2.2314v2.0589a23.163,23.163,0,0,0,6.25-2.5578c10.4326-6.0225,18.9209-19.4449,18.9209-29.9209a14.4547,14.4547,0,0,0-1.2107-6.07l-1.7444,1.0071A12.603,12.603,0,0,1,417.7617,182.4151Z"/>
      <polygon class="cls-22" points="410.901 278.942 394.591 286.398 394.591 293.338 416.838 283.168 410.901 278.942"/>
    </g>
    <path class="cls-23" d="M394.591,190.178V396.204l41.175-23.772V166.406Zm39.172,181.103-37.17,21.46V191.331l37.17-21.46Z"/>
  </g>
</svg>
