<svg id="Layer_1" data-name="Layer 1" xmlns="http://www.w3.org/2000/svg" viewBox="0 0 1062 1062">
  <defs>
    <style>
      .cls-1 {
        fill: #e8e8e8;
      }

      .cls-2 {
        fill: #dfd1c6;
      }

      .cls-3 {
        fill: #bbaea5;
      }

      .cls-4 {
        fill: #58bcee;
      }

      .cls-5 {
        fill: #3c94bf;
      }

      .cls-6 {
        fill: #24759d;
      }

      .cls-7 {
        fill: #439dca;
      }

      .cls-8 {
        fill: #6ecfff;
      }

      .cls-9 {
        fill: #3a8eb9;
      }

      .cls-10 {
        fill: #44ade1;
      }

      .cls-11 {
        fill: #d0ecfb;
      }

      .cls-12 {
        fill: #d1d1d1;
      }

      .cls-13 {
        fill: #b2b2b2;
      }

      .cls-14 {
        fill: #63b4dd;
      }

      .cls-15 {
        fill: #484e51;
      }

      .cls-16 {
        fill: #2a2d2f;
      }

      .cls-17 {
        fill: #89d8ff;
      }

      .cls-18 {
        fill: #448fb5;
      }

      .cls-19 {
        fill: #b9b9b9;
      }

      .cls-20 {
        fill: #a2a2a2;
      }

      .cls-21 {
        fill: #b1e5ff;
      }

      .cls-22 {
        fill: #127db3;
      }

      .cls-23 {
        fill: #1aaaf2;
      }

      .cls-24 {
        fill: #8b8b8b;
      }

      .cls-25 {
        fill: none;
      }

      .cls-26 {
        fill: #f9f9f9;
      }

      .cls-27 {
        fill: #464646;
      }

      .cls-28 {
        fill: #fff;
      }
    </style>
  </defs>
  <title>1Artboard 36</title>
  <g>
    <g>
      <path class="cls-1" d="M330.8957,763.9114v-1.937L515.42,655.4392l161.0394,92.9762v1.937L491.935,856.8875Z"/>
      <path class="cls-1" d="M310.7658,843.3285,491.935,947.9266l201.2992-116.22v-3.874L512.065,723.2343l-201.2992,116.22Z"/>
      <path class="cls-2" d="M676.4593,818.1474,491.935,924.6826v-19.37L676.4593,798.7775Z"/>
      <path class="cls-3" d="M542.26,903.4493l-6.71,3.874-6.71-3.874V880.2051h13.42Z"/>
      <path class="cls-3" d="M587.8877,877.28l-6.71,3.874-6.71-3.874V854.0362h13.42Z"/>
      <path class="cls-3" d="M632.8445,851.1112l-6.71,3.874-6.71-3.8738v-23.244h13.42Z"/>
      <path class="cls-3" d="M676.4593,825.6137l-6.71,3.874-6.71-3.874V802.37h13.42Z"/>
      <path class="cls-4" d="M525.4849,905.3126V893.6905L495.29,911.1235v11.6221Z"/>
      <path class="cls-4" d="M571.1127,879.163V863.6671L540.9178,881.1v15.496Z"/>
      <path class="cls-4" d="M616.07,853.0134v-15.496L585.8747,854.95v15.496Z"/>
      <path class="cls-4" d="M659.6844,827.8324v-15.496L629.49,829.7694v15.496Z"/>
      <path class="cls-2" d="M485.2251,928.276l6.71,3.8741,6.71-3.8741V905.032h-13.42Z"/>
      <path class="cls-2" d="M535.55,907.25l6.71-3.874V880.1313l-6.71,3.874Z"/>
      <path class="cls-2" d="M626.1345,854.9505l6.71-3.8739v-23.244l-6.71,3.8739Z"/>
      <path class="cls-2" d="M581.1777,881.1l6.71-3.8741V853.982l-6.71,3.8741Z"/>
      <path class="cls-2" d="M669.7493,829.77l6.71-3.874V802.6513l-6.71,3.874Z"/>
      <path class="cls-3" d="M330.8957,831.7065,491.935,924.6826v-19.37L330.8957,812.3365Z"/>
      <path class="cls-5" d="M463.0822,908.1987v-11.777L488.58,911.1429V922.92Z"/>
      <path class="cls-2" d="M446.9782,906.1331l6.71,3.874,6.71-3.874v-23.244h-13.42Z"/>
      <path class="cls-5" d="M424.8353,885.9232v-11.777l25.4979,14.7213V900.644Z"/>
      <path class="cls-6" d="M483.2121,920.1307l5.368,3.0991V910.8334l-5.368-3.0991Z"/>
      <path class="cls-6" d="M444.9652,897.8551l5.368,3.0991V888.5578l-5.368-3.0991Z"/>
      <path class="cls-3" d="M491.935,932.4306l-6.71-3.874v-23.244l6.71,3.874Z"/>
      <path class="cls-5" d="M385.9175,863.6477V851.8706l25.4979,14.7212v11.7771Z"/>
      <path class="cls-6" d="M406.0474,875.58l5.368,3.0991V866.2822l-5.368-3.0991Z"/>
      <path class="cls-5" d="M347.6706,841.3721v-11.777l25.4979,14.7212v11.7771Z"/>
      <path class="cls-6" d="M367.8005,853.3041l5.368,3.0991V844.0067l-5.368-3.0991Z"/>
      <path class="cls-2" d="M408.06,883.9032l6.71,3.9611,6.71-3.8741v-23.244l-13.42-.0872Z"/>
      <path class="cls-2" d="M369.8135,861.8473l6.71,3.874,6.71-3.874v-23.244h-13.42Z"/>
      <path class="cls-2" d="M330.8957,839.7044l6.71,3.8739,6.71-3.8739V816.46h-13.42Z"/>
      <path class="cls-4" d="M491.935,854.9505v46.488L676.4593,794.9034v-46.488Z"/>
      <path class="cls-5" d="M491.935,854.9505v54.2361L330.8957,816.2105V761.9744Z"/>
      <path class="cls-7" d="M676.4593,748.4154v15.496L528.84,849.1394v-15.496Z"/>
      <path class="cls-7" d="M676.4593,779.4073v15.496L532.1949,878.1942V862.6988Z"/>
      <path class="cls-7" d="M532.1949,839.4545v15.496l-40.26,23.244V862.6988Z"/>
      <path class="cls-7" d="M532.1949,862.6988v15.496l-40.26,23.2441v-15.496Z"/>
      <path class="cls-3" d="M337.6057,843.3284l-6.71-3.8739v-23.244l6.71,3.8739Z"/>
      <path class="cls-3" d="M376.5235,865.6042l-6.71-3.874v-23.244l6.71,3.874Z"/>
      <path class="cls-6" d="M431.5453,870.49l-5.368-2.9054V824.97l5.368,2.9055Z"/>
      <path class="cls-3" d="M414.77,887.88l-6.71-3.874v-23.244l6.71,3.874Z"/>
      <path class="cls-6" d="M451.6752,882.1121l-5.368-2.9053V836.5924l5.368,2.9055Z"/>
      <path class="cls-3" d="M453.6882,910.155l-6.71-3.8739v-23.244l6.71,3.8739Z"/>
      <path class="cls-6" d="M471.8051,893.734l-5.368-2.9054V848.2145l5.368,2.9055Z"/>
      <path class="cls-4" d="M512.065,893.734l5.3679-2.9054V848.2145L512.065,851.12Z"/>
      <path class="cls-3" d="M491.935,878.1945l3.355,1.937v7.748l-3.355-1.937Z"/>
      <path class="cls-6" d="M491.935,905.3562l-5.3679-2.9054V859.8367l5.3679,2.9055Z"/>
      <path class="cls-4" d="M491.935,905.3562l5.368-2.9054V859.8367l-5.368,2.9055Z"/>
      <path class="cls-3" d="M491.935,901.4386l40.26-23.244,3.355,1.937v7.748l-40.26,23.244-3.355-1.937Z"/>
      <path class="cls-6" d="M441.61,876.3012l-5.3679-2.9054V830.7815l5.3679,2.9055Z"/>
      <path class="cls-3" d="M535.55,833.6435v7.748l-40.26,23.244-3.355-1.937v-7.748l40.26-23.2441Z"/>
      <path class="cls-3" d="M491.935,878.1945l40.26-23.244,3.355,1.937v7.748L495.29,887.88l-3.355-1.937Z"/>
      <path class="cls-6" d="M461.74,887.9232l-5.368-2.9053V842.4036l5.368,2.9055Z"/>
      <path class="cls-4" d="M522.13,887.9232l5.368-2.9053V842.4036l-5.368,2.9055Z"/>
      <path class="cls-1" d="M491.935,855.0191l-65.7413-37.9559-3.3714,1.9464v7.7859l65.7414,37.9557,3.3713-1.9464Z"/>
      <path class="cls-6" d="M481.87,899.5451l-5.368-2.9054V854.0256l5.368,2.9054Z"/>
      <path class="cls-4" d="M502,899.5451l5.368-2.9054V854.0256L502,856.931Z"/>
      <path class="cls-1" d="M491.935,878.263l-65.7413-37.9557-3.3714,1.9464V850.04l65.7414,37.9558,3.3713-1.9465Z"/>
      <path class="cls-6" d="M336.2637,815.2419l-5.368-2.9054V769.7224l5.368,2.9054Z"/>
      <path class="cls-6" d="M356.3936,826.864l-5.368-2.9054V781.3444l5.368,2.9054Z"/>
      <path class="cls-6" d="M376.5235,838.4858l-5.368-2.9054V792.9663l5.368,2.9054Z"/>
      <path class="cls-6" d="M396.6534,850.108l-5.3679-2.9054V804.5885l5.3679,2.9055Z"/>
      <path class="cls-6" d="M346.3286,821.0532l-5.3679-2.9054V775.5335l5.3679,2.9055Z"/>
      <path class="cls-6" d="M366.4586,832.6752l-5.368-2.9054V787.1555l5.368,2.9055Z"/>
      <path class="cls-6" d="M386.5885,844.297l-5.368-2.9054V798.7775l5.368,2.9054Z"/>
      <path class="cls-6" d="M406.7184,855.9192l-5.368-2.9054V810.4l5.368,2.9054Z"/>
      <path class="cls-6" d="M411.4154,858.8247l-5.368-2.9055V813.305l5.368,2.9054Z"/>
      <path class="cls-1" d="M491.935,909.2929v-7.7858l-65.7413-37.9558-3.3714,1.9465v7.7858l65.7414,37.9557Z"/>
      <path class="cls-1" d="M396.6534,799.8144l-65.7413-37.9557-3.3714,1.9464v7.7858l65.7414,37.9559,3.3713-1.9465Z"/>
      <path class="cls-1" d="M396.6534,823.0582,330.9121,785.19l-3.3714,1.9465v7.6984l65.7414,37.9558,3.3713-1.9465Z"/>
      <path class="cls-1" d="M396.6534,846.3024l-65.7413-37.9557-3.3714,1.9464v7.7858l65.7414,37.956,3.3713-1.9466Z"/>
      <path class="cls-8" d="M488.58,864.7521,422.8223,826.787v-7.7878L488.58,856.9645Z"/>
      <path class="cls-8" d="M488.58,887.9962l-65.7578-37.8777v-7.8752l65.7578,37.965Z"/>
      <path class="cls-8" d="M488.58,911.24,422.8223,873.275v-7.7875L488.58,903.4527Z"/>
      <path class="cls-8" d="M393.2984,809.5476l-65.7577-37.9652v-7.7877L393.2984,801.76Z"/>
      <path class="cls-8" d="M393.2984,832.7915l-65.7577-37.8778v-7.7878l65.7577,37.8779Z"/>
      <path class="cls-8" d="M393.2984,856.0358,327.5407,818.07v-7.7877l65.7577,37.9654Z"/>
      <path class="cls-2" d="M488.58,856.8875l3.3549-1.9369v7.748l-3.3549,1.9369Z"/>
      <path class="cls-2" d="M488.58,880.1313l3.3549-1.937v7.7481l-3.3549,1.9369Z"/>
      <path class="cls-2" d="M488.58,903.3755l3.3549-1.937v7.748l-3.3549,1.937Z"/>
      <path class="cls-2" d="M393.2984,801.683l3.355-1.9371v7.748l-3.355,1.9371Z"/>
      <path class="cls-2" d="M393.2984,825.014l3.355-1.937v7.748l-3.355,1.937Z"/>
      <path class="cls-2" d="M393.2984,848.171l3.355-1.937v7.748l-3.355,1.937Z"/>
      <path class="cls-1" d="M400.0084,859.793V805.5567l3.355-1.937,16.7749,9.685v54.236l-3.355,1.9371Z"/>
      <path class="cls-8" d="M400.0084,805.5567l16.7749,9.685v54.2361l-16.7749-9.685Z"/>
      <path class="cls-2" d="M416.7833,869.478l3.355-1.937V813.3049l-3.355,1.937Z"/>
      <path class="cls-9" d="M532.1949,847.2025l3.355-1.937V829.77l-3.355,1.937Z"/>
      <path class="cls-9" d="M532.1949,878.1945l3.355-1.937v-15.496l-3.355,1.9371Z"/>
      <path class="cls-9" d="M582.52,818.1474l6.71-3.8739v-15.496l-6.71,3.8738Z"/>
      <path class="cls-9" d="M582.52,849.1394l6.71-3.874v-15.496l-6.71,3.874Z"/>
      <path class="cls-9" d="M636.2,787.1554l6.71-3.874v-15.496l-6.71,3.874Z"/>
      <path class="cls-9" d="M636.2,818.1474l6.71-3.8741V798.7774l-6.71,3.8739Z"/>
      <path class="cls-9" d="M555.68,833.6434l6.71-3.8739v-15.496l-6.71,3.8739Z"/>
      <path class="cls-9" d="M555.68,864.6354l6.71-3.874v-15.496l-6.71,3.874Z"/>
      <path class="cls-9" d="M609.36,802.6513l6.71-3.874V783.2814l-6.71,3.874Z"/>
      <path class="cls-9" d="M609.36,833.6434l6.71-3.874V814.2733l-6.71,3.8741Z"/>
      <path class="cls-9" d="M663.0393,771.6594l6.71-3.874v-15.496l-6.71,3.874Z"/>
      <path class="cls-9" d="M663.0393,802.6513l6.71-3.874v-15.496l-6.71,3.874Z"/>
      <path class="cls-9" d="M542.26,841.3914l6.71-3.8739v-15.496l-6.71,3.8739Z"/>
      <path class="cls-9" d="M542.26,872.3834l6.71-3.874v-15.496l-6.71,3.874Z"/>
      <path class="cls-9" d="M595.94,810.3994l6.71-3.8739V791.03l-6.71,3.8739Z"/>
      <path class="cls-9" d="M595.94,841.3914l6.71-3.874v-15.496l-6.71,3.874Z"/>
      <path class="cls-9" d="M649.6194,779.4073l6.71-3.874v-15.496l-6.71,3.874Z"/>
      <path class="cls-9" d="M649.6194,810.3993l6.71-3.874V791.03l-6.71,3.874Z"/>
      <path class="cls-9" d="M569.1,825.8954l6.71-3.8739v-15.496l-6.71,3.8739Z"/>
      <path class="cls-9" d="M569.1,856.8874l6.71-3.874v-15.496l-6.71,3.874Z"/>
      <path class="cls-9" d="M622.78,794.9034l6.71-3.8738V775.5334l-6.71,3.874Z"/>
      <path class="cls-9" d="M622.78,825.8954l6.71-3.874V806.5253l-6.71,3.874Z"/>
      <path class="cls-10" d="M535.55,860.7615l6.71-3.874V841.3914l-6.71,3.8741Z"/>
      <path class="cls-10" d="M589.23,829.77l6.71-3.8741v-15.496l-6.71,3.8741Z"/>
      <path class="cls-10" d="M642.9094,798.7775l6.71-3.8741v-15.496l-6.71,3.874Z"/>
      <path class="cls-10" d="M562.39,845.2655l6.71-3.8741v-15.496l-6.71,3.8741Z"/>
      <path class="cls-10" d="M616.07,814.2735l6.71-3.8741v-15.496l-6.71,3.8741Z"/>
      <path class="cls-10" d="M669.7493,783.2814l6.71-3.874v-15.496l-6.71,3.874Z"/>
      <path class="cls-10" d="M548.97,853.0135l6.71-3.8741v-15.496l-6.71,3.8741Z"/>
      <path class="cls-10" d="M602.65,822.0214l6.71-3.874V802.6513l-6.71,3.874Z"/>
      <path class="cls-10" d="M656.3294,791.03l6.71-3.8741V771.66l-6.71,3.874Z"/>
      <path class="cls-10" d="M575.81,837.5175l6.71-3.8741v-15.496l-6.71,3.8741Z"/>
      <path class="cls-10" d="M629.49,806.5255l6.71-3.8741v-15.496l-6.71,3.8742Z"/>
      <path class="cls-2" d="M676.4593,794.9034v7.7479L528.84,887.88v-7.7482Z"/>
      <path class="cls-11" d="M495.29,864.6354l40.26-23.2439v-7.748l-40.26,23.244Z"/>
      <path class="cls-11" d="M495.29,887.88l40.26-23.244v-7.7481l-40.26,23.2439Z"/>
      <path class="cls-11" d="M495.29,911.1235,535.55,887.88v-7.7483l-40.26,23.244Z"/>
      <path class="cls-1" d="M491.935,854.9506l40.26-23.2441,3.355,1.937-40.26,23.244Z"/>
      <path class="cls-1" d="M491.935,878.1945l40.26-23.2439,3.355,1.937-40.26,23.244Z"/>
      <path class="cls-1" d="M491.935,901.4386l40.26-23.244,3.355,1.937-40.26,23.244Z"/>
      <path class="cls-6" d="M463.0822,908.5086l5.3679,3.0991V899.2113l-5.3679-3.0991Z"/>
      <path class="cls-6" d="M424.8353,886.2332l5.368,3.099V876.9354l-5.368-3.0991Z"/>
      <path class="cls-6" d="M473.1471,914.32l5.368,3.0991V905.0223l-5.368-3.0991Z"/>
      <path class="cls-10" d="M525.4849,905.6031l-5.368,3.0991V896.3058l5.368-3.0991Z"/>
      <path class="cls-10" d="M571.1127,879.5826l-5.368,3.0991V866.1528l5.368-3.0991Z"/>
      <path class="cls-10" d="M616.07,853.433l-5.3679,3.0992v-16.529l5.3679-3.0991Z"/>
      <path class="cls-10" d="M659.6844,828.2521l-5.368,3.0991v-16.529l5.368-3.0991Z"/>
      <path class="cls-10" d="M505.355,917.2252l-5.368,3.0991V907.9274l5.368-3.0991Z"/>
      <path class="cls-10" d="M550.9828,891.2047l-5.368,3.0991v-16.529l5.368-3.099Z"/>
      <path class="cls-10" d="M595.94,865.0551l-5.368,3.0991V851.6251l5.368-3.0991Z"/>
      <path class="cls-10" d="M639.5544,839.8741l-5.3679,3.0992v-16.529l5.3679-3.0991Z"/>
      <path class="cls-10" d="M515.42,911.4141l-5.3679,3.0991V902.1168l5.3679-3.0991Z"/>
      <path class="cls-10" d="M561.0478,885.3936l-5.368,3.0991V871.9636l5.368-3.099Z"/>
      <path class="cls-10" d="M606.0046,859.2441l-5.368,3.0991v-16.529l5.368-3.0992Z"/>
      <path class="cls-10" d="M649.6194,834.0631l-5.368,3.0992V820.6332l5.368-3.0991Z"/>
      <path class="cls-6" d="M434.9,892.0442l5.368,3.0991V882.7462l-5.368-3.0991Z"/>
      <path class="cls-6" d="M385.9175,863.9576l5.368,3.0991V854.66l-5.368-3.0991Z"/>
      <path class="cls-6" d="M395.9824,869.7685l5.368,3.0991V860.4711l-5.368-3.0991Z"/>
      <path class="cls-6" d="M347.6706,841.6819l5.368,3.0991V832.3844l-5.368-3.0992Z"/>
      <path class="cls-6" d="M357.7356,847.493l5.368,3.0991V838.1953l-5.368-3.0991Z"/>
      <path class="cls-12" d="M491.935,944.0526v3.874l201.2992-116.22v-3.874Z"/>
      <path class="cls-13" d="M491.935,944.0526v3.874L310.7658,843.3285v-3.874Z"/>
    </g>
    <g>
      <path class="cls-1" d="M330.8957,761.9744,515.42,655.4392l161.0394,92.9762L491.935,854.9505Z"/>
      <path class="cls-12" d="M491.935,851.0765,669.7493,748.4154,515.42,659.3132,337.6057,761.9744Z"/>
      <path class="cls-14" d="M626.1345,665.1243v77.48l20.13-11.6223v-77.48Z"/>
      <path class="cls-15" d="M646.2644,645.7542V661.25l-26.84,15.4961V661.25Z"/>
      <path class="cls-5" d="M418.1253,680.62v73.6061L394.64,740.6674V667.0612Z"/>
      <path class="cls-1" d="M632.8445,390.07,512.065,459.802l-87.23-50.3618,120.7795-69.7321Z"/>
      <path class="cls-16" d="M418.1253,684.4943v-15.496L394.64,655.4393v15.496Z"/>
      <path class="cls-3" d="M404.7054,668.9983l3.355,1.9369v34.8661l-3.355-1.937Z"/>
      <path class="cls-3" d="M394.64,659.3133l3.355,1.937v38.74l-3.355-1.9369Z"/>
      <path class="cls-1" d="M636.2,670.9353v3.874L491.935,758.1l-107.36-61.984v-3.874L528.84,608.9513Z"/>
      <path class="cls-12" d="M391.2855,692.2423,528.84,612.8252l100.65,58.11L491.935,750.3524Z"/>
      <path class="cls-5" d="M478.5151,424.936V707.7383L394.64,659.3132V376.5109Z"/>
      <path class="cls-16" d="M394.64,639.9433v23.2439l83.8747,48.4251v-23.244Z"/>
      <path class="cls-5" d="M512.065,428.81l3.3549-1.937V705.8013l-3.3549,1.937-87.23-50.362V378.4479Z"/>
      <path class="cls-1" d="M408.06,368.7629,515.42,306.7789l104.0046,60.047L512.065,428.81Z"/>
      <path class="cls-11" d="M424.8353,320.3379l87.23,50.362,107.3595-61.9841v-3.874l-87.23-50.3617-107.36,61.9838Z"/>
      <path class="cls-4" d="M512.065,366.8259l-3.355-1.937V457.865l3.355,1.9371L619.4245,397.818V304.8418Z"/>
      <path class="cls-6" d="M485.2251,413.314V428.81l26.84,15.496V428.81Z"/>
      <path class="cls-6" d="M485.2251,475.2981v15.496l26.84,15.496v-15.496Z"/>
      <path class="cls-6" d="M485.2251,537.2821v15.496l26.84,15.496v-15.496Z"/>
      <path class="cls-6" d="M485.2251,599.2662v15.496l26.84,15.496v-15.496Z"/>
      <path class="cls-6" d="M485.2251,661.25v15.496l26.84,15.496v-15.496Z"/>
      <path class="cls-6" d="M485.2251,444.306v15.496l26.84,15.496V459.802Z"/>
      <path class="cls-6" d="M485.2251,506.29v15.4961l26.84,15.4959V521.7862Z"/>
      <path class="cls-6" d="M485.2251,568.2741V583.77l26.84,15.4961V583.77Z"/>
      <path class="cls-6" d="M485.2251,630.2582v15.496l26.84,15.496v-15.496Z"/>
      <path class="cls-6" d="M485.2251,692.2423v11.622l26.84,15.496v-11.622Z"/>
      <path class="cls-16" d="M394.64,376.511v15.4959l83.8747,48.4251V424.936Z"/>
      <path class="cls-6" d="M394.64,438.495v15.496l83.8747,48.4251V486.92Z"/>
      <path class="cls-16" d="M394.64,500.4791v30.992l83.8747,48.425v-30.992Z"/>
      <path class="cls-6" d="M394.64,562.4632v15.496l83.8747,48.425v-15.496Z"/>
      <path class="cls-6" d="M394.64,624.4472v15.4961l83.8747,48.425v-15.496Z"/>
      <path class="cls-6" d="M394.64,407.503v15.496l83.8747,48.4251v-15.496Z"/>
      <path class="cls-6" d="M394.64,469.487v15.496l83.8747,48.4251v-15.496Z"/>
      <path class="cls-6" d="M394.64,531.4711v15.496l83.8747,48.425V579.8963Z"/>
      <path class="cls-6" d="M394.64,593.4552v15.496l83.8747,48.4251V641.88Z"/>
      <path class="cls-4" d="M512.065,459.802V715.4863L619.4245,653.502V397.818Z"/>
      <path class="cls-7" d="M538.9048,475.2981v15.496l-26.84,15.496v-15.496Z"/>
      <path class="cls-4" d="M545.6148,455.928V711.6123l100.65-58.11V397.818Z"/>
      <path class="cls-7" d="M538.9048,537.2821v15.496l-26.84,15.496v-15.496Z"/>
      <path class="cls-4" d="M491.935,754.2264v77.48L636.2,748.4156v-77.48Z"/>
      <path class="cls-7" d="M538.9048,599.2662v15.496l-26.84,15.496v-15.496Z"/>
      <path class="cls-7" d="M538.9048,661.25v15.496l-26.84,15.496v-15.496Z"/>
      <path class="cls-7" d="M538.9048,444.306v15.496l-26.84,15.496V459.802Z"/>
      <path class="cls-15" d="M646.2644,397.818v15.496l-100.65,58.11V455.928Z"/>
      <path class="cls-7" d="M646.2644,459.802v15.496l-100.65,58.11V517.912Z"/>
      <path class="cls-7" d="M646.2644,552.7782v15.496l-100.65,58.11v-15.496Z"/>
      <path class="cls-7" d="M646.2644,428.81v15.496l-100.65,58.11V486.92Z"/>
      <path class="cls-7" d="M646.2644,521.7862v15.496l-100.65,58.11V579.8963Z"/>
      <path class="cls-7" d="M646.2644,614.7622v15.496l-100.65,58.11V672.8722Z"/>
      <path class="cls-7" d="M636.2,670.9352v15.4961L532.1949,746.4784V730.982Z"/>
      <path class="cls-7" d="M636.2,701.9273v15.496L532.1949,777.47v-15.496Z"/>
      <path class="cls-7" d="M636.2,732.9194v15.496L532.1949,808.4621v-15.496Z"/>
      <path class="cls-15" d="M646.2644,490.794v30.9922l-100.65,58.11V548.904Z"/>
      <path class="cls-7" d="M646.2644,583.77v15.4959l-100.65,58.11V641.88Z"/>
      <path class="cls-17" d="M491.935,754.2264l6.71-3.874v77.48l-6.71,3.874-107.36-61.9841v-77.48Z"/>
      <path class="cls-7" d="M538.9048,506.29v15.4961l-26.84,15.4959V521.7862Z"/>
      <path class="cls-1" d="M532.1949,452.054l13.42,7.748,100.65-58.11v-3.874l-13.42-7.748-100.65,58.11Z"/>
      <path class="cls-7" d="M538.9048,568.2741V583.77l-26.84,15.4961V583.77Z"/>
      <path class="cls-5" d="M512.065,374.5739V428.81l-87.23-50.3621v-54.236Z"/>
      <path class="cls-7" d="M538.9048,630.2582v15.496l-26.84,15.496v-15.496Z"/>
      <path class="cls-7" d="M538.9048,692.2423v11.622L512.065,719.36V707.7383Z"/>
      <path class="cls-18" d="M545.6148,455.928V711.6123l-13.42-7.748V448.18Z"/>
      <path class="cls-1" d="M394.64,376.511l13.42-7.7481L491.935,417.188l-13.42,7.748Z"/>
      <path class="cls-14" d="M478.5151,711.6123l13.42-7.748V417.188l-13.42,7.748Z"/>
      <path class="cls-12" d="M488.58,415.251l-10.065,5.8108L401.35,376.511l23.4849-13.5591v15.496Z"/>
      <path class="cls-12" d="M535.55,446.243l10.0649,5.8109,93.94-54.2361-20.13-11.6217v11.6217Z"/>
      <path class="cls-16" d="M532.1949,448.18l13.42,7.748v15.496l-13.42-7.748Z"/>
      <path class="cls-6" d="M532.1949,479.172l13.42,7.748v15.4961l-13.42-7.7481Z"/>
      <path class="cls-6" d="M532.1949,510.1641l13.42,7.748v15.496l-13.42-7.7479Z"/>
      <path class="cls-6" d="M532.1949,572.1481l13.42,7.748v15.4961l-13.42-7.7481Z"/>
      <path class="cls-6" d="M532.1949,603.14l13.42,7.748v15.496l-13.42-7.748Z"/>
      <path class="cls-6" d="M532.1949,634.1323l13.42,7.748v15.496l-13.42-7.748Z"/>
      <path class="cls-6" d="M532.1949,665.1243l13.42,7.748v15.496l-13.42-7.748Z"/>
      <path class="cls-16" d="M532.1949,680.62l13.42,7.748v27.118l-13.42-7.748Z"/>
      <path class="cls-16" d="M532.1949,541.1561l13.42,7.748v30.992l-13.42-7.748Z"/>
      <path class="cls-19" d="M418.1253,676.7463v3.874L394.64,694.1794l-3.3549-1.9371Z"/>
      <path class="cls-16" d="M418.1253,672.8723v7.748l60.39,34.866v-7.748Z"/>
      <path class="cls-6" d="M491.935,703.8643v3.874l20.13,11.6221v-3.874Z"/>
      <path class="cls-15" d="M622.78,663.1872v7.748l-77.1647,44.5511v-7.748Z"/>
      <path class="cls-7" d="M512.065,719.36l20.13-11.622v-3.874l-20.13,11.6216Z"/>
      <path class="cls-19" d="M478.5151,715.4863l13.42-7.748v-3.874l-13.42,7.748Z"/>
      <path class="cls-20" d="M622.78,670.9352l3.355,1.9371,3.355-1.9371-6.71-3.874Z"/>
      <path class="cls-20" d="M642.9094,732.9194v3.874l23.4849,13.559,3.355-1.937Z"/>
      <path class="cls-19" d="M337.6057,761.9744l46.97-27.1181v3.874l-43.6148,25.1811Z"/>
      <path class="cls-19" d="M636.2,740.6674l6.71-3.874v-3.874l-6.71,3.874Z"/>
      <path class="cls-20" d="M424.8353,362.9519v3.874l-20.13,11.6217-3.355-1.937Z"/>
      <path class="cls-5" d="M424.8353,374.5739v7.748l60.39,34.8661,6.71-3.874Z"/>
      <path class="cls-20" d="M619.4245,390.07l16.775,9.6849,3.3549-1.9369-20.13-11.6217Z"/>
      <path class="cls-15" d="M545.6148,688.3683v23.244l100.65-58.11V630.258Z"/>
      <g>
        <path class="cls-3" d="M424.8353,393.944l3.355,1.937v290.55l-3.355-1.937Z"/>
        <path class="cls-3" d="M404.7054,382.3219l3.355,1.9371v290.55l-3.355-1.9369Z"/>
        <path class="cls-3" d="M444.9652,405.566l3.355,1.937v290.55l-3.355-1.937Z"/>
        <path class="cls-3" d="M465.0952,417.188l3.3549,1.937v290.55l-3.3549-1.937Z"/>
        <path class="cls-3" d="M414.77,388.133l3.3549,1.9369V676.7463l-3.3549-1.937Z"/>
        <path class="cls-3" d="M394.64,376.511l3.355,1.9369v290.55l-3.355-1.937Z"/>
        <path class="cls-3" d="M434.9,399.755l3.355,1.937v290.55l-3.355-1.9369Z"/>
        <path class="cls-3" d="M455.03,411.377l3.355,1.937v290.55l-3.355-1.937Z"/>
        <path class="cls-3" d="M475.16,422.999l3.355,1.937v290.55l-3.355-1.937Z"/>
      </g>
      <g>
        <path class="cls-2" d="M599.2946,424.9361l-3.355,1.9369V686.4313l3.355-1.937Z"/>
        <path class="cls-2" d="M619.4245,413.314l-3.355,1.937V674.8092l3.355-1.9369Z"/>
        <path class="cls-2" d="M579.1647,436.5581l-3.355,1.9369V698.0533l3.355-1.937Z"/>
        <path class="cls-2" d="M559.0348,448.18l-3.355,1.9369V709.6753l3.355-1.937Z"/>
        <path class="cls-2" d="M609.36,419.125l-3.355,1.937V680.62l3.355-1.937Z"/>
        <path class="cls-2" d="M629.49,407.503l-3.355,1.937V665.1243l3.355,1.937Z"/>
        <path class="cls-2" d="M639.5544,401.692,636.2,403.629V736.7934l3.3549-1.937Z"/>
        <path class="cls-2" d="M589.23,430.747l-3.3549,1.9371V692.2423l3.3549-1.9369Z"/>
        <path class="cls-2" d="M569.1,442.369l-3.355,1.9371V703.8643l3.355-1.937Z"/>
        <path class="cls-2" d="M548.97,453.991l-3.355,1.9371V715.4863l3.355-1.937Z"/>
      </g>
      <path class="cls-6" d="M424.8353,316.4639V331.96l87.23,50.362v-15.496Z"/>
      <path class="cls-7" d="M619.4245,304.8419v15.4959L512.065,382.3219v-15.496Z"/>
      <path class="cls-7" d="M619.4245,335.8339V351.33L512.065,413.314V397.818Z"/>
      <path class="cls-15" d="M478.5151,440.432l13.42-7.748V417.188l-13.42,7.748Z"/>
      <path class="cls-7" d="M478.5151,471.4241l13.42-7.748V448.18l-13.42,7.748Z"/>
      <path class="cls-15" d="M478.5151,579.8961l13.42-7.748v-30.992l-13.42,7.748Z"/>
      <path class="cls-7" d="M478.5151,657.3763l13.42-7.7479V634.1323l-13.42,7.748Z"/>
      <path class="cls-7" d="M478.5151,502.416l13.42-7.748V479.172l-13.42,7.7482Z"/>
      <path class="cls-7" d="M478.5151,595.3921l13.42-7.748v-15.496l-13.42,7.748Z"/>
      <path class="cls-7" d="M478.5151,688.3683l13.42-7.748v-15.496l-13.42,7.748Z"/>
      <path class="cls-7" d="M478.5151,533.408l13.42-7.748V510.164l-13.42,7.748Z"/>
      <path class="cls-7" d="M478.5151,626.3842l13.42-7.748V603.14l-13.42,7.748Z"/>
      <path class="cls-15" d="M478.5151,715.4863l13.42-7.748V680.62l-13.42,7.748Z"/>
      <path class="cls-7" d="M619.4245,366.8259v15.496L512.065,444.306V428.81Z"/>
      <path class="cls-6" d="M424.8353,347.4559v15.496l87.23,50.3621V397.818Z"/>
      <path class="cls-3" d="M475.16,422.999l3.355,1.937,3.355-1.937V713.55l-3.355,1.9369L475.16,713.55Z"/>
      <path class="cls-2" d="M481.87,422.999l-3.355,1.937v290.55l3.355-1.937Z"/>
      <path class="cls-2" d="M491.935,417.188l-3.3549,1.937v290.55l3.3549-1.9369Z"/>
      <path class="cls-2" d="M548.97,453.991l-3.355,1.9371-3.355-1.9371V713.55l3.355,1.9369,3.355-1.9369Z"/>
      <path class="cls-2" d="M528.84,732.9194l3.355-1.9371v77.48l-3.355,1.937Z"/>
      <path class="cls-3" d="M542.26,453.991l3.355,1.9371V715.4863l-3.355-1.937Z"/>
      <path class="cls-3" d="M532.1949,448.18l3.355,1.937V709.6753l-3.355-1.9369Z"/>
      <path class="cls-21" d="M491.935,831.7065,528.84,810.3994v-77.48L491.935,754.2263Z"/>
      <path class="cls-11" d="M491.935,761.9744l36.9049-21.307v-7.748l-36.9049,21.307Z"/>
      <path class="cls-8" d="M491.935,769.7224l-107.36-61.9841V699.99l107.36,61.984Z"/>
      <path class="cls-11" d="M491.935,792.9664l36.9049-21.307v-7.748l-36.9049,21.307Z"/>
      <path class="cls-8" d="M491.935,800.7144l-107.36-61.984V730.982l107.36,61.9841Z"/>
      <path class="cls-11" d="M491.935,777.47l36.9049-21.307v-7.7481L491.935,769.7224Z"/>
      <path class="cls-8" d="M491.935,785.2188l-107.36-61.9845v-7.748L491.935,777.47Z"/>
      <path class="cls-11" d="M491.935,808.4624l36.9049-21.307v-7.748l-36.9049,21.307Z"/>
      <path class="cls-8" d="M491.935,816.2105l-107.36-61.9842v-7.7479l107.36,61.9837Z"/>
      <path class="cls-11" d="M491.935,823.9585,528.84,802.6513v-7.7479L491.935,816.2105Z"/>
      <path class="cls-8" d="M491.935,831.7065l-107.36-61.9841v-7.7481l107.36,61.9842Z"/>
      <path class="cls-9" d="M532.1949,746.4784l6.71-3.874V727.1083l-6.71,3.8737Z"/>
      <path class="cls-9" d="M532.1949,777.47l6.71-3.874V758.1l-6.71,3.874Z"/>
      <path class="cls-9" d="M532.1949,808.4621l6.71-3.874v-15.496l-6.71,3.874Z"/>
      <path class="cls-9" d="M585.8747,715.4863l6.71-3.874v-15.496l-6.71,3.874Z"/>
      <path class="cls-9" d="M585.8747,746.4784l6.71-3.874V727.1083l-6.71,3.8737Z"/>
      <path class="cls-9" d="M585.8747,777.47l6.71-3.874V758.1l-6.71,3.874Z"/>
      <path class="cls-9" d="M559.0348,730.982l6.71-3.874V711.612l-6.71,3.874Z"/>
      <path class="cls-9" d="M559.0348,761.9744l6.71-3.874v-15.496l-6.71,3.874Z"/>
      <path class="cls-9" d="M559.0348,792.9664l6.71-3.874v-15.496l-6.71,3.874Z"/>
      <path class="cls-9" d="M612.7145,699.99l6.71-3.874V680.62l-6.71,3.874Z"/>
      <path class="cls-9" d="M612.7145,730.982l6.71-3.874V711.612l-6.71,3.874Z"/>
      <path class="cls-9" d="M612.7145,761.9743l6.71-3.874V742.6044l-6.71,3.874Z"/>
      <path class="cls-9" d="M545.6148,738.73l6.71-3.874V719.36l-6.71,3.874Z"/>
      <path class="cls-9" d="M545.6148,769.7224l6.71-3.8741V750.3524l-6.71,3.8739Z"/>
      <path class="cls-9" d="M545.6148,800.7144l6.71-3.874v-15.496l-6.71,3.874Z"/>
      <path class="cls-9" d="M599.2946,707.7383l6.71-3.874v-15.496l-6.71,3.874Z"/>
      <path class="cls-9" d="M599.2946,738.73l6.71-3.874V719.36l-6.71,3.874Z"/>
      <path class="cls-9" d="M599.2946,769.7224l6.71-3.8741V750.3524l-6.71,3.8739Z"/>
      <path class="cls-9" d="M572.4547,723.2343l6.71-3.874v-15.496l-6.71,3.874Z"/>
      <path class="cls-9" d="M572.4547,754.2263l6.71-3.8739V734.8563l-6.71,3.874Z"/>
      <path class="cls-9" d="M572.4547,785.2184l6.71-3.874V765.8483l-6.71,3.8741Z"/>
      <path class="cls-9" d="M626.1345,692.2423l6.71-3.874v-15.496l-6.71,3.874Z"/>
      <path class="cls-10" d="M538.9048,758.1l6.71-3.874V738.73l-6.71,3.8741Z"/>
      <path class="cls-10" d="M592.5846,727.1083l6.71-3.874v-15.496l-6.71,3.874Z"/>
      <path class="cls-10" d="M565.7447,742.6044l6.71-3.8741v-15.496l-6.71,3.874Z"/>
      <path class="cls-10" d="M619.4245,711.6123l6.71-3.874v-15.496l-6.71,3.874Z"/>
      <path class="cls-10" d="M552.3248,750.3524l6.71-3.874V730.982l-6.71,3.874Z"/>
      <path class="cls-10" d="M606.0046,719.36l6.71-3.874V699.99l-6.71,3.874Z"/>
      <path class="cls-10" d="M579.1647,734.8563l6.71-3.874v-15.496l-6.71,3.8741Z"/>
      <path class="cls-10" d="M632.8445,703.8643l3.355-1.937v-15.496l-3.355,1.937Z"/>
      <path class="cls-10" d="M538.9048,789.0924l6.71-3.874v-15.496l-6.71,3.874Z"/>
      <path class="cls-10" d="M592.5846,758.1l6.71-3.874V738.73l-6.71,3.8741Z"/>
      <path class="cls-10" d="M565.7447,773.5964l6.71-3.874V754.2263l-6.71,3.874Z"/>
      <path class="cls-10" d="M619.4245,742.6044l6.71-3.8741v-15.496l-6.71,3.874Z"/>
      <path class="cls-10" d="M552.3248,781.3444l6.71-3.874V761.9743l-6.71,3.874Z"/>
      <path class="cls-10" d="M606.0046,750.3524l6.71-3.874V730.982l-6.71,3.874Z"/>
      <path class="cls-10" d="M579.1647,765.8483l6.71-3.874V746.4784l-6.71,3.874Z"/>
      <path class="cls-10" d="M632.8445,734.8563l3.355-1.9369V717.4233l-3.355,1.937Z"/>
      <path class="cls-9" d="M626.1345,723.2343l6.71-3.874v-15.496l-6.71,3.874Z"/>
      <path class="cls-9" d="M626.1345,754.2263l6.71-3.8739V734.8563l-6.71,3.874Z"/>
      <path class="cls-22" d="M431.5453,730.9825l-6.71-3.874-3.355-1.937-6.71-3.874v11.6216l6.71,11.6221,10.065-1.937Z"/>
      <path class="cls-22" d="M481.87,760.0375l-43.6148-25.181v15.496L481.87,775.5336Z"/>
      <path class="cls-23" d="M431.5453,730.9825l3.355-1.9371v11.622l-3.355,1.9371Z"/>
      <path class="cls-17" d="M414.77,721.2975l16.7749,9.685,3.355-1.9371-16.775-9.685Z"/>
      <path class="cls-17" d="M438.2553,734.8565l43.6148,25.181,3.355-1.937L441.61,732.9194Z"/>
      <path class="cls-23" d="M485.2251,758.1005l-3.355,1.937v15.496l3.355-1.937Z"/>
      <path class="cls-4" d="M532.1949,444.3061l87.23-50.3621v7.7479l-80.52,46.488Z"/>
      <path class="cls-5" d="M491.935,432.684l20.13,11.6217v15.496L491.935,448.18Z"/>
    </g>
    <g>
      <path class="cls-1" d="M424.8353,242.8578v-3.874L532.1949,177l87.23,50.3618v3.874L512.065,293.22Z"/>
      <path class="cls-21" d="M511.7445,289.3227l-5.0475-2.9141V364.12l5.0475,2.9141,107.68-62.1691V227.1536Z"/>
      <path class="cls-8" d="M512.065,289.3458v77.48l-87.23-50.3621v-77.48Z"/>
      <path class="cls-12" d="M431.5453,238.9838l100.65-58.11,80.52,46.4881-100.6495,58.11Z"/>
      <path class="cls-20" d="M532.1949,180.8737v65.8584l-43.6148,25.18-57.0348-32.9288Z"/>
      <path class="cls-24" d="M532.1949,246.7318V180.8737l80.52,46.4881L555.68,260.2909Z"/>
      <path class="cls-25" d="M538.9048,320.3379l26.84-15.496V273.85l-26.84,15.4961Z"/>
      <path class="cls-11" d="M512.065,304.8419l107.3595-61.9841v-15.496L512.065,289.3458Z"/>
      <path class="cls-11" d="M512.065,335.8339,619.4245,273.85v-15.496L512.065,320.3378Z"/>
      <path class="cls-11" d="M512.065,366.8259l107.3595-61.9841v-15.496L512.065,351.33Z"/>
      <path class="cls-17" d="M512.065,304.8419l-87.23-50.3618V238.9838l87.23,50.362Z"/>
      <path class="cls-17" d="M512.065,335.8339l-87.23-50.3621v-15.496l87.23,50.3621Z"/>
      <path class="cls-17" d="M512.065,366.8259l-87.23-50.3621v-15.496l87.23,50.3621Z"/>
      <path class="cls-25" d="M565.7447,335.8339l26.84-15.4961v-30.992l-26.84,15.496Z"/>
      <path class="cls-25" d="M565.7447,273.85l26.84-15.496v-15.496l-26.84,15.496Z"/>
      <path class="cls-23" d="M535.55,299.0309l6.71-3.8741,3.355-1.937,6.71-3.874v11.622l-6.71,11.622L535.55,310.6529Z"/>
      <path class="cls-22" d="M448.32,275.7868l-6.71-3.8742-3.3549-1.9371-6.71-3.8738v11.6217l6.71,11.6217,10.0649-1.937Z"/>
      <path class="cls-23" d="M559.0348,285.4718,602.65,260.2909v15.496l-43.6148,25.181Z"/>
      <path class="cls-22" d="M498.645,304.8419,455.03,279.6608v15.496l43.6148,25.1811Z"/>
      <path class="cls-22" d="M535.55,299.0309l-3.355-1.9371v11.6217l3.355,1.937Z"/>
      <path class="cls-23" d="M448.32,275.7868l3.355-1.937v11.622l-3.355,1.937Z"/>
      <path class="cls-17" d="M552.3248,289.3458,535.55,299.0309l-3.355-1.9371,16.7749-9.685Z"/>
      <path class="cls-17" d="M431.5453,266.1017l16.7749,9.685,3.355-1.937L434.9,264.1647Z"/>
      <path class="cls-17" d="M602.65,260.2909l-43.6148,25.181-3.355-1.937,43.6148-25.181Z"/>
      <path class="cls-17" d="M455.03,279.6608l43.6148,25.1811,3.355-1.937-43.6148-25.1811Z"/>
      <path class="cls-22" d="M555.68,283.5348l3.355,1.937v15.496l-3.355-1.9369Z"/>
      <path class="cls-23" d="M502,302.9049l-3.355,1.937v15.496l3.355-1.937Z"/>
      <path class="cls-1" d="M532.1949,204.1178l-80.52,46.488,60.39,34.866,80.52-46.488Z"/>
      <path class="cls-12" d="M532.1949,211.8658l-73.81,42.6143,53.68,30.992,73.81-42.6143Z"/>
      <path class="cls-20" d="M532.1949,211.8658v15.496l-60.39,34.866-13.42-7.7477Z"/>
      <path class="cls-24" d="M585.8747,242.8578l-53.68-30.992v15.496l40.26,23.244Z"/>
      <g>
        <path class="cls-26" d="M481.87,248.6688l16.7749,9.6849,46.97-27.118-16.7749-9.685Z"/>
        <path class="cls-20" d="M498.645,258.3537V273.85L481.87,264.1648V248.6687Z"/>
        <path class="cls-12" d="M545.6148,231.2357v19.37L502,275.7868l-3.355-1.9371v-15.496Z"/>
        <path class="cls-27" d="M502,260.2909l6.71-3.874v11.6217l-6.71,3.874Z"/>
        <path class="cls-27" d="M512.065,254.48l20.13-11.6217V254.48l-20.13,11.6216Z"/>
        <path class="cls-27" d="M535.55,240.9207l6.71-3.874v11.6217l-6.71,3.874Z"/>
        <g>
          <ellipse class="cls-19" cx="498.4489" cy="248.3803" rx="6.3723" ry="3.679"/>
          <rect class="cls-19" x="491.935" y="244.7707" width="12.7489" height="3.355"/>
          <ellipse class="cls-28" cx="498.4489" cy="245.1729" rx="6.3723" ry="3.679"/>
        </g>
        <g>
          <ellipse class="cls-19" cx="513.9124" cy="239.7285" rx="6.3723" ry="3.679"/>
          <rect class="cls-19" x="507.368" y="236.7188" width="12.7489" height="3.355"/>
          <ellipse class="cls-28" cx="513.9124" cy="236.5211" rx="6.3723" ry="3.679"/>
        </g>
        <g>
          <ellipse class="cls-19" cx="529.3758" cy="231.0767" rx="6.3723" ry="3.679"/>
          <rect class="cls-19" x="522.8009" y="227.9958" width="12.7489" height="3.355"/>
          <ellipse class="cls-28" cx="529.3758" cy="227.8693" rx="6.3723" ry="3.679"/>
        </g>
      </g>
      <g>
        <path class="cls-26" d="M505.355,262.2277l16.7749,9.6849,46.97-27.1181L552.3248,235.11Z"/>
        <path class="cls-20" d="M522.13,271.9126v7.748l-6.71,3.874-10.0649-5.8108V262.2277Z"/>
        <path class="cls-12" d="M569.1,244.7947v7.7481l-46.97,27.118v-7.7482Z"/>
        <path class="cls-27" d="M525.4849,273.85l6.71-3.8741V273.85l-6.71,3.874Z"/>
        <path class="cls-27" d="M535.55,268.0388l20.13-11.6217v3.8738l-20.13,11.6217Z"/>
        <path class="cls-27" d="M559.0348,254.48l6.71-3.874v3.874l-6.71,3.874Z"/>
        <g>
          <ellipse class="cls-19" cx="521.9338" cy="261.9393" rx="6.3723" ry="3.679"/>
          <rect class="cls-19" x="515.4199" y="258.8617" width="12.7489" height="3.355"/>
          <ellipse class="cls-28" cx="521.9338" cy="258.7319" rx="6.3723" ry="3.679"/>
        </g>
        <g>
          <ellipse class="cls-19" cx="537.3973" cy="253.2875" rx="6.3723" ry="3.679"/>
          <rect class="cls-19" x="530.8529" y="250.1387" width="12.7489" height="3.355"/>
          <ellipse class="cls-28" cx="537.3973" cy="250.0801" rx="6.3723" ry="3.679"/>
        </g>
        <g>
          <ellipse class="cls-19" cx="552.8607" cy="244.6357" rx="6.3723" ry="3.679"/>
          <rect class="cls-19" x="546.2858" y="241.4157" width="12.7489" height="3.355"/>
          <ellipse class="cls-28" cx="552.8607" cy="241.4283" rx="6.3723" ry="3.679"/>
        </g>
      </g>
    </g>
  </g>
</svg>
