<svg id="Layer_1" data-name="Layer 1" xmlns="http://www.w3.org/2000/svg" viewBox="0 0 630 1027.1389">
  <defs>
    <style>
      .cls-1 {
        fill: #5d5d5d;
      }

      .concrete-top {
        fill: #e8e8e8;
      }

      .cls-2 {
        fill: #fff7ef;
      }

      .cls-3 {
        fill: #282828;
      }

      .cls-4 {
        fill: #464646;
      }

      .cls-5 {
        fill: #736c65;
      }

      .cls-6 {
        fill: #eed8bf;
      }

      .cls-7 {
        fill: #b0a292;
      }

      .cls-8 {
        fill: #2e2e2e;
      }

      .cls-9 {
        fill: #e6dacf;
      }

      .concrete-right {
        fill: #d1d1d1;
      }

      .concrete-left {
        fill: #a2a2a2;
      }

      .cls-10 {
        fill: #7cb7b5;
      }

      .cls-11 {
        fill: #547371;
      }

      .cls-12 {
        fill: #6e9593;
      }

      .cls-13 {
        fill: #89cecc;
      }

      .cls-14 {
        fill: #bcf7f5;
      }
    </style>
  </defs>
  <title>Artboard 3</title>
  <g>
    <g>
      <path class="cls-1" d="M320,291.017,510,181.321V732.69L320,842.387,130,732.69V181.321Z"/>
      <path class="concrete-top" d="M320,1021.365,630,842.387,310,657.635,0,836.613Z"/>
      <path class="cls-2" d="M130,181.321v-8.66L320,62.964,510,172.661v8.66L320,291.017Z"/>
      <path class="cls-1" d="M320,288.131V571.032L510,461.3361V178.4341Z"/>
      <path class="cls-3" d="M320,288.131V571.032L130,461.3361V178.4341Z"/>
      <path class="cls-1" d="M320,571.032V871.2539L510,761.5581V461.3361Z"/>
      <g>
        <path class="cls-4" d="M320,288.131l15-8.661V562.3721l-15,8.66Z"/>
        <path class="cls-4" d="M380,247.7161l15-8.66V527.731l-15,8.66Z"/>
        <path class="cls-4" d="M440,213.0751l15-8.66V493.09l-15,8.66Z"/>
        <path class="cls-4" d="M350,270.81l15-8.66V545.052l-15,8.66Z"/>
        <path class="cls-4" d="M410,230.396l15-8.661V510.4111l-15,8.66Z"/>
        <path class="cls-4" d="M470,201.5281l15-8.66V475.77l-15,8.66Z"/>
        <path class="cls-4" d="M500,184.208l10-5.7739v282.902l-10,5.7729Z"/>
      </g>
      <g>
        <path class="cls-4" d="M320,571.032l15-8.66v288.675l-15,8.66Z"/>
        <path class="cls-4" d="M380,536.3911l15-8.66V816.406l-15,8.66Z"/>
        <path class="cls-4" d="M440,501.75l15-8.66v288.675l-15,8.66Z"/>
        <path class="cls-4" d="M350,553.7119l15-8.66V833.7271l-15,8.66Z"/>
        <path class="cls-4" d="M410,519.071l15-8.66V799.0859l-15,8.66Z"/>
        <path class="cls-4" d="M470,484.43l15-8.66V764.4451l-15,8.66Z"/>
        <path class="cls-4" d="M500,467.109l10-5.7729V750.011l-10,5.7729Z"/>
      </g>
      <g>
        <path d="M320,288.131l-15-8.661V562.3721l15,8.66Z"/>
        <path d="M260,247.7161l-15-8.66V527.731l15,8.66Z"/>
        <path d="M200,213.0751l-15-8.66V493.09l15,8.66Z"/>
        <path d="M290,270.81l-15-8.66V545.052l15,8.66Z"/>
        <path d="M230,230.396l-15-8.661V510.4111l15,8.66Z"/>
        <path d="M170,201.5281l-15-8.66V475.77l15,8.66Z"/>
        <path d="M140,184.208l-10-5.7739v282.902l10,5.7729Z"/>
      </g>
      <path class="cls-3" d="M320,571.032V871.2539L130,761.5581V461.3361Z"/>
      <g>
        <path d="M320,571.032l-15-8.66v288.675l15,8.66Z"/>
        <path d="M260,536.3911l-15-8.66V816.406l15,8.66Z"/>
        <path d="M200,501.75l-15-8.66v288.675l15,8.66Z"/>
        <path d="M290,553.7119l-15-8.66V833.7271l15,8.66Z"/>
        <path d="M230,519.071l-15-8.66V799.0859l15,8.66Z"/>
        <path d="M170,484.43l-15-8.66V764.4451l15,8.66Z"/>
        <path d="M140,467.109l-10-5.7729V750.011l10,5.7729Z"/>
      </g>
      <path class="cls-2" d="M550,461.3361l-40-23.094v23.094Z"/>
      <path class="cls-2" d="M90,461.3361l40-23.094v23.094Z"/>
      <path class="cls-2" d="M420,513.2971v5.7739l20,11.5469L550,467.109v-5.7729H510Z"/>
      <path class="cls-5" d="M420,513.2971l20,11.5469V617.22l-20-11.5469Z"/>
      <path class="cls-2" d="M220,513.2971v8.6609l-20,11.5471L90,469.9961v-8.66h40Z"/>
      <path class="cls-6" d="M320,657.635v8.66L420,608.56V599.9Z"/>
      <path class="cls-5" d="M320,657.635v8.66L220,608.56V599.9Z"/>
      <path class="cls-6" d="M220,513.2971,200,524.844V617.22l20-11.5469Z"/>
      <path class="cls-6" d="M320,282.3571v8.66L510,181.321v-8.66Z"/>
      <path class="cls-5" d="M320,282.3571v8.66L130,181.321v-8.66Z"/>
      <path class="cls-6" d="M320,340.092v8.66L510,239.056v-8.66Z"/>
      <path class="cls-5" d="M320,340.092v8.66L130,239.056v-8.66Z"/>
      <path class="cls-6" d="M320,426.6951v8.66L510,325.6581v-8.66Z"/>
      <path class="cls-5" d="M320,426.6951v8.66L130,325.6581v-8.66Z"/>
      <path class="cls-6" d="M320,513.2971v8.6609L510,412.261v-8.66Z"/>
      <path class="cls-5" d="M320,513.2971v8.6609L130,412.261v-8.66Z"/>
      <path class="cls-6" d="M320,311.225v8.66L510,210.188v-8.66Z"/>
      <path class="cls-5" d="M320,311.225v8.66L130,210.188v-8.66Z"/>
      <path class="cls-6" d="M320,397.827v8.66L510,296.791v-8.66Z"/>
      <path class="cls-5" d="M320,397.827v8.66L130,296.791v-8.66Z"/>
      <path class="cls-6" d="M320,484.43v8.66l190-109.697v-8.66Z"/>
      <path class="cls-5" d="M320,484.43v8.66L130,383.3931v-8.66Z"/>
      <path class="cls-6" d="M320,368.96v8.66L510,267.923v-8.66Z"/>
      <path class="cls-5" d="M320,368.96v8.66L130,267.923v-8.66Z"/>
      <path class="cls-6" d="M320,455.562v8.66L510,354.526v-8.66Z"/>
      <path class="cls-5" d="M320,455.562v8.661L130,354.526v-8.66Z"/>
      <path class="cls-6" d="M320,542.165v8.66L510,441.1281v-8.66Z"/>
      <path class="cls-5" d="M320,542.165v8.66L130,441.1281v-8.66Z"/>
      <path class="cls-6" d="M320,571.032v8.6611L420,521.958v-8.6609Z"/>
      <path class="cls-5" d="M320,571.032v8.6611L220,521.958v-8.6609Z"/>
      <path class="cls-6" d="M320,744.2371v8.6608l100-57.7348V686.502Z"/>
      <path class="cls-5" d="M320,744.2371v8.6608L220,695.1631V686.502Z"/>
      <path class="cls-6" d="M320,599.9v8.66L420,550.825v-8.66Z"/>
      <path class="cls-5" d="M320,599.9v8.66L220,550.825v-8.66Z"/>
      <path class="cls-6" d="M320,686.502v8.6611L420,637.428v-8.6609Z"/>
      <path class="cls-5" d="M320,686.502v8.6611L220,637.428v-8.6609Z"/>
      <path class="cls-6" d="M320,773.105v8.66L420,724.03v-8.66Z"/>
      <path class="cls-5" d="M320,773.105v8.66L220,724.03v-8.66Z"/>
      <path class="cls-6" d="M320,628.7671v8.6609l100-57.7349V571.032Z"/>
      <path class="cls-5" d="M320,628.7671v8.6609L220,579.6931V571.032Z"/>
      <path class="cls-6" d="M320,715.37v8.66l100-57.7351v-8.66Z"/>
      <path class="cls-5" d="M320,715.37v8.66L220,666.2949v-8.66Z"/>
      <path class="cls-6" d="M320,801.9719v8.6612l100-57.7352v-8.6608Z"/>
      <path class="cls-5" d="M320,801.9719v8.6612L220,752.8979v-8.6608Z"/>
      <path class="cls-6" d="M320,830.84v8.66l100-57.7349v-8.66Z"/>
      <path class="cls-6" d="M320,830.84v8.66L220,781.7651v-8.66Z"/>
      <path class="cls-2" d="M400,640.314l-20-11.5469v-5.773L420,599.9l20,11.5471-40,23.094Z"/>
      <path class="cls-2" d="M240,640.314l20-11.5469v-5.773L220,599.9,200,611.447l40,23.094Z"/>
      <path class="cls-5" d="M380,622.9941l20,11.5469V724.03l-20-11.5471Z"/>
      <path class="cls-6" d="M260,622.9941,240,634.541V724.03l20-11.5471Z"/>
      <path class="cls-2" d="M340,738.4641V732.69l40-23.094,20,11.5472-40,23.094v5.7739Z"/>
      <path class="cls-5" d="M340,732.69l20,11.5472V830.84L340,819.293Z"/>
      <path class="cls-2" d="M300,738.4641V732.69l-40-23.094-20,11.5472,40,23.094v5.7739Z"/>
      <path class="cls-6" d="M300,732.69l-20,11.5472V830.84l20-11.5471Z"/>
      <path class="cls-6" d="M550,461.3361,440,524.844v86.603l-40,23.094v86.6021l-40,23.094V830.84l190-109.697Z"/>
      <path class="cls-5" d="M90,461.3361,200,524.844v86.603l40,23.094v86.6021l40,23.094V830.84L90,721.1431Z"/>
      <path class="cls-6" d="M320,853.9341v98.15L550,819.293v-98.15Z"/>
      <path class="cls-5" d="M320,853.9341v98.15L90,819.293v-98.15Z"/>
      <g>
        <path class="cls-1" d="M450,530.6179l10-5.7739v17.321l-10,5.773Z"/>
        <path class="cls-1" d="M490,507.5239l10-5.7739v17.321l-10,5.773Z"/>
        <path class="cls-1" d="M470,519.071l10-5.7739v17.3208l-10,5.7732Z"/>
        <path class="cls-1" d="M510,495.9771l10-5.774v17.3208l-10,5.7732Z"/>
        <path class="cls-1" d="M530,484.43l10-5.7739v17.3211L530,501.75Z"/>
      </g>
      <g>
        <path class="cls-1" d="M450,588.353l10-5.7739V599.9l-10,5.7732Z"/>
        <path class="cls-1" d="M490,565.259l10-5.7739v17.3208l-10,5.7732Z"/>
        <path class="cls-1" d="M470,576.8059l10-5.7739v17.321l-10,5.773Z"/>
        <path class="cls-1" d="M510,553.7119l10-5.7739v17.321l-10,5.773Z"/>
        <path class="cls-1" d="M530,542.165l10-5.7739v17.3208l-10,5.7732Z"/>
      </g>
      <g>
        <path class="cls-1" d="M450,559.4851l10-5.7732v17.32l-10,5.7739Z"/>
        <path class="cls-1" d="M490,536.3911l10-5.7732v17.32l-10,5.7739Z"/>
        <path class="cls-1" d="M470,547.938l10-5.773v17.32l-10,5.7739Z"/>
        <path class="cls-1" d="M510,524.844l10-5.773v17.32l-10,5.7739Z"/>
        <path class="cls-1" d="M530,513.2971l10-5.7732v17.32l-10,5.7739Z"/>
      </g>
      <g>
        <path class="cls-1" d="M450,617.22l10-5.773v17.32l-10,5.7739Z"/>
        <path class="cls-1" d="M490,594.126l10-5.773v17.32l-10,5.7739Z"/>
        <path class="cls-1" d="M470,605.6731,480,599.9v17.32l-10,5.7741Z"/>
        <path class="cls-1" d="M510,582.5791l10-5.7732v17.32L510,599.9Z"/>
        <path class="cls-1" d="M530,571.032l10-5.773v17.32l-10,5.7739Z"/>
        <path class="cls-1" d="M410,640.314l10-5.773v17.32l-10,5.7739Z"/>
        <path class="cls-1" d="M430,628.7671l10-5.773v17.32l-10,5.7741Z"/>
      </g>
      <g>
        <path class="cls-1" d="M450,646.0881l10-5.7741v17.321l-10,5.773Z"/>
        <path class="cls-1" d="M490,622.9941l10-5.7741v17.321l-10,5.773Z"/>
        <path class="cls-1" d="M470,634.541l10-5.7739v17.321l-10,5.773Z"/>
        <path class="cls-1" d="M510,611.447l10-5.7739v17.321l-10,5.773Z"/>
        <path class="cls-1" d="M530,599.9l10-5.7739v17.321l-10,5.773Z"/>
        <path class="cls-1" d="M410,669.1821l10-5.7741v17.321l-10,5.773Z"/>
        <path class="cls-1" d="M430,657.635l10-5.7739v17.321l-10,5.773Z"/>
      </g>
      <g>
        <path class="cls-1" d="M450,674.9551l10-5.773v17.32l-10,5.7741Z"/>
        <path class="cls-1" d="M490,651.8611l10-5.773v17.32l-10,5.7741Z"/>
        <path class="cls-1" d="M470,663.408l10-5.773v17.32l-10,5.7739Z"/>
        <path class="cls-1" d="M510,640.314l10-5.773v17.32l-10,5.7739Z"/>
        <path class="cls-1" d="M530,628.7671l10-5.773v17.32l-10,5.7741Z"/>
        <path class="cls-1" d="M410,698.0491l10-5.773v17.32L410,715.37Z"/>
        <path class="cls-1" d="M430,686.502l10-5.773v17.32l-10,5.7739Z"/>
      </g>
      <g>
        <path class="cls-1" d="M450,703.823l10-5.7739V715.37l-10,5.773Z"/>
        <path class="cls-1" d="M490,680.729l10-5.7739v17.321l-10,5.773Z"/>
        <path class="cls-1" d="M470,692.2761l10-5.7741v17.321l-10,5.7729Z"/>
        <path class="cls-1" d="M510,669.1821l10-5.7741v17.321l-10,5.773Z"/>
        <path class="cls-1" d="M530,657.635l10-5.7739v17.321l-10,5.773Z"/>
        <path class="cls-1" d="M410,726.917l10-5.7739v17.321l-10,5.773Z"/>
        <path class="cls-1" d="M430,715.37l10-5.7742V726.917L430,732.69Z"/>
      </g>
      <g>
        <path class="cls-1" d="M450,732.69l10-5.7729v17.32l-10,5.7739Z"/>
        <path class="cls-1" d="M490,709.5959l10-5.7729v17.32l-10,5.7739Z"/>
        <path class="cls-1" d="M470,721.1431l10-5.773v17.32l-10,5.7742Z"/>
        <path class="cls-1" d="M510,698.0491l10-5.773v17.32L510,715.37Z"/>
        <path class="cls-1" d="M530,686.502l10-5.773v17.32l-10,5.7739Z"/>
        <path class="cls-1" d="M410,755.7839l10-5.7729v17.32l-10,5.7739Z"/>
        <path class="cls-1" d="M430,744.2371l10-5.773v17.32l-10,5.7742Z"/>
        <path class="cls-1" d="M370,778.8779l10-5.7729v17.32l-10,5.774Z"/>
        <path class="cls-1" d="M370,750.011l10-5.7739v17.321l-10,5.773Z"/>
        <path class="cls-1" d="M390,767.3311l10-5.773v17.32l-10,5.7742Z"/>
        <path class="cls-1" d="M390,738.4641l10-5.7742V750.011l-10,5.7729Z"/>
      </g>
      <g>
        <path class="cls-1" d="M450,761.5581l10-5.7742V773.105l-10,5.7729Z"/>
        <path class="cls-1" d="M490,738.4641l10-5.7742V750.011l-10,5.7729Z"/>
        <path class="cls-1" d="M470,750.011l10-5.7739v17.321l-10,5.773Z"/>
        <path class="cls-1" d="M510,726.917l10-5.7739v17.321l-10,5.773Z"/>
        <path class="cls-1" d="M530,715.37l10-5.7742V726.917L530,732.69Z"/>
        <path class="cls-1" d="M410,784.6521l10-5.7742V796.199l-10,5.7729Z"/>
        <path class="cls-1" d="M430,773.105l10-5.7739v17.321l-10,5.7729Z"/>
        <path class="cls-1" d="M370,807.7461l10-5.7742V819.293l-10,5.7729Z"/>
        <path class="cls-1" d="M390,796.199l10-5.774v17.3211l-10,5.7729Z"/>
      </g>
      <g>
        <path d="M190,530.6179l-10-5.7739v17.321l10,5.773Z"/>
        <path d="M150,507.5239,140,501.75v17.321l10,5.773Z"/>
        <path d="M170,519.071l-10-5.7739v17.3208l10,5.7732Z"/>
        <path d="M130,495.9771l-10-5.774v17.3208l10,5.7732Z"/>
        <path d="M110,484.43l-10-5.7739v17.3211l10,5.7729Z"/>
        <path d="M190,588.353l-10-5.7739V599.9l10,5.7732Z"/>
        <path d="M150,565.259l-10-5.7739v17.3208l10,5.7732Z"/>
        <path d="M170,576.8059l-10-5.7739v17.321l10,5.773Z"/>
        <path d="M130,553.7119l-10-5.7739v17.321l10,5.773Z"/>
        <path d="M110,542.165l-10-5.7739v17.3208l10,5.7732Z"/>
        <path d="M190,559.4851l-10-5.7732v17.32l10,5.7739Z"/>
        <path d="M150,536.3911l-10-5.7732v17.32l10,5.7739Z"/>
        <path d="M170,547.938l-10-5.773v17.32l10,5.7739Z"/>
        <path d="M130,524.844l-10-5.773v17.32l10,5.7739Z"/>
        <path d="M110,513.2971l-10-5.7732v17.32l10,5.7739Z"/>
        <path d="M190,617.22l-10-5.773v17.32l10,5.7739Z"/>
        <path d="M150,594.126l-10-5.773v17.32l10,5.7739Z"/>
        <path d="M170,605.6731,160,599.9v17.32l10,5.7741Z"/>
        <path d="M130,582.5791l-10-5.7732v17.32L130,599.9Z"/>
        <path d="M110,571.032l-10-5.773v17.32l10,5.7739Z"/>
        <path d="M230,640.314l-10-5.773v17.32l10,5.7739Z"/>
        <path d="M210,628.7671l-10-5.773v17.32l10,5.7741Z"/>
        <path d="M190,646.0881l-10-5.7741v17.321l10,5.773Z"/>
        <path d="M150,622.9941,140,617.22v17.321l10,5.773Z"/>
        <path d="M170,634.541l-10-5.7739v17.321l10,5.773Z"/>
        <path d="M130,611.447l-10-5.7739v17.321l10,5.773Z"/>
        <path d="M110,599.9l-10-5.7739v17.321l10,5.773Z"/>
        <path d="M230,669.1821l-10-5.7741v17.321l10,5.773Z"/>
        <path d="M210,657.635l-10-5.7739v17.321l10,5.773Z"/>
        <path d="M190,674.9551l-10-5.773v17.32l10,5.7741Z"/>
        <path d="M150,651.8611l-10-5.773v17.32l10,5.7741Z"/>
        <path d="M170,663.408l-10-5.773v17.32l10,5.7739Z"/>
        <path d="M130,640.314l-10-5.773v17.32l10,5.7739Z"/>
        <path d="M110,628.7671l-10-5.773v17.32l10,5.7741Z"/>
        <path d="M230,698.0491l-10-5.773v17.32l10,5.7742Z"/>
        <path d="M210,686.502l-10-5.773v17.32l10,5.7739Z"/>
        <path d="M190,703.823l-10-5.7739V715.37l10,5.773Z"/>
        <path d="M150,680.729l-10-5.7739v17.321l10,5.773Z"/>
        <path d="M170,692.2761l-10-5.7741v17.321l10,5.7729Z"/>
        <path d="M130,669.1821l-10-5.7741v17.321l10,5.773Z"/>
        <path d="M110,657.635l-10-5.7739v17.321l10,5.773Z"/>
        <path d="M230,726.917l-10-5.7739v17.321l10,5.773Z"/>
        <path d="M210,715.37l-10-5.7742V726.917l10,5.7729Z"/>
        <path d="M190,732.69l-10-5.7729v17.32l10,5.7739Z"/>
        <path d="M150,709.5959l-10-5.7729v17.32l10,5.7739Z"/>
        <path d="M170,721.1431l-10-5.773v17.32l10,5.7742Z"/>
        <path d="M130,698.0491l-10-5.773v17.32l10,5.7742Z"/>
        <path d="M110,686.502l-10-5.773v17.32l10,5.7739Z"/>
        <path d="M230,755.7839l-10-5.7729v17.32l10,5.7739Z"/>
        <path d="M210,744.2371l-10-5.773v17.32l10,5.7742Z"/>
        <path d="M270,778.8779l-10-5.7729v17.32l10,5.774Z"/>
        <path d="M270,750.011l-10-5.7739v17.321l10,5.773Z"/>
        <path d="M250,767.3311l-10-5.773v17.32l10,5.7742Z"/>
        <path d="M250,738.4641,240,732.69V750.011l10,5.7729Z"/>
        <path d="M190,761.5581l-10-5.7742V773.105l10,5.7729Z"/>
        <path d="M150,738.4641,140,732.69V750.011l10,5.7729Z"/>
        <path d="M170,750.011l-10-5.7739v17.321l10,5.773Z"/>
        <path d="M130,726.917l-10-5.7739v17.321l10,5.773Z"/>
        <path d="M110,715.37l-10-5.7742V726.917l10,5.7729Z"/>
        <path d="M230,784.6521l-10-5.7742V796.199l10,5.7729Z"/>
        <path d="M210,773.105l-10-5.7739v17.321l10,5.7729Z"/>
        <path d="M270,807.7461l-10-5.7742V819.293l10,5.7729Z"/>
        <path d="M250,796.199l-10-5.774v17.3211l10,5.7729Z"/>
      </g>
      <g>
        <path class="cls-1" d="M450,790.425l10-5.7729v17.32l-10,5.7742Z"/>
        <path class="cls-1" d="M490,767.3311l10-5.773v17.32l-10,5.7742Z"/>
        <path class="cls-1" d="M470,778.8779l10-5.7729v17.32l-10,5.774Z"/>
        <path class="cls-1" d="M510,755.7839l10-5.7729v17.32l-10,5.7739Z"/>
        <path class="cls-1" d="M530,744.2371l10-5.773v17.32l-10,5.7742Z"/>
        <path class="cls-1" d="M410,813.519l10-5.7729v17.32L410,830.84Z"/>
        <path class="cls-1" d="M430,801.9719l10-5.7729v17.32l-10,5.774Z"/>
        <path class="cls-1" d="M370,836.613l10-5.7729v17.32l-10,5.7742Z"/>
        <path class="cls-1" d="M330,859.707l10-5.7729v17.32l-10,5.7742Z"/>
        <path class="cls-1" d="M390,825.0659l10-5.7729v17.32l-10,5.774Z"/>
        <path class="cls-1" d="M350,848.16l10-5.7729v17.32l-10,5.774Z"/>
      </g>
      <g>
        <path class="cls-1" d="M450,819.293l10-5.774V830.84l-10,5.7729Z"/>
        <path class="cls-1" d="M490,796.199l10-5.774v17.3211l-10,5.7729Z"/>
        <path class="cls-1" d="M470,807.7461l10-5.7742V819.293l-10,5.7729Z"/>
        <path class="cls-1" d="M510,784.6521l10-5.7742V796.199l-10,5.7729Z"/>
        <path class="cls-1" d="M530,773.105l10-5.7739v17.321l-10,5.7729Z"/>
        <path class="cls-1" d="M410,842.387l10-5.774v17.3211l-10,5.7729Z"/>
        <path class="cls-1" d="M430,830.84l10-5.7742V842.387L430,848.16Z"/>
        <path class="cls-1" d="M370,865.481l10-5.774v17.3211l-10,5.7729Z"/>
        <path class="cls-1" d="M390,853.9341l10-5.7742V865.481l-10,5.7729Z"/>
        <path class="cls-1" d="M330,888.575l10-5.774v17.3211l-10,5.7729Z"/>
        <path class="cls-1" d="M350,877.0281l10-5.773v17.32l-10,5.7729Z"/>
      </g>
      <g>
        <path class="cls-1" d="M450,848.16l10-5.7729v17.32l-10,5.774Z"/>
        <path class="cls-1" d="M490,825.0659l10-5.7729v17.32l-10,5.774Z"/>
        <path class="cls-1" d="M470,836.613l10-5.7729v17.32l-10,5.7742Z"/>
        <path class="cls-1" d="M510,813.519l10-5.7729v17.32L510,830.84Z"/>
        <path class="cls-1" d="M530,801.9719l10-5.7729v17.32l-10,5.774Z"/>
        <path class="cls-1" d="M410,871.2539l10-5.7729v17.32l-10,5.774Z"/>
        <path class="cls-1" d="M430,859.707l10-5.7729v17.32l-10,5.7742Z"/>
        <path class="cls-1" d="M370,894.3479l10-5.7729v17.32l-10,5.7739Z"/>
        <path class="cls-1" d="M390,882.801l10-5.7729v17.32l-10,5.7742Z"/>
        <path class="cls-1" d="M330,917.4421l10-5.7732v17.32l-10,5.7739Z"/>
        <path class="cls-1" d="M350,905.895l10-5.7729v17.32l-10,5.774Z"/>
      </g>
      <g>
        <path d="M190,790.425l-10-5.7729v17.32l10,5.7742Z"/>
        <path d="M150,767.3311l-10-5.773v17.32l10,5.7742Z"/>
        <path d="M170,778.8779l-10-5.7729v17.32l10,5.774Z"/>
        <path d="M130,755.7839l-10-5.7729v17.32l10,5.7739Z"/>
        <path d="M110,744.2371l-10-5.773v17.32l10,5.7742Z"/>
        <path d="M230,813.519l-10-5.7729v17.32l10,5.7742Z"/>
        <path d="M210,801.9719l-10-5.7729v17.32l10,5.774Z"/>
        <path d="M270,836.613,260,830.84v17.32l10,5.7742Z"/>
        <path d="M310,859.707l-10-5.7729v17.32l10,5.7742Z"/>
        <path d="M250,825.0659l-10-5.7729v17.32l10,5.774Z"/>
        <path d="M290,848.16l-10-5.7729v17.32l10,5.774Z"/>
        <path d="M190,819.293l-10-5.774V830.84l10,5.7729Z"/>
        <path d="M150,796.199l-10-5.774v17.3211l10,5.7729Z"/>
        <path d="M170,807.7461l-10-5.7742V819.293l10,5.7729Z"/>
        <path d="M130,784.6521l-10-5.7742V796.199l10,5.7729Z"/>
        <path d="M110,773.105l-10-5.7739v17.321l10,5.7729Z"/>
        <path d="M230,842.387l-10-5.774v17.3211l10,5.7729Z"/>
        <path d="M210,830.84l-10-5.7742V842.387l10,5.7729Z"/>
        <path d="M270,865.481l-10-5.774v17.3211l10,5.7729Z"/>
        <path d="M250,853.9341,240,848.16V865.481l10,5.7729Z"/>
        <path d="M310,888.575l-10-5.774v17.3211l10,5.7729Z"/>
        <path d="M290,877.0281l-10-5.773v17.32l10,5.7741Z"/>
        <path d="M190,848.16l-10-5.7729v17.32l10,5.774Z"/>
        <path d="M150,825.0659l-10-5.7729v17.32l10,5.774Z"/>
        <path d="M170,836.613,160,830.84v17.32l10,5.7742Z"/>
        <path d="M130,813.519l-10-5.7729v17.32l10,5.7742Z"/>
        <path d="M110,801.9719l-10-5.7729v17.32l10,5.774Z"/>
        <path d="M230,871.2539l-10-5.7729v17.32l10,5.774Z"/>
        <path d="M210,859.707l-10-5.7729v17.32l10,5.7742Z"/>
        <path d="M270,894.3479l-10-5.7729v17.32l10,5.7739Z"/>
        <path d="M250,882.801l-10-5.7729v17.32l10,5.7742Z"/>
        <path d="M310,917.4421l-10-5.7732v17.32l10,5.7739Z"/>
        <path d="M290,905.895l-10-5.7729v17.32l10,5.774Z"/>
      </g>
      <path class="cls-5" d="M500,750.011l30,17.32v98.15L500,848.16Z"/>
      <path class="cls-6" d="M140,750.011l-30,17.32v98.15L140,848.16Z"/>
      <path class="cls-7" d="M530,767.3311h30v98.15H530Z"/>
      <path class="cls-7" d="M110,767.3311H80v98.15h30Z"/>
      <path class="cls-6" d="M560,767.3311l30-17.32V848.16L560,865.481Z"/>
      <path class="cls-5" d="M80,767.3311l-30-17.32V848.16L80,865.481Z"/>
      <path class="cls-2" d="M590,750.011V726.917l-40-23.094v17.32L500,750.011l30,17.32h30Z"/>
      <path class="cls-2" d="M50,750.011V726.917l40-23.094v17.32l50,28.8679-30,17.32H80Z"/>
      <path class="cls-2" d="M320,853.9341l40-23.094L340,819.293,320,830.84Z"/>
      <path class="cls-2" d="M320,853.9341,280,830.84l20-11.5471L320,830.84Z"/>
      <path class="cls-8" d="M540,778.8779h10V796.199H540Z"/>
      <path class="cls-8" d="M100,778.8779H90V796.199h10Z"/>
      <path class="cls-1" d="M570,773.105l10-5.7739v17.321l-10,5.7729Z"/>
      <path d="M70,773.105l-10-5.7739v17.321l10,5.7729Z"/>
      <path class="cls-8" d="M540,807.7461h10v17.32H540Z"/>
      <path class="cls-8" d="M100,807.7461H90v17.32h10Z"/>
      <path class="cls-1" d="M570,801.9719l10-5.7729v17.32l-10,5.774Z"/>
      <path d="M70,801.9719,60,796.199v17.32l10,5.774Z"/>
      <path class="cls-8" d="M540,836.613h10v17.3211H540Z"/>
      <path class="cls-8" d="M100,836.613H90v17.3211h10Z"/>
      <path class="cls-1" d="M570,830.84l10-5.7742V842.387L570,848.16Z"/>
      <path d="M70,830.84l-10-5.7742V842.387L70,848.16Z"/>
      <path d="M510,767.3311l10,5.7739v17.32l-10-5.7729Z"/>
      <path class="cls-1" d="M130,767.3311l-10,5.7739v17.32l10-5.7729Z"/>
      <path d="M510,796.199l10,5.7729V819.293l-10-5.774Z"/>
      <path class="cls-1" d="M130,796.199l-10,5.7729V819.293l10-5.774Z"/>
      <path d="M510,825.0659l10,5.7742v17.32l-10-5.7729Z"/>
      <path class="cls-1" d="M130,825.0659,120,830.84v17.32l10-5.7729Z"/>
      <path class="cls-9" d="M430,513.2971l10,5.7739,100-57.7349L510,444.015v11.547l10,5.7741Z"/>
      <path class="cls-5" d="M510,444.015l30,17.3211-5,2.8869-25-14.4339Z"/>
      <path class="cls-6" d="M520,461.3361v5.7729l-85,49.0751-5-2.887Z"/>
      <path class="cls-9" d="M200,519.071l10-5.7739-90-51.961,10-5.7741V444.015l-30,17.3211Z"/>
      <path class="cls-6" d="M100,461.3361l30-17.3211v5.7741L105,464.223Z"/>
      <path class="cls-5" d="M120,461.3361v5.7729l85,49.0751,5-2.887Z"/>
      <path class="cls-9" d="M430,611.447l-10-5.7739-30,17.321,10,5.773Z"/>
      <path class="cls-9" d="M530,761.5581h30l25-14.4341v-17.32l-30-17.3211V724.03l-45,25.981Z"/>
      <path class="cls-9" d="M110,761.5581H80L55,747.124v-17.32l30-17.3211V724.03l45,25.981Z"/>
      <path class="cls-9" d="M250,721.1431l10-5.773,30,17.32-10,5.7742Z"/>
      <path class="cls-9" d="M210,611.447l10-5.7739,30,17.321-10,5.773Z"/>
      <path class="cls-9" d="M390,721.1431l-10-5.773-30,17.32,10,5.7742Z"/>
      <path class="cls-9" d="M290,830.84l30,17.32,30-17.32-10-5.7742L320,836.613l-20-11.5471Z"/>
      <path class="cls-5" d="M420,611.447v-5.7739l10,5.7739-5,2.887Z"/>
      <path class="cls-6" d="M260,721.1431V715.37l-10,5.773,5,2.8869Z"/>
      <path class="cls-5" d="M380,721.1431V715.37l10,5.773-5,2.8869Z"/>
      <path class="cls-6" d="M300,830.84v-5.7742L290,830.84l5,2.887Z"/>
      <path class="cls-6" d="M220,611.447v-5.7739l-10,5.7739,5,2.887Z"/>
      <path class="cls-5" d="M340,830.84v-5.7742l10,5.7742-5,2.887Z"/>
      <path class="cls-6" d="M395,625.8811l25-14.4341v-5.7739l-30,17.321Z"/>
      <path class="cls-5" d="M285,735.5769l-25-14.4338V715.37l30,17.32Z"/>
      <path class="cls-6" d="M355,735.5769l25-14.4338V715.37l-30,17.32Z"/>
      <path class="cls-5" d="M320,842.387,300,830.84v-5.7742l20,11.5471Z"/>
      <path class="cls-5" d="M245,625.8811,220,611.447v-5.7739l30,17.321Z"/>
      <path class="cls-6" d="M320,842.387,340,830.84v-5.7742L320,836.613Z"/>
      <path class="cls-6" d="M555,724.03v5.774l-40,23.0939-5-2.8869Z"/>
      <path class="cls-5" d="M85,724.03v5.774l40,23.0939,5-2.8869Z"/>
      <path class="cls-5" d="M555,712.4829l30,17.3211v5.7729l-30-17.32Z"/>
      <path class="cls-6" d="M85,712.4829,55,729.804v5.7729l30-17.32Z"/>
      <path class="concrete-right" d="M320,1021.365v5.7739L630,848.16V842.387Z"/>
      <path class="concrete-left" d="M0,836.613v5.774l320,184.7519v-5.7739Z"/>
      <path class="cls-2" d="M130,181.321v-8.66L320,62.964,510,172.661v8.66L320,291.017Z"/>
      <path class="cls-9" d="M320,276.584,500,172.661,320,68.738,140,172.661Z"/>
      <path class="cls-1" d="M320,265.037l150-86.6029V103.379L320,189.9811Z"/>
      <path d="M320,259.2631,170,172.661V103.379l150,86.6021Z"/>
      <path class="cls-2" d="M320,189.9811,470,103.379,320,16.776,170,103.379Z"/>
      <path class="cls-6" d="M320,282.3571v8.66L510,181.321v-8.66Z"/>
      <path class="cls-5" d="M320,282.3571v8.66L130,181.321v-8.66Z"/>
      <path class="cls-3" d="M320,241.943v23.094L170,178.4341V155.34Z"/>
      <path class="cls-4" d="M320,189.9811V207.302l150-86.603v-17.32Z"/>
      <path class="cls-3" d="M320,207.302v17.32L170,138.02V120.699Z"/>
      <path class="cls-4" d="M320,224.6221V241.943L470,155.34V138.02Z"/>
      <path class="cls-2" d="M340,213.0751v8.66l20,11.547,110-63.508v-8.66l-20-11.547Z"/>
      <path class="cls-2" d="M300,213.0751v8.66l-20,11.547L170,169.774v-8.66l20-11.547Z"/>
      <path d="M360,259.2631v-34.641l-20-11.547v34.641Z"/>
      <path class="cls-1" d="M280,259.2631v-34.641l20-11.547v34.641Z"/>
      <path class="cls-1" d="M470,161.114v34.641L360,259.2631v-34.641Z"/>
      <path class="cls-3" d="M170,161.114v34.641l110,63.5081v-34.641Z"/>
      <path class="cls-5" d="M360,233.282l-20-11.547v-8.66l20,11.547Z"/>
      <path class="cls-6" d="M280,233.282l20-11.547v-8.66l-20,11.547Z"/>
      <path d="M340,253.49l10,5.7731,5-2.8871v-5.773l-15-8.66Z"/>
      <path class="cls-1" d="M285,250.603l15-8.66V253.49l-10,5.7731-5-2.8871Z"/>
      <path class="cls-6" d="M145,175.547l25-14.433V155.34l-30,17.321Z"/>
      <path class="cls-5" d="M495,175.547l5-2.886L470,155.34v5.774Z"/>
      <path class="cls-9" d="M350,213.0751l10,5.7739,100-57.735-10-5.774Z"/>
      <path class="cls-6" d="M350,213.0751,450,155.34v5.774l-95,54.848Z"/>
      <path class="cls-5" d="M455,164l-5-2.886V155.34l10,5.774Z"/>
      <path class="cls-9" d="M180,161.114l10-5.774,100,57.7351-10,5.7739Z"/>
      <path class="cls-5" d="M190,155.34v5.774l95,54.848,5-2.8869Z"/>
      <path class="cls-6" d="M180,161.114l10-5.774v5.774L185,164Z"/>
      <path class="cls-4" d="M380,247.7161l15-8.66V210.188l-15,8.661Z"/>
      <path d="M260,247.7161l-15-8.66V210.188l15,8.661Z"/>
      <path class="cls-4" d="M410,230.396l15-8.661V192.868l-15,8.66Z"/>
      <path d="M230,230.396l-15-8.661V192.868l15,8.66Z"/>
      <path class="cls-4" d="M440,213.0751l15-8.66V175.547l-15,8.661Z"/>
      <path d="M200,213.0751l-15-8.66V175.547l15,8.661Z"/>
      <path class="cls-6" d="M360,224.6221v8.66l110-63.508v-8.66Z"/>
      <path class="cls-5" d="M280,224.6221v8.66L170,169.774v-8.66Z"/>
    </g>
    <g>
      <path class="cls-5" d="M320,190.526,170,103.923V86.6021l150,86.603Z"/>
      <path class="cls-2" d="M320,173.2051l150-86.603L320,0,170,86.6021Z"/>
      <path class="cls-9" d="M180,86.603l140-80.83,140,80.83L320,167.432Z"/>
      <path class="cls-6" d="M320,173.2051V190.526l150-86.603V86.6021Z"/>
      <path class="cls-10" d="M320,161.6581,440,92.376V69.282L320,138.564Z"/>
      <path class="cls-11" d="M320,161.6581,200,92.376V69.282l120,69.282Z"/>
      <path class="cls-12" d="M320,138.564V28.8671L200,69.282Z"/>
      <path class="cls-13" d="M440,69.282,320,138.564V28.8671Z"/>
      <path class="cls-14" d="M320,28.8671V0L440,69.282Z"/>
      <path class="cls-11" d="M200,69.282,320,0V28.8671Z"/>
      <path class="cls-6" d="M200,80.829l-15,8.66-5-2.886,20-11.5479Z"/>
      <path class="cls-5" d="M455,89.489l-15-8.66V75.0551L460,86.603Z"/>
    </g>
  </g>
</svg>
