<svg id="Layer_1" data-name="Layer 1" xmlns="http://www.w3.org/2000/svg" xmlns:xlink="http://www.w3.org/1999/xlink" viewBox="0 0 300 468.472">
  <defs>
    <style>
      .cls-1 {
        fill: none;
      }

      .cls-2 {
        fill: #d0c9cb;
      }

      .cls-3 {
        fill: #555454;
      }

      .cls-4 {
        fill: #959293;
      }

      .cls-5 {
        fill: #e8e8e8;
      }

      .cls-6 {
        fill: #2e2e2e;
      }

      .cls-7 {
        fill: #eacb87;
      }

      .cls-8 {
        fill: #bd9664;
      }

      .cls-9 {
        fill: #ffe4a8;
      }

      .cls-10 {
        fill: #795a30;
      }

      .cls-11 {
        fill: url(#linear-gradient);
      }

      .cls-12 {
        fill: url(#linear-gradient-2);
      }

      .cls-13 {
        fill: url(#linear-gradient-3);
      }

      .cls-14 {
        fill: url(#linear-gradient-4);
      }

      .cls-15 {
        fill: #1e1d1c;
      }

      .cls-16 {
        fill: #4d3b24;
      }

      .cls-17 {
        fill: url(#linear-gradient-5);
      }

      .cls-18 {
        fill: url(#linear-gradient-6);
      }

      .cls-19 {
        fill: url(#linear-gradient-7);
      }

      .cls-20 {
        fill: url(#linear-gradient-8);
      }

      .cls-21 {
        fill: url(#linear-gradient-9);
      }

      .cls-22 {
        fill: url(#linear-gradient-10);
      }

      .cls-23 {
        fill: url(#linear-gradient-11);
      }

      .cls-24 {
        fill: url(#linear-gradient-12);
      }

      .cls-25 {
        fill: url(#linear-gradient-13);
      }

      .cls-26 {
        fill: url(#linear-gradient-14);
      }

      .cls-27 {
        fill: url(#linear-gradient-15);
      }

      .cls-28 {
        fill: url(#linear-gradient-16);
      }

      .cls-29 {
        fill: #a4a4a4;
      }

      .cls-30 {
        fill: #666;
      }

      .cls-31 {
        fill: #a2a2a2;
      }

      .cls-32 {
        fill: #d1d1d1;
      }

      .cls-33 {
        fill: #4a4a4a;
      }

      .cls-34 {
        fill: #b5b5b5;
      }

      .cls-35 {
        fill: #6c6c6c;
      }

      .cls-36 {
        fill: #a8dcf8;
      }

      .cls-37 {
        clip-path: url(#clip-path);
      }

      .cls-38 {
        fill: #fff;
      }

      .cls-39 {
        fill: #212121;
      }

      .cls-40 {
        fill: url(#linear-gradient-17);
      }

      .cls-41 {
        clip-path: url(#clip-path-2);
      }

      .cls-42 {
        fill: #464646;
      }
    </style>
    <linearGradient id="linear-gradient" x1="-663.2658" y1="729.2915" x2="-662.0693" y2="730.5429" gradientTransform="matrix(27.5, 0, 0, -15.877, 18381, 12021.1379)" gradientUnits="userSpaceOnUse">
      <stop offset="0" stop-color="#00564a"/>
      <stop offset="0.9783" stop-color="#169d65"/>
    </linearGradient>
    <linearGradient id="linear-gradient-2" x1="279.6615" y1="724.5612" x2="280.8579" y2="725.8127" gradientTransform="translate(3937.25 6196.0491) rotate(180) scale(13.75 7.939)" xlink:href="#linear-gradient"/>
    <linearGradient id="linear-gradient-3" x1="279.6615" y1="724.5612" x2="280.858" y2="725.8126" gradientTransform="translate(3882.25 6164.2801) rotate(180) scale(13.75 7.939)" xlink:href="#linear-gradient"/>
    <linearGradient id="linear-gradient-4" x1="-663.2658" y1="729.2915" x2="-662.0693" y2="730.5429" gradientTransform="matrix(27.5, 0, 0, -15.877, 18478.5, 11964.8059)" xlink:href="#linear-gradient"/>
    <linearGradient id="linear-gradient-5" x1="-3485.2469" y1="723.931" x2="-3484.2719" y2="724.1547" gradientTransform="matrix(2.756, 0, 0, -7.162, 9759.7346, 5603.8432)" gradientUnits="userSpaceOnUse">
      <stop offset="0" stop-color="#332716"/>
      <stop offset="1" stop-color="#603d16"/>
    </linearGradient>
    <linearGradient id="linear-gradient-6" x1="-871.5688" y1="730.9459" x2="-870.6438" y2="731.3171" gradientTransform="matrix(16.539, 0, 0, -22.28, 14563.1108, 16694.4245)" gradientUnits="userSpaceOnUse">
      <stop offset="0" stop-color="#00564a"/>
      <stop offset="1" stop-color="#169d65"/>
    </linearGradient>
    <linearGradient id="linear-gradient-7" x1="-3485.2469" y1="723.9311" x2="-3484.2719" y2="724.1548" gradientTransform="matrix(2.756, 0, 0, -7.162, 9857.5481, 5547.5101)" xlink:href="#linear-gradient-5"/>
    <linearGradient id="linear-gradient-8" x1="-871.5688" y1="730.9459" x2="-870.6438" y2="731.317" gradientTransform="matrix(16.539, 0, 0, -22.28, 14660.9224, 16638.0915)" xlink:href="#linear-gradient-6"/>
    <linearGradient id="linear-gradient-9" x1="-3485.2469" y1="723.9311" x2="-3484.2719" y2="724.1548" gradientTransform="matrix(2.756, 0, 0, -7.162, 9841.6341, 5556.4492)" xlink:href="#linear-gradient-5"/>
    <linearGradient id="linear-gradient-10" x1="-871.5689" y1="730.9459" x2="-870.6439" y2="731.3171" gradientTransform="matrix(16.539, 0, 0, -22.28, 14645.0103, 16647.0305)" xlink:href="#linear-gradient-6"/>
    <linearGradient id="linear-gradient-11" x1="-3485.2469" y1="723.9311" x2="-3484.2719" y2="724.1548" gradientTransform="matrix(2.756, 0, 0, -7.162, 9695.2161, 5613.6272)" xlink:href="#linear-gradient-5"/>
    <linearGradient id="linear-gradient-12" x1="-871.5689" y1="730.9459" x2="-870.6439" y2="731.3171" gradientTransform="matrix(16.539, 0, 0, -22.28, 14498.5923, 16704.2085)" xlink:href="#linear-gradient-6"/>
    <linearGradient id="linear-gradient-13" x1="-3485.2469" y1="723.9311" x2="-3484.2719" y2="724.1548" gradientTransform="matrix(2.756, 0, 0, -7.162, 9640.2161, 5581.8731)" xlink:href="#linear-gradient-5"/>
    <linearGradient id="linear-gradient-14" x1="-871.5689" y1="730.9459" x2="-870.6439" y2="731.3171" gradientTransform="matrix(16.539, 0, 0, -22.28, 14443.5923, 16672.4545)" xlink:href="#linear-gradient-6"/>
    <linearGradient id="linear-gradient-15" x1="-3485.2469" y1="723.931" x2="-3484.2719" y2="724.1547" gradientTransform="matrix(2.756, 0, 0, -7.162, 9743.8206, 5612.7821)" xlink:href="#linear-gradient-5"/>
    <linearGradient id="linear-gradient-16" x1="-871.5688" y1="730.9459" x2="-870.6438" y2="731.3171" gradientTransform="matrix(16.539, 0, 0, -22.28, 14547.1968, 16703.3635)" xlink:href="#linear-gradient-6"/>
    <clipPath id="clip-path">
      <polygon class="cls-1" points="252.833 15.555 123.895 89.997 123.895 138.884 252.833 64.442 252.833 15.555"/>
    </clipPath>
    <linearGradient id="linear-gradient-17" x1="-598.526" y1="732.7461" x2="-597.3047" y2="732.8577" gradientTransform="matrix(34.64, 0, 0, -42.221, 20914.4887, 31069.5425)" gradientUnits="userSpaceOnUse">
      <stop offset="0" stop-color="#e8e8e8"/>
      <stop offset="0.9826" stop-color="#8b8b8b"/>
    </linearGradient>
    <clipPath id="clip-path-2">
      <path class="cls-1" d="M216.2686,114.339v-.581c0-.849-.5977-1.194-1.334-.77l-.59.341-30.792,17.778-.5908.341a2.9483,2.9483,0,0,0-1.333,2.31v.682h0c0,11.038,7.7607,15.519,17.32,10h0c9.5586-5.519,17.3194-19.007,17.3194-30.101Z"/>
    </clipPath>
  </defs>
  <title>Artboard 1</title>
  <g id="Group">
    <g id="Group-2" data-name="Group">
      <g id="Group-3" data-name="Group">
        <path id="Path" class="cls-2" d="M35,399.19v2.887L7.5,386.2l2.5-1.444Z"/>
        <path id="Path-2" data-name="Path" class="cls-2" d="M32.5,403.52v2.887L5,390.53l2.5-1.444Z"/>
        <path id="Path-3" data-name="Path" class="cls-2" d="M30,407.85v2.887L2.5,394.86,5,393.416Z"/>
        <path id="Path-4" data-name="Path" class="cls-2" d="M5,393.416V390.53l2.5-1.444V386.2l2.5-1.444v-2.887l2.5-1.443L35,393.416,25,413.624,0,399.19l2.5-1.443V394.86Z"/>
        <path id="Path-5" data-name="Path" class="cls-3" d="M35,396.303v2.887L10,384.756V381.87Z"/>
        <path id="Path-6" data-name="Path" class="cls-3" d="M35,402.077v2.887L7.5,389.086V386.2Z"/>
        <path id="Path-7" data-name="Path" class="cls-3" d="M32.5,406.407v2.887L5,393.417V390.53Z"/>
        <path id="Path-8" data-name="Path" class="cls-3" d="M25,407.85v2.887L2.5,397.747V394.86Z"/>
        <path id="Path-9" data-name="Path" class="cls-3" d="M25,413.624v2.887L0,402.077V399.19Z"/>
        <path id="Path-10" data-name="Path" class="cls-2" d="M50,402.077,40,407.85l-12.5-7.217-1.25-3.622,7.5-4.33Z"/>
        <path id="Path-11" data-name="Path" class="cls-4" d="M45,402.077l-5,2.886-2.5-1.443v5.774l2.5,1.429,5-2.887Z"/>
        <path id="Path-12" data-name="Path" class="cls-4" d="M40,410.723l-2.5-1.429-5,2.886v5.774l2.5,1.429,5-2.887Z"/>
        <path id="Path-13" data-name="Path" class="cls-2" d="M40,410.737l-5,2.887v2.886l-12.5-7.216-1.25-3.609,5-2.887Z"/>
        <path id="Path-14" data-name="Path" class="cls-3" d="M26.25,397.011v5.773L40,410.723v-5.774Z"/>
        <path id="Path-15" data-name="Path" class="cls-3" d="M21.25,405.671v8.66L35,422.284V413.61Z"/>
        <path id="Path-16" data-name="Path" class="cls-2" d="M88.75,425.892l-2.5,1.444-40-23.094,2.5-1.444Z"/>
        <path id="Path-17" data-name="Path" class="cls-2" d="M85.625,428.418v2.887L42.5,406.407l2.5-1.443Z"/>
        <path id="Path-18" data-name="Path" class="cls-2" d="M85.625,434.192v2.887L40,410.737l2.5-1.443Z"/>
        <path id="Path-19" data-name="Path" class="cls-2" d="M85.625,439.965v2.887L37.5,415.067l2.5-1.443Z"/>
        <path id="Path-20" data-name="Path" class="cls-2" d="M37.5,415.067l2.5-1.443v-2.887l2.5-1.443v-2.887l2.5-1.444v-2.886l2.5-1.444L90,425.171l-4.375,23.455L35,419.397l2.5-1.443Z"/>
        <path id="Path-21" data-name="Path" class="cls-3" d="M87.5,426.614v2.887L45,404.963v-2.886Z"/>
        <path id="Path-22" data-name="Path" class="cls-3" d="M85.625,431.305v2.887L42.5,409.294v-2.887Z"/>
        <path id="Path-23" data-name="Path" class="cls-3" d="M85.625,437.079v2.886L40,413.624v-2.887Z"/>
        <path id="Path-24" data-name="Path" class="cls-3" d="M85.625,442.852v2.887L37.5,417.954v-2.887Z"/>
        <path id="Path-25" data-name="Path" class="cls-3" d="M85.625,448.626v2.886L32.5,420.841v-2.887Z"/>
        <path id="Path-26" data-name="Path" class="cls-2" d="M257.5,363.106v2.886l35-20.207-2.5-1.443Z"/>
        <path id="Path-27" data-name="Path" class="cls-2" d="M257.5,363.106v8.66L295,350.115l-7.5-4.33Z"/>
        <path id="Path-28" data-name="Path" class="cls-2" d="M257.5,368.879v8.66l40-23.094-7.5-4.33Z"/>
        <path id="Path-29" data-name="Path" class="cls-2" d="M257.5,374.653v8.66L300,358.775l-7.5-4.33Z"/>
        <path id="Path-30" data-name="Path" class="cls-4" d="M255,361.662v2.887l35-20.207v-2.887Z"/>
        <path id="Path-31" data-name="Path" class="cls-4" d="M257.5,365.992v2.887l35-20.207v-2.887Z"/>
        <path id="Path-32" data-name="Path" class="cls-4" d="M257.5,371.766v2.887L295,353.002v-2.887Z"/>
        <path id="Path-33" data-name="Path" class="cls-4" d="M257.5,377.539v2.887l40-23.094v-2.887Z"/>
        <path id="Path-34" data-name="Path" class="cls-4" d="M257.5,383.313V386.2L300,361.662v-2.886Z"/>
        <path id="Path-35" data-name="Path" class="cls-2" d="M227.5,374.653l7.5,4.33v2.886l27.5-15.877v-2.886l-7.5-4.33Z"/>
        <path id="Path-36" data-name="Path" class="cls-3" d="M230,376.096l5,2.887v5.773l-5-2.887Z"/>
        <path id="Path-37" data-name="Path" class="cls-3" d="M235,384.756l5,2.887,2.5-1.443v5.773l-2.5,1.444-5-2.887Z"/>
        <path id="Path-38" data-name="Path" class="cls-2" d="M262.5,365.992,235,381.869v2.887l5,2.887v2.887l27.5-15.877v-2.887l-5-2.887Z"/>
        <path id="Path-39" data-name="Path" class="cls-4" d="M262.5,363.106v5.773L235,384.756v-5.773Z"/>
        <path id="Path-40" data-name="Path" class="cls-4" d="M267.5,371.766v8.66L240,396.303v-8.66Z"/>
        <path id="Path-41" data-name="Path" class="cls-2" d="M115,442.491,290,341.455,185,280.833,10,381.869Z"/>
        <path id="Path-42" data-name="Path" class="cls-5" d="M25,306.814V301.04l160-92.376,90,51.962v5.773L115,358.775Z"/>
        <path id="Path-43" data-name="Path" class="cls-6" d="M115,353.002l-5-2.887v80.829l5,2.887,160-92.376V260.626Z"/>
        <path id="Path-44" data-name="Path" class="cls-4" d="M115,428.058l-5-2.887v5.773l5,2.887,160-92.376v-5.774Z"/>
        <g id="Group-4" data-name="Group">
          <g id="Group-5" data-name="Group">
            <path id="Path-45" data-name="Path" class="cls-7" d="M142.5,345.785l-20,11.547v66.395l20-11.547Z"/>
            <path id="Path-46" data-name="Path" class="cls-8" d="M132.5,351.559v66.395l10-5.774V345.785Z"/>
          </g>
          <g id="Group-6" data-name="Group">
            <path id="Path-47" data-name="Path" class="cls-7" d="M167.5,331.351l-20,11.547v72.169l20-11.547Z"/>
            <path id="Path-48" data-name="Path" class="cls-8" d="M157.5,337.125v72.169l10-5.774V331.351Z"/>
          </g>
          <g id="Group-7" data-name="Group">
            <path id="Path-49" data-name="Path" class="cls-7" d="M217.5,302.484l-20,11.547V386.2l20-11.547Z"/>
            <path id="Path-50" data-name="Path" class="cls-8" d="M207.5,308.257v72.169l10-5.773V302.484Z"/>
          </g>
          <g id="Group-8" data-name="Group">
            <path id="Path-51" data-name="Path" class="cls-7" d="M192.5,316.918l-20,11.547v72.168l20-11.547Z"/>
            <path id="Path-52" data-name="Path" class="cls-8" d="M182.5,322.691V394.86l10-5.774V316.918Z"/>
          </g>
          <g id="Group-9" data-name="Group">
            <path id="Path-53" data-name="Path" class="cls-7" d="M242.5,288.05l-20,11.547v66.395l20-11.547Z"/>
            <path id="Path-54" data-name="Path" class="cls-8" d="M232.5,293.824v66.395l10-5.774V288.05Z"/>
          </g>
          <g id="Group-10" data-name="Group">
            <path id="Path-55" data-name="Path" class="cls-7" d="M267.5,273.616l-20,11.547v66.396l20-11.547Z"/>
            <path id="Path-56" data-name="Path" class="cls-8" d="M257.5,279.39v66.395l10-5.773V273.616Z"/>
          </g>
        </g>
        <path id="Path-57" data-name="Path" d="M115,353.002v80.829L25,381.869V301.041Z"/>
        <path id="Path-58" data-name="Path" class="cls-6" d="M195,368.879l10-5.773v1.443l-10,5.774Z"/>
        <path id="Path-59" data-name="Path" class="cls-6" d="M210,360.219l10-5.774v1.444l-10,5.773Z"/>
        <path id="Path-60" data-name="Path" class="cls-7" d="M187.5,371.766l55-31.754v5.773l-55,31.754Z"/>
        <path id="Path-61" data-name="Path" class="cls-9" d="M167.5,360.219l55-31.754,20,11.547-55,31.754Z"/>
        <path id="Path-62" data-name="Path" class="cls-3" d="M115,433.831v-5.773L25,376.096v5.773Z"/>
        <path id="Path-63" data-name="Path" class="cls-7" d="M177.5,355.889l2.5-1.444,15,8.661-2.5,1.443Z"/>
        <path id="Path-64" data-name="Path" class="cls-7" d="M191.25,347.95l2.5-1.443,15,8.66-2.5,1.443Z"/>
        <path id="Path-65" data-name="Path" class="cls-7" d="M206.25,339.29l2.5-1.443,15,8.66-2.5,1.443Z"/>
        <path id="Path-66" data-name="Path" class="cls-7" d="M220,331.351l2.5-1.443,15,8.66-2.5,1.444Z"/>
        <path id="Path-67" data-name="Path" class="cls-7" d="M173.75,358.054l2.5-1.443,15,8.66-2.5,1.443Z"/>
        <path id="Path-68" data-name="Path" class="cls-7" d="M187.5,350.115l2.5-1.443,15,8.66-2.5,1.443Z"/>
        <path id="Path-69" data-name="Path" class="cls-7" d="M202.5,341.455l2.5-1.443,15,8.66-2.5,1.443Z"/>
        <path id="Path-70" data-name="Path" class="cls-7" d="M216.25,333.516l2.5-1.443,15,8.66-2.5,1.444Z"/>
        <path id="Path-71" data-name="Path" class="cls-7" d="M170,360.219l2.5-1.443,15,8.66-2.5,1.443Z"/>
        <path id="Path-72" data-name="Path" class="cls-7" d="M183.75,352.28l2.5-1.443,15,8.66-2.5,1.443Z"/>
        <path id="Path-73" data-name="Path" class="cls-7" d="M198.75,343.62l2.5-1.443,15,8.66-2.5,1.443Z"/>
        <path id="Path-74" data-name="Path" class="cls-7" d="M212.5,335.681l2.5-1.443,15,8.66-2.5,1.444Z"/>
        <path id="Path-75" data-name="Path" class="cls-10" d="M180,354.445v2.887l12.5,7.217,2.5-1.443Z"/>
        <path id="Path-76" data-name="Path" class="cls-10" d="M193.75,346.507v2.886l12.5,7.217,2.5-1.443Z"/>
        <path id="Path-77" data-name="Path" class="cls-10" d="M208.75,337.847v2.886l12.5,7.217,2.5-1.443Z"/>
        <path id="Path-78" data-name="Path" class="cls-10" d="M222.5,329.908v2.887l12.5,7.217,2.5-1.444Z"/>
        <path id="Path-79" data-name="Path" class="cls-10" d="M176.25,356.611v2.886l12.5,7.217,2.5-1.443Z"/>
        <path id="Path-80" data-name="Path" class="cls-10" d="M190,348.672v2.886l12.5,7.217,2.5-1.443Z"/>
        <path id="Path-81" data-name="Path" class="cls-10" d="M205,340.012v2.886l12.5,7.217,2.5-1.443Z"/>
        <path id="Path-82" data-name="Path" class="cls-10" d="M218.75,332.073v2.887l12.5,7.217,2.5-1.444Z"/>
        <path id="Path-83" data-name="Path" class="cls-10" d="M172.5,358.776v2.886l12.5,7.217,2.5-1.443Z"/>
        <path id="Path-84" data-name="Path" class="cls-10" d="M186.25,350.837v2.886l12.5,7.217,2.5-1.443Z"/>
        <path id="Path-85" data-name="Path" class="cls-10" d="M201.25,342.177v2.886l12.5,7.217,2.5-1.443Z"/>
        <path id="Path-86" data-name="Path" class="cls-10" d="M215,334.238v2.887l12.5,7.217,2.5-1.444Z"/>
        <path id="Path-87" data-name="Path" class="cls-2" d="M157.5,417.954l5,2.887,70-40.415-5-2.887Z"/>
        <path id="Path-88" data-name="Path" class="cls-2" d="M160,422.284l5,2.887,70-40.415-5-2.886Z"/>
        <path id="Path-89" data-name="Path" class="cls-2" d="M162.5,426.614l5,2.887,70-40.414-5-2.887Z"/>
        <path id="Path-90" data-name="Path" class="cls-2" d="M165,430.944l5,2.887,70-40.414-5-2.887Z"/>
        <path id="Path-91" data-name="Path" class="cls-4" d="M160,416.511v2.886l70-40.414v-2.887Z"/>
        <path id="Path-92" data-name="Path" class="cls-4" d="M162.5,420.841v2.887l70-40.415v-2.887Z"/>
        <path id="Path-93" data-name="Path" class="cls-4" d="M165,425.171v2.887l70-40.415v-2.887Z"/>
        <path id="Path-94" data-name="Path" class="cls-4" d="M167.5,429.501v2.887l70-40.415v-2.886Z"/>
        <path id="Path-95" data-name="Path" class="cls-4" d="M170,433.831v2.887l70-40.415v-2.886Z"/>
        <path id="Path-96" data-name="Path" class="cls-2" d="M130,430.986l7.5,4.33L165,419.439l-7.5-4.331Z"/>
        <path id="Path-97" data-name="Path" class="cls-2" d="M102.5,432.388v2.886L95,439.605l-12.5-7.217-1.25-3.609,7.5-4.33Z"/>
        <path id="Path-98" data-name="Path" class="cls-3" d="M132.5,432.388l5,2.886,2.5-1.443v5.773l-2.5,1.444-5-2.887Z"/>
        <path id="Path-99" data-name="Path" class="cls-4" d="M100,433.831l-5,2.887-2.5-1.444v5.774l2.5,1.443,5-2.887Z"/>
        <path id="Path-100" data-name="Path" class="cls-3" d="M137.5,441.048l5,2.887,2.5-1.444v5.774l-2.5,1.443-5-2.887Z"/>
        <path id="Path-101" data-name="Path" class="cls-4" d="M95,442.491l-5,2.887-2.5-1.443v5.773l2.5,1.443,5-2.886Z"/>
        <path id="Path-102" data-name="Path" class="cls-2" d="M137.5,438.161v2.887l5,2.887v2.886L170,430.944v-2.887l-7.5-4.33Z"/>
        <path id="Path-103" data-name="Path" class="cls-2" d="M95,442.491l-5,2.887v2.887l-12.5-7.217-1.25-3.609,5-2.886Z"/>
        <path id="Path-104" data-name="Path" class="cls-4" d="M165,419.397v5.774l-27.5,15.877v-5.774Z"/>
        <path id="Path-105" data-name="Path" class="cls-3" d="M81.25,428.779v5.774L95,442.491v-5.773Z"/>
        <path id="Path-106" data-name="Path" class="cls-4" d="M170,428.057v8.661l-27.5,15.877v-8.66Z"/>
        <path id="Path-107" data-name="Path" class="cls-3" d="M76.25,437.439V446.1L90,454.038v-8.66Z"/>
        <path id="Path-108" data-name="Path" class="cls-2" d="M115,445.378v2.887l20-11.547-2.5-1.444Z"/>
        <path id="Path-109" data-name="Path" class="cls-2" d="M115,445.378v2.887L97.5,438.161l2.5-1.443Z"/>
        <path id="Path-110" data-name="Path" class="cls-2" d="M115,451.151v2.887l22.5-12.99-2.5-1.443Z"/>
        <path id="Path-111" data-name="Path" class="cls-2" d="M115,451.152v2.886L95,442.491l2.5-1.443Z"/>
        <path id="Path-112" data-name="Path" class="cls-2" d="M115,456.925v2.887l25-14.434-2.5-1.443Z"/>
        <path id="Path-113" data-name="Path" class="cls-2" d="M115,456.925v2.887L92.5,446.821l2.5-1.443Z"/>
        <path id="Path-114" data-name="Path" class="cls-2" d="M137.5,441.048l-2.5-1.444v-2.886l-2.5-1.444v-5.773L115,439.604v25.981l27.5-15.877-2.5-1.443v-2.887l-2.5-1.443Z"/>
        <path id="Path-115" data-name="Path" class="cls-2" d="M92.5,446.821l2.5-1.443v-2.887l2.5-1.443v-2.887l2.5-1.443v-2.887l2.5-1.443,15,8.66v23.094l-2.5,1.443L90,451.152l2.5-1.444Z"/>
        <path id="Path-116" data-name="Path" class="cls-4" d="M115,442.491v2.887l17.5-10.104v-2.886Z"/>
        <path id="Path-117" data-name="Path" class="cls-3" d="M115,442.491v2.887l-15-8.66v-2.887Z"/>
        <path id="Path-118" data-name="Path" class="cls-4" d="M115,448.265v2.886l20-11.546v-2.887Z"/>
        <path id="Path-119" data-name="Path" class="cls-3" d="M115,448.265v2.886L97.5,441.048v-2.887Z"/>
        <path id="Path-120" data-name="Path" class="cls-4" d="M115,454.038v2.887l22.5-12.99v-2.887Z"/>
        <path id="Path-121" data-name="Path" class="cls-3" d="M115,454.038v2.887L95,445.378v-2.887Z"/>
        <path id="Path-122" data-name="Path" class="cls-4" d="M115,459.812v2.886l25-14.433v-2.887Z"/>
        <path id="Path-123" data-name="Path" class="cls-3" d="M115,459.812v2.887L92.5,449.708v-2.887Z"/>
        <path id="Path-124" data-name="Path" class="cls-4" d="M115,465.585v2.887l27.5-15.877v-2.887Z"/>
        <path id="Path-125" data-name="Path" class="cls-3" d="M115,465.585v2.887L90,454.038v-2.886Z"/>
        <path id="Path-126" data-name="Path" class="cls-11" d="M140,441.089l25-14.434,2.5,1.444-25,14.434Z"/>
        <path id="Path-127" data-name="Path" class="cls-12" d="M92.5,442.491l-11.25-6.495-2.5,1.443L90,443.935Z"/>
        <path id="Path-128" data-name="Path" class="cls-13" d="M37.5,410.722l-11.25-6.495-2.5,1.444L35,412.166Z"/>
        <path id="Path-129" data-name="Path" class="cls-14" d="M237.5,384.757l25-14.434,2.5,1.443L240,386.2Z"/>
        <path id="Path-130" data-name="Path" class="cls-15" d="M28.75,397.01l3.75-2.165,11.25,6.496L40,403.506Z"/>
        <path id="Path-131" data-name="Path" class="cls-15" d="M83.75,428.779l3.75-2.165,11.25,6.495L95,435.274Z"/>
        <g id="Group-11" data-name="Group">
          <path id="Path-132" data-name="Path" class="cls-16" d="M85,344.342l20,11.547v66.395L85,410.737Z"/>
          <path id="Path-133" data-name="Path" class="cls-10" d="M95,350.115v66.396l-10-5.774V344.342Z"/>
        </g>
        <g id="Group-12" data-name="Group">
          <path id="Path-134" data-name="Path" class="cls-16" d="M60,329.908l20,11.547V407.85L60,396.303Z"/>
          <path id="Path-135" data-name="Path" class="cls-10" d="M70,335.682v66.395l-10-5.774V329.908Z"/>
        </g>
        <g id="Group-13" data-name="Group">
          <path id="Path-136" data-name="Path" class="cls-16" d="M35,315.474l20,11.547v66.396L35,381.87Z"/>
          <path id="Path-137" data-name="Path" class="cls-10" d="M45,321.248v66.395L35,381.87V315.474Z"/>
        </g>
        <path id="Path-138" data-name="Path" class="cls-15" d="M162.5,419.439l-3.75-2.166-25,14.434,3.75,2.165Z"/>
        <path id="Path-139" data-name="Path" class="cls-15" d="M260,363.106l-3.75-2.166-25,14.434L235,377.54Z"/>
        <g id="Group-14" data-name="Group">
          <g id="Group-15" data-name="Group">
            <g id="Group-16" data-name="Group">
              <path id="Compound_Shape" data-name="Compound Shape" class="cls-17" d="M157.1484,421.251h0c0,.439-.6181.796-1.38.796-.76,0-1.378-.357-1.378-.796h0v-6.366h2.7578v6.366Z"/>
              <ellipse id="Ellipse" class="cls-18" cx="155.7695" cy="404.8763" rx="8.2695" ry="11.1401"/>
            </g>
          </g>
        </g>
        <g id="Group-17" data-name="Group">
          <g id="Group-18" data-name="Group">
            <g id="Group-19" data-name="Group">
              <path id="Compound_Shape-2" data-name="Compound Shape" class="cls-19" d="M254.96,364.918h0c0,.439-.6172.796-1.378.796s-1.3779-.357-1.3779-.796h0v-6.366H254.96v6.366Z"/>
              <ellipse id="Ellipse-2" data-name="Ellipse" class="cls-20" cx="253.582" cy="348.5434" rx="8.2695" ry="11.1401"/>
            </g>
          </g>
        </g>
        <g id="Group-20" data-name="Group">
          <g id="Group-21" data-name="Group">
            <g id="Group-22" data-name="Group">
              <path id="Compound_Shape-3" data-name="Compound Shape" class="cls-21" d="M239.0459,373.857h0c0,.439-.6172.796-1.3779.796s-1.378-.357-1.378-.796h0v-6.366h2.7559v6.366Z"/>
              <ellipse id="Ellipse-3" data-name="Ellipse" class="cls-22" cx="237.668" cy="357.4821" rx="8.2695" ry="11.1401"/>
            </g>
          </g>
        </g>
        <g id="Group-23" data-name="Group">
          <g id="Group-24" data-name="Group">
            <path id="Compound_Shape-4" data-name="Compound Shape" class="cls-23" d="M92.6279,431.035h0c0,.439-.6172.796-1.3779.796s-1.3779-.357-1.3779-.796h0v-6.366h2.7558v6.366Z"/>
            <ellipse id="Ellipse-4" data-name="Ellipse" class="cls-24" cx="91.25" cy="414.6603" rx="8.2695" ry="11.1401"/>
          </g>
        </g>
        <g id="Group-25" data-name="Group">
          <g id="Group-26" data-name="Group">
            <path id="Compound_Shape-5" data-name="Compound Shape" class="cls-25" d="M37.6279,399.281h0c0,.439-.6172.796-1.3779.796s-1.3779-.357-1.3779-.796h0v-6.366h2.7558v6.366Z"/>
            <ellipse id="Ellipse-5" data-name="Ellipse" class="cls-26" cx="36.25" cy="382.9064" rx="8.2695" ry="11.1401"/>
          </g>
        </g>
        <g id="Group-27" data-name="Group">
          <path id="Path-140" data-name="Path" class="cls-7" d="M142.5,345.785l-20,11.547v66.395l20-11.547Z"/>
          <path id="Path-141" data-name="Path" class="cls-8" d="M132.5,351.559v66.395l10-5.774V345.785Z"/>
        </g>
        <path id="Path-142" data-name="Path" class="cls-10" d="M187.5,377.539l-20-11.547v-5.773l20,11.547Z"/>
        <g id="Group-28" data-name="Group">
          <g id="Group-29" data-name="Group">
            <g id="Group-30" data-name="Group">
              <path id="Compound_Shape-6" data-name="Compound Shape" class="cls-27" d="M141.2344,430.19h0c0,.439-.6182.796-1.378.796-.7617,0-1.38-.357-1.38-.796h0v-6.366h2.7578v6.366Z"/>
              <ellipse id="Ellipse-6" data-name="Ellipse" class="cls-28" cx="139.8555" cy="413.815" rx="8.2695" ry="11.1401"/>
            </g>
          </g>
        </g>
      </g>
      <g id="Group-31" data-name="Group">
        <path id="Path-143" data-name="Path" class="cls-29" d="M25.05,177.698V166.095l160-92.376,90,51.961v11.604l-160,92.376Z"/>
        <path id="Path-144" data-name="Path" class="cls-6" d="M275.05,125.68V261.499l-160,92.376-10-5.774V212.283l10,5.773Z"/>
        <path id="Path-145" data-name="Path" d="M25.05,166.151V301.913l90,51.962V218.113Z"/>
        <g id="Group-32" data-name="Group">
          <g id="Group-33" data-name="Group">
            <path id="Path-146" data-name="Path" class="cls-16" d="M85.05,241.292l20,11.547v23.094l-20-11.547Z"/>
            <path id="Path-147" data-name="Path" class="cls-10" d="M95.05,247.065v23.094l-10-5.773V241.292Z"/>
          </g>
          <g id="Group-34" data-name="Group">
            <path id="Path-148" data-name="Path" class="cls-16" d="M60.05,226.858l20,11.547v23.094l-20-11.547Z"/>
            <path id="Path-149" data-name="Path" class="cls-10" d="M70.05,232.631v23.094l-10-5.773V226.858Z"/>
          </g>
          <g id="Group-35" data-name="Group">
            <path id="Path-150" data-name="Path" class="cls-16" d="M35.05,212.424l20,11.547v23.094l-20-11.547Z"/>
            <path id="Path-151" data-name="Path" class="cls-10" d="M45.05,218.198v23.094l-10-5.774V212.424Z"/>
          </g>
        </g>
        <g id="Group-36" data-name="Group">
          <g id="Group-37" data-name="Group">
            <path id="Path-152" data-name="Path" class="cls-16" d="M85.05,273.046l20,11.547v23.094l-20-11.547Z"/>
            <path id="Path-153" data-name="Path" class="cls-10" d="M95.05,278.819v23.094l-10-5.773V273.046Z"/>
          </g>
          <g id="Group-38" data-name="Group">
            <path id="Path-154" data-name="Path" class="cls-16" d="M60.05,258.612l20,11.547v23.094l-20-11.547Z"/>
            <path id="Path-155" data-name="Path" class="cls-10" d="M70.05,264.386V287.48l-10-5.774V258.612Z"/>
          </g>
          <g id="Group-39" data-name="Group">
            <path id="Path-156" data-name="Path" class="cls-16" d="M35.05,244.178l20,11.547v23.094l-20-11.547Z"/>
            <path id="Path-157" data-name="Path" class="cls-10" d="M45.05,249.952v23.094l-10-5.774V244.178Z"/>
          </g>
        </g>
        <g id="Group-40" data-name="Group">
          <g id="Group-41" data-name="Group">
            <path id="Path-158" data-name="Path" class="cls-16" d="M85.05,209.537l20,11.547v23.094l-20-11.547Z"/>
            <path id="Path-159" data-name="Path" class="cls-10" d="M95.05,215.311v23.094l-10-5.774V209.537Z"/>
          </g>
          <g id="Group-42" data-name="Group">
            <path id="Path-160" data-name="Path" class="cls-16" d="M60.05,195.104l20,11.547v23.094l-20-11.547Z"/>
            <path id="Path-161" data-name="Path" class="cls-10" d="M70.05,200.877v23.094l-10-5.773V195.104Z"/>
          </g>
          <g id="Group-43" data-name="Group">
            <path id="Path-162" data-name="Path" class="cls-16" d="M35.05,180.67l20,11.547v23.094l-20-11.547Z"/>
            <path id="Path-163" data-name="Path" class="cls-10" d="M45.05,186.443v23.094l-10-5.773V180.67Z"/>
          </g>
        </g>
        <g id="Group-44" data-name="Group">
          <g id="Group-45" data-name="Group">
            <path id="Path-164" data-name="Path" class="cls-16" d="M85.05,304.8l20,11.547v23.094l-20-11.547Z"/>
            <path id="Path-165" data-name="Path" class="cls-10" d="M95.05,310.574v23.094l-10-5.774V304.8Z"/>
          </g>
          <g id="Group-46" data-name="Group">
            <path id="Path-166" data-name="Path" class="cls-16" d="M60.05,290.366l20,11.547v23.094l-20-11.547Z"/>
            <path id="Path-167" data-name="Path" class="cls-10" d="M70.05,296.14v23.094l-10-5.774V290.366Z"/>
          </g>
          <g id="Group-47" data-name="Group">
            <path id="Path-168" data-name="Path" class="cls-16" d="M35.05,275.933l20,11.547v23.094l-20-11.547Z"/>
            <path id="Path-169" data-name="Path" class="cls-10" d="M45.05,281.706V304.8l-10-5.773V275.933Z"/>
          </g>
        </g>
        <g id="Group-48" data-name="Group">
          <g id="Group-49" data-name="Group">
            <path id="Path-170" data-name="Path" class="cls-7" d="M142.55,210.981l-20,11.547v23.094l20-11.547Z"/>
            <path id="Path-171" data-name="Path" class="cls-8" d="M132.55,216.754v23.094l10-5.773V210.981Z"/>
          </g>
          <g id="Group-50" data-name="Group">
            <path id="Path-172" data-name="Path" class="cls-7" d="M167.55,196.547l-20,11.547v23.094l20-11.547Z"/>
            <path id="Path-173" data-name="Path" class="cls-8" d="M157.55,202.321v23.094l10-5.774V196.547Z"/>
          </g>
          <g id="Group-51" data-name="Group">
            <path id="Path-174" data-name="Path" class="cls-7" d="M217.55,167.68l-20,11.547v23.094l20-11.547Z"/>
            <path id="Path-175" data-name="Path" class="cls-8" d="M207.55,173.453v23.094l10-5.773V167.68Z"/>
          </g>
          <g id="Group-52" data-name="Group">
            <path id="Path-176" data-name="Path" class="cls-7" d="M192.55,182.113l-20,11.547v23.094l20-11.547Z"/>
            <path id="Path-177" data-name="Path" class="cls-8" d="M182.55,187.887v23.094l10-5.774V182.113Z"/>
          </g>
          <g id="Group-53" data-name="Group">
            <path id="Path-178" data-name="Path" class="cls-7" d="M242.55,153.246l-20,11.547v23.094l20-11.547Z"/>
            <path id="Path-179" data-name="Path" class="cls-8" d="M232.55,159.019v23.094l10-5.773V153.246Z"/>
          </g>
          <g id="Group-54" data-name="Group">
            <path id="Path-180" data-name="Path" class="cls-7" d="M267.55,138.812l-20,11.547v23.094l20-11.547Z"/>
            <path id="Path-181" data-name="Path" class="cls-8" d="M257.55,144.586V167.68l10-5.774V138.812Z"/>
          </g>
        </g>
        <g id="Group-55" data-name="Group">
          <g id="Group-56" data-name="Group">
            <path id="Path-182" data-name="Path" class="cls-7" d="M142.55,274.489l-20,11.547V309.13l20-11.547Z"/>
            <path id="Path-183" data-name="Path" class="cls-8" d="M132.55,280.263v23.094l10-5.774V274.489Z"/>
          </g>
          <g id="Group-57" data-name="Group">
            <path id="Path-184" data-name="Path" class="cls-7" d="M167.55,260.056l-20,11.547v23.094l20-11.547Z"/>
            <path id="Path-185" data-name="Path" class="cls-8" d="M157.55,265.829v23.094l10-5.773V260.056Z"/>
          </g>
          <g id="Group-58" data-name="Group">
            <path id="Path-186" data-name="Path" class="cls-7" d="M217.55,231.188l-20,11.547v23.094l20-11.547Z"/>
            <path id="Path-187" data-name="Path" class="cls-8" d="M207.55,236.962v23.094l10-5.774V231.188Z"/>
          </g>
          <g id="Group-59" data-name="Group">
            <path id="Path-188" data-name="Path" class="cls-7" d="M192.55,245.622l-20,11.547v23.094l20-11.547Z"/>
            <path id="Path-189" data-name="Path" class="cls-8" d="M182.55,251.395v23.094l10-5.773V245.622Z"/>
          </g>
          <g id="Group-60" data-name="Group">
            <path id="Path-190" data-name="Path" class="cls-7" d="M242.55,216.754l-20,11.547v23.094l20-11.547Z"/>
            <path id="Path-191" data-name="Path" class="cls-8" d="M232.55,222.528v23.094l10-5.774V216.754Z"/>
          </g>
          <g id="Group-61" data-name="Group">
            <path id="Path-192" data-name="Path" class="cls-7" d="M267.55,202.321l-20,11.547v23.094l20-11.547Z"/>
            <path id="Path-193" data-name="Path" class="cls-8" d="M257.55,208.094v23.094l10-5.773V202.321Z"/>
          </g>
        </g>
        <g id="Group-62" data-name="Group">
          <g id="Group-63" data-name="Group">
            <path id="Path-194" data-name="Path" class="cls-7" d="M142.55,242.735l-20,11.547v23.094l20-11.547Z"/>
            <path id="Path-195" data-name="Path" class="cls-8" d="M132.55,248.509v23.094l10-5.774V242.735Z"/>
          </g>
          <g id="Group-64" data-name="Group">
            <path id="Path-196" data-name="Path" class="cls-7" d="M167.55,228.301l-20,11.547v23.094l20-11.547Z"/>
            <path id="Path-197" data-name="Path" class="cls-8" d="M157.55,234.075v23.094l10-5.774V228.301Z"/>
          </g>
          <g id="Group-65" data-name="Group">
            <path id="Path-198" data-name="Path" class="cls-7" d="M217.55,199.434l-20,11.547v23.094l20-11.547Z"/>
            <path id="Path-199" data-name="Path" class="cls-8" d="M207.55,205.207v23.094l10-5.773V199.434Z"/>
          </g>
          <g id="Group-66" data-name="Group">
            <path id="Path-200" data-name="Path" class="cls-7" d="M192.55,213.868l-20,11.547v23.094l20-11.547Z"/>
            <path id="Path-201" data-name="Path" class="cls-8" d="M182.55,219.641v23.094l10-5.773V213.868Z"/>
          </g>
          <g id="Group-67" data-name="Group">
            <path id="Path-202" data-name="Path" class="cls-7" d="M242.55,185l-20,11.547v23.094l20-11.547Z"/>
            <path id="Path-203" data-name="Path" class="cls-8" d="M232.55,190.774v23.094l10-5.774V185Z"/>
          </g>
          <g id="Group-68" data-name="Group">
            <path id="Path-204" data-name="Path" class="cls-7" d="M267.55,170.566l-20,11.547v23.094l20-11.547Z"/>
            <path id="Path-205" data-name="Path" class="cls-8" d="M257.55,176.34v23.094l10-5.774V170.566Z"/>
          </g>
        </g>
        <g id="Group-69" data-name="Group">
          <g id="Group-70" data-name="Group">
            <path id="Path-206" data-name="Path" class="cls-7" d="M142.55,306.244l-20,11.547v23.094l20-11.547Z"/>
            <path id="Path-207" data-name="Path" class="cls-8" d="M132.55,312.017v23.094l10-5.773V306.244Z"/>
          </g>
          <g id="Group-71" data-name="Group">
            <path id="Path-208" data-name="Path" class="cls-7" d="M167.55,291.81l-20,11.547v23.094l20-11.547Z"/>
            <path id="Path-209" data-name="Path" class="cls-8" d="M157.55,297.583v23.094l10-5.773V291.81Z"/>
          </g>
          <g id="Group-72" data-name="Group">
            <path id="Path-210" data-name="Path" class="cls-7" d="M217.55,262.942l-20,11.547v23.094l20-11.547Z"/>
            <path id="Path-211" data-name="Path" class="cls-8" d="M207.55,268.716V291.81l10-5.774V262.942Z"/>
          </g>
          <g id="Group-73" data-name="Group">
            <path id="Path-212" data-name="Path" class="cls-7" d="M192.55,277.376l-20,11.547v23.094l20-11.547Z"/>
            <path id="Path-213" data-name="Path" class="cls-8" d="M182.55,283.15v23.094l10-5.774V277.376Z"/>
          </g>
          <g id="Group-74" data-name="Group">
            <path id="Path-214" data-name="Path" class="cls-7" d="M242.55,248.509l-20,11.547V283.15l20-11.547Z"/>
            <path id="Path-215" data-name="Path" class="cls-8" d="M232.55,254.282v23.094l10-5.773V248.509Z"/>
          </g>
          <g id="Group-75" data-name="Group">
            <path id="Path-216" data-name="Path" class="cls-7" d="M267.55,234.075l-20,11.547v23.094l20-11.547Z"/>
            <path id="Path-217" data-name="Path" class="cls-8" d="M257.55,239.848v23.094l10-5.773V234.075Z"/>
          </g>
        </g>
      </g>
      <g id="Group-76" data-name="Group">
        <path id="Path-218" data-name="Path" class="cls-29" d="M25.05,108.891V97.344l160-92.376,90,51.961v8.66l-160,92.377Z"/>
        <path id="Path-219" data-name="Path" d="M115.05,149.305l5-2.886v69.282l-5,2.886-90-51.961V97.344Z"/>
        <path id="Path-220" data-name="Path" class="cls-6" d="M275.05,56.929v69.282l-160,92.376V149.305Z"/>
        <path id="Path-221" data-name="Path" class="cls-30" d="M115.3906,143.56l150-86.602-80-46.188-150,86.602Z"/>
        <path id="Path-222" data-name="Path" d="M185.3906,10.77,180.05,22.288l5.3408,5.802,65,37.528,15-8.66Z"/>
        <path id="Path-223" data-name="Path" class="cls-6" d="M35.05,97.344,185.3906,10.77V28.09L50.05,106.004Z"/>
      </g>
    </g>
    <g id="Group-77" data-name="Group">
      <g id="Group-78" data-name="Group">
        <g id="Group-79" data-name="Group">
          <path id="Path-224" data-name="Path" class="cls-6" d="M210.7939,69.264V88.681l-67.2617,38.834V108.098Z"/>
        </g>
      </g>
      <path id="Path-225" data-name="Path" class="cls-31" d="M233.5889,2.222V24.443l3.85,2.223V8.888l7.6972,4.445,3.8487-2.223Z"/>
      <path id="Path-226" data-name="Path" class="cls-31" d="M172.0068,37.776V59.998l3.8487,2.222V44.443l7.6972,4.444,3.85-2.222Z"/>
      <path id="Path-227" data-name="Path" class="cls-32" d="M179.7041,59.998V46.665l-3.8486-2.222V62.22Z"/>
      <path id="Path-228" data-name="Path" class="cls-5" d="M245.1357,4.444,112.3486,81.108,108.5,78.886V74.442L237.4385,0Z"/>
      <path id="Path-229" data-name="Path" class="cls-32" d="M237.4385,8.888V4.444L179.7041,37.776l3.8486,2.223Z"/>
      <path id="Path-230" data-name="Path" class="cls-32" d="M175.8555,44.443V39.999L116.1982,74.442l3.8487,2.222Z"/>
      <path id="Path-231" data-name="Path" class="cls-5" d="M127.7441,81.108,112.3486,72.22,108.5,74.442l15.3945,8.889Z"/>
      <path id="Path-232" data-name="Path" class="cls-31" d="M108.5,74.442v65.203l3.8486,2.222V81.108l7.6983,4.445,3.8476-2.222Z"/>
      <path id="Path-233" data-name="Path" class="cls-32" d="M115.4971,143.635l.7011-.366V83.331l-3.85-2.223v60.709Z"/>
      <path id="Path-234" data-name="Path" class="cls-31" d="M175.8555,39.998l7.6972,4.445-3.8486,2.222-3.8486-2.222Z"/>
      <path id="Path-235" data-name="Path" class="cls-5" d="M252.833,8.888,237.4385,0l-3.85,2.222,15.3955,8.888Z"/>
      <path id="Path-236" data-name="Path" class="cls-32" d="M241.2871,24.443V11.11l-3.8486-2.222V26.666Z"/>
      <path id="Path-237" data-name="Path" class="cls-31" d="M237.4385,4.444l7.6972,4.444-3.8486,2.222-3.8486-2.222Z"/>
      <g id="Group-80" data-name="Group">
        <path id="Path-238" data-name="Path" class="cls-32" d="M120.0469,81.108l3.85,2.223v55.554L252.833,64.442V8.888l-3.8486-2.222Z"/>
        <g id="Group-81" data-name="Group">
          <path id="Path-239" data-name="Path" class="cls-31" d="M120.2207,81.315l3.6738,2.016v55.554l-3.8476,2.222Z"/>
          <path id="Path-240" data-name="Path" class="cls-33" d="M127.7441,81.108v6.667l-3.85,2.222-3.8476-2.222V81.108l3.8476,2.223Z"/>
          <path id="Path-241" data-name="Path" class="cls-34" d="M120.0469,81.108l3.85,2.223L252.833,8.888l-3.8486-2.222Z"/>
          <path id="Path-242" data-name="Path" class="cls-35" d="M252.833,8.888V24.443L123.8965,98.886V83.331Z"/>
          <path id="Mask" class="cls-36" d="M252.833,15.555,123.8945,89.997v48.887L252.833,64.442Z"/>
          <g class="cls-37">
            <g id="Group-82" data-name="Group">
              <path id="Ellipse-7" data-name="Ellipse" class="cls-38" d="M140.5654,120.761c0-14.945,11.6436-33.8,25.9844-42.08s25.9854-2.869,25.9854,12.075-11.6446,33.8-25.9854,42.08S140.5654,135.705,140.5654,120.761Z"/>
              <path id="Ellipse-8" data-name="Ellipse" class="cls-38" d="M237.4248,64.839c0-14.944-11.6436-20.355-25.9844-12.075s-25.9853,27.135-25.9853,42.08,11.6435,20.355,25.9853,12.075S237.4248,79.784,237.4248,64.839Z"/>
              <g id="Group-83" data-name="Group">
                <path id="Ellipse-9" data-name="Ellipse" class="cls-39" d="M157.17,111.174c0-8.175,6.37-18.491,14.2149-23.02,7.8466-4.53,14.2158-1.57,14.2158,6.606s-6.3692,18.491-14.2158,23.02C163.54,122.31,157.17,119.35,157.17,111.174Z"/>
                <g id="Group-84" data-name="Group">
                  <path id="Path-243" data-name="Path" class="cls-38" d="M174.1113,104.512l2.6367-6.616-2.7265-3.694c-.2031-.275-.4717-.24-.5977.077l-2.8662,7.191,2.36,3.196C173.3242,105.216,173.8584,105.147,174.1113,104.512Z"/>
                  <path id="Path-244" data-name="Path" class="cls-38" d="M168.91,103.061l4.7431-.283,5.5615-6.09c.2305-.252.1407-.44-.2011-.42l-5.36.321-5.1445,5.632C168.0479,102.726,168.2275,103.102,168.91,103.061Z"/>
                </g>
              </g>
              <g id="Group-85" data-name="Group">
                <path id="Ellipse-10" data-name="Ellipse" class="cls-39" d="M220.82,74.426c0-8.176-6.37-11.136-14.2148-6.606-7.8467,4.529-14.2168,14.845-14.2168,23.02s6.37,11.136,14.2168,6.607C214.45,92.917,220.82,82.602,220.82,74.426Z"/>
                <g id="Group-86" data-name="Group">
                  <path id="Path-245" data-name="Path" class="cls-38" d="M203.6016,86.951l-2.3594-3.196,2.8662-7.191c.126-.317.3936-.352.5957-.077l2.7266,3.694-2.6358,6.616C204.542,87.432,204.0068,87.501,203.6016,86.951Z"/>
                  <path id="Path-246" data-name="Path" class="cls-38" d="M209.4814,79.43l-5.1445,5.632-5.3613.321c-.3408.02-.4307-.168-.2-.42l5.5615-6.09,4.7432-.283C209.7617,78.549,209.9424,78.925,209.4814,79.43Z"/>
                </g>
              </g>
            </g>
          </g>
        </g>
      </g>
      <path id="Mask-2" data-name="Mask" class="cls-40" d="M216.2686,114.339v-.581c0-.849-.5977-1.194-1.334-.77l-.59.341-30.792,17.778-.5908.341a2.9483,2.9483,0,0,0-1.333,2.31v.682h0c0,11.038,7.7607,15.519,17.32,10h0c9.5586-5.519,17.3194-19.007,17.3194-30.101Z"/>
      <g class="cls-41">
        <path id="Path-247" data-name="Path" class="cls-7" d="M212.42,110.588l-34.64,20h0c0,12.264,7.7607,17.741,17.3193,12.222h0c9.56-5.519,17.32-19.957,17.32-32.222Z"/>
      </g>
      <path id="Path-248" data-name="Path" class="cls-5" d="M191.251,44.443l-15.3955-8.889-3.8487,2.222,15.3955,8.889Z"/>
      <path id="Path-249" data-name="Path" class="cls-42" d="M227.8154,85.139h0c0,7.359,4.3116,10.844,9.6231,7.778h0c5.3095-3.066,9.6211-11.53,9.6211-18.889h0Z"/>
      <path id="Path-250" data-name="Path" class="cls-42" d="M135.4424,138.471h0c0,7.359,4.3115,10.844,9.6221,7.778h0c5.31-3.067,9.622-11.53,9.622-18.889h0Z"/>
    </g>
  </g>
</svg>
