<svg id="Layer_1" data-name="Layer 1" xmlns="http://www.w3.org/2000/svg" xmlns:xlink="http://www.w3.org/1999/xlink" viewBox="0 0 170 485.4976">
  <defs>
    <style>
      .cls-1, .cls-15, .cls-17 {
        fill: none;
      }

      .cls-2 {
        fill: #e8e8e8;
      }

      .cls-3 {
        fill: #6ec0ff;
      }

      .cls-4 {
        fill: #37719d;
      }

      .cls-5 {
        fill: #d1d4d7;
      }

      .cls-6 {
        fill: #fff;
      }

      .cls-7 {
        fill: #ffd876;
      }

      .cls-8 {
        fill: #f4f5f7;
      }

      .cls-9 {
        fill: #f7f2ef;
      }

      .cls-10 {
        fill: #fffcfa;
      }

      .cls-11 {
        fill: #a2a2a2;
      }

      .cls-12 {
        fill: #d1d1d1;
      }

      .cls-13 {
        fill: url(#linear-gradient);
      }

      .cls-14 {
        fill: #e9ac5c;
      }

      .cls-15 {
        stroke: #ffe1bb;
      }

      .cls-15, .cls-17 {
        stroke-linecap: round;
        stroke-linejoin: round;
        stroke-width: 0.75px;
      }

      .cls-16 {
        fill: #fcef71;
      }

      .cls-17 {
        stroke: #fffbd7;
      }

      .cls-18 {
        fill: #747474;
      }

      .cls-19 {
        fill: #8b8b8b;
      }

      .cls-20 {
        fill: #f2cb67;
      }

      .cls-21 {
        fill: #ffe8ae;
      }

      .cls-22 {
        fill: #eadc5c;
      }

      .cls-23 {
        fill: #d79c50;
      }

      .cls-24 {
        fill: #5d5d5d;
      }

      .cls-25 {
        fill: #2e2e2e;
      }

      .cls-26 {
        clip-path: url(#clip-path);
      }

      .cls-27 {
        fill: #c38e48;
      }

      .cls-28 {
        clip-path: url(#clip-path-2);
      }

      .cls-29 {
        clip-path: url(#clip-path-3);
      }

      .cls-30 {
        clip-path: url(#clip-path-4);
      }

      .cls-31 {
        clip-path: url(#clip-path-5);
      }

      .cls-32 {
        clip-path: url(#clip-path-6);
      }

      .cls-33 {
        clip-path: url(#clip-path-7);
      }

      .cls-34 {
        fill: #ebaadf;
      }
    </style>
    <linearGradient id="linear-gradient" x1="-339.3139" y1="1313.9257" x2="-338.3139" y2="1313.9257" gradientTransform="matrix(135, 0, 0, -50.518, 45824.875, 66519.495)" gradientUnits="userSpaceOnUse">
      <stop offset="0.4652" stop-color="#e9ac5c"/>
      <stop offset="0.5609" stop-color="#fcef71"/>
    </linearGradient>
    <clipPath id="clip-path">
      <path class="cls-1" d="M73.895,12.5466h0c-2.1079,1.217-2.1079,3.193,0,4.409h0a8.4463,8.4463,0,0,0,7.6382,0h0c2.1079-1.216,2.1079-3.192,0-4.409h0A8.4463,8.4463,0,0,0,73.895,12.5466Z"/>
    </clipPath>
    <clipPath id="clip-path-2">
      <path class="cls-1" d="M74.5029,26.0706h0a1.2346,1.2346,0,0,0,0,2.338h0a4.4809,4.4809,0,0,0,4.05,0h0a1.2342,1.2342,0,0,0,0-2.338h0A4.4809,4.4809,0,0,0,74.5029,26.0706Z"/>
    </clipPath>
    <clipPath id="clip-path-3">
      <path class="cls-1" d="M61.3682,17.2506h0a1.2348,1.2348,0,0,0,0,2.339h0a4.48,4.48,0,0,0,4.05,0h0a1.2351,1.2351,0,0,0,0-2.339h0A4.48,4.48,0,0,0,61.3682,17.2506Z"/>
    </clipPath>
    <clipPath id="clip-path-4">
      <path class="cls-1" d="M96.6938,42.6086h0a1.2343,1.2343,0,0,0,0,2.338h0a4.4809,4.4809,0,0,0,4.05,0h0a1.2346,1.2346,0,0,0,0-2.338h0A4.4747,4.4747,0,0,0,96.6938,42.6086Z"/>
    </clipPath>
    <clipPath id="clip-path-5">
      <path class="cls-1" d="M55.7,39.3956h0c1.2158,2.108,3.1919,2.108,4.4087,0h0a8.444,8.444,0,0,0,0-7.638h0c-1.2168-2.108-3.1929-2.108-4.4087,0h0A8.444,8.444,0,0,0,55.7,39.3956Z"/>
    </clipPath>
    <clipPath id="clip-path-6">
      <path class="cls-1" d="M53.9761,60.4526h0c.79,1.369,2.0737,1.369,2.8637,0h0a5.4879,5.4879,0,0,0,0-4.961h0c-.79-1.369-2.0737-1.369-2.8637,0h0A5.4824,5.4824,0,0,0,53.9761,60.4526Z"/>
    </clipPath>
    <clipPath id="clip-path-7">
      <path class="cls-1" d="M102.32,59.1516a47.2822,47.2822,0,0,1-21.8349-6.893c-9.604-5.981-14.2041-2.566-17.6377,10.593s-9.6753,30.107,10.45,22.554q7.9512-.98,11.83,2.617c3.8789,3.597,15.1772,7.507,12.29-4.029q-2.888-11.5361,5.751-22.967C103.8828,60.08,103.5029,59.2406,102.32,59.1516Z"/>
    </clipPath>
  </defs>
  <title>Artboard 2</title>
  <g id="Group">
    <g id="Group-2" data-name="Group">
      <path id="top-T2" class="cls-2" d="M85,384.4616l85,49.074-85,49.075L0,433.5356Z"/>
      <path id="windows-R2" class="cls-3" d="M147.5,403.2256v25.98l-60,34.641v-25.98Z"/>
      <path id="windows-L2" class="cls-4" d="M22.5,403.2256v25.98l60,34.641v-25.98Z"/>
      <path id="body-L2" class="cls-5" d="M100,433.5356l-5-2.886v28.867l5,2.887Z"/>
      <path id="body-R2" class="cls-6" d="M70,433.5356l5-2.886v28.867l-5,2.887Z"/>
      <path id="body-L2-2" data-name="body-L2" class="cls-5" d="M115,424.8756l-5-2.887v28.868l5,2.887Z"/>
      <path id="body-R2-2" data-name="body-R2" class="cls-6" d="M55,424.8756l5-2.887v28.868l-5,2.887Z"/>
      <path id="body-L2-3" data-name="body-L2" class="cls-5" d="M130,416.2156l-5-2.887v28.868l5,2.886Z"/>
      <path id="body-R2-3" data-name="body-R2" class="cls-6" d="M40,416.2156l5-2.887v28.868l-5,2.886Z"/>
      <path id="body-L2-4" data-name="body-L2" class="cls-5" d="M145,407.5556l-5-2.887v28.867l5,2.887Z"/>
      <path id="body-R2-4" data-name="body-R2" class="cls-6" d="M25,407.5556l5-2.887v28.867l-5,2.887Z"/>
      <path id="top-T2-2" data-name="top-T2" class="cls-7" d="M85,240.1236l65,37.528L85,315.18l-65-37.528Z"/>
      <path id="body-R2-5" data-name="body-R2" class="cls-6" d="M81.1382,437.8666V315.4536L85,315.18l65-37.528v127.017l-65,37.528Z"/>
      <path id="body-L2-5" data-name="body-L2" class="cls-5" d="M85,315.18l-65-37.528v127.017l65,37.528Z"/>
      <g id="windows-R2-2" data-name="windows-R2">
        <path id="Path" class="cls-3" d="M90,318.0656l10-5.773V323.84l-10,5.773Z"/>
        <path id="Path-2" data-name="Path" class="cls-3" d="M105,309.4056l10-5.773V315.18l-10,5.773Z"/>
        <path id="Path-3" data-name="Path" class="cls-3" d="M120,300.7456l10-5.774v11.547l-10,5.774Z"/>
        <path id="Path-4" data-name="Path" class="cls-3" d="M135,292.0856l10-5.774v11.547l-10,5.774Z"/>
        <path id="Path-5" data-name="Path" class="cls-3" d="M90,352.7066l10-5.773v11.547l-10,5.773Z"/>
        <path id="Path-6" data-name="Path" class="cls-3" d="M105,344.0466l10-5.773v11.547l-10,5.773Z"/>
        <path id="Path-7" data-name="Path" class="cls-3" d="M120,335.3866l10-5.774V341.16l-10,5.774Z"/>
        <path id="Path-8" data-name="Path" class="cls-3" d="M135,326.7266l10-5.774V332.5l-10,5.774Z"/>
        <path id="Path-9" data-name="Path" class="cls-3" d="M90,387.3476l10-5.773v11.547l-10,5.773Z"/>
        <path id="Path-10" data-name="Path" class="cls-3" d="M105,378.6876l10-5.773v11.547l-10,5.773Z"/>
        <path id="Path-11" data-name="Path" class="cls-3" d="M120,370.0276l10-5.774v11.547l-10,5.774Z"/>
        <path id="Path-12" data-name="Path" class="cls-3" d="M135,361.3676l10-5.774v11.547l-10,5.774Z"/>
        <path id="Path-13" data-name="Path" class="cls-3" d="M90,335.3866l10-5.774V341.16l-10,5.774Z"/>
        <path id="Path-14" data-name="Path" class="cls-3" d="M105,326.7266l10-5.774V332.5l-10,5.774Z"/>
        <path id="Path-15" data-name="Path" class="cls-3" d="M120,318.0656l10-5.773V323.84l-10,5.773Z"/>
        <path id="Path-16" data-name="Path" class="cls-3" d="M135,309.4056l10-5.773V315.18l-10,5.773Z"/>
        <path id="Path-17" data-name="Path" class="cls-3" d="M90,370.0276l10-5.774v11.547l-10,5.774Z"/>
        <path id="Path-18" data-name="Path" class="cls-3" d="M105,361.3676l10-5.774v11.547l-10,5.774Z"/>
        <path id="Path-19" data-name="Path" class="cls-3" d="M120,352.7066l10-5.773v11.547l-10,5.773Z"/>
        <path id="Path-20" data-name="Path" class="cls-3" d="M135,344.0466l10-5.773v11.547l-10,5.773Z"/>
        <path id="Path-21" data-name="Path" class="cls-3" d="M90,404.6686l10-5.774v11.547l-10,5.774Z"/>
        <path id="Path-22" data-name="Path" class="cls-3" d="M105,396.0086l10-5.774v11.547l-10,5.774Z"/>
        <path id="Path-23" data-name="Path" class="cls-3" d="M120,387.3476l10-5.773v11.547l-10,5.773Z"/>
        <path id="Path-24" data-name="Path" class="cls-3" d="M135,378.6876l10-5.773v11.547l-10,5.773Z"/>
        <path id="Path-25" data-name="Path" class="cls-3" d="M90,421.9886l10-5.773v11.547l-10,5.773Z"/>
        <path id="Path-26" data-name="Path" class="cls-3" d="M105,413.3286l10-5.773v11.547l-10,5.773Z"/>
        <path id="Path-27" data-name="Path" class="cls-3" d="M120,404.6686l10-5.774v11.547l-10,5.774Z"/>
        <path id="Path-28" data-name="Path" class="cls-3" d="M135,396.0086l10-5.774v11.547l-10,5.774Z"/>
      </g>
      <g id="windows-L2-2" data-name="windows-L2">
        <path id="Path-29" data-name="Path" class="cls-4" d="M80,318.0656l-10-5.773V323.84l10,5.773Z"/>
        <path id="Path-30" data-name="Path" class="cls-4" d="M65,309.4056l-10-5.773V315.18l10,5.773Z"/>
        <path id="Path-31" data-name="Path" class="cls-4" d="M50,300.7456l-10-5.774v11.547l10,5.774Z"/>
        <path id="Path-32" data-name="Path" class="cls-4" d="M35,292.0856l-10-5.774v11.547l10,5.774Z"/>
        <path id="Path-33" data-name="Path" class="cls-4" d="M80,352.7066l-10-5.773v11.547l10,5.773Z"/>
        <path id="Path-34" data-name="Path" class="cls-4" d="M65,344.0466l-10-5.773v11.547l10,5.773Z"/>
        <path id="Path-35" data-name="Path" class="cls-4" d="M50,335.3866l-10-5.774V341.16l10,5.774Z"/>
        <path id="Path-36" data-name="Path" class="cls-4" d="M35,326.7266l-10-5.774V332.5l10,5.774Z"/>
        <path id="Path-37" data-name="Path" class="cls-4" d="M80,387.3476l-10-5.773v11.547l10,5.773Z"/>
        <path id="Path-38" data-name="Path" class="cls-4" d="M65,378.6876l-10-5.773v11.547l10,5.773Z"/>
        <path id="Path-39" data-name="Path" class="cls-4" d="M50,370.0276l-10-5.774v11.547l10,5.774Z"/>
        <path id="Path-40" data-name="Path" class="cls-4" d="M35,361.3676l-10-5.774v11.547l10,5.774Z"/>
        <path id="Path-41" data-name="Path" class="cls-4" d="M80,335.3866l-10-5.774V341.16l10,5.774Z"/>
        <path id="Path-42" data-name="Path" class="cls-4" d="M65,326.7266l-10-5.774V332.5l10,5.774Z"/>
        <path id="Path-43" data-name="Path" class="cls-4" d="M50,318.0656l-10-5.773V323.84l10,5.773Z"/>
        <path id="Path-44" data-name="Path" class="cls-4" d="M35,309.4056l-10-5.773V315.18l10,5.773Z"/>
        <path id="Path-45" data-name="Path" class="cls-4" d="M80,370.0276l-10-5.774v11.547l10,5.774Z"/>
        <path id="Path-46" data-name="Path" class="cls-4" d="M65,361.3676l-10-5.774v11.547l10,5.774Z"/>
        <path id="Path-47" data-name="Path" class="cls-4" d="M50,352.7066l-10-5.773v11.547l10,5.773Z"/>
        <path id="Path-48" data-name="Path" class="cls-4" d="M35,344.0466l-10-5.773v11.547l10,5.773Z"/>
        <path id="Path-49" data-name="Path" class="cls-4" d="M80,404.6686l-10-5.774v11.547l10,5.774Z"/>
        <path id="Path-50" data-name="Path" class="cls-4" d="M65,396.0086l-10-5.774v11.547l10,5.774Z"/>
        <path id="Path-51" data-name="Path" class="cls-4" d="M50,387.3476l-10-5.773v11.547l10,5.773Z"/>
        <path id="Path-52" data-name="Path" class="cls-4" d="M35,378.6876l-10-5.773v11.547l10,5.773Z"/>
        <path id="Path-53" data-name="Path" class="cls-4" d="M80,421.9886l-10-5.773v11.547l10,5.773Z"/>
        <path id="Path-54" data-name="Path" class="cls-4" d="M65,413.3286l-10-5.773v11.547l10,5.773Z"/>
        <path id="Path-55" data-name="Path" class="cls-4" d="M50,404.6686l-10-5.774v11.547l10,5.774Z"/>
        <path id="Path-56" data-name="Path" class="cls-4" d="M35,396.0086l-10-5.774v11.547l10,5.774Z"/>
      </g>
      <path id="body-L2-6" data-name="body-L2" class="cls-5" d="M85,453.7436l-65-37.528v5.773l65,37.528Z"/>
      <g id="body-R2-6" data-name="body-R2">
        <path id="Path-57" data-name="Path" class="cls-6" d="M85,453.7436l65-37.528v5.773l-65,37.528Z"/>
        <path id="Path-58" data-name="Path" class="cls-6" d="M81.4712,468.1766v-27.805l3.5288.825,5-2.887v29.867l-5,2.887Z"/>
        <path id="Path-59" data-name="Path" class="cls-6" d="M115,423.8756l5-2.887v29.868l-5,2.887Z"/>
        <path id="Path-60" data-name="Path" class="cls-6" d="M100,432.5356l5-2.886v29.867l-5,2.887Z"/>
        <path id="Path-61" data-name="Path" class="cls-6" d="M130,415.2156l5-2.887v29.868l-5,2.886Z"/>
        <path id="Path-62" data-name="Path" class="cls-6" d="M145,406.5556l5-2.887v29.867l-5,2.887Z"/>
      </g>
      <g id="body-L2-7" data-name="body-L2">
        <path id="Path-63" data-name="Path" class="cls-5" d="M85,441.1966l-5-2.887v29.867l5,2.887Z"/>
        <path id="Path-64" data-name="Path" class="cls-5" d="M55,423.8756l-5-2.887v29.868l5,2.887Z"/>
        <path id="Path-65" data-name="Path" class="cls-5" d="M70,432.5356l-5-2.886v29.867l5,2.887Z"/>
        <path id="Path-66" data-name="Path" class="cls-5" d="M40,415.2156l-5-2.887v29.868l5,2.886Z"/>
        <path id="Path-67" data-name="Path" class="cls-5" d="M25,406.5556l-5-2.887v29.867l5,2.887Z"/>
      </g>
      <g id="top-T1">
        <path id="Path-68" data-name="Path" class="cls-8" d="M90,445.0826l5-2.886,5,2.886-10,5.774Z"/>
        <path id="Path-69" data-name="Path" class="cls-8" d="M120,427.7626l5-2.887,5,2.887-10,5.773Z"/>
        <path id="Path-70" data-name="Path" class="cls-8" d="M105,436.4226l5-2.887,5,2.887-10,5.774Z"/>
        <path id="Path-71" data-name="Path" class="cls-8" d="M135,419.1026l5-2.887,5,2.887-10,5.773Z"/>
      </g>
      <g id="top-T1-2" data-name="top-T1">
        <path id="Path-72" data-name="Path" class="cls-8" d="M80,445.0826l-5-2.886-5,2.886,10,5.774Z"/>
        <path id="Path-73" data-name="Path" class="cls-8" d="M50,427.7626l-5-2.887-5,2.887,10,5.773Z"/>
        <path id="Path-74" data-name="Path" class="cls-8" d="M65,436.4226l-5-2.887-5,2.887,10,5.774Z"/>
        <path id="Path-75" data-name="Path" class="cls-8" d="M35,419.1026l-5-2.887-5,2.887,10,5.773Z"/>
      </g>
      <g id="Group-3" data-name="Group">
        <g id="gradient-L2-R2">
          <ellipse id="Ellipse" class="cls-9" cx="85" cy="246.5575" rx="45" ry="25.9808"/>
        </g>
        <path id="body-L2-8" data-name="body-L2" class="cls-5" d="M100,277.6516l-5-2.887v28.868l5,2.886Z"/>
        <path id="body-R2-7" data-name="body-R2" class="cls-6" d="M70,277.6516l5-2.887v28.868l-5,2.886Z"/>
        <path id="body-L2-9" data-name="body-L2" class="cls-5" d="M115,268.9916l-5-2.887v28.867l5,2.887Z"/>
        <path id="body-R2-8" data-name="body-R2" class="cls-6" d="M55,268.9916l5-2.887v28.867l-5,2.887Z"/>
        <path id="body-L2-10" data-name="body-L2" class="cls-5" d="M130,260.3306l-5-2.886v28.867l5,2.887Z"/>
        <path id="body-R2-9" data-name="body-R2" class="cls-6" d="M40,260.3306l5-2.886v28.867l-5,2.887Z"/>
        <path id="body-L2-11" data-name="body-L2" class="cls-5" d="M145,251.6706l-5-2.887v28.868l5,2.887Z"/>
        <path id="body-R2-10" data-name="body-R2" class="cls-6" d="M25,251.6706l5-2.887v28.868l-5,2.887Z"/>
        <path id="top-T2-3" data-name="top-T2" class="cls-6" d="M85,84.24l65,37.527-65,37.528-65-37.528Z"/>
        <path id="body-R2-11" data-name="body-R2" class="cls-6" d="M81.8042,282.5386l-1-124.334L85,159.2946l65-37.528v127.017l-65,37.528Z"/>
        <path id="body-L2-12" data-name="body-L2" class="cls-5" d="M85,159.2946l-65-37.528v127.017l65,37.528Z"/>
        <g id="windows-R2-3" data-name="windows-R2">
          <path id="Path-76" data-name="Path" class="cls-3" d="M90,162.1816l10-5.774v11.547l-10,5.774Z"/>
          <path id="Path-77" data-name="Path" class="cls-3" d="M105,153.5216l10-5.774v11.547l-10,5.774Z"/>
          <path id="Path-78" data-name="Path" class="cls-3" d="M120,144.8606l10-5.773v11.547l-10,5.773Z"/>
          <path id="Path-79" data-name="Path" class="cls-3" d="M135,136.2006l10-5.773v11.547l-10,5.773Z"/>
          <path id="Path-80" data-name="Path" class="cls-3" d="M90,196.8226l10-5.774v11.547L90,208.37Z"/>
          <path id="Path-81" data-name="Path" class="cls-3" d="M105,188.1626l10-5.774v11.547l-10,5.774Z"/>
          <path id="Path-82" data-name="Path" class="cls-3" d="M120,179.5016l10-5.773v11.547l-10,5.773Z"/>
          <path id="Path-83" data-name="Path" class="cls-3" d="M135,170.8416l10-5.773v11.547l-10,5.773Z"/>
          <path id="Path-84" data-name="Path" class="cls-3" d="M90,231.4636l10-5.774v11.547l-10,5.774Z"/>
          <path id="Path-85" data-name="Path" class="cls-3" d="M105,222.8036l10-5.774v11.547l-10,5.774Z"/>
          <path id="Path-86" data-name="Path" class="cls-3" d="M120,214.1426l10-5.773v11.547l-10,5.773Z"/>
          <path id="Path-87" data-name="Path" class="cls-3" d="M135,205.4826l10-5.773v11.547l-10,5.773Z"/>
          <path id="Path-88" data-name="Path" class="cls-3" d="M90,179.5016l10-5.773v11.547l-10,5.773Z"/>
          <path id="Path-89" data-name="Path" class="cls-3" d="M105,170.8416l10-5.773v11.547l-10,5.773Z"/>
          <path id="Path-90" data-name="Path" class="cls-3" d="M120,162.1816l10-5.774v11.547l-10,5.774Z"/>
          <path id="Path-91" data-name="Path" class="cls-3" d="M135,153.5216l10-5.774v11.547l-10,5.774Z"/>
          <path id="Path-92" data-name="Path" class="cls-3" d="M90,214.1426l10-5.773v11.547L90,225.69Z"/>
          <path id="Path-93" data-name="Path" class="cls-3" d="M105,205.4826l10-5.773v11.547l-10,5.773Z"/>
          <path id="Path-94" data-name="Path" class="cls-3" d="M120,196.8226l10-5.774v11.547l-10,5.774Z"/>
          <path id="Path-95" data-name="Path" class="cls-3" d="M135,188.1626l10-5.774v11.547l-10,5.774Z"/>
          <path id="Path-96" data-name="Path" class="cls-3" d="M90,248.7836l10-5.773v11.547l-10,5.773Z"/>
          <path id="Path-97" data-name="Path" class="cls-3" d="M105,240.1236l10-5.773v11.547l-10,5.773Z"/>
          <path id="Path-98" data-name="Path" class="cls-3" d="M120,231.4636l10-5.774v11.547l-10,5.774Z"/>
          <path id="Path-99" data-name="Path" class="cls-3" d="M135,222.8036l10-5.774v11.547l-10,5.774Z"/>
          <path id="Path-100" data-name="Path" class="cls-3" d="M90,266.1046l10-5.774v11.547l-10,5.774Z"/>
          <path id="Path-101" data-name="Path" class="cls-3" d="M105,257.4446l10-5.774v11.547l-10,5.774Z"/>
          <path id="Path-102" data-name="Path" class="cls-3" d="M120,248.7836l10-5.773v11.547l-10,5.773Z"/>
          <path id="Path-103" data-name="Path" class="cls-3" d="M135,240.1236l10-5.773v11.547l-10,5.773Z"/>
        </g>
        <g id="windows-L2-3" data-name="windows-L2">
          <path id="Path-104" data-name="Path" class="cls-4" d="M80,162.1816l-10-5.774v11.547l10,5.774Z"/>
          <path id="Path-105" data-name="Path" class="cls-4" d="M65,153.5216l-10-5.774v11.547l10,5.774Z"/>
          <path id="Path-106" data-name="Path" class="cls-4" d="M50,144.8606l-10-5.773v11.547l10,5.773Z"/>
          <path id="Path-107" data-name="Path" class="cls-4" d="M35,136.2006l-10-5.773v11.547l10,5.773Z"/>
          <path id="Path-108" data-name="Path" class="cls-4" d="M80,196.8226l-10-5.774v11.547l10,5.774Z"/>
          <path id="Path-109" data-name="Path" class="cls-4" d="M65,188.1626l-10-5.774v11.547l10,5.774Z"/>
          <path id="Path-110" data-name="Path" class="cls-4" d="M50,179.5016l-10-5.773v11.547l10,5.773Z"/>
          <path id="Path-111" data-name="Path" class="cls-4" d="M35,170.8416l-10-5.773v11.547l10,5.773Z"/>
          <path id="Path-112" data-name="Path" class="cls-4" d="M80,231.4636,70,225.69v11.547l10,5.774Z"/>
          <path id="Path-113" data-name="Path" class="cls-4" d="M65,222.8036,55,217.03v11.547l10,5.774Z"/>
          <path id="Path-114" data-name="Path" class="cls-4" d="M50,214.1426,40,208.37v11.547l10,5.773Z"/>
          <path id="Path-115" data-name="Path" class="cls-4" d="M35,205.4826,25,199.71v11.547l10,5.773Z"/>
          <path id="Path-116" data-name="Path" class="cls-4" d="M80,179.5016l-10-5.773v11.547l10,5.773Z"/>
          <path id="Path-117" data-name="Path" class="cls-4" d="M65,170.8416l-10-5.773v11.547l10,5.773Z"/>
          <path id="Path-118" data-name="Path" class="cls-4" d="M50,162.1816l-10-5.774v11.547l10,5.774Z"/>
          <path id="Path-119" data-name="Path" class="cls-4" d="M35,153.5216l-10-5.774v11.547l10,5.774Z"/>
          <path id="Path-120" data-name="Path" class="cls-4" d="M80,214.1426,70,208.37v11.547l10,5.773Z"/>
          <path id="Path-121" data-name="Path" class="cls-4" d="M65,205.4826,55,199.71v11.547l10,5.773Z"/>
          <path id="Path-122" data-name="Path" class="cls-4" d="M50,196.8226l-10-5.774v11.547l10,5.774Z"/>
          <path id="Path-123" data-name="Path" class="cls-4" d="M35,188.1626l-10-5.774v11.547l10,5.774Z"/>
          <path id="Path-124" data-name="Path" class="cls-4" d="M80,248.7836l-10-5.773v11.547l10,5.773Z"/>
          <path id="Path-125" data-name="Path" class="cls-4" d="M65,240.1236l-10-5.773v11.547l10,5.773Z"/>
          <path id="Path-126" data-name="Path" class="cls-4" d="M50,231.4636,40,225.69v11.547l10,5.774Z"/>
          <path id="Path-127" data-name="Path" class="cls-4" d="M35,222.8036,25,217.03v11.547l10,5.774Z"/>
          <path id="Path-128" data-name="Path" class="cls-4" d="M80,266.1046l-10-5.774v11.547l10,5.774Z"/>
          <path id="Path-129" data-name="Path" class="cls-4" d="M65,257.4446l-10-5.774v11.547l10,5.774Z"/>
          <path id="Path-130" data-name="Path" class="cls-4" d="M50,248.7836l-10-5.773v11.547l10,5.773Z"/>
          <path id="Path-131" data-name="Path" class="cls-4" d="M35,240.1236l-10-5.773v11.547l10,5.773Z"/>
        </g>
        <path id="body-L2-13" data-name="body-L2" class="cls-5" d="M85,297.8586l-65-37.528v5.774l65,37.528Z"/>
        <g id="body-R2-12" data-name="body-R2">
          <path id="Path-132" data-name="Path" class="cls-6" d="M85,297.8586l65-37.528v5.774l-65,37.528Z"/>
          <path id="Path-133" data-name="Path" class="cls-6" d="M81.1382,313.2926v-27.981H85l5-2.887v30.868l-5,2.887Z"/>
          <path id="Path-134" data-name="Path" class="cls-6" d="M115,267.9916l5-2.887v30.867l-5,2.887Z"/>
          <path id="Path-135" data-name="Path" class="cls-6" d="M100,275.6516l5-2.887v31.868l-5,2.886Z"/>
          <path id="Path-136" data-name="Path" class="cls-6" d="M130,259.3306l5-2.886v30.867l-5,2.887Z"/>
          <path id="Path-137" data-name="Path" class="cls-6" d="M145,250.6706l5-2.887v30.868l-5,2.887Z"/>
        </g>
        <g id="body-L2-14" data-name="body-L2">
          <path id="Path-138" data-name="Path" class="cls-5" d="M85,285.3116l-5-2.887v30.868l5,2.887Z"/>
          <path id="Path-139" data-name="Path" class="cls-5" d="M55,267.9916l-5-2.887v30.867l5,2.887Z"/>
          <path id="Path-140" data-name="Path" class="cls-5" d="M70,276.6516l-5-2.887v30.868l5,2.886Z"/>
          <path id="Path-141" data-name="Path" class="cls-5" d="M40,259.3306l-5-2.886v30.867l5,2.887Z"/>
          <path id="Path-142" data-name="Path" class="cls-5" d="M25,250.6706l-5-2.887v29.868l5,2.887Z"/>
        </g>
        <g id="top-T1-3" data-name="top-T1">
          <path id="Path-143" data-name="Path" class="cls-8" d="M90,289.1986l5-2.887,5,2.887-10,5.773Z"/>
          <path id="Path-144" data-name="Path" class="cls-7" d="M120,271.8776l5-2.886,5,2.886-10,5.774Z"/>
          <path id="Path-145" data-name="Path" class="cls-8" d="M105,280.5386l5-2.887,5,2.887-10,5.773Z"/>
          <path id="Path-146" data-name="Path" class="cls-7" d="M135,263.2176l5-2.887,5,2.887-10,5.774Z"/>
        </g>
        <g id="top-T1-4" data-name="top-T1">
          <path id="Path-147" data-name="Path" class="cls-8" d="M80,289.1986l-5-2.887-5,2.887,10,5.773Z"/>
          <path id="Path-148" data-name="Path" class="cls-8" d="M50,271.8776l-5-2.886-5,2.886,10,5.774Z"/>
          <path id="Path-149" data-name="Path" class="cls-8" d="M65,280.5386l-5-2.887-5,2.887,10,5.773Z"/>
          <path id="Path-150" data-name="Path" class="cls-8" d="M35,263.2176l-5-2.887-5,2.887,10,5.774Z"/>
        </g>
      </g>
      <g id="top-T1-5" data-name="top-T1">
        <path id="Path-151" data-name="Path" class="cls-10" d="M120,115.9936l5-2.887,5,2.887-10,5.773Z"/>
        <path id="Path-152" data-name="Path" class="cls-10" d="M135,107.3336l5-2.887,5,2.887-10,5.773Z"/>
      </g>
      <g id="top-T1-6" data-name="top-T1">
        <path id="Path-153" data-name="Path" class="cls-10" d="M65,124.6536l-5-2.887-5,2.887,10,5.774Z"/>
      </g>
      <path id="top-T1-7" data-name="top-T1" class="cls-7" d="M86.7319,79.4656l64.0362,36.971a3.83,3.83,0,0,1,1.7319,3v7.547a3.83,3.83,0,0,1-1.7319,3l-64.0362,36.971a3.83,3.83,0,0,1-3.4638,0l-64.0362-36.971a3.83,3.83,0,0,1-1.7319-3v-7.547a3.83,3.83,0,0,1,1.7319-3l64.0362-36.971A3.83,3.83,0,0,1,86.7319,79.4656Z"/>
      <path id="Path-154" data-name="Path" class="cls-11" d="M0,433.5356v2.887l85,49.075,2.5-1.443v-2.887l-2.5,1.443Z"/>
      <path id="Path-155" data-name="Path" class="cls-12" d="M170,433.5356v2.887l-85,49.075v-2.887Z"/>
      <path id="Path-156" data-name="Path" class="cls-13" d="M86.7319,166.9546l64.0362-36.971a3.83,3.83,0,0,0,1.7319-3v-8.547c0-.552-.3882-.776-.8662-.5l-64.9019,37.471a3.83,3.83,0,0,1-3.4638,0l-64.0362-36.971c-.956-.552-1.7319-.104-1.7319,1v7.547a3.83,3.83,0,0,0,1.7319,3l64.0362,36.971A3.83,3.83,0,0,0,86.7319,166.9546Z"/>
      <path id="Path-157" data-name="Path" class="cls-14" d="M50,147.6166,37.5,140.4l.7681.444a3.83,3.83,0,0,1,1.7319,3v29.754h0c0,3.186,1.68,6.744,3.75,7.938h0c2.07,1.195,3.75.285,3.75-2.031h0v-31.331c0-1.104.7759-1.552,1.7319-1Z"/>
      <path id="Path-158" data-name="Path" class="cls-14" d="M82.5,166.54l-10-5.773.7681.443a3.83,3.83,0,0,1,1.7319,3v54.292h0c0,2.389,1.12,4.977,2.5,5.773h0c1.38.797,2.5.15,2.5-1.443h0v-55.735c0-1.104.7759-1.552,1.7319-1Z"/>
      <path id="Path-159" data-name="Path" class="cls-14" d="M27.5,134.7206l-10-11.51v3.737a3.8239,3.8239,0,0,0,1.667,2.986h0a1.9147,1.9147,0,0,1,.833,1.494v30.717h0c0,2.39,1.12,4.977,2.5,5.774h0c1.38.797,2.5.15,2.5-1.443h0v-31.198c0-1.104.7759-1.552,1.7319-1Z"/>
      <path id="Path-160" data-name="Path" class="cls-14" d="M73.75,161.4876l-10-5.773.7681.443a3.83,3.83,0,0,1,1.7319,3v12.434h0c0,2.39,1.12,4.977,2.5,5.773h0c1.38.797,2.5.15,2.5-1.443h0v-13.877c0-1.104.7759-1.552,1.7319-1Z"/>
      <path id="Path-161" data-name="Path" class="cls-14" d="M75.8359,285.8286l-4.104,2.37a1.0559,1.0559,0,0,0,0,2l1.5362.887a3.83,3.83,0,0,1,1.7319,3v12.433h0c0,2.39,1.12,4.977,2.5,5.774h0c1.38.796,2.5.15,2.5-1.444h0v-24.537l-.7241-.442A3.7175,3.7175,0,0,0,75.8359,285.8286Z"/>
      <path id="Path-162" data-name="Path" class="cls-14" d="M36.25,139.8176l-10-5.774.7681.444a3.83,3.83,0,0,1,1.7319,3v54.291h0c0,2.39,1.12,4.977,2.5,5.774h0c1.38.796,2.5.15,2.5-1.444h0v-55.735c0-1.103.7759-1.552,1.7319-1Z"/>
      <path id="Path-163" data-name="Path" class="cls-14" d="M65,156.4076l-12.5-7.313.7681.443a3.83,3.83,0,0,1,1.7319,3v15.417h0c0,3.187,1.4,6.582,3.125,7.578h0c1.7251.996,3.125-.179,3.125-2.623h0v-16.765c0-1.104.7671-1.537,1.7119-.967Z"/>
      <path id="Path-164" data-name="Path" class="cls-14" d="M65,300.7456v-8.66l-7.0181,4.051c-.956.552-1.4521,1.485-1.1069,2.083h0a7.5171,7.5171,0,0,1,.625,3.082v13.926h0c0,3.187,1.4,6.582,3.125,7.578h0c1.7251.996,3.125-.179,3.125-2.623h0v-16.765a3.2514,3.2514,0,0,1,1.25-2.672Z"/>
      <path id="Path-165" data-name="Path" class="cls-14" d="M60.8662,276.7076,65,279.0946v5.774l-7.8838-4.552a1.6971,1.6971,0,0,1-.8662-1.222h0a1.6973,1.6973,0,0,1,.8662-1.221l2.0176-1.166A1.9158,1.9158,0,0,1,60.8662,276.7076Z"/>
      <path id="Path-166" data-name="Path" class="cls-15" d="M56.25,169.6166a5.8526,5.8526,0,0,0,2.5,4.33"/>
      <path id="Path-167" data-name="Path" class="cls-15" d="M58.75,316.89a5.8528,5.8528,0,0,0,2.5,4.33"/>
      <path id="Path-168" data-name="Path" class="cls-15" d="M76.25,218.5016a5.8528,5.8528,0,0,0,2.5,4.33"/>
      <path id="Path-169" data-name="Path" class="cls-15" d="M67.5,171.9646a5.8526,5.8526,0,0,0,2.5,4.33"/>
      <path id="Path-170" data-name="Path" class="cls-15" d="M76.25,306.8926a5.8528,5.8528,0,0,0,2.5,4.33"/>
      <path id="Path-171" data-name="Path" class="cls-15" d="M42.5,175.18a5.8532,5.8532,0,0,0,2.5,4.331"/>
      <path id="Path-172" data-name="Path" class="cls-15" d="M30,191.7786a5.8528,5.8528,0,0,0,2.5,4.33"/>
      <g id="Group-4" data-name="Group">
        <path id="Path-173" data-name="Path" class="cls-14" d="M50,277.6516v-8.66a15.2644,15.2644,0,0,0-2.0708-.898,2.386,2.386,0,0,0-1.8.155q-3.2028,1.8709-4.415,2.599A3.9228,3.9228,0,0,0,40,273.8776v30.049h0c0,3.186,1.68,6.744,3.75,7.939h0c2.07,1.194,3.75.284,3.75-2.032h0v-28.739a3.83,3.83,0,0,1,1.7319-3Z"/>
        <path id="Path-174" data-name="Path" class="cls-15" d="M42.5,305.51a5.8526,5.8526,0,0,0,2.5,4.33"/>
      </g>
      <path id="Path-175" data-name="Path" class="cls-15" d="M59.1172,278.6526a6.325,6.325,0,0,0,3.3828,1.886"/>
      <path id="Path-176" data-name="Path" class="cls-15" d="M42.5,276.2076v-.886a3.83,3.83,0,0,1,1.7319-3l.7681-.444"/>
      <g id="Group-5" data-name="Group">
        <g id="Group-6" data-name="Group">
          <path id="Path-177" data-name="Path" class="cls-14" d="M27.5981,282.0386l.67.386a3.8318,3.8318,0,0,1,1.7319,3v54.292h0c0,2.39,1.12,4.977,2.5,5.774h0c1.38.796,2.5.149,2.5-1.444h0v-69.282l-7.4019,4.274C26.1641,279.8656,26.1641,281.2106,27.5981,282.0386Z"/>
          <path id="Path-178" data-name="Path" class="cls-15" d="M31.25,339.3356a5.8526,5.8526,0,0,0,2.5,4.33"/>
        </g>
      </g>
      <path id="Path-179" data-name="Path" class="cls-15" d="M21.25,162.1446a5.8532,5.8532,0,0,0,2.5,4.331"/>
      <path id="Path-180" data-name="Path" class="cls-16" d="M86.25,166.8926l12.5-7.217-.7681.443a3.83,3.83,0,0,0-1.7319,3v29.754h0c0,3.187-1.68,6.744-3.75,7.939h0c-2.07,1.195-3.75.225-3.75-2.165h0v-31.198c0-1.104-.7759-1.552-1.7319-1Z"/>
      <path id="Path-181" data-name="Path" class="cls-16" d="M113.5,281.3686h0a3.2817,3.2817,0,0,0-1,2.578v29.754h0c0,3.186-1.68,6.743-3.75,7.938h0c-2.07,1.195-3.75.225-3.75-2.165h0v-44.709l7.3979,4.245C113.834,279.8336,114.3281,280.8906,113.5,281.3686Z"/>
      <path id="Path-182" data-name="Path" class="cls-16" d="M95,297.8586v3.774a3.8318,3.8318,0,0,0,1.7319,3l2.7862,1.608a1.4235,1.4235,0,0,1,.291,2.387L97.5,310.8486h0a8.0892,8.0892,0,0,1-3.75,6.275h0c-2.07,1.195-3.75.225-3.75-2.165h0v-14.213Z"/>
      <path id="Path-183" data-name="Path" class="cls-16" d="M110,153.1806l12.5-7.217-.7681.443a3.83,3.83,0,0,0-1.7319,3v15.321h0c0,3.186-1.4,6.581-3.125,7.577h0c-1.7251.996-3.125-.136-3.125-2.526h0v-16.765c0-1.104-.7759-1.552-1.7319-1Z"/>
      <path id="Path-184" data-name="Path" class="cls-16" d="M97.5,160.3966l10-5.773-.7681.443a3.83,3.83,0,0,0-1.7319,3v54.292h0c0,2.39-1.12,4.977-2.5,5.773h0c-1.38.797-2.5.15-2.5-1.443h0v-55.735c0-1.104-.7759-1.552-1.7319-1Z"/>
      <path id="Path-185" data-name="Path" class="cls-16" d="M120,275.6676v-9.563l4.8071,2.783c2.8658,1.659,4.3531,4.456,3.3179,6.242h0a7.4893,7.4893,0,0,0-.625,3.078v51.421h0c0,2.39-1.12,4.977-2.5,5.774h0c-1.38.796-2.5.149-2.5-1.444h0v-55.735c0-1.104-.56-1.676-1.25-1.278h0C120.56,277.3436,120,276.7706,120,275.6676Z"/>
      <path id="Path-186" data-name="Path" class="cls-16" d="M132.5,140.5306l10-5.773-.7681.443a3.83,3.83,0,0,0-1.7319,3v29.816h0a7.8666,7.8666,0,0,1-3.333,6.255h0c-.92.531-1.667-.332-1.667-1.925h0v-31.259c0-1.104-.7759-1.552-1.7319-1Z"/>
      <path id="Path-187" data-name="Path" class="cls-16" d="M142.5,134.7576l10-8.661v1.887a1.8783,1.8783,0,0,1-.833,1.481h0a3.7612,3.7612,0,0,0-1.667,2.963v54.291h0c0,2.39-1.12,4.977-2.5,5.774h0c-1.38.796-2.5.15-2.5-1.444h0v-55.735c0-1.104-.7759-1.552-1.7319-1Z"/>
      <path id="Path-188" data-name="Path" class="cls-17" d="M138.75,168.7386a5.8528,5.8528,0,0,1-2.5,4.33"/>
      <path id="Path-189" data-name="Path" class="cls-17" d="M118.75,166.2306a5.8557,5.8557,0,0,1-2.5,4.331"/>
      <path id="Path-190" data-name="Path" class="cls-17" d="M93.75,194.6266a5.8528,5.8528,0,0,1-2.5,4.33"/>
      <path id="Path-191" data-name="Path" class="cls-17" d="M110,315.4536a5.8526,5.8526,0,0,1-2.5,4.33"/>
      <path id="Path-192" data-name="Path" class="cls-17" d="M106.25,279.8166l2.0181,1.165a3.83,3.83,0,0,1,1.7319,3v3.773"/>
      <path id="Path-193" data-name="Path" class="cls-17" d="M123.75,271.1566l.7681.443a3.83,3.83,0,0,1,1.7319,3v2.33"/>
      <path id="Path-194" data-name="Path" class="cls-17" d="M95,311.1906a5.8526,5.8526,0,0,1-2.5,4.33"/>
      <path id="Path-195" data-name="Path" class="cls-17" d="M103.75,212.5426a5.8526,5.8526,0,0,1-2.5,4.33"/>
      <path id="Path-196" data-name="Path" class="cls-17" d="M126.25,329.8126a5.8532,5.8532,0,0,1-2.5,4.331"/>
      <path id="Path-197" data-name="Path" class="cls-17" d="M148.75,187.4416a5.8528,5.8528,0,0,1-2.5,4.33"/>
      <g id="Group-7" data-name="Group">
        <path id="Path-198" data-name="Path" class="cls-16" d="M135,286.3116v-11.547l6.5361,3.774c1.9121,1.103,2.7168,2.862,1.7969,3.924h0a5.3376,5.3376,0,0,0-.833,2.962v52.849h0c0,2.39-1.12,4.977-2.5,5.773h0c-1.38.797-2.5.15-2.5-1.443h0v-55.735c0-1.104-.7759-1.552-1.7319-1Z"/>
        <path id="Path-199" data-name="Path" class="cls-17" d="M141.25,338.9956a5.8526,5.8526,0,0,1-2.5,4.33"/>
      </g>
      <path id="Path-200" data-name="Path" class="cls-18" d="M75,66.9186v5.773l10,5.774v-5.774Z"/>
      <path id="Path-201" data-name="Path" class="cls-19" d="M95,66.9186v5.773l-10,5.774v-5.774Z"/>
      <path id="Path-202" data-name="Path" class="cls-20" d="M48.4639,113.9936,81.5361,94.9a7.66,7.66,0,0,1,6.9278,0l33.0722,19.094c1.9121,1.104,1.9121,2.896,0,4l-33.0722,19.094a7.66,7.66,0,0,1-6.9278,0l-33.0722-19.094C46.5518,116.89,46.5518,115.0976,48.4639,113.9936Z"/>
      <path id="Path-203" data-name="Path" class="cls-14" d="M85,92.9v11.547l28.2681,16.32a1.0559,1.0559,0,0,1,0,2l-.7681.444,9.0361-5.217c1.9121-1.104,1.9121-2.896,0-4Z"/>
      <path id="Path-204" data-name="Path" class="cls-16" d="M85,92.9v11.547l-28.2681,16.32a1.0559,1.0559,0,0,0,0,2l.7681.444-9.0361-5.217c-1.9121-1.104-1.9121-2.896,0-4Z"/>
      <path id="Path-205" data-name="Path" class="cls-21" d="M87.5,126.0966h0c-1.38-.796-1.3359-2.115.0981-2.943l4.8038-2.773a5.6384,5.6384,0,0,1,5.0981-.057h0c1.38.797,1.3359,2.115-.0981,2.943l-4.8038,2.774A5.6384,5.6384,0,0,1,87.5,126.0966Z"/>
      <path id="Path-206" data-name="Path" class="cls-20" d="M90,144.8606h0a5.533,5.533,0,0,0-5,0h0c-1.38.797-1.38,2.09,0,2.887h0a5.5268,5.5268,0,0,0,5,0h0C91.38,146.9506,91.38,145.6576,90,144.8606Z"/>
      <path id="Path-207" data-name="Path" class="cls-20" d="M96.2988,141.2246l27.4024-15.821a2.8171,2.8171,0,0,1,2.5488-.028h0c.69.398.668,1.057-.0488,1.471l-27.4024,15.821a2.8171,2.8171,0,0,1-2.5488.028h0C95.56,142.2976,95.582,141.6376,96.2988,141.2246Z"/>
      <path id="Path-208" data-name="Path" class="cls-20" d="M38.7988,108.0266,63.7012,93.65a2.82,2.82,0,0,1,2.5488-.029h0c.69.399.668,1.058-.0488,1.472L41.2988,109.47a2.82,2.82,0,0,1-2.5488.029h0C38.06,109.1,38.082,108.4406,38.7988,108.0266Z"/>
      <path id="Path-209" data-name="Path" class="cls-20" d="M77.5,143.4176h0c1.38-.797,1.3359-2.116-.0981-2.943l-4.8038-2.774a5.6415,5.6415,0,0,0-5.0981-.057h0c-1.38.797-1.3359,2.116.0981,2.944l4.8038,2.773A5.6384,5.6384,0,0,0,77.5,143.4176Z"/>
      <path id="Path-210" data-name="Path" class="cls-21" d="M101.2988,132.5636l12.4024-7.16a2.8171,2.8171,0,0,1,2.5488-.028h0c.69.398.668,1.057-.0488,1.471l-12.4024,7.161a2.82,2.82,0,0,1-2.5488.028h0C100.56,133.6376,100.582,132.9776,101.2988,132.5636Z"/>
      <path id="Path-211" data-name="Path" class="cls-21" d="M78.75,136.9226h0c.69-.399.668-1.058-.0488-1.472l-4.9024-2.83a2.8171,2.8171,0,0,0-2.5488-.028h0c-.69.398-.668,1.057.0488,1.471l4.9024,2.83A2.82,2.82,0,0,0,78.75,136.9226Z"/>
      <path id="Path-212" data-name="Path" class="cls-7" d="M88.75,131.1486h0c.69-.398.668-1.058-.0488-1.472l-9.9024-5.716a2.82,2.82,0,0,0-2.5488-.029h0c-.69.399-.668,1.058.0488,1.472l9.9024,5.717A2.8171,2.8171,0,0,0,88.75,131.1486Z"/>
      <path id="Path-213" data-name="Path" class="cls-7" d="M83.7988,122.4606l7.4024-4.274c.7168-.414.7387-1.073.0488-1.472h0a2.82,2.82,0,0,0-2.5488.029l-7.4024,4.273c-.7168.414-.7387,1.074-.0488,1.472h0A2.82,2.82,0,0,0,83.7988,122.4606Z"/>
      <path id="Path-214" data-name="Path" class="cls-22" d="M73.75,102.2816h0c.69-.399,1.25-.05,1.25.778v2.774a2.82,2.82,0,0,1-1.25,2.221h0c-.69.398-1.25.05-1.25-.778v-2.774A2.82,2.82,0,0,1,73.75,102.2816Z"/>
      <path id="Path-215" data-name="Path" class="cls-23" d="M112.5,108.7766l-2.5-1.443v7.16a2.818,2.818,0,0,0,1.25,2.221h0c.69.399,1.25.05,1.25-.778Z"/>
      <path id="Path-216" data-name="Path" class="cls-23" d="M117.5,111.6506l-2.5-1.443v4.286a2.818,2.818,0,0,0,1.25,2.221h0c.69.399,1.25.05,1.25-.778Z"/>
      <path id="Path-217" data-name="Path" class="cls-22" d="M60,107.3336l2.5-1.444v4.274a2.82,2.82,0,0,1-1.25,2.221h0c-.69.399-1.25.05-1.25-.778Z"/>
      <path id="Path-218" data-name="Path" class="cls-21" d="M33.75,119.6016h0c.69-.398.668-1.058-.0488-1.471L28.7988,115.3a2.82,2.82,0,0,0-2.5488-.028h0c-.69.398-.668,1.058.0488,1.472l4.9024,2.83A2.8171,2.8171,0,0,0,33.75,119.6016Z"/>
      <path id="Path-219" data-name="Path" class="cls-20" d="M61.25,135.4786h0c.69-.398.668-1.057-.0488-1.471l-14.9024-8.604a2.8171,2.8171,0,0,0-2.5488-.028h0c-.69.398-.668,1.057.0488,1.471l14.9024,8.604A2.8171,2.8171,0,0,0,61.25,135.4786Z"/>
      <path id="Path-220" data-name="Path" class="cls-20" d="M118.75,102.2816h0c.69-.399.668-1.058-.0488-1.472l-14.9024-8.604a2.82,2.82,0,0,0-2.5488-.028h0c-.69.398-.668,1.058.0488,1.472l14.9024,8.603A2.82,2.82,0,0,0,118.75,102.2816Z"/>
      <path id="Path-221" data-name="Path" class="cls-20" d="M53.75,125.3756h0c.69-.399.668-1.058-.0488-1.472l-11.9693-6.91a1.0559,1.0559,0,0,1,0-2l11.9693-6.91c.7168-.414.7387-1.074.0488-1.472h0a2.82,2.82,0,0,0-2.5488.028l-13.6031,7.854c-1.434.828-1.434,2.172,0,3l13.6031,7.853A2.82,2.82,0,0,0,53.75,125.3756Z"/>
      <path id="Path-222" data-name="Path" class="cls-20" d="M127.5,120.3236h0a5.6384,5.6384,0,0,0,5.0981-.057l3.0718-1.773c2.39-1.38,2.39-3.62,0-5l-10.5718-6.104a5.6384,5.6384,0,0,0-5.0981-.056h0c-1.38.796-1.3359,2.115.0981,2.943l6.438,3.717c1.9121,1.104,2.1841,2.739.607,3.649h0C125.96,118.3256,126.12,119.5266,127.5,120.3236Z"/>
      <path id="Path-223" data-name="Path" class="cls-21" d="M138.75,119.6016h0a.7624.7624,0,0,0,0,1.444h0a2.7665,2.7665,0,0,0,2.5,0h0a.7624.7624,0,0,0,0-1.444h0A2.7665,2.7665,0,0,0,138.75,119.6016Z"/>
      <path id="Path-224" data-name="Path" class="cls-21" d="M74.4829,114.0126h0a.7624.7624,0,0,0,0,1.444h0a2.7665,2.7665,0,0,0,2.5,0h0a.7628.7628,0,0,0,0-1.444h0A2.7665,2.7665,0,0,0,74.4829,114.0126Z"/>
      <path id="Path-225" data-name="Path" class="cls-21" d="M31.25,112.4056h0a.7617.7617,0,0,0,0,1.443h0a2.7665,2.7665,0,0,0,2.5,0h0a.7617.7617,0,0,0,0-1.443h0A2.76,2.76,0,0,0,31.25,112.4056Z"/>
      <path id="Path-226" data-name="Path" class="cls-16" d="M139.1338,260.8676,135,263.2536v5.774l7.8838-4.552a1.6971,1.6971,0,0,0,.8662-1.222h0a1.6973,1.6973,0,0,0-.8662-1.221l-2.0176-1.165A1.9158,1.9158,0,0,0,139.1338,260.8676Z"/>
      <path id="Path-227" data-name="Path" class="cls-17" d="M140.8828,262.8116a5.8545,5.8545,0,0,1-4.2656,2.608"/>
      <path id="Path-228" data-name="Path" class="cls-17" d="M138.75,279.8166l.7681.443a3.83,3.83,0,0,1,1.7319,3v.887"/>
      <path id="Path-229" data-name="Path" class="cls-16" d="M131.25,439.5436v3.773a1.9154,1.9154,0,0,0,.8662,1.5l3.2676,1.887a1.9158,1.9158,0,0,0,1.7324,0l3.2676-1.887a1.9154,1.9154,0,0,0,.8662-1.5v-.886a1.9154,1.9154,0,0,0-.8662-1.5l-3.2676-1.887a1.9154,1.9154,0,0,1-.8662-1.5v-.887c0-.552-.3882-.776-.8662-.5l-3.2676,1.887A1.9154,1.9154,0,0,0,131.25,439.5436Z"/>
      <path id="Path-230" data-name="Path" class="cls-14" d="M44.4258,443.9416l.124.248a2.2964,2.2964,0,0,0,1.4321,1.082l1.7862.344a7.1,7.1,0,0,1,1.8481.689l4.0947,2.364a5.3239,5.3239,0,0,1,1.437,1.322l.5323.766a2.1381,2.1381,0,0,0,1.57.822h.5a4.4087,4.4087,0,0,1,1.8662.5l8.2676,4.773a1.9154,1.9154,0,0,1,.8662,1.5v2.33a1.9154,1.9154,0,0,1-.8662,1.5l-.7676.444a1.9158,1.9158,0,0,1-1.7324,0l-9.9019-5.717-3.4638-2-.2862-.165a13.895,13.895,0,0,0-3.6069-1.361h0a13.895,13.895,0,0,1-3.6069-1.361l-9.9019-5.717a1.6971,1.6971,0,0,1-.8662-1.222h0a1.6973,1.6973,0,0,1,.8662-1.221l2.0176-1.165a1.88,1.88,0,0,0,.8662-1.463h0c0-1.062.7759-1.476,1.7319-.924l3.878,2.239A3.9267,3.9267,0,0,1,44.4258,443.9416Z"/>
      <path id="Path-231" data-name="Path" class="cls-15" d="M45.1958,449.4366A5.85,5.85,0,0,0,50,450.8226"/>
      <path id="Path-232" data-name="Path" class="cls-15" d="M63.75,460.2386l.7681.443c.956.552,1.7319.104,1.7319-1v-.887"/>
      <path id="Path-233" data-name="Path" class="cls-17" d="M135,445.0826l.3838.222a1.9158,1.9158,0,0,0,1.7324,0l1.6338-.943"/>
    </g>
    <g id="Group-8" data-name="Group">
      <g id="Group-9" data-name="Group">
        <path id="Path-234" data-name="Path" class="cls-24" d="M99.8711,130.4916l-1.9092,1.102-1.91-1.102V98.8046l1.91,1.102,1.9092-1.102Z"/>
        <path id="Path-235" data-name="Path" class="cls-25" d="M96.0752,132.7726l1.8867-1.187V99.9066l-1.91-1.102Z"/>
      </g>
      <path id="Path-236" data-name="Path" class="cls-19" d="M66.4541,124.8856l7.6387-4.41-7.6387-4.41-7.6382,4.41Z"/>
      <g id="Group-10" data-name="Group">
        <path id="Path-237" data-name="Path" class="cls-24" d="M68.3638,120.4756l-1.91,1.102-1.9092-1.102V85.1966l1.9092,1.102,1.91-1.102Z"/>
        <path id="Path-238" data-name="Path" class="cls-25" d="M64.5449,120.4756l1.9092,1.102V86.2986l-1.9092-1.102Z"/>
      </g>
      <path id="Path-239" data-name="Path" class="cls-25" d="M58.8159,120.4756v1.102l7.6382,4.41v-1.102Z"/>
      <path id="Path-240" data-name="Path" class="cls-24" d="M74.0928,120.4756v1.102l-7.6387,4.41v-1.102Z"/>
      <path id="Path-241" data-name="Path" class="cls-18" d="M66.9321,123.5076h0a.2918.2918,0,0,0,0-.552h0a1.057,1.057,0,0,0-.955,0h0a.2916.2916,0,0,0,0,.552h0A1.057,1.057,0,0,0,66.9321,123.5076Z"/>
      <path id="Path-242" data-name="Path" class="cls-18" d="M71.7061,120.7506h0a.291.291,0,0,0,0-.551h0a1.0572,1.0572,0,0,0-.9551,0h0a.2906.2906,0,0,0,0,.551h0A1.0511,1.0511,0,0,0,71.7061,120.7506Z"/>
      <path id="Path-243" data-name="Path" class="cls-18" d="M62.1582,120.7506h0a.2911.2911,0,0,0,0-.551h0a1.0572,1.0572,0,0,0-.9551,0h0a.2909.2909,0,0,0,0,.551h0A1.0511,1.0511,0,0,0,62.1582,120.7506Z"/>
      <path id="Path-244" data-name="Path" class="cls-19" d="M86.5039,113.31l7.6392-4.41-7.6392-4.41-7.6377,4.41Z"/>
      <g id="Group-11" data-name="Group">
        <path id="Path-245" data-name="Path" class="cls-24" d="M88.4141,108.9l-1.91,1.102L84.5952,108.9V73.6206l1.9087,1.103,1.91-1.103Z"/>
        <path id="Path-246" data-name="Path" class="cls-25" d="M84.5952,108.9l1.9087,1.102V74.7236l-1.9087-1.103Z"/>
      </g>
      <path id="Path-247" data-name="Path" class="cls-25" d="M78.8662,108.9v1.102l7.6377,4.41V113.31Z"/>
      <path id="Path-248" data-name="Path" class="cls-24" d="M94.1431,108.9v1.102l-7.6392,4.41V113.31Z"/>
      <path id="Path-249" data-name="Path" class="cls-18" d="M86.9819,111.9316h0a.2916.2916,0,0,0,0-.552h0a1.057,1.057,0,0,0-.955,0h0a.2918.2918,0,0,0,0,.552h0A1.057,1.057,0,0,0,86.9819,111.9316Z"/>
      <path id="Path-250" data-name="Path" class="cls-18" d="M91.7559,109.1756h0a.2917.2917,0,0,0,0-.552h0a1.0572,1.0572,0,0,0-.9551,0h0a.2915.2915,0,0,0,0,.552h0A1.0572,1.0572,0,0,0,91.7559,109.1756Z"/>
      <path id="Path-251" data-name="Path" class="cls-18" d="M82.208,109.1756h0a.2916.2916,0,0,0,0-.552h0a1.0572,1.0572,0,0,0-.9551,0h0a.2918.2918,0,0,0,0,.552h0A1.0572,1.0572,0,0,0,82.208,109.1756Z"/>
      <path id="Path-252" data-name="Path" class="cls-16" d="M90.3232,104.8746h0c9.4859,7.91,17.1856,2.408,17.1856-12.279h0c0-2.35-1.792-6.327-4-8.877l-3.6377-4.2Z"/>
      <path id="Path-253" data-name="Path" class="cls-14" d="M94.1431,12.2676h0c-1.0542.609-1.91.076-1.91-1.189V6.8416a9.8689,9.8689,0,0,0-1.0908-4.181h0a5.6,5.6,0,0,0-7.689-1.86l-28.268,16.32a10.97,10.97,0,0,0-4.962,8.593v61.392a22.5261,22.5261,0,0,0,.9288,6.119h0c1.5961,4.605,7.1689,6.367,12.4379,3.933h0c5.27-2.434,13.17-1.273,17.6314,2.591l7.1929,6.229h0c10.539,7.301,19.0947,3.881,19.0947-7.635h0a2.47,2.47,0,0,0-1.1929-1.874h0c-1.4487-.837-2.626-3.398-2.626-5.717v-.418c0-2.318.897-3.683,2.001-3.046h0c1.0029.58,1.3941-.608.8711-2.649l-1.2739-4.979a27.8212,27.8212,0,0,1,1.1089-15.128l1.1118-2.653,1.3193-1.523a10.3826,10.3826,0,0,0,2.1778-6.692l-.9029-10.648a37.7532,37.7532,0,0,0-3.5981-12.201l-9.377-17.626A2.1575,2.1575,0,0,0,94.1431,12.2676Z"/>
      <path id="Path-254" data-name="Path" class="cls-16" d="M110.6162,45.0876l-.2143-2.595a46.9913,46.9913,0,0,0-6.586-18.844Q96.5005,12.7267,96.5,12.7266a2.854,2.854,0,0,0-2.7388-1.561H90.7051a2.25,2.25,0,0,1-2.291-2.205h0a4.2215,4.2215,0,0,1,1.91-3.307h0a2.1966,2.1966,0,0,0,.8179-2.993h0a5.6,5.6,0,0,0-7.689-1.86l-28.268,16.32c-2.7383,1.581-2.7383,4.148,0,5.729l.7719.445a4.0908,4.0908,0,0,0,4.0191.116h0a3.6314,3.6314,0,0,1,3.6137-.118h0A4.2216,4.2216,0,0,1,65.5,26.6h0a9.2308,9.2308,0,0,0,1.522,4.403l3.0708,4.432a15.0659,15.0659,0,0,0,8.2954,5.405l4.332.834a5.9366,5.9366,0,0,0,3.5288-.594l.5108-.295a3.6586,3.6586,0,0,1,3.3081,0l.5112.295a3.6559,3.6559,0,0,1,1.6538,2.864v.591a3.7866,3.7866,0,0,0,1.6279,2.907c.63.386,1.5542.84,4.1011,2.31a17.9724,17.9724,0,0,0,4.0059,1.854c3.0581.802,6.5962-.367,7.895-2.609h0A7.8737,7.8737,0,0,0,110.6162,45.0876Z"/>
      <path id="Mask" class="cls-14" d="M75.6558,51.3386h0a1.2342,1.2342,0,0,0,0,2.338h0a4.4747,4.4747,0,0,0,4.05,0h0a1.2345,1.2345,0,0,0,0-2.338h0A4.4809,4.4809,0,0,0,75.6558,51.3386Z"/>
      <path id="Mask-2" data-name="Mask" class="cls-14" d="M62.52,42.5186h0a1.2348,1.2348,0,0,0,0,2.339h0a4.48,4.48,0,0,0,4.05,0h0a1.2351,1.2351,0,0,0,0-2.339h0A4.48,4.48,0,0,0,62.52,42.5186Z"/>
      <g id="Group-12" data-name="Group">
        <path id="Mask-3" data-name="Mask" class="cls-14" d="M73.895,12.5466h0c-2.1079,1.217-2.1079,3.193,0,4.409h0a8.4463,8.4463,0,0,0,7.6382,0h0c2.1079-1.216,2.1079-3.192,0-4.409h0A8.4463,8.4463,0,0,0,73.895,12.5466Z"/>
        <g class="cls-26">
          <path id="Path-255" data-name="Path" class="cls-27" d="M74.2241,16.7666h0c-2.1079,1.217-2.1079,3.193,0,4.41h0a8.4514,8.4514,0,0,0,7.6377,0h0c2.1074-1.217,2.1074-3.193,0-4.41h0A8.4452,8.4452,0,0,0,74.2241,16.7666Z"/>
        </g>
        <path id="Mask-4" data-name="Mask" class="cls-14" d="M74.5029,26.0706h0a1.2346,1.2346,0,0,0,0,2.338h0a4.4809,4.4809,0,0,0,4.05,0h0a1.2342,1.2342,0,0,0,0-2.338h0A4.4809,4.4809,0,0,0,74.5029,26.0706Z"/>
        <g class="cls-28">
          <path id="Path-256" data-name="Path" class="cls-27" d="M74.5029,27.7236h0a1.2346,1.2346,0,0,0,0,2.338h0a4.4747,4.4747,0,0,0,4.05,0h0a1.2342,1.2342,0,0,0,0-2.338h0A4.4809,4.4809,0,0,0,74.5029,27.7236Z"/>
        </g>
        <path id="Mask-5" data-name="Mask" class="cls-22" d="M88.1011,20.5586h0a1.2341,1.2341,0,0,0,0,2.338h0a4.48,4.48,0,0,0,4.05,0h0a1.2344,1.2344,0,0,0,0-2.338h0A4.4736,4.4736,0,0,0,88.1011,20.5586Z"/>
        <path id="Mask-6" data-name="Mask" class="cls-22" d="M93.4409,39.5386h0a.8886.8886,0,0,0,0,1.684h0a3.2262,3.2262,0,0,0,2.918,0h0a.8889.8889,0,0,0,0-1.684h0A3.2262,3.2262,0,0,0,93.4409,39.5386Z"/>
        <path id="Mask-7" data-name="Mask" class="cls-22" d="M77.9331,7.1046h0a.8886.8886,0,0,0,0,1.684h0a3.2242,3.2242,0,0,0,2.917,0h0a.8888.8888,0,0,0,0-1.684h0A3.2242,3.2242,0,0,0,77.9331,7.1046Z"/>
        <path id="Mask-8" data-name="Mask" class="cls-22" d="M82.686,7.8326h0a.4614.4614,0,0,0,0,.874h0a1.6739,1.6739,0,0,0,1.5132,0h0a.4613.4613,0,0,0,0-.874h0A1.6739,1.6739,0,0,0,82.686,7.8326Z"/>
        <path id="Mask-9" data-name="Mask" class="cls-22" d="M98.917,39.4146h0a.4613.4613,0,0,0,0,.874h0a1.6739,1.6739,0,0,0,1.5132,0h0a.4614.4614,0,0,0,0-.874h0A1.6739,1.6739,0,0,0,98.917,39.4146Z"/>
        <path id="Mask-10" data-name="Mask" class="cls-14" d="M61.3682,17.2506h0a1.2348,1.2348,0,0,0,0,2.339h0a4.48,4.48,0,0,0,4.05,0h0a1.2351,1.2351,0,0,0,0-2.339h0A4.48,4.48,0,0,0,61.3682,17.2506Z"/>
        <g class="cls-29">
          <path id="Path-257" data-name="Path" class="cls-27" d="M61.3682,18.9036h0a1.2348,1.2348,0,0,0,0,2.339h0a4.48,4.48,0,0,0,4.05,0h0a1.2351,1.2351,0,0,0,0-2.339h0A4.48,4.48,0,0,0,61.3682,18.9036Z"/>
        </g>
        <path id="Mask-11" data-name="Mask" class="cls-14" d="M96.6938,42.6086h0a1.2343,1.2343,0,0,0,0,2.338h0a4.4809,4.4809,0,0,0,4.05,0h0a1.2346,1.2346,0,0,0,0-2.338h0A4.4747,4.4747,0,0,0,96.6938,42.6086Z"/>
        <g class="cls-30">
          <path id="Path-258" data-name="Path" class="cls-27" d="M96.6938,44.2616h0a1.2343,1.2343,0,0,0,0,2.338h0a4.4809,4.4809,0,0,0,4.05,0h0a1.2346,1.2346,0,0,0,0-2.338h0A4.4747,4.4747,0,0,0,96.6938,44.2616Z"/>
        </g>
      </g>
      <g id="Group-13" data-name="Group">
        <path id="Mask-12" data-name="Mask" class="cls-16" d="M55.7,39.3956h0c1.2158,2.108,3.1919,2.108,4.4087,0h0a8.444,8.444,0,0,0,0-7.638h0c-1.2168-2.108-3.1929-2.108-4.4087,0h0A8.444,8.444,0,0,0,55.7,39.3956Z"/>
        <g class="cls-31">
          <path id="Path-259" data-name="Path" class="cls-27" d="M59.92,39.0676h0c1.2173,2.107,3.1929,2.107,4.4092,0h0a8.4492,8.4492,0,0,0,0-7.639h0c-1.2163-2.107-3.1919-2.107-4.4092,0h0A8.4492,8.4492,0,0,0,59.92,39.0676Z"/>
        </g>
        <path id="Mask-13" data-name="Mask" class="cls-23" d="M98.3809,107.4566h0a1.069,1.069,0,0,0,2.0249,0h0a3.8843,3.8843,0,0,0,0-3.508h0a1.0693,1.0693,0,0,0-2.0249,0h0A3.8781,3.8781,0,0,0,98.3809,107.4566Z"/>
        <path id="Mask-14" data-name="Mask" class="cls-23" d="M54.5542,50.3606h0a.7327.7327,0,0,0,1.3877,0h0a2.6587,2.6587,0,0,0,0-2.405h0a.7324.7324,0,0,0-1.3877,0h0A2.6587,2.6587,0,0,0,54.5542,50.3606Z"/>
        <path id="Mask-15" data-name="Mask" class="cls-23" d="M102.4419,104.9266h0a.7334.7334,0,0,0,1.3892,0h0a2.6618,2.6618,0,0,0,0-2.405h0a.7338.7338,0,0,0-1.3892,0h0A2.6618,2.6618,0,0,0,102.4419,104.9266Z"/>
        <path id="Mask-16" data-name="Mask" class="cls-16" d="M53.9761,60.4526h0c.79,1.369,2.0737,1.369,2.8637,0h0a5.4879,5.4879,0,0,0,0-4.961h0c-.79-1.369-2.0737-1.369-2.8637,0h0A5.4824,5.4824,0,0,0,53.9761,60.4526Z"/>
        <g class="cls-32">
          <path id="Path-260" data-name="Path" class="cls-27" d="M56.7168,60.24h0c.79,1.369,2.0742,1.369,2.8643,0h0a5.4886,5.4886,0,0,0,0-4.961h0c-.79-1.369-2.0743-1.369-2.8643,0h0A5.4824,5.4824,0,0,0,56.7168,60.24Z"/>
        </g>
        <g id="Group-14" data-name="Group">
          <path id="Path-261" data-name="Path" class="cls-23" d="M61.4541,25.1936h0c-8.4873-.98-12.6211,6.18-9.2261,15.98h0C51.7891,33.1416,55.9238,25.9806,61.4541,25.1936Z"/>
        </g>
      </g>
      <path id="Mask-17" data-name="Mask" class="cls-23" d="M101.9268,60.8636a4.2894,4.2894,0,0,0,3.6372-1.666c.8222-1.008.4389-1.93-.856-2.057q-15.71-1.5459-25.9692-8.465C68.481,41.7566,63.6519,45.57,60.1919,60.46S49.502,97.4356,70.28,89.2646a16.172,16.172,0,0,1,12.5723,3.131c4.582,3.581,21.3867,6.803,15.6391-5.359C93.1611,75.7606,93.332,67.4776,101.9268,60.8636Z"/>
      <path id="Mask-18" data-name="Mask" d="M102.32,59.1516a47.2822,47.2822,0,0,1-21.8349-6.893c-9.604-5.981-14.2041-2.566-17.6377,10.593s-9.6753,30.107,10.45,22.554q7.9512-.98,11.83,2.617c3.8789,3.597,15.1772,7.507,12.29-4.029q-2.888-11.5361,5.751-22.967C103.8828,60.08,103.5029,59.2406,102.32,59.1516Z"/>
      <g class="cls-33">
        <g>
          <path id="Path-262" data-name="Path" class="cls-34" d="M90.0142,94.4176q-.7632-29.079-32.3731-27.154l-.4243,25.397Z"/>
          <path id="Path-263" data-name="Path" class="cls-6" d="M98.51,55.1126l-6.2666,9.305a.766.766,0,0,1-.4981.293q-19.3081,1.68-27.768-11.989l6.7641-7.75Z"/>
        </g>
      </g>
    </g>
  </g>
</svg>
