<svg id="Layer_1" data-name="Layer 1" xmlns="http://www.w3.org/2000/svg" xmlns:xlink="http://www.w3.org/1999/xlink" viewBox="0 0 1062 1062">
  <defs>
    <style>
      .cls-1 {
        fill: none;
      }

      .cls-2 {
        fill: #a2a2a2;
      }

      .cls-3 {
        fill: #e8e8e8;
      }

      .cls-4 {
        fill: #ececf0;
      }

      .cls-5 {
        fill: #d5d5db;
      }

      .cls-6 {
        fill: #171717;
      }

      .cls-7 {
        fill: #83878e;
      }

      .cls-8 {
        fill: #2e2e2e;
      }

      .cls-9 {
        fill: #5d5d5d;
      }

      .cls-10 {
        fill: #c5c8cc;
      }

      .cls-11 {
        fill: #5f6164;
      }

      .cls-12 {
        fill: #91e5ff;
      }

      .cls-13 {
        fill: #747474;
      }

      .cls-14 {
        fill: #333c40;
      }

      .cls-15 {
        fill: #434e53;
      }

      .cls-16 {
        fill: #787b80;
      }

      .cls-17 {
        fill: #7fb8fd;
      }

      .cls-18 {
        clip-path: url(#clip-path);
      }

      .cls-19 {
        fill: #95c5ff;
      }

      .cls-20 {
        fill: #d2e6ff;
      }

      .cls-21 {
        fill: #d1d1d1;
      }

      .cls-22 {
        fill: #fff;
      }

      .cls-23 {
        fill: #c1c1c1;
      }

      .cls-24 {
        fill: #464646;
      }

      .cls-25 {
        fill: #ffcd61;
      }

      .cls-26 {
        clip-path: url(#clip-path-2);
      }

      .cls-27 {
        fill: #ffff74;
      }

      .cls-28 {
        fill: #ffa142;
      }

      .cls-29 {
        fill: #78cbff;
      }

      .cls-30 {
        fill: #ffd4ff;
      }

      .cls-31 {
        clip-path: url(#clip-path-3);
      }

      .cls-32 {
        fill: #ffea87;
      }

      .cls-33 {
        fill: #b9b9b9;
      }

      .cls-34 {
        fill: #8b8b8b;
      }

      .cls-35 {
        fill: #ccc;
      }

      .cls-36 {
        fill: #945550;
      }

      .cls-37 {
        fill: #717171;
      }

      .cls-38 {
        fill: #6fc5df;
      }

      .cls-39 {
        fill: #bcbcc1;
      }

      .cls-40 {
        fill: #b8d8ff;
      }

      .cls-41 {
        fill: #65676c;
      }

      .cls-42 {
        fill: #76a9e8;
      }

      .cls-43 {
        clip-path: url(#clip-path-4);
      }

      .cls-44 {
        clip-path: url(#clip-path-5);
      }

      .cls-45 {
        fill: #3291e9;
      }

      .cls-46 {
        fill: url(#linear-gradient);
      }

      .cls-47 {
        opacity: 0.5;
      }

      .cls-48 {
        fill: url(#linear-gradient-2);
      }

      .cls-49 {
        fill: url(#linear-gradient-3);
      }

      .cls-50 {
        opacity: 0.3;
      }

      .cls-51 {
        fill: url(#linear-gradient-4);
      }

      .cls-52 {
        fill: #24d7d0;
      }

      .cls-53 {
        fill: #14869f;
      }

      .cls-54 {
        fill: #1eb6d1;
      }

      .cls-55 {
        fill: #6bd9fc;
      }

      .cls-56 {
        fill: url(#linear-gradient-5);
      }

      .cls-57 {
        fill: url(#linear-gradient-6);
      }

      .cls-58 {
        fill: url(#linear-gradient-7);
      }

      .cls-59 {
        fill: url(#linear-gradient-8);
      }

      .cls-60 {
        fill: url(#linear-gradient-9);
      }

      .cls-61 {
        fill: url(#linear-gradient-10);
      }

      .cls-62 {
        fill: url(#linear-gradient-11);
      }

      .cls-63 {
        fill: url(#linear-gradient-12);
      }

      .cls-64 {
        fill: url(#linear-gradient-13);
      }

      .cls-65 {
        fill: url(#linear-gradient-14);
      }

      .cls-66 {
        fill: url(#linear-gradient-15);
      }

      .cls-67 {
        fill: url(#linear-gradient-16);
      }

      .cls-68 {
        fill: #ad8b65;
      }

      .cls-69 {
        fill: #216aae;
      }

      .cls-70 {
        fill: #e3a0e3;
      }

      .cls-71 {
        fill: #edf3ff;
      }

      .cls-72 {
        fill: #3258a8;
      }

      .cls-73 {
        fill: #4d92ff;
      }

      .cls-74 {
        fill: #fff587;
      }

      .cls-75 {
        fill: #c6be68;
      }

      .cls-76 {
        fill: #fffbcd;
      }

      .cls-77 {
        fill: url(#linear-gradient-17);
      }

      .cls-78 {
        fill: url(#linear-gradient-18);
      }

      .cls-79 {
        fill: url(#linear-gradient-19);
      }

      .cls-80 {
        fill: url(#linear-gradient-20);
      }
    </style>
    <clipPath id="clip-path">
      <polygon class="cls-1" points="306 689.615 556 776.218 556 822.406 306 735.803 306 689.615"/>
    </clipPath>
    <clipPath id="clip-path-2">
      <polygon class="cls-1" points="701 542.391 641 577.032 641 698.275 651 704.049 711 669.408 711 548.164 701 542.391"/>
    </clipPath>
    <clipPath id="clip-path-3">
      <polygon class="cls-1" points="691 282.583 631 317.224 631 438.468 641 444.241 701 409.6 701 288.357 691 282.583"/>
    </clipPath>
    <clipPath id="clip-path-4">
      <polygon class="cls-1" points="401 501.976 383.5 512.08 483.5 549.608 401 501.976"/>
    </clipPath>
    <clipPath id="clip-path-5">
      <polygon class="cls-1" points="318.5 616.003 371 585.692 371 628.993 429.75 652.809 426 654.974 318.5 616.003"/>
    </clipPath>
    <linearGradient id="linear-gradient" x1="233.6575" y1="1669.1268" x2="234.6575" y2="1670.1268" gradientTransform="translate(-3362.3986 -33581.5922) scale(17.2321 20.6)" gradientUnits="userSpaceOnUse">
      <stop offset="0.048" stop-color="#1f66a9"/>
      <stop offset="0.6853" stop-color="#3291e9"/>
    </linearGradient>
    <linearGradient id="linear-gradient-2" x1="227.4164" y1="1629.3777" x2="225.9167" y2="1629.2234" gradientTransform="matrix(14.207, 8.202, 0, 17.232, -2587.974, -29167.5951)" gradientUnits="userSpaceOnUse">
      <stop offset="0" stop-color="#e9a332" stop-opacity="0"/>
      <stop offset="0.0001" stop-color="#23dc7d" stop-opacity="0"/>
      <stop offset="1" stop-color="#23dc7d"/>
    </linearGradient>
    <linearGradient id="linear-gradient-3" x1="227.7225" y1="1629.3337" x2="226.2674" y2="1629.5798" gradientTransform="matrix(14.475, 8.357, 0, 17.232, -2656.5821, -29207.2754)" xlink:href="#linear-gradient-2"/>
    <linearGradient id="linear-gradient-4" x1="227.9587" y1="1488.6814" x2="229.7395" y2="1489.4971" gradientTransform="matrix(14.756, 8.519, 0, 11.806, -2728.5179, -18744.0074)" gradientUnits="userSpaceOnUse">
      <stop offset="0" stop-color="#23dc7d"/>
      <stop offset="1" stop-color="#23dc7d" stop-opacity="0"/>
    </linearGradient>
    <linearGradient id="linear-gradient-5" x1="247.9527" y1="1826.6192" x2="248.9527" y2="1827.6192" gradientTransform="translate(-9671.9437 -91023.9844) scale(41.824 50)" xlink:href="#linear-gradient"/>
    <linearGradient id="linear-gradient-6" x1="244.7577" y1="1797.8245" x2="243.258" y2="1797.6702" gradientTransform="matrix(34.482, -19.908, 0, 41.824, -7792.3916, -70090.8578)" xlink:href="#linear-gradient-2"/>
    <linearGradient id="linear-gradient-7" x1="244.743" y1="1797.78" x2="243.2879" y2="1798.0261" gradientTransform="matrix(35.134, -20.284, 0, 41.824, -7959.3037, -69994.6005)" xlink:href="#linear-gradient-2"/>
    <linearGradient id="linear-gradient-8" x1="244.6552" y1="1734.5431" x2="246.436" y2="1735.3588" gradientTransform="matrix(35.816, -20.678, 0, 28.654, -8133.8964, -44396.6111)" xlink:href="#linear-gradient-4"/>
    <linearGradient id="linear-gradient-9" x1="224.5804" y1="1569.1352" x2="225.5804" y2="1570.1352" gradientTransform="translate(-2233.5615 -22825.9417) scale(12.548 15.0001)" xlink:href="#linear-gradient"/>
    <linearGradient id="linear-gradient-10" x1="216.4065" y1="1476.4984" x2="214.9067" y2="1476.3441" gradientTransform="matrix(10.345, -5.973, 0, 12.547, -1669.5941, -16545.3047)" xlink:href="#linear-gradient-2"/>
    <linearGradient id="linear-gradient-11" x1="216.9155" y1="1476.4571" x2="215.4604" y2="1476.7032" gradientTransform="matrix(10.54, -6.085, 0, 12.547, -1719.514, -16516.6318)" xlink:href="#linear-gradient-2"/>
    <linearGradient id="linear-gradient-12" x1="217.359" y1="1265.5301" x2="219.1398" y2="1266.3458" gradientTransform="matrix(10.745, -6.203, 0, 8.596, -1771.994, -8837.2876)" xlink:href="#linear-gradient-4"/>
    <linearGradient id="linear-gradient-13" x1="224.5818" y1="1569.1289" x2="225.5818" y2="1570.1289" gradientTransform="translate(-2233.5615 -22807.6013) scale(12.548 14.9999)" xlink:href="#linear-gradient"/>
    <linearGradient id="linear-gradient-14" x1="216.4065" y1="1476.4983" x2="214.9067" y2="1476.344" gradientTransform="matrix(10.345, -5.973, 0, 12.547, -1669.5941, -16527.3926)" xlink:href="#linear-gradient-2"/>
    <linearGradient id="linear-gradient-15" x1="216.9156" y1="1476.4573" x2="215.4605" y2="1476.7033" gradientTransform="matrix(10.54, -6.085, 0, 12.547, -1719.514, -16498.7217)" xlink:href="#linear-gradient-2"/>
    <linearGradient id="linear-gradient-16" x1="217.359" y1="1265.5301" x2="219.1398" y2="1266.3458" gradientTransform="matrix(10.745, -6.203, 0, 8.596, -1771.994, -8819.3755)" xlink:href="#linear-gradient-4"/>
    <linearGradient id="linear-gradient-17" x1="233.6751" y1="1669.3456" x2="234.6751" y2="1670.3456" gradientTransform="translate(-3297.5985 -33592.5386) scale(17.246 20.6167)" xlink:href="#linear-gradient"/>
    <linearGradient id="linear-gradient-18" x1="227.4393" y1="1601.572" x2="225.9396" y2="1601.4177" gradientTransform="matrix(14.218, -8.209, 0, 17.246, -2522.4311, -24962.067)" xlink:href="#linear-gradient-2"/>
    <linearGradient id="linear-gradient-19" x1="227.7464" y1="1601.5279" x2="226.2913" y2="1601.774" gradientTransform="matrix(14.487, -8.364, 0, 17.246, -2591.2951, -24922.3867)" xlink:href="#linear-gradient-2"/>
    <linearGradient id="linear-gradient-20" x1="227.9816" y1="1448.074" x2="229.7625" y2="1448.8897" gradientTransform="matrix(14.768, -8.526, 0, 11.815, -2663.2309, -14366.4993)" xlink:href="#linear-gradient-4"/>
  </defs>
  <title>1Artboard 25</title>
  <g id="Group">
    <path id="Path" class="cls-2" d="M681,888.9383v2.9011L578,832.3717v-2.9011Z"/>
    <path id="Path-2" class="cls-3" d="M681,888.801l100-57.735L431,628.993,281,715.596v34.641l280,92.376,20-11.547Z"/>
    <path id="Path-3" class="cls-4" d="M646,308.564,486,216.188l-90,51.961,160,92.376Z"/>
    <path id="Path-4" class="cls-5" d="M556,354.752l80-46.188L486,221.961l-80,46.188Z"/>
    <path id="Path-5" class="cls-6" d="M396,268.149l160,92.376,20-11.547V753.124l-20,11.547L396,672.295Z"/>
    <path id="Path-6" class="cls-7" d="M486,221.961v5.774l145,83.716,5-2.887Z"/>
    <path id="Path-7" class="cls-8" d="M646,308.564l-90,51.961V764.671l90-51.962Z"/>
    <path id="Path-8" class="cls-4" d="M571,282.583l60-34.641,50,28.868-60,34.641Z"/>
    <path id="Path-9" class="cls-9" d="M556,383.619V360.525l90-51.961v23.094Z"/>
    <path id="Path-10" class="cls-9" d="M556,475.995V452.901l90-51.961v23.094Z"/>
    <path id="Path-11" class="cls-9" d="M556,568.372V545.278l90-51.962V516.41Z"/>
    <path id="Path-12" class="cls-9" d="M556,429.807V406.713l90-51.961v23.094Z"/>
    <path id="Path-13" class="cls-5" d="M576,282.583l45,25.981,55-31.754-45-25.981Z"/>
    <path id="Path-14" class="cls-9" d="M556,522.183V499.089l90-51.961v23.094Z"/>
    <path id="Path-15" class="cls-9" d="M556,614.56V591.466l90-51.962v23.094Z"/>
    <path id="Path-16" class="cls-10" d="M581.5,285.47,599,275.366v-5.773l-22.5,12.99Z"/>
    <path id="Path-17" class="cls-7" d="M676,276.81l-5,2.886-27.5-15.877,5-2.887Z"/>
    <path id="Path-18" class="cls-9" d="M556,660.748V637.654l90-51.962v23.094Z"/>
    <path id="Path-19" class="cls-7" d="M581,357.639l-10-5.684V282.583l50,28.868,20-11.547V819.519l-20,11.547-40-23.094Z"/>
    <path id="Path-20" class="cls-10" d="M681,276.81l-60,34.641V831.066l60-34.641Z"/>
    <path id="Path-21" class="cls-8" d="M691,738.69l55-31.754V730.03l-5,2.886v17.321l5,2.887v34.641l-55,31.754Z"/>
    <path id="Path-22" class="cls-5" d="M616,279.696l15,8.661,30-17.321-15-8.66Z"/>
    <path id="Path-23" class="cls-7" d="M631,302.79l30-17.32V271.036l-30,17.321Z"/>
    <path id="Path-24" class="cls-4" d="M626,701.162l55-31.754,65,37.528L691,738.69Z"/>
    <path id="Path-25" class="cls-11" d="M631,302.79V288.357L611,276.81v14.433Z"/>
    <g id="Group-2">
      <path id="Path-26" class="cls-12" d="M656,170l-60,34.641V285.47l10,5.773,60-34.641V175.773Z"/>
      <path id="Path-27" class="cls-3" d="M596,204.641,656,170l10,5.773-60,34.641Z"/>
      <path id="Path-28" class="cls-13" d="M596,285.47l10,5.773V210.414l-10-5.773Z"/>
    </g>
    <path id="Path-29" class="cls-5" d="M691,732.916l45-25.98-55-31.755-45,25.981Z"/>
    <path id="Path-30" class="cls-8" d="M556,383.619V360.525L396,268.149v23.094Z"/>
    <path id="Path-31" class="cls-8" d="M556,475.995V452.901L396,360.525v23.094Z"/>
    <path id="Path-32" class="cls-8" d="M556,568.372V545.277L396,452.901v23.094Z"/>
    <path id="Path-33" class="cls-8" d="M556,660.748V637.654L396,545.277v23.095Z"/>
    <path id="Path-34" class="cls-8" d="M556,429.807V406.713L396,314.337v23.094Z"/>
    <path id="Path-35" class="cls-8" d="M556,522.183V499.089L396,406.713v23.094Z"/>
    <path id="Path-36" class="cls-8" d="M556,614.56V591.466L396,499.089v23.095Z"/>
    <path id="Path-37" class="cls-6" d="M691,819.519V738.69l-65-37.528v23.094l5,2.887v17.32l-5,2.887v34.641Z"/>
    <path id="Path-38" class="cls-7" d="M681,675.181v11.547l45,25.981,10-5.773Z"/>
    <path id="Path-39" class="cls-10" d="M636,701.162l45-25.981v11.547l-35,20.208Z"/>
    <path id="Path-40" class="cls-14" d="M626,701.162l65,37.528,5-2.887v23.094l-5,2.887-65-37.528Z"/>
    <path id="Path-41" class="cls-14" d="M626,747.35l65,37.528,5-2.887v34.641l-5,2.887-65-37.528Z"/>
    <path id="Path-42" class="cls-15" d="M746,706.936,691,738.69v23.094l55-31.754Z"/>
    <path id="Path-43" class="cls-15" d="M746,753.124l-55,31.7541V819.519l55-31.754Z"/>
    <path id="Path-44" class="cls-4" d="M371,513.523l25-14.434,110,63.509Z"/>
    <path id="Path-45" class="cls-7" d="M371,513.523l135,49.075V735.803L371,686.728Z"/>
    <path id="Path-46" class="cls-16" d="M376,522.184l125,46.188v23.094L376,545.278Z"/>
    <path id="Path-47" class="cls-16" d="M376,551.051l125,46.188v23.094L376,574.145Z"/>
    <path id="Path-48" class="cls-16" d="M376,579.919l125,46.188v23.094L376,603.013Z"/>
    <path id="Path-49" class="cls-16" d="M376,608.786l125,46.188v23.094L376,631.88Z"/>
    <path id="Path-50" class="cls-16" d="M376,637.654l125,46.188v23.094L376,660.748Z"/>
    <path id="Path-51" class="cls-9" d="M581,715.596,556,730.03v46.188l25-14.434Z"/>
    <path id="Path-52" class="cls-8" d="M306,617.446l120,43.302v23.094L556,730.03v46.188L306,689.615Z"/>
    <path id="Path-53" class="cls-10" d="M486,221.961v5.774l-75,43.301-5-2.887Z"/>
    <path id="Path-54" class="cls-3" d="M581,715.596l-10-5.774-15,8.661V730.03Z"/>
    <path id="Path-55" class="cls-2" d="M426,660.748l10-5.774v23.094l-10,5.774Z"/>
    <path id="Path-56" class="cls-3" d="M556,718.483,436,678.068l-10,5.774L556,730.03Z"/>
    <path id="Path-57" class="cls-4" d="M436,654.974l-10,5.774L306,617.446l65-37.527v49.074Z"/>
    <path id="Mask" class="cls-17" d="M306,689.615l250,86.603v46.188L306,735.803Z"/>
    <g class="cls-18">
      <g>
        <path id="Path-58" class="cls-19" d="M376,709.822v54.849l-10-5.774V704.049Z"/>
        <path id="Path-59" class="cls-19" d="M336,695.389v54.848l-10-5.774V689.615Z"/>
        <path id="Path-60" class="cls-19" d="M396,718.483v54.848l-10-5.774V712.709Z"/>
        <path id="Path-61" class="cls-19" d="M356,704.049v54.848l-10-5.773V698.275Z"/>
        <path id="Path-62" class="cls-19" d="M316,691.058v54.849l-10-5.774V685.285Z"/>
        <path id="Path-63" class="cls-19" d="M416,724.256v54.848l-10-5.773V718.483Z"/>
        <path id="Path-64" class="cls-19" d="M436,730.03v54.8481l-10-5.774V724.256Z"/>
        <path id="Path-65" class="cls-19" d="M456,738.69v54.848l-10-5.773V732.916Z"/>
        <path id="Path-66" class="cls-19" d="M476,744.463v54.849l-10-5.774V738.69Z"/>
        <path id="Path-67" class="cls-19" d="M496,750.237v54.848l-10-5.773V744.463Z"/>
        <path id="Path-68" class="cls-19" d="M516,756.01v54.849l-10-5.774V750.237Z"/>
        <path id="Path-69" class="cls-19" d="M536,764.671v54.848l-10-5.7739V758.897Z"/>
        <path id="Path-70" class="cls-19" d="M556,773.331v54.848l-10-5.773V767.557Z"/>
      </g>
    </g>
    <path id="Path-71" class="cls-20" d="M581,761.784v46.188l-25,14.434V776.218Z"/>
    <path id="Path-72" class="cls-17" d="M631,784.878v40.414l60,34.641V819.519Z"/>
    <path id="Path-73" class="cls-20" d="M741,790.651v40.415l-50,28.867V819.519Z"/>
    <g id="Group-3">
      <g id="Group-4">
        <path id="Path-74" class="cls-10" d="M631,363.7488l-10.2222,5.9023L608,353.4213V326.8629l12.7778,7.3774L631,328.338Z"/>
        <path id="Path-75" class="cls-7" d="M621,348.978V334.545l10-5.774v34.641l-10,5.774-12.5-15.877Z"/>
        <path id="Path-76" class="cls-4" d="M608.5,353.309l10-5.774L631,363.412l-10,5.774Z"/>
        <path id="Path-77" class="cls-3" d="M621,334.545v25.98l5-2.886V331.658Z"/>
        <path id="Path-78" class="cls-21" d="M616,354.752l5,5.773v-25.98l-5-2.887Z"/>
        <g id="Group-5">
          <path id="Path-79" class="cls-22" d="M624.4444,338.3054,622,339.7163v2.8228l8.5556,9.1735L633,350.3017v-2.8228Z"/>
          <path id="Path-80" class="cls-21" d="M622,354.2259l9,.7426V349.03l-9-9.65Z"/>
          <path id="Path-81" class="cls-23" d="M622,346.8439l9,5.1964v-2.9695l-9-9.65Z"/>
        </g>
      </g>
      <g id="Group-6">
        <path id="Path-82" class="cls-10" d="M631,427.2578l-10.2222,5.9013L608,416.9293V390.3709l12.7778,7.3774L631,391.847Z"/>
        <path id="Path-83" class="cls-7" d="M621,412.487V398.053l10-5.773v34.641l-10,5.773-12.5-15.877Z"/>
        <path id="Path-84" class="cls-4" d="M608.5,416.817l10-5.773L631,426.921l-10,5.773Z"/>
        <path id="Path-85" class="cls-3" d="M621,398.053v25.981l5-2.887V395.166Z"/>
        <path id="Path-86" class="cls-21" d="M616,418.26l5,5.774V398.053l-5-2.887Z"/>
        <g id="Group-7">
          <path id="Path-87" class="cls-22" d="M624.4444,401.8144,622,403.2253v2.8228l8.5556,9.1735L633,413.81v-2.8218Z"/>
          <path id="Path-88" class="cls-21" d="M622,417.7349l9,.7416v-5.9379l-9-9.65Z"/>
          <path id="Path-89" class="cls-23" d="M622,410.3529l9,5.1964v-2.97l-9-9.65Z"/>
        </g>
      </g>
      <g id="Group-8">
        <path id="Path-90" class="cls-10" d="M631,490.7658l-10.2222,5.9023L608,480.4382V453.88l12.7778,7.3774L631,455.355Z"/>
        <path id="Path-91" class="cls-7" d="M621,475.995V461.562l10-5.774v34.641l-10,5.774-12.5-15.877Z"/>
        <path id="Path-92" class="cls-4" d="M608.5,480.326l10-5.774L631,490.429l-10,5.774Z"/>
        <path id="Path-93" class="cls-3" d="M621,461.562v25.981l5-2.887V458.675Z"/>
        <path id="Path-94" class="cls-21" d="M616,481.769l5,5.773v-25.98l-5-2.887Z"/>
        <g id="Group-9">
          <path id="Path-95" class="cls-22" d="M624.4444,465.3224,622,466.7343v2.8218l8.5556,9.1735L633,477.3187v-2.8228Z"/>
          <path id="Path-96" class="cls-21" d="M622,481.2429l9,.7426v-5.939l-9-9.649Z"/>
          <path id="Path-97" class="cls-23" d="M622,473.8609l9,5.1963v-2.9694l-9-9.6491Z"/>
        </g>
      </g>
      <g id="Group-10">
        <path id="Path-98" class="cls-10" d="M631,554.2748l-10.2222,5.9013L608,543.9463V517.3879l12.7778,7.3774L631,518.864Z"/>
        <path id="Path-99" class="cls-7" d="M621,539.504V525.07l10-5.773v34.641l-10,5.773-12.5-15.877Z"/>
        <path id="Path-100" class="cls-4" d="M608.5,543.834l10-5.773L631,553.938l-10,5.773Z"/>
        <path id="Path-101" class="cls-3" d="M621,525.07v25.981l5-2.887v-25.98Z"/>
        <path id="Path-102" class="cls-21" d="M616,545.277l5,5.774V525.07l-5-2.886Z"/>
        <g id="Group-11">
          <path id="Path-103" class="cls-22" d="M624.4444,528.8313,622,530.2423v2.8228l8.5556,9.1735L633,540.8267v-2.8219Z"/>
          <path id="Path-104" class="cls-21" d="M622,544.7519l9,.7426v-5.939l-9-9.65Z"/>
          <path id="Path-105" class="cls-23" d="M622,537.37l9,5.1964v-2.9695l-9-9.65Z"/>
        </g>
      </g>
      <g id="Group-12">
        <path id="Path-106" class="cls-10" d="M631,681.2918l-10.2222,5.9013L608,670.9632V644.4049l12.7778,7.3774L631,645.881Z"/>
        <path id="Path-107" class="cls-7" d="M621,666.521V652.087l10-5.773v34.641l-10,5.773-12.5-15.877Z"/>
        <path id="Path-108" class="cls-4" d="M608.5,670.851l10-5.773L631,680.955l-10,5.773Z"/>
        <path id="Path-109" class="cls-3" d="M621,652.087v25.981l5-2.887v-25.98Z"/>
        <path id="Path-110" class="cls-21" d="M616,672.295l5,5.773V652.087l-5-2.886Z"/>
        <g id="Group-13">
          <path id="Path-111" class="cls-22" d="M624.4444,655.8484,622,657.2593v2.8228l8.5556,9.1735L633,667.8437v-2.8218Z"/>
          <path id="Path-112" class="cls-21" d="M622,671.7689l9,.7426v-5.939l-9-9.65Z"/>
          <path id="Path-113" class="cls-23" d="M622,664.3869l9,5.1964v-2.97l-9-9.65Z"/>
        </g>
      </g>
      <g id="Group-14">
        <path id="Path-114" class="cls-10" d="M631,617.7828l-10.2222,5.9023L608,607.4553V580.8969l12.7778,7.3774L631,582.372Z"/>
        <path id="Path-115" class="cls-7" d="M621,603.013V588.579l10-5.774v34.641l-10,5.774-12.5-15.877Z"/>
        <path id="Path-116" class="cls-4" d="M608.5,607.343l10-5.774L631,617.446l-10,5.774Z"/>
        <path id="Path-117" class="cls-3" d="M621,588.579V614.56l5-2.887V585.692Z"/>
        <path id="Path-118" class="cls-21" d="M616,608.786l5,5.774V588.579l-5-2.887Z"/>
        <g id="Group-15">
          <path id="Path-119" class="cls-22" d="M624.4444,592.3394,622,593.7513v2.8218l8.5556,9.1735L633,604.3357v-2.8228Z"/>
          <path id="Path-120" class="cls-21" d="M622,608.26l9,.7426v-5.938l-9-9.65Z"/>
          <path id="Path-121" class="cls-23" d="M622,600.8779l9,5.1963v-2.9684l-9-9.65Z"/>
        </g>
      </g>
    </g>
    <g id="Group-16">
      <path id="Path-122" class="cls-4" d="M631,571.258l60-34.641,10,5.774-60,34.641Z"/>
      <path id="Path-123" class="cls-24" d="M631,692.502l10,5.773V577.032l-10-5.774Z"/>
    </g>
    <path id="Mask-2" class="cls-25" d="M701,542.391l-60,34.641V698.275l10,5.774,60-34.641V548.164Z"/>
    <g class="cls-26">
      <g id="_1Artboard_3" data-name=" 1Artboard 3">
        <path id="Path-124" class="cls-1" d="M760.539,588.056c5.327-8.274,7.782-14.873,6.755-18.385-1.314-4.487-8.469-4.472-19.307.145,5.656,2.245,9.662,6.91,11.568,13.472a31.022,31.022,0,0,1,.984,4.768Z"/>
        <path id="Path-125" class="cls-1" d="M677.553,628.113c-8.787,11.625-13.16,21.152-11.847,25.639,1.028,3.512,5.635,4.266,12.783,2.215a25.0084,25.0084,0,0,1-1.646-4.22c-1.929-6.543-1.683-14.728.71-23.634Z"/>
        <path id="Path-126" class="cls-27" d="M775.989,562.474c-2.151-7.35-10.734-8.527-24.169-3.314a118.0826,118.0826,0,0,0-19.207,9.911c5.753-1.248,10.995-.994,15.374.745,10.838-4.617,17.994-4.632,19.307-.145,1.027,3.512-1.428,10.111-6.755,18.385-7.624,11.844-21.134,27.123-38.757,41.708s-33.062,23.268-43.293,26.203c-7.148,2.05-11.755,1.297-12.783-2.215-1.313-4.487,3.06-14.014,11.847-25.639a84.5146,84.5146,0,0,1,9.0281-20.9419,194.5382,194.5382,0,0,0-16.387,19.548c-10.652,14.724-15.3341,26.88-13.1831,34.23s10.7341,8.527,24.1691,3.314q1.5369-.5963,3.1359-1.296c11.652-5.087,25.583-14.127,39.643-25.764a236.6075,236.6075,0,0,0,36.323-37.111q1.3021-1.7029,2.524-3.388C773.458,581.981,778.14,569.824,775.989,562.474Z"/>
        <g id="Group-17">
          <path id="Path-127" class="cls-28" d="M677.553,628.113c-2.393,8.906-2.639,17.091-.71,23.634a25.0084,25.0084,0,0,0,1.646,4.22c10.231-2.935,25.671-11.617,43.293-26.203s31.133-29.864,38.757-41.708a31.0244,31.0244,0,0,0-.984-4.768c-1.906-6.562-5.912-11.227-11.568-13.472-9.784,4.169-22.567,12.089-36.769,23.843A213.8468,213.8468,0,0,0,677.553,628.113Z"/>
          <path id="Path-128" class="cls-28" d="M732.613,569.071c-16.262,3.551-34.439,18.596-46.032,38.1A246.2283,246.2283,0,0,1,732.613,569.071Z"/>
          <path id="Path-129" class="cls-28" d="M684.316,662.967c10.337,7.553,27.724,3.595,44.235-10.07s28.983-34.422,31.731-52.805a236.6032,236.6032,0,0,1-36.323,37.111C709.899,648.84,695.968,657.88,684.316,662.967Z"/>
          <path id="Path-130" class="cls-28" d="M677.553,628.113a213.8468,213.8468,0,0,1,33.665-34.454c14.202-11.754,26.986-19.674,36.769-23.843-4.379-1.739-9.621-1.993-15.374-.745a246.1922,246.1922,0,0,0-46.032,38.1,84.5187,84.5187,0,0,0-9.028,20.942Z"/>
        </g>
      </g>
    </g>
    <path id="Path-131" class="cls-4" d="M641,577.032l60-34.641,10,5.773-60,34.641Z"/>
    <path id="Path-132" class="cls-7" d="M641,698.275l10,5.774V582.805l-10-5.773Z"/>
    <g id="Group-18">
      <path id="Path-133" class="cls-29" d="M691,409.6l-60,34.641V565.485l10,5.773,60-34.641V415.374Z"/>
      <path id="Path-134" class="cls-4" d="M631,444.241,691,409.6l10,5.774-60,34.641Z"/>
      <path id="Path-135" class="cls-24" d="M631,565.485l10,5.773V450.015l-10-5.774Z"/>
    </g>
    <path id="Mask-3" class="cls-30" d="M691,282.583l-60,34.641V438.468l10,5.773L701,409.6V288.357Z"/>
    <g class="cls-31">
      <g id="Group-19">
        <g id="Group-20">
          <path id="Path-136" class="cls-32" d="M671.915,405.729q-.0739.0429-.148.085-.1335.075-.267.147c-.089.054-.178.108-.267.161-.05.03-.099.058-.148.087-6.06,3.499-10.553,1.22-11.717.494-.273.198-.55.378-.826.54a2.1427,2.1427,0,0,1-1.274.412.1971.1971,0,0,1-.161-.184.6177.6177,0,0,1,.088-.359c.304-.55.719-1.301,1.059-1.914l-.037.021c-1.76,1.016-2.191.896-2.332.856-.108-.03-.16-.14-.138-.292a.8541.8541,0,0,1,.242-.454,16.6284,16.6284,0,0,0,2.975-3.886c.07-.18.188-.607.326-1.102.311-1.118.794-2.853,1.546-4.857a.2212.2212,0,0,1-.014-.031c-.007-.016-.623-1.629-1.12-3.363-.984-3.434-.655-4.247-.269-4.739a1.6851,1.6851,0,0,1,.49-.425c1.294-.747,4.344.109,5.239.386a20.8715,20.8715,0,0,1,6.281-5.746l.113-.065a9.6657,9.6657,0,0,1,5.85-1.575c1.451-2.083,3.787-5.281,4.874-5.908a.8264.8264,0,0,1,.489-.14c.311.038,1.034.127-1.104,8.603a15.4068,15.4068,0,0,1,2.045,3.762,5.5634,5.5634,0,0,0,.326.724c.467.664,2.305.551,2.974.452a.1969.1969,0,0,1,.243.173.6589.6589,0,0,1-.138.452,6.56,6.56,0,0,1-2.332,1.838l-.037.021c.34.22.755.492,1.059.692a.2572.2572,0,0,1,.087.257.7838.7838,0,0,1-.16.369,4.141,4.141,0,0,1-1.274,1.059,8.3047,8.3047,0,0,1-.827.415C682.468,394.764,677.975,402.231,671.915,405.729Z"/>
          <path id="Compound_Path" data-name="Compound Path" d="M682.28,374.427a.4456.4456,0,0,1,.255-.079c.733.09-.721,6.109-1.311,8.434a21.1659,21.1659,0,0,1,2.446,4.579c.636.905,3.179.527,3.179.527a7.338,7.338,0,0,1-2.066,1.585c-.477.275-.84.456-.84.456a.4067.4067,0,0,0-.108.022c-.013.007-.013.017.017.03.091.039,1.635,1.055,1.635,1.055a3.4775,3.4775,0,0,1-1.029.836,8.4376,8.4376,0,0,1-.995.481c-.773,1.409-5.336,9.381-11.548,12.968-.047.027-.095.054-.143.081-.091.052-.182.101-.272.15-.091.056-.181.111-.273.165l-.142.083c-6.211,3.586-10.775.883-11.548.366a10.4385,10.4385,0,0,1-.995.668,1.8867,1.8867,0,0,1-1.029.352s1.544-2.798,1.635-2.942c.03-.048.03-.058.017-.05a.947.947,0,0,0-.108.103s-.363.238-.84.514a4.4468,4.4468,0,0,1-2.066.8s2.543-2.558,3.178-4.196a71.3008,71.3008,0,0,1,2.41-7.317l-.528,1.008s-2.452-6.395-1.544-7.556a.8833.8833,0,0,1,.256-.216c1.285-.741,5.103.483,5.103.483l-.475.907a20.8269,20.8269,0,0,1,6.892-6.749l.057-.033c.019-.011.038-.021.056-.032a8.92,8.92,0,0,1,5.874-1.478c.873-1.265,3.765-5.379,4.85-6.005m0-.818c-.45.26-1.196.858-2.986,3.199-.713.932-1.407,1.899-1.916,2.622a10.3257,10.3257,0,0,0-5.822,1.662l-.056.033-.057.032a21.5133,21.5133,0,0,0-6.262,5.619c-.388-.111-1.023-.279-1.727-.414-2.172-.415-3.028-.135-3.531.155a2.5324,2.5324,0,0,0-.724.634,3.3261,3.3261,0,0,0-.4849,2.639,19.1637,19.1637,0,0,0,.591,2.626c.4379,1.53.954,2.928,1.092,3.294q-.8655,2.3835-1.495,4.727c-.121.437-.247.888-.304,1.034a15.57,15.57,0,0,1-2.77,3.575,1.7117,1.7117,0,0,0-.485.908c-.043.304.061.525.276.585.243.068.688.077,1.798-.478-.157.284-.335.608-.539.978a1.2168,1.2168,0,0,0-.176.716.39.39,0,0,0,.32.368,2.4859,2.4859,0,0,0,1.52-.471c.219-.128.439-.267.657-.418,1.388.818,5.879,2.852,11.886-.617.051-.029.102-.059.153-.089.095-.056.187-.112.262-.158.075-.041.167-.091.262-.144l.153-.088c6.007-3.468,10.498-10.687,11.886-13.108q.327-.1515.657-.341a4.9441,4.9441,0,0,0,1.519-1.283,1.5792,1.5792,0,0,0,.3211-.738.514.514,0,0,0-.176-.514c-.204-.134-.383-.251-.54-.354a6.13,6.13,0,0,0,1.799-1.599,1.3192,1.3192,0,0,0,.276-.904.3947.3947,0,0,0-.4294-.3565.3866.3866,0,0,0-.0566.01c-.877.129-2.406.141-2.769-.376a6.0682,6.0682,0,0,1-.304-.684,15.8457,15.8457,0,0,0-1.994-3.708c.295-1.181.753-3.081,1.071-4.745.553-2.892.508-3.946-.171-4.03a1.2089,1.2089,0,0,0-.724.202Z"/>
        </g>
        <path id="Path-137" class="cls-32" d="M683.943,389.929a10.58,10.58,0,0,0,2.906-2.041s-2.543.378-3.179-.527a21.2168,21.2168,0,0,0-2.446-4.579c.59-2.325,2.044-8.344,1.311-8.434-.777-.096-4.149,4.7-5.105,6.084-1.564-.256-3.509.1-5.93,1.51a20.7943,20.7943,0,0,0-6.949,6.782l.475-.907s-4.45-1.427-5.359-.267l1.544,7.556.528-1.008a71.3089,71.3089,0,0,0-2.41,7.317c-.635,1.638-3.178,4.196-3.178,4.196.635.178,2.906-1.314,2.906-1.314s.182-.196.091-.053-1.635,2.942-1.635,2.942c.447.077,1.376-.536,2.024-1.02.779.521,5.406,3.262,11.69-.449.092-.054.182-.109.273-.165.09-.049.181-.098.272-.15,6.285-3.546,10.912-11.629,11.691-13.049a5.1259,5.1259,0,0,0,2.024-1.317s-1.544-1.016-1.635-1.055S683.943,389.929,683.943,389.929Z"/>
      </g>
    </g>
    <path id="Path-138" class="cls-4" d="M631,317.224l60-34.641,10,5.774-60,34.641Z"/>
    <path id="Path-139" class="cls-24" d="M631,438.468l10,5.773V322.998l-10-5.774Z"/>
    <path id="Path-140" class="cls-21" d="M616,181.547l5,2.887,20-11.547L636,170Z"/>
    <path id="Path-141" class="cls-33" d="M621,195.981l20-11.547V172.887l-20,11.547Z"/>
    <path id="Path-142" class="cls-34" d="M621,195.981V184.434l-5-2.887v11.547Z"/>
    <path id="Path-143" class="cls-35" d="M381,542.391l10-5.774,60,23.094Z"/>
    <path id="Path-144" class="cls-36" d="M451,628.993V559.711l-70-17.32v69.282Z"/>
    <path id="Path-145" class="cls-37" d="M741,750.237l5,2.887-55,31.7541L626,747.35l5-2.887,60,34.6409Z"/>
    <path id="Path-146" class="cls-6" d="M571,351.865V712.709l10,2.887V357.639Z"/>
    <path id="Path-147" class="cls-8" d="M571,374.959l10,5.774V357.639l-10-5.774Z"/>
    <path id="Path-148" class="cls-8" d="M571,467.335l10,5.774V450.015l-10-5.774Z"/>
    <path id="Path-149" class="cls-8" d="M571,559.711l10,5.774V542.391l-10-5.774Z"/>
    <path id="Path-150" class="cls-8" d="M571,421.147l10,5.774V403.827l-10-5.774Z"/>
    <path id="Path-151" class="cls-8" d="M571,513.523l10,5.774V496.203l-10-5.774Z"/>
    <path id="Path-152" class="cls-8" d="M571,605.899l10,5.774V588.579l-10-5.774Z"/>
    <path id="Path-153" class="cls-8" d="M571,652.087l10,5.774V634.767l-10-5.774Z"/>
    <path id="Path-154" class="cls-8" d="M571,698.275l10,5.774V680.955l-10-5.774Z"/>
    <path id="Path-155" class="cls-38" d="M451,646.314l105,37.528v40.414L451,686.728Z"/>
    <path id="Path-156" class="cls-12" d="M576,672.295l-20,11.547v40.414l20-11.547Z"/>
    <path id="Path-157" class="cls-3" d="M451,646.314l5-2.887,100,34.641v5.774Z"/>
    <path id="Path-158" class="cls-3" d="M571,669.408l5,2.887-20,11.547v-5.774Z"/>
    <path id="Path-159" class="cls-6" d="M556,753.124V730.03L306,640.54v23.094Z"/>
    <path id="Path-160" class="cls-8" d="M556,753.124l25-14.434V715.596L556,730.03Z"/>
    <path id="Path-161" class="cls-39" d="M556,819.519l25-14.434v2.887l-25,14.434Z"/>
    <path id="Path-162" class="cls-40" d="M556,776.218v43.301l8-4.33V771.887Z"/>
    <path id="Path-163" class="cls-40" d="M571,767.557v43.302l10-5.774V761.784Z"/>
    <path id="Path-164" class="cls-19" d="M691,819.519v40.414l-10-5.773V813.745Z"/>
    <path id="Path-165" class="cls-40" d="M691,819.519v40.414l10-5.773V813.745Z"/>
    <path id="Path-166" class="cls-19" d="M671,807.972v40.414l-10-5.773V802.198Z"/>
    <path id="Path-167" class="cls-40" d="M711,807.972v40.414l10-5.773V802.198Z"/>
    <path id="Path-168" class="cls-19" d="M651,796.425v40.414l-10-5.773V790.651Z"/>
    <path id="Path-169" class="cls-40" d="M731,796.425v40.414l10-5.773V790.651Z"/>
    <path id="Path-170" class="cls-41" d="M651,836.839v-2.886l-20-11.547v2.886Z"/>
    <path id="Path-171" class="cls-41" d="M691.4444,860.0933,694,858.6183v-2.9512l-2.5556,1.4761L671,845.34v2.95Z"/>
    <path id="Path-172" class="cls-39" d="M741,828.179v2.887l-50,28.867v-2.8859Z"/>
    <path id="Path-173" class="cls-42" d="M651,813.745l20,11.547v5.774l-20-11.547Z"/>
    <path id="Path-174" class="cls-42" d="M496,777.661l20,7.217v5.773l-20-7.217Z"/>
    <path id="Path-175" class="cls-42" d="M426,753.124l20,7.216v5.774l-20-7.217Z"/>
    <path id="Path-176" class="cls-42" d="M356,728.586l20,7.217v5.774l-20-7.217Z"/>
    <path id="Path-177" class="cls-41" d="M306,732.916l50,17.321v2.887l-50-17.321Z"/>
    <path id="Path-178" class="cls-41" d="M376,757.141l50,17.321v2.886l-50-17.32Z"/>
    <path id="Path-179" class="cls-41" d="M446,781.391l50,17.321v2.886l-50-17.32Z"/>
    <path id="Path-180" class="cls-41" d="M516,805.641l40,13.878v2.887l-40-13.878Z"/>
    <path id="Path-181" class="cls-7" d="M306,692.502l250,86.602,5-2.886v-5.774l-5,2.8871L306,686.728Z"/>
    <path id="Path-182" class="cls-5" d="M581,758.897v5.774l-25,14.4329v-5.773Z"/>
    <path id="Path-183" class="cls-16" d="M616,822.406V799.312l-30-17.321v23.094Z"/>
    <path id="Path-184" class="cls-16" d="M616,764.671V741.577l-30-17.321V747.35Z"/>
    <path id="Path-185" class="cls-16" d="M616,793.538V770.444l-30-17.32v23.094Z"/>
    <path id="Path-186" class="cls-16" d="M616,735.803V712.709l-30-17.32v23.094Z"/>
    <path id="Path-187" class="cls-16" d="M604,671.3253V647.5714L586,637.18v23.7539Z"/>
    <path id="Path-188" class="cls-16" d="M604,642.4583V618.7044l-18-10.3926v23.7538Z"/>
    <path id="Path-189" class="cls-16" d="M604,613.59V589.8364l-18-10.3916v23.7538Z"/>
    <path id="Path-190" class="cls-16" d="M604,555.8553V532.1014l-18-10.3926v23.7538Z"/>
    <path id="Path-191" class="cls-16" d="M604,498.12V474.3664l-18-10.3927v23.7539Z"/>
    <path id="Path-192" class="cls-16" d="M604,440.3853V416.6314l-18-10.3927v23.7539Z"/>
    <path id="Path-193" class="cls-16" d="M604,382.32v-23.094l-28-16.1656v5.9173l10,5.774v17.1756Z"/>
    <path id="Path-194" class="cls-16" d="M604,584.7233V560.9694l-18-10.3927v23.7539Z"/>
    <path id="Path-195" class="cls-16" d="M604,526.9883V503.2344l-18-10.3926v23.7538Z"/>
    <path id="Path-196" class="cls-16" d="M604,469.2532V445.4994l-18-10.3927v23.7539Z"/>
    <path id="Path-197" class="cls-16" d="M604,411.5183V387.7644l-18-10.3927v23.7539Z"/>
    <path id="Path-198" class="cls-16" d="M604,353.6633V330.1494l-28-16.1667v23.5139Z"/>
    <path id="Path-199" class="cls-16" d="M604,324.7428V307.1069l-28-16.1657v17.6359Z"/>
    <path id="Path-200" class="cls-16" d="M616,706.936V689.955l-10-11.887-20-11.547v23.0941Z"/>
    <path id="Path-201" class="cls-16" d="M608,512.8017l8,4.6186V495.8662l-8-10.7776Z"/>
    <path id="Path-202" class="cls-16" d="M608,385.7847l8,4.6187V368.8492l-8-10.7776Z"/>
    <path id="Path-203" class="cls-16" d="M608,309.4778l8,4.6186v12.3168l-8-4.6186Z"/>
    <path id="Mask-4" class="cls-5" d="M401,501.976,383.5,512.08l100,37.528Z"/>
    <g class="cls-43">
      <path id="Path-204" class="cls-10" d="M401,501.976,383.5,512.08l5,2.887L401,507.75Z"/>
    </g>
    <path id="Path-205" class="cls-16" d="M608,576.31l8,4.62V559.3742l-8-10.7766Z"/>
    <path id="Path-206" class="cls-16" d="M608,449.2927l8,4.6186V432.3572l-8-10.7765Z"/>
    <path id="Path-207" class="cls-16" d="M608,639.8187l8,4.6186V622.8832l-8-10.7776Z"/>
    <path id="Path-208" class="cls-6" d="M401,499.089v8.661l52.5,30.311L481,548.164v-5.773Z"/>
    <path id="Mask-5" class="cls-5" d="M318.5,616.003,371,585.692v43.301l58.75,23.816L426,654.974Z"/>
    <g class="cls-44">
      <path id="Path-209" class="cls-10" d="M371,585.692v5.773L323.5,618.89l-7.5-1.444Z"/>
    </g>
    <path id="Path-210" class="cls-21" d="M561,842.613V845.5l20-11.547v-2.887Z"/>
    <path id="Path-211" class="cls-21" d="M681,888.801v2.887l100-57.7349V831.066Z"/>
    <path id="Path-212" class="cls-2" d="M281,750.237v2.887L561,845.5v-2.887Z"/>
    <g id="Group-21">
      <path id="Compound_Path-2" data-name="Compound Path-2" class="cls-22" d="M721.237,785.639a5.0384,5.0384,0,0,1,.261-1.583,6.6515,6.6515,0,0,1,.715-1.52,7.3466,7.3466,0,0,1,1.096-1.3309,7.1469,7.1469,0,0,1,1.403-1.061,4.6468,4.6468,0,0,1,1.412-.583,1.8707,1.8707,0,0,1,1.106.051,1.4081,1.4081,0,0,1,.725.679,2.75,2.75,0,0,1,.26,1.283,4.9187,4.9187,0,0,1-.26,1.555,6.713,6.713,0,0,1-.725,1.507,7.7938,7.7938,0,0,1-1.106,1.355,7.4767,7.4767,0,0,1-1.412,1.076,4.7214,4.7214,0,0,1-1.403.568,2.0255,2.0255,0,0,1-1.096-.065,1.4432,1.4432,0,0,1-.715-.676A2.6279,2.6279,0,0,1,721.237,785.639Zm1.227-.782a2.1708,2.1708,0,0,0,.158.886,1.0553,1.0553,0,0,0,.464.504,1.191,1.191,0,0,0,.706.104,2.5855,2.5855,0,0,0,.9289-.35,4.2935,4.2935,0,0,0,.929-.723,4.9243,4.9243,0,0,0,.716-.925,4.4351,4.4351,0,0,0,.455-1.0349,3.6141,3.6141,0,0,0,.167-1.073,1.8143,1.8143,0,0,0-.167-.8251.9682.9682,0,0,0-.455-.481,1.1446,1.1446,0,0,0-.716-.09,2.5992,2.5992,0,0,0-.929.35,4.3407,4.3407,0,0,0-.9289.723,4.7492,4.7492,0,0,0-.706.91,4.6385,4.6385,0,0,0-.464,1.013A3.44,3.44,0,0,0,722.464,784.857Z"/>
      <path id="Compound_Path-3" data-name="Compound Path-3" class="cls-22" d="M730,779.634v.0589l.637-.011a3.302,3.302,0,0,1,.65-.971,4.0516,4.0516,0,0,1,.883-.695,2.4854,2.4854,0,0,1,.92-.3449,1.1276,1.1276,0,0,1,.697.09.9668.9668,0,0,1,.436.493,2.0924,2.0924,0,0,1,.149.835,3.4776,3.4776,0,0,1-.158,1.012,4.4711,4.4711,0,0,1-.446,1.002,4.7243,4.7243,0,0,1-.678.894,4.0659,4.0659,0,0,1-.874.681,2.7281,2.7281,0,0,1-.557.2571,1.589,1.589,0,0,1-.427.0789,1.0575,1.0575,0,0,1-.316-.031.7753.7753,0,0,1-.214-.11l.298.0171v2.689l-1,.643Zm3.257.099a1.0018,1.0018,0,0,0-.093-.449.525.525,0,0,0-.26-.278.6865.6865,0,0,0-.409-.062,1.4688,1.4688,0,0,0-.548.205,2.4873,2.4873,0,0,0-.548.428,3.1905,3.1905,0,0,0-.418.539,2.7556,2.7556,0,0,0-.26.5789,1.9754,1.9754,0,0,0-.084.55,1.1367,1.1367,0,0,0,.084.4551.6039.6039,0,0,0,.26.2769.7535.7535,0,0,0,.418.057,1.4694,1.4694,0,0,0,.548-.205,2.4873,2.4873,0,0,0,.548-.428,2.879,2.879,0,0,0,.409-.534,2.3588,2.3588,0,0,0,.26-.578A1.86,1.86,0,0,0,733.257,779.733Z"/>
      <path id="Compound_Path-4" data-name="Compound Path-4" class="cls-22" d="M736.5989,778.173c.037.314.167.499.39.557a1.1082,1.1082,0,0,0,.8089-.188,2.6185,2.6185,0,0,0,.6961-.57,4.57,4.57,0,0,0,.502-.727l.799.144a5.2709,5.2709,0,0,1-.873,1.193,4.9183,4.9183,0,0,1-1.013.789,3.1751,3.1751,0,0,1-.947.38,1.41,1.41,0,0,1-.772-.03,1.01,1.01,0,0,1-.52-.434,1.7443,1.7443,0,0,1-.186-.861,3.2354,3.2354,0,0,1,.186-1.066,4.89,4.89,0,0,1,.52-1.044,5.2277,5.2277,0,0,1,.772-.92,5.0053,5.0053,0,0,1,.947-.715,2.3785,2.3785,0,0,1,.846-.32.9732.9732,0,0,1,.659.084.9505.9505,0,0,1,.428.516,2.3548,2.3548,0,0,1,.158.942v.307Zm2.3221-2.157q-.0105-.4875-.307-.595a1.01,1.01,0,0,0-.827.189,2.3063,2.3063,0,0,0-.799.75,2.339,2.339,0,0,0-.353.9761Z"/>
      <path id="Path-213" class="cls-22" d="M741,772.776l1-.5779v.6957l.0189-.01a3.3372,3.3372,0,0,1,.4814-.8531,2.8493,2.8493,0,0,1,.8791-.7585,1.9309,1.9309,0,0,1,.75-.284.7533.7533,0,0,1,.5093.0946.7088.7088,0,0,1,.2781.3967,2.07,2.07,0,0,1,.0827.61v2.8195l-1,.644v-2.2568q0-.2024-.02-.434a.9936.9936,0,0,0-.1109-.4013.3526.3526,0,0,0-.2632-.2121.7079.7079,0,0,0-.4948.1338,2.2554,2.2554,0,0,0-.5155.3991,2.44,2.44,0,0,0-.3437.4709,2.1755,2.1755,0,0,0-.2523,1.006v2.3563l-1,.644Z"/>
    </g>
    <g id="Group-22">
      <path id="Compound_Path-5" data-name="Compound Path-5" class="cls-22" d="M651,779.321a2.581,2.581,0,0,1,.246-1.21,1.3433,1.3433,0,0,1,.675-.6551,1.8019,1.8019,0,0,1,1.034-.062,4.244,4.244,0,0,1,1.324.528,6.93,6.93,0,0,1,2.376,2.2411,6.18,6.18,0,0,1,.684,1.431,4.7519,4.7519,0,0,1,.246,1.494,2.4811,2.4811,0,0,1-.246,1.184,1.3288,1.3288,0,0,1-.684.633,1.9026,1.9026,0,0,1-1.043.073,4.3733,4.3733,0,0,1-1.333-.523,6.9719,6.9719,0,0,1-1.324-.993,7.301,7.301,0,0,1-1.034-1.2559,6.3658,6.3658,0,0,1-.675-1.417A4.6263,4.6263,0,0,1,651,779.321Zm1.157.598a3.5731,3.5731,0,0,0,.149,1.008,4.513,4.513,0,0,0,.439.982,4.7564,4.7564,0,0,0,.666.868,4.0877,4.0877,0,0,0,.877.682,2.4319,2.4319,0,0,0,.877.33,1.1192,1.1192,0,0,0,.675-.093.9566.9566,0,0,0,.43-.48,1.934,1.934,0,0,0,.157-.831,3.1571,3.1571,0,0,0-.157-.961,4.1611,4.1611,0,0,0-.43-.95,4.4351,4.4351,0,0,0-.675-.864,4.034,4.034,0,0,0-.877-.682,2.4311,2.4311,0,0,0-.877-.331,1.0819,1.0819,0,0,0-.666.09.9613.9613,0,0,0-.439.449A1.845,1.845,0,0,0,652.157,779.919Z"/>
      <path id="Compound_Path-6" data-name="Compound Path-6" class="cls-22" d="M659,782.723v1.2091l.871.01a.665.665,0,0,1,.614-.207,2.2332,2.2332,0,0,1,.833.305,3.9838,3.9838,0,0,1,.868.677,4.4013,4.4013,0,0,1,.657.845,3.9927,3.9927,0,0,1,.412.94,3.3957,3.3957,0,0,1,.141.951,1.8435,1.8435,0,0,1-.149.783.9521.9521,0,0,1-.421.459,1.0489,1.0489,0,0,1-.64.1049,2.3012,2.3012,0,0,1-.825-.309,3.621,3.621,0,0,1-.526-.365,3.9468,3.9468,0,0,1-.403-.391,4.222,4.222,0,0,1-.298-.374,3.784,3.784,0,0,1-.202-.336l.068-.015v2.523l-1-.5779Zm3.343,4.122a1.7671,1.7671,0,0,0-.087-.525,2.2458,2.2458,0,0,0-.246-.545,2.723,2.723,0,0,0-.386-.504,2.3139,2.3139,0,0,0-.517-.404,1.3779,1.3779,0,0,0-.517-.193.71.71,0,0,0-.395.053.5736.5736,0,0,0-.245.262,1.07,1.07,0,0,0-.079.429,1.8626,1.8626,0,0,0,.079.519,2.5984,2.5984,0,0,0,.245.546,2.9916,2.9916,0,0,0,.395.509,2.3161,2.3161,0,0,0,.517.404,1.3785,1.3785,0,0,0,.517.193.646.646,0,0,0,.386-.058.4975.4975,0,0,0,.246-.262.9581.9581,0,0,0,.087-.424Z"/>
      <path id="Compound_Path-7" data-name="Compound Path-7" class="cls-22" d="M665.79,789.055a1.9857,1.9857,0,0,0,.369.95,2.3876,2.3876,0,0,0,.763.704,1.3317,1.3317,0,0,0,.657.221.9222.9222,0,0,0,.474-.139l.754,1.006a1.13,1.13,0,0,1-.825.174,2.7648,2.7648,0,0,1-.955-.359,4.7234,4.7234,0,0,1-.895-.674,4.9547,4.9547,0,0,1-.727-.868,4.5864,4.5864,0,0,1-.491-.977,3.13,3.13,0,0,1-.176-1.015,1.5975,1.5975,0,0,1,.176-.803.9417.9417,0,0,1,.491-.419,1.338,1.338,0,0,1,.727-.028,2.9908,2.9908,0,0,1,.895.359,3.7417,3.7417,0,0,1,.798.618,3.9265,3.9265,0,0,1,1.025,1.752,3.7237,3.7237,0,0,1,.15,1.061v.289Zm1.898.455a1.65,1.65,0,0,0-.289-.896,2.2339,2.2339,0,0,0-.78-.723.9066.9066,0,0,0-.754-.163.62.62,0,0,0-.334.536Z"/>
      <path id="Path-214" class="cls-22" d="M670,789.18l1,.5776v.6133l.019.0106a.6737.6737,0,0,1,.4815-.2967,1.3771,1.3771,0,0,1,.88.2576,3.265,3.265,0,0,1,.75.5808,3.32,3.32,0,0,1,.5089.6843,2.7366,2.7366,0,0,1,.2778.7159A3.1473,3.1473,0,0,1,674,793.03v2.5676l-1-.577v-2.149a1.1529,1.1529,0,0,1-.192-.397,1.7934,1.7934,0,0,0-.096-.459,1.4742,1.4742,0,0,0-.228-.448,1.3232,1.3232,0,0,0-.43-.38,1.1714,1.1714,0,0,0-.447-.17.4061.4061,0,0,0-.465.3109c-.0367.1212-.142.374-.142.374v2.285l-1-.577Z"/>
      <path id="Path-215" class="cls-22" d="M678.525,793.412a2.2927,2.2927,0,0,0-.474-.642,2.955,2.955,0,0,0-.614-.477,2.1279,2.1279,0,0,0-.377-.174.856.856,0,0,0-.324-.047.3331.3331,0,0,0-.228.1229.4548.4548,0,0,0-.088.31,1.0031,1.0031,0,0,0,.2189.6091,5.0178,5.0178,0,0,0,.5441.604q.324.31.71.6469a6.4822,6.4822,0,0,1,.71.726,4.0022,4.0022,0,0,1,.544.85,2.3289,2.3289,0,0,1,.219,1.013,1.3652,1.3652,0,0,1-.184.772.7747.7747,0,0,1-.5.326,1.4778,1.4778,0,0,1-.7189-.046,3.8452,3.8452,0,0,1-.8681-.378,6.1052,6.1052,0,0,1-1.113-.836,4.9717,4.9717,0,0,1-.921-1.182l.8331-.3271a3.3254,3.3254,0,0,0,.526.787,3.0113,3.0113,0,0,0,.7019.572,1.8458,1.8458,0,0,0,.3851.17.918.918,0,0,0,.351.044.38.38,0,0,0,.254-.116.4751.4751,0,0,0,.097-.322,1.12,1.12,0,0,0-.219-.654,4.3248,4.3248,0,0,0-.544-.621q-.3242-.318-.71-.656a6.7506,6.7506,0,0,1-.71-.717,4.0924,4.0924,0,0,1-.544-.841,2.3282,2.3282,0,0,1-.219-1.013,1.1364,1.1364,0,0,1,.193-.723.8125.8125,0,0,1,.517-.281,1.6826,1.6826,0,0,1,.737.074,3.9216,3.9216,0,0,1,.841.372,5.5306,5.5306,0,0,1,.947.696,5.0189,5.0189,0,0,1,.833.972Z"/>
      <path id="Compound_Path-8" data-name="Compound Path-8" class="cls-22" d="M681.791,798.317a1.9842,1.9842,0,0,0,.368.951,2.4216,2.4216,0,0,0,.763.704,1.3467,1.3467,0,0,0,.658.221.9165.9165,0,0,0,.473-.139l.754,1.006a1.1263,1.1263,0,0,1-.824.174,2.77,2.77,0,0,1-.956-.359,4.7507,4.7507,0,0,1-.894-.674,5.009,5.009,0,0,1-.728-.868,4.6769,4.6769,0,0,1-.491-.977,3.158,3.158,0,0,1-.175-1.015,1.6048,1.6048,0,0,1,.175-.803.9492.9492,0,0,1,.491-.419,1.3416,1.3416,0,0,1,.728-.028,2.9975,2.9975,0,0,1,.894.358,3.6955,3.6955,0,0,1,.798.619,3.915,3.915,0,0,1,1.026,1.752,3.72,3.72,0,0,1,.149,1.06v.29Zm1.941.455a1.6578,1.6578,0,0,0-.289-.895,2.2339,2.2339,0,0,0-.78-.723.9089.9089,0,0,0-.755-.163.6211.6211,0,0,0-.333.536Z"/>
      <path id="Compound_Path-9" data-name="Compound Path-9" class="cls-22" d="M689,803.6974l-.0275-.0159a.7217.7217,0,0,1-.6114.2038,2.2338,2.2338,0,0,1-.8152-.3042,3.9167,3.9167,0,0,1-.6019-.4308,3.76,3.76,0,0,1-.5185-.55,2.9421,2.9421,0,0,1-.3612-.6251,1.718,1.718,0,0,1-.1383-.6642.9044.9044,0,0,1,.13-.5375.5384.5384,0,0,1,.3422-.2291,1.2005,1.2005,0,0,1,.509.0158,3.4971,3.4971,0,0,1,.5924.1944,5.69,5.69,0,0,1,.63.2988q.3137.1632.5924.3232l.2777.16v-.12a1.2652,1.2652,0,0,0-.2872-.7878,2.42,2.42,0,0,0-.7318-.6346,1.9069,1.9069,0,0,0-.6568-.25.9748.9748,0,0,0-.528.03l-.5829-.9208a1.3125,1.3125,0,0,1,.8606-.0507,3.9325,3.9325,0,0,1,1.0275.4266,4.423,4.423,0,0,1,.7962.5713,3.7916,3.7916,0,0,1,.5374.5787,2.5246,2.5246,0,0,1,.3242.5766,2.5692,2.5692,0,0,1,.1669.5322,2.8139,2.8139,0,0,1,.0644.4731c.0063.1394.01.2618.01.3664v2.56l-1-.5776Zm0-1.4444-.22-.126c-.146-.085-.309-.173-.491-.266a2.8785,2.8785,0,0,0-.517-.211.7993.7993,0,0,0-.403-.04c-.112.0181-.167.1031-.167.2551a.7327.7327,0,0,0,.061.29,1.5563,1.5563,0,0,0,.176.268,1.6891,1.6891,0,0,0,.237.242,2.1952,2.1952,0,0,0,.263.1791q.543.3133.797.2059c.176-.075.264-.2609.264-.56Z"/>
    </g>
    <g id="Group-23">
      <path class="cls-45" d="M639.789,764.135l-2.309-1.333c-4.118-2.378-7.462-.448-7.462,4.308h0a16.5013,16.5013,0,0,0,7.462,12.923l2.309,1.333c4.118,2.378,7.461.447,7.461-4.308h0A16.5,16.5,0,0,0,639.789,764.135Z"/>
      <path class="cls-46" d="M639.789,764.135l-2.309-1.333c-4.118-2.378-7.462-.448-7.462,4.308h0a16.5013,16.5013,0,0,0,7.462,12.923l2.309,1.333c4.118,2.378,7.461.447,7.461-4.308h0A16.5,16.5,0,0,0,639.789,764.135Z"/>
      <g id="Group-24" class="cls-47">
        <g class="cls-47">
          <path id="Path-216" class="cls-45" d="M644.225,768.791a3.6528,3.6528,0,0,1-1.241.307c-1.658.147-2.982.962-3.018,4.094-.041,3.469,1.539,6.12,3.412,8.799a8.2578,8.2578,0,0,1-4.768-1.306c-4.745-2.739-8.592-8.817-8.592-13.575s3.847-6.395,8.592-3.656A18.0752,18.0752,0,0,1,644.225,768.791Z"/>
        </g>
        <g class="cls-47">
          <path id="Path-217" class="cls-48" d="M644.225,768.791a3.6528,3.6528,0,0,1-1.241.307c-1.658.147-2.982.962-3.018,4.094-.041,3.469,1.539,6.12,3.412,8.799a8.2578,8.2578,0,0,1-4.768-1.306c-4.745-2.739-8.592-8.817-8.592-13.575s3.847-6.395,8.592-3.656A18.0752,18.0752,0,0,1,644.225,768.791Z"/>
        </g>
      </g>
      <g id="Group-25" class="cls-47">
        <g class="cls-47">
          <path id="Path-218" class="cls-45" d="M640.759,764.967a2.8731,2.8731,0,0,1-1.219,1.262c-1.306.754-2.163,2.134-1.364,5.644,1.011,4.439,3.452,6.938,6.054,9.602.088.09.175.18.263.27-1.537.562-3.607.255-5.883-1.06-4.745-2.739-8.592-8.817-8.592-13.575s3.847-6.395,8.592-3.656A15.2614,15.2614,0,0,1,640.759,764.967Z"/>
        </g>
        <g class="cls-47">
          <path id="Path-219" class="cls-49" d="M640.759,764.967a2.8731,2.8731,0,0,1-1.219,1.262c-1.306.754-2.163,2.134-1.364,5.644,1.011,4.439,3.452,6.938,6.054,9.602.088.09.175.18.263.27-1.537.562-3.607.255-5.883-1.06-4.745-2.739-8.592-8.817-8.592-13.575s3.847-6.395,8.592-3.656A15.2614,15.2614,0,0,1,640.759,764.967Z"/>
        </g>
      </g>
      <g id="Group-26" class="cls-50">
        <g class="cls-50">
          <path id="Path-220" class="cls-45" d="M630.626,764.271c.028.128.058.26.092.395,1.105,4.466,4.187,7.156,7.473,10.022a35.0456,35.0456,0,0,1,6.583,6.942c-1.561.711-3.746.452-6.164-.945-4.745-2.739-8.592-8.817-8.592-13.575A6.1625,6.1625,0,0,1,630.626,764.271Z"/>
        </g>
        <g class="cls-50">
          <path id="Path-221" class="cls-51" d="M630.626,764.271c.028.128.058.26.092.395,1.105,4.466,4.187,7.156,7.473,10.022a35.0456,35.0456,0,0,1,6.583,6.942c-1.561.711-3.746.452-6.164-.945-4.745-2.739-8.592-8.817-8.592-13.575A6.1625,6.1625,0,0,1,630.626,764.271Z"/>
        </g>
      </g>
      <path id="Path-222" class="cls-22" d="M638.597,778.333c3.425,1.978,6.202.796,6.202-2.639s-2.777-7.823-6.202-9.8-6.202-.796-6.202,2.639S635.172,776.356,638.597,778.333Z"/>
      <path id="Path-223" class="cls-52" d="M638,769.217v.39l1-.299v-.333c-.429.07-.3587.13-.28.177C638.7836,769.1921,638.8568,769.2146,638,769.217Z"/>
      <path id="Path-224" class="cls-52" d="M639,773.319v-.246C638.627,773.141,638.769,773.223,639,773.319Z"/>
      <path id="Path-225" class="cls-53" d="M639.126,768.967c0,.156-.082.245-.208.246a.4171.4171,0,0,1-.208-.0641.8828.8828,0,0,1-.417-.663c0-.233.189-.314.42-.18A.859.859,0,0,1,639.126,768.967Z"/>
      <path id="Path-226" class="cls-54" d="M637.974,770.3741l.026.0648v1.8231c0,.027-.02.035-.046.02l-1.689-.9749-.0332-.1106.8492-1.7c.01-.021.04-.014.063.01Z"/>
      <path id="Path-227" class="cls-55" d="M639.371,771.983a1.3874,1.3874,0,0,1-.439.4619,1.8036,1.8036,0,0,1-.42.203,2.8459,2.8459,0,0,1-.525.134c-.022.004-.057-.027-.043-.042h0a2.9873,2.9873,0,0,0,.214-1.577,6.5275,6.5275,0,0,0-.578-2.433c-.023-.047.007-.073.046-.047l.886.628.42.299.608.4311h0a.0311.0311,0,0,1,.013.02A2.8187,2.8187,0,0,1,639.371,771.983Z"/>
      <path id="Path-228" class="cls-54" d="M640.703,773.052c0,1.49-.526,1.33-.658,1.36a.076.076,0,0,1-.063-.039,3.0654,3.0654,0,0,0-.842-.903c-.07-.05-.139-.097-.208-.143-.146-.094-.288-.1761-.42-.2491-.225-.12-.41-.2-.519-.247h0c-.028-.011-.027-.049-.003-.0529q.0825-.0135.165-.0331c.02-.005.04-.007.06-.012a2.5553,2.5553,0,0,0,.297-.088.3632.3632,0,0,0,.056-.021.3676.3676,0,0,1,.053-.019l.021-.008a.2554.2554,0,0,0,.03-.014h0a.3328.3328,0,0,1,.031-.017.3685.3685,0,0,0,.044-.022c.016-.007.029-.0159.046-.023a.2816.2816,0,0,0,.046-.026c.03-.016.06-.036.089-.055.014-.013.03-.02.043-.0319s.03-.02.043-.032.027-.021.04-.034.026-.021.04-.033l.023-.02c.01-.008.016-.017.026-.025a.4943.4943,0,0,0,.056-.057c.007-.01.017-.017.023-.027h0c.014-.019.032-.034.045-.054l.002-.002c.026-.032.0491-.068.072-.101a.2931.2931,0,0,0,.027-.045,2.8108,2.8108,0,0,0,.177-1.931c-.001-.0041.0011-.006.004-.002h0l.001.002A5.9982,5.9982,0,0,1,640.703,773.052Z"/>
      <path id="Path-229" class="cls-53" d="M642.6372,775.58a.0568.0568,0,0,1-.0487.0639.0527.0527,0,0,1-.0143,0h0a.9045.9045,0,0,0-.927.64,1.6535,1.6535,0,0,1-.294.4569c-.077.084-.225.08-.362-.0609h0l-.211-.2151a.8975.8975,0,0,0-.489-.283l-.212-.029a.8944.8944,0,0,1-.4891-.282l-.2109-.215a.8974.8974,0,0,0-.4891-.283l-.212-.029a.888.888,0,0,1-.489-.282l-.211-.215a.888.888,0,0,0-.489-.282l-.212-.029a.8994.8994,0,0,1-.489-.283l-.211-.215a.8926.8926,0,0,0-.489-.282l-.195-.026h0a.4086.4086,0,0,1-.252-.236,5.0737,5.0737,0,0,1-.5281-2.1111c0-.047,0-.093.003-.138,0-.0269.024-.033.047-.02l1.791,1.034a.0943.0943,0,0,1,.046.073v.23a1.2112,1.2112,0,0,0,.581.921l2.545,1.469c.28.162.512.096.568-.134.003-.018.023-.023.046-.01h0a4.1187,4.1187,0,0,0,1.633.569l.102.01a.1829.1829,0,0,1,.111.073.223.223,0,0,1,.051.12Z"/>
    </g>
    <g id="Group-27">
      <path class="cls-45" d="M639.714,210.903l-5.604,3.235c-9.995,5.771-18.11,19.826-18.11,31.368h0c0,11.542,8.115,16.227,18.11,10.456l5.604-3.235c9.995-5.771,18.11-19.826,18.11-31.368h0C657.824,209.817,649.709,205.132,639.714,210.903Z"/>
      <path class="cls-56" d="M639.714,210.903l-5.604,3.235c-9.995,5.771-18.11,19.826-18.11,31.368h0c0,11.542,8.115,16.227,18.11,10.456l5.604-3.235c9.995-5.771,18.11-19.826,18.11-31.368h0C657.824,209.817,649.709,205.132,639.714,210.903Z"/>
      <g id="Group-28" class="cls-47">
        <g class="cls-47">
          <path id="Path-230" class="cls-45" d="M650.482,209.771a41.2452,41.2452,0,0,1-3.012,4.223c-4.025,5.006-7.237,10.691-7.326,18.396-.1,8.535,3.736,10.541,8.281,11.794a42.3756,42.3756,0,0,1-11.572,10.195C625.336,261.028,616,257.055,616,245.506s9.336-26.302,20.853-32.951C642.063,209.546,646.827,208.713,650.482,209.771Z"/>
        </g>
        <g class="cls-47">
          <path id="Path-231" class="cls-57" d="M650.482,209.771a41.2452,41.2452,0,0,1-3.012,4.223c-4.025,5.006-7.237,10.691-7.326,18.396-.1,8.535,3.736,10.541,8.281,11.794a42.3756,42.3756,0,0,1-11.572,10.195C625.336,261.028,616,257.055,616,245.506s9.336-26.302,20.853-32.951C642.063,209.546,646.827,208.713,650.482,209.771Z"/>
        </g>
      </g>
      <g id="Group-29" class="cls-47">
        <g class="cls-47">
          <path id="Path-232" class="cls-45" d="M642.069,210.203a31.804,31.804,0,0,1-2.959,6.482c-3.169,5.488-5.249,11.239-3.309,17.52,2.452,7.94,8.377,7.165,14.693,6.338.213-.028.426-.055.64-.083a44.311,44.311,0,0,1-14.281,13.919C625.336,261.028,616,257.055,616,245.506s9.336-26.302,20.853-32.951A26.7706,26.7706,0,0,1,642.069,210.203Z"/>
        </g>
        <g class="cls-47">
          <path id="Path-233" class="cls-58" d="M642.069,210.203a31.804,31.804,0,0,1-2.959,6.482c-3.169,5.488-5.249,11.239-3.309,17.52,2.452,7.94,8.377,7.165,14.693,6.338.213-.028.426-.055.64-.083a44.311,44.311,0,0,1-14.281,13.919C625.336,261.028,616,257.055,616,245.506s9.336-26.302,20.853-32.951A26.7706,26.7706,0,0,1,642.069,210.203Z"/>
        </g>
      </g>
      <g id="Group-30" class="cls-50">
        <g class="cls-50">
          <path id="Path-234" class="cls-45" d="M617.476,236.912q.099.3525.221.703c2.683,7.743,10.164,5.632,18.139,3.382,5.575-1.573,11.392-3.215,15.98-1.604a44.7266,44.7266,0,0,1-14.963,14.986C625.336,261.028,616,257.055,616,245.506A28.2145,28.2145,0,0,1,617.476,236.912Z"/>
        </g>
        <g class="cls-50">
          <path id="Path-235" class="cls-59" d="M617.476,236.912q.099.3525.221.703c2.683,7.743,10.164,5.632,18.139,3.382,5.575-1.573,11.392-3.215,15.98-1.604a44.7266,44.7266,0,0,1-14.963,14.986C625.336,261.028,616,257.055,616,245.506A28.2145,28.2145,0,0,1,617.476,236.912Z"/>
        </g>
      </g>
      <path id="Path-236" class="cls-22" d="M636.822,248.704c8.314-4.799,15.053-15.449,15.053-23.787s-6.739-11.205-15.053-6.405-15.053,15.45-15.053,23.787S628.508,253.504,636.822,248.704Z"/>
      <path id="Path-237" class="cls-52" d="M638,225.6533v.9283l-1,.4431v-.7938a.9942.9942,0,0,0,.4961-.1512A2.0087,2.0087,0,0,0,638,225.6533Z"/>
      <path id="Path-238" class="cls-52" d="M638,235.66v2.3016l-1,.5776V236.23C637.3065,236.0371,637.6454,235.8416,638,235.66Z"/>
      <path id="Path-239" class="cls-53" d="M638.106,224.488a1.9418,1.9418,0,0,1-.505,1.18,1.9738,1.9738,0,0,1-.506.429.9807.9807,0,0,1-.505.155c-.305-.002-.505-.217-.505-.597a2.1249,2.1249,0,0,1,1.018-1.614C637.665,223.717,638.106,223.923,638.106,224.488Z"/>
      <path id="Path-240" class="cls-54" d="M635,232.174V236.6l-.112.194-4.098,2.366c-.08.046-.136-.002-.104-.102l2.085-6.582.1923-.1573,1.9622-.2116A.066.066,0,0,1,635,232.174Z"/>
      <path id="Path-241" class="cls-55" d="M638.701,231.123a15.4135,15.4135,0,0,1-1.067,2.352c-.313.568-.658,1.131-1.019,1.67-.424.642-.855,1.247-1.273,1.795-.054.071-.14.097-.106.019h0a12.0764,12.0764,0,0,0,.521-4.427c-.08-2.692-1.034-3.918-1.403-4.286-.056-.049.016-.195.112-.243l2.149-.958,1.019-.451,1.476-.658h0c.017-.01.026,0,.031.013C639.219,226.155,639.802,227.892,638.701,231.123Z"/>
      <path id="Path-242" class="cls-54" d="M641.933,229.984c0,3.618-1.275,4.701-1.596,5.145-.048.06-.112.097-.153.08a2.3046,2.3046,0,0,0-2.045.171c-.168.073-.336.154-.505.235-.353.18-.698.379-1.018.572-.546.339-.995.663-1.26.856h0c-.069.052-.065-.044-.008-.119q.2009-.264.401-.544c.049-.068.0969-.128.145-.196q.36-.4995.7219-1.047c.048-.068.096-.144.136-.208s.08-.127.128-.195c.018-.028.036-.053.052-.079.026-.04.048-.078.073-.119h0c.024-.04.048-.084.074-.125.035-.056.071-.114.106-.176.04-.063.072-.122.112-.186s.08-.135.113-.194c.072-.122.144-.253.216-.383.032-.067.072-.131.104-.198s.073-.13.105-.197.064-.126.096-.193.064-.126.096-.193c.016-.033.04-.08.056-.113.024-.046.04-.088.064-.134.048-.101.097-.201.137-.297.016-.041.04-.088.056-.129h0c.033-.086.077-.173.109-.259l.003-.008c.064-.15.12-.304.177-.449.024-.062.048-.125.064-.183,1.115-3.272.502-5.012.43-5.183-.002-.007.003-.017.009-.015h0l.003.001C639.399,225.906,641.933,226.678,641.933,229.984Z"/>
      <path id="Path-243" class="cls-53" d="M646.6821,230.824a.5335.5335,0,0,1-.152.33h0a10.2255,10.2255,0,0,0-2.249,4.15,15.32,15.32,0,0,1-.715,1.937c-.188.42-.547.824-.878.864h0l-.513.07a2.172,2.172,0,0,0-1.187.686l-.513.522a2.1641,2.1641,0,0,1-1.187.685l-.513.071a2.16,2.16,0,0,0-1.187.685l-.514.522a2.1724,2.1724,0,0,1-1.187.686l-.513.07a2.164,2.164,0,0,0-1.1871.685l-.513.523a2.1714,2.1714,0,0,1-1.187.685l-.513.07a2.1747,2.1747,0,0,0-1.187.685l-.473.483h0c-.225.229-.479.263-.612.134a4.9218,4.9218,0,0,1-1.281-3.644c0-.113,0-.226.008-.344a.2392.2392,0,0,1,.112-.178l4.347-2.51c.064-.037.112-.016.112.049v.557c0,.783.634,1.056,1.412.606l6.175-3.565a3.0635,3.0635,0,0,0,1.379-1.919.25.25,0,0,1,.113-.154h0a17.746,17.746,0,0,0,3.963-3.194l.247-.262a.34.34,0,0,1,.269-.132.1379.1379,0,0,1,.124.147Z"/>
    </g>
    <g id="Group-31">
      <path class="cls-45" d="M566.841,682.4l-1.682.971a12.0174,12.0174,0,0,0-5.433,9.41h0c0,3.463,2.435,4.868,5.433,3.137l1.682-.971a12.0174,12.0174,0,0,0,5.433-9.41h0C572.274,682.074,569.839,680.669,566.841,682.4Z"/>
      <path class="cls-60" d="M566.841,682.4l-1.682.971a12.0174,12.0174,0,0,0-5.433,9.41h0c0,3.463,2.435,4.868,5.433,3.137l1.682-.971a12.0174,12.0174,0,0,0,5.433-9.41h0C572.274,682.074,569.839,680.669,566.841,682.4Z"/>
      <g id="Group-32" class="cls-47">
        <g class="cls-47">
          <path id="Path-244" class="cls-45" d="M570.071,682.06a12.3458,12.3458,0,0,1-.904,1.268,8.6731,8.6731,0,0,0-2.198,5.518c-.029,2.561,1.121,3.162,2.485,3.539a12.7087,12.7087,0,0,1-3.472,3.058c-3.455,1.995-6.256.803-6.256-2.662s2.801-7.891,6.256-9.885A5.3993,5.3993,0,0,1,570.071,682.06Z"/>
        </g>
        <g class="cls-47">
          <path id="Path-245" class="cls-61" d="M570.071,682.06a12.3458,12.3458,0,0,1-.904,1.268,8.6731,8.6731,0,0,0-2.198,5.518c-.029,2.561,1.121,3.162,2.485,3.539a12.7087,12.7087,0,0,1-3.472,3.058c-3.455,1.995-6.256.803-6.256-2.662s2.801-7.891,6.256-9.885A5.3993,5.3993,0,0,1,570.071,682.06Z"/>
        </g>
      </g>
      <g id="Group-33" class="cls-47">
        <g class="cls-47">
          <path id="Path-246" class="cls-45" d="M567.547,682.19a9.5183,9.5183,0,0,1-.888,1.945,6.444,6.444,0,0,0-.992,5.256c.735,2.382,2.513,2.149,4.408,1.901.063-.008.127-.017.191-.025a13.2814,13.2814,0,0,1-4.284,4.176c-3.455,1.995-6.256.803-6.256-2.662s2.801-7.891,6.256-9.885A8.0822,8.0822,0,0,1,567.547,682.19Z"/>
        </g>
        <g class="cls-47">
          <path id="Path-247" class="cls-62" d="M567.547,682.19a9.5183,9.5183,0,0,1-.888,1.945,6.444,6.444,0,0,0-.992,5.256c.735,2.382,2.513,2.149,4.408,1.901.063-.008.127-.017.191-.025a13.2814,13.2814,0,0,1-4.284,4.176c-3.455,1.995-6.256.803-6.256-2.662s2.801-7.891,6.256-9.885A8.0822,8.0822,0,0,1,567.547,682.19Z"/>
        </g>
      </g>
      <g id="Group-34" class="cls-50">
        <g class="cls-50">
          <path id="Path-248" class="cls-45" d="M560.169,690.203c.02.07.042.14.066.211.805,2.323,3.05,1.689,5.442,1.014,1.673-.472,3.418-.964,4.794-.481a13.421,13.421,0,0,1-4.489,4.4959c-3.455,1.995-6.256.803-6.256-2.662A8.4477,8.4477,0,0,1,560.169,690.203Z"/>
        </g>
        <g class="cls-50">
          <path id="Path-249" class="cls-63" d="M560.169,690.203c.02.07.042.14.066.211.805,2.323,3.05,1.689,5.442,1.014,1.673-.472,3.418-.964,4.794-.481a13.421,13.421,0,0,1-4.489,4.4959c-3.455,1.995-6.256.803-6.256-2.662A8.4477,8.4477,0,0,1,560.169,690.203Z"/>
        </g>
      </g>
      <path id="Path-250" class="cls-22" d="M565.973,693.741c2.494-1.44,4.516-4.635,4.516-7.137s-2.022-3.361-4.516-1.921-4.516,4.635-4.516,7.136S563.479,695.18,565.973,693.741Z"/>
      <path id="Path-251" class="cls-52" d="M566,686.822v.283l1,.1351v-.2421c-1.0352-.0017-.9827-.0175-.937-.046C566.1211,686.9174,566.1731,686.8734,566,686.822Z"/>
      <path id="Path-252" class="cls-52" d="M566,689.82v.702l1,.177v-.706C565.995,689.934,566.098,689.875,566,689.82Z"/>
      <path id="Path-253" class="cls-53" d="M566.358,686.476a.5832.5832,0,0,1-.151.354.6063.6063,0,0,1-.152.128.3017.3017,0,0,1-.152.047c-.091-.001-.151-.065-.151-.179a.6356.6356,0,0,1,.305-.484C566.226,686.244,566.358,686.306,566.358,686.476Z"/>
      <path id="Path-254" class="cls-54" d="M565,688.781v1.333l-.0294.0509-1.2336.7121c-.024.014-.041-.001-.031-.03l.626-1.975a.0686.0686,0,0,1,.045-.046l.604-.065C564.993,688.759,565,688.769,565,688.781Z"/>
      <path id="Path-255" class="cls-55" d="M566.537,688.466a4.7838,4.7838,0,0,1-.32.706c-.094.17-.198.339-.306.501-.127.192-.256.374-.382.538-.016.022-.042.029-.032.006h0a3.63,3.63,0,0,0,.157-1.328,1.8591,1.8591,0,0,0-.421-1.286c-.017-.015.004-.0591.033-.073l.645-.287.306-.136.442-.197h0c.005-.003.008,0,.01.004A2.4245,2.4245,0,0,1,566.537,688.466Z"/>
      <path id="Path-256" class="cls-54" d="M567.506,688.2181a2.0315,2.0315,0,0,1-.479,1.544c-.014.018-.033.029-.045.024a.6887.6887,0,0,0-.614.051c-.05.022-.101.046-.151.071-.106.054-.21.113-.306.171-.164.102-.298.199-.378.257h0c-.021.016-.019-.013-.002-.036.04-.052.08-.107.12-.163.015-.02.029-.038.044-.059.072-.099.144-.204.216-.3141.014-.02.029-.043.041-.062s.024-.038.038-.059l.016-.023c.0079-.012.014-.024.022-.036h0c.0069-.012.014-.025.022-.037.0109-.017.021-.035.032-.053s.022-.037.034-.056.024-.041.033-.058c.022-.037.044-.076.065-.115.01-.02.022-.039.031-.06s.022-.039.032-.059l.029-.058c.01-.02.019-.037.028-.058.005-.01.013-.023.017-.033.008-.014.012-.027.02-.041.014-.03.028-.06.04-.089.005-.012.013-.026.017-.038h0c.01-.026.023-.052.033-.078l.001-.003c.019-.045.036-.091.053-.134.007-.019.014-.038.019-.055a2.3741,2.3741,0,0,0,.129-1.555l.003-.004h.001A1.1344,1.1344,0,0,1,567.506,688.2181Z"/>
      <path id="Path-257" class="cls-53" d="M569.1039,688.376a.16.16,0,0,1-.0451.1h0a3.0553,3.0553,0,0,0-.6749,1.244,4.3671,4.3671,0,0,1-.215.581c-.056.1259-.164.248-.263.26h0l-.154.021a.6568.6568,0,0,0-.356.205l-.154.157a.6467.6467,0,0,1-.356.206l-.154.021a.6571.6571,0,0,0-.356.205l-.154.157a.65.65,0,0,1-.356.206l-.154.0209a.6541.6541,0,0,0-.3559.2051l-.154.1569a.6533.6533,0,0,1-.356.206l-.154.021a.6442.6442,0,0,0-.356.2051l-.142.145h0c-.068.0689-.144.079-.184.04a1.4762,1.4762,0,0,1-.384-1.0931c0-.034,0-.068.002-.103a.0725.0725,0,0,1,.034-.054l1.304-.752c.019-.012.034-.005.034.014v.1669c0,.235.19.3171.423.1821l1.853-1.069a.9231.9231,0,0,0,.414-.576.0745.0745,0,0,1,.033-.046h0a5.2862,5.2862,0,0,0,1.189-.959l.075-.078a.1014.1014,0,0,1,.08-.04.0415.0415,0,0,1,.037.044Z"/>
    </g>
    <g id="Group-35">
      <path class="cls-45" d="M566.841,700.312l-1.682.97a12.019,12.019,0,0,0-5.433,9.411h0c0,3.462,2.435,4.868,5.433,3.137l1.682-.971a12.0174,12.0174,0,0,0,5.433-9.41h0C572.274,699.986,569.839,698.581,566.841,700.312Z"/>
      <path class="cls-64" d="M566.841,700.312l-1.682.97a12.019,12.019,0,0,0-5.433,9.411h0c0,3.462,2.435,4.868,5.433,3.137l1.682-.971a12.0174,12.0174,0,0,0,5.433-9.41h0C572.274,699.986,569.839,698.581,566.841,700.312Z"/>
      <g id="Group-36" class="cls-47">
        <g class="cls-47">
          <path id="Path-258" class="cls-45" d="M570.071,699.972a12.2291,12.2291,0,0,1-.904,1.267,8.676,8.676,0,0,0-2.198,5.519c-.029,2.56,1.121,3.162,2.485,3.538a12.6953,12.6953,0,0,1-3.472,3.059c-3.455,1.9941-6.256.803-6.256-2.6619s2.801-7.891,6.256-9.886A5.4022,5.4022,0,0,1,570.071,699.972Z"/>
        </g>
        <g class="cls-47">
          <path id="Path-259" class="cls-65" d="M570.071,699.972a12.2291,12.2291,0,0,1-.904,1.267,8.676,8.676,0,0,0-2.198,5.519c-.029,2.56,1.121,3.162,2.485,3.538a12.6953,12.6953,0,0,1-3.472,3.059c-3.455,1.9941-6.256.803-6.256-2.6619s2.801-7.891,6.256-9.886A5.4022,5.4022,0,0,1,570.071,699.972Z"/>
        </g>
      </g>
      <g id="Group-37" class="cls-47">
        <g class="cls-47">
          <path id="Path-260" class="cls-45" d="M567.547,700.102a9.51,9.51,0,0,1-.888,1.944,6.445,6.445,0,0,0-.992,5.2559c.735,2.383,2.513,2.15,4.408,1.902.063-.008.127-.017.191-.025a13.2814,13.2814,0,0,1-4.284,4.176c-3.455,1.994-6.256.803-6.256-2.662s2.801-7.891,6.256-9.886A8.0163,8.0163,0,0,1,567.547,700.102Z"/>
        </g>
        <g class="cls-47">
          <path id="Path-261" class="cls-66" d="M567.547,700.102a9.51,9.51,0,0,1-.888,1.944,6.445,6.445,0,0,0-.992,5.2559c.735,2.383,2.513,2.15,4.408,1.902.063-.008.127-.017.191-.025a13.2814,13.2814,0,0,1-4.284,4.176c-3.455,1.994-6.256.803-6.256-2.662s2.801-7.891,6.256-9.886A8.0163,8.0163,0,0,1,567.547,700.102Z"/>
        </g>
      </g>
      <g id="Group-38" class="cls-50">
        <g class="cls-50">
          <path id="Path-262" class="cls-45" d="M560.169,708.115q.03.105.066.21c.805,2.324,3.05,1.69,5.442,1.015,1.673-.472,3.418-.964,4.794-.481a13.4213,13.4213,0,0,1-4.489,4.496c-3.455,1.994-6.256.803-6.256-2.662A8.4478,8.4478,0,0,1,560.169,708.115Z"/>
        </g>
        <g class="cls-50">
          <path id="Path-263" class="cls-67" d="M560.169,708.115q.03.105.066.21c.805,2.324,3.05,1.69,5.442,1.015,1.673-.472,3.418-.964,4.794-.481a13.4213,13.4213,0,0,1-4.489,4.496c-3.455,1.994-6.256.803-6.256-2.662A8.4478,8.4478,0,0,1,560.169,708.115Z"/>
        </g>
      </g>
      <path id="Path-264" class="cls-22" d="M565.973,711.652c2.494-1.44,4.516-4.635,4.516-7.136s-2.022-3.361-4.516-1.921-4.516,4.635-4.516,7.136S563.479,713.092,565.973,711.652Z"/>
      <path id="Path-265" class="cls-52" d="M566,704.733v.284l1,.135v-.242c-1.0351-.0021-.9827-.0183-.937-.047C566.1211,704.8283,566.1731,704.7844,566,704.733Z"/>
      <path id="Path-266" class="cls-52" d="M566,707.731v.703l1,.176v-.705C565.995,707.846,566.098,707.787,566,707.731Z"/>
      <path id="Path-267" class="cls-53" d="M566.358,704.388a.5881.5881,0,0,1-.151.354.6063.6063,0,0,1-.152.128.3017.3017,0,0,1-.152.047c-.091-.001-.151-.066-.151-.179a.6389.6389,0,0,1,.305-.485C566.226,704.156,566.358,704.218,566.358,704.388Z"/>
      <path id="Path-268" class="cls-54" d="M565,706.693v1.333l-.0294.0509-1.2336.7121c-.024.014-.041-.001-.031-.03l.626-1.975a.0667.0667,0,0,1,.045-.046l.604-.065C564.993,706.671,565,706.681,565,706.693Z"/>
      <path id="Path-269" class="cls-55" d="M566.537,706.378a4.7838,4.7838,0,0,1-.32.706c-.094.17-.198.339-.306.501-.127.192-.256.3729-.382.538-.016.021-.042.029-.032.006h0a3.6372,3.6372,0,0,0,.157-1.329,1.8584,1.8584,0,0,0-.421-1.285c-.017-.015.004-.059.033-.073l.645-.288.306-.135.442-.197h0c.005-.003.008,0,.01.004A2.4245,2.4245,0,0,1,566.537,706.378Z"/>
      <path id="Path-270" class="cls-54" d="M567.506,706.036a2.0315,2.0315,0,0,1-.479,1.544c-.014.018-.033.029-.045.024a.689.689,0,0,0-.614.051c-.05.022-.101.046-.151.071-.106.053-.21.113-.306.171-.164.102-.298.199-.378.2571h0c-.021.0159-.019-.013-.002-.0361.04-.0529.08-.107.12-.163.015-.02.029-.038.044-.059.072-.1.144-.204.216-.314.014-.02.029-.0431.041-.062s.024-.0381.038-.0591l.016-.023c.0079-.012.014-.024.022-.036h0l.022-.038c.0109-.017.021-.034.032-.052.012-.02.022-.037.034-.056s.024-.0411.033-.058c.022-.037.044-.076.065-.115.01-.021.022-.04.031-.06s.022-.039.032-.059l.029-.058c.01-.02.019-.038.028-.058.005-.01.013-.024.017-.034.008-.014.012-.026.02-.04.014-.03.028-.06.04-.089.005-.012.013-.026.017-.039h0c.01-.025.023-.051.033-.077l.001-.003c.019-.045.036-.091.053-.134.007-.0189.014-.038.019-.0549a2.3742,2.3742,0,0,0,.129-1.555l.003-.005h0l.001.0009A1.1334,1.1334,0,0,1,567.506,706.036Z"/>
      <path id="Path-271" class="cls-53" d="M569.1039,706.288a.1576.1576,0,0,1-.0451.099h0a3.0652,3.0652,0,0,0-.6749,1.245,4.4093,4.4093,0,0,1-.215.581c-.056.126-.164.248-.263.26h0l-.154.021a.6517.6517,0,0,0-.356.205l-.154.157a.6444.6444,0,0,1-.356.205l-.154.022a.6509.6509,0,0,0-.356.205l-.154.157a.6474.6474,0,0,1-.356.205l-.154.022a.6477.6477,0,0,0-.3559.205l-.154.157a.6518.6518,0,0,1-.356.205l-.154.021a.6523.6523,0,0,0-.356.206l-.142.145h0c-.068.069-.144.079-.184.04a1.4779,1.4779,0,0,1-.384-1.093c0-.034,0-.068.002-.103a.0727.0727,0,0,1,.034-.0541l1.304-.753c.019-.0109.034-.005.034.0151v.167c0,.2349.19.317.423.182l1.853-1.07a.9211.9211,0,0,0,.414-.5751.0719.0719,0,0,1,.033-.046h0a5.3112,5.3112,0,0,0,1.189-.959l.075-.078a.101.101,0,0,1,.08-.04.0414.0414,0,0,1,.037.044Z"/>
    </g>
    <g id="Group-39">
      <polygon id="Rectangle" class="cls-68" points="405 570.888 427 576.786 427 602.506 405 596.607 405 570.888"/>
      <polygon id="Rectangle-2" points="405 566.616 427 572.514 427 576.987 405 571.088 405 566.616"/>
      <polygon id="Rectangle-3" points="405 564.52 423 569.345 423 571.527 405 566.701 405 564.52"/>
      <polygon id="Rectangle-4" class="cls-68" points="405 587.394 412 589.271 412 606.24 405 604.363 405 587.394"/>
    </g>
    <g id="Group-40">
      <path id="Compound_Path-10" data-name="Compound Path-10" class="cls-69" d="M460.652,668.84a6.5,6.5,0,0,1,.545-2.803,4.0877,4.0877,0,0,1,1.499-1.774,4.4382,4.4382,0,0,1,2.297-.626,7.9924,7.9924,0,0,1,2.939.543,11.1381,11.1381,0,0,1,2.958,1.564,10.75,10.75,0,0,1,3.834,5.138,9.5275,9.5275,0,0,1,.545,3.201,6.26,6.26,0,0,1-.545,2.745,4.0371,4.0371,0,0,1-1.518,1.728,4.719,4.719,0,0,1-2.316.658,8.2767,8.2767,0,0,1-2.958-.531,11.54,11.54,0,0,1-2.939-1.577,11.8489,11.8489,0,0,1-2.297-2.298,11.0772,11.0772,0,0,1-1.499-2.826A9.27,9.27,0,0,1,460.652,668.84Zm2.57.78a7.2292,7.2292,0,0,0,.33,2.167,7.7632,7.7632,0,0,0,.974,1.972,7.6647,7.6647,0,0,0,1.479,1.61,6.7376,6.7376,0,0,0,1.946,1.099,4.6322,4.6322,0,0,0,1.947.3179,2.7351,2.7351,0,0,0,2.452-1.7969,4.8146,4.8146,0,0,0,.35-1.9191,6.3384,6.3384,0,0,0-.35-2.058,7.5022,7.5022,0,0,0-2.452-3.504,6.73,6.73,0,0,0-1.947-1.099,4.6261,4.6261,0,0,0-1.946-.318,2.766,2.766,0,0,0-1.479.514,2.8983,2.8983,0,0,0-.974,1.205A4.6,4.6,0,0,0,463.222,669.62Z"/>
      <path id="Compound_Path-11" data-name="Compound Path-11" class="cls-69" d="M478,672.7109l2,.7282v1.4429l.344.014a1.8385,1.8385,0,0,1,1.362-.751,4.2656,4.2656,0,0,1,1.849.283,6.5477,6.5477,0,0,1,1.927,1.091,7.144,7.144,0,0,1,1.46,1.565,6.9977,6.9977,0,0,1,.915,1.892,6.9141,6.9141,0,0,1,.311,2.043,4.5727,4.5727,0,0,1-.331,1.809,2.8659,2.8659,0,0,1-.934,1.22,2.72,2.72,0,0,1-1.421.5349,4.3543,4.3543,0,0,1-1.829-.2949,6.0372,6.0372,0,0,1-1.168-.562,6.3417,6.3417,0,0,1-.895-.6761,6.7314,6.7314,0,0,1-.662-.69,6.2471,6.2471,0,0,1-.448-.65l.52-.021v5.6331l-3-.85Zm7.833,7.4581a3.5,3.5,0,0,0-.195-1.123,3.8394,3.8394,0,0,0-.545-1.095,4.4457,4.4457,0,0,0-.856-.936,3.8573,3.8573,0,0,0-1.149-.652,2.6328,2.6328,0,0,0-1.148-.184,1.831,1.831,0,0,0-.876.305,1.7471,1.7471,0,0,0-.545.698,2.6663,2.6663,0,0,0-.175.989,3.7932,3.7932,0,0,0,.175,1.117,4.5535,4.5535,0,0,0,.545,1.095,4.8513,4.8513,0,0,0,.876.942,3.8532,3.8532,0,0,0,1.148.652,2.6372,2.6372,0,0,0,1.149.184,1.6666,1.6666,0,0,0,.856-.312,1.49,1.49,0,0,0,.545-.698,2.3807,2.3807,0,0,0,.195-.982Z"/>
      <path id="Compound_Path-12" data-name="Compound Path-12" class="cls-69" d="M492.877,683.563a3.5309,3.5309,0,0,0,.817,1.935,3.9281,3.9281,0,0,0,1.693,1.202,2.6133,2.6133,0,0,0,1.46.18,2.5344,2.5344,0,0,0,1.051-.534l1.674,1.877a2.9913,2.9913,0,0,1-1.83.776,5.254,5.254,0,0,1-2.121-.343,7.8,7.8,0,0,1-1.985-1.074,7.9392,7.9392,0,0,1-2.706-3.518,6.25,6.25,0,0,1-.389-2.169,4.0471,4.0471,0,0,1,.1571-1.2544,3.3887,3.3887,0,0,1,1.6487-1.9326,3.2327,3.2327,0,0,1,1.2892-.248,5.6058,5.6058,0,0,1,1.985.371,6.6386,6.6386,0,0,1,3.153,2.474,6.7159,6.7159,0,0,1,.895,1.924,7.5854,7.5854,0,0,1,.331,2.284v.643Zm4.821-.011a3.0544,3.0544,0,0,0-.643-1.852,3.6672,3.6672,0,0,0-1.732-1.235,1.9164,1.9164,0,0,0-1.674-.005,1.7909,1.7909,0,0,0-.739,1.349Z"/>
      <path id="Path-272" class="cls-69" d="M503,681.7467l2,.7286v1.6193l.0371.0133a1.7969,1.7969,0,0,1,.9629-.7993,2.4991,2.4991,0,0,1,1.7593.1389,4.8978,4.8978,0,0,1,2.5185,1.9924,4.4178,4.4178,0,0,1,.5557,1.3159A5.8491,5.8491,0,0,1,511,688.1326v6.0343l-2-.85v-4.67q0-.4047-.0405-.905a3.7312,3.7312,0,0,0-.2221-1.0119,2.6017,2.6017,0,0,0-.5252-.92,2.2617,2.2617,0,0,0-.99-.6632,2.3174,2.3174,0,0,0-1.03-.1723,1.2979,1.2979,0,0,0-.6871.2958,1.45,1.45,0,0,0-.384.65,3.0437,3.0437,0,0,0-.1214.8863v5.1068l-2-.85Z"/>
      <path id="Path-273" class="cls-69" d="M521.752,687.083a3.7429,3.7429,0,0,0-1.051-1.202,4.8983,4.8983,0,0,0-1.363-.768,3.8189,3.8189,0,0,0-.837-.207,1.8564,1.8564,0,0,0-.72.049.9775.9775,0,0,0-.506.381,1.1965,1.1965,0,0,0-.194.729,1.8279,1.8279,0,0,0,.486,1.249,7.9493,7.9493,0,0,0,1.207,1.082q.72.5355,1.577,1.101a10.4045,10.4045,0,0,1,1.576,1.275,6.6813,6.6813,0,0,1,1.207,1.628,4.5245,4.5245,0,0,1,.486,2.146,3.5089,3.5089,0,0,1-.408,1.801,2.317,2.317,0,0,1-1.11.961,3.3978,3.3978,0,0,1-1.596.237,6.964,6.964,0,0,1-1.927-.4279,10.1031,10.1031,0,0,1-2.472-1.329,8.0794,8.0794,0,0,1-2.043-2.186l1.849-1.12a5.4462,5.4462,0,0,0,1.168,1.497,4.99,4.99,0,0,0,1.557.937,3.39,3.39,0,0,0,.856.195,2.0294,2.0294,0,0,0,.779-.0679,1.1088,1.1088,0,0,0,.564-.3791,1.2529,1.2529,0,0,0,.214-.76,2.051,2.051,0,0,0-.486-1.347,6.9512,6.9512,0,0,0-1.207-1.122q-.72-.5535-1.577-1.119a11.1475,11.1475,0,0,1-1.576-1.256,6.7878,6.7878,0,0,1-1.207-1.609,4.521,4.521,0,0,1-.487-2.146,2.9514,2.9514,0,0,1,.429-1.696,2.3839,2.3839,0,0,1,1.148-.868,3.7482,3.7482,0,0,1,1.635-.1849,7.2672,7.2672,0,0,1,1.868.427,9.2366,9.2366,0,0,1,2.102,1.096,8.1563,8.1563,0,0,1,1.85,1.765Z"/>
      <path id="Compound_Path-13" data-name="Compound Path-13" class="cls-69" d="M528.876,696.526a3.5434,3.5434,0,0,0,.817,1.935,3.9288,3.9288,0,0,0,1.694,1.201,2.6135,2.6135,0,0,0,1.46.181,2.5517,2.5517,0,0,0,1.051-.534l1.673,1.876a2.99,2.99,0,0,1-1.829.777,5.2592,5.2592,0,0,1-2.122-.344,7.8168,7.8168,0,0,1-1.985-1.073,8.06,8.06,0,0,1-1.616-1.582,7.9126,7.9126,0,0,1-1.089-1.937,6.2221,6.2221,0,0,1-.39-2.169,4.0317,4.0317,0,0,1,.3105-1.6882,3.2113,3.2113,0,0,1,1.14-1.3251,3.2489,3.2489,0,0,1,1.6442-.4218,5.6273,5.6273,0,0,1,1.985.372,6.6312,6.6312,0,0,1,3.153,2.4731,6.7531,6.7531,0,0,1,.896,1.924,7.63,7.63,0,0,1,.331,2.285v.643Zm4.436-.012a3.0586,3.0586,0,0,0-.642-1.851,3.67,3.67,0,0,0-1.732-1.235,1.9149,1.9149,0,0,0-1.675-.005,1.792,1.792,0,0,0-.739,1.349Z"/>
      <path id="Compound_Path-14" data-name="Compound Path-14" class="cls-69" d="M544,704.6853l-.0552-.02a1.7887,1.7887,0,0,1-1.2226.668,3.8127,3.8127,0,0,1-1.63-.26,6.0085,6.0085,0,0,1-1.2036-.6042,5.5242,5.5242,0,0,1-1.0371-.8791,4.349,4.349,0,0,1-.7222-1.0971,2.9909,2.9909,0,0,1-.2778-1.2692,2.1023,2.1023,0,0,1,.3657-1.3036,1.0948,1.0948,0,0,1,.4119-.3546,2.4965,2.4965,0,0,1,1.1853-.2609A5.908,5.908,0,0,1,541,699.439a9.57,9.57,0,0,1,1.2588.3282q.6294.1926,1.1855.3948l.5557.2017V700.16a2.11,2.11,0,0,0-.4557-1.3523,3.5817,3.5817,0,0,0-1.5814-1.0952,3.2747,3.2747,0,0,0-1.3149-.2188,2.16,2.16,0,0,0-1.0552.2835l-1.1674-1.5928a2.91,2.91,0,0,1,1.7231-.4672,6.5823,6.5823,0,0,1,2.0552.4139,6.7766,6.7766,0,0,1,1.5927.8021,5.5634,5.5634,0,0,1,1.0742.9286,3.8226,3.8226,0,0,1,.648,1.0153,4.2354,4.2354,0,0,1,.333.9933,5.0874,5.0874,0,0,1,.1294.9182q.0189.4154.019.7307v5.1189l-2-.7279Zm0-2.7743-.487-.177q-.4859-.177-1.09-.358a5.5075,5.5075,0,0,0-1.1489-.223,1.8014,1.8014,0,0,0-.895.103.6065.6065,0,0,0-.369.6451,1.4,1.4,0,0,0,.136.615,2.5576,2.5576,0,0,0,.389.512,2.7839,2.7839,0,0,0,.526.425,3.9756,3.9756,0,0,0,.584.2719,2.0726,2.0726,0,0,0,1.771.079,1.4955,1.4955,0,0,0,.584-1.367Z"/>
    </g>
    <g id="Group-41">
      <path id="Compound_Path-15" data-name="Compound Path-15" class="cls-70" d="M651.1739,384.6174l2.8645-1.6542-2.1567-7.0283,2.005-8.3872-3,1.7311-1.7522,7.3316-.1345.0778v-6.32l-3,1.7321v15.5035l3-1.7321v-4.1961l.6572-2.57ZM655,382.52l3-1.7318v-15.42l-3,1.7318Zm11-21.6506-7,4.0409v2.4856l2-1.154v12.8474l3-1.7318v-12.82l2-1.154Zm8-4.378-7,4.0409v2.4856l2-1.154v12.8474l3-1.7328V360.16l2-1.154Zm1,14.8766,3-1.7328v-15.42l-3,1.7318Zm9-18.2126v-2.0628l-5,2.8867v14.6028l5-2.8866V363.488l-2,1.309v-4.15l2-1.1547v-2.2255l-2,1.1547V354.463Zm8-1.8534v-2.139c0-2.4157-1.3573-2.46-3.4921-1.2272C686.39,349.1577,685,350.788,685,353.2038v2.132c0,3.5834,4,.65,4,2.6177v1.8845s-.2952.9354-.717,1.166c-.383.221-.283-.425-.283-.425v-2.2047l-3,1.7324v2.1348c0,2.4045,1.3668,2.4391,3.4916,1.2126S692,360.6049,692,358.1994v-2.1531c0-3.57-4-.6387-4-2.5991V351.56s-.1216-.9353.3-1.166c.367-.211.7.435.7.435v2.2044Zm1.283,4.9824,2.167-1.251.45-11.393-3.067,1.77Zm1.084,3.841a3.3189,3.3189,0,0,0,1.6-2.507c0-.867-.717-1.17-1.6-.66a3.3176,3.3176,0,0,0-1.6,2.507c0,.867.716,1.17,1.6.66Z"/>
      <path id="Compound_Path-16" data-name="Compound Path-16" class="cls-70" d="M651.1739,364.1324l2.8645-1.6542-2.1567-7.0293,2.005-8.3872-3,1.7321-1.7522,7.3316-.1345.0778v-6.32l-3,1.7311v15.5045l3-1.7321v-4.1961l.6572-2.57ZM655,362.0346l3-1.7328v-15.42l-3,1.7318Zm11-21.6516-7,4.042v2.4855l2-1.155v12.8484l3-1.7328V344.0525l2-1.155Zm8-4.378-7,4.0409v2.4856l2-1.154v12.8474l3-1.7318V339.6745l2-1.155Zm1,14.8766,3-1.7318V333.7284l-3,1.7328Zm9-18.2126v-2.0628l-5,2.8867v14.6029l5-2.8867V343.002l-2,1.309v-4.15l2-1.1539v-2.2255l-2,1.1547v-3.958Zm8-1.8524v-2.14c0-2.4157-1.3573-2.4594-3.4921-1.2272C686.39,328.6727,685,330.302,685,332.7188v2.131c0,3.5834,4,.6508,4,2.6187v1.8845s-.2952.9349-.717,1.165c-.383.222-.283-.424-.283-.424v-2.2057l-3,1.7324v2.1348c0,2.4055,1.3668,2.4391,3.4916,1.2126S692,340.1189,692,337.7144V335.56c0-3.57-4-.6388-4-2.5991V331.074s-.1216-.9347.3-1.165c.367-.212.7.434.7.434v2.2054Zm1.283,4.9814,2.167-1.251.45-11.393-3.067,1.771Zm1.084,3.841a3.3189,3.3189,0,0,0,1.6-2.507c0-.866-.717-1.169-1.6-.659a3.316,3.316,0,0,0-1.6,2.507c0,.867.716,1.169,1.6.659Z"/>
      <path id="Compound_Path-17" data-name="Compound Path-17" class="cls-70" d="M651.1739,343.6464l2.8645-1.6542-2.1567-7.0282,2.005-8.3883-3,1.7321-1.7522,7.3316-.1345.0778v-6.32l-3,1.7321v15.5035l3-1.7321v-4.1961l.6572-2.57ZM655,341.5486l3-1.7318V324.3954l-3,1.7328Zm11-21.6506-7,4.0409v2.4856l2-1.154v12.8474l3-1.7318v-12.82l2-1.154Zm8-4.378-7,4.0409v2.4856l2-1.155V333.74l3-1.7328V319.1885l2-1.154Zm1,14.8766,3-1.7328v-15.42l-3,1.7318Zm9-18.2136V310.12l-5,2.8877v14.6028l5-2.8867v-2.207l-2,1.308v-4.1494l2-1.1547v-2.2255l-2,1.1547V313.492Zm8-1.8524v-2.139c0-2.4167-1.3573-2.46-3.4921-1.2282C686.39,308.1867,685,309.817,685,312.2328v2.131c0,3.5844,4,.6508,4,2.6187v1.8845s-.2952.9354-.717,1.166c-.383.221-.283-.425-.283-.425v-2.2057l-3,1.7324v2.1358c0,2.4045,1.3668,2.4391,3.4916,1.2126S692,319.6339,692,317.2284v-2.1531c0-3.57-4-.6387-4-2.5991V310.589s-.1216-.9353.3-1.166c.367-.212.7.435.7.435v2.2044Zm1.283,4.9824,2.167-1.251.45-11.393-3.067,1.77Zm1.084,3.841a3.32,3.32,0,0,0,1.6-2.507c0-.867-.717-1.17-1.6-.66a3.3176,3.3176,0,0,0-1.6,2.507c0,.867.716,1.17,1.6.66Z"/>
    </g>
    <path id="Compound_Path-18" data-name="Compound Path-18" class="cls-70" d="M688,410.559l-1,.517v.725a5.3055,5.3055,0,0,1-.46.349c-.105.061-.19.055.46-.13V409.3c-.6592-.1435-.5854-.28-.46-.35.105-.06.46.131.46.131v.715l1-.517v-.564c0-.682-.4009-.6765-1-.3309a1.69,1.69,0,0,0-1,1.4857v2.5162c0,.682.4009.6765,1,.33a1.6873,1.6873,0,0,0,1-1.4847Zm2-4.0633a1.69,1.69,0,0,0-1,1.4858v2.5069c0,.682.4009.6765,1,.33a1.6876,1.6876,0,0,0,1-1.4848v-2.507c0-.682-.4009-.6765-1-.3309Zm-1,.6973v2.71c1.01.1433.9355.2793.81.349-.105.061-.19.055.19-.13v-2.71c-.3893-.1435-.3154-.28-.19-.35.105-.06.19-.054.19.131Zm3,2.503,1-.477v-3.38l-.11-.04.315,3.198.955-.551.315-3.562-.475-.04v3.38l1-.477v-4.6l-.985.783-.305,3.581-.055.031-.305-3.229-1.35.783Zm-44.315,25.582.85-.491-.64-2.085.595-2.489-.89.514-.52,2.175-.08.024v-1.875l-1,.513v4.6l1-.513v-1.245l.235-.763ZM651,434.196l-1-.517v-4.6l1,.517Zm3-6.936-3,1.198v.75l1-.34v3.85l1-.517v-3.85l1-.341Zm3-1.775-3,1.198v.75l1-.341v3.85l1-.516v-3.85l1-.341Zm2.27-1.495-.355,1.885-.05.028-.355-1.475-.855.494.345,2.506v1.635l1-.508V426.92l1.125-3.424Zm3.73.673-1,.517v.725s.2354.28.11.35c-.105.061-.19.055.89-.13v-2.72c-1.0892-.1435-1.0154-.28-.89-.35.105-.061-.11.13-.11.13v.715l1-.517v-.564c0-.682-.4009-.6756-1-.33a1.6876,1.6876,0,0,0-1,1.4848V426.49c0,.682.4009.6765,1,.3309a1.6888,1.6888,0,0,0,1-1.4857Zm3.545-.274-.395-1.327c.1947-.257-.15-.893-.15-.893v-1.363c0-.6589-.1392-.8334-.8214-.44l-1.1786.68v4.6416l1-.516v-1.345l.42-.133.32,1.16ZM665,421.317l.355-.096c.17-.098.22-.067-.355.118v1.335c.5906.1326.5283.2624.415.333l-.415.135Zm3.91-2.893-.355,1.885-.05.029-.355-1.475-.855.493.705,2.506v1.635l1-.508v-1.635l.765-3.424Zm3.2686-1.8219-1.1786.68v4.6416l1-.517v-.965l.085-.216c.5972-.2436.915-1.496.915-1.496v-1.688c0-.659-.1392-.8344-.8214-.44ZM672,419.23a.2374.2374,0,0,1-.125.372l-.875.095v-2.145l.875-.095c.17-.098.22-.067.125.118Zm4-4.8753-2,1.1547v4.2816l1-.517v-3.85l1-.341Zm2-1.072a1.6876,1.6876,0,0,0-1,1.4848v2.5069c0,.6821.4009.6765,1,.3309a1.6876,1.6876,0,0,0,1-1.4848v-2.5069c0-.6821-.4009-.6765-1-.3309Zm0,.6963v2.71c.2542.1435.18.28.055.35-.105.061-.19.055.945-.13v-2.71c-1.1443-.1435-1.07-.28-.945-.35.105-.061.19-.055.19.13Zm4-1.718v-.642c0-.69-.3877-.7026-.9976-.35A1.7027,1.7027,0,0,0,680,412.7746v.6634l1,.818v.555s.4264.2806.3.35c-.115.066.7-.128.7-.128v-.65l-2,.497v.6407c0,.687.3906.6965.9976.3463A1.6994,1.6994,0,0,0,682,414.3659v-.6679l-1-.816v-.555a1.3747,1.3747,0,0,1,.305-.349c.11-.064.695.13.695.13v.153Zm1.875,2.203a.9957.9957,0,0,0,.48-.752c0-.26-.215-.351-.48-.198a.9953.9953,0,0,0-.48.752c0,.26.215.351.48.198Z"/>
    <path id="Compound_Path-19" data-name="Compound Path-19" class="cls-22" d="M671,594.8335v-1.4267c0-1.7263-.969-1.7579-2.4946-.8773A4.26,4.26,0,0,0,666,596.2931v1.1279l3,1.773v1.202a3.1519,3.1519,0,0,1-.677.758c-.249.144-.323-.276-.323-.276v-1.4475l-2,1.154V602.01c0,1.717.9763,1.742,2.4935.8655A4.2472,4.2472,0,0,0,671,599.1227V597.985l-3-1.767v-1.202s.06-.6079.334-.758c.2391-.138.666.282.666.282v1.4476Zm2.946-5.4343L671,591.1009v9.8957l2-1.1552v-1.89l.8923-.5153A3.4211,3.4211,0,0,0,676,593.8745v-3.3754c0-1.6471-.3481-2.084-2.054-1.1ZM674,595.142a.6692.6692,0,0,1-.412.806l-.588.206v-4.647l.588-.207c.369-.212.477-.145.412.256Zm5.655,1.008,1.853-1.069-.997-9.392-3.337,1.927-.996,10.542,1.852-1.07.152-1.7991,1.321-.763Zm-1.343-2.561.422-5.119.217-.125.422,4.631ZM687,588.5644l-2,1.1542v1.5534a5.4194,5.4194,0,0,1-.817.758c-.227.131-.411.118-.183-.283v-5.893a.4754.4754,0,0,1,.183-.758c.228-.131.817.283.817.283v1.5666l2-1.1552v-1.8168c0-1.705-1.0019-1.6912-2.5-.8265a4.2238,4.2238,0,0,0-2.5,3.7141v6.2912c0,1.705,1.0019,1.6911,2.5.8264a4.22,4.22,0,0,0,2.5-3.714Zm3-7.0734v-1.625l-3,1.97v9.967l3-1.97v-1.625l-1,.851V586.48l1-.832v-1.603l-1,.832v-2.535Zm1.528,5.074,1.409-.813.292-7.406-1.993,1.151Zm.705,2.497a2.158,2.158,0,0,0,1.04-1.63c0-.563-.466-.76-1.04-.429a2.1567,2.1567,0,0,0-1.04,1.63c0,.563.465.76,1.04.429Zm-34.733,9.68a4.2216,4.2216,0,0,0-2.5,3.7133v6.2665c0,1.7045,1.0028,1.6907,2.5.8262a4.2215,4.2215,0,0,0,2.5-3.7122v-6.2675c0-1.7046-1.0027-1.6908-2.5-.8263Zm.5,2.23v5.871c-.392.3109-.5522.6057-.824.758-.228.131-.412.118-.176-.282v-5.872a.47.47,0,0,1,.176-.758c.227-.131.412-.118.412.283Zm5-3.888v-1.625l-3,1.97V607.41l2-1.1548V602.153l1-.844v-1.603l-1,.844v-2.622Zm-3-5.4066-2,1.1542v1.5534a5.6064,5.6064,0,0,1-.824.758c-.228.131-.412.118-.176-.283v-5.893a.47.47,0,0,1,.176-.758c.227-.131.824.283.824.283v1.5666l2-1.1552v-1.8159c0-1.7045-1.0028-1.6907-2.5-.8262a4.2216,4.2216,0,0,0-2.5,3.7133v6.29c0,1.7046,1.0028,1.6908,2.5.8263a4.2225,4.2225,0,0,0,2.5-3.7133Zm2.5-8.5066a4.2225,4.2225,0,0,0-2.5,3.7141v6.2678c0,1.706,1.0019,1.6911,2.5.8264a4.2208,4.2208,0,0,0,2.5-3.713v-6.2689c0-1.7049-1.0019-1.6911-2.4994-.8264Zm.5,2.2312v5.871a1.0028,1.0028,0,0,1-.472.758c-.228.131-.412.119-.528-.282v-5.872a1.2514,1.2514,0,0,1,.528-.758c.227-.131.411-.118.411.283Zm2,6.424,2-1.032v-7.4878l.1627-.0942.73,7.4166,2.2146-1.278.7311-8.2611.1616-.0932v7.64l2-1.0321V577.1907l-3.2118,1.8542-.7231,8.4879-.13.0744-.7231-7.6532L665,581.8082Zm9-4.597,1-1.032V578.71l.1627-.0942.7308,7.4146,2.214-1.2777.73-8.2589.1627-.0931v7.6384l2-1.032v-9.7638l-2.81,1.6227-.6328,7.4279-.1139.066-.6328-6.6974L674,577.285Zm10.823-6.542,1.852-1.07-.9971-9.391-3.336,1.926-.997,10.542,1.853-1.069.151-1.799,1.322-.763Zm-1.344-2.561.423-5.119.216-.126.423,4.632ZM687,579.304l2-1.032v-5.6l-.0588-1.4049.13-.0751,1.2513,6.6518L693,576.2974V566.185l-2,1.032v5.6014l.0588,1.4052-.13.0752-1.2506-6.6536L687,569.1921Zm8.9153-15.4134L693,565.5732v10.601l2.9153-1.6837A3.3517,3.3517,0,0,0,698,571.0168v-6.06c0-1.6369-.3563-2.0645-2.0847-1.0657ZM696,572.026a.6345.6345,0,0,1-.387.806l-.613.2v-6.717l.613-.2c.368-.212.476-.145.387.256Zm6-9.651V560.75l-3,1.97v9.967l3-1.97v-1.625l-1,.85v-2.578l1-.832v-1.603l-1,.832v-2.535Zm6.2264,5.34-.9407-3.1593A3.5265,3.5265,0,0,0,708,562.4294v-2.5673c0-1.647-.3481-2.084-2.0529-1.1L703,560.4639v9.8947l2-1.1542v-2.8289l.5472-.3164.7627,2.7626ZM705,560.869l.038-.2059c.368-.2131.476-.145.962.256v2.892c-.4515.2868-.5865.5677-.832.72l-.168.293Z"/>
    <path id="Compound_Path-20" data-name="Compound Path-20" class="cls-22" d="M724.788,725.905l.996,9.391,3.337-1.926.997-10.542-1.853,1.069-.704,8.619-.217.125-.704-7.805Zm7.7125-5.0741a4.22,4.22,0,0,0-2.5,3.7141v6.2678c0,1.705,1.0019,1.6911,2.5.8264a4.2213,4.2213,0,0,0,2.5-3.7141v-6.2678c0-1.705-1.0019-1.6912-2.5-.8265Zm.5,2.23v5.872a.4557.4557,0,0,1-.152.758c-.228.131-.412.118-.848-.283v-5.871c.4155-.311.5759-.606.848-.7579.227-.1311.411-.1181.411.2819Zm7.702,3.623-1.159-4.39,1.115-5.552-1.906,1.101-.607,3.763-.119.068-.607-3.062-1.906,1.101,1.115,4.263-1.159,5.729,1.907-1.101.65-3.929.119-.069.65,3.178ZM745,716.028v-1.625l-3,1.97v9.967l3-1.971v-1.625l-2,.851v-2.578l1-.832v-1.603l-1,.831v-2.535Zm-44,28.354v-.108l1-1.7449V741.273c0-1.6594-.3505-2.0994-2.0326-1.1279L697,741.8585v10.0164l2.9419-1.6985A3.3181,3.3181,0,0,0,702,746.7242V745.388s-.179-1.045-.753-1.006Zm-1.4-2.31c.368-.213.477-.145.4.256v1.571a.6523.6523,0,0,1-.4.806l-.6.193v-2.632Zm.4,5.887a.6222.6222,0,0,1-.3781.8061L699,748.972v-2.7949l.6219-.207c.3681-.212.4761-.145.3781.256Zm4-2.072v-8.36l-2,1.1553v9.9483l4-2.064v-1.625Zm5.5-11.376a4.2215,4.2215,0,0,0-2.5,3.7123v6.2675c0,1.7046,1.0028,1.6908,2.5.8262a4.2216,4.2216,0,0,0,2.5-3.7133v-6.2665c0-1.7045-1.0028-1.6907-2.5-.8262Zm.5,2.229v5.872c-.4128.311-.5731.6058-.845.758-.227.131-.412.118-.155-.283v-5.871a.4567.4567,0,0,1,.155-.758c.228-.131.412-.119.412.282Zm7,.0956-2,1.1547v1.5536s-.2218.6053-.4931.758c-.228.131-.412.118-.5069-.283v-5.893a1.146,1.146,0,0,1,.5069-.758c.227-.131.4931.283.4931.283v1.5664l2-1.1546v-1.8161c0-1.7046-1.0028-1.6908-2.5-.8262a4.22,4.22,0,0,0-2.5,3.7133v6.29c0,1.7046,1.0017,1.6908,2.5.8262a4.2239,4.2239,0,0,0,2.5-3.7133Zm3.4491,1.4884L722.36,737.22l-1.4388-4.6868,1.3382-5.5933-2.001,1.1545-1.168,4.889-.09.0519v-4.2137l-2,1.1545v10.3392l2-1.1546v-2.7987l.4378-1.7137Z"/>
    <path id="Compound_Path-21" data-name="Compound Path-21" class="cls-22" d="M658.788,726.952l.996,10.542,3.337,1.926.997-9.3909-1.853-1.07-.704,7.8061-.217-.126-.704-8.618Zm7.7125,4.2329c-1.4986-.8647-2.5-.88-2.5.8264v6.2678a4.22,4.22,0,0,0,2.5,3.7131c1.4976.8647,2.5.88,2.5-.8264V734.898a4.2208,4.2208,0,0,0-2.5-3.7131Zm.5,2.7052v5.872c.259.401.075.414-.152.282-.2719-.1517-.4323-.4463-.848-.7571v-5.872c.436-.401.62-.414.848-.2819a.8066.8066,0,0,1,.411.7569Zm7.702,12.216-1.159-5.728,1.115-4.263-1.906-1.1011-.607,3.062-.119-.0689-.607-3.762-1.906-1.1011,1.115,5.5511-1.159,4.39,1.907,1.101.65-3.178.119.069.65,3.929Zm4.298-6.027v-1.625l-3-1.97v9.966l3,1.971v-1.625l-2-.851v-2.578l1,.831v-1.603l-1-.832v-2.535Zm2,8.211v-8.3234l-2-1.1552v9.9846l4,2.064v-1.625Zm7-.8387v-1.2652a4.2245,4.2245,0,0,0-2.494-3.7563c-1.5132-.8739-2.506-.8553-2.506.87v1.37l3,4.9v1.203s.174.42-.064.2819c-.2795-.1488.064-.7639.064-.7639v-1.4081l-3-1.0759v1.2359a4.2261,4.2261,0,0,0,2.4946,3.7468c1.5171.8753,2.5054.8579,2.5054-.86v-1.3666l-3-4.907v-1.202s.708-.42.947-.283c.2737.15.053.758.053.758v1.3687Zm-53-29.2053v-.108l1-.92v-1.1226a3.3341,3.3341,0,0,0-2.0326-3.4742L631,710.9079v10.0782l2.9419,1.6985c1.7133.9887,2.0581.5558,2.0581-1.0769v-1.4425a4.6558,4.6558,0,0,0-.753-1.9192Zm-1.4-4.211a.6513.6513,0,0,1,.4.806v1.571c.077.4-.032.468-.4.255l-.6-.194v-2.632Zm.4,6.462c.098.401-.01.469-.3781.256l-.6219-.206v-2.795l.6219.206a.6226.6226,0,0,1,.3781.806Zm4,3.156V715.33l-2-1.1552v9.9846l4,2.064v-1.625Zm5.5-6.146c-1.4972-.8645-2.5-.8794-2.5.8263V724.6a4.2216,4.2216,0,0,0,2.5,3.7123c1.4972.8656,2.5.8794,2.5-.8262v-6.2666a4.2215,4.2215,0,0,0-2.5-3.7123Zm.5,2.704v5.872c-.433.401-.617.414-.845.282a.4558.4558,0,0,1-.155-.757v-5.872c-.257-.401-.072-.414.155-.282a.8069.8069,0,0,1,.412.7569Zm7,8.5493-2-1.1536v1.5883s-.2661.413-.4931.282a1.1438,1.1438,0,0,1-.5069-.758V722.826c.0949-.401.2789-.414.5069-.2819.2715.1519.4931.757.4931.757v1.5317l2,1.1546v-1.6787a4.2216,4.2216,0,0,0-2.5-3.7123c-1.4983-.8656-2.5-.8794-2.5.8252v6.29a4.22,4.22,0,0,0,2.5,3.7133c1.4972.8645,2.5.8784,2.5-.8262Zm3.4491,6.0768,1.9108,1.1037-1.4388-6.3485,1.3382-4.0487-2.001-1.1556-1.168,3.5393-.09-.0518v-4.2137l-2-1.1545v10.3381l2,1.1556v-2.7987l.4378-1.2075Z"/>
    <path id="Path-274" class="cls-71" d="M662.012,492.597l-.863.498c-.172-1.158-1.166-1.569-2.425-1.002a6.0441,6.0441,0,0,0-2.95,3.422,1.5444,1.5444,0,0,0-.893.523,2.1543,2.1543,0,0,0-.544,1.022,2.0735,2.0735,0,0,0-.314.15,3.2781,3.2781,0,0,0-1.488,2.44c0,.838.652,1.154,1.488.7219l4.002-2.311c.117-.052.235-.1109.353-.178.118-.069.236-.146.354-.23l3.28-1.894a3.2781,3.2781,0,0,0,1.488-2.44C663.5,492.481,662.848,492.165,662.012,492.597Z"/>
    <g id="Group-42">
      <path id="Path-275" class="cls-72" d="M659,468.225l12,6.9284V537.509l-12-6.9284Z"/>
      <path id="Path-276" class="cls-73" d="M670,475.9562l12-6.9284v33.9059l9-5.1964v26.9118l-21,12.1238Z"/>
      <path id="Path-277" class="cls-74" d="M658.849,469.117l11.691-6.75,11.691,6.75-11.691,6.75Z"/>
      <path id="Path-278" class="cls-74" d="M690.769,497.804,682,492.742v10.125Z"/>
      <path id="Ellipse" class="cls-75" d="M668.713,470c0,.349-.491.633-1.096.633s-1.096-.284-1.096-.633Z"/>
      <rect id="Rectangle-5" class="cls-75" x="667" y="452" width="2" height="18"/>
      <ellipse id="Ellipse-2" class="cls-76" cx="667.6171" cy="452.5451" rx="1.0961" ry="0.6328"/>
      <path id="Ellipse-3" class="cls-75" d="M674.924,467c0,.349-.491.633-1.096.633s-1.096-.284-1.096-.633Z"/>
      <rect id="Rectangle-6" class="cls-75" x="673" y="449" width="2" height="18"/>
      <ellipse id="Ellipse-4" class="cls-76" cx="673.8282" cy="449.17" rx="1.0961" ry="0.6328"/>
      <path id="Path-279" class="cls-71" d="M689.41,475.699a4.07,4.07,0,0,0-1.221,1.133c-.174-.407-.652-.471-1.189-.16h0v-.155c-.046-1.64-1.411-2.18-3.079-1.217a6.4413,6.4413,0,0,0-3.079,4.772,2.5836,2.5836,0,0,0,.055.542,4.0161,4.0161,0,0,0-1.906,3.093c.023,1.062.915,1.401,1.992.756l8.427-4.865a4.2728,4.2728,0,0,0,1.745-1.963,1.9093,1.9093,0,0,0,0-1.989c-.363-.403-1.033-.383-1.745.053Z"/>
    </g>
    <g id="Group-43">
      <path class="cls-45" d="M708.155,784.248l-2.31,1.334a16.5153,16.5153,0,0,0-7.468,12.934h0c0,4.76,3.346,6.691,7.468,4.312l2.31-1.334a16.5155,16.5155,0,0,0,7.468-12.934h0C715.623,783.801,712.277,781.869,708.155,784.248Z"/>
      <path class="cls-77" d="M708.155,784.248l-2.31,1.334a16.5153,16.5153,0,0,0-7.468,12.934h0c0,4.76,3.346,6.691,7.468,4.312l2.31-1.334a16.5155,16.5155,0,0,0,7.468-12.934h0C715.623,783.801,712.277,781.869,708.155,784.248Z"/>
      <g id="Group-44" class="cls-47">
        <g class="cls-47">
          <path id="Path-280" class="cls-45" d="M712.596,783.782a17.0669,17.0669,0,0,1-1.243,1.741,11.9232,11.9232,0,0,0-3.021,7.585c-.04,3.519,1.541,4.347,3.415,4.864a17.4548,17.4548,0,0,1-4.772,4.203c-4.748,2.7421-8.598,1.1041-8.598-3.6589s3.85-10.845,8.598-13.587C709.124,783.689,711.088,783.345,712.596,783.782Z"/>
        </g>
        <g class="cls-47">
          <path id="Path-281" class="cls-78" d="M712.596,783.782a17.0669,17.0669,0,0,1-1.243,1.741,11.9232,11.9232,0,0,0-3.021,7.585c-.04,3.519,1.541,4.347,3.415,4.864a17.4548,17.4548,0,0,1-4.772,4.203c-4.748,2.7421-8.598,1.1041-8.598-3.6589s3.85-10.845,8.598-13.587C709.124,783.689,711.088,783.345,712.596,783.782Z"/>
        </g>
      </g>
      <g id="Group-45" class="cls-47">
        <g class="cls-47">
          <path id="Path-282" class="cls-45" d="M709.126,783.96a13.0805,13.0805,0,0,1-1.22,2.672c-1.306,2.263-2.164,4.635-1.364,7.224,1.011,3.275,3.454,2.955,6.058,2.614.088-.011.176-.023.264-.034a18.2606,18.2606,0,0,1-5.889,5.739c-4.748,2.7421-8.598,1.1041-8.598-3.6589s3.85-10.845,8.598-13.587A11.0883,11.0883,0,0,1,709.126,783.96Z"/>
        </g>
        <g class="cls-47">
          <path id="Path-283" class="cls-79" d="M709.126,783.96a13.0805,13.0805,0,0,1-1.22,2.672c-1.306,2.263-2.164,4.635-1.364,7.224,1.011,3.275,3.454,2.955,6.058,2.614.088-.011.176-.023.264-.034a18.2606,18.2606,0,0,1-5.889,5.739c-4.748,2.7421-8.598,1.1041-8.598-3.6589s3.85-10.845,8.598-13.587A11.0883,11.0883,0,0,1,709.126,783.96Z"/>
        </g>
      </g>
      <g id="Group-46" class="cls-50">
        <g class="cls-50">
          <path id="Path-284" class="cls-45" d="M698.986,794.973c.027.097.058.193.091.29,1.106,3.193,4.191,2.322,7.479,1.394,2.299-.649,4.698-1.325,6.589-.661a18.4324,18.4324,0,0,1-6.17,6.179c-4.748,2.742-8.598,1.104-8.598-3.659A11.62,11.62,0,0,1,698.986,794.973Z"/>
        </g>
        <g class="cls-50">
          <path id="Path-285" class="cls-80" d="M698.986,794.973c.027.097.058.193.091.29,1.106,3.193,4.191,2.322,7.479,1.394,2.299-.649,4.698-1.325,6.589-.661a18.4324,18.4324,0,0,1-6.17,6.179c-4.748,2.742-8.598,1.104-8.598-3.659A11.62,11.62,0,0,1,698.986,794.973Z"/>
        </g>
      </g>
      <path id="Path-286" class="cls-22" d="M706.963,799.835c3.428-1.979,6.207-6.37,6.207-9.808s-2.779-4.62-6.207-2.641-6.207,6.37-6.207,9.808S703.535,801.814,706.963,799.835Z"/>
      <path id="Path-287" class="cls-52" d="M707,790.325v.39l1,.186v-.333c-1.0482-.0026-.9764-.0247-.914-.064C707.166,790.4564,707.2377,790.3959,707,790.325Z"/>
      <path id="Path-288" class="cls-52" d="M707,794.446v.966l1,.242v-.969C706.993,794.604,707.135,794.522,707,794.446Z"/>
      <path id="Path-289" class="cls-53" d="M707.492,789.85a.7983.7983,0,0,1-.208.487.8227.8227,0,0,1-.208.177.3975.3975,0,0,1-.209.063c-.125,0-.208-.089-.208-.246a.8735.8735,0,0,1,.42-.665C707.31,789.532,707.492,789.617,707.492,789.85Z"/>
      <path id="Path-290" class="cls-54" d="M706,793.019v1.832l-.04.07-1.6958.9794c-.033.0189-.056-.001-.043-.042l.86-2.714a.0906.0906,0,0,1,.062-.063l.83-.09C705.99,792.988,706,793.002,706,793.019Z"/>
      <path id="Path-291" class="cls-55" d="M707.737,792.586a6.3782,6.3782,0,0,1-.439.97c-.129.234-.272.466-.42.688-.175.265-.353.5139-.525.741-.023.029-.058.039-.044.007h0a4.9567,4.9567,0,0,0,.215-1.825,2.5563,2.5563,0,0,0-.579-1.768c-.023-.02.007-.08.046-.1l.887-.395.42-.186.608-.271h0c.007-.004.011,0,.013.006A3.3276,3.3276,0,0,1,707.737,792.586Z"/>
      <path id="Path-292" class="cls-54" d="M709.07,791.675a2.8,2.8,0,0,1-.658,2.1221c-.02.0239-.046.04-.063.033a.95.95,0,0,0-.843.07c-.069.03-.139.064-.208.097-.146.0739-.288.156-.42.236-.225.14-.41.273-.519.353h0c-.029.021-.027-.018-.004-.049.055-.073.11-.148.166-.224.019-.028.039-.053.059-.081.099-.138.199-.281.298-.432.02-.028.039-.059.056-.086s.033-.052.053-.08c.007-.012.014-.022.021-.033.011-.016.02-.032.03-.049h0c.01-.0171.02-.035.031-.0511.014-.0239.029-.047.044-.073s.029-.05.046-.077.033-.055.046-.08c.03-.05.06-.104.089-.158.014-.027.03-.054.043-.081s.03-.054.043-.082.027-.051.04-.079.027-.052.04-.08c.006-.013.016-.032.023-.046.01-.019.016-.036.026-.056.02-.0411.04-.082.057-.122.006-.0171.016-.0361.023-.053h0c.013-.036.031-.071.045-.107l.001-.003c.026-.062.05-.125.073-.185a.661.661,0,0,0,.026-.076,3.2707,3.2707,0,0,0,.178-2.137l.003-.006h.0021A1.561,1.561,0,0,1,709.07,791.675Z"/>
      <path id="Path-293" class="cls-53" d="M710.6422,792.463a.2185.2185,0,0,1-.063.136h0a4.2123,4.2123,0,0,0-.927,1.711,6.437,6.437,0,0,1-.295.798c-.078.174-.226.34-.362.357h0l-.212.029a.8946.8946,0,0,0-.489.2819l-.212.216a.8913.8913,0,0,1-.4891.282l-.212.029a.89.89,0,0,0-.489.283l-.212.2151a.8975.8975,0,0,1-.489.283l-.212.029a.888.888,0,0,0-.489.282l-.212.216a.8919.8919,0,0,1-.489.2819l-.212.029a.8978.8978,0,0,0-.49.2831l-.195.1989h0c-.0921.094-.197.109-.2521.055a2.0321,2.0321,0,0,1-.528-1.503c0-.046,0-.093.003-.141a.099.099,0,0,1,.047-.0739l1.792-1.034c.026-.016.046-.007.046.019v.23c0,.323.261.435.582.25l2.547-1.47a1.263,1.263,0,0,0,.568-.7911.1.1,0,0,1,.047-.0629h0a7.34,7.34,0,0,0,1.634-1.318l.102-.108a.1424.1424,0,0,1,.111-.054.0572.0572,0,0,1,.051.061Z"/>
    </g>
    <path id="top-T2" class="cls-4" d="M436,245.055l27.5-15.877,65,37.528L501,282.583Z"/>
    <path id="body-L2" class="cls-7" d="M436,245.055v17.321l65,37.528V282.583Z"/>
    <path id="body-R2" class="cls-10" d="M529,266.4042V284.04l-28,16.1657V282.57Z"/>
    <g id="ac">
      <path id="Path-294" class="cls-3" d="M440.964,258.546l18.268,10.547-9.964,5.753L431,264.299Z"/>
      <path id="Path-295" class="cls-21" d="M449,274.8391v9.6226l10-5.7738v-9.6226Z"/>
      <path id="Path-296" class="cls-2" d="M431,264.4467v9.4473l18,10.3923V274.839Z"/>
      <path id="Path-297" class="cls-2" d="M451,275.7523l7-4.0417v6.0631l-7,4.0417Z"/>
      <path id="Path-298" class="cls-34" d="M448,275.8092v5.7738l-15-8.66V267.149Z"/>
    </g>
    <g id="ac-2">
      <path id="Path-299" class="cls-3" d="M464.214,271.969l18.268,10.547-9.964,5.753L454.25,277.722Z"/>
      <path id="Path-300" class="cls-21" d="M473,288.2621v9.6226l10-5.7738v-9.6226Z"/>
      <path id="Path-301" class="cls-2" d="M454,277.87v9.4473l18,10.3923V288.262Z"/>
      <path id="Path-302" class="cls-2" d="M474,289.1763l7-4.0417v6.062l-7,4.0428Z"/>
      <path id="Path-303" class="cls-34" d="M471,289.2332v5.7738l-15-8.6612V280.573Z"/>
    </g>
    <path id="top-T1" class="cls-5" d="M441,245.055l22.5-12.99,60,34.641L501,279.696Z"/>
  </g>
</svg>
