<svg id="Layer_1" data-name="Layer 1" xmlns="http://www.w3.org/2000/svg" viewBox="0 0 620 1683.6081">
  <defs>
    <style>
      .cls-1 {
        fill: #b07663;
      }

      .cls-2 {
        fill: #f0c2b2;
      }

      .cls-3 {
        fill: #464646;
      }

      .cls-4 {
        fill: #2e2e2e;
      }

      .cls-5 {
        fill: #db9676;
      }

      .cls-6 {
        fill: #8b8b8b;
      }

      .cls-7 {
        fill: #5d5d5d;
      }

      .cls-8 {
        fill: gray;
      }

      .cls-9 {
        fill: #4b4b4b;
      }

      .cls-10 {
        fill: #666;
      }

      .cls-11 {
        fill: #333;
      }

      .cls-12 {
        fill: #505050;
      }

      .cls-13 {
        fill: #9f6e5e;
      }

      .cls-14 {
        fill: #171717;
      }

      .cls-15 {
        fill: #c1c1c1;
      }

      .cls-16 {
        fill: #ebebeb;
      }
    </style>
  </defs>
  <title>Artboard 1_1</title>
  <g id="Group">
    <path id="base-left" class="cls-1" d="M310,1666.288,10,1493.083v-11.604l300,173.318Z"/>
    <path id="base-top" class="cls-2" d="M310,1654.741l300-173.205L310,1302.557,10,1481.422Z"/>
    <path id="Path" class="cls-3" d="M310,1620.1l240-138.564v-46.1879L310,1573.912Z"/>
    <path id="Path-2" data-name="Path" class="cls-4" d="M70,1435.3481v46.1879L310,1620.1v-46.188Z"/>
    <path id="base-right" class="cls-5" d="M310,1666.288v-11.547l300-173.319v11.661Z"/>
    <path id="Path-3" data-name="Path" class="cls-6" d="M397.5,1569.5821l17.5-10.104V1521.95l-17.5,10.104Z"/>
    <path id="Path-4" data-name="Path" class="cls-7" d="M222.5,1569.5821l-17.5-10.104V1521.95l17.5,10.104Z"/>
    <path id="Path-5" data-name="Path" class="cls-6" d="M477.5,1523.507l17.5-10.104v-37.528l-17.5,10.104Z"/>
    <path id="Path-6" data-name="Path" class="cls-7" d="M142.5,1523.507,125,1513.403v-37.528l17.5,10.104Z"/>
    <path id="Path-7" data-name="Path" class="cls-6" d="M422.5,1555.0351l17.5-10.104V1507.403l-17.5,10.104Z"/>
    <path id="Path-8" data-name="Path" class="cls-7" d="M197.5,1555.0351l-17.5-10.104V1507.403l17.5,10.104Z"/>
    <path id="Path-9" data-name="Path" class="cls-6" d="M502.5,1508.96l17.5-10.104v-37.528l-17.5,10.104Z"/>
    <path id="Path-10" data-name="Path" class="cls-7" d="M117.5,1508.96,100,1498.856v-37.528l17.5,10.104Z"/>
    <path id="Path-11" data-name="Path" class="cls-6" d="M445,1542.044l17.5-10.1031V1494.413L445,1504.516Z"/>
    <path id="Path-12" data-name="Path" class="cls-7" d="M175,1542.044l-17.5-10.1031V1494.413l17.5,10.103Z"/>
    <path id="Path-13" data-name="Path" class="cls-6" d="M525,1495.969l17.5-10.103v-37.528L525,1458.442Z"/>
    <path id="Path-14" data-name="Path" class="cls-7" d="M95,1495.969l-17.5-10.103v-37.528L95,1458.442Z"/>
    <path id="base-top-2" data-name="base-top" class="cls-2" d="M310,1660.5141v11.547L620,1492.969l-10-5.773Z"/>
    <path id="base-right-2" data-name="base-right" class="cls-5" d="M310,1683.6081v-11.547L620,1492.969v11.547Z"/>
    <path id="base-top-3" data-name="base-top" class="cls-2" d="M310,1672.0611v-11.547L10,1487.196l-10,5.773Z"/>
    <path id="base-left-2" data-name="base-left" class="cls-1" d="M0,1493.083v11.547l310,178.9781v-11.547Z"/>
    <path id="base-2-top" class="cls-8" d="M405,1553.591l70-40.414,30,17.32-70,40.415Z"/>
    <path id="Path-15" data-name="Path" class="cls-9" d="M435,1576.685v-5.773l-30-17.321v5.774Z"/>
    <path id="Path-16" data-name="Path" class="cls-10" d="M505,1530.497v5.774l-70,40.414v-5.773Z"/>
    <path id="base-2-left" class="cls-11" d="M410,1562.251v11.547l25,14.434v-11.547Z"/>
    <path id="base-2-right" class="cls-12" d="M435,1588.232l65-37.528v-11.547l-65,37.528Z"/>
    <path id="base-2-right-2" data-name="base-2-right" class="cls-12" d="M445,1594.006v-17.321l45-25.981v17.3211Z"/>
    <path id="base-top-4" data-name="base-top" class="cls-2" d="M445,1605.553v-11.547l45-25.9809,10,5.7729Z"/>
    <path id="base-left-3" data-name="base-left" class="cls-13" d="M500,1562.251l-10-5.7729v11.547l10,5.7729Z"/>
    <path id="base-top-5" data-name="base-top" class="cls-2" d="M445,1594.006l10-5.774-10-5.773-10,5.773Z"/>
    <path id="Path-17" data-name="Path" class="cls-5" d="M445,1605.553l10-5.774v-11.547l-10,5.774Z"/>
    <path id="Path-18" data-name="Path" class="cls-5" d="M430,1591.232v-5.887l5-2.886v5.773Z"/>
    <path id="base-top-6" data-name="base-top" class="cls-2" d="M395,1571.0251l10-5.8871,30,17.321-10,5.886Z"/>
    <path id="Path-19" data-name="Path" class="cls-3" d="M390,592.416l80-46.188V730.98l-80,46.188Z"/>
    <path id="Path-20" data-name="Path" class="cls-8" d="M390,592.395l80-46.188-80-46.188Z"/>
    <path id="Path-21" data-name="Path" class="cls-6" d="M397.5,624.121,415,614.017v11.547l-17.5,10.104Z"/>
    <path id="Path-22" data-name="Path" class="cls-6" d="M421.25,610.409l17.5-10.104v11.547l-17.5,10.104Z"/>
    <path id="Path-23" data-name="Path" class="cls-6" d="M445,596.697l17.5-10.104V598.14L445,608.244Z"/>
    <path id="Path-24" data-name="Path" class="cls-6" d="M397.5,699.177,415,689.073V700.62l-17.5,10.104Z"/>
    <path id="Path-25" data-name="Path" class="cls-6" d="M421.25,685.465l17.5-10.104v11.547l-17.5,10.104Z"/>
    <path id="Path-26" data-name="Path" class="cls-6" d="M445,671.752l17.5-10.103v11.547L445,683.3Z"/>
    <path id="Path-27" data-name="Path" class="cls-6" d="M397.5,661.649,415,651.545v11.547l-17.5,10.104Z"/>
    <path id="Path-28" data-name="Path" class="cls-6" d="M421.25,647.937l17.5-10.104V649.38l-17.5,10.104Z"/>
    <path id="Path-29" data-name="Path" class="cls-6" d="M445,634.225l17.5-10.104v11.547L445,645.772Z"/>
    <path id="Path-30" data-name="Path" class="cls-6" d="M397.5,642.885,415,632.781v11.547l-17.5,10.104Z"/>
    <path id="Path-31" data-name="Path" class="cls-6" d="M421.25,629.173l17.5-10.104v11.547l-17.5,10.104Z"/>
    <path id="Path-32" data-name="Path" class="cls-6" d="M445,615.461l17.5-10.104v11.547L445,627.008Z"/>
    <path id="Path-33" data-name="Path" class="cls-6" d="M397.5,717.94,415,707.837v11.547l-17.5,10.104Z"/>
    <path id="Path-34" data-name="Path" class="cls-6" d="M421.25,704.228l17.5-10.103v11.547l-17.5,10.103Z"/>
    <path id="Path-35" data-name="Path" class="cls-6" d="M445,690.516l17.5-10.103V691.96L445,702.063Z"/>
    <path id="Path-36" data-name="Path" class="cls-6" d="M397.5,605.357,415,595.254v11.547l-17.5,10.103Z"/>
    <path id="Path-37" data-name="Path" class="cls-6" d="M421.25,591.645l17.5-10.104v11.548l-17.5,10.103Z"/>
    <path id="Path-38" data-name="Path" class="cls-6" d="M445,577.933l17.5-10.104v11.547L445,589.48Z"/>
    <path id="Path-39" data-name="Path" class="cls-6" d="M397.5,680.413,415,670.309v11.547L397.5,691.96Z"/>
    <path id="Path-40" data-name="Path" class="cls-6" d="M421.25,666.701l17.5-10.104v11.547l-17.5,10.104Z"/>
    <path id="Path-41" data-name="Path" class="cls-6" d="M445,652.989l17.5-10.104v11.547L445,664.536Z"/>
    <path id="Path-42" data-name="Path" class="cls-8" d="M230,407.692l160-92.376-80-46.188L150,361.504Z"/>
    <path id="Path-43" data-name="Path" class="cls-10" d="M390,580.869l60-34.641-60-34.641-60,34.641Z"/>
    <path id="Path-44" data-name="Path" class="cls-3" d="M330,546.228l60-34.641v5.774l-55,31.754Z"/>
    <path id="Path-45" data-name="Path" class="cls-4" d="M450,546.228l-5,2.887-55-31.754v-5.774Z"/>
    <path id="Path-46" data-name="Path" class="cls-8" d="M470,1054.325l80-46.189-80-46.188Z"/>
    <path id="Path-47" data-name="Path" class="cls-8" d="M150,1054.325V961.948l-80,46.188Z"/>
    <path id="Path-48" data-name="Path" class="cls-3" d="M390,315.316V869.572L230,961.948V407.692Z"/>
    <path id="Path-49" data-name="Path" class="cls-10" d="M470,1042.777l60-34.64-60-34.641-60,34.64Z"/>
    <path id="Path-50" data-name="Path" class="cls-3" d="M410,1008.137l60-34.642v5.774l-55,31.754Z"/>
    <path id="Path-51" data-name="Path" class="cls-4" d="M530,1008.137l-5,2.886-55-31.754v-5.774Z"/>
    <path id="Path-52" data-name="Path" class="cls-10" d="M150,1042.777l60-34.64-60-34.641-60,34.64Z"/>
    <path id="Path-53" data-name="Path" class="cls-3" d="M90,1008.137l60-34.642v5.774l-55,31.754Z"/>
    <path id="Path-54" data-name="Path" class="cls-4" d="M210,1008.137l-5,2.886-55-31.754v-5.774Z"/>
    <path id="Path-55" data-name="Path" class="cls-3" d="M310,1573.912l240-138.5639V1008.137l-80,46.188V638.632L390,684.82V961.948l-80,46.189Z"/>
    <path id="Path-56" data-name="Path" class="cls-4" d="M70,1435.3481,310,1573.912V1008.137l-80-46.189V407.692l-80-46.188v692.821l-80-46.188Z"/>
    <path id="Path-57" data-name="Path" class="cls-8" d="M310,1008.137l80-46.189L310,915.76l-80,46.188Z"/>
    <path id="Path-58" data-name="Path" class="cls-8" d="M390,684.82l80-46.188-80-46.188-80,46.188Z"/>
    <path id="Path-59" data-name="Path" class="cls-10" d="M230,396.117l140-80.829-60-34.641L170,361.476Z"/>
    <path id="Path-60" data-name="Path" class="cls-4" d="M310,638.632l80,46.188V961.948L310,915.76Z"/>
    <path id="Path-61" data-name="Path" class="cls-4" d="M230,430.786,390,338.41v69.282L230,500.068Z"/>
    <path id="Path-62" data-name="Path" class="cls-4" d="M310,1031.23l160-92.376v69.282l-160,92.377Z"/>
    <path id="Path-63" data-name="Path" class="cls-14" d="M150,384.598l80,46.188v69.282L150,453.88Z"/>
    <path id="Path-64" data-name="Path" class="cls-14" d="M150,938.854l160,92.376v69.283l-160-92.377Z"/>
    <path id="Path-65" data-name="Path" class="cls-4" d="M390,707.914l80-46.188v69.282l-80,46.188Z"/>
    <path id="Path-66" data-name="Path" class="cls-4" d="M230,707.914l80-46.188v69.282l-80,46.188Z"/>
    <path id="Path-67" data-name="Path" class="cls-14" d="M310,661.726v69.282l80,46.188V707.914Z"/>
    <path id="Path-68" data-name="Path" class="cls-14" d="M150,661.726v69.282l80,46.188V707.914Z"/>
    <path id="Path-69" data-name="Path" class="cls-4" d="M550,1169.795v69.282L310,1377.641v-69.282Z"/>
    <path id="Path-70" data-name="Path" class="cls-14" d="M310,1308.359,70,1169.795v69.282l240,138.564Z"/>
    <path id="Path-71" data-name="Path" class="cls-6" d="M397.5,780.055,415,769.951v11.547l-17.5,10.104Z"/>
    <path id="Path-72" data-name="Path" class="cls-6" d="M421.25,766.343l17.5-10.104v11.547l-17.5,10.104Z"/>
    <path id="Path-73" data-name="Path" class="cls-6" d="M445,752.631l17.5-10.104v11.547L445,764.178Z"/>
    <path id="Path-74" data-name="Path" class="cls-6" d="M397.5,855.11,415,845.007v11.547l-17.5,10.104Z"/>
    <path id="Path-75" data-name="Path" class="cls-6" d="M421.25,841.398l17.5-10.103v11.547l-17.5,10.103Z"/>
    <path id="Path-76" data-name="Path" class="cls-6" d="M445,827.686l17.5-10.103V829.13L445,839.233Z"/>
    <path id="Path-77" data-name="Path" class="cls-6" d="M397.5,930.166,415,920.062v11.547l-17.5,10.104Z"/>
    <path id="Path-78" data-name="Path" class="cls-6" d="M421.25,916.454l17.5-10.104v11.547l-17.5,10.104Z"/>
    <path id="Path-79" data-name="Path" class="cls-6" d="M445,902.742l17.5-10.104v11.547L445,914.289Z"/>
    <path id="Path-80" data-name="Path" class="cls-6" d="M397.5,817.583,415,807.479v11.547L397.5,829.13Z"/>
    <path id="Path-81" data-name="Path" class="cls-6" d="M421.25,803.871l17.5-10.104v11.547l-17.5,10.104Z"/>
    <path id="Path-82" data-name="Path" class="cls-6" d="M445,790.159l17.5-10.104v11.547L445,801.706Z"/>
    <path id="Path-83" data-name="Path" class="cls-6" d="M397.5,892.638,415,882.535v11.547l-17.5,10.103Z"/>
    <path id="Path-84" data-name="Path" class="cls-6" d="M421.25,878.926l17.5-10.103V880.37l-17.5,10.103Z"/>
    <path id="Path-85" data-name="Path" class="cls-6" d="M445,865.214l17.5-10.103v11.547L445,876.761Z"/>
    <path id="Path-86" data-name="Path" class="cls-6" d="M397.5,798.819,415,788.715v11.547l-17.5,10.104Z"/>
    <path id="Path-87" data-name="Path" class="cls-6" d="M421.25,785.107l17.5-10.104V786.55l-17.5,10.104Z"/>
    <path id="Path-88" data-name="Path" class="cls-6" d="M445,771.395l17.5-10.104v11.547L445,782.942Z"/>
    <path id="Path-89" data-name="Path" class="cls-6" d="M397.5,873.874,415,863.771v11.547l-17.5,10.103Z"/>
    <path id="Path-90" data-name="Path" class="cls-6" d="M421.25,860.162l17.5-10.103v11.547l-17.5,10.103Z"/>
    <path id="Path-91" data-name="Path" class="cls-6" d="M445,846.45l17.5-10.103v11.547L445,857.997Z"/>
    <path id="Path-92" data-name="Path" class="cls-6" d="M397.5,948.93,415,938.826v11.547l-17.5,10.104Z"/>
    <path id="Path-93" data-name="Path" class="cls-6" d="M421.25,935.218l17.5-10.104v11.547l-17.5,10.104Z"/>
    <path id="Path-94" data-name="Path" class="cls-6" d="M445,921.506l17.5-10.104v11.547L445,933.053Z"/>
    <path id="Path-95" data-name="Path" class="cls-6" d="M397.5,836.347,415,826.243V837.79l-17.5,10.104Z"/>
    <path id="Path-96" data-name="Path" class="cls-6" d="M421.25,822.635l17.5-10.104v11.547l-17.5,10.104Z"/>
    <path id="Path-97" data-name="Path" class="cls-6" d="M445,808.922l17.5-10.103v11.547L445,820.47Z"/>
    <path id="Path-98" data-name="Path" class="cls-6" d="M397.5,911.402,415,901.299v11.547l-17.5,10.103Z"/>
    <path id="Path-99" data-name="Path" class="cls-6" d="M421.25,897.69l17.5-10.104v11.547l-17.5,10.104Z"/>
    <path id="Path-100" data-name="Path" class="cls-6" d="M445,883.978l17.5-10.104v11.547L445,895.525Z"/>
    <path id="Path-101" data-name="Path" class="cls-6" d="M237.5,502.927,255,492.823V504.37l-17.5,10.104Z"/>
    <path id="Path-102" data-name="Path" class="cls-6" d="M261.25,489.215l17.5-10.104v11.547l-17.5,10.104Z"/>
    <path id="Path-103" data-name="Path" class="cls-6" d="M285,475.503l17.5-10.104v11.547L285,487.05Z"/>
    <path id="Path-104" data-name="Path" class="cls-6" d="M237.5,577.982,255,567.879v11.547l-17.5,10.103Z"/>
    <path id="Path-105" data-name="Path" class="cls-6" d="M261.25,564.27l17.5-10.103v11.547l-17.5,10.103Z"/>
    <path id="Path-106" data-name="Path" class="cls-6" d="M285,550.558l17.5-10.103v11.547L285,562.105Z"/>
    <path id="Path-107" data-name="Path" class="cls-6" d="M237.5,653.038,255,642.934v11.547l-17.5,10.104Z"/>
    <path id="Path-108" data-name="Path" class="cls-6" d="M261.25,639.326l17.5-10.104v11.547l-17.5,10.104Z"/>
    <path id="Path-109" data-name="Path" class="cls-6" d="M285,625.614l17.5-10.104v11.547L285,637.161Z"/>
    <path id="Path-110" data-name="Path" class="cls-6" d="M237.5,540.455,255,530.351v11.547l-17.5,10.104Z"/>
    <path id="Path-111" data-name="Path" class="cls-6" d="M261.25,526.743l17.5-10.104v11.547l-17.5,10.104Z"/>
    <path id="Path-112" data-name="Path" class="cls-6" d="M285,513.03l17.5-10.103v11.547L285,524.578Z"/>
    <path id="Path-113" data-name="Path" class="cls-6" d="M237.5,615.51,255,605.407v11.547l-17.5,10.103Z"/>
    <path id="Path-114" data-name="Path" class="cls-6" d="M261.25,601.798l17.5-10.104v11.547l-17.5,10.104Z"/>
    <path id="Path-115" data-name="Path" class="cls-6" d="M285,588.086l17.5-10.104v11.547L285,599.633Z"/>
    <path id="Path-116" data-name="Path" class="cls-6" d="M237.5,521.691,255,511.587v11.547l-17.5,10.104Z"/>
    <path id="Path-117" data-name="Path" class="cls-6" d="M261.25,507.979l17.5-10.104v11.547l-17.5,10.104Z"/>
    <path id="Path-118" data-name="Path" class="cls-6" d="M285,494.267l17.5-10.104V495.71L285,505.814Z"/>
    <path id="Path-119" data-name="Path" class="cls-6" d="M237.5,596.746,255,586.643V598.19l-17.5,10.103Z"/>
    <path id="Path-120" data-name="Path" class="cls-6" d="M261.25,583.034l17.5-10.103v11.547l-17.5,10.103Z"/>
    <path id="Path-121" data-name="Path" class="cls-6" d="M285,569.322l17.5-10.103v11.547L285,580.869Z"/>
    <path id="Path-122" data-name="Path" class="cls-6" d="M237.5,671.802,255,661.698v11.547l-17.5,10.104Z"/>
    <path id="Path-123" data-name="Path" class="cls-6" d="M261.25,658.09l17.5-10.104v11.547l-17.5,10.104Z"/>
    <path id="Path-124" data-name="Path" class="cls-6" d="M285,644.378l17.5-10.104v11.547L285,655.925Z"/>
    <path id="Path-125" data-name="Path" class="cls-6" d="M237.5,559.218,255,549.115v11.547l-17.5,10.104Z"/>
    <path id="Path-126" data-name="Path" class="cls-6" d="M261.25,545.506l17.5-10.103V546.95l-17.5,10.103Z"/>
    <path id="Path-127" data-name="Path" class="cls-6" d="M285,531.794l17.5-10.103v11.547L285,543.341Z"/>
    <path id="Path-128" data-name="Path" class="cls-6" d="M237.5,634.274,255,624.17v11.547l-17.5,10.104Z"/>
    <path id="Path-129" data-name="Path" class="cls-6" d="M261.25,620.562l17.5-10.104v11.547l-17.5,10.104Z"/>
    <path id="Path-130" data-name="Path" class="cls-6" d="M285,606.85l17.5-10.104v11.547L285,618.397Z"/>
    <path id="Path-131" data-name="Path" class="cls-6" d="M317.5,1103.371l17.5-10.103v11.547l-17.5,10.103Z"/>
    <path id="Path-132" data-name="Path" class="cls-6" d="M341.25,1089.659l17.5-10.104v11.547l-17.5,10.104Z"/>
    <path id="Path-133" data-name="Path" class="cls-6" d="M365,1075.947l17.5-10.104v11.547L365,1087.494Z"/>
    <path id="Path-134" data-name="Path" class="cls-6" d="M317.5,1178.427l17.5-10.104v11.547l-17.5,10.104Z"/>
    <path id="Path-135" data-name="Path" class="cls-6" d="M341.25,1164.715l17.5-10.104v11.547l-17.5,10.104Z"/>
    <path id="Path-136" data-name="Path" class="cls-6" d="M365,1151.003l17.5-10.104v11.547L365,1162.55Z"/>
    <path id="Path-137" data-name="Path" class="cls-6" d="M317.5,1253.482l17.5-10.103v11.547l-17.5,10.103Z"/>
    <path id="Path-138" data-name="Path" class="cls-6" d="M341.25,1239.77l17.5-10.104v11.548l-17.5,10.103Z"/>
    <path id="Path-139" data-name="Path" class="cls-6" d="M365,1226.058l17.5-10.104v11.547L365,1237.605Z"/>
    <path id="Path-140" data-name="Path" class="cls-6" d="M317.5,1140.899l17.5-10.104v11.547l-17.5,10.104Z"/>
    <path id="Path-141" data-name="Path" class="cls-6" d="M341.25,1127.187l17.5-10.104v11.547l-17.5,10.104Z"/>
    <path id="Path-142" data-name="Path" class="cls-6" d="M365,1113.475l17.5-10.104v11.547L365,1125.022Z"/>
    <path id="Path-143" data-name="Path" class="cls-6" d="M317.5,1215.954l17.5-10.103v11.547l-17.5,10.103Z"/>
    <path id="Path-144" data-name="Path" class="cls-6" d="M341.25,1202.242l17.5-10.103v11.547l-17.5,10.103Z"/>
    <path id="Path-145" data-name="Path" class="cls-6" d="M365,1188.53l17.5-10.103v11.547L365,1200.077Z"/>
    <path id="Path-146" data-name="Path" class="cls-6" d="M317.5,1122.135l17.5-10.104v11.547l-17.5,10.104Z"/>
    <path id="Path-147" data-name="Path" class="cls-6" d="M341.25,1108.423l17.5-10.104v11.547l-17.5,10.104Z"/>
    <path id="Path-148" data-name="Path" class="cls-6" d="M365,1094.711l17.5-10.104v11.547L365,1106.258Z"/>
    <path id="Path-149" data-name="Path" class="cls-6" d="M317.5,1197.191l17.5-10.104v11.547l-17.5,10.104Z"/>
    <path id="Path-150" data-name="Path" class="cls-6" d="M341.25,1183.479l17.5-10.104v11.547l-17.5,10.104Z"/>
    <path id="Path-151" data-name="Path" class="cls-6" d="M365,1169.766l17.5-10.103v11.547L365,1181.313Z"/>
    <path id="Path-152" data-name="Path" class="cls-6" d="M317.5,1272.246l17.5-10.104v11.547l-17.5,10.104Z"/>
    <path id="Path-153" data-name="Path" class="cls-6" d="M341.25,1258.534l17.5-10.104v11.547l-17.5,10.104Z"/>
    <path id="Path-154" data-name="Path" class="cls-6" d="M365,1244.822l17.5-10.104v11.547L365,1256.369Z"/>
    <path id="Path-155" data-name="Path" class="cls-6" d="M317.5,1159.663l17.5-10.104v11.547l-17.5,10.104Z"/>
    <path id="Path-156" data-name="Path" class="cls-6" d="M341.25,1145.951l17.5-10.104v11.547l-17.5,10.104Z"/>
    <path id="Path-157" data-name="Path" class="cls-6" d="M365,1132.239l17.5-10.104v11.547L365,1143.786Z"/>
    <path id="Path-158" data-name="Path" class="cls-6" d="M317.5,1234.718l17.5-10.103v11.547l-17.5,10.103Z"/>
    <path id="Path-159" data-name="Path" class="cls-6" d="M341.25,1221.006l17.5-10.103v11.547l-17.5,10.103Z"/>
    <path id="Path-160" data-name="Path" class="cls-6" d="M365,1207.294l17.5-10.103v11.547L365,1218.841Z"/>
    <path id="Path-161" data-name="Path" class="cls-7" d="M302.5,1103.371,285,1093.268v11.547l17.5,10.103Z"/>
    <path id="Path-162" data-name="Path" class="cls-7" d="M278.75,1089.659l-17.5-10.104v11.547l17.5,10.104Z"/>
    <path id="Path-163" data-name="Path" class="cls-7" d="M255,1075.947l-17.5-10.104v11.547l17.5,10.104Z"/>
    <path id="Path-164" data-name="Path" class="cls-7" d="M302.5,1178.427,285,1168.323v11.547l17.5,10.104Z"/>
    <path id="Path-165" data-name="Path" class="cls-7" d="M278.75,1164.715l-17.5-10.104v11.547l17.5,10.104Z"/>
    <path id="Path-166" data-name="Path" class="cls-7" d="M255,1151.003l-17.5-10.104v11.547L255,1162.55Z"/>
    <path id="Path-167" data-name="Path" class="cls-7" d="M302.5,1253.482,285,1243.379v11.547l17.5,10.103Z"/>
    <path id="Path-168" data-name="Path" class="cls-7" d="M278.75,1239.77l-17.5-10.104v11.548l17.5,10.103Z"/>
    <path id="Path-169" data-name="Path" class="cls-7" d="M255,1226.058l-17.5-10.104v11.547l17.5,10.104Z"/>
    <path id="Path-170" data-name="Path" class="cls-7" d="M302.5,1140.899,285,1130.795v11.547l17.5,10.104Z"/>
    <path id="Path-171" data-name="Path" class="cls-7" d="M278.75,1127.187l-17.5-10.104v11.547l17.5,10.104Z"/>
    <path id="Path-172" data-name="Path" class="cls-7" d="M255,1113.475l-17.5-10.104v11.547l17.5,10.104Z"/>
    <path id="Path-173" data-name="Path" class="cls-7" d="M302.5,1215.954,285,1205.851v11.547l17.5,10.103Z"/>
    <path id="Path-174" data-name="Path" class="cls-7" d="M278.75,1202.242l-17.5-10.103v11.547l17.5,10.103Z"/>
    <path id="Path-175" data-name="Path" class="cls-7" d="M255,1188.53l-17.5-10.103v11.547l17.5,10.103Z"/>
    <path id="Path-176" data-name="Path" class="cls-7" d="M302.5,1122.135,285,1112.031v11.547l17.5,10.104Z"/>
    <path id="Path-177" data-name="Path" class="cls-7" d="M278.75,1108.423l-17.5-10.104v11.547l17.5,10.104Z"/>
    <path id="Path-178" data-name="Path" class="cls-7" d="M255,1094.711l-17.5-10.104v11.547l17.5,10.104Z"/>
    <path id="Path-179" data-name="Path" class="cls-7" d="M302.5,1197.191,285,1187.087v11.547l17.5,10.104Z"/>
    <path id="Path-180" data-name="Path" class="cls-7" d="M278.75,1183.479l-17.5-10.104v11.547l17.5,10.104Z"/>
    <path id="Path-181" data-name="Path" class="cls-7" d="M255,1169.766l-17.5-10.103v11.547l17.5,10.103Z"/>
    <path id="Path-182" data-name="Path" class="cls-7" d="M302.5,1272.246,285,1262.142v11.547l17.5,10.104Z"/>
    <path id="Path-183" data-name="Path" class="cls-7" d="M278.75,1258.534l-17.5-10.104v11.547l17.5,10.104Z"/>
    <path id="Path-184" data-name="Path" class="cls-7" d="M255,1244.822l-17.5-10.104v11.547l17.5,10.104Z"/>
    <path id="Path-185" data-name="Path" class="cls-7" d="M302.5,1159.663,285,1149.559v11.547l17.5,10.104Z"/>
    <path id="Path-186" data-name="Path" class="cls-7" d="M278.75,1145.951l-17.5-10.104v11.547l17.5,10.104Z"/>
    <path id="Path-187" data-name="Path" class="cls-7" d="M255,1132.239l-17.5-10.104v11.547l17.5,10.104Z"/>
    <path id="Path-188" data-name="Path" class="cls-7" d="M302.5,1234.718,285,1224.615v11.547l17.5,10.103Z"/>
    <path id="Path-189" data-name="Path" class="cls-7" d="M278.75,1221.006l-17.5-10.103v11.547l17.5,10.103Z"/>
    <path id="Path-190" data-name="Path" class="cls-7" d="M255,1207.294l-17.5-10.103v11.547l17.5,10.103Z"/>
    <path id="Path-191" data-name="Path" class="cls-6" d="M317.5,1380.4991,335,1370.396v11.547l-17.5,10.1031Z"/>
    <path id="Path-192" data-name="Path" class="cls-6" d="M341.25,1366.787l17.5-10.103v11.547l-17.5,10.103Z"/>
    <path id="Path-193" data-name="Path" class="cls-6" d="M365,1353.075l17.5-10.104v11.548L365,1364.622Z"/>
    <path id="Path-194" data-name="Path" class="cls-6" d="M317.5,1455.555l17.5-10.104v11.547l-17.5,10.104Z"/>
    <path id="Path-195" data-name="Path" class="cls-6" d="M341.25,1441.843l17.5-10.104v11.547l-17.5,10.104Z"/>
    <path id="Path-196" data-name="Path" class="cls-6" d="M365,1428.131l17.5-10.104v11.547L365,1439.678Z"/>
    <path id="Path-197" data-name="Path" class="cls-6" d="M317.5,1530.61l17.5-10.103v11.547l-17.5,10.103Z"/>
    <path id="Path-198" data-name="Path" class="cls-6" d="M341.25,1516.898l17.5-10.103v11.5469l-17.5,10.1031Z"/>
    <path id="Path-199" data-name="Path" class="cls-6" d="M365,1503.1861l17.5-10.1031v11.547L365,1514.7331Z"/>
    <path id="Path-200" data-name="Path" class="cls-6" d="M317.5,1418.027l17.5-10.104v11.547l-17.5,10.104Z"/>
    <path id="Path-201" data-name="Path" class="cls-6" d="M341.25,1404.315l17.5-10.104v11.547l-17.5,10.104Z"/>
    <path id="Path-202" data-name="Path" class="cls-6" d="M365,1390.6031l17.5-10.104v11.547L365,1402.15Z"/>
    <path id="Path-203" data-name="Path" class="cls-6" d="M317.5,1493.083l17.5-10.104v11.547l-17.5,10.104Z"/>
    <path id="Path-204" data-name="Path" class="cls-6" d="M341.25,1479.371l17.5-10.104v11.547l-17.5,10.104Z"/>
    <path id="Path-205" data-name="Path" class="cls-6" d="M365,1465.658l17.5-10.103v11.547L365,1477.205Z"/>
    <path id="Path-206" data-name="Path" class="cls-6" d="M317.5,1399.263,335,1389.16v11.547L317.5,1410.81Z"/>
    <path id="Path-207" data-name="Path" class="cls-6" d="M341.25,1385.5511l17.5-10.104v11.5469l-17.5,10.1041Z"/>
    <path id="Path-208" data-name="Path" class="cls-6" d="M365,1371.839l17.5-10.104v11.547L365,1383.386Z"/>
    <path id="Path-209" data-name="Path" class="cls-6" d="M317.5,1474.319l17.5-10.104v11.547l-17.5,10.104Z"/>
    <path id="Path-210" data-name="Path" class="cls-6" d="M341.25,1460.607l17.5-10.104v11.547l-17.5,10.104Z"/>
    <path id="Path-211" data-name="Path" class="cls-6" d="M365,1446.8951l17.5-10.1041v11.547L365,1458.442Z"/>
    <path id="Path-212" data-name="Path" class="cls-6" d="M317.5,1549.3741,335,1539.271v11.547l-17.5,10.1031Z"/>
    <path id="Path-213" data-name="Path" class="cls-6" d="M341.25,1535.662l17.5-10.103v11.547l-17.5,10.103Z"/>
    <path id="Path-214" data-name="Path" class="cls-6" d="M365,1521.95l17.5-10.104v11.547L365,1533.497Z"/>
    <path id="Path-215" data-name="Path" class="cls-6" d="M317.5,1436.791l17.5-10.104v11.547l-17.5,10.104Z"/>
    <path id="Path-216" data-name="Path" class="cls-6" d="M341.25,1423.079l17.5-10.104v11.547l-17.5,10.104Z"/>
    <path id="Path-217" data-name="Path" class="cls-6" d="M365,1409.367l17.5-10.104v11.547L365,1420.914Z"/>
    <path id="Path-218" data-name="Path" class="cls-6" d="M317.5,1511.846l17.5-10.103V1513.29l-17.5,10.1029Z"/>
    <path id="Path-219" data-name="Path" class="cls-6" d="M341.25,1498.1341l17.5-10.1031v11.547l-17.5,10.1031Z"/>
    <path id="Path-220" data-name="Path" class="cls-6" d="M365,1484.422l17.5-10.103v11.547L365,1495.969Z"/>
    <path id="Path-221" data-name="Path" class="cls-7" d="M302.5,1380.4991,285,1370.396v11.547l17.5,10.1031Z"/>
    <path id="Path-222" data-name="Path" class="cls-7" d="M278.75,1366.787l-17.5-10.103v11.547l17.5,10.103Z"/>
    <path id="Path-223" data-name="Path" class="cls-7" d="M255,1353.075l-17.5-10.104v11.548l17.5,10.103Z"/>
    <path id="Path-224" data-name="Path" class="cls-7" d="M302.5,1455.555,285,1445.451v11.547l17.5,10.104Z"/>
    <path id="Path-225" data-name="Path" class="cls-7" d="M278.75,1441.843l-17.5-10.104v11.547l17.5,10.104Z"/>
    <path id="Path-226" data-name="Path" class="cls-7" d="M255,1428.131l-17.5-10.104v11.547l17.5,10.104Z"/>
    <path id="Path-227" data-name="Path" class="cls-7" d="M302.5,1530.61,285,1520.507v11.547l17.5,10.103Z"/>
    <path id="Path-228" data-name="Path" class="cls-7" d="M278.75,1516.898l-17.5-10.103v11.5469l17.5,10.1031Z"/>
    <path id="Path-229" data-name="Path" class="cls-7" d="M255,1503.1861l-17.5-10.1031v11.547l17.5,10.1031Z"/>
    <path id="Path-230" data-name="Path" class="cls-7" d="M302.5,1418.027,285,1407.923v11.547l17.5,10.104Z"/>
    <path id="Path-231" data-name="Path" class="cls-7" d="M278.75,1404.315l-17.5-10.104v11.547l17.5,10.104Z"/>
    <path id="Path-232" data-name="Path" class="cls-7" d="M255,1390.6031l-17.5-10.104v11.547L255,1402.15Z"/>
    <path id="Path-233" data-name="Path" class="cls-7" d="M302.5,1493.083,285,1482.979v11.547l17.5,10.104Z"/>
    <path id="Path-234" data-name="Path" class="cls-7" d="M278.75,1479.371l-17.5-10.104v11.547l17.5,10.104Z"/>
    <path id="Path-235" data-name="Path" class="cls-7" d="M255,1465.658l-17.5-10.103v11.547l17.5,10.103Z"/>
    <path id="Path-236" data-name="Path" class="cls-7" d="M302.5,1399.263,285,1389.16v11.547l17.5,10.1029Z"/>
    <path id="Path-237" data-name="Path" class="cls-7" d="M278.75,1385.5511l-17.5-10.104v11.5469l17.5,10.1041Z"/>
    <path id="Path-238" data-name="Path" class="cls-7" d="M255,1371.839l-17.5-10.104v11.547l17.5,10.104Z"/>
    <path id="Path-239" data-name="Path" class="cls-7" d="M302.5,1474.319,285,1464.215v11.547l17.5,10.104Z"/>
    <path id="Path-240" data-name="Path" class="cls-7" d="M278.75,1460.607l-17.5-10.104v11.547l17.5,10.104Z"/>
    <path id="Path-241" data-name="Path" class="cls-7" d="M255,1446.8951l-17.5-10.1041v11.547l17.5,10.104Z"/>
    <path id="Path-242" data-name="Path" class="cls-7" d="M302.5,1549.3741,285,1539.271v11.547l17.5,10.1031Z"/>
    <path id="Path-243" data-name="Path" class="cls-7" d="M278.75,1535.662l-17.5-10.103v11.547l17.5,10.103Z"/>
    <path id="Path-244" data-name="Path" class="cls-7" d="M255,1521.95l-17.5-10.104v11.547l17.5,10.104Z"/>
    <path id="Path-245" data-name="Path" class="cls-7" d="M302.5,1436.791,285,1426.687v11.547l17.5,10.104Z"/>
    <path id="Path-246" data-name="Path" class="cls-7" d="M278.75,1423.079l-17.5-10.104v11.547l17.5,10.104Z"/>
    <path id="Path-247" data-name="Path" class="cls-7" d="M255,1409.367l-17.5-10.104v11.547l17.5,10.104Z"/>
    <path id="Path-248" data-name="Path" class="cls-7" d="M302.5,1511.846,285,1501.743V1513.29l17.5,10.1029Z"/>
    <path id="Path-249" data-name="Path" class="cls-7" d="M278.75,1498.1341l-17.5-10.1031v11.547l17.5,10.1031Z"/>
    <path id="Path-250" data-name="Path" class="cls-7" d="M255,1484.422l-17.5-10.103v11.547l17.5,10.103Z"/>
    <path id="Path-251" data-name="Path" class="cls-6" d="M397.5,1057.211l17.5-10.103v11.547l-17.5,10.103Z"/>
    <path id="Path-252" data-name="Path" class="cls-6" d="M421.25,1043.499l17.5-10.103v11.547l-17.5,10.103Z"/>
    <path id="Path-253" data-name="Path" class="cls-6" d="M445,1029.787l17.5-10.104v11.547L445,1041.334Z"/>
    <path id="Path-254" data-name="Path" class="cls-6" d="M397.5,1132.267l17.5-10.104v11.547l-17.5,10.104Z"/>
    <path id="Path-255" data-name="Path" class="cls-6" d="M421.25,1118.555l17.5-10.104v11.547l-17.5,10.104Z"/>
    <path id="Path-256" data-name="Path" class="cls-6" d="M445,1104.843l17.5-10.104v11.547L445,1116.39Z"/>
    <path id="Path-257" data-name="Path" class="cls-6" d="M397.5,1207.322l17.5-10.103v11.547l-17.5,10.103Z"/>
    <path id="Path-258" data-name="Path" class="cls-6" d="M421.25,1193.61l17.5-10.103v11.547l-17.5,10.103Z"/>
    <path id="Path-259" data-name="Path" class="cls-6" d="M445,1179.898l17.5-10.103v11.547L445,1191.445Z"/>
    <path id="Path-260" data-name="Path" class="cls-6" d="M397.5,1094.739l17.5-10.104v11.547l-17.5,10.104Z"/>
    <path id="Path-261" data-name="Path" class="cls-6" d="M421.25,1081.027l17.5-10.104v11.547l-17.5,10.104Z"/>
    <path id="Path-262" data-name="Path" class="cls-6" d="M445,1067.315l17.5-10.104v11.547L445,1078.862Z"/>
    <path id="Path-263" data-name="Path" class="cls-6" d="M397.5,1169.794l17.5-10.103v11.547l-17.5,10.104Z"/>
    <path id="Path-264" data-name="Path" class="cls-6" d="M421.25,1156.082l17.5-10.103v11.547l-17.5,10.103Z"/>
    <path id="Path-265" data-name="Path" class="cls-6" d="M445,1142.37l17.5-10.103v11.547L445,1153.917Z"/>
    <path id="Path-266" data-name="Path" class="cls-6" d="M397.5,1075.975l17.5-10.104v11.547l-17.5,10.104Z"/>
    <path id="Path-267" data-name="Path" class="cls-6" d="M421.25,1062.263l17.5-10.104v11.547l-17.5,10.104Z"/>
    <path id="Path-268" data-name="Path" class="cls-6" d="M445,1048.551l17.5-10.104v11.547L445,1060.098Z"/>
    <path id="Path-269" data-name="Path" class="cls-6" d="M397.5,1151.031l17.5-10.104v11.547l-17.5,10.104Z"/>
    <path id="Path-270" data-name="Path" class="cls-6" d="M421.25,1137.319l17.5-10.104v11.547l-17.5,10.104Z"/>
    <path id="Path-271" data-name="Path" class="cls-6" d="M445,1123.606l17.5-10.103v11.547L445,1135.154Z"/>
    <path id="Path-272" data-name="Path" class="cls-6" d="M397.5,1226.086l17.5-10.103v11.547l-17.5,10.103Z"/>
    <path id="Path-273" data-name="Path" class="cls-6" d="M421.25,1212.374l17.5-10.104v11.548l-17.5,10.103Z"/>
    <path id="Path-274" data-name="Path" class="cls-6" d="M445,1198.662l17.5-10.104v11.547L445,1210.209Z"/>
    <path id="Path-275" data-name="Path" class="cls-6" d="M397.5,1113.503l17.5-10.104v11.547l-17.5,10.104Z"/>
    <path id="Path-276" data-name="Path" class="cls-6" d="M421.25,1099.791l17.5-10.104v11.547l-17.5,10.104Z"/>
    <path id="Path-277" data-name="Path" class="cls-6" d="M445,1086.079l17.5-10.104v11.547L445,1097.626Z"/>
    <path id="Path-278" data-name="Path" class="cls-6" d="M397.5,1188.558l17.5-10.103v11.547l-17.5,10.103Z"/>
    <path id="Path-279" data-name="Path" class="cls-6" d="M421.25,1174.846l17.5-10.103v11.547l-17.5,10.103Z"/>
    <path id="Path-280" data-name="Path" class="cls-6" d="M445,1161.134l17.5-10.103v11.547L445,1172.681Z"/>
    <path id="Path-281" data-name="Path" class="cls-7" d="M222.5,1057.211,205,1047.108v11.547l17.5,10.103Z"/>
    <path id="Path-282" data-name="Path" class="cls-7" d="M198.75,1043.499l-17.5-10.103v11.547l17.5,10.103Z"/>
    <path id="Path-283" data-name="Path" class="cls-7" d="M175,1029.787l-17.5-10.104v11.547l17.5,10.104Z"/>
    <path id="Path-284" data-name="Path" class="cls-7" d="M222.5,1132.267,205,1122.163v11.547l17.5,10.104Z"/>
    <path id="Path-285" data-name="Path" class="cls-7" d="M198.75,1118.555l-17.5-10.104v11.547l17.5,10.104Z"/>
    <path id="Path-286" data-name="Path" class="cls-7" d="M175,1104.843l-17.5-10.104v11.547L175,1116.39Z"/>
    <path id="Path-287" data-name="Path" class="cls-7" d="M222.5,1207.322,205,1197.219v11.547l17.5,10.103Z"/>
    <path id="Path-288" data-name="Path" class="cls-7" d="M198.75,1193.61l-17.5-10.103v11.547l17.5,10.103Z"/>
    <path id="Path-289" data-name="Path" class="cls-7" d="M175,1179.898l-17.5-10.103v11.547l17.5,10.103Z"/>
    <path id="Path-290" data-name="Path" class="cls-7" d="M222.5,1094.739,205,1084.635v11.547l17.5,10.104Z"/>
    <path id="Path-291" data-name="Path" class="cls-7" d="M198.75,1081.027l-17.5-10.104v11.547l17.5,10.104Z"/>
    <path id="Path-292" data-name="Path" class="cls-7" d="M175,1067.315l-17.5-10.104v11.547l17.5,10.104Z"/>
    <path id="Path-293" data-name="Path" class="cls-7" d="M222.5,1169.794,205,1159.691v11.547l17.5,10.104Z"/>
    <path id="Path-294" data-name="Path" class="cls-7" d="M198.75,1156.082l-17.5-10.103v11.547l17.5,10.103Z"/>
    <path id="Path-295" data-name="Path" class="cls-7" d="M175,1142.37l-17.5-10.103v11.547l17.5,10.103Z"/>
    <path id="Path-296" data-name="Path" class="cls-7" d="M222.5,1075.975,205,1065.871v11.547l17.5,10.104Z"/>
    <path id="Path-297" data-name="Path" class="cls-7" d="M198.75,1062.263l-17.5-10.104v11.547l17.5,10.104Z"/>
    <path id="Path-298" data-name="Path" class="cls-7" d="M175,1048.551l-17.5-10.104v11.547l17.5,10.104Z"/>
    <path id="Path-299" data-name="Path" class="cls-7" d="M222.5,1151.031,205,1140.927v11.547l17.5,10.104Z"/>
    <path id="Path-300" data-name="Path" class="cls-7" d="M198.75,1137.319l-17.5-10.104v11.547l17.5,10.104Z"/>
    <path id="Path-301" data-name="Path" class="cls-7" d="M175,1123.606l-17.5-10.103v11.547l17.5,10.104Z"/>
    <path id="Path-302" data-name="Path" class="cls-7" d="M222.5,1226.086,205,1215.983v11.547l17.5,10.103Z"/>
    <path id="Path-303" data-name="Path" class="cls-7" d="M198.75,1212.374l-17.5-10.104v11.548l17.5,10.103Z"/>
    <path id="Path-304" data-name="Path" class="cls-7" d="M175,1198.662l-17.5-10.104v11.547l17.5,10.104Z"/>
    <path id="Path-305" data-name="Path" class="cls-7" d="M222.5,1113.503,205,1103.399v11.547l17.5,10.104Z"/>
    <path id="Path-306" data-name="Path" class="cls-7" d="M198.75,1099.791l-17.5-10.104v11.547l17.5,10.104Z"/>
    <path id="Path-307" data-name="Path" class="cls-7" d="M175,1086.079l-17.5-10.104v11.547l17.5,10.104Z"/>
    <path id="Path-308" data-name="Path" class="cls-7" d="M222.5,1188.558,205,1178.455v11.547l17.5,10.103Z"/>
    <path id="Path-309" data-name="Path" class="cls-7" d="M198.75,1174.846l-17.5-10.103v11.547l17.5,10.103Z"/>
    <path id="Path-310" data-name="Path" class="cls-7" d="M175,1161.134l-17.5-10.103v11.547l17.5,10.103Z"/>
    <path id="Path-311" data-name="Path" class="cls-6" d="M397.5,1334.339l17.5-10.103v11.547l-17.5,10.103Z"/>
    <path id="Path-312" data-name="Path" class="cls-6" d="M421.25,1320.627l17.5-10.103v11.547l-17.5,10.103Z"/>
    <path id="Path-313" data-name="Path" class="cls-6" d="M445,1306.9151l17.5-10.1031v11.547L445,1318.4621Z"/>
    <path id="Path-314" data-name="Path" class="cls-6" d="M397.5,1409.3951,415,1399.291v11.547l-17.5,10.104Z"/>
    <path id="Path-315" data-name="Path" class="cls-6" d="M421.25,1395.683l17.5-10.104v11.547l-17.5,10.104Z"/>
    <path id="Path-316" data-name="Path" class="cls-6" d="M445,1381.971l17.5-10.104v11.547L445,1393.518Z"/>
    <path id="Path-317" data-name="Path" class="cls-6" d="M397.5,1484.45l17.5-10.103v11.547l-17.5,10.103Z"/>
    <path id="Path-318" data-name="Path" class="cls-6" d="M421.25,1470.7381l17.5-10.1031v11.547l-17.5,10.1031Z"/>
    <path id="Path-319" data-name="Path" class="cls-6" d="M445,1457.026l17.5-10.103v11.547L445,1468.573Z"/>
    <path id="Path-320" data-name="Path" class="cls-6" d="M397.5,1371.867l17.5-10.104v11.547l-17.5,10.104Z"/>
    <path id="Path-321" data-name="Path" class="cls-6" d="M421.25,1358.1551l17.5-10.104v11.547l-17.5,10.104Z"/>
    <path id="Path-322" data-name="Path" class="cls-6" d="M445,1344.443l17.5-10.104v11.547L445,1355.99Z"/>
    <path id="Path-323" data-name="Path" class="cls-6" d="M397.5,1446.923l17.5-10.104v11.547l-17.5,10.104Z"/>
    <path id="Path-324" data-name="Path" class="cls-6" d="M421.25,1433.211l17.5-10.104v11.547l-17.5,10.104Z"/>
    <path id="Path-325" data-name="Path" class="cls-6" d="M445,1419.498l17.5-10.1029v11.5469L445,1431.0461Z"/>
    <path id="Path-326" data-name="Path" class="cls-6" d="M397.5,1353.1031,415,1343v11.547L397.5,1364.65Z"/>
    <path id="Path-327" data-name="Path" class="cls-6" d="M421.25,1339.391l17.5-10.103v11.547l-17.5,10.103Z"/>
    <path id="Path-328" data-name="Path" class="cls-6" d="M445,1325.679l17.5-10.104v11.548L445,1337.226Z"/>
    <path id="Path-329" data-name="Path" class="cls-6" d="M397.5,1428.159l17.5-10.104v11.547l-17.5,10.104Z"/>
    <path id="Path-330" data-name="Path" class="cls-6" d="M421.25,1414.4471l17.5-10.1041v11.547l-17.5,10.104Z"/>
    <path id="Path-331" data-name="Path" class="cls-6" d="M445,1400.735l17.5-10.104v11.547L445,1412.282Z"/>
    <path id="Path-332" data-name="Path" class="cls-6" d="M397.5,1503.214l17.5-10.103v11.547l-17.5,10.103Z"/>
    <path id="Path-333" data-name="Path" class="cls-6" d="M421.25,1489.502l17.5-10.103v11.547l-17.5,10.103Z"/>
    <path id="Path-334" data-name="Path" class="cls-6" d="M445,1475.79l17.5-10.1031v11.547L445,1487.3371Z"/>
    <path id="Path-335" data-name="Path" class="cls-6" d="M397.5,1390.631l17.5-10.104v11.547l-17.5,10.104Z"/>
    <path id="Path-336" data-name="Path" class="cls-6" d="M421.25,1376.919l17.5-10.104v11.547l-17.5,10.104Z"/>
    <path id="Path-337" data-name="Path" class="cls-6" d="M445,1363.2071l17.5-10.104v11.547l-17.5,10.104Z"/>
    <path id="Path-338" data-name="Path" class="cls-6" d="M397.5,1465.6861,415,1455.583v11.547l-17.5,10.104Z"/>
    <path id="Path-339" data-name="Path" class="cls-6" d="M421.25,1451.974l17.5-10.103v11.547l-17.5,10.103Z"/>
    <path id="Path-340" data-name="Path" class="cls-6" d="M445,1438.262l17.5-10.103v11.547L445,1449.809Z"/>
    <path id="Path-341" data-name="Path" class="cls-7" d="M222.5,1334.339,205,1324.236v11.547l17.5,10.103Z"/>
    <path id="Path-342" data-name="Path" class="cls-7" d="M198.75,1320.627l-17.5-10.103v11.547l17.5,10.103Z"/>
    <path id="Path-343" data-name="Path" class="cls-7" d="M175,1306.9151l-17.5-10.1031v11.547l17.5,10.1031Z"/>
    <path id="Path-344" data-name="Path" class="cls-7" d="M222.5,1409.3951,205,1399.291v11.547l17.5,10.104Z"/>
    <path id="Path-345" data-name="Path" class="cls-7" d="M198.75,1395.683l-17.5-10.104v11.547l17.5,10.104Z"/>
    <path id="Path-346" data-name="Path" class="cls-7" d="M175,1381.971l-17.5-10.104v11.547l17.5,10.104Z"/>
    <path id="Path-347" data-name="Path" class="cls-7" d="M222.5,1484.45,205,1474.347v11.547l17.5,10.103Z"/>
    <path id="Path-348" data-name="Path" class="cls-7" d="M198.75,1470.7381l-17.5-10.1031v11.547l17.5,10.1031Z"/>
    <path id="Path-349" data-name="Path" class="cls-7" d="M175,1457.026l-17.5-10.103v11.547l17.5,10.103Z"/>
    <path id="Path-350" data-name="Path" class="cls-7" d="M222.5,1371.867,205,1361.763v11.547l17.5,10.104Z"/>
    <path id="Path-351" data-name="Path" class="cls-7" d="M198.75,1358.1551l-17.5-10.104v11.547l17.5,10.104Z"/>
    <path id="Path-352" data-name="Path" class="cls-7" d="M175,1344.443l-17.5-10.104v11.547L175,1355.99Z"/>
    <path id="Path-353" data-name="Path" class="cls-7" d="M222.5,1446.923,205,1436.819v11.547l17.5,10.104Z"/>
    <path id="Path-354" data-name="Path" class="cls-7" d="M198.75,1433.211l-17.5-10.104v11.547l17.5,10.104Z"/>
    <path id="Path-355" data-name="Path" class="cls-7" d="M175,1419.498l-17.5-10.1029v11.5469l17.5,10.1041Z"/>
    <path id="Path-356" data-name="Path" class="cls-7" d="M222.5,1353.1031,205,1343v11.547l17.5,10.1031Z"/>
    <path id="Path-357" data-name="Path" class="cls-7" d="M198.75,1339.391l-17.5-10.103v11.547l17.5,10.103Z"/>
    <path id="Path-358" data-name="Path" class="cls-7" d="M175,1325.679l-17.5-10.104v11.548l17.5,10.103Z"/>
    <path id="Path-359" data-name="Path" class="cls-7" d="M222.5,1428.159,205,1418.055v11.547l17.5,10.104Z"/>
    <path id="Path-360" data-name="Path" class="cls-7" d="M198.75,1414.4471l-17.5-10.1041v11.547l17.5,10.104Z"/>
    <path id="Path-361" data-name="Path" class="cls-7" d="M175,1400.735l-17.5-10.104v11.547l17.5,10.104Z"/>
    <path id="Path-362" data-name="Path" class="cls-7" d="M222.5,1503.214,205,1493.111v11.547l17.5,10.103Z"/>
    <path id="Path-363" data-name="Path" class="cls-7" d="M198.75,1489.502l-17.5-10.103v11.547l17.5,10.103Z"/>
    <path id="Path-364" data-name="Path" class="cls-7" d="M175,1475.79l-17.5-10.1031v11.547l17.5,10.1031Z"/>
    <path id="Path-365" data-name="Path" class="cls-7" d="M222.5,1390.631,205,1380.527v11.547l17.5,10.104Z"/>
    <path id="Path-366" data-name="Path" class="cls-7" d="M198.75,1376.919l-17.5-10.104v11.547l17.5,10.104Z"/>
    <path id="Path-367" data-name="Path" class="cls-7" d="M175,1363.2071l-17.5-10.104v11.547l17.5,10.104Z"/>
    <path id="Path-368" data-name="Path" class="cls-7" d="M222.5,1465.6861,205,1455.583v11.547l17.5,10.104Z"/>
    <path id="Path-369" data-name="Path" class="cls-7" d="M198.75,1451.974l-17.5-10.103v11.547l17.5,10.103Z"/>
    <path id="Path-370" data-name="Path" class="cls-7" d="M175,1438.262l-17.5-10.103v11.547l17.5,10.103Z"/>
    <path id="Path-371" data-name="Path" class="cls-6" d="M477.5,1086.051l17.5-10.104v11.547l-17.5,10.104Z"/>
    <path id="Path-372" data-name="Path" class="cls-6" d="M501.25,1072.339l17.5-10.104v11.547l-17.5,10.104Z"/>
    <path id="Path-373" data-name="Path" class="cls-6" d="M525,1058.626l17.5-10.103v11.547L525,1070.174Z"/>
    <path id="Path-374" data-name="Path" class="cls-6" d="M477.5,1161.106l17.5-10.103v11.547l-17.5,10.103Z"/>
    <path id="Path-375" data-name="Path" class="cls-6" d="M501.25,1147.394l17.5-10.104v11.547l-17.5,10.104Z"/>
    <path id="Path-376" data-name="Path" class="cls-6" d="M525,1133.682l17.5-10.104v11.547L525,1145.229Z"/>
    <path id="Path-377" data-name="Path" class="cls-6" d="M477.5,1123.578l17.5-10.103v11.547l-17.5,10.103Z"/>
    <path id="Path-378" data-name="Path" class="cls-6" d="M501.25,1109.866l17.5-10.103v11.547l-17.5,10.103Z"/>
    <path id="Path-379" data-name="Path" class="cls-6" d="M525,1096.154l17.5-10.103v11.547L525,1107.701Z"/>
    <path id="Path-380" data-name="Path" class="cls-6" d="M477.5,1104.814l17.5-10.103v11.547l-17.5,10.104Z"/>
    <path id="Path-381" data-name="Path" class="cls-6" d="M501.25,1091.102l17.5-10.103v11.547l-17.5,10.103Z"/>
    <path id="Path-382" data-name="Path" class="cls-6" d="M525,1077.39l17.5-10.103v11.547L525,1088.937Z"/>
    <path id="Path-383" data-name="Path" class="cls-6" d="M477.5,1179.87l17.5-10.104v11.547l-17.5,10.104Z"/>
    <path id="Path-384" data-name="Path" class="cls-6" d="M501.25,1166.158l17.5-10.104v11.547l-17.5,10.104Z"/>
    <path id="Path-385" data-name="Path" class="cls-6" d="M525,1152.446l17.5-10.104v11.547L525,1163.993Z"/>
    <path id="Path-386" data-name="Path" class="cls-6" d="M477.5,1067.287l17.5-10.104v11.547l-17.5,10.104Z"/>
    <path id="Path-387" data-name="Path" class="cls-6" d="M501.25,1053.575l17.5-10.104v11.547l-17.5,10.104Z"/>
    <path id="Path-388" data-name="Path" class="cls-6" d="M525,1039.863l17.5-10.104v11.547L525,1051.41Z"/>
    <path id="Path-389" data-name="Path" class="cls-6" d="M477.5,1142.342l17.5-10.103v11.547l-17.5,10.103Z"/>
    <path id="Path-390" data-name="Path" class="cls-6" d="M501.25,1128.63l17.5-10.103v11.547l-17.5,10.103Z"/>
    <path id="Path-391" data-name="Path" class="cls-6" d="M525,1114.918l17.5-10.103v11.547L525,1126.465Z"/>
    <path id="Path-392" data-name="Path" class="cls-7" d="M142.5,1086.051,125,1075.947v11.547l17.5,10.104Z"/>
    <path id="Path-393" data-name="Path" class="cls-7" d="M118.75,1072.339l-17.5-10.104v11.547l17.5,10.104Z"/>
    <path id="Path-394" data-name="Path" class="cls-7" d="M95,1058.626l-17.5-10.103v11.547L95,1070.174Z"/>
    <path id="Path-395" data-name="Path" class="cls-7" d="M142.5,1161.106,125,1151.003v11.547l17.5,10.103Z"/>
    <path id="Path-396" data-name="Path" class="cls-7" d="M118.75,1147.394l-17.5-10.104v11.547l17.5,10.104Z"/>
    <path id="Path-397" data-name="Path" class="cls-7" d="M95,1133.682l-17.5-10.104v11.547L95,1145.229Z"/>
    <path id="Path-398" data-name="Path" class="cls-7" d="M142.5,1123.578,125,1113.475v11.547l17.5,10.103Z"/>
    <path id="Path-399" data-name="Path" class="cls-7" d="M118.75,1109.866l-17.5-10.103v11.547l17.5,10.103Z"/>
    <path id="Path-400" data-name="Path" class="cls-7" d="M95,1096.154l-17.5-10.103v11.547L95,1107.701Z"/>
    <path id="Path-401" data-name="Path" class="cls-7" d="M142.5,1104.814,125,1094.711v11.547l17.5,10.104Z"/>
    <path id="Path-402" data-name="Path" class="cls-7" d="M118.75,1091.102l-17.5-10.103v11.547l17.5,10.103Z"/>
    <path id="Path-403" data-name="Path" class="cls-7" d="M95,1077.39l-17.5-10.103v11.547L95,1088.937Z"/>
    <path id="Path-404" data-name="Path" class="cls-7" d="M142.5,1179.87,125,1169.766v11.547l17.5,10.104Z"/>
    <path id="Path-405" data-name="Path" class="cls-7" d="M118.75,1166.158l-17.5-10.104v11.547l17.5,10.104Z"/>
    <path id="Path-406" data-name="Path" class="cls-7" d="M95,1152.446l-17.5-10.104v11.547L95,1163.993Z"/>
    <path id="Path-407" data-name="Path" class="cls-7" d="M142.5,1067.287,125,1057.183v11.547l17.5,10.104Z"/>
    <path id="Path-408" data-name="Path" class="cls-7" d="M118.75,1053.575l-17.5-10.104v11.547l17.5,10.104Z"/>
    <path id="Path-409" data-name="Path" class="cls-7" d="M95,1039.863l-17.5-10.104v11.547L95,1051.41Z"/>
    <path id="Path-410" data-name="Path" class="cls-7" d="M142.5,1142.342,125,1132.239v11.547l17.5,10.103Z"/>
    <path id="Path-411" data-name="Path" class="cls-7" d="M118.75,1128.63l-17.5-10.103v11.547l17.5,10.103Z"/>
    <path id="Path-412" data-name="Path" class="cls-7" d="M95,1114.918l-17.5-10.103v11.547L95,1126.465Z"/>
    <path id="Path-413" data-name="Path" class="cls-6" d="M477.5,1288.123,495,1278.02v11.547l-17.5,10.103Z"/>
    <path id="Path-414" data-name="Path" class="cls-6" d="M501.25,1274.411l17.5-10.103v11.547l-17.5,10.103Z"/>
    <path id="Path-415" data-name="Path" class="cls-6" d="M525,1260.699l17.5-10.104v11.547L525,1272.246Z"/>
    <path id="Path-416" data-name="Path" class="cls-6" d="M477.5,1363.179l17.5-10.104v11.547l-17.5,10.104Z"/>
    <path id="Path-417" data-name="Path" class="cls-6" d="M501.25,1349.4669l17.5-10.1038v11.547l-17.5,10.104Z"/>
    <path id="Path-418" data-name="Path" class="cls-6" d="M525,1335.755l17.5-10.104v11.547L525,1347.302Z"/>
    <path id="Path-419" data-name="Path" class="cls-6" d="M477.5,1438.234l17.5-10.103v11.547l-17.5,10.103Z"/>
    <path id="Path-420" data-name="Path" class="cls-6" d="M501.25,1424.522l17.5-10.103v11.547l-17.5,10.103Z"/>
    <path id="Path-421" data-name="Path" class="cls-6" d="M525,1410.81l17.5-10.1029v11.547L525,1422.357Z"/>
    <path id="Path-422" data-name="Path" class="cls-6" d="M477.5,1325.651l17.5-10.104v11.547l-17.5,10.104Z"/>
    <path id="Path-423" data-name="Path" class="cls-6" d="M501.25,1311.939l17.5-10.104v11.547l-17.5,10.104Z"/>
    <path id="Path-424" data-name="Path" class="cls-6" d="M525,1298.227l17.5-10.104v11.547L525,1309.774Z"/>
    <path id="Path-425" data-name="Path" class="cls-6" d="M477.5,1400.706l17.5-10.1029v11.547l-17.5,10.104Z"/>
    <path id="Path-426" data-name="Path" class="cls-6" d="M501.25,1386.994l17.5-10.103v11.547l-17.5,10.103Z"/>
    <path id="Path-427" data-name="Path" class="cls-6" d="M525,1373.282l17.5-10.103v11.547L525,1384.829Z"/>
    <path id="Path-428" data-name="Path" class="cls-6" d="M477.5,1306.887l17.5-10.104v11.547l-17.5,10.104Z"/>
    <path id="Path-429" data-name="Path" class="cls-6" d="M501.25,1293.175l17.5-10.104v11.547l-17.5,10.104Z"/>
    <path id="Path-430" data-name="Path" class="cls-6" d="M525,1279.463l17.5-10.104v11.547L525,1291.01Z"/>
    <path id="Path-431" data-name="Path" class="cls-6" d="M477.5,1381.943l17.5-10.104v11.547l-17.5,10.104Z"/>
    <path id="Path-432" data-name="Path" class="cls-6" d="M501.25,1368.231l17.5-10.104v11.547l-17.5,10.104Z"/>
    <path id="Path-433" data-name="Path" class="cls-6" d="M525,1354.518l17.5-10.1029v11.547L525,1366.0659Z"/>
    <path id="Path-434" data-name="Path" class="cls-6" d="M477.5,1456.998l17.5-10.1029v11.5469l-17.5,10.103Z"/>
    <path id="Path-435" data-name="Path" class="cls-6" d="M501.25,1443.286l17.5-10.104v11.548l-17.5,10.103Z"/>
    <path id="Path-436" data-name="Path" class="cls-6" d="M525,1429.574l17.5-10.104v11.547L525,1441.121Z"/>
    <path id="Path-437" data-name="Path" class="cls-6" d="M477.5,1344.4151l17.5-10.104v11.547l-17.5,10.104Z"/>
    <path id="Path-438" data-name="Path" class="cls-6" d="M501.25,1330.703l17.5-10.104v11.547l-17.5,10.104Z"/>
    <path id="Path-439" data-name="Path" class="cls-6" d="M525,1316.991l17.5-10.104v11.547L525,1328.538Z"/>
    <path id="Path-440" data-name="Path" class="cls-6" d="M477.5,1419.47l17.5-10.103v11.547l-17.5,10.103Z"/>
    <path id="Path-441" data-name="Path" class="cls-6" d="M501.25,1405.758l17.5-10.1029v11.547l-17.5,10.1029Z"/>
    <path id="Path-442" data-name="Path" class="cls-6" d="M525,1392.0461l17.5-10.1031v11.547L525,1403.593Z"/>
    <path id="Path-443" data-name="Path" class="cls-7" d="M142.5,1288.123,125,1278.02v11.547l17.5,10.103Z"/>
    <path id="Path-444" data-name="Path" class="cls-7" d="M118.75,1274.411l-17.5-10.103v11.547l17.5,10.103Z"/>
    <path id="Path-445" data-name="Path" class="cls-7" d="M95,1260.699l-17.5-10.104v11.547L95,1272.246Z"/>
    <path id="Path-446" data-name="Path" class="cls-7" d="M142.5,1363.179,125,1353.075v11.547l17.5,10.104Z"/>
    <path id="Path-447" data-name="Path" class="cls-7" d="M118.75,1349.4669l-17.5-10.1038v11.547l17.5,10.104Z"/>
    <path id="Path-448" data-name="Path" class="cls-7" d="M95,1335.755l-17.5-10.104v11.547L95,1347.302Z"/>
    <path id="Path-449" data-name="Path" class="cls-7" d="M142.5,1438.234,125,1428.131v11.547l17.5,10.103Z"/>
    <path id="Path-450" data-name="Path" class="cls-7" d="M118.75,1424.522l-17.5-10.103v11.547l17.5,10.103Z"/>
    <path id="Path-451" data-name="Path" class="cls-7" d="M95,1410.81l-17.5-10.1029v11.547L95,1422.357Z"/>
    <path id="Path-452" data-name="Path" class="cls-7" d="M142.5,1325.651,125,1315.547v11.547l17.5,10.104Z"/>
    <path id="Path-453" data-name="Path" class="cls-7" d="M118.75,1311.939l-17.5-10.104v11.547l17.5,10.104Z"/>
    <path id="Path-454" data-name="Path" class="cls-7" d="M95,1298.227l-17.5-10.104v11.547L95,1309.774Z"/>
    <path id="Path-455" data-name="Path" class="cls-7" d="M142.5,1400.706,125,1390.6031v11.547l17.5,10.104Z"/>
    <path id="Path-456" data-name="Path" class="cls-7" d="M118.75,1386.994l-17.5-10.103v11.547l17.5,10.103Z"/>
    <path id="Path-457" data-name="Path" class="cls-7" d="M95,1373.282l-17.5-10.103v11.547L95,1384.829Z"/>
    <path id="Path-458" data-name="Path" class="cls-7" d="M142.5,1306.887,125,1296.783v11.547l17.5,10.104Z"/>
    <path id="Path-459" data-name="Path" class="cls-7" d="M118.75,1293.175l-17.5-10.104v11.547l17.5,10.104Z"/>
    <path id="Path-460" data-name="Path" class="cls-7" d="M95,1279.463l-17.5-10.104v11.547L95,1291.01Z"/>
    <path id="Path-461" data-name="Path" class="cls-7" d="M142.5,1381.943,125,1371.839v11.547l17.5,10.104Z"/>
    <path id="Path-462" data-name="Path" class="cls-7" d="M118.75,1368.231l-17.5-10.104v11.547l17.5,10.104Z"/>
    <path id="Path-463" data-name="Path" class="cls-7" d="M95,1354.518l-17.5-10.1029v11.547L95,1366.0659Z"/>
    <path id="Path-464" data-name="Path" class="cls-7" d="M142.5,1456.998,125,1446.8951v11.5469l17.5,10.103Z"/>
    <path id="Path-465" data-name="Path" class="cls-7" d="M118.75,1443.286l-17.5-10.104v11.548l17.5,10.103Z"/>
    <path id="Path-466" data-name="Path" class="cls-7" d="M95,1429.574,77.5,1419.47v11.547L95,1441.121Z"/>
    <path id="Path-467" data-name="Path" class="cls-7" d="M142.5,1344.4151l-17.5-10.104v11.547l17.5,10.104Z"/>
    <path id="Path-468" data-name="Path" class="cls-7" d="M118.75,1330.703l-17.5-10.104v11.547l17.5,10.104Z"/>
    <path id="Path-469" data-name="Path" class="cls-7" d="M95,1316.991l-17.5-10.104v11.547L95,1328.538Z"/>
    <path id="Path-470" data-name="Path" class="cls-7" d="M142.5,1419.47,125,1409.367v11.547l17.5,10.103Z"/>
    <path id="Path-471" data-name="Path" class="cls-7" d="M118.75,1405.758l-17.5-10.1029v11.547l17.5,10.1029Z"/>
    <path id="Path-472" data-name="Path" class="cls-7" d="M95,1392.0461,77.5,1381.943v11.547L95,1403.593Z"/>
    <path id="Path-473" data-name="Path" class="cls-6" d="M317.5,456.767,335,446.663V458.21l-17.5,10.104Z"/>
    <path id="Path-474" data-name="Path" class="cls-6" d="M341.25,443.055l17.5-10.104v11.547l-17.5,10.104Z"/>
    <path id="Path-475" data-name="Path" class="cls-6" d="M365,429.343l17.5-10.104v11.547L365,440.89Z"/>
    <path id="Path-476" data-name="Path" class="cls-6" d="M317.5,531.822,335,521.719v11.547L317.5,543.37Z"/>
    <path id="Path-477" data-name="Path" class="cls-6" d="M341.25,518.11l17.5-10.103v11.547l-17.5,10.103Z"/>
    <path id="Path-478" data-name="Path" class="cls-6" d="M365,504.398l17.5-10.103v11.547L365,515.945Z"/>
    <path id="Path-479" data-name="Path" class="cls-6" d="M317.5,606.878,335,596.774v11.547l-17.5,10.104Z"/>
    <path id="Path-480" data-name="Path" class="cls-6" d="M341.25,593.166l17.5-10.104v11.547l-17.5,10.104Z"/>
    <path id="Path-481" data-name="Path" class="cls-6" d="M365,579.454l17.5-10.104v11.547L365,591.001Z"/>
    <path id="Path-482" data-name="Path" class="cls-6" d="M317.5,494.295,335,484.191v11.547l-17.5,10.104Z"/>
    <path id="Path-483" data-name="Path" class="cls-6" d="M341.25,480.583l17.5-10.104v11.547l-17.5,10.104Z"/>
    <path id="Path-484" data-name="Path" class="cls-6" d="M365,466.871l17.5-10.104v11.547L365,478.418Z"/>
    <path id="Path-485" data-name="Path" class="cls-6" d="M317.5,569.35,335,559.247v11.547l-17.5,10.103Z"/>
    <path id="Path-486" data-name="Path" class="cls-6" d="M341.25,555.638l17.5-10.103v11.547l-17.5,10.103Z"/>
    <path id="Path-487" data-name="Path" class="cls-6" d="M365,541.926l17.5-10.104V543.37L365,553.473Z"/>
    <path id="Path-488" data-name="Path" class="cls-6" d="M317.5,475.531,335,465.427v11.547l-17.5,10.104Z"/>
    <path id="Path-489" data-name="Path" class="cls-6" d="M341.25,461.819l17.5-10.104v11.547l-17.5,10.104Z"/>
    <path id="Path-490" data-name="Path" class="cls-6" d="M365,448.107l17.5-10.104V449.55L365,459.654Z"/>
    <path id="Path-491" data-name="Path" class="cls-6" d="M317.5,550.586,335,540.483V552.03l-17.5,10.103Z"/>
    <path id="Path-492" data-name="Path" class="cls-6" d="M341.25,536.874l17.5-10.103v11.547l-17.5,10.103Z"/>
    <path id="Path-493" data-name="Path" class="cls-6" d="M365,523.162l17.5-10.103v11.547L365,534.709Z"/>
    <path id="Path-494" data-name="Path" class="cls-6" d="M317.5,513.059,335,502.955v11.547l-17.5,10.104Z"/>
    <path id="Path-495" data-name="Path" class="cls-6" d="M341.25,499.347l17.5-10.104V500.79l-17.5,10.104Z"/>
    <path id="Path-496" data-name="Path" class="cls-6" d="M365,485.634l17.5-10.103v11.547L365,497.181Z"/>
    <path id="Path-497" data-name="Path" class="cls-6" d="M317.5,588.114,335,578.011v11.547l-17.5,10.103Z"/>
    <path id="Path-498" data-name="Path" class="cls-6" d="M341.25,574.402l17.5-10.104v11.547l-17.5,10.104Z"/>
    <path id="Path-499" data-name="Path" class="cls-6" d="M365,560.69l17.5-10.104v11.547L365,572.237Z"/>
    <path id="Path-500" data-name="Path" class="cls-6" d="M237.5,780.055,255,769.951v11.547l-17.5,10.104Z"/>
    <path id="Path-501" data-name="Path" class="cls-6" d="M261.25,766.343l17.5-10.104v11.547l-17.5,10.104Z"/>
    <path id="Path-502" data-name="Path" class="cls-6" d="M285,752.631l17.5-10.104v11.547L285,764.178Z"/>
    <path id="Path-503" data-name="Path" class="cls-6" d="M237.5,855.11,255,845.007v11.547l-17.5,10.104Z"/>
    <path id="Path-504" data-name="Path" class="cls-6" d="M261.25,841.398l17.5-10.103v11.547l-17.5,10.103Z"/>
    <path id="Path-505" data-name="Path" class="cls-6" d="M285,827.686l17.5-10.103V829.13L285,839.233Z"/>
    <path id="Path-506" data-name="Path" class="cls-6" d="M237.5,930.166,255,920.062v11.547l-17.5,10.104Z"/>
    <path id="Path-507" data-name="Path" class="cls-6" d="M261.25,916.454l17.5-10.104v11.547l-17.5,10.104Z"/>
    <path id="Path-508" data-name="Path" class="cls-6" d="M285,902.742l17.5-10.104v11.547L285,914.289Z"/>
    <path id="Path-509" data-name="Path" class="cls-6" d="M237.5,817.583,255,807.479v11.547L237.5,829.13Z"/>
    <path id="Path-510" data-name="Path" class="cls-6" d="M261.25,803.871l17.5-10.104v11.547l-17.5,10.104Z"/>
    <path id="Path-511" data-name="Path" class="cls-6" d="M285,790.159l17.5-10.104v11.547L285,801.706Z"/>
    <path id="Path-512" data-name="Path" class="cls-6" d="M237.5,892.638,255,882.535v11.547l-17.5,10.103Z"/>
    <path id="Path-513" data-name="Path" class="cls-6" d="M261.25,878.926l17.5-10.103V880.37l-17.5,10.103Z"/>
    <path id="Path-514" data-name="Path" class="cls-6" d="M285,865.214l17.5-10.103v11.547L285,876.761Z"/>
    <path id="Path-515" data-name="Path" class="cls-6" d="M237.5,798.819,255,788.715v11.547l-17.5,10.104Z"/>
    <path id="Path-516" data-name="Path" class="cls-6" d="M261.25,785.107l17.5-10.104V786.55l-17.5,10.104Z"/>
    <path id="Path-517" data-name="Path" class="cls-6" d="M285,771.395l17.5-10.104v11.547L285,782.942Z"/>
    <path id="Path-518" data-name="Path" class="cls-6" d="M237.5,873.874,255,863.771v11.547l-17.5,10.103Z"/>
    <path id="Path-519" data-name="Path" class="cls-6" d="M261.25,860.162l17.5-10.103v11.547l-17.5,10.103Z"/>
    <path id="Path-520" data-name="Path" class="cls-6" d="M285,846.45l17.5-10.103v11.547L285,857.997Z"/>
    <path id="Path-521" data-name="Path" class="cls-6" d="M237.5,836.347,255,826.243V837.79l-17.5,10.104Z"/>
    <path id="Path-522" data-name="Path" class="cls-6" d="M261.25,822.635l17.5-10.104v11.547l-17.5,10.104Z"/>
    <path id="Path-523" data-name="Path" class="cls-6" d="M285,808.922l17.5-10.103v11.547L285,820.47Z"/>
    <path id="Path-524" data-name="Path" class="cls-6" d="M237.5,911.402,255,901.299v11.547l-17.5,10.103Z"/>
    <path id="Path-525" data-name="Path" class="cls-6" d="M261.25,897.69l17.5-10.104v11.547l-17.5,10.104Z"/>
    <path id="Path-526" data-name="Path" class="cls-6" d="M285,883.978l17.5-10.104v11.547L285,895.525Z"/>
    <path id="Path-527" data-name="Path" class="cls-7" d="M382.5,780.055,365,769.951v11.547l17.5,10.104Z"/>
    <path id="Path-528" data-name="Path" class="cls-7" d="M358.75,766.343l-17.5-10.104v11.547l17.5,10.104Z"/>
    <path id="Path-529" data-name="Path" class="cls-7" d="M335,752.631l-17.5-10.104v11.547L335,764.178Z"/>
    <path id="Path-530" data-name="Path" class="cls-7" d="M382.5,855.11,365,845.007v11.547l17.5,10.104Z"/>
    <path id="Path-531" data-name="Path" class="cls-7" d="M358.75,841.398l-17.5-10.103v11.547l17.5,10.103Z"/>
    <path id="Path-532" data-name="Path" class="cls-7" d="M335,827.686l-17.5-10.103V829.13L335,839.233Z"/>
    <path id="Path-533" data-name="Path" class="cls-7" d="M382.5,930.166,365,920.062v11.547l17.5,10.104Z"/>
    <path id="Path-534" data-name="Path" class="cls-7" d="M358.75,916.454l-17.5-10.104v11.547l17.5,10.104Z"/>
    <path id="Path-535" data-name="Path" class="cls-7" d="M335,902.742l-17.5-10.104v11.547L335,914.289Z"/>
    <path id="Path-536" data-name="Path" class="cls-7" d="M382.5,817.583,365,807.479v11.547l17.5,10.104Z"/>
    <path id="Path-537" data-name="Path" class="cls-7" d="M358.75,803.871l-17.5-10.104v11.547l17.5,10.104Z"/>
    <path id="Path-538" data-name="Path" class="cls-7" d="M335,790.159l-17.5-10.104v11.547L335,801.706Z"/>
    <path id="Path-539" data-name="Path" class="cls-7" d="M382.5,892.638,365,882.535v11.547l17.5,10.103Z"/>
    <path id="Path-540" data-name="Path" class="cls-7" d="M358.75,878.926l-17.5-10.103V880.37l17.5,10.103Z"/>
    <path id="Path-541" data-name="Path" class="cls-7" d="M335,865.214l-17.5-10.103v11.547L335,876.761Z"/>
    <path id="Path-542" data-name="Path" class="cls-7" d="M382.5,798.819,365,788.715v11.547l17.5,10.104Z"/>
    <path id="Path-543" data-name="Path" class="cls-7" d="M358.75,785.107l-17.5-10.104V786.55l17.5,10.104Z"/>
    <path id="Path-544" data-name="Path" class="cls-7" d="M335,771.395l-17.5-10.104v11.547L335,782.942Z"/>
    <path id="Path-545" data-name="Path" class="cls-7" d="M382.5,873.874,365,863.771v11.547l17.5,10.103Z"/>
    <path id="Path-546" data-name="Path" class="cls-7" d="M358.75,860.162l-17.5-10.103v11.547l17.5,10.103Z"/>
    <path id="Path-547" data-name="Path" class="cls-7" d="M335,846.45l-17.5-10.103v11.547L335,857.997Z"/>
    <path id="Path-548" data-name="Path" class="cls-7" d="M382.5,836.347,365,826.243V837.79l17.5,10.104Z"/>
    <path id="Path-549" data-name="Path" class="cls-7" d="M358.75,822.635l-17.5-10.104v11.547l17.5,10.104Z"/>
    <path id="Path-550" data-name="Path" class="cls-7" d="M335,808.922l-17.5-10.103v11.547L335,820.47Z"/>
    <path id="Path-551" data-name="Path" class="cls-7" d="M382.5,911.402,365,901.299v11.547l17.5,10.103Z"/>
    <path id="Path-552" data-name="Path" class="cls-7" d="M358.75,897.69l-17.5-10.104v11.547l17.5,10.104Z"/>
    <path id="Path-553" data-name="Path" class="cls-7" d="M335,883.978l-17.5-10.104v11.547L335,895.525Z"/>
    <path id="Path-554" data-name="Path" class="cls-7" d="M222.5,502.927,205,492.823V504.37l17.5,10.104Z"/>
    <path id="Path-555" data-name="Path" class="cls-7" d="M198.75,489.215l-17.5-10.104v11.547l17.5,10.104Z"/>
    <path id="Path-556" data-name="Path" class="cls-7" d="M175,475.503l-17.5-10.104v11.547L175,487.05Z"/>
    <path id="Path-557" data-name="Path" class="cls-7" d="M222.5,577.982,205,567.879v11.547l17.5,10.103Z"/>
    <path id="Path-558" data-name="Path" class="cls-7" d="M198.75,564.27l-17.5-10.103v11.547l17.5,10.103Z"/>
    <path id="Path-559" data-name="Path" class="cls-7" d="M175,550.558l-17.5-10.103v11.547L175,562.105Z"/>
    <path id="Path-560" data-name="Path" class="cls-7" d="M222.5,653.038,205,642.934v11.547l17.5,10.104Z"/>
    <path id="Path-561" data-name="Path" class="cls-7" d="M198.75,639.326l-17.5-10.104v11.547l17.5,10.104Z"/>
    <path id="Path-562" data-name="Path" class="cls-7" d="M175,625.614,157.5,615.51v11.547L175,637.161Z"/>
    <path id="Path-563" data-name="Path" class="cls-7" d="M222.5,540.455,205,530.351v11.547l17.5,10.104Z"/>
    <path id="Path-564" data-name="Path" class="cls-7" d="M198.75,526.743l-17.5-10.104v11.547l17.5,10.104Z"/>
    <path id="Path-565" data-name="Path" class="cls-7" d="M175,513.03l-17.5-10.103v11.547L175,524.578Z"/>
    <path id="Path-566" data-name="Path" class="cls-7" d="M222.5,615.51,205,605.407v11.547l17.5,10.103Z"/>
    <path id="Path-567" data-name="Path" class="cls-7" d="M198.75,601.798l-17.5-10.104v11.547l17.5,10.104Z"/>
    <path id="Path-568" data-name="Path" class="cls-7" d="M175,588.086l-17.5-10.104v11.547L175,599.633Z"/>
    <path id="Path-569" data-name="Path" class="cls-7" d="M222.5,521.691,205,511.587v11.547l17.5,10.104Z"/>
    <path id="Path-570" data-name="Path" class="cls-7" d="M198.75,507.979l-17.5-10.104v11.547l17.5,10.104Z"/>
    <path id="Path-571" data-name="Path" class="cls-7" d="M175,494.267l-17.5-10.104V495.71L175,505.814Z"/>
    <path id="Path-572" data-name="Path" class="cls-7" d="M222.5,596.746,205,586.643V598.19l17.5,10.103Z"/>
    <path id="Path-573" data-name="Path" class="cls-7" d="M198.75,583.034l-17.5-10.103v11.547l17.5,10.103Z"/>
    <path id="Path-574" data-name="Path" class="cls-7" d="M175,569.322l-17.5-10.103v11.547L175,580.869Z"/>
    <path id="Path-575" data-name="Path" class="cls-7" d="M222.5,671.802,205,661.698v11.547l17.5,10.104Z"/>
    <path id="Path-576" data-name="Path" class="cls-7" d="M198.75,658.09l-17.5-10.104v11.547l17.5,10.104Z"/>
    <path id="Path-577" data-name="Path" class="cls-7" d="M175,644.378l-17.5-10.104v11.547L175,655.925Z"/>
    <path id="Path-578" data-name="Path" class="cls-7" d="M222.5,559.218,205,549.115v11.547l17.5,10.104Z"/>
    <path id="Path-579" data-name="Path" class="cls-7" d="M198.75,545.506l-17.5-10.103V546.95l17.5,10.103Z"/>
    <path id="Path-580" data-name="Path" class="cls-7" d="M175,531.794l-17.5-10.103v11.547L175,543.341Z"/>
    <path id="Path-581" data-name="Path" class="cls-7" d="M222.5,634.274,205,624.17v11.547l17.5,10.104Z"/>
    <path id="Path-582" data-name="Path" class="cls-7" d="M198.75,620.562l-17.5-10.104v11.547l17.5,10.104Z"/>
    <path id="Path-583" data-name="Path" class="cls-7" d="M175,606.85l-17.5-10.104v11.547L175,618.397Z"/>
    <path id="Path-584" data-name="Path" class="cls-7" d="M222.5,780.055,205,769.951v11.547l17.5,10.104Z"/>
    <path id="Path-585" data-name="Path" class="cls-7" d="M198.75,766.343l-17.5-10.104v11.547l17.5,10.104Z"/>
    <path id="Path-586" data-name="Path" class="cls-7" d="M175,752.631l-17.5-10.104v11.547L175,764.178Z"/>
    <path id="Path-587" data-name="Path" class="cls-7" d="M222.5,855.11,205,845.007v11.547l17.5,10.104Z"/>
    <path id="Path-588" data-name="Path" class="cls-7" d="M198.75,841.398l-17.5-10.103v11.547l17.5,10.103Z"/>
    <path id="Path-589" data-name="Path" class="cls-7" d="M175,827.686l-17.5-10.103V829.13L175,839.233Z"/>
    <path id="Path-590" data-name="Path" class="cls-7" d="M222.5,930.166,205,920.062v11.547l17.5,10.104Z"/>
    <path id="Path-591" data-name="Path" class="cls-7" d="M198.75,916.454l-17.5-10.104v11.547l17.5,10.104Z"/>
    <path id="Path-592" data-name="Path" class="cls-7" d="M175,902.742l-17.5-10.104v11.547L175,914.289Z"/>
    <path id="Path-593" data-name="Path" class="cls-7" d="M222.5,817.583,205,807.479v11.547l17.5,10.104Z"/>
    <path id="Path-594" data-name="Path" class="cls-7" d="M198.75,803.871l-17.5-10.104v11.547l17.5,10.104Z"/>
    <path id="Path-595" data-name="Path" class="cls-7" d="M175,790.159l-17.5-10.104v11.547L175,801.706Z"/>
    <path id="Path-596" data-name="Path" class="cls-7" d="M222.5,892.638,205,882.535v11.547l17.5,10.103Z"/>
    <path id="Path-597" data-name="Path" class="cls-7" d="M198.75,878.926l-17.5-10.103V880.37l17.5,10.103Z"/>
    <path id="Path-598" data-name="Path" class="cls-7" d="M175,865.214l-17.5-10.103v11.547L175,876.761Z"/>
    <path id="Path-599" data-name="Path" class="cls-7" d="M222.5,798.819,205,788.715v11.547l17.5,10.104Z"/>
    <path id="Path-600" data-name="Path" class="cls-7" d="M198.75,785.107l-17.5-10.104V786.55l17.5,10.104Z"/>
    <path id="Path-601" data-name="Path" class="cls-7" d="M175,771.395l-17.5-10.104v11.547L175,782.942Z"/>
    <path id="Path-602" data-name="Path" class="cls-7" d="M222.5,873.874,205,863.771v11.547l17.5,10.103Z"/>
    <path id="Path-603" data-name="Path" class="cls-7" d="M198.75,860.162l-17.5-10.103v11.547l17.5,10.103Z"/>
    <path id="Path-604" data-name="Path" class="cls-7" d="M175,846.45l-17.5-10.103v11.547L175,857.997Z"/>
    <path id="Path-605" data-name="Path" class="cls-7" d="M222.5,948.93,205,938.826v11.547l17.5,10.104Z"/>
    <path id="Path-606" data-name="Path" class="cls-7" d="M198.75,935.218l-17.5-10.104v11.547l17.5,10.104Z"/>
    <path id="Path-607" data-name="Path" class="cls-7" d="M175,921.506l-17.5-10.104v11.547L175,933.053Z"/>
    <path id="Path-608" data-name="Path" class="cls-7" d="M222.5,836.347,205,826.243V837.79l17.5,10.104Z"/>
    <path id="Path-609" data-name="Path" class="cls-7" d="M198.75,822.635l-17.5-10.104v11.547l17.5,10.104Z"/>
    <path id="Path-610" data-name="Path" class="cls-7" d="M175,808.922l-17.5-10.103v11.547L175,820.47Z"/>
    <path id="Path-611" data-name="Path" class="cls-7" d="M222.5,911.402,205,901.299v11.547l17.5,10.103Z"/>
    <path id="Path-612" data-name="Path" class="cls-7" d="M198.75,897.69l-17.5-10.104v11.547l17.5,10.104Z"/>
    <path id="Path-613" data-name="Path" class="cls-7" d="M175,883.978l-17.5-10.104v11.547L175,895.525Z"/>
    <path id="Path-614" data-name="Path" class="cls-3" d="M170,361.476l140-80.829v17.321L185,370.136Z"/>
    <path id="Path-615" data-name="Path" class="cls-4" d="M370,315.288l-15,8.66-45-25.98V280.647Z"/>
    <ellipse id="Ellipse" class="cls-15" cx="312" cy="210.5064" rx="10" ry="5.7735"/>
    <ellipse id="Ellipse-2" data-name="Ellipse" class="cls-15" cx="312" cy="325.9764" rx="10" ry="5.7735"/>
    <rect id="Rectangle" class="cls-15" x="302" y="210.5063" width="20" height="115.4701"/>
    <ellipse id="Ellipse-3" data-name="Ellipse" class="cls-16" cx="312" cy="210.5064" rx="10" ry="5.7735"/>
    <ellipse id="Ellipse-4" data-name="Ellipse" class="cls-15" cx="312" cy="209.8461" rx="5" ry="2.8868"/>
    <rect id="Rectangle-2" data-name="Rectangle" class="cls-15" x="307" y="2.8867" width="10" height="206.9593"/>
    <ellipse id="Ellipse-5" data-name="Ellipse" class="cls-16" cx="312" cy="2.8867" rx="5" ry="2.8867"/>
    <path id="Path-616" data-name="Path" class="cls-10" d="M390,673.245l60-34.641-60-34.641-60,34.641Z"/>
    <path id="Path-617" data-name="Path" class="cls-3" d="M330,638.604l60-34.641v5.774l-55,31.754Z"/>
    <path id="Path-618" data-name="Path" class="cls-4" d="M450,638.604l-5,2.887-55-31.754v-5.774Z"/>
    <path id="Path-619" data-name="Path" class="cls-10" d="M310,996.561l60-34.641-60-34.641L250,961.92Z"/>
    <path id="Path-620" data-name="Path" class="cls-3" d="M250,961.92l60-34.641v5.774l-55,31.754Z"/>
    <path id="Path-621" data-name="Path" class="cls-4" d="M370,961.92l-5,2.887-55-31.754v-5.774Z"/>
    <path id="Path-622" data-name="Path" class="cls-4" d="M270,367.25V344.156l-30-17.321v23.094Z"/>
    <path id="Path-623" data-name="Path" class="cls-8" d="M315,318.175l-45,25.981-30-17.321,45-25.981Z"/>
    <path id="Path-624" data-name="Path" class="cls-3" d="M270,367.25l45-25.981V318.175l-45,25.981Z"/>
    <ellipse id="Ellipse-6" data-name="Ellipse" class="cls-15" cx="228" cy="255.8076" rx="10" ry="5.7735"/>
    <ellipse id="Ellipse-7" data-name="Ellipse" class="cls-15" cx="228" cy="371.2777" rx="10" ry="5.7735"/>
    <rect id="Rectangle-3" data-name="Rectangle" class="cls-15" x="218" y="255.8076" width="20" height="115.4701"/>
    <ellipse id="Ellipse-8" data-name="Ellipse" class="cls-16" cx="228" cy="255.8076" rx="10" ry="5.7735"/>
    <ellipse id="Ellipse-9" data-name="Ellipse" class="cls-15" cx="228" cy="255.1474" rx="5" ry="2.8868"/>
    <rect id="Rectangle-4" data-name="Rectangle" class="cls-15" x="223" y="48.188" width="10" height="206.9593"/>
    <ellipse id="Ellipse-10" data-name="Ellipse" class="cls-16" cx="228" cy="48.188" rx="5" ry="2.8867"/>
    <path id="Path-625" data-name="Path" d="M237.5,487.05,255,476.946V424.985l-17.5,10.103Z"/>
    <path id="Path-626" data-name="Path" d="M261.25,473.366l17.5-10.104V411.301l-17.5,10.103Z"/>
    <path id="Path-627" data-name="Path" d="M285,459.991l17.5-10.104V397.926L285,408.03Z"/>
    <path id="Path-628" data-name="Path" d="M317.5,1087.431l17.5-10.104v-51.961l-17.5,10.103Z"/>
    <path id="Path-629" data-name="Path" d="M341.25,1073.747l17.5-10.104v-51.961l-17.5,10.103Z"/>
    <path id="Path-630" data-name="Path" d="M365,1060.372l17.5-10.104V998.307L365,1008.411Z"/>
    <path id="Path-631" data-name="Path" d="M317.5,1364.559l17.5-10.104v-51.961l-17.5,10.103Z"/>
    <path id="Path-632" data-name="Path" d="M341.25,1350.875l17.5-10.104V1288.81l-17.5,10.103Z"/>
    <path id="Path-633" data-name="Path" d="M365,1337.5l17.5-10.103v-51.962L365,1285.539Z"/>
    <path id="Path-634" data-name="Path" d="M222.5,487.05,205,476.946V424.985l17.5,10.103Z"/>
    <path id="Path-635" data-name="Path" d="M198.75,473.366l-17.5-10.104V411.301l17.5,10.103Z"/>
    <path id="Path-636" data-name="Path" d="M175,459.991l-17.5-10.104V397.926L175,408.03Z"/>
    <path id="Path-637" data-name="Path" d="M317.5,440.679,335,430.575V378.614l-17.5,10.103Z"/>
    <path id="Path-638" data-name="Path" d="M341.25,426.995l17.5-10.104V364.93l-17.5,10.103Z"/>
    <path id="Path-639" data-name="Path" d="M365,413.62l17.5-10.103V351.555L365,361.659Z"/>
    <path id="Path-640" data-name="Path" d="M397.5,1041.06l17.5-10.104V978.995l-17.5,10.103Z"/>
    <path id="Path-641" data-name="Path" d="M421.25,1027.376l17.5-10.104V965.311l-17.5,10.103Z"/>
    <path id="Path-642" data-name="Path" d="M445,1014.001l17.5-10.103V951.936L445,962.04Z"/>
    <path id="Path-643" data-name="Path" d="M397.5,1318.188l17.5-10.104v-51.961l-17.5,10.104Z"/>
    <path id="Path-644" data-name="Path" d="M421.25,1304.5041l17.5-10.104V1242.439l-17.5,10.104Z"/>
    <path id="Path-645" data-name="Path" d="M445,1291.1291l17.5-10.1031v-51.962L445,1239.168Z"/>
    <path id="Path-646" data-name="Path" d="M477.5,1271.881l17.5-10.104v-51.962l-17.5,10.104Z"/>
    <path id="Path-647" data-name="Path" d="M501.25,1258.197l17.5-10.104v-51.962l-17.5,10.104Z"/>
    <path id="Path-648" data-name="Path" d="M525,1244.822l17.5-10.104v-51.961L525,1192.86Z"/>
    <path id="Path-649" data-name="Path" d="M397.5,764.023,415,753.92V701.958l-17.5,10.104Z"/>
    <path id="Path-650" data-name="Path" d="M421.25,750.339l17.5-10.103V688.274l-17.5,10.104Z"/>
    <path id="Path-651" data-name="Path" d="M445,736.965l17.5-10.104V674.899L445,685.003Z"/>
    <path id="Path-652" data-name="Path" d="M237.5,764.023,255,753.92V701.958l-17.5,10.104Z"/>
    <path id="Path-653" data-name="Path" d="M261.25,750.339l17.5-10.103V688.274l-17.5,10.104Z"/>
    <path id="Path-654" data-name="Path" d="M285,736.965l17.5-10.104V674.899L285,685.003Z"/>
    <path id="Path-655" data-name="Path" d="M222.5,764.023,205,753.92V701.958l17.5,10.104Z"/>
    <path id="Path-656" data-name="Path" d="M198.75,750.339l-17.5-10.103V688.274l17.5,10.104Z"/>
    <path id="Path-657" data-name="Path" d="M175,736.965l-17.5-10.104V674.899L175,685.003Z"/>
    <path id="Path-658" data-name="Path" d="M222.5,1041.123,205,1031.02V979.058l17.5,10.104Z"/>
    <path id="Path-659" data-name="Path" d="M198.75,1027.439l-17.5-10.103V965.374l17.5,10.104Z"/>
    <path id="Path-660" data-name="Path" d="M175,1014.065l-17.5-10.104V951.999L175,962.103Z"/>
    <path id="Path-661" data-name="Path" d="M222.5,1318.251,205,1308.148v-51.962l17.5,10.104Z"/>
    <path id="Path-662" data-name="Path" d="M198.75,1304.567l-17.5-10.103v-51.962l17.5,10.104Z"/>
    <path id="Path-663" data-name="Path" d="M175,1291.193l-17.5-10.104v-51.961l17.5,10.103Z"/>
    <path id="Path-664" data-name="Path" d="M303,1087.431l-17.5-10.104v-51.961l17.5,10.103Z"/>
    <path id="Path-665" data-name="Path" d="M279.25,1073.747l-17.5-10.104v-51.961l17.5,10.103Z"/>
    <path id="Path-666" data-name="Path" d="M255.5,1060.372,238,1050.268V998.307l17.5,10.104Z"/>
    <path id="Path-667" data-name="Path" d="M303,1364.559l-17.5-10.104v-51.961l17.5,10.103Z"/>
    <path id="Path-668" data-name="Path" d="M279.25,1350.875l-17.5-10.104V1288.81l17.5,10.103Z"/>
    <path id="Path-669" data-name="Path" d="M255.5,1337.5,238,1327.397v-51.962l17.5,10.104Z"/>
    <path id="Path-670" data-name="Path" d="M142.5,1271.881,125,1261.777v-51.962l17.5,10.104Z"/>
    <path id="Path-671" data-name="Path" d="M118.75,1258.197l-17.5-10.104v-51.962l17.5,10.104Z"/>
    <path id="Path-672" data-name="Path" d="M95,1244.822l-17.5-10.104v-51.961L95,1192.86Z"/>
    <path id="Path-673" data-name="Path" d="M382.5,764.023,365,753.92V701.958l17.5,10.104Z"/>
    <path id="Path-674" data-name="Path" d="M358.75,750.339l-17.5-10.103V688.274l17.5,10.104Z"/>
    <path id="Path-675" data-name="Path" d="M335,736.965l-17.5-10.104V674.899L335,685.003Z"/>
    <path id="Path-676" data-name="Path" class="cls-6" d="M317.5,1615.77,335,1605.666v-37.528l-17.5,10.104Z"/>
    <path id="Path-677" data-name="Path" class="cls-7" d="M302.5,1615.77,285,1605.666v-37.528l17.5,10.104Z"/>
    <path id="Path-678" data-name="Path" class="cls-6" d="M342.5,1601.2231,360,1591.119v-37.528l-17.5,10.104Z"/>
    <path id="Path-679" data-name="Path" class="cls-7" d="M277.5,1601.2231,260,1591.119v-37.528l17.5,10.104Z"/>
    <path id="Path-680" data-name="Path" class="cls-6" d="M365,1588.232l17.5-10.1029V1540.601L365,1550.704Z"/>
    <path id="Path-681" data-name="Path" class="cls-7" d="M255,1588.232l-17.5-10.1029V1540.601l17.5,10.103Z"/>
  </g>
</svg>
