<svg id="Layer_1" data-name="Layer 1" xmlns="http://www.w3.org/2000/svg" xmlns:xlink="http://www.w3.org/1999/xlink" viewBox="0 0 1062 1062">
  <defs>
    <style>
      .cls-1 {
        fill: none;
      }

      .cls-2 {
        fill: #e8e8e8;
      }

      .cls-3 {
        fill: #808c9d;
      }

      .cls-4 {
        fill: #e2e7ee;
      }

      .cls-5 {
        fill: #6e7a8a;
      }

      .cls-6 {
        fill: #3a4451;
      }

      .cls-7 {
        fill: #576271;
      }

      .cls-8 {
        fill: #b9b9b9;
      }

      .cls-9 {
        fill: #f3f6f9;
      }

      .cls-10 {
        fill: #8e959d;
      }

      .cls-11 {
        fill: #c0c7d0;
      }

      .cls-12 {
        clip-path: url(#clip-path);
      }

      .cls-13 {
        fill: #a8b0bb;
      }

      .cls-14 {
        clip-path: url(#clip-path-2);
      }

      .cls-15 {
        fill: #c5cedb;
      }

      .cls-16 {
        clip-path: url(#clip-path-3);
      }

      .cls-17 {
        clip-path: url(#clip-path-4);
      }

      .cls-18 {
        fill: #d1d1d1;
      }

      .cls-19 {
        fill: #a2a2a2;
      }
    </style>
    <clipPath id="clip-path">
      <polygon class="cls-1" points="533 394.468 633 325.186 563 746.652 533 394.468"/>
    </clipPath>
    <clipPath id="clip-path-2">
      <polygon class="cls-1" points="613 382.921 623 377.147 633 590.767 613 787.066 613 821.707 563 850.574 563 746.652 613 382.921"/>
    </clipPath>
    <clipPath id="clip-path-3">
      <polygon class="cls-1" points="643 596.54 623 792.84 623 827.481 683 792.84 683 654.275 643 365.6 623 377.147 643 596.54"/>
    </clipPath>
    <clipPath id="clip-path-4">
      <polygon class="cls-1" points="413 590.767 533 394.468 460.5 343.95 413 590.767"/>
    </clipPath>
  </defs>
  <title>1Artboard 50</title>
  <g id="Group">
    <path id="Path" class="cls-2" d="M563,931.4036l140-80.8291L523,746.6515,383,827.4806Z"/>
    <path id="Path-2" data-name="Path" class="cls-3" d="M623,885.2156l-30-17.3205v-23.094l30-17.3205Z"/>
    <path id="Path-3" data-name="Path" class="cls-4" d="M523,896.7626l30-17.3205V856.348l-30-17.32Z"/>
    <path id="Path-4" data-name="Path" class="cls-5" d="M483,296.3183v57.735l140,23.094Z"/>
    <path id="Path-5" data-name="Path" class="cls-6" d="M483,307.8653l20,11.547-10,5.7735-10-5.7736Z"/>
    <path id="Path-6" data-name="Path" class="cls-2" d="M623,377.1473l-140-80.829,70-17.3205L643,365.6Z"/>
    <path id="Path-7" data-name="Path" class="cls-2" d="M683,792.84l-160-92.376-120,69.282,160,92.3761Z"/>
    <path id="Path-8" data-name="Path" class="cls-3" d="M613,821.707l10,5.7735V792.84l-10-5.7735Z"/>
    <path id="Path-9" data-name="Path" class="cls-7" d="M563,850.5745V746.6515L533,394.4679,460.5,343.95,413,590.7669V763.972Z"/>
    <g id="Group-2" data-name="Group">
      <path id="Path-10" data-name="Path" class="cls-3" d="M413,740.878l150,86.6025v11.547L413,752.4249Z"/>
      <path id="Path-11" data-name="Path" class="cls-3" d="M523,388.6943l15,8.66v11.547l-15-8.66Z"/>
      <path id="Path-12" data-name="Path" class="cls-3" d="M443,527.2585l110,63.5084v11.547L443,538.8054Z"/>
      <path id="Path-13" data-name="Path" class="cls-3" d="M483,457.9764l65,37.5277v11.547l-65-37.5277Z"/>
      <path id="Path-14" data-name="Path" class="cls-3" d="M413,602.314l150,86.6025v11.547L413,613.8609Z"/>
      <path id="Path-15" data-name="Path" class="cls-3" d="M413,694.69l150,86.6025V792.84L413,706.2369Z"/>
      <path id="Path-16" data-name="Path" class="cls-3" d="M503,423.3353l40,23.0941v11.547l-40-23.094Z"/>
      <path id="Path-17" data-name="Path" class="cls-3" d="M423,561.8994l135,77.9423v11.547L423,573.4464Z"/>
      <path id="Path-18" data-name="Path" class="cls-3" d="M463,492.6174l85,49.0747v11.547l-85-49.0747Z"/>
      <path id="Path-19" data-name="Path" class="cls-3" d="M413,648.502l150,86.6025v11.547L413,660.0489Z"/>
      <path id="Path-20" data-name="Path" class="cls-3" d="M513,406.0148l25,14.4338v11.547l-25-14.4338Z"/>
      <path id="Path-21" data-name="Path" class="cls-3" d="M433,544.579l120,69.2819v11.547l-120-69.282Z"/>
      <path id="Path-22" data-name="Path" class="cls-3" d="M473,475.2968l75,43.3014v11.547l-75-43.3014Z"/>
      <path id="Path-23" data-name="Path" class="cls-3" d="M413,625.4079l150,86.6026v11.547L413,636.9549Z"/>
      <path id="Path-24" data-name="Path" class="cls-3" d="M413,717.784l150,86.6025v11.547L413,729.3309Z"/>
      <path id="Path-25" data-name="Path" class="cls-3" d="M493,440.6559l50,28.8674V481.07l-50-28.8675Z"/>
      <path id="Path-26" data-name="Path" class="cls-3" d="M418,582.1067l140,80.829v11.547L413,590.7669Z"/>
      <path id="Path-27" data-name="Path" class="cls-3" d="M453,509.9379l100,57.735V579.22l-100-57.735Z"/>
      <path id="Path-28" data-name="Path" class="cls-3" d="M413,671.596l150,86.6025v11.547L413,683.1429Z"/>
    </g>
    <path id="Path-29" data-name="Path" class="cls-5" d="M413,590.7669l120-196.299L460.5,343.95Z"/>
    <path id="Path-30" data-name="Path" class="cls-8" d="M498,299.2051l55-14.4338L633,365.6l-10,5.7735Z"/>
    <path id="Path-31" data-name="Path" class="cls-9" d="M498,299.2051l55-14.4338v11.547l-40,11.547Z"/>
    <path id="Path-32" data-name="Path" class="cls-10" d="M553,284.7713l65,66.3953v11.547l-65-66.3953Z"/>
    <path id="Path-33" data-name="Path" class="cls-11" d="M533,394.4679l100-69.2821L563,746.6515Z"/>
    <g class="cls-12">
      <g id="Group-3" data-name="Group">
        <path id="Path-34" data-name="Path" class="cls-13" d="M533,763.972,633,694.69V683.143L533,752.425Z"/>
        <path id="Path-35" data-name="Path" class="cls-13" d="M533,740.878l100-69.282V660.049L533,729.331Z"/>
        <path id="Path-36" data-name="Path" class="cls-13" d="M533,417.5619,633,348.28v-11.547L533,406.0149Z"/>
        <path id="Path-37" data-name="Path" class="cls-13" d="M533,509.9379l100-69.282v-11.547l-100,69.282Z"/>
        <path id="Path-38" data-name="Path" class="cls-13" d="M533,463.75l100-69.282V382.9208L533,452.2029Z"/>
        <path id="Path-39" data-name="Path" class="cls-13" d="M533,556.1259l100-69.282v-11.547l-100,69.282Z"/>
        <path id="Path-40" data-name="Path" class="cls-13" d="M533,625.408l100-69.282V544.5789L533,613.861Z"/>
        <path id="Path-41" data-name="Path" class="cls-13" d="M533,694.69l100-69.282V613.861L533,683.143Z"/>
        <path id="Path-42" data-name="Path" class="cls-13" d="M533,440.6559l100-69.282V359.8268L533,429.1089Z"/>
        <path id="Path-43" data-name="Path" class="cls-13" d="M533,533.0319,633,463.75v-11.547l-100,69.282Z"/>
        <path id="Path-44" data-name="Path" class="cls-13" d="M533,602.314l100-69.2821v-11.547L533,590.767Z"/>
        <path id="Path-45" data-name="Path" class="cls-13" d="M533,671.596l100-69.282V590.7669L533,660.049Z"/>
        <path id="Path-46" data-name="Path" class="cls-13" d="M533,486.8439l100-69.282v-11.547l-100,69.282Z"/>
        <path id="Path-47" data-name="Path" class="cls-13" d="M533,579.22l100-69.282v-11.547l-100,69.282Z"/>
        <path id="Path-48" data-name="Path" class="cls-13" d="M533,648.502,633,579.22V567.6729L533,636.955Z"/>
        <path id="Path-49" data-name="Path" class="cls-13" d="M533,717.784l100-69.282V636.955L533,706.237Z"/>
      </g>
    </g>
    <path id="Path-50" data-name="Path" class="cls-2" d="M533,394.4679l100-69.2821-93.75-31.0325L460.5,343.95Z"/>
    <path id="Path-51" data-name="Path" class="cls-4" d="M613,382.9209l10-5.7736,10,213.62L613,787.0661v34.641l-50,28.8674V746.6515Z"/>
    <path id="Path-52" data-name="Path" class="cls-3" d="M623,792.84,643,596.54l-10-5.7735L613,787.0661Z"/>
    <path id="Path-53" data-name="Path" class="cls-4" d="M623,827.4806l60-34.641V654.2755L643,596.54,623,792.84Z"/>
    <path id="Path-54" data-name="Path" class="cls-3" d="M643,596.54,623,377.1473l10,213.62Z"/>
    <path id="Path-55" data-name="Path" class="cls-4" d="M623,827.4806l60-34.641v57.735l-60,34.641Z"/>
    <path id="Path-56" data-name="Path" class="cls-4" d="M563,908.31l50-28.8675V839.0276l-50,28.8675Z"/>
    <path id="Path-57" data-name="Path" class="cls-3" d="M533,890.9891,563,908.31V867.8951l-30-17.32Z"/>
    <path id="Path-58" data-name="Path" class="cls-4" d="M643,596.54l40,57.7351L643,365.6l-20,11.547Z"/>
    <path id="Path-59" data-name="Path" class="cls-8" d="M470.5,343.95l70-43.3013,81.25,26.7025L533,388.6944Z"/>
    <path id="Path-60" data-name="Path" class="cls-9" d="M471,343.95l10,7.2169,60-28.8675V300.6484Z"/>
    <path id="Path-61" data-name="Path" class="cls-10" d="M541,300.6484v21.6507l48.75,28.1458,32.5-23.094Z"/>
    <path id="Path-62" data-name="Path" class="cls-3" d="M403,769.7455v57.7351l120,69.282v-57.735Z"/>
    <path id="Path-63" data-name="Path" class="cls-4" d="M533,833.254l-10,5.7735v-34.641l10-5.7734Z"/>
    <path id="Path-64" data-name="Path" class="cls-3" d="M523,839.0276v-34.641L403,735.1045v34.641Z"/>
    <path id="Path-65" data-name="Path" class="cls-2" d="M403,735.1045l10-5.7735,120,69.2821-10,5.7735Z"/>
    <g class="cls-14">
      <g>
        <path id="Path-66" data-name="Path" class="cls-15" d="M628,789.9528V801.5l-65,37.5278v-11.547Z"/>
        <path id="Path-67" data-name="Path" class="cls-15" d="M638,691.8033V703.35l-75,43.3012v-11.547Z"/>
        <path id="Path-68" data-name="Path" class="cls-15" d="M648,593.6537v11.547L573,648.502V636.955Z"/>
        <path id="Path-69" data-name="Path" class="cls-15" d="M638,507.0512v11.547l-50,28.8675v-11.547Z"/>
        <path id="Path-70" data-name="Path" class="cls-15" d="M633,740.878v11.547L563,792.84v-11.547Z"/>
        <path id="Path-71" data-name="Path" class="cls-15" d="M643,642.7285v11.547l-75,43.3012V686.03Z"/>
        <path id="Path-72" data-name="Path" class="cls-15" d="M643,550.3524v11.547l-65,37.5278V587.88Z"/>
        <path id="Path-73" data-name="Path" class="cls-15" d="M638,460.8632V472.41l-45,25.9807v-11.547Z"/>
        <path id="Path-74" data-name="Path" class="cls-15" d="M628,397.3546v11.547l-25,14.4338v-11.547Z"/>
        <path id="Path-75" data-name="Path" class="cls-15" d="M633,763.972v11.547l-70,40.4146v-11.547Z"/>
        <path id="Path-76" data-name="Path" class="cls-15" d="M638,668.7092v11.547l-75,43.3013v-11.547Z"/>
        <path id="Path-77" data-name="Path" class="cls-15" d="M648,570.56v11.547l-70,40.4145v-11.547Z"/>
        <path id="Path-78" data-name="Path" class="cls-15" d="M638,483.9571v11.547l-50,28.8676v-11.547Z"/>
        <path id="Path-79" data-name="Path" class="cls-15" d="M633,417.5619v11.547l-35,20.2072v-11.547Z"/>
        <path id="Path-80" data-name="Path" class="cls-15" d="M638,714.8973v11.547l-75,43.3012v-11.547Z"/>
        <path id="Path-81" data-name="Path" class="cls-15" d="M643,619.6345v11.547l-75,43.3012v-11.547Z"/>
        <path id="Path-82" data-name="Path" class="cls-15" d="M643,527.2584v11.547l-60,34.641v-11.547Z"/>
        <path id="Path-83" data-name="Path" class="cls-15" d="M633,440.6559v11.547l-40,23.094V463.75Z"/>
        <path id="Path-84" data-name="Path" class="cls-15" d="M628,374.2606v11.547l-25,14.4338v-11.547Z"/>
      </g>
    </g>
    <g class="cls-16">
      <g>
        <path id="Path-85" data-name="Path" class="cls-15" d="M683,769.7455v11.547l-60,34.641V804.3866Z"/>
        <path id="Path-86" data-name="Path" class="cls-15" d="M683,700.4635v11.547l-60,34.641v-11.547Z"/>
        <path id="Path-87" data-name="Path" class="cls-15" d="M683,631.1815v11.547L623,677.37v-11.547Z"/>
        <path id="Path-88" data-name="Path" class="cls-15" d="M673,567.6729V579.22l-35,20.2073V587.88Z"/>
        <path id="Path-89" data-name="Path" class="cls-15" d="M668,501.2777v11.547l-35,20.2072v-11.547Z"/>
        <path id="Path-90" data-name="Path" class="cls-15" d="M658,437.7691v11.547l-30,17.3206V455.09Z"/>
        <path id="Path-91" data-name="Path" class="cls-15" d="M683,746.6515v11.547L623,792.84v-11.547Z"/>
        <path id="Path-92" data-name="Path" class="cls-15" d="M683,677.37v11.547l-60,34.641v-11.547Z"/>
        <path id="Path-93" data-name="Path" class="cls-15" d="M683,608.0875v11.547l-60,34.641v-11.547Z"/>
        <path id="Path-94" data-name="Path" class="cls-15" d="M673,544.5789v11.547l-35,20.2073v-11.547Z"/>
        <path id="Path-95" data-name="Path" class="cls-15" d="M663,481.07v11.547l-30,17.3205v-11.547Z"/>
        <path id="Path-96" data-name="Path" class="cls-15" d="M653,417.5619v11.547l-25,14.4337v-11.547Z"/>
        <path id="Path-97" data-name="Path" class="cls-15" d="M648,374.2606v11.547l-25,14.4337v-11.547Z"/>
        <path id="Path-98" data-name="Path" class="cls-15" d="M683,723.5575v11.547l-60,34.641v-11.547Z"/>
        <path id="Path-99" data-name="Path" class="cls-15" d="M683,654.2755v11.547l-60,34.641v-11.547Z"/>
        <path id="Path-100" data-name="Path" class="cls-15" d="M678,587.88v11.547l-40,23.094v-11.547Z"/>
        <path id="Path-101" data-name="Path" class="cls-15" d="M668,524.3717v11.547l-35,20.2072v-11.547Z"/>
        <path id="Path-102" data-name="Path" class="cls-15" d="M663,457.9764v11.547l-35,20.2072v-11.547Z"/>
        <path id="Path-103" data-name="Path" class="cls-15" d="M653,394.4679v11.547l-30,17.32v-11.547Z"/>
      </g>
    </g>
    <g class="cls-17">
      <g id="Group-4" data-name="Group">
        <path id="Path-104" data-name="Path" class="cls-6" d="M358,527.2584l-5,8.66,70,49.0747,5-8.66Z"/>
        <path id="Path-105" data-name="Path" class="cls-6" d="M458,354.0533l-5,8.66,70,49.0748,5-8.66Z"/>
        <path id="Path-106" data-name="Path" class="cls-6" d="M418,423.3354l-5,8.66L483,481.07l5-8.66Z"/>
        <path id="Path-107" data-name="Path" class="cls-6" d="M438,388.6944l-5,8.66,70,49.0748,5-8.66Z"/>
        <path id="Path-108" data-name="Path" class="cls-6" d="M398,457.9764l-5,8.66,70,49.0748,5-8.66Z"/>
        <path id="Path-109" data-name="Path" class="cls-6" d="M378,492.6174l-5,8.66,70,49.0748,5-8.66Z"/>
        <path id="Path-110" data-name="Path" class="cls-6" d="M448,371.3739l-5,8.66,70,49.0748,5-8.66Z"/>
        <path id="Path-111" data-name="Path" class="cls-6" d="M408,440.6559l-5,8.66,70,49.0748,5-8.66Z"/>
        <path id="Path-112" data-name="Path" class="cls-6" d="M428,406.0149l-5,8.66L493,463.75l5-8.66Z"/>
        <path id="Path-113" data-name="Path" class="cls-6" d="M388,475.2969l-5,8.66,70,49.0748,5-8.66Z"/>
        <path id="Path-114" data-name="Path" class="cls-6" d="M368,509.9379l-5,8.66,70,49.0747,5-8.66Z"/>
      </g>
    </g>
    <path id="Path-115" data-name="Path" class="cls-15" d="M683,792.84v11.547l-60,34.6411v-11.547Z"/>
    <path id="Path-116" data-name="Path" class="cls-15" d="M683,815.9336v11.547l-60,34.641v-11.547Z"/>
    <path id="Path-117" data-name="Path" class="cls-15" d="M613,844.8011v11.547l-50,28.8675v-11.547Z"/>
    <path id="Path-118" data-name="Path" class="cls-7" d="M533,856.3481v11.547l30,17.3205v-11.547Z"/>
    <path id="Path-119" data-name="Path" class="cls-7" d="M403,792.84v11.547l120,69.2821v-11.547Z"/>
    <path id="Path-120" data-name="Path" class="cls-7" d="M403,746.6515v11.547l120,69.2821v-11.547Z"/>
    <path id="Path-121" data-name="Path" class="cls-15" d="M683,839.0276v11.547l-60,34.641v-11.547Z"/>
    <path id="Path-122" data-name="Path" class="cls-15" d="M613,867.8951v11.547L563,908.31v-11.547Z"/>
    <path id="Path-123" data-name="Path" class="cls-7" d="M533,879.4421v11.547L563,908.31v-11.547Z"/>
    <path id="Path-124" data-name="Path" class="cls-10" d="M558,905.4228l5,2.8868V862.1215l-5-2.8867Z"/>
    <path id="Path-125" data-name="Path" class="cls-10" d="M538,893.8758l5,2.8868v-46.188l-5-2.8868Z"/>
    <path id="Path-126" data-name="Path" class="cls-9" d="M568,905.4228l-5,2.8868V862.1215l5-2.8867Z"/>
    <path id="Path-127" data-name="Path" class="cls-9" d="M588,893.8758l-5,2.8868v-46.188l5-2.8868Z"/>
    <path id="Path-128" data-name="Path" class="cls-9" d="M608,882.3289l-5,2.8867V844.801l5-2.8867Z"/>
    <path id="Path-129" data-name="Path" class="cls-7" d="M403,815.9335v11.547l120,69.2821v-11.547Z"/>
    <path id="Path-130" data-name="Path" class="cls-7" d="M403,769.7455v11.547l120,69.2821v-11.547Z"/>
    <path id="Path-131" data-name="Path" class="cls-9" d="M533,377.1473v-17.32l50-28.8675V348.28Z"/>
    <path id="Path-132" data-name="Path" class="cls-10" d="M498,339.62v17.32l35,20.2072v-17.32Z"/>
    <path id="Path-133" data-name="Path" class="cls-2" d="M583,330.9593l-35-20.2072L498,339.62l35,20.2072Z"/>
    <path id="Path-134" data-name="Path" class="cls-8" d="M508,339.62l40-23.094,25,14.4337-40,23.094Z"/>
    <path id="Path-135" data-name="Path" class="cls-9" d="M541,235.6965v106.81l12.5-7.2168-5-103.9231Z"/>
    <path id="Path-136" data-name="Path" class="cls-10" d="M528.5,335.29l5-103.9231,7.5,4.33v106.81Z"/>
    <path id="Path-137" data-name="Path" class="cls-2" d="M533,231.3664l7.5-4.33,7.5,4.33-7.5,4.33Z"/>
    <path id="Path-138" data-name="Path" class="cls-9" d="M541,128.8867v106.81l5-2.8867-2.5-105.3664Z"/>
    <path id="Path-139" data-name="Path" class="cls-10" d="M536,232.81l2.5-105.3664,2.5,1.4433v106.81Z"/>
    <path id="Path-140" data-name="Path" class="cls-2" d="M538,127.4434,540.5,126l2.5,1.4434-2.5,1.4433Z"/>
    <path id="Path-141" data-name="Path" class="cls-7" d="M623,830.3673v8.66l-7.5-4.33Z"/>
    <path id="Path-142" data-name="Path" class="cls-15" d="M523,804.3866v11.547l10-5.7735v-11.547Z"/>
    <path id="Path-143" data-name="Path" class="cls-15" d="M523,827.4806v11.547l10-5.7735v-11.547Z"/>
    <path id="Path-144" data-name="Path" class="cls-15" d="M523,850.5746v11.547l10-5.7735v-11.547Z"/>
    <path id="Path-145" data-name="Path" class="cls-7" d="M623,850.5746v11.547l-10-5.7735v-11.547Z"/>
    <path id="Path-146" data-name="Path" class="cls-15" d="M523,873.6686v11.547l10-5.7735v-11.547Z"/>
    <path id="Path-147" data-name="Path" class="cls-7" d="M623,873.6686v11.547l-10-5.7735v-11.547Z"/>
    <path id="Path-148" data-name="Path" class="cls-10" d="M563,862.1215v5.7736l-40-23.094v-5.7735Z"/>
    <path id="Path-149" data-name="Path" class="cls-9" d="M623,827.4806v5.7735l-60,34.641v-5.7736Z"/>
    <path id="Path-150" data-name="Path" class="cls-9" d="M563,890.9891l25-14.4338v5.7735l-25,14.4338Z"/>
    <path id="Path-151" data-name="Path" class="cls-10" d="M563,890.9891l-25-14.4338v5.7735l25,14.4338Z"/>
    <path id="Path-152" data-name="Path" class="cls-18" d="M563,931.4036v4.33l140-80.829v-4.33Z"/>
    <path id="Path-153" data-name="Path" class="cls-19" d="M563,931.4036v4.33L383,831.8107v-4.33Z"/>
    <path id="Path-154" data-name="Path" class="cls-7" d="M613,798.6131l10,5.7735v11.5469L613,810.16Z"/>
  </g>
</svg>
