<svg id="Layer_1" data-name="Layer 1" xmlns="http://www.w3.org/2000/svg" viewBox="0 0 470 331.9764">
    <defs>
        <style>
            .top-light {
            fill: #ffc8c6;
            }

            .curtain-R-prim-light {
            fill: #59acd0;
            }

            .curtain-L-prim-light {
            fill: #438fb0;
            }

            .curtain-L-prim-dark {
            fill: #2f5565;
            }

            .curtain-R-prim-dark {
            fill: #3e809c;
            }

            .curtain-L-prim-dark-light {
            fill: #426a7a;
            }

            .curtain-R-prim-dark-light {
            fill: #4d90ad;
            }

            .exterior-L-prim {
            fill: #73302e;
            }

            .top-prim {
            fill: #dd8a87;
            }

            .cls-1 {
            fill: #a2a2a2;
            }
        </style>
    </defs>
    <title>Artboard 13</title>
    <g id="root">
        <path id="Path" class="top-light" d="M195,329.09,470,170.3184,275,57.7351,0,216.5063Z"/>
        <path id="Path-2" data-name="Path" class="curtain-R-prim-light"
              d="M305,184.7521l145-83.7157v69.282L305,254.0342Z"/>
        <path id="anchor_20_248.261_430" class="top-light" d="M20,147.2242,275,0,450,101.0363,195,248.2606Z"/>
        <path id="Path-3" data-name="Path" class="curtain-L-prim-light"
              d="M20,216.5063,195,317.5427V248.2605L20,147.2244Z"/>
        <path id="Path-4" data-name="Path" class="curtain-R-prim-light"
              d="M195,248.2607l110-63.5086v69.282L195,317.5427Z"/>
        <path id="Path-5" data-name="Path" class="curtain-L-prim-dark"
              d="M195,265.5812,20,164.5449v17.32L195,282.9017Z"/>
        <path id="Path-6" data-name="Path" class="curtain-L-prim-dark"
              d="M195,300.222,20,199.1858v17.3205L195,317.5427Z"/>
        <path id="Path-7" data-name="Path" class="curtain-R-prim-dark"
              d="M195,265.5811,450,118.3568v17.32L195,282.9017Z"/>
        <path id="Path-8" data-name="Path" class="curtain-R-prim-dark"
              d="M195,300.222,450,152.9978v17.3206L195,317.5427Z"/>
        <path id="Path-9" data-name="Path" class="curtain-L-prim-dark-light"
              d="M20,164.5449l5,2.8869v17.32l-5-2.8868Z"/>
        <path id="Path-10" data-name="Path" class="curtain-R-prim-dark-light"
              d="M300,204.96l-5,2.8868v17.32l5-2.8867Z"/>
        <path id="Path-11" data-name="Path" class="curtain-L-prim-dark-light"
              d="M20,199.1859l5,2.8869v17.32l-5-2.8869Z"/>
        <path id="Path-12" data-name="Path" class="curtain-R-prim-dark-light"
              d="M300,239.6005l-5,2.8868v17.3206l5-2.8869Z"/>
        <path id="Path-13" data-name="Path" class="curtain-R-prim-dark-light"
              d="M410,141.4509l-5,2.8867v17.3206l5-2.8868Z"/>
        <path id="Path-14" data-name="Path" class="curtain-R-prim-dark-light"
              d="M410,176.092l-5,2.8868v17.32l5-2.8868Z"/>
        <path id="Path-15" data-name="Path" class="curtain-R-prim-dark-light"
              d="M440,124.13l-5,2.8869v17.3205l5-2.8868Z"/>
        <path id="Path-16" data-name="Path" class="curtain-R-prim-dark-light"
              d="M440,158.7714l-5,2.8867v17.3207l5-2.8869Z"/>
        <path id="Path-17" data-name="Path" class="curtain-R-prim-dark-light"
              d="M450,118.3568l-5,2.8869v17.32l5-2.8869Z"/>
        <path id="Path-18" data-name="Path" class="curtain-R-prim-dark-light"
              d="M450,152.9979l-5,2.8867v17.3206l5-2.8868Z"/>
        <path id="Path-19" data-name="Path" class="curtain-L-prim-dark-light"
              d="M100,210.733l5,2.8868V230.94l-5-2.8868Z"/>
        <path id="Path-20" data-name="Path" class="curtain-R-prim-dark-light"
              d="M220,251.1476l-5,2.8867v17.3206l5-2.8868Z"/>
        <path id="Path-21" data-name="Path" class="curtain-L-prim-dark-light"
              d="M100,245.374l5,2.8869v17.32l-5-2.8868Z"/>
        <path id="Path-22" data-name="Path" class="curtain-R-prim-dark-light"
              d="M330,187.639l-5,2.8868v17.3205l5-2.8868Z"/>
        <path id="Path-23" data-name="Path" class="curtain-R-prim-dark-light"
              d="M330,222.28l-5,2.8865v17.3207l5-2.8868Z"/>
        <path id="Path-24" data-name="Path" class="curtain-L-prim-dark-light"
              d="M60,187.6389l5,2.8869v17.32l-5-2.8868Z"/>
        <path id="Path-25" data-name="Path" class="curtain-R-prim-dark-light"
              d="M260,228.0535l-5,2.8868v17.3206l5-2.8869Z"/>
        <path id="Path-26" data-name="Path" class="curtain-L-prim-dark-light"
              d="M60,222.28l5,2.8868v17.3205l-5-2.8867Z"/>
        <path id="Path-27" data-name="Path" class="curtain-R-prim-dark-light"
              d="M260,262.6945l-5,2.8868v17.3206l5-2.8869Z"/>
        <path id="Path-28" data-name="Path" class="curtain-R-prim-dark-light"
              d="M370,164.5449l-5,2.8869v17.32l5-2.8868Z"/>
        <path id="Path-29" data-name="Path" class="curtain-R-prim-dark-light"
              d="M370,199.186l-5,2.8868v17.3205l5-2.8868Z"/>
        <path id="Path-30" data-name="Path" class="curtain-L-prim-dark-light"
              d="M140,233.827l5,2.8867v17.3206l-5-2.8868Z"/>
        <path id="Path-31" data-name="Path" class="curtain-L-prim-dark-light"
              d="M140,268.468l5,2.8869v17.32l-5-2.8868Z"/>
        <path id="Path-32" data-name="Path" class="curtain-L-prim-dark-light"
              d="M40,176.0919l5,2.8869v17.32l-5-2.8868Z"/>
        <path id="Path-33" data-name="Path" class="curtain-R-prim-dark-light"
              d="M280,216.5065l-5,2.8868v17.32l5-2.8867Z"/>
        <path id="Path-34" data-name="Path" class="curtain-L-prim-dark-light"
              d="M40,210.7329l5,2.8869v17.32l-5-2.8869Z"/>
        <path id="Path-35" data-name="Path" class="curtain-R-prim-dark-light"
              d="M280,251.1475l-5,2.8868v17.3206l5-2.8869Z"/>
        <path id="Path-36" data-name="Path" class="curtain-R-prim-dark-light"
              d="M390,152.9979l-5,2.8867v17.3206l5-2.8868Z"/>
        <path id="Path-37" data-name="Path" class="curtain-R-prim-dark-light"
              d="M390,187.639l-5,2.8868v17.3205l5-2.8868Z"/>
        <path id="Path-38" data-name="Path" class="curtain-R-prim-dark-light"
              d="M420,135.6772l-5,2.8869v17.3205l5-2.8868Z"/>
        <path id="Path-39" data-name="Path" class="curtain-R-prim-dark-light"
              d="M420,170.3184l-5,2.8867v17.3207l5-2.8869Z"/>
        <path id="Path-40" data-name="Path" class="curtain-L-prim-dark-light"
              d="M120,222.28l5,2.8867v17.3206l-5-2.8868Z"/>
        <path id="Path-41" data-name="Path" class="curtain-R-prim-dark-light"
              d="M200,262.6946l-5,2.8868v17.3205l5-2.8868Z"/>
        <path id="Path-42" data-name="Path" class="curtain-L-prim-dark-light"
              d="M120,256.921l5,2.8869v17.32l-5-2.8868Z"/>
        <path id="Path-43" data-name="Path" class="curtain-R-prim-dark-light"
              d="M200,297.3356l-5,2.8868v17.32l5-2.8867Z"/>
        <path id="Path-44" data-name="Path" class="curtain-R-prim-dark-light"
              d="M310,199.186l-5,2.8868v17.3205l5-2.8868Z"/>
        <path id="Path-45" data-name="Path" class="curtain-R-prim-dark-light"
              d="M310,233.8271l-5,2.8866v17.3207l5-2.8868Z"/>
        <path id="Path-46" data-name="Path" class="curtain-L-prim-dark-light"
              d="M80,199.1859l5,2.8869v17.32l-5-2.8869Z"/>
        <path id="Path-47" data-name="Path" class="curtain-R-prim-dark-light"
              d="M240,239.6005l-5,2.8868v17.3206l5-2.8869Z"/>
        <path id="Path-48" data-name="Path" class="curtain-L-prim-dark-light"
              d="M80,233.8269l5,2.8868v17.3205l-5-2.8867Z"/>
        <path id="Path-49" data-name="Path" class="curtain-R-prim-dark-light"
              d="M240,274.2415l-5,2.8868v17.3206l5-2.8869Z"/>
        <path id="Path-50" data-name="Path" class="curtain-R-prim-dark-light"
              d="M350,176.0919l-5,2.8869v17.32l5-2.8868Z"/>
        <path id="Path-51" data-name="Path" class="curtain-R-prim-dark-light"
              d="M350,210.733l-5,2.8868V230.94l5-2.8868Z"/>
        <path id="Path-52" data-name="Path" class="curtain-L-prim-dark-light"
              d="M160,245.374l5,2.8869v17.32l-5-2.8868Z"/>
        <path id="Path-53" data-name="Path" class="curtain-L-prim-dark-light"
              d="M160,280.015l5,2.8869v17.32l-5-2.8869Z"/>
        <path id="Path-54" data-name="Path" class="curtain-L-prim-dark-light"
              d="M180,256.921l5,2.8867v17.32l-5-2.8867Z"/>
        <path id="Path-55" data-name="Path" class="curtain-L-prim-dark-light"
              d="M180,291.562l5,2.8867v17.3205l-5-2.8868Z"/>
        <path id="Path-56" data-name="Path" class="curtain-L-prim-dark-light"
              d="M30,170.3184l5,2.8868v17.3206l-5-2.8869Z"/>
        <path id="Path-57" data-name="Path" class="curtain-R-prim-dark-light"
              d="M290,210.733l-5,2.8868V230.94l5-2.8868Z"/>
        <path id="Path-58" data-name="Path" class="curtain-L-prim-dark-light"
              d="M30,204.9594l5,2.8868v17.32L30,222.28Z"/>
        <path id="Path-59" data-name="Path" class="curtain-R-prim-dark-light"
              d="M290,245.374l-5,2.8869v17.32l5-2.8868Z"/>
        <path id="Path-60" data-name="Path" class="curtain-R-prim-dark-light"
              d="M400,147.2244l-5,2.8868v17.3206l5-2.8869Z"/>
        <path id="Path-61" data-name="Path" class="curtain-R-prim-dark-light"
              d="M400,181.8655l-5,2.8868v17.3205l5-2.8868Z"/>
        <path id="Path-62" data-name="Path" class="curtain-R-prim-dark-light"
              d="M430,129.9038l-5,2.8868v17.32l5-2.8869Z"/>
        <path id="Path-63" data-name="Path" class="curtain-R-prim-dark-light"
              d="M430,164.5449l-5,2.8867v17.3206l5-2.8868Z"/>
        <path id="Path-64" data-name="Path" class="curtain-L-prim-dark-light"
              d="M110,216.5065l5,2.8868v17.32l-5-2.8867Z"/>
        <path id="Path-65" data-name="Path" class="curtain-R-prim-dark-light"
              d="M210,256.9211l-5,2.8868v17.32l5-2.8868Z"/>
        <path id="Path-66" data-name="Path" class="curtain-L-prim-dark-light"
              d="M110,251.1475l5,2.8868v17.3206l-5-2.8869Z"/>
        <path id="Path-67" data-name="Path" class="curtain-R-prim-dark-light"
              d="M230,280.0149l-25,14.434v17.3205l25-14.434Z"/>
        <path id="Path-68" data-name="Path" class="curtain-L-prim-dark-light"
              d="M160,280.0149l25,14.434v17.3205l-25-14.434Z"/>
        <path id="Path-69" data-name="Path" class="curtain-L-prim-dark-light"
              d="M30,204.9594l25,14.4339v17.32L30,222.28Z"/>
        <path id="Path-70" data-name="Path" class="curtain-R-prim-dark-light"
              d="M440,158.7714l-25,14.4339v17.3205l25-14.434Z"/>
        <path id="Path-71" data-name="Path" class="curtain-R-prim-dark-light"
              d="M320,193.4125l-5,2.8868V213.62l5-2.8868Z"/>
        <path id="Path-72" data-name="Path" class="curtain-R-prim-dark-light"
              d="M320,228.0536l-5,2.8867v17.3206l5-2.8868Z"/>
        <path id="Path-73" data-name="Path" class="curtain-L-prim-dark-light"
              d="M70,193.4124l5,2.8868V213.62l-5-2.8869Z"/>
        <path id="Path-74" data-name="Path" class="curtain-R-prim-dark-light"
              d="M250,233.827l-5,2.8867v17.3206l5-2.8868Z"/>
        <path id="Path-75" data-name="Path" class="curtain-L-prim-dark-light"
              d="M70,228.0533l5,2.8869v17.3205l-5-2.8868Z"/>
        <path id="Path-76" data-name="Path" class="curtain-R-prim-dark-light"
              d="M250,268.468l-5,2.8869v17.32l5-2.8868Z"/>
        <path id="Path-77" data-name="Path" class="curtain-R-prim-dark-light"
              d="M360,170.3184l-5,2.8868v17.3206l5-2.8869Z"/>
        <path id="Path-78" data-name="Path" class="curtain-R-prim-dark-light"
              d="M360,204.96l-5,2.8868v17.32l5-2.8867Z"/>
        <path id="Path-79" data-name="Path" class="curtain-L-prim-dark-light"
              d="M150,239.6005l5,2.8868v17.3206l-5-2.8869Z"/>
        <path id="Path-80" data-name="Path" class="curtain-L-prim-dark-light"
              d="M150,274.2415l5,2.8868v17.3206l-5-2.8869Z"/>
        <path id="Path-81" data-name="Path" class="curtain-L-prim-dark-light"
              d="M50,181.8654l5,2.8868v17.3206l-5-2.8869Z"/>
        <path id="Path-82" data-name="Path" class="curtain-R-prim-dark-light"
              d="M270,222.28l-5,2.8867v17.3206l5-2.8868Z"/>
        <path id="Path-83" data-name="Path" class="curtain-L-prim-dark-light"
              d="M50,216.5063l5,2.8869v17.32l-5-2.8868Z"/>
        <path id="Path-84" data-name="Path" class="curtain-R-prim-dark-light"
              d="M270,256.921l-5,2.8869v17.32l5-2.8868Z"/>
        <path id="Path-85" data-name="Path" class="curtain-R-prim-dark-light"
              d="M380,158.7714l-5,2.8868v17.3206l5-2.8869Z"/>
        <path id="Path-86" data-name="Path" class="curtain-R-prim-dark-light"
              d="M380,193.4125l-5,2.8868V213.62l5-2.8868Z"/>
        <path id="Path-87" data-name="Path" class="curtain-L-prim-dark-light"
              d="M130,228.0535l5,2.8868v17.3206l-5-2.8869Z"/>
        <path id="Path-88" data-name="Path" class="curtain-L-prim-dark-light"
              d="M130,262.6945l5,2.8868v17.3206l-5-2.8869Z"/>
        <path id="Path-89" data-name="Path" class="curtain-L-prim-dark-light"
              d="M90,204.9594l5,2.8868v17.32L90,222.28Z"/>
        <path id="Path-90" data-name="Path" class="curtain-R-prim-dark-light"
              d="M230,245.374l-5,2.8869v17.32l5-2.8868Z"/>
        <path id="Path-91" data-name="Path" class="curtain-L-prim-dark-light"
              d="M90,239.6005l5,2.8867v17.3205l-5-2.8868Z"/>
        <path id="Path-92" data-name="Path" class="curtain-R-prim-dark-light"
              d="M340,181.8654l-5,2.8868v17.3206l5-2.8869Z"/>
        <path id="Path-93" data-name="Path" class="curtain-R-prim-dark-light"
              d="M340,216.5065l-5,2.8868v17.32l5-2.8867Z"/>
        <path id="Path-94" data-name="Path" class="curtain-L-prim-dark-light"
              d="M170,251.1475l5,2.8868v17.3206l-5-2.8869Z"/>
        <path id="Path-95" data-name="Path" class="curtain-L-prim-dark-light"
              d="M170,285.7885l5,2.8868v17.32l-5-2.8868Z"/>
        <path id="Path-96" data-name="Path" class="curtain-L-prim-dark-light"
              d="M190,262.6945l5,2.8867v17.32l-5-2.8867Z"/>
        <path id="Path-97" data-name="Path" class="curtain-L-prim-dark-light"
              d="M190,297.3354l5,2.8868v17.3205l-5-2.8867Z"/>
        <path id="Path-98" data-name="Path" class="exterior-L-prim" d="M185,308.8824l10,5.7735v2.8868l-10-5.7735Z"/>
        <path id="Path-99" data-name="Path" class="top-light" d="M205,308.8824l-10,5.7735v2.8868l10-5.7735Z"/>
        <path id="Path-100" data-name="Path" class="top-light" d="M415,187.6389l-185,106.81v2.8867l185-106.81Z"/>
        <path id="Path-101" data-name="Path" class="top-light" d="M450,167.4316l-10,5.7735v2.8869l10-5.7736Z"/>
        <path id="Path-102" data-name="Path" class="exterior-L-prim" d="M20,213.62l10,5.7736v2.887l-10-5.7736Z"/>
        <path id="Path-103" data-name="Path" class="exterior-L-prim" d="M55,233.8269l105,60.6217v2.8868L55,236.7136Z"/>
        <path id="Path-104" data-name="Path" class="top-prim" d="M195,329.09v2.8867L470,173.2051v-2.8867Z"/>
        <path id="Path-105" data-name="Path" class="cls-1" d="M0,216.5063v2.8868L195,331.9764V329.09Z"/>
    </g>
</svg>
