<svg id="Layer_1" data-name="Layer 1" xmlns="http://www.w3.org/2000/svg" viewBox="0 0 470 331.9764">
  <defs>
    <style>
      .concrete-top {
        fill: #e8e8e8;
      }

      .curtain-R-prim-light {
        fill: #59acd0;
      }

      .top-light {
        fill: #ffc8c6;
      }

      .curtain-L-prim-light {
        fill: #438fb0;
      }

      .curtain-L-prim-dark {
        fill: #2f5565;
      }

      .curtain-R-prim-dark {
        fill: #3e809c;
      }

      .curtain-L-prim-dark-light {
        fill: #426a7a;
      }

      .curtain-R-prim-dark-light {
        fill: #4d90ad;
      }

      .exterior-L-prim {
        fill: #73302e;
      }

      .concrete-right {
        fill: #d1d1d1;
      }

      .concrete-left {
        fill: #a2a2a2;
      }

      .cls-1 {
        fill: #4a4a4a;
      }

      .cls-2 {
        fill: #b5b5b5;
      }

      .cls-3 {
        fill: #6c6c6c;
      }

      .cls-4 {
        fill: #fff;
      }

      .cls-5 {
        fill: #f8c706;
      }

      .cls-6 {
        fill: #fa3312;
      }

      .cls-7 {
        fill: #01953a;
      }

      .cls-8 {
        fill: #940b03;
      }

      .cls-9 {
        fill: #8e8e8e;
      }
    </style>
  </defs>
  <title>Artboard 16</title>
  <g>
    <g>
      <path id="Path" class="concrete-top" d="M195,329.09,470,170.3184,275,57.7351,0,216.5063Z"/>
      <path id="Path-2" data-name="Path" class="curtain-R-prim-light" d="M305,184.7521l145-83.7157v69.282L305,254.0342Z"/>
      <path id="anchor_20_248.261_430" class="top-light" d="M20,147.2242,275,0,450,101.0363,195,248.2606Z"/>
      <path id="Path-3" data-name="Path" class="curtain-L-prim-light" d="M20,216.5063,195,317.5427V248.2605L20,147.2244Z"/>
      <path id="Path-4" data-name="Path" class="curtain-R-prim-light" d="M195,248.2607l110-63.5086v69.282L195,317.5427Z"/>
      <path id="Path-5" data-name="Path" class="curtain-L-prim-dark" d="M195,265.5812,20,164.5449v17.32L195,282.9017Z"/>
      <path id="Path-6" data-name="Path" class="curtain-L-prim-dark" d="M195,300.222,20,199.1858v17.3205L195,317.5427Z"/>
      <path id="Path-7" data-name="Path" class="curtain-R-prim-dark" d="M195,265.5811,450,118.3568v17.32L195,282.9017Z"/>
      <path id="Path-8" data-name="Path" class="curtain-R-prim-dark" d="M195,300.222,450,152.9978v17.3206L195,317.5427Z"/>
      <path id="Path-9" data-name="Path" class="curtain-L-prim-dark-light" d="M20,164.5449l5,2.8869v17.32l-5-2.8868Z"/>
      <path id="Path-10" data-name="Path" class="curtain-R-prim-dark-light" d="M300,204.96l-5,2.8868v17.32l5-2.8867Z"/>
      <path id="Path-11" data-name="Path" class="curtain-L-prim-dark-light" d="M20,199.1859l5,2.8869v17.32l-5-2.8869Z"/>
      <path id="Path-12" data-name="Path" class="curtain-R-prim-dark-light" d="M300,239.6005l-5,2.8868v17.3206l5-2.8869Z"/>
      <path id="Path-13" data-name="Path" class="curtain-R-prim-dark-light" d="M410,141.4509l-5,2.8867v17.3206l5-2.8868Z"/>
      <path id="Path-14" data-name="Path" class="curtain-R-prim-dark-light" d="M410,176.092l-5,2.8868v17.32l5-2.8868Z"/>
      <path id="Path-15" data-name="Path" class="curtain-R-prim-dark-light" d="M440,124.13l-5,2.8869v17.3205l5-2.8868Z"/>
      <path id="Path-16" data-name="Path" class="curtain-R-prim-dark-light" d="M440,158.7714l-5,2.8867v17.3207l5-2.8869Z"/>
      <path id="Path-17" data-name="Path" class="curtain-R-prim-dark-light" d="M450,118.3568l-5,2.8869v17.32l5-2.8869Z"/>
      <path id="Path-18" data-name="Path" class="curtain-R-prim-dark-light" d="M450,152.9979l-5,2.8867v17.3206l5-2.8868Z"/>
      <path id="Path-19" data-name="Path" class="curtain-L-prim-dark-light" d="M100,210.733l5,2.8868V230.94l-5-2.8868Z"/>
      <path id="Path-20" data-name="Path" class="curtain-R-prim-dark-light" d="M220,251.1476l-5,2.8867v17.3206l5-2.8868Z"/>
      <path id="Path-21" data-name="Path" class="curtain-L-prim-dark-light" d="M100,245.374l5,2.8869v17.32l-5-2.8868Z"/>
      <path id="Path-22" data-name="Path" class="curtain-R-prim-dark-light" d="M330,187.639l-5,2.8868v17.3205l5-2.8868Z"/>
      <path id="Path-23" data-name="Path" class="curtain-R-prim-dark-light" d="M330,222.28l-5,2.8865v17.3207l5-2.8868Z"/>
      <path id="Path-24" data-name="Path" class="curtain-L-prim-dark-light" d="M60,187.6389l5,2.8869v17.32l-5-2.8868Z"/>
      <path id="Path-25" data-name="Path" class="curtain-R-prim-dark-light" d="M260,228.0535l-5,2.8868v17.3206l5-2.8869Z"/>
      <path id="Path-26" data-name="Path" class="curtain-L-prim-dark-light" d="M60,222.28l5,2.8868v17.3205l-5-2.8867Z"/>
      <path id="Path-27" data-name="Path" class="curtain-R-prim-dark-light" d="M260,262.6945l-5,2.8868v17.3206l5-2.8869Z"/>
      <path id="Path-28" data-name="Path" class="curtain-R-prim-dark-light" d="M370,164.5449l-5,2.8869v17.32l5-2.8868Z"/>
      <path id="Path-29" data-name="Path" class="curtain-R-prim-dark-light" d="M370,199.186l-5,2.8868v17.3205l5-2.8868Z"/>
      <path id="Path-30" data-name="Path" class="curtain-L-prim-dark-light" d="M140,233.827l5,2.8867v17.3206l-5-2.8868Z"/>
      <path id="Path-31" data-name="Path" class="curtain-L-prim-dark-light" d="M140,268.468l5,2.8869v17.32l-5-2.8868Z"/>
      <path id="Path-32" data-name="Path" class="curtain-L-prim-dark-light" d="M40,176.0919l5,2.8869v17.32l-5-2.8868Z"/>
      <path id="Path-33" data-name="Path" class="curtain-R-prim-dark-light" d="M280,216.5065l-5,2.8868v17.32l5-2.8867Z"/>
      <path id="Path-34" data-name="Path" class="curtain-L-prim-dark-light" d="M40,210.7329l5,2.8869v17.32l-5-2.8869Z"/>
      <path id="Path-35" data-name="Path" class="curtain-R-prim-dark-light" d="M280,251.1475l-5,2.8868v17.3206l5-2.8869Z"/>
      <path id="Path-36" data-name="Path" class="curtain-R-prim-dark-light" d="M390,152.9979l-5,2.8867v17.3206l5-2.8868Z"/>
      <path id="Path-37" data-name="Path" class="curtain-R-prim-dark-light" d="M390,187.639l-5,2.8868v17.3205l5-2.8868Z"/>
      <path id="Path-38" data-name="Path" class="curtain-R-prim-dark-light" d="M420,135.6772l-5,2.8869v17.3205l5-2.8868Z"/>
      <path id="Path-39" data-name="Path" class="curtain-R-prim-dark-light" d="M420,170.3184l-5,2.8867v17.3207l5-2.8869Z"/>
      <path id="Path-40" data-name="Path" class="curtain-L-prim-dark-light" d="M120,222.28l5,2.8867v17.3206l-5-2.8868Z"/>
      <path id="Path-41" data-name="Path" class="curtain-R-prim-dark-light" d="M200,262.6946l-5,2.8868v17.3205l5-2.8868Z"/>
      <path id="Path-42" data-name="Path" class="curtain-L-prim-dark-light" d="M120,256.921l5,2.8869v17.32l-5-2.8868Z"/>
      <path id="Path-43" data-name="Path" class="curtain-R-prim-dark-light" d="M200,297.3356l-5,2.8868v17.32l5-2.8867Z"/>
      <path id="Path-44" data-name="Path" class="curtain-R-prim-dark-light" d="M310,199.186l-5,2.8868v17.3205l5-2.8868Z"/>
      <path id="Path-45" data-name="Path" class="curtain-R-prim-dark-light" d="M310,233.8271l-5,2.8866v17.3207l5-2.8868Z"/>
      <path id="Path-46" data-name="Path" class="curtain-L-prim-dark-light" d="M80,199.1859l5,2.8869v17.32l-5-2.8869Z"/>
      <path id="Path-47" data-name="Path" class="curtain-R-prim-dark-light" d="M240,239.6005l-5,2.8868v17.3206l5-2.8869Z"/>
      <path id="Path-48" data-name="Path" class="curtain-L-prim-dark-light" d="M80,233.8269l5,2.8868v17.3205l-5-2.8867Z"/>
      <path id="Path-49" data-name="Path" class="curtain-R-prim-dark-light" d="M240,274.2415l-5,2.8868v17.3206l5-2.8869Z"/>
      <path id="Path-50" data-name="Path" class="curtain-R-prim-dark-light" d="M350,176.0919l-5,2.8869v17.32l5-2.8868Z"/>
      <path id="Path-51" data-name="Path" class="curtain-R-prim-dark-light" d="M350,210.733l-5,2.8868V230.94l5-2.8868Z"/>
      <path id="Path-52" data-name="Path" class="curtain-L-prim-dark-light" d="M160,245.374l5,2.8869v17.32l-5-2.8868Z"/>
      <path id="Path-53" data-name="Path" class="curtain-L-prim-dark-light" d="M160,280.015l5,2.8869v17.32l-5-2.8869Z"/>
      <path id="Path-54" data-name="Path" class="curtain-L-prim-dark-light" d="M180,256.921l5,2.8867v17.32l-5-2.8867Z"/>
      <path id="Path-55" data-name="Path" class="curtain-L-prim-dark-light" d="M180,291.562l5,2.8867v17.3205l-5-2.8868Z"/>
      <path id="Path-56" data-name="Path" class="curtain-L-prim-dark-light" d="M30,170.3184l5,2.8868v17.3206l-5-2.8869Z"/>
      <path id="Path-57" data-name="Path" class="curtain-R-prim-dark-light" d="M290,210.733l-5,2.8868V230.94l5-2.8868Z"/>
      <path id="Path-58" data-name="Path" class="curtain-L-prim-dark-light" d="M30,204.9594l5,2.8868v17.32L30,222.28Z"/>
      <path id="Path-59" data-name="Path" class="curtain-R-prim-dark-light" d="M290,245.374l-5,2.8869v17.32l5-2.8868Z"/>
      <path id="Path-60" data-name="Path" class="curtain-R-prim-dark-light" d="M400,147.2244l-5,2.8868v17.3206l5-2.8869Z"/>
      <path id="Path-61" data-name="Path" class="curtain-R-prim-dark-light" d="M400,181.8655l-5,2.8868v17.3205l5-2.8868Z"/>
      <path id="Path-62" data-name="Path" class="curtain-R-prim-dark-light" d="M430,129.9038l-5,2.8868v17.32l5-2.8869Z"/>
      <path id="Path-63" data-name="Path" class="curtain-R-prim-dark-light" d="M430,164.5449l-5,2.8867v17.3206l5-2.8868Z"/>
      <path id="Path-64" data-name="Path" class="curtain-L-prim-dark-light" d="M110,216.5065l5,2.8868v17.32l-5-2.8867Z"/>
      <path id="Path-65" data-name="Path" class="curtain-R-prim-dark-light" d="M210,256.9211l-5,2.8868v17.32l5-2.8868Z"/>
      <path id="Path-66" data-name="Path" class="curtain-L-prim-dark-light" d="M110,251.1475l5,2.8868v17.3206l-5-2.8869Z"/>
      <path id="Path-67" data-name="Path" class="curtain-R-prim-dark-light" d="M230,280.0149l-25,14.434v17.3205l25-14.434Z"/>
      <path id="Path-68" data-name="Path" class="curtain-L-prim-dark-light" d="M160,280.0149l25,14.434v17.3205l-25-14.434Z"/>
      <path id="Path-69" data-name="Path" class="curtain-L-prim-dark-light" d="M30,204.9594l25,14.4339v17.32L30,222.28Z"/>
      <path id="Path-70" data-name="Path" class="curtain-R-prim-dark-light" d="M440,158.7714l-25,14.4339v17.3205l25-14.434Z"/>
      <path id="Path-71" data-name="Path" class="curtain-R-prim-dark-light" d="M320,193.4125l-5,2.8868V213.62l5-2.8868Z"/>
      <path id="Path-72" data-name="Path" class="curtain-R-prim-dark-light" d="M320,228.0536l-5,2.8867v17.3206l5-2.8868Z"/>
      <path id="Path-73" data-name="Path" class="curtain-L-prim-dark-light" d="M70,193.4124l5,2.8868V213.62l-5-2.8869Z"/>
      <path id="Path-74" data-name="Path" class="curtain-R-prim-dark-light" d="M250,233.827l-5,2.8867v17.3206l5-2.8868Z"/>
      <path id="Path-75" data-name="Path" class="curtain-L-prim-dark-light" d="M70,228.0533l5,2.8869v17.3205l-5-2.8868Z"/>
      <path id="Path-76" data-name="Path" class="curtain-R-prim-dark-light" d="M250,268.468l-5,2.8869v17.32l5-2.8868Z"/>
      <path id="Path-77" data-name="Path" class="curtain-R-prim-dark-light" d="M360,170.3184l-5,2.8868v17.3206l5-2.8869Z"/>
      <path id="Path-78" data-name="Path" class="curtain-R-prim-dark-light" d="M360,204.96l-5,2.8868v17.32l5-2.8867Z"/>
      <path id="Path-79" data-name="Path" class="curtain-L-prim-dark-light" d="M150,239.6005l5,2.8868v17.3206l-5-2.8869Z"/>
      <path id="Path-80" data-name="Path" class="curtain-L-prim-dark-light" d="M150,274.2415l5,2.8868v17.3206l-5-2.8869Z"/>
      <path id="Path-81" data-name="Path" class="curtain-L-prim-dark-light" d="M50,181.8654l5,2.8868v17.3206l-5-2.8869Z"/>
      <path id="Path-82" data-name="Path" class="curtain-R-prim-dark-light" d="M270,222.28l-5,2.8867v17.3206l5-2.8868Z"/>
      <path id="Path-83" data-name="Path" class="curtain-L-prim-dark-light" d="M50,216.5063l5,2.8869v17.32l-5-2.8868Z"/>
      <path id="Path-84" data-name="Path" class="curtain-R-prim-dark-light" d="M270,256.921l-5,2.8869v17.32l5-2.8868Z"/>
      <path id="Path-85" data-name="Path" class="curtain-R-prim-dark-light" d="M380,158.7714l-5,2.8868v17.3206l5-2.8869Z"/>
      <path id="Path-86" data-name="Path" class="curtain-R-prim-dark-light" d="M380,193.4125l-5,2.8868V213.62l5-2.8868Z"/>
      <path id="Path-87" data-name="Path" class="curtain-L-prim-dark-light" d="M130,228.0535l5,2.8868v17.3206l-5-2.8869Z"/>
      <path id="Path-88" data-name="Path" class="curtain-L-prim-dark-light" d="M130,262.6945l5,2.8868v17.3206l-5-2.8869Z"/>
      <path id="Path-89" data-name="Path" class="curtain-L-prim-dark-light" d="M90,204.9594l5,2.8868v17.32L90,222.28Z"/>
      <path id="Path-90" data-name="Path" class="curtain-R-prim-dark-light" d="M230,245.374l-5,2.8869v17.32l5-2.8868Z"/>
      <path id="Path-91" data-name="Path" class="curtain-L-prim-dark-light" d="M90,239.6005l5,2.8867v17.3205l-5-2.8868Z"/>
      <path id="Path-92" data-name="Path" class="curtain-R-prim-dark-light" d="M340,181.8654l-5,2.8868v17.3206l5-2.8869Z"/>
      <path id="Path-93" data-name="Path" class="curtain-R-prim-dark-light" d="M340,216.5065l-5,2.8868v17.32l5-2.8867Z"/>
      <path id="Path-94" data-name="Path" class="curtain-L-prim-dark-light" d="M170,251.1475l5,2.8868v17.3206l-5-2.8869Z"/>
      <path id="Path-95" data-name="Path" class="curtain-L-prim-dark-light" d="M170,285.7885l5,2.8868v17.32l-5-2.8868Z"/>
      <path id="Path-96" data-name="Path" class="curtain-L-prim-dark-light" d="M190,262.6945l5,2.8867v17.32l-5-2.8867Z"/>
      <path id="Path-97" data-name="Path" class="curtain-L-prim-dark-light" d="M190,297.3354l5,2.8868v17.3205l-5-2.8867Z"/>
      <path id="Path-98" data-name="Path" class="exterior-L-prim" d="M185,308.8824l10,5.7735v2.8868l-10-5.7735Z"/>
      <path id="Path-99" data-name="Path" class="top-light" d="M205,308.8824l-10,5.7735v2.8868l10-5.7735Z"/>
      <path id="Path-100" data-name="Path" class="top-light" d="M415,187.6389l-185,106.81v2.8867l185-106.81Z"/>
      <path id="Path-101" data-name="Path" class="top-light" d="M450,167.4316l-10,5.7735v2.8869l10-5.7736Z"/>
      <path id="Path-102" data-name="Path" class="exterior-L-prim" d="M20,213.62l10,5.7736v2.887l-10-5.7736Z"/>
      <path id="Path-103" data-name="Path" class="exterior-L-prim" d="M55,233.8269l105,60.6217v2.8868L55,236.7136Z"/>
      <path id="Path-104" data-name="Path" class="concrete-right" d="M195,329.09v2.8867L470,173.2051v-2.8867Z"/>
      <path id="Path-105" data-name="Path" class="concrete-left" d="M0,216.5063v2.8868L195,331.9764V329.09Z"/>
    </g>
    <g id="Group">
      <g id="Group-2" data-name="Group">
        <path id="Path-106" data-name="Path" class="concrete-left" d="M197.8878,267.797l1.2989.75V294.044l-1.2989-.75Z"/>
        <path id="Path-107" data-name="Path" class="cls-1" d="M199.8361,290.669l-.6494.3751-1.2989-.75v2.9993l1.2989.75.6494-.3751Z"/>
        <path id="Path-108" data-name="Path" class="cls-1" d="M199.8361,268.1721v2.25l-.6494.375-1.2989-.75v-2.25l1.2989.75Z"/>
        <path id="Path-109" data-name="Path" class="concrete-right" d="M200.4856,266.2976l-1.2989,2.25V294.044l33.7706-19.4976V249.05l-1.2989-.75Z"/>
        <path id="Path-110" data-name="Path" class="cls-2" d="M197.8878,267.7975l1.2989.75L232.9573,249.05l-1.2989-.75Z"/>
      </g>
      <g id="Group-3" data-name="Group">
        <path id="Path-111" data-name="Path" class="cls-3" d="M232.9573,270.0471l-33.7706,19.4971v4.5l33.7706-19.4976Z"/>
        <path id="Path-112" data-name="Path" class="cls-3" d="M232.9573,249.05v4.4992l-33.7706,19.4976v-4.4993Z"/>
        <path id="Path-113" data-name="Path" d="M232.9573,251.2993l-33.7706,19.4975v20.2473l33.7706-19.497Z"/>
        <g id="Group-4" data-name="Group">
          <path id="Path-114" data-name="Path" class="cls-4" d="M229.36,257.28c0-.0659-.0172-.0774-.0749-.0426l-.056.0333v.4753c.0187-.0129.0374-.0259.056-.0394a.1458.1458,0,0,0,.0749-.14Z"/>
          <path id="Path-115" data-name="Path" class="cls-4" d="M229.3563,256.8959v-.2593c0-.066-.0172-.08-.0748-.0545l-.0525.0239v.4478l.0525-.0291A.1225.1225,0,0,0,229.3563,256.8959Z"/>
          <path id="Path-116" data-name="Path" class="cls-4" d="M230.705,256.0765c-.0223.19-.0307.2245-.053.4224.0556-.0358.0624-.0431.118-.0784-.0223-.16-.0312-.1814-.053-.3492Z"/>
          <path id="Compound_Path" data-name="Compound Path" class="cls-4" d="M230.2271,255.118a2.803,2.803,0,0,0-.6563.5382,3.29,3.29,0,0,0-.51.7378l.2956-.1133c.2442-.0924.2951-.0208.2951.2146v.2016a.3547.3547,0,0,1-.1117.2686v.0171c.09-.0052.1236.0468.1236.1528v.2276a.6041.6041,0,0,1-.3034.561l-.23.1772a.8027.8027,0,0,0,.5772.0811,1.8366,1.8366,0,0,0,.7055-.3222,3.0842,3.0842,0,0,0,.66-.6452,3.1154,3.1154,0,0,0,.4509-.81,1.9139,1.9139,0,0,0,.1314-.7741.8313.8313,0,0,0-.2207-.5481.6845.6845,0,0,0-.5185-.1866,1.5,1.5,0,0,0-.6889.2214Zm-.0136,1.1336v1.0142c-.1013.0779-.202.1564-.3034.2343v-1.1129c-.067.03-.1336.06-.2005.0894v-.332l.7045-.27v.2878C230.3471,256.1919,230.2805,256.2215,230.2135,256.2516Zm.6245.52c-.0078-.0536-.0155-.065-.0234-.12l-.2072.146c-.0079.0706-.0156.0987-.0235.17l-.214.1646.2068-1.3009.2738-.1065.19.8905Z"/>
        </g>
        <path id="Compound_Path-2" data-name="Compound Path" class="cls-4" d="M203.8606,276.17l-1.4839.8573a.1441.1441,0,0,0-.0752.1185v.426c0,.0452.03.0581.0752.0322l.8874-.5129a1.7283,1.7283,0,0,1-.9175,1.3021c-.6469.3735-1.1082.1433-1.1082-.5081a2.2515,2.2515,0,0,1,1.0931-1.7546.9961.9961,0,0,1,.7923-.1563c.0349.01.0748-.0135.105-.0661l.3309-.547c.0354-.0556.0354-.09,0-.1055a1.4,1.4,0,0,0-1.2235.2,3.7166,3.7166,0,0,0-1.805,2.8373c0,1.0131.8121,1.3513,1.82.7694a3.1426,3.1426,0,0,0,1.5846-2.5645v-.2961C203.9359,276.157,203.9058,276.144,203.8606,276.17Zm2.808-2.1223-.4613.266a.1532.1532,0,0,0-.0753.119l-.0145.2389a.7329.7329,0,0,0-.7477.0707,2.4891,2.4891,0,0,0-1.1882,1.9748c0,.717.5015.9991,1.1882.6027a2.0792,2.0792,0,0,0,.7425-.78l.02.1989c.0052.0426.03.0582.0753.0322l.4613-.2665a.145.145,0,0,0,.0754-.1184v-2.3069C206.744,274.0342,206.7139,274.0212,206.6686,274.0477Zm-1.2183,2.6237c-.3662.2114-.6317.0691-.6317-.3274a1.3011,1.3011,0,0,1,.6317-1.0463c.3611-.2083.6266-.0509.6266.32A1.3461,1.3461,0,0,1,205.45,276.6714Zm3.119-3.7761a2.1574,2.1574,0,0,0-.7472.7923l-.015-.2218c-.0052-.0426-.03-.0582-.0754-.0322l-.4613.2665a.1448.1448,0,0,0-.0749.1184v3.26c0,.0452.03.0577.0749.0317l.5117-.2951a.1461.1461,0,0,0,.0753-.119v-1.1233a.75.75,0,0,0,.7119-.1,2.4887,2.4887,0,0,0,1.1886-1.9749C209.7579,272.7805,209.2561,272.4984,208.5693,272.8953Zm-.08,2.0216c-.3611.2088-.6271.041-.6271-.33a1.33,1.33,0,0,1,.6271-1.0438c.3657-.2115.6318-.0738.6318.3169A1.3118,1.3118,0,0,1,208.4892,274.9169Zm1.76-.4141a.7458.7458,0,0,0,.3611-.5747c0-.2-.1606-.2686-.3611-.1527a.749.749,0,0,0-.3658.5726C209.8831,274.5537,210.0437,274.6213,210.2489,274.5028Zm3.7417-9.1954-.3511.2025v-.6769c0-.0452-.03-.0577-.0748-.0317l-.5118.2951a.1453.1453,0,0,0-.0754.1184v.677l-.3507.2026a.1461.1461,0,0,0-.0752.119v.3912c0,.0453.03.0577.0752.0317l.3507-.2026v1.84c0,.0453.03.0577.0754.0318l.5118-.2951a.1451.1451,0,0,0,.0748-.119v-1.84l.3511-.2026a.1443.1443,0,0,0,.0754-.1185v-.3912C214.066,265.2938,214.0359,265.2814,213.9906,265.3074Zm1.87-1.1353a1.9873,1.9873,0,0,0-.7772.9051v-1.53c0-.0446-.03-.0576-.0754-.0316l-.5112.2956a.1444.1444,0,0,0-.0753.1184v3.51c0,.0451.03.0576.0753.0316l.5112-.2951a.1448.1448,0,0,0,.0754-.1184v-1.3441a1.2156,1.2156,0,0,1,.5413-.7938c.2411-.1393.4615-.1263.4615.28v1.2786c0,.0452.03.0577.0753.0317l.5117-.2951a.146.146,0,0,0,.0748-.1185v-1.3991C216.7484,264.0407,216.3625,263.8827,215.861,264.1721Zm3.6706-.8853c0-.6671-.4561-.9705-1.1685-.559a2.5469,2.5469,0,0,0-1.2386,2.0034c0,.7221.5269.985,1.2938.5418a2.74,2.74,0,0,0,.9128-.9029c.04-.0634.04-.0982.0052-.1133l-.2209-.0883c-.0352-.0146-.0654.0026-.11.0587a1.75,1.75,0,0,1-.5215.4718c-.3861.2228-.637.1823-.702-.106l1.5743-.9092C219.5067,263.597,219.5316,263.4822,219.5316,263.2868Zm-1.1633-.0005c.2957-.1709.5316-.1164.5768.2037l-1.1737.6774A1.2468,1.2468,0,0,1,218.3683,263.2863Zm-14.1467,6.6081-.6167.3559a.1989.1989,0,0,0-.09.1023l-1.048,3.2778-1.0532-2.0646c-.0144-.0265-.05-.0213-.09.0021l-.6167.3559a.1444.1444,0,0,0-.0753.1184v3.36c0,.0452.03.0577.0753.0317l.5362-.31a.1452.1452,0,0,0,.0753-.1189V273.01l.8126,1.542c.0151.0312.05.0312.09.0078l.4868-.28a.2035.2035,0,0,0,.09-.1122l.8126-2.48v1.9956c0,.0452.03.0577.0753.0317l.5362-.31a.1451.1451,0,0,0,.0753-.119v-3.3594C204.2969,269.8809,204.2669,269.8684,204.2216,269.8944Zm.9176.0567a.7519.7519,0,0,0,.3611-.5741c0-.2011-.16-.2739-.3611-.158a.7565.7565,0,0,0-.3658.5778C204.7734,269.9973,204.9339,270.07,205.1392,269.9511Zm-.33.7325V272.99c0,.0452.03.0576.0748.0317l.5117-.2951a.1444.1444,0,0,0,.0748-.1185v-2.3068c0-.0451-.03-.0576-.0748-.0316l-.5117.2951A.1441.1441,0,0,0,204.8088,270.6836Zm2.5571-1.6064a1.9786,1.9786,0,0,0-.7772.905v-.0052l-.02-.3091c-.0047-.0426-.03-.0582-.0753-.0322l-.491.2836a.1462.1462,0,0,0-.0754.119v2.3063c0,.0452.03.0582.0754.0322l.5113-.2956a.1447.1447,0,0,0,.0753-.1185v-1.3441a1.2155,1.2155,0,0,1,.5414-.7938c.24-.1387.4613-.1257.4613.28v1.2785c0,.0452.03.0582.0754.0322l.5111-.2956a.1442.1442,0,0,0,.0754-.1184v-1.3992C208.2533,268.9457,207.8673,268.7873,207.3659,269.0772Zm3.7506-3.3142-.5112.2956a.1446.1446,0,0,0-.0753.1184v1.394a.7524.7524,0,0,0-.7124.09,2.4887,2.4887,0,0,0-1.1881,1.9748c0,.7169.5013.9991,1.1881.6027a2.0782,2.0782,0,0,0,.7426-.78l.02.199c.0052.0426.03.0582.0754.0322l.4613-.2665a.1449.1449,0,0,0,.0753-.1185v-3.51C211.1918,265.75,211.1618,265.737,211.1165,265.763Zm-1.2183,3.8274c-.3662.2116-.6318.0692-.6318-.3273a1.3018,1.3018,0,0,1,.6318-1.0463c.3611-.2083.6266-.0509.6266.32A1.3458,1.3458,0,0,1,209.8982,269.59Z"/>
        <g id="Group-5" data-name="Group">
          <path id="Path-117" data-name="Path" class="cls-5" d="M200.4856,287.8146h0a2.4821,2.4821,0,0,1,1.1216-1.9431h0c.6194-.3574,1.1224-.067,1.1224.6479h0a2.4811,2.4811,0,0,1-1.1224,1.9431h0C200.9885,288.82,200.4856,288.53,200.4856,287.8146Z"/>
          <path id="Path-118" data-name="Path" class="cls-6" d="M200.4856,284.5762h0a2.4826,2.4826,0,0,1,1.1216-1.9431h0c.6194-.3574,1.1224-.0669,1.1224.648h0a2.4814,2.4814,0,0,1-1.1224,1.9431h0C200.9885,285.5816,200.4856,285.2912,200.4856,284.5762Z"/>
          <path id="Path-119" data-name="Path" class="cls-7" d="M203.29,286.1957h0a2.4821,2.4821,0,0,1,1.1216-1.9431h0c.6194-.3574,1.1223-.0675,1.1223.6473h0a2.481,2.481,0,0,1-1.1223,1.9431h0C203.793,287.2005,203.29,286.9106,203.29,286.1957Z"/>
          <path id="Path-120" data-name="Path" class="cls-6" d="M203.29,282.9568h0a2.4824,2.4824,0,0,1,1.1216-1.9431h0c.6194-.3574,1.1223-.067,1.1223.6479h0a2.481,2.481,0,0,1-1.1223,1.9431h0C203.793,283.9622,203.29,283.6722,203.29,282.9568Z"/>
          <path id="Path-121" data-name="Path" class="cls-7" d="M206.0946,284.5762h0a2.4814,2.4814,0,0,1,1.1223-1.9431h0c.6187-.3574,1.1216-.0669,1.1216.648h0a2.4824,2.4824,0,0,1-1.1216,1.9431h0C206.5975,285.5816,206.0946,285.2912,206.0946,284.5762Z"/>
          <path id="Path-122" data-name="Path" class="cls-8" d="M206.0946,281.338h0a2.481,2.481,0,0,1,1.1223-1.9431h0c.6187-.3575,1.1216-.0676,1.1216.6478h0a2.4812,2.4812,0,0,1-1.1216,1.9426h0C206.5975,282.3427,206.0946,282.0528,206.0946,281.338Z"/>
          <path id="Path-123" data-name="Path" class="cls-5" d="M208.8992,279.7185h0a2.4813,2.4813,0,0,1,1.1221-1.9431h0c.6188-.3574,1.1217-.067,1.1217.6479h0a2.4819,2.4819,0,0,1-1.1217,1.9431h0C209.4021,280.7238,208.8992,280.4334,208.8992,279.7185Z"/>
        </g>
      </g>
    </g>
    <g id="Group-6" data-name="Group">
      <g id="Group-7" data-name="Group">
        <path id="Path-124" data-name="Path" class="concrete-right" d="M158.4653,248.3l-1.2989.75v25.4967L190.937,294.044l1.2988-.75V267.7975Z"/>
        <path id="Path-125" data-name="Path" class="cls-1" d="M190.937,289.5447l-33.7706-19.4976v4.4993L190.937,294.044Z"/>
        <path id="Path-126" data-name="Path" class="cls-9" d="M190.937,291.0441l1.2988-.75v2.9993l-1.2988.75Z"/>
        <path id="Path-127" data-name="Path" class="cls-1" d="M190.937,268.5472v4.4993L157.1664,253.55v-4.5Z"/>
        <path id="Path-128" data-name="Path" class="cls-2" d="M158.4653,248.3l-1.2989.75,33.7706,19.4975,1.2988-.75Z"/>
        <path id="Path-129" data-name="Path" d="M190.937,270.7968l-33.7706-19.4975v20.2478l33.7706,19.497Z"/>
        <path id="Path-130" data-name="Path" class="cls-9" d="M190.937,270.7968l1.2988-.75v-2.25l-1.2988.75Z"/>
        <g id="Group-8" data-name="Group">
          <path id="Path-131" data-name="Path" class="cls-4" d="M187.34,272.6241a.1233.1233,0,0,0-.0749-.1293l-.056-.0312v.4754l.056.0254c.0578.0255.0749.0115.0749-.0546Z"/>
          <path id="Path-132" data-name="Path" class="cls-4" d="M187.336,272.2355v-.2593a.1468.1468,0,0,0-.0748-.1408l-.0525-.0368v.4478c.0176.01.0354.0208.0525.0317C187.3188,272.3129,187.336,272.3014,187.336,272.2355Z"/>
          <path id="Path-133" data-name="Path" class="cls-4" d="M188.6847,272.9733c-.0223.1641-.0307.1891-.053.3615.0556.0281.0624.0286.118.0572-.0223-.185-.0312-.2172-.053-.41Z"/>
          <path id="Compound_Path-3" data-name="Compound Path" class="cls-4" d="M188.2068,271.463a1.5309,1.5309,0,0,0-.6563-.22.7087.7087,0,0,0-.51.1491l.2956.2277a.5979.5979,0,0,1,.2951.5558v.2016c0,.0961-.0234.1481-.1117.1393v.0171a.4135.4135,0,0,1,.1236.2962v.227c0,.2348-.0509.306-.3034.211l-.23-.0884a3.3137,3.3137,0,0,0,.5773.7476,2.5114,2.5114,0,0,0,.7055.4931,1.1965,1.1965,0,0,0,.66.1163.6313.6313,0,0,0,.4509-.2883,1.0313,1.0313,0,0,0,.1314-.6229,2.2745,2.2745,0,0,0-.2207-.8032,3.2914,3.2914,0,0,0-.5185-.7851,2.833,2.833,0,0,0-.6889-.574Zm-.0136,1.118v1.0142c-.1013-.0385-.202-.0775-.3034-.1165v-1.1128c-.0669-.0468-.1335-.0941-.2005-.1413v-.332l.7045.5424v.2878C188.3268,272.6756,188.26,272.6283,188.1932,272.581Zm.6245,1.2407c-.0078-.0629-.0155-.0832-.0234-.1471l-.2072-.0935c-.0079.0613-.0156.0805-.0235.1429l-.214-.0821.2068-1.062.2738.21.19,1.11Z"/>
        </g>
        <path id="Compound_Path-4" data-name="Compound Path" class="cls-4" d="M161.84,262.07l-1.4839-.8572c-.0452-.026-.0752-.013-.0752.0322v.426a.1442.1442,0,0,0,.0752.1185l.8874.5128c-.02.4145-.3461.572-.9175.2421a2.2458,2.2458,0,0,1-1.1082-1.7878c0-.6369.4811-.8453,1.0931-.4925a2.48,2.48,0,0,1,.7923.7585c.0349.05.0748.0733.105.0556l.3309-.1647c.0354-.0151.0354-.05,0-.1054a3.6728,3.6728,0,0,0-1.2235-1.2127c-1.0027-.5792-1.8049-.2452-1.8049.7529a3.7582,3.7582,0,0,0,1.82,2.871c.998.5762,1.5847.1725,1.5847-.7346v-.2962A.1446.1446,0,0,0,161.84,262.07Zm2.8081,1.12-.4614-.2665c-.0451-.026-.07-.01-.0753.0322l-.0145.2218a2.1579,2.1579,0,0,0-.7477-.7923c-.6867-.397-1.1881-.1149-1.1881.6026a2.49,2.49,0,0,0,1.1881,1.9748.7154.7154,0,0,0,.7425.0775l.02.2218a.1532.1532,0,0,0,.0753.119l.4614.266c.0452.026.0753.0135.0753-.0317v-2.3068A.145.145,0,0,0,164.6484,263.19ZM163.43,264.407a1.3118,1.3118,0,0,1-.6316-1.0568c0-.3912.2654-.5289.6316-.3174a1.3286,1.3286,0,0,1,.6266,1.0437C164.0566,264.4475,163.7912,264.6153,163.43,264.407Zm3.119-.1751a.7319.7319,0,0,0-.7471-.0707l-.0151-.239a.1539.1539,0,0,0-.0754-.1189l-.4613-.266c-.0448-.026-.0748-.0135-.0748.0316v3.2592a.1456.1456,0,0,0,.0748.1189l.5117.2951c.0453.026.0753.0136.0753-.0317v-1.1232a2.0634,2.0634,0,0,0,.7119.7222c.6868.3963,1.1886.1142,1.1886-.6027A2.4893,2.4893,0,0,0,166.549,264.2319Zm-.08,1.929a1.3464,1.3464,0,0,1-.6271-1.0536c0-.3709.266-.5283.6271-.32a1.303,1.303,0,0,1,.6318,1.0468C167.1007,266.23,166.8346,266.3724,166.4689,266.1609Zm1.76,1.6179c.2005.1159.3611.0483.3611-.1574a.7454.7454,0,0,0-.3611-.57c-.2052-.1189-.3658-.0508-.3658.15A.7476.7476,0,0,0,168.2286,267.7788Zm3.7417-4.8749-.3511-.2026v-.677a.1436.1436,0,0,0-.0748-.1184l-.5118-.2951c-.0452-.0265-.0754-.0135-.0754.0316v.6771l-.3507-.2027c-.0451-.0265-.0752-.0135-.0752.0317v.3912a.1453.1453,0,0,0,.0752.1185l.3507.2026v1.84a.1446.1446,0,0,0,.0754.1185l.5118.2956c.0452.026.0748.0135.0748-.0317v-1.84l.3511.2026c.0453.026.0754.013.0754-.0322v-.3907A.1452.1452,0,0,0,171.97,262.9039Zm1.87,1.0251c-.356-.2058-.6168-.1606-.7773.0072v-1.5295a.1452.1452,0,0,0-.0754-.1185l-.5112-.2951c-.0451-.026-.0753-.0135-.0753.0318v3.51a.1447.1447,0,0,0,.0753.1185l.5112.2956c.0453.0259.0754.013.0754-.0322v-1.3436c0-.1153.17-.3829.5413-.1688a.9108.9108,0,0,1,.4615.8131v1.2786a.1441.1441,0,0,0,.0753.1184l.5117.2956c.0447.026.0748.013.0748-.0322v-1.3986A1.8358,1.8358,0,0,0,173.8408,263.929Zm3.6705,3.3526a2.3852,2.3852,0,0,0-1.1685-1.9083c-.7117-.411-1.2386-.1486-1.2386.5736a2.5757,2.5757,0,0,0,1.2938,2.0356,1.0507,1.0507,0,0,0,.9128.1512c.04-.0172.04-.0525.0052-.1076l-.2209-.3429c-.0352-.0556-.0654-.0727-.11-.0691a.7888.7888,0,0,1-.5216-.13,1.3656,1.3656,0,0,1-.702-.917l1.5743.9092C177.4865,267.5627,177.5113,267.477,177.5113,267.2816Zm-1.1633-1.3435a1.1924,1.1924,0,0,1,.5768.8692l-1.1737-.6775C175.8062,265.816,176.0473,265.764,176.348,265.9381Zm-14.1467-9.727-.6167-.3564c-.04-.0229-.0753-.0281-.09-.0015l-1.048,2.0672-1.0532-3.28a.1914.1914,0,0,0-.09-.1023l-.6167-.356c-.0451-.0265-.0753-.0135-.0753.0318v3.3593a.1462.1462,0,0,0,.0753.119l.5362.31c.0451.0259.0753.013.0753-.0317v-1.9961l.8126,2.48a.2.2,0,0,0,.09.1122l.4868.2811c.04.0229.0748.0234.09-.0083l.8126-1.5416v1.9956a.1446.1446,0,0,0,.0753.1185l.5362.31c.0453.0261.0754.013.0754-.0316v-3.36A.1444.1444,0,0,0,162.2013,256.2111Zm.9176,1.1165c.201.1159.3611.0426.3611-.158a.7508.7508,0,0,0-.3611-.574c-.2052-.119-.3658-.0463-.3658.1543A.7575.7575,0,0,0,163.1189,257.3276Zm-.33.35v2.3068a.1434.1434,0,0,0,.0748.1184l.5117.2957c.0453.0259.0748.013.0748-.0322V258.06a.1452.1452,0,0,0-.0748-.119l-.5117-.2951C162.818,257.62,162.7885,257.6326,162.7885,257.6778Zm2.5571,1.3462c-.3564-.2053-.6167-.1606-.7772.0078v-.0052l-.02-.3326a.1514.1514,0,0,0-.0753-.1184l-.491-.2837c-.0452-.026-.0753-.0135-.0753.0317V260.63a.1449.1449,0,0,0,.0753.1184l.5113.2951c.0452.026.0753.0135.0753-.0317v-1.344c0-.1154.17-.3829.5414-.1683a.9113.9113,0,0,1,.4613.8125v1.2792a.1453.1453,0,0,0,.0754.1184l.5112.2951c.0452.026.0753.0135.0753-.0317v-1.3991A1.8365,1.8365,0,0,0,165.3456,259.024Zm3.7506,1.0172-.5112-.2951c-.0451-.026-.0753-.0135-.0753.0317v1.3939a2.1094,2.1094,0,0,0-.7124-.732c-.6868-.3964-1.1881-.1143-1.1881.6027a2.4892,2.4892,0,0,0,1.1881,1.9747.7145.7145,0,0,0,.7426.0775l.02.2223a.153.153,0,0,0,.0754.1185l.4613.2665c.0453.026.0754.013.0754-.0321v-3.51A.145.145,0,0,0,169.0962,260.0412Zm-1.2183,2.4206a1.312,1.312,0,0,1-.6318-1.0568c0-.3912.2656-.5284.6318-.3174a1.33,1.33,0,0,1,.6266,1.0437C168.5045,262.5028,168.239,262.67,167.8779,262.4618Z"/>
        <g id="Group-9" data-name="Group">
          <path id="Path-134" data-name="Path" class="cls-5" d="M158.4653,269.817h0c0-.7149.5029-1.0048,1.1217-.6474h0a2.4815,2.4815,0,0,1,1.1223,1.9431h0c0,.7149-.503,1.0048-1.1223.6474h0A2.4813,2.4813,0,0,1,158.4653,269.817Z"/>
          <path id="Path-135" data-name="Path" class="cls-6" d="M158.4653,266.5787h0c0-.715.5029-1.0054,1.1217-.6474h0a2.48,2.48,0,0,1,1.1223,1.9426h0c0,.7154-.503,1.0053-1.1223.6479h0A2.4819,2.4819,0,0,1,158.4653,266.5787Z"/>
          <path id="Path-136" data-name="Path" class="cls-7" d="M161.27,271.4364h0c0-.7148.5029-1.0053,1.1216-.6479h0a2.4811,2.4811,0,0,1,1.1223,1.9431h0c0,.715-.5029,1.0054-1.1223.6479h0A2.4821,2.4821,0,0,1,161.27,271.4364Z"/>
          <path id="Path-137" data-name="Path" class="cls-6" d="M161.27,268.1981h0c0-.7149.5029-1.0054,1.1216-.6479h0a2.4811,2.4811,0,0,1,1.1223,1.9431h0c0,.7149-.5029,1.0053-1.1223.6479h0A2.4821,2.4821,0,0,1,161.27,268.1981Z"/>
          <path id="Path-138" data-name="Path" class="cls-7" d="M164.0743,273.0558h0c0-.7148.5029-1.0052,1.1223-.6478h0a2.4821,2.4821,0,0,1,1.1216,1.9431h0c0,.7149-.5029,1.0053-1.1216.6478h0A2.481,2.481,0,0,1,164.0743,273.0558Z"/>
          <path id="Path-139" data-name="Path" class="cls-8" d="M164.0743,269.817h0c0-.7149.5029-1.0048,1.1223-.6474h0a2.4824,2.4824,0,0,1,1.1216,1.9431h0c0,.7149-.5029,1.0048-1.1216.6474h0A2.48,2.48,0,0,1,164.0743,269.817Z"/>
          <path id="Path-140" data-name="Path" class="cls-5" d="M166.8789,271.4364h0c0-.7148.5029-1.0053,1.1222-.6479h0a2.4823,2.4823,0,0,1,1.1216,1.9431h0c0,.715-.5029,1.0054-1.1216.6479h0A2.4811,2.4811,0,0,1,166.8789,271.4364Z"/>
        </g>
      </g>
    </g>
  </g>
</svg>
