<svg id="Layer_1" data-name="Layer 1" xmlns="http://www.w3.org/2000/svg" viewBox="0 0 280 461.88">
  <defs>
    <style>
      .curtain-R-prim-light-dark {
        fill: #3999c1;
      }

      .curtain-R-prim-light {
        fill: #59acd0;
      }

      .curtain-R-prim-dark-light {
        fill: #4d90ad;
      }

      .curtain-L-prim-dark {
        fill: #2f5565;
      }

      .curtain-L-prim-light {
        fill: #438fb0;
      }

      .curtain-R-prim-dark {
        fill: #3e809c;
      }

      .top-dark {
        fill: #c67471;
      }
    </style>
  </defs>
  <title>Artboard 1</title>
  <g id="root">
    <path id="Path" class="curtain-R-prim-light-dark" d="M265,366.618l15,2.886L135,285.789l-15-2.887Z"/>
    <path id="Path-2" data-name="Path" class="curtain-R-prim-light-dark" d="M280,375.278v-5.774L120,277.128,0,346.41v5.774L160,444.56Z"/>
    <path id="Path-3" data-name="Path" class="curtain-R-prim-light" d="M280,375.278l-25,14.434v-5.774l10-17.32,15,2.886Z"/>
    <path id="Path-4" data-name="Path" class="curtain-R-prim-dark-light" d="M255,383.938l10-17.32L120,282.902l-10,17.32Z"/>
    <path id="Path-5" data-name="Path" class="curtain-L-prim-dark" d="M0,69.282l160,92.376,20-11.547V450.333L160,461.88,0,369.504Z"/>
    <path id="Path-6" data-name="Path" class="curtain-L-prim-light" d="M0,346.41v23.094L160,461.88l15-8.66V430.126l-15,8.66Z"/>
    <path id="Path-7" data-name="Path" class="curtain-R-prim-dark" d="M160,161.658,280,92.376v46.188l-5,2.887v46.188l-5,2.887v46.188l-5,2.887v46.188l-5,2.886v46.188l-5,2.887v69.282L160,461.88Z"/>
    <path id="anchor_0_161.658_280" class="top-dark" d="M280,103.923V92.376L120,0,0,69.282V80.829l160,92.376Z"/>
    <path id="Path-8" data-name="Path" class="curtain-L-prim-light" d="M160,161.658l10-5.773v23.094l-10,5.773L0,92.376V69.282Z"/>
    <path id="Path-9" data-name="Path" class="curtain-L-prim-light" d="M160,254.034l15-8.66v23.094l-15,8.66L0,184.752V161.658Z"/>
    <path id="Path-10" data-name="Path" class="curtain-L-prim-light" d="M160,392.598l15-8.66v23.094l-15,8.66L0,323.316V300.222Z"/>
    <path id="Path-11" data-name="Path" class="curtain-L-prim-light" d="M160,207.846l10-5.773v23.094l-10,5.773L0,138.564V115.47Z"/>
    <path id="Path-12" data-name="Path" class="curtain-L-prim-light" d="M160,346.41l10-5.773v23.094l-10,5.773L0,277.128V254.034Z"/>
    <path id="Path-13" data-name="Path" class="curtain-L-prim-light" d="M160,300.222l15-8.66v23.094l-15,8.66L0,230.94V207.846Z"/>
    <path id="Path-14" data-name="Path" class="curtain-R-prim-light" d="M160,300.222v23.094l105-60.621V239.601Z"/>
    <path id="Path-15" data-name="Path" class="curtain-R-prim-light" d="M160,207.846V230.94l115-66.395V141.451Z"/>
    <path id="Path-16" data-name="Path" class="curtain-R-prim-light" d="M160,346.41v23.094l100-57.735V288.675Z"/>
    <path id="Path-17" data-name="Path" class="curtain-R-prim-light" d="M160,254.034v23.094L270,213.62V190.526Z"/>
    <path id="Path-18" data-name="Path" class="curtain-R-prim-light" d="M160,392.598v23.094l95-54.848V337.75Z"/>
    <path id="Path-19" data-name="Path" class="curtain-R-prim-light" d="M280,369.504v23.094L160,461.88V438.786Z"/>
    <path id="Path-20" data-name="Path" class="curtain-R-prim-light" d="M160,161.658v23.094L280,115.47V92.376Z"/>
  </g>
</svg>
