<svg id="Layer_1" data-name="Layer 1" xmlns="http://www.w3.org/2000/svg" viewBox="0 0 230 375.285">
  <defs>
    <style>
      .top-prim {
        fill: #dd8a87;
      }

      .curtain-L-prim-dark {
        fill: #2f5565;
      }

      .curtain-R-prim-dark {
        fill: #3e809c;
      }

      .exterior-L-prim {
        fill: #73302e;
      }

      .curtain-R-prim-light {
        fill: #59acd0;
      }

      .curtain-L-prim-light {
        fill: #438fb0;
      }

      .exterior-R-prim {
        fill: #d05752;
      }

      .curtain-R-prim-light-dark {
        fill: #3999c1;
      }

      .curtain-L-prim-light-dark {
        fill: #467e97;
      }

      .exterior-L-dark {
        fill: #512220;
      }

      .exterior-R-dark {
        fill: #a64c49;
      }
    </style>
  </defs>
  <title>Artboard 10</title>
  <g id="root">
    <path id="anchor_0_132.795_230" class="top-prim" d="M0,51.966l160,92.376,70-40.414V92.376L70,0,0,40.415Z"/>
    <path class="curtain-L-prim-dark" d="M165,129.911V372.402l-5,2.883L0,282.909V40.421l160,92.376Z"/>
    <path class="curtain-R-prim-dark" d="M230,334.87V92.383l-70,40.414V375.285Z"/>
    <path class="exterior-L-prim" d="M0,236.721l160,92.376v34.641L0,271.362Z"/>
    <path class="curtain-R-prim-light" d="M160,144.344l70-40.414V92.383l-70,40.414Z"/>
    <path class="curtain-R-prim-light" d="M160,236.721l70-40.415V184.759l-70,40.415Z"/>
    <path class="curtain-R-prim-light" d="M160,329.097l70-40.415V277.135L160,317.55Z"/>
    <path class="curtain-R-prim-light" d="M160,190.533l70-40.415V138.571l-70,40.415Z"/>
    <path class="curtain-R-prim-light" d="M160,282.909l70-40.415V230.947l-70,40.415Z"/>
    <path class="curtain-R-prim-dark" d="M160,375.285l70-40.415V323.323l-70,40.415Z"/>
    <path class="curtain-R-prim-light" d="M160,167.439l70-40.415V115.477l-70,40.414Z"/>
    <path class="curtain-R-prim-light" d="M160,259.815,230,219.4V207.853l-70,40.415Z"/>
    <path class="curtain-R-prim-light" d="M160,213.627l70-40.415V161.665L160,202.08Z"/>
    <path class="curtain-R-prim-light" d="M160,306.003l70-40.415V254.041l-70,40.415Z"/>
    <path class="curtain-L-prim-light" d="M160,144.344,0,51.968V40.421l160,92.376Z"/>
    <path class="curtain-L-prim-light" d="M160,236.721,0,144.344V132.797l160,92.377Z"/>
    <path class="curtain-L-prim-light" d="M160,329.097,0,236.721V225.174L160,317.55Z"/>
    <path class="curtain-L-prim-light" d="M160,190.533,0,98.156V86.609l160,92.377Z"/>
    <path class="curtain-L-prim-light" d="M160,282.909,0,190.533V178.986l160,92.376Z"/>
    <path class="curtain-L-prim-dark" d="M160,375.285,0,282.909V271.362l160,92.376Z"/>
    <path class="curtain-L-prim-light" d="M160,167.439,0,75.062V63.515l160,92.376Z"/>
    <path class="curtain-L-prim-light" d="M160,259.815,0,167.438V155.891l160,92.377Z"/>
    <path class="curtain-L-prim-light" d="M160,213.627,0,121.25V109.703L160,202.08Z"/>
    <path class="curtain-L-prim-light" d="M160,306.003,0,213.627V202.08l160,92.376Z"/>
    <path class="exterior-R-prim" d="M160,363.738l70-40.415V288.682l-70,40.415Z"/>
    <path class="curtain-R-prim-light-dark" d="M165,141.462V129.915l-5,2.887v11.547Z"/>
    <path class="curtain-R-prim-light-dark" d="M185,129.915V118.368l-5,2.887v11.547Z"/>
    <path class="curtain-R-prim-light-dark" d="M205,118.368V106.821l-5,2.887v11.547Z"/>
    <path class="curtain-R-prim-light-dark" d="M224.9871,106.817l.021-11.547-5.0052,2.878-.021,11.547Z"/>
    <path class="curtain-R-prim-light-dark" d="M175,135.689V124.142l-5,2.886v11.547Z"/>
    <path class="curtain-R-prim-light-dark" d="M195,124.142V112.595l-5,2.886v11.547Z"/>
    <path class="curtain-R-prim-light-dark" d="M215,112.595V101.048l-5,2.886v11.547Z"/>
    <path class="curtain-R-prim-light-dark" d="M165,187.65V176.103l-5,2.887v11.547Z"/>
    <path class="curtain-R-prim-light-dark" d="M185,176.103V164.556l-5,2.887V178.99Z"/>
    <path class="curtain-R-prim-light-dark" d="M205,164.556V153.009l-5,2.887v11.547Z"/>
    <path class="curtain-R-prim-light-dark" d="M224.9871,153.005l.021-11.547-5.0052,2.878-.021,11.547Z"/>
    <path class="curtain-R-prim-light-dark" d="M175,181.877V170.33l-5,2.886v11.547Z"/>
    <path class="curtain-R-prim-light-dark" d="M195,170.33V158.783l-5,2.886v11.547Z"/>
    <path class="curtain-R-prim-light-dark" d="M215,158.783V147.236l-5,2.886v11.547Z"/>
    <path class="curtain-R-prim-light-dark" d="M165,233.838V222.291l-5,2.887v11.547Z"/>
    <path class="curtain-R-prim-light-dark" d="M185,222.291V210.744l-5,2.887v11.547Z"/>
    <path class="curtain-R-prim-light-dark" d="M205,210.744V199.197l-5,2.887v11.547Z"/>
    <path class="curtain-R-prim-light-dark" d="M224.9871,199.193l.021-11.547-5.0052,2.878-.021,11.547Z"/>
    <path class="curtain-R-prim-light-dark" d="M175,228.065V216.518l-5,2.886v11.547Z"/>
    <path class="curtain-R-prim-light-dark" d="M195,216.518V204.971l-5,2.886v11.547Z"/>
    <path class="curtain-R-prim-light-dark" d="M215,204.971V193.424l-5,2.886v11.547Z"/>
    <path class="curtain-R-prim-light-dark" d="M165,280.026V268.479l-5,2.887v11.547Z"/>
    <path class="curtain-R-prim-light-dark" d="M185,268.479V256.932l-5,2.887v11.547Z"/>
    <path class="curtain-R-prim-light-dark" d="M205,256.932V245.385l-5,2.887v11.547Z"/>
    <path class="curtain-R-prim-light-dark" d="M224.9871,245.381l.021-11.547-5.0052,2.878-.021,11.547Z"/>
    <path class="curtain-R-prim-light-dark" d="M175,274.253V262.706l-5,2.886v11.547Z"/>
    <path class="curtain-R-prim-light-dark" d="M195,262.706V251.159l-5,2.886v11.547Z"/>
    <path class="curtain-R-prim-light-dark" d="M215,251.159V239.612l-5,2.886v11.547Z"/>
    <path class="curtain-R-prim-light-dark" d="M165,326.214V314.667l-5,2.887v11.547Z"/>
    <path class="curtain-R-prim-light-dark" d="M185,314.667V303.12l-5,2.887v11.547Z"/>
    <path class="curtain-R-prim-light-dark" d="M205,303.12V291.573l-5,2.887v11.547Z"/>
    <path class="curtain-R-prim-light-dark" d="M224.9871,291.569l.021-11.547-5.0052,2.878-.021,11.547Z"/>
    <path class="curtain-R-prim-light-dark" d="M175,320.441V308.894l-5,2.886v11.547Z"/>
    <path class="curtain-R-prim-light-dark" d="M195,308.894V297.347l-5,2.886V311.78Z"/>
    <path class="curtain-R-prim-light-dark" d="M215,297.347V285.8l-5,2.886v11.547Z"/>
    <path class="curtain-R-prim-light-dark" d="M165,164.552V153.005l-5,2.886v11.548Z"/>
    <path class="curtain-R-prim-light-dark" d="M185,153.005V141.458l-5,2.886v11.548Z"/>
    <path class="curtain-R-prim-light-dark" d="M205,141.458V129.911l-5,2.886v11.547Z"/>
    <path class="curtain-R-prim-light-dark" d="M224.9871,129.906l.021-11.547-5.0052,2.878-.021,11.547Z"/>
    <path class="curtain-R-prim-light-dark" d="M175,158.778V147.231l-5,2.887v11.547Z"/>
    <path class="curtain-R-prim-light-dark" d="M195,147.231V135.684l-5,2.887v11.547Z"/>
    <path class="curtain-R-prim-light-dark" d="M215,135.684V124.137l-5,2.887v11.547Z"/>
    <path class="curtain-R-prim-light-dark" d="M165,210.74V199.193l-5,2.887v11.547Z"/>
    <path class="curtain-R-prim-light-dark" d="M185,199.193V187.646l-5,2.887V202.08Z"/>
    <path class="curtain-R-prim-light-dark" d="M205,187.646V176.099l-5,2.886v11.548Z"/>
    <path class="curtain-R-prim-light-dark" d="M224.9871,176.094l.021-11.547-5.0052,2.878-.021,11.547Z"/>
    <path class="curtain-R-prim-light-dark" d="M175,204.966V193.419l-5,2.887v11.547Z"/>
    <path class="curtain-R-prim-light-dark" d="M195,193.419V181.872l-5,2.887v11.547Z"/>
    <path class="curtain-R-prim-light-dark" d="M215,181.872V170.325l-5,2.887v11.547Z"/>
    <path class="curtain-R-prim-light-dark" d="M165,256.928V245.381l-5,2.887v11.547Z"/>
    <path class="curtain-R-prim-light-dark" d="M185,245.381V233.834l-5,2.887v11.547Z"/>
    <path class="curtain-R-prim-light-dark" d="M205,233.834V222.287l-5,2.887v11.547Z"/>
    <path class="curtain-R-prim-light-dark" d="M224.9871,222.282l.021-11.547-5.0052,2.878-.021,11.547Z"/>
    <path class="curtain-R-prim-light-dark" d="M175,251.154V239.607l-5,2.887v11.547Z"/>
    <path class="curtain-R-prim-light-dark" d="M195,239.607V228.06l-5,2.887v11.547Z"/>
    <path class="curtain-R-prim-light-dark" d="M215,228.06V216.513l-5,2.887v11.547Z"/>
    <path class="curtain-R-prim-light-dark" d="M165,303.116V291.569l-5,2.887v11.547Z"/>
    <path class="curtain-R-prim-light-dark" d="M185,291.569V280.022l-5,2.887v11.547Z"/>
    <path class="curtain-R-prim-light-dark" d="M205,280.022V268.475l-5,2.887v11.547Z"/>
    <path class="curtain-R-prim-light-dark" d="M224.9871,268.47l.021-11.547-5.0052,2.878-.021,11.547Z"/>
    <path class="curtain-R-prim-light-dark" d="M175,297.342V285.795l-5,2.887v11.547Z"/>
    <path class="curtain-R-prim-light-dark" d="M195,285.795V274.248l-5,2.887v11.547Z"/>
    <path class="curtain-R-prim-light-dark" d="M215,274.248V262.701l-5,2.887v11.547Z"/>
    <path class="curtain-L-prim-light-dark" d="M155,141.462V129.915l5,2.887v11.547Z"/>
    <path class="curtain-L-prim-light-dark" d="M135,129.915V118.368l5,2.887v11.547Z"/>
    <path class="curtain-L-prim-light-dark" d="M115,118.368V106.821l5,2.887v11.547Z"/>
    <path class="curtain-L-prim-light-dark" d="M95.0129,106.817l-.021-11.547,5.0052,2.878.021,11.547Z"/>
    <path class="curtain-L-prim-light-dark" d="M145,135.689V124.142l5,2.886v11.547Z"/>
    <path class="curtain-L-prim-light-dark" d="M125,124.142V112.595l5,2.886v11.547Z"/>
    <path class="curtain-L-prim-light-dark" d="M105,112.595V101.048l5,2.886v11.547Z"/>
    <path class="curtain-L-prim-light-dark" d="M85,101.048V89.501l5,2.886v11.547Z"/>
    <path class="curtain-L-prim-light-dark" d="M65,89.501V77.954l5,2.886V92.387Z"/>
    <path class="curtain-L-prim-light-dark" d="M45,77.954V66.407l5,2.886V80.84Z"/>
    <path class="curtain-L-prim-light-dark" d="M25.0129,66.402l-.021-11.547,5.0052,2.878.021,11.547Z"/>
    <path class="curtain-L-prim-light-dark" d="M75,95.274V83.727l5,2.887V98.161Z"/>
    <path class="curtain-L-prim-light-dark" d="M55,83.727V72.18l5,2.887V86.614Z"/>
    <path class="curtain-L-prim-light-dark" d="M35,72.18V60.633l5,2.887V75.067Z"/>
    <path class="curtain-L-prim-light-dark" d="M15,60.633V49.086l5,2.887V63.52Z"/>
    <path class="curtain-L-prim-light-dark" d="M5,54.86V43.313l5,2.886V57.746Z"/>
    <path class="curtain-L-prim-light-dark" d="M155,187.646V176.099l5,2.887v11.547Z"/>
    <path class="curtain-L-prim-light-dark" d="M135,176.099V164.552l5,2.887v11.547Z"/>
    <path class="curtain-L-prim-light-dark" d="M115,164.552V153.005l5,2.886v11.548Z"/>
    <path class="curtain-L-prim-light-dark" d="M95.0129,153l-.021-11.547,5.0052,2.878.021,11.547Z"/>
    <path class="curtain-L-prim-light-dark" d="M145,181.872V170.325l5,2.887v11.547Z"/>
    <path class="curtain-L-prim-light-dark" d="M125,170.325V158.778l5,2.887v11.547Z"/>
    <path class="curtain-L-prim-light-dark" d="M105,158.778V147.231l5,2.887v11.547Z"/>
    <path class="curtain-L-prim-light-dark" d="M85,147.231V135.684l5,2.887v11.547Z"/>
    <path class="curtain-L-prim-light-dark" d="M65,135.684V124.137l5,2.887v11.547Z"/>
    <path class="curtain-L-prim-light-dark" d="M45,124.137V112.59l5,2.887v11.547Z"/>
    <path class="curtain-L-prim-light-dark" d="M25.0129,112.586l-.021-11.547,5.0052,2.878.021,11.547Z"/>
    <path class="curtain-L-prim-light-dark" d="M75,141.458V129.911l5,2.886v11.547Z"/>
    <path class="curtain-L-prim-light-dark" d="M55,129.911V118.364l5,2.886v11.547Z"/>
    <path class="curtain-L-prim-light-dark" d="M35,118.364V106.817l5,2.886V121.25Z"/>
    <path class="curtain-L-prim-light-dark" d="M15,106.817V95.27l5,2.886v11.547Z"/>
    <path class="curtain-L-prim-light-dark" d="M5,101.043V89.496l5,2.887V103.93Z"/>
    <path class="curtain-L-prim-light-dark" d="M155,233.834V222.287l5,2.887v11.547Z"/>
    <path class="curtain-L-prim-light-dark" d="M135,222.287V210.74l5,2.887v11.547Z"/>
    <path class="curtain-L-prim-light-dark" d="M115,210.74V199.193l5,2.887v11.547Z"/>
    <path class="curtain-L-prim-light-dark" d="M95.0129,199.188l-.021-11.547,5.0052,2.878.021,11.547Z"/>
    <path class="curtain-L-prim-light-dark" d="M145,228.06V216.513l5,2.887v11.547Z"/>
    <path class="curtain-L-prim-light-dark" d="M125,216.513V204.966l5,2.887V219.4Z"/>
    <path class="curtain-L-prim-light-dark" d="M105,204.966V193.419l5,2.887v11.547Z"/>
    <path class="curtain-L-prim-light-dark" d="M85,193.419V181.872l5,2.887v11.547Z"/>
    <path class="curtain-L-prim-light-dark" d="M65,181.872V170.325l5,2.887v11.547Z"/>
    <path class="curtain-L-prim-light-dark" d="M45,170.325V158.778l5,2.887v11.547Z"/>
    <path class="curtain-L-prim-light-dark" d="M25.0129,158.774l-.021-11.547,5.0052,2.878.021,11.547Z"/>
    <path class="curtain-L-prim-light-dark" d="M75,187.646V176.099l5,2.887v11.547Z"/>
    <path class="curtain-L-prim-light-dark" d="M55,176.099V164.552l5,2.887v11.547Z"/>
    <path class="curtain-L-prim-light-dark" d="M35,164.552V153.005l5,2.886v11.548Z"/>
    <path class="curtain-L-prim-light-dark" d="M15,153.005V141.458l5,2.886v11.548Z"/>
    <path class="curtain-L-prim-light-dark" d="M5,147.231V135.684l5,2.887v11.547Z"/>
    <path class="curtain-L-prim-light-dark" d="M155,280.022V268.475l5,2.887v11.547Z"/>
    <path class="curtain-L-prim-light-dark" d="M135,268.475V256.928l5,2.887v11.547Z"/>
    <path class="curtain-L-prim-light-dark" d="M115,256.928V245.381l5,2.887v11.547Z"/>
    <path class="curtain-L-prim-light-dark" d="M95.0129,245.376l-.021-11.547,5.0052,2.878.021,11.547Z"/>
    <path class="curtain-L-prim-light-dark" d="M145,274.248V262.701l5,2.887v11.547Z"/>
    <path class="curtain-L-prim-light-dark" d="M125,262.701V251.154l5,2.887v11.547Z"/>
    <path class="curtain-L-prim-light-dark" d="M105,251.154V239.607l5,2.887v11.547Z"/>
    <path class="curtain-L-prim-light-dark" d="M85,239.607V228.06l5,2.887v11.547Z"/>
    <path class="curtain-L-prim-light-dark" d="M65,228.06V216.513l5,2.887v11.547Z"/>
    <path class="curtain-L-prim-light-dark" d="M45,216.513V204.966l5,2.887V219.4Z"/>
    <path class="curtain-L-prim-light-dark" d="M25.0129,204.962l-.021-11.547,5.0052,2.878.021,11.547Z"/>
    <path class="curtain-L-prim-light-dark" d="M75,233.834V222.287l5,2.887v11.547Z"/>
    <path class="curtain-L-prim-light-dark" d="M55,222.287V210.74l5,2.887v11.547Z"/>
    <path class="curtain-L-prim-light-dark" d="M35,210.74V199.193l5,2.887v11.547Z"/>
    <path class="curtain-L-prim-light-dark" d="M15,199.193V187.646l5,2.887V202.08Z"/>
    <path class="curtain-L-prim-light-dark" d="M5,193.419V181.872l5,2.887v11.547Z"/>
    <path class="curtain-L-prim-light-dark" d="M155,326.21V314.663l5,2.887v11.547Z"/>
    <path class="curtain-L-prim-light-dark" d="M135,314.663V303.116l5,2.887V317.55Z"/>
    <path class="curtain-L-prim-light-dark" d="M115,303.116V291.569l5,2.887v11.547Z"/>
    <path class="curtain-L-prim-light-dark" d="M95.0129,291.564l-.021-11.547,5.0052,2.878.021,11.547Z"/>
    <path class="curtain-L-prim-light-dark" d="M145,320.436V308.889l5,2.887v11.547Z"/>
    <path class="curtain-L-prim-light-dark" d="M125,308.889V297.342l5,2.887v11.547Z"/>
    <path class="curtain-L-prim-light-dark" d="M105,297.342V285.795l5,2.887v11.547Z"/>
    <path class="curtain-L-prim-light-dark" d="M85,285.795V274.248l5,2.887v11.547Z"/>
    <path class="curtain-L-prim-light-dark" d="M65,274.248V262.701l5,2.887v11.547Z"/>
    <path class="curtain-L-prim-light-dark" d="M45,262.701V251.154l5,2.887v11.547Z"/>
    <path class="curtain-L-prim-light-dark" d="M25.0129,251.15l-.021-11.547,5.0052,2.878.021,11.547Z"/>
    <path class="curtain-L-prim-light-dark" d="M75,280.022V268.475l5,2.887v11.547Z"/>
    <path class="curtain-L-prim-light-dark" d="M55,268.475V256.928l5,2.887v11.547Z"/>
    <path class="curtain-L-prim-light-dark" d="M35,256.928V245.381l5,2.887v11.547Z"/>
    <path class="curtain-L-prim-light-dark" d="M15,245.381V233.834l5,2.887v11.547Z"/>
    <path class="curtain-L-prim-light-dark" d="M5,239.607V228.06l5,2.887v11.547Z"/>
    <path class="curtain-L-prim-light-dark" d="M155,164.552V153.005l5,2.886v11.548Z"/>
    <path class="curtain-L-prim-light-dark" d="M135,153.005V141.458l5,2.886v11.548Z"/>
    <path class="curtain-L-prim-light-dark" d="M115,141.458V129.911l5,2.886v11.547Z"/>
    <path class="curtain-L-prim-light-dark" d="M95.0129,129.906l-.021-11.547,5.0052,2.878.021,11.547Z"/>
    <path class="curtain-L-prim-light-dark" d="M145,158.778V147.231l5,2.887v11.547Z"/>
    <path class="curtain-L-prim-light-dark" d="M125,147.231V135.684l5,2.887v11.547Z"/>
    <path class="curtain-L-prim-light-dark" d="M105,135.684V124.137l5,2.887v11.547Z"/>
    <path class="curtain-L-prim-light-dark" d="M85,124.137V112.59l5,2.887v11.547Z"/>
    <path class="curtain-L-prim-light-dark" d="M65,112.59V101.043l5,2.887v11.547Z"/>
    <path class="curtain-L-prim-light-dark" d="M45,101.043V89.496l5,2.887V103.93Z"/>
    <path class="curtain-L-prim-light-dark" d="M25.0129,89.492l-.021-11.547,5.0052,2.878.021,11.547Z"/>
    <path class="curtain-L-prim-light-dark" d="M75,118.364V106.817l5,2.886V121.25Z"/>
    <path class="curtain-L-prim-light-dark" d="M55,106.817V95.27l5,2.886v11.547Z"/>
    <path class="curtain-L-prim-light-dark" d="M35,95.27V83.723l5,2.886V98.156Z"/>
    <path class="curtain-L-prim-light-dark" d="M15,83.723V72.176l5,2.886V86.609Z"/>
    <path class="curtain-L-prim-light-dark" d="M5,77.949V66.402l5,2.887V80.836Z"/>
    <path class="curtain-L-prim-light-dark" d="M155,210.735V199.188l5,2.887v11.547Z"/>
    <path class="curtain-L-prim-light-dark" d="M135,199.188V187.641l5,2.887v11.547Z"/>
    <path class="curtain-L-prim-light-dark" d="M115,187.641V176.094l5,2.887v11.547Z"/>
    <path class="curtain-L-prim-light-dark" d="M95.0129,176.09l-.021-11.547,5.0052,2.878.021,11.547Z"/>
    <path class="curtain-L-prim-light-dark" d="M145,204.962V193.415l5,2.887v11.547Z"/>
    <path class="curtain-L-prim-light-dark" d="M125,193.415V181.868l5,2.887v11.547Z"/>
    <path class="curtain-L-prim-light-dark" d="M105,181.868V170.321l5,2.887v11.547Z"/>
    <path class="curtain-L-prim-light-dark" d="M85,170.321V158.774l5,2.887v11.547Z"/>
    <path class="curtain-L-prim-light-dark" d="M65,158.774V147.227l5,2.887v11.547Z"/>
    <path class="curtain-L-prim-light-dark" d="M45,147.227V135.68l5,2.887v11.547Z"/>
    <path class="curtain-L-prim-light-dark" d="M25.0129,135.675l-.021-11.547,5.0052,2.878.021,11.547Z"/>
    <path class="curtain-L-prim-light-dark" d="M75,164.547V153l5,2.887v11.547Z"/>
    <path class="curtain-L-prim-light-dark" d="M55,153V141.453l5,2.887v11.547Z"/>
    <path class="curtain-L-prim-light-dark" d="M35,141.453V129.906l5,2.887V144.34Z"/>
    <path class="curtain-L-prim-light-dark" d="M15,129.906V118.359l5,2.887v11.547Z"/>
    <path class="curtain-L-prim-light-dark" d="M5,124.133V112.586l5,2.887V127.02Z"/>
    <path class="curtain-L-prim-light-dark" d="M155,256.923V245.376l5,2.887V259.81Z"/>
    <path class="curtain-L-prim-light-dark" d="M135,245.376V233.829l5,2.887v11.547Z"/>
    <path class="curtain-L-prim-light-dark" d="M115,233.829V222.282l5,2.887v11.547Z"/>
    <path class="curtain-L-prim-light-dark" d="M95.0129,222.278l-.021-11.547,5.0052,2.878.021,11.547Z"/>
    <path class="curtain-L-prim-light-dark" d="M145,251.15V239.603l5,2.887v11.547Z"/>
    <path class="curtain-L-prim-light-dark" d="M125,239.603V228.056l5,2.887V242.49Z"/>
    <path class="curtain-L-prim-light-dark" d="M105,228.056V216.509l5,2.887v11.547Z"/>
    <path class="curtain-L-prim-light-dark" d="M85,216.509V204.962l5,2.887v11.547Z"/>
    <path class="curtain-L-prim-light-dark" d="M65,204.962V193.415l5,2.887v11.547Z"/>
    <path class="curtain-L-prim-light-dark" d="M45,193.415V181.868l5,2.887v11.547Z"/>
    <path class="curtain-L-prim-light-dark" d="M25.0129,181.863l-.021-11.546,5.0052,2.877.021,11.547Z"/>
    <path class="curtain-L-prim-light-dark" d="M75,210.735V199.188l5,2.887v11.547Z"/>
    <path class="curtain-L-prim-light-dark" d="M55,199.188V187.641l5,2.887v11.547Z"/>
    <path class="curtain-L-prim-light-dark" d="M35,187.641V176.094l5,2.887v11.547Z"/>
    <path class="curtain-L-prim-light-dark" d="M15,176.094V164.547l5,2.887v11.547Z"/>
    <path class="curtain-L-prim-light-dark" d="M5,170.321V158.774l5,2.887v11.547Z"/>
    <path class="curtain-L-prim-light-dark" d="M155,303.111V291.564l5,2.887v11.547Z"/>
    <path class="curtain-L-prim-light-dark" d="M135,291.564V280.017l5,2.887v11.547Z"/>
    <path class="curtain-L-prim-light-dark" d="M115,280.017V268.47l5,2.887v11.547Z"/>
    <path class="curtain-L-prim-light-dark" d="M95.0129,268.466l-.021-11.547,5.0052,2.878.021,11.547Z"/>
    <path class="curtain-L-prim-light-dark" d="M145,297.338V285.791l5,2.887v11.547Z"/>
    <path class="curtain-L-prim-light-dark" d="M125,285.791V274.244l5,2.887v11.547Z"/>
    <path class="curtain-L-prim-light-dark" d="M105,274.244V262.697l5,2.887v11.547Z"/>
    <path class="curtain-L-prim-light-dark" d="M85,262.697V251.15l5,2.887v11.547Z"/>
    <path class="curtain-L-prim-light-dark" d="M65,251.15V239.603l5,2.887v11.547Z"/>
    <path class="curtain-L-prim-light-dark" d="M45,239.603V228.056l5,2.887V242.49Z"/>
    <path class="curtain-L-prim-light-dark" d="M25.0129,228.052l-.021-11.547,5.0052,2.877.021,11.547Z"/>
    <path class="curtain-L-prim-light-dark" d="M75,256.923V245.376l5,2.887V259.81Z"/>
    <path class="curtain-L-prim-light-dark" d="M55,245.376V233.829l5,2.887v11.547Z"/>
    <path class="curtain-L-prim-light-dark" d="M35,233.829V222.282l5,2.887v11.547Z"/>
    <path class="curtain-L-prim-light-dark" d="M15,222.282V210.735l5,2.887v11.547Z"/>
    <path class="curtain-L-prim-light-dark" d="M5,216.509V204.962l5,2.887v11.547Z"/>
    <path class="exterior-L-dark" d="M10,271.366l-5-2.887V245.385l5,2.887Z"/>
    <path class="exterior-L-dark" d="M50,294.46l-5-2.887V268.479l5,2.887Z"/>
    <path class="exterior-L-dark" d="M90,317.554l-5-2.887V291.573l5,2.887Z"/>
    <path class="exterior-L-dark" d="M130,340.648l-5-2.887V314.667l5,2.887Z"/>
    <path class="exterior-L-dark" d="M30,282.913l-5-2.887V256.932l5,2.887Z"/>
    <path class="exterior-L-dark" d="M70,306.007l-5-2.887V280.026l5,2.887Z"/>
    <path class="exterior-L-dark" d="M110,329.101l-5-2.887V303.12l5,2.887Z"/>
    <path class="exterior-L-dark" d="M150,352.195l-5-2.887V326.214l5,2.887Z"/>
    <path class="exterior-L-dark" d="M20,277.139l-5-2.886V251.159l5,2.886Z"/>
    <path class="exterior-R-dark" d="M170,352.195l5-2.887V326.214l-5,2.887Z"/>
    <path class="exterior-R-dark" d="M190,340.648l5-2.887V314.667l-5,2.887Z"/>
    <path class="exterior-R-dark" d="M210,329.101l5-2.887V303.12l-5,2.887Z"/>
    <path class="exterior-L-dark" d="M60,300.233l-5-2.886V274.253l5,2.886Z"/>
    <path class="exterior-L-dark" d="M100,323.327l-5-2.886V297.347l5,2.886Z"/>
    <path class="exterior-L-dark" d="M140,346.421l-5-2.886V320.441l5,2.886Z"/>
    <path class="exterior-L-dark" d="M40,288.686,35,285.8V262.706l5,2.886Z"/>
    <path class="exterior-L-dark" d="M80,311.78l-5-2.886V285.8l5,2.886Z"/>
    <path class="exterior-L-dark" d="M120,334.874l-5-2.886V308.894l5,2.886Z"/>
    <path class="exterior-L-dark" d="M160,357.968l-5-2.886V331.988l5,2.886Z"/>
    <path class="exterior-R-dark" d="M160,357.968l5-2.886V331.988l-5,2.886Z"/>
    <path class="exterior-R-dark" d="M180,346.421l5-2.886V320.441l-5,2.886Z"/>
    <path class="exterior-R-dark" d="M200,334.874l5-2.886V308.894l-5,2.886Z"/>
    <path class="exterior-R-dark" d="M220,323.327l5-2.886V297.347l-5,2.886Z"/>
  </g>
</svg>
