<svg id="Layer_1" data-name="Layer 1" xmlns="http://www.w3.org/2000/svg" viewBox="0 0 230 398.374">
  <defs>
    <style>
      .top-prim {
        fill: #dd8a87;
      }

      .curtain-L-prim-dark {
        fill: #2f5565;
      }

      .curtain-R-prim-dark {
        fill: #3e809c;
      }

      .exterior-L-prim {
        fill: #73302e;
      }

      .curtain-R-prim-light {
        fill: #59acd0;
      }

      .curtain-L-prim-light {
        fill: #438fb0;
      }

      .exterior-R-prim {
        fill: #d05752;
      }

      .curtain-R-prim-light-dark {
        fill: #3999c1;
      }

      .curtain-L-prim-light-dark {
        fill: #467e97;
      }

      .exterior-L-dark {
        fill: #512220;
      }

      .exterior-R-dark {
        fill: #a64c49;
      }
    </style>
  </defs>
  <title>Artboard 9</title>
  <g id="root">
    <path id="anchor_0_132.795_230" class="top-prim" d="M0,51.966l160,92.376,70-40.415V92.376L70,0,0,40.414Z"/>
    <path class="curtain-L-prim-dark" d="M165,129.906V395.491l-5,2.883L0,305.998V40.416l160,92.376Z"/>
    <path class="curtain-R-prim-dark" d="M230,357.959V92.378l-70,40.414V398.374Z"/>
    <path class="exterior-L-prim" d="M0,259.81l160,92.376v34.641L0,294.451Z"/>
    <path class="curtain-R-prim-light" d="M160,167.433l70-40.414V115.472l-70,40.414Z"/>
    <path class="curtain-R-prim-light" d="M160,259.81l70-40.415V207.848l-70,40.415Z"/>
    <path class="curtain-R-prim-light" d="M160,352.186l70-40.415V300.224l-70,40.415Z"/>
    <path class="curtain-R-prim-light" d="M160,213.622l70-40.415V161.66l-70,40.415Z"/>
    <path class="curtain-R-prim-light" d="M160,305.998l70-40.415V254.036l-70,40.415Z"/>
    <path class="curtain-R-prim-dark" d="M160,398.374l70-40.415V346.412l-70,40.415Z"/>
    <path class="curtain-R-prim-light" d="M160,190.528l70-40.415V138.566L160,178.98Z"/>
    <path class="curtain-R-prim-light" d="M160,282.904l70-40.415V230.942l-70,40.415Z"/>
    <path class="curtain-R-prim-light" d="M160,144.339l70-40.414V92.378l-70,40.414Z"/>
    <path class="curtain-R-prim-light" d="M160,236.716l70-40.415V184.754l-70,40.415Z"/>
    <path class="curtain-R-prim-light" d="M160,329.092l70-40.415V277.13l-70,40.415Z"/>
    <path class="curtain-L-prim-light" d="M160,167.433,0,75.057V63.51l160,92.376Z"/>
    <path class="curtain-L-prim-light" d="M160,259.81,0,167.433V155.886l160,92.377Z"/>
    <path class="curtain-L-prim-light" d="M160,352.186,0,259.81V248.263l160,92.376Z"/>
    <path class="curtain-L-prim-light" d="M160,213.622,0,121.245V109.698l160,92.377Z"/>
    <path class="curtain-L-prim-light" d="M160,305.998,0,213.622V202.075l160,92.376Z"/>
    <path class="curtain-L-prim-dark" d="M160,398.374,0,305.998V294.451l160,92.376Z"/>
    <path class="curtain-L-prim-light" d="M160,190.528,0,98.151V86.604L160,178.98Z"/>
    <path class="curtain-L-prim-light" d="M160,282.904,0,190.527V178.98l160,92.377Z"/>
    <path class="curtain-L-prim-light" d="M160,144.339,0,51.963V40.416l160,92.376Z"/>
    <path class="curtain-L-prim-light" d="M160,236.716,0,144.339V132.792l160,92.377Z"/>
    <path class="curtain-L-prim-light" d="M160,329.092,0,236.716V225.169l160,92.376Z"/>
    <path class="exterior-R-prim" d="M160,386.827l70-40.415V311.771l-70,40.415Z"/>
    <path class="curtain-R-prim-light-dark" d="M165,164.551V153.004l-5,2.887v11.547Z"/>
    <path class="curtain-R-prim-light-dark" d="M185,153.004V141.457l-5,2.887v11.547Z"/>
    <path class="curtain-R-prim-light-dark" d="M205,141.457V129.91l-5,2.887v11.547Z"/>
    <path class="curtain-R-prim-light-dark" d="M224.9871,129.906l.021-11.547-5.0052,2.878-.021,11.547Z"/>
    <path class="curtain-R-prim-light-dark" d="M175,158.778V147.231l-5,2.886v11.547Z"/>
    <path class="curtain-R-prim-light-dark" d="M195,147.231V135.684l-5,2.886v11.547Z"/>
    <path class="curtain-R-prim-light-dark" d="M215,135.684V124.137l-5,2.886V138.57Z"/>
    <path class="curtain-R-prim-light-dark" d="M165,210.739V199.192l-5,2.887v11.547Z"/>
    <path class="curtain-R-prim-light-dark" d="M185,199.192V187.645l-5,2.887v11.547Z"/>
    <path class="curtain-R-prim-light-dark" d="M205,187.645V176.098l-5,2.887v11.547Z"/>
    <path class="curtain-R-prim-light-dark" d="M224.9871,176.094l.021-11.547-5.0052,2.878-.021,11.547Z"/>
    <path class="curtain-R-prim-light-dark" d="M175,204.966V193.419l-5,2.886v11.547Z"/>
    <path class="curtain-R-prim-light-dark" d="M195,193.419V181.872l-5,2.886v11.547Z"/>
    <path class="curtain-R-prim-light-dark" d="M215,181.872V170.325l-5,2.886v11.547Z"/>
    <path class="curtain-R-prim-light-dark" d="M165,256.927V245.38l-5,2.887v11.547Z"/>
    <path class="curtain-R-prim-light-dark" d="M185,245.38V233.833l-5,2.887v11.547Z"/>
    <path class="curtain-R-prim-light-dark" d="M205,233.833V222.286l-5,2.887V236.72Z"/>
    <path class="curtain-R-prim-light-dark" d="M224.9871,222.282l.021-11.547-5.0052,2.878-.021,11.547Z"/>
    <path class="curtain-R-prim-light-dark" d="M175,251.154V239.607l-5,2.886V254.04Z"/>
    <path class="curtain-R-prim-light-dark" d="M195,239.607V228.06l-5,2.886v11.547Z"/>
    <path class="curtain-R-prim-light-dark" d="M215,228.06V216.513l-5,2.886v11.547Z"/>
    <path class="curtain-R-prim-light-dark" d="M165,303.115V291.568l-5,2.887v11.547Z"/>
    <path class="curtain-R-prim-light-dark" d="M185,291.568V280.021l-5,2.887v11.547Z"/>
    <path class="curtain-R-prim-light-dark" d="M205,280.021V268.474l-5,2.887v11.547Z"/>
    <path class="curtain-R-prim-light-dark" d="M224.9871,268.47l.021-11.547-5.0052,2.878-.021,11.547Z"/>
    <path class="curtain-R-prim-light-dark" d="M175,297.342V285.795l-5,2.886v11.547Z"/>
    <path class="curtain-R-prim-light-dark" d="M195,285.795V274.248l-5,2.886v11.547Z"/>
    <path class="curtain-R-prim-light-dark" d="M215,274.248V262.701l-5,2.886v11.547Z"/>
    <path class="curtain-R-prim-light-dark" d="M165,349.303V337.756l-5,2.887V352.19Z"/>
    <path class="curtain-R-prim-light-dark" d="M185,337.756V326.209l-5,2.887v11.547Z"/>
    <path class="curtain-R-prim-light-dark" d="M205,326.209V314.662l-5,2.887v11.547Z"/>
    <path class="curtain-R-prim-light-dark" d="M224.9871,314.658l.021-11.547-5.0052,2.878-.021,11.547Z"/>
    <path class="curtain-R-prim-light-dark" d="M175,343.53V331.983l-5,2.886v11.547Z"/>
    <path class="curtain-R-prim-light-dark" d="M195,331.983V320.436l-5,2.886v11.547Z"/>
    <path class="curtain-R-prim-light-dark" d="M215,320.436V308.889l-5,2.886v11.547Z"/>
    <path class="curtain-R-prim-light-dark" d="M165,141.453V129.906l-5,2.886v11.547Z"/>
    <path class="curtain-R-prim-light-dark" d="M185,129.906V118.359l-5,2.886v11.547Z"/>
    <path class="curtain-R-prim-light-dark" d="M205,118.359V106.812l-5,2.886v11.547Z"/>
    <path class="curtain-R-prim-light-dark" d="M224.9871,106.807l.021-11.547-5.0052,2.878-.021,11.547Z"/>
    <path class="curtain-R-prim-light-dark" d="M175,135.679V124.132l-5,2.887v11.547Z"/>
    <path class="curtain-R-prim-light-dark" d="M195,124.132V112.585l-5,2.887v11.547Z"/>
    <path class="curtain-R-prim-light-dark" d="M215,112.585V101.038l-5,2.887v11.547Z"/>
    <path class="curtain-R-prim-light-dark" d="M165,187.641V176.094l-5,2.886v11.548Z"/>
    <path class="curtain-R-prim-light-dark" d="M185,176.094V164.547l-5,2.886v11.548Z"/>
    <path class="curtain-R-prim-light-dark" d="M205,164.547V153l-5,2.886v11.547Z"/>
    <path class="curtain-R-prim-light-dark" d="M224.9871,152.995l.021-11.547-5.0052,2.878-.021,11.547Z"/>
    <path class="curtain-R-prim-light-dark" d="M175,181.867V170.32l-5,2.887v11.547Z"/>
    <path class="curtain-R-prim-light-dark" d="M195,170.32V158.773l-5,2.887v11.547Z"/>
    <path class="curtain-R-prim-light-dark" d="M215,158.773V147.226l-5,2.887V161.66Z"/>
    <path class="curtain-R-prim-light-dark" d="M165,233.829V222.282l-5,2.887v11.547Z"/>
    <path class="curtain-R-prim-light-dark" d="M185,222.282V210.735l-5,2.887v11.547Z"/>
    <path class="curtain-R-prim-light-dark" d="M205,210.735V199.188l-5,2.886v11.548Z"/>
    <path class="curtain-R-prim-light-dark" d="M224.9871,199.183l.021-11.547-5.0052,2.878-.021,11.547Z"/>
    <path class="curtain-R-prim-light-dark" d="M175,228.055V216.508l-5,2.887v11.547Z"/>
    <path class="curtain-R-prim-light-dark" d="M195,216.508V204.961l-5,2.887v11.547Z"/>
    <path class="curtain-R-prim-light-dark" d="M215,204.961V193.414l-5,2.887v11.547Z"/>
    <path class="curtain-R-prim-light-dark" d="M165,280.017V268.47l-5,2.887v11.547Z"/>
    <path class="curtain-R-prim-light-dark" d="M185,268.47V256.923l-5,2.887v11.547Z"/>
    <path class="curtain-R-prim-light-dark" d="M205,256.923V245.376l-5,2.887V259.81Z"/>
    <path class="curtain-R-prim-light-dark" d="M224.9871,245.371l.021-11.547-5.0052,2.878-.021,11.547Z"/>
    <path class="curtain-R-prim-light-dark" d="M175,274.243V262.696l-5,2.887V277.13Z"/>
    <path class="curtain-R-prim-light-dark" d="M195,262.696V251.149l-5,2.887v11.547Z"/>
    <path class="curtain-R-prim-light-dark" d="M215,251.149V239.602l-5,2.887v11.547Z"/>
    <path class="curtain-R-prim-light-dark" d="M165,326.205V314.658l-5,2.887v11.547Z"/>
    <path class="curtain-R-prim-light-dark" d="M185,314.658V303.111l-5,2.887v11.547Z"/>
    <path class="curtain-R-prim-light-dark" d="M205,303.111V291.564l-5,2.887v11.547Z"/>
    <path class="curtain-R-prim-light-dark" d="M224.9871,291.559l.021-11.547-5.0052,2.878-.021,11.547Z"/>
    <path class="curtain-R-prim-light-dark" d="M175,320.431V308.884l-5,2.887v11.547Z"/>
    <path class="curtain-R-prim-light-dark" d="M195,308.884V297.337l-5,2.887v11.547Z"/>
    <path class="curtain-R-prim-light-dark" d="M215,297.337V285.79l-5,2.887v11.547Z"/>
    <path class="curtain-L-prim-light-dark" d="M155,164.551V153.004l5,2.887v11.547Z"/>
    <path class="curtain-L-prim-light-dark" d="M135,153.004V141.457l5,2.887v11.547Z"/>
    <path class="curtain-L-prim-light-dark" d="M115,141.457V129.91l5,2.887v11.547Z"/>
    <path class="curtain-L-prim-light-dark" d="M95.0129,129.906l-.021-11.547,5.0052,2.878.021,11.547Z"/>
    <path class="curtain-L-prim-light-dark" d="M145,158.778V147.231l5,2.886v11.547Z"/>
    <path class="curtain-L-prim-light-dark" d="M125,147.231V135.684l5,2.886v11.547Z"/>
    <path class="curtain-L-prim-light-dark" d="M105,135.684V124.137l5,2.886V138.57Z"/>
    <path class="curtain-L-prim-light-dark" d="M85,124.137V112.59l5,2.886v11.547Z"/>
    <path class="curtain-L-prim-light-dark" d="M65,112.59V101.043l5,2.886v11.547Z"/>
    <path class="curtain-L-prim-light-dark" d="M45,101.043V89.496l5,2.886v11.547Z"/>
    <path class="curtain-L-prim-light-dark" d="M25.0129,89.491l-.021-11.547,5.0052,2.878.021,11.547Z"/>
    <path class="curtain-L-prim-light-dark" d="M75,118.363V106.816l5,2.887V121.25Z"/>
    <path class="curtain-L-prim-light-dark" d="M55,106.816V95.269l5,2.887v11.547Z"/>
    <path class="curtain-L-prim-light-dark" d="M35,95.269V83.722l5,2.887V98.156Z"/>
    <path class="curtain-L-prim-light-dark" d="M15,83.722V72.175l5,2.887V86.609Z"/>
    <path class="curtain-L-prim-light-dark" d="M5,77.949V66.402l5,2.886V80.835Z"/>
    <path class="curtain-L-prim-light-dark" d="M155,210.735V199.188l5,2.887v11.547Z"/>
    <path class="curtain-L-prim-light-dark" d="M135,199.188V187.641l5,2.887v11.547Z"/>
    <path class="curtain-L-prim-light-dark" d="M115,187.641V176.094l5,2.886v11.548Z"/>
    <path class="curtain-L-prim-light-dark" d="M95.0129,176.089l-.021-11.547,5.0052,2.878.021,11.547Z"/>
    <path class="curtain-L-prim-light-dark" d="M145,204.961V193.414l5,2.887v11.547Z"/>
    <path class="curtain-L-prim-light-dark" d="M125,193.414V181.867l5,2.887v11.547Z"/>
    <path class="curtain-L-prim-light-dark" d="M105,181.867V170.32l5,2.887v11.547Z"/>
    <path class="curtain-L-prim-light-dark" d="M85,170.32V158.773l5,2.887v11.547Z"/>
    <path class="curtain-L-prim-light-dark" d="M65,158.773V147.226l5,2.887V161.66Z"/>
    <path class="curtain-L-prim-light-dark" d="M45,147.226V135.679l5,2.887v11.547Z"/>
    <path class="curtain-L-prim-light-dark" d="M25.0129,135.675l-.021-11.547,5.0052,2.878.021,11.547Z"/>
    <path class="curtain-L-prim-light-dark" d="M75,164.547V153l5,2.886v11.547Z"/>
    <path class="curtain-L-prim-light-dark" d="M55,153V141.453l5,2.886v11.547Z"/>
    <path class="curtain-L-prim-light-dark" d="M35,141.453V129.906l5,2.886v11.547Z"/>
    <path class="curtain-L-prim-light-dark" d="M15,129.906V118.359l5,2.886v11.547Z"/>
    <path class="curtain-L-prim-light-dark" d="M5,124.132V112.585l5,2.887v11.547Z"/>
    <path class="curtain-L-prim-light-dark" d="M155,256.923V245.376l5,2.887V259.81Z"/>
    <path class="curtain-L-prim-light-dark" d="M135,245.376V233.829l5,2.887v11.547Z"/>
    <path class="curtain-L-prim-light-dark" d="M115,233.829V222.282l5,2.887v11.547Z"/>
    <path class="curtain-L-prim-light-dark" d="M95.0129,222.277l-.021-11.547,5.0052,2.878.021,11.547Z"/>
    <path class="curtain-L-prim-light-dark" d="M145,251.149V239.602l5,2.887v11.547Z"/>
    <path class="curtain-L-prim-light-dark" d="M125,239.602V228.055l5,2.887v11.547Z"/>
    <path class="curtain-L-prim-light-dark" d="M105,228.055V216.508l5,2.887v11.547Z"/>
    <path class="curtain-L-prim-light-dark" d="M85,216.508V204.961l5,2.887v11.547Z"/>
    <path class="curtain-L-prim-light-dark" d="M65,204.961V193.414l5,2.887v11.547Z"/>
    <path class="curtain-L-prim-light-dark" d="M45,193.414V181.867l5,2.887v11.547Z"/>
    <path class="curtain-L-prim-light-dark" d="M25.0129,181.863l-.021-11.547,5.0052,2.878.021,11.547Z"/>
    <path class="curtain-L-prim-light-dark" d="M75,210.735V199.188l5,2.887v11.547Z"/>
    <path class="curtain-L-prim-light-dark" d="M55,199.188V187.641l5,2.887v11.547Z"/>
    <path class="curtain-L-prim-light-dark" d="M35,187.641V176.094l5,2.886v11.548Z"/>
    <path class="curtain-L-prim-light-dark" d="M15,176.094V164.547l5,2.886v11.548Z"/>
    <path class="curtain-L-prim-light-dark" d="M5,170.32V158.773l5,2.887v11.547Z"/>
    <path class="curtain-L-prim-light-dark" d="M155,303.111V291.564l5,2.887v11.547Z"/>
    <path class="curtain-L-prim-light-dark" d="M135,291.564V280.017l5,2.887v11.547Z"/>
    <path class="curtain-L-prim-light-dark" d="M115,280.017V268.47l5,2.887v11.547Z"/>
    <path class="curtain-L-prim-light-dark" d="M95.0129,268.465l-.021-11.547,5.0052,2.878.021,11.547Z"/>
    <path class="curtain-L-prim-light-dark" d="M145,297.337V285.79l5,2.887v11.547Z"/>
    <path class="curtain-L-prim-light-dark" d="M125,285.79V274.243l5,2.887v11.547Z"/>
    <path class="curtain-L-prim-light-dark" d="M105,274.243V262.696l5,2.887V277.13Z"/>
    <path class="curtain-L-prim-light-dark" d="M85,262.696V251.149l5,2.887v11.547Z"/>
    <path class="curtain-L-prim-light-dark" d="M65,251.149V239.602l5,2.887v11.547Z"/>
    <path class="curtain-L-prim-light-dark" d="M45,239.602V228.055l5,2.887v11.547Z"/>
    <path class="curtain-L-prim-light-dark" d="M25.0129,228.051l-.021-11.547,5.0052,2.878.021,11.547Z"/>
    <path class="curtain-L-prim-light-dark" d="M75,256.923V245.376l5,2.887V259.81Z"/>
    <path class="curtain-L-prim-light-dark" d="M55,245.376V233.829l5,2.887v11.547Z"/>
    <path class="curtain-L-prim-light-dark" d="M35,233.829V222.282l5,2.887v11.547Z"/>
    <path class="curtain-L-prim-light-dark" d="M15,222.282V210.735l5,2.887v11.547Z"/>
    <path class="curtain-L-prim-light-dark" d="M5,216.508V204.961l5,2.887v11.547Z"/>
    <path class="curtain-L-prim-light-dark" d="M155,349.299V337.752l5,2.887v11.547Z"/>
    <path class="curtain-L-prim-light-dark" d="M135,337.752V326.205l5,2.887v11.547Z"/>
    <path class="curtain-L-prim-light-dark" d="M115,326.205V314.658l5,2.887v11.547Z"/>
    <path class="curtain-L-prim-light-dark" d="M95.0129,314.653l-.021-11.547,5.0052,2.878.021,11.547Z"/>
    <path class="curtain-L-prim-light-dark" d="M145,343.525V331.978l5,2.887v11.547Z"/>
    <path class="curtain-L-prim-light-dark" d="M125,331.978V320.431l5,2.887v11.547Z"/>
    <path class="curtain-L-prim-light-dark" d="M105,320.431V308.884l5,2.887v11.547Z"/>
    <path class="curtain-L-prim-light-dark" d="M85,308.884V297.337l5,2.887v11.547Z"/>
    <path class="curtain-L-prim-light-dark" d="M65,297.337V285.79l5,2.887v11.547Z"/>
    <path class="curtain-L-prim-light-dark" d="M45,285.79V274.243l5,2.887v11.547Z"/>
    <path class="curtain-L-prim-light-dark" d="M25.0129,274.239l-.021-11.547,5.0052,2.878.021,11.547Z"/>
    <path class="curtain-L-prim-light-dark" d="M75,303.111V291.564l5,2.887v11.547Z"/>
    <path class="curtain-L-prim-light-dark" d="M55,291.564V280.017l5,2.887v11.547Z"/>
    <path class="curtain-L-prim-light-dark" d="M35,280.017V268.47l5,2.887v11.547Z"/>
    <path class="curtain-L-prim-light-dark" d="M15,268.47V256.923l5,2.887v11.547Z"/>
    <path class="curtain-L-prim-light-dark" d="M5,262.696V251.149l5,2.887v11.547Z"/>
    <path class="curtain-L-prim-light-dark" d="M155,141.448V129.901l5,2.887v11.547Z"/>
    <path class="curtain-L-prim-light-dark" d="M135,129.901V118.354l5,2.887v11.547Z"/>
    <path class="curtain-L-prim-light-dark" d="M115,118.354V106.807l5,2.887v11.547Z"/>
    <path class="curtain-L-prim-light-dark" d="M95.0129,106.803l-.021-11.547,5.0052,2.878.021,11.547Z"/>
    <path class="curtain-L-prim-light-dark" d="M145,135.675V124.128l5,2.887v11.547Z"/>
    <path class="curtain-L-prim-light-dark" d="M125,124.128V112.581l5,2.887v11.547Z"/>
    <path class="curtain-L-prim-light-dark" d="M105,112.581V101.034l5,2.887v11.547Z"/>
    <path class="curtain-L-prim-light-dark" d="M85,101.034V89.487l5,2.887v11.547Z"/>
    <path class="curtain-L-prim-light-dark" d="M65,89.487V77.94l5,2.887V92.374Z"/>
    <path class="curtain-L-prim-light-dark" d="M45,77.94V66.393l5,2.887V80.827Z"/>
    <path class="curtain-L-prim-light-dark" d="M25.0129,66.388l-.021-11.547,5.0052,2.878.021,11.547Z"/>
    <path class="curtain-L-prim-light-dark" d="M75,95.26V83.713L80,86.6V98.147Z"/>
    <path class="curtain-L-prim-light-dark" d="M55,83.713V72.166l5,2.887V86.6Z"/>
    <path class="curtain-L-prim-light-dark" d="M35,72.166V60.619l5,2.887V75.053Z"/>
    <path class="curtain-L-prim-light-dark" d="M15,60.619V49.072l5,2.887V63.506Z"/>
    <path class="curtain-L-prim-light-dark" d="M5,54.846V43.299l5,2.887V57.733Z"/>
    <path class="curtain-L-prim-light-dark" d="M155,187.641V176.094l5,2.886v11.548Z"/>
    <path class="curtain-L-prim-light-dark" d="M135,176.094V164.547l5,2.886v11.548Z"/>
    <path class="curtain-L-prim-light-dark" d="M115,164.547V153l5,2.886v11.547Z"/>
    <path class="curtain-L-prim-light-dark" d="M95.0129,152.995l-.021-11.547,5.0052,2.878.021,11.547Z"/>
    <path class="curtain-L-prim-light-dark" d="M145,181.867V170.32l5,2.887v11.547Z"/>
    <path class="curtain-L-prim-light-dark" d="M125,170.32V158.773l5,2.887v11.547Z"/>
    <path class="curtain-L-prim-light-dark" d="M105,158.773V147.226l5,2.887V161.66Z"/>
    <path class="curtain-L-prim-light-dark" d="M85,147.226V135.679l5,2.887v11.547Z"/>
    <path class="curtain-L-prim-light-dark" d="M65,135.679V124.132l5,2.887v11.547Z"/>
    <path class="curtain-L-prim-light-dark" d="M45,124.132V112.585l5,2.887v11.547Z"/>
    <path class="curtain-L-prim-light-dark" d="M25.0129,112.581l-.021-11.547,5.0052,2.878.021,11.547Z"/>
    <path class="curtain-L-prim-light-dark" d="M75,141.453V129.906l5,2.886v11.547Z"/>
    <path class="curtain-L-prim-light-dark" d="M55,129.906V118.359l5,2.886v11.547Z"/>
    <path class="curtain-L-prim-light-dark" d="M35,118.359V106.812l5,2.886v11.547Z"/>
    <path class="curtain-L-prim-light-dark" d="M15,106.812V95.265l5,2.886v11.547Z"/>
    <path class="curtain-L-prim-light-dark" d="M5,101.038V89.491l5,2.887v11.547Z"/>
    <path class="curtain-L-prim-light-dark" d="M155,233.824V222.277l5,2.887v11.547Z"/>
    <path class="curtain-L-prim-light-dark" d="M135,222.277V210.73l5,2.887v11.547Z"/>
    <path class="curtain-L-prim-light-dark" d="M115,210.73V199.183l5,2.887v11.547Z"/>
    <path class="curtain-L-prim-light-dark" d="M95.0129,199.179l-.021-11.547,5.0052,2.878.021,11.547Z"/>
    <path class="curtain-L-prim-light-dark" d="M145,228.051V216.504l5,2.887v11.547Z"/>
    <path class="curtain-L-prim-light-dark" d="M125,216.504V204.957l5,2.887v11.547Z"/>
    <path class="curtain-L-prim-light-dark" d="M105,204.957V193.41l5,2.887v11.547Z"/>
    <path class="curtain-L-prim-light-dark" d="M85,193.41V181.863l5,2.887v11.547Z"/>
    <path class="curtain-L-prim-light-dark" d="M65,181.863V170.316l5,2.887V184.75Z"/>
    <path class="curtain-L-prim-light-dark" d="M45,170.316V158.769l5,2.887v11.547Z"/>
    <path class="curtain-L-prim-light-dark" d="M25.0129,158.764l-.021-11.547,5.0052,2.878.021,11.547Z"/>
    <path class="curtain-L-prim-light-dark" d="M75,187.636V176.089l5,2.887v11.547Z"/>
    <path class="curtain-L-prim-light-dark" d="M55,176.089V164.542l5,2.887v11.547Z"/>
    <path class="curtain-L-prim-light-dark" d="M35,164.542V152.995l5,2.887v11.547Z"/>
    <path class="curtain-L-prim-light-dark" d="M15,152.995V141.448l5,2.887v11.547Z"/>
    <path class="curtain-L-prim-light-dark" d="M5,147.222V135.675l5,2.887v11.547Z"/>
    <path class="curtain-L-prim-light-dark" d="M155,280.012V268.465l5,2.887v11.547Z"/>
    <path class="curtain-L-prim-light-dark" d="M135,268.465V256.918l5,2.887v11.547Z"/>
    <path class="curtain-L-prim-light-dark" d="M115,256.918V245.371l5,2.887v11.547Z"/>
    <path class="curtain-L-prim-light-dark" d="M95.0129,245.367l-.021-11.547,5.0052,2.878.021,11.547Z"/>
    <path class="curtain-L-prim-light-dark" d="M145,274.239V262.692l5,2.887v11.547Z"/>
    <path class="curtain-L-prim-light-dark" d="M125,262.692V251.145l5,2.887v11.547Z"/>
    <path class="curtain-L-prim-light-dark" d="M105,251.145V239.598l5,2.887v11.547Z"/>
    <path class="curtain-L-prim-light-dark" d="M85,239.598V228.051l5,2.887v11.547Z"/>
    <path class="curtain-L-prim-light-dark" d="M65,228.051V216.504l5,2.887v11.547Z"/>
    <path class="curtain-L-prim-light-dark" d="M45,216.504V204.957l5,2.887v11.547Z"/>
    <path class="curtain-L-prim-light-dark" d="M25.0129,204.952l-.021-11.546,5.0052,2.877.021,11.547Z"/>
    <path class="curtain-L-prim-light-dark" d="M75,233.824V222.277l5,2.887v11.547Z"/>
    <path class="curtain-L-prim-light-dark" d="M55,222.277V210.73l5,2.887v11.547Z"/>
    <path class="curtain-L-prim-light-dark" d="M35,210.73V199.183l5,2.887v11.547Z"/>
    <path class="curtain-L-prim-light-dark" d="M15,199.183V187.636l5,2.887V202.07Z"/>
    <path class="curtain-L-prim-light-dark" d="M5,193.41V181.863l5,2.887v11.547Z"/>
    <path class="curtain-L-prim-light-dark" d="M155,326.2V314.653l5,2.887v11.547Z"/>
    <path class="curtain-L-prim-light-dark" d="M135,314.653V303.106l5,2.887V317.54Z"/>
    <path class="curtain-L-prim-light-dark" d="M115,303.106V291.559l5,2.887v11.547Z"/>
    <path class="curtain-L-prim-light-dark" d="M95.0129,291.555l-.021-11.547,5.0052,2.878.021,11.547Z"/>
    <path class="curtain-L-prim-light-dark" d="M145,320.427V308.88l5,2.887v11.547Z"/>
    <path class="curtain-L-prim-light-dark" d="M125,308.88V297.333l5,2.887v11.547Z"/>
    <path class="curtain-L-prim-light-dark" d="M105,297.333V285.786l5,2.887V300.22Z"/>
    <path class="curtain-L-prim-light-dark" d="M85,285.786V274.239l5,2.887v11.547Z"/>
    <path class="curtain-L-prim-light-dark" d="M65,274.239V262.692l5,2.887v11.547Z"/>
    <path class="curtain-L-prim-light-dark" d="M45,262.692V251.145l5,2.887v11.547Z"/>
    <path class="curtain-L-prim-light-dark" d="M25.0129,251.141l-.021-11.547,5.0052,2.877.021,11.547Z"/>
    <path class="curtain-L-prim-light-dark" d="M75,280.012V268.465l5,2.887v11.547Z"/>
    <path class="curtain-L-prim-light-dark" d="M55,268.465V256.918l5,2.887v11.547Z"/>
    <path class="curtain-L-prim-light-dark" d="M35,256.918V245.371l5,2.887v11.547Z"/>
    <path class="curtain-L-prim-light-dark" d="M15,245.371V233.824l5,2.887v11.547Z"/>
    <path class="curtain-L-prim-light-dark" d="M5,239.598V228.051l5,2.887v11.547Z"/>
    <path class="exterior-L-dark" d="M10,294.455l-5-2.887V268.474l5,2.887Z"/>
    <path class="exterior-L-dark" d="M50,317.549l-5-2.887V291.568l5,2.887Z"/>
    <path class="exterior-L-dark" d="M90,340.643l-5-2.887V314.662l5,2.887Z"/>
    <path class="exterior-L-dark" d="M130,363.737l-5-2.887V337.756l5,2.887Z"/>
    <path class="exterior-L-dark" d="M30,306.002l-5-2.887V280.021l5,2.887Z"/>
    <path class="exterior-L-dark" d="M70,329.096l-5-2.887V303.115l5,2.887Z"/>
    <path class="exterior-L-dark" d="M110,352.19l-5-2.887V326.209l5,2.887Z"/>
    <path class="exterior-L-dark" d="M150,375.284l-5-2.887V349.303l5,2.887Z"/>
    <path class="exterior-L-dark" d="M20,300.228l-5-2.886V274.248l5,2.886Z"/>
    <path class="exterior-R-dark" d="M170,375.284l5-2.887V349.303l-5,2.887Z"/>
    <path class="exterior-R-dark" d="M190,363.737l5-2.887V337.756l-5,2.887Z"/>
    <path class="exterior-R-dark" d="M210,352.19l5-2.887V326.209l-5,2.887Z"/>
    <path class="exterior-L-dark" d="M60,323.322l-5-2.886V297.342l5,2.886Z"/>
    <path class="exterior-L-dark" d="M100,346.416l-5-2.886V320.436l5,2.886Z"/>
    <path class="exterior-L-dark" d="M140,369.51l-5-2.886V343.53l5,2.886Z"/>
    <path class="exterior-L-dark" d="M40,311.775l-5-2.886V285.795l5,2.886Z"/>
    <path class="exterior-L-dark" d="M80,334.869l-5-2.886V308.889l5,2.886Z"/>
    <path class="exterior-L-dark" d="M120,357.963l-5-2.886V331.983l5,2.886Z"/>
    <path class="exterior-L-dark" d="M160,381.057l-5-2.886V355.077l5,2.886Z"/>
    <path class="exterior-R-dark" d="M160,381.057l5-2.886V355.077l-5,2.886Z"/>
    <path class="exterior-R-dark" d="M180,369.51l5-2.886V343.53l-5,2.886Z"/>
    <path class="exterior-R-dark" d="M200,357.963l5-2.886V331.983l-5,2.886Z"/>
    <path class="exterior-R-dark" d="M220,346.416l5-2.886V320.436l-5,2.886Z"/>
  </g>
</svg>
