<svg id="Layer_1" data-name="Layer 1" xmlns="http://www.w3.org/2000/svg" viewBox="0 0 320 334.8632">
  <defs>
    <style>
      .curtain-R-prim-light {
        fill: #2b95ac;
      }

      .exterior-R-prim {
        fill: #d15752;
      }

      .exterior-L-prim {
        fill: #73302f;
      }

      .curtain-R-prim-dark {
        fill: #21788c;
      }

      .top-light {
        fill: #fac7c6;
      }

      .top-prim {
        fill: #dd8987;
      }

      .cls-1 {
        fill: #dbc8b9;
      }

      .curtain-L-prim-dark {
        fill: #11424d;
      }

      .cls-2 {
        fill: #d5bead;
      }

      .cls-3 {
        fill: #7b7d83;
      }

      .cls-4 {
        fill: #5c6067;
      }

      .cls-5 {
        fill: #0a0a0a;
      }

      .cls-6 {
        fill: #2e3031;
      }

      .curtain-L-prim-light {
        fill: #196273;
      }
    </style>
  </defs>
  <title>Artboard 54</title>
  <g id="root">
    <path id="windows-L4" class="curtain-R-prim-light" d="M297.5,202.0726V226.61L135,320.4294v-23.094Z"/>
    <path id="body-L1" class="exterior-R-prim" d="M285,256.9209l5,2.8867,5-2.8867v-23.094H285Z"/>
    <path id="body-R2" class="exterior-L-prim" d="M285,256.9209V236.7136l5-2.8867v25.9807Z"/>
    <path id="Path" class="curtain-R-prim-dark" d="M142.5,316.0994v-23.094l7.5-4.33v23.094Z"/>
    <path id="body-L1-2" data-name="body-L1" class="exterior-R-prim" d="M252.5,275.6848l5,2.8867,5-2.8868v-23.094h-10Z"/>
    <path id="body-R2-2" data-name="body-R2" class="exterior-L-prim" d="M252.5,275.6847V255.4775l5-2.8868v25.9808Z"/>
    <path id="body-L1-3" data-name="body-L1" class="exterior-R-prim" d="M220,294.4487l5,2.8866,5-2.8867v-23.094H220Z"/>
    <path id="body-R2-3" data-name="body-R2" class="exterior-L-prim" d="M220,294.4486v-20.32l5-2.8867v26.0938Z"/>
    <path id="body-L1-4" data-name="body-L1" class="exterior-R-prim" d="M187.5,313.2126l5,2.8866,5-2.8867v-29.094l-10,6Z"/>
    <path id="body-R2-4" data-name="body-R2" class="exterior-L-prim" d="M187.5,313.2125v-23.32l5-2.8868v29.094Z"/>
    <path id="body-L1-5" data-name="body-L1" class="exterior-R-prim" d="M165,331.9764V303.1089l-5,2.8867-5-2.8867v28.8675l5,2.8868Z"/>
    <path id="body-R2-5" data-name="body-R2" class="exterior-L-prim" d="M160,334.8632l-5-2.8868V303.1089l5,2.8867Z"/>
    <path id="top-T1" class="top-light" d="M320,115.47,160,23.0941,0,115.47l160,92.376Z"/>
    <path id="top-T2" class="top-prim" d="M160,202.0726,10,115.47,160,28.8677,310,115.47Z"/>
    <path id="Path-2" data-name="Path" class="exterior-R-prim" d="M15,118.3568,10,115.47,160,28.8677v5.7734Z"/>
    <path id="Path-3" data-name="Path" class="exterior-L-prim" d="M310,115.47l-5,2.8868L200,57.735V51.9615Z"/>
    <path id="Path-4" data-name="Path" class="cls-1" d="M275,118.3568,160,184.7521l15,8.66,115-66.3953Z"/>
    <path id="body-R2-6" data-name="body-R2" class="exterior-L-prim" d="M62.5,140.0074l-5-2.8867v-11.547l5,2.8867Z"/>
    <path id="body-L1-6" data-name="body-L1" class="exterior-R-prim" d="M67.5,137.1207v-5.7735l-5-2.8868v11.547Z"/>
    <path id="body-L1-7" data-name="body-L1" class="exterior-R-prim" d="M290,121.2435l5-2.8867V106.81l-5,2.8867Z"/>
    <path id="body-R2-7" data-name="body-R2" class="exterior-L-prim" d="M285,118.3568v-5.7734l5-2.8869v11.547Z"/>
    <path id="body-L1-8" data-name="body-L1" class="exterior-L-prim" d="M30,121.2435l-5-2.8867V106.81l5,2.8867Z"/>
    <path id="body-R2-8" data-name="body-R2" class="exterior-R-prim" d="M35,118.3568v-5.7734l-5-2.8869v11.547Z"/>
    <path id="windows-R1" class="curtain-L-prim-dark" d="M135,320.4294,0,242.4872V213.62l135,77.9423Z"/>
    <path id="Path-5" data-name="Path" class="cls-2" d="M250,150.1112l-5-2.8868-5,2.8868,5,2.8868Z"/>
    <path id="Path-6" data-name="Path" class="cls-2" d="M260,144.3378l-5-2.8869-5,2.8869,5,2.8866Z"/>
    <path id="Path-7" data-name="Path" class="cls-2" d="M210,173.2053l-5-2.8868-5,2.8868,5,2.8867Z"/>
    <path id="Path-8" data-name="Path" class="cls-2" d="M190,184.7522l-5-2.8867-5,2.8867,5,2.8867Z"/>
    <path id="Path-9" data-name="Path" class="cls-2" d="M180,190.5256l-5-2.8868-5,2.8868,5,2.8869Z"/>
    <path id="Path-10" data-name="Path" class="cls-2" d="M280,132.7908l-5-2.8869-5,2.8869,5,2.8866Z"/>
    <path id="Path-11" data-name="Path" class="cls-2" d="M230,161.6582l-5-2.8867-5,2.8867,5,2.8868Z"/>
    <path id="Path-12" data-name="Path" class="cls-2" d="M290,127.0171l-5-2.8867-5,2.8867,5,2.8868Z"/>
    <path id="Path-13" data-name="Path" class="cls-2" d="M240,155.8848l-5-2.8869-5,2.8869,5,2.8867Z"/>
    <path id="Path-14" data-name="Path" class="cls-2" d="M270,138.5641l-5-2.8867-5,2.8867,5,2.8868Z"/>
    <path id="Path-15" data-name="Path" class="cls-2" d="M220,167.4318l-5-2.8869-5,2.8869,5,2.8867Z"/>
    <path id="Path-16" data-name="Path" class="cls-2" d="M200,178.9786l-5-2.8868-5,2.8868,5,2.8869Z"/>
    <path id="Path-17" data-name="Path" class="cls-2" d="M240,150.1112l-5-2.8868-5,2.8868,5,2.8867Z"/>
    <path id="Path-18" data-name="Path" class="cls-2" d="M250,144.3378l-5-2.8869-5,2.8869,5,2.8866Z"/>
    <path id="Path-19" data-name="Path" class="cls-2" d="M200,173.2052l-5-2.8867-5,2.8867,5,2.8868Z"/>
    <path id="Path-20" data-name="Path" class="cls-2" d="M180,184.7521l-5-2.8866-5,2.8866,5,2.8868Z"/>
    <path id="Path-21" data-name="Path" class="cls-2" d="M270,132.7906l-5-2.8867-5,2.8867,5,2.8868Z"/>
    <path id="Path-22" data-name="Path" class="cls-2" d="M220,161.6582l-5-2.8868-5,2.8868,5,2.8868Z"/>
    <path id="Path-23" data-name="Path" class="cls-2" d="M280,127.0171l-5-2.8867-5,2.8867,5,2.8868Z"/>
    <path id="Path-24" data-name="Path" class="cls-2" d="M230,155.8848l-5-2.8869-5,2.8869,5,2.8866Z"/>
    <path id="Path-25" data-name="Path" class="cls-2" d="M260,138.5641l-5-2.8867-5,2.8867,5,2.8868Z"/>
    <path id="Path-26" data-name="Path" class="cls-2" d="M210,167.4318l-5-2.8869-5,2.8869,5,2.8867Z"/>
    <path id="Path-27" data-name="Path" class="cls-2" d="M190,178.9786l-5-2.8868-5,2.8868,5,2.8868Z"/>
    <path id="Path-28" data-name="Path" class="cls-2" d="M240,144.3378l-5-2.8869-5,2.8869,5,2.8866Z"/>
    <path id="Path-29" data-name="Path" class="cls-2" d="M250,138.5642l-5-2.8868-5,2.8868,5,2.8867Z"/>
    <path id="Path-30" data-name="Path" class="cls-2" d="M200,167.4318l-5-2.8869-5,2.8869,5,2.8867Z"/>
    <path id="Path-31" data-name="Path" class="cls-2" d="M180,178.9786l-5-2.8867-5,2.8867,5,2.8869Z"/>
    <path id="Path-32" data-name="Path" class="cls-2" d="M170,184.7521l-5-2.8867-5,2.8867,5,2.8867Z"/>
    <path id="Path-33" data-name="Path" class="cls-2" d="M270,127.0171l-5-2.8867-5,2.8867,5,2.8868Z"/>
    <path id="Path-34" data-name="Path" class="cls-2" d="M220,155.8848l-5-2.8869-5,2.8869,5,2.8866Z"/>
    <path id="Path-35" data-name="Path" class="cls-2" d="M280,121.2437l-5-2.8869-5,2.8869,5,2.8867Z"/>
    <path id="Path-36" data-name="Path" class="cls-2" d="M230,150.1112l-5-2.8868-5,2.8868,5,2.8867Z"/>
    <path id="Path-37" data-name="Path" class="cls-2" d="M260,132.7906l-5-2.8868-5,2.8868,5,2.8868Z"/>
    <path id="Path-38" data-name="Path" class="cls-2" d="M210,161.6582l-5-2.8868-5,2.8868,5,2.8867Z"/>
    <path id="Path-39" data-name="Path" class="cls-2" d="M190,173.2051l-5-2.8867-5,2.8867,5,2.8867Z"/>
    <path id="windows-L4-2" data-name="windows-L4" class="cls-3" d="M320,115.47,160,207.8461V311.7692l160-92.3761Z"/>
    <path id="windows-L1" class="cls-4" d="M160,230.94v-11.547l160-92.376V138.564Z"/>
    <path id="windows-L1-2" data-name="windows-L1" class="cls-4" d="M160,277.1282v-11.547l160-92.3761v11.547Z"/>
    <path id="windows-L1-3" data-name="windows-L1" class="cls-4" d="M160,254.0342v-11.547l160-92.3761v11.547Z"/>
    <path id="windows-L1-4" data-name="windows-L1" class="cls-4" d="M160,300.2222v-11.547l160-92.3761v11.547Z"/>
    <path id="windows-R1-2" data-name="windows-R1" class="cls-5" d="M160,207.8461V311.7692L0,219.3931V115.47Z"/>
    <path id="windows-R4" class="cls-6" d="M160,219.3931,0,127.0171V115.47l160,92.376Z"/>
    <path id="windows-R4-2" data-name="windows-R4" class="cls-6" d="M160,242.4872,0,150.1111v-11.547L160,230.94Z"/>
    <path id="windows-R4-3" data-name="windows-R4" class="cls-6" d="M160,265.5812,0,173.2051v-11.547l160,92.3761Z"/>
    <path id="windows-R4-4" data-name="windows-R4" class="cls-6" d="M160,288.6752,0,196.2992v-11.547l160,92.376Z"/>
    <path id="windows-R4-5" data-name="windows-R4" class="cls-6" d="M160,311.7692,0,219.3931v-11.547l160,92.3761Z"/>
    <path id="body-L1-9" data-name="body-L1" class="exterior-R-prim" d="M257.5,140.0074l5-2.8867v-11.547l-5,2.8867Z"/>
    <path id="body-R2-9" data-name="body-R2" class="exterior-L-prim" d="M252.5,137.1207v-5.7735l5-2.8868v11.547Z"/>
    <path id="body-L1-10" data-name="body-L1" class="exterior-R-prim" d="M225,158.7714l5-2.8868v-11.547l-5,2.8868Z"/>
    <path id="body-R2-10" data-name="body-R2" class="exterior-L-prim" d="M220,155.8846v-5.7735l5-2.8867v11.547Z"/>
    <path id="body-L1-11" data-name="body-L1" class="exterior-R-prim" d="M192.5,177.5353l5-2.8867v-11.547l-5,2.8867Z"/>
    <path id="body-R2-11" data-name="body-R2" class="exterior-L-prim" d="M187.5,174.6486V168.875l5-2.8867v11.547Z"/>
    <path id="body-R2-12" data-name="body-R2" class="exterior-L-prim" d="M160,196.2991l-5-2.8866v-11.547l5,2.8866Z"/>
    <path id="body-L1-12" data-name="body-L1" class="exterior-R-prim" d="M165,193.4125v-11.547l-5,2.8866v11.547Z"/>
    <path id="body-R2-13" data-name="body-R2" class="exterior-L-prim" d="M127.5,177.5353l-5-2.8867V163.1014l5,2.8869Z"/>
    <path id="body-L1-13" data-name="body-L1" class="exterior-R-prim" d="M132.5,174.6486v-5.7737l-5-2.8866v11.547Z"/>
    <path id="body-R2-14" data-name="body-R2" class="exterior-L-prim" d="M95,158.7714l-5-2.8868v-11.547l5,2.8868Z"/>
    <path id="body-L1-14" data-name="body-L1" class="exterior-R-prim" d="M100,155.8846v-5.7735l-5-2.8867v11.547Z"/>
    <path id="anchor_0_184.752_320" class="top-light" d="M0,92.3761,160,0,320,92.3761l-160,92.376Z"/>
    <path id="Path-40" data-name="Path" class="curtain-L-prim-light" d="M7.5,246.8173v-23.094l-7.5-4.33v23.094Z"/>
    <path id="Path-41" data-name="Path" class="curtain-L-prim-light" d="M37.5,264.1377V241.0438l-7.5-4.33v23.094Z"/>
    <path id="Path-42" data-name="Path" class="curtain-L-prim-light" d="M67.5,281.4583v-23.094l-7.5-4.33v23.094Z"/>
    <path id="Path-43" data-name="Path" class="curtain-L-prim-light" d="M97.5,298.7787v-23.094l-7.5-4.33v23.094Z"/>
    <path id="Path-44" data-name="Path" class="curtain-L-prim-light" d="M22.5,255.4775v-23.094l-7.5-4.33v23.094Z"/>
    <path id="Path-45" data-name="Path" class="curtain-L-prim-light" d="M52.5,272.798V249.704l-7.5-4.33v23.094Z"/>
    <path id="Path-46" data-name="Path" class="curtain-L-prim-light" d="M82.5,290.1185v-23.094l-7.5-4.33v23.094Z"/>
    <path id="Path-47" data-name="Path" class="curtain-L-prim-light" d="M112.5,307.439V284.345l-7.5-4.33v23.094Z"/>
    <path id="Path-48" data-name="Path" class="curtain-L-prim-light" d="M127.5,316.0994v-23.094l-7.5-4.33v23.094Z"/>
  </g>
</svg>
