<svg id="Layer_1" data-name="Layer 1" xmlns="http://www.w3.org/2000/svg" viewBox="0 0 260 203.516">
  <defs>
    <style>
      .top-light {
        fill: #ffc8c6;
      }

      .cls-1 {
        fill: #e8e8e8;
      }

      .cls-2 {
        fill: #d1d1d1;
      }

      .cls-3 {
        fill: #fff;
      }

      .top-prim {
        fill: #dd8a87;
      }

      .window-L-prim {
        fill: #4d3b24;
      }

      .exterior-L-prim {
        fill: #73302e;
      }

      .exterior-R-prim {
        fill: #d05752;
      }

      .window-R-prim {
        fill: #bd9664;
      }

      .cls-4 {
        fill: #a2a2a2;
      }

      .cls-5 {
        fill: #acacac;
      }

      .cls-6 {
        fill: #c6c6c6;
      }

      .cls-7 {
        fill: #4a4a4a;
      }

      .cls-8 {
        fill: #6c6c6c;
      }

      .cls-9 {
        fill: #b5b5b5;
      }

      .cls-10 {
        fill: none;
      }

      .cls-11 {
        fill: #e27c39;
      }

      .cls-12 {
        fill: #b9b9b9;
      }

      .cls-13 {
        fill: #f1b342;
      }

      .cls-14 {
        fill: #4092ca;
      }
    </style>
  </defs>
  <title>Artboard 21</title>
  <g>
    <g id="Group">
      <path id="Path" class="top-light" d="M100,203.516,260,111.14,160,53.4049,0,145.781Z"/>
      <path id="Path-2" data-name="Path" class="cls-1" d="M212.5,83.7158l-5-2.8867V23.094l2.5-1.4433,5,2.8867v57.735Z"/>
      <path id="Path-3" data-name="Path" class="cls-1" d="M175,62.0652l-5-2.8868V1.4434L172.5,0l5,2.8868v57.735Z"/>
      <path id="Path-4" data-name="Path" class="cls-2" d="M212.5,83.7158l-5-2.8867V23.094l5,2.8868Z"/>
      <path id="Path-5" data-name="Path" class="cls-2" d="M175,62.0652l-5-2.8868V1.4434L175,4.33Z"/>
      <path id="Path-6" data-name="Path" class="cls-1" d="M250,105.3665l-5-2.8868V44.7447l2.5-1.4434,5,2.8868v57.735Z"/>
      <path id="Path-7" data-name="Path" class="cls-2" d="M250,105.3664l-5-2.8867V44.7447l5,2.8867Z"/>
      <path id="Path-8" data-name="Path" class="cls-3" d="M212.5,83.7158l2.5-1.4434V24.5374l-2.5,1.4434Z"/>
      <path id="Path-9" data-name="Path" class="cls-3" d="M175,62.0652l2.5-1.4434V2.8868L175,4.33Z"/>
      <path id="Path-10" data-name="Path" class="cls-3" d="M250,105.3665l2.5-1.4434V46.188L250,47.6314Z"/>
      <path id="Path-11" data-name="Path" class="cls-1" d="M10,140.0075l5-2.8868V79.3857l-2.5-1.4434-5,2.8868v57.735Z"/>
      <path id="Path-12" data-name="Path" class="cls-2" d="M10,140.0075l5-2.8868V79.3857l-5,2.8867Z"/>
      <path id="Path-13" data-name="Path" class="cls-1" d="M42.5,118.3568,45,119.8l5-2.8867V59.1784l-2.5-1.4433-5,2.8867Z"/>
      <path id="Path-14" data-name="Path" class="cls-2" d="M45,119.8l5-2.8868V59.1784l-5,2.8868Z"/>
      <path id="Path-15" data-name="Path" class="cls-1" d="M75,99.5929l2.5,1.4434,5-2.8867V40.4145L80,38.9712l-5,2.8867Z"/>
      <path id="Path-16" data-name="Path" class="cls-1" d="M110,82.2724l5-2.8867V21.6506l-2.5-1.4433-5,2.8867V80.8291Z"/>
      <path id="Path-17" data-name="Path" class="cls-2" d="M77.5,101.0363l5-2.8867V40.4146l-5,2.8867Z"/>
      <path id="Path-18" data-name="Path" class="cls-2" d="M110,82.2724l5-2.8867V21.6507l-5,2.8867Z"/>
      <path id="Path-19" data-name="Path" class="cls-1" d="M145,62.0652l5-2.8868V1.4434L147.5,0l-5,2.8868v57.735Z"/>
      <path id="Path-20" data-name="Path" class="cls-2" d="M145,62.0652l5-2.8868V1.4434L145,4.33Z"/>
      <path id="Path-21" data-name="Path" class="cls-2" d="M10,140.0075l-2.5-1.4434V80.8291L10,82.2724Z"/>
      <path id="Path-22" data-name="Path" class="cls-2" d="M45,119.8l-2.5-1.4434V60.6218L45,62.0652Z"/>
      <path id="Path-23" data-name="Path" class="cls-2" d="M77.5,101.0363,75,99.5929V41.8579l2.5,1.4434Z"/>
      <path id="Path-24" data-name="Path" class="cls-2" d="M110,82.2724l-2.5-1.4433V23.094l2.5,1.4434Z"/>
      <path id="Path-25" data-name="Path" class="cls-2" d="M145,62.0652l-2.5-1.4434V2.8868L145,4.33Z"/>
      <path id="Path-26" data-name="Path" class="top-light" d="M100,140.0075l10,5.7735L250,64.9519V59.1784l-7.5-4.33,7.5-4.33V47.6314L170,1.4434,160,7.2169,150,1.4434,10,82.2724v2.8868l7.5,4.33-7.5,4.33V99.593l80,46.188Z"/>
      <path id="Path-27" data-name="Path" class="top-prim" d="M100,186.1955,90,191.969l10,5.7735,10-5.7735Z"/>
      <path id="Path-28" data-name="Path" class="window-L-prim" d="M100,174.6485v17.32l5,2.8867,5-2.8867V180.422Z"/>
      <path id="Path-29" data-name="Path" class="top-prim" d="M27.5,144.3376l-10-5.7735-5,2.8867v5.7736l15,8.66Z"/>
      <path id="Path-30" data-name="Path" class="top-prim" d="M232.5,109.6966l10-5.7735,5,2.8867v5.7735l-15,8.66Z"/>
      <path id="Path-31" data-name="Path" class="exterior-L-prim" d="M20,88.0459,10,93.82V82.2724Z"/>
      <path id="Path-32" data-name="Path" class="exterior-R-prim" d="M240,53.4049l10,5.7735V47.6314Z"/>
      <path id="Path-33" data-name="Path" class="window-L-prim" d="M25,142.8942v11.547L90,191.969V180.422Z"/>
      <path id="Path-34" data-name="Path" class="exterior-R-prim" d="M25,145.781l-7.5,4.33-7.5-4.33,15-8.66Z"/>
      <path id="Path-35" data-name="Path" class="exterior-L-prim" d="M235,111.14l7.5,4.33,7.5-4.33-15-8.66Z"/>
      <path id="Path-36" data-name="Path" class="window-R-prim" d="M100,174.6485,90,180.422v11.547l5,2.8867,5-2.8867Z"/>
      <path id="Path-37" data-name="Path" class="window-R-prim" d="M110,180.422v11.547L235,119.8v-11.547Z"/>
      <path id="Path-38" data-name="Path" class="exterior-L-prim" d="M10,93.82v46.188l80,46.188v-46.188Z"/>
      <path id="Path-39" data-name="Path" class="exterior-R-prim" d="M110,140.0075v46.188l140-80.8291V59.1784Z"/>
      <path id="Path-40" data-name="Path" class="exterior-R-prim" d="M100,180.422l-10,5.7735-2.5-1.4434v-46.188l2.5,1.4434,10-5.7735Z"/>
      <path id="Path-41" data-name="Path" class="cls-1" d="M50,177.5353l-5-2.8868v-57.735l2.5-1.4434,5,2.8867v57.7351Z"/>
      <path id="Path-42" data-name="Path" class="exterior-L-prim" d="M100,180.422l10,5.7735,2.5-1.4434v-46.188l-2.5,1.4434-10-5.7735Z"/>
      <path id="Path-43" data-name="Path" class="cls-1" d="M12.5,155.8846l-5-2.8867V95.2628L10,93.82l5,2.8867v57.735Z"/>
      <path id="Path-44" data-name="Path" class="cls-2" d="M50,177.5352l-5-2.8867v-57.735L50,119.8Z"/>
      <path id="Path-45" data-name="Path" class="cls-2" d="M12.5,155.8846l-5-2.8867V95.2628l5,2.8868Z"/>
      <path id="Path-46" data-name="Path" class="cls-1" d="M87.5,199.1859l-5-2.8868v-57.735l2.5-1.4434,5,2.8868v57.735Z"/>
      <path id="Path-47" data-name="Path" class="cls-2" d="M87.5,199.1859l-5-2.8868v-57.735l5,2.8868Z"/>
      <path id="Path-48" data-name="Path" class="cls-3" d="M50,177.5352l2.5-1.4433V118.3568L50,119.8Z"/>
      <path id="Path-49" data-name="Path" class="cls-3" d="M12.5,155.8846l2.5-1.4434V96.7062L12.5,98.15Z"/>
      <path id="Path-50" data-name="Path" class="cls-3" d="M87.5,199.1859l2.5-1.4434v-57.735l-2.5,1.4433Z"/>
      <path id="Path-51" data-name="Path" class="top-prim" d="M235,59.1784l-10-5.7735,10-5.7735L170,10.1037l-10,5.7735-10-5.7735L25,82.2724l10,5.7735L25,93.82l65,37.5277,10-5.7735,10,5.7735Z"/>
      <path id="Path-52" data-name="Path" class="exterior-L-prim" d="M150,10.1037v8.66l10,5.7735v-8.66Z"/>
      <path id="Path-53" data-name="Path" class="exterior-R-prim" d="M170,18.7639l-10,5.7735v-8.66l10-5.7735Z"/>
      <path id="Path-54" data-name="Path" class="exterior-L-prim" d="M227.5,51.9616,170,18.7639v-8.66l65,37.5277Z"/>
      <path id="Path-55" data-name="Path" class="exterior-R-prim" d="M25,82.2724l7.5,4.33L150,18.7639v-8.66Z"/>
      <path id="Path-56" data-name="Path" class="exterior-R-prim" d="M35,96.7062,32.5,98.15,25,93.82l10-5.7736Z"/>
      <path id="Path-57" data-name="Path" class="cls-1" d="M112.5,199.1859l5-2.8868v-57.735l-2.5-1.4434-5,2.8868v57.735Z"/>
      <path id="Path-58" data-name="Path" class="exterior-L-prim" d="M227.5,63.5085l7.5-4.33-10-5.7735v8.66Z"/>
      <path id="Path-59" data-name="Path" class="cls-3" d="M112.5,199.1859l5-2.8868v-57.735l-5,2.8868Z"/>
      <path id="Path-60" data-name="Path" class="cls-1" d="M145,177.5352l2.5,1.4434,5-2.8867V118.3568l-2.5-1.4433L145,119.8Z"/>
      <path id="Path-61" data-name="Path" class="cls-3" d="M147.5,178.9786l5-2.8867V118.3568l-5,2.8868Z"/>
      <path id="Path-62" data-name="Path" class="cls-1" d="M177.5,158.7714l2.5,1.4433,5-2.8867V99.5929L182.5,98.15l-5,2.8867Z"/>
      <path id="Path-63" data-name="Path" class="cls-1" d="M212.5,141.4508l5-2.8867V80.8291L215,79.3857l-5,2.8867v57.7351Z"/>
      <path id="Path-64" data-name="Path" class="cls-3" d="M180,160.2147l5-2.8867V99.593l-5,2.8867Z"/>
      <path id="Path-65" data-name="Path" class="cls-3" d="M212.5,141.4508l5-2.8867V80.8291l-5,2.8867Z"/>
      <path id="Path-66" data-name="Path" class="cls-1" d="M247.5,121.2436l5-2.8868V60.6218L250,59.1784l-5,2.8868V119.8Z"/>
      <path id="Path-67" data-name="Path" class="cls-3" d="M247.5,121.2436l5-2.8868V60.6218l-5,2.8867Z"/>
      <path id="Path-68" data-name="Path" class="cls-2" d="M112.5,199.1859l-2.5-1.4434v-57.735l2.5,1.4433Z"/>
      <path id="Path-69" data-name="Path" class="cls-2" d="M147.5,178.9786l-2.5-1.4434V119.8l2.5,1.4434Z"/>
      <path id="Path-70" data-name="Path" class="cls-2" d="M180,160.2147l-2.5-1.4434v-57.735L180,102.48Z"/>
      <path id="Path-71" data-name="Path" class="cls-2" d="M212.5,141.4508l-2.5-1.4433V82.2724l2.5,1.4434Z"/>
      <path id="Path-72" data-name="Path" class="cls-2" d="M247.5,121.2436,245,119.8V62.0652l2.5,1.4433Z"/>
    </g>
    <g id="Group-2" data-name="Group">
      <g id="Group-3" data-name="Group">
        <path id="Path-73" data-name="Path" class="cls-4" d="M145.635,42.4834V54.8991l2.1507,1.2417V46.2077l4.3013,2.4835,2.1507-1.2418Z"/>
        <path id="Path-74" data-name="Path" class="cls-1" d="M183.269,30.6876l-8.6019-4.9661-2.1506,1.2417,8.6027,4.9662Z"/>
        <path id="Path-75" data-name="Path" class="cls-4" d="M172.5165,26.9632V39.379l2.1506,1.2417V30.6876l4.3014,2.4836,2.1507-1.2418Z"/>
        <path id="Path-76" data-name="Path" class="cls-2" d="M176.8178,39.379v-7.45l-2.1507-1.2418v9.9331Z"/>
        <path id="Path-77" data-name="Path" class="cls-1" d="M156.3875,46.2077l-8.6018-4.9662-2.1507,1.2419,8.6027,4.966Z"/>
        <path id="Path-78" data-name="Path" class="cls-2" d="M149.9363,54.8991v-7.45l-2.1506-1.2417v9.9331Z"/>
        <path id="Path-79" data-name="Path" class="cls-1" d="M178.9685,28.2042,120.9042,61.7277l-2.1507-1.2417V58.0026l55.9136-32.2811Z"/>
        <path id="Path-80" data-name="Path" class="cls-2" d="M174.6671,30.6876V28.2042L149.9363,42.4834l2.1507,1.2408Z"/>
        <path id="Path-81" data-name="Path" class="cls-2" d="M147.7857,46.2077V43.7242L123.0548,58.0026l2.1507,1.2417Z"/>
        <path id="Path-82" data-name="Path" class="cls-5" d="M127.3562,116.3584l-10.7525-6.2079,4.3005-2.4835,10.7525,6.2079Z"/>
        <path id="Path-83" data-name="Path" class="cls-5" d="M154.2318,100.8383l-10.7527-6.2078L147.78,92.147l10.7527,6.2078Z"/>
        <path id="Path-84" data-name="Path" class="cls-5" d="M181.1072,85.3183l-10.7527-6.2078,4.3015-2.4836,10.7525,6.2079Z"/>
        <path id="Path-85" data-name="Path" class="cls-6" d="M129.506,113.8749l-2.15,1.2418v-9.9331l2.15-1.2418Z"/>
        <path id="Path-86" data-name="Path" class="cls-4" d="M125.2055,113.8749l2.1507,1.2418V103.9418l-2.1507-1.2408Z"/>
        <path id="Path-87" data-name="Path" class="cls-6" d="M156.3875,98.3548l-2.15,1.2418V89.6635l2.15-1.2417Z"/>
        <path id="Path-88" data-name="Path" class="cls-4" d="M152.087,98.3548l2.1507,1.2418V88.4218l-2.1507-1.241Z"/>
        <path id="Path-89" data-name="Path" class="cls-6" d="M149.9363,94.6305l-2.1506,1.2409V85.9391l2.1506-1.2417Z"/>
        <path id="Path-90" data-name="Path" class="cls-4" d="M145.635,94.6305l2.1507,1.2409V84.6974l-2.1507-1.2417Z"/>
        <path id="Path-91" data-name="Path" class="cls-6" d="M176.8067,79.1105l-2.1507,1.2417V70.4191l2.1507-1.2417Z"/>
        <path id="Path-92" data-name="Path" class="cls-4" d="M172.5053,79.1105l2.1507,1.2417V69.1774l-2.1507-1.2419Z"/>
        <path id="Path-93" data-name="Path" class="cls-6" d="M183.2579,82.8348l-2.1507,1.2417v-9.933l2.1507-1.241Z"/>
        <path id="Path-94" data-name="Path" class="cls-4" d="M178.9574,82.8348l2.15,1.2417V72.9025l-2.15-1.2417Z"/>
        <path id="Path-95" data-name="Path" class="cls-1" d="M129.506,61.7277l-8.6018-4.966-2.1507,1.2409,8.6027,4.9669Z"/>
        <path id="Path-96" data-name="Path" class="cls-4" d="M118.7535,58.0026v52.1479l2.1507,1.2409V61.7277l4.3013,2.4835,2.1507-1.2417Z"/>
        <path id="Path-97" data-name="Path" class="cls-2" d="M123.0548,110.1505V62.97l-2.1506-1.2418v49.6637Z"/>
        <path id="Path-98" data-name="Path" class="cls-4" d="M127.3562,111.3914l-8.6027-4.9661v-2.4835l8.6027,4.967Z"/>
        <path id="Path-99" data-name="Path" class="cls-1" d="M125.2055,105.1836l-2.1507-1.2418-2.1506,1.2418,4.3013,2.4834Z"/>
        <path id="Path-100" data-name="Path" class="cls-1" d="M125.2055,95.2513V92.7679L123.0548,94.01v2.4826Z"/>
        <path id="Path-101" data-name="Path" class="cls-1" d="M125.2055,102.701v-2.4836l-2.1507,1.2417v2.4827Z"/>
        <path id="Path-102" data-name="Path" class="cls-2" d="M125.2055,97.734l-2.1507-1.2418,2.1507-1.2409Z"/>
        <path id="Path-103" data-name="Path" class="cls-2" d="M125.2055,105.1836l-2.1507-1.2418,2.1507-1.2408Z"/>
        <path id="Path-104" data-name="Path" class="cls-4" d="M127.3562,101.4591l-8.6027-4.9669v2.4835l8.6027,4.9661Z"/>
        <path id="Path-105" data-name="Path" class="cls-1" d="M123.0548,96.4922l-2.1506,1.2418,4.3013,2.4834V97.734Z"/>
        <path id="Path-106" data-name="Path" class="cls-4" d="M125.2055,61.7277l2.1507,1.2418v42.2141l-2.1507-1.2418Z"/>
        <path id="Path-107" data-name="Path" class="cls-4" d="M147.7857,43.7242l4.3013,2.4835-2.1507,1.2417-2.1506-1.2417Z"/>
        <path id="Path-108" data-name="Path" class="cls-4" d="M174.6671,28.2042l4.3014,2.4834-2.1507,1.2418-2.1507-1.2418Z"/>
      </g>
      <g id="Group-4" data-name="Group">
        <g id="Group-5" data-name="Group">
          <path id="Path-109" data-name="Path" class="cls-4" d="M125.2133,61.7166l2.15,1.2409v42.2011l-2.15-1.2417Z"/>
          <path id="Path-110" data-name="Path" class="cls-7" d="M128.438,99.5733l-1.0749.62-2.15-1.2409v4.9644l2.15,1.2417,1.0749-.6208Z"/>
          <path id="Path-111" data-name="Path" class="cls-7" d="M128.438,62.3365V66.061l-1.0749.62-2.15-1.2409V61.7166l2.15,1.2409Z"/>
          <path id="Path-112" data-name="Path" class="cls-2" d="M129.5129,59.234l-2.15,3.7235v42.2011l55.8956-32.2715V30.686l-2.15-1.2409Z"/>
          <path id="Path-113" data-name="Path" class="cls-8" d="M183.2587,65.44,127.3631,97.7116v7.447l55.8956-32.2715Z"/>
          <path id="Path-114" data-name="Path" class="cls-8" d="M183.2587,30.686v7.4478L127.3631,70.4045v-7.447Z"/>
          <path id="Path-115" data-name="Path" class="cls-9" d="M125.2133,61.7166l2.15,1.2409L183.2587,30.686l-2.15-1.2409Z"/>
        </g>
        <g id="Group-6" data-name="Group">
          <path id="Path-116" data-name="Path" d="M183.2587,34.41,127.3631,66.6809v33.5125l55.8956-32.2707Z"/>
          <g id="Group-7" data-name="Group">
            <path id="Path-117" data-name="Path" class="cls-10" d="M142.9219,76.2331c0,.3156.2563.424.5719.2416l2.9753-1.7172V73.6129l-2.9753,1.7181A1.1871,1.1871,0,0,0,142.9219,76.2331Z"/>
            <polygon id="Rectangle" class="cls-10" points="140.901 65.742 144.448 63.694 144.448 67.47 140.901 69.518 140.901 65.742"/>
            <path id="Compound_Path" data-name="Compound Path" class="cls-3" d="M147.0632,69.0939l-5.6867,3.2824v1.6021l4.8638-2.8077c.1266-.0732.2288-.0293.2288.0962v.7439l-2.9237,1.688a4.6731,4.6731,0,0,0-2.2239,3.3745,1.2122,1.2122,0,0,0,.6063,1.2408,1.7546,1.7546,0,0,0,1.566-.2373l4.5774-2.6426V69.52c-.0009-.5564-.4516-.7464-1.008-.4257Zm-.5941,5.6636-2.9753,1.7172c-.3156.1832-.5719.0749-.5719-.2416a1.1871,1.1871,0,0,1,.5719-.9021l2.9753-1.7181Z"/>
            <path id="Path-118" data-name="Path" class="cls-3" d="M137.0287,75.8952V81.81l1.6021-.9252v-5.32l2.2315-1.2882V72.6738l-2.8256,1.6314A2.0925,2.0925,0,0,0,137.0287,75.8952Z"/>
            <path id="Path-119" data-name="Path" class="cls-3" d="M152.3253,66.0558l-2.5592,1.4774A2.2144,2.2144,0,0,0,148.7,69.2143v5.7409c.0008.0645.0524.086.1161.0491l1.3707-.7912a.24.24,0,0,0,.1152-.1823V69.0552a.4785.4785,0,0,1,.23-.362l1.0294-.5942c.1264-.0731.2288-.03.2288.0962v4.9766c0,.0636.0517.0859.1161.049l1.3707-.7912a.24.24,0,0,0,.1153-.1832v-5.74c-.0008-.5881-.4774-.79-1.0663-.45Z"/>
            <polygon id="Rectangle-2" data-name="Rectangle" class="cls-3" points="160.009 61.575 161.611 60.65 161.611 67.573 160.009 68.497 160.009 61.575"/>
            <path id="Path-120" data-name="Path" class="cls-3" d="M132.5657,70.0613V75.976l1.6021-.9253V69.73l2.2315-1.2882V66.84l-2.8258,1.6312a2.0933,2.0933,0,0,0-1.0078,1.59Z"/>
            <polygon id="Rectangle-3" data-name="Rectangle" class="cls-3" points="136.953 66.476 138.555 65.551 138.555 72.474 136.953 73.399 136.953 66.476"/>
            <path id="Compound_Path-2" data-name="Compound Path" class="cls-3" d="M140.6706,71.2971l4.1595-2.4018a2.69,2.69,0,0,0,1.2951-2.0441V60.3089l-1.6012.9252v.8583l-3.8534,2.2246a2.69,2.69,0,0,0-1.2959,2.0441v4.3882C139.3755,71.4639,139.9552,71.709,140.6706,71.2971Zm.3061-5.5552,3.5473-2.0474V67.47l-3.5473,2.0475Z"/>
            <path id="Path-121" data-name="Path" class="cls-3" d="M152.3244,62.9661l-3.91,2.2581v-1.087l3.91-2.2581v-1.602l-3.91,2.2582v-1.087l3.91-2.2582V57.588l-4.2163,2.4345a2.6914,2.6914,0,0,0-1.2959,2.0441v4.3882c.0008.7155.58.96,1.2959.5478l4.2163-2.4345Z"/>
            <path id="Path-122" data-name="Path" class="cls-3" d="M157.4968,65.7015l-1.3768.7946c-.2828.1625-.5124.0644-.5124-.2193a1.0694,1.0694,0,0,1,.5124-.81l3.35-1.9348V61.93l-3.35,1.9348a4.3883,4.3883,0,0,0-2.1128,3.3366c0,1.1677.9451,1.5685,2.1128.8968l1.3768-.7946c.1945-.1135.375-.1135.4722-.0017a.5357.5357,0,0,1,0,.5453,1.2,1.2,0,0,1-.4722.5434l-3.4225,1.9761v1.6012l3.4225-1.9752a4.45,4.45,0,0,0,2.1413-3.3821c0-1.1834-.958-1.59-2.1413-.909Z"/>
            <path id="Path-123" data-name="Path" class="cls-3" d="M134.1678,75.5658l-1.6021.9253v6.8871c.0009.5565.4514.7465,1.0078.4257l2.8258-1.63V80.5715l-2.002,1.1557c-.1264.0731-.23.0292-.23-.0972V78.026l2.2315-1.2881V75.1358l-2.2315,1.2882Z"/>
            <path id="Path-124" data-name="Path" class="cls-3" d="M163.9188,58.39l-1.6021.9245v6.8879c.0009.5555.4516.7465,1.008.4257l2.8256-1.6313v-1.602l-2.0045,1.1575c-.1256.0722-.227.0293-.227-.0964V60.85l2.2315-1.2889V57.96l-2.2315,1.2882Z"/>
            <polygon id="Rectangle-4" data-name="Rectangle" class="cls-3" points="166.532 63.13 168.134 62.205 168.134 63.807 166.532 64.732 166.532 63.13"/>
          </g>
          <path id="Path-125" data-name="Path" class="cls-11" d="M127.3631,92.7463l55.8956-32.2714V59.234L127.3631,91.5055Z"/>
          <path id="Path-126" data-name="Path" class="cls-12" d="M127.3631,92.7463l55.8956-32.2714v7.4478l-55.8956,32.2707Z"/>
          <g id="Group-8" data-name="Group">
            <path id="Path-127" data-name="Path" class="cls-11" d="M177.8841,42.4773l3.2248-1.8617v1.2417l-3.2248,1.8618Z"/>
            <path id="Path-128" data-name="Path" class="cls-13" d="M177.8841,41.2364l3.2248-1.8617v1.2409l-3.2248,1.8617Z"/>
            <path id="Path-129" data-name="Path" class="cls-14" d="M177.8841,39.9955l3.2248-1.8617v1.2409l-3.2248,1.8617Z"/>
          </g>
        </g>
      </g>
    </g>
  </g>
</svg>
