<svg id="Layer_1" data-name="Layer 1" xmlns="http://www.w3.org/2000/svg" viewBox="0 0 500 438.7863">
  <defs>
    <style>
      .window-R-prim {
        fill: #bd9664;
      }

      .window-L-prim {
        fill: #4d3b24;
      }

      .top-dark {
        fill: #c67471;
      }

      .exterior-R-prim {
        fill: #d05752;
      }

      .exterior-L-prim {
        fill: #73302e;
      }

      .top-prim {
        fill: #dd8a87;
      }

      .window-R-light {
        fill: #eacb87;
      }

      .window-L-light {
        fill: #795a30;
      }
    </style>
  </defs>
  <title>Artboard 33</title>
  <g id="root">
    <g id="Group">
      <path id="Path" class="window-R-prim" d="M460,294.4486V254.0341L250,375.2777v40.4144Z"/>
      <path id="Path-2" data-name="Path" class="window-L-prim" d="M40,294.4486V254.0341l200,115.47v40.4145Z"/>
      <path id="anchor_0_288.675_500" class="top-dark" d="M0,144.3376v11.547L250,300.2222,500,155.8846v-11.547L250,0Z"/>
      <path id="Path-3" data-name="Path" class="exterior-R-prim" d="M250,288.675v92.3761L500,236.7136V144.3375Z"/>
      <path id="Path-4" data-name="Path" class="exterior-L-prim" d="M250,288.675v92.3761L0,236.7136V144.3375Z"/>
      <path id="Path-5" data-name="Path" class="window-R-prim" d="M260,305.9956,485,176.0918v51.9615L260,357.9572Z"/>
      <path id="Path-6" data-name="Path" class="window-L-prim" d="M240,305.9956,15,176.0918v51.9615L240,357.9572Z"/>
      <path id="Path-7" data-name="Path" class="exterior-R-prim" d="M250,300.2222v11.547L500,167.4316v-11.547Z"/>
      <path id="Path-8" data-name="Path" class="exterior-R-prim" d="M250,369.5042v11.5469L500,236.7136v-11.547Z"/>
      <path id="Path-9" data-name="Path" class="top-prim" d="M440,254.0343l15-8.66,5,2.8868-20,11.547Z"/>
      <path id="Path-10" data-name="Path" class="top-prim" d="M470,236.7136l15-8.66,5,2.8866-20,11.547Z"/>
      <path id="Path-11" data-name="Path" class="top-prim" d="M260,357.9573l15-8.66,5,2.8867-20,11.547Z"/>
      <path id="Path-12" data-name="Path" class="top-prim" d="M320,323.3163l15-8.66,5,2.8868L320,329.09Z"/>
      <path id="Path-13" data-name="Path" class="top-prim" d="M380,288.6753l15-8.66,5,2.8869-20,11.547Z"/>
      <path id="Path-14" data-name="Path" class="top-prim" d="M290,340.6368l15-8.66,5,2.8867L290,346.41Z"/>
      <path id="Path-15" data-name="Path" class="top-prim" d="M350,305.9958l15-8.66,5,2.8869-20,11.547Z"/>
      <path id="Path-16" data-name="Path" class="top-prim" d="M410,271.3549l15-8.66,5,2.8868-20,11.547Z"/>
      <path id="Path-17" data-name="Path" class="exterior-R-prim" d="M250,300.2222l10-5.7735v80.829l-10,5.7736Z"/>
      <path id="Path-18" data-name="Path" class="exterior-L-prim" d="M275,297.3354l10-5.7735V355.07l-10-5.7734Z"/>
      <path id="Path-19" data-name="Path" class="exterior-L-prim" d="M335,262.6945l10-5.7736v63.5085l-10-5.7734Z"/>
      <path id="Path-20" data-name="Path" class="exterior-L-prim" d="M395,228.0533l10-5.7734v63.5086l-10-5.7736Z"/>
      <path id="Path-21" data-name="Path" class="exterior-L-prim" d="M305,280.0149l10-5.7734V337.75l-10-5.7735Z"/>
      <path id="Path-22" data-name="Path" class="exterior-R-prim" d="M240,433.0127V282.9016l10,5.7734,10-5.7734V433.0127l-10,5.7736Z"/>
      <path id="Path-23" data-name="Path" class="exterior-L-prim" d="M365,245.3739l10-5.7734v63.5084l-10-5.7735Z"/>
      <path id="Path-24" data-name="Path" class="exterior-R-prim" d="M370,230.94l10-5.7735v80.829l-10,5.7736Z"/>
      <path id="Path-25" data-name="Path" class="exterior-L-prim" d="M425,210.7328l10-5.7734v63.5085l-10-5.7736Z"/>
      <path id="Path-26" data-name="Path" class="exterior-R-prim" d="M360,363.7307V305.9956l20-11.547v69.2822l-10,5.7735Z"/>
      <path id="Path-27" data-name="Path" class="exterior-L-prim" d="M455,193.4124l10-5.7736v63.5087l-10-5.7737Z"/>
      <path id="Path-28" data-name="Path" class="exterior-L-prim" d="M485,176.092l10-5.7736v63.5085l-10-5.7734Z"/>
      <path id="Path-29" data-name="Path" class="exterior-R-prim" d="M310,265.5811l10-5.7736v80.829L310,346.41Z"/>
      <path id="Path-30" data-name="Path" class="exterior-R-prim" d="M300,398.3717v-57.735L320,329.09v69.2822l-10,5.7736Z"/>
      <path id="Path-31" data-name="Path" class="exterior-R-prim" d="M430,196.299l10-5.7734v80.8289l-10,5.7736Z"/>
      <path id="Path-32" data-name="Path" class="exterior-R-prim" d="M420,329.09V271.3546l20-11.5471V329.09l-10,5.7736Z"/>
      <path id="Path-33" data-name="Path" class="exterior-R-prim" d="M280,282.9017l10-5.7734v80.829l-10,5.7735Z"/>
      <path id="Path-34" data-name="Path" class="exterior-R-prim" d="M400,213.62l10-5.7735v80.829l-10,5.7736Z"/>
      <path id="Path-35" data-name="Path" class="exterior-R-prim" d="M340,248.2606l10-5.7735v80.8291L340,329.09Z"/>
      <path id="Path-36" data-name="Path" class="exterior-R-prim" d="M460,178.9786l10-5.7735v80.829l-10,5.7736Z"/>
      <path id="Path-37" data-name="Path" class="exterior-R-prim" d="M490,161.6583l10-5.7735v80.8291l-10,5.7735Z"/>
      <path id="Path-38" data-name="Path" class="exterior-R-prim" d="M480,294.4486v-57.735l20-11.5469v69.282l-10,5.7736Z"/>
      <path id="Path-39" data-name="Path" class="exterior-L-prim" d="M300,352.1836l10-5.7734V404.145l-10-5.7733Z"/>
      <path id="Path-40" data-name="Path" class="exterior-L-prim" d="M360,317.5427l10-5.7735v57.735l-10-5.7736Z"/>
      <path id="Path-41" data-name="Path" class="exterior-L-prim" d="M420,282.9017l10-5.7736V334.863L420,329.09Z"/>
      <path id="Path-42" data-name="Path" class="exterior-L-prim" d="M480,248.2606l10-5.7734v57.735l-10-5.7736Z"/>
      <path id="Path-43" data-name="Path" class="exterior-L-prim" d="M250,300.2222v11.547L0,167.4316v-11.547Z"/>
      <path id="Path-44" data-name="Path" class="exterior-L-prim" d="M250,369.5042v11.5469L0,236.7136v-11.547Z"/>
      <path id="Path-45" data-name="Path" class="top-prim" d="M60,254.0343l-15-8.66-5,2.8868,20,11.547Z"/>
      <path id="Path-46" data-name="Path" class="top-prim" d="M30,236.7136l-15-8.66L10,230.94l20,11.547Z"/>
      <path id="Path-47" data-name="Path" class="top-prim" d="M240,357.9573l-15-8.66-5,2.8867,20,11.547Z"/>
      <path id="Path-48" data-name="Path" class="top-prim" d="M180,323.3163l-15-8.66-5,2.8868,20,11.547Z"/>
      <path id="Path-49" data-name="Path" class="top-prim" d="M120,288.6753l-15-8.66-5,2.8869,20,11.547Z"/>
      <path id="Path-50" data-name="Path" class="top-prim" d="M210,340.6368l-15-8.66-5,2.8867,20,11.547Z"/>
      <path id="Path-51" data-name="Path" class="top-prim" d="M150,305.9958l-15-8.66-5,2.8869,20,11.547Z"/>
      <path id="Path-52" data-name="Path" class="top-prim" d="M90,271.3549l-15-8.66-5,2.8868,20,11.547Z"/>
      <path id="Path-53" data-name="Path" class="exterior-L-prim" d="M250,288.675l-10-5.7734-10-5.7735V300.222l10,5.7736v69.2821l10,5.7736Z"/>
      <path id="Path-54" data-name="Path" class="exterior-L-prim" d="M250,369.5042l-10-5.7736v69.2821l10,5.7736Z"/>
      <path id="Path-55" data-name="Path" class="exterior-R-prim" d="M225,297.3354l-10-5.7735V355.07l10-5.7734Z"/>
      <path id="Path-56" data-name="Path" class="exterior-R-prim" d="M165,262.6945l-10-5.7736v63.5085l10-5.7734Z"/>
      <path id="Path-57" data-name="Path" class="exterior-R-prim" d="M105,228.0533,95,222.28v63.5086l10-5.7736Z"/>
      <path id="Path-58" data-name="Path" class="exterior-R-prim" d="M195,280.0149l-10-5.7734v57.7349l5,2.8868,5-2.8868Z"/>
      <path id="Path-59" data-name="Path" class="exterior-R-prim" d="M135,245.3739l-10-5.7734v63.5084l10-5.7735Z"/>
      <path id="Path-60" data-name="Path" class="exterior-L-prim" d="M130,230.94l-10-5.7735v80.829l10,5.7736Z"/>
      <path id="Path-61" data-name="Path" class="exterior-R-prim" d="M75,210.7328l-10-5.7734v63.5085l10-5.7736Z"/>
      <path id="Path-62" data-name="Path" class="exterior-L-prim" d="M140,363.7307V305.9956l-20-11.547v69.2822l10,5.7735Z"/>
      <path id="Path-63" data-name="Path" class="exterior-R-prim" d="M45,193.4124l-10-5.7736v63.5087l10-5.7737Z"/>
      <path id="Path-64" data-name="Path" class="exterior-R-prim" d="M15,176.092,5,170.3184v63.5085l10-5.7734Z"/>
      <path id="Path-65" data-name="Path" class="exterior-L-prim" d="M190,340.6367V265.5811l-10-5.7736v80.829l10,5.7737Z"/>
      <path id="Path-66" data-name="Path" class="exterior-L-prim" d="M200,398.3717v-57.735L180,329.09v69.2822l10,5.7736Z"/>
      <path id="Path-67" data-name="Path" class="exterior-L-prim" d="M70,196.299l-10-5.7734v80.8289l10,5.7736Z"/>
      <path id="Path-68" data-name="Path" class="exterior-L-prim" d="M80,329.09V271.3546l-10-5.7737-10-5.7734V329.09l10,5.7736Z"/>
      <path id="Path-69" data-name="Path" class="exterior-L-prim" d="M220,282.9017l-10-5.7734v80.829l10,5.7735Z"/>
      <path id="Path-70" data-name="Path" class="exterior-L-prim" d="M100,213.62l-10-5.7735v80.829l10,5.7736Z"/>
      <path id="Path-71" data-name="Path" class="exterior-L-prim" d="M160,248.2606l-10-5.7735v80.8291l10,5.7735Z"/>
      <path id="Path-72" data-name="Path" class="exterior-L-prim" d="M40,178.9786l-10-5.7735v80.829l10,5.7736Z"/>
      <path id="Path-73" data-name="Path" class="exterior-L-prim" d="M10,161.6583,0,155.8848v80.8291l10,5.7735Z"/>
      <path id="Path-74" data-name="Path" class="exterior-L-prim" d="M20,294.4486v-57.735L0,225.1667v69.282l10,5.7736Z"/>
      <path id="Path-75" data-name="Path" class="exterior-R-prim" d="M200,352.1836,190,346.41V404.145l10-5.7733Z"/>
      <path id="Path-76" data-name="Path" class="exterior-R-prim" d="M140,317.5427l-10-5.7735v57.735l10-5.7736Z"/>
      <path id="Path-77" data-name="Path" class="exterior-R-prim" d="M80,282.9017l-10-5.7736V334.863L80,329.09Z"/>
      <path id="Path-78" data-name="Path" class="exterior-R-prim" d="M20,248.2606l-10-5.7734v57.735l10-5.7736Z"/>
      <path id="Path-79" data-name="Path" class="window-R-light" d="M260,409.9187l20-11.547v-34.641l-20,11.547Z"/>
      <path id="Path-80" data-name="Path" class="window-L-light" d="M240,409.9187l-20-11.547v-34.641l20,11.547Z"/>
      <path id="Path-81" data-name="Path" class="window-R-light" d="M380,340.6367l20-11.547v-34.641l-20,11.547Z"/>
      <path id="Path-82" data-name="Path" class="window-L-light" d="M120,340.6367,100,329.09v-34.641l20,11.547Z"/>
      <path id="Path-83" data-name="Path" class="window-R-light" d="M320,375.2777l20-11.547V329.09l-20,11.547Z"/>
      <path id="Path-84" data-name="Path" class="window-L-light" d="M180,375.2776l-20-11.547V329.09l20,11.5469Z"/>
      <path id="Path-85" data-name="Path" class="window-R-light" d="M440,305.9957l20-11.547v-34.641l-20,11.547Z"/>
      <path id="Path-86" data-name="Path" class="window-L-light" d="M60,305.9956l-20-11.547v-34.641l20,11.547Z"/>
    </g>
  </g>
</svg>
