<svg id="Layer_1" data-name="Layer 1" xmlns="http://www.w3.org/2000/svg" viewBox="0 0 580 379.607">
  <defs>
    <style>
      .exterior-L-light {
        fill: #8a3a37;
      }

      .exterior-R-light {
        fill: #df5d58;
      }

      .top-prim {
        fill: #dd8a87;
      }

      .exterior-L-prim {
        fill: #73302e;
      }

      .exterior-R-prim {
        fill: #d05752;
      }

      .top-light {
        fill: #ffc8c6;
      }

      .slope-top-prim{
        fill: #fff1d8;
      }

      .crown-top-prim{
        fill: #e5f7e3;
      }

      .crown-L-dark {
        fill: #6e806c;
      }

      .crown-R-dark {
        fill: #a6c6a4;
      }

      .crown-L-prim{
        fill: #8fa88c;
      }

      .crown-R-prim{
        fill: #bfd7bd;
      }

      .window-L-prim {
        fill: #4d3b24;
      }

      .cls-1 {
        fill: #2e2e2e;
      }

      .window-R-prim {
        fill: #bd9664;
      }

      .cls-2 {
        fill: #484848;
      }

      .slope-L-prim{
        fill: #c3af8a;
      }

      .slope-L-dark {
        fill: #ae9a76;
      }

      .slope-R-prim{
        fill: #eed9b3;
      }

      .slope-R-dark {
        fill: #dfcaa3;
      }
    </style>
  </defs>
  <title>Artboard 7</title>
  <g id="root">
    <g>
      <path class="exterior-L-light" d="M160,66.395l-3.75-2.165V61.343l-5-2.887-2.5,1.444L145,57.735V12.99l15,8.66Z"/>
      <path class="exterior-R-light" d="M175,57.735,171.25,59.9l-2.5-1.444-5,2.887V64.23L160,66.395V21.65l15-8.66Z"/>
      <path class="top-prim" d="M160,0l18.75,10.825L160,21.65,141.25,10.825Z"/>
      <path class="exterior-L-prim" d="M141.25,10.825,160,21.65l3.75-2.165v4.33L160,25.98,141.25,15.155Z"/>
      <path class="exterior-R-prim" d="M178.75,10.825v4.33L160,25.98V21.65Z"/>
      <path class="exterior-L-light" d="M160,17.32l-11.25-6.495L160,4.33l11.25,6.495Z"/>
      <path class="exterior-R-light" d="M160,4.33V17.32l-11.25-6.495Z"/>
      <path class="exterior-L-prim" d="M148.75,23.815l7.5,4.33V64.23l-7.5-4.33Z"/>
      <path class="exterior-R-prim" d="M171.25,23.815l-7.5,4.33V64.23l7.5-4.33Z"/>
      <path class="exterior-L-prim" d="M168.75,58.456l2.5,1.444V23.815l-2.5,1.444Z"/>
      <path class="exterior-R-light" d="M148.75,59.9l2.5-1.444V25.259l-2.5-1.444Z"/>
    </g>
    <path class="top-light" d="M290,344.966l-10,5.774L120,258.364V246.817L90,229.496V217.949L0,165.988,127.5,92.376l230,132.79L450,171.761l130,75.056-80,46.188v11.547L390,368.06l-10-5.773-30,17.32Z"/>
    <path class="top-prim" d="M290,339.193l-10,5.773L125,255.477V243.93L95,226.61V215.063L10,165.988,127.5,98.149l230,132.791L450,177.535l120,69.282-75,43.301v11.547L390,362.287l-10-5.774-30,17.321Z"/>
    <path class="exterior-L-light" d="M120,102.479v11.547l7.5-4.33,230,132.791V230.94L127.5,98.149Z"/>
    <path class="exterior-L-light" d="M445,180.421v11.547l5-2.886L560,252.59l10-5.773L450,177.535Z"/>
    <path class="exterior-R-light" d="M127.5,109.696V98.149L10,165.988l10,5.773Z"/>
    <path class="exterior-R-light" d="M450,189.082V177.535L357.5,230.94v11.547Z"/>
    <path class="slope-top-prim" d="M480,96.706V85.159l-10-5.774L350,148.667,95,1.443,85,7.216V18.763L350,171.761Z"/>
    <path class="exterior-L-light" d="M350,362.287,27.5,176.091V118.356L350,304.552Z"/>
    <path class="exterior-R-light" d="M350,304.552,540,194.855V252.59L350,362.287Z"/>
    <path class="crown-top-prim" d="M17.5,112.583,350,304.552l200-115.47-80-46.188L355,209.289,102.5,63.508Z"/>
    <path class="crown-L-dark" d="M355,307.439v11.547l-5,2.886L27.5,135.677l-5-8.66v-5.774L350,310.325Z"/>
    <path class="crown-R-dark" d="M350,321.872,540,212.176l5-8.66v-5.774L350,310.325Z"/>
    <path class="crown-L-prim" d="M17.5,112.583,350,304.552l5-2.887v11.547l-5,2.887L17.5,124.13Z"/>
    <path class="crown-R-prim" d="M550,189.082v11.547L350,316.099V304.552Z"/>
    <path class="window-L-prim" d="M302.5,303.108l10,5.774v20.207l-10-5.773Z"/>
    <path class="window-L-prim" d="M45,154.441l10,5.773v20.208l-10-5.774Z"/>
    <path class="window-L-prim" d="M325,316.099l10,5.773V342.08l-10-5.774Z"/>
    <path class="window-L-prim" d="M67.5,167.431l10,5.774v20.207l-10-5.774Z"/>
    <path class="cls-1" d="M415,304.552l-10,5.773v20.208l10-5.774Z"/>
    <path class="top-prim" d="M312.5,331.976,300,324.759v-2.887l2.5-1.443v2.887l10,5.773Z"/>
    <path class="top-prim" d="M55,183.308l-12.5-7.217v-2.886l2.5-1.444v2.887l10,5.773Z"/>
    <path class="top-prim" d="M335,344.966l-12.5-7.217v-2.886l2.5-1.444v2.887l10,5.773Z"/>
    <path class="top-prim" d="M77.5,196.299,65,189.082v-2.887l2.5-1.443v2.886l10,5.774Z"/>
    <path class="exterior-R-light" d="M300,301.665l2.5,1.443v20.208l-2.5,1.443Z"/>
    <path class="exterior-R-light" d="M42.5,152.997l2.5,1.444v20.207l-2.5,1.443Z"/>
    <path class="exterior-R-light" d="M322.5,314.655l2.5,1.444v20.207l-2.5,1.443Z"/>
    <path class="exterior-R-light" d="M65,165.988l2.5,1.443v20.207L65,189.082Z"/>
    <path class="cls-1" d="M312.5,318.985l-10-5.773v-1.443l10,5.773Z"/>
    <path class="cls-1" d="M55,170.318l-10-5.774v-1.443l10,5.773Z"/>
    <path class="cls-1" d="M335,331.976l-10-5.774v-1.443l10,5.773Z"/>
    <path class="cls-1" d="M77.5,183.308l-10-5.773v-1.444l10,5.774Z"/>
    <g>
      <path class="window-R-prim" d="M375,316.099l-10,5.773V342.08l10-5.774Z"/>
      <path class="top-prim" d="M365,344.966l12.5-7.217v-2.886l-2.5-1.444v2.887l-10,5.774Z"/>
      <path class="exterior-L-light" d="M377.5,314.656l-2.5,1.443v20.207l2.5,1.443Z"/>
      <path class="cls-2" d="M365,331.976l10-5.774v-1.443l-10,5.774Z"/>
    </g>
    <g>
      <path class="window-R-prim" d="M500,243.93l-10,5.774v20.207l10-5.774Z"/>
      <path class="top-prim" d="M490,272.798l12.5-7.217v-2.887l-2.5-1.443v2.886l-10,5.774Z"/>
      <path class="exterior-L-light" d="M502.5,242.487,500,243.93v20.207l2.5,1.444Z"/>
      <path class="cls-2" d="M490,259.807l10-5.773V252.59l-10,5.774Z"/>
    </g>
    <g>
      <path class="window-R-prim" d="M397.5,303.108l-10,5.774v20.207l10-5.773Z"/>
      <path class="top-prim" d="M387.5,331.976l12.5-7.217v-2.887l-2.5-1.443v2.887l-10,5.773Z"/>
      <path class="exterior-L-light" d="M400,301.665l-2.5,1.443v20.208l2.5,1.443Z"/>
      <path class="cls-2" d="M387.5,318.986l10-5.774v-1.443l-10,5.773Z"/>
    </g>
    <g>
      <path class="window-R-prim" d="M522.5,230.94l-10,5.773V256.92l10-5.773Z"/>
      <path class="top-prim" d="M512.5,259.807,525,252.59v-2.887l-2.5-1.443v2.887l-10,5.773Z"/>
      <path class="exterior-L-light" d="M525,229.496l-2.5,1.444v20.207l2.5,1.443Z"/>
      <path class="cls-2" d="M512.5,246.817l10-5.774V239.6l-10,5.773Z"/>
    </g>
    <g>
      <path class="window-R-prim" d="M447.5,274.241l-10,5.773v20.208l10-5.774Z"/>
      <path class="top-prim" d="M437.5,303.108l12.5-7.216v-2.887l-2.5-1.444v2.887l-10,5.774Z"/>
      <path class="exterior-L-light" d="M450,272.798l-2.5,1.443v20.207l2.5,1.444Z"/>
      <path class="cls-2" d="M437.5,290.118l10-5.773v-1.444l-10,5.774Z"/>
    </g>
    <path class="cls-2" d="M405,320.429l10-5.774v-1.443l-10,5.773Z"/>
    <g>
      <path class="window-L-prim" d="M162.5,222.279l10,5.774V248.26l-10-5.773Z"/>
      <path class="top-prim" d="M172.5,251.147,160,243.93v-2.887l2.5-1.443v2.887l10,5.773Z"/>
      <path class="exterior-R-light" d="M160,220.836l2.5,1.443v20.208L160,243.93Z"/>
      <path class="cls-1" d="M172.5,238.157l-10-5.774V230.94l10,5.773Z"/>
      <path class="window-L-prim" d="M185,235.27l10,5.773v20.208l-10-5.774Z"/>
      <path class="window-L-prim" d="M207.5,248.26l10,5.774v20.207l-10-5.774Z"/>
      <path class="window-L-prim" d="M230,261.251l10,5.773v20.207l-10-5.773Z"/>
      <path class="window-L-prim" d="M252.5,274.241l10,5.773v20.208l-10-5.774Z"/>
      <path class="top-prim" d="M195,264.137l-12.5-7.217v-2.886l2.5-1.444v2.887l10,5.774Z"/>
      <path class="top-prim" d="M217.5,277.128,205,269.911v-2.887l2.5-1.443v2.886l10,5.774Z"/>
      <path class="top-prim" d="M240,290.118l-12.5-7.217v-2.887l2.5-1.443v2.887l10,5.773Z"/>
      <path class="top-prim" d="M262.5,303.108,250,295.892v-2.887l2.5-1.444v2.887l10,5.774Z"/>
      <path class="exterior-R-light" d="M182.5,233.826l2.5,1.444v20.207l-2.5,1.443Z"/>
      <path class="exterior-R-light" d="M205,246.817l2.5,1.443v20.207l-2.5,1.444Z"/>
      <path class="exterior-R-light" d="M227.5,259.807l2.5,1.444v20.207l-2.5,1.443Z"/>
      <path class="exterior-R-light" d="M250,272.798l2.5,1.443v20.207l-2.5,1.444Z"/>
      <path class="cls-1" d="M195,251.147l-10-5.774V243.93l10,5.774Z"/>
      <path class="cls-1" d="M217.5,264.137l-10-5.773V256.92l10,5.774Z"/>
      <path class="cls-1" d="M240,277.128l-10-5.774v-1.443l10,5.773Z"/>
      <path class="cls-1" d="M262.5,290.118l-10-5.773v-1.444l10,5.774Z"/>
    </g>
    <g>
      <path class="window-L-prim" d="M117.5,196.299l10,5.773v20.207l-10-5.773Z"/>
      <path class="window-L-prim" d="M140,209.289l10,5.774V235.27l-10-5.774Z"/>
      <path class="top-prim" d="M127.5,225.166,115,217.949v-2.886l2.5-1.444v2.887l10,5.773Z"/>
      <path class="top-prim" d="M150,238.157l-12.5-7.217v-2.887l2.5-1.443v2.886l10,5.774Z"/>
      <path class="exterior-R-light" d="M115,194.855l2.5,1.444v20.207l-2.5,1.443Z"/>
      <path class="exterior-R-light" d="M137.5,207.846l2.5,1.443v20.207l-2.5,1.444Z"/>
      <path class="cls-1" d="M127.5,212.176l-10-5.774v-1.443l10,5.773Z"/>
      <path class="cls-1" d="M150,225.166l-10-5.773v-1.444l10,5.774Z"/>
    </g>
    <path class="exterior-L-prim" d="M350,321.872l-15-8.66v40.415l15,8.66Z"/>
    <path class="exterior-R-prim" d="M350,321.872l15-8.66v40.415l-15,8.66Z"/>
    <path class="exterior-R-prim" d="M475,249.704l15-8.661v40.415l-15,8.66Z"/>
    <path class="exterior-L-prim" d="M92.5,173.205l-15-8.661v40.415l15,8.66Z"/>
    <path class="exterior-L-prim" d="M300,293.005l-15-8.66v40.414l15,8.66Z"/>
    <path class="exterior-R-prim" d="M400,293.005l15-8.66v40.414l-15,8.66Z"/>
    <path class="exterior-R-prim" d="M525,220.836l15-8.66V252.59l-15,8.661Z"/>
    <path class="exterior-L-prim" d="M42.5,144.337l-15-8.66v40.414l15,8.661Z"/>
    <path class="slope-L-prim" d="M27.5,101.036l2.5,7.217L350,293.005l10-5.774V154.441l-10,5.773L85,7.216Z"/>
    <path class="slope-L-dark" d="M350,298.778,27.5,112.583V101.036L350,287.231Z"/>
    <path class="slope-R-prim" d="M350,160.214V293.005L540,183.308v-5.773L480,85.159Z"/>
    <path class="slope-R-dark" d="M350,287.231,540,177.535v11.547L350,298.778Z"/>
    <path class="slope-L-dark" d="M42.5,98.149,340,269.911V165.988L90,21.65Z"/>
    <path class="slope-R-dark" d="M522.5,176.091,360,269.911V165.988L475,99.592Z"/>
    <path class="slope-top-prim" d="M340,269.911v-5.774L45,93.819l-2.5,4.33Z"/>
    <path class="slope-top-prim" d="M360,269.911v-5.774l155-89.489,7.5,1.443Z"/>
    <path class="slope-L-prim" d="M475,99.592l47.5,76.499-7.5-1.443-45-72.169Z"/>
    <path class="slope-R-prim" d="M90,21.65,42.5,98.149,50,96.706,95,24.537Z"/>
  </g>
</svg>
