<?xml version="1.0" encoding="utf-8"?>
<svg version="1.1" id="Layer_1"
	 xmlns="http://www.w3.org/2000/svg" xmlns:xlink="http://www.w3.org/1999/xlink" x="0px" y="0px" viewBox="0 0 280 161.66"
	 style="enable-background:new 0 0 280 161.66;" xml:space="preserve">
<style type="text/css">
	<!--.exterior_x002D_L2{fill:#B0A59B;}-->
	<!--.exterior_x002D_R4{fill:#F7F2EF;}-->
	<!--.top_x002D_T4{fill:#FFFCFA;}-->
	<!--.top_x002D_T3{fill:#FFFCFA;}-->
	<!--.top_x002D_T1{fill:#F7F3F1;}-->
	<!--.top_x002D_T2{fill:#F7F3F2;}-->
	.st0{fill:#F9F9F9;}
	.st1{fill:#A2A2A2;}
	.st2{fill:#D1D1D1;}
	.st3{fill:#464646;}
	.st4{fill:#B9B9B9;}
</style>
<switch>

	<g>
		<g id="Group_4_">
			<path id="top-T1" class="top_x002D_T4" d="M160,0l120,69.28l-160,92.38L0,92.38L160,0z"/>
			<path id="top-T2" class="top_x002D_T4" d="M160,11.55l100,57.73l-140,80.83L20,92.38L160,11.55z"/>
			<path id="Path" class="exterior_x002D_L2" d="M160,11.55v34.64l70,40.41l30-17.32L160,11.55z"/>
			<path id="Path_1_" class="exterior_x002D_R4" d="M160,11.55v34.64L50,109.7L20,92.38L160,11.55z"/>
			<path id="Path_2_" class="top_x002D_T4" d="M95,72.17l70-40.42l65,37.53l-68.46,41.75L95,72.17z"/>
			<path id="Path_3_" class="exterior_x002D_L2" d="M95,72.17v23.09l60,34.64l5-2.88V109.7L95,72.17z"/>
			<path id="Path_4_" class="exterior_x002D_R4" d="M230,69.28V86.6l-70,40.42V109.7L230,69.28z"/>
			<path id="Path_5_" class="top_x002D_T2" d="M105,72.17l60-34.64l55,31.75l-60,34.64L105,72.17z"/>
			<g id="Group_3_">
				<path id="Path_6_" class="st0" d="M147.5,119.8L130,129.9L77.5,99.59L95,89.49L147.5,119.8z"/>
				<path id="Path_7_" class="st1" d="M130,129.9v14.44l17.5-10.11V119.8L130,129.9z"/>
				<path id="Path_8_" class="st2" d="M77.5,99.59v25.98l42.5,24.54l10-5.77V129.9L77.5,99.59z"/>
				<path id="Path_9_" class="st3" d="M125,132.79l-12.5-7.22v14.44l12.5,7.21V132.79z"/>
				<path id="Path_10_" class="st3" d="M107.5,122.69l-10-5.78v14.44l10,5.77V122.69z"/>
				<path id="Path_11_" class="st3" d="M92.5,114.03L80,106.81v14.43l12.5,7.22V114.03z"/>
				<g id="Group">
					<ellipse id="Ellipse" vector-effect="non-scaling-stroke" class="st4" cx="128.35" cy="118.18" rx="7.08" ry="4.09"/>
					<rect id="Rectangle" x="121.27" y="114.62" class="st4" width="14.15" height="3.56"/>

						<ellipse id="Ellipse_1_" vector-effect="non-scaling-stroke" class="top_x002D_T4" cx="128.35" cy="114.62" rx="7.08" ry="4.09"/>
				</g>
				<g id="Group_1_">
					<ellipse id="Ellipse_2_" vector-effect="non-scaling-stroke" class="st4" cx="111.17" cy="108.57" rx="7.08" ry="4.09"/>
					<rect id="Rectangle_1_" x="104.09" y="105.01" class="st4" width="14.15" height="3.56"/>

						<ellipse id="Ellipse_3_" vector-effect="non-scaling-stroke" class="top_x002D_T4" cx="111.17" cy="105.01" rx="7.08" ry="4.09"/>
				</g>
				<g id="Group_2_">
					<ellipse id="Ellipse_4_" vector-effect="non-scaling-stroke" class="st4" cx="94" cy="98.96" rx="7.08" ry="4.09"/>
					<rect id="Rectangle_2_" x="86.92" y="95.4" class="st4" width="14.15" height="3.56"/>
					<ellipse id="Ellipse_5_" vector-effect="non-scaling-stroke" class="top_x002D_T4" cx="94" cy="95.4" rx="7.08" ry="4.09"/>
				</g>
			</g>
		</g>


	</g>
</switch>
</svg>
