<svg id="Layer_1" data-name="Layer 1" xmlns="http://www.w3.org/2000/svg" viewBox="0 0 310 178.978">
  <defs>
    <style>
      .cls-1 {
        fill: #b9b9b9;
      }

      .cls-2 {
        fill: #8b8b8b;
      }

      .cls-3 {
        fill: #2e2e2e;
      }

      .cls-4 {
        fill: #5d5d5d;
      }

      .cls-5 {
        fill: #7b7b7b;
      }

      .cls-6 {
        opacity: 0.5;
      }

      .cls-7 {
        fill: #fff;
      }

      .cls-8 {
        fill: #999;
      }

      .cls-9 {
        fill: #ee5757;
      }

      .cls-10 {
        fill: #f7f7f7;
      }

      .cls-11 {
        fill: #ececec;
      }
    </style>
  </defs>
  <title>Artboard 6</title>
  <g id="root">
    <path class="cls-1" d="M0,92.376,160,0,310,86.6021,150,178.978Z"/>
    <path class="cls-2" d="M160,5.773,300.037,86.6021l-150,86.6029L10,92.376Z"/>
    <path class="cls-3" d="M160,5.773V17.32L290.037,92.376l9.926-5.7739Z"/>
    <path class="cls-4" d="M10,92.376,160,5.773V17.32L20,98.149Z"/>
    <path class="cls-5" d="M115,141.451l30,17.32,20-11.547-17.5-10.103-7.5,4.33-12.5-7.217Z"/>
    <g>
      <path class="cls-3" d="M170,141.451l1.25.721,1.25-.721V127.017L170,128.46Z"/>
      <path class="cls-3" d="M92.5,70.725v5.774l90,51.961v-5.773Z"/>
      <path class="cls-4" d="M272.5,70.725v5.774l-90,51.961v-5.773Z"/>
      <path class="cls-4" d="M267.5,79.386h-5V90.933l2.5,1.443,2.5-1.443Z"/>
      <g>
        <path class="cls-3" d="M97.5,79.386h5V90.933L100,92.376l-2.5-1.443Z"/>
        <path class="cls-4" d="M102.5,90.933,100,92.376V80.829l2.5,1.443Z"/>
      </g>
      <g>
        <path class="cls-3" d="M152.5,111.14h5v12.99l-2.5.7221-2.5-1.4441Z"/>
        <path class="cls-4" d="M157.5,122.687,155,124.13V112.583l2.5,1.444Z"/>
      </g>
      <g>
        <path class="cls-4" d="M212.5,111.14h-5v11.547l2.5,1.443,2.5-1.443Z"/>
        <path class="cls-3" d="M207.5,122.687l2.5,1.443V112.583l-2.5,1.444Z"/>
      </g>
      <g>
        <path class="cls-3" d="M125,95.263h5V106.81l-2.5,1.4431L125,106.81Z"/>
        <path class="cls-4" d="M130,106.81l-2.5,1.4431V96.706l2.5,1.443Z"/>
      </g>
      <g>
        <path class="cls-4" d="M240,95.263h-5V106.81l2.5,1.4431L240,106.81Z"/>
        <path class="cls-3" d="M235,106.81l2.5,1.4431V96.706L235,98.149Z"/>
      </g>
      <path class="cls-3" d="M262.5,90.933l2.5,1.443V80.829l-2.5,1.443Z"/>
      <g>
        <path class="cls-4" d="M185,138.564l-2.5,1.443-2.5-1.443v-12.99l2.5,1.443,2.5-1.443Z"/>
        <path class="cls-3" d="M180,125.574l2.5,1.443v12.99l-2.5-1.443Z"/>
      </g>
      <path class="cls-4" d="M171.25,142.172l1.25-.721V127.017l-1.25.722Z"/>
      <g>
        <g class="cls-6">
          <path class="cls-7" d="M197.5,17.32,275,62.065l-1.25.722-77.5-44.7449Z"/>
        </g>
        <g class="cls-6">
          <path class="cls-7" d="M192.5,20.207,270,64.952l-1.25.721-77.5-44.744Z"/>
        </g>
        <g class="cls-6">
          <path class="cls-7" d="M195,18.764l77.5,44.744-1.25.722-77.5-44.745Z"/>
        </g>
        <g class="cls-6">
          <path class="cls-7" d="M190,21.65l77.5,44.745-1.25.722-77.5-44.745Z"/>
        </g>
        <path class="cls-4" d="M277.5,62.065l-10,5.7741V69.282l10-5.774Z"/>
        <path class="cls-1" d="M276.25,61.343l1.25.722-10,5.7741-1.25-.7221Z"/>
        <path class="cls-4" d="M267.5,56.2921l-10,5.7729v1.443l10-5.773Z"/>
        <path class="cls-1" d="M266.25,55.57l1.25.7221-10,5.7729-1.25-.722Z"/>
        <path class="cls-4" d="M257.5,50.518l-10,5.7741V57.735l10-5.774Z"/>
        <path class="cls-1" d="M256.25,49.796l1.25.722-10,5.7741-1.25-.7221Z"/>
        <path class="cls-4" d="M247.5,44.744l-10,5.774v1.443l10-5.773Z"/>
        <path class="cls-1" d="M246.25,44.023l1.25.721-10,5.774-1.25-.722Z"/>
        <path class="cls-4" d="M237.5,38.971l-10,5.773v1.444l10-5.774Z"/>
        <path class="cls-1" d="M236.25,38.249l1.25.722-10,5.773-1.25-.721Z"/>
        <path class="cls-4" d="M227.5,33.197l-10,5.774v1.443l10-5.7729Z"/>
        <path class="cls-1" d="M226.25,32.476l1.25.721-10,5.774-1.25-.722Z"/>
        <path class="cls-4" d="M217.5,27.424l-10,5.773v1.4441l10-5.7741Z"/>
        <path class="cls-1" d="M216.25,26.702l1.25.722-10,5.773-1.25-.721Z"/>
        <path class="cls-4" d="M207.5,21.65l-10,5.774v1.443l10-5.773Z"/>
        <path class="cls-1" d="M206.25,20.929l1.25.721-10,5.774-1.25-.722Z"/>
        <path class="cls-4" d="M197.5,15.877l-10,5.773v1.444l10-5.774Z"/>
        <path class="cls-1" d="M196.25,15.155l1.25.722-10,5.773-1.25-.721Z"/>
      </g>
      <g>
        <g class="cls-6">
          <path class="cls-7" d="M167.5,17.32,90,62.065l1.25.722,77.5-44.7449Z"/>
        </g>
        <g class="cls-6">
          <path class="cls-7" d="M170,15.877h25l-1.25.722h-22.5Z"/>
        </g>
        <g class="cls-6">
          <path class="cls-7" d="M172.5,17.32h20l-1.25.7221h-17.5Z"/>
        </g>
        <g class="cls-6">
          <path class="cls-7" d="M175,18.764h7.5l-1.25.721h-5Z"/>
        </g>
        <g class="cls-6">
          <path class="cls-7" d="M190,18.764l-1.25.721h-5l-1.25-.721Z"/>
        </g>
        <g class="cls-6">
          <path class="cls-7" d="M177.5,20.207H180l-1.25.722Z"/>
        </g>
        <g class="cls-6">
          <path class="cls-7" d="M187.5,20.207l-1.25.722L185,20.207Z"/>
        </g>
        <g class="cls-6">
          <path class="cls-7" d="M172.5,20.207,95,64.952l1.25.721,77.5-44.744Z"/>
        </g>
        <g class="cls-6">
          <path class="cls-7" d="M170,18.764,92.5,63.508l1.25.722,77.5-44.745Z"/>
        </g>
        <g class="cls-6">
          <path class="cls-7" d="M88.75,78.664V64.23l1.25.722v12.99Z"/>
        </g>
        <g class="cls-6">
          <path class="cls-7" d="M92.5,76.499l-1.25.721V65.673l1.25.722Z"/>
        </g>
        <g class="cls-6">
          <path class="cls-7" d="M95,69.282l-1.25.722V67.117l1.25.7221Z"/>
        </g>
        <g class="cls-6">
          <path class="cls-7" d="M95,75.0551l-1.25.7219v-4.33l1.25.722Z"/>
        </g>
        <g class="cls-6">
          <path class="cls-7" d="M175,21.65,97.5,66.395l1.25.722,77.5-44.745Z"/>
        </g>
        <path class="cls-3" d="M87.5,62.065l10,5.7741V69.282l-10-5.774Z"/>
        <path class="cls-1" d="M88.75,61.343l-1.25.722,10,5.7741,1.25-.7221Z"/>
        <path class="cls-3" d="M97.5,56.2921l10,5.7729v1.443l-10-5.773Z"/>
        <path class="cls-1" d="M98.75,55.57l-1.25.7221,10,5.7729,1.25-.722Z"/>
        <path class="cls-3" d="M107.5,50.518l10,5.7741V57.735l-10-5.774Z"/>
        <path class="cls-1" d="M108.75,49.796l-1.25.722,10,5.7741,1.25-.7221Z"/>
        <path class="cls-3" d="M117.5,44.744l10,5.774v1.443l-10-5.773Z"/>
        <path class="cls-1" d="M118.75,44.023l-1.25.721,10,5.774,1.25-.722Z"/>
        <path class="cls-3" d="M127.5,38.971l10,5.773v1.444l-10-5.774Z"/>
        <path class="cls-1" d="M128.75,38.249l-1.25.722,10,5.773,1.25-.721Z"/>
        <path class="cls-3" d="M137.5,33.197l10,5.774v1.443l-10-5.7729Z"/>
        <path class="cls-1" d="M138.75,32.476l-1.25.721,10,5.774,1.25-.722Z"/>
        <path class="cls-3" d="M147.5,27.424l10,5.773v1.4441l-10-5.7741Z"/>
        <path class="cls-1" d="M148.75,26.702l-1.25.722,10,5.773,1.25-.721Z"/>
        <path class="cls-3" d="M157.5,21.65l10,5.774v1.443l-10-5.773Z"/>
        <path class="cls-1" d="M158.75,20.929l-1.25.721,10,5.774,1.25-.722Z"/>
        <path class="cls-3" d="M167.5,15.877l10,5.773v1.444l-10-5.774Z"/>
        <path class="cls-1" d="M168.75,15.155l-1.25.722,10,5.773,1.25-.721Z"/>
      </g>
      <path class="cls-4" d="M160,135.677l1.25-.722V120.522l-1.25.721Z"/>
      <path class="cls-3" d="M158.75,134.955l1.25.722V121.243l-1.25.722Z"/>
      <path class="cls-8" d="M158.75,145.059l1.25.722,15-24.538-1.25-.721Z"/>
      <path class="cls-8" d="M147.5,138.564l1.25.722,15-24.538-1.25-.721Z"/>
      <path class="cls-4" d="M175,124.13v-2.887l-13.75,22.373v2.886Z"/>
      <path class="cls-4" d="M163.75,117.635v-2.887L150,137.121v2.886Z"/>
      <path class="cls-4" d="M161.25,145.059v1.443l1.25.722,2.5-1.443v-1.444l-1.25-.721Z"/>
      <path class="cls-4" d="M166.25,137.842l1.25.722,2.5-1.443v-1.444l-1.25-.722-2.5,1.444Z"/>
      <path class="cls-4" d="M171.25,127.739v1.443l1.25.7221L175,128.46v-1.443l-1.25-.722-1.25.722Z"/>
      <path class="cls-4" d="M163.75,140.729v1.443l1.25.722,2.5-1.443v-1.444l-1.25-.721Z"/>
      <path class="cls-4" d="M168.75,133.512l1.25.722,2.5-1.444v-1.443l-1.25-.722-2.5,1.444Z"/>
      <path class="cls-4" d="M173.75,124.8521l1.25.7219,2.5-1.444v-1.443l-1.25-.722-2.5,1.443Z"/>
      <path class="cls-3" d="M157.5,114.027l1.25-.7219L175,122.687v2.887L157.5,115.47Z"/>
      <path class="cls-3" d="M155,118.357l1.25-.722,16.25,9.382v2.8871L155,119.8Z"/>
      <path class="cls-3" d="M152.5,122.687l1.25-.722L170,131.347v2.887L152.5,124.13Z"/>
      <path class="cls-3" d="M150,127.017l1.25-.722,16.25,9.382v2.887L150,128.46Z"/>
      <path class="cls-3" d="M147.5,131.347l1.25-.722L165,140.007v2.887L147.5,132.79Z"/>
      <path class="cls-3" d="M145,135.677l1.25-.722,16.25,9.382v2.887L145,137.121Z"/>
      <g>
        <g class="cls-6">
          <path class="cls-7" d="M266.25,75.777l-77.5,44.745,1.25.721,77.5-44.744Z"/>
        </g>
        <g class="cls-6">
          <path class="cls-7" d="M271.25,78.664l-77.5,44.745,1.25.721,77.5-44.744Z"/>
        </g>
        <g class="cls-6">
          <path class="cls-7" d="M268.75,77.22l-77.5,44.745,1.25.722L270,77.942Z"/>
        </g>
        <g class="cls-6">
          <path class="cls-7" d="M273.75,80.107l-77.5,44.7451,1.25.7219L275,80.829Z"/>
        </g>
        <g>
          <g>
            <path class="cls-3" d="M186.25,120.522l10,5.773v1.444l-10-5.774Z"/>
            <path class="cls-4" d="M197.5,125.574v1.443l-1.25.722v-1.444Z"/>
            <path class="cls-1" d="M187.5,119.8l-1.25.722,10,5.773,1.25-.721Z"/>
          </g>
          <g>
            <path class="cls-3" d="M196.25,114.748l10,5.774v1.443l-10-5.773Z"/>
            <path class="cls-4" d="M207.5,119.8v1.443l-1.25.722v-1.443Z"/>
            <path class="cls-1" d="M197.5,114.027l-1.25.721,10,5.774,1.25-.722Z"/>
          </g>
          <g>
            <path class="cls-3" d="M206.25,108.975l10,5.773v1.444l-10-5.774Z"/>
            <path class="cls-4" d="M217.5,114.027v1.443l-1.25.722v-1.444Z"/>
            <path class="cls-1" d="M207.5,108.2531l-1.25.7219,10,5.773,1.25-.721Z"/>
          </g>
          <g>
            <path class="cls-3" d="M216.25,103.201l10,5.774v1.443l-10-5.773Z"/>
            <path class="cls-4" d="M227.5,108.2531v1.4429l-1.25.722v-1.443Z"/>
            <path class="cls-1" d="M217.5,102.48l-1.25.721,10,5.774,1.25-.7219Z"/>
          </g>
          <g>
            <path class="cls-3" d="M226.25,97.428l10,5.773v1.444l-10-5.774Z"/>
            <path class="cls-4" d="M237.5,102.48v1.443l-1.25.722v-1.444Z"/>
            <path class="cls-1" d="M227.5,96.706l-1.25.722,10,5.773,1.25-.721Z"/>
          </g>
          <g>
            <path class="cls-3" d="M236.25,91.6541l10,5.7739v1.443l-10-5.773Z"/>
            <path class="cls-4" d="M247.5,96.706v1.443l-1.25.722V97.428Z"/>
            <path class="cls-1" d="M237.5,90.933l-1.25.7211,10,5.7739,1.25-.722Z"/>
          </g>
          <g>
            <path class="cls-3" d="M246.25,85.881l10,5.7731V93.098l-10-5.774Z"/>
            <path class="cls-4" d="M257.5,90.933v1.443l-1.25.722V91.6541Z"/>
            <path class="cls-1" d="M247.5,85.159l-1.25.722,10,5.7731,1.25-.7211Z"/>
          </g>
          <g>
            <path class="cls-3" d="M256.25,80.107l10,5.774v1.443l-10-5.773Z"/>
            <path class="cls-4" d="M267.5,85.159v1.4431l-1.25.7219V85.881Z"/>
            <path class="cls-1" d="M257.5,79.386l-1.25.721,10,5.774,1.25-.722Z"/>
          </g>
          <g>
            <path class="cls-3" d="M266.25,74.334l10,5.773v1.444l-10-5.774Z"/>
            <path class="cls-4" d="M277.5,79.386v1.443l-1.25.722V80.107Z"/>
            <path class="cls-1" d="M267.5,73.612l-1.25.722,10,5.773,1.25-.721Z"/>
          </g>
        </g>
      </g>
      <path class="cls-7" d="M182.5,18.764l-90,51.961,90,51.962,90-51.962Z"/>
      <path class="cls-9" d="M102.5,70.725l80-46.188,80,46.188-80,46.188Z"/>
      <path class="cls-7" d="M182.5,27.424l-75,43.301,75,43.302,75-43.302Z"/>
      <path class="cls-10" d="M157.5,56.2921h0c13.798-7.9671,36.202-7.9671,50,0h0c13.798,7.9659,13.798,20.9009,0,28.8669h0c-13.798,7.966-36.202,7.966-50,0h0C143.702,77.193,143.702,64.258,157.5,56.2921Z"/>
      <g>
        <path class="cls-9" d="M157.5,67.8391l5-2.8871,30,17.32-5,2.887Z"/>
        <path class="cls-9" d="M172.5,59.178l5-2.8859,30,17.32-5,2.887Z"/>
        <path class="cls-9" d="M172.5,73.612l15-8.66,5,2.8871-15,8.66Z"/>
      </g>
      <path class="cls-11" d="M240,69.282l2.5,1.443-10,5.774L230,75.0551Z"/>
      <path class="cls-11" d="M132.5,64.952l2.5,1.443-10,5.774-2.5-1.444Z"/>
      <g>
        <g class="cls-6">
          <path class="cls-7" d="M276.25,78.664V64.23l-1.25.722v12.99Z"/>
        </g>
        <g class="cls-6">
          <path class="cls-7" d="M272.5,76.499l1.25.721V65.673l-1.25.722Z"/>
        </g>
        <g class="cls-6">
          <path class="cls-7" d="M270,69.282l1.25.722V67.117l-1.25.7221Z"/>
        </g>
        <g class="cls-6">
          <path class="cls-7" d="M270,75.0551l1.25.7219v-4.33l-1.25.722Z"/>
        </g>
      </g>
      <path class="cls-11" d="M177.5,122.687,175,124.13l-17.5-10.103,2.5-1.444Z"/>
      <path class="cls-11" d="M172.5,131.347,170,132.79l-17.5-10.103,2.5-1.444Z"/>
      <path class="cls-11" d="M167.5,140.007l-2.5,1.444-17.5-10.104,2.5-1.4429Z"/>
      <path class="cls-11" d="M175,127.017l-2.5,1.443L155,118.357l2.5-1.444Z"/>
      <path class="cls-11" d="M170,135.677l-2.5,1.444L150,127.017l2.5-1.443Z"/>
      <path class="cls-11" d="M165,144.337l-2.5,1.444L145,135.677l2.5-1.443Z"/>
    </g>
    <path class="cls-1" d="M97.5,82.272,140,106.81l-30,17.32L67.5,99.593Z"/>
    <path class="cls-3" d="M110,144.337,67.5,119.8V99.593L110,124.13Z"/>
    <path class="cls-4" d="M110,124.13v20.207l30-17.32V106.81Z"/>
    <path class="cls-2" d="M72.5,99.593l37.5,21.65,25-14.433L97.5,85.159Z"/>
    <path class="cls-4" d="M97.5,85.159v2.887L75,101.036l-2.5-1.443Z"/>
    <path class="cls-3" d="M135,106.81l-2.5,1.4431L97.5,88.046V85.159Z"/>
    <path class="cls-3" d="M125,135.677l-2.5-1.443V121.243L125,119.8Z"/>
    <path class="cls-5" d="M117.5,137.121l5-2.887,5,2.887-7.5,4.33-2.5-1.444Z"/>
    <path d="M122.5,134.234l-5,2.887V124.13l5-2.887Z"/>
    <g>
      <g class="cls-6">
        <path class="cls-7" d="M98.75,75.777l60,34.641-1.25.722-60-34.641Z"/>
      </g>
      <g class="cls-6">
        <path class="cls-7" d="M93.75,78.664l60,34.6411-1.25.7219-60-34.641Z"/>
      </g>
      <g class="cls-6">
        <path class="cls-7" d="M96.25,77.22l60,34.641-1.25.722L95,77.942Z"/>
      </g>
      <g class="cls-6">
        <path class="cls-7" d="M91.25,80.107l60,34.641-1.25.722L90,80.829Z"/>
      </g>
      <g>
        <g>
          <path class="cls-4" d="M158.75,108.975l-10,5.773v1.444l10-5.774Z"/>
          <path class="cls-3" d="M147.5,114.027v1.443l1.25.722v-1.444Z"/>
          <path class="cls-1" d="M157.5,108.2531l1.25.7219-10,5.773-1.25-.721Z"/>
        </g>
        <g>
          <path class="cls-4" d="M148.75,103.201l-10,5.774v1.443l10-5.773Z"/>
          <path class="cls-3" d="M137.5,108.2531v1.4429l1.25.722v-1.443Z"/>
          <path class="cls-1" d="M147.5,102.48l1.25.721-10,5.774-1.25-.7219Z"/>
        </g>
        <g>
          <path class="cls-4" d="M138.75,97.428l-10,5.773v1.444l10-5.774Z"/>
          <path class="cls-3" d="M127.5,102.48v1.443l1.25.722v-1.444Z"/>
          <path class="cls-1" d="M137.5,96.706l1.25.722-10,5.773-1.25-.721Z"/>
        </g>
        <g>
          <path class="cls-4" d="M128.75,91.6541l-10,5.7739v1.443l10-5.773Z"/>
          <path class="cls-3" d="M117.5,96.706v1.443l1.25.722V97.428Z"/>
          <path class="cls-1" d="M127.5,90.933l1.25.7211-10,5.7739-1.25-.722Z"/>
        </g>
        <g>
          <path class="cls-4" d="M118.75,85.881l-10,5.7731V93.098l10-5.774Z"/>
          <path class="cls-3" d="M107.5,90.933v1.443l1.25.722V91.6541Z"/>
          <path class="cls-1" d="M117.5,85.159l1.25.722-10,5.7731-1.25-.7211Z"/>
        </g>
        <g>
          <path class="cls-4" d="M108.75,80.107l-10,5.774v1.443l10-5.773Z"/>
          <path class="cls-3" d="M97.5,85.159v1.4431l1.25.7219V85.881Z"/>
          <path class="cls-1" d="M107.5,79.386l1.25.721-10,5.774-1.25-.722Z"/>
        </g>
        <g>
          <path class="cls-4" d="M98.75,74.334l-10,5.773v1.444l10-5.774Z"/>
          <path class="cls-3" d="M87.5,79.386v1.443l1.25.722V80.107Z"/>
          <path class="cls-1" d="M97.5,73.612l1.25.722-10,5.773-1.25-.721Z"/>
        </g>
      </g>
    </g>
  </g>
</svg>
