<svg id="Layer_1" data-name="Layer 1" xmlns="http://www.w3.org/2000/svg" viewBox="0 0 320 190.5256">
  <defs>
    <style>
      .cls-1 {
        fill: #e8e8e8;
      }

      .cls-2 {
        fill: #b9b9b9;
      }

      .cls-3 {
        fill: #2e2e2e;
      }

      .cls-4 {
        fill: #5d5d5d;
      }

      .cls-5 {
        fill: #d1d1d1;
      }

      .cls-6 {
        fill: #a2a2a2;
      }

      .cls-7 {
        fill: #acacac;
      }

      .cls-8 {
        fill: #959595;
      }

      .cls-9 {
        fill: #c6c6c6;
      }

      .cls-10 {
        fill: #2f3033;
      }

      .cls-11, .cls-26 {
        fill: none;
      }

      .cls-12 {
        fill: #fff;
      }

      .cls-13 {
        fill: #78cbff;
      }

      .cls-14 {
        fill: #e3efff;
      }

      .cls-15 {
        fill: #3258a8;
      }

      .cls-16 {
        fill: #4d92ff;
      }

      .cls-17 {
        fill: #fff587;
      }

      .cls-18 {
        fill: #fffbcd;
      }

      .cls-19 {
        fill: #c6be68;
      }

      .cls-20 {
        fill: #b0d1ff;
      }

      .cls-21 {
        fill: #edf3ff;
      }

      .cls-22 {
        fill: #6c6c6c;
      }

      .cls-23 {
        fill: #8e8e8e;
      }

      .cls-24 {
        fill: #d0d0d0;
      }

      .cls-25 {
        fill: #44464a;
      }

      .cls-26 {
        stroke: #fff;
        stroke-linecap: round;
        stroke-linejoin: round;
        stroke-width: 0;
      }
    </style>
  </defs>
  <title>Artboard 22</title>
  <g id="root">
    <path id="Path" class="cls-1" d="M0,98.15l160,92.376L320,98.15,160,5.7735Z"/>
    <path id="Path-2" data-name="Path" class="cls-2" d="M160,11.547,310,98.15,160,184.7521,10,98.15Z"/>
    <path id="Path-3" data-name="Path" class="cls-3" d="M160,11.547v5.7735l145,83.7159,5-2.8868Z"/>
    <path id="Path-4" data-name="Path" class="cls-4" d="M10,98.15,160,11.547v5.7735L15,101.0363Z"/>
    <g id="Group">
      <path id="Path-5" data-name="Path" class="cls-1" d="M62.5,5.7735,72.5,0,75,1.4434,65,7.2169Z"/>
      <path id="Path-6" data-name="Path" class="cls-5" d="M75,1.4434V15.8772l-2.5,1.4433V5.7736L67.5,8.66,65,7.2169Z"/>
      <path id="Path-7" data-name="Path" class="cls-6" d="M70,15.8772v-8.66l2.5-1.4433V17.3205Z"/>
    </g>
    <path id="Path-8" data-name="Path" class="cls-1" d="M90,21.6507l10-5.7735,2.5,1.4433-10,5.7735Z"/>
    <path id="Path-9" data-name="Path" class="cls-5" d="M102.5,17.3205V31.7543L100,33.1977V21.6507l-5,2.8867L92.5,23.094Z"/>
    <path id="Path-10" data-name="Path" class="cls-6" d="M97.5,31.7543v-8.66l2.5-1.4433v11.547Z"/>
    <g id="Group-2" data-name="Group">
      <path id="Path-11" data-name="Path" class="cls-1" d="M117.5,37.5278l10-5.7735,2.5,1.4434-10,5.7735Z"/>
      <path id="Path-12" data-name="Path" class="cls-5" d="M130,33.1977V47.6314l-2.5,1.4434V37.5278l-5,2.8868L120,38.9712Z"/>
      <path id="Path-13" data-name="Path" class="cls-6" d="M125,47.6314v-8.66l2.5-1.4434v11.547Z"/>
    </g>
    <path id="Path-14" data-name="Path" class="cls-1" d="M70,1.4434l85,49.0748,2.5-1.4434L72.5,0Z"/>
    <path id="Path-15" data-name="Path" class="cls-6" d="M72.5,5.7735V2.8868l25,14.4337L95,18.7639Z"/>
    <path id="Path-16" data-name="Path" class="cls-6" d="M100,21.6507V18.7639l25,14.4338-2.5,1.4434Z"/>
    <path id="Path-17" data-name="Path" class="cls-6" d="M127.5,37.5278V34.6411l25,14.4337L150,50.5182Z"/>
    <path id="Path-18" data-name="Path" class="cls-7" d="M65,127.0171,77.5,119.8l-5-2.8867L60,124.13Z"/>
    <path id="Path-19" data-name="Path" class="cls-7" d="M92.5,142.8942l12.5-7.2168-5-2.8868-12.5,7.2169Z"/>
    <path id="Path-20" data-name="Path" class="cls-7" d="M120,158.7714l12.5-7.2169-5-2.8868L115,155.8846Z"/>
    <path id="Path-21" data-name="Path" class="cls-7" d="M147.5,174.6485l12.5-7.2169-5-2.8867-12.5,7.2169Z"/>
    <g id="Group-3" data-name="Group">
      <path id="Path-22" data-name="Path" class="cls-8" d="M145,171.7618l2.5,1.4433v-17.32l-2.5-1.4434Z"/>
      <path id="Path-23" data-name="Path" class="cls-9" d="M150,171.7618l-2.5,1.4433V152.9979l2.5-1.4434Z"/>
    </g>
    <g id="Group-4" data-name="Group">
      <path id="Path-24" data-name="Path" class="cls-8" d="M62.5,124.13l2.5,1.4433v-8.66L62.5,115.47Z"/>
      <path id="Path-25" data-name="Path" class="cls-9" d="M67.5,124.13,65,125.5737v-8.66l2.5-1.4434Z"/>
    </g>
    <g id="Group-5" data-name="Group">
      <path id="Path-26" data-name="Path" class="cls-8" d="M117.5,155.8846l2.5,1.4434v-8.66l-2.5-1.4433Z"/>
      <path id="Path-27" data-name="Path" class="cls-9" d="M122.5,155.8846,120,157.328v-8.66l2.5-1.4433Z"/>
    </g>
    <g id="Group-6" data-name="Group">
      <path id="Path-28" data-name="Path" class="cls-8" d="M90,140.0075l2.5,1.4434v-8.66L90,131.3472Z"/>
      <path id="Path-29" data-name="Path" class="cls-9" d="M95,140.0075l-2.5,1.4434v-8.66l2.5-1.4434Z"/>
    </g>
    <path id="Path-30" data-name="Path" class="cls-10" d="M62.5,5.7735v98.15l85,49.0747v-98.15Z"/>
    <g>
      <path class="cls-11" d="M96.6562,60.4631a.4561.4561,0,0,0-.3363.2707A.4631.4631,0,0,1,96.6562,60.4631Z"/>
      <path class="cls-11" d="M96.229,60.6545c-.0113-.01-.0275-.023-.0367-.0322a.2564.2564,0,0,0-.1433-.0478l-.0077.0028a.2571.2571,0,0,1,.1352.045A.2073.2073,0,0,1,96.229,60.6545Z"/>
      <path class="cls-11" d="M107.8888,80.3981v-.494c0-1.0358-1.2586-2.5975-2.82-3.5057l0,.0262c1.5541.91,2.8205,2.4632,2.7887,3.4954v.0637a.7429.7429,0,0,1-.4461.6853,2.939,2.939,0,0,1-2.3744-.51,7.2892,7.2892,0,0,1-1.3739-1.0221,7.2868,7.2868,0,0,0,1.39,1.0381,2.9229,2.9229,0,0,0,2.3744.51A.7509.7509,0,0,0,107.873,80v.43l1.689,2.1035-4.5255.3824L108,102.61l-2.9478-19.6939,4.5258-.3824.0115.1265-.0115-.1584Z"/>
      <polygon class="cls-11" points="112.446 88.907 112.447 88.906 112.446 88.908 112.446 88.907"/>
      <path class="cls-11" d="M98.2958,62.1361l-.2709-.1593a1.9877,1.9877,0,0,0-.7648-1.3226.4831.4831,0,0,0-.1117-.08c.032.0319.0638.0478.0957.08a1.9862,1.9862,0,0,1,.7648,1.3226l.2709.1593a1.1377,1.1377,0,0,1,.4621.8446c0,.2231-.1134.3489-.281.35.1765.0075.297-.12.297-.35A1.09,1.09,0,0,0,98.2958,62.1361Z"/>
      <path class="cls-11" d="M109.7054,84.2862a1.4206,1.4206,0,0,1,.3666.1594.695.695,0,0,1,.1594.0957,3.6276,3.6276,0,0,1,1.3863,2.3743l.016.0159v-.0159c.016,0,.016.0159.0319.0159a1.94,1.94,0,0,1,.7648.9562,1.6329,1.6329,0,0,1,.1311.5985,1.6218,1.6218,0,0,0-.1151-.63,1.8729,1.8729,0,0,0-.7648-.956c-.016,0-.016-.016-.0319-.016V86.9l-.016-.016a3.5914,3.5914,0,0,0-1.3863-2.3744c-.0639-.0318-.1117-.08-.1754-.1115a2.0778,2.0778,0,0,0-.3365-.1482l.0019.0207a.99.99,0,0,0-.6863.0264A1.003,1.003,0,0,1,109.7054,84.2862Z"/>
      <polygon class="cls-11" points="105.099 64.908 105.084 64.909 105.083 64.908 105.068 64.909 102.052 61.158 105.068 64.917 105.1 64.957 105.1 64.909 105.099 64.908"/>
      <path class="cls-11" d="M102.2318,77.689l.4385.2506-.0083-.0115-.0076-.0135-.4226-.2415v-.494h0l-.0154.4939c0,.9081.9677,2.2322,2.2587,3.1464C103.1919,79.8983,102.2318,78.5934,102.2318,77.689Z"/>
      <path class="cls-11" d="M95.8578,60.7338l.0039-.0079c-.028-.017-.0557-.0419-.0836-.0558a.4544.4544,0,0,0-.1971-.047.4707.4707,0,0,1,.181.047A.3346.3346,0,0,1,95.8578,60.7338Z"/>
      <path class="cls-11" d="M103.9847,53.6267a.8739.8739,0,0,1,.43.494v.0318c0,.1435-.1912.1594-.43.0319a.9892.9892,0,0,1-.1127-.0761,1.2655,1.2655,0,0,0,.1287.0921c.2389.1432.43.1273.43-.0315l0-.0482v-.016a.8368.8368,0,0,0-.4145-.494c-.1687-.0964-.3183-.11-.3886-.0563A.415.415,0,0,1,103.9847,53.6267Z"/>
      <polygon class="cls-11" points="124.156 103.663 124.159 103.68 124.188 103.837 124.19 103.835 124.16 103.667 124.156 103.663"/>
      <polygon class="cls-11" points="90.376 66.933 91.507 66.837 90.375 66.932 90.376 66.933"/>
      <polygon class="cls-11" points="118.645 71.889 118.072 71.936 116.976 77.336 117.004 77.37 118.087 71.952 118.658 71.905 118.645 71.889"/>
      <path class="cls-11" d="M108.2554,84.4775a.8569.8569,0,0,1,.3346.3027c.0049-.012.0136-.0185.0187-.03a1.1745,1.1745,0,0,0-.3215-.2885.6447.6447,0,0,0-.2709-.08.3458.3458,0,0,0-.1341.0386.2912.2912,0,0,1,.1023-.0227A.5856.5856,0,0,1,108.2554,84.4775Z"/>
      <polygon class="cls-11" points="121.45 82.884 120.893 82.197 121.449 82.895 121.45 82.884"/>
      <path class="cls-11" d="M107.6658,84.86v-.0478l.0005-.004a1.7976,1.7976,0,0,0-.51-.4741.7413.7413,0,0,0-.526-.1115c-.0111.0028-.0178.0125-.0285.016a.7256.7256,0,0,1,.5225.1115A1.6254,1.6254,0,0,1,107.6658,84.86Z"/>
      <polygon class="cls-11" points="116.351 76.59 115.777 76.637 115.761 83.362 114.179 91.238 114.205 91.269 115.793 83.362 115.809 76.653 116.365 76.607 116.351 76.59"/>
      <polygon class="cls-11" points="112.94 91.234 110.23 91.472 110.231 91.489 111.329 106.531 111.33 106.532 110.231 91.473 112.956 91.234 112.956 89.796 112.94 89.776 112.94 91.234"/>
      <polygon class="cls-11" points="91.539 56.336 91.524 56.337 92.097 57.037 91.539 56.336"/>
      <path class="cls-11" d="M114.7841,107.0957c-.0765-.0045-.1527-.0081-.23-.0133l.0377.0039c.1545.0106.3084.02.4612.0259.0058,0,.0117,0,.0175,0C114.9759,107.1083,114.88,107.1012,114.7841,107.0957Z"/>
      <path class="cls-11" d="M101.5148,101.592c-.982-.7126-1.9322-1.5044-2.867-2.3276v0l-.0051-.0046-.0123-.0112q-.2886-.2568-.5742-.52c.1928.1764.3791.3638.5742.5362.94.8286,1.8963,1.6095,2.8844,2.3425.12.0883.2443.1673.365.2541-.1213-.0875-.2428-.1737-.3633-.263l3.52-18.6833-.0024-.003Z"/>
      <path class="cls-11" d="M108.24,68.2712l-.0012-.0211a.5174.5174,0,0,0-.44-.0425A.5284.5284,0,0,1,108.24,68.2712Z"/>
      <polygon class="cls-11" points="105.116 58.917 105.945 59.969 105.945 61.467 105.961 61.476 105.961 59.985 105.977 53.609 105.961 59.937 105.116 58.885 104.415 58.949 104.415 58.981 105.116 58.917"/>
      <path class="cls-11" d="M111.5222,70.1676c.0158,0,.0158.0159.0318.0159a1.313,1.313,0,0,1,.1883.1372,1.2614,1.2614,0,0,0-.2043-.1531c-.0158,0-.0158-.016-.0318-.016a.5638.5638,0,0,0-.452-.08l.0059.0166A.5685.5685,0,0,1,111.5222,70.1676Z"/>
      <path class="cls-11" d="M106.7466,53.8379a1.01,1.01,0,0,0-.34-.3228.71.71,0,0,0-.1717-.0709.8517.8517,0,0,1,.1557.0709A1.0837,1.0837,0,0,1,106.7466,53.8379Z"/>
      <path class="cls-11" d="M106.391,54.0729c.239.1434.43.1275.43-.0318C106.821,54.1843,106.63,54.2,106.391,54.0729Z"/>
      <path class="cls-11" d="M110.6556,69.492c-.0191-.015-.0379-.0321-.0576-.045V69.45C110.6177,69.4611,110.6363,69.4789,110.6556,69.492Z"/>
      <polygon class="cls-11" points="106.805 61.04 109.61 64.526 109.594 64.528 109.594 64.529 109.626 64.526 106.805 61.021 106.805 61.037 106.805 61.04"/>
      <path class="cls-11" d="M108.3372,67.5329c.193-.3529.61-.4409,1.0815-.17a.7031.7031,0,0,1,.1752.1275,2.4162,2.4162,0,0,1,.3791.373,2.4522,2.4522,0,0,0-.3949-.3889l0-.0318a1.0661,1.0661,0,0,0-.1436-.0957C108.94,67.0576,108.52,67.1525,108.3372,67.5329Z"/>
      <path class="cls-12" d="M116.8384,107.0852c.1475-.0123.2922-.031.4379-.0472h0C117.13,107.0545,116.9859,107.0733,116.8384,107.0852Z"/>
      <path class="cls-12" d="M117.5808,107.0051c-.0619.0087-.1256.0127-.1881.02h0C117.4548,107.0179,117.5187,107.0136,117.5808,107.0051Z"/>
      <path class="cls-12" d="M115.0533,107.1122l.0293.0008-.0118-.0007C115.065,107.1121,115.0591,107.1124,115.0533,107.1122Z"/>
      <path class="cls-12" d="M116.6878,107.0978c-.0662.0048-.1353.0019-.2019.0058-.0162.0009-.0321.0031-.0483.004C116.5206,107.1033,116.6052,107.1035,116.6878,107.0978Z"/>
      <path class="cls-12" d="M114.8208,107.1057c.0782.0048.1549.0041.2325.0065-.1528-.0059-.3067-.0153-.4612-.0259C114.6685,107.0933,114.7454,107.1013,114.8208,107.1057Z"/>
      <path class="cls-12" d="M111.33,106.5318l-.0012,0,.0006.008c-.06-.0155-.1189-.0288-.1791-.0449.06.0158.1211.0381.1809.0533.1213.03.24.0544.36.0825-.12-.0287-.24-.0594-.3607-.0906Z"/>
      <path class="cls-12" d="M108.0257,105.398c.1393.0586.28.1258.419.1818l-.0006-.005C108.305,105.52,108.1654,105.4583,108.0257,105.398Z"/>
      <path class="cls-12" d="M106.7786,104.8274c-.0457-.0224-.0914-.0445-.1371-.0672-.0824-.0409-.1642-.0791-.2468-.1211-.1444-.0733-.2887-.1466-.4336-.223-.0451-.0239-.0908-.05-.1362-.0747q-.4549-.2416-.916-.5025c-.4752-.27-.9459-.5672-1.4154-.87-.05-.032-.099-.0664-.1488-.0988-.1254-.0816-.2489-.1654-.3739-.2487-.0629-.0421-.1259-.0829-.1886-.1255q-.4161-.2827-.8289-.581l-.0735-.0533c-.1207-.0868-.2455-.1658-.365-.2541-.9881-.733-1.9442-1.5139-2.8844-2.3425-.1951-.1724-.3814-.36-.5742-.5362l-.0334-.03c-.1494-.1372-.2977-.2766-.4457-.4163l-.0285-.0276c-.8391-.7923-1.6635-1.6092-2.4557-2.48q-.6522-.7113-1.2885-1.4583a43.8584,43.8584,0,0,0,10.35,9.0894l1.4932.8619c.6029.3267,1.1963.6084,1.7859.8724-.1236-.057-.2474-.1159-.3711-.1746C106.9681,104.9216,106.8732,104.8735,106.7786,104.8274Z"/>
      <path class="cls-12" d="M114.5244,107.0806l.0677.0057-.0377-.0039Z"/>
      <path class="cls-12" d="M118.5656,106.8348c.1939-.0417.3834-.0931.5734-.1437q-.3348.0906-.6785.1625C118.4951,106.8464,118.531,106.8422,118.5656,106.8348Z"/>
      <path class="cls-12" d="M90.28,89.6883c.03.0441.0621.0858.0922.13-.1068-.1558-.2115-.3134-.317-.47C90.1316,89.46,90.2036,89.5764,90.28,89.6883Z"/>
      <path class="cls-12" d="M81.0105,63.7526c.0014.0371.0043.0747.0056.1118-.0037-.0952-.0023-.189-.005-.284Z"/>
      <path class="cls-12" d="M92.5431,92.7638q.6071.7852,1.2453,1.5347c-.508-.6-.9988-1.2213-1.4846-1.8481C92.3845,92.5549,92.4622,92.6594,92.5431,92.7638Z"/>
      <path class="cls-12" d="M91.4117,91.2819c.1216.164.2509.3281.3755.4921-.4818-.6419-.958-1.29-1.4146-1.9559C90.7115,90.3134,91.0607,90.7988,91.4117,91.2819Z"/>
      <path class="cls-12" d="M86.3285,82.98c.097.1929.2076.3807.3074.5726-.22-.4266-.4369-.8541-.6455-1.285C86.1048,82.5042,86.21,82.7441,86.3285,82.98Z"/>
      <path class="cls-12" d="M124.2513,103.7716c-.0209.02-.04.0431-.0613.0633v0l-.0024.0026v0c-.0111.0107-.0213.0226-.0324.0333-.11.1045-.2244.2008-.3371.3.1223-.1081.2543-.2027.3727-.3164l.0636-.0637c.1049-.1025.1965-.224.2983-.331-.1.1047-.1987.2109-.3014.3113Z"/>
      <path class="cls-12" d="M119.28,106.6558c.17-.0474.3289-.117.4953-.1716l-.0539.0176C119.5724,106.55,119.431,106.6129,119.28,106.6558Z"/>
      <polygon class="cls-13" points="105.099 64.908 105.1 64.909 109.594 64.529 109.594 64.528 105.099 64.908"/>
      <path class="cls-13" d="M102.0523,61.1575l3.016,3.7513.015-.0012L100.5745,59.3l2.98-.255v.0014L103.57,53.72a.3035.3035,0,0,1-.0159-.0617v-.016a.1251.1251,0,0,1,.0735-.0882c.07-.0539.22-.04.3886.0563a.8368.8368,0,0,1,.4145.494v.016l0,.0482,0,0-.0158,4.7806.7009-.0637.8446,1.0517.0158-6.3282a.303.303,0,0,1-.0158-.0619v-.0159c.024-.1078.1291-.1344.2746-.0869a.71.71,0,0,1,.1717.0709,1.01,1.01,0,0,1,.34.3228c.0113.017.0252.034.034.0508a.3528.3528,0,0,1,.0406.12v.0319h0l-.016,6.98,2.8207,3.5057v2.948c-.016-.0119-.0318-.02-.0476-.0318l0,.0318a2.4522,2.4522,0,0,1,.3949.3889,2.6449,2.6449,0,0,1,.625,1.5233v.06c.02.0129.0385.03.0576.045a1.0373,1.0373,0,0,1,.3986.5793.5638.5638,0,0,1,.452.08c.016,0,.016.016.0318.016a1.2614,1.2614,0,0,1,.2043.1531,1.6858,1.6858,0,0,1,.4651.6595.9621.9621,0,0,1,0,.8924.4772.4772,0,0,1-.6534.0479c-.016,0-.016-.016-.0318-.016L109.61,70.7983l-.0154,4.23,3.3777,4.2063v.0158h0L112.94,89.7361v.04l.016.02v-.0594l1.223,1.5018,1.5815-7.8759.016-6.7247.5736-.0478.0141.0174.018-.0015.5931.73,1.0959-5.3994.5737-.0479.0128.0163.0032,0,.5576.7012,1.4183,8.8759.0766.49.0031.0037.1766.2216.5564.6868-.0009.0108.0168.021-.2073,2.4541,2.8979,18.2934.0031.0037-.0006-.0033.0809.0943c2.9472-2.8844,4.7-7.5369,4.7156-13.6554.0279-6.6427-2.0053-13.9258-5.41-20.6582a52.7377,52.7377,0,0,0-15.5221-18.787c-.5684-.4089-1.141-.8054-1.7211-1.1743q-.6129-.39-1.2338-.7486a22.17,22.17,0,0,0-10.4057-3.2873c-7.9619-.1887-13.4961,5.9259-13.6478,16.6448l-.0018.7038c.003.3343.0067.669.02,1.0062.0044.12.0134.2421.0193.3629.0168.3407.0363.6821.0631,1.0254.0107.1378.0244.2763.0367.4144.03.3332.0631.6671.1021,1.0023.0157.135.0325.27.05.4057q.0669.5249.1479,1.0522c.018.1167.0355.2334.0545.35q.0969.5946.2119,1.1916c.0135.0707.026.1412.04.2119a47.8111,47.8111,0,0,0,1.581,5.9206l.0092.0269a55.5026,55.5026,0,0,0,2.9963,7.17l.0638-20.9112L90.95,56.3835l.0079.01.008-.01.5578-.0478.001.0012.0148-.0012.5578.7012,4.4938,10.8678-.0479,15.7428,3.442-.3014.526-6.04L100.5585,59.3l.016.02v-.004Zm-3.5914,2.173a.4557.4557,0,0,1-.1969-.047l-1.0359-.6055c-.0319-.016-.08-.0319-.1116-.0479-.0318-.0318-.08-.0478-.1115-.08l-1.2588-.733a1.1375,1.1375,0,0,1-.4621-.8445c0-.23.12-.3573.2969-.35a.4544.4544,0,0,1,.1971.047c.0279.0139.0556.0388.0836.0558a.1715.1715,0,0,1,.1712-.1514l.0084.0028.0077-.0028a.2564.2564,0,0,1,.1433.0478c.0092.0092.0254.0226.0367.0322a.7949.7949,0,0,1,.0909.0793.4561.4561,0,0,1,.3363-.2707.7146.7146,0,0,1,.4922.1114.4831.4831,0,0,1,.1117.08,1.9877,1.9877,0,0,1,.7648,1.3226l.2709.1593a1.09,1.09,0,0,1,.4621.8446C98.7579,63.211,98.6374,63.338,98.4609,63.3305Z"/>
      <polygon class="cls-14" points="98.648 99.264 98.643 99.26 98.648 99.265 98.648 99.264"/>
      <path class="cls-14" d="M114.7841,107.0957l-3.007-3.7508,2.4223-12.0471.0056-.0284-.0256-.0315-1.223-1.5018V91.234l-2.725.2391,1.0984,15.0587.0006.008c.1205.0312.241.0619.3607.0906.0864.0206.1735.0449.26.0652l.03.0076c.0254.0057.051.0127.0764.0183.0443.01.0876.0159.1318.0252.4826.1011.9568.1762,1.426.2367.02.0026.0416.0077.0619.01.1293.0167.2594.0347.3875.0482.02.0021.041.0056.0613.0076.118.0114.2354.02.3527.0286l.0454.0026.03.0018C114.6314,107.0876,114.7076,107.0912,114.7841,107.0957Z"/>
      <path class="cls-14" d="M98.0228,98.6992l.0334.03q.2856.263.5742.52L100,83.3621l-3.4566.3027-.0318,11.9993-1.3778.1252q1.176,1.2861,2.4153,2.466l.0285.0276C97.7251,98.4226,97.8734,98.562,98.0228,98.6992Z"/>
      <path class="cls-14" d="M124.16,103.667l.0305.1677v0c.0211-.02.04-.0429.0613-.0633v0l-.0115-.0134-.0809-.0943Z"/>
      <path class="cls-15" d="M102.2318,76.8313c-.0047-.0378-.0143-.0781-.0158-.1143v-.0637c.0158-1.0359,1.2748-1.1474,2.8363-.2391l.016.01,0-.0262h0L105.1,64.9566l-.0316-.04-3.016-3.76-1.4778-1.8419v.004l-.0478,17.987,1.7051-.1434Z"/>
      <polygon class="cls-15" points="102.232 77.163 102.231 77.179 102.232 77.179 102.232 77.163"/>
      <path class="cls-16" d="M112.94,89.7756v-.04l.0318-10.4854h0v-.0158l-3.3941.3027v-.0186l.0015-.4238.0143-4.0673.0006.0007.0154-4.23-.016-.0093-1.3225-.7649a.0156.0156,0,0,0-.016-.0159,1.59,1.59,0,0,1-.749-1.2748.4777.4777,0,0,1,.2916-.5258.5174.5174,0,0,1,.44.0425,1.795,1.795,0,0,1-.0148-.25,1.0168,1.0168,0,0,1,.1136-.4675c.1829-.38.603-.4753,1.0975-.1859a1.0661,1.0661,0,0,1,.1436.0957c.0158.0117.0316.02.0476.0318v-2.948l-.032.0027-4.4938.38,0,.0478-.0316,11.4417h0c1.5617.9082,2.82,2.47,2.82,3.5057v.494l1.6893,2.1034.0115.1584.1459,1.59a2.0778,2.0778,0,0,1,.3365.1482c.0637.0318.1115.08.1754.1115a3.5914,3.5914,0,0,1,1.3863,2.3744l.016.016v-.016c.0159,0,.0159.016.0319.016a1.8729,1.8729,0,0,1,.7648.956,1.6218,1.6218,0,0,1,.1151.63c0,.0334-.0082.0612-.011.0928a1.0059,1.0059,0,0,1-.0168.127.6107.6107,0,0,1-.0865.2l-.0008.0019,0,0c-.0064.0094-.0088.0227-.0158.0317-.1594.2231-.4461.239-.7648.0637-.0159,0-.0159-.0159-.0319-.0159l-1.3863-.7968a.8194.8194,0,0,1-.2072-.0956l-.0612-.0306.2512,3.4076,2.71-.2378Z"/>
      <path class="cls-17" d="M105.0992,64.9076l4.4947-.38.016-.0013L106.8052,61.04v.9364l-.0047-.0028c-.0129.1439-.1949.1576-.4256.0347a.7756.7756,0,0,1-.43-.5259l.3181.1769-.3023-.1769v-.0067l-.0158-.0092V59.969l-.8288-1.0518-.7011.0637v.016l-.016,3.0914-.0047-.0028c-.0129.144-.1949.1576-.4256.0347a.7754.7754,0,0,1-.43-.5258l.317.1761-.3012-.1761v-2.55l-2.98.255,4.5088,5.6079.001.0012Z"/>
      <polygon class="cls-17" points="109.58 79.095 109.578 79.519 109.578 79.522 109.578 79.538 112.972 79.235 109.594 75.029 109.594 75.028 109.58 79.095"/>
      <polygon class="cls-17" points="118.658 71.905 118.087 71.952 118.661 72.654 119.219 72.606 118.661 71.905 118.658 71.905"/>
      <polygon class="cls-17" points="116.383 76.605 116.365 76.607 115.809 76.653 116.877 77.976 117.004 77.37 116.976 77.336 116.383 76.605"/>
      <path class="cls-16" d="M124.1876,103.8375v0l-.0287-.1577-.0025-.0163L121.2585,85.37l.2073-2.4541-.5737.0479-1.1633,13.5928.0319-14.9952-1.1313.0956-.0638,25.1634c.3947-.0863.7781-.1966,1.1554-.3185l.0539-.0176c.162-.0531.3235-.1071.4821-.1669l.0488-.02c.17-.0653.3393-.13.5049-.2027.0508-.0221.1006-.0459.1508-.0687.2281-.1033.4527-.2128.6726-.33.0268-.0143.0524-.0307.0789-.0452s.051-.0295.0768-.0439c.0908-.0508.1816-.1018.2711-.1551.0408-.0242.0832-.0462.1238-.0709.2035-.1238.4022-.2555.5981-.3922.0712-.05.1431-.0988.2134-.15.0649-.0477.1274-.099.1912-.1481.0729-.0557.1461-.1109.2178-.1685.14-.1128.2772-.2305.4129-.35.1127-.1.2275-.1959.3371-.3C124.1663,103.86,124.1765,103.8482,124.1876,103.8375Z"/>
      <polygon class="cls-16" points="120.637 81.482 120.334 81.513 120.714 81.972 120.637 81.482"/>
      <polygon class="cls-17" points="120.893 82.197 120.717 81.976 120.714 81.972 120.334 81.513 119.761 81.561 120.892 82.964 121.466 82.916 121.449 82.895 120.893 82.197"/>
      <polygon class="cls-15" points="119.729 96.556 120.892 82.964 119.761 81.561 119.729 96.556"/>
      <path class="cls-15" d="M116.8765,77.9759l-1.0678-1.3226-.0158,6.7087-1.5879,7.9074-.0056.0284-2.4223,12.0471,3.007,3.7508c.0955.0055.1918.0126.2867.0166l.0118.0007c.1363.0053.2722.01.4072.0114.1457.0022.289-.0024.433-.0048.0949-.0016.191,0,.2855-.0031.0766-.0028.1534-.0049.2293-.0089.0162-.0009.0321-.0031.0483-.004.2662-.015.53-.0358.79-.0656h.0008c.0383-.0043.0771-.0077.1156-.0124h0c.3942-.0487.7783-.119,1.157-.2013l.0637-25.1512-1.9283-2.4381-.0477-.0638Z"/>
      <polygon class="cls-18" points="120.334 81.513 120.637 81.482 119.219 72.606 118.661 72.654 118.629 81.657 119.761 81.561 120.334 81.513"/>
      <polygon class="cls-19" points="118.087 71.952 117.004 77.37 116.877 77.976 116.637 79.171 116.685 79.235 118.629 81.657 118.661 72.654 118.087 71.952"/>
      <path class="cls-17" d="M105.0341,82.9128l.0024.003,4.5255-.3824L107.873,80.43v.51a.967.967,0,0,1-.0578.3443c-.2651.7-1.41.6776-2.7629-.0893-.1983-.1153-.3912-.2414-.5776-.3753-1.291-.9142-2.2587-2.2383-2.2587-3.1464l.0154-.4939,0-.016-1.7051.1434,4.51,5.5933Z"/>
      <path class="cls-16" d="M108,102.61l-2.9636-19.6939-3.52,18.6833c.1205.0893.242.1755.3633.263l.0735.0533q.413.2979.8289.581c.0627.0426.1257.0834.1886.1255.125.0833.2485.1671.3739.2487.05.0324.0988.0668.1488.0988.4695.3023.94.599,1.4154.87q.4611.261.916.5025c.0454.0242.0911.0508.1362.0747.1449.0764.2892.15.4336.223.0826.042.1644.08.2468.1211.0457.0227.0914.0448.1371.0672.0946.0461.19.0942.2838.139.1237.0587.2475.1176.3711.1746.025.0115.05.0241.0752.0354.1149.0522.2283.098.3428.148.0582.0251.116.0485.1742.0736.14.06.2793.1216.4184.1768Z"/>
      <path class="cls-20" d="M111.3286,106.5315,110.2314,91.489l-.0012-.0172-.2512-3.4076-.0345-.0172c-.0319-.0319-.08-.0478-.1116-.08L107.1081,86.39a1.96,1.96,0,0,1-.8447-1.1953c-.1115-.494.016-.8764.3348-.956h.0033c.0107-.0035.0174-.0132.0285-.016a.7413.7413,0,0,1,.526.1115,1.7976,1.7976,0,0,1,.51.4741.3794.3794,0,0,1,.2159-.3876.3458.3458,0,0,1,.1341-.0386.6447.6447,0,0,1,.2709.08,1.1745,1.1745,0,0,1,.3215.2885.8167.8167,0,0,1,.4424-.4534.99.99,0,0,1,.6863-.0264l-.0019-.0207-.1459-1.59-.0115-.1265-4.5258.3824L108,102.61l.444,2.9651.0006.005,0,.0006.0111.0042c.3555.1447.7062.271,1.0564.3952.1.0353.2014.0788.3.1123.1006.0344.2.0634.2994.0936.052.0156.1043.0323.1563.0487.1869.0589.3719.1107.5572.1645.108.0313.2172.0669.3244.0957.06.0161.1194.0294.1791.0449Z"/>
      <path class="cls-15" d="M98.6427,99.26l.0051.0043c.9348.8232,1.885,1.615,2.867,2.3276l3.5193-18.6792.0024-.0129-4.51-5.5933-.5258,6.04-.0014.016L98.63,99.2489Z"/>
      <path class="cls-19" d="M102.2318,77.6731l.4226.2415a2.763,2.763,0,0,1-.4226-1.0833v.8418Z"/>
      <path class="cls-19" d="M107.4267,80.6849a2.9229,2.9229,0,0,1-2.3744-.51,7.2868,7.2868,0,0,1-1.39-1.0381A5.984,5.984,0,0,1,102.67,77.94l-.4385-.2506c0,.9044.96,2.2093,2.2429,3.1305.1864.1339.3793.26.5776.3753,1.3527.7669,2.4978.79,2.7629.0893a.967.967,0,0,0,.0578-.3443V80A.7509.7509,0,0,1,107.4267,80.6849Z"/>
      <path class="cls-18" d="M102.662,77.9281l.0083.0115a5.984,5.984,0,0,0,.9923,1.1973,7.2892,7.2892,0,0,0,1.3739,1.0221,2.939,2.939,0,0,0,2.3744.51.7429.7429,0,0,0,.4461-.6853V79.92c.0318-1.0322-1.2346-2.5857-2.7887-3.4954l-.016-.01c-1.5615-.9083-2.82-.7968-2.8363.2391v.0637c.0015.0362.0111.0765.0158.1143a2.763,2.763,0,0,0,.4226,1.0833Z"/>
      <path class="cls-19" d="M103.5544,61.5784v.016l.3012.1761-.317-.1761a.7754.7754,0,0,0,.43.5258c.2307.1229.4127.1093.4256-.0347l.0047.0028.016-3.0914v-.016l0-.0318.0158-4.7806,0,0c0,.1588-.1912.1747-.43.0315a1.2655,1.2655,0,0,1-.1287-.0921.77.77,0,0,1-.3017-.388l-.0159,5.3258v2.5323Z"/>
      <path class="cls-18" d="M103.872,54.1083a.9892.9892,0,0,0,.1127.0761c.2391.1275.43.1116.43-.0319v-.0318a.8739.8739,0,0,0-.43-.494.415.415,0,0,0-.3568-.0723.1251.1251,0,0,0-.0735.0882v.016a.3035.3035,0,0,0,.0159.0617A.77.77,0,0,0,103.872,54.1083Z"/>
      <path class="cls-19" d="M105.9607,61.4761v.0067l.3023.1769-.3181-.1769a.7756.7756,0,0,0,.43.5259c.2307.1229.4127.1092.4256-.0347l.0047.0028v-.956l.016-6.98c0,.1593-.1912.1752-.43.0318a.8426.8426,0,0,1-.4145-.464l-.0158,6.376Z"/>
      <path class="cls-18" d="M106.391,54.0729c.239.1275.43.1114.43-.0318h0v-.0319a.3528.3528,0,0,0-.0406-.12c-.0088-.0168-.0227-.0338-.034-.0508a1.0837,1.0837,0,0,0-.3556-.3228.8517.8517,0,0,0-.1557-.0709c-.1455-.0475-.2506-.0209-.2746.0869v.0159a.303.303,0,0,0,.0158.0619A.8426.8426,0,0,0,106.391,54.0729Z"/>
      <path class="cls-16" d="M91.5074,66.8371l-1.1315.0956-.0637,22.74c.3614.5342.7385,1.0527,1.1157,1.5711l.08-22.1595Z"/>
      <path class="cls-15" d="M91.5074,66.8371V69.084l-.08,22.1595,0,.0211q.5549.7572,1.1314,1.4921l.0637-24.5173Z"/>
      <polygon class="cls-18" points="92.623 68.239 96.591 67.905 92.097 57.037 91.523 57.085 92.623 68.239"/>
      <polygon class="cls-19" points="91.523 57.085 90.966 56.384 90.958 56.393 86.424 62.025 90.362 66.916 91.523 57.085"/>
      <path class="cls-16" d="M92.6228,68.2394l-.0637,24.5173c.1319.1679.2674.3314.4008.4974.2328.2884.465.5771.7037.86.1461.1743.2947.3453.4428.5172q.339.3933.683.7795c.11.1223.22.2425.3307.3634l1.391-.1264.0318-11.9993v-.0014l.0479-15.7428Z"/>
      <path class="cls-15" d="M90.3749,66.9315l-.0148.0012.0019-.0171-3.938-4.891L86.36,82.9637a57.8465,57.8465,0,0,0,3.9519,6.7087l.0637-22.74Z"/>
      <polygon class="cls-17" points="90.362 66.916 90.36 66.933 90.375 66.932 91.507 66.837 92.623 68.239 91.523 57.085 90.362 66.916"/>
      <polygon class="cls-17" points="92.097 57.037 91.524 56.337 91.523 56.336 90.966 56.384 91.523 57.085 92.097 57.037"/>
      <path class="cls-21" d="M110.2474,88.19l1.3863.7968c.016,0,.016.0159.0319.0159.3187.1753.6054.1594.7648-.0637.007-.009.0094-.0223.0158-.0317l.001-.0021a.6107.6107,0,0,0,.0865-.2,1.0059,1.0059,0,0,0,.0168-.127c.0028-.0316.011-.0594.011-.0928a1.6329,1.6329,0,0,0-.1311-.5985,1.94,1.94,0,0,0-.7648-.9562c-.0159,0-.0159-.0159-.0319-.0159v.0159l-.016-.0159a3.6276,3.6276,0,0,0-1.3863-2.3743.695.695,0,0,0-.1594-.0957,1.4206,1.4206,0,0,0-.3666-.1594,1.003,1.003,0,0,0-.6543.0105.8167.8167,0,0,0-.4424.4534c-.0051.0116-.0138.0181-.0187.03a.8569.8569,0,0,0-.3346-.3027.5856.5856,0,0,0-.2709-.08.2912.2912,0,0,0-.1023.0227.3794.3794,0,0,0-.2159.3876l-.0005.004V84.86a1.6254,1.6254,0,0,0-.5418-.51.7256.7256,0,0,0-.5225-.1115h-.0033c-.3188.08-.4463.462-.3348.956a1.96,1.96,0,0,0,.8447,1.1953l2.7248,1.5775c.0319.0319.08.0478.1116.08l.0345.0172.0612.0306A.8194.8194,0,0,0,110.2474,88.19Z"/>
      <path class="cls-21" d="M109.4187,67.3629c-.4713-.2709-.8885-.1829-1.0815.17a1.0168,1.0168,0,0,0-.1136.4675,1.795,1.795,0,0,0,.0148.25l.0012.0211a.5284.5284,0,0,0-.4416-.0636.4777.4777,0,0,0-.2916.5258,1.59,1.59,0,0,0,.749,1.2748.0156.0156,0,0,1,.016.0159l1.3225.7649.016.0093,1.9123,1.1062c.0158,0,.0158.016.0318.016a.4772.4772,0,0,0,.6534-.0479.9621.9621,0,0,0,0-.8924,1.6858,1.6858,0,0,0-.4651-.6595,1.313,1.313,0,0,0-.1883-.1372c-.016,0-.016-.0159-.0318-.0159a.5685.5685,0,0,0-.4621-.08l-.0059-.0166a1.0373,1.0373,0,0,0-.3986-.5793c-.0193-.0131-.0379-.0309-.0576-.0416v-.0637a2.6449,2.6449,0,0,0-.625-1.5233,2.4162,2.4162,0,0,0-.3791-.373A.7031.7031,0,0,0,109.4187,67.3629Z"/>
      <path class="cls-21" d="M98.7419,62.9807a1.1377,1.1377,0,0,0-.4621-.8446l-.2709-.1593a1.9862,1.9862,0,0,0-.7648-1.3226c-.0319-.0319-.0637-.0478-.0957-.08a.7146.7146,0,0,0-.4922-.1114.4631.4631,0,0,0-.3363.2707.7949.7949,0,0,0-.0909-.0793.2073.2073,0,0,0-.0525-.0322.2571.2571,0,0,0-.1352-.045l-.0084-.0028a.1715.1715,0,0,0-.1712.1514l-.0039.0079a.3346.3346,0,0,0-.0958-.0637.4707.4707,0,0,0-.181-.047c-.1766-.0075-.2969.12-.2969.35a1.1375,1.1375,0,0,0,.4621.8445l1.2588.733c.0319.0319.08.0479.1115.08.0319.016.08.0319.1116.0479l1.0359.6055a.4557.4557,0,0,0,.1969.047C98.6285,63.33,98.7419,63.2038,98.7419,62.9807Z"/>
    </g>
    <path id="Path-31" data-name="Path" class="cls-6" d="M57.5,106.81l85,49.0748v5.7735l-85-49.0748Z"/>
    <path id="Path-32" data-name="Path" class="cls-1" d="M57.5,106.81l85,49.0748,5-2.8867-85-49.0748Z"/>
    <path id="Path-33" data-name="Path" class="cls-22" d="M62.5,92.3761l85,49.0748v11.547l-85-49.0748Z"/>
    <g id="Group-7" data-name="Group">
      <path id="Path-34" data-name="Path" class="cls-1" d="M145,53.4049l10-5.7734,2.5,1.4433-10,5.7735Z"/>
      <path id="Path-35" data-name="Path" class="cls-5" d="M157.5,49.0748V167.4316L155,168.875V53.405l-5,2.8867-2.5-1.4434Z"/>
      <path id="Path-36" data-name="Path" class="cls-6" d="M152.5,167.4316V54.8483L155,53.405v115.47Z"/>
    </g>
    <path id="Path-37" data-name="Path" class="cls-5" d="M142.5,161.6581l15-8.66v-5.7735l-15,8.66Z"/>
    <path id="Path-38" data-name="Path" class="cls-1" d="M150,148.6677l2.5-1.4433,2.5,1.4433-5,2.8868Z"/>
    <path id="Path-39" data-name="Path" class="cls-5" d="M150,53.4049v98.15l-2.5,1.4433v-98.15Z"/>
    <g id="Group-8" data-name="Group">
      <path id="Path-40" data-name="Path" class="cls-5" d="M147.5,76.499l10-5.7735v2.8867l-10,5.7735Z"/>
      <path id="Path-41" data-name="Path" class="cls-1" d="M152.5,70.7255l2.5,1.4433-5,2.8868V72.1688Z"/>
    </g>
    <path id="Path-42" data-name="Path" class="cls-1" d="M150,69.2821V66.3953l2.5,1.4434v2.8867Z"/>
    <path id="Path-43" data-name="Path" class="cls-1" d="M150,90.9327V88.046l2.5,1.4433v2.8868Z"/>
    <path id="Path-44" data-name="Path" class="cls-1" d="M150,112.5834v-2.8868l2.5,1.4434v2.8867Z"/>
    <path id="Path-45" data-name="Path" class="cls-1" d="M150,134.234v-2.8868l2.5,1.4434v2.8868Z"/>
    <path id="Path-46" data-name="Path" class="cls-1" d="M150,145.781v-2.8868l2.5,1.4434v2.8868Z"/>
    <path id="Path-47" data-name="Path" class="cls-6" d="M150,72.1688l2.5-1.4434L150,69.2821Z"/>
    <path id="Path-48" data-name="Path" class="cls-6" d="M150,93.82l2.5-1.4434L150,90.9327Z"/>
    <path id="Path-49" data-name="Path" class="cls-6" d="M150,115.47l2.5-1.4434-2.5-1.4433Z"/>
    <path id="Path-50" data-name="Path" class="cls-6" d="M150,137.1207l2.5-1.4433L150,134.234Z"/>
    <path id="Path-51" data-name="Path" class="cls-6" d="M150,148.6677l2.5-1.4433L150,145.781Z"/>
    <g id="Group-9" data-name="Group">
      <path id="Path-52" data-name="Path" class="cls-5" d="M147.5,119.8l10-5.7735v2.8868l-10,5.7735Z"/>
      <path id="Path-53" data-name="Path" class="cls-1" d="M152.5,114.0267,155,115.47l-5,2.8868V115.47Z"/>
    </g>
    <g id="Group-10" data-name="Group">
      <path id="Path-54" data-name="Path" class="cls-5" d="M147.5,98.15l10-5.7735v2.8867l-10,5.7735Z"/>
      <path id="Path-55" data-name="Path" class="cls-1" d="M152.5,92.3761,155,93.82l-5,2.8867V93.82Z"/>
    </g>
    <g id="Group-11" data-name="Group">
      <path id="Path-56" data-name="Path" class="cls-5" d="M147.5,141.4509l10-5.7735v2.8867l-10,5.7735Z"/>
      <path id="Path-57" data-name="Path" class="cls-1" d="M152.5,135.6774l2.5,1.4433-5,2.8868v-2.8868Z"/>
    </g>
    <path id="Path-58" data-name="Path" class="cls-6" d="M62.5,106.81l80,46.1881,2.5-1.4434-80-46.188Z"/>
    <path id="Path-59" data-name="Path" class="cls-23" d="M150,140.0075l-2.5,1.4434v11.547l2.5-1.4434Z"/>
    <path id="Path-60" data-name="Path" class="cls-22" d="M62.5,5.7735V11.547l85,49.0748V54.8483Z"/>
    <path id="Path-61" data-name="Path" class="cls-23" d="M150,53.4049l-2.5,1.4434v5.7735l2.5-1.4434Z"/>
    <path id="Path-62" data-name="Path" class="cls-5" d="M65,105.3665v2.8867L62.5,106.81Z"/>
    <path id="Path-63" data-name="Path" class="cls-24" d="M150,53.4049l-2.5,1.4434L62.5,5.7735,65,4.33Z"/>
    <g id="Group-12" data-name="Group">
      <g id="Group-13" data-name="Group">
        <path id="Path-64" data-name="Path" class="cls-1" d="M257.5,5.7735,247.5,0,245,1.4434l10,5.7735Z"/>
        <path id="Path-65" data-name="Path" class="cls-6" d="M245,1.4434V15.8772l2.5,1.4433V5.7736l5,2.8867L255,7.2169Z"/>
        <path id="Path-66" data-name="Path" class="cls-5" d="M250,15.8772v-8.66l-2.5-1.4433V17.3205Z"/>
      </g>
      <path id="Path-67" data-name="Path" class="cls-1" d="M230,21.6507l-10-5.7735-2.5,1.4433,10,5.7735Z"/>
      <path id="Path-68" data-name="Path" class="cls-6" d="M217.5,17.3205V31.7543l2.5,1.4434V21.6507l5,2.8867,2.5-1.4434Z"/>
      <path id="Path-69" data-name="Path" class="cls-5" d="M222.5,31.7543v-8.66L220,21.6507v11.547Z"/>
      <g id="Group-14" data-name="Group">
        <path id="Path-70" data-name="Path" class="cls-1" d="M202.5,37.5278l-10-5.7735L190,33.1977l10,5.7735Z"/>
        <path id="Path-71" data-name="Path" class="cls-6" d="M190,33.1977V47.6314l2.5,1.4434V37.5278l5,2.8868,2.5-1.4434Z"/>
        <path id="Path-72" data-name="Path" class="cls-5" d="M195,47.6314v-8.66l-2.5-1.4434v11.547Z"/>
      </g>
      <path id="Path-73" data-name="Path" class="cls-1" d="M250,1.4434,165,50.5182l-2.5-1.4434L247.5,0Z"/>
      <path id="Path-74" data-name="Path" class="cls-5" d="M247.5,5.7735V2.8868l-25,14.4337,2.5,1.4434Z"/>
      <path id="Path-75" data-name="Path" class="cls-5" d="M220,21.6507V18.7639L195,33.1977l2.5,1.4434Z"/>
      <path id="Path-76" data-name="Path" class="cls-5" d="M192.5,37.5278V34.6411l-25,14.4337,2.5,1.4434Z"/>
      <path id="Path-77" data-name="Path" class="cls-7" d="M255,127.0171,242.5,119.8l5-2.8867L260,124.13Z"/>
      <path id="Path-78" data-name="Path" class="cls-7" d="M227.5,142.8942,215,135.6774l5-2.8868,12.5,7.2169Z"/>
      <path id="Path-79" data-name="Path" class="cls-7" d="M200,158.7714l-12.5-7.2169,5-2.8868,12.5,7.2169Z"/>
      <path id="Path-80" data-name="Path" class="cls-7" d="M172.5,174.6485,160,167.4316l5-2.8867,12.5,7.2169Z"/>
      <g id="Group-15" data-name="Group">
        <path id="Path-81" data-name="Path" class="cls-9" d="M175,171.7618l-2.5,1.4433v-17.32l2.5-1.4434Z"/>
        <path id="Path-82" data-name="Path" class="cls-6" d="M170,171.7618l2.5,1.4433V152.9979l-2.5-1.4434Z"/>
      </g>
      <g id="Group-16" data-name="Group">
        <path id="Path-83" data-name="Path" class="cls-9" d="M257.5,124.13l-2.5,1.4433v-8.66l2.5-1.4434Z"/>
        <path id="Path-84" data-name="Path" class="cls-6" d="M252.5,124.13l2.5,1.4433v-8.66l-2.5-1.4434Z"/>
      </g>
      <g id="Group-17" data-name="Group">
        <path id="Path-85" data-name="Path" class="cls-9" d="M202.5,155.8846,200,157.328v-8.66l2.5-1.4433Z"/>
        <path id="Path-86" data-name="Path" class="cls-6" d="M197.5,155.8846l2.5,1.4434v-8.66l-2.5-1.4433Z"/>
      </g>
      <g id="Group-18" data-name="Group">
        <path id="Path-87" data-name="Path" class="cls-9" d="M230,140.0075l-2.5,1.4434v-8.66l2.5-1.4434Z"/>
        <path id="Path-88" data-name="Path" class="cls-6" d="M225,140.0075l2.5,1.4434v-8.66l-2.5-1.4434Z"/>
      </g>
      <g id="Group-19" data-name="Group">
        <path id="Path-89" data-name="Path" class="cls-25" d="M257.5,5.7735v98.15l-85,49.0747v-98.15Z"/>
      </g>
      <path id="Path-90" data-name="Path" class="cls-5" d="M262.5,106.81l-85,49.0748v5.7735l85-49.0748Z"/>
      <path id="Path-91" data-name="Path" class="cls-1" d="M262.5,106.81l-85,49.0748-5-2.8867,85-49.0748Z"/>
      <path id="Path-92" data-name="Path" class="cls-23" d="M257.5,92.3761l-85,49.0748v11.547l85-49.0748Z"/>
      <g id="Group-20" data-name="Group">
        <path id="Path-93" data-name="Path" class="cls-1" d="M175,53.4049l-10-5.7734-2.5,1.4433,10,5.7735Z"/>
        <path id="Path-94" data-name="Path" class="cls-6" d="M162.5,49.0748V167.4316l2.5,1.4434V53.405l5,2.8867,2.5-1.4434Z"/>
        <path id="Path-95" data-name="Path" class="cls-5" d="M167.5,167.4316V54.8483L165,53.405v115.47Z"/>
      </g>
      <path id="Path-96" data-name="Path" class="cls-6" d="M177.5,161.6581l-15-8.66v-5.7735l15,8.66Z"/>
      <path id="Path-97" data-name="Path" class="cls-1" d="M170,148.6677l-2.5-1.4433-2.5,1.4433,5,2.8868Z"/>
      <path id="Path-98" data-name="Path" class="cls-6" d="M170,53.4049v98.15l2.5,1.4433v-98.15Z"/>
      <g id="Group-21" data-name="Group">
        <path id="Path-99" data-name="Path" class="cls-6" d="M172.5,76.499l-10-5.7735v2.8867l10,5.7735Z"/>
        <path id="Path-100" data-name="Path" class="cls-1" d="M167.5,70.7255,165,72.1688l5,2.8868V72.1688Z"/>
      </g>
      <path id="Path-101" data-name="Path" class="cls-1" d="M170,69.2821V66.3953l-2.5,1.4434v2.8867Z"/>
      <path id="Path-102" data-name="Path" class="cls-1" d="M170,90.9327V88.046l-2.5,1.4433v2.8868Z"/>
      <path id="Path-103" data-name="Path" class="cls-1" d="M170,112.5834v-2.8868l-2.5,1.4434v2.8867Z"/>
      <path id="Path-104" data-name="Path" class="cls-1" d="M170,134.234v-2.8868l-2.5,1.4434v2.8868Z"/>
      <path id="Path-105" data-name="Path" class="cls-1" d="M170,145.781v-2.8868l-2.5,1.4434v2.8868Z"/>
      <path id="Path-106" data-name="Path" class="cls-5" d="M170,72.1688l-2.5-1.4434,2.5-1.4433Z"/>
      <path id="Path-107" data-name="Path" class="cls-5" d="M170,93.82l-2.5-1.4434,2.5-1.4434Z"/>
      <path id="Path-108" data-name="Path" class="cls-5" d="M170,115.47l-2.5-1.4434,2.5-1.4433Z"/>
      <path id="Path-109" data-name="Path" class="cls-5" d="M170,137.1207l-2.5-1.4433,2.5-1.4434Z"/>
      <path id="Path-110" data-name="Path" class="cls-5" d="M170,148.6677l-2.5-1.4433,2.5-1.4434Z"/>
      <g id="Group-22" data-name="Group">
        <path id="Path-111" data-name="Path" class="cls-6" d="M172.5,119.8l-10-5.7735v2.8868l10,5.7735Z"/>
        <path id="Path-112" data-name="Path" class="cls-1" d="M167.5,114.0267,165,115.47l5,2.8868V115.47Z"/>
      </g>
      <g id="Group-23" data-name="Group">
        <path id="Path-113" data-name="Path" class="cls-6" d="M172.5,98.15l-10-5.7735v2.8867l10,5.7735Z"/>
        <path id="Path-114" data-name="Path" class="cls-1" d="M167.5,92.3761,165,93.82l5,2.8867V93.82Z"/>
      </g>
      <g id="Group-24" data-name="Group">
        <path id="Path-115" data-name="Path" class="cls-6" d="M172.5,141.4509l-10-5.7735v2.8867l10,5.7735Z"/>
        <path id="Path-116" data-name="Path" class="cls-1" d="M167.5,135.6774l-2.5,1.4433,5,2.8868v-2.8868Z"/>
      </g>
      <path id="Path-117" data-name="Path" class="cls-5" d="M257.5,106.81l-80,46.1881-2.5-1.4434,80-46.188Z"/>
      <path id="Path-118" data-name="Path" class="cls-22" d="M170,140.0075l2.5,1.4434v11.547l-2.5-1.4434Z"/>
      <path id="Path-119" data-name="Path" class="cls-23" d="M257.5,5.7735V11.547l-85,49.0748V54.8483Z"/>
      <path id="Path-120" data-name="Path" class="cls-22" d="M170,53.4049l2.5,1.4434v5.7735L170,59.1784Z"/>
      <path id="Path-121" data-name="Path" class="cls-6" d="M255,105.3665v2.8867l2.5-1.4434Z"/>
      <path id="Path-122" data-name="Path" class="cls-24" d="M170,53.4049l2.5,1.4434,85-49.0748L255,4.33Z"/>
    </g>
    <g>
      <polygon class="cls-11" points="222.943 69.994 222.921 70.021 222.943 70.023 222.943 69.994"/>
      <polygon class="cls-11" points="219.517 59.205 219.507 59.218 219.517 59.219 219.517 59.205"/>
      <polygon class="cls-11" points="226.974 63.524 228.026 56.863 228.6 56.162 229.135 56.208 229.126 56.162 228.552 56.114 227.994 56.815 226.942 63.476 226.321 63.428 225.763 64.129 225.779 70.854 224.233 80.606 222.991 80.496 222.991 80.511 222.991 82.009 220.309 85.337 220.312 85.369 223.007 82.025 223.007 80.527 224.249 80.638 221.907 95.426 221.925 95.428 224.265 80.654 225.811 70.902 225.811 70.886 225.779 64.177 226.353 63.476 226.974 63.524"/>
      <path class="cls-11" d="M219.9149,82.28,217.19,83.8573a.8911.8911,0,0,1-.2748.1083.86.86,0,0,0,.2906-.1083l2.725-1.5776c.0235-.0117.0541-.0235.0821-.0352l0-.0066C219.9815,82.2518,219.9427,82.2658,219.9149,82.28Z"/>
      <path class="cls-11" d="M208.2343,69.9139c.1947-.0916.3533-.0474.4289.0947-.0674-.1687-.2358-.2249-.4448-.1266l-.2664.1567c.0026.0131.01.021.0116.0346Z"/>
      <path class="cls-11" d="M218.178,64.2887l.0006.009c0-.03.0061-.062.0078-.0927C218.1845,64.2327,218.1786,64.2613,218.178,64.2887Z"/>
      <path class="cls-11" d="M216.2657,51.9708a.606.606,0,0,1,.29-.0929A.58.58,0,0,0,216.2657,51.9708Z"/>
      <path class="cls-11" d="M218.194,64.5437l-.0009-.0151a1.6124,1.6124,0,0,0-.7323,1.3059l.0014.0064A1.66,1.66,0,0,1,218.194,64.5437Z"/>
      <polygon class="cls-11" points="225.811 70.934 226.672 65.755 225.811 70.918 225.811 70.934"/>
      <polygon class="cls-11" points="229.779 79.523 229.795 79.503 229.747 64.512 229.779 79.523"/>
      <path class="cls-11" d="M212.6962,80.5906a.7266.7266,0,0,1-.4461-.6852A.7109.7109,0,0,0,212.6962,80.5906Z"/>
      <polygon class="cls-11" points="230.703 63.843 231.4 63.902 231.404 63.843 230.675 63.78 230.687 63.841 230.703 63.843"/>
      <polygon class="cls-11" points="219.58 74.181 219.58 69.74 219.564 69.739 219.578 73.457 219.58 74.181 219.58 74.181"/>
      <path class="cls-11" d="M210.5239,64.4505l.0012-.0014-.0119-.001.01-.0124-.042-.0035.0479,18.0069-.4779,6.6291-3.442,4.2866v.016l.0318,11.9992-1.3918,1.7239c-.0881.0054-.1762.011-.2639.0153.0959-.0033.1885.0031.2852-.0022a18.2219,18.2219,0,0,0,3.5377-.59,22.9208,22.9208,0,0,0,2.8842-.988c.7211-.3031,1.4648-.6649,2.2135-1.0551-.0967.05-.1938.1021-.2905.1512-.2053.1044-.4092.2028-.6129.3q-.4771.2283-.95.4325c-.1248.0541-.25.11-.3742.1615-.057.0237-.1148.051-.1719.0742-.2466.101-.4886.1877-.7316.2775q-.6407.2366-1.2693.4284c-.1625.05-.326.1032-.4873.1486-.0756.0211-.1494.0364-.2246.0564a18.4586,18.4586,0,0,1-3.06.5606l-.0051.0005c-.1562.0142-.308.0172-.4625.0268l1.391-1.7229-.0318-11.9992,3.442-4.2867.4781-6.6291-.0478-18.0069Z"/>
      <path class="cls-11" d="M221.7157,79.22v-.0161c.016,0,.016-.0159.0318-.0159a.5562.5562,0,0,1,.7506.0511l-.0015-.0032c-.1594-.2231-.4463-.239-.7649-.0638-.016,0-.016.0159-.032.0159v.0159l-.0057.0058c.0014.0093.0045.0168.0057.0262Z"/>
      <polygon class="cls-11" points="230.879 64.607 229.795 79.502 229.813 79.48 230.894 64.607 231.395 63.979 231.395 63.976 230.879 64.607"/>
      <path class="cls-11" d="M221.2247,78.4423a1.02,1.02,0,0,0-.9432.0129c-.0638.0319-.1115.0638-.1754.0956a.6929.6929,0,0,1,.1913-.08A1.0612,1.0612,0,0,1,221.2247,78.4423Z"/>
      <path class="cls-11" d="M218.64,80.59a.3629.3629,0,0,0-.2.0176.49.49,0,0,1,.1994-.0172Z"/>
      <path class="cls-11" d="M217.9071,76.6386v-.0637c0-1.0358-1.2748-1.1474-2.8365-.2391,1.5457-.8923,2.82-.7808,2.82.2391v.0637a2.5774,2.5774,0,0,1-.4461,1.2111l.0135-.0077a2.5567,2.5567,0,0,0,.4326-1.1874v.43l1.7051.1435-1.6891-.1594Z"/>
      <path class="cls-11" d="M212.25,80.8455v-.494l-.016.51c.016,1.0358,1.275,1.1473,2.8365.239.1973-.1148.39-.24.5754-.3735-.1807.1277-.3674.2479-.5594.3576C213.5249,81.977,212.25,81.8813,212.25,80.8455Z"/>
      <path class="cls-11" d="M216.2657,51.9708a.7956.7956,0,0,0-.4142.4939A.8368.8368,0,0,1,216.2657,51.9708Z"/>
      <path class="cls-11" d="M215.8517,52.4968V52.52a.1.1,0,0,0,.0253.0466A.1212.1212,0,0,1,215.8517,52.4968Z"/>
      <path class="cls-11" d="M216.2817,60.4324a.5586.5586,0,0,1-.3009.097.551.551,0,0,0,.3167-.0811.8953.8953,0,0,0,.43-.51l-.0232.0129A.7479.7479,0,0,1,216.2817,60.4324Z"/>
      <path class="cls-11" d="M212.25,80.3515v-.51a3.768,3.768,0,0,1,1.2371-2.2652,3.7891,3.7891,0,0,0-1.2531,2.2811v.494L210.545,82.455l4.5416.3824-4.5258-.3824Z"/>
      <path class="cls-11" d="M214.29,59.7153l.0161,3.0914-.8288.4848v0l.3039-.1689.5409-.3163-.016-3.0914.0158-.02-.0157-4.7465a.38.38,0,0,1-.0316.0908Z"/>
      <path class="cls-11" d="M213.4612,55.3811l0,.0886a.1668.1668,0,0,0,.0914.027A.1138.1138,0,0,1,213.4612,55.3811Z"/>
      <path class="cls-11" d="M205.2544,72.2245a1.09,1.09,0,0,1,.4623-.8446l.0955-.0477a.6685.6685,0,0,1,.1752-.3507.5172.5172,0,0,1,.1435-.1274.2579.2579,0,0,1,.1434-.0479,1.9282,1.9282,0,0,1,.8127-1.1154.1447.1447,0,0,1,.1115-.0478.483.483,0,0,1,.6811.1765.4838.4838,0,0,0-.6969-.2084c-.032.0159-.08.0479-.1117.0638a2.055,2.055,0,0,0-.8125,1.1154.4619.4619,0,0,0-.1436.032,1.0254,1.0254,0,0,0-.1433.1274.6148.6148,0,0,0-.1754.35l-.0955.0479a1.1379,1.1379,0,0,0-.4621.8445.4329.4329,0,0,0,.0492.208A.4655.4655,0,0,1,205.2544,72.2245Z"/>
      <polygon class="cls-11" points="200.904 72.623 201.461 71.923 201.446 71.922 200.888 72.623 196.394 83.491 200.904 72.624 200.904 72.623"/>
      <path class="cls-11" d="M213.8913,63.3326c-.23.1383-.4123.1251-.4252-.0186l-.0049.0026c0,.1435.1912.1594.43.032.2391-.1435.43-.3825.43-.51l-.0053.0029A.81.81,0,0,1,213.8913,63.3326Z"/>
      <polygon class="cls-11" points="219.517 59.276 219.549 59.237 219.537 59.236 219.517 59.26 219.517 59.276"/>
      <path class="cls-11" d="M202.689,107.0273c-.1116-.0093-.2221-.0263-.3332-.0406.1228.0182.2416.0411.365.0565.0559.0066.1156.006.1717.0118-.0674-.0068-.1366-.0092-.2035-.0169Z"/>
      <path class="cls-11" d="M221.0145,63.0936a1.2814,1.2814,0,0,1,.4622-.4622c.016,0,.016-.0159.0318-.0159.27-.159.5088-.1433.6523.0469-.006-.0094-.0082-.0222-.0148-.031a.4772.4772,0,0,0-.6533-.0478c-.016,0-.016.016-.0321.016a1.5942,1.5942,0,0,0-.4621.4621c-.0619-.1861-.2453-.2334-.4461-.1182v.0385C220.76,62.8705,220.9507,62.9023,221.0145,63.0936Z"/>
      <path class="cls-11" d="M197.5224,105.2032l.032.02c.23.15.4631.2927.7029.425l.0041.002C198.0091,105.5119,197.764,105.3607,197.5224,105.2032Z"/>
      <path class="cls-11" d="M212.5675,64.6376l2.44.2234.0156.0014.0319,11.4838.016-.01-.0318-11.4893-.0317-.0027Z"/>
      <path class="cls-11" d="M219.3573,62.265a2.4909,2.4909,0,0,0-.8248.8785,2.4147,2.4147,0,0,1,.8248-.8626l.1912-.0956a.6513.6513,0,0,1,.9061.29.6472.6472,0,0,0-.9061-.3267v.0206Z"/>
      <path class="cls-11" d="M201.5575,106.852c-.3644-.076-.7277-.1685-1.0785-.2734-.0178-.0054-.0352-.0118-.0529-.0172-.0366-.0113-.0725-.0238-.1088-.0353-.2817-.0888-.5574-.1887-.8283-.2975q-.1339-.0538-.2659-.1107c-.2466-.1064-.4882-.2225-.7257-.3457l.0816.0421c.2141.11.4312.2136.6529.31q.15.0648.3018.1257.3978.16.81.29c.0563.0179.1118.0374.1684.0546.3119.0931.6352.1723.9588.243.0781.0169.1568.0327.2355.0482.0594.0088.1186.0176.1772.0274C201.7747,106.8934,201.6643,106.8752,201.5575,106.852Z"/>
      <path class="cls-12" d="M238.0442,70.6736c-.01.0459-.0191.0917-.0293.1376C238.0251,70.7653,238.0341,70.72,238.0442,70.6736Z"/>
      <path class="cls-12" d="M238.4018,68.84c-.0189.11-.04.221-.06.3315C238.3622,69.0608,238.3827,68.95,238.4018,68.84Z"/>
      <path class="cls-12" d="M238.3423,69.1714c-.0906.5-.1889,1-.2981,1.5022Q238.2074,69.9209,238.3423,69.1714Z"/>
      <path class="cls-12" d="M238.6548,67.2c-.0717.5445-.158,1.0917-.253,1.64C238.4964,68.2916,238.5835,67.7444,238.6548,67.2Z"/>
      <path class="cls-12" d="M234.2727,81.6423a58.6285,58.6285,0,0,1-5.5773,9.45c-.0689.0942-.1432.1828-.2127.2766l-.0279.038c-.3508.4813-.7145.9487-1.0805,1.4135-.0549.07-.1115.1373-.1666.2066q-.31.3906-.6244.7742-.5579.6752-1.1326,1.3286c-.1635.1866-.3188.3843-.4842.5679a47.3779,47.3779,0,0,1-3.4738,3.4579c-.94.8446-1.8965,1.6255-2.8844,2.3585a34.4749,34.4749,0,0,1-3.49,2.3072l.87-.5019c10.4912-6.5,19.2185-19.7553,22.0273-32.5078a51.9223,51.9223,0,0,1-3.6785,10.6877C234.3206,81.5467,234.2888,81.5945,234.2727,81.6423Z"/>
      <path class="cls-12" d="M201.5893,106.8679c.0379.0066.078.0124.1172.0182-.0787-.0155-.1574-.0313-.2355-.0482C201.511,106.8466,201.5493,106.86,201.5893,106.8679Z"/>
      <path class="cls-12" d="M201.471,106.8379c-.3236-.0707-.6469-.15-.9588-.243C200.8251,106.69,201.1462,106.7676,201.471,106.8379Z"/>
      <path class="cls-12" d="M211.6923,105.5294a22.9208,22.9208,0,0,1-2.8842.988,18.2219,18.2219,0,0,1-3.5377.59c-.0967.0053-.1893-.0011-.2852.0022l-.0507.003c-.2221.0083-.442.0116-.66.0111-.1527,0-.3059,0-.4568-.0049-.01,0-.0213,0-.0317,0-.2525-.0087-.5017-.0291-.7506-.0512-.0474-.0042-.0955-.0071-.1427-.0118-.0561-.0058-.1158-.0052-.1717-.0118-.1234-.0154-.2422-.0383-.365-.0565-.03-.0039-.061-.0069-.0913-.0112-.11-.0163-.22-.0331-.3281-.0521l-.0527-.01c-.0586-.01-.1178-.0186-.1772-.0274,3.5932.7067,7.8682-.0643,12.4752-2.5249l.8731-.5039c-.13.0753-.2578.1353-.3871.2079q-.382.212-.7619.4091C213.1571,104.8645,212.4134,105.2263,211.6923,105.5294Z"/>
      <path class="cls-12" d="M197.39,105.1231c.0532.036.1106.0651.1645.1l-.032-.02C197.479,105.1749,197.4329,105.152,197.39,105.1231Z"/>
      <polygon class="cls-12" points="198.257 105.648 198.262 105.651 198.261 105.65 198.257 105.648"/>
      <path class="cls-12" d="M198.4974,105.7721c.0273.0138.0543.0283.0816.0422l-.0816-.0421Z"/>
      <path class="cls-26" d="M199.5337,106.25q-.1521-.0606-.3018-.1257"/>
      <path class="cls-26" d="M199.5337,106.25q.3978.16.81.29"/>
      <path class="cls-26" d="M199.2319,106.1242c-.2217-.0963-.4388-.2-.6529-.31"/>
      <path class="cls-12" d="M238.9056,64.559c.0423-.7113.07-1.419.0681-2.1177v0C238.9755,63.14,238.9483,63.8475,238.9056,64.559Z"/>
      <path class="cls-26" d="M238.6722,67.0758c-.0053.0413-.012.0828-.0174.1241"/>
      <path class="cls-26" d="M198.2573,105.6483c-.24-.1323-.4734-.2754-.7029-.425"/>
      <path class="cls-26" d="M238.8845,64.91q-.0744,1.0758-.2123,2.1658"/>
      <path class="cls-26" d="M238.9056,64.559c-.0071.1171-.0129.2336-.0211.351"/>
      <path class="cls-12" d="M200.4579,106.5812c.0176.0053.0367.0084.0543.0137-.0566-.0172-.1121-.0367-.1684-.0546C200.3825,106.5525,200.419,106.5693,200.4579,106.5812Z"/>
      <polygon class="cls-13" points="219.58 74.181 219.58 74.216 219.58 74.181 219.58 74.181"/>
      <polygon class="cls-13" points="215.039 64.83 210.525 64.449 210.524 64.451 212.567 64.638 215.007 64.844 215.039 64.846 219.517 59.276 219.517 59.26 215.039 64.83"/>
      <polygon class="cls-13" points="231.395 63.979 231.452 63.906 231.395 63.976 231.395 63.979"/>
      <path class="cls-13" d="M200.8882,72.6229l.5578-.7011.0148.0012.001-.0012.5738.0477,4.5414,5.6411.0321,15.7121v.0321l3.442-4.2866.4779-6.6291-.0479-18.0069.042.0035,2.9381-3.649v-.02l-.0156-5.3063a.1062.1062,0,0,1-.0322-.08c.0318-.0159.0318-.0159.0318-.0319l0,.1117a.11.11,0,0,0,.0158.009l0-.0886V55.349a.8363.8363,0,0,1,.4143-.494c.223-.1275.3984-.1275.4463.0159v.016a.3061.3061,0,0,1-.0159.062l.0157,4.7465.6853-.8566.8606.08-.0158-6.3982c-.0053-.0135-.0161-.0226-.0161-.04.0159,0,.0159,0,.0159-.016a.7956.7956,0,0,1,.4142-.4939.58.58,0,0,1,.29-.0929.1429.1429,0,0,1,.1566.1088v.0159a.303.303,0,0,1-.0158.0619l.0158,6.9177,2.7947.2356.01-.0124v.0132l.0318.0027-.0119.0149.0119.001v2.9115a.6472.6472,0,0,1,.9061.3267,1.08,1.08,0,0,1,.0978.4429v.0252c.2008-.1152.3842-.0679.4461.1182a1.5942,1.5942,0,0,1,.4621-.4621c.0161,0,.0161-.016.0321-.016a.4772.4772,0,0,1,.6533.0478c.0066.0088.0088.0216.0148.031l.001.0009a.4912.4912,0,0,1,.0473.1c.0049.0135.0136.0233.0176.0375a1.1129,1.1129,0,0,1-.0649.7551,1.7246,1.7246,0,0,1-.6533.7968c-.0158,0-.0158.0159-.0318.0159l-1.9282,1.1154.0291,7.9728-.0133-3.718.0161.0013v-.0013l3.34.2823.0219-.0273v.0292l.005,0,.011-.0137v.0146l.0158.0013-.0158.0195.0318,10.4515,1.243.11,1.5457-9.7524-.016-6.7247.5578-.7011.6215.0477,1.0517-6.661.5578-.7011.5737.0478.0092.0459.0226.0019,1.466,7.2188-.016.0159.0672.3363.73.0621-.0043.0592.0521.0044-.1914,2.6772-.0093.1279,2.9607,14.7243.0924.0155a45.7968,45.7968,0,0,0,4.6373-19.0587c-.0051-4.7374-1.059-8.5935-2.91-11.424-3.9029-5.9521-11.308-7.3643-19.8871-2.9094-.3566.1852-.7162.3849-1.0768.5905l-.3144.1817c-13.0621,7.642-23.6143,25.8458-23.7387,40.9322l.0018.7185c.0047.3359.01.6713.0254.9981.0041.0867.0111.17.0158.2565.02.3548.0437.7058.0758,1.0495.0084.0919.0189.1818.0283.2729.035.3394.0748.6743.1219,1.0025.0109.0773.0226.1539.0341.23q.08.5217.1786,1.0245c.01.05.0191.1.0293.1493a18.3,18.3,0,0,0,1.8662,5.2164c.0164.03.0334.0587.05.0881q.2179.3872.4539.7513c.0324.05.0646.0995.0974.1488.1448.2182.2953.429.4494.6348.0442.0585.0874.1183.1321.1758.1469.1894.3.3708.4545.5491.0549.0628.1076.1285.1633.19.1451.16.2962.3117.4478.4628.2641.2617.534.5144.8172.747l-.0639-20.939Zm4.8125-1.2748.0955-.0479a.6148.6148,0,0,1,.1754-.35,1.0254,1.0254,0,0,1,.1433-.1274.4619.4619,0,0,1,.1436-.032,2.055,2.055,0,0,1,.8125-1.1154c.032-.0159.08-.0479.1117-.0638a.4838.4838,0,0,1,.6969.2084.748.748,0,0,1,.0724.2192l.2664-.1567c.209-.0983.3774-.0421.4448.1266a.4332.4332,0,0,1,.0492.208,1.09,1.09,0,0,1-.4621.8446l-1.0358.6056a.4862.4862,0,0,1-.1115.08c-.032.0159-.08.0318-.1117.0477l-1.2588.7331c-.209.0984-.3775.0421-.4447-.1267a.4329.4329,0,0,1-.0492-.208A1.1379,1.1379,0,0,1,205.7007,71.3481Z"/>
      <path class="cls-14" d="M221.9251,95.4278l-.0182-.0015,2.3424-14.7879-1.2428-.1116v1.4979l-2.6947,3.3444.0016.018,1.1779,13.7356.0707-.0641c1.1469-1.03,2.2643-2.1466,3.3373-3.3237l.0367-.04-3.0133-.2525Z"/>
      <path class="cls-14" d="M206.6567,105.37l-1.391,1.7229c.1545-.01.3063-.0126.4625-.0268l.0051-.0005a18.4586,18.4586,0,0,0,3.06-.5606l1.2738-17.4209-3.442,4.2867Z"/>
      <path class="cls-14" d="M234.2409,81.4989l.0318.1434c.0161-.0478.0479-.0956.0637-.1434Z"/>
      <path class="cls-15" d="M215.0227,64.8624l-.0156-.0014-2.44-.2234-2.0436-.1871-.0267-.0024.0478,18.0069,1.6891-2.1035v-.494a3.7891,3.7891,0,0,1,1.2531-2.2811,7.5109,7.5109,0,0,1,1.5674-1.23Z"/>
      <path class="cls-16" d="M222.9905,80.5109v-.0145l-.0318-10.4515L219.58,74.2324v-.016l0-.0357-.0026-.7241-.0291-7.9728h0l-1.3226.765a.0156.0156,0,0,1-.016.0159c-.3014.181-.5651.1139-.6832-.1291a221.374,221.374,0,0,0-.0659-.2852l.0014-.0095-.0014-.0064a1.6124,1.6124,0,0,1,.7323-1.3059,1.268,1.268,0,0,1-.0151-.224l.0006-.0069-.0006-.009c.0006-.0274.0065-.056.0084-.0837a2.438,2.438,0,0,1,.3461-1.0615,2.4909,2.4909,0,0,1,.8248-.8785l.1912-.0957V59.2372l-.0314.0391-4.4783,5.57.0318,11.4893c1.5617-.9083,2.8365-.7967,2.8365.2391v.494l1.6891.1594.1582,1.5813a2.0683,2.0683,0,0,1,.3517-.2588c.0639-.0318.1116-.0637.1754-.0956a1.02,1.02,0,0,1,.9432-.0129.9694.9694,0,0,1,.4693.7676l.0057-.0058v-.0159c.016,0,.016-.0159.032-.0159.3186-.1752.6055-.1593.7649.0638l.0015.0032c.0041.0052.01.0072.0143.0127a.6734.6734,0,0,1,.0529.1221.6175.6175,0,0,1,.0315.0727,1.4157,1.4157,0,0,1-.0844.857,1.8975,1.8975,0,0,1-.7649.94c-.0158,0-.0158.016-.0318.016l-1.3863.7967c-.08.0478-.1436.0956-.2072.1275l-.0957.0478-.0139.006,0,.0066.0295-.0126.2666,3.1051,2.6814-3.3282Z"/>
      <polygon class="cls-16" points="222.959 70.01 222.948 70.023 222.959 70.024 222.959 70.01"/>
      <polygon class="cls-17" points="213.477 63.291 213.461 63.301 213.477 63.292 213.477 63.291"/>
      <path class="cls-17" d="M210.5251,64.4491l4.5137.3814,4.4781-5.57.02-.0243.0119-.0149-.0318-.0027-.01-.0008-2.7947-.2356v.94a.2791.2791,0,0,1-.0074.0289l.0232-.0129a.8953.8953,0,0,1-.43.51.551.551,0,0,1-.3167.0811.1452.1452,0,0,1-.0641-.0237l-.0158-.0065a.1152.1152,0,0,1-.0494-.0987l.016-.0089V58.9185l-.8606-.08-.6853.8566-.0158.02.016,3.0914-.5409.3163.11-.0613.43-.239c0,.0055-.0047.013-.0053.0188l.0053-.0029c0,.1275-.1914.3665-.43.51-.2389.1274-.43.1115-.43-.032l.0049-.0026c-.0006-.0054-.0049-.0076-.0049-.0133v-2.514l-2.9381,3.649-.01.0124Z"/>
      <polygon class="cls-17" points="219.58 74.216 219.58 74.232 222.959 70.045 222.975 70.025 222.959 70.024 222.948 70.023 222.943 70.023 222.921 70.021 219.58 69.739 219.58 69.74 219.58 74.181 219.58 74.216"/>
      <polygon class="cls-17" points="228.026 56.863 228.6 56.911 229.158 56.21 229.135 56.208 228.6 56.162 228.026 56.863"/>
      <polygon class="cls-17" points="226.353 63.476 225.779 64.177 226.847 64.257 226.974 63.524 226.353 63.476"/>
      <path class="cls-15" d="M227.2077,93.0266c.0551-.0693.1117-.137.1666-.2066.366-.4648.73-.9322,1.0805-1.4135l.0279-.038c.0721-.0979.1412-.1987.2127-.2971v-.0026l-.016.0231-.0637-25.1778-1.9441-.1593-.8606,5.179v-.0159l.8606-5.1631-.0479-.016.2231-1.4819-1.0676-.08.0318,6.7087v.016l-1.5457,9.7524-2.34,14.7735-.0024.0145,3.0133.2525c.1715-.1886.3453-.3736.5147-.5654q.5757-.6516,1.1326-1.3286Q226.8984,93.417,227.2077,93.0266Z"/>
      <polygon class="cls-16" points="230.687 63.841 230.675 63.78 230.608 63.444 230.321 63.811 230.687 63.841"/>
      <polygon class="cls-17" points="230.687 63.841 230.321 63.811 229.747 64.512 230.879 64.607 231.395 63.976 231.452 63.906 231.4 63.902 230.703 63.843 230.687 63.841"/>
      <polygon class="cls-15" points="229.747 64.512 229.795 79.503 229.795 79.507 229.795 79.502 230.879 64.607 229.747 64.512"/>
      <path class="cls-16" d="M231.2608,66.5834l.1914-2.6772-.0576.0723-.5.629-1.0816,14.873-.0174.0218,0,.0047v-.0042l-.016.02-.0318-15.011-1.1315,1.4022.0637,25.1778.016-.0231a58.63,58.63,0,0,0,5.5613-9.4265l-.0318-.1434-.0127-.0633-2.9607-14.7243Z"/>
      <polygon class="cls-18" points="230.321 63.811 230.608 63.444 230.624 63.428 229.158 56.21 228.6 56.911 228.616 65.914 229.747 64.512 230.321 63.811"/>
      <polygon class="cls-19" points="228.026 56.863 226.974 63.524 226.847 64.257 226.624 65.739 226.672 65.755 228.616 65.914 228.6 56.911 228.026 56.863"/>
      <path class="cls-17" d="M217.8911,77.0848v.5258l-.0023.0014c-.0114.9078-.9618,2.2093-2.2428,3.115-.1858.1333-.3781.2587-.5754.3735-1.5615.9083-2.8205.7968-2.8365-.239l.016-.51-1.6893,2.1035,4.5258.3824,4.51-5.6091Z"/>
      <path class="cls-16" d="M212.052,105.3584q.4736-.2045.95-.4325c.2037-.0976.4076-.196.6129-.3.0967-.0491.1938-.1012.2905-.1512q.38-.1965.7619-.4091c.1341-.0745.2679-.1463.4029-.225.5035-.2886,1.0021-.6033,1.4988-.9248.2061-.1336.4112-.2707.6156-.4094q.5335-.3616,1.0588-.7467c.1157-.0844.2323-.1654.3473-.2513l-3.5045-18.6706L211.6778,105.52C211.802,105.4684,211.9272,105.4125,212.052,105.3584Z"/>
      <path class="cls-20" d="M220.3118,85.3691l-.0027-.0321-.2666-3.1051-.0295.0126c-.028.0117-.0586.0235-.0821.0352l-2.725,1.5776a.86.86,0,0,1-.2906.1083.4744.4744,0,0,1-.57-.3314,1.9111,1.9111,0,0,1,.8447-1.8325.7046.7046,0,0,1,.5418-.1116v-.0478a1.0912,1.0912,0,0,1,.0364-.177l.0068-.0336a1.242,1.242,0,0,1,.1539-.3761l.0006-.0009a1.2082,1.2082,0,0,1,.1051-.1773,1.1112,1.1112,0,0,1,.2709-.2231.6461.6461,0,0,1,.1351-.0465.3629.3629,0,0,1,.2-.0176,3.6425,3.6425,0,0,1,1.0994-1.7684l.0147-.0122-.1582-1.5813-4.51,5.6091,3.5213,18.6584.0365-.0264c.45-.3352.8936-.6848,1.3324-1.0433.2186-.1786.4342-.3644.65-.5485.1727-.1464.3455-.2921.517-.441.1166-.1025.2311-.21.3471-.3139l-1.1779-13.7356Z"/>
      <path class="cls-15" d="M210.0669,89.0841l-1.2738,17.4209c.0752-.02.149-.0353.2246-.0564.1613-.0454.3248-.0991.4873-.1486q.6284-.1911,1.2693-.4284c.243-.09.485-.1765.7316-.2775.0571-.0232.1149-.05.1719-.0742l3.4088-22.6825-4.5416-.3824Z"/>
      <path class="cls-19" d="M217.4585,77.842l-.0135.0077a6.8434,6.8434,0,0,1-2.3744,2.231,3.7525,3.7525,0,0,1-1.93.6044,1.2029,1.2029,0,0,1-.4445-.0945.7109.7109,0,0,1-.4461-.6852v.94c0,1.0358,1.2748,1.1315,2.8365.2391.192-.11.3787-.23.5594-.3576,1.281-.9057,2.2314-2.2072,2.2428-3.115l.0023-.0014v-.956A2.5567,2.5567,0,0,1,217.4585,77.842Z"/>
      <path class="cls-18" d="M212.6962,80.5906a1.2029,1.2029,0,0,0,.4445.0945,3.7525,3.7525,0,0,0,1.93-.6044,6.8434,6.8434,0,0,0,2.3744-2.231,2.5774,2.5774,0,0,0,.4461-1.2111v-.0637c0-1.02-1.2748-1.1314-2.82-.2391l-.016.01a7.5109,7.5109,0,0,0-1.5674,1.23,3.768,3.768,0,0,0-1.2371,2.2652v.0638A.7266.7266,0,0,0,212.6962,80.5906Z"/>
      <path class="cls-19" d="M213.4612,63.3007c0,.0057.0043.0079.0049.0133.0129.1437.1949.1569.4252.0186a.81.81,0,0,0,.4252-.4911c.0006-.0058.0053-.0133.0053-.0188l-.43.239-.11.0613-.3039.1689Z"/>
      <path class="cls-19" d="M213.477,63.2915l.8288-.4848-.0161-3.0914-.0154-4.6756a.9515.9515,0,0,1-.383.373.4522.4522,0,0,1-.3385.084.1668.1668,0,0,1-.0914-.027.11.11,0,0,1-.0158-.009l.0156,5.3063v2.5337Z"/>
      <path class="cls-19" d="M213.4134,55.3809a.1062.1062,0,0,0,.0322.08l0-.1117C213.4452,55.365,213.4452,55.365,213.4134,55.3809Z"/>
      <path class="cls-18" d="M213.5528,55.4967a.4522.4522,0,0,0,.3385-.084.9515.9515,0,0,0,.383-.373.38.38,0,0,0,.0316-.0908.3061.3061,0,0,0,.0159-.062v-.016c-.0479-.1434-.2233-.1434-.4463-.0159a.8363.8363,0,0,0-.4143.494v.0321A.1138.1138,0,0,0,213.5528,55.4967Z"/>
      <path class="cls-19" d="M215.8515,52.4966v-.0319c0,.016,0,.016-.0159.016,0,.017.0108.0261.0161.04v-.0235Z"/>
      <path class="cls-19" d="M215.8515,60.4005a.1152.1152,0,0,0,.0494.0987l.0158.0065a.1452.1452,0,0,0,.0641.0237.5586.5586,0,0,0,.3009-.097.7479.7479,0,0,0,.4229-.4811.2791.2791,0,0,0,.0074-.0289v-.94l-.0158-6.9177a.8425.8425,0,0,1-.4145.4639c-.1935.1161-.35.1229-.4047.0385a.1.1,0,0,1-.0253-.0466l.0158,6.3982v1.4731Z"/>
      <path class="cls-18" d="M215.8517,52.4968a.1212.1212,0,0,0,.0253.07c.0547.0844.2112.0776.4047-.0385a.8425.8425,0,0,0,.4145-.4639.303.303,0,0,0,.0158-.0619v-.0159a.1429.1429,0,0,0-.1566-.1088.606.606,0,0,0-.29.0929.8368.8368,0,0,0-.4142.4939v.0319Z"/>
      <path class="cls-16" d="M201.4936,82.4231l-1.1312,1.4023.0637,22.736c.0177.0054.0351.0118.0529.0172.3508.1049.7141.1974,1.0785.2734l-.0639-22.182Z"/>
      <path class="cls-15" d="M202.6251,82.5187l-1.1315-.0956V84.67l.0639,22.182c.1068.0232.2172.0414.3262.0615l.0527.01c.1086.019.2182.0358.3281.0521.03.0043.0608.0073.0913.0112.1111.0143.2216.0313.3332.0406Z"/>
      <polygon class="cls-18" points="202.625 82.519 206.577 77.611 202.036 71.97 201.462 72.671 202.625 82.519"/>
      <polygon class="cls-19" points="200.904 72.623 200.904 72.624 196.394 83.491 200.362 83.825 201.462 72.671 200.904 72.623"/>
      <path class="cls-16" d="M206.6409,105.37l-.0318-11.9992v-.0481l-.0321-15.7121-3.9519,4.9081.0639,24.5086v.0108c.0669.0077.1361.01.2035.0169.0472.0047.0953.0076.1427.0118.2489.0221.4981.0425.7506.0512.01,0,.0213,0,.0317,0,.1509.005.3041.0045.4568.0049.2182.0005.4381-.0028.66-.0111l.0507-.003c.0877-.0043.1758-.01.2639-.0153Z"/>
      <path class="cls-15" d="M199.2231,106.1179q.1322.0571.2659.1107c.2709.1088.5466.2087.8283.2975.0363.0115.0722.024.1088.0353l-.0637-22.736-3.968-.3346.0639,20.939c.0285.0235.0594.0427.0879.0658.26.21.5246.4107.7978.5961l.0459.0314c.043.0289.0891.0518.1325.08.2416.1575.4867.3087.739.4471l.0008.0005.0051.0031c.0715.0391.1447.0745.217.1121l.0131.0061h0C198.7349,105.8954,198.9765,106.0115,199.2231,106.1179Z"/>
      <polygon class="cls-17" points="202.625 82.519 201.462 72.671 200.362 83.825 201.494 82.423 202.625 82.519"/>
      <polygon class="cls-17" points="201.462 72.671 202.036 71.97 201.462 71.922 201.461 71.923 200.904 72.623 201.462 72.671"/>
      <path class="cls-21" d="M219.9149,82.28c.0278-.0139.0666-.0279.0977-.0418l.0139-.006.0957-.0478c.0636-.0319.1275-.08.2072-.1275l1.3863-.7967c.016,0,.016-.016.0318-.016a1.8975,1.8975,0,0,0,.7649-.94,1.4157,1.4157,0,0,0,.0844-.857.6175.6175,0,0,0-.0315-.0727.6734.6734,0,0,0-.0529-.1221c-.0039-.0055-.01-.0075-.0143-.0127a.5562.5562,0,0,0-.7506-.0511c-.0158,0-.0158.0159-.0318.0159V79.22l-.016.0159c-.0012-.0094-.0043-.0169-.0057-.0262a.9694.9694,0,0,0-.4693-.7676,1.0612,1.0612,0,0,0-.9273.0289.6929.6929,0,0,0-.1913.08,2.0683,2.0683,0,0,0-.3517.2588l-.0147.0122A3.6425,3.6425,0,0,0,218.64,80.59l0,0a.49.49,0,0,0-.1994.0172.6461.6461,0,0,0-.1351.0465,1.1112,1.1112,0,0,0-.2709.2231,1.2082,1.2082,0,0,0-.1051.1773l-.0006.0009a1.242,1.242,0,0,0-.1539.3761l-.0068.0336a1.0912,1.0912,0,0,0-.0364.177V81.69a.7046.7046,0,0,0-.5418.1116,1.9111,1.9111,0,0,0-.8447,1.8325.4744.4744,0,0,0,.57.3314.8911.8911,0,0,0,.2748-.1083Z"/>
      <path class="cls-21" d="M219.5485,62.1853l-.1912.0956a2.6009,2.6009,0,0,0-1.1709,1.9241c-.0017.0307-.0076.0624-.0078.0927l-.0006.0069a1.268,1.268,0,0,0,.0151.224l.0009.0151a1.66,1.66,0,0,0-.7318,1.2972l-.0014.0095a221.374,221.374,0,0,1,.0659.2852c.1181.243.3818.31.6832.1291a.0156.0156,0,0,0,.016-.0159l1.3226-.765h0l1.9282-1.1154c.016,0,.016-.0159.0318-.0159a1.7246,1.7246,0,0,0,.6533-.7968,1.1129,1.1129,0,0,0,.0649-.7551c-.004-.0142-.0127-.024-.0176-.0375a.4912.4912,0,0,0-.0473-.1l-.001-.0009c-.1435-.19-.382-.2059-.6523-.0469-.0158,0-.0158.0159-.0318.0159a1.2814,1.2814,0,0,0-.4622.4622c-.0638-.1913-.255-.2231-.4621-.1116v-.0637a1.08,1.08,0,0,0-.0978-.4429A.6513.6513,0,0,0,219.5485,62.1853Z"/>
      <path class="cls-21" d="M207.1985,69.643a.1447.1447,0,0,0-.1115.0478,1.9282,1.9282,0,0,0-.8127,1.1154.2579.2579,0,0,0-.1434.0479.5172.5172,0,0,0-.1435.1274.6685.6685,0,0,0-.1752.3507l-.0955.0477a1.09,1.09,0,0,0-.4623.8446.4655.4655,0,0,0,.0334.1761c.0672.1688.2357.2251.4447.1267l1.2588-.7331c.032-.0159.08-.0318.1117-.0477a.4862.4862,0,0,0,.1115-.08l1.0358-.6056a1.09,1.09,0,0,0,.4621-.8446.4332.4332,0,0,0-.0492-.208c-.0756-.1421-.2342-.1863-.4289-.0947l-.2707.1594c-.002-.0136-.009-.0215-.0116-.0346a.748.748,0,0,0-.0724-.2192A.483.483,0,0,0,207.1985,69.643Z"/>
    </g>
  </g>
</svg>
