<svg id="Layer_1" data-name="Layer 1" xmlns="http://www.w3.org/2000/svg" viewBox="0 0 280 219.3931">
  <defs>
    <style>
      .cls-1 {
        fill: #e8e8e8;
      }

      .exterior-L-prim {
        fill: #73302e;
      }

      .curtain-R-prim-light {
        fill: #59acd0;
      }

      .curtain-L-prim-light {
        fill: #438fb0;
      }

      .curtain-R-prim-dark-light {
        fill: #4d90ad;
      }

      .curtain-L-prim-dark-light {
        fill: #426a7a;
      }

      .curtain-R-prim-dark {
        fill: #3e809c;
      }

      .curtain-R-prim-light-dark {
        fill: #3999c1;
      }

      .curtain-L-prim-light-dark {
        fill: #467e97;
      }

      .curtain-L-prim-dark {
        fill: #2f5565;
      }

      .exterior-L-dark {
        fill: #512220;
      }

      .exterior-R-prim {
        fill: #d05752;
      }

      .cls-2 {
        fill: #d1d1d1;
      }

      .cls-3 {
        fill: #a2a2a2;
      }

      .top-prim {
        fill: #dd8a87;
      }

      .cls-4 {
        fill: #4a4a4a;
      }

      .cls-5 {
        fill: #6c6c6c;
      }

      .cls-6 {
        fill: #d0d0d0;
      }

      .cls-7 {
        fill: #f7f7f7;
      }

      .cls-8 {
        fill: #0260ac;
      }
    </style>
  </defs>
  <title>Artboard 28</title>
  <g id="root">
    <g id="Group">
      <path id="Path" class="cls-1" d="M140,216.5064l140-80.829L140,54.8483,0,135.6774Z"/>
      <path id="Path-2" data-name="Path" class="exterior-L-prim" d="M30,132.7906v5.7735l110,63.5086v-5.7736Z"/>
      <path id="Path-3" data-name="Path" class="curtain-R-prim-light" d="M140,196.2991v-69.282L250,63.5086v69.282Z"/>
      <path id="Path-4" data-name="Path" class="curtain-L-prim-light" d="M140,196.2991v-69.282L30,63.5086v69.282Z"/>
      <path id="Path-5" data-name="Path" class="curtain-R-prim-dark-light" d="M140,150.1111,250,86.6026v23.094L140,173.2051Z"/>
      <path id="Path-6" data-name="Path" class="curtain-L-prim-dark-light" d="M140,150.1111,30,86.6026v23.094l110,63.5085Z"/>
      <path id="Path-7" data-name="Path" class="curtain-R-prim-dark" d="M55,112.5833l-5-2.8867v17.32l5,2.8867Z"/>
      <path id="Path-8" data-name="Path" class="curtain-R-prim-dark" d="M45,106.81l-5-2.8867v17.32l5,2.8868Z"/>
      <path id="Path-9" data-name="Path" class="curtain-R-prim-light-dark" d="M140,173.2051l5-2.8867v23.094l-5,2.8868Z"/>
      <path id="Path-10" data-name="Path" class="curtain-R-prim-light-dark" d="M180,150.1111l5-2.8867v23.094l-5,2.8867Z"/>
      <path id="Path-11" data-name="Path" class="curtain-R-prim-light-dark" d="M220,127.0171l5-2.8867v23.094l-5,2.8867Z"/>
      <path id="Path-12" data-name="Path" class="curtain-R-prim-light-dark" d="M160,161.6581l5-2.8867v23.094l-5,2.8867Z"/>
      <path id="Path-13" data-name="Path" class="curtain-R-prim-light-dark" d="M200,138.5641l5-2.8868v23.0941l-5,2.8867Z"/>
      <path id="Path-14" data-name="Path" class="curtain-R-prim-light-dark" d="M240,115.47l5-2.8868v23.0941l-5,2.8867Z"/>
      <path id="Path-15" data-name="Path" class="curtain-R-prim-light-dark" d="M150,167.4316l5-2.8867v23.094l-5,2.8868Z"/>
      <path id="Path-16" data-name="Path" class="curtain-R-prim-light-dark" d="M190,144.3376l5-2.8867v23.094l-5,2.8867Z"/>
      <path id="Path-17" data-name="Path" class="curtain-R-prim-light-dark" d="M230,121.2436l5-2.8867v23.094l-5,2.8867Z"/>
      <path id="Path-18" data-name="Path" class="curtain-R-prim-light-dark" d="M170,155.8846l5-2.8867v23.094l-5,2.8868Z"/>
      <path id="Path-19" data-name="Path" class="curtain-R-prim-light-dark" d="M210,132.7906l5-2.8867v23.094l-5,2.8867Z"/>
      <path id="Path-20" data-name="Path" class="curtain-L-prim-light-dark" d="M140,173.2051l-5-2.8867v23.094l5,2.8868Z"/>
      <path id="Path-21" data-name="Path" class="curtain-L-prim-light-dark" d="M100,150.1111l-5-2.8867v23.094l5,2.8867Z"/>
      <path id="Path-22" data-name="Path" class="curtain-L-prim-light-dark" d="M60,127.0171,55,124.13v23.094l5,2.8867Z"/>
      <path id="Path-23" data-name="Path" class="curtain-L-prim-light-dark" d="M120,161.6581l-5-2.8867v23.094l5,2.8867Z"/>
      <path id="Path-24" data-name="Path" class="curtain-L-prim-light-dark" d="M80,138.5641l-5-2.8868v23.0941l5,2.8867Z"/>
      <path id="Path-25" data-name="Path" class="curtain-L-prim-light-dark" d="M40,115.47l-5-2.8868v23.0941l5,2.8867Z"/>
      <path id="Path-26" data-name="Path" class="curtain-L-prim-light-dark" d="M130,167.4316l-5-2.8867v23.094l5,2.8868Z"/>
      <path id="Path-27" data-name="Path" class="curtain-L-prim-light-dark" d="M90,144.3376l-5-2.8867v23.094l5,2.8867Z"/>
      <path id="Path-28" data-name="Path" class="curtain-L-prim-light-dark" d="M50,121.2436l-5-2.8867v23.094l5,2.8867Z"/>
      <path id="Path-29" data-name="Path" class="curtain-L-prim-light-dark" d="M110,155.8846l-5-2.8867v23.094l5,2.8868Z"/>
      <path id="Path-30" data-name="Path" class="curtain-L-prim-light-dark" d="M70,132.7906l-5-2.8867v23.094l5,2.8867Z"/>
      <path id="Path-31" data-name="Path" class="curtain-R-prim-light-dark" d="M140,127.0171l5-2.8867v23.094l-5,2.8867Z"/>
      <path id="Path-32" data-name="Path" class="curtain-R-prim-light-dark" d="M180,103.923l5-2.8867V124.13l-5,2.8867Z"/>
      <path id="Path-33" data-name="Path" class="curtain-R-prim-light-dark" d="M220,80.8291l5-2.8868v23.0941l-5,2.8867Z"/>
      <path id="Path-34" data-name="Path" class="curtain-R-prim-light-dark" d="M160,115.47l5-2.8868v23.0941l-5,2.8867Z"/>
      <path id="Path-35" data-name="Path" class="curtain-R-prim-light-dark" d="M200,92.376l5-2.8867v23.0941l-5,2.8867Z"/>
      <path id="Path-36" data-name="Path" class="curtain-R-prim-light-dark" d="M240,69.282l5-2.8867V89.4894l-5,2.8867Z"/>
      <path id="Path-37" data-name="Path" class="curtain-R-prim-light-dark" d="M150,121.2436l5-2.8867v23.094l-5,2.8867Z"/>
      <path id="Path-38" data-name="Path" class="curtain-R-prim-light-dark" d="M190,98.15l5-2.8868v23.0941l-5,2.8867Z"/>
      <path id="Path-39" data-name="Path" class="curtain-R-prim-light-dark" d="M230,75.0556l5-2.8868V95.2629L230,98.15Z"/>
      <path id="Path-40" data-name="Path" class="curtain-R-prim-light-dark" d="M170,109.6966l5-2.8867v23.094l-5,2.8867Z"/>
      <path id="Path-41" data-name="Path" class="curtain-R-prim-light-dark" d="M210,86.6026l5-2.8868V106.81l-5,2.8867Z"/>
      <path id="Path-42" data-name="Path" class="curtain-L-prim-light-dark" d="M140,127.0171l-5-2.8867v23.094l5,2.8867Z"/>
      <path id="Path-43" data-name="Path" class="curtain-L-prim-light-dark" d="M100,103.923l-5-2.8867V124.13l5,2.8867Z"/>
      <path id="Path-44" data-name="Path" class="curtain-L-prim-light-dark" d="M60,80.8291l-5-2.8868v23.0941l5,2.8867Z"/>
      <path id="Path-45" data-name="Path" class="curtain-L-prim-light-dark" d="M120,115.47l-5-2.8868v23.0941l5,2.8867Z"/>
      <path id="Path-46" data-name="Path" class="curtain-L-prim-light-dark" d="M80,92.376l-5-2.8867v23.0941l5,2.8867Z"/>
      <path id="Path-47" data-name="Path" class="curtain-L-prim-light-dark" d="M40,69.282l-5-2.8867V89.4894l5,2.8867Z"/>
      <path id="Path-48" data-name="Path" class="curtain-L-prim-light-dark" d="M130,121.2436l-5-2.8867v23.094l5,2.8867Z"/>
      <path id="Path-49" data-name="Path" class="curtain-L-prim-light-dark" d="M90,98.15l-5-2.8868v23.0941l5,2.8867Z"/>
      <path id="Path-50" data-name="Path" class="curtain-L-prim-light-dark" d="M50,75.0556l-5-2.8868V95.2629L50,98.15Z"/>
      <path id="Path-51" data-name="Path" class="curtain-L-prim-light-dark" d="M110,109.6966l-5-2.8867v23.094l5,2.8867Z"/>
      <path id="Path-52" data-name="Path" class="curtain-L-prim-light-dark" d="M70,86.6026l-5-2.8868V106.81l5,2.8867Z"/>
      <path id="Path-53" data-name="Path" class="curtain-R-prim-dark" d="M145,147.2243l5-2.8867v23.0941l-5,2.8867Z"/>
      <path id="Path-54" data-name="Path" class="curtain-R-prim-dark" d="M185,124.13l5-2.8867v23.094l-5,2.8868Z"/>
      <path id="Path-55" data-name="Path" class="curtain-R-prim-dark" d="M225,101.0363l5-2.8867v23.094l-5,2.8868Z"/>
      <path id="Path-56" data-name="Path" class="curtain-R-prim-dark" d="M165,135.6773l5-2.8867v23.0941l-5,2.8867Z"/>
      <path id="Path-57" data-name="Path" class="curtain-R-prim-dark" d="M205,112.5833l5-2.8867v23.094l-5,2.8868Z"/>
      <path id="Path-58" data-name="Path" class="curtain-R-prim-dark" d="M245,89.4893l5-2.8867v23.094l-5,2.8868Z"/>
      <path id="Path-59" data-name="Path" class="curtain-R-prim-dark" d="M155,141.4509l5-2.8868v23.0941l-5,2.8867Z"/>
      <path id="Path-60" data-name="Path" class="curtain-R-prim-dark" d="M195,118.3568l5-2.8867v23.0941l-5,2.8867Z"/>
      <path id="Path-61" data-name="Path" class="curtain-R-prim-dark" d="M235,95.2628l5-2.8867V115.47l-5,2.8867Z"/>
      <path id="Path-62" data-name="Path" class="curtain-R-prim-dark" d="M175,129.9038l5-2.8867v23.0941l-5,2.8867Z"/>
      <path id="Path-63" data-name="Path" class="curtain-R-prim-dark" d="M215,106.81l5-2.8867v23.0941l-5,2.8867Z"/>
      <path id="Path-64" data-name="Path" class="curtain-L-prim-dark" d="M135,147.2243l-5-2.8867v23.0941l5,2.8867Z"/>
      <path id="Path-65" data-name="Path" class="curtain-L-prim-dark" d="M95,124.13l-5-2.8867v23.094l5,2.8868Z"/>
      <path id="Path-66" data-name="Path" class="curtain-L-prim-dark" d="M55,101.0363,50,98.15v23.094l5,2.8868Z"/>
      <path id="Path-67" data-name="Path" class="curtain-L-prim-dark" d="M115,135.6773l-5-2.8867v23.0941l5,2.8867Z"/>
      <path id="Path-68" data-name="Path" class="curtain-L-prim-dark" d="M75,112.5833l-5-2.8867v23.094l5,2.8868Z"/>
      <path id="Path-69" data-name="Path" class="curtain-L-prim-dark" d="M35,89.4893l-5-2.8867v23.094l5,2.8868Z"/>
      <path id="Path-70" data-name="Path" class="curtain-L-prim-dark" d="M125,141.4509l-5-2.8868v23.0941l5,2.8867Z"/>
      <path id="Path-71" data-name="Path" class="curtain-L-prim-dark" d="M85,118.3568,80,115.47v23.0941l5,2.8867Z"/>
      <path id="Path-72" data-name="Path" class="curtain-L-prim-dark" d="M45,95.2628l-5-2.8867V115.47l5,2.8867Z"/>
      <path id="Path-73" data-name="Path" class="curtain-L-prim-dark" d="M105,129.9038l-5-2.8867v23.0941l5,2.8867Z"/>
      <path id="Path-74" data-name="Path" class="curtain-L-prim-dark" d="M65,106.81l-5-2.8867v23.0941l5,2.8867Z"/>
      <path id="Path-75" data-name="Path" class="curtain-R-prim-dark" d="M65,118.3568,60,115.47v17.3205l5,2.8868Z"/>
      <path id="Path-76" data-name="Path" class="curtain-L-prim-light" d="M70,121.2436l-30-17.32v34.641l30,17.3205Z"/>
      <path id="Path-77" data-name="Path" class="curtain-L-prim-light" d="M90,170.3184V150.1111l10,5.7735v20.2073Z"/>
      <path id="Path-78" data-name="Path" class="exterior-L-dark" d="M42.5,145.781l-5-2.8867V102.48l5,2.8868Z"/>
      <path id="Path-79" data-name="Path" class="exterior-L-dark" d="M92.5,174.6485,90,173.2052V150.1111l2.5,1.4434Z"/>
      <path id="Path-80" data-name="Path" class="exterior-L-dark" d="M100,178.9786l-2.5-1.4434V154.4413l2.5,1.4434Z"/>
      <path id="Path-81" data-name="Path" class="exterior-L-dark" d="M67.5,160.2148l5,2.8867V122.687l-5-2.8868Z"/>
      <path id="Path-82" data-name="Path" class="exterior-R-prim" d="M42.5,145.781,55,138.5641V118.3568L42.5,111.14Z"/>
      <path id="Path-83" data-name="Path" class="curtain-R-prim-dark" d="M51.25,120.5219l-5,2.8868V113.305l5-2.8867Z"/>
      <path id="Path-84" data-name="Path" class="curtain-R-prim-dark" d="M51.25,136.3991l-5,2.8867V124.8521l5-2.8868Z"/>
      <path id="Path-85" data-name="Path" class="curtain-L-prim-dark" d="M60,125.5737l-5-2.8867v15.8771l5,2.8868Z"/>
      <path id="Path-86" data-name="Path" class="curtain-L-prim-dark-light" d="M65,128.46l-5-2.8867v15.8772l5,2.8867Z"/>
      <path id="Path-87" data-name="Path" class="curtain-L-prim-dark" d="M67.5,129.9038,65,128.4605v15.8771l2.5,1.4434Z"/>
      <path id="Path-88" data-name="Path" class="exterior-L-dark" d="M40,109.6966l30,17.32v-5.7735l-30-17.32Z"/>
      <path id="Path-89" data-name="Path" class="exterior-L-dark" d="M90,152.9979l10,5.7735v-2.8868l-10-5.7735Z"/>
      <path id="Path-90" data-name="Path" class="cls-1" d="M40,147.2243l15-8.66,12.5,7.2169v17.32Z"/>
      <path id="Path-91" data-name="Path" class="exterior-R-prim" d="M92.5,174.6485l2.5-1.4434v-17.32l-2.5-1.4433Z"/>
      <path id="Path-92" data-name="Path" class="cls-1" d="M90,176.0919l5-2.8868,2.5,1.4434v5.7735Z"/>
      <path id="Path-93" data-name="Path" class="exterior-R-prim" d="M140,202.0727l110-63.5086v-5.7735L140,196.2991Z"/>
      <path id="Path-94" data-name="Path" class="cls-2" d="M140,216.5064v2.8867l140-80.829v-2.8867Z"/>
      <path id="Path-95" data-name="Path" class="cls-3" d="M0,135.6774v2.8867l140,80.829v-2.8867Z"/>
      <path id="anchor_30_127.017_220" class="top-prim" d="M30,63.5086l110,63.5085L250,63.5086,140,0Z"/>
    </g>
    <g id="Group-2" data-name="Group">
      <path id="Path-96" data-name="Path" class="cls-3" d="M200,125.7833l1.7263.9965v33.8879L200,159.6712Z"/>
      <path id="Path-97" data-name="Path" class="cls-4" d="M202.59,156.1826l-.8632.4986L200,155.6841v3.9871l1.7263.9965.8632-.4986Z"/>
      <path id="Path-98" data-name="Path" class="cls-4" d="M202.59,126.2818v2.99l-.8632.4978L200,128.7733v-2.99l1.7263.9965Z"/>
      <g id="Group-3" data-name="Group">
        <path id="Path-99" data-name="Path" class="cls-2" d="M203.4527,123.79l-1.7264,2.99v33.8879l44.8847-25.9144V100.8661l-1.7263-.9972Z"/>
        <path id="Path-100" data-name="Path" class="cls-5" d="M246.611,128.7733l-44.8847,25.9144v5.98l44.8847-25.9144Z"/>
        <path id="Path-101" data-name="Path" class="cls-5" d="M246.611,100.8661v5.98l-44.8847,25.9144V126.78Z"/>
        <path id="Path-102" data-name="Path" class="cls-6" d="M200,125.7833l1.7263.9965,44.8847-25.9137-1.7263-.9972Z"/>
        <path id="Path-103" data-name="Path" class="cls-7" d="M246.611,103.8561,201.7263,129.77v26.9115l44.8847-25.9143Z"/>
        <g id="Group-4" data-name="Group">
          <path id="Path-104" data-name="Path" class="cls-8" d="M241.83,111.8055c0-.0877-.0229-.1028-.1-.0573l-.0746.0449v.6319c.0249-.018.05-.0353.0746-.0525a.1949.1949,0,0,0,.1-.1872Z"/>
          <path id="Path-105" data-name="Path" class="cls-8" d="M241.8249,111.2945v-.3452c0-.0877-.0228-.1063-.0994-.0719l-.07.0311v.5952c.0235-.0124.047-.0255.07-.0386A.1624.1624,0,0,0,241.8249,111.2945Z"/>
          <path id="Path-106" data-name="Path" class="cls-8" d="M243.6176,110.2056c-.03.2521-.0408.2976-.0705.5607.0739-.047.0829-.0566.1568-.1043-.03-.2113-.0415-.241-.0705-.4641Z"/>
          <path id="Compound_Path" data-name="Compound Path" class="cls-8" d="M242.9822,108.9308a3.7483,3.7483,0,0,0-.8721.7154,4.4067,4.4067,0,0,0-.6781.9806l.3929-.1505c.3245-.1229.3922-.0277.3922.2851v.268a.47.47,0,0,1-.1484.357v.0228c.1194-.007.1643.0621.1643.2037v.3024a.8038.8038,0,0,1-.4032.7458l-.3052.2348a1.0665,1.0665,0,0,0,.7671.1077,2.45,2.45,0,0,0,.9378-.4274,4.2755,4.2755,0,0,0,1.4763-1.9342,2.5416,2.5416,0,0,0,.1747-1.0289,1.1055,1.1055,0,0,0-.2935-.7285.9114.9114,0,0,0-.6891-.2479,1.9933,1.9933,0,0,0-.9157.2941Zm-.0179,1.5068v1.3486q-.2019.1554-.4033.3107v-1.4784c-.0891.0393-.1774.0787-.2665.1188v-.4412l.9363-.3591v.3818C243.1417,110.3582,243.0534,110.3982,242.9643,110.4376Zm.83.6905c-.01-.0711-.0207-.0863-.0311-.16l-.2754.1941c-.01.0939-.0208.1311-.0312.2265l-.2844.2188.2748-1.7283.3639-.1416.2521,1.1836Z"/>
        </g>
        <path id="Compound_Path-2" data-name="Compound Path" class="cls-8" d="M207.4211,149.7268l-1.4287-3.1212c-.0179-.0366-.0649-.0331-.1118-.0055l-.5884.3391a.219.219,0,0,0-.0994.1284l-1.4294,4.7709c-.0235.0726.0062.0967.07.0594l.6533-.377a.2027.2027,0,0,0,.1-.1285l.241-.8507,1.5289-.8825.241.5725c.0179.0428.0531.04.1.0124l.6526-.3764C207.4156,149.83,207.4446,149.7718,207.4211,149.7268Zm-2.37.0042.5414-1.9183.5407,1.2934Zm5.1984-4.4187-.5994.3459a.1708.1708,0,0,0-.0884.14v1.5937a1.2854,1.2854,0,0,1-.6236.9184c-.2762.16-.5523.1546-.5523-.3218v-1.5115c0-.0525-.0353-.0677-.0885-.0374l-.5994.3467a.17.17,0,0,0-.0883.1388v1.6525c0,.7706.4467.9591,1.0938.5862a2.3428,2.3428,0,0,0,.8583-.984l.0235.31c.0062.0491.0352.0677.0884.0374l.5759-.3329a.17.17,0,0,0,.0883-.14V145.35C210.3379,145.2964,210.3028,145.2819,210.25,145.3123Zm2.1876-1.263-.4115.2376v-.7942c0-.0525-.0353-.0676-.0878-.0372l-.6.3466a.1694.1694,0,0,0-.0883.1387v.7942l-.4116.2375a.17.17,0,0,0-.0884.1395v.4586c0,.0531.0353.0676.0884.0372l.4116-.2375v2.1579c0,.0532.0352.0677.0883.0373l.6-.346a.1714.1714,0,0,0,.0878-.1395v-2.1579l.4115-.2375a.17.17,0,0,0,.0884-.1395v-.4585C212.5256,144.0334,212.49,144.0189,212.4372,144.0493Zm2.1938-1.3314a2.3251,2.3251,0,0,0-.9115,1.0614V141.986c0-.0532-.0352-.0677-.0884-.0373l-.5994.346a.17.17,0,0,0-.0883.1395V146.55c0,.0532.0352.0677.0883.0373l.5994-.346a.17.17,0,0,0,.0884-.1395v-1.5758a1.4255,1.4255,0,0,1,.6353-.9315c.2818-.1629.5407-.1478.5407.3288v1.5c0,.0524.0352.0677.0884.0372l.5994-.3466a.1693.1693,0,0,0,.0883-.1388v-1.6407C215.6716,142.564,215.2186,142.3789,214.631,142.7179Zm2.9755,1.3051a3.0864,3.0864,0,0,0,1.4937-2.374c0-.8466-.6643-1.1276-1.4937-.6491a3.0866,3.0866,0,0,0-1.4936,2.3741C216.1129,144.2205,216.7772,144.5016,217.6065,144.023Zm0-.7174c-.4178.241-.7471.1015-.7471-.3632a1.54,1.54,0,0,1,.7471-1.225c.4116-.2376.7465-.1015.7465.3632A1.55,1.55,0,0,1,217.6065,143.3056Zm3.8284-4.3807a.543.543,0,0,0-.3881.0891,1.8064,1.8064,0,0,0-.7355.8948l-.0234-.3038c-.0056-.05-.0353-.0677-.0877-.0372l-.5711.3293a.17.17,0,0,0-.0877.1388v2.7055c0,.0525.0352.0677.0877.0373l.6-.3466a.17.17,0,0,0,.0883-.1389v-1.53a1.1948,1.1948,0,0,1,.6-.9694.8981.8981,0,0,1,.2416-.0981.18.18,0,0,0,.1292-.1333l.1761-.5372C221.4818,138.9746,221.4818,138.9331,221.4349,138.9249Zm.6994-1.0213a.8819.8819,0,0,0,.4233-.6733c0-.2355-.1878-.3211-.4233-.1851a.8856.8856,0,0,0-.4288.6767C221.7055,137.9574,221.8933,138.0431,222.1343,137.9036Zm-.3881.859v2.7055c0,.0525.0353.0677.0885.0373l.6-.3467a.17.17,0,0,0,.0877-.1388v-2.7055c0-.0525-.0352-.0677-.0877-.0372l-.6.3466A.17.17,0,0,0,221.7462,138.7626Zm2.8817-1.7512-.4116.2375v-.7941c0-.0532-.0352-.0677-.0883-.0372l-.5995.3466a.1686.1686,0,0,0-.0884.1388v.7941l-.4115.2375a.1694.1694,0,0,0-.0884.1388v.4593c0,.0524.0352.0676.0884.0372l.4115-.2382V140.49c0,.0525.0353.0677.0884.0372l.5995-.3466a.1694.1694,0,0,0,.0883-.1388v-2.1586l.4116-.2375a.17.17,0,0,0,.0883-.1388v-.4592C224.7162,136.9955,224.681,136.98,224.6279,137.0114Zm3.2814-1.8948-.6174.3563a.2361.2361,0,0,0-.1056.1319l-.7,2.3091-.7057-1.4978c-.0173-.0366-.0587-.0366-.1057-.01l-.6056.35c-.0649.0372-.0939.09-.07.1408l1.1111,2.1456-.4178,1.2526c-.0291.0815.0062.0967.0711.0586l.5877-.339a.24.24,0,0,0,.1063-.1319l1.5226-4.7074C228.0032,135.0973,227.9742,135.0793,227.9093,135.1166Zm-21.3934,5.8239-2.5875,1.4944a.1684.1684,0,0,0-.0883.1387v.5352c0,.0532.0352.0677.0883.0372l.8936-.5157v3.3166c0,.0525.0353.0677.0884.0373l.629-.3632a.1706.1706,0,0,0,.0885-.1395v-3.3166l.888-.5125a.1721.1721,0,0,0,.0883-.1395v-.5351C206.6042,140.9253,206.5683,140.91,206.5159,140.9405Zm2.0992.0939a.54.54,0,0,0-.3881.0884,1.8068,1.8068,0,0,0-.7354.895l-.0235-.3039c-.0055-.05-.0352-.0677-.0877-.0373l-.57.3294a.1694.1694,0,0,0-.0884.1388V144.85c0,.0525.0352.0677.0884.0373l.5993-.3467a.1693.1693,0,0,0,.0884-.1387v-1.53a1.1959,1.1959,0,0,1,.6-.97.8938.8938,0,0,1,.241-.098.18.18,0,0,0,.1291-.1333l.1768-.5373C208.662,141.0835,208.662,141.042,208.6151,141.0344Zm3.0052-1.8057-.5414.3121a.1813.1813,0,0,0-.0884.1395l-.0172.28a.8585.8585,0,0,0-.8764.0828,2.9175,2.9175,0,0,0-1.3934,2.3161c0,.84.5876,1.1711,1.3934.7064a2.436,2.436,0,0,0,.87-.9143l.0235.2334c.0063.05.0359.0677.0884.0373l.5414-.3122a.1711.1711,0,0,0,.0877-.1394V139.266C211.708,139.2128,211.6728,139.1983,211.62,139.2287Zm-1.4294,3.077c-.4289.2479-.7409.0808-.7409-.3833a1.5276,1.5276,0,0,1,.7409-1.2277c.4233-.2445.7354-.06.7354.3749A1.5793,1.5793,0,0,1,210.1909,142.3057Zm3.7344-4.4726a2.3237,2.3237,0,0,0-.9115,1.0613v-.0061l-.0235-.3626c-.0062-.05-.0352-.0676-.0884-.0373l-.5759.3329a.1692.1692,0,0,0-.0883.1388v2.7055c0,.0524.0351.0677.0883.0373l.5994-.3467a.1694.1694,0,0,0,.0884-.1388v-1.5765a1.4282,1.4282,0,0,1,.6353-.9308c.2817-.1629.5406-.1478.5406.3287v1.4991c0,.0532.0353.0684.0885.0374l.6-.3461a.17.17,0,0,0,.0877-.1394v-1.6407C214.9659,137.6791,214.5136,137.4934,213.9253,137.8331Zm2.276-.444a.5844.5844,0,0,1,.3176-.43.8216.8216,0,0,1,.5642-.1022.1063.1063,0,0,0,.1292-.069l.2237-.4227c.03-.0525.0414-.1063.0062-.127a1.0344,1.0344,0,0,0-.9882.1353,1.9219,1.9219,0,0,0-1,1.4529c0,.9709,1.3935-.01,1.3935.4482,0,.1823-.1822.3466-.37.455a1.2424,1.2424,0,0,1-.7175.15.1057.1057,0,0,0-.1291.0683l-.23.4558c-.0235.049-.0353.0974,0,.1181a1.1447,1.1447,0,0,0,1.1-.1527,2.134,2.134,0,0,0,1.0993-1.5171C217.6,136.7932,216.2013,137.86,216.2013,137.3891Zm2.211-2.6288a.8849.8849,0,0,0,.4234-.6741c0-.2347-.1885-.32-.4234-.1843a.8863.8863,0,0,0-.4294.6767C217.9829,134.8141,218.1713,134.9,218.4123,134.76Zm-.388.859v2.7055c0,.0525.0352.0677.0877.0372l.6-.3466a.1693.1693,0,0,0,.0883-.1388v-2.7055c0-.0525-.0351-.0677-.0883-.0372l-.6.3466A.17.17,0,0,0,218.0243,135.6193Zm2.8809-1.7519-.4116.2382v-.7941c0-.0532-.0352-.0677-.0876-.0373l-.6.346a.17.17,0,0,0-.0884.1395v.794l-.4116.2376a.1694.1694,0,0,0-.0884.1388v.4586c0,.0531.0352.0683.0884.0372l.4116-.2375v2.1586c0,.0525.0352.0677.0884.0372l.6-.3466a.17.17,0,0,0,.0876-.1388V134.74l.4116-.2375a.17.17,0,0,0,.0884-.1388v-.4592C220.9936,133.8522,220.9583,133.837,220.9052,133.8674Zm-14.76,3.9057a1.7236,1.7236,0,0,0,.5234-1.1725c0-.5587-.4054-.8066-1.223-.3343l-1.4.8079a.17.17,0,0,0-.0884.1388v3.94c0,.0532.0353.0677.0884.0373l1.4-.8079a2.4744,2.4744,0,0,0,1.5172-2.0641C206.9627,137.7834,206.58,137.6336,206.1451,137.7731Zm-.2349-.6347a.9423.9423,0,0,1-.5413.7948l-.6056.3494v-.9114l.6056-.3494C205.6928,136.8353,205.91,136.827,205.91,137.1384Zm-.4411,2.5192-.7058.4073v-1.1173l.7058-.4074c.4294-.2479.6877-.2154.6877.1554A1.1559,1.1559,0,0,1,205.4691,139.6576Zm1.9113-4.597v4.117c0,.0525.0352.0677.0877.0372l.6-.3466a.1693.1693,0,0,0,.0884-.1388v-4.1169c0-.0525-.0352-.0677-.0884-.0373l-.6.3467A.17.17,0,0,0,207.38,135.0606Zm2.7165,2.7125a3.0845,3.0845,0,0,0,1.4937-2.3734c0-.8466-.6643-1.1277-1.4937-.6491a3.0848,3.0848,0,0,0-1.4936,2.374C208.6033,137.9713,209.2677,138.2523,210.0969,137.7731Zm0-.7168c-.4177.2409-.7471.1014-.7471-.3633a1.54,1.54,0,0,1,.7471-1.2249c.4116-.2376.7472-.1016.7472.3624A1.5515,1.5515,0,0,1,210.0969,137.0563Zm3.3049-1.9086c-.435.2513-.7409.087-.7409-.366a1.5163,1.5163,0,0,1,.7409-1.2216.6732.6732,0,0,1,.6-.0877c.047.0138.0878-.0034.1292-.0683l.3584-.5545c.0359-.0553.0414-.1057.0061-.1271a1.1226,1.1226,0,0,0-1.1117.1305,3.0347,3.0347,0,0,0-1.47,2.36c0,.8465.6415,1.1407,1.47.6622a3.2153,3.2153,0,0,0,1.13-1.1636c.0352-.0615.0291-.105-.0062-.12l-.3584-.134c-.0414-.0173-.0828.0062-.13.0745A1.8646,1.8646,0,0,1,213.4018,135.1477Zm4.3808-1.9943-1.1877-.8956,1.0172-1.6753c.0531-.0835.03-.1229-.047-.0787l-.676.39a.2707.2707,0,0,0-.1057.1084l-1.0586,1.7518v-2.5107c0-.0532-.0352-.0684-.0883-.0373l-.6.346a.17.17,0,0,0-.0878.1395v4.1162c0,.0525.0353.0677.0878.0372l.6-.3466a.1694.1694,0,0,0,.0883-.1388v-.6705l.4-.6546.8529.6373c.029.0242.0587.0187.1056-.0082l.6471-.3736C217.8005,133.2494,217.8241,133.1886,217.7826,133.1534Zm3.4816-2.9624c-.0351-.0207-.0821.0062-.1235.0656a2.9081,2.9081,0,0,1-.9288.8894c-.7175.4136-1.2823.1692-1.2823-.589a2.6444,2.6444,0,0,1,1.2823-2.0751,1.1671,1.1671,0,0,1,.9288-.1837c.0414.0117.0884-.0158.1235-.0773l.3881-.6415c.0415-.0649.0415-.1063,0-.1236a1.641,1.641,0,0,0-1.4349.2348,4.3586,4.3586,0,0,0-2.1171,3.3449c0,1.1822.9411,1.5738,2.1171.8949a4.3191,4.3191,0,0,0,1.4349-1.4224c.0415-.065.0415-.1064,0-.1237Zm1.2644-3.1a.8846.8846,0,0,0,.4234-.6739c0-.2347-.1886-.32-.4234-.1843a.8863.8863,0,0,0-.4294.6767C222.0992,127.145,222.2877,127.2306,222.5286,127.0911Zm-.388.8591v2.7056c0,.0524.0352.0676.0884.0372l.5993-.3466a.1694.1694,0,0,0,.0884-.1388v-2.7055c0-.0525-.0352-.0677-.0884-.0374l-.5993.3467A.1694.1694,0,0,0,222.1406,127.95Zm2.8815-1.7519-.4115.2375v-.7933c0-.0532-.0359-.0677-.0884-.0374l-.6.346a.1722.1722,0,0,0-.0883.1395v.7934l-.4116.2382a.17.17,0,0,0-.0877.1389v.4585c0,.0531.0352.0683.0877.0373l.4116-.2375v2.1585c0,.0525.0359.0677.0883.0373l.6-.3466a.171.171,0,0,0,.0884-.1388v-2.1586l.4115-.2376a.17.17,0,0,0,.0878-.1388v-.4592C225.11,126.1831,225.0747,126.168,225.0221,126.1983Zm.9054-1.07a.8832.8832,0,0,0,.4233-.674c0-.2348-.1879-.32-.4233-.1844a.8866.8866,0,0,0-.43.6768C225.498,125.1826,225.6865,125.2682,225.9275,125.1287Zm-.3881.859v2.7055c0,.0525.0352.0677.0884.0373l.5993-.3466a.17.17,0,0,0,.0884-.1389V125.54c0-.0526-.0352-.0677-.0884-.0373l-.5993.3466A.1694.1694,0,0,0,225.5394,125.9877Zm4.0458-1.042c0-.7817-.5352-1.1373-1.37-.6553a2.9872,2.9872,0,0,0-1.4529,2.35c0,.8466.618,1.1545,1.5178.6353a3.2189,3.2189,0,0,0,1.07-1.0593c.0476-.0739.0476-.1154.0061-.1326l-.2589-.1035c-.0407-.0173-.076.0034-.1292.069a2.0455,2.0455,0,0,1-.6118.5531c-.453.261-.7464.2134-.8231-.1243l1.8465-1.0662C229.5555,125.31,229.5852,125.175,229.5852,124.9457Zm-1.3645,0c.3473-.2.6236-.1367.6768.2382l-1.3763.7948A1.4611,1.4611,0,0,1,228.2207,124.9457Zm2.4466-1.2008a.5826.5826,0,0,1,.3176-.43.8225.8225,0,0,1,.5642-.1028.1066.1066,0,0,0,.13-.0684l.223-.4233c.03-.0524.0415-.1063.0063-.127a1.0341,1.0341,0,0,0-.9882.1353,1.9248,1.9248,0,0,0-1,1.4536c0,.97,1.3942-.011,1.3942.4481,0,.1823-.1823.3459-.3708.4544a1.2378,1.2378,0,0,1-.7175.15.1066.1066,0,0,0-.1291.0691l-.2292.4557c-.0235.0491-.0353.0967,0,.1175a1.1432,1.1432,0,0,0,1.0992-.1527,2.1316,2.1316,0,0,0,1.1-1.517C232.067,123.1482,230.6673,124.2151,230.6673,123.7449Z"/>
      </g>
    </g>
  </g>
</svg>
