<svg id="Layer_1" data-name="Layer 1" xmlns="http://www.w3.org/2000/svg" viewBox="0 0 280 219.3931">
  <defs>
    <style>
      .cls-1 {
        fill: #e8e8e8;
      }

      .exterior-L-prim {
        fill: #73302e;
      }

      .curtain-R-prim-light {
        fill: #59acd0;
      }

      .curtain-L-prim-light {
        fill: #438fb0;
      }

      .curtain-R-prim-dark-light {
        fill: #4d90ad;
      }

      .curtain-L-prim-dark-light {
        fill: #426a7a;
      }

      .curtain-R-prim-dark {
        fill: #3e809c;
      }

      .curtain-R-prim-light-dark {
        fill: #3999c1;
      }

      .curtain-L-prim-light-dark {
        fill: #467e97;
      }

      .curtain-L-prim-dark {
        fill: #2f5565;
      }

      .exterior-L-dark {
        fill: #512220;
      }

      .exterior-R-prim {
        fill: #d05752;
      }

      .cls-2 {
        fill: #d1d1d1;
      }

      .cls-3 {
        fill: #a2a2a2;
      }

      .top-prim {
        fill: #dd8a87;
      }

      .cls-4 {
        fill: #4a4a4a;
      }

      .cls-5 {
        fill: #d0d0d0;
      }

      .cls-6 {
        fill: #6c6c6c;
      }

      .cls-7 {
        fill: #f7f7f7;
      }

      .cls-8 {
        fill: #0260ac;
      }
    </style>
  </defs>
  <title>Artboard 29</title>
  <g>
    <g id="Group">
      <path id="Path" class="cls-1" d="M140,216.5064l140-80.829L140,54.8483,0,135.6774Z"/>
      <path id="Path-2" data-name="Path" class="exterior-L-prim" d="M30,132.7906v5.7735l110,63.5086v-5.7736Z"/>
      <path id="Path-3" data-name="Path" class="curtain-R-prim-light" d="M140,196.2991v-69.282L250,63.5086v69.282Z"/>
      <path id="Path-4" data-name="Path" class="curtain-L-prim-light" d="M140,196.2991v-69.282L30,63.5086v69.282Z"/>
      <path id="Path-5" data-name="Path" class="curtain-R-prim-dark-light" d="M140,150.1111,250,86.6026v23.094L140,173.2051Z"/>
      <path id="Path-6" data-name="Path" class="curtain-L-prim-dark-light" d="M140,150.1111,30,86.6026v23.094l110,63.5085Z"/>
      <path id="Path-7" data-name="Path" class="curtain-R-prim-dark" d="M55,112.5833l-5-2.8867v17.32l5,2.8867Z"/>
      <path id="Path-8" data-name="Path" class="curtain-R-prim-dark" d="M45,106.81l-5-2.8867v17.32l5,2.8868Z"/>
      <path id="Path-9" data-name="Path" class="curtain-R-prim-light-dark" d="M140,173.2051l5-2.8867v23.094l-5,2.8868Z"/>
      <path id="Path-10" data-name="Path" class="curtain-R-prim-light-dark" d="M180,150.1111l5-2.8867v23.094l-5,2.8867Z"/>
      <path id="Path-11" data-name="Path" class="curtain-R-prim-light-dark" d="M220,127.0171l5-2.8867v23.094l-5,2.8867Z"/>
      <path id="Path-12" data-name="Path" class="curtain-R-prim-light-dark" d="M160,161.6581l5-2.8867v23.094l-5,2.8867Z"/>
      <path id="Path-13" data-name="Path" class="curtain-R-prim-light-dark" d="M200,138.5641l5-2.8868v23.0941l-5,2.8867Z"/>
      <path id="Path-14" data-name="Path" class="curtain-R-prim-light-dark" d="M240,115.47l5-2.8868v23.0941l-5,2.8867Z"/>
      <path id="Path-15" data-name="Path" class="curtain-R-prim-light-dark" d="M150,167.4316l5-2.8867v23.094l-5,2.8868Z"/>
      <path id="Path-16" data-name="Path" class="curtain-R-prim-light-dark" d="M190,144.3376l5-2.8867v23.094l-5,2.8867Z"/>
      <path id="Path-17" data-name="Path" class="curtain-R-prim-light-dark" d="M230,121.2436l5-2.8867v23.094l-5,2.8867Z"/>
      <path id="Path-18" data-name="Path" class="curtain-R-prim-light-dark" d="M170,155.8846l5-2.8867v23.094l-5,2.8868Z"/>
      <path id="Path-19" data-name="Path" class="curtain-R-prim-light-dark" d="M210,132.7906l5-2.8867v23.094l-5,2.8867Z"/>
      <path id="Path-20" data-name="Path" class="curtain-L-prim-light-dark" d="M140,173.2051l-5-2.8867v23.094l5,2.8868Z"/>
      <path id="Path-21" data-name="Path" class="curtain-L-prim-light-dark" d="M100,150.1111l-5-2.8867v23.094l5,2.8867Z"/>
      <path id="Path-22" data-name="Path" class="curtain-L-prim-light-dark" d="M60,127.0171,55,124.13v23.094l5,2.8867Z"/>
      <path id="Path-23" data-name="Path" class="curtain-L-prim-light-dark" d="M120,161.6581l-5-2.8867v23.094l5,2.8867Z"/>
      <path id="Path-24" data-name="Path" class="curtain-L-prim-light-dark" d="M80,138.5641l-5-2.8868v23.0941l5,2.8867Z"/>
      <path id="Path-25" data-name="Path" class="curtain-L-prim-light-dark" d="M40,115.47l-5-2.8868v23.0941l5,2.8867Z"/>
      <path id="Path-26" data-name="Path" class="curtain-L-prim-light-dark" d="M130,167.4316l-5-2.8867v23.094l5,2.8868Z"/>
      <path id="Path-27" data-name="Path" class="curtain-L-prim-light-dark" d="M90,144.3376l-5-2.8867v23.094l5,2.8867Z"/>
      <path id="Path-28" data-name="Path" class="curtain-L-prim-light-dark" d="M50,121.2436l-5-2.8867v23.094l5,2.8867Z"/>
      <path id="Path-29" data-name="Path" class="curtain-L-prim-light-dark" d="M110,155.8846l-5-2.8867v23.094l5,2.8868Z"/>
      <path id="Path-30" data-name="Path" class="curtain-L-prim-light-dark" d="M70,132.7906l-5-2.8867v23.094l5,2.8867Z"/>
      <path id="Path-31" data-name="Path" class="curtain-R-prim-light-dark" d="M140,127.0171l5-2.8867v23.094l-5,2.8867Z"/>
      <path id="Path-32" data-name="Path" class="curtain-R-prim-light-dark" d="M180,103.923l5-2.8867V124.13l-5,2.8867Z"/>
      <path id="Path-33" data-name="Path" class="curtain-R-prim-light-dark" d="M220,80.8291l5-2.8868v23.0941l-5,2.8867Z"/>
      <path id="Path-34" data-name="Path" class="curtain-R-prim-light-dark" d="M160,115.47l5-2.8868v23.0941l-5,2.8867Z"/>
      <path id="Path-35" data-name="Path" class="curtain-R-prim-light-dark" d="M200,92.376l5-2.8867v23.0941l-5,2.8867Z"/>
      <path id="Path-36" data-name="Path" class="curtain-R-prim-light-dark" d="M240,69.282l5-2.8867V89.4894l-5,2.8867Z"/>
      <path id="Path-37" data-name="Path" class="curtain-R-prim-light-dark" d="M150,121.2436l5-2.8867v23.094l-5,2.8867Z"/>
      <path id="Path-38" data-name="Path" class="curtain-R-prim-light-dark" d="M190,98.15l5-2.8868v23.0941l-5,2.8867Z"/>
      <path id="Path-39" data-name="Path" class="curtain-R-prim-light-dark" d="M230,75.0556l5-2.8868V95.2629L230,98.15Z"/>
      <path id="Path-40" data-name="Path" class="curtain-R-prim-light-dark" d="M170,109.6966l5-2.8867v23.094l-5,2.8867Z"/>
      <path id="Path-41" data-name="Path" class="curtain-R-prim-light-dark" d="M210,86.6026l5-2.8868V106.81l-5,2.8867Z"/>
      <path id="Path-42" data-name="Path" class="curtain-L-prim-light-dark" d="M140,127.0171l-5-2.8867v23.094l5,2.8867Z"/>
      <path id="Path-43" data-name="Path" class="curtain-L-prim-light-dark" d="M100,103.923l-5-2.8867V124.13l5,2.8867Z"/>
      <path id="Path-44" data-name="Path" class="curtain-L-prim-light-dark" d="M60,80.8291l-5-2.8868v23.0941l5,2.8867Z"/>
      <path id="Path-45" data-name="Path" class="curtain-L-prim-light-dark" d="M120,115.47l-5-2.8868v23.0941l5,2.8867Z"/>
      <path id="Path-46" data-name="Path" class="curtain-L-prim-light-dark" d="M80,92.376l-5-2.8867v23.0941l5,2.8867Z"/>
      <path id="Path-47" data-name="Path" class="curtain-L-prim-light-dark" d="M40,69.282l-5-2.8867V89.4894l5,2.8867Z"/>
      <path id="Path-48" data-name="Path" class="curtain-L-prim-light-dark" d="M130,121.2436l-5-2.8867v23.094l5,2.8867Z"/>
      <path id="Path-49" data-name="Path" class="curtain-L-prim-light-dark" d="M90,98.15l-5-2.8868v23.0941l5,2.8867Z"/>
      <path id="Path-50" data-name="Path" class="curtain-L-prim-light-dark" d="M50,75.0556l-5-2.8868V95.2629L50,98.15Z"/>
      <path id="Path-51" data-name="Path" class="curtain-L-prim-light-dark" d="M110,109.6966l-5-2.8867v23.094l5,2.8867Z"/>
      <path id="Path-52" data-name="Path" class="curtain-L-prim-light-dark" d="M70,86.6026l-5-2.8868V106.81l5,2.8867Z"/>
      <path id="Path-53" data-name="Path" class="curtain-R-prim-dark" d="M145,147.2243l5-2.8867v23.0941l-5,2.8867Z"/>
      <path id="Path-54" data-name="Path" class="curtain-R-prim-dark" d="M185,124.13l5-2.8867v23.094l-5,2.8868Z"/>
      <path id="Path-55" data-name="Path" class="curtain-R-prim-dark" d="M225,101.0363l5-2.8867v23.094l-5,2.8868Z"/>
      <path id="Path-56" data-name="Path" class="curtain-R-prim-dark" d="M165,135.6773l5-2.8867v23.0941l-5,2.8867Z"/>
      <path id="Path-57" data-name="Path" class="curtain-R-prim-dark" d="M205,112.5833l5-2.8867v23.094l-5,2.8868Z"/>
      <path id="Path-58" data-name="Path" class="curtain-R-prim-dark" d="M245,89.4893l5-2.8867v23.094l-5,2.8868Z"/>
      <path id="Path-59" data-name="Path" class="curtain-R-prim-dark" d="M155,141.4509l5-2.8868v23.0941l-5,2.8867Z"/>
      <path id="Path-60" data-name="Path" class="curtain-R-prim-dark" d="M195,118.3568l5-2.8867v23.0941l-5,2.8867Z"/>
      <path id="Path-61" data-name="Path" class="curtain-R-prim-dark" d="M235,95.2628l5-2.8867V115.47l-5,2.8867Z"/>
      <path id="Path-62" data-name="Path" class="curtain-R-prim-dark" d="M175,129.9038l5-2.8867v23.0941l-5,2.8867Z"/>
      <path id="Path-63" data-name="Path" class="curtain-R-prim-dark" d="M215,106.81l5-2.8867v23.0941l-5,2.8867Z"/>
      <path id="Path-64" data-name="Path" class="curtain-L-prim-dark" d="M135,147.2243l-5-2.8867v23.0941l5,2.8867Z"/>
      <path id="Path-65" data-name="Path" class="curtain-L-prim-dark" d="M95,124.13l-5-2.8867v23.094l5,2.8868Z"/>
      <path id="Path-66" data-name="Path" class="curtain-L-prim-dark" d="M55,101.0363,50,98.15v23.094l5,2.8868Z"/>
      <path id="Path-67" data-name="Path" class="curtain-L-prim-dark" d="M115,135.6773l-5-2.8867v23.0941l5,2.8867Z"/>
      <path id="Path-68" data-name="Path" class="curtain-L-prim-dark" d="M75,112.5833l-5-2.8867v23.094l5,2.8868Z"/>
      <path id="Path-69" data-name="Path" class="curtain-L-prim-dark" d="M35,89.4893l-5-2.8867v23.094l5,2.8868Z"/>
      <path id="Path-70" data-name="Path" class="curtain-L-prim-dark" d="M125,141.4509l-5-2.8868v23.0941l5,2.8867Z"/>
      <path id="Path-71" data-name="Path" class="curtain-L-prim-dark" d="M85,118.3568,80,115.47v23.0941l5,2.8867Z"/>
      <path id="Path-72" data-name="Path" class="curtain-L-prim-dark" d="M45,95.2628l-5-2.8867V115.47l5,2.8867Z"/>
      <path id="Path-73" data-name="Path" class="curtain-L-prim-dark" d="M105,129.9038l-5-2.8867v23.0941l5,2.8867Z"/>
      <path id="Path-74" data-name="Path" class="curtain-L-prim-dark" d="M65,106.81l-5-2.8867v23.0941l5,2.8867Z"/>
      <path id="Path-75" data-name="Path" class="curtain-R-prim-dark" d="M65,118.3568,60,115.47v17.3205l5,2.8868Z"/>
      <path id="Path-76" data-name="Path" class="curtain-L-prim-light" d="M70,121.2436l-30-17.32v34.641l30,17.3205Z"/>
      <path id="Path-77" data-name="Path" class="curtain-L-prim-light" d="M90,170.3184V150.1111l10,5.7735v20.2073Z"/>
      <path id="Path-78" data-name="Path" class="exterior-L-dark" d="M42.5,145.781l-5-2.8867V102.48l5,2.8868Z"/>
      <path id="Path-79" data-name="Path" class="exterior-L-dark" d="M92.5,174.6485,90,173.2052V150.1111l2.5,1.4434Z"/>
      <path id="Path-80" data-name="Path" class="exterior-L-dark" d="M100,178.9786l-2.5-1.4434V154.4413l2.5,1.4434Z"/>
      <path id="Path-81" data-name="Path" class="exterior-L-dark" d="M67.5,160.2148l5,2.8867V122.687l-5-2.8868Z"/>
      <path id="Path-82" data-name="Path" class="exterior-R-prim" d="M42.5,145.781,55,138.5641V118.3568L42.5,111.14Z"/>
      <path id="Path-83" data-name="Path" class="curtain-R-prim-dark" d="M51.25,120.5219l-5,2.8868V113.305l5-2.8867Z"/>
      <path id="Path-84" data-name="Path" class="curtain-R-prim-dark" d="M51.25,136.3991l-5,2.8867V124.8521l5-2.8868Z"/>
      <path id="Path-85" data-name="Path" class="curtain-L-prim-dark" d="M60,125.5737l-5-2.8867v15.8771l5,2.8868Z"/>
      <path id="Path-86" data-name="Path" class="curtain-L-prim-dark-light" d="M65,128.46l-5-2.8867v15.8772l5,2.8867Z"/>
      <path id="Path-87" data-name="Path" class="curtain-L-prim-dark" d="M67.5,129.9038,65,128.4605v15.8771l2.5,1.4434Z"/>
      <path id="Path-88" data-name="Path" class="exterior-L-dark" d="M40,109.6966l30,17.32v-5.7735l-30-17.32Z"/>
      <path id="Path-89" data-name="Path" class="exterior-L-dark" d="M90,152.9979l10,5.7735v-2.8868l-10-5.7735Z"/>
      <path id="Path-90" data-name="Path" class="cls-1" d="M40,147.2243l15-8.66,12.5,7.2169v17.32Z"/>
      <path id="Path-91" data-name="Path" class="exterior-R-prim" d="M92.5,174.6485l2.5-1.4434v-17.32l-2.5-1.4433Z"/>
      <path id="Path-92" data-name="Path" class="cls-1" d="M90,176.0919l5-2.8868,2.5,1.4434v5.7735Z"/>
      <path id="Path-93" data-name="Path" class="exterior-R-prim" d="M140,202.0727l110-63.5086v-5.7735L140,196.2991Z"/>
      <path id="Path-94" data-name="Path" class="cls-2" d="M140,216.5064v2.8867l140-80.829v-2.8867Z"/>
      <path id="Path-95" data-name="Path" class="cls-3" d="M0,135.6774v2.8867l140,80.829v-2.8867Z"/>
      <path id="anchor_30_127.017_220" class="top-prim" d="M30,63.5086l110,63.5085L250,63.5086,140,0Z"/>
    </g>
    <g id="Group-2" data-name="Group">
      <g id="Group-3" data-name="Group">
        <path id="Path-96" data-name="Path" class="cls-3" d="M222.0361,127.9l.9117.5265v17.8961l-.9117-.5263Z"/>
        <path id="Path-97" data-name="Path" class="cls-4" d="M223.4036,143.9538l-.4558.2633-.9117-.5262v2.1052l.9117.5263.4558-.263Z"/>
        <path id="Path-98" data-name="Path" class="cls-4" d="M223.4036,128.1631v1.579l-.4558.2633-.9117-.5266V127.9l.9117.5265Z"/>
        <path id="Path-99" data-name="Path" class="cls-2" d="M223.86,126.8473l-.9117,1.579v17.8961l23.7038-13.6852V114.7409l-.9116-.5263Z"/>
        <path id="Path-100" data-name="Path" class="cls-5" d="M222.0361,127.9l.9117.5265,23.7038-13.6854-.9116-.5263Z"/>
      </g>
      <g id="Group-4" data-name="Group">
        <path id="Path-101" data-name="Path" class="cls-6" d="M246.6516,129.4788l-23.7038,13.6855v3.1581l23.7038-13.6852Z"/>
        <path id="Path-102" data-name="Path" class="cls-6" d="M246.6516,114.7409v3.158l-23.7038,13.6855v-3.1581Z"/>
        <path id="Path-103" data-name="Path" class="cls-7" d="M246.6516,116.32l-23.7038,13.6855v14.2117l23.7038-13.6855Z"/>
        <g id="Group-5" data-name="Group">
          <path id="Path-104" data-name="Path" class="cls-8" d="M244.1267,120.518c0-.0463-.0121-.0543-.0526-.03l-.0394.0234v.3336l.0394-.0277a.1026.1026,0,0,0,.0526-.0985Z"/>
          <path id="Path-105" data-name="Path" class="cls-8" d="M244.1241,120.2481v-.1819c0-.0467-.0121-.0562-.0525-.0383l-.0369.0164v.3144l.0369-.02A.0864.0864,0,0,0,244.1241,120.2481Z"/>
          <path id="Path-106" data-name="Path" class="cls-8" d="M245.0708,119.6731c-.0157.1331-.0216.1571-.0372.2965.039-.0252.0437-.03.0828-.0551-.0157-.112-.0219-.1277-.0372-.2451Z"/>
          <path id="Compound_Path" data-name="Compound Path" class="cls-8" d="M244.7353,119a1.97,1.97,0,0,0-.4606.3781,2.311,2.311,0,0,0-.3581.5179l.2075-.08c.1714-.0645.2071-.0142.2071.151v.1411a.2484.2484,0,0,1-.0784.1886v.012c.0631-.0037.0868.0332.0868.1076v.16a.4241.4241,0,0,1-.2129.3938l-.1612.1241a.562.562,0,0,0,.4051.0572,1.29,1.29,0,0,0,.4952-.2261,2.1658,2.1658,0,0,0,.4632-.4529,2.1891,2.1891,0,0,0,.3165-.5682,1.3458,1.3458,0,0,0,.0923-.5437.5843.5843,0,0,0-.155-.3844.48.48,0,0,0-.364-.1309,1.0555,1.0555,0,0,0-.4835.155Zm-.01.7961v.7118q-.1067.082-.213.1645v-.7812c-.047.0208-.0937.042-.1407.0627v-.2329l.4944-.19v.2017Zm.4383.3646c-.0054-.0379-.0109-.0459-.0164-.0842l-.1455.1021c-.0054.05-.0109.07-.0164.12l-.15.116.1451-.9132.1922-.0747.1331.625Z"/>
        </g>
        <path id="Compound_Path-2" data-name="Compound Path" class="cls-8" d="M226.35,137.2551l-1.8219,1.0517a.1194.1194,0,0,0-.0623.0981v.3767c0,.0372.0248.0478.0623.0263l.6291-.3636V140.78c0,.0373.0251.0478.0624.0263l.443-.256a.1194.1194,0,0,0,.062-.0981v-2.3354l.6254-.361a.1193.1193,0,0,0,.0621-.0977v-.3767C226.4119,137.2438,226.3871,137.2336,226.35,137.2551Zm1.4781.0657a.3817.3817,0,0,0-.2731.0623,1.2737,1.2737,0,0,0-.5179.63l-.0164-.2141c-.004-.0346-.0248-.0478-.062-.0263l-.4019.232a.12.12,0,0,0-.062.0981v1.9047c0,.0372.0248.0478.062.0263l.4223-.244a.1191.1191,0,0,0,.0624-.0978v-1.0768a.8419.8419,0,0,1,.4223-.6827.6177.6177,0,0,1,.17-.0689.1273.1273,0,0,0,.0908-.0941l.1243-.3782C227.8611,137.3554,227.8611,137.3266,227.8279,137.3208Zm2.1158-1.2713-.3807.22a.1272.1272,0,0,0-.0624.0981l-.0123.1976a.6031.6031,0,0,0-.6167.058,2.0547,2.0547,0,0,0-.9814,1.6308c0,.5919.4139.825.9814.4975a1.7164,1.7164,0,0,0,.6126-.6437l.0164.1645c.0044.0346.0252.0478.0624.0263l.3807-.22a.12.12,0,0,0,.0624-.0981v-1.9046C230.0061,136.0386,229.9813,136.028,229.9437,136.05Zm-1.0061,2.1669c-.3024.1743-.5215.0569-.5215-.27a1.0753,1.0753,0,0,1,.5215-.8647c.2983-.1721.5178-.0419.5178.2644A1.1123,1.1123,0,0,1,228.9376,138.2164Zm2.6293-3.15a1.6394,1.6394,0,0,0-.6418.7472v-.004l-.0165-.2553c-.004-.035-.0248-.0477-.0619-.0262l-.4059.2341a.12.12,0,0,0-.062.0981v1.9047c0,.0372.0248.0478.062.0263l.4222-.244a.1193.1193,0,0,0,.0621-.0978v-1.11a1.0061,1.0061,0,0,1,.4474-.6557c.1987-.1145.3807-.1039.3807.2316v1.0557c0,.0376.0252.0478.0624.0263l.4223-.2436a.12.12,0,0,0,.062-.0981v-1.1553C232.3,134.9584,231.9812,134.8275,231.5669,135.0667Zm1.3872-1.14a.6228.6228,0,0,0,.2983-.4745c0-.1655-.1328-.2257-.2983-.13a.6244.6244,0,0,0-.3023.4769C232.6518,133.9643,232.7845,134.0245,232.9541,133.9264Zm-.2732.6049v1.9047c0,.0373.0249.0478.0621.0263l.4222-.2439a.1192.1192,0,0,0,.0624-.0978v-1.9051c0-.0371-.0248-.0477-.0624-.0262l-.4222.244A.12.12,0,0,0,232.6809,134.5313Zm1.4205-.315a.41.41,0,0,1,.2235-.3027.5767.5767,0,0,1,.3975-.0722.0755.0755,0,0,0,.0912-.0485l.1572-.2979c.0207-.0369.0288-.0748.004-.0894a.7281.7281,0,0,0-.6955.0952,1.3552,1.3552,0,0,0-.7042,1.0233c0,.6833.9817-.0073.9817.3154,0,.1284-.1283.244-.261.3205a.8757.8757,0,0,1-.5051.1055.0746.0746,0,0,0-.0912.0484l-.1615.3209c-.0165.0343-.0248.0682,0,.0828a.8058.8058,0,0,0,.7745-.1075,1.5014,1.5014,0,0,0,.7742-1.0682C235.0867,133.7966,234.1014,134.5478,234.1014,134.2163Zm2.2978-1.8938-.29.167v-.5586c0-.0376-.0252-.0478-.0623-.0263l-.4223.2436a.12.12,0,0,0-.062.0981v.5591l-.29.1673a.12.12,0,0,0-.062.0978v.3231c0,.0372.0248.0478.062.0262l.29-.1674v1.52c0,.0373.0248.0478.062.0263l.4223-.2436a.1206.1206,0,0,0,.0623-.0981v-1.52l.29-.1674a.12.12,0,0,0,.0623-.0981v-.3227C236.4615,132.3112,236.4367,132.301,236.3992,132.3225Zm.617,1.7264a.6155.6155,0,0,0,.2983-.4744c0-.1656-.1327-.2218-.2983-.1259a.6182.6182,0,0,0-.3023.4726C236.7139,134.0908,236.8467,134.147,237.0162,134.0489Zm-10.4472,2.6734-.6582-.6177a1.7251,1.7251,0,0,0,.6086-1.2334c0-.5506-.3683-.7312-1.0517-.3369l-.857.4948a.12.12,0,0,0-.0623.0981v2.7745c0,.0372.0248.0478.0623.0262l.4431-.256a.1194.1194,0,0,0,.062-.0981V136.63l.24-.1389.6254.6039c.0164.0193.0415.0175.0743-.0015l.4723-.2727C226.5774,136.7923,226.5982,136.7511,226.569,136.7223Zm-1.4532-1.4838.3395-.1958c.2651-.1532.5219-.1937.5219.1418a.9109.9109,0,0,1-.5219.7443l-.3395.1958Zm2.0786-1.2166a.622.622,0,0,0,.298-.4745c0-.1655-.1324-.2256-.298-.13a.6244.6244,0,0,0-.3023.477C226.8921,134.06,227.0245,134.12,227.1944,134.0219Zm-.2731.605v1.9047c0,.0372.0248.0478.062.0262l.4223-.2439a.12.12,0,0,0,.062-.0978v-1.9046c0-.0376-.0248-.0478-.062-.0263l-.4223.2436A.12.12,0,0,0,226.9213,134.6269Zm2.9149-2.739-.4224.2439a.12.12,0,0,0-.0619.0981v1.1509a.6208.6208,0,0,0-.5883.0748,2.0554,2.0554,0,0,0-.9813,1.63c0,.5922.4142.8253.9813.4978a1.7167,1.7167,0,0,0,.6131-.6436l.0163.1641c.0044.0349.0248.0477.0624.0262l.3808-.22a.12.12,0,0,0,.0623-.0977v-2.8988C229.8985,131.8769,229.8733,131.8663,229.8362,131.8879Zm-1.0062,3.1606c-.3023.1747-.5219.0569-.5219-.27a1.0759,1.0759,0,0,1,.5219-.8643c.2983-.172.5175-.0419.5175.2645A1.1116,1.1116,0,0,1,228.83,135.0485Zm3.3663-2.5564c0-.5507-.3767-.8008-.9646-.4617a2.1029,2.1029,0,0,0-1.0229,1.6549c0,.5963.4347.8132,1.0685.4475a2.2671,2.2671,0,0,0,.7534-.7458c.0333-.0522.0333-.0813.0044-.0933l-.1823-.073c-.0292-.0124-.054.0018-.0912.0485a1.4352,1.4352,0,0,1-.4306.3891c-.3188.1842-.5259.1506-.5795-.0875l1.3-.75C232.1759,132.7485,232.1963,132.6537,232.1963,132.4921Zm-.96,0c.2443-.1411.439-.0963.4762.1681l-.9689.5594A1.0287,1.0287,0,0,1,231.2358,132.4921Z"/>
      </g>
    </g>
  </g>
</svg>
