<svg id="Layer_1" data-name="Layer 1" xmlns="http://www.w3.org/2000/svg" viewBox="0 0 280 219.3931">
  <defs>
    <style>
      .cls-1 {
        fill: #e8e8e8;
      }

      .exterior-L-prim {
        fill: #73302e;
      }

      .curtain-R-prim-light {
        fill: #59acd0;
      }

      .curtain-L-prim-light {
        fill: #438fb0;
      }

      .curtain-R-prim-dark-light {
        fill: #4d90ad;
      }

      .curtain-L-prim-dark-light {
        fill: #426a7a;
      }

      .curtain-R-prim-dark {
        fill: #3e809c;
      }

      .curtain-R-prim-light-dark {
        fill: #3999c1;
      }

      .curtain-L-prim-light-dark {
        fill: #467e97;
      }

      .curtain-L-prim-dark {
        fill: #2f5565;
      }

      .exterior-L-dark {
        fill: #512220;
      }

      .exterior-R-prim {
        fill: #d05752;
      }

      .cls-2 {
        fill: #d1d1d1;
      }

      .cls-3 {
        fill: #a2a2a2;
      }

      .top-prim {
        fill: #dd8a87;
      }

      .cls-4 {
        fill: #4a4a4a;
      }

      .cls-5 {
        fill: #d0d0d0;
      }

      .cls-6 {
        fill: #6c6c6c;
      }

      .cls-7 {
        fill: #fff;
      }

      .cls-8 {
        fill: #f8c706;
      }

      .cls-9 {
        fill: #fa3312;
      }

      .cls-10 {
        fill: #01953a;
      }

      .cls-11 {
        fill: #940b03;
      }
    </style>
  </defs>
  <title>Artboard 23</title>
  <g>
    <g id="Group">
      <path id="Path" class="cls-1" d="M140,216.5064l140-80.829L140,54.8483,0,135.6774Z"/>
      <path id="Path-2" data-name="Path" class="exterior-L-prim" d="M30,132.7906v5.7735l110,63.5086v-5.7736Z"/>
      <path id="Path-3" data-name="Path" class="curtain-R-prim-light" d="M140,196.2991v-69.282L250,63.5086v69.282Z"/>
      <path id="Path-4" data-name="Path" class="curtain-L-prim-light" d="M140,196.2991v-69.282L30,63.5086v69.282Z"/>
      <path id="Path-5" data-name="Path" class="curtain-R-prim-dark-light" d="M140,150.1111,250,86.6026v23.094L140,173.2051Z"/>
      <path id="Path-6" data-name="Path" class="curtain-L-prim-dark-light" d="M140,150.1111,30,86.6026v23.094l110,63.5085Z"/>
      <path id="Path-7" data-name="Path" class="curtain-R-prim-dark" d="M55,112.5833l-5-2.8867v17.32l5,2.8867Z"/>
      <path id="Path-8" data-name="Path" class="curtain-R-prim-dark" d="M45,106.81l-5-2.8867v17.32l5,2.8868Z"/>
      <path id="Path-9" data-name="Path" class="curtain-R-prim-light-dark" d="M140,173.2051l5-2.8867v23.094l-5,2.8868Z"/>
      <path id="Path-10" data-name="Path" class="curtain-R-prim-light-dark" d="M180,150.1111l5-2.8867v23.094l-5,2.8867Z"/>
      <path id="Path-11" data-name="Path" class="curtain-R-prim-light-dark" d="M220,127.0171l5-2.8867v23.094l-5,2.8867Z"/>
      <path id="Path-12" data-name="Path" class="curtain-R-prim-light-dark" d="M160,161.6581l5-2.8867v23.094l-5,2.8867Z"/>
      <path id="Path-13" data-name="Path" class="curtain-R-prim-light-dark" d="M200,138.5641l5-2.8868v23.0941l-5,2.8867Z"/>
      <path id="Path-14" data-name="Path" class="curtain-R-prim-light-dark" d="M240,115.47l5-2.8868v23.0941l-5,2.8867Z"/>
      <path id="Path-15" data-name="Path" class="curtain-R-prim-light-dark" d="M150,167.4316l5-2.8867v23.094l-5,2.8868Z"/>
      <path id="Path-16" data-name="Path" class="curtain-R-prim-light-dark" d="M190,144.3376l5-2.8867v23.094l-5,2.8867Z"/>
      <path id="Path-17" data-name="Path" class="curtain-R-prim-light-dark" d="M230,121.2436l5-2.8867v23.094l-5,2.8867Z"/>
      <path id="Path-18" data-name="Path" class="curtain-R-prim-light-dark" d="M170,155.8846l5-2.8867v23.094l-5,2.8868Z"/>
      <path id="Path-19" data-name="Path" class="curtain-R-prim-light-dark" d="M210,132.7906l5-2.8867v23.094l-5,2.8867Z"/>
      <path id="Path-20" data-name="Path" class="curtain-L-prim-light-dark" d="M140,173.2051l-5-2.8867v23.094l5,2.8868Z"/>
      <path id="Path-21" data-name="Path" class="curtain-L-prim-light-dark" d="M100,150.1111l-5-2.8867v23.094l5,2.8867Z"/>
      <path id="Path-22" data-name="Path" class="curtain-L-prim-light-dark" d="M60,127.0171,55,124.13v23.094l5,2.8867Z"/>
      <path id="Path-23" data-name="Path" class="curtain-L-prim-light-dark" d="M120,161.6581l-5-2.8867v23.094l5,2.8867Z"/>
      <path id="Path-24" data-name="Path" class="curtain-L-prim-light-dark" d="M80,138.5641l-5-2.8868v23.0941l5,2.8867Z"/>
      <path id="Path-25" data-name="Path" class="curtain-L-prim-light-dark" d="M40,115.47l-5-2.8868v23.0941l5,2.8867Z"/>
      <path id="Path-26" data-name="Path" class="curtain-L-prim-light-dark" d="M130,167.4316l-5-2.8867v23.094l5,2.8868Z"/>
      <path id="Path-27" data-name="Path" class="curtain-L-prim-light-dark" d="M90,144.3376l-5-2.8867v23.094l5,2.8867Z"/>
      <path id="Path-28" data-name="Path" class="curtain-L-prim-light-dark" d="M50,121.2436l-5-2.8867v23.094l5,2.8867Z"/>
      <path id="Path-29" data-name="Path" class="curtain-L-prim-light-dark" d="M110,155.8846l-5-2.8867v23.094l5,2.8868Z"/>
      <path id="Path-30" data-name="Path" class="curtain-L-prim-light-dark" d="M70,132.7906l-5-2.8867v23.094l5,2.8867Z"/>
      <path id="Path-31" data-name="Path" class="curtain-R-prim-light-dark" d="M140,127.0171l5-2.8867v23.094l-5,2.8867Z"/>
      <path id="Path-32" data-name="Path" class="curtain-R-prim-light-dark" d="M180,103.923l5-2.8867V124.13l-5,2.8867Z"/>
      <path id="Path-33" data-name="Path" class="curtain-R-prim-light-dark" d="M220,80.8291l5-2.8868v23.0941l-5,2.8867Z"/>
      <path id="Path-34" data-name="Path" class="curtain-R-prim-light-dark" d="M160,115.47l5-2.8868v23.0941l-5,2.8867Z"/>
      <path id="Path-35" data-name="Path" class="curtain-R-prim-light-dark" d="M200,92.376l5-2.8867v23.0941l-5,2.8867Z"/>
      <path id="Path-36" data-name="Path" class="curtain-R-prim-light-dark" d="M240,69.282l5-2.8867V89.4894l-5,2.8867Z"/>
      <path id="Path-37" data-name="Path" class="curtain-R-prim-light-dark" d="M150,121.2436l5-2.8867v23.094l-5,2.8867Z"/>
      <path id="Path-38" data-name="Path" class="curtain-R-prim-light-dark" d="M190,98.15l5-2.8868v23.0941l-5,2.8867Z"/>
      <path id="Path-39" data-name="Path" class="curtain-R-prim-light-dark" d="M230,75.0556l5-2.8868V95.2629L230,98.15Z"/>
      <path id="Path-40" data-name="Path" class="curtain-R-prim-light-dark" d="M170,109.6966l5-2.8867v23.094l-5,2.8867Z"/>
      <path id="Path-41" data-name="Path" class="curtain-R-prim-light-dark" d="M210,86.6026l5-2.8868V106.81l-5,2.8867Z"/>
      <path id="Path-42" data-name="Path" class="curtain-L-prim-light-dark" d="M140,127.0171l-5-2.8867v23.094l5,2.8867Z"/>
      <path id="Path-43" data-name="Path" class="curtain-L-prim-light-dark" d="M100,103.923l-5-2.8867V124.13l5,2.8867Z"/>
      <path id="Path-44" data-name="Path" class="curtain-L-prim-light-dark" d="M60,80.8291l-5-2.8868v23.0941l5,2.8867Z"/>
      <path id="Path-45" data-name="Path" class="curtain-L-prim-light-dark" d="M120,115.47l-5-2.8868v23.0941l5,2.8867Z"/>
      <path id="Path-46" data-name="Path" class="curtain-L-prim-light-dark" d="M80,92.376l-5-2.8867v23.0941l5,2.8867Z"/>
      <path id="Path-47" data-name="Path" class="curtain-L-prim-light-dark" d="M40,69.282l-5-2.8867V89.4894l5,2.8867Z"/>
      <path id="Path-48" data-name="Path" class="curtain-L-prim-light-dark" d="M130,121.2436l-5-2.8867v23.094l5,2.8867Z"/>
      <path id="Path-49" data-name="Path" class="curtain-L-prim-light-dark" d="M90,98.15l-5-2.8868v23.0941l5,2.8867Z"/>
      <path id="Path-50" data-name="Path" class="curtain-L-prim-light-dark" d="M50,75.0556l-5-2.8868V95.2629L50,98.15Z"/>
      <path id="Path-51" data-name="Path" class="curtain-L-prim-light-dark" d="M110,109.6966l-5-2.8867v23.094l5,2.8867Z"/>
      <path id="Path-52" data-name="Path" class="curtain-L-prim-light-dark" d="M70,86.6026l-5-2.8868V106.81l5,2.8867Z"/>
      <path id="Path-53" data-name="Path" class="curtain-R-prim-dark" d="M145,147.2243l5-2.8867v23.0941l-5,2.8867Z"/>
      <path id="Path-54" data-name="Path" class="curtain-R-prim-dark" d="M185,124.13l5-2.8867v23.094l-5,2.8868Z"/>
      <path id="Path-55" data-name="Path" class="curtain-R-prim-dark" d="M225,101.0363l5-2.8867v23.094l-5,2.8868Z"/>
      <path id="Path-56" data-name="Path" class="curtain-R-prim-dark" d="M165,135.6773l5-2.8867v23.0941l-5,2.8867Z"/>
      <path id="Path-57" data-name="Path" class="curtain-R-prim-dark" d="M205,112.5833l5-2.8867v23.094l-5,2.8868Z"/>
      <path id="Path-58" data-name="Path" class="curtain-R-prim-dark" d="M245,89.4893l5-2.8867v23.094l-5,2.8868Z"/>
      <path id="Path-59" data-name="Path" class="curtain-R-prim-dark" d="M155,141.4509l5-2.8868v23.0941l-5,2.8867Z"/>
      <path id="Path-60" data-name="Path" class="curtain-R-prim-dark" d="M195,118.3568l5-2.8867v23.0941l-5,2.8867Z"/>
      <path id="Path-61" data-name="Path" class="curtain-R-prim-dark" d="M235,95.2628l5-2.8867V115.47l-5,2.8867Z"/>
      <path id="Path-62" data-name="Path" class="curtain-R-prim-dark" d="M175,129.9038l5-2.8867v23.0941l-5,2.8867Z"/>
      <path id="Path-63" data-name="Path" class="curtain-R-prim-dark" d="M215,106.81l5-2.8867v23.0941l-5,2.8867Z"/>
      <path id="Path-64" data-name="Path" class="curtain-L-prim-dark" d="M135,147.2243l-5-2.8867v23.0941l5,2.8867Z"/>
      <path id="Path-65" data-name="Path" class="curtain-L-prim-dark" d="M95,124.13l-5-2.8867v23.094l5,2.8868Z"/>
      <path id="Path-66" data-name="Path" class="curtain-L-prim-dark" d="M55,101.0363,50,98.15v23.094l5,2.8868Z"/>
      <path id="Path-67" data-name="Path" class="curtain-L-prim-dark" d="M115,135.6773l-5-2.8867v23.0941l5,2.8867Z"/>
      <path id="Path-68" data-name="Path" class="curtain-L-prim-dark" d="M75,112.5833l-5-2.8867v23.094l5,2.8868Z"/>
      <path id="Path-69" data-name="Path" class="curtain-L-prim-dark" d="M35,89.4893l-5-2.8867v23.094l5,2.8868Z"/>
      <path id="Path-70" data-name="Path" class="curtain-L-prim-dark" d="M125,141.4509l-5-2.8868v23.0941l5,2.8867Z"/>
      <path id="Path-71" data-name="Path" class="curtain-L-prim-dark" d="M85,118.3568,80,115.47v23.0941l5,2.8867Z"/>
      <path id="Path-72" data-name="Path" class="curtain-L-prim-dark" d="M45,95.2628l-5-2.8867V115.47l5,2.8867Z"/>
      <path id="Path-73" data-name="Path" class="curtain-L-prim-dark" d="M105,129.9038l-5-2.8867v23.0941l5,2.8867Z"/>
      <path id="Path-74" data-name="Path" class="curtain-L-prim-dark" d="M65,106.81l-5-2.8867v23.0941l5,2.8867Z"/>
      <path id="Path-75" data-name="Path" class="curtain-R-prim-dark" d="M65,118.3568,60,115.47v17.3205l5,2.8868Z"/>
      <path id="Path-76" data-name="Path" class="curtain-L-prim-light" d="M70,121.2436l-30-17.32v34.641l30,17.3205Z"/>
      <path id="Path-77" data-name="Path" class="curtain-L-prim-light" d="M90,170.3184V150.1111l10,5.7735v20.2073Z"/>
      <path id="Path-78" data-name="Path" class="exterior-L-dark" d="M42.5,145.781l-5-2.8867V102.48l5,2.8868Z"/>
      <path id="Path-79" data-name="Path" class="exterior-L-dark" d="M92.5,174.6485,90,173.2052V150.1111l2.5,1.4434Z"/>
      <path id="Path-80" data-name="Path" class="exterior-L-dark" d="M100,178.9786l-2.5-1.4434V154.4413l2.5,1.4434Z"/>
      <path id="Path-81" data-name="Path" class="exterior-L-dark" d="M67.5,160.2148l5,2.8867V122.687l-5-2.8868Z"/>
      <path id="Path-82" data-name="Path" class="exterior-R-prim" d="M42.5,145.781,55,138.5641V118.3568L42.5,111.14Z"/>
      <path id="Path-83" data-name="Path" class="curtain-R-prim-dark" d="M51.25,120.5219l-5,2.8868V113.305l5-2.8867Z"/>
      <path id="Path-84" data-name="Path" class="curtain-R-prim-dark" d="M51.25,136.3991l-5,2.8867V124.8521l5-2.8868Z"/>
      <path id="Path-85" data-name="Path" class="curtain-L-prim-dark" d="M60,125.5737l-5-2.8867v15.8771l5,2.8868Z"/>
      <path id="Path-86" data-name="Path" class="curtain-L-prim-dark-light" d="M65,128.46l-5-2.8867v15.8772l5,2.8867Z"/>
      <path id="Path-87" data-name="Path" class="curtain-L-prim-dark" d="M67.5,129.9038,65,128.4605v15.8771l2.5,1.4434Z"/>
      <path id="Path-88" data-name="Path" class="exterior-L-dark" d="M40,109.6966l30,17.32v-5.7735l-30-17.32Z"/>
      <path id="Path-89" data-name="Path" class="exterior-L-dark" d="M90,152.9979l10,5.7735v-2.8868l-10-5.7735Z"/>
      <path id="Path-90" data-name="Path" class="cls-1" d="M40,147.2243l15-8.66,12.5,7.2169v17.32Z"/>
      <path id="Path-91" data-name="Path" class="exterior-R-prim" d="M92.5,174.6485l2.5-1.4434v-17.32l-2.5-1.4433Z"/>
      <path id="Path-92" data-name="Path" class="cls-1" d="M90,176.0919l5-2.8868,2.5,1.4434v5.7735Z"/>
      <path id="Path-93" data-name="Path" class="exterior-R-prim" d="M140,202.0727l110-63.5086v-5.7735L140,196.2991Z"/>
      <path id="Path-94" data-name="Path" class="cls-2" d="M140,216.5064v2.8867l140-80.829v-2.8867Z"/>
      <path id="Path-95" data-name="Path" class="cls-3" d="M0,135.6774v2.8867l140,80.829v-2.8867Z"/>
      <path id="anchor_30_127.017_220" class="top-prim" d="M30,63.5086l110,63.5085L250,63.5086,140,0Z"/>
    </g>
    <g id="Group-2" data-name="Group">
      <g id="Group-3" data-name="Group">
        <path id="Path-96" data-name="Path" class="cls-3" d="M222.0361,127.9l.9117.5262v17.8965l-.9117-.5263Z"/>
        <path id="Path-97" data-name="Path" class="cls-4" d="M223.4036,143.9538l-.4558.2629-.9117-.5262v2.1056l.9117.5263.4558-.2634Z"/>
        <path id="Path-98" data-name="Path" class="cls-4" d="M223.4036,128.1627v1.5794l-.4558.2629-.9117-.5262V127.9l.9117.5262Z"/>
        <path id="Path-99" data-name="Path" class="cls-2" d="M223.86,126.8469l-.9117,1.579v17.8965l23.7038-13.6856V114.7405l-.9116-.5263Z"/>
        <path id="Path-100" data-name="Path" class="cls-5" d="M222.0361,127.9l.9117.5262,23.7038-13.6854-.9116-.5263Z"/>
      </g>
      <g id="Group-4" data-name="Group">
        <path id="Path-101" data-name="Path" class="cls-6" d="M246.6516,129.4788l-23.7038,13.6855v3.1581l23.7038-13.6856Z"/>
        <path id="Path-102" data-name="Path" class="cls-6" d="M246.6516,114.7405v3.1584L222.9478,131.584v-3.1581Z"/>
        <path id="Path-103" data-name="Path" d="M246.6516,116.32,222.9478,130.005v14.2117l23.7038-13.6851Z"/>
        <g id="Group-5" data-name="Group">
          <path id="Path-104" data-name="Path" class="cls-7" d="M244.1267,120.518c0-.0467-.0121-.0544-.0526-.03l-.0394.0237v.3337l.0394-.0277a.1032.1032,0,0,0,.0526-.0989Z"/>
          <path id="Path-105" data-name="Path" class="cls-7" d="M244.1241,120.2481v-.1823c0-.0463-.0121-.0562-.0525-.0379l-.0369.0164v.3143l.0369-.02A.0859.0859,0,0,0,244.1241,120.2481Z"/>
          <path id="Path-106" data-name="Path" class="cls-7" d="M245.0708,119.673c-.0157.1331-.0216.1572-.0372.2962.039-.0248.0437-.03.0828-.0551-.0157-.1116-.0219-.1273-.0372-.2451Z"/>
          <path id="Compound_Path" data-name="Compound Path" class="cls-7" d="M244.7353,119a1.9686,1.9686,0,0,0-.4606.3778,2.327,2.327,0,0,0-.3581.5179l.2075-.0795c.1714-.0649.2071-.0146.2071.1506v.1415a.2481.2481,0,0,1-.0784.1885v.0121c.0631-.0037.0868.0328.0868.1075v.1594a.4247.4247,0,0,1-.2129.3942l-.1612.124a.5636.5636,0,0,0,.4051.0569,1.2943,1.2943,0,0,0,.4952-.2257,2.2567,2.2567,0,0,0,.78-1.0215,1.3441,1.3441,0,0,0,.0923-.5434.5845.5845,0,0,0-.155-.3847.4815.4815,0,0,0-.364-.1309,1.0527,1.0527,0,0,0-.4835.1553Zm-.01.7957v.7119q-.1067.0826-.213.1645v-.7811l-.1407.063v-.233l.4944-.19v.202C244.82,119.7536,244.7728,119.7748,244.7258,119.7955Zm.4383.3647c-.0054-.0375-.0109-.0456-.0164-.0842l-.1455.1025c-.0054.05-.0109.0692-.0164.12l-.15.1156.1451-.9128.1922-.0747.1331.625Z"/>
        </g>
        <path id="Compound_Path-2" data-name="Compound Path" class="cls-7" d="M229.7982,130.6246l-.3767.2177a.1014.1014,0,0,0-.0529.0831V132.58l-.9467-1.125c-.0142-.0168-.0354-.015-.0634.001l-.4329.25a.1015.1015,0,0,0-.0529.0832v2.3583c0,.0317.0212.0405.0529.0223l.3767-.2174a.1022.1022,0,0,0,.0529-.0835v-1.6541l.9467,1.1253c.0139.0164.035.0146.0635-.0014l.4328-.25a.1009.1009,0,0,0,.0525-.0831v-2.358C229.8507,130.6155,229.83,130.6063,229.7982,130.6246Zm2.2526-1.3-.3942.2276a.1455.1455,0,0,0-.0634.0719l-.4683,1.094-.4679-.5536c-.0142-.0164-.0354-.015-.0635.0014l-.3978.23c-.0423.0244-.0562.0569-.035.0835l.7213.8293V132.41c0,.0317.0212.0408.0529.0226l.3767-.2177a.1017.1017,0,0,0,.0529-.0832V131.04l.7213-1.6731C232.107,129.3165,232.0928,129.3,232.0508,129.3241Zm1.89.7392c-.0208-.0127-.0493.0037-.0737.0391a1.734,1.734,0,0,1-.5561.532c-.43.248-.7673.1018-.7673-.3522a1.5819,1.5819,0,0,1,.7673-1.2421.7.7,0,0,1,.5561-.11c.0244.0069.0529-.0095.0737-.0463l.2322-.384c.0248-.0387.0248-.0635,0-.0737a.9826.9826,0,0,0-.8588.14,2.61,2.61,0,0,0-1.2668,2.0025c0,.7074.563.9419,1.2668.5353a2.5768,2.5768,0,0,0,.8588-.8511c.0248-.039.0248-.0635,0-.0741Zm-9.0742,4.1478-.2462.1423v-.4752c0-.0317-.0212-.04-.0529-.0223l-.3592.2072a.1023.1023,0,0,0-.0525.0835v.4752l-.2465.1422a.1012.1012,0,0,0-.0529.0831v.2747c0,.0317.0211.04.0529.0222l.2465-.1423v1.2917c0,.0318.0212.0405.0525.0223l.3592-.2072a.1019.1019,0,0,0,.0529-.0835v-1.2916l.2462-.1423a.1013.1013,0,0,0,.0528-.0831v-.2746C224.9192,134.2017,224.8981,134.1929,224.8664,134.2111Zm1.1053,1.1323a1.8464,1.8464,0,0,0,.8938-1.4207c0-.5069-.3975-.675-.8938-.3884a1.8472,1.8472,0,0,0-.8942,1.4208C225.0775,135.462,225.4754,135.63,225.9717,135.3434Zm0-.4295c-.25.1444-.4471.0612-.4471-.217a.9213.9213,0,0,1,.4471-.733c.2462-.1426.4471-.0613.4471.217A.9277.9277,0,0,1,225.9717,134.9139Zm1.4959-6.1112-.3909.2253a.1173.1173,0,0,0-.06.077l-.5171,2.0866-.574-1.4568c-.0069-.0135-.0138-.02-.0244-.0208a.07.07,0,0,0-.0317.0113l-.3592.2071a.1486.1486,0,0,0-.0281.0234.1055.1055,0,0,0-.0281.0514l-.5736,2.1191-.5106-1.4934c-.0106-.0255-.0313-.0236-.06-.0076l-.3905.2257c-.0387.0223-.0562.0569-.0424.0843l.7462,1.9306c.0073.0244.0354.0222.0635.0058l.373-.2155a.1305.1305,0,0,0,.06-.0766l.57-2.0294.57,1.3708c.0073.0241.0318.0241.06.0076l.3731-.2151a.1507.1507,0,0,0,.0671-.0809l.75-2.7946C227.52,128.7968,227.5062,128.78,227.4676,128.8027Zm1.6261.6272c0-.4679-.3206-.6809-.82-.3924a1.7876,1.7876,0,0,0-.8694,1.4066c0,.5069.3695.6914.908.38a1.93,1.93,0,0,0,.6408-.6338c.0281-.0445.0281-.0689.0033-.0795l-.1546-.062c-.0248-.01-.046.0018-.0777.0412a1.2234,1.2234,0,0,1-.3658.3312c-.2713.1564-.4471.1276-.493-.0744l1.1053-.6382C229.0758,129.648,229.0937,129.5674,229.0937,129.43Zm-.8165,0c.2074-.12.373-.0817.4044.1429l-.8235.4756A.8735.8735,0,0,1,228.2772,129.43Zm1.0805-1.7712v2.4637c0,.0317.0208.0405.0525.0223l.3592-.2072a.1026.1026,0,0,0,.0529-.0835V127.39c0-.0318-.0212-.04-.0529-.0223l-.3592.2072A.1021.1021,0,0,0,229.3577,127.6587Zm1.6224,1.1961c-.26.15-.4434.0518-.4434-.2191a.9073.9073,0,0,1,.4434-.7312.4019.4019,0,0,1,.3589-.0525c.0284.0083.0528-.0022.0776-.0413l.2145-.3314c.0211-.0332.0248-.0635.0036-.0759a.6712.6712,0,0,0-.6652.0777,1.8161,1.8161,0,0,0-.88,1.4127c0,.5065.3836.6831.88.3964a1.928,1.928,0,0,0,.6758-.6965c.0211-.0368.0175-.0627-.0037-.0718l-.2144-.08c-.0248-.01-.05.004-.0777.0448A1.1211,1.1211,0,0,1,230.98,128.8548Zm1.714-.56a1.8472,1.8472,0,0,0,.8942-1.4208c0-.5069-.3979-.675-.8942-.3884a1.846,1.846,0,0,0-.8938,1.42C231.8,128.4128,232.1978,128.5809,232.6941,128.2947Zm0-.43c-.25.1444-.4471.0609-.4471-.217a.9218.9218,0,0,1,.4471-.7333c.2465-.1423.4471-.0609.4471.2169A.9269.9269,0,0,1,232.6941,127.8651Zm3.3087-3.29a1.5424,1.5424,0,0,0-.609.6717c-.1091-.1448-.3027-.1455-.5317-.0135a1.395,1.395,0,0,0-.5456.6353v-.0037l-.0138-.217c-.0037-.0295-.0212-.04-.0529-.0222l-.345.1991a.1014.1014,0,0,0-.0529.0832v1.6191c0,.0317.0212.04.0529.0222l.3592-.2071a.1013.1013,0,0,0,.0525-.0835v-.9431a.8544.8544,0,0,1,.38-.5572c.1688-.0977.3238-.0886.3238.1966v.8974c0,.0318.0211.04.0529.0223l.3588-.2071a.1019.1019,0,0,0,.0529-.0835v-.95a.7619.7619,0,0,1,.38-.55c.1656-.0956.32-.0865.32.1983v.8979c0,.0313.0211.04.0528.0222l.3593-.2075a.1018.1018,0,0,0,.0525-.0831V124.93C236.65,124.4689,236.3791,124.358,236.0028,124.5754Zm2.6008-.636c0-.4683-.32-.6809-.82-.3924a1.7876,1.7876,0,0,0-.8694,1.4065c0,.5069.37.6911.908.38a1.9305,1.9305,0,0,0,.6408-.6338c.028-.0445.028-.0693.0036-.08l-.155-.062c-.0248-.0106-.0459.0018-.0773.0412a1.2327,1.2327,0,0,1-.3661.3311c-.271.1565-.4471.1276-.4927-.0747l1.105-.6379C238.5862,124.1571,238.6036,124.0765,238.6036,123.9394Zm-.8165,0c.2075-.12.3731-.0817.4048.1425l-.8238.4756A.8746.8746,0,0,1,237.7871,123.9394Z"/>
        <g id="Group-6" data-name="Group">
          <path id="Path-107" data-name="Path" class="cls-8" d="M223.86,141.95h0a1.7416,1.7416,0,0,1,.7873-1.3639h0c.4347-.2509.7877-.0474.7877.4544h0a1.7413,1.7413,0,0,1-.7877,1.3638h0C224.2125,142.6555,223.86,142.4521,223.86,141.95Z"/>
          <path id="Path-108" data-name="Path" class="cls-9" d="M223.86,139.6769h0a1.7423,1.7423,0,0,1,.7873-1.3639h0c.4347-.2509.7877-.047.7877.4547h0a1.7416,1.7416,0,0,1-.7877,1.3639h0C224.2125,140.3825,223.86,140.1787,223.86,139.6769Z"/>
          <path id="Path-109" data-name="Path" class="cls-10" d="M225.828,140.8136h0a1.7423,1.7423,0,0,1,.7873-1.3639h0c.4347-.2509.7877-.0471.7877.4548h0a1.7416,1.7416,0,0,1-.7877,1.3638h0C226.181,141.5192,225.828,141.3154,225.828,140.8136Z"/>
          <path id="Path-110" data-name="Path" class="cls-9" d="M225.828,138.5406h0a1.7421,1.7421,0,0,1,.7873-1.3639h0c.4347-.2509.7877-.0474.7877.4544h0a1.7411,1.7411,0,0,1-.7877,1.3639h0C226.181,139.2458,225.828,139.0424,225.828,138.5406Z"/>
          <path id="Path-111" data-name="Path" class="cls-10" d="M227.7965,139.6769h0a1.7416,1.7416,0,0,1,.7877-1.3639h0c.4343-.2509.7873-.047.7873.4547h0a1.7423,1.7423,0,0,1-.7873,1.3639h0C228.15,140.3825,227.7965,140.1787,227.7965,139.6769Z"/>
          <path id="Path-112" data-name="Path" class="cls-11" d="M227.7965,137.4039h0a1.7416,1.7416,0,0,1,.7877-1.3639h0c.4343-.2509.7873-.0471.7873.4547h0a1.7423,1.7423,0,0,1-.7873,1.3639h0C228.15,138.11,227.7965,137.9056,227.7965,137.4039Z"/>
          <path id="Path-113" data-name="Path" class="cls-8" d="M229.765,136.2672h0a1.7409,1.7409,0,0,1,.7877-1.3635h0c.4344-.2509.7873-.0474.7873.4543h0a1.742,1.742,0,0,1-.7873,1.3639h0C230.118,136.9728,229.765,136.7693,229.765,136.2672Z"/>
        </g>
      </g>
    </g>
  </g>
</svg>
