<svg id="Layer_1" data-name="Layer 1" xmlns="http://www.w3.org/2000/svg" viewBox="0 0 280 219.3931">
  <defs>
    <style>
      .cls-1 {
        fill: #e8e8e8;
      }

      .exterior-L-prim {
        fill: #73302e;
      }

      .curtain-R-prim-light {
        fill: #59acd0;
      }

      .curtain-L-prim-light {
        fill: #438fb0;
      }

      .curtain-R-prim-dark-light {
        fill: #4d90ad;
      }

      .curtain-L-prim-dark-light {
        fill: #426a7a;
      }

      .curtain-R-prim-dark {
        fill: #3e809c;
      }

      .curtain-R-prim-light-dark {
        fill: #3999c1;
      }

      .curtain-L-prim-light-dark {
        fill: #467e97;
      }

      .curtain-L-prim-dark {
        fill: #2f5565;
      }

      .exterior-L-dark {
        fill: #512220;
      }

      .exterior-R-prim {
        fill: #d05752;
      }

      .cls-2 {
        fill: #d1d1d1;
      }

      .cls-3 {
        fill: #a2a2a2;
      }

      .top-prim {
        fill: #dd8a87;
      }

      .cls-4 {
        fill: #4a4a4a;
      }

      .cls-5 {
        fill: #d0d0d0;
      }

      .cls-6 {
        fill: #6c6c6c;
      }

      .cls-7 {
        fill: #fff;
      }

      .cls-8 {
        fill: #f8c706;
      }

      .cls-9 {
        fill: #fa3312;
      }

      .cls-10 {
        fill: #01953a;
      }

      .cls-11 {
        fill: #940b03;
      }
    </style>
  </defs>
  <title>Artboard 23</title>
  <g>
    <g id="Group">
      <path id="Path" class="cls-1" d="M140,216.5064l140-80.829L140,54.8483,0,135.6774Z"/>
      <path id="Path-2" data-name="Path" class="exterior-L-prim" d="M30,132.7906v5.7735l110,63.5086v-5.7736Z"/>
      <path id="Path-3" data-name="Path" class="curtain-R-prim-light" d="M140,196.2991v-69.282L250,63.5086v69.282Z"/>
      <path id="Path-4" data-name="Path" class="curtain-L-prim-light" d="M140,196.2991v-69.282L30,63.5086v69.282Z"/>
      <path id="Path-5" data-name="Path" class="curtain-R-prim-dark-light" d="M140,150.1111,250,86.6026v23.094L140,173.2051Z"/>
      <path id="Path-6" data-name="Path" class="curtain-L-prim-dark-light" d="M140,150.1111,30,86.6026v23.094l110,63.5085Z"/>
      <path id="Path-7" data-name="Path" class="curtain-R-prim-dark" d="M55,112.5833l-5-2.8867v17.32l5,2.8867Z"/>
      <path id="Path-8" data-name="Path" class="curtain-R-prim-dark" d="M45,106.81l-5-2.8867v17.32l5,2.8868Z"/>
      <path id="Path-9" data-name="Path" class="curtain-R-prim-light-dark" d="M140,173.2051l5-2.8867v23.094l-5,2.8868Z"/>
      <path id="Path-10" data-name="Path" class="curtain-R-prim-light-dark" d="M180,150.1111l5-2.8867v23.094l-5,2.8867Z"/>
      <path id="Path-11" data-name="Path" class="curtain-R-prim-light-dark" d="M220,127.0171l5-2.8867v23.094l-5,2.8867Z"/>
      <path id="Path-12" data-name="Path" class="curtain-R-prim-light-dark" d="M160,161.6581l5-2.8867v23.094l-5,2.8867Z"/>
      <path id="Path-13" data-name="Path" class="curtain-R-prim-light-dark" d="M200,138.5641l5-2.8868v23.0941l-5,2.8867Z"/>
      <path id="Path-14" data-name="Path" class="curtain-R-prim-light-dark" d="M240,115.47l5-2.8868v23.0941l-5,2.8867Z"/>
      <path id="Path-15" data-name="Path" class="curtain-R-prim-light-dark" d="M150,167.4316l5-2.8867v23.094l-5,2.8868Z"/>
      <path id="Path-16" data-name="Path" class="curtain-R-prim-light-dark" d="M190,144.3376l5-2.8867v23.094l-5,2.8867Z"/>
      <path id="Path-17" data-name="Path" class="curtain-R-prim-light-dark" d="M230,121.2436l5-2.8867v23.094l-5,2.8867Z"/>
      <path id="Path-18" data-name="Path" class="curtain-R-prim-light-dark" d="M170,155.8846l5-2.8867v23.094l-5,2.8868Z"/>
      <path id="Path-19" data-name="Path" class="curtain-R-prim-light-dark" d="M210,132.7906l5-2.8867v23.094l-5,2.8867Z"/>
      <path id="Path-20" data-name="Path" class="curtain-L-prim-light-dark" d="M140,173.2051l-5-2.8867v23.094l5,2.8868Z"/>
      <path id="Path-21" data-name="Path" class="curtain-L-prim-light-dark" d="M100,150.1111l-5-2.8867v23.094l5,2.8867Z"/>
      <path id="Path-22" data-name="Path" class="curtain-L-prim-light-dark" d="M60,127.0171,55,124.13v23.094l5,2.8867Z"/>
      <path id="Path-23" data-name="Path" class="curtain-L-prim-light-dark" d="M120,161.6581l-5-2.8867v23.094l5,2.8867Z"/>
      <path id="Path-24" data-name="Path" class="curtain-L-prim-light-dark" d="M80,138.5641l-5-2.8868v23.0941l5,2.8867Z"/>
      <path id="Path-25" data-name="Path" class="curtain-L-prim-light-dark" d="M40,115.47l-5-2.8868v23.0941l5,2.8867Z"/>
      <path id="Path-26" data-name="Path" class="curtain-L-prim-light-dark" d="M130,167.4316l-5-2.8867v23.094l5,2.8868Z"/>
      <path id="Path-27" data-name="Path" class="curtain-L-prim-light-dark" d="M90,144.3376l-5-2.8867v23.094l5,2.8867Z"/>
      <path id="Path-28" data-name="Path" class="curtain-L-prim-light-dark" d="M50,121.2436l-5-2.8867v23.094l5,2.8867Z"/>
      <path id="Path-29" data-name="Path" class="curtain-L-prim-light-dark" d="M110,155.8846l-5-2.8867v23.094l5,2.8868Z"/>
      <path id="Path-30" data-name="Path" class="curtain-L-prim-light-dark" d="M70,132.7906l-5-2.8867v23.094l5,2.8867Z"/>
      <path id="Path-31" data-name="Path" class="curtain-R-prim-light-dark" d="M140,127.0171l5-2.8867v23.094l-5,2.8867Z"/>
      <path id="Path-32" data-name="Path" class="curtain-R-prim-light-dark" d="M180,103.923l5-2.8867V124.13l-5,2.8867Z"/>
      <path id="Path-33" data-name="Path" class="curtain-R-prim-light-dark" d="M220,80.8291l5-2.8868v23.0941l-5,2.8867Z"/>
      <path id="Path-34" data-name="Path" class="curtain-R-prim-light-dark" d="M160,115.47l5-2.8868v23.0941l-5,2.8867Z"/>
      <path id="Path-35" data-name="Path" class="curtain-R-prim-light-dark" d="M200,92.376l5-2.8867v23.0941l-5,2.8867Z"/>
      <path id="Path-36" data-name="Path" class="curtain-R-prim-light-dark" d="M240,69.282l5-2.8867V89.4894l-5,2.8867Z"/>
      <path id="Path-37" data-name="Path" class="curtain-R-prim-light-dark" d="M150,121.2436l5-2.8867v23.094l-5,2.8867Z"/>
      <path id="Path-38" data-name="Path" class="curtain-R-prim-light-dark" d="M190,98.15l5-2.8868v23.0941l-5,2.8867Z"/>
      <path id="Path-39" data-name="Path" class="curtain-R-prim-light-dark" d="M230,75.0556l5-2.8868V95.2629L230,98.15Z"/>
      <path id="Path-40" data-name="Path" class="curtain-R-prim-light-dark" d="M170,109.6966l5-2.8867v23.094l-5,2.8867Z"/>
      <path id="Path-41" data-name="Path" class="curtain-R-prim-light-dark" d="M210,86.6026l5-2.8868V106.81l-5,2.8867Z"/>
      <path id="Path-42" data-name="Path" class="curtain-L-prim-light-dark" d="M140,127.0171l-5-2.8867v23.094l5,2.8867Z"/>
      <path id="Path-43" data-name="Path" class="curtain-L-prim-light-dark" d="M100,103.923l-5-2.8867V124.13l5,2.8867Z"/>
      <path id="Path-44" data-name="Path" class="curtain-L-prim-light-dark" d="M60,80.8291l-5-2.8868v23.0941l5,2.8867Z"/>
      <path id="Path-45" data-name="Path" class="curtain-L-prim-light-dark" d="M120,115.47l-5-2.8868v23.0941l5,2.8867Z"/>
      <path id="Path-46" data-name="Path" class="curtain-L-prim-light-dark" d="M80,92.376l-5-2.8867v23.0941l5,2.8867Z"/>
      <path id="Path-47" data-name="Path" class="curtain-L-prim-light-dark" d="M40,69.282l-5-2.8867V89.4894l5,2.8867Z"/>
      <path id="Path-48" data-name="Path" class="curtain-L-prim-light-dark" d="M130,121.2436l-5-2.8867v23.094l5,2.8867Z"/>
      <path id="Path-49" data-name="Path" class="curtain-L-prim-light-dark" d="M90,98.15l-5-2.8868v23.0941l5,2.8867Z"/>
      <path id="Path-50" data-name="Path" class="curtain-L-prim-light-dark" d="M50,75.0556l-5-2.8868V95.2629L50,98.15Z"/>
      <path id="Path-51" data-name="Path" class="curtain-L-prim-light-dark" d="M110,109.6966l-5-2.8867v23.094l5,2.8867Z"/>
      <path id="Path-52" data-name="Path" class="curtain-L-prim-light-dark" d="M70,86.6026l-5-2.8868V106.81l5,2.8867Z"/>
      <path id="Path-53" data-name="Path" class="curtain-R-prim-dark" d="M145,147.2243l5-2.8867v23.0941l-5,2.8867Z"/>
      <path id="Path-54" data-name="Path" class="curtain-R-prim-dark" d="M185,124.13l5-2.8867v23.094l-5,2.8868Z"/>
      <path id="Path-55" data-name="Path" class="curtain-R-prim-dark" d="M225,101.0363l5-2.8867v23.094l-5,2.8868Z"/>
      <path id="Path-56" data-name="Path" class="curtain-R-prim-dark" d="M165,135.6773l5-2.8867v23.0941l-5,2.8867Z"/>
      <path id="Path-57" data-name="Path" class="curtain-R-prim-dark" d="M205,112.5833l5-2.8867v23.094l-5,2.8868Z"/>
      <path id="Path-58" data-name="Path" class="curtain-R-prim-dark" d="M245,89.4893l5-2.8867v23.094l-5,2.8868Z"/>
      <path id="Path-59" data-name="Path" class="curtain-R-prim-dark" d="M155,141.4509l5-2.8868v23.0941l-5,2.8867Z"/>
      <path id="Path-60" data-name="Path" class="curtain-R-prim-dark" d="M195,118.3568l5-2.8867v23.0941l-5,2.8867Z"/>
      <path id="Path-61" data-name="Path" class="curtain-R-prim-dark" d="M235,95.2628l5-2.8867V115.47l-5,2.8867Z"/>
      <path id="Path-62" data-name="Path" class="curtain-R-prim-dark" d="M175,129.9038l5-2.8867v23.0941l-5,2.8867Z"/>
      <path id="Path-63" data-name="Path" class="curtain-R-prim-dark" d="M215,106.81l5-2.8867v23.0941l-5,2.8867Z"/>
      <path id="Path-64" data-name="Path" class="curtain-L-prim-dark" d="M135,147.2243l-5-2.8867v23.0941l5,2.8867Z"/>
      <path id="Path-65" data-name="Path" class="curtain-L-prim-dark" d="M95,124.13l-5-2.8867v23.094l5,2.8868Z"/>
      <path id="Path-66" data-name="Path" class="curtain-L-prim-dark" d="M55,101.0363,50,98.15v23.094l5,2.8868Z"/>
      <path id="Path-67" data-name="Path" class="curtain-L-prim-dark" d="M115,135.6773l-5-2.8867v23.0941l5,2.8867Z"/>
      <path id="Path-68" data-name="Path" class="curtain-L-prim-dark" d="M75,112.5833l-5-2.8867v23.094l5,2.8868Z"/>
      <path id="Path-69" data-name="Path" class="curtain-L-prim-dark" d="M35,89.4893l-5-2.8867v23.094l5,2.8868Z"/>
      <path id="Path-70" data-name="Path" class="curtain-L-prim-dark" d="M125,141.4509l-5-2.8868v23.0941l5,2.8867Z"/>
      <path id="Path-71" data-name="Path" class="curtain-L-prim-dark" d="M85,118.3568,80,115.47v23.0941l5,2.8867Z"/>
      <path id="Path-72" data-name="Path" class="curtain-L-prim-dark" d="M45,95.2628l-5-2.8867V115.47l5,2.8867Z"/>
      <path id="Path-73" data-name="Path" class="curtain-L-prim-dark" d="M105,129.9038l-5-2.8867v23.0941l5,2.8867Z"/>
      <path id="Path-74" data-name="Path" class="curtain-L-prim-dark" d="M65,106.81l-5-2.8867v23.0941l5,2.8867Z"/>
      <path id="Path-75" data-name="Path" class="curtain-R-prim-dark" d="M65,118.3568,60,115.47v17.3205l5,2.8868Z"/>
      <path id="Path-76" data-name="Path" class="curtain-L-prim-light" d="M70,121.2436l-30-17.32v34.641l30,17.3205Z"/>
      <path id="Path-77" data-name="Path" class="curtain-L-prim-light" d="M90,170.3184V150.1111l10,5.7735v20.2073Z"/>
      <path id="Path-78" data-name="Path" class="exterior-L-dark" d="M42.5,145.781l-5-2.8867V102.48l5,2.8868Z"/>
      <path id="Path-79" data-name="Path" class="exterior-L-dark" d="M92.5,174.6485,90,173.2052V150.1111l2.5,1.4434Z"/>
      <path id="Path-80" data-name="Path" class="exterior-L-dark" d="M100,178.9786l-2.5-1.4434V154.4413l2.5,1.4434Z"/>
      <path id="Path-81" data-name="Path" class="exterior-L-dark" d="M67.5,160.2148l5,2.8867V122.687l-5-2.8868Z"/>
      <path id="Path-82" data-name="Path" class="exterior-R-prim" d="M42.5,145.781,55,138.5641V118.3568L42.5,111.14Z"/>
      <path id="Path-83" data-name="Path" class="curtain-R-prim-dark" d="M51.25,120.5219l-5,2.8868V113.305l5-2.8867Z"/>
      <path id="Path-84" data-name="Path" class="curtain-R-prim-dark" d="M51.25,136.3991l-5,2.8867V124.8521l5-2.8868Z"/>
      <path id="Path-85" data-name="Path" class="curtain-L-prim-dark" d="M60,125.5737l-5-2.8867v15.8771l5,2.8868Z"/>
      <path id="Path-86" data-name="Path" class="curtain-L-prim-dark-light" d="M65,128.46l-5-2.8867v15.8772l5,2.8867Z"/>
      <path id="Path-87" data-name="Path" class="curtain-L-prim-dark" d="M67.5,129.9038,65,128.4605v15.8771l2.5,1.4434Z"/>
      <path id="Path-88" data-name="Path" class="exterior-L-dark" d="M40,109.6966l30,17.32v-5.7735l-30-17.32Z"/>
      <path id="Path-89" data-name="Path" class="exterior-L-dark" d="M90,152.9979l10,5.7735v-2.8868l-10-5.7735Z"/>
      <path id="Path-90" data-name="Path" class="cls-1" d="M40,147.2243l15-8.66,12.5,7.2169v17.32Z"/>
      <path id="Path-91" data-name="Path" class="exterior-R-prim" d="M92.5,174.6485l2.5-1.4434v-17.32l-2.5-1.4433Z"/>
      <path id="Path-92" data-name="Path" class="cls-1" d="M90,176.0919l5-2.8868,2.5,1.4434v5.7735Z"/>
      <path id="Path-93" data-name="Path" class="exterior-R-prim" d="M140,202.0727l110-63.5086v-5.7735L140,196.2991Z"/>
      <path id="Path-94" data-name="Path" class="cls-2" d="M140,216.5064v2.8867l140-80.829v-2.8867Z"/>
      <path id="Path-95" data-name="Path" class="cls-3" d="M0,135.6774v2.8867l140,80.829v-2.8867Z"/>
      <path id="anchor_30_127.017_220" class="top-prim" d="M30,63.5086l110,63.5085L250,63.5086,140,0Z"/>
    </g>
    <g id="Group-2" data-name="Group">
      <g id="Group-3" data-name="Group">
        <path id="Path-96" data-name="Path" class="cls-3" d="M200,122.8371l1.7263.9964v33.888L200,156.725Z"/>
        <path id="Path-97" data-name="Path" class="cls-4" d="M202.59,153.2364l-.8632.4979L200,152.7379v3.9871l1.7263.9965.8632-.4986Z"/>
        <path id="Path-98" data-name="Path" class="cls-4" d="M202.59,123.335v2.9906l-.8632.4979L200,125.8271v-2.99l1.7263.9964Z"/>
        <path id="Path-99" data-name="Path" class="cls-2" d="M203.4527,120.8435l-1.7264,2.99v33.888l44.8847-25.9144V97.9192l-1.7263-.9965Z"/>
        <path id="Path-100" data-name="Path" class="cls-5" d="M200,122.8371l1.7263.9964L246.611,97.9192l-1.7263-.9965Z"/>
      </g>
      <g id="Group-4" data-name="Group">
        <path id="Path-101" data-name="Path" class="cls-6" d="M246.611,125.8271l-44.8847,25.9143v5.98l44.8847-25.9144Z"/>
        <path id="Path-102" data-name="Path" class="cls-6" d="M246.611,97.9192V103.9l-44.8847,25.9136v-5.98Z"/>
        <path id="Path-103" data-name="Path" d="M246.611,100.91l-44.8847,25.9137v26.9108l44.8847-25.9136Z"/>
        <g id="Group-5" data-name="Group">
          <path id="Path-104" data-name="Path" class="cls-7" d="M241.83,108.8593c0-.0884-.0229-.1029-.1-.0573l-.0746.0448v.6319c.0249-.018.05-.0352.0746-.0525a.1954.1954,0,0,0,.1-.1871Z"/>
          <path id="Path-105" data-name="Path" class="cls-7" d="M241.8249,108.3483v-.3452c0-.0878-.0228-.1064-.0994-.0719l-.07.0311v.5952c.0235-.0131.047-.0255.07-.0386A.1626.1626,0,0,0,241.8249,108.3483Z"/>
          <path id="Path-106" data-name="Path" class="cls-7" d="M243.6176,107.2593c-.03.2521-.0408.2977-.0705.5608.0739-.047.0829-.0574.1568-.1043-.03-.2113-.0415-.241-.0705-.464Z"/>
          <path id="Compound_Path" data-name="Compound Path" class="cls-7" d="M242.9822,105.9846a3.7257,3.7257,0,0,0-.8721.7154,4.4044,4.4044,0,0,0-.6781.9806l.3929-.1506c.3245-.1229.3922-.0276.3922.2852v.2679a.47.47,0,0,1-.1484.357v.0229c.1194-.0069.1643.0621.1643.2036v.3018a.8043.8043,0,0,1-.4032.7465l-.3052.2348a1.067,1.067,0,0,0,.7671.1077,2.4517,2.4517,0,0,0,.9378-.4275,4.2741,4.2741,0,0,0,1.4763-1.9342,2.5414,2.5414,0,0,0,.1747-1.0289,1.1053,1.1053,0,0,0-.2935-.7284.9114.9114,0,0,0-.6891-.2479,1.9909,1.9909,0,0,0-.9157.2941Zm-.0179,1.5067v1.348q-.2019.1563-.4033.3114v-1.4791c-.0891.04-.1774.0794-.2665.12V107.35l.9363-.36v.3825C243.1417,107.4119,243.0534,107.4519,242.9643,107.4913Zm.83.6905c-.01-.071-.0207-.0863-.0311-.1594l-.2754.194c-.01.0939-.0208.1312-.0312.2265l-.2844.2189.2748-1.7284.3639-.1416.2521,1.1836Z"/>
        </g>
        <path id="Compound_Path-2" data-name="Compound Path" class="cls-7" d="M214.698,127.9967l-.7134.4122a.1923.1923,0,0,0-.1.1575v3.1323l-1.7927-2.13c-.0269-.0318-.067-.0283-.12.002l-.82.4738a.1918.1918,0,0,0-.1.1574v4.4657c0,.06.04.0766.1.0421l.7133-.4115a.1942.1942,0,0,0,.1-.1582v-3.1322l1.7926,2.1309c.0263.0311.0663.0277.12-.0027l.82-.4737a.1915.1915,0,0,0,.0994-.1575V128.04C214.7974,127.98,214.758,127.9622,214.698,127.9967Zm4.2655-2.4624-.7466.4309a.2772.2772,0,0,0-.12.136l-.8867,2.0716-.8859-1.0482c-.027-.0311-.067-.0284-.12.0027l-.7533.4351c-.08.0463-.1064.1077-.0663.1581l1.3658,1.57v2.0861c0,.06.04.0773.1.0428l.7134-.4122a.1921.1921,0,0,0,.1-.1575v-2.066l1.3659-3.1682C219.07,125.52,219.0429,125.488,218.9635,125.5343Zm3.5783,1.4c-.0394-.0241-.0932.0069-.1395.0739a3.2816,3.2816,0,0,1-1.0531,1.0075c-.8134.47-1.4529.1927-1.4529-.667a2.9957,2.9957,0,0,1,1.4529-2.352,1.3273,1.3273,0,0,1,1.0531-.2079c.0463.0131.1-.0179.1395-.0877l.44-.7271c.047-.0732.047-.12,0-.1395a1.86,1.86,0,0,0-1.6261.2651,4.941,4.941,0,0,0-2.399,3.7917c0,1.34,1.0662,1.7837,2.399,1.0138a4.8825,4.8825,0,0,0,1.6261-1.6117c.047-.0739.047-.12,0-.14Zm-17.1826,7.8541-.466.2693v-.9c0-.06-.04-.0766-.1-.0422l-.68.3923a.1935.1935,0,0,0-.1.1581v.9l-.4668.2694a.1919.1919,0,0,0-.1.1574v.52c0,.06.04.0766.1.0421l.4668-.2693v2.4458c0,.06.04.0767.1.0422l.68-.3922a.1933.1933,0,0,0,.1-.1582V135.777l.466-.2694a.1917.1917,0,0,0,.1-.1574v-.52C205.4594,134.77,205.4193,134.7536,205.3592,134.7881Zm2.093,2.1441a3.4968,3.4968,0,0,0,1.6926-2.69c0-.96-.7528-1.2782-1.6926-.7354a3.4975,3.4975,0,0,0-1.6932,2.69C205.759,137.1567,206.5124,137.475,207.4522,136.9322Zm0-.8134c-.4729.2734-.8465.116-.8465-.4109a1.745,1.745,0,0,1,.8465-1.388c.4662-.27.8466-.1159.8466.4109A1.7564,1.7564,0,0,1,207.4522,136.1188Zm2.8326-11.5719-.74.4267a.2219.2219,0,0,0-.1133.1457l-.9792,3.9512-1.0869-2.7587c-.0131-.0255-.0262-.0379-.0462-.0394a.1351.1351,0,0,0-.06.0214l-.68.3923a.286.286,0,0,0-.0532.0442.2.2,0,0,0-.0531.0974l-1.0862,4.0127-.9668-2.8278c-.02-.0483-.0594-.0448-.1133-.0145l-.7395.4274c-.0732.0422-.1063.1078-.08.16l1.4128,3.6558c.0138.0462.067.0421.12.011l.7064-.4081a.2472.2472,0,0,0,.1133-.145l1.08-3.8428,1.0793,2.5956c.0138.0456.06.0456.1132.0145l.7064-.4073a.2862.2862,0,0,0,.1271-.1533l1.42-5.2916C210.3842,124.5358,210.358,124.5047,210.2848,124.5469Zm3.0791,1.1877c0-.886-.607-1.2893-1.553-.7431a3.3847,3.3847,0,0,0-1.6463,2.6634c0,.96.7,1.3093,1.7195.72a3.6552,3.6552,0,0,0,1.2133-1.2c.0531-.0842.0531-.13.0061-.15l-.2927-.1174c-.047-.0193-.087.0034-.1471.078a2.3136,2.3136,0,0,1-.6926.627c-.5137.2962-.8466.2417-.9336-.1408l2.093-1.2085C213.33,126.1475,213.3639,125.9949,213.3639,125.7346Zm-1.5461,0c.3929-.2272.7064-.1547.7658.2706l-1.5593.9A1.6538,1.6538,0,0,1,211.8178,125.7346Zm2.0461-3.354v4.6652c0,.06.0393.0767.0993.0422l.68-.3922a.1942.1942,0,0,0,.1-.1582v-4.6652c0-.06-.04-.0766-.1-.0422l-.68.3923A.1932.1932,0,0,0,213.8639,122.3806Zm3.0721,2.265c-.493.2845-.84.098-.84-.415a1.7183,1.7183,0,0,1,.84-1.3845.7608.7608,0,0,1,.6795-.1c.0539.0159.1-.0041.1471-.0781l.406-.6276c.04-.0629.047-.12.007-.1436a1.2707,1.2707,0,0,0-1.26.1471A3.4391,3.4391,0,0,0,215.25,124.72c0,.9591.7265,1.2933,1.6663.7505a3.65,3.65,0,0,0,1.28-1.3188c.04-.07.0332-.1188-.0069-.1361l-.406-.1519c-.047-.0193-.0939.0076-.1471.0849A2.1236,2.1236,0,0,1,216.936,124.6456Zm3.2455-1.0607a3.4972,3.4972,0,0,0,1.6932-2.69c0-.96-.7533-1.2782-1.6932-.7354a3.4953,3.4953,0,0,0-1.6925,2.69C218.489,123.8086,219.2417,124.127,220.1815,123.5849Zm0-.8134c-.473.2734-.8466.1153-.8466-.4109a1.7456,1.7456,0,0,1,.8466-1.3886c.4668-.2693.8466-.1153.8466.4108A1.7551,1.7551,0,0,1,220.1815,122.7715Zm6.2652-6.2293a2.9217,2.9217,0,0,0-1.1531,1.272c-.2066-.2742-.5732-.2756-1.0068-.0256a2.6412,2.6412,0,0,0-1.0331,1.2029v-.0069l-.0263-.4109c-.0069-.0559-.04-.0766-.1-.0421l-.6532.377a.192.192,0,0,0-.1.1575v3.0659c0,.06.04.0767.1.0422l.68-.3923a.192.192,0,0,0,.0994-.1581v-1.7857a1.6176,1.6176,0,0,1,.72-1.0552c.32-.185.6132-.1678.6132.3722v1.6994c0,.06.04.0767.1.0422l.68-.3922a.1933.1933,0,0,0,.1-.1582v-1.7988a1.4431,1.4431,0,0,1,.7195-1.042c.3135-.181.6063-.1637.6063.3756v1.7c0,.0594.04.0766.1.0422l.68-.393a.1927.1927,0,0,0,.0994-.1574v-1.86C227.6724,116.3405,227.1594,116.1307,226.4467,116.5422Zm4.9249-1.2043c0-.8866-.6063-1.2892-1.553-.743a3.385,3.385,0,0,0-1.6462,2.6633c0,.96.7,1.3086,1.7194.72a3.6563,3.6563,0,0,0,1.2133-1.2c.0531-.0843.0531-.1313.0069-.1506l-.2935-.1174c-.0469-.02-.087.0034-.1464.078a2.3307,2.3307,0,0,1-.6933.627c-.513.2963-.8466.2417-.9329-.1415l2.0923-1.2078C231.3385,115.75,231.3716,115.5975,231.3716,115.3379Zm-1.5461,0c.3929-.2272.7064-.1547.7665.27l-1.56.9A1.6554,1.6554,0,0,1,229.8255,115.3379Z"/>
        <g id="Group-6" data-name="Group">
          <path id="Path-107" data-name="Path" class="cls-8" d="M203.4527,149.4426h0a3.2974,3.2974,0,0,1,1.4909-2.5825h0c.823-.4751,1.4915-.09,1.4915.86h0a3.2979,3.2979,0,0,1-1.4915,2.5826h0C204.1211,150.7781,203.4527,150.3928,203.4527,149.4426Z"/>
          <path id="Path-108" data-name="Path" class="cls-9" d="M203.4527,145.1379h0a3.2986,3.2986,0,0,1,1.4909-2.5826h0c.823-.4751,1.4915-.0891,1.4915.861h0a3.2981,3.2981,0,0,1-1.4915,2.5826h0C204.1211,146.474,203.4527,146.088,203.4527,145.1379Z"/>
          <path id="Path-109" data-name="Path" class="cls-10" d="M207.18,147.29h0a3.2992,3.2992,0,0,1,1.4909-2.5826h0c.8232-.4751,1.4916-.0891,1.4916.8612h0a3.2978,3.2978,0,0,1-1.4916,2.5826h0C207.8486,148.6264,207.18,148.2405,207.18,147.29Z"/>
          <path id="Path-110" data-name="Path" class="cls-9" d="M207.18,142.9862h0a3.2989,3.2989,0,0,1,1.4909-2.5826h0c.8232-.4752,1.4916-.09,1.4916.86h0a3.2967,3.2967,0,0,1-1.4916,2.5826h0C207.8486,144.3216,207.18,143.9363,207.18,142.9862Z"/>
          <path id="Path-111" data-name="Path" class="cls-10" d="M210.9077,145.1379h0a3.2975,3.2975,0,0,1,1.4916-2.5826h0c.8223-.4751,1.4908-.0891,1.4908.861h0a3.2992,3.2992,0,0,1-1.4908,2.5826h0C211.5761,146.474,210.9077,146.088,210.9077,145.1379Z"/>
          <path id="Path-112" data-name="Path" class="cls-11" d="M210.9077,140.8337h0a3.2975,3.2975,0,0,1,1.4916-2.5825h0c.8223-.4751,1.4908-.0891,1.4908.861h0a3.2994,3.2994,0,0,1-1.4908,2.5827h0C211.5761,142.17,210.9077,141.7839,210.9077,140.8337Z"/>
          <path id="Path-113" data-name="Path" class="cls-8" d="M214.6351,138.6814h0a3.2965,3.2965,0,0,1,1.4916-2.5819h0c.8225-.4751,1.4908-.09,1.4908.86h0a3.2985,3.2985,0,0,1-1.4908,2.5825h0C215.3036,140.0175,214.6351,139.6322,214.6351,138.6814Z"/>
        </g>
      </g>
    </g>
  </g>
</svg>
