<svg id="Layer_1" data-name="Layer 1" xmlns="http://www.w3.org/2000/svg" viewBox="0 0 180 334.863">
  <defs>
    <style>
      .cls-1 {
        fill: #5b5f66;
      }

      .cls-2 {
        fill: #080808;
      }

      .cls-3 {
        fill: #2d2f31;
      }

      .cls-4 {
        fill: #7b7c82;
      }

      .top-light {
        fill: #ffc8c6;
      }

      .top-dark {
        fill: #c67471;
      }

      .curtain-R-prim-light {
        fill: #59acd0;
      }

      .curtain-L-prim-dark {
        fill: #2f5565;
      }

      .top-prim {
        fill: #dd8a87;
      }

      .exterior-R-prim {
        fill: #d05752;
      }

      .exterior-L-prim {
        fill: #73302e;
      }

      .curtain-L-prim-light {
        fill: #438fb0;
      }

      .curtain-R-prim-dark {
        fill: #3e809c;
      }

      .curtain-R-prim-light-dark {
        fill: #3999c1;
      }

      .curtain-L-prim-light-dark {
        fill: #467e97;
      }
    </style>
  </defs>
  <title>Artboard 7</title>
  <g id="root">
    <path class="cls-1" d="M90,103.923V323.316l75-43.301v11.547l15-8.66V51.962Z"/>
    <path class="cls-2" d="M90,103.923V323.316L15,280.015v11.547l-15-8.66V51.962Z"/>
    <path class="cls-1" d="M90,103.923v69.282l90-51.961V51.962Z"/>
    <path class="cls-1" d="M90,173.205V311.769l90-51.961V121.244Z"/>
    <path class="cls-2" d="M90,103.923v69.282L0,121.244V51.962Z"/>
    <path class="cls-2" d="M90,173.205V311.769L0,259.808V121.244Z"/>
    <path class="cls-3" d="M90,196.299,0,144.338v23.094l90,51.961Z"/>
    <path class="cls-4" d="M90,196.299l90-51.961v23.094L90,219.393Z"/>
    <path class="cls-4" d="M90,288.675l90-51.961v23.094L90,311.769Z"/>
    <path class="top-light" d="M90,196.299v28.868l80-46.188v-5.774l-20-11.547Z"/>
    <path id="anchor_0_103.923_180" class="top-dark" d="M0,63.509V51.962L90,0l90,51.962V63.509L90,115.47Z"/>
    <path class="cls-3" d="M90,242.487,0,190.526V213.62l90,51.961Z"/>
    <path class="cls-3" d="M90,288.675,0,236.714v23.094l90,51.961Z"/>
    <path class="top-light" d="M90,196.299l5-2.886V222.28l-5,2.887L10,178.979v-5.774l20-11.547Z"/>
    <path class="cls-4" d="M90,242.487l90-51.961V213.62L90,265.581Z"/>
    <path class="curtain-R-prim-light" d="M90,219.393l80-46.188v115.47L90,334.863Z"/>
    <path class="curtain-L-prim-dark" d="M100,329.09V213.62l-10,5.773L10,173.205v115.47l80,46.188Z"/>
    <path class="top-prim" d="M145,170.319v-5.774l15,8.66L90,213.62,20,173.205l15-8.66v5.774l55,31.754Z"/>
    <path class="cls-4" d="M90,196.299v5.774l55-31.754v-5.774Z"/>
    <path class="cls-3" d="M35,164.545v5.774l55,31.754v-5.774Z"/>
    <path class="exterior-R-prim" d="M20,173.205l15-8.66v5.774l-10,5.773Z"/>
    <path class="exterior-L-prim" d="M145,170.319l10,5.773,5-2.887-15-8.66Z"/>
    <path class="curtain-L-prim-light" d="M90,219.393,10,173.205v23.094l80,46.188Z"/>
    <path class="cls-3" d="M90,103.923,0,51.962V75.056l90,51.961Z"/>
    <path class="cls-3" d="M90,150.111,0,98.15v23.094l90,51.961Z"/>
    <path class="cls-4" d="M90,103.923l90-51.961V75.056L90,127.017Z"/>
    <path class="cls-4" d="M90,150.111,180,98.15v23.094L90,173.205Z"/>
    <path class="curtain-R-prim-dark" d="M90,242.487l80-46.188v23.094L90,265.581Z"/>
    <path class="curtain-L-prim-light" d="M90,265.581,10,219.393v23.094l80,46.188Z"/>
    <path class="curtain-R-prim-dark" d="M90,288.675l80-46.188v23.094L90,311.769Z"/>
    <path class="curtain-L-prim-light" d="M90,311.769,10,265.581v23.094l80,46.188Z"/>
    <path class="curtain-R-prim-light-dark" d="M90,219.393l10-5.773v23.094l-10,5.773Z"/>
    <path class="curtain-R-prim-light-dark" d="M90,265.581l10-5.773v23.094l-10,5.773Z"/>
    <path class="curtain-R-prim-light-dark" d="M90,311.769l10-5.773V329.09l-10,5.773Z"/>
    <path class="curtain-L-prim-light-dark" d="M90,311.769l-10-5.773V329.09l10,5.773Z"/>
    <path class="curtain-L-prim-light-dark" d="M90,265.581l-10-5.773v23.094l10,5.773Z"/>
    <path class="curtain-L-prim-light-dark" d="M90,219.393,80,213.62v23.094l10,5.773Z"/>
    <path class="curtain-R-prim-light-dark" d="M130,196.299l10-5.773V213.62l-10,5.773Z"/>
    <path class="curtain-R-prim-light-dark" d="M130,242.487l10-5.773v23.094l-10,5.773Z"/>
    <path class="curtain-R-prim-light-dark" d="M130,288.675l10-5.773v23.094l-10,5.773Z"/>
    <path class="curtain-L-prim-light-dark" d="M50,288.675l-10-5.773v23.094l10,5.773Z"/>
    <path class="curtain-L-prim-light-dark" d="M50,242.487l-10-5.773v23.094l10,5.773Z"/>
    <path class="curtain-L-prim-light-dark" d="M50,196.299l-10-5.773V213.62l10,5.773Z"/>
    <path class="curtain-R-prim-light-dark" d="M110,207.846l10-5.773v23.094l-10,5.773Z"/>
    <path class="curtain-R-prim-light-dark" d="M110,254.034l10-5.773v23.094l-10,5.773Z"/>
    <path class="curtain-R-prim-light-dark" d="M110,300.222l10-5.773v23.094l-10,5.773Z"/>
    <path class="curtain-L-prim-light-dark" d="M70,300.222l-10-5.773v23.094l10,5.773Z"/>
    <path class="curtain-L-prim-light-dark" d="M70,254.034l-10-5.773v23.094l10,5.773Z"/>
    <path class="curtain-L-prim-light-dark" d="M70,207.846l-10-5.773v23.094l10,5.773Z"/>
    <path class="curtain-R-prim-light-dark" d="M150,184.752l10-5.773v23.094l-10,5.773Z"/>
    <path class="curtain-R-prim-light-dark" d="M150,230.94l10-5.773v23.094l-10,5.773Z"/>
    <path class="curtain-R-prim-light-dark" d="M150,277.128l10-5.773v23.094l-10,5.773Z"/>
    <path class="curtain-L-prim-light-dark" d="M30,277.128l-10-5.773v23.094l10,5.773Z"/>
    <path class="curtain-L-prim-light-dark" d="M30,230.94l-10-5.773v23.094l10,5.773Z"/>
    <path class="curtain-L-prim-light-dark" d="M30,184.752l-10-5.773v23.094l10,5.773Z"/>
  </g>
</svg>
