<svg id="Layer_1" data-name="Layer 1" xmlns="http://www.w3.org/2000/svg" viewBox="0 0 280.27 427.24">
    <defs>
        <style>
            .top-light{fill:#e8e8e8;}.exterior-R-prim{fill:#5d5d5d;}.window-R-prim{fill:#202020;}.exterior-L-prim{fill:#2e2e2e;}.top-dark{fill:#8b8b8b;}
        </style>
    </defs>
    <title>Artboard 1</title>
    <g id="tall">
        <path id="anchor-01_265.58" class="top-light" d="M0,92,160.2,0,280.27,69.63l-160.19,92Z"/>
        <path id="Path" class="exterior-R-prim" d="M120.2,161.66V427.24l160-92.37V69.29Z"/>
        <g id="Group">
            <path id="Path-2" data-name="Path" class="window-R-prim" d="M125.2,164.55,159,145.06v20.21L125.2,184.76Z"/>
            <path id="Path-3" data-name="Path" class="window-R-prim" d="M164,142.18l33.75-19.49V142.9L164,162.38Z"/>
            <path id="Path-4" data-name="Path" class="window-R-prim" d="M202.7,119.8l33.75-19.48v20.21L202.7,140Z"/>
            <path id="Path-5" data-name="Path" class="window-R-prim" d="M241.45,97.43,275.2,78v20.2l-33.75,19.49Z"/>
            <path id="Path-6" data-name="Path" class="window-R-prim" d="M125.2,268.51,159,249v20.2L125.2,288.72Z"/>
            <path id="Path-7" data-name="Path" class="window-R-prim" d="M164,246.14l33.75-19.49v20.21L164,266.35Z"/>
            <path id="Path-8" data-name="Path" class="window-R-prim" d="M202.7,223.77l33.75-19.49v20.21L202.7,244Z"/>
            <path id="Path-9" data-name="Path" class="window-R-prim"
                  d="M241.45,201.4l33.75-19.49v20.21L241.45,221.6Z"/>
            <path id="Path-10" data-name="Path" class="window-R-prim" d="M125.2,372.39,159,352.91v20.21L125.2,392.6Z"/>
            <path id="Path-11" data-name="Path" class="window-R-prim" d="M164,350l33.75-19.48v20.2L164,370.23Z"/>
            <path id="Path-12" data-name="Path" class="window-R-prim"
                  d="M202.7,327.65l33.75-19.49v20.21L202.7,347.86Z"/>
            <path id="Path-13" data-name="Path" class="window-R-prim"
                  d="M241.45,305.28l33.75-19.49V306l-33.75,19.49Z"/>
            <path id="Path-14" data-name="Path" class="window-R-prim" d="M125.2,216.51,159,197v20.21L125.2,236.72Z"/>
            <path id="Path-15" data-name="Path" class="window-R-prim" d="M164,194.14l33.75-19.49v20.21L164,214.35Z"/>
            <path id="Path-16" data-name="Path" class="window-R-prim" d="M202.7,171.77l33.75-19.49v20.21L202.7,192Z"/>
            <path id="Path-17" data-name="Path" class="window-R-prim"
                  d="M241.45,149.39l33.75-19.48v20.21L241.45,169.6Z"/>
            <path id="Path-18" data-name="Path" class="window-R-prim" d="M125.2,320.47,159,301V321.2L125.2,340.68Z"/>
            <path id="Path-19" data-name="Path" class="window-R-prim" d="M164,298.1l33.75-19.48v20.2L164,318.31Z"/>
            <path id="Path-20" data-name="Path" class="window-R-prim"
                  d="M202.7,275.73l33.75-19.49v20.21L202.7,295.94Z"/>
            <path id="Path-21" data-name="Path" class="window-R-prim"
                  d="M241.45,253.36l33.75-19.49v20.21l-33.75,19.48Z"/>
            <path id="Path-22" data-name="Path" class="window-R-prim" d="M125.2,190.53,159,171v20.21L125.2,210.74Z"/>
            <path id="Path-23" data-name="Path" class="window-R-prim" d="M164,168.16l33.75-19.49v20.21L164,188.36Z"/>
            <path id="Path-24" data-name="Path" class="window-R-prim" d="M202.7,145.79l33.75-19.49v20.21L202.7,166Z"/>
            <path id="Path-25" data-name="Path" class="window-R-prim"
                  d="M241.45,123.41l33.75-19.48v20.2l-33.75,19.49Z"/>
            <path id="Path-26" data-name="Path" class="window-R-prim" d="M125.2,294.49,159,275v20.21L125.2,314.7Z"/>
            <path id="Path-27" data-name="Path" class="window-R-prim" d="M164,272.12l33.75-19.48v20.2L164,292.33Z"/>
            <path id="Path-28" data-name="Path" class="window-R-prim" d="M202.7,249.75l33.75-19.49v20.21L202.7,270Z"/>
            <path id="Path-29" data-name="Path" class="window-R-prim"
                  d="M241.45,227.38l33.75-19.49V228.1l-33.75,19.48Z"/>
            <path id="Path-30" data-name="Path" class="window-R-prim"
                  d="M125.2,398.38,159,378.89V399.1L125.2,418.58Z"/>
            <path id="Path-31" data-name="Path" class="window-R-prim" d="M164,376l33.75-19.48v20.21L164,396.21Z"/>
            <path id="Path-32" data-name="Path" class="window-R-prim"
                  d="M202.7,353.63l33.75-19.48v20.2L202.7,373.84Z"/>
            <path id="Path-33" data-name="Path" class="window-R-prim"
                  d="M241.45,331.26l33.75-19.49V332l-33.75,19.49Z"/>
            <path id="Path-34" data-name="Path" class="window-R-prim" d="M125.2,242.49,159,223v20.2L125.2,262.7Z"/>
            <path id="Path-35" data-name="Path" class="window-R-prim" d="M164,220.12l33.75-19.49v20.21L164,240.33Z"/>
            <path id="Path-36" data-name="Path" class="window-R-prim" d="M202.7,197.75l33.75-19.49v20.21L202.7,218Z"/>
            <path id="Path-37" data-name="Path" class="window-R-prim"
                  d="M241.45,175.37l33.75-19.48V176.1l-33.75,19.48Z"/>
            <path id="Path-38" data-name="Path" class="window-R-prim" d="M125.2,346.46,159,327v20.21L125.2,366.66Z"/>
            <path id="Path-39" data-name="Path" class="window-R-prim" d="M164,324.08,197.7,304.6v20.2L164,344.29Z"/>
            <path id="Path-40" data-name="Path" class="window-R-prim"
                  d="M202.7,301.71l33.75-19.49v20.21L202.7,321.92Z"/>
            <path id="Path-41" data-name="Path" class="window-R-prim"
                  d="M241.45,279.34l33.75-19.49v20.21l-33.75,19.49Z"/>
        </g>
        <path id="Path-42" data-name="Path" class="exterior-L-prim" d="M120.2,161.66V427.24L.2,358V92.38Z"/>
        <path id="Path-43" data-name="Path" class="top-dark" d="M159,165.27l-5-2.89L125.2,179v5.78Z"/>
        <path id="Path-44" data-name="Path" class="top-dark" d="M236.45,120.53l-5-2.89-28.75,16.6V140Z"/>
        <path id="Path-45" data-name="Path" class="top-dark" d="M197.7,142.9l-5-2.89L164,156.61v5.77Z"/>
        <path id="Path-46" data-name="Path" class="top-dark" d="M275.2,98.15l-5-2.88-28.75,16.6v5.77Z"/>
        <path id="Path-47" data-name="Path" class="exterior-L-prim" d="M270.2,95.27V80.83l5-2.88v20.2Z"/>
        <path id="Path-48" data-name="Path" class="exterior-L-prim" d="M192.7,140V125.58l5-2.89V142.9Z"/>
        <path id="Path-49" data-name="Path" class="exterior-L-prim" d="M231.45,117.64V103.21l5-2.89v20.21Z"/>
        <path id="Path-50" data-name="Path" class="exterior-L-prim" d="M154,162.38V148l5-2.89v20.21Z"/>
        <g id="Group-2" data-name="Group">
            <path id="Path-51" data-name="Path" d="M115.2,164.55,81.45,145.06v20.21l33.75,19.49Z"/>
            <path id="Path-52" data-name="Path" d="M76.45,142.18,42.7,122.69V142.9l33.75,19.48Z"/>
            <path id="Path-53" data-name="Path" d="M37.7,119.8,4,100.32v20.21L37.7,140Z"/>
            <path id="Path-54" data-name="Path" class="top-dark" d="M81.45,165.27l5-2.89L115.2,179v5.78Z"/>
            <path id="Path-55" data-name="Path" class="top-dark" d="M4,120.53l5-2.89,28.75,16.6V140Z"/>
            <path id="Path-56" data-name="Path" class="top-dark" d="M42.7,142.9l5-2.89,28.75,16.6v5.77Z"/>
            <path id="Path-57" data-name="Path" class="exterior-R-prim" d="M47.7,140V125.58l-5-2.89V142.9Z"/>
            <path id="Path-58" data-name="Path" class="exterior-R-prim" d="M9,117.64V103.21l-5-2.89v20.21Z"/>
            <path id="Path-59" data-name="Path" class="exterior-R-prim" d="M86.45,162.38V148l-5-2.89v20.21Z"/>
        </g>
        <g id="Group-3" data-name="Group">
            <path id="Path-60" data-name="Path" d="M115.2,268.51,81.45,249v20.2l33.75,19.49Z"/>
            <path id="Path-61" data-name="Path" d="M76.45,246.14,42.7,226.65v20.21l33.75,19.49Z"/>
            <path id="Path-62" data-name="Path" d="M37.7,223.77,4,204.28v20.21L37.7,244Z"/>
            <path id="Path-63" data-name="Path" class="top-dark" d="M81.45,269.23l5-2.88L115.2,283v5.77Z"/>
            <path id="Path-64" data-name="Path" class="top-dark" d="M4,224.49l5-2.89L37.7,238.2V244Z"/>
            <path id="Path-65" data-name="Path" class="top-dark" d="M42.7,246.86l5-2.88,28.75,16.59v5.78Z"/>
            <path id="Path-66" data-name="Path" class="exterior-R-prim" d="M47.7,244V229.54l-5-2.89v20.21Z"/>
            <path id="Path-67" data-name="Path" class="exterior-R-prim" d="M9,221.6V207.17l-5-2.89v20.21Z"/>
            <path id="Path-68" data-name="Path" class="exterior-R-prim" d="M86.45,266.35V251.91l-5-2.88v20.2Z"/>
        </g>
        <g id="Group-4" data-name="Group">
            <path id="Path-69" data-name="Path" d="M115.2,372.39,81.45,352.91v20.21L115.2,392.6Z"/>
            <path id="Path-70" data-name="Path" d="M76.45,350,42.7,330.54v20.2l33.75,19.49Z"/>
            <path id="Path-71" data-name="Path" d="M37.7,327.65,4,308.16v20.21L37.7,347.86Z"/>
            <path id="Path-72" data-name="Path" class="top-dark" d="M81.45,373.12l5-2.89,28.75,16.6v5.77Z"/>
            <path id="Path-73" data-name="Path" class="top-dark" d="M4,328.37l5-2.88L37.7,342.08v5.78Z"/>
            <path id="Path-74" data-name="Path" class="top-dark" d="M42.7,350.74l5-2.88,28.75,16.6v5.77Z"/>
            <path id="Path-75" data-name="Path" class="exterior-R-prim" d="M47.7,347.86V333.42l-5-2.88v20.2Z"/>
            <path id="Path-76" data-name="Path" class="exterior-R-prim" d="M9,325.49V311.05l-5-2.89v20.21Z"/>
            <path id="Path-77" data-name="Path" class="exterior-R-prim" d="M86.45,370.23V355.8l-5-2.89v20.21Z"/>
        </g>
        <g id="Group-5" data-name="Group">
            <path id="Path-78" data-name="Path" d="M115.2,216.51,81.45,197v20.21l33.75,19.49Z"/>
            <path id="Path-79" data-name="Path" d="M76.45,194.14,42.7,174.65v20.21l33.75,19.49Z"/>
            <path id="Path-80" data-name="Path" d="M37.7,171.77,4,152.28v20.21L37.7,192Z"/>
            <path id="Path-81" data-name="Path" class="top-dark" d="M81.45,217.23l5-2.88,28.75,16.59v5.78Z"/>
            <path id="Path-82" data-name="Path" class="top-dark" d="M4,172.49l5-2.89L37.7,186.2V192Z"/>
            <path id="Path-83" data-name="Path" class="top-dark" d="M42.7,194.86l5-2.89,28.75,16.6v5.78Z"/>
            <path id="Path-84" data-name="Path" class="exterior-R-prim" d="M47.7,192V177.54l-5-2.89v20.21Z"/>
            <path id="Path-85" data-name="Path" class="exterior-R-prim" d="M9,169.6V155.17l-5-2.89v20.21Z"/>
            <path id="Path-86" data-name="Path" class="exterior-R-prim" d="M86.45,214.35V199.91l-5-2.89v20.21Z"/>
        </g>
        <g id="Group-6" data-name="Group">
            <path id="Path-87" data-name="Path" d="M115.2,320.47,81.45,301V321.2l33.75,19.48Z"/>
            <path id="Path-88" data-name="Path" d="M76.45,298.1,42.7,278.62v20.2l33.75,19.49Z"/>
            <path id="Path-89" data-name="Path" d="M37.7,275.73,4,256.24v20.21L37.7,295.94Z"/>
            <path id="Path-90" data-name="Path" class="top-dark" d="M81.45,321.2l5-2.89,28.75,16.6v5.77Z"/>
            <path id="Path-91" data-name="Path" class="top-dark" d="M4,276.45l5-2.89,28.75,16.6v5.78Z"/>
            <path id="Path-92" data-name="Path" class="top-dark" d="M42.7,298.82l5-2.88,28.75,16.6v5.77Z"/>
            <path id="Path-93" data-name="Path" class="exterior-R-prim" d="M47.7,295.94V281.5l-5-2.88v20.2Z"/>
            <path id="Path-94" data-name="Path" class="exterior-R-prim" d="M9,273.56V259.13l-5-2.89v20.21Z"/>
            <path id="Path-95" data-name="Path" class="exterior-R-prim" d="M86.45,318.31V303.88l-5-2.89V321.2Z"/>
        </g>
        <g id="Group-7" data-name="Group">
            <path id="Path-96" data-name="Path" d="M115.2,190.53,81.45,171v20.21l33.75,19.49Z"/>
            <path id="Path-97" data-name="Path" d="M76.45,168.16,42.7,148.67v20.21l33.75,19.48Z"/>
            <path id="Path-98" data-name="Path" d="M37.7,145.79,4,126.3v20.21L37.7,166Z"/>
            <path id="Path-99" data-name="Path" class="top-dark" d="M81.45,191.25l5-2.89L115.2,205v5.78Z"/>
            <path id="Path-100" data-name="Path" class="top-dark" d="M4,146.51l5-2.89,28.75,16.6V166Z"/>
            <path id="Path-101" data-name="Path" class="top-dark" d="M42.7,168.88l5-2.89,28.75,16.6v5.77Z"/>
            <path id="Path-102" data-name="Path" class="exterior-R-prim" d="M47.7,166V151.56l-5-2.89v20.21Z"/>
            <path id="Path-103" data-name="Path" class="exterior-R-prim" d="M9,143.62V129.19L4,126.3v20.21Z"/>
            <path id="Path-104" data-name="Path" class="exterior-R-prim" d="M86.45,188.36V173.93l-5-2.89v20.21Z"/>
        </g>
        <g id="Group-8" data-name="Group">
            <path id="Path-105" data-name="Path" d="M115.2,294.49,81.45,275v20.21L115.2,314.7Z"/>
            <path id="Path-106" data-name="Path" d="M76.45,272.12,42.7,252.64v20.2l33.75,19.49Z"/>
            <path id="Path-107" data-name="Path" d="M37.7,249.75,4,230.26v20.21L37.7,270Z"/>
            <path id="Path-108" data-name="Path" class="top-dark" d="M81.45,295.22l5-2.89,28.75,16.6v5.77Z"/>
            <path id="Path-109" data-name="Path" class="top-dark" d="M4,250.47l5-2.89,28.75,16.6V270Z"/>
            <path id="Path-110" data-name="Path" class="top-dark" d="M42.7,272.84l5-2.88,28.75,16.59v5.78Z"/>
            <path id="Path-111" data-name="Path" class="exterior-R-prim" d="M47.7,270V255.52l-5-2.88v20.2Z"/>
            <path id="Path-112" data-name="Path" class="exterior-R-prim" d="M9,247.58V233.15l-5-2.89v20.21Z"/>
            <path id="Path-113" data-name="Path" class="exterior-R-prim" d="M86.45,292.33V277.89l-5-2.88v20.21Z"/>
        </g>
        <g id="Group-9" data-name="Group">
            <path id="Path-114" data-name="Path" d="M115.2,398.38,81.45,378.89V399.1l33.75,19.48Z"/>
            <path id="Path-115" data-name="Path" d="M76.45,376,42.7,356.52v20.21l33.75,19.48Z"/>
            <path id="Path-116" data-name="Path" d="M37.7,353.63,4,334.15v20.2L37.7,373.84Z"/>
            <path id="Path-117" data-name="Path" class="top-dark" d="M81.45,399.1l5-2.89,28.75,16.6v5.77Z"/>
            <path id="Path-118" data-name="Path" class="top-dark" d="M4,354.35l5-2.88L37.7,368.06v5.78Z"/>
            <path id="Path-119" data-name="Path" class="top-dark" d="M42.7,376.73l5-2.89,28.75,16.6v5.77Z"/>
            <path id="Path-120" data-name="Path" class="exterior-R-prim" d="M47.7,373.84V359.4l-5-2.88v20.21Z"/>
            <path id="Path-121" data-name="Path" class="exterior-R-prim" d="M9,351.47V337l-5-2.88v20.2Z"/>
            <path id="Path-122" data-name="Path" class="exterior-R-prim" d="M86.45,396.21V381.78l-5-2.89V399.1Z"/>
        </g>
        <g id="Group-10" data-name="Group">
            <path id="Path-123" data-name="Path" d="M115.2,242.49,81.45,223v20.2L115.2,262.7Z"/>
            <path id="Path-124" data-name="Path" d="M76.45,220.12,42.7,200.63v20.21l33.75,19.49Z"/>
            <path id="Path-125" data-name="Path" d="M37.7,197.75,4,178.26v20.21L37.7,218Z"/>
            <path id="Path-126" data-name="Path" class="top-dark" d="M81.45,243.21l5-2.88,28.75,16.59v5.78Z"/>
            <path id="Path-127" data-name="Path" class="top-dark" d="M4,198.47l5-2.89,28.75,16.6V218Z"/>
            <path id="Path-128" data-name="Path" class="top-dark" d="M42.7,220.84l5-2.89,28.75,16.6v5.78Z"/>
            <path id="Path-129" data-name="Path" class="exterior-R-prim" d="M47.7,218V203.52l-5-2.89v20.21Z"/>
            <path id="Path-130" data-name="Path" class="exterior-R-prim" d="M9,195.58V181.15l-5-2.89v20.21Z"/>
            <path id="Path-131" data-name="Path" class="exterior-R-prim" d="M86.45,240.33V225.89l-5-2.88v20.2Z"/>
        </g>
        <g id="Group-11" data-name="Group">
            <path id="Path-132" data-name="Path" d="M115.2,346.46,81.45,327v20.21l33.75,19.48Z"/>
            <path id="Path-133" data-name="Path" d="M76.45,324.08,42.7,304.6v20.2l33.75,19.49Z"/>
            <path id="Path-134" data-name="Path" d="M37.7,301.71,4,282.22v20.21L37.7,321.92Z"/>
            <path id="Path-135" data-name="Path" class="top-dark" d="M81.45,347.18l5-2.89,28.75,16.6v5.77Z"/>
            <path id="Path-136" data-name="Path" class="top-dark" d="M4,302.43l5-2.88L37.7,316.14v5.78Z"/>
            <path id="Path-137" data-name="Path" class="top-dark" d="M42.7,324.8l5-2.88,28.75,16.6v5.77Z"/>
            <path id="Path-138" data-name="Path" class="exterior-R-prim" d="M47.7,321.92V307.48l-5-2.88v20.2Z"/>
            <path id="Path-139" data-name="Path" class="exterior-R-prim" d="M9,299.55V285.11l-5-2.89v20.21Z"/>
            <path id="Path-140" data-name="Path" class="exterior-R-prim" d="M86.45,344.29V329.86l-5-2.89v20.21Z"/>
        </g>
        <path id="Path-141" data-name="Path" class="top-dark" d="M159,269.23l-5-2.88L125.2,283v5.77Z"/>
        <path id="Path-142" data-name="Path" class="top-dark" d="M236.45,224.49l-5-2.89L202.7,238.2V244Z"/>
        <path id="Path-143" data-name="Path" class="top-dark" d="M197.7,246.86l-5-2.88L164,260.57v5.78Z"/>
        <path id="Path-144" data-name="Path" class="top-dark" d="M275.2,202.12l-5-2.89-28.75,16.6v5.77Z"/>
        <path id="Path-145" data-name="Path" class="exterior-L-prim" d="M270.2,199.23V184.8l5-2.89v20.21Z"/>
        <path id="Path-146" data-name="Path" class="exterior-L-prim" d="M192.7,244V229.54l5-2.89v20.21Z"/>
        <path id="Path-147" data-name="Path" class="exterior-L-prim" d="M231.45,221.6V207.17l5-2.89v20.21Z"/>
        <path id="Path-148" data-name="Path" class="exterior-L-prim" d="M154,266.35V251.91l5-2.88v20.2Z"/>
        <path id="Path-149" data-name="Path" class="top-dark" d="M159,373.12l-5-2.89-28.75,16.6v5.77Z"/>
        <path id="Path-150" data-name="Path" class="top-dark" d="M236.45,328.37l-5-2.88L202.7,342.08v5.78Z"/>
        <path id="Path-151" data-name="Path" class="top-dark" d="M197.7,350.74l-5-2.88L164,364.46v5.77Z"/>
        <path id="Path-152" data-name="Path" class="top-dark" d="M275.2,306l-5-2.89-28.75,16.6v5.78Z"/>
        <path id="Path-153" data-name="Path" class="exterior-L-prim" d="M270.2,303.11V288.68l5-2.89V306Z"/>
        <path id="Path-154" data-name="Path" class="exterior-L-prim" d="M192.7,347.86V333.42l5-2.88v20.2Z"/>
        <path id="Path-155" data-name="Path" class="exterior-L-prim" d="M231.45,325.49V311.05l5-2.89v20.21Z"/>
        <path id="Path-156" data-name="Path" class="exterior-L-prim" d="M154,370.23V355.8l5-2.89v20.21Z"/>
        <path id="Path-157" data-name="Path" class="top-dark" d="M159,217.23l-5-2.88L125.2,230.94v5.78Z"/>
        <path id="Path-158" data-name="Path" class="top-dark" d="M236.45,172.49l-5-2.89L202.7,186.2V192Z"/>
        <path id="Path-159" data-name="Path" class="top-dark" d="M197.7,194.86l-5-2.89L164,208.57v5.78Z"/>
        <path id="Path-160" data-name="Path" class="top-dark" d="M275.2,150.12l-5-2.89-28.75,16.6v5.77Z"/>
        <path id="Path-161" data-name="Path" class="exterior-L-prim" d="M270.2,147.23V132.79l5-2.88v20.21Z"/>
        <path id="Path-162" data-name="Path" class="exterior-L-prim" d="M192.7,192V177.54l5-2.89v20.21Z"/>
        <path id="Path-163" data-name="Path" class="exterior-L-prim" d="M231.45,169.6V155.17l5-2.89v20.21Z"/>
        <path id="Path-164" data-name="Path" class="exterior-L-prim" d="M154,214.35V199.91l5-2.89v20.21Z"/>
        <path id="Path-165" data-name="Path" class="top-dark" d="M159,321.2l-5-2.89-28.75,16.6v5.77Z"/>
        <path id="Path-166" data-name="Path" class="top-dark" d="M236.45,276.45l-5-2.89-28.75,16.6v5.78Z"/>
        <path id="Path-167" data-name="Path" class="top-dark" d="M197.7,298.82l-5-2.88L164,312.54v5.77Z"/>
        <path id="Path-168" data-name="Path" class="top-dark" d="M275.2,254.08l-5-2.89-28.75,16.6v5.77Z"/>
        <path id="Path-169" data-name="Path" class="exterior-L-prim" d="M270.2,251.19V236.76l5-2.89v20.21Z"/>
        <path id="Path-170" data-name="Path" class="exterior-L-prim" d="M192.7,295.94V281.5l5-2.88v20.2Z"/>
        <path id="Path-171" data-name="Path" class="exterior-L-prim" d="M231.45,273.56V259.13l5-2.89v20.21Z"/>
        <path id="Path-172" data-name="Path" class="exterior-L-prim" d="M154,318.31V303.88l5-2.89V321.2Z"/>
        <path id="Path-173" data-name="Path" class="top-dark" d="M159,191.25l-5-2.89L125.2,205v5.78Z"/>
        <path id="Path-174" data-name="Path" class="top-dark" d="M236.45,146.51l-5-2.89-28.75,16.6V166Z"/>
        <path id="Path-175" data-name="Path" class="top-dark" d="M197.7,168.88l-5-2.89L164,182.59v5.77Z"/>
        <path id="Path-176" data-name="Path" class="top-dark" d="M275.2,124.13l-5-2.88-28.75,16.6v5.77Z"/>
        <path id="Path-177" data-name="Path" class="exterior-L-prim" d="M270.2,121.25V106.81l5-2.88v20.2Z"/>
        <path id="Path-178" data-name="Path" class="exterior-L-prim" d="M192.7,166V151.56l5-2.89v20.21Z"/>
        <path id="Path-179" data-name="Path" class="exterior-L-prim" d="M231.45,143.62V129.19l5-2.89v20.21Z"/>
        <path id="Path-180" data-name="Path" class="exterior-L-prim" d="M154,188.36V173.93l5-2.89v20.21Z"/>
        <path id="Path-181" data-name="Path" class="top-dark" d="M159,295.22l-5-2.89-28.75,16.6v5.77Z"/>
        <path id="Path-182" data-name="Path" class="top-dark" d="M236.45,250.47l-5-2.89-28.75,16.6V270Z"/>
        <path id="Path-183" data-name="Path" class="top-dark" d="M197.7,272.84l-5-2.88L164,286.55v5.78Z"/>
        <path id="Path-184" data-name="Path" class="top-dark" d="M275.2,228.1l-5-2.89-28.75,16.6v5.77Z"/>
        <path id="Path-185" data-name="Path" class="exterior-L-prim" d="M270.2,225.21V210.78l5-2.89V228.1Z"/>
        <path id="Path-186" data-name="Path" class="exterior-L-prim" d="M192.7,270V255.52l5-2.88v20.2Z"/>
        <path id="Path-187" data-name="Path" class="exterior-L-prim" d="M231.45,247.58V233.15l5-2.89v20.21Z"/>
        <path id="Path-188" data-name="Path" class="exterior-L-prim" d="M154,292.33V277.89l5-2.88v20.21Z"/>
        <path id="Path-189" data-name="Path" class="top-dark" d="M159,399.1l-5-2.89-28.75,16.6v5.77Z"/>
        <path id="Path-190" data-name="Path" class="top-dark" d="M236.45,354.35l-5-2.88L202.7,368.06v5.78Z"/>
        <path id="Path-191" data-name="Path" class="top-dark" d="M197.7,376.73l-5-2.89L164,390.44v5.77Z"/>
        <path id="Path-192" data-name="Path" class="top-dark" d="M275.2,332l-5-2.89-28.75,16.6v5.78Z"/>
        <path id="Path-193" data-name="Path" class="exterior-L-prim" d="M270.2,329.09V314.66l5-2.89V332Z"/>
        <path id="Path-194" data-name="Path" class="exterior-L-prim" d="M192.7,373.84V359.4l5-2.88v20.21Z"/>
        <path id="Path-195" data-name="Path" class="exterior-L-prim" d="M231.45,351.47V337l5-2.88v20.2Z"/>
        <path id="Path-196" data-name="Path" class="exterior-L-prim" d="M154,396.21V381.78l5-2.89V399.1Z"/>
        <path id="Path-197" data-name="Path" class="top-dark" d="M159,243.21l-5-2.88L125.2,256.92v5.78Z"/>
        <path id="Path-198" data-name="Path" class="top-dark" d="M236.45,198.47l-5-2.89-28.75,16.6V218Z"/>
        <path id="Path-199" data-name="Path" class="top-dark" d="M197.7,220.84l-5-2.89L164,234.55v5.78Z"/>
        <path id="Path-200" data-name="Path" class="top-dark" d="M275.2,176.1l-5-2.89-28.75,16.6v5.77Z"/>
        <path id="Path-201" data-name="Path" class="exterior-L-prim" d="M270.2,173.21V158.78l5-2.89V176.1Z"/>
        <path id="Path-202" data-name="Path" class="exterior-L-prim" d="M192.7,218V203.52l5-2.89v20.21Z"/>
        <path id="Path-203" data-name="Path" class="exterior-L-prim" d="M231.45,195.58V181.15l5-2.89v20.21Z"/>
        <path id="Path-204" data-name="Path" class="exterior-L-prim" d="M154,240.33V225.89l5-2.88v20.2Z"/>
        <path id="Path-205" data-name="Path" class="top-dark" d="M159,347.18l-5-2.89-28.75,16.6v5.77Z"/>
        <path id="Path-206" data-name="Path" class="top-dark" d="M236.45,302.43l-5-2.88L202.7,316.14v5.78Z"/>
        <path id="Path-207" data-name="Path" class="top-dark" d="M197.7,324.8l-5-2.88L164,338.52v5.77Z"/>
        <path id="Path-208" data-name="Path" class="top-dark" d="M275.2,280.06l-5-2.89-28.75,16.6v5.78Z"/>
        <path id="Path-209" data-name="Path" class="exterior-L-prim" d="M270.2,277.17V262.74l5-2.89v20.21Z"/>
        <path id="Path-210" data-name="Path" class="exterior-L-prim" d="M192.7,321.92V307.48l5-2.88v20.2Z"/>
        <path id="Path-211" data-name="Path" class="exterior-L-prim" d="M231.45,299.55V285.11l5-2.89v20.21Z"/>
        <path id="Path-212" data-name="Path" class="exterior-L-prim" d="M154,344.29V329.86l5-2.89v20.21Z"/>
    </g>
</svg>
