<svg id="Layer_1" data-name="Layer 1" xmlns="http://www.w3.org/2000/svg" viewBox="0 0 360 623.538">
  <defs>
    <style>
      .exterior-R-prim {
        fill: #d05752;
      }

      .exterior-L-prim {
        fill: #73302e;
      }

      .curtain-L-prim-light {
        fill: #438fb0;
      }

      .curtain-R-prim-light {
        fill: #59acd0;
      }

      .top-light {
        fill: #ffc8c6;
      }

      .top-dark {
        fill: #c67471;
      }

      .curtain-R-prim-dark {
        fill: #3e809c;
      }

      .cls-1 {
        fill: none;
      }

      .curtain-L-prim-dark {
        fill: #2f5565;
      }

      .cls-2 {
        fill: #d1d1d1;
      }

      .exterior-L-light {
        fill: #8a3a37;
      }

      .exterior-R-light {
        fill: #df5d58;
      }

      .top-prim {
        fill: #dd8a87;
      }
    </style>
  </defs>
  <title>Artboard 25</title>
  <g id="root">
    <path class="exterior-R-prim" d="M175,603.331v17.32l5,2.887L360,519.615V502.294L180,606.217Z"/>
    <path class="exterior-L-prim" d="M180,623.538,0,519.615V502.294L180,606.217Z"/>
    <path class="curtain-L-prim-light" d="M215,597.557V378.164l-35-20.207V583.123l30,17.321Z"/>
    <path class="curtain-R-prim-light" d="M335,297.335l25-14.434V508.068l-25,14.434Z"/>
    <path class="top-light" d="M150,277.128,20,202.072v-5.773l160-92.376,160,92.376v5.773L210,277.128l-30-17.321Z"/>
    <path class="top-light" d="M160,184.752,40,115.47v-5.774L180,28.867l140,80.829v5.774L200,184.752l-20-11.547Z"/>
    <path class="top-light" d="M170,144.337,60,80.829V75.055L180,5.773,300,75.055v5.774L190,144.337l-10-5.773Z"/>
    <path id="anchor_80_115.47_200" class="top-dark" d="M80,63.508V57.735L180,0,280,57.735v5.773L180,121.243Z"/>
    <path class="curtain-R-prim-light" d="M145,597.557V372.391l5,2.886,30-17.32V583.123l-30,17.321Z"/>
    <path class="curtain-R-prim-dark" d="M280,57.735v17.32L180,132.79l-10-5.773V109.696l10,5.774Z"/>
    <path class="curtain-R-prim-light" d="M300,75.055v34.641L190,173.205l-5-2.887V135.677l5,2.887Z"/>
    <path class="top-light" d="M0,282.901v5.774l150,86.602,5-2.886v5.773l25,14.434,25-14.434v-5.773l5.313-2.87L210,375.277l150-86.602v-5.774L180,178.978Z"/>
    <path class="curtain-R-prim-light" d="M320,109.696v86.603L200,265.581l-5-2.887V176.092l5,2.886Z"/>
    <line class="cls-1" x1="340" y1="196.2988" x2="210" y2="271.3544"/>
    <path class="curtain-R-prim-light" d="M210,271.354l-5-2.886V372.391l5,2.886V600.444l130-75.056V196.299Z"/>
    <path class="curtain-L-prim-light" d="M180,357.957l30,17.32V271.354l-10-5.773V178.978l-10-5.773V138.564l-10-5.774Z"/>
    <path class="curtain-L-prim-dark" d="M200,404.145l10,5.773v-17.32l-10-5.774Z"/>
    <path class="curtain-L-prim-dark" d="M200,438.786l10,5.773v-17.32l-10-5.774Z"/>
    <path class="curtain-L-prim-dark" d="M200,473.427l10,5.773V461.88l-10-5.774Z"/>
    <path class="curtain-L-prim-dark" d="M200,542.709l10,5.773v-17.32l-10-5.773Z"/>
    <path class="curtain-L-prim-dark" d="M200,508.068l10,5.773v-17.32l-10-5.774Z"/>
    <path class="curtain-L-prim-dark" d="M200,577.35l10,5.774V565.803l-10-5.773Z"/>
    <path class="curtain-R-prim-dark" d="M160,404.145l-10,5.773v-17.32l10-5.774Z"/>
    <path class="curtain-R-prim-dark" d="M160,438.786l-10,5.773v-17.32l10-5.774Z"/>
    <path class="curtain-R-prim-dark" d="M160,473.427,150,479.2V461.88l10-5.774Z"/>
    <path class="curtain-R-prim-dark" d="M160,542.709l-10,5.773v-17.32l10-5.773Z"/>
    <path class="curtain-R-prim-dark" d="M160,508.068l-10,5.773v-17.32l10-5.774Z"/>
    <path class="curtain-R-prim-dark" d="M160,577.35l-10,5.774V565.803l10-5.773Z"/>
    <path class="cls-2" d="M180,288.675l-15,8.66,15,8.66,15-8.66Z"/>
    <path class="curtain-R-prim-light" d="M170,606.217V381.051l10,5.773,25-14.433V597.557l-25,14.434Z"/>
    <path class="curtain-R-prim-dark" d="M340,213.619,210,288.675V271.354l130-75.055Z"/>
    <path class="curtain-R-prim-dark" d="M340,282.901,210,357.957V340.636l130-75.055Z"/>
    <path class="curtain-R-prim-dark" d="M340,352.183,210,427.239V409.918l130-75.055Z"/>
    <path class="curtain-R-prim-dark" d="M340,421.465,210,496.521V479.2l130-75.055Z"/>
    <path class="curtain-R-prim-dark" d="M340,490.748,210,565.803v-17.32l130-75.056Z"/>
    <path class="curtain-R-prim-dark" d="M340,248.26,210,323.316V305.995L340,230.94Z"/>
    <path class="curtain-R-prim-dark" d="M340,317.542,210,392.598V375.277l130-75.055Z"/>
    <path class="curtain-R-prim-dark" d="M340,386.824,210,461.88V444.559l130-75.055Z"/>
    <path class="curtain-R-prim-dark" d="M340,456.106,210,531.162V513.841l130-75.055Z"/>
    <path class="curtain-R-prim-dark" d="M340,525.389,210,600.444v-17.32l130-75.056Z"/>
    <path class="curtain-R-prim-dark" d="M360,300.222l-20,11.547V294.448l20-11.547Z"/>
    <path class="curtain-R-prim-dark" d="M360,369.504l-20,11.547V363.73l20-11.547Z"/>
    <path class="curtain-R-prim-dark" d="M360,438.786l-20,11.547V433.012l20-11.547Z"/>
    <path class="curtain-R-prim-dark" d="M360,508.068l-20,11.547v-17.32l20-11.548Z"/>
    <path class="curtain-R-prim-dark" d="M360,334.863,340,346.41V329.089l20-11.547Z"/>
    <path class="curtain-R-prim-dark" d="M360,404.145l-20,11.547V398.371l20-11.547Z"/>
    <path class="curtain-R-prim-dark" d="M360,473.427l-20,11.547V467.653l20-11.547Z"/>
    <path class="curtain-R-prim-dark" d="M205,389.711l-25,14.434V386.824l25-14.433Z"/>
    <path class="curtain-R-prim-dark" d="M205,458.993l-25,14.434V456.106l25-14.433Z"/>
    <path class="curtain-R-prim-dark" d="M205,528.275l-25,14.434v-17.32l25-14.434Z"/>
    <path class="curtain-R-prim-dark" d="M205,597.557l-25,14.434v-17.32l25-14.434Z"/>
    <path class="curtain-R-prim-dark" d="M205,424.352l-25,14.434V421.465l25-14.433Z"/>
    <path class="curtain-R-prim-dark" d="M205,493.634l-25,14.434v-17.32l25-14.434Z"/>
    <path class="curtain-R-prim-dark" d="M205,562.916,180,577.35V560.03l25-14.434Z"/>
    <path class="curtain-R-prim-dark" d="M320,144.337,200,213.619v-17.32l120-69.282Z"/>
    <path class="curtain-R-prim-dark" d="M320,178.978,200,248.26V230.94l120-69.282Z"/>
    <path class="curtain-R-prim-dark" d="M300,109.696,190,173.205V155.884L300,92.376Z"/>
    <path class="curtain-L-prim-light" d="M25,297.335,0,282.901V508.068l25,14.434Z"/>
    <path class="curtain-L-prim-dark" d="M80,57.735v17.32L180,132.79V115.47Z"/>
    <path class="curtain-L-prim-light" d="M60,75.055v34.641l110,63.509,5-2.887V135.677l-5,2.887Z"/>
    <path class="curtain-L-prim-light" d="M40,109.696v86.603l120,69.282,5-2.887V176.092l-5,2.886Z"/>
    <path class="exterior-L-light" d="M160,369.504l20,11.547,20-11.547-20-11.547Z"/>
    <path class="curtain-L-prim-light" d="M150,271.354l5-2.886V372.391l-5,2.886V600.444L20,525.388V196.299Z"/>
    <path class="curtain-R-prim-light" d="M180,357.957l-30,17.32V271.354l10-5.773V178.978l10-5.773V138.564l10-5.774Z"/>
    <path class="curtain-R-prim-dark" d="M180,150.111l-10,5.773v-17.32l10-5.774Z"/>
    <path class="curtain-R-prim-dark" d="M180,184.752l-20,11.547V178.978l20-11.547Z"/>
    <path class="curtain-R-prim-dark" d="M180,219.393,160,230.94V213.619l20-11.547Z"/>
    <path class="curtain-R-prim-dark" d="M180,254.034l-20,11.547V248.26l20-11.547Z"/>
    <path class="curtain-R-prim-dark" d="M180,288.675l-30,17.32v-17.32l30-17.321Z"/>
    <path class="curtain-R-prim-dark" d="M180,323.316l-30,17.32v-17.32l30-17.321Z"/>
    <path class="curtain-R-prim-dark" d="M180,357.957l-30,17.32v-17.32l30-17.321Z"/>
    <path class="curtain-L-prim-dark" d="M180,150.111l10,5.773v-17.32l-10-5.774Z"/>
    <path class="curtain-L-prim-dark" d="M180,184.752l20,11.547V178.978l-20-11.547Z"/>
    <path class="curtain-L-prim-dark" d="M180,219.393l20,11.547V213.619l-20-11.547Z"/>
    <path class="curtain-L-prim-dark" d="M180,254.034l20,11.547V248.26l-20-11.547Z"/>
    <path class="curtain-L-prim-dark" d="M180,288.675l30,17.32v-17.32l-30-17.321Z"/>
    <path class="curtain-L-prim-dark" d="M180,323.316l30,17.32v-17.32l-30-17.321Z"/>
    <path class="curtain-L-prim-dark" d="M180,357.957l30,17.32v-17.32l-30-17.321Z"/>
    <path class="top-light" d="M180,288.675l15,8.66-15,8.66-15-8.66Z"/>
    <path class="curtain-R-prim-light" d="M195,297.335v75.056l-15,8.66-5-2.887V303.109l5,2.886Z"/>
    <path class="curtain-L-prim-light" d="M165,297.335v75.056l15,8.66V305.995Z"/>
    <path class="curtain-L-prim-light" d="M180,386.824l-25-14.433V597.557l25,14.434Z"/>
    <path class="curtain-L-prim-dark" d="M20,213.619l130,75.056V271.354L20,196.299Z"/>
    <path class="curtain-L-prim-dark" d="M20,282.901l130,75.056V340.636L20,265.581Z"/>
    <path class="curtain-L-prim-dark" d="M20,352.183l130,75.056V409.918L20,334.863Z"/>
    <path class="curtain-L-prim-dark" d="M20,421.465l130,75.056V479.2L20,404.145Z"/>
    <path class="curtain-L-prim-dark" d="M20,490.748l130,75.055v-17.32L20,473.427Z"/>
    <path class="curtain-L-prim-dark" d="M20,248.26l130,75.056V305.995L20,230.94Z"/>
    <path class="curtain-L-prim-dark" d="M20,317.542l130,75.056V375.277L20,300.222Z"/>
    <path class="curtain-L-prim-dark" d="M20,386.824,150,461.88V444.559L20,369.504Z"/>
    <path class="curtain-L-prim-dark" d="M20,456.106l130,75.056V513.841L20,438.786Z"/>
    <path class="curtain-L-prim-dark" d="M20,525.389l130,75.055v-17.32L20,508.068Z"/>
    <path class="curtain-L-prim-dark" d="M0,300.222l20,11.547V294.448L0,282.901Z"/>
    <path class="curtain-L-prim-dark" d="M0,369.504l20,11.547V363.73L0,352.183Z"/>
    <path class="curtain-L-prim-dark" d="M0,438.786l20,11.547V433.012L0,421.465Z"/>
    <path class="curtain-L-prim-dark" d="M0,508.068l20,11.547v-17.32L0,490.747Z"/>
    <path class="curtain-L-prim-dark" d="M0,334.863,20,346.41V329.089L0,317.542Z"/>
    <path class="curtain-L-prim-dark" d="M0,404.145l20,11.547V398.371L0,386.824Z"/>
    <path class="curtain-L-prim-dark" d="M0,473.427l20,11.547V467.653L0,456.106Z"/>
    <path class="curtain-L-prim-dark" d="M155,424.352l25,14.434V421.465l-25-14.433Z"/>
    <path class="curtain-L-prim-dark" d="M155,389.711l25,14.434V386.824l-25-14.433Z"/>
    <path class="curtain-L-prim-dark" d="M155,493.634l25,14.434v-17.32l-25-14.434Z"/>
    <path class="curtain-L-prim-dark" d="M155,562.916l25,14.434V560.03l-25-14.434Z"/>
    <path class="curtain-L-prim-dark" d="M155,458.993l25,14.434V456.106l-25-14.433Z"/>
    <path class="curtain-L-prim-dark" d="M155,528.275l25,14.434v-17.32l-25-14.434Z"/>
    <path class="curtain-L-prim-dark" d="M155,597.557l25,14.434v-17.32l-25-14.434Z"/>
    <path class="curtain-R-prim-dark" d="M195,314.656l-15,8.66V305.995l15-8.66Z"/>
    <path class="curtain-L-prim-dark" d="M165,314.656l15,8.66V305.995l-15-8.66Z"/>
    <path class="curtain-R-prim-dark" d="M195,349.297l-15,8.66V340.636l15-8.66Z"/>
    <path class="curtain-L-prim-dark" d="M165,349.297l15,8.66V340.636l-15-8.66Z"/>
    <path class="curtain-L-prim-dark" d="M40,144.337l120,69.282v-17.32L40,127.017Z"/>
    <path class="curtain-L-prim-dark" d="M40,178.978,160,248.26V230.94L40,161.658Z"/>
    <path class="curtain-L-prim-dark" d="M60,109.696l110,63.509V155.884L60,92.376Z"/>
    <path class="exterior-R-prim" d="M185,129.904l5,2.886L290,75.055l-10-5.773v5.773Z"/>
    <path class="exterior-R-prim" d="M195,170.318l5,2.887,110-63.509-10-5.773v5.773Z"/>
    <path class="exterior-R-prim" d="M206.25,261.972l5,2.887L330,196.299l-10-5.774v5.774Z"/>
    <path class="exterior-L-light" d="M340,288.675l10-5.774-10-5.773v11.547Z"/>
    <path class="exterior-R-light" d="M192.5,379.607l5-2.886V601.887l-5,2.887Z"/>
    <path class="exterior-R-light" d="M180,386.824l5-2.886V609.104l-5,2.887Z"/>
    <path class="exterior-R-light" d="M355,285.788l5-2.887V508.068l-5,2.887Z"/>
    <path class="exterior-R-light" d="M342.5,293.005l5-2.887V515.285l-5,2.886Z"/>
    <path class="exterior-R-light" d="M222.5,264.137l5-2.886V365.174l-5,2.886Z"/>
    <path class="exterior-R-light" d="M247.5,249.704l5-2.887V350.74l-5,2.887Z"/>
    <path class="exterior-R-light" d="M272.5,235.27l5-2.887V336.306l-5,2.887Z"/>
    <path class="exterior-R-light" d="M297.5,220.836l5-2.887V321.872l-5,2.887Z"/>
    <path class="exterior-R-light" d="M322.5,206.402l5-2.886V307.439l-5,2.886Z"/>
    <path class="exterior-R-light" d="M260,242.487l5-2.887V343.523l-5,2.887Z"/>
    <path class="exterior-R-light" d="M285,228.053l5-2.887V329.089l-5,2.887Z"/>
    <path class="exterior-R-light" d="M310,213.619l5-2.887V314.656l-5,2.886Z"/>
    <path class="exterior-R-light" d="M335,199.185l5-2.886V300.222l-5,2.887Z"/>
    <path class="exterior-R-light" d="M210,271.354l5-2.887V372.391l-5,2.886Z"/>
    <path class="exterior-R-light" d="M235,256.92l5-2.886V357.957l-5,2.887Z"/>
    <path class="exterior-R-light" d="M222.5,368.06l5-2.886V590.34l-5,2.887Z"/>
    <path class="exterior-R-light" d="M247.5,353.627l5-2.887V575.906l-5,2.887Z"/>
    <path class="exterior-R-light" d="M272.5,339.193l5-2.887V561.473l-5,2.887Z"/>
    <path class="exterior-R-light" d="M297.5,324.759l5-2.887V547.039l-5,2.887Z"/>
    <path class="exterior-R-light" d="M322.5,310.325l5-2.886V532.605l-5,2.887Z"/>
    <path class="exterior-R-light" d="M260,346.41l5-2.887V568.69l-5,2.886Z"/>
    <path class="exterior-R-light" d="M285,331.976l5-2.887V554.256l-5,2.887Z"/>
    <path class="exterior-R-light" d="M310,317.542l5-2.887V539.822l-5,2.887Z"/>
    <path class="exterior-R-light" d="M335,303.109l5-2.887V525.388l-5,2.887Z"/>
    <path class="exterior-R-light" d="M210,375.277l5-2.886V597.557l-5,2.887Z"/>
    <path class="exterior-R-light" d="M235,360.844l5-2.887V583.123l-5,2.887Z"/>
    <path class="exterior-R-light" d="M192.5,108.253l5-2.887v17.321l-5,2.886Z"/>
    <path class="exterior-R-light" d="M217.5,93.819l5-2.887v17.321l-5,2.887Z"/>
    <path class="exterior-R-light" d="M242.5,79.385l5-2.886v17.32l-5,2.887Z"/>
    <path class="exterior-R-light" d="M267.5,64.952l5-2.887v17.32l-5,2.887Z"/>
    <path class="exterior-R-light" d="M230,86.602l5-2.887v17.321l-5,2.887Z"/>
    <path class="exterior-R-light" d="M255,72.168l5-2.886v17.32l-5,2.887Z"/>
    <path class="exterior-R-light" d="M180,115.47l5-2.887v17.32l-5,2.887Z"/>
    <path class="exterior-R-light" d="M205,101.036l5-2.887V115.47l-5,2.886Z"/>
    <path class="exterior-R-light" d="M213.75,171.04l5-2.887v86.602l-5,2.887Z"/>
    <path class="exterior-R-light" d="M238.75,156.606l5-2.887v86.603l-5,2.886Z"/>
    <path class="exterior-R-light" d="M263.75,142.172l5-2.887v86.603l-5,2.887Z"/>
    <path class="exterior-R-light" d="M288.75,127.738l5-2.886v86.602l-5,2.887Z"/>
    <path class="exterior-R-light" d="M313.75,113.305l6.25-3.609v86.603l-6.25,3.608Z"/>
    <path class="exterior-R-light" d="M251.25,149.389l5-2.887v86.603l-5,2.887Z"/>
    <path class="exterior-R-light" d="M276.25,134.955l5-2.887v86.603l-5,2.887Z"/>
    <path class="exterior-R-light" d="M301.25,120.521l5-2.886v86.602l-5,2.887Z"/>
    <path class="exterior-R-light" d="M200,178.978l6.25-3.608v86.602L200,265.581Z"/>
    <path class="exterior-R-light" d="M226.25,163.823l5-2.887v86.603l-5,2.886Z"/>
    <path class="exterior-R-light" d="M202.5,131.347l5-2.887v34.641l-5,2.887Z"/>
    <path class="exterior-R-light" d="M227.5,116.913l5-2.887v34.641l-5,2.887Z"/>
    <path class="exterior-R-light" d="M252.5,102.479l5-2.886v34.641l-5,2.886Z"/>
    <path class="exterior-R-light" d="M277.5,88.046l5-2.887V119.8l-5,2.887Z"/>
    <path class="exterior-R-light" d="M240,109.696l5-2.887V141.45l-5,2.887Z"/>
    <path class="exterior-R-light" d="M265,95.262l5-2.886v34.641l-5,2.886Z"/>
    <path class="exterior-R-light" d="M290,80.829l5-2.887v34.641l-5,2.887Z"/>
    <path class="exterior-R-light" d="M190,138.564l5-2.887v34.641l-5,2.887Z"/>
    <path class="exterior-R-light" d="M215,124.13l5-2.887v34.641l-5,2.887Z"/>
    <path class="exterior-L-light" d="M180,305.995l-5-2.886v75.055l5,2.887Z"/>
    <path class="exterior-R-light" d="M180,305.995l5-2.886v75.055l-5,2.887Z"/>
    <path class="exterior-L-light" d="M167.5,379.607l-5-2.886V601.887l5,2.887Z"/>
    <path class="exterior-L-light" d="M180,386.824l-5-2.886V609.104l5,2.887Z"/>
    <path class="exterior-L-light" d="M5,285.788l-5-2.887V508.068l5,2.887Z"/>
    <path class="exterior-L-light" d="M17.5,293.005l-5-2.887V515.285l5,2.886Z"/>
    <path class="exterior-L-light" d="M137.5,264.137l-5-2.886V365.174l5,2.886Z"/>
    <path class="exterior-L-light" d="M112.5,249.704l-5-2.887V350.74l5,2.887Z"/>
    <path class="exterior-L-light" d="M87.5,235.27l-5-2.887V336.306l5,2.887Z"/>
    <path class="exterior-L-light" d="M62.5,220.836l-5-2.887V321.872l5,2.887Z"/>
    <path class="exterior-L-light" d="M37.5,206.402l-5-2.886V307.439l5,2.886Z"/>
    <path class="exterior-L-light" d="M100,242.487,95,239.6V343.523l5,2.887Z"/>
    <path class="exterior-L-light" d="M75,228.053l-5-2.887V329.089l5,2.887Z"/>
    <path class="exterior-L-light" d="M50,213.619l-5-2.887V314.656l5,2.886Z"/>
    <path class="exterior-L-light" d="M25,199.185l-5-2.886V300.222l5,2.887Z"/>
    <path class="exterior-L-light" d="M150,271.354l-5-2.887V372.391l5,2.886Z"/>
    <path class="exterior-L-light" d="M125,256.92l-5-2.886V357.957l5,2.887Z"/>
    <path class="exterior-L-light" d="M137.5,368.06l-5-2.886V590.34l5,2.887Z"/>
    <path class="exterior-L-light" d="M112.5,353.627l-5-2.887V575.906l5,2.887Z"/>
    <path class="exterior-L-light" d="M87.5,339.193l-5-2.887V561.473l5,2.887Z"/>
    <path class="exterior-L-light" d="M62.5,324.759l-5-2.887V547.039l5,2.887Z"/>
    <path class="exterior-L-light" d="M37.5,310.325l-5-2.886V532.605l5,2.887Z"/>
    <path class="exterior-L-light" d="M100,346.41l-5-2.887V568.69l5,2.886Z"/>
    <path class="exterior-L-light" d="M75,331.976l-5-2.887V554.256l5,2.887Z"/>
    <path class="exterior-L-light" d="M50,317.542l-5-2.886V539.822l5,2.887Z"/>
    <path class="exterior-L-light" d="M25,303.109l-5-2.887V525.388l5,2.887Z"/>
    <path class="exterior-L-light" d="M150,375.277l-5-2.886V597.557l5,2.887Z"/>
    <path class="exterior-L-light" d="M125,360.844l-5-2.887V583.123l5,2.887Z"/>
    <path class="exterior-L-light" d="M167.5,108.253l-5-2.887v17.321l5,2.886Z"/>
    <path class="exterior-L-light" d="M142.5,93.819l-5-2.887v17.321l5,2.887Z"/>
    <path class="exterior-L-light" d="M117.5,79.385l-5-2.886v17.32l5,2.887Z"/>
    <path class="exterior-L-light" d="M92.5,64.952l-5-2.887v17.32l5,2.887Z"/>
    <path class="exterior-L-light" d="M130,86.602l-5-2.887v17.321l5,2.887Z"/>
    <path class="exterior-L-light" d="M105,72.168l-5-2.886v17.32l5,2.887Z"/>
    <path class="exterior-L-light" d="M180,115.47l-5-2.887v17.32l5,2.887Z"/>
    <path class="exterior-L-light" d="M155,101.036l-5-2.887V115.47l5,2.886Z"/>
    <path class="exterior-L-light" d="M146.25,171.04l-5-2.887v86.602l5,2.887Z"/>
    <path class="exterior-L-light" d="M121.25,156.606l-5-2.887v86.603l5,2.886Z"/>
    <path class="exterior-L-light" d="M96.25,142.172l-5-2.887v86.603l5,2.887Z"/>
    <path class="exterior-L-light" d="M71.25,127.738l-5-2.886v86.602l5,2.887Z"/>
    <path class="exterior-L-light" d="M46.25,113.305,40,109.696v86.603l6.25,3.608Z"/>
    <path class="exterior-L-light" d="M108.75,149.389l-5-2.887v86.603l5,2.887Z"/>
    <path class="exterior-L-light" d="M83.75,134.955l-5-2.887v86.603l5,2.887Z"/>
    <path class="exterior-L-light" d="M58.75,120.521l-5-2.886v86.602l5,2.887Z"/>
    <path class="exterior-L-light" d="M160,178.978l-6.25-3.608v86.602l6.25,3.609Z"/>
    <path class="exterior-L-light" d="M133.75,163.823l-5-2.887v86.603l5,2.886Z"/>
    <path class="exterior-L-light" d="M157.5,131.347l-5-2.887v34.641l5,2.887Z"/>
    <path class="exterior-L-light" d="M132.5,116.913l-5-2.887v34.641l5,2.887Z"/>
    <path class="exterior-L-light" d="M107.5,102.479l-5-2.886v34.641l5,2.886Z"/>
    <path class="exterior-L-light" d="M82.5,88.046l-5-2.887V119.8l5,2.887Z"/>
    <path class="exterior-L-light" d="M120,109.696l-5-2.887V141.45l5,2.887Z"/>
    <path class="exterior-L-light" d="M95,95.262l-5-2.886v34.641l5,2.886Z"/>
    <path class="exterior-L-light" d="M70,80.829l-5-2.887v34.641l5,2.887Z"/>
    <path class="exterior-L-light" d="M170,138.564l-5-2.887v34.641l5,2.887Z"/>
    <path class="exterior-L-light" d="M145,124.13l-5-2.887v34.641l5,2.887Z"/>
    <path class="exterior-L-light" d="M210,271.354l-5-2.887V372.391l5,2.886Z"/>
    <path class="exterior-L-light" d="M200,178.978l-5-2.887v86.603l5,2.887Z"/>
    <path class="exterior-R-light" d="M160,178.978l5-2.887v86.603l-5,2.887Z"/>
    <path class="exterior-R-light" d="M170,138.564l5-2.887v34.641l-5,2.887Z"/>
    <path class="exterior-L-light" d="M190,138.564l-5-2.887v34.641l5,2.887Z"/>
    <path class="exterior-R-light" d="M150,271.354l5-2.887V372.391l-5,2.886Z"/>
    <path class="exterior-R-light" d="M150,375.277l5-2.886V597.557l-5,2.887Z"/>
    <path class="exterior-L-light" d="M210,375.277l-5-2.886V597.557l5,2.887Z"/>
    <path class="exterior-L-light" d="M20,288.675l-10-5.774,10-5.773v11.547Z"/>
    <path class="exterior-L-light" d="M20,288.675l-10-5.774,10-5.773v11.547Z"/>
    <path class="top-prim" d="M180,300.222l-5-2.887,5-2.887,5,2.887Z"/>
    <path class="exterior-L-light" d="M175,129.904l-5,2.886L70,75.055l10-5.773v5.773Z"/>
    <path class="exterior-L-light" d="M165,170.318l-5,2.887L50,109.696l10-5.773v5.773Z"/>
    <path class="exterior-L-light" d="M153.75,261.972l-5,2.887L30,196.299l10-5.774v5.774Z"/>
    <path class="exterior-L-light" d="M280,80.829l5-2.887,5-2.887-10-5.773Z"/>
    <path class="exterior-L-light" d="M300,115.47l5-2.887,5-2.887-10-5.773Z"/>
    <path class="exterior-L-light" d="M320,202.072l5-2.886,5-2.887-10-5.774Z"/>
    <path class="exterior-L-light" d="M340,288.675l5-2.887,5-2.887-10-5.773Z"/>
    <path class="exterior-R-light" d="M20,288.675l-5-2.887-5-2.887,10-5.773Z"/>
    <path class="exterior-R-light" d="M80,80.829l-5-2.887-5-2.887,10-5.773Z"/>
    <path class="exterior-R-light" d="M60,115.47l-5-2.887-5-2.887,10-5.773Z"/>
    <path class="exterior-R-light" d="M40,202.072l-5-2.886-5-2.887,10-5.774Z"/>
    <path class="curtain-R-prim-light" d="M180,288.675v5.773l-5,2.887-5-2.887Z"/>
    <path class="curtain-L-prim-light" d="M180,288.675v5.773l5,2.887,5-2.887Z"/>
    <path class="curtain-L-prim-light" d="M195,366.617v5.774l5-2.887Z"/>
    <path class="curtain-R-prim-light" d="M160,369.504l5-2.887v5.774Z"/>
  </g>
</svg>
