<svg id="Layer_1" data-name="Layer 1" xmlns="http://www.w3.org/2000/svg" viewBox="0 0 360 692.82">
  <defs>
    <style>
      .exterior-R-prim {
        fill: #d05752;
      }

      .exterior-L-prim {
        fill: #73302e;
      }

      .curtain-L-prim-light {
        fill: #438fb0;
      }

      .curtain-R-prim-light {
        fill: #59acd0;
      }

      .top-light {
        fill: #ffc8c6;
      }

      .top-dark {
        fill: #c67471;
      }

      .curtain-R-prim-dark {
        fill: #3e809c;
      }

      .cls-1 {
        fill: none;
      }

      .curtain-L-prim-dark {
        fill: #2f5565;
      }

      .cls-2 {
        fill: #d1d1d1;
      }

      .exterior-L-light {
        fill: #8a3a37;
      }

      .exterior-R-light {
        fill: #df5d58;
      }

      .top-prim {
        fill: #dd8a87;
      }
    </style>
  </defs>
  <title>Artboard 23</title>
  <g id="root">
    <path class="exterior-R-prim" d="M175,672.613v17.321l5,2.886L360,588.897v-17.32L180,675.5Z"/>
    <path class="exterior-L-prim" d="M180,692.82,0,588.897v-17.32L180,675.5Z"/>
    <path class="curtain-L-prim-light" d="M215,666.84V378.165l-35-20.208V652.406l30,17.32Z"/>
    <path class="curtain-R-prim-light" d="M335,297.336l25-14.434V577.35l-25,14.434Z"/>
    <path class="top-light" d="M150,277.128,20,202.073v-5.774l160-92.376,160,92.376v5.774L210,277.128l-30-17.32Z"/>
    <path class="top-light" d="M160,184.752,40,115.47v-5.773L180,28.868l140,80.829v5.773L200,184.752l-20-11.547Z"/>
    <path class="top-light" d="M170,144.338,60,80.829V75.056L180,5.774,300,75.056v5.773L190,144.338l-10-5.774Z"/>
    <path id="anchor_80_115.47_200" class="top-dark" d="M80,63.509V57.735L180,0,280,57.735v5.774L180,121.244Z"/>
    <path class="curtain-R-prim-light" d="M145,666.84V372.391l5,2.887,30-17.321V652.406l-30,17.321Z"/>
    <path class="curtain-R-prim-dark" d="M280,57.735V75.056L180,132.791l-10-5.774v-17.32l10,5.773Z"/>
    <path class="curtain-R-prim-light" d="M300,75.056v34.641L190,173.205l-5-2.887V135.677l5,2.887Z"/>
    <path class="top-light" d="M0,282.902v5.773l150,86.603,5-2.887v5.774l25,14.433,25-14.433v-5.774l5.313-2.869L210,375.278l150-86.603v-5.773L180,178.979Z"/>
    <path class="curtain-R-prim-light" d="M320,109.697v86.602L200,265.581l-5-2.886V176.092l5,2.887Z"/>
    <line class="cls-1" x1="340" y1="196.2992" x2="210" y2="271.3548"/>
    <path class="curtain-R-prim-light" d="M210,271.355l-5-2.887V372.391l5,2.887V669.726l130-75.055V196.299Z"/>
    <path class="curtain-L-prim-light" d="M180,357.957l30,17.321V271.355l-10-5.774V178.979l-10-5.774V138.564l-10-5.773Z"/>
    <path class="curtain-L-prim-dark" d="M200,404.145l10,5.774V392.598l-10-5.773Z"/>
    <path class="curtain-L-prim-dark" d="M200,438.786l10,5.774V427.239l-10-5.773Z"/>
    <path class="curtain-L-prim-dark" d="M200,473.427l10,5.774V461.88l-10-5.773Z"/>
    <path class="curtain-L-prim-dark" d="M200,542.709l10,5.774V531.162l-10-5.773Z"/>
    <path class="curtain-L-prim-dark" d="M200,646.632l10,5.774V635.085l-10-5.773Z"/>
    <path class="curtain-L-prim-dark" d="M200,508.068l10,5.774V496.521l-10-5.773Z"/>
    <path class="curtain-L-prim-dark" d="M200,611.991l10,5.774V600.444l-10-5.773Z"/>
    <path class="curtain-L-prim-dark" d="M200,577.35l10,5.774V565.803l-10-5.773Z"/>
    <path class="curtain-R-prim-dark" d="M160,404.145l-10,5.774V392.598l10-5.773Z"/>
    <path class="curtain-R-prim-dark" d="M160,438.786l-10,5.774V427.239l10-5.773Z"/>
    <path class="curtain-R-prim-dark" d="M160,473.427l-10,5.774V461.88l10-5.773Z"/>
    <path class="curtain-R-prim-dark" d="M160,542.709l-10,5.774V531.162l10-5.773Z"/>
    <path class="curtain-R-prim-dark" d="M160,646.632l-10,5.774V635.085l10-5.773Z"/>
    <path class="curtain-R-prim-dark" d="M160,508.068l-10,5.774V496.521l10-5.773Z"/>
    <path class="curtain-R-prim-dark" d="M160,611.991l-10,5.774V600.444l10-5.773Z"/>
    <path class="curtain-R-prim-dark" d="M160,577.35l-10,5.774V565.803l10-5.773Z"/>
    <path class="cls-2" d="M180,288.675l-15,8.661,15,8.66,15-8.66Z"/>
    <path class="curtain-R-prim-light" d="M170,675.5V381.051l10,5.774,25-14.434V666.84l-25,14.433Z"/>
    <path class="curtain-R-prim-dark" d="M340,213.62,210,288.675v-17.32l130-75.056Z"/>
    <path class="curtain-R-prim-dark" d="M340,282.902,210,357.957v-17.32l130-75.056Z"/>
    <path class="curtain-R-prim-dark" d="M340,352.184,210,427.239v-17.32l130-75.056Z"/>
    <path class="curtain-R-prim-dark" d="M340,421.466,210,496.521v-17.32l130-75.056Z"/>
    <path class="curtain-R-prim-dark" d="M340,490.748,210,565.803v-17.32l130-75.056Z"/>
    <path class="curtain-R-prim-dark" d="M340,560.03,210,635.085v-17.32l130-75.056Z"/>
    <path class="curtain-R-prim-dark" d="M340,248.261,210,323.316v-17.32L340,230.94Z"/>
    <path class="curtain-R-prim-dark" d="M340,317.543,210,392.598v-17.32l130-75.056Z"/>
    <path class="curtain-R-prim-dark" d="M340,386.825,210,461.88V444.56l130-75.056Z"/>
    <path class="curtain-R-prim-dark" d="M340,456.107,210,531.162v-17.32l130-75.056Z"/>
    <path class="curtain-R-prim-dark" d="M340,525.389,210,600.444v-17.32l130-75.056Z"/>
    <path class="curtain-R-prim-dark" d="M340,594.671,210,669.726v-17.32L340,577.35Z"/>
    <path class="curtain-R-prim-dark" d="M360,300.222l-20,11.547v-17.32l20-11.547Z"/>
    <path class="curtain-R-prim-dark" d="M360,369.504l-20,11.547v-17.32l20-11.547Z"/>
    <path class="curtain-R-prim-dark" d="M360,438.786l-20,11.547v-17.32l20-11.547Z"/>
    <path class="curtain-R-prim-dark" d="M360,508.068l-20,11.547v-17.32l20-11.547Z"/>
    <path class="curtain-R-prim-dark" d="M360,577.35l-20,11.547v-17.32l20-11.547Z"/>
    <path class="curtain-R-prim-dark" d="M360,334.863,340,346.41V329.09l20-11.547Z"/>
    <path class="curtain-R-prim-dark" d="M360,404.145l-20,11.547v-17.32l20-11.547Z"/>
    <path class="curtain-R-prim-dark" d="M360,473.427l-20,11.547v-17.32l20-11.547Z"/>
    <path class="curtain-R-prim-dark" d="M360,542.709l-20,11.547v-17.32l20-11.547Z"/>
    <path class="curtain-R-prim-dark" d="M205,389.712l-25,14.433v-17.32l25-14.434Z"/>
    <path class="curtain-R-prim-dark" d="M205,458.994l-25,14.433v-17.32l25-14.434Z"/>
    <path class="curtain-R-prim-dark" d="M205,528.276l-25,14.433v-17.32l25-14.434Z"/>
    <path class="curtain-R-prim-dark" d="M205,597.558l-25,14.433v-17.32l25-14.434Z"/>
    <path class="curtain-R-prim-dark" d="M205,666.84l-25,14.433v-17.32l25-14.434Z"/>
    <path class="curtain-R-prim-dark" d="M205,424.353l-25,14.433v-17.32l25-14.434Z"/>
    <path class="curtain-R-prim-dark" d="M205,493.635l-25,14.433v-17.32l25-14.434Z"/>
    <path class="curtain-R-prim-dark" d="M205,562.917,180,577.35V560.03l25-14.434Z"/>
    <path class="curtain-R-prim-dark" d="M205,632.199l-25,14.433v-17.32l25-14.434Z"/>
    <path class="curtain-R-prim-dark" d="M320,144.338,200,213.62V196.299l120-69.282Z"/>
    <path class="curtain-R-prim-dark" d="M320,178.979,200,248.261V230.94l120-69.282Z"/>
    <path class="curtain-R-prim-dark" d="M300,109.697,190,173.205v-17.32L300,92.376Z"/>
    <path class="curtain-L-prim-light" d="M25,297.336,0,282.902V577.35l25,14.434Z"/>
    <path class="curtain-L-prim-dark" d="M80,57.735V75.056l100,57.735V115.47Z"/>
    <path class="curtain-L-prim-light" d="M60,75.056v34.641l110,63.508,5-2.887V135.677l-5,2.887Z"/>
    <path class="curtain-L-prim-light" d="M40,109.697v86.602l120,69.282,5-2.886V176.092l-5,2.887Z"/>
    <path class="exterior-L-light" d="M160,369.504l20,11.547,20-11.547-20-11.547Z"/>
    <path class="curtain-L-prim-light" d="M150,271.355l5-2.887V372.391l-5,2.887V669.726L20,594.671V196.299Z"/>
    <path class="curtain-R-prim-light" d="M180,357.957l-30,17.321V271.355l10-5.774V178.979l10-5.774V138.564l10-5.773Z"/>
    <path class="curtain-R-prim-dark" d="M180,150.111l-10,5.774V138.564l10-5.773Z"/>
    <path class="curtain-R-prim-dark" d="M180,184.752l-20,11.547v-17.32l20-11.547Z"/>
    <path class="curtain-R-prim-dark" d="M180,219.393,160,230.94V213.62l20-11.547Z"/>
    <path class="curtain-R-prim-dark" d="M180,254.034l-20,11.547v-17.32l20-11.547Z"/>
    <path class="curtain-R-prim-dark" d="M180,288.675l-30,17.321V288.675l30-17.32Z"/>
    <path class="curtain-R-prim-dark" d="M180,323.316l-30,17.321V323.316l30-17.32Z"/>
    <path class="curtain-R-prim-dark" d="M180,357.957l-30,17.321V357.957l30-17.32Z"/>
    <path class="curtain-L-prim-dark" d="M180,150.111l10,5.774V138.564l-10-5.773Z"/>
    <path class="curtain-L-prim-dark" d="M180,184.752l20,11.547v-17.32l-20-11.547Z"/>
    <path class="curtain-L-prim-dark" d="M180,219.393l20,11.547V213.62l-20-11.547Z"/>
    <path class="curtain-L-prim-dark" d="M180,254.034l20,11.547v-17.32l-20-11.547Z"/>
    <path class="curtain-L-prim-dark" d="M180,288.675l30,17.321V288.675l-30-17.32Z"/>
    <path class="curtain-L-prim-dark" d="M180,323.316l30,17.321V323.316l-30-17.32Z"/>
    <path class="curtain-L-prim-dark" d="M180,357.957l30,17.321V357.957l-30-17.32Z"/>
    <path class="top-light" d="M180,288.675l15,8.661-15,8.66-15-8.66Z"/>
    <path class="curtain-R-prim-light" d="M195,297.336v75.055l-15,8.66-5-2.886V303.109l5,2.887Z"/>
    <path class="curtain-L-prim-light" d="M165,297.336v75.055l15,8.66V305.996Z"/>
    <path class="curtain-L-prim-light" d="M180,386.825l-25-14.434V666.84l25,14.433Z"/>
    <path class="curtain-L-prim-dark" d="M20,213.62l130,75.055v-17.32L20,196.299Z"/>
    <path class="curtain-L-prim-dark" d="M20,282.902l130,75.055v-17.32L20,265.581Z"/>
    <path class="curtain-L-prim-dark" d="M20,352.184l130,75.055v-17.32L20,334.863Z"/>
    <path class="curtain-L-prim-dark" d="M20,421.466l130,75.055v-17.32L20,404.145Z"/>
    <path class="curtain-L-prim-dark" d="M20,490.748l130,75.055v-17.32L20,473.427Z"/>
    <path class="curtain-L-prim-dark" d="M20,560.03l130,75.055v-17.32L20,542.709Z"/>
    <path class="curtain-L-prim-dark" d="M20,248.261l130,75.055v-17.32L20,230.94Z"/>
    <path class="curtain-L-prim-dark" d="M20,317.543l130,75.055v-17.32L20,300.222Z"/>
    <path class="curtain-L-prim-dark" d="M20,386.825,150,461.88V444.56L20,369.504Z"/>
    <path class="curtain-L-prim-dark" d="M20,456.107l130,75.055v-17.32L20,438.786Z"/>
    <path class="curtain-L-prim-dark" d="M20,525.389l130,75.055v-17.32L20,508.068Z"/>
    <path class="curtain-L-prim-dark" d="M20,594.671l130,75.055v-17.32L20,577.35Z"/>
    <path class="curtain-L-prim-dark" d="M0,300.222l20,11.547v-17.32L0,282.902Z"/>
    <path class="curtain-L-prim-dark" d="M0,369.504l20,11.547v-17.32L0,352.184Z"/>
    <path class="curtain-L-prim-dark" d="M0,438.786l20,11.547v-17.32L0,421.466Z"/>
    <path class="curtain-L-prim-dark" d="M0,508.068l20,11.547v-17.32L0,490.748Z"/>
    <path class="curtain-L-prim-dark" d="M0,577.35l20,11.547v-17.32L0,560.03Z"/>
    <path class="curtain-L-prim-dark" d="M0,334.863,20,346.41V329.09L0,317.543Z"/>
    <path class="curtain-L-prim-dark" d="M0,404.145l20,11.547v-17.32L0,386.825Z"/>
    <path class="curtain-L-prim-dark" d="M0,473.427l20,11.547v-17.32L0,456.107Z"/>
    <path class="curtain-L-prim-dark" d="M0,542.709l20,11.547v-17.32L0,525.389Z"/>
    <path class="curtain-L-prim-dark" d="M155,424.353l25,14.433v-17.32l-25-14.434Z"/>
    <path class="curtain-L-prim-dark" d="M155,389.712l25,14.433v-17.32l-25-14.434Z"/>
    <path class="curtain-L-prim-dark" d="M155,493.635l25,14.433v-17.32l-25-14.434Z"/>
    <path class="curtain-L-prim-dark" d="M155,562.917l25,14.433V560.03l-25-14.434Z"/>
    <path class="curtain-L-prim-dark" d="M155,632.199l25,14.433v-17.32l-25-14.434Z"/>
    <path class="curtain-L-prim-dark" d="M155,458.994l25,14.433v-17.32l-25-14.434Z"/>
    <path class="curtain-L-prim-dark" d="M155,528.276l25,14.433v-17.32l-25-14.434Z"/>
    <path class="curtain-L-prim-dark" d="M155,597.558l25,14.433v-17.32l-25-14.434Z"/>
    <path class="curtain-L-prim-dark" d="M155,666.84l25,14.433v-17.32l-25-14.434Z"/>
    <path class="curtain-R-prim-dark" d="M195,314.656l-15,8.66v-17.32l15-8.66Z"/>
    <path class="curtain-L-prim-dark" d="M165,314.656l15,8.66v-17.32l-15-8.66Z"/>
    <path class="curtain-R-prim-dark" d="M195,349.297l-15,8.66v-17.32l15-8.66Z"/>
    <path class="curtain-L-prim-dark" d="M165,349.297l15,8.66v-17.32l-15-8.66Z"/>
    <path class="curtain-L-prim-dark" d="M40,144.338,160,213.62V196.299L40,127.017Z"/>
    <path class="curtain-L-prim-dark" d="M40,178.979l120,69.282V230.94L40,161.658Z"/>
    <path class="curtain-L-prim-dark" d="M60,109.697l110,63.508v-17.32L60,92.376Z"/>
    <path class="exterior-R-prim" d="M185,129.904l5,2.887L290,75.056l-10-5.774v5.774Z"/>
    <path class="exterior-R-prim" d="M195,170.318l5,2.887,110-63.508-10-5.774v5.774Z"/>
    <path class="exterior-R-prim" d="M206.25,261.973l5,2.887L330,196.299l-10-5.773v5.773Z"/>
    <path class="exterior-L-light" d="M340,288.675l10-5.773-10-5.774v11.547Z"/>
    <path class="exterior-R-light" d="M192.5,379.608l5-2.887V671.17l-5,2.887Z"/>
    <path class="exterior-R-light" d="M180,386.825l5-2.887V678.387l-5,2.886Z"/>
    <path class="exterior-R-light" d="M355,285.789l5-2.887V577.35l-5,2.887Z"/>
    <path class="exterior-R-light" d="M342.5,293.005l5-2.886V584.567l-5,2.887Z"/>
    <path class="exterior-R-light" d="M222.5,264.138l5-2.887V365.174l-5,2.887Z"/>
    <path class="exterior-R-light" d="M247.5,249.704l5-2.887V350.74l-5,2.887Z"/>
    <path class="exterior-R-light" d="M272.5,235.27l5-2.886V336.307l-5,2.886Z"/>
    <path class="exterior-R-light" d="M297.5,220.837l5-2.887V321.873l-5,2.887Z"/>
    <path class="exterior-R-light" d="M322.5,206.403l5-2.887V307.439l-5,2.887Z"/>
    <path class="exterior-R-light" d="M260,242.487l5-2.886V343.524l-5,2.886Z"/>
    <path class="exterior-R-light" d="M285,228.053l5-2.886V329.09l-5,2.887Z"/>
    <path class="exterior-R-light" d="M310,213.62l5-2.887V314.656l-5,2.887Z"/>
    <path class="exterior-R-light" d="M335,199.186l5-2.887V300.222l-5,2.887Z"/>
    <path class="exterior-R-light" d="M210,271.355l5-2.887V372.391l-5,2.887Z"/>
    <path class="exterior-R-light" d="M235,256.921l5-2.887V357.957l-5,2.887Z"/>
    <path class="exterior-R-light" d="M222.5,368.061l5-2.887V659.623l-5,2.887Z"/>
    <path class="exterior-R-light" d="M247.5,353.627l5-2.887V645.189l-5,2.887Z"/>
    <path class="exterior-R-light" d="M272.5,339.193l5-2.886V630.755l-5,2.887Z"/>
    <path class="exterior-R-light" d="M297.5,324.76l5-2.887V616.322l-5,2.886Z"/>
    <path class="exterior-R-light" d="M322.5,310.326l5-2.887V601.888l-5,2.887Z"/>
    <path class="exterior-R-light" d="M260,346.41l5-2.886V637.972l-5,2.887Z"/>
    <path class="exterior-R-light" d="M285,331.977l5-2.887V623.538l-5,2.887Z"/>
    <path class="exterior-R-light" d="M310,317.543l5-2.887V609.105l-5,2.886Z"/>
    <path class="exterior-R-light" d="M335,303.109l5-2.887V594.671l-5,2.887Z"/>
    <path class="exterior-R-light" d="M210,375.278l5-2.887V666.84l-5,2.886Z"/>
    <path class="exterior-R-light" d="M235,360.844l5-2.887V652.406l-5,2.887Z"/>
    <path class="exterior-R-light" d="M192.5,108.253l5-2.886v17.32l-5,2.887Z"/>
    <path class="exterior-R-light" d="M217.5,93.82l5-2.887v17.32l-5,2.887Z"/>
    <path class="exterior-R-light" d="M242.5,79.386l5-2.887V93.82l-5,2.886Z"/>
    <path class="exterior-R-light" d="M267.5,64.952l5-2.887V79.386l-5,2.887Z"/>
    <path class="exterior-R-light" d="M230,86.603l5-2.887v17.32l-5,2.887Z"/>
    <path class="exterior-R-light" d="M255,72.169l5-2.887V86.603l-5,2.886Z"/>
    <path class="exterior-R-light" d="M180,115.47l5-2.887v17.321l-5,2.887Z"/>
    <path class="exterior-R-light" d="M205,101.036l5-2.886v17.32l-5,2.887Z"/>
    <path class="exterior-R-light" d="M213.75,171.04l5-2.887v86.603l-5,2.887Z"/>
    <path class="exterior-R-light" d="M238.75,156.606l5-2.886v86.602l-5,2.887Z"/>
    <path class="exterior-R-light" d="M263.75,142.173l5-2.887v86.602l-5,2.887Z"/>
    <path class="exterior-R-light" d="M288.75,127.739l5-2.887v86.603l-5,2.886Z"/>
    <path class="exterior-R-light" d="M313.75,113.305l6.25-3.608v86.602l-6.25,3.609Z"/>
    <path class="exterior-R-light" d="M251.25,149.39l5-2.887v86.602l-5,2.887Z"/>
    <path class="exterior-R-light" d="M276.25,134.956l5-2.887v86.603l-5,2.886Z"/>
    <path class="exterior-R-light" d="M301.25,120.522l5-2.887v86.603l-5,2.887Z"/>
    <path class="exterior-R-light" d="M200,178.979l6.25-3.609v86.603L200,265.581Z"/>
    <path class="exterior-R-light" d="M226.25,163.823l5-2.886v86.602l-5,2.887Z"/>
    <path class="exterior-R-light" d="M202.5,131.347l5-2.886v34.641l-5,2.886Z"/>
    <path class="exterior-R-light" d="M227.5,116.914l5-2.887v34.641l-5,2.887Z"/>
    <path class="exterior-R-light" d="M252.5,102.48l5-2.887v34.641l-5,2.887Z"/>
    <path class="exterior-R-light" d="M277.5,88.046l5-2.887V119.8l-5,2.887Z"/>
    <path class="exterior-R-light" d="M240,109.697l5-2.887v34.641l-5,2.887Z"/>
    <path class="exterior-R-light" d="M265,95.263l5-2.887v34.641l-5,2.887Z"/>
    <path class="exterior-R-light" d="M290,80.829l5-2.887v34.641l-5,2.887Z"/>
    <path class="exterior-R-light" d="M190,138.564l5-2.887v34.641l-5,2.887Z"/>
    <path class="exterior-R-light" d="M215,124.13l5-2.886v34.641l-5,2.886Z"/>
    <path class="exterior-L-light" d="M180,305.996l-5-2.887v75.056l5,2.886Z"/>
    <path class="exterior-R-light" d="M180,305.996l5-2.887v75.056l-5,2.886Z"/>
    <path class="exterior-L-light" d="M167.5,379.608l-5-2.887V671.17l5,2.887Z"/>
    <path class="exterior-L-light" d="M180,386.825l-5-2.887V678.387l5,2.886Z"/>
    <path class="exterior-L-light" d="M5,285.789l-5-2.887V577.35l5,2.887Z"/>
    <path class="exterior-L-light" d="M17.5,293.005l-5-2.886V584.567l5,2.887Z"/>
    <path class="exterior-L-light" d="M137.5,264.138l-5-2.887V365.174l5,2.887Z"/>
    <path class="exterior-L-light" d="M112.5,249.704l-5-2.887V350.74l5,2.887Z"/>
    <path class="exterior-L-light" d="M87.5,235.27l-5-2.886V336.307l5,2.886Z"/>
    <path class="exterior-L-light" d="M62.5,220.837l-5-2.887V321.873l5,2.887Z"/>
    <path class="exterior-L-light" d="M37.5,206.403l-5-2.887V307.439l5,2.887Z"/>
    <path class="exterior-L-light" d="M100,242.487l-5-2.886V343.524l5,2.886Z"/>
    <path class="exterior-L-light" d="M75,228.053l-5-2.886V329.09l5,2.887Z"/>
    <path class="exterior-L-light" d="M50,213.62l-5-2.887V314.656l5,2.887Z"/>
    <path class="exterior-L-light" d="M25,199.186l-5-2.887V300.222l5,2.887Z"/>
    <path class="exterior-L-light" d="M150,271.355l-5-2.887V372.391l5,2.887Z"/>
    <path class="exterior-L-light" d="M125,256.921l-5-2.887V357.957l5,2.887Z"/>
    <path class="exterior-L-light" d="M137.5,368.061l-5-2.887V659.623l5,2.887Z"/>
    <path class="exterior-L-light" d="M112.5,353.627l-5-2.887V645.189l5,2.887Z"/>
    <path class="exterior-L-light" d="M87.5,339.193l-5-2.886V630.755l5,2.887Z"/>
    <path class="exterior-L-light" d="M62.5,324.76l-5-2.887V616.322l5,2.886Z"/>
    <path class="exterior-L-light" d="M37.5,310.326l-5-2.887V601.888l5,2.887Z"/>
    <path class="exterior-L-light" d="M100,346.41l-5-2.886V637.972l5,2.887Z"/>
    <path class="exterior-L-light" d="M75,331.977l-5-2.887V623.538l5,2.887Z"/>
    <path class="exterior-L-light" d="M50,317.543l-5-2.887V609.105l5,2.886Z"/>
    <path class="exterior-L-light" d="M25,303.109l-5-2.887V594.671l5,2.887Z"/>
    <path class="exterior-L-light" d="M150,375.278l-5-2.887V666.84l5,2.886Z"/>
    <path class="exterior-L-light" d="M125,360.844l-5-2.887V652.406l5,2.887Z"/>
    <path class="exterior-L-light" d="M167.5,108.253l-5-2.886v17.32l5,2.887Z"/>
    <path class="exterior-L-light" d="M142.5,93.82l-5-2.887v17.32l5,2.887Z"/>
    <path class="exterior-L-light" d="M117.5,79.386l-5-2.887V93.82l5,2.886Z"/>
    <path class="exterior-L-light" d="M92.5,64.952l-5-2.887V79.386l5,2.887Z"/>
    <path class="exterior-L-light" d="M130,86.603l-5-2.887v17.32l5,2.887Z"/>
    <path class="exterior-L-light" d="M105,72.169l-5-2.887V86.603l5,2.886Z"/>
    <path class="exterior-L-light" d="M180,115.47l-5-2.887v17.321l5,2.887Z"/>
    <path class="exterior-L-light" d="M155,101.036l-5-2.886v17.32l5,2.887Z"/>
    <path class="exterior-L-light" d="M146.25,171.04l-5-2.887v86.603l5,2.887Z"/>
    <path class="exterior-L-light" d="M121.25,156.606l-5-2.886v86.602l5,2.887Z"/>
    <path class="exterior-L-light" d="M96.25,142.173l-5-2.887v86.602l5,2.887Z"/>
    <path class="exterior-L-light" d="M71.25,127.739l-5-2.887v86.603l5,2.886Z"/>
    <path class="exterior-L-light" d="M46.25,113.305,40,109.697v86.602l6.25,3.609Z"/>
    <path class="exterior-L-light" d="M108.75,149.39l-5-2.887v86.602l5,2.887Z"/>
    <path class="exterior-L-light" d="M83.75,134.956l-5-2.887v86.603l5,2.886Z"/>
    <path class="exterior-L-light" d="M58.75,120.522l-5-2.887v86.603l5,2.887Z"/>
    <path class="exterior-L-light" d="M160,178.979l-6.25-3.609v86.603l6.25,3.608Z"/>
    <path class="exterior-L-light" d="M133.75,163.823l-5-2.886v86.602l5,2.887Z"/>
    <path class="exterior-L-light" d="M157.5,131.347l-5-2.886v34.641l5,2.886Z"/>
    <path class="exterior-L-light" d="M132.5,116.914l-5-2.887v34.641l5,2.887Z"/>
    <path class="exterior-L-light" d="M107.5,102.48l-5-2.887v34.641l5,2.887Z"/>
    <path class="exterior-L-light" d="M82.5,88.046l-5-2.887V119.8l5,2.887Z"/>
    <path class="exterior-L-light" d="M120,109.697l-5-2.887v34.641l5,2.887Z"/>
    <path class="exterior-L-light" d="M95,95.263l-5-2.887v34.641l5,2.887Z"/>
    <path class="exterior-L-light" d="M70,80.829l-5-2.887v34.641l5,2.887Z"/>
    <path class="exterior-L-light" d="M170,138.564l-5-2.887v34.641l5,2.887Z"/>
    <path class="exterior-L-light" d="M145,124.13l-5-2.886v34.641l5,2.886Z"/>
    <path class="exterior-L-light" d="M210,271.355l-5-2.887V372.391l5,2.887Z"/>
    <path class="exterior-L-light" d="M200,178.979l-5-2.887v86.603l5,2.886Z"/>
    <path class="exterior-R-light" d="M160,178.979l5-2.887v86.603l-5,2.886Z"/>
    <path class="exterior-R-light" d="M170,138.564l5-2.887v34.641l-5,2.887Z"/>
    <path class="exterior-L-light" d="M190,138.564l-5-2.887v34.641l5,2.887Z"/>
    <path class="exterior-R-light" d="M150,271.355l5-2.887V372.391l-5,2.887Z"/>
    <path class="exterior-R-light" d="M150,375.278l5-2.887V666.84l-5,2.886Z"/>
    <path class="exterior-L-light" d="M210,375.278l-5-2.887V666.84l5,2.886Z"/>
    <path class="exterior-L-light" d="M20,288.675l-10-5.773,10-5.774v11.547Z"/>
    <path class="exterior-L-light" d="M20,288.675l-10-5.773,10-5.774v11.547Z"/>
    <path class="top-prim" d="M180,300.222l-5-2.886,5-2.887,5,2.887Z"/>
    <path class="exterior-L-light" d="M175,129.904l-5,2.887L70,75.056l10-5.774v5.774Z"/>
    <path class="exterior-L-light" d="M165,170.318l-5,2.887L50,109.697l10-5.774v5.774Z"/>
    <path class="exterior-L-light" d="M153.75,261.973l-5,2.887L30,196.299l10-5.773v5.773Z"/>
    <path class="exterior-L-light" d="M280,80.829l5-2.887,5-2.886-10-5.774Z"/>
    <path class="exterior-L-light" d="M300,115.47l5-2.887,5-2.886-10-5.774Z"/>
    <path class="exterior-L-light" d="M320,202.073l5-2.887,5-2.887-10-5.773Z"/>
    <path class="exterior-L-light" d="M340,288.675l5-2.886,5-2.887-10-5.774Z"/>
    <path class="exterior-R-light" d="M20,288.675l-5-2.886-5-2.887,10-5.774Z"/>
    <path class="exterior-R-light" d="M80,80.829l-5-2.887-5-2.886,10-5.774Z"/>
    <path class="exterior-R-light" d="M60,115.47l-5-2.887-5-2.886,10-5.774Z"/>
    <path class="exterior-R-light" d="M40,202.073l-5-2.887-5-2.887,10-5.773Z"/>
    <path class="curtain-R-prim-light" d="M180,288.675v5.774l-5,2.887-5-2.887Z"/>
    <path class="curtain-L-prim-light" d="M180,288.675v5.774l5,2.887,5-2.887Z"/>
    <path class="curtain-L-prim-light" d="M195,366.618v5.773l5-2.887Z"/>
    <path class="curtain-R-prim-light" d="M160,369.504l5-2.886v5.773Z"/>
  </g>
</svg>
