<svg id="Layer_1" data-name="Layer 1" xmlns="http://www.w3.org/2000/svg" xmlns:xlink="http://www.w3.org/1999/xlink" viewBox="0 0 270.9027 363.73">
  <defs>
    <style>
      .cls-1 {
        fill: #fff;
      }

      .cls-2, .cls-3 {
        fill: none;
      }

      .cls-3, .cls-5 {
        clip-path: url(#clip-path);
      }

      .top-dark {
        fill: #c67471;
      }

      .curtain-R-prim-dark-light {
        fill: #4d90ad;
      }

      .curtain-L-prim-dark {
        fill: #2f5565;
      }

      .curtain-R-prim-dark {
        fill: #3e809c;
      }

      .curtain-L-prim-light {
        fill: #438fb0;
      }

      .cls-4 {
        mask: url(#mask);
      }

      .curtain-R-prim-light {
        fill: #59acd0;
      }

      .curtain-R-prim-light-dark {
        fill: #3999c1;
      }

      .cls-6 {
        mask: url(#mask-2);
      }

      .cls-7 {
        fill: #df5d58;
      }
    </style>
    <clipPath id="clip-path">
      <path class="cls-2" d="M110,155.884,270,63.508,191.5479,193.729a3.2849,3.2849,0,0,1-4.2261,1.217Z"/>
    </clipPath>
    <mask id="mask" x="110" y="63.508" width="160" height="131.7722" maskUnits="userSpaceOnUse">
      <g id="_mask_1USMM6AEinIfnLCmnaxKNMGFAk5hXo7w" data-name=" mask 1USMM6AEinIfnLCmnaxKNMGFAk5hXo7w">
        <path class="cls-1" d="M110,155.884,270,63.508,191.5479,193.729a3.2849,3.2849,0,0,1-4.2261,1.217Z"/>
      </g>
    </mask>
    <mask id="mask-2" x="103.6953" y="60.9097" width="168.874" height="137.3774" maskUnits="userSpaceOnUse">
      <g id="_mask_1USMM6AEinIfnLCmnaxKNMGFAk5hXo7w-2" data-name=" mask 1USMM6AEinIfnLCmnaxKNMGFAk5hXo7w">
        <path class="cls-1" d="M110,155.884,270,63.508,191.5479,193.729a3.2849,3.2849,0,0,1-4.2261,1.217Z"/>
      </g>
    </mask>
  </defs>
  <title>Artboard 10</title>
  <g id="root">
    <path id="anchor_0_155.884_270" class="top-dark" d="M0,103.923V92.376L160,0,270,63.508V75.055L110,167.431Z"/>
    <path class="curtain-R-prim-dark-light" d="M270,63.508,110,155.884,0,92.376V300.222L110,363.73l160-92.376Z"/>
    <path class="curtain-L-prim-dark" d="M0,92.376l110,63.508V363.73L0,300.222Z"/>
    <path class="curtain-R-prim-dark" d="M110,155.884l7.5-4.33V359.4l-7.5,4.33Z"/>
    <path class="curtain-L-prim-light" d="M110,155.884l-7.5-4.33V359.4l7.5,4.33Z"/>
    <path class="curtain-R-prim-dark" d="M140,138.564l7.5-4.331V342.08l-7.5,4.33Z"/>
    <path class="curtain-L-prim-light" d="M80,138.564l-7.5-4.331V342.08l7.5,4.33Z"/>
    <path class="curtain-R-prim-dark" d="M170,121.243l7.5-4.33V324.759l-7.5,4.33Z"/>
    <path class="curtain-L-prim-light" d="M50,121.243l-7.5-4.33V324.759l7.5,4.33Z"/>
    <path class="curtain-L-prim-light" d="M20,103.923l-7.5-4.331V307.439l7.5,4.33Z"/>
    <path class="curtain-R-prim-dark" d="M200,103.923l7.5-4.331V307.439l-7.5,4.33Z"/>
    <path class="curtain-R-prim-dark" d="M230,86.602l7.5-4.33V290.118l-7.5,4.33Z"/>
    <path class="curtain-R-prim-dark" d="M260,69.282l7.5-4.331V272.798l-7.5,4.33Z"/>
    <path class="curtain-R-prim-dark" d="M125,147.224l7.5-4.33V350.74l-7.5,4.33Z"/>
    <path class="curtain-L-prim-light" d="M95,147.224l-7.5-4.33V350.74l7.5,4.33Z"/>
    <path class="curtain-R-prim-dark" d="M155,129.903l7.5-4.33V333.419l-7.5,4.33Z"/>
    <path class="curtain-L-prim-light" d="M65,129.903l-7.5-4.33V333.419l7.5,4.33Z"/>
    <path class="curtain-L-prim-light" d="M35,112.583l-7.5-4.33V316.099l7.5,4.33Z"/>
    <path class="curtain-L-prim-light" d="M5,95.262,0,92.375V300.222l5,2.886Z"/>
    <path class="curtain-R-prim-dark" d="M185,112.583l7.5-4.33V316.099l-7.5,4.33Z"/>
    <path class="curtain-R-prim-dark" d="M215,95.262l7.5-4.33V298.778l-7.5,4.33Z"/>
    <path class="curtain-R-prim-dark" d="M245,77.942l7.5-4.33V281.458l-7.5,4.33Z"/>
    <g class="cls-4">
      <path class="curtain-R-prim-light" d="M110,155.884,270,63.508,191.5479,193.729a3.2849,3.2849,0,0,1-4.2261,1.217Z"/>
    </g>
    <path class="curtain-R-prim-light" d="M110,155.884,270,63.508,191.5479,193.729a3.2849,3.2849,0,0,1-4.2261,1.217Z"/>
    <g class="cls-5">
      <path class="curtain-R-prim-light-dark" d="M110,141.226l7.5-4.33V240.819l-7.5,4.33Z"/>
      <path class="curtain-R-prim-light-dark" d="M140,123.906l7.5-4.331V223.498l-7.5,4.331Z"/>
      <path class="curtain-R-prim-light-dark" d="M170,106.585l7.5-4.33V206.178l-7.5,4.33Z"/>
      <path class="curtain-R-prim-light-dark" d="M200,89.265l7.5-4.331V188.857l-7.5,4.331Z"/>
      <path class="curtain-R-prim-light-dark" d="M230,71.944l7.5-4.33V171.537l-7.5,4.33Z"/>
      <path class="curtain-R-prim-light-dark" d="M260,54.624l7.5-4.331V154.216l-7.5,4.331Z"/>
      <path class="curtain-R-prim-light-dark" d="M125,132.566l7.5-4.33V232.159l-7.5,4.33Z"/>
      <path class="curtain-R-prim-light-dark" d="M155,115.245l7.5-4.33V214.838l-7.5,4.33Z"/>
      <path class="curtain-R-prim-light-dark" d="M185,97.925l7.5-4.33V197.518l-7.5,4.33Z"/>
      <path class="curtain-R-prim-light-dark" d="M215,80.604l7.5-4.33V180.197l-7.5,4.33Z"/>
      <path class="curtain-R-prim-light-dark" d="M245,63.284l7.5-4.33V162.877l-7.5,4.33Z"/>
    </g>
    <g class="cls-6">
      <g>
        <path class="cls-7" d="M188.7578,198.2871a6.169,6.169,0,0,1-2.7881-.6635L103.6953,156.06,268.5,60.91l4.0693,4.1465L194.1172,195.2774A6.2567,6.2567,0,0,1,188.7578,198.2871ZM116.3047,155.708l72.37,36.56a.3084.3084,0,0,0,.3037-.0874L261.43,71.92Z"/>
        <path class="cls-7" d="M188.7578,198.2871a6.169,6.169,0,0,1-2.7881-.6635L103.6953,156.06,268.5,60.91l4.0693,4.1465L194.1172,195.2774A6.2567,6.2567,0,0,1,188.7578,198.2871ZM116.3047,155.708l72.37,36.56a.3084.3084,0,0,0,.3037-.0874L261.43,71.92Z"/>
      </g>
    </g>
  </g>
</svg>
