<svg id="Layer_1" data-name="Layer 1" xmlns="http://www.w3.org/2000/svg" xmlns:xlink="http://www.w3.org/1999/xlink" viewBox="0 0 269.7365 479.2">
  <defs>
    <style>
      .cls-1 {
        fill: #fff;
      }

      .cls-2, .cls-3 {
        fill: none;
      }

      .cls-3, .cls-5 {
        clip-path: url(#clip-path);
      }

      .top-dark {
        fill: #c67471;
      }

      .curtain-R-prim-dark-light {
        fill: #4d90ad;
      }

      .curtain-L-prim-dark {
        fill: #2f5565;
      }

      .curtain-R-prim-dark {
        fill: #3e809c;
      }

      .curtain-L-prim-light {
        fill: #438fb0;
      }

      .cls-4 {
        mask: url(#mask);
      }

      .curtain-R-prim-light {
        fill: #59acd0;
      }

      .curtain-R-prim-light-dark {
        fill: #3999c1;
      }

      .cls-6 {
        mask: url(#mask-2);
      }

      .cls-7 {
        fill: #df5d58;
      }
    </style>
    <clipPath id="clip-path">
      <path class="cls-2" d="M110,155.884,270,63.508,191.5481,193.729a3.2849,3.2849,0,0,1-4.2261,1.217Z"/>
    </clipPath>
    <mask id="mask" x="110" y="63.508" width="160" height="131.7722" maskUnits="userSpaceOnUse">
      <g id="_mask_YK5Www9Wn7Cnc9KaDsOmvKdODDvZxoWQ" data-name=" mask YK5Www9Wn7Cnc9KaDsOmvKdODDvZxoWQ">
        <path class="cls-1" d="M110,155.884,270,63.508,191.5481,193.729a3.2849,3.2849,0,0,1-4.2261,1.217Z"/>
      </g>
    </mask>
    <mask id="mask-2" x="103.6953" y="60.91" width="168.8745" height="137.3774" maskUnits="userSpaceOnUse">
      <g id="_mask_YK5Www9Wn7Cnc9KaDsOmvKdODDvZxoWQ-2" data-name=" mask YK5Www9Wn7Cnc9KaDsOmvKdODDvZxoWQ">
        <path class="cls-1" d="M110,155.884,270,63.508,191.5481,193.729a3.2849,3.2849,0,0,1-4.2261,1.217Z"/>
      </g>
    </mask>
  </defs>
  <title>Artboard 5</title>
  <g id="root">
    <path id="anchor_0_155.884_270" class="top-dark" d="M0,103.923V92.376L160,0,270,63.508V75.055L110,167.431Z"/>
    <path class="curtain-R-prim-dark-light" d="M270,63.508,110,155.884,0,92.376V415.692L110,479.2l160-92.376Z"/>
    <path class="curtain-L-prim-dark" d="M0,92.376l110,63.508V479.2L0,415.692Z"/>
    <path class="curtain-R-prim-dark" d="M110,155.884l7.5-4.33V474.87L110,479.2Z"/>
    <path class="curtain-L-prim-light" d="M110,155.884l-7.5-4.33V474.87l7.5,4.33Z"/>
    <path class="curtain-R-prim-dark" d="M140,138.564l7.5-4.331V457.55l-7.5,4.33Z"/>
    <path class="curtain-L-prim-light" d="M80,138.564l-7.5-4.331V457.55l7.5,4.33Z"/>
    <path class="curtain-R-prim-dark" d="M170,121.243l7.5-4.33V440.229l-7.5,4.33Z"/>
    <path class="curtain-L-prim-light" d="M50,121.243l-7.5-4.33V440.229l7.5,4.33Z"/>
    <path class="curtain-L-prim-light" d="M20,103.923l-7.5-4.331V422.909l7.5,4.33Z"/>
    <path class="curtain-R-prim-dark" d="M200,103.923l7.5-4.331V422.909l-7.5,4.33Z"/>
    <path class="curtain-R-prim-dark" d="M230,86.602l7.5-4.33V405.588l-7.5,4.33Z"/>
    <path class="curtain-R-prim-dark" d="M260,69.282l7.5-4.331V388.268l-7.5,4.33Z"/>
    <path class="curtain-R-prim-dark" d="M125,147.224l7.5-4.33V466.21l-7.5,4.33Z"/>
    <path class="curtain-L-prim-light" d="M95,147.224l-7.5-4.33V466.21l7.5,4.33Z"/>
    <path class="curtain-R-prim-dark" d="M155,129.903l7.5-4.33V448.889l-7.5,4.33Z"/>
    <path class="curtain-L-prim-light" d="M65,129.903l-7.5-4.33V448.889l7.5,4.33Z"/>
    <path class="curtain-L-prim-light" d="M35,112.583l-7.5-4.33V431.569l7.5,4.33Z"/>
    <path class="curtain-L-prim-light" d="M5,95.262,0,92.376V415.692l5,2.886Z"/>
    <path class="curtain-R-prim-dark" d="M185,112.583l7.5-4.33V431.569l-7.5,4.33Z"/>
    <path class="curtain-R-prim-dark" d="M215,95.262l7.5-4.33V414.248l-7.5,4.33Z"/>
    <path class="curtain-R-prim-dark" d="M245,77.942l7.5-4.33V396.928l-7.5,4.33Z"/>
    <g class="cls-4">
      <path class="curtain-R-prim-light" d="M110,155.884,270,63.508,191.5481,193.729a3.2849,3.2849,0,0,1-4.2261,1.217Z"/>
    </g>
    <path class="curtain-R-prim-light" d="M110,155.884,270,63.508,191.5481,193.729a3.2849,3.2849,0,0,1-4.2261,1.217Z"/>
    <g class="cls-5">
      <path class="curtain-R-prim-light-dark" d="M110,144.696l7.5-4.33V244.289l-7.5,4.33Z"/>
      <path class="curtain-R-prim-light-dark" d="M140,127.376l7.5-4.331V226.968l-7.5,4.331Z"/>
      <path class="curtain-R-prim-light-dark" d="M170,110.055l7.5-4.33V209.648l-7.5,4.33Z"/>
      <path class="curtain-R-prim-light-dark" d="M200,92.735l7.5-4.331V192.327l-7.5,4.331Z"/>
      <path class="curtain-R-prim-light-dark" d="M230,75.414l7.5-4.33V175.007l-7.5,4.33Z"/>
      <path class="curtain-R-prim-light-dark" d="M260,58.094l7.5-4.331V157.686l-7.5,4.331Z"/>
      <path class="curtain-R-prim-light-dark" d="M125,136.036l7.5-4.33V235.629l-7.5,4.33Z"/>
      <path class="curtain-R-prim-light-dark" d="M155,118.715l7.5-4.33V218.308l-7.5,4.33Z"/>
      <path class="curtain-R-prim-light-dark" d="M185,101.395l7.5-4.33V200.988l-7.5,4.33Z"/>
      <path class="curtain-R-prim-light-dark" d="M215,84.074l7.5-4.33V183.667l-7.5,4.33Z"/>
      <path class="curtain-R-prim-light-dark" d="M245,66.754l7.5-4.33V166.347l-7.5,4.33Z"/>
    </g>
    <g class="cls-6">
      <g>
        <path class="cls-7" d="M188.7588,198.2874a6.17,6.17,0,0,1-2.7886-.6636L103.6953,156.06,268.5,60.91l4.07,4.1465L194.1177,195.2772A6.2547,6.2547,0,0,1,188.7588,198.2874Zm-72.4541-42.5791,72.37,36.56a.3086.3086,0,0,0,.3027-.0869L261.43,71.92Z"/>
        <path class="cls-7" d="M188.7588,198.2874a6.17,6.17,0,0,1-2.7886-.6636L103.6953,156.06,268.5,60.91l4.07,4.1465L194.1177,195.2772A6.2547,6.2547,0,0,1,188.7588,198.2874Zm-72.4541-42.5791,72.37,36.56a.3086.3086,0,0,0,.3027-.0869L261.43,71.92Z"/>
      </g>
    </g>
  </g>
</svg>
