<svg id="Layer_1" data-name="Layer 1" xmlns="http://www.w3.org/2000/svg" viewBox="0 0 270 156.606">
  <defs>
    <style>
      .cls-1 {
        fill: #b9b9b9;
      }

      .cls-2 {
        fill: #8b8b8b;
      }

      .cls-3 {
        fill: #2e2e2e;
      }

      .cls-4 {
        fill: #5d5d5d;
      }

      .cls-5 {
        fill: #7b7b7b;
      }

      .cls-6 {
        opacity: 0.5;
      }

      .cls-7 {
        fill: #fff;
      }

      .cls-8 {
        fill: #999;
      }

      .cls-9 {
        fill: #ee5757;
      }

      .cls-10 {
        fill: #f7f7f7;
      }

      .cls-11 {
        fill: #ececec;
      }
    </style>
  </defs>
  <title>Artboard 2</title>
  <g id="root">
    <path class="cls-1" d="M0,93.098,160,.722,270,64.23,110,156.606Z"/>
    <path class="cls-2" d="M160,6.495,260.074,64.23l-150,86.603L10,93.098Z"/>
    <path class="cls-3" d="M160,6.495V18.042l90.074,51.962L260,64.23Z"/>
    <path class="cls-4" d="M10,93.098,160,6.495V18.042L20,98.871Z"/>
    <path class="cls-5" d="M87.5,126.295l30,17.321,20-11.547L120,121.965l-7.5,4.33L100,119.078Z"/>
    <g>
      <path class="cls-3" d="M142.5,126.295l1.25.722,1.25-.722V111.861l-2.5,1.444Z"/>
      <path class="cls-3" d="M65,55.57v5.773l90,51.962v-5.774Z"/>
      <path class="cls-4" d="M245,55.57v5.773l-90,51.962v-5.774Z"/>
      <path class="cls-4" d="M240,64.23h-5V75.777l2.5,1.443,2.5-1.443Z"/>
      <g>
        <path class="cls-3" d="M70,64.23h5V75.777L72.5,77.22,70,75.777Z"/>
        <path class="cls-4" d="M75,75.777,72.5,77.22V65.673L75,67.117Z"/>
      </g>
      <g>
        <path class="cls-3" d="M125,95.984h5v12.991l-2.5.721-2.5-1.443Z"/>
        <path class="cls-4" d="M130,107.531l-2.5,1.444V97.428l2.5,1.443Z"/>
      </g>
      <g>
        <path class="cls-4" d="M185,95.984h-5v11.547l2.5,1.444,2.5-1.444Z"/>
        <path class="cls-3" d="M180,107.531l2.5,1.444V97.428L180,98.871Z"/>
      </g>
      <g>
        <path class="cls-3" d="M97.5,80.107h5V91.654L100,93.098l-2.5-1.444Z"/>
        <path class="cls-4" d="M102.5,91.654,100,93.098V81.551l2.5,1.443Z"/>
      </g>
      <g>
        <path class="cls-4" d="M212.5,80.107h-5V91.654l2.5,1.444,2.5-1.444Z"/>
        <path class="cls-3" d="M207.5,91.654l2.5,1.444V81.551l-2.5,1.443Z"/>
      </g>
      <path class="cls-3" d="M235,75.777l2.5,1.443V65.673L235,67.117Z"/>
      <g>
        <path class="cls-4" d="M157.5,123.408l-2.5,1.444-2.5-1.444v-12.99l2.5,1.443,2.5-1.443Z"/>
        <path class="cls-3" d="M152.5,110.418l2.5,1.443v12.991l-2.5-1.444Z"/>
      </g>
      <path class="cls-4" d="M143.75,127.017l1.25-.722V111.861l-1.25.722Z"/>
      <g>
        <g class="cls-6">
          <path class="cls-7" d="M170,2.165,247.5,46.91l-1.25.721L168.75,2.887Z"/>
        </g>
        <g class="cls-6">
          <path class="cls-7" d="M165,5.052l77.5,44.744-1.25.722L163.75,5.773Z"/>
        </g>
        <g class="cls-6">
          <path class="cls-7" d="M167.5,3.608,245,48.353l-1.25.722L166.25,4.33Z"/>
        </g>
        <g class="cls-6">
          <path class="cls-7" d="M162.5,6.495,240,51.24l-1.25.721L161.25,7.217Z"/>
        </g>
        <path class="cls-4" d="M250,46.91l-10,5.773v1.443l10-5.773Z"/>
        <path class="cls-1" d="M248.75,46.188l1.25.722-10,5.773-1.25-.722Z"/>
        <path class="cls-4" d="M240,41.136,230,46.91v1.443l10-5.774Z"/>
        <path class="cls-1" d="M238.75,40.414l1.25.722L230,46.91l-1.25-.722Z"/>
        <path class="cls-4" d="M230,35.363l-10,5.773v1.443l10-5.773Z"/>
        <path class="cls-1" d="M228.75,34.641l1.25.722-10,5.773-1.25-.722Z"/>
        <path class="cls-4" d="M220,29.589l-10,5.774v1.443l10-5.774Z"/>
        <path class="cls-1" d="M218.75,28.867l1.25.722-10,5.774-1.25-.722Z"/>
        <path class="cls-4" d="M210,23.816l-10,5.773v1.443l10-5.773Z"/>
        <path class="cls-1" d="M208.75,23.094l1.25.722-10,5.773-1.25-.722Z"/>
        <path class="cls-4" d="M200,18.042l-10,5.774v1.443l10-5.774Z"/>
        <path class="cls-1" d="M198.75,17.32l1.25.722-10,5.774-1.25-.722Z"/>
        <path class="cls-4" d="M190,12.269l-10,5.773v1.443l10-5.773Z"/>
        <path class="cls-1" d="M188.75,11.547l1.25.722-10,5.773-1.25-.722Z"/>
        <path class="cls-4" d="M180,6.495l-10,5.774v1.443l10-5.774Z"/>
        <path class="cls-1" d="M178.75,5.773l1.25.722-10,5.774-1.25-.722Z"/>
        <path class="cls-4" d="M170,.722,160,6.495V7.938l10-5.773Z"/>
        <path class="cls-1" d="M168.75,0,170,.722,160,6.495l-1.25-.722Z"/>
      </g>
      <g>
        <g class="cls-6">
          <path class="cls-7" d="M140,2.165,62.5,46.91l1.25.721,77.5-44.744Z"/>
        </g>
        <g class="cls-6">
          <path class="cls-7" d="M142.5.722h25l-1.25.721h-22.5Z"/>
        </g>
        <g class="cls-6">
          <path class="cls-7" d="M145,2.165h20l-1.25.722h-17.5Z"/>
        </g>
        <g class="cls-6">
          <path class="cls-7" d="M147.5,3.608H155l-1.25.722h-5Z"/>
        </g>
        <g class="cls-6">
          <path class="cls-7" d="M162.5,3.608l-1.25.722h-5L155,3.608Z"/>
        </g>
        <g class="cls-6">
          <path class="cls-7" d="M150,5.052h2.5l-1.25.721Z"/>
        </g>
        <g class="cls-6">
          <path class="cls-7" d="M160,5.052l-1.25.721-1.25-.721Z"/>
        </g>
        <g class="cls-6">
          <path class="cls-7" d="M145,5.052,67.5,49.796l1.25.722,77.5-44.745Z"/>
        </g>
        <g class="cls-6">
          <path class="cls-7" d="M142.5,3.608,65,48.353l1.25.722L143.75,4.33Z"/>
        </g>
        <g class="cls-6">
          <path class="cls-7" d="M61.25,63.508V49.075l1.25.721V62.787Z"/>
        </g>
        <g class="cls-6">
          <path class="cls-7" d="M65,61.343l-1.25.722V50.518L65,51.24Z"/>
        </g>
        <g class="cls-6">
          <path class="cls-7" d="M67.5,54.126l-1.25.722V51.961l1.25.722Z"/>
        </g>
        <g class="cls-6">
          <path class="cls-7" d="M67.5,59.9l-1.25.722V56.291l1.25.722Z"/>
        </g>
        <g class="cls-6">
          <path class="cls-7" d="M147.5,6.495,70,51.24l1.25.721,77.5-44.744Z"/>
        </g>
        <path class="cls-3" d="M60,46.91l10,5.773v1.443L60,48.353Z"/>
        <path class="cls-1" d="M61.25,46.188,60,46.91l10,5.773,1.25-.722Z"/>
        <path class="cls-3" d="M70,41.136,80,46.91v1.443L70,42.579Z"/>
        <path class="cls-1" d="M71.25,40.414,70,41.136,80,46.91l1.25-.722Z"/>
        <path class="cls-3" d="M80,35.363l10,5.773v1.443L80,36.806Z"/>
        <path class="cls-1" d="M81.25,34.641,80,35.363l10,5.773,1.25-.722Z"/>
        <path class="cls-3" d="M90,29.589l10,5.774v1.443L90,31.032Z"/>
        <path class="cls-1" d="M91.25,28.867,90,29.589l10,5.774,1.25-.722Z"/>
        <path class="cls-3" d="M100,23.816l10,5.773v1.443l-10-5.773Z"/>
        <path class="cls-1" d="M101.25,23.094l-1.25.722,10,5.773,1.25-.722Z"/>
        <path class="cls-3" d="M110,18.042l10,5.774v1.443l-10-5.774Z"/>
        <path class="cls-1" d="M111.25,17.32l-1.25.722,10,5.774,1.25-.722Z"/>
        <path class="cls-3" d="M120,12.269l10,5.773v1.443l-10-5.773Z"/>
        <path class="cls-1" d="M121.25,11.547l-1.25.722,10,5.773,1.25-.722Z"/>
        <path class="cls-3" d="M130,6.495l10,5.774v1.443L130,7.938Z"/>
        <path class="cls-1" d="M131.25,5.773,130,6.495l10,5.774,1.25-.722Z"/>
        <path class="cls-3" d="M140,.722l10,5.773V7.938L140,2.165Z"/>
        <path class="cls-1" d="M141.25,0,140,.722l10,5.773,1.25-.722Z"/>
      </g>
      <path class="cls-4" d="M132.5,120.522l1.25-.722V105.366l-1.25.722Z"/>
      <path class="cls-3" d="M131.25,119.8l1.25.722V106.088l-1.25.722Z"/>
      <path class="cls-8" d="M131.25,129.904l1.25.721,15-24.537-1.25-.722Z"/>
      <path class="cls-8" d="M120,123.408l1.25.722,15-24.537L135,98.871Z"/>
      <path class="cls-4" d="M147.5,108.975v-2.887L133.75,128.46v2.887Z"/>
      <path class="cls-4" d="M136.25,102.48V99.593L122.5,121.965v2.887Z"/>
      <path class="cls-4" d="M133.75,129.904v1.443l1.25.722,2.5-1.444v-1.443l-1.25-.722Z"/>
      <path class="cls-4" d="M138.75,122.687l1.25.721,2.5-1.443v-1.443l-1.25-.722-2.5,1.443Z"/>
      <path class="cls-4" d="M143.75,112.583v1.444l1.25.721,2.5-1.443v-1.444l-1.25-.721-1.25.721Z"/>
      <path class="cls-4" d="M136.25,125.574v1.443l1.25.722,2.5-1.444v-1.443l-1.25-.722Z"/>
      <path class="cls-4" d="M141.25,118.357l1.25.721,2.5-1.443v-1.443l-1.25-.722-2.5,1.443Z"/>
      <path class="cls-4" d="M146.25,109.696l1.25.722,2.5-1.443v-1.444l-1.25-.721-2.5,1.443Z"/>
      <path class="cls-3" d="M130,98.871l1.25-.722,16.25,9.382v2.887L130,100.314Z"/>
      <path class="cls-3" d="M127.5,103.201l1.25-.721L145,111.861v2.887l-17.5-10.103Z"/>
      <path class="cls-3" d="M125,107.531l1.25-.721,16.25,9.382v2.886L125,108.975Z"/>
      <path class="cls-3" d="M122.5,111.861l1.25-.721L140,120.522v2.886l-17.5-10.103Z"/>
      <path class="cls-3" d="M120,116.192l1.25-.722,16.25,9.382v2.887L120,117.635Z"/>
      <path class="cls-3" d="M117.5,120.522l1.25-.722L135,129.182v2.887l-17.5-10.104Z"/>
      <g>
        <g class="cls-6">
          <path class="cls-7" d="M238.75,60.622l-77.5,44.744,1.25.722L240,61.343Z"/>
        </g>
        <g class="cls-6">
          <path class="cls-7" d="M243.75,63.508l-77.5,44.745,1.25.722L245,64.23Z"/>
        </g>
        <g class="cls-6">
          <path class="cls-7" d="M241.25,62.065l-77.5,44.745,1.25.721,77.5-44.744Z"/>
        </g>
        <g class="cls-6">
          <path class="cls-7" d="M246.25,64.952l-77.5,44.744,1.25.722,77.5-44.745Z"/>
        </g>
        <g>
          <g>
            <path class="cls-3" d="M158.75,105.366l10,5.774v1.443l-10-5.773Z"/>
            <path class="cls-4" d="M170,110.418v1.443l-1.25.722V111.14Z"/>
            <path class="cls-1" d="M160,104.645l-1.25.721,10,5.774,1.25-.722Z"/>
          </g>
          <g>
            <path class="cls-3" d="M168.75,99.593l10,5.773v1.444l-10-5.774Z"/>
            <path class="cls-4" d="M180,104.645v1.443l-1.25.722v-1.444Z"/>
            <path class="cls-1" d="M170,98.871l-1.25.722,10,5.773,1.25-.721Z"/>
          </g>
          <g>
            <path class="cls-3" d="M178.75,93.819l10,5.774v1.443l-10-5.773Z"/>
            <path class="cls-4" d="M190,98.871v1.443l-1.25.722V99.593Z"/>
            <path class="cls-1" d="M180,93.098l-1.25.721,10,5.774,1.25-.722Z"/>
          </g>
          <g>
            <path class="cls-3" d="M188.75,88.046l10,5.773v1.444l-10-5.774Z"/>
            <path class="cls-4" d="M200,93.098v1.443l-1.25.722V93.819Z"/>
            <path class="cls-1" d="M190,87.324l-1.25.722,10,5.773,1.25-.721Z"/>
          </g>
          <g>
            <path class="cls-3" d="M198.75,82.272l10,5.774v1.443l-10-5.773Z"/>
            <path class="cls-4" d="M210,87.324v1.443l-1.25.722V88.046Z"/>
            <path class="cls-1" d="M200,81.551l-1.25.721,10,5.774,1.25-.722Z"/>
          </g>
          <g>
            <path class="cls-3" d="M208.75,76.499l10,5.773v1.444l-10-5.774Z"/>
            <path class="cls-4" d="M220,81.551v1.443l-1.25.722V82.272Z"/>
            <path class="cls-1" d="M210,75.777l-1.25.722,10,5.773,1.25-.721Z"/>
          </g>
          <g>
            <path class="cls-3" d="M218.75,70.725l10,5.774v1.443l-10-5.773Z"/>
            <path class="cls-4" d="M230,75.777V77.22l-1.25.722V76.499Z"/>
            <path class="cls-1" d="M220,70.004l-1.25.721,10,5.774,1.25-.722Z"/>
          </g>
          <g>
            <path class="cls-3" d="M228.75,64.952l10,5.773v1.444l-10-5.774Z"/>
            <path class="cls-4" d="M240,70.004v1.443l-1.25.722V70.725Z"/>
            <path class="cls-1" d="M230,64.23l-1.25.722,10,5.773,1.25-.721Z"/>
          </g>
          <g>
            <path class="cls-3" d="M238.75,59.178l10,5.774v1.443l-10-5.773Z"/>
            <path class="cls-4" d="M250,64.23v1.443l-1.25.722V64.952Z"/>
            <path class="cls-1" d="M240,58.457l-1.25.721,10,5.774L250,64.23Z"/>
          </g>
        </g>
      </g>
      <path class="cls-7" d="M155,3.608,65,55.57l90,51.961L245,55.57Z"/>
      <path class="cls-9" d="M75,55.57,155,9.382,235,55.57l-80,46.188Z"/>
      <path class="cls-7" d="M155,12.269,80,55.57l75,43.301L230,55.57Z"/>
      <path class="cls-10" d="M130,41.136h0c13.798-7.966,36.202-7.966,50,0h0c13.798,7.966,13.798,20.901,0,28.868h0c-13.798,7.966-36.202,7.966-50,0h0C116.202,62.037,116.202,49.102,130,41.136Z"/>
      <g>
        <path class="cls-9" d="M130,52.683l5-2.887,30,17.321-5,2.887Z"/>
        <path class="cls-9" d="M145,44.023l5-2.887,30,17.321-5,2.886Z"/>
        <path class="cls-9" d="M145,58.457l15-8.661,5,2.887-15,8.66Z"/>
      </g>
      <path class="cls-11" d="M212.5,54.126,215,55.57l-10,5.773L202.5,59.9Z"/>
      <path class="cls-11" d="M105,49.796l2.5,1.444-10,5.773L95,55.57Z"/>
      <g>
        <g class="cls-6">
          <path class="cls-7" d="M248.75,63.508V49.075l-1.25.721V62.787Z"/>
        </g>
        <g class="cls-6">
          <path class="cls-7" d="M245,61.343l1.25.722V50.518L245,51.24Z"/>
        </g>
        <g class="cls-6">
          <path class="cls-7" d="M242.5,54.126l1.25.722V51.961l-1.25.722Z"/>
        </g>
        <g class="cls-6">
          <path class="cls-7" d="M242.5,59.9l1.25.722V56.291l-1.25.722Z"/>
        </g>
      </g>
      <path class="cls-11" d="M150,107.531l-2.5,1.444L130,98.871l2.5-1.443Z"/>
      <path class="cls-11" d="M145,116.192l-2.5,1.443L125,107.531l2.5-1.443Z"/>
      <path class="cls-11" d="M140,124.852l-2.5,1.443L120,116.192l2.5-1.444Z"/>
      <path class="cls-11" d="M147.5,111.861l-2.5,1.444-17.5-10.104,2.5-1.443Z"/>
      <path class="cls-11" d="M142.5,120.522l-2.5,1.443-17.5-10.104,2.5-1.443Z"/>
      <path class="cls-11" d="M137.5,129.182l-2.5,1.443-17.5-10.103,2.5-1.444Z"/>
    </g>
    <path class="cls-1" d="M70,67.117l42.5,24.537-30,17.321L40,84.437Z"/>
    <path class="cls-3" d="M82.5,129.182,40,104.645V84.437l42.5,24.538Z"/>
    <path class="cls-4" d="M82.5,108.975v20.207l30-17.321V91.654Z"/>
    <path class="cls-2" d="M45,84.437l37.5,21.651,25-14.434L70,70.004Z"/>
    <path class="cls-4" d="M70,70.004V72.89L47.5,85.881,45,84.437Z"/>
    <path class="cls-3" d="M107.5,91.654,105,93.098,70,72.89V70.004Z"/>
    <path class="cls-3" d="M97.5,120.522,95,119.078v-12.99l2.5-1.443Z"/>
    <path class="cls-5" d="M90,121.965l5-2.887,5,2.887-7.5,4.33L90,124.852Z"/>
    <path d="M95,119.078l-5,2.887v-12.99l5-2.887Z"/>
    <g>
      <g class="cls-6">
        <path class="cls-7" d="M71.25,60.622l60,34.641-1.25.721L70,61.343Z"/>
      </g>
      <g class="cls-6">
        <path class="cls-7" d="M66.25,63.508l60,34.641-1.25.722L65,64.23Z"/>
      </g>
      <g class="cls-6">
        <path class="cls-7" d="M68.75,62.065l60,34.641-1.25.722-60-34.641Z"/>
      </g>
      <g class="cls-6">
        <path class="cls-7" d="M63.75,64.952l60,34.641-1.25.721-60-34.641Z"/>
      </g>
      <g>
        <g>
          <path class="cls-4" d="M131.25,93.819l-10,5.774v1.443l10-5.773Z"/>
          <path class="cls-3" d="M120,98.871v1.443l1.25.722V99.593Z"/>
          <path class="cls-1" d="M130,93.098l1.25.721-10,5.774L120,98.871Z"/>
        </g>
        <g>
          <path class="cls-4" d="M121.25,88.046l-10,5.773v1.444l10-5.774Z"/>
          <path class="cls-3" d="M110,93.098v1.443l1.25.722V93.819Z"/>
          <path class="cls-1" d="M120,87.324l1.25.722-10,5.773L110,93.098Z"/>
        </g>
        <g>
          <path class="cls-4" d="M111.25,82.272l-10,5.774v1.443l10-5.773Z"/>
          <path class="cls-3" d="M100,87.324v1.443l1.25.722V88.046Z"/>
          <path class="cls-1" d="M110,81.551l1.25.721-10,5.774L100,87.324Z"/>
        </g>
        <g>
          <path class="cls-4" d="M101.25,76.499l-10,5.773v1.444l10-5.774Z"/>
          <path class="cls-3" d="M90,81.551v1.443l1.25.722V82.272Z"/>
          <path class="cls-1" d="M100,75.777l1.25.722-10,5.773L90,81.551Z"/>
        </g>
        <g>
          <path class="cls-4" d="M91.25,70.725l-10,5.774v1.443l10-5.773Z"/>
          <path class="cls-3" d="M80,75.777V77.22l1.25.722V76.499Z"/>
          <path class="cls-1" d="M90,70.004l1.25.721-10,5.774L80,75.777Z"/>
        </g>
        <g>
          <path class="cls-4" d="M81.25,64.952l-10,5.773v1.444l10-5.774Z"/>
          <path class="cls-3" d="M70,70.004v1.443l1.25.722V70.725Z"/>
          <path class="cls-1" d="M80,64.23l1.25.722-10,5.773L70,70.004Z"/>
        </g>
        <g>
          <path class="cls-4" d="M71.25,59.178l-10,5.774v1.443l10-5.773Z"/>
          <path class="cls-3" d="M60,64.23v1.443l1.25.722V64.952Z"/>
          <path class="cls-1" d="M70,58.457l1.25.721-10,5.774L60,64.23Z"/>
        </g>
      </g>
    </g>
  </g>
</svg>
