<svg id="Layer_1" data-name="Layer 1" xmlns="http://www.w3.org/2000/svg" viewBox="0 0 220 340.636">
  <defs>
    <style>
      .top-prim {
        fill: #dd8a87;
      }

      .window-L-prim {
        fill: #4d3b24;
      }

      .window-R-prim {
        fill: #bd9664;
      }

      .exterior-R-dark {
        fill: #a64c49;
      }

      .exterior-L-prim {
        fill: #73302e;
      }

      .exterior-R-prim {
        fill: #d05752;
      }

      .exterior-L-dark {
        fill: #512220;
      }
    </style>
  </defs>
  <title>Artboard 17</title>
  <g id="root">
    <path id="anchor_0_127.017_220" class="top-prim" d="M0,75.055V63.508L110,0,220,63.508V75.055L110,138.564Z"/>
    <path id="Path" class="window-L-prim" d="M0,69.282,110,132.79V334.863L5,274.241v5.774l-5-2.887Z"/>
    <path id="Path-2" data-name="Path" class="window-R-prim" d="M220,69.282,110,132.79V334.863l100-57.735,5,2.887,5-2.887Z"/>
    <path id="Path-3" data-name="Path" class="exterior-R-dark" d="M112.5,140.007v8.661l100-57.736v-8.66Z"/>
    <path id="Path-4" data-name="Path" class="exterior-R-dark" d="M112.5,157.328v8.66l100-57.735v-8.66Z"/>
    <path id="Path-5" data-name="Path" class="exterior-R-dark" d="M112.5,174.648v8.661l100-57.735v-8.661Z"/>
    <path id="Path-6" data-name="Path" class="exterior-R-dark" d="M112.5,191.969v8.66l100-57.735v-8.66Z"/>
    <path id="Path-7" data-name="Path" class="exterior-R-dark" d="M112.5,209.289v8.661l100-57.735v-8.661Z"/>
    <path id="Path-8" data-name="Path" class="exterior-R-dark" d="M112.5,226.61v8.66l100-57.735v-8.66Z"/>
    <path id="Path-9" data-name="Path" class="exterior-R-dark" d="M112.5,243.93v8.661l100-57.735v-8.661Z"/>
    <path id="Path-10" data-name="Path" class="exterior-R-dark" d="M112.5,261.251v8.66l100-57.735v-8.66Z"/>
    <path id="Path-11" data-name="Path" class="top-prim" d="M217.5,278.571l-5-2.886L115,331.976v5.774Z"/>
    <path id="Path-12" data-name="Path" class="exterior-R-dark" d="M112.5,278.571v8.661l100-57.735v-8.661Z"/>
    <path id="Path-13" data-name="Path" class="exterior-R-dark" d="M112.5,295.892v8.66l100-57.735v-8.66Z"/>
    <path id="Path-14" data-name="Path" class="exterior-R-dark" d="M112.5,313.212v8.661l100-57.735v-8.661Z"/>
    <path id="Path-15" data-name="Path" class="exterior-R-dark" d="M112.5,330.533v2.887l100-57.735v-2.887Z"/>
    <path id="Path-16" data-name="Path" class="exterior-L-prim" d="M215,69.282l-5,2.887V277.128l5,2.887Z"/>
    <path id="Path-17" data-name="Path" class="exterior-R-prim" d="M5,66.395l5,2.887V277.128l-5,2.887Z"/>
    <path id="Path-18" data-name="Path" class="top-prim" d="M7.5,275.685l-5,2.886L105,337.75v-5.774Z"/>
    <path id="Path-19" data-name="Path" class="exterior-R-prim" d="M207.5,278.571V70.725l5-2.887V278.571l-2.5,1.444Z"/>
    <path id="Path-20" data-name="Path" class="exterior-L-prim" d="M210,280.015l-2.5-1.444V73.612l2.5-1.443Z"/>
    <path id="Path-21" data-name="Path" class="exterior-R-prim" d="M212.5,88.046l-100,57.735v2.887l100-57.736Z"/>
    <path id="Path-22" data-name="Path" class="exterior-R-dark" d="M117.5,137.12l-2.5,1.444v5.773l5-2.886-2.5-1.444Z"/>
    <path id="Path-23" data-name="Path" class="top-prim" d="M115,144.337v-2.886l92.5-53.405,2.5,1.443Z"/>
    <path id="Path-24" data-name="Path" class="exterior-R-prim" d="M212.5,122.687l-100,57.735v2.887l100-57.735Z"/>
    <path id="Path-25" data-name="Path" class="exterior-R-dark" d="M117.5,171.762l-2.5,1.443v5.773l5-2.886-2.5-1.444Z"/>
    <path id="Path-26" data-name="Path" class="top-prim" d="M115,178.978v-2.886l92.5-53.405,2.5,1.443Z"/>
    <path id="Path-27" data-name="Path" class="exterior-R-prim" d="M212.5,157.328l-100,57.735v2.887l100-57.735Z"/>
    <path id="Path-28" data-name="Path" class="exterior-R-dark" d="M117.5,206.403l-2.5,1.443v5.773l5-2.886-2.5-1.444Z"/>
    <path id="Path-29" data-name="Path" class="top-prim" d="M115,213.619v-2.886l92.5-53.405,2.5,1.443Z"/>
    <path id="Path-30" data-name="Path" class="exterior-R-prim" d="M212.5,191.969l-100,57.735v2.887l100-57.735Z"/>
    <path id="Path-31" data-name="Path" class="exterior-R-dark" d="M117.5,241.044l-2.5,1.443v5.773l5-2.886-2.5-1.444Z"/>
    <path id="Path-32" data-name="Path" class="top-prim" d="M115,248.26v-2.886l92.5-53.405,2.5,1.443Z"/>
    <path id="Path-33" data-name="Path" class="exterior-R-prim" d="M212.5,226.61l-100,57.735v2.887l100-57.735Z"/>
    <path id="Path-34" data-name="Path" class="exterior-R-dark" d="M117.5,275.685l-2.5,1.443v5.773l5-2.886-2.5-1.444Z"/>
    <path id="Path-35" data-name="Path" class="top-prim" d="M115,282.901v-2.886l92.5-53.405,2.5,1.443Z"/>
    <path id="Path-36" data-name="Path" class="exterior-R-prim" d="M212.5,261.251l-100,57.735v2.887l100-57.735Z"/>
    <path id="Path-37" data-name="Path" class="exterior-R-dark" d="M117.5,310.326l-2.5,1.443v5.773l5-2.886-2.5-1.444Z"/>
    <path id="Path-38" data-name="Path" class="top-prim" d="M115,317.542v-2.886l92.5-53.405,2.5,1.443Z"/>
    <path id="Path-39" data-name="Path" class="exterior-R-dark" d="M117.5,327.646l-2.5,1.443v2.887l2.5-1.443Z"/>
    <path id="Path-40" data-name="Path" class="exterior-R-prim" d="M212.5,105.366l-100,57.735v2.887l100-57.735Z"/>
    <path id="Path-41" data-name="Path" class="exterior-R-dark" d="M117.5,154.441l-2.5,1.443v5.774l5-2.887-2.5-1.443Z"/>
    <path id="Path-42" data-name="Path" class="top-prim" d="M115,161.658v-2.887l92.5-53.405,2.5,1.444Z"/>
    <path id="Path-43" data-name="Path" class="exterior-R-prim" d="M212.5,140.007l-100,57.735v2.887l100-57.735Z"/>
    <path id="Path-44" data-name="Path" class="exterior-R-dark" d="M117.5,189.082l-2.5,1.443v5.774l5-2.887-2.5-1.443Z"/>
    <path id="Path-45" data-name="Path" class="top-prim" d="M115,196.299v-2.887l92.5-53.405,2.5,1.444Z"/>
    <path id="Path-46" data-name="Path" class="exterior-R-prim" d="M212.5,174.648l-100,57.735v2.887l100-57.735Z"/>
    <path id="Path-47" data-name="Path" class="exterior-R-dark" d="M117.5,223.723l-2.5,1.443v5.774l5-2.887-2.5-1.443Z"/>
    <path id="Path-48" data-name="Path" class="top-prim" d="M115,230.94v-2.887l92.5-53.405,2.5,1.444Z"/>
    <path id="Path-49" data-name="Path" class="exterior-L-dark" d="M107.5,140.007v8.661L7.5,90.932v-8.66Z"/>
    <path id="Path-50" data-name="Path" class="exterior-L-dark" d="M107.5,157.328v8.66L7.5,108.253v-8.66Z"/>
    <path id="Path-51" data-name="Path" class="exterior-L-dark" d="M107.5,174.648v8.661L7.5,125.574v-8.661Z"/>
    <path id="Path-52" data-name="Path" class="exterior-L-dark" d="M107.5,209.289v8.661L7.5,160.215v-8.661Z"/>
    <path id="Path-53" data-name="Path" class="exterior-L-dark" d="M107.5,226.61v8.66L7.5,177.535v-8.66Z"/>
    <path id="Path-54" data-name="Path" class="exterior-L-dark" d="M107.5,243.93v8.661L7.5,194.856v-8.661Z"/>
    <path id="Path-55" data-name="Path" class="exterior-L-dark" d="M107.5,261.251v8.66L7.5,212.176v-8.66Z"/>
    <path id="Path-56" data-name="Path" class="exterior-L-dark" d="M107.5,278.571v8.661L7.5,229.497v-8.661Z"/>
    <path id="Path-57" data-name="Path" class="exterior-L-dark" d="M107.5,295.892v8.66L7.5,246.817v-8.66Z"/>
    <path id="Path-58" data-name="Path" class="exterior-L-dark" d="M107.5,313.212v8.661L7.5,264.138v-8.661Z"/>
    <path id="Path-59" data-name="Path" class="exterior-L-dark" d="M107.5,330.533v2.887L7.5,275.685v-2.887Z"/>
    <path id="Path-60" data-name="Path" class="exterior-L-dark" d="M107.5,191.969v8.66L7.5,142.894v-8.66Z"/>
    <path id="Path-61" data-name="Path" class="exterior-R-prim" d="M212.5,209.289l-100,57.735v2.887l100-57.735Z"/>
    <path id="Path-62" data-name="Path" class="exterior-R-dark" d="M117.5,258.364l-2.5,1.443v5.774l5-2.887-2.5-1.443Z"/>
    <path id="Path-63" data-name="Path" class="top-prim" d="M115,265.581v-2.887l92.5-53.405,2.5,1.444Z"/>
    <path id="Path-64" data-name="Path" class="exterior-R-prim" d="M212.5,243.93l-100,57.735v2.887l100-57.735Z"/>
    <path id="Path-65" data-name="Path" class="exterior-R-dark" d="M117.5,293.005l-2.5,1.443v5.774l5-2.887-2.5-1.443Z"/>
    <path id="Path-66" data-name="Path" class="top-prim" d="M115,300.222v-2.887l92.5-53.405,2.5,1.444Z"/>
    <path id="Path-67" data-name="Path" class="exterior-R-prim" d="M5,66.395l5,2.887V277.128l-5,2.887Z"/>
    <path id="Path-68" data-name="Path" class="exterior-L-prim" d="M10,69.282,7.5,67.838V278.571l2.5,1.444Z"/>
    <path id="Path-69" data-name="Path" class="exterior-R-prim" d="M10,280.015l2.5-1.444V70.725L10,69.282Z"/>
    <path id="Path-70" data-name="Path" class="exterior-L-prim" d="M7.5,88.046l100,57.735v2.887L7.5,90.932Z"/>
    <path id="Path-71" data-name="Path" class="top-prim" d="M105,141.451v2.886L10,89.489l2.5-1.443Z"/>
    <path id="Path-72" data-name="Path" class="exterior-L-prim" d="M7.5,122.687l100,57.735v2.887L7.5,125.573Z"/>
    <path id="Path-73" data-name="Path" class="top-prim" d="M105,178.978v-2.886L12.5,122.687,10,124.13Z"/>
    <path id="Path-74" data-name="Path" class="exterior-L-prim" d="M7.5,157.328l100,57.735v2.887L7.5,160.215Z"/>
    <path id="Path-75" data-name="Path" class="top-prim" d="M105,213.619v-2.886L12.5,157.328,10,158.771Z"/>
    <path id="Path-76" data-name="Path" class="exterior-L-prim" d="M7.5,191.969l100,57.735v2.887L7.5,194.856Z"/>
    <path id="Path-77" data-name="Path" class="top-prim" d="M105,248.26v-2.886L12.5,191.969,10,193.412Z"/>
    <path id="Path-78" data-name="Path" class="exterior-L-prim" d="M7.5,226.61l100,57.735v2.887L7.5,229.497Z"/>
    <path id="Path-79" data-name="Path" class="top-prim" d="M105,282.901v-2.886L12.5,226.61,10,228.053Z"/>
    <path id="Path-80" data-name="Path" class="exterior-L-prim" d="M7.5,261.251l100,57.735v2.887L7.5,264.138Z"/>
    <path id="Path-81" data-name="Path" class="top-prim" d="M105,317.542v-2.886L12.5,261.251,10,262.694Z"/>
    <path id="Path-82" data-name="Path" class="exterior-L-dark" d="M102.5,327.646l2.5,1.443v2.887l-2.5-1.443Z"/>
    <path id="Path-83" data-name="Path" class="exterior-L-prim" d="M7.5,105.366l100,57.735v2.887L7.5,108.253Z"/>
    <path id="Path-84" data-name="Path" class="top-prim" d="M105,161.658v-2.887L12.5,105.366,10,106.81Z"/>
    <path id="Path-85" data-name="Path" class="exterior-L-prim" d="M7.5,140.007l100,57.735v2.887L7.5,142.894Z"/>
    <path id="Path-86" data-name="Path" class="top-prim" d="M105,193.412v2.887L10,141.451l2.5-1.444Z"/>
    <path id="Path-87" data-name="Path" class="exterior-L-prim" d="M7.5,174.648l100,57.735v2.887L7.5,177.535Z"/>
    <path id="Path-88" data-name="Path" class="top-prim" d="M105,230.94v-2.887L12.5,174.648,10,176.092Z"/>
    <path id="Path-89" data-name="Path" class="exterior-L-prim" d="M7.5,209.289l100,57.735v2.887L7.5,212.176Z"/>
    <path id="Path-90" data-name="Path" class="top-prim" d="M105,265.581v-2.887L12.5,209.289,10,210.733Z"/>
    <path id="Path-91" data-name="Path" class="exterior-L-prim" d="M7.5,243.93,105,300.222v2.887L7.5,246.817Z"/>
    <path id="Path-92" data-name="Path" class="top-prim" d="M105,300.222v-2.887L12.5,243.93,10,245.374Z"/>
    <path id="Path-93" data-name="Path" class="exterior-L-prim" d="M110,132.79v-5.773L0,63.508v5.774Z"/>
    <path id="Path-94" data-name="Path" class="exterior-R-prim" d="M110,132.79v-5.773L220,63.508v5.774Z"/>
    <path id="Path-95" data-name="Path" class="exterior-L-prim" d="M110,127.017l-5-2.887V337.75l5,2.886Z"/>
    <path id="Path-96" data-name="Path" class="exterior-R-prim" d="M110,127.017l5-2.887V337.75l-5,2.886Z"/>
    <path id="Path-97" data-name="Path" class="exterior-L-prim" d="M5,66.395,0,63.508v213.62l5,2.887Z"/>
    <path id="Path-98" data-name="Path" class="exterior-R-prim" d="M215,66.395l5-2.887v213.62l-5,2.887Z"/>
  </g>
</svg>
