<svg id="Layer_1" data-name="Layer 1" xmlns="http://www.w3.org/2000/svg" viewBox="0 0 170 467.65">
    <defs>
        <style>
            .curtain-R-prim-light{fill:#2d95ac;}.curtain-L-prim-dark{fill:#11424d;}.curtain-L-prim-light{fill:#186273;}.top-light{fill:#e8e8e8;}.top-prim{fill:#b9b9b9;}.exterior-R-prim{fill:#5d5d5d;}.exterior-L-prim{fill:#2e2e2e;}.curtain-R-prim-dark{fill:#1f788c;}
        </style>
    </defs>
    <title>2Artboard 1</title>
    <polygon class="curtain-R-prim-light" points="95 375.28 170 331.98 170 320.43 95 363.73 95 375.28"/>
    <polygon class="curtain-R-prim-light" points="95 398.37 170 355.07 170 343.52 95 386.83 95 398.37"/>
    <polygon class="curtain-R-prim-light" points="95 352.18 170 308.88 170 297.34 95 340.64 95 352.18"/>
    <polygon class="curtain-R-prim-light" points="95 282.9 170 239.6 170 228.05 95 271.36 95 282.9"/>
    <polygon class="curtain-R-prim-light" points="95 306 170 262.7 170 251.15 95 294.45 95 306"/>
    <polygon class="curtain-R-prim-light" points="95 467.65 170 424.35 170 412.81 95 456.11 95 467.65"/>
    <polygon class="curtain-R-prim-light" points="95 421.47 170 378.17 170 366.62 95 409.92 95 421.47"/>
    <polygon class="curtain-R-prim-light" points="95 444.56 170 401.26 170 389.71 95 433.01 95 444.56"/>
    <polygon class="curtain-R-prim-light" points="95 329.09 170 285.79 170 274.24 95 317.54 95 329.09"/>
    <polygon class="curtain-R-prim-light" points="95 167.43 170 124.13 170 112.58 95 155.89 95 167.43"/>
    <polygon class="curtain-R-prim-light" points="95 190.53 170 147.23 170 135.68 95 178.98 95 190.53"/>
    <polygon class="curtain-R-prim-light" points="95 144.34 170 101.04 170 89.49 95 132.79 95 144.34"/>
    <polygon class="curtain-R-prim-light" points="95 213.62 170 170.32 170 158.77 95 202.07 95 213.62"/>
    <polygon class="curtain-R-prim-light" points="95 236.71 170 193.41 170 181.87 95 225.17 95 236.71"/>
    <polygon class="curtain-R-prim-light" points="95 121.24 170 77.94 170 66.4 95 109.7 95 121.24"/>
    <polygon class="curtain-R-prim-light" points="95 259.81 170 216.51 170 204.96 95 248.26 95 259.81"/>
    <polygon class="curtain-L-prim-dark" points="75 213.62 0 170.32 0 181.87 75 225.17 75 213.62"/>
    <polygon class="curtain-L-prim-dark" points="75 421.47 0 378.17 0 389.71 75 433.01 75 421.47"/>
    <polygon class="curtain-L-prim-dark" points="75 444.56 0 401.26 0 412.81 75 456.11 75 444.56"/>
    <polygon class="curtain-L-prim-dark" points="75 98.15 0 54.85 0 66.4 75 109.7 75 98.15"/>
    <polygon class="curtain-L-prim-dark" points="75 259.81 0 216.51 0 228.05 75 271.36 75 259.81"/>
    <polygon class="curtain-L-prim-dark" points="75 282.9 0 239.6 0 251.15 75 294.45 75 282.9"/>
    <polygon class="curtain-L-prim-dark" points="75 144.34 0 101.04 0 112.58 75 155.89 75 144.34"/>
    <polygon class="curtain-L-prim-dark" points="75 121.24 0 77.94 0 89.49 75 132.79 75 121.24"/>
    <polygon class="curtain-L-prim-dark" points="75 167.43 0 124.13 0 135.68 75 178.98 75 167.43"/>
    <polygon class="curtain-L-prim-dark" points="75 190.53 0 147.23 0 158.77 75 202.07 75 190.53"/>
    <polygon class="curtain-L-prim-dark" points="75 236.71 0 193.41 0 204.96 75 248.26 75 236.71"/>
    <polygon class="curtain-L-prim-dark" points="75 352.18 0 308.88 0 320.43 75 363.73 75 352.18"/>
    <polygon class="curtain-L-prim-dark" points="75 398.37 0 355.07 0 366.62 75 409.92 75 398.37"/>
    <polygon class="curtain-L-prim-dark" points="75 329.09 0 285.79 0 297.34 75 340.64 75 329.09"/>
    <polygon class="curtain-L-prim-dark" points="75 375.28 0 331.98 0 343.52 75 386.83 75 375.28"/>
    <polygon class="curtain-L-prim-dark" points="75 306 0 262.7 0 274.24 75 317.54 75 306"/>
    <polygon class="curtain-L-prim-light" points="85 369.51 95 375.28 95 363.73 85 357.96 85 369.51"/>
    <polygon class="curtain-L-prim-light" points="85 184.75 95 190.53 95 178.98 85 173.21 85 184.75"/>
    <polygon class="curtain-L-prim-light" points="85 161.66 95 167.43 95 155.89 85 150.11 85 161.66"/>
    <polygon class="curtain-L-prim-light" points="85 450.33 85 461.88 95 467.65 95 456.11 85 450.33"/>
    <polygon class="curtain-L-prim-light" points="85 115.47 95 121.24 95 109.7 85 103.92 85 115.47"/>
    <polygon class="curtain-L-prim-light" points="85 207.85 95 213.62 95 202.07 85 196.3 85 207.85"/>
    <polygon class="curtain-L-prim-light" points="85 138.57 95 144.34 95 132.79 85 127.02 85 138.57"/>
    <polygon class="curtain-L-prim-light" points="85 438.79 95 444.56 95 433.01 85 427.24 85 438.79"/>
    <polygon class="curtain-L-prim-light" points="85 415.69 95 421.47 95 409.92 85 404.15 85 415.69"/>
    <polygon class="curtain-L-prim-light" points="85 300.22 95 306 95 294.45 85 288.68 85 300.22"/>
    <polygon class="curtain-L-prim-light" points="85 346.41 95 352.18 95 340.64 85 334.86 85 346.41"/>
    <polygon class="curtain-L-prim-light" points="85 230.94 95 236.71 95 225.17 85 219.39 85 230.94"/>
    <polygon class="curtain-L-prim-light" points="85 254.04 95 259.81 95 248.26 85 242.49 85 254.04"/>
    <polygon class="curtain-L-prim-light" points="85 392.6 95 398.37 95 386.83 85 381.05 85 392.6"/>
    <polygon class="curtain-L-prim-light" points="85 323.32 95 329.09 95 317.54 85 311.77 85 323.32"/>
    <polygon class="curtain-L-prim-light" points="85 277.13 95 282.9 95 271.36 85 265.58 85 277.13"/>
    <polygon class="curtain-R-prim-light" points="85 357.96 75 363.73 75 375.28 85 369.51 85 357.96"/>
    <polygon class="curtain-R-prim-light" points="85 173.21 75 178.98 75 190.53 85 184.75 85 173.21"/>
    <polygon class="curtain-R-prim-light" points="85 427.24 75 433.01 75 444.56 85 438.79 85 427.24"/>
    <polygon class="curtain-R-prim-light" points="85 381.05 75 386.83 75 398.37 85 392.6 85 381.05"/>
    <polygon class="curtain-R-prim-light" points="85 311.77 75 317.54 75 329.09 85 323.32 85 311.77"/>
    <polygon class="curtain-R-prim-light" points="85 404.15 75 409.92 75 421.47 85 415.69 85 404.15"/>
    <polygon class="curtain-R-prim-light" points="85 334.86 75 340.64 75 352.18 85 346.41 85 334.86"/>
    <polygon class="curtain-R-prim-light" points="85 288.68 75 294.45 75 306 85 300.22 85 288.68"/>
    <polygon class="curtain-R-prim-light" points="85 219.39 75 225.17 75 236.71 85 230.94 85 219.39"/>
    <polygon class="curtain-R-prim-light" points="85 196.3 75 202.07 75 213.62 85 207.85 85 196.3"/>
    <polygon class="curtain-R-prim-light" points="85 150.11 75 155.89 75 167.43 85 161.66 85 150.11"/>
    <polygon class="curtain-R-prim-light" points="85 242.49 75 248.26 75 259.81 85 254.04 85 242.49"/>
    <polygon class="curtain-R-prim-light" points="75 456.11 75 467.65 85 461.88 85 450.33 75 456.11"/>
    <polygon class="curtain-R-prim-light" points="85 265.58 75 271.36 75 282.9 85 277.13 85 265.58"/>
    <polygon class="curtain-R-prim-light" points="85 103.92 75 109.7 75 121.24 85 115.47 85 103.92"/>
    <polygon class="curtain-R-prim-light" points="85 127.02 75 132.79 75 144.34 85 138.57 85 127.02"/>
    <path class="top-light"
          d="M170,43.3,95,0,85,5.77,75,0,0,43.3l10,5.78L0,54.85l75,43.3,10-5.77,10,5.77,75-43.3-10-5.77ZM155,57.74h0L95,92.38,85,86.6,75,92.38,15,57.74h0l-5-2.89,10-5.77-5-2.89L10,43.3,75,5.77l10,5.78L95,5.77,160,43.3l-5,2.89-5,2.89,10,5.77Z"/>
    <polygon class="top-prim"
             points="150 49.08 155 46.19 95 11.55 85 17.32 145 51.96 85 86.6 95 92.38 155 57.74 150 54.85 150 49.08"/>
    <polygon class="top-prim"
             points="85 17.32 75 11.55 15 46.19 20 49.08 20 54.85 15 57.74 75 92.38 85 86.6 25 51.96 85 17.32"/>
    <polygon class="exterior-R-prim" points="20 49.08 10 54.85 15 57.74 15 57.74 20 54.85 20 49.08"/>
    <polygon class="exterior-L-prim" points="150 54.85 155 57.74 155 57.74 160 54.85 150 49.08 150 54.85"/>
    <polygon class="exterior-R-prim" points="75 5.77 10 43.3 15 46.19 75 11.55 75 5.77"/>
    <polygon class="exterior-L-prim" points="155 46.19 160 43.3 95 5.77 95 11.55 155 46.19"/>
    <polygon class="exterior-L-prim" points="85 17.32 85 11.55 75 5.77 75 11.55 85 17.32"/>
    <polygon class="exterior-R-prim" points="95 11.55 95 5.77 85 11.55 85 17.32 95 11.55"/>
    <polygon class="curtain-R-prim-dark" points="160 49.08 170 54.85 170 43.3 160 49.08"/>
    <polygon class="curtain-L-prim-dark" points="0 43.3 0 54.85 10 49.08 0 43.3"/>
    <polygon class="curtain-L-prim-light" points="75 109.7 0 66.4 0 77.94 75 121.24 75 109.7"/>
    <polygon class="curtain-L-prim-light" points="75 132.79 0 89.49 0 101.04 75 144.34 75 132.79"/>
    <polygon class="curtain-L-prim-light" points="75 155.89 0 112.58 0 124.13 75 167.43 75 155.89"/>
    <polygon class="curtain-L-prim-light" points="75 178.98 0 135.68 0 147.23 75 190.53 75 178.98"/>
    <polygon class="curtain-L-prim-light" points="75 248.26 0 204.96 0 216.51 75 259.81 75 248.26"/>
    <polygon class="curtain-L-prim-light" points="75 317.54 0 274.24 0 285.79 75 329.09 75 317.54"/>
    <polygon class="curtain-L-prim-light" points="75 386.83 0 343.52 0 355.07 75 398.37 75 386.83"/>
    <polygon class="curtain-L-prim-light" points="0 412.81 0 424.35 75 467.65 75 456.11 0 412.81"/>
    <polygon class="curtain-L-prim-light" points="75 225.17 0 181.87 0 193.41 75 236.71 75 225.17"/>
    <polygon class="curtain-L-prim-light" points="75 294.45 0 251.15 0 262.7 75 306 75 294.45"/>
    <polygon class="curtain-L-prim-light" points="75 363.73 0 320.43 0 331.98 75 375.28 75 363.73"/>
    <polygon class="curtain-L-prim-light" points="75 433.01 0 389.71 0 401.26 75 444.56 75 433.01"/>
    <polygon class="curtain-L-prim-light" points="75 202.07 0 158.77 0 170.32 75 213.62 75 202.07"/>
    <polygon class="curtain-L-prim-light" points="75 271.36 0 228.05 0 239.6 75 282.9 75 271.36"/>
    <polygon class="curtain-L-prim-light" points="75 340.64 0 297.34 0 308.88 75 352.18 75 340.64"/>
    <polygon class="curtain-L-prim-light" points="75 409.92 0 366.62 0 378.17 75 421.47 75 409.92"/>
    <polygon class="curtain-R-prim-dark" points="95 109.7 170 66.4 170 54.85 95 98.15 95 109.7"/>
    <polygon class="curtain-R-prim-dark" points="95 132.79 170 89.49 170 77.94 95 121.24 95 132.79"/>
    <polygon class="curtain-R-prim-dark" points="95 155.89 170 112.58 170 101.04 95 144.34 95 155.89"/>
    <polygon class="curtain-R-prim-dark" points="95 178.98 170 135.68 170 124.13 95 167.43 95 178.98"/>
    <polygon class="curtain-R-prim-dark" points="95 248.26 170 204.96 170 193.41 95 236.71 95 248.26"/>
    <polygon class="curtain-R-prim-dark" points="95 317.54 170 274.24 170 262.7 95 306 95 317.54"/>
    <polygon class="curtain-R-prim-dark" points="95 386.83 170 343.52 170 331.98 95 375.28 95 386.83"/>
    <polygon class="curtain-R-prim-dark" points="95 456.11 170 412.81 170 401.26 95 444.56 95 456.11"/>
    <polygon class="curtain-R-prim-dark" points="95 225.17 170 181.87 170 170.32 95 213.62 95 225.17"/>
    <polygon class="curtain-R-prim-dark" points="95 294.45 170 251.15 170 239.6 95 282.9 95 294.45"/>
    <polygon class="curtain-R-prim-dark" points="95 363.73 170 320.43 170 308.88 95 352.18 95 363.73"/>
    <polygon class="curtain-R-prim-dark" points="95 433.01 170 389.71 170 378.17 95 421.47 95 433.01"/>
    <polygon class="curtain-R-prim-dark" points="95 202.07 170 158.77 170 147.23 95 190.53 95 202.07"/>
    <polygon class="curtain-R-prim-dark" points="95 271.36 170 228.05 170 216.51 95 259.81 95 271.36"/>
    <polygon class="curtain-R-prim-dark" points="95 340.64 170 297.34 170 285.79 95 329.09 95 340.64"/>
    <polygon class="curtain-R-prim-dark" points="95 409.92 170 366.62 170 355.07 95 398.37 95 409.92"/>
    <polygon class="curtain-R-prim-dark" points="85 103.92 85 92.38 75 98.15 75 109.7 85 103.92"/>
    <polygon class="curtain-R-prim-dark" points="85 115.47 75 121.24 75 132.79 85 127.02 85 115.47"/>
    <polygon class="curtain-R-prim-dark" points="85 138.57 75 144.34 75 155.89 85 150.11 85 138.57"/>
    <polygon class="curtain-R-prim-dark" points="85 161.66 75 167.43 75 178.98 85 173.21 85 161.66"/>
    <polygon class="curtain-R-prim-dark" points="85 230.94 75 236.71 75 248.26 85 242.49 85 230.94"/>
    <polygon class="curtain-R-prim-dark" points="85 300.22 75 306 75 317.54 85 311.77 85 300.22"/>
    <polygon class="curtain-R-prim-dark" points="85 369.51 75 375.28 75 386.83 85 381.05 85 369.51"/>
    <polygon class="curtain-R-prim-dark" points="75 444.56 75 456.11 85 450.33 85 438.79 75 444.56"/>
    <polygon class="curtain-R-prim-dark" points="85 207.85 75 213.62 75 225.17 85 219.39 85 207.85"/>
    <polygon class="curtain-R-prim-dark" points="85 277.13 75 282.9 75 294.45 85 288.68 85 277.13"/>
    <polygon class="curtain-R-prim-dark" points="85 346.41 75 352.18 75 363.73 85 357.96 85 346.41"/>
    <polygon class="curtain-R-prim-dark" points="85 415.69 75 421.47 75 433.01 85 427.24 85 415.69"/>
    <polygon class="curtain-R-prim-dark" points="85 184.75 75 190.53 75 202.07 85 196.3 85 184.75"/>
    <polygon class="curtain-R-prim-dark" points="85 254.04 75 259.81 75 271.36 85 265.58 85 254.04"/>
    <polygon class="curtain-R-prim-dark" points="85 323.32 75 329.09 75 340.64 85 334.86 85 323.32"/>
    <polygon class="curtain-R-prim-dark" points="85 392.6 75 398.37 75 409.92 85 404.15 85 392.6"/>
    <polygon class="curtain-L-prim-dark" points="95 109.7 95 98.15 85 92.38 85 103.92 95 109.7"/>
    <polygon class="curtain-L-prim-dark" points="85 127.02 95 132.79 95 121.24 85 115.47 85 127.02"/>
    <polygon class="curtain-L-prim-dark" points="85 150.11 95 155.89 95 144.34 85 138.57 85 150.11"/>
    <polygon class="curtain-L-prim-dark" points="85 173.21 95 178.98 95 167.43 85 161.66 85 173.21"/>
    <polygon class="curtain-L-prim-dark" points="85 242.49 95 248.26 95 236.71 85 230.94 85 242.49"/>
    <polygon class="curtain-L-prim-dark" points="85 311.77 95 317.54 95 306 85 300.22 85 311.77"/>
    <polygon class="curtain-L-prim-dark" points="85 381.05 95 386.83 95 375.28 85 369.51 85 381.05"/>
    <polygon class="curtain-L-prim-dark" points="85 450.33 95 456.11 95 444.56 85 438.79 85 450.33"/>
    <polygon class="curtain-L-prim-dark" points="85 219.39 95 225.17 95 213.62 85 207.85 85 219.39"/>
    <polygon class="curtain-L-prim-dark" points="85 288.68 95 294.45 95 282.9 85 277.13 85 288.68"/>
    <polygon class="curtain-L-prim-dark" points="85 357.96 95 363.73 95 352.18 85 346.41 85 357.96"/>
    <polygon class="curtain-L-prim-dark" points="85 427.24 95 433.01 95 421.47 85 415.69 85 427.24"/>
    <polygon class="curtain-L-prim-dark" points="85 196.3 95 202.07 95 190.53 85 184.75 85 196.3"/>
    <polygon class="curtain-L-prim-dark" points="85 265.58 95 271.36 95 259.81 85 254.04 85 265.58"/>
    <polygon class="curtain-L-prim-dark" points="85 334.86 95 340.64 95 329.09 85 323.32 85 334.86"/>
    <polygon class="curtain-L-prim-dark" points="85 404.15 95 409.92 95 398.37 85 392.6 85 404.15"/>
    <polygon id="anchor-01_381.05" class="top-light" points="85 17.32 25 51.96 85 86.6 145 51.96 85 17.32"/>
</svg>