<svg id="Layer_1" data-name="Layer 1" xmlns="http://www.w3.org/2000/svg" viewBox="0 0 260 248.6541">
  <defs>
    <style>
      .top-dark {
        fill: #c67471;
      }

      .exterior-L-prim {
        fill: #73302e;
      }

      .exterior-R-prim {
        fill: #d05752;
      }

      .window-L-prim {
        fill: #4d3b24;
      }

      .exterior-L-dark {
        fill: #512220;
      }

      .window-R-prim {
        fill: #bd9664;
      }

      .exterior-R-dark {
        fill: #a64c49;
      }

      .top-prim {
        fill: #dd8a87;
      }
    </style>
  </defs>
  <title>Artboard 23</title>
  <g id="root">
    <path id="anchor_0_150.111_260.152" class="top-dark" d="M0,98.15V92.376L160,0,260,57.735v5.774L100,155.885Z"/>
    <path class="exterior-L-prim" d="M0,92.769v98.15l100,57.7351,9.8479-5.7731L110,144.731l-10,5.773Z"/>
    <path class="exterior-R-prim" d="M100,150.504,260,58.1281v98.15L100,248.6541Z"/>
    <path class="window-L-prim" d="M3.5979,99.265l10,5.773v18.764l-10-5.774Z"/>
    <path class="window-L-prim" d="M3.5979,122.359l10,5.773v18.7641l-10-5.7731Z"/>
    <path class="window-L-prim" d="M3.5979,145.453l10,5.773V169.99l-10-5.7731Z"/>
    <path class="exterior-L-dark" d="M3.5979,168.611l10,5.774v18.764l-10-5.774Z"/>
    <path class="window-L-prim" d="M31.0979,115.142l10,5.773v18.764l-10-5.773Z"/>
    <path class="exterior-L-dark" d="M31.0979,138.236l10,5.773v18.764l-10-5.773Z"/>
    <path class="window-L-prim" d="M31.0979,161.33l10,5.773v18.764l-10-5.7729Z"/>
    <path class="window-L-prim" d="M31.0979,184.488l10,5.774v18.764l-10-5.774Z"/>
    <path class="window-L-prim" d="M58.5979,131.019l10,5.7731V155.556l-10-5.773Z"/>
    <path class="exterior-L-dark" d="M58.5979,154.113l10,5.773V178.65l-10-5.773Z"/>
    <path class="window-L-prim" d="M58.5979,177.207l10,5.773v18.764l-10-5.773Z"/>
    <path class="window-L-prim" d="M58.5979,200.366l10,5.773v18.7641l-10-5.7741Z"/>
    <path class="window-L-prim" d="M86.0979,146.8961l10,5.7739v18.763l-10-5.773Z"/>
    <path class="window-L-prim" d="M86.0979,169.99l10,5.7739v18.763l-10-5.773Z"/>
    <path class="window-L-prim" d="M86.0979,193.084l10,5.774v18.763l-10-5.773Z"/>
    <path class="exterior-L-dark" d="M86.0979,216.243l10,5.773V240.78l-10-5.7729Z"/>
    <path class="window-L-prim" d="M17.3479,107.203l10,5.7741V131.741l-10-5.774Z"/>
    <path class="window-L-prim" d="M17.3479,130.2971l10,5.7739v18.764l-10-5.774Z"/>
    <path class="exterior-L-dark" d="M17.3479,153.3911l10,5.7739v18.764l-10-5.774Z"/>
    <path class="window-L-prim" d="M17.3479,176.55l10,5.7731V201.087l-10-5.773Z"/>
    <path class="exterior-L-dark" d="M44.8479,123.08l10,5.774v18.764l-10-5.7739Z"/>
    <path class="window-L-prim" d="M44.8479,146.174l10,5.7741V170.712l-10-5.774Z"/>
    <path class="window-L-prim" d="M44.8479,169.268l10,5.7741V193.806l-10-5.774Z"/>
    <path class="window-L-prim" d="M44.8479,192.427l10,5.773v18.764l-10-5.773Z"/>
    <path class="window-L-prim" d="M72.3479,138.957l10,5.774v18.7641l-10-5.7741Z"/>
    <path class="window-L-prim" d="M72.3479,162.051l10,5.774v18.7641l-10-5.7741Z"/>
    <path class="exterior-L-dark" d="M72.3479,185.145l10,5.774v18.764l-10-5.7739Z"/>
    <path class="window-L-prim" d="M72.3479,208.3041l10,5.7739v18.7631l-10-5.7731Z"/>
    <path class="window-R-prim" d="M141.0979,130.954l-10,5.774v18.764l10-5.774Z"/>
    <path class="exterior-R-dark" d="M141.0979,154.048l-10,5.774v18.7641l10-5.7741Z"/>
    <path class="window-R-prim" d="M141.0979,177.142l-10,5.774V201.68l10-5.7741Z"/>
    <path class="window-R-prim" d="M141.0979,200.301l-10,5.773v18.764l10-5.7729Z"/>
    <path class="window-R-prim" d="M113.5979,146.8311l-10,5.7739v18.764l10-5.774Z"/>
    <path class="window-R-prim" d="M113.5979,169.925l-10,5.774v18.764l10-5.774Z"/>
    <path class="window-R-prim" d="M113.5979,193.019l-10,5.774v18.764l10-5.7739Z"/>
    <path class="exterior-R-dark" d="M113.5979,216.178l-10,5.774v18.7631l10-5.7731Z"/>
    <path class="exterior-R-dark" d="M154.8479,123.0161l-10,5.7729v18.764l10-5.773Z"/>
    <path class="window-R-prim" d="M154.8479,146.11l-10,5.7731V170.647l10-5.773Z"/>
    <path class="window-R-prim" d="M154.8479,169.204l-10,5.7731V193.741l10-5.773Z"/>
    <path class="window-R-prim" d="M154.8479,192.3621l-10,5.7739V216.9l10-5.774Z"/>
    <path class="window-R-prim" d="M127.3479,138.893l-10,5.773V163.43l10-5.7731Z"/>
    <path class="window-R-prim" d="M127.3479,161.9871l-10,5.7729v18.764l10-5.773Z"/>
    <path class="exterior-R-dark" d="M127.3479,185.0811l-10,5.7729v18.764l10-5.773Z"/>
    <path class="window-R-prim" d="M127.3479,208.239l-10,5.7741V232.777l10-5.7739Z"/>
    <path class="window-R-prim" d="M256.0979,64.624l-10,5.773V89.161l10-5.774Z"/>
    <path class="window-R-prim" d="M256.0979,87.718l-10,5.773v18.764l10-5.774Z"/>
    <path class="window-R-prim" d="M256.0979,110.812l-10,5.773v18.7641l10-5.7731Z"/>
    <path class="exterior-R-dark" d="M256.0979,133.97l-10,5.774v18.7641l10-5.7741Z"/>
    <path class="window-R-prim" d="M228.5979,80.501l-10,5.773v18.764l10-5.773Z"/>
    <path class="exterior-R-dark" d="M228.5979,103.595l-10,5.773v18.764l10-5.773Z"/>
    <path class="window-R-prim" d="M228.5979,126.689l-10,5.773v18.764l10-5.773Z"/>
    <path class="window-R-prim" d="M228.5979,149.847l-10,5.774v18.764l10-5.774Z"/>
    <path class="window-R-prim" d="M242.3479,72.562l-10,5.7741V97.1l10-5.774Z"/>
    <path class="window-R-prim" d="M242.3479,95.656l-10,5.7741V120.194l10-5.774Z"/>
    <path class="exterior-R-dark" d="M242.3479,118.75l-10,5.774v18.764l10-5.774Z"/>
    <path class="window-R-prim" d="M242.3479,141.9091l-10,5.7729v18.764l10-5.773Z"/>
    <path class="exterior-R-dark" d="M214.8479,88.439l-10,5.774v18.7641l10-5.7741Z"/>
    <path class="window-R-prim" d="M214.8479,111.533l-10,5.774v18.764l10-5.7739Z"/>
    <path class="window-R-prim" d="M214.8479,134.627l-10,5.774v18.764l10-5.7739Z"/>
    <path class="window-R-prim" d="M214.8479,157.786l-10,5.773v18.7641l10-5.7731Z"/>
    <path class="exterior-L-prim" d="M200,92.769l-12.5,7.217-1.25,91.6551,13.5979-.7221Z"/>
    <path class="exterior-R-dark" d="M187.5,192.3621,160,208.239V115.863l14.6311-8.447L187.5,99.986Z"/>
    <path class="window-R-prim" d="M182.3479,123.08l-17.5,10.104v18.7641l17.5-10.104Z"/>
    <path class="window-R-prim" d="M182.3479,169.268l-17.5,10.104v18.764l17.5-10.104Z"/>
    <path class="window-R-prim" d="M182.3479,146.174l-17.5,10.104v18.7641l17.5-10.1041Z"/>
    <path class="window-R-prim" d="M182.5,102.873,165,112.9771l-.1521,15.8769,17.5-10.104Z"/>
    <path class="window-L-prim" d="M196.0979,122.359h-5v18.764h5Z"/>
    <path class="window-L-prim" d="M196.0979,168.5471h-5l.1521,20.2069h5Z"/>
    <path class="window-L-prim" d="M196.0979,99.265h-5v18.7641h5Z"/>
    <path class="window-L-prim" d="M196.0979,145.453h-5v18.764h5Z"/>
    <path class="top-prim" d="M160,206.796l-.1521,7.2171,40-23.0941H187.5Z"/>
  </g>
</svg>
