<svg id="Layer_1" data-name="Layer 1" xmlns="http://www.w3.org/2000/svg" viewBox="0 0 260.1519 415.692">
  <defs>
    <style>
      .top-dark {
        fill: #c67471;
      }

      .exterior-L-prim {
        fill: #73302e;
      }

      .exterior-R-prim {
        fill: #d05752;
      }

      .exterior-R-dark {
        fill: #a64c49;
      }

      .window-R-prim {
        fill: #bd9664;
      }

      .window-L-prim {
        fill: #4d3b24;
      }

      .top-prim {
        fill: #dd8a87;
      }
    </style>
  </defs>
  <title>Artboard 8</title>
  <g id="root">
    <path id="anchor_0_150.111_260.152" class="top-dark" d="M.1519,98.149,0,92.376,160.1519,0l100,57.735v5.773l-160,92.376Z"/>
    <path class="exterior-L-prim" d="M.0759,92.376V357.957l100,57.735,5-2.887V147.224l-5,2.887Z"/>
    <path class="exterior-R-prim" d="M100.0759,150.111l160-92.376V323.316l-160,92.376Z"/>
    <path class="exterior-L-prim" d="M200.0759,92.376l-12.6521,7.217.1521,258.364h12.5Z"/>
    <path class="exterior-R-dark" d="M187.4238,357.957l-27.5,15.877.1521-258.364,27.5-15.877Z"/>
    <path class="window-R-prim" d="M182.5,108.253,165,118.357v20.207l17.5-10.104Z"/>
    <path class="window-R-prim" d="M182.5,134.234,165,144.337v20.208l17.5-10.104Z"/>
    <path class="window-R-prim" d="M182.5,160.215,165,170.318v20.207l17.5-10.103Z"/>
    <path class="window-R-prim" d="M182.5,212.176,165,222.28v20.207l17.5-10.104Z"/>
    <path class="window-R-prim" d="M182.5,264.138,165,274.241v20.208l17.5-10.104Z"/>
    <path class="window-R-prim" d="M182.5,316.099,165,326.203V346.41l17.5-10.104Z"/>
    <path class="window-R-prim" d="M182.5,186.195,165,196.299v20.207l17.5-10.103Z"/>
    <path class="window-R-prim" d="M182.5,238.157,165,248.261v20.207l17.5-10.104Z"/>
    <path class="window-R-prim" d="M182.5,290.118,165,300.222v20.207l17.5-10.103Z"/>
    <path class="window-R-prim" d="M182.5,342.08,165,352.184v20.207l17.5-10.104Z"/>
    <path class="window-L-prim" d="M196.3259,127.739h-5v20.207h5Z"/>
    <path class="window-L-prim" d="M196.3259,179.7h-5v20.207h5Z"/>
    <path class="window-L-prim" d="M196.3259,231.662h-5v20.207h5Z"/>
    <path class="window-L-prim" d="M196.3259,283.623h-5V303.83h5Z"/>
    <path class="window-L-prim" d="M196.3259,309.604h-5v20.207h5Z"/>
    <path class="window-L-prim" d="M196.3259,101.758h-5v20.207h5Z"/>
    <path class="window-L-prim" d="M196.3259,153.719h-5v20.208h5Z"/>
    <path class="window-L-prim" d="M196.3259,205.681h-5v20.207h5Z"/>
    <path class="window-L-prim" d="M196.3259,257.642h-5V277.85h5Z"/>
    <path class="window-L-prim" d="M196.3259,309.604h-5v20.207h5Z"/>
    <path class="window-L-prim" d="M196.3259,335.585h-5v20.207h5Z"/>
    <path class="top-prim" d="M160.0759,373.834l-.1521,7.217,40-23.094H187.5759Z"/>
    <path class="window-R-prim" d="M255.1519,118.357l-50,28.867v20.207l50-28.867Z"/>
    <path class="window-R-prim" d="M255.1519,196.102l-50,28.868v20.207l50-28.867Z"/>
    <path class="window-R-prim" d="M255.1519,274.241l-50,28.868v20.207l50-28.867Z"/>
    <path class="window-R-prim" d="M255.0759,92.376l-50,28.867v20.208l50-28.868Z"/>
    <path class="window-R-prim" d="M255.0759,170.318l-50,28.868v20.207l50-28.867Z"/>
    <path class="window-R-prim" d="M255.0759,248.064l-50,28.867v20.208l50-28.868Z"/>
    <path class="window-R-prim" d="M155,202.073,105,230.94v20.207l50-28.867Z"/>
    <path class="window-R-prim" d="M155,305.996l-50,28.867V355.07l50-28.867Z"/>
    <path class="window-R-prim" d="M155.0759,150.111l-50,28.868v20.207l50-28.868Z"/>
    <path class="window-R-prim" d="M155.0759,254.034l-50,28.868v20.207l50-28.868Z"/>
    <path class="window-R-prim" d="M155.0759,357.957l-50,28.868v20.207l50-28.868Z"/>
    <path class="window-R-prim" d="M255.1519,66.395l-50,28.868V115.47l50-28.868Z"/>
    <path class="window-R-prim" d="M255.1519,144.337l-50,28.868v20.207l50-28.867Z"/>
    <path class="window-R-prim" d="M255.1519,222.083l-50,28.868v20.207l50-28.868Z"/>
    <path class="window-R-prim" d="M255.1519,300.222l-50,28.868v20.207l50-28.868Z"/>
    <path class="window-R-prim" d="M155,124.13l-50,28.868v20.207l50-28.868Z"/>
    <path class="window-R-prim" d="M155,228.053l-50,28.868v20.207l50-28.867Z"/>
    <path class="window-R-prim" d="M155,331.976l-50,28.868v20.207l50-28.867Z"/>
    <path class="window-R-prim" d="M155.0759,176.092l-50,28.867v20.208l50-28.868Z"/>
    <path class="window-R-prim" d="M155.0759,280.015l-50,28.867V329.09l50-28.868Z"/>
    <path class="window-L-prim" d="M5.0759,127.017l90,51.962v20.207l-90-51.962Z"/>
    <path class="window-L-prim" d="M5.0759,230.94l90,51.962v20.207l-90-51.962Z"/>
    <path class="window-L-prim" d="M5.0759,178.978l90,51.962v20.207l-90-51.961Z"/>
    <path class="window-L-prim" d="M5.0759,282.902l90,51.961V355.07l-90-51.961Z"/>
    <path class="window-L-prim" d="M5.0759,152.998l90,51.961v20.208l-90-51.962Z"/>
    <path class="window-L-prim" d="M5.0759,256.921l90,51.961V329.09l-90-51.962Z"/>
    <path class="window-L-prim" d="M5.0759,101.036l90,51.962v20.207l-90-51.962Z"/>
    <path class="window-L-prim" d="M5.0759,204.959l90,51.962v20.207l-90-51.961Z"/>
    <path class="window-L-prim" d="M5.0759,308.882l90,51.962v20.207l-90-51.961Z"/>
    <path class="window-L-prim" d="M5.0759,334.863l90,51.962v20.207l-90-51.962Z"/>
  </g>
</svg>
