<svg id="Layer_1" data-name="Layer 1" xmlns="http://www.w3.org/2000/svg" viewBox="0 0 260.152 519.615">
  <defs>
    <style>
      .top-dark {
        fill: #c67471;
      }

      .exterior-L-prim {
        fill: #73302e;
      }

      .exterior-R-prim {
        fill: #d05752;
      }

      .exterior-R-dark {
        fill: #a64c49;
      }

      .window-R-prim {
        fill: #bd9664;
      }

      .window-L-prim {
        fill: #4d3b24;
      }

      .top-prim {
        fill: #dd8a87;
      }
    </style>
  </defs>
  <title>Artboard 4</title>
  <g id="root">
    <path id="anchor_0_150.111_260.152" class="top-dark" d="M.152,98.149,0,92.376,160.152,0l100,57.735v5.773l-160,92.376Z"/>
    <path class="exterior-L-prim" d="M.152,92.376V461.88l100,57.735,5-2.887V147.224l-5,2.887Z"/>
    <path class="exterior-R-prim" d="M100.152,150.111l160-92.376V427.239l-160,92.376Z"/>
    <path class="exterior-L-prim" d="M200.152,92.376,187.5,99.593l.152,362.287h12.5Z"/>
    <path class="exterior-R-dark" d="M187.5,461.88,160,477.757l.152-362.287,27.5-15.877Z"/>
    <path class="window-R-prim" d="M182.5759,108.253l-17.5,10.104v20.207l17.5-10.104Z"/>
    <path class="window-R-prim" d="M182.5759,160.215l-17.5,10.103v20.207l17.5-10.103Z"/>
    <path class="window-R-prim" d="M182.5759,134.234l-17.5,10.103v20.208l17.5-10.104Z"/>
    <path class="window-R-prim" d="M182.5759,186.195l-17.5,10.104v20.207l17.5-10.103Z"/>
    <path class="window-R-prim" d="M182.5759,212.176l-17.5,10.104v20.207l17.5-10.104Z"/>
    <path class="window-R-prim" d="M182.5759,238.157l-17.5,10.103v20.208l17.5-10.104Z"/>
    <path class="window-R-prim" d="M182.5759,264.138l-17.5,10.103v20.207l17.5-10.103Z"/>
    <path class="window-R-prim" d="M182.5759,316.099l-17.5,10.104V346.41l17.5-10.104Z"/>
    <path class="window-R-prim" d="M182.5759,368.061l-17.5,10.103v20.208l17.5-10.104Z"/>
    <path class="window-R-prim" d="M182.5759,420.022l-17.5,10.104v20.207l17.5-10.104Z"/>
    <path class="window-R-prim" d="M182.5759,290.118l-17.5,10.104v20.207l17.5-10.103Z"/>
    <path class="window-R-prim" d="M182.5759,342.08l-17.5,10.104v20.207l17.5-10.104Z"/>
    <path class="window-R-prim" d="M182.5759,394.041l-17.5,10.104v20.207l17.5-10.103Z"/>
    <path class="window-R-prim" d="M182.5759,446.003l-17.5,10.104v20.207l17.5-10.104Z"/>
    <path class="window-L-prim" d="M196.402,101.758h-5v20.207h5Z"/>
    <path class="window-L-prim" d="M196.402,127.739h-5v20.207h5Z"/>
    <path class="window-L-prim" d="M196.402,179.7h-5v20.207h5Z"/>
    <path class="window-L-prim" d="M196.402,231.662h-5v20.207h5Z"/>
    <path class="window-L-prim" d="M196.402,283.623h-5V303.83h5Z"/>
    <path class="window-L-prim" d="M196.402,335.585h-5v20.207h5Z"/>
    <path class="window-L-prim" d="M196.402,387.546h-5v20.207h5Z"/>
    <path class="window-L-prim" d="M196.402,413.527h-5v20.207h5Z"/>
    <path class="window-L-prim" d="M196.402,153.719h-5v20.208h5Z"/>
    <path class="window-L-prim" d="M196.402,205.681h-5v20.207h5Z"/>
    <path class="window-L-prim" d="M196.402,257.642h-5V277.85h5Z"/>
    <path class="window-L-prim" d="M196.402,309.604h-5v20.207h5Z"/>
    <path class="window-L-prim" d="M196.402,361.565h-5v20.208h5Z"/>
    <path class="window-L-prim" d="M196.402,413.527h-5v20.207h5Z"/>
    <path class="window-L-prim" d="M196.402,439.508h-5v20.207h5Z"/>
    <path class="top-prim" d="M160.152,477.757,160,484.974l40-23.094H187.652Z"/>
    <path class="window-R-prim" d="M255.228,66.395l-50,28.868V115.47l50-28.868Z"/>
    <path class="window-R-prim" d="M255.228,144.337l-50,28.868v20.207l50-28.867Z"/>
    <path class="window-R-prim" d="M255.228,222.28l-50,28.867v20.207l50-28.867Z"/>
    <path class="window-R-prim" d="M255.228,300.025l-50,28.868V349.1l50-28.867Z"/>
    <path class="window-R-prim" d="M255.228,378.164l-50,28.868v20.207l50-28.867Z"/>
    <path class="window-R-prim" d="M255.152,118.357l-50,28.867v20.207l50-28.867Z"/>
    <path class="window-R-prim" d="M255.152,196.299l-50,28.867v20.208l50-28.868Z"/>
    <path class="window-R-prim" d="M255.152,274.241l-50,28.868v20.207l50-28.867Z"/>
    <path class="window-R-prim" d="M255.152,351.987l-50,28.867v20.208l50-28.868Z"/>
    <path class="window-R-prim" d="M155.0759,202.072l-50,28.868v20.207l50-28.867Z"/>
    <path class="window-R-prim" d="M155.0759,305.996l-50,28.867V355.07l50-28.867Z"/>
    <path class="window-R-prim" d="M155.0759,409.919l-50,28.867v20.207l50-28.867Z"/>
    <path class="window-R-prim" d="M155.152,150.111l-50,28.867v20.208l50-28.868Z"/>
    <path class="window-R-prim" d="M155.152,254.034l-50,28.868v20.207l50-28.868Z"/>
    <path class="window-R-prim" d="M155.152,357.957l-50,28.868v20.207l50-28.868Z"/>
    <path class="window-R-prim" d="M155.152,461.88l-50,28.868v20.207l50-28.868Z"/>
    <path class="window-R-prim" d="M255.228,92.376l-50,28.867v20.208l50-28.868Z"/>
    <path class="window-R-prim" d="M255.228,170.318l-50,28.868v20.207l50-28.868Z"/>
    <path class="window-R-prim" d="M255.228,248.26l-50,28.868v20.207l50-28.867Z"/>
    <path class="window-R-prim" d="M255.228,326.006l-50,28.868v20.207l50-28.868Z"/>
    <path class="window-R-prim" d="M255.228,404.145l-50,28.868V453.22l50-28.868Z"/>
    <path class="window-R-prim" d="M155.0759,124.13l-50,28.868v20.207l50-28.868Z"/>
    <path class="window-R-prim" d="M155.0759,228.053l-50,28.868v20.207l50-28.868Z"/>
    <path class="window-R-prim" d="M155.0759,331.976l-50,28.868v20.207l50-28.867Z"/>
    <path class="window-R-prim" d="M155.0759,435.899l-50,28.868v20.207l50-28.867Z"/>
    <path class="window-R-prim" d="M155.152,176.092l-50,28.867v20.207l50-28.867Z"/>
    <path class="window-R-prim" d="M155.152,280.015l-50,28.867V329.09l50-28.868Z"/>
    <path class="window-R-prim" d="M155.152,383.938l-50,28.867v20.208l50-28.868Z"/>
    <path class="window-L-prim" d="M5.152,127.017l90,51.961v20.208l-90-51.962Z"/>
    <path class="window-L-prim" d="M5.152,230.94l90,51.962v20.207l-90-51.962Z"/>
    <path class="window-L-prim" d="M5.152,334.863l90,51.962v20.207l-90-51.962Z"/>
    <path class="window-L-prim" d="M5.152,178.978l90,51.962v20.207l-90-51.961Z"/>
    <path class="window-L-prim" d="M5.152,282.901l90,51.962V355.07l-90-51.961Z"/>
    <path class="window-L-prim" d="M5.152,386.825l90,51.961v20.207l-90-51.961Z"/>
    <path class="window-L-prim" d="M5.152,152.998l90,51.961v20.207l-90-51.961Z"/>
    <path class="window-L-prim" d="M5.152,256.921l90,51.961V329.09l-90-51.962Z"/>
    <path class="window-L-prim" d="M5.152,360.844l90,51.961v20.208l-90-51.962Z"/>
    <path class="window-L-prim" d="M5.152,101.036l90,51.962v20.207l-90-51.962Z"/>
    <path class="window-L-prim" d="M5.152,204.959l90,51.962v20.207l-90-51.962Z"/>
    <path class="window-L-prim" d="M5.152,308.882l90,51.962v20.207l-90-51.961Z"/>
    <path class="window-L-prim" d="M5.152,412.805l90,51.962v20.207l-90-51.961Z"/>
    <path class="window-L-prim" d="M5.152,438.786l90,51.962v20.207l-90-51.962Z"/>
  </g>
</svg>
