<svg id="Layer_1" data-name="Layer 1" xmlns="http://www.w3.org/2000/svg" xmlns:xlink="http://www.w3.org/1999/xlink"
     viewBox="0 0 472.5 298.78">
    <defs>
        <style>
            .cls-1{fill:#e9e8e8;}.cls-2{fill:#f4f4f4;}.window-R-prim{fill:#202020;}.window-L-prim{fill:#010101;}.exterior-R-prim{fill:#5e5e5e;}.exterior-L-prim{fill:#2e2e2e;}.cls-3{fill:#dbc8b9;stroke-width:0.5px;}.cls-3,.cls-4{stroke:#a6998e;stroke-linecap:square;stroke-miterlimit:3;}.cls-4{fill:none;stroke-width:0.25px;}.cls-5{fill:#d2d2d2;}.cls-6{fill:#a2a2a1;}.cls-7{fill:#1e1d1c;}.cls-8{fill:url(#linear-gradient);}.cls-9{fill:url(#linear-gradient-2);}.cls-10{fill:url(#linear-gradient-3);}.cls-11{fill:url(#linear-gradient-4);}.cls-12{fill:url(#linear-gradient-5);}.cls-13{fill:url(#linear-gradient-6);}.cls-14{fill:url(#linear-gradient-7);}.cls-15{fill:url(#linear-gradient-8);}.cls-16{fill:url(#linear-gradient-9);}.cls-17{fill:url(#linear-gradient-10);}.cls-18{fill:url(#linear-gradient-11);}.cls-19{fill:url(#linear-gradient-12);}.cls-20{fill:url(#linear-gradient-13);}.cls-21{fill:url(#linear-gradient-14);}.cls-22{fill:url(#linear-gradient-15);}.cls-23{fill:url(#linear-gradient-16);}.cls-24{fill:#464ca0;}.cls-25{fill:#6f7070;}.cls-26{fill:#3c85c6;}.cls-27{fill:#169b64;}.cls-28{fill:#f05353;}.top-prim{fill:#bababa;}
        </style>
        <linearGradient id="linear-gradient" x1="-356.32" y1="1653.04" x2="-355.34" y2="1653.27"
                        gradientTransform="matrix(3.33, 0, 0, -8.66, 1503.45, 14507.81)" gradientUnits="userSpaceOnUse">
            <stop offset="0" stop-color="#332819"/>
            <stop offset="1" stop-color="#603e19"/>
        </linearGradient>
        <linearGradient id="linear-gradient-2" x1="-392.47" y1="1568.52" x2="-391.54" y2="1568.89"
                        gradientTransform="matrix(20, 0, 0, -26.94, 8157.75, 42440.79)" gradientUnits="userSpaceOnUse">
            <stop offset="0" stop-color="#02574b"/>
            <stop offset="1" stop-color="#149d66"/>
        </linearGradient>
        <linearGradient id="linear-gradient-3" x1="-356.32" y1="1653.04" x2="-355.34" y2="1653.27"
                        gradientTransform="matrix(3.33, 0, 0, -8.66, 1518.45, 14516.47)" xlink:href="#linear-gradient"/>
        <linearGradient id="linear-gradient-4" x1="-392.47" y1="1568.52" x2="-391.54" y2="1568.89"
                        gradientTransform="matrix(20, 0, 0, -26.94, 8172.75, 42449.45)"
                        xlink:href="#linear-gradient-2"/>
        <linearGradient id="linear-gradient-5" x1="-356.32" y1="1653.04" x2="-355.34" y2="1653.27"
                        gradientTransform="matrix(3.33, 0, 0, -8.66, 1440.95, 14543.9)" xlink:href="#linear-gradient"/>
        <linearGradient id="linear-gradient-6" x1="-392.47" y1="1568.52" x2="-391.54" y2="1568.89"
                        gradientTransform="matrix(20, 0, 0, -26.94, 8095.25, 42476.87)"
                        xlink:href="#linear-gradient-2"/>
        <linearGradient id="linear-gradient-7" x1="-356.32" y1="1653.04" x2="-355.34" y2="1653.27"
                        gradientTransform="matrix(3.33, 0, 0, -8.66, 1455.95, 14552.56)" xlink:href="#linear-gradient"/>
        <linearGradient id="linear-gradient-8" x1="-392.47" y1="1568.52" x2="-391.54" y2="1568.89"
                        gradientTransform="matrix(20, 0, 0, -26.94, 8110.25, 42485.53)"
                        xlink:href="#linear-gradient-2"/>
        <linearGradient id="linear-gradient-9" x1="-356.32" y1="1653.04" x2="-355.34" y2="1653.27"
                        gradientTransform="matrix(3.33, 0, 0, -8.66, 1480.86, 14529.18)" xlink:href="#linear-gradient"/>
        <linearGradient id="linear-gradient-10" x1="-392.47" y1="1568.52" x2="-391.54" y2="1568.89"
                        gradientTransform="matrix(20, 0, 0, -26.94, 8135.16, 42462.16)"
                        xlink:href="#linear-gradient-2"/>
        <linearGradient id="linear-gradient-11" x1="-356.32" y1="1653.04" x2="-355.34" y2="1653.27"
                        gradientTransform="matrix(3.33, 0, 0, -8.66, 1543.45, 14493.22)" xlink:href="#linear-gradient"/>
        <linearGradient id="linear-gradient-12" x1="-392.47" y1="1568.52" x2="-391.54" y2="1568.89"
                        gradientTransform="matrix(20, 0, 0, -26.94, 8197.75, 42426.19)"
                        xlink:href="#linear-gradient-2"/>
        <linearGradient id="linear-gradient-13" x1="-356.32" y1="1653.04" x2="-355.34" y2="1653.27"
                        gradientTransform="matrix(3.33, 0, 0, -8.66, 1565.95, 14471.73)" xlink:href="#linear-gradient"/>
        <linearGradient id="linear-gradient-14" x1="-392.47" y1="1568.52" x2="-391.54" y2="1568.89"
                        gradientTransform="matrix(20, 0, 0, -26.94, 8220.25, 42404.7)" xlink:href="#linear-gradient-2"/>
        <linearGradient id="linear-gradient-15" x1="-356.32" y1="1653.04" x2="-355.34" y2="1653.27"
                        gradientTransform="matrix(3.33, 0, 0, -8.66, 1580.95, 14480.39)" xlink:href="#linear-gradient"/>
        <linearGradient id="linear-gradient-16" x1="-392.47" y1="1568.52" x2="-391.54" y2="1568.89"
                        gradientTransform="matrix(20, 0, 0, -26.94, 8235.25, 42413.36)"
                        xlink:href="#linear-gradient-2"/>
    </defs>
    <title>1Artboard 3</title>
    <g id="Group">
        <path id="Path" class="cls-1" d="M0,141.45,205,23.09,472.5,177.54l-205,118.35Z"/>
        <path id="Path-2" data-name="Path" class="cls-2" d="M30,132.79,210,28.87,447.5,166l-180,103.92Z"/>
        <path id="windows-R2" class="window-R-prim" d="M215,207.85,355,127v-23.1L215,184.75Z"/>
        <path id="windows-L2" class="window-L-prim" d="M75,127l0-23.83,140,81.55v23.1Z"/>
        <path id="Path-3" data-name="Path" class="exterior-R-prim" d="M215,184.75l2.5-1.44V206.4l-2.5,1.45Z"/>
        <path id="Path-4" data-name="Path" class="exterior-R-prim" d="M337.22,114.19l2.5-1.45v23.1l-2.5,1.44Z"/>
        <path id="Path-5" data-name="Path" class="exterior-R-prim" d="M306.67,131.83l2.5-1.44v23.09l-2.5,1.44Z"/>
        <path id="Path-6" data-name="Path" class="exterior-R-prim" d="M276.11,149.47l2.5-1.44v23.09l-2.5,1.44Z"/>
        <path id="Path-7" data-name="Path" class="exterior-R-prim" d="M245.56,167.11l2.5-1.44v23.09l-2.5,1.45Z"/>
        <g id="body-R2">
            <path id="Path-8" data-name="Path" class="exterior-R-prim" d="M291.39,140.65l2.5-1.44V162.3l-2.5,1.44Z"/>
            <path id="Path-9" data-name="Path" class="exterior-R-prim" d="M260.83,158.29l2.5-1.44v23.09l-2.5,1.45Z"/>
            <path id="Path-10" data-name="Path" class="exterior-R-prim" d="M230.28,175.93l2.5-1.44v23.09l-2.5,1.45Z"/>
            <path id="Path-11" data-name="Path" class="exterior-R-prim" d="M352.5,105.37l2.5-1.45V127l-2.5,1.44Z"/>
            <path id="Path-12" data-name="Path" class="exterior-R-prim" d="M321.94,123l2.5-1.44v23.09l-2.5,1.44Z"/>
        </g>
        <path id="Path-13" data-name="Path" class="exterior-L-prim" d="M215,184.75l-2.5-1.44V206.4l2.5,1.45Z"/>
        <path id="Path-14" data-name="Path" class="exterior-L-prim" d="M92.78,114.19l-2.5-1.45v23.1l2.5,1.44Z"/>
        <path id="Path-15" data-name="Path" class="exterior-L-prim" d="M123.33,131.83l-2.5-1.44v23.09l2.5,1.44Z"/>
        <path id="Path-16" data-name="Path" class="exterior-L-prim" d="M153.89,149.47l-2.5-1.44v23.09l2.5,1.44Z"/>
        <path id="Path-17" data-name="Path" class="exterior-L-prim" d="M184.44,167.11l-2.5-1.44v23.09l2.5,1.45Z"/>
        <g id="body-L2">
            <path id="Path-18" data-name="Path" class="exterior-L-prim" d="M138.61,140.65l-2.5-1.44V162.3l2.5,1.44Z"/>
            <path id="Path-19" data-name="Path" class="exterior-L-prim" d="M169.17,158.29l-2.5-1.44v23.09l2.5,1.45Z"/>
            <path id="Path-20" data-name="Path" class="exterior-L-prim" d="M199.72,175.93l-2.5-1.44v23.09l2.5,1.45Z"/>
            <path id="Path-21" data-name="Path" class="exterior-L-prim" d="M77.5,105.37,75,103.92V127l2.5,1.44Z"/>
            <path id="Path-22" data-name="Path" class="exterior-L-prim" d="M108.06,123l-2.5-1.44v23.09l2.5,1.44Z"/>
        </g>
        <path id="Path-23" data-name="Path" class="exterior-R-prim" d="M310,137.12l-2.5-1.44V129.9l2.5,1.45Z"/>
        <path id="Path-24" data-name="Path" class="exterior-R-prim" d="M247.5,173.21l-2.5-1.45V166l2.5,1.44Z"/>
        <path id="Path-25" data-name="Path" class="exterior-R-prim" d="M183,173.21l2.5-1.45V166l-2.5,1.44Z"/>
        <path id="Path-26" data-name="Path" class="exterior-R-prim" d="M120.5,137.12l2.5-1.44V129.9l-2.5,1.45Z"/>
        <path id="Path-27" data-name="Path" class="exterior-R-prim" d="M60,135.68l5-2.89V98.15l-5-2.89Z"/>
        <path id="Path-28" data-name="Path" class="exterior-R-prim" d="M91,153.58l5-2.89V116.05l-5-2.89Z"/>
        <path id="Path-29" data-name="Path" class="exterior-R-prim" d="M189,169.74v34.64l-5,2.89V166.86Z"/>
        <path id="Path-30" data-name="Path" class="exterior-R-prim" d="M158,151.84v34.65l-5,2.88V149Z"/>
        <path id="Path-31" data-name="Path" class="exterior-R-prim" d="M127,134v34.64l-5,2.88V131.06Z"/>
        <g id="body-R2-2" data-name="body-R2">
            <path id="Path-32" data-name="Path" class="exterior-R-prim" d="M220,181.87v40.41l-5,2.89V184.75Z"/>
            <path id="Path-33" data-name="Path" class="exterior-R-prim" d="M375,92.38v40.41l-5,2.89V95.26Z"/>
            <path id="Path-34" data-name="Path" class="exterior-R-prim" d="M246,207.27l5-2.89V164l-5,2.89Z"/>
            <path id="Path-35" data-name="Path" class="exterior-R-prim" d="M277,189.37l5-2.88V146.07L277,149Z"/>
            <path id="Path-36" data-name="Path" class="exterior-R-prim" d="M308,171.47l5-2.88V128.17l-5,2.89Z"/>
            <path id="Path-37" data-name="Path" class="exterior-R-prim" d="M339,153.58l5-2.89V110.27l-5,2.89Z"/>
        </g>
        <g id="body-L2-2" data-name="body-L2">
            <path id="Path-38" data-name="Path" class="exterior-L-prim" d="M215,225.17l-5-2.89V181.87l5,2.88Z"/>
            <path id="Path-39" data-name="Path" class="exterior-L-prim" d="M55,92.38v40.41l5,2.89V95.26Z"/>
            <path id="Path-40" data-name="Path" class="exterior-L-prim" d="M86,110.27v40.42l5,2.89V113.16Z"/>
            <path id="Path-41" data-name="Path" class="exterior-L-prim" d="M184,207.27l-5-2.89V164l5,2.89Z"/>
            <path id="Path-42" data-name="Path" class="exterior-L-prim" d="M153,189.37l-5-2.88V146.07l5,2.89Z"/>
            <path id="Path-43" data-name="Path" class="exterior-L-prim" d="M122,171.47l-5-2.88V128.17l5,2.89Z"/>
        </g>
        <g id="body-R2-3" data-name="body-R2">
            <g id="Group-2" data-name="Group">
                <path id="Path-44" data-name="Path" class="exterior-L-prim" d="M370,135.68l-5-2.89V98.15l5-2.89Z"/>
                <path id="Path-45" data-name="Path" class="exterior-L-prim" d="M241,169.74v34.64l5,2.89V166.86Z"/>
                <path id="Path-46" data-name="Path" class="exterior-L-prim" d="M272,151.84v34.65l5,2.88V149Z"/>
                <path id="Path-47" data-name="Path" class="exterior-L-prim" d="M303,134v34.64l5,2.88V131.06Z"/>
                <path id="Path-48" data-name="Path" class="exterior-L-prim" d="M334,116.05v34.64l5,2.89V113.16Z"/>
            </g>
        </g>
        <path id="Path-49" data-name="Path" class="cls-3" d="M227.5,232.38l155-89.48,40,23.09-155,89.49Z"/>
        <path id="Path-50" data-name="Path" class="cls-4" d="M230,230.94l20,11.55-2.5,1.44-20-11.55Z"/>
        <path id="Path-51" data-name="Path" class="cls-4" d="M250,242.49,270,254l-2.5,1.44-20-11.55Z"/>
        <path id="Path-52" data-name="Path" class="cls-4" d="M242.5,235.27l20,11.55-2.5,1.44-20-11.55Z"/>
        <path id="Path-53" data-name="Path" class="cls-4" d="M270,254l2.5-1.45-10-5.77-2.5,1.44Z"/>
        <path id="Path-54" data-name="Path" class="cls-4" d="M230,230.94l2.5-1.44,10,5.77-2.5,1.44Z"/>
        <path id="Path-55" data-name="Path" class="cls-4" d="M235,228.05l20,11.55L252.5,241l-20-11.54Z"/>
        <path id="Path-56" data-name="Path" class="cls-4" d="M255,239.6l20,11.55-2.5,1.44L252.5,241Z"/>
        <path id="Path-57" data-name="Path" class="cls-4" d="M247.5,232.38l20,11.55-2.5,1.44-20-11.54Z"/>
        <path id="Path-58" data-name="Path" class="cls-4" d="M275,251.15l2.5-1.45-10-5.77-2.5,1.44Z"/>
        <path id="Path-59" data-name="Path" class="cls-4" d="M235,228.05l2.5-1.44,10,5.77-2.5,1.45Z"/>
        <path id="Path-60" data-name="Path" class="cls-4" d="M250,219.39l20,11.55-2.5,1.44-20-11.54Z"/>
        <path id="Path-61" data-name="Path" class="cls-4" d="M270,230.94l20,11.55-2.5,1.44-20-11.55Z"/>
        <path id="Path-62" data-name="Path" class="cls-4" d="M262.5,223.72l20,11.55-2.5,1.44-20-11.54Z"/>
        <path id="Path-63" data-name="Path" class="cls-4" d="M290,242.49l2.5-1.45-10-5.77-2.5,1.44Z"/>
        <path id="Path-64" data-name="Path" class="cls-4" d="M250,219.39l2.5-1.44,10,5.77-2.5,1.45Z"/>
        <path id="Path-65" data-name="Path" class="cls-4" d="M255,216.51l20,11.54-2.5,1.45L252.5,218Z"/>
        <path id="Path-66" data-name="Path" class="cls-4" d="M275,228.05l20,11.55L292.5,241l-20-11.54Z"/>
        <path id="Path-67" data-name="Path" class="cls-4" d="M267.5,220.84l20,11.54-2.5,1.45-20-11.55Z"/>
        <path id="Path-68" data-name="Path" class="cls-4" d="M295,239.6l2.5-1.44-10-5.78-2.5,1.45Z"/>
        <path id="Path-69" data-name="Path" class="cls-4" d="M255,216.51l2.5-1.45,10,5.78-2.5,1.44Z"/>
        <path id="Path-70" data-name="Path" class="cls-4" d="M240,225.17l20,11.54-2.5,1.45-20-11.55Z"/>
        <path id="Path-71" data-name="Path" class="cls-4" d="M260,236.71l20,11.55-2.5,1.44-20-11.54Z"/>
        <path id="Path-72" data-name="Path" class="cls-4" d="M252.5,229.5l20,11.54-2.5,1.45-20-11.55Z"/>
        <path id="Path-73" data-name="Path" class="cls-4" d="M280,248.26l2.5-1.44-10-5.78-2.5,1.45Z"/>
        <path id="Path-74" data-name="Path" class="cls-4" d="M240,225.17l2.5-1.45,10,5.78-2.5,1.44Z"/>
        <path id="Path-75" data-name="Path" class="cls-4" d="M245,222.28l20,11.55-2.5,1.44-20-11.55Z"/>
        <path id="Path-76" data-name="Path" class="cls-4" d="M265,233.83l20,11.54-2.5,1.45-20-11.55Z"/>
        <path id="Path-77" data-name="Path" class="cls-4" d="M257.5,226.61l20,11.55L275,239.6l-20-11.55Z"/>
        <path id="Path-78" data-name="Path" class="cls-4" d="M285,245.37l2.5-1.44-10-5.77L275,239.6Z"/>
        <path id="Path-79" data-name="Path" class="cls-4" d="M245,222.28l2.5-1.44,10,5.77-2.5,1.44Z"/>
        <path id="Path-80" data-name="Path" class="cls-4" d="M260,213.62l20,11.55-2.5,1.44-20-11.55Z"/>
        <path id="Path-81" data-name="Path" class="cls-4" d="M280,225.17l20,11.54-2.5,1.45-20-11.55Z"/>
        <path id="Path-82" data-name="Path" class="cls-4" d="M272.5,218l20,11.55-2.5,1.44-20-11.55Z"/>
        <path id="Path-83" data-name="Path" class="cls-4" d="M300,236.71l2.5-1.44-10-5.77-2.5,1.44Z"/>
        <path id="Path-84" data-name="Path" class="cls-4" d="M260,213.62l2.5-1.44,10,5.77-2.5,1.44Z"/>
        <path id="Path-85" data-name="Path" class="cls-4" d="M265,210.73l20,11.55-2.5,1.44-20-11.54Z"/>
        <path id="Path-86" data-name="Path" class="cls-4" d="M285,222.28l20,11.55-2.5,1.44-20-11.55Z"/>
        <path id="Path-87" data-name="Path" class="cls-4" d="M277.5,215.06l20,11.55-2.5,1.44-20-11.54Z"/>
        <path id="Path-88" data-name="Path" class="cls-4" d="M305,233.83l2.5-1.45-10-5.77-2.5,1.44Z"/>
        <path id="Path-89" data-name="Path" class="cls-4" d="M265,210.73l2.5-1.44,10,5.77-2.5,1.45Z"/>
        <path id="Path-90" data-name="Path" class="cls-4" d="M310,184.77l20,11.54-2.5,1.45-20-11.55Z"/>
        <path id="Path-91" data-name="Path" class="cls-4" d="M330,196.31l20,11.55-2.5,1.44-20-11.54Z"/>
        <path id="Path-92" data-name="Path" class="cls-4" d="M322.5,189.1l20,11.54-2.5,1.45-20-11.55Z"/>
        <path id="Path-93" data-name="Path" class="cls-4" d="M350,207.86l2.5-1.44-10-5.78-2.5,1.45Z"/>
        <path id="Path-94" data-name="Path" class="cls-4" d="M310,184.77l2.5-1.45,10,5.78-2.5,1.44Z"/>
        <path id="Path-95" data-name="Path" class="cls-4" d="M315,181.88l20,11.55-2.5,1.44-20-11.55Z"/>
        <path id="Path-96" data-name="Path" class="cls-4" d="M335,193.43,355,205l-2.5,1.45-20-11.55Z"/>
        <path id="Path-97" data-name="Path" class="cls-4" d="M327.5,186.21l20,11.55L345,199.2l-20-11.55Z"/>
        <path id="Path-98" data-name="Path" class="cls-4" d="M355,205l2.5-1.44-10-5.77L345,199.2Z"/>
        <path id="Path-99" data-name="Path" class="cls-4" d="M315,181.88l2.5-1.45,10,5.78-2.5,1.44Z"/>
        <path id="Path-100" data-name="Path" class="cls-4" d="M330,173.22l20,11.55-2.5,1.44-20-11.55Z"/>
        <path id="Path-101" data-name="Path" class="cls-4" d="M350,184.77l20,11.54-2.5,1.45-20-11.55Z"/>
        <path id="Path-102" data-name="Path" class="cls-4" d="M342.5,177.55l20,11.55-2.5,1.44L340,179Z"/>
        <path id="Path-103" data-name="Path" class="cls-4" d="M370,196.31l2.5-1.44-10-5.77-2.5,1.44Z"/>
        <path id="Path-104" data-name="Path" class="cls-4" d="M330,173.22l2.5-1.44,10,5.77L340,179Z"/>
        <path id="Path-105" data-name="Path" class="cls-4" d="M335,170.33l20,11.55-2.5,1.44-20-11.54Z"/>
        <path id="Path-106" data-name="Path" class="cls-4" d="M355,181.88l20,11.55-2.5,1.44-20-11.55Z"/>
        <path id="Path-107" data-name="Path" class="cls-4" d="M347.5,174.66l20,11.55-2.5,1.44-20-11.54Z"/>
        <path id="Path-108" data-name="Path" class="cls-4" d="M375,193.43l2.5-1.45-10-5.77-2.5,1.44Z"/>
        <path id="Path-109" data-name="Path" class="cls-4" d="M335,170.33l2.5-1.44,10,5.77-2.5,1.45Z"/>
        <path id="Path-110" data-name="Path" class="cls-4" d="M320,179l20,11.55L337.5,192l-20-11.55Z"/>
        <path id="Path-111" data-name="Path" class="cls-4" d="M340,190.54l20,11.55-2.5,1.44L337.5,192Z"/>
        <path id="Path-112" data-name="Path" class="cls-4" d="M332.5,183.32l20,11.55-2.5,1.44-20-11.54Z"/>
        <path id="Path-113" data-name="Path" class="cls-4" d="M360,202.09l2.5-1.45-10-5.77-2.5,1.44Z"/>
        <path id="Path-114" data-name="Path" class="cls-4" d="M320,179l2.5-1.44,10,5.77-2.5,1.45Z"/>
        <path id="Path-115" data-name="Path" class="cls-4" d="M325,176.11l20,11.54-2.5,1.45-20-11.55Z"/>
        <path id="Path-116" data-name="Path" class="cls-4" d="M345,187.65l20,11.55-2.5,1.44-20-11.54Z"/>
        <path id="Path-117" data-name="Path" class="cls-4" d="M337.5,180.43l20,11.55-2.5,1.45-20-11.55Z"/>
        <path id="Path-118" data-name="Path" class="cls-4" d="M365,199.2l2.5-1.44-10-5.78-2.5,1.45Z"/>
        <path id="Path-119" data-name="Path" class="cls-4" d="M325,176.11l2.5-1.45,10,5.77-2.5,1.45Z"/>
        <path id="Path-120" data-name="Path" class="cls-4" d="M340,167.44,360,179l-2.5,1.44-20-11.54Z"/>
        <path id="Path-121" data-name="Path" class="cls-4" d="M360,179l20,11.55L377.5,192l-20-11.55Z"/>
        <path id="Path-122" data-name="Path" class="cls-4" d="M352.5,171.78l20,11.54-2.5,1.45-20-11.55Z"/>
        <path id="Path-123" data-name="Path" class="cls-4" d="M380,190.54l2.5-1.44-10-5.78-2.5,1.45Z"/>
        <path id="Path-124" data-name="Path" class="cls-4" d="M340,167.44l2.5-1.44,10,5.78-2.5,1.44Z"/>
        <path id="Path-125" data-name="Path" class="cls-4" d="M345,164.56l20,11.55-2.5,1.44L342.5,166Z"/>
        <path id="Path-126" data-name="Path" class="cls-4" d="M365,176.11l20,11.54-2.5,1.45-20-11.55Z"/>
        <path id="Path-127" data-name="Path" class="cls-4" d="M357.5,168.89l20,11.54-2.5,1.45-20-11.55Z"/>
        <path id="Path-128" data-name="Path" class="cls-4" d="M385,187.65l2.5-1.44-10-5.78-2.5,1.45Z"/>
        <path id="Path-129" data-name="Path" class="cls-4" d="M345,164.56l2.5-1.45,10,5.78-2.5,1.44Z"/>
        <path id="Path-130" data-name="Path" class="cls-4" d="M270,207.85l20,11.54-2.5,1.45-20-11.55Z"/>
        <path id="Path-131" data-name="Path" class="cls-4" d="M290,219.39l20,11.55-2.5,1.44-20-11.54Z"/>
        <path id="Path-132" data-name="Path" class="cls-4" d="M282.5,212.18l20,11.54-2.5,1.45-20-11.55Z"/>
        <path id="Path-133" data-name="Path" class="cls-4" d="M310,230.94l2.5-1.44-10-5.78-2.5,1.45Z"/>
        <path id="Path-134" data-name="Path" class="cls-4" d="M270,207.85l2.5-1.45,10,5.78-2.5,1.44Z"/>
        <path id="Path-135" data-name="Path" class="cls-4" d="M275,205l20,11.55L292.5,218l-20-11.55Z"/>
        <path id="Path-136" data-name="Path" class="cls-4" d="M295,216.51l20,11.54-2.5,1.45L292.5,218Z"/>
        <path id="Path-137" data-name="Path" class="cls-4" d="M287.5,209.29l20,11.55-2.5,1.44-20-11.55Z"/>
        <path id="Path-138" data-name="Path" class="cls-4" d="M315,228.05l2.5-1.44-10-5.77-2.5,1.44Z"/>
        <path id="Path-139" data-name="Path" class="cls-4" d="M275,205l2.5-1.44,10,5.77-2.5,1.44Z"/>
        <path id="Path-140" data-name="Path" class="cls-4" d="M290,196.3l20,11.55-2.5,1.44-20-11.55Z"/>
        <path id="Path-141" data-name="Path" class="cls-4" d="M310,207.85l20,11.54-2.5,1.45-20-11.55Z"/>
        <path id="Path-142" data-name="Path" class="cls-4" d="M302.5,200.63l20,11.55-2.5,1.44-20-11.55Z"/>
        <path id="Path-143" data-name="Path" class="cls-4" d="M330,219.39l2.5-1.44-10-5.77-2.5,1.44Z"/>
        <path id="Path-144" data-name="Path" class="cls-4" d="M290,196.3l2.5-1.44,10,5.77-2.5,1.44Z"/>
        <path id="Path-145" data-name="Path" class="cls-4" d="M295,193.41,315,205l-2.5,1.44-20-11.54Z"/>
        <path id="Path-146" data-name="Path" class="cls-4" d="M315,205l20,11.55L332.5,218l-20-11.55Z"/>
        <path id="Path-147" data-name="Path" class="cls-4" d="M307.5,197.74l20,11.55-2.5,1.44-20-11.54Z"/>
        <path id="Path-148" data-name="Path" class="cls-4" d="M335,216.51l2.5-1.45-10-5.77-2.5,1.44Z"/>
        <path id="Path-149" data-name="Path" class="cls-4" d="M295,193.41l2.5-1.44,10,5.77-2.5,1.45Z"/>
        <path id="Path-150" data-name="Path" class="cls-4" d="M280,202.07l20,11.55-2.5,1.44-20-11.54Z"/>
        <path id="Path-151" data-name="Path" class="cls-4" d="M300,213.62l20,11.55-2.5,1.44-20-11.55Z"/>
        <path id="Path-152" data-name="Path" class="cls-4" d="M292.5,206.4l20,11.55-2.5,1.44-20-11.54Z"/>
        <path id="Path-153" data-name="Path" class="cls-4" d="M320,225.17l2.5-1.45-10-5.77-2.5,1.44Z"/>
        <path id="Path-154" data-name="Path" class="cls-4" d="M280,202.07l2.5-1.44,10,5.77-2.5,1.45Z"/>
        <path id="Path-155" data-name="Path" class="cls-4" d="M285,199.19l20,11.54-2.5,1.45-20-11.55Z"/>
        <path id="Path-156" data-name="Path" class="cls-4" d="M305,210.73l20,11.55-2.5,1.44-20-11.54Z"/>
        <path id="Path-157" data-name="Path" class="cls-4" d="M297.5,203.52l20,11.54-2.5,1.45L295,205Z"/>
        <path id="Path-158" data-name="Path" class="cls-4" d="M325,222.28l2.5-1.44-10-5.78-2.5,1.45Z"/>
        <path id="Path-159" data-name="Path" class="cls-4" d="M285,199.19l2.5-1.45,10,5.78L295,205Z"/>
        <path id="Path-160" data-name="Path" class="cls-4" d="M300,190.53l20,11.54-2.5,1.45L297.5,192Z"/>
        <path id="Path-161" data-name="Path" class="cls-4" d="M320,202.07l20,11.55-2.5,1.44-20-11.54Z"/>
        <path id="Path-162" data-name="Path" class="cls-4" d="M312.5,194.86l20,11.54-2.5,1.45L310,196.3Z"/>
        <path id="Path-163" data-name="Path" class="cls-4" d="M340,213.62l2.5-1.44-10-5.78-2.5,1.45Z"/>
        <path id="Path-164" data-name="Path" class="cls-4" d="M300,190.53l2.5-1.45,10,5.78L310,196.3Z"/>
        <path id="Path-165" data-name="Path" class="cls-4" d="M305,187.64l20,11.55-2.5,1.44-20-11.55Z"/>
        <path id="Path-166" data-name="Path" class="cls-4" d="M325,199.19l20,11.54-2.5,1.45-20-11.55Z"/>
        <path id="Path-167" data-name="Path" class="cls-4" d="M317.5,192l20,11.55L335,205l-20-11.55Z"/>
        <path id="Path-168" data-name="Path" class="cls-4" d="M345,210.73l2.5-1.44-10-5.77L335,205Z"/>
        <path id="Path-169" data-name="Path" class="cls-4" d="M305,187.64l2.5-1.44,10,5.77-2.5,1.44Z"/>
        <path id="Path-170" data-name="Path" class="cls-4" d="M350,161.67l20,11.55-2.5,1.44-20-11.55Z"/>
        <path id="Path-171" data-name="Path" class="cls-4" d="M370,173.22l20,11.55-2.5,1.44-20-11.55Z"/>
        <path id="Path-172" data-name="Path" class="cls-4" d="M362.5,166l20,11.55L380,179l-20-11.55Z"/>
        <path id="Path-173" data-name="Path" class="cls-4" d="M390,184.77l2.5-1.45-10-5.77L380,179Z"/>
        <path id="Path-174" data-name="Path" class="cls-4" d="M350,161.67l2.5-1.44,10,5.77-2.5,1.44Z"/>
        <path id="Path-175" data-name="Path" class="cls-4" d="M355,158.78l20,11.55-2.5,1.45-20-11.55Z"/>
        <path id="Path-176" data-name="Path" class="cls-4" d="M375,170.33l20,11.55-2.5,1.44-20-11.54Z"/>
        <path id="Path-177" data-name="Path" class="cls-4" d="M367.5,163.11l20,11.55-2.5,1.45-20-11.55Z"/>
        <path id="Path-178" data-name="Path" class="cls-4" d="M395,181.88l2.5-1.45-10-5.77-2.5,1.45Z"/>
        <path id="Path-179" data-name="Path" class="cls-4" d="M355,158.78l2.5-1.44,10,5.77-2.5,1.45Z"/>
        <path id="Path-180" data-name="Path" class="cls-4" d="M370,150.12l20,11.55-2.5,1.44-20-11.54Z"/>
        <path id="Path-181" data-name="Path" class="cls-4" d="M390,161.67l20,11.55-2.5,1.44-20-11.55Z"/>
        <path id="Path-182" data-name="Path" class="cls-4" d="M382.5,154.45l20,11.55-2.5,1.44L380,155.9Z"/>
        <path id="Path-183" data-name="Path" class="cls-4" d="M410,173.22l2.5-1.44-10-5.78-2.5,1.44Z"/>
        <path id="Path-184" data-name="Path" class="cls-4" d="M370,150.12l2.5-1.44,10,5.77L380,155.9Z"/>
        <path id="Path-185" data-name="Path" class="cls-4" d="M375,147.24l20,11.54-2.5,1.45-20-11.55Z"/>
        <path id="Path-186" data-name="Path" class="cls-4" d="M395,158.78l20,11.55-2.5,1.45-20-11.55Z"/>
        <path id="Path-187" data-name="Path" class="cls-4" d="M387.5,151.57l20,11.54-2.5,1.45L385,153Z"/>
        <path id="Path-188" data-name="Path" class="cls-4" d="M415,170.33l2.5-1.44-10-5.78-2.5,1.45Z"/>
        <path id="Path-189" data-name="Path" class="cls-4" d="M375,147.24l2.5-1.45,10,5.78L385,153Z"/>
        <path id="Path-190" data-name="Path" class="cls-4" d="M360,155.9l20,11.54-2.5,1.45-20-11.55Z"/>
        <path id="Path-191" data-name="Path" class="cls-4" d="M380,167.44,400,179l-2.5,1.44-20-11.54Z"/>
        <path id="Path-192" data-name="Path" class="cls-4" d="M372.5,160.23l20,11.55-2.5,1.44-20-11.55Z"/>
        <path id="Path-193" data-name="Path" class="cls-4" d="M400,179l2.5-1.44-10-5.77-2.5,1.44Z"/>
        <path id="Path-194" data-name="Path" class="cls-4" d="M360,155.9l2.5-1.45,10,5.78-2.5,1.44Z"/>
        <path id="Path-195" data-name="Path" class="cls-4" d="M365,153l20,11.55L382.5,166l-20-11.55Z"/>
        <path id="Path-196" data-name="Path" class="cls-4" d="M385,164.56l20,11.55-2.5,1.44L382.5,166Z"/>
        <path id="Path-197" data-name="Path" class="cls-4" d="M377.5,157.34l20,11.55-2.5,1.44-20-11.55Z"/>
        <path id="Path-198" data-name="Path" class="cls-4" d="M405,176.11l2.5-1.45-10-5.77-2.5,1.44Z"/>
        <path id="Path-199" data-name="Path" class="cls-4" d="M365,153l2.5-1.44,10,5.77-2.5,1.44Z"/>
        <path id="Path-200" data-name="Path" class="cls-4" d="M380,144.35l20,11.55-2.5,1.44-20-11.55Z"/>
        <path id="Path-201" data-name="Path" class="cls-4" d="M400,155.9l20,11.54-2.5,1.45-20-11.55Z"/>
        <path id="Path-202" data-name="Path" class="cls-4" d="M392.5,148.68l20,11.55-2.5,1.44-20-11.55Z"/>
        <path id="Path-203" data-name="Path" class="cls-4" d="M420,167.44l2.5-1.44-10-5.77-2.5,1.44Z"/>
        <path id="Path-204" data-name="Path" class="cls-4" d="M380,144.35l2.5-1.44,10,5.77-2.5,1.44Z"/>
        <path id="Path-205" data-name="Path" class="cls-5" d="M267.5,269.91v2.89l180-103.92V166Z"/>
        <path id="Path-206" data-name="Path" class="cls-5" d="M267.5,275.68v2.89L450,173.21v-2.92Z"/>
        <path id="Path-207" data-name="Path" class="cls-5" d="M267.5,281.46v2.89l185-106.81v-2.89Z"/>
        <path id="Path-208" data-name="Path" class="cls-2" d="M267.5,272.8v2.88L450,170.32l-2.5-1.44Z"/>
        <path id="Path-209" data-name="Path" class="cls-2" d="M267.5,278.57v2.89l185-106.81-2.5-1.44Z"/>
        <path id="Path-210" data-name="Path" class="cls-6" d="M267.5,272.81v-2.89L30,132.8v2.89Z"/>
        <path id="Path-211" data-name="Path" class="cls-5" d="M267.5,275.7v-2.89L30,135.69l-2.5,1.44Z"/>
        <path id="Path-212" data-name="Path" class="cls-6" d="M267.5,278.58,27.5,140v-2.89l240,138.57Z"/>
        <path id="Path-213" data-name="Path" class="cls-5" d="M267.5,281.47,25,141.46,27.5,140l240,138.56Z"/>
        <path id="Path-214" data-name="Path" class="cls-6" d="M267.5,284.36,25,144.35v-2.89l242.5,140Z"/>
        <path id="Path-215" data-name="Path" class="cls-5" d="M232.5,235.27l5-2.89V229.5l-5,2.88Z"/>
        <path id="Path-216" data-name="Path" class="cls-5" d="M262.5,252.59l5-2.89v-2.88l-5,2.88Z"/>
        <path id="Path-217" data-name="Path" class="cls-6" d="M262.5,249.7l-30-17.32v2.89l30,17.32Z"/>
        <path id="Path-218" data-name="Path" class="cls-2" d="M267.5,246.82l-30-17.32-5,2.88,30,17.32Z"/>
        <path id="Path-219" data-name="Path" class="cls-6" d="M297.5,238.16l-5-2.89v-2.89l5,2.89Z"/>
        <path id="Path-220" data-name="Path" class="cls-5" d="M297.5,235.27l30-17.32v2.89l-30,17.32Z"/>
        <path id="Path-221" data-name="Path" class="cls-2" d="M292.5,232.38l30-17.32,5,2.89-30,17.32Z"/>
        <path id="Path-222" data-name="Path" class="cls-6" d="M362.5,200.63l-5-2.89v-2.88l5,2.88Z"/>
        <path id="Path-223" data-name="Path" class="cls-5" d="M362.5,197.74l30-17.32v2.89l-30,17.32Z"/>
        <path id="Path-224" data-name="Path" class="cls-2" d="M357.5,194.86l30-17.32,5,2.88-30,17.32Z"/>
        <path id="Path-225" data-name="Path" class="cls-5" d="M412.5,166l5-2.89v-2.88l-5,2.88Z"/>
        <path id="Path-226" data-name="Path" class="cls-6" d="M412.5,163.1l-30-17.32v2.89l30,17.32Z"/>
        <path id="Path-227" data-name="Path" class="cls-2" d="M417.5,160.22l-30-17.32-5,2.88,30,17.32Z"/>
        <path id="Path-228" data-name="Path" class="cls-7" d="M250,230.94l20,11.55,5-2.89-20-11.55Z"/>
        <path id="Path-229" data-name="Path" class="cls-7" d="M312.5,194.86l20,11.54,5-2.88L317.5,192Z"/>
        <path id="Path-230" data-name="Path" class="cls-7" d="M375,158.77l20,11.55,5-2.89-20-11.54Z"/>
        <g id="Group-3" data-name="Group">
            <path id="Compound_Shape" data-name="Compound Shape" class="cls-8"
                  d="M319.17,195.13h0c0,.54-.75,1-1.67,1s-1.67-.43-1.67-1h0v-7.69h3.34v7.69Z"/>
            <ellipse id="Ellipse" class="cls-9" cx="317.5" cy="175.33" rx="10" ry="13.47"/>
        </g>
        <g id="Group-4" data-name="Group">
            <path id="Compound_Shape-2" data-name="Compound Shape" class="cls-10"
                  d="M334.17,203.8h0c0,.53-.75,1-1.67,1s-1.67-.43-1.67-1h0v-7.7h3.34v7.7Z"/>
            <ellipse id="Ellipse-2" data-name="Ellipse" class="cls-11" cx="332.5" cy="183.99" rx="10" ry="13.47"/>
        </g>
        <g id="Group-5" data-name="Group">
            <path id="Compound_Shape-3" data-name="Compound Shape" class="cls-12"
                  d="M256.67,231.22h0c0,.53-.75,1-1.67,1s-1.67-.43-1.67-1h0v-7.7h3.34v7.7Z"/>
            <ellipse id="Ellipse-3" data-name="Ellipse" class="cls-13" cx="255" cy="211.42" rx="10" ry="13.47"/>
        </g>
        <g id="Group-6" data-name="Group">
            <path id="Compound_Shape-4" data-name="Compound Shape" class="cls-14"
                  d="M271.67,239.88h0c0,.53-.75,1-1.67,1s-1.67-.43-1.67-1h0v-7.7h3.34v7.7Z"/>
            <ellipse id="Ellipse-4" data-name="Ellipse" class="cls-15" cx="270" cy="220.08" rx="10" ry="13.47"/>
        </g>
        <path id="Path-231" data-name="Path" class="cls-7" d="M287.41,215.06l10,5.78,5-2.89-10-5.77Z"/>
        <g id="Group-7" data-name="Group">
            <g id="Group-8" data-name="Group">
                <path id="Compound_Shape-5" data-name="Compound Shape" class="cls-16"
                      d="M296.57,216.51h0c0,.53-.74,1-1.66,1s-1.67-.43-1.67-1h0v-7.7h3.33v7.7Z"/>
                <ellipse id="Ellipse-5" data-name="Ellipse" class="cls-17" cx="294.91" cy="196.71" rx="10" ry="13.47"/>
            </g>
        </g>
        <path id="Path-232" data-name="Path" class="cls-7" d="M350,179l10,5.77,5-2.89-10-5.77Z"/>
        <g id="Group-9" data-name="Group">
            <path id="Compound_Shape-6" data-name="Compound Shape" class="cls-18"
                  d="M359.17,180.54h0c0,.53-.75,1-1.67,1s-1.67-.43-1.67-1h0v-7.7h3.34v7.7Z"/>
            <ellipse id="Ellipse-6" data-name="Ellipse" class="cls-19" cx="357.5" cy="160.74" rx="10" ry="13.47"/>
        </g>
        <g id="Group-10" data-name="Group">
            <path id="Compound_Shape-7" data-name="Compound Shape" class="cls-20"
                  d="M381.67,159.05h0c0,.53-.75,1-1.67,1s-1.67-.43-1.67-1h0v-7.7h3.34v7.7Z"/>
            <ellipse id="Ellipse-7" data-name="Ellipse" class="cls-21" cx="380" cy="139.25" rx="10" ry="13.47"/>
        </g>
        <g id="Group-11" data-name="Group">
            <path id="Compound_Shape-8" data-name="Compound Shape" class="cls-22"
                  d="M396.67,167.71h0c0,.53-.75,1-1.67,1s-1.67-.43-1.67-1h0V160h3.34v7.7Z"/>
            <ellipse id="Ellipse-8" data-name="Ellipse" class="cls-23" cx="395" cy="147.91" rx="10" ry="13.47"/>
        </g>
        <path id="Path-233" data-name="Path" class="cls-6" d="M0,141.45v2.89L267.5,298.78v-2.89Z"/>
        <path id="Path-234" data-name="Path" class="cls-5" d="M472.5,177.54v2.88l-205,118.36v-2.89Z"/>
        <path id="Path-235" data-name="Path" class="cls-24" d="M120.5,131.35v5.77L103,127v-5.78Z"/>
        <path id="Path-236" data-name="Path" class="cls-25" d="M123,129.9l-2.5,1.45L103,121.24l2.5-1.44Z"/>
        <path id="Path-237" data-name="Path" class="cls-26" d="M310,131.35v5.77L327.5,127v-5.78Z"/>
        <path id="Path-238" data-name="Path" class="cls-25" d="M307.5,129.9l2.5,1.45,17.5-10.11L325,119.8Z"/>
        <path id="Path-239" data-name="Path" class="cls-27" d="M247.5,167.43v5.78L265,163.1v-5.77Z"/>
        <path id="Path-240" data-name="Path" class="cls-25" d="M245,166l2.5,1.44,17.5-10.1-2.5-1.44Z"/>
        <path id="Path-241" data-name="Path" class="cls-28" d="M183,167.43v5.78L165.5,163.1v-5.77Z"/>
        <path id="Path-242" data-name="Path" class="cls-25" d="M185.5,166l-2.5,1.44-17.5-10.1,2.5-1.44Z"/>
        <path id="anchor-01_114.03" class="top-prim" d="M55,92.38,215,0,375,92.38,215,184.75Z"/>
    </g>
</svg>