<svg id="Layer_1" data-name="Layer 1" xmlns="http://www.w3.org/2000/svg" viewBox="0 0 500 964.1749">
  <defs>
    <style>
      .top-dark {
        fill: #c67471;
      }

      .exterior-L-prim {
        fill: #73302e;
      }

      .exterior-R-prim {
        fill: #d05752;
      }

      .window-R-prim {
        fill: #bd9664;
      }

      .window-L-prim {
        fill: #4d3b24;
      }

      .top-prim {
        fill: #dd8a87;
      }
    </style>
  </defs>
  <title>Artboard 9</title>
  <g id="Group">
    <path id="anchor_0_288.675_500" class="top-dark" d="M0,155.8845,250,300.2223,500,155.8845v-11.547L250,0,0,144.3375Z"/>
    <path id="Path" class="exterior-L-prim" d="M250,288.6752l10-5.7736v675.5l-10,5.7737L0,819.8373v-675.5Z"/>
    <path id="Path-2" data-name="Path" class="exterior-R-prim" d="M250,288.6752h0v675.5L500,819.8373v-675.5Z"/>
    <path id="Path-3" data-name="Path" class="window-R-prim" d="M485,176.0918,260,305.9957V941.0809L485,811.1771Z"/>
    <path id="Path-4" data-name="Path" class="window-L-prim" d="M15,176.0918,240,305.9957V941.0809L15,811.1771Z"/>
    <path id="Path-5" data-name="Path" class="exterior-L-prim" d="M275,297.3354l5-2.8867V935.3073l-5-2.8868Z"/>
    <path id="Path-6" data-name="Path" class="exterior-R-prim" d="M225,297.3354l-5-2.8867V935.3073l5-2.8868Z"/>
    <path id="Path-7" data-name="Path" class="exterior-L-prim" d="M305,280.0149l5-2.8868V917.9869l-5-2.8864Z"/>
    <path id="Path-8" data-name="Path" class="exterior-R-prim" d="M195,280.0149l-5-2.8868V917.9869l5-2.8864Z"/>
    <path id="Path-9" data-name="Path" class="exterior-L-prim" d="M335,262.6943l5-2.8868V900.6666l-5-2.8869Z"/>
    <path id="Path-10" data-name="Path" class="exterior-R-prim" d="M165,262.6943l-5-2.8868V900.6666l5-2.8869Z"/>
    <path id="Path-11" data-name="Path" class="exterior-L-prim" d="M365,245.3739l5-2.8868v640.859l-5-2.8867Z"/>
    <path id="Path-12" data-name="Path" class="exterior-R-prim" d="M135,245.3739l-5-2.8868v640.859l5-2.8867Z"/>
    <path id="Path-13" data-name="Path" class="exterior-L-prim" d="M395,228.0533l5-2.8868v640.859l-5-2.8867Z"/>
    <path id="Path-14" data-name="Path" class="exterior-R-prim" d="M105,228.0533l-5-2.8868v640.859l5-2.8867Z"/>
    <path id="Path-15" data-name="Path" class="exterior-L-prim" d="M425,210.7329l5-2.8868V848.705l-5-2.8868Z"/>
    <path id="Path-16" data-name="Path" class="exterior-R-prim" d="M75,210.7329l-5-2.8868V848.705l5-2.8868Z"/>
    <path id="Path-17" data-name="Path" class="exterior-L-prim" d="M455,193.4122l5-2.8867V831.3846l-5-2.8867Z"/>
    <path id="Path-18" data-name="Path" class="exterior-R-prim" d="M45,193.4122l-5-2.8867V831.3846l5-2.8867Z"/>
    <path id="Path-19" data-name="Path" class="exterior-L-prim" d="M485,176.0916l5-2.8868v640.859l-5-2.8867Z"/>
    <path id="Path-20" data-name="Path" class="exterior-R-prim" d="M15,176.0916l-5-2.8868v640.859l5-2.8867Z"/>
    <path id="Path-21" data-name="Path" class="exterior-R-prim" d="M250,363.7306v11.5471L500,230.94v-11.547Z"/>
    <path id="Path-22" data-name="Path" class="exterior-L-prim" d="M250,363.7306v11.5471L0,230.94v-11.547Z"/>
    <path id="Path-23" data-name="Path" class="exterior-R-prim" d="M250,433.0127V444.56L500,300.222V288.675Z"/>
    <path id="Path-24" data-name="Path" class="exterior-L-prim" d="M250,433.0127V444.56L0,300.222V288.675Z"/>
    <path id="Path-25" data-name="Path" class="exterior-R-prim" d="M250,502.2948v11.547L500,369.5042v-11.547Z"/>
    <path id="Path-26" data-name="Path" class="exterior-L-prim" d="M250,502.2948v11.547L0,369.5042v-11.547Z"/>
    <path id="Path-27" data-name="Path" class="exterior-R-prim" d="M250,571.5768v11.5469L500,438.7861v-11.547Z"/>
    <path id="Path-28" data-name="Path" class="exterior-L-prim" d="M250,571.5768v11.5469L0,438.7861v-11.547Z"/>
    <path id="Path-29" data-name="Path" class="exterior-R-prim" d="M250,640.8588v11.5468L500,508.0681v-11.547Z"/>
    <path id="Path-30" data-name="Path" class="exterior-L-prim" d="M250,640.8588v11.5468L0,508.0681v-11.547Z"/>
    <path id="Path-31" data-name="Path" class="exterior-R-prim" d="M250,710.1407v11.5472L500,577.35V565.8031Z"/>
    <path id="Path-32" data-name="Path" class="exterior-L-prim" d="M250,710.1407v11.5472L0,577.35V565.8031Z"/>
    <path id="Path-33" data-name="Path" class="exterior-R-prim" d="M250,288.6752l10-5.7736v675.5l-10,5.7734Z"/>
    <path id="Path-34" data-name="Path" class="exterior-L-prim" d="M250,288.6752l-10-5.7736v675.5l10,5.7734Z"/>
    <path id="Path-35" data-name="Path" class="exterior-R-prim" d="M370,230.94l10-5.7736V889.12l-10,5.7734Z"/>
    <path id="Path-36" data-name="Path" class="exterior-L-prim" d="M130,230.94l-10-5.7736V889.12l10,5.7734Z"/>
    <path id="Path-37" data-name="Path" class="exterior-R-prim" d="M310,265.5812l10-5.7736v663.953l-10,5.7735Z"/>
    <path id="Path-38" data-name="Path" class="exterior-L-prim" d="M190,265.5812l-10-5.7736v663.953l10,5.7735Z"/>
    <path id="Path-39" data-name="Path" class="exterior-R-prim" d="M430,196.2992l10-5.7736v663.953l-10,5.7732Z"/>
    <path id="Path-40" data-name="Path" class="exterior-L-prim" d="M70,196.2992l-10-5.7736v663.953l10,5.7732Z"/>
    <path id="Path-41" data-name="Path" class="exterior-R-prim" d="M460,178.9786l10-5.7734V837.1581l-10,5.7734Z"/>
    <path id="Path-42" data-name="Path" class="exterior-L-prim" d="M40,178.9786l-10-5.7734V837.1581l10,5.7734Z"/>
    <path id="Path-43" data-name="Path" class="exterior-R-prim" d="M490,161.6582l10-5.7736V819.8373l-10,5.7737Z"/>
    <path id="Path-44" data-name="Path" class="exterior-L-prim" d="M10,161.6582,0,155.8846V819.8373l10,5.7737Z"/>
    <path id="Path-45" data-name="Path" class="exterior-R-prim" d="M280,282.9016l10-5.7734V941.0809l-10,5.7737Z"/>
    <path id="Path-46" data-name="Path" class="exterior-L-prim" d="M220,282.9016l-10-5.7734V941.0809l10,5.7737Z"/>
    <path id="Path-47" data-name="Path" class="exterior-R-prim" d="M400,213.62l10-5.7734V871.799l-10,5.7734Z"/>
    <path id="Path-48" data-name="Path" class="exterior-L-prim" d="M100,213.62l-10-5.7734V871.799l10,5.7734Z"/>
    <path id="Path-49" data-name="Path" class="exterior-R-prim" d="M340,248.2606l10-5.7734V906.44l-10,5.7734Z"/>
    <path id="Path-50" data-name="Path" class="exterior-L-prim" d="M160,248.2606l-10-5.7734V906.44l10,5.7734Z"/>
    <path id="Path-51" data-name="Path" class="top-prim" d="M260,917.9869l15-8.66,5,2.887L260,923.76Z"/>
    <path id="Path-52" data-name="Path" class="top-prim" d="M240,917.9869l-15-8.66-5,2.887L240,923.76Z"/>
    <path id="Path-53" data-name="Path" class="top-prim" d="M260,352.1836l15-8.66,5,2.8868-20,11.547Z"/>
    <path id="Path-54" data-name="Path" class="top-prim" d="M240,352.1836l-15-8.66-5,2.8868,20,11.547Z"/>
    <path id="Path-55" data-name="Path" class="top-prim" d="M260,421.4657l15-8.66,5,2.8867-20,11.547Z"/>
    <path id="Path-56" data-name="Path" class="top-prim" d="M240,421.4657l-15-8.66-5,2.8867,20,11.547Z"/>
    <path id="Path-57" data-name="Path" class="top-prim" d="M260,490.7478l15-8.66,5,2.8867-20,11.547Z"/>
    <path id="Path-58" data-name="Path" class="top-prim" d="M240,490.7478l-15-8.66-5,2.8867,20,11.547Z"/>
    <path id="Path-59" data-name="Path" class="top-prim" d="M260,560.03l15-8.66,5,2.8867-20,11.5471Z"/>
    <path id="Path-60" data-name="Path" class="top-prim" d="M240,560.03l-15-8.66-5,2.8867,20,11.5471Z"/>
    <path id="Path-61" data-name="Path" class="top-prim" d="M260,629.3119l15-8.66,5,2.887-20,11.5468Z"/>
    <path id="Path-62" data-name="Path" class="top-prim" d="M240,629.3119l-15-8.66-5,2.887,20,11.5468Z"/>
    <path id="Path-63" data-name="Path" class="top-prim" d="M260,698.5939l15-8.66,5,2.8869-20,11.5469Z"/>
    <path id="Path-64" data-name="Path" class="top-prim" d="M240,698.5939l-15-8.66-5,2.8869,20,11.5469Z"/>
    <path id="Path-65" data-name="Path" class="top-prim" d="M320,883.3461l15-8.66,5,2.8867-20,11.5469Z"/>
    <path id="Path-66" data-name="Path" class="top-prim" d="M180,883.3461l-15-8.66-5,2.8867,20,11.5469Z"/>
    <path id="Path-67" data-name="Path" class="top-prim" d="M320,317.5426l15-8.66,5,2.8869-20,11.547Z"/>
    <path id="Path-68" data-name="Path" class="top-prim" d="M180,317.5426l-15-8.66-5,2.8869,20,11.547Z"/>
    <path id="Path-69" data-name="Path" class="top-prim" d="M320,386.8247l15-8.66,5,2.8867-20,11.547Z"/>
    <path id="Path-70" data-name="Path" class="top-prim" d="M180,386.8247l-15-8.66-5,2.8867,20,11.547Z"/>
    <path id="Path-71" data-name="Path" class="top-prim" d="M320,456.1068l15-8.66,5,2.8869L320,461.88Z"/>
    <path id="Path-72" data-name="Path" class="top-prim" d="M180,456.1068l-15-8.66-5,2.8869L180,461.88Z"/>
    <path id="Path-73" data-name="Path" class="top-prim" d="M320,525.3888l15-8.66,5,2.8869-20,11.5468Z"/>
    <path id="Path-74" data-name="Path" class="top-prim" d="M180,525.3888l-15-8.66-5,2.8869,20,11.5468Z"/>
    <path id="Path-75" data-name="Path" class="top-prim" d="M320,594.6708l15-8.66,5,2.8867-20,11.5469Z"/>
    <path id="Path-76" data-name="Path" class="top-prim" d="M180,594.6708l-15-8.66-5,2.8867,20,11.5469Z"/>
    <path id="Path-77" data-name="Path" class="top-prim" d="M320,663.9528l15-8.66,5,2.8867-20,11.5469Z"/>
    <path id="Path-78" data-name="Path" class="top-prim" d="M180,663.9528l-15-8.66-5,2.8867,20,11.5469Z"/>
    <path id="Path-79" data-name="Path" class="top-prim" d="M380,848.705l15-8.66,5,2.8869-20,11.5469Z"/>
    <path id="Path-80" data-name="Path" class="top-prim" d="M120,848.705l-15-8.66-5,2.8869,20,11.5469Z"/>
    <path id="Path-81" data-name="Path" class="top-prim" d="M380,282.9016l15-8.66,5,2.8869-20,11.547Z"/>
    <path id="Path-82" data-name="Path" class="top-prim" d="M120,282.9016l-15-8.66-5,2.8869,20,11.547Z"/>
    <path id="Path-83" data-name="Path" class="top-prim" d="M380,352.1836l15-8.66,5,2.8868-20,11.547Z"/>
    <path id="Path-84" data-name="Path" class="top-prim" d="M120,352.1836l-15-8.66-5,2.8868,20,11.547Z"/>
    <path id="Path-85" data-name="Path" class="top-prim" d="M380,421.4657l15-8.66,5,2.8869-20,11.547Z"/>
    <path id="Path-86" data-name="Path" class="top-prim" d="M120,421.4657l-15-8.66-5,2.8869,20,11.547Z"/>
    <path id="Path-87" data-name="Path" class="top-prim" d="M380,490.7478l15-8.66,5,2.8867-20,11.547Z"/>
    <path id="Path-88" data-name="Path" class="top-prim" d="M120,490.7478l-15-8.66-5,2.8867,20,11.547Z"/>
    <path id="Path-89" data-name="Path" class="top-prim" d="M380,560.03l15-8.66,5,2.8867-20,11.5471Z"/>
    <path id="Path-90" data-name="Path" class="top-prim" d="M120,560.03l-15-8.66-5,2.8867,20,11.5471Z"/>
    <path id="Path-91" data-name="Path" class="top-prim" d="M380,629.3116l15-8.66,5,2.887-20,11.5468Z"/>
    <path id="Path-92" data-name="Path" class="top-prim" d="M120,629.3116l-15-8.66-5,2.887,20,11.5468Z"/>
    <path id="Path-93" data-name="Path" class="top-prim" d="M290,900.6664l15-8.66,5,2.8867L290,906.44Z"/>
    <path id="Path-94" data-name="Path" class="top-prim" d="M210,900.6664l-15-8.66-5,2.8867L210,906.44Z"/>
    <path id="Path-95" data-name="Path" class="top-prim" d="M290,334.8632l15-8.66,5,2.8866-20,11.547Z"/>
    <path id="Path-96" data-name="Path" class="top-prim" d="M210,334.8632l-15-8.66-5,2.8866,20,11.547Z"/>
    <path id="Path-97" data-name="Path" class="top-prim" d="M290,404.1451l15-8.66,5,2.8867-20,11.547Z"/>
    <path id="Path-98" data-name="Path" class="top-prim" d="M210,404.1451l-15-8.66-5,2.8867,20,11.547Z"/>
    <path id="Path-99" data-name="Path" class="top-prim" d="M290,473.4272l15-8.66,5,2.8867-20,11.547Z"/>
    <path id="Path-100" data-name="Path" class="top-prim" d="M210,473.4272l-15-8.66-5,2.8867,20,11.547Z"/>
    <path id="Path-101" data-name="Path" class="top-prim" d="M290,542.7094l15-8.66,5,2.8869-20,11.5469Z"/>
    <path id="Path-102" data-name="Path" class="top-prim" d="M210,542.7094l-15-8.66-5,2.8869,20,11.5469Z"/>
    <path id="Path-103" data-name="Path" class="top-prim" d="M290,611.9913l15-8.66,5,2.887-20,11.5469Z"/>
    <path id="Path-104" data-name="Path" class="top-prim" d="M210,611.9913l-15-8.66-5,2.887,20,11.5469Z"/>
    <path id="Path-105" data-name="Path" class="top-prim" d="M290,681.2733l15-8.66,5,2.8867-20,11.5469Z"/>
    <path id="Path-106" data-name="Path" class="top-prim" d="M210,681.2733l-15-8.66L190,675.5l20,11.5469Z"/>
    <path id="Path-107" data-name="Path" class="top-prim" d="M350,866.0255l15-8.66,5,2.8867L350,871.799Z"/>
    <path id="Path-108" data-name="Path" class="top-prim" d="M150,866.0255l-15-8.66-5,2.8867,20,11.5472Z"/>
    <path id="Path-109" data-name="Path" class="top-prim" d="M350,300.2222l15-8.66,5,2.8867-20,11.547Z"/>
    <path id="Path-110" data-name="Path" class="top-prim" d="M150,300.2222l-15-8.66-5,2.8867,20,11.547Z"/>
    <path id="Path-111" data-name="Path" class="top-prim" d="M350,369.5042l15-8.66,5,2.8866-20,11.5471Z"/>
    <path id="Path-112" data-name="Path" class="top-prim" d="M150,369.5042l-15-8.66-5,2.8866,20,11.5471Z"/>
    <path id="Path-113" data-name="Path" class="top-prim" d="M350,438.7863l15-8.66,5,2.8867L350,444.56Z"/>
    <path id="Path-114" data-name="Path" class="top-prim" d="M150,438.7863l-15-8.66-5,2.8867,20,11.547Z"/>
    <path id="Path-115" data-name="Path" class="top-prim" d="M350,508.0682l15-8.66,5,2.8867-20,11.547Z"/>
    <path id="Path-116" data-name="Path" class="top-prim" d="M150,508.0682l-15-8.66-5,2.8867,20,11.547Z"/>
    <path id="Path-117" data-name="Path" class="top-prim" d="M350,577.35l15-8.66,5,2.8867-20,11.5469Z"/>
    <path id="Path-118" data-name="Path" class="top-prim" d="M150,577.35l-15-8.66-5,2.8867,20,11.5469Z"/>
    <path id="Path-119" data-name="Path" class="top-prim" d="M350,646.6324l15-8.66,5,2.8868-20,11.5468Z"/>
    <path id="Path-120" data-name="Path" class="top-prim" d="M150,646.6324l-15-8.66-5,2.8868,20,11.5468Z"/>
    <path id="Path-121" data-name="Path" class="top-prim" d="M410,831.3844l15-8.66,5,2.8868-20,11.5468Z"/>
    <path id="Path-122" data-name="Path" class="top-prim" d="M90,831.3844l-15-8.66-5,2.8868,20,11.5468Z"/>
    <path id="Path-123" data-name="Path" class="top-prim" d="M440,814.0638l15-8.66,5,2.8867-20,11.5469Z"/>
    <path id="Path-124" data-name="Path" class="top-prim" d="M60,814.0638l-15-8.66L40,808.29l20,11.5469Z"/>
    <path id="Path-125" data-name="Path" class="top-prim" d="M440,248.2606l15-8.66,5,2.8869-20,11.547Z"/>
    <path id="Path-126" data-name="Path" class="top-prim" d="M60,248.2606,45,239.6l-5,2.8869,20,11.547Z"/>
    <path id="Path-127" data-name="Path" class="top-prim" d="M440,386.8247l15-8.66,5,2.8868-20,11.547Z"/>
    <path id="Path-128" data-name="Path" class="top-prim" d="M60,386.8247l-15-8.66-5,2.8868,20,11.547Z"/>
    <path id="Path-129" data-name="Path" class="top-prim" d="M440,525.3888l15-8.66,5,2.8869-20,11.5468Z"/>
    <path id="Path-130" data-name="Path" class="top-prim" d="M60,525.3888l-15-8.66-5,2.8869,20,11.5468Z"/>
    <path id="Path-131" data-name="Path" class="top-prim" d="M440,317.5426l15-8.66,5,2.8869-20,11.5469Z"/>
    <path id="Path-132" data-name="Path" class="top-prim" d="M60,317.5426l-15-8.66-5,2.8869,20,11.5469Z"/>
    <path id="Path-133" data-name="Path" class="top-prim" d="M440,456.1067l15-8.66,5,2.8869L440,461.88Z"/>
    <path id="Path-134" data-name="Path" class="top-prim" d="M60,456.1067l-15-8.66-5,2.8869L60,461.88Z"/>
    <path id="Path-135" data-name="Path" class="top-prim" d="M440,594.6708l15-8.66,5,2.8867-20,11.5472Z"/>
    <path id="Path-136" data-name="Path" class="top-prim" d="M60,594.6708l-15-8.66-5,2.8867,20,11.5472Z"/>
    <path id="Path-137" data-name="Path" class="top-prim" d="M470,265.5813l15-8.66,5,2.8868-20,11.547Z"/>
    <path id="Path-138" data-name="Path" class="top-prim" d="M30,265.5813l-15-8.66-5,2.8868,20,11.547Z"/>
    <path id="Path-139" data-name="Path" class="top-prim" d="M470,404.1454l15-8.66,5,2.8867-20,11.547Z"/>
    <path id="Path-140" data-name="Path" class="top-prim" d="M30,404.1454l-15-8.66-5,2.8867,20,11.547Z"/>
    <path id="Path-141" data-name="Path" class="top-prim" d="M470,542.7094l15-8.66,5,2.8867L470,548.483Z"/>
    <path id="Path-142" data-name="Path" class="top-prim" d="M30,542.7094l-15-8.66-5,2.8867L30,548.483Z"/>
    <path id="Path-143" data-name="Path" class="top-prim" d="M470,681.2736l15-8.66,5,2.8867L470,687.047Z"/>
    <path id="Path-144" data-name="Path" class="top-prim" d="M30,681.2736l-15-8.66L10,675.5,30,687.047Z"/>
    <path id="Path-145" data-name="Path" class="top-prim" d="M470,334.8632l15-8.66,5,2.8866-20,11.547Z"/>
    <path id="Path-146" data-name="Path" class="top-prim" d="M30,334.8632l-15-8.66L10,329.09l20,11.547Z"/>
    <path id="Path-147" data-name="Path" class="top-prim" d="M470,473.4272l15-8.66,5,2.8868-20,11.547Z"/>
    <path id="Path-148" data-name="Path" class="top-prim" d="M30,473.4272l-15-8.66-5,2.8868,20,11.547Z"/>
    <path id="Path-149" data-name="Path" class="top-prim" d="M470,611.9913l15-8.66,5,2.887-20,11.5469Z"/>
    <path id="Path-150" data-name="Path" class="top-prim" d="M30,611.9913l-15-8.66-5,2.887,20,11.5469Z"/>
    <path id="Path-151" data-name="Path" class="top-prim" d="M470,300.2223l15-8.66,5,2.8868-20,11.547Z"/>
    <path id="Path-152" data-name="Path" class="top-prim" d="M30,300.2223l-15-8.66-5,2.8868,20,11.547Z"/>
    <path id="Path-153" data-name="Path" class="top-prim" d="M470,438.7864l15-8.66,5,2.8867L470,444.56Z"/>
    <path id="Path-154" data-name="Path" class="top-prim" d="M30,438.7864l-15-8.66-5,2.8867L30,444.56Z"/>
    <path id="Path-155" data-name="Path" class="top-prim" d="M470,577.3505l15-8.66,5,2.8869-20,11.5469Z"/>
    <path id="Path-156" data-name="Path" class="top-prim" d="M30,577.3505l-15-8.66-5,2.8869,20,11.5469Z"/>
    <path id="Path-157" data-name="Path" class="top-prim" d="M470,715.9144l15-8.66,5,2.8867-20,11.5469Z"/>
    <path id="Path-158" data-name="Path" class="top-prim" d="M30,715.9144l-15-8.66-5,2.8867,20,11.5469Z"/>
    <path id="Path-159" data-name="Path" class="top-prim" d="M470,230.94l15-8.66,5,2.8867-20,11.547Z"/>
    <path id="Path-160" data-name="Path" class="top-prim" d="M30,230.94l-15-8.66-5,2.8867,20,11.547Z"/>
    <path id="Path-161" data-name="Path" class="top-prim" d="M470,369.5042l15-8.66,5,2.8867-20,11.547Z"/>
    <path id="Path-162" data-name="Path" class="top-prim" d="M30,369.5042l-15-8.66-5,2.8867,20,11.547Z"/>
    <path id="Path-163" data-name="Path" class="top-prim" d="M470,508.0682l15-8.66,5,2.8867-20,11.547Z"/>
    <path id="Path-164" data-name="Path" class="top-prim" d="M30,508.0682l-15-8.66-5,2.8867,20,11.547Z"/>
    <path id="Path-165" data-name="Path" class="top-prim" d="M470,646.6324l15-8.66,5,2.8868-20,11.5471Z"/>
    <path id="Path-166" data-name="Path" class="top-prim" d="M30,646.6324l-15-8.66-5,2.8868,20,11.5471Z"/>
    <path id="Path-167" data-name="Path" class="top-prim" d="M470,785.1964l15-8.66,5,2.8867L470,790.97Z"/>
    <path id="Path-168" data-name="Path" class="top-prim" d="M30,785.1964l-15-8.66-5,2.8867L30,790.97Z"/>
    <path id="Path-169" data-name="Path" class="top-prim" d="M470,819.8375l15-8.66,5,2.8867L470,825.611Z"/>
    <path id="Path-170" data-name="Path" class="top-prim" d="M30,819.8375l-15-8.66-5,2.8867L30,825.611Z"/>
    <path id="Path-171" data-name="Path" class="top-prim" d="M440,282.9016l15-8.66,5,2.8867-20,11.547Z"/>
    <path id="Path-172" data-name="Path" class="top-prim" d="M60,282.9016l-15-8.66-5,2.8867,20,11.547Z"/>
    <path id="Path-173" data-name="Path" class="top-prim" d="M440,421.4657l15-8.66,5,2.8867-20,11.547Z"/>
    <path id="Path-174" data-name="Path" class="top-prim" d="M60,421.4657l-15-8.66-5,2.8867,20,11.547Z"/>
    <path id="Path-175" data-name="Path" class="top-prim" d="M440,560.03l15-8.66,5,2.887-20,11.5468Z"/>
    <path id="Path-176" data-name="Path" class="top-prim" d="M60,560.03l-15-8.66-5,2.887,20,11.5468Z"/>
    <path id="Path-177" data-name="Path" class="top-prim" d="M440,352.1836l15-8.66,5,2.8869-20,11.547Z"/>
    <path id="Path-178" data-name="Path" class="top-prim" d="M60,352.1836l-15-8.66L40,346.41l20,11.547Z"/>
    <path id="Path-179" data-name="Path" class="top-prim" d="M440,490.7478l15-8.66,5,2.8868-20,11.547Z"/>
    <path id="Path-180" data-name="Path" class="top-prim" d="M60,490.7478l-15-8.66-5,2.8868,20,11.547Z"/>
    <path id="Path-181" data-name="Path" class="top-prim" d="M440,629.3119l15-8.66,5,2.887-20,11.5468Z"/>
    <path id="Path-182" data-name="Path" class="top-prim" d="M60,629.3119l-15-8.66-5,2.887,20,11.5468Z"/>
    <path id="Path-183" data-name="Path" class="top-prim" d="M410,265.5812l15-8.66,5,2.8867-20,11.547Z"/>
    <path id="Path-184" data-name="Path" class="top-prim" d="M90,265.5812l-15-8.66-5,2.8867,20,11.547Z"/>
    <path id="Path-185" data-name="Path" class="top-prim" d="M410,334.8632l15-8.66,5,2.8866-20,11.547Z"/>
    <path id="Path-186" data-name="Path" class="top-prim" d="M90,334.8632l-15-8.66L70,329.09l20,11.547Z"/>
    <path id="Path-187" data-name="Path" class="top-prim" d="M410,404.1453l15-8.66,5,2.8867-20,11.547Z"/>
    <path id="Path-188" data-name="Path" class="top-prim" d="M90,404.1453l-15-8.66-5,2.8867,20,11.547Z"/>
    <path id="Path-189" data-name="Path" class="top-prim" d="M410,473.4272l15-8.66,5,2.8867-20,11.547Z"/>
    <path id="Path-190" data-name="Path" class="top-prim" d="M90,473.4272l-15-8.66-5,2.8867,20,11.547Z"/>
    <path id="Path-191" data-name="Path" class="top-prim" d="M410,542.7094l15-8.66,5,2.8867-20,11.5471Z"/>
    <path id="Path-192" data-name="Path" class="top-prim" d="M90,542.7094l-15-8.66-5,2.8867,20,11.5471Z"/>
    <path id="Path-193" data-name="Path" class="top-prim" d="M410,611.9913l15-8.66,5,2.887-20,11.5469Z"/>
    <path id="Path-194" data-name="Path" class="top-prim" d="M90,611.9913l-15-8.66-5,2.887,20,11.5469Z"/>
    <path id="Path-195" data-name="Path" class="top-prim" d="M260,386.8247l15-8.66,5,2.8867-20,11.547Z"/>
    <path id="Path-196" data-name="Path" class="top-prim" d="M240,386.8247l-15-8.66-5,2.8867,20,11.547Z"/>
    <path id="Path-197" data-name="Path" class="top-prim" d="M260,456.1067l15-8.66,5,2.8867L260,461.88Z"/>
    <path id="Path-198" data-name="Path" class="top-prim" d="M240,456.1067l-15-8.66-5,2.8867,20,11.547Z"/>
    <path id="Path-199" data-name="Path" class="top-prim" d="M260,525.3888l15-8.66,5,2.8869-20,11.5468Z"/>
    <path id="Path-200" data-name="Path" class="top-prim" d="M240,525.3888l-15-8.66-5,2.8869,20,11.5468Z"/>
    <path id="Path-201" data-name="Path" class="top-prim" d="M260,594.6708l15-8.66,5,2.8867-20,11.5469Z"/>
    <path id="Path-202" data-name="Path" class="top-prim" d="M240,594.6708l-15-8.66-5,2.8867,20,11.5469Z"/>
    <path id="Path-203" data-name="Path" class="top-prim" d="M260,663.9528l15-8.66,5,2.8867-20,11.5469Z"/>
    <path id="Path-204" data-name="Path" class="top-prim" d="M240,663.9528l-15-8.66-5,2.8867,20,11.5469Z"/>
    <path id="Path-205" data-name="Path" class="top-prim" d="M260,733.2347l15-8.66,5,2.8867-20,11.5471Z"/>
    <path id="Path-206" data-name="Path" class="top-prim" d="M240,733.2347l-15-8.66-5,2.8867,20,11.5471Z"/>
    <path id="Path-207" data-name="Path" class="top-prim" d="M320,352.1836l15-8.66,5,2.8869-20,11.547Z"/>
    <path id="Path-208" data-name="Path" class="top-prim" d="M180,352.1836l-15-8.66-5,2.8869,20,11.547Z"/>
    <path id="Path-209" data-name="Path" class="top-prim" d="M320,421.4657l15-8.66,5,2.8867-20,11.547Z"/>
    <path id="Path-210" data-name="Path" class="top-prim" d="M180,421.4657l-15-8.66-5,2.8867,20,11.547Z"/>
    <path id="Path-211" data-name="Path" class="top-prim" d="M320,490.7478l15-8.66,5,2.8868-20,11.547Z"/>
    <path id="Path-212" data-name="Path" class="top-prim" d="M180,490.7478l-15-8.66-5,2.8868,20,11.547Z"/>
    <path id="Path-213" data-name="Path" class="top-prim" d="M320,560.03l15-8.66,5,2.8867-20,11.5471Z"/>
    <path id="Path-214" data-name="Path" class="top-prim" d="M180,560.03l-15-8.66-5,2.8867,20,11.5471Z"/>
    <path id="Path-215" data-name="Path" class="top-prim" d="M320,629.3116l15-8.66,5,2.8867-20,11.5471Z"/>
    <path id="Path-216" data-name="Path" class="top-prim" d="M180,629.3116l-15-8.66-5,2.8867,20,11.5471Z"/>
    <path id="Path-217" data-name="Path" class="top-prim" d="M320,698.5939l15-8.66,5,2.8867-20,11.5471Z"/>
    <path id="Path-218" data-name="Path" class="top-prim" d="M180,698.5939l-15-8.66-5,2.8867,20,11.5471Z"/>
    <path id="Path-219" data-name="Path" class="top-prim" d="M380,317.5426l15-8.66,5,2.8869-20,11.547Z"/>
    <path id="Path-220" data-name="Path" class="top-prim" d="M120,317.5426l-15-8.66-5,2.8869,20,11.547Z"/>
    <path id="Path-221" data-name="Path" class="top-prim" d="M380,386.8247l15-8.66,5,2.8868-20,11.547Z"/>
    <path id="Path-222" data-name="Path" class="top-prim" d="M120,386.8247l-15-8.66-5,2.8868,20,11.547Z"/>
    <path id="Path-223" data-name="Path" class="top-prim" d="M380,456.1068l15-8.66,5,2.8869L380,461.88Z"/>
    <path id="Path-224" data-name="Path" class="top-prim" d="M120,456.1068l-15-8.66-5,2.8869L120,461.88Z"/>
    <path id="Path-225" data-name="Path" class="top-prim" d="M380,525.3888l15-8.66,5,2.8869-20,11.5468Z"/>
    <path id="Path-226" data-name="Path" class="top-prim" d="M120,525.3888l-15-8.66-5,2.8869,20,11.5468Z"/>
    <path id="Path-227" data-name="Path" class="top-prim" d="M380,594.6708l15-8.66,5,2.8867-20,11.5469Z"/>
    <path id="Path-228" data-name="Path" class="top-prim" d="M120,594.6708l-15-8.66-5,2.8867,20,11.5469Z"/>
    <path id="Path-229" data-name="Path" class="top-prim" d="M380,663.9528l15-8.66,5,2.8867-20,11.5471Z"/>
    <path id="Path-230" data-name="Path" class="top-prim" d="M120,663.9528l-15-8.66-5,2.8867,20,11.5471Z"/>
    <path id="Path-231" data-name="Path" class="top-prim" d="M290,369.5042l15-8.66,5,2.8866-20,11.5471Z"/>
    <path id="Path-232" data-name="Path" class="top-prim" d="M210,369.5042l-15-8.66-5,2.8866,20,11.5471Z"/>
    <path id="Path-233" data-name="Path" class="top-prim" d="M290,438.7861l15-8.66,5,2.8867L290,444.56Z"/>
    <path id="Path-234" data-name="Path" class="top-prim" d="M210,438.7861l-15-8.66-5,2.8867,20,11.547Z"/>
    <path id="Path-235" data-name="Path" class="top-prim" d="M290,508.0682l15-8.66,5,2.8867-20,11.547Z"/>
    <path id="Path-236" data-name="Path" class="top-prim" d="M210,508.0682l-15-8.66-5,2.8867,20,11.547Z"/>
    <path id="Path-237" data-name="Path" class="top-prim" d="M290,577.35l15-8.66,5,2.8867-20,11.5469Z"/>
    <path id="Path-238" data-name="Path" class="top-prim" d="M210,577.35l-15-8.66-5,2.8867,20,11.5469Z"/>
    <path id="Path-239" data-name="Path" class="top-prim" d="M290,646.6322l15-8.66,5,2.8868-20,11.5468Z"/>
    <path id="Path-240" data-name="Path" class="top-prim" d="M210,646.6322l-15-8.66-5,2.8868,20,11.5468Z"/>
    <path id="Path-241" data-name="Path" class="top-prim" d="M290,715.9144l15-8.66,5,2.8867-20,11.5472Z"/>
    <path id="Path-242" data-name="Path" class="top-prim" d="M210,715.9144l-15-8.66-5,2.8867,20,11.5472Z"/>
    <path id="Path-243" data-name="Path" class="top-prim" d="M350,334.8632l15-8.66,5,2.8867-20,11.547Z"/>
    <path id="Path-244" data-name="Path" class="top-prim" d="M150,334.8632l-15-8.66-5,2.8867,20,11.547Z"/>
    <path id="Path-245" data-name="Path" class="top-prim" d="M350,404.1451l15-8.66,5,2.8867-20,11.547Z"/>
    <path id="Path-246" data-name="Path" class="top-prim" d="M150,404.1451l-15-8.66-5,2.8867,20,11.547Z"/>
    <path id="Path-247" data-name="Path" class="top-prim" d="M350,473.4272l15-8.66,5,2.8868-20,11.547Z"/>
    <path id="Path-248" data-name="Path" class="top-prim" d="M150,473.4272l-15-8.66-5,2.8868,20,11.547Z"/>
    <path id="Path-249" data-name="Path" class="top-prim" d="M350,542.7094l15-8.66,5,2.8867-20,11.5471Z"/>
    <path id="Path-250" data-name="Path" class="top-prim" d="M150,542.7094l-15-8.66-5,2.8867,20,11.5471Z"/>
    <path id="Path-251" data-name="Path" class="top-prim" d="M350,611.9913l15-8.66,5,2.8868-20,11.5471Z"/>
    <path id="Path-252" data-name="Path" class="top-prim" d="M150,611.9913l-15-8.66-5,2.8868,20,11.5471Z"/>
    <path id="Path-253" data-name="Path" class="top-prim" d="M350,681.2733l15-8.66,5,2.8864-20,11.5472Z"/>
    <path id="Path-254" data-name="Path" class="top-prim" d="M150,681.2733l-15-8.66L130,675.5l20,11.5472Z"/>
    <path id="Path-255" data-name="Path" class="top-prim" d="M410,300.2222l15-8.66,5,2.8867-20,11.547Z"/>
    <path id="Path-256" data-name="Path" class="top-prim" d="M90,300.2222l-15-8.66-5,2.8867,20,11.547Z"/>
    <path id="Path-257" data-name="Path" class="top-prim" d="M410,369.5042l15-8.66,5,2.8866-20,11.5471Z"/>
    <path id="Path-258" data-name="Path" class="top-prim" d="M90,369.5042l-15-8.66-5,2.8866,20,11.5471Z"/>
    <path id="Path-259" data-name="Path" class="top-prim" d="M410,438.7863l15-8.66,5,2.8867L410,444.56Z"/>
    <path id="Path-260" data-name="Path" class="top-prim" d="M90,438.7863l-15-8.66-5,2.8867L90,444.56Z"/>
    <path id="Path-261" data-name="Path" class="top-prim" d="M410,508.0682l15-8.66,5,2.8867-20,11.547Z"/>
    <path id="Path-262" data-name="Path" class="top-prim" d="M90,508.0682l-15-8.66-5,2.8867,20,11.547Z"/>
    <path id="Path-263" data-name="Path" class="top-prim" d="M410,577.35l15-8.66,5,2.8867-20,11.5469Z"/>
    <path id="Path-264" data-name="Path" class="top-prim" d="M90,577.35l-15-8.66-5,2.8867,20,11.5469Z"/>
    <path id="Path-265" data-name="Path" class="top-prim" d="M410,646.6322l15-8.66,5,2.8868-20,11.5471Z"/>
    <path id="Path-266" data-name="Path" class="top-prim" d="M90,646.6322l-15-8.66-5,2.8868,20,11.5471Z"/>
    <path id="Path-267" data-name="Path" class="top-prim" d="M440,663.9528l15-8.66,5,2.8867-20,11.5471Z"/>
    <path id="Path-268" data-name="Path" class="top-prim" d="M260,767.8759l15-8.66,5,2.8869-20,11.5469Z"/>
    <path id="Path-269" data-name="Path" class="top-prim" d="M320,733.2347l15-8.66,5,2.8867-20,11.5469Z"/>
    <path id="Path-270" data-name="Path" class="top-prim" d="M380,698.5939l15-8.66,5,2.8869-20,11.5469Z"/>
    <path id="Path-271" data-name="Path" class="top-prim" d="M290,750.5553l15-8.66,5,2.8868-20,11.5468Z"/>
    <path id="Path-272" data-name="Path" class="top-prim" d="M350,715.9142l15-8.66,5,2.8867-20,11.5472Z"/>
    <path id="Path-273" data-name="Path" class="top-prim" d="M410,681.2733l15-8.66,5,2.8867-20,11.5469Z"/>
    <path id="Path-274" data-name="Path" class="top-prim" d="M60,663.9528l-15-8.66-5,2.8867,20,11.5471Z"/>
    <path id="Path-275" data-name="Path" class="top-prim" d="M240,767.8759l-15-8.66-5,2.8869,20,11.5469Z"/>
    <path id="Path-276" data-name="Path" class="top-prim" d="M180,733.2347l-15-8.66-5,2.8867,20,11.5469Z"/>
    <path id="Path-277" data-name="Path" class="top-prim" d="M120,698.5939l-15-8.66-5,2.8869,20,11.5469Z"/>
    <path id="Path-278" data-name="Path" class="top-prim" d="M210,750.5553l-15-8.66-5,2.8868,20,11.5468Z"/>
    <path id="Path-279" data-name="Path" class="top-prim" d="M150,715.9142l-15-8.66-5,2.8867,20,11.5472Z"/>
    <path id="Path-280" data-name="Path" class="top-prim" d="M90,681.2733l-15-8.66L70,675.5l20,11.5469Z"/>
    <path id="Path-281" data-name="Path" class="top-prim" d="M440,698.5939l15-8.66,5,2.8867-20,11.5471Z"/>
    <path id="Path-282" data-name="Path" class="top-prim" d="M260,802.5167l15-8.66,5,2.8867L260,808.29Z"/>
    <path id="Path-283" data-name="Path" class="top-prim" d="M320,767.8759l15-8.66,5,2.8867-20,11.5471Z"/>
    <path id="Path-284" data-name="Path" class="top-prim" d="M380,733.2347l15-8.66,5,2.887-20,11.5469Z"/>
    <path id="Path-285" data-name="Path" class="top-prim" d="M290,785.1962l15-8.66,5,2.8867L290,790.97Z"/>
    <path id="Path-286" data-name="Path" class="top-prim" d="M350,750.5553l15-8.66,5,2.887-20,11.5468Z"/>
    <path id="Path-287" data-name="Path" class="top-prim" d="M410,715.9142l15-8.66,5,2.8867-20,11.5472Z"/>
    <path id="Path-288" data-name="Path" class="top-prim" d="M60,698.5939l-15-8.66L40,692.82l20,11.5471Z"/>
    <path id="Path-289" data-name="Path" class="top-prim" d="M240,802.5167l-15-8.66-5,2.8867L240,808.29Z"/>
    <path id="Path-290" data-name="Path" class="top-prim" d="M180,767.8759l-15-8.66-5,2.8867,20,11.5471Z"/>
    <path id="Path-291" data-name="Path" class="top-prim" d="M120,733.2347l-15-8.66-5,2.887,20,11.5469Z"/>
    <path id="Path-292" data-name="Path" class="top-prim" d="M210,785.1962l-15-8.66-5,2.8867L210,790.97Z"/>
    <path id="Path-293" data-name="Path" class="top-prim" d="M150,750.5553l-15-8.66-5,2.887,20,11.5468Z"/>
    <path id="Path-294" data-name="Path" class="top-prim" d="M90,715.9142l-15-8.66-5,2.8867,20,11.5472Z"/>
    <path id="Path-295" data-name="Path" class="top-prim" d="M440,767.8759l15-8.66,5,2.8867L440,773.65Z"/>
    <path id="Path-296" data-name="Path" class="top-prim" d="M260,871.799l15-8.66,5,2.887-20,11.5469Z"/>
    <path id="Path-297" data-name="Path" class="top-prim" d="M320,837.1578l15-8.66,5,2.8867-20,11.5469Z"/>
    <path id="Path-298" data-name="Path" class="top-prim" d="M380,802.517l15-8.66,5,2.8869L380,808.29Z"/>
    <path id="Path-299" data-name="Path" class="top-prim" d="M290,854.4784l15-8.66,5,2.8868-20,11.5468Z"/>
    <path id="Path-300" data-name="Path" class="top-prim" d="M350,819.8373l15-8.66,5,2.8867L350,825.611Z"/>
    <path id="Path-301" data-name="Path" class="top-prim" d="M410,785.1964l15-8.66,5,2.8867L410,790.97Z"/>
    <path id="Path-302" data-name="Path" class="top-prim" d="M60,767.8759l-15-8.66-5,2.8867L60,773.65Z"/>
    <path id="Path-303" data-name="Path" class="top-prim" d="M240,871.799l-15-8.66-5,2.887,20,11.5469Z"/>
    <path id="Path-304" data-name="Path" class="top-prim" d="M180,837.1578l-15-8.66-5,2.8867,20,11.5469Z"/>
    <path id="Path-305" data-name="Path" class="top-prim" d="M120,802.517l-15-8.66-5,2.8869L120,808.29Z"/>
    <path id="Path-306" data-name="Path" class="top-prim" d="M210,854.4784l-15-8.66-5,2.8868,20,11.5468Z"/>
    <path id="Path-307" data-name="Path" class="top-prim" d="M150,819.8373l-15-8.66-5,2.8867,20,11.5472Z"/>
    <path id="Path-308" data-name="Path" class="top-prim" d="M90,785.1964l-15-8.66-5,2.8867L90,790.97Z"/>
    <path id="Path-309" data-name="Path" class="top-prim" d="M440,733.2347l15-8.66,5,2.8867-20,11.5471Z"/>
    <path id="Path-310" data-name="Path" class="top-prim" d="M260,837.1578l15-8.66,5,2.887-20,11.5469Z"/>
    <path id="Path-311" data-name="Path" class="top-prim" d="M320,802.5167l15-8.66,5,2.8867L320,808.29Z"/>
    <path id="Path-312" data-name="Path" class="top-prim" d="M380,767.8759l15-8.66,5,2.8867-20,11.5471Z"/>
    <path id="Path-313" data-name="Path" class="top-prim" d="M290,819.8373l15-8.66,5,2.8867L290,825.611Z"/>
    <path id="Path-314" data-name="Path" class="top-prim" d="M350,785.1962l15-8.66,5,2.8867L350,790.97Z"/>
    <path id="Path-315" data-name="Path" class="top-prim" d="M410,750.5553l15-8.66,5,2.8868-20,11.5468Z"/>
    <path id="Path-316" data-name="Path" class="top-prim" d="M60,733.2347l-15-8.66-5,2.8867,20,11.5471Z"/>
    <path id="Path-317" data-name="Path" class="top-prim" d="M240,837.1578l-15-8.66-5,2.887,20,11.5469Z"/>
    <path id="Path-318" data-name="Path" class="top-prim" d="M180,802.5167l-15-8.66-5,2.8867L180,808.29Z"/>
    <path id="Path-319" data-name="Path" class="top-prim" d="M120,767.8759l-15-8.66-5,2.8867,20,11.5471Z"/>
    <path id="Path-320" data-name="Path" class="top-prim" d="M210,819.8373l-15-8.66-5,2.8867,20,11.5472Z"/>
    <path id="Path-321" data-name="Path" class="top-prim" d="M150,785.1962l-15-8.66-5,2.8867L150,790.97Z"/>
    <path id="Path-322" data-name="Path" class="top-prim" d="M90,750.5553l-15-8.66-5,2.8868,20,11.5468Z"/>
    <path id="Path-323" data-name="Path" class="top-prim" d="M440,802.517l15-8.66,5,2.8869L440,808.29Z"/>
    <path id="Path-324" data-name="Path" class="top-prim" d="M260,906.44l15-8.66,5,2.8867-20,11.5471Z"/>
    <path id="Path-325" data-name="Path" class="top-prim" d="M320,871.799l15-8.66,5,2.887-20,11.5469Z"/>
    <path id="Path-326" data-name="Path" class="top-prim" d="M380,837.1578l15-8.66,5,2.8867-20,11.5471Z"/>
    <path id="Path-327" data-name="Path" class="top-prim" d="M290,889.12l15-8.66,5,2.8867-20,11.5468Z"/>
    <path id="Path-328" data-name="Path" class="top-prim" d="M350,854.4784l15-8.66,5,2.8868-20,11.5468Z"/>
    <path id="Path-329" data-name="Path" class="top-prim" d="M410,819.8375l15-8.66,5,2.8867L410,825.611Z"/>
    <path id="Path-330" data-name="Path" class="top-prim" d="M60,802.517l-15-8.66-5,2.8869L60,808.29Z"/>
    <path id="Path-331" data-name="Path" class="top-prim" d="M240,906.44l-15-8.66-5,2.8867,20,11.5471Z"/>
    <path id="Path-332" data-name="Path" class="top-prim" d="M180,871.799l-15-8.66-5,2.887,20,11.5469Z"/>
    <path id="Path-333" data-name="Path" class="top-prim" d="M120,837.1578l-15-8.66-5,2.8867,20,11.5471Z"/>
    <path id="Path-334" data-name="Path" class="top-prim" d="M210,889.12l-15-8.66-5,2.8867,20,11.5468Z"/>
    <path id="Path-335" data-name="Path" class="top-prim" d="M150,854.4784l-15-8.66-5,2.8868,20,11.5468Z"/>
    <path id="Path-336" data-name="Path" class="top-prim" d="M90,819.8375l-15-8.66-5,2.8867L90,825.611Z"/>
    <path id="Path-337" data-name="Path" class="top-prim" d="M440,837.1581l15-8.66,5,2.8869-20,11.5469Z"/>
    <path id="Path-338" data-name="Path" class="top-prim" d="M260,941.0809l15-8.66,5,2.8867-20,11.5471Z"/>
    <path id="Path-339" data-name="Path" class="top-prim" d="M320,906.44l15-8.66,5,2.8869-20,11.5469Z"/>
    <path id="Path-340" data-name="Path" class="top-prim" d="M380,871.799l15-8.66,5,2.8867-20,11.5471Z"/>
    <path id="Path-341" data-name="Path" class="top-prim" d="M290,923.7606l15-8.66,5,2.8864-20,11.5472Z"/>
    <path id="Path-342" data-name="Path" class="top-prim" d="M350,889.12l15-8.66,5,2.8867-20,11.5468Z"/>
    <path id="Path-343" data-name="Path" class="top-prim" d="M410,854.4786l15-8.66,5,2.8868-20,11.5471Z"/>
    <path id="Path-344" data-name="Path" class="exterior-R-prim" d="M250,398.3717v11.547L500,265.5811v-11.547Z"/>
    <path id="Path-345" data-name="Path" class="exterior-L-prim" d="M250,398.3717v11.547L0,265.5811v-11.547Z"/>
    <path id="Path-346" data-name="Path" class="exterior-R-prim" d="M250,467.6538v11.5469L500,334.863V323.316Z"/>
    <path id="Path-347" data-name="Path" class="exterior-L-prim" d="M250,467.6538v11.5469L0,334.863V323.316Z"/>
    <path id="Path-348" data-name="Path" class="exterior-R-prim" d="M250,536.9359v11.5469L500,404.1451v-11.547Z"/>
    <path id="Path-349" data-name="Path" class="exterior-L-prim" d="M250,536.9359v11.5469L0,404.1451v-11.547Z"/>
    <path id="Path-350" data-name="Path" class="exterior-R-prim" d="M250,606.2179v11.5469L500,473.4271V461.88Z"/>
    <path id="Path-351" data-name="Path" class="exterior-L-prim" d="M250,606.2179v11.5469L0,473.4271V461.88Z"/>
    <path id="Path-352" data-name="Path" class="exterior-R-prim" d="M250,675.5v11.5469L500,542.7091V531.1622Z"/>
    <path id="Path-353" data-name="Path" class="exterior-L-prim" d="M250,675.5v11.5469L0,542.7091V531.1622Z"/>
    <path id="Path-354" data-name="Path" class="exterior-R-prim" d="M250,744.7819v11.5468L500,611.9913V600.4442Z"/>
    <path id="Path-355" data-name="Path" class="exterior-L-prim" d="M250,744.7819v11.5468L0,611.9913V600.4442Z"/>
    <path id="Path-356" data-name="Path" class="exterior-R-prim" d="M250,779.4227V790.97L500,646.6322V635.0853Z"/>
    <path id="Path-357" data-name="Path" class="exterior-L-prim" d="M250,779.4227V790.97L0,646.6322V635.0853Z"/>
    <path id="Path-358" data-name="Path" class="exterior-R-prim" d="M250,814.0638v11.5469L500,681.2733V669.7262Z"/>
    <path id="Path-359" data-name="Path" class="exterior-L-prim" d="M250,814.0638v11.5469L0,681.2733V669.7262Z"/>
    <path id="Path-360" data-name="Path" class="exterior-R-prim" d="M250,883.3461v11.5468L500,750.5555V739.0084Z"/>
    <path id="Path-361" data-name="Path" class="exterior-L-prim" d="M250,883.3461v11.5468L0,750.5555V739.0084Z"/>
    <path id="Path-362" data-name="Path" class="exterior-R-prim" d="M250,848.705v11.5468L500,715.9142V704.3673Z"/>
    <path id="Path-363" data-name="Path" class="exterior-L-prim" d="M250,848.705v11.5468L0,715.9142V704.3673Z"/>
    <path id="Path-364" data-name="Path" class="exterior-R-prim" d="M250,917.9869v11.5472L500,785.1964V773.65Z"/>
    <path id="Path-365" data-name="Path" class="exterior-L-prim" d="M250,917.9869v11.5472L0,785.1964V773.65Z"/>
    <path id="Path-366" data-name="Path" class="exterior-R-prim" d="M250,952.6278v11.5469L500,819.8373V808.29Z"/>
    <path id="Path-367" data-name="Path" class="exterior-L-prim" d="M250,952.6278v11.5469L0,819.8373V808.29Z"/>
  </g>
</svg>
