<svg id="Layer_1" data-name="Layer 1" xmlns="http://www.w3.org/2000/svg" viewBox="0 0 250 311.7692">
  <defs>
    <style>
      .top-dark {
        fill: #c67471;
      }

      .exterior-R-prim {
        fill: #d05752;
      }

      .exterior-L-prim {
        fill: #73302e;
      }

      .window-R-light {
        fill: #eacb87;
      }

      .top-prim {
        fill: #dd8a87;
      }

      .window-R-prim {
        fill: #bd9664;
      }

      .window-L-prim {
        fill: #4d3b24;
      }

      .window-L-light {
        fill: #795a30;
      }
    </style>
  </defs>
  <title>Artboard 7</title>
  <g id="root">
    <path id="anchor_0_144.338_250" class="top-dark" d="M0,69.282l160,92.3761,90-51.9615V92.376L90,0,0,51.9615Z"/>
    <path id="Path" class="exterior-R-prim" d="M155,141.4509l5,2.8867L250,92.376V259.8076l-90,51.9616-5-2.8868Z"/>
    <path id="Path-2" data-name="Path" class="exterior-L-prim" d="M160,144.3376,0,51.9615V219.3931l160,92.3761Z"/>
    <path id="Path-3" data-name="Path" class="window-R-light" d="M167.5,145.7809l35-20.2072v14.4337l-35,20.2073Z"/>
    <path id="Path-4" data-name="Path" class="top-prim" d="M167.5,154.4412l30-17.3205,5,2.8867-35,20.2073Z"/>
    <path id="Path-5" data-name="Path" class="exterior-L-prim" d="M197.5,137.1207v-8.66l5-2.8867v14.4337Z"/>
    <path id="Path-6" data-name="Path" class="window-R-prim" d="M172.5,142.8942l5-2.8868v8.66l-5,2.8867Z"/>
    <path id="Path-7" data-name="Path" class="window-R-prim" d="M182.5,137.1207l5-2.8868v8.66l-5,2.8867Z"/>
    <path id="Path-8" data-name="Path" class="window-R-prim" d="M192.5,131.3472l5-2.8868v8.66l-5,2.8867Z"/>
    <path id="Path-9" data-name="Path" class="window-R-light" d="M167.5,165.9882l35-20.2073v14.4338l-35,20.2073Z"/>
    <path id="Path-10" data-name="Path" class="top-prim" d="M167.5,174.6484l30-17.3205,5,2.8868-35,20.2072Z"/>
    <path id="Path-11" data-name="Path" class="exterior-L-prim" d="M197.5,157.3279v-8.66l5-2.8868v14.4338Z"/>
    <path id="Path-12" data-name="Path" class="window-R-prim" d="M172.5,163.1014l5-2.8867v8.66l-5,2.8868Z"/>
    <path id="Path-13" data-name="Path" class="window-R-prim" d="M182.5,157.3279l5-2.8867v8.66l-5,2.8868Z"/>
    <path id="Path-14" data-name="Path" class="window-R-prim" d="M192.5,151.5544l5-2.8867v8.66l-5,2.8868Z"/>
    <path id="Path-15" data-name="Path" class="window-R-light" d="M167.5,186.1954l35-20.2072v14.4337l-35,20.2073Z"/>
    <path id="Path-16" data-name="Path" class="top-prim" d="M167.5,194.8557l30-17.3205,5,2.8867-35,20.2073Z"/>
    <path id="Path-17" data-name="Path" class="exterior-L-prim" d="M197.5,177.5352v-8.66l5-2.8867v14.4337Z"/>
    <path id="Path-18" data-name="Path" class="window-R-prim" d="M172.5,183.3087l5-2.8868v8.66l-5,2.8867Z"/>
    <path id="Path-19" data-name="Path" class="window-R-prim" d="M182.5,177.5352l5-2.8868v8.66l-5,2.8867Z"/>
    <path id="Path-20" data-name="Path" class="window-R-prim" d="M192.5,171.7617l5-2.8867v8.66l-5,2.8867Z"/>
    <path id="Path-21" data-name="Path" class="window-R-light" d="M167.5,206.4027l35-20.2072v14.4337l-35,20.2073Z"/>
    <path id="Path-22" data-name="Path" class="top-prim" d="M167.5,215.063l30-17.32,5,2.8867-35,20.2073Z"/>
    <path id="Path-23" data-name="Path" class="exterior-L-prim" d="M197.5,197.7425v-8.66l5-2.8867v14.4337Z"/>
    <path id="Path-24" data-name="Path" class="window-R-prim" d="M172.5,203.516l5-2.8868v8.66l-5,2.8867Z"/>
    <path id="Path-25" data-name="Path" class="window-R-prim" d="M182.5,197.7425l5-2.8868v8.66l-5,2.8867Z"/>
    <path id="Path-26" data-name="Path" class="window-R-prim" d="M192.5,191.969l5-2.8868v8.66l-5,2.8867Z"/>
    <path id="Path-27" data-name="Path" class="window-R-light" d="M167.5,226.61l35-20.2073v14.4338l-35,20.2072Z"/>
    <path id="Path-28" data-name="Path" class="top-prim" d="M167.5,235.27l30-17.32,5,2.8868-35,20.2072Z"/>
    <path id="Path-29" data-name="Path" class="exterior-L-prim" d="M197.5,217.95v-8.66l5-2.8868v14.4338Z"/>
    <path id="Path-30" data-name="Path" class="window-R-prim" d="M172.5,223.7232l5-2.8867v8.66l-5,2.8868Z"/>
    <path id="Path-31" data-name="Path" class="window-R-prim" d="M182.5,217.95l5-2.8867v8.66l-5,2.8868Z"/>
    <path id="Path-32" data-name="Path" class="window-R-prim" d="M192.5,212.1762l5-2.8867v8.66l-5,2.8868Z"/>
    <path id="Path-33" data-name="Path" class="window-R-light" d="M167.5,246.8172l35-20.2072v14.4337l-35,20.2073Z"/>
    <path id="Path-34" data-name="Path" class="top-prim" d="M167.5,255.4775l30-17.32,5,2.8867-35,20.2073Z"/>
    <path id="Path-35" data-name="Path" class="exterior-L-prim" d="M197.5,238.157v-8.66l5-2.8867v14.4337Z"/>
    <path id="Path-36" data-name="Path" class="window-R-prim" d="M172.5,243.9305l5-2.8868v8.66l-5,2.8867Z"/>
    <path id="Path-37" data-name="Path" class="window-R-prim" d="M182.5,238.157l5-2.8868v8.66l-5,2.8867Z"/>
    <path id="Path-38" data-name="Path" class="window-R-prim" d="M192.5,232.3835l5-2.8868v8.66l-5,2.8867Z"/>
    <path id="Path-39" data-name="Path" class="window-R-light" d="M167.5,267.0245l35-20.2073V261.251l-35,20.2073Z"/>
    <path id="Path-40" data-name="Path" class="top-prim" d="M167.5,275.6847l30-17.3205,5,2.8868-35,20.2072Z"/>
    <path id="Path-41" data-name="Path" class="exterior-L-prim" d="M197.5,258.3642v-8.66l5-2.8868V261.251Z"/>
    <path id="Path-42" data-name="Path" class="window-R-prim" d="M172.5,264.1377l5-2.8867v8.66l-5,2.8868Z"/>
    <path id="Path-43" data-name="Path" class="window-R-prim" d="M182.5,258.3642l5-2.8867v8.66l-5,2.8868Z"/>
    <path id="Path-44" data-name="Path" class="window-R-prim" d="M192.5,252.5907l5-2.8867v8.66l-5,2.8868Z"/>
    <path id="Path-45" data-name="Path" class="window-R-light" d="M167.5,287.2317l35-20.2072v14.4337l-35,20.2073Z"/>
    <path id="Path-46" data-name="Path" class="top-prim" d="M167.5,295.892l30-17.32,5,2.8867-35,20.2073Z"/>
    <path id="Path-47" data-name="Path" class="exterior-L-prim" d="M197.5,278.5715v-8.66l5-2.8868v14.4337Z"/>
    <path id="Path-48" data-name="Path" class="window-R-prim" d="M172.5,284.345l5-2.8868v8.66l-5,2.8867Z"/>
    <path id="Path-49" data-name="Path" class="window-R-prim" d="M182.5,278.5715l5-2.8868v8.66l-5,2.8867Z"/>
    <path id="Path-50" data-name="Path" class="window-R-prim" d="M192.5,272.798l5-2.8867v8.66l-5,2.8867Z"/>
    <path id="Path-51" data-name="Path" class="window-R-light" d="M207.5,122.6869l35-20.2072v14.4337l-35,20.2073Z"/>
    <path id="Path-52" data-name="Path" class="top-prim" d="M207.5,131.3472l30-17.32,5,2.8867-35,20.2073Z"/>
    <path id="Path-53" data-name="Path" class="exterior-L-prim" d="M237.5,114.0267v-8.66l5-2.8867v14.4337Z"/>
    <path id="Path-54" data-name="Path" class="window-R-prim" d="M212.5,119.8l5-2.8868v8.66l-5,2.8867Z"/>
    <path id="Path-55" data-name="Path" class="window-R-prim" d="M222.5,114.0267l5-2.8868v8.66l-5,2.8867Z"/>
    <path id="Path-56" data-name="Path" class="window-R-prim" d="M232.5,108.2532l5-2.8868v8.66l-5,2.8867Z"/>
    <path id="Path-57" data-name="Path" class="window-R-light" d="M207.5,142.8942l35-20.2073v14.4338l-35,20.2073Z"/>
    <path id="Path-58" data-name="Path" class="top-prim" d="M207.5,151.5544l30-17.32,5,2.8868-35,20.2072Z"/>
    <path id="Path-59" data-name="Path" class="exterior-L-prim" d="M237.5,134.2339v-8.66l5-2.8868v14.4338Z"/>
    <path id="Path-60" data-name="Path" class="window-R-prim" d="M212.5,140.0074l5-2.8867v8.66l-5,2.8868Z"/>
    <path id="Path-61" data-name="Path" class="window-R-prim" d="M222.5,134.2339l5-2.8867v8.66l-5,2.8868Z"/>
    <path id="Path-62" data-name="Path" class="window-R-prim" d="M232.5,128.46l5-2.8867v8.66l-5,2.8868Z"/>
    <path id="Path-63" data-name="Path" class="window-R-light" d="M207.5,163.1014l35-20.2072v14.4337l-35,20.2073Z"/>
    <path id="Path-64" data-name="Path" class="top-prim" d="M207.5,171.7617l30-17.32,5,2.8867-35,20.2073Z"/>
    <path id="Path-65" data-name="Path" class="exterior-L-prim" d="M237.5,154.4412v-8.66l5-2.8867v14.4337Z"/>
    <path id="Path-66" data-name="Path" class="window-R-prim" d="M212.5,160.2147l5-2.8868v8.66l-5,2.8867Z"/>
    <path id="Path-67" data-name="Path" class="window-R-prim" d="M222.5,154.4412l5-2.8868v8.66l-5,2.8867Z"/>
    <path id="Path-68" data-name="Path" class="window-R-prim" d="M232.5,148.6677l5-2.8868v8.66l-5,2.8867Z"/>
    <path id="Path-69" data-name="Path" class="window-R-light" d="M207.5,183.3087l35-20.2073v14.4338l-35,20.2073Z"/>
    <path id="Path-70" data-name="Path" class="top-prim" d="M207.5,191.9689l30-17.32,5,2.8868-35,20.2072Z"/>
    <path id="Path-71" data-name="Path" class="exterior-L-prim" d="M237.5,174.6484v-8.66l5-2.8868v14.4338Z"/>
    <path id="Path-72" data-name="Path" class="window-R-prim" d="M212.5,180.4219l5-2.8867v8.66l-5,2.8868Z"/>
    <path id="Path-73" data-name="Path" class="window-R-prim" d="M222.5,174.6484l5-2.8867v8.66l-5,2.8868Z"/>
    <path id="Path-74" data-name="Path" class="window-R-prim" d="M232.5,168.8749l5-2.8867v8.66l-5,2.8868Z"/>
    <path id="Path-75" data-name="Path" class="window-R-light" d="M207.5,203.5159l35-20.2072v14.4338l-35,20.2072Z"/>
    <path id="Path-76" data-name="Path" class="top-prim" d="M207.5,212.1762l30-17.32,5,2.8868-35,20.2072Z"/>
    <path id="Path-77" data-name="Path" class="exterior-L-prim" d="M237.5,194.8557v-8.66l5-2.8868v14.4338Z"/>
    <path id="Path-78" data-name="Path" class="window-R-prim" d="M212.5,200.6292l5-2.8867v8.66l-5,2.8867Z"/>
    <path id="Path-79" data-name="Path" class="window-R-prim" d="M222.5,194.8557l5-2.8867v8.66l-5,2.8867Z"/>
    <path id="Path-80" data-name="Path" class="window-R-prim" d="M232.5,189.0822l5-2.8867v8.66l-5,2.8868Z"/>
    <path id="Path-81" data-name="Path" class="window-R-light" d="M207.5,223.7232l35-20.2072V217.95l-35,20.2073Z"/>
    <path id="Path-82" data-name="Path" class="top-prim" d="M207.5,232.3835l30-17.3205,5,2.8867-35,20.2073Z"/>
    <path id="Path-83" data-name="Path" class="exterior-L-prim" d="M237.5,215.063v-8.66l5-2.8867V217.95Z"/>
    <path id="Path-84" data-name="Path" class="window-R-prim" d="M212.5,220.8365l5-2.8868v8.66l-5,2.8867Z"/>
    <path id="Path-85" data-name="Path" class="window-R-prim" d="M222.5,215.063l5-2.8868v8.66l-5,2.8867Z"/>
    <path id="Path-86" data-name="Path" class="window-R-prim" d="M232.5,209.29l5-2.8868v8.66l-5,2.8867Z"/>
    <path id="Path-87" data-name="Path" class="window-R-light" d="M207.5,243.9305l35-20.2073V238.157l-35,20.2073Z"/>
    <path id="Path-88" data-name="Path" class="top-prim" d="M207.5,252.5907l30-17.3205,5,2.8868-35,20.2072Z"/>
    <path id="Path-89" data-name="Path" class="exterior-L-prim" d="M237.5,235.27v-8.66l5-2.8868V238.157Z"/>
    <path id="Path-90" data-name="Path" class="window-R-prim" d="M212.5,241.0437l5-2.8867v8.66l-5,2.8868Z"/>
    <path id="Path-91" data-name="Path" class="window-R-prim" d="M222.5,235.27l5-2.8867v8.66l-5,2.8868Z"/>
    <path id="Path-92" data-name="Path" class="window-R-prim" d="M232.5,229.4967l5-2.8867v8.66l-5,2.8868Z"/>
    <path id="Path-93" data-name="Path" class="window-R-light" d="M207.5,264.1377l35-20.2072v14.4337l-35,20.2073Z"/>
    <path id="Path-94" data-name="Path" class="top-prim" d="M207.5,272.798l30-17.3205,5,2.8867-35,20.2073Z"/>
    <path id="Path-95" data-name="Path" class="exterior-L-prim" d="M237.5,255.4775v-8.66l5-2.8867v14.4337Z"/>
    <path id="Path-96" data-name="Path" class="window-R-prim" d="M212.5,261.251l5-2.8868v8.66l-5,2.8867Z"/>
    <path id="Path-97" data-name="Path" class="window-R-prim" d="M222.5,255.4775l5-2.8868v8.66l-5,2.8867Z"/>
    <path id="Path-98" data-name="Path" class="window-R-prim" d="M232.5,249.704l5-2.8868v8.66l-5,2.8867Z"/>
    <path id="Path-99" data-name="Path" class="window-L-prim" d="M152.5,145.7809,120,127.017v14.4338l32.5,18.7639Z"/>
    <path id="Path-100" data-name="Path" class="window-L-prim" d="M77.5,102.48,45,83.7158V98.15l32.5,18.7639Z"/>
    <path id="Path-101" data-name="Path" class="window-L-prim" d="M115,124.13,82.5,105.3664V119.8L115,138.564Z"/>
    <path id="Path-102" data-name="Path" class="window-L-prim" d="M40,80.829,7.5,62.0651V76.4989L40,95.2628Z"/>
    <path id="Path-103" data-name="Path" class="top-prim" d="M152.5,154.4412,125,138.564l-5,2.8868,32.5,18.7639Z"/>
    <path id="Path-104" data-name="Path" class="exterior-R-prim" d="M125,138.564v-8.66l-5-2.8868v14.4338Z"/>
    <path id="Path-105" data-name="Path" class="window-L-light" d="M125,129.9038l7.5,4.33v8.66l-7.5-4.33Z"/>
    <path id="Path-106" data-name="Path" class="window-L-light" d="M138.75,137.8423l6.25,3.6085v8.66l-6.25-3.6084Z"/>
    <path id="Path-107" data-name="Path" class="top-prim" d="M115,132.7905,87.5,116.9134l-5,2.8868L115,138.564Z"/>
    <path id="Path-108" data-name="Path" class="exterior-R-prim" d="M87.5,116.9134v-8.66l-5-2.8868V119.8Z"/>
    <path id="Path-109" data-name="Path" class="window-L-light" d="M87.5,108.2532l7.5,4.33v8.66l-7.5-4.33Z"/>
    <path id="Path-110" data-name="Path" class="window-L-light" d="M101.25,116.1917,107.5,119.8v8.66l-6.25-3.6084Z"/>
    <path id="Path-111" data-name="Path" class="top-prim" d="M77.5,111.14,50,95.2628,45,98.15l32.5,18.7639Z"/>
    <path id="Path-112" data-name="Path" class="exterior-R-prim" d="M50,95.2628v-8.66l-5-2.8867V98.15Z"/>
    <path id="Path-113" data-name="Path" class="window-L-light" d="M50,86.6025l7.5,4.33v8.66l-7.5-4.33Z"/>
    <path id="Path-114" data-name="Path" class="window-L-light" d="M63.75,94.5411,70,98.15v8.66l-6.25-3.6084Z"/>
    <path id="Path-115" data-name="Path" class="top-prim" d="M40,89.4893,12.5,73.6121l-5,2.8868L40,95.2628Z"/>
    <path id="Path-116" data-name="Path" class="exterior-R-prim" d="M12.5,73.6121v-8.66l-5-2.8868V76.4989Z"/>
    <path id="Path-117" data-name="Path" class="window-L-light" d="M12.5,64.9519l7.5,4.33v8.66l-7.5-4.33Z"/>
    <path id="Path-118" data-name="Path" class="window-L-light" d="M26.25,72.8905l6.25,3.6084v8.66l-6.25-3.6084Z"/>
    <path id="Path-119" data-name="Path" class="window-L-prim" d="M152.5,186.1955,120,167.4316v14.4337l32.5,18.7639Z"/>
    <path id="Path-120" data-name="Path" class="window-L-prim" d="M77.5,142.8942,45,124.13v14.4338L77.5,157.328Z"/>
    <path id="Path-121" data-name="Path" class="window-L-prim" d="M115,164.5448,82.5,145.781v14.4337L115,178.9786Z"/>
    <path id="Path-122" data-name="Path" class="window-L-prim" d="M40,121.2436,7.5,102.48v14.4337L40,135.6773Z"/>
    <path id="Path-123" data-name="Path" class="top-prim" d="M152.5,194.8557,125,178.9786l-5,2.8867,32.5,18.7639Z"/>
    <path id="Path-124" data-name="Path" class="exterior-R-prim" d="M125,178.9786v-8.66l-5-2.8867v14.4337Z"/>
    <path id="Path-125" data-name="Path" class="window-L-light" d="M125,170.3184l7.5,4.33v8.66l-7.5-4.33Z"/>
    <path id="Path-126" data-name="Path" class="window-L-light" d="M138.75,178.2569l6.25,3.6084v8.66l-6.25-3.6084Z"/>
    <path id="Path-127" data-name="Path" class="top-prim" d="M115,173.2051,87.5,157.3279l-5,2.8868L115,178.9786Z"/>
    <path id="Path-128" data-name="Path" class="exterior-R-prim" d="M87.5,157.3279v-8.66l-5-2.8867v14.4337Z"/>
    <path id="Path-129" data-name="Path" class="window-L-light" d="M87.5,148.6677l7.5,4.33v8.66l-7.5-4.33Z"/>
    <path id="Path-130" data-name="Path" class="window-L-light" d="M101.25,156.6063l6.25,3.6084v8.66l-6.25-3.6084Z"/>
    <path id="Path-131" data-name="Path" class="top-prim" d="M77.5,151.5545,50,135.6773l-5,2.8868L77.5,157.328Z"/>
    <path id="Path-132" data-name="Path" class="exterior-R-prim" d="M50,135.6773v-8.66L45,124.13v14.4338Z"/>
    <path id="Path-133" data-name="Path" class="window-L-light" d="M50,127.0171l7.5,4.33v8.66l-7.5-4.33Z"/>
    <path id="Path-134" data-name="Path" class="window-L-light" d="M63.75,134.9556,70,138.5641v8.66l-6.25-3.6084Z"/>
    <path id="Path-135" data-name="Path" class="top-prim" d="M40,129.9038,12.5,114.0267l-5,2.8867L40,135.6773Z"/>
    <path id="Path-136" data-name="Path" class="exterior-R-prim" d="M12.5,114.0267v-8.66l-5-2.8867v14.4337Z"/>
    <path id="Path-137" data-name="Path" class="window-L-light" d="M12.5,105.3665l7.5,4.33v8.66l-7.5-4.33Z"/>
    <path id="Path-138" data-name="Path" class="window-L-light" d="M26.25,113.305l6.25,3.6084v8.66l-6.25-3.6084Z"/>
    <path id="Path-139" data-name="Path" class="window-L-prim" d="M152.5,226.61,120,207.8461V222.28l32.5,18.7638Z"/>
    <path id="Path-140" data-name="Path" class="window-L-prim" d="M77.5,183.3087,45,164.5448v14.4338l32.5,18.7639Z"/>
    <path id="Path-141" data-name="Path" class="window-L-prim" d="M115,204.9594,82.5,186.1955v14.4337L115,219.3931Z"/>
    <path id="Path-142" data-name="Path" class="window-L-prim" d="M40,161.6581,7.5,142.8942V157.328L40,176.0918Z"/>
    <path id="Path-143" data-name="Path" class="top-prim" d="M152.5,235.27,125,219.3931l-5,2.8868,32.5,18.7638Z"/>
    <path id="Path-144" data-name="Path" class="exterior-R-prim" d="M125,219.3931v-8.66l-5-2.8868V222.28Z"/>
    <path id="Path-145" data-name="Path" class="window-L-light" d="M125,210.7329l7.5,4.33v8.66l-7.5-4.33Z"/>
    <path id="Path-146" data-name="Path" class="window-L-light" d="M138.75,218.6714,145,222.28v8.66l-6.25-3.6084Z"/>
    <path id="Path-147" data-name="Path" class="top-prim" d="M115,213.62,87.5,197.7425l-5,2.8867L115,219.3931Z"/>
    <path id="Path-148" data-name="Path" class="exterior-R-prim" d="M87.5,197.7425v-8.66l-5-2.8867v14.4337Z"/>
    <path id="Path-149" data-name="Path" class="window-L-light" d="M87.5,189.0822l7.5,4.33v8.66l-7.5-4.33Z"/>
    <path id="Path-150" data-name="Path" class="window-L-light" d="M101.25,197.0208l6.25,3.6084v8.66l-6.25-3.6084Z"/>
    <path id="Path-151" data-name="Path" class="top-prim" d="M77.5,191.969,50,176.0918l-5,2.8868,32.5,18.7639Z"/>
    <path id="Path-152" data-name="Path" class="exterior-R-prim" d="M50,176.0918v-8.66l-5-2.8868v14.4338Z"/>
    <path id="Path-153" data-name="Path" class="window-L-light" d="M50,167.4316l7.5,4.33v8.66l-7.5-4.33Z"/>
    <path id="Path-154" data-name="Path" class="window-L-light" d="M63.75,175.37,70,178.9786v8.66L63.75,184.03Z"/>
    <path id="Path-155" data-name="Path" class="top-prim" d="M40,170.3183,12.5,154.4412l-5,2.8868L40,176.0918Z"/>
    <path id="Path-156" data-name="Path" class="exterior-R-prim" d="M12.5,154.4412v-8.66l-5-2.8868V157.328Z"/>
    <path id="Path-157" data-name="Path" class="window-L-light" d="M12.5,145.781l7.5,4.33v8.66l-7.5-4.33Z"/>
    <path id="Path-158" data-name="Path" class="window-L-light" d="M26.25,153.72l6.25,3.6084v8.66L26.25,162.38Z"/>
    <path id="Path-159" data-name="Path" class="window-L-prim" d="M152.5,267.0245,120,248.2606v14.4338l32.5,18.7639Z"/>
    <path id="Path-160" data-name="Path" class="window-L-prim" d="M77.5,223.7232,45,204.9594v14.4337L77.5,238.157Z"/>
    <path id="Path-161" data-name="Path" class="window-L-prim" d="M115,245.3739,82.5,226.61v14.4337L115,259.8076Z"/>
    <path id="Path-162" data-name="Path" class="window-L-prim" d="M40,202.0726,7.5,183.3087v14.4338L40,216.5064Z"/>
    <path id="Path-163" data-name="Path" class="top-prim" d="M152.5,275.6848,125,259.8076l-5,2.8868,32.5,18.7639Z"/>
    <path id="Path-164" data-name="Path" class="exterior-R-prim" d="M125,259.8076v-8.66l-5-2.8868v14.4338Z"/>
    <path id="Path-165" data-name="Path" class="window-L-light" d="M125,251.1474l7.5,4.33v8.66l-7.5-4.33Z"/>
    <path id="Path-166" data-name="Path" class="window-L-light" d="M138.75,259.0859l6.25,3.6085v8.66l-6.25-3.6084Z"/>
    <path id="Path-167" data-name="Path" class="top-prim" d="M115,254.0341,87.5,238.157l-5,2.8867L115,259.8076Z"/>
    <path id="Path-168" data-name="Path" class="exterior-R-prim" d="M87.5,238.157v-8.66l-5-2.8867v14.4337Z"/>
    <path id="Path-169" data-name="Path" class="window-L-light" d="M87.5,229.4968l7.5,4.33v8.66l-7.5-4.33Z"/>
    <path id="Path-170" data-name="Path" class="window-L-light" d="M101.25,237.4353l6.25,3.6084v8.66l-6.25-3.6084Z"/>
    <path id="Path-171" data-name="Path" class="top-prim" d="M77.5,232.3835,50,216.5064l-5,2.8867L77.5,238.157Z"/>
    <path id="Path-172" data-name="Path" class="exterior-R-prim" d="M50,216.5064v-8.66l-5-2.8867v14.4337Z"/>
    <path id="Path-173" data-name="Path" class="window-L-light" d="M50,207.8461l7.5,4.33v8.66l-7.5-4.33Z"/>
    <path id="Path-174" data-name="Path" class="window-L-light" d="M63.75,215.7847,70,219.3931v8.66l-6.25-3.6084Z"/>
    <path id="Path-175" data-name="Path" class="top-prim" d="M40,210.7329,12.5,194.8557l-5,2.8868L40,216.5064Z"/>
    <path id="Path-176" data-name="Path" class="exterior-R-prim" d="M12.5,194.8557v-8.66l-5-2.8868v14.4338Z"/>
    <path id="Path-177" data-name="Path" class="window-L-light" d="M12.5,186.1955l7.5,4.33v8.66l-7.5-4.33Z"/>
    <path id="Path-178" data-name="Path" class="window-L-light" d="M26.25,194.134l6.25,3.6085v8.66l-6.25-3.6084Z"/>
    <path id="Path-179" data-name="Path" class="window-L-prim" d="M152.5,165.9882,120,147.2243V161.658l32.5,18.7639Z"/>
    <path id="Path-180" data-name="Path" class="window-L-prim" d="M77.5,122.6869,45,103.923v14.4338l32.5,18.7639Z"/>
    <path id="Path-181" data-name="Path" class="window-L-prim" d="M115,144.3376,82.5,125.5737v14.4337L115,158.7713Z"/>
    <path id="Path-182" data-name="Path" class="window-L-prim" d="M40,101.0363,7.5,82.2724V96.7062L40,115.47Z"/>
    <path id="Path-183" data-name="Path" class="top-prim" d="M152.5,174.6484,125,158.7713l-5,2.8867,32.5,18.7639Z"/>
    <path id="Path-184" data-name="Path" class="exterior-R-prim" d="M125,158.7713v-8.66l-5-2.8868V161.658Z"/>
    <path id="Path-185" data-name="Path" class="window-L-light" d="M125,150.1111l7.5,4.33v8.66l-7.5-4.33Z"/>
    <path id="Path-186" data-name="Path" class="window-L-light" d="M138.75,158.05,145,161.658v8.66l-6.25-3.6084Z"/>
    <path id="Path-187" data-name="Path" class="top-prim" d="M115,152.9978,87.5,137.1207l-5,2.8867L115,158.7713Z"/>
    <path id="Path-188" data-name="Path" class="exterior-R-prim" d="M87.5,137.1207v-8.66l-5-2.8867v14.4337Z"/>
    <path id="Path-189" data-name="Path" class="window-L-light" d="M87.5,128.46l7.5,4.33v8.66l-7.5-4.33Z"/>
    <path id="Path-190" data-name="Path" class="window-L-light" d="M101.25,136.399l6.25,3.6084v8.66l-6.25-3.6083Z"/>
    <path id="Path-191" data-name="Path" class="top-prim" d="M77.5,131.3472,50,115.47l-5,2.8868,32.5,18.7639Z"/>
    <path id="Path-192" data-name="Path" class="exterior-R-prim" d="M50,115.47v-8.66l-5-2.8868v14.4338Z"/>
    <path id="Path-193" data-name="Path" class="window-L-light" d="M50,106.81l7.5,4.33v8.66L50,115.47Z"/>
    <path id="Path-194" data-name="Path" class="window-L-light" d="M63.75,114.7483,70,118.3568v8.66l-6.25-3.6084Z"/>
    <path id="Path-195" data-name="Path" class="top-prim" d="M40,109.6965,12.5,93.8194l-5,2.8868L40,115.47Z"/>
    <path id="Path-196" data-name="Path" class="exterior-R-prim" d="M12.5,93.8194v-8.66l-5-2.8868V96.7062Z"/>
    <path id="Path-197" data-name="Path" class="window-L-light" d="M12.5,85.1592l7.5,4.33v8.66l-7.5-4.33Z"/>
    <path id="Path-198" data-name="Path" class="window-L-light" d="M26.25,93.0977l6.25,3.6084v8.66l-6.25-3.6084Z"/>
    <path id="Path-199" data-name="Path" class="window-L-prim" d="M152.5,206.4027,120,187.6388v14.4338l32.5,18.7639Z"/>
    <path id="Path-200" data-name="Path" class="window-L-prim" d="M77.5,163.1015,45,144.3376v14.4337l32.5,18.7639Z"/>
    <path id="Path-201" data-name="Path" class="window-L-prim" d="M115,184.7521,82.5,165.9882V180.422L115,199.1858Z"/>
    <path id="Path-202" data-name="Path" class="window-L-prim" d="M40,141.4508,7.5,122.687v14.4337L40,155.8846Z"/>
    <path id="Path-203" data-name="Path" class="top-prim" d="M152.5,215.063,125,199.1858l-5,2.8868,32.5,18.7639Z"/>
    <path id="Path-204" data-name="Path" class="exterior-R-prim" d="M125,199.1858v-8.66l-5-2.8868v14.4338Z"/>
    <path id="Path-205" data-name="Path" class="window-L-light" d="M125,190.5256l7.5,4.33v8.66l-7.5-4.33Z"/>
    <path id="Path-206" data-name="Path" class="window-L-light" d="M138.75,198.4642l6.25,3.6084v8.66l-6.25-3.6084Z"/>
    <path id="Path-207" data-name="Path" class="top-prim" d="M115,193.4123,87.5,177.5352l-5,2.8868L115,199.1858Z"/>
    <path id="Path-208" data-name="Path" class="exterior-R-prim" d="M87.5,177.5352v-8.66l-5-2.8868V180.422Z"/>
    <path id="Path-209" data-name="Path" class="window-L-light" d="M87.5,168.875l7.5,4.33v8.66l-7.5-4.33Z"/>
    <path id="Path-210" data-name="Path" class="window-L-light" d="M101.25,176.8135l6.25,3.6084v8.66l-6.25-3.6084Z"/>
    <path id="Path-211" data-name="Path" class="top-prim" d="M77.5,171.7617,50,155.8846l-5,2.8867,32.5,18.7639Z"/>
    <path id="Path-212" data-name="Path" class="exterior-R-prim" d="M50,155.8846v-8.66l-5-2.8867v14.4337Z"/>
    <path id="Path-213" data-name="Path" class="window-L-light" d="M50,147.2243l7.5,4.33v8.66l-7.5-4.33Z"/>
    <path id="Path-214" data-name="Path" class="window-L-light" d="M63.75,155.1629,70,158.7713v8.66l-6.25-3.6084Z"/>
    <path id="Path-215" data-name="Path" class="top-prim" d="M40,150.1111,12.5,134.2339l-5,2.8868L40,155.8846Z"/>
    <path id="Path-216" data-name="Path" class="exterior-R-prim" d="M12.5,134.2339v-8.66l-5-2.8867v14.4337Z"/>
    <path id="Path-217" data-name="Path" class="window-L-light" d="M12.5,125.5737l7.5,4.33v8.66l-7.5-4.33Z"/>
    <path id="Path-218" data-name="Path" class="window-L-light" d="M26.25,133.5123l6.25,3.6084v8.66l-6.25-3.6084Z"/>
    <path id="Path-219" data-name="Path" class="window-L-prim" d="M152.5,246.8172,120,228.0534v14.4337l32.5,18.7639Z"/>
    <path id="Path-220" data-name="Path" class="window-L-prim" d="M77.5,203.516,45,184.7521v14.4337L77.5,217.95Z"/>
    <path id="Path-221" data-name="Path" class="window-L-prim" d="M115,225.1666,82.5,206.4027v14.4338L115,239.6Z"/>
    <path id="Path-222" data-name="Path" class="window-L-prim" d="M40,181.8654,7.5,163.1015v14.4337L40,196.2991Z"/>
    <path id="Path-223" data-name="Path" class="top-prim" d="M152.5,255.4775,125,239.6l-5,2.8867,32.5,18.7639Z"/>
    <path id="Path-224" data-name="Path" class="exterior-R-prim" d="M125,239.6v-8.66l-5-2.8867v14.4337Z"/>
    <path id="Path-225" data-name="Path" class="window-L-light" d="M125,230.94l7.5,4.33v8.66L125,239.6Z"/>
    <path id="Path-226" data-name="Path" class="window-L-light" d="M138.75,238.8787l6.25,3.6084v8.66l-6.25-3.6084Z"/>
    <path id="Path-227" data-name="Path" class="top-prim" d="M115,233.8269,87.5,217.95l-5,2.8868L115,239.6Z"/>
    <path id="Path-228" data-name="Path" class="exterior-R-prim" d="M87.5,217.95v-8.66l-5-2.8868v14.4338Z"/>
    <path id="Path-229" data-name="Path" class="window-L-light" d="M87.5,209.29l7.5,4.33v8.66l-7.5-4.33Z"/>
    <path id="Path-230" data-name="Path" class="window-L-light" d="M101.25,217.228l6.25,3.6085v8.66l-6.25-3.6084Z"/>
    <path id="Path-231" data-name="Path" class="top-prim" d="M77.5,212.1762,50,196.2991l-5,2.8867L77.5,217.95Z"/>
    <path id="Path-232" data-name="Path" class="exterior-R-prim" d="M50,196.2991v-8.66l-5-2.8867v14.4337Z"/>
    <path id="Path-233" data-name="Path" class="window-L-light" d="M50,187.6389l7.5,4.33v8.66l-7.5-4.33Z"/>
    <path id="Path-234" data-name="Path" class="window-L-light" d="M63.75,195.5774,70,199.1858v8.66l-6.25-3.6084Z"/>
    <path id="Path-235" data-name="Path" class="top-prim" d="M40,190.5256,12.5,174.6485l-5,2.8867L40,196.2991Z"/>
    <path id="Path-236" data-name="Path" class="exterior-R-prim" d="M12.5,174.6485v-8.66l-5-2.8867v14.4337Z"/>
    <path id="Path-237" data-name="Path" class="window-L-light" d="M12.5,165.9882l7.5,4.33v8.66l-7.5-4.33Z"/>
    <path id="Path-238" data-name="Path" class="window-L-light" d="M26.25,173.9268l6.25,3.6084v8.66l-6.25-3.6084Z"/>
    <path id="Path-239" data-name="Path" class="window-L-prim" d="M152.5,287.2318,120,268.4679v14.4337l32.5,18.7639Z"/>
    <path id="Path-240" data-name="Path" class="window-L-prim" d="M77.5,243.9305,45,225.1666V239.6l32.5,18.7639Z"/>
    <path id="Path-241" data-name="Path" class="window-L-prim" d="M115,265.5811,82.5,246.8173V261.251L115,280.0149Z"/>
    <path id="Path-242" data-name="Path" class="window-L-prim" d="M40,222.28,7.5,203.516V217.95L40,236.7136Z"/>
    <path id="Path-243" data-name="Path" class="top-prim" d="M152.5,295.892,125,280.0149l-5,2.8867,32.5,18.7639Z"/>
    <path id="Path-244" data-name="Path" class="exterior-R-prim" d="M125,280.0149v-8.66l-5-2.8867v14.4337Z"/>
    <path id="Path-245" data-name="Path" class="window-L-light" d="M125,271.3547l7.5,4.33v8.66l-7.5-4.33Z"/>
    <path id="Path-246" data-name="Path" class="window-L-light" d="M138.75,279.2932l6.25,3.6084v8.66l-6.25-3.6084Z"/>
    <path id="Path-247" data-name="Path" class="top-prim" d="M115,274.2414,87.5,258.3643l-5,2.8867L115,280.0149Z"/>
    <path id="Path-248" data-name="Path" class="exterior-R-prim" d="M87.5,258.3643v-8.66l-5-2.8867V261.251Z"/>
    <path id="Path-249" data-name="Path" class="window-L-light" d="M87.5,249.704l7.5,4.33v8.66l-7.5-4.33Z"/>
    <path id="Path-250" data-name="Path" class="window-L-light" d="M101.25,257.6426l6.25,3.6084v8.66l-6.25-3.6084Z"/>
    <path id="Path-251" data-name="Path" class="top-prim" d="M77.5,252.5908,50,236.7136,45,239.6l32.5,18.7639Z"/>
    <path id="Path-252" data-name="Path" class="exterior-R-prim" d="M50,236.7136v-8.66l-5-2.8868V239.6Z"/>
    <path id="Path-253" data-name="Path" class="window-L-light" d="M50,228.0534l7.5,4.33v8.66l-7.5-4.33Z"/>
    <path id="Path-254" data-name="Path" class="window-L-light" d="M63.75,235.9919,70,239.6v8.66l-6.25-3.6084Z"/>
    <path id="Path-255" data-name="Path" class="top-prim" d="M40,230.94,12.5,215.063l-5,2.8867L40,236.7136Z"/>
    <path id="Path-256" data-name="Path" class="exterior-R-prim" d="M12.5,215.063v-8.66l-5-2.8867V217.95Z"/>
    <path id="Path-257" data-name="Path" class="window-L-light" d="M12.5,206.4028l7.5,4.33v8.66l-7.5-4.33Z"/>
    <path id="Path-258" data-name="Path" class="window-L-light" d="M26.25,214.3413,32.5,217.95v8.66l-6.25-3.6084Z"/>
  </g>
</svg>
