<svg id="Layer_1" data-name="Layer 1" xmlns="http://www.w3.org/2000/svg" viewBox="0 0 250 352.1837">
  <defs>
    <style>
      .top-dark {
        fill: #c67471;
      }

      .exterior-R-prim {
        fill: #d05752;
      }

      .exterior-L-prim {
        fill: #73302e;
      }

      .window-R-light {
        fill: #eacb87;
      }

      .top-prim {
        fill: #dd8a87;
      }

      .window-R-prim {
        fill: #bd9664;
      }

      .window-L-prim {
        fill: #4d3b24;
      }

      .window-L-light {
        fill: #795a30;
      }
    </style>
  </defs>
  <title>Artboard 6</title>
  <g id="Group">
    <path id="anchor_0_144.338_250" class="top-dark" d="M0,69.282l160,92.3761,90-51.9615V92.376L90,0,0,51.9615Z"/>
    <path id="Path" class="exterior-R-prim" d="M155,141.4508l5,2.8868L250,92.376V300.2221l-90,51.9616-5-2.8868Z"/>
    <path id="Path-2" data-name="Path" class="exterior-L-prim" d="M160,144.3376,0,51.9615V259.8076l160,92.3761Z"/>
    <path id="Path-3" data-name="Path" class="window-R-light" d="M167.5,145.7809l35-20.2072v14.4337l-35,20.2073Z"/>
    <path id="Path-4" data-name="Path" class="top-prim" d="M167.5,154.4412l30-17.3205,5,2.8867-35,20.2073Z"/>
    <path id="Path-5" data-name="Path" class="exterior-L-prim" d="M197.5,137.1207v-8.66l5-2.8867v14.4337Z"/>
    <path id="Path-6" data-name="Path" class="window-R-prim" d="M172.5,142.8942l5-2.8868v8.66l-5,2.8867Z"/>
    <path id="Path-7" data-name="Path" class="window-R-prim" d="M182.5,137.1207l5-2.8868v8.66l-5,2.8867Z"/>
    <path id="Path-8" data-name="Path" class="window-R-prim" d="M192.5,131.3472l5-2.8868v8.66l-5,2.8867Z"/>
    <path id="Path-9" data-name="Path" class="window-R-light" d="M167.5,165.9882l35-20.2073v14.4338l-35,20.2073Z"/>
    <path id="Path-10" data-name="Path" class="top-prim" d="M167.5,174.6484l30-17.3205,5,2.8868-35,20.2072Z"/>
    <path id="Path-11" data-name="Path" class="exterior-L-prim" d="M197.5,157.3279v-8.66l5-2.8868v14.4338Z"/>
    <path id="Path-12" data-name="Path" class="window-R-prim" d="M172.5,163.1014l5-2.8867v8.66l-5,2.8868Z"/>
    <path id="Path-13" data-name="Path" class="window-R-prim" d="M182.5,157.3279l5-2.8867v8.66l-5,2.8868Z"/>
    <path id="Path-14" data-name="Path" class="window-R-prim" d="M192.5,151.5544l5-2.8867v8.66l-5,2.8868Z"/>
    <path id="Path-15" data-name="Path" class="window-R-light" d="M167.5,186.1954l35-20.2072v14.4337l-35,20.2073Z"/>
    <path id="Path-16" data-name="Path" class="top-prim" d="M167.5,194.8557l30-17.3205,5,2.8867-35,20.2073Z"/>
    <path id="Path-17" data-name="Path" class="exterior-L-prim" d="M197.5,177.5352v-8.66l5-2.8867v14.4337Z"/>
    <path id="Path-18" data-name="Path" class="window-R-prim" d="M172.5,183.3087l5-2.8868v8.66l-5,2.8867Z"/>
    <path id="Path-19" data-name="Path" class="window-R-prim" d="M182.5,177.5352l5-2.8868v8.66l-5,2.8867Z"/>
    <path id="Path-20" data-name="Path" class="window-R-prim" d="M192.5,171.7617l5-2.8868v8.66l-5,2.8867Z"/>
    <path id="Path-21" data-name="Path" class="window-R-light" d="M167.5,206.4027l35-20.2073v14.4338l-35,20.2073Z"/>
    <path id="Path-22" data-name="Path" class="top-prim" d="M167.5,215.0629l30-17.3205,5,2.8868-35,20.2072Z"/>
    <path id="Path-23" data-name="Path" class="exterior-L-prim" d="M197.5,197.7424v-8.66l5-2.8868v14.4338Z"/>
    <path id="Path-24" data-name="Path" class="window-R-prim" d="M172.5,203.5159l5-2.8867v8.66l-5,2.8868Z"/>
    <path id="Path-25" data-name="Path" class="window-R-prim" d="M182.5,197.7424l5-2.8867v8.66l-5,2.8868Z"/>
    <path id="Path-26" data-name="Path" class="window-R-prim" d="M192.5,191.9689l5-2.8867v8.66l-5,2.8868Z"/>
    <path id="Path-27" data-name="Path" class="window-R-light" d="M167.5,226.61l35-20.2072v14.4337l-35,20.2073Z"/>
    <path id="Path-28" data-name="Path" class="top-prim" d="M167.5,235.27l30-17.32,5,2.8867-35,20.2073Z"/>
    <path id="Path-29" data-name="Path" class="exterior-L-prim" d="M197.5,217.95v-8.66l5-2.8867v14.4337Z"/>
    <path id="Path-30" data-name="Path" class="window-R-prim" d="M172.5,223.7232l5-2.8868v8.66l-5,2.8867Z"/>
    <path id="Path-31" data-name="Path" class="window-R-prim" d="M182.5,217.95l5-2.8868v8.66l-5,2.8867Z"/>
    <path id="Path-32" data-name="Path" class="window-R-prim" d="M192.5,212.1762l5-2.8867v8.66l-5,2.8867Z"/>
    <path id="Path-33" data-name="Path" class="window-R-light" d="M167.5,246.8172l35-20.2072v14.4337l-35,20.2073Z"/>
    <path id="Path-34" data-name="Path" class="top-prim" d="M167.5,255.4775l30-17.32,5,2.8867-35,20.2073Z"/>
    <path id="Path-35" data-name="Path" class="exterior-L-prim" d="M197.5,238.157v-8.66l5-2.8867v14.4337Z"/>
    <path id="Path-36" data-name="Path" class="window-R-prim" d="M172.5,243.9305l5-2.8868v8.66l-5,2.8867Z"/>
    <path id="Path-37" data-name="Path" class="window-R-prim" d="M182.5,238.157l5-2.8868v8.66l-5,2.8867Z"/>
    <path id="Path-38" data-name="Path" class="window-R-prim" d="M192.5,232.3835l5-2.8868v8.66l-5,2.8867Z"/>
    <path id="Path-39" data-name="Path" class="window-R-light" d="M167.5,267.0245l35-20.2073V261.251l-35,20.2072Z"/>
    <path id="Path-40" data-name="Path" class="top-prim" d="M167.5,275.6847l30-17.3205,5,2.8868-35,20.2072Z"/>
    <path id="Path-41" data-name="Path" class="exterior-L-prim" d="M197.5,258.3642v-8.66l5-2.8868V261.251Z"/>
    <path id="Path-42" data-name="Path" class="window-R-prim" d="M172.5,264.1377l5-2.8867v8.66l-5,2.8868Z"/>
    <path id="Path-43" data-name="Path" class="window-R-prim" d="M182.5,258.3642l5-2.8867v8.66l-5,2.8868Z"/>
    <path id="Path-44" data-name="Path" class="window-R-prim" d="M192.5,252.5907l5-2.8867v8.66l-5,2.8868Z"/>
    <path id="Path-45" data-name="Path" class="window-R-light" d="M167.5,287.2317l35-20.2072v14.4337l-35,20.2073Z"/>
    <path id="Path-46" data-name="Path" class="top-prim" d="M167.5,295.892l30-17.32,5,2.8867-35,20.2073Z"/>
    <path id="Path-47" data-name="Path" class="exterior-L-prim" d="M197.5,278.5715v-8.66l5-2.8867v14.4337Z"/>
    <path id="Path-48" data-name="Path" class="window-R-prim" d="M172.5,284.345l5-2.8868v8.66l-5,2.8867Z"/>
    <path id="Path-49" data-name="Path" class="window-R-prim" d="M182.5,278.5715l5-2.8868v8.66l-5,2.8867Z"/>
    <path id="Path-50" data-name="Path" class="window-R-prim" d="M192.5,272.798l5-2.8868v8.66l-5,2.8867Z"/>
    <path id="Path-51" data-name="Path" class="window-R-light" d="M167.5,307.439l35-20.2073v14.4338l-35,20.2073Z"/>
    <path id="Path-52" data-name="Path" class="top-prim" d="M167.5,316.0992l30-17.32,5,2.8868-35,20.2072Z"/>
    <path id="Path-53" data-name="Path" class="exterior-L-prim" d="M197.5,298.7787v-8.66l5-2.8868v14.4338Z"/>
    <path id="Path-54" data-name="Path" class="window-R-prim" d="M172.5,304.5522l5-2.8867v8.66l-5,2.8868Z"/>
    <path id="Path-55" data-name="Path" class="window-R-prim" d="M182.5,298.7787l5-2.8867v8.66l-5,2.8868Z"/>
    <path id="Path-56" data-name="Path" class="window-R-prim" d="M192.5,293.0052l5-2.8867v8.66l-5,2.8868Z"/>
    <path id="Path-57" data-name="Path" class="window-R-light" d="M167.5,327.6462l35-20.2072v14.4337l-35,20.2073Z"/>
    <path id="Path-58" data-name="Path" class="top-prim" d="M167.5,336.3065l30-17.3205,5,2.8867-35,20.2073Z"/>
    <path id="Path-59" data-name="Path" class="exterior-L-prim" d="M197.5,318.986v-8.66l5-2.8868v14.4337Z"/>
    <path id="Path-60" data-name="Path" class="window-R-prim" d="M172.5,324.76l5-2.8868v8.66l-5,2.8867Z"/>
    <path id="Path-61" data-name="Path" class="window-R-prim" d="M182.5,318.986l5-2.8868v8.66l-5,2.8867Z"/>
    <path id="Path-62" data-name="Path" class="window-R-prim" d="M192.5,313.2125l5-2.8867v8.66l-5,2.8867Z"/>
    <path id="Path-63" data-name="Path" class="window-R-light" d="M207.5,122.6869l35-20.2073v14.4338l-35,20.2073Z"/>
    <path id="Path-64" data-name="Path" class="top-prim" d="M207.5,131.3471l30-17.3205,5,2.8868-35,20.2072Z"/>
    <path id="Path-65" data-name="Path" class="exterior-L-prim" d="M237.5,114.0266v-8.66l5-2.8867v14.4337Z"/>
    <path id="Path-66" data-name="Path" class="window-R-prim" d="M212.5,119.8l5-2.8867v8.66l-5,2.8868Z"/>
    <path id="Path-67" data-name="Path" class="window-R-prim" d="M222.5,114.0266l5-2.8867v8.66l-5,2.8868Z"/>
    <path id="Path-68" data-name="Path" class="window-R-prim" d="M232.5,108.2532l5-2.8868v8.66l-5,2.8868Z"/>
    <path id="Path-69" data-name="Path" class="window-R-light" d="M207.5,142.8942l35-20.2073v14.4338l-35,20.2072Z"/>
    <path id="Path-70" data-name="Path" class="top-prim" d="M207.5,151.5544l30-17.32,5,2.8868-35,20.2072Z"/>
    <path id="Path-71" data-name="Path" class="exterior-L-prim" d="M237.5,134.2339v-8.66l5-2.8868v14.4338Z"/>
    <path id="Path-72" data-name="Path" class="window-R-prim" d="M212.5,140.0074l5-2.8867v8.66l-5,2.8868Z"/>
    <path id="Path-73" data-name="Path" class="window-R-prim" d="M222.5,134.2339l5-2.8867v8.66l-5,2.8868Z"/>
    <path id="Path-74" data-name="Path" class="window-R-prim" d="M232.5,128.46l5-2.8867v8.66l-5,2.8868Z"/>
    <path id="Path-75" data-name="Path" class="window-R-light" d="M207.5,163.1014l35-20.2072v14.4337l-35,20.2073Z"/>
    <path id="Path-76" data-name="Path" class="top-prim" d="M207.5,171.7617l30-17.32,5,2.8867-35,20.2073Z"/>
    <path id="Path-77" data-name="Path" class="exterior-L-prim" d="M237.5,154.4412v-8.66l5-2.8867v14.4337Z"/>
    <path id="Path-78" data-name="Path" class="window-R-prim" d="M212.5,160.2147l5-2.8868v8.66l-5,2.8867Z"/>
    <path id="Path-79" data-name="Path" class="window-R-prim" d="M222.5,154.4412l5-2.8868v8.66l-5,2.8867Z"/>
    <path id="Path-80" data-name="Path" class="window-R-prim" d="M232.5,148.6677l5-2.8868v8.66l-5,2.8867Z"/>
    <path id="Path-81" data-name="Path" class="window-R-light" d="M207.5,183.3087l35-20.2073v14.4338l-35,20.2073Z"/>
    <path id="Path-82" data-name="Path" class="top-prim" d="M207.5,191.9689l30-17.32,5,2.8868-35,20.2072Z"/>
    <path id="Path-83" data-name="Path" class="exterior-L-prim" d="M237.5,174.6484v-8.66l5-2.8868v14.4338Z"/>
    <path id="Path-84" data-name="Path" class="window-R-prim" d="M212.5,180.4219l5-2.8867v8.66l-5,2.8868Z"/>
    <path id="Path-85" data-name="Path" class="window-R-prim" d="M222.5,174.6484l5-2.8867v8.66l-5,2.8868Z"/>
    <path id="Path-86" data-name="Path" class="window-R-prim" d="M232.5,168.8749l5-2.8867v8.66l-5,2.8868Z"/>
    <path id="Path-87" data-name="Path" class="window-R-light" d="M207.5,203.5159l35-20.2072v14.4337l-35,20.2073Z"/>
    <path id="Path-88" data-name="Path" class="top-prim" d="M207.5,212.1762l30-17.32,5,2.8867-35,20.2073Z"/>
    <path id="Path-89" data-name="Path" class="exterior-L-prim" d="M237.5,194.8557v-8.66l5-2.8867v14.4337Z"/>
    <path id="Path-90" data-name="Path" class="window-R-prim" d="M212.5,200.6292l5-2.8868v8.66l-5,2.8867Z"/>
    <path id="Path-91" data-name="Path" class="window-R-prim" d="M222.5,194.8557l5-2.8868v8.66l-5,2.8867Z"/>
    <path id="Path-92" data-name="Path" class="window-R-prim" d="M232.5,189.0822l5-2.8868v8.66l-5,2.8867Z"/>
    <path id="Path-93" data-name="Path" class="window-R-light" d="M207.5,223.7232l35-20.2073V217.95l-35,20.2073Z"/>
    <path id="Path-94" data-name="Path" class="top-prim" d="M207.5,232.3834l30-17.32,5,2.8868-35,20.2072Z"/>
    <path id="Path-95" data-name="Path" class="exterior-L-prim" d="M237.5,215.0629v-8.66l5-2.8868V217.95Z"/>
    <path id="Path-96" data-name="Path" class="window-R-prim" d="M212.5,220.8364l5-2.8867v8.66l-5,2.8868Z"/>
    <path id="Path-97" data-name="Path" class="window-R-prim" d="M222.5,215.0629l5-2.8867v8.66l-5,2.8868Z"/>
    <path id="Path-98" data-name="Path" class="window-R-prim" d="M232.5,209.2894l5-2.8867v8.66l-5,2.8868Z"/>
    <path id="Path-99" data-name="Path" class="window-R-light" d="M207.5,243.93l35-20.2072V238.157l-35,20.2072Z"/>
    <path id="Path-100" data-name="Path" class="top-prim" d="M207.5,252.5907l30-17.3205,5,2.8868-35,20.2072Z"/>
    <path id="Path-101" data-name="Path" class="exterior-L-prim" d="M237.5,235.27v-8.66l5-2.8868V238.157Z"/>
    <path id="Path-102" data-name="Path" class="window-R-prim" d="M212.5,241.0437l5-2.8867v8.66l-5,2.8867Z"/>
    <path id="Path-103" data-name="Path" class="window-R-prim" d="M222.5,235.27l5-2.8867v8.66l-5,2.8867Z"/>
    <path id="Path-104" data-name="Path" class="window-R-prim" d="M232.5,229.4967l5-2.8867v8.66l-5,2.8868Z"/>
    <path id="Path-105" data-name="Path" class="window-R-light" d="M207.5,264.1377l35-20.2072v14.4337l-35,20.2073Z"/>
    <path id="Path-106" data-name="Path" class="top-prim" d="M207.5,272.798l30-17.3205,5,2.8867-35,20.2073Z"/>
    <path id="Path-107" data-name="Path" class="exterior-L-prim" d="M237.5,255.4775v-8.66l5-2.8867v14.4337Z"/>
    <path id="Path-108" data-name="Path" class="window-R-prim" d="M212.5,261.251l5-2.8868v8.66l-5,2.8867Z"/>
    <path id="Path-109" data-name="Path" class="window-R-prim" d="M222.5,255.4775l5-2.8868v8.66l-5,2.8867Z"/>
    <path id="Path-110" data-name="Path" class="window-R-prim" d="M232.5,249.704l5-2.8868v8.66l-5,2.8867Z"/>
    <path id="Path-111" data-name="Path" class="window-R-light" d="M207.5,284.345l35-20.2073v14.4338l-35,20.2073Z"/>
    <path id="Path-112" data-name="Path" class="top-prim" d="M207.5,293.0052l30-17.32,5,2.8868-35,20.2072Z"/>
    <path id="Path-113" data-name="Path" class="exterior-L-prim" d="M237.5,275.6847v-8.66l5-2.8868v14.4338Z"/>
    <path id="Path-114" data-name="Path" class="window-R-prim" d="M212.5,281.4582l5-2.8867v8.66l-5,2.8868Z"/>
    <path id="Path-115" data-name="Path" class="window-R-prim" d="M222.5,275.6847l5-2.8867v8.66l-5,2.8868Z"/>
    <path id="Path-116" data-name="Path" class="window-R-prim" d="M232.5,269.9112l5-2.8867v8.66l-5,2.8868Z"/>
    <path id="Path-117" data-name="Path" class="window-R-light" d="M207.5,304.5522l35-20.2072v14.4337l-35,20.2073Z"/>
    <path id="Path-118" data-name="Path" class="top-prim" d="M207.5,313.2125l30-17.32,5,2.8867-35,20.2073Z"/>
    <path id="Path-119" data-name="Path" class="exterior-L-prim" d="M237.5,295.892v-8.66l5-2.8867v14.4337Z"/>
    <path id="Path-120" data-name="Path" class="window-R-prim" d="M212.5,301.6655l5-2.8868v8.66l-5,2.8867Z"/>
    <path id="Path-121" data-name="Path" class="window-R-prim" d="M222.5,295.892l5-2.8868v8.66l-5,2.8867Z"/>
    <path id="Path-122" data-name="Path" class="window-R-prim" d="M232.5,290.1185l5-2.8868v8.66l-5,2.8867Z"/>
    <path id="Path-123" data-name="Path" class="window-L-prim" d="M152.5,145.7809,120,127.0171v14.4337l32.5,18.7639Z"/>
    <path id="Path-124" data-name="Path" class="window-L-prim" d="M77.5,102.48,45,83.7158V98.15l32.5,18.7639Z"/>
    <path id="Path-125" data-name="Path" class="window-L-prim" d="M115,124.13,82.5,105.3664V119.8L115,138.5641Z"/>
    <path id="Path-126" data-name="Path" class="window-L-prim" d="M40,80.8291,7.5,62.0652V76.4989L40,95.2628Z"/>
    <path id="Path-127" data-name="Path" class="top-prim" d="M152.5,154.4412,125,138.5641l-5,2.8867,32.5,18.7639Z"/>
    <path id="Path-128" data-name="Path" class="exterior-R-prim" d="M125,138.5641v-8.66l-5-2.8867v14.4337Z"/>
    <path id="Path-129" data-name="Path" class="window-L-light" d="M125,129.9038l7.5,4.33v8.66l-7.5-4.33Z"/>
    <path id="Path-130" data-name="Path" class="window-L-light" d="M138.75,137.8424l6.25,3.6084v8.66l-6.25-3.6083Z"/>
    <path id="Path-131" data-name="Path" class="top-prim" d="M115,132.7906,87.5,116.9134l-5,2.8868L115,138.5641Z"/>
    <path id="Path-132" data-name="Path" class="exterior-R-prim" d="M87.5,116.9134v-8.66l-5-2.8868V119.8Z"/>
    <path id="Path-133" data-name="Path" class="window-L-light" d="M87.5,108.2532l7.5,4.33v8.66l-7.5-4.33Z"/>
    <path id="Path-134" data-name="Path" class="window-L-light" d="M101.25,116.1917,107.5,119.8v8.66l-6.25-3.6084Z"/>
    <path id="Path-135" data-name="Path" class="top-prim" d="M77.5,111.14,50,95.2628,45,98.15l32.5,18.7639Z"/>
    <path id="Path-136" data-name="Path" class="exterior-R-prim" d="M50,95.2628v-8.66l-5-2.8867V98.15Z"/>
    <path id="Path-137" data-name="Path" class="window-L-light" d="M50,86.6026l7.5,4.33v8.66l-7.5-4.33Z"/>
    <path id="Path-138" data-name="Path" class="window-L-light" d="M63.75,94.5411,70,98.15v8.66l-6.25-3.6084Z"/>
    <path id="Path-139" data-name="Path" class="top-prim" d="M40,89.4893,12.5,73.6122l-5,2.8867L40,95.2628Z"/>
    <path id="Path-140" data-name="Path" class="exterior-R-prim" d="M12.5,73.6122v-8.66l-5-2.8867V76.4989Z"/>
    <path id="Path-141" data-name="Path" class="window-L-light" d="M12.5,64.9519l7.5,4.33v8.66l-7.5-4.33Z"/>
    <path id="Path-142" data-name="Path" class="window-L-light" d="M26.25,72.8905l6.25,3.6084v8.66l-6.25-3.6084Z"/>
    <path id="Path-143" data-name="Path" class="window-L-prim" d="M152.5,186.1954,120,167.4315v14.4338l32.5,18.7639Z"/>
    <path id="Path-144" data-name="Path" class="window-L-prim" d="M77.5,142.8942,45,124.13V138.564l32.5,18.7639Z"/>
    <path id="Path-145" data-name="Path" class="window-L-prim" d="M115,164.5448,82.5,145.7809v14.4338L115,178.9785Z"/>
    <path id="Path-146" data-name="Path" class="window-L-prim" d="M40,121.2435,7.5,102.48v14.4338L40,135.6773Z"/>
    <path id="Path-147" data-name="Path" class="top-prim" d="M152.5,194.8557,125,178.9785l-5,2.8868,32.5,18.7639Z"/>
    <path id="Path-148" data-name="Path" class="exterior-R-prim" d="M125,178.9785v-8.66l-5-2.8868v14.4338Z"/>
    <path id="Path-149" data-name="Path" class="window-L-light" d="M125,170.3183l7.5,4.33v8.66l-7.5-4.33Z"/>
    <path id="Path-150" data-name="Path" class="window-L-light" d="M138.75,178.2568l6.25,3.6085v8.66l-6.25-3.6084Z"/>
    <path id="Path-151" data-name="Path" class="top-prim" d="M115,173.205,87.5,157.3279l-5,2.8868L115,178.9785Z"/>
    <path id="Path-152" data-name="Path" class="exterior-R-prim" d="M87.5,157.3279v-8.66l-5-2.8868v14.4338Z"/>
    <path id="Path-153" data-name="Path" class="window-L-light" d="M87.5,148.6677l7.5,4.33v8.66l-7.5-4.33Z"/>
    <path id="Path-154" data-name="Path" class="window-L-light" d="M101.25,156.6062l6.25,3.6084v8.66l-6.25-3.6084Z"/>
    <path id="Path-155" data-name="Path" class="top-prim" d="M77.5,151.5544,50,135.6773l-5,2.8867,32.5,18.7639Z"/>
    <path id="Path-156" data-name="Path" class="exterior-R-prim" d="M50,135.6773v-8.66L45,124.13V138.564Z"/>
    <path id="Path-157" data-name="Path" class="window-L-light" d="M50,127.017l7.5,4.33v8.66l-7.5-4.33Z"/>
    <path id="Path-158" data-name="Path" class="window-L-light" d="M63.75,134.9556,70,138.564v8.66l-6.25-3.6084Z"/>
    <path id="Path-159" data-name="Path" class="top-prim" d="M40,129.9038,12.5,114.0266l-5,2.8868L40,135.6773Z"/>
    <path id="Path-160" data-name="Path" class="exterior-R-prim" d="M12.5,114.0266v-8.66l-5-2.8868v14.4338Z"/>
    <path id="Path-161" data-name="Path" class="window-L-light" d="M12.5,105.3664l7.5,4.33v8.66l-7.5-4.33Z"/>
    <path id="Path-162" data-name="Path" class="window-L-light" d="M26.25,113.305l6.25,3.6084v8.66l-6.25-3.6084Z"/>
    <path id="Path-163" data-name="Path" class="window-L-prim" d="M152.5,226.61,120,207.8461V222.28l32.5,18.7639Z"/>
    <path id="Path-164" data-name="Path" class="window-L-prim" d="M77.5,183.3087,45,164.5448v14.4338l32.5,18.7639Z"/>
    <path id="Path-165" data-name="Path" class="window-L-prim" d="M115,204.9593,82.5,186.1955v14.4337L115,219.3931Z"/>
    <path id="Path-166" data-name="Path" class="window-L-prim" d="M40,161.6581,7.5,142.8942v14.4337L40,176.0918Z"/>
    <path id="Path-167" data-name="Path" class="top-prim" d="M152.5,235.27,125,219.3931l-5,2.8867,32.5,18.7639Z"/>
    <path id="Path-168" data-name="Path" class="exterior-R-prim" d="M125,219.3931v-8.66l-5-2.8867V222.28Z"/>
    <path id="Path-169" data-name="Path" class="window-L-light" d="M125,210.7329l7.5,4.33v8.66l-7.5-4.33Z"/>
    <path id="Path-170" data-name="Path" class="window-L-light" d="M138.75,218.6714,145,222.28v8.66l-6.25-3.6084Z"/>
    <path id="Path-171" data-name="Path" class="top-prim" d="M115,213.62,87.5,197.7424l-5,2.8868L115,219.3931Z"/>
    <path id="Path-172" data-name="Path" class="exterior-R-prim" d="M87.5,197.7424v-8.66l-5-2.8867v14.4337Z"/>
    <path id="Path-173" data-name="Path" class="window-L-light" d="M87.5,189.0822l7.5,4.33v8.66l-7.5-4.33Z"/>
    <path id="Path-174" data-name="Path" class="window-L-light" d="M101.25,197.0208l6.25,3.6084v8.66l-6.25-3.6084Z"/>
    <path id="Path-175" data-name="Path" class="top-prim" d="M77.5,191.969,50,176.0918l-5,2.8868,32.5,18.7639Z"/>
    <path id="Path-176" data-name="Path" class="exterior-R-prim" d="M50,176.0918v-8.66l-5-2.8868v14.4338Z"/>
    <path id="Path-177" data-name="Path" class="window-L-light" d="M50,167.4316l7.5,4.33v8.66l-7.5-4.33Z"/>
    <path id="Path-178" data-name="Path" class="window-L-light" d="M63.75,175.37,70,178.9786v8.66L63.75,184.03Z"/>
    <path id="Path-179" data-name="Path" class="top-prim" d="M40,170.3183,12.5,154.4412l-5,2.8867L40,176.0918Z"/>
    <path id="Path-180" data-name="Path" class="exterior-R-prim" d="M12.5,154.4412v-8.66l-5-2.8867v14.4337Z"/>
    <path id="Path-181" data-name="Path" class="window-L-light" d="M12.5,145.781l7.5,4.33v8.66l-7.5-4.33Z"/>
    <path id="Path-182" data-name="Path" class="window-L-light" d="M26.25,153.72l6.25,3.6084v8.66L26.25,162.38Z"/>
    <path id="Path-183" data-name="Path" class="window-L-prim" d="M152.5,267.0245,120,248.2606v14.4338l32.5,18.7638Z"/>
    <path id="Path-184" data-name="Path" class="window-L-prim" d="M77.5,223.7232,45,204.9593v14.4338L77.5,238.157Z"/>
    <path id="Path-185" data-name="Path" class="window-L-prim" d="M115,245.3739,82.5,226.61v14.4337L115,259.8076Z"/>
    <path id="Path-186" data-name="Path" class="window-L-prim" d="M40,202.0726,7.5,183.3087v14.4338L40,216.5063Z"/>
    <path id="Path-187" data-name="Path" class="top-prim" d="M152.5,275.6847,125,259.8076l-5,2.8868,32.5,18.7638Z"/>
    <path id="Path-188" data-name="Path" class="exterior-R-prim" d="M125,259.8076v-8.66l-5-2.8868v14.4338Z"/>
    <path id="Path-189" data-name="Path" class="window-L-light" d="M125,251.1474l7.5,4.33v8.66l-7.5-4.33Z"/>
    <path id="Path-190" data-name="Path" class="window-L-light" d="M138.75,259.0859l6.25,3.6084v8.66l-6.25-3.6084Z"/>
    <path id="Path-191" data-name="Path" class="top-prim" d="M115,254.0341,87.5,238.157l-5,2.8867L115,259.8076Z"/>
    <path id="Path-192" data-name="Path" class="exterior-R-prim" d="M87.5,238.157v-8.66l-5-2.8867v14.4337Z"/>
    <path id="Path-193" data-name="Path" class="window-L-light" d="M87.5,229.4967l7.5,4.33v8.66l-7.5-4.33Z"/>
    <path id="Path-194" data-name="Path" class="window-L-light" d="M101.25,237.4353l6.25,3.6084v8.66l-6.25-3.6084Z"/>
    <path id="Path-195" data-name="Path" class="top-prim" d="M77.5,232.3835,50,216.5063l-5,2.8868L77.5,238.157Z"/>
    <path id="Path-196" data-name="Path" class="exterior-R-prim" d="M50,216.5063v-8.66l-5-2.8868v14.4338Z"/>
    <path id="Path-197" data-name="Path" class="window-L-light" d="M50,207.8461l7.5,4.33v8.66l-7.5-4.33Z"/>
    <path id="Path-198" data-name="Path" class="window-L-light" d="M63.75,215.7846,70,219.3931v8.66l-6.25-3.6084Z"/>
    <path id="Path-199" data-name="Path" class="top-prim" d="M40,210.7328,12.5,194.8557l-5,2.8868L40,216.5063Z"/>
    <path id="Path-200" data-name="Path" class="exterior-R-prim" d="M12.5,194.8557v-8.66l-5-2.8868v14.4338Z"/>
    <path id="Path-201" data-name="Path" class="window-L-light" d="M12.5,186.1955l7.5,4.33v8.66l-7.5-4.33Z"/>
    <path id="Path-202" data-name="Path" class="window-L-light" d="M26.25,194.134l6.25,3.6084v8.66l-6.25-3.6084Z"/>
    <path id="Path-203" data-name="Path" class="window-L-prim" d="M152.5,307.439,120,288.6751v14.4338l32.5,18.7639Z"/>
    <path id="Path-204" data-name="Path" class="window-L-prim" d="M77.5,264.1377,45,245.3739v14.4337l32.5,18.7639Z"/>
    <path id="Path-205" data-name="Path" class="window-L-prim" d="M115,285.7884,82.5,267.0245v14.4337L115,300.2221Z"/>
    <path id="Path-206" data-name="Path" class="window-L-prim" d="M40,242.4871,7.5,223.7232V238.157L40,256.9209Z"/>
    <path id="Path-207" data-name="Path" class="top-prim" d="M152.5,316.0993,125,300.2221l-5,2.8868,32.5,18.7639Z"/>
    <path id="Path-208" data-name="Path" class="exterior-R-prim" d="M125,300.2221v-8.66l-5-2.8868v14.4338Z"/>
    <path id="Path-209" data-name="Path" class="window-L-light" d="M125,291.5619l7.5,4.33v8.66l-7.5-4.33Z"/>
    <path id="Path-210" data-name="Path" class="window-L-light" d="M138.75,299.5l6.25,3.6085v8.66l-6.25-3.6084Z"/>
    <path id="Path-211" data-name="Path" class="top-prim" d="M115,294.4486,87.5,278.5715l-5,2.8867L115,300.2221Z"/>
    <path id="Path-212" data-name="Path" class="exterior-R-prim" d="M87.5,278.5715v-8.66l-5-2.8867v14.4337Z"/>
    <path id="Path-213" data-name="Path" class="window-L-light" d="M87.5,269.9113l7.5,4.33v8.66l-7.5-4.33Z"/>
    <path id="Path-214" data-name="Path" class="window-L-light" d="M101.25,277.85l6.25,3.6084v8.66l-6.25-3.6084Z"/>
    <path id="Path-215" data-name="Path" class="top-prim" d="M77.5,272.798,50,256.9209l-5,2.8867,32.5,18.7639Z"/>
    <path id="Path-216" data-name="Path" class="exterior-R-prim" d="M50,256.9209v-8.66l-5-2.8867v14.4337Z"/>
    <path id="Path-217" data-name="Path" class="window-L-light" d="M50,248.2606l7.5,4.33v8.66l-7.5-4.33Z"/>
    <path id="Path-218" data-name="Path" class="window-L-light" d="M63.75,256.1992,70,259.8076v8.66l-6.25-3.6084Z"/>
    <path id="Path-219" data-name="Path" class="top-prim" d="M40,251.1474,12.5,235.27l-5,2.8868L40,256.9209Z"/>
    <path id="Path-220" data-name="Path" class="exterior-R-prim" d="M12.5,235.27v-8.66l-5-2.8868V238.157Z"/>
    <path id="Path-221" data-name="Path" class="window-L-light" d="M12.5,226.61l7.5,4.33v8.66l-7.5-4.33Z"/>
    <path id="Path-222" data-name="Path" class="window-L-light" d="M26.25,234.5485l6.25,3.6085v8.66l-6.25-3.6084Z"/>
    <path id="Path-223" data-name="Path" class="window-L-prim" d="M152.5,165.9882,120,147.2243v14.4338l32.5,18.7639Z"/>
    <path id="Path-224" data-name="Path" class="window-L-prim" d="M77.5,122.6869,45,103.9231v14.4337l32.5,18.7639Z"/>
    <path id="Path-225" data-name="Path" class="window-L-prim" d="M115,144.3376,82.5,125.5737v14.4337L115,158.7713Z"/>
    <path id="Path-226" data-name="Path" class="window-L-prim" d="M40,101.0363,7.5,82.2724V96.7062L40,115.47Z"/>
    <path id="Path-227" data-name="Path" class="top-prim" d="M152.5,174.6485,125,158.7713l-5,2.8868,32.5,18.7639Z"/>
    <path id="Path-228" data-name="Path" class="exterior-R-prim" d="M125,158.7713v-8.66l-5-2.8868v14.4338Z"/>
    <path id="Path-229" data-name="Path" class="window-L-light" d="M125,150.1111l7.5,4.33v8.66l-7.5-4.33Z"/>
    <path id="Path-230" data-name="Path" class="window-L-light" d="M138.75,158.05l6.25,3.6085v8.66l-6.25-3.6084Z"/>
    <path id="Path-231" data-name="Path" class="top-prim" d="M115,152.9978,87.5,137.1207l-5,2.8867L115,158.7713Z"/>
    <path id="Path-232" data-name="Path" class="exterior-R-prim" d="M87.5,137.1207v-8.66l-5-2.8867v14.4337Z"/>
    <path id="Path-233" data-name="Path" class="window-L-light" d="M87.5,128.4605l7.5,4.33v8.66l-7.5-4.33Z"/>
    <path id="Path-234" data-name="Path" class="window-L-light" d="M101.25,136.399l6.25,3.6084v8.66l-6.25-3.6084Z"/>
    <path id="Path-235" data-name="Path" class="top-prim" d="M77.5,131.3472,50,115.47l-5,2.8867,32.5,18.7639Z"/>
    <path id="Path-236" data-name="Path" class="exterior-R-prim" d="M50,115.47v-8.66l-5-2.8867v14.4337Z"/>
    <path id="Path-237" data-name="Path" class="window-L-light" d="M50,106.81l7.5,4.33v8.66L50,115.47Z"/>
    <path id="Path-238" data-name="Path" class="window-L-light" d="M63.75,114.7484,70,118.3568v8.66l-6.25-3.6084Z"/>
    <path id="Path-239" data-name="Path" class="top-prim" d="M40,109.6966,12.5,93.8194l-5,2.8868L40,115.47Z"/>
    <path id="Path-240" data-name="Path" class="exterior-R-prim" d="M12.5,93.8194v-8.66l-5-2.8868V96.7062Z"/>
    <path id="Path-241" data-name="Path" class="window-L-light" d="M12.5,85.1592l7.5,4.33v8.66l-7.5-4.33Z"/>
    <path id="Path-242" data-name="Path" class="window-L-light" d="M26.25,93.0977l6.25,3.6085v8.66l-6.25-3.6084Z"/>
    <path id="Path-243" data-name="Path" class="window-L-prim" d="M152.5,206.4027,120,187.6388v14.4337l32.5,18.7639Z"/>
    <path id="Path-244" data-name="Path" class="window-L-prim" d="M77.5,163.1014,45,144.3375v14.4338l32.5,18.7639Z"/>
    <path id="Path-245" data-name="Path" class="window-L-prim" d="M115,184.7521,82.5,165.9882v14.4337L115,199.1858Z"/>
    <path id="Path-246" data-name="Path" class="window-L-prim" d="M40,141.4508,7.5,122.6869v14.4338L40,155.8845Z"/>
    <path id="Path-247" data-name="Path" class="top-prim" d="M152.5,215.0629,125,199.1858l-5,2.8867,32.5,18.7639Z"/>
    <path id="Path-248" data-name="Path" class="exterior-R-prim" d="M125,199.1858v-8.66l-5-2.8868v14.4337Z"/>
    <path id="Path-249" data-name="Path" class="window-L-light" d="M125,190.5256l7.5,4.33v8.66l-7.5-4.33Z"/>
    <path id="Path-250" data-name="Path" class="window-L-light" d="M138.75,198.4641l6.25,3.6084v8.66l-6.25-3.6084Z"/>
    <path id="Path-251" data-name="Path" class="top-prim" d="M115,193.4123,87.5,177.5352l-5,2.8867L115,199.1858Z"/>
    <path id="Path-252" data-name="Path" class="exterior-R-prim" d="M87.5,177.5352v-8.66l-5-2.8867v14.4337Z"/>
    <path id="Path-253" data-name="Path" class="window-L-light" d="M87.5,168.8749l7.5,4.33v8.66l-7.5-4.33Z"/>
    <path id="Path-254" data-name="Path" class="window-L-light" d="M101.25,176.8135l6.25,3.6084v8.66l-6.25-3.6083Z"/>
    <path id="Path-255" data-name="Path" class="top-prim" d="M77.5,171.7617,50,155.8845l-5,2.8868,32.5,18.7639Z"/>
    <path id="Path-256" data-name="Path" class="exterior-R-prim" d="M50,155.8845v-8.66l-5-2.8868v14.4338Z"/>
    <path id="Path-257" data-name="Path" class="window-L-light" d="M50,147.2243l7.5,4.33v8.66l-7.5-4.33Z"/>
    <path id="Path-258" data-name="Path" class="window-L-light" d="M63.75,155.1628,70,158.7713v8.66l-6.25-3.6084Z"/>
    <path id="Path-259" data-name="Path" class="top-prim" d="M40,150.111,12.5,134.2339l-5,2.8868L40,155.8845Z"/>
    <path id="Path-260" data-name="Path" class="exterior-R-prim" d="M12.5,134.2339v-8.66l-5-2.8868v14.4338Z"/>
    <path id="Path-261" data-name="Path" class="window-L-light" d="M12.5,125.5737l7.5,4.33v8.66l-7.5-4.33Z"/>
    <path id="Path-262" data-name="Path" class="window-L-light" d="M26.25,133.5122l6.25,3.6084v8.66l-6.25-3.6084Z"/>
    <path id="Path-263" data-name="Path" class="window-L-prim" d="M152.5,246.8172,120,228.0533v14.4338l32.5,18.7639Z"/>
    <path id="Path-264" data-name="Path" class="window-L-prim" d="M77.5,203.516,45,184.7521v14.4337L77.5,217.95Z"/>
    <path id="Path-265" data-name="Path" class="window-L-prim" d="M115,225.1666,82.5,206.4027v14.4338L115,239.6Z"/>
    <path id="Path-266" data-name="Path" class="window-L-prim" d="M40,181.8653,7.5,163.1015v14.4337L40,196.2991Z"/>
    <path id="Path-267" data-name="Path" class="top-prim" d="M152.5,255.4775,125,239.6l-5,2.8868,32.5,18.7639Z"/>
    <path id="Path-268" data-name="Path" class="exterior-R-prim" d="M125,239.6v-8.66l-5-2.8868v14.4338Z"/>
    <path id="Path-269" data-name="Path" class="window-L-light" d="M125,230.94l7.5,4.33v8.66L125,239.6Z"/>
    <path id="Path-270" data-name="Path" class="window-L-light" d="M138.75,238.8787l6.25,3.6084v8.66l-6.25-3.6084Z"/>
    <path id="Path-271" data-name="Path" class="top-prim" d="M115,233.8268,87.5,217.95l-5,2.8868L115,239.6Z"/>
    <path id="Path-272" data-name="Path" class="exterior-R-prim" d="M87.5,217.95v-8.66l-5-2.8868v14.4338Z"/>
    <path id="Path-273" data-name="Path" class="window-L-light" d="M87.5,209.29l7.5,4.33v8.66l-7.5-4.33Z"/>
    <path id="Path-274" data-name="Path" class="window-L-light" d="M101.25,217.228l6.25,3.6084v8.66l-6.25-3.6084Z"/>
    <path id="Path-275" data-name="Path" class="top-prim" d="M77.5,212.1762,50,196.2991l-5,2.8867L77.5,217.95Z"/>
    <path id="Path-276" data-name="Path" class="exterior-R-prim" d="M50,196.2991v-8.66l-5-2.8867v14.4337Z"/>
    <path id="Path-277" data-name="Path" class="window-L-light" d="M50,187.6388l7.5,4.33v8.66l-7.5-4.33Z"/>
    <path id="Path-278" data-name="Path" class="window-L-light" d="M63.75,195.5774,70,199.1858v8.66l-6.25-3.6084Z"/>
    <path id="Path-279" data-name="Path" class="top-prim" d="M40,190.5256,12.5,174.6484l-5,2.8868L40,196.2991Z"/>
    <path id="Path-280" data-name="Path" class="exterior-R-prim" d="M12.5,174.6484v-8.66l-5-2.8867v14.4337Z"/>
    <path id="Path-281" data-name="Path" class="window-L-light" d="M12.5,165.9882l7.5,4.33v8.66l-7.5-4.33Z"/>
    <path id="Path-282" data-name="Path" class="window-L-light" d="M26.25,173.9268l6.25,3.6084v8.66l-6.25-3.6084Z"/>
    <path id="Path-283" data-name="Path" class="window-L-prim" d="M152.5,287.2317,120,268.4679v14.4337l32.5,18.7639Z"/>
    <path id="Path-284" data-name="Path" class="window-L-prim" d="M77.5,243.9305,45,225.1666V239.6l32.5,18.7639Z"/>
    <path id="Path-285" data-name="Path" class="window-L-prim" d="M115,265.5811,82.5,246.8172V261.251L115,280.0149Z"/>
    <path id="Path-286" data-name="Path" class="window-L-prim" d="M40,222.28,7.5,203.516V217.95L40,236.7136Z"/>
    <path id="Path-287" data-name="Path" class="top-prim" d="M152.5,295.892,125,280.0149l-5,2.8867,32.5,18.7639Z"/>
    <path id="Path-288" data-name="Path" class="exterior-R-prim" d="M125,280.0149v-8.66l-5-2.8867v14.4337Z"/>
    <path id="Path-289" data-name="Path" class="window-L-light" d="M125,271.3546l7.5,4.33v8.66l-7.5-4.33Z"/>
    <path id="Path-290" data-name="Path" class="window-L-light" d="M138.75,279.2932l6.25,3.6084v8.66l-6.25-3.6084Z"/>
    <path id="Path-291" data-name="Path" class="top-prim" d="M115,274.2414,87.5,258.3642l-5,2.8868L115,280.0149Z"/>
    <path id="Path-292" data-name="Path" class="exterior-R-prim" d="M87.5,258.3642v-8.66l-5-2.8868V261.251Z"/>
    <path id="Path-293" data-name="Path" class="window-L-light" d="M87.5,249.704l7.5,4.33v8.66l-7.5-4.33Z"/>
    <path id="Path-294" data-name="Path" class="window-L-light" d="M101.25,257.6425l6.25,3.6085v8.66l-6.25-3.6084Z"/>
    <path id="Path-295" data-name="Path" class="top-prim" d="M77.5,252.5907,50,236.7136,45,239.6l32.5,18.7639Z"/>
    <path id="Path-296" data-name="Path" class="exterior-R-prim" d="M50,236.7136v-8.66l-5-2.8867V239.6Z"/>
    <path id="Path-297" data-name="Path" class="window-L-light" d="M50,228.0534l7.5,4.33v8.66l-7.5-4.33Z"/>
    <path id="Path-298" data-name="Path" class="window-L-light" d="M63.75,235.9919,70,239.6v8.66l-6.25-3.6084Z"/>
    <path id="Path-299" data-name="Path" class="top-prim" d="M40,230.94,12.5,215.063l-5,2.8867L40,236.7136Z"/>
    <path id="Path-300" data-name="Path" class="exterior-R-prim" d="M12.5,215.063v-8.66l-5-2.8867V217.95Z"/>
    <path id="Path-301" data-name="Path" class="window-L-light" d="M12.5,206.4027l7.5,4.33v8.66l-7.5-4.33Z"/>
    <path id="Path-302" data-name="Path" class="window-L-light" d="M26.25,214.3413,32.5,217.95v8.66l-6.25-3.6084Z"/>
    <path id="Path-303" data-name="Path" class="window-L-prim" d="M152.5,327.6463,120,308.8824v14.4337L152.5,342.08Z"/>
    <path id="Path-304" data-name="Path" class="window-L-prim" d="M77.5,284.345,45,265.5811v14.4338l32.5,18.7639Z"/>
    <path id="Path-305" data-name="Path" class="window-L-prim" d="M115,305.9956,82.5,287.2318v14.4337L115,320.4294Z"/>
    <path id="Path-306" data-name="Path" class="window-L-prim" d="M40,262.6944,7.5,243.9305v14.4337L40,277.1281Z"/>
    <path id="Path-307" data-name="Path" class="top-prim" d="M152.5,336.3065,125,320.4294l-5,2.8867L152.5,342.08Z"/>
    <path id="Path-308" data-name="Path" class="exterior-R-prim" d="M125,320.4294v-8.66l-5-2.8867v14.4337Z"/>
    <path id="Path-309" data-name="Path" class="window-L-light" d="M125,311.7692l7.5,4.33v8.66l-7.5-4.33Z"/>
    <path id="Path-310" data-name="Path" class="window-L-light" d="M138.75,319.7077l6.25,3.6084v8.66l-6.25-3.6084Z"/>
    <path id="Path-311" data-name="Path" class="top-prim" d="M115,314.6559,87.5,298.7788l-5,2.8867L115,320.4294Z"/>
    <path id="Path-312" data-name="Path" class="exterior-R-prim" d="M87.5,298.7788v-8.66l-5-2.8867v14.4337Z"/>
    <path id="Path-313" data-name="Path" class="window-L-light" d="M87.5,290.1185l7.5,4.33v8.66l-7.5-4.33Z"/>
    <path id="Path-314" data-name="Path" class="window-L-light" d="M101.25,298.0571l6.25,3.6084v8.66l-6.25-3.6084Z"/>
    <path id="Path-315" data-name="Path" class="top-prim" d="M77.5,293.0053,50,277.1281l-5,2.8868,32.5,18.7639Z"/>
    <path id="Path-316" data-name="Path" class="exterior-R-prim" d="M50,277.1281v-8.66l-5-2.8868v14.4338Z"/>
    <path id="Path-317" data-name="Path" class="window-L-light" d="M50,268.4679l7.5,4.33v8.66l-7.5-4.33Z"/>
    <path id="Path-318" data-name="Path" class="window-L-light" d="M63.75,276.4064,70,280.0149v8.66l-6.25-3.6084Z"/>
    <path id="Path-319" data-name="Path" class="top-prim" d="M40,271.3546,12.5,255.4775l-5,2.8867L40,277.1281Z"/>
    <path id="Path-320" data-name="Path" class="exterior-R-prim" d="M12.5,255.4775v-8.66l-5-2.8867v14.4337Z"/>
    <path id="Path-321" data-name="Path" class="window-L-light" d="M12.5,246.8173l7.5,4.33v8.66l-7.5-4.33Z"/>
    <path id="Path-322" data-name="Path" class="window-L-light" d="M26.25,254.7558l6.25,3.6084v8.66l-6.25-3.6084Z"/>
  </g>
</svg>
