<svg id="Layer_1" data-name="Layer 1" xmlns="http://www.w3.org/2000/svg" viewBox="0 0 520 412.806">
  <defs>
    <style>
      .top-dark {
        fill: #c67471;
      }

      .exterior-R-prim {
        fill: #d05752;
      }

      .exterior-L-prim {
        fill: #73302e;
      }

      .curtain-R-prim-light {
        fill: #59acd0;
      }

      .curtain-L-prim-light {
        fill: #438fb0;
      }

      .curtain-L-prim-dark {
        fill: #2f5565;
      }

      .curtain-R-prim-dark {
        fill: #3e809c;
      }

      .top-light {
        fill: #ffc8c6;
      }

      .cls-1 {
        fill: #6ecfff;
      }

      .curtain-R-prim-dark-light {
        fill: #4d90ad;
      }

      .curtain-R-prim-light-dark {
        fill: #3999c1;
      }

      .cls-2 {
        fill: #d0ecfb;
      }
    </style>
  </defs>
  <title>Artboard 31</title>
  <g id="root">
    <path id="anchor_5_297.336_515" data-name="anchor_5_297.336_515" class="top-dark" d="M5,161.658v-2.887L280,0,520,138.564v2.887L245,300.222Z"/>
    <path class="exterior-R-prim" d="M520,242.4871,245,401.259V372.391L520,213.62Z"/>
    <path class="exterior-L-prim" d="M320,369.504l-10,5.774-10-5.774V334.863h20Z"/>
    <path class="exterior-L-prim" d="M387.5,330.533l-10,5.774-10-5.774V295.892h20Z"/>
    <path class="exterior-L-prim" d="M455,291.562l-10,5.7741-10-5.7741V256.921h20Z"/>
    <path class="exterior-L-prim" d="M520,254.0341l-10,5.7739-10-5.7739V219.3929h20Z"/>
    <path class="curtain-R-prim-light" d="M295,372.391v-17.32l-45,25.98v17.3209Z"/>
    <path class="curtain-R-prim-light" d="M362.5,333.42V310.326l-45,25.981v23.094Z"/>
    <path class="curtain-R-prim-light" d="M430,294.449V271.355l-45,25.98v23.094Z"/>
    <path class="curtain-R-prim-light" d="M495,256.921V233.827l-45,25.981v23.094Z"/>
    <path class="exterior-R-prim" d="M235,407.032l10,5.774,10-5.774V372.391H235Z"/>
    <path class="exterior-R-prim" d="M310,375.278l10-5.774V334.863l-10,5.774Z"/>
    <path class="exterior-R-prim" d="M445,297.3361l10-5.7741V256.921l-10,5.7739Z"/>
    <path class="exterior-R-prim" d="M377.5,336.307l10-5.774V295.892l-10,5.774Z"/>
    <path class="exterior-R-prim" d="M510,259.808l10-5.7739V219.3929l-10,5.7741Z"/>
    <path class="exterior-L-prim" d="M5,262.694,245,401.259V372.391L5,233.827Z"/>
    <path class="curtain-L-prim-light" d="M202.5,376.7209v-17.32l37.5,21.65v17.3209Z"/>
    <path class="exterior-R-prim" d="M177.5,373.834l10,5.774,10-5.774V339.193h-20Z"/>
    <path class="curtain-L-prim-light" d="M145,343.524V326.203l37.5,21.651v17.32Z"/>
    <path class="curtain-L-prim-dark" d="M232.5,394.042l7.5,4.33V381.051l-7.5-4.33Z"/>
    <path class="curtain-L-prim-dark" d="M175,360.844l7.5,4.33v-17.32l-7.5-4.33Z"/>
    <path class="exterior-L-prim" d="M245,412.806l-10-5.774V372.391l10,5.774Z"/>
    <path class="curtain-L-prim-light" d="M87.5,310.326V293.005L125,314.656v17.3211Z"/>
    <path class="curtain-L-prim-dark" d="M117.5,327.646l7.5,4.3311V314.656l-7.5-4.33Z"/>
    <path class="curtain-L-prim-light" d="M30,277.1281v-17.32l37.5,21.65v17.3211Z"/>
    <path class="curtain-L-prim-dark" d="M60,294.449l7.5,4.33V281.458l-7.5-4.33Z"/>
    <path class="exterior-R-prim" d="M120,340.637l10,5.903,10-5.773V306.126l-20-.13Z"/>
    <path class="exterior-R-prim" d="M62.5,307.439l10,5.774,10-5.774V272.798h-20Z"/>
    <path class="exterior-R-prim" d="M5,274.241l10,5.774,10-5.774V239.6H5Z"/>
    <path class="curtain-R-prim-light" d="M245,297.3361V366.618L520,207.8459V138.564Z"/>
    <path class="curtain-L-prim-light" d="M245,297.3361V378.165L5,239.6V158.771Z"/>
    <path class="curtain-R-prim-dark" d="M520,138.564v23.094L300,288.675V265.5811Z"/>
    <path class="curtain-R-prim-dark" d="M520,184.752v23.0939L305,331.9771v-23.094Z"/>
    <path class="curtain-R-prim-dark" d="M305,274.2419v23.0942l-60,34.641v-23.094Z"/>
    <path class="curtain-R-prim-dark" d="M305,308.8831v23.094L245,366.618V343.524Z"/>
    <path class="exterior-L-prim" d="M15,280.015,5,274.241V239.6l10,5.774Z"/>
    <path class="exterior-L-prim" d="M72.5,313.213l-10-5.774V272.798l10,5.774Z"/>
    <path class="curtain-L-prim-dark" d="M155,320.494l-7.5-4.33V252.656l7.5,4.33Z"/>
    <path class="exterior-L-prim" d="M130,346.41l-10-5.773V305.996l10,5.773Z"/>
    <path class="curtain-L-prim-dark" d="M185,337.8149l-7.5-4.33V269.976l7.5,4.33Z"/>
    <path class="exterior-L-prim" d="M187.5,379.608l-10-5.774v-34.64l10,5.773Z"/>
    <path class="curtain-L-prim-dark" d="M215,355.135l-7.5-4.33V287.296l7.5,4.331Z"/>
    <path class="curtain-R-prim-light" d="M275,355.135l7.5-4.33V287.296l-7.5,4.331Z"/>
    <path class="exterior-L-prim" d="M245,331.9771l5,2.8859V346.41l-5-2.886Z"/>
    <path class="curtain-L-prim-dark" d="M245,372.4561l-7.5-4.33V304.6169l7.5,4.33Z"/>
    <path class="curtain-R-prim-light" d="M245,372.4561l7.5-4.33V304.6169l-7.5,4.33Z"/>
    <path class="exterior-L-prim" d="M245,366.618l60-34.6409,5,2.8859V346.41l-60,34.641-5-2.886Z"/>
    <path class="curtain-L-prim-dark" d="M170,329.155l-7.5-4.33V261.316l7.5,4.33Z"/>
    <path class="exterior-L-prim" d="M310,265.5811v11.547L250,311.769l-5-2.8859v-11.547l60-34.6421Z"/>
    <path class="exterior-L-prim" d="M245,331.9771l60-34.641,5,2.8859v11.547L250,346.41l-5-2.886Z"/>
    <path class="curtain-L-prim-dark" d="M200,346.475l-7.5-4.33V278.637l7.5,4.33Z"/>
    <path class="curtain-R-prim-light" d="M290,346.475l7.5-4.33V278.637l-7.5,4.33Z"/>
    <path class="top-light" d="M245,297.3361l-97.5-56.2922-5,2.8871v11.547L240,311.769l5-2.8859Z"/>
    <path class="curtain-L-prim-dark" d="M230,363.796l-7.5-4.33V295.957l7.5,4.33Z"/>
    <path class="curtain-R-prim-light" d="M260,363.796l7.5-4.33V295.957l-7.5,4.33Z"/>
    <path class="top-light" d="M245,331.9771l-97.5-56.292-5,2.8869v11.547L240,346.41l5-2.886Z"/>
    <path class="curtain-L-prim-dark" d="M12.5,238.157,5,233.827V170.318l7.5,4.331Z"/>
    <path class="curtain-L-prim-dark" d="M42.5,255.478l-7.5-4.33V187.639l7.5,4.33Z"/>
    <path class="curtain-L-prim-dark" d="M72.5,272.798l-7.5-4.33V204.959l7.5,4.33Z"/>
    <path class="curtain-L-prim-dark" d="M102.5,290.119l-7.5-4.33V222.28l7.5,4.33Z"/>
    <path class="curtain-L-prim-dark" d="M27.5,246.818,20,242.4871V178.979l7.5,4.33Z"/>
    <path class="curtain-L-prim-dark" d="M57.5,264.1381l-7.5-4.33V196.299l7.5,4.331Z"/>
    <path class="curtain-L-prim-dark" d="M87.5,281.458l-7.5-4.33V213.62l7.5,4.33Z"/>
    <path class="curtain-L-prim-dark" d="M117.5,298.7791l-7.5-4.33V230.94l7.5,4.3311Z"/>
    <path class="curtain-L-prim-dark" d="M125,303.109l-7.5-4.33V235.27l7.5,4.331Z"/>
    <path class="top-light" d="M245,378.165V366.618l-97.5-56.292-5,2.887V324.76L240,381.051Z"/>
    <path class="top-light" d="M102.5,215.063,5,158.771l-5,2.887v11.547l97.5,56.2919,5-2.8869Z"/>
    <path class="top-light" d="M102.5,249.704,5,193.542l-5,2.887v11.4169l97.5,56.2922,5-2.8871Z"/>
    <path class="top-light" d="M102.5,284.345,5,228.053,0,230.94v11.5472l97.5,56.292,5-2.8871Z"/>
    <path class="cls-1" d="M240,311.769l-97.5-56.291V243.931L240,300.222Z"/>
    <path class="cls-1" d="M240,346.41l-97.5-56.162V278.572L240,334.863Z"/>
    <path class="cls-1" d="M240,381.051,142.5,324.76V313.213L240,369.504Z"/>
    <path class="cls-1" d="M97.5,229.4969,0,173.205V161.658L97.5,217.95Z"/>
    <path class="cls-1" d="M97.5,264.1381,0,207.976V196.429l97.5,56.1619Z"/>
    <path class="cls-1" d="M97.5,298.7791,0,242.4871V230.94l97.5,56.2922Z"/>
    <path class="exterior-R-prim" d="M240,300.222l5-2.8859v11.547l-5,2.8859Z"/>
    <path class="exterior-R-prim" d="M240,334.863l5-2.8859V343.524l-5,2.886Z"/>
    <path class="exterior-R-prim" d="M240,369.504l5-2.886v11.547l-5,2.886Z"/>
    <path class="exterior-R-prim" d="M97.5,217.95l5-2.887V226.61l-5,2.8869Z"/>
    <path class="exterior-R-prim" d="M97.5,252.7209l5-2.8869v11.547l-5,2.8869Z"/>
    <path class="exterior-R-prim" d="M97.5,287.2321l5-2.8871v11.547l-5,2.8871Z"/>
    <path class="top-light" d="M107.5,304.552V223.723l5-2.886,25,14.433v80.829l-5,2.887Z"/>
    <path class="cls-1" d="M107.5,223.723l25,14.434v80.829l-25-14.434Z"/>
    <path class="exterior-R-prim" d="M132.5,318.986l5-2.887V235.27l-5,2.887Z"/>
    <path class="curtain-R-prim-dark-light" d="M305,285.7889l5-2.8869V259.808l-5,2.8869Z"/>
    <path class="curtain-R-prim-dark-light" d="M305,331.9771l5-2.8871V305.996l-5,2.8871Z"/>
    <path class="curtain-R-prim-dark-light" d="M380,242.4871l10-5.7731V213.62l-10,5.7729Z"/>
    <path class="curtain-R-prim-dark-light" d="M380,288.675l10-5.773V259.808l-10,5.7731Z"/>
    <path class="curtain-R-prim-dark-light" d="M460,196.299l10-5.773V167.432l-10,5.773Z"/>
    <path class="curtain-R-prim-dark-light" d="M460,242.4871l10-5.7731V213.62l-10,5.7729Z"/>
    <path class="curtain-R-prim-dark-light" d="M340,265.5811l10-5.7731V236.714l-10,5.7731Z"/>
    <path class="curtain-R-prim-dark-light" d="M340,311.769l10-5.773V282.902l-10,5.773Z"/>
    <path class="curtain-R-prim-dark-light" d="M420,219.3929l10-5.7729V190.526l-10,5.773Z"/>
    <path class="curtain-R-prim-dark-light" d="M420,265.5811l10-5.7731V236.714l-10,5.7731Z"/>
    <path class="curtain-R-prim-dark-light" d="M500,173.205l10-5.773V144.338l-10,5.773Z"/>
    <path class="curtain-R-prim-dark-light" d="M500,219.3929l10-5.7729V190.526l-10,5.773Z"/>
    <path class="curtain-R-prim-dark-light" d="M320,277.1281l10-5.7731V248.261l-10,5.7731Z"/>
    <path class="curtain-R-prim-dark-light" d="M320,323.316l10-5.773V294.449l-10,5.773Z"/>
    <path class="curtain-R-prim-dark-light" d="M400,230.94l10-5.7729V202.073l-10,5.7729Z"/>
    <path class="curtain-R-prim-dark-light" d="M400,277.1281l10-5.7731V248.261l-10,5.7731Z"/>
    <path class="curtain-R-prim-dark-light" d="M480,184.752l10-5.773V155.885l-10,5.773Z"/>
    <path class="curtain-R-prim-dark-light" d="M480,230.94l10-5.7729V202.073l-10,5.7729Z"/>
    <path class="curtain-R-prim-dark-light" d="M360,254.0341l10-5.7731V225.167L360,230.94Z"/>
    <path class="curtain-R-prim-dark-light" d="M360,300.222l10-5.773V271.355l-10,5.7731Z"/>
    <path class="curtain-R-prim-dark-light" d="M440,207.8459l10-5.7729V178.979l-10,5.773Z"/>
    <path class="curtain-R-prim-dark-light" d="M440,254.0341l10-5.7731V225.167L440,230.94Z"/>
    <path class="curtain-R-prim-light-dark" d="M310,305.996l10-5.774V277.1281l-10,5.7739Z"/>
    <path class="curtain-R-prim-light-dark" d="M390,259.808l10-5.7739V230.94l-10,5.7741Z"/>
    <path class="curtain-R-prim-light-dark" d="M470,213.62l10-5.7741V184.752l-10,5.774Z"/>
    <path class="curtain-R-prim-light-dark" d="M350,282.902l10-5.7739v-23.094l-10,5.7739Z"/>
    <path class="curtain-R-prim-light-dark" d="M430,236.714l10-5.7741v-23.094L430,213.62Z"/>
    <path class="curtain-R-prim-light-dark" d="M510,190.526l10-5.774V161.658l-10,5.774Z"/>
    <path class="curtain-R-prim-light-dark" d="M330,294.449l10-5.774V265.5811l-10,5.7739Z"/>
    <path class="curtain-R-prim-light-dark" d="M410,248.261l10-5.7739V219.3929l-10,5.7741Z"/>
    <path class="curtain-R-prim-light-dark" d="M490,202.073l10-5.774V173.205l-10,5.774Z"/>
    <path class="curtain-R-prim-light-dark" d="M370,271.355l10-5.7739v-23.094l-10,5.7739Z"/>
    <path class="curtain-R-prim-light-dark" d="M450,225.167l10-5.7741V196.299l-10,5.774Z"/>
    <path class="exterior-R-prim" d="M520,207.8459v11.547L300,346.41V334.863Z"/>
    <path class="cls-2" d="M250,311.769l60-34.6409v-11.547L250,300.222Z"/>
    <path class="cls-2" d="M250,346.41l60-34.641V300.222l-60,34.641Z"/>
    <path class="cls-2" d="M250,381.051l60-34.641V334.863l-60,34.641Z"/>
    <path class="top-light" d="M245,297.3361l60-34.6421,5,2.8871L250,300.222Z"/>
    <path class="top-light" d="M245,331.9771l60-34.641,5,2.8859-60,34.641Z"/>
    <path class="top-light" d="M245,366.618l60-34.6409,5,2.8859-60,34.641Z"/>
    <path class="curtain-L-prim-dark" d="M202.5,376.7209l7.5,4.33v-17.32l-7.5-4.33Z"/>
    <path class="curtain-L-prim-dark" d="M145,343.524l7.5,4.33V330.533l-7.5-4.33Z"/>
    <path class="curtain-L-prim-dark" d="M217.5,385.381l7.5,4.331V372.391l-7.5-4.33Z"/>
    <path class="curtain-R-prim-light-dark" d="M295,372.391l-7.5,4.33v-17.32l7.5-4.33Z"/>
    <path class="curtain-R-prim-light-dark" d="M362.5,333.42l-7.5,4.33V314.656l7.5-4.33Z"/>
    <path class="curtain-R-prim-light-dark" d="M430,294.449l-7.5,4.33v-23.094l7.5-4.33Z"/>
    <path class="curtain-R-prim-light-dark" d="M495,256.921l-7.5,4.33V238.157l7.5-4.33Z"/>
    <path class="curtain-R-prim-light-dark" d="M265,389.712l-7.5,4.33V376.7209l7.5-4.33Z"/>
    <path class="curtain-R-prim-light-dark" d="M332.5,350.74l-7.5,4.33V331.9771l7.5-4.3311Z"/>
    <path class="curtain-R-prim-light-dark" d="M400,311.769l-7.5,4.33V293.005l7.5-4.33Z"/>
    <path class="curtain-R-prim-light-dark" d="M465,274.241l-7.5,4.33V255.478l7.5-4.331Z"/>
    <path class="curtain-R-prim-light-dark" d="M280,381.051l-7.5,4.33v-17.32l7.5-4.33Z"/>
    <path class="curtain-R-prim-light-dark" d="M347.5,342.08l-7.5,4.33V323.316l7.5-4.33Z"/>
    <path class="curtain-R-prim-light-dark" d="M415,303.109l-7.5,4.33V284.345l7.5-4.33Z"/>
    <path class="curtain-R-prim-light-dark" d="M480,265.5811l-7.5,4.33V246.817l7.5-4.33Z"/>
    <path class="curtain-L-prim-dark" d="M160,352.184l7.5,4.33V339.193l-7.5-4.33Z"/>
    <path class="curtain-L-prim-dark" d="M87.5,310.326l7.5,4.33v-17.32l-7.5-4.3311Z"/>
    <path class="curtain-L-prim-dark" d="M102.5,318.986l7.5,4.33v-17.32l-7.5-4.33Z"/>
    <path class="curtain-L-prim-dark" d="M30,277.1281l7.5,4.33v-17.32l-7.5-4.33Z"/>
    <path class="curtain-L-prim-dark" d="M45,285.788l7.5,4.33v-17.32l-7.5-4.33Z"/>
  </g>
</svg>
