<svg id="Layer_1" data-name="Layer 1" xmlns="http://www.w3.org/2000/svg" viewBox="0 0 280.27 427.24">
  <defs>
    <style>
      .top-prim {
        fill: #dd8987;
      }

      .exterior-R-prim {
        fill: #d15752;
      }

      .window-R-prim {
        fill: #bd9563;
      }

      .exterior-L-prim {
        fill: #73302f;
      }

      .window-L-prim {
        fill: #4d3b25;
      }
    </style>
  </defs>
  <title>Artboard 3</title>
  <g id="tall">
    <path id="anchor_0_161.639_280.27" class="top-prim" d="M0,92,160.2,0,280.27,69.63l-160.19,92Z"/>
    <path id="Path" class="exterior-R-prim" d="M120.2,161.66V427.24l160-92.37V69.29Z"/>
    <g id="Group">
      <path id="Path-2" class="window-R-prim" d="M125.2,164.55,159,145.06v20.21l-33.8,19.49Z"/>
      <path id="Path-3" class="window-R-prim" d="M164,142.18l33.75-19.49V142.9L164,162.38Z"/>
      <path id="Path-4" class="window-R-prim" d="M202.7,119.8l33.75-19.48v20.21L202.7,140Z"/>
      <path id="Path-5" class="window-R-prim" d="M241.45,97.43,275.2,78V98.2l-33.75,19.49Z"/>
      <path id="Path-6" class="window-R-prim" d="M125.2,268.51,159,249v20.2l-33.8,19.52Z"/>
      <path id="Path-7" class="window-R-prim" d="M164,246.14l33.75-19.49v20.21L164,266.35Z"/>
      <path id="Path-8" class="window-R-prim" d="M202.7,223.77l33.75-19.49v20.21L202.7,244Z"/>
      <path id="Path-9" class="window-R-prim" d="M241.45,201.4l33.75-19.49v20.21L241.45,221.6Z"/>
      <path id="Path-10" class="window-R-prim" d="M125.2,372.39,159,352.91v20.21L125.2,392.6Z"/>
      <path id="Path-11" class="window-R-prim" d="M164,350l33.75-19.48v20.2L164,370.23Z"/>
      <path id="Path-12" class="window-R-prim" d="M202.7,327.65l33.75-19.49v20.21L202.7,347.86Z"/>
      <path id="Path-13" class="window-R-prim" d="M241.45,305.28l33.75-19.49V306l-33.75,19.49Z"/>
      <path id="Path-14" class="window-R-prim" d="M125.2,216.51,159,197v20.21l-33.8,19.51Z"/>
      <path id="Path-15" class="window-R-prim" d="M164,194.14l33.75-19.49v20.21L164,214.35Z"/>
      <path id="Path-16" class="window-R-prim" d="M202.7,171.77l33.75-19.49v20.21L202.7,192Z"/>
      <path id="Path-17" class="window-R-prim" d="M241.45,149.39l33.75-19.48v20.21L241.45,169.6Z"/>
      <path id="Path-18" class="window-R-prim" d="M125.2,320.47,159,301v20.2l-33.8,19.48Z"/>
      <path id="Path-19" class="window-R-prim" d="M164,298.1l33.75-19.48v20.2L164,318.31Z"/>
      <path id="Path-20" class="window-R-prim" d="M202.7,275.73l33.75-19.49v20.21L202.7,295.94Z"/>
      <path id="Path-21" class="window-R-prim" d="M241.45,253.36l33.75-19.49v20.21l-33.75,19.48Z"/>
      <path id="Path-22" class="window-R-prim" d="M125.2,190.53,159,171v20.21l-33.8,19.53Z"/>
      <path id="Path-23" class="window-R-prim" d="M164,168.16l33.75-19.49v20.21L164,188.36Z"/>
      <path id="Path-24" class="window-R-prim" d="M202.7,145.79l33.75-19.49v20.21L202.7,166Z"/>
      <path id="Path-25" class="window-R-prim" d="M241.45,123.41l33.75-19.48v20.2l-33.75,19.49Z"/>
      <path id="Path-26" class="window-R-prim" d="M125.2,294.49,159,275v20.21L125.2,314.7Z"/>
      <path id="Path-27" class="window-R-prim" d="M164,272.12l33.75-19.48v20.2L164,292.33Z"/>
      <path id="Path-28" class="window-R-prim" d="M202.7,249.75l33.75-19.49v20.21L202.7,270Z"/>
      <path id="Path-29" class="window-R-prim" d="M241.45,227.38l33.75-19.49V228.1l-33.75,19.48Z"/>
      <path id="Path-30" class="window-R-prim" d="M125.2,398.38,159,378.89V399.1l-33.8,19.48Z"/>
      <path id="Path-31" class="window-R-prim" d="M164,376l33.75-19.48v20.21L164,396.21Z"/>
      <path id="Path-32" class="window-R-prim" d="M202.7,353.63l33.75-19.48v20.2L202.7,373.84Z"/>
      <path id="Path-33" class="window-R-prim" d="M241.45,331.26l33.75-19.49V332l-33.75,19.49Z"/>
      <path id="Path-34" class="window-R-prim" d="M125.2,242.49,159,223v20.2l-33.8,19.5Z"/>
      <path id="Path-35" class="window-R-prim" d="M164,220.12l33.75-19.49v20.21L164,240.33Z"/>
      <path id="Path-36" class="window-R-prim" d="M202.7,197.75l33.75-19.49v20.21L202.7,218Z"/>
      <path id="Path-37" class="window-R-prim" d="M241.45,175.37l33.75-19.48V176.1l-33.75,19.48Z"/>
      <path id="Path-38" class="window-R-prim" d="M125.2,346.46,159,327v20.21l-33.8,19.45Z"/>
      <path id="Path-39" class="window-R-prim" d="M164,324.08l33.7-19.48v20.2L164,344.29Z"/>
      <path id="Path-40" class="window-R-prim" d="M202.7,301.71l33.75-19.49v20.21L202.7,321.92Z"/>
      <path id="Path-41" class="window-R-prim" d="M241.45,279.34l33.75-19.49v20.21l-33.75,19.49Z"/>
    </g>
    <path id="Path-42" class="exterior-L-prim" d="M120.2,161.66V427.24L.2,358V92.38Z"/>
    <path id="Path-43" class="top-prim" d="M159,165.27l-5-2.89L125.2,179v5.78Z"/>
    <path id="Path-44" class="top-prim" d="M236.45,120.53l-5-2.89-28.75,16.6V140Z"/>
    <path id="Path-45" class="top-prim" d="M197.7,142.9l-5-2.89L164,156.61v5.77Z"/>
    <path id="Path-46" class="top-prim" d="M275.2,98.15l-5-2.88-28.75,16.6v5.77Z"/>
    <path id="Path-47" class="exterior-L-prim" d="M270.2,95.27V80.83l5-2.88v20.2Z"/>
    <path id="Path-48" class="exterior-L-prim" d="M192.7,140V125.58l5-2.89V142.9Z"/>
    <path id="Path-49" class="exterior-L-prim" d="M231.45,117.64V103.21l5-2.89v20.21Z"/>
    <path id="Path-50" class="exterior-L-prim" d="M154,162.38V148l5-2.89v20.21Z"/>
    <g id="Group-2">
      <path id="Path-51" class="window-L-prim" d="M115.2,164.55,81.45,145.06v20.21l33.75,19.49Z"/>
      <path id="Path-52" class="window-L-prim" d="M76.45,142.18,42.7,122.69V142.9l33.75,19.48Z"/>
      <path id="Path-53" class="window-L-prim" d="M37.7,119.8,4,100.32v20.21L37.7,140Z"/>
      <path id="Path-54" class="top-prim" d="M81.45,165.27l5-2.89L115.2,179v5.78Z"/>
      <path id="Path-55" class="top-prim" d="M4,120.53l5-2.89,28.75,16.6V140Z"/>
      <path id="Path-56" class="top-prim" d="M42.7,142.9l5-2.89,28.75,16.6v5.77Z"/>
      <path id="Path-57" class="exterior-R-prim" d="M47.7,140V125.58l-5-2.89V142.9Z"/>
      <path id="Path-58" class="exterior-R-prim" d="M9,117.64V103.21l-5-2.89v20.21Z"/>
      <path id="Path-59" class="exterior-R-prim" d="M86.45,162.38V148l-5-2.89v20.21Z"/>
    </g>
    <g id="Group-3">
      <path id="Path-60" class="window-L-prim" d="M115.2,268.51,81.45,249v20.2l33.75,19.49Z"/>
      <path id="Path-61" class="window-L-prim" d="M76.45,246.14,42.7,226.65v20.21l33.75,19.49Z"/>
      <path id="Path-62" class="window-L-prim" d="M37.7,223.77,4,204.28v20.21L37.7,244Z"/>
      <path id="Path-63" class="top-prim" d="M81.45,269.23l5-2.88L115.2,283v5.77Z"/>
      <path id="Path-64" class="top-prim" d="M4,224.49l5-2.89,28.7,16.6V244Z"/>
      <path id="Path-65" class="top-prim" d="M42.7,246.86l5-2.88,28.75,16.59v5.78Z"/>
      <path id="Path-66" class="exterior-R-prim" d="M47.7,244V229.54l-5-2.89v20.21Z"/>
      <path id="Path-67" class="exterior-R-prim" d="M9,221.6V207.17l-5-2.89v20.21Z"/>
      <path id="Path-68" class="exterior-R-prim" d="M86.45,266.35V251.91l-5-2.88v20.2Z"/>
    </g>
    <g id="Group-4">
      <path id="Path-69" class="window-L-prim" d="M115.2,372.39,81.45,352.91v20.21L115.2,392.6Z"/>
      <path id="Path-70" class="window-L-prim" d="M76.45,350,42.7,330.54v20.2l33.75,19.49Z"/>
      <path id="Path-71" class="window-L-prim" d="M37.7,327.65,4,308.16v20.21l33.7,19.49Z"/>
      <path id="Path-72" class="top-prim" d="M81.45,373.12l5-2.89,28.75,16.6v5.77Z"/>
      <path id="Path-73" class="top-prim" d="M4,328.37l5-2.88,28.7,16.59v5.78Z"/>
      <path id="Path-74" class="top-prim" d="M42.7,350.74l5-2.88,28.75,16.6v5.77Z"/>
      <path id="Path-75" class="exterior-R-prim" d="M47.7,347.86V333.42l-5-2.88v20.2Z"/>
      <path id="Path-76" class="exterior-R-prim" d="M9,325.49V311.05l-5-2.89v20.21Z"/>
      <path id="Path-77" class="exterior-R-prim" d="M86.45,370.23V355.8l-5-2.89v20.21Z"/>
    </g>
    <g id="Group-5">
      <path id="Path-78" class="window-L-prim" d="M115.2,216.51,81.45,197v20.21L115.2,236.7Z"/>
      <path id="Path-79" class="window-L-prim" d="M76.45,194.14,42.7,174.65v20.21l33.75,19.49Z"/>
      <path id="Path-80" class="window-L-prim" d="M37.7,171.77,4,152.28v20.21L37.7,192Z"/>
      <path id="Path-81" class="top-prim" d="M81.45,217.23l5-2.88,28.75,16.59v5.78Z"/>
      <path id="Path-82" class="top-prim" d="M4,172.49l5-2.89,28.7,16.6V192Z"/>
      <path id="Path-83" class="top-prim" d="M42.7,194.86l5-2.89,28.75,16.6v5.78Z"/>
      <path id="Path-84" class="exterior-R-prim" d="M47.7,192V177.54l-5-2.89v20.21Z"/>
      <path id="Path-85" class="exterior-R-prim" d="M9,169.6V155.17l-5-2.89v20.21Z"/>
      <path id="Path-86" class="exterior-R-prim" d="M86.45,214.35V199.91l-5-2.89v20.21Z"/>
    </g>
    <g id="Group-6">
      <path id="Path-87" class="window-L-prim" d="M115.2,320.47,81.45,301v20.2l33.75,19.48Z"/>
      <path id="Path-88" class="window-L-prim" d="M76.45,298.1,42.7,278.62v20.2l33.75,19.49Z"/>
      <path id="Path-89" class="window-L-prim" d="M37.7,275.73,4,256.24v20.21l33.7,19.49Z"/>
      <path id="Path-90" class="top-prim" d="M81.45,321.2l5-2.89,28.75,16.6v5.77Z"/>
      <path id="Path-91" class="top-prim" d="M4,276.45l5-2.89,28.75,16.6v5.78Z"/>
      <path id="Path-92" class="top-prim" d="M42.7,298.82l5-2.88,28.75,16.6v5.77Z"/>
      <path id="Path-93" class="exterior-R-prim" d="M47.7,295.94V281.5l-5-2.88v20.2Z"/>
      <path id="Path-94" class="exterior-R-prim" d="M9,273.56V259.13l-5-2.89v20.21Z"/>
      <path id="Path-95" class="exterior-R-prim" d="M86.45,318.31V303.88l-5-2.89V321.2Z"/>
    </g>
    <g id="Group-7">
      <path id="Path-96" class="window-L-prim" d="M115.2,190.53,81.45,171v20.21L115.2,210.7Z"/>
      <path id="Path-97" class="window-L-prim" d="M76.45,168.16,42.7,148.67v20.21l33.75,19.48Z"/>
      <path id="Path-98" class="window-L-prim" d="M37.7,145.79,4,126.3v20.21L37.7,166Z"/>
      <path id="Path-99" class="top-prim" d="M81.45,191.25l5-2.89L115.2,205v5.78Z"/>
      <path id="Path-100" class="top-prim" d="M4,146.51l5-2.89,28.75,16.6V166Z"/>
      <path id="Path-101" class="top-prim" d="M42.7,168.88l5-2.89,28.75,16.6v5.77Z"/>
      <path id="Path-102" class="exterior-R-prim" d="M47.7,166V151.56l-5-2.89v20.21Z"/>
      <path id="Path-103" class="exterior-R-prim" d="M9,143.62V129.19L4,126.3v20.21Z"/>
      <path id="Path-104" class="exterior-R-prim" d="M86.45,188.36V173.93l-5-2.89v20.21Z"/>
    </g>
    <g id="Group-8">
      <path id="Path-105" class="window-L-prim" d="M115.2,294.49,81.45,275v20.21L115.2,314.7Z"/>
      <path id="Path-106" class="window-L-prim" d="M76.45,272.12,42.7,252.64v20.2l33.75,19.49Z"/>
      <path id="Path-107" class="window-L-prim" d="M37.7,249.75,4,230.26v20.21L37.7,270Z"/>
      <path id="Path-108" class="top-prim" d="M81.45,295.22l5-2.89,28.75,16.6v5.77Z"/>
      <path id="Path-109" class="top-prim" d="M4,250.47l5-2.89,28.75,16.6V270Z"/>
      <path id="Path-110" class="top-prim" d="M42.7,272.84l5-2.88,28.75,16.59v5.78Z"/>
      <path id="Path-111" class="exterior-R-prim" d="M47.7,270V255.52l-5-2.88v20.2Z"/>
      <path id="Path-112" class="exterior-R-prim" d="M9,247.58V233.15l-5-2.89v20.21Z"/>
      <path id="Path-113" class="exterior-R-prim" d="M86.45,292.33V277.89l-5-2.88v20.21Z"/>
    </g>
    <g id="Group-9">
      <path id="Path-114" class="window-L-prim" d="M115.2,398.38,81.45,378.89V399.1l33.75,19.48Z"/>
      <path id="Path-115" class="window-L-prim" d="M76.45,376,42.7,356.52v20.21l33.75,19.48Z"/>
      <path id="Path-116" class="window-L-prim" d="M37.7,353.63,4,334.15v20.2l33.7,19.49Z"/>
      <path id="Path-117" class="top-prim" d="M81.45,399.1l5-2.89,28.75,16.6v5.77Z"/>
      <path id="Path-118" class="top-prim" d="M4,354.35l5-2.88,28.7,16.59v5.78Z"/>
      <path id="Path-119" class="top-prim" d="M42.7,376.73l5-2.89,28.75,16.6v5.77Z"/>
      <path id="Path-120" class="exterior-R-prim" d="M47.7,373.84V359.4l-5-2.88v20.21Z"/>
      <path id="Path-121" class="exterior-R-prim" d="M9,351.47V337l-5-2.88v20.2Z"/>
      <path id="Path-122" class="exterior-R-prim" d="M86.45,396.21V381.78l-5-2.89V399.1Z"/>
    </g>
    <g id="Group-10">
      <path id="Path-123" class="window-L-prim" d="M115.2,242.49,81.45,223v20.2l33.75,19.5Z"/>
      <path id="Path-124" class="window-L-prim" d="M76.45,220.12,42.7,200.63v20.21l33.75,19.49Z"/>
      <path id="Path-125" class="window-L-prim" d="M37.7,197.75,4,178.26v20.21L37.7,218Z"/>
      <path id="Path-126" class="top-prim" d="M81.45,243.21l5-2.88,28.75,16.59v5.78Z"/>
      <path id="Path-127" class="top-prim" d="M4,198.47l5-2.89,28.75,16.6V218Z"/>
      <path id="Path-128" class="top-prim" d="M42.7,220.84l5-2.89,28.75,16.6v5.78Z"/>
      <path id="Path-129" class="exterior-R-prim" d="M47.7,218V203.52l-5-2.89v20.21Z"/>
      <path id="Path-130" class="exterior-R-prim" d="M9,195.58V181.15l-5-2.89v20.21Z"/>
      <path id="Path-131" class="exterior-R-prim" d="M86.45,240.33V225.89l-5-2.88v20.2Z"/>
    </g>
    <g id="Group-11">
      <path id="Path-132" class="window-L-prim" d="M115.2,346.46,81.45,327v20.21l33.75,19.48Z"/>
      <path id="Path-133" class="window-L-prim" d="M76.45,324.08,42.7,304.6v20.2l33.75,19.49Z"/>
      <path id="Path-134" class="window-L-prim" d="M37.7,301.71,4,282.22v20.21l33.7,19.49Z"/>
      <path id="Path-135" class="top-prim" d="M81.45,347.18l5-2.89,28.75,16.6v5.77Z"/>
      <path id="Path-136" class="top-prim" d="M4,302.43l5-2.88,28.7,16.59v5.78Z"/>
      <path id="Path-137" class="top-prim" d="M42.7,324.8l5-2.88,28.75,16.6v5.77Z"/>
      <path id="Path-138" class="exterior-R-prim" d="M47.7,321.92V307.48l-5-2.88v20.2Z"/>
      <path id="Path-139" class="exterior-R-prim" d="M9,299.55V285.11l-5-2.89v20.21Z"/>
      <path id="Path-140" class="exterior-R-prim" d="M86.45,344.29V329.86l-5-2.89v20.21Z"/>
    </g>
    <path id="Path-141" class="top-prim" d="M159,269.23l-5-2.88L125.2,283v5.77Z"/>
    <path id="Path-142" class="top-prim" d="M236.45,224.49l-5-2.89L202.7,238.2V244Z"/>
    <path id="Path-143" class="top-prim" d="M197.7,246.86l-5-2.88L164,260.57v5.78Z"/>
    <path id="Path-144" class="top-prim" d="M275.2,202.12l-5-2.89-28.75,16.6v5.77Z"/>
    <path id="Path-145" class="exterior-L-prim" d="M270.2,199.23V184.8l5-2.89v20.21Z"/>
    <path id="Path-146" class="exterior-L-prim" d="M192.7,244V229.54l5-2.89v20.21Z"/>
    <path id="Path-147" class="exterior-L-prim" d="M231.45,221.6V207.17l5-2.89v20.21Z"/>
    <path id="Path-148" class="exterior-L-prim" d="M154,266.35V251.91l5-2.88v20.2Z"/>
    <path id="Path-149" class="top-prim" d="M159,373.12l-5-2.89-28.75,16.6v5.77Z"/>
    <path id="Path-150" class="top-prim" d="M236.45,328.37l-5-2.88L202.7,342.08v5.78Z"/>
    <path id="Path-151" class="top-prim" d="M197.7,350.74l-5-2.88L164,364.46v5.77Z"/>
    <path id="Path-152" class="top-prim" d="M275.2,306l-5-2.89-28.75,16.6v5.78Z"/>
    <path id="Path-153" class="exterior-L-prim" d="M270.2,303.11V288.68l5-2.89V306Z"/>
    <path id="Path-154" class="exterior-L-prim" d="M192.7,347.86V333.42l5-2.88v20.2Z"/>
    <path id="Path-155" class="exterior-L-prim" d="M231.45,325.49V311.05l5-2.89v20.21Z"/>
    <path id="Path-156" class="exterior-L-prim" d="M154,370.23V355.8l5-2.89v20.21Z"/>
    <path id="Path-157" class="top-prim" d="M159,217.23l-5-2.88-28.8,16.59v5.78Z"/>
    <path id="Path-158" class="top-prim" d="M236.45,172.49l-5-2.89L202.7,186.2V192Z"/>
    <path id="Path-159" class="top-prim" d="M197.7,194.86l-5-2.89L164,208.57v5.78Z"/>
    <path id="Path-160" class="top-prim" d="M275.2,150.12l-5-2.89-28.75,16.6v5.77Z"/>
    <path id="Path-161" class="exterior-L-prim" d="M270.2,147.23V132.79l5-2.88v20.21Z"/>
    <path id="Path-162" class="exterior-L-prim" d="M192.7,192V177.54l5-2.89v20.21Z"/>
    <path id="Path-163" class="exterior-L-prim" d="M231.45,169.6V155.17l5-2.89v20.21Z"/>
    <path id="Path-164" class="exterior-L-prim" d="M154,214.35V199.91l5-2.89v20.21Z"/>
    <path id="Path-165" class="top-prim" d="M159,321.2l-5-2.89-28.75,16.6v5.77Z"/>
    <path id="Path-166" class="top-prim" d="M236.45,276.45l-5-2.89-28.75,16.6v5.78Z"/>
    <path id="Path-167" class="top-prim" d="M197.7,298.82l-5-2.88L164,312.54v5.77Z"/>
    <path id="Path-168" class="top-prim" d="M275.2,254.08l-5-2.89-28.75,16.6v5.77Z"/>
    <path id="Path-169" class="exterior-L-prim" d="M270.2,251.19V236.76l5-2.89v20.21Z"/>
    <path id="Path-170" class="exterior-L-prim" d="M192.7,295.94V281.5l5-2.88v20.2Z"/>
    <path id="Path-171" class="exterior-L-prim" d="M231.45,273.56V259.13l5-2.89v20.21Z"/>
    <path id="Path-172" class="exterior-L-prim" d="M154,318.31V303.88l5-2.89V321.2Z"/>
    <path id="Path-173" class="top-prim" d="M159,191.25l-5-2.89L125.2,205v5.78Z"/>
    <path id="Path-174" class="top-prim" d="M236.45,146.51l-5-2.89-28.75,16.6V166Z"/>
    <path id="Path-175" class="top-prim" d="M197.7,168.88l-5-2.89L164,182.59v5.77Z"/>
    <path id="Path-176" class="top-prim" d="M275.2,124.13l-5-2.88-28.75,16.6v5.77Z"/>
    <path id="Path-177" class="exterior-L-prim" d="M270.2,121.25V106.81l5-2.88v20.2Z"/>
    <path id="Path-178" class="exterior-L-prim" d="M192.7,166V151.56l5-2.89v20.21Z"/>
    <path id="Path-179" class="exterior-L-prim" d="M231.45,143.62V129.19l5-2.89v20.21Z"/>
    <path id="Path-180" class="exterior-L-prim" d="M154,188.36V173.93l5-2.89v20.21Z"/>
    <path id="Path-181" class="top-prim" d="M159,295.22l-5-2.89-28.75,16.6v5.77Z"/>
    <path id="Path-182" class="top-prim" d="M236.45,250.47l-5-2.89-28.75,16.6V270Z"/>
    <path id="Path-183" class="top-prim" d="M197.7,272.84l-5-2.88L164,286.55v5.78Z"/>
    <path id="Path-184" class="top-prim" d="M275.2,228.1l-5-2.89-28.75,16.6v5.77Z"/>
    <path id="Path-185" class="exterior-L-prim" d="M270.2,225.21V210.78l5-2.89V228.1Z"/>
    <path id="Path-186" class="exterior-L-prim" d="M192.7,270V255.52l5-2.88v20.2Z"/>
    <path id="Path-187" class="exterior-L-prim" d="M231.45,247.58V233.15l5-2.89v20.21Z"/>
    <path id="Path-188" class="exterior-L-prim" d="M154,292.33V277.89l5-2.88v20.21Z"/>
    <path id="Path-189" class="top-prim" d="M159,399.1l-5-2.89-28.75,16.6v5.77Z"/>
    <path id="Path-190" class="top-prim" d="M236.45,354.35l-5-2.88L202.7,368.06v5.78Z"/>
    <path id="Path-191" class="top-prim" d="M197.7,376.73l-5-2.89L164,390.44v5.77Z"/>
    <path id="Path-192" class="top-prim" d="M275.2,332l-5-2.89-28.75,16.6v5.78Z"/>
    <path id="Path-193" class="exterior-L-prim" d="M270.2,329.09V314.66l5-2.89V332Z"/>
    <path id="Path-194" class="exterior-L-prim" d="M192.7,373.84V359.4l5-2.88v20.21Z"/>
    <path id="Path-195" class="exterior-L-prim" d="M231.45,351.47V337l5-2.88v20.2Z"/>
    <path id="Path-196" class="exterior-L-prim" d="M154,396.21V381.78l5-2.89V399.1Z"/>
    <path id="Path-197" class="top-prim" d="M159,243.21l-5-2.88-28.8,16.59v5.78Z"/>
    <path id="Path-198" class="top-prim" d="M236.45,198.47l-5-2.89-28.75,16.6V218Z"/>
    <path id="Path-199" class="top-prim" d="M197.7,220.84l-5-2.89L164,234.55v5.78Z"/>
    <path id="Path-200" class="top-prim" d="M275.2,176.1l-5-2.89-28.75,16.6v5.77Z"/>
    <path id="Path-201" class="exterior-L-prim" d="M270.2,173.21V158.78l5-2.89V176.1Z"/>
    <path id="Path-202" class="exterior-L-prim" d="M192.7,218V203.52l5-2.89v20.21Z"/>
    <path id="Path-203" class="exterior-L-prim" d="M231.45,195.58V181.15l5-2.89v20.21Z"/>
    <path id="Path-204" class="exterior-L-prim" d="M154,240.33V225.89l5-2.88v20.2Z"/>
    <path id="Path-205" class="top-prim" d="M159,347.18l-5-2.89-28.75,16.6v5.77Z"/>
    <path id="Path-206" class="top-prim" d="M236.45,302.43l-5-2.88L202.7,316.14v5.78Z"/>
    <path id="Path-207" class="top-prim" d="M197.7,324.8l-5-2.88L164,338.52v5.77Z"/>
    <path id="Path-208" class="top-prim" d="M275.2,280.06l-5-2.89-28.75,16.6v5.78Z"/>
    <path id="Path-209" class="exterior-L-prim" d="M270.2,277.17V262.74l5-2.89v20.21Z"/>
    <path id="Path-210" class="exterior-L-prim" d="M192.7,321.92V307.48l5-2.88v20.2Z"/>
    <path id="Path-211" class="exterior-L-prim" d="M231.45,299.55V285.11l5-2.89v20.21Z"/>
    <path id="Path-212" class="exterior-L-prim" d="M154,344.29V329.86l5-2.89v20.21Z"/>
  </g>
</svg>
