<svg id="root" xmlns="http://www.w3.org/2000/svg" viewBox="0 0 280.074 531.162">
  <defs>
    <style>
      .top-dark {
        fill: #c67471;
      }

      .exterior-R-prim {
        fill: #d15752;
      }

      .window-R-prim {
        fill: #bc9563;
      }

      .exterior-L-prim {
        fill: #74302f;
      }

      .window-L-prim {
        fill: #4e3b24;
      }

      .top-prim {
        fill: #dd8986;
      }
    </style>
  </defs>
  <title>1Artboard 22</title>
  <g id="root-2" data-name="root">
    <path id="anchor_0_161.639_280.27" class="top-dark" d="M.074,95.262V92.376L160,0,280.074,69.282v2.886l-160,92.376Z"/>
    <path class="exterior-R-prim" d="M120.074,161.658l-2.4261-1.444-.0739,369.504L120,531.162l160-92.3761.074-369.5039Z"/>
    <path class="window-R-prim" d="M125,216.547l33.75-19.486v20.207L125,236.754Z"/>
    <path class="window-R-prim" d="M163.75,194.174l33.75-19.485v20.207l-33.75,19.486Z"/>
    <path class="window-R-prim" d="M202.5,171.802l33.75-19.485v20.207L202.5,192.009Z"/>
    <path class="window-R-prim" d="M241.25,149.43,275,129.944v20.207l-33.75,19.486Z"/>
    <path class="window-R-prim" d="M125,320.429l33.75-19.4859v20.2078L125,340.636Z"/>
    <path class="window-R-prim" d="M163.75,298.0569,197.5,278.571v20.207l-33.75,19.486Z"/>
    <path class="window-R-prim" d="M202.5,275.684l33.75-19.485v20.2069L202.5,295.892Z"/>
    <path class="window-R-prim" d="M241.25,253.312,275,233.826v20.208l-33.75,19.485Z"/>
    <path class="window-R-prim" d="M125,424.352l33.75-19.486v20.208L125,444.559Z"/>
    <path class="window-R-prim" d="M163.75,401.98l33.75-19.486v20.207l-33.75,19.486Z"/>
    <path class="window-R-prim" d="M202.5,379.607l33.75-19.485v20.207L202.5,399.815Z"/>
    <path class="window-R-prim" d="M241.25,357.235,275,337.75V357.957l-33.75,19.485Z"/>
    <path class="window-R-prim" d="M125,164.544l33.75-19.485v20.207L125,184.752Z"/>
    <path class="window-R-prim" d="M163.75,142.172l33.75-19.485v20.207l-33.75,19.485Z"/>
    <path class="window-R-prim" d="M202.5,119.8l33.75-19.486v20.207L202.5,140.007Z"/>
    <path class="window-R-prim" d="M241.25,97.427,275,77.942V98.149l-33.75,19.486Z"/>
    <path class="window-R-prim" d="M125,268.508l33.75-19.485V269.23L125,288.716Z"/>
    <path class="window-R-prim" d="M163.75,246.136,197.5,226.65v20.208l-33.75,19.485Z"/>
    <path class="window-R-prim" d="M202.5,223.764l33.75-19.486v20.207L202.5,243.971Z"/>
    <path class="window-R-prim" d="M241.25,201.391,275,181.906v20.207l-33.75,19.486Z"/>
    <path class="window-R-prim" d="M125,372.3911l33.75-19.4861v20.207L125,392.598Z"/>
    <path class="window-R-prim" d="M163.75,350.018l33.75-19.485V350.74L163.75,370.225Z"/>
    <path class="window-R-prim" d="M202.5,327.6461,236.25,308.16v20.208L202.5,347.853Z"/>
    <path class="window-R-prim" d="M241.25,305.274,275,285.788v20.2071L241.25,325.481Z"/>
    <path class="window-R-prim" d="M125,476.314l33.75-19.4861V477.035L125,496.5211Z"/>
    <path class="window-R-prim" d="M163.75,453.941l33.75-19.485v20.207l-33.75,19.486Z"/>
    <path class="window-R-prim" d="M202.5,431.569l33.75-19.4861V432.291L202.5,451.7759Z"/>
    <path class="window-R-prim" d="M241.25,409.197,275,389.711v20.207l-33.75,19.486Z"/>
    <path class="window-R-prim" d="M125,502.294l33.75-19.485v20.2071L125,522.502Z"/>
    <path class="window-R-prim" d="M163.75,479.9219,197.5,460.436v20.208l-33.75,19.485Z"/>
    <path class="window-R-prim" d="M202.5,457.55l33.75-19.486v20.2071L202.5,477.757Z"/>
    <path class="window-R-prim" d="M241.25,435.1769,275,415.692v20.207l-33.75,19.4859Z"/>
    <path class="window-R-prim" d="M125,242.528l33.75-19.486v20.207L125,262.735Z"/>
    <path class="window-R-prim" d="M163.75,220.155,197.5,200.67v20.207l-33.75,19.485Z"/>
    <path class="window-R-prim" d="M202.5,197.783l33.75-19.486v20.208L202.5,217.99Z"/>
    <path class="window-R-prim" d="M241.25,175.411,275,155.925v20.207l-33.75,19.486Z"/>
    <path class="window-R-prim" d="M125,346.41l33.75-19.486v20.207L125,366.617Z"/>
    <path class="window-R-prim" d="M163.75,324.037l33.75-19.4851V324.759l-33.75,19.4861Z"/>
    <path class="window-R-prim" d="M202.5,301.665l33.75-19.485v20.207L202.5,321.872Z"/>
    <path class="window-R-prim" d="M241.25,279.293,275,259.807v20.208L241.25,299.5Z"/>
    <path class="window-R-prim" d="M125,450.3329l33.75-19.4859v20.208L125,470.54Z"/>
    <path class="window-R-prim" d="M163.75,427.961l33.75-19.486v20.2069L163.75,448.168Z"/>
    <path class="window-R-prim" d="M202.5,405.588l33.75-19.485V406.31L202.5,425.795Z"/>
    <path class="window-R-prim" d="M241.25,383.216,275,363.73v20.208l-33.75,19.485Z"/>
    <path class="window-R-prim" d="M125,190.525l33.75-19.485v20.207L125,210.732Z"/>
    <path class="window-R-prim" d="M163.75,168.153l33.75-19.486v20.208L163.75,188.36Z"/>
    <path class="window-R-prim" d="M202.5,145.781l33.75-19.486v20.207L202.5,165.988Z"/>
    <path class="window-R-prim" d="M241.25,123.408,275,103.923V124.13l-33.75,19.485Z"/>
    <path class="window-R-prim" d="M125,294.489l33.75-19.486v20.208L125,314.696Z"/>
    <path class="window-R-prim" d="M163.75,272.117l33.75-19.486v20.207l-33.75,19.486Z"/>
    <path class="window-R-prim" d="M202.5,249.744l33.75-19.485v20.207L202.5,269.952Z"/>
    <path class="window-R-prim" d="M241.25,227.372,275,207.886v20.208l-33.75,19.485Z"/>
    <path class="window-R-prim" d="M125,398.371l33.75-19.485v20.207L125,418.579Z"/>
    <path class="window-R-prim" d="M163.75,375.999l33.75-19.486v20.208l-33.75,19.485Z"/>
    <path class="window-R-prim" d="M202.5,353.627l33.75-19.4859V354.348L202.5,373.834Z"/>
    <path class="window-R-prim" d="M241.25,331.254,275,311.769v20.207l-33.75,19.486Z"/>
    <path class="exterior-L-prim" d="M120.074,161.658,120,531.162,0,461.88.074,92.376Z"/>
    <path class="window-L-prim" d="M115,216.547,81.25,197.061v20.207L115,236.754Z"/>
    <path class="window-L-prim" d="M76.25,194.174,42.5,174.689v20.207l33.75,19.486Z"/>
    <path class="window-L-prim" d="M37.5,171.802,3.75,152.317v20.207L37.5,192.009Z"/>
    <path class="top-prim" d="M81.25,217.268l5-2.886L115,230.981v5.773Z"/>
    <path class="top-prim" d="M3.75,172.524l5-2.887L37.5,186.236v5.773Z"/>
    <path class="top-prim" d="M42.5,194.896l5-2.887,28.75,16.599v5.774Z"/>
    <path class="exterior-R-prim" d="M47.5,192.009V177.576l-5-2.887v20.207Z"/>
    <path class="exterior-R-prim" d="M8.75,169.637V155.203l-5-2.886v20.207Z"/>
    <path class="exterior-R-prim" d="M86.25,214.382V199.948l-5-2.887v20.207Z"/>
    <path class="window-L-prim" d="M115,320.429,81.25,300.9431v20.2078L115,340.636Z"/>
    <path class="window-L-prim" d="M76.25,298.0569,42.5,278.571v20.207l33.75,19.486Z"/>
    <path class="window-L-prim" d="M37.5,275.684,3.75,256.199v20.2069L37.5,295.892Z"/>
    <path class="top-prim" d="M81.25,321.1509l5-2.8869L115,334.863v5.773Z"/>
    <path class="top-prim" d="M3.75,276.4059l5-2.8869L37.5,290.118v5.774Z"/>
    <path class="top-prim" d="M42.5,298.778l5-2.886L76.25,312.49v5.7739Z"/>
    <path class="exterior-R-prim" d="M47.5,295.892V281.4579l-5-2.8869v20.207Z"/>
    <path class="exterior-R-prim" d="M8.75,273.519V259.086l-5-2.887v20.2069Z"/>
    <path class="exterior-R-prim" d="M86.25,318.264V303.83l-5-2.8869v20.2078Z"/>
    <path class="window-L-prim" d="M115,424.352,81.25,404.866v20.208L115,444.559Z"/>
    <path class="window-L-prim" d="M76.25,401.98,42.5,382.494v20.207l33.75,19.486Z"/>
    <path class="window-L-prim" d="M37.5,379.607,3.75,360.122v20.207L37.5,399.815Z"/>
    <path class="top-prim" d="M81.25,425.074l5-2.887L115,438.7859v5.7731Z"/>
    <path class="top-prim" d="M3.75,380.329l5-2.887L37.5,394.041v5.774Z"/>
    <path class="top-prim" d="M42.5,402.701l5-2.886,28.75,16.598v5.774Z"/>
    <path class="exterior-R-prim" d="M47.5,399.815V385.381l-5-2.887v20.207Z"/>
    <path class="exterior-R-prim" d="M8.75,377.442V363.009l-5-2.887v20.207Z"/>
    <path class="exterior-R-prim" d="M86.25,422.187V407.753l-5-2.887v20.208Z"/>
    <path class="window-L-prim" d="M115,164.544,81.25,145.059v20.207L115,184.752Z"/>
    <path class="window-L-prim" d="M76.25,142.172,42.5,122.687v20.207l33.75,19.485Z"/>
    <path class="window-L-prim" d="M37.5,119.8,3.75,100.314v20.207L37.5,140.007Z"/>
    <path class="top-prim" d="M81.25,165.266l5-2.887L115,178.978v5.774Z"/>
    <path class="top-prim" d="M3.75,120.521l5-2.886L37.5,134.234v5.773Z"/>
    <path class="top-prim" d="M42.5,142.894l5-2.887,28.75,16.599v5.773Z"/>
    <path class="exterior-R-prim" d="M47.5,140.007V125.573l-5-2.886v20.207Z"/>
    <path class="exterior-R-prim" d="M8.75,117.635V103.201l-5-2.887v20.207Z"/>
    <path class="exterior-R-prim" d="M86.25,162.379V147.946l-5-2.887v20.207Z"/>
    <path class="window-L-prim" d="M115,268.508,81.25,249.023V269.23L115,288.716Z"/>
    <path class="window-L-prim" d="M76.25,246.136,42.5,226.65v20.208l33.75,19.485Z"/>
    <path class="window-L-prim" d="M37.5,223.764,3.75,204.278v20.207L37.5,243.971Z"/>
    <path class="top-prim" d="M81.25,269.23l5-2.887L115,282.942v5.774Z"/>
    <path class="top-prim" d="M3.75,224.485l5-2.886L37.5,238.197v5.774Z"/>
    <path class="top-prim" d="M42.5,246.858l5-2.887L76.25,260.57v5.773Z"/>
    <path class="exterior-R-prim" d="M47.5,243.971V229.537l-5-2.887v20.208Z"/>
    <path class="exterior-R-prim" d="M8.75,221.599V207.165l-5-2.887v20.207Z"/>
    <path class="exterior-R-prim" d="M86.25,266.343V251.909l-5-2.886V269.23Z"/>
    <path class="window-L-prim" d="M115,372.3911,81.25,352.905v20.207L115,392.598Z"/>
    <path class="window-L-prim" d="M76.25,350.018,42.5,330.533V350.74L76.25,370.225Z"/>
    <path class="window-L-prim" d="M37.5,327.6461,3.75,308.16v20.208L37.5,347.853Z"/>
    <path class="top-prim" d="M81.25,373.112l5-2.887L115,386.824v5.774Z"/>
    <path class="top-prim" d="M3.75,328.368l5-2.887L37.5,342.08v5.773Z"/>
    <path class="top-prim" d="M42.5,350.74l5-2.8871,28.75,16.599v5.773Z"/>
    <path class="exterior-R-prim" d="M47.5,347.853V333.419l-5-2.886V350.74Z"/>
    <path class="exterior-R-prim" d="M8.75,325.481V311.0469l-5-2.8869v20.208Z"/>
    <path class="exterior-R-prim" d="M86.25,370.225V355.7921l-5-2.8871v20.207Z"/>
    <path class="window-L-prim" d="M115,476.314,81.25,456.8279V477.035L115,496.5211Z"/>
    <path class="window-L-prim" d="M76.25,453.941,42.5,434.456v20.207l33.75,19.485Z"/>
    <path class="window-L-prim" d="M37.5,431.569,3.75,412.0829V432.291L37.5,451.7759Z"/>
    <path class="top-prim" d="M81.25,477.035l5-2.887L115,490.747v5.7741Z"/>
    <path class="top-prim" d="M3.75,432.291l5-2.887L37.5,446.003v5.7729Z"/>
    <path class="top-prim" d="M42.5,454.663l5-2.8871,28.75,16.599v5.7741Z"/>
    <path class="exterior-R-prim" d="M47.5,451.7759V437.342l-5-2.886v20.207Z"/>
    <path class="exterior-R-prim" d="M8.75,429.404V414.97l-5-2.8871V432.291Z"/>
    <path class="exterior-R-prim" d="M86.25,474.148V459.715l-5-2.8871V477.035Z"/>
    <path class="window-L-prim" d="M115,502.294,81.25,482.809v20.2071L115,522.502Z"/>
    <path class="window-L-prim" d="M76.25,479.9219,42.5,460.436v20.208l33.75,19.485Z"/>
    <path class="window-L-prim" d="M37.5,457.55,3.75,438.064v20.2071L37.5,477.757Z"/>
    <path class="top-prim" d="M81.25,503.0161l5-2.8871L115,516.728v5.774Z"/>
    <path class="top-prim" d="M3.75,458.2711l5-2.8862L37.5,471.983v5.774Z"/>
    <path class="top-prim" d="M42.5,480.644l5-2.887,28.75,16.599v5.773Z"/>
    <path class="exterior-R-prim" d="M47.5,477.757V463.3229l-5-2.8869v20.208Z"/>
    <path class="exterior-R-prim" d="M8.75,455.3849V440.951l-5-2.887v20.2071Z"/>
    <path class="exterior-R-prim" d="M86.25,500.129V485.696l-5-2.887v20.2071Z"/>
    <path class="window-L-prim" d="M115,242.528,81.25,223.042v20.207L115,262.735Z"/>
    <path class="window-L-prim" d="M76.25,220.155,42.5,200.67v20.207l33.75,19.485Z"/>
    <path class="window-L-prim" d="M37.5,197.783,3.75,178.297v20.208L37.5,217.99Z"/>
    <path class="top-prim" d="M81.25,243.249l5-2.887L115,256.961v5.774Z"/>
    <path class="top-prim" d="M3.75,198.505l5-2.887L37.5,212.217v5.773Z"/>
    <path class="top-prim" d="M42.5,220.877l5-2.887,28.75,16.599v5.773Z"/>
    <path class="exterior-R-prim" d="M47.5,217.99V203.556l-5-2.886v20.207Z"/>
    <path class="exterior-R-prim" d="M8.75,195.618V181.184l-5-2.887v20.208Z"/>
    <path class="exterior-R-prim" d="M86.25,240.362V225.929l-5-2.887v20.207Z"/>
    <path class="window-L-prim" d="M115,346.41,81.25,326.924v20.207L115,366.617Z"/>
    <path class="window-L-prim" d="M76.25,324.037,42.5,304.5519V324.759l33.75,19.4861Z"/>
    <path class="window-L-prim" d="M37.5,301.665,3.75,282.18v20.207L37.5,321.872Z"/>
    <path class="top-prim" d="M81.25,347.131l5-2.8859L115,360.8441v5.7729Z"/>
    <path class="top-prim" d="M3.75,302.387l5-2.8871,28.75,16.599v5.7731Z"/>
    <path class="top-prim" d="M42.5,324.759l5-2.887,28.75,16.599v5.7741Z"/>
    <path class="exterior-R-prim" d="M47.5,321.872V307.439l-5-2.8871V324.759Z"/>
    <path class="exterior-R-prim" d="M8.75,299.5V285.066l-5-2.886v20.207Z"/>
    <path class="exterior-R-prim" d="M86.25,344.2451V329.811l-5-2.887v20.207Z"/>
    <path class="window-L-prim" d="M115,450.3329,81.25,430.847v20.207L115,470.54Z"/>
    <path class="window-L-prim" d="M76.25,427.961,42.5,408.475v20.2069L76.25,448.168Z"/>
    <path class="window-L-prim" d="M37.5,405.588,3.75,386.103V406.31L37.5,425.795Z"/>
    <path class="top-prim" d="M81.25,451.054l5-2.886L115,464.767v5.773Z"/>
    <path class="top-prim" d="M3.75,406.31l5-2.887L37.5,420.022v5.773Z"/>
    <path class="top-prim" d="M42.5,428.6819l5-2.8869,28.75,16.599v5.774Z"/>
    <path class="exterior-R-prim" d="M47.5,425.795V411.362l-5-2.887v20.2069Z"/>
    <path class="exterior-R-prim" d="M8.75,403.423V388.989l-5-2.886V406.31Z"/>
    <path class="exterior-R-prim" d="M86.25,448.168V433.7339l-5-2.8869v20.207Z"/>
    <path class="window-L-prim" d="M115,190.525,81.25,171.04v20.207L115,210.732Z"/>
    <path class="window-L-prim" d="M76.25,168.153,42.5,148.667v20.208L76.25,188.36Z"/>
    <path class="window-L-prim" d="M37.5,145.781,3.75,126.295v20.207L37.5,165.988Z"/>
    <path class="top-prim" d="M81.25,191.247l5-2.887L115,204.959v5.773Z"/>
    <path class="top-prim" d="M3.75,146.502l5-2.887L37.5,160.214v5.774Z"/>
    <path class="top-prim" d="M42.5,168.875l5-2.887,28.75,16.599v5.773Z"/>
    <path class="exterior-R-prim" d="M47.5,165.988V151.554l-5-2.887v20.208Z"/>
    <path class="exterior-R-prim" d="M8.75,143.615V129.182l-5-2.887v20.207Z"/>
    <path class="exterior-R-prim" d="M86.25,188.36V173.926l-5-2.886v20.207Z"/>
    <path class="window-L-prim" d="M115,294.489,81.25,275.003v20.208L115,314.696Z"/>
    <path class="window-L-prim" d="M76.25,272.117,42.5,252.631v20.207l33.75,19.486Z"/>
    <path class="window-L-prim" d="M37.5,249.744,3.75,230.259v20.207L37.5,269.952Z"/>
    <path class="top-prim" d="M81.25,295.211l5-2.887L115,308.923v5.773Z"/>
    <path class="top-prim" d="M3.75,250.466l5-2.887L37.5,264.178v5.774Z"/>
    <path class="top-prim" d="M42.5,272.838l5-2.886L76.25,286.55v5.774Z"/>
    <path class="exterior-R-prim" d="M47.5,269.952V255.518l-5-2.887v20.207Z"/>
    <path class="exterior-R-prim" d="M8.75,247.579V233.146l-5-2.887v20.207Z"/>
    <path class="exterior-R-prim" d="M86.25,292.324V277.89l-5-2.887v20.208Z"/>
    <path class="window-L-prim" d="M115,398.371,81.25,378.886v20.207L115,418.579Z"/>
    <path class="window-L-prim" d="M76.25,375.999,42.5,356.513v20.208l33.75,19.485Z"/>
    <path class="window-L-prim" d="M37.5,353.627,3.75,334.1411V354.348L37.5,373.834Z"/>
    <path class="top-prim" d="M81.25,399.093l5-2.887L115,412.805v5.774Z"/>
    <path class="top-prim" d="M3.75,354.348l5-2.886L37.5,368.06v5.774Z"/>
    <path class="top-prim" d="M42.5,376.721l5-2.887,28.75,16.599v5.773Z"/>
    <path class="exterior-R-prim" d="M47.5,373.834V359.4l-5-2.887v20.208Z"/>
    <path class="exterior-R-prim" d="M8.75,351.462V337.028l-5-2.8869V354.348Z"/>
    <path class="exterior-R-prim" d="M86.25,396.206V381.772l-5-2.886v20.207Z"/>
    <path class="top-prim" d="M158.75,217.268l-5-2.886L125,230.981v5.773Z"/>
    <path class="top-prim" d="M236.25,172.524l-5-2.887L202.5,186.236v5.773Z"/>
    <path class="top-prim" d="M197.5,194.896l-5-2.887-28.75,16.599v5.774Z"/>
    <path class="top-prim" d="M275,150.151l-5-2.886-28.75,16.599v5.773Z"/>
    <path class="exterior-L-prim" d="M270,147.265V132.831l5-2.887v20.207Z"/>
    <path class="exterior-L-prim" d="M192.5,192.009V177.576l5-2.887v20.207Z"/>
    <path class="exterior-L-prim" d="M231.25,169.637V155.203l5-2.886v20.207Z"/>
    <path class="exterior-L-prim" d="M153.75,214.382V199.948l5-2.887v20.207Z"/>
    <path class="top-prim" d="M158.75,321.1509l-5-2.8869L125,334.863v5.773Z"/>
    <path class="top-prim" d="M236.25,276.4059l-5-2.8869L202.5,290.118v5.774Z"/>
    <path class="top-prim" d="M197.5,298.778l-5-2.886L163.75,312.49v5.7739Z"/>
    <path class="top-prim" d="M275,254.034l-5-2.887-28.75,16.599v5.773Z"/>
    <path class="exterior-L-prim" d="M270,251.147V236.713l5-2.887v20.208Z"/>
    <path class="exterior-L-prim" d="M192.5,295.892V281.4579l5-2.8869v20.207Z"/>
    <path class="exterior-L-prim" d="M231.25,273.519V259.086l5-2.887v20.2069Z"/>
    <path class="exterior-L-prim" d="M153.75,318.264V303.83l5-2.8869v20.2078Z"/>
    <path class="top-prim" d="M158.75,425.074l-5-2.887L125,438.7859v5.7731Z"/>
    <path class="top-prim" d="M236.25,380.329l-5-2.887L202.5,394.041v5.774Z"/>
    <path class="top-prim" d="M197.5,402.701l-5-2.886-28.75,16.598v5.774Z"/>
    <path class="top-prim" d="M275,357.957l-5-2.887-28.75,16.599v5.773Z"/>
    <path class="exterior-L-prim" d="M270,355.07V340.636l5-2.8861V357.957Z"/>
    <path class="exterior-L-prim" d="M192.5,399.815V385.381l5-2.887v20.207Z"/>
    <path class="exterior-L-prim" d="M231.25,377.442V363.009l5-2.887v20.207Z"/>
    <path class="exterior-L-prim" d="M153.75,422.187V407.753l5-2.887v20.208Z"/>
    <path class="top-prim" d="M158.75,165.266l-5-2.887L125,178.978v5.774Z"/>
    <path class="top-prim" d="M236.25,120.521l-5-2.886L202.5,134.234v5.773Z"/>
    <path class="top-prim" d="M197.5,142.894l-5-2.887-28.75,16.599v5.773Z"/>
    <path class="top-prim" d="M275,98.149l-5-2.887-28.75,16.599v5.774Z"/>
    <path class="exterior-L-prim" d="M270,95.262V80.829l5-2.887V98.149Z"/>
    <path class="exterior-L-prim" d="M192.5,140.007V125.573l5-2.886v20.207Z"/>
    <path class="exterior-L-prim" d="M231.25,117.635V103.201l5-2.887v20.207Z"/>
    <path class="exterior-L-prim" d="M153.75,162.379V147.946l5-2.887v20.207Z"/>
    <path class="top-prim" d="M158.75,269.23l-5-2.887L125,282.942v5.774Z"/>
    <path class="top-prim" d="M236.25,224.485l-5-2.886L202.5,238.197v5.774Z"/>
    <path class="top-prim" d="M197.5,246.858l-5-2.887L163.75,260.57v5.773Z"/>
    <path class="top-prim" d="M275,202.113l-5-2.887-28.75,16.599v5.774Z"/>
    <path class="exterior-L-prim" d="M270,199.226V184.792l5-2.886v20.207Z"/>
    <path class="exterior-L-prim" d="M192.5,243.971V229.537l5-2.887v20.208Z"/>
    <path class="exterior-L-prim" d="M231.25,221.599V207.165l5-2.887v20.207Z"/>
    <path class="exterior-L-prim" d="M153.75,266.343V251.909l5-2.886V269.23Z"/>
    <path class="top-prim" d="M158.75,373.112l-5-2.887L125,386.824v5.774Z"/>
    <path class="top-prim" d="M236.25,328.368l-5-2.887L202.5,342.08v5.773Z"/>
    <path class="top-prim" d="M197.5,350.74l-5-2.8871-28.75,16.599v5.773Z"/>
    <path class="top-prim" d="M275,305.9951l-5-2.8871-28.75,16.599v5.774Z"/>
    <path class="exterior-L-prim" d="M270,303.108V288.675l5-2.887v20.2071Z"/>
    <path class="exterior-L-prim" d="M192.5,347.853V333.419l5-2.886V350.74Z"/>
    <path class="exterior-L-prim" d="M231.25,325.481V311.0469l5-2.8869v20.208Z"/>
    <path class="exterior-L-prim" d="M153.75,370.225V355.7921l5-2.8871v20.207Z"/>
    <path class="top-prim" d="M158.75,477.035l-5-2.887L125,490.747v5.7741Z"/>
    <path class="top-prim" d="M236.25,432.291l-5-2.887L202.5,446.003v5.7729Z"/>
    <path class="top-prim" d="M197.5,454.663l-5-2.8871-28.75,16.599v5.7741Z"/>
    <path class="top-prim" d="M275,409.918l-5-2.886L241.25,423.63v5.7741Z"/>
    <path class="exterior-L-prim" d="M270,407.032V392.598l5-2.887v20.207Z"/>
    <path class="exterior-L-prim" d="M192.5,451.7759V437.342l5-2.886v20.207Z"/>
    <path class="exterior-L-prim" d="M231.25,429.404V414.97l5-2.8871V432.291Z"/>
    <path class="exterior-L-prim" d="M153.75,474.149V459.715l5-2.8871V477.035Z"/>
    <path class="top-prim" d="M158.75,503.0161l-5-2.8871L125,516.728v5.774Z"/>
    <path class="top-prim" d="M236.25,458.2711l-5-2.8862L202.5,471.983v5.774Z"/>
    <path class="top-prim" d="M197.5,480.644l-5-2.887-28.75,16.599v5.773Z"/>
    <path class="top-prim" d="M275,435.899l-5-2.887-28.75,16.599v5.7739Z"/>
    <path class="exterior-L-prim" d="M270,433.012V418.579l5-2.887v20.207Z"/>
    <path class="exterior-L-prim" d="M192.5,477.757V463.3229l5-2.8869v20.208Z"/>
    <path class="exterior-L-prim" d="M231.25,455.3849V440.951l5-2.887v20.2071Z"/>
    <path class="exterior-L-prim" d="M153.75,500.129V485.696l5-2.887v20.2071Z"/>
    <path class="top-prim" d="M158.75,243.249l-5-2.887L125,256.961v5.774Z"/>
    <path class="top-prim" d="M236.25,198.505l-5-2.887L202.5,212.217v5.773Z"/>
    <path class="top-prim" d="M197.5,220.877l-5-2.887-28.75,16.599v5.773Z"/>
    <path class="top-prim" d="M275,176.132l-5-2.887-28.75,16.599v5.774Z"/>
    <path class="exterior-L-prim" d="M270,173.245V158.812l5-2.887v20.207Z"/>
    <path class="exterior-L-prim" d="M192.5,217.99V203.556l5-2.886v20.207Z"/>
    <path class="exterior-L-prim" d="M231.25,195.618V181.184l5-2.887v20.208Z"/>
    <path class="exterior-L-prim" d="M153.75,240.362V225.929l5-2.887v20.207Z"/>
    <path class="top-prim" d="M158.75,347.131l-5-2.8859L125,360.8441v5.7729Z"/>
    <path class="top-prim" d="M236.25,302.387l-5-2.8871-28.75,16.599v5.7731Z"/>
    <path class="top-prim" d="M197.5,324.759l-5-2.887-28.75,16.599v5.7741Z"/>
    <path class="top-prim" d="M275,280.014l-5-2.886-28.75,16.599V299.5Z"/>
    <path class="exterior-L-prim" d="M270,277.128V262.694l5-2.887v20.207Z"/>
    <path class="exterior-L-prim" d="M192.5,321.872V307.439l5-2.8871V324.759Z"/>
    <path class="exterior-L-prim" d="M231.25,299.5V285.066l5-2.886v20.207Z"/>
    <path class="exterior-L-prim" d="M153.75,344.2451V329.811l5-2.887v20.207Z"/>
    <path class="top-prim" d="M158.75,451.054l-5-2.886L125,464.767v5.773Z"/>
    <path class="top-prim" d="M236.25,406.31l-5-2.887L202.5,420.022v5.773Z"/>
    <path class="top-prim" d="M197.5,428.6819l-5-2.8869-28.75,16.599v5.774Z"/>
    <path class="top-prim" d="M275,383.938l-5-2.887L241.25,397.65v5.773Z"/>
    <path class="exterior-L-prim" d="M270,381.051V366.617l5-2.887v20.208Z"/>
    <path class="exterior-L-prim" d="M192.5,425.795V411.362l5-2.887v20.2069Z"/>
    <path class="exterior-L-prim" d="M231.25,403.423V388.989l5-2.886V406.31Z"/>
    <path class="exterior-L-prim" d="M153.75,448.168V433.7339l5-2.8869v20.208Z"/>
    <path class="top-prim" d="M158.75,191.247l-5-2.887L125,204.959v5.773Z"/>
    <path class="top-prim" d="M236.25,146.502l-5-2.887L202.5,160.214v5.774Z"/>
    <path class="top-prim" d="M197.5,168.875l-5-2.887-28.75,16.599v5.773Z"/>
    <path class="top-prim" d="M275,124.13l-5-2.887-28.75,16.599v5.773Z"/>
    <path class="exterior-L-prim" d="M270,121.243V106.809l5-2.886V124.13Z"/>
    <path class="exterior-L-prim" d="M192.5,165.988V151.554l5-2.887v20.208Z"/>
    <path class="exterior-L-prim" d="M231.25,143.615V129.182l5-2.887v20.207Z"/>
    <path class="exterior-L-prim" d="M153.75,188.36V173.926l5-2.886v20.207Z"/>
    <path class="top-prim" d="M158.75,295.211l-5-2.887L125,308.923v5.773Z"/>
    <path class="top-prim" d="M236.25,250.466l-5-2.887L202.5,264.178v5.774Z"/>
    <path class="top-prim" d="M197.5,272.838l-5-2.886L163.75,286.55v5.774Z"/>
    <path class="top-prim" d="M275,228.094l-5-2.887-28.75,16.599v5.773Z"/>
    <path class="exterior-L-prim" d="M270,225.207V210.773l5-2.887v20.208Z"/>
    <path class="exterior-L-prim" d="M192.5,269.952V255.518l5-2.887v20.207Z"/>
    <path class="exterior-L-prim" d="M231.25,247.579V233.146l5-2.887v20.207Z"/>
    <path class="exterior-L-prim" d="M153.75,292.324V277.89l5-2.887v20.208Z"/>
    <path class="top-prim" d="M158.75,399.093l-5-2.887L125,412.805v5.774Z"/>
    <path class="top-prim" d="M236.25,354.348l-5-2.886L202.5,368.06v5.774Z"/>
    <path class="top-prim" d="M197.5,376.721l-5-2.887-28.75,16.599v5.773Z"/>
    <path class="top-prim" d="M275,331.976l-5-2.8869L241.25,345.688v5.774Z"/>
    <path class="exterior-L-prim" d="M270,329.0891V314.655l5-2.886v20.207Z"/>
    <path class="exterior-L-prim" d="M192.5,373.834V359.4l5-2.887v20.208Z"/>
    <path class="exterior-L-prim" d="M231.25,351.462V337.028l5-2.8869V354.348Z"/>
    <path class="exterior-L-prim" d="M153.75,396.206V381.772l5-2.886v20.207Z"/>
  </g>
</svg>
