<svg id="root" xmlns="http://www.w3.org/2000/svg" viewBox="0 0 280 297.3361">
  <defs>
    <style>
      .top-prim {
        fill: #dd8986;
      }

      .exterior-L-prim {
        fill: #74302f;
      }

      .exterior-R-prim {
        fill: #d15752;
      }

      .cls-1 {
        fill: #e8e8e8;
      }

      .cls-2 {
        fill: #b9b9b9;
      }

      .cls-3 {
        fill: #d1d1d1;
      }

      .cls-4 {
        fill: #aeaeae;
      }

      .cls-5 {
        fill: #d9d9d9;
      }

      .top-dark {
        fill: #c67471;
      }
    </style>
  </defs>
  <title>1Artboard 43</title>
  <g id="root-2" data-name="root">
    <path class="top-prim" d="M161.25,49.797l-155,89.489v8.66l155-89.489Z"/>
    <path class="top-prim" d="M161.25,101.7581l-155,89.49v8.66l155-89.49Z"/>
    <path class="top-prim" d="M161.25,23.816l-155,89.4891v8.661l155-89.49Z"/>
    <path class="top-prim" d="M161.25,75.7781,6.25,165.267v8.66l155-89.489Z"/>
    <path class="exterior-L-prim" d="M83.75,178.2571l-2.5,1.4439-5-2.887V162.38l7.5-4.33Z"/>
    <path class="exterior-L-prim" d="M45,148.668l-2.5,1.443-5-2.886V132.791l7.5-4.33Z"/>
    <path class="exterior-L-prim" d="M45,174.649l-2.5,1.443-5-2.8869V158.772l7.5-4.33Z"/>
    <path class="exterior-L-prim" d="M45,200.63l-2.5,1.443-5-2.887V184.7521l7.5-4.33Z"/>
    <path class="exterior-R-prim" d="M3.75,94.541V225.889l5-2.8869V91.655Z"/>
    <path class="exterior-L-prim" d="M3.75,94.541V225.889L0,223.724V92.376Z"/>
    <path class="exterior-R-prim" d="M163.75,54.1271l-160,92.376v5.7729l160-92.376Z"/>
    <path class="exterior-R-prim" d="M163.75,106.088l-160,92.376v5.774l160-92.3759Z"/>
    <path class="exterior-R-prim" d="M163.75,28.146l-160,92.376v5.774l160-92.376Z"/>
    <path class="exterior-R-prim" d="M163.75,80.108l-160,92.376v5.7731l160-92.3761Z"/>
    <path class="top-prim" d="M157.5,50.5181l115,66.396v8.66l-115-66.3949Z"/>
    <path class="top-prim" d="M157.5,99.593l115,66.396v8.66l-115-66.395Z"/>
    <path class="top-prim" d="M157.5,24.538l115,66.395v8.66l-115-66.395Z"/>
    <path class="top-prim" d="M157.5,76.499l115,66.395v8.6611l-115-66.396Z"/>
    <path class="exterior-R-prim" d="M195,155.885l2.5,1.443,5-2.886V140.0081l-7.5-4.33Z"/>
    <path class="exterior-R-prim" d="M233.75,126.296l2.5,1.443,5-2.8869v-14.433l-7.5-4.3311Z"/>
    <path class="exterior-R-prim" d="M233.75,152.276l2.5,1.444,5-2.887V136.399l-7.5-4.33Z"/>
    <path class="exterior-R-prim" d="M233.75,178.2571l2.5,1.4439,5-2.887V162.38l-7.5-4.33Z"/>
    <path class="exterior-R-prim" d="M275,72.1691v135.677l5-2.886V69.282Z"/>
    <path class="exterior-L-prim" d="M275,72.1691V203.516l-5-2.886V69.282Z"/>
    <path class="exterior-L-prim" d="M155,54.849l120,69.282v5.7731L155,60.6221Z"/>
    <path class="exterior-L-prim" d="M155,106.81,275,176.092v5.774L155,112.584Z"/>
    <path class="exterior-L-prim" d="M155,28.868,275,98.15v5.773L155,34.641Z"/>
    <path class="exterior-L-prim" d="M155,80.829l120,69.282v5.774L155,86.603Z"/>
    <path class="top-prim" d="M0,222.28l160-92.3759L277.5,197.743v5.773L120,294.449v2.8871L0,228.0541Z"/>
    <path class="cls-1" d="M95,60.6221l30-17.32,20,11.547-30,17.32Z"/>
    <path class="cls-2" d="M95,187.639l20,11.547V72.1691L95,60.6221Z"/>
    <path class="cls-1" d="M145,54.849V181.866l-30,17.32V72.1691Z"/>
    <path class="cls-3" d="M102.5,189.083l-2.5,1.443V63.509l2.5,1.443Z"/>
    <path class="top-prim" d="M110,202.073v-8.66l-7.5-4.33-7.5,4.33Z"/>
    <path class="cls-4" d="M110,69.282l-7.5-4.33V189.083l7.5,4.33Z"/>
    <path class="cls-5" d="M137.5,59.1791,120,69.282V193.413l17.5-10.1039Z"/>
    <path class="top-prim" d="M142.5,186.196l-5-2.8869L120,193.413v5.773Z"/>
    <path class="cls-2" d="M140,57.735l-2.5,1.4441v124.13l2.5,1.443Z"/>
    <path class="top-prim" d="M2.5,140.0081l115,66.395v8.66L2.5,148.668Z"/>
    <path class="top-prim" d="M2.5,189.083l115,66.395v8.66L2.5,197.743Z"/>
    <path class="top-prim" d="M2.5,114.027l115,66.395v8.661L2.5,122.687Z"/>
    <path class="top-prim" d="M2.5,165.988l115,66.396v8.66L2.5,174.649Z"/>
    <path class="exterior-R-prim" d="M40,141.451l2.5,1.444,5-2.8869V125.574l-7.5-4.33Z"/>
    <path class="exterior-R-prim" d="M40,167.432l2.5,1.443,5-2.886V151.5551l-7.5-4.33Z"/>
    <path class="exterior-R-prim" d="M40,193.413l2.5,1.4431,5-2.8871V177.536L40,173.2051Z"/>
    <path class="exterior-R-prim" d="M40,219.3931l2.5,1.4439,5-2.8869V203.516l-7.5-4.33Z"/>
    <path class="exterior-R-prim" d="M40,245.374l2.5,1.444,5-2.887V229.4971l-7.5-4.33Z"/>
    <path class="exterior-R-prim" d="M1.25,119.079l2.5,1.443,5-2.887V103.202l-7.5-4.33Z"/>
    <path class="exterior-R-prim" d="M1.25,145.06l2.5,1.443,5-2.8871V129.182l-7.5-4.33Z"/>
    <path class="exterior-R-prim" d="M1.25,171.04l2.5,1.444,5-2.887V155.163l-7.5-4.33Z"/>
    <path class="exterior-R-prim" d="M1.25,197.021l2.5,1.443,5-2.886V181.144l-7.5-4.33Z"/>
    <path class="exterior-R-prim" d="M1.25,223.0021l2.5,1.443,5-2.8871V207.125l-7.5-4.33Z"/>
    <path class="top-prim" d="M277.5,116.9141l-155,89.489v8.66l155-89.489Z"/>
    <path class="top-prim" d="M277.5,168.875l-155,89.49v8.66l155-89.49Z"/>
    <path class="exterior-R-prim" d="M78.75,163.823l2.5,1.444,5-2.887V147.946l-7.5-4.33Z"/>
    <path class="exterior-R-prim" d="M78.75,189.8041l2.5,1.4439,5-2.887V173.927l-7.5-4.33Z"/>
    <path class="exterior-R-prim" d="M78.75,215.785l2.5,1.443,5-2.886V199.9081l-7.5-4.33Z"/>
    <path class="exterior-R-prim" d="M78.75,241.766l2.5,1.443,5-2.887V225.889l-7.5-4.331Z"/>
    <path class="exterior-R-prim" d="M78.75,267.7471l2.5,1.443,5-2.8871V251.869l-7.5-4.33Z"/>
    <path class="top-prim" d="M277.5,90.933l-155,89.489v8.661l155-89.49Z"/>
    <path class="top-prim" d="M277.5,142.895l-155,89.489v8.66l155-89.489Z"/>
    <path id="anchor_0_161.639_280.27" class="top-dark" d="M0,95.2631V92.376L160,0,280,69.282v2.8871L120,164.545Z"/>
    <path class="exterior-L-prim" d="M277.5,96.7061,275,98.15l-5-2.8869V80.829l7.5-4.33Z"/>
    <path class="exterior-L-prim" d="M277.5,122.687l-2.5,1.444-5-2.887V106.81l7.5-4.33Z"/>
    <path class="exterior-L-prim" d="M277.5,147.946,275,149.39l-5-2.8869V132.069l7.5-4.33Z"/>
    <path class="exterior-L-prim" d="M277.5,174.649l-2.5,1.443-5-2.8869V158.772l7.5-4.33Z"/>
    <path class="exterior-L-prim" d="M277.5,200.63l-2.5,1.443-5-2.887V184.7521l7.5-4.33Z"/>
    <path class="exterior-L-prim" d="M200,141.451l-2.5,1.443-5-2.8859V125.574l7.5-4.33Z"/>
    <path class="exterior-L-prim" d="M200,167.432l-2.5,1.443-5-2.886V151.5551l7.5-4.33Z"/>
    <path class="exterior-L-prim" d="M200,193.413l-2.5,1.4431-5-2.8871V177.536l7.5-4.3309Z"/>
    <path class="exterior-L-prim" d="M200,219.3931l-2.5,1.4439-5-2.8869V203.516l7.5-4.33Z"/>
    <path class="exterior-L-prim" d="M200,245.374l-2.5,1.444-5-2.887V229.4971l7.5-4.33Z"/>
    <path class="exterior-L-prim" d="M238.75,119.079l-2.5,1.443-5-2.887V103.202l7.5-4.33Z"/>
    <path class="exterior-L-prim" d="M238.75,145.06l-2.5,1.443-5-2.8871V129.183l7.5-4.3309Z"/>
    <path class="exterior-L-prim" d="M238.75,170.319l-2.5,1.443-5-2.887V154.442l7.5-4.331Z"/>
    <path class="exterior-L-prim" d="M238.75,197.021l-2.5,1.443-5-2.886V181.144l7.5-4.33Z"/>
    <path class="exterior-L-prim" d="M238.75,223.0021l-2.5,1.443-5-2.886V207.125l7.5-4.33Z"/>
    <path class="exterior-L-prim" d="M161.25,163.823l-2.5,1.444-5-2.887V147.946l7.5-4.33Z"/>
    <path class="exterior-L-prim" d="M161.25,189.8041l-2.5,1.4439-5-2.887V173.927l7.5-4.33Z"/>
    <path class="exterior-L-prim" d="M161.25,215.785l-2.5,1.443-5-2.886V199.9081l7.5-4.33Z"/>
    <path class="exterior-L-prim" d="M161.25,241.766l-2.5,1.443-5-2.887V225.889l7.5-4.331Z"/>
    <path class="exterior-L-prim" d="M161.25,267.7471l-2.5,1.443-5-2.8871V251.869l7.5-4.33Z"/>
    <path class="exterior-L-prim" d="M4,94.686V230.363l-4-2.3089V92.376Z"/>
    <path class="exterior-L-prim" d="M42.5,116.9141v135.677l-5-2.8871V114.027Z"/>
    <path class="exterior-L-prim" d="M81.25,139.286V274.963l-5-2.886V136.399Z"/>
    <path class="exterior-R-prim" d="M120,161.6581l-2.5-1.4431V295.892l2.5,1.4441,5-2.8871V158.772Z"/>
    <path class="exterior-R-prim" d="M197.5,116.9141v135.677l5-2.8871V114.027Z"/>
    <path class="exterior-R-prim" d="M275,72.1691v135.677l5-2.886V69.282Z"/>
    <path class="exterior-R-prim" d="M158.75,139.286V274.963l5-2.886V136.399Z"/>
    <path class="exterior-R-prim" d="M236.25,94.541V230.219l5-2.887V91.655Z"/>
    <path class="exterior-L-prim" d="M120,161.6581V293.006l-5-2.887V158.772Z"/>
    <path class="exterior-L-prim" d="M0,92.376l120,69.2821v5.7739L0,98.15Z"/>
    <path class="exterior-L-prim" d="M0,144.338,120,213.62v5.7731L0,150.111Z"/>
    <path class="exterior-L-prim" d="M0,196.2991l120,69.282v5.7739L0,202.073Z"/>
    <path class="exterior-L-prim" d="M0,118.3571,120,187.639v5.774L0,124.131Z"/>
    <path class="exterior-L-prim" d="M0,222.28l120,69.282v5.7741L0,228.0541Z"/>
    <path class="exterior-L-prim" d="M0,170.319l120,69.2821v5.7729L0,176.092Z"/>
    <path class="exterior-R-prim" d="M280,69.282,120,161.6581v5.7739L280,75.056Z"/>
    <path class="exterior-R-prim" d="M280,121.244,120,213.62v5.7731L280,127.017Z"/>
    <path class="exterior-R-prim" d="M280,173.2051l-160,92.376v5.7739l160-92.376Z"/>
    <path class="exterior-R-prim" d="M280,95.2631,120,187.639v5.774l160-92.376Z"/>
    <path class="exterior-R-prim" d="M280,199.186,120,291.562v5.7741L280,204.96Z"/>
    <path class="exterior-R-prim" d="M280,147.225,120,239.6011v5.7729l160-92.376Z"/>
  </g>
</svg>
