<svg id="root" xmlns="http://www.w3.org/2000/svg" viewBox="0 0 280 323.316">
  <defs>
    <style>
      .top-prim {
        fill: #dd8986;
      }

      .exterior-L-prim {
        fill: #74302f;
      }

      .exterior-R-prim {
        fill: #d15752;
      }

      .cls-1 {
        fill: #e8e8e8;
      }

      .cls-2 {
        fill: #b9b9b9;
      }

      .cls-3 {
        fill: #d1d1d1;
      }

      .cls-4 {
        fill: #aeaeae;
      }

      .cls-5 {
        fill: #d9d9d9;
      }

      .top-dark {
        fill: #c67471;
      }
    </style>
  </defs>
  <title>1Artboard 42</title>
  <g id="root-2" data-name="root">
    <path class="top-prim" d="M161.25,23.8151l-155,89.49v8.66l155-89.49Z"/>
    <path class="top-prim" d="M161.25,75.777l-155,89.489v8.66l155-89.489Z"/>
    <path class="top-prim" d="M161.25,127.738l-155,89.49v8.66l155-89.49Z"/>
    <path class="top-prim" d="M161.25,49.796l-155,89.489v8.661l155-89.49Z"/>
    <path class="top-prim" d="M161.25,101.7581l-155,89.4888v8.66l155-89.489Z"/>
    <path class="exterior-L-prim" d="M161.25,159.493l-2.5,1.443-5-2.887V143.615l7.5-4.33Z"/>
    <path class="exterior-L-prim" d="M83.75,152.276l-2.5,1.443-5-2.887V136.399l7.5-4.331Z"/>
    <path class="exterior-L-prim" d="M83.75,178.256l-2.5,1.444-5-2.887V162.379l7.5-4.33Z"/>
    <path class="exterior-L-prim" d="M83.75,204.2371l-2.5,1.4439-5-2.8871V188.36l7.5-4.33Z"/>
    <path class="exterior-L-prim" d="M122.5,129.182l-2.5,1.443-5-2.887V113.3051l7.5-4.3311Z"/>
    <path class="exterior-L-prim" d="M122.5,155.884l-2.5,1.443-5-2.886V140.007l7.5-4.33Z"/>
    <path class="exterior-L-prim" d="M122.5,181.865l-2.5,1.443-5-2.886V165.988l7.5-4.33Z"/>
    <path class="exterior-L-prim" d="M45,148.667l-2.5,1.444-5-2.887V132.79l7.5-4.33Z"/>
    <path class="exterior-L-prim" d="M45,174.6479l-2.5,1.443-5-2.8859V158.771l7.5-4.33Z"/>
    <path class="exterior-L-prim" d="M45,200.629l-2.5,1.443-5-2.8869V184.752l7.5-4.33Z"/>
    <path class="exterior-L-prim" d="M45,226.61l-2.5,1.443-5-2.887V210.7321l7.5-4.33Z"/>
    <path class="exterior-R-prim" d="M3.75,94.541V251.869l5-2.8869V91.6541Z"/>
    <path class="exterior-L-prim" d="M3.75,94.541V251.869L0,249.704V92.376Z"/>
    <path class="exterior-R-prim" d="M163.75,28.145l-160,92.376v5.774l160-92.3761Z"/>
    <path class="exterior-R-prim" d="M163.75,80.1071,3.75,172.483v5.773l160-92.376Z"/>
    <path class="exterior-R-prim" d="M163.75,132.068l-160,92.376v5.774l160-92.376Z"/>
    <path class="exterior-R-prim" d="M163.75,54.126l-160,92.376v5.774l160-92.376Z"/>
    <path class="exterior-R-prim" d="M163.75,106.088l-160,92.376v5.7731l160-92.3761Z"/>
    <path class="top-prim" d="M157.5,24.537l115,66.395v8.661l-115-66.396Z"/>
    <path class="top-prim" d="M157.5,76.498l115,66.396v8.66l-115-66.3949Z"/>
    <path class="top-prim" d="M157.5,125.573l115,66.396v8.66l-115-66.395Z"/>
    <path class="top-prim" d="M157.5,50.5179l115,66.3951v8.66l-115-66.395Z"/>
    <path class="top-prim" d="M157.5,102.479l115,66.395v8.661l-115-66.396Z"/>
    <path class="exterior-R-prim" d="M195,155.884l2.5,1.444,5-2.887V140.007l-7.5-4.33Z"/>
    <path class="exterior-R-prim" d="M195,181.865l2.5,1.443,5-2.886V165.988l-7.5-4.33Z"/>
    <path class="exterior-R-prim" d="M156.25,159.493l2.5,1.443,5-2.887V143.615l-7.5-4.33Z"/>
    <path class="exterior-R-prim" d="M233.75,126.295l2.5,1.443,5-2.8859V110.418l-7.5-4.33Z"/>
    <path class="exterior-R-prim" d="M233.75,152.276l2.5,1.443,5-2.887V136.399l-7.5-4.331Z"/>
    <path class="exterior-R-prim" d="M233.75,178.256l2.5,1.444,5-2.887V162.379l-7.5-4.33Z"/>
    <path class="exterior-R-prim" d="M233.75,204.2371l2.5,1.4439,5-2.8871V188.36l-7.5-4.33Z"/>
    <path class="exterior-R-prim" d="M275,72.168V233.826l5-2.8859V69.282Z"/>
    <path class="exterior-L-prim" d="M275,72.168V229.496l-5-2.886V69.282Z"/>
    <path class="exterior-L-prim" d="M155,28.8669,275,98.149v5.774L155,34.64Z"/>
    <path class="exterior-L-prim" d="M155,80.829l120,69.282v5.773L155,86.6021Z"/>
    <path class="exterior-L-prim" d="M155,132.79l120,69.282v5.7739L155,138.564Z"/>
    <path class="exterior-L-prim" d="M155,54.848,275,124.13v5.773L155,60.621Z"/>
    <path class="exterior-L-prim" d="M155,106.809l120,69.2819v5.7741L155,112.583Z"/>
    <path class="top-prim" d="M0,248.26l160-92.376,117.5,67.839v5.773L120,320.429v2.887L0,254.0341Z"/>
    <path class="cls-1" d="M95,86.6021l30-17.32,20,11.547-30,17.32Z"/>
    <path class="cls-2" d="M95,213.619l20,11.547V98.149L95,86.6021Z"/>
    <path class="cls-1" d="M145,80.829V207.8459l-30,17.32V98.149Z"/>
    <path class="cls-3" d="M102.5,215.063l-2.5,1.443V89.489l2.5,1.443Z"/>
    <path class="top-prim" d="M110,228.053v-8.66l-7.5-4.33-7.5,4.33Z"/>
    <path class="cls-4" d="M110,95.262l-7.5-4.33V215.063l7.5,4.33Z"/>
    <path class="cls-5" d="M137.5,85.1591,120,95.262V219.3929l17.5-10.1038Z"/>
    <path class="top-prim" d="M142.5,212.176l-5-2.8869L120,219.3929v5.7731Z"/>
    <path class="cls-2" d="M140,83.715l-2.5,1.4441v124.13l2.5,1.443Z"/>
    <path class="top-prim" d="M2.5,114.026l115,66.396v8.66L2.5,122.687Z"/>
    <path class="top-prim" d="M2.5,165.988l115,66.3951v8.66L2.5,174.6479Z"/>
    <path class="top-prim" d="M2.5,215.063l115,66.395v8.66L2.5,223.723Z"/>
    <path class="exterior-R-prim" d="M40,141.45l2.5,1.444,5-2.887V125.573l-7.5-4.33Z"/>
    <path class="top-prim" d="M2.5,140.007l115,66.395v8.661L2.5,148.667Z"/>
    <path class="top-prim" d="M2.5,191.968l115,66.396v8.66L2.5,200.629Z"/>
    <path class="exterior-R-prim" d="M40,167.431l2.5,1.444,5-2.887V151.554l-7.5-4.33Z"/>
    <path class="exterior-R-prim" d="M40,193.412l2.5,1.443,5-2.886V177.535l-7.5-4.33Z"/>
    <path class="exterior-R-prim" d="M40,219.3929l2.5,1.4432,5-2.8871V203.516L40,199.1851Z"/>
    <path class="exterior-R-prim" d="M40,245.373l2.5,1.444,5-2.8869V229.496l-7.5-4.33Z"/>
    <path class="exterior-R-prim" d="M40,271.354l2.5,1.444,5-2.887V255.4771l-7.5-4.33Z"/>
    <path class="exterior-R-prim" d="M1.25,119.078l2.5,1.443,5-2.886V103.201l-7.5-4.33Z"/>
    <path class="exterior-R-prim" d="M1.25,145.059l2.5,1.443,5-2.887V129.182l-7.5-4.33Z"/>
    <path class="exterior-R-prim" d="M1.25,171.04l2.5,1.443,5-2.8871V155.162l-7.5-4.33Z"/>
    <path class="exterior-R-prim" d="M1.25,197.02l2.5,1.444,5-2.887V181.1429l-7.5-4.33Z"/>
    <path class="exterior-R-prim" d="M1.25,223.001l2.5,1.443,5-2.886V207.124l-7.5-4.33Z"/>
    <path class="exterior-R-prim" d="M1.25,248.9821l2.5,1.4429,5-2.887V233.105l-7.5-4.33Z"/>
    <path class="top-prim" d="M277.5,90.932l-155,89.489v8.661l155-89.49Z"/>
    <path class="top-prim" d="M277.5,142.894l-155,89.4891v8.66l155-89.489Z"/>
    <path class="exterior-R-prim" d="M78.75,163.823l2.5,1.443,5-2.887V147.946l-7.5-4.331Z"/>
    <path class="top-prim" d="M277.5,194.855l-155,89.49v8.66l155-89.49Z"/>
    <path class="exterior-R-prim" d="M78.75,189.803l2.5,1.4439,5-2.8869V173.926l-7.5-4.33Z"/>
    <path class="exterior-R-prim" d="M78.75,215.7841l2.5,1.4439,5-2.8871V199.907l-7.5-4.33Z"/>
    <path class="exterior-R-prim" d="M78.75,241.765l2.5,1.443,5-2.886V225.8881l-7.5-4.33Z"/>
    <path class="exterior-R-prim" d="M78.75,267.746l2.5,1.443,5-2.887V251.869l-7.5-4.331Z"/>
    <path class="exterior-R-prim" d="M78.75,293.7271l2.5,1.4429,5-2.887V277.849l-7.5-4.33Z"/>
    <path class="top-prim" d="M277.5,116.913l-155,89.489v8.661l155-89.49Z"/>
    <path class="top-prim" d="M277.5,168.875l-155,89.489v8.66l155-89.489Z"/>
    <path id="anchor_0_161.639_280.27" class="top-dark" d="M0,95.262V92.376L160,0,280,69.282v2.886L120,164.5439Z"/>
    <path class="exterior-L-prim" d="M277.5,96.7061,275,98.149l-5-2.887V80.829l7.5-4.331Z"/>
    <path class="exterior-L-prim" d="M277.5,122.686,275,124.13l-5-2.887V106.809l7.5-4.33Z"/>
    <path class="exterior-L-prim" d="M277.5,148.667l-2.5,1.444-5-2.887V132.79l7.5-4.33Z"/>
    <path class="exterior-L-prim" d="M277.5,173.926,275,175.37l-5-2.887V158.049l7.5-4.33Z"/>
    <path class="exterior-L-prim" d="M277.5,200.629l-2.5,1.443-5-2.8869V184.752l7.5-4.33Z"/>
    <path class="exterior-L-prim" d="M277.5,226.61l-2.5,1.443-5-2.887V210.7321l7.5-4.33Z"/>
    <path class="exterior-L-prim" d="M200,141.45l-2.5,1.444-5-2.887V125.573l7.5-4.33Z"/>
    <path class="exterior-L-prim" d="M200,167.431l-2.5,1.443-5-2.886V151.554l7.5-4.33Z"/>
    <path class="exterior-L-prim" d="M200,193.412l-2.5,1.443-5-2.886V177.535l7.5-4.33Z"/>
    <path class="exterior-L-prim" d="M200,219.3929l-2.5,1.4432-5-2.8871V203.516l7.5-4.3309Z"/>
    <path class="exterior-L-prim" d="M200,245.373l-2.5,1.444-5-2.8869V229.496l7.5-4.33Z"/>
    <path class="exterior-L-prim" d="M200,271.354l-2.5,1.444-5-2.887V255.4771l7.5-4.33Z"/>
    <path class="exterior-L-prim" d="M238.75,119.078l-2.5,1.443-5-2.886V103.201l7.5-4.33Z"/>
    <path class="exterior-L-prim" d="M238.75,145.059l-2.5,1.443-5-2.887V129.182l7.5-4.33Z"/>
    <path class="exterior-L-prim" d="M238.75,171.04l-2.5,1.443-5-2.8871V155.163l7.5-4.331Z"/>
    <path class="exterior-L-prim" d="M238.75,196.299l-2.5,1.4429-5-2.8869V180.422l7.5-4.3311Z"/>
    <path class="exterior-L-prim" d="M238.75,223.001l-2.5,1.443-5-2.886V207.124l7.5-4.33Z"/>
    <path class="exterior-L-prim" d="M238.75,248.9821l-2.5,1.4429-5-2.8859V233.105l7.5-4.33Z"/>
    <path class="exterior-L-prim" d="M161.25,162.379l-2.5,1.444-5-2.887V146.502l7.5-4.33Z"/>
    <path class="exterior-L-prim" d="M161.25,189.803l-2.5,1.4439-5-2.8869V173.926l7.5-4.33Z"/>
    <path class="exterior-L-prim" d="M161.25,215.7841l-2.5,1.4439-5-2.8871V199.907l7.5-4.33Z"/>
    <path class="exterior-L-prim" d="M161.25,241.765l-2.5,1.443-5-2.886V225.8881l7.5-4.33Z"/>
    <path class="exterior-L-prim" d="M161.25,267.746l-2.5,1.443-5-2.887V251.869l7.5-4.331Z"/>
    <path class="exterior-L-prim" d="M161.25,293.7271l-2.5,1.4429-5-2.887V277.849l7.5-4.33Z"/>
    <path class="exterior-L-prim" d="M4,94.6851V256.343l-4-2.3089V92.376Z"/>
    <path class="exterior-L-prim" d="M42.5,116.913V278.571l-5-2.887V114.026Z"/>
    <path class="exterior-L-prim" d="M81.25,139.285V300.943l-5-2.886V136.399Z"/>
    <path class="exterior-R-prim" d="M120,161.658l-2.5-1.444V321.8719l2.5,1.4441,5-2.887V158.771Z"/>
    <path class="exterior-R-prim" d="M197.5,116.913V278.571l5-2.887V114.026Z"/>
    <path class="exterior-R-prim" d="M275,72.168V233.826l5-2.8859V69.282Z"/>
    <path class="exterior-R-prim" d="M158.75,139.285V300.943l5-2.886V136.399Z"/>
    <path class="exterior-R-prim" d="M236.25,94.541V256.199l5-2.887V91.6541Z"/>
    <path class="exterior-L-prim" d="M120,161.658V318.986l-5-2.887V158.771Z"/>
    <path class="exterior-L-prim" d="M0,118.356l120,69.2821v5.7739L0,124.13Z"/>
    <path class="exterior-L-prim" d="M0,170.318,120,239.6v5.773L0,176.0909Z"/>
    <path class="exterior-L-prim" d="M0,222.2791,120,291.561v5.774L0,228.053Z"/>
    <path class="exterior-L-prim" d="M0,92.376l120,69.282v5.773L0,98.149Z"/>
    <path class="exterior-L-prim" d="M0,144.337l120,69.282v5.7739L0,150.111Z"/>
    <path class="exterior-L-prim" d="M0,248.26l120,69.282v5.774L0,254.0341Z"/>
    <path class="exterior-L-prim" d="M0,196.299l120,69.2821v5.7729L0,202.072Z"/>
    <path class="exterior-R-prim" d="M280,95.262,120,187.6381v5.7739l160-92.376Z"/>
    <path class="exterior-R-prim" d="M280,147.224,120,239.6v5.773l160-92.3761Z"/>
    <path class="exterior-R-prim" d="M280,199.1851,120,291.561v5.774l160-92.376Z"/>
    <path class="exterior-R-prim" d="M280,69.282,120,161.658v5.773L280,75.0551Z"/>
    <path class="exterior-R-prim" d="M280,121.243,120,213.619v5.7739L280,127.017Z"/>
    <path class="exterior-R-prim" d="M280,225.166,120,317.542v5.774L280,230.94Z"/>
    <path class="exterior-R-prim" d="M280,173.205,120,265.5811v5.7729l160-92.376Z"/>
  </g>
</svg>
