<svg id="root" xmlns="http://www.w3.org/2000/svg" viewBox="0 0 280.25 505.182">
  <defs>
    <style>
      .top-prim {
        fill: #dd8986;
      }

      .exterior-L-prim {
        fill: #74302f;
      }

      .exterior-R-prim {
        fill: #d15752;
      }

      .cls-1 {
        fill: #e8e8e8;
      }

      .cls-2 {
        fill: #b9b9b9;
      }

      .cls-3 {
        fill: #d1d1d1;
      }

      .cls-4 {
        fill: #aeaeae;
      }

      .cls-5 {
        fill: #d9d9d9;
      }

      .top-dark {
        fill: #c67471;
      }
    </style>
  </defs>
  <title>1Artboard 35</title>
  <g id="root-2" data-name="root">
    <path class="top-prim" d="M161.5,49.797,6.5,139.286v8.66l155-89.489Z"/>
    <path class="top-prim" d="M161.5,101.7579l-155,89.489v8.6611l155-89.49Z"/>
    <path class="top-prim" d="M161.5,153.72,6.5,243.209v8.66l155-89.489Z"/>
    <path class="top-prim" d="M161.5,205.681l-155,89.49v8.66l155-89.49Z"/>
    <path class="top-prim" d="M161.5,257.6429,6.5,347.132v8.66l155-89.489Z"/>
    <path class="top-prim" d="M161.5,309.604l-155,89.49v8.66l155-89.49Z"/>
    <path class="top-prim" d="M161.5,23.8159l-155,89.489v8.66l155-89.489Z"/>
    <path class="top-prim" d="M161.5,75.777l-155,89.49v8.66l155-89.489Z"/>
    <path class="top-prim" d="M161.5,127.739,6.5,217.228v8.6609l155-89.49Z"/>
    <path class="top-prim" d="M161.5,179.7,6.5,269.19v8.66l155-89.489Z"/>
    <path class="top-prim" d="M161.5,231.662,6.5,321.151v8.661l155-89.49Z"/>
    <path class="top-prim" d="M161.5,283.624,6.5,373.1129v8.66l155-89.489Z"/>
    <path class="exterior-L-prim" d="M161.5,159.4929,159,160.937l-5-2.8871V143.616l7.5-4.33Z"/>
    <path class="exterior-L-prim" d="M161.5,185.474l-2.5,1.443-5-2.886V169.5969l7.5-4.33Z"/>
    <path class="exterior-L-prim" d="M161.5,211.455l-2.5,1.4429-5-2.8869V195.578l7.5-4.3311Z"/>
    <path class="exterior-L-prim" d="M161.5,237.4359,159,238.879l-5-2.8871V221.558l7.5-4.33Z"/>
    <path class="exterior-L-prim" d="M161.5,263.416,159,264.86l-5-2.887V247.5389l7.5-4.33Z"/>
    <path class="exterior-L-prim" d="M161.5,288.6749,159,290.119l-5-2.8871V272.798l7.5-4.33Z"/>
    <path class="exterior-L-prim" d="M161.5,315.3779l-2.5,1.443-5-2.8869V299.501l7.5-4.33Z"/>
    <path class="exterior-L-prim" d="M161.5,341.359l-2.5,1.443-5-2.8871V325.481l7.5-4.33Z"/>
    <path class="exterior-L-prim" d="M84,152.276l-2.5,1.444-5-2.887V136.3989l7.5-4.33Z"/>
    <path class="exterior-L-prim" d="M84,178.257,81.5,179.7l-5-2.886V162.38l7.5-4.33Z"/>
    <path class="exterior-L-prim" d="M84,204.2379l-2.5,1.4431-5-2.8861V188.361l7.5-4.33Z"/>
    <path class="exterior-L-prim" d="M84,230.219l-2.5,1.443-5-2.887V214.3419L84,210.011Z"/>
    <path class="exterior-L-prim" d="M84,256.199l-2.5,1.4439-5-2.8869V240.322l7.5-4.33Z"/>
    <path class="exterior-L-prim" d="M84,282.18l-2.5,1.4441-5-2.8871V266.303l7.5-4.33Z"/>
    <path class="exterior-L-prim" d="M84,308.161l-2.5,1.443-5-2.886V292.2839l7.5-4.33Z"/>
    <path class="exterior-L-prim" d="M84,334.142l-2.5,1.443-5-2.887V318.265l7.5-4.331Z"/>
    <path class="exterior-L-prim" d="M84,360.1219l-2.5,1.444-5-2.8869V344.245l7.5-4.33Z"/>
    <path class="exterior-L-prim" d="M84,386.103l-2.5,1.444-5-2.8871V370.226l7.5-4.33Z"/>
    <path class="exterior-L-prim" d="M122.75,103.923l-2.5,1.4439-5-2.8869V88.046l7.5-4.33Z"/>
    <path class="exterior-L-prim" d="M122.75,129.9039l-2.5,1.443-5-2.886V114.027l7.5-4.33Z"/>
    <path class="exterior-L-prim" d="M122.75,155.885l-2.5,1.443-5-2.8871v-14.433l7.5-4.33Z"/>
    <path class="exterior-L-prim" d="M122.75,181.866l-2.5,1.443-5-2.887V165.9879l7.5-4.33Z"/>
    <path class="exterior-L-prim" d="M122.75,207.8459l-2.5,1.444-5-2.8869V191.969l7.5-4.33Z"/>
    <path class="exterior-L-prim" d="M122.75,233.827l-2.5,1.443-5-2.8861V217.95l7.5-4.33Z"/>
    <path class="exterior-L-prim" d="M122.75,259.808l-2.5,1.443-5-2.887V243.931l7.5-4.33Z"/>
    <path class="exterior-L-prim" d="M122.75,285.7889l-2.5,1.443-5-2.8869V269.912l7.5-4.3311Z"/>
    <path class="exterior-L-prim" d="M122.75,311.048l-2.5,1.443-5-2.887V295.171l7.5-4.331Z"/>
    <path class="exterior-L-prim" d="M122.75,337.75l-2.5,1.443-5-2.886V321.8729l7.5-4.33Z"/>
    <path class="exterior-L-prim" d="M122.75,363.731l-2.5,1.443-5-2.886V347.854l7.5-4.33Z"/>
    <path class="exterior-L-prim" d="M45.25,122.687l-2.5,1.444-5-2.887V106.81l7.5-4.33Z"/>
    <path class="exterior-L-prim" d="M45.25,148.668l-2.5,1.443-5-2.886V132.791l7.5-4.33Z"/>
    <path class="exterior-L-prim" d="M45.25,174.6489l-2.5,1.443-5-2.8869V158.772l7.5-4.3311Z"/>
    <path class="exterior-L-prim" d="M45.25,200.629l-2.5,1.444-5-2.8871V184.752l7.5-4.33Z"/>
    <path class="exterior-L-prim" d="M45.25,226.61l-2.5,1.444-5-2.887V210.7329l7.5-4.33Z"/>
    <path class="exterior-L-prim" d="M45.25,252.5909l-2.5,1.443-5-2.886V236.714l7.5-4.33Z"/>
    <path class="exterior-L-prim" d="M45.25,277.1279l-2.5,1.4441-5-2.8871V261.251l7.5-4.33Z"/>
    <path class="exterior-L-prim" d="M45.25,304.552l-2.5,1.444-5-2.887V288.6749l7.5-4.33Z"/>
    <path class="exterior-L-prim" d="M45.25,330.533l-2.5,1.4439-5-2.8869V314.656l7.5-4.33Z"/>
    <path class="exterior-L-prim" d="M45.25,356.5139l-2.5,1.443-5-2.886V340.637l7.5-4.33Z"/>
    <path class="exterior-L-prim" d="M45.25,382.495l-2.5,1.443-5-2.887V366.6179l7.5-4.33Z"/>
    <path class="exterior-L-prim" d="M45.25,408.476l-2.5,1.4429-5-2.8869V392.598l7.5-4.33Z"/>
    <path class="exterior-R-prim" d="M3.75,94.397,4,433.735l5-2.887L8.75,91.51Z"/>
    <path class="exterior-L-prim" d="M3.75,94.397,4,433.735.25,431.57,0,92.2319Z"/>
    <path class="exterior-R-prim" d="M164,2.1649,4,94.541v5.7739L164,7.939Z"/>
    <path class="exterior-R-prim" d="M164,54.127,4,146.5029v5.7731L164,59.9Z"/>
    <path class="exterior-R-prim" d="M164,106.088,4,198.464v5.7739l160-92.376Z"/>
    <path class="exterior-R-prim" d="M164,158.05,4,250.426v5.773l160-92.376Z"/>
    <path class="exterior-R-prim" d="M164,210.011,4,302.387v5.774l160-92.3761Z"/>
    <path class="exterior-R-prim" d="M164,261.973,4,354.349v5.7729L164,267.746Z"/>
    <path class="exterior-R-prim" d="M164,313.934,4,406.31v5.7741l160-92.376Z"/>
    <path class="exterior-R-prim" d="M164,28.146,4,120.522v5.774L164,33.9189Z"/>
    <path class="exterior-R-prim" d="M164,80.1079,4,172.484v5.773L164,85.881Z"/>
    <path class="exterior-R-prim" d="M164,132.069,4,224.4449v5.7741l160-92.376Z"/>
    <path class="exterior-R-prim" d="M164,184.031,4,276.407V282.18L164,189.804Z"/>
    <path class="exterior-R-prim" d="M164,235.9919,4,328.3679v5.7741l160-92.376Z"/>
    <path class="exterior-R-prim" d="M164,287.954,4,380.33v5.773l160-92.3761Z"/>
    <path class="top-prim" d="M157.75,50.5189l115,66.395v8.66l-115-66.395Z"/>
    <path class="top-prim" d="M157.75,102.48l115,66.395v8.661l-115-66.396Z"/>
    <path class="top-prim" d="M157.75,154.4409l115,66.396v8.66l-115-66.395Z"/>
    <path class="exterior-R-prim" d="M195.25,129.9039l2.5,1.443,5-2.886V114.027l-7.5-4.33Z"/>
    <path class="top-prim" d="M157.75,206.403l115,66.395v8.661l-115-66.396Z"/>
    <path class="top-prim" d="M157.75,258.364l115,66.396v8.66l-115-66.3949Z"/>
    <path class="top-prim" d="M157.75,307.439l115,66.396v8.66l-115-66.395Z"/>
    <path class="top-prim" d="M157.75,24.538l115,66.395v8.66l-115-66.395Z"/>
    <path class="top-prim" d="M157.75,76.499l115,66.3949v8.661l-115-66.396Z"/>
    <path class="exterior-R-prim" d="M234,126.296l2.5,1.443,5-2.8871v-14.433L234,106.088Z"/>
    <path class="exterior-R-prim" d="M234,152.276l2.5,1.444,5-2.887V136.3989l-7.5-4.33Z"/>
    <path class="top-prim" d="M157.75,128.4609l115,66.3951v8.66l-115-66.395Z"/>
    <path class="exterior-R-prim" d="M195.25,155.885l2.5,1.443,5-2.886V140.0079l-7.5-4.33Z"/>
    <path class="exterior-R-prim" d="M195.25,181.866l2.5,1.443,5-2.887V165.989l-7.5-4.331Z"/>
    <path class="exterior-R-prim" d="M195.25,207.8459l2.5,1.444,5-2.8869V191.969l-7.5-4.33Z"/>
    <path class="exterior-R-prim" d="M195.25,233.827l2.5,1.443,5-2.8861V217.95l-7.5-4.33Z"/>
    <path class="top-prim" d="M157.75,180.422l115,66.395v8.661l-115-66.3961Z"/>
    <path class="top-prim" d="M157.75,232.3839l115,66.395v8.66l-115-66.3951Z"/>
    <path class="top-prim" d="M157.75,284.345l115,66.395v8.661l-115-66.396Z"/>
    <path class="exterior-R-prim" d="M195.25,259.808l2.5,1.443,5-2.886V243.931l-7.5-4.33Z"/>
    <path class="exterior-R-prim" d="M195.25,285.7889l2.5,1.443,5-2.8869V269.912l-7.5-4.3311Z"/>
    <path class="exterior-R-prim" d="M195.25,311.7689l2.5,1.4441,5-2.8871V295.892l-7.5-4.33Z"/>
    <path class="exterior-R-prim" d="M195.25,337.75l2.5,1.444,5-2.887V321.8729l-7.5-4.33Z"/>
    <path class="exterior-R-prim" d="M195.25,363.731l2.5,1.443,5-2.886V347.854l-7.5-4.33Z"/>
    <path class="exterior-R-prim" d="M156.5,159.4929l2.5,1.4441,5-2.8871V143.616l-7.5-4.33Z"/>
    <path class="exterior-R-prim" d="M156.5,185.474l2.5,1.443,5-2.886V169.5969l-7.5-4.33Z"/>
    <path class="exterior-R-prim" d="M156.5,211.455l2.5,1.4429,5-2.8869V195.578l-7.5-4.3311Z"/>
    <path class="exterior-R-prim" d="M156.5,237.4359l2.5,1.4431,5-2.8871V221.558l-7.5-4.33Z"/>
    <path class="exterior-R-prim" d="M156.5,263.416l2.5,1.444,5-2.887V247.5389l-7.5-4.33Z"/>
    <path class="exterior-R-prim" d="M156.5,289.397l2.5,1.443,5-2.886V273.52l-7.5-4.33Z"/>
    <path class="exterior-R-prim" d="M156.5,315.3779l2.5,1.443,5-2.8869V299.501l-7.5-4.33Z"/>
    <path class="exterior-R-prim" d="M156.5,341.359l2.5,1.443,5-2.8871V325.481l-7.5-4.33Z"/>
    <path class="exterior-R-prim" d="M234,178.257l2.5,1.4439,5-2.8869V162.38l-7.5-4.33Z"/>
    <path class="exterior-R-prim" d="M234,204.2379l2.5,1.4431,5-2.8861V188.361l-7.5-4.33Z"/>
    <path class="exterior-R-prim" d="M234,230.219l2.5,1.443,5-2.887V214.3419L234,210.011Z"/>
    <path class="exterior-R-prim" d="M234,256.199l2.5,1.4439,5-2.8869V240.322l-7.5-4.33Z"/>
    <path class="exterior-R-prim" d="M234,282.18l2.5,1.4441,5-2.8871V266.303l-7.5-4.33Z"/>
    <path class="exterior-R-prim" d="M234,308.161l2.5,1.443,5-2.886V292.2839l-7.5-4.33Z"/>
    <path class="exterior-R-prim" d="M234,334.142l2.5,1.443,5-2.887V318.265l-7.5-4.331Z"/>
    <path class="exterior-R-prim" d="M234,360.1219l2.5,1.444,5-2.8869V344.245l-7.5-4.33Z"/>
    <path class="exterior-R-prim" d="M234,386.103l2.5,1.444,5-2.8871V370.226l-7.5-4.33Z"/>
    <path class="exterior-R-prim" d="M275.25,72.1689V415.692l5-2.886V69.282Z"/>
    <path class="exterior-L-prim" d="M275.25,72.1689v339.193l-5-2.8859V69.282Z"/>
    <path class="exterior-L-prim" d="M155.25,2.887l120,69.2819V77.943L155.25,8.66Z"/>
    <path class="exterior-L-prim" d="M155.25,54.849l120,69.282v5.7729l-120-69.282Z"/>
    <path class="exterior-L-prim" d="M155.25,106.81l120,69.282v5.7741l-120-69.283Z"/>
    <path class="exterior-L-prim" d="M155.25,158.772l120,69.282v5.773l-120-69.2821Z"/>
    <path class="exterior-L-prim" d="M155.25,210.7329l120,69.2821v5.7739l-120-69.2829Z"/>
    <path class="exterior-L-prim" d="M155.25,262.6949l120,69.282V337.75l-120-69.282Z"/>
    <path class="exterior-L-prim" d="M155.25,314.656l120,69.282v5.7739l-120-69.282Z"/>
    <path class="exterior-L-prim" d="M155.25,28.8679l120,69.2821v5.773l-120-69.282Z"/>
    <path class="exterior-L-prim" d="M155.25,80.829l120,69.282v5.774l-120-69.282Z"/>
    <path class="exterior-L-prim" d="M155.25,132.791l120,69.282v5.7729l-120-69.2819Z"/>
    <path class="exterior-L-prim" d="M155.25,184.752l120,69.2819v5.7741l-120-69.282Z"/>
    <path class="exterior-L-prim" d="M155.25,236.714l120,69.282v5.7729l-120-69.282Z"/>
    <path class="exterior-L-prim" d="M155.25,288.6749l120,69.282v5.7741l-120-69.282Z"/>
    <path class="top-prim" d="M.25,430.126l160-92.376,117.5,67.839v5.7729l-157.5,90.933v2.8871L.25,435.9Z"/>
    <path class="cls-1" d="M95.25,98.15l30-17.321,20,11.547-30,17.321Z"/>
    <path class="cls-2" d="M95.25,395.485l20,11.547V109.697l-20-11.547Z"/>
    <path class="cls-1" d="M145.25,92.376V389.7119l-30,17.32V109.697Z"/>
    <path class="cls-3" d="M102.75,396.929l-2.5,1.4429V101.037l2.5,1.443Z"/>
    <path class="top-prim" d="M110.25,409.9189v-8.66l-7.5-4.33-7.5,4.33Z"/>
    <path class="cls-4" d="M110.25,106.81l-7.5-4.33V396.929l7.5,4.33Z"/>
    <path class="cls-5" d="M137.75,96.7059l-17.5,10.104v294.449l17.5-10.1039Z"/>
    <path class="top-prim" d="M142.75,394.042l-5-2.887-17.5,10.1039v5.7731Z"/>
    <path class="cls-2" d="M140.25,95.2629l-2.5,1.443V391.155l2.5,1.443Z"/>
    <path class="top-prim" d="M2.75,140.0079l115,66.3951v8.66l-115-66.395Z"/>
    <path class="top-prim" d="M2.75,191.969l115,66.396v8.66L2.75,200.63Z"/>
    <path class="top-prim" d="M2.75,243.931l115,66.3949v8.66l-115-66.3951Z"/>
    <path class="exterior-R-prim" d="M40.25,167.432l2.5,1.443,5-2.8871v-14.433l-7.5-4.33Z"/>
    <path class="exterior-R-prim" d="M40.25,193.413l2.5,1.443,5-2.887V177.5349l-7.5-4.33Z"/>
    <path class="exterior-R-prim" d="M40.25,219.3929l2.5,1.444,5-2.8869V203.516l-7.5-4.33Z"/>
    <path class="top-prim" d="M2.75,295.892l115,66.396v8.66l-115-66.395Z"/>
    <path class="top-prim" d="M2.75,347.854l115,66.395v8.66l-115-66.395Z"/>
    <path class="top-prim" d="M2.75,396.929l115,66.395v8.66l-115-66.395Z"/>
    <path class="exterior-R-prim" d="M1.5,145.059,4,146.5029l5-2.8869V129.182l-7.5-4.33Z"/>
    <path class="exterior-R-prim" d="M1.5,171.04,4,172.484l5-2.8871V155.163l-7.5-4.33Z"/>
    <path class="exterior-R-prim" d="M1.5,197.021,4,198.464l5-2.886V181.1439l-7.5-4.33Z"/>
    <path class="top-prim" d="M2.75,114.027l115,66.395v8.66L2.75,122.687Z"/>
    <path class="top-prim" d="M2.75,165.989l115,66.3949v8.66l-115-66.395Z"/>
    <path class="exterior-R-prim" d="M79,163.823l2.5,1.444,5-2.887V147.9459l-7.5-4.33Z"/>
    <path class="exterior-R-prim" d="M40.25,141.4509l2.5,1.443,5-2.886V125.574l-7.5-4.33Z"/>
    <path class="exterior-R-prim" d="M79,189.804l2.5,1.4429,5-2.8859V173.927l-7.5-4.33Z"/>
    <path class="exterior-R-prim" d="M79,215.7849l2.5,1.4431,5-2.8861V199.908l-7.5-4.33Z"/>
    <path class="exterior-R-prim" d="M79,241.766l2.5,1.443,5-2.887V225.8889L79,221.558Z"/>
    <path class="top-prim" d="M2.75,217.95l115,66.395v8.66L2.75,226.61Z"/>
    <path class="exterior-R-prim" d="M40.25,245.374l2.5,1.443,5-2.886V229.4969l-7.5-4.33Z"/>
    <path class="exterior-R-prim" d="M40.25,271.355l2.5,1.443,5-2.886V255.478l-7.5-4.33Z"/>
    <path class="exterior-R-prim" d="M1.5,119.079,4,120.522l5-2.887V103.202L1.5,98.871Z"/>
    <path class="exterior-R-prim" d="M40.25,297.3359l2.5,1.443,5-2.8869V281.459l-7.5-4.3311Z"/>
    <path class="exterior-R-prim" d="M40.25,323.3159l2.5,1.4441,5-2.8871V307.439l-7.5-4.33Z"/>
    <path class="top-prim" d="M2.75,269.911l115,66.396v8.66L2.75,278.572Z"/>
    <path class="top-prim" d="M2.75,321.8729l115,66.395v8.6611l-115-66.396Z"/>
    <path class="top-prim" d="M2.75,373.834l115,66.396v8.66l-115-66.395Z"/>
    <path class="exterior-R-prim" d="M40.25,349.297l2.5,1.444,5-2.887V333.42l-7.5-4.33Z"/>
    <path class="exterior-R-prim" d="M40.25,375.278l2.5,1.4429,5-2.8859V359.401l-7.5-4.33Z"/>
    <path class="exterior-R-prim" d="M40.25,401.2589l2.5,1.4431,5-2.8871V385.382l-7.5-4.331Z"/>
    <path class="exterior-R-prim" d="M40.25,427.239l2.5,1.444,5-2.887V411.3619l-7.5-4.33Z"/>
    <path class="exterior-R-prim" d="M40.25,453.22l2.5,1.4439,5-2.8869V437.343l-7.5-4.33Z"/>
    <path class="top-prim" d="M277.75,116.9139l-155,89.4891v8.66l155-89.489Z"/>
    <path class="top-prim" d="M277.75,168.875l-155,89.489v8.661l155-89.49Z"/>
    <path class="exterior-R-prim" d="M1.5,223.002,4,224.4449l5-2.8869V207.125l-7.5-4.3311Z"/>
    <path class="exterior-R-prim" d="M1.5,248.9829,4,250.426l5-2.8871V233.105l-7.5-4.33Z"/>
    <path class="exterior-R-prim" d="M1.5,274.963,4,276.407l5-2.887V259.0859l-7.5-4.33Z"/>
    <path class="exterior-R-prim" d="M1.5,300.944,4,302.387l5-2.886V285.067l-7.5-4.33Z"/>
    <path class="exterior-R-prim" d="M1.5,326.9249l2.5,1.443,5-2.8869V311.048l-7.5-4.33Z"/>
    <path class="exterior-R-prim" d="M1.5,352.906,4,354.349l5-2.8871V337.028l-7.5-4.33Z"/>
    <path class="exterior-R-prim" d="M1.5,378.886,4,380.33l5-2.887V363.0089l-7.5-4.33Z"/>
    <path class="exterior-R-prim" d="M1.5,404.8669,4,406.31l5-2.8859V388.99l-7.5-4.33Z"/>
    <path class="exterior-R-prim" d="M1.5,430.848,4,432.291l5-2.8871v-14.433l-7.5-4.33Z"/>
    <path class="top-prim" d="M277.75,220.8369l-155,89.489v8.66l155-89.4891Z"/>
    <path class="top-prim" d="M277.75,272.798l-155,89.489v8.661l155-89.49Z"/>
    <path class="top-prim" d="M277.75,324.76l-155,89.489v8.66l155-89.489Z"/>
    <path class="exterior-R-prim" d="M79,267.746l2.5,1.4439,5-2.8869V251.869l-7.5-4.33Z"/>
    <path class="exterior-R-prim" d="M79,293.7269l2.5,1.4441,5-2.8871V277.85L79,273.52Z"/>
    <path class="exterior-R-prim" d="M79,319.708l2.5,1.443,5-2.886V303.8309l-7.5-4.33Z"/>
    <path class="exterior-R-prim" d="M79,345.689l2.5,1.443,5-2.887V329.812L79,325.481Z"/>
    <path class="top-prim" d="M277.75,376.7209l-155,89.49v8.66l155-89.49Z"/>
    <path class="top-prim" d="M277.75,90.933l-155,89.489v8.66l155-89.4889Z"/>
    <path class="top-prim" d="M277.75,142.8939l-155,89.49v8.66l155-89.489Z"/>
    <path class="exterior-R-prim" d="M79,371.6689l2.5,1.444,5-2.8869V355.792l-7.5-4.33Z"/>
    <path class="exterior-R-prim" d="M79,397.65l2.5,1.444,5-2.8871v-14.434l-7.5-4.33Z"/>
    <path class="exterior-R-prim" d="M79,423.631l2.5,1.443,5-2.886V407.754l-7.5-4.33Z"/>
    <path class="exterior-R-prim" d="M79,449.6119l2.5,1.443,5-2.8869V433.735L79,429.4039Z"/>
    <path class="exterior-R-prim" d="M79,475.593l2.5,1.443,5-2.8871V459.715l-7.5-4.33Z"/>
    <path class="top-prim" d="M277.75,194.856l-155,89.489v8.66l155-89.489Z"/>
    <path class="top-prim" d="M277.75,246.817l-155,89.49v8.66l155-89.4889Z"/>
    <path class="top-prim" d="M277.75,298.7789l-155,89.489v8.6611l155-89.49Z"/>
    <path class="top-prim" d="M277.75,350.741l-155,89.489v8.66l155-89.489Z"/>
    <path id="anchor_0_161.639_280.27" class="top-dark" d="M.25,95.2629V92.376L160.25,0l120,69.282v2.8869l-160,92.376Z"/>
    <path class="exterior-L-prim" d="M277.75,96.7059l-2.5,1.4441-5-2.8871V80.829l7.5-4.33Z"/>
    <path class="exterior-L-prim" d="M277.75,122.687l-2.5,1.444-5-2.887V106.81l7.5-4.33Z"/>
    <path class="exterior-L-prim" d="M277.75,148.668l-2.5,1.443-5-2.886V132.791l7.5-4.33Z"/>
    <path class="exterior-L-prim" d="M277.75,174.6489l-2.5,1.443-5-2.8869V158.772l7.5-4.3311Z"/>
    <path class="exterior-L-prim" d="M277.75,200.629l-2.5,1.444-5-2.8871V184.752l7.5-4.33Z"/>
    <path class="exterior-L-prim" d="M277.75,226.61l-2.5,1.444-5-2.887V210.7329l7.5-4.33Z"/>
    <path class="exterior-L-prim" d="M277.75,252.5909l-2.5,1.443-5-2.886V236.714l7.5-4.33Z"/>
    <path class="exterior-L-prim" d="M277.75,278.572l-2.5,1.443-5-2.8871v-14.433l7.5-4.3309Z"/>
    <path class="exterior-L-prim" d="M277.75,304.552l-2.5,1.444-5-2.887V288.6749l7.5-4.33Z"/>
    <path class="exterior-L-prim" d="M277.75,330.533l-2.5,1.4439-5-2.8869V314.656l7.5-4.33Z"/>
    <path class="exterior-L-prim" d="M277.75,355.792l-2.5,1.444-5-2.887V339.9149l7.5-4.33Z"/>
    <path class="exterior-L-prim" d="M277.75,382.495l-2.5,1.443-5-2.887V366.6179l7.5-4.33Z"/>
    <path class="exterior-L-prim" d="M277.75,408.476l-2.5,1.4429-5-2.8869V392.598l7.5-4.33Z"/>
    <path class="exterior-L-prim" d="M200.25,141.4509l-2.5,1.443-5-2.886V125.574l7.5-4.33Z"/>
    <path class="exterior-L-prim" d="M200.25,167.432l-2.5,1.443-5-2.8871v-14.433l7.5-4.33Z"/>
    <path class="exterior-L-prim" d="M200.25,192.6909l-2.5,1.443-5-2.886V176.814l7.5-4.33Z"/>
    <path class="exterior-L-prim" d="M200.25,219.3929l-2.5,1.444-5-2.8869V203.516l7.5-4.33Z"/>
    <path class="exterior-L-prim" d="M200.25,245.374l-2.5,1.443-5-2.886V229.4969l7.5-4.33Z"/>
    <path class="exterior-L-prim" d="M200.25,271.355l-2.5,1.443-5-2.887V255.478l7.5-4.33Z"/>
    <path class="exterior-L-prim" d="M200.25,297.3359l-2.5,1.443-5-2.8869V281.459l7.5-4.3311Z"/>
    <path class="exterior-L-prim" d="M200.25,323.3159l-2.5,1.4441-5-2.8871V307.439l7.5-4.33Z"/>
    <path class="exterior-L-prim" d="M200.25,349.297l-2.5,1.443-5-2.886V333.42l7.5-4.33Z"/>
    <path class="exterior-L-prim" d="M200.25,375.278l-2.5,1.4429-5-2.8859V359.401l7.5-4.33Z"/>
    <path class="exterior-L-prim" d="M200.25,401.2589l-2.5,1.4431-5-2.8871V385.382l7.5-4.331Z"/>
    <path class="exterior-L-prim" d="M200.25,427.239l-2.5,1.444-5-2.887V411.3619l7.5-4.33Z"/>
    <path class="exterior-L-prim" d="M200.25,453.22l-2.5,1.4439-5-2.8869V437.343l7.5-4.33Z"/>
    <path class="exterior-L-prim" d="M239,119.079l-2.5,1.443-5-2.887V103.202l7.5-4.331Z"/>
    <path class="exterior-L-prim" d="M239,145.059l-2.5,1.4439-5-2.8869V129.182l7.5-4.33Z"/>
    <path class="exterior-L-prim" d="M239,171.04l-2.5,1.4441-5-2.8871V155.163l7.5-4.33Z"/>
    <path class="exterior-L-prim" d="M239,197.021l-2.5,1.443-5-2.886V181.1439l7.5-4.33Z"/>
    <path class="exterior-L-prim" d="M239,223.002l-2.5,1.4429-5-2.8869V207.125l7.5-4.3311Z"/>
    <path class="exterior-L-prim" d="M239,248.9829l-2.5,1.4431-5-2.8871V233.105l7.5-4.33Z"/>
    <path class="exterior-L-prim" d="M239,274.963l-2.5,1.444-5-2.887V259.0859l7.5-4.33Z"/>
    <path class="exterior-L-prim" d="M239,300.944l-2.5,1.443-5-2.886V285.067l7.5-4.33Z"/>
    <path class="exterior-L-prim" d="M239,326.9249l-2.5,1.443-5-2.8869V311.048l7.5-4.33Z"/>
    <path class="exterior-L-prim" d="M239,352.906l-2.5,1.443-5-2.8871v-14.433l7.5-4.3309Z"/>
    <path class="exterior-L-prim" d="M239,378.1649l-2.5,1.443-5-2.887V362.288l7.5-4.3311Z"/>
    <path class="exterior-L-prim" d="M239,404.8669l-2.5,1.443-5-2.8859V388.99l7.5-4.33Z"/>
    <path class="exterior-L-prim" d="M239,430.848l-2.5,1.443-5-2.886V414.9709l7.5-4.33Z"/>
    <path class="exterior-L-prim" d="M161.5,163.823l-2.5,1.444-5-2.887V147.9459l7.5-4.33Z"/>
    <path class="exterior-L-prim" d="M161.5,189.804l-2.5,1.4429-5-2.8859V173.927l7.5-4.33Z"/>
    <path class="exterior-L-prim" d="M161.5,215.7849,159,217.228l-5-2.8861V199.908l7.5-4.33Z"/>
    <path class="exterior-L-prim" d="M161.5,241.766l-2.5,1.443-5-2.887V225.8889l7.5-4.3309Z"/>
    <path class="exterior-L-prim" d="M161.5,267.746,159,269.19l-5-2.8869V251.869l7.5-4.33Z"/>
    <path class="exterior-L-prim" d="M161.5,293.7269,159,295.171l-5-2.8871V277.85l7.5-4.33Z"/>
    <path class="exterior-L-prim" d="M161.5,319.708l-2.5,1.443-5-2.886V303.8309l7.5-4.33Z"/>
    <path class="exterior-L-prim" d="M161.5,344.245l-2.5,1.444-5-2.887V328.3679l7.5-4.33Z"/>
    <path class="exterior-L-prim" d="M161.5,371.6689l-2.5,1.444-5-2.8869V355.792l7.5-4.33Z"/>
    <path class="exterior-L-prim" d="M161.5,397.65l-2.5,1.444-5-2.8871v-14.434l7.5-4.33Z"/>
    <path class="exterior-L-prim" d="M161.5,423.631l-2.5,1.443-5-2.886V407.754l7.5-4.33Z"/>
    <path class="exterior-L-prim" d="M161.5,449.6119l-2.5,1.443-5-2.8869V433.735l7.5-4.3311Z"/>
    <path class="exterior-L-prim" d="M161.5,475.593l-2.5,1.443-5-2.8871V459.715l7.5-4.33Z"/>
    <path class="exterior-L-prim" d="M4,94.541l.25,343.668-4-2.309L0,92.2319Z"/>
    <path class="exterior-L-prim" d="M42.75,116.9139V460.437l-5-2.8871V114.027Z"/>
    <path class="exterior-L-prim" d="M81.5,139.286V482.809l-5-2.886V136.3989Z"/>
    <path class="exterior-R-prim" d="M120.25,161.658l-2.5-1.443V503.7379l2.5,1.4441,5-2.8871V158.772Z"/>
    <path class="exterior-R-prim" d="M197.75,116.9139V460.437l5-2.8871V114.027Z"/>
    <path class="exterior-R-prim" d="M275.25,72.1689V415.692l5-2.886V69.282Z"/>
    <path class="exterior-R-prim" d="M159,139.286V482.809l5-2.886V136.3989Z"/>
    <path class="exterior-R-prim" d="M236.5,94.541V438.0649l5-2.8869V91.655Z"/>
    <path class="exterior-L-prim" d="M120.25,161.658V500.8519l-5-2.8869V158.772Z"/>
    <path class="exterior-L-prim" d="M.25,92.376l120,69.282v5.774L.25,98.15Z"/>
    <path class="exterior-L-prim" d="M.25,144.338l120,69.282v5.7729L.25,150.111Z"/>
    <path class="exterior-L-prim" d="M.25,196.299l120,69.2819v5.7741L.25,202.073Z"/>
    <path class="exterior-L-prim" d="M.25,248.261l120,69.282v5.7729l-120-69.282Z"/>
    <path class="exterior-L-prim" d="M.25,300.2219l120,69.2821v5.774L.25,305.996Z"/>
    <path class="exterior-L-prim" d="M.25,352.184l120,69.2819v5.7731L.25,357.9569Z"/>
    <path class="exterior-L-prim" d="M.25,404.145l120,69.282v5.7739l-120-69.282Z"/>
    <path class="exterior-L-prim" d="M.25,118.3569l120,69.282v5.7741L.25,124.13Z"/>
    <path class="exterior-L-prim" d="M.25,170.319l120,69.282v5.773L.25,176.0919Z"/>
    <path class="exterior-L-prim" d="M.25,222.28l120,69.282v5.7739L.25,228.054Z"/>
    <path class="exterior-L-prim" d="M.25,274.2419l120,69.282v5.7731L.25,280.015Z"/>
    <path class="exterior-L-prim" d="M.25,326.203l120,69.282v5.7739l-120-69.282Z"/>
    <path class="exterior-L-prim" d="M.25,430.126l120,69.282v5.774L.25,435.9Z"/>
    <path class="exterior-L-prim" d="M.25,378.1649l120,69.2821v5.773L.25,383.938Z"/>
    <path class="exterior-R-prim" d="M280.25,69.282l-160,92.376v5.774l160-92.376Z"/>
    <path class="exterior-R-prim" d="M280.25,121.244l-160,92.376v5.7729l160-92.3759Z"/>
    <path class="exterior-R-prim" d="M280.25,173.205l-160,92.3759v5.7741l160-92.376Z"/>
    <path class="exterior-R-prim" d="M280.25,225.167l-160,92.376v5.7729l160-92.376Z"/>
    <path class="exterior-R-prim" d="M280.25,277.1279l-160,92.3761v5.774l160-92.376Z"/>
    <path class="exterior-R-prim" d="M280.25,329.09l-160,92.3759v5.7731l160-92.3761Z"/>
    <path class="exterior-R-prim" d="M280.25,381.051l-160,92.376v5.7739l160-92.3759Z"/>
    <path class="exterior-R-prim" d="M280.25,95.2629l-160,92.376v5.7741l160-92.377Z"/>
    <path class="exterior-R-prim" d="M280.25,147.225l-160,92.376v5.773l160-92.3761Z"/>
    <path class="exterior-R-prim" d="M280.25,199.1859l-160,92.3761v5.7739l160-92.3759Z"/>
    <path class="exterior-R-prim" d="M280.25,251.1479l-160,92.376v5.7731l160-92.376Z"/>
    <path class="exterior-R-prim" d="M280.25,303.109l-160,92.376v5.7739l160-92.376Z"/>
    <path class="exterior-R-prim" d="M280.25,407.032l-160,92.376v5.774l160-92.376Z"/>
    <path class="exterior-R-prim" d="M280.25,355.0709l-160,92.3761v5.773l160-92.376Z"/>
  </g>
</svg>
