<svg id="Layer_1" data-name="Layer 1" xmlns="http://www.w3.org/2000/svg" viewBox="0 0 280.27 583.13">
  <defs>
    <style>
      .top-prim {
        fill: #dd8987;
      }

      .exterior-R-prim {
        fill: #d15752;
      }

      .window-R-prim {
        fill: #bd9563;
      }

      .exterior-L-prim {
        fill: #73302f;
      }

      .window-L-prim {
        fill: #4d3b25;
      }
    </style>
  </defs>
  <title>Artboard 2</title>
  <g id="Group">
    <path id="anchor-01_421.47" data-name="anchor-01 421.47" class="top-prim" d="M0,92,160.2,0,280.27,69.63l-160.19,92Z"/>
    <path id="Path" class="exterior-R-prim" d="M120.2,161.66V583.13l160-92.38V69.29Z"/>
    <g id="Group-2">
      <path id="Path-2" class="window-R-prim" d="M125.2,164.55,159,145.06v20.21l-33.8,19.49Z"/>
      <path id="Path-3" class="window-R-prim" d="M164,142.18l33.75-19.49V142.9L164,162.38Z"/>
      <path id="Path-4" class="window-R-prim" d="M202.7,119.8l33.75-19.48v20.21L202.7,140Z"/>
      <path id="Path-5" class="window-R-prim" d="M241.45,97.43,275.2,78V98.2l-33.75,19.49Z"/>
      <path id="Path-6" class="window-R-prim" d="M125.2,268.51,159,249v20.2l-33.8,19.52Z"/>
      <path id="Path-7" class="window-R-prim" d="M164,246.14l33.75-19.49v20.21L164,266.35Z"/>
      <path id="Path-8" class="window-R-prim" d="M202.7,223.77l33.75-19.49v20.21L202.7,244Z"/>
      <path id="Path-9" class="window-R-prim" d="M241.45,201.4l33.75-19.49v20.21L241.45,221.6Z"/>
      <path id="Path-10" class="window-R-prim" d="M125.2,372.4,159,352.91v20.21L125.2,392.6Z"/>
      <path id="Path-11" class="window-R-prim" d="M164,350l33.75-19.48v20.2L164,370.23Z"/>
      <path id="Path-12" class="window-R-prim" d="M202.7,327.65l33.75-19.49v20.21L202.7,347.86Z"/>
      <path id="Path-13" class="window-R-prim" d="M241.45,305.28l33.75-19.49V306l-33.75,19.49Z"/>
      <path id="Path-14" class="window-R-prim" d="M125.2,476.32,159,456.83V477l-33.8,19.53Z"/>
      <path id="Path-15" class="window-R-prim" d="M164,454l33.75-19.49v20.21L164,474.15Z"/>
      <path id="Path-16" class="window-R-prim" d="M202.7,431.57l33.75-19.48V432.3L202.7,451.78Z"/>
      <path id="Path-17" class="window-R-prim" d="M241.45,409.2l33.75-19.48v20.2l-33.75,19.49Z"/>
      <path id="Path-18" class="window-R-prim" d="M125.2,216.51,159,197v20.21l-33.8,19.51Z"/>
      <path id="Path-19" class="window-R-prim" d="M164,194.14l33.75-19.49v20.21L164,214.35Z"/>
      <path id="Path-20" class="window-R-prim" d="M202.7,171.77l33.75-19.49v20.21L202.7,192Z"/>
      <path id="Path-21" class="window-R-prim" d="M241.45,149.39l33.75-19.48v20.21L241.45,169.6Z"/>
      <path id="Path-22" class="window-R-prim" d="M125.2,320.47,159,301v20.2l-33.8,19.48Z"/>
      <path id="Path-23" class="window-R-prim" d="M164,298.1l33.75-19.48v20.2L164,318.31Z"/>
      <path id="Path-24" class="window-R-prim" d="M202.7,275.73l33.75-19.49v20.21L202.7,295.94Z"/>
      <path id="Path-25" class="window-R-prim" d="M241.45,253.36l33.75-19.49v20.21l-33.75,19.48Z"/>
      <path id="Path-26" class="window-R-prim" d="M125.2,424.36,159,404.87v20.21l-33.8,19.48Z"/>
      <path id="Path-27" class="window-R-prim" d="M164,402l33.7-19.5v20.21L164,422.19Z"/>
      <path id="Path-28" class="window-R-prim" d="M202.7,379.61l33.75-19.48v20.2L202.7,399.82Z"/>
      <path id="Path-29" class="window-R-prim" d="M241.45,357.24l33.75-19.49V358l-33.75,19.49Z"/>
      <path id="Path-30" class="window-R-prim" d="M125.2,528.28,159,508.79V529l-33.8,19.49Z"/>
      <path id="Path-31" class="window-R-prim" d="M164,505.91l33.75-19.49v20.21L164,526.11Z"/>
      <path id="Path-32" class="window-R-prim" d="M202.7,483.53l33.75-19.48v20.21L202.7,503.74Z"/>
      <path id="Path-33" class="window-R-prim" d="M241.45,461.16l33.75-19.48v20.2l-33.75,19.49Z"/>
      <path id="Path-34" class="window-R-prim" d="M125.2,554.26,159,534.77V555l-33.8,19.47Z"/>
      <path id="Path-35" class="window-R-prim" d="M164,531.89l33.7-19.49v20.21L164,552.1Z"/>
      <path id="Path-36" class="window-R-prim" d="M202.7,509.52,236.45,490v20.21L202.7,529.72Z"/>
      <path id="Path-37" class="window-R-prim" d="M241.45,487.14l33.75-19.48v20.21l-33.75,19.48Z"/>
      <path id="Path-38" class="window-R-prim" d="M125.2,190.53,159,171v20.21l-33.8,19.53Z"/>
      <path id="Path-39" class="window-R-prim" d="M164,168.16l33.75-19.49v20.21L164,188.36Z"/>
      <path id="Path-40" class="window-R-prim" d="M202.7,145.79l33.75-19.49v20.21L202.7,166Z"/>
      <path id="Path-41" class="window-R-prim" d="M241.45,123.41l33.75-19.48v20.2l-33.75,19.49Z"/>
      <path id="Path-42" class="window-R-prim" d="M125.2,294.49,159,275v20.21L125.2,314.7Z"/>
      <path id="Path-43" class="window-R-prim" d="M164,272.12l33.75-19.48v20.2L164,292.33Z"/>
      <path id="Path-44" class="window-R-prim" d="M202.7,249.75l33.75-19.49v20.21L202.7,270Z"/>
      <path id="Path-45" class="window-R-prim" d="M241.45,227.38l33.75-19.49V228.1l-33.75,19.48Z"/>
      <path id="Path-46" class="window-R-prim" d="M125.2,398.38,159,378.89V399.1l-33.8,19.48Z"/>
      <path id="Path-47" class="window-R-prim" d="M164,376l33.75-19.48v20.21L164,396.21Z"/>
      <path id="Path-48" class="window-R-prim" d="M202.7,353.63l33.75-19.48v20.2L202.7,373.84Z"/>
      <path id="Path-49" class="window-R-prim" d="M241.45,331.26l33.75-19.49V332l-33.75,19.49Z"/>
      <path id="Path-50" class="window-R-prim" d="M125.2,502.3,159,482.81V503l-33.8,19.51Z"/>
      <path id="Path-51" class="window-R-prim" d="M164,479.93l33.75-19.49v20.21L164,500.13Z"/>
      <path id="Path-52" class="window-R-prim" d="M202.7,457.55l33.75-19.48v20.21L202.7,477.76Z"/>
      <path id="Path-53" class="window-R-prim" d="M241.45,435.18,275.2,415.7v20.2l-33.75,19.49Z"/>
      <path id="Path-54" class="window-R-prim" d="M125.2,242.49,159,223v20.2l-33.8,19.5Z"/>
      <path id="Path-55" class="window-R-prim" d="M164,220.12l33.75-19.49v20.21L164,240.33Z"/>
      <path id="Path-56" class="window-R-prim" d="M202.7,197.75l33.75-19.49v20.21L202.7,218Z"/>
      <path id="Path-57" class="window-R-prim" d="M241.45,175.37l33.75-19.48V176.1l-33.75,19.48Z"/>
      <path id="Path-58" class="window-R-prim" d="M125.2,346.46,159,327v20.21l-33.8,19.45Z"/>
      <path id="Path-59" class="window-R-prim" d="M164,324.08l33.7-19.48v20.2L164,344.29Z"/>
      <path id="Path-60" class="window-R-prim" d="M202.7,301.71l33.75-19.49v20.21L202.7,321.92Z"/>
      <path id="Path-61" class="window-R-prim" d="M241.45,279.34l33.75-19.49v20.21l-33.75,19.49Z"/>
      <path id="Path-62" class="window-R-prim" d="M125.2,450.34,159,430.85v20.21l-33.8,19.48Z"/>
      <path id="Path-63" class="window-R-prim" d="M164,428l33.75-19.48v20.21L164,448.17Z"/>
      <path id="Path-64" class="window-R-prim" d="M202.7,405.59l33.75-19.48v20.2L202.7,425.8Z"/>
      <path id="Path-65" class="window-R-prim" d="M241.45,383.22l33.75-19.49v20.21l-33.75,19.49Z"/>
    </g>
    <path id="Path-66" class="exterior-L-prim" d="M120.2,161.66V583.13L.2,513.85V92.38Z"/>
    <path id="Path-67" class="top-prim" d="M159,165.27l-5-2.89L125.2,179v5.78Z"/>
    <path id="Path-68" class="top-prim" d="M236.45,120.53l-5-2.89-28.75,16.6V140Z"/>
    <path id="Path-69" class="top-prim" d="M197.7,142.9l-5-2.89L164,156.61v5.77Z"/>
    <path id="Path-70" class="top-prim" d="M275.2,98.15l-5-2.88-28.75,16.6v5.77Z"/>
    <path id="Path-71" class="exterior-L-prim" d="M270.2,95.27V80.83l5-2.88v20.2Z"/>
    <path id="Path-72" class="exterior-L-prim" d="M192.7,140V125.58l5-2.89V142.9Z"/>
    <path id="Path-73" class="exterior-L-prim" d="M231.45,117.64V103.21l5-2.89v20.21Z"/>
    <path id="Path-74" class="exterior-L-prim" d="M154,162.38V148l5-2.89v20.21Z"/>
    <g id="Group-3">
      <path id="Path-75" class="window-L-prim" d="M115.2,164.55,81.45,145.06v20.21l33.75,19.49Z"/>
      <path id="Path-76" class="window-L-prim" d="M76.45,142.18,42.7,122.69V142.9l33.75,19.48Z"/>
      <path id="Path-77" class="window-L-prim" d="M37.7,119.8,4,100.32v20.21L37.7,140Z"/>
      <path id="Path-78" class="top-prim" d="M81.45,165.27l5-2.89L115.2,179v5.78Z"/>
      <path id="Path-79" class="top-prim" d="M4,120.53l5-2.89,28.75,16.6V140Z"/>
      <path id="Path-80" class="top-prim" d="M42.7,142.9l5-2.89,28.75,16.6v5.77Z"/>
      <path id="Path-81" class="exterior-R-prim" d="M47.7,140V125.58l-5-2.89V142.9Z"/>
      <path id="Path-82" class="exterior-R-prim" d="M9,117.64V103.21l-5-2.89v20.21Z"/>
      <path id="Path-83" class="exterior-R-prim" d="M86.45,162.38V148l-5-2.89v20.21Z"/>
    </g>
    <g id="Group-4">
      <path id="Path-84" class="window-L-prim" d="M115.2,268.51,81.45,249v20.2l33.75,19.49Z"/>
      <path id="Path-85" class="window-L-prim" d="M76.45,246.14,42.7,226.65v20.21l33.75,19.49Z"/>
      <path id="Path-86" class="window-L-prim" d="M37.7,223.77,4,204.28v20.21L37.7,244Z"/>
      <path id="Path-87" class="top-prim" d="M81.45,269.23l5-2.88L115.2,283v5.77Z"/>
      <path id="Path-88" class="top-prim" d="M4,224.49l5-2.89,28.7,16.6V244Z"/>
      <path id="Path-89" class="top-prim" d="M42.7,246.86l5-2.88,28.75,16.59v5.78Z"/>
      <path id="Path-90" class="exterior-R-prim" d="M47.7,244V229.54l-5-2.89v20.21Z"/>
      <path id="Path-91" class="exterior-R-prim" d="M9,221.6V207.17l-5-2.89v20.21Z"/>
      <path id="Path-92" class="exterior-R-prim" d="M86.45,266.35V251.91l-5-2.88v20.2Z"/>
    </g>
    <g id="Group-5">
      <path id="Path-93" class="window-L-prim" d="M115.2,372.39,81.45,352.91v20.21L115.2,392.6Z"/>
      <path id="Path-94" class="window-L-prim" d="M76.45,350,42.7,330.54v20.2l33.75,19.49Z"/>
      <path id="Path-95" class="window-L-prim" d="M37.7,327.65,4,308.16v20.21l33.7,19.49Z"/>
      <path id="Path-96" class="top-prim" d="M81.45,373.12l5-2.89,28.75,16.6v5.77Z"/>
      <path id="Path-97" class="top-prim" d="M4,328.37l5-2.88,28.7,16.59v5.78Z"/>
      <path id="Path-98" class="top-prim" d="M42.7,350.74l5-2.88,28.75,16.6v5.77Z"/>
      <path id="Path-99" class="exterior-R-prim" d="M47.7,347.86V333.42l-5-2.88v20.2Z"/>
      <path id="Path-100" class="exterior-R-prim" d="M9,325.49V311.05l-5-2.89v20.21Z"/>
      <path id="Path-101" class="exterior-R-prim" d="M86.45,370.23V355.8l-5-2.89v20.21Z"/>
    </g>
    <g id="Group-6">
      <path id="Path-102" class="window-L-prim" d="M115.2,476.32,81.45,456.83V477l33.75,19.49Z"/>
      <path id="Path-103" class="window-L-prim" d="M76.45,454,42.7,434.46v20.21l33.75,19.48Z"/>
      <path id="Path-104" class="window-L-prim" d="M37.7,431.57,4,412.09V432.3l33.7,19.48Z"/>
      <path id="Path-105" class="top-prim" d="M81.45,477l5-2.89,28.75,16.6v5.78Z"/>
      <path id="Path-106" class="top-prim" d="M4,432.3l5-2.89L37.7,446v5.77Z"/>
      <path id="Path-107" class="top-prim" d="M42.7,454.67l5-2.89,28.75,16.6v5.77Z"/>
      <path id="Path-108" class="exterior-R-prim" d="M47.7,451.78V437.35l-5-2.89v20.21Z"/>
      <path id="Path-109" class="exterior-R-prim" d="M9,429.41V415l-5-2.88V432.3Z"/>
      <path id="Path-110" class="exterior-R-prim" d="M86.45,474.15V459.72l-5-2.89V477Z"/>
    </g>
    <g id="Group-7">
      <path id="Path-111" class="window-L-prim" d="M115.2,216.51,81.45,197v20.21L115.2,236.7Z"/>
      <path id="Path-112" class="window-L-prim" d="M76.45,194.14,42.7,174.65v20.21l33.75,19.49Z"/>
      <path id="Path-113" class="window-L-prim" d="M37.7,171.77,4,152.28v20.21L37.7,192Z"/>
      <path id="Path-114" class="top-prim" d="M81.45,217.23l5-2.88,28.75,16.59v5.78Z"/>
      <path id="Path-115" class="top-prim" d="M4,172.49l5-2.89,28.7,16.6V192Z"/>
      <path id="Path-116" class="top-prim" d="M42.7,194.86l5-2.89,28.75,16.6v5.78Z"/>
      <path id="Path-117" class="exterior-R-prim" d="M47.7,192V177.54l-5-2.89v20.21Z"/>
      <path id="Path-118" class="exterior-R-prim" d="M9,169.6V155.17l-5-2.89v20.21Z"/>
      <path id="Path-119" class="exterior-R-prim" d="M86.45,214.35V199.91l-5-2.89v20.21Z"/>
    </g>
    <g id="Group-8">
      <path id="Path-120" class="window-L-prim" d="M115.2,320.47,81.45,301v20.2l33.75,19.48Z"/>
      <path id="Path-121" class="window-L-prim" d="M76.45,298.1,42.7,278.62v20.2l33.75,19.49Z"/>
      <path id="Path-122" class="window-L-prim" d="M37.7,275.73,4,256.24v20.21l33.7,19.49Z"/>
      <path id="Path-123" class="top-prim" d="M81.45,321.2l5-2.89,28.75,16.6v5.77Z"/>
      <path id="Path-124" class="top-prim" d="M4,276.45l5-2.89,28.75,16.6v5.78Z"/>
      <path id="Path-125" class="top-prim" d="M42.7,298.82l5-2.88,28.75,16.6v5.77Z"/>
      <path id="Path-126" class="exterior-R-prim" d="M47.7,295.94V281.5l-5-2.88v20.2Z"/>
      <path id="Path-127" class="exterior-R-prim" d="M9,273.56V259.13l-5-2.89v20.21Z"/>
      <path id="Path-128" class="exterior-R-prim" d="M86.45,318.31V303.88l-5-2.89V321.2Z"/>
    </g>
    <g id="Group-9">
      <path id="Path-129" class="window-L-prim" d="M115.2,424.36,81.45,404.87v20.21l33.75,19.48Z"/>
      <path id="Path-130" class="window-L-prim" d="M76.45,402,42.7,382.5v20.21l33.75,19.48Z"/>
      <path id="Path-131" class="window-L-prim" d="M37.7,379.61,4,360.13v20.2l33.7,19.49Z"/>
      <path id="Path-132" class="top-prim" d="M81.45,425.08l5-2.89,28.75,16.6v5.77Z"/>
      <path id="Path-133" class="top-prim" d="M4,380.33l5-2.88,28.75,16.6v5.77Z"/>
      <path id="Path-134" class="top-prim" d="M42.7,402.71l5-2.89,28.75,16.6v5.77Z"/>
      <path id="Path-135" class="exterior-R-prim" d="M47.7,399.82V385.39l-5-2.89v20.21Z"/>
      <path id="Path-136" class="exterior-R-prim" d="M9,377.45V363l-5-2.88v20.2Z"/>
      <path id="Path-137" class="exterior-R-prim" d="M86.45,422.19V407.76l-5-2.89v20.21Z"/>
    </g>
    <g id="Group-10">
      <path id="Path-138" class="window-L-prim" d="M115.2,528.28,81.45,508.79V529l33.75,19.49Z"/>
      <path id="Path-139" class="window-L-prim" d="M76.45,505.91,42.7,486.42v20.21l33.75,19.48Z"/>
      <path id="Path-140" class="window-L-prim" d="M37.7,483.53,4,464.05v20.21l33.7,19.48Z"/>
      <path id="Path-141" class="top-prim" d="M81.45,529l5-2.89,28.75,16.6v5.78Z"/>
      <path id="Path-142" class="top-prim" d="M4,484.26l5-2.89L37.7,498v5.77Z"/>
      <path id="Path-143" class="top-prim" d="M42.7,506.63l5-2.89,28.75,16.6v5.77Z"/>
      <path id="Path-144" class="exterior-R-prim" d="M47.7,503.74V489.31l-5-2.89v20.21Z"/>
      <path id="Path-145" class="exterior-R-prim" d="M9,481.37V466.94l-5-2.89v20.21Z"/>
      <path id="Path-146" class="exterior-R-prim" d="M86.45,526.11V511.68l-5-2.89V529Z"/>
    </g>
    <g id="Group-11">
      <path id="Path-147" class="window-L-prim" d="M115.2,554.26,81.45,534.77V555l33.75,19.49Z"/>
      <path id="Path-148" class="window-L-prim" d="M76.45,531.89,42.7,512.4v20.21L76.45,552.1Z"/>
      <path id="Path-149" class="window-L-prim" d="M37.7,509.52,4,490v20.21l33.7,19.51Z"/>
      <path id="Path-150" class="top-prim" d="M81.45,555l5-2.88,28.75,16.59v5.78Z"/>
      <path id="Path-151" class="top-prim" d="M4,510.24l5-2.89L37.7,524v5.77Z"/>
      <path id="Path-152" class="top-prim" d="M42.7,532.61l5-2.89,28.75,16.6v5.78Z"/>
      <path id="Path-153" class="exterior-R-prim" d="M47.7,529.72V515.29l-5-2.89v20.21Z"/>
      <path id="Path-154" class="exterior-R-prim" d="M9,507.35V492.92L4,490v20.21Z"/>
      <path id="Path-155" class="exterior-R-prim" d="M86.45,552.1V537.66l-5-2.89V555Z"/>
    </g>
    <g id="Group-12">
      <path id="Path-156" class="window-L-prim" d="M115.2,190.53,81.45,171v20.21L115.2,210.7Z"/>
      <path id="Path-157" class="window-L-prim" d="M76.45,168.16,42.7,148.67v20.21l33.75,19.48Z"/>
      <path id="Path-158" class="window-L-prim" d="M37.7,145.79,4,126.3v20.21L37.7,166Z"/>
      <path id="Path-159" class="top-prim" d="M81.45,191.25l5-2.89L115.2,205v5.78Z"/>
      <path id="Path-160" class="top-prim" d="M4,146.51l5-2.89,28.75,16.6V166Z"/>
      <path id="Path-161" class="top-prim" d="M42.7,168.88l5-2.89,28.75,16.6v5.77Z"/>
      <path id="Path-162" class="exterior-R-prim" d="M47.7,166V151.56l-5-2.89v20.21Z"/>
      <path id="Path-163" class="exterior-R-prim" d="M9,143.62V129.19L4,126.3v20.21Z"/>
      <path id="Path-164" class="exterior-R-prim" d="M86.45,188.36V173.93l-5-2.89v20.21Z"/>
    </g>
    <g id="Group-13">
      <path id="Path-165" class="window-L-prim" d="M115.2,294.49,81.45,275v20.21L115.2,314.7Z"/>
      <path id="Path-166" class="window-L-prim" d="M76.45,272.12,42.7,252.64v20.2l33.75,19.49Z"/>
      <path id="Path-167" class="window-L-prim" d="M37.7,249.75,4,230.26v20.21L37.7,270Z"/>
      <path id="Path-168" class="top-prim" d="M81.45,295.22l5-2.89,28.75,16.6v5.77Z"/>
      <path id="Path-169" class="top-prim" d="M4,250.47l5-2.89,28.75,16.6V270Z"/>
      <path id="Path-170" class="top-prim" d="M42.7,272.84l5-2.88,28.75,16.59v5.78Z"/>
      <path id="Path-171" class="exterior-R-prim" d="M47.7,270V255.52l-5-2.88v20.2Z"/>
      <path id="Path-172" class="exterior-R-prim" d="M9,247.58V233.15l-5-2.89v20.21Z"/>
      <path id="Path-173" class="exterior-R-prim" d="M86.45,292.33V277.89l-5-2.88v20.21Z"/>
    </g>
    <g id="Group-14">
      <path id="Path-174" class="window-L-prim" d="M115.2,398.38,81.45,378.89V399.1l33.75,19.48Z"/>
      <path id="Path-175" class="window-L-prim" d="M76.45,376,42.7,356.52v20.21l33.75,19.48Z"/>
      <path id="Path-176" class="window-L-prim" d="M37.7,353.63,4,334.15v20.2l33.7,19.49Z"/>
      <path id="Path-177" class="top-prim" d="M81.45,399.1l5-2.89,28.75,16.6v5.77Z"/>
      <path id="Path-178" class="top-prim" d="M4,354.35l5-2.88,28.7,16.59v5.78Z"/>
      <path id="Path-179" class="top-prim" d="M42.7,376.73l5-2.89,28.75,16.6v5.77Z"/>
      <path id="Path-180" class="exterior-R-prim" d="M47.7,373.84V359.4l-5-2.88v20.21Z"/>
      <path id="Path-181" class="exterior-R-prim" d="M9,351.47V337l-5-2.88v20.2Z"/>
      <path id="Path-182" class="exterior-R-prim" d="M86.45,396.21V381.78l-5-2.89V399.1Z"/>
    </g>
    <g id="Group-15">
      <path id="Path-183" class="window-L-prim" d="M115.2,502.3,81.45,482.81V503l33.75,19.49Z"/>
      <path id="Path-184" class="window-L-prim" d="M76.45,479.93,42.7,460.44v20.21l33.75,19.48Z"/>
      <path id="Path-185" class="window-L-prim" d="M37.7,457.55,4,438.07v20.21l33.7,19.48Z"/>
      <path id="Path-186" class="top-prim" d="M81.45,503l5-2.89,28.75,16.6v5.78Z"/>
      <path id="Path-187" class="top-prim" d="M4,458.28l5-2.89L37.7,472v5.77Z"/>
      <path id="Path-188" class="top-prim" d="M42.7,480.65l5-2.89,28.75,16.6v5.77Z"/>
      <path id="Path-189" class="exterior-R-prim" d="M47.7,477.76V463.33l-5-2.89v20.21Z"/>
      <path id="Path-190" class="exterior-R-prim" d="M9,455.39V441l-5-2.89v20.21Z"/>
      <path id="Path-191" class="exterior-R-prim" d="M86.45,500.13V485.7l-5-2.89V503Z"/>
    </g>
    <g id="Group-16">
      <path id="Path-192" class="window-L-prim" d="M115.2,242.49,81.45,223v20.2l33.75,19.5Z"/>
      <path id="Path-193" class="window-L-prim" d="M76.45,220.12,42.7,200.63v20.21l33.75,19.49Z"/>
      <path id="Path-194" class="window-L-prim" d="M37.7,197.75,4,178.26v20.21L37.7,218Z"/>
      <path id="Path-195" class="top-prim" d="M81.45,243.21l5-2.88,28.75,16.59v5.78Z"/>
      <path id="Path-196" class="top-prim" d="M4,198.47l5-2.89,28.75,16.6V218Z"/>
      <path id="Path-197" class="top-prim" d="M42.7,220.84l5-2.89,28.75,16.6v5.78Z"/>
      <path id="Path-198" class="exterior-R-prim" d="M47.7,218V203.52l-5-2.89v20.21Z"/>
      <path id="Path-199" class="exterior-R-prim" d="M9,195.58V181.15l-5-2.89v20.21Z"/>
      <path id="Path-200" class="exterior-R-prim" d="M86.45,240.33V225.89l-5-2.88v20.2Z"/>
    </g>
    <g id="Group-17">
      <path id="Path-201" class="window-L-prim" d="M115.2,346.46,81.45,327v20.21l33.75,19.48Z"/>
      <path id="Path-202" class="window-L-prim" d="M76.45,324.08,42.7,304.6v20.2l33.75,19.49Z"/>
      <path id="Path-203" class="window-L-prim" d="M37.7,301.71,4,282.22v20.21l33.7,19.49Z"/>
      <path id="Path-204" class="top-prim" d="M81.45,347.18l5-2.89,28.75,16.6v5.77Z"/>
      <path id="Path-205" class="top-prim" d="M4,302.43l5-2.88,28.7,16.59v5.78Z"/>
      <path id="Path-206" class="top-prim" d="M42.7,324.8l5-2.88,28.75,16.6v5.77Z"/>
      <path id="Path-207" class="exterior-R-prim" d="M47.7,321.92V307.48l-5-2.88v20.2Z"/>
      <path id="Path-208" class="exterior-R-prim" d="M9,299.55V285.11l-5-2.89v20.21Z"/>
      <path id="Path-209" class="exterior-R-prim" d="M86.45,344.29V329.86l-5-2.89v20.21Z"/>
    </g>
    <g id="Group-18">
      <path id="Path-210" class="window-L-prim" d="M115.2,450.34,81.45,430.85v20.21l33.75,19.48Z"/>
      <path id="Path-211" class="window-L-prim" d="M76.45,428,42.7,408.48v20.21l33.75,19.48Z"/>
      <path id="Path-212" class="window-L-prim" d="M37.7,405.59,4,386.11v20.2L37.7,425.8Z"/>
      <path id="Path-213" class="top-prim" d="M81.45,451.06l5-2.89,28.75,16.6v5.77Z"/>
      <path id="Path-214" class="top-prim" d="M4,406.31l5-2.88L37.7,420v5.77Z"/>
      <path id="Path-215" class="top-prim" d="M42.7,428.69l5-2.89,28.75,16.6v5.77Z"/>
      <path id="Path-216" class="exterior-R-prim" d="M47.7,425.8V411.37l-5-2.89v20.21Z"/>
      <path id="Path-217" class="exterior-R-prim" d="M9,403.43V389l-5-2.88v20.2Z"/>
      <path id="Path-218" class="exterior-R-prim" d="M86.45,448.17V433.74l-5-2.89v20.21Z"/>
    </g>
    <path id="Path-219" class="top-prim" d="M159,269.23l-5-2.88L125.2,283v5.77Z"/>
    <path id="Path-220" class="top-prim" d="M236.45,224.49l-5-2.89L202.7,238.2V244Z"/>
    <path id="Path-221" class="top-prim" d="M197.7,246.86l-5-2.88L164,260.57v5.78Z"/>
    <path id="Path-222" class="top-prim" d="M275.2,202.12l-5-2.89-28.75,16.6v5.77Z"/>
    <path id="Path-223" class="exterior-L-prim" d="M270.2,199.23V184.8l5-2.89v20.21Z"/>
    <path id="Path-224" class="exterior-L-prim" d="M192.7,244V229.54l5-2.89v20.21Z"/>
    <path id="Path-225" class="exterior-L-prim" d="M231.45,221.6V207.17l5-2.89v20.21Z"/>
    <path id="Path-226" class="exterior-L-prim" d="M154,266.35V251.91l5-2.88v20.2Z"/>
    <path id="Path-227" class="top-prim" d="M159,373.12l-5-2.89-28.75,16.6v5.77Z"/>
    <path id="Path-228" class="top-prim" d="M236.45,328.37l-5-2.88L202.7,342.08v5.78Z"/>
    <path id="Path-229" class="top-prim" d="M197.7,350.74l-5-2.88L164,364.46v5.77Z"/>
    <path id="Path-230" class="top-prim" d="M275.2,306l-5-2.89-28.75,16.6v5.78Z"/>
    <path id="Path-231" class="exterior-L-prim" d="M270.2,303.11V288.68l5-2.89V306Z"/>
    <path id="Path-232" class="exterior-L-prim" d="M192.7,347.86V333.42l5-2.88v20.2Z"/>
    <path id="Path-233" class="exterior-L-prim" d="M231.45,325.49V311.05l5-2.89v20.21Z"/>
    <path id="Path-234" class="exterior-L-prim" d="M154,370.23V355.8l5-2.89v20.21Z"/>
    <path id="Path-235" class="top-prim" d="M159,477l-5-2.89-28.75,16.6v5.78Z"/>
    <path id="Path-236" class="top-prim" d="M236.45,432.3l-5-2.89L202.7,446v5.77Z"/>
    <path id="Path-237" class="top-prim" d="M197.7,454.67l-5-2.89L164,468.38v5.77Z"/>
    <path id="Path-238" class="top-prim" d="M275.2,409.92l-5-2.88-28.75,16.59v5.78Z"/>
    <path id="Path-239" class="exterior-L-prim" d="M270.2,407V392.6l5-2.88v20.2Z"/>
    <path id="Path-240" class="exterior-L-prim" d="M192.7,451.78V437.35l5-2.89v20.21Z"/>
    <path id="Path-241" class="exterior-L-prim" d="M231.45,429.41V415l5-2.88V432.3Z"/>
    <path id="Path-242" class="exterior-L-prim" d="M154,474.15V459.72l5-2.89V477Z"/>
    <path id="Path-243" class="top-prim" d="M159,217.23l-5-2.88-28.8,16.59v5.78Z"/>
    <path id="Path-244" class="top-prim" d="M236.45,172.49l-5-2.89L202.7,186.2V192Z"/>
    <path id="Path-245" class="top-prim" d="M197.7,194.86l-5-2.89L164,208.57v5.78Z"/>
    <path id="Path-246" class="top-prim" d="M275.2,150.12l-5-2.89-28.75,16.6v5.77Z"/>
    <path id="Path-247" class="exterior-L-prim" d="M270.2,147.23V132.79l5-2.88v20.21Z"/>
    <path id="Path-248" class="exterior-L-prim" d="M192.7,192V177.54l5-2.89v20.21Z"/>
    <path id="Path-249" class="exterior-L-prim" d="M231.45,169.6V155.17l5-2.89v20.21Z"/>
    <path id="Path-250" class="exterior-L-prim" d="M154,214.35V199.91l5-2.89v20.21Z"/>
    <path id="Path-251" class="top-prim" d="M159,321.2l-5-2.89-28.75,16.6v5.77Z"/>
    <path id="Path-252" class="top-prim" d="M236.45,276.45l-5-2.89-28.75,16.6v5.78Z"/>
    <path id="Path-253" class="top-prim" d="M197.7,298.82l-5-2.88L164,312.54v5.77Z"/>
    <path id="Path-254" class="top-prim" d="M275.2,254.08l-5-2.89-28.75,16.6v5.77Z"/>
    <path id="Path-255" class="exterior-L-prim" d="M270.2,251.19V236.76l5-2.89v20.21Z"/>
    <path id="Path-256" class="exterior-L-prim" d="M192.7,295.94V281.5l5-2.88v20.2Z"/>
    <path id="Path-257" class="exterior-L-prim" d="M231.45,273.56V259.13l5-2.89v20.21Z"/>
    <path id="Path-258" class="exterior-L-prim" d="M154,318.31V303.88l5-2.89V321.2Z"/>
    <path id="Path-259" class="top-prim" d="M159,425.08l-5-2.89-28.75,16.6v5.77Z"/>
    <path id="Path-260" class="top-prim" d="M236.45,380.33l-5-2.88-28.75,16.6v5.77Z"/>
    <path id="Path-261" class="top-prim" d="M197.7,402.71l-5-2.89L164,416.42v5.77Z"/>
    <path id="Path-262" class="top-prim" d="M275.2,358l-5-2.89-28.75,16.6v5.78Z"/>
    <path id="Path-263" class="exterior-L-prim" d="M270.2,355.07V340.64l5-2.89V358Z"/>
    <path id="Path-264" class="exterior-L-prim" d="M192.7,399.82V385.39l5-2.89v20.21Z"/>
    <path id="Path-265" class="exterior-L-prim" d="M231.45,377.45V363l5-2.88v20.2Z"/>
    <path id="Path-266" class="exterior-L-prim" d="M154,422.19V407.76l5-2.89v20.21Z"/>
    <path id="Path-267" class="top-prim" d="M159,529l-5-2.89-28.75,16.6v5.78Z"/>
    <path id="Path-268" class="top-prim" d="M236.45,484.26l-5-2.89L202.7,498v5.77Z"/>
    <path id="Path-269" class="top-prim" d="M197.7,506.63l-5-2.89L164,520.34v5.77Z"/>
    <path id="Path-270" class="top-prim" d="M275.2,461.88l-5-2.88-28.75,16.6v5.77Z"/>
    <path id="Path-271" class="exterior-L-prim" d="M270.2,459V444.56l5-2.88v20.2Z"/>
    <path id="Path-272" class="exterior-L-prim" d="M192.7,503.74V489.31l5-2.89v20.21Z"/>
    <path id="Path-273" class="exterior-L-prim" d="M231.45,481.37V466.94l5-2.89v20.21Z"/>
    <path id="Path-274" class="exterior-L-prim" d="M154,526.11V511.68l5-2.89V529Z"/>
    <path id="Path-275" class="top-prim" d="M159,555l-5-2.88-28.8,16.57v5.78Z"/>
    <path id="Path-276" class="top-prim" d="M236.45,510.24l-5-2.89L202.7,524v5.77Z"/>
    <path id="Path-277" class="top-prim" d="M197.7,532.61l-5-2.89L164,546.32v5.78Z"/>
    <path id="Path-278" class="top-prim" d="M275.2,487.87l-5-2.89-28.75,16.6v5.77Z"/>
    <path id="Path-279" class="exterior-L-prim" d="M270.2,485V470.54l5-2.88v20.21Z"/>
    <path id="Path-280" class="exterior-L-prim" d="M192.7,529.72V515.29l5-2.89v20.21Z"/>
    <path id="Path-281" class="exterior-L-prim" d="M231.45,507.35V492.92l5-2.89v20.21Z"/>
    <path id="Path-282" class="exterior-L-prim" d="M154,552.1V537.66l5-2.89V555Z"/>
    <path id="Path-283" class="top-prim" d="M159,191.25l-5-2.89L125.2,205v5.78Z"/>
    <path id="Path-284" class="top-prim" d="M236.45,146.51l-5-2.89-28.75,16.6V166Z"/>
    <path id="Path-285" class="top-prim" d="M197.7,168.88l-5-2.89L164,182.59v5.77Z"/>
    <path id="Path-286" class="top-prim" d="M275.2,124.13l-5-2.88-28.75,16.6v5.77Z"/>
    <path id="Path-287" class="exterior-L-prim" d="M270.2,121.25V106.81l5-2.88v20.2Z"/>
    <path id="Path-288" class="exterior-L-prim" d="M192.7,166V151.56l5-2.89v20.21Z"/>
    <path id="Path-289" class="exterior-L-prim" d="M231.45,143.62V129.19l5-2.89v20.21Z"/>
    <path id="Path-290" class="exterior-L-prim" d="M154,188.36V173.93l5-2.89v20.21Z"/>
    <path id="Path-291" class="top-prim" d="M159,295.22l-5-2.89-28.75,16.6v5.77Z"/>
    <path id="Path-292" class="top-prim" d="M236.45,250.47l-5-2.89-28.75,16.6V270Z"/>
    <path id="Path-293" class="top-prim" d="M197.7,272.84l-5-2.88L164,286.55v5.78Z"/>
    <path id="Path-294" class="top-prim" d="M275.2,228.1l-5-2.89-28.75,16.6v5.77Z"/>
    <path id="Path-295" class="exterior-L-prim" d="M270.2,225.21V210.78l5-2.89V228.1Z"/>
    <path id="Path-296" class="exterior-L-prim" d="M192.7,270V255.52l5-2.88v20.2Z"/>
    <path id="Path-297" class="exterior-L-prim" d="M231.45,247.58V233.15l5-2.89v20.21Z"/>
    <path id="Path-298" class="exterior-L-prim" d="M154,292.33V277.89l5-2.88v20.21Z"/>
    <path id="Path-299" class="top-prim" d="M159,399.1l-5-2.89-28.75,16.6v5.77Z"/>
    <path id="Path-300" class="top-prim" d="M236.45,354.35l-5-2.88L202.7,368.06v5.78Z"/>
    <path id="Path-301" class="top-prim" d="M197.7,376.73l-5-2.89L164,390.44v5.77Z"/>
    <path id="Path-302" class="top-prim" d="M275.2,332l-5-2.89-28.75,16.6v5.78Z"/>
    <path id="Path-303" class="exterior-L-prim" d="M270.2,329.09V314.66l5-2.89V332Z"/>
    <path id="Path-304" class="exterior-L-prim" d="M192.7,373.84V359.4l5-2.88v20.21Z"/>
    <path id="Path-305" class="exterior-L-prim" d="M231.45,351.47V337l5-2.88v20.2Z"/>
    <path id="Path-306" class="exterior-L-prim" d="M154,396.21V381.78l5-2.89V399.1Z"/>
    <path id="Path-307" class="top-prim" d="M159,503l-5-2.89-28.75,16.6v5.78Z"/>
    <path id="Path-308" class="top-prim" d="M236.45,458.28l-5-2.89L202.7,472v5.77Z"/>
    <path id="Path-309" class="top-prim" d="M197.7,480.65l-5-2.89L164,494.36v5.77Z"/>
    <path id="Path-310" class="top-prim" d="M275.2,435.9l-5-2.88-28.75,16.6v5.77Z"/>
    <path id="Path-311" class="exterior-L-prim" d="M270.2,433V418.58l5-2.88v20.2Z"/>
    <path id="Path-312" class="exterior-L-prim" d="M192.7,477.76V463.33l5-2.89v20.21Z"/>
    <path id="Path-313" class="exterior-L-prim" d="M231.45,455.39V441l5-2.89v20.21Z"/>
    <path id="Path-314" class="exterior-L-prim" d="M154,500.13V485.7l5-2.89V503Z"/>
    <path id="Path-315" class="top-prim" d="M159,243.21l-5-2.88-28.8,16.59v5.78Z"/>
    <path id="Path-316" class="top-prim" d="M236.45,198.47l-5-2.89-28.75,16.6V218Z"/>
    <path id="Path-317" class="top-prim" d="M197.7,220.84l-5-2.89L164,234.55v5.78Z"/>
    <path id="Path-318" class="top-prim" d="M275.2,176.1l-5-2.89-28.75,16.6v5.77Z"/>
    <path id="Path-319" class="exterior-L-prim" d="M270.2,173.21V158.78l5-2.89V176.1Z"/>
    <path id="Path-320" class="exterior-L-prim" d="M192.7,218V203.52l5-2.89v20.21Z"/>
    <path id="Path-321" class="exterior-L-prim" d="M231.45,195.58V181.15l5-2.89v20.21Z"/>
    <path id="Path-322" class="exterior-L-prim" d="M154,240.33V225.89l5-2.88v20.2Z"/>
    <path id="Path-323" class="top-prim" d="M159,347.18l-5-2.89-28.75,16.6v5.77Z"/>
    <path id="Path-324" class="top-prim" d="M236.45,302.43l-5-2.88L202.7,316.14v5.78Z"/>
    <path id="Path-325" class="top-prim" d="M197.7,324.8l-5-2.88L164,338.52v5.77Z"/>
    <path id="Path-326" class="top-prim" d="M275.2,280.06l-5-2.89-28.75,16.6v5.78Z"/>
    <path id="Path-327" class="exterior-L-prim" d="M270.2,277.17V262.74l5-2.89v20.21Z"/>
    <path id="Path-328" class="exterior-L-prim" d="M192.7,321.92V307.48l5-2.88v20.2Z"/>
    <path id="Path-329" class="exterior-L-prim" d="M231.45,299.55V285.11l5-2.89v20.21Z"/>
    <path id="Path-330" class="exterior-L-prim" d="M154,344.29V329.86l5-2.89v20.21Z"/>
    <path id="Path-331" class="top-prim" d="M159,451.06l-5-2.89-28.75,16.6v5.77Z"/>
    <path id="Path-332" class="top-prim" d="M236.45,406.31l-5-2.88L202.7,420v5.77Z"/>
    <path id="Path-333" class="top-prim" d="M197.7,428.69l-5-2.89L164,442.4v5.77Z"/>
    <path id="Path-334" class="top-prim" d="M275.2,383.94l-5-2.88-28.75,16.59v5.78Z"/>
    <path id="Path-335" class="exterior-L-prim" d="M270.2,381.06V366.62l5-2.89v20.21Z"/>
    <path id="Path-336" class="exterior-L-prim" d="M192.7,425.8V411.37l5-2.89v20.21Z"/>
    <path id="Path-337" class="exterior-L-prim" d="M231.45,403.43V389l5-2.88v20.2Z"/>
    <path id="Path-338" class="exterior-L-prim" d="M154,448.17V433.74l5-2.89v20.21Z"/>
  </g>
</svg>
