<svg id="root" xmlns="http://www.w3.org/2000/svg" viewBox="0 0 280 349.296">
  <defs>
    <style>
      .top-dark {
        fill: #c67471;
      }

      .exterior-R-prim {
        fill: #d15752;
      }

      .window-R-prim {
        fill: #bc9563;
      }

      .exterior-L-prim {
        fill: #74302f;
      }

      .window-L-prim {
        fill: #4e3b24;
      }

      .top-prim {
        fill: #dd8986;
      }
    </style>
  </defs>
  <title>1Artboard 29</title>
  <g id="root-2" data-name="root">
    <path id="anchor_0_161.639_280.27" class="top-dark" d="M0,95.262V92.376L159.9258,0,280,69.282v2.886L120,164.544Z"/>
    <path class="exterior-R-prim" d="M120,161.658l-2.4258-1.4439V347.853L120,349.296,280,256.92V69.282Z"/>
    <path class="window-R-prim" d="M125,242.487l33.75-19.486v20.2069L125,262.694Z"/>
    <path class="window-R-prim" d="M163.75,220.114l33.75-19.485v20.207l-33.75,19.486Z"/>
    <path class="window-R-prim" d="M202.5,197.742l33.75-19.486v20.2081L202.5,217.949Z"/>
    <path class="window-R-prim" d="M241.25,175.37,275,155.884v20.207l-33.75,19.486Z"/>
    <path class="window-R-prim" d="M125,190.525l33.75-19.485v20.207L125,210.732Z"/>
    <path class="window-R-prim" d="M163.75,168.153l33.75-19.4859V168.874L163.75,188.36Z"/>
    <path class="window-R-prim" d="M202.5,145.78l33.75-19.485v20.207L202.5,165.988Z"/>
    <path class="window-R-prim" d="M241.25,123.408,275,103.923V124.13l-33.75,19.4852Z"/>
    <path class="window-R-prim" d="M125,294.4481l33.75-19.4851V295.17L125,314.655Z"/>
    <path class="window-R-prim" d="M163.75,272.076,197.5,252.59v20.208l-33.75,19.485Z"/>
    <path class="window-R-prim" d="M202.5,249.704l33.75-19.486v20.207L202.5,269.9109Z"/>
    <path class="window-R-prim" d="M241.25,227.331,275,207.846v20.207l-33.75,19.485Z"/>
    <path class="window-R-prim" d="M125,320.429l33.75-19.4859v20.2078L125,340.636Z"/>
    <path class="window-R-prim" d="M163.75,298.0569,197.5,278.571v20.207l-33.75,19.486Z"/>
    <path class="window-R-prim" d="M202.5,275.684l33.75-19.485v20.2069L202.5,295.892Z"/>
    <path class="window-R-prim" d="M241.25,253.312,275,233.826v20.208l-33.75,19.485Z"/>
    <path class="window-R-prim" d="M125,164.544l33.75-19.485v20.2071L125,184.752Z"/>
    <path class="window-R-prim" d="M163.75,142.1721,197.5,122.686v20.208l-33.75,19.485Z"/>
    <path class="window-R-prim" d="M202.5,119.8l33.75-19.486v20.2071L202.5,140.007Z"/>
    <path class="window-R-prim" d="M241.25,97.4269,275,77.942V98.149l-33.75,19.4859Z"/>
    <path class="window-R-prim" d="M125,268.467l33.75-19.485v20.207L125,288.675Z"/>
    <path class="window-R-prim" d="M163.75,246.095,197.5,226.61v20.207l-33.75,19.4849Z"/>
    <path class="window-R-prim" d="M202.5,223.723l33.75-19.486v20.207L202.5,243.93Z"/>
    <path class="window-R-prim" d="M241.25,201.35,275,181.8651V202.072l-33.75,19.486Z"/>
    <path class="window-R-prim" d="M125,216.506l33.75-19.486v20.208L125,236.713Z"/>
    <path class="window-R-prim" d="M163.75,194.134l33.75-19.486v20.207l-33.75,19.486Z"/>
    <path class="window-R-prim" d="M202.5,171.761l33.75-19.4851V172.483L202.5,191.9691Z"/>
    <path class="window-R-prim" d="M241.25,149.389,275,129.903v20.208l-33.75,19.485Z"/>
    <path class="exterior-L-prim" d="M120,161.658V349.296L0,280.014V92.376Z"/>
    <path class="window-L-prim" d="M115,242.487,81.25,223.001v20.2069L115,262.694Z"/>
    <path class="window-L-prim" d="M76.25,220.114,42.5,200.629v20.207l33.75,19.486Z"/>
    <path class="window-L-prim" d="M37.5,197.742,3.75,178.256v20.2081L37.5,217.949Z"/>
    <path class="top-prim" d="M81.25,243.2079l5-2.8859L115,256.92v5.774Z"/>
    <path class="top-prim" d="M3.75,198.4641l5-2.8871L37.5,212.176v5.773Z"/>
    <path class="top-prim" d="M42.5,220.836l5-2.887,28.75,16.599v5.774Z"/>
    <path class="exterior-R-prim" d="M47.5,217.949V203.515l-5-2.886v20.207Z"/>
    <path class="exterior-R-prim" d="M8.75,195.577V181.143l-5-2.887v20.2081Z"/>
    <path class="exterior-R-prim" d="M86.25,240.322V225.888l-5-2.887v20.2069Z"/>
    <path class="window-L-prim" d="M115,190.525,81.25,171.04v20.207L115,210.732Z"/>
    <path class="window-L-prim" d="M76.25,168.153,42.5,148.6671V168.874L76.25,188.36Z"/>
    <path class="window-L-prim" d="M37.5,145.78,3.75,126.295v20.207L37.5,165.988Z"/>
    <path class="top-prim" d="M81.25,191.247l5-2.887L115,204.959v5.773Z"/>
    <path class="top-prim" d="M3.75,146.502l5-2.8869,28.75,16.599v5.7739Z"/>
    <path class="top-prim" d="M42.5,168.874l5-2.886,28.75,16.599v5.773Z"/>
    <path class="exterior-R-prim" d="M47.5,165.988V151.554l-5-2.8869V168.874Z"/>
    <path class="exterior-R-prim" d="M8.75,143.6151V129.1819l-5-2.8869v20.207Z"/>
    <path class="exterior-R-prim" d="M86.25,188.36V173.926l-5-2.886v20.207Z"/>
    <path class="window-L-prim" d="M115,294.4481,81.25,274.963V295.17L115,314.655Z"/>
    <path class="window-L-prim" d="M76.25,272.076,42.5,252.59v20.208l33.75,19.485Z"/>
    <path class="window-L-prim" d="M37.5,249.704,3.75,230.218v20.207L37.5,269.9109Z"/>
    <path class="top-prim" d="M81.25,295.17l5-2.887L115,308.882v5.773Z"/>
    <path class="top-prim" d="M3.75,250.425l5-2.887L37.5,264.137v5.7739Z"/>
    <path class="top-prim" d="M42.5,272.798l5-2.8871L76.25,286.51v5.7731Z"/>
    <path class="exterior-R-prim" d="M47.5,269.9109V255.477l-5-2.887v20.208Z"/>
    <path class="exterior-R-prim" d="M8.75,247.538V233.105l-5-2.887v20.207Z"/>
    <path class="exterior-R-prim" d="M86.25,292.283V277.8491l-5-2.8861V295.17Z"/>
    <path class="window-L-prim" d="M115,320.429,81.25,300.9431v20.2078L115,340.636Z"/>
    <path class="window-L-prim" d="M76.25,298.0569,42.5,278.571v20.207l33.75,19.486Z"/>
    <path class="window-L-prim" d="M37.5,275.684,3.75,256.199v20.2069L37.5,295.892Z"/>
    <path class="top-prim" d="M81.25,321.1509l5-2.8869L115,334.863v5.773Z"/>
    <path class="top-prim" d="M3.75,276.4059l5-2.8869L37.5,290.118v5.774Z"/>
    <path class="top-prim" d="M42.5,298.778l5-2.886L76.25,312.49v5.7739Z"/>
    <path class="exterior-R-prim" d="M47.5,295.892V281.4579l-5-2.8869v20.207Z"/>
    <path class="exterior-R-prim" d="M8.75,273.519V259.085l-5-2.886v20.2069Z"/>
    <path class="exterior-R-prim" d="M86.25,318.264V303.83l-5-2.8869v20.2078Z"/>
    <path class="window-L-prim" d="M115,164.544,81.25,145.059v20.2071L115,184.752Z"/>
    <path class="window-L-prim" d="M76.25,142.1721,42.5,122.686v20.208l33.75,19.485Z"/>
    <path class="window-L-prim" d="M37.5,119.8,3.75,100.314v20.2071L37.5,140.007Z"/>
    <path class="top-prim" d="M81.25,165.2661l5-2.8871L115,178.978v5.774Z"/>
    <path class="top-prim" d="M3.75,120.5211l5-2.8862L37.5,134.233v5.774Z"/>
    <path class="top-prim" d="M42.5,142.894l5-2.887,28.75,16.599v5.773Z"/>
    <path class="exterior-R-prim" d="M47.5,140.007V125.5731l-5-2.8871v20.208Z"/>
    <path class="exterior-R-prim" d="M8.75,117.6349V103.201l-5-2.887v20.2071Z"/>
    <path class="exterior-R-prim" d="M86.25,162.379V147.946l-5-2.887v20.2071Z"/>
    <path class="window-L-prim" d="M115,268.467,81.25,248.982v20.207L115,288.675Z"/>
    <path class="window-L-prim" d="M76.25,246.095,42.5,226.61v20.207l33.75,19.4849Z"/>
    <path class="window-L-prim" d="M37.5,223.723,3.75,204.237v20.207L37.5,243.93Z"/>
    <path class="top-prim" d="M81.25,269.189l5-2.8871L115,282.9009v5.7741Z"/>
    <path class="top-prim" d="M3.75,224.444l5-2.886L37.5,238.1559V243.93Z"/>
    <path class="top-prim" d="M42.5,246.817l5-2.887,28.75,16.599v5.7729Z"/>
    <path class="exterior-R-prim" d="M47.5,243.93V229.496l-5-2.886v20.207Z"/>
    <path class="exterior-R-prim" d="M8.75,221.558V207.124l-5-2.887v20.207Z"/>
    <path class="exterior-R-prim" d="M86.25,266.3019V251.869l-5-2.887v20.207Z"/>
    <path class="window-L-prim" d="M115,216.506,81.25,197.02v20.208L115,236.713Z"/>
    <path class="window-L-prim" d="M76.25,194.134,42.5,174.648v20.207l33.75,19.486Z"/>
    <path class="window-L-prim" d="M37.5,171.761,3.75,152.2759V172.483L37.5,191.9691Z"/>
    <path class="top-prim" d="M81.25,217.228l5-2.887L115,230.94v5.773Z"/>
    <path class="top-prim" d="M3.75,172.483l5-2.887L37.5,186.195v5.773Z"/>
    <path class="top-prim" d="M42.5,194.855l5-2.887,28.75,16.599v5.774Z"/>
    <path class="exterior-R-prim" d="M47.5,191.968V177.535l-5-2.887v20.207Z"/>
    <path class="exterior-R-prim" d="M8.75,169.596V155.162l-5-2.8861V172.483Z"/>
    <path class="exterior-R-prim" d="M86.25,214.341V199.907l-5-2.887v20.208Z"/>
    <path class="top-prim" d="M158.75,243.2079l-5-2.8859L125,256.92v5.774Z"/>
    <path class="top-prim" d="M236.25,198.4641l-5-2.8871L202.5,212.176v5.773Z"/>
    <path class="top-prim" d="M197.5,220.836l-5-2.887-28.75,16.599v5.774Z"/>
    <path class="top-prim" d="M275,176.091l-5-2.886-28.75,16.598v5.774Z"/>
    <path class="exterior-L-prim" d="M270,173.205V158.7711l5-2.8871v20.207Z"/>
    <path class="exterior-L-prim" d="M192.5,217.949V203.5161l5-2.8871v20.207Z"/>
    <path class="exterior-L-prim" d="M231.25,195.577V181.143l5-2.887v20.2081Z"/>
    <path class="exterior-L-prim" d="M153.75,240.322V225.888l5-2.887v20.2069Z"/>
    <path class="top-prim" d="M158.75,191.247l-5-2.887L125,204.959v5.773Z"/>
    <path class="top-prim" d="M236.25,146.502l-5-2.8869-28.75,16.599v5.7739Z"/>
    <path class="top-prim" d="M197.5,168.874l-5-2.886-28.75,16.599v5.773Z"/>
    <path class="top-prim" d="M275,124.13l-5-2.8869-28.75,16.599v5.7731Z"/>
    <path class="exterior-L-prim" d="M270,121.243V106.809l5-2.886V124.13Z"/>
    <path class="exterior-L-prim" d="M192.5,165.988V151.554l5-2.8869V168.874Z"/>
    <path class="exterior-L-prim" d="M231.25,143.6151V129.1819l5-2.8869v20.207Z"/>
    <path class="exterior-L-prim" d="M153.75,188.36V173.926l5-2.886v20.207Z"/>
    <path class="top-prim" d="M158.75,295.17l-5-2.887L125,308.882v5.773Z"/>
    <path class="top-prim" d="M236.25,250.425l-5-2.887L202.5,264.137v5.7739Z"/>
    <path class="top-prim" d="M197.5,272.798l-5-2.8871L163.75,286.51v5.7731Z"/>
    <path class="top-prim" d="M275,228.053l-5-2.887-28.75,16.599v5.773Z"/>
    <path class="exterior-L-prim" d="M270,225.166V210.732l5-2.886v20.207Z"/>
    <path class="exterior-L-prim" d="M192.5,269.9109V255.477l5-2.887v20.208Z"/>
    <path class="exterior-L-prim" d="M231.25,247.538V233.105l5-2.887v20.207Z"/>
    <path class="exterior-L-prim" d="M153.75,292.283V277.8491l5-2.8861V295.17Z"/>
    <path class="top-prim" d="M158.75,321.1509l-5-2.8869L125,334.863v5.773Z"/>
    <path class="top-prim" d="M236.25,276.4059l-5-2.8869L202.5,290.118v5.774Z"/>
    <path class="top-prim" d="M197.5,298.778l-5-2.886L163.75,312.49v5.7739Z"/>
    <path class="top-prim" d="M275,254.034l-5-2.887-28.75,16.599v5.773Z"/>
    <path class="exterior-L-prim" d="M270,251.147V236.713l5-2.887v20.208Z"/>
    <path class="exterior-L-prim" d="M192.5,295.892V281.4579l5-2.8869v20.207Z"/>
    <path class="exterior-L-prim" d="M231.25,273.519V259.085l5-2.886v20.2069Z"/>
    <path class="exterior-L-prim" d="M153.75,318.264V303.83l5-2.8869v20.2078Z"/>
    <path class="top-prim" d="M158.75,165.2661l-5-2.8871L125,178.978v5.774Z"/>
    <path class="top-prim" d="M236.25,120.5211l-5-2.8862L202.5,134.233v5.774Z"/>
    <path class="top-prim" d="M197.5,142.894l-5-2.887-28.75,16.599v5.773Z"/>
    <path class="top-prim" d="M275,98.149l-5-2.887-28.75,16.599v5.7739Z"/>
    <path class="exterior-L-prim" d="M270,95.262V80.829l5-2.887V98.149Z"/>
    <path class="exterior-L-prim" d="M192.5,140.007V125.5731l5-2.8871v20.208Z"/>
    <path class="exterior-L-prim" d="M231.25,117.6349V103.201l5-2.887v20.2071Z"/>
    <path class="exterior-L-prim" d="M153.75,162.379V147.946l5-2.887v20.2071Z"/>
    <path class="top-prim" d="M158.75,269.189l-5-2.8871L125,282.9009v5.7741Z"/>
    <path class="top-prim" d="M236.25,224.444l-5-2.886L202.5,238.157v5.773Z"/>
    <path class="top-prim" d="M197.5,246.817l-5-2.887-28.75,16.599v5.7729Z"/>
    <path class="top-prim" d="M275,202.072l-5-2.887-28.75,16.599v5.774Z"/>
    <path class="exterior-L-prim" d="M270,199.185V184.752l5-2.8869V202.072Z"/>
    <path class="exterior-L-prim" d="M192.5,243.93V229.496l5-2.886v20.207Z"/>
    <path class="exterior-L-prim" d="M231.25,221.558V207.124l5-2.887v20.207Z"/>
    <path class="exterior-L-prim" d="M153.75,266.3019V251.869l5-2.887v20.207Z"/>
    <path class="top-prim" d="M158.75,217.228l-5-2.887L125,230.94v5.773Z"/>
    <path class="top-prim" d="M236.25,172.483l-5-2.887L202.5,186.195v5.773Z"/>
    <path class="top-prim" d="M197.5,194.855l-5-2.887-28.75,16.599v5.774Z"/>
    <path class="top-prim" d="M275,150.111l-5-2.8869-28.75,16.599v5.7729Z"/>
    <path class="exterior-L-prim" d="M270,147.2241V132.79l5-2.887v20.208Z"/>
    <path class="exterior-L-prim" d="M192.5,191.968V177.535l5-2.887v20.207Z"/>
    <path class="exterior-L-prim" d="M231.25,169.596V155.162l5-2.8861V172.483Z"/>
    <path class="exterior-L-prim" d="M153.75,214.341V199.907l5-2.887v20.208Z"/>
  </g>
</svg>
