<svg id="root" xmlns="http://www.w3.org/2000/svg" viewBox="0 0 280 453.22">
  <defs>
    <style>
      .top-dark {
        fill: #c67471;
      }

      .exterior-R-prim {
        fill: #d15752;
      }

      .window-R-prim {
        fill: #bc9563;
      }

      .exterior-L-prim {
        fill: #74302f;
      }

      .window-L-prim {
        fill: #4e3b24;
      }

      .top-prim {
        fill: #dd8986;
      }
    </style>
  </defs>
  <title>1Artboard 25</title>
  <g id="root-2" data-name="root">
    <path id="anchor_0_161.639_280.27" class="top-dark" d="M0,95.263V92.376L159.9258,0,280,69.282v2.887L120,164.545Z"/>
    <path class="exterior-R-prim" d="M120,161.658l-2.4258-1.443V451.7759L120,453.22l160-92.3761V69.282Z"/>
    <path class="window-R-prim" d="M125,242.487l33.75-19.486v20.2079L125,262.694Z"/>
    <path class="window-R-prim" d="M163.75,220.1149,197.5,200.629v20.207l-33.75,19.486Z"/>
    <path class="window-R-prim" d="M202.5,197.742l33.75-19.485v20.2069L202.5,217.95Z"/>
    <path class="window-R-prim" d="M241.25,175.37,275,155.884v20.208l-33.75,19.485Z"/>
    <path class="window-R-prim" d="M125,346.41l33.75-19.485v20.207L125,366.617Z"/>
    <path class="window-R-prim" d="M163.75,324.038l33.75-19.4861V324.759l-33.75,19.4859Z"/>
    <path class="window-R-prim" d="M202.5,301.665l33.75-19.485v20.207L202.5,321.873Z"/>
    <path class="window-R-prim" d="M241.25,279.293,275,259.8079V280.015L241.25,299.5Z"/>
    <path class="window-R-prim" d="M125,190.566l33.75-19.485v20.207L125,210.774Z"/>
    <path class="window-R-prim" d="M163.75,168.194l33.75-19.486v20.208l-33.75,19.4849Z"/>
    <path class="window-R-prim" d="M202.5,145.822l33.75-19.486v20.207L202.5,166.029Z"/>
    <path class="window-R-prim" d="M241.25,123.449,275,103.964v20.207l-33.75,19.486Z"/>
    <path class="window-R-prim" d="M125,294.449l33.75-19.486V295.17L125,314.6559Z"/>
    <path class="window-R-prim" d="M163.75,272.076l33.75-19.485v20.207l-33.75,19.485Z"/>
    <path class="window-R-prim" d="M202.5,249.704l33.75-19.486v20.208L202.5,269.9109Z"/>
    <path class="window-R-prim" d="M241.25,227.332,275,207.846v20.207l-33.75,19.486Z"/>
    <path class="window-R-prim" d="M125,398.372l33.75-19.4861V399.093L125,418.579Z"/>
    <path class="window-R-prim" d="M163.75,375.999l33.75-19.485v20.207l-33.75,19.486Z"/>
    <path class="window-R-prim" d="M202.5,353.627l33.75-19.4861v20.208l-33.75,19.485Z"/>
    <path class="window-R-prim" d="M241.25,331.2549,275,311.769v20.207l-33.75,19.486Z"/>
    <path class="window-R-prim" d="M125,424.352l33.75-19.485v20.207L125,444.56Z"/>
    <path class="window-R-prim" d="M163.75,401.98,197.5,382.494v20.208l-33.75,19.485Z"/>
    <path class="window-R-prim" d="M202.5,379.608l33.75-19.486v20.207L202.5,399.815Z"/>
    <path class="window-R-prim" d="M241.25,357.2349,275,337.75V357.957l-33.75,19.4859Z"/>
    <path class="window-R-prim" d="M125,164.586,158.75,145.1v20.207L125,184.793Z"/>
    <path class="window-R-prim" d="M163.75,142.213l33.75-19.485v20.207L163.75,162.42Z"/>
    <path class="window-R-prim" d="M202.5,119.841l33.75-19.486v20.208L202.5,140.048Z"/>
    <path class="window-R-prim" d="M241.25,97.469,275,77.983V98.19l-33.75,19.486Z"/>
    <path class="window-R-prim" d="M125,268.468l33.75-19.486v20.207L125,288.675Z"/>
    <path class="window-R-prim" d="M163.75,246.095,197.5,226.61V246.817l-33.75,19.486Z"/>
    <path class="window-R-prim" d="M202.5,223.723l33.75-19.485v20.207L202.5,243.93Z"/>
    <path class="window-R-prim" d="M241.25,201.351,275,181.865v20.2079l-33.75,19.485Z"/>
    <path class="window-R-prim" d="M125,372.3909l33.75-19.4859v20.208L125,392.598Z"/>
    <path class="window-R-prim" d="M163.75,350.019l33.75-19.486V350.74L163.75,370.226Z"/>
    <path class="window-R-prim" d="M202.5,327.6459l33.75-19.485V328.368L202.5,347.853Z"/>
    <path class="window-R-prim" d="M241.25,305.274,275,285.788v20.208l-33.75,19.485Z"/>
    <path class="window-R-prim" d="M125,216.5469l33.75-19.4859v20.208L125,236.754Z"/>
    <path class="window-R-prim" d="M163.75,194.175l33.75-19.486v20.2069L163.75,214.382Z"/>
    <path class="window-R-prim" d="M202.5,171.802l33.75-19.485v20.207L202.5,192.01Z"/>
    <path class="window-R-prim" d="M241.25,149.43,275,129.944v20.208l-33.75,19.485Z"/>
    <path class="window-R-prim" d="M125,320.429l33.75-19.485v20.2069L125,340.637Z"/>
    <path class="window-R-prim" d="M163.75,298.0569,197.5,278.571v20.208l-33.75,19.485Z"/>
    <path class="window-R-prim" d="M202.5,275.685l33.75-19.486v20.2069L202.5,295.892Z"/>
    <path class="window-R-prim" d="M241.25,253.312,275,233.827v20.207L241.25,273.52Z"/>
    <path class="exterior-L-prim" d="M120,161.658V453.22L0,383.9379V92.376Z"/>
    <path class="window-L-prim" d="M115,242.487,81.25,223.001v20.2079L115,262.694Z"/>
    <path class="window-L-prim" d="M76.25,220.1149,42.5,200.629v20.207l33.75,19.486Z"/>
    <path class="window-L-prim" d="M37.5,197.742,3.75,178.257v20.2069L37.5,217.95Z"/>
    <path class="top-prim" d="M81.25,243.2089l5-2.8869L115,256.921v5.773Z"/>
    <path class="top-prim" d="M3.75,198.4639l5-2.8869L37.5,212.176v5.774Z"/>
    <path class="top-prim" d="M42.5,220.836l5-2.886,28.75,16.598v5.774Z"/>
    <path class="exterior-R-prim" d="M47.5,217.95V203.5159l-5-2.8869v20.207Z"/>
    <path class="exterior-R-prim" d="M8.75,195.577V181.144l-5-2.887v20.2069Z"/>
    <path class="exterior-R-prim" d="M86.25,240.322V225.888l-5-2.887v20.2079Z"/>
    <path class="window-L-prim" d="M115,346.41,81.25,326.924v20.208L115,366.617Z"/>
    <path class="window-L-prim" d="M76.25,324.038,42.5,304.5519V324.759l33.75,19.4859Z"/>
    <path class="window-L-prim" d="M37.5,301.665,3.75,282.18v20.207L37.5,321.873Z"/>
    <path class="top-prim" d="M81.25,347.132l5-2.8871L115,360.8439v5.7731Z"/>
    <path class="top-prim" d="M3.75,302.387l5-2.8871,28.75,16.599v5.7741Z"/>
    <path class="top-prim" d="M42.5,324.759l5-2.886,28.75,16.598v5.7739Z"/>
    <path class="exterior-R-prim" d="M47.5,321.873V307.439l-5-2.8871V324.759Z"/>
    <path class="exterior-R-prim" d="M8.75,299.5V285.067l-5-2.887v20.207Z"/>
    <path class="exterior-R-prim" d="M86.25,344.2449V329.811l-5-2.887v20.208Z"/>
    <path class="window-L-prim" d="M115,190.566,81.25,171.081v20.207L115,210.774Z"/>
    <path class="window-L-prim" d="M76.25,168.194,42.5,148.708v20.208l33.75,19.4849Z"/>
    <path class="window-L-prim" d="M37.5,145.822,3.75,126.336v20.207L37.5,166.029Z"/>
    <path class="top-prim" d="M81.25,191.288l5-2.8871L115,205v5.7741Z"/>
    <path class="top-prim" d="M3.75,146.543l5-2.886L37.5,160.255v5.774Z"/>
    <path class="top-prim" d="M42.5,168.916l5-2.887,28.75,16.599v5.7729Z"/>
    <path class="exterior-R-prim" d="M47.5,166.029V151.595l-5-2.887v20.208Z"/>
    <path class="exterior-R-prim" d="M8.75,143.657V129.223l-5-2.887v20.207Z"/>
    <path class="exterior-R-prim" d="M86.25,188.4009V173.967l-5-2.886v20.207Z"/>
    <path class="window-L-prim" d="M115,294.449,81.25,274.963V295.17L115,314.6559Z"/>
    <path class="window-L-prim" d="M76.25,272.076,42.5,252.591v20.207l33.75,19.485Z"/>
    <path class="window-L-prim" d="M37.5,249.704,3.75,230.218v20.208L37.5,269.9109Z"/>
    <path class="top-prim" d="M81.25,295.17l5-2.887L115,308.882v5.7739Z"/>
    <path class="top-prim" d="M3.75,250.426l5-2.887L37.5,264.138v5.7729Z"/>
    <path class="top-prim" d="M42.5,272.798l5-2.8871L76.25,286.51v5.7731Z"/>
    <path class="exterior-R-prim" d="M47.5,269.9109V255.477l-5-2.886v20.207Z"/>
    <path class="exterior-R-prim" d="M8.75,247.539V233.1049l-5-2.8869v20.208Z"/>
    <path class="exterior-R-prim" d="M86.25,292.283V277.85l-5-2.887V295.17Z"/>
    <path class="window-L-prim" d="M115,398.372,81.25,378.8859V399.093L115,418.579Z"/>
    <path class="window-L-prim" d="M76.25,375.999,42.5,356.514v20.207l33.75,19.485Z"/>
    <path class="window-L-prim" d="M37.5,353.627,3.75,334.1409v20.208l33.75,19.485Z"/>
    <path class="top-prim" d="M81.25,399.093l5-2.887L115,412.805v5.774Z"/>
    <path class="top-prim" d="M3.75,354.3489l5-2.8869L37.5,368.061v5.7729Z"/>
    <path class="top-prim" d="M42.5,376.721l5-2.8871,28.75,16.599v5.7741Z"/>
    <path class="exterior-R-prim" d="M47.5,373.8339V359.4l-5-2.886v20.207Z"/>
    <path class="exterior-R-prim" d="M8.75,351.462V337.028l-5-2.8871v20.208Z"/>
    <path class="exterior-R-prim" d="M86.25,396.207V381.773l-5-2.8871V399.093Z"/>
    <path class="window-L-prim" d="M115,424.352,81.25,404.867v20.207L115,444.56Z"/>
    <path class="window-L-prim" d="M76.25,401.98,42.5,382.494v20.208l33.75,19.485Z"/>
    <path class="window-L-prim" d="M37.5,379.608,3.75,360.122v20.207L37.5,399.815Z"/>
    <path class="top-prim" d="M81.25,425.074l5-2.887L115,438.7859V444.56Z"/>
    <path class="top-prim" d="M3.75,380.329l5-2.8861L37.5,394.041v5.774Z"/>
    <path class="top-prim" d="M42.5,402.702l5-2.887,28.75,16.599v5.773Z"/>
    <path class="exterior-R-prim" d="M47.5,399.815V385.3809l-5-2.8869v20.208Z"/>
    <path class="exterior-R-prim" d="M8.75,377.4429V363.009l-5-2.887v20.207Z"/>
    <path class="exterior-R-prim" d="M86.25,422.187V407.754l-5-2.887v20.207Z"/>
    <path class="window-L-prim" d="M115,164.586,81.25,145.1v20.207L115,184.793Z"/>
    <path class="window-L-prim" d="M76.25,142.213,42.5,122.728v20.207L76.25,162.42Z"/>
    <path class="window-L-prim" d="M37.5,119.841,3.75,100.355v20.208L37.5,140.048Z"/>
    <path class="top-prim" d="M81.25,165.307l5-2.887L115,179.019v5.774Z"/>
    <path class="top-prim" d="M3.75,120.563l5-2.887L37.5,134.275v5.773Z"/>
    <path class="top-prim" d="M42.5,142.935l5-2.887,28.75,16.599v5.773Z"/>
    <path class="exterior-R-prim" d="M47.5,140.048V125.614l-5-2.886v20.207Z"/>
    <path class="exterior-R-prim" d="M8.75,117.676V103.242l-5-2.887v20.208Z"/>
    <path class="exterior-R-prim" d="M86.25,162.42V147.987l-5-2.887v20.207Z"/>
    <path class="window-L-prim" d="M115,268.468,81.25,248.982v20.207L115,288.675Z"/>
    <path class="window-L-prim" d="M76.25,246.095,42.5,226.61V246.817l33.75,19.486Z"/>
    <path class="window-L-prim" d="M37.5,223.723,3.75,204.238v20.207L37.5,243.93Z"/>
    <path class="top-prim" d="M81.25,269.189l5-2.886L115,282.902v5.773Z"/>
    <path class="top-prim" d="M3.75,224.445l5-2.8871,28.75,16.599V243.93Z"/>
    <path class="top-prim" d="M42.5,246.817l5-2.887,28.75,16.599v5.774Z"/>
    <path class="exterior-R-prim" d="M47.5,243.93V229.497l-5-2.8871V246.817Z"/>
    <path class="exterior-R-prim" d="M8.75,221.5579V207.124l-5-2.886v20.207Z"/>
    <path class="exterior-R-prim" d="M86.25,266.303V251.869l-5-2.887v20.207Z"/>
    <path class="window-L-prim" d="M115,372.3909,81.25,352.905v20.208L115,392.598Z"/>
    <path class="window-L-prim" d="M76.25,350.019,42.5,330.533V350.74L76.25,370.226Z"/>
    <path class="window-L-prim" d="M37.5,327.6459,3.75,308.1609V328.368L37.5,347.853Z"/>
    <path class="top-prim" d="M81.25,373.112l5-2.886L115,386.825v5.773Z"/>
    <path class="top-prim" d="M3.75,328.368l5-2.887L37.5,342.08v5.773Z"/>
    <path class="top-prim" d="M42.5,350.74l5-2.8869,28.75,16.599v5.774Z"/>
    <path class="exterior-R-prim" d="M47.5,347.853V333.42l-5-2.887V350.74Z"/>
    <path class="exterior-R-prim" d="M8.75,325.481V311.0469l-5-2.886V328.368Z"/>
    <path class="exterior-R-prim" d="M86.25,370.226V355.7919l-5-2.8869v20.208Z"/>
    <path class="window-L-prim" d="M115,216.5469,81.25,197.061v20.208L115,236.754Z"/>
    <path class="window-L-prim" d="M76.25,194.175,42.5,174.689v20.2069L76.25,214.382Z"/>
    <path class="window-L-prim" d="M37.5,171.802,3.75,152.317v20.207L37.5,192.01Z"/>
    <path class="top-prim" d="M81.25,217.269l5-2.887L115,230.981v5.773Z"/>
    <path class="top-prim" d="M3.75,172.524l5-2.887L37.5,186.236V192.01Z"/>
    <path class="top-prim" d="M42.5,194.8959l5-2.886L76.25,208.608v5.774Z"/>
    <path class="exterior-R-prim" d="M47.5,192.01V177.576l-5-2.887v20.2069Z"/>
    <path class="exterior-R-prim" d="M8.75,169.637V155.204l-5-2.887v20.207Z"/>
    <path class="exterior-R-prim" d="M86.25,214.382V199.9479l-5-2.8869v20.208Z"/>
    <path class="window-L-prim" d="M115,320.429,81.25,300.944v20.2069L115,340.637Z"/>
    <path class="window-L-prim" d="M76.25,298.0569,42.5,278.571v20.208l33.75,19.485Z"/>
    <path class="window-L-prim" d="M37.5,275.685,3.75,256.199v20.2069L37.5,295.892Z"/>
    <path class="top-prim" d="M81.25,321.1509l5-2.8869L115,334.863v5.774Z"/>
    <path class="top-prim" d="M3.75,276.4059l5-2.8859L37.5,290.118v5.774Z"/>
    <path class="top-prim" d="M42.5,298.779l5-2.887,28.75,16.599v5.773Z"/>
    <path class="exterior-R-prim" d="M47.5,295.892V281.4579l-5-2.8869v20.208Z"/>
    <path class="exterior-R-prim" d="M8.75,273.52V259.086l-5-2.887v20.2069Z"/>
    <path class="exterior-R-prim" d="M86.25,318.264V303.83l-5-2.886v20.2069Z"/>
    <path class="top-prim" d="M158.75,243.2089l-5-2.8869L125,256.921v5.773Z"/>
    <path class="top-prim" d="M236.25,198.4639l-5-2.8869L202.5,212.176v5.774Z"/>
    <path class="top-prim" d="M197.5,220.836l-5-2.886-28.75,16.598v5.774Z"/>
    <path class="top-prim" d="M275,176.092l-5-2.887-28.75,16.599v5.773Z"/>
    <path class="exterior-L-prim" d="M270,173.205V158.771l5-2.887v20.208Z"/>
    <path class="exterior-L-prim" d="M192.5,217.95V203.5159l5-2.8869v20.207Z"/>
    <path class="exterior-L-prim" d="M231.25,195.577V181.144l5-2.887v20.2069Z"/>
    <path class="exterior-L-prim" d="M153.75,240.322V225.888l5-2.887v20.2079Z"/>
    <path class="top-prim" d="M158.75,347.132l-5-2.8871L125,360.8439v5.7731Z"/>
    <path class="top-prim" d="M236.25,302.387l-5-2.8871-28.75,16.599v5.7741Z"/>
    <path class="top-prim" d="M197.5,324.759l-5-2.886-28.75,16.598v5.7739Z"/>
    <path class="top-prim" d="M275,280.015l-5-2.887-28.75,16.599V299.5Z"/>
    <path class="exterior-L-prim" d="M270,277.128V262.694l5-2.8861V280.015Z"/>
    <path class="exterior-L-prim" d="M192.5,321.873V307.439l5-2.8871V324.759Z"/>
    <path class="exterior-L-prim" d="M231.25,299.5V285.067l5-2.887v20.207Z"/>
    <path class="exterior-L-prim" d="M153.75,344.2449V329.811l5-2.887v20.208Z"/>
    <path class="top-prim" d="M158.75,191.288l-5-2.8871L125,205v5.7741Z"/>
    <path class="top-prim" d="M236.25,146.543l-5-2.886L202.5,160.255v5.774Z"/>
    <path class="top-prim" d="M197.5,168.916l-5-2.887-28.75,16.599v5.7729Z"/>
    <path class="top-prim" d="M275,124.171l-5-2.887-28.75,16.599v5.774Z"/>
    <path class="exterior-L-prim" d="M270,121.284V106.85l5-2.886v20.207Z"/>
    <path class="exterior-L-prim" d="M192.5,166.029V151.595l5-2.887v20.208Z"/>
    <path class="exterior-L-prim" d="M231.25,143.657V129.223l5-2.887v20.207Z"/>
    <path class="exterior-L-prim" d="M153.75,188.4009V173.967l5-2.886v20.207Z"/>
    <path class="top-prim" d="M158.75,295.17l-5-2.887L125,308.882v5.7739Z"/>
    <path class="top-prim" d="M236.25,250.426l-5-2.887L202.5,264.138v5.7729Z"/>
    <path class="top-prim" d="M197.5,272.798l-5-2.8871L163.75,286.51v5.7731Z"/>
    <path class="top-prim" d="M275,228.053l-5-2.887-28.75,16.599v5.774Z"/>
    <path class="exterior-L-prim" d="M270,225.166V210.733l5-2.887v20.207Z"/>
    <path class="exterior-L-prim" d="M192.5,269.9109V255.477l5-2.886v20.207Z"/>
    <path class="exterior-L-prim" d="M231.25,247.539V233.1049l5-2.8869v20.208Z"/>
    <path class="exterior-L-prim" d="M153.75,292.283V277.85l5-2.887V295.17Z"/>
    <path class="top-prim" d="M158.75,399.093l-5-2.887L125,412.805v5.774Z"/>
    <path class="top-prim" d="M236.25,354.3489l-5-2.8869L202.5,368.061v5.7729Z"/>
    <path class="top-prim" d="M197.5,376.721l-5-2.8871-28.75,16.599v5.7741Z"/>
    <path class="top-prim" d="M275,331.976l-5-2.886-28.75,16.5979v5.7741Z"/>
    <path class="exterior-L-prim" d="M270,329.09V314.6559l5-2.8869v20.207Z"/>
    <path class="exterior-L-prim" d="M192.5,373.8339V359.4l5-2.886v20.207Z"/>
    <path class="exterior-L-prim" d="M231.25,351.462V337.028l5-2.8871v20.208Z"/>
    <path class="exterior-L-prim" d="M153.75,396.207V381.773l5-2.8871V399.093Z"/>
    <path class="top-prim" d="M158.75,425.074l-5-2.887L125,438.7859V444.56Z"/>
    <path class="top-prim" d="M236.25,380.329l-5-2.8861L202.5,394.041v5.774Z"/>
    <path class="top-prim" d="M197.5,402.702l-5-2.887-28.75,16.599v5.773Z"/>
    <path class="top-prim" d="M275,357.957l-5-2.887-28.75,16.599v5.7739Z"/>
    <path class="exterior-L-prim" d="M270,355.07V340.637l5-2.8871V357.957Z"/>
    <path class="exterior-L-prim" d="M192.5,399.815V385.3809l5-2.8869v20.208Z"/>
    <path class="exterior-L-prim" d="M231.25,377.4429V363.009l5-2.887v20.207Z"/>
    <path class="exterior-L-prim" d="M153.75,422.187V407.754l5-2.887v20.207Z"/>
    <path class="top-prim" d="M158.75,165.307l-5-2.887L125,179.019v5.774Z"/>
    <path class="top-prim" d="M236.25,120.563l-5-2.887L202.5,134.275v5.773Z"/>
    <path class="top-prim" d="M197.5,142.935l-5-2.887-28.75,16.599v5.773Z"/>
    <path class="top-prim" d="M275,98.19l-5-2.887-28.75,16.599v5.774Z"/>
    <path class="exterior-L-prim" d="M270,95.303V80.87l5-2.887V98.19Z"/>
    <path class="exterior-L-prim" d="M192.5,140.048V125.614l5-2.886v20.207Z"/>
    <path class="exterior-L-prim" d="M231.25,117.676V103.242l5-2.887v20.208Z"/>
    <path class="exterior-L-prim" d="M153.75,162.42V147.987l5-2.887v20.207Z"/>
    <path class="top-prim" d="M158.75,269.189l-5-2.886L125,282.902v5.773Z"/>
    <path class="top-prim" d="M236.25,224.445l-5-2.8871-28.75,16.599V243.93Z"/>
    <path class="top-prim" d="M197.5,246.817l-5-2.887-28.75,16.599v5.774Z"/>
    <path class="top-prim" d="M275,202.072l-5-2.886-28.75,16.599v5.7729Z"/>
    <path class="exterior-L-prim" d="M270,199.186V184.752l5-2.887v20.207Z"/>
    <path class="exterior-L-prim" d="M192.5,243.93V229.497l5-2.8871V246.817Z"/>
    <path class="exterior-L-prim" d="M231.25,221.5579V207.124l5-2.886v20.207Z"/>
    <path class="exterior-L-prim" d="M153.75,266.303V251.869l5-2.887v20.207Z"/>
    <path class="top-prim" d="M158.75,373.112l-5-2.886L125,386.825v5.773Z"/>
    <path class="top-prim" d="M236.25,328.368l-5-2.887L202.5,342.08v5.773Z"/>
    <path class="top-prim" d="M197.5,350.74l-5-2.8869-28.75,16.599v5.774Z"/>
    <path class="top-prim" d="M275,305.996l-5-2.8871-28.75,16.599v5.7731Z"/>
    <path class="exterior-L-prim" d="M270,303.1089V288.675l5-2.887v20.208Z"/>
    <path class="exterior-L-prim" d="M192.5,347.853V333.42l5-2.887V350.74Z"/>
    <path class="exterior-L-prim" d="M231.25,325.481V311.0469l5-2.886V328.368Z"/>
    <path class="exterior-L-prim" d="M153.75,370.226V355.7919l5-2.8869v20.208Z"/>
    <path class="top-prim" d="M158.75,217.269l-5-2.887L125,230.981v5.773Z"/>
    <path class="top-prim" d="M236.25,172.524l-5-2.887L202.5,186.236V192.01Z"/>
    <path class="top-prim" d="M197.5,194.8959l-5-2.886L163.75,208.608v5.774Z"/>
    <path class="top-prim" d="M275,150.152l-5-2.887-28.75,16.599v5.773Z"/>
    <path class="exterior-L-prim" d="M270,147.265V132.831l5-2.887v20.208Z"/>
    <path class="exterior-L-prim" d="M192.5,192.01V177.576l5-2.887v20.2069Z"/>
    <path class="exterior-L-prim" d="M231.25,169.637V155.204l5-2.887v20.207Z"/>
    <path class="exterior-L-prim" d="M153.75,214.382V199.9479l5-2.8869v20.208Z"/>
    <path class="top-prim" d="M158.75,321.1509l-5-2.8869L125,334.863v5.774Z"/>
    <path class="top-prim" d="M236.25,276.4059l-5-2.8859L202.5,290.118v5.774Z"/>
    <path class="top-prim" d="M197.5,298.779l-5-2.887-28.75,16.599v5.773Z"/>
    <path class="top-prim" d="M275,254.034l-5-2.887-28.75,16.599v5.774Z"/>
    <path class="exterior-L-prim" d="M270,251.147V236.713l5-2.886v20.207Z"/>
    <path class="exterior-L-prim" d="M192.5,295.892V281.4579l5-2.8869v20.208Z"/>
    <path class="exterior-L-prim" d="M231.25,273.52V259.086l5-2.887v20.2069Z"/>
    <path class="exterior-L-prim" d="M153.75,318.264V303.83l5-2.886v20.2069Z"/>
  </g>
</svg>
