<svg id="root" xmlns="http://www.w3.org/2000/svg" viewBox="0 0 280 479.201">
  <defs>
    <style>
      .top-dark {
        fill: #c67471;
      }

      .exterior-R-prim {
        fill: #d15752;
      }

      .window-R-prim {
        fill: #bc9563;
      }

      .exterior-L-prim {
        fill: #74302f;
      }

      .window-L-prim {
        fill: #4e3b24;
      }

      .top-prim {
        fill: #dd8986;
      }
    </style>
  </defs>
  <title>1Artboard 24</title>
  <g id="root-2" data-name="root">
    <path id="anchor_0_161.639_280.27" class="top-dark" d="M0,95.263V92.376L159.9258,0,280,69.282v2.887L120,164.545Z"/>
    <path class="exterior-R-prim" d="M120,161.658l-2.426-1.443V477.757L120,479.201l160-92.376V69.282Z"/>
    <path class="window-R-prim" d="M125,164.586,158.75,145.1v20.207L125,184.793Z"/>
    <path class="window-R-prim" d="M163.75,142.213l33.75-19.485v20.207l-33.75,19.486Z"/>
    <path class="window-R-prim" d="M202.5,119.841l33.75-19.485v20.207L202.5,140.048Z"/>
    <path class="window-R-prim" d="M241.25,97.469,275,77.983V98.19l-33.75,19.486Z"/>
    <path class="window-R-prim" d="M125,268.468l33.75-19.4859V269.19L125,288.675Z"/>
    <path class="window-R-prim" d="M163.75,246.0959,197.5,226.61v20.207l-33.75,19.486Z"/>
    <path class="window-R-prim" d="M202.5,223.723l33.75-19.485v20.2069L202.5,243.931Z"/>
    <path class="window-R-prim" d="M241.25,201.351,275,181.865v20.208l-33.75,19.485Z"/>
    <path class="window-R-prim" d="M125,372.391l33.75-19.485v20.207L125,392.598Z"/>
    <path class="window-R-prim" d="M163.75,350.019l33.75-19.486V350.74l-33.75,19.486Z"/>
    <path class="window-R-prim" d="M202.5,327.646l33.75-19.485v20.207L202.5,347.854Z"/>
    <path class="window-R-prim" d="M241.25,305.274,275,285.7889V305.996l-33.75,19.485Z"/>
    <path class="window-R-prim" d="M125,216.547l33.75-19.485v20.207L125,236.755Z"/>
    <path class="window-R-prim" d="M163.75,194.175l33.75-19.486v20.208l-33.75,19.485Z"/>
    <path class="window-R-prim" d="M202.5,171.803l33.75-19.486v20.207L202.5,192.01Z"/>
    <path class="window-R-prim" d="M241.25,149.43,275,129.945v20.207l-33.75,19.486Z"/>
    <path class="window-R-prim" d="M125,320.43l33.75-19.4861v20.207L125,340.637Z"/>
    <path class="window-R-prim" d="M163.75,298.057l33.75-19.485v20.2071L163.75,318.264Z"/>
    <path class="window-R-prim" d="M202.5,275.6851l33.75-19.4861v20.208L202.5,295.892Z"/>
    <path class="window-R-prim" d="M241.25,253.313,275,233.827v20.2071L241.25,273.52Z"/>
    <path class="window-R-prim" d="M125,424.353l33.75-19.4861V425.074L125,444.56Z"/>
    <path class="window-R-prim" d="M163.75,401.98l33.75-19.485v20.207l-33.75,19.486Z"/>
    <path class="window-R-prim" d="M202.5,379.608l33.75-19.4861V380.33L202.5,399.8149Z"/>
    <path class="window-R-prim" d="M241.25,357.236,275,337.75v20.207l-33.75,19.486Z"/>
    <path class="window-R-prim" d="M125,450.333l33.75-19.485v20.2071L125,470.541Z"/>
    <path class="window-R-prim" d="M163.75,427.9609,197.5,408.475v20.208l-33.75,19.485Z"/>
    <path class="window-R-prim" d="M202.5,405.589l33.75-19.486V406.31L202.5,425.796Z"/>
    <path class="window-R-prim" d="M241.25,383.2159,275,363.731v20.207l-33.75,19.486Z"/>
    <path class="window-R-prim" d="M125,190.567l33.75-19.486v20.207L125,210.774Z"/>
    <path class="window-R-prim" d="M163.75,168.194l33.75-19.485v20.207l-33.75,19.485Z"/>
    <path class="window-R-prim" d="M202.5,145.822l33.75-19.486v20.208L202.5,166.029Z"/>
    <path class="window-R-prim" d="M241.25,123.45,275,103.964v20.207l-33.75,19.486Z"/>
    <path class="window-R-prim" d="M125,294.449l33.75-19.486V295.17L125,314.656Z"/>
    <path class="window-R-prim" d="M163.75,272.076l33.75-19.4851V272.798l-33.75,19.4861Z"/>
    <path class="window-R-prim" d="M202.5,249.704l33.75-19.485v20.207L202.5,269.911Z"/>
    <path class="window-R-prim" d="M241.25,227.332,275,207.846v20.208l-33.75,19.4849Z"/>
    <path class="window-R-prim" d="M125,398.3719l33.75-19.4859v20.208L125,418.579Z"/>
    <path class="window-R-prim" d="M163.75,376l33.75-19.486v20.2069L163.75,396.207Z"/>
    <path class="window-R-prim" d="M202.5,353.627l33.75-19.485v20.207L202.5,373.834Z"/>
    <path class="window-R-prim" d="M241.25,331.255,275,311.769v20.2081L241.25,351.462Z"/>
    <path class="window-R-prim" d="M125,242.528l33.75-19.486V243.25L125,262.735Z"/>
    <path class="window-R-prim" d="M163.75,220.156,197.5,200.67v20.207l-33.75,19.486Z"/>
    <path class="window-R-prim" d="M202.5,197.783l33.75-19.485v20.207L202.5,217.991Z"/>
    <path class="window-R-prim" d="M241.25,175.411,275,155.925v20.208l-33.75,19.485Z"/>
    <path class="window-R-prim" d="M125,346.41l33.75-19.485v20.207L125,366.618Z"/>
    <path class="window-R-prim" d="M163.75,324.038l33.75-19.486V324.76l-33.75,19.485Z"/>
    <path class="window-R-prim" d="M202.5,301.666,236.25,282.18V302.387L202.5,321.873Z"/>
    <path class="window-R-prim" d="M241.25,279.293,275,259.808v20.207l-33.75,19.486Z"/>
    <path class="exterior-L-prim" d="M120,161.658V479.201L0,409.9189V92.376Z"/>
    <path class="window-L-prim" d="M115,164.586,81.25,145.1v20.207L115,184.793Z"/>
    <path class="window-L-prim" d="M76.25,142.213,42.5,122.728v20.207l33.75,19.486Z"/>
    <path class="window-L-prim" d="M37.5,119.841,3.75,100.356v20.207L37.5,140.048Z"/>
    <path class="top-prim" d="M81.25,165.307l5-2.886L115,179.02v5.773Z"/>
    <path class="top-prim" d="M3.75,120.563l5-2.887L37.5,134.275v5.773Z"/>
    <path class="top-prim" d="M42.5,142.935l5-2.887,28.75,16.599v5.774Z"/>
    <path class="exterior-R-prim" d="M47.5,140.048V125.615l-5-2.887v20.207Z"/>
    <path class="exterior-R-prim" d="M8.75,117.676V103.242l-5-2.886v20.207Z"/>
    <path class="exterior-R-prim" d="M86.25,162.421V147.987l-5-2.887v20.207Z"/>
    <path class="window-L-prim" d="M115,268.468,81.25,248.9821V269.19L115,288.675Z"/>
    <path class="window-L-prim" d="M76.25,246.0959,42.5,226.61v20.207l33.75,19.486Z"/>
    <path class="window-L-prim" d="M37.5,223.723,3.75,204.238v20.2069L37.5,243.931Z"/>
    <path class="top-prim" d="M81.25,269.19l5-2.8869L115,282.902v5.773Z"/>
    <path class="top-prim" d="M3.75,224.4449l5-2.8869L37.5,238.157v5.774Z"/>
    <path class="top-prim" d="M42.5,246.817l5-2.886,28.75,16.5981v5.7739Z"/>
    <path class="exterior-R-prim" d="M47.5,243.931V229.4969l-5-2.8869v20.207Z"/>
    <path class="exterior-R-prim" d="M8.75,221.558V207.125l-5-2.887v20.2069Z"/>
    <path class="exterior-R-prim" d="M86.25,266.303V251.869l-5-2.8869V269.19Z"/>
    <path class="window-L-prim" d="M115,372.391,81.25,352.905v20.208L115,392.598Z"/>
    <path class="window-L-prim" d="M76.25,350.019,42.5,330.533V350.74l33.75,19.486Z"/>
    <path class="window-L-prim" d="M37.5,327.646,3.75,308.161v20.207L37.5,347.854Z"/>
    <path class="top-prim" d="M81.25,373.113l5-2.887L115,386.825v5.773Z"/>
    <path class="top-prim" d="M3.75,328.368l5-2.887L37.5,342.08v5.774Z"/>
    <path class="top-prim" d="M42.5,350.74l5-2.886,28.75,16.598v5.774Z"/>
    <path class="exterior-R-prim" d="M47.5,347.854V333.42l-5-2.887V350.74Z"/>
    <path class="exterior-R-prim" d="M8.75,325.481V311.048l-5-2.887v20.207Z"/>
    <path class="exterior-R-prim" d="M86.25,370.226V355.792l-5-2.887v20.208Z"/>
    <path class="window-L-prim" d="M115,216.547,81.25,197.062v20.207L115,236.755Z"/>
    <path class="window-L-prim" d="M76.25,194.175,42.5,174.689v20.208l33.75,19.485Z"/>
    <path class="window-L-prim" d="M37.5,171.803,3.75,152.317v20.207L37.5,192.01Z"/>
    <path class="top-prim" d="M81.25,217.269l5-2.887L115,230.981v5.774Z"/>
    <path class="top-prim" d="M3.75,172.524l5-2.886L37.5,186.236v5.774Z"/>
    <path class="top-prim" d="M42.5,194.897l5-2.887,28.75,16.599v5.773Z"/>
    <path class="exterior-R-prim" d="M47.5,192.01V177.576l-5-2.887v20.208Z"/>
    <path class="exterior-R-prim" d="M8.75,169.638V155.204l-5-2.887v20.207Z"/>
    <path class="exterior-R-prim" d="M86.25,214.382V199.948l-5-2.886v20.207Z"/>
    <path class="window-L-prim" d="M115,320.43,81.25,300.944v20.207L115,340.637Z"/>
    <path class="window-L-prim" d="M76.25,298.057,42.5,278.572v20.2071L76.25,318.264Z"/>
    <path class="window-L-prim" d="M37.5,275.6851,3.75,256.199v20.208L37.5,295.892Z"/>
    <path class="top-prim" d="M81.25,321.151l5-2.887L115,334.863v5.774Z"/>
    <path class="top-prim" d="M3.75,276.407l5-2.887L37.5,290.119v5.773Z"/>
    <path class="top-prim" d="M42.5,298.7791l5-2.8871,28.75,16.599v5.773Z"/>
    <path class="exterior-R-prim" d="M47.5,295.892V281.458l-5-2.886v20.2071Z"/>
    <path class="exterior-R-prim" d="M8.75,273.52V259.0859l-5-2.8869v20.208Z"/>
    <path class="exterior-R-prim" d="M86.25,318.264V303.8311l-5-2.8871v20.207Z"/>
    <path class="window-L-prim" d="M115,424.353,81.25,404.8669V425.074L115,444.56Z"/>
    <path class="window-L-prim" d="M76.25,401.98,42.5,382.495v20.207l33.75,19.485Z"/>
    <path class="window-L-prim" d="M37.5,379.608,3.75,360.1219V380.33L37.5,399.8149Z"/>
    <path class="top-prim" d="M81.25,425.074l5-2.887L115,438.786V444.56Z"/>
    <path class="top-prim" d="M3.75,380.33l5-2.887L37.5,394.042v5.7729Z"/>
    <path class="top-prim" d="M42.5,402.702l5-2.8871,28.75,16.599v5.7741Z"/>
    <path class="exterior-R-prim" d="M47.5,399.8149V385.381l-5-2.886v20.207Z"/>
    <path class="exterior-R-prim" d="M8.75,377.443V363.009l-5-2.8871V380.33Z"/>
    <path class="exterior-R-prim" d="M86.25,422.188V407.754l-5-2.8871V425.074Z"/>
    <path class="window-L-prim" d="M115,450.333,81.25,430.848v20.2071L115,470.541Z"/>
    <path class="window-L-prim" d="M76.25,427.9609,42.5,408.475v20.208l33.75,19.485Z"/>
    <path class="window-L-prim" d="M37.5,405.589,3.75,386.103V406.31L37.5,425.796Z"/>
    <path class="top-prim" d="M81.25,451.0551l5-2.8871L115,464.767v5.774Z"/>
    <path class="top-prim" d="M3.75,406.31l5-2.8861L37.5,420.022v5.774Z"/>
    <path class="top-prim" d="M42.5,428.683l5-2.887,28.75,16.599v5.773Z"/>
    <path class="exterior-R-prim" d="M47.5,425.796V411.3619l-5-2.8869v20.208Z"/>
    <path class="exterior-R-prim" d="M8.75,403.424V388.99l-5-2.887V406.31Z"/>
    <path class="exterior-R-prim" d="M86.25,448.168V433.735l-5-2.887v20.2071Z"/>
    <path class="window-L-prim" d="M115,190.567,81.25,171.081v20.207L115,210.774Z"/>
    <path class="window-L-prim" d="M76.25,168.194,42.5,148.709v20.207l33.75,19.485Z"/>
    <path class="window-L-prim" d="M37.5,145.822,3.75,126.336v20.208L37.5,166.029Z"/>
    <path class="top-prim" d="M81.25,191.288l5-2.887L115,205v5.774Z"/>
    <path class="top-prim" d="M3.75,146.544l5-2.887L37.5,160.256v5.773Z"/>
    <path class="top-prim" d="M42.5,168.916l5-2.887,28.75,16.599v5.773Z"/>
    <path class="exterior-R-prim" d="M47.5,166.029V151.595l-5-2.886v20.207Z"/>
    <path class="exterior-R-prim" d="M8.75,143.657V129.223l-5-2.887v20.208Z"/>
    <path class="exterior-R-prim" d="M86.25,188.401V173.968l-5-2.887v20.207Z"/>
    <path class="window-L-prim" d="M115,294.449,81.25,274.963V295.17L115,314.656Z"/>
    <path class="window-L-prim" d="M76.25,272.076,42.5,252.5909V272.798l33.75,19.4861Z"/>
    <path class="window-L-prim" d="M37.5,249.704,3.75,230.219v20.207L37.5,269.911Z"/>
    <path class="top-prim" d="M81.25,295.17l5-2.8859L115,308.8831v5.7729Z"/>
    <path class="top-prim" d="M3.75,250.426l5-2.8871,28.75,16.599v5.7731Z"/>
    <path class="top-prim" d="M42.5,272.798l5-2.887L76.25,286.51v5.7741Z"/>
    <path class="exterior-R-prim" d="M47.5,269.911V255.478l-5-2.8871V272.798Z"/>
    <path class="exterior-R-prim" d="M8.75,247.5389V233.105l-5-2.886v20.207Z"/>
    <path class="exterior-R-prim" d="M86.25,292.2841V277.85l-5-2.887V295.17Z"/>
    <path class="window-L-prim" d="M115,398.3719,81.25,378.886v20.208L115,418.579Z"/>
    <path class="window-L-prim" d="M76.25,376,42.5,356.514v20.2069L76.25,396.207Z"/>
    <path class="window-L-prim" d="M37.5,353.627,3.75,334.142v20.207L37.5,373.834Z"/>
    <path class="top-prim" d="M81.25,399.093l5-2.886L115,412.806v5.773Z"/>
    <path class="top-prim" d="M3.75,354.349l5-2.887L37.5,368.061v5.773Z"/>
    <path class="top-prim" d="M42.5,376.7209l5-2.8869,28.75,16.599v5.774Z"/>
    <path class="exterior-R-prim" d="M47.5,373.834V359.401l-5-2.887v20.2069Z"/>
    <path class="exterior-R-prim" d="M8.75,351.462V337.028l-5-2.886v20.207Z"/>
    <path class="exterior-R-prim" d="M86.25,396.207V381.7729l-5-2.8869v20.208Z"/>
    <path class="window-L-prim" d="M115,242.528,81.25,223.042V243.25L115,262.735Z"/>
    <path class="window-L-prim" d="M76.25,220.156,42.5,200.67v20.207l33.75,19.486Z"/>
    <path class="window-L-prim" d="M37.5,197.783,3.75,178.298v20.207L37.5,217.991Z"/>
    <path class="top-prim" d="M81.25,243.25l5-2.887L115,256.962v5.773Z"/>
    <path class="top-prim" d="M3.75,198.505l5-2.887L37.5,212.217v5.774Z"/>
    <path class="top-prim" d="M42.5,220.877l5-2.886,28.75,16.598v5.774Z"/>
    <path class="exterior-R-prim" d="M47.5,217.991V203.557l-5-2.887v20.207Z"/>
    <path class="exterior-R-prim" d="M8.75,195.618V181.185l-5-2.887v20.207Z"/>
    <path class="exterior-R-prim" d="M86.25,240.363V225.929l-5-2.887V243.25Z"/>
    <path class="window-L-prim" d="M115,346.41,81.25,326.925v20.207L115,366.618Z"/>
    <path class="window-L-prim" d="M76.25,324.038,42.5,304.552V324.76l33.75,19.485Z"/>
    <path class="window-L-prim" d="M37.5,301.666,3.75,282.18V302.387L37.5,321.873Z"/>
    <path class="top-prim" d="M81.25,347.132l5-2.887L115,360.844v5.774Z"/>
    <path class="top-prim" d="M3.75,302.387l5-2.886L37.5,316.099v5.774Z"/>
    <path class="top-prim" d="M42.5,324.76l5-2.887,28.75,16.599v5.773Z"/>
    <path class="exterior-R-prim" d="M47.5,321.873V307.439l-5-2.887V324.76Z"/>
    <path class="exterior-R-prim" d="M8.75,299.501V285.067l-5-2.8869V302.387Z"/>
    <path class="exterior-R-prim" d="M86.25,344.245V329.811l-5-2.886v20.207Z"/>
    <path class="top-prim" d="M158.75,165.307l-5-2.886L125,179.02v5.773Z"/>
    <path class="top-prim" d="M236.25,120.563l-5-2.887L202.5,134.275v5.773Z"/>
    <path class="top-prim" d="M197.5,142.935l-5-2.887-28.75,16.599v5.774Z"/>
    <path class="top-prim" d="M275,98.19l-5-2.886-28.75,16.599v5.773Z"/>
    <path class="exterior-L-prim" d="M270,95.304V80.87l5-2.887V98.19Z"/>
    <path class="exterior-L-prim" d="M192.5,140.048V125.615l5-2.887v20.207Z"/>
    <path class="exterior-L-prim" d="M231.25,117.676V103.242l5-2.886v20.207Z"/>
    <path class="exterior-L-prim" d="M153.75,162.421V147.987l5-2.887v20.207Z"/>
    <path class="top-prim" d="M158.75,269.19l-5-2.8869L125,282.902v5.773Z"/>
    <path class="top-prim" d="M236.25,224.4449l-5-2.8869L202.5,238.157v5.774Z"/>
    <path class="top-prim" d="M197.5,246.817l-5-2.886-28.75,16.5981v5.7739Z"/>
    <path class="top-prim" d="M275,202.073l-5-2.887-28.75,16.599v5.773Z"/>
    <path class="exterior-L-prim" d="M270,199.186V184.752l5-2.887v20.208Z"/>
    <path class="exterior-L-prim" d="M192.5,243.931V229.4969l5-2.8869v20.207Z"/>
    <path class="exterior-L-prim" d="M231.25,221.558V207.125l5-2.887v20.2069Z"/>
    <path class="exterior-L-prim" d="M153.75,266.303V251.869l5-2.8869V269.19Z"/>
    <path class="top-prim" d="M158.75,373.113l-5-2.887L125,386.825v5.773Z"/>
    <path class="top-prim" d="M236.25,328.368l-5-2.887L202.5,342.08v5.774Z"/>
    <path class="top-prim" d="M197.5,350.74l-5-2.886-28.75,16.598v5.774Z"/>
    <path class="top-prim" d="M275,305.996l-5-2.887-28.75,16.599v5.773Z"/>
    <path class="exterior-L-prim" d="M270,303.109V288.675l5-2.8861V305.996Z"/>
    <path class="exterior-L-prim" d="M192.5,347.854V333.42l5-2.887V350.74Z"/>
    <path class="exterior-L-prim" d="M231.25,325.481V311.048l5-2.887v20.207Z"/>
    <path class="exterior-L-prim" d="M153.75,370.226V355.792l5-2.887v20.208Z"/>
    <path class="top-prim" d="M158.75,217.269l-5-2.887L125,230.981v5.774Z"/>
    <path class="top-prim" d="M236.25,172.524l-5-2.886L202.5,186.236v5.774Z"/>
    <path class="top-prim" d="M197.5,194.897l-5-2.887-28.75,16.599v5.773Z"/>
    <path class="top-prim" d="M275,150.152l-5-2.887-28.75,16.599v5.774Z"/>
    <path class="exterior-L-prim" d="M270,147.265V132.831l5-2.886v20.207Z"/>
    <path class="exterior-L-prim" d="M192.5,192.01V177.576l5-2.887v20.208Z"/>
    <path class="exterior-L-prim" d="M231.25,169.638V155.204l5-2.887v20.207Z"/>
    <path class="exterior-L-prim" d="M153.75,214.382V199.948l5-2.886v20.207Z"/>
    <path class="top-prim" d="M158.75,321.151l-5-2.887L125,334.863v5.774Z"/>
    <path class="top-prim" d="M236.25,276.407l-5-2.887L202.5,290.119v5.773Z"/>
    <path class="top-prim" d="M197.5,298.7791l-5-2.8871-28.75,16.599v5.773Z"/>
    <path class="top-prim" d="M275,254.0341l-5-2.8871-28.75,16.599v5.774Z"/>
    <path class="exterior-L-prim" d="M270,251.147V236.714l5-2.887v20.2071Z"/>
    <path class="exterior-L-prim" d="M192.5,295.892V281.458l5-2.886v20.2071Z"/>
    <path class="exterior-L-prim" d="M231.25,273.52V259.0859l5-2.8869v20.208Z"/>
    <path class="exterior-L-prim" d="M153.75,318.264V303.8311l5-2.8871v20.207Z"/>
    <path class="top-prim" d="M158.75,425.074l-5-2.887L125,438.786V444.56Z"/>
    <path class="top-prim" d="M236.25,380.33l-5-2.887L202.5,394.042v5.7729Z"/>
    <path class="top-prim" d="M197.5,402.702l-5-2.8871-28.75,16.599v5.7741Z"/>
    <path class="top-prim" d="M275,357.957l-5-2.886-28.75,16.5979v5.7741Z"/>
    <path class="exterior-L-prim" d="M270,355.071V340.637l5-2.887v20.207Z"/>
    <path class="exterior-L-prim" d="M192.5,399.8149V385.381l5-2.886v20.207Z"/>
    <path class="exterior-L-prim" d="M231.25,377.443V363.009l5-2.8871V380.33Z"/>
    <path class="exterior-L-prim" d="M153.75,422.188V407.754l5-2.8871V425.074Z"/>
    <path class="top-prim" d="M158.75,451.0551l-5-2.8871L125,464.767v5.774Z"/>
    <path class="top-prim" d="M236.25,406.31l-5-2.8861L202.5,420.022v5.774Z"/>
    <path class="top-prim" d="M197.5,428.683l-5-2.887-28.75,16.599v5.773Z"/>
    <path class="top-prim" d="M275,383.938l-5-2.887L241.25,397.65v5.774Z"/>
    <path class="exterior-L-prim" d="M270,381.051V366.618l5-2.887v20.207Z"/>
    <path class="exterior-L-prim" d="M192.5,425.796V411.3619l5-2.8869v20.208Z"/>
    <path class="exterior-L-prim" d="M231.25,403.424V388.99l5-2.887V406.31Z"/>
    <path class="exterior-L-prim" d="M153.75,448.168V433.735l5-2.887v20.2071Z"/>
    <path class="top-prim" d="M158.75,191.288l-5-2.887L125,205v5.774Z"/>
    <path class="top-prim" d="M236.25,146.544l-5-2.887L202.5,160.256v5.773Z"/>
    <path class="top-prim" d="M197.5,168.916l-5-2.887-28.75,16.599v5.773Z"/>
    <path class="top-prim" d="M275,124.171l-5-2.887-28.75,16.599v5.774Z"/>
    <path class="exterior-L-prim" d="M270,121.284V106.851l5-2.887v20.207Z"/>
    <path class="exterior-L-prim" d="M192.5,166.029V151.595l5-2.886v20.207Z"/>
    <path class="exterior-L-prim" d="M231.25,143.657V129.223l5-2.887v20.208Z"/>
    <path class="exterior-L-prim" d="M153.75,188.401V173.968l5-2.887v20.207Z"/>
    <path class="top-prim" d="M158.75,295.17l-5-2.8859L125,308.8831v5.7729Z"/>
    <path class="top-prim" d="M236.25,250.426l-5-2.8871-28.75,16.599v5.7731Z"/>
    <path class="top-prim" d="M197.5,272.798l-5-2.887L163.75,286.51v5.7741Z"/>
    <path class="top-prim" d="M275,228.053l-5-2.886-28.75,16.599v5.7729Z"/>
    <path class="exterior-L-prim" d="M270,225.167V210.733l5-2.887v20.207Z"/>
    <path class="exterior-L-prim" d="M192.5,269.911V255.478l5-2.8871V272.798Z"/>
    <path class="exterior-L-prim" d="M231.25,247.5389V233.105l5-2.886v20.207Z"/>
    <path class="exterior-L-prim" d="M153.75,292.2841V277.85l5-2.887V295.17Z"/>
    <path class="top-prim" d="M158.75,399.093l-5-2.886L125,412.806v5.773Z"/>
    <path class="top-prim" d="M236.25,354.349l-5-2.887L202.5,368.061v5.773Z"/>
    <path class="top-prim" d="M197.5,376.7209l-5-2.8869-28.75,16.599v5.774Z"/>
    <path class="top-prim" d="M275,331.9771l-5-2.8871-28.75,16.599v5.773Z"/>
    <path class="exterior-L-prim" d="M270,329.09V314.656l5-2.887v20.2081Z"/>
    <path class="exterior-L-prim" d="M192.5,373.834V359.401l5-2.887v20.2069Z"/>
    <path class="exterior-L-prim" d="M231.25,351.462V337.028l5-2.886v20.207Z"/>
    <path class="exterior-L-prim" d="M153.75,396.207V381.7729l5-2.8869v20.208Z"/>
    <path class="top-prim" d="M158.75,243.25l-5-2.887L125,256.962v5.773Z"/>
    <path class="top-prim" d="M236.25,198.505l-5-2.887L202.5,212.217v5.774Z"/>
    <path class="top-prim" d="M197.5,220.877l-5-2.886-28.75,16.598v5.774Z"/>
    <path class="top-prim" d="M275,176.133l-5-2.887-28.75,16.599v5.773Z"/>
    <path class="exterior-L-prim" d="M270,173.246V158.812l5-2.887v20.208Z"/>
    <path class="exterior-L-prim" d="M192.5,217.991V203.557l5-2.887v20.207Z"/>
    <path class="exterior-L-prim" d="M231.25,195.618V181.185l5-2.887v20.207Z"/>
    <path class="exterior-L-prim" d="M153.75,240.363V225.929l5-2.887V243.25Z"/>
    <path class="top-prim" d="M158.75,347.132l-5-2.887L125,360.844v5.774Z"/>
    <path class="top-prim" d="M236.25,302.387l-5-2.886L202.5,316.099v5.774Z"/>
    <path class="top-prim" d="M197.5,324.76l-5-2.887-28.75,16.599v5.773Z"/>
    <path class="top-prim" d="M275,280.015l-5-2.8869-28.75,16.599v5.7739Z"/>
    <path class="exterior-L-prim" d="M270,277.1281V262.694l5-2.886v20.207Z"/>
    <path class="exterior-L-prim" d="M192.5,321.873V307.439l5-2.887V324.76Z"/>
    <path class="exterior-L-prim" d="M231.25,299.501V285.067l5-2.8869V302.387Z"/>
    <path class="exterior-L-prim" d="M153.75,344.245V329.811l5-2.886v20.207Z"/>
  </g>
</svg>
