<?xml version="1.0" encoding="utf-8"?>
<!-- Generator: Adobe Illustrator 22.0.0, SVG Export Plug-In . SVG Version: 6.00 Build 0)  -->
<svg version="1.1" id="Layer_1" xmlns="http://www.w3.org/2000/svg" xmlns:xlink="http://www.w3.org/1999/xlink" x="0px" y="0px"
	 viewBox="0 0 280 207.85" style="enable-background:new 0 0 280 207.85;" xml:space="preserve">
<style type="text/css">
	.st0{fill:#FFFFFF;}
	.st1{fill:#B9B9B9;}
	.st2{fill:#A2A2A2;}
	.st3{fill:#2E2E2E;}
	.st4{fill:#F9F9F9;}
	.st5{fill:#D1D1D1;}
	.st6{fill:#464646;}
</style>
<path id="Path" class="top_x002D_T1" d="M0,92.38l120,69.28l160-92.37L160,0L0,92.38z"/>
<path id="Path_1_" class="exterior_x002D_R2" d="M280,115.47V69.29l-160,92.37v46.19L280,115.47z"/>
<path id="Path_2_" class="exterior_x002D_L1" d="M0,139.2V92.38l120,69.28v46.19L0,139.2z"/>
<path id="Path_3_" class="st0" d="M151.8,160.62l96.4-55.65c0.99-0.58,1.8-0.11,1.8,1.03v7.4c0,1.14-0.81,2.54-1.8,3.11l-96.4,55.66
	c-0.99,0.57-1.8,0.11-1.8-1.04v-7.39C150,162.59,150.81,161.2,151.8,160.62z"/>
<path id="Path_4_" class="st1" d="M160,11.55l100,57.74l-140,80.82L20,92.38L160,11.55z"/>
<path id="Path_5_" class="exterior_x002D_L1" d="M160,11.55v5.77l95,54.85l5-2.88L160,11.55z"/>
<path id="Path_6_" class="exterior_x002D_R2" d="M20,92.38l140-80.83v5.77L25,95.27L20,92.38z"/>
<path id="Path_7_" class="st2" d="M50,80.83l90-51.96l30,17.32L80,98.15L50,80.83z"/>
<path id="Path_8_" class="exterior_x002D_R2" d="M140,46.19V23.1L50,75.06v5.9l15,8.53L140,46.19z"/>
<path id="Path_9_" class="st3" d="M140,46.19l15,8.66l15-8.66l-30-17.32V46.19z"/>
<g id="Group_3_">
	<path id="Path_10_" class="st4" d="M106.12,57.92l12.79,7.38L153,45.62l-12.79-7.38L106.12,57.92z"/>
	<path id="Path_11_" class="st1" d="M119,65.24v14l-13-7.5v-14L119,65.24z"/>
	<path id="Path_12_" class="st5" d="M153,45.66v13.72l-34,19.64V65.29L153,45.66z"/>
	<path id="Path_13_" class="st6" d="M121,66.4l9-5.21v10.4l-9,5.2V66.4z"/>
	<path id="Path_14_" class="st6" d="M131,60.24l9-5.2v10.39l-9,5.21V60.24z"/>
	<path id="Path_15_" class="st6" d="M142,54.09l9-5.2v10.39l-9,5.2V54.09z"/>
	<g id="Group">
		<ellipse id="Ellipse" vector-effect="non-scaling-stroke" class="st1" cx="118.6" cy="57.46" rx="4.57" ry="2.64"/>
		<rect id="Rectangle" x="114" y="54.85" class="st1" width="9" height="2"/>
		<ellipse id="Ellipse_1_" vector-effect="non-scaling-stroke" class="st0" cx="118.6" cy="55.16" rx="4.57" ry="2.64"/>
	</g>
	<g id="Group_1_">
		<ellipse id="Ellipse_2_" vector-effect="non-scaling-stroke" class="st1" cx="129.68" cy="51.26" rx="4.57" ry="2.64"/>
		<rect id="Rectangle_1_" x="125" y="48.85" class="st1" width="9" height="2"/>
		<ellipse id="Ellipse_3_" vector-effect="non-scaling-stroke" class="st0" cx="129.68" cy="48.96" rx="4.57" ry="2.64"/>
	</g>
	<g id="Group_2_">
		<ellipse id="Ellipse_4_" vector-effect="non-scaling-stroke" class="st1" cx="140.76" cy="45.06" rx="4.57" ry="2.64"/>
		<rect id="Rectangle_2_" x="136" y="42.85" class="st1" width="9" height="2"/>
		<ellipse id="Ellipse_5_" vector-effect="non-scaling-stroke" class="st0" cx="140.76" cy="42.76" rx="4.57" ry="2.64"/>
	</g>
</g>
<g id="Group_7_">
	<path id="Path_16_" class="st4" d="M68.12,79.7l12.79,7.38L115,67.4l-12.79-7.38L68.12,79.7z"/>
	<path id="Path_17_" class="st1" d="M81,87.02v14l-13-7.51V79.52L81,87.02z"/>
	<path id="Path_18_" class="st5" d="M115,67.44v13.72L81,100.8V87.07L115,67.44z"/>
	<path id="Path_19_" class="st6" d="M83,88.17l9-5.2v10.39l-9,5.2V88.17z"/>
	<path id="Path_20_" class="st6" d="M93,82.02l9-5.2v10.39l-9,5.2V82.02z"/>
	<path id="Path_21_" class="st6" d="M104,75.87l9-5.2v10.39l-9,5.2V75.87z"/>
	<g id="Group_4_">
		<ellipse id="Ellipse_6_" vector-effect="non-scaling-stroke" class="st1" cx="80.6" cy="79.24" rx="4.57" ry="2.64"/>
		<rect id="Rectangle_3_" x="76" y="76.85" class="st1" width="9" height="2"/>
		<ellipse id="Ellipse_7_" vector-effect="non-scaling-stroke" class="st0" cx="80.6" cy="76.94" rx="4.57" ry="2.64"/>
	</g>
	<g id="Group_5_">
		<ellipse id="Ellipse_8_" vector-effect="non-scaling-stroke" class="st1" cx="91.68" cy="73.04" rx="4.57" ry="2.64"/>
		<rect id="Rectangle_4_" x="87" y="70.85" class="st1" width="9" height="2"/>
		<ellipse id="Ellipse_9_" vector-effect="non-scaling-stroke" class="st0" cx="91.68" cy="70.74" rx="4.57" ry="2.64"/>
	</g>
	<g id="Group_6_">
		<ellipse id="Ellipse_10_" vector-effect="non-scaling-stroke" class="st1" cx="102.76" cy="66.84" rx="4.57" ry="2.64"/>
		<rect id="Rectangle_5_" x="98" y="64.85" class="st1" width="9" height="2"/>
		<ellipse id="Ellipse_11_" vector-effect="non-scaling-stroke" class="st0" cx="102.76" cy="64.54" rx="4.57" ry="2.64"/>
	</g>
</g>
<path id="Path_22_" class="top_x002D_T2" d="M25,95.27l25-14.44l30,17.32l90-51.96l-30-17.32l20-11.55l95,54.85l-135,77.94L25,95.27
	z"/>
</svg>
