<svg id="Layer_1" data-name="Layer 1" xmlns="http://www.w3.org/2000/svg" viewBox="0 0 270 265.582">
  <defs>
    <style>
      .top-prim {
        fill: #dd8a87;
      }

      .window-L-prim {
        fill: #4d3b24;
      }

      .window-R-prim {
        fill: #bd9664;
      }

      .exterior-R-dark {
        fill: #a64c49;
      }

      .exterior-R-prim {
        fill: #d05752;
      }

      .exterior-L-prim {
        fill: #73302e;
      }

      .cls-1 {
        fill: #bdbdbd;
      }

      .exterior-L-dark {
        fill: #512220;
      }
    </style>
  </defs>
  <title>Artboard 31</title>
  <g id="root">
    <path id="anchor_0_155.885_270" class="top-prim" d="M0,103.923V92.376L160,0,270,63.509V75.056L110,167.432Z"/>
    <path id="Path" class="window-L-prim" d="M0,98.15l110,63.509v98.149L5,199.186v5.774l-5-2.887Z"/>
    <path id="Path-2" data-name="Path" class="window-R-prim" d="M265,69.282l-155,89.49v106.81l155-89.49Z"/>
    <path id="Path-3" data-name="Path" class="exterior-R-dark" d="M260,83.716,112.5,168.875v8.661l150-86.603v-8.66Z"/>
    <path id="Path-4" data-name="Path" class="exterior-R-dark" d="M260,101.037,112.5,186.196v8.66l150-86.602V99.593Z"/>
    <path id="Path-5" data-name="Path" class="exterior-R-dark" d="M260,118.357,112.5,203.516v8.661l150-86.603v-8.66Z"/>
    <path id="Path-6" data-name="Path" class="exterior-R-dark" d="M260,135.678,112.5,220.837v8.66l150-86.602v-8.661Z"/>
    <path id="Path-7" data-name="Path" class="exterior-R-dark" d="M260,152.998,112.5,238.157v8.661l150-86.603v-8.66Z"/>
    <path id="Path-8" data-name="Path" class="exterior-R-dark" d="M260,170.319,112.5,255.478v5.773l150-86.602v-5.774Z"/>
    <path id="Path-9" data-name="Path" class="top-prim" d="M270,173.206l-5-2.887L115,256.921v5.774Z"/>
    <path id="Path-10" data-name="Path" class="exterior-R-prim" d="M105,262.695V152.998l5,2.887,5-2.887V262.695l-5,2.887Z"/>
    <path id="Path-11" data-name="Path" class="exterior-R-prim" d="M262.5,174.649V67.839l7.5-4.33V173.206l-5,2.886Z"/>
    <path id="Path-12" data-name="Path" class="exterior-L-prim" d="M7.5,99.593,0,95.263v106.81l7.5,4.33Z"/>
    <path id="Path-13" data-name="Path" class="exterior-L-prim" d="M265,66.396l-5,2.886V173.206l5,2.886Z"/>
    <path id="Path-14" data-name="Path" class="exterior-R-prim" d="M5,101.037l5,2.886v98.15L5,204.96Z"/>
    <path id="Path-15" data-name="Path" class="cls-1" d="M10,202.073,5,204.96l100,57.735v-5.774Z"/>
    <path id="Path-16" data-name="Path" class="exterior-R-prim" d="M162.5,229.497V128.461l5-2.887V229.497l-2.5,1.444Z"/>
    <path id="Path-17" data-name="Path" class="exterior-L-prim" d="M165,230.941l-2.5-1.444V128.461l2.5-1.444Z"/>
    <path id="Path-18" data-name="Path" class="exterior-R-prim" d="M172.5,223.724V122.687l5-2.886V223.724l-2.5,1.443Z"/>
    <path id="Path-19" data-name="Path" class="exterior-L-prim" d="M175,225.167l-2.5-1.443V122.687l2.5-1.443Z"/>
    <path id="Path-20" data-name="Path" class="exterior-R-prim" d="M180,219.394V118.357l5-2.887V219.394l-2.5,1.443Z"/>
    <path id="Path-21" data-name="Path" class="exterior-L-prim" d="M182.5,220.837l-2.5-1.443V118.357l2.5-1.443Z"/>
    <path id="Path-22" data-name="Path" class="exterior-R-prim" d="M190,213.62V112.584l5-2.887V213.62l-2.5,1.443Z"/>
    <path id="Path-23" data-name="Path" class="exterior-L-prim" d="M192.5,215.063,190,213.62V112.584l2.5-1.444Z"/>
    <path id="Path-24" data-name="Path" class="exterior-R-prim" d="M207.5,203.516V102.48l5-2.887V203.516L210,204.96Z"/>
    <path id="Path-25" data-name="Path" class="exterior-L-prim" d="M210,204.96l-2.5-1.444V102.48l2.5-1.443Z"/>
    <path id="Path-26" data-name="Path" class="exterior-R-prim" d="M225,193.413V92.377l5-2.887V193.413l-2.5,1.443Z"/>
    <path id="Path-27" data-name="Path" class="exterior-L-prim" d="M227.5,194.856l-2.5-1.443V92.376l2.5-1.443Z"/>
    <path id="Path-28" data-name="Path" class="exterior-R-prim" d="M242.5,183.309V82.273l5-2.887V183.309l-2.5,1.444Z"/>
    <path id="Path-29" data-name="Path" class="exterior-L-prim" d="M245,184.752l-2.5-1.443V82.273L245,80.83Z"/>
    <path id="Path-30" data-name="Path" class="exterior-R-prim" d="M197.5,209.29V108.254l5-2.887V209.29l-2.5,1.443Z"/>
    <path id="Path-31" data-name="Path" class="exterior-L-prim" d="M200,210.733l-2.5-1.443V108.254l2.5-1.444Z"/>
    <path id="Path-32" data-name="Path" class="exterior-R-prim" d="M215,199.186V98.15l5-2.887V199.186l-2.5,1.444Z"/>
    <path id="Path-33" data-name="Path" class="exterior-L-prim" d="M217.5,200.63l-2.5-1.444V98.15l2.5-1.443Z"/>
    <path id="Path-34" data-name="Path" class="exterior-R-prim" d="M232.5,189.083V88.046l5-2.886V189.083l-2.5,1.443Z"/>
    <path id="Path-35" data-name="Path" class="exterior-L-prim" d="M235,190.526l-2.5-1.443V88.046l2.5-1.443Z"/>
    <path id="Path-36" data-name="Path" class="exterior-R-prim" d="M250,178.979V75.056l5-2.887v106.81l-2.5,1.443Z"/>
    <path id="Path-37" data-name="Path" class="exterior-L-prim" d="M252.5,180.422l-2.5-1.443V75.056l2.5-1.443Z"/>
    <path id="Path-38" data-name="Path" class="exterior-R-prim" d="M120,254.035V152.998l5-2.886V254.035l-2.5,1.443Z"/>
    <path id="Path-39" data-name="Path" class="exterior-L-prim" d="M122.5,255.478l-2.5-1.443V152.998l2.5-1.443Z"/>
    <path id="Path-40" data-name="Path" class="exterior-R-prim" d="M127.5,249.704V148.668l5-2.887V249.704l-2.5,1.444Z"/>
    <path id="Path-41" data-name="Path" class="exterior-L-prim" d="M130,251.148l-2.5-1.444V148.668l2.5-1.443Z"/>
    <path id="Path-42" data-name="Path" class="exterior-R-prim" d="M137.5,243.931V142.895l5-2.887V243.931l-2.5,1.443Z"/>
    <path id="Path-43" data-name="Path" class="exterior-L-prim" d="M140,245.374l-2.5-1.443V142.895l2.5-1.444Z"/>
    <path id="Path-44" data-name="Path" class="exterior-R-prim" d="M145,239.601V138.564l5-2.886V239.601l-2.5,1.443Z"/>
    <path id="Path-45" data-name="Path" class="exterior-L-prim" d="M147.5,241.044l-2.5-1.443V138.565l2.5-1.444Z"/>
    <path id="Path-46" data-name="Path" class="exterior-R-prim" d="M155,233.827V135.678l5-2.887V233.827l-2.5,1.444Z"/>
    <path id="Path-47" data-name="Path" class="exterior-L-prim" d="M157.5,235.271l-2.5-1.444V132.791l2.5-1.443Z"/>
    <path id="Path-48" data-name="Path" class="exterior-R-prim" d="M262.5,88.046l-150,86.603v2.887l150-86.603Z"/>
    <path id="Path-49" data-name="Path" class="exterior-R-dark" d="M207.5,114.027l-5,2.887v5.773l7.5-4.33-2.5-1.443Z"/>
    <path id="Path-50" data-name="Path" class="exterior-R-dark" d="M225,103.923l-5,2.887v5.774l7.5-4.33L225,106.81Z"/>
    <path id="Path-51" data-name="Path" class="exterior-R-dark" d="M242.5,93.82l-5,2.887v5.773l7.5-4.33-2.5-1.443Z"/>
    <path id="Path-52" data-name="Path" class="exterior-R-dark" d="M190,124.131l-5,2.886v5.774l7.5-4.33-2.5-1.444Z"/>
    <path id="Path-53" data-name="Path" class="exterior-R-dark" d="M162.5,140.008l-2.5,1.443v5.774l5-2.887-2.5-1.443Z"/>
    <path id="Path-54" data-name="Path" class="exterior-R-dark" d="M145,150.111l-2.5,1.444v5.773l5-2.886-2.5-1.444Z"/>
    <path id="Path-55" data-name="Path" class="exterior-R-dark" d="M137.5,154.442l-5,2.886v5.774l7.5-4.33-2.5-1.444Z"/>
    <path id="Path-56" data-name="Path" class="exterior-R-dark" d="M197.5,119.801l-2.5,1.443v5.773l5-2.886-2.5-1.444Z"/>
    <path id="Path-57" data-name="Path" class="exterior-R-dark" d="M215,109.697l-2.5,1.443v5.774l5-2.887-2.5-1.443Z"/>
    <path id="Path-58" data-name="Path" class="exterior-R-dark" d="M232.5,99.593l-2.5,1.444v5.773l5-2.887-2.5-1.443Z"/>
    <path id="Path-59" data-name="Path" class="exterior-R-dark" d="M250,89.49l-2.5,1.443v5.774l5-2.887L250,92.376Z"/>
    <path id="Path-60" data-name="Path" class="exterior-R-dark" d="M180,129.904l-2.5,1.444v5.773l5-2.887-2.5-1.443Z"/>
    <path id="Path-61" data-name="Path" class="exterior-R-dark" d="M172.5,134.234l-5,2.887v5.774l7.5-4.331-2.5-1.443Z"/>
    <path id="Path-62" data-name="Path" class="exterior-R-dark" d="M155,144.338l-5,2.887v5.773l7.5-4.33-2.5-1.443Z"/>
    <path id="Path-63" data-name="Path" class="exterior-R-dark" d="M127.5,160.215l-2.5,1.444v5.773l5-2.887-2.5-1.443Z"/>
    <path id="Path-64" data-name="Path" class="exterior-R-dark" d="M120,164.545l-5,2.887v5.773l7.5-4.33-2.5-1.443Z"/>
    <path id="Path-65" data-name="Path" class="top-prim" d="M202.5,122.687v-2.886l5-2.887,2.5,1.443Z"/>
    <path id="Path-66" data-name="Path" class="top-prim" d="M220,112.584v-2.887l5-2.887,2.5,1.444Z"/>
    <path id="Path-67" data-name="Path" class="top-prim" d="M237.5,102.48V99.593l5-2.886L245,98.15Z"/>
    <path id="Path-68" data-name="Path" class="top-prim" d="M185,132.791v-2.887l5-2.887,2.5,1.444Z"/>
    <path id="Path-69" data-name="Path" class="top-prim" d="M160,147.225v-2.887l2.5-1.443,2.5,1.443Z"/>
    <path id="Path-70" data-name="Path" class="top-prim" d="M142.5,157.328v-2.886l2.5-1.444,2.5,1.444Z"/>
    <path id="Path-71" data-name="Path" class="top-prim" d="M132.5,163.102v-2.887l5-2.887,2.5,1.444Z"/>
    <path id="Path-72" data-name="Path" class="top-prim" d="M195,127.017v-2.886l2.5-1.444,2.5,1.444Z"/>
    <path id="Path-73" data-name="Path" class="top-prim" d="M212.5,116.914v-2.887l2.5-1.443,2.5,1.443Z"/>
    <path id="Path-74" data-name="Path" class="top-prim" d="M230,106.81v-2.887l2.5-1.443,2.5,1.443Z"/>
    <path id="Path-75" data-name="Path" class="top-prim" d="M255,92.376V89.49l5-2.887,2.5,1.443Z"/>
    <path id="Path-76" data-name="Path" class="top-prim" d="M247.5,96.707V93.82l2.5-1.444,2.5,1.444Z"/>
    <path id="Path-77" data-name="Path" class="top-prim" d="M177.5,137.121v-2.887l2.5-1.443,2.5,1.443Z"/>
    <path id="Path-78" data-name="Path" class="top-prim" d="M167.5,142.895v-2.887l5-2.887,2.5,1.443Z"/>
    <path id="Path-79" data-name="Path" class="top-prim" d="M150,152.998v-2.887l5-2.886,2.5,1.443Z"/>
    <path id="Path-80" data-name="Path" class="top-prim" d="M125,167.432v-2.887l2.5-1.443,2.5,1.443Z"/>
    <path id="Path-81" data-name="Path" class="top-prim" d="M115,173.206v-2.887l5-2.887,2.5,1.443Z"/>
    <path id="Path-82" data-name="Path" class="exterior-R-prim" d="M262.5,105.367l-150,86.602v2.887l150-86.602Z"/>
    <path id="Path-83" data-name="Path" class="exterior-R-dark" d="M207.5,131.348l-5,2.886v5.774l7.5-4.33-2.5-1.444Z"/>
    <path id="Path-84" data-name="Path" class="exterior-R-dark" d="M225,121.244l-5,2.887v5.773l7.5-4.33-2.5-1.443Z"/>
    <path id="Path-85" data-name="Path" class="exterior-R-dark" d="M242.5,111.14l-5,2.887v5.774l7.5-4.331-2.5-1.443Z"/>
    <path id="Path-86" data-name="Path" class="exterior-R-dark" d="M190,141.451l-5,2.887v5.773l7.5-4.33-2.5-1.443Z"/>
    <path id="Path-87" data-name="Path" class="exterior-R-dark" d="M162.5,157.328l-2.5,1.444v5.773l5-2.887-2.5-1.443Z"/>
    <path id="Path-88" data-name="Path" class="exterior-R-dark" d="M145,167.432l-2.5,1.443v5.774l5-2.887-2.5-1.443Z"/>
    <path id="Path-89" data-name="Path" class="exterior-R-dark" d="M137.5,171.762l-5,2.887v5.773l7.5-4.33-2.5-1.443Z"/>
    <path id="Path-90" data-name="Path" class="exterior-R-dark" d="M197.5,137.121l-2.5,1.443v5.774l5-2.887-2.5-1.443Z"/>
    <path id="Path-91" data-name="Path" class="exterior-R-dark" d="M215,127.017l-2.5,1.444v5.773l5-2.886-2.5-1.444Z"/>
    <path id="Path-92" data-name="Path" class="exterior-R-dark" d="M232.5,116.914l-2.5,1.443v5.774l5-2.887-2.5-1.443Z"/>
    <path id="Path-93" data-name="Path" class="exterior-R-dark" d="M250,106.81l-2.5,1.444v5.773l5-2.887-2.5-1.443Z"/>
    <path id="Path-94" data-name="Path" class="exterior-R-dark" d="M180,147.225l-2.5,1.443v5.774l5-2.887-2.5-1.444Z"/>
    <path id="Path-95" data-name="Path" class="exterior-R-dark" d="M172.5,151.555l-5,2.887v5.773l7.5-4.33-2.5-1.443Z"/>
    <path id="Path-96" data-name="Path" class="exterior-R-dark" d="M155,161.658l-5,2.887v5.774l7.5-4.33-2.5-1.444Z"/>
    <path id="Path-97" data-name="Path" class="exterior-R-dark" d="M127.5,177.536l-2.5,1.443v5.774l5-2.887-2.5-1.444Z"/>
    <path id="Path-98" data-name="Path" class="exterior-R-dark" d="M120,181.866l-5,2.887v5.773l7.5-4.33-2.5-1.443Z"/>
    <path id="Path-99" data-name="Path" class="top-prim" d="M202.5,140.008v-2.887l5-2.887,2.5,1.444Z"/>
    <path id="Path-100" data-name="Path" class="top-prim" d="M220,129.904v-2.887l5-2.886,2.5,1.443Z"/>
    <path id="Path-101" data-name="Path" class="top-prim" d="M237.5,119.801v-2.887l5-2.887,2.5,1.443Z"/>
    <path id="Path-102" data-name="Path" class="top-prim" d="M185,150.111v-2.886l5-2.887,2.5,1.443Z"/>
    <path id="Path-103" data-name="Path" class="top-prim" d="M160,164.545v-2.886l2.5-1.444,2.5,1.444Z"/>
    <path id="Path-104" data-name="Path" class="top-prim" d="M142.5,174.649v-2.887l2.5-1.443,2.5,1.443Z"/>
    <path id="Path-105" data-name="Path" class="top-prim" d="M132.5,180.422v-2.886l5-2.887,2.5,1.443Z"/>
    <path id="Path-106" data-name="Path" class="top-prim" d="M195,144.338v-2.887l2.5-1.443,2.5,1.443Z"/>
    <path id="Path-107" data-name="Path" class="top-prim" d="M212.5,134.234v-2.886l2.5-1.444,2.5,1.444Z"/>
    <path id="Path-108" data-name="Path" class="top-prim" d="M230,124.131v-2.887l2.5-1.443,2.5,1.443Z"/>
    <path id="Path-109" data-name="Path" class="top-prim" d="M255,109.697V106.81l5-2.887,2.5,1.444Z"/>
    <path id="Path-110" data-name="Path" class="top-prim" d="M247.5,114.027V111.14l2.5-1.443,2.5,1.443Z"/>
    <path id="Path-111" data-name="Path" class="top-prim" d="M177.5,154.442v-2.887l2.5-1.444,2.5,1.444Z"/>
    <path id="Path-112" data-name="Path" class="top-prim" d="M167.5,160.215v-2.887l5-2.886,2.5,1.443Z"/>
    <path id="Path-113" data-name="Path" class="top-prim" d="M150,170.319v-2.887l5-2.887,2.5,1.444Z"/>
    <path id="Path-114" data-name="Path" class="top-prim" d="M125,184.753v-2.887l2.5-1.444,2.5,1.444Z"/>
    <path id="Path-115" data-name="Path" class="top-prim" d="M115,190.526v-2.887l5-2.887,2.5,1.444Z"/>
    <path id="Path-116" data-name="Path" class="exterior-R-prim" d="M262.5,122.687l-150,86.603v2.887l150-86.603Z"/>
    <path id="Path-117" data-name="Path" class="exterior-R-dark" d="M207.5,148.668l-5,2.887v5.773l7.5-4.33-2.5-1.443Z"/>
    <path id="Path-118" data-name="Path" class="exterior-R-dark" d="M225,138.564l-5,2.887v5.774l7.5-4.33-2.5-1.444Z"/>
    <path id="Path-119" data-name="Path" class="exterior-R-dark" d="M242.5,128.461l-5,2.887v5.773l7.5-4.33-2.5-1.443Z"/>
    <path id="Path-120" data-name="Path" class="exterior-R-dark" d="M190,158.772l-5,2.886v5.774l7.5-4.33-2.5-1.444Z"/>
    <path id="Path-121" data-name="Path" class="exterior-R-dark" d="M162.5,174.649l-2.5,1.443v5.774l5-2.887-2.5-1.443Z"/>
    <path id="Path-122" data-name="Path" class="exterior-R-dark" d="M145,184.753l-2.5,1.443v5.773l5-2.886-2.5-1.444Z"/>
    <path id="Path-123" data-name="Path" class="exterior-R-dark" d="M137.5,189.083l-5,2.886v5.774l7.5-4.33-2.5-1.444Z"/>
    <path id="Path-124" data-name="Path" class="exterior-R-dark" d="M197.5,154.442l-2.5,1.443v5.773l5-2.886-2.5-1.444Z"/>
    <path id="Path-125" data-name="Path" class="exterior-R-dark" d="M215,144.338l-2.5,1.443v5.774l5-2.887-2.5-1.443Z"/>
    <path id="Path-126" data-name="Path" class="exterior-R-dark" d="M232.5,134.234l-2.5,1.444v5.773l5-2.887-2.5-1.443Z"/>
    <path id="Path-127" data-name="Path" class="exterior-R-dark" d="M250,124.131l-2.5,1.443v5.774l5-2.887-2.5-1.444Z"/>
    <path id="Path-128" data-name="Path" class="exterior-R-dark" d="M180,164.545l-2.5,1.444v5.773l5-2.887-2.5-1.443Z"/>
    <path id="Path-129" data-name="Path" class="exterior-R-dark" d="M172.5,168.875l-5,2.887v5.774l7.5-4.33-2.5-1.444Z"/>
    <path id="Path-130" data-name="Path" class="exterior-R-dark" d="M155,178.979l-5,2.887v5.773l7.5-4.33-2.5-1.443Z"/>
    <path id="Path-131" data-name="Path" class="exterior-R-dark" d="M127.5,194.856,125,196.3v5.773l5-2.887-2.5-1.443Z"/>
    <path id="Path-132" data-name="Path" class="exterior-R-dark" d="M120,199.186l-5,2.887v5.774l7.5-4.331-2.5-1.443Z"/>
    <path id="Path-133" data-name="Path" class="top-prim" d="M202.5,157.328v-2.886l5-2.887,2.5,1.443Z"/>
    <path id="Path-134" data-name="Path" class="top-prim" d="M220,147.225v-2.887l5-2.887,2.5,1.444Z"/>
    <path id="Path-135" data-name="Path" class="top-prim" d="M237.5,137.121v-2.887l5-2.886,2.5,1.443Z"/>
    <path id="Path-136" data-name="Path" class="top-prim" d="M185,167.432v-2.887l5-2.887,2.5,1.444Z"/>
    <path id="Path-137" data-name="Path" class="top-prim" d="M160,181.866v-2.887l2.5-1.443,2.5,1.443Z"/>
    <path id="Path-138" data-name="Path" class="top-prim" d="M142.5,191.969v-2.886l2.5-1.444,2.5,1.444Z"/>
    <path id="Path-139" data-name="Path" class="top-prim" d="M132.5,197.743v-2.887l5-2.887,2.5,1.444Z"/>
    <path id="Path-140" data-name="Path" class="top-prim" d="M195,161.658v-2.886l2.5-1.444,2.5,1.444Z"/>
    <path id="Path-141" data-name="Path" class="top-prim" d="M212.5,151.555v-2.887l2.5-1.443,2.5,1.443Z"/>
    <path id="Path-142" data-name="Path" class="top-prim" d="M230,141.451v-2.887l2.5-1.443,2.5,1.443Z"/>
    <path id="Path-143" data-name="Path" class="top-prim" d="M255,127.017v-2.886l5-2.887,2.5,1.443Z"/>
    <path id="Path-144" data-name="Path" class="top-prim" d="M247.5,131.348v-2.887l2.5-1.444,2.5,1.444Z"/>
    <path id="Path-145" data-name="Path" class="top-prim" d="M177.5,171.762v-2.887l2.5-1.443,2.5,1.443Z"/>
    <path id="Path-146" data-name="Path" class="top-prim" d="M167.5,177.536v-2.887l5-2.887,2.5,1.444Z"/>
    <path id="Path-147" data-name="Path" class="top-prim" d="M150,187.639v-2.886l5-2.887,2.5,1.443Z"/>
    <path id="Path-148" data-name="Path" class="top-prim" d="M125,202.073v-2.887l2.5-1.443,2.5,1.443Z"/>
    <path id="Path-149" data-name="Path" class="top-prim" d="M115,207.847V204.96l5-2.887,2.5,1.443Z"/>
    <path id="Path-150" data-name="Path" class="exterior-R-prim" d="M262.5,140.008l-150,86.602v2.887l150-86.602Z"/>
    <path id="Path-151" data-name="Path" class="exterior-R-dark" d="M207.5,165.989l-5,2.886v5.774l7.5-4.33-2.5-1.444Z"/>
    <path id="Path-152" data-name="Path" class="exterior-R-dark" d="M225,155.885l-5,2.887v5.773l7.5-4.33-2.5-1.443Z"/>
    <path id="Path-153" data-name="Path" class="exterior-R-dark" d="M242.5,145.781l-5,2.887v5.774l7.5-4.331-2.5-1.443Z"/>
    <path id="Path-154" data-name="Path" class="exterior-R-dark" d="M190,176.092l-5,2.887v5.774l7.5-4.331-2.5-1.443Z"/>
    <path id="Path-155" data-name="Path" class="exterior-R-dark" d="M162.5,191.969l-2.5,1.444v5.773l5-2.886-2.5-1.444Z"/>
    <path id="Path-156" data-name="Path" class="exterior-R-dark" d="M145,202.073l-2.5,1.443v5.774l5-2.887L145,204.96Z"/>
    <path id="Path-157" data-name="Path" class="exterior-R-dark" d="M137.5,206.403l-5,2.887v5.773l7.5-4.33-2.5-1.443Z"/>
    <path id="Path-158" data-name="Path" class="exterior-R-dark" d="M197.5,171.762l-2.5,1.444v5.773l5-2.887-2.5-1.443Z"/>
    <path id="Path-159" data-name="Path" class="exterior-R-dark" d="M215,161.658l-2.5,1.444v5.773l5-2.886-2.5-1.444Z"/>
    <path id="Path-160" data-name="Path" class="exterior-R-dark" d="M232.5,151.555l-2.5,1.443v5.774l5-2.887-2.5-1.443Z"/>
    <path id="Path-161" data-name="Path" class="exterior-R-dark" d="M250,141.451l-2.5,1.444v5.773l5-2.887-2.5-1.443Z"/>
    <path id="Path-162" data-name="Path" class="exterior-R-dark" d="M180,181.866l-2.5,1.443v5.774l5-2.887-2.5-1.443Z"/>
    <path id="Path-163" data-name="Path" class="exterior-R-dark" d="M172.5,186.196l-5,2.887v5.773l7.5-4.33-2.5-1.443Z"/>
    <path id="Path-164" data-name="Path" class="exterior-R-dark" d="M155,196.3l-5,2.886v5.774l7.5-4.33-2.5-1.444Z"/>
    <path id="Path-165" data-name="Path" class="exterior-R-dark" d="M127.5,212.177,125,213.62v5.774l5-2.887-2.5-1.444Z"/>
    <path id="Path-166" data-name="Path" class="exterior-R-dark" d="M120,216.507l-5,2.887v5.773l7.5-4.33-2.5-1.443Z"/>
    <path id="Path-167" data-name="Path" class="top-prim" d="M202.5,174.649v-2.887l5-2.887,2.5,1.444Z"/>
    <path id="Path-168" data-name="Path" class="top-prim" d="M220,164.545v-2.887l5-2.886,2.5,1.443Z"/>
    <path id="Path-169" data-name="Path" class="top-prim" d="M237.5,154.442v-2.887l5-2.887,2.5,1.443Z"/>
    <path id="Path-170" data-name="Path" class="top-prim" d="M185,184.753v-2.887l5-2.887,2.5,1.443Z"/>
    <path id="Path-171" data-name="Path" class="top-prim" d="M160,199.186V196.3l2.5-1.444L165,196.3Z"/>
    <path id="Path-172" data-name="Path" class="top-prim" d="M142.5,209.29v-2.887l2.5-1.443,2.5,1.443Z"/>
    <path id="Path-173" data-name="Path" class="top-prim" d="M132.5,215.063v-2.886l5-2.887,2.5,1.443Z"/>
    <path id="Path-174" data-name="Path" class="top-prim" d="M195,178.979v-2.887l2.5-1.443,2.5,1.443Z"/>
    <path id="Path-175" data-name="Path" class="top-prim" d="M212.5,168.875v-2.886l2.5-1.444,2.5,1.444Z"/>
    <path id="Path-176" data-name="Path" class="top-prim" d="M230,158.772v-2.887l2.5-1.443,2.5,1.443Z"/>
    <path id="Path-177" data-name="Path" class="top-prim" d="M255,144.338v-2.887l5-2.887,2.5,1.444Z"/>
    <path id="Path-178" data-name="Path" class="top-prim" d="M247.5,148.668v-2.887l2.5-1.443,2.5,1.443Z"/>
    <path id="Path-179" data-name="Path" class="top-prim" d="M177.5,189.083v-2.887l2.5-1.444,2.5,1.444Z"/>
    <path id="Path-180" data-name="Path" class="top-prim" d="M167.5,194.856v-2.887l5-2.886,2.5,1.443Z"/>
    <path id="Path-181" data-name="Path" class="top-prim" d="M150,204.96v-2.887l5-2.887,2.5,1.444Z"/>
    <path id="Path-182" data-name="Path" class="top-prim" d="M125,219.394v-2.887l2.5-1.444,2.5,1.444Z"/>
    <path id="Path-183" data-name="Path" class="top-prim" d="M115,225.167V222.28l5-2.886,2.5,1.443Z"/>
    <path id="Path-184" data-name="Path" class="exterior-R-prim" d="M262.5,157.328l-150,86.603v2.887l150-86.603Z"/>
    <path id="Path-185" data-name="Path" class="exterior-R-dark" d="M207.5,183.309l-5,2.887v5.773l7.5-4.33-2.5-1.443Z"/>
    <path id="Path-186" data-name="Path" class="exterior-R-dark" d="M225,173.206l-5,2.886v5.774l7.5-4.33-2.5-1.444Z"/>
    <path id="Path-187" data-name="Path" class="exterior-R-dark" d="M242.5,163.102l-5,2.887v5.773l7.5-4.33-2.5-1.443Z"/>
    <path id="Path-188" data-name="Path" class="exterior-R-dark" d="M190,193.413l-5,2.887v5.773l7.5-4.33L190,196.3Z"/>
    <path id="Path-189" data-name="Path" class="exterior-R-dark" d="M162.5,209.29l-2.5,1.443v5.774l5-2.887-2.5-1.443Z"/>
    <path id="Path-190" data-name="Path" class="exterior-R-dark" d="M145,219.394l-2.5,1.443v5.773l5-2.886L145,222.28Z"/>
    <path id="Path-191" data-name="Path" class="exterior-R-dark" d="M137.5,223.724l-5,2.886v5.774l7.5-4.33-2.5-1.444Z"/>
    <path id="Path-192" data-name="Path" class="exterior-R-dark" d="M197.5,189.083l-2.5,1.443V196.3l5-2.887-2.5-1.444Z"/>
    <path id="Path-193" data-name="Path" class="exterior-R-dark" d="M215,178.979l-2.5,1.443v5.774l5-2.887-2.5-1.443Z"/>
    <path id="Path-194" data-name="Path" class="exterior-R-dark" d="M232.5,168.875l-2.5,1.444v5.773l5-2.887-2.5-1.443Z"/>
    <path id="Path-195" data-name="Path" class="exterior-R-dark" d="M250,158.772l-2.5,1.443v5.774l5-2.887-2.5-1.444Z"/>
    <path id="Path-196" data-name="Path" class="exterior-R-dark" d="M180,199.186l-2.5,1.444v5.773l5-2.887-2.5-1.443Z"/>
    <path id="Path-197" data-name="Path" class="exterior-R-dark" d="M172.5,203.516l-5,2.887v5.774l7.5-4.33-2.5-1.444Z"/>
    <path id="Path-198" data-name="Path" class="exterior-R-dark" d="M155,213.62l-5,2.887v5.773l7.5-4.33-2.5-1.443Z"/>
    <path id="Path-199" data-name="Path" class="exterior-R-dark" d="M127.5,229.497l-2.5,1.444v5.773l5-2.887-2.5-1.443Z"/>
    <path id="Path-200" data-name="Path" class="exterior-R-dark" d="M120,233.827l-5,2.887v5.774l7.5-4.331-2.5-1.443Z"/>
    <path id="Path-201" data-name="Path" class="top-prim" d="M202.5,191.969v-2.886l5-2.887,2.5,1.443Z"/>
    <path id="Path-202" data-name="Path" class="top-prim" d="M220,181.866v-2.887l5-2.887,2.5,1.444Z"/>
    <path id="Path-203" data-name="Path" class="top-prim" d="M237.5,171.762v-2.887l5-2.886,2.5,1.443Z"/>
    <path id="Path-204" data-name="Path" class="top-prim" d="M185,202.073v-2.887l5-2.886,2.5,1.443Z"/>
    <path id="Path-205" data-name="Path" class="top-prim" d="M160,216.507V213.62l2.5-1.443,2.5,1.443Z"/>
    <path id="Path-206" data-name="Path" class="top-prim" d="M142.5,226.61v-2.886l2.5-1.444,2.5,1.444Z"/>
    <path id="Path-207" data-name="Path" class="top-prim" d="M132.5,232.384v-2.887l5-2.887,2.5,1.444Z"/>
    <path id="Path-208" data-name="Path" class="top-prim" d="M195,196.3v-2.887l2.5-1.444,2.5,1.444Z"/>
    <path id="Path-209" data-name="Path" class="top-prim" d="M212.5,186.196v-2.887l2.5-1.443,2.5,1.443Z"/>
    <path id="Path-210" data-name="Path" class="top-prim" d="M230,176.092v-2.886l2.5-1.444,2.5,1.444Z"/>
    <path id="Path-211" data-name="Path" class="top-prim" d="M255,161.658v-2.886l5-2.887,2.5,1.443Z"/>
    <path id="Path-212" data-name="Path" class="top-prim" d="M247.5,165.989v-2.887l2.5-1.444,2.5,1.444Z"/>
    <path id="Path-213" data-name="Path" class="top-prim" d="M177.5,206.403v-2.887l2.5-1.443,2.5,1.443Z"/>
    <path id="Path-214" data-name="Path" class="top-prim" d="M167.5,212.177V209.29l5-2.887,2.5,1.444Z"/>
    <path id="Path-215" data-name="Path" class="top-prim" d="M150,222.28v-2.886l5-2.887,2.5,1.443Z"/>
    <path id="Path-216" data-name="Path" class="top-prim" d="M125,236.714v-2.887l2.5-1.443,2.5,1.443Z"/>
    <path id="Path-217" data-name="Path" class="top-prim" d="M115,242.488v-2.887l5-2.887,2.5,1.443Z"/>
    <path id="Path-218" data-name="Path" class="exterior-L-dark" d="M10,112.584l95,54.848v8.66L7.5,119.801v-5.774Z"/>
    <path id="Path-219" data-name="Path" class="exterior-L-dark" d="M10,129.904l95,54.848v8.661L7.5,137.121v-5.773Z"/>
    <path id="Path-220" data-name="Path" class="exterior-L-dark" d="M10,147.225l95,54.848v8.66L7.5,154.442v-5.774Z"/>
    <path id="Path-221" data-name="Path" class="exterior-L-dark" d="M10,164.545l95,54.849v8.66L7.5,171.762v-5.773Z"/>
    <path id="Path-222" data-name="Path" class="exterior-L-dark" d="M10,181.866l95,54.848v8.66L7.5,189.083v-5.774Z"/>
    <path id="Path-223" data-name="Path" class="exterior-R-dark" d="M155,230.941l-2.5,1.443v2.887l2.5-1.444Z"/>
    <path id="Path-224" data-name="Path" class="exterior-R-dark" d="M207.5,200.63l-2.5,1.443v2.887l2.5-1.444Z"/>
    <path id="Path-225" data-name="Path" class="exterior-R-dark" d="M117.5,252.591l-2.5,1.444v2.886l2.5-1.443Z"/>
    <path id="Path-226" data-name="Path" class="exterior-R-dark" d="M170,222.28l-2.5,1.444v2.886l2.5-1.443Z"/>
    <path id="Path-227" data-name="Path" class="exterior-R-dark" d="M162.5,226.61l-2.5,1.444v2.887l2.5-1.444Z"/>
    <path id="Path-228" data-name="Path" class="exterior-L-dark" d="M10,199.186l95,54.849v2.886L10,202.073Z"/>
    <path id="Path-229" data-name="Path" class="exterior-R-prim" d="M5,101.037l5,2.886v98.15L5,204.96Z"/>
    <path id="Path-230" data-name="Path" class="top-prim" d="M5,204.96l5-2.887,95,54.848v5.774Z"/>
    <path id="Path-231" data-name="Path" class="exterior-L-prim" d="M102.5,255.478V154.442l-5-2.887V255.478l2.5,1.443Z"/>
    <path id="Path-232" data-name="Path" class="exterior-R-prim" d="M100,256.921l2.5-1.443V154.442l-2.5-1.444Z"/>
    <path id="Path-233" data-name="Path" class="exterior-L-prim" d="M87.5,246.818V145.781l-5-2.886V246.818l2.5,1.443Z"/>
    <path id="Path-234" data-name="Path" class="exterior-R-prim" d="M85,248.261l2.5-1.443V145.781L85,144.338Z"/>
    <path id="Path-235" data-name="Path" class="exterior-L-prim" d="M72.5,238.157V137.121l-5-2.887V238.157l2.5,1.444Z"/>
    <path id="Path-236" data-name="Path" class="exterior-R-prim" d="M70,239.601l2.5-1.444V137.121L70,135.678Z"/>
    <path id="Path-237" data-name="Path" class="exterior-L-prim" d="M57.5,229.497V128.461l-5-2.887V229.497l2.5,1.444Z"/>
    <path id="Path-238" data-name="Path" class="exterior-R-prim" d="M55,230.941l2.5-1.444V131.348L55,129.904Z"/>
    <path id="Path-239" data-name="Path" class="exterior-L-prim" d="M42.5,220.837v-98.15l-5-5.773V220.837L40,222.28Z"/>
    <path id="Path-240" data-name="Path" class="exterior-R-prim" d="M40,222.28l2.5-1.443v-98.15L40,121.244Z"/>
    <path id="Path-241" data-name="Path" class="exterior-L-prim" d="M35,216.507V115.47l-5-2.886V216.507l2.5,1.443Z"/>
    <path id="Path-242" data-name="Path" class="exterior-R-prim" d="M32.5,217.95l2.5-1.443v-98.15l-2.5-1.443Z"/>
    <path id="Path-243" data-name="Path" class="exterior-L-prim" d="M27.5,212.177V111.14l-5-2.886V212.177L25,213.62Z"/>
    <path id="Path-244" data-name="Path" class="exterior-R-prim" d="M25,213.62l2.5-1.443v-98.15L25,112.584Z"/>
    <path id="Path-245" data-name="Path" class="exterior-L-prim" d="M20,207.847V106.81l-5-2.887V207.847l2.5,1.443Z"/>
    <path id="Path-246" data-name="Path" class="exterior-R-prim" d="M17.5,209.29l2.5-1.443v-98.15l-2.5-1.443Z"/>
    <path id="Path-247" data-name="Path" class="exterior-L-prim" d="M12.5,203.516V102.48l-5-2.887V203.516L10,204.96Z"/>
    <path id="Path-248" data-name="Path" class="exterior-R-prim" d="M10,204.96l2.5-1.444V105.367L10,103.923Z"/>
    <path id="Path-249" data-name="Path" class="exterior-L-prim" d="M95,251.148V150.112l-5-2.887V251.148l2.5,1.443Z"/>
    <path id="Path-250" data-name="Path" class="exterior-R-prim" d="M92.5,252.591l2.5-1.443V150.112l-2.5-1.444Z"/>
    <path id="Path-251" data-name="Path" class="exterior-L-prim" d="M80,242.488V141.451l-5-2.886V242.488l2.5,1.443Z"/>
    <path id="Path-252" data-name="Path" class="exterior-R-prim" d="M77.5,243.931l2.5-1.443v-98.15l-2.5-1.443Z"/>
    <path id="Path-253" data-name="Path" class="exterior-L-prim" d="M65,233.827V132.791l-5-2.887V233.827l2.5,1.444Z"/>
    <path id="Path-254" data-name="Path" class="exterior-R-prim" d="M62.5,235.271l2.5-1.444V132.791l-2.5-1.443Z"/>
    <path id="Path-255" data-name="Path" class="exterior-L-prim" d="M50,225.167V124.131l-5-2.887V225.167l2.5,1.443Z"/>
    <path id="Path-256" data-name="Path" class="exterior-R-prim" d="M47.5,226.61l2.5-1.443V124.131l-2.5-1.444Z"/>
    <path id="Path-257" data-name="Path" class="exterior-L-prim" d="M7.5,116.914l100,57.735v2.887L7.5,119.801Z"/>
    <path id="Path-258" data-name="Path" class="exterior-L-dark" d="M27.5,122.687l2.5,1.444v5.773l-5-2.887,2.5-1.443Z"/>
    <path id="Path-259" data-name="Path" class="exterior-L-dark" d="M42.5,131.348l2.5,1.443v5.773l-5-2.886,2.5-1.444Z"/>
    <path id="Path-260" data-name="Path" class="exterior-L-dark" d="M57.5,140.008l2.5,1.443v5.774l-5-2.887,2.5-1.443Z"/>
    <path id="Path-261" data-name="Path" class="exterior-L-dark" d="M72.5,148.668l2.5,1.443v5.774l-5-2.887,2.5-1.443Z"/>
    <path id="Path-262" data-name="Path" class="exterior-L-dark" d="M87.5,157.328l2.5,1.444v5.773l-5-2.887,2.5-1.443Z"/>
    <path id="Path-263" data-name="Path" class="exterior-L-dark" d="M20,118.357l2.5,1.444v5.773l-5-2.887,2.5-1.443Z"/>
    <path id="Path-264" data-name="Path" class="exterior-L-dark" d="M35,127.017l2.5,1.444v5.773l-5-2.886,2.5-1.444Z"/>
    <path id="Path-265" data-name="Path" class="exterior-L-dark" d="M50,135.678l2.5,1.443v5.774l-5-2.887,2.5-1.444Z"/>
    <path id="Path-266" data-name="Path" class="exterior-L-dark" d="M65,144.338l2.5,1.443v5.774l-5-2.887,2.5-1.443Z"/>
    <path id="Path-267" data-name="Path" class="exterior-L-dark" d="M80,152.998l2.5,1.444v5.773l-5-2.887,2.5-1.443Z"/>
    <path id="Path-268" data-name="Path" class="exterior-L-dark" d="M95,161.658l2.5,1.444v5.773l-5-2.886,2.5-1.444Z"/>
    <path id="Path-269" data-name="Path" class="exterior-L-dark" d="M102.5,165.989l2.5,1.443v5.773l-5-2.886,2.5-1.444Z"/>
    <path id="Path-270" data-name="Path" class="top-prim" d="M15,121.244v-2.887l-2.5-1.443L10,118.357Z"/>
    <path id="Path-271" data-name="Path" class="top-prim" d="M30,129.904v-2.887l-2.5-1.443L25,127.017Z"/>
    <path id="Path-272" data-name="Path" class="top-prim" d="M45,138.564v-2.886l-2.5-1.444L40,135.678Z"/>
    <path id="Path-273" data-name="Path" class="top-prim" d="M60,147.225v-2.887l-2.5-1.443L55,144.338Z"/>
    <path id="Path-274" data-name="Path" class="top-prim" d="M75,155.885v-2.887l-2.5-1.443L70,152.998Z"/>
    <path id="Path-275" data-name="Path" class="top-prim" d="M90,164.545v-2.887l-2.5-1.443L85,161.658Z"/>
    <path id="Path-276" data-name="Path" class="top-prim" d="M22.5,125.574v-2.887L20,121.244l-2.5,1.443Z"/>
    <path id="Path-277" data-name="Path" class="top-prim" d="M37.5,134.234v-2.886L35,129.904l-2.5,1.444Z"/>
    <path id="Path-278" data-name="Path" class="top-prim" d="M52.5,142.895v-2.887L50,138.564l-2.5,1.444Z"/>
    <path id="Path-279" data-name="Path" class="top-prim" d="M67.5,151.555v-2.887L65,147.225l-2.5,1.443Z"/>
    <path id="Path-280" data-name="Path" class="top-prim" d="M82.5,160.215v-2.887L80,155.885l-2.5,1.443Z"/>
    <path id="Path-281" data-name="Path" class="top-prim" d="M97.5,168.875v-2.886L95,164.545l-2.5,1.444Z"/>
    <path id="Path-282" data-name="Path" class="top-prim" d="M105,173.205v-2.886l-2.5-1.444-2.5,1.444Z"/>
    <path id="Path-283" data-name="Path" class="exterior-L-prim" d="M7.5,151.555l100,57.735v2.887L7.5,154.442Z"/>
    <path id="Path-284" data-name="Path" class="exterior-L-dark" d="M27.5,157.328l2.5,1.444v5.773l-5-2.887,2.5-1.443Z"/>
    <path id="Path-285" data-name="Path" class="exterior-L-dark" d="M42.5,165.989l2.5,1.443v5.773l-5-2.886,2.5-1.444Z"/>
    <path id="Path-286" data-name="Path" class="exterior-L-dark" d="M57.5,174.649l2.5,1.443v5.774l-5-2.887,2.5-1.443Z"/>
    <path id="Path-287" data-name="Path" class="exterior-L-dark" d="M72.5,183.309l2.5,1.444v5.773l-5-2.887,2.5-1.443Z"/>
    <path id="Path-288" data-name="Path" class="exterior-L-dark" d="M87.5,191.969l2.5,1.444v5.773L85,196.3l2.5-1.444Z"/>
    <path id="Path-289" data-name="Path" class="exterior-L-dark" d="M20,152.998l2.5,1.444v5.773l-5-2.887,2.5-1.443Z"/>
    <path id="Path-290" data-name="Path" class="exterior-L-dark" d="M35,161.658l2.5,1.444v5.773l-5-2.886,2.5-1.444Z"/>
    <path id="Path-291" data-name="Path" class="exterior-L-dark" d="M50,170.319l2.5,1.443v5.774l-5-2.887,2.5-1.444Z"/>
    <path id="Path-292" data-name="Path" class="exterior-L-dark" d="M65,178.979l2.5,1.443v5.774l-5-2.887,2.5-1.443Z"/>
    <path id="Path-293" data-name="Path" class="exterior-L-dark" d="M80,187.639l2.5,1.444v5.773l-5-2.887,2.5-1.443Z"/>
    <path id="Path-294" data-name="Path" class="exterior-L-dark" d="M95,196.3l2.5,1.443v5.773l-5-2.886,2.5-1.444Z"/>
    <path id="Path-295" data-name="Path" class="exterior-L-dark" d="M102.5,200.63l2.5,1.443v5.774l-5-2.887,2.5-1.444Z"/>
    <path id="Path-296" data-name="Path" class="top-prim" d="M15,155.885v-2.887l-2.5-1.443L10,152.998Z"/>
    <path id="Path-297" data-name="Path" class="top-prim" d="M30,164.545v-2.886l-2.5-1.444L25,161.659Z"/>
    <path id="Path-298" data-name="Path" class="top-prim" d="M45,173.205v-2.886l-2.5-1.444L40,170.319Z"/>
    <path id="Path-299" data-name="Path" class="top-prim" d="M60,181.866v-2.887l-2.5-1.443L55,178.979Z"/>
    <path id="Path-300" data-name="Path" class="top-prim" d="M75,190.526v-2.887l-2.5-1.443L70,187.639Z"/>
    <path id="Path-301" data-name="Path" class="top-prim" d="M90,199.186V196.3l-2.5-1.444L85,196.3Z"/>
    <path id="Path-302" data-name="Path" class="top-prim" d="M22.5,160.215v-2.887L20,155.885l-2.5,1.443Z"/>
    <path id="Path-303" data-name="Path" class="top-prim" d="M37.5,168.875v-2.886L35,164.545l-2.5,1.444Z"/>
    <path id="Path-304" data-name="Path" class="top-prim" d="M52.5,177.536v-2.887L50,173.205l-2.5,1.444Z"/>
    <path id="Path-305" data-name="Path" class="top-prim" d="M67.5,186.196v-2.887L65,181.866l-2.5,1.443Z"/>
    <path id="Path-306" data-name="Path" class="top-prim" d="M82.5,194.856v-2.887L80,190.526l-2.5,1.443Z"/>
    <path id="Path-307" data-name="Path" class="top-prim" d="M97.5,203.516V200.63L95,199.186l-2.5,1.444Z"/>
    <path id="Path-308" data-name="Path" class="top-prim" d="M105,207.847V204.96l-2.5-1.444L100,204.96Z"/>
    <path id="Path-309" data-name="Path" class="exterior-L-prim" d="M7.5,186.196l100,57.735v2.887L7.5,189.083Z"/>
    <path id="Path-310" data-name="Path" class="exterior-L-dark" d="M27.5,191.969l2.5,1.444v5.773L25,196.3l2.5-1.444Z"/>
    <path id="Path-311" data-name="Path" class="exterior-L-dark" d="M42.5,200.63l2.5,1.443v5.774l-5-2.887,2.5-1.444Z"/>
    <path id="Path-312" data-name="Path" class="exterior-L-dark" d="M57.5,209.29l2.5,1.443v5.774l-5-2.887,2.5-1.443Z"/>
    <path id="Path-313" data-name="Path" class="exterior-L-dark" d="M72.5,217.95l2.5,1.444v5.773l-5-2.887,2.5-1.443Z"/>
    <path id="Path-314" data-name="Path" class="exterior-L-dark" d="M87.5,226.61l2.5,1.444v5.773l-5-2.886,2.5-1.444Z"/>
    <path id="Path-315" data-name="Path" class="exterior-L-dark" d="M20,187.639l2.5,1.444v5.773l-5-2.887,2.5-1.443Z"/>
    <path id="Path-316" data-name="Path" class="exterior-L-dark" d="M35,196.3l2.5,1.443v5.773l-5-2.886,2.5-1.444Z"/>
    <path id="Path-317" data-name="Path" class="exterior-L-dark" d="M50,204.96l2.5,1.443v5.774l-5-2.887,2.5-1.443Z"/>
    <path id="Path-318" data-name="Path" class="exterior-L-dark" d="M65,213.62l2.5,1.443v5.774l-5-2.887,2.5-1.443Z"/>
    <path id="Path-319" data-name="Path" class="exterior-L-dark" d="M80,222.28l2.5,1.444v5.773l-5-2.887,2.5-1.443Z"/>
    <path id="Path-320" data-name="Path" class="exterior-L-dark" d="M95,230.941l2.5,1.443v5.773l-5-2.886,2.5-1.444Z"/>
    <path id="Path-321" data-name="Path" class="exterior-L-dark" d="M102.5,235.271l2.5,1.443v5.774l-5-2.887,2.5-1.444Z"/>
    <path id="Path-322" data-name="Path" class="top-prim" d="M15,190.526v-2.887l-2.5-1.443L10,187.639Z"/>
    <path id="Path-323" data-name="Path" class="top-prim" d="M30,199.186V196.3l-2.5-1.444L25,196.3Z"/>
    <path id="Path-324" data-name="Path" class="top-prim" d="M45,207.847V204.96l-2.5-1.444L40,204.96Z"/>
    <path id="Path-325" data-name="Path" class="top-prim" d="M60,216.507V213.62l-2.5-1.443L55,213.62Z"/>
    <path id="Path-326" data-name="Path" class="top-prim" d="M75,225.167V222.28l-2.5-1.443L70,222.28Z"/>
    <path id="Path-327" data-name="Path" class="top-prim" d="M90,233.827v-2.886l-2.5-1.444L85,230.941Z"/>
    <path id="Path-328" data-name="Path" class="top-prim" d="M22.5,194.856v-2.887L20,190.526l-2.5,1.443Z"/>
    <path id="Path-329" data-name="Path" class="top-prim" d="M37.5,203.516V200.63L35,199.186l-2.5,1.444Z"/>
    <path id="Path-330" data-name="Path" class="top-prim" d="M52.5,212.177V209.29L50,207.846l-2.5,1.444Z"/>
    <path id="Path-331" data-name="Path" class="top-prim" d="M67.5,220.837V217.95L65,216.507l-2.5,1.443Z"/>
    <path id="Path-332" data-name="Path" class="top-prim" d="M82.5,229.497V226.61L80,225.167l-2.5,1.443Z"/>
    <path id="Path-333" data-name="Path" class="top-prim" d="M97.5,238.157v-2.886L95,233.827l-2.5,1.444Z"/>
    <path id="Path-334" data-name="Path" class="top-prim" d="M105,242.488v-2.887l-2.5-1.444-2.5,1.444Z"/>
    <path id="Path-335" data-name="Path" class="exterior-L-dark" d="M65,230.941l2.5,1.443v2.887L65,233.827Z"/>
    <path id="Path-336" data-name="Path" class="exterior-L-dark" d="M72.5,235.271l2.5,1.443v2.887l-2.5-1.444Z"/>
    <path id="Path-337" data-name="Path" class="exterior-L-dark" d="M20,204.96l2.5,1.443v2.887L20,207.847Z"/>
    <path id="Path-338" data-name="Path" class="exterior-L-dark" d="M87.5,243.931l2.5,1.443v2.887l-2.5-1.443Z"/>
    <path id="Path-339" data-name="Path" class="exterior-L-dark" d="M35,213.62l2.5,1.443v2.887L35,216.507Z"/>
    <path id="Path-340" data-name="Path" class="exterior-L-dark" d="M80,239.601l2.5,1.443v2.887L80,242.488Z"/>
    <path id="Path-341" data-name="Path" class="exterior-L-dark" d="M27.5,209.29l2.5,1.443v2.887l-2.5-1.443Z"/>
    <path id="Path-342" data-name="Path" class="exterior-L-dark" d="M102.5,252.591l2.5,1.444v2.886l-2.5-1.443Z"/>
    <path id="Path-343" data-name="Path" class="exterior-L-dark" d="M50,222.28l2.5,1.444v2.886L50,225.167Z"/>
    <path id="Path-344" data-name="Path" class="exterior-L-dark" d="M95,248.261l2.5,1.443v2.887L95,251.148Z"/>
    <path id="Path-345" data-name="Path" class="exterior-L-dark" d="M42.5,217.95l2.5,1.444v2.886l-2.5-1.443Z"/>
    <path id="Path-346" data-name="Path" class="exterior-L-dark" d="M57.5,226.61l2.5,1.444v2.887l-2.5-1.444Z"/>
    <path id="Path-347" data-name="Path" class="exterior-L-prim" d="M7.5,134.234l100,57.735v2.887L7.5,137.121Z"/>
    <path id="Path-348" data-name="Path" class="exterior-L-dark" d="M27.5,140.008l2.5,1.443v5.774l-5-2.887,2.5-1.443Z"/>
    <path id="Path-349" data-name="Path" class="exterior-L-dark" d="M42.5,148.668l2.5,1.443v5.774l-5-2.887,2.5-1.443Z"/>
    <path id="Path-350" data-name="Path" class="exterior-L-dark" d="M57.5,157.328l2.5,1.444v5.773l-5-2.887,2.5-1.443Z"/>
    <path id="Path-351" data-name="Path" class="exterior-L-dark" d="M72.5,165.989l2.5,1.443v5.773l-5-2.886,2.5-1.444Z"/>
    <path id="Path-352" data-name="Path" class="exterior-L-dark" d="M87.5,174.649l2.5,1.443v5.774l-5-2.887,2.5-1.443Z"/>
    <path id="Path-353" data-name="Path" class="exterior-L-dark" d="M20,135.678l2.5,1.443v5.774l-5-2.887,2.5-1.444Z"/>
    <path id="Path-354" data-name="Path" class="exterior-L-dark" d="M35,144.338l2.5,1.443v5.774l-5-2.887,2.5-1.443Z"/>
    <path id="Path-355" data-name="Path" class="exterior-L-dark" d="M50,152.998l2.5,1.444v5.773l-5-2.887,2.5-1.443Z"/>
    <path id="Path-356" data-name="Path" class="exterior-L-dark" d="M65,161.658l2.5,1.444v5.773l-5-2.886,2.5-1.444Z"/>
    <path id="Path-357" data-name="Path" class="exterior-L-dark" d="M80,170.319l2.5,1.443v5.774l-5-2.887,2.5-1.444Z"/>
    <path id="Path-358" data-name="Path" class="exterior-L-dark" d="M95,178.979l2.5,1.443v5.774l-5-2.887,2.5-1.443Z"/>
    <path id="Path-359" data-name="Path" class="exterior-L-dark" d="M102.5,183.309l2.5,1.444v5.773l-5-2.887,2.5-1.443Z"/>
    <path id="Path-360" data-name="Path" class="top-prim" d="M15,138.564v-2.886l-2.5-1.444L10,135.678Z"/>
    <path id="Path-361" data-name="Path" class="top-prim" d="M30,147.225v-2.887l-2.5-1.443L25,144.338Z"/>
    <path id="Path-362" data-name="Path" class="top-prim" d="M45,155.885v-2.887l-2.5-1.443L40,152.998Z"/>
    <path id="Path-363" data-name="Path" class="top-prim" d="M60,164.545v-2.887l-2.5-1.443L55,161.658Z"/>
    <path id="Path-364" data-name="Path" class="top-prim" d="M75,173.205v-2.886l-2.5-1.444L70,170.319Z"/>
    <path id="Path-365" data-name="Path" class="top-prim" d="M90,181.866v-2.887l-2.5-1.443L85,178.979Z"/>
    <path id="Path-366" data-name="Path" class="top-prim" d="M22.5,142.895v-2.887L20,138.564l-2.5,1.444Z"/>
    <path id="Path-367" data-name="Path" class="top-prim" d="M37.5,151.555v-2.887L35,147.225l-2.5,1.443Z"/>
    <path id="Path-368" data-name="Path" class="top-prim" d="M52.5,160.215v-2.887L50,155.885l-2.5,1.443Z"/>
    <path id="Path-369" data-name="Path" class="top-prim" d="M67.5,168.875v-2.886L65,164.545l-2.5,1.444Z"/>
    <path id="Path-370" data-name="Path" class="top-prim" d="M82.5,177.536v-2.887L80,173.205l-2.5,1.444Z"/>
    <path id="Path-371" data-name="Path" class="top-prim" d="M97.5,186.196v-2.887L95,181.866l-2.5,1.443Z"/>
    <path id="Path-372" data-name="Path" class="top-prim" d="M105,190.526v-2.887l-2.5-1.443-2.5,1.443Z"/>
    <path id="Path-373" data-name="Path" class="exterior-L-prim" d="M7.5,168.875l100,57.735v2.887L7.5,171.762Z"/>
    <path id="Path-374" data-name="Path" class="exterior-L-dark" d="M27.5,174.649l2.5,1.443v5.774l-5-2.887,2.5-1.443Z"/>
    <path id="Path-375" data-name="Path" class="exterior-L-dark" d="M42.5,183.309l2.5,1.444v5.773l-5-2.887,2.5-1.443Z"/>
    <path id="Path-376" data-name="Path" class="exterior-L-dark" d="M57.5,191.969l2.5,1.444v5.773L55,196.3l2.5-1.444Z"/>
    <path id="Path-377" data-name="Path" class="exterior-L-dark" d="M72.5,200.63l2.5,1.443v5.774l-5-2.887,2.5-1.444Z"/>
    <path id="Path-378" data-name="Path" class="exterior-L-dark" d="M87.5,209.29l2.5,1.443v5.774l-5-2.887,2.5-1.443Z"/>
    <path id="Path-379" data-name="Path" class="exterior-L-dark" d="M20,170.319l2.5,1.443v5.774l-5-2.887,2.5-1.443Z"/>
    <path id="Path-380" data-name="Path" class="exterior-L-dark" d="M35,178.979l2.5,1.443v5.774l-5-2.887,2.5-1.443Z"/>
    <path id="Path-381" data-name="Path" class="exterior-L-dark" d="M50,187.639l2.5,1.444v5.773l-5-2.887,2.5-1.443Z"/>
    <path id="Path-382" data-name="Path" class="exterior-L-dark" d="M65,196.3l2.5,1.443v5.773l-5-2.886,2.5-1.444Z"/>
    <path id="Path-383" data-name="Path" class="exterior-L-dark" d="M80,204.96l2.5,1.443v5.774l-5-2.887,2.5-1.443Z"/>
    <path id="Path-384" data-name="Path" class="exterior-L-dark" d="M95,213.62l2.5,1.443v5.774l-5-2.887,2.5-1.443Z"/>
    <path id="Path-385" data-name="Path" class="exterior-L-dark" d="M102.5,217.95l2.5,1.444v5.773l-5-2.887,2.5-1.443Z"/>
    <path id="Path-386" data-name="Path" class="top-prim" d="M15,173.206v-2.887l-2.5-1.444L10,170.319Z"/>
    <path id="Path-387" data-name="Path" class="top-prim" d="M30,181.866v-2.887l-2.5-1.443L25,178.979Z"/>
    <path id="Path-388" data-name="Path" class="top-prim" d="M45,190.526v-2.887l-2.5-1.443L40,187.639Z"/>
    <path id="Path-389" data-name="Path" class="top-prim" d="M60,199.186V196.3l-2.5-1.444L55,196.3Z"/>
    <path id="Path-390" data-name="Path" class="top-prim" d="M75,207.847V204.96l-2.5-1.444L70,204.96Z"/>
    <path id="Path-391" data-name="Path" class="top-prim" d="M90,216.507V213.62l-2.5-1.443L85,213.62Z"/>
    <path id="Path-392" data-name="Path" class="top-prim" d="M22.5,177.536v-2.887L20,173.205l-2.5,1.444Z"/>
    <path id="Path-393" data-name="Path" class="top-prim" d="M37.5,186.196v-2.887L35,181.866l-2.5,1.443Z"/>
    <path id="Path-394" data-name="Path" class="top-prim" d="M52.5,194.856v-2.887L50,190.526l-2.5,1.443Z"/>
    <path id="Path-395" data-name="Path" class="top-prim" d="M67.5,203.516V200.63L65,199.186l-2.5,1.444Z"/>
    <path id="Path-396" data-name="Path" class="top-prim" d="M82.5,212.177V209.29L80,207.847l-2.5,1.443Z"/>
    <path id="Path-397" data-name="Path" class="top-prim" d="M97.5,220.837V217.95L95,216.507l-2.5,1.443Z"/>
    <path id="Path-398" data-name="Path" class="top-prim" d="M105,225.167V222.28l-2.5-1.443L100,222.28Z"/>
    <path id="Path-399" data-name="Path" class="exterior-L-prim" d="M110,158.772l-5-2.887v106.81l5,2.887Z"/>
    <path id="Path-400" data-name="Path" class="exterior-R-prim" d="M110,161.658v-5.773L270,63.509v5.773Z"/>
    <path id="Path-401" data-name="Path" class="exterior-L-prim" d="M110,161.659v-5.774L0,92.376V98.15Z"/>
  </g>
</svg>
