<svg id="Layer_1" data-name="Layer 1" xmlns="http://www.w3.org/2000/svg" viewBox="0 0 270 265.5811">
  <defs>
    <style>
      .top-prim {
        fill: #dd8a87;
      }

      .window-L-prim {
        fill: #4d3b24;
      }

      .window-R-prim {
        fill: #bd9664;
      }

      .exterior-R-dark {
        fill: #a64c49;
      }

      .exterior-R-prim {
        fill: #d05752;
      }

      .exterior-L-prim {
        fill: #73302e;
      }

      .cls-1 {
        fill: #bdbdbd;
      }

      .exterior-L-dark {
        fill: #512220;
      }
    </style>
  </defs>
  <title>Artboard 38</title>
  <g id="root">
    <path id="anchor_0_155.885_270" class="top-prim" d="M0,103.923V92.376L160,0,270,63.509V75.056L110,167.432Z"/>
    <path id="Path" class="window-L-prim" d="M5,101.036l105,60.622v98.15L10,202.0731,5,204.959V101.036Z"/>
    <path id="Path-2" data-name="Path" class="window-R-prim" d="M265,72.169,110,161.658V265.5811L265,176.092Z"/>
    <path id="Path-3" data-name="Path" class="exterior-R-dark" d="M260,83.716,112.5,168.875v8.66l150-86.602V82.272Z"/>
    <path id="Path-4" data-name="Path" class="exterior-R-dark" d="M260,101.036l-147.5,85.16v8.66l150-86.6029v-8.66Z"/>
    <path id="Path-5" data-name="Path" class="exterior-R-dark" d="M260,118.3571l-147.5,85.159v8.66l150-86.602v-8.66Z"/>
    <path id="Path-6" data-name="Path" class="exterior-R-dark" d="M260,135.677l-147.5,85.16v8.66l150-86.603v-8.66Z"/>
    <path id="Path-7" data-name="Path" class="exterior-R-dark" d="M260,152.998,112.5,238.157v8.66l150-86.602v-8.661Z"/>
    <path id="Path-8" data-name="Path" class="exterior-R-dark" d="M260,170.3181l-147.5,85.16v5.773l150-86.602v-5.774Z"/>
    <path id="Path-9" data-name="Path" class="top-prim" d="M270,173.205l-5-2.8869L115,256.921v5.773Z"/>
    <path id="Path-10" data-name="Path" class="exterior-R-prim" d="M105,262.694V152.998l5,2.887,5-2.887V262.694l-5,2.8871Z"/>
    <path id="Path-11" data-name="Path" class="exterior-R-prim" d="M262.5,174.649V67.8391l7.5-4.33V173.205l-5,2.887Z"/>
    <path id="Path-12" data-name="Path" class="exterior-L-prim" d="M7.5,99.593,0,95.263v106.81l7.5,4.33Z"/>
    <path id="Path-13" data-name="Path" class="exterior-L-prim" d="M110,161.658v-5.773L0,92.376V98.15Z"/>
    <path id="Path-14" data-name="Path" class="exterior-L-prim" d="M265,66.395l-5,2.887V173.205l5,2.887Z"/>
    <path id="Path-15" data-name="Path" class="exterior-R-prim" d="M5,101.036l5,2.887v98.15L5,204.959Z"/>
    <path id="Path-16" data-name="Path" class="cls-1" d="M10,202.0731,5,204.959l100,57.735v-5.773Z"/>
    <path id="Path-17" data-name="Path" class="exterior-R-prim" d="M262.5,88.046l-150,86.603v2.886l150-86.602Z"/>
    <path id="Path-18" data-name="Path" class="exterior-R-dark" d="M120,164.545l-5,2.887v5.773l7.5-4.33-2.5-1.443Z"/>
    <path id="Path-19" data-name="Path" class="top-prim" d="M115,173.205v-2.8869L260,86.603l2.5,1.443Z"/>
    <path id="Path-20" data-name="Path" class="exterior-R-prim" d="M262.5,105.367l-150,86.6021v2.8869l150-86.6029Z"/>
    <path id="Path-21" data-name="Path" class="exterior-R-dark" d="M120,181.8651l-5,2.8869v5.774l7.5-4.33-2.5-1.444Z"/>
    <path id="Path-22" data-name="Path" class="top-prim" d="M115,190.526v-2.887l145-83.716,2.5,1.443Z"/>
    <path id="Path-23" data-name="Path" class="exterior-R-prim" d="M262.5,122.687l-150,86.603v2.886l150-86.602Z"/>
    <path id="Path-24" data-name="Path" class="exterior-R-dark" d="M120,199.186l-5,2.8871v5.7729l7.5-4.33-2.5-1.443Z"/>
    <path id="Path-25" data-name="Path" class="top-prim" d="M115,207.846v-2.887l145-83.715,2.5,1.443Z"/>
    <path id="Path-26" data-name="Path" class="exterior-R-prim" d="M262.5,140.0081,112.5,226.61v2.887l150-86.603Z"/>
    <path id="Path-27" data-name="Path" class="exterior-R-dark" d="M120,216.506l-5,2.887v5.7741l7.5-4.33-2.5-1.444Z"/>
    <path id="Path-28" data-name="Path" class="top-prim" d="M115,225.1671V222.28l145-83.716,2.5,1.4441Z"/>
    <path id="Path-29" data-name="Path" class="exterior-R-prim" d="M262.5,157.328l-150,86.603v2.886l150-86.602Z"/>
    <path id="Path-30" data-name="Path" class="exterior-R-dark" d="M120,233.827l-5,2.8871v5.7729l7.5-4.33-2.5-1.4429Z"/>
    <path id="Path-31" data-name="Path" class="top-prim" d="M115,242.487V239.6l145-83.715,2.5,1.443Z"/>
    <path id="Path-32" data-name="Path" class="exterior-L-dark" d="M10,112.583l95,54.849v8.66L7.5,119.8v-5.773Z"/>
    <path id="Path-33" data-name="Path" class="exterior-L-dark" d="M10,129.9041l95,54.8479v8.66L7.5,137.121v-5.774Z"/>
    <path id="Path-34" data-name="Path" class="exterior-L-dark" d="M10,147.2241l95,54.849v8.66L7.5,154.441v-5.773Z"/>
    <path id="Path-35" data-name="Path" class="exterior-L-dark" d="M10,164.545l95,54.848v8.66L7.5,171.762v-5.774Z"/>
    <path id="Path-36" data-name="Path" class="exterior-L-dark" d="M10,181.8651l95,54.849v8.66L7.5,189.082v-5.773Z"/>
    <path id="Path-37" data-name="Path" class="exterior-R-dark" d="M117.5,252.591l-2.5,1.4431v2.8869l2.5-1.443Z"/>
    <path id="Path-38" data-name="Path" class="exterior-L-dark" d="M10,199.186l95,54.8481v2.8869L10,202.0731Z"/>
    <path id="Path-39" data-name="Path" class="exterior-R-prim" d="M5,101.036l5,2.887v98.15L5,204.959Z"/>
    <path id="Path-40" data-name="Path" class="top-prim" d="M5,204.959l5-2.8859,95,54.8479v5.773Z"/>
    <path id="Path-41" data-name="Path" class="exterior-L-prim" d="M7.5,116.913l100,57.736v2.886L7.5,119.8Z"/>
    <path id="Path-42" data-name="Path" class="top-prim" d="M105,173.205v-2.8869L10,115.47l-2.5,1.444Z"/>
    <path id="Path-43" data-name="Path" class="exterior-L-prim" d="M7.5,151.5551l100,57.7349v2.886L7.5,154.441Z"/>
    <path id="Path-44" data-name="Path" class="top-prim" d="M105,207.846v-2.887L10,150.111l-2.5,1.4441Z"/>
    <path id="Path-45" data-name="Path" class="exterior-L-prim" d="M7.5,186.196l100,57.735v2.886L7.5,189.082Z"/>
    <path id="Path-46" data-name="Path" class="top-prim" d="M105,242.487V239.6L10,184.752l-2.5,1.444Z"/>
    <path id="Path-47" data-name="Path" class="exterior-L-dark" d="M102.5,252.591l2.5,1.4431v2.8869l-2.5-1.443Z"/>
    <path id="Path-48" data-name="Path" class="exterior-L-dark" d="M95,248.261l2.5,1.443v2.887L95,251.147Z"/>
    <path id="Path-49" data-name="Path" class="exterior-L-prim" d="M7.5,134.234l100,57.7351v2.8869L7.5,137.121Z"/>
    <path id="Path-50" data-name="Path" class="top-prim" d="M105,190.526v-2.887L10,132.791l-2.5,1.443Z"/>
    <path id="Path-51" data-name="Path" class="exterior-L-prim" d="M7.5,168.875l100,57.735v2.887L7.5,171.762Z"/>
    <path id="Path-52" data-name="Path" class="top-prim" d="M105,225.1671V222.28L10,167.432l-2.5,1.443Z"/>
    <path id="Path-53" data-name="Path" class="exterior-L-prim" d="M110,155.885l-5-2.887V262.694l5,2.8871Z"/>
    <path id="Path-54" data-name="Path" class="exterior-R-prim" d="M110,161.658v-5.773L270,63.509v5.773Z"/>
  </g>
</svg>
